<svg id="Layer_1" data-name="Layer 1" xmlns="http://www.w3.org/2000/svg" width="339.91" height="228.57" viewBox="0 0 339.91 228.57">
  <defs>
    <style>
      .cls-1, .cls-2 {
        fill: none;
        stroke-linejoin: round;
      }

      .cls-1 {
        stroke: #000;
        stroke-width: 15px;
        opacity: 0.5;
      }

      .cls-2 {
        stroke: #fffa4d;
        stroke-width: 20px;
      }

      .cls-3 {
        fill: #b3c9c8;
      }

      .cls-3, .cls-4, .cls-5, .cls-6 {
        fill-rule: evenodd;
      }

      .cls-4 {
        fill: #8ba8a7;
      }

      .cls-5 {
        fill: #d1ebe9;
      }

      .cls-6 {
        fill: #9cbdbc;
      }

      .cls-7 {
        fill: #785da5;
      }

      .cls-8 {
        fill: #9776d1;
      }

      .cls-9 {
        fill: #fff;
      }

      .cls-10 {
        fill: #fd0200;
      }

      .cls-11 {
        fill: #3378bf;
      }

      .cls-12 {
        fill: #ff5938;
      }

      .cls-13 {
        fill: #e3001e;
      }

      .cls-14 {
        fill: #ab0300;
      }
    </style>
  </defs>
  <g>
    <path class="cls-1" d="M330,74.88a9.37,9.37,0,0,0-11.55-6.51,9.26,9.26,0,0,0-6.51,9.19l-62.95,23.37a11.35,11.35,0,0,0-1.78-5.65,9.44,9.44,0,0,0-1-8.81,19.64,19.64,0,0,0-5.24-5.41.09.09,0,0,1,0,0c.37-3-1.59-5.66-3.31-7.35A20.46,20.46,0,0,0,235.63,72l42.25-34.43a9.09,9.09,0,0,0,8.56-.23A9.53,9.53,0,0,0,277,20.81a9.3,9.3,0,0,0-3.82,11.63L229.61,67.91c-1-2.16-2.71-5.91-6.39-7.51a.49.49,0,0,0-.05-.16c-1.08-2.16-5.66-6.19-11.91-7.13-5.5-5.51-11.45-5.67-16.44-4.13-1.63-2.32-4.76-3.06-7.2-2.71a21.31,21.31,0,0,0-3.57,1.08,7.63,7.63,0,0,0-6.19-1.82,14,14,0,0,0-1.62.23,2.71,2.71,0,0,0-1.49-1.82,5.71,5.71,0,0,0-2.24-.45A21.18,21.18,0,0,0,163,45.33a9.27,9.27,0,0,0-4.83-.44,13,13,0,0,0-8.42,4.17h0l-.1,0a7.41,7.41,0,0,0-1.08-.27,6.45,6.45,0,0,0-7.42,6,9,9,0,0,0-2.71-.38,8.53,8.53,0,0,0-5.45,2A6.78,6.78,0,0,0,130.68,61a3.84,3.84,0,0,0-.84-.53,6.51,6.51,0,0,0-3.8-.25,11.13,11.13,0,0,0-3,.9,7.73,7.73,0,0,0-4.19,7.22c-2.5-1.22-4.93-1.23-6.56,0a4.81,4.81,0,0,0-1.75,5.1,3.85,3.85,0,0,0-.68,0,4,4,0,0,0-3.1,5.78,10.55,10.55,0,0,0-5.57,2.1C99.32,82.9,98.38,86,99.92,88a4.07,4.07,0,0,0,1.13,1,8.58,8.58,0,0,0-2.16.82c-2,1.12-3.52,3.75-2.54,6a4.64,4.64,0,0,0,2.31,2.27,7.6,7.6,0,0,0-.92.3,5.08,5.08,0,0,0-2.88,2.89,4.33,4.33,0,0,0,1.48,4.74,5.26,5.26,0,0,0-1.45,1.17,3.26,3.26,0,0,0-.83,2c0,1.21.87,2.34,2.43,3.1a1.89,1.89,0,0,0,.21.09,3.2,3.2,0,0,0-2,1.46,5,5,0,0,0-.41,4.39,2.86,2.86,0,0,0,.92,1.46A4.29,4.29,0,0,0,93.55,122a8.06,8.06,0,0,0,.26,4.6,4.16,4.16,0,0,0,.67,1.44,2.63,2.63,0,0,0,1,.75,4.5,4.5,0,0,0-1,1.76,8.45,8.45,0,0,0-.08,4,4.9,4.9,0,0,0,1.76,3.37,3.91,3.91,0,0,0-.33,2.58,11.42,11.42,0,0,0,1.52,4.73,2.87,2.87,0,0,0,.51.55,7.28,7.28,0,0,0-.07,4.43,18.48,18.48,0,0,0,2.25,6.16C79.32,164.4,38.1,181,37.75,183h0s.09,0,.12,0l.25,0,.35,0,.34,0c.2,0,.44-.07.69-.11l.29-.05,1.18-.26.08,0c10.65-2.49,43.94-13.87,61.62-20.1a34.24,34.24,0,0,0,1,8.07L101,172.9c-5.26-2-10.34-3.61-16.47-1.51-4.26,1.46-7.47,4.65-10.57,7.73a51,51,0,0,1-5.13,4.67c-6,4.56-21.53,13.75-35.11.73-5.33-5.11-7.88-9.82-7.79-14.39.09-5,3.26-10.07,10-16,5.38-4.78,8.21-9.91,8.39-15.23.16-4.65-6.37-10.81-10.75-11.32a3.21,3.21,0,0,0-3.83,2.78c-.4,2,1.44,3,3.22,3.93,2.72,1.45,5.53,3,3.81,7.85-1.23,3.52-4.28,6.39-7.22,9.17a51.1,51.1,0,0,0-4.21,4.28c-4.62,5.52-6.54,11.8-5.55,18.14,1.22,7.84,7,15.71,15.38,21.05A26.33,26.33,0,0,0,49.4,199c11.57,0,22.85-7.25,30.41-15.32a15.67,15.67,0,0,1,14.5-5.13c-17.83,15.18-44.09,38-43.81,39.82h0s.09,0,.12,0a1.41,1.41,0,0,0,.25,0l.33-.14a2.48,2.48,0,0,0,.3-.13c.19-.09.41-.22.64-.34l.24-.14,1-.62.07,0c8.62-5.39,33.24-24.32,48.51-36.28l1.47.55c5.43,2,7.31,2.67,8.13,2.64a12.07,12.07,0,0,0,2,3.62,9.66,9.66,0,0,0,6.19,3,9.15,9.15,0,0,0,1.24,1.55,7,7,0,0,0,5,2.12,5.94,5.94,0,0,0,1.1-.1c.21.33.44.65.68,1,.81,1.09,2.92,1.69,4.59,1.71h.1a3.75,3.75,0,0,0,2.66-.85,6.28,6.28,0,0,0,3.25.82,12.74,12.74,0,0,0,2.5-.29c.24,0,.44-.08.58-.09a.63.63,0,0,0,.51-.4l.08,0,.07.16,0-.13a48.92,48.92,0,0,0,23.27,2.86,2,2,0,0,1,.09.26,6.25,6.25,0,0,0,3.47,3.41,5.73,5.73,0,0,0,2.11.4,4.88,4.88,0,0,0,3.95-1.86,4.74,4.74,0,0,0,4,2.2,5.54,5.54,0,0,0,.81-.07,6.14,6.14,0,0,0,3.25-1.79,12.48,12.48,0,0,0,4,.69,8.73,8.73,0,0,0,6.24-2.34,7.39,7.39,0,0,0,1-1.3h.05a83.76,83.76,0,0,0,18.71-4.05.65.65,0,0,0,.37-.34,5.35,5.35,0,0,0,3.12,2,4.45,4.45,0,0,0,.81.08c2.06,0,4.3-1.4,6.67-4.15a3.5,3.5,0,0,0,1.28.28h.06c2.66,0,5-2.92,6.95-8.68a4.91,4.91,0,0,0,.79.08h0c2.56,0,4.9-2,7-5.73,3.94-2.72,4.87-8.3,3.74-12.45l-.18-.61a13.36,13.36,0,0,0,3.12-4.22,24.46,24.46,0,0,0,1.73-9,3.87,3.87,0,0,0,2.73-1.78,7.8,7.8,0,0,0,1.07-3.31,22.07,22.07,0,0,0-.08-6.39l0,0a4.14,4.14,0,0,0,.6-1.64,15.8,15.8,0,0,0-.61-8.15,4.55,4.55,0,0,0,.49-1.62,21.13,21.13,0,0,0-1.8-11.78l0,0a4.42,4.42,0,0,0,.7-3.26,22.65,22.65,0,0,0-1.3-5.74L314.53,84a9.16,9.16,0,0,0,9.28,2.62A9.38,9.38,0,0,0,330,74.88Z"/>
    <path class="cls-2" d="M322.68,67.61a9.39,9.39,0,0,0-11.56-6.52,9.26,9.26,0,0,0-6.51,9.19l-63,23.37A11.35,11.35,0,0,0,239.88,88a9.41,9.41,0,0,0-1-8.81,19.64,19.64,0,0,0-5.24-5.41s0,0,0,0c.37-3-1.59-5.66-3.3-7.35a21.92,21.92,0,0,0-2-1.66L270.6,30.29a9.09,9.09,0,0,0,8.56-.23,9.38,9.38,0,0,0,3.27-12.86,9.4,9.4,0,0,0-12.75-3.67,9.3,9.3,0,0,0-3.82,11.63L222.33,60.63c-1-2.16-2.71-5.91-6.39-7.5a.48.48,0,0,0-.05-.17c-1.08-2.15-5.66-6.19-11.91-7.13a15.43,15.43,0,0,0-16.44-4.13c-1.62-2.32-4.76-3.06-7.2-2.71a22.59,22.59,0,0,0-3.57,1.08,7.67,7.67,0,0,0-6.19-1.82,13.56,13.56,0,0,0-1.61.23,2.66,2.66,0,0,0-1.5-1.81,5.5,5.5,0,0,0-2.23-.46,21.2,21.2,0,0,0-9.52,1.84,9.27,9.27,0,0,0-4.83-.44,13,13,0,0,0-8.42,4.17h0l-.1,0a7.11,7.11,0,0,0-1.08-.27,6.45,6.45,0,0,0-7.42,6,9,9,0,0,0-2.71-.38,8.55,8.55,0,0,0-5.45,2,6.78,6.78,0,0,0-2.29,4.57,3.84,3.84,0,0,0-.84-.53,6.48,6.48,0,0,0-3.79-.25,11.1,11.1,0,0,0-3,.9,7.73,7.73,0,0,0-4.19,7.22c-2.5-1.22-4.93-1.23-6.56,0a4.81,4.81,0,0,0-1.75,5.1,3.86,3.86,0,0,0-.68,0A4,4,0,0,0,99.45,72a10.55,10.55,0,0,0-5.57,2.1c-1.84,1.56-2.78,4.62-1.24,6.7a4,4,0,0,0,1.14,1,8.51,8.51,0,0,0-2.17.82c-2,1.13-3.52,3.75-2.54,6a4.68,4.68,0,0,0,2.31,2.27,7.6,7.6,0,0,0-.92.3,5.07,5.07,0,0,0-2.88,2.9,4.34,4.34,0,0,0,1.48,4.73A5.08,5.08,0,0,0,87.62,100a3.22,3.22,0,0,0-.84,2c0,1.21.88,2.34,2.43,3.1a1.89,1.89,0,0,0,.21.09,3.22,3.22,0,0,0-2,1.46,5,5,0,0,0-.41,4.39,2.86,2.86,0,0,0,.92,1.46,4.26,4.26,0,0,0-1.66,2.21,8,8,0,0,0,.25,4.6,4.16,4.16,0,0,0,.67,1.44,2.75,2.75,0,0,0,1,.76,4.39,4.39,0,0,0-1,1.75,8.58,8.58,0,0,0-.08,4,4.91,4.91,0,0,0,1.76,3.37,4,4,0,0,0-.33,2.58A11.42,11.42,0,0,0,90,137.91a2.87,2.87,0,0,0,.51.55,7.28,7.28,0,0,0-.07,4.43,18.41,18.41,0,0,0,2.25,6.16c-20.68,8.08-61.91,24.66-62.26,26.69h0l.12,0a1.45,1.45,0,0,0,.25,0l.36,0,.33,0c.2,0,.44-.07.69-.11l.29-.05,1.18-.26.08,0c10.65-2.49,44-13.87,61.62-20.1a34.24,34.24,0,0,0,1,8.07l-2.78,2.33c-5.26-2-10.34-3.61-16.47-1.51-4.26,1.46-7.47,4.65-10.57,7.73a50.92,50.92,0,0,1-5.12,4.67c-6,4.56-21.54,13.76-35.11.73-5.34-5.11-7.89-9.82-7.8-14.38.09-5,3.26-10.07,10-16,5.38-4.78,8.21-9.9,8.39-15.23.16-4.65-6.37-10.81-10.75-11.32a3.21,3.21,0,0,0-3.83,2.78c-.4,2,1.44,3,3.22,3.93,2.72,1.45,5.53,3,3.81,7.85-1.23,3.52-4.28,6.39-7.22,9.17A51.1,51.1,0,0,0,18,148.3c-4.62,5.52-6.53,11.8-5.55,18.14,1.22,7.84,7,15.71,15.38,21.05a26.36,26.36,0,0,0,14.33,4.21c11.57,0,22.85-7.25,30.41-15.32A15.67,15.67,0,0,1,87,171.25c-17.83,15.18-44.09,38-43.8,39.82h0s.09,0,.13,0a.59.59,0,0,0,.24,0l.34-.14c.09,0,.18-.07.29-.13s.41-.22.64-.34l.24-.14c.31-.17.66-.39,1-.62l.07,0c8.61-5.39,33.23-24.32,48.5-36.28l1.47.55c5.43,2,7.31,2.67,8.13,2.65a12.37,12.37,0,0,0,2,3.61,9.66,9.66,0,0,0,6.19,3,9.67,9.67,0,0,0,1.24,1.55,7,7,0,0,0,5,2.12,5.94,5.94,0,0,0,1.1-.1c.21.33.44.65.68,1,.81,1.09,2.92,1.69,4.59,1.71h.1a3.73,3.73,0,0,0,2.66-.85,6.28,6.28,0,0,0,3.25.82,13.9,13.9,0,0,0,2.51-.28,4.61,4.61,0,0,1,.57-.1.66.66,0,0,0,.52-.4l.07,0,.07.16,0-.13a48.92,48.92,0,0,0,23.27,2.86,2,2,0,0,1,.09.26,6.21,6.21,0,0,0,3.47,3.41,5.8,5.8,0,0,0,2.11.4,5.13,5.13,0,0,0,2.37-.55,5.06,5.06,0,0,0,1.58-1.31,4.71,4.71,0,0,0,4,2.2,5.42,5.42,0,0,0,.81-.07,6.2,6.2,0,0,0,3.26-1.79,12.38,12.38,0,0,0,4,.69,8.73,8.73,0,0,0,6.24-2.34,7.39,7.39,0,0,0,1-1.3h.06A84.25,84.25,0,0,0,205.9,187a.65.65,0,0,0,.37-.34,5.31,5.31,0,0,0,3.12,2,4.47,4.47,0,0,0,.82.08c2,0,4.29-1.4,6.66-4.15a3.73,3.73,0,0,0,1.28.29h.06c2.66,0,5-2.93,6.95-8.69a4.91,4.91,0,0,0,.79.08h0c2.56,0,4.9-2,7-5.72,3.94-2.73,4.88-8.3,3.74-12.45l-.18-.62a13.36,13.36,0,0,0,3.12-4.22c1.32-2.85,1.57-6.07,1.74-9a3.87,3.87,0,0,0,2.72-1.78,7.8,7.8,0,0,0,1.07-3.31,21.73,21.73,0,0,0-.08-6.39l0,0a4.08,4.08,0,0,0,.6-1.64,15.76,15.76,0,0,0-.61-8.14,4.46,4.46,0,0,0,.49-1.63,21.14,21.14,0,0,0-1.8-11.78l0,0a4.42,4.42,0,0,0,.7-3.26,22.75,22.75,0,0,0-1.3-5.74l64.07-23.78a9.14,9.14,0,0,0,9.28,2.62A9.38,9.38,0,0,0,322.68,67.61Z"/>
    <g>
      <g>
        <g>
          <path class="cls-3" d="M30.47,175.74c.43-2.48,61.66-26.6,72.28-30.55L309.47,68.48c3.47,1.08,4.35,3.45,2.43,6.54L105.18,151.73c-10.62,3.94-72.77,25.6-74.71,24Z"/>
          <path class="cls-4" d="M312.71,71a4.6,4.6,0,0,1-.81,4L105.18,151.73c-10.58,3.93-72.25,25.43-74.67,24Z"/>
          <path class="cls-5" d="M188.9,115.83c58.48-21.7,106-39.73,105.9-40.14s-48,17-106.44,38.66-106,39.73-105.89,40.14,48-17,106.43-38.66Z"/>
          <path class="cls-6" d="M190.05,118.91c58.47-21.7,106-39.73,105.89-40.13s-48,17-106.44,38.66-106,39.72-105.89,40.13,48-17,106.44-38.66Z"/>
        </g>
        <g>
          <ellipse class="cls-7" cx="313.83" cy="70.23" rx="9.23" ry="9.53" transform="translate(-7.02 92.05) rotate(-16.5)"/>
          <ellipse class="cls-8" cx="312.66" cy="68.98" rx="6.04" ry="6.24" transform="translate(-6.72 91.66) rotate(-16.5)"/>
          <ellipse class="cls-9" cx="311.41" cy="67.9" rx="2.69" ry="2.77" transform="translate(-6.46 91.27) rotate(-16.5)"/>
        </g>
      </g>
      <g>
        <g>
          <path class="cls-3" d="M43.23,211.07C42.84,208.59,93,166,101.8,158.84L272.73,19.56c3.64-.09,5.23,1.87,4.4,5.41L106.2,164.25c-8.78,7.15-60.62,47.7-63,46.82Z"/>
          <path class="cls-4" d="M276.62,20.93a4.57,4.57,0,0,1,.51,4L106.2,164.25c-8.74,7.13-60.19,47.37-62.93,46.82Z"/>
          <path class="cls-5" d="M173.87,103.26c48.35-39.4,87.57-71.81,87.29-72.14S221.23,62.64,172.88,102s-87.56,71.8-87.29,72.14,39.93-31.52,88.28-70.92Z"/>
          <path class="cls-6" d="M176,105.81c48.35-39.4,87.57-71.8,87.29-72.14S223.31,65.2,175,104.59,87.4,176.4,87.67,176.73,127.6,145.21,176,105.81Z"/>
        </g>
        <g>
          <ellipse class="cls-7" cx="274.42" cy="21.8" rx="9.23" ry="9.53" transform="translate(25.56 139.48) rotate(-29.85)"/>
          <ellipse class="cls-8" cx="273" cy="20.86" rx="6.04" ry="6.24" transform="translate(25.84 138.65) rotate(-29.85)"/>
          <ellipse class="cls-9" cx="271.53" cy="20.09" rx="2.69" ry="2.77" transform="translate(26.02 137.81) rotate(-29.85)"/>
        </g>
      </g>
      <g>
        <path class="cls-10" d="M171.81,195.25a4.13,4.13,0,0,1-3.48-1.89l-.45-.76-.57.68a4.64,4.64,0,0,1-1.39,1.15,4.49,4.49,0,0,1-2.08.49,5.32,5.32,0,0,1-1.88-.36,5.63,5.63,0,0,1-3.12-3.07l-.07-.24-.17-.47-.5.06a46.85,46.85,0,0,1-5.76.35,48.2,48.2,0,0,1-16.62-2.95L135,188l-.12.76-.2-.47-.51,0-.08,0c-.15,0-.33,0-.55.1a13.42,13.42,0,0,1-2.4.27,5.64,5.64,0,0,1-2.93-.73l-.42-.25-.34.34a3.2,3.2,0,0,1-2.22.67c-1.59,0-3.53-.57-4.18-1.46-.24-.32-.46-.63-.66-1l-.23-.35-.42.08a6,6,0,0,1-1,.08,6.31,6.31,0,0,1-4.55-1.94,9.08,9.08,0,0,1-1.15-1.44l-.18-.29h-.34a9.06,9.06,0,0,1-5.69-2.71,11.49,11.49,0,0,1-1.89-3.43l-.15-.45-.48,0c-.83,0-3.3-.88-7.88-2.61-1.49-.56-2.83-1.06-3.61-1.32a27.36,27.36,0,0,0-8.52-1.54A16.12,16.12,0,0,0,72.07,176c-8.86,9.47-20.06,15.12-29.95,15.12a25.74,25.74,0,0,1-14-4.11c-8.26-5.25-13.9-13-15.1-20.62-.95-6.16.92-12.26,5.41-17.64a52.58,52.58,0,0,1,4.14-4.21c3-2.85,6.12-5.77,7.41-9.43,1.89-5.4-1.43-7.18-4.11-8.61-2-1.07-3.19-1.82-2.9-3.25a2.53,2.53,0,0,1,2.64-2.31l.5,0c4.06.47,10.34,6.38,10.19,10.66-.18,5.15-2.93,10.13-8.18,14.79-6.83,6.07-10.06,11.3-10.16,16.47-.09,4.75,2.52,9.61,8,14.86,4.75,4.56,10.18,6.87,16.14,6.87,8.51,0,16-4.73,19.78-7.55a52.72,52.72,0,0,0,5.2-4.73c3-3,6.2-6.17,10.33-7.59a17.12,17.12,0,0,1,5.58-.94c4,0,7.68,1.39,11.58,2.87,1,.38,2,.76,3.05,1.12l1.45.51-.67-1.38a19.28,19.28,0,0,1-1.21-3.17,37.47,37.47,0,0,1-1.08-12l0-.51-.49-.13c-2.81-1.69-3.88-5.15-4.54-8.3a6.66,6.66,0,0,1,0-4l.2-.45-.39-.3a1.82,1.82,0,0,1-.37-.4,10.86,10.86,0,0,1-1.43-4.47,3.42,3.42,0,0,1,.25-2.16l.31-.51-.49-.34a4.36,4.36,0,0,1-1.5-3,8,8,0,0,1,.06-3.67,3.9,3.9,0,0,1,.89-1.51l.63-.64-.82-.37a2,2,0,0,1-.78-.58,3.56,3.56,0,0,1-.56-1.22,7.43,7.43,0,0,1-.25-4.23A3.61,3.61,0,0,1,88.29,113l.72-.48-.69-.54a2.22,2.22,0,0,1-.7-1.15,4.36,4.36,0,0,1,.32-3.83,3.8,3.8,0,0,1,1.69-1.26l1.33-.54-1.3-.61-.18-.07c-1.32-.65-2.08-1.58-2.07-2.53a2.59,2.59,0,0,1,.69-1.6,4.29,4.29,0,0,1,1.27-1l.85-.47-.78-.58a3.7,3.7,0,0,1-1.27-4,4.49,4.49,0,0,1,2.54-2.52,8.09,8.09,0,0,1,.83-.28l1.63-.44-1.52-.73a4,4,0,0,1-2-2c-.84-2,.52-4.24,2.27-5.23a7.44,7.44,0,0,1,2-.75l1.44-.35-1.24-.8a3.35,3.35,0,0,1-1-.87c-1.32-1.8-.47-4.47,1.15-5.85a9.94,9.94,0,0,1,5.25-2l.86-.11-.38-.78a3.39,3.39,0,0,1,2.61-4.89h.24l1,0,0-.74a4.72,4.72,0,0,1,1.51-4.51,4.14,4.14,0,0,1,2.57-.8,7.7,7.7,0,0,1,3.33.86l1,.46L112.16,61A7.15,7.15,0,0,1,116,54.41a10.23,10.23,0,0,1,2.86-.85,9.21,9.21,0,0,1,1.59-.16,4.31,4.31,0,0,1,1.84.36,3.44,3.44,0,0,1,.71.45L124,55l.07-1.19a6.17,6.17,0,0,1,2.08-4.14,7.92,7.92,0,0,1,5-1.85h.15a8.68,8.68,0,0,1,2.38.35l.75.22,0-.78a5.81,5.81,0,0,1,5.82-5.47,6.4,6.4,0,0,1,.88.07,7,7,0,0,1,1,.25l.2.07.19-.07h.29l.12-.23a12.43,12.43,0,0,1,8-4,13.52,13.52,0,0,1,1.63-.11,7.54,7.54,0,0,1,2.87.51l.25.1.24-.11a20.88,20.88,0,0,1,8.43-1.79h.81a5.19,5.19,0,0,1,2,.39,2.06,2.06,0,0,1,1.15,1.38l.13.6.6-.11a14.62,14.62,0,0,1,1.55-.23l.93,0a6.65,6.65,0,0,1,4.78,1.68l.28.28.37-.14a21.92,21.92,0,0,1,3.45-1,7.4,7.4,0,0,1,1.07-.07A6.63,6.63,0,0,1,187,42.06l.26.38.44-.14a17.17,17.17,0,0,1,5.07-.81,14.88,14.88,0,0,1,10.73,4.78l.15.15.2,0c6.15.93,10.49,4.88,11.45,6.79l.06.33.3.13c3.5,1.52,5.18,5.24,6.09,7.23l.37.82.26.08,0,.41.44.16a19.82,19.82,0,0,1,7,4.43c1.62,1.59,3.47,4.07,3.12,6.82l0,.36.26.36a21.23,21.23,0,0,1,5.11,5.16,8.8,8.8,0,0,1,1,8.21l-.13.29.16.28a13.51,13.51,0,0,1,1.61,8.19,2.51,2.51,0,0,1,0,.27l-.05.27.2.27a22,22,0,0,1,2.81,9,3.92,3.92,0,0,1-.56,2.8l-.28.33.25.44A20.34,20.34,0,0,1,245,121.24a3.65,3.65,0,0,1-.41,1.4l-.14.25.09.27a15,15,0,0,1,.59,7.83,3.47,3.47,0,0,1-.5,1.39l-.15.21v.3a21.19,21.19,0,0,1,.07,6.21,7.38,7.38,0,0,1-1,3.05,3.23,3.23,0,0,1-2.28,1.49l-.52.07,0,.52c-.17,3-.43,6.07-1.68,8.76a13,13,0,0,1-3,4l-.29.26.28,1c1.07,3.91.22,9.21-3.49,11.77l-.12.08-.07.13c-2,3.57-4.11,5.38-6.42,5.4a5,5,0,0,1-.72-.07l-.53-.08-.17.5c-1.83,5.4-4,8.26-6.35,8.26a3.37,3.37,0,0,1-1.11-.24l-.42-.16-.29.33c-2.24,2.61-4.33,3.93-6.19,3.93a3.33,3.33,0,0,1-.7-.07,4.68,4.68,0,0,1-2.75-1.77l-.65-.79-.41.93a82.88,82.88,0,0,1-18.56,4l-.3,0-.22.26a6.75,6.75,0,0,1-.93,1.19,8,8,0,0,1-5.8,2.16,11.56,11.56,0,0,1-3.8-.66l-.37-.12-.28.28a5.56,5.56,0,0,1-2.91,1.61A4.25,4.25,0,0,1,171.81,195.25Z"/>
        <path class="cls-11" d="M205.05,64.57l.21-.21Z"/>
        <path class="cls-12" d="M218.5,133.74c-5.41-16.15-19.4-30.1-36-34.5a1.43,1.43,0,0,0-1.1,2.6c14.31,8.64,25.22,18.89,33.91,33.26C216.28,136.76,219.15,135.69,218.5,133.74Z"/>
        <path class="cls-12" d="M211,139.69c-7.68-14.44-20.44-30.54-38.25-31.14-1.82-.06-2,2.45-.4,3,15.89,5.82,25.71,16.62,35.69,29.85A1.72,1.72,0,0,0,211,139.69Z"/>
        <path class="cls-12" d="M203,147.06c-7.13-15.19-21.94-27.4-38.45-30.91-1.39-.29-2.39,1.67-1,2.39,14.57,7.64,26.17,17.24,35.77,30.68A2.14,2.14,0,0,0,203,147.06Z"/>
        <path class="cls-12" d="M193.07,148.52a61.37,61.37,0,0,0-32.15-24.94,1.17,1.17,0,0,0-.89,2.13,104.29,104.29,0,0,1,31,24.39C192,151.22,193.88,149.76,193.07,148.52Z"/>
        <path class="cls-12" d="M226.49,86.3c-11.52-6-27.67-8.77-40.31-4.75a1.57,1.57,0,0,0,.42,3.07c6.22.65,12.44.23,18.69,1,6.76.83,13.44,2,20.15,3.16C226.86,89,228,87.07,226.49,86.3Z"/>
        <path class="cls-12" d="M230.44,99.63c-3.89-4.85-12.16-6.36-18-7.27S200.15,91.17,195,94a.89.89,0,0,0,.21,1.6c5.87,1.43,12.12.9,18.09,2.08,5.45,1.09,10.63,4.33,16.09,4.66C230.83,102.39,231.22,100.59,230.44,99.63Z"/>
        <path class="cls-12" d="M224.49,76c-6.23-6.17-18.39-6-26.42-4.66a1,1,0,0,0,0,2A116.9,116.9,0,0,1,211.31,76c3.94,1.14,7.85,2.84,12,2.82A1.7,1.7,0,0,0,224.49,76Z"/>
        <path class="cls-12" d="M231.75,112c-5.67-7.27-16.48-8.56-25-6.94a1.55,1.55,0,0,0,0,3c8.29,1.48,15.16,2.91,22.52,7.24C231.42,116.53,233.12,113.73,231.75,112Z"/>
        <path class="cls-12" d="M156.11,49.14c-4.56,1.3-7.8,4.64-11.2,7.8A184,184,0,0,0,131.49,70.6c-7.4,8.46-13.5,17.82-16.39,28.78a.93.93,0,0,0,1.8.5c3.64-10.57,10.61-19.09,18.23-27.1,3.41-3.59,6.87-7.12,10.3-10.69,3.62-3.75,7-8.14,11.66-10.61A1.29,1.29,0,0,0,156.11,49.14Z"/>
        <path class="cls-12" d="M163.39,51.71c-11.34,7.79-19.53,20.46-28.12,31-8.35,10.26-14.51,23.63-17.69,36.44a1.25,1.25,0,0,0,2.41.66c4.92-13,11.23-24.16,19.08-35.62,7.24-10.56,15.78-22.5,25.76-30.63C165.88,52.74,164.5,51,163.39,51.71Z"/>
        <path class="cls-12" d="M173.19,55.71c-20.28,11.84-39.55,33.35-44.42,56.78a1,1,0,0,0,2,.56,101.86,101.86,0,0,1,18.77-32.36c7.48-8.78,16.53-15.48,25-23.15C175.59,56.65,174.31,55.06,173.19,55.71Z"/>
        <path class="cls-12" d="M178.52,61.27c-9.66,4.69-15.68,14.42-21.72,22.9-3.77,5.29-7.53,10.58-11.23,15.92-3.23,4.68-8.36,9.9-9.18,15.71-.24,1.7,2.35,2.47,2.63.72.9-5.46,6.1-10.43,9.29-14.83,3.34-4.6,6.67-9.22,10-13.81C164.8,79,170.8,70.29,180.45,64.57,182.58,63.3,180.71,60.21,178.52,61.27Z"/>
        <path class="cls-12" d="M185.38,70.9C174.66,74.53,167,82.55,160.19,91.31c-6,7.8-14,17.49-15.05,27.59-.12,1.14,1.77,1.39,2,.27,2-9.64,10.52-20,16.69-27.42a70.69,70.69,0,0,1,22.82-17.83C188.31,73.07,187.16,70.29,185.38,70.9Z"/>
        <path class="cls-12" d="M118.34,77.39c-2.84-2-6.81-2.4-10.2-2.59-2.9-.17-6.43-.66-8.75,1.37-1.17,1,.42,3.15,1.69,2.19,1.89-1.44,6.85-.32,8.87.07,2.46.48,4.61,1.55,7,2.24C119,81.25,119.94,78.51,118.34,77.39Z"/>
        <path class="cls-12" d="M112.88,87.65c-1.21-2.19-3.72-2.07-6-2.3a41,41,0,0,0-9.65.12c-1.1.14-1.59,1.82-.29,2.12,2.41.55,4.82,1.06,7.26,1.4s5,1.12,7.33,1A1.55,1.55,0,0,0,112.88,87.65Z"/>
        <path class="cls-12" d="M110.54,97.88c-1.49-5.43-11-3.62-14.87-2.61-1.3.34-1.08,2.5.32,2.4a30.1,30.1,0,0,1,7.64.38,33.77,33.77,0,0,1,5,1.72A1.55,1.55,0,0,0,110.54,97.88Z"/>
        <path class="cls-12" d="M124.11,60.88a13.21,13.21,0,0,0-5.36-5.4A1.43,1.43,0,0,0,117,57.72a14.9,14.9,0,0,1,3.31,5.83c.72,2,1,4.22,2.52,5.8a1.89,1.89,0,0,0,3.14-.83C126.6,65.92,125.28,63.16,124.11,60.88Z"/>
        <path class="cls-12" d="M133.93,49.47c-1.78-2.2-5.42.66-3.91,3s1.69,5.26,2.92,7.83c.94,2,3.72,1.2,4.33-.56C138.48,56.2,136.08,52.14,133.93,49.47Z"/>
        <path class="cls-12" d="M143.6,46.27a6.62,6.62,0,0,0-3.37-2.3c-1.5-.43-2.83,1.62-1.58,2.71a9.35,9.35,0,0,1,2,2.06,5.8,5.8,0,0,1,.52,1.17,2.49,2.49,0,0,0,1.65,1.71,1.86,1.86,0,0,0,2.06-.83C145.9,49.38,144.51,47.39,143.6,46.27Z"/>
        <g>
          <path class="cls-13" d="M88.22,103.68c0-.48.09-1,.17-1.45l-.93-.61a1.83,1.83,0,0,0,0,.4A2.31,2.31,0,0,0,88.22,103.68Z"/>
          <path class="cls-13" d="M245.11,131a15,15,0,0,0-.59-7.83l-.09-.27.14-.25a3.65,3.65,0,0,0,.41-1.4,20.34,20.34,0,0,0-1.71-11.35l-.25-.44.28-.33a3.92,3.92,0,0,0,.56-2.8,22.07,22.07,0,0,0-2-7.42,88.73,88.73,0,0,1-16.69,39.19c-10.19,13.25-24.88,23.22-41.23,26.68A78.46,78.46,0,0,1,161.86,166c-25.11-1.86-49.85-14-64.53-34.46a49.28,49.28,0,0,1-8.64-18.81l-.4.27a3.61,3.61,0,0,0-1.41,1.88,7.43,7.43,0,0,0,.25,4.23,3.56,3.56,0,0,0,.56,1.22,2,2,0,0,0,.78.58l.82.37-.63.64a3.9,3.9,0,0,0-.89,1.51,8,8,0,0,0-.06,3.67,4.36,4.36,0,0,0,1.5,3l.49.34-.31.51a3.42,3.42,0,0,0-.25,2.16,10.86,10.86,0,0,0,1.43,4.47,1.82,1.82,0,0,0,.37.4l.39.3-.2.45a6.66,6.66,0,0,0,0,4c.66,3.15,1.73,6.61,4.54,8.3l.49.13,0,.51a37.47,37.47,0,0,0,1.08,12,19.28,19.28,0,0,0,1.21,3.17l.67,1.38-1-.35.06.05a23.45,23.45,0,0,0,3.83,2.77,6.08,6.08,0,0,1,2.52,5.15h.33l.15.45a11.49,11.49,0,0,0,1.89,3.43,9.06,9.06,0,0,0,5.69,2.71h.34l.18.29a9.08,9.08,0,0,0,1.15,1.44,6.31,6.31,0,0,0,4.55,1.94,6,6,0,0,0,1-.08l.42-.08.23.35c.2.32.42.63.66,1,.65.89,2.59,1.44,4.18,1.46a3.2,3.2,0,0,0,2.22-.67l.34-.34.42.25a5.64,5.64,0,0,0,2.93.73,13.42,13.42,0,0,0,2.4-.27c.22-.05.4-.08.55-.1l.08,0,.51,0,.2.47L135,188l.72.26a48.2,48.2,0,0,0,16.62,2.95,46.85,46.85,0,0,0,5.76-.35l.5-.06.17.47.07.24a5.63,5.63,0,0,0,3.12,3.07,5.32,5.32,0,0,0,1.88.36,4.49,4.49,0,0,0,2.08-.49,4.64,4.64,0,0,0,1.39-1.15l.57-.68.45.76a4.13,4.13,0,0,0,3.48,1.89,4.25,4.25,0,0,0,.71-.06,5.56,5.56,0,0,0,2.91-1.61l.28-.28.37.12a11.56,11.56,0,0,0,3.8.66,8,8,0,0,0,5.8-2.16,6.75,6.75,0,0,0,.93-1.19l.22-.26.3,0a82.88,82.88,0,0,0,18.56-4l.41-.93.65.79A4.68,4.68,0,0,0,209.5,188a3.33,3.33,0,0,0,.7.07c1.86,0,4-1.32,6.19-3.93l.29-.33.42.16a3.37,3.37,0,0,0,1.11.24c2.33,0,4.52-2.86,6.35-8.26l.17-.5.53.08a5,5,0,0,0,.72.07c2.31,0,4.47-1.83,6.42-5.4l.07-.13.12-.08c3.71-2.56,4.56-7.86,3.49-11.77l-.28-1,.29-.26a13,13,0,0,0,3-4c1.25-2.69,1.51-5.8,1.68-8.76l0-.52.52-.07a3.23,3.23,0,0,0,2.28-1.49,7.38,7.38,0,0,0,1-3.05,21.19,21.19,0,0,0-.07-6.21v-.3l.15-.21A3.47,3.47,0,0,0,245.11,131Z"/>
          <path class="cls-13" d="M87.62,110.86a2.22,2.22,0,0,0,.7,1.15l.27.21a32.09,32.09,0,0,1-.51-5.35,1.07,1.07,0,0,0-.14.16A4.36,4.36,0,0,0,87.62,110.86Z"/>
        </g>
        <path class="cls-13" d="M28.13,187a25.74,25.74,0,0,0,14,4.11c.87,0,1.74-.06,2.62-.14a4.51,4.51,0,0,1-1-.85c-1.26-1.4-1.31-4,.31-4.94a8.65,8.65,0,0,0,1.28-.8,22.85,22.85,0,0,1-3.23.23c-6,0-11.39-2.31-16.14-6.87-5.47-5.25-8.08-10.11-8-14.86a13.61,13.61,0,0,1,.94-4.64c-.44.59-.88,1.17-1.36,1.73-1.54,1.85-3.34,3.6-4.18,5.85a7.39,7.39,0,0,0-.27.88C14.39,174.22,20,181.79,28.13,187Z"/>
        <path class="cls-13" d="M82.36,163.58a5.92,5.92,0,0,1,6.16,6.81c2.57.36,4.91,1.62,7.29,2.64a54.08,54.08,0,0,0,8.63,2.73l-.39-2.22a1.35,1.35,0,0,0-.78-1.18,16.85,16.85,0,0,1-4.59-4.59c-.05-.07-.11-.16-.19-.18a.43.43,0,0,0-.25,0c-1.16.42-2.39-.24-3.49-.79a45.58,45.58,0,0,0-9.4-3.08Z"/>
        <path class="cls-14" d="M245.73,131.1a15.76,15.76,0,0,0-.61-8.14,4.46,4.46,0,0,0,.49-1.63,21.14,21.14,0,0,0-1.8-11.78l0,0a4.42,4.42,0,0,0,.7-3.26,22.8,22.8,0,0,0-2.92-9.33s0,0,0,0,0-.21,0-.31A12.16,12.16,0,0,0,239.88,88a9.41,9.41,0,0,0-1-8.81,19.64,19.64,0,0,0-5.24-5.41s0,0,0,0c.37-3-1.59-5.66-3.3-7.35a20.41,20.41,0,0,0-7.21-4.56.61.61,0,0,0-.42-.57l-.06,0c-.09-.17-.17-.35-.26-.56-1-2.15-2.71-5.94-6.41-7.54a.48.48,0,0,0-.05-.17c-1.08-2.15-5.66-6.19-11.91-7.13a15.43,15.43,0,0,0-16.44-4.13c-1.62-2.32-4.76-3.06-7.2-2.71a24,24,0,0,0-3.57,1.08,7.67,7.67,0,0,0-6.19-1.82,13.56,13.56,0,0,0-1.61.23,2.66,2.66,0,0,0-1.5-1.81,5.5,5.5,0,0,0-2.23-.46,21.2,21.2,0,0,0-9.52,1.84,9.27,9.27,0,0,0-4.83-.44,13,13,0,0,0-8.42,4.17h0l-.1,0a7.11,7.11,0,0,0-1.08-.27,6.45,6.45,0,0,0-7.42,6,9,9,0,0,0-2.71-.38,8.53,8.53,0,0,0-5.45,2,6.78,6.78,0,0,0-2.29,4.57,3.84,3.84,0,0,0-.84-.53,6.48,6.48,0,0,0-3.79-.25,11.1,11.1,0,0,0-3,.9,7.73,7.73,0,0,0-4.19,7.22c-2.5-1.22-4.93-1.23-6.56,0a4.81,4.81,0,0,0-1.75,5.1,3.86,3.86,0,0,0-.68,0A4,4,0,0,0,99.45,72a10.55,10.55,0,0,0-5.57,2.1c-1.84,1.56-2.78,4.62-1.24,6.7a4,4,0,0,0,1.14,1,8.51,8.51,0,0,0-2.17.82c-2,1.13-3.52,3.75-2.54,6a4.68,4.68,0,0,0,2.31,2.27,7.6,7.6,0,0,0-.92.3,5.07,5.07,0,0,0-2.88,2.9,4.34,4.34,0,0,0,1.48,4.73A5,5,0,0,0,87.62,100a3.17,3.17,0,0,0-.84,2c0,1.21.88,2.34,2.43,3.1a1.89,1.89,0,0,0,.21.09,3.22,3.22,0,0,0-2,1.46,5,5,0,0,0-.41,4.39,2.86,2.86,0,0,0,.92,1.46,4.26,4.26,0,0,0-1.66,2.21,8,8,0,0,0,.25,4.6,4.16,4.16,0,0,0,.67,1.44,2.75,2.75,0,0,0,1,.76,4.39,4.39,0,0,0-1,1.75,8.58,8.58,0,0,0-.08,4,4.91,4.91,0,0,0,1.76,3.37,4,4,0,0,0-.33,2.58A11.42,11.42,0,0,0,90,137.91a2.87,2.87,0,0,0,.51.55,7.28,7.28,0,0,0-.07,4.43c.7,3.28,1.81,6.89,4.82,8.73a.41.41,0,0,0,.18,0,38.27,38.27,0,0,0,1.1,12.21,20.13,20.13,0,0,0,1.25,3.28c-1-.37-2-.74-3-1.12-5.67-2.15-11-4.18-17.59-1.93-4.26,1.46-7.47,4.65-10.57,7.73a50.92,50.92,0,0,1-5.12,4.67c-6,4.56-21.54,13.76-35.11.73-5.34-5.11-7.89-9.82-7.8-14.38.09-5,3.26-10.07,10-16,5.38-4.78,8.21-9.9,8.39-15.23.16-4.65-6.37-10.81-10.75-11.32a3.21,3.21,0,0,0-3.83,2.78c-.4,2,1.44,3,3.22,3.93,2.72,1.45,5.53,3,3.81,7.85-1.23,3.52-4.28,6.39-7.22,9.17A51.1,51.1,0,0,0,18,148.3c-4.62,5.52-6.53,11.8-5.55,18.14,1.22,7.84,7,15.71,15.38,21.05a26.36,26.36,0,0,0,14.33,4.21c11.57,0,22.85-7.25,30.41-15.32,5.16-5.51,11.36-6.69,20.11-3.82.78.26,2.11.75,3.59,1.31,5.43,2,7.31,2.67,8.13,2.65a12.37,12.37,0,0,0,2,3.61,9.66,9.66,0,0,0,6.19,3,9.15,9.15,0,0,0,1.24,1.55,7,7,0,0,0,5,2.12,5.94,5.94,0,0,0,1.1-.1c.21.33.44.65.68,1,.81,1.09,2.92,1.69,4.59,1.71h.1a3.75,3.75,0,0,0,2.66-.85,6.28,6.28,0,0,0,3.25.82,13.9,13.9,0,0,0,2.51-.28,4.61,4.61,0,0,1,.57-.1.66.66,0,0,0,.52-.4,48.93,48.93,0,0,0,23.43,2.92,2,2,0,0,1,.09.26,6.21,6.21,0,0,0,3.47,3.41,5.8,5.8,0,0,0,2.11.4,5.13,5.13,0,0,0,2.37-.55,5.06,5.06,0,0,0,1.58-1.31,4.71,4.71,0,0,0,4,2.2,5.54,5.54,0,0,0,.81-.07,6.2,6.2,0,0,0,3.26-1.79,12.38,12.38,0,0,0,4,.69,8.73,8.73,0,0,0,6.24-2.34,7.39,7.39,0,0,0,1-1.3h.06A84.25,84.25,0,0,0,205.9,187a.65.65,0,0,0,.37-.34,5.31,5.31,0,0,0,3.12,2,4.45,4.45,0,0,0,.81.08c2.06,0,4.3-1.4,6.67-4.15a3.73,3.73,0,0,0,1.28.29h.06c2.66,0,5-2.93,6.95-8.69a4.91,4.91,0,0,0,.79.08h0c2.56,0,4.9-2,7-5.72,3.94-2.73,4.88-8.3,3.74-12.45l-.18-.62a13.36,13.36,0,0,0,3.12-4.22c1.32-2.85,1.57-6.07,1.74-9a3.87,3.87,0,0,0,2.72-1.78,7.8,7.8,0,0,0,1.07-3.31,21.73,21.73,0,0,0-.08-6.39l0,0A4.08,4.08,0,0,0,245.73,131.1Zm-29.82-10.94c-2.71-3.1-5.4-5.86-8.06-8.39,12.14.43,23.25,6.22,31.66,11.31a7.84,7.84,0,0,0,2.46,1.11,4.38,4.38,0,0,0,.71.07,3.08,3.08,0,0,0,1.4-.34,14.49,14.49,0,0,1,.42,7,3.2,3.2,0,0,1-.4,1.15,2.17,2.17,0,0,1-2.08.69,8.06,8.06,0,0,1-2.56-1.07,90.94,90.94,0,0,0-12.7-5.71c-2.12-.76-4.56-1.49-6.94-.89C218.37,123.1,217,121.45,215.91,120.16Zm28.45,1a2.88,2.88,0,0,1-.44,1.35,1.81,1.81,0,0,1-1.7.44,6.79,6.79,0,0,1-2.08-1c-8.85-5.36-20.67-11.5-33.66-11.52h0a104.7,104.7,0,0,0-12.9-10.12,15.15,15.15,0,0,1,6.48-.81c11.92.45,24.73,3.85,38.1,10.1a8.05,8.05,0,0,0,3.31.9,3.33,3.33,0,0,0,1.29-.25A19.81,19.81,0,0,1,244.36,121.16Zm-1.13-14.79a3.27,3.27,0,0,1-.45,2.4c-.7.76-2.07.67-4.09-.27-13.52-6.32-26.5-9.76-38.58-10.22-2.66-.1-5.43,0-7.75,1.28a101.53,101.53,0,0,0-17.63-9c10-3.51,20.93-2.23,31.53-1l1,.11c10.15,1.19,21.66,2.54,31.08,8.06a3.4,3.4,0,0,0,1.66.55,1.39,1.39,0,0,0,.76-.23A21.45,21.45,0,0,1,243.23,106.37Zm-2.91-10a1.23,1.23,0,0,1-.17.57c-.15.15-.61,0-1.2-.31-9.65-5.66-21.3-7-31.58-8.23l-1-.11C195.19,87,183.59,85.66,173,89.89l-2.18-.8a125.46,125.46,0,0,1,11.11-9.69c9.83-4.34,20.93-3,28.6-1.1a153.9,153.9,0,0,1,19,6.58c3,1.16,6,2.36,9.07,3.46A10.8,10.8,0,0,1,240.32,96.42Zm-2.55-16.55a8.51,8.51,0,0,1,1.17,7.1.55.55,0,0,0-.33,0c-2.9-1.06-5.81-2.2-8.63-3.31a155.11,155.11,0,0,0-19.19-6.63c-6.85-1.71-16.38-3-25.43-.29a117.64,117.64,0,0,1,11.29-7.21,57.45,57.45,0,0,1,30.71,4l.39.17a13.31,13.31,0,0,0,4.18,1.3h.25a1.46,1.46,0,0,0,.77-.19A18.44,18.44,0,0,1,237.77,79.87Zm-5.42-6.39s-.07,0-.09.09a.54.54,0,0,0-.11.23H232a12.8,12.8,0,0,1-3.78-1.2l-.41-.18a58.76,58.76,0,0,0-28.14-4.48c7.62-3.89,14.48-6,19.3-6a20.17,20.17,0,0,1,10.4,5.32C230.91,68.75,232.61,71,232.35,73.48Zm-67.17-36a4.37,4.37,0,0,1,1.75.33,1.46,1.46,0,0,1,.82,1,36.38,36.38,0,0,0-8.87,3.89,4.65,4.65,0,0,0-1.76-3.78A20,20,0,0,1,165.18,37.47Zm-14.12,1.39a7.45,7.45,0,0,1,4.74.59,3.3,3.3,0,0,1,1.71,3.67.56.56,0,0,0,0,.34,87.13,87.13,0,0,0-8.64,6.16,12.4,12.4,0,0,0-2.76-5.24,10,10,0,0,0-2.48-2A11.93,11.93,0,0,1,151.06,38.86Zm-16,9.13a5.2,5.2,0,0,1,6-5.21,6.31,6.31,0,0,1,1.15.32l.05,0,.13,0a8.23,8.23,0,0,1,2.76,2.06,11.06,11.06,0,0,1,2.62,5.26q-3.34,2.76-6.71,5.95l-1.49-3.09A13.07,13.07,0,0,0,136.75,49a7.2,7.2,0,0,0-1.66-1Zm-8.56,2.11a7.18,7.18,0,0,1,4.64-1.7A6.89,6.89,0,0,1,135.92,50a12,12,0,0,1,2.54,3.9l1.67,3.46A148.13,148.13,0,0,0,130,68.21a47.77,47.77,0,0,0-4.54-11.82,13.06,13.06,0,0,0-.95-1.5.66.66,0,0,0,.15-.46A5.33,5.33,0,0,1,126.53,50.1ZM116.29,55a9.6,9.6,0,0,1,2.69-.79,5.28,5.28,0,0,1,3,.15A5.86,5.86,0,0,1,124.36,57a46.19,46.19,0,0,1,4.54,12,.63.63,0,0,0,.19.31c-1.87,2.26-3.66,4.58-5.36,6.92l-1.26-.58c-2-5.18-4.77-10.8-9.66-13.87a.74.74,0,0,0,0-.21A6.54,6.54,0,0,1,116.29,55Zm-10.55,7.1c1.52-1.15,3.84-.63,5.5.24,4.77,2.5,7.54,7.64,9.58,12.59a43.74,43.74,0,0,0-10.08-2.75.56.56,0,0,0-.06-.21,10.32,10.32,0,0,0-4.09-4.53,8.23,8.23,0,0,0-2-1h0A3.69,3.69,0,0,1,105.74,62.07Zm-5.31,7.2a2.86,2.86,0,0,1,2.28-1.84,4.79,4.79,0,0,1,3.18,1,9.17,9.17,0,0,1,3.38,3.48,43,43,0,0,0-8.41-.11A2.87,2.87,0,0,1,100.43,69.27ZM93.65,80c-1.12-1.51-.36-3.8,1-5a10.35,10.35,0,0,1,5.66-1.9.57.57,0,0,0,.28.08.61.61,0,0,0,.34-.12,42.14,42.14,0,0,1,22,4.17q-2.72,3.82-5,7.7s0,0-.09-.06A44.86,44.86,0,0,0,99.6,81.5l-1.21,0a.6.6,0,0,0-.42-.15c-.46,0-1,0-1.44,0A4,4,0,0,1,93.65,80Zm-3.42,8.13c-.71-1.64.49-3.58,2-4.43a9.88,9.88,0,0,1,4.27-1,20.65,20.65,0,0,0,3.13.08A43.26,43.26,0,0,1,117.32,86l-.28.47c-.7,1.23-1.51,2.73-2.38,4.43a10,10,0,0,0-3.86-.69q-7.1-.26-14.33,0a12.67,12.67,0,0,1-3.65-.18A3.76,3.76,0,0,1,90.23,88.14Zm-1.46,6.38A3.81,3.81,0,0,1,91,92.37a8.7,8.7,0,0,1,3.36-.56.62.62,0,0,0,.48-.23c.6,0,1.21,0,1.83,0,4.69-.2,9.44-.22,14.13-.05a9,9,0,0,1,3.34.57c-1.18,2.36-2.47,5.06-3.8,8-5.55-2-11.59-1.9-15.72-1.58a11.5,11.5,0,0,1-3.43-.08.61.61,0,0,0-.51-.16,3.27,3.27,0,0,1-.7-.35A3.09,3.09,0,0,1,88.77,94.52ZM88,102a2.06,2.06,0,0,1,.54-1.2,3.87,3.87,0,0,1,2-1.24,11.61,11.61,0,0,0,4.11.18c4-.3,9.8-.44,15.1,1.48-.83,1.87-1.66,3.84-2.5,5.87-2.79-1.46-6-1.58-9.09-1.69s-5.9-.2-8.43-1.45C89.24,103.73,88,103,88,102Zm.41,5.36c.61-.85.9-.91,2-1.11l.45-.09a.6.6,0,0,0,.41-.3,28.75,28.75,0,0,0,6.87.8c3.13.11,6.1.22,8.66,1.6-.51,1.25-1,2.54-1.51,3.84A16.87,16.87,0,0,0,97.73,111c-1.22.06-2.45.19-3.64.31-1.51.16-3.07.32-4.6.34a1.7,1.7,0,0,1-.71-.08,1.43,1.43,0,0,1-.56-.91A3.93,3.93,0,0,1,88.45,107.39ZM87.74,119a6.75,6.75,0,0,1-.26-3.87,2.52,2.52,0,0,1,2.5-1.88.6.6,0,0,0,.65-.34c1.21-.06,2.42-.16,3.59-.28s2.38-.25,3.57-.31a15.74,15.74,0,0,1,7.06,1q-1,2.7-2,5.49c-3.66-1.26-7.74-.07-11,1.19a11,11,0,0,1-1.44.47.42.42,0,0,0-.16,0,2.66,2.66,0,0,0-.49.1,1.92,1.92,0,0,1-1.58-.57A3.09,3.09,0,0,1,87.74,119Zm.59,8.07a7.43,7.43,0,0,1,0-3.38A2.91,2.91,0,0,1,90,121.79a9,9,0,0,0,2.39-.68c3-1.14,6.77-2.26,10-1.13-.8,2.36-1.57,4.75-2.28,7.15a3.6,3.6,0,0,0-2.86.06,44.34,44.34,0,0,0-5.71,2.17,3.48,3.48,0,0,1-1.32.42.63.63,0,0,0-.24,0C88.86,129.54,88.43,127.63,88.33,127Zm1.44,6c-.1-.62-.1-1.66.36-1.95h.12a4.61,4.61,0,0,0,1.91-.56,42.89,42.89,0,0,1,5.55-2.1c1-.3,1.45-.42,2.1,0-.87,3-1.64,6-2.29,9l-5.57.22a1.45,1.45,0,0,1-.61-.05.91.91,0,0,1-.25-.29A10.12,10.12,0,0,1,89.77,133Zm5.79,17.25c-2.3-1.68-3.24-4.77-3.85-7.62a5.89,5.89,0,0,1,.07-3.81H92l5.25-.21A87.52,87.52,0,0,0,95.56,150.25Zm3.11-11.91a.61.61,0,0,0,.16-.44.33.33,0,0,0,0-.13,179.76,179.76,0,0,1,7.3-24.18.65.65,0,0,0,.3-.27.64.64,0,0,0,0-.54c1.51-4,3.09-7.83,4.66-11.39a.59.59,0,0,0,.21-.26.63.63,0,0,0,0-.3c1.34-3,2.67-5.82,4-8.34a.6.6,0,0,0,.36-.22.64.64,0,0,0,.06-.61c.85-1.65,1.68-3.19,2.46-4.54,13.11-23,39.14-46.54,52.54-47.62a6.78,6.78,0,0,1,4.75,1.1c-8.06,3.32-25.14,13.14-44.31,40.81-17.8,25.71-25.48,50.38-27.37,88,0,1-.06,1.81,0,2.59a14.1,14.1,0,0,1-5.91-8.46C95.93,157.07,96.61,148.07,98.67,138.34Zm-2,34.36c-1.52-.58-2.84-1.07-3.64-1.34-9.27-3-15.88-1.76-21.42,4.16-10.87,11.61-27.91,20.57-43.14,10.91-8.11-5.15-13.65-12.69-14.81-20.18-.95-6.06.83-11.83,5.27-17.14a49.93,49.93,0,0,1,4.1-4.17c3.06-2.89,6.22-5.87,7.55-9.67,2.08-5.91-1.67-7.92-4.4-9.38-1.79-1-2.79-1.55-2.59-2.57a2,2,0,0,1,2.46-1.78c3.77.44,9.77,6.11,9.63,10-.17,5-2.78,9.74-8,14.34-7,6.19-10.27,11.57-10.37,16.93-.09,4.94,2.58,9.95,8.18,15.32,14.28,13.69,30.45,4.12,36.74-.63a52.86,52.86,0,0,0,5.26-4.79c3-3,6.1-6.07,10.09-7.43,6.13-2.1,11.28-.15,16.73,1.92,1.43.54,2.9,1.1,4.41,1.59h0a13.33,13.33,0,0,0,5,4.69h0c.06.63.14,1.2.24,1.72C102.83,175,99,173.58,96.67,172.7Zm10.69,6.68c-1.44-1.94-2.67-3.62-2.36-9.9,1.89-37.37,9.5-61.86,27.16-87.35,19.54-28.21,36.72-37.63,44.28-40.6.06,0,.12,0,.17-.07a23.81,23.81,0,0,1,3.91-1.23,6.53,6.53,0,0,1,5.79,1.89,36.35,36.35,0,0,0-8.84,5.09c-47.95,35.36-56.78,69.84-63.22,95-5.87,22.94-5,34.12-2.46,39.51A8.48,8.48,0,0,1,107.36,179.38Zm7.29,4.37a9.1,9.1,0,0,1-1.22-1.58l-.05-.07c-2.79-4.65-4.1-15.34,2.09-39.56,6.75-26.39,15.15-59.23,62.74-94.32,6.27-4.63,15.38-9.72,23.74-2.58a18.21,18.21,0,0,0-4.89.49c-4,1-25,7.53-49.16,42.41-19.06,27.52-27.94,54-29.68,88.63-.22,4.34.12,6.54,1,8.31A5.71,5.71,0,0,1,114.65,183.75Zm10.5,4.35c-1.48,0-3.13-.57-3.59-1.2-1.54-2.08-2.39-3.56-2.08-9.66,1.73-34.36,10.54-60.67,29.46-88,23.9-34.51,44.53-41,48.42-41.91a16.52,16.52,0,0,1,6-.32l.15.14a.62.62,0,0,0,.89,0h0a17.87,17.87,0,0,1,9.62,5.35,10.89,10.89,0,0,0-3.75,0c-.3,0-30.39,5.06-56.27,42.42-19.68,28.41-26.85,48.28-29.53,81.8-.43,5.36.38,9,2.37,11A3.29,3.29,0,0,1,125.15,188.1Zm8.26-.29c-1.32.25-3.78.72-5.53-.85s-2.52-5-2.11-10.12c2.65-33.26,9.77-53,29.3-81.18,25.58-36.93,55.13-41.85,55.43-41.9,6.6-1,9.17,4.07,10.55,7.09a15.46,15.46,0,0,0-2.11-.19c-.21,0-.41-.08-.62-.12a.62.62,0,0,0-.48.12C208.57,61,194.32,68,181,78.41l-.38.16a.67.67,0,0,0-.33.41,126,126,0,0,0-10.9,9.73.62.62,0,0,0-.47.39s0,.06,0,.1a97.06,97.06,0,0,0-15.15,19.52c-9.22,16.14-26.95,62.24-19.83,79Zm.79-18.42a30.32,30.32,0,0,0,12.74,2.8,29.8,29.8,0,0,0,8.65-1.28c.41,2.9.79,5.81,1.12,8.72a.61.61,0,0,0-.19,0,52.91,52.91,0,0,1-12.45.19c-3.4-.22-7.26-.48-10.49-2.1A64.83,64.83,0,0,1,134.2,169.39Zm.35-1.23-.16,0c.45-3.08,1.08-6.32,1.86-9.65A24.06,24.06,0,0,0,147.07,161a23.75,23.75,0,0,0,6.79-1c.56,3.2,1.08,6.4,1.55,9.62A29,29,0,0,1,134.55,168.16Zm2-10.95c.64-2.62,1.35-5.29,2.14-8h0a31,31,0,0,0,7.85,1q.72,0,1.44,0l.49,0a7.48,7.48,0,0,0,3.33-.7q1,4.62,1.82,9.28A23.1,23.1,0,0,1,136.55,157.21ZM148.44,149l-.5,0A30,30,0,0,1,139,148c.89-3,1.84-5.92,2.85-8.84l.1,0a16.93,16.93,0,0,0,4.31.56,17.42,17.42,0,0,0,3.06-.29c.89,2.9,1.57,5.85,2.2,8.74A5.81,5.81,0,0,1,148.44,149ZM142.31,138h0c1-2.76,2-5.48,3-8.11a44.12,44.12,0,0,1,3.67,8.37A16,16,0,0,1,142.31,138Zm-7.18,49.33a22.66,22.66,0,0,1-1.53-8.26c3.31,1.49,7.06,1.75,10.39,2,2.18.14,4.39.28,6.6.28a35.33,35.33,0,0,0,6.15-.48.18.18,0,0,0,.1,0c.27,2.46.53,4.92.74,7.38.06.67.13,1.36.26,2.05A47.91,47.91,0,0,1,135.13,187.36Zm30.5,6.51a4.19,4.19,0,0,1-3.44.1,5,5,0,0,1-2.76-2.72,3.71,3.71,0,0,1-.16-.47,1,1,0,0,0,0-.11.77.77,0,0,0-.21-.59,18.56,18.56,0,0,1-.26-2,325,325,0,0,0-6-39.75c-1.42-6.63-3.12-13.61-6.87-19.73a.35.35,0,0,0-.1-.11c.3-.75.6-1.5.9-2.23a.37.37,0,0,0,.14,0,48.87,48.87,0,0,1,8.54,2.25c6.11,15.43,9.18,32,12.15,48.07.74,4,1.57,8.51.74,12.72C168.05,190.91,167.32,193,165.63,193.87Zm6.78.7a3.39,3.39,0,0,1-3.75-2l-.06-.1a10.82,10.82,0,0,0,1-2.91c.87-4.45,0-9.1-.74-13.2-2.92-15.75-5.93-32-11.82-47.28a71.71,71.71,0,0,1,12.26,6.06,45.37,45.37,0,0,1,1.65,7.3l.25,1.53c.73,4.17,1.71,8.4,2.67,12.49,2.28,9.81,4.64,19.95,3.57,30a14,14,0,0,1-1.3,5.09A5.59,5.59,0,0,1,172.41,194.57Zm12.82-3.09c-2.3,2.3-5.89,2.26-8.48,1.49a7.46,7.46,0,0,0,.5-.82,15.13,15.13,0,0,0,1.44-5.54c1.09-10.27-1.29-20.52-3.6-30.43-1-4.07-1.92-8.28-2.65-12.42l-.25-1.51a58.54,58.54,0,0,0-1.25-6.05,73.91,73.91,0,0,1,11.41,9.25c1.35,7,2.63,14,3.6,20.92a.51.51,0,0,0-.1.25.62.62,0,0,0,.21.54c.67,4.9,1.18,9.79,1.44,14.71C187.69,185.49,187.54,189.17,185.23,191.48Zm2.14-24.06c.44,0,.89.05,1.34.05a18.66,18.66,0,0,0,8.14-1.89c1.53,3,3.05,6.28,4.4,9.39a25,25,0,0,1-12.78,2.58C188.2,174.17,187.82,170.79,187.37,167.42Zm-.18-1.29q-.63-4.41-1.39-8.85a13.93,13.93,0,0,0,5.47-1.22c.33.47.67.93,1,1.41a74.85,74.85,0,0,1,4,7A17.38,17.38,0,0,1,187.19,166.13ZM185.58,156q-.78-4.46-1.64-8.94a77.28,77.28,0,0,1,6.59,7.92A12.75,12.75,0,0,1,185.58,156Zm19.91,29.8a82.6,82.6,0,0,1-17.65,3.89,18.71,18.71,0,0,0,.92-7.91c-.06-1-.13-2-.21-3,.51,0,1,.07,1.54.07a26.13,26.13,0,0,0,11.65-2.76c1.28,3,2.36,5.82,3,7.95a9.43,9.43,0,0,0,.87,1.73A.77.77,0,0,0,205.49,185.82Zm4.13,1.6c-2.46-.45-3.65-3.73-3.65-3.75-2.19-6.86-8.46-20.63-12.66-26.9a79.39,79.39,0,0,0-9.81-12,.63.63,0,0,0-.44-.43c-16.21-15.94-33.8-19-35.78-19.33,1.23-2.93,2.47-5.69,3.69-8.24a.6.6,0,0,0,.25.16c.32.1,32.69,10.79,49.72,39.11a81.05,81.05,0,0,1,12,23.86,8.34,8.34,0,0,0,2.8,4C213.44,186.57,211.39,187.75,209.62,187.42Zm8.55-3.8c-2,0-3.63-2.68-4-4A82.22,82.22,0,0,0,202,155.38c-17.23-28.66-50-39.49-50.38-39.6h-.12c1.16-2.37,2.29-4.54,3.36-6.42.31-.54.64-1.07,1-1.6.57.19,33.56,11,52.5,40.43,2.11,3.28,4.67,8.83,7.15,14.2,1.83,4,3.56,7.72,5,10.31a7.65,7.65,0,0,0,3.49,3.16C222.22,180.88,220.17,183.61,218.17,183.62ZM226,175h0c-2.19,0-3.84-1.92-4.41-2.93-1.41-2.55-3.13-6.28-4.95-10.23-2.5-5.41-5.07-11-7.23-14.35C191,119,159.72,107.76,156.46,106.65a87.48,87.48,0,0,1,6-8.38,5.74,5.74,0,0,0,1.8,1.15l4.56,2c7.58,3.34,15.42,6.8,22,11.93A97.73,97.73,0,0,1,203,125c11.16,12.39,23.48,27.1,28.78,45.06C230,173.27,228,175,226,175Zm6.85-5.94c-5.47-17.93-17.75-32.58-28.87-44.93a98.87,98.87,0,0,0-12.36-11.76c-6.69-5.23-14.6-8.72-22.25-12.09l-4.55-2a4.05,4.05,0,0,1-1.52-1q3.09-3.73,6.52-7.2,1.36.48,2.79,1a.5.5,0,0,0,.23.09C184.7,95.7,199.62,103.44,215,121c5.56,6.35,16.12,21.38,20.52,37.44C236.43,161.93,235.79,166.55,232.82,169.07Zm5.67-16.34a11.84,11.84,0,0,1-2.39,3.39,94.33,94.33,0,0,0-7.8-18,9.73,9.73,0,0,1,5.35,2c.52.36,1,.73,1.54,1.11a23.13,23.13,0,0,0,3.94,2.51,5.89,5.89,0,0,0,1,.37C240,147,239.72,150.09,238.49,152.73ZM243.91,139a6.68,6.68,0,0,1-.87,2.78,2.64,2.64,0,0,1-2,1.24.72.72,0,0,0-.25-.07.58.58,0,0,0-.19,0,4.17,4.17,0,0,1-1-.32,21.63,21.63,0,0,1-3.72-2.38c-.53-.39-1.05-.77-1.58-1.14-2.39-1.63-4.41-2.35-6.37-2.27a.59.59,0,0,0-.34.13,120.43,120.43,0,0,0-7-10.88,12.12,12.12,0,0,1,5.71,1A87.53,87.53,0,0,1,239,132.8a8.88,8.88,0,0,0,2.88,1.15,4.32,4.32,0,0,0,.62.05,3.55,3.55,0,0,0,1.47-.31A20.24,20.24,0,0,1,243.91,139Z"/>
        <path class="cls-13" d="M22.19,152.57l.36-.46-.12,0C22.35,152.24,22.26,152.4,22.19,152.57Z"/>
      </g>
    </g>
  </g>
</svg>
