<svg id="Layer_1" data-name="Layer 1" xmlns="http://www.w3.org/2000/svg" width="223.4" height="152.43" viewBox="0 0 223.4 152.43">
  <defs>
    <style>
      .cls-1, .cls-2 {
        fill: none;
        stroke-linejoin: round;
        stroke-width: 15px;
      }

      .cls-1 {
        stroke: #000;
        opacity: 0.5;
      }

      .cls-2 {
        stroke: #fff;
      }

      .cls-3 {
        fill: #b3c9c8;
      }

      .cls-3, .cls-4, .cls-5, .cls-6 {
        fill-rule: evenodd;
      }

      .cls-4 {
        fill: #8ba8a7;
      }

      .cls-5 {
        fill: #d1ebe9;
      }

      .cls-6 {
        fill: #9cbdbc;
      }

      .cls-7 {
        fill: #785da5;
      }

      .cls-8 {
        fill: #9776d1;
      }

      .cls-9 {
        fill: #fff;
      }

      .cls-10 {
        fill: #fd0200;
      }

      .cls-11 {
        fill: #3378bf;
      }

      .cls-12 {
        fill: #ff5938;
      }

      .cls-13 {
        fill: #e3001e;
      }

      .cls-14 {
        fill: #ab0300;
      }
    </style>
  </defs>
  <g>
    <path class="cls-1" d="M213.54,50.74a6.06,6.06,0,0,0-7.47-4.21,6,6,0,0,0-4.2,5.94L161.2,67.56a7.31,7.31,0,0,0-1.15-3.64,6.08,6.08,0,0,0-.68-5.7A12.67,12.67,0,0,0,156,54.73v0c.24-2-1-3.66-2.13-4.75a14.36,14.36,0,0,0-1.26-1.08l27.29-22.24a5.88,5.88,0,0,0,5.54-.15,6.16,6.16,0,0,0-6.13-10.67,6,6,0,0,0-2.47,7.51L148.71,46.23c-.63-1.39-1.75-3.82-4.13-4.85a.19.19,0,0,0,0-.1c-.7-1.39-3.65-4-7.69-4.61A10,10,0,0,0,126.24,34a5,5,0,0,0-4.65-1.75,15.47,15.47,0,0,0-2.31.7,5,5,0,0,0-4-1.18,9.65,9.65,0,0,0-1,.15,1.78,1.78,0,0,0-1-1.17,3.67,3.67,0,0,0-1.44-.29,13.67,13.67,0,0,0-6.15,1.18,6.17,6.17,0,0,0-3.12-.28,8.41,8.41,0,0,0-5.44,2.69h0l-.07,0a3.88,3.88,0,0,0-.69-.18,4.16,4.16,0,0,0-4.8,3.86,5.92,5.92,0,0,0-1.75-.24,5.49,5.49,0,0,0-3.52,1.3,4.37,4.37,0,0,0-1.48,3,2.62,2.62,0,0,0-.54-.35,4.28,4.28,0,0,0-2.46-.16,7,7,0,0,0-2,.59,5,5,0,0,0-2.71,4.66,4,4,0,0,0-4.23,0,3.1,3.1,0,0,0-1.13,3.3,3.2,3.2,0,0,0-.44,0,2.58,2.58,0,0,0-2,3.73,6.82,6.82,0,0,0-3.6,1.36,3.35,3.35,0,0,0-.81,4.33,2.71,2.71,0,0,0,.74.66,5.56,5.56,0,0,0-1.4.54,3.28,3.28,0,0,0-1.64,3.89,3,3,0,0,0,1.49,1.46,5.84,5.84,0,0,0-.59.2,3.28,3.28,0,0,0-1.86,1.87,2.79,2.79,0,0,0,1,3.06,3,3,0,0,0-.94.76A2.08,2.08,0,0,0,61.14,73a2.37,2.37,0,0,0,1.57,2l.14.06a2,2,0,0,0-1.29.94,3.22,3.22,0,0,0-.27,2.84,1.93,1.93,0,0,0,.6.94,2.79,2.79,0,0,0-1.08,1.42,5.22,5.22,0,0,0,.17,3,2.69,2.69,0,0,0,.43.93,1.78,1.78,0,0,0,.65.49,2.91,2.91,0,0,0-.67,1.13,5.56,5.56,0,0,0,0,2.56,3.19,3.19,0,0,0,1.14,2.18,2.46,2.46,0,0,0-.21,1.66,7.23,7.23,0,0,0,1,3.06,1.53,1.53,0,0,0,.33.35,4.77,4.77,0,0,0,0,2.87,11.65,11.65,0,0,0,1.46,4c-13.37,5.22-40,15.94-40.23,17.25h.11a.5.5,0,0,0,.16,0l.23,0a.78.78,0,0,0,.21,0,4.55,4.55,0,0,0,.45-.07l.19,0,.76-.17h.05c6.88-1.61,28.39-9,39.81-13a21.57,21.57,0,0,0,.66,5.21l-1.8,1.51c-3.4-1.28-6.68-2.33-10.64-1-2.75,1-4.82,3-6.82,5a34.82,34.82,0,0,1-3.32,3c-3.9,2.94-13.91,8.88-22.68.47-3.45-3.31-5.09-6.35-5-9.3.06-3.22,2.11-6.5,6.43-10.34,3.48-3.09,5.3-6.4,5.42-9.84.11-3-4.11-7-6.94-7.31a2.07,2.07,0,0,0-2.48,1.79c-.25,1.29.94,1.92,2.09,2.54,1.75.94,3.57,1.91,2.46,5.07-.8,2.27-2.77,4.13-4.67,5.93a33.49,33.49,0,0,0-2.72,2.76,14.5,14.5,0,0,0-3.58,11.72c.78,5.07,4.5,10.15,9.93,13.6a17,17,0,0,0,9.26,2.72c7.48,0,14.76-4.68,19.65-9.9a10.08,10.08,0,0,1,9.36-3.31c-11.52,9.8-28.48,24.56-28.3,25.72h0s.06,0,.08,0a.34.34,0,0,0,.16,0l.22-.09.19-.08.41-.22.16-.09c.2-.11.42-.25.66-.4l.05,0C40.52,139,56.43,126.76,66.3,119l.94.35c3.51,1.32,4.73,1.73,5.26,1.71a7.62,7.62,0,0,0,1.28,2.33,6.17,6.17,0,0,0,4,1.91,5.65,5.65,0,0,0,.8,1,4.43,4.43,0,0,0,3.93,1.31l.44.63a4.12,4.12,0,0,0,3,1.11H86a2.43,2.43,0,0,0,1.72-.55,4.12,4.12,0,0,0,2.1.53,8.19,8.19,0,0,0,1.62-.19l.37-.06a.4.4,0,0,0,.33-.25h0l0,.11v-.09a31.39,31.39,0,0,0,15,1.85l.06.17a4,4,0,0,0,2.24,2.2,3.62,3.62,0,0,0,1.37.26,3.32,3.32,0,0,0,1.53-.36,3.35,3.35,0,0,0,1-.84,3,3,0,0,0,3.12,1.37,3.93,3.93,0,0,0,2.1-1.15,8,8,0,0,0,2.59.44,5.65,5.65,0,0,0,4-1.51,4.78,4.78,0,0,0,.66-.84h0a54.36,54.36,0,0,0,12.09-2.62.39.39,0,0,0,.23-.22,3.52,3.52,0,0,0,2,1.29,3.08,3.08,0,0,0,.53,0c1.33,0,2.77-.9,4.3-2.67a2.38,2.38,0,0,0,.83.18h0c1.72,0,3.23-1.89,4.49-5.61a4,4,0,0,0,.51,0h0c1.65,0,3.17-1.26,4.5-3.7,2.55-1.76,3.15-5.36,2.42-8l-.12-.4a8.63,8.63,0,0,0,2-2.73,16,16,0,0,0,1.12-5.81,2.5,2.5,0,0,0,1.76-1.14,5.12,5.12,0,0,0,.69-2.14,14.29,14.29,0,0,0-.05-4.13l0,0a2.68,2.68,0,0,0,.39-1.06,10,10,0,0,0-.4-5.26,2.84,2.84,0,0,0,.32-1,13.64,13.64,0,0,0-1.16-7.61l0,0a2.87,2.87,0,0,0,.45-2.11,14.46,14.46,0,0,0-.84-3.71l41.39-15.36a5.9,5.9,0,0,0,6,1.69A6.06,6.06,0,0,0,213.54,50.74Z"/>
    <path class="cls-2" d="M208.84,46a6.06,6.06,0,0,0-7.47-4.21,6,6,0,0,0-4.2,5.94L156.49,62.86a7.18,7.18,0,0,0-1.15-3.65,6.09,6.09,0,0,0-.67-5.69A12.57,12.57,0,0,0,151.28,50v0c.24-1.94-1-3.65-2.13-4.74a14.36,14.36,0,0,0-1.26-1.08l27.29-22.24a5.88,5.88,0,0,0,5.54-.15,6.05,6.05,0,0,0,2.1-8.3,5.94,5.94,0,0,0-10.7,5.13L144,41.53c-.63-1.4-1.75-3.82-4.13-4.85a.61.61,0,0,0,0-.11c-.7-1.39-3.66-4-7.7-4.6a10,10,0,0,0-10.61-2.67,4.92,4.92,0,0,0-4.66-1.75,14.53,14.53,0,0,0-2.3.7,5,5,0,0,0-4-1.18,10.42,10.42,0,0,0-1,.15,1.71,1.71,0,0,0-1-1.17,3.36,3.36,0,0,0-1.45-.29A13.73,13.73,0,0,0,101,26.94a6,6,0,0,0-3.11-.28,8.39,8.39,0,0,0-5.45,2.69h0l-.07,0a3.77,3.77,0,0,0-.7-.17,4.15,4.15,0,0,0-4.79,3.86,5.63,5.63,0,0,0-1.76-.24,5.51,5.51,0,0,0-3.51,1.29,4.35,4.35,0,0,0-1.48,3,2.81,2.81,0,0,0-.55-.34,4.24,4.24,0,0,0-2.45-.16,7.36,7.36,0,0,0-2,.58,5,5,0,0,0-2.71,4.67,4,4,0,0,0-4.23,0,3.11,3.11,0,0,0-1.14,3.3h-.43a2.67,2.67,0,0,0-2.14,1.73,2.65,2.65,0,0,0,.14,2A6.71,6.71,0,0,0,61,50.21a3.33,3.33,0,0,0-.81,4.32,2.47,2.47,0,0,0,.74.67,5.39,5.39,0,0,0-1.4.53,3.29,3.29,0,0,0-1.64,3.89,3,3,0,0,0,1.49,1.47,4.1,4.1,0,0,0-.59.2A3.25,3.25,0,0,0,57,63.16a2.8,2.8,0,0,0,1,3A3.41,3.41,0,0,0,57,67a2,2,0,0,0-.54,1.29,2.38,2.38,0,0,0,1.57,2l.14.06a2,2,0,0,0-1.29.94,3.2,3.2,0,0,0-.27,2.83,1.84,1.84,0,0,0,.6,1,2.79,2.79,0,0,0-1.08,1.42,5.22,5.22,0,0,0,.17,3,2.64,2.64,0,0,0,.43.92,1.67,1.67,0,0,0,.65.49A3,3,0,0,0,56.69,82a5.56,5.56,0,0,0,0,2.56,3.13,3.13,0,0,0,1.14,2.17,2.55,2.55,0,0,0-.22,1.67,7.3,7.3,0,0,0,1,3,1.56,1.56,0,0,0,.33.36,4.59,4.59,0,0,0-.05,2.86,12,12,0,0,0,1.45,4c-13.36,5.22-40,15.93-40.22,17.24,0,0,0,0,0,0h.08l.15,0a.92.92,0,0,0,.23,0l.22,0,.45-.07.19,0,.76-.16h0c6.88-1.62,28.39-9,39.81-13a22.17,22.17,0,0,0,.65,5.21l-1.79,1.51c-3.4-1.28-6.68-2.34-10.64-1-2.76.94-4.83,3-6.83,5a33.32,33.32,0,0,1-3.31,3c-3.9,3-13.92,8.89-22.68.48-3.45-3.31-5.1-6.35-5-9.3.06-3.22,2.1-6.5,6.43-10.34,3.48-3.09,5.3-6.4,5.42-9.85.1-3-4.11-7-6.94-7.31a2.09,2.09,0,0,0-2.48,1.8c-.26,1.29.93,1.92,2.08,2.54,1.76.94,3.57,1.91,2.46,5.07-.79,2.27-2.76,4.13-4.66,5.92A32,32,0,0,0,12,98.17a14.55,14.55,0,0,0-3.59,11.72c.79,5.06,4.51,10.15,9.94,13.6a17,17,0,0,0,9.26,2.72c7.47,0,14.76-4.69,19.64-9.9A10.11,10.11,0,0,1,56.6,113c-11.52,9.8-28.48,24.56-28.3,25.72h0s.06,0,.08,0l.16,0,.21-.09.2-.08.41-.23.15-.08.67-.4.05,0c5.56-3.48,21.47-15.71,31.33-23.44l.95.36c3.51,1.32,4.73,1.72,5.25,1.71a8.12,8.12,0,0,0,1.29,2.33,6.17,6.17,0,0,0,4,1.91,6.14,6.14,0,0,0,.8,1A4.53,4.53,0,0,0,77.1,123a3.37,3.37,0,0,0,.71-.07c.13.21.28.42.44.64a4.07,4.07,0,0,0,3,1.1h.06a2.43,2.43,0,0,0,1.72-.54,4.12,4.12,0,0,0,2.1.53,8.19,8.19,0,0,0,1.62-.19l.37-.06a.42.42,0,0,0,.33-.26l0,0,0,.1,0-.08a31.39,31.39,0,0,0,15,1.85l.06.17a4,4,0,0,0,2.24,2.2,3.82,3.82,0,0,0,1.36.26,3.32,3.32,0,0,0,1.53-.36,3.24,3.24,0,0,0,1-.84,3.06,3.06,0,0,0,2.6,1.41,3.15,3.15,0,0,0,.53,0,4.05,4.05,0,0,0,2.1-1.16,7.92,7.92,0,0,0,2.58.45,5.66,5.66,0,0,0,4-1.51,4.78,4.78,0,0,0,.66-.84h0a54.27,54.27,0,0,0,12.08-2.62.4.4,0,0,0,.24-.22,3.45,3.45,0,0,0,2,1.28,2.32,2.32,0,0,0,.53.05c1.32,0,2.77-.9,4.3-2.68a2.39,2.39,0,0,0,.83.19h0c1.72,0,3.23-1.89,4.49-5.61a4,4,0,0,0,.51,0h0c1.65,0,3.17-1.26,4.5-3.7,2.55-1.76,3.15-5.36,2.42-8l-.12-.4a8.63,8.63,0,0,0,2-2.73,16,16,0,0,0,1.12-5.81,2.5,2.5,0,0,0,1.76-1.15,5.07,5.07,0,0,0,.69-2.13,14.29,14.29,0,0,0,0-4.13l0,0a2.74,2.74,0,0,0,.39-1.06,10.26,10.26,0,0,0-.4-5.27,2.79,2.79,0,0,0,.32-1,13.69,13.69,0,0,0-1.17-7.62,0,0,0,0,1,0,0,2.86,2.86,0,0,0,.45-2.1,14.89,14.89,0,0,0-.84-3.71l41.39-15.36a5.92,5.92,0,0,0,6,1.69A6.06,6.06,0,0,0,208.84,46Z"/>
    <g>
      <g>
        <g>
          <path class="cls-3" d="M20.06,115.89c.28-1.59,39.84-17.18,46.7-19.73L200.31,46.6c2.24.7,2.81,2.23,1.56,4.22L68.32,100.38c-6.86,2.55-47,16.54-48.26,15.51Z"/>
          <path class="cls-4" d="M202.4,48.25a3,3,0,0,1-.53,2.57L68.32,100.38c-6.83,2.54-46.67,16.43-48.24,15.53Z"/>
          <path class="cls-5" d="M122.41,77.19c37.78-14,68.51-25.67,68.42-25.93s-31,11-68.77,25-68.5,25.66-68.41,25.92,31-11,68.76-25Z"/>
          <path class="cls-6" d="M123.15,79.18c37.78-14,68.51-25.66,68.42-25.93s-31,11-68.77,25-68.5,25.66-68.41,25.93,31-11,68.76-25Z"/>
        </g>
        <g>
          <ellipse class="cls-7" cx="203.12" cy="47.73" rx="5.96" ry="6.16" transform="translate(-5.19 59.67) rotate(-16.5)"/>
          <ellipse class="cls-8" cx="202.37" cy="46.93" rx="3.9" ry="4.03" transform="translate(-4.99 59.42) rotate(-16.5)"/>
          <ellipse class="cls-9" cx="201.56" cy="46.23" rx="1.74" ry="1.79" transform="translate(-4.83 59.17) rotate(-16.5)"/>
        </g>
      </g>
      <g>
        <g>
          <path class="cls-3" d="M28.3,138.72c-.25-1.6,32.17-29.12,37.84-33.74L176.57,15c2.35-.06,3.38,1.2,2.84,3.49L69,108.47c-5.67,4.62-39.16,30.82-40.68,30.25Z"/>
          <path class="cls-4" d="M179.08,15.88a3,3,0,0,1,.33,2.61L69,108.47c-5.65,4.61-38.88,30.6-40.65,30.25Z"/>
          <path class="cls-5" d="M112.7,69.07c31.24-25.45,56.57-46.39,56.4-46.61s-25.8,20.37-57,45.82-56.57,46.39-56.39,46.61,25.8-20.37,57-45.82Z"/>
          <path class="cls-6" d="M114.05,70.72c31.23-25.45,56.57-46.39,56.39-46.61s-25.8,20.37-57,45.82S56.84,116.32,57,116.54s25.8-20.37,57-45.82Z"/>
        </g>
        <g>
          <ellipse class="cls-7" cx="177.66" cy="16.44" rx="5.96" ry="6.16" transform="translate(15.39 90.61) rotate(-29.85)"/>
          <ellipse class="cls-8" cx="176.75" cy="15.83" rx="3.9" ry="4.03" transform="translate(15.57 90.07) rotate(-29.85)"/>
          <ellipse class="cls-9" cx="175.8" cy="15.34" rx="1.74" ry="1.79" transform="translate(15.68 89.53) rotate(-29.85)"/>
        </g>
      </g>
      <g>
        <path class="cls-10" d="M111.37,128.5a2.67,2.67,0,0,1-2.25-1.22l-.29-.49-.37.44a2.91,2.91,0,0,1-.89.74,3,3,0,0,1-1.35.31,3.33,3.33,0,0,1-1.21-.23,3.63,3.63,0,0,1-2-2l0-.15-.11-.31-.32,0A30.86,30.86,0,0,1,88.06,124l-.47-.17-.08.49-.13-.3-.33,0h0l-.35.06a8,8,0,0,1-1.55.18,3.72,3.72,0,0,1-1.9-.47l-.27-.16-.22.22a2.09,2.09,0,0,1-1.43.43,3.88,3.88,0,0,1-2.7-.94c-.16-.21-.3-.42-.43-.62L78,122.5l-.27,0a3.06,3.06,0,0,1-.63.06,4.11,4.11,0,0,1-2.94-1.25,5.59,5.59,0,0,1-.74-.94l-.12-.18h-.22a5.9,5.9,0,0,1-3.68-1.75,7.46,7.46,0,0,1-1.22-2.22l-.09-.29h-.31a27.77,27.77,0,0,1-5.09-1.68c-1-.36-1.83-.69-2.34-.86a17.67,17.67,0,0,0-5.5-1A10.38,10.38,0,0,0,46.94,116c-5.73,6.12-13,9.77-19.35,9.77a16.58,16.58,0,0,1-9-2.66c-5.34-3.39-9-8.36-9.75-13.31a14.09,14.09,0,0,1,3.49-11.4A33.93,33.93,0,0,1,15,95.71c2-1.84,4-3.73,4.79-6.1,1.22-3.49-.93-4.64-2.66-5.56C15.8,83.36,15,82.87,15.22,82a1.63,1.63,0,0,1,1.71-1.49,1.77,1.77,0,0,1,.32,0c2.62.3,6.68,4.12,6.58,6.89-.11,3.33-1.89,6.54-5.28,9.55-4.42,3.92-6.5,7.3-6.57,10.64-.06,3.07,1.63,6.21,5.17,9.6a14.7,14.7,0,0,0,10.42,4.44c5.5,0,10.37-3.06,12.78-4.88a33.38,33.38,0,0,0,3.36-3.06c2-2,4-4,6.67-4.9a11,11,0,0,1,3.61-.61A21.1,21.1,0,0,1,61.47,110c.64.24,1.3.49,2,.72l.94.33-.44-.89a12.45,12.45,0,0,1-.78-2,24.32,24.32,0,0,1-.7-7.75l0-.34-.32-.08c-1.82-1.09-2.5-3.32-2.93-5.36a4.34,4.34,0,0,1,0-2.62l.12-.29-.24-.19a1.17,1.17,0,0,1-.25-.26A7,7,0,0,1,58,88.34a2.19,2.19,0,0,1,.15-1.4l.2-.33L58,86.4a2.86,2.86,0,0,1-1-1.91,5.14,5.14,0,0,1,0-2.37,2.38,2.38,0,0,1,.57-1l.41-.42-.53-.24a1.28,1.28,0,0,1-.5-.37,2.09,2.09,0,0,1-.36-.79,4.76,4.76,0,0,1-.17-2.74,2.42,2.42,0,0,1,.91-1.21l.47-.31-.45-.35A1.36,1.36,0,0,1,57,74a2.82,2.82,0,0,1,.21-2.48,2.46,2.46,0,0,1,1.09-.81l.86-.35L58.3,70l-.11,0c-.86-.42-1.35-1-1.34-1.63a1.61,1.61,0,0,1,.44-1,2.84,2.84,0,0,1,.82-.67l.55-.3-.5-.38a2.37,2.37,0,0,1-.82-2.6A2.9,2.9,0,0,1,59,61.66l.54-.18,1.06-.28-1-.48a2.56,2.56,0,0,1-1.29-1.26,2.86,2.86,0,0,1,1.47-3.37,4.88,4.88,0,0,1,1.29-.49l.93-.22-.8-.52a2.19,2.19,0,0,1-.63-.57,2.91,2.91,0,0,1,.74-3.77,6.44,6.44,0,0,1,3.39-1.27l.56-.07L65,48.67a2.18,2.18,0,0,1,1.69-3.15h.16l.64,0,0-.48a3.06,3.06,0,0,1,1-2.91,2.69,2.69,0,0,1,1.66-.52,5,5,0,0,1,2.15.55l.62.31,0-.69a4.61,4.61,0,0,1,2.48-4.28A6.9,6.9,0,0,1,77.17,37a6.51,6.51,0,0,1,1-.1,2.82,2.82,0,0,1,1.18.23,2.5,2.5,0,0,1,.47.29l.6.48,0-.77a4,4,0,0,1,1.35-2.67,5.1,5.1,0,0,1,3.25-1.2h.1a5.58,5.58,0,0,1,1.54.23l.48.14,0-.51a3.79,3.79,0,0,1,1.27-2.6A3.84,3.84,0,0,1,91,29.55a3.64,3.64,0,0,1,.56.05,3.88,3.88,0,0,1,.63.16l.13,0,.12,0h.19l.08-.15a8.07,8.07,0,0,1,5.18-2.55A7.92,7.92,0,0,1,99,27a4.68,4.68,0,0,1,1.86.33l.16.06.16-.07a13.39,13.39,0,0,1,5.44-1.16h.53a3.28,3.28,0,0,1,1.28.25,1.34,1.34,0,0,1,.75.89l.08.39.39-.07a9.79,9.79,0,0,1,1-.15l.6,0a4.33,4.33,0,0,1,3.09,1.09l.18.18.24-.09A13.52,13.52,0,0,1,117,28a5,5,0,0,1,.69-.05,4.28,4.28,0,0,1,3.56,1.63l.17.25.29-.09a11,11,0,0,1,3.27-.52,9.62,9.62,0,0,1,6.94,3.08l.09.1.13,0c4,.6,6.78,3.15,7.4,4.39l0,.21.19.08c2.26,1,3.35,3.38,3.93,4.68l.24.52.17.06v.26l.29.11a12.82,12.82,0,0,1,4.51,2.86c1,1,2.24,2.62,2,4.4l0,.23.16.23a13.43,13.43,0,0,1,3.3,3.34,5.67,5.67,0,0,1,.65,5.31l-.08.18.1.18a8.7,8.7,0,0,1,1,5.29.88.88,0,0,1,0,.17l0,.18.13.17a14.46,14.46,0,0,1,1.82,5.83,2.51,2.51,0,0,1-.37,1.8l-.17.22.16.28a13.15,13.15,0,0,1,1.1,7.34,2.42,2.42,0,0,1-.26.9l-.09.16.06.18a9.75,9.75,0,0,1,.38,5,2.23,2.23,0,0,1-.33.9l-.1.14v.19a13.82,13.82,0,0,1,0,4,4.58,4.58,0,0,1-.62,2,2.08,2.08,0,0,1-1.47,1l-.34,0,0,.34a15.52,15.52,0,0,1-1.08,5.66,8.29,8.29,0,0,1-1.92,2.6l-.19.17.18.63c.69,2.53.14,6-2.25,7.61l-.08.05-.05.08c-1.26,2.31-2.65,3.48-4.15,3.49a2.16,2.16,0,0,1-.46,0l-.34,0-.11.33c-1.18,3.49-2.6,5.33-4.1,5.33a1.94,1.94,0,0,1-.72-.15l-.27-.11-.19.22c-1.45,1.68-2.79,2.53-4,2.53a2.32,2.32,0,0,1-.46,0A3,3,0,0,1,134,122.7l-.42-.51-.27.6a53.47,53.47,0,0,1-12,2.6l-.2,0-.14.17a4.21,4.21,0,0,1-.6.77,5.23,5.23,0,0,1-3.75,1.4,7.57,7.57,0,0,1-2.45-.43l-.24-.08-.18.18a3.59,3.59,0,0,1-1.88,1A2.38,2.38,0,0,1,111.37,128.5Z"/>
        <path class="cls-11" d="M132.85,44.07l.13-.13Z"/>
        <path class="cls-12" d="M141.53,88.76C138,78.33,129,69.31,118.25,66.47a.92.92,0,0,0-.71,1.68,61.46,61.46,0,0,1,21.91,21.49C140.1,90.71,142,90,141.53,88.76Z"/>
        <path class="cls-12" d="M136.68,92.61c-5-9.33-13.2-19.73-24.71-20.12-1.17,0-1.26,1.58-.26,2C122,78.2,128.32,85.17,134.77,93.72A1.11,1.11,0,0,0,136.68,92.61Z"/>
        <path class="cls-12" d="M131.5,97.37a36.81,36.81,0,0,0-24.85-20c-.89-.19-1.54,1.08-.65,1.54a63.44,63.44,0,0,1,23.11,19.82A1.38,1.38,0,0,0,131.5,97.37Z"/>
        <path class="cls-12" d="M125.11,98.31A39.64,39.64,0,0,0,104.34,82.2a.75.75,0,0,0-.58,1.37,67.61,67.61,0,0,1,20,15.76C124.4,100.06,125.63,99.11,125.11,98.31Z"/>
        <path class="cls-12" d="M146.7,58.11c-7.44-3.9-17.88-5.66-26-3.07a1,1,0,0,0,.27,2c4,.42,8,.15,12.07.65,4.37.54,8.69,1.3,13,2C146.94,59.88,147.65,58.61,146.7,58.11Z"/>
        <path class="cls-12" d="M149.25,66.72c-2.52-3.13-7.86-4.1-11.63-4.69s-7.94-.77-11.3,1a.58.58,0,0,0,.14,1c3.79.92,7.83.57,11.68,1.34,3.52.7,6.87,2.8,10.39,3C149.5,68.51,149.75,67.35,149.25,66.72Z"/>
        <path class="cls-12" d="M145.41,51.43c-4-4-11.88-3.9-17.07-3a.66.66,0,0,0,0,1.27,75.43,75.43,0,0,1,8.55,1.78c2.55.73,5.07,1.83,7.75,1.82A1.1,1.1,0,0,0,145.41,51.43Z"/>
        <path class="cls-12" d="M150.1,74.7c-3.67-4.7-10.65-5.54-16.18-4.48a1,1,0,0,0,0,1.91c5.36,1,9.79,1.88,14.55,4.68C149.88,77.64,151,75.83,150.1,74.7Z"/>
        <path class="cls-12" d="M101.23,34.11c-3,.84-5,3-7.24,5A120.26,120.26,0,0,0,85.32,48c-4.78,5.47-8.72,11.51-10.59,18.6a.61.61,0,0,0,1.17.32c2.35-6.83,6.85-12.34,11.77-17.51,2.21-2.32,4.44-4.6,6.66-6.91s4.51-5.26,7.53-6.85A.83.83,0,0,0,101.23,34.11Z"/>
        <path class="cls-12" d="M105.93,35.77c-7.32,5-12.62,13.22-18.17,20A62.19,62.19,0,0,0,76.33,79.35a.81.81,0,0,0,1.56.43,106.17,106.17,0,0,1,12.33-23C94.89,50,100.41,42.23,106.86,37,107.54,36.43,106.65,35.27,105.93,35.77Z"/>
        <path class="cls-12" d="M112.26,38.35C99.16,46,86.71,59.9,83.56,75a.68.68,0,0,0,1.31.36A65.86,65.86,0,0,1,97,54.49c4.84-5.67,10.69-10,16.18-15C113.81,39,113,37.93,112.26,38.35Z"/>
        <path class="cls-12" d="M115.7,41.94c-6.24,3-10.13,9.32-14,14.8-2.43,3.41-4.86,6.83-7.25,10.28-2.09,3-5.41,6.4-5.93,10.15-.16,1.1,1.51,1.6,1.7.47.58-3.53,3.94-6.74,6-9.58s4.31-6,6.47-8.93c4.18-5.74,8.06-11.36,14.29-15.06A1.24,1.24,0,0,0,115.7,41.94Z"/>
        <path class="cls-12" d="M120.14,48.16c-6.93,2.35-11.91,7.53-16.28,13.19-3.89,5-9,11.3-9.72,17.82-.08.74,1.15.9,1.3.18,1.28-6.23,6.79-12.9,10.78-17.72A45.73,45.73,0,0,1,121,50.11,1.07,1.07,0,0,0,120.14,48.16Z"/>
        <path class="cls-12" d="M76.83,52.35c-1.84-1.29-4.4-1.54-6.59-1.67-1.87-.11-4.16-.42-5.65.89-.76.66.27,2,1.09,1.41,1.22-.93,4.42-.21,5.73.05,1.59.31,3,1,4.52,1.44A1.17,1.17,0,0,0,76.83,52.35Z"/>
        <path class="cls-12" d="M73.3,59c-.78-1.41-2.4-1.33-3.86-1.48a26.5,26.5,0,0,0-6.23.08c-.71.09-1,1.17-.19,1.37,1.56.35,3.11.68,4.69.9a24.76,24.76,0,0,0,4.73.63A1,1,0,0,0,73.3,59Z"/>
        <path class="cls-12" d="M71.79,65.6c-1-3.51-7.13-2.34-9.61-1.69-.84.22-.7,1.62.21,1.55a19.84,19.84,0,0,1,4.93.24,21.88,21.88,0,0,1,3.25,1.12A1,1,0,0,0,71.79,65.6Z"/>
        <path class="cls-12" d="M80.56,41.69a8.64,8.64,0,0,0-3.47-3.49A.92.92,0,0,0,76,39.65a9.65,9.65,0,0,1,2.14,3.76c.47,1.29.64,2.73,1.62,3.75a1.23,1.23,0,0,0,2-.53C82.16,45,81.31,43.16,80.56,41.69Z"/>
        <path class="cls-12" d="M86.9,34.32c-1.15-1.42-3.51.42-2.52,1.94s1.08,3.4,1.88,5.06c.61,1.28,2.4.78,2.8-.36C89.84,38.67,88.29,36,86.9,34.32Z"/>
        <path class="cls-12" d="M93.14,32.25A4.27,4.27,0,0,0,91,30.76a1.06,1.06,0,0,0-1,1.76,6.12,6.12,0,0,1,1.26,1.33,3.46,3.46,0,0,1,.34.76,1.64,1.64,0,0,0,1.06,1.1A1.2,1.2,0,0,0,94,35.17C94.63,34.26,93.73,33,93.14,32.25Z"/>
        <g>
          <path class="cls-13" d="M57.37,69.34c0-.31.06-.62.11-.94l-.6-.39a1.15,1.15,0,0,0,0,.26A1.44,1.44,0,0,0,57.37,69.34Z"/>
          <path class="cls-13" d="M158.73,87a9.75,9.75,0,0,0-.38-5l-.06-.18.09-.16a2.42,2.42,0,0,0,.26-.9,13.15,13.15,0,0,0-1.1-7.34l-.16-.28.17-.22a2.51,2.51,0,0,0,.37-1.8,14.57,14.57,0,0,0-1.3-4.8,57.42,57.42,0,0,1-10.79,25.32,46.32,46.32,0,0,1-26.63,17.24,50.52,50.52,0,0,1-14.26.81c-16.22-1.2-32.2-9.05-41.69-22.26a32.09,32.09,0,0,1-5.58-12.15l-.26.17a2.42,2.42,0,0,0-.91,1.21,4.76,4.76,0,0,0,.17,2.74,2.09,2.09,0,0,0,.36.79,1.28,1.28,0,0,0,.5.37l.53.24-.41.42a2.38,2.38,0,0,0-.57,1,5.14,5.14,0,0,0,0,2.37,2.86,2.86,0,0,0,1,1.91l.32.21-.2.33a2.19,2.19,0,0,0-.15,1.4,7,7,0,0,0,.91,2.89,1.17,1.17,0,0,0,.25.26l.24.19-.12.29a4.34,4.34,0,0,0,0,2.62c.43,2,1.11,4.27,2.93,5.36l.32.08,0,.34a24.32,24.32,0,0,0,.7,7.75,12.45,12.45,0,0,0,.78,2l.44.89-.65-.22,0,0a15.83,15.83,0,0,0,2.47,1.79A4,4,0,0,1,67.88,116h.21l.09.29a7.46,7.46,0,0,0,1.22,2.22,5.9,5.9,0,0,0,3.68,1.75h.22l.12.18a5.59,5.59,0,0,0,.74.94,4.11,4.11,0,0,0,2.94,1.25,3.06,3.06,0,0,0,.63-.06l.27,0,.15.23c.13.2.27.41.43.62a3.88,3.88,0,0,0,2.7.94,2.09,2.09,0,0,0,1.43-.43l.22-.22.27.16a3.72,3.72,0,0,0,1.9.47,8,8,0,0,0,1.55-.18L87,124h0l.33,0,.13.3.08-.49.47.17a30.86,30.86,0,0,0,14.45,1.68l.32,0,.11.31,0,.15a3.63,3.63,0,0,0,2,2,3.33,3.33,0,0,0,1.21.23,3,3,0,0,0,1.35-.31,2.91,2.91,0,0,0,.89-.74l.37-.44.29.49a2.67,2.67,0,0,0,2.25,1.22,2.38,2.38,0,0,0,.46,0,3.59,3.59,0,0,0,1.88-1l.18-.18.24.08a7.57,7.57,0,0,0,2.45.43,5.23,5.23,0,0,0,3.75-1.4,4.21,4.21,0,0,0,.6-.77l.14-.17.2,0a53.47,53.47,0,0,0,12-2.6l.27-.6.42.51a3,3,0,0,0,1.77,1.14,2.32,2.32,0,0,0,.46,0c1.2,0,2.54-.85,4-2.53l.19-.22.27.11a1.94,1.94,0,0,0,.72.15c1.5,0,2.92-1.84,4.1-5.33l.11-.33.34,0a2.16,2.16,0,0,0,.46,0c1.5,0,2.89-1.18,4.15-3.49l.05-.08.08-.05c2.39-1.66,2.94-5.08,2.25-7.61l-.18-.63.19-.17a8.29,8.29,0,0,0,1.92-2.6,15.52,15.52,0,0,0,1.08-5.66l0-.34.34,0a2.08,2.08,0,0,0,1.47-1,4.58,4.58,0,0,0,.62-2,13.82,13.82,0,0,0,0-4V88l.1-.14A2.23,2.23,0,0,0,158.73,87Z"/>
          <path class="cls-13" d="M57,74a1.36,1.36,0,0,0,.45.74l.17.14a21.21,21.21,0,0,1-.32-3.46l-.09.1A2.82,2.82,0,0,0,57,74Z"/>
        </g>
        <path class="cls-13" d="M18.55,123.14a16.58,16.58,0,0,0,9,2.66c.55,0,1.12,0,1.69-.09a2.83,2.83,0,0,1-.65-.55,2.17,2.17,0,0,1,.2-3.19,5.3,5.3,0,0,0,.83-.52,14.38,14.38,0,0,1-2.09.15,14.7,14.7,0,0,1-10.42-4.44c-3.54-3.39-5.23-6.53-5.17-9.6a8.77,8.77,0,0,1,.61-3c-.28.38-.57.76-.87,1.12A14,14,0,0,0,9,109.46q-.11.29-.18.57C9.67,114.91,13.29,119.8,18.55,123.14Z"/>
        <path class="cls-13" d="M53.58,108a3.82,3.82,0,0,1,4,4.4,19.26,19.26,0,0,1,4.71,1.7,35.13,35.13,0,0,0,5.58,1.77c-.09-.48-.17-1-.26-1.44a1.14,1.14,0,0,0-.15-.45,1.17,1.17,0,0,0-.35-.31,10.83,10.83,0,0,1-3-3s-.07-.1-.13-.12a.3.3,0,0,0-.16,0,3,3,0,0,1-2.25-.51,29.18,29.18,0,0,0-6.07-2Z"/>
        <path class="cls-14" d="M159.13,87.06a10.26,10.26,0,0,0-.4-5.27,2.79,2.79,0,0,0,.32-1,13.69,13.69,0,0,0-1.17-7.62,0,0,0,0,1,0,0,2.86,2.86,0,0,0,.45-2.1,14.63,14.63,0,0,0-1.89-6s0,0,0,0l0-.19a7.9,7.9,0,0,0-1.1-5.55,6.09,6.09,0,0,0-.67-5.69A12.57,12.57,0,0,0,151.28,50v0c.24-1.94-1-3.65-2.13-4.74a13.17,13.17,0,0,0-4.66-3,.4.4,0,0,0-.27-.37h0c-.06-.11-.11-.23-.17-.36-.63-1.39-1.75-3.84-4.14-4.88a.38.38,0,0,0,0-.1c-.7-1.4-3.66-4-7.7-4.61a10,10,0,0,0-10.61-2.67,4.92,4.92,0,0,0-4.66-1.75,14.53,14.53,0,0,0-2.3.7,5,5,0,0,0-4-1.18,10.42,10.42,0,0,0-1,.15,1.71,1.71,0,0,0-1-1.17,3.36,3.36,0,0,0-1.45-.29A13.73,13.73,0,0,0,101,26.94a6,6,0,0,0-3.11-.28,8.39,8.39,0,0,0-5.45,2.69h0l-.07,0a3.77,3.77,0,0,0-.7-.17,4.15,4.15,0,0,0-4.79,3.86,5.63,5.63,0,0,0-1.76-.24,5.51,5.51,0,0,0-3.51,1.29,4.35,4.35,0,0,0-1.48,3,2.81,2.81,0,0,0-.55-.34,4.24,4.24,0,0,0-2.45-.16,7.36,7.36,0,0,0-2,.58,5,5,0,0,0-2.71,4.67,4,4,0,0,0-4.23,0,3.11,3.11,0,0,0-1.14,3.3h-.43a2.67,2.67,0,0,0-2.14,1.73,2.65,2.65,0,0,0,.14,2A6.71,6.71,0,0,0,61,50.21a3.33,3.33,0,0,0-.81,4.32,2.47,2.47,0,0,0,.74.67,5.39,5.39,0,0,0-1.4.53,3.29,3.29,0,0,0-1.64,3.89,3,3,0,0,0,1.49,1.47,4.1,4.1,0,0,0-.59.2A3.25,3.25,0,0,0,57,63.16a2.8,2.8,0,0,0,1,3A3.41,3.41,0,0,0,57,67a2,2,0,0,0-.54,1.29,2.38,2.38,0,0,0,1.57,2l.14.06a2,2,0,0,0-1.29.94,3.2,3.2,0,0,0-.27,2.83,1.84,1.84,0,0,0,.6,1,2.79,2.79,0,0,0-1.08,1.42,5.22,5.22,0,0,0,.17,3,2.64,2.64,0,0,0,.43.92,1.67,1.67,0,0,0,.65.49A3,3,0,0,0,56.69,82a5.56,5.56,0,0,0,0,2.56,3.17,3.17,0,0,0,1.14,2.17,2.55,2.55,0,0,0-.22,1.67,7.3,7.3,0,0,0,1,3,1.56,1.56,0,0,0,.33.36,4.59,4.59,0,0,0-.05,2.86c.45,2.13,1.17,4.45,3.11,5.64a.28.28,0,0,0,.12,0,24.61,24.61,0,0,0,.71,7.89,12.84,12.84,0,0,0,.81,2.11c-.67-.23-1.33-.48-2-.72-3.66-1.39-7.12-2.7-11.36-1.25-2.76.94-4.83,3-6.83,5a33.32,33.32,0,0,1-3.31,3c-3.9,3-13.92,8.89-22.68.48-3.45-3.31-5.1-6.35-5-9.3.06-3.22,2.1-6.5,6.43-10.34,3.48-3.09,5.3-6.4,5.42-9.85.1-3-4.11-7-6.94-7.31a2.09,2.09,0,0,0-2.48,1.8c-.26,1.29.93,1.92,2.08,2.54,1.76.94,3.57,1.91,2.46,5.07-.79,2.27-2.76,4.13-4.66,5.92A32,32,0,0,0,12,98.17a14.51,14.51,0,0,0-3.59,11.72c.79,5.06,4.51,10.15,9.94,13.6a17,17,0,0,0,9.26,2.72c7.47,0,14.76-4.69,19.64-9.9,3.34-3.56,7.34-4.32,13-2.47.5.17,1.36.49,2.31.85,3.51,1.32,4.73,1.73,5.25,1.71a8.12,8.12,0,0,0,1.29,2.33,6.17,6.17,0,0,0,4,1.91,6.14,6.14,0,0,0,.8,1A4.53,4.53,0,0,0,77.1,123a3.37,3.37,0,0,0,.71-.07c.13.21.28.42.44.64a4.07,4.07,0,0,0,3,1.1h.06a2.43,2.43,0,0,0,1.72-.54,4.12,4.12,0,0,0,2.1.53,8.19,8.19,0,0,0,1.62-.19l.37-.06a.42.42,0,0,0,.33-.26,31.42,31.42,0,0,0,15.14,1.89l.06.17a4,4,0,0,0,2.24,2.2,3.82,3.82,0,0,0,1.36.26,3.32,3.32,0,0,0,1.53-.36,3.24,3.24,0,0,0,1-.84,3.06,3.06,0,0,0,2.6,1.41,3.15,3.15,0,0,0,.53,0,4.05,4.05,0,0,0,2.1-1.16,7.92,7.92,0,0,0,2.58.45,5.66,5.66,0,0,0,4-1.51,4.78,4.78,0,0,0,.66-.84h0a54.27,54.27,0,0,0,12.08-2.62.4.4,0,0,0,.24-.22,3.45,3.45,0,0,0,2,1.28,2.32,2.32,0,0,0,.53.05c1.32,0,2.77-.9,4.3-2.68a2.39,2.39,0,0,0,.83.19h0c1.72,0,3.23-1.89,4.49-5.61a4,4,0,0,0,.51,0h0c1.65,0,3.17-1.26,4.5-3.7,2.55-1.76,3.15-5.36,2.42-8l-.12-.4a8.63,8.63,0,0,0,2-2.73,16,16,0,0,0,1.12-5.81,2.5,2.5,0,0,0,1.76-1.15,5.07,5.07,0,0,0,.69-2.13,14.29,14.29,0,0,0,0-4.13l0,0A2.74,2.74,0,0,0,159.13,87.06ZM139.86,80c-1.75-2-3.49-3.79-5.21-5.42,7.85.27,15,4,20.46,7.3a4.89,4.89,0,0,0,1.59.72,2.4,2.4,0,0,0,.46,0,1.93,1.93,0,0,0,.9-.22,9.35,9.35,0,0,1,.27,4.49,2,2,0,0,1-.26.74,1.4,1.4,0,0,1-1.34.45,5.59,5.59,0,0,1-1.66-.69,56.93,56.93,0,0,0-8.2-3.69,7.78,7.78,0,0,0-4.48-.58C141.45,81.89,140.59,80.82,139.86,80Zm18.38.64a1.67,1.67,0,0,1-.29.87,1.14,1.14,0,0,1-1.09.29,4.24,4.24,0,0,1-1.34-.62c-5.72-3.46-13.36-7.43-21.75-7.44h0a67.66,67.66,0,0,0-8.33-6.54,9.67,9.67,0,0,1,4.18-.52c7.7.29,16,2.48,24.61,6.52a5.22,5.22,0,0,0,2.14.58,2,2,0,0,0,.83-.16A12.75,12.75,0,0,1,158.24,80.63Zm-.73-9.55a2.15,2.15,0,0,1-.29,1.55c-.45.49-1.34.43-2.64-.18-8.73-4.08-17.12-6.3-24.93-6.6a9.61,9.61,0,0,0-5,.83,65.39,65.39,0,0,0-11.39-5.81c6.46-2.27,13.53-1.44,20.38-.63l.62.07c6.56.77,14,1.64,20.09,5.21a2.12,2.12,0,0,0,1.06.35,1,1,0,0,0,.5-.14A13.79,13.79,0,0,1,157.51,71.08Zm-1.88-6.43a.76.76,0,0,1-.11.37c-.1.1-.39,0-.77-.2-6.24-3.66-13.76-4.54-20.4-5.32l-.63-.07c-7.25-.85-14.74-1.73-21.61,1l-1.41-.52a79.35,79.35,0,0,1,7.18-6.27c6.34-2.8,13.52-1.94,18.48-.7a100.27,100.27,0,0,1,12.3,4.24c1.91.76,3.88,1.53,5.85,2.24A6.94,6.94,0,0,1,155.63,64.65ZM154,54a5.49,5.49,0,0,1,.76,4.59.39.39,0,0,0-.21,0c-1.88-.69-3.75-1.42-5.58-2.14a99.62,99.62,0,0,0-12.4-4.28c-4.42-1.11-10.58-1.91-16.43-.19a76.27,76.27,0,0,1,7.3-4.66,37.14,37.14,0,0,1,19.84,2.59l.25.11a8.85,8.85,0,0,0,2.7.84h.17a1,1,0,0,0,.49-.12A11.58,11.58,0,0,1,154,54Zm-3.5-4.13-.06.06a.41.41,0,0,0-.07.15h-.07a8.17,8.17,0,0,1-2.44-.78l-.26-.11a37.87,37.87,0,0,0-18.19-2.89c4.93-2.52,9.36-3.92,12.47-3.87a13,13,0,0,1,6.72,3.44C149.55,46.78,150.65,48.24,150.48,49.83ZM107.09,26.57a2.81,2.81,0,0,1,1.13.21,1,1,0,0,1,.53.61A23.79,23.79,0,0,0,103,29.91a3,3,0,0,0-1.13-2.45A13.1,13.1,0,0,1,107.09,26.57ZM98,27.46a4.87,4.87,0,0,1,3.07.39,2.11,2.11,0,0,1,1.1,2.37.41.41,0,0,0,0,.22,54.69,54.69,0,0,0-5.58,4A8,8,0,0,0,94.77,31a6.34,6.34,0,0,0-1.6-1.29A7.72,7.72,0,0,1,98,27.46ZM87.65,33.37A3.35,3.35,0,0,1,91.52,30a3.13,3.13,0,0,1,.74.21l0,0,.09,0a5.28,5.28,0,0,1,1.78,1.33,7.17,7.17,0,0,1,1.7,3.4c-1.45,1.18-2.9,2.47-4.34,3.84l-1-2A8.53,8.53,0,0,0,88.72,34a4.5,4.5,0,0,0-1.07-.67Zm-5.54,1.35a4.66,4.66,0,0,1,3-1.09,4.41,4.41,0,0,1,3.07,1,7.85,7.85,0,0,1,1.65,2.53l1.07,2.23c-2.24,2.18-4.45,4.54-6.54,7a31,31,0,0,0-2.93-7.64,9.94,9.94,0,0,0-.62-1,.38.38,0,0,0,.1-.29A3.49,3.49,0,0,1,82.11,34.72ZM75.5,37.87a6.72,6.72,0,0,1,1.74-.51,3.39,3.39,0,0,1,2,.1,3.84,3.84,0,0,1,1.51,1.72,30.2,30.2,0,0,1,2.93,7.74.37.37,0,0,0,.12.2Q82,49.33,80.31,51.6c-.27-.14-.54-.26-.81-.38-1.32-3.34-3.08-7-6.25-9a.32.32,0,0,0,0-.14A4.25,4.25,0,0,1,75.5,37.87Zm-6.81,4.59c1-.75,2.48-.41,3.55.15,3.08,1.62,4.87,4.94,6.19,8.14A28.67,28.67,0,0,0,71.92,49a1,1,0,0,0,0-.14,6.77,6.77,0,0,0-2.64-2.92,5.43,5.43,0,0,0-1.3-.65h0A2.38,2.38,0,0,1,68.69,42.46Zm-3.43,4.65a1.84,1.84,0,0,1,1.47-1.19,3,3,0,0,1,2,.67A5.81,5.81,0,0,1,71,48.84a27.38,27.38,0,0,0-5.43-.08A1.84,1.84,0,0,1,65.26,47.11Zm-4.39,6.94a2.51,2.51,0,0,1,.68-3.22,6.66,6.66,0,0,1,3.66-1.23.34.34,0,0,0,.17,0,.4.4,0,0,0,.23-.08,27.15,27.15,0,0,1,14.21,2.7c-1.16,1.64-2.25,3.31-3.24,5l-.06,0A29.11,29.11,0,0,0,64.72,55l-.78,0a.36.36,0,0,0-.28-.1l-.93,0A2.62,2.62,0,0,1,60.87,54.05ZM58.66,59.3A2.46,2.46,0,0,1,60,56.44a6.17,6.17,0,0,1,2.76-.66,15.31,15.31,0,0,0,2,0,27.86,27.86,0,0,1,11.43,2.11l-.18.3c-.46.79-1,1.76-1.54,2.86a6.39,6.39,0,0,0-2.5-.45q-4.58-.16-9.26,0a8.36,8.36,0,0,1-2.35-.12A2.46,2.46,0,0,1,58.66,59.3Zm-.94,4.12A2.49,2.49,0,0,1,59.13,62a5.5,5.5,0,0,1,2.17-.37.39.39,0,0,0,.31-.15c.39,0,.78,0,1.19,0,3-.13,6.09-.14,9.12,0a6.07,6.07,0,0,1,2.16.37c-.76,1.53-1.59,3.28-2.45,5.2a24.42,24.42,0,0,0-10.16-1A7.37,7.37,0,0,1,59.26,66a.41.41,0,0,0-.33-.11,2.43,2.43,0,0,1-.46-.22A2,2,0,0,1,57.72,63.42Zm-.47,4.85a1.31,1.31,0,0,1,.35-.77,2.53,2.53,0,0,1,1.29-.8,7.62,7.62,0,0,0,2.65.12,23.86,23.86,0,0,1,9.76,1c-.54,1.21-1.08,2.48-1.62,3.8a13.35,13.35,0,0,0-5.87-1.1,13.31,13.31,0,0,1-5.45-.93C58,69.37,57.25,68.92,57.25,68.27Zm.27,3.47c.39-.55.58-.59,1.27-.72l.29-.06a.36.36,0,0,0,.26-.19,18.91,18.91,0,0,0,4.44.52,12.53,12.53,0,0,1,5.6,1c-.33.81-.66,1.64-1,2.48a10.83,10.83,0,0,0-4.89-.71c-.79,0-1.58.12-2.35.2-1,.1-2,.2-3,.22a1.22,1.22,0,0,1-.46-.06.93.93,0,0,1-.36-.59A2.52,2.52,0,0,1,57.52,71.74Zm-.46,7.48a4.41,4.41,0,0,1-.17-2.5A1.63,1.63,0,0,1,58.5,75.5a.41.41,0,0,0,.43-.22c.78,0,1.56-.11,2.31-.18s1.54-.16,2.31-.2a10.07,10.07,0,0,1,4.56.66c-.44,1.16-.87,2.34-1.28,3.54-2.37-.81-5,0-7.12.77a7.24,7.24,0,0,1-.93.31.16.16,0,0,0-.1,0,1.23,1.23,0,0,0-.32.07,1.27,1.27,0,0,1-1-.38A2.07,2.07,0,0,1,57.06,79.22Zm.38,5.2a4.73,4.73,0,0,1,0-2.18A1.87,1.87,0,0,1,58.52,81a5.65,5.65,0,0,0,1.55-.44c1.92-.74,4.37-1.46,6.49-.73q-.78,2.3-1.47,4.62a2.33,2.33,0,0,0-1.85,0,29.42,29.42,0,0,0-3.69,1.4,2.32,2.32,0,0,1-.85.27.42.42,0,0,0-.16,0C57.78,86.05,57.51,84.81,57.44,84.42Zm.93,3.86c-.06-.4-.07-1.07.23-1.26h.08a2.84,2.84,0,0,0,1.23-.36A28.57,28.57,0,0,1,63.5,85.3c.65-.19.94-.27,1.35,0-.55,1.93-1,3.87-1.47,5.78l-3.6.15a.92.92,0,0,1-.39,0,.64.64,0,0,1-.17-.19A6.61,6.61,0,0,1,58.37,88.28Zm3.74,11.15c-1.48-1.09-2.1-3.08-2.49-4.93A3.82,3.82,0,0,1,59.67,92h.14l3.39-.14A57.2,57.2,0,0,0,62.11,99.43Zm2-7.69a.38.38,0,0,0,.1-.29.29.29,0,0,0,0-.09,117.13,117.13,0,0,1,4.71-15.62.41.41,0,0,0,.2-.17.39.39,0,0,0,0-.35c1-2.58,2-5.06,3-7.36a.34.34,0,0,0,.14-.17.31.31,0,0,0,0-.19c.87-1.94,1.73-3.76,2.56-5.39a.37.37,0,0,0,.23-.14.39.39,0,0,0,0-.39c.55-1.07,1.08-2.06,1.58-2.94,8.48-14.83,25.29-30.07,34-30.76a4.43,4.43,0,0,1,3.07.71C108.5,30.74,97.47,37.08,85.09,55,73.58,71.56,68.62,87.5,67.4,111.81c0,.62,0,1.16,0,1.67A9.14,9.14,0,0,1,63.55,108C62.35,103.84,62.79,98,64.12,91.74Zm-1.29,22.19c-1-.37-1.84-.69-2.35-.86-6-2-10.26-1.14-13.84,2.68-7,7.5-18,13.29-27.87,7-5.24-3.33-8.82-8.2-9.57-13a13.53,13.53,0,0,1,3.4-11.07A33.39,33.39,0,0,1,15.25,96c2-1.86,4-3.78,4.88-6.24,1.34-3.82-1.08-5.11-2.84-6.06-1.16-.62-1.8-1-1.67-1.66a1.27,1.27,0,0,1,1.58-1.15c2.44.29,6.31,4,6.23,6.48-.12,3.25-1.8,6.28-5.15,9.26-4.51,4-6.64,7.47-6.7,10.94-.06,3.18,1.66,6.42,5.28,9.89,9.22,8.85,19.68,2.66,23.74-.41A35.37,35.37,0,0,0,44,114c1.93-1.92,3.94-3.92,6.52-4.8,3.95-1.36,7.28-.1,10.8,1.24.92.35,1.88.71,2.85,1h0a8.67,8.67,0,0,0,3.23,3h0a10.76,10.76,0,0,0,.16,1.12C66.81,115.43,64.35,114.5,62.83,113.93Zm6.9,4.32c-.92-1.26-1.72-2.34-1.52-6.4,1.22-24.14,6.14-40,17.54-56.43,12.63-18.22,23.73-24.31,28.61-26.23,0,0,.08,0,.11-.05a15.2,15.2,0,0,1,2.53-.79,4.21,4.21,0,0,1,3.74,1.22A23.63,23.63,0,0,0,115,32.86C84.05,55.7,78.35,78,74.19,94.25c-3.8,14.82-3.24,22-1.6,25.52A5.44,5.44,0,0,1,69.73,118.25Zm4.72,2.82a5.4,5.4,0,0,1-.8-1s0,0,0,0c-1.8-3-2.65-9.9,1.35-25.55,4.37-17,9.79-38.27,40.54-60.94,4-3,9.93-6.28,15.33-1.66a11.68,11.68,0,0,0-3.16.31c-2.56.62-16.14,4.87-31.75,27.4C83.61,77.34,77.88,94.47,76.75,116.82c-.14,2.8.08,4.22.63,5.37A3.67,3.67,0,0,1,74.45,121.07Zm6.78,2.81a3.47,3.47,0,0,1-2.33-.78c-1-1.34-1.54-2.29-1.34-6.24,1.12-22.19,6.81-39.19,19-56.84C112,37.73,125.36,33.56,127.88,33a10.69,10.69,0,0,1,3.9-.21l.09.1a.41.41,0,0,0,.58,0h0a11.59,11.59,0,0,1,6.22,3.46,7,7,0,0,0-2.43,0c-.19,0-19.63,3.27-36.35,27.41C87.18,82.05,82.54,94.89,80.81,116.54c-.27,3.46.25,5.85,1.54,7.1A2.14,2.14,0,0,1,81.23,123.88Zm5.33-.19c-.85.16-2.44.47-3.57-.55s-1.63-3.25-1.36-6.54c1.71-21.48,6.31-34.22,18.93-52.44,16.52-23.86,35.61-27,35.81-27.07,4.26-.65,5.92,2.63,6.81,4.58a9.83,9.83,0,0,0-1.36-.12l-.4-.08a.37.37,0,0,0-.31.08c-6,.21-15.19,4.71-23.81,11.47l-.24.1a.4.4,0,0,0-.22.26,83.1,83.1,0,0,0-7,6.29.42.42,0,0,0-.3.25s0,0,0,.06A62.85,62.85,0,0,0,99.7,72.6c-6,10.42-17.41,40.21-12.81,51Zm.52-11.9a19.53,19.53,0,0,0,13.81,1q.4,2.81.73,5.63h-.13a33.79,33.79,0,0,1-8,.12,17.6,17.6,0,0,1-6.78-1.35A42.4,42.4,0,0,1,87.08,111.79Zm.22-.79-.11,0c.3-2,.71-4.08,1.21-6.23a15.63,15.63,0,0,0,7,1.66,15.14,15.14,0,0,0,4.38-.65c.37,2.07.7,4.14,1,6.21A18.75,18.75,0,0,1,87.3,111Zm1.29-7.07c.41-1.7.88-3.42,1.38-5.15h0a19.77,19.77,0,0,0,5.08.65c.31,0,.62,0,.93,0h.31A4.77,4.77,0,0,0,98.46,99q.63,3,1.17,6A15,15,0,0,1,88.59,103.93Zm7.68-5.34H96A19.22,19.22,0,0,1,90.2,98c.57-1.91,1.19-3.83,1.84-5.71l.07,0a10.81,10.81,0,0,0,2.78.35,11,11,0,0,0,2-.18c.57,1.87,1,3.78,1.42,5.64A3.76,3.76,0,0,1,96.27,98.59Zm-4-7.06h0c.63-1.78,1.28-3.54,2-5.23a27.59,27.59,0,0,1,2.37,5.4A10.11,10.11,0,0,1,92.31,91.53ZM87.67,123.4a14.74,14.74,0,0,1-1-5.33,19.38,19.38,0,0,0,6.71,1.26c1.4.09,2.83.19,4.26.19a22.94,22.94,0,0,0,4-.31l.07,0c.18,1.59.34,3.18.48,4.76a12.09,12.09,0,0,0,.17,1.33A30.88,30.88,0,0,1,87.67,123.4Zm19.71,4.21a2.71,2.71,0,0,1-2.22.06,3.24,3.24,0,0,1-1.79-1.75,2.81,2.81,0,0,1-.1-.31.19.19,0,0,0,0-.07.52.52,0,0,0-.13-.38,11,11,0,0,1-.17-1.3,210,210,0,0,0-3.86-25.69c-.92-4.28-2-8.79-4.44-12.74l-.07-.08c.2-.48.39-1,.59-1.43l.09,0a32.19,32.19,0,0,1,5.52,1.45c3.94,10,5.93,20.69,7.84,31.06.48,2.58,1,5.5.48,8.22A4.1,4.1,0,0,1,107.38,127.61Zm4.38.45a2.2,2.2,0,0,1-2.43-1.29s0,0,0-.06a6.75,6.75,0,0,0,.64-1.88c.57-2.88,0-5.88-.48-8.53-1.88-10.17-3.83-20.69-7.63-30.54a45.55,45.55,0,0,1,7.92,3.91,28.26,28.26,0,0,1,1.06,4.72l.17,1c.47,2.7,1.1,5.43,1.72,8.07,1.47,6.34,3,12.89,2.31,19.39a9.19,9.19,0,0,1-.84,3.29A3.62,3.62,0,0,1,111.76,128.06Zm8.28-2c-1.49,1.49-3.8,1.46-5.48,1a3.46,3.46,0,0,0,.32-.52,9.87,9.87,0,0,0,.94-3.59c.7-6.63-.84-13.25-2.33-19.65-.61-2.63-1.24-5.35-1.71-8l-.17-1a35.67,35.67,0,0,0-.8-3.91,47.79,47.79,0,0,1,7.37,6c.87,4.54,1.7,9,2.32,13.51a.44.44,0,0,0-.06.16.39.39,0,0,0,.14.35c.43,3.17.76,6.33.93,9.5C121.63,122.2,121.54,124.57,120,126.06Zm1.38-15.54q.43,0,.87,0a12,12,0,0,0,5.26-1.22c1,2,2,4.06,2.84,6.07a16.13,16.13,0,0,1-8.26,1.66C122,114.88,121.71,112.7,121.42,110.52Zm-.12-.83c-.26-1.91-.56-3.81-.89-5.72a9,9,0,0,0,3.53-.79c.22.3.43.6.64.91a47.67,47.67,0,0,1,2.6,4.53A11.34,11.34,0,0,1,121.3,109.69Zm-1-6.54q-.51-2.88-1.06-5.77a51.91,51.91,0,0,1,4.26,5.11A8,8,0,0,1,120.27,103.15Zm12.86,19.26a53.5,53.5,0,0,1-11.4,2.51,12,12,0,0,0,.59-5.11c0-.64-.09-1.29-.13-1.93.33,0,.66,0,1,0a16.92,16.92,0,0,0,7.53-1.78c.83,2,1.52,3.76,2,5.14a5.55,5.55,0,0,0,.56,1.12Zm2.67,1c-1.59-.29-2.36-2.41-2.36-2.42a91.87,91.87,0,0,0-8.18-17.38,51.37,51.37,0,0,0-6.34-7.72.41.41,0,0,0-.28-.28C108.17,85.34,96.8,83.35,95.52,83.16c.8-1.9,1.6-3.69,2.39-5.33a.37.37,0,0,0,.16.1c.21.07,21.12,7,32.12,25.27A52.46,52.46,0,0,1,138,118.62a5.29,5.29,0,0,0,1.8,2.59C138.27,122.89,136.94,123.65,135.8,123.44Zm5.52-2.46c-1.29,0-2.34-1.72-2.59-2.59a53.32,53.32,0,0,0-7.87-15.65C119.73,84.23,98.53,77.23,98.32,77.16h-.08c.74-1.53,1.47-2.93,2.17-4.15l.62-1c.36.12,21.68,7.12,33.92,26.12a88.84,88.84,0,0,1,4.61,9.17c1.18,2.57,2.3,5,3.23,6.66a4.89,4.89,0,0,0,2.26,2C143.94,119.22,142.61,121,141.32,121Zm5-5.56h0a3.65,3.65,0,0,1-2.85-1.89c-.91-1.65-2-4.06-3.2-6.61a89.68,89.68,0,0,0-4.67-9.27C123.79,79.27,103.56,72,101.45,71.26a59,59,0,0,1,3.88-5.42,3.56,3.56,0,0,0,1.17.75l3,1.31c4.89,2.15,10,4.38,14.2,7.7a63.37,63.37,0,0,1,7.88,7.5c7.21,8,15.17,17.51,18.59,29.12C149,114.3,147.67,115.41,146.36,115.42Zm4.42-3.83c-3.53-11.59-11.46-21-18.65-29a64.31,64.31,0,0,0-8-7.6c-4.32-3.38-9.43-5.63-14.37-7.81-1-.43-2-.86-2.94-1.3a2.74,2.74,0,0,1-1-.64q2-2.41,4.22-4.65l1.8.65a.34.34,0,0,0,.15.06c7.68,2.92,17.32,7.92,27.23,19.25,3.59,4.11,10.41,13.82,13.25,24.19C153.12,107,152.7,110,150.78,111.59ZM154.45,101a7.81,7.81,0,0,1-1.54,2.19,60.7,60.7,0,0,0-5-11.61,6.33,6.33,0,0,1,3.46,1.32l1,.72a15.08,15.08,0,0,0,2.54,1.63,4.61,4.61,0,0,0,.63.23A15,15,0,0,1,154.45,101Zm3.5-8.86a4.39,4.39,0,0,1-.56,1.8,1.75,1.75,0,0,1-1.28.8.48.48,0,0,0-.17,0l-.11,0a2.58,2.58,0,0,1-.63-.2A14.53,14.53,0,0,1,152.8,93l-1-.74a6.76,6.76,0,0,0-4.11-1.46.33.33,0,0,0-.22.08,77.2,77.2,0,0,0-4.54-7,7.84,7.84,0,0,1,3.69.63,57.52,57.52,0,0,1,8.15,3.67,5.67,5.67,0,0,0,1.85.75,2.83,2.83,0,0,0,.41,0,2.31,2.31,0,0,0,1-.2A13.2,13.2,0,0,1,158,92.17Z"/>
        <path class="cls-13" d="M14.71,100.93l.23-.3-.08,0C14.82,100.72,14.76,100.82,14.71,100.93Z"/>
      </g>
    </g>
  </g>
</svg>
