<svg xmlns="http://www.w3.org/2000/svg" width="336" height="262.13" viewBox="0 0 336 262.13">
  <defs>
    <style>
      .cls-1 {
        isolation: isolate;
      }

      .cls-17, .cls-2, .cls-6 {
        opacity: 0.5;
      }

      .cls-3 {
        fill: #353535;
      }

      .cls-4 {
        fill: none;
        stroke: #fffa4d;
        stroke-linejoin: round;
        stroke-width: 10px;
      }

      .cls-5 {
        fill: #b56823;
      }

      .cls-13, .cls-6, .cls-7 {
        fill: #dd9043;
      }

      .cls-12, .cls-13, .cls-16, .cls-18, .cls-6 {
        mix-blend-mode: multiply;
      }

      .cls-17, .cls-8, .cls-9 {
        fill: #c97d39;
      }

      .cls-8 {
        opacity: 0.8;
      }

      .cls-10 {
        fill: #a05d2b;
      }

      .cls-11, .cls-12 {
        fill: #7a4417;
      }

      .cls-12 {
        opacity: 0.4;
      }

      .cls-13, .cls-15 {
        opacity: 0.25;
      }

      .cls-14 {
        fill: #351c0a;
      }

      .cls-15 {
        fill: #efae59;
        mix-blend-mode: overlay;
      }

      .cls-16 {
        fill: #e58f48;
        opacity: 0.2;
      }

      .cls-18 {
        fill: #994507;
      }
    </style>
  </defs>
  <g class="cls-1">
    <g id="Layer_1" data-name="Layer 1">
      <g>
        <g class="cls-2">
          <path class="cls-3" d="M135.26,260.33a5.2,5.2,0,0,1-4.3-8c2.07-3.21,6.19-5.56,12.22-7a6.8,6.8,0,0,0,4.95-4.95c3.76-14.65,4.6-26.41,2.32-32.27-.32-.83-.62-1.65-.89-2.44l-.25-.81c-.16-.49-.33-1-.48-1.52l-.18-.65-.07-.28c-.12-.42-.23-.85-.33-1.26l-.22-.93c-.08-.38-.17-.77-.25-1.16s-.16-.86-.16-.86c-.06-.39-.12-.75-.18-1.11s-.08-.55-.11-.81-.09-.69-.13-1,0-.52-.07-.77-.06-.64-.07-.95,0-.45,0-.68,0-.6,0-.88v-.6c0-.3,0-.57,0-.84v-.47c0-.32,0-.59.05-.86l0-.33c0-.43.06-.77.1-1.09l0-.22c0-.25.06-.47.09-.67l.16-.88.16-.7c0-.23.23-1.81.25-2s.18-1.81.2-2,.12-1.75.13-1.91c0,0,.07-1.64.07-1.85s0-1.18,0-1.18c0-.21,0-.39,0-.57s0-.39,0-.58c0,0,0-.92,0-1.09s-.09-1.59-.09-1.59S148,171.13,148,171l-.18-1.43c0-.16-.2-1.22-.22-1.35s-.06-.33-.09-.47-.14-.7-.18-.86c0,0-.26-1.1-.29-1.24l-.33-1.17c-.05-.17-.33-1-.37-1.16s-.33-.93-.39-1.08-.43-1.09-.43-1.09-.36-.81-.43-1l-.49-1-.46-.9-.53-1-.53-.89-.54-.87-.56-.86-.57-.85-.58-.83-.58-.83-1-1.38c-.45-.64-.91-1.27-1.4-2l-.61-.86c-.21-.3-.4-.6-.6-.89a91.7,91.7,0,0,1-7.14-12.61,82.41,82.41,0,0,1-15.06-3.13c-2.39-.73-4.8-1.58-7.16-2.53l-.18-.08c-.55-.22-1.11-.45-1.66-.69l-.24-.1-1.79-.81c-1.18-.54-2.29-1.09-3.39-1.65a2.93,2.93,0,0,1-1.06-.56l-1.44-.79-.31-.18c-.54-.3-1.09-.62-1.63-1l-.35-.21c-.58-.34-1.14-.69-1.74-1.08l-.2-.12c-1.37-.89-2.71-1.8-4-2.73l-.13-.09c-.57-.42-1.18-.87-1.78-1.34l-.37-.29-1.56-1.25-.41-.34c-.55-.46-1.08-.91-1.61-1.38l-.29-.25c-1.33-1.18-2.62-2.4-3.85-3.65l-.19-.19c-.53-.53-1.08-1.11-1.64-1.71l-.18-.2-.25-.28c-.42-.45-.86-1-1.3-1.45l-.51-.59c-.42-.48-.82-1-1.22-1.45l-.53-.66c-.42-.51-.82-1-1.22-1.55l-.47-.61c-.55-.74-1.07-1.45-1.59-2.18l-.36-.53c-.42-.6-.85-1.22-1.26-1.86-.17-.25-.33-.51-.5-.77l-.18-.29c-.28-.43-.57-.88-.85-1.34l-.67-1.12-.07-.12c-.24-.4-.49-.83-.74-1.27l-.74-1.32-.69-1.27-.74-1.42c-.18-.35-.35-.71-.53-1.07l-.26-.54c-.19-.37-.38-.76-.57-1.16s-.28-.6-.41-.91L61.46,84C61,83,60.6,82,60.18,81L60,80.71c-.16-.39-.3-.72-.43-1.06s-.34-.84-.5-1.27l-.2-.53c-.17-.43-.33-.86-.49-1.3s-.39-1.09-.59-1.65-.36-1-.54-1.57-.36-1.1-.53-1.66-.36-1.14-.54-1.73c0,0-.35-1.17-.47-1.59-.19-.69-.38-1.37-.56-2.06L55,65.71c-.08-.28-.15-.56-.22-.84-.3-1.16-.59-2.35-.86-3.55a3.2,3.2,0,0,0-.36-.89,2.54,2.54,0,0,0-.44-.54,43.26,43.26,0,0,0-14.78-8.78,31.47,31.47,0,0,0-4.54-1.22C20.48,47.31,14.53,45.6,14,40.16a9.07,9.07,0,0,1,.93-5,6.5,6.5,0,0,1,.89-7.65c1.62-1.8,4.35-2.87,8.3-3.24A28.69,28.69,0,0,1,39,20a26.64,26.64,0,0,1,4.45.37c.58.1,1.15.17,1.73.22a10.21,10.21,0,0,1,3.23-1.32c.3-.07.56-.11.87-.16l.17,0,.79-.06h1.3L52,19h.16l.38,0,.59.09.44.08.5.12.53.13A28.81,28.81,0,0,1,61,18.64a19.23,19.23,0,0,1,3.47.32c1.9-3.51,4.64-5.58,7.45-5.58,1.27,0,5.49.52,6.29,7.17a14.78,14.78,0,0,1-.5,6.34c4.58,5.85,6.61,14.84,10.68,32.77.56,2.48,1.16,5.13,1.81,8,2.25,9.81,10.63,18.17,21.33,21.3a27.57,27.57,0,0,0,7.73,1.16c4.9,0,9-1.5,12-4.35a1.55,1.55,0,0,1,.15-.14c2.66-2.67,5.2-5.55,7.88-8.61,10.08-11.48,20.51-23.36,37.44-23.88H177l.87,0h.68c2.3,0,3.85-.06,4.91-.12a13.55,13.55,0,0,0,2-.47,6.55,6.55,0,0,1,.92-.36c3.91-1.66,6-5.19,8.42-9.26,3.49-5.87,7.83-13.17,18.75-13.55.64,0,1.26,0,1.86,0,6.38,0,11.58,1.28,15.88,3.9a31.78,31.78,0,0,1,8.07,7.36l.27.32,2.66,3.25.94,1.11.41.46c.17.2.36.41.55.61l.41.44.59.59.41.4c.21.21.44.42.68.63l.34.3c.37.32.74.63,1.12.92,4.18,3.17,11.41,4.92,19.08,6.77,7.87,1.89,16.79,4,24.61,8.25,1.06.57,2.1,1.18,3.1,1.82l.45.2,1,.45,1.1.54.57.3.55.3,1,.58.52.32.48.3,1,.65.9.64.91.71c.14.1.8.66.8.66l.46.4.35.32.39.37.39.38.67.71.4.44.29.34c.06.07.58.7.66.81s.57.76.57.76l.24.34.31.46.34.54.18.3.52.92.41.8.37.81.36.87.34.91.3.94.21.78.22.9s.19,1,.2,1,.14.86.14.9l.11.79.09.9.06.9,0,.91v.89l0,.5c.75,2.59,1.44,5.39,2.12,8.53a142.49,142.49,0,0,1,2.74,23.91c0,2.08.06,4.38,0,6.61s-.07,3.81-.18,5.4c0,.35,0,.73-.05,1.13a3.62,3.62,0,0,1,.2.33c.07.12.14.26.23.45s.18.36.26.56l.17.43c.07.2.14.39.2.58s.11.32.15.49l.14.56s.08.34.11.46l.12.64.06.35c.06.39.1.71.13,1l0,.35c0,.28,0,.55.07.83l0,.45c0,.23,0,.46,0,.68v1.64l0,1.16-.06,1.15-.09,1.19c0,.38-.07.74-.11,1.1l0,.22s-.09.74-.13,1l-.15,1.17-.11.78c0,.34,0,.69,0,1v.09c4.27,14.1,10.14,24,13,26.47,6.11,5.43,3,10.35.78,14a29.19,29.19,0,0,0-4.61,10.9c-2.31,12.23.41,30.21,1.66,36.11a6.45,6.45,0,0,1-1.1,5.63c-2,2.45-5.27,2.45-6.35,2.45l-1,0c.06.56.15,1.19.28,1.86a5.47,5.47,0,0,1-5.38,6.48H296.82a5.49,5.49,0,0,1-5-7.73c1.16-2.51,4-5.8,10.81-7.39,1.12-.26,3.12-1.83,5.14-5.41,2.57-4.56,10.16-21.94-.31-53.71a35,35,0,0,0-2.08-5,5.88,5.88,0,0,1-.85-.22,7.36,7.36,0,0,1-5.09-6.92c0-.33,0-.88,0-1.38-.24-.27-.49-.52-.75-.78a22.37,22.37,0,0,0,2.68,8.4c6.25,9.67,4.5,13.44.58,19.81a60.94,60.94,0,0,0-5.8,11.56c-.46,1.24-1,2.51-1.52,3.86-2.9,7.13-6.19,15.21-4.41,26.86a10,10,0,0,1,.12,1.71c-.17,6.19-6.29,7.05-8.49,7.32q-.12.51-.21,1a14.1,14.1,0,0,0-.23,2,5.88,5.88,0,0,1-1.08,3.21,6,6,0,0,1-4.83,2.57l-20.53.25a5.65,5.65,0,0,1-4.37-2,5.46,5.46,0,0,1-1.22-4.48c1-5.51,6-8.43,13.79-11.36l.29-.11c6.93-2.56,15.46-25.2,18.64-49.44.08-.6.14-1.21.19-1.8s.06-1.13.07-1.69a24.84,24.84,0,0,0-.37-4.66c-.09-.49-.19-1-.31-1.46a28.49,28.49,0,0,0-1.11-3.57,81.27,81.27,0,0,0-5.67-11.1c-4.38-7.64-9.71-16.94-13.4-31.39-11.22,11.9-26.26,18-44.8,18.17h-4.37l-2.93-.06-.75,0c-1,0-2-.07-3-.12l-.55,0-3.4-.2c-1.49-.1-2.95-.22-4.41-.35-.52,2.42-1,4.73-1.4,7s-1.73,9.54-.25,12.39c5.76,11.05,8.57,17.14,9.33,34.78.55,12.62,6.12,23.5,9.45,30,.84,1.63,1.5,2.91,2,4,1.24,2.89.58,4.91-.21,6.1a6,6,0,0,1-4.17,2.56l.31,1.38a6.36,6.36,0,0,1-1.25,5.37,6.29,6.29,0,0,1-4.93,2.37l-20.25.07-.34,0-.85,0A4.58,4.58,0,0,1,181,258.9a4.45,4.45,0,0,1-.92-3.8,9.24,9.24,0,0,1,8.82-8.15c1.94-.18,3.2-.65,3.77-1.41,1.69-2.26.36-9-1.18-16.78l-.34-1.71c-1.35-6.83-3.27-9.52-5.3-12.37a27.42,27.42,0,0,1-5.53-12.7,83.08,83.08,0,0,0-4.7-17.2c-2.08-3.72-4-7.38-5.81-10.94,1.29,11.37,2.47,24.78.71,33.18-2,9.62-3.5,28.21-2.36,36.17.47,3.29,0,5.75-1.57,7.51a6.45,6.45,0,0,1-4.3,2.15,7.58,7.58,0,0,1-7.58,7.65Z"/>
        </g>
        <g>
          <path class="cls-4" d="M128.38,253.9a5.19,5.19,0,0,1-4.3-8c2.07-3.21,6.19-5.56,12.22-7a6.77,6.77,0,0,0,4.95-4.95c3.76-14.64,4.6-26.4,2.32-32.27-.33-.83-.62-1.64-.89-2.43l-.25-.81c-.17-.52-.34-1-.48-1.52-.06-.21-.12-.42-.17-.64l-.09-.3q-.18-.66-.33-1.26l-.2-.91c-.09-.39-.18-.79-.26-1.18s-.16-.86-.16-.86c-.06-.38-.13-.74-.18-1.1s-.08-.55-.11-.81-.09-.69-.13-1,0-.52-.07-.76-.05-.64-.07-.94,0-.5,0-.7,0-.58,0-.87V185c0-.3,0-.57,0-.83v-.48c0-.33,0-.6,0-.87l0-.32c0-.43.06-.78.1-1.09,0,0,.09-.69.12-.9l.16-.87c0-.06.05-.23.06-.27l.1-.44c0-.22.25-2,.25-2,0-.26.18-1.79.2-2s.09-1.32.09-1.32,0-.44,0-.61c0,0,.07-1.64.07-1.84s0-1.19,0-1.19c0-.2,0-.39,0-.56s0-1.5,0-1.68l-.09-1.57s-.12-1.37-.14-1.52-.18-1.43-.18-1.43c0-.16-.22-1.36-.22-1.36l-.27-1.32s-.26-1.11-.3-1.24-.32-1.17-.32-1.17c-.05-.17-.33-1-.37-1.17l-.39-1.07c-.07-.17-.43-1.09-.44-1.09s-.37-.85-.42-1l-.49-1-.46-.9-.53-1-.53-.89-.54-.88-.56-.85-.57-.85-.58-.84-.59-.83-1-1.38-1.41-2-.6-.87-.59-.87A93.3,93.3,0,0,1,122.62,128a82.3,82.3,0,0,1-15.05-3.12c-2.39-.73-4.8-1.58-7.16-2.53l-.18-.08-1.66-.7-.24-.1c-.59-.26-1.17-.51-1.79-.8l-.1-.05c-1.11-.51-2.21-1-3.29-1.61a2.85,2.85,0,0,1-1.06-.56l-1.45-.79-.3-.17-1.63-1-.35-.21-1.75-1.08-.18-.12q-2.1-1.35-4-2.73l-.13-.09c-.57-.42-1.18-.88-1.78-1.35l-.38-.29c-.51-.4-1-.82-1.55-1.25l-.41-.33c-.55-.46-1.08-.92-1.61-1.38l-.29-.25c-1.33-1.19-2.62-2.41-3.85-3.65l-.19-.19c-.53-.54-1.08-1.12-1.63-1.71l-.19-.2-.25-.28c-.42-.46-.87-1-1.31-1.45l-.51-.59-1.22-1.46-.53-.65L65.4,95.73l-.48-.61c-.54-.73-1.06-1.44-1.58-2.17L63,92.42c-.41-.6-.84-1.23-1.25-1.86-.17-.25-.33-.51-.5-.77L61,89.5c-.3-.47-.58-.9-.85-1.35s-.45-.74-.67-1.12l-.06-.1-.75-1.28L58,84.33l-.69-1.27-.74-1.42c-.18-.36-.36-.72-.53-1.08L55.75,80l-.57-1.18L54.76,78l-.18-.4c-.44-1-.87-2-1.28-3l-.14-.31c-.14-.35-.29-.7-.43-1.06s-.31-.77-.46-1.17L52,71.43c-.17-.43-.33-.86-.49-1.3S51.15,69,51,68.48l-.54-1.57-.54-1.66-.53-1.73s-.35-1.18-.47-1.6c-.2-.68-.38-1.37-.56-2.06l-.16-.56c-.07-.28-.15-.56-.22-.85-.3-1.16-.59-2.35-.86-3.55a3.39,3.39,0,0,0-.36-.9,2.81,2.81,0,0,0-.44-.54,43.38,43.38,0,0,0-14.78-8.77A30.23,30.23,0,0,0,27,43.47C13.6,40.89,7.65,39.18,7.13,33.74a9.2,9.2,0,0,1,.92-5A6.49,6.49,0,0,1,9,21.06c1.62-1.8,4.35-2.88,8.3-3.24a28.72,28.72,0,0,1,14.9-4.25,26.64,26.64,0,0,1,4.45.37c.58.1,1.15.17,1.73.22a10.23,10.23,0,0,1,3.23-1.33c.29-.06.56-.11.88-.15l.16,0,.78-.07h1.27l.49,0h.16l.38,0,.42.06.58.1.53.12.53.14a28.65,28.65,0,0,1,6.38-.86,19.23,19.23,0,0,1,3.47.32C59.49,9,62.23,7,65,7c1.28,0,5.5.52,6.3,7.17a14.74,14.74,0,0,1-.5,6.33C75.4,26.32,77.44,35.3,81.5,53.22c.57,2.5,1.17,5.15,1.82,8C85.57,71,94,79.38,104.65,82.51a27.57,27.57,0,0,0,7.73,1.16c4.91,0,9-1.51,12-4.35l.16-.15c2.65-2.65,5.19-5.54,7.87-8.6,10.09-11.49,20.52-23.36,37.45-23.88l.33,0h1.55c2.3,0,3.85,0,4.91-.12a13.56,13.56,0,0,0,2-.46,5.17,5.17,0,0,1,.92-.36c3.9-1.65,6-5.18,8.42-9.26,3.49-5.87,7.83-13.17,18.75-13.56l1.86,0c6.38,0,11.58,1.27,15.88,3.89a31.93,31.93,0,0,1,8.06,7.36l.27.32,2.67,3.26.93,1.1.42.47c.17.2.36.4.55.61l.4.43.56.56.44.43c.22.22.45.42.69.63l.35.32q.54.47,1.11.9c4.17,3.18,11.41,4.92,19.08,6.77,7.87,1.9,16.79,4,24.61,8.26,1.06.56,2.1,1.17,3.1,1.81l.28.13.17.07,1,.46,1.1.54.57.3.56.3.43.25.58.33.52.32.48.3,1,.64.49.34.42.31.91.7.8.66.45.4.36.32.39.38c.14.13.27.25.39.38l.67.7.4.44.29.34.66.81c.09.11.57.76.57.76l.24.35.31.46.34.53s.22.36.23.39l.47.83.41.8.37.81.36.87c.07.19.3.8.34.94l.3.92.21.77.22.91.2,1s.14.86.14.89l.11.8.09.9.05.9,0,.9v1.4c.75,2.6,1.44,5.39,2.12,8.53A142.37,142.37,0,0,1,310.43,118v.17c0,2.1.06,4.28,0,6.43s-.08,3.8-.18,5.4c0,.36,0,.74,0,1.13l.2.34a4.11,4.11,0,0,1,.19.37c.12.24.22.44.3.65s.11.26.17.41.14.4.2.59l.15.49.14.55.11.46.12.65.06.35c.06.38.1.7.13,1l0,.35c0,.27.05.55.07.83l0,.45c0,.23,0,.45,0,.68v1.63l0,1.16-.06,1.16-.09,1.19-.14,1.32s-.08.75-.12,1.06l-.15,1.15-.11.78c0,.35,0,.7,0,1.05v.1c4.27,14.09,10.14,23.95,13,26.47,6.11,5.42,3,10.35.78,13.95a29.28,29.28,0,0,0-4.61,10.89c-2.32,12.24.41,30.22,1.66,36.11a6.46,6.46,0,0,1-1.1,5.64c-2,2.45-5.27,2.45-6.35,2.45q-.54,0-1,0c.06.57.14,1.2.27,1.86a5.46,5.46,0,0,1-5.37,6.49H289.94a5.49,5.49,0,0,1-4.62-2.53,5.43,5.43,0,0,1-.39-5.21c1.16-2.5,4-5.79,10.81-7.39,1.12-.25,3.12-1.82,5.14-5.4,2.57-4.57,10.16-21.94-.31-53.71a36.39,36.39,0,0,0-2.08-5,8.15,8.15,0,0,1-.85-.22,7.36,7.36,0,0,1-5.09-6.93c0-.32,0-.87,0-1.38-.24-.26-.49-.52-.75-.77a22.37,22.37,0,0,0,2.68,8.4c6.25,9.67,4.5,13.44.58,19.8a60.91,60.91,0,0,0-5.8,11.56c-.46,1.25-1,2.52-1.52,3.87-2.9,7.13-6.19,15.21-4.41,26.85a9.2,9.2,0,0,1,.11,1.71c-.16,6.2-6.28,7.06-8.48,7.33q-.12.51-.21,1a12.78,12.78,0,0,0-.23,2,6.15,6.15,0,0,1-1.07,3.21,6,6,0,0,1-4.85,2.56l-20.53.25a5.64,5.64,0,0,1-4.36-2,5.47,5.47,0,0,1-1.22-4.48c1-5.51,6-8.44,13.79-11.36l.3-.11c6.92-2.57,15.45-25.21,18.63-49.44.08-.6.14-1.21.18-1.8s.07-1.14.08-1.7a23.93,23.93,0,0,0-.38-4.65c-.08-.49-.18-1-.3-1.46a29.14,29.14,0,0,0-1.11-3.58A81.69,81.69,0,0,0,268,162.06c-4.38-7.66-9.71-17-13.4-31.41-11.22,11.9-26.26,18-44.8,18.18h-4.37l-2.93-.06-.75,0-3-.12-.55,0c-1.15-.06-2.28-.12-3.4-.2-1.49-.1-3-.21-4.41-.34-.52,2.43-1,4.74-1.41,7s-1.72,9.54-.24,12.39c5.76,11,8.56,17.14,9.33,34.78.55,12.61,6.12,23.5,9.46,30,.84,1.64,1.49,2.92,2,4,1.24,2.89.57,4.92-.21,6.1a6,6,0,0,1-4.17,2.56l.31,1.38a6.36,6.36,0,0,1-6.18,7.75L179,254l-.39,0-.8,0a4.58,4.58,0,0,1-3.69-1.59,4.47,4.47,0,0,1-.92-3.8c.85-4.81,4-7.71,8.81-8.16,1.95-.17,3.21-.65,3.78-1.4,1.69-2.27.36-9-1.19-16.79l-.33-1.7c-1.35-6.83-3.27-9.52-5.3-12.38a27.37,27.37,0,0,1-5.53-12.7,83.57,83.57,0,0,0-4.7-17.19c-2.08-3.73-4-7.38-5.82-10.94,1.3,11.36,2.48,24.77.72,33.17-2,9.62-3.5,28.21-2.36,36.18.47,3.29,0,5.74-1.57,7.5a6.41,6.41,0,0,1-4.31,2.15,7.58,7.58,0,0,1-7.57,7.66Z"/>
          <g>
            <g>
              <path class="cls-5" d="M318.47,238.12c1.1,5-5.85,3-7.93,3.33-1.17.22-.69,4.53-.3,6.52a1.64,1.64,0,0,1-1.62,1.93H289.94a1.66,1.66,0,0,1-1.53-2.32c.81-1.75,2.87-4,8.2-5.25,8.22-1.89,20.32-25.43,7.6-64a40.26,40.26,0,0,0-17.84-22.14,61.18,61.18,0,0,1-7-4.79c-10-7.82-20.11-21-18.78-41.73,1.08-17,4.37-28.92,8.55-36.1,5.57-9.52,12.74-10.76,18.49-4.8,0,0,7.34,3.37,12,14.15,2.74,6.27,4.55,15,3.49,27.11a106.14,106.14,0,0,0,2.22,31.66c4.14,19,12.23,33.75,16.53,37.58,6.49,5.77-2.53,7.93-5.05,21.27S317.41,233.07,318.47,238.12Z"/>
              <path class="cls-5" d="M202.12,241.1a1.33,1.33,0,0,0-1.42,1.63l1,4.32a2.54,2.54,0,0,1-2.46,3.07l-20.26.07c-1.14,0-2.22.33-2-.81a5.56,5.56,0,0,1,5.41-5c10.73-1,8.54-9.79,5.65-24.44s-8.65-13-10.82-25-5-18.26-5-18.26A215.54,215.54,0,0,1,158.07,147c-6.46-17.16-5.9-25.31-5.89-26.15.73-25,18-17.31,32.23-7.69,10,6.78,3.5,26.34.82,41.17-1.13,6.2-1.57,11.58.13,14.84,5.77,11.06,8.18,16.59,8.9,33.17s9.55,30.29,11.71,35.34C207.44,241.09,204.3,241.31,202.12,241.1Z"/>
              <path class="cls-6" d="M185.23,154.32c-10.26.87-18.29.51-27.16-7.33-6.46-17.16-5.9-25.31-5.89-26.15.73-25,18-17.31,32.23-7.69C194.4,119.93,187.91,139.49,185.23,154.32Z"/>
              <path class="cls-6" d="M305.32,141.65a126.6,126.6,0,0,1-26,9.71c-10-7.82-20.11-21-18.78-41.73,1.08-17,4.37-28.92,8.55-36.1a147.23,147.23,0,0,1,30.51,9.35c2.74,6.27,4.55,15,3.49,27.11A106.14,106.14,0,0,0,305.32,141.65Z"/>
              <path class="cls-7" d="M264.8,115.23a9.34,9.34,0,0,1-2.75.56c-3.25-.36-12.26,28.85-52.29,29.21a199.45,199.45,0,0,1-46.6-5.18c-1.67-.39-3.3-.79-4.89-1.22l-1.43-.39c-10.8-3-19.54-6.47-25.11-9.77a24,24,0,0,1-5.26-4s-.44,0-1.24,0l-.75-.07A80.37,80.37,0,0,1,73.27,99.16C63.75,88.88,55.4,74.41,50.8,54A7.21,7.21,0,0,0,50,52a6.49,6.49,0,0,0-1.11-1.35,46.86,46.86,0,0,0-16.16-9.6,34.47,34.47,0,0,0-5-1.35C10.29,36.35,9.59,34.54,11.76,29.8c0-.07.05-.15.08-.23a2.68,2.68,0,0,0,0-2v0a2.19,2.19,0,0,0-.16-.3,2.82,2.82,0,0,1,.12-3.61c.92-1,2.91-1.86,6.7-2.09h.08A24.52,24.52,0,0,1,36,17.71c11.58,1.95,15.68-5.05,26.32.55,9.26,4.86,10.47,14,17.31,43.8,2.8,12.19,13.13,21,24,24.12,8.65,2.54,17.64,1.53,23.44-4.12l.17-.16c12.42-12.42,23.18-30.78,42.72-31.39h.39a22.59,22.59,0,0,1,2.32,0,19.79,19.79,0,0,0,7.65-1c.23-.08.44-.17.66-.27,11.81-4.82,10.34-22,25.95-22.57,7.2-.26,12,1.09,15.6,3.3,6.73,4.08,9.45,11.08,16.13,16.17,9.42,7.17,29.11,7.22,44.19,15.35a34.9,34.9,0,0,1,14.95,14.58C308.87,97.1,275.19,112.19,264.8,115.23Z"/>
              <path class="cls-8" d="M263,109.54c-3.25-.36-12.26,28.85-52.29,29.21S135,126.49,127.43,118.2c0,0-59.86-.54-75.67-70.41a10.68,10.68,0,0,0-1.93-3.38c-11.53-7.59-39-8.61-38-14.84a2.78,2.78,0,0,1,0,.58c-2.16,4.75-1.51,6.2,15.87,9.56a34.47,34.47,0,0,1,5,1.35,46.86,46.86,0,0,1,16.16,9.6A6.49,6.49,0,0,1,50,52a7.21,7.21,0,0,1,.82,2c15.81,69.87,75.67,70.41,75.67,70.41,7.57,8.29,43.27,20.91,83.29,20.55s49-29.57,52.29-29.21c2.88.32,38.82-12.47,37.9-32C294.26,99.75,265.57,109.83,263,109.54Z"/>
              <path class="cls-9" d="M24.39,29.22a27.69,27.69,0,0,1-6.72,1.46,13.59,13.59,0,0,1-3.53-.2,7.46,7.46,0,0,1-2.3-.91,2.68,2.68,0,0,0,0-2s.08.06.12.1,0,.09.07.11l0,.08a3.19,3.19,0,0,0,1,.91,6.17,6.17,0,0,0,1.43.64,11.81,11.81,0,0,0,3.23.54A23.77,23.77,0,0,0,21,29.8C22.16,29.67,23.27,29.45,24.39,29.22Z"/>
              <path class="cls-7" d="M52.83,26.05a4.11,4.11,0,0,1-1.1,1.45c-1.92,1.75-5.34,2.06-8.52.58a9.64,9.64,0,0,1-3.56-2.81,5.69,5.69,0,0,1-1-5.9c1.38-3,5.69-3.88,9.62-2S54.23,23.09,52.83,26.05Z"/>
              <path class="cls-10" d="M52.83,26.05a4.11,4.11,0,0,1-1.1,1.45c-1.92,1.75-5.34,2.06-8.52.58a9.64,9.64,0,0,1-3.56-2.81,5.69,5.69,0,0,1-1-5.9c1.38-3,5.69-3.88,9.62-2S54.23,23.09,52.83,26.05Z"/>
              <path class="cls-9" d="M59.17,22.38c.07,1.2,1.82,2.16,2.93,1.82,2.65-.8,6.18-3.28,5.43-9.62C66.5,6,58.71,13.34,59.17,22.38Z"/>
              <path class="cls-7" d="M64.36,21.5c-1.12.34-2.87-.63-2.93-1.83a15.37,15.37,0,0,1,1.89-8.21c-2.21,1.62-4.4,6-4.15,10.92.07,1.2,1.82,2.16,2.93,1.82a7.49,7.49,0,0,0,4.69-3.91A8.35,8.35,0,0,1,64.36,21.5Z"/>
              <path class="cls-11" d="M50.56,25.71c0,2.06-4.68,1.77-6.61,1.77a3.62,3.62,0,0,1-3.48-3.74A3.62,3.62,0,0,1,44,20C45.88,20,50.56,23.64,50.56,25.71Z"/>
              <path class="cls-12" d="M52.37,26.13c0,2.06-4.69,1.77-6.61,1.77a3.62,3.62,0,0,1-3.49-3.74,3.62,3.62,0,0,1,3.49-3.74C47.68,20.42,52.37,24.06,52.37,26.13Z"/>
              <path class="cls-7" d="M306.63,124.52c0,1.74-.06,3.47-.17,5.22-.13,3.89-.54,7.77-1,11.63s-1.27,7.67-1.93,11.49c-.15.65-.31,1.3-.47,1.93-.75,3.13-1.58,6.25-2.53,9.32-.11-3.24,0-6.43.14-9.63v-.39c0-.52,0-1.06,0-1.58l.1-5.74.11-2.87v-2.85c0-1.92,0-3.82.09-5.73s0-3.81,0-5.7c0-1.6,0-3.2,0-4.78-.05-2.21-.1-4.42-.13-6.61-.26-7.57-.67-15.14-1.37-22.72s-1.62-15.13-3.06-22.74c3.73,6.86,5.88,14.46,7.53,22.08a138.32,138.32,0,0,1,2.65,23.22C306.63,120.22,306.66,122.37,306.63,124.52Z"/>
              <path class="cls-7" d="M303.28,140.13c-5-.35-7.17,1.92-6.9,27.16a3.53,3.53,0,0,0,3.07,3.46l1.8.23a3,3,0,0,0,3.31-2.25C306.43,161.27,311,140.33,303.28,140.13Z"/>
              <path class="cls-7" d="M303.28,140.13c-5-.35-7.17,1.92-6.9,27.16a3.53,3.53,0,0,0,3.07,3.46l1.8.23a3,3,0,0,0,3.31-2.25C306.43,161.27,311,140.33,303.28,140.13Z"/>
              <path class="cls-13" d="M306.63,124.52c0,1.74-.06,3.47-.17,5.22-.13,3.89-.54,7.77-1,11.63s-1.27,7.67-1.93,11.49c-.15.65-.31,1.3-.47,1.93a2.19,2.19,0,0,1-.36,0l-1.8-.24-.23,0v-.39l.32-29.25a4.67,4.67,0,0,1,3.73-.94A3.24,3.24,0,0,1,306.63,124.52Z"/>
              <path class="cls-7" d="M159.89,199.81c-2.17,10.34-3.61,29.09-2.41,37.5.78,5.42-2.12,5.65-4.27,5.13a1.56,1.56,0,0,0-1.88,1.69l.23,2.22a3.74,3.74,0,0,1-3.79,3.9l-19.36-.17a1.37,1.37,0,0,1-1.12-2.13c1.85-2.85,6.22-4.47,9.89-5.33a10.66,10.66,0,0,0,7.78-7.73c2.36-9.22,5.68-25.6,2.18-34.6-5-13-2.64-20.67-2.64-20.67,3.36-24.28-5.63-32.23-11.54-41.11a83,83,0,0,1-7.73-14.11c-12.18-29.48,14.94-34,14.94-34a13.33,13.33,0,0,1,11,5.13c7.3,9,7.53,27.91,7.07,43-.11,3.73-.27,7.22-.37,10.27a73.11,73.11,0,0,0,0,9.11C159.4,170.49,162.05,189.47,159.89,199.81Z"/>
              <path class="cls-6" d="M52.87,22.89a4.56,4.56,0,0,1-.4,2,4.11,4.11,0,0,1-1.1,1.45c-1.92,1.75-5.34,2.06-8.52.58a9.75,9.75,0,0,1-3.56-2.81,7.29,7.29,0,0,1-1.1-2,6.49,6.49,0,0,0,1.46,3.95,9.64,9.64,0,0,0,3.56,2.81c3.18,1.49,6.6,1.17,8.52-.58a4.16,4.16,0,0,0,1.1-1.44A5,5,0,0,0,52.87,22.89Z"/>
              <path class="cls-7" d="M52.87,22.11a4.56,4.56,0,0,1-.4,2,4.11,4.11,0,0,1-1.1,1.45c-1.92,1.75-5.34,2.06-8.52.58a9.75,9.75,0,0,1-3.56-2.81,7.29,7.29,0,0,1-1.1-2,6.49,6.49,0,0,0,1.46,3.95,9.64,9.64,0,0,0,3.56,2.81c3.18,1.48,6.6,1.17,8.52-.58a4.11,4.11,0,0,0,1.1-1.45A5,5,0,0,0,52.87,22.11Z"/>
              <path class="cls-14" d="M45.09,22.61A1.38,1.38,0,1,1,43.73,21,1.49,1.49,0,0,1,45.09,22.61Z"/>
              <path class="cls-7" d="M52.84,26.05a4.05,4.05,0,0,1-1.12,1.46c-2.36-.47-4.25-4-7.74-6.13-.26-.15-.53-.31-.81-.45-5-2.63-3.75,3.4-3.52,4.34a5.72,5.72,0,0,1-1-5.9c1.37-2.93,5.59-3.85,9.47-2.1l.15.07C52.17,19.2,54.23,23.09,52.84,26.05Z"/>
              <path class="cls-9" d="M60.05,38.6C58.73,41.84,55.56,48.35,50,52a6.49,6.49,0,0,0-1.11-1.35,46.86,46.86,0,0,0-16.16-9.6.17.17,0,0,0,0-.08c.37.2,17.26,7.69,26.73-2.73A.35.35,0,0,1,60.05,38.6Z"/>
              <path class="cls-9" d="M26.55,21c.11.33-1.21,1.05-2.95,1.62s-3.24.75-3.35.41,1.22-1.05,3-1.62S26.45,20.61,26.55,21Z"/>
              <path class="cls-15" d="M21.56,26c-6.56,1-8.94-.85-9.8-2.38.92-1,2.91-1.86,6.7-2.09-.95.84,1.85,2.64,3.25,3.21A.66.66,0,0,1,21.56,26Z"/>
              <path class="cls-15" d="M48.08,17.27A8.57,8.57,0,0,0,44,21.38c-.26-.15-.53-.31-.81-.45-5-2.63-3.75,3.4-3.52,4.34a5.72,5.72,0,0,1-1-5.9C40,16.44,44.2,15.52,48.08,17.27Z"/>
              <path class="cls-16" d="M124.48,124.33A80.37,80.37,0,0,1,73.27,99.16c8.21-2.44,19.91-6.63,30.31-13,8.65,2.54,17.64,1.53,23.44-4.12A76.54,76.54,0,0,0,124.48,124.33Z"/>
              <path class="cls-16" d="M278.39,77.09l-8.65,25.25-4.94,12.89a9.34,9.34,0,0,1-2.75.56c-3.25-.36-12.26,28.85-52.29,29.21a199.45,199.45,0,0,1-46.6-5.18c-1.67-.39-3.3-.79-4.89-1.22l-1.43-.39c1.08-.83-7.78-5.92-2.07-5.11,80,11.36,110-50.48,110-50.48Z"/>
              <path class="cls-7" d="M286.21,63.51S245.67,54.16,256,118.68c6.49,40.38,25.84,46.15,23,68.15s-11.36,48.92-21.1,52.52c-8.11,3-11.09,5.35-11.65,8.55a1.76,1.76,0,0,0,1.8,2l20.49-.25a2.17,2.17,0,0,0,2.14-2.1,20,20,0,0,1,1.16-5.8c.6-1.69,8.61.48,7.7-5.53-2.29-15,3.17-24.71,6.13-32.63,6.31-16.95,13.52-15.69,5.59-27.95s-2.53-48.68,3.6-64.91S310,74,286.21,63.51Z"/>
              <path class="cls-17" d="M286.6,63.68a4.39,4.39,0,0,0-.87-.27,27.87,27.87,0,0,0-4.5-.37c.53-.5,1.06-1,1.57-1.49C267.72,53.42,248,53.37,238.61,46.2c-3.73-2.84-6.22-6.27-8.87-9.46a3.53,3.53,0,0,0-6.21,1.92C223,43.56,220,47.68,212,49c-14.83,2.42-31.11.33-31.11.33a2.41,2.41,0,0,0-.66.27c-.79.73-2.65.89-9.74.93h-.23a35.93,35.93,0,0,0-5.07.57,3.54,3.54,0,0,0-2.94,3.19,211,211,0,0,1-4.67,30.44,9.29,9.29,0,0,1-12.14,6.47,15.62,15.62,0,0,0-4.94-.74,3.92,3.92,0,0,0-.76.08c-3.26.69-25.86,6.5-14.55,33.89A83,83,0,0,0,133,138.51c5.89,8.85,14.84,16.78,11.57,40.85a3.1,3.1,0,0,1-.08.42c-.31,1.17-1.94,8.62,2.69,20.51,3.5,9,.18,25.38-2.18,34.6a10.66,10.66,0,0,1-7.78,7.73c-3.67.86-8,2.48-9.89,5.33a1.37,1.37,0,0,0,1.12,2.13l19.36.17a3.74,3.74,0,0,0,3.79-3.9l-.23-2.22a1.56,1.56,0,0,1,1.88-1.69c2.15.52,5,.29,4.27-5.13-1.2-8.41.24-27.16,2.41-37.5S159.4,170.49,158,158a73.11,73.11,0,0,1,0-9.11c.08-2.68.22-5.71.33-9a4.52,4.52,0,0,1,.48-1.54c.29-.68-.14-2.64-.31-4.17a3.39,3.39,0,0,1,0-.45c0-.37,0-.73,0-1.1s.23-.47.52-.4l-.51-.56c0-4.67-.08-9.49-.48-14.12a20.39,20.39,0,0,1,4-14,9,9,0,0,0,2.17-4.87c.24-14.29,5.76-18.9,11.18-22.11,16.95-10,41.66-9.41,66.11-.24a26.11,26.11,0,0,0,11.42,1.57,3.53,3.53,0,0,1,3.7,4.49c-2.44,8.22-3.1,19.84-.46,36.25,6.49,40.38,25.84,46.15,23,68.15s-11.36,48.92-21.1,52.52l-.29.11c-5.58,2.09-4,10.38,2,10.31l9-.11a2.17,2.17,0,0,0,2.14-2.1,20,20,0,0,1,1.16-5.8c.6-1.69,8.61.48,7.7-5.53-2.29-15,3.17-24.71,6.13-32.63,6.31-16.95,13.52-15.69,5.59-27.95s-2.53-48.68,3.6-64.91S309.91,74.19,286.6,63.68Z"/>
              <path class="cls-7" d="M304,131.3c-5-.35-7.17,1.92-6.9,27.15a3.54,3.54,0,0,0,3.07,3.47l1.8.23a3,3,0,0,0,3.31-2.26C307.15,152.44,311.7,131.5,304,131.3Z"/>
              <path class="cls-17" d="M306.33,132.27c.05-.84.1-1.69.13-2.53.11-1.75.16-3.48.17-5.22,0-2.15,0-4.3,0-6.45A138.32,138.32,0,0,0,304,94.85c-1.65-7.62-3.8-15.22-7.53-22.08,1.44,7.61,2.35,15.17,3.06,22.74s1.11,15.15,1.37,22.72c0,2.19.08,4.4.13,6.61,0,1.58,0,3.18,0,4.78,0,.7,0,1.39,0,2.09-2.89,1.46-4.12,7.25-3.91,26.74a3.54,3.54,0,0,0,3.07,3.47l.32,0c0,.71,0,1.43,0,2.15.21-.69.4-1.38.6-2.07l.85.11a3,3,0,0,0,3.31-2.26C306.91,153.37,310.61,136.5,306.33,132.27Z"/>
              <path class="cls-6" d="M305.28,159.89a3,3,0,0,1-3.31,2.26l-1.8-.23a3.54,3.54,0,0,1-3.07-3.47c-.05-4.49,0-8.24.09-11.39-.65,4.06-.92,10.39-.81,20.23a3.53,3.53,0,0,0,3.07,3.46l1.8.23a3,3,0,0,0,3.31-2.25c1.1-4.4,3.13-13.48,3-20.24C306.93,153,305.94,157.27,305.28,159.89Z"/>
            </g>
            <path class="cls-18" d="M10.11,33.37c.24,3.05,3.85,4.53,17.4,7.15a34.17,34.17,0,0,1,4.93,1.32,46.39,46.39,0,0,1,15.87,9.43,5.22,5.22,0,0,1,1,1.18A6,6,0,0,1,50,54.24c.26,1.17.55,2.33.84,3.48l.24.91.12.46c.18.67.36,1.34.55,2l.42,1.41,0,.15c.18.57.35,1.14.53,1.7s.34,1.07.52,1.61l.52,1.53c.19.54.38,1.08.58,1.61s.31.84.47,1.25l.2.53q.24.63.48,1.23l.42,1,.14.33c.4,1,.82,1.92,1.24,2.86l.19.42.39.85c.18.38.36.76.55,1.13l.26.53.51,1c.24.47.48.92.72,1.37s.44.83.67,1.24l.72,1.28L62,85.4l.06.1c.21.37.43.73.65,1.09l.82,1.31.18.28.47.73,1.23,1.81.34.5c.5.7,1,1.39,1.51,2.07l.48.62c.38.5.77,1,1.16,1.48l.53.65c.38.47.77.94,1.16,1.39l.5.58,1.28,1.43.25.28.15.16c.53.57,1.07,1.13,1.61,1.67l.15.16c1.19,1.2,2.43,2.37,3.69,3.5l.3.25c.51.45,1,.89,1.54,1.32l.4.34q.75.61,1.5,1.2l.36.28c.58.45,1.16.89,1.75,1.31l.09.08c1.23.89,2.52,1.77,3.83,2.61l.2.13c.58.37,1.12.71,1.67,1l.34.2,1.58.92.29.16c.58.33,1.15.64,1.72.94l.16.15h.12c1.18.62,2.39,1.22,3.6,1.78l.09,0,1.71.77.24.1,1.6.67.19.07c2.26.92,4.59,1.74,6.91,2.45a76,76,0,0,0,16.21,3.16A85.84,85.84,0,0,0,132.27,139l.57.84.58.83c.49.69.94,1.32,1.4,2l1,1.4.61.85.6.88.6.89.59.9.58.94.56,1,.55,1,.53,1,.5,1.06.49,1.1.45,1.14c.05.13.39,1.06.43,1.19s.35,1.1.4,1.24l.12.43.24.87c0,.14.16.66.16.66l0,.18.12.5c0,.16.18.9.18.9,0,.17.07.34.1.52l.09.48.16,1,.06.53.06.44c0,.19.05.38.07.57s.08.8.08.8l0,.27c0,.18,0,.36,0,.55s0,.37,0,.57l0,.47c0,.21,0,.42,0,.64s0,.4,0,.6v.54c0,.2,0,.41,0,.63s0,.41,0,.61v.56c0,.23,0,.45,0,.67s0,.46,0,.69l0,.49,0,.75c0,.22,0,.44-.05.67l0,.59c0,.25,0,.5-.05.76s0,.5-.07.75c0,0-.11,1.08-.14,1.35s-.05.48-.08.72c0,0-.14,1.15-.18,1.4,0,.08,0,.18,0,.27l-.1.44.78.3-.81-.17-.1.51,0,.28c0,.18-.06.39-.09.6l0,.18c0,.28-.06.59-.09.92l0,.34c0,.24,0,.48,0,.74v.46c0,.25,0,.5,0,.76s0,.56,0,.56c0,.26,0,.53,0,.81s0,.42,0,.63,0,.57.07.87,0,.46.06.7.08.62.12.95.07.5.11.75.11.68.17,1,.09.53.15.81.15.73.24,1.11l0,.16c0,.22.1.45.16.68.09.4.2.8.31,1.2l.09.31.15.57c.14.48.3,1,.46,1.46l.23.74c.26.75.54,1.52.85,2.31,3.43,8.82.08,25.15-2.21,34.1a9.76,9.76,0,0,1-7.17,7.13c-3.61.85-8.35,2.53-10.4,5.7a2.2,2.2,0,0,0-.09,2.23,2.15,2.15,0,0,0,1.9,1.16l19.42.18a4.58,4.58,0,0,0,4.57-4.76l-.23-2.27a.8.8,0,0,1,.19-.6.69.69,0,0,1,.49-.22.41.41,0,0,1,.16,0,7.16,7.16,0,0,0,1.64.21,3.56,3.56,0,0,0,2.79-1.15c.92-1.07,1.21-2.74.87-5.12-1.21-8.48.32-27.29,2.4-37.21,2-9.4,0-25.92-1.44-38-.17-1.43-.33-2.8-.48-4.1a55.9,55.9,0,0,1-.11-7.08A227.74,227.74,0,0,0,171.42,177s2.84,6.25,5,18a24.59,24.59,0,0,0,5,11.49c2.13,3,4.33,6.07,5.8,13.54l.34,1.69c1.82,9.2,3.13,15.84.64,19.18-1.11,1.48-3,2.33-5.9,2.59a6.31,6.31,0,0,0-6.14,5.69,1.57,1.57,0,0,0,.27,1.35,1.75,1.75,0,0,0,1.39.52l.61,0,.57,0,20.26-.07a3.35,3.35,0,0,0,3.25-4.08l-1-4.32a.52.52,0,0,1,.1-.45.51.51,0,0,1,.36-.18c.44,0,.84.06,1.23.06,1.78,0,3-.46,3.58-1.37a3.37,3.37,0,0,0-.05-3.27c-.42-1-1.06-2.22-1.86-3.8-3.45-6.72-9.21-18-9.79-31.24-.74-17-3.29-22.59-9-33.52-1.74-3.34-.94-9.4-.05-14.32.45-2.49,1-5.08,1.59-7.82l.39-1.84c2.3.23,4.61.43,6.9.58H195l3.34.2.56,0q1.46.07,2.94.12l.73,0c1,0,1.93.05,2.9.06h4.29c28.14-.26,41.26-15,46.42-21.66l0,.13c3.55,17.34,9.55,27.83,14.38,36.26a83.2,83.2,0,0,1,5.87,11.52A30.63,30.63,0,0,1,277.7,176c.13.54.24,1.08.34,1.64a28,28,0,0,1,.42,5.21c0,.62,0,1.25-.08,1.88s-.12,1.31-.2,2c-3,22.86-11.51,48.5-20.57,51.86l-.29.11c-8,3-11.26,5.47-11.89,9.06a2.54,2.54,0,0,0,.56,2,2.66,2.66,0,0,0,2,.94l20.52-.24A3,3,0,0,0,271,249.2a3,3,0,0,0,.54-1.61,17.23,17.23,0,0,1,.27-2.42,20.64,20.64,0,0,1,.82-3.08,7.36,7.36,0,0,1,1.87-.37c2.2-.26,5.86-.71,6-4.44a6.11,6.11,0,0,0-.08-1.18c-1.9-12.46,1.7-21.31,4.6-28.43.53-1.32,1-2.57,1.49-3.79a62.73,62.73,0,0,1,6.06-12.08c3.41-5.54,5-8.07-.55-16.6-2.22-3.42-3.51-9.25-3.78-16.92a38.25,38.25,0,0,1,7.36,6.5s0,1.8,0,2.51a4.36,4.36,0,0,0,3,4.11,4,4,0,0,0,.78.17l1.07.14a39.79,39.79,0,0,1,3,6.84c10.85,32.94,2.8,51.28.07,56.12-2.15,3.82-4.73,6.31-7.07,6.85-5.66,1.32-7.89,3.84-8.76,5.71a2.46,2.46,0,0,0,.18,2.35,2.49,2.49,0,0,0,2.1,1.15h18.68a2.47,2.47,0,0,0,2.43-2.91c-.5-2.54-.53-5-.23-5.57h.36c.42,0,.92,0,1.46.07s1.4.1,2.13.1c1.26,0,3.05-.14,4-1.33a3.58,3.58,0,0,0,.5-3.14c-1.28-6.05-4.07-24.56-1.67-37.29a32,32,0,0,1,5-11.92c2.31-3.7,4-6.38-.23-10.12-3.66-3.26-9.8-14.28-14-28.31l0-.56c0-.4,0-.8,0-1.19l.14-1,.15-1.14c0-.3.11-1,.11-1l0-.21c0-.34.07-.68.1-1,0,0,.08-.89.09-1.12l.07-1.11v-.48c0-.2,0-.41,0-.61v-1.52c0-.21,0-.41,0-.61l0-.41c0-.25,0-.49-.06-.73l0-.3c0-.3-.07-.58-.11-.85l-.06-.35c0-.19-.06-.37-.1-.54l-.08-.37-.12-.47c0-.13-.08-.24-.11-.36l-.15-.44-.14-.33c-.06-.14-.12-.28-.19-.41a2.79,2.79,0,0,0-.15-.3c-.08-.14-.16-.26-.24-.39s-.12-.19-.17-.25a3.2,3.2,0,0,0-.22-.27c0-.74.08-1.48.1-2.21.11-1.53.16-3.2.18-5.25s0-4.34,0-6.46a139.08,139.08,0,0,0-2.67-23.38c-.7-3.25-1.42-6.12-2.2-8.77l0-.87v-.81l0-.81-.05-.81-.08-.8-.1-.8-.13-.79-.16-.79-.08-.32-.83.08.81-.19-.09-.35-.21-.78-.25-.77c0-.11-.23-.64-.28-.76L301,76l-.81.2.77-.32-.14-.32-.34-.75-.38-.73-.41-.73-.18-.3-.78.32.71-.44-.2-.3-.28-.43-.2-.28-.25-.34-.27-.36-.55-.68-.29-.33-.31-.35-.63-.66-.33-.32-.34-.33-.32-.29-.39-.35-.76-.62-.79-.61-.41-.3-.42-.29-.88-.59-.45-.28-.47-.29-.54-.31-.43-.24-.49-.27-.51-.27-.52-.26-.54-.26-.93-.44-.07,0-.37-.17-.09,0c-1-.66-2.09-1.29-3.19-1.88-7.47-4-16.19-6.13-23.89-8-8-1.92-15.51-3.74-20.19-7.3-.43-.33-.84-.67-1.24-1l-.24-.22-.16-.14-.76-.69-.44-.44-.65-.66c-.15-.16-.3-.31-.44-.47s-.41-.44-.6-.66l-.43-.48-.58-.68-.41-.49L232,38.21l-1.6-2,0-.06-.06,0a29.67,29.67,0,0,0-7.41-6.82c-3.81-2.32-8.49-3.45-14.31-3.45l-1.75,0c-9.29.33-12.85,6.31-16.28,12.09-2.62,4.4-5.09,8.56-9.95,10.54a.58.58,0,0,1-.17.06,1.71,1.71,0,0,0-.58.25,16.33,16.33,0,0,1-3,.69c-1.1.07-2.7.11-5.28.13h-1.73c-15.63.49-25.62,11.86-35.28,22.86-2.73,3.12-5.31,6.06-8,8.77l-.08.09-.08.06c-3.49,3.41-8.36,5.21-14.06,5.21a30.5,30.5,0,0,1-8.57-1.28C92.08,82,82.89,72.73,80.4,61.88c-.66-2.84-1.26-5.49-1.82-8C74.32,35.11,72.31,26.23,67.35,21c.07-.12.13-.24.19-.36a11.13,11.13,0,0,0,.81-6.16C67.88,10.55,66.07,10,65,10c-1.8,0-3.76,1.78-5.14,4.64l0,.09c-.1.22-.19.42-.27.62l-.08.18c-.07.2-.14.37-.21.56v0a16.15,16.15,0,0,0-5.17-.86,28.55,28.55,0,0,0-6.46,1l-.06,0L46.93,16l-.44-.11-.37-.09-.33-.06-.2,0-.28,0-.27,0-.18,0-.35,0h-.93l-.61.05h-.1c-.24,0-.44.07-.64.12a6.77,6.77,0,0,0-3,1.46,25.5,25.5,0,0,1-3.14-.32,23.78,23.78,0,0,0-4-.33,25.5,25.5,0,0,0-13.88,4.18c-3.53.23-5.92,1-7.12,2.35A3.58,3.58,0,0,0,11,27.71s.06.11.09.18l.06.15h0a1.93,1.93,0,0,1,0,1.25l-.06.17A6.88,6.88,0,0,0,10.11,33.37Zm1.65-3.57c0-.07.05-.15.08-.23a2.68,2.68,0,0,0,0-2v0a2.19,2.19,0,0,0-.16-.3,2.82,2.82,0,0,1,.12-3.61c.92-1,2.91-1.86,6.7-2.09h.08A24.52,24.52,0,0,1,36,17.71a23.56,23.56,0,0,0,3.59.34,5.76,5.76,0,0,1,2.81-1.47l0,0,.55-.09.11,0,.5,0,.2,0h.71l.4,0,.33,0,.35.06.39.07.3.07.45.11.26.09.49.16.1,0c3.9-.89,7.4-1.76,12.26.09l0-.08.15-.49.09-.24c.06-.18.13-.35.19-.51s0-.13.08-.19.16-.37.25-.55a.61.61,0,0,1,0-.12c2.21-4.6,6.17-6.3,6.88-.38a10.2,10.2,0,0,1-.74,5.71h0a6.66,6.66,0,0,1-.42.75l-.06.1c5.79,5.63,7.59,16.13,13.28,40.92,2.8,12.19,13.13,21,24,24.12,8.65,2.54,17.64,1.53,23.44-4.12l.17-.16c12.42-12.42,23.18-30.78,42.72-31.39h.39c.44,0,.89,0,1.34,0,2.41,0,4.14-.06,5.4-.14a16.79,16.79,0,0,0,3.23-.78,2.41,2.41,0,0,1,.66-.27c11.81-4.82,10.34-22,25.95-22.57,7.2-.26,12,1.09,15.6,3.3a29.28,29.28,0,0,1,7.26,6.7h0c.11.12.21.24.31.37s.43.53.65.8l.82,1c.13.17.27.33.4.49l.6.73.42.49.58.69.44.49c.2.23.4.45.61.67L235,43l.67.68c.15.15.29.3.45.44s.52.48.78.72l.41.37c.41.35.84.7,1.28,1,9.42,7.17,29.11,7.22,44.19,15.35,1.12.59,2.2,1.23,3.26,1.93l.15,0,.34.15.05,0,.35.16.53.26.53.25.51.26.5.26.48.26.48.28.47.27.45.27.44.28.44.29.42.28.41.29.4.29.39.29.38.3.37.3.36.3.35.31.33.31.34.31.31.31.32.33.29.31.29.33.28.32.28.33.26.33c.09.11.17.23.25.34l.25.33.23.34.23.34.22.35.21.34.2.35.19.35a3.9,3.9,0,0,1,.19.35l.17.35c.06.12.12.24.17.36s.11.24.16.36.1.24.15.36l.15.36c.05.12.09.25.14.37s.08.24.13.36l.12.38c0,.12.08.24.11.36s.08.25.11.38.07.24.1.36l.09.39.09.37c0,.12,0,.25.08.38s.05.25.07.37.05.26.07.39l.06.38c0,.13,0,.26.05.39s0,.25.05.38,0,.26,0,.39l0,.39,0,.39c0,.13,0,.26,0,.39s0,.26,0,.39,0,.26,0,.39,0,.27,0,.4V85c0,.14,0,.27,0,.41s0,.26,0,.39,0,.12,0,.18c.86,2.92,1.58,5.88,2.22,8.84a138.32,138.32,0,0,1,2.65,23.22c0,2.15.06,4.3,0,6.45,0,1.74-.06,3.47-.17,5.22,0,.84-.08,1.69-.13,2.53h0a1,1,0,0,1,.1.11,3.65,3.65,0,0,1,.31.36l.14.22.21.33c.05.09.09.18.13.27s.12.24.17.36l.12.3c.05.13.09.26.14.4s.07.22.1.33.08.29.11.44.06.23.08.35.07.34.1.51,0,.22,0,.33.08.53.1.81l0,.29.06.71c0,.13,0,.27,0,.4s0,.39,0,.59,0,.29,0,.44v.58c0,.16,0,.31,0,.47s0,.39,0,.59,0,.32,0,.47l0,.63,0,.46-.06.68,0,.42c0,.34-.06.67-.1,1l0,.32c0,.3-.07.59-.11.89,0,.15,0,.3-.05.45l-.09.68c0,.16-.05.32-.07.48s-.05.37-.08.55c0,.4,0,.8,0,1.22v.2c0,.16,0,.32,0,.49,4.38,14.69,10.67,25.6,14.28,28.82,6.49,5.77-2.53,7.93-5.05,21.27s.61,32.57,1.67,37.62-5.85,3-7.93,3.33c-1.17.22-.69,4.53-.3,6.52a1.64,1.64,0,0,1-1.62,1.93H289.94a1.66,1.66,0,0,1-1.53-2.32c.81-1.75,2.87-4,8.2-5.25,8.22-1.89,20.32-25.43,7.6-64a41,41,0,0,0-3.27-7.35l-1.49-.19a3.38,3.38,0,0,1-.63-.14,3.54,3.54,0,0,1-2.44-3.32h0c0-.71,0-1.4,0-2.07v-.74a39.57,39.57,0,0,0-9.06-7.74c.13,7.91,1.28,14.79,4,18.92,7.93,12.26.72,11-5.59,27.95-3,7.92-8.42,17.66-6.13,32.63a6.36,6.36,0,0,1,.07,1c-.13,4.72-7.2,2.92-7.77,4.5A21.62,21.62,0,0,0,271,245a18.46,18.46,0,0,0-.29,2.54,2.08,2.08,0,0,1-.39,1.17,2.16,2.16,0,0,1-1.75.93l-20.49.25a1.76,1.76,0,0,1-1.8-2c.55-3.16,3.46-5.47,11.31-8.42l.05,0,.29-.11c9.74-3.6,18.21-30.53,21.1-52.52.09-.69.15-1.36.2-2s.08-1.3.08-1.93a28.16,28.16,0,0,0-.43-5.37c-.1-.57-.21-1.13-.35-1.68a33.83,33.83,0,0,0-1.25-4.05c-4.44-11.66-15-22-20.22-47.65-.13-.63-.25-1.28-.38-1.94-6.36,8.52-19.21,22.56-46.89,22.81h-4.27l-2.88-.06-.74,0-2.92-.11-.56,0c-1.11-.06-2.22-.12-3.33-.2H195q-3.87-.27-7.62-.66c-.75,3.58-1.53,7.11-2.13,10.42-1.13,6.2-1.57,11.58.13,14.84,5.77,11.06,8.18,16.59,8.9,33.17s9.55,30.29,11.71,35.34c1.47,3.42-1.67,3.64-3.85,3.43a1.32,1.32,0,0,0-1.41,1.63l1,4.32a2.54,2.54,0,0,1-2.46,3.07l-20.26.07c-1.14,0-2.22.33-2-.81a5.56,5.56,0,0,1,5.41-5c10.73-1,8.54-9.79,5.65-24.44s-8.65-13-10.82-25-5-18.26-5-18.26A215.54,215.54,0,0,1,158.07,147a2.77,2.77,0,0,0-.1-.26c0,.73-.05,1.45-.07,2.14a73.11,73.11,0,0,0,0,9.11c1.45,12.51,4.1,31.49,1.94,41.83s-3.61,29.09-2.41,37.5c.78,5.42-2.12,5.65-4.27,5.13a1.56,1.56,0,0,0-1.88,1.69l.23,2.22a3.74,3.74,0,0,1-3.79,3.9l-19.36-.17a1.37,1.37,0,0,1-1.12-2.13c1.85-2.85,6.22-4.47,9.89-5.33a10.66,10.66,0,0,0,7.78-7.73c2.36-9.22,5.68-25.6,2.18-34.61-.31-.78-.58-1.53-.83-2.27-.09-.25-.16-.49-.24-.74-.15-.48-.31-1-.44-1.43-.09-.28-.15-.55-.23-.82s-.22-.82-.32-1.22-.13-.55-.19-.83-.16-.74-.23-1.09-.1-.53-.15-.8-.12-.67-.17-1-.07-.5-.1-.74-.08-.62-.11-.93,0-.46-.07-.68-.05-.58-.06-.85,0-.42,0-.62l0-.79v-.54c0-.26,0-.5,0-.74s0-.31,0-.45,0-.48,0-.71,0-.23,0-.34c0-.32.06-.61.09-.89a.88.88,0,0,0,0-.16c0-.21.06-.41.08-.58s0-.18.05-.27,0-.23.06-.33,0-.15,0-.23,0-.15,0-.21,0-.12,0-.17a.19.19,0,0,0,0-.07c0-.12.05-.25.07-.37,0-.36.09-.71.13-1.06s.1-.72.14-1.08.07-.72.1-1.09.08-.7.1-1,0-.69.08-1,.05-.68.06-1,0-.66,0-1,0-.64,0-1,0-.63,0-1,0-.62,0-.92,0-.6,0-.9,0-.6,0-.89,0-.58-.05-.87,0-.57,0-.84-.05-.56-.07-.84,0-.54-.08-.81-.06-.52-.09-.79-.07-.52-.11-.78-.08-.5-.12-.75l-.12-.75-.15-.73c0-.24-.09-.48-.14-.71s-.11-.47-.17-.7-.1-.46-.16-.68-.12-.45-.19-.67l-.18-.66c-.06-.21-.13-.42-.2-.62s-.13-.44-.21-.65l-.21-.6c-.08-.21-.15-.41-.22-.61l-.24-.59c-.07-.2-.15-.39-.23-.58s-.16-.38-.25-.56l-.24-.57-.26-.53c-.08-.18-.17-.37-.26-.55l-.26-.5-.28-.55c-.09-.15-.18-.31-.26-.47l-.3-.53-.27-.46-.3-.52-.28-.44-.31-.51-.27-.41-.33-.51c-.08-.13-.17-.25-.25-.37s-.23-.36-.35-.53l-.25-.35-.36-.53-.25-.35-.36-.51-.18-.25c-.74-1-1.47-2-2.18-3l0-.06c-.19-.26-.37-.53-.55-.79l0,0c-.19-.28-.38-.55-.56-.83a83,83,0,0,1-7.73-14.11l-.32,0a75.5,75.5,0,0,1-16.17-3.13h0c-2.17-.67-4.46-1.46-6.84-2.42l-.19-.08-1.58-.66-.24-.1-1.65-.74-.13-.06c-1.23-.57-2.48-1.19-3.74-1.85h0c-.6-.31-1.2-.64-1.8-1l-.29-.16-1.56-.91-.34-.2c-.54-.33-1.08-.66-1.62-1l-.23-.14c-1.26-.81-2.53-1.68-3.79-2.6l-.1-.06c-.57-.42-1.15-.86-1.72-1.3l-.36-.28L81,106.48l-.4-.33c-.51-.43-1-.86-1.53-1.31l-.29-.25q-1.84-1.65-3.65-3.46L75,101c-.53-.54-1-1.09-1.58-1.65l-.15-.16c-.08-.09-.16-.19-.25-.28q-.63-.69-1.26-1.41l-.5-.57-1.15-1.38-.53-.64c-.38-.48-.76-1-1.14-1.47L68,92.79c-.5-.67-1-1.35-1.49-2.05-.12-.16-.23-.33-.34-.5-.41-.58-.82-1.18-1.22-1.78l-.64-1c-.27-.43-.55-.86-.82-1.3s-.46-.78-.7-1.17-.48-.81-.71-1.23l-.72-1.27-.66-1.22L60,79.9c-.21-.41-.41-.83-.61-1.24s-.47-1-.7-1.43-.38-.84-.57-1.26c-.43-.93-.84-1.88-1.24-2.84-.19-.44-.37-.88-.55-1.33s-.41-1-.61-1.57l-.54-1.42c-.19-.52-.38-1.06-.56-1.59s-.36-1-.53-1.53-.35-1.06-.52-1.59L53,62.42c-.16-.52-.31-1-.46-1.56s-.37-1.32-.55-2l-.36-1.37c-.29-1.14-.57-2.29-.84-3.47A7.21,7.21,0,0,0,50,52a6.49,6.49,0,0,0-1.11-1.35,46.86,46.86,0,0,0-16.16-9.6,34.47,34.47,0,0,0-5-1.35c-12.88-2.49-16.57-3.93-16.74-6.44A6.1,6.1,0,0,1,11.76,29.8Z"/>
          </g>
        </g>
      </g>
    </g>
  </g>
</svg>
