<svg id="Layer_1" data-name="Layer 1" xmlns="http://www.w3.org/2000/svg" width="237.28" height="83.49" viewBox="0 0 237.28 83.49">
  <defs>
    <style>
      .cls-1 {
        fill: #f5ff6c;
      }
    </style>
  </defs>
  <g>
    <path class="cls-1" d="M59,29.36l.62-.84h57.23l3,6.07-.62.84H94V47.66c3.59-.18,6-.89,7.4-2a4.52,4.52,0,0,1-.89-2.7c0-2.48,2.93-4.83,5.89-4.83,1.16,0,2.22,1.15,3.55,3.28,1.19,1.9,2.21,3.5,2.21,4.65a6.44,6.44,0,0,1-2.21,4.43c3.81,4.56,5.76,8.11,5.76,12.36,0,5.31-4.92,9.26-10.41,9.26a11.16,11.16,0,0,1-3.1-.4l-4.74-5.89.22-.49c7.22,0,11.34-3.06,11.34-7.31a7.65,7.65,0,0,0-2.7-5.63c-2.93,1.64-7,2.4-12.23,2.48l.13,19.89-.62.45-7.13-2.09.4-13.9-.27,0c-4.91,3.59-9.43,6.65-13.73,9.26l-6.42-5V63c7-4.47,13.64-8.77,19.45-13.06-2.57-2.35-5.1-3.41-7.58-3.41-2.26,0-5.58,1.28-9.74,3.89h-.36l-5.09-6.73c4.6-3,8.19-4.52,11.82-4.52,4,0,7.09,1.64,11.83,6.07l.22-.13,0-9.66H62Z"/>
    <path class="cls-1" d="M133.54,29.36l.62-.84h41.15l3,6.07-.62.84H170l.18,39.29-.62.45-7.05-2,.18-11.87A11.6,11.6,0,0,1,156.61,63a15,15,0,0,1-8.63-3.1c-5.32-3.81-7.45-7.13-7.45-16.61,0-2.84.05-5.5.14-7.89h-4.12Zm14.88,9-.18,0c0,1.59,0,3.46,0,5.32,0,8.06.26,12.62,5,12.62a11.28,11.28,0,0,0,6.69-2.61ZM151,35.57l11.12,15,.22,0a9.72,9.72,0,0,0,.44-3.19v-12H151.12Z"/>
    <path class="cls-1" d="M114.92,29.36l.62-.84h8.37c-2.17-2.61-3.36-5-3.36-7.66,0-6,5-12.54,15.32-12.54,8.95,0,18.7,4.74,29.68,15.6l-1.86,2.92h-.57c-7.22-6.73-14.67-11.08-22.59-11.08-7.76,0-12.63,4.66-12.63,9.93a6.31,6.31,0,0,0,.62,2.83h6.78l3,6.07-.62.84H130l.18,39.29-.62.45-7.13-2.09.18-37.65h-4.66Z"/>
  </g>
</svg>
