<svg id="Layer_1" data-name="Layer 1" xmlns="http://www.w3.org/2000/svg" width="237.28" height="86.37" viewBox="0 0 237.28 86.37">
  <defs>
    <style>
      .cls-1 {
        fill: #f5ff6c;
      }
    </style>
  </defs>
  <g>
    <path class="cls-1" d="M44,25.52l.18-.62a17.56,17.56,0,0,1,10.19-3.72c5.18,0,8.28,2.08,11.51,6.6a13.06,13.06,0,0,1,2.88,8,9.81,9.81,0,0,1-2.3,5.93,14.82,14.82,0,0,1,2,2.13c.75.8,2.61.93,4.47.93A14.19,14.19,0,0,0,80,42.71V28.8H73.12l-3-6.07.62-.84H92.66l3,6.07-.62.84H87.34l.18,39.29-.62.44-7.09-2L80,51.74a8.51,8.51,0,0,1-1.51.09A13.08,13.08,0,0,1,71.79,50l-.35.14a14.73,14.73,0,0,1,.35,3.23c0,6.07-4.91,10.72-11.69,10.72-9,0-16.12-7.66-22.46-20.24l.09-.4L41,41.2c5.19,9.35,8.95,14.71,16.35,14.71,3.81,0,8.37-2.84,8.37-7.18,0-2.3-1.33-3.76-4.38-3.76a23.87,23.87,0,0,0-8.24,2.08l-4.48-7,.27-.84a63,63,0,0,1,9.52-2.57c2.93-1.15,4.48-3,4.48-5.05,0-1.55-.67-3.05-4-3.05-2.84,0-6.25,1.33-10.28,3.76Z"/>
    <path class="cls-1" d="M82.47,5.46l6.07,6.06-6.07,6.07L76.4,11.52Z"/>
    <path class="cls-1" d="M91.24,22.73l.62-.84H136.2l3,6.07-.62.84h-7.7l.17,39.29-.62.44-7.13-2.08.18-37.65H110.55c.4,4.56.54,8.42.54,11.65,0,7-.76,11-2.35,13.78a4.74,4.74,0,0,1-4,2.43c-1.42,0-3.32-1.24-5.58-3.67-2-2.18-3.37-4.3-3.37-6.12a3.92,3.92,0,0,1,.93-2.61c1-1.15,3.28-1.68,6.91-2.13a43.21,43.21,0,0,0,.31-6,57.9,57.9,0,0,0-.44-7.35H94.25Z"/>
    <path class="cls-1" d="M135.76,80l0,.49a8.77,8.77,0,0,1-7.93,4.78c-5.31,0-11.73-5.8-11.73-11,0-4.74,4.25-8,9.39-8,6.64,0,13.06,4.7,23.74,15.5l-2.08,3h-.53c-7.4-8.07-13.47-12.63-17.81-12.63-4,0-6.78,2.57-6.78,5a2.43,2.43,0,0,0,2.57,2.43c2.08,0,4-1.28,5.76-4.29Z"/>
    <path class="cls-1" d="M134.78,22.73l.62-.84h42.26l3,6.07-.62.84h-11l.09,10.14c4.92,4.88,6.86,8.15,6.86,12.8C176,59.19,168.94,66,159.19,66,149.27,66,140,56.44,140,48.07c0-7.4,5.36-12.27,16.48-12.27H160c1.24,0,1.78-.27,1.78-1.69l-.05-5.31h-24Zm32.07,19.8h-3.58c-6.74,0-10.46,1-13.07,3.23a7.94,7.94,0,0,0-2.48,5.85c0,5.1,3.59,7.49,8,7.49,7.26,0,13.33-5.41,13.33-11.3A7.14,7.14,0,0,0,166.85,42.53Z"/>
    <path class="cls-1" d="M176.25,22.73l.62-.84H184c-.45-9-3.41-13.95-9.53-13.95-3.76,0-6.15,2.43-6.15,5.84a8.82,8.82,0,0,0,2.52,5.89l-.66,1-6.69-2.92a12.25,12.25,0,0,1-2.93-7.8c0-5.18,4.17-8.72,10.19-8.72,5.23,0,10.32,2.74,14.89,9a35.45,35.45,0,0,1,5.27,11.65h5.71l3,6.07-.62.84h-7.7l.17,39.29-.62.44-7.13-2.08.18-37.65h-4.65Z"/>
  </g>
</svg>
