<svg xmlns="http://www.w3.org/2000/svg" xmlns:xlink="http://www.w3.org/1999/xlink" width="1600" height="900" viewBox="0 0 1600 900">
  <defs>
    <style>
      .cls-1 {
        fill: none;
      }

      .cls-2 {
        isolation: isolate;
      }

      .cls-3 {
        clip-path: url(#clip-path);
      }

      .cls-4 {
        opacity: 0.9;
      }

      .cls-5 {
        fill: #42c1e6;
      }

      .cls-6 {
        fill: url(#linear-gradient);
      }

      .cls-7 {
        fill: url(#linear-gradient-2);
      }

      .cls-8 {
        fill: url(#linear-gradient-3);
      }

      .cls-9 {
        fill: url(#linear-gradient-4);
      }

      .cls-10 {
        fill: url(#linear-gradient-5);
      }

      .cls-11 {
        fill: url(#linear-gradient-6);
      }

      .cls-12 {
        fill: url(#linear-gradient-7);
      }

      .cls-13 {
        fill: url(#linear-gradient-8);
      }

      .cls-14 {
        fill: url(#linear-gradient-9);
      }

      .cls-15 {
        fill: url(#linear-gradient-10);
      }

      .cls-16 {
        fill: url(#linear-gradient-11);
      }

      .cls-17 {
        fill: url(#linear-gradient-12);
      }

      .cls-18 {
        fill: url(#linear-gradient-13);
      }

      .cls-19 {
        fill: url(#linear-gradient-14);
      }

      .cls-20 {
        fill: url(#linear-gradient-15);
      }

      .cls-21 {
        fill: url(#linear-gradient-16);
      }

      .cls-22 {
        fill: url(#linear-gradient-17);
      }

      .cls-23 {
        fill: url(#linear-gradient-18);
      }

      .cls-24 {
        fill: url(#linear-gradient-19);
      }

      .cls-25 {
        fill: url(#linear-gradient-20);
      }

      .cls-26 {
        fill: url(#linear-gradient-21);
      }

      .cls-27 {
        fill: url(#linear-gradient-22);
      }

      .cls-28 {
        fill: url(#linear-gradient-23);
      }

      .cls-29 {
        fill: url(#linear-gradient-24);
      }

      .cls-30 {
        fill: url(#linear-gradient-25);
      }

      .cls-31 {
        fill: url(#linear-gradient-26);
      }

      .cls-32 {
        fill: url(#linear-gradient-27);
      }

      .cls-33 {
        fill: url(#linear-gradient-28);
      }

      .cls-34 {
        fill: url(#linear-gradient-29);
      }

      .cls-35 {
        fill: url(#linear-gradient-30);
      }

      .cls-36 {
        fill: url(#linear-gradient-31);
      }

      .cls-37 {
        fill: url(#linear-gradient-32);
      }

      .cls-38 {
        fill: url(#linear-gradient-33);
      }

      .cls-39 {
        fill: url(#linear-gradient-34);
      }

      .cls-40 {
        fill: url(#linear-gradient-35);
      }

      .cls-41 {
        fill: url(#linear-gradient-36);
      }

      .cls-42 {
        fill: url(#linear-gradient-37);
      }

      .cls-43 {
        fill: url(#linear-gradient-38);
      }

      .cls-44 {
        fill: url(#linear-gradient-39);
      }

      .cls-45 {
        fill: url(#linear-gradient-40);
      }

      .cls-46 {
        fill: url(#linear-gradient-41);
      }

      .cls-47 {
        fill: url(#linear-gradient-42);
      }

      .cls-48 {
        fill: url(#linear-gradient-43);
      }

      .cls-49 {
        fill: url(#linear-gradient-44);
      }

      .cls-50 {
        fill: url(#linear-gradient-45);
      }

      .cls-51 {
        fill: url(#linear-gradient-46);
      }

      .cls-52 {
        fill: url(#linear-gradient-47);
      }

      .cls-53 {
        fill: url(#linear-gradient-48);
      }

      .cls-54 {
        fill: url(#linear-gradient-49);
      }

      .cls-55 {
        fill: url(#linear-gradient-50);
      }

      .cls-56 {
        fill: url(#linear-gradient-51);
      }

      .cls-57 {
        fill: url(#linear-gradient-52);
      }

      .cls-58 {
        fill: url(#linear-gradient-53);
      }

      .cls-59 {
        fill: url(#linear-gradient-54);
      }

      .cls-60 {
        fill: url(#linear-gradient-55);
      }

      .cls-61 {
        fill: url(#linear-gradient-56);
      }

      .cls-62 {
        fill: url(#linear-gradient-57);
      }

      .cls-63 {
        fill: url(#linear-gradient-58);
      }

      .cls-64 {
        fill: url(#linear-gradient-59);
      }

      .cls-65 {
        fill: url(#linear-gradient-60);
      }

      .cls-66 {
        fill: url(#linear-gradient-61);
      }

      .cls-67 {
        fill: url(#linear-gradient-62);
      }

      .cls-68 {
        fill: url(#linear-gradient-63);
      }

      .cls-69 {
        fill: url(#linear-gradient-64);
      }

      .cls-70 {
        fill: url(#linear-gradient-65);
      }

      .cls-71 {
        fill: url(#linear-gradient-66);
      }

      .cls-72 {
        fill: url(#linear-gradient-67);
      }

      .cls-73 {
        fill: url(#linear-gradient-68);
      }

      .cls-74 {
        fill: url(#linear-gradient-69);
      }

      .cls-75 {
        fill: url(#linear-gradient-70);
      }

      .cls-76 {
        fill: url(#linear-gradient-71);
      }

      .cls-77 {
        fill: url(#linear-gradient-72);
      }

      .cls-78 {
        fill: url(#linear-gradient-73);
      }

      .cls-79 {
        fill: url(#linear-gradient-74);
      }

      .cls-80 {
        fill: url(#linear-gradient-75);
      }

      .cls-81 {
        fill: url(#linear-gradient-76);
      }

      .cls-82 {
        fill: url(#linear-gradient-77);
      }

      .cls-83 {
        fill: url(#linear-gradient-78);
      }

      .cls-84 {
        fill: url(#linear-gradient-79);
      }

      .cls-85 {
        fill: url(#linear-gradient-80);
      }

      .cls-86 {
        fill: url(#linear-gradient-81);
      }

      .cls-87 {
        fill: url(#linear-gradient-82);
      }

      .cls-88 {
        fill: url(#linear-gradient-83);
      }

      .cls-89 {
        fill: url(#linear-gradient-84);
      }

      .cls-90 {
        fill: url(#linear-gradient-85);
      }

      .cls-91 {
        fill: url(#linear-gradient-86);
      }

      .cls-92 {
        fill: url(#linear-gradient-87);
      }

      .cls-93 {
        fill: url(#linear-gradient-88);
      }

      .cls-94 {
        fill: url(#linear-gradient-89);
      }

      .cls-95 {
        fill: url(#linear-gradient-90);
      }

      .cls-96 {
        fill: url(#linear-gradient-91);
      }

      .cls-97 {
        fill: url(#linear-gradient-92);
      }

      .cls-98 {
        fill: url(#linear-gradient-93);
      }

      .cls-99 {
        fill: url(#linear-gradient-94);
      }

      .cls-100 {
        mix-blend-mode: soft-light;
        opacity: 0.4;
      }

      .cls-101 {
        fill: #fff;
      }

      .cls-102 {
        fill: #c7c8ca;
      }

      .cls-103 {
        fill: #cedbd4;
      }

      .cls-104 {
        fill: #b4b6b9;
      }

      .cls-105 {
        fill: #5e5a44;
      }

      .cls-106 {
        fill: #726e50;
      }

      .cls-107 {
        fill: #25d7c9;
      }

      .cls-108 {
        fill: #16b19e;
      }

      .cls-109 {
        fill: #0cc5b3;
      }

      .cls-110 {
        fill: #eead4a;
      }

      .cls-111 {
        fill: #e99b36;
      }

      .cls-112 {
        fill: #ff9239;
      }

      .cls-113 {
        fill: #c42b16;
      }

      .cls-114 {
        fill: #e54425;
      }

      .cls-115, .cls-122 {
        opacity: 0.5;
      }

      .cls-116 {
        fill: #ff7a17;
      }

      .cls-117 {
        fill: #ffac3e;
      }

      .cls-118 {
        fill: #ffcc3b;
      }

      .cls-119 {
        fill: #19d2dc;
      }

      .cls-120 {
        fill: #0acbcb;
      }

      .cls-121 {
        fill: #08acb4;
      }

      .cls-122 {
        stroke: #000;
      }

      .cls-122, .cls-123 {
        stroke-miterlimit: 10;
        stroke-width: 5px;
      }

      .cls-123 {
        fill: #1d005b;
        stroke: #fffdfd;
      }
    </style>
    <clipPath id="clip-path">
      <rect class="cls-1" width="1600" height="900"/>
    </clipPath>
    <linearGradient id="linear-gradient" x1="1680.53" y1="215.46" x2="1690.6" y2="215.46" gradientTransform="translate(-133.86)" gradientUnits="userSpaceOnUse">
      <stop offset="0" stop-color="#dddb00"/>
      <stop offset="0.3" stop-color="#d1cc00"/>
      <stop offset="0.87" stop-color="#b2a500"/>
      <stop offset="1" stop-color="#aa9b00"/>
    </linearGradient>
    <linearGradient id="linear-gradient-2" x1="1631.38" y1="209.43" x2="1645.31" y2="209.43" xlink:href="#linear-gradient"/>
    <linearGradient id="linear-gradient-3" x1="357.7" y1="86.15" x2="357.05" y2="95.23" xlink:href="#linear-gradient"/>
    <linearGradient id="linear-gradient-4" x1="1502.32" y1="105.89" x2="1506.31" y2="119.53" gradientTransform="translate(-133.86)" gradientUnits="userSpaceOnUse">
      <stop offset="0" stop-color="#d5e6a7"/>
      <stop offset="1" stop-color="#94c01f"/>
    </linearGradient>
    <linearGradient id="linear-gradient-5" x1="191.58" y1="479.05" x2="198.65" y2="479.05" xlink:href="#linear-gradient"/>
    <linearGradient id="linear-gradient-6" x1="1443.63" y1="259.43" x2="1453.29" y2="259.43" gradientTransform="matrix(-1, 0, 0, 1, 1461.49, 0)" gradientUnits="userSpaceOnUse">
      <stop offset="0" stop-color="#f66a67"/>
      <stop offset="0.09" stop-color="#f4605c"/>
      <stop offset="0.71" stop-color="#e71f1a"/>
      <stop offset="1" stop-color="#e20600"/>
    </linearGradient>
    <linearGradient id="linear-gradient-7" x1="279.53" y1="134.1" x2="288.71" y2="134.1" gradientTransform="translate(-133.86)" gradientUnits="userSpaceOnUse">
      <stop offset="0" stop-color="#b4def3"/>
      <stop offset="1" stop-color="#36a8e0"/>
    </linearGradient>
    <linearGradient id="linear-gradient-8" x1="388.84" y1="411.39" x2="388.1" y2="421.79" xlink:href="#linear-gradient"/>
    <linearGradient id="linear-gradient-9" x1="179.43" y1="1.18" x2="183.42" y2="14.83" xlink:href="#linear-gradient-4"/>
    <linearGradient id="linear-gradient-10" x1="747.96" y1="10.33" x2="743.45" y2="28.72" gradientTransform="matrix(-1, 0, 0, 1, 1119.36, 0)" gradientUnits="userSpaceOnUse">
      <stop offset="0" stop-color="#9dc531"/>
      <stop offset="0.44" stop-color="#d5e6a7"/>
      <stop offset="1" stop-color="#94c01f"/>
    </linearGradient>
    <linearGradient id="linear-gradient-11" x1="940.1" y1="307.02" x2="951.12" y2="307.02" xlink:href="#linear-gradient-7"/>
    <linearGradient id="linear-gradient-12" x1="1391.96" y1="274.05" x2="1399.09" y2="274.05" xlink:href="#linear-gradient-6"/>
    <linearGradient id="linear-gradient-13" x1="481.89" y1="180.43" x2="481.44" y2="186.76" xlink:href="#linear-gradient"/>
    <linearGradient id="linear-gradient-14" x1="263.39" y1="180.73" x2="276.75" y2="186.64" gradientTransform="translate(-133.86)" gradientUnits="userSpaceOnUse">
      <stop offset="0" stop-color="#f59ecd"/>
      <stop offset="0.55" stop-color="#ef64af"/>
      <stop offset="1" stop-color="#e5007e"/>
    </linearGradient>
    <linearGradient id="linear-gradient-15" x1="409.87" y1="188.13" x2="423.79" y2="188.13" gradientTransform="translate(-133.86)" gradientUnits="userSpaceOnUse">
      <stop offset="0" stop-color="#e5007e"/>
      <stop offset="0.45" stop-color="#ef64af"/>
      <stop offset="1" stop-color="#f59ecd"/>
    </linearGradient>
    <linearGradient id="linear-gradient-16" x1="1730.24" y1="152.35" x2="1744.14" y2="152.35" gradientTransform="translate(-133.86)" gradientUnits="userSpaceOnUse">
      <stop offset="0" stop-color="#36a8e0"/>
      <stop offset="0.34" stop-color="#2f99d5"/>
      <stop offset="0.99" stop-color="#1d72b8"/>
      <stop offset="1" stop-color="#1d71b7"/>
    </linearGradient>
    <linearGradient id="linear-gradient-17" x1="1244.73" y1="238.89" x2="1243.99" y2="249.3" gradientTransform="matrix(-1, 0, 0, 1, 1971.25, 0)" xlink:href="#linear-gradient"/>
    <linearGradient id="linear-gradient-18" x1="1013.66" y1="299.46" x2="1019.48" y2="299.46" gradientTransform="matrix(-1, 0, 0, 1, 1971.25, 0)" xlink:href="#linear-gradient-6"/>
    <linearGradient id="linear-gradient-19" x1="1737.47" y1="42.44" x2="1732.97" y2="60.79" xlink:href="#linear-gradient-16"/>
    <linearGradient id="linear-gradient-20" x1="929.81" y1="395.72" x2="929.16" y2="404.82" gradientTransform="matrix(-1, 0, 0, 1, 1119.36, 0)" xlink:href="#linear-gradient"/>
    <linearGradient id="linear-gradient-21" x1="513.8" y1="178.93" x2="513.15" y2="188" gradientTransform="translate(-133.86)" xlink:href="#linear-gradient-6"/>
    <linearGradient id="linear-gradient-22" x1="1077.66" y1="111.44" x2="1081.96" y2="111.44" xlink:href="#linear-gradient-6"/>
    <linearGradient id="linear-gradient-23" x1="133.53" y1="128.79" x2="146.91" y2="134.71" xlink:href="#linear-gradient-14"/>
    <linearGradient id="linear-gradient-24" x1="173.53" y1="194.4" x2="187.45" y2="194.4" xlink:href="#linear-gradient-16"/>
    <linearGradient id="linear-gradient-25" x1="1738" y1="338.55" x2="1736.93" y2="353.52" xlink:href="#linear-gradient"/>
    <linearGradient id="linear-gradient-26" x1="1087.74" y1="380.36" x2="1086.67" y2="395.27" gradientTransform="matrix(-1, 0, 0, 1, 1119.36, 0)" xlink:href="#linear-gradient"/>
    <linearGradient id="linear-gradient-27" x1="1609.55" y1="31.18" x2="1619.94" y2="31.18" xlink:href="#linear-gradient-7"/>
    <linearGradient id="linear-gradient-28" x1="504.98" y1="-266.29" x2="525.9" y2="-266.29" gradientTransform="matrix(0.01, -1, -1, -0.01, 863.86, 555.81)" xlink:href="#linear-gradient"/>
    <linearGradient id="linear-gradient-29" x1="885.92" y1="-203.02" x2="906.9" y2="-203.02" gradientTransform="translate(870.62 -697.17) rotate(90.32)" xlink:href="#linear-gradient-16"/>
    <linearGradient id="linear-gradient-30" x1="848.25" y1="196.28" x2="869.2" y2="196.28" gradientTransform="translate(870.62 -697.17) rotate(90.32)" xlink:href="#linear-gradient-16"/>
    <linearGradient id="linear-gradient-31" x1="1208.06" y1="52.87" x2="1216.86" y2="52.87" gradientTransform="matrix(0.01, -1, -1, -0.01, 859.1, 1407.69)" xlink:href="#linear-gradient-6"/>
    <linearGradient id="linear-gradient-32" x1="1227.61" y1="-110.13" x2="1236.4" y2="-110.13" gradientTransform="matrix(0.01, -1, -1, -0.01, 859.1, 1407.69)" xlink:href="#linear-gradient-6"/>
    <linearGradient id="linear-gradient-33" x1="262.23" y1="-458.28" x2="283.18" y2="-458.28" gradientTransform="matrix(0.01, -1, -1, -0.01, 863.86, 555.81)" xlink:href="#linear-gradient-16"/>
    <linearGradient id="linear-gradient-34" x1="838.76" y1="320.15" x2="835.44" y2="333.68" gradientTransform="translate(870.62 -697.17) rotate(90.32)" xlink:href="#linear-gradient-16"/>
    <linearGradient id="linear-gradient-35" x1="813.54" y1="465.65" x2="812.8" y2="476.03" gradientTransform="translate(870.62 -697.17) rotate(90.32)" xlink:href="#linear-gradient"/>
    <linearGradient id="linear-gradient-36" x1="928.66" y1="395.38" x2="940.37" y2="395.38" gradientTransform="translate(870.62 -697.17) rotate(90.32)" xlink:href="#linear-gradient"/>
    <linearGradient id="linear-gradient-37" x1="81" y1="177.21" x2="88.78" y2="177.21" xlink:href="#linear-gradient-6"/>
    <linearGradient id="linear-gradient-38" x1="1449.24" y1="72.81" x2="1452.31" y2="83.31" xlink:href="#linear-gradient-4"/>
    <linearGradient id="linear-gradient-39" x1="-519.82" y1="19.44" x2="-520.39" y2="27.44" gradientTransform="translate(718.03)" xlink:href="#linear-gradient"/>
    <linearGradient id="linear-gradient-40" x1="426.78" y1="19.91" x2="437.48" y2="19.91" xlink:href="#linear-gradient-16"/>
    <linearGradient id="linear-gradient-41" x1="762.67" y1="26.37" x2="764.8" y2="33.66" gradientTransform="matrix(-1, 0, 0, 1, 1971.25, 0)" xlink:href="#linear-gradient-4"/>
    <linearGradient id="linear-gradient-42" x1="139.61" y1="2.15" x2="137.2" y2="12" gradientTransform="translate(-133.86)" xlink:href="#linear-gradient-10"/>
    <linearGradient id="linear-gradient-43" x1="832.07" y1="431.66" x2="842.72" y2="431.66" gradientTransform="matrix(-0.02, -1, 1, -0.02, 603.98, 870.95)" xlink:href="#linear-gradient"/>
    <linearGradient id="linear-gradient-44" x1="824.41" y1="285" x2="838.9" y2="285" gradientTransform="matrix(0.02, 1, 1, -0.02, 570.01, -723.58)" xlink:href="#linear-gradient-6"/>
    <linearGradient id="linear-gradient-45" x1="818.23" y1="129.76" x2="821.5" y2="140.92" gradientTransform="matrix(-0.02, -1, 1, -0.02, 603.98, 870.95)" xlink:href="#linear-gradient-4"/>
    <linearGradient id="linear-gradient-46" x1="746.44" y1="295.32" x2="757.2" y2="295.32" gradientTransform="matrix(0.02, 1, 1, -0.02, 570.01, -723.58)" xlink:href="#linear-gradient-6"/>
    <linearGradient id="linear-gradient-47" x1="727.8" y1="171.03" x2="744.39" y2="178.36" gradientTransform="matrix(-0.02, -1, 1, -0.02, 603.98, 870.95)" xlink:href="#linear-gradient-14"/>
    <linearGradient id="linear-gradient-48" x1="802.89" y1="242.51" x2="823.76" y2="242.51" gradientTransform="matrix(-0.02, -1, 1, -0.02, 603.98, 870.95)" xlink:href="#linear-gradient-16"/>
    <linearGradient id="linear-gradient-49" x1="459.91" y1="365.2" x2="459.16" y2="375.64" gradientTransform="matrix(0.02, 1, 1, -0.02, 577.36, -381.54)" xlink:href="#linear-gradient"/>
    <linearGradient id="linear-gradient-50" x1="740.4" y1="81.21" x2="738.64" y2="88.4" gradientTransform="matrix(-0.02, -1, 1, -0.02, 603.98, 870.95)" xlink:href="#linear-gradient-10"/>
    <linearGradient id="linear-gradient-51" x1="1308.05" y1="19.8" x2="1313.48" y2="19.8" xlink:href="#linear-gradient-6"/>
    <linearGradient id="linear-gradient-52" x1="581.22" y1="102.28" x2="591.51" y2="106.83" xlink:href="#linear-gradient-14"/>
    <linearGradient id="linear-gradient-53" x1="-310.95" y1="335.29" x2="-311.45" y2="342.31" gradientTransform="matrix(-1, 0, 0, 1, 1119.36, 0)" xlink:href="#linear-gradient"/>
    <linearGradient id="linear-gradient-54" x1="903.16" y1="427.34" x2="913.31" y2="427.34" gradientTransform="matrix(-0.13, -0.99, -0.99, 0.13, 777.68, 1017.51)" xlink:href="#linear-gradient-7"/>
    <linearGradient id="linear-gradient-55" x1="913.31" y1="432.03" x2="927.32" y2="432.03" gradientTransform="matrix(-0.13, -0.99, -0.99, 0.13, 777.68, 1017.51)" xlink:href="#linear-gradient-16"/>
    <linearGradient id="linear-gradient-56" x1="561.83" y1="623.94" x2="600.7" y2="623.94" gradientTransform="matrix(0.06, 1, 1, -0.06, 852.74, -205.84)" xlink:href="#linear-gradient-15"/>
    <linearGradient id="linear-gradient-57" x1="561.8" y1="634.81" x2="602.67" y2="634.81" gradientTransform="matrix(0.06, 1, 1, -0.06, 852.74, -205.84)" gradientUnits="userSpaceOnUse">
      <stop offset="0" stop-color="#b70056"/>
      <stop offset="0.49" stop-color="#e5007e"/>
      <stop offset="1" stop-color="#ef64af"/>
    </linearGradient>
    <linearGradient id="linear-gradient-58" x1="1.59" y1="179.83" x2="2.17" y2="207.75" gradientTransform="matrix(-1, 0, 0, 1, 1461.49, 0)" xlink:href="#linear-gradient-16"/>
    <linearGradient id="linear-gradient-59" x1="7.97" y1="159.33" x2="5.07" y2="207.42" gradientTransform="matrix(-1, 0, 0, 1, 1461.49, 0)" xlink:href="#linear-gradient-7"/>
    <linearGradient id="linear-gradient-60" x1="1308.45" y1="444.92" x2="1319.02" y2="444.92" gradientTransform="matrix(-1, 0, 0, 1, 1461.49, 0)" xlink:href="#linear-gradient-10"/>
    <linearGradient id="linear-gradient-61" x1="1313.15" y1="427.21" x2="1302.82" y2="449.56" gradientTransform="matrix(-1, 0, 0, 1, 1461.49, 0)" xlink:href="#linear-gradient-10"/>
    <linearGradient id="linear-gradient-62" x1="1351.89" y1="27.84" x2="1373.15" y2="27.84" gradientTransform="matrix(-1, 0, 0, 1, 1461.49, 0)" xlink:href="#linear-gradient-7"/>
    <linearGradient id="linear-gradient-63" x1="1155.14" y1="103.71" x2="1168.64" y2="103.71" xlink:href="#linear-gradient-6"/>
    <linearGradient id="linear-gradient-64" x1="60.66" y1="25.49" x2="114.11" y2="25.49" gradientTransform="matrix(-1, 0, 0, 1, 1461.49, 0)" gradientUnits="userSpaceOnUse">
      <stop offset="0" stop-color="#ef64af"/>
      <stop offset="0.51" stop-color="#e5007e"/>
      <stop offset="1" stop-color="#b70056"/>
    </linearGradient>
    <linearGradient id="linear-gradient-65" x1="97.13" y1="14.11" x2="111.75" y2="38.98" gradientTransform="matrix(-1, 0, 0, 1, 1461.49, 0)" xlink:href="#linear-gradient-14"/>
    <linearGradient id="linear-gradient-66" x1="1421.17" y1="875.36" x2="1382.04" y2="848.2" gradientTransform="matrix(-0.6, -0.8, -0.8, 0.6, 1663.32, 901.27)" gradientUnits="userSpaceOnUse">
      <stop offset="0" stop-color="red"/>
      <stop offset="0.23" stop-color="#be0000"/>
      <stop offset="0.31" stop-color="#d40f0f"/>
      <stop offset="0.43" stop-color="#ec1f1f"/>
      <stop offset="0.55" stop-color="#fa2929"/>
      <stop offset="0.64" stop-color="#ff2c2c"/>
      <stop offset="0.86" stop-color="#fad1bf"/>
      <stop offset="1" stop-color="red"/>
    </linearGradient>
    <linearGradient id="linear-gradient-67" x1="781.59" y1="-350.53" x2="685.78" y2="-417.02" gradientTransform="matrix(-0.6, -0.8, -0.8, 0.6, 1663.32, 901.27)" xlink:href="#linear-gradient-6"/>
    <linearGradient id="linear-gradient-68" x1="673.96" y1="265.25" x2="684.03" y2="265.25" xlink:href="#linear-gradient-14"/>
    <linearGradient id="linear-gradient-69" x1="1284.85" y1="97.8" x2="1298.8" y2="97.8" xlink:href="#linear-gradient"/>
    <linearGradient id="linear-gradient-70" x1="1346.03" y1="133.18" x2="1359.95" y2="133.18" xlink:href="#linear-gradient-16"/>
    <linearGradient id="linear-gradient-71" x1="746.29" y1="209.86" x2="752.12" y2="209.86" gradientTransform="matrix(-1, 0, 0, 1, 1971.25, 0)" xlink:href="#linear-gradient-6"/>
    <linearGradient id="linear-gradient-72" x1="1136.4" y1="172.56" x2="1133.66" y2="183.72" gradientTransform="translate(-133.86)" xlink:href="#linear-gradient-10"/>
    <linearGradient id="linear-gradient-73" x1="1356.09" y1="277.3" x2="1355.02" y2="292.26" xlink:href="#linear-gradient"/>
    <linearGradient id="linear-gradient-74" x1="440.06" y1="82.98" x2="447.83" y2="82.98" xlink:href="#linear-gradient-6"/>
    <linearGradient id="linear-gradient-75" x1="178.59" y1="85.89" x2="177.77" y2="97.35" gradientTransform="matrix(-1, 0, 0, 1, 1119.36, 0)" xlink:href="#linear-gradient"/>
    <linearGradient id="linear-gradient-76" x1="248.71" y1="390.59" x2="287.57" y2="390.59" gradientTransform="matrix(0.06, 1, 1, -0.06, 852.74, -205.84)" xlink:href="#linear-gradient-15"/>
    <linearGradient id="linear-gradient-77" x1="248.68" y1="401.47" x2="289.56" y2="401.47" xlink:href="#linear-gradient-57"/>
    <linearGradient id="linear-gradient-78" x1="392.76" y1="65.44" x2="393.34" y2="93.36" gradientTransform="matrix(-1, 0, 0, 1, 1461.49, 0)" xlink:href="#linear-gradient-16"/>
    <linearGradient id="linear-gradient-79" x1="399.15" y1="44.94" x2="396.25" y2="93.03" gradientTransform="matrix(-1, 0, 0, 1, 1461.49, 0)" xlink:href="#linear-gradient-7"/>
    <linearGradient id="linear-gradient-80" x1="557.05" y1="-115.51" x2="507.29" y2="-150.05" gradientTransform="matrix(-0.6, -0.8, -0.8, 0.6, 1663.32, 901.27)" xlink:href="#linear-gradient-6"/>
    <linearGradient id="linear-gradient-81" x1="1101.66" y1="244.62" x2="1110.65" y2="244.62" gradientTransform="matrix(-1, 0, 0, 1, 1461.49, 0)" xlink:href="#linear-gradient-7"/>
    <linearGradient id="linear-gradient-82" x1="1110.65" y1="253.81" x2="1121.86" y2="253.81" gradientTransform="matrix(-1, 0, 0, 1, 1461.49, 0)" xlink:href="#linear-gradient-16"/>
    <linearGradient id="linear-gradient-83" x1="1255.88" y1="310.82" x2="1265.54" y2="310.82" xlink:href="#linear-gradient-6"/>
    <linearGradient id="linear-gradient-84" x1="815.06" y1="23.62" x2="814.31" y2="34.04" xlink:href="#linear-gradient"/>
    <linearGradient id="linear-gradient-85" x1="959" y1="54.09" x2="966.11" y2="54.09" xlink:href="#linear-gradient-6"/>
    <linearGradient id="linear-gradient-86" x1="765.74" y1="52.59" x2="779.64" y2="52.59" xlink:href="#linear-gradient-15"/>
    <linearGradient id="linear-gradient-87" x1="514.44" y1="177.76" x2="513.79" y2="186.86" gradientTransform="matrix(-1, 0, 0, 1, 1119.36, 0)" xlink:href="#linear-gradient"/>
    <linearGradient id="linear-gradient-88" x1="588.91" y1="26.06" x2="602.81" y2="26.06" xlink:href="#linear-gradient-16"/>
    <linearGradient id="linear-gradient-89" x1="672.38" y1="212.02" x2="671.31" y2="226.93" gradientTransform="matrix(-1, 0, 0, 1, 1119.36, 0)" xlink:href="#linear-gradient"/>
    <linearGradient id="linear-gradient-90" x1="1341.05" y1="393.65" x2="1301.95" y2="366.51" xlink:href="#linear-gradient-66"/>
    <linearGradient id="linear-gradient-91" x1="686.3" y1="26.65" x2="695.29" y2="26.65" gradientTransform="matrix(-1, 0, 0, 1, 1461.49, 0)" xlink:href="#linear-gradient-7"/>
    <linearGradient id="linear-gradient-92" x1="695.29" y1="35.85" x2="706.48" y2="35.85" gradientTransform="matrix(-1, 0, 0, 1, 1461.49, 0)" xlink:href="#linear-gradient-16"/>
    <linearGradient id="linear-gradient-93" x1="8.19" y1="88.92" x2="34.81" y2="88.92" gradientTransform="matrix(-1, 0, 0, 1, 1461.49, 0)" gradientUnits="userSpaceOnUse">
      <stop offset="0" stop-color="#f4f4b4"/>
      <stop offset="1" stop-color="#dddb00"/>
    </linearGradient>
    <linearGradient id="linear-gradient-94" x1="1017.26" y1="486.42" x2="1028.35" y2="486.42" gradientTransform="matrix(-1, 0, 0, 1, 1119.36, 0)" xlink:href="#linear-gradient-16"/>
  </defs>
  <g class="cls-2">
    <g id="Layer_1" data-name="Layer 1">
      <g class="cls-3">
        <g>
          <g>
            <g class="cls-4">
              <rect class="cls-5" x="-280" width="2160" height="900"/>
            </g>
            <g>
              <path class="cls-6" d="M1551.46,222.36c2-5.68,3.14-12.31-4.79-11.57,5-7.26,10.31-.06,10.06,5.75S1553.86,224.54,1551.46,222.36Z"/>
              <path class="cls-7" d="M1506.16,197.15s-3.77,13.95-8.64,16.84c1.71,6.43,4.09,7.73,4.09,7.73a47.51,47.51,0,0,0,9.84-19.88Z"/>
              <path class="cls-8" d="M222.89,86.6h2.93s2.79,10.56-5.41,8.78C223.46,93.65,223.74,91.07,222.89,86.6Z"/>
              <path class="cls-9" d="M1364.44,106.52l6.47-1.76c4.33,5,4.11,11.17,3.15,15.15h-4.52C1369.48,112.68,1371.39,107.25,1364.44,106.52Z"/>
              <path class="cls-10" d="M61.1,483.86c1.36-3.94,2.16-8.59-3.38-8.09,3.56-5,7.22,0,7.06,4S62.77,485.37,61.1,483.86Z"/>
              <path class="cls-11" d="M14.2,250.87s-2.62,9.74-6,11.72C9.4,267.08,11,268,11,268a32.83,32.83,0,0,0,6.83-13.85Z"/>
              <path class="cls-12" d="M145.66,131.81v5.72c3.66-2.45,7.83-1.59,9.19,0a40,40,0,0,1,0-5.72A9.89,9.89,0,0,0,145.66,131.81Z"/>
              <path class="cls-13" d="M253.88,411.89h3.37S260.41,424,251.07,422C254.57,420,254.87,417.08,253.88,411.89Z"/>
              <path class="cls-14" d="M41.53,1.82,48,0c4.31,5.08,4.09,11.2,3.13,15.21H46.61C46.59,8,48.5,2.55,41.53,1.82Z"/>
              <path class="cls-15" d="M375,10.37h-4.79c-.71,12.66,1.45,18.81,7.7,20.26A35.16,35.16,0,0,1,375,10.37Z"/>
              <path class="cls-16" d="M806.24,304.22l2.18,5.45a58.15,58.15,0,0,0,8.83,0,43,43,0,0,0-2.36-5.45Z"/>
              <path class="cls-17" d="M62.4,270,67,268.77a11.85,11.85,0,0,1,2.17,10.56H66C65.92,274.32,67.26,270.55,62.4,270Z"/>
              <path class="cls-18" d="M347.37,180.73h2.05s1.93,7.36-3.78,6.14C347.79,185.65,348,183.87,347.37,180.73Z"/>
              <path class="cls-19" d="M131.52,174.19l-1.67,11.54c4.33,7.22,11.25,6.89,13,0C138,187.18,133.67,181.78,131.52,174.19Z"/>
              <path class="cls-20" d="M284.62,175.83s-3.8,13.95-8.61,16.84c1.67,6.43,4.05,7.77,4.05,7.77a48.33,48.33,0,0,0,9.87-19.93Z"/>
              <path class="cls-21" d="M1605,140s-3.8,14-8.64,16.86c1.68,6.44,4.08,7.75,4.08,7.75a47.48,47.48,0,0,0,9.82-19.9Z"/>
              <path class="cls-22" d="M727.59,239.4h-3.34s-3.17,12.08,6.19,10.08C726.94,247.47,726.62,244.56,727.59,239.4Z"/>
              <path class="cls-23" d="M957.6,296.17l-3.33-4.26c-2.52,6.28-4.69,13.33,1.68,15.11C954.08,303.49,956,298.72,957.6,296.17Z"/>
              <path class="cls-24" d="M1600,42.48h4.82c.7,12.65-1.45,18.8-7.69,20.22C1599.45,58.2,1601.19,50.81,1600,42.48Z"/>
              <path class="cls-25" d="M190.5,396.16h-2.93S184.8,406.72,193,405C189.89,403.21,189.62,400.67,190.5,396.16Z"/>
              <path class="cls-26" d="M379,179.37h2.91s2.79,10.56-5.39,8.79C379.59,186.41,379.84,183.86,379,179.37Z"/>
              <path class="cls-27" d="M379.53,109l2.73-.77a7.12,7.12,0,0,1,1.32,6.43h-1.93C381.63,111.62,382.44,109.29,379.53,109Z"/>
              <path class="cls-28" d="M1.67,122.24,0,133.82c4.33,7.22,11.27,6.86,13,0C8.16,135.27,3.82,129.85,1.67,122.24Z"/>
              <path class="cls-29" d="M48.3,182.1s-3.74,14-8.63,16.87c1.69,6.41,4.09,7.73,4.09,7.73a47.63,47.63,0,0,0,9.83-19.95Z"/>
              <path class="cls-30" d="M1602.6,339.28h4.78s4.57,17.39-8.85,14.5C1603.53,350.88,1604,346.7,1602.6,339.28Z"/>
              <path class="cls-31" d="M33.18,381.08H28.36s-4.54,17.33,8.89,14.44C32.21,392.62,31.76,388.45,33.18,381.08Z"/>
              <path class="cls-32" d="M1475.69,27.83v8.34c3.73-5,8.14-6.69,10.38-1.69C1486.24,28.08,1482,23.64,1475.69,27.83Z"/>
              <path class="cls-33" d="M1141.2,39.4S1131.91,45,1130,52.3a10.91,10.91,0,0,1-5.11-6.16s5.57-11.15,13.25-14.71Z"/>
              <path class="cls-34" d="M1076.78,203s-9.25-5.81-11.14-13.13a10.77,10.77,0,0,0-5.16,6.11s5.5,11.27,13.15,14.91Z"/>
              <path class="cls-35" d="M677.7,163.05s-9.27-5.77-11.15-13.08a10.79,10.79,0,0,0-5.18,6.09s5.51,11.28,13.16,14.9Z"/>
              <path class="cls-36" d="M815.17,199.34l2.86-5c-4.15-3.79-8.82-7.17-10,2.43C810.35,194,813.51,196.81,815.17,199.34Z"/>
              <path class="cls-37" d="M978.3,180.7l2.85-5c-4.15-3.84-8.82-7.17-10,2.41C973.48,175.37,976.61,178.19,978.3,180.7Z"/>
              <path class="cls-38" d="M1331.84,283.17s-9.31,5.67-11.25,13a11,11,0,0,1-5.11-6.19s5.57-11.16,13.27-14.71Z"/>
              <path class="cls-39" d="M545.13,135.87l0,7.28c-8.39,1-12.47-2.31-13.37-11.7C534.71,135,539.6,137.64,545.13,135.87Z"/>
              <path class="cls-40" d="M399.68,112.12l0,7.21s-11.56,6.8-9.55-13.42C392,113.48,394.75,114.21,399.68,112.12Z"/>
              <path class="cls-41" d="M466.49,234.82c2.89,2.29,6.27,3.66,5.94-5.53,3.65,5.88,0,12-3,11.69S465.37,237.56,466.49,234.82Z"/>
              <path class="cls-42" d="M1376.4,182.51c1.5-4.35,2.41-9.48-3.69-8.9,3.85-5.59,7.92-.05,7.78,4.44S1378.24,184.2,1376.4,182.51Z"/>
              <path class="cls-43" d="M1312.29,73.3l5-1.41c3.34,3.92,3.15,8.66,2.44,11.71h-3.49C1316.17,78,1317.64,73.86,1312.29,73.3Z"/>
              <path class="cls-44" d="M197.4,19.83H200s2.42,9.29-4.76,7.75C197.92,26,198.13,23.77,197.4,19.83Z"/>
              <path class="cls-45" d="M299.55,10.46s-2.89,10.74-6.63,13c1.28,4.95,3.13,5.95,3.13,5.95a36.49,36.49,0,0,0,7.57-15.31Z"/>
              <path class="cls-46" d="M1210.73,26.71l-3.47-1a9.07,9.07,0,0,0-1.66,8.12H1208C1208,30,1207,27.08,1210.73,26.71Z"/>
              <path class="cls-47" d="M3.8,2.18H6.39C6.8,9,5.64,12.26,2.28,13A18.81,18.81,0,0,0,3.8,2.18Z"/>
              <path class="cls-48" d="M1020.74,24.54c-2.65-1.94-5.74-3.06-5.29,5.26-3.4-5.23-.15-10.85,2.53-10.69S1021.71,22,1020.74,24.54Z"/>
              <path class="cls-49" d="M867.14,100.2s6.51,3.73,7.9,8.78a7.92,7.92,0,0,0,3.52-4.39s-4-7.67-9.34-10Z"/>
              <path class="cls-50" d="M717.74,56.59l-1.36-9.77c3.28-6.57,7.35-6.37,10-5l.1,6.85C721.71,48.87,718.07,46.11,717.74,56.59Z"/>
              <path class="cls-51" d="M878.81,27.18l-.93-6.83c2.28-4.6,5.11-4.43,7-3.48l.06,4.74C881.59,21.77,879.05,19.88,878.81,27.18Z"/>
              <path class="cls-52" d="M755.06,138.93l7.73,2.28c4.7-6.68,4.31-17.14-.27-19.54A17.94,17.94,0,0,1,755.06,138.93Z"/>
              <path class="cls-53" d="M820.76,50.31s9.34,5.33,11.38,12.63a11.2,11.2,0,0,0,5.05-6.3s-5.71-11-13.46-14.4Z"/>
              <path class="cls-54" d="M953.14,68.84l.1,7.22s11.6,6.49,9.4-13.68C960.82,70,958.06,70.78,953.14,68.84Z"/>
              <path class="cls-55" d="M669.57,131.14l0-3.91c4.5-.76,6.7.92,7.29,6A6.63,6.63,0,0,0,669.57,131.14Z"/>
              <path class="cls-56" d="M150.58,23.51c1-3,1.67-6.59-2.58-6.22,2.7-3.87,5.55,0,5.43,3.11S151.86,24.66,150.58,23.51Z"/>
              <path class="cls-57" d="M448.89,97.25l-1.26,8.87c3.3,5.57,8.67,5.3,9.95,0C453.88,107.26,450.58,103.08,448.89,97.25Z"/>
              <path class="cls-58" d="M1431,335.63h-2.24s-2.14,8.17,4.16,6.8C1430.59,341.06,1430.38,339.13,1431,335.63Z"/>
              <g>
                <path class="cls-59" d="M240.83,178.38l-.77-8.5s-7.81,6.69-16.72,1C227.43,183.56,240.83,178.38,240.83,178.38Z"/>
                <path class="cls-60" d="M229.05,156.88l-4.41-.31c-1.51,2.15-2.69,10.77-1.3,14.31C223.46,163.83,229.05,156.88,229.05,156.88Z"/>
              </g>
              <g>
                <path class="cls-61" d="M1514.18,357.86l-8.19.87c-3.43-18.59-.74-36.53,5.24-39.23A63.22,63.22,0,0,0,1514.18,357.86Z"/>
                <path class="cls-62" d="M1520,359.91l7.1-13.56c-.5-16.45-2.63-28.27-15.83-26.85C1518.9,324.79,1520.54,343.6,1520,359.91Z"/>
              </g>
              <g>
                <path class="cls-63" d="M1454.26,180.73h11.21c0,12.85-.4,22.14-5.81,28.56C1454.26,198.81,1453.88,187.76,1454.26,180.73Z"/>
                <path class="cls-64" d="M1461.6,159.77H1450c-4.66,8.73-5.83,52.46,9.64,49.52C1458.13,199.38,1457.72,169.7,1461.6,159.77Z"/>
              </g>
              <g>
                <path class="cls-65" d="M143.85,437.08c-2.31,7.86,5,17.09,9.19,14.43C143.05,456.75,140.51,444.28,143.85,437.08Z"/>
                <path class="cls-66" d="M144.29,426.14s15.59,4.12,8.75,25.37C163.11,451.3,160.43,420,144.29,426.14Z"/>
              </g>
              <path class="cls-67" d="M109.6,22.54V35.79c-8.5-5.68-18.15-3.66-21.26,0a109.84,109.84,0,0,0,0-13.25A22.76,22.76,0,0,1,109.6,22.54Z"/>
              <path class="cls-68" d="M306.35,96.12l-7.75-9.88c-5.8,14.58-10.81,30.89,3.88,35C298.23,113,302.48,101.94,306.35,96.12Z"/>
              <g>
                <path class="cls-69" d="M1400.83,2.81C1396.57,27.45,1386,56,1358.06,46.17l-10.68-11.11C1356.54,42,1391.05,30.4,1400.83,2.81Z"/>
                <path class="cls-70" d="M1358.06,8.69l6.15,14.82c-8.49,7.86-14.93,15.74-6.15,22.66-12.8-8.89-13.46-18.72-13.46-18.72C1349.83,14.62,1358.06,8.69,1358.06,8.69Z"/>
              </g>
              <path class="cls-71" d="M127.63,266l1.36,1.21a14.08,14.08,0,0,1,1.41,1.26,19.83,19.83,0,0,1,1.69,2,3,3,0,0,1,.42.38,14.1,14.1,0,0,1,1.81,2.7,18.33,18.33,0,0,1,1.53,4.47,30.68,30.68,0,0,1,.47,5.74,4.78,4.78,0,0,0,0,.78c0,.18,0,.42,0,.64l0,.57a6.55,6.55,0,0,0,0,.89c0,1.25,0,2.45-.14,3.71a9.84,9.84,0,0,1-.27,1.61,12.76,12.76,0,0,1-1.4,3.63,11.48,11.48,0,0,1-2,2.61,26.11,26.11,0,0,1-2.28,2c-.75.64-1.54,1.41-2.29,2.16a11.94,11.94,0,0,0-1.94,2.5l0,.08c0,.68.08,1.38.17,2.06s.22,1.39.34,2c.18.91.43,1.78.65,2.65.16.54.31,1.07.49,1.62.08.28.24.59.33.87.5,1.1,1,2.16,1.54,3.16s2.3,7.29,2,7.33L130,322.39c-.41-.53-.85-1.08-1.24-1.66a16.14,16.14,0,0,1-1.14-1.82,17.57,17.57,0,0,1-1.53-3,15.59,15.59,0,0,1-1-3.39c0-.36-.08-.69-.12-1a20.57,20.57,0,0,1,.38-5.63c0-.19.06-.37.08-.54a2.78,2.78,0,0,1,.1-.55,13.22,13.22,0,0,1,.68-2.9,12.21,12.21,0,0,1,1.11-2.42,17.59,17.59,0,0,1,2-2.74c.73-.78,1.48-1.52,2.22-2.23.44-.44.85-.92,1.3-1.41a16.17,16.17,0,0,0,1.22-1.59,13.79,13.79,0,0,0,.83-1.43,23.12,23.12,0,0,0,1-3.62c0-.25.08-.52.12-.76l.09-.57c0-.2,0-.39-.05-.58a5.17,5.17,0,0,1-.16-.74,18.91,18.91,0,0,0-1.83-5.44,19.9,19.9,0,0,0-1.18-2,17.83,17.83,0,0,0-1.22-1.71l-1.73-2a4.72,4.72,0,0,0-.59-.67c-.37-.6-.73-1.17-1.06-1.74,0,0-1.85-4.78-1.63-5C127.06,265.49,127.32,265.75,127.63,266Z"/>
              <path class="cls-72" d="M1516.8,9.74l3.37,2.95a42,42,0,0,1,3.44,3.11,45.07,45.07,0,0,1,4.18,4.82c.32.31.61.66.93,1a31.29,31.29,0,0,1,4.49,6.55,43.56,43.56,0,0,1,3.71,10.94,71.83,71.83,0,0,1,1.15,14.11c0,.59,0,1.23,0,1.85s0,1-.06,1.56l.06,1.49c0,.68,0,1.42,0,2.13a85.25,85.25,0,0,1-.32,9.05,33.38,33.38,0,0,1-.63,4,30.87,30.87,0,0,1-3.41,8.93,30.05,30.05,0,0,1-4.86,6.42,63.89,63.89,0,0,1-5.57,4.81c-1.91,1.63-3.8,3.39-5.66,5.3a33.22,33.22,0,0,0-4.71,6.17l0,.16c.09,1.69.25,3.39.45,5s.52,3.38.83,5c.44,2.25,1,4.35,1.57,6.53.36,1.32.72,2.61,1.11,3.91.3.73.61,1.44.93,2.16,1.14,2.67,2.38,5.28,3.7,7.78,1.24,2.3,5.73,17.78,5,17.92l-3.86-5.49c-1-1.37-2-2.62-3-4s-1.92-3-2.83-4.56a51.63,51.63,0,0,1-3.7-7.2,36.79,36.79,0,0,1-2.34-8.32c-.13-.8-.25-1.63-.34-2.46a51.35,51.35,0,0,1,1-13.84c0-.41.14-.87.2-1.3s.13-.92.22-1.35a35.43,35.43,0,0,1,1.67-7.1,29.32,29.32,0,0,1,2.73-6,39.64,39.64,0,0,1,5-6.64c1.77-2,3.59-3.77,5.42-5.57,1-1.06,2.09-2.19,3.11-3.37a39.72,39.72,0,0,0,3-3.85c.74-1.1,1.43-2.3,2.09-3.53a59.09,59.09,0,0,0,2.45-8.89c.13-.61.24-1.26.35-1.85l.24-1.44c-.12-.44-.15-.94-.23-1.36-.12-.61-.22-1.21-.36-1.83a45.85,45.85,0,0,0-4.41-13.35,43.13,43.13,0,0,0-2.86-4.8c-1-1.45-1.93-2.88-3-4.21l-4.28-5-1.47-1.67c-.87-1.38-1.77-2.76-2.62-4.15,0,0-4.47-11.71-4-12.25Z"/>
              <path class="cls-73" d="M544.89,272.15c2-5.68,3.13-12.31-4.79-11.57,5-7.25,10.3-.06,10.06,5.75S547.3,274.32,544.89,272.15Z"/>
              <path class="cls-74" d="M1159.64,85.5s-3.77,14-8.65,16.86c1.71,6.43,4.1,7.73,4.1,7.73a47.67,47.67,0,0,0,9.84-19.88Z"/>
              <path class="cls-75" d="M1220.82,120.89s-3.79,14-8.65,16.86c1.68,6.44,4.08,7.73,4.08,7.73a47.49,47.49,0,0,0,9.83-19.88Z"/>
              <path class="cls-76" d="M1225,206.6l-3.33-4.28c-2.5,6.26-4.71,13.32,1.66,15.09C1221.47,213.88,1223.29,209.12,1225,206.6Z"/>
              <path class="cls-77" d="M1000.34,172.59h2.93c.43,7.67-.87,11.42-4.68,12.29A21.17,21.17,0,0,0,1000.34,172.59Z"/>
              <path class="cls-78" d="M1220.68,278h4.79s4.58,17.39-8.86,14.48C1221.63,289.62,1222.1,285.43,1220.68,278Z"/>
              <path class="cls-79" d="M1017.34,88.28c1.51-4.35,2.41-9.48-3.68-8.9,3.84-5.58,7.92,0,7.76,4.45S1019.18,90,1017.34,88.28Z"/>
              <path class="cls-80" d="M942,86.45h-3.7s-3.5,13.31,6.84,11.09C941.23,95.34,940.89,92.12,942,86.45Z"/>
              <g>
                <path class="cls-81" d="M1263.46,58.47l-8.19.87c-3.44-18.59-.75-36.53,5.24-39.23A63.14,63.14,0,0,0,1263.46,58.47Z"/>
                <path class="cls-82" d="M1269.23,60.54l7.1-13.58c-.49-16.45-2.63-28.27-15.82-26.85C1268.18,25.4,1269.82,44.22,1269.23,60.54Z"/>
              </g>
              <g>
                <path class="cls-83" d="M1063.09,66.35h11.2c0,12.82-.4,22.13-5.82,28.56C1063.09,84.42,1062.7,73.37,1063.09,66.35Z"/>
                <path class="cls-84" d="M1070.42,45.38h-11.58c-4.66,8.73-5.82,52.46,9.63,49.53C1067,85,1066.55,55.31,1070.42,45.38Z"/>
              </g>
              <path class="cls-85" d="M1443.36,357.2l1.75,1.53a21,21,0,0,1,1.78,1.63,23.19,23.19,0,0,1,2.17,2.49c.17.16.33.35.48.52a15.53,15.53,0,0,1,2.33,3.4,21.89,21.89,0,0,1,1.93,5.69,37.43,37.43,0,0,1,.6,7.32c0,.31,0,.64,0,1s0,.55,0,.82l0,.77c0,.35,0,.74,0,1.09a45.92,45.92,0,0,1-.17,4.71,17,17,0,0,1-.32,2.06,16.36,16.36,0,0,1-1.77,4.64,15.28,15.28,0,0,1-2.53,3.32,35.94,35.94,0,0,1-2.89,2.52c-1,.84-2,1.74-2.93,2.74a17.27,17.27,0,0,0-2.45,3.2v.08c.05.88.13,1.77.24,2.61s.26,1.75.43,2.59c.23,1.19.53,2.27.81,3.41.19.68.37,1.35.58,2q.22.56.48,1.11c.59,1.39,1.24,2.76,1.93,4s3,9.25,2.57,9.31l-2-2.85c-.52-.71-1.05-1.36-1.57-2.08s-1-1.58-1.47-2.38a27.15,27.15,0,0,1-1.92-3.73,19.48,19.48,0,0,1-1.22-4.32c-.07-.42-.13-.85-.18-1.28a26.33,26.33,0,0,1,.52-7.18c0-.22.06-.46.09-.68s.06-.48.11-.7a18.79,18.79,0,0,1,.87-3.69,16,16,0,0,1,1.42-3.09,20,20,0,0,1,2.6-3.44c.92-1,1.88-2,2.82-2.9.54-.55,1.08-1.13,1.61-1.75a17.78,17.78,0,0,0,1.57-2c.37-.56.74-1.2,1.08-1.84a30.82,30.82,0,0,0,1.27-4.61c.07-.32.13-.65.19-1l.11-.74c-.06-.23-.07-.49-.11-.71s-.12-.63-.19-1a24,24,0,0,0-2.29-6.94,23.26,23.26,0,0,0-1.49-2.48c-.5-.76-1-1.5-1.52-2.2l-2.23-2.6c-.24-.28-.5-.58-.76-.86-.45-.73-.92-1.44-1.37-2.16,0,0-2.31-6.09-2.06-6.37Z"/>
              <g>
                <path class="cls-86" d="M359.69,229.41h-6.95s4.09,15.21-1.9,30.41C361.67,254.5,359.69,229.41,359.69,229.41Z"/>
                <path class="cls-87" d="M340.61,247.25l-1,7.91c1.51,3.08,8.14,6.59,11.21,4.66C345.25,258.49,340.61,247.25,340.61,247.25Z"/>
              </g>
              <path class="cls-88" d="M202,302.26S199.33,312,196,314c1.2,4.48,2.85,5.38,2.85,5.38a32.84,32.84,0,0,0,6.8-13.84Z"/>
              <path class="cls-89" d="M680.1,24.13h3.36s3.17,12.09-6.18,10.09C680.79,32.19,681.06,29.32,680.1,24.13Z"/>
              <path class="cls-90" d="M495.38,50.07l4.54-1.26a11.75,11.75,0,0,1,2.16,10.56h-3.14C498.9,54.36,500.22,50.58,495.38,50.07Z"/>
              <path class="cls-91" d="M640.49,40.29s-3.82,14-8.61,16.84c1.65,6.43,4,7.76,4,7.76A48.08,48.08,0,0,0,645.78,45Z"/>
              <path class="cls-92" d="M605.86,178.2H603s-2.78,10.56,5.39,8.81C605.25,185.25,605,182.7,605.86,178.2Z"/>
              <path class="cls-93" d="M463.66,13.76S459.94,27.7,455,30.63c1.67,6.41,4.07,7.73,4.07,7.73A47.58,47.58,0,0,0,469,18.41Z"/>
              <path class="cls-94" d="M448.53,212.74h-4.79s-4.57,17.34,8.86,14.45C447.57,224.28,447.12,220.11,448.53,212.74Z"/>
              <path class="cls-95" d="M561.18,41.25l1.36,1.2a16.79,16.79,0,0,1,1.39,1.26,22.67,22.67,0,0,1,1.71,2,2.31,2.31,0,0,1,.4.37,14.32,14.32,0,0,1,1.83,2.7,19.23,19.23,0,0,1,1.53,4.49,30.43,30.43,0,0,1,.47,5.71,3.47,3.47,0,0,0-.06.81c0,.17,0,.39,0,.62l0,.59a4.54,4.54,0,0,0,.06.89c0,1.23-.06,2.44-.14,3.69a13.51,13.51,0,0,1-.27,1.61,13.14,13.14,0,0,1-1.4,3.63,11,11,0,0,1-2,2.62,21.11,21.11,0,0,1-2.27,2c-.76.64-1.53,1.41-2.28,2.17a11.4,11.4,0,0,0-2,2.5l0,.06c0,.68.07,1.37.17,2.07s.22,1.38.34,2c.15.91.43,1.79.65,2.67.15.53.31,1,.49,1.6.08.29.23.59.33.87a31,31,0,0,0,1.54,3.17c.49,1,2.3,7.28,2,7.33l-1.55-2.25c-.41-.53-.85-1.07-1.26-1.66a16.15,16.15,0,0,1-1.12-1.82,17.47,17.47,0,0,1-1.53-3,14.22,14.22,0,0,1-1-3.4c0-.36-.1-.69-.14-1a20.42,20.42,0,0,1,.4-5.61,4.85,4.85,0,0,1,.08-.55,3.63,3.63,0,0,1,.09-.56,12.93,12.93,0,0,1,.69-2.9,11.24,11.24,0,0,1,1.1-2.4A16.43,16.43,0,0,1,563,72c.71-.79,1.47-1.53,2.2-2.24.45-.45.87-.93,1.3-1.41a10.19,10.19,0,0,0,1.22-1.6,10.3,10.3,0,0,0,.84-1.44,19.82,19.82,0,0,0,1-3.6c0-.25.08-.51.13-.75l.1-.59-.06-.57a3.78,3.78,0,0,1-.17-.74,17.53,17.53,0,0,0-1.83-5.43,16.87,16.87,0,0,0-1.16-2c-.38-.55-.79-1.16-1.22-1.69l-1.73-2.06a4.8,4.8,0,0,0-.61-.67c-.36-.59-.71-1.17-1-1.73,0,0-1.85-4.77-1.64-5C560.61,40.78,560.86,41,561.18,41.25Z"/>
              <g>
                <path class="cls-96" d="M775,11.45H768.1s4.11,15.21-1.91,30.41C777,36.54,775,11.45,775,11.45Z"/>
                <path class="cls-97" d="M756,29.28l-1,7.91c1.5,3.09,8.12,6.6,11.19,4.67C760.63,40.51,756,29.28,756,29.28Z"/>
              </g>
              <path class="cls-98" d="M1453.3,86.64c-10.92-11.72-24.38,7-25.93,20.31a102,102,0,0,1,0-24c10.37-14.31,16.6-15.86,25.93-4.93Z"/>
              <path class="cls-99" d="M95.24,476.6s3,11.14,6.86,13.45c-1.29,5.15-3.22,6.19-3.22,6.19A38.12,38.12,0,0,1,91,480.36Z"/>
            </g>
            <g class="cls-100">
              <path class="cls-101" d="M724.74,451v-.53a26.37,26.37,0,0,1,1.88-10L-291.27,311.12V451Z"/>
              <path class="cls-101" d="M818.94,408.41a113.84,113.84,0,0,1,15.18,3l491.17-575.53H1048.41Z"/>
              <path class="cls-101" d="M753.88,416.61a99.81,99.81,0,0,1,14.54-5.19L272.84-164.15H-72.91Z"/>
              <path class="cls-101" d="M783.51,408.44a136.3,136.3,0,0,1,17.6-1.07l-1.59-571.52H550.36Z"/>
              <path class="cls-101" d="M848.64,416.53a76.55,76.55,0,0,1,12.81,7.18L1894-41.88V-164.15H1669.75Z"/>
              <path class="cls-101" d="M1894,308.89V152.73L870.7,431.91a31.37,31.37,0,0,1,5.33,8.48Z"/>
              <path class="cls-101" d="M754,484.33a77.27,77.27,0,0,1-12.8-7.19L-291.27,941.62V1065H-69.1Z"/>
              <path class="cls-101" d="M1894,746.49,870.77,468.91a50,50,0,0,1-9.18,8.17L1894,940.67Z"/>
              <path class="cls-101" d="M741.08,423.82-291.27-38.6V155.26L731.86,432.05A50.61,50.61,0,0,1,741.08,423.82Z"/>
              <path class="cls-101" d="M1673.59,1065H1328.28L1222.77,942.13l-37-43.07L1155.73,864l-1.57-1.81-8.06-9.4-14-16.29L835.63,491.08l-1.38-1.61,1.94-.55a95.64,95.64,0,0,0,12.54-4.6L1170.7,711l66.07,46.51,20.85,14.67,9.39,6.63.93.65.48.33.07.05L1280,788l.21.13,1.12.8,14.6,10.28.26.18,89.25,62.84,37.31,26.26L1499,942.13Z"/>
              <path class="cls-101" d="M1636.61,449.38H877.94v1.07a26.3,26.3,0,0,1-1.89,10L1894,590.51V449.41Z"/>
              <path class="cls-101" d="M731.94,468.94a31.21,31.21,0,0,1-5.29-8.47L-291.27,591.26v156Z"/>
              <path class="cls-101" d="M1051,1065H801.94l-.11-122.91-.1-122.92,0-16.23V788.09l0-5.76-.05-65.52V701.93l0-12.16-.09-111.17,0-22.33,0-62.75a137.42,137.42,0,0,0,17.66-1.06l.33.8,13.37,33,12.14,30,9,22.33L859,591l40.14,99.1h0l4.17,10.29.64,1.57,6,14.88.32.77,26.22,64.75,14.94,36.88,49.78,122.92,4.47,11,9.72,24,33.71,83.23Z"/>
              <path class="cls-101" d="M783.65,492.47,769.58,527.4,758,556.27l-9,22.33-5.45,13.53-39.38,97.74-4.86,12.06-6,14.88-1.06,2.63-25.33,62.89L652,819.21,602.5,942.13,601,945.92l-2.61,6.48L553,1065H275.82L381.05,942.13,423.14,893l31.57-36.88,3.82-4.46,5.78-6.75,8.6-10,294-343.44,1.62-1.88A111.11,111.11,0,0,0,783.65,492.47Z"/>
            </g>
          </g>
          <g>
            <g>
              <path class="cls-102" d="M460.35,453.76c-9-9.36-21.29-16-34.26-23-9.15-4.93-18.61-10-27.53-16.43-25.1-18-23.25-67.93-23-73.57.72-13.77,10.15-21.67,25.87-21.67,12.73,0,17.79,8.16,18.68,12.47l1.67,5.52h24.93v7.77h-30.7l-3.42-11.39c-.23-.91-1.88-6.61-11.16-6.61-17.37,0-17.93,10.78-18.12,14.32-.1,2.07-2.39,51,19.74,66.85,8.51,6.1,17.75,11.09,26.68,15.91,13.53,7.3,26.3,14.2,36.17,24.44Z"/>
              <path class="cls-102" d="M576.43,453.76l-5.59-5.38c9.86-10.24,22.63-17.14,36.16-24.44,8.93-4.82,18.18-9.81,26.69-15.91,22.13-15.87,19.84-64.78,19.73-66.85-.18-3.54-.75-14.32-18.12-14.32-9.27,0-10.93,5.7-11.09,6.34l-3.49,11.66H590v-7.77H615l1.76-5.85c.81-4,5.86-12.14,18.59-12.14,15.73,0,25.16,7.9,25.87,21.67.3,5.64,2.15,55.56-23,73.57-8.91,6.39-18.37,11.5-27.52,16.43C597.71,437.78,585.45,444.4,576.43,453.76Z"/>
              <path class="cls-102" d="M599.42,325.06l-9.2,110.39c-5,28.69-38.86,35.38-41.37,49.17h-61c-2.51-13.79-36.35-20.48-41.37-49.17l-9.2-110.39Z"/>
              <path class="cls-103" d="M579.73,325.06l-9.2,110.39c-5,28.69-38.86,35.38-41.37,49.17H487.83c-2.51-13.79-36.35-20.48-41.37-49.17l-9.2-110.39Z"/>
              <rect class="cls-102" x="430.04" y="313.41" width="176.6" height="11.64" rx="3.23"/>
              <rect class="cls-103" x="430.04" y="313.41" width="143.6" height="11.64" rx="3.23"/>
              <path class="cls-104" d="M553.92,488.18v4.75a3.55,3.55,0,0,1-3.56,3.55h-64a3.55,3.55,0,0,1-3.56-3.55v-4.75a3.56,3.56,0,0,1,3.56-3.56h64A3.56,3.56,0,0,1,553.92,488.18Z"/>
              <path class="cls-102" d="M537.75,547.59H498.93q9.75-25.56-5.73-51.11h50.28Q528,522,537.75,547.59Z"/>
              <path class="cls-103" d="M529.87,547.59H498.93q9.75-25.56-5.73-51.11h42.4Q520.14,522,529.87,547.59Z"/>
              <rect class="cls-104" x="482.76" y="547.59" width="71.16" height="11.22" rx="2.68"/>
              <path class="cls-103" d="M540,488.18v4.75a3.55,3.55,0,0,1-3.56,3.55H486.32a3.55,3.55,0,0,1-3.56-3.55v-4.75a3.56,3.56,0,0,1,3.56-3.56h50.13A3.56,3.56,0,0,1,540,488.18Z"/>
              <path class="cls-103" d="M540,550.27v5.86a2.68,2.68,0,0,1-2.68,2.68H485.44a2.69,2.69,0,0,1-2.68-2.68v-5.86a2.68,2.68,0,0,1,2.68-2.68h51.89A2.67,2.67,0,0,1,540,550.27Z"/>
              <rect class="cls-102" x="489.33" y="558.81" width="58.01" height="55.84"/>
              <rect class="cls-103" x="489.33" y="558.81" width="44.11" height="55.84"/>
              <path class="cls-104" d="M569.6,617.67v3.08H467.07v-3.08a3,3,0,0,1,3-3h96.5A3,3,0,0,1,569.6,617.67Z"/>
              <path class="cls-103" d="M555.7,617.67v3.08H467.07v-3.08a3,3,0,0,1,3-3h82.6A3,3,0,0,1,555.7,617.67Z"/>
              <path class="cls-104" d="M577.43,622.33v4.32a1.59,1.59,0,0,1-1.59,1.58h-115a1.59,1.59,0,0,1-1.59-1.58v-4.32a1.59,1.59,0,0,1,1.59-1.58h115A1.59,1.59,0,0,1,577.43,622.33Z"/>
              <path class="cls-104" d="M577.43,665.62v4.31a1.59,1.59,0,0,1-1.59,1.58h-115a1.59,1.59,0,0,1-1.59-1.58v-4.31a1.59,1.59,0,0,1,1.59-1.59h115A1.59,1.59,0,0,1,577.43,665.62Z"/>
              <path class="cls-103" d="M563.52,622.33v4.32a1.59,1.59,0,0,1-1.59,1.58H460.84a1.59,1.59,0,0,1-1.59-1.58v-4.32a1.59,1.59,0,0,1,1.59-1.58H561.93A1.59,1.59,0,0,1,563.52,622.33Z"/>
              <path class="cls-103" d="M563.52,665.62v4.31a1.59,1.59,0,0,1-1.59,1.58H460.84a1.59,1.59,0,0,1-1.59-1.58v-4.31a1.59,1.59,0,0,1,1.59-1.59H561.93A1.59,1.59,0,0,1,563.52,665.62Z"/>
              <rect class="cls-105" x="463.57" y="628.23" width="109.53" height="35.8"/>
              <rect class="cls-106" x="463.57" y="628.23" width="89.7" height="35.8"/>
              <path class="cls-101" d="M485.92,342l.34,1.34a6,6,0,0,0,4.38,4.39l1.34.34a1.48,1.48,0,0,1,0,2.87l-1.34.34a6,6,0,0,0-4.38,4.38l-.34,1.34a1.48,1.48,0,0,1-2.87,0l-.34-1.34a6,6,0,0,0-4.39-4.38L477,351a1.48,1.48,0,0,1,0-2.87l1.34-.34a6,6,0,0,0,4.39-4.39l.34-1.34A1.48,1.48,0,0,1,485.92,342Z"/>
              <path class="cls-102" d="M563.3,376a9.71,9.71,0,0,0-8.61-6.71L535.55,368a1.22,1.22,0,0,1-1.07-.77l-7.13-17.81a9.74,9.74,0,0,0-18.09,0L503.43,364l-1.3,3.24a1.25,1.25,0,0,1-1.07.77l-19.15,1.28a9.74,9.74,0,0,0-5.59,17.2l14.74,12.29a1.25,1.25,0,0,1,.41,1.25l-.34,1.32-4.36,17.28a9.74,9.74,0,0,0,14.64,10.63L517.64,419a1.3,1.3,0,0,1,1.32,0l16.24,10.22a9.74,9.74,0,0,0,14.64-10.63l-4.38-17.28-.33-1.32a1.24,1.24,0,0,1,.41-1.25l14.73-12.29A9.68,9.68,0,0,0,563.3,376Zm-25.22,13.83a13,13,0,0,0-4.53,11.52,11.77,11.77,0,0,0,.29,1.53l3.54,14-12.22-7.69a13,13,0,0,0-13.72,0l-12.22,7.69,3.54-14a13.72,13.72,0,0,0,.29-1.53,13,13,0,0,0-4.53-11.52l-11.09-9.23,14.4-1a13,13,0,0,0,11.11-8.06l2.42-6.06,2.94-7.35,3.26,8.14,2.11,5.27a12.94,12.94,0,0,0,11.09,8.06l14.41,1Z"/>
            </g>
            <rect class="cls-107" x="381.91" y="673.05" width="275.06" height="137.81"/>
            <polygon class="cls-108" points="656.97 690.49 656.97 810.87 607.72 810.87 640.89 729.8 654.15 697.37 655.25 694.7 656.97 690.49"/>
            <rect class="cls-108" x="381.91" y="682.31" width="275.06" height="24.32"/>
            <path class="cls-109" d="M677.69,683.8h0c0,6.8-5.86,12.3-13.1,12.3H380.11c-7.24,0-13.11-5.5-13.11-12.3h0c0-6.79,5.87-12.29,13.11-12.29H664.59C671.83,671.51,677.69,677,677.69,683.8Z"/>
            <g>
              <path class="cls-110" d="M1010.37,448.88c-9.17-9.52-21.63-16.24-34.82-23.36-9.29-5-18.91-10.21-28-16.7-25.51-18.29-23.64-69-23.34-74.75.73-14,10.31-22,26.29-22,12.94,0,18.07,8.28,19,12.66l1.7,5.62h25.33v7.88H965.36l-3.48-11.56c-.23-.93-1.91-6.72-11.34-6.72-17.65,0-18.22,10.95-18.41,14.55-.11,2.1-2.43,51.81,20,67.93,8.65,6.2,18,11.26,27.12,16.16C993,426,1006,433,1016.05,443.41Z"/>
              <path class="cls-110" d="M1128.32,448.88l-5.68-5.47c10-10.41,23-17.42,36.74-24.83,9.08-4.9,18.47-10,27.12-16.17,22.49-16.13,20.17-65.83,20-67.93-.18-3.6-.75-14.55-18.4-14.55-9.43,0-11.11,5.79-11.27,6.44l-3.55,11.84h-31.2v-7.88h25.33l1.79-5.95c.82-4.05,6-12.33,18.9-12.33,16,0,25.55,8,26.28,22,.3,5.73,2.18,56.46-23.33,74.76-9.06,6.49-18.67,11.68-28,16.7C1149.94,432.64,1137.49,439.36,1128.32,448.88Z"/>
              <path class="cls-111" d="M1151.69,318.09l-9.35,112.18c-5.1,29.15-39.49,36-42,50h-62c-2.56-14-36.95-20.81-42-50L986.9,318.09Z"/>
              <path class="cls-110" d="M1131.68,318.09l-9.35,112.18c-5.1,29.15-39.49,36-42,50h-42c-2.56-14-36.95-20.81-42-50L986.9,318.09Z"/>
              <rect class="cls-112" x="979.57" y="306.26" width="179.45" height="11.83" rx="3.29"/>
              <rect class="cls-110" x="979.57" y="306.26" width="145.92" height="11.83" rx="3.29"/>
              <path class="cls-112" d="M1105.45,483.85v4.82a3.62,3.62,0,0,1-3.62,3.62h-65.07a3.62,3.62,0,0,1-3.62-3.62v-4.82a3.63,3.63,0,0,1,3.62-3.62h65.07A3.63,3.63,0,0,1,1105.45,483.85Z"/>
              <path class="cls-111" d="M1089,544.22h-39.44q9.9-26-5.82-51.93h51.09Q1079.11,518.26,1089,544.22Z"/>
              <path class="cls-110" d="M1081.53,542.4h-31.44q9.9-26-5.82-51.93h43.08Q1071.63,516.45,1081.53,542.4Z"/>
              <rect class="cls-112" x="1033.14" y="544.22" width="72.31" height="11.4" rx="2.72"/>
              <path class="cls-110" d="M1091.32,483.85v4.82a3.62,3.62,0,0,1-3.62,3.62h-50.94a3.62,3.62,0,0,1-3.62-3.62v-4.82a3.63,3.63,0,0,1,3.62-3.62h50.94A3.63,3.63,0,0,1,1091.32,483.85Z"/>
              <path class="cls-110" d="M1091.32,546.94v5.95a2.72,2.72,0,0,1-2.73,2.72h-52.73a2.72,2.72,0,0,1-2.72-2.72v-5.95a2.72,2.72,0,0,1,2.72-2.72h52.73A2.72,2.72,0,0,1,1091.32,546.94Z"/>
              <rect class="cls-111" x="1039.82" y="555.61" width="58.95" height="56.74"/>
              <rect class="cls-110" x="1039.82" y="555.61" width="44.82" height="56.74"/>
              <path class="cls-111" d="M1121.38,615.43v3.13H1017.19v-3.13a3.09,3.09,0,0,1,3.08-3.07h98A3.07,3.07,0,0,1,1121.38,615.43Z"/>
              <path class="cls-110" d="M1107.26,615.43v3.13h-90.07v-3.13a3.09,3.09,0,0,1,3.08-3.07h83.93A3.07,3.07,0,0,1,1107.26,615.43Z"/>
              <path class="cls-111" d="M1129.34,620.16v4.4a1.62,1.62,0,0,1-1.62,1.6H1010.87a1.62,1.62,0,0,1-1.62-1.6v-4.4a1.62,1.62,0,0,1,1.62-1.6h116.85A1.62,1.62,0,0,1,1129.34,620.16Z"/>
              <path class="cls-111" d="M1129.34,664.15v4.38a1.62,1.62,0,0,1-1.62,1.61H1010.87a1.62,1.62,0,0,1-1.62-1.61v-4.38a1.62,1.62,0,0,1,1.62-1.61h116.85A1.62,1.62,0,0,1,1129.34,664.15Z"/>
              <path class="cls-110" d="M1115.2,620.16v4.4a1.61,1.61,0,0,1-1.61,1.6H1010.87a1.62,1.62,0,0,1-1.62-1.6v-4.4a1.62,1.62,0,0,1,1.62-1.6h102.72A1.61,1.61,0,0,1,1115.2,620.16Z"/>
              <path class="cls-110" d="M1115.2,664.15v4.38a1.62,1.62,0,0,1-1.61,1.61H1010.87a1.62,1.62,0,0,1-1.62-1.61v-4.38a1.62,1.62,0,0,1,1.62-1.61h102.72A1.61,1.61,0,0,1,1115.2,664.15Z"/>
              <rect class="cls-113" x="1013.65" y="626.16" width="111.3" height="36.38"/>
              <rect class="cls-114" x="1013.65" y="626.16" width="91.15" height="36.38"/>
              <path class="cls-101" d="M1036.35,335.33l.34,1.36a6.17,6.17,0,0,0,4.46,4.46l1.36.34a1.5,1.5,0,0,1,0,2.92l-1.36.34a6.14,6.14,0,0,0-4.46,4.46l-.34,1.36a1.51,1.51,0,0,1-2.92,0l-.34-1.36a6.12,6.12,0,0,0-4.46-4.46l-1.36-.34a1.51,1.51,0,0,1,0-2.92l1.36-.34a6.15,6.15,0,0,0,4.46-4.46l.34-1.36A1.5,1.5,0,0,1,1036.35,335.33Z"/>
              <g class="cls-115">
                <path class="cls-116" d="M1115,369.85a9.84,9.84,0,0,0-8.75-6.82l-19.45-1.3a1.26,1.26,0,0,1-1.09-.79l-3.76-9.39-3.48-8.71a9.91,9.91,0,0,0-18.38,0L1055.2,355l-2.38,5.93a1.27,1.27,0,0,1-1.08.79l-19.45,1.3a9.9,9.9,0,0,0-5.69,17.48l10.08,8.4,4.9,4.09a1.27,1.27,0,0,1,.42,1.27l-4.78,18.9a9.89,9.89,0,0,0,14.86,10.8l.61-.38h0l15.88-10a1.27,1.27,0,0,1,1.35,0L1086.42,424a10,10,0,0,0,5.28,1.53,9.92,9.92,0,0,0,9.59-12.33l-4.77-18.9a1.26,1.26,0,0,1,.41-1.27l4.9-4.09,10.08-8.4A9.85,9.85,0,0,0,1115,369.85ZM1085,397.17l3.6,14.21-12.42-7.8a13.15,13.15,0,0,0-13.94,0l-12.41,7.8,3.59-14.21a13,13,0,0,0-.64-8.26,12.75,12.75,0,0,0-3.66-5l-11.27-9.39,14.64-1a13.13,13.13,0,0,0,11.27-8.2l4.84-12.07.62-1.54.55,1.39,4.9,12.22a13.15,13.15,0,0,0,11.28,8.2l14.63,1-11.27,9.39a12.88,12.88,0,0,0-3.67,5A13.12,13.12,0,0,0,1085,397.17Z"/>
              </g>
            </g>
            <rect class="cls-107" x="934.84" y="671.71" width="279.75" height="140.16"/>
            <polygon class="cls-108" points="934.84 689.44 934.84 811.87 984.92 811.87 951.19 729.42 937.71 696.44 936.59 693.72 934.84 689.44"/>
            <rect class="cls-108" x="934.84" y="681.12" width="279.75" height="24.73"/>
            <path class="cls-109" d="M913.76,682.64h0c0,6.91,6,12.51,13.33,12.51h289.33c7.36,0,13.33-5.6,13.33-12.51h0c0-6.91-6-12.5-13.33-12.5H927.09C919.73,670.14,913.76,675.73,913.76,682.64Z"/>
            <g>
              <g>
                <path class="cls-112" d="M712,326.73c-12.19-12.65-28.74-21.58-46.26-31-12.35-6.67-25.12-13.56-37.16-22.19-33.89-24.3-31.4-91.72-31-99.32,1-18.6,13.7-29.26,34.93-29.26,17.19,0,24,11,25.21,16.83l2.26,7.46h33.66v10.48H652.17l-4.62-15.37c-.3-1.24-2.54-8.92-15.06-8.92-23.46,0-24.22,14.54-24.46,19.32-.15,2.8-3.23,68.84,26.64,90.26,11.49,8.24,24,15,36,21.48,18.26,9.86,35.51,19.17,48.82,33Z"/>
                <path class="cls-112" d="M868.7,326.73l-7.55-7.27c13.32-13.83,30.57-23.14,48.83-33C922,280,934.52,273.22,946,265c29.88-21.42,26.79-87.46,26.64-90.26-.25-4.78-1-19.32-24.46-19.32-12.52,0-14.76,7.68-15,8.56l-4.72,15.73H887.05V169.21h33.66l2.37-7.91c1.09-5.37,7.92-16.38,25.11-16.38,21.23,0,34,10.66,34.93,29.25.4,7.61,2.9,75-31,99.33-12,8.63-24.81,15.52-37.17,22.19C897.43,305.15,880.88,314.08,868.7,326.73Z"/>
                <path class="cls-117" d="M899.75,153,887.33,302c-6.78,38.72-52.48,47.76-55.87,66.38H749.09C745.7,349.77,700,340.73,693.22,302L680.8,153Z"/>
                <path class="cls-118" d="M873.16,153,860.74,302c-6.78,38.72-52.47,47.76-55.86,66.38H749.09C745.7,349.77,700,340.73,693.22,302L680.8,153Z"/>
                <rect class="cls-112" x="671.06" y="137.23" width="238.44" height="15.72" rx="4.37"/>
                <rect class="cls-117" x="671.06" y="137.23" width="193.88" height="15.72" rx="4.37"/>
                <path class="cls-112" d="M838.31,373.19v6.41a4.79,4.79,0,0,1-4.8,4.8H747a4.79,4.79,0,0,1-4.8-4.8v-6.41a4.81,4.81,0,0,1,4.8-4.8h86.47A4.81,4.81,0,0,1,838.31,373.19Z"/>
                <path class="cls-117" d="M816.48,453.4H764.07q13.15-34.5-7.74-69h67.88Q803.32,418.92,816.48,453.4Z"/>
                <path class="cls-118" d="M805.84,453.4H764.07q13.15-34.5-7.74-69h57.25Q792.69,418.92,805.84,453.4Z"/>
                <rect class="cls-112" x="742.24" y="453.4" width="96.07" height="15.14" rx="3.62"/>
                <path class="cls-117" d="M819.53,373.19v6.41a4.79,4.79,0,0,1-4.8,4.8H747a4.79,4.79,0,0,1-4.8-4.8v-6.41a4.81,4.81,0,0,1,4.8-4.8h67.69A4.81,4.81,0,0,1,819.53,373.19Z"/>
                <path class="cls-117" d="M819.53,457v7.91a3.61,3.61,0,0,1-3.61,3.62H745.85a3.62,3.62,0,0,1-3.61-3.62V457a3.62,3.62,0,0,1,3.61-3.62h70.07A3.61,3.61,0,0,1,819.53,457Z"/>
                <rect class="cls-117" x="751.11" y="468.55" width="78.33" height="75.39"/>
                <rect class="cls-118" x="751.11" y="468.55" width="59.55" height="75.39"/>
                <path class="cls-112" d="M859.48,548v4.15H721.05V548a4.09,4.09,0,0,1,4.09-4.09H855.41A4.07,4.07,0,0,1,859.48,548Z"/>
                <path class="cls-117" d="M840.72,548v4.15H721.05V548a4.09,4.09,0,0,1,4.09-4.09H836.65A4.08,4.08,0,0,1,840.72,548Z"/>
                <path class="cls-112" d="M870.05,554.32v5.83a2.14,2.14,0,0,1-2.15,2.13H712.65a2.14,2.14,0,0,1-2.15-2.13v-5.83a2.14,2.14,0,0,1,2.15-2.14H867.9A2.14,2.14,0,0,1,870.05,554.32Z"/>
                <path class="cls-117" d="M870.05,612.76v5.82a2.14,2.14,0,0,1-2.15,2.13H712.65a2.14,2.14,0,0,1-2.15-2.13v-5.82a2.15,2.15,0,0,1,2.15-2.15H867.9A2.15,2.15,0,0,1,870.05,612.76Z"/>
                <path class="cls-118" d="M851.27,554.32v5.83a2.14,2.14,0,0,1-2.15,2.13H712.65a2.14,2.14,0,0,1-2.15-2.13v-5.83a2.14,2.14,0,0,1,2.15-2.14H849.12A2.14,2.14,0,0,1,851.27,554.32Z"/>
                <path class="cls-118" d="M851.27,612.76v5.82a2.14,2.14,0,0,1-2.15,2.13H712.65a2.14,2.14,0,0,1-2.15-2.13v-5.82a2.15,2.15,0,0,1,2.15-2.15H849.12A2.15,2.15,0,0,1,851.27,612.76Z"/>
                <rect class="cls-113" x="716.33" y="562.28" width="147.88" height="48.33"/>
                <rect class="cls-114" x="716.33" y="562.28" width="121.11" height="48.33"/>
                <path class="cls-101" d="M746.5,175.85l.46,1.81a8.16,8.16,0,0,0,5.92,5.92l1.81.46a2,2,0,0,1,0,3.88l-1.81.45a8.16,8.16,0,0,0-5.92,5.92l-.46,1.81a2,2,0,0,1-3.87,0l-.46-1.81a8.16,8.16,0,0,0-5.92-5.92l-1.81-.45a2,2,0,0,1,0-3.88l1.81-.46a8.16,8.16,0,0,0,5.92-5.92l.46-1.81A2,2,0,0,1,746.5,175.85Z"/>
                <g class="cls-115">
                  <path class="cls-116" d="M851,221.72a13.1,13.1,0,0,0-11.63-9.06l-25.85-1.72a1.66,1.66,0,0,1-1.44-1.05l-9.63-24a13.08,13.08,0,0,0-12.21-8.26h-.52A13.1,13.1,0,0,0,778,185.84l-9.63,24a1.67,1.67,0,0,1-1.43,1.05l-25.85,1.72a13.15,13.15,0,0,0-7.55,23.22l19.89,16.6a1.67,1.67,0,0,1,.56,1.69l-6.15,24.32h0l-.2.79a13.06,13.06,0,0,0,5,13.86,12.89,12.89,0,0,0,1.52,1h0a13.09,13.09,0,0,0,13.2-.47l21.92-13.8a1.66,1.66,0,0,1,.64-.24,1.76,1.76,0,0,1,1.14.24L813,293.64a13.17,13.17,0,0,0,7,2,13,13,0,0,0,5.79-1.36h0a13.62,13.62,0,0,0,1.92-1.16,13.09,13.09,0,0,0,5-13.86l-.36-1.43-6-23.69a1.66,1.66,0,0,1,.54-1.69l19.91-16.6A13.08,13.08,0,0,0,851,221.72ZM816.93,240.4A17.48,17.48,0,0,0,811.2,258l4.78,18.9-16.49-10.39a17.49,17.49,0,0,0-9.55-2.65h0a17.51,17.51,0,0,0-9,2.65l-16.49,10.39,4.77-18.9a17.48,17.48,0,0,0-5.73-17.62l-15-12.48,19.45-1.3a17.47,17.47,0,0,0,15-10.88l6.77-16.92.47-1.18,7.25,18.1a17.46,17.46,0,0,0,15,10.88l19.44,1.3Z"/>
                </g>
              </g>
              <rect class="cls-119" x="652.68" y="620.79" width="282.83" height="191.72"/>
              <rect class="cls-120" x="637.97" y="620.79" width="312.27" height="25.01" rx="12.5"/>
              <rect class="cls-121" x="652.68" y="645.79" width="282.83" height="6.01"/>
            </g>
            <rect class="cls-108" x="368.46" y="811.1" width="864.54" height="10.14" rx="5.07"/>
          </g>
          <g>
            <path class="cls-122" d="M785.62,680.77a98.61,98.61,0,0,1-6.68,7.28q-4.05,4.05-7.94,7.6-4.53,4.22-9.39,8.41l10.69,14.58q3.41-3.4,6.32-6.4c1.94-2,4-4.24,6.15-6.72v88.33h21.55V680.77Z"/>
            <path class="cls-123" d="M782.26,791.33V703q-3.24,3.74-6.16,6.73t-6.32,6.4l-10.69-14.58q4.86-4.21,9.4-8.41,3.88-3.55,7.94-7.61t6.68-7.28h20.7V791.33Z"/>
          </g>
        </g>
      </g>
    </g>
  </g>
</svg>
