<svg xmlns="http://www.w3.org/2000/svg" xmlns:xlink="http://www.w3.org/1999/xlink" width="1600" height="900" viewBox="0 0 1600 900">
  <defs>
    <style>
      .cls-1, .cls-46 {
        fill: none;
      }

      .cls-2 {
        isolation: isolate;
      }

      .cls-3 {
        clip-path: url(#clip-path);
      }

      .cls-4 {
        fill: url(#linear-gradient);
      }

      .cls-5 {
        fill: url(#linear-gradient-2);
      }

      .cls-6 {
        fill: url(#linear-gradient-3);
      }

      .cls-7 {
        fill: url(#linear-gradient-4);
      }

      .cls-8 {
        fill: url(#linear-gradient-5);
      }

      .cls-9 {
        fill: url(#linear-gradient-6);
      }

      .cls-10 {
        fill: url(#linear-gradient-7);
      }

      .cls-11 {
        fill: url(#linear-gradient-8);
      }

      .cls-12 {
        fill: url(#linear-gradient-9);
      }

      .cls-13, .cls-14, .cls-15 {
        fill: #8ac640;
      }

      .cls-14, .cls-15 {
        mix-blend-mode: multiply;
      }

      .cls-14 {
        opacity: 0.5;
      }

      .cls-15 {
        opacity: 0.8;
      }

      .cls-16 {
        fill: #5ba63f;
      }

      .cls-17 {
        fill: #4ebc26;
      }

      .cls-18 {
        fill: #a56b41;
      }

      .cls-19 {
        fill: url(#Áåçûìÿííûé_ãðàäèåíò_50);
      }

      .cls-20 {
        fill: url(#Áåçûìÿííûé_ãðàäèåíò_50-2);
      }

      .cls-21 {
        fill: url(#Áåçûìÿííûé_ãðàäèåíò_26);
      }

      .cls-22 {
        fill: url(#Áåçûìÿííûé_ãðàäèåíò_8);
      }

      .cls-23 {
        fill: url(#Áåçûìÿííûé_ãðàäèåíò_5);
      }

      .cls-24 {
        fill: #587c00;
      }

      .cls-25 {
        fill: #99ad23;
      }

      .cls-26 {
        fill: #5b351b;
      }

      .cls-27 {
        fill: #4b2f1a;
      }

      .cls-28 {
        fill: #683f22;
      }

      .cls-29 {
        fill: #5e3e20;
      }

      .cls-30 {
        fill: #311c0f;
      }

      .cls-31 {
        fill: #bd834a;
      }

      .cls-32 {
        fill: #e8b680;
      }

      .cls-33 {
        fill: #a36d38;
      }

      .cls-34 {
        fill: #3d5e78;
      }

      .cls-34, .cls-35, .cls-37 {
        stroke: #2d455e;
      }

      .cls-34, .cls-35, .cls-37, .cls-38, .cls-39, .cls-40, .cls-41, .cls-42, .cls-45, .cls-46, .cls-48, .cls-55, .cls-56 {
        stroke-miterlimit: 10;
      }

      .cls-35 {
        fill: #294559;
        opacity: 0.57;
      }

      .cls-36 {
        fill: #2d455e;
      }

      .cls-37 {
        fill: #3f6177;
      }

      .cls-38 {
        fill: #f69d3c;
        stroke: #8d4e21;
      }

      .cls-39 {
        fill: #f9a944;
      }

      .cls-39, .cls-46 {
        stroke: #ab6728;
      }

      .cls-40 {
        fill: #f7b0a8;
        stroke: #c56c59;
      }

      .cls-41 {
        fill: #fbd1c9;
      }

      .cls-41, .cls-56 {
        stroke: #d07d75;
      }

      .cls-42 {
        fill: #984b3a;
        stroke: #883e30;
      }

      .cls-43 {
        fill: #6c2322;
      }

      .cls-44 {
        fill: #883e30;
      }

      .cls-45 {
        fill: #f8b6b2;
        stroke: #c06756;
      }

      .cls-47, .cls-56 {
        fill: #e59e98;
      }

      .cls-48, .cls-49 {
        fill: #fff;
      }

      .cls-48 {
        stroke: #8b8b8b;
      }

      .cls-50 {
        fill: #80979e;
      }

      .cls-51 {
        fill: #8b8b8b;
      }

      .cls-52 {
        fill: #404451;
      }

      .cls-53 {
        fill: #d36866;
      }

      .cls-54 {
        fill: #b25c57;
      }

      .cls-55 {
        fill: #f2f2f2;
        stroke: #7d7d7d;
      }

      .cls-57 {
        fill: #2b2b2a;
      }

      .cls-58 {
        fill: #1d1c1a;
      }

      .cls-59 {
        fill: #94d5d5;
        opacity: 0.12;
      }
    </style>
    <clipPath id="clip-path">
      <rect class="cls-1" width="1600" height="900"/>
    </clipPath>
    <linearGradient id="linear-gradient" x1="801.26" y1="861.5" x2="801.26" y2="-273.6" gradientUnits="userSpaceOnUse">
      <stop offset="0.38" stop-color="#fffbd8"/>
      <stop offset="0.45" stop-color="#f6f8d9"/>
      <stop offset="0.56" stop-color="#def1dc"/>
      <stop offset="0.7" stop-color="#b7e6e1"/>
      <stop offset="0.86" stop-color="#82d6e8"/>
      <stop offset="1" stop-color="#4cc6ef"/>
    </linearGradient>
    <linearGradient id="linear-gradient-2" x1="338.23" y1="365.08" x2="1138.03" y2="48.36" gradientUnits="userSpaceOnUse">
      <stop offset="0.09" stop-color="#6ab3c4"/>
      <stop offset="0.43" stop-color="#83cee2"/>
      <stop offset="0.64" stop-color="#85cde2"/>
      <stop offset="0.71" stop-color="#8ccae0"/>
      <stop offset="0.72" stop-color="#8ccae0"/>
      <stop offset="0.85" stop-color="#8ccae0"/>
    </linearGradient>
    <linearGradient id="linear-gradient-3" x1="555.76" y1="-160.25" x2="537.31" y2="422.73" gradientUnits="userSpaceOnUse">
      <stop offset="0.09" stop-color="#60c6ca"/>
      <stop offset="0.24" stop-color="#59bfc1"/>
      <stop offset="0.55" stop-color="#57bfbf"/>
      <stop offset="0.64" stop-color="#5fc3c6"/>
      <stop offset="0.7" stop-color="#67c7cc"/>
    </linearGradient>
    <linearGradient id="linear-gradient-4" x1="1251.11" y1="-315.58" x2="1546.43" y2="415.2" gradientUnits="userSpaceOnUse">
      <stop offset="0.5" stop-color="#29a9b7"/>
      <stop offset="0.58" stop-color="#2fadb7"/>
      <stop offset="0.65" stop-color="#39b4b7"/>
      <stop offset="0.75" stop-color="#3bb6b9"/>
      <stop offset="0.79" stop-color="#42bdbe"/>
      <stop offset="0.8" stop-color="#46c1c1"/>
    </linearGradient>
    <linearGradient id="linear-gradient-5" x1="472.41" y1="515.98" x2="1796.87" y2="-151.07" gradientUnits="userSpaceOnUse">
      <stop offset="0.19" stop-color="#24911f"/>
      <stop offset="0.38" stop-color="#4eac3d"/>
      <stop offset="0.57" stop-color="#6ec053"/>
      <stop offset="0.72" stop-color="#81cd61"/>
      <stop offset="0.83" stop-color="#88d166"/>
    </linearGradient>
    <linearGradient id="linear-gradient-6" x1="-4473.03" y1="389.71" x2="-3890.1" y2="96.13" gradientTransform="matrix(-1, 0, 0, 1, -3200.13, 0)" gradientUnits="userSpaceOnUse">
      <stop offset="0.1" stop-color="#198477"/>
      <stop offset="0.34" stop-color="#1d8d78"/>
      <stop offset="0.43" stop-color="#1a9079"/>
      <stop offset="0.71" stop-color="#15967a"/>
    </linearGradient>
    <linearGradient id="linear-gradient-7" x1="-5142.33" y1="433.18" x2="-4199.69" y2="-41.56" gradientTransform="matrix(-1, 0, 0, 1, -3200.13, 0)" gradientUnits="userSpaceOnUse">
      <stop offset="0.11" stop-color="#16595a"/>
      <stop offset="0.23" stop-color="#1b655d"/>
      <stop offset="0.34" stop-color="#217461"/>
      <stop offset="0.47" stop-color="#208a6a"/>
      <stop offset="0.61" stop-color="#209a70"/>
      <stop offset="0.72" stop-color="#20a072"/>
    </linearGradient>
    <linearGradient id="linear-gradient-8" x1="64.24" y1="371.87" x2="208.13" y2="-404.53" gradientUnits="userSpaceOnUse">
      <stop offset="0.15" stop-color="#1b7f1e"/>
      <stop offset="0.22" stop-color="#249526"/>
      <stop offset="0.33" stop-color="#2fae2f"/>
      <stop offset="0.42" stop-color="#35bd35"/>
      <stop offset="0.5" stop-color="#37c237"/>
    </linearGradient>
    <linearGradient id="linear-gradient-9" x1="-177.8" y1="560.02" x2="462.05" y2="-303.37" gradientUnits="userSpaceOnUse">
      <stop offset="0.16" stop-color="#1c8e60"/>
      <stop offset="0.31" stop-color="#2ea575"/>
      <stop offset="0.48" stop-color="#3db887"/>
      <stop offset="0.6" stop-color="#43bf8d"/>
    </linearGradient>
    <linearGradient id="Áåçûìÿííûé_ãðàäèåíò_50" data-name="Áåçûìÿííûé ãðàäèåíò 50" x1="177.12" y1="821.17" x2="177.12" y2="788.29" gradientUnits="userSpaceOnUse">
      <stop offset="0.18" stop-color="#2c4908"/>
      <stop offset="0.93" stop-color="#346019"/>
    </linearGradient>
    <linearGradient id="Áåçûìÿííûé_ãðàäèåíò_50-2" x1="141.89" y1="516.77" x2="141.89" y2="486.75" gradientTransform="translate(145.32 348.28) rotate(13.39)" xlink:href="#Áåçûìÿííûé_ãðàäèåíò_50"/>
    <linearGradient id="Áåçûìÿííûé_ãðàäèåíò_26" data-name="Áåçûìÿííûé ãðàäèåíò 26" x1="58.17" y1="914.48" x2="58.17" y2="661.8" gradientUnits="userSpaceOnUse">
      <stop offset="0" stop-color="#346019"/>
      <stop offset="0.52" stop-color="#6b8e42"/>
      <stop offset="1" stop-color="#859b34"/>
    </linearGradient>
    <linearGradient id="Áåçûìÿííûé_ãðàäèåíò_8" data-name="Áåçûìÿííûé ãðàäèåíò 8" x1="39.01" y1="920.4" x2="39.01" y2="739.53" gradientUnits="userSpaceOnUse">
      <stop offset="0.17" stop-color="#6b8e42"/>
      <stop offset="0.64" stop-color="#859b34"/>
      <stop offset="1" stop-color="#9bb53c"/>
    </linearGradient>
    <linearGradient id="Áåçûìÿííûé_ãðàäèåíò_5" data-name="Áåçûìÿííûé ãðàäèåíò 5" x1="31.56" y1="918.77" x2="31.56" y2="777.86" gradientUnits="userSpaceOnUse">
      <stop offset="0" stop-color="#6b8e42"/>
      <stop offset="0.08" stop-color="#74923d"/>
      <stop offset="0.24" stop-color="#819936"/>
      <stop offset="0.4" stop-color="#859b34"/>
      <stop offset="1" stop-color="#9bb53c"/>
    </linearGradient>
  </defs>
  <g class="cls-2">
    <g id="Layer_1" data-name="Layer 1">
      <g class="cls-3">
        <g>
          <rect class="cls-4" x="-292.79" y="-45" width="2188.09" height="880.27"/>
          <g>
            <path class="cls-5" d="M-21.45,117.42a989.85,989.85,0,0,1,132.7,11.29c46.33,7.19,62.73,13.37,116.26,19.86,47.25,5.73,73.59,10.39,105.93,5.07,21.8-3.58,33.3-8.87,101-33.76A504.92,504.92,0,0,1,514,91.39C542.24,83.8,614.48,66.89,713.24,72c0,0,5.68.3,11.07.67,97.08,6.64,215.26,57.78,288.28,93.44a881.79,881.79,0,0,0,139.88,33.43c124.19,19.39,224.12,9.91,252.34,6.1,103.5-13.94,202.31-48.86,202.31-48.86,165.33-64,9-3.37,9-3.37q1.86,47.13,3.71,94.28l-1633-1.1Z"/>
            <g>
              <path class="cls-6" d="M43.6,260.7s409.57-217.15,997.67-20.94V260.7Z"/>
              <path class="cls-7" d="M902.17,252S1402.91,65.12,1619,63c882.93,54.05-2.93,186.57-2.93,186.57Z"/>
            </g>
          </g>
          <path class="cls-8" d="M486,270s74.25-157.64,207.89-76.6c69.8-123.62,181.17,0,181.17,0,20.79-157.73,121.76,10.83,121.76,10.83s23.76-79.26,144-6.23c98-36.12,121.77,48.71,121.77,48.71C1304.21,250.57,1527,270,1527,270Z"/>
          <g>
            <path class="cls-9" d="M1268.15,279s-28.13-55.62-97.07-31.13c-22.69-34.47-59-30.6-80.75-6.23-29.94-52.74-61.69,9.2-61.69,9.2-20.87-44.7-66.23,7-66.23,7-32.66-29-63.5,12.24-63.5,12.24C867.16,248.78,810,279,810,279Z"/>
            <path class="cls-10" d="M1930.53,198.7s-366.66-136.95-349-79.79c-57.16-33.63-89.94-2.52-82.38,29.42-43.71-5-82.38,58.84-51.28,76.5,0,0-44.55-23.54-89.1,11.77-26.9-37-165.6,13.45-177.37,42,54.64.84,735.35,10.82,735.35,10.82Z"/>
          </g>
          <path class="cls-11" d="M-284.62,39.21C-280,39.89-42.81,14.12-37.69,15.5A134.76,134.76,0,0,1-.7,31.93c54.26-32.72,135.64-15,107.28,129.53,66.59-25.9,91.25-20.45,115.91,19.09,0,0,140.57-49.08,175.1,24.55,75.21-10.91,92.14,2.22,98.3,52.71C-50.4,263.3-51.29,261-51.29,261-51.62,178.15-284.29,122.06-284.62,39.21Z"/>
          <path class="cls-12" d="M-559.15,216.82S-516-145.21-155,86.39c0,0,49.05,29.59,53,64.77C-45.12,123,39.25,118.08,84.37,194.88c88.29-25.6,135.38-27.13,225.63,12,82.4-13.25,137.34,9.67,188.35,54.89,109.87.12,201.71,35.2,201.71,35.2H-567Z"/>
          <g>
            <path class="cls-13" d="M1586.86,274.62c-68.57-9.13-136.91-17.87-205.89-23.29q-107.15-8.43-214.62-11.24C1023.26,236.24,880,238.55,737,244c-143.4,5.42-286.51,16.78-429.93,21.57-71.24,2.37-142.57,3.26-213.83,1.21-55.74-1.61-358.82-4-413.55-15.11L-73.8,622.5l2050.29-.58L2011,293.36C1989.92,291,1607.83,277.41,1586.86,274.62Z"/>
            <path class="cls-13" d="M1862.71,334.49c-88.83-16.16-177.38-31.62-266.74-41.22q-138.79-14.92-278-19.89c-185.38-6.81-371-2.72-556.29,6.84-185.79,9.59-371.19,29.7-557,38.17-92.3,4.2-184.7,5.78-277,2.14-72.22-2.85-145.43-3.64-216.33-23.34V950h2233V348.27C1917.07,344.13,1889.87,339.42,1862.71,334.49Z"/>
            <g>
              <path class="cls-14" d="M1579,274.62c-77.12-9.13-154-17.87-231.57-23.29q-71.09-5-142.33-7.89l14.25,2.71c33,6.3,66.3,12,98.64,20.83,24.34,6.61,72.63,17.6,87.06,37.07,24.72,33.33-75.73,37.88-92.18,39.36C1207,353,1098,339.94,992.94,328.32c-79.19-8.76-158.54-16.74-238.15-21.85-159.86-10.26-900.39-5.32-933.46-11.76a2.13,2.13,0,0,1,0-4.19c37.87-9.76,76.32-17,115-23.06q-18.65-.27-37.27-.72c-62.69-1.61-126.25-2.06-187.8-13.19L-303,508.87c3.63-.21,21.52,18.45,25,18.22,25.39-1.67,50.71-4.45,76-6.75,55.48-5,111.28-10.89,167-12.54,113.46-3.35,227.15-3.7,340.52,2.28,80.31,4.23,160.41,12.81,240.46,19.86,76,6.69,494,46.55,616.07,92.56L2001,632.91V289.45C1977.35,287.11,1602.59,277.41,1579,274.62Z"/>
              <path class="cls-15" d="M1587.3,274q-20.43-2.71-40.83-5.36c14.74,8.71,28.37,20.54,30.65,37.11,4.59,33.35-37.76,52.71-63.85,57.29-23.3,4.09-46.85,3.75-70.41,3.53-33.55-.3-67.13,1-100.69.82-286.54-1.48-588.11,48.63-874.35,40.29-141.63-4.13-426-17.54-567.53-8.47-44.27,2.83-260.94-68.75-304.94-63.53L-375,517.82c18.24.2,338.12-7.52,356.37-7.72,142.16-1.49,284-13,426.11-15.68,71.18-1.32,142.69-1,213.68,4.9,68.37,5.67,136.54,13.56,204.47,23.17,187.17,26.47,372.27,65,558.07,99.42l680.11,11,64.77-333.84C2107.55,296.73,1608.26,276.82,1587.3,274Z"/>
            </g>
          </g>
          <path class="cls-16" d="M530.74,541.51s-8.59-12-13.78-13.68c0,0,12.11-2.23,21.45,12.12,0,0-11.49-27.46-21.93-28.63,0,0,16.92-1.32,28,23.82,0,0-.67-24-11.11-25.14,0,0,20.93-1.92,21.63,21.11,0,0-1.23-18.34-6.68-25.26,0,0,11.06,6.8,11.22,19.94l1.88-12.2L563.58,528,569,515.23l-.22,11.31s3.5-14.66,13.2-15.84c0,0-6.34,13.29-6,20.3,0,0,5-11.86,14.27-12.51,0,0-7.87,11-8.4,16.65,0,0,14-16.81,24.12-19.39,0,0-10.4,16.65-11.34,25.18,0,0,6.72-16.15,24.9-19.43,0,0-10.59,7.3-12.73,12.08,0,0,9.81-7.79,16.93-3.29,0,0-12-.58-17,8.92l17.63,1.94-14.87.33,3.1,4.6-12-2.07,1.1,4.28-12.36-3.92-.43,2.31L583,550.55l-9.86-1.09-4.72-3.21-3.67,2L561.61,546l-8.18,4.85.53-4.73-11.79,6,3.33-5.33-10.12,4.51,2.86-3.84-11.68,2.14,3.26-3.35-15.61-1Z"/>
          <path class="cls-17" d="M1038.47,585.86s-5.78-8.64-19.57-12.57-6.68-14.65,21.76,6.28c2.73-3.33-5.6-18.87-14.28-29.65s17.56-4,21.39,14.57l3.82,18.62s3.83-17.39,18.59-22,12.11-2.29-9.25,21.52C1053.23,588.15,1038.47,585.86,1038.47,585.86Z"/>
          <path class="cls-17" d="M1435.77,708.18s-11.72-17.52-39.68-25.48-13.55-29.72,44.12,12.74c5.55-6.77-11.35-38.29-29-60.15s35.62-8.22,43.38,29.55l7.76,37.77s7.77-35.28,37.71-44.58,24.56-4.65-18.77,43.65C1465.72,712.82,1435.77,708.18,1435.77,708.18Z"/>
          <path class="cls-16" d="M20,812.75S9.53,798.12,3.21,796.08c0,0,14.75-2.72,26.14,14.76,0,0-14-33.46-26.73-34.88,0,0,20.62-1.61,34.16,29,0,0-.82-29.19-13.54-30.63,0,0,25.5-2.34,26.35,25.73,0,0-1.5-22.35-8.14-30.79,0,0,13.48,8.29,13.67,24.3l2.29-14.86L60,796.31l6.65-15.59-.26,13.79s4.26-17.87,16.07-19.3c0,0-7.71,16.18-7.33,24.73,0,0,6.14-14.46,17.39-15.25,0,0-9.59,13.43-10.23,20.29,0,0,17.09-20.48,29.38-23.62,0,0-12.67,20.28-13.81,30.67,0,0,8.19-19.67,30.34-23.67,0,0-12.91,8.9-15.51,14.72,0,0,12-9.49,20.63-4,0,0-14.62-.71-20.73,10.86l21.48,2.37L116,812.7l3.78,5.62-14.63-2.53,1.34,5.21-15.06-4.78L90.86,819l-7.22,4.71-12-1.32-5.75-3.91-4.48,2.38-3.8-2.68-10,5.92.65-5.76-14.36,7.3,4-6.5-12.32,5.49L29.13,820,14.9,822.61l4-4.09-19-1.28Z"/>
          <path class="cls-16" d="M283.92,565.94s-8.59-12-13.78-13.68c0,0,12.11-2.24,21.45,12.11,0,0-11.49-27.45-21.93-28.62,0,0,16.92-1.33,28,23.82,0,0-.67-24-11.11-25.15,0,0,20.93-1.92,21.63,21.12,0,0-1.23-18.34-6.68-25.26,0,0,11.06,6.79,11.21,19.94l1.89-12.2,2.12,14.43,5.46-12.8L322,551s3.5-14.67,13.19-15.84c0,0-6.33,13.28-6,20.29,0,0,5-11.86,14.27-12.51,0,0-7.88,11-8.4,16.66,0,0,14-16.82,24.12-19.39,0,0-10.4,16.65-11.34,25.17,0,0,6.72-16.15,24.9-19.43,0,0-10.59,7.31-12.73,12.08,0,0,9.81-7.78,16.93-3.28,0,0-12-.58-17,8.92l17.63,1.94-14.86.32,3.09,4.61-12-2.07,1.1,4.27-12.36-3.92-.43,2.31L336.15,575l-9.85-1.09-4.72-3.2-3.68,2-3.11-2.2-8.18,4.86.53-4.73-11.79,6,3.32-5.34-10.11,4.51,2.85-3.84L279.74,574l3.26-3.35-15.61-1.06Z"/>
          <g>
            <path class="cls-18" d="M84.18,644.5s-2.65,18.51.73,44.33,15.22,37,15.22,37l6-6.16s-7.93-13.89-9.85-22.1c0,0,8-17.4,9.85-31a4,4,0,0,0-3.91,3c-.92,3.14-5.9,13.79-9.2,19.15,0,0-2.88-4.9-3.76-18.5s-.08-21.35-.73-23.44S84.18,644.5,84.18,644.5Z"/>
            <path class="cls-18" d="M195.11,825.65a72.24,72.24,0,0,0,20.86-17c8.78-10.88,9.34-17.88,9.34-17.88s3.75-.36,3.1,3.82-8.29,15.63-8.29,15.63,7.65-.65,12.4-3.55a2.9,2.9,0,0,1,1.21,3.55c-1,2.21-12.58,5.83-15,6.28s-12.32,9-12.68,9.14S195.11,825.65,195.11,825.65Z"/>
            <path class="cls-19" d="M146,809.53s26.53-20.08,37.88-21.17,29.11,9.55,23.31,26.46S146,809.53,146,809.53Z"/>
            <path class="cls-20" d="M130.77,863.17s19-9.62,44.84-6.84,32.68,18.52,23.9,27.92C193.53,890.66,163.07,890.93,130.77,863.17Z"/>
            <path class="cls-21" d="M-17.21,910.53S-65,917.47-85.29,895.89s-11.84-67.18,28.43-61.13c0,0-50.87-31.18-43.81-77.24s61.58-40,83.46-14.52c0,0-14.85-67.3,25.74-79.54s64,46.71,65.49,65.39c0,0,30.42-51.7,65.85-39.78s14.74,80.21,14.74,80.21,21.42-8.25,31.4,6-14.25,41.55-14.25,41.55,37.93-3.72,44.21,13.77c8.22,22.87-14.25,32.53-45.18,41.55,0,0,13.27,3.44,13.77,13.77.73,15-16,23.44-29.23,27.3S-17.21,910.53-17.21,910.53Z"/>
            <path class="cls-22" d="M1.44,918.26c-1,0-61.52-11.28-67-39.62S-24.65,851.9-5,870.58c0,0-48.12-40.23-44.35-73.59s50.79-18.21,62.71,13c0,0,3.54-65.15,28.91-70.23C64.39,735.38,80,786.91,80,786.91s30.44-25.85,44.45-10.18c17.19,19.22-18.6,89.67-18.6,89.67s32.21-8.7,37.68,8.37-33.17,28-33.17,28,29.31-.65,32.21,11S1.44,918.26,1.44,918.26Z"/>
            <path class="cls-23" d="M17.14,911.33s-50.25-8.94-50.73-27.06,44.94,1.21,44.94,1.21S-12.33,849.1-3.87,830,39.86,835,39,872c0,0-12-84.55,5.43-93s28,35.13,25.61,51c0,0,13.29-14.55,22.47-4.16s-17.4,35.67-17.4,35.67,14.5-7.41,17.4,3.95-25.61,26.7-25.61,26.7,22.23-5,28.51,8.33S83,918.6,81.85,918.77,17.14,911.33,17.14,911.33Z"/>
            <path class="cls-24" d="M218,739.52c5.14-8.83,6.69-21.17,3-24.16s-21.36,4.92-24.94,21.42S209.58,753.9,218,739.52Z"/>
            <path class="cls-24" d="M211.27,771.26c7.79-.72,16.17-5.23,16.4-8.85s-12.55-11.13-24.43-6S198.58,772.42,211.27,771.26Z"/>
            <path class="cls-24" d="M193.35,911.24c5.07,8.88,15,16.4,19.4,14.72s6.44-21-6-32.31S185.1,896.79,193.35,911.24Z"/>
            <path class="cls-24" d="M215.64,890.86c7.64,1.7,17,0,18.33-3.41s-8.54-14.44-21.41-13.22S203.21,888.09,215.64,890.86Z"/>
            <path class="cls-24" d="M239.11,800.2c8.13-6.19,14.3-17,12-21.16s-21.61-3.64-31.25,10.23S225.86,810.27,239.11,800.2Z"/>
            <path class="cls-24" d="M234.3,821.15c7.47,2.33,16.94,1.37,18.54-1.88s-7.32-15.1-20.25-14.94S222.13,817.37,234.3,821.15Z"/>
            <path class="cls-24" d="M186.58,743c-.78-8.65-5.77-18-9.79-18.24s-12.4,13.92-6.76,27.12S187.85,757.14,186.58,743Z"/>
            <path class="cls-24" d="M116.48,645.78c5.14-8.83,6.69-21.17,3-24.16S98.14,626.54,94.56,643,108.11,660.17,116.48,645.78Z"/>
            <path class="cls-24" d="M113.78,677c6.66-4.11,12.16-11.87,10.76-15.22s-16.19-4.39-24.57,5.45S102.93,683.64,113.78,677Z"/>
            <path class="cls-24" d="M91.88,645.44c-.78-8.66-5.78-18-9.8-18.24s-12.39,13.91-6.75,27.12S93.14,659.53,91.88,645.44Z"/>
            <path class="cls-25" d="M29.65,688.27C27.77,679.12,21.3,669.75,17,670S5.41,686.34,13,699.78,32.71,703.19,29.65,688.27Z"/>
            <path class="cls-25" d="M44.45,714c4.88-5.24,7.84-13.43,5.79-16S34.89,698,29.9,708.74,36.51,722.53,44.45,714Z"/>
            <path class="cls-25" d="M8.43,707.87c-7.2-3.39-16.87-3.76-18.93-.71S-5.24,723.38,7.79,725,20.14,713.38,8.43,707.87Z"/>
          </g>
          <g>
            <g>
              <g>
                <g>
                  <polygon class="cls-26" points="631.14 917.6 572.41 892.68 314.28 979.29 367.23 1012.66 631.14 917.6"/>
                  <polygon class="cls-27" points="604.07 718.56 462.39 755.35 443.23 985.65 367.23 1012.66 363.95 1052.1 628.16 953.52 631.14 917.6 576.94 936.94 604.07 718.56"/>
                  <polygon class="cls-28" points="443.23 985.65 390.14 958.89 411.86 744.76 462.39 755.35 443.23 985.65"/>
                </g>
                <g>
                  <path class="cls-27" d="M1528.81,654.29,1453,629.49s-27.51,53.25-50.5,165.45-33.56,197.07-54.11,226.28-116.75,71.73-263.21,94.85c0,0-53,1.47-66.65,37.33l60.17,39.32L1226,1144.61l155.67-35.89,59.58-99.33,21.09-149.25,36.21-134.06Z"/>
                  <path class="cls-29" d="M1085.49,1229.46l-6.82-36.74s41.69-56.83,195.84-66.84c142-9.23,151.25-136.54,151.25-136.54s16.59-162.68,40-214.16,45.8-101.13,63.06-120.89L1541.06,693s-52.87,74.43-65.93,177-12.52,186.68-68,235.92-149.75,51.63-149.75,51.63S1134.81,1163.27,1085.49,1229.46Z"/>
                </g>
              </g>
              <g>
                <path class="cls-27" d="M689.33,408.85l-59.08-19.32S608.82,431,590.9,518.43,564.76,672,548.75,694.73s-91,55.88-205.07,73.89c0,0-41.25,1.15-51.93,29.09l46.88,30.63,114.79-37.48,121.28-28,46.42-77.39,16.43-116.28,28.22-104.44Z"/>
                <path class="cls-29" d="M343.94,857l-5.31-28.62s32.48-44.27,152.58-52.08c110.64-7.18,117.84-106.37,117.84-106.37S622,543.14,640.21,503s35.67-78.78,49.12-94.18L698.88,439s-41.19,58-51.37,137.88-9.75,145.43-53,183.8-116.67,40.23-116.67,40.23S382.37,805.4,343.94,857Z"/>
                <polygon class="cls-30" points="343.94 856.96 296.61 823.83 291.75 797.71 338.63 828.35 343.94 856.96"/>
              </g>
              <g>
                <path class="cls-27" d="M1045,496.59,988,478s-20.67,40-38,124.36-25.22,148.11-40.66,170.06-87.75,53.92-197.82,71.29c0,0-39.8,1.1-50.1,28.05l45.23,29.56,110.73-36.16,117-27,44.78-74.66,15.85-112.17,27.22-100.76Z"/>
                <path class="cls-29" d="M711.84,928.88l-5.12-27.61S738.05,858.56,853.91,851c106.73-6.93,113.67-102.62,113.67-102.62s12.47-122.27,30.06-161,34.42-76,47.39-90.86l9.21,29.11s-39.74,55.94-49.55,133S995.27,799,953.54,836,841,874.82,841,874.82,748.91,879.13,711.84,928.88Z"/>
                <polygon class="cls-30" points="711.84 928.88 666.17 896.92 661.49 871.72 706.72 901.27 711.84 928.88"/>
              </g>
              <g>
                <polygon class="cls-31" points="1309.64 1047.85 1308.02 1085.63 451.83 686.98 452.91 661.95 1309.64 1047.85"/>
                <polygon class="cls-32" points="1309.64 1047.85 452.91 661.95 517.54 657.97 1366.24 1029.56 1309.64 1047.85"/>
              </g>
              <g>
                <polygon class="cls-31" points="1238.4 1071.68 1236.16 1109.43 386.55 696.96 388.03 671.95 1238.4 1071.68"/>
                <polygon class="cls-32" points="1238.4 1071.68 388.03 671.95 452.71 669.02 1295.29 1054.31 1238.4 1071.68"/>
              </g>
              <g>
                <polygon class="cls-31" points="1177.84 1093.65 1175.6 1131.39 326.02 718.85 327.5 693.85 1177.84 1093.65"/>
                <polygon class="cls-32" points="1177.84 1093.65 327.5 693.85 392.19 690.92 1234.73 1076.28 1177.84 1093.65"/>
              </g>
              <g>
                <polygon class="cls-32" points="1160.03 1099.77 1115.65 1158.86 268.31 744.98 308.25 708.68 1160.03 1099.77"/>
                <polygon class="cls-31" points="268.31 744.98 288.99 774.06 1126.66 1188.5 1115.65 1158.86 268.31 744.98"/>
              </g>
              <g>
                <polygon class="cls-32" points="1405.48 1009.27 1413.35 936.55 540.27 579.85 539.04 640.5 1405.48 1009.27"/>
                <polygon class="cls-31" points="1441.18 932.23 566.26 582.66 540.27 579.85 1413.35 936.55 1441.18 932.23"/>
              </g>
              <g>
                <polygon class="cls-32" points="1443.86 898.88 1449.3 825.94 568.69 499.85 565.65 559.08 1443.86 898.88"/>
                <polygon class="cls-33" points="1449.3 825.94 1476.98 820.7 1471.37 893.49 1443.86 898.88 1449.3 825.94"/>
                <polygon class="cls-31" points="1476.98 820.7 590.94 500.37 568.69 499.85 1449.3 825.94 1476.98 820.7"/>
              </g>
              <g>
                <polygon class="cls-32" points="1461.53 794.9 1470.63 720.57 577.21 418.2 573.95 480.38 1461.53 794.9"/>
                <polygon class="cls-33" points="1468.89 720.95 1496.28 716.92 1488.87 788.72 1461.53 794.9 1468.89 720.95"/>
                <polygon class="cls-31" points="1496.28 716.92 602.94 420.28 577.21 418.2 1468.89 720.95 1496.28 716.92"/>
              </g>
              <g>
                <polygon class="cls-32" points="1493.79 687.82 1540.25 628.93 628 352.74 590.87 389.37 1493.79 687.82"/>
                <polygon class="cls-31" points="1493.79 687.82 1506.88 711.98 606.47 410.77 590.87 389.37 1493.79 687.82"/>
                <polygon class="cls-33" points="1493.79 687.82 1540.25 628.93 1552.65 663.27 1506.88 711.98 1493.79 687.82"/>
              </g>
            </g>
            <g>
              <g>
                <g>
                  <path class="cls-34" d="M687.11,605.14s-233.34,48.68-247,101.79S492.4,963.6,492.4,963.6l103.79,61.15,63.57-223.68,71.1-11.55,11-56.28Z"/>
                  <path class="cls-35" d="M440.1,706.93C426.42,760,492.4,963.6,492.4,963.6S674.9,780.29,590,806.82C383.08,871.53,447.31,678.91,440.1,706.93Z"/>
                  <path class="cls-35" d="M664.27,783.25s156.41-70.47,24.84-109.41C632.23,657,664.27,783.25,664.27,783.25Z"/>
                  <path class="cls-36" d="M508.92,819.25,534,838.41c4.19,3.18,8.42,6.31,12.56,9.56l6.2,4.89c2.07,1.61,4.1,3.3,6.23,4.83l0,.09c-2.31-1.31-4.44-2.86-6.6-4.37s-4.26-3.09-6.38-4.65c-4.23-3.15-8.33-6.45-12.45-9.72q-12.4-9.78-24.68-19.71Z"/>
                  <path class="cls-36" d="M515.9,811.58l30.52,8.11c5.09,1.34,10.2,2.61,15.27,4l7.59,2.15c2.54.7,5.05,1.48,7.61,2.09v.1c-2.64-.33-5.2-.95-7.77-1.52s-5.12-1.23-7.68-1.86c-5.1-1.29-10.16-2.78-15.22-4.22q-15.19-4.31-30.34-8.79Z"/>
                  <path class="cls-36" d="M601.18,746.75,630,759.66c4.8,2.14,9.64,4.22,14.41,6.43l7.15,3.35c2.39,1.1,4.75,2.28,7.17,3.28l0,.1c-2.55-.75-5-1.77-7.43-2.74s-4.85-2-7.28-3.07c-4.82-2.1-9.57-4.38-14.34-6.62q-14.29-6.69-28.53-13.55Z"/>
                </g>
                <g>
                  <path class="cls-37" d="M1062.87,822s-11.27,45.86-24.14,71.61c0,0-145.44,60-283.83,43.89,0,0-124.92,140.36-231.93,223.24,0,0-43.45,18.5-74,6.44s-62-66.79-42.65-104.6c0,0,142.42-177,174.6-241.39,0,0,9-28.16,141.62-69.95C794.13,714.1,1062.87,822,1062.87,822Z"/>
                  <polygon class="cls-36" points="580.05 835.27 570.2 870.53 560.19 905.75 540.16 976.18 519.82 1046.52 509.64 1081.69 499.31 1116.82 509.17 1081.56 519.18 1046.34 539.2 975.91 559.55 905.57 569.73 870.4 580.05 835.27"/>
                </g>
              </g>
              <g>
                <path class="cls-38" d="M839.18,343.64c-3.57,1-59.54,18.51-169.77,120.29-59.89,55.3-22.53,118.28-22.53,118.28s39.43,38.22,78,4,182-158.73,149.5-235.16C869.45,339.37,842.76,342.69,839.18,343.64Z"/>
                <path class="cls-39" d="M710,553.49C703,609,681,634,654.12,653.82c-20.94,15.46-91.44,44-123.43,56.61-9.82,3.87-16,6.22-16,6.22s1.11-6.49-10.31-23.95C483.66,661.06,449,682.38,449,682.38v-8.85S648.49,477.82,657.74,476.21C657.74,476.21,717.46,494,710,553.49Z"/>
                <path class="cls-40" d="M417.63,733.24s-7.35,28.67.29,65.86,30.5,46.69,30.5,46.69,9.24-3.81,1-21.1-20.09-76.42-20.09-76.42Z"/>
                <path class="cls-41" d="M504.46,729.86s3.74,42.48-7.64,59.66c-14.48,21.86-20.52,16.64-23.74-19.7s-11.26-18.59-11.26-18.59-7.85,27.71,4.27,85c-3.67,10.26-17.14,28.36-41.28-48.08-12.88-62-4.83-58.33-4.83-58.33l29-47.48s56.32-34.39,65.73,34.27Z"/>
              </g>
              <g>
                <path class="cls-42" d="M1118.38,382l94.15,65,12.06,18.5s-16.09-16.9-27.35-10.46c0,0-21.73-12.07-60.35,117.48,0,0-20.92,148.85-72.41,261.49,0,0-44.26,45.06-123.11,16.9,0,0-25.75-7.24-73.22-43.45,0,0-66.78-61.15-165.75-48.27,0,0-76.44-57.94-12.87-168.17,0,0,62-94.94,89.31-111.84,0,0,24.14-37,29-47.47s23.34-68.95,54.32-89.06c0,0,160.11-5.08,197.53,16.64Z"/>
                <path class="cls-43" d="M1112.49,510.6c4.17-15.08,32.51-87.5,60.68-87.52,20.29,0,40.58,24,40.58,24l10.84,18.5s-14.46-16.9-24.59-10.46c0,0-19.52-12.07-54.24,117.48,0,0-32.41,56.76-46.5,35.4C1089.91,593.77,1098.33,561.76,1112.49,510.6Z"/>
                <path class="cls-43" d="M1047.92,448.64c-16,35.53-109,75.64-160.6,11.07-42-52.5,63.61-61.76,63.61-61.76S1065.28,410.21,1047.92,448.64Z"/>
                <path class="cls-43" d="M868.15,340s-10.48,2.21-22,17.67-13.37,16.14-30.75,55.08L806.69,434l-13,21.88s61.6-109,90.12-100.17C895.15,359.22,868.15,340,868.15,340Z"/>
                <path class="cls-44" d="M1069.22,815a60.38,60.38,0,0,1-24.36,20.64c-9.79,4.58-20.55,6.74-31.28,7.47a159.5,159.5,0,0,1-32.24-1.54q-8-1.14-15.9-2.83t-15.69-3.81a444.18,444.18,0,0,1-60.57-22.17q-14.74-6.56-29.12-13.88c-9.56-4.94-19-10.07-28.24-15.58,9.31,5.37,18.84,10.35,28.46,15.14s19.32,9.4,29.17,13.71A444,444,0,0,0,950,833.92q7.77,2.13,15.63,3.88t15.82,2.9a158.71,158.71,0,0,0,32.07,1.7c10.68-.67,21.38-2.77,31.13-7.25a61.56,61.56,0,0,0,13.62-8.44A60.76,60.76,0,0,0,1069.22,815Z"/>
                <path class="cls-44" d="M1071.28,600.32A50.89,50.89,0,0,1,1058.86,613a56.87,56.87,0,0,1-16,7.87c-11.43,3.56-23.57,4.06-35.43,3.2a165.07,165.07,0,0,1-17.71-2.35q-8.79-1.6-17.43-3.91a339.6,339.6,0,0,1-34-11.06,581.78,581.78,0,0,1-64.69-30.14q-15.73-8.43-31.06-17.57c-10.19-6.14-20.27-12.46-30.13-19.12,10,6.52,20.11,12.7,30.38,18.7s20.62,11.85,31.12,17.4a581.45,581.45,0,0,0,64.73,29.8A339.48,339.48,0,0,0,972.53,617q8.6,2.36,17.36,4a166.16,166.16,0,0,0,17.62,2.42c11.8.91,23.87.46,35.23-3a56.47,56.47,0,0,0,16-7.61A50.65,50.65,0,0,0,1071.28,600.32Z"/>
              </g>
              <g>
                <path class="cls-38" d="M1213.2,454.28S1334,554.05,1357.36,600.72s5.63,60.34,5.63,60.34-34.2,25-74,24.14-157.7-96.55-157.7-96.55,11.67-59.75,31.78-97.56C1184.32,451.08,1193.89,448.64,1213.2,454.28Z"/>
                <path class="cls-39" d="M1266.36,548.36c-29.78-11.25-81.54,4.87-81.54,4.87L1060.64,603l27,82.2a15.58,15.58,0,0,0,18.12,14c194.3-9.06,212.39-14,212.39-14s61-8.28,50.68-51.2c0,0-5.16-38.25-35-66"/>
                <path class="cls-41" d="M1064.07,605.14s45.87,26,44.06,83.88h-29.57s.6,15.69-3.62,28.37l-3,10.86s-65.31,26.27-74.9,26.27a20.16,20.16,0,0,1-15-7s24.14-104.4,36.21-117.68S1064.07,605.14,1064.07,605.14Z"/>
                <path class="cls-40" d="M982,747.56s10.87,44.05,37.42,50.09c5.88,1.33,30.73-19.55,28.34-24.86s-16.27-14.37-16.27-14.37l-21.14-15.32"/>
                <path class="cls-45" d="M1041.54,732.65l22.53,21.87,21.1,9.43s-37.18,22.58-77-20.85"/>
                <path class="cls-41" d="M1067.09,722.21a43.08,43.08,0,0,1,16.9,16.9l20.52-8.45s18.7,13.28,0,27.16-41.64,0-41.64,0l-24.14-25.17"/>
                <path class="cls-46" d="M1060.64,603s52.18,24.64,47.54,96.14"/>
              </g>
              <g>
                <path class="cls-47" d="M1062,403.78s-41.86,74.83-128.42,42.05-13.71-64-13.71-64Z"/>
                <path class="cls-38" d="M1091.11,374c3-2.9,15.26,29-23.42,86.89-34.38,51.53-42.42,48.28-42.42,48.28s3.09-70.86-6-65.56c-14.35,8.39-30.64,10.5-30.64,10.5S1074,390.71,1091.11,374Z"/>
                <path class="cls-38" d="M915.88,391.32s-11.3,38.41-4.27,44.44c0,0-22.34-22.66-50.3,23.95,0,0-19.56-27.56,24-92.83S915.88,391.32,915.88,391.32Z"/>
              </g>
              <g>
                <path class="cls-48" d="M921.91,164.53S912.9,149,893,152.26s-39.16,69.58-39.16,69.58l16.86,17.73,11.74,6Z"/>
                <path class="cls-41" d="M879.92,245.58s-3.56-13.37-13.52-23.21S825.21,196,835.18,260.75s27.06,45.54,27.06,45.54l17.68-51.42Z"/>
                <ellipse class="cls-47" cx="852.03" cy="263.3" rx="12.47" ry="30.58" transform="translate(-38.43 214.72) rotate(-14.05)"/>
                <path class="cls-41" d="M1038.27,115.9S1139.68,143.24,1156.05,241c15.11,90.19-13.52,136.37-76.86,162.62S944,414.52,931.87,407.23,851.42,362,863.52,281.8c0,0,24.61-100.17,64.08-132.72,29.18-24.07,66.9-36.17,107.47-33.54Z"/>
                <g>
                  <g>
                    <circle class="cls-49" cx="1039.06" cy="232.99" r="35.35"/>
                    <path class="cls-50" d="M1004.1,227.79a35.09,35.09,0,0,0,29.8,39.92,35.12,35.12,0,1,0-25.12-52.88A35.5,35.5,0,0,0,1004.1,227.79Zm0,0A35.43,35.43,0,0,1,1018,204.53a35.59,35.59,0,1,1,2.83,58.91,36.16,36.16,0,0,1-10.2-9.36,35.44,35.44,0,0,1-6.5-26.29Z"/>
                  </g>
                  <g>
                    <path class="cls-49" d="M1033.87,143s32.2,8.11,42.94,30.18,9-2.71,0-17.12a37.36,37.36,0,0,0-17.76-15.76l-9.36-3.16,3.39-3.6S1035.56,131.7,1033.87,143Z"/>
                    <path class="cls-51" d="M1033.87,143a92.78,92.78,0,0,1,21.47,8.69,70.29,70.29,0,0,1,9.64,6.52,48.68,48.68,0,0,1,8.18,8.3c.62.75,1.14,1.59,1.71,2.38s1.05,1.65,1.5,2.52c.94,1.73,1.74,3.46,2.69,5.13.47.83,1,1.65,1.49,2.44a10.82,10.82,0,0,0,1.77,2.11c.32.28.72.45.84.37s.37-.43.45-.84a10.86,10.86,0,0,0,.11-2.75,48,48,0,0,0-2.51-11.16,50.58,50.58,0,0,0-4.8-10.4h0l0,0a35.57,35.57,0,0,0-5-6.74,36.94,36.94,0,0,0-6.34-5.5,31.49,31.49,0,0,0-7.46-3.82l-8-2.77-.46-.16.33-.35,3.42-3.58.17.47a34.51,34.51,0,0,0-5.84,0,24.83,24.83,0,0,0-5.73,1.11,12.77,12.77,0,0,0-5,2.93,9.35,9.35,0,0,0-1.72,2.36A10.82,10.82,0,0,0,1033.87,143Zm0,0a10.8,10.8,0,0,1,.82-2.83,9.68,9.68,0,0,1,1.68-2.43,13.16,13.16,0,0,1,5-3.1,25.49,25.49,0,0,1,5.79-1.27,32.72,32.72,0,0,1,5.94-.1l.56,0-.39.42-3.37,3.63-.12-.51,8.09,2.66a31.34,31.34,0,0,1,7.69,3.81,38.33,38.33,0,0,1,6.52,5.61,36.09,36.09,0,0,1,5.13,6.92l0,0a51.45,51.45,0,0,1,4.94,10.58,46.76,46.76,0,0,1,2.54,11.42,11.45,11.45,0,0,1-.15,3,3.18,3.18,0,0,1-.28.8,1.49,1.49,0,0,1-.76.72,1.37,1.37,0,0,1-1-.08,3.42,3.42,0,0,1-.72-.46,11.34,11.34,0,0,1-1.93-2.32c-.55-.82-1-1.66-1.52-2.51-1-1.69-1.77-3.49-2.67-5.15-.44-.85-1-1.65-1.46-2.47s-1.05-1.6-1.66-2.34c-4.61-6.13-10.79-11-17.41-14.86A95.36,95.36,0,0,0,1033.87,143Z"/>
                  </g>
                  <g>
                    <path class="cls-49" d="M1004.2,143.34s-33.42-3.88-55.13,12.26-6.67-5.57,9.34-15.41c0,0,10.92-7.8,24.6-8l10.15.41-1.09-4.42S1008.82,132.61,1004.2,143.34Z"/>
                    <path class="cls-51" d="M1004.2,143.34a102.42,102.42,0,0,0-17,.09,99.18,99.18,0,0,0-16.7,2.78c-1.36.4-2.73.74-4.07,1.18l-4,1.41-3.87,1.7a15.11,15.11,0,0,0-1.89.94l-1.86,1a31.38,31.38,0,0,0-3.58,2.22l-1.75,1.17-1.72,1.25c-1.16.84-2.33,1.65-3.54,2.41a22.6,22.6,0,0,1-3.83,2,4.88,4.88,0,0,1-1.14.3,1.88,1.88,0,0,1-.7,0,1.11,1.11,0,0,1-.71-.57,2,2,0,0,1,0-1.39,6.61,6.61,0,0,1,.44-1,23.69,23.69,0,0,1,2.42-3.61,61.76,61.76,0,0,1,5.8-6.3,78.38,78.38,0,0,1,6.49-5.57c1.14-.86,2.3-1.7,3.49-2.49l1.78-1.14c.6-.41,1.21-.78,1.83-1.15a50.79,50.79,0,0,1,16-6,34.9,34.9,0,0,1,8.53-.61l8.51.4-.3.36-1-4.42-.1-.44.42.12a29,29,0,0,1,5.19,2.11,20.48,20.48,0,0,1,4.6,3.17,9.83,9.83,0,0,1,2.92,4.71A8.61,8.61,0,0,1,1004.2,143.34Zm0,0a8.58,8.58,0,0,0,.52-5.42,9.63,9.63,0,0,0-3-4.54,20.05,20.05,0,0,0-4.6-3,30.21,30.21,0,0,0-5.14-2l.32-.32,1.11,4.42.09.36h-.39c-5.65-.06-11.35-.85-16.86.43a50.46,50.46,0,0,0-15.66,6c-.6.36-1.2.73-1.77,1.12l-1.79,1.16q-1.75,1.17-3.42,2.46a76.27,76.27,0,0,0-6.39,5.53,66.88,66.88,0,0,0-5.71,6.2,22.21,22.21,0,0,0-2.34,3.44,5.39,5.39,0,0,0-.38.9,1.23,1.23,0,0,0-.08.69s0,0,.1.06a1,1,0,0,0,.35,0,4.24,4.24,0,0,0,.91-.24,22.68,22.68,0,0,0,3.67-1.94c1.19-.75,2.35-1.55,3.5-2.37l1.72-1.24,1.79-1.18a32.52,32.52,0,0,1,3.65-2.25,62.45,62.45,0,0,1,15.92-6.12A93.3,93.3,0,0,1,987.2,143,102.67,102.67,0,0,1,1004.2,143.34Z"/>
                  </g>
                  <ellipse class="cls-52" cx="1034.98" cy="232.76" rx="20.19" ry="20.52" transform="translate(513.67 1156.66) rotate(-73.24)"/>
                  <circle class="cls-49" cx="1027.43" cy="214.12" r="6.29"/>
                  <g>
                    <ellipse class="cls-49" cx="953.21" cy="196.47" rx="35.29" ry="32.62" transform="translate(259.15 878.74) rotate(-56.16)"/>
                    <path class="cls-50" d="M921.57,187.59a36.59,36.59,0,0,0-1.74,13.14,33.59,33.59,0,0,0,3.26,12.82,30.11,30.11,0,0,0,20,16.16,31.67,31.67,0,0,0,13.11.43,35,35,0,0,0,12.23-4.69,37.52,37.52,0,0,0,16-20.26,36.32,36.32,0,0,0,1.79-13A33.2,33.2,0,0,0,983,179.55a30.06,30.06,0,0,0-19.64-16.32,31.6,31.6,0,0,0-13.13-.61,34.65,34.65,0,0,0-12.39,4.56A38,38,0,0,0,921.57,187.59Zm0,0a38.07,38.07,0,0,1,16.19-20.53,35.58,35.58,0,0,1,12.42-4.75,32,32,0,0,1,13.31.44,30.61,30.61,0,0,1,20.28,16.43,34,34,0,0,1,3.32,13,37.2,37.2,0,0,1-1.77,13.33,38.52,38.52,0,0,1-16.48,20.67,35.27,35.27,0,0,1-12.57,4.63,32.1,32.1,0,0,1-13.34-.62,30.67,30.67,0,0,1-11.85-6.07A31,31,0,0,1,923,213.61a33.63,33.63,0,0,1-3.2-12.88A36.61,36.61,0,0,1,921.57,187.59Z"/>
                  </g>
                  <ellipse class="cls-52" cx="954.94" cy="198.34" rx="22.42" ry="20.28" transform="translate(295.84 917.26) rotate(-59.22)"/>
                  <path class="cls-49" d="M945.21,176.52c0,3.44,5.48,6.22,9.38,6.22s4.74-2.78,4.74-6.22.43-6.21-3.47-6.21S945.21,173.09,945.21,176.52Z"/>
                </g>
                <path class="cls-53" d="M1000.67,348.13s-62.11,17.14-73.33-21.43c0,0,35.82-21.5,37.2-21S999.72,343.36,1000.67,348.13Z"/>
                <path class="cls-54" d="M993,342.46S943.88,356,935,325.51c0,0,28.34-17,29.42-16.6S992.25,338.69,993,342.46Z"/>
                <path class="cls-55" d="M1024.83,296.89c12.32,2.69,61-.57,61-.57s2.52,39-45.41,34.46a83.87,83.87,0,0,0,25.61,4.81s-3.77,19.67-41.81,20.43A40.21,40.21,0,0,1,999,342.84l11.3,12.42S977.47,359,959,319.48c0,0-18,19-41,15.26l8.2-5.09s-41.53,2.36-34.89-56.17c0,0,35.73,19.45,50.61,6.66,18.17-22.42,39.43-16.06,54,3.47C998.65,287.12,1013.25,294.35,1024.83,296.89Z"/>
                <path class="cls-56" d="M968.33,250.56c-30.23-6.5-23.61,18.64-23.61,18.64s6.95,36.44,69.6,10.74C1014.32,279.94,1014.32,260.45,968.33,250.56Z"/>
                <path class="cls-48" d="M1137.57,187.77s36.52-7.3,43.31-1.87c24.79,19.84,37.72,83.14,26.69,93-1.93,1.73-29.53-18.59-56.58,40.48l-14.23,3.28s8.4-34.37.43-49.28c-8.51-15.91-7.47-42.24-7.47-42.24l11.78,2.9s-.17-5.39-3.67-19.68c4.8,0,7.82,6.93,15.83,19.68C1156,224.36,1137.57,187.77,1137.57,187.77Z"/>
                <path class="cls-41" d="M1148.85,321.6s10.27-28.32,21.65-35.88c0,0,22.29-22.7,37.77-6.56,17.25,18,4,46.67-12.81,63.71-17.08,17.33-40.83,21.7-55.36,7.43"/>
                <ellipse class="cls-47" cx="1180.49" cy="319.81" rx="30.35" ry="12.56" transform="translate(211.95 1066.65) rotate(-52.79)"/>
                <path class="cls-48" d="M1033.09,115.18s-33.54-30.29,3.18-59C1046,62.32,1033.09,115.18,1033.09,115.18Z"/>
                <path class="cls-48" d="M1032.52,115.18s10.9-54.91,66.2-30C1098.39,99.57,1032.52,115.18,1032.52,115.18Z"/>
              </g>
              <path class="cls-39" d="M1137,697.78s4.75-87.44-54.22-103.62"/>
              <path class="cls-39" d="M530.69,710.43s-.57-65-63.17-55.06"/>
            </g>
            <g>
              <path class="cls-57" d="M1195.78,272.2s-103-24.84-107.39-21.29-3.38,9.22-3.38,9.22l89.2,21.32c1.91-1.15,5.87-4.06,8.92-5.09C1186.57,275.2,1193.37,272.41,1195.78,272.2Z"/>
              <path class="cls-58" d="M1196.91,272.45s-104.79-23.27-109.18-19.73-3.39,9.23-3.39,9.23l90.86,19.71c1.91-1.15,4.88-4.27,7.93-5.3C1186.57,275.2,1193.17,273.64,1196.91,272.45Z"/>
              <path class="cls-58" d="M995.83,216.42a51.81,51.81,0,1,0,66.49-30.78A51.82,51.82,0,0,0,995.83,216.42Zm4.84,2.29a46,46,0,1,1,27.33,59A46,46,0,0,1,1000.67,218.71Z"/>
              <ellipse class="cls-59" cx="1043.11" cy="233.77" rx="48.9" ry="49.39" transform="translate(464.28 1132.48) rotate(-69.85)"/>
              <ellipse class="cls-59" cx="944.2" cy="191.28" rx="48.9" ry="49.39" transform="translate(439.33 1011.78) rotate(-69.85)"/>
              <path class="cls-58" d="M896,173.6a51.81,51.81,0,1,0,66.48-30.78A51.81,51.81,0,0,0,896,173.6Zm4.83,2.29a46,46,0,1,1,27.34,59A46,46,0,0,1,900.85,175.89Z"/>
              <polygon class="cls-58" points="915.04 161.98 900.76 163.91 896.02 173.6 907.09 172.82 915.04 161.98"/>
              <path class="cls-58" d="M995.49,220.68s-2.72-7.45-9.3-3.41c4.5-9.18,5.35-14.58,5.35-14.58s10,2.94,7.53,8.73S995.49,220.68,995.49,220.68Z"/>
            </g>
          </g>
        </g>
      </g>
    </g>
  </g>
</svg>
