<svg id="Layer_1" data-name="Layer 1" xmlns="http://www.w3.org/2000/svg" width="623" height="456" viewBox="0 0 623 456">
  <defs>
    <style>
      .cls-1 {
        fill: #ff0;
      }

      .cls-2 {
        fill: #8d8e8d;
      }

      .cls-3 {
        fill: #8436ff;
      }
    </style>
  </defs>
  <g>
    <path class="cls-1" d="M428.89,111a3.32,3.32,0,0,0-3.32-3.32H315.78a3.32,3.32,0,0,0-3.32,3.32V136.5a3.32,3.32,0,0,0,3.32,3.32H354.3V214H294c7.2-12.94,14.72-33.22,13.33-46.06-.78-7.19-1.51-14-4.65-20.4-3.07-6.26-8.76-13.23-16.92-20.74a94.78,94.78,0,0,0-26.47-17.42c-9.64-4.15-17.38-6.17-23.67-6.17a77.13,77.13,0,0,0-24.3,4.27c-6.42,2.14-17.43,7.24-33.68,15.61a3.33,3.33,0,0,0-1.48,4.38l9.12,19.15.13.24c2.75,4.73,6,7.12,9.71,7.12a3.26,3.26,0,0,0,1.53-.37c6.66-3.44,16.76-9.06,24.87-13.57l7.38-4.09c8.9-4,16.69-6,23.14-6,7.36,0,13.09,2.14,17.49,6.55,3.34,3.34,6.22,12.48,7.72,24.46,1.16,9.29,1.31,26.79-10.76,39.72-.11.12-.21.25-.31.38-3,4.4-8.76,7.69-11.86,7.69a2.81,2.81,0,0,0-.5,0c-7.91,1.21-15,2.21-21.11,3a126.06,126.06,0,0,1-14.42,1.11c-7,0-11.07,4-11.07,11.08,0,2.32,1.16,5.75,9.53,15s11.89,10.67,14.32,10.67c.9,0,2.37-.31,6.88-1.27,7.87-1.69,21-4.52,29-4.52a11.64,11.64,0,0,1,4.26.52c14.07,6.1,22.77,16,25.15,28.59,2.52,13.31-2.43,28.45-12.61,38.59-6.3,6.37-15.4,9.46-27.82,9.46-1.76,0-3.61-.07-5.5-.2-15.06-1-25.27-5.43-36.38-15.71s-34.19-44.15-45.19-69a3.34,3.34,0,0,0-2-1.81,3.44,3.44,0,0,0-1-.17,3.32,3.32,0,0,0-1.62.42l-12.31,6.84a3.31,3.31,0,0,0-1.4,4.29c13.49,29.29,37.16,68.77,53.42,84.16s34.25,23.14,53.59,23.14c19,0,34.69-5.35,46.66-15.91l.09-.08c21.62-20.59,28.36-48.71,18.47-77.13a88.74,88.74,0,0,0-6.42-13.33h38V349.52a3.31,3.31,0,0,0,3.32,3.32l27.38-.17a3.31,3.31,0,0,0,3.3-3.32V139.82h37.27a3.33,3.33,0,0,0,3.32-3.32ZM385,136.5V349.35l-27.36.17V243.07H310.2a83.79,83.79,0,0,1,9.41,17.74c10.16,29.21,1.44,55.48-17.63,73.64q-17.1,15.07-44.46,15.07-27.82,0-51.31-22.23c-15.66-14.82-39.31-54.1-52.69-83.14l12.32-6.84c10.63,24,33.95,59,46,70.09s22.94,15.53,38.41,16.59c17.48,1.19,28.74-3,35.9-10.24,18.66-18.58,23.45-56.51-13.58-72.57-7.7-3.34-39.05,5-41.47,5q-3.21,0-11.86-9.58t-8.67-12.76q0-7.76,7.76-7.76a127.37,127.37,0,0,0,14.82-1.14q9.33-1.12,21.2-3c4.26,0,11-3.89,14.6-9.12,12.9-13.82,12.9-32.24,11.62-42.4-1.09-8.75-3.64-21.38-8.66-26.39s-11.63-7.53-19.84-7.53q-10.48,0-24.62,6.39c-8.82,4.86-23.48,13.13-32.3,17.69q-3.66,0-6.84-5.48L179.16,126c10-5.17,25-12.67,33.21-15.41a73.52,73.52,0,0,1,23.25-4.1q8.67,0,22.35,5.9a91,91,0,0,1,25.54,16.81Q295.36,140.1,299.7,149c2.88,5.91,3.58,12.38,4.33,19.31,1.49,13.79-8.41,37.63-15.89,49h69.48V136.5H315.78V111H425.57V136.5Z"/>
    <path class="cls-2" d="M425.57,111H315.78V136.5h41.84v80.77H288.14c7.48-11.38,17.38-35.22,15.89-49-.75-6.93-1.45-13.4-4.33-19.31s-8.29-12.49-16.19-19.76A91,91,0,0,0,258,112.38q-13.68-5.89-22.35-5.9a73.52,73.52,0,0,0-23.25,4.1c-8.21,2.74-23.18,10.24-33.21,15.41l9.12,19.15q3.18,5.48,6.84,5.48c8.82-4.56,23.48-12.83,32.3-17.69q14.13-6.39,24.62-6.39,12.32,0,19.84,7.53c5,5,7.57,17.64,8.66,26.39,1.28,10.16,1.28,28.58-11.62,42.4-3.62,5.23-10.34,9.12-14.6,9.12q-11.87,1.83-21.2,3a127.37,127.37,0,0,1-14.82,1.14q-7.77,0-7.76,7.76,0,3.19,8.67,12.76t11.86,9.58c2.42,0,33.77-8.34,41.47-5,37,16.06,32.24,54,13.58,72.57C279,321,267.7,325.18,250.22,324c-15.47-1.06-26.41-5.49-38.41-16.59s-35.34-46.07-46-70.09l-12.32,6.84c13.38,29,37,68.32,52.69,83.14s32.76,22.23,51.31,22.23q27.36,0,44.46-15.07c19.07-18.16,27.79-44.43,17.63-73.64a83.79,83.79,0,0,0-9.41-17.74h47.42V349.52l27.36-.17V136.5h40.59Z"/>
    <path class="cls-3" d="M425.57,111H315.78V136.5h41.84v80.77H288.14c7.48-11.38,17.38-35.22,15.89-49-.75-6.93-1.45-13.4-4.33-19.31s-8.29-12.49-16.19-19.76A91,91,0,0,0,258,112.38q-13.68-5.89-22.35-5.9a73.52,73.52,0,0,0-23.25,4.1c-8.21,2.74-23.18,10.24-33.21,15.41l9.12,19.15q3.18,5.48,6.84,5.48c8.82-4.56,23.48-12.83,32.3-17.69q14.13-6.39,24.62-6.39,12.32,0,19.84,7.53c5,5,7.57,17.64,8.66,26.39,1.28,10.16,1.28,28.58-11.62,42.4-3.62,5.23-10.34,9.12-14.6,9.12q-11.87,1.83-21.2,3a127.37,127.37,0,0,1-14.82,1.14q-7.77,0-7.76,7.76,0,3.19,8.67,12.76t11.86,9.58c2.42,0,33.77-8.34,41.47-5,37,16.06,32.24,54,13.58,72.57C279,321,267.7,325.18,250.22,324c-15.47-1.06-26.41-5.49-38.41-16.59s-35.34-46.07-46-70.09l-12.32,6.84c13.38,29,37,68.32,52.69,83.14s32.76,22.23,51.31,22.23q27.36,0,44.46-15.07c19.07-18.16,27.79-44.43,17.63-73.64a83.79,83.79,0,0,0-9.41-17.74h47.42V349.52l27.36-.17V136.5h40.59Z"/>
    <g>
      <g>
        <path class="cls-1" d="M447.27,156.78a25.53,25.53,0,1,0,25.53,25.53A25.56,25.56,0,0,0,447.27,156.78Zm0,47.73a22.21,22.21,0,1,1,22.21-22.2A22.21,22.21,0,0,1,447.27,204.51Z"/>
        <circle class="cls-3" cx="447.27" cy="182.31" r="22.21" transform="translate(-35.72 185.04) rotate(-22.5)"/>
      </g>
      <g>
        <path class="cls-1" d="M447.27,250.4a25.53,25.53,0,1,0,25.53,25.53A25.56,25.56,0,0,0,447.27,250.4Zm0,47.74a22.21,22.21,0,1,1,22.21-22.21A22.22,22.22,0,0,1,447.27,298.14Z"/>
        <circle class="cls-3" cx="447.27" cy="275.93" r="22.21" transform="translate(-71.55 192.17) rotate(-22.5)"/>
      </g>
    </g>
  </g>
</svg>
