<svg id="Layer_1" data-name="Layer 1" xmlns="http://www.w3.org/2000/svg" width="623" height="456" viewBox="0 0 623 456">
  <defs>
    <style>
      .cls-1 {
        fill: #8d8e8d;
      }

      .cls-2 {
        fill: #ff0;
      }

      .cls-3 {
        fill: #8436ff;
      }
    </style>
  </defs>
  <g>
    <g>
      <path class="cls-1" d="M332.43,279.85s.72,21.7,6.51,22.39c5.71.31,13.78-3.61,17.7-5.28,7.16-3.07,14-7.48,14-18.93V190.69h43.84V167.25H364.12q-18.74-22.93-37.24-45.45-19.06-23.2-26.51-31.11-12.87-13.9-25.76-20.42t-23.29-6.49a83.57,83.57,0,0,0-16.11,1.61c-5.45,1.09-8.17,2.7-8.17,4.86q0,2.76,9.16,18.94t12.14,19q6.94-1.85,14.37-4.16t10.41-2.31A31.6,31.6,0,0,1,288,105.6a62,62,0,0,1,13.38,9.52q7.92,7.45,22.79,23.75,15.81,17.49,24.61,28.38H208.53l.19,23.44h40.37v95.88q0,18.4,13.49,27.61L378,390.76c7.52,4.4,26.17-2,16.92-7.52L280.77,305.46q-2.17-1.26-3.9-6.28a29.4,29.4,0,0,1-1.74-9.63V190.69h69.45v77.15A12,12,0,0,1,332.43,279.85Z"/>
      <path class="cls-2" d="M416.94,164.78a3.45,3.45,0,0,0-2.47-1h-48.7c-12.79-15.66-24.64-30.13-36.19-44.18-12.66-15.42-21.64-25.94-26.64-31.26-8.84-9.55-17.84-16.67-26.76-21.16s-17.4-6.88-24.86-6.88A86.77,86.77,0,0,0,234.53,62c-2.72.54-11,2.18-11,8.28,0,1.78.75,5,9.62,20.67,8.37,14.75,11.24,18.32,12.8,19.77a3.46,3.46,0,0,0,2.38.94,4,4,0,0,0,.9-.11c4.59-1.22,9.47-2.63,14.51-4.2,6-1.88,8.46-2.16,9.37-2.16a28.28,28.28,0,0,1,13.23,3.53,58.12,58.12,0,0,1,12.62,9c5.15,4.83,12.75,12.76,22.6,23.54,7.86,8.69,14.49,16.25,19.79,22.55H208.53a3.5,3.5,0,0,0-2.48,1,3.47,3.47,0,0,0-1,2.49l.18,23.44a3.5,3.5,0,0,0,3.5,3.46h36.87v92.39c0,13.44,5.06,23.7,15.06,30.52l115.44,76.58.16.1a16.7,16.7,0,0,0,8.36,2c5.41,0,14.57-2.11,16.13-7.77.38-1.36.74-4.82-3.92-7.65L282.74,302.57l-.22-.14s-1.06-.65-2.35-4.39a26,26,0,0,1-1.55-8.49V194.18h62.47v73.66a8.52,8.52,0,0,1-8.66,8.51,3.5,3.5,0,0,0-3.49,3.61,100.48,100.48,0,0,0,1.13,11.39c1,5.84,2.87,13.69,8.45,14.36l.23,0,.85,0h0c5.72,0,12.47-3,16.93-4.94l1.48-.64c7.5-3.21,16.11-8.63,16.11-22.14V194.18h40.35a3.49,3.49,0,0,0,3.49-3.49V167.25A3.45,3.45,0,0,0,416.94,164.78Zm-2.47,25.91H370.63V278c0,11.45-6.83,15.86-14,18.93-3.92,1.67-12,5.59-17.7,5.28-5.79-.69-6.51-22.39-6.51-22.39a12,12,0,0,0,12.15-12V190.69H275.13v98.86a29.4,29.4,0,0,0,1.74,9.63q1.72,5,3.9,6.28l114.17,77.78c9.25,5.52-9.4,11.92-16.92,7.52L262.58,314.18q-13.5-9.19-13.49-27.61V190.69H208.72l-.19-23.44H348.77q-8.83-10.92-24.61-28.38-14.87-16.29-22.79-23.75A62,62,0,0,0,288,105.6a31.6,31.6,0,0,0-14.87-3.93q-3,0-10.41,2.31t-14.37,4.16q-3-2.77-12.14-19T227,70.25c0-2.16,2.72-3.77,8.17-4.86a83.57,83.57,0,0,1,16.11-1.61q10.4,0,23.29,6.49t25.76,20.42q7.44,7.91,26.51,31.11,18.51,22.52,37.24,45.45h50.35Z"/>
    </g>
    <path class="cls-3" d="M332.43,279.85s.72,21.7,6.51,22.39c5.71.31,13.78-3.61,17.7-5.28,7.16-3.07,14-7.48,14-18.93V190.69h43.84V167.25H364.12q-18.74-22.93-37.24-45.45-19.06-23.2-26.51-31.11-12.87-13.9-25.76-20.42t-23.29-6.49a83.57,83.57,0,0,0-16.11,1.61c-5.45,1.09-8.17,2.7-8.17,4.86q0,2.76,9.16,18.94t12.14,19q6.94-1.85,14.37-4.16t10.41-2.31A31.6,31.6,0,0,1,288,105.6a62,62,0,0,1,13.38,9.52q7.92,7.45,22.79,23.75,15.81,17.49,24.61,28.38H208.53l.19,23.44h40.37v95.88q0,18.4,13.49,27.61L378,390.76c7.52,4.4,26.17-2,16.92-7.52L280.77,305.46q-2.17-1.26-3.9-6.28a29.4,29.4,0,0,1-1.74-9.63V190.69h69.45v77.15A12,12,0,0,1,332.43,279.85Z"/>
  </g>
</svg>
