<svg id="Layer_1" data-name="Layer 1" xmlns="http://www.w3.org/2000/svg" xmlns:xlink="http://www.w3.org/1999/xlink" width="166.98" height="244.04" viewBox="0 0 166.98 244.04">
  <defs>
    <style>
      .cls-1 {
        fill: none;
      }

      .cls-2 {
        clip-path: url(#clip-path);
      }

      .cls-3 {
        fill: #3a3a3a;
      }

      .cls-4 {
        fill: #08a000;
      }

      .cls-5 {
        fill: #08d000;
      }

      .cls-6 {
        fill: #0c5408;
      }

      .cls-7 {
        fill: #2098e2;
      }

      .cls-8 {
        fill: #45b0ff;
      }

      .cls-9 {
        fill: #065f96;
      }

      .cls-10 {
        fill: #d39300;
      }

      .cls-11 {
        fill: #ffcf00;
      }

      .cls-12 {
        fill: #a55d0d;
      }

      .cls-13 {
        fill: #e156e8;
      }

      .cls-14 {
        fill: #fa79fc;
      }

      .cls-15 {
        fill: #962a9c;
      }

      .cls-16 {
        fill: #c90800;
      }

      .cls-17 {
        fill: #ff0800;
      }

      .cls-18 {
        fill: #7c0800;
      }

      .cls-19 {
        fill: #9cec99;
      }

      .cls-20 {
        fill: #a6d6f3;
      }

      .cls-21 {
        fill: #fdc9fe;
      }

      .cls-22 {
        fill: #ffec99;
      }

      .cls-23 {
        fill: #ff6b66;
      }
    </style>
    <clipPath id="clip-path">
      <rect class="cls-1" x="-1078.45" y="-12.02" width="2160" height="720"/>
    </clipPath>
  </defs>
  <g class="cls-2">
    <g>
      <path class="cls-3" d="M149.13,147.59c2.94-20.09,5.72-39.06-1.84-56.43C134.81,62.52,106.55,48,81.62,35.1c-19.18-9.89-37.3-19.23-46-33.54l-.4.25C44,16.23,62.16,25.6,81.41,35.52c24.86,12.82,53,27.34,65.44,55.84,7.51,17.24,4.74,36.14,1.81,56.16-4.17,28.48-8.48,57.92,16.49,85.68l.35-.31C140.68,205.29,145,176,149.13,147.59Z"/>
      <path class="cls-3" d="M138.64,152.9c1.23-15.47,2.4-30.07-.35-42.06C130.35,76.2,97.76,59.7,69,45.13,49.8,35.41,31.66,26.22,23.62,13l-.41.24c8.12,13.39,26.31,22.6,45.58,32.36,28.66,14.51,61.15,31,69,65.38,2.73,11.92,1.57,26.49.33,41.92s-2.49,31.28,0,45.94c2.81,16.66,10.18,29.12,22.53,38.07l.28-.38C133.55,216.62,136.25,182.77,138.64,152.9Z"/>
      <path class="cls-3" d="M129.74,158.51c1.24-14.88,2.4-28.94-1.37-40.85C117.81,84.34,85.76,69.55,57.48,56.49c-19.75-9.11-38.4-17.72-46.66-31.36l-.41.25c8.34,13.76,27.06,22.4,46.87,31.54,28.19,13,60.14,27.77,70.63,60.88,3.75,11.82,2.59,25.83,1.36,40.67-2.31,27.77-4.92,59.26,26.26,82.42l.29-.38C124.85,217.5,127.45,186.16,129.74,158.51Z"/>
      <path class="cls-3" d="M120,165.57c.86-14,1.66-27.28-3-39.31-10.77-27.91-40.6-41.95-66.92-54.33-20.55-9.67-40-18.8-48.66-33.15L1,39C9.78,53.5,29.25,62.66,49.87,72.36c27.52,12.94,56,26.33,66.67,54.07,4.61,11.94,3.81,25.14,3,39.11-1.63,26.78-3.31,54.47,32.26,77.72l.26-.39C116.68,219.76,118.35,192.21,120,165.57Z"/>
      <path class="cls-4" d="M126.76,130.48c2.33-3.61.5-13.7-6.09-12.48-5.44,1-4.19,11-.06,13.95,3.51,2.54,24.8.48,36.09-7.42C156.7,124.53,139.1,131.94,126.76,130.48Z"/>
      <path class="cls-5" d="M126.76,130.48c2.33-3.61.5-13.7-6.09-12.48-2.62.46-2.59,9.64,1.54,12.63,3.51,2.53,23.2,1.8,34.49-6.1C156.7,124.53,139.1,131.94,126.76,130.48Z"/>
      <path class="cls-6" d="M130.19,130.19h0c-.93,0-1.83,0-2.68-.11,1.11-2.46.86-6.51-.66-9.31a5.72,5.72,0,0,0-6.26-3.24,4.83,4.83,0,0,0-3.81,4.06c-.84,3.75.82,8.77,3.55,10.75,1.28.92,4.15,1.11,6.34,1.11h0c7.27,0,21.35-2.27,30.3-8.53l3.67-2.56-4.12,1.73C156.37,124.16,141.89,130.19,130.19,130.19Zm-3.52,2.31c-2.85,0-5-.34-5.78-.93-2.42-1.75-3.94-6.4-3.18-9.77a3.94,3.94,0,0,1,3.05-3.34,5.5,5.5,0,0,1,1-.09,4.88,4.88,0,0,1,4.27,2.86c1.5,2.75,1.66,7,.35,9l-.41.64.75.09a29.63,29.63,0,0,0,3.49.19h0c7.41,0,15.9-2.37,21.28-4.18A64.27,64.27,0,0,1,126.67,132.5Z"/>
      <path class="cls-7" d="M112.77,159.33s15.77-4,26-1.17c-2.42,2.75-2.17,11.54,3.53,11.36,4.72-.15,4.94-8.75,1.84-11.82C141.48,155.1,123.29,154.1,112.77,159.33Z"/>
      <path class="cls-8" d="M112.77,159.33s15.77-4,26-1.17c-2.42,2.75-2.17,11.54,3.53,11.36,2.88-.93,2.91-8.12-.19-11.18C139.45,155.74,123.29,154.1,112.77,159.33Z"/>
      <path class="cls-9" d="M132.14,155.1c-7.58,0-14.72,1.39-19.58,3.8l-4,2,4.31-1.09A79.6,79.6,0,0,1,130,157.62a34.58,34.58,0,0,1,8,.82,10.14,10.14,0,0,0-.36,8.49,4.79,4.79,0,0,0,4.52,3.06h.19a4.17,4.17,0,0,0,3.78-3c1.21-3.09.45-7.6-1.63-9.65C143.08,156,138.13,155.1,132.14,155.1Zm13.05,11.58a3.28,3.28,0,0,1-2.92,2.36h-.16a3.9,3.9,0,0,1-3.66-2.5c-1.23-2.72-.66-6.57.66-8.07l.5-.56-.73-.21a34,34,0,0,0-8.9-1,73.26,73.26,0,0,0-11.3,1,53.45,53.45,0,0,1,13.46-1.62c6.32,0,10.64,1,11.64,2C145.59,159.83,146.26,163.94,145.19,166.68Z"/>
      <path class="cls-10" d="M95.26,76.63c-.52-5.06-9.67-13-14.87-7-4.29,5,4.24,13.25,10.27,13,4.43-.21,19-13.32,25.77-27A61.39,61.39,0,0,0,131.78,77c-3.58,7-11.58,17.71-20,23.77-.51-5.06-9.66-13-14.86-7-4.29,5,4.24,13.26,10.26,13,5.13-.25,23.67-20.83,27.92-33.56C126.64,64.88,118.57,49,118.57,49S107.76,68.85,95.26,76.63Z"/>
      <path class="cls-11" d="M95.26,76.63c-.52-5.06-9.67-13-14.87-7-1.63,3,5.1,10.89,11.13,10.6,4.43-.22,18.17-11,24.91-24.65A61.39,61.39,0,0,0,131.78,77c-3.58,7-11.58,17.71-20,23.77-.51-5.06-9.66-13-14.86-7-2.71,3.16,4.66,11,10.69,10.75,5.12-.25,23.24-18.62,27.49-31.35C126.64,64.88,118.57,49,118.57,49S107.76,68.85,95.26,76.63Z"/>
      <path class="cls-12" d="M119,48.77l-.41-.81-.43.8C118.05,49,107.6,68,95.6,75.84c-.93-4-6-8.88-10.7-8.88A6.22,6.22,0,0,0,80,69.27a5.58,5.58,0,0,0-.6,6.28c1.87,4.09,7.18,7.66,11.24,7.47,4.69-.23,18.87-13.19,25.71-26.36a62.7,62.7,0,0,0,14.8,20.49c-3.68,7.09-11.26,17-19,22.82-1-4-6-8.83-10.7-8.83a6.24,6.24,0,0,0-4.86,2.31,5.6,5.6,0,0,0-.6,6.27c1.82,4,6.92,7.48,10.91,7.48h.34c5.66-.28,24.12-21.26,28.34-33.89l.09-.28-.21-.21C127.13,64.69,119.07,48.92,119,48.77Zm-11.8,57.48h-.29c-3.67,0-8.36-3.23-10-6.92a4.68,4.68,0,0,1,.45-5.26,5.33,5.33,0,0,1,4.14-2c4.47,0,9.52,5.1,9.89,8.77l.08.82.67-.49c8.23-5.94,16.35-16.54,20.11-23.93l.17-.33-.28-.25a61.39,61.39,0,0,1-15.22-21.33l-.39-1-.47,1c-6.79,13.77-21.37,26.55-25.37,26.75-3.73.17-8.61-3.13-10.34-6.92a4.72,4.72,0,0,1,.45-5.26,5.35,5.35,0,0,1,4.15-2c4.46,0,9.51,5.1,9.88,8.77l.08.75.65-.4c11.06-6.88,20.89-23.31,23-27.05,1.74,3.28,8.74,16.08,16,23.31C130.11,86.19,112,106,107.19,106.25Z"/>
      <path class="cls-13" d="M127.85,196.76c.94-2.89-2.13-9.49-6.43-7.46-3.56,1.67-.9,8.29,2.47,9.59,2.48,1,13.86-2.86,20.45-8.2a35.66,35.66,0,0,0,3,15.29c-4,3.08-10.47,7.23-16.28,8,.94-2.89-2.13-9.49-6.43-7.46-3.56,1.67-.9,8.28,2.47,9.59,2.87,1.1,17.1-4.16,23.43-11.61-2.64-6.6-3.2-17.26-3.2-17.26S136.58,195.54,127.85,196.76Z"/>
      <path class="cls-14" d="M127.85,196.76c.94-2.89-2.13-9.49-6.43-7.46-1.58,1.35-.33,7.24,3,8.54,2.48.95,13.29-1.81,19.88-7.15a35.66,35.66,0,0,0,3,15.29c-4,3.08-10.47,7.23-16.28,8,.94-2.89-2.13-9.49-6.43-7.46-1.35.83-.42,7,3,8.28,2.86,1.11,16.61-2.85,22.94-10.3-2.64-6.6-3.2-17.26-3.2-17.26S136.58,195.54,127.85,196.76Z"/>
      <path class="cls-15" d="M147.79,187.25l0-.9-.72.55c-.1.08-10.19,7.78-18.58,9.29a8.45,8.45,0,0,0-1.61-5.49c-1.51-2.08-3.62-2.78-5.63-1.83a3.55,3.55,0,0,0-1.95,3.6c.1,2.78,2.18,6,4.46,6.86a3.41,3.41,0,0,0,1.22.18c3.58,0,12.82-3.26,18.9-7.84a36.48,36.48,0,0,0,2.9,14.16c-2.79,2.13-9.14,6.52-15.08,7.61A8.49,8.49,0,0,0,130,208c-1.5-2.08-3.62-2.78-5.62-1.83a3.54,3.54,0,0,0-2,3.6c.1,2.78,2.19,6,4.46,6.86a3.43,3.43,0,0,0,1.21.18h0c4.44,0,16.81-4.92,22.75-11.92l.19-.22-.11-.27C148.38,197.92,147.8,187.36,147.79,187.25Zm-19.66,28.57a2.2,2.2,0,0,1-.86-.12c-1.94-.74-3.78-3.6-3.86-6a2.66,2.66,0,0,1,1.41-2.71,3.31,3.31,0,0,1,1.4-.34,3.89,3.89,0,0,1,3.05,1.87c1.19,1.64,1.77,4,1.33,5.35l-.24.73.75-.11c6.59-.92,13.74-6,16.51-8.13l.3-.24-.16-.34a35.15,35.15,0,0,1-2.95-15.08l0-1-.8.66c-5.89,4.78-15.5,8.24-19.1,8.24a2.33,2.33,0,0,1-.88-.12c-1.93-.74-3.77-3.6-3.85-6a2.65,2.65,0,0,1,1.41-2.71c1.6-.76,3.21-.18,4.45,1.53s1.77,4,1.32,5.36l-.23.72.75-.11c7.57-1.06,16.44-7.19,19-9,.2,2.66.93,10.71,3.08,16.26C144.22,211,132.26,215.82,128.13,215.82Z"/>
      <path class="cls-16" d="M62.28,16.73s-6.41,25.5-18.22,37.89C42,49.07,29.39,42.73,25.29,51,21.89,57.82,33.9,64.68,40.6,62.6c5.24-1.62,19-22.32,21.58-40.52,7.33,5.22,18.36,2.09,18.36,2.09S68.67,26.21,62.28,16.73Z"/>
      <path class="cls-17" d="M62.28,16.73s-6.41,25.5-18.22,37.89C42,49.07,29.39,42.73,25.29,51c-2.08,4.74,8.91,10.62,15.61,8.54,5.25-1.63,18.68-19.25,21.28-37.45,7.33,5.22,18.36,2.09,18.36,2.09S68.67,26.21,62.28,16.73Z"/>
      <path class="cls-18" d="M62.68,16.47l-.6-.88-.26,1c-.06.25-6.33,24.81-17.62,37.14-1.77-3.47-7.22-7.21-12.38-7.21a7.32,7.32,0,0,0-7,4.23A6.13,6.13,0,0,0,25.3,57c2.26,3.64,7.79,6.5,12.6,6.5a9.79,9.79,0,0,0,2.84-.4c5.18-1.61,18.9-21.92,21.79-40.16a19.51,19.51,0,0,0,10.55,2.68h0a30,30,0,0,0,7.59-1l-.21-.92S68.88,25.66,62.68,16.47Zm10.4,8.16h0A18,18,0,0,1,62.45,21.7l-.63-.46-.11.77C59.12,40.14,45.53,60.58,40.46,62.15a8.61,8.61,0,0,1-2.56.36c-4.43,0-9.72-2.72-11.79-6a5.15,5.15,0,0,1-.4-5.26,6.44,6.44,0,0,1,6.11-3.7c5,0,10.58,4,11.79,7.28l.27.71.52-.55C54.85,44,61.16,22.64,62.48,17.83a17.89,17.89,0,0,0,12,6.76C74,24.61,73.56,24.63,73.08,24.63Z"/>
      <path class="cls-19" d="M124.6,121.26c-.63.13-.87,1.57-.53,3.22s1.15,2.87,1.78,2.74.88-1.58.53-3.22S125.24,121.13,124.6,121.26Z"/>
      <path class="cls-20" d="M138.88,161.61c-.52.09-.76,1.25-.52,2.6s.84,2.36,1.36,2.27.75-1.25.52-2.6S139.4,161.52,138.88,161.61Z"/>
      <path class="cls-21" d="M125,191.06c-.5.18-.53,1.37-.08,2.65s1.22,2.19,1.72,2,.54-1.36.08-2.65S125.46,190.89,125,191.06Z"/>
      <path class="cls-22" d="M106.48,94.74c-1.74-1.21-3.54-1.64-4-1s.56,2.21,2.31,3.42,3.54,1.64,4,1S108.23,96,106.48,94.74Z"/>
      <path class="cls-22" d="M89.91,70.46c-1.85-1.28-3.75-1.74-4.25-1s.6,2.34,2.45,3.62,3.75,1.74,4.25,1S91.76,71.74,89.91,70.46Z"/>
      <path class="cls-23" d="M36.76,49.53c-2.82-1.22-5.51-1.29-6-.14s1.39,3,4.22,4.27,5.51,1.29,6,.15S39.59,50.75,36.76,49.53Z"/>
    </g>
  </g>
</svg>
