<svg id="Layer_1" data-name="Layer 1" xmlns="http://www.w3.org/2000/svg" width="623" height="456" viewBox="0 0 623 456">
  <defs>
    <style>
      .cls-1 {
        fill: #8d8e8d;
      }

      .cls-2 {
        fill: #ff0;
      }

      .cls-3 {
        fill: #8436ff;
      }
    </style>
  </defs>
  <g>
    <g>
      <path class="cls-1" d="M420.51,173a361.26,361.26,0,0,0-7.16-37.66Q406.51,107.48,399.1,97T383.9,81.73Q376.12,77,371.17,77q-4.56,0-4.56,5.62a97.11,97.11,0,0,0,.95,11.42q1,7.31,3.23,18.16,12.16,0,17.86,4.12,2.67,1.88,8.74,11.23,4.19,6.75,9.12,24.34a211.55,211.55,0,0,1,4.86,21h-1.93a292.24,292.24,0,0,0-28.77-27.39q-12.54-9.74-25.07-19.85a84,84,0,0,0-14.82-10.11,34.6,34.6,0,0,0-16-4.12c-4.05,0-6.08,1.38-6.08,4.12q0,1.5,5.51,15.17t8.93,19.28a46.84,46.84,0,0,1,8.74-3.93,26,26,0,0,1,8-1.69,14.45,14.45,0,0,1,8,2.47q3.8,2.46,6.83,4.73,13.68,8.72,15.58,9.86c6,4,11.4,7.79,16.28,11.46H352.91l.07.13H303.92v22h36.6v69H280.11c6.5-10,14.81-30,13.53-41.66-.65-6-1.26-11.56-3.79-16.65s-7.25-10.77-14.16-17a79.5,79.5,0,0,0-22.34-14.49q-12-5.09-19.55-5.1a65.23,65.23,0,0,0-20.34,3.54c-7.18,2.36-20.27,8.83-29.05,13.29l8,16.51c1.86,3.14,3.85,4.72,6,4.72,7.71-3.93,20.53-11.06,28.25-15.25q12.35-5.51,21.54-5.51,10.77,0,17.35,6.49c4.39,4.32,6.62,15.21,7.58,22.75,1.11,8.76,1.11,24.64-10.17,36.55-3.17,4.52-9.05,7.87-12.77,7.87q-10.38,1.57-18.55,2.55a113.93,113.93,0,0,1-13,1c-4.53,0-6.78,2.23-6.78,6.68q0,2.76,7.57,11t10.38,8.25c2.12,0,29.54-7.18,36.28-4.3,32.38,13.84,28.19,46.53,11.87,62.55-6.26,6.24-16.11,9.86-31.4,8.83-13.53-.92-23.1-4.73-33.6-14.3S182.06,302.71,172.76,282L162,287.9c11.7,25,32.39,58.9,46.09,71.68s28.65,19.16,44.87,19.16q23.94,0,38.9-13c16.68-15.65,24.3-38.29,15.42-63.48a77.37,77.37,0,0,0-8.48-16h41.73v92.45l23.93.23V195.1H400l-.07-.14h1.69V378.74l23.94.23V195H461V173Z"/>
      <path class="cls-2" d="M463.36,170.6a3.33,3.33,0,0,0-2.35-1H423.39c-1.91-12.95-4.2-24.76-6.82-35.13-4.71-19.12-9.53-32-14.76-39.46s-10.63-12.79-16.2-16.15c-5.77-3.48-10.49-5.17-14.44-5.17-4.93,0-7.87,3.34-7.87,8.93a97.17,97.17,0,0,0,1,11.85c.64,4.94,1.74,11.14,3.27,18.41a3.31,3.31,0,0,0,3.24,2.64c7.36,0,12.71,1.17,15.95,3.51.65.45,2.7,2.37,7.83,10.27,2.61,4.2,5.55,12.11,8.75,23.5,1.13,4,2.15,8,3.05,12A300.24,300.24,0,0,0,382.79,143l-.08-.07c-8.22-6.38-16.64-13.05-25-19.8a87.48,87.48,0,0,0-15.39-10.49,37.94,37.94,0,0,0-17.48-4.49c-8.72,0-9.39,5.7-9.39,7.44,0,1,0,2.13,5.75,16.4,3.77,9.37,6.77,15.84,9.17,19.77a3.3,3.3,0,0,0,2.83,1.6,3.25,3.25,0,0,0,1.69-.47,44,44,0,0,1,8.12-3.64,22.46,22.46,0,0,1,6.91-1.51,11.07,11.07,0,0,1,6.17,1.93c2.48,1.6,4.71,3.15,6.66,4.61l.2.14c6.12,3.9,13.76,8.75,15.59,9.86q4.05,2.7,7.82,5.34H352.91a3.6,3.6,0,0,0-.93.13H303.92a3.32,3.32,0,0,0-3.32,3.32v22a3.31,3.31,0,0,0,3.32,3.31H337.2v62.41H285.91c5.92-10.92,12.24-27.68,11-38.71-.69-6.24-1.33-12.13-4.12-17.76-2.71-5.44-7.72-11.5-14.9-18a83.68,83.68,0,0,0-23.27-15.09c-8.48-3.6-15.3-5.35-20.85-5.35a68.76,68.76,0,0,0-21.37,3.7c-5.64,1.85-15.29,6.26-29.52,13.48a3.31,3.31,0,0,0-1.48,4.4l8,16.51a2,2,0,0,0,.13.25c2.48,4.21,5.46,6.34,8.84,6.34a3.25,3.25,0,0,0,1.5-.36c5.82-3,14.64-7.8,21.72-11.68l6.49-3.55c7.73-3.42,14.48-5.16,20.08-5.16,6.33,0,11.24,1.81,15,5.53,2.85,2.81,5.32,10.59,6.62,20.81,1,7.92,1.13,22.85-9.29,33.85a3.68,3.68,0,0,0-.31.38c-2.54,3.63-7.49,6.45-10,6.45a2.81,2.81,0,0,0-.5,0c-6.89,1-13.1,1.9-18.45,2.54a110.67,110.67,0,0,1-12.56,1c-6.33,0-10.1,3.74-10.1,10,0,2.1,1,5.16,8.45,13.25S227.61,293,229.82,293a41.33,41.33,0,0,0,6.09-1.11c6.87-1.45,18.37-3.88,25.3-3.88a10.23,10.23,0,0,1,3.59.41c12.21,5.23,19.74,13.67,21.76,24.43,2.12,11.29-2.16,24.13-10.93,32.73-5.42,5.41-13.29,8-24.06,8-1.53,0-3.14-.06-4.78-.17-13.08-.88-21.94-4.65-31.59-13.45s-29.81-38-39.42-59.32a3.32,3.32,0,0,0-2-1.79,3.44,3.44,0,0,0-1.05-.17,3.37,3.37,0,0,0-1.6.41L160.39,285a3.33,3.33,0,0,0-1.41,4.32c11.82,25.28,32.57,59.39,46.83,72.69s30.13,20.06,47.14,20.06c16.71,0,30.53-4.65,41.07-13.81l.1-.09c19.06-17.88,25-42.31,16.27-67a82.92,82.92,0,0,0-5.52-11.55H337.2v89.13a3.32,3.32,0,0,0,3.28,3.32l24,.22a3.33,3.33,0,0,0,3.32-3.31V198.41h30.49V378.74a3.32,3.32,0,0,0,3.28,3.32l24,.22a3.33,3.33,0,0,0,3.32-3.31V198.28H461a3.32,3.32,0,0,0,3.32-3.32V173A3.35,3.35,0,0,0,463.36,170.6ZM461,195h-35.5V379l-23.94-.23V195h-1.69l.07.14h-35.5V379l-23.93-.23V286.29H298.79a77.37,77.37,0,0,1,8.48,16c8.88,25.19,1.26,47.83-15.42,63.48q-15,13-38.9,13-24.33,0-44.87-19.16c-13.7-12.78-34.39-46.65-46.09-71.68L172.76,282c9.3,20.7,29.7,50.85,40.21,60.42s20.07,13.38,33.6,14.3c15.29,1,25.14-2.59,31.4-8.83,16.32-16,20.51-48.71-11.87-62.55-6.74-2.88-34.16,4.3-36.28,4.3q-2.81,0-10.38-8.25t-7.57-11c0-4.45,2.25-6.68,6.78-6.68a113.93,113.93,0,0,0,13-1q8.17-1,18.55-2.55c3.72,0,9.6-3.35,12.77-7.87,11.28-11.91,11.28-27.79,10.17-36.55-1-7.54-3.19-18.43-7.58-22.75s-10.17-6.49-17.35-6.49q-9.18,0-21.54,5.51c-7.72,4.19-20.54,11.32-28.25,15.25-2.14,0-4.13-1.58-6-4.72l-8-16.51c8.78-4.46,21.87-10.93,29.05-13.29a65.23,65.23,0,0,1,20.34-3.54q7.57,0,19.55,5.1a79.5,79.5,0,0,1,22.34,14.49q10.37,9.39,14.16,17c2.53,5.09,3.14,10.68,3.79,16.65,1.28,11.67-7,31.64-13.53,41.66h60.41v-69h-36.6v-22H353l-.07-.13h43.66c-4.88-3.67-10.29-7.48-16.28-11.46q-1.89-1.14-15.58-9.86-3-2.26-6.83-4.73a14.45,14.45,0,0,0-8-2.47,26,26,0,0,0-8,1.69,46.84,46.84,0,0,0-8.74,3.93q-3.42-5.62-8.93-19.28t-5.51-15.17c0-2.74,2-4.12,6.08-4.12a34.6,34.6,0,0,1,16,4.12,84,84,0,0,1,14.82,10.11q12.54,10.11,25.07,19.85A292.24,292.24,0,0,1,409.44,173h1.93a211.55,211.55,0,0,0-4.86-21q-4.93-17.59-9.12-24.34-6.08-9.35-8.74-11.23-5.7-4.11-17.86-4.12-2.28-10.86-3.23-18.16a97.11,97.11,0,0,1-.95-11.42q0-5.62,4.56-5.62,4.95,0,12.73,4.7T399.1,97q7.41,10.55,14.25,38.34A361.26,361.26,0,0,1,420.51,173H461Z"/>
    </g>
    <path class="cls-3" d="M420.51,173a361.26,361.26,0,0,0-7.16-37.66Q406.51,107.48,399.1,97T383.9,81.73Q376.12,77,371.17,77q-4.56,0-4.56,5.62a97.11,97.11,0,0,0,.95,11.42q1,7.31,3.23,18.16,12.16,0,17.86,4.12,2.67,1.88,8.74,11.23,4.19,6.75,9.12,24.34a211.55,211.55,0,0,1,4.86,21h-1.93a292.24,292.24,0,0,0-28.77-27.39q-12.54-9.74-25.07-19.85a84,84,0,0,0-14.82-10.11,34.6,34.6,0,0,0-16-4.12c-4.05,0-6.08,1.38-6.08,4.12q0,1.5,5.51,15.17t8.93,19.28a46.84,46.84,0,0,1,8.74-3.93,26,26,0,0,1,8-1.69,14.45,14.45,0,0,1,8,2.47q3.8,2.46,6.83,4.73,13.68,8.72,15.58,9.86c6,4,11.4,7.79,16.28,11.46H352.91l.07.13H303.92v22h36.6v69H280.11c6.5-10,14.81-30,13.53-41.66-.65-6-1.26-11.56-3.79-16.65s-7.25-10.77-14.16-17a79.5,79.5,0,0,0-22.34-14.49q-12-5.09-19.55-5.1a65.23,65.23,0,0,0-20.34,3.54c-7.18,2.36-20.27,8.83-29.05,13.29l8,16.51c1.86,3.14,3.85,4.72,6,4.72,7.71-3.93,20.53-11.06,28.25-15.25q12.35-5.51,21.54-5.51,10.77,0,17.35,6.49c4.39,4.32,6.62,15.21,7.58,22.75,1.11,8.76,1.11,24.64-10.17,36.55-3.17,4.52-9.05,7.87-12.77,7.87q-10.38,1.57-18.55,2.55a113.93,113.93,0,0,1-13,1c-4.53,0-6.78,2.23-6.78,6.68q0,2.76,7.57,11t10.38,8.25c2.12,0,29.54-7.18,36.28-4.3,32.38,13.84,28.19,46.53,11.87,62.55-6.26,6.24-16.11,9.86-31.4,8.83-13.53-.92-23.1-4.73-33.6-14.3S182.06,302.71,172.76,282L162,287.9c11.7,25,32.39,58.9,46.09,71.68s28.65,19.16,44.87,19.16q23.94,0,38.9-13c16.68-15.65,24.3-38.29,15.42-63.48a77.37,77.37,0,0,0-8.48-16h41.73v92.45l23.93.23V195.1H400l-.07-.14h1.69V378.74l23.94.23V195H461V173Z"/>
  </g>
</svg>
