<svg id="Layer_1" data-name="Layer 1" xmlns="http://www.w3.org/2000/svg" width="623" height="456" viewBox="0 0 623 456">
  <defs>
    <style>
      .cls-1 {
        fill: #ff0;
      }

      .cls-2 {
        fill: #8436ff;
      }
    </style>
  </defs>
  <g>
    <path class="cls-1" d="M405.5,342.69a3,3,0,0,1-3-3V146.8H369.73V339.67a3,3,0,0,1-3,3h-25a3,3,0,0,1-3-3v-94.8H304.1a65.23,65.23,0,0,1,5.7,11.54c9,26,2.89,51.67-16.88,70.5l-.08.07c-10.94,9.65-25.29,14.54-42.65,14.54-17.67,0-34.15-7.11-49-21.15S165,270.61,152.64,244a3.09,3.09,0,0,1-.28-1.27V242a3,3,0,0,1,1.55-2.64l11-6.12a3,3,0,0,1,1.47-.38,2.93,2.93,0,0,1,1,.16,3,3,0,0,1,1.8,1.64c10.06,22.71,31.12,53.66,41.31,63.07S230,311.2,243.73,312.14c1.72.12,3.41.18,5,.18,11.36,0,19.68-2.83,25.44-8.65,9.31-9.28,13.83-23.12,11.53-35.28-2.18-11.53-10.13-20.57-23-26.15a10.74,10.74,0,0,0-3.91-.47c-7.28,0-19.32,2.58-26.52,4.12a42.07,42.07,0,0,1-6.29,1.17c-2.21,0-5.33-1.18-13.08-9.75s-8.7-11.58-8.7-13.7c0-6.43,3.69-10.11,10.11-10.11a116.91,116.91,0,0,0,13.18-1c5.58-.68,12.07-1.59,19.29-2.7l.46,0c2.84,0,8.08-3,10.86-7a2.88,2.88,0,0,1,.27-.34c11-11.82,10.91-27.83,9.84-36.32-1.37-11-4-19.31-7.05-22.36-4-4-9.27-6-16-6-5.9,0-13,1.86-21.16,5.52L217.27,147c-7.41,4.13-16.64,9.25-22.72,12.4a3.07,3.07,0,0,1-1.39.34c-3.37,0-6.36-2.19-8.87-6.5,0-.08-.08-.15-.11-.22l-8.34-17.51a3,3,0,0,1,1.34-4C192,123.83,202.1,119.17,208,117.21a70.64,70.64,0,0,1,22.21-3.9c5.74,0,12.82,1.84,21.63,5.64A86.75,86.75,0,0,1,276,134.87c7.46,6.86,12.66,13.24,15.47,18.95,2.87,5.88,3.54,12.08,4.25,18.65,1.28,11.9-5.86,30.89-12.49,42.65h55.44V146.8H303.45a3,3,0,0,1-3-3l-.06-23.35a3,3,0,0,1,.89-2.14,3,3,0,0,1,2.14-.89h50.33a3.16,3.16,0,0,1,.92-.14h113a3,3,0,0,1,2.14.89,3.06,3.06,0,0,1,.88,2.14v23.34a3,3,0,0,1-3,3H433.54v193a3,3,0,0,1-3,3Z"/>
    <path class="cls-2" d="M467.62,143.63V120.29h-113l.07.14H303.4l.05,23.34H341.7v74.37H277.83c6.88-10.17,16.27-32.5,14.88-45.33-.68-6.34-1.32-12.25-4-17.65s-7.57-11.42-14.8-18.07a83.18,83.18,0,0,0-23.34-15.36q-12.51-5.4-20.43-5.4a67.38,67.38,0,0,0-21.26,3.75c-7.5,2.5-21.18,9.36-30.35,14.09l8.33,17.51c1.95,3.33,4,5,6.26,5,8.06-4.17,21.46-11.72,29.52-16.17q12.91-5.83,22.51-5.84,11.25,0,18.13,6.88c4.59,4.58,6.92,16.13,7.92,24.13,1.17,9.28,1.17,26.12-10.63,38.75-3.3,4.79-9.45,8.34-13.34,8.34q-10.85,1.66-19.38,2.71a117,117,0,0,1-13.55,1c-4.73,0-7.08,2.36-7.08,7.09q0,2.92,7.92,11.67T226,244c2.22,0,30.88-7.62,37.92-4.56,33.84,14.68,29.46,49.34,12.41,66.33-6.55,6.61-16.84,10.45-32.82,9.36-14.14-1-24.14-5-35.11-15.17s-32.3-42.11-42-64.07l-11,6.12v.68c12.27,26.48,33.69,62,47.91,75.46s30,20.32,46.9,20.32q25,0,40.65-13.78c17.43-16.6,25.4-40.61,16.11-67.31-1-2.94-4.56-10.66-8.75-15.56h43.5v97.82h25V143.77h37.1l-.08-.14h1.77v196h25v-196Z"/>
  </g>
</svg>
