<svg id="Layer_1" data-name="Layer 1" xmlns="http://www.w3.org/2000/svg" width="221.24" height="284.17" viewBox="0 0 221.24 284.17">
  <defs>
    <style>
      .cls-1, .cls-11, .cls-2 {
        fill: none;
      }

      .cls-1 {
        stroke: #000;
        opacity: 0.3;
      }

      .cls-1, .cls-2 {
        stroke-linejoin: round;
        stroke-width: 10px;
      }

      .cls-2 {
        stroke: #f6f7f9;
      }

      .cls-3 {
        fill: #f59247;
      }

      .cls-4 {
        fill: #f8ac66;
      }

      .cls-5 {
        fill: #7d7d7d;
      }

      .cls-6 {
        fill: #4a4a4a;
      }

      .cls-7 {
        fill: #5c5c5c;
      }

      .cls-8 {
        fill: #858585;
      }

      .cls-9 {
        fill: #999;
      }

      .cls-10 {
        fill: #616161;
      }

      .cls-11 {
        stroke: #737373;
        stroke-miterlimit: 10;
        stroke-width: 2px;
      }

      .cls-12 {
        fill: #3d3d3d;
      }

      .cls-13 {
        fill: #4d4d4d;
      }
    </style>
  </defs>
  <g>
    <path class="cls-1" d="M184.37,178.12l-.65-1-3.69.49L166.17,187l-1.71,3.62.06.09-5.89,4c-4.19-7.33-7.36-12.65-7.36-12.65l-.32.22L69.87,62.37h0l-5.22-7.72c1.72-5.55,5.79-19.92,3.73-26.16C66,21.28,58.92,10.77,58.62,10.33h0a4.3,4.3,0,0,0-5.91-1.42L15.11,34.33a4.31,4.31,0,0,0-.89,6h0c.3.45,7.41,10.93,13.22,15.83,5.1,4.3,20.34,5.86,25.93,6.3l5.12,7.58a5.78,5.78,0,0,0,.53.67h0l80.62,119.23-.14.09h0l-.07.05s3.76,4.92,9,11.54l-5.69,3.84-.27-.4-3.7.49-13.85,9.37-1.71,3.62.06.09-.1.07s37.25,67.92,79.6,52.23C231.46,239.3,189.07,184.05,184.37,178.12ZM62.34,51.23,59.4,46.88h0a6.68,6.68,0,0,0-9.28-1.8l-.06,0-.06,0-.05,0h0l-.06,0h0A6.79,6.79,0,0,0,48,54.57l3,4.49C43.93,58.34,33,56.67,29.5,53.73S22,45.63,19.42,42.14a3.48,3.48,0,0,0,.71-.38L57.74,16.34a3.87,3.87,0,0,0,.61-.53c2.29,3.7,5.59,9.42,7,13.68S64.32,44.33,62.34,51.23Z"/>
    <path class="cls-2" d="M179.54,183l-.65-.95-3.69.49-13.86,9.37-1.71,3.62.06.09-5.89,4c-4.19-7.33-7.36-12.65-7.36-12.65l-.32.22L65,67.2h0l-5.22-7.72c1.72-5.54,5.79-19.92,3.73-26.16-2.38-7.21-9.46-17.72-9.76-18.16h0a4.31,4.31,0,0,0-5.91-1.42L10.28,39.16a4.31,4.31,0,0,0-.89,6h0C9.7,45.62,16.81,56.1,22.62,61c5.1,4.3,20.34,5.86,25.93,6.3l5.12,7.58a5.78,5.78,0,0,0,.53.67h0l80.62,119.23-.14.09h0l-.07,0s3.76,4.92,9,11.54l-5.69,3.84-.27-.4-3.7.49-13.85,9.37-1.71,3.62.06.09-.1.07s37.25,67.92,79.6,52.23C226.63,244.13,184.24,188.88,179.54,183ZM57.51,56.06l-2.94-4.35h0a6.68,6.68,0,0,0-9.28-1.8l-.06,0-.06,0,0,0h0l-.06,0h0A6.79,6.79,0,0,0,43.2,59.4l3,4.49c-7.14-.72-18.07-2.39-21.57-5.33S17.17,50.46,14.59,47a3.48,3.48,0,0,0,.71-.38L52.91,21.17a3.87,3.87,0,0,0,.61-.53c2.29,3.7,5.59,9.42,7,13.68S59.49,49.16,57.51,56.06Z"/>
    <g>
      <g>
        <path class="cls-3" d="M134.89,198.3,42.66,61.9a6.68,6.68,0,1,1,11.07-7.49L146,190.81Z"/>
        <path class="cls-4" d="M134.66,198.46,42.43,62.05a6.68,6.68,0,0,1,1.79-9.28l96,141.94Z"/>
      </g>
      <g>
        <polygon class="cls-5" points="163.45 205.06 182.93 191.89 178.06 184.7 174.37 185.19 160.52 194.56 158.8 198.18 163.45 205.06"/>
        <polygon class="cls-5" points="122.2 232.95 141.68 219.78 136.82 212.59 133.12 213.08 119.27 222.45 117.56 226.07 122.2 232.95"/>
        <path class="cls-6" d="M117.52,226.23l30.39-20.55,30.39-20.54s49.15,59.87,18.82,93.32C154.77,294.15,117.52,226.23,117.52,226.23Z"/>
        <path class="cls-7" d="M117.52,226.23l30.39-20.55,49.21,72.78C154.77,294.15,117.52,226.23,117.52,226.23Z"/>
        <path class="cls-8" d="M139.73,193.59l5.88-4s27.36,46,27.73,53.69c-7-3.22-39.49-45.74-39.49-45.74Z"/>
        <path class="cls-9" d="M133.78,197.61s32.48,42.51,39.5,45.74c-10.95-16.51-33.62-49.72-33.62-49.72Z"/>
        <g>
          <circle class="cls-10" cx="146.7" cy="203.9" r="1.63"/>
          <line class="cls-11" x1="145.57" y1="203.71" x2="147.83" y2="204.1"/>
          <line class="cls-11" x1="146.9" y1="202.77" x2="146.51" y2="205.03"/>
        </g>
        <g>
          <circle class="cls-10" cx="142.21" cy="197.26" r="1.63" transform="translate(-28.98 24.55) rotate(-8.96)"/>
          <line class="cls-11" x1="141.08" y1="197.06" x2="143.34" y2="197.45"/>
          <line class="cls-11" x1="142.41" y1="196.13" x2="142.02" y2="198.39"/>
        </g>
      </g>
      <path class="cls-12" d="M53,17.86a4.31,4.31,0,0,0-5.91-1.42L9.45,41.86a4.3,4.3,0,0,0-.88,6h0a4.29,4.29,0,0,0,5.9,1.42L52.08,23.87a4.31,4.31,0,0,0,.88-6Z"/>
      <path class="cls-12" d="M11.21,46.09,8.57,47.87c.3.45,7.41,10.93,13.22,15.83S47.38,70,49.6,70.13L49.79,67c-5.74-.34-21.6-2-25.95-5.69C18.38,56.65,11.28,46.19,11.21,46.09Z"/>
      <path class="cls-12" d="M50.32,19.64c.07.11,7.13,10.59,9.37,17.38,1.78,5.39-2.56,20.74-4.38,26.2l3,1C59,62.12,65.15,43.39,62.72,36,60.34,28.81,53.26,18.3,53,17.86Z"/>
      <path class="cls-12" d="M53.43,78.21a5.78,5.78,0,0,1-.53-.67L42.43,62.06a6.83,6.83,0,0,1,11.31-7.65L64.21,69.9a6.08,6.08,0,0,1,.42.74Z"/>
      <path class="cls-13" d="M53.37,78.25,59,74.46,44.28,52.73a6.77,6.77,0,0,0-1.91,9.37L52.84,77.58A7.1,7.1,0,0,0,53.37,78.25Z"/>
    </g>
  </g>
</svg>
