<svg id="Layer_1" data-name="Layer 1" xmlns="http://www.w3.org/2000/svg" width="282.64" height="368.43" viewBox="0 0 282.64 368.43">
  <defs>
    <style>
      .cls-1, .cls-10 {
        fill: none;
      }

      .cls-1 {
        stroke: #ff0;
        stroke-linejoin: round;
        stroke-width: 10px;
      }

      .cls-2 {
        fill: #f59247;
      }

      .cls-3 {
        fill: #f8ac66;
      }

      .cls-4 {
        fill: #7d7d7d;
      }

      .cls-5 {
        fill: #4a4a4a;
      }

      .cls-6 {
        fill: #5c5c5c;
      }

      .cls-7 {
        fill: #858585;
      }

      .cls-8 {
        fill: #999;
      }

      .cls-9 {
        fill: #616161;
      }

      .cls-10 {
        stroke: #737373;
        stroke-miterlimit: 10;
        stroke-width: 2px;
      }

      .cls-11 {
        fill: #3d3d3d;
      }

      .cls-12 {
        fill: #4d4d4d;
      }
    </style>
  </defs>
  <g>
    <path class="cls-1" d="M236.18,233.67l-.86-1.27-4.9.66L212,245.49l-2.27,4.81.08.12L202,255.71c-5.56-9.72-9.77-16.78-9.77-16.78l-.42.28L84.23,80.07h0L77.31,69.83c2.29-7.36,7.68-26.44,5-34.72C79.1,25.54,69.71,11.59,69.31,11h0a5.7,5.7,0,0,0-7.83-1.89L11.57,42.86a5.72,5.72,0,0,0-1.18,8h0c.4.59,9.85,14.5,17.55,21,6.77,5.71,27,7.79,34.41,8.37l6.8,10.06a8.85,8.85,0,0,0,.7.89h0l107,158.21-.18.13h0l-.09.06s5,6.53,11.94,15.31L181,270l-.36-.54-4.91.66L157.3,282.5,155,287.31l.08.12-.13.09s49.43,90.13,105.62,69.31C298.66,314.85,242.42,241.53,236.18,233.67ZM74.24,65.29l-3.9-5.77h0A8.87,8.87,0,0,0,58,57.13l-.07,0-.08,0-.08.05h0l-.07.06h0a9,9,0,0,0-2.45,12.38l4,6c-9.47-1-24-3.16-28.62-7.07s-10-10.74-13.38-15.38a4.74,4.74,0,0,0,.94-.5L68.13,19a4.61,4.61,0,0,0,.82-.69c3,4.9,7.42,12.49,9.29,18.15S76.87,56.13,74.24,65.29Z"/>
    <g>
      <g>
        <path class="cls-2" d="M176.92,254,54.53,73a8.87,8.87,0,0,1,14.7-9.94l122.39,181Z"/>
        <path class="cls-3" d="M176.62,254.25,54.23,73.24a8.87,8.87,0,0,1,2.38-12.32L184,249.28Z"/>
      </g>
      <g>
        <polygon class="cls-4" points="214.83 263.01 240.67 245.53 234.22 235.99 229.32 236.65 210.93 249.08 208.66 253.88 214.83 263.01"/>
        <polygon class="cls-4" points="160.09 300.01 185.94 282.54 179.49 273 174.58 273.65 156.2 286.08 153.93 290.89 160.09 300.01"/>
        <path class="cls-5" d="M153.88,291.1l40.32-27.26,40.33-27.27s65.22,79.45,25,123.84C203.31,381.23,153.88,291.1,153.88,291.1Z"/>
        <path class="cls-6" d="M153.88,291.1l40.32-27.26,65.3,96.57C203.31,381.23,153.88,291.1,153.88,291.1Z"/>
        <path class="cls-7" d="M183.35,247.79l7.8-5.28s36.31,61,36.81,71.25c-9.32-4.28-52.41-60.7-52.41-60.7Z"/>
        <path class="cls-8" d="M175.46,253.12s43.1,56.42,52.41,60.7c-14.53-21.91-44.61-66-44.61-66Z"/>
        <g>
          <circle class="cls-9" cx="192.6" cy="261.47" r="2.16"/>
          <line class="cls-10" x1="191.1" y1="261.21" x2="194.1" y2="261.73"/>
          <line class="cls-10" x1="192.86" y1="259.97" x2="192.34" y2="262.97"/>
        </g>
        <g>
          <circle class="cls-9" cx="186.64" cy="252.66" r="2.16" transform="translate(-37.07 32.15) rotate(-8.96)"/>
          <line class="cls-10" x1="185.14" y1="252.4" x2="188.15" y2="252.91"/>
          <line class="cls-10" x1="186.9" y1="251.15" x2="186.38" y2="254.16"/>
        </g>
      </g>
      <path class="cls-11" d="M68.2,14.59a5.7,5.7,0,0,0-7.83-1.88L10.47,46.45a5.71,5.71,0,0,0-1.18,8h0a5.72,5.72,0,0,0,7.84,1.89L67,22.57a5.72,5.72,0,0,0,1.17-8Z"/>
      <path class="cls-11" d="M12.8,52.05,9.29,54.42c.4.59,9.85,14.51,17.55,21,7.88,6.64,34,8.37,36.91,8.54L64,79.74c-7.62-.46-28.67-2.7-34.43-7.56C22.32,66.07,12.9,52.19,12.8,52.05Z"/>
      <path class="cls-11" d="M64.7,17C64.8,17.1,74.17,31,77.14,40c2.36,7.16-3.4,27.52-5.82,34.77l4,1.34c.93-2.8,9-27.65,5.82-37.44-3.16-9.56-12.55-23.51-13-24.1Z"/>
      <path class="cls-11" d="M68.82,94.68a9.9,9.9,0,0,1-.69-.88L54.23,73.25a9.06,9.06,0,0,1,15-10.15L83.13,83.65a8,8,0,0,1,.56,1Z"/>
      <path class="cls-12" d="M68.75,94.73l7.43-5L56.68,60.87A9,9,0,0,0,54.16,73.3L68.05,93.85A10,10,0,0,0,68.75,94.73Z"/>
    </g>
  </g>
</svg>
