<svg xmlns="http://www.w3.org/2000/svg" xmlns:xlink="http://www.w3.org/1999/xlink" width="1600" height="900" viewBox="0 0 1600 900">
  <defs>
    <style>
      .cls-1, .cls-16, .cls-23 {
        fill: none;
      }

      .cls-2 {
        isolation: isolate;
      }

      .cls-3 {
        clip-path: url(#clip-path);
      }

      .cls-4 {
        fill: #a9abaa;
      }

      .cls-14, .cls-5 {
        fill: #3a2f28;
      }

      .cls-5 {
        opacity: 0.29;
      }

      .cls-6 {
        fill: #9e9e9e;
      }

      .cls-12, .cls-15, .cls-16, .cls-18, .cls-23, .cls-7 {
        stroke: #231f20;
      }

      .cls-106, .cls-107, .cls-12, .cls-15, .cls-16, .cls-18, .cls-19, .cls-23, .cls-32, .cls-7 {
        stroke-miterlimit: 10;
      }

      .cls-15, .cls-16, .cls-7 {
        stroke-width: 3px;
      }

      .cls-51, .cls-52, .cls-62, .cls-7, .cls-70, .cls-73, .cls-76, .cls-80, .cls-84, .cls-98 {
        opacity: 0.3;
      }

      .cls-8 {
        fill: #5a4438;
        opacity: 0.07;
      }

      .cls-9 {
        fill: #5f6161;
      }

      .cls-10 {
        fill: #c5c3b4;
      }

      .cls-11 {
        fill: #191716;
      }

      .cls-11, .cls-14, .cls-56 {
        opacity: 0.22;
      }

      .cls-106, .cls-12 {
        fill: #db4728;
      }

      .cls-13 {
        fill: #9d7459;
        opacity: 0.08;
      }

      .cls-15 {
        fill: #238e53;
      }

      .cls-17, .cls-32 {
        fill: #e68727;
      }

      .cls-18 {
        fill: #146936;
      }

      .cls-19, .cls-20 {
        fill: #f9b17d;
      }

      .cls-19 {
        stroke: #753e1a;
      }

      .cls-106, .cls-19 {
        stroke-width: 2px;
      }

      .cls-21 {
        opacity: 0.62;
      }

      .cls-22 {
        fill: #13331a;
      }

      .cls-24 {
        fill: #231f20;
      }

      .cls-25, .cls-26 {
        fill: #72bf5d;
      }

      .cls-26, .cls-39, .cls-44 {
        opacity: 0.49;
      }

      .cls-27, .cls-28 {
        fill: #19723f;
      }

      .cls-27, .cls-29 {
        opacity: 0.65;
      }

      .cls-29 {
        fill: #0d351b;
      }

      .cls-30 {
        fill: #753e1a;
      }

      .cls-31 {
        opacity: 0.63;
      }

      .cls-107, .cls-32 {
        stroke: #482f14;
      }

      .cls-33 {
        fill: #575757;
      }

      .cls-34 {
        fill: #a398a1;
      }

      .cls-35 {
        fill: #3f3e3d;
      }

      .cls-36 {
        fill: #676667;
      }

      .cls-37 {
        fill: #564343;
      }

      .cls-38 {
        fill: #b69477;
      }

      .cls-39, .cls-45 {
        fill: #8e5ea6;
      }

      .cls-40 {
        fill: #dcb891;
      }

      .cls-41 {
        fill: #b28f6f;
      }

      .cls-41, .cls-54 {
        opacity: 0.43;
      }

      .cls-42 {
        fill: #f1d3b6;
      }

      .cls-43 {
        fill: #443830;
        opacity: 0.72;
      }

      .cls-46 {
        fill: #b97e50;
      }

      .cls-47 {
        fill: #7e3e97;
        opacity: 0.32;
      }

      .cls-48 {
        fill: #e0ad82;
      }

      .cls-49 {
        fill: #9caf3b;
      }

      .cls-50 {
        fill: #c2cd47;
      }

      .cls-51 {
        fill: #070707;
      }

      .cls-53 {
        fill: url(#linear-gradient);
      }

      .cls-55 {
        fill: #7f1416;
      }

      .cls-57 {
        fill: #f3898e;
      }

      .cls-58 {
        opacity: 0.27;
      }

      .cls-59 {
        opacity: 0.35;
      }

      .cls-60 {
        fill: #fff;
      }

      .cls-61 {
        fill: url(#linear-gradient-2);
      }

      .cls-63 {
        fill: #daeac1;
      }

      .cls-64 {
        fill: #495727;
      }

      .cls-65 {
        fill: #a1c049;
      }

      .cls-66 {
        fill: url(#linear-gradient-3);
      }

      .cls-67 {
        fill: url(#linear-gradient-4);
      }

      .cls-68, .cls-69, .cls-70 {
        fill: #65873b;
      }

      .cls-100, .cls-69, .cls-72, .cls-75, .cls-77, .cls-79, .cls-81, .cls-83, .cls-85, .cls-86, .cls-87, .cls-89, .cls-91, .cls-95, .cls-97 {
        mix-blend-mode: multiply;
      }

      .cls-100, .cls-69, .cls-72, .cls-75, .cls-79, .cls-83, .cls-86, .cls-89, .cls-91, .cls-92, .cls-95, .cls-97 {
        opacity: 0.5;
      }

      .cls-70, .cls-73, .cls-76, .cls-80, .cls-84, .cls-92, .cls-98 {
        mix-blend-mode: screen;
      }

      .cls-71, .cls-72, .cls-73 {
        fill: #80a744;
      }

      .cls-74, .cls-75, .cls-76, .cls-77 {
        fill: #90c247;
      }

      .cls-77, .cls-81, .cls-85 {
        opacity: 0.9;
      }

      .cls-78, .cls-79, .cls-80, .cls-81 {
        fill: #f1dbcf;
      }

      .cls-82, .cls-83, .cls-84, .cls-85 {
        fill: #e8c3b0;
      }

      .cls-86, .cls-93 {
        fill: #dac68d;
      }

      .cls-87 {
        opacity: 0.17;
      }

      .cls-88, .cls-89, .cls-92 {
        fill: #f2e9ca;
      }

      .cls-90, .cls-91 {
        fill: #dece9d;
      }

      .cls-94, .cls-95, .cls-98 {
        fill: #ddc1b5;
      }

      .cls-96, .cls-97 {
        fill: #c6977c;
      }

      .cls-100, .cls-99 {
        fill: #af8067;
      }

      .cls-101 {
        fill: #f5e9dd;
      }

      .cls-102 {
        fill: #dcbaa3;
      }

      .cls-103 {
        fill: #e4d7ce;
      }

      .cls-104 {
        fill: #f0d1bc;
      }

      .cls-105 {
        fill: #e8c7b3;
      }

      .cls-106 {
        stroke: #552910;
      }

      .cls-107 {
        fill: #eb8e2d;
      }
    </style>
    <clipPath id="clip-path">
      <rect class="cls-1" width="1600" height="900"/>
    </clipPath>
    <linearGradient id="linear-gradient" x1="789.48" y1="-1809.27" x2="833.27" y2="-1809.27" gradientTransform="translate(-333.13 1868.07) rotate(23.64)" gradientUnits="userSpaceOnUse">
      <stop offset="0" stop-color="#9c1c1f"/>
      <stop offset="0.2" stop-color="#ac1c21"/>
      <stop offset="0.72" stop-color="#d41e25"/>
      <stop offset="1" stop-color="#e31e26"/>
    </linearGradient>
    <linearGradient id="linear-gradient-2" x1="778.77" y1="-1815.9" x2="788.94" y2="-1803.17" gradientTransform="translate(-333.13 1868.07) rotate(23.64)" gradientUnits="userSpaceOnUse">
      <stop offset="0" stop-color="#7dc142"/>
      <stop offset="0.29" stop-color="#61aa41"/>
      <stop offset="0.76" stop-color="#398b3f"/>
      <stop offset="1" stop-color="#2a7f3e"/>
    </linearGradient>
    <linearGradient id="linear-gradient-3" x1="1084.64" y1="536.28" x2="1149.81" y2="536.28" gradientTransform="matrix(1, 0, 0, 1, 0, 0)" xlink:href="#linear-gradient"/>
    <linearGradient id="linear-gradient-4" x1="1073.18" y1="521.73" x2="1087.41" y2="539.54" gradientTransform="matrix(1, 0, 0, 1, 0, 0)" xlink:href="#linear-gradient-2"/>
  </defs>
  <g class="cls-2">
    <g id="Layer_1" data-name="Layer 1">
      <g class="cls-3">
        <g>
          <rect class="cls-4" x="-296.53" y="457.36" width="2199.83" height="261.64"/>
          <ellipse class="cls-5" cx="900.43" cy="622.87" rx="153.72" ry="51.59"/>
          <rect class="cls-6" x="-296.53" y="443.33" width="2199.83" height="261.64"/>
          <ellipse class="cls-7" cx="415.86" cy="581.51" rx="335.57" ry="137.49"/>
          <path class="cls-8" d="M358,431.4S597.27,598.91,894.87,553.62s977.18,59.43,1008.43,39.12L1896.45,719H-327.68l31.15-275Z"/>
          <rect class="cls-9" x="-359.85" y="719" width="2283.57" height="181"/>
          <rect class="cls-10" x="-296.53" y="-22.48" width="2176.53" height="466.5"/>
          <rect class="cls-11" x="-296.53" y="719" width="2188.6" height="20.25"/>
          <path class="cls-12" d="M546.89,4.94s45.93,29.25,69.43,131.15c8,34.76,10.57,33.75,10.57,33.75s29-1,68.5-53A208.51,208.51,0,0,0,657.48,56c-36-40.07-78.44-55.66-99-61.67a346.35,346.35,0,0,0-95-10.28c-6.1.19-12.05.55-17.84,1Z"/>
          <g>
            <path class="cls-13" d="M-296.78,364.38s163.47-268,693.35-150.83S1880,199.14,1880,199.14V2.94L-319-9.14l5.57,373.76"/>
            <path class="cls-14" d="M-338.4,798.55s654.16-58,1086.78,11,775.3,41.18,806.45,26.77S1600,809.5,1600,809.5V900H-338.4Z"/>
            <path class="cls-15" d="M545.89,4.94s28.93,146.57-378,236.25l12.54,33.75L162.1,311.59l22.18,53s-20.89,40.5-28.93,71.36S98.43,573.87,189.09,634.62c84.87,44.36,183.23,53,183.23,53s3.86,28,24.11,29.89l-112.83,211,434.9-4.68-25.07-350,60.75-20.25c9.36-2,20.64-5.65,21.83-12.34,1.51-8.47-14-17.26-21.15-22.4-16.78-12-35.5-37.44-41.06-97.67,17.52-14.72,54.32-41.38,107.88-50.8a226.12,226.12,0,0,1,75.37-.43s-125.52-26.57-171.8-95l-98.36-64.6s4.82-31.83,0-40.5C622.07,157.3,579.64,9.39,579.64,9.39S554.57-13.38,545.89,4.94Z"/>
            <path class="cls-16" d="M167.89,240.16S429.54,193.77,523.72,73.44c23.46-40.6,22.17-70.5,22.17-70.5"/>
            <path class="cls-17" d="M545.89,2.94s29.92,148.57-378,239.22l12.54,32.78s184.68-36,292.17-104.29C562.28,109.59,572.94,32.88,566.14.36,566.14.36,557.72-2.13,545.89,2.94Z"/>
            <path class="cls-18" d="M177.66,273.71S585.38,182.86,566.14.36c81.15,171-406.8,310-406.8,310Z"/>
            <path class="cls-19" d="M694.39,119.52s56.16,75.45,80.15,86.9c24,15.32,85.71,56.78,121.39,90.53,38.57,32.79,55,38.59,88.71,35.21s28.93,3.36,36.64,14.93c12.54,10.61,31.82,21.22,31.82,21.22s40.5,3.86,10.61,28c-13.5,3.86-20.25,10.61-60.75-19.28-12.53-1.93-8.68,1.93-8.68,1.93S921,362.52,893,374.09c-81-26-124.24-56.45-124.24-56.45L626.89,213.06s5.79-26,0-40.5C640.39,169.67,682.82,135,694.39,119.52Z"/>
            <path class="cls-19" d="M276.85-2.13S399.64,26.16,490,107.16c33.75-24.11,55.93-41.47,55.93-102.22-54-13.5-77.14-16.39-77.14-16.39S336.64-23.66,276.85-2.13Z"/>
            <path class="cls-20" d="M343.39-24.27V-6.95s94.5,31.46,97.39,7.07l-1-24.39s-93.33-6.47-91.5-3.57"/>
            <g class="cls-21">
              <path class="cls-22" d="M212.25,457.19c7.78-6.52,16.8-11.43,26-15.7,4.62-2.15,9.36-4,14.14-5.75,2.41-.81,4.79-1.71,7.23-2.43l3.65-1.15,3.68-1a261.34,261.34,0,0,1,60.37-8.78c10.19-.36,20.39-.13,30.56.42,5.08.38,10.17.67,15.24,1.24,2.53.28,5.07.48,7.6.81l7.57,1c2.53.3,5.05.7,7.56,1.12l7.54,1.22c5,.83,10,1.73,15,2.5q15,2.4,30,4.22c10,1.2,20,2.28,30.11,3s20.13,1.16,30.2,1.23a287.94,287.94,0,0,0,30.11-1.22c5-.46,10-1.16,14.88-2a125.84,125.84,0,0,0,14.54-3.42,69,69,0,0,0,13.65-5.63c1-.63,2.14-1.19,3.11-1.91l1.49-1,1.4-1.14a22.94,22.94,0,0,0,4.74-5.22c2.56-3.82,3-8.84,3-13.76a113.07,113.07,0,0,0-1.32-14.94c-1.4-10-3.34-20-4.18-30.14a71,71,0,0,1,.2-15.28A27.33,27.33,0,0,1,596,329.43a27,27,0,0,0-5,14.05,70.83,70.83,0,0,0,.37,15c1.2,10,3.5,19.87,5.28,29.89a113.46,113.46,0,0,1,1.77,15.27,40.72,40.72,0,0,1-.39,7.85,20.1,20.1,0,0,1-2.72,7.69,25.43,25.43,0,0,1-5.27,6.12l-1.52,1.29L587,427.79c-1.06.81-2.21,1.44-3.32,2.14a72.36,72.36,0,0,1-14.27,6.22,149.42,149.42,0,0,1-30.15,6.08,292.24,292.24,0,0,1-30.57,1.6,514,514,0,0,1-60.91-4q-15.14-1.89-30.17-4.36c-5-.8-10-1.72-15-2.57l-7.45-1.24c-2.49-.41-5-.85-7.46-1.18l-7.49-1.05c-2.49-.36-5-.59-7.5-.89-5-.62-10-1-15-1.4-10.05-.63-20.12-1-30.18-.89-20.12.37-40.28,2.45-59.86,7.24l-3.67.9-3.65,1c-2.44.63-4.83,1.43-7.25,2.15-4.79,1.57-9.56,3.22-14.21,5.18s-9.24,4.07-13.7,6.45A90.26,90.26,0,0,0,212.25,457.19Z"/>
            </g>
            <g class="cls-21">
              <path class="cls-22" d="M197.78,401.26c17.9-6.92,35.83-13.64,53.75-20.39,8.94-3.43,17.92-6.73,26.84-10.19s17.89-6.79,26.77-10.33,17.81-7,26.65-10.61,17.67-7.3,26.43-11.1,17.44-7.79,25.94-12.12c4.26-2.14,8.47-4.4,12.57-6.84l3.06-1.84c1-.62,2-1.32,3-2,2-1.26,3.85-2.81,5.76-4.27a78.47,78.47,0,0,1-11,9.26c-3.91,2.81-8,5.34-12.14,7.82-8.3,4.88-16.84,9.32-25.49,13.51s-17.43,8.09-26.23,11.93S315.88,361.46,307,365,289,371.83,280,375.1s-18.07,6.43-27.18,9.43C234.64,390.6,216.32,396.31,197.78,401.26Z"/>
            </g>
            <path class="cls-23" d="M566.14,447.55S694.39,382,735.85,373.3"/>
            <path class="cls-24" d="M587.35,452.37c10-4.65,20.17-9,30.41-13.16s20.57-8.07,31-11.79c5.2-1.85,10.44-3.61,15.69-5.34,2.62-.87,5.28-1.65,7.91-2.47l4-1.22,4-1.12c10.63-3,21.42-5.69,32.42-6.84l-8.1,1.65-8,2c-5.3,1.49-10.6,3-15.86,4.66Q665,423.71,649.4,429.3t-31.08,11.36Z"/>
            <g class="cls-21">
              <path class="cls-22" d="M414.75,798.55c12.41-3.43,24.64-7.42,36.73-11.76s24-9.06,35.81-14.13,23.36-10.57,34.69-16.54,22.47-12.28,33.2-19.23a340.49,340.49,0,0,0,31.13-22.33q7.46-6,14.53-12.48t13.63-13.44C632,670.08,646.68,648.7,656.78,625a184.72,184.72,0,0,1-7.17,18q-4.14,8.76-9.13,17.12T629.65,676.2c-3.88,5.2-8,10.21-12.3,15.08s-8.83,9.51-13.52,14-9.55,8.78-14.52,12.94a331.63,331.63,0,0,1-31.43,22.88q-8.19,5.24-16.65,10c-5.63,3.19-11.3,6.31-17.09,9.2-11.57,5.79-23.34,11.18-35.36,15.93s-24.2,9.07-36.53,12.85A357.74,357.74,0,0,1,414.75,798.55Z"/>
            </g>
            <g class="cls-21">
              <path class="cls-22" d="M517.93,863.16a3.21,3.21,0,0,1,.57-1l.7-.93,1.41-1.83,2.86-3.63,5.77-7.22,11.52-14.43q11.52-14.42,22.77-29c7.46-9.77,14.93-19.54,22.15-29.48s14.43-19.88,21.34-30,13.74-20.36,20.24-30.76,12.74-21,18.65-31.71,11.38-21.73,16.2-33a227,227,0,0,0,12-34.79,188.16,188.16,0,0,1-9.75,35.7,327.56,327.56,0,0,1-15,33.91c-5.55,11-11.71,21.78-18.07,32.37s-13.19,20.9-20.15,31.11-14.24,20.17-21.67,30-15.05,19.56-22.9,29.07-15.8,18.94-23.94,28.2c-4.09,4.61-8.18,9.21-12.34,13.76L524,856.29l-3.14,3.38-1.56,1.71-.76.87A3.06,3.06,0,0,0,517.93,863.16Z"/>
            </g>
          </g>
          <g>
            <circle class="cls-25" cx="415.47" cy="508.06" r="20.97"/>
            <circle class="cls-25" cx="298.07" cy="560.37" r="20.97"/>
            <circle class="cls-25" cx="312.83" cy="647.58" r="19.35"/>
            <circle class="cls-25" cx="436.44" cy="586.83" r="19.35"/>
            <circle class="cls-25" cx="575.81" cy="526.38" r="13.31"/>
            <circle class="cls-25" cx="640.2" cy="474.31" r="13.31"/>
            <circle class="cls-25" cx="735.85" cy="364.38" r="13.31"/>
            <circle class="cls-25" cx="643.47" cy="364.38" r="13.31"/>
            <circle class="cls-25" cx="566.14" cy="364.38" r="13.31"/>
            <circle class="cls-25" cx="476.58" cy="387.95" r="13.31"/>
            <circle class="cls-25" cx="371.16" cy="387.95" r="13.31"/>
            <circle class="cls-25" cx="360.75" cy="297.05" r="13.31"/>
            <circle class="cls-25" cx="277.1" cy="334.65" r="13.31"/>
            <circle class="cls-25" cx="566.14" cy="650.75" r="18.91"/>
            <circle class="cls-25" cx="606.27" cy="855.18" r="18.91"/>
            <circle class="cls-25" cx="668.95" cy="711.76" r="18.91"/>
            <circle class="cls-25" cx="433.66" cy="836.27" r="18.91"/>
            <circle class="cls-25" cx="489.89" cy="487.63" r="11.36"/>
            <circle class="cls-25" cx="312.83" cy="481.15" r="11.36"/>
            <circle class="cls-25" cx="249.19" cy="519.42" r="11.36"/>
            <circle class="cls-25" cx="191.01" cy="544.12" r="14.89"/>
            <circle class="cls-26" cx="175.13" cy="449.45" r="12.71"/>
          </g>
          <path class="cls-27" d="M449.92,692.48s-60.43,15.43-38.57-28.93c-69.43-21.86-243.64-76.72-245.57-233l19.61-65.93s-52,113.53-49.29,154.8c0,0-18.88,69.61,62.87,120.21a8.16,8.16,0,0,1,3.39.71c4.09,1.78,8.08,3.38,11.87,5.45,7.37,1.9,14.25,5.27,21.35,8.06a6.38,6.38,0,0,1,3.62,3.45,5.91,5.91,0,0,1,1.83,0,5.64,5.64,0,0,1,4.2-.18c6.54,2,12.71,5,19,7.61,10.57,3.09,21.11,6.31,31.77,9.05a9.23,9.23,0,0,1,1.89,0c9.92,1.36,19.76,3.19,29.57,5.14a5.64,5.64,0,0,1,3.18,1.72l.68.21a34.2,34.2,0,0,0,4.39,1.25,6.69,6.69,0,0,1,2,0c3.26.54,6.52,1.08,9.77,1.65,6.15.7,12.38.57,18.51,1.56a5.3,5.3,0,0,1,3.5,1.95l3.84.36a22.93,22.93,0,0,0-.17,2.85,5.63,5.63,0,0,1,1.15,3.68c3.17,6.72,7.29,12.87,11.15,19.2,4.45,3.47,9.1,5.16,12,4.16l-112.82,211,134.37-1.45s-23.8-38.59-18.66-79.73,35.36-110.57,55.29-127.29S449.92,692.48,449.92,692.48Z"/>
          <g class="cls-21">
            <path class="cls-22" d="M691.5,607.62A150.48,150.48,0,0,0,688,573.9a116.82,116.82,0,0,0-11.46-31.51c-.69-1.21-1.31-2.46-2.07-3.62l-2.24-3.52c-1.63-2.25-3.17-4.56-5-6.66A73.91,73.91,0,0,0,655.5,517l-1.6-1.31-1.7-1.18c-1.14-.79-2.24-1.61-3.4-2.36-2.38-1.39-4.68-2.92-7.2-4.08A92.62,92.62,0,0,0,626.19,502l-.17,0-.09,0-16.08-6.73-16.1-6.67-32.23-13.28c-10.75-4.38-21.51-8.77-32.31-13.06s-21.61-8.58-32.5-12.68c11.25,3,22.31,6.67,33.35,10.36,5.51,1.87,11,3.8,16.49,5.73s11,4,16.4,6c10.93,4,21.75,8.3,32.59,12.52l16.18,6.55,16.13,6.66-.26-.09a96.42,96.42,0,0,1,16.23,6.53c2.65,1.24,5.09,2.87,7.61,4.37,1.22.8,2.39,1.69,3.59,2.53l1.77,1.3,1.68,1.41a78.64,78.64,0,0,1,12.19,12.55,86.64,86.64,0,0,1,5.07,7.12l2.21,3.75c.75,1.25,1.36,2.57,2,3.85a104.62,104.62,0,0,1,6.5,16.06,125.32,125.32,0,0,1,3.91,16.79A130.14,130.14,0,0,1,691.5,607.62Z"/>
          </g>
          <polygon class="cls-28" points="694.35 586.83 735.86 928.59 718.5 923.91 694.35 586.83"/>
          <path class="cls-29" d="M189.09,213.55S182,228.73,191,235.93l-23.12,6.23S179.43,213.55,189.09,213.55Z"/>
          <path class="cls-24" d="M241.18,106.19C247,114.48,253,122.69,259,130.86s12.13,16.25,18.43,24.19S290.2,170.8,297,178.32c3.41,3.74,6.89,7.42,10.53,10.93A106.61,106.61,0,0,0,319,199.14c-8.66-5.38-16.12-12.46-23.2-19.75s-13.62-15.14-19.95-23.1-12.34-16.17-18.13-24.53S246.4,114.91,241.18,106.19Z"/>
          <path class="cls-30" d="M867.41,226.13c-5.38,1.49-10.83,2.71-16.31,3.81s-11,2-16.54,2.72A155.61,155.61,0,0,1,817.84,234c-5.57.06-11.25-.09-16.65-1.64l4.13.65,4.16.29c2.78.06,5.56.1,8.34-.07,5.56-.25,11.1-.74,16.62-1.51s11-1.54,16.52-2.48q4.13-.7,8.23-1.48C861.94,227.21,864.67,226.67,867.41,226.13Z"/>
          <path class="cls-30" d="M862.15,267.42c-5.38,1.5-10.83,2.71-16.31,3.81s-11,2-16.53,2.73a158.62,158.62,0,0,1-16.73,1.29c-5.57.06-11.25-.1-16.64-1.65l4.12.66,4.16.28c2.78.06,5.56.11,8.34-.06,5.56-.26,11.1-.75,16.62-1.51s11-1.54,16.52-2.49c2.75-.46,5.49-1,8.23-1.48S859.41,268,862.15,267.42Z"/>
          <g class="cls-31">
            <path class="cls-24" d="M439.82,104.26,415.57,84.91,391.41,65.46,343.09,26.52l.55-.76c11.85,7.4,22.69,16.2,33.41,25.07S398.17,69,408.46,78.34,428.92,97.21,439,106.82s20,19.4,29.77,29.27q-14.89-14.62-30.12-28.9T408,78.85c-10.33-9.31-20.79-18.48-31.51-27.35S354.85,34,343.14,26.56l.55-.77L391.8,65l24.05,19.6Z"/>
          </g>
          <path class="cls-23" d="M317.35,204.55S247,135.12,241.18,116.8"/>
          <path class="cls-32" d="M626.89,169.84s25.79,1.92,68.5-53l-8.66-18.66s-37.33,54.07-65.3,54.53Z"/>
          <circle class="cls-25" cx="545.9" cy="161.12" r="10.23"/>
          <circle class="cls-25" cx="585.38" cy="81.69" r="4.83"/>
          <g>
            <ellipse class="cls-5" cx="868.54" cy="570.55" rx="108.47" ry="35.98"/>
            <path class="cls-33" d="M816.91,558.57s-5.18,9.89,2.84,15.81c20,14.75,85,7,117.51-10.7,3.71-18.46,12.22-10.26,12.22-10.26h0Z"/>
            <g>
              <path class="cls-34" d="M1022.19,428.19c-4.44,15.37-9,63-23.75,84.64-23.53,34.59-39.23,36.52-56.24,46-59.46,24-124.41,14.07-165.38-25.41-34.1-32.85-40.07-75.08-41.45-89.8,0,0-3.81-43.63,53.34-53.11,64.44-24.19,154.53-11.24,195.88,4.11C1002.65,409,1004.13,413.84,1022.19,428.19Z"/>
              <ellipse class="cls-35" cx="874.18" cy="428.64" rx="143.77" ry="57.36"/>
              <path class="cls-36" d="M879.12,366.47c-81.74,0-148,27.94-148,62.4s66.26,62.39,148,62.39S1020,461.63,1020,427.17,960.85,366.47,879.12,366.47ZM876,471.77c-70.72,0-128-20.7-128-46.23s57.33-46.23,128-46.23,128,20.7,128,46.23S946.7,471.77,876,471.77Z"/>
            </g>
            <path class="cls-37" d="M829.69,201.22s24,119.59,41.6,158.77c17.63,42.29,11,67.83,11,67.83s-69.07,6.74-77.81-5.51c-2.82-35.58-10.93-219-10.93-219s-25.36-10.09-6.41-26.86S835.56,163.47,829.69,201.22Z"/>
            <g>
              <ellipse class="cls-38" cx="862.99" cy="544.75" rx="90.05" ry="38.94"/>
              <ellipse class="cls-39" cx="862.99" cy="536.65" rx="90.05" ry="38.94"/>
              <path class="cls-40" d="M863.47,332.49c57.69,0,189.11,12.2,177.43,51.63-18.26,33.59-18.26,48.16-23.37,69S981.76,568.84,863.47,568.84s-143.1-97.19-148.44-120c-9.42-40.22-15.65-36.16-29-64.72C674.37,344.69,805.79,332.49,863.47,332.49Z"/>
              <path class="cls-41" d="M690.85,366.9c52.92,2.81,285.4,2.72,347.44,2.64a16.09,16.09,0,0,1,2.61,14.58c-3.29,6.05-6,11.47-8.22,16.43-9.33,8.77-22.42,17.74-40.46,24.46-49.65,18.5-82.26,24.06-112.93,25.66-27.92,1.45-95-10.12-105.11,3.61,3.61,18.61,11.65,42.49,29.44,62.74,31.22,35.52,98.88,51.89,149.42,27.73-21.52,16.2-39.09,20.35-85.88,25-110.69,11-145.94-95.29-150.75-114.87-3.26-13.28-6.78-18.07-12.47-33.35-2.9-2.14-3.18-9.85-5.68-11.44a216.73,216.73,0,0,0-12.21-26C684.14,377.68,686.06,372,690.85,366.9Z"/>
              <path class="cls-42" d="M1041.55,377.77C1038.8,413.44,960.13,442,863.47,442s-175.33-28.6-178.07-64.27c3.41-34.4,123.61-45.28,178.07-45.28S1038.14,343.37,1041.55,377.77Z"/>
              <ellipse class="cls-43" cx="860.31" cy="384.12" rx="146.27" ry="31.88"/>
              <path class="cls-43" d="M860.18,361.09c-77.17,0-140.06,13.25-142.82,29.82-2.17-2.19-3.32-4.46-3.32-6.79,0-17.61,65.49-31.88,146.27-31.88s146.27,14.27,146.27,31.88c0,2.41-1.23,4.76-3.56,7C1000.81,374.46,937.7,361.09,860.18,361.09Z"/>
              <path class="cls-39" d="M720.37,384.12c0,12.44,32.66,23.21,80.3,28.46-36.6-14.5-51.37-37.62-53.75-46.78C730.19,371,720.37,377.3,720.37,384.12Z"/>
              <g class="cls-44">
                <path class="cls-45" d="M689.35,382c0-.21-.39,0-.28.15s.37.16.57.12a111.66,111.66,0,0,1,29.11-2.46,3.82,3.82,0,0,0-1.56,4.13,11.21,11.21,0,0,0,2.2,4.14l4.48,6.15a17.16,17.16,0,0,0-6.34-3.51,83,83,0,0,0-25.13-4.93,6.08,6.08,0,0,1-3-.64,2,2,0,0,1-.8-2.7Z"/>
              </g>
              <g class="cls-44">
                <path class="cls-45" d="M799.22,415.53a143.25,143.25,0,0,0-14.83,5c-4.72,1.86-9.56,4.13-12.53,8.24-.59.81-1.26,1.78-2.26,1.78a3.12,3.12,0,0,1-1.18-.33,38,38,0,0,0-11.72-2.95,191.88,191.88,0,0,1,40.5-12.52Z"/>
              </g>
            </g>
            <g>
              <path class="cls-46" d="M893.91,414.43s-51-160.7-47.42-186.13,22.87-25.23,17.3-47.77c-5.39-21.77-31.55-33.11-50.11-31-20.38,2.27-42.47,19-42.93,41.41-.48,23.21,18.32,18.77,27.4,42.79,4.68,12.42-6,143.58-8,179.06C826.78,419.72,893.91,414.43,893.91,414.43Z"/>
              <path class="cls-47" d="M786.63,189.66c7.2,16.84,46.31,22.76,55.49,19.82s-1.82,6.72-11.36,9.3c-4.3,1.16-11.92,5.08-12.09,19.23-.14,11.61,39.66,149.31,41.64,178-7.48.42-52.92-3.18-59.64-9.88,2.06-35.47,7.72-160.17,3-172.58-9.07-24-29-23.93-29.2-42.65-.16-13.9,10.68-25.74,22-33.17C790,166.89,782.92,181,786.63,189.66Z"/>
              <path class="cls-48" d="M860.47,183.43c3.75-9.51-18.48-34.18-33.19-28.49-8.93,3.47-14.51,17.92-10.22,26.66C824.1,196,856.75,192.85,860.47,183.43Z"/>
              <path class="cls-48" d="M842.54,280.48c5-1.18,31.13,74,23.1,77.9-3.3,1.6-12.4-8.81-17.19-17.89-5.22-9.91-5.67-21.5-6.37-44.27C841.76,285.87,841.6,280.7,842.54,280.48Z"/>
            </g>
            <path class="cls-30" d="M853.15,298.09c-4.12,1.19-8.3,2.15-12.49,3s-8.44,1.52-12.69,2.12a119.78,119.78,0,0,1-12.84,1,43.19,43.19,0,0,1-12.77-1.35l3.17.47,3.19.19c2.13,0,4.26.06,6.39-.08,4.25-.21,8.51-.59,12.73-1.18s8.46-1.18,12.68-1.88c2.1-.35,4.21-.72,6.31-1.11S851,298.48,853.15,298.09Z"/>
            <g>
              <path class="cls-49" d="M863,423s-22-42.63-74.53-54.26-111.08-.36-111.08-.36,78.35,21,111.27,35.43c27.3,11.94,44.58,17.92,61.31,19C853.45,423,859.42,423,863,423Z"/>
              <path class="cls-49" d="M857.38,418.25c1.18-3.18,23.08-50.22,2.11-82.11s-85.25-72.83-85.25-72.83,13.9,20,32.38,43.07,28,37.84,33.31,60.63S851.56,433.89,857.38,418.25Z"/>
              <path class="cls-50" d="M851,412.58a37.22,37.22,0,0,0-3.91-3.83c-.7-.58-1.38-1.19-2.1-1.74s-1.43-1.14-2.17-1.67l-1.11-.8c-.36-.27-.73-.54-1.12-.79l-2.26-1.53L836,400.78l-1.16-.72-1.18-.68a164.05,164.05,0,0,0-19.6-9.64c-1.68-.69-3.35-1.41-5.07-2s-3.39-1.32-5.1-1.92l-2.57-.88c-.87-.28-1.74-.53-2.61-.79l-1.3-.4-1.31-.35-2.64-.71c-7-1.8-14.2-3.22-21.39-4.43S757.66,376,750.42,375s-14.51-1.73-21.77-2.5-14.55-1.43-21.83-2c-3.64-.32-7.29-.63-10.93-.91l-10.94-.8q21.94.35,43.84,2.17c7.3.58,14.59,1.33,21.86,2.17s14.53,1.88,21.76,3.1,14.43,2.7,21.54,4.58l2.66.76,1.32.38,1.32.41c.88.28,1.76.55,2.63.84l2.61.93.65.23.64.26,1.28.51,2.56,1c1.71.66,3.39,1.41,5.07,2.15a149.94,149.94,0,0,1,19.48,10.24l1.17.74,1.14.77,2.27,1.55,2.22,1.64c.37.26.73.54,1.09.83l1.07.86A48.29,48.29,0,0,1,851,412.58Z"/>
              <path class="cls-50" d="M855.57,411.44v-.27l0-.27a4.51,4.51,0,0,1,.07-.53c0-.36.11-.72.16-1.07l.36-2.13c.24-1.42.48-2.83.71-4.25.45-2.83.88-5.67,1.22-8.52a155.64,155.64,0,0,0,1.2-17.11,97.59,97.59,0,0,0-1.23-17,67.76,67.76,0,0,0-2-8.25,53.73,53.73,0,0,0-3.13-7.87c-1.22-2.56-2.56-5.07-4-7.51l-.54-.92-.56-.91L846.73,333c-.78-1.2-1.55-2.4-2.36-3.57-3.18-4.75-6.65-9.31-10.19-13.81s-7.26-8.88-11-13.19-7.65-8.57-11.61-12.74c4.27,3.85,8.35,7.92,12.34,12.06q3,3.14,5.87,6.34c1.93,2.13,3.81,4.32,5.67,6.53,3.7,4.41,7.24,9,10.55,13.72,1.66,2.36,3.23,4.8,4.72,7.28s2.89,5,4.16,7.66a55.63,55.63,0,0,1,3.18,8.16,64.05,64.05,0,0,1,2,8.52c.44,2.88.72,5.77.87,8.67.08,1.45.11,2.9.13,4.35l0,2.17c0,.72,0,1.44-.06,2.17a136,136,0,0,1-1.8,17.22c-.49,2.84-1,5.67-1.65,8.48-.31,1.4-.63,2.8-1,4.2l-.5,2.1c-.08.35-.17.7-.24,1.05,0,.17-.08.35-.1.53l0,.26Z"/>
              <path class="cls-49" d="M832.47,414.83c-2-1-31.28-19.27-54-8s-54.91,50.4-54.91,50.4,14.31-7.57,31-17.91,27.22-15.4,42.68-17.1S842.32,419.92,832.47,414.83Z"/>
              <path class="cls-50" d="M823.27,412.25q-6.66-.67-13.33-.8a119.94,119.94,0,0,0-13.28.43c-2.19.21-4.38.49-6.55.87a51.08,51.08,0,0,0-6.38,1.53,34.34,34.34,0,0,0-6,2.44c-1,.53-1.93,1-2.89,1.59L772,420q-5.64,3.51-11.08,7.38c-.92.62-1.82,1.27-2.73,1.92l-2.71,1.93-2.69,2c-.91.65-1.81,1.31-2.7,2-7.17,5.28-14.27,10.66-21.39,16,6.59-6,13.43-11.76,20.44-17.29a248.14,248.14,0,0,1,21.8-15.63l2.89-1.73c1-.55,2-1.07,3-1.61a34.42,34.42,0,0,1,6.37-2.51,59.84,59.84,0,0,1,13.37-2.14,100.43,100.43,0,0,1,13.44.15A109.47,109.47,0,0,1,823.27,412.25Z"/>
            </g>
          </g>
          <path class="cls-19" d="M461.68,132.33l63.64,60.75s85.82,16.39,151.39,36.64c28.93,5.79,69.43,6.75,74.25,0s12.54-25.07,12.54-25.07,8.43-12.54,16.75-9.64c5.34,1.85,9,5.7,15.42,7.7,5.16,1.6,9.42,1.37,14.25,1,21.05-1.74,51.4-5.87,53.91-6.21a16.85,16.85,0,0,1,6.7,24.54c-2.89,4.1-5.7,9.67-4.5,15.42,1.53,7.31,7.07,3.65,6.79,13.93-.36,13.4-10.13,9.69-12.24,17.69-1.66,6.3,5.78,8.55,5.45,14.57-.59,10.95-19.4,18-26.35,19.39-9.65,1.92-72.33,6.75-72.33,6.75S723,321.33,703.71,319.4c-21.21,1.93-135,13-179.36.22-46.28-7.94-94.5-16.61-170.67-79.29C353.68,240.33,376.82,145.83,461.68,132.33Z"/>
          <ellipse class="cls-51" cx="1164.65" cy="528.81" rx="23.86" ry="5.91" transform="translate(-24.37 57.34) rotate(-2.79)"/>
          <path class="cls-52" d="M1154.73,542.19c0-.46.49-.58-.27-.94-1.48-.69-1.8-.27-4-.48s-4.94-1.48-7.45-2.93c-1.29-.74-3-1.48-4.68-2.23,1.71-1.86,3.59-3.69,4.36-3.9s2.87-.65,3.51-.31a.65.65,0,0,0,.85-.32,1,1,0,0,0,0-1.15c-.57-.68-3.06-1.77-6-1.24-1.93.35-5.21,2.18-8.7,4-2.77-1.46-6.45-3.21-8.55-4.09-2.48-1-3-1.89-5.09-1.88a3.54,3.54,0,0,0-1.41.28.17.17,0,0,0-.13,0l-.08,0h0s0,0,0,0a3.53,3.53,0,0,0-1.14.47v0c-.16.09-.31.18-.48.26a1.4,1.4,0,0,1-1,.17l-.17,0a5.25,5.25,0,0,1-.55-.22,3,3,0,0,0-.36-.18l-.07,0a.12.12,0,0,0-.1,0l-.29-.17-1.47-.87-2-1.17-.7-.4a10.14,10.14,0,0,0-1-.48,14.2,14.2,0,0,0-1.46-.56l-.51-.16-1.16-.32a3.48,3.48,0,0,1-1.42-.75s-.08,0-.13-.1-.06-.15-.12-.25l-.07-.08a.28.28,0,0,0-.09-.21,1.26,1.26,0,0,0-1.11-.37.77.77,0,0,0-.64.35.2.2,0,0,0,0,.17.22.22,0,0,0,0,.11.14.14,0,0,1,0,.06l0,0c0,.1.08.2.13.3a3.49,3.49,0,0,0,1.79,1.78l.33.16c.21.09.38.14.58.23h0c.86.34,1.71.63,2.5,1,1,.48,1.9,1,2.8,1.55a29.21,29.21,0,0,1,2.71,1.6,5.3,5.3,0,0,1,1.82,2.43.19.19,0,0,0,0,.07s0,0,0,.06v.06h0v0a7.25,7.25,0,0,1,0,.93c0,.18,0,.37,0,.56,0,0,0,.07,0,.1s0,0,0,0v0h0a2.26,2.26,0,0,0,0,.37,1.42,1.42,0,0,0,.08.42,1.15,1.15,0,0,0,.12.25.27.27,0,0,0,.1.09h0l.11.07c0,.15.06.3.1.45h0l.09.12a1.91,1.91,0,0,0,.63.76,3.3,3.3,0,0,0,.4.32l.09.06a7.71,7.71,0,0,0,.78.45,4.52,4.52,0,0,1,.51.33l.06,0-.05,0h0l.09.07s0,0,0-.05h0l.08.05.23.11c.32.15.71.28,1.07.42a4.28,4.28,0,0,1,.52.22,32.27,32.27,0,0,1-6.9.55c-3.42-.2-13.78-3.12-15.19-3.62s-4.58-2.11-6.13-1.66a6.53,6.53,0,0,0-1.56.73.21.21,0,0,0-.23-.08,1.74,1.74,0,0,0-.5.17h0a3.56,3.56,0,0,0-.72.44h0c-.31.23-.61.49-.92.72a3.5,3.5,0,0,1-.53.31l-.26.1-.11,0a1.59,1.59,0,0,1-.39.07,5.21,5.21,0,0,1-1.7-.23.22.22,0,0,0-.14,0,22.68,22.68,0,0,1-5.65-2.33c-.94-.53-1.86-1.12-2.76-1.73l-.3-.21-.08-.06-.25-.18a.27.27,0,0,0-.08-.07l-.23-.19-.08-.08a2.09,2.09,0,0,1-.2-.22,1.8,1.8,0,0,1-.49-1.11.2.2,0,0,0-.06-.14l.06-.3a.94.94,0,0,1,0-.38,1.29,1.29,0,0,0-.19-.47,1.38,1.38,0,0,0-.74-.51c-.31-.1-.73-.25-1,0a.21.21,0,0,0-.1.18.15.15,0,0,0-.06.09,0,0,0,0,0,0,0h0a.5.5,0,0,0,0,.13,2.14,2.14,0,0,0-.09.34.49.49,0,0,1,0,.12c0,.12,0,.24,0,.36v.11l0,.36,0,.11a2.33,2.33,0,0,0,.08.36s0,.08,0,.12a2.79,2.79,0,0,0,.12.34l.07.15c0,.09.09.19.14.28a1.59,1.59,0,0,0,.13.22,1.28,1.28,0,0,0,.11.2c.09.14.19.27.28.4s.3.38.46.56h0a15.69,15.69,0,0,0,2.3,2.16,17.79,17.79,0,0,0,3.15,2c1.21.6,2.49,1,3.74,1.45a7.41,7.41,0,0,1,2,1.07l.21.17.16.15c.06.06.12.11.17.17l.17.21.12.15c.09.13.17.27.25.41a.19.19,0,0,0,0,.15,6.13,6.13,0,0,1,.31,1.75s0,.08,0,.12h0a1.55,1.55,0,0,0,0,.31v0a2.29,2.29,0,0,0,.07.28s0,0,0,0a1.15,1.15,0,0,0,.12.25l0,0a.73.73,0,0,0,.21.22.24.24,0,0,0,.08.06,3.56,3.56,0,0,0,.38.65,4.71,4.71,0,0,0,1.62,1.31c.61.32,1.3.64,2,.94h0a18.51,18.51,0,0,1,2.72.82c.64.27,1.29.52,1.94.75h0a15,15,0,0,0,3.87.61l.77-.06h.15l.32,0,.35,0,1.06-.11h0l.53,0h.54l.21,0,.31,0,.16,0a2.26,2.26,0,0,1,.43.17c1.1.6,10.66,1.6,19.2-.81a24.89,24.89,0,0,0,2.91-1h0c.76-.32,1.48-.67,2.18-1a30.76,30.76,0,0,0,4.48-3c1.19.42,2.4.79,3.56,1.1l1.27.34a7.63,7.63,0,0,0,1.73.49l.12,0s-.07,0,0,0a8.35,8.35,0,0,1,1.34.27,9.82,9.82,0,0,0,1.22.23,29,29,0,0,0,5.53.1l.65-.08h.06l.07,0a13.24,13.24,0,0,0,3-.93l.73-.27c.52-.18.89-.32,1.22-.42a4.88,4.88,0,0,1,1.08-.18,5.6,5.6,0,0,1,.59,0h.27c.21,0,.26-.05.29-.27a1.35,1.35,0,0,1,.12-.12l-.1,0Z"/>
          <g>
            <g>
              <g>
                <path class="cls-53" d="M1157.69,540.12c-.06.48-.08.43-.65.43a7.33,7.33,0,0,0-3,.66,16.23,16.23,0,0,1-4.78,1.38,26.06,26.06,0,0,1-7.11-.35,8.18,8.18,0,0,0-1.41-.28c-.26,0,.28,0-.16,0a7.42,7.42,0,0,1-1.82-.51,42.92,42.92,0,0,1-11.32-4.37c-1.27-.81-.39-.14-1.3-.54-.21-.09-.19-.13-.3,0h0c-.24,0-.44,0-.69,0l-.23,0a8.86,8.86,0,0,1-.92,0,11.3,11.3,0,0,1-2.7-.65s.15.06-.13,0-.92-.46-1.32-.67c-.56-.29-1.41-.47-1.94-.8s.21.19-.14-.1-1.07-.57-1.45-.88-1-.7-1.16-1.27a7,7,0,0,1,.73-5.47c.86-1.58,1.69-2.93,3.85-2.94s2.75.89,5.36,2,7.52,3.47,10.48,5.1,7.16,3.13,9.8,4.65,5.58,2.87,7.86,3.09,2.61-.23,4.18.5C1158.2,539.5,1157.74,539.63,1157.69,540.12Z"/>
                <g class="cls-54">
                  <path class="cls-55" d="M1125.15,536.58c-.47,0-.64.07-1.18,0a10.88,10.88,0,0,1-2.69-.65s.15.06-.13,0-.92-.46-1.32-.67c-.56-.29-1.41-.48-1.94-.8s.23.19-.15-.1-1-.59-1.46-.87a4.6,4.6,0,0,1-1.18-1.27.49.49,0,0,1,.47,0c1.49.76,3.23,1.24,4.71,2s3,1.4,4.62,2.06C1125.07,536.32,1125.08,536.43,1125.15,536.58Z"/>
                  <path class="cls-55" d="M1140.64,542a16.78,16.78,0,0,1-1.89-.51,41.63,41.63,0,0,1-11.3-4.34c-1.52-1-.5-.12-1.7-.6.09.06.08,0,.09,0,1.31-.46,2.3.24,3.59.34a9.55,9.55,0,0,1,3.92.69c1.36.7,2.54,1.84,3.86,2.66C1138.3,540.89,1139.54,541.35,1140.64,542Z"/>
                  <path class="cls-55" d="M1157.79,540.15c-.37.31-.11.43-.71.42a6.85,6.85,0,0,0-3.06.64,17.27,17.27,0,0,1-4.78,1.38,26,26,0,0,1-7-.33c0-.17.15-.27.32-.23a8.91,8.91,0,0,0,3.07.39c1-.13,1.64-.24,2.72-.34a31.65,31.65,0,0,0,6.27-1.63.67.67,0,0,1,.31,0,2.77,2.77,0,0,1,.7-.18,15.67,15.67,0,0,1,1.94-.13A1,1,0,0,1,1157.79,540.15Z"/>
                </g>
                <g class="cls-56">
                  <path class="cls-57" d="M1117.15,532.72a7.62,7.62,0,0,1-.8-1.38,2.71,2.71,0,0,0-.85-1.23c-.13-.1-.28,0-.34.15a1.06,1.06,0,0,0,0,.14.5.5,0,0,0,0,.28c.07.27.13.61.22.87a2.63,2.63,0,0,0,.31.75,2.53,2.53,0,0,0,1.2.86A.28.28,0,0,0,1117.15,532.72Z"/>
                  <path class="cls-57" d="M1128.33,536.23c-1.16-.61-2.36-1.13-3.55-1.66a11.77,11.77,0,0,0-2.17-1,24.7,24.7,0,0,0-4.78-.87c-.16,0-.22.15-.18.29s-.05.3.12.32a7.08,7.08,0,0,1,2.15.66c.62.33,1.13.73,1.74,1s1.17.34,1.75.57a4.3,4.3,0,0,1,1.42,1s0,.07.09.08a.55.55,0,0,0,.22,0l.62,0h0c.09-.11.19,0,.31,0a1.34,1.34,0,0,0,.09-.26c.66.06,1.31.17,2,.27C1128.34,536.59,1128.48,536.31,1128.33,536.23Z"/>
                  <path class="cls-57" d="M1150.24,541.48a6,6,0,0,0-.81.2s-.12,0-.17,0,0-.12-.08-.15a.69.69,0,0,0-.27-.16l-1.5-.56a5.22,5.22,0,0,0-1.44-.39,2.52,2.52,0,0,1-.71-.12c-.25-.1-.49-.21-.78-.3-1.06-.32-2.13-.62-3.18-1a3.11,3.11,0,0,0-.8-.32c-.28,0-.58,0-.87-.08-.63-.08-1.28-.17-1.91-.3a6.6,6.6,0,0,1-1.09-.35,5.44,5.44,0,0,0-1-.39c-.67-.13-1.31-.15-2-.32a.19.19,0,0,0-.16.34c.56.41,1.15.78,1.71,1.2a19,19,0,0,0,2.45,1.59,19.34,19.34,0,0,0,3.07,1.45,14,14,0,0,0,5.22.63c1.12-.07,2-.38,3-.4,0,0,0,0,.07,0s.1.1.19.09a4.89,4.89,0,0,0,.93-.24C1150.39,541.78,1150.42,541.46,1150.24,541.48Z"/>
                </g>
                <g class="cls-58">
                  <path class="cls-57" d="M1118.59,525.36a.8.8,0,0,0-.65.19c-.09.06-.15.15-.24.22s-.23.1-.33.18a3.18,3.18,0,0,0-.78,1.07c0,.05,0,.09,0,.13a7.32,7.32,0,0,0-.63,1.69,1.3,1.3,0,0,0,.06,1c.19.26.4.25.66.09a1.27,1.27,0,0,0,.46-.75c.13-.39.28-.77.45-1.15.37-.79.77-1.59,1.14-2.39A.19.19,0,0,0,1118.59,525.36Z"/>
                  <path class="cls-57" d="M1118.67,528.19a.17.17,0,0,0-.19-.13c-.22,0-.29.19-.37.39s-.21.49-.29.67l-.56,1.28a.92.92,0,0,0,0,.09h0c0,.25.18.32.35.15h0a1.08,1.08,0,0,0,.3-.45,2.64,2.64,0,0,1,.31-.6A1.82,1.82,0,0,0,1118.67,528.19Z"/>
                  <path class="cls-57" d="M1123.36,529.48a9,9,0,0,0-1,2.11s0,0,0,0l0,.07c-.1.22.11.35.27.2a1.25,1.25,0,0,0,.25-.59,2.76,2.76,0,0,1,.08-.27.93.93,0,0,1,.18-.26,2.41,2.41,0,0,0,.41-.54,1.79,1.79,0,0,0,.22-.7C1123.71,529.32,1123.47,529.3,1123.36,529.48Z"/>
                  <path class="cls-57" d="M1123.66,530.8a.14.14,0,0,0-.13-.14.15.15,0,0,0-.18.08,2.27,2.27,0,0,0-.27.48,1,1,0,0,0-.08.54.31.31,0,0,0,0,.11c0,.06,0,.19.15.17a.2.2,0,0,0,.2-.17.25.25,0,0,0,0-.08,0,0,0,0,0,0,0v0a1,1,0,0,1,.05-.11l0-.07h0l0,0,.08-.14A1,1,0,0,0,1123.66,530.8Z"/>
                  <path class="cls-57" d="M1141.81,536.67a2.87,2.87,0,0,0,.1-1.13,1.33,1.33,0,0,0-.6-.89,9.86,9.86,0,0,0-1.22-.7c-.87-.45-1.76-.88-2.61-1.34-2-1.05-3.83-2.17-5.75-3.26l-.07,0a17.84,17.84,0,0,0-2.36-1.28c-.85-.38-1.78-.67-2.68-1-.44-.15-.84-.39-1.27-.57a9.09,9.09,0,0,0-1.38-.39c-.48-.11-1-.25-1.47-.35a5.77,5.77,0,0,0-1.43-.23,2,2,0,0,0-1.88,1.05c-.06.11-.15.2-.14.33a.57.57,0,0,0,.4.55,3.38,3.38,0,0,0,1,.07l1.19,0a3.3,3.3,0,0,1,1.82.46c.45.31.71.8,1.13,1.15a1.7,1.7,0,0,0,.64.33c.14,0,.27,0,.44.06l.55.16a1.82,1.82,0,0,0,.8.07,3.27,3.27,0,0,1,1-.12,2.42,2.42,0,0,1,.85.42,1.47,1.47,0,0,1,.82,1.49,1.27,1.27,0,0,0,.2.63,3.52,3.52,0,0,0,1.2.95,2.11,2.11,0,0,1,1.1,1.19.14.14,0,0,0,.2.08,5.42,5.42,0,0,0,.75-.68c.18.2.18.53.35.73a2.47,2.47,0,0,0,1,.58,5,5,0,0,0,2,.62,1,1,0,0,0,.39-.13,1.58,1.58,0,0,0,.18-.13c.07,0,.13-.19.22-.2s.21.22.27.37a.88.88,0,0,0,.26.42,2,2,0,0,0,.91.25,1.69,1.69,0,0,1,.49.09,1.65,1.65,0,0,1,.47.41.93.93,0,0,0,.83.33.54.54,0,0,1,.42.08c.13.08.21.24.37.23C1141.65,537.35,1141.73,537,1141.81,536.67Z"/>
                  <path class="cls-57" d="M1144.23,537.39a9,9,0,0,0,0-1,.86.86,0,0,0-.08-.48.82.82,0,0,0-.4-.26,5,5,0,0,0-.91-.33c-.07,0-.08,0-.15.07s-.16,0-.18.17c-.06.34-.12.72-.2,1.05,0,.16-.1.34-.14.48a.59.59,0,0,0,0,.41c.13.31.36.2.54,0a1.56,1.56,0,0,0,.2-.41c0-.06,0-.14.07-.2a6.28,6.28,0,0,1,.4.88c.08.22.19.58.47.43S1144.18,537.7,1144.23,537.39Z"/>
                  <path class="cls-57" d="M1147.36,538.55c0-.1.19-.19.23-.33a.56.56,0,0,0-.06-.45,2.28,2.28,0,0,0-.4-.35l-.46-.37a4.1,4.1,0,0,0-1.88-.95s-.07,0-.11.08a.28.28,0,0,0-.11.19c0,.28,0,.64,0,.91a5.05,5.05,0,0,0,.08.81c.12.42.47.47.82.46s.31-.14.5-.12.17.11.25.14a.49.49,0,0,0,.19,0c.27,0,.5-.1.77,0,0,0,0,0,.06,0S1147.33,538.65,1147.36,538.55Z"/>
                  <path class="cls-57" d="M1155.27,539.09c-.92-.15-1.79,0-2.7-.1a8.42,8.42,0,0,1-1.47-.33l-1.52-.44c-.28-.08-.54-.2-.82-.3a.6.6,0,0,0-.58.06s0,.11-.06.16a1,1,0,0,0,.3,1.23c.25.17.4.06.65.08a4.13,4.13,0,0,1,.69.11,16.68,16.68,0,0,0,1.62.41,5,5,0,0,0,1.76-.1c.68-.14,1.35-.35,2-.43C1155.36,539.42,1155.43,539.12,1155.27,539.09Z"/>
                </g>
                <g class="cls-59">
                  <path class="cls-60" d="M1142,535.44c0-.39-.27-.58-.56-.73-1.78-.92-3.52-1.74-5.27-2.72s-3.21-1.93-4.92-2.82a39.86,39.86,0,0,0-5.4-2.31c-1-.33-2-.64-3-.93a6.88,6.88,0,0,0-2.51-.35,2,2,0,0,0-.86.36c-.19.12-.37.27-.34.52a.55.55,0,0,0,.63.44c.47,0,.89-.16,1.36-.16a5.49,5.49,0,0,1,1.4.18,5.63,5.63,0,0,1,1.27.58,11.64,11.64,0,0,0,1.18.75,10.54,10.54,0,0,0,2.66.47,3.35,3.35,0,0,1,1.29.4,4,4,0,0,1,.94.83c.59.64,1.08,1.32,1.67,1.94.32.33.65.61,1,.93a3.19,3.19,0,0,0,.47.42,6,6,0,0,0,.63.27,17.62,17.62,0,0,1,1.79,1.44,1.5,1.5,0,0,0,1,.22,6.58,6.58,0,0,0,1.11-.31,1.81,1.81,0,0,1,1.08,0,6.43,6.43,0,0,1,1,.57,2.54,2.54,0,0,0,1.85.65A.73.73,0,0,0,1142,535.44Z"/>
                  <path class="cls-60" d="M1144.17,535.91a.39.39,0,0,0-.21-.27l-.47-.29a1.42,1.42,0,0,0-.25-.12,1.39,1.39,0,0,0-.26-.1.52.52,0,0,0-.27.07.25.25,0,0,0-.16.17,2.68,2.68,0,0,0-.07.27.39.39,0,0,0,.1.31.46.46,0,0,0,.21.13l.25.1a1.35,1.35,0,0,0,1,0A.27.27,0,0,0,1144.17,535.91Z"/>
                  <path class="cls-60" d="M1147.63,537.92a5.59,5.59,0,0,0-1.47-1.14c-.26-.15-.49-.34-.74-.49a1.16,1.16,0,0,0-.72-.22.12.12,0,0,0-.13.08.71.71,0,0,0,0,.57.85.85,0,0,0,.43.35,10.54,10.54,0,0,1,.92.62,5.7,5.7,0,0,0,.89.54.69.69,0,0,0,.84-.05A.23.23,0,0,0,1147.63,537.92Z"/>
                  <path class="cls-60" d="M1155.25,539c-.18-.18-.4-.08-.6,0a3.29,3.29,0,0,1-.75.06l-1.38-.11a5.32,5.32,0,0,1-.69-.16c-.21,0-.4-.19-.61-.09s-.18.32-.14.51a.19.19,0,0,0,.07.13l.11,0a1.38,1.38,0,0,0,.39.13,6.11,6.11,0,0,0,1.54.1c.36,0,.68-.07,1-.1a1.84,1.84,0,0,0,1-.18C1155.27,539.27,1155.33,539.12,1155.25,539Z"/>
                </g>
              </g>
              <g>
                <path class="cls-61" d="M1117.12,525.82a3.83,3.83,0,0,1,1.07-1.41c.17-.13.12-.38-.09-.36a5.65,5.65,0,0,0-1.78.78,1.5,1.5,0,0,1-1,.19,4.94,4.94,0,0,1-1.22-.51.12.12,0,0,0-.1,0c-1.63-.92-3-1.83-4.7-2.75a15.17,15.17,0,0,0-3.13-1.27,6.15,6.15,0,0,1-2.71-1.12c0-.05-.08-.05-.14-.11s-.06-.16-.12-.26-.23-.23-.38-.18l-.15.08s0,0,0,0l0,0-.05,0-.1,0,0,0h-.07l-.12,0h-.34l-.11,0,0,0,0,0-.09-.08,0,0,0-.06a.26.26,0,0,0-.14-.06c-.14,0-.25,0-.19.23a3.71,3.71,0,0,0,2.34,2.37c1.11.49,2.23.83,3.26,1.34s2,1.09,3,1.64a32.28,32.28,0,0,1,2.85,1.68,5.69,5.69,0,0,1,2,2.63.4.4,0,0,0,0,.15,9.36,9.36,0,0,1,0,1.59,1.62,1.62,0,0,0,.23,1.2c.19.24.51.33.7,0s.06-.82.06-1.17a5.56,5.56,0,0,1,.11-1.59,2.79,2.79,0,0,1,.67-1.2,2.28,2.28,0,0,1,1-.82c.23-.1.77,0,.63-.49S1117.43,525.87,1117.12,525.82Z"/>
                <g class="cls-62">
                  <path class="cls-63" d="M1118,526.25a1,1,0,0,0-.8-.41c-.08,0-.17.07-.23.08l-.2.05-.07,0s0,0,0,0h0l-.12,0h0s-.07,0,0,0a.16.16,0,0,0,.1,0h.18c.15,0,.3,0,.47,0a1.4,1.4,0,0,1,.53.15,1,1,0,0,0,.19.08s.09,0,.1,0S1118.09,526.43,1118,526.25Z"/>
                  <path class="cls-63" d="M1117.14,524.62a2.14,2.14,0,0,1,.32-.2,3.82,3.82,0,0,1,.36-.13l.06,0h0l0,0,0,0h0l0,0s0,0,0-.06a0,0,0,0,0,0,0h0s0,0,0,0a3.85,3.85,0,0,0-1.2.51.44.44,0,0,1,0,.1h0l.05,0h.11l0,0,0,0Z"/>
                  <path class="cls-63" d="M1114.58,530.47a1.83,1.83,0,0,0,.22,1.1.41.41,0,0,0,.1.09s0,0,0,0h0l0,0h0v0s0,0,0,0v0s0,0,0,0v0s0-.1,0-.15a1.55,1.55,0,0,1,0-.23c0-.06,0-.16,0-.2s0-.07,0,0,0,0,0,0a.45.45,0,0,1,0-.11l0-.11,0,0h0v0l0,0s0,0,0,0,0,0,0,0h0Z"/>
                  <path class="cls-63" d="M1110.13,523.43a7.42,7.42,0,0,1-1.1-.53c-.35-.21-.7-.45-1.06-.62a3,3,0,0,0-.77-.22,3.45,3.45,0,0,0,.54.46,6.13,6.13,0,0,0,.77.35,5.45,5.45,0,0,1,.88.49,2.45,2.45,0,0,0,.8.38c.07,0,.09.06.16.06s.16,0,.12-.13S1110.24,523.48,1110.13,523.43Z"/>
                  <path class="cls-63" d="M1102.76,520.64a4.39,4.39,0,0,1-1.56-1.67,3.89,3.89,0,0,0,2.37,2.37c.22.1.4.15.61.24A8.52,8.52,0,0,0,1102.76,520.64Z"/>
                </g>
                <path class="cls-64" d="M1106.33,521a25.75,25.75,0,0,1,3.67,1.52c.6.34,1.08.7,1.63,1s1.06.55,1.58.85.75.52,1.13.74a1.84,1.84,0,0,0,1.14.34c.26,0,.32-.28.46-.46a1.85,1.85,0,0,1-.62,0,6.22,6.22,0,0,1-1.22-.52.12.12,0,0,0-.1,0c-1.62-.92-3-1.83-4.7-2.75a15.55,15.55,0,0,0-3.12-1.27c-.51-.14-1.21-.32-1.75-.48A12.82,12.82,0,0,0,1106.33,521Z"/>
                <path class="cls-64" d="M1114.57,530.46a2.86,2.86,0,0,0,.11-2,3.34,3.34,0,0,0-.81-1.33,6.13,6.13,0,0,1,.7,1.46.32.32,0,0,0,0,.14,7.69,7.69,0,0,1,0,1.59A.41.41,0,0,1,1114.57,530.46Z"/>
                <path class="cls-64" d="M1118.26,524.1c-.1.07-.16.1-.26.18a2.38,2.38,0,0,0-.33.31,2,2,0,0,0-.2.35,1.73,1.73,0,0,1-.58.65c-.25.16-.51.25-.76.39h0v0h0a2.06,2.06,0,0,0,.35,0h.07l.08,0,.17-.06.32-.09a4,4,0,0,1,1.08-1.38A.23.23,0,0,0,1118.26,524.1Z"/>
                <path class="cls-65" d="M1103,518.68a1.44,1.44,0,0,0-.4-.28,1.56,1.56,0,0,0-.77-.11.8.8,0,0,0-.67.37.28.28,0,0,0,0,.22c0,.06,0,.1,0,.13a1.1,1.1,0,0,0,.76.24,2.62,2.62,0,0,0,.92-.12.26.26,0,0,0,.18-.15A.28.28,0,0,0,1103,518.68Z"/>
              </g>
            </g>
            <g>
              <g>
                <path class="cls-66" d="M1149.62,528.4a.7.7,0,0,1-.9.34c-.67-.36-2.82.08-3.7.32s-3.12,2.48-5,4.6a39.77,39.77,0,0,1-11.08,9.39c-.73.39-1.49.75-2.29,1.09h0a27.53,27.53,0,0,1-3.06,1.08c-9,2.54-19.08,1.48-20.25.85a3.41,3.41,0,0,0-1.79-.3l-.5,0h0l-1.11.12-.37,0-1.31.11a16,16,0,0,1-4.08-.64h0c-.69-.25-1.38-.51-2.05-.79a17.48,17.48,0,0,0-2.87-.86h0c-.76-.31-1.49-.65-2.13-1a4.92,4.92,0,0,1-1.71-1.38c-1.28-1.71-.61-3.95,0-6.58.55-2.3,3-4.08,4.67-4.55s5,1.22,6.46,1.75,12.41,3.6,16,3.81a41.77,41.77,0,0,0,15.79-3c5.46-2.23,11.85-6.43,15-7s5.73.59,6.33,1.31A1,1,0,0,1,1149.62,528.4Z"/>
                <g class="cls-54">
                  <path class="cls-55" d="M1099.89,545.92c-.52.06-1.08.12-1.68.15a16,16,0,0,1-4.08-.64h0c-.69-.25-1.38-.51-2.05-.79a17.48,17.48,0,0,0-2.87-.86h0c-.76-.31-1.49-.65-2.13-1a4.92,4.92,0,0,1-1.71-1.38.59.59,0,0,1,.61-.06c2.12.86,4.37,1,6.48,1.89a59.61,59.61,0,0,0,7,2.29A.67.67,0,0,1,1099.89,545.92Z"/>
                  <path class="cls-55" d="M1126.61,544.14a27.53,27.53,0,0,1-3.06,1.08c-9,2.54-19.08,1.48-20.25.85a4.08,4.08,0,0,0-2.29-.27l0,0c1.88-1.21,4,.21,6-.34a22.55,22.55,0,0,1,6.47-1c2.4,0,4.77.55,7.17.54A33.27,33.27,0,0,0,1126.61,544.14Z"/>
                  <path class="cls-55" d="M1149.62,528.4a.7.7,0,0,1-.9.34c-.67-.36-2.82.08-3.7.32s-3.12,2.48-5,4.6a39.77,39.77,0,0,1-11.08,9.39.63.63,0,0,1,.36-.66,14.75,14.75,0,0,0,4.84-3.33c1.19-1.38,2.3-2.7,3.6-4,2.48-2.46,4.07-5.94,7.69-6.91a.63.63,0,0,1,.43,0,2.7,2.7,0,0,1,1-.1c.85,0,1.7.15,2.54.23A.66.66,0,0,1,1149.62,528.4Z"/>
                </g>
                <g class="cls-56">
                  <path class="cls-57" d="M1088.12,541.71a6.25,6.25,0,0,1-1.24-1.6,2.49,2.49,0,0,0-1.3-1.31.37.37,0,0,0-.45.25.38.38,0,0,0,0,.15.43.43,0,0,0,0,.35c.14.33.29.67.44,1a3.58,3.58,0,0,0,.5.87,3.4,3.4,0,0,0,1.69.9A.37.37,0,0,0,1088.12,541.71Z"/>
                  <path class="cls-57" d="M1105,544.94q-3.14-.65-6.21-1.53a24.27,24.27,0,0,0-3.31-1.11,22.23,22.23,0,0,0-6.45-.66.25.25,0,0,0-.18.4.24.24,0,0,0,.18.39,7.15,7.15,0,0,1,3,.59,20.16,20.16,0,0,0,2.52,1.12c.84.25,1.7.39,2.54.6a6.59,6.59,0,0,1,2.38,1.12l.14.1.37,0,1.11-.12h0l.5,0a.8.8,0,0,0,0-.34h3.33C1105.15,545.42,1105.23,545,1105,544.94Z"/>
                  <path class="cls-57" d="M1140,531.84,1139,533c-.06.07-.14.23-.25.25s-.18,0-.25,0a1.34,1.34,0,0,0-.53.24l-2.64,1.59a13.91,13.91,0,0,0-2.41,1.58,4.22,4.22,0,0,1-1.11.81l-1.36.72a24.36,24.36,0,0,1-5.22,2.33,4.82,4.82,0,0,0-1.31.38c-.39.22-.77.44-1.18.63a23.1,23.1,0,0,1-2.71,1,7.35,7.35,0,0,1-1.68.33,9.17,9.17,0,0,0-1.56.16,18.44,18.44,0,0,1-3,.8.25.25,0,0,0,0,.49l3.28.28a26.84,26.84,0,0,0,4.39.11,17.51,17.51,0,0,0,5.24-.84,20.37,20.37,0,0,0,8-5.39c1.41-1.48,2.56-3.18,4-4.6a.25.25,0,0,0,.07-.12.54.54,0,0,0,.37-.18c.4-.42.74-.93,1.1-1.39C1140.49,532,1140.15,531.6,1140,531.84Z"/>
                </g>
                <g class="cls-58">
                  <path class="cls-57" d="M1089,532.48a1.08,1.08,0,0,0-.8.33c-.1.11-.18.23-.29.33s-.28.19-.42.3a3.59,3.59,0,0,0-.91,1.51.19.19,0,0,0,0,.15,6.28,6.28,0,0,0-.59,2.11c0,.36-.06.94.24,1.2a.74.74,0,0,0,.91,0,1.58,1.58,0,0,0,.5-1,8.52,8.52,0,0,1,.43-1.47c.39-1,.78-2.06,1.16-3.08A.24.24,0,0,0,1089,532.48Z"/>
                  <path class="cls-57" d="M1089.54,535.8a.24.24,0,0,0-.28-.11c-.27,0-.37.32-.44.55l-.3.9-.57,1.69a.28.28,0,0,0,0,.13h0c-.1.3.37.43.47.13h0a1.19,1.19,0,0,0,.34-.62,3.09,3.09,0,0,1,.34-.84C1089.37,537.11,1089.9,536.42,1089.54,535.8Z"/>
                  <path class="cls-57" d="M1095.69,537c-.33.93-1,1.7-1.06,2.73a.11.11,0,0,0,0,.06l-.05.1c-.18.25.24.5.42.24a1.53,1.53,0,0,0,.22-.76,2.23,2.23,0,0,1,0-.36,1,1,0,0,1,.21-.34,2.86,2.86,0,0,0,.48-.71,2.46,2.46,0,0,0,.2-.9C1096.18,536.79,1095.78,536.76,1095.69,537Z"/>
                  <path class="cls-57" d="M1096.3,538.65a.25.25,0,0,0-.21-.17.24.24,0,0,0-.24.12,2.38,2.38,0,0,0-.28.63,1,1,0,0,0,0,.69.48.48,0,0,0,0,.12.24.24,0,0,0,.24.24.25.25,0,0,0,.25-.24.31.31,0,0,1,0-.1v0h0a1.42,1.42,0,0,1,0-.16l0-.09h0l0,0,.09-.19A1.08,1.08,0,0,0,1096.3,538.65Z"/>
                  <path class="cls-57" d="M1124.21,537.79a3,3,0,0,0-.68-1.25,1.79,1.79,0,0,0-1.42-.43c-.67.06-1.33.19-2,.27a40.51,40.51,0,0,1-4.12.27,34.47,34.47,0,0,1-9.21-1.11h-.11c-1.17-.37-2.35-.71-3.54-1s-2.48-.53-3.72-.81a14.74,14.74,0,0,1-1.68-.62,9.79,9.79,0,0,0-1.78-.33l-1.93-.29a10,10,0,0,0-1.81-.18,2.28,2.28,0,0,0-2.26,1.52.59.59,0,0,0-.14.41.67.67,0,0,0,.6.59,6.22,6.22,0,0,0,1.22,0l1.5,0a4.2,4.2,0,0,1,2.42.4c.61.37,1,1,1.61,1.38a2.17,2.17,0,0,0,.9.38c.2,0,.4,0,.59.05a7.27,7.27,0,0,1,.81.17,2.32,2.32,0,0,0,1.08,0,4,4,0,0,1,1.36-.32,4.2,4.2,0,0,1,1.29.4,3.49,3.49,0,0,1,1.07.59,2.62,2.62,0,0,1,.57,1.08,2,2,0,0,0,.56.73,4.51,4.51,0,0,0,2.16.77,3.39,3.39,0,0,1,2.25,1,.25.25,0,0,0,.34,0,4.68,4.68,0,0,0,.67-1.14c.34.12.59.56.91.71a3.77,3.77,0,0,0,1.74.09,6.59,6.59,0,0,0,3.15-.43,1.55,1.55,0,0,0,.43-.38,1,1,0,0,0,.15-.24,2.13,2.13,0,0,1,.14-.38c.17-.19.47.14.61.25a1.37,1.37,0,0,0,.63.3,2.41,2.41,0,0,0,1.33-.35,3.23,3.23,0,0,1,.68-.24,2.49,2.49,0,0,1,.9.09,1.3,1.3,0,0,0,1.31-.31.62.62,0,0,1,.59-.23,1.34,1.34,0,0,0,.63-.07C1124.52,538.78,1124.35,538.2,1124.21,537.79Z"/>
                  <path class="cls-57" d="M1128,536a4.52,4.52,0,0,0-.79-1c-.13-.14-.29-.34-.49-.36a1.68,1.68,0,0,0-.72.19c-.49.17-1,.37-1.44.58a.2.2,0,0,0-.12.21.25.25,0,0,0-.11.34,8.4,8.4,0,0,1,.52,1.23c.07.2.12.4.18.61a.75.75,0,0,0,.27.44c.4.25.7-.2.74-.54a1.94,1.94,0,0,0-.06-.59c0-.09,0-.18-.07-.27a5.9,5.9,0,0,1,1.24.44c.32.14.78.3,1-.09A1.28,1.28,0,0,0,1128,536Z"/>
                  <path class="cls-57" d="M1133.29,533.15c-.06-.19.1-.4,0-.61a.49.49,0,0,0-.5-.32,3.64,3.64,0,0,0-.86.23l-1,.32a10,10,0,0,0-3.33,1.43.2.2,0,0,0-.08.19.26.26,0,0,0,0,.3c.24.29.48.57.75.84a5.55,5.55,0,0,0,.75.7c.48.33,1.24-.3,1.57-.65s.33-.56.58-.73a3.66,3.66,0,0,1,.46-.18,1.53,1.53,0,0,0,.3-.19c.37-.31.61-.89,1.1-1a.31.31,0,0,0,.1-.05A.22.22,0,0,0,1133.29,533.15Z"/>
                  <path class="cls-57" d="M1146.4,526.49a6.75,6.75,0,0,0-5.09.54c-.87.4-1.7.89-2.53,1.35l-2.62,1.47c-.49.27-1,.54-1.46.82a1.46,1.46,0,0,0-.79.86.21.21,0,0,0,.06.22c.06.78,1,1,1.59.66a3.76,3.76,0,0,0,1-.83,6,6,0,0,1,1.11-.81l2.71-1.64c.85-.51,1.68-1,2.57-1.48a6,6,0,0,1,3.37-.69A.24.24,0,0,0,1146.4,526.49Z"/>
                </g>
                <g class="cls-59">
                  <path class="cls-60" d="M1123.64,536.33c-.26-.49-.84-.36-1.29-.27a33.92,33.92,0,0,1-8.35.63,45.34,45.34,0,0,1-7.85-1.24c-2.57-.6-5.11-1.32-7.67-1.94-1.3-.32-2.6-.61-3.92-.86a8,8,0,0,0-3.22-.22,2.13,2.13,0,0,0-1.06.58.6.6,0,0,0-.38.67c.09.42.56.48.91.42.57-.08,1.1-.27,1.68-.31a6.79,6.79,0,0,1,1.8.11,6.86,6.86,0,0,1,1.72.59,16.5,16.5,0,0,0,1.6.87,10.12,10.12,0,0,0,3.6.3,5.64,5.64,0,0,1,1.82.29,7.24,7.24,0,0,1,1.55.83,23.94,23.94,0,0,0,3.09,1.9c.6.27,1.2.5,1.81.73a4.7,4.7,0,0,0,.88.27,7.22,7.22,0,0,0,1,0c1.15,0,2.2.61,3.34.7a2.64,2.64,0,0,0,1.51-.33,8.15,8.15,0,0,0,1.25-1,3.09,3.09,0,0,1,1.4-.7,9.24,9.24,0,0,1,1.66-.09c.92,0,2.14,0,2.81-.76A1.08,1.08,0,0,0,1123.64,536.33Z"/>
                  <path class="cls-60" d="M1126.69,534.7c-.13-.13-.33-.06-.48,0l-.83.22-.43.13a2,2,0,0,0-.41.15.73.73,0,0,0-.29.33.24.24,0,0,0-.06.3,2,2,0,0,0,.1.32.46.46,0,0,0,.38.22.83.83,0,0,0,.35-.06c.14,0,.28-.09.41-.15a2.39,2.39,0,0,0,1.25-1C1126.76,535,1126.84,534.84,1126.69,534.7Z"/>
                  <path class="cls-60" d="M1133.08,532.21a10.62,10.62,0,0,0-3,1,14.74,14.74,0,0,1-1.42.47,2.26,2.26,0,0,0-1.12.62.2.2,0,0,0-.13.21.61.61,0,0,0,.44.56,1.42,1.42,0,0,0,.88-.17c.58-.22,1.18-.39,1.77-.57a10,10,0,0,0,1.69-.68c.44-.25,1.1-.61,1.14-1.18A.24.24,0,0,0,1133.08,532.21Z"/>
                  <path class="cls-60" d="M1146.42,526.45c-.24-.32-.69-.25-1-.24a14.45,14.45,0,0,0-1.47.06,9,9,0,0,0-2.73.77c-.41.18-.82.39-1.22.6a2.72,2.72,0,0,0-1,.64.35.35,0,0,0,.29.56.18.18,0,0,0,.22,0l.19-.09a3.48,3.48,0,0,0,.67-.33c.84-.41,1.68-.83,2.55-1.16a5.9,5.9,0,0,1,1.81-.42c.53,0,1.14.21,1.63,0A.25.25,0,0,0,1146.42,526.45Z"/>
                </g>
              </g>
              <g>
                <path class="cls-67" d="M1087.09,533.35a4.21,4.21,0,0,1,1.26-2,.25.25,0,0,0-.19-.45,6.15,6.15,0,0,0-2.26,1.41,2.63,2.63,0,0,1-1.36.55,6,6,0,0,1-1.79-.25.24.24,0,0,0-.15,0,23.88,23.88,0,0,1-6-2.46c-1-.56-2-1.18-2.91-1.82-.77-.53-1.75-1.2-1.8-2.23a.18.18,0,0,0-.07-.15c0-.11.05-.21.07-.32a.33.33,0,0,0-.25-.4.54.54,0,0,0-.22,0h-.3l-.07,0-.15,0h0l-.07,0-.12-.08s-.08-.06,0,0l-.05,0-.11-.11,0,0,0,0-.08-.14v0l0-.07a.26.26,0,0,0-.14-.15.26.26,0,0,0-.43.09,4.16,4.16,0,0,0,.93,3.83,16.7,16.7,0,0,0,2.9,2.86,18.87,18.87,0,0,0,3.33,2.1c1.27.62,2.62,1,3.94,1.52a5.71,5.71,0,0,1,3.21,2.46.21.21,0,0,0,0,.16,6.42,6.42,0,0,1,.33,1.84,1.71,1.71,0,0,0,.5,1.37.63.63,0,0,0,1-.1c.21-.41,0-1-.13-1.46a5.73,5.73,0,0,1-.12-1.89,3.42,3.42,0,0,1,.72-1.54,3.3,3.3,0,0,1,1.2-1.23c.28-.13,1.11-.24.88-.74S1087.48,533.32,1087.09,533.35Z"/>
                <g class="cls-62">
                  <path class="cls-63" d="M1088.39,533.7c-.16-.34-.81-.37-1.21-.35a3.14,3.14,0,0,1-.31.18l-.27.11-.07,0h0l0,0-.18.1,0,0h0l-.07.07h.14l.24,0c.21-.06.42-.15.63-.2a2,2,0,0,1,.77,0,1.36,1.36,0,0,0,.27,0h.13Z"/>
                  <path class="cls-63" d="M1087,531.89a1.85,1.85,0,0,1,.4-.34,4,4,0,0,1,.46-.23l.08-.05h0l0,0,0,0h0a.11.11,0,0,1,0,0,.19.19,0,0,0,0-.08v0h0v0a4.12,4.12,0,0,0-1.54.89.37.37,0,0,1,0,.14h0l.08,0s0,0,0,0h.11l.06,0,.07-.06Z"/>
                  <path class="cls-63" d="M1084.39,539.43a1.59,1.59,0,0,0,.49,1.23l.16.09,0,0h0l0-.06h0a0,0,0,0,1,0,0s0-.06,0-.06v-.08a.87.87,0,0,0-.07-.17c0-.09-.08-.18-.11-.27l-.09-.24s0-.09,0,0,0,0,0,0,0-.08-.07-.13l-.07-.12,0,0h0s0,0,0,0l-.05,0h0l0,0h0l0,0Z"/>
                  <path class="cls-63" d="M1077.4,532.17a5.79,5.79,0,0,1-1.32-.53c-.38-.23-.71-.53-1.09-.77a2.21,2.21,0,0,0-.83-.34,2.35,2.35,0,0,0,.49.6,3.66,3.66,0,0,0,.8.49c.36.17.7.36,1,.55a2.19,2.19,0,0,0,1,.38.35.35,0,0,1,.18.06c.09,0,.18-.09.16-.17S1077.53,532.21,1077.4,532.17Z"/>
                  <path class="cls-63" d="M1070.34,527.14a5.63,5.63,0,0,1-.6-2.59,4.19,4.19,0,0,0,.94,3.8c.15.2.31.39.48.59A8.59,8.59,0,0,0,1070.34,527.14Z"/>
                </g>
                <path class="cls-64" d="M1073.62,529.05a17.09,17.09,0,0,0,3.7,2,21.59,21.59,0,0,0,2,1c.72.27,1.47.45,2.2.68.57.19,1.11.42,1.68.57a2.68,2.68,0,0,0,1.63.07,1.19,1.19,0,0,0,.58-.74,2.39,2.39,0,0,1-.85.24,6,6,0,0,1-1.79-.25.24.24,0,0,0-.15,0,23.88,23.88,0,0,1-6-2.46c-1-.56-2-1.18-2.91-1.82a6.43,6.43,0,0,1-1.34-1.12A4.44,4.44,0,0,0,1073.62,529.05Z"/>
                <path class="cls-64" d="M1084.39,539.42a2.69,2.69,0,0,0-.21-2.36,2.84,2.84,0,0,0-1.37-1.2,4.09,4.09,0,0,1,1.25,1.43.21.21,0,0,0,0,.16,6.42,6.42,0,0,1,.33,1.84S1084.39,539.38,1084.39,539.42Z"/>
                <path class="cls-64" d="M1088.39,531l-.31.25a3.31,3.31,0,0,0-.39.45,2,2,0,0,0-.23.47,2.14,2.14,0,0,1-.69,1c-.32.25-.67.44-1,.68h0v0h0l.48-.12.09,0,.1,0,.23-.12.44-.21a4.1,4.1,0,0,1,1.24-1.91A.25.25,0,0,0,1088.39,531Z"/>
                <path class="cls-65" d="M1072,525.3a1.28,1.28,0,0,0-.2-.5,1.43,1.43,0,0,0-.78-.53c-.32-.11-.77-.26-1.08,0a.24.24,0,0,0-.11.24.2.2,0,0,0,0,.15c.12.33.47.51.76.68a2.88,2.88,0,0,0,1,.38.45.45,0,0,0,.28,0A.32.32,0,0,0,1072,525.3Z"/>
              </g>
            </g>
          </g>
          <ellipse class="cls-51" cx="1180.13" cy="599.2" rx="19.94" ry="5.91"/>
          <g>
            <g>
              <g>
                <path class="cls-68" d="M1176.33,563.16a282.5,282.5,0,0,0,4.51-47.69,148,148,0,0,1,2.32,19.88c.29,9.92-1.41,19.77-3.1,29.54a2.87,2.87,0,0,1-1.1,2.17,2,2,0,0,1-2.49-1A4.55,4.55,0,0,1,1176.33,563.16Z"/>
                <path class="cls-69" d="M1183.16,535.35a148,148,0,0,0-2.32-19.88c0,.11,0,.22,0,.32A126.88,126.88,0,0,1,1179,560a5.4,5.4,0,0,1-.78,2.08,2,2,0,0,1-1.83.86,1.55,1.55,0,0,1,0,.21,4.55,4.55,0,0,0,.14,2.9,2,2,0,0,0,2.49,1,2.87,2.87,0,0,0,1.1-2.17C1181.75,555.12,1183.45,545.27,1183.16,535.35Z"/>
                <path class="cls-70" d="M1181.14,525c0,2.3.27,4.64.28,6.95s-.05,4.74-.19,7.11A103.88,103.88,0,0,1,1179.4,553c-.26,1.28-.54,2.55-.85,3.82a17.65,17.65,0,0,1-1,3.71c-.45-.55.22-2.27.35-2.94.22-1.17.42-2.35.62-3.53.38-2.3.73-4.61,1-6.92.61-4.68,1-9.39,1.31-14.1Q1181.09,529,1181.14,525Z"/>
              </g>
              <g>
                <path class="cls-71" d="M1173.91,560.22c1.89-3.94,2.34-8.4,2.6-12.76a162.67,162.67,0,0,0-.48-25.36c3.26,8,3.75,16.49,3.65,25.16a49.68,49.68,0,0,1-1.89,13.4,4.86,4.86,0,0,1-1,2,1.92,1.92,0,0,1-2,.56,1.86,1.86,0,0,1-1-1.38A2.51,2.51,0,0,1,1173.91,560.22Z"/>
                <path class="cls-72" d="M1179.68,547.26c.1-8.36-.37-16.51-3.32-24.29,2,11.39,2.82,23.09.34,34.35-.2.92-.57,2-1.48,2.23a1.41,1.41,0,0,1-1-.1c-.11.25-.21.52-.34.77a2.51,2.51,0,0,0-.18,1.62,1.86,1.86,0,0,0,1,1.38,1.92,1.92,0,0,0,2-.56,4.86,4.86,0,0,0,1-2A49.68,49.68,0,0,0,1179.68,547.26Z"/>
                <path class="cls-73" d="M1175.71,558c.2-1.75.74-3.51,1-5.25s.5-3.57.65-5.37a76.9,76.9,0,0,0,.17-10.84c0-1-.13-2-.22-3.06a9.88,9.88,0,0,0-.35-2.67c0,1.72.21,3.45.23,5.18s0,3.56-.06,5.34c-.14,3.56-.43,7.1-.79,10.64Q1176.06,555,1175.71,558Z"/>
              </g>
              <g>
                <path class="cls-74" d="M1178.69,568.93c1-9.37,2.13-18.76,4.26-27.93s5.35-18.19,10.39-26.15a148.86,148.86,0,0,0-8.56,50.47,5,5,0,0,1-.66,3.16,3.33,3.33,0,0,1-2.53,1.16A10.7,10.7,0,0,1,1178.69,568.93Z"/>
                <path class="cls-75" d="M1184.78,565.32a148.82,148.82,0,0,1,8.22-49.47,9.2,9.2,0,0,0-1.32,2.37c-5.45,13.65-7.9,28.34-8.94,43a8.3,8.3,0,0,1-.64,3.13,2.58,2.58,0,0,1-3.06,1.46c-.11,1-.23,2.08-.35,3.12a10.7,10.7,0,0,0,2.9.71,3.33,3.33,0,0,0,2.53-1.16A5,5,0,0,0,1184.78,565.32Z"/>
                <path class="cls-76" d="M1189,523.41c-3.11,11.24-6.24,22.54-7.46,34.14-.22,2-.2,4.74-1.26,6.56-.51-.3.09-3.1.15-3.72.14-1.36.3-2.72.48-4.07.36-2.74.8-5.46,1.3-8.17a155.49,155.49,0,0,1,3.87-15.94C1186.93,529.25,1187.91,526.31,1189,523.41Z"/>
              </g>
              <g>
                <path class="cls-74" d="M1183.21,564.81a65.44,65.44,0,0,1,8.44-33,127.09,127.09,0,0,0-3.56,14.9,47.62,47.62,0,0,0-.31,15.3,8,8,0,0,1,.16,2.24,2.05,2.05,0,0,1-3.06,1.77A8.12,8.12,0,0,1,1183.21,564.81Z"/>
                <path class="cls-75" d="M1191.55,532.13a67.24,67.24,0,0,0-5.88,28c0,.88-.17,2-1,2.2-.63.12-1-.44-1.37-.94,0,1.14-.07,2.29,0,3.44a8.12,8.12,0,0,0,1.67,1.2,2.05,2.05,0,0,0,3.06-1.77,8,8,0,0,0-.16-2.24,47.62,47.62,0,0,1,.31-15.3A125.4,125.4,0,0,1,1191.55,532.13Z"/>
                <path class="cls-76" d="M1188.37,540.13a61.39,61.39,0,0,0-3.62,16.45,21.9,21.9,0,0,1-.26,2.41c0,.22-.1,1-.29,1.12-.34.19-.23-.43-.24-.63a44,44,0,0,1,.24-4.87,43.43,43.43,0,0,1,4.17-14.48Z"/>
              </g>
              <path class="cls-77" d="M1187.78,562a39.59,39.59,0,0,1-.48-6.52l-.09.31c-.24.92-.49,1.84-.73,2.76-.1.38-.29.84-.68.87a.66.66,0,0,1-.58-.35,2.59,2.59,0,0,1-.26-.67,4.1,4.1,0,0,0-2.14-2.39,8.51,8.51,0,0,1-2.27,6.25,3.16,3.16,0,0,1-.73-1.74c-.09-.63-.09-1.27-.18-1.9a6.61,6.61,0,0,0-.92-2.58c-.14-.23-.38-.48-.63-.39s-.28.33-.33.55a5.64,5.64,0,0,1-1.44,2.63,8.47,8.47,0,0,0-.84-3.16,22.27,22.27,0,0,1-1.57,4.55,2.51,2.51,0,0,0-.18,1.62,1.86,1.86,0,0,0,1,1.38,1.78,1.78,0,0,0,1.62-.22l0,.16a4.55,4.55,0,0,0,.14,2.9,2,2,0,0,0,2.43,1c0,.28-.06.56-.1.84a10.72,10.72,0,0,0,4.86,1,2.23,2.23,0,0,0,.46-.46,4.15,4.15,0,0,0,.66-2.53l.1.06a2.05,2.05,0,0,0,3.06-1.77A8,8,0,0,0,1187.78,562Z"/>
            </g>
            <g>
              <path class="cls-78" d="M1175.85,570.64a30.35,30.35,0,0,0-2.5,23.32,14.41,14.41,0,0,0,4.27,7.15c2.19,1.79,5.44,2.46,7.88,1a9.71,9.71,0,0,0,3.46-4.27,33.61,33.61,0,0,0,3-20.22,33,33,0,0,0-3.38-10.39,75.44,75.44,0,0,1-4.71-10.41c-.11-.29-.37-.65-.63-.29,0,0,.09.71.09.8a7.94,7.94,0,0,1-.74,2.46,25.54,25.54,0,0,1-2.47,4.23C1178.69,566.25,1177.13,568.35,1175.85,570.64Z"/>
              <path class="cls-79" d="M1185.5,602.16a9.71,9.71,0,0,0,3.46-4.27,33.61,33.61,0,0,0,3-20.22,33,33,0,0,0-3.38-10.39,75.44,75.44,0,0,1-4.71-10.41c-.11-.29-.37-.65-.63-.29,0,0,.09.71.09.8a6.61,6.61,0,0,1-.56,2l.27.63a53.41,53.41,0,0,1,4,28.24c-.38,2.92-1.13,6-3.33,8a7.15,7.15,0,0,1-7.56,1.09,6.89,6.89,0,0,1-2.36-1.86,13.07,13.07,0,0,0,3.75,5.62C1179.81,602.9,1183.06,603.57,1185.5,602.16Z"/>
              <path class="cls-80" d="M1174.54,579.3a39.39,39.39,0,0,1,3-7.86c.62-1.27,1.29-2.51,2-3.72.54-.93.87-2.25,1.72-3,.57-.48.88-.3.86.41a8.64,8.64,0,0,1-.88,3,65,65,0,0,0-4.33,12.53,26.76,26.76,0,0,0,.25,13.13,2.78,2.78,0,0,1,.17,1.65,1,1,0,0,1-1.09.65c-.49-.13-.62-.7-.8-1.13a20.29,20.29,0,0,1-1.18-3.66,24.56,24.56,0,0,1-.43-7.65A29.34,29.34,0,0,1,1174.54,579.3Z"/>
            </g>
            <g>
              <path class="cls-78" d="M1177.62,601.11a14.41,14.41,0,0,1-4.27-7.15,30.35,30.35,0,0,1,2.5-23.32c1.07-1.91,2.33-3.69,3.56-5.48-.08-1.42-.16-2.83-.27-4.25a27.47,27.47,0,0,0-.48-4.72.32.32,0,0,0-.16-.26.25.25,0,0,0-.29.11.74.74,0,0,0-.09.33,8.72,8.72,0,0,1-.24,1c-.84,2.54-3.37,4.22-5.46,5.7a39.59,39.59,0,0,0-6.54,5.14c-3.51,3.8-4.92,9.15-5,14.33a23.17,23.17,0,0,0,2.39,11,15,15,0,0,0,8.26,7.38,11.84,11.84,0,0,0,6.19.33Z"/>
              <path class="cls-79" d="M1177.62,601.11a14.41,14.41,0,0,1-4.27-7.15,30.35,30.35,0,0,1,2.5-23.32c1.07-1.91,2.33-3.69,3.56-5.48-.08-1.42-.16-2.83-.27-4.25a27.47,27.47,0,0,0-.48-4.72.32.32,0,0,0-.16-.26.25.25,0,0,0-.29.11.74.74,0,0,0-.09.33,8.72,8.72,0,0,1-.24,1,7.22,7.22,0,0,1-1.47,2.45,12.66,12.66,0,0,1,.63,1.92,8.72,8.72,0,0,1-1.06,5.67c-.89,1.75-2.09,3.32-3,5-3.32,5.92-3.58,13.11-2.56,19.82a8,8,0,0,1,.09,3,2.49,2.49,0,0,1-2,2,3.38,3.38,0,0,1-2.43-1.23,20.64,20.64,0,0,1-2.51-2.94,20,20,0,0,1-1.29-2.12,17.7,17.7,0,0,0,1.09,2.53,15,15,0,0,0,8.26,7.38,11.84,11.84,0,0,0,6.19.33Z"/>
              <path class="cls-80" d="M1161.83,585.76c-.64-5.92.93-12.2,4.94-16.59a35.35,35.35,0,0,1,4.92-4.22l3-2.25c.14,1.11-.71,2.08-1.51,2.86a55.74,55.74,0,0,0-6.45,6.59,19.11,19.11,0,0,0-.82,21.61,1.73,1.73,0,0,1,.34.79c.12,1.43-1.31-.37-1.54-.7a13.51,13.51,0,0,1-1.44-2.5A18.7,18.7,0,0,1,1161.83,585.76Z"/>
              <path class="cls-81" d="M1176.52,568.61a53.85,53.85,0,0,0-3,5.55,28.12,28.12,0,0,0,1.38,25.09,4.14,4.14,0,0,1,.73,2.23,11.48,11.48,0,0,0,2.12-.25l-.15-.12a14.41,14.41,0,0,1-4.27-7.15,30.35,30.35,0,0,1,2.5-23.32c1.07-1.91,2.33-3.69,3.56-5.48l-.09-1.59C1178.48,565.31,1177.5,567,1176.52,568.61Z"/>
            </g>
            <g>
              <path class="cls-82" d="M1163.32,593.52a23.17,23.17,0,0,1-2.39-11c0-5.18,1.44-10.53,5-14.33a39.59,39.59,0,0,1,6.54-5.14c.76-.53,1.57-1.09,2.34-1.71a8.71,8.71,0,0,0,.69-4.88v-.08c0-.11-.06-.24-.17-.26s-.22.11-.27.22a6.67,6.67,0,0,1-2,2.68,25.17,25.17,0,0,1-2.74,2c-1.86,1.17-3.8,2.2-5.59,3.48a21.3,21.3,0,0,0-9,16.08c-.25,6.36,3.14,12.88,8.78,15.83a3.9,3.9,0,0,0,1.1.39A16.5,16.5,0,0,1,1163.32,593.52Z"/>
              <path class="cls-83" d="M1174.76,561.37a8.71,8.71,0,0,0,.69-4.88v-.08c0-.11-.06-.24-.17-.26s-.22.11-.27.22a9.31,9.31,0,0,1-.62,1.19,7,7,0,0,1-2.9,4.55c-1.63,1.26-3.56,2.1-5.25,3.3a17.2,17.2,0,0,0-6.48,9.86,25.21,25.21,0,0,0,.15,11.93,4.73,4.73,0,0,1,.21,2,1.47,1.47,0,0,1-1.39,1.25,1.22,1.22,0,0,1-.59-.22,16.06,16.06,0,0,0,6.32,6.16,3.9,3.9,0,0,0,1.1.39,16.5,16.5,0,0,1-2.23-3.26,23.17,23.17,0,0,1-2.39-11c0-5.18,1.44-10.53,5-14.33a39.59,39.59,0,0,1,6.54-5.14C1173.18,562.55,1174,562,1174.76,561.37Z"/>
              <path class="cls-84" d="M1156.43,579.6a23.71,23.71,0,0,1,2.94-8.68,11.19,11.19,0,0,1,2.6-3.64.77.77,0,0,1,.5-.23c.74,0-.2,1.23-.35,1.44-3.33,4.59-6.08,10.55-4.52,16.31a11.63,11.63,0,0,0,.75,2,2.29,2.29,0,0,1,.37,1.12c0,.28-.26.74-.59.64s-.49-.86-.58-1.07a12.94,12.94,0,0,1-.86-2.57A16.06,16.06,0,0,1,1156.43,579.6Z"/>
              <path class="cls-85" d="M1172.42,563.08c.76-.53,1.57-1.09,2.34-1.71a8.51,8.51,0,0,0,.6-1.85,24.62,24.62,0,0,1-4.32,4c-2.43,1.83-5,3.52-7,5.83a18.21,18.21,0,0,0-4.12,10.63,26.08,26.08,0,0,0,2,11.32,14.39,14.39,0,0,1,1.32,4.34,13.39,13.39,0,0,0,1.21.73,3.9,3.9,0,0,0,1.1.39,16.5,16.5,0,0,1-2.23-3.26,23.17,23.17,0,0,1-2.39-11c0-5.18,1.44-10.53,5-14.33A39.59,39.59,0,0,1,1172.42,563.08Z"/>
            </g>
            <g>
              <path class="cls-82" d="M1201.64,574.28c-1.74-3.5-4.8-6.12-7.6-8.84a29.76,29.76,0,0,1-4-4.51,18.37,18.37,0,0,1-1.62-2.59c-.25-.49-.32-3.19-1.11-2.41a4.93,4.93,0,0,0-.36,1.32,24.63,24.63,0,0,0-.43,2.84,20.12,20.12,0,0,0-.11,2.91c.68,1.44,1.39,2.87,2.16,4.28a33,33,0,0,1,3.38,10.39,33.61,33.61,0,0,1-3,20.22,12,12,0,0,1-2.32,3.4,14.21,14.21,0,0,0,11-4.14,20.52,20.52,0,0,0,5.58-13A18.91,18.91,0,0,0,1201.64,574.28Z"/>
              <path class="cls-83" d="M1203.26,584.14a18.91,18.91,0,0,0-1.62-9.86c-1.74-3.5-4.8-6.12-7.6-8.84a29.76,29.76,0,0,1-4-4.51,19.28,19.28,0,0,1-1.53-2.41,8.07,8.07,0,0,0,1.09,3.27c1.3,2.17,3.32,3.79,5,5.69a21.89,21.89,0,0,1,4.48,20.39,7.42,7.42,0,0,1-1.94,3.52,3.29,3.29,0,0,1-3.75.59,3.9,3.9,0,0,1-1.58-2.71,33.51,33.51,0,0,1-2.88,8.62,12,12,0,0,1-2.32,3.4,14.21,14.21,0,0,0,11-4.14A20.52,20.52,0,0,0,1203.26,584.14Z"/>
              <path class="cls-84" d="M1195.16,571.3a31.64,31.64,0,0,1,2.76,16.88c-.09.66-.81,3.07-1.79,1.66-.47-.68,0-1.81,0-2.55.12-1,.21-1.93.25-2.9a29.8,29.8,0,0,0-3.42-15,24.2,24.2,0,0,0-1.34-2.16c-.16-.25-.62-.72-.67-1-.17-.87.64-.37,1-.07a10.4,10.4,0,0,1,1.29,1.66A21.38,21.38,0,0,1,1195.16,571.3Z"/>
              <path class="cls-85" d="M1189.59,599.48a9.18,9.18,0,0,1,1-2.76,31.32,31.32,0,0,0,1.66-21.19,52.29,52.29,0,0,0-2.1-5.81,82,82,0,0,1-3.58-9.31,20.32,20.32,0,0,0-.09,2.59c.68,1.44,1.39,2.87,2.16,4.28a33,33,0,0,1,3.38,10.39,33.61,33.61,0,0,1-3,20.22,12,12,0,0,1-2.32,3.4,12.43,12.43,0,0,0,3.22-.13A3,3,0,0,1,1189.59,599.48Z"/>
            </g>
          </g>
          <path class="cls-86" d="M1141.41,596.52a1.2,1.2,0,0,0-.13-.31.21.21,0,0,0,0-.06h0l-.06-.09-.14-.18h0a3,3,0,0,0-.25-.25l-.18-.15h0a3.9,3.9,0,0,0-.36-.25l-.06,0-.35-.18-.23-.09-.08,0-.16-.06-.1,0-.15,0-.11,0-.14,0h-.35l-.13,0-.1,0-.13,0-.07,0h0l-.18.15c-.21.25-.44.49-.67.73h0a15.93,15.93,0,0,1-6.23,3.93c-2,.68-4.12,1-6.15,1.56a9.42,9.42,0,0,0-5.26,3.33,14.27,14.27,0,0,0-1.5,3.38,1.18,1.18,0,0,0-.07.2,2.49,2.49,0,0,0-.11.29l-.17.44-.07.16-.13.31-.09.17c0,.1-.09.19-.13.28l-.1.18c0,.09-.1.18-.16.27l-.1.17-.19.27-.1.14a3.9,3.9,0,0,1-.33.38,4.09,4.09,0,0,0,.78,1.23h0l0,0c.1.1.21.21.32.3h0l.35.29,0,0a2.62,2.62,0,0,0,.34.24l.06,0a4.49,4.49,0,0,0,.42.24,16.71,16.71,0,0,0,7.54,2h.06c.37,0,.75,0,1.13,0a16.67,16.67,0,0,0,2.53-.32,15.89,15.89,0,0,0,1.64-.44,15.13,15.13,0,0,0,2.35-1,15,15,0,0,0,2.14-1.37,15.22,15.22,0,0,0,2.71-2.67,15,15,0,0,0,1.39-2.13c.2-.37.39-.75.56-1.14A15.06,15.06,0,0,0,1141.41,596.52Z"/>
          <path class="cls-87" d="M1119.72,542.1l.09-.21h0l.09-.18a.22.22,0,0,0,0-.08h0a1.88,1.88,0,0,1,.18-.24h0l0-.06h0l.15-.14h0a1.24,1.24,0,0,1,.18-.14l0,0h0a1.28,1.28,0,0,1,.25-.15h0l.27-.12h0l.29-.1h0l.29-.08h0l.29-.06h0l.28,0h.06l.28,0h1.21l.14,0,.32,0a2.49,2.49,0,0,1,1,.39,4.61,4.61,0,0,1,1.31,1.33c.13.19.24.39.36.58l.26.47h0a17,17,0,0,0,.91,1.55,10.42,10.42,0,0,0,4.79,3.44c1.83.73,3.77,1.2,5.59,2a19,19,0,0,1,7.95,6.39,8.1,8.1,0,0,0,1.25,1.54l.06,0a2.94,2.94,0,0,0,.39.26h0a3.79,3.79,0,0,0,.42.18h0a1.31,1.31,0,0,0,.43.08h0a1.38,1.38,0,0,0,.45,0,1.69,1.69,0,0,0,.59-.28,3.51,3.51,0,0,0,.5-.45l.45-.53a6,6,0,0,1,.46-.53,3.72,3.72,0,0,1,2.48-1c-.39.3-.76.61-1.13.94-1.47,1.31-2.76,2.85-4.11,4.31-.14.16-.29.32-.44.47l-.07.08-.49.51c-.2.2-.4.4-.61.59l-.43.42c-.36.32-.73.64-1.11.93a14.18,14.18,0,0,1-1.86,1.22,15.92,15.92,0,0,1-5,1.8h0l-.9.14h-.07c-.28,0-.57.07-.86.09h-.12c-.27,0-.53,0-.8,0h-.93l-.26,0-.65,0h0l-.37-.05-.55-.07-.49-.1-.42-.08c-.31-.07-.61-.14-.9-.23a17.46,17.46,0,0,1-8.44-5.59l0,0-.59-.75a18.63,18.63,0,0,1-2-3.27,19.83,19.83,0,0,1-1.8-7.44A21.23,21.23,0,0,1,1119.72,542.1Z"/>
          <g>
            <path class="cls-88" d="M1141.05,594.79a15,15,0,0,1-7.48,17.26,16,16,0,0,1-6.52,1.75,16.78,16.78,0,0,1-8.73-2,4.81,4.81,0,0,1-2.33-2.4c1.71-1.8,1.84-4.61,3.25-6.65a9.53,9.53,0,0,1,5.26-3.33c2-.6,4.14-.87,6.15-1.56a15.92,15.92,0,0,0,6.9-4.65c.44-.51,1.3-.2,1.92,0A2.75,2.75,0,0,1,1141.05,594.79Z"/>
            <path class="cls-89" d="M1139.47,593.29c-.62-.25-1.48-.56-1.92,0-.21.25-.44.49-.67.72a1.85,1.85,0,0,1,1.52,3.2,5,5,0,0,1-2,1.3,65.44,65.44,0,0,1-8,2.37,18.57,18.57,0,0,0-7.44,3.57,7.49,7.49,0,0,1-1.41,1.11,1.78,1.78,0,0,1-1.63.07,10.39,10.39,0,0,1-2,3.85,4.81,4.81,0,0,0,2.33,2.4,16.78,16.78,0,0,0,8.73,2,16,16,0,0,0,6.52-1.75,15,15,0,0,0,7.48-17.26A2.75,2.75,0,0,0,1139.47,593.29Z"/>
            <path class="cls-90" d="M1141.05,594.79a1.75,1.75,0,0,0-.37-.64c-.33.69-.51,1.52-.8,2.24a7.72,7.72,0,0,1-5,4.06c-2.1.68-4.33.85-6.48,1.37a21,21,0,0,0-9.61,5.25,7.49,7.49,0,0,0-1.72,2.2,3.19,3.19,0,0,0-.33,1.39,5.86,5.86,0,0,0,1.55,1.17,16.78,16.78,0,0,0,8.73,2,16,16,0,0,0,6.52-1.75,15,15,0,0,0,7.48-17.26Z"/>
            <path class="cls-91" d="M1141.05,594.79a1.75,1.75,0,0,0-.37-.64c-.33.69-.51,1.52-.8,2.24a6.7,6.7,0,0,1-3.09,3.24,1,1,0,0,1,.18.17,3.84,3.84,0,0,1,.73,3.29c-.53,3-3.11,5.33-5.86,6.73a20.31,20.31,0,0,1-4.83,1.72,20.78,20.78,0,0,1-9.15-.06l-.18,0c.21.14.42.27.64.39a16.78,16.78,0,0,0,8.73,2,16,16,0,0,0,6.52-1.75,15,15,0,0,0,7.48-17.26Z"/>
            <path class="cls-92" d="M1123.58,600.16a63.85,63.85,0,0,1,7-1.92,16.54,16.54,0,0,0,3.37-1.27,10.29,10.29,0,0,0,1.54-1,7.44,7.44,0,0,0,.68-.58c.16-.15.39-.51.65-.48s.24.46.16.67a2,2,0,0,1-.61.72,18.68,18.68,0,0,1-8,3.42,32.71,32.71,0,0,0-4.91,1.25,7.31,7.31,0,0,0-3.87,3.12c-.11.21-.78,1.4-1.08.88-.19-.33.47-1.22.63-1.47a8.66,8.66,0,0,1,2.63-2.45A12.42,12.42,0,0,1,1123.58,600.16Z"/>
            <path class="cls-93" d="M1140.88,594.42a3.1,3.1,0,0,0-1.41-1.13c-.54-.22-1.27-.49-1.74-.2a.69.69,0,0,0,.32.61,2.07,2.07,0,0,0,.63.27l1,.33a2.79,2.79,0,0,0,.8.17A1.49,1.49,0,0,0,1140.88,594.42Z"/>
            <path class="cls-86" d="M1139.7,593.4a.6.6,0,0,1-.35.35,1.31,1.31,0,0,1-1-.07,4.34,4.34,0,0,1-.46-.28l-.18-.17a.71.71,0,0,0,.31.47,2.07,2.07,0,0,0,.63.27l1,.33a2.79,2.79,0,0,0,.8.17,1.49,1.49,0,0,0,.36-.05A3.14,3.14,0,0,0,1139.7,593.4Z"/>
          </g>
          <g>
            <path class="cls-88" d="M1126.41,540.87c4.73,1.58,8.48,5.17,11.84,8.85,1.72,1.88,3.49,3.88,5.87,4.78s5.21.53,7.75-.13a5.8,5.8,0,0,1,1.88-.28,1.84,1.84,0,0,1,1.6.92,3.17,3.17,0,0,0-1.91.77,9,9,0,0,0-1.42,1.54,17.66,17.66,0,0,1-3,3.52,23.36,23.36,0,0,1-3.68,2.22,19.14,19.14,0,0,1-8.28,1.88,16.94,16.94,0,0,1-13.65-7,18.28,18.28,0,0,1-2.05-15.46,1.88,1.88,0,0,1,1-1.16,4.42,4.42,0,0,1,1.52-.43A6.23,6.23,0,0,1,1126.41,540.87Z"/>
            <path class="cls-89" d="M1153.75,554.09a5.8,5.8,0,0,0-1.88.28c-2.54.66-5.29,1-7.75.13a9.15,9.15,0,0,1-1.59-.81,1.53,1.53,0,0,1-1,.89,3.25,3.25,0,0,1-1.61,0c-3.31-.74-5.78-3.4-8-5.93a23.93,23.93,0,0,0-5.06-4.63,9.63,9.63,0,0,0-2.82-1.3c-1-.2-1.75.87-2.06,1.68a6.42,6.42,0,0,0-.2,3,20,20,0,0,0,10.86,15.13,21.86,21.86,0,0,0,7.59,2.18,19.28,19.28,0,0,0,5.13-1.62,23.36,23.36,0,0,0,3.68-2.22,17.66,17.66,0,0,0,3-3.52,9,9,0,0,1,1.42-1.54,3.17,3.17,0,0,1,1.91-.77A1.84,1.84,0,0,0,1153.75,554.09Z"/>
            <path class="cls-90" d="M1153.44,555.78a3.2,3.2,0,0,1,1.76-.75,5.6,5.6,0,0,0-2.71.77,17.17,17.17,0,0,1-19.84-3.92c-1.93-2.08-3.32-4.61-5.28-6.64a9.72,9.72,0,0,0-5.15-3c-.28,0-.53-.07-.76-.09a2.49,2.49,0,0,0-.11.29,18.28,18.28,0,0,0,2.05,15.46,16.94,16.94,0,0,0,13.65,7,19.14,19.14,0,0,0,8.28-1.88,23.36,23.36,0,0,0,3.68-2.22,17.66,17.66,0,0,0,3-3.52A9,9,0,0,1,1153.44,555.78Z"/>
            <path class="cls-93" d="M1125.71,542.7a1.41,1.41,0,0,0,.7-1.1,1.22,1.22,0,0,0-.33-.81,8.06,8.06,0,0,0-2.25.08,4.42,4.42,0,0,0-1.52.43,1.89,1.89,0,0,0-.9,1,2.21,2.21,0,0,0,1.53.73A4.22,4.22,0,0,0,1125.71,542.7Z"/>
            <path class="cls-91" d="M1152.49,555.8a17.26,17.26,0,0,1-10.07,1.34,2,2,0,0,1-.39,2.15,4.63,4.63,0,0,1-2.06,1.21,15.4,15.4,0,0,1-13.74-2.19,16.39,16.39,0,0,1-3.19-3.09,17.52,17.52,0,0,1-2.26-3.85,16.35,16.35,0,0,0,2.62,6.55,16.94,16.94,0,0,0,13.65,7,19.14,19.14,0,0,0,8.28-1.88,23.36,23.36,0,0,0,3.68-2.22,17.66,17.66,0,0,0,3-3.52,9,9,0,0,1,1.42-1.54,3.2,3.2,0,0,1,1.76-.75A5.6,5.6,0,0,0,1152.49,555.8Z"/>
            <path class="cls-86" d="M1125,540.75a.8.8,0,0,1,.08.16.84.84,0,0,1-.17.83,1.49,1.49,0,0,1-.73.47,2.69,2.69,0,0,1-2.45-.41,2,2,0,0,0-.29.51,2.21,2.21,0,0,0,1.53.73,4.22,4.22,0,0,0,2.77-.34,1.41,1.41,0,0,0,.7-1.1,1.22,1.22,0,0,0-.33-.81A4.09,4.09,0,0,0,1125,540.75Z"/>
            <path class="cls-92" d="M1133.84,546q1.92,1.71,3.68,3.57c.59.62,1.16,1.26,1.72,1.9l.85,1c.16.19.64.58.55.87-.19.54-1.15-.08-1.4-.26a28.77,28.77,0,0,1-4.39-4.63,28.14,28.14,0,0,0-6.21-5.25c-.19-.12-1.32-.7-1.19-.94s1.12.13,1.29.21a16.45,16.45,0,0,1,3.37,2.08C1132.7,545,1133.27,545.46,1133.84,546Z"/>
          </g>
          <path class="cls-87" d="M1113,584.22l-.06-.19h0a.77.77,0,0,0-.07-.16l0-.08h0c0-.07-.09-.15-.15-.22h0a.1.1,0,0,0,0,0v0l-.12-.12h0l-.15-.14,0,0h0l-.22-.15h0l-.24-.13h0l-.25-.1h0l-.25-.09h0l-.25-.07h0l-.26-.05h0l-.25,0h-.07l-.23,0h-1.21a2.32,2.32,0,0,0-.93.27,4.16,4.16,0,0,0-1.28,1c-.12.16-.25.32-.36.48l-.27.39h0a12.88,12.88,0,0,1-.94,1.26,9.26,9.26,0,0,1-4.54,2.63c-1.7.51-3.47.77-5.16,1.31a17,17,0,0,0-7.6,4.95,7.65,7.65,0,0,1-1.24,1.24l-.06,0c-.12.07-.24.14-.37.2h0a1.61,1.61,0,0,1-.39.12h0a1.81,1.81,0,0,1-.4,0h0a1.32,1.32,0,0,1-.39-.06,1.83,1.83,0,0,1-.51-.29,3.26,3.26,0,0,1-.41-.42c-.13-.16-.25-.33-.37-.5s-.24-.33-.37-.48a3.49,3.49,0,0,0-2.16-1c.33.28.64.58,1,.89,1.22,1.24,2.26,2.66,3.36,4l.36.44.06.07.4.48c.16.19.34.37.5.55l.36.39c.3.31.6.6.92.89a13.81,13.81,0,0,0,1.58,1.18,14.71,14.71,0,0,0,4.33,1.91h0c.27.07.53.13.8.18h.06l.76.14h.11l.72.09h.16l.67,0h.84l.33,0,.5,0,.44-.05.39,0c.28,0,.55-.08.82-.14a15.72,15.72,0,0,0,8-4.23l0,0c.2-.2.4-.4.59-.61a16.39,16.39,0,0,0,2-2.68,17,17,0,0,0,2.17-6.29A17.78,17.78,0,0,0,1113,584.22Z"/>
          <path class="cls-87" d="M1109.12,560.84a1.49,1.49,0,0,0,0-.21h0a1.16,1.16,0,0,0,0-.18l0-.09h0c0-.09-.07-.19-.11-.28h0a.25.25,0,0,1,0-.07v0a.66.66,0,0,0-.12-.17h0l-.15-.2,0,0v0h0l-.23-.25h0l-.27-.23,0,0-.29-.22,0,0a3.28,3.28,0,0,0-.31-.2l0,0-.31-.19-.06,0-.32-.18-.07,0-.31-.16-.1-.05-.3-.14-.13,0-.27-.12-.17-.07-.24-.09-.23-.09-.17-.06-.4-.13a4.61,4.61,0,0,0-1.35-.23,5.82,5.82,0,0,0-2.08.34c-.23.08-.44.17-.66.26l-.5.22h0a17.12,17.12,0,0,1-1.69.71,15.63,15.63,0,0,1-7,.16c-2.46-.39-4.93-1-7.38-1.38a27.32,27.32,0,0,0-11.93.77,9.28,9.28,0,0,1-2.09.53h-.1a5.23,5.23,0,0,1-.56,0h0a3.7,3.7,0,0,1-.57-.07h0a3.47,3.47,0,0,1-.55-.16h0a2.65,2.65,0,0,1-.5-.27,2.5,2.5,0,0,1-.59-.52,3.3,3.3,0,0,1-.4-.6c-.12-.21-.22-.43-.33-.64s-.21-.43-.33-.64a6.14,6.14,0,0,0-2.53-2c.34.43.65.86,1,1.3,1.21,1.77,2.11,3.61,3.12,5.43.1.2.22.39.33.59l0,.09.37.65.49.77c.11.18.22.36.34.54.29.43.6.86.93,1.28a20.11,20.11,0,0,0,1.7,1.9,26.6,26.6,0,0,0,5.15,4h0c.33.2.67.39,1,.58l.08,0c.32.18.64.35,1,.51l.15.07.93.44.22.09.88.38.32.12.78.3h0l.45.16.68.23.61.18.53.15c.39.11.77.21,1.16.29a27.06,27.06,0,0,0,12.17.08h.07c.34-.08.67-.17,1-.27a18.3,18.3,0,0,0,3.62-1.48,13.73,13.73,0,0,0,5.1-4.76A12.39,12.39,0,0,0,1109.12,560.84Z"/>
          <g>
            <path class="cls-94" d="M1112.68,581.85a17.48,17.48,0,0,1-1.83,12.95,16.09,16.09,0,0,1-10.6,7.56,15,15,0,0,1-12.52-3.33c-2.6-2.29-4.29-5.46-6.91-7.73a3.43,3.43,0,0,1,2.15,1c.52.61.9,1.44,1.67,1.69a1.94,1.94,0,0,0,1.65-.34,7.27,7.27,0,0,0,1.24-1.24,17.12,17.12,0,0,1,7.6-4.95c1.69-.53,3.45-.8,5.16-1.31a9.37,9.37,0,0,0,4.54-2.62c.58-.67,1-1.46,1.57-2.13a3.29,3.29,0,0,1,2.21-1.32C1110.19,580,1112.3,580.32,1112.68,581.85Z"/>
            <path class="cls-95" d="M1108.61,580.1a3.29,3.29,0,0,0-2.21,1.32c-.23.27-.43.56-.64.86,1.64.2,2.64,2.12,2.37,3.75a7.13,7.13,0,0,1-2.67,4A20.37,20.37,0,0,1,1089,594.9a5.77,5.77,0,0,1-2.28-.77,2.86,2.86,0,0,1-.5-.42,1.9,1.9,0,0,1-1.59.3c-.77-.25-1.15-1.08-1.67-1.69a3.43,3.43,0,0,0-2.15-1c2.62,2.27,4.31,5.44,6.91,7.73a15,15,0,0,0,12.52,3.33,16.09,16.09,0,0,0,10.6-7.56,17.48,17.48,0,0,0,1.83-12.95C1112.3,580.32,1110.19,580,1108.61,580.1Z"/>
            <path class="cls-96" d="M1110.85,594.8a17.48,17.48,0,0,0,1.83-12.95,2,2,0,0,0-1-1.23c0,.29,0,.58,0,.85.08,3.26-1.74,6.29-4,8.59a21.58,21.58,0,0,1-21.07,5.22,4.42,4.42,0,0,0-1.38-.29,1.61,1.61,0,0,0-.83.27,28.1,28.1,0,0,0,3.36,3.77,15,15,0,0,0,12.52,3.33A16.09,16.09,0,0,0,1110.85,594.8Z"/>
            <path class="cls-97" d="M1112.68,581.85a2,2,0,0,0-1-1.23c0,.29,0,.58,0,.85a10,10,0,0,1-1.32,5,2.14,2.14,0,0,1,1.21,1.7,4.79,4.79,0,0,1-.37,2.27,16.1,16.1,0,0,1-11.4,9.83,17.84,17.84,0,0,1-3.78.46,19.9,19.9,0,0,1-6.75-1.09,16,16,0,0,1-1.5-.58,14.91,14.91,0,0,0,12.46,3.29,16.09,16.09,0,0,0,10.6-7.56A17.48,17.48,0,0,0,1112.68,581.85Z"/>
            <path class="cls-98" d="M1096,587.82c1.71-.44,3.49-.57,5.15-1.14a10.13,10.13,0,0,0,2.55-1.27,9.42,9.42,0,0,0,1.12-.88c.26-.23.44-.71.77-.84.61-.24.54.53.43.89a2.5,2.5,0,0,1-.64.94,11.72,11.72,0,0,1-5.16,2.85c-1.9.58-3.87.91-5.77,1.5a11.57,11.57,0,0,0-5.11,2.92,2.7,2.7,0,0,1-.59.53c-.23.14-.68.23-.79-.09s.21-.58.36-.75a14.83,14.83,0,0,1,1.61-1.56,15.92,15.92,0,0,1,3.75-2.31A14.75,14.75,0,0,1,1096,587.82Z"/>
            <path class="cls-99" d="M1112.61,581.66c-.5-1.37-2.49-1.66-4-1.56a1.07,1.07,0,0,0-.25,0,1,1,0,0,0,.7,1,7.21,7.21,0,0,0,.91.25,12.44,12.44,0,0,0,1.54.48A1.55,1.55,0,0,0,1112.61,581.66Z"/>
            <path class="cls-100" d="M1111.63,580.6a.52.52,0,0,1-.32.51,1.45,1.45,0,0,1-.8,0l-1.61-.3a1.34,1.34,0,0,1-.39-.11,1.28,1.28,0,0,0,.55.44,7.21,7.21,0,0,0,.91.25,12.44,12.44,0,0,0,1.54.48,1.55,1.55,0,0,0,1.1-.22A2,2,0,0,0,1111.63,580.6Z"/>
          </g>
          <path class="cls-100" d="M1154.17,585.11c-2.43-1.77-3.72-4.65-5.49-7.09-.26-.35-.52-.69-.8-1a10.72,10.72,0,0,0-.8-.85l-.07-.07a17.48,17.48,0,0,0-13.33-4.45,15.16,15.16,0,0,0-9.19,3.55c-2.35,2.14-3.68,5.12-4.86,8.09h0l-.39,1a1,1,0,0,0-.07.45v.07s0,0,0,.05a.68.68,0,0,0,0,.14s0,.06,0,.09a1.21,1.21,0,0,0,0,.18.69.69,0,0,0,0,.1.41.41,0,0,0,0,.08l0,.08a.37.37,0,0,0,.05.11l.08.15.08.12.06.1,0,0,.11.14.07.09.18.21h0a3.15,3.15,0,0,0,2.06,1l.11-.07a.1.1,0,0,0,0,0h0c.15-.1.29-.21.45-.3a6.82,6.82,0,0,1,2.92-.78,12.63,12.63,0,0,1,2.31.08,20.74,20.74,0,0,1,2.9.6c1,.26,1.9.55,2.87.78q1,.25,2.07.42c.7.11,1.4.18,2.1.22s1.41,0,2.11,0a16.39,16.39,0,0,0,2.09-.28c.32-.07.62-.15.92-.23a11.57,11.57,0,0,0,1.71-.63,11.3,11.3,0,0,0,1.56-.87,11,11,0,0,0,1.13-.84c.34-.28.68-.57,1-.89l.22-.2a2.46,2.46,0,0,1,1.92-.72h0a1.6,1.6,0,0,1,.48.16,4,4,0,0,1,.85.58l.4.33a3.29,3.29,0,0,0,.67.42,1.45,1.45,0,0,0,1.22.07.07.07,0,0,0,0-.06A.1.1,0,0,0,1154.17,585.11Z"/>
          <g>
            <path class="cls-94" d="M1155.06,583.93c-2.77-2-4-5.49-6.28-8.1-3.41-4-9-5.74-14.2-5.37a15.13,15.13,0,0,0-9.19,3.55c-2.61,2.38-4,5.8-5.26,9.1-.28.72.26,1.62.79,2.19a3.24,3.24,0,0,0,2.06,1c1.54-1.25,3.88-1.35,5.85-1.12a50.23,50.23,0,0,1,5.76,1.38,19.15,19.15,0,0,0,8.38.35,12.35,12.35,0,0,0,6.32-3.46,2.68,2.68,0,0,1,2.17-.92,4.26,4.26,0,0,1,1.73,1.07,1.88,1.88,0,0,0,1.88.49S1155.11,584,1155.06,583.93Z"/>
            <path class="cls-95" d="M1148.78,575.83a14,14,0,0,0-1.7-1.66,6.76,6.76,0,0,1-2.18-.34c-1.16-.36-2.24-.93-3.38-1.34a15,15,0,0,0-11.2.65,19.48,19.48,0,0,0-8.32,7.69c-.36.6-.8,1.26-1.48,1.28l-.39,1c-.28.72.26,1.62.79,2.19a3.24,3.24,0,0,0,2.06,1c1.54-1.25,3.88-1.35,5.85-1.12a50.23,50.23,0,0,1,5.76,1.38,19.15,19.15,0,0,0,8.38.35,12.35,12.35,0,0,0,6.32-3.46,2.68,2.68,0,0,1,2.17-.92,4.26,4.26,0,0,1,1.73,1.07,1.88,1.88,0,0,0,1.88.49s0-.09,0-.13C1152.29,581.91,1151,578.44,1148.78,575.83Z"/>
            <path class="cls-96" d="M1148.93,577.05a16.6,16.6,0,0,0-22-1.16,18.72,18.72,0,0,0-5.67,7.5c-.19.45-.43,1-.64,1.57.09.12.19.23.28.34a3.24,3.24,0,0,0,2.06,1c1.54-1.25,3.88-1.35,5.85-1.12a50.23,50.23,0,0,1,5.76,1.38,19.15,19.15,0,0,0,8.38.35,12.35,12.35,0,0,0,6.32-3.46,2.69,2.69,0,0,1,2.14-.92,6.18,6.18,0,0,0-.18-1.71A8.53,8.53,0,0,0,1148.93,577.05Z"/>
            <path class="cls-97" d="M1148.93,577.05a15.43,15.43,0,0,0-1.9-1.63v0a4.47,4.47,0,0,1-.53,5.53,7.56,7.56,0,0,1-5.47,2.14,26.87,26.87,0,0,1-6-.85,16.58,16.58,0,0,0-6-.44c-1.11.17-2.18.55-3.29.7a4.35,4.35,0,0,1-3.22-.64,2.73,2.73,0,0,1-.38-.38,18.32,18.32,0,0,0-.92,1.89c-.19.45-.43,1-.64,1.57.09.12.19.23.28.34a3.24,3.24,0,0,0,2.06,1c1.54-1.25,3.88-1.35,5.85-1.12a50.23,50.23,0,0,1,5.76,1.38,19.15,19.15,0,0,0,8.38.35,12.35,12.35,0,0,0,6.32-3.46,2.69,2.69,0,0,1,2.14-.92,6.18,6.18,0,0,0-.18-1.71A8.53,8.53,0,0,0,1148.93,577.05Z"/>
            <path class="cls-99" d="M1123,586.27l.17-.11a2.09,2.09,0,0,0-.3-.9,5.34,5.34,0,0,0-1.25-1.47,1.91,1.91,0,0,0-1.2-.49l-.33.05a2.65,2.65,0,0,0,.85,1.95A3.24,3.24,0,0,0,1123,586.27Z"/>
            <path class="cls-98" d="M1128.2,572.56a18,18,0,0,1,9.69-1.82,13,13,0,0,1,2.7.45,7.38,7.38,0,0,1,1.28.5c.12.06,1,.54.44.6-.12,0-.44-.16-.57-.2l-.64-.17c-.45-.11-.9-.2-1.36-.28a18.21,18.21,0,0,0-2.75-.3,16.85,16.85,0,0,0-5.47.64,14.45,14.45,0,0,0-6.64,4.07,12,12,0,0,0-1.38,1.79,7.21,7.21,0,0,1-1.22,1.92c-.4.31-.38,0-.27-.37a10.3,10.3,0,0,1,1-2,13.08,13.08,0,0,1,3-3.39A13.9,13.9,0,0,1,1128.2,572.56Z"/>
            <path class="cls-100" d="M1120.92,585.3a3.24,3.24,0,0,0,2.06,1l.17-.11a2.09,2.09,0,0,0-.3-.9,5.12,5.12,0,0,0-1.11-1.34,3.7,3.7,0,0,1,.25.43,1.36,1.36,0,0,1,.16.53.62.62,0,0,1-.19.5.82.82,0,0,1-.85,0l-.28-.16Z"/>
          </g>
          <g>
            <path class="cls-94" d="M1109.14,554.11a15.6,15.6,0,0,1-5.37,13.13,21,21,0,0,1-13.57,5,21.25,21.25,0,0,1-10.14-2.23,16,16,0,0,1-7.21-7.36c-1.2-2.63-1.57-5.56-2.3-8.36a17.74,17.74,0,0,0-1.51-4,10.09,10.09,0,0,0-1.25-1.86c-.39-.46-1.24-1-1.44-1.49a1,1,0,0,1,.8.06,3.08,3.08,0,0,1,.87.7,44.86,44.86,0,0,1,3.07,3.53,3.37,3.37,0,0,0,2,1.53,26.27,26.27,0,0,0,3.3-.44,31,31,0,0,1,7.43.81c3.35.68,6.72,1.49,10.13,1.25,4-.28,7.72-2,11.36-3.65C1107.19,551.09,1108.93,552.24,1109.14,554.11Z"/>
            <path class="cls-95" d="M1109.14,554.11c-.21-1.87-2-3-3.79-3.41-1.54.71-3.11,1.42-4.7,2a2.61,2.61,0,0,1,.08.88c-.12,1.17-1.35,1.87-2.48,2.21-3.47,1-7.21.42-10.73-.46s-7-2-10.65-2c-2,0-4.25.32-5.84-.91a5.75,5.75,0,0,1-1.89-3.55c-.37-.41-.74-.82-1.12-1.22a3.08,3.08,0,0,0-.87-.7,1,1,0,0,0-.8-.06c.2.53,1.05,1,1.44,1.49a10.09,10.09,0,0,1,1.25,1.86,17.74,17.74,0,0,1,1.51,4c.73,2.8,1.1,5.73,2.3,8.36a15,15,0,0,0,2.78,4,19.63,19.63,0,0,0,7.79,1.44c5.39-.12,10.46-2.42,15.31-4.77,3.66-1.76,7.44-3.71,9.77-7a9.13,9.13,0,0,0,.71-1.21C1109.2,554.75,1109.18,554.43,1109.14,554.11Z"/>
            <path class="cls-96" d="M1109.14,554.11a3.56,3.56,0,0,0-1.83-2.64,33.14,33.14,0,0,0-3,2.48,17.08,17.08,0,0,1-10.52,3.57,33.72,33.72,0,0,1-11.09-1.95c-1.73-.56-3.52-.87-5.22-1.41a13.56,13.56,0,0,0-5.55-.6,1.72,1.72,0,0,0-1.17.45,1.06,1.06,0,0,0-.18.35c.71,2.76,1.08,5.64,2.27,8.24a16,16,0,0,0,7.21,7.36,21.25,21.25,0,0,0,10.14,2.23,21,21,0,0,0,13.57-5A15.6,15.6,0,0,0,1109.14,554.11Z"/>
            <path class="cls-97" d="M1109.14,554.11a3.56,3.56,0,0,0-1.83-2.64,33.14,33.14,0,0,0-3,2.48,14.61,14.61,0,0,1-4.13,2.36,1.57,1.57,0,0,1,.25.2,3.53,3.53,0,0,1,.69,3.51,7.59,7.59,0,0,1-2.12,3.05,18.38,18.38,0,0,1-16.81,4.46,17.83,17.83,0,0,1-5.08-2.17,18.76,18.76,0,0,1-4.93-4.51,15.4,15.4,0,0,0,.67,1.75,16,16,0,0,0,7.21,7.36,21.25,21.25,0,0,0,10.14,2.23,21,21,0,0,0,13.57-5A15.6,15.6,0,0,0,1109.14,554.11Z"/>
            <path class="cls-99" d="M1106.91,553.86a2.38,2.38,0,0,0,1.92.18,1.06,1.06,0,0,0,.26-.17c-.33-1.72-2-2.8-3.74-3.17l0,0a3,3,0,0,0,.43,2.45A3,3,0,0,0,1106.91,553.86Z"/>
            <path class="cls-100" d="M1108.83,554a1.06,1.06,0,0,0,.26-.17,3.62,3.62,0,0,0-1.7-2.34,1.06,1.06,0,0,1-.05,1,1.14,1.14,0,0,1-1.49.21,2.23,2.23,0,0,1-.56-.58,2.31,2.31,0,0,0,.44,1,3,3,0,0,0,1.18.69A2.38,2.38,0,0,0,1108.83,554Z"/>
            <path class="cls-98" d="M1087.16,554.16c.34.07.71.07,1.06.13l1.45.24a25,25,0,0,0,3.56.31,13.72,13.72,0,0,0,3.26-.33,9.75,9.75,0,0,0,1.59-.49c.23-.09.8-.52,1-.13s-.63.75-.89.88a6.09,6.09,0,0,1-1.74.49,25.68,25.68,0,0,1-8.89-.63,53,53,0,0,0-8.82-1.46.52.52,0,0,1-.42-.14c-.24-.3.32-.3.46-.29a30.16,30.16,0,0,1,5.6.67c.93.21,1.83.53,2.76.74Z"/>
          </g>
          <g>
            <path class="cls-101" d="M1168.72,477s-.35,8.76,4.87,12.68-25.42,9.47-20.38,3.06c1.89-2.4,4.79-.43,9.15-15.73Z"/>
            <path class="cls-102" d="M1185.25,527.72a11.82,11.82,0,0,1-1.46.74c-3.42,1.42-5.65.11-6.35-1-.8-1.27-6.3-33.32-6.3-33.32s0-1.57,0-3.08a24.38,24.38,0,0,0-.06-2.53c-.13-1.06,13,7.27,17.42,17C1191.78,512.63,1190.18,524.78,1185.25,527.72Z"/>
            <path class="cls-103" d="M1183.79,528.46c-3.42,1.42-5.65.11-6.35-1-.8-1.27-6.3-33.32-6.3-33.32s0-1.57,0-3.08c4,2.53,11.79,8.84,15,15.87C1189.18,513.6,1188,524.64,1183.79,528.46Z"/>
            <ellipse class="cls-104" cx="1165.54" cy="476.95" rx="3.18" ry="1.01" transform="translate(-1.04 2.54) rotate(-0.12)"/>
            <path class="cls-105" d="M1168,489.07s11.7,10,14.2,20.28c3.35,13.78-1.12,19.58-4,21.17s-8.1.87-8.11-2.31S1164.5,490.34,1168,489.07Z"/>
            <path class="cls-101" d="M1167.84,493.22s10.56,9,12.81,18.29c3,12.43-1,17.66-3.65,19.09s-7.3.78-7.31-2.08S1164.73,494.37,1167.84,493.22Z"/>
            <path class="cls-102" d="M1143.55,529.28a11.67,11.67,0,0,0,1.46.73c3.42,1.41,5.65.08,6.35-1,.8-1.28,6.19-33.35,6.19-33.35s0-1.57-.06-3.08c0-1.06,0-2.09,0-2.53.13-1.06-13,7.33-17.36,17C1137,514.21,1138.61,526.36,1143.55,529.28Z"/>
            <path class="cls-103" d="M1145,530c3.42,1.41,5.65.08,6.35-1,.8-1.28,6.19-33.35,6.19-33.35s0-1.57-.06-3.08c-4,2.55-11.76,8.9-14.92,15.94C1139.57,515.17,1140.8,526.21,1145,530Z"/>
            <path class="cls-105" d="M1160.73,490.55s-11.67,10.07-14.14,20.34c-3.31,13.79,1.19,19.57,4.11,21.16s8.1.82,8.1-2.35S1164.18,491.81,1160.73,490.55Z"/>
            <path class="cls-101" d="M1160.85,494.7s-10.53,9.08-12.75,18.35c-3,12.43,1.07,17.65,3.7,19.07s7.31.75,7.31-2.11S1164,495.83,1160.85,494.7Z"/>
            <path class="cls-104" d="M1164.89,489.92s6.68,8,9.24,23.26c2.45,14.59-.53,21-9.18,21-8.28,0-12.43-6.66-9.85-21.39C1157.6,498.5,1162.5,490.77,1164.89,489.92Z"/>
            <path class="cls-101" d="M1164.85,494.47s5.65,7.07,7.81,20.49c2.07,12.85-.45,18.53-7.75,18.5-7,0-10.51-5.87-8.33-18.84C1158.69,502,1162.83,495.22,1164.85,494.47Z"/>
            <ellipse class="cls-60" cx="1160.19" cy="514.71" rx="8.62" ry="1.82" transform="translate(476.07 1583.79) rotate(-81.31)"/>
          </g>
          <path class="cls-106" d="M295.18,3S395.46,31,452.35,78.23c37.61,28.93,33.75,26,33.75,26l3.86,2.9s-21.87,18.11-24.77,20c13.5,8.68,3.56,8.89,3.56,8.89s-64.61,147.53-108,108l-43.4-39.54s-65.57,24.6-128.25,28.21C188.14,130.3,227.68,31,258.53,3,272-8.56,295.18,3,295.18,3Z"/>
          <path class="cls-106" d="M286.62,156s9.06,28.78,33.62,51.16"/>
          <path class="cls-107" d="M473.79,133.08s-52,130.6-103.87,119.56c-17.73-14-21.64-18.82-21.64-18.82S400,188.48,441.17,90C471.32,123.16,473.79,133.08,473.79,133.08Z"/>
        </g>
      </g>
    </g>
  </g>
</svg>
