<svg id="Layer_1" data-name="Layer 1" xmlns="http://www.w3.org/2000/svg" width="124.26" height="191.57" viewBox="0 0 124.26 191.57">
  <defs>
    <style>
      .cls-1, .cls-2 {
        fill: none;
        stroke-linejoin: round;
        stroke-width: 15px;
      }

      .cls-1 {
        stroke: #000;
        opacity: 0.5;
      }

      .cls-2 {
        stroke: #fff;
      }

      .cls-3 {
        fill: #c6fcfc;
      }

      .cls-10, .cls-3, .cls-4, .cls-5, .cls-6, .cls-7, .cls-8, .cls-9 {
        stroke: #444949;
        stroke-miterlimit: 10;
      }

      .cls-3, .cls-4, .cls-5, .cls-6, .cls-7, .cls-8 {
        opacity: 0.62;
      }

      .cls-4 {
        fill: #e87e6d;
      }

      .cls-5 {
        fill: #fcf6f6;
      }

      .cls-6 {
        fill: #ce5434;
      }

      .cls-7 {
        fill: #dd6b54;
      }

      .cls-8 {
        fill: #cff8fe;
      }

      .cls-9 {
        fill: #fcd43c;
      }

      .cls-10 {
        fill: #d9b735;
      }

      .cls-11 {
        fill: #fff;
      }
    </style>
  </defs>
  <g>
    <path class="cls-1" d="M75.72,92.42l25.89-30.28h0L86.26,46.34H46.46L31.11,62.13h0L57,92.42a44.69,44.69,0,1,0,18.72,0Z"/>
    <path class="cls-2" d="M71.72,88.42,97.61,58.14h0L82.26,42.34H42.46L27.11,58.13h0L53,88.42a44.69,44.69,0,1,0,18.72,0Z"/>
    <g id="ring">
      <g>
        <g>
          <polygon class="cls-3" points="97.61 58.13 82.26 42.34 76.75 58.13 97.61 58.13"/>
          <polygon class="cls-4" points="76.75 58.13 82.26 42.34 62.36 42.34 42.46 42.34 47.97 58.13 76.75 58.13"/>
          <polygon class="cls-5" points="42.46 42.34 27.11 58.13 47.97 58.13 42.46 42.34"/>
          <polygon class="cls-6" points="76.75 58.13 62.36 99.37 97.61 58.14 97.61 58.13 76.75 58.13"/>
          <polygon class="cls-7" points="27.11 58.13 27.11 58.14 62.36 99.37 47.97 58.13 27.11 58.13"/>
          <polygon class="cls-8" points="47.97 58.13 62.36 99.37 76.75 58.13 47.97 58.13"/>
        </g>
        <path class="cls-9" d="M62.36,87.43a44.7,44.7,0,1,0,44.7,44.7A44.75,44.75,0,0,0,62.36,87.43Zm0,82.94a38.25,38.25,0,1,1,38.25-38.24A38.24,38.24,0,0,1,62.36,170.37Z"/>
        <path class="cls-10" d="M62.36,93.88a38.25,38.25,0,1,0,38.25,38.25A38.24,38.24,0,0,0,62.36,93.88Zm0,70.89A32.65,32.65,0,1,1,95,132.13,32.67,32.67,0,0,1,62.36,164.77Z"/>
        <path class="cls-11" d="M62.36,33.12a1.72,1.72,0,0,1-1.72-1.72V4.13a1.72,1.72,0,1,1,3.44,0V31.4A1.71,1.71,0,0,1,62.36,33.12Z"/>
        <path class="cls-11" d="M83.75,35.42a1.9,1.9,0,0,1-.57-.1,1.73,1.73,0,0,1-1.05-2.2L90.31,9.87A1.72,1.72,0,0,1,93.56,11L85.38,34.26A1.74,1.74,0,0,1,83.75,35.42Z"/>
        <path class="cls-11" d="M102.3,51.86a1.72,1.72,0,0,1-1-3.1L119.58,35a1.72,1.72,0,1,1,2.07,2.75L103.34,51.52A1.75,1.75,0,0,1,102.3,51.86Z"/>
        <path class="cls-11" d="M41,35.42a1.74,1.74,0,0,1-1.63-1.16L31.17,11a1.72,1.72,0,1,1,3.24-1.14l8.18,23.25a1.72,1.72,0,0,1-1.05,2.2A1.9,1.9,0,0,1,41,35.42Z"/>
        <path class="cls-11" d="M22.42,51.86a1.72,1.72,0,0,1-1-.34L3.08,37.77A1.72,1.72,0,1,1,5.14,35L23.46,48.76a1.72,1.72,0,0,1-1,3.1Z"/>
      </g>
    </g>
  </g>
</svg>
