<svg xmlns="http://www.w3.org/2000/svg" xmlns:xlink="http://www.w3.org/1999/xlink" width="312" height="250.72" viewBox="0 0 312 250.72">
  <defs>
    <style>
      .cls-1 {
        isolation: isolate;
      }

      .cls-2 {
        fill: none;
        stroke: #000;
        stroke-width: 15px;
      }

      .cls-2, .cls-3 {
        stroke-linejoin: round;
      }

      .cls-2, .cls-7 {
        opacity: 0.5;
      }

      .cls-3 {
        fill: #ffef5f;
        stroke: #fffa4d;
        stroke-width: 24px;
      }

      .cls-4 {
        fill: #f4e9e4;
        stroke: #3a3a35;
        stroke-miterlimit: 10;
      }

      .cls-5, .cls-7 {
        mix-blend-mode: multiply;
      }

      .cls-5 {
        opacity: 0.2;
      }

      .cls-6 {
        fill: #dd8e65;
      }

      .cls-8 {
        fill: #c6b9b3;
      }

      .cls-9 {
        fill: url(#linear-gradient);
      }
    </style>
    <linearGradient id="linear-gradient" x1="245.81" y1="161.23" x2="195.46" y2="196.12" gradientUnits="userSpaceOnUse">
      <stop offset="0" stop-color="#c95b3c"/>
      <stop offset="0.13" stop-color="#dd8e65"/>
      <stop offset="0.31" stop-color="#e6baa8"/>
      <stop offset="0.31" stop-color="#e7bcaa"/>
      <stop offset="0.37" stop-color="#ecccbe"/>
      <stop offset="0.43" stop-color="#f0d6cb"/>
      <stop offset="0.48" stop-color="#f1d9cf"/>
      <stop offset="0.71" stop-color="#e6baa8"/>
      <stop offset="0.87" stop-color="#dd8e65"/>
      <stop offset="1" stop-color="#c95b3c"/>
    </linearGradient>
  </defs>
  <g class="cls-1">
    <g id="Layer_1" data-name="Layer 1">
      <g>
        <path class="cls-2" d="M231.27,238l.59-.13c1.25-.31,2.5-.64,3.73-1l.9-.26c1-.29,2-.6,3-.91l.84-.27c1.2-.39,2.39-.8,3.57-1.24l.76-.28c1-.36,1.9-.73,2.84-1.11l1-.4c1.13-.48,2.26-1,3.36-1.47l.54-.25c1-.44,1.88-.89,2.8-1.35l1.1-.55c.85-.44,1.69-.88,2.52-1.33l.76-.41c1-.55,2-1.12,2.93-1.69l1.19-.73c.65-.4,1.29-.81,1.93-1.22l1.15-.74c.87-.58,1.73-1.18,2.59-1.78l1.28-.93,1.49-1.11,1.34-1,1.6-1.3c.69-.56,1.37-1.14,2-1.72l1.09-1c.49-.43,1-.87,1.43-1.31l.88-.84c.89-.86,1.75-1.73,2.6-2.61.21-.22.42-.43.62-.65.49-.52,1-1.05,1.44-1.58l.57-.65q2.28-2.62,4.29-5.36l.37-.53a67,67,0,0,0,3.74-5.79l.24-.4c6.06-10.63,8.78-22.15,7-33.51-.15-1-.35-1.92-.57-2.86,0-.2-.09-.4-.14-.6-.2-.84-.44-1.67-.69-2.49-.1-.3-.19-.6-.29-.9,0-.11-.07-.22-.11-.34v0c-10.62-31-56.11-50.8-99.37-43.95a92.87,92.87,0,0,0-35,12.74h0l-.41.27-.72.46c.05-.81.1-1.62.13-2.43,0-.09,0-.18,0-.28,0-.42,0-.84,0-1.26,0-1,.05-2,.05-3v-.55c0-.43,0-.87,0-1.3,0-.89,0-1.77-.07-2.65,0-.28,0-.55,0-.82s-.05-.78-.07-1.16c-.05-.84-.1-1.67-.16-2.5,0-.36-.05-.72-.08-1.09s-.07-.63-.1-1q-.1-1.2-.24-2.4l-.15-1.34c0-.24-.07-.48-.1-.72-.1-.79-.22-1.57-.33-2.35-.08-.53-.15-1.06-.24-1.58,0-.16-.05-.31-.08-.47-.13-.79-.28-1.56-.43-2.34-.11-.6-.21-1.19-.33-1.78a1.55,1.55,0,0,1,0-.21c-.17-.82-.36-1.63-.54-2.44-.13-.55-.24-1.1-.37-1.64-.29-1.19-.6-2.36-.92-3.53-.15-.54-.3-1.06-.46-1.59-.29-1-.59-2-.91-3-.18-.58-.39-1.15-.58-1.72-.26-.76-.51-1.52-.78-2.27s-.46-1.22-.69-1.83-.53-1.39-.8-2.07-.51-1.24-.77-1.85-.56-1.31-.85-2l-.84-1.83c-.3-.62-.6-1.25-.91-1.87l-.9-1.79-1-1.8c-.32-.59-.64-1.17-1-1.75s-.68-1.15-1-1.72-.67-1.14-1-1.7-.72-1.11-1.08-1.67-.71-1.09-1.07-1.62-.82-1.15-1.23-1.72c-.69-1-1.38-1.88-2.1-2.79-.39-.5-.77-1-1.17-1.5s-.85-1-1.28-1.5-.78-.91-1.18-1.36-.89-1-1.34-1.44-.8-.85-1.21-1.26-.92-.91-1.39-1.36L133.26,38c-.48-.44-1-.86-1.45-1.29s-.85-.73-1.28-1.08-1-.81-1.49-1.2l-1.32-1c-.51-.38-1-.76-1.54-1.11s-.9-.61-1.35-.91-1-.69-1.59-1-.91-.53-1.37-.8-1.09-.64-1.64-.94-.87-.43-1.31-.65c-1.08-.54-2.17-1.05-3.28-1.51-.49-.21-1-.43-1.47-.62s-1.12-.4-1.68-.6l-1.24-.44,0,0a49,49,0,0,0-11.34-2.25c-38.44-2.87-75.5,43.24-79.31,94.26A103.65,103.65,0,0,0,23.3,150c0,.14.08.29.11.43.26,1,.52,2,.81,2.95v0a87.87,87.87,0,0,0,3.13,8.89,1.46,1.46,0,0,1,.07.19c.37.88.75,1.74,1.14,2.6l.22.46a80.3,80.3,0,0,0,5.54,10.05l.38.58c.44.67.9,1.34,1.36,2l.5.69c.47.65.94,1.3,1.43,1.93l.21.26q1.51,2,3.14,3.76c.17.19.33.39.5.57.47.51.94,1,1.42,1.5.28.3.57.59.85.88l1.39,1.36,1,.9c.46.42.92.85,1.39,1.25s.84.71,1.27,1.06c.72.6,1.44,1.18,2.18,1.74.44.34.89.67,1.34,1s.86.61,1.29.91l1.41.95,1.27.81c.54.34,1.09.66,1.65,1,.36.22.72.44,1.09.64.88.49,1.78,1,2.69,1.42.33.17.67.32,1,.48l1.93.89,1.16.49,1.92.76,1.1.41,1,.35.36.12,1.06.34.63.21.83.23.73.21,1.51.4.79.19.82.18,1.59.34.87.17.61.1c.63.11,1.26.2,1.89.29l.86.13.33,0c1,.13,2,.23,3.08.31,17.27,1.29,34-4.92,47.45-16.75,7.38,33.23,44.52,56.1,89.53,49,1.29-.2,2.58-.44,3.86-.69l1-.21Q229.65,238.43,231.27,238Z"/>
        <path class="cls-3" d="M225.61,231l.59-.14c1.25-.3,2.5-.63,3.73-1l.9-.26c1-.3,2-.6,3-.92l.84-.26c1.2-.4,2.39-.81,3.57-1.24l.76-.29c.95-.35,1.9-.72,2.84-1.11l1-.4c1.13-.47,2.26-.95,3.37-1.46l.53-.26c1-.43,1.88-.88,2.8-1.34l1.1-.56c.85-.43,1.69-.87,2.52-1.33l.76-.4c1-.55,2-1.12,2.93-1.7l1.19-.72c.65-.4,1.29-.81,1.93-1.22l1.15-.74c.87-.59,1.74-1.18,2.59-1.78l1.28-.93c.5-.37,1-.74,1.49-1.12s.9-.68,1.34-1,1.07-.87,1.6-1.3c.69-.57,1.37-1.14,2-1.72l1.09-1,1.44-1.32.87-.83c.89-.86,1.75-1.73,2.6-2.61l.62-.66c.49-.52,1-1,1.44-1.57l.57-.65q2.28-2.62,4.29-5.37l.37-.52q2-2.85,3.75-5.79l.23-.4c6.06-10.64,8.78-22.15,7-33.51-.15-1-.35-1.92-.57-2.87,0-.2-.09-.4-.13-.6-.21-.83-.45-1.66-.7-2.48-.1-.3-.19-.6-.29-.9,0-.11-.07-.23-.11-.34v0c-10.62-31-56.11-50.8-99.37-43.94a92.87,92.87,0,0,0-35,12.74h0l-.41.26-.72.46c.05-.8.1-1.61.13-2.42,0-.1,0-.19,0-.28,0-.42,0-.84,0-1.26,0-1,.05-2,.05-3v-.55c0-.44,0-.87,0-1.3,0-.89,0-1.77-.07-2.66,0-.27,0-.54,0-.82s-.05-.77-.07-1.16c-.05-.83-.1-1.66-.16-2.49,0-.36-.05-.73-.08-1.09s-.07-.63-.1-1q-.1-1.21-.24-2.4c0-.45-.09-.9-.15-1.35,0-.24-.07-.48-.1-.72-.1-.78-.22-1.56-.33-2.35-.08-.52-.15-1-.24-1.57,0-.16-.05-.32-.08-.48-.13-.78-.28-1.56-.42-2.34-.12-.59-.22-1.18-.34-1.77,0-.08,0-.15,0-.22-.17-.82-.36-1.62-.54-2.43-.13-.55-.24-1.1-.37-1.65-.29-1.18-.6-2.36-.92-3.53l-.45-1.59c-.3-1-.6-2-.92-3-.18-.58-.39-1.15-.58-1.73-.26-.76-.51-1.52-.78-2.26s-.46-1.23-.69-1.83-.52-1.39-.8-2.08-.51-1.23-.77-1.84-.56-1.31-.85-2L147.67,59c-.3-.63-.6-1.25-.91-1.87l-.9-1.8-1-1.79c-.32-.59-.64-1.18-1-1.76s-.67-1.15-1-1.72-.67-1.14-1-1.7-.72-1.11-1.08-1.66l-1.07-1.63c-.4-.58-.82-1.15-1.23-1.72-.68-1-1.38-1.88-2.09-2.79-.4-.5-.78-1-1.18-1.49s-.85-1-1.28-1.51-.78-.91-1.18-1.35-.89-1-1.33-1.44l-1.21-1.26c-.46-.47-.93-.92-1.4-1.37S128,31.35,127.6,31s-1-.87-1.45-1.29-.85-.73-1.28-1.09-1-.81-1.49-1.2l-1.32-1c-.51-.37-1-.75-1.54-1.11l-1.35-.9c-.53-.35-1-.7-1.59-1s-.91-.54-1.37-.8-1.08-.64-1.64-.94-.87-.43-1.3-.65c-1.09-.55-2.18-1-3.29-1.52-.49-.2-1-.42-1.47-.62s-1.12-.4-1.68-.59c-.41-.15-.82-.31-1.24-.44l0,0a49.44,49.44,0,0,0-11.34-2.24C55.84,12.71,18.78,58.81,15,109.84a103.67,103.67,0,0,0,2.67,33.1c0,.14.08.28.11.42.26,1,.52,2,.81,2.95v.05a88.75,88.75,0,0,0,3.13,8.89l.08.18q.54,1.32,1.14,2.61l.21.46a81,81,0,0,0,5.54,10.05l.38.58c.44.67.9,1.33,1.36,2l.5.69c.47.65.94,1.29,1.43,1.92l.21.27c1,1.29,2.06,2.55,3.14,3.76l.5.57c.47.51,1,1,1.42,1.5.28.29.57.59.86.87.45.46.92.92,1.38,1.36l1,.91c.46.42.92.84,1.39,1.25l1.27,1.06c.72.59,1.44,1.17,2.18,1.73L47,188q.65.47,1.29.9c.47.33.94.64,1.41,1s.84.55,1.27.81,1.1.67,1.65,1l1.09.64c.89.49,1.78,1,2.69,1.42l1,.47c.64.31,1.29.61,1.94.89l1.15.49c.64.27,1.28.52,1.92.76.37.14.73.29,1.11.42l1,.34.36.12,1.07.35.62.2.83.24.73.2,1.51.41.79.18.82.19q.8.18,1.59.33l.88.17.61.11c.62.11,1.25.2,1.88.29l.86.13.33,0c1,.12,2,.23,3.08.31,17.27,1.29,34-4.92,47.45-16.75,7.38,33.23,44.52,56.1,89.53,49,1.29-.21,2.58-.44,3.86-.7l1-.2C223.44,231.46,224.53,231.23,225.61,231Z"/>
        <g>
          <g>
            <path class="cls-4" d="M158.32,118.05c-3.81,51-39.4,85.19-77.84,82.32S11.16,160.87,15,109.84,55.84,12.71,94.28,15.58,162.13,67,158.32,118.05Z"/>
            <g class="cls-5">
              <path class="cls-6" d="M105.59,17.8c13,11.35,32.17,39.07,29.36,80.76C131.41,151,92.75,178,65,176.86c-20.73-.83-39.46-13.2-48-36.93,7.56,34.84,33.19,58.17,63.54,60.44,38.44,2.87,74-31.29,77.84-82.32C161.75,72.16,138.3,28.26,105.59,17.8Z"/>
            </g>
            <g class="cls-7">
              <path class="cls-8" d="M155.18,80.31c.95,11.07.22,25.54-7.54,35.88-12.8,17.07-22.11,28.27-24,52.45C122,190,88.34,206.88,55.72,193.37a64.69,64.69,0,0,0,24.76,7c38.44,2.87,74-31.29,77.84-82.32A121.08,121.08,0,0,0,155.18,80.31Z"/>
            </g>
          </g>
          <g>
            <g>
              <path class="cls-4" d="M217.46,232.59C171,240,132.85,215.3,127.3,180.27s20.72-70.42,67.22-77.79,95.62,16.08,101.17,51.1S264,225.21,217.46,232.59Z"/>
              <g class="cls-5">
                <path class="cls-9" d="M179.46,225.38c-34.9-9.92-47.74-31.18-52.41-46.89.08.59.15,1.19.25,1.78,5.55,35,43.66,59.69,90.16,52.32,32.36-5.13,60.24-24.43,72.34-47.49C266.71,214.52,221.07,237.21,179.46,225.38Z"/>
              </g>
            </g>
            <g class="cls-5">
              <path class="cls-6" d="M295.69,153.58a42.74,42.74,0,0,0-1.8-7.19c-.66,23.9-20.32,47.79-61.48,56.23C171.28,215.16,130.25,184,137.3,146.8c3-16,13-22.67,22.27-31.59-24.07,15.07-36.22,40.15-32.27,65.06,5.55,35,43.66,59.69,90.16,52.32S301.24,188.61,295.69,153.58Z"/>
            </g>
          </g>
        </g>
      </g>
    </g>
  </g>
</svg>
