<svg id="Layer_1" data-name="Layer 1" xmlns="http://www.w3.org/2000/svg" width="204.6" height="308.6" viewBox="0 0 204.6 308.6">
  <defs>
    <style>
      .cls-1, .cls-2 {
        fill: none;
        stroke-linejoin: round;
      }

      .cls-1 {
        stroke: #000;
        stroke-width: 15px;
        opacity: 0.5;
      }

      .cls-2 {
        stroke: #fffa4d;
        stroke-width: 20px;
      }

      .cls-3 {
        fill: #c6fcfc;
      }

      .cls-10, .cls-3, .cls-4, .cls-5, .cls-6, .cls-7, .cls-8, .cls-9 {
        stroke: #444949;
        stroke-miterlimit: 10;
      }

      .cls-3, .cls-4, .cls-5, .cls-6, .cls-7, .cls-8 {
        opacity: 0.62;
      }

      .cls-4 {
        fill: #e87e6d;
      }

      .cls-5 {
        fill: #fcf6f6;
      }

      .cls-6 {
        fill: #ce5434;
      }

      .cls-7 {
        fill: #dd6b54;
      }

      .cls-8 {
        fill: #cff8fe;
      }

      .cls-9 {
        fill: #fcd43c;
      }

      .cls-10 {
        fill: #d9b735;
      }

      .cls-11 {
        fill: #fff;
      }
    </style>
  </defs>
  <g>
    <path class="cls-1" d="M124.08,151.77l43.24-50.58h0L141.68,74.81H75.2L49.56,101.18h0L92.8,151.77a74.66,74.66,0,1,0,31.28,0Z"/>
    <path class="cls-2" d="M117.39,145.08l43.25-50.57h0L135,68.13H68.52L42.88,94.5h0l43.24,50.57a74.67,74.67,0,1,0,31.27,0Z"/>
    <g id="ring">
      <g>
        <g>
          <polygon class="cls-3" points="160.64 94.5 135 68.13 125.81 94.5 160.64 94.5"/>
          <polygon class="cls-4" points="125.81 94.5 135 68.13 101.76 68.13 68.52 68.13 77.73 94.5 125.81 94.5"/>
          <polygon class="cls-5" points="68.52 68.13 42.88 94.5 77.73 94.5 68.52 68.13"/>
          <polygon class="cls-6" points="125.81 94.5 101.76 163.37 160.64 94.51 160.64 94.5 125.81 94.5"/>
          <polygon class="cls-7" points="42.88 94.5 42.88 94.51 101.76 163.37 77.73 94.5 42.88 94.5"/>
          <polygon class="cls-8" points="77.73 94.5 101.76 163.37 125.81 94.5 77.73 94.5"/>
        </g>
        <path class="cls-9" d="M101.77,143.43a74.67,74.67,0,1,0,74.65,74.66A74.75,74.75,0,0,0,101.77,143.43Zm0,138.55a63.89,63.89,0,1,1,63.88-63.89A63.9,63.9,0,0,1,101.76,282Z"/>
        <path class="cls-10" d="M101.76,154.2a63.89,63.89,0,1,0,63.88,63.89A63.9,63.9,0,0,0,101.76,154.2Zm0,118.41a54.53,54.53,0,1,1,54.52-54.52A54.59,54.59,0,0,1,101.77,272.61Z"/>
        <path class="cls-11" d="M101.77,52.72a2.88,2.88,0,0,1-2.88-2.88V4.29a2.88,2.88,0,0,1,5.75,0V49.84A2.87,2.87,0,0,1,101.77,52.72Z"/>
        <path class="cls-11" d="M137.49,56.56a2.93,2.93,0,0,1-1-.17,2.88,2.88,0,0,1-1.76-3.67l13.67-38.83a2.87,2.87,0,1,1,5.42,1.91L140.21,54.63A2.87,2.87,0,0,1,137.49,56.56Z"/>
        <path class="cls-11" d="M168.48,84a2.88,2.88,0,0,1-1.73-5.18L197.34,55.9a2.87,2.87,0,1,1,3.45,4.59l-30.58,23A2.87,2.87,0,0,1,168.48,84Z"/>
        <path class="cls-11" d="M66,56.56a2.88,2.88,0,0,1-2.72-1.93L49.66,15.8a2.88,2.88,0,1,1,5.43-1.91L68.75,52.72A2.88,2.88,0,0,1,67,56.39,2.93,2.93,0,0,1,66,56.56Z"/>
        <path class="cls-11" d="M35.05,84a2.82,2.82,0,0,1-1.72-.57l-30.59-23A2.87,2.87,0,1,1,6.19,55.9L36.78,78.84A2.88,2.88,0,0,1,35.05,84Z"/>
      </g>
    </g>
  </g>
</svg>
