<svg xmlns="http://www.w3.org/2000/svg" xmlns:xlink="http://www.w3.org/1999/xlink" width="222.98" height="181.36" viewBox="0 0 222.98 181.36">
  <defs>
    <style>
      .cls-1 {
        isolation: isolate;
      }

      .cls-2, .cls-3 {
        fill: none;
        stroke-linejoin: round;
        stroke-width: 15px;
      }

      .cls-2 {
        stroke: #000;
      }

      .cls-2, .cls-7 {
        opacity: 0.5;
      }

      .cls-3 {
        stroke: #fff;
      }

      .cls-4 {
        fill: #f4e9e4;
        stroke: #3a3a35;
        stroke-miterlimit: 10;
      }

      .cls-5, .cls-7 {
        mix-blend-mode: multiply;
      }

      .cls-5 {
        opacity: 0.2;
      }

      .cls-6 {
        fill: #dd8e65;
      }

      .cls-8 {
        fill: #c6b9b3;
      }

      .cls-9 {
        fill: url(#linear-gradient);
      }
    </style>
    <linearGradient id="linear-gradient" x1="172.74" y1="115.55" x2="137.16" y2="140.21" gradientUnits="userSpaceOnUse">
      <stop offset="0" stop-color="#c95b3c"/>
      <stop offset="0.13" stop-color="#dd8e65"/>
      <stop offset="0.31" stop-color="#e6baa8"/>
      <stop offset="0.31" stop-color="#e7bcaa"/>
      <stop offset="0.37" stop-color="#ecccbe"/>
      <stop offset="0.43" stop-color="#f0d6cb"/>
      <stop offset="0.48" stop-color="#f1d9cf"/>
      <stop offset="0.71" stop-color="#e6baa8"/>
      <stop offset="0.87" stop-color="#dd8e65"/>
      <stop offset="1" stop-color="#c95b3c"/>
    </linearGradient>
  </defs>
  <g class="cls-1">
    <g id="Layer_1" data-name="Layer 1">
      <g>
        <path class="cls-2" d="M162.47,169.84l.41-.09q1.34-.33,2.64-.69l.64-.19c.71-.2,1.42-.42,2.12-.64l.59-.19q1.27-.42,2.52-.87l.54-.21,2-.78.7-.29c.8-.33,1.59-.67,2.38-1l.38-.18,2-1,.77-.39c.6-.31,1.2-.62,1.78-.94l.54-.29q1-.59,2.07-1.2l.84-.51c.46-.28.91-.57,1.36-.86l.82-.53c.62-.41,1.23-.83,1.83-1.25l.9-.66c.36-.26.71-.52,1.05-.79l1-.73,1.13-.92,1.43-1.22.77-.68,1-.92.62-.59c.63-.61,1.24-1.22,1.84-1.85l.44-.46c.35-.37.68-.74,1-1.12l.4-.45q1.62-1.86,3-3.8l.27-.37q1.44-2,2.64-4.09c.06-.09.11-.19.16-.28,4.29-7.52,6.21-15.66,4.94-23.69-.11-.68-.25-1.35-.4-2,0-.15-.06-.29-.1-.43-.14-.59-.31-1.17-.49-1.76-.07-.21-.13-.42-.21-.63s-.05-.16-.07-.24v0c-7.51-21.9-39.66-35.9-70.24-31.06a65.58,65.58,0,0,0-24.71,9h0l-.29.19-.51.32c0-.57.07-1.14.09-1.71,0-.07,0-.13,0-.2,0-.3,0-.59,0-.89,0-.71,0-1.41,0-2.11,0-.13,0-.26,0-.39,0-.31,0-.62,0-.92,0-.63,0-1.25-.05-1.88,0-.19,0-.39,0-.58s0-.54,0-.82c0-.59-.07-1.17-.11-1.76l-.06-.77c0-.23,0-.45-.07-.67-.05-.57-.11-1.14-.17-1.7,0-.32-.06-.64-.1-.95s0-.34-.07-.51L114.18,71c-.06-.37-.11-.74-.17-1.11,0-.12,0-.23-.05-.34l-.3-1.65-.24-1.26,0-.15c-.12-.58-.25-1.15-.38-1.72-.09-.39-.17-.78-.26-1.16-.21-.84-.43-1.67-.65-2.5-.11-.38-.22-.75-.32-1.12-.21-.72-.42-1.44-.65-2.15-.13-.41-.27-.81-.41-1.22s-.36-1.07-.55-1.6l-.49-1.29c-.19-.49-.37-1-.57-1.47s-.36-.87-.54-1.3l-.6-1.39-.6-1.29c-.21-.44-.42-.88-.64-1.32s-.42-.85-.64-1.27-.45-.85-.67-1.27l-.69-1.24c-.23-.41-.48-.81-.72-1.22s-.47-.8-.72-1.2-.51-.78-.76-1.17-.5-.78-.76-1.15-.58-.82-.87-1.22c-.48-.67-1-1.33-1.48-2l-.83-1.06c-.3-.36-.6-.71-.91-1.06s-.55-.65-.83-1-.63-.68-.94-1-.57-.6-.86-.89-.65-.65-1-1l-.88-.83c-.34-.31-.68-.62-1-.91s-.61-.52-.91-.77-.7-.58-1.05-.85l-.94-.71-1.08-.78-1-.64c-.37-.25-.74-.49-1.12-.72s-.65-.38-1-.57-.77-.45-1.16-.66-.62-.31-.92-.46c-.77-.39-1.54-.74-2.32-1.07l-1-.44-1.19-.42c-.29-.1-.58-.22-.88-.31l0,0a34,34,0,0,0-8-1.59c-27.17-2-53.37,30.56-56.06,66.63a73.08,73.08,0,0,0,1.89,23.39c0,.1,0,.2.08.3.18.7.36,1.4.57,2.09v0a59.64,59.64,0,0,0,2.21,6.28.5.5,0,0,0,.05.13c.26.62.53,1.24.8,1.84,0,.11.1.22.16.33a55.79,55.79,0,0,0,3.91,7.1l.27.41c.31.48.64,1,1,1.41.12.16.24.32.35.49.34.46.67.91,1,1.36l.14.18c.72.92,1.46,1.8,2.23,2.66.11.14.23.27.35.41.33.36.67.71,1,1.06s.4.41.61.61.65.65,1,1l.69.64,1,.88.9.75c.5.42,1,.83,1.54,1.22l.94.71.92.64c.33.23.66.46,1,.67l.9.58,1.17.7.77.44c.62.35,1.26.69,1.9,1l.71.34,1.36.63.82.34c.45.19.9.37,1.36.54l.78.29.7.25.26.08.75.24.44.15.59.17.52.14,1.06.29.56.13.58.13,1.13.24.61.11.43.08c.44.08.89.14,1.33.21l.61.08.23,0c.73.09,1.45.17,2.18.22,12.21.91,24-3.47,33.55-11.84C98.64,159.86,124.89,176,156.7,171c.92-.15,1.83-.32,2.74-.49l.72-.15Q161.32,170.11,162.47,169.84Z"/>
        <path class="cls-3" d="M158.47,164.84l.41-.09q1.34-.33,2.64-.69l.64-.19c.71-.2,1.42-.42,2.12-.64l.59-.19q1.27-.42,2.52-.87l.54-.21,2-.78.7-.29c.8-.33,1.59-.67,2.38-1l.38-.18,2-1,.77-.39c.6-.31,1.2-.62,1.78-.94l.54-.29q1-.59,2.07-1.2l.84-.51c.46-.28.91-.57,1.36-.86l.82-.53c.62-.41,1.23-.83,1.83-1.25l.9-.66c.36-.26.71-.52,1.05-.79l1-.73,1.13-.92,1.43-1.22.77-.68,1-.92.62-.59c.63-.61,1.24-1.22,1.84-1.85l.44-.46c.35-.37.68-.74,1-1.12l.4-.45q1.62-1.86,3-3.8l.27-.37q1.44-2,2.64-4.09c.06-.09.11-.19.16-.28,4.29-7.52,6.21-15.66,4.94-23.69-.11-.68-.25-1.35-.4-2,0-.15-.06-.29-.1-.43-.14-.59-.31-1.17-.49-1.76-.07-.21-.13-.42-.21-.63s-.05-.16-.07-.24v0c-7.51-21.9-39.66-35.9-70.24-31.06a65.58,65.58,0,0,0-24.71,9h0l-.29.19-.51.32c0-.57.07-1.14.09-1.71,0-.07,0-.13,0-.2,0-.3,0-.59,0-.89,0-.71,0-1.41,0-2.11,0-.13,0-.26,0-.39,0-.31,0-.62,0-.92,0-.63,0-1.25-.05-1.88,0-.19,0-.39,0-.58s0-.54,0-.82c0-.59-.07-1.17-.11-1.76l-.06-.77c0-.23,0-.45-.07-.67-.05-.57-.11-1.14-.17-1.7,0-.32-.06-.64-.1-.95s0-.34-.07-.51L110.18,66c-.06-.37-.11-.74-.17-1.11,0-.12,0-.23-.05-.34l-.3-1.65-.24-1.26,0-.15c-.12-.58-.25-1.15-.38-1.72-.09-.39-.17-.78-.26-1.16-.21-.84-.43-1.67-.65-2.5-.11-.38-.22-.75-.32-1.12-.21-.72-.42-1.44-.65-2.15-.13-.41-.27-.81-.41-1.22s-.36-1.07-.55-1.6l-.49-1.29c-.19-.49-.37-1-.57-1.47s-.36-.87-.54-1.3l-.6-1.39-.6-1.29c-.21-.44-.42-.88-.64-1.32s-.42-.85-.64-1.27-.45-.85-.67-1.27l-.69-1.24c-.23-.41-.48-.81-.72-1.22s-.47-.8-.72-1.2-.51-.78-.76-1.17-.5-.78-.76-1.15-.58-.82-.87-1.22c-.48-.67-1-1.33-1.48-2l-.83-1.06c-.3-.36-.6-.71-.91-1.06s-.55-.65-.83-1-.63-.68-.94-1-.57-.6-.86-.89-.65-.65-1-1l-.88-.83c-.34-.31-.68-.62-1-.91s-.61-.52-.91-.77-.7-.58-1.05-.85l-.94-.71-1.08-.78-1-.64c-.37-.25-.74-.49-1.12-.72s-.65-.38-1-.57-.77-.45-1.16-.66-.62-.31-.92-.46c-.77-.39-1.54-.74-2.32-1.07l-1-.44-1.19-.42c-.29-.1-.58-.22-.88-.31l0,0a34,34,0,0,0-8-1.59c-27.17-2-53.37,30.56-56.06,66.63a73.08,73.08,0,0,0,1.89,23.39c0,.1,0,.2.08.3.18.7.36,1.4.57,2.09v0a59.64,59.64,0,0,0,2.21,6.28.5.5,0,0,0,.05.13c.26.62.53,1.24.8,1.84.05.11.1.22.16.33a55.79,55.79,0,0,0,3.91,7.1l.27.41c.31.48.64,1,1,1.41.12.16.24.32.35.49.34.46.67.91,1,1.36l.14.18c.72.92,1.46,1.8,2.23,2.66.11.14.23.27.35.41.33.36.67.71,1,1.06s.4.41.61.61.65.65,1,1l.69.64,1,.88.9.75c.5.42,1,.83,1.54,1.22l.94.71.92.64c.33.23.66.46,1,.67l.9.58,1.17.7.77.44c.62.35,1.26.69,1.9,1l.71.34,1.36.63.82.34c.45.19.9.37,1.36.54l.78.29.7.25.26.08.75.24.44.15.59.17.52.14,1.06.29.56.13.58.13,1.13.24.61.11.43.08c.44.08.89.14,1.33.21l.61.08.23,0c.73.09,1.45.17,2.18.22,12.21.91,24-3.47,33.55-11.84C94.64,154.86,120.89,171,152.7,166c.92-.15,1.83-.32,2.74-.49l.72-.15Q157.32,165.11,158.47,164.84Z"/>
        <g>
          <g>
            <path class="cls-4" d="M110.91,85c-2.7,36.07-27.86,60.21-55,58.18s-49-27.92-46.3-64S38.47,10.57,65.64,12.6,113.6,49,110.91,85Z"/>
            <g class="cls-5">
              <path class="cls-6" d="M73.63,14.17c9.19,8,22.74,27.61,20.75,57.08-2.5,37.09-29.83,56.13-49.45,55.34-14.66-.58-27.9-9.32-34-26.1,5.34,24.63,23.46,41.12,44.91,42.72,27.17,2,52.33-22.11,55-58.18C113.33,52.6,96.75,21.56,73.63,14.17Z"/>
            </g>
            <g class="cls-7">
              <path class="cls-8" d="M108.68,58.35c.67,7.83.16,18.06-5.32,25.37-9,12.06-15.64,20-17,37.06-1.18,15.1-24.94,27-48,17.49a45.67,45.67,0,0,0,17.49,4.94c27.17,2,52.33-22.11,55-58.18A85.83,85.83,0,0,0,108.68,58.35Z"/>
            </g>
          </g>
          <g>
            <g>
              <path class="cls-4" d="M152.7,166C119.84,171.2,92.9,153.77,89,129s14.65-49.78,47.52-55S204.08,85.39,208,110.14,185.57,160.77,152.7,166Z"/>
              <g class="cls-5">
                <path class="cls-9" d="M125.85,160.89c-24.68-7-33.75-22-37-33.14.06.42.11.84.17,1.26,3.93,24.76,30.87,42.19,63.73,37,22.88-3.63,42.58-17.27,51.14-33.57C187.52,153.22,155.26,169.26,125.85,160.89Z"/>
              </g>
            </g>
            <g class="cls-5">
              <path class="cls-6" d="M208,110.14a30.45,30.45,0,0,0-1.27-5.08c-.47,16.89-14.37,33.78-43.46,39.74-43.21,8.87-72.21-13.14-67.23-39.45,2.15-11.32,9.21-16,15.75-22.33C94.78,93.67,86.18,111.4,89,129c3.93,24.76,30.87,42.19,63.73,37S211.93,134.9,208,110.14Z"/>
            </g>
          </g>
        </g>
      </g>
    </g>
  </g>
</svg>
