<svg id="Layer_1" data-name="Layer 1" xmlns="http://www.w3.org/2000/svg" width="217.53" height="190.98" viewBox="0 0 217.53 190.98">
  <defs>
    <style>
      .cls-1, .cls-2 {
        fill: none;
        stroke-linejoin: round;
        stroke-width: 15px;
      }

      .cls-1 {
        stroke: #000;
        opacity: 0.5;
      }

      .cls-2 {
        stroke: #fff;
      }

      .cls-3 {
        fill: #a3998f;
      }

      .cls-4 {
        fill: #b3a79d;
      }

      .cls-5 {
        fill: #1a0000;
        opacity: 0.1;
      }

      .cls-6 {
        fill: #e6dcc9;
      }

      .cls-7 {
        fill: #64a13f;
      }

      .cls-8 {
        fill: #578d37;
      }

      .cls-9 {
        fill: #8cc63f;
      }

      .cls-10 {
        fill: #7bad37;
      }

      .cls-11 {
        fill: #dbccbf;
      }

      .cls-12 {
        fill: #ebdfce;
      }
    </style>
  </defs>
  <g>
    <path class="cls-1" d="M201,14.85C193,11,176,15.6,162,33.59a174.52,174.52,0,0,1-27.43,28.3,261.31,261.31,0,0,0-34.29-2.18c-1.68,0-3.35,0-5,0a101.14,101.14,0,0,1-5.54-22.11,78.38,78.38,0,0,0-18.47,22,25.51,25.51,0,0,0-2.93-2.63A109.5,109.5,0,0,1,44.85,31.73a84.41,84.41,0,0,0-7.53,36.43c-12.52,4.17-20.59,9.6-21.94,15.58l-.09.47-.14.06C11.26,122.42,31.56,142.33,38.81,156v0a6.82,6.82,0,0,0-.23,1.86c0,7.11,8.53,13.47,22,17.69C71.27,179,85.15,181,100.28,181c34.1,0,61.73-10.38,61.73-23.16a6.82,6.82,0,0,0-.22-1.86v0a115.61,115.61,0,0,0,23.63-70.43h0a9.19,9.19,0,0,0-1.67-5.1c-3.51-5.3-12.38-10-24.8-13.6,6.68-5,14.42-10.5,23.33-16.57C208.05,32.73,209.55,19,201,14.85ZM132.6,63.47h0c-4.87-.72-10-1.29-15.46-1.68C122.55,62.18,127.73,62.75,132.6,63.47ZM37.52,72.08h0l-.9.47Zm-3.41,2A25,25,0,0,0,32,75.61,25,25,0,0,1,34.11,74.05Zm138.45,6.59Zm-.38-.84,0,0Zm-14.42-10c-.59-.23-1.18-.45-1.8-.67C156.58,69.3,157.18,69.52,157.76,69.75ZM169,76l-.16-.15Zm-.91-.75-.29-.22Zm-1-.77-.36-.25Zm-1.16-.77-.38-.23ZM164,72.63c-.24-.13-.47-.27-.72-.39C163.57,72.36,163.8,72.5,164,72.63Zm-1.41-.74-.83-.41Zm-1.53-.73-.94-.43Zm-1.62-.72L158.35,70Z"/>
    <path class="cls-2" d="M197.18,11c-8.05-3.89-25,.75-39,18.74a174.94,174.94,0,0,1-27.43,28.3,261.47,261.47,0,0,0-34.3-2.18c-1.68,0-3.34,0-5,0A101.55,101.55,0,0,1,85.89,33.8a78.39,78.39,0,0,0-18.46,22,26.37,26.37,0,0,0-2.93-2.63A109.72,109.72,0,0,1,41,27.89a84.4,84.4,0,0,0-7.53,36.42C21,68.49,12.89,73.91,11.54,79.9c0,.15-.06.31-.09.47l-.14.06C7.42,118.58,27.72,138.49,35,152.12v0a7.23,7.23,0,0,0-.22,1.86c0,7.11,8.53,13.47,22,17.69,10.71,3.44,24.6,5.47,39.73,5.47,34.1,0,61.73-10.39,61.73-23.16a7.23,7.23,0,0,0-.22-1.86v0a115.68,115.68,0,0,0,23.63-70.43h0a9.15,9.15,0,0,0-1.68-5.11c-3.5-5.29-12.37-10-24.79-13.59,6.68-5,14.42-10.5,23.33-16.57C204.21,28.89,205.71,15.12,197.18,11ZM128.76,59.63h0c-4.87-.72-10-1.29-15.46-1.68C118.71,58.34,123.89,58.91,128.76,59.63ZM33.68,68.24h0l-.9.47Zm-3.41,2a23.5,23.5,0,0,0-2.13,1.56A23.5,23.5,0,0,1,30.27,70.21ZM168.72,76.8h0Zm-.39-.84,0,0Zm-14.41-10c-.59-.23-1.19-.45-1.8-.67C152.73,65.46,153.33,65.68,153.92,65.91Zm11.25,6.23L165,72Zm-.91-.74-.29-.22Zm-1-.77-.37-.25Zm-1.16-.77-.38-.23Zm-1.85-1.08-.72-.39Zm-1.41-.73-.83-.41Zm-1.53-.74-.95-.42Zm-1.62-.71-1.13-.46Z"/>
    <g>
      <path class="cls-3" d="M158.17,154c0,12.77-27.63,23.16-61.73,23.16-15.13,0-29-2-39.73-5.47-13.44-4.22-22-10.58-22-17.69a7.23,7.23,0,0,1,.22-1.86v0c2.56-11.88,29.1-21.27,61.48-21.27a147,147,0,0,1,30.38,3c17.35,3.69,29.46,10.44,31.13,18.27v0A7.23,7.23,0,0,1,158.17,154Z"/>
      <path class="cls-4" d="M181.58,81.68A115.65,115.65,0,0,1,158,152.12v0c-2.59,11-29.13,19.66-61.51,19.66a154.7,154.7,0,0,1-33.15-3.36c-3.11-.69-6.06-1.47-8.78-2.36-11-3.53-18.27-8.44-19.55-13.94v0c-7.24-13.63-27.54-33.54-23.65-71.69C58.09,60.88,110.77,64,147.76,71.85A215.77,215.77,0,0,1,181.58,81.68Z"/>
      <path class="cls-5" d="M158,152.15a7.23,7.23,0,0,1,.22,1.86c0,12.77-27.63,23.16-61.73,23.16-15.13,0-29-2-39.73-5.47l6.58-3.25c34.29-1.08,53-16.24,63.53-34.6,8.19-14.33,11.41-30.6,13.11-43.71a38.12,38.12,0,0,1,7.83-18.29,215.77,215.77,0,0,1,33.82,9.83A115.65,115.65,0,0,1,158,152.12Z"/>
      <path class="cls-4" d="M169.25,79.43c0,10-21.86,18.41-51.82,21.13-.5,0-1,.08-1.55.14-3.06.25-6.19.47-9.39.61s-6.63.19-10,.19c-4.08,0-8-.11-11.94-.3s-7.8-.5-11.49-.86c-28.72-3-49.38-11.2-49.38-20.91S43.74,61.71,71.84,58.66v0a227.44,227.44,0,0,1,24.6-1.28,221.68,221.68,0,0,1,32.32,2.28,123.36,123.36,0,0,1,23.36,5.61C162.81,69,169.25,74,169.25,79.43Z"/>
      <path class="cls-6" d="M23.63,79.43c0-9.58,20.11-17.72,48.21-20.77v0a227.44,227.44,0,0,1,24.6-1.28,221.68,221.68,0,0,1,32.32,2.28,123.36,123.36,0,0,1,23.36,5.61c8.93,3.18,14.88,7.17,16.6,11.56l11.18-.23c-7.81-11.81-42.2-20.7-83.46-20.7-45,0-81.88,10.6-84.9,24l12.13-.24A2.23,2.23,0,0,1,23.63,79.43Z"/>
      <path class="cls-5" d="M84.5,101.2C50,99.47,23.63,90.39,23.63,79.43c0-9.58,20.11-17.72,48.21-20.77C66.45,68.29,63.79,86.9,84.5,101.2Z"/>
      <g>
        <path class="cls-7" d="M82,103.13a.81.81,0,0,1-.18.1.75.75,0,0,1-.17.1l-.47.22a15.59,15.59,0,0,1-16.44-2.06,11.7,11.7,0,0,1-4.14-6.2l-.15-.72a5.5,5.5,0,0,1-.15-.77c-.3-1.34-.5-2.68-.67-4a5.13,5.13,0,0,0-.05-.65c0-.27,0-.52-.07-.79a42.85,42.85,0,0,1-.1-6.5,21.64,21.64,0,0,1,.17-2.29A51.65,51.65,0,0,1,61.14,71a60.37,60.37,0,0,1,2.31-6.92,66.47,66.47,0,0,1,4-8.22,78.39,78.39,0,0,1,18.46-22,102.3,102.3,0,0,0,9.26,30.75C102.7,79.87,91.75,98.14,82,103.13Z"/>
        <path class="cls-8" d="M80.31,80.94c-.08,0-.2,0-.27,0,.14,2.21.32,4.42.37,6.66A78.11,78.11,0,0,0,82,103.13a17.76,17.76,0,0,0,.42,1.86.37.37,0,0,1-.17.37.3.3,0,0,1-.38-.12,17.15,17.15,0,0,1-.69-1.69,34.17,34.17,0,0,1-1.67-10.5c-.05-1-.07-2-.12-3-.25-6.46-1.09-12.94-.79-19.41a150,150,0,0,1,2.11-17.11c.82-5.26,1.66-12,4.94-16.33.17-.23.57,0,.39.25-2.63,4.84-3.6,10.94-4.39,16.36-.4,2.87-.87,5.8-1.27,8.73A33.4,33.4,0,0,0,85.08,57,20.35,20.35,0,0,0,88,49.39s.07,0,.07,0a16.48,16.48,0,0,1-7.54,14.39.56.56,0,0,1-.28,0,69.46,69.46,0,0,0-.59,7.87c0,2.81.12,5.61.32,8.42,5-4.12,9.68-8.24,12.86-14a.37.37,0,0,1,.67.3A25.41,25.41,0,0,1,80.31,80.94Z"/>
        <path class="cls-8" d="M75.17,59.56a32,32,0,0,1-2.27-7.34c-.09-.49-.79-.34-.82.11-.26,4.43,2.44,9.63,5,13.11.28.37,1,.17.84-.35C77.15,63.16,76,61.43,75.17,59.56Z"/>
        <path class="cls-8" d="M76.32,74c-2.58-3.2-7.1-6.37-7.72-10.65,0-.16-.26-.11-.27,0-.06,2.16,1,3.53,2.17,5.26a28.41,28.41,0,0,0,5.32,5.84A.35.35,0,0,0,76.32,74Z"/>
        <path class="cls-8" d="M77.82,83.79c-2.17-1.13-4.39-1.76-6.43-3.2a27.9,27.9,0,0,1-7.07-6.5c-.17-.23-.54,0-.39.23a22.3,22.3,0,0,0,13.59,10.2C77.94,84.61,78.24,84,77.82,83.79Z"/>
        <path class="cls-8" d="M76.31,92.52A44.59,44.59,0,0,1,61.1,86.17c-.17-.11-.31.15-.16.27,4.41,3.31,9.62,6.39,15.29,6.69A.31.31,0,0,0,76.31,92.52Z"/>
        <path class="cls-8" d="M77,96.2a22.42,22.42,0,0,1-11.82.85c-.35-.07-.51.46-.15.54a17.3,17.3,0,0,0,12.12-1A.2.2,0,0,0,77,96.2Z"/>
        <path class="cls-8" d="M90,58.89c-1,1.88-1.81,3.94-2.93,5.72a35.39,35.39,0,0,1-4.45,5.17.56.56,0,0,0,.67.87C87.62,68.23,89,63.54,91,59.43,91.26,58.81,90.35,58.27,90,58.89Z"/>
        <path class="cls-8" d="M95.22,74.49c-2,6.68-8.64,10.83-13,15.8-.36.41.1,1.13.61.8,5.55-3.6,12.09-9.57,12.57-16.57A.1.1,0,0,0,95.22,74.49Z"/>
      </g>
      <g>
        <path class="cls-9" d="M75.42,77v0a41.85,41.85,0,0,1-.3,5.53c-.05.4-.1.77-.15,1.17a35.71,35.71,0,0,1-2.13,7.92l-.38.89A22.26,22.26,0,0,1,70,96.75l-.25.32-.34.43h0a4.36,4.36,0,0,1-.59.67,15.88,15.88,0,0,1-4.08,3.32c-7,4.05-15.49,2.19-19.09-2.26C38,89.82,34.56,79,33.69,68.4A83.63,83.63,0,0,1,41,27.89,109.72,109.72,0,0,0,64.5,53.21a26.37,26.37,0,0,1,2.93,2.63,29.93,29.93,0,0,1,7.64,16.71c.05.47.13.92.15,1.39C75.34,75,75.39,76,75.42,77Z"/>
        <path class="cls-10" d="M63.77,55.78a.41.41,0,0,0-.81,0C62.63,62.9,60,69.11,57.19,75.44c-1.53-2.61-3-5.24-4.31-8a84.3,84.3,0,0,1-3.14-7.9.47.47,0,0,0,.25-.18,17.72,17.72,0,0,0,.47-17.47s-.07,0-.06,0a21.75,21.75,0,0,1,.79,8.75,36.48,36.48,0,0,1-1.93,7.51c-1-3-1.94-6-2.91-9-1.79-5.6-3.75-12-3.48-17.88a.26.26,0,0,0-.52,0C41.24,37,43.61,43.88,45.3,49.36a168.7,168.7,0,0,0,6.05,17.53c2.77,6.37,6.65,12.24,9.94,18.36,2.67,4.94,5.13,10,9.6,13.54.29.24.65-.21.42-.48A82.47,82.47,0,0,1,61.16,82.46c-1.11-2.12-2.32-4.19-3.52-6.25a.45.45,0,0,0,.27-.16A27.32,27.32,0,0,0,63.77,55.78Z"/>
        <path class="cls-10" d="M42.83,57.84a34,34,0,0,1-5.66-6c-.32-.42-.92,0-.74.5,1.84,4.4,6.9,8.15,11,10.3.44.23,1.08-.33.64-.73C46.45,60.38,44.55,59.24,42.83,57.84Z"/>
        <path class="cls-10" d="M50.75,71.21c-4-1.87-9.87-2.8-12.49-6.64-.1-.14-.31,0-.24.16,1,2.13,2.61,3,4.58,4.06a30.43,30.43,0,0,0,7.9,3.13A.38.38,0,0,0,50.75,71.21Z"/>
        <path class="cls-10" d="M56.85,80c-2.63-.06-5.07.38-7.73,0A30,30,0,0,1,39.22,77c-.27-.14-.53.23-.27.4A24,24,0,0,0,56.9,80.84C57.35,80.73,57.35,80,56.85,80Z"/>
        <path class="cls-10" d="M59.51,89.15a48.33,48.33,0,0,1-17.69,1c-.22,0-.23.3,0,.33,5.82,1.11,12.31,1.62,17.92-.76A.33.33,0,0,0,59.51,89.15Z"/>
        <path class="cls-10" d="M61.87,92.39a24,24,0,0,1-11,6.41c-.38.1-.27.69.11.6,4.67-1.09,8.22-3,11.23-6.72C62.35,92.48,62.05,92.22,61.87,92.39Z"/>
        <path class="cls-10" d="M56.87,50.16c0,2.27.13,4.67-.12,6.91a38.62,38.62,0,0,1-1.85,7.1A.6.6,0,0,0,56,64.7C59,60.34,58,55.18,58,50.25,58,49.51,56.88,49.42,56.87,50.16Z"/>
        <path class="cls-10" d="M69.25,62.79c1.23,7.39-3.22,14.54-5.07,21.4-.15.57.63,1,1,.48,3.65-6.1,7.15-15,4.3-22A.11.11,0,0,0,69.25,62.79Z"/>
      </g>
      <path class="cls-5" d="M82.25,105.36a.3.3,0,0,1-.38-.12,17.15,17.15,0,0,1-.69-1.69,15.59,15.59,0,0,1-16.44-2.06c-7,4.05-15.49,2.19-19.09-2.26C38,89.82,34.56,79,33.69,68.4a1.2,1.2,0,0,0,0-.17C37.36,81.91,52.93,90,59.51,88.36A3.73,3.73,0,0,0,61.74,87,1,1,0,0,0,62,86.7s0,0,0-.08a1.71,1.71,0,0,0,.23-.47,15.17,15.17,0,0,0,1.56,1.17c2,1.31,5.51,2.88,7.57-.23a25.88,25.88,0,0,0,2.14-4c.15-.38.3-.72.44-1.07a34.59,34.59,0,0,0,1.47-5c.1.32.77,2.87,1.69,6.42.07.35.17.7.27,1,.65,2.58,1.41,5.58,2.13,8.56.9,3.68,1.74,7.32,2.31,10.18C82,104,82.12,104.72,82.25,105.36Z"/>
      <path class="cls-5" d="M72.59,98.78a11.27,11.27,0,0,0,3.08,1.8L73,100.34A15,15,0,0,1,72.59,98.78Z"/>
      <path class="cls-11" d="M178.44,46.41c-10.28,7-19,13.25-26.32,18.83C128.6,83.09,119.24,94,117.43,100.56c-.5,0-1,.08-1.55.14-3.06.25-6.19.47-9.39.61l-1.22-.7C95.91,95.2,84.5,87.15,84.5,87.15l7.64-11.78c4,2.75,18.77-1.78,36.62-15.74a173.25,173.25,0,0,0,29.41-29.88c14-18,31-22.63,39-18.74C205.71,15.12,204.21,28.89,178.44,46.41Z"/>
      <path class="cls-12" d="M115.88,100.7c-6.19.52-12.69.8-19.44.8-3.61,0-7.16-.08-10.61-.25-.44,0-.88,0-1.33,0-3-.14-6-.37-8.83-.62L73,100.34a15,15,0,0,1-.42-1.56c-2.25-9-.42-17.94,5.22-23.55,6.64-6.63,18.85,1.28,28.38,11.92A74.68,74.68,0,0,1,115.88,100.7Z"/>
      <path class="cls-5" d="M197.18,11v0c5.19,13.05-15.6,28.44-48.56,49.1-28.3,17.72-37.54,24.69-40.15,29.71-.75-.91-1.5-1.81-2.28-2.69-2,6.74-11.44,12.63-20.36,14.1,3.45.17,7,.25,10.61.25q5.11,0,10-.21l0,0c3.2-.14,6.33-.36,9.39-.61.53-.06,1.05-.09,1.55-.14,1.81-6.53,11.17-17.47,34.69-35.32,7.33-5.58,16-11.83,26.32-18.83C204.21,28.89,205.71,15.12,197.18,11Z"/>
      <path class="cls-6" d="M168.72,76.8a7.14,7.14,0,0,1,.53,2.63c0,10-21.86,18.41-51.82,21.13-.5,0-1,.08-1.55.14-3.06.25-6.19.47-9.39.61s-6.63.19-10,.19c-4.08,0-8-.11-11.94-.3s-7.8-.5-11.49-.87c-28.48-2.94-49-11-49.34-20.67l-12.13.24a7.69,7.69,0,0,0-.23,1.78c0,14.26,38.12,25.82,85.13,25.82s85.14-11.56,85.14-25.82a9.18,9.18,0,0,0-1.68-5.11Z"/>
    </g>
  </g>
</svg>
