<svg id="Layer_1" data-name="Layer 1" xmlns="http://www.w3.org/2000/svg" xmlns:xlink="http://www.w3.org/1999/xlink" width="185.87" height="157.43" viewBox="0 0 185.87 157.43">
  <defs>
    <style>
      .cls-1 {
        fill: #050505;
        opacity: 0.5;
      }

      .cls-2 {
        fill: #fff;
      }

      .cls-3 {
        fill: #b246af;
      }

      .cls-4 {
        fill: url(#linear-gradient);
      }

      .cls-5 {
        fill: #8e2b00;
      }

      .cls-6 {
        fill: #bc64b5;
      }

      .cls-7 {
        fill: #b750ad;
      }

      .cls-8 {
        fill: #cb88c5;
        stroke: #773e77;
        stroke-miterlimit: 10;
        stroke-width: 2px;
      }

      .cls-9 {
        fill: url(#linear-gradient-2);
      }

      .cls-10 {
        fill: #3788a8;
      }

      .cls-11 {
        fill: url(#linear-gradient-3);
      }

      .cls-12 {
        fill: url(#linear-gradient-4);
      }

      .cls-13 {
        fill: #5e6061;
      }

      .cls-14 {
        fill: #014187;
      }
    </style>
    <linearGradient id="linear-gradient" x1="55.68" y1="29.92" x2="95.18" y2="48.22" gradientUnits="userSpaceOnUse">
      <stop offset="0.08" stop-color="#db6a56"/>
      <stop offset="0.33" stop-color="#de724c"/>
      <stop offset="0.66" stop-color="#bc59a1"/>
      <stop offset="0.88" stop-color="#8a74c3"/>
    </linearGradient>
    <linearGradient id="linear-gradient-2" x1="77.63" y1="121.66" x2="77.63" y2="69.02" gradientUnits="userSpaceOnUse">
      <stop offset="0.13" stop-color="#fff"/>
      <stop offset="0.24" stop-color="#d9f2fa"/>
      <stop offset="0.44" stop-color="#9fddf3"/>
      <stop offset="0.62" stop-color="#70cded"/>
      <stop offset="0.78" stop-color="#4fc1e9"/>
      <stop offset="0.91" stop-color="#3abae6"/>
      <stop offset="1" stop-color="#33b7e5"/>
    </linearGradient>
    <linearGradient id="linear-gradient-3" x1="119.26" y1="55.43" x2="147.97" y2="68.73" xlink:href="#linear-gradient"/>
    <linearGradient id="linear-gradient-4" x1="135.21" y1="122.1" x2="135.21" y2="83.84" xlink:href="#linear-gradient-2"/>
  </defs>
  <g>
    <path class="cls-1" d="M103,155.09c-20.77,0-59.07-5.79-82.11-44.53-32.88-55.28-.48-99.38.92-101.23a9.65,9.65,0,0,1,17.29,4.72c.4,3.52.68,7.06.92,10.54A20,20,0,0,1,47,23.11l.72,0a16.61,16.61,0,0,1,9.58,3.09,19,19,0,0,1,6.51-3.56l1-.32a17.13,17.13,0,0,1,2.39-2,26.75,26.75,0,0,1,9.17-3.85,9.72,9.72,0,0,1,3.09-.51h.4a9.83,9.83,0,0,1,3.1.51,26.79,26.79,0,0,1,9.16,3.85,16,16,0,0,1,2.39,2l1,.32A19,19,0,0,1,102,26.13a18.71,18.71,0,0,1,9.88-3l.74,0c8.81,0,16.54,7.18,16.54,15.36,0,1.32,0,2.45-.14,3.46a10.17,10.17,0,0,1-.3,4,23.85,23.85,0,0,1,5.35-1.9A9.67,9.67,0,0,1,137,43.5h.29a9.67,9.67,0,0,1,2.94.46,21.58,21.58,0,0,1,7.49,3.19l0,0c2.76-3.72,6.83-5.73,12.12-6l.67,0c8.07,0,14.89,6.41,14.89,14,0,1,0,1.81-.1,2.58a10,10,0,0,1-.66,4.67,10.6,10.6,0,0,1-.83,1.65v42.47a9.66,9.66,0,0,1,4.58,15.11c-9.1,11.62-22.75,20.83-41.74,28.17C130.41,152.26,117.85,155.09,103,155.09Z"/>
    <g>
      <path class="cls-2" d="M101.44,149.37c-20.25,0-57.56-5.63-80-43.3-32-53.85-.59-96.65.77-98.45a7.15,7.15,0,0,1,12.81,3.5c.43,3.78.71,7.55.91,10.42L36.2,25l3.23-1.37a17.71,17.71,0,0,1,6.09-1.28l.6,0A14.35,14.35,0,0,1,54.27,25l1.55,1.1,1.47-1.21a16.63,16.63,0,0,1,5.65-3.1l1-.32.6-.2.44-.45a13.67,13.67,0,0,1,2-1.72,24.34,24.34,0,0,1,8.28-3.46l.12,0,.12,0a6.88,6.88,0,0,1,2.29-.38h.4a6.88,6.88,0,0,1,2.29.38l.12,0,.13,0a24.18,24.18,0,0,1,8.28,3.45,13.67,13.67,0,0,1,2,1.72l.43.46.61.19,1,.32a16.5,16.5,0,0,1,5.6,3.07L100.24,26,101.78,25a16.39,16.39,0,0,1,8.59-2.59l.62,0c7.48,0,14,6,14,12.86,0,1.26,0,2.31-.13,3.22l0,.27,0,.27a7.74,7.74,0,0,1-.23,3l-1.53,5.48,5.08-2.59A21.23,21.23,0,0,1,133,43.18l.1,0,.1,0a7.35,7.35,0,0,1,2.18-.34h.29a7.35,7.35,0,0,1,2.18.34l.1,0,.1,0A19.45,19.45,0,0,1,144.66,46l2,1.42,1.5-1.94c2.32-3.12,5.67-4.75,10.23-5h.55c6.71,0,12.39,5.26,12.39,11.49,0,.91,0,1.69-.09,2.38l0,.22,0,.23a7.53,7.53,0,0,1-.49,3.51,8,8,0,0,1-.63,1.24l-.38.61v45l1.72.56a7.15,7.15,0,0,1,3.39,11.19c-8.81,11.26-22.11,20.21-40.67,27.38C128.1,146.63,115.89,149.37,101.44,149.37Z"/>
      <path class="cls-2" d="M27.94,7.28a4.62,4.62,0,0,1,4.62,4.12c.43,3.73.71,7.47.9,10.31l.49,7L40.4,26a15.22,15.22,0,0,1,5.23-1.08l.49,0a11.79,11.79,0,0,1,6.71,2.18l3.1,2.18,2.94-2.4a14.17,14.17,0,0,1,4.79-2.64l1.09-.34,1.2-.39.87-.91a11.79,11.79,0,0,1,1.68-1.42,21.48,21.48,0,0,1,7.39-3.05l.25-.06.24-.08a4.68,4.68,0,0,1,1.48-.24h.4a4.7,4.7,0,0,1,1.49.24L80,18l.24.06a21.54,21.54,0,0,1,7.4,3.06,11.12,11.12,0,0,1,1.67,1.41l.87.91,1.2.39,1.1.34a14,14,0,0,1,4.74,2.61l2.9,2.35,3.08-2.1a13.81,13.81,0,0,1,7.29-2.16l.51,0c6,0,11.54,4.94,11.54,10.36,0,1.18,0,2.15-.12,3l0,.54.07.54a5.23,5.23,0,0,1-.15,2l-3.07,11,10.15-5.17a18.9,18.9,0,0,1,4.21-1.49l.2,0,.2-.07a4.83,4.83,0,0,1,1.41-.22h.29a4.89,4.89,0,0,1,1.42.22l.19.07.2,0A16.41,16.41,0,0,1,143.23,48l4,2.87,2.93-4c1.85-2.48,4.57-3.78,8.33-3.95h.44c5.27,0,9.89,4.2,9.89,9,0,.84,0,1.55-.08,2.17l0,.45.05.45a5.06,5.06,0,0,1-.34,2.34,4.8,4.8,0,0,1-.42.85l-.76,1.22V107l3.44,1.13a4.66,4.66,0,0,1,2.2,7.28c-8.52,10.89-21.48,19.58-39.6,26.59-5.87,2.26-17.72,4.91-31.83,4.91-19.72,0-56-5.47-77.82-42.08-31.18-52.42-.7-93.92.61-95.66a4.67,4.67,0,0,1,3.71-1.85m0-5a9.64,9.64,0,0,0-7.7,3.84c-1.4,1.85-33.79,46-.92,101.23,23,38.73,61.34,44.52,82.12,44.52,14.8,0,27.36-2.83,33.63-5.25,19-7.34,32.64-16.55,41.74-28.17a9.64,9.64,0,0,0-4.58-15.1V60.87a9.79,9.79,0,0,0,.83-1.65,10,10,0,0,0,.66-4.66c.07-.78.1-1.63.1-2.59,0-7.59-6.82-14-14.89-14h-.67c-5.29.25-9.36,2.25-12.11,6l-.05,0a21.5,21.5,0,0,0-7.49-3.19,9.67,9.67,0,0,0-2.94-.46h-.29a9.67,9.67,0,0,0-2.94.46,23.92,23.92,0,0,0-5.35,1.91,10.21,10.21,0,0,0,.3-4c.1-1,.14-2.14.14-3.46,0-8.18-7.73-15.36-16.54-15.36l-.74,0a18.71,18.71,0,0,0-9.88,3,19.06,19.06,0,0,0-6.46-3.52l-1-.31a16,16,0,0,0-2.39-2,26.79,26.79,0,0,0-9.16-3.85,9.51,9.51,0,0,0-3.1-.51h-.4a9.49,9.49,0,0,0-3.09.51,26.51,26.51,0,0,0-9.16,3.85,14.92,14.92,0,0,0-2.39,2l-1,.31A19.08,19.08,0,0,0,55.7,23a16.68,16.68,0,0,0-9.58-3.09l-.72,0a20,20,0,0,0-6.95,1.48c-.24-3.48-.52-7-.92-10.53a9.64,9.64,0,0,0-9.59-8.56Z"/>
    </g>
    <g>
      <g>
        <rect class="cls-3" x="58.87" y="50.1" width="38.33" height="5.26"/>
        <path class="cls-4" d="M91.12,28.64c-6-1.8-3.48-1.8-6.18-3.71a19.07,19.07,0,0,0-6.69-2.52s0-.07,0-.06l-.2,0-.19,0a.45.45,0,0,0,0,.06,19.11,19.11,0,0,0-6.7,2.52C68.49,26.84,71,26.84,65,28.64S52.53,41.11,58.94,50.15H97.19C103.59,41.11,97.08,30.43,91.12,28.64Z"/>
        <g>
          <path class="cls-5" d="M62,32.33A12.7,12.7,0,0,0,59.16,36a11.87,11.87,0,0,0-1.26,4.43,14.05,14.05,0,0,0,.46,4.6,23.13,23.13,0,0,0,.72,2.23l1,2.16c-.41-.68-.8-1.37-1.18-2.06s-.65-1.46-.86-2.23a13.55,13.55,0,0,1-.59-4.74A11.08,11.08,0,0,1,62,32.33Z"/>
          <path class="cls-5" d="M64.91,31.39a14.14,14.14,0,0,0-2.58,4.09,13.57,13.57,0,0,0-1,4.66,15.34,15.34,0,0,0,.53,4.76,23.66,23.66,0,0,0,.74,2.3c.31.76.67,1.48,1,2.24-.42-.7-.83-1.41-1.21-2.14a22.78,22.78,0,0,1-.89-2.3l-.33-1.19c-.1-.4-.13-.81-.2-1.22a7.32,7.32,0,0,1-.12-1.23c0-.42,0-.83,0-1.25A13.06,13.06,0,0,1,62,35.32,11.84,11.84,0,0,1,64.91,31.39Z"/>
          <path class="cls-5" d="M68,31.18a20.86,20.86,0,0,0-1.52,4.38,26.37,26.37,0,0,0-.68,4.58,28.64,28.64,0,0,0,.08,4.63,45,45,0,0,0,.69,4.61c-.23-.74-.46-1.49-.65-2.25s-.34-1.53-.42-2.31a25.58,25.58,0,0,1-.2-4.71,23.48,23.48,0,0,1,.81-4.64A15.41,15.41,0,0,1,68,31.18Z"/>
          <path class="cls-5" d="M71.71,31.18c-.17,1.51-.24,3-.29,4.55s0,3,0,4.55c.06,3,.33,6.06.6,9.1-.33-1.49-.58-3-.76-4.51s-.27-3-.34-4.58,0-3.06.1-4.58A27.5,27.5,0,0,1,71.71,31.18Z"/>
          <path class="cls-5" d="M94.57,32.33a11.08,11.08,0,0,1,4.6,8.08,13.55,13.55,0,0,1-.58,4.74c-.22.77-.58,1.49-.87,2.23s-.77,1.38-1.17,2.06l1-2.16c.23-.75.55-1.47.72-2.23a14.32,14.32,0,0,0,.45-4.6A11.5,11.5,0,0,0,97.41,36,12.53,12.53,0,0,0,94.57,32.33Z"/>
          <path class="cls-5" d="M91.67,31.39a11.81,11.81,0,0,1,2.92,3.93,13.27,13.27,0,0,1,1.21,4.79c0,.42,0,.83,0,1.25a7.32,7.32,0,0,1-.12,1.23c-.06.41-.1.82-.19,1.22L95.13,45a20.63,20.63,0,0,1-.89,2.3c-.38.73-.79,1.44-1.2,2.14.31-.76.68-1.48,1-2.24a21.21,21.21,0,0,0,.74-2.3,15.66,15.66,0,0,0,.54-4.76,13.58,13.58,0,0,0-1.06-4.66A14.11,14.11,0,0,0,91.67,31.39Z"/>
          <path class="cls-5" d="M88.59,31.18a15.73,15.73,0,0,1,1.9,4.29,23.47,23.47,0,0,1,.8,4.64,25.58,25.58,0,0,1-.19,4.71c-.08.78-.29,1.54-.43,2.31s-.42,1.51-.65,2.25a40.05,40.05,0,0,0,.69-4.61,28.52,28.52,0,0,0-.59-9.21A20.89,20.89,0,0,0,88.59,31.18Z"/>
          <path class="cls-5" d="M84.87,31.18a28.59,28.59,0,0,1,.66,4.53c.12,1.52.12,3,.11,4.58s-.16,3.06-.35,4.58-.43,3-.75,4.51c.26-3,.53-6.06.6-9.1,0-1.52,0-3,0-4.55S85,32.69,84.87,31.18Z"/>
          <path class="cls-5" d="M78.34,31c.22,3,.24,6.1.28,9.15s0,6.11-.22,9.16c-.22-3.05-.24-6.1-.28-9.15S78.15,34,78.34,31Z"/>
        </g>
        <rect class="cls-6" x="49.99" y="53.22" width="55.28" height="68.44"/>
        <rect class="cls-7" x="55.57" y="60.13" width="44.12" height="54.62"/>
        <rect class="cls-8" x="58.23" y="63.42" width="38.8" height="58.57"/>
        <rect class="cls-9" x="60.62" y="69.02" width="34.02" height="52.65"/>
        <path class="cls-10" d="M89.75,90.48c-3.67-2.71-12-5.27-12.45-7.51v-.14a.15.15,0,0,1,0,.07s0,0,0-.07V83c-.43,2.24-8.77,4.8-12.44,7.51s-3.24,8.29-3.24,8.29v25.69c-.13-.16,15.23-.48,15.69-.49s15.82.33,15.7.49V98.77S93.49,93.24,89.75,90.48Zm-1.7,15v17.6c.09-.11-10.44-.32-10.76-.33s-10.84.22-10.75.33v-17.6s-.35-3.79,2.22-5.69,8.23-3.61,8.53-5.14v-.05a.06.06,0,0,0,0,0v.09c.3,1.53,6,3.29,8.53,5.14S88.05,105.51,88.05,105.51Z"/>
        <path class="cls-10" d="M83.25,106.55c-1.75-1.35-5.74-2.62-6-3.74v-.07a0,0,0,0,1,0,0v0c-.21,1.12-4.2,2.39-6,3.74s-1.55,4.13-1.55,4.13v12.79c-.06-.08,7.29-.24,7.51-.24s7.57.16,7.51.24V110.68S85,107.92,83.25,106.55ZM82.44,114v8.77s-5-.16-5.15-.17-5.18.12-5.14.17V114a3.51,3.51,0,0,1,1.06-2.83c1.2-.92,3.94-1.79,4.08-2.56v0c.14.77,2.88,1.64,4.08,2.56A3.55,3.55,0,0,1,82.44,114Z"/>
      </g>
      <g>
        <rect class="cls-3" x="121.58" y="70.09" width="27.85" height="3.83"/>
        <path class="cls-11" d="M145,54.5c-4.33-1.3-2.53-1.3-4.49-2.69A13.69,13.69,0,0,0,135.66,50a.12.12,0,0,1,0,0l-.14,0-.15,0s0,0,0,0a13.66,13.66,0,0,0-4.86,1.83c-2,1.39-.17,1.39-4.49,2.69s-9.06,9.06-4.41,15.63h27.79C154.08,63.56,149.34,55.81,145,54.5Z"/>
        <g>
          <path class="cls-5" d="M123.86,57.18a8.67,8.67,0,0,0-2.11,2.67,8.47,8.47,0,0,0-.93,3.23,10.05,10.05,0,0,0,.35,3.36c.12.55.36,1.08.53,1.62l.72,1.56-.83-1.51c-.2-.54-.46-1.06-.61-1.62a10.16,10.16,0,0,1-.41-3.43A8.15,8.15,0,0,1,123.86,57.18Z"/>
          <path class="cls-5" d="M126,56.51a10.17,10.17,0,0,0-2.7,6.35,11.33,11.33,0,0,0,.4,3.47,16.36,16.36,0,0,0,.56,1.67c.23.55.49,1.08.74,1.62-.28-.52-.58-1-.85-1.57a14,14,0,0,1-.63-1.67,10.81,10.81,0,0,1-.47-3.54A9.32,9.32,0,0,1,126,56.51Z"/>
          <path class="cls-5" d="M128.2,56.35a13.83,13.83,0,0,0-1.15,3.17,18.84,18.84,0,0,0-.5,3.34,20,20,0,0,0,.07,3.37,27.17,27.17,0,0,0,.54,3.35c-.14-.55-.31-1.09-.44-1.65s-.24-1.11-.3-1.68a18.47,18.47,0,0,1-.12-3.41A14.46,14.46,0,0,1,128.2,56.35Z"/>
          <path class="cls-5" d="M130.91,56.35a33.08,33.08,0,0,0-.25,3.3c0,1.11,0,2.21,0,3.31.06,2.21.26,4.41.5,6.62-.21-1.09-.39-2.19-.51-3.29s-.19-2.21-.24-3.32A29.39,29.39,0,0,1,130.91,56.35Z"/>
          <path class="cls-5" d="M147.52,57.18a8.15,8.15,0,0,1,3.29,5.88,10.16,10.16,0,0,1-.41,3.43c-.15.56-.41,1.08-.61,1.62L149,69.62l.71-1.56a16.19,16.19,0,0,0,.54-1.62,10.32,10.32,0,0,0,.35-3.36,8.31,8.31,0,0,0-.94-3.23A8.63,8.63,0,0,0,147.52,57.18Z"/>
          <path class="cls-5" d="M145.41,56.51a9.32,9.32,0,0,1,3,6.33,10.81,10.81,0,0,1-.47,3.54c-.15.58-.43,1.12-.63,1.67s-.57,1-.85,1.57c.24-.54.51-1.07.74-1.62a14.18,14.18,0,0,0,.55-1.67,11.34,11.34,0,0,0,.41-3.47,9.93,9.93,0,0,0-.79-3.4A9.72,9.72,0,0,0,145.41,56.51Z"/>
          <path class="cls-5" d="M143.18,56.35a14.46,14.46,0,0,1,1.9,6.49,18.47,18.47,0,0,1-.13,3.41c0,.57-.19,1.12-.29,1.68s-.3,1.1-.44,1.65a29.21,29.21,0,0,0,.54-3.35,20,20,0,0,0,.07-3.37,18.84,18.84,0,0,0-.5-3.34A14.84,14.84,0,0,0,143.18,56.35Z"/>
          <path class="cls-5" d="M140.47,56.35A28.81,28.81,0,0,1,141,63c0,1.11-.1,2.22-.23,3.32s-.3,2.2-.51,3.29c.24-2.21.44-4.41.49-6.62,0-1.1,0-2.2,0-3.31A33.08,33.08,0,0,0,140.47,56.35Z"/>
          <path class="cls-5" d="M135.73,56.19c.11,2.21.12,4.43.15,6.65s0,4.44-.11,6.66c-.11-2.22-.12-4.44-.14-6.66S135.63,58.41,135.73,56.19Z"/>
        </g>
        <rect class="cls-6" x="115.13" y="72.37" width="40.17" height="49.73"/>
        <rect class="cls-7" x="119.18" y="77.39" width="32.06" height="39.69"/>
        <rect class="cls-8" x="121.12" y="79.78" width="28.19" height="42.56"/>
        <rect class="cls-12" x="122.85" y="83.84" width="24.72" height="38.25"/>
        <path class="cls-10" d="M144,99.44c-2.67-2-8.73-3.83-9-5.46v-.1a.43.43,0,0,1,0,.05.43.43,0,0,1,0-.05V94c-.32,1.63-6.38,3.49-9,5.46s-2.36,6-2.36,6v18.67c-.09-.12,11.07-.35,11.41-.35s11.49.23,11.4.35V105.46S146.74,101.45,144,99.44Zm-1.23,10.92v12.79c.06-.08-7.59-.24-7.82-.24s-7.88.16-7.82.24V110.36s-.25-2.75,1.61-4.13,6-2.62,6.2-3.74v-.07s0,0,0,0v0c.22,1.12,4.37,2.39,6.2,3.74S142.79,110.36,142.79,110.36Z"/>
        <path class="cls-10" d="M139.3,111.11c-1.28-1-4.18-1.9-4.33-2.71v0a0,0,0,0,1,0,0v.05c-.15.81-3.05,1.73-4.32,2.71a3.77,3.77,0,0,0-1.13,3v9.29c0-.06,5.3-.17,5.46-.17s5.5.11,5.46.17v-9.29A3.77,3.77,0,0,0,139.3,111.11Zm-.59,5.44v6.38s-3.63-.12-3.74-.13-3.77.09-3.74.13v-6.38a2.54,2.54,0,0,1,.77-2c.87-.68,2.86-1.31,3-1.87v0c.1.56,2.09,1.19,3,1.87A2.54,2.54,0,0,1,138.71,116.55Z"/>
      </g>
      <g>
        <path class="cls-13" d="M39.17,39.63s-1.31-4.11-.06-6.42c1.37-2.52,3.32-3.52,6.73-3.68s6.89,2.63,6.89,5.47-.26,3.84-.58,4.52S39.17,39.63,39.17,39.63Z"/>
        <path class="cls-13" d="M39.59,40.52s-2-1.26.37-2.52a11.3,11.3,0,0,1,5.67-1.16c.9,0,5.53.42,6.79,2S49.79,40.68,49,40.73,42.69,41.62,39.59,40.52Z"/>
        <path class="cls-13" d="M50.73,117.55H40.32V39.63s0-2.42,5-2.42,5.36,2.42,5.36,2.42Z"/>
      </g>
      <g>
        <path class="cls-13" d="M103.73,40.06s-1.36-4.28,0-6.69c1.43-2.63,3.45-3.68,7-3.84s7.18,2.74,7.18,5.7-.27,4-.6,4.72S103.73,40.06,103.73,40.06Z"/>
        <path class="cls-13" d="M104.17,41s-2-1.31.39-2.63a11.86,11.86,0,0,1,5.92-1.21c.93,0,5.76.44,7.07,2.14s-2.74,1.87-3.56,1.92S107.41,42.14,104.17,41Z"/>
        <path class="cls-13" d="M115.8,121.33H104.94V40.06s0-2.52,5.27-2.52,5.59,2.52,5.59,2.52Z"/>
      </g>
      <g>
        <path class="cls-13" d="M153.41,55.64s-1-3.26,0-5.09c1.08-2,2.63-2.79,5.34-2.92s5.46,2.09,5.46,4.34a8.32,8.32,0,0,1-.46,3.58C163.46,56.1,153.41,55.64,153.41,55.64Z"/>
        <path class="cls-13" d="M153.74,56.35s-1.54-1,.3-2a8.93,8.93,0,0,1,4.5-.92c.71,0,4.38.33,5.38,1.62s-2.09,1.42-2.71,1.46S156.2,57.22,153.74,56.35Z"/>
        <path class="cls-13" d="M162.58,117.43h-8.25V55.64s0-1.92,4-1.92,4.25,1.92,4.25,1.92Z"/>
      </g>
      <path class="cls-14" d="M27.94,11.93s-30.27,40.14-.32,90.48,89.5,40.8,104,35.21,28.52-13.49,37.62-25.12c0,0-63.19,24.31-103.43-8.44C26,71.65,31.24,40.88,27.94,11.93Z"/>
      <path class="cls-13" d="M78.53,21.21V19.79a7.68,7.68,0,0,0,.59-2.69,10.16,10.16,0,0,0-.81-3.19h0a10.16,10.16,0,0,0-.81,3.19,7.68,7.68,0,0,0,.59,2.69v1.42a2.38,2.38,0,0,0-.74,1.56h1.93A2.38,2.38,0,0,0,78.53,21.21Z"/>
      <path class="cls-13" d="M135.7,48.63V47.22a7.76,7.76,0,0,0,.59-2.69,10.07,10.07,0,0,0-.81-3.19v0h0v0a10.16,10.16,0,0,0-.81,3.19,7.65,7.65,0,0,0,.6,2.69v1.41a2.41,2.41,0,0,0-.75,1.57h1.93A2.42,2.42,0,0,0,135.7,48.63Z"/>
    </g>
  </g>
</svg>
