<svg id="Layer_1" data-name="Layer 1" xmlns="http://www.w3.org/2000/svg" width="252.77" height="185.91" viewBox="0 0 252.77 185.91">
  <defs>
    <style>
      .cls-1, .cls-5 {
        opacity: 0.5;
      }

      .cls-2, .cls-7 {
        fill: #fff;
      }

      .cls-3 {
        fill: #dc093b;
      }

      .cls-4 {
        fill: #83142a;
      }

      .cls-6 {
        opacity: 0.7;
      }

      .cls-7 {
        opacity: 0.3;
      }

      .cls-8 {
        fill: #ffd9bc;
      }

      .cls-9 {
        fill: #e3a07c;
      }

      .cls-10 {
        fill: #ffbf9d;
      }

      .cls-11 {
        fill: #875959;
      }

      .cls-12 {
        fill: #9cba3d;
      }

      .cls-13 {
        fill: #618e20;
      }
    </style>
  </defs>
  <g>
    <path class="cls-1" d="M182.44,183.57a91.52,91.52,0,0,1-21.37-2.68,57.79,57.79,0,0,1-25.18-12.76c-.38-.32-.78-.69-1.18-1.06l-.11-.1c-.32-.3-.57-.53-.81-.77a59,59,0,0,1-9.94-12.45,72,72,0,0,1-67.66,8.79C20.87,148.89,1.87,109.32,14.7,76.13a62.3,62.3,0,0,1,23-28.73A121.24,121.24,0,0,1,25.18,25.16a8,8,0,0,1,2.71-9.78,49.65,49.65,0,0,1,26.25-8c7.88,0,18.1,2.24,28.05,10.9a8,8,0,0,1,5.86-6.5,19.09,19.09,0,0,1,4.75-.57,17,17,0,0,1,9.94,3.07,16.49,16.49,0,0,1,7.51-3.14,7.28,7.28,0,0,1,1.14-.08,8,8,0,0,1,6.38,3.17A14.33,14.33,0,0,1,120,18.86l.61,0c3.17,0,7.89,1,12.33,5.85,2.55,2.77,3.33,7.13,1.15,10.21a7.75,7.75,0,0,1-6.28,3.52,7.35,7.35,0,0,1-2.61-.49c-1.17.18-2.12,2.5-2.61,4.5a16.3,16.3,0,0,0,.78,8.23,99,99,0,0,1,48.28-21.24l.58-.08a95.82,95.82,0,0,1,12.86-.88,72.63,72.63,0,0,1,18.14,2,8,8,0,0,1,4.42,12.32,180.41,180.41,0,0,1-15.24,18.93,97.81,97.81,0,0,1,20.83,6.42c19.13,8.27,31.5,23.16,33.2,39.89a31.73,31.73,0,0,1,.55,3.36c0,.15,0,.31,0,.47a75.05,75.05,0,0,1-.69,14.47l0,.27c-.07.5-.15,1-.22,1.44,0,0-.24,1.34-.31,1.7l-.17.88-.17.83-.24,1.07-.15.65c-.09.39-.19.8-.29,1.2l-.14.52q-.16.65-.36,1.32l-.11.41-.41,1.37-.11.34c-.14.46-.29.93-.45,1.4l-.12.35c-.15.44-.31.9-.48,1.36l-.14.39c-.16.42-.32.86-.49,1.3l-.18.44c-.16.41-.33.81-.5,1.22l-.23.54-.48,1.08-.3.67-.45,1c-.13.27-.26.55-.4.82l-.39.77-.51,1-.31.58c-.21.39-.42.76-.64,1.14l-.24.42c-.25.43-.51.86-.77,1.29l-.14.24c-.3.49-.6,1-.91,1.43l-.07.11A62.78,62.78,0,0,1,227.1,166l-.08.08-1.25,1.2-.16.15c-.42.39-.79.72-1.17,1.05l-.43.37c-.3.27-.61.53-.91.78l-.72.59-.66.52-1.05.8-.33.24c-10.66,7.83-23.41,11.8-37.9,11.8Z"/>
    <path class="cls-2" d="M177.44,178.57a91.52,91.52,0,0,1-21.37-2.68,57.79,57.79,0,0,1-25.18-12.76c-.38-.32-.78-.69-1.18-1.06l-.11-.1c-.32-.3-.57-.53-.81-.77a59,59,0,0,1-9.94-12.45,72,72,0,0,1-67.66,8.79C15.87,143.89-3.13,104.32,9.7,71.13a62.3,62.3,0,0,1,23-28.73A121.24,121.24,0,0,1,20.18,20.16a8,8,0,0,1,2.71-9.78,49.65,49.65,0,0,1,26.25-8c7.88,0,18.1,2.24,28.05,10.9a8,8,0,0,1,5.86-6.5,19.09,19.09,0,0,1,4.75-.57,17,17,0,0,1,9.94,3.07,16.49,16.49,0,0,1,7.51-3.14A7.28,7.28,0,0,1,106.39,6a8,8,0,0,1,6.38,3.17A14.33,14.33,0,0,1,115,13.86l.61,0c3.17,0,7.89,1,12.33,5.85,2.55,2.77,3.33,7.13,1.15,10.21a7.75,7.75,0,0,1-6.28,3.52,7.35,7.35,0,0,1-2.61-.49c-1.17.18-2.12,2.5-2.61,4.5a16.3,16.3,0,0,0,.78,8.23,99,99,0,0,1,48.28-21.24l.58-.08a95.82,95.82,0,0,1,12.86-.88,72.63,72.63,0,0,1,18.14,2,8,8,0,0,1,4.42,12.32,180.41,180.41,0,0,1-15.24,18.93,97.81,97.81,0,0,1,20.83,6.42c19.13,8.27,31.5,23.16,33.2,39.89a31.73,31.73,0,0,1,.55,3.36c0,.15,0,.31,0,.47a75.05,75.05,0,0,1-.69,14.47l0,.27c-.07.5-.15,1-.22,1.44,0,0-.24,1.34-.31,1.7l-.17.88-.17.83-.24,1.07-.15.65c-.09.39-.19.8-.29,1.2l-.14.52q-.16.65-.36,1.32l-.11.41-.41,1.37-.11.34c-.14.46-.29.93-.45,1.4l-.12.35c-.15.44-.31.9-.48,1.36l-.14.39c-.16.42-.32.86-.49,1.3l-.18.44c-.16.41-.33.81-.5,1.22l-.23.54-.48,1.08-.3.67-.45,1c-.13.27-.26.55-.4.82l-.39.77-.51,1-.31.58c-.21.39-.42.76-.64,1.14l-.24.42c-.25.43-.51.86-.77,1.29l-.14.24c-.3.49-.6,1-.91,1.43l-.07.11A62.78,62.78,0,0,1,222.1,161l-.08.08-1.25,1.2-.16.15c-.42.39-.79.72-1.17,1.05l-.43.37c-.3.27-.61.53-.91.78l-.72.59-.66.52-1.05.8-.33.24c-10.66,7.83-23.41,11.8-37.9,11.8Z"/>
    <g>
      <g>
        <g>
          <path class="cls-3" d="M73.78,38.92s7.2-.63,13.58-8.16S89.18,14,85.1,14.46c0,0,11.09-2.94,11.32,9.51,0,0,3.62-9.06,10-10,0,0,2.94,3.85.22,13.13,0,0,7.7-10.42,15.4-2,0,0-9.06-2.49-12.23,10.42-1.11,4.53-.45,12.23,4.3,19.7C114.08,55.22,100.5,42.77,73.78,38.92Z"/>
          <path class="cls-4" d="M73.73,38.92a21,21,0,0,0,8.16-3.55,23.15,23.15,0,0,0,3.41-2.84,21.13,21.13,0,0,0,2.84-3.37A12,12,0,0,0,90,20.86a9.66,9.66,0,0,0-1.55-4,3.92,3.92,0,0,0-3.28-2h0A.45.45,0,0,1,85,14a12.4,12.4,0,0,1,4.54-.18,7.82,7.82,0,0,1,6.58,5.69,18.42,18.42,0,0,1,.5,2.2L96.74,24l-.62-.12a25.59,25.59,0,0,1,1.75-3.27,22.14,22.14,0,0,1,2.23-3,14.82,14.82,0,0,1,2.8-2.43,9.51,9.51,0,0,1,3.46-1.35h0a.15.15,0,0,1,.15.07,8.72,8.72,0,0,1,1.16,3.23,16.76,16.76,0,0,1,.22,3.39,23.75,23.75,0,0,1-.34,3.37l-.34,1.66-.43,1.64-.33-.16a17.8,17.8,0,0,1,3.27-3.22,11.28,11.28,0,0,1,4.14-2,7.26,7.26,0,0,1,4.62.39,9.13,9.13,0,0,1,2,1.15,23.07,23.07,0,0,1,1.74,1.54.35.35,0,0,1-.3.6h0a8.54,8.54,0,0,0-4.53.35,8.73,8.73,0,0,0-3.72,2.62A18,18,0,0,0,110,36.94a23.87,23.87,0,0,0,.72,9.35A30.8,30.8,0,0,0,114.52,55a.51.51,0,0,1-.77.66h0a58.75,58.75,0,0,0-9-6.11,86.51,86.51,0,0,0-9.85-4.73c-1.72-.63-3.41-1.33-5.16-1.86-.87-.28-1.73-.58-2.6-.84l-2.65-.74c-1.75-.52-3.55-.87-5.33-1.31S75.47,39.24,73.73,38.92Zm.1,0c1.86.3,3.62.45,5.39.79l2.71.53,1.35.27,1.33.34,2.68.68c.88.25,1.76.53,2.64.8,1.77.5,3.48,1.17,5.22,1.77a85.83,85.83,0,0,1,10,4.58,53.19,53.19,0,0,1,9.23,6.16l-.78.66a31.78,31.78,0,0,1-3.94-8.94,24.38,24.38,0,0,1-.67-9.77,14.84,14.84,0,0,1,.57-2.41L110,33.2c.14-.38.3-.76.46-1.14A14.34,14.34,0,0,1,113,27.83a9.42,9.42,0,0,1,9.11-3.07l-.35.58c-.55-.49-1-1.05-1.62-1.49a8.53,8.53,0,0,0-1.88-1.11A6.73,6.73,0,0,0,114,22.3a10.89,10.89,0,0,0-4,1.87,16,16,0,0,0-3.23,3.08.19.19,0,0,1-.26,0,.17.17,0,0,1-.06-.19l.43-1.62.35-1.64a24.8,24.8,0,0,0,.37-3.32,14.85,14.85,0,0,0-.22-3.33,8.77,8.77,0,0,0-1.12-3.07l.16.07a9,9,0,0,0-3.3,1.32,13.06,13.06,0,0,0-2.67,2.42,20.41,20.41,0,0,0-2.09,2.95,23.72,23.72,0,0,0-1.63,3.22A.32.32,0,0,1,96.1,24v0l-.2-2.14a19.37,19.37,0,0,0-.51-2.06,7.75,7.75,0,0,0-2.25-3.44,7.31,7.31,0,0,0-3.75-1.63,12,12,0,0,0-4.18.18L85.05,14a3.67,3.67,0,0,1,2.41.67,6.46,6.46,0,0,1,1.67,1.71,10.47,10.47,0,0,1,1.65,4.34,12.5,12.5,0,0,1-2.07,8.8,15.47,15.47,0,0,1-1.43,1.78c-.51.56-1,1.12-1.58,1.63a24.09,24.09,0,0,1-3.55,2.81,22.72,22.72,0,0,1-4,2.07,20.8,20.8,0,0,1-2.15.71c-.36.1-.73.18-1.09.26l-.56.1-.28,0C74,38.93,73.85,39,73.83,38.92Z"/>
        </g>
        <g>
          <path class="cls-3" d="M132.65,118.4c-11.52,29.82-48.26,43.4-78.58,31.68S5.64,103.83,17.17,74,65.5,30.39,95.82,42.11,144.18,88.58,132.65,118.4Z"/>
          <path class="cls-4" d="M132.7,118.42a52.82,52.82,0,0,1-12.92,19.37A60.12,60.12,0,0,1,100,150.25a64.73,64.73,0,0,1-46.11.3,65,65,0,0,1-34.19-31.06A59.68,59.68,0,0,1,13.36,96.9,52.85,52.85,0,0,1,30,54.36,60.52,60.52,0,0,1,49.88,42a64.35,64.35,0,0,1,46-.1A64.48,64.48,0,0,1,129.77,73a59.74,59.74,0,0,1,6.32,22.44A52.88,52.88,0,0,1,132.7,118.42Zm-.09,0a52.62,52.62,0,0,0,3.32-23A59.51,59.51,0,0,0,129.59,73a64.19,64.19,0,0,0-33.86-30.7,63.83,63.83,0,0,0-45.62.25A59.79,59.79,0,0,0,30.5,54.89,52,52,0,0,0,14.25,96.83,59,59,0,0,0,20.59,119a63.39,63.39,0,0,0,79.23,30.71,59.44,59.44,0,0,0,19.74-12.19A52.84,52.84,0,0,0,132.61,118.38Z"/>
        </g>
        <g class="cls-5">
          <path class="cls-2" d="M23.81,86a48.58,48.58,0,0,1,4.87-16.63A51.63,51.63,0,0,1,39,55.33a50.16,50.16,0,0,1,14.48-9.65,51.05,51.05,0,0,1,8.26-2.77c1.42-.27,2.83-.64,4.27-.83l4.31-.47a57.6,57.6,0,0,0-16.53,4.77,51.56,51.56,0,0,0-14.1,9.67,53,53,0,0,0-10.3,13.67l-.52.94-.45,1-.89,2a15.73,15.73,0,0,0-.8,2l-.75,2c-.48,1.36-.82,2.76-1.24,4.14S24.12,84.58,23.81,86Z"/>
        </g>
        <g class="cls-5">
          <path class="cls-2" d="M93.54,48.81a57.1,57.1,0,0,1-.13,10.62,81.49,81.49,0,0,1-1.67,10.51,86.46,86.46,0,0,1-3,10.21c-.57,1.67-1.28,3.3-1.94,4.95s-1.49,3.21-2.27,4.79c1.21-3.32,2.46-6.62,3.48-10s2-6.76,2.74-10.18,1.39-6.9,1.89-10.38c.26-1.74.44-3.49.59-5.25S93.5,50.58,93.54,48.81Z"/>
        </g>
        <g class="cls-5">
          <path class="cls-2" d="M102.83,51.66a33.76,33.76,0,0,1,1.67,4.25c.44,1.46.84,2.94,1.15,4.43a51.58,51.58,0,0,1,1.13,9.09,52.76,52.76,0,0,1-.46,9.15c-.17,1.52-.5,3-.79,4.51s-.77,3-1.2,4.41c.5-3,1-6,1.23-9a75.58,75.58,0,0,0,.22-9,71.44,71.44,0,0,0-.88-9A58.78,58.78,0,0,0,102.83,51.66Z"/>
        </g>
        <g class="cls-6">
          <path class="cls-4" d="M39.81,100.28a59.15,59.15,0,0,0-.12,15.27,44.85,44.85,0,0,0,4.38,14.5,41.85,41.85,0,0,0,9,12.16A30.87,30.87,0,0,0,56,144.68l1.52,1.16,1.62,1A35.8,35.8,0,0,0,66,150.22a32.45,32.45,0,0,1-7.11-2.95l-1.68-1-1.58-1.11a30.62,30.62,0,0,1-3-2.41,41.1,41.1,0,0,1-9.38-12.28,44,44,0,0,1-4.24-14.86,29.3,29.3,0,0,1-.23-3.86l-.05-1.93c0-.65.08-1.29.12-1.93A55.91,55.91,0,0,1,39.81,100.28Z"/>
        </g>
        <g class="cls-6">
          <path class="cls-4" d="M60.87,110.47a56.07,56.07,0,0,0-.69,8.66,62.22,62.22,0,0,0,.55,8.63,59.55,59.55,0,0,0,1.72,8.46,73.93,73.93,0,0,0,2.84,8.22c-.36-.64-.7-1.28-1-1.93a21.15,21.15,0,0,1-1-2c-.56-1.34-1.14-2.69-1.58-4.09a46.36,46.36,0,0,1-2.29-17.34c.09-1.47.25-2.92.46-4.37A31.11,31.11,0,0,1,60.87,110.47Z"/>
        </g>
        <g class="cls-6">
          <path class="cls-4" d="M73.44,150.55A24.22,24.22,0,0,0,80,149l1.58-.57,1.54-.66c1-.41,2-.95,3-1.45a51.71,51.71,0,0,0,11-7.57A46.74,46.74,0,0,0,109,122.83a61.55,61.55,0,0,0,2.51-6.24c-.3,1.08-.61,2.16-.93,3.25-.17.53-.28,1.09-.5,1.61l-.63,1.57a51.26,51.26,0,0,1-3,6.09,48.53,48.53,0,0,1-8.71,10.4A49.27,49.27,0,0,1,86.43,147c-1,.46-2.05,1-3.12,1.34l-1.59.61-1.62.5A22.25,22.25,0,0,1,73.44,150.55Z"/>
        </g>
        <g class="cls-6">
          <path class="cls-4" d="M99.93,110.81a41.4,41.4,0,0,1-2.66,9.37,48.83,48.83,0,0,1-4.5,8.67l-.66,1-.72,1c-.49.66-.94,1.34-1.46,2a47,47,0,0,1-3.24,3.66c-.59.57-1.12,1.18-1.74,1.72l-1.84,1.61a22.92,22.92,0,0,1-1.92,1.49c-.66.49-1.32,1-2,1.42A71.21,71.21,0,0,0,86.12,136a59.91,59.91,0,0,0,5.81-7.67,63.9,63.9,0,0,0,4.64-8.43c.68-1.46,1.29-2.95,1.85-4.46S99.5,112.38,99.93,110.81Z"/>
        </g>
        <path class="cls-4" d="M109.78,27.59a29.77,29.77,0,0,0-4.34,7.17,23.45,23.45,0,0,0-1.31,4,23.71,23.71,0,0,0-.66,4.09h0a.48.48,0,0,1-.53.43.47.47,0,0,1-.39-.28,25.87,25.87,0,0,1-1.9-6.26,25,25,0,0,1-.22-6.52,28.09,28.09,0,0,1,1.43-6.35,24,24,0,0,1,2.94-5.75A29.2,29.2,0,0,0,102.39,24a28.35,28.35,0,0,0-1.1,6.25,27,27,0,0,0,.33,6.29,27.57,27.57,0,0,0,1.81,6l-.92.16a23.47,23.47,0,0,1,.79-4.24,22.83,22.83,0,0,1,1.55-4A23.76,23.76,0,0,1,107,30.82,22.42,22.42,0,0,1,109.78,27.59Z"/>
        <path class="cls-7" d="M43.49,61.56S52,48.18,67.43,44.05a4.5,4.5,0,0,1,2.36,0c1.21.34,2.43,1.3,1,4-2.1,3.92,3.38,3.46,7.9,1.11,4.13-2.16,8.38-2.72,7.86,2.47-.61,6.1-10.26,26.73-16.8,19-5.72-6.71-9-11.78-15.41-8.55C48.62,65,41.1,66.48,43.49,61.56Z"/>
        <g class="cls-5">
          <path class="cls-2" d="M92.32,24.31a11,11,0,0,1-1.59,8,9.54,9.54,0,0,1-2.87,3.09A10.4,10.4,0,0,1,86,36.3a10.19,10.19,0,0,1-2,.45.08.08,0,0,1-.1-.07.09.09,0,0,1,0-.07h0a15.13,15.13,0,0,1,1.56-1.3c.24-.23.49-.43.74-.63a7.24,7.24,0,0,0,.73-.62c.24-.21.47-.41.72-.6s.47-.42.71-.62a8.87,8.87,0,0,0,1.35-1.32,11.47,11.47,0,0,0,2.49-7.18h0a.08.08,0,0,1,.08-.09A.08.08,0,0,1,92.32,24.31Z"/>
        </g>
        <path class="cls-3" d="M123.88,87.41c-14.16,21.11-6.93,71.16,34.06,80.7,54.63,12.71,77.71-28.18,76.06-60.86C230.33,74,159.19,40.71,123.88,87.41Z"/>
        <path class="cls-8" d="M144.06,69.43c18.31-9.07,40.59-7.78,61,1,29.62,12.81,36.6,40.66,19.18,58.69-16.38,16.94-43,28.52-76.8,13.22-22.23-10-36.83-36.36-22-57.51l.33.17a13.37,13.37,0,0,0-15.76-2.79s1.89-9.92,13.25-6.82c0,0-4.55-2.79-5-11.78,0,0,7.78-.62,13.77,3.72,0,0-1.45-8.68,8.68-9.92,0,0-6.41,7.75,3.65,12.09Z"/>
        <path class="cls-9" d="M134.62,131a28.81,28.81,0,0,0,4.34,3.6,48.9,48.9,0,0,0,4.8,2.94,71,71,0,0,0,10.3,4.55,74.87,74.87,0,0,0,22,4.34,61.2,61.2,0,0,0,22.16-2.91,59.54,59.54,0,0,0,10.29-4.5,70,70,0,0,0,9.31-6.37,62.6,62.6,0,0,1-9.06,6.79,59.21,59.21,0,0,1-10.3,4.81,53.13,53.13,0,0,1-11.07,2.64,65.44,65.44,0,0,1-11.37.53,73.08,73.08,0,0,1-22.21-4.61A70.79,70.79,0,0,1,143.52,138a47.82,47.82,0,0,1-4.72-3.15A25.64,25.64,0,0,1,134.62,131Z"/>
        <path class="cls-9" d="M164.64,89.69a10.74,10.74,0,0,0,4.1,3.24,27.18,27.18,0,0,0,4.95,1.84,103.61,103.61,0,0,1,10.12,3.52,39.26,39.26,0,0,1,13.36,8.9,46.37,46.37,0,0,1,3.51,4,56.85,56.85,0,0,0-8-7,49.46,49.46,0,0,0-9.27-5c-3.25-1.39-6.62-2.51-10-3.7a28,28,0,0,1-4.94-2.15,14.83,14.83,0,0,1-2.18-1.59A6.73,6.73,0,0,1,164.64,89.69Z"/>
        <path class="cls-9" d="M159.55,93.25a90.88,90.88,0,0,1,9,6c2.88,2.2,5.53,4.57,8.7,6.17a30.31,30.31,0,0,0,4.87,2.07c1.67.58,3.42,1,5.14,1.54a27.89,27.89,0,0,1,5,2,22.61,22.61,0,0,1,4.31,3.26,25.44,25.44,0,0,0-4.54-2.82,27.37,27.37,0,0,0-5-1.75c-1.73-.44-3.48-.84-5.22-1.38a30,30,0,0,1-5.05-2.09c-.81-.42-1.58-.91-2.35-1.39s-1.52-1-2.22-1.6c-1.42-1.14-2.77-2.3-4.13-3.45s-2.79-2.26-4.21-3.35S161,94.33,159.55,93.25Z"/>
        <path class="cls-9" d="M181.63,65.51a79.77,79.77,0,0,1,15.2,3.58,76.63,76.63,0,0,1,14.27,6.46,50.8,50.8,0,0,1,12.14,9.91,41.91,41.91,0,0,1,4.51,6.42,36.35,36.35,0,0,1,2.91,7.26,40.21,40.21,0,0,0-3.33-7A41.18,41.18,0,0,0,222.67,86,55.08,55.08,0,0,0,217,80.74a60,60,0,0,0-6.4-4.34,82.63,82.63,0,0,0-14-6.59c-2.42-.91-4.89-1.7-7.38-2.41S184.18,66,181.63,65.51Z"/>
        <g>
          <path class="cls-10" d="M125,85.34l.65-.3-.33-.17C125.25,85,125.15,85.19,125,85.34Z"/>
          <path class="cls-9" d="M144.29,69.54l-.1-.17-.12.06c-9.73-4.36-3.43-12-3.43-12-10.13,1.24-8.68,9.92-8.68,9.92-6-4.34-13.77-3.72-13.77-3.72.44,9,5,11.78,5,11.78-11.36-3.1-13.25,6.82-13.25,6.82A13.37,13.37,0,0,1,125.69,85s3.41,2.89,7-.83c2.48-2.58,2.09-4.62,5.78-4.44C142.76,80,148.22,75.84,144.29,69.54Z"/>
        </g>
        <path class="cls-11" d="M119.14,78.53A10.93,10.93,0,0,1,127.06,83c2.64,3.35,7.13-.1,4.13-3.51C131.19,79.46,127.7,75.22,119.14,78.53Z"/>
        <path class="cls-11" d="M131.43,70.57a10.8,10.8,0,0,0,2.69,6.2c2.14,2.27,4.25,1.34,4.63-.1,0,0,4.31.1,4.44-4.14,0,0-5.28-1.44-6.43-6.4a6.44,6.44,0,0,0-1.24,6.92A5.08,5.08,0,0,1,131.43,70.57Z"/>
        <path class="cls-4" d="M144,69.39a60.06,60.06,0,0,1,17.25-5.62,68,68,0,0,1,18.19-.51,85.61,85.61,0,0,1,17.82,3.8,74.08,74.08,0,0,1,16.56,7.6,47.51,47.51,0,0,1,13.28,12.42,35.43,35.43,0,0,1,6.5,16.86A31.34,31.34,0,0,1,230,121.58a35.24,35.24,0,0,1-5.34,7.38c-1,1.11-2.15,2.15-3.23,3.22s-2.28,2-3.42,3a62.75,62.75,0,0,1-33,14.37l-2.27.25c-.76.1-1.53.06-2.29.1l-2.29.06L177,150c-.38,0-.76-.05-1.14-.06l-4.57-.28-4.53-.67-1.13-.17c-.37-.07-.74-.16-1.11-.25l-2.23-.52-2.23-.53c-.74-.16-1.45-.44-2.18-.66l-4.35-1.41-4.23-1.73A49.82,49.82,0,0,1,122.9,119.5a36.31,36.31,0,0,1-3.72-17.73,32.11,32.11,0,0,1,6.14-16.93,0,0,0,0,1,.07,0,0,0,0,0,1,0,.07,32.26,32.26,0,0,0-5.73,16.89,35.86,35.86,0,0,0,3.88,17.4,47.07,47.07,0,0,0,10.94,14.16,50.25,50.25,0,0,0,15.22,9.42l4.19,1.7,4.29,1.38c.72.21,1.43.5,2.16.65l2.2.52,2.19.52c.37.08.73.18,1.1.25L167,148l4.46.69,4.49.3c.38,0,.75.06,1.13.06l1.12,0,2.26-.05c.75,0,1.5,0,2.25-.08l2.24-.23a61,61,0,0,0,17.38-4.54,65.54,65.54,0,0,0,15.41-9.33c4.63-3.83,9.13-8,12-13.37A29.86,29.86,0,0,0,233.29,104a33.91,33.91,0,0,0-6.6-16.57,47.14,47.14,0,0,0-13.28-12A76.1,76.1,0,0,0,197,67.89,85.72,85.72,0,0,0,179.4,64a65.39,65.39,0,0,0-35.31,5.46.05.05,0,0,1-.05-.09Z"/>
        <path class="cls-4" d="M124,87.47a41.35,41.35,0,0,0-2.79,6.1,51.89,51.89,0,0,0-1.84,6.44,58,58,0,0,0-1.27,13.27,65.27,65.27,0,0,0,5.68,25.83,50.3,50.3,0,0,0,16.42,20.71A46.9,46.9,0,0,0,152.06,166a68.43,68.43,0,0,0,13.06,3,70.46,70.46,0,0,0,26.54-1,51.52,51.52,0,0,0,23-12.48,58.76,58.76,0,0,0,14.54-22,71.47,71.47,0,0,0,4.68-26.27.11.11,0,0,1,.11-.11.1.1,0,0,1,.1.1,65.55,65.55,0,0,1-3.36,26.83,57.8,57.8,0,0,1-14.55,23,50.24,50.24,0,0,1-11.19,8,54.15,54.15,0,0,1-12.89,4.76,66.81,66.81,0,0,1-27.16.21,80.4,80.4,0,0,1-13.14-3.45,54.21,54.21,0,0,1-12-6.27,52.35,52.35,0,0,1-10.12-9.09,53.49,53.49,0,0,1-7.48-11.43,59.86,59.86,0,0,1-5.72-26.57,56.6,56.6,0,0,1,1.82-13.53,40.47,40.47,0,0,1,5.51-12.39.11.11,0,0,1,.15,0A.12.12,0,0,1,124,87.47Z"/>
        <g>
          <path class="cls-4" d="M139.57,84.87c-2-1.17-4.72-.65-6.88,1.31-3.36,3.06-9,11.49-4.72,25.38,5.78,18.78,25.26,27.37,37.14,30.35,15.48,3.88,37.35.11,46.8-12.5,0,0,4.12-5.71-.69-7.2-5.82-1.8-21.53.32-41.84-11.3C154.68,102.72,146.54,89,139.57,84.87Z"/>
          <path class="cls-4" d="M139.54,84.92a4.74,4.74,0,0,0-3.4-.48A7.12,7.12,0,0,0,133,86a17.49,17.49,0,0,0-4.16,5.66A24,24,0,0,0,127,105.44c.12,1.17.42,2.31.65,3.46l.48,1.69.24.85.31.82a35.32,35.32,0,0,0,2.93,6.37,41.26,41.26,0,0,0,9.09,10.62,63,63,0,0,0,25.14,12.3,56.49,56.49,0,0,0,28-.83,39.17,39.17,0,0,0,12.64-6.19c.47-.36,1-.7,1.4-1.09l1.29-1.21.64-.6c.21-.21.39-.45.59-.67l1.14-1.34a8.85,8.85,0,0,0,1.62-3.08,4.44,4.44,0,0,0,.21-1.69,3.22,3.22,0,0,0-.16-.82,2.56,2.56,0,0,0-.45-.69,5.35,5.35,0,0,0-3.1-1.28c-1.16-.2-2.34-.32-3.52-.42-2.36-.21-4.74-.36-7.1-.64a78,78,0,0,1-14-2.8,73.66,73.66,0,0,1-13.22-5.47,60.85,60.85,0,0,1-11.86-8,112.94,112.94,0,0,1-10.11-10.06c-1.6-1.76-3.21-3.5-4.87-5.2A29.52,29.52,0,0,0,139.54,84.92Zm.06-.1a30.61,30.61,0,0,1,5.48,4.55c1.68,1.68,3.29,3.43,4.94,5.13a110.54,110.54,0,0,0,10.35,9.73,66.39,66.39,0,0,0,11.85,7.68,81.34,81.34,0,0,0,13.05,5.44,79.51,79.51,0,0,0,13.82,3.06c2.35.32,4.71.53,7.07.79,1.18.12,2.37.24,3.55.46a11.79,11.79,0,0,1,1.75.44,3.56,3.56,0,0,1,1.56,1,3,3,0,0,1,.51.8,3.75,3.75,0,0,1,.18.92,5,5,0,0,1-.24,1.82,10,10,0,0,1-1.68,3.18l-1.16,1.37c-.19.23-.37.47-.58.68l-.65.62-1.3,1.23c-.45.4-.94.74-1.41,1.11a41.18,41.18,0,0,1-12.7,6.45,57.08,57.08,0,0,1-14.09,2.43,52.69,52.69,0,0,1-14.27-1.17A62.14,62.14,0,0,1,140,130.1a40.47,40.47,0,0,1-9.26-11,35.47,35.47,0,0,1-2.9-6.59l-.3-.85-.23-.87-.45-1.74c-.2-1.19-.47-2.36-.56-3.56a24.67,24.67,0,0,1,2.29-14,18.71,18.71,0,0,1,4.31-5.67,7.36,7.36,0,0,1,3.2-1.58A5,5,0,0,1,139.6,84.82Z"/>
        </g>
        <path class="cls-4" d="M125.65,85.07c-.56-.44-1.09-.91-1.67-1.32a13.37,13.37,0,0,0-1.81-1.09,12.15,12.15,0,0,0-4-1.31,13.35,13.35,0,0,0-8.07,1.28h0a.44.44,0,0,1-.59-.18.52.52,0,0,1,0-.3,10.62,10.62,0,0,1,1.84-4,8.46,8.46,0,0,1,3.4-2.76A10,10,0,0,1,119,74.6c.72,0,1.43.14,2.14.19l2.09.47-.14.32a9.68,9.68,0,0,1-2.28-2.46,14.31,14.31,0,0,1-1.53-3,20.84,20.84,0,0,1-.94-3.19c-.12-.55-.19-1.1-.29-1.65l-.17-1.66a.3.3,0,0,1,.26-.32h0a24.41,24.41,0,0,1,7.33.62A20.69,20.69,0,0,1,129,65.14,18.31,18.31,0,0,1,132.26,67l-.81.49a9.71,9.71,0,0,1,.28-3.91,8.19,8.19,0,0,1,1.9-3.43,9.24,9.24,0,0,1,3.23-2.2,15.14,15.14,0,0,1,1.84-.59c.63-.12,1.26-.21,1.89-.32a.44.44,0,0,1,.51.37.45.45,0,0,1-.09.34l0,0a10.13,10.13,0,0,0-1.69,3.18,6.07,6.07,0,0,0-.1,3.53,6.67,6.67,0,0,0,2,3,17,17,0,0,0,1.48,1.13l1.65.91h0a.07.07,0,0,1,0,.07.05.05,0,0,1-.07,0l-1.73-.79a18.49,18.49,0,0,1-1.61-1.05,7,7,0,0,1-2.31-3.11,6.67,6.67,0,0,1-.07-3.93,10.85,10.85,0,0,1,1.75-3.54l.4.73-1.77.36a15.89,15.89,0,0,0-1.68.59,8.25,8.25,0,0,0-2.86,2,7.21,7.21,0,0,0-1.65,3,9.69,9.69,0,0,0-.28,3.46v0a.52.52,0,0,1-.45.57.53.53,0,0,1-.35-.09,18.5,18.5,0,0,0-3-1.77,20.4,20.4,0,0,0-3.34-1.19,24.05,24.05,0,0,0-3.5-.68,23.6,23.6,0,0,0-3.56-.19l.28-.32.1,1.63c.07.54.12,1.08.21,1.62a18.09,18.09,0,0,0,.81,3.16A14.68,14.68,0,0,0,121.07,73a8.73,8.73,0,0,0,2.2,2.33.18.18,0,0,1,0,.24.18.18,0,0,1-.19.08l-2-.42A20.77,20.77,0,0,0,119,75.1a9.37,9.37,0,0,0-4,1,8.5,8.5,0,0,0-3,2.63,10.89,10.89,0,0,0-1.67,3.65l-.65-.47a14,14,0,0,1,4.23-1.28,12.17,12.17,0,0,1,4.38.12,12.38,12.38,0,0,1,4.06,1.57,15.8,15.8,0,0,1,1.78,1.25c.56.45,1,1,1.56,1.48a0,0,0,0,1,0,.07s0,0-.06,0Z"/>
        <g>
          <g>
            <g>
              <path class="cls-3" d="M142.25,88c.1,2.14-2.51,4.48-5,4.48s-5.12-1.57-5.23-3.7,2.34-4.33,4.84-4.33S142.14,85.89,142.25,88Z"/>
              <path class="cls-4" d="M142.35,88a5.72,5.72,0,0,1-4.83,5.52,6.49,6.49,0,0,1-4-1A5.87,5.87,0,0,1,132,91.08a4,4,0,0,1-.77-2.13,4.58,4.58,0,0,1,1.88-3.68A5.82,5.82,0,0,1,136.75,84a6.93,6.93,0,0,1,3.54,1.16A4.15,4.15,0,0,1,142.35,88Zm-.21,0a3,3,0,0,0-2.06-2.53,7.32,7.32,0,0,0-3.31-.5A4.59,4.59,0,0,0,134,86.29a3.12,3.12,0,0,0-1.1,2.52,2.82,2.82,0,0,0,1.71,1.94,7,7,0,0,0,2.84.7,6,6,0,0,0,2.9-.77A3.26,3.26,0,0,0,142.14,88Z"/>
            </g>
            <g>
              <path class="cls-3" d="M149.48,89.55c.93,2-.55,5-2.85,5.82s-5.35.09-6.28-1.91.44-4.85,2.75-5.62S148.54,87.55,149.48,89.55Z"/>
              <path class="cls-4" d="M149.57,89.51a5.21,5.21,0,0,1,.17,3.72,4.75,4.75,0,0,1-2.69,3.09,6.31,6.31,0,0,1-4.09.19,5.14,5.14,0,0,1-3.32-2.6,4.53,4.53,0,0,1,.3-4.1,5.2,5.2,0,0,1,3-2.48,6.77,6.77,0,0,1,3.71.08A4.61,4.61,0,0,1,149.57,89.51Zm-.19.08a3.27,3.27,0,0,0-2.78-1.75,7.31,7.31,0,0,0-3.3.48,4,4,0,0,0-2.15,2.11,3,3,0,0,0,0,2.73,3.23,3.23,0,0,0,2.31,1.34,6.79,6.79,0,0,0,2.91-.15,4.83,4.83,0,0,0,2.39-1.63A3.17,3.17,0,0,0,149.38,89.59Z"/>
            </g>
            <g>
              <path class="cls-3" d="M156.93,96.37c-.82,2-3.45,3-5.8,2.13s-4.14-3.17-3.32-5.14,4.07-3.13,6.42-2.28A4.15,4.15,0,0,1,156.93,96.37Z"/>
              <path class="cls-4" d="M157,96.41a5.26,5.26,0,0,1-2.45,2.68,5,5,0,0,1-3.92.35A6.08,6.08,0,0,1,147.48,97a5,5,0,0,1-.75-2,3.57,3.57,0,0,1,.44-2.2,5.25,5.25,0,0,1,3.2-2.31,6.39,6.39,0,0,1,3.75,0,4.64,4.64,0,0,1,2.7,2.45A4.53,4.53,0,0,1,157,96.41Zm-.2-.08a3.13,3.13,0,0,0-.39-3.16,4.49,4.49,0,0,0-2.62-1.67,5.17,5.17,0,0,0-3,.27,3.77,3.77,0,0,0-2.13,1.78,2.12,2.12,0,0,0,.51,2.26,6.44,6.44,0,0,0,2.23,1.68,5.61,5.61,0,0,0,2.83.53A3.11,3.11,0,0,0,156.83,96.33Z"/>
            </g>
            <g>
              <path class="cls-3" d="M162.6,101.93a4.6,4.6,0,0,1-5.8,2.14c-2.35-.85-4.14-3.18-3.32-5.15s4.07-3.13,6.42-2.28A4.15,4.15,0,0,1,162.6,101.93Z"/>
              <path class="cls-4" d="M162.7,102a5.26,5.26,0,0,1-2.45,2.68,4.94,4.94,0,0,1-3.92.35,6,6,0,0,1-3.18-2.43,4.92,4.92,0,0,1-.75-2,3.57,3.57,0,0,1,.44-2.2A5.23,5.23,0,0,1,156,96a6.42,6.42,0,0,1,3.76,0,4.67,4.67,0,0,1,2.7,2.45A4.53,4.53,0,0,1,162.7,102Zm-.2-.08a3.15,3.15,0,0,0-.39-3.16,4.43,4.43,0,0,0-2.62-1.66,5.17,5.17,0,0,0-3,.26,3.8,3.8,0,0,0-2.13,1.78,2.12,2.12,0,0,0,.51,2.26,6.32,6.32,0,0,0,2.23,1.68,5.61,5.61,0,0,0,2.83.54A3.14,3.14,0,0,0,162.5,101.89Z"/>
            </g>
            <g>
              <path class="cls-3" d="M169.06,106a4.88,4.88,0,0,1-6.33,2.31,4.09,4.09,0,0,1-2-5.4c.82-2,3.69-3.2,6.14-2.63C170.21,101,169.89,104,169.06,106Z"/>
              <path class="cls-4" d="M169.16,106a6.15,6.15,0,0,1-2.4,2.82,4.67,4.67,0,0,1-4,.59,4.82,4.82,0,0,1-3-3,5.32,5.32,0,0,1,.42-4.18,5.51,5.51,0,0,1,3.21-2.41,6.66,6.66,0,0,1,3.83-.06,4.08,4.08,0,0,1,1.69,1,3,3,0,0,1,.87,1.71A7.2,7.2,0,0,1,169.16,106Zm-.19-.08a4.57,4.57,0,0,0,.31-3.35,2.92,2.92,0,0,0-2.41-1.78,5.35,5.35,0,0,0-3.11.32,4,4,0,0,0-2.17,1.9,3.31,3.31,0,0,0,0,2.67,3.8,3.8,0,0,0,1.87,1.77,4.68,4.68,0,0,0,2.85.34A3.64,3.64,0,0,0,169,105.91Z"/>
            </g>
            <g>
              <path class="cls-3" d="M176.05,110c-.82,2-3.86,2.94-6.36,1.7-2.22-1.1-2.81-3-2-4.94a4.57,4.57,0,0,1,5.81-2.16C176.72,105.79,176.87,108,176.05,110Z"/>
              <path class="cls-4" d="M176.15,110a5.28,5.28,0,0,1-6.31,2.86,6,6,0,0,1-1.78-.94,4.36,4.36,0,0,1-1.32-1.69,4.29,4.29,0,0,1-.31-2.14,5.53,5.53,0,0,1,.62-1.93,5.3,5.3,0,0,1,6.78-2,4.68,4.68,0,0,1,2.54,2.48A5,5,0,0,1,176.15,110Zm-.2-.08a3.31,3.31,0,0,0,0-3.13,4.56,4.56,0,0,0-2.53-1.7,4.25,4.25,0,0,0-2.9,0,3.44,3.44,0,0,0-2,1.79,3.54,3.54,0,0,0-.26,1.3,2.22,2.22,0,0,0,.31,1.13,4.52,4.52,0,0,0,2,1.57,6.14,6.14,0,0,0,2.79.57A2.94,2.94,0,0,0,176,109.92Z"/>
            </g>
            <g>
              <path class="cls-3" d="M184.62,113c-.87,2.08-4.35,3-7.29,1.6-2.62-1.27-3.37-3.3-2.5-5.38s3.91-3.17,6.64-2.12C185.22,108.52,185.49,110.89,184.62,113Z"/>
              <path class="cls-4" d="M184.72,113a5.09,5.09,0,0,1-2.93,2.63,6.27,6.27,0,0,1-4.19.17,7.5,7.5,0,0,1-1.94-1,5.29,5.29,0,0,1-1.55-1.7,4.43,4.43,0,0,1-.55-2.33,4.92,4.92,0,0,1,.62-2.19,5.12,5.12,0,0,1,3.54-2.45,6.7,6.7,0,0,1,4.06.46,5.89,5.89,0,0,1,3,2.59A4.67,4.67,0,0,1,184.72,113Zm-.2-.08a3.39,3.39,0,0,0-.16-3.48,5.89,5.89,0,0,0-3-1.85,5.56,5.56,0,0,0-3.35-.11,3.61,3.61,0,0,0-2.36,1.87,2.7,2.7,0,0,0,.2,2.71,6,6,0,0,0,2.44,1.77,8.13,8.13,0,0,0,3.23.71A3.26,3.26,0,0,0,184.52,112.94Z"/>
            </g>
            <g>
              <path class="cls-3" d="M192,116.74c-.88,2.09-4,3.16-6.45,1.91a3.72,3.72,0,0,1-1.89-5.16,4.7,4.7,0,0,1,5.91-2.39C192.72,112.34,192.83,114.66,192,116.74Z"/>
              <path class="cls-4" d="M192.05,116.78a5.26,5.26,0,0,1-2.47,2.68,5,5,0,0,1-3.93.38,5.58,5.58,0,0,1-1.83-1,4.21,4.21,0,0,1-1.28-1.8,4.31,4.31,0,0,1-.22-2.18,5.87,5.87,0,0,1,.65-1.93,5.37,5.37,0,0,1,6.88-2.25,4.52,4.52,0,0,1,2.53,2.63A5.38,5.38,0,0,1,192.05,116.78Zm-.19-.08a3.66,3.66,0,0,0,.11-3.24,4.24,4.24,0,0,0-2.52-1.82,4,4,0,0,0-5,2,3.06,3.06,0,0,0,0,2.58,4,4,0,0,0,1.94,1.65,5.75,5.75,0,0,0,2.85.51A3.16,3.16,0,0,0,191.86,116.7Z"/>
            </g>
            <g>
              <path class="cls-3" d="M200,118a4.81,4.81,0,0,1-5.74,3.71c-2.42-.69-4.45-1.86-4.08-5.1.25-2.24,3.81-3.71,6.28-3.25C199.8,114,200.3,115.78,200,118Z"/>
              <path class="cls-4" d="M200.05,118a6.17,6.17,0,0,1-1.77,3.41,4.56,4.56,0,0,1-4,1.36,8.29,8.29,0,0,1-2-.61A5.76,5.76,0,0,1,190.5,121a4.53,4.53,0,0,1-1.12-2,5.62,5.62,0,0,1-.1-2.15,2.77,2.77,0,0,1,.1-.56,1.94,1.94,0,0,1,.2-.57,3.58,3.58,0,0,1,.64-1,5.63,5.63,0,0,1,1.71-1.21,7.69,7.69,0,0,1,3.89-.7,7,7,0,0,1,1.89.52,3.84,3.84,0,0,1,2.34,4.73Zm-.21,0a4.69,4.69,0,0,0,0-1.79,2.46,2.46,0,0,0-.88-1.46,5.78,5.78,0,0,0-3.24-.91,6.29,6.29,0,0,0-3.2.86A2.68,2.68,0,0,0,191,116.9a2.87,2.87,0,0,0,1,2.55,8.2,8.2,0,0,0,2.76,1.29,4.41,4.41,0,0,0,2.94-.22A3.73,3.73,0,0,0,199.84,118Z"/>
            </g>
            <g>
              <path class="cls-3" d="M205.74,120.22a3.9,3.9,0,0,1-4.65,3c-2-.56-3.61-1.5-3.31-4.14.2-1.81,3.09-3,5.09-2.63C205.62,117,206,118.42,205.74,120.22Z"/>
              <path class="cls-4" d="M205.84,120.24a5.24,5.24,0,0,1-1.39,2.85,3.74,3.74,0,0,1-3.35,1.21,7.12,7.12,0,0,1-1.64-.5,4.68,4.68,0,0,1-1.52-1A3.86,3.86,0,0,1,197,121a5,5,0,0,1-.07-1.8,2.87,2.87,0,0,1,.26-1,3.42,3.42,0,0,1,.56-.81,4.48,4.48,0,0,1,1.43-1,6.32,6.32,0,0,1,3.22-.56,5.58,5.58,0,0,1,1.55.46,3.56,3.56,0,0,1,1.3.94A3.68,3.68,0,0,1,205.84,120.24Zm-.2,0a2.51,2.51,0,0,0-.69-2.61,4.78,4.78,0,0,0-2.61-.67,5.07,5.07,0,0,0-2.53.71,3.07,3.07,0,0,0-.91.79,1.48,1.48,0,0,0-.24.44.52.52,0,0,0,0,.21,1,1,0,0,0,0,.27,2.15,2.15,0,0,0,.78,1.91,7.26,7.26,0,0,0,2.15,1,3.6,3.6,0,0,0,2.28-.08A2.84,2.84,0,0,0,205.64,120.21Z"/>
            </g>
            <g>
              <path class="cls-3" d="M209.13,127.08c-2.42-.26-5.45-1.93-5-4.15.43-2,2.16-3.42,5.69-3.16a4.22,4.22,0,0,1,3.53,4.87C213,126.32,211.56,127.34,209.13,127.08Z"/>
              <path class="cls-4" d="M209.12,127.18a13.45,13.45,0,0,1-3.39-.66,4.94,4.94,0,0,1-1.65-1,3.13,3.13,0,0,1-1-2,4.23,4.23,0,0,1,1.94-3.69,6.57,6.57,0,0,1,3.71-.92,8.27,8.27,0,0,1,1.85.21,4.37,4.37,0,0,1,1.72,1,5.08,5.08,0,0,1,1.64,3.29,3.4,3.4,0,0,1-1.51,3.2A5.42,5.42,0,0,1,209.12,127.18Zm0-.2a3.61,3.61,0,0,0,3-.75,2.9,2.9,0,0,0,.74-2.71,3.91,3.91,0,0,0-1.47-2.39,2.84,2.84,0,0,0-1.21-.53,6.81,6.81,0,0,0-1.44,0,4.53,4.53,0,0,0-2.55.92,3,3,0,0,0-.73.91,2.27,2.27,0,0,0,.8,3.15A5.48,5.48,0,0,0,209.14,127Z"/>
            </g>
          </g>
          <g>
            <g>
              <path class="cls-3" d="M138,94.2c.12,2.35-2.34,4.64-5.08,4.64s-5.53-1-5.65-3.4S129.66,90,132.4,90,137.89,91.86,138,94.2Z"/>
              <path class="cls-4" d="M138.11,94.2A5.3,5.3,0,0,1,136.74,98a5.36,5.36,0,0,1-3.88,1.93,7.93,7.93,0,0,1-4.18-.92,4.8,4.8,0,0,1-1.74-1.65,3.66,3.66,0,0,1-.49-2.41,6.38,6.38,0,0,1,2.06-3.75,5.56,5.56,0,0,1,3.86-1.64,6.54,6.54,0,0,1,3.74,1.41A4.89,4.89,0,0,1,138.11,94.2Zm-.21,0a3.54,3.54,0,0,0-2-2.92,6.63,6.63,0,0,0-3.49-.73,5.08,5.08,0,0,0-4.26,4.49,2.11,2.11,0,0,0,1.51,2.07,10.09,10.09,0,0,0,3.24.67A5.69,5.69,0,0,0,136,97.1,3.41,3.41,0,0,0,137.9,94.21Z"/>
            </g>
            <g>
              <path class="cls-3" d="M145.8,97c.12,2.35-2.34,4.64-5.08,4.64s-5.54-1.05-5.65-3.4,2.39-5.41,5.13-5.41S145.69,94.64,145.8,97Z"/>
              <path class="cls-4" d="M145.91,97a5.38,5.38,0,0,1-1.37,3.76,5.33,5.33,0,0,1-3.88,1.92,8,8,0,0,1-4.19-.92,4.8,4.8,0,0,1-1.74-1.65,3.77,3.77,0,0,1-.49-2.41,6.51,6.51,0,0,1,2.06-3.75,5.64,5.64,0,0,1,3.86-1.64,6.57,6.57,0,0,1,3.75,1.41A4.89,4.89,0,0,1,145.91,97Zm-.21,0a3.54,3.54,0,0,0-2-2.92,6.69,6.69,0,0,0-3.5-.73,5.1,5.1,0,0,0-4.26,4.49,2.14,2.14,0,0,0,1.51,2.07,9.64,9.64,0,0,0,3.25.67,5.66,5.66,0,0,0,3.14-.69A3.39,3.39,0,0,0,145.7,97Z"/>
            </g>
            <g>
              <path class="cls-3" d="M154.3,100.19c-.72,2.23-3.89,3.69-6.53,2.93s-5-2.52-4.25-4.75,4.21-4.4,6.85-3.64S155,98,154.3,100.19Z"/>
              <path class="cls-4" d="M154.4,100.22a5.82,5.82,0,0,1-2.53,3.11,5.6,5.6,0,0,1-4.24.83,7.88,7.88,0,0,1-3.83-2,4.39,4.39,0,0,1-1.22-2.12,3.54,3.54,0,0,1,.36-2.46,6.87,6.87,0,0,1,3.17-2.86,5.61,5.61,0,0,1,7.43,1.76A4.43,4.43,0,0,1,154.4,100.22Zm-.2-.06a3.26,3.26,0,0,0-1-3.38A6.17,6.17,0,0,0,150,95.19a5,5,0,0,0-3.28.74,5.45,5.45,0,0,0-2.29,2.38c-.85,1.83,1.63,3.13,3.7,3.83a6.41,6.41,0,0,0,3.28.17A3.7,3.7,0,0,0,154.2,100.16Z"/>
            </g>
            <g>
              <path class="cls-3" d="M158.9,104.86c.1,2-1.73,3.71-4.09,3.71a4.26,4.26,0,0,1-4.45-3.71c-.1-2,1.73-3.7,4.09-3.7A4.26,4.26,0,0,1,158.9,104.86Z"/>
              <path class="cls-4" d="M159,104.86a4.4,4.4,0,0,1-1,3.18,4.47,4.47,0,0,1-3.3,1.57,5.08,5.08,0,0,1-3.53-1.26,4.72,4.72,0,0,1-1.64-3.45,4.06,4.06,0,0,1,1.68-3.3,5,5,0,0,1,3.36-1A4.85,4.85,0,0,1,159,104.86Zm-.21,0a3,3,0,0,0-1.49-2.51,4.76,4.76,0,0,0-2.77-.68,3.9,3.9,0,0,0-2.48,1,2.57,2.57,0,0,0-.87,2.17,2.76,2.76,0,0,0,1.26,1.91,4.83,4.83,0,0,0,2.28.79,5,5,0,0,0,2.55-.35A2.52,2.52,0,0,0,158.8,104.87Z"/>
            </g>
            <g>
              <path class="cls-3" d="M165.67,107.88a4.13,4.13,0,0,1-4.42,4.09,4.65,4.65,0,0,1-4.83-4.09,4.14,4.14,0,0,1,4.42-4.1A4.66,4.66,0,0,1,165.67,107.88Z"/>
              <path class="cls-4" d="M165.77,107.87a4.75,4.75,0,0,1-4.65,5.14,5.46,5.46,0,0,1-3.8-1.39,5.14,5.14,0,0,1-1.73-3.7,4.46,4.46,0,0,1,1.75-3.58,5.4,5.4,0,0,1,3.62-1.08A5.24,5.24,0,0,1,165.77,107.87Zm-.21,0A3.43,3.43,0,0,0,164,105.1a5.1,5.1,0,0,0-3-.79,4.14,4.14,0,0,0-2.72,1.07,2.94,2.94,0,0,0-1,2.46,3.11,3.11,0,0,0,1.38,2.18,5.49,5.49,0,0,0,5.31.44A2.87,2.87,0,0,0,165.56,107.88Z"/>
            </g>
            <g>
              <path class="cls-3" d="M172.5,112.36a4.13,4.13,0,0,1-4.42,4.09,4.65,4.65,0,0,1-4.82-4.09c-.11-2.26,2.61-5,5.16-5S172.39,110.1,172.5,112.36Z"/>
              <path class="cls-4" d="M172.61,112.35a4.71,4.71,0,0,1-1.24,3.56,4.86,4.86,0,0,1-3.8,1.57,5.47,5.47,0,0,1-3.84-1.77,4.83,4.83,0,0,1-1.25-4.12,6.06,6.06,0,0,1,2.21-3.38,5.85,5.85,0,0,1,3.67-1.39,3.62,3.62,0,0,1,1.92.62,4.47,4.47,0,0,1,1.28,1.43A8.84,8.84,0,0,1,172.61,112.35Zm-.21,0a5.17,5.17,0,0,0-1.2-3.23,3.38,3.38,0,0,0-2.83-1.27,5.12,5.12,0,0,0-4.24,4,2.89,2.89,0,0,0,1.07,2.39,5,5,0,0,0,2.54,1.14,5,5,0,0,0,2.94-.36A3,3,0,0,0,172.4,112.36Z"/>
            </g>
            <g>
              <path class="cls-3" d="M176.59,119a5.08,5.08,0,0,1-6.49-.92,3.74,3.74,0,0,1,.74-5.72c2-1.33,6.21-.9,7.8.94S178.59,117.72,176.59,119Z"/>
              <path class="cls-4" d="M176.65,119.13a6.45,6.45,0,0,1-3.61,1.18,5,5,0,0,1-3.81-1.6,4.56,4.56,0,0,1-1-4.3,4.87,4.87,0,0,1,3-3.13,7.83,7.83,0,0,1,4-.24,6.79,6.79,0,0,1,3.55,1.64,3,3,0,0,1,.91,1.87,3.42,3.42,0,0,1-.47,1.91A8.78,8.78,0,0,1,176.65,119.13Zm-.12-.18a5.2,5.2,0,0,0,2.23-2.67,2.79,2.79,0,0,0,.09-1.61,2.34,2.34,0,0,0-.83-1.22,5.82,5.82,0,0,0-3-1.07,6.46,6.46,0,0,0-3.16.45,2.89,2.89,0,0,0-1.62,2.08,3.31,3.31,0,0,0,.63,2.47,5.34,5.34,0,0,0,2.37,1.82A3.75,3.75,0,0,0,176.53,119Z"/>
            </g>
            <g>
              <path class="cls-3" d="M184.14,122.63a5.08,5.08,0,0,1-6.49-.92,3.74,3.74,0,0,1,.74-5.72c2-1.33,6.21-.9,7.8.94S186.14,121.31,184.14,122.63Z"/>
              <path class="cls-4" d="M184.2,122.72a6.45,6.45,0,0,1-3.61,1.18,5,5,0,0,1-3.81-1.6,4.56,4.56,0,0,1-1-4.3,4.87,4.87,0,0,1,3-3.13,7.83,7.83,0,0,1,4-.24,6.79,6.79,0,0,1,3.55,1.64,3,3,0,0,1,.91,1.87,3.4,3.4,0,0,1-.47,1.91A8.78,8.78,0,0,1,184.2,122.72Zm-.12-.17a5.26,5.26,0,0,0,2.23-2.68,2.79,2.79,0,0,0,.09-1.61,2.34,2.34,0,0,0-.83-1.22,5.82,5.82,0,0,0-3-1.07,6.46,6.46,0,0,0-3.16.45,2.89,2.89,0,0,0-1.62,2.08,3.3,3.3,0,0,0,.63,2.47,5.2,5.2,0,0,0,2.37,1.82A3.78,3.78,0,0,0,184.08,122.55Z"/>
            </g>
            <g>
              <path class="cls-3" d="M193.5,121.86c.1,2-1.73,3.71-4.08,3.71a4.26,4.26,0,0,1-4.45-3.71c-.1-2,1.73-3.71,4.08-3.71A4.26,4.26,0,0,1,193.5,121.86Z"/>
              <path class="cls-4" d="M193.61,121.86a4.37,4.37,0,0,1-1,3.17,4.44,4.44,0,0,1-3.29,1.58,5.08,5.08,0,0,1-3.53-1.27,4.7,4.7,0,0,1-1.63-3.44,4.09,4.09,0,0,1,1.67-3.31,5.06,5.06,0,0,1,3.35-1A4.88,4.88,0,0,1,193.61,121.86Zm-.21,0a3,3,0,0,0-1.48-2.51,4.81,4.81,0,0,0-2.78-.68,3.83,3.83,0,0,0-2.47,1,2.55,2.55,0,0,0-.86,2.18,2.69,2.69,0,0,0,1.26,1.91,4.86,4.86,0,0,0,2.27.79,4.93,4.93,0,0,0,2.54-.35A2.53,2.53,0,0,0,193.4,121.87Z"/>
            </g>
            <g>
              <path class="cls-3" d="M202,124.26c.1,2.17-2.07,3.94-4.86,3.94s-5.14-1.77-5.24-3.94,2.07-3.94,4.85-3.94S201.87,122.08,202,124.26Z"/>
              <path class="cls-4" d="M202.08,124.25a4.38,4.38,0,0,1-1.4,3.45,5.51,5.51,0,0,1-3.69,1.54,6.23,6.23,0,0,1-3.9-1.22A4.88,4.88,0,0,1,191,124.3a4.25,4.25,0,0,1,2.06-3.59,6.31,6.31,0,0,1,3.75-.91,5.93,5.93,0,0,1,3.45,1.37A4.61,4.61,0,0,1,202.08,124.25Zm-.21,0a3.26,3.26,0,0,0-1.81-2.73,6.34,6.34,0,0,0-3.23-.69,5.17,5.17,0,0,0-3,1,2.71,2.71,0,0,0-1.17,2.38,2.91,2.91,0,0,0,1.55,2.1,6.54,6.54,0,0,0,2.77.84,6.67,6.67,0,0,0,3-.37A2.74,2.74,0,0,0,201.87,124.26Z"/>
            </g>
            <g>
              <path class="cls-3" d="M209.83,128.27c.11,2.18-2.07,3.94-4.85,3.94s-5.14-1.76-5.25-3.94,2.07-3.94,4.86-3.94S209.73,126.1,209.83,128.27Z"/>
              <path class="cls-4" d="M209.94,128.27a4.42,4.42,0,0,1-1.4,3.45,5.47,5.47,0,0,1-3.69,1.53,6.19,6.19,0,0,1-3.91-1.21,4.92,4.92,0,0,1-2-3.73,4.25,4.25,0,0,1,2.06-3.58,6.39,6.39,0,0,1,3.75-.92,6,6,0,0,1,3.45,1.37A4.65,4.65,0,0,1,209.94,128.27Zm-.21,0a3.28,3.28,0,0,0-1.82-2.74,6.19,6.19,0,0,0-3.22-.68,5.2,5.2,0,0,0-3,1,2.71,2.71,0,0,0-1.16,2.38,2.91,2.91,0,0,0,1.55,2.1,6.35,6.35,0,0,0,2.77.83,6.67,6.67,0,0,0,3-.36A2.77,2.77,0,0,0,209.73,128.28Z"/>
            </g>
          </g>
          <g>
            <g>
              <ellipse class="cls-3" cx="130.23" cy="102.55" rx="4.01" ry="4.89" transform="translate(15 221.7) rotate(-84.18)"/>
              <path class="cls-4" d="M135.21,102.54a4.53,4.53,0,0,1-1.27,3.46,5.15,5.15,0,0,1-3.64,1.6,5.86,5.86,0,0,1-3.87-1.29,5,5,0,0,1-1.91-3.72A4.33,4.33,0,0,1,126.45,99a5.91,5.91,0,0,1,3.7-1A5.39,5.39,0,0,1,135.21,102.54Zm-.21,0a3.36,3.36,0,0,0-1.72-2.76,5.7,5.7,0,0,0-3.15-.73,4.68,4.68,0,0,0-2.86,1,2.81,2.81,0,0,0-1.08,2.43,3,3,0,0,0,1.48,2.14,5.85,5.85,0,0,0,2.67.86,6.13,6.13,0,0,0,2.93-.4A2.83,2.83,0,0,0,135,102.55Z"/>
            </g>
            <g>
              <path class="cls-3" d="M144.12,105.33a4.43,4.43,0,0,1-4.66,4.48,5,5,0,0,1-5.09-4.48,4.42,4.42,0,0,1,4.66-4.48A5,5,0,0,1,144.12,105.33Z"/>
              <path class="cls-4" d="M144.22,105.32A5.13,5.13,0,0,1,143.1,109a5,5,0,0,1-3.77,1.84,5.66,5.66,0,0,1-4-1.55,5.57,5.57,0,0,1-1.78-3.93,4.89,4.89,0,0,1,1.78-3.82,5.45,5.45,0,0,1,3.84-1.22,5.32,5.32,0,0,1,3.5,1.64A5.49,5.49,0,0,1,144.22,105.32Zm-.2,0a3.82,3.82,0,0,0-1.66-3,5.29,5.29,0,0,0-3.23-.93,4.35,4.35,0,0,0-2.92,1.19,3.35,3.35,0,0,0-1,2.73,3.54,3.54,0,0,0,1.45,2.45,5.45,5.45,0,0,0,5.7.44A3.23,3.23,0,0,0,144,105.33Z"/>
            </g>
            <g>
              <path class="cls-3" d="M151.34,110.06c-1.54,2.3-4.51,3.21-6.62,2s-2.57-4-1-6.27,4.51-3.2,6.62-2S152.89,107.77,151.34,110.06Z"/>
              <path class="cls-4" d="M151.43,110.12a8,8,0,0,1-2.75,2.7,4.73,4.73,0,0,1-4.23.31,4.45,4.45,0,0,1-2.64-3.65,6,6,0,0,1,1.19-4.12,6.65,6.65,0,0,1,3.32-2.4,5.21,5.21,0,0,1,4,.28,3.93,3.93,0,0,1,2.06,3.29A6.24,6.24,0,0,1,151.43,110.12Zm-.17-.12a4.17,4.17,0,0,0,.73-3.4,3.51,3.51,0,0,0-2.09-2.42,4,4,0,0,0-3.12.06,5.07,5.07,0,0,0-2.39,2.06,4,4,0,0,0-.54,2.87,3.09,3.09,0,0,0,1.51,2.08,4.67,4.67,0,0,0,2.94.52A4.49,4.49,0,0,0,151.26,110Z"/>
            </g>
            <g>
              <ellipse class="cls-3" cx="154.22" cy="112.1" rx="4.7" ry="4" transform="translate(-8.71 13.08) rotate(-4.72)"/>
              <path class="cls-4" d="M156.59,115.62a7.48,7.48,0,0,1-3.46,1,4.58,4.58,0,0,1-3.64-1.54,4.22,4.22,0,0,1-.79-4.18,5.34,5.34,0,0,1,2.82-2.93,5.83,5.83,0,0,1,7,1.56,3.71,3.71,0,0,1,.41,3.61A5.28,5.28,0,0,1,156.59,115.62Zm-.09-.19a3.59,3.59,0,0,0,2.05-2.46,3.25,3.25,0,0,0-.83-2.83,4.47,4.47,0,0,0-5.44-.71,3.21,3.21,0,0,0-1.6,2,2.84,2.84,0,0,0,.45,2.27,4.83,4.83,0,0,0,2.18,1.73A4.07,4.07,0,0,0,156.5,115.43Z"/>
            </g>
            <g>
              <path class="cls-3" d="M163.34,119.08a5.1,5.1,0,0,1-6.41-1.35c-1.28-1.89-.5-4.35,1.76-5.5a5.09,5.09,0,0,1,6.4,1.35C166.37,115.47,165.59,117.94,163.34,119.08Z"/>
              <path class="cls-4" d="M163.38,119.17a7.49,7.49,0,0,1-3.46,1,4.65,4.65,0,0,1-3.64-1.54,4.23,4.23,0,0,1-.79-4.18,5.27,5.27,0,0,1,2.82-2.93,5.81,5.81,0,0,1,7,1.55,3.71,3.71,0,0,1,.42,3.61A5.24,5.24,0,0,1,163.38,119.17Zm-.09-.18a3.57,3.57,0,0,0,2-2.47,3.22,3.22,0,0,0-.82-2.83,4.47,4.47,0,0,0-5.44-.71,3.24,3.24,0,0,0-1.6,2,2.83,2.83,0,0,0,.45,2.27A4.77,4.77,0,0,0,160.1,119,4.06,4.06,0,0,0,163.29,119Z"/>
            </g>
            <g>
              <ellipse class="cls-3" cx="167.4" cy="120.62" rx="4.34" ry="5.13" transform="translate(24.78 269.72) rotate(-82.05)"/>
              <path class="cls-4" d="M167.33,125.07a7.8,7.8,0,0,1-3.77-1,4.5,4.5,0,0,1-2.32-3.63,4.61,4.61,0,0,1,2.09-4,6.6,6.6,0,0,1,4.17-1,6.51,6.51,0,0,1,3.81,1.61,4.91,4.91,0,0,1,1.73,3.73,4.12,4.12,0,0,1-2.06,3.36A6.86,6.86,0,0,1,167.33,125.07Zm0-.21a4.48,4.48,0,0,0,3.38-1.08,3.57,3.57,0,0,0-.27-5.68,5.11,5.11,0,0,0-3-1,4.42,4.42,0,0,0-2.86,1,3.3,3.3,0,0,0-1.23,2.33,4.1,4.1,0,0,0,.94,2.79A4.41,4.41,0,0,0,167.34,124.86Z"/>
            </g>
            <g>
              <path class="cls-3" d="M176.39,128.52c-2.83-.14-5.09-2.2-5.06-4.6s2.36-4.23,5.18-4.09,5.09,2.2,5.06,4.6S179.22,128.66,176.39,128.52Z"/>
              <path class="cls-4" d="M176.39,128.62a7.82,7.82,0,0,1-3.78-1,4.5,4.5,0,0,1-2.32-3.64,4.58,4.58,0,0,1,2.1-4,6.52,6.52,0,0,1,4.16-1,6.64,6.64,0,0,1,3.82,1.62,4.9,4.9,0,0,1,1.72,3.73,4.09,4.09,0,0,1-2.06,3.35A6.76,6.76,0,0,1,176.39,128.62Zm0-.2a4.55,4.55,0,0,0,3.37-1.08,3.65,3.65,0,0,0,1.27-3,3.7,3.7,0,0,0-1.54-2.7,5.18,5.18,0,0,0-3-1,4.43,4.43,0,0,0-2.85,1,3.31,3.31,0,0,0-1.24,2.33,4.13,4.13,0,0,0,1,2.8A4.49,4.49,0,0,0,176.4,128.42Z"/>
            </g>
            <g>
              <path class="cls-3" d="M185.28,132.38c-2.82-.14-5.09-2.2-5.05-4.6s2.35-4.23,5.18-4.09,5.09,2.2,5.05,4.6S188.11,132.52,185.28,132.38Z"/>
              <path class="cls-4" d="M185.28,132.49a7.77,7.77,0,0,1-3.77-1,4.48,4.48,0,0,1-2.32-3.64,4.58,4.58,0,0,1,2.09-4,6.55,6.55,0,0,1,4.17-1,6.64,6.64,0,0,1,3.81,1.62A4.87,4.87,0,0,1,191,128.2a4.07,4.07,0,0,1-2,3.35A6.87,6.87,0,0,1,185.28,132.49Zm0-.21a4.54,4.54,0,0,0,3.37-1.08,3.64,3.64,0,0,0,1.28-3,3.71,3.71,0,0,0-1.55-2.7,5.12,5.12,0,0,0-3-1,4.39,4.39,0,0,0-2.86,1,3.24,3.24,0,0,0-1.23,2.33,4.1,4.1,0,0,0,.94,2.79A4.49,4.49,0,0,0,185.29,132.28Z"/>
            </g>
            <g>
              <path class="cls-3" d="M193.86,133.94c-2.65-.13-4.77-1.77-4.75-3.67s2.2-3.33,4.85-3.2,4.77,1.78,4.75,3.68S196.51,134.07,193.86,133.94Z"/>
              <path class="cls-4" d="M193.86,134.05a9.51,9.51,0,0,1-3.38-.6,4.24,4.24,0,0,1-1.58-1.1,3.39,3.39,0,0,1-.83-2,3.43,3.43,0,0,1,.64-2.17,4.34,4.34,0,0,1,1.6-1.34,7,7,0,0,1,3.69-.61,7.14,7.14,0,0,1,3.41,1.22,4,4,0,0,1,1.82,3.21,2.84,2.84,0,0,1-.69,1.75,3.73,3.73,0,0,1-1.43,1A8,8,0,0,1,193.86,134.05Zm0-.21a4.6,4.6,0,0,0,3-.77,2.72,2.72,0,0,0,1.28-2.39,2.78,2.78,0,0,0-1.52-2.08,5.55,5.55,0,0,0-2.74-.69,4.7,4.7,0,0,0-2.6.75,2.31,2.31,0,0,0-1.16,1.67,3,3,0,0,0,.94,2.19A4.4,4.4,0,0,0,193.87,133.84Z"/>
            </g>
            <g>
              <ellipse class="cls-3" cx="200.85" cy="133.6" rx="4.65" ry="3.55" transform="matrix(0.96, -0.26, 0.26, 0.96, -28.14, 57.76)"/>
              <path class="cls-4" d="M202.87,136.73a8.94,8.94,0,0,1-3.24,1,4.09,4.09,0,0,1-3.58-1.31,3.63,3.63,0,0,1-.85-2,3.8,3.8,0,0,1,.45-2.1,5.86,5.86,0,0,1,2.86-2.51,6.85,6.85,0,0,1,3.57-.5,4.62,4.62,0,0,1,3.16,1.76,3.16,3.16,0,0,1,.57,1.77,3.25,3.25,0,0,1-.5,1.69A6.29,6.29,0,0,1,202.87,136.73Zm-.09-.19a3.81,3.81,0,0,0,2.13-2.2,2.56,2.56,0,0,0-.49-2.63,3.43,3.43,0,0,0-2.47-1,5.18,5.18,0,0,0-2.71.65,3.68,3.68,0,0,0-1.71,1.88,2,2,0,0,0,.17,2,3.91,3.91,0,0,0,2,1.49A4.26,4.26,0,0,0,202.78,136.54Z"/>
            </g>
          </g>
          <g>
            <g>
              <ellipse class="cls-3" cx="131.16" cy="110.89" rx="4.16" ry="4.89" transform="matrix(0.13, -0.99, 0.99, 0.13, 4.2, 226.57)"/>
              <path class="cls-4" d="M136.14,110.89a4.71,4.71,0,0,1-1.22,3.53,5.07,5.07,0,0,1-3.68,1.68,5.8,5.8,0,0,1-3.93-1.37,5.22,5.22,0,0,1-1.86-3.8,4.52,4.52,0,0,1,1.87-3.67,5.79,5.79,0,0,1,3.76-1.06A5.44,5.44,0,0,1,136.14,110.89Zm-.21,0a3.48,3.48,0,0,0-1.7-2.86,5.55,5.55,0,0,0-3.17-.79,4.53,4.53,0,0,0-2.88,1.07,3,3,0,0,0-1.06,2.53,3.19,3.19,0,0,0,1.47,2.25,5.57,5.57,0,0,0,2.68.91,5.75,5.75,0,0,0,2.95-.46A2.93,2.93,0,0,0,135.93,110.9Z"/>
            </g>
            <g>
              <path class="cls-3" d="M145.77,114.06a4.71,4.71,0,0,1-5,4.71,5.29,5.29,0,0,1-5.45-4.71,4.71,4.71,0,0,1,5-4.72A5.3,5.3,0,0,1,145.77,114.06Z"/>
              <path class="cls-4" d="M145.87,114.05a5.33,5.33,0,0,1-5.24,5.76,6,6,0,0,1-4.23-1.59,5.75,5.75,0,0,1-1.92-4.12,5.07,5.07,0,0,1,1.9-4,5.87,5.87,0,0,1,9.49,4Zm-.21,0a4.06,4.06,0,0,0-1.78-3.21,5.73,5.73,0,0,0-3.46-1,4.7,4.7,0,0,0-3.14,1.25,3.47,3.47,0,0,0-1.12,2.9,3.73,3.73,0,0,0,1.57,2.62,6,6,0,0,0,6.16.45A3.44,3.44,0,0,0,145.66,114.06Z"/>
            </g>
            <g>
              <ellipse class="cls-3" cx="149.42" cy="117.53" rx="4.77" ry="4.41" transform="translate(-9.81 13.67) rotate(-5.07)"/>
              <path class="cls-4" d="M153.76,119.54a6.22,6.22,0,0,1-2.66,2.69,5,5,0,0,1-7.14-2.79,5.15,5.15,0,0,1,.47-4.26,5.69,5.69,0,0,1,7.21-2.15,4.59,4.59,0,0,1,2.47,2.89A4.92,4.92,0,0,1,153.76,119.54Zm-.18-.1a3.47,3.47,0,0,0,.12-3.36,4.48,4.48,0,0,0-7.8-.1,3.13,3.13,0,0,0,0,2.72,4.07,4.07,0,0,0,1.91,1.89,5.53,5.53,0,0,0,3,.58A3.72,3.72,0,0,0,153.58,119.44Z"/>
            </g>
            <g>
              <path class="cls-3" d="M162.82,122.33c-1,1.79-3.67,2.36-6,1.29s-3.46-3.41-2.48-5.2,3.68-2.36,6-1.28S163.8,120.54,162.82,122.33Z"/>
              <path class="cls-4" d="M162.92,122.38a5.27,5.27,0,0,1-6.4,2.25,5.42,5.42,0,0,1-3-2.54,4.21,4.21,0,0,1,0-4.07,4.43,4.43,0,0,1,3.28-2,6.14,6.14,0,0,1,3.55.59C162.58,117.6,164,120.28,162.92,122.38Zm-.19-.1a2.7,2.7,0,0,0-.24-3,5.28,5.28,0,0,0-2.48-1.73,5,5,0,0,0-2.9-.21,2.9,2.9,0,0,0-2.05,1.48,2.22,2.22,0,0,0,.3,2.22,5.25,5.25,0,0,0,2,1.66,6.87,6.87,0,0,0,2.71.82A2.87,2.87,0,0,0,162.73,122.28Z"/>
            </g>
            <g>
              <path class="cls-3" d="M168.23,128.35c-1,1.79-4.13,2.11-6.28,1.13s-3.09-3.24-2.11-5,4.42-2.34,6.56-1.35A3.8,3.8,0,0,1,168.23,128.35Z"/>
              <path class="cls-4" d="M168.32,128.4a4.76,4.76,0,0,1-2.77,2.11,5.84,5.84,0,0,1-3.72.05,4.92,4.92,0,0,1-3-2.68,4.2,4.2,0,0,1,.39-4.07,5,5,0,0,1,3.4-1.76,7.07,7.07,0,0,1,3.56.41,4.06,4.06,0,0,1,2.37,2.61A4.61,4.61,0,0,1,168.32,128.4Zm-.18-.1a3.14,3.14,0,0,0,0-3.07,3.66,3.66,0,0,0-2.31-1.78,5.86,5.86,0,0,0-3-.06,3.49,3.49,0,0,0-2.25,1.35,2.2,2.2,0,0,0,.09,2.24,4.19,4.19,0,0,0,1.86,1.63,8.64,8.64,0,0,0,2.79.8A2.87,2.87,0,0,0,168.14,128.3Z"/>
            </g>
            <g>
              <path class="cls-3" d="M177.18,131c-.41,2.21-3.5,3.44-6,3a4.34,4.34,0,0,1-3.77-4.83c.41-2.21,3.72-3.77,6.22-3.31A4.49,4.49,0,0,1,177.18,131Z"/>
              <path class="cls-4" d="M177.28,131a4.73,4.73,0,0,1-2.21,3,5.87,5.87,0,0,1-3.9,1,5.38,5.38,0,0,1-3.71-2.09,4.8,4.8,0,0,1-.8-4.24,5,5,0,0,1,2.94-2.89,6.88,6.88,0,0,1,3.85-.52,4.48,4.48,0,0,1,3.1,2.18A5.42,5.42,0,0,1,177.28,131Zm-.2,0a3.78,3.78,0,0,0-.88-3.26,4.26,4.26,0,0,0-2.89-1.4,5.84,5.84,0,0,0-3.13.71,3.61,3.61,0,0,0-1.91,2.12,2.79,2.79,0,0,0,.8,2.48,4.63,4.63,0,0,0,2.42,1.33,7.63,7.63,0,0,0,3.13.06A3,3,0,0,0,177.08,130.94Z"/>
            </g>
            <g>
              <ellipse class="cls-3" cx="180.67" cy="133.6" rx="3.7" ry="4.88" transform="matrix(0.07, -1, 1, 0.07, 35.34, 304.99)"/>
              <path class="cls-4" d="M185.65,133.6a4.16,4.16,0,0,1-1.37,3.29,5.35,5.35,0,0,1-3.55,1.46,6.06,6.06,0,0,1-3.76-1.13,4.68,4.68,0,0,1-2-3.57,4,4,0,0,1,2-3.43,6.19,6.19,0,0,1,3.6-.84,5.83,5.83,0,0,1,3.32,1.29A4.4,4.4,0,0,1,185.65,133.6Zm-.21,0a3.08,3.08,0,0,0-1.77-2.58,6.3,6.3,0,0,0-3.09-.61,5.11,5.11,0,0,0-2.83.93,2.49,2.49,0,0,0-1.12,2.21,2.69,2.69,0,0,0,1.49,1.93,6.42,6.42,0,0,0,2.65.77,6.78,6.78,0,0,0,2.88-.3A2.56,2.56,0,0,0,185.44,133.61Z"/>
            </g>
            <g>
              <path class="cls-3" d="M194.18,136.2a4,4,0,0,1-4.31,4.05c-2.69,0-5-1.66-5.05-3.71s2-3.71,4.69-3.71S194.08,134.15,194.18,136.2Z"/>
              <path class="cls-4" d="M194.29,136.19a4.88,4.88,0,0,1-1,3.37,4.58,4.58,0,0,1-3.43,1.73,6.16,6.16,0,0,1-3.7-1,4.79,4.79,0,0,1-2.14-3.4,3.7,3.7,0,0,1,.42-2.05,4.27,4.27,0,0,1,1.32-1.47,6,6,0,0,1,3.49-1,6.07,6.07,0,0,1,3.34,1A3.88,3.88,0,0,1,194.29,136.19Zm-.21,0a2.73,2.73,0,0,0-1.72-2.48,6.35,6.35,0,0,0-3.08-.36,4.83,4.83,0,0,0-2.7,1.06,2.37,2.37,0,0,0-.91,2.23,2.81,2.81,0,0,0,1.57,1.85,6.79,6.79,0,0,0,2.62.7,4.86,4.86,0,0,0,2.67-.47A2.91,2.91,0,0,0,194.08,136.2Z"/>
            </g>
          </g>
          <g>
            <path class="cls-3" d="M141,119.85c.1,2-1.7,3.56-4,3.56s-5.13-1.68-5.23-3.64,2.57-3.47,4.88-3.47S140.9,117.89,141,119.85Z"/>
            <path class="cls-4" d="M141.1,119.85a4.15,4.15,0,0,1-1.16,3.2,4.56,4.56,0,0,1-3.45,1.38,6.41,6.41,0,0,1-3.47-1.22,6.26,6.26,0,0,1-1.36-1.36,3.67,3.67,0,0,1-.72-2,3.11,3.11,0,0,1,.66-2,4.82,4.82,0,0,1,1.43-1.22,7,7,0,0,1,3.37-.89A4.76,4.76,0,0,1,141.1,119.85Zm-.2,0a3,3,0,0,0-1.59-2.5,4.85,4.85,0,0,0-2.87-.53,5.73,5.73,0,0,0-2.68,1,2.19,2.19,0,0,0-1.15,1.94,2.76,2.76,0,0,0,1.54,1.71,8.26,8.26,0,0,0,2.51.88,5.19,5.19,0,0,0,2.63-.21A2.49,2.49,0,0,0,140.9,119.86Z"/>
          </g>
          <g>
            <path class="cls-3" d="M147.84,122.67a3.78,3.78,0,0,1-2.44,5.22c-2.32.76-5.91-.15-6.88-2.26s1-4.65,3.36-5.42A5,5,0,0,1,147.84,122.67Z"/>
            <path class="cls-4" d="M147.93,122.63a4.6,4.6,0,0,1,.25,3.74,4.44,4.44,0,0,1-3.13,2.68,6.86,6.86,0,0,1-4-.27,5.6,5.6,0,0,1-3.19-2.7,3.52,3.52,0,0,1-.25-2.23,4.48,4.48,0,0,1,.88-1.88,6.39,6.39,0,0,1,3.18-2.22,5.1,5.1,0,0,1,3.73.38A5.66,5.66,0,0,1,147.93,122.63Zm-.19.09a3.82,3.82,0,0,0-2.54-2.18,4.94,4.94,0,0,0-3.23.2,5.21,5.21,0,0,0-2.41,2,2.47,2.47,0,0,0-.24,2.59,3.62,3.62,0,0,0,2.33,1.48,8.17,8.17,0,0,0,3,.2,4.27,4.27,0,0,0,2.58-1.2A2.88,2.88,0,0,0,147.74,122.72Z"/>
          </g>
          <g>
            <path class="cls-3" d="M158,126.84c-.59,2-3.23,3.13-5.89,2.43s-4.33-2.93-3.74-5,3.23-3.13,5.89-2.43S158.61,124.79,158,126.84Z"/>
            <path class="cls-4" d="M158.12,126.87c-.59,2.36-3.54,4-6.19,3.42a5.9,5.9,0,0,1-3.47-2.09,4.49,4.49,0,0,1-.87-4.13,4.39,4.39,0,0,1,3-2.74,6.52,6.52,0,0,1,3.79,0,5.78,5.78,0,0,1,3,2.12A4.13,4.13,0,0,1,158.12,126.87Zm-.2-.06a3,3,0,0,0-.92-3,5.82,5.82,0,0,0-2.9-1.39,5.32,5.32,0,0,0-3.07.24,2.88,2.88,0,0,0-1.83,1.92,2.53,2.53,0,0,0,.82,2.32,6.31,6.31,0,0,0,2.42,1.42,7.23,7.23,0,0,0,3,.37A2.9,2.9,0,0,0,157.92,126.81Z"/>
          </g>
          <g>
            <path class="cls-3" d="M155.61,133c-.52,1.78-3,2.69-5.46,2s-4.11-2.64-3.59-4.42,3-2.69,5.46-2S156.12,131.26,155.61,133Z"/>
            <path class="cls-4" d="M155.71,133.07c-.59,2.18-3.39,3.55-5.78,3a5.82,5.82,0,0,1-3.22-1.83,4.86,4.86,0,0,1-1-1.74,3.5,3.5,0,0,1,0-2.1,3.92,3.92,0,0,1,2.89-2.44,6.53,6.53,0,0,1,3.46.12,5.78,5.78,0,0,1,2.77,1.89A3.66,3.66,0,0,1,155.71,133.07Zm-.2-.06a2.6,2.6,0,0,0-1-2.72,6.18,6.18,0,0,0-2.71-1.17,5.32,5.32,0,0,0-2.81.16,2.42,2.42,0,0,0-1.67,1.6,2.12,2.12,0,0,0,.84,2,6.65,6.65,0,0,0,2.25,1.24,7.84,7.84,0,0,0,2.72.45A2.48,2.48,0,0,0,155.51,133Z"/>
          </g>
          <g>
            <path class="cls-3" d="M164.12,130.86c-.58,2-3,3.09-5.44,2.45s-3.92-2.78-3.34-4.77,3-3.09,5.45-2.45S164.71,128.87,164.12,130.86Z"/>
            <path class="cls-4" d="M164.22,130.89a4.65,4.65,0,0,1-2.07,2.76,5,5,0,0,1-3.68.68,5.27,5.27,0,0,1-3.26-2.09,4.21,4.21,0,0,1,2.06-6.61,5.83,5.83,0,0,1,3.6-.06A4.68,4.68,0,0,1,164.22,130.89Zm-.2-.06a2.84,2.84,0,0,0-.75-2.9,5,5,0,0,0-2.66-1.35,4.65,4.65,0,0,0-2.82.31,2.82,2.82,0,0,0-1.64,1.88,2.47,2.47,0,0,0,.69,2.2,5.28,5.28,0,0,0,2.15,1.34,6.21,6.21,0,0,0,2.74.31A2.79,2.79,0,0,0,164,130.83Z"/>
          </g>
          <g>
            <path class="cls-3" d="M162.92,137.08c-.53,1.8-2.92,2.74-5.34,2.1s-4-2.62-3.44-4.42,2.91-2.75,5.34-2.1S163.44,135.28,162.92,137.08Z"/>
            <path class="cls-4" d="M163,137.11c-.54,2.13-3.25,3.63-5.66,3.09a5.57,5.57,0,0,1-3.18-1.87,4.09,4.09,0,0,1-.85-3.81,4,4,0,0,1,2.8-2.46,6.14,6.14,0,0,1,3.43.08,5.36,5.36,0,0,1,2.7,1.91A3.71,3.71,0,0,1,163,137.11Zm-.2-.06a2.6,2.6,0,0,0-.88-2.71,5.7,5.7,0,0,0-2.64-1.19,5,5,0,0,0-2.75.2,2.47,2.47,0,0,0-1.61,1.64,2.13,2.13,0,0,0,.78,1.95,6,6,0,0,0,2.16,1.24,7.25,7.25,0,0,0,2.66.42A2.51,2.51,0,0,0,162.82,137.05Z"/>
          </g>
          <g>
            <path class="cls-3" d="M170.81,133.93c-.6,2.08-3.05,3.24-5.48,2.6s-3.9-2.84-3.3-4.91,3.06-3.24,5.48-2.6S171.41,131.86,170.81,133.93Z"/>
            <path class="cls-4" d="M170.91,134a5,5,0,0,1-5.79,3.6,5.27,5.27,0,0,1-3.3-2.19,4.62,4.62,0,0,1-.59-4,4.51,4.51,0,0,1,2.7-2.75,5.62,5.62,0,0,1,3.66-.13A4.72,4.72,0,0,1,170.91,134Zm-.2-.06a3,3,0,0,0-.7-3,4.87,4.87,0,0,0-2.68-1.41,4.4,4.4,0,0,0-2.85.36,3,3,0,0,0-1.65,2,2.64,2.64,0,0,0,.66,2.3,4.85,4.85,0,0,0,2.15,1.38,5.79,5.79,0,0,0,2.77.26A2.9,2.9,0,0,0,170.71,133.9Z"/>
          </g>
          <g>
            <path class="cls-3" d="M179.38,139.73c-.66,2.26-3.34,3.53-6,2.83s-4.26-3.1-3.6-5.36,3.33-3.54,6-2.84S180,137.46,179.38,139.73Z"/>
            <path class="cls-4" d="M179.48,139.76a5.27,5.27,0,0,1-2.25,3.06,5.38,5.38,0,0,1-4,.77,5.67,5.67,0,0,1-3.55-2.35,4.74,4.74,0,0,1,2.25-7.25,6.19,6.19,0,0,1,4-.15A5.11,5.11,0,0,1,179.48,139.76Zm-.2-.06a3.32,3.32,0,0,0-.76-3.27,5.26,5.26,0,0,0-2.93-1.57,4.84,4.84,0,0,0-3.15.38,3.36,3.36,0,0,0-1.85,2.19,2.94,2.94,0,0,0,.71,2.58,5.35,5.35,0,0,0,2.4,1.55,6.22,6.22,0,0,0,3.08.24A3.26,3.26,0,0,0,179.28,139.7Z"/>
          </g>
          <g>
            <path class="cls-3" d="M170.37,140c-.53,1.8-2.81,2.77-5.11,2.16s-3.74-2.56-3.22-4.36,2.81-2.77,5.11-2.16S170.89,138.15,170.37,140Z"/>
            <path class="cls-4" d="M170.47,140a4.7,4.7,0,0,1-5.43,3.15,5.14,5.14,0,0,1-3.08-1.89,4.05,4.05,0,0,1-.72-3.72,4,4,0,0,1,2.65-2.46,5.63,5.63,0,0,1,3.35,0C169.35,135.72,171,137.9,170.47,140Zm-.2-.06a2.55,2.55,0,0,0-.78-2.65,5,5,0,0,0-2.51-1.18,4.38,4.38,0,0,0-2.62.25,2.46,2.46,0,0,0-1.52,1.64,2.13,2.13,0,0,0,.7,1.93,5.38,5.38,0,0,0,2,1.2,6.37,6.37,0,0,0,2.53.37A2.47,2.47,0,0,0,170.27,139.92Z"/>
          </g>
          <g>
            <path class="cls-3" d="M188.74,140.56c.09,1.76-1.87,3-4.57,3s-5.44-.88-5.53-2.65a4.88,4.88,0,0,1,4.58-4.52C185.92,136.35,188.65,138.8,188.74,140.56Z"/>
            <path class="cls-4" d="M188.85,140.55a3.39,3.39,0,0,1-1.86,3,6.6,6.6,0,0,1-3.61,1,7.79,7.79,0,0,1-3.7-.89,3.93,3.93,0,0,1-1.61-1.56,2.71,2.71,0,0,1-.31-1.24,4.06,4.06,0,0,1,.19-1.08,6,6,0,0,1,2.31-3.07,4.84,4.84,0,0,1,3.68-.81,6.27,6.27,0,0,1,3.14,1.72A5.61,5.61,0,0,1,188.85,140.55Zm-.21,0A3.68,3.68,0,0,0,186.8,138a6.81,6.81,0,0,0-3-1,4.16,4.16,0,0,0-4.24,3.28,2.07,2.07,0,0,0,0,.6.76.76,0,0,0,.15.37,2.07,2.07,0,0,0,.93.63,11.54,11.54,0,0,0,2.89.65,11.36,11.36,0,0,0,3.08.1,2.88,2.88,0,0,0,1.4-.6A1.8,1.8,0,0,0,188.64,140.57Z"/>
          </g>
        </g>
        <g>
          <g>
            <path class="cls-4" d="M155.15,84.14c13.4,2.51,35.86,10.67,48,22.68,4.88,4.85,10.43,12.24,16.93,12,2.91-.11,7.79-2.28,8.2-8.73,1.06-16.37-7.2-25-25.48-34.8-21.21-11.39-54.31-7.52-56.27,1.33"/>
            <path class="cls-4" d="M155.16,84.09a107.17,107.17,0,0,1,23.35,6.81,100.18,100.18,0,0,1,11,5.3A69.89,69.89,0,0,1,199.67,103a55.29,55.29,0,0,1,4.52,4.14l4.19,4.4a40.28,40.28,0,0,0,4.45,4,13.71,13.71,0,0,0,5.22,2.6,7.88,7.88,0,0,0,5.58-.83,8.13,8.13,0,0,0,3.7-4.31,17.41,17.41,0,0,0,.75-5.88,31.61,31.61,0,0,0-.52-6,24.83,24.83,0,0,0-4.92-10.88,41.07,41.07,0,0,0-8.91-8.14A100.13,100.13,0,0,0,203.32,76a56.58,56.58,0,0,0-11.19-4.47,77.11,77.11,0,0,0-23.9-2.77,57.11,57.11,0,0,0-11.95,1.62,27.57,27.57,0,0,0-5.65,2.09,11.24,11.24,0,0,0-2.46,1.7,5.26,5.26,0,0,0-1.58,2.5s0,0-.06,0a.06.06,0,0,1,0-.07A5.3,5.3,0,0,1,148,74a11.64,11.64,0,0,1,2.45-1.84,25.31,25.31,0,0,1,5.66-2.31,56.56,56.56,0,0,1,12.06-1.91,77.83,77.83,0,0,1,12.21.35,67.26,67.26,0,0,1,12,2.35,51.56,51.56,0,0,1,11.26,4.73A104.93,104.93,0,0,1,214,81.82a43.83,43.83,0,0,1,8.93,8.27,26.16,26.16,0,0,1,5.14,11,32.79,32.79,0,0,1,.65,6.09c0,1,0,2-.08,3.06a12,12,0,0,1-.61,3.07,8.9,8.9,0,0,1-4,4.78,8.65,8.65,0,0,1-6.16,1,14.5,14.5,0,0,1-5.6-2.73,40.7,40.7,0,0,1-4.58-4.1l-4.2-4.39a50.08,50.08,0,0,0-4.48-4,95.44,95.44,0,0,0-20.89-12,131.22,131.22,0,0,0-23-7.63.06.06,0,0,1,0-.06A.06.06,0,0,1,155.16,84.09Z"/>
          </g>
          <g>
            <g>
              <ellipse class="cls-3" cx="163.86" cy="70.32" rx="3.1" ry="4.42" transform="matrix(0.05, -1, 1, 0.05, 84.77, 230.12)"/>
              <path class="cls-4" d="M168.38,70.35A3.58,3.58,0,0,1,167,73.22a5.05,5.05,0,0,1-3.17,1.25,5.74,5.74,0,0,1-3.35-1,4.06,4.06,0,0,1-1.91-3.21,3.18,3.18,0,0,1,.63-1.86,4.07,4.07,0,0,1,1.38-1.15,6.05,6.05,0,0,1,3.21-.61,5.5,5.5,0,0,1,2.94,1.12A3.73,3.73,0,0,1,168.38,70.35Zm-.21,0a2.54,2.54,0,0,0-1.63-2.17,6.14,6.14,0,0,0-2.73-.45,4.87,4.87,0,0,0-2.5.75,2,2,0,0,0-1,1.77,2.16,2.16,0,0,0,1.32,1.5,6.53,6.53,0,0,0,2.32.62,7.34,7.34,0,0,0,2.55-.11A2.12,2.12,0,0,0,168.17,70.35Z"/>
            </g>
            <g>
              <path class="cls-3" d="M176,71.38c.07,1.87-2.32,3-4.44,3s-4.1-1.5-4.18-3.37,1.6-4.27,3.71-4.26S175.89,69.5,176,71.38Z"/>
              <path class="cls-4" d="M176.06,71.37a3.46,3.46,0,0,1-1.62,2.9A5.41,5.41,0,0,1,171,75.38a5,5,0,0,1-3.44-1.59,4.24,4.24,0,0,1-1-1.77,3.88,3.88,0,0,1,0-2,5.54,5.54,0,0,1,2-3,4,4,0,0,1,1.68-.77,3.4,3.4,0,0,1,1.85.16,6,6,0,0,1,2.59,2.09A6.3,6.3,0,0,1,176.06,71.37Zm-.21,0a3.8,3.8,0,0,0-1.48-2.6,6.59,6.59,0,0,0-2.58-1.39c-1.75-.52-3.34,1.3-3.55,3s1.43,2.67,3,3a8,8,0,0,0,2.72,0,2.91,2.91,0,0,0,1.29-.61A1.72,1.72,0,0,0,175.85,71.38Z"/>
            </g>
            <g>
              <path class="cls-3" d="M183.91,71.91c.07,1.87-2.33,3-4.44,3s-4.1-1.49-4.18-3.36,1.6-4.27,3.71-4.26S183.83,70,183.91,71.91Z"/>
              <path class="cls-4" d="M184,71.91a3.46,3.46,0,0,1-1.62,2.9A5.47,5.47,0,0,1,179,75.92a5,5,0,0,1-3.44-1.59,4.24,4.24,0,0,1-1-1.77,3.77,3.77,0,0,1,0-2,5.49,5.49,0,0,1,2-3,3.92,3.92,0,0,1,1.68-.77,3.41,3.41,0,0,1,1.85.16A6,6,0,0,1,182.64,69,6.3,6.3,0,0,1,184,71.91Zm-.21,0a3.8,3.8,0,0,0-1.48-2.6,6.59,6.59,0,0,0-2.58-1.39c-1.75-.52-3.34,1.29-3.56,2.95s1.44,2.67,3,3a7.79,7.79,0,0,0,2.72,0,2.79,2.79,0,0,0,1.29-.6A1.72,1.72,0,0,0,183.8,71.92Z"/>
            </g>
            <g>
              <path class="cls-3" d="M191.84,72.78c-.16,1.74-2.2,2.92-4.57,2.63s-4.17-1.93-4-3.67,2.2-2.92,4.57-2.63S192,71,191.84,72.78Z"/>
              <path class="cls-4" d="M191.94,72.79a3.73,3.73,0,0,1-1.6,2.72,4.87,4.87,0,0,1-3.27.93,5.48,5.48,0,0,1-3.21-1.35,4.1,4.1,0,0,1-1.44-3.43,3.58,3.58,0,0,1,2.29-2.76,5.84,5.84,0,0,1,3.24-.3,5.36,5.36,0,0,1,2.77,1.46A3.77,3.77,0,0,1,191.94,72.79Zm-.21,0a2.5,2.5,0,0,0-1.29-2.36,5.64,5.64,0,0,0-2.62-.77,4.66,4.66,0,0,0-2.53.49,2.08,2.08,0,0,0-1.2,1.68,2.15,2.15,0,0,0,1.08,1.67,6.29,6.29,0,0,0,2.18.88,7,7,0,0,0,2.51.13A2.15,2.15,0,0,0,191.73,72.77Z"/>
            </g>
            <g>
              <path class="cls-3" d="M199.06,75.77c-.16,1.8-2.25,3-4.67,2.72s-4.25-2-4.09-3.78,2.25-3,4.67-2.72S199.22,74,199.06,75.77Z"/>
              <path class="cls-4" d="M199.16,75.78a3.77,3.77,0,0,1-1.63,2.78,4.93,4.93,0,0,1-3.33,1,5.61,5.61,0,0,1-3.28-1.39,4.16,4.16,0,0,1-1.45-3.5,3.67,3.67,0,0,1,2.31-2.82,5.94,5.94,0,0,1,3.32-.33,5.39,5.39,0,0,1,2.83,1.5A3.84,3.84,0,0,1,199.16,75.78Zm-.2,0a2.62,2.62,0,0,0-1.31-2.44,5.8,5.8,0,0,0-2.69-.8,4.77,4.77,0,0,0-2.59.51,2.14,2.14,0,0,0-1.23,1.75,2.23,2.23,0,0,0,1.09,1.75,6.45,6.45,0,0,0,2.24.91,6.92,6.92,0,0,0,2.58.12A2.26,2.26,0,0,0,199,75.76Z"/>
            </g>
            <g>
              <ellipse class="cls-3" cx="201.37" cy="78.48" rx="3.4" ry="4.23" transform="translate(103.88 271.36) rotate(-84.48)"/>
              <path class="cls-4" d="M205.69,78.51a4,4,0,0,1-1.11,3,4.52,4.52,0,0,1-3.19,1.41,5.14,5.14,0,0,1-3.4-1.14,4.4,4.4,0,0,1-1.67-3.31,3.76,3.76,0,0,1,1.77-3.14,5.28,5.28,0,0,1,3.25-.8A4.73,4.73,0,0,1,205.69,78.51Zm-.21,0A2.75,2.75,0,0,0,204,76.17a5.13,5.13,0,0,0-2.69-.58,4,4,0,0,0-2.42.85,2.29,2.29,0,0,0-.9,2,2.42,2.42,0,0,0,1.23,1.71,5.43,5.43,0,0,0,2.22.72,5.57,5.57,0,0,0,2.48-.23A2.28,2.28,0,0,0,205.48,78.51Z"/>
            </g>
            <g>
              <path class="cls-3" d="M211.81,82.21c.08,2-1.86,3.55-4.33,3.53s-4.54-1.63-4.61-3.6,1.86-3.56,4.33-3.54S211.73,80.24,211.81,82.21Z"/>
              <path class="cls-4" d="M211.91,82.2a4.09,4.09,0,0,1-1.21,3.14,4.78,4.78,0,0,1-3.34,1.45,5.5,5.5,0,0,1-3.55-1.17A4.52,4.52,0,0,1,202,82.17a4,4,0,0,1,1.87-3.27,5.63,5.63,0,0,1,3.4-.82A5,5,0,0,1,211.91,82.2Zm-.21,0a2.9,2.9,0,0,0-1.57-2.46,5.44,5.44,0,0,0-2.85-.62,4.35,4.35,0,0,0-2.59.89,2.39,2.39,0,0,0-1,2.08A2.53,2.53,0,0,0,205,83.93a5.6,5.6,0,0,0,2.39.76,5.86,5.86,0,0,0,2.64-.26A2.42,2.42,0,0,0,211.7,82.21Z"/>
            </g>
            <g>
              <path class="cls-3" d="M218.39,86.54c.08,2-1.86,3.56-4.33,3.54s-4.53-1.63-4.61-3.61,1.86-3.55,4.33-3.53S218.31,84.57,218.39,86.54Z"/>
              <path class="cls-4" d="M218.49,86.54a4.06,4.06,0,0,1-1.21,3.14,4.81,4.81,0,0,1-3.34,1.44A5.44,5.44,0,0,1,210.39,90a4.5,4.5,0,0,1-1.78-3.44,3.93,3.93,0,0,1,1.87-3.27,5.56,5.56,0,0,1,3.4-.82A5,5,0,0,1,218.49,86.54Zm-.21,0a2.88,2.88,0,0,0-1.57-2.46,5.26,5.26,0,0,0-2.85-.62,4.41,4.41,0,0,0-2.59.88,2.4,2.4,0,0,0-1,2.09,2.54,2.54,0,0,0,1.33,1.83A5.65,5.65,0,0,0,214,89a5.93,5.93,0,0,0,2.65-.27A2.41,2.41,0,0,0,218.28,86.55Z"/>
            </g>
            <g>
              <path class="cls-3" d="M223.66,91.82c.08,2-1.86,3.56-4.33,3.54s-4.54-1.64-4.61-3.61,1.86-3.55,4.33-3.53S223.58,89.85,223.66,91.82Z"/>
              <path class="cls-4" d="M223.76,91.82A4.06,4.06,0,0,1,222.55,95a4.81,4.81,0,0,1-3.34,1.44,5.44,5.44,0,0,1-3.55-1.17,4.5,4.5,0,0,1-1.78-3.44,3.93,3.93,0,0,1,1.87-3.27,5.56,5.56,0,0,1,3.4-.82A4.94,4.94,0,0,1,223.76,91.82Zm-.21,0A2.91,2.91,0,0,0,222,89.36a5.44,5.44,0,0,0-2.85-.62,4.35,4.35,0,0,0-2.59.89,2.4,2.4,0,0,0-1,2.09,2.55,2.55,0,0,0,1.32,1.83,5.74,5.74,0,0,0,2.39.76A5.87,5.87,0,0,0,221.9,94,2.41,2.41,0,0,0,223.55,91.83Z"/>
            </g>
            <g>
              <path class="cls-3" d="M227.43,97.72c.08,2-1.86,3.56-4.33,3.54s-4.53-1.63-4.61-3.61,1.86-3.55,4.33-3.53S227.36,95.75,227.43,97.72Z"/>
              <path class="cls-4" d="M227.54,97.72a4.1,4.1,0,0,1-1.21,3.14A4.85,4.85,0,0,1,223,102.3a5.42,5.42,0,0,1-3.54-1.17,4.54,4.54,0,0,1-1.79-3.44,3.94,3.94,0,0,1,1.88-3.27,5.54,5.54,0,0,1,3.4-.82A5,5,0,0,1,227.54,97.72Zm-.21,0a2.92,2.92,0,0,0-1.58-2.47,5.42,5.42,0,0,0-2.85-.62,4.35,4.35,0,0,0-2.58.89,2.37,2.37,0,0,0-1,2.09,2.55,2.55,0,0,0,1.32,1.83,5.7,5.7,0,0,0,2.39.76,5.89,5.89,0,0,0,2.64-.27A2.42,2.42,0,0,0,227.33,97.73Z"/>
            </g>
            <g>
              <path class="cls-3" d="M228,104c.07,1.75-1.61,3.16-3.75,3.14s-3.94-1.45-4-3.2,1.61-3.17,3.75-3.15S228,102.24,228,104Z"/>
              <path class="cls-4" d="M228.12,104a3.78,3.78,0,0,1-1,2.83,4.16,4.16,0,0,1-3,1.36A4.75,4.75,0,0,1,221,107.1a4.18,4.18,0,0,1-1.55-3.13,3.58,3.58,0,0,1,1.66-3,4.87,4.87,0,0,1,3-.75A4.4,4.4,0,0,1,228.12,104Zm-.2,0a2.53,2.53,0,0,0-1.36-2.16,4.55,4.55,0,0,0-2.48-.52,3.7,3.7,0,0,0-2.2.79,2.05,2.05,0,0,0-.78,1.79,2.16,2.16,0,0,0,1.11,1.54,4.87,4.87,0,0,0,2,.65,5,5,0,0,0,2.26-.18A2.09,2.09,0,0,0,227.92,104Z"/>
            </g>
          </g>
          <g>
            <g>
              <ellipse class="cls-3" cx="155.56" cy="73.68" rx="3.25" ry="4.31" transform="translate(71.08 223.64) rotate(-85.95)"/>
              <path class="cls-4" d="M160,73.71a3.79,3.79,0,0,1-1.22,2.94A4.78,4.78,0,0,1,155.58,78a5.31,5.31,0,0,1-3.37-1,4.21,4.21,0,0,1-1.79-3.25,3.61,3.61,0,0,1,1.89-3.08,5.59,5.59,0,0,1,3.22-.7,5.2,5.2,0,0,1,2.93,1.2A3.93,3.93,0,0,1,160,73.71Zm-.21,0a2.64,2.64,0,0,0-1.55-2.25,5.54,5.54,0,0,0-2.7-.51,4.44,4.44,0,0,0-2.46.79,2.13,2.13,0,0,0-1,1.87,2.26,2.26,0,0,0,1.27,1.6,5.94,5.94,0,0,0,2.26.67,6.33,6.33,0,0,0,2.51-.17A2.19,2.19,0,0,0,159.76,73.71Z"/>
            </g>
            <g>
              <path class="cls-3" d="M166.87,76.14c.08,2-1.78,3.56-4.16,3.54s-4.36-1.63-4.44-3.6,1.78-3.56,4.16-3.54S166.79,74.17,166.87,76.14Z"/>
              <path class="cls-4" d="M167,76.14a4.2,4.2,0,0,1-1.11,3.11,4.58,4.58,0,0,1-3.28,1.47,5.18,5.18,0,0,1-3.48-1.2,4.55,4.55,0,0,1-1.68-3.41,3.94,3.94,0,0,1,1.77-3.23,5.24,5.24,0,0,1,3.33-.86A4.84,4.84,0,0,1,167,76.14Zm-.21,0a2.91,2.91,0,0,0-1.5-2.45,4.93,4.93,0,0,0-2.76-.63A4,4,0,0,0,160,74a2.37,2.37,0,0,0-.91,2.07,2.56,2.56,0,0,0,1.25,1.83,5.19,5.19,0,0,0,2.29.76,5.33,5.33,0,0,0,2.54-.28A2.42,2.42,0,0,0,166.77,76.15Z"/>
            </g>
            <g>
              <path class="cls-3" d="M173.21,78.57c.08,2-1.78,3.56-4.16,3.54s-4.37-1.63-4.44-3.6,1.86-3.72,4.23-3.7A4.27,4.27,0,0,1,173.21,78.57Z"/>
              <path class="cls-4" d="M173.31,78.57a4.13,4.13,0,0,1-1.13,3.13,4.57,4.57,0,0,1-3.31,1.45,5.17,5.17,0,0,1-3.5-1.26,4.47,4.47,0,0,1-1.6-3.48,4.11,4.11,0,0,1,1.83-3.2,5.18,5.18,0,0,1,3.34-.92,4.88,4.88,0,0,1,4.37,4.28Zm-.21,0a3.07,3.07,0,0,0-1.44-2.52,4.57,4.57,0,0,0-2.74-.72,4,4,0,0,0-2.49.94,2.59,2.59,0,0,0-1,2.12,2.43,2.43,0,0,0,1.21,1.86,5.11,5.11,0,0,0,2.28.8,5.44,5.44,0,0,0,2.57-.26A2.44,2.44,0,0,0,173.1,78.58Z"/>
            </g>
            <g>
              <path class="cls-3" d="M179.9,77.2c.08,1.88-1.64,3.4-3.83,3.38a4,4,0,0,1-4.1-3.44c-.07-1.89,1.64-3.4,3.83-3.39A3.94,3.94,0,0,1,179.9,77.2Z"/>
              <path class="cls-4" d="M180,77.19a4.15,4.15,0,0,1-4,4.43,4.79,4.79,0,0,1-3.31-1.2,4.44,4.44,0,0,1-1.52-3.25,3.81,3.81,0,0,1,1.63-3.08,4.72,4.72,0,0,1,3.14-.85A4.54,4.54,0,0,1,180,77.19Zm-.21,0a2.75,2.75,0,0,0-1.37-2.31,4.52,4.52,0,0,0-2.56-.61,3.62,3.62,0,0,0-2.27.87,2.29,2.29,0,0,0-.79,1.95A2.41,2.41,0,0,0,174,78.81a4.75,4.75,0,0,0,2.06.72,4.85,4.85,0,0,0,2.33-.25A2.3,2.3,0,0,0,179.8,77.2Z"/>
            </g>
            <g>
              <path class="cls-3" d="M187.24,79.48c.09,2.06-1.93,3.71-4.49,3.69s-4.7-1.7-4.79-3.77,1.93-3.71,4.5-3.69S187.16,77.42,187.24,79.48Z"/>
              <path class="cls-4" d="M187.35,79.47a4.23,4.23,0,0,1-1.26,3.26,4.94,4.94,0,0,1-3.46,1.48A5.61,5.61,0,0,1,179,83a4.66,4.66,0,0,1-1.83-3.55,4,4,0,0,1,1.92-3.38,5.72,5.72,0,0,1,3.52-.87A5.14,5.14,0,0,1,187.35,79.47Zm-.21,0a3.07,3.07,0,0,0-1.63-2.58,5.58,5.58,0,0,0-3-.66,4.55,4.55,0,0,0-2.7.92,2.54,2.54,0,0,0-1,2.21,2.71,2.71,0,0,0,1.38,1.95,5.8,5.8,0,0,0,2.5.8,5.87,5.87,0,0,0,2.76-.31A2.55,2.55,0,0,0,187.14,79.48Z"/>
            </g>
            <g>
              <path class="cls-3" d="M195.06,80.89c.08,2.1-1.93,3.79-4.49,3.77s-4.71-1.74-4.79-3.85S187.7,77,190.27,77,195,78.78,195.06,80.89Z"/>
              <path class="cls-4" d="M195.16,80.88a4.35,4.35,0,0,1-1.23,3.3,4.93,4.93,0,0,1-3.49,1.52,5.57,5.57,0,0,1-3.69-1.26,4.8,4.8,0,0,1-1.81-3.59,4.15,4.15,0,0,1,1.89-3.42,5.63,5.63,0,0,1,3.55-.91A5.15,5.15,0,0,1,195.16,80.88Zm-.21,0a3.12,3.12,0,0,0-1.61-2.62,5.5,5.5,0,0,0-3-.7,4.48,4.48,0,0,0-2.71,1,2.6,2.6,0,0,0-1,2.26,2.77,2.77,0,0,0,1.37,2,5.7,5.7,0,0,0,2.51.83,5.81,5.81,0,0,0,2.77-.33A2.63,2.63,0,0,0,195,80.89Z"/>
            </g>
            <g>
              <path class="cls-3" d="M202.3,84.75c.08,2.11-1.93,3.8-4.49,3.78s-4.71-1.75-4.79-3.85,1.92-3.79,4.48-3.77S202.21,82.65,202.3,84.75Z"/>
              <path class="cls-4" d="M202.4,84.75A4.33,4.33,0,0,1,201.17,88a4.94,4.94,0,0,1-3.49,1.53A5.63,5.63,0,0,1,194,88.3a4.77,4.77,0,0,1-1.8-3.59,4.14,4.14,0,0,1,1.89-3.42,5.67,5.67,0,0,1,3.55-.9A5.15,5.15,0,0,1,202.4,84.75Zm-.21,0a3.12,3.12,0,0,0-1.62-2.63,5.47,5.47,0,0,0-3-.7,4.46,4.46,0,0,0-2.71,1,2.6,2.6,0,0,0-1,2.26,2.82,2.82,0,0,0,1.38,2,5.53,5.53,0,0,0,2.5.82,5.79,5.79,0,0,0,2.77-.33A2.62,2.62,0,0,0,202.19,84.76Z"/>
            </g>
            <g>
              <path class="cls-3" d="M208.18,88.61a4.39,4.39,0,0,1-4.47,4.25c-2.56,0-4.19-1.58-4.28-3.69a4.3,4.3,0,0,1,4.21-4.41C206.21,84.78,208.1,86.5,208.18,88.61Z"/>
              <path class="cls-4" d="M208.29,88.6a5.33,5.33,0,0,1-1,3.36A4.54,4.54,0,0,1,204,93.89a5.18,5.18,0,0,1-3.8-1.13,4.66,4.66,0,0,1-1.58-3.69,5.15,5.15,0,0,1,1.55-3.47,4.67,4.67,0,0,1,3.44-1.36,5.06,5.06,0,0,1,3.23,1.36A4.7,4.7,0,0,1,208.29,88.6Zm-.21,0A3.17,3.17,0,0,0,206.54,86a5,5,0,0,0-2.95-.66,3.63,3.63,0,0,0-3.32,3.76,2.6,2.6,0,0,0,1.19,2.07,5.15,5.15,0,0,0,5,0A3.09,3.09,0,0,0,208.08,88.61Z"/>
            </g>
            <g>
              <path class="cls-3" d="M214.61,93.26c.07,1.88-2.2,4.11-4.48,4.09s-4.19-1.56-4.27-3.45a4,4,0,0,1,3.89-4C212,89.91,214.53,91.37,214.61,93.26Z"/>
              <path class="cls-4" d="M214.71,93.25a5.23,5.23,0,0,1-1.07,3.18,4.64,4.64,0,0,1-3.11,1.95,5.12,5.12,0,0,1-3.67-1A4.46,4.46,0,0,1,205,94a4.72,4.72,0,0,1,1.51-3.37,4.4,4.4,0,0,1,3.33-1.23,6,6,0,0,1,3.1,1.22A4,4,0,0,1,214.71,93.25Zm-.21,0A2.74,2.74,0,0,0,212.74,91a6.3,6.3,0,0,0-2.9-.55,3.33,3.33,0,0,0-3.14,3.47A2.5,2.5,0,0,0,208,95.68a5,5,0,0,0,2.33.61,5.33,5.33,0,0,0,2.51-.68A2.94,2.94,0,0,0,214.5,93.26Z"/>
            </g>
            <g>
              <path class="cls-3" d="M219.86,100.24a4.06,4.06,0,0,1-5.42,1.6c-2.14-1-3.19-3.21-2.33-5a4.05,4.05,0,0,1,5.42-1.6A3.91,3.91,0,0,1,219.86,100.24Z"/>
              <path class="cls-4" d="M220,100.28a4.63,4.63,0,0,1-2.3,2.38,4.54,4.54,0,0,1-3.6.15,4.91,4.91,0,0,1-2.75-2.55,4.43,4.43,0,0,1,0-3.83,4.28,4.28,0,0,1,2.94-2.18,5.34,5.34,0,0,1,3.42.44A4.49,4.49,0,0,1,220,100.28Zm-.19-.09a2.8,2.8,0,0,0-.21-2.85,4.58,4.58,0,0,0-2.26-1.69,4.12,4.12,0,0,0-2.66-.08,2.75,2.75,0,0,0-1.76,1.57,2.39,2.39,0,0,0,.28,2.18,4.49,4.49,0,0,0,1.74,1.57,5.26,5.26,0,0,0,2.47.68A2.64,2.64,0,0,0,219.76,100.19Z"/>
            </g>
            <g>
              <ellipse class="cls-3" cx="217.95" cy="105.67" rx="3.67" ry="4.24" transform="translate(40.61 270.66) rotate(-68.8)"/>
              <path class="cls-4" d="M221.92,107.44a4.61,4.61,0,0,1-2.3,2.37,4.54,4.54,0,0,1-3.6.16,5,5,0,0,1-2.75-2.55,4.43,4.43,0,0,1,0-3.83,4.28,4.28,0,0,1,2.94-2.18,5.21,5.21,0,0,1,3.42.44A4.49,4.49,0,0,1,221.92,107.44Zm-.19-.09a2.82,2.82,0,0,0-.21-2.86,4.57,4.57,0,0,0-2.26-1.68,4,4,0,0,0-2.66-.08,2.72,2.72,0,0,0-1.76,1.57,2.37,2.37,0,0,0,.28,2.17,4.51,4.51,0,0,0,1.74,1.58,5.27,5.27,0,0,0,2.48.68A2.66,2.66,0,0,0,221.73,107.35Z"/>
            </g>
            <g>
              <ellipse class="cls-3" cx="222.81" cy="110.82" rx="3.66" ry="3.76" transform="translate(88.13 320.08) rotate(-83.68)"/>
              <path class="cls-4" d="M226.34,112.39a5.06,5.06,0,0,1-2,2.39,3.9,3.9,0,0,1-3.45.34,4.27,4.27,0,0,1-2.53-2.61,4.56,4.56,0,0,1,.28-3.57,4.39,4.39,0,0,1,2.63-2.19,4.48,4.48,0,0,1,3.28.25,3.85,3.85,0,0,1,2,2.43A4.54,4.54,0,0,1,226.34,112.39Zm-.19-.09a2.84,2.84,0,0,0,0-2.7,3.66,3.66,0,0,0-2-1.64,3.26,3.26,0,0,0-2.4.07,3,3,0,0,0-1.58,1.62,2.6,2.6,0,0,0,.13,2.1,3.53,3.53,0,0,0,1.44,1.45,4,4,0,0,0,2.24.53A2.7,2.7,0,0,0,226.15,112.3Z"/>
            </g>
          </g>
          <g>
            <path class="cls-3" d="M153.84,76.66a3.43,3.43,0,0,1-2.41,4.48,4.1,4.1,0,0,1-5.11-2,3.42,3.42,0,0,1,2.41-4.47A4.1,4.1,0,0,1,153.84,76.66Z"/>
            <path class="cls-4" d="M153.93,76.62a4.61,4.61,0,0,1,.23,3.2A3.31,3.31,0,0,1,151.55,82a5.61,5.61,0,0,1-3.25-.59,5.67,5.67,0,0,1-2.51-2,3.33,3.33,0,0,1-.53-1.74,3.59,3.59,0,0,1,.46-1.81,4.62,4.62,0,0,1,4.61-2.4,3.81,3.81,0,0,1,1.65.63A5.78,5.78,0,0,1,153.93,76.62Zm-.19.08a2.35,2.35,0,0,0-2.25-1.31,7,7,0,0,0-2.31.34,3.7,3.7,0,0,0-1.77,1.15,2.75,2.75,0,0,0-.56,2.07,2.32,2.32,0,0,0,1.69,1.83,3.41,3.41,0,0,0,2.5-.44,11,11,0,0,0,2-1.22,2.29,2.29,0,0,0,.77-1.05A1.86,1.86,0,0,0,153.74,76.7Z"/>
          </g>
          <g>
            <g>
              <path class="cls-3" d="M161,81c.08,1.88-1.75,3.4-4.08,3.38s-4.28-1.56-4.35-3.45,1.75-3.4,4.08-3.38S160.92,79.13,161,81Z"/>
              <path class="cls-4" d="M161.1,81A4,4,0,0,1,160,84a4.5,4.5,0,0,1-3.19,1.42,5.13,5.13,0,0,1-3.4-1.14A4.38,4.38,0,0,1,151.72,81a3.77,3.77,0,0,1,1.78-3.14,5.27,5.27,0,0,1,3.24-.8A4.74,4.74,0,0,1,161.1,81Zm-.21,0a2.77,2.77,0,0,0-1.48-2.34,5.13,5.13,0,0,0-2.69-.58,4,4,0,0,0-2.42.85,2.24,2.24,0,0,0-.9,2,2.39,2.39,0,0,0,1.23,1.71,5.38,5.38,0,0,0,2.22.72,5.6,5.6,0,0,0,2.48-.23A2.3,2.3,0,0,0,160.89,81Z"/>
            </g>
            <g>
              <path class="cls-3" d="M168,81.63c.83,1.75-.21,3.83-2.33,4.64s-4.52.06-5.35-1.69.22-3.83,2.34-4.64S167.12,79.88,168,81.63Z"/>
              <path class="cls-4" d="M168.05,81.58a4,4,0,0,1,.21,3.2,4.27,4.27,0,0,1-2.43,2.53,5,5,0,0,1-3.59.09,4.63,4.63,0,0,1-2.73-2.46,3.82,3.82,0,0,1,.35-3.57,4.86,4.86,0,0,1,2.71-2,4.74,4.74,0,0,1,3.18.19A4.54,4.54,0,0,1,168.05,81.58Zm-.19.09A2.93,2.93,0,0,0,165.63,80a4.78,4.78,0,0,0-2.71.38A3.7,3.7,0,0,0,161,82.06a2.27,2.27,0,0,0,0,2.16,2.56,2.56,0,0,0,1.8,1.2,5,5,0,0,0,2.3-.09,4.9,4.9,0,0,0,2.17-1.11A2.31,2.31,0,0,0,167.86,81.67Z"/>
            </g>
            <g>
              <path class="cls-3" d="M180.61,83c.3,1.88-1.33,3.58-3.64,3.81s-4.41-1.12-4.71-3,1.33-3.58,3.64-3.8S180.31,81.08,180.61,83Z"/>
              <path class="cls-4" d="M180.71,82.94a3.94,3.94,0,0,1-.75,3.12,4.48,4.48,0,0,1-3,1.75,5.11,5.11,0,0,1-3.49-.81,4.45,4.45,0,0,1-2-3.1,3.79,3.79,0,0,1,1.4-3.33A5.1,5.1,0,0,1,176,79.44,4.76,4.76,0,0,1,180.71,82.94Zm-.2,0a2.8,2.8,0,0,0-1.73-2.17,5,5,0,0,0-2.73-.32,3.93,3.93,0,0,0-2.31,1.1,2.25,2.25,0,0,0-.65,2.06,2.47,2.47,0,0,0,1.41,1.58,5.35,5.35,0,0,0,2.28.5,5.45,5.45,0,0,0,2.43-.49A2.29,2.29,0,0,0,180.51,83Z"/>
            </g>
            <g>
              <path class="cls-3" d="M187.19,86.55c0,1.88-1.84,3.35-4.17,3.29s-4.24-1.65-4.27-3.53,1.83-3.36,4.16-3.3S187.15,84.66,187.19,86.55Z"/>
              <path class="cls-4" d="M187.29,86.54a4,4,0,0,1-1.18,3,4.52,4.52,0,0,1-3.22,1.35,5.15,5.15,0,0,1-3.37-1.21,4.33,4.33,0,0,1-1.61-3.35,3.78,3.78,0,0,1,1.85-3.09A5.2,5.2,0,0,1,183,82.5,4.71,4.71,0,0,1,187.29,86.54Zm-.21,0a2.75,2.75,0,0,0-1.43-2.37,5,5,0,0,0-2.68-.64,4.08,4.08,0,0,0-2.44.81,2.24,2.24,0,0,0-.95,1.94,2.37,2.37,0,0,0,1.2,1.74,5.49,5.49,0,0,0,2.2.76,5.74,5.74,0,0,0,2.49-.18A2.32,2.32,0,0,0,187.08,86.55Z"/>
            </g>
            <g>
              <path class="cls-3" d="M195,88.82c0,1.93-2.27,3.21-4.6,3.14s-4.49-1.44-4.52-3.37,2.15-4,4.48-3.93S195,86.89,195,88.82Z"/>
              <path class="cls-4" d="M195.14,88.82a3.71,3.71,0,0,1-1.58,3A5.41,5.41,0,0,1,190.12,93a5.75,5.75,0,0,1-3.54-1.27,4.66,4.66,0,0,1-1.24-1.64,3.45,3.45,0,0,1-.21-2.1,5.2,5.2,0,0,1,5.67-3.81,5.13,5.13,0,0,1,2.94,1.72A5.23,5.23,0,0,1,195.14,88.82Zm-.21,0a3.37,3.37,0,0,0-1.49-2.61,5.26,5.26,0,0,0-2.76-1,3.84,3.84,0,0,0-3.89,3,1.9,1.9,0,0,0,1.05,1.81,6,6,0,0,0,2.42.84,7.47,7.47,0,0,0,2.78-.07A2.26,2.26,0,0,0,194.93,88.82Z"/>
            </g>
            <g>
              <path class="cls-3" d="M175.7,84.77a3.79,3.79,0,0,1-2.36,5.12,4.55,4.55,0,0,1-5.73-2A3.78,3.78,0,0,1,170,82.77,4.56,4.56,0,0,1,175.7,84.77Z"/>
              <path class="cls-4" d="M175.79,84.73a4.39,4.39,0,0,1-2.25,6.19,5.21,5.21,0,0,1-6.69-2.68,4.23,4.23,0,0,1,.23-3.8,4.9,4.9,0,0,1,6.29-1.94A5.05,5.05,0,0,1,175.79,84.73Zm-.19.09a3.35,3.35,0,0,0-2.37-1.91,4.88,4.88,0,0,0-2.94.3,3.69,3.69,0,0,0-2,1.86,2.71,2.71,0,0,0,.07,2.45,3.09,3.09,0,0,0,2,1.45,5,5,0,0,0,2.51,0,4.66,4.66,0,0,0,2.28-1.31A2.65,2.65,0,0,0,175.6,84.82Z"/>
            </g>
            <g>
              <path class="cls-3" d="M200.74,92.2a3.7,3.7,0,0,1-4,3.62,4.15,4.15,0,0,1-4.28-3.69,3.69,3.69,0,0,1,4-3.61A4.14,4.14,0,0,1,200.74,92.2Z"/>
              <path class="cls-4" d="M200.84,92.19a4.3,4.3,0,0,1-4.21,4.67,4.91,4.91,0,0,1-3.45-1.29,4.7,4.7,0,0,1-1.55-3.4,4.07,4.07,0,0,1,1.64-3.24,4.85,4.85,0,0,1,3.29-.93,4.63,4.63,0,0,1,2.95,1.39A4.55,4.55,0,0,1,200.84,92.19Zm-.21,0a3,3,0,0,0-1.41-2.47,4.58,4.58,0,0,0-2.69-.69,3.67,3.67,0,0,0-2.39.94,2.53,2.53,0,0,0-.83,2.12A2.64,2.64,0,0,0,194.5,94a4.69,4.69,0,0,0,2.18.8,4.83,4.83,0,0,0,2.46-.32A2.51,2.51,0,0,0,200.63,92.2Z"/>
            </g>
            <g>
              <path class="cls-3" d="M207.29,96c.08,2-1.7,3.56-4,3.54A4.11,4.11,0,0,1,199,95.91c-.08-2,1.71-3.55,4-3.54A4.11,4.11,0,0,1,207.29,96Z"/>
              <path class="cls-4" d="M207.4,96a4.24,4.24,0,0,1-1,3.08,4.36,4.36,0,0,1-3.21,1.51,5,5,0,0,1-3.42-1.25A4.58,4.58,0,0,1,198.19,96a4,4,0,0,1,1.67-3.2,4.91,4.91,0,0,1,3.26-.89A4.71,4.71,0,0,1,207.4,96Zm-.21,0a2.9,2.9,0,0,0-1.42-2.42,4.68,4.68,0,0,0-2.67-.66,3.75,3.75,0,0,0-2.39.91,2.46,2.46,0,0,0-.85,2.07,2.61,2.61,0,0,0,1.2,1.82,5.23,5.23,0,0,0,4.63.47A2.42,2.42,0,0,0,207.19,96Z"/>
            </g>
            <g>
              <path class="cls-3" d="M213.21,100.47c.07,2-1.83,3.55-4.25,3.54s-4.45-1.64-4.53-3.61,1.83-3.56,4.25-3.54S213.13,98.5,213.21,100.47Z"/>
              <path class="cls-4" d="M213.31,100.46a4.13,4.13,0,0,1-1.16,3.13,4.68,4.68,0,0,1-3.31,1.46,5.28,5.28,0,0,1-3.51-1.19,4.54,4.54,0,0,1-1.73-3.43,3.91,3.91,0,0,1,1.82-3.25,5.44,5.44,0,0,1,3.36-.84A4.9,4.9,0,0,1,213.31,100.46Zm-.21,0A2.9,2.9,0,0,0,211.57,98a5.22,5.22,0,0,0-2.81-.63,4.27,4.27,0,0,0-2.54.89,2.38,2.38,0,0,0-.95,2.09,2.55,2.55,0,0,0,1.29,1.82,5.35,5.35,0,0,0,2.33.76,5.57,5.57,0,0,0,2.6-.27A2.41,2.41,0,0,0,213.1,100.47Z"/>
            </g>
            <g>
              <path class="cls-3" d="M215.42,106.49a3.72,3.72,0,0,1-4.49,2.88,4,4,0,0,1-3.56-4.16c.26-1.94,2.86-3,5.08-2.61A3.27,3.27,0,0,1,215.42,106.49Z"/>
              <path class="cls-4" d="M215.52,106.5a4.32,4.32,0,0,1-4.75,3.91,4.86,4.86,0,0,1-3.18-1.68,4.52,4.52,0,0,1-1.06-3.5,3.29,3.29,0,0,1,.83-1.75,4.28,4.28,0,0,1,1.45-1A6.35,6.35,0,0,1,212,102a4.1,4.1,0,0,1,2.79,1.53A4.31,4.31,0,0,1,215.52,106.5Zm-.21,0a2.77,2.77,0,0,0-.81-2.62,3.91,3.91,0,0,0-2.54-.77,5.08,5.08,0,0,0-2.54.61,2.08,2.08,0,0,0-1.22,1.71,2.45,2.45,0,0,0,.91,1.91,4.63,4.63,0,0,0,2,1,4.89,4.89,0,0,0,2.41,0A2.42,2.42,0,0,0,215.31,106.47Z"/>
            </g>
            <g>
              <path class="cls-3" d="M219.51,111.91A3.71,3.71,0,0,1,215,114.8a4,4,0,0,1-3.56-4.16c.25-1.94,2.85-3,5.07-2.61A3.26,3.26,0,0,1,219.51,111.91Z"/>
              <path class="cls-4" d="M219.62,111.93a4.35,4.35,0,0,1-1.44,2.83,4.25,4.25,0,0,1-3.31,1.07,4.84,4.84,0,0,1-3.18-1.67,4.5,4.5,0,0,1-1.06-3.5,3.17,3.17,0,0,1,.82-1.75,4.14,4.14,0,0,1,1.46-1,6.24,6.24,0,0,1,3.23-.44,4.08,4.08,0,0,1,2.78,1.53A4.26,4.26,0,0,1,219.62,111.93Zm-.21,0a2.81,2.81,0,0,0-.81-2.62,4,4,0,0,0-2.54-.78,5.12,5.12,0,0,0-2.55.62,2,2,0,0,0-1.21,1.7,2.51,2.51,0,0,0,.9,1.92,4.56,4.56,0,0,0,2,1,4.93,4.93,0,0,0,2.42,0A2.44,2.44,0,0,0,219.41,111.9Z"/>
            </g>
            <g>
              <path class="cls-3" d="M222.43,116.93a3.27,3.27,0,0,1-3.92,2.52,3.46,3.46,0,0,1-3.1-3.63c.22-1.7,2.49-2.59,4.43-2.28A2.85,2.85,0,0,1,222.43,116.93Z"/>
              <path class="cls-4" d="M222.53,116.94a3.94,3.94,0,0,1-1.23,2.54,3.74,3.74,0,0,1-3,1,4.29,4.29,0,0,1-2.85-1.5,4.1,4.1,0,0,1-.93-3.16,3,3,0,0,1,.75-1.58,3.76,3.76,0,0,1,1.31-.9,5.55,5.55,0,0,1,2.86-.37,3.54,3.54,0,0,1,2.44,1.38A3.89,3.89,0,0,1,222.53,116.94Zm-.21,0a2.34,2.34,0,0,0-.71-2.26,3.47,3.47,0,0,0-2.2-.64,4.44,4.44,0,0,0-2.18.55,1.69,1.69,0,0,0-1,1.43,2,2,0,0,0,.78,1.57,4.1,4.1,0,0,0,1.66.85,4.36,4.36,0,0,0,2,.1A2,2,0,0,0,222.32,116.91Z"/>
            </g>
          </g>
          <g>
            <g>
              <path class="cls-3" d="M182.38,89.4a3.48,3.48,0,0,1-3.19,4,4.06,4.06,0,0,1-4.64-2.87,3.48,3.48,0,0,1,3.19-4A4.06,4.06,0,0,1,182.38,89.4Z"/>
              <path class="cls-4" d="M182.49,89.37a4.19,4.19,0,0,1-.43,3.12,4.06,4.06,0,0,1-2.86,2,4.77,4.77,0,0,1-3.48-.74,4.65,4.65,0,0,1-2-3,3.91,3.91,0,0,1,1.06-3.35,4.7,4.7,0,0,1,3-1.36,4.68,4.68,0,0,1,4.69,3.38Zm-.21,0a2.91,2.91,0,0,0-1.71-2.13,4.5,4.5,0,0,0-2.65-.26,3.41,3.41,0,0,0-2.11,1.22,2.36,2.36,0,0,0-.44,2.1,2.58,2.58,0,0,0,1.42,1.58,4.56,4.56,0,0,0,2.16.44,4.41,4.41,0,0,0,2.26-.62A2.32,2.32,0,0,0,182.28,89.42Z"/>
            </g>
            <g>
              <path class="cls-3" d="M190.32,93.62c-.4,1.87-2.64,2.94-5,2.4s-4-2.49-3.57-4.36,2.63-2.94,5-2.4S190.71,91.76,190.32,93.62Z"/>
              <path class="cls-4" d="M190.42,93.64a4.16,4.16,0,0,1-1.89,2.7A4.85,4.85,0,0,1,185,97a5.34,5.34,0,0,1-3.17-1.83,4.29,4.29,0,0,1-1-3.71,3.91,3.91,0,0,1,2.56-2.66,5.68,5.68,0,0,1,3.41-.07A4.72,4.72,0,0,1,190.42,93.64Zm-.21,0a2.73,2.73,0,0,0-1-2.67,5.34,5.34,0,0,0-2.61-1.15,4.51,4.51,0,0,0-2.66.31,2.37,2.37,0,0,0-1.43,1.75,2.27,2.27,0,0,0,.84,2A5.53,5.53,0,0,0,185.52,95a6.17,6.17,0,0,0,2.59.31A2.42,2.42,0,0,0,190.21,93.6Z"/>
            </g>
            <g>
              <path class="cls-3" d="M197.76,98.05c-.39,1.86-2.83,2.69-5.2,2.15s-4.7-2-4.31-3.81,3.37-3.48,5.74-2.94S198.16,96.18,197.76,98.05Z"/>
              <path class="cls-4" d="M197.87,98.07a3.87,3.87,0,0,1-2.22,2.63,5.55,5.55,0,0,1-3.63.45,7.32,7.32,0,0,1-3.32-1.57,4.24,4.24,0,0,1-1.22-1.74,2.85,2.85,0,0,1,.17-2.26,5.32,5.32,0,0,1,2.88-2.39,6,6,0,0,1,3.58-.25,5.39,5.39,0,0,1,2.81,2A4.35,4.35,0,0,1,197.87,98.07Zm-.21,0a2.94,2.94,0,0,0-1.07-2.81A5.49,5.49,0,0,0,193.87,94a4.81,4.81,0,0,0-2.8.48,3.81,3.81,0,0,0-1.89,1.82c-.56,1.3,1.59,2.27,3.36,2.86a7.72,7.72,0,0,0,2.8.5A2.34,2.34,0,0,0,197.66,98Z"/>
            </g>
            <g>
              <path class="cls-3" d="M204.64,101.35c.08,2-1.75,3.56-4.08,3.54s-4.28-1.63-4.36-3.6,1.75-3.56,4.08-3.54S204.56,99.38,204.64,101.35Z"/>
              <path class="cls-4" d="M204.74,101.35a4.12,4.12,0,0,1-1.06,3.09,4.42,4.42,0,0,1-3.23,1.49,5.08,5.08,0,0,1-3.46-1.22,4.6,4.6,0,0,1-1.62-3.39,3.92,3.92,0,0,1,1.72-3.21,5.07,5.07,0,0,1,3.3-.88A4.76,4.76,0,0,1,204.74,101.35Zm-.2,0a2.93,2.93,0,0,0-1.46-2.44,4.82,4.82,0,0,0-2.72-.64,3.88,3.88,0,0,0-2.44.9,2.42,2.42,0,0,0-.88,2.07,2.59,2.59,0,0,0,1.23,1.83,4.9,4.9,0,0,0,2.23.76,5.18,5.18,0,0,0,2.5-.28A2.43,2.43,0,0,0,204.54,101.36Z"/>
            </g>
            <g>
              <path class="cls-3" d="M209,107.23c-.41,1.74-2.47,2.72-4.61,2.19s-3.55-2.36-3.15-4.1,2.47-2.72,4.61-2.19S209.37,105.49,209,107.23Z"/>
              <path class="cls-4" d="M209.07,107.25a4,4,0,0,1-1.73,2.52,4.29,4.29,0,0,1-3.26.66,4.88,4.88,0,0,1-2.93-1.8,4.1,4.1,0,0,1-.76-3.5,3.74,3.74,0,0,1,2.4-2.46,5.09,5.09,0,0,1,3.18,0A4.34,4.34,0,0,1,209.07,107.25Zm-.21,0a2.5,2.5,0,0,0-.8-2.48,4.67,4.67,0,0,0-2.35-1.09,3.9,3.9,0,0,0-2.4.29,2.17,2.17,0,0,0-1.28,1.58,2.12,2.12,0,0,0,.71,1.79,5,5,0,0,0,1.85,1.1,5.69,5.69,0,0,0,2.32.34A2.22,2.22,0,0,0,208.86,107.21Z"/>
            </g>
          </g>
        </g>
        <path class="cls-4" d="M119.19,78.52c0-.07,0,0,.08,0h.38l.5,0c.34,0,.67.08,1,.14a12.16,12.16,0,0,1,1.94.62,11.64,11.64,0,0,1,3.38,2.3c1,1,1.64,2.08,2.77,2.25a2.16,2.16,0,0,0,2.49-1.61,2.41,2.41,0,0,0-.25-1.67,4,4,0,0,0-.49-.77,3.9,3.9,0,0,0-.65-.63,7.91,7.91,0,0,0-3.48-1.48A16.18,16.18,0,0,0,119.19,78.52Zm-.1,0a18.87,18.87,0,0,1,1.91-.73,15.58,15.58,0,0,1,1.93-.49,12.25,12.25,0,0,1,4-.16,8.44,8.44,0,0,1,3.79,1.45,4.66,4.66,0,0,1,1.4,1.59,3.15,3.15,0,0,1,.38,2.16,3,3,0,0,1-3.43,2.42,3.61,3.61,0,0,1-2-1c-.56-.56-.85-1-1.32-1.49A12.05,12.05,0,0,0,119.09,78.54Z"/>
        <path class="cls-4" d="M131.45,70.62c.16.41.23,1,.4,1.46a14,14,0,0,0,.55,1.45A9.9,9.9,0,0,0,134,76.09a4.18,4.18,0,0,0,2.33,1.53,1.61,1.61,0,0,0,1.88-1.08.52.52,0,0,1,.48-.39h0a5.29,5.29,0,0,0,1.5-.25,3.85,3.85,0,0,0,1.31-.7,3,3,0,0,0,.87-1.18,4.68,4.68,0,0,0,.33-1.5l.31.42a11.41,11.41,0,0,1-2.24-1,10.49,10.49,0,0,1-2-1.49,8.48,8.48,0,0,1-2.4-4.23l.46.14a6.13,6.13,0,0,0-1.67,4.9,7.77,7.77,0,0,0,.38,1.77v0a.14.14,0,0,1-.09.17h0a5.13,5.13,0,0,1-3.38-1.6,3.77,3.77,0,0,1-.4-.48A2.25,2.25,0,0,1,131.45,70.62Zm0-.1c.13.15.29.37.42.53a4.28,4.28,0,0,0,.41.45,4.7,4.7,0,0,0,1,.74,4.85,4.85,0,0,0,2.3.66l-.14.2a8.78,8.78,0,0,1-.47-1.83,6.79,6.79,0,0,1,0-1.91,6.26,6.26,0,0,1,.56-1.83,5.76,5.76,0,0,1,1.1-1.61A.27.27,0,0,1,137,66v0a7.74,7.74,0,0,0,2.33,3.85,9.76,9.76,0,0,0,1.85,1.33,10.18,10.18,0,0,0,2.08.89h0a.41.41,0,0,1,.3.42,5.73,5.73,0,0,1-.34,1.81,3.9,3.9,0,0,1-1.07,1.57,4.85,4.85,0,0,1-1.63.94,5.64,5.64,0,0,1-1.84.31l.51-.38a2.56,2.56,0,0,1-3.06,1.76,5.09,5.09,0,0,1-2.76-2,10.13,10.13,0,0,1-1.51-2.87,11.86,11.86,0,0,1-.39-1.56A5.81,5.81,0,0,1,131.42,70.52Z"/>
        <g class="cls-6">
          <path class="cls-4" d="M225,131.43a34.31,34.31,0,0,1-2.7,12.84,38.9,38.9,0,0,1-7.07,11.16,42.05,42.05,0,0,1-10.38,8.17l-1.46.79-1.48.71c-1,.5-2,.89-3,1.32s-2.07.73-3.1,1.1-2.11.61-3.16.9a64,64,0,0,0,11.84-5.49,43.43,43.43,0,0,0,10-8.17,41.37,41.37,0,0,0,9.31-16.91A34,34,0,0,0,225,131.43Z"/>
        </g>
      </g>
      <g>
        <g>
          <g>
            <path class="cls-12" d="M27.5,16.92s40.84-28.82,64.17,34C91.67,50.93,55.29,79.67,27.5,16.92Z"/>
            <path class="cls-13" d="M27.5,16.92A41.19,41.19,0,0,1,47.61,9.84a33.15,33.15,0,0,1,10.8,1.1,34.9,34.9,0,0,1,9.92,4.51l1.14.74c.38.26.73.55,1.1.83.71.56,1.46,1.09,2.14,1.69l2,1.86c.68.61,1.25,1.31,1.88,2,1.28,1.3,2.36,2.76,3.5,4.17s2.1,2.95,3.11,4.45a106.24,106.24,0,0,1,9.49,19.4l.29.76-.64.47a36.21,36.21,0,0,1-9.75,4.92,34.61,34.61,0,0,1-10.73,1.76,34.19,34.19,0,0,1-20.27-6.9A61.49,61.49,0,0,1,37.21,35.8a102.92,102.92,0,0,1-5.3-9.23c-.77-1.6-1.6-3.14-2.32-4.79Zm0,0,2.4,4.75c.77,1.55,1.68,3.09,2.52,4.63a103.1,103.1,0,0,0,5.66,8.91,60.58,60.58,0,0,0,14.48,15,39,39,0,0,0,9.19,4.66,30.71,30.71,0,0,0,10.1,1.63A34,34,0,0,0,91,50.08l-.35,1.23a104.89,104.89,0,0,0-9.12-19.09c-1-1.47-1.94-2.94-3-4.35s-2.12-2.81-3.34-4.07a43.74,43.74,0,0,0-7.81-7A33.46,33.46,0,0,0,58,12.25a32.7,32.7,0,0,0-10.38-1.34A41.64,41.64,0,0,0,27.5,16.92Z"/>
          </g>
          <path class="cls-13" d="M27.5,16.92a55.52,55.52,0,0,1,9,1.81c3,.8,5.88,1.8,8.75,2.88a131.85,131.85,0,0,1,16.68,7.82,154.77,154.77,0,0,1,15.51,9.89C80,41.08,82.33,43,84.75,44.9s4.66,4,6.92,6c-2.56-1.67-5-3.45-7.56-5.17L80.3,43.23c-1.27-.83-2.5-1.73-3.8-2.51-2.6-1.6-5.1-3.32-7.74-4.82-1.31-.77-2.59-1.6-3.91-2.35l-4-2.22c-5.3-2.95-10.71-5.69-16.26-8.16-2.78-1.2-5.58-2.4-8.43-3.43A84.68,84.68,0,0,0,27.5,16.92Z"/>
          <path class="cls-13" d="M51.89,10.5A38.13,38.13,0,0,1,57,15.28a63.39,63.39,0,0,1,4.33,5.47c1.33,1.91,2.57,3.89,3.72,5.92s2.16,4.13,3.12,6.26l.34.76-.63.5a37.33,37.33,0,0,1-5.58,3.61,44.46,44.46,0,0,1-6,2.69A46.42,46.42,0,0,1,50,42.32a45.19,45.19,0,0,1-6.43.89c2.08-.6,4.14-1.16,6.15-1.89s4-1.51,5.92-2.36,3.81-1.85,5.63-2.92a41.43,41.43,0,0,0,5.17-3.5l-.29,1.26c-1-2.06-1.89-4.14-3-6.14s-2.18-4-3.32-6S57.41,17.83,56.09,16A68.31,68.31,0,0,0,51.89,10.5Z"/>
          <path class="cls-13" d="M70.23,18.12a49.39,49.39,0,0,1,4.07,5.36,56.87,56.87,0,0,1,3.38,5.87,47.91,47.91,0,0,1,2.57,6.33,32.24,32.24,0,0,1,1.27,6.81l0,.26-.09.2a8.43,8.43,0,0,1-1,1.56c-.35.46-.74.87-1.12,1.28a19.5,19.5,0,0,1-2.51,2.13,30.44,30.44,0,0,1-5.58,3.21c-1,.47-2,.83-3,1.22s-2,.69-3,1-2,.57-3.06.8-2.06.42-3.1.61c1-.4,2-.79,2.93-1.17l2.88-1.21,2.83-1.3c.9-.5,1.86-.9,2.74-1.43a36.07,36.07,0,0,0,5.1-3.33,23.48,23.48,0,0,0,2.22-2,13.69,13.69,0,0,0,.94-1.1,7,7,0,0,0,.68-1.08l-.07.46a33.07,33.07,0,0,0-1.12-6.34,56.81,56.81,0,0,0-2.14-6.2c-.84-2-1.76-4-2.75-6S71.32,20.07,70.23,18.12Z"/>
        </g>
        <g>
          <g>
            <path class="cls-12" d="M109.05,65.53c14.35,21,51,18.84,87-32.36C196.07,33.17,149.14,20.23,109.05,65.53Z"/>
            <path class="cls-13" d="M109.05,65.53a31.11,31.11,0,0,0,4.53,5,28.79,28.79,0,0,0,5.53,3.78A29.26,29.26,0,0,0,132,77.44,37.85,37.85,0,0,0,138.6,77c1.09-.21,2.19-.38,3.27-.65s2.17-.51,3.22-.89A59.46,59.46,0,0,0,157.24,70a90.18,90.18,0,0,0,11-7.62,122.86,122.86,0,0,0,9.9-9.06A178.88,178.88,0,0,0,195.2,32.56l.58,1.64A64,64,0,0,0,184,32.58a85.81,85.81,0,0,0-23.89,2.18,90.06,90.06,0,0,0-22.52,8.44c-1.8.9-3.49,2-5.24,3l-2.54,1.66c-.85.54-1.69,1.1-2.5,1.7A116.72,116.72,0,0,0,109.05,65.53Zm0,0a109.93,109.93,0,0,1,17.63-16.79l1.22-.93,1.26-.87,2.52-1.73c1.75-1.06,3.44-2.21,5.24-3.17A89.8,89.8,0,0,1,148,36.72a86,86,0,0,1,23.8-5.83,88.64,88.64,0,0,1,12.3-.35,66.12,66.12,0,0,1,12.28,1.6l1.49.36-.9,1.29a165.57,165.57,0,0,1-17.38,21c-6.43,6.4-13.45,12.36-21.46,16.78a61.35,61.35,0,0,1-12.61,5.33c-1.08.36-2.22.56-3.33.84s-2.25.39-3.38.59a39.34,39.34,0,0,1-6.86.26,29.84,29.84,0,0,1-13.09-3.73,28.61,28.61,0,0,1-5.48-4A32.15,32.15,0,0,1,109.05,65.53Z"/>
          </g>
          <path class="cls-13" d="M196.07,33.17c-7.36,2.45-14.66,5-22,7.58s-14.57,5.18-21.81,7.92S137.84,54.12,130.64,57l-21.59,8.57c6.86-3.61,13.82-7.05,20.94-10.14,3.53-1.6,7.13-3,10.71-4.54s7.21-2.86,10.85-4.22c7.27-2.7,14.61-5.21,22-7.48S188.48,34.81,196.07,33.17Z"/>
          <path class="cls-13" d="M154.09,72.5a22.59,22.59,0,0,1-8-1.08l-1.92-.64L142.33,70c-.63-.25-1.23-.57-1.84-.86s-1.22-.58-1.8-.93a58.87,58.87,0,0,1-6.8-4.34,66,66,0,0,1-6.24-5.14l-.53-.49.26-.62A27.79,27.79,0,0,1,128,52.87a46.09,46.09,0,0,1,3.24-4.21A50.5,50.5,0,0,1,135,44.92a45.64,45.64,0,0,1,4.09-3.29l-1.75,1.94c-.56.66-1.16,1.29-1.71,2-1.11,1.33-2.19,2.67-3.19,4.06s-2,2.81-2.83,4.27a30.42,30.42,0,0,0-2.23,4.46l-.27-1.11c1.91,1.73,4,3.35,6.08,4.94s4.24,3.08,6.48,4.44a52.56,52.56,0,0,0,6.9,3.69A30.41,30.41,0,0,0,154.09,72.5Z"/>
          <path class="cls-13" d="M177.21,55.36q-4.47.42-9,.46c-3,0-6-.08-9-.28s-6-.57-8.95-1a77.69,77.69,0,0,1-8.88-1.9l-1.77-.52L141,50.82c2-1.92,4-3.77,6.15-5.53s4.27-3.47,6.51-5.07a60.68,60.68,0,0,1,14.41-7.94,93.43,93.43,0,0,0-13.41,9.26c-2.1,1.72-4.17,3.47-6.19,5.28s-4,3.64-5.94,5.53l-.45-1.79c2.77.77,5.7,1.4,8.59,1.91s5.84,1,8.78,1.34c1.47.17,2.94.36,4.42.49s3,.3,4.44.42C171.25,55,174.22,55.14,177.21,55.36Z"/>
        </g>
      </g>
    </g>
  </g>
</svg>
