<svg id="Layer_1" data-name="Layer 1" xmlns="http://www.w3.org/2000/svg" xmlns:xlink="http://www.w3.org/1999/xlink" width="191.83" height="320.51" viewBox="0 0 191.83 320.51">
  <defs>
    <style>
      .cls-1 {
        fill: #ff0;
      }

      .cls-2 {
        fill: url(#radial-gradient);
      }

      .cls-3 {
        fill: #ee9e4a;
      }

      .cls-4 {
        fill: url(#radial-gradient-2);
      }

      .cls-5 {
        fill: #ec942c;
      }

      .cls-6 {
        fill: url(#radial-gradient-3);
      }

      .cls-7 {
        fill: url(#radial-gradient-4);
      }

      .cls-8 {
        fill: #9e4f24;
      }

      .cls-9 {
        fill: url(#radial-gradient-5);
      }

      .cls-10 {
        fill: url(#radial-gradient-6);
      }

      .cls-11 {
        fill: #984421;
      }

      .cls-12 {
        fill: url(#radial-gradient-7);
      }

      .cls-13 {
        fill: #f6d85b;
      }

      .cls-14 {
        fill: url(#radial-gradient-8);
      }

      .cls-15 {
        fill: #59843c;
      }

      .cls-16 {
        fill: #e6e41b;
      }

      .cls-17 {
        fill: url(#radial-gradient-9);
      }

      .cls-18 {
        fill: #517837;
      }

      .cls-19 {
        fill: url(#radial-gradient-10);
      }

      .cls-20 {
        fill: url(#radial-gradient-11);
      }

      .cls-21 {
        fill: #7bb553;
      }

      .cls-22 {
        fill: url(#radial-gradient-12);
      }

      .cls-23 {
        fill: url(#radial-gradient-13);
      }
    </style>
    <radialGradient id="radial-gradient" cx="783.83" cy="3084.57" r="1.17" gradientTransform="matrix(20.95, 91.57, -72.74, 16.64, 208065.97, -122930.13)" gradientUnits="userSpaceOnUse">
      <stop offset="0" stop-color="#fbde70"/>
      <stop offset="1" stop-color="#f8bb18"/>
    </radialGradient>
    <radialGradient id="radial-gradient-2" cx="783.83" cy="3084.57" r="1.17" gradientTransform="matrix(20.95, 91.57, -72.74, 16.64, 208066, -122929.97)" gradientUnits="userSpaceOnUse">
      <stop offset="0" stop-color="#fad047"/>
      <stop offset="1" stop-color="#f6b019"/>
    </radialGradient>
    <radialGradient id="radial-gradient-3" cx="783.83" cy="3084.58" r="1.17" gradientTransform="matrix(20.95, 91.55, -72.72, 16.64, 208011.87, -122897.01)" gradientUnits="userSpaceOnUse">
      <stop offset="0" stop-color="#fce383"/>
      <stop offset="1" stop-color="#fac919"/>
    </radialGradient>
    <radialGradient id="radial-gradient-4" cx="542.34" cy="2949.55" r="1.17" gradientTransform="matrix(23.5, -2.74, 4.22, 35, -25079.54, -101683.49)" gradientUnits="userSpaceOnUse">
      <stop offset="0" stop-color="#db8727"/>
      <stop offset="1" stop-color="#9d5d26"/>
    </radialGradient>
    <radialGradient id="radial-gradient-5" cx="73.55" cy="1346.35" r="1.17" gradientTransform="matrix(6.22, -2.23, 1.2, 2.43, -1952.38, -3079.05)" xlink:href="#radial-gradient-4"/>
    <radialGradient id="radial-gradient-6" cx="73.56" cy="1346.35" r="1.17" gradientTransform="matrix(6.22, -2.23, 1.2, 2.43, -1952.38, -3079.05)" gradientUnits="userSpaceOnUse">
      <stop offset="0" stop-color="#d27528"/>
      <stop offset="1" stop-color="#975023"/>
    </radialGradient>
    <radialGradient id="radial-gradient-7" cx="541.47" cy="2949.25" r="1.17" gradientTransform="matrix(23.42, -2.73, 4.21, 34.89, -24977.45, -101349.8)" xlink:href="#radial-gradient-6"/>
    <radialGradient id="radial-gradient-8" cx="875.36" cy="2910.97" r="1.17" gradientTransform="matrix(-27.34, -34.81, 16.51, -12.97, -24050.91, 68282.19)" gradientUnits="userSpaceOnUse">
      <stop offset="0" stop-color="#97c93d"/>
      <stop offset="1" stop-color="#219e49"/>
    </radialGradient>
    <radialGradient id="radial-gradient-9" cx="875.36" cy="2910.97" r="1.17" gradientTransform="matrix(-27.34, -34.81, 16.51, -12.97, -24050.91, 68282.19)" gradientUnits="userSpaceOnUse">
      <stop offset="0" stop-color="#89b53f"/>
      <stop offset="1" stop-color="#208f45"/>
    </radialGradient>
    <radialGradient id="radial-gradient-10" cx="875.36" cy="2910.98" r="1.17" xlink:href="#radial-gradient-9"/>
    <radialGradient id="radial-gradient-11" cx="875.36" cy="2910.97" r="1.17" gradientTransform="matrix(-27.34, -34.81, 16.51, -12.97, -24050.91, 68282.19)" gradientUnits="userSpaceOnUse">
      <stop offset="0" stop-color="#c0d857"/>
      <stop offset="0.17" stop-color="#b1d459"/>
      <stop offset="0.51" stop-color="#8ac95e"/>
      <stop offset="0.97" stop-color="#4ab865"/>
      <stop offset="1" stop-color="#46b766"/>
    </radialGradient>
    <radialGradient id="radial-gradient-12" cx="783.83" cy="3084.57" r="1.17" gradientTransform="matrix(20.95, 91.57, -72.74, 16.64, 208066, -122929.97)" gradientUnits="userSpaceOnUse">
      <stop offset="0.01" stop-color="#f8e299"/>
      <stop offset="0.98" stop-color="#fbe5a3"/>
    </radialGradient>
    <radialGradient id="radial-gradient-13" cx="786.85" cy="3083.64" r="1.16" gradientTransform="matrix(25.04, 102.09, -78.91, 16.72, 223737.4, -131702.25)" xlink:href="#radial-gradient-12"/>
  </defs>
  <g>
    <path class="cls-1" d="M126.65,311.05a85.85,85.85,0,0,1-17.05-1.73c-17.24-3.5-42.29-14-63.76-44.29q-1.26-1.78-2.47-3.55c-19.92-29.35-30.06-61.58-28.55-90.77,1.48-29,14-52.93,35.23-67.36a77.27,77.27,0,0,1,15.09-8l-.65-.22A88.31,88.31,0,0,1,48,87.52l-.36-.2L47.08,87a94.77,94.77,0,0,1-11.93-8.67,8,8,0,0,1-2.28-2,116.07,116.07,0,0,1-20.6-25.2l-.12-.19a8,8,0,0,1,0-8.25l.1-.16C14.44,38.78,24,27.7,42.2,24.76A57.61,57.61,0,0,1,51.4,24a79.61,79.61,0,0,1,25,4.41,7.39,7.39,0,0,1,1.37.47c1.25.43,2.33.82,3.37,1.23,11.35,4.4,21.82,12.67,31.16,24.59-.26-1.7-.56-3.34-.92-4.93a47,47,0,0,0-5.9-15,25.62,25.62,0,0,0-2.18-3l-.36-.38-.09-.09-.3-.24A8,8,0,0,1,99.73,24a10.36,10.36,0,0,1,1.33-4.58c2.1-3.81,6.28-6.3,9.43-7.72l.16-.07A28.3,28.3,0,0,1,115.73,10a20.43,20.43,0,0,1,4.42-.53,13.87,13.87,0,0,1,1.46.07,10.17,10.17,0,0,1,8.17,5c.08.14.16.28.23.42s.23.47.35.77l.32.71a88.34,88.34,0,0,1,4.41,14.06c.52,2.3,1,4.69,1.33,7.11A92.37,92.37,0,0,1,138,46.76c.8,7.26.36,16-1.35,26.72a192.7,192.7,0,0,1-4.44,24.36,67,67,0,0,1,28.36,23.53c8.57,12.63,12.92,28.57,12.9,47.38,0,12.28-1,23.22-1.91,33.8-.59,6.68-1.14,13-1.39,19.06-.52,12.86.05,26.76,7.67,41.25A25,25,0,0,1,179,284.12c-2.48,6.12-7.26,11.69-13.84,16.15-10.25,7-23.92,10.78-38.5,10.78Z"/>
    <g>
      <path class="cls-2" d="M116.89,102l-1.56-.38c-13.64-3.43-26.54-3-33-1.71a72.08,72.08,0,0,0-27.17,11C36.32,123.76,25.3,145.4,24,171.19S31,227,51,256.31c.76,1.14,1.55,2.28,2.36,3.42,12.53,17.64,26.92,28.8,41.23,35.18-16.34-7.74-31.44-22.62-43.42-40.25-16.81-24.81-27.39-55-26.38-78.3.45-10.25.86-56.22,44.66-72.11a77,77,0,0,1,47.8-1.93C117.28,102.13,116.81,102.22,116.89,102ZM97.57,213.48c-6.86-10.12-11.17-24-11.31-39.44-.29-31.15,16.52-56.53,37.57-56.72,10.63-.13,20.31,6.25,27.32,16.56,6.85,10.12,11.16,24.05,11.31,39.44.28,31.15-16.55,56.53-37.58,56.75C114.25,230.16,104.58,223.79,97.57,213.48Zm55.43-87c-8-11.87-19.43-18.88-30.93-22.84a6.77,6.77,0,0,0-.35.6A74.26,74.26,0,0,1,145,118s-28.9-17.45-62.07,10c-20.59,17-35.81,54.16-4.71,106.18,1.57,2.64,3.16,5.11,4.76,7.49,33.13,48.85,72.17,41.65,81.88,15.35,0,0,3.2,7,6,14.82s-9.32,32.86-56.83,28.61a54.49,54.49,0,0,1-7.11-1.14c1.53.38,3,.76,4.54,1,19.51,4,37.45-.1,48.57-7.65,5.07-3.46,8.71-7.58,10.47-12a15.65,15.65,0,0,0-.72-13.58c-8-15.19-9.35-30-8.7-45.87s3.26-32.87,3.28-52.5C164.34,150.32,159.89,136.64,153,126.49Z"/>
      <path class="cls-3" d="M82.26,99.37l.11.57c6.42-1.24,19.32-1.72,33,1.71s28.06,10.66,37.67,24.84c6.89,10.15,11.34,23.83,11.33,42.26,0,19.63-2.65,36.61-3.28,52.5s.69,30.68,8.7,45.87a15.65,15.65,0,0,1,.72,13.58c-1.76,4.41-5.4,8.53-10.47,12-11.12,7.55-29.06,11.65-48.57,7.65s-40.62-16-58.12-40.61c-.81-1.14-1.6-2.28-2.36-3.42C31,227,22.65,197,24,171.19s12.35-47.43,31.23-60.25a72.08,72.08,0,0,1,27.17-11l-.11-.57-.1-.61A73.31,73.31,0,0,0,54.55,110C35.32,123,24.14,145.05,22.81,171.13S29.93,227.44,50,257c.78,1.14,1.57,2.29,2.38,3.43,17.65,24.87,39,37.05,58.83,41.08s38-.07,49.47-7.84c5.21-3.52,9-7.83,10.9-12.5a16.84,16.84,0,0,0-.78-14.56c-7.86-15-9.21-29.5-8.58-45.3s3.27-32.77,3.3-52.53c0-18.63-4.5-32.55-11.53-42.89-9.82-14.5-24.52-21.89-38.35-25.35s-26.84-3-33.46-1.75Z"/>
      <path class="cls-4" d="M145,118a74.26,74.26,0,0,0-23.29-13.74c-1.34,2.35-2.71,4.82-4.06,7.43l-.09.19-.22-.07a4.53,4.53,0,0,1-2.48-1.81h0a7.25,7.25,0,0,0,1.24-3.83l0-.07,0-.06s-.42-.64,1.08-3.71a77,77,0,0,0-47.8,1.93c-43.8,15.89-44.21,61.86-44.66,72.11-1,23.32,9.57,53.49,26.38,78.3,12,17.63,27.08,32.51,43.42,40.25a82.71,82.71,0,0,0,12.35,4.38,54.49,54.49,0,0,0,7.11,1.14c47.51,4.25,59.59-20.78,56.83-28.61s-6-14.82-6-14.82c-9.71,26.3-48.75,33.5-81.88-15.35-1.6-2.38-3.19-4.85-4.76-7.49C47.13,182.14,62.35,145,82.94,128,116.11,100.54,145,118,145,118Z"/>
      <path class="cls-5" d="M106.89,299.29a82.71,82.71,0,0,1-12.35-4.38A61,61,0,0,0,106.89,299.29Z"/>
      <path class="cls-6" d="M147.93,182.64a6.34,6.34,0,0,1-.64-5.39,4.65,4.65,0,0,1,4.3-3.43,4.15,4.15,0,0,1,3.16,1.94,5.54,5.54,0,0,1,.81,1.9c.73,3.24-1.11,7-4.46,6.79A3.9,3.9,0,0,1,147.93,182.64Zm-2.54-15.8a26.22,26.22,0,0,1-3.92-14.21c.05-6.44,2.65-10.85,5.82-11.42,2.29-.38,5,1.21,7.11,4.35a20.67,20.67,0,0,1,2.22,4.44c3.17,8.66,1.95,19.79-4.19,20.84C149.75,171.31,147.29,169.64,145.39,166.84Zm5.76-33c-7-10.31-16.69-16.69-27.32-16.56-21,.19-37.86,25.57-37.57,56.72.14,15.39,4.45,29.32,11.31,39.44,7,10.31,16.68,16.68,27.31,16.59,21-.22,37.86-25.6,37.58-56.75C162.31,157.93,158,144,151.15,133.88Z"/>
      <g>
        <path class="cls-7" d="M119.3,110.41a3.31,3.31,0,0,1-1.72,1,4.2,4.2,0,0,1-2.15-.13c.49-.85,1-3.9,1.44-6.6-.54,2.16-1.11,4.35-1.74,6.6a4.24,4.24,0,0,0,2.42.22l0,0a4.69,4.69,0,0,0,2-1l.62-1.78a180.6,180.6,0,0,0,5.73-22C122.85,100,119.3,110.41,119.3,110.41Zm3.42-90.07c-.81,1.43-2.92,3.05-5.74,4.28a17.9,17.9,0,0,1-3.65,1.24,11,11,0,0,1-3.38.29l-.33,0c2.29,2.5,7.3,9.23,10.12,21.79,2.65,11.8,3.4,28.71-1.79,52.16a1.09,1.09,0,0,0,.57,0c6-1.36,8-38.67,7.09-47.39-1-8.88-.65-28.17-9.34-26.21a6.83,6.83,0,0,0-1,.29,14,14,0,0,1-1.52.47c-2.66.61-3.17-.63-3.17-.63.74-.13,1.44-.29,2.09-.41,8.14-1.84,10.27-5.46,10.27-5.46,1,2.38,1.93,5,2.77,7.71A76.33,76.33,0,0,0,122.87,20Z"/>
        <path class="cls-8" d="M108.24,25.13l.19-.22s7.57,6.41,11.31,23c3.06,13.64,3.59,34.1-4.68,63.61l-.27-.1.14-.25,0,0a4.05,4.05,0,0,0,2.6.25,4.6,4.6,0,0,0,2.08-1.07l.17.22-.27-.1s.24-.63.65-1.84c2.84-8.44,13.74-44.28,6.52-76.29a79.08,79.08,0,0,0-4-12.69l.27-.13.09.29-14.75,5.58-.11-.29.19-.22-.19.22-.09-.28,15-5.65.11.25a79.63,79.63,0,0,1,4,12.79c8.28,36.83-7.18,78.45-7.18,78.45l0,.1,0,0a5.75,5.75,0,0,1-2.34,1.24,4.5,4.5,0,0,1-3.06-.38l-.19-.1.07-.22C122.74,82,122.22,61.55,119.17,48a54.72,54.72,0,0,0-7-17.51,34.74,34.74,0,0,0-2.95-4c-.38-.41-.69-.73-.89-.92l-.24-.22-.08-.06-.38-.32.48-.19Z"/>
        <path class="cls-9" d="M117.57,18.37a4.28,4.28,0,0,1,.58-.12,1.86,1.86,0,0,1,1.67.63c.59,1-1.24,2.83-4.08,4.07a11.36,11.36,0,0,1-2.57.85c-1.77.41-3.22.29-3.63-.38a1.15,1.15,0,0,1,.13-1.14A15.45,15.45,0,0,1,114,19.55h0a20.57,20.57,0,0,1,3.56-1.18Z"/>
        <path class="cls-8" d="M122.6,18.63l.25-.13a2.39,2.39,0,0,1,.16.38,2.24,2.24,0,0,1-.29,1.46c-.81,1.43-2.92,3.05-5.74,4.28a17.9,17.9,0,0,1-3.65,1.24,11,11,0,0,1-3.38.29,2.54,2.54,0,0,1-2-1,1.27,1.27,0,0,1-.15-.41,1.92,1.92,0,0,1,.28-1.42c.79-1.46,2.92-3,5.73-4.32h0a20.51,20.51,0,0,1,3.66-1.2,10.66,10.66,0,0,1,3.36-.32,2.47,2.47,0,0,1,2,1l-.25.13-.26.16a1.94,1.94,0,0,0-1.6-.7,9.76,9.76,0,0,0-3.17.28A20.57,20.57,0,0,0,114,19.55h0a15.31,15.31,0,0,0-4.34,2.73,5.41,5.41,0,0,0-1.11,1.33,1.44,1.44,0,0,0-.22,1l.08.23c.2.38.76.63,1.6.73a10,10,0,0,0,3.19-.29,20.19,20.19,0,0,0,3.53-1.2,16.46,16.46,0,0,0,4.37-2.7,5.7,5.7,0,0,0,1.09-1.33,1.6,1.6,0,0,0,.24-1l-.1-.22Z"/>
        <path class="cls-10" d="M118.15,18.25a8.27,8.27,0,0,1,2.59-.16,1.94,1.94,0,0,1,1.6.7l.26-.16-.26.16.1.22a1.6,1.6,0,0,1-.24,1,5.7,5.7,0,0,1-1.09,1.33,16.46,16.46,0,0,1-4.37,2.7,20.19,20.19,0,0,1-3.53,1.2h0a9.8,9.8,0,0,1-3.17.29c-.84-.1-1.4-.35-1.6-.73l-.08-.23a1.44,1.44,0,0,1,.22-1,5.41,5.41,0,0,1,1.11-1.33h0a1.15,1.15,0,0,0-.13,1.14c.41.67,1.86.79,3.63.38a11.36,11.36,0,0,0,2.57-.85c2.84-1.24,4.67-3.08,4.08-4.07A1.86,1.86,0,0,0,118.15,18.25Z"/>
        <path class="cls-11" d="M117.52,18.09c2.49-.57,4.52-.41,5.08.54.82,1.43-1.75,4-5.73,5.74a20.88,20.88,0,0,1-3.6,1.21c-2.51.57-4.54.38-5.09-.58s.55-2.56,2.69-4a5,5,0,0,0-1.2,1.3h0a5.41,5.41,0,0,0-1.11,1.33,1.44,1.44,0,0,0-.22,1l.08.23c.2.38.76.63,1.6.73a9.8,9.8,0,0,0,3.17-.29h0a20.19,20.19,0,0,0,3.53-1.2,16.46,16.46,0,0,0,4.37-2.7,5.7,5.7,0,0,0,1.09-1.33,1.6,1.6,0,0,0,.24-1l-.1-.22.26-.16-.26.16a1.94,1.94,0,0,0-1.6-.7,8.27,8.27,0,0,0-2.59.16,7.58,7.58,0,0,0-2,.22,2.06,2.06,0,0,0-.45.13A13.43,13.43,0,0,1,117.52,18.09Z"/>
        <path class="cls-12" d="M123,20.69c1,2.38,1.93,5,2.77,7.71.37,1.33.7,2.63,1,4,3.09,13.73,2.84,28.2,1.35,40.86a5.37,5.37,0,0,0,.16,1.14h-.3v.29s-.21,1.64-1,6.65c-.3,1.88-.63,3.69-1,5.4-3.08,13.29-6.63,23.7-6.63,23.7a3.31,3.31,0,0,1-1.72,1,4.2,4.2,0,0,1-2.15-.13c.49-.85,1-3.9,1.44-6.6.38-1.55.75-3.1,1.08-4.59a1.09,1.09,0,0,0,.57,0c6-1.36,8-38.67,7.09-47.39-1-8.88-.65-28.17-9.34-26.21a6.83,6.83,0,0,0-1,.29,14,14,0,0,1-1.52.47c-2.66.61-3.17-.63-3.17-.63.74-.13,1.44-.29,2.09-.41C120.82,24.31,123,20.69,123,20.69Z"/>
        <path class="cls-13" d="M128.53,38.93a87.64,87.64,0,0,1,1.55,8.73c.81,7.36,0,16.21-1.36,25A129,129,0,0,0,128.53,38.93Z"/>
        <path class="cls-11" d="M116.87,104.66c.38-1.55.75-3.1,1.08-4.59a3.52,3.52,0,0,1-.43-.13S117.25,102.16,116.87,104.66Zm9.06-18c.36-1.56.73-3.17,1.08-4.82,0-.19-.07-.38-.1-.58C126.59,83.19,126.28,85,125.93,86.71Zm.79-54.34c3.09,13.73,2.86,28.2,1.35,40.86a3.51,3.51,0,0,1,.55,0c0-.22.08-.45.1-.64a129,129,0,0,0-.19-33.69c-.73-3.33-1.7-7-2.81-10.53C126.09,29.73,126.42,31,126.72,32.37Z"/>
        <g>
          <path class="cls-14" d="M41.41,71.29a43.72,43.72,0,0,1-6.69-5.74c-2.49-2.6-4.65-5.11-6.45-7.36L27.54,58A98.91,98.91,0,0,0,39.73,70.94C40.29,71.07,40.86,71.2,41.41,71.29Zm10.14-36c-.89-.57-1.84-1.17-2.82-1.71a34.19,34.19,0,0,0-4.08.07,43.48,43.48,0,0,0-4.55.85,23,23,0,0,1,4.55-.85c1-.13,2.22-.26,3.55-.35a10.27,10.27,0,0,0-.92-.51h0c-1.28.13-2.52.25-3.71.44-15.75,2.57-23,12.21-23.89,13.55C22,50.54,24.46,54,26.93,57.24l.75.19A75.56,75.56,0,0,1,20.62,47s.46-.48,1.32-1.27h-.11l0-.57.87-.1c3.52-3.17,11.12-9.23,18.72-10.15A36.4,36.4,0,0,1,51.55,35.28Zm13.74-1a61.14,61.14,0,0,0-16.91-1.53l.89.48A67.16,67.16,0,0,1,65.29,34.24Zm24.09,24.9a32.23,32.23,0,0,0-4.84-12.5c-10.2-7.45-23.9-12.28-34.54-13,1.06.63,2.06,1.26,3,1.93C65.52,38.17,79.48,46.29,81.56,59c2.86,1.52,5.58,3.11,8.19,4.7v-.07c0-.22,0-.57,0-1A30.43,30.43,0,0,0,89.38,59.14ZM97.79,76a52.51,52.51,0,0,1-19.4,9.36C86.89,85.31,94.85,83.16,97.79,76Zm1.14-5.55c-2.71-1.9-5.66-3.87-8.8-5.8-2.68-1.65-5.51-3.3-8.47-4.89a20.87,20.87,0,0,1,0,5.52c-1.06,7.77-20.35,18.69-39,6.88-.65-.12-1.32-.22-2-.38a86.39,86.39,0,0,0,13.53,9.49,97.06,97.06,0,0,0,21.53,4l0,0c10-1.62,18.15-7,22.41-10.31a14.89,14.89,0,0,0,.59-2.57C98.83,71.7,98.9,71,98.93,70.4Zm-.22-4.06c-1.16-7.11-6.14-13.51-12.88-18.75A33.25,33.25,0,0,1,90,59.05h0A25.53,25.53,0,0,1,90.33,64h-.09c3.09,1.9,6,3.84,8.71,5.74A20.85,20.85,0,0,0,98.71,66.34Z"/>
          <path class="cls-15" d="M121.68,87.38l-.1-.26-.87.29a74.66,74.66,0,0,1-11.95,2.85,86.5,86.5,0,0,1-41.51-3.2C51.09,81.51,33.88,69.8,19.59,46.61l-.25.16.25.16.08-.13c.81-1.17,8-11,23.9-13.58,8.73-1.39,20.08-.63,34.47,4.92S103.32,56.06,110.56,67a121.72,121.72,0,0,1,8.15,14.37c.9,1.84,1.57,3.39,2,4.44s.67,1.68.67,1.68l.27-.12-.1-.26.1.26.28-.1a117.48,117.48,0,0,0-10.91-20.59c-7.27-11-18.18-23.41-32.8-29.09-14.47-5.58-25.94-6.38-34.77-5-17.2,2.79-24.37,13.9-24.4,14l-.09.16.09.16C33.44,70.21,50.77,82,67.08,87.6a86.42,86.42,0,0,0,41.78,3.23,70,70,0,0,0,12.91-3.17l.29-.1-.1-.28Z"/>
          <path class="cls-15" d="M120,87S73.88,39.85,21.78,45.12l0,.57c25.85-2.63,50.31,7.8,68.3,18.91a184.73,184.73,0,0,1,21.51,15.57c2.55,2.19,4.55,4,5.91,5.27.68.63,1.21,1.14,1.56,1.49s.52.51.52.51Z"/>
          <path class="cls-15" d="M101.44,72.09l-.5.44c-2.23,2.09-12.08,10.59-25.2,12.69a34.93,34.93,0,0,1-14.62-.6l-.15.57a36.68,36.68,0,0,0,14.87.63c15.21-2.48,26-13.32,26-13.32Z"/>
          <path class="cls-15" d="M80.44,59.11l-.46.44c-2.11,1.94-11.44,9.84-24.51,12a40.15,40.15,0,0,1-16.13-.66l-.15.57a40.75,40.75,0,0,0,16.36.67A50.68,50.68,0,0,0,80.83,59.52Z"/>
          <path class="cls-15" d="M58.17,49.34a4.08,4.08,0,0,0-.32.28A35.13,35.13,0,0,1,40.46,58a32.05,32.05,0,0,1-13.56-.76l-.16.57a32.78,32.78,0,0,0,13.82.76,35.68,35.68,0,0,0,18-8.82l-.41-.41Z"/>
          <path class="cls-15" d="M67.54,52.67s-4.89-12.53-20-20.4l-.27.51a45.85,45.85,0,0,1,15.45,13A37.92,37.92,0,0,1,66,50.86c.35.64.58,1.14.74,1.49l.24.54Z"/>
          <path class="cls-15" d="M90.33,64A25.53,25.53,0,0,0,90,59.05,32.55,32.55,0,0,0,74.49,36.21l-.3.5A31.91,31.91,0,0,1,89.38,59.14a30.43,30.43,0,0,1,.37,3.49c0,.41,0,.76,0,1v.32Z"/>
          <path class="cls-15" d="M112.83,80.36a36.61,36.61,0,0,0-.51-5.74c-.64-4-2.1-9.26-5.44-13.51l-.46.35c3.25,4.12,4.69,9.36,5.33,13.26a36.36,36.36,0,0,1,.44,4.06c0,.5,0,.89,0,1.17v.41Z"/>
          <path class="cls-16" d="M51.79,80.49l-.18-.13h0ZM112.52,69a94.32,94.32,0,0,0-7.23-10.19c2.13,2.63,4,5.3,5.76,7.9C111.56,67.45,112.05,68.25,112.52,69Z"/>
          <path class="cls-17" d="M75.71,85.25a97.06,97.06,0,0,1-21.53-4c2.32,1.27,4.64,2.41,6.94,3.43v0A35.83,35.83,0,0,0,75.71,85.25Zm25.66-13.1c-.79-.57-1.6-1.18-2.44-1.75,0,.64-.1,1.3-.19,1.94a14.89,14.89,0,0,1-.59,2.57,32.94,32.94,0,0,0,2.79-2.38C101.15,72.34,101.29,72.21,101.37,72.15Zm10.38,2.57c-.64-3.9-2.08-9.14-5.33-13.26l.14-.1C99.53,52.06,90,42.8,78,38.14c-.48-.16-1-.35-1.43-.51a32.86,32.86,0,0,1,9.22,10c6.74,5.24,11.72,11.64,12.88,18.75A20.85,20.85,0,0,1,99,69.7c5.34,3.75,9.83,7.3,13.29,10.22,0-.25,0-.66,0-1.14a36.36,36.36,0,0,0-.44-4.06Zm9.56,12.5c-.11-.29-.3-.73-.57-1.4-.46-1-1.13-2.6-2-4.44A121.72,121.72,0,0,0,110.56,67c-.29-.45-.59-.89-.91-1.33a34.19,34.19,0,0,1,2.67,8.94,36.61,36.61,0,0,1,.51,5.74h-.1c4.7,4,7.31,6.67,7.31,6.67l-.41.41s-.17-.19-.52-.51-.88-.86-1.56-1.49c-1.36-1.27-3.36-3.08-5.91-5.27s-6-4.88-9.81-7.7l0,0A48.52,48.52,0,0,1,97.79,76c-2.94,7.21-10.9,9.36-19.4,9.36-.84.19-1.7.35-2.55.51a36.71,36.71,0,0,1-11.93,0c1.12.45,2.23.86,3.34,1.24a86.5,86.5,0,0,0,41.51,3.2,74.66,74.66,0,0,0,11.95-2.85Z"/>
          <path class="cls-18" d="M61.12,84.65c-2.3-1-4.62-2.16-6.94-3.43-1.44-.44-2.36-.76-2.57-.86l.18.13a97.1,97.1,0,0,0,9.26,4.44Zm60.56,2.73h0A122.73,122.73,0,0,0,112.52,69c-.47-.73-1-1.53-1.47-2.29-1.71-2.6-3.63-5.27-5.76-7.9C96,47.4,85.7,40.87,76.12,37.25l.49.38c.48.16,1,.35,1.43.51,12,4.66,21.49,13.92,28.52,23.22l.32-.25a22.65,22.65,0,0,1,2.77,4.57c.32.44.62.88.91,1.33a121.72,121.72,0,0,1,8.15,14.37c.9,1.84,1.57,3.39,2,4.44.27.67.46,1.11.57,1.4l-.6.19a74.66,74.66,0,0,1-11.95,2.85,86.5,86.5,0,0,1-41.51-3.2c-1.11-.38-2.22-.79-3.34-1.24-.42-.06-.83-.16-1.26-.25C95.52,98.54,121.68,87.38,121.68,87.38Z"/>
          <path class="cls-18" d="M120,87s-2.61-2.67-7.31-6.67h-.49v-.44C108.78,77,104.29,73.45,99,69.7c0,.23,0,.45,0,.7.84.57,1.65,1.18,2.44,1.75l.07-.06.39.38c3.83,2.82,7.12,5.45,9.81,7.7s4.55,4,5.91,5.27c.68.63,1.21,1.14,1.56,1.49s.52.51.52.51Z"/>
          <path class="cls-18" d="M78.39,85.31c-.89,0-1.78,0-2.68-.06a35.83,35.83,0,0,1-14.59-.63v0l-.07.28c.54.22,1.06.45,1.6.64s.84.19,1.26.25a36.71,36.71,0,0,0,11.93,0C76.69,85.66,77.55,85.5,78.39,85.31ZM101.85,72.5l0,0-.39-.38-.07.06c-.08.06-.22.19-.43.38a32.94,32.94,0,0,1-2.79,2.38c-.11.35-.24.7-.36,1A48.52,48.52,0,0,0,101.85,72.5Z"/>
          <path class="cls-19" d="M84.54,46.64a32.83,32.83,0,0,0-10.16-9.83,85.94,85.94,0,0,0-9.09-2.57,67.16,67.16,0,0,0-16-1.05c.25.16.49.29.73.45C60.64,34.36,74.34,39.19,84.54,46.64Z"/>
          <path class="cls-18" d="M74.38,36.81l-.19-.1.06-.12a65.41,65.41,0,0,0-9-2.35A85.94,85.94,0,0,1,74.38,36.81Z"/>
          <path class="cls-18" d="M85.83,47.59a32.86,32.86,0,0,0-9.22-10l-.49-.38-1.87-.66-.06.12.19.1a32.83,32.83,0,0,1,10.16,9.83Z"/>
          <path class="cls-18" d="M112.32,74.62a34.19,34.19,0,0,0-2.67-8.94,22.65,22.65,0,0,0-2.77-4.57l-.32.25-.14.1c3.25,4.12,4.69,9.36,5.33,13.26h0a36.36,36.36,0,0,1,.44,4.06c0,.48,0,.89,0,1.14v.44h.59A36.61,36.61,0,0,0,112.32,74.62Z"/>
          <path class="cls-20" d="M57.83,49.65a91.51,91.51,0,0,0-35.89-4c-.86.79-1.32,1.27-1.32,1.27a75.56,75.56,0,0,0,7.06,10.47A31.78,31.78,0,0,0,40.46,58,35.48,35.48,0,0,0,57.83,49.65Zm8.82,2.45c-.16-.32-.36-.76-.63-1.24a37.92,37.92,0,0,0-3.29-5.11A45.48,45.48,0,0,0,51.55,35.28a36.4,36.4,0,0,0-10.18-.41c-7.6.92-15.2,7-18.72,10.15C38.23,43.63,53.26,46.86,66.65,52.1Zm15,7.61A144.15,144.15,0,0,0,67,52.86l0,0,0,0c-2.76-1.08-5.61-2.09-8.51-3a35.68,35.68,0,0,1-17.91,8.72,33.26,33.26,0,0,1-12.29-.38c1.8,2.25,4,4.76,6.45,7.36a43.72,43.72,0,0,0,6.69,5.74,39.75,39.75,0,0,0,14.06.22c13.07-2.12,22.4-10,24.51-12,.3-.28.44-.44.44-.44l.41.41A50.68,50.68,0,0,1,55.55,72.09a40.73,40.73,0,0,1-12.91,0c18.62,11.81,37.91.89,39-6.88A20.87,20.87,0,0,0,81.66,59.71Zm-.1-.73C79.48,46.29,65.52,38.17,53,35.57A42.81,42.81,0,0,1,67.43,52.42,143.6,143.6,0,0,1,81.56,59Z"/>
          <path class="cls-21" d="M67,52.86a5.32,5.32,0,0,0-.22-.51l-.11-.25c-13.39-5.24-28.42-8.47-44-7.08-.25.26-.49.45-.71.67a91.51,91.51,0,0,1,35.89,4l0,0a4.08,4.08,0,0,1,.32-.28h0l.41.41-.11.1C61.37,50.77,64.22,51.78,67,52.86ZM81.56,59v0a143.6,143.6,0,0,0-14.13-6.56,1.52,1.52,0,0,1,.11.25l-.52.19a144.15,144.15,0,0,1,14.64,6.85C81.62,59.49,81.59,59.23,81.56,59Z"/>
          <path class="cls-21" d="M80.83,59.52l-.39-.41-.46.44c-2.11,1.94-11.44,9.84-24.51,12a39.75,39.75,0,0,1-14.06-.22c.42.29.83.57,1.23.82a40.73,40.73,0,0,0,12.91,0A50.68,50.68,0,0,0,80.83,59.52Z"/>
          <path class="cls-21" d="M58.58,49.75l-.41-.41h0a4.08,4.08,0,0,0-.32.28l0,0A35.48,35.48,0,0,1,40.46,58a31.78,31.78,0,0,1-12.78-.57l.59.76a33.26,33.26,0,0,0,12.29.38,35.68,35.68,0,0,0,17.91-8.72Z"/>
          <path class="cls-21" d="M67.54,52.67a1.52,1.52,0,0,0-.11-.25A42.81,42.81,0,0,0,53,35.57l-1.44-.29A45.48,45.48,0,0,1,62.73,45.75,37.92,37.92,0,0,1,66,50.86c.27.48.47.92.63,1.24l.11.25a5.32,5.32,0,0,1,.22.51l0,0,0,0Z"/>
        </g>
      </g>
      <path class="cls-22" d="M154.4,145.56c-2.16-3.14-4.82-4.73-7.11-4.35-3.17.57-5.77,5-5.82,11.42a26.22,26.22,0,0,0,3.92,14.21c1.9,2.8,4.36,4.47,7,4,6.14-1.05,7.36-12.18,4.19-20.84A20.67,20.67,0,0,0,154.4,145.56Z"/>
      <path class="cls-23" d="M154.91,174.75a4.34,4.34,0,0,0-8.09,1.47,7.27,7.27,0,0,0,.82,6,4.49,4.49,0,0,0,3.5,2.08c3.65.25,5.57-3.82,4.7-7.42A6.26,6.26,0,0,0,154.91,174.75Z"/>
      <path class="cls-3" d="M107.05,106.66a28.27,28.27,0,0,0,20.16,6.67l-.06-1.18A27.6,27.6,0,0,1,113,109.23a29.59,29.59,0,0,1-3.81-2.35c-.43-.31-.76-.6-1-.79a3,3,0,0,1-.24-.22l-.08-.06Z"/>
    </g>
  </g>
</svg>
