<svg xmlns="http://www.w3.org/2000/svg" xmlns:xlink="http://www.w3.org/1999/xlink" width="312" height="250.72" viewBox="0 0 312 250.72">
  <defs>
    <style>
      .cls-1 {
        isolation: isolate;
      }

      .cls-2 {
        fill: #ff0;
      }

      .cls-3 {
        fill: #f4e9e4;
        stroke: #3a3a35;
        stroke-miterlimit: 10;
      }

      .cls-4 {
        opacity: 0.2;
      }

      .cls-4, .cls-6 {
        mix-blend-mode: multiply;
      }

      .cls-5 {
        fill: #dd8e65;
      }

      .cls-6 {
        opacity: 0.5;
      }

      .cls-7 {
        fill: #c6b9b3;
      }

      .cls-8 {
        fill: url(#linear-gradient);
      }
    </style>
    <linearGradient id="linear-gradient" x1="246.36" y1="161.92" x2="196.02" y2="196.81" gradientUnits="userSpaceOnUse">
      <stop offset="0" stop-color="#c95b3c"/>
      <stop offset="0.13" stop-color="#dd8e65"/>
      <stop offset="0.31" stop-color="#e6baa8"/>
      <stop offset="0.31" stop-color="#e7bcaa"/>
      <stop offset="0.37" stop-color="#ecccbe"/>
      <stop offset="0.43" stop-color="#f0d6cb"/>
      <stop offset="0.48" stop-color="#f1d9cf"/>
      <stop offset="0.71" stop-color="#e6baa8"/>
      <stop offset="0.87" stop-color="#dd8e65"/>
      <stop offset="1" stop-color="#c95b3c"/>
    </linearGradient>
  </defs>
  <g class="cls-1">
    <g id="Layer_1" data-name="Layer 1">
      <g>
        <path class="cls-2" d="M201.69,242.58c-35.52,0-65.61-18.06-77.31-45.13a70.76,70.76,0,0,1-38.85,11.77c-1.69,0-3.4-.06-5.09-.19-1.13-.08-2.26-.2-3.46-.34l-.41-.05-.66-.1-.25,0c-.72-.1-1.43-.21-2.14-.33l-.68-.12-1-.18-1.79-.38-1.82-.42-1.44-.39-2-.56-.71-.23-1.18-.38-.45-.15-1.1-.38-1.05-.4-.19-.07c-.72-.27-1.44-.55-2.15-.85l-1.31-.55c-.72-.32-1.44-.66-2.16-1l-.3-.14-.82-.39c-1-.51-2-1-3-1.6l-.89-.51-.32-.2c-.63-.36-1.25-.72-1.86-1.1l-1.42-.91-1.58-1.06c-.52-.37-1-.68-1.43-1l-1.34-1-.16-.12c-.82-.63-1.63-1.27-2.42-1.93l-.26-.21-1.17-1c-.45-.39-.89-.8-1.33-1.2l-.32-.29-1-.92c-.51-.48-1-1-1.53-1.49-.33-.33-.64-.66-1-1-.53-.55-1-1.1-1.57-1.66l-.57-.65c-1.21-1.35-2.38-2.76-3.48-4.16l-.24-.31c-.52-.67-1.05-1.39-1.57-2.11l-.54-.75c-.51-.72-1-1.46-1.51-2.2l-.41-.64a88.44,88.44,0,0,1-6.09-11l-.24-.53c-.42-.92-.84-1.87-1.24-2.83a1,1,0,0,0-.08-.18,101,101,0,0,1-3.41-9.69l0-.08c-.31-1.06-.6-2.13-.88-3.21l-.11-.44a111.75,111.75,0,0,1-2.9-35.67C9.44,84.61,19.32,59,34.66,39.78,50.9,19.38,71.06,8.14,91.42,8.14c1.33,0,2.68,0,4,.15a57,57,0,0,1,13,2.52l.38.13A62.59,62.59,0,0,1,122,17l.11.07c1,.63,2.08,1.3,3.09,2a77.19,77.19,0,0,1,11.63,9.83c.93,1,1.8,1.89,2.64,2.84l.09.1A95.46,95.46,0,0,1,149,44.43l.09.15c.69,1.1,1.37,2.22,2,3.33l.14.25c.64,1.1,1.28,2.26,1.88,3.41l.07.12c1.23,2.34,2.42,4.81,3.52,7.31l0,.08c.52,1.19,1,2.43,1.54,3.71l.14.33c.47,1.19.93,2.41,1.37,3.65l.13.35c.44,1.25.87,2.51,1.27,3.78l.07.22c.83,2.64,1.59,5.33,2.25,8l0,.21c.32,1.33.61,2.63.89,4l.1.47c.26,1.29.51,2.58.73,3.88,0,0,.21,1.21.21,1.23.18,1,.34,2.15.5,3.25l.2,1.59c.22,1.72.39,3.36.53,5l0,.18c.05.63.1,1.3.15,2l0,.4c0,.64.08,1.26.11,1.88a104.85,104.85,0,0,1,26.79-7.89,120,120,0,0,1,18.63-1.45c20.54,0,40.93,5.21,57.41,14.67,17.53,10.07,29.39,24.32,33.37,40.11l0,.18c.15.59.3,1.23.43,1.87l.05.23c.15.72.28,1.43.39,2.15,4.19,26.45-12.69,55.14-43,73.09l-.2.12c-1.68,1-3.44,2-5.19,2.89l-.3.15c-.78.4-1.56.8-2.35,1.18l-.42.21c-.85.41-1.74.84-2.64,1.25l-.15.06c-.75.35-1.6.72-2.44,1.08l-.69.29c-.72.3-1.49.62-2.27.92l-.4.16c-.86.34-1.76.68-2.66,1l-.64.23-2.12.74-.76.25c-.9.3-1.8.59-2.71.86l-.22.07-2.56.74-.83.22-2.2.57-.65.17c-.94.22-1.86.44-2.79.64l-.73.15c-.73.16-1.47.31-2.21.45l-.83.16c-1,.18-1.94.35-2.9.5a113,113,0,0,1-17.57,1.4Z"/>
        <g>
          <g>
            <path class="cls-3" d="M158.88,118.74c-3.81,51-39.41,85.19-77.84,82.31s-69.32-39.49-65.51-90.52S56.4,13.4,94.84,16.27,162.69,67.71,158.88,118.74Z"/>
            <g class="cls-4">
              <path class="cls-5" d="M106.15,18.49c13,11.34,32.17,39.06,29.36,80.76-3.54,52.47-42.21,79.4-70,78.3-20.74-.83-39.47-13.2-48.05-36.93,7.57,34.84,33.19,58.17,63.55,60.43,38.43,2.88,74-31.28,77.84-82.31C162.31,72.85,138.86,29,106.15,18.49Z"/>
            </g>
            <g class="cls-6">
              <path class="cls-7" d="M155.73,81c1,11.07.22,25.54-7.53,35.88-12.8,17.07-22.11,28.27-24,52.44-1.67,21.37-35.29,38.25-67.91,24.74a64.45,64.45,0,0,0,24.76,7c38.43,2.88,74-31.28,77.84-82.31A120.75,120.75,0,0,0,155.73,81Z"/>
            </g>
          </g>
          <g>
            <g>
              <path class="cls-3" d="M218,233.28C171.51,240.64,133.4,216,127.85,181s20.73-70.43,67.23-77.79,95.62,16.07,101.17,51.1S264.52,225.9,218,233.28Z"/>
              <g class="cls-4">
                <path class="cls-8" d="M180,226.07c-34.91-9.92-47.74-31.18-52.41-46.89.08.59.15,1.19.24,1.78,5.55,35,43.66,59.68,90.17,52.32,32.36-5.13,60.24-24.43,72.34-47.5C267.27,215.21,221.63,237.9,180,226.07Z"/>
              </g>
            </g>
            <g class="cls-4">
              <path class="cls-5" d="M296.25,154.27a42.74,42.74,0,0,0-1.8-7.19c-.66,23.89-20.32,47.78-61.48,56.23-61.13,12.54-102.17-18.59-95.11-55.82,3-16,13-22.67,22.27-31.59C136.06,131,123.91,156.05,127.85,181c5.55,35,43.66,59.68,90.17,52.32S301.8,189.3,296.25,154.27Z"/>
            </g>
          </g>
        </g>
      </g>
    </g>
  </g>
</svg>
