<svg id="Layer_1" data-name="Layer 1" xmlns="http://www.w3.org/2000/svg" xmlns:xlink="http://www.w3.org/1999/xlink" width="137.87" height="303.32" viewBox="0 0 137.87 303.32">
  <defs>
    <style>
      .cls-1 {
        fill: none;
      }

      .cls-2 {
        opacity: 0.3;
      }

      .cls-3, .cls-4, .cls-64 {
        fill: #fff;
      }

      .cls-4 {
        stroke: #fff;
        stroke-width: 5px;
      }

      .cls-21, .cls-33, .cls-4, .cls-40, .cls-6, .cls-61, .cls-64, .cls-73, .cls-9 {
        stroke-miterlimit: 10;
      }

      .cls-5 {
        fill: #e89b7c;
      }

      .cls-6 {
        fill: #81bee8;
      }

      .cls-21, .cls-33, .cls-40, .cls-6, .cls-61, .cls-9 {
        stroke: #4a2811;
      }

      .cls-21, .cls-40, .cls-6, .cls-9 {
        stroke-width: 0.5px;
      }

      .cls-7 {
        fill: #797979;
      }

      .cls-8 {
        fill: #dd805f;
      }

      .cls-9 {
        fill: #5493b6;
      }

      .cls-10 {
        fill: #5b7d38;
      }

      .cls-11 {
        fill: #d26444;
      }

      .cls-12 {
        fill: #42602d;
      }

      .cls-13 {
        fill: #c21e6c;
      }

      .cls-14 {
        fill: #dcc13f;
      }

      .cls-15 {
        fill: #af1e52;
      }

      .cls-16 {
        fill: #ceac2b;
      }

      .cls-17 {
        fill: #a01e57;
      }

      .cls-18 {
        fill: #7b9958;
      }

      .cls-19 {
        fill: #647f40;
      }

      .cls-20 {
        fill: #8b8b8b;
      }

      .cls-21, .cls-23, .cls-61 {
        fill: #f7d8d0;
      }

      .cls-22 {
        fill: #4d4e4e;
      }

      .cls-24 {
        fill: #dc9c2a;
      }

      .cls-25 {
        fill: #5c9641;
      }

      .cls-26 {
        fill: #951a3a;
      }

      .cls-27 {
        fill: #ba932e;
      }

      .cls-28 {
        fill: #5f7e3e;
      }

      .cls-29 {
        fill: #48622d;
      }

      .cls-30 {
        fill: #2f441d;
      }

      .cls-31 {
        fill: #f2b22e;
      }

      .cls-32 {
        fill: #294720;
      }

      .cls-33, .cls-40 {
        fill: #f0cdc6;
      }

      .cls-33, .cls-64 {
        stroke-width: 0.75px;
      }

      .cls-34 {
        fill: #2a2a2a;
      }

      .cls-35 {
        fill: #427b3a;
      }

      .cls-36 {
        fill: #4a2811;
        opacity: 0.25;
      }

      .cls-37 {
        fill: #305e2e;
      }

      .cls-38 {
        fill: #26421d;
      }

      .cls-39 {
        fill: #c1472c;
      }

      .cls-41 {
        fill: #7a1125;
      }

      .cls-42 {
        fill: #b6765a;
      }

      .cls-43 {
        fill: #79ae42;
      }

      .cls-44 {
        fill: #3b5225;
      }

      .cls-45 {
        fill: #342517;
      }

      .cls-46 {
        fill: #4d3f3f;
      }

      .cls-47 {
        fill: #d9a227;
      }

      .cls-48 {
        fill: #db6537;
      }

      .cls-49 {
        fill: #5a7d38;
      }

      .cls-50 {
        fill: #dbba26;
      }

      .cls-51 {
        fill: #cc7a5e;
      }

      .cls-52 {
        fill: #c87d29;
      }

      .cls-53 {
        fill: #e29939;
      }

      .cls-54 {
        fill: #edba26;
      }

      .cls-55 {
        fill: #d1cdc9;
      }

      .cls-56 {
        fill: #352a2a;
      }

      .cls-57 {
        clip-path: url(#clip-path);
      }

      .cls-58 {
        fill: #1a1723;
      }

      .cls-59 {
        fill: #e36381;
      }

      .cls-60 {
        fill: #f2bca9;
      }

      .cls-62 {
        fill: #b16b51;
      }

      .cls-63 {
        fill: #e9a597;
        opacity: 0.5;
      }

      .cls-64 {
        stroke: #3d2e17;
      }

      .cls-65 {
        fill: #3d2e17;
      }

      .cls-66 {
        fill: #8c3e36;
      }

      .cls-67 {
        fill: #7b2f2c;
      }

      .cls-68 {
        fill: #f5968e;
      }

      .cls-69 {
        fill: #f48678;
      }

      .cls-70 {
        fill: #fff6f3;
      }

      .cls-71 {
        fill: #f48a71;
      }

      .cls-72 {
        fill: #ef4b3b;
      }

      .cls-73 {
        fill: #e7d760;
        stroke: #baa63c;
      }
    </style>
    <clipPath id="clip-path">
      <path class="cls-1" d="M63,53.92h-.19c-2.08.17-3.6,3.15-3.39,6.65s2,6,4,6h.19c2.08-.18,3.6-3.15,3.39-6.65s-2-6-4-6"/>
    </clipPath>
  </defs>
  <g>
    <g class="cls-2">
      <path d="M56,87.6a.36.36,0,0,1,.07-.1l-.14,0S56,87.55,56,87.6Z"/>
      <path d="M58.83,87.79s0,0,0,0h0Z"/>
      <path d="M57.42,87.89a1,1,0,0,1,.08-.14h-.13A.88.88,0,0,1,57.42,87.89Z"/>
      <path d="M41.43,110.05l-.06-.13.06.14Z"/>
      <path d="M29.19,100.89h0Z"/>
      <path d="M41.43,110.05a.69.69,0,0,0,0-.1h0l0,.11Z"/>
      <path d="M98.89,87.52l-.13,0,0,.14A.93.93,0,0,1,98.89,87.52Z"/>
      <path d="M101.61,87.74h-.13a1,1,0,0,1,.08.14Z"/>
      <path d="M103.07,87.47l-.15,0,.08.1A.33.33,0,0,1,103.07,87.47Z"/>
      <path d="M100.16,87.77h0s0,0,0,0Z"/>
      <path d="M125.26,227.27c0,1.07.08,2.13.13,3.16v.1l7.48-.47c0-1-.08-2-.12-3.1l-.06-1.64-7.49.28c0,.52,0,1,0,1.55Z"/>
      <path d="M52.46,97h0l-.24.08h0Z"/>
      <path d="M125.54,233.53v.11c0,1,.11,1.88.17,2.77v.13c0,.43,0,.85.08,1.26v0l.09,1.23,0,.16c0,.34,0,.68.08,1,0,.06,0,.11,0,.17,0,.36.07.72.1,1.06,0,.05,0,.09,0,.13,0,.3.06.58.09.86l0,.21c0,.31.07.61.11.9v.08c0,.26.07.51.11.76a1.55,1.55,0,0,0,0,.21c0,.25.08.5.12.73,0,0,0,.05,0,.08,0,.2.07.4.11.58s0,.13,0,.19.08.35.12.51l0,0a.48.48,0,0,0,0,.08v0a.94.94,0,0,0,0,.09l0,.06,0,.11,0,.1c0,.05-.05.11-.08.17l-.12.22-.07.12-.12.2-.08.14-.08.12,0,.08-.25.36-.09.14h0c-.21.29-.45.6-.74.93h0l-.1.1-.2.22-.42.44-.53.51-.06.06-.3.26-.27.23-.38.31-.45.35c-.2.14-.39.29-.6.43l-.31.21-.47.31h0l-.11.07-.07.05a12.2,12.2,0,0,0-1.59,1.19l-.19.18c-.17.15-.33.31-.49.47a3.07,3.07,0,0,0-.25.26l-.38.42-.24.29-.34.41-.23.3-.32.43-.21.29-.33.47-.16.24-.46.68-.41.61v0h0l0,0-.33.48-.18.27-.41.55-.1.14h0a7.79,7.79,0,0,1-3.05,2.58,14.37,14.37,0,0,0-2.56-5h0c-.12.3-.25.61-.39.92l-.09.19c-.11.25-.23.5-.35.75l-.16.32c-.11.22-.23.43-.35.65s-.13.25-.2.38l-.37.62-.24.4c-.13.21-.26.42-.4.63l-.28.41q-.21.31-.45.63c-.09.14-.19.27-.3.41s-.33.44-.51.66l-.31.39-.62.72-.3.34q-.42.47-.87.93l-.12.12c-.36.36-.72.71-1.11,1.06l-.25.22c-.3.28-.61.55-.94.82l-.42.35-.87.68-.52.38-.88.63-.58.39-.93.6-.64.39c-.32.2-.66.39-1,.58l-.67.38-1.11.57-.48.26v0l-.44.23v2.87h0a.86.86,0,0,0,0,.15v0a1.27,1.27,0,0,1,0,.14s0,.05,0,.08l.06.17a.74.74,0,0,0,0,.14l.08.21c0,.06.05.13.08.19s.07.16.11.25l.12.24.15.28.17.31c.06.09.11.19.18.29s.23.37.37.58h0l0,0c.06.09.12.21.19.32l.06.1h0l.12.23c0,.11.11.21.16.33,1.13,2.45,2.13,7.2-2.2,8.5l.1,0-.1,0-.29.08-.24.05-.3.06-.28,0-.3,0c-.11,0-.21,0-.32,0l-.23,0-.42,0H88l-.42,0-.27,0h0c-6.49-.61-6.1-6.09-6.3-8.61,0-.71-.08-1.39-.1-2,0-1.05,0-2-.06-2.73,0-.24,0-.46,0-.66v0a5.53,5.53,0,0,0-.1-.55h0v0a3,3,0,0,0-.09.5.22.22,0,0,0,0,.08c0,.19,0,.4,0,.62,0,.06,0,.13,0,.2s0,.2,0,.31c0,.66,0,1.43,0,2.27,0,.64,0,1.32-.11,2,0,.05,0,.11,0,.17s0,.08,0,.13c0,.41,0,.88-.08,1.38v0c0,.3,0,.62-.09.94v.08c0,.16-.05.31-.07.47h0c0,.16-.06.32-.1.47a.44.44,0,0,0,0,.1c0,.13-.07.27-.11.4a.29.29,0,0,1,0,.09l-.15.46,0,.07c-.05.14-.1.26-.16.39l0,.11a6.2,6.2,0,0,1-.5.86l-.08.1c-.08.12-.18.23-.27.34l-.06.07c-.11.12-.24.24-.37.36l-.09.08a3,3,0,0,1-.35.27l-.07.06h0l0,0h0l0,0-.27.17-.14.08-.44.22a.25.25,0,0,0-.09,0l-.41.16-.21.06-.32.1-.26.07-.32.07-.31.05-.32,0-.34,0-.33,0-.38,0h-.86l-.23,0-.46,0-.28,0-.38,0-.25,0-.36-.07-.22,0L70,291l-.11,0h0c-.17-.06-.32-.13-.46-.19l-.08,0-.33-.18-.12-.08-.25-.17-.11-.09L68.3,290l-.09-.09-.21-.22-.06-.07c-1.6-2-.82-5.21,0-7.08a7,7,0,0,1,.56-1A10.33,10.33,0,0,0,69.87,279h0a.89.89,0,0,0,.06-.2v0a2.46,2.46,0,0,0,0-.26h0v-2.88h0c-.52-.25-1-.5-1.51-.76l-.35-.19c-.48-.26-1-.52-1.41-.78l-.11-.07L65.37,273l-.3-.2c-.42-.27-.83-.54-1.22-.82l-.16-.11-1-.76-.25-.19c-.36-.28-.71-.56-1-.85l-.17-.15c-.3-.25-.59-.5-.87-.76l-.2-.18-.9-.87c-.06,0-.11-.11-.17-.17-.25-.25-.49-.51-.73-.76l-.15-.17c-.26-.29-.52-.58-.76-.87l-.15-.19c-.22-.25-.42-.51-.62-.77a.76.76,0,0,1-.11-.14c-.22-.28-.43-.57-.63-.86l-.14-.19c-.18-.26-.36-.52-.52-.78l-.07-.1c-.18-.28-.35-.57-.52-.85l-.11-.19c-.15-.26-.3-.52-.44-.78l0-.06c-.15-.27-.28-.54-.41-.81l-.1-.19c-.12-.26-.25-.53-.36-.78v0c-.11-.25-.21-.5-.31-.75a1.34,1.34,0,0,1-.07-.18c-.1-.24-.19-.49-.28-.72a.24.24,0,0,1,0-.08c-.08-.21-.15-.42-.22-.63a1.09,1.09,0,0,1,0-.17c-.07-.2-.13-.41-.19-.6-.35,1.32-.68,2.57-1,3.75l0,.09c-.14.57-.27,1.12-.4,1.66a.36.36,0,0,1,0,.11c-.12.53-.23,1.05-.33,1.55a.3.3,0,0,0,0,.1l-.09-.05a5.28,5.28,0,0,1-.53-.27l-.2-.12-.41-.28a1.09,1.09,0,0,0-.17-.13l-.46-.4h0c-2.15-2-3.43-5.38-6.26-7.88h0l-.46-.38a12.25,12.25,0,0,0-1.2-.86,16.3,16.3,0,0,1-5.57-5.36h0l-.1-.18,0-.09a7.4,7.4,0,0,1-.33-.68h0a1.26,1.26,0,0,0-.06-.15c0-.14.08-.29.12-.46s0-.05,0-.07l.09-.43,0-.12c0-.15,0-.29.08-.44l0-.15c0-.15,0-.3.07-.45l0-.18c0-.16,0-.32.07-.48l0-.18c0-.18,0-.36.07-.54l0-.17c0-.19.05-.4.08-.6v-.15c0-.22,0-.45.08-.68v-.11c.23-2.22.43-4.89.59-7.87v0l.06-1.1v0c.21-4.21.36-9,.48-13.87v-.06l0-1.26v-.09l-7.5-.1,0,1.31c-.13,5.42-.29,9.88-.48,13.65l-.05,1.14c-.17,3-.35,5.5-.56,7.46,0,0-.07.66-.07.66l-.09.73-.08.58-.08.55-.07.43s-.09.49-.09.49l-.1.41a8.38,8.38,0,0,0,.24,5.17l.14.35a15.12,15.12,0,0,0,.68,1.41c0,.07.07.14.11.2s.13.24.21.37.12.21.19.31a23.83,23.83,0,0,0,8,7.69c.1.07.25.17.47.35l.15.12a16,16,0,0,1,2.34,3,26.39,26.39,0,0,0,3.57,4.54,1.29,1.29,0,0,0,.17.16c.3.29.61.56.93.82l.37.28c.29.21.58.41.86.59l.46.28c.34.19.68.37,1,.54l.37.17a7.15,7.15,0,0,0,4.3.44l.06.08c.31.36.62.72,1,1.09l.18.19c.29.32.59.64,1,1l.16.17c.36.35.72.7,1.12,1.07l.24.22c.34.31.69.62,1.08.95l.19.16c.4.34.83.68,1.28,1l.3.23c.4.31.81.61,1.24.92l.17.12,1.37.93c-1.9,4.41-2.54,10.59,1.15,15.18.08.1.16.2.22.26.2.23.4.46.66.72l.23.22a8,8,0,0,0,.62.54l.34.27c.21.16.44.31.67.46a3.27,3.27,0,0,0,.33.21c.26.16.54.31.82.45l.24.12q.48.22,1,.42l.18.06a2.29,2.29,0,0,0,.37.12c.23.08.47.15.68.2l.45.12c.23.05.46.1.67.13l.49.09.71.09.45,0,.68,0,.44,0h1.24l.63,0,.53,0,.59-.07L76,299l.55-.1.57-.13.08,0,.4-.1.6-.18.44-.14c.27-.09.52-.19.77-.3l.25-.11a10.13,10.13,0,0,0,1-.49l.06,0a15.06,15.06,0,0,0,5.61,1.72l.15,0,.61,0,.62,0h1.27l.55,0,.58,0,.46,0h.08l.44,0,.49-.08.11,0,.51-.1.44-.1,0,0,.46-.12.37-.11.29-.1a11.67,11.67,0,0,0,7-6.53c2.13-5,.49-10.1-.5-12.42l.34-.23c.24-.15.47-.31.69-.46l1.06-.76.62-.45,1-.83.51-.41c.4-.34.79-.67,1.18-1l.28-.26c.48-.43.93-.87,1.34-1.28l.22-.23c.36-.37.71-.74,1-1.1l.32-.36,0-.07c.21-.23.42-.47.62-.71a7.35,7.35,0,0,0,1.47.16,7.26,7.26,0,0,0,2.82-.58A15.3,15.3,0,0,0,120,266l.17-.24q.27-.35.51-.69l.6-.86.91-1.36.41-.6.36-.49.16-.21.2-.24.14-.17.17-.18.14-.15.25-.23.1-.1a4.19,4.19,0,0,1,.54-.4l.23-.14.55-.37.12-.08.37-.24c.28-.19.55-.39.83-.6l.64-.49.08-.07.42-.34c.13-.1.24-.2.36-.31l.11-.09.37-.33.15-.14.69-.67c.21-.21.41-.42.61-.64l.42-.45c.1-.12.21-.24.3-.37.27-.31.52-.63.76-.95a1.43,1.43,0,0,0,.14-.2l.22-.31.29-.43a2.44,2.44,0,0,0,.16-.23l.25-.41c.08-.12.15-.25.25-.42l.12-.21.21-.4.18-.36.21-.45.17-.4.14-.35a8.43,8.43,0,0,0,.24-4.92s-.07-.28-.09-.34-.07-.34-.09-.45-.08-.42-.11-.61l-.12-.83c0-.25-.07-.51-.1-.77,0,0-.08-.69-.1-1l-.12-1.13s-.06-.73-.09-1l-.1-1.32-.09-1.23-7.47.54,7.46-.67c-.05-.86-.1-1.76-.15-2.68l-7.49.45,7.48-.56c-.05-.94-.1-1.92-.14-2.92l-7.49.37h0Q125.47,232.08,125.54,233.53Z"/>
      <polygon points="100.45 96.79 100.45 96.79 100.45 96.79 100.45 96.79"/>
      <path d="M135.49,138.91v-.4s0-.47,0-.64l-.06-.77,0-.36c0-.25,0-.5-.06-.73,0-.51-.1-1-.16-1.5l0-.15c0-.2,0-.4-.08-.6-.09-.71-.21-1.4-.33-2.08l0-.22c-.13-.65-.26-1.29-.41-1.94,0-.19-.09-.38-.14-.57l0-.15c-.1-.43-.21-.86-.32-1.27-.06-.23-.13-.46-.19-.69l0-.12c-.11-.38-.21-.76-.33-1.15s-.16-.53-.25-.8-.23-.73-.35-1.08l-.4-1.18-.46-1.31-.55-1.51-.05-.14-1.09-2.91-1-2.72-.57-1.61c-.12-.32-.22-.65-.35-1l-.19-.55c-.22-.7-.46-1.37-.7-2l-.14-.37c-.25-.66-.5-1.3-.76-1.89l-.08-.18c-.25-.58-.51-1.14-.78-1.71l-.16-.34c-.29-.58-.59-1.15-.89-1.69l-.17-.29c-.28-.49-.57-1-.89-1.47l-.09-.15-.29-.44c-.14-.2-.27-.4-.42-.59l-.15-.22c-.15-.21-.29-.41-.45-.61s-.4-.53-.61-.78l-.16-.2-.48-.58c-.21-.24-.43-.47-.65-.7l-.15-.16-.56-.59-.62-.57-.18-.17-.65-.58-.51-.4a21.52,21.52,0,0,0-5.74-3.29h0a9.11,9.11,0,0,0,.42-2.52.34.34,0,0,0,0-.1,9.12,9.12,0,0,0-.46-3,7.71,7.71,0,0,0,.87-.93,11.16,11.16,0,0,0,2.29-6.42,17.55,17.55,0,0,0,3.63-9.6,15.56,15.56,0,0,0-.92-7.85,41.8,41.8,0,0,0,1.24-10.21,75.69,75.69,0,0,0-.54-9.19,10,10,0,0,0,3.16-6.69c.18-3.13-1.1-6.08-3.8-8.77a13.93,13.93,0,0,0-5.19-3.23,34.11,34.11,0,0,0-6.51-8.26,12.29,12.29,0,0,0-1-1.13,12.14,12.14,0,0,0-4.78-3.11A38.21,38.21,0,0,0,80.87,5C56.77,5,41.79,21,41.79,46.84A46.12,46.12,0,0,0,42,51.51c0,.36.08.72.13,1,.14,1.13.34,2.28.58,3.42a24.71,24.71,0,0,0,.71,2.88A14.72,14.72,0,0,0,41.92,68a17.22,17.22,0,0,0,4,10,11.4,11.4,0,0,0,1.71,5.13c0,.3-.07.61-.11.95a1.1,1.1,0,0,1,0,.18s0,.39,0,.41a9.22,9.22,0,0,0-.6,3.32c0,.07,0,.14,0,.22a9.2,9.2,0,0,0,.42,2.48,3.72,3.72,0,0,0-.39.21l-.48.26-.25.16a17.85,17.85,0,0,0-1.57,1.09l-.34.25L43.9,93l-.59.52c-.16.13-.31.27-.47.42l-.27.26c-.18.17-.35.35-.52.53l0,0-.36.37-.24.27-.36.4-.26.31c-.23.27-.46.55-.7.86l-.24.3c-.05.06-.47,3-.52,3.09a73.25,73.25,0,0,0-6.34-3.8,14.21,14.21,0,0,0-6.8-6c-1.56-.48-3.06-1.87-4.94-2l-1,.44c-1.63.46,1.24-.43,1-.44h-.21c-2.08,0-4.23,1.32-6.28,3.46a10.36,10.36,0,0,0-3.46,2.57,15,15,0,0,0-1.9,2.19c-1.34,1.46-2.15,3.06-2,7.39.18,6.08,3.52,7.56,5.34,8.8a13.39,13.39,0,0,0,4,1.33,18.17,18.17,0,0,0,2.84,2.23c1.75,1.07,1.72.68,4.74,1.08.16,0,1.66,0,1.85,0,.16,2.4,1.13,2.29,1.22,5.75a9,9,0,0,0,1.2,3.07c-.15.54-1.41,1.88-1.54,2.44l-.16.65c-.21.94-.38,1.8-.51,2.6,0,.11,0,.23,0,.35-.12.73-.22,1.48-.31,2.31,0,.17-.05.33-.06.49s0,.41-.05.62v.11c0,.31,0,.62-.07.92,0,.46-.05.94-.06,1.41v.18c0,.23,0,.46,0,.7,0,.53,0,1.08,0,1.64v.15c0,.19,0,.38,0,.57,0,.86.07,1.66.13,2.46l0,.18c.07.92.16,1.85.25,2.78l.11,1c.07.7.15,1.4.24,2.12l.1.87c.12.93.24,1.87.37,2.8l.89,6.49.36,2.68c.09.75.19,1.5.28,2.25l.09.8c.08.7.16,1.41.23,2.11l.1,1c.05.54.11,1.09.15,1.64,0,.32.09,1.08.09,1.08,0,.53.07,1.06.11,1.59l.06,1.08c0,.56.05,1.13.07,1.69,0,0,0,.77,0,1q0,1.14,0,2.31v.35c0,.82,0,1.65-.05,2.48l0,1.17,0,1.6,0,1.76-.09,4.64c0,2.31-.07,4.8-.11,7.42l-.07,5.4-.12,7L28.89,217l7.5.19h0l0-1.31h0c0-.9,0-1.8,0-2.71l0-1.56v-.34c0-.41,0-.81,0-1.21v-.36l0-1.44v-.06c0-.49,0-1,0-1.46v-.65c0-.25,0-.5,0-.75s0-.56,0-.83v-.26c.07-4.58.12-9,.19-12.8v-.13c0-.84,0-1.65,0-2.43v-.24c0-.54,0-1.06,0-1.56v-.23q0-.72,0-1.38c0-.12,0-.23,0-.35,0-.36,0-.72,0-1.06,0-.17,0-.33,0-.49s0-.57,0-.84c0-.1,0-.2,0-.3,0-.91.05-1.82.05-2.73v-.39c0-.85,0-1.69,0-2.53,0-.35,0-.7,0-1,0-.62,0-1.23-.08-1.83l-.06-1.17-.12-1.7-.09-1.16c0-.58-.11-1.16-.16-1.74,0-.35-.07-.7-.11-1-.07-.75-.16-1.48-.24-2.22,0-.28-.07-.55-.1-.83-.09-.78-.19-1.55-.29-2.32l-.15-1.17L35.38,159c-.07-.46-.13-.91-.19-1.37-.09-.61-.17-1.21-.25-1.82l0-.1-.33-2.42c0-.25-.07-.51-.1-.76-.13-.91-.24-1.82-.36-2.73,0-.28-.06-.56-.1-.84-.08-.68-.16-1.35-.23-2l-.09-.92c-.09-.87-.18-1.74-.24-2.61,0,0,0-.09,0-.14-.05-.72-.09-1.41-.11-2.09,0-.21,0-.41,0-.61,0-.46,0-.92,0-1.37,0-.24,0-.48,0-.72s0-.78,0-1.16l.06-.76c0-.2,0-.41,0-.6s0-.21,0-.31c.08-.7.17-1.39.28-2.06,0-.07,0-.14,0-.2.13-.74.28-1.47.44-2.18,0-.19.08-.37.13-.56.13-.56.28-1.12.43-1.67,0-.17.09-.33.13-.5.2-.69.41-1.39.64-2.08v0c-.12-1.28-.25-2.47-.37-3.57h-.06l-.47-.09h0l-.38-.09-.08,0-.29-.1a2.94,2.94,0,0,1-1.24-1.26h0c-.93-1.59-1.33-4.23-.07-6a3.73,3.73,0,0,1,1.09-1l0,0a.41.41,0,0,0-.05-.09,3.63,3.63,0,0,0-1.86-1.46c-1-.33-2.14-.71-3.05-1-2-.55-6.85-.87-7.68-1.38A11.4,11.4,0,0,1,18.93,108s-.36,0-.85-.06a6.84,6.84,0,0,1-2.07.32c-.5,0-.54.18-1,0-2.23-1.12-3.31-4.1-2.4-6.89.32-1,0,0,2.15-1,1.31-1.71.63-2.13,2.86-2.23,0,0,.37.65.37,0,0-3.86,5.05-1.71,7.24-1.17,1.54.48,3.84,1.56,3.91,2.1a3.27,3.27,0,0,1,0,.63.9.9,0,0,1,0,.16,2.21,2.21,0,0,1-.08.37l-.06.17-.12.27-.08.15a.56.56,0,0,1-.05.08.56.56,0,0,0,.05-.08l-.19.29h0a5.11,5.11,0,0,1,.59-.06h.18l.33,0,.24,0,.49.11.13,0a20.65,20.65,0,0,1,5.75,3.29,17.13,17.13,0,0,1,3.61,3.09l.14.19c.09.12.19.24.27.37a2.9,2.9,0,0,1,.19.29c.06.1.13.2.19.31l.18.32c.06.1.11.2.16.3l.18.36.13.27a1.42,1.42,0,0,1,.08.18.61.61,0,0,0,0-.12c.14-.35.29-.69.44-1a2,2,0,0,1,.11-.26l.27-.6a2.56,2.56,0,0,1,.11-.24h0c.17-.35.33-.69.5-1h0l.1-.21c.16-.31.32-.62.49-.92l.22-.4c.2-.36.41-.71.62-1l0,0h0c.29-.46.58-.92.88-1.35h0l.06-.08,0,0,.07-.11.36-.48.12-.15c.2-.26.41-.51.62-.75l.14-.18h0l.42-.47h0l.23-.24.42-.41.12-.13.33-.28c.1-.1.21-.19.32-.28l.09-.09.2-.16h0a11.75,11.75,0,0,1,1.38-1h0l.16-.09h0l-.19.09a1.24,1.24,0,0,0,.2-.1c.25-.14.51-.28.77-.4l.41-.18c.22-.09.43-.18.65-.25h0l.24-.08,0,0,.09,0h0l.69-.17c.14,0,.27-.07.41-.09a7.5,7.5,0,0,1,1.06-.14h.07a1.28,1.28,0,0,1,.32.1h0l.24.1,0,0,.14.06.09,0h0l.14.06.19.08.06,0,.19.07h0a1.4,1.4,0,0,0,.3.09h0l.06,0h0l1.94-.2A56.46,56.46,0,0,0,59.9,89a.65.65,0,0,1-.31.08.79.79,0,0,1-.7-.39.81.81,0,0,1-.71.49.83.83,0,0,1-.81-.65.84.84,0,0,1-.71.5.82.82,0,0,1-.79-.58.81.81,0,0,1-.63.36.85.85,0,0,1-.85-.84h0a.86.86,0,0,1,.52-.82c0-.18,0-.37,0-.55,0-.5,0-1,.07-1.41v-.08s0-.07,0-.1c0-.39.08-.77.14-1.12,0,0,0-.09,0-.13.06-.37.13-.71.21-1,0-.08,0-.16.07-.25s.12-.46.18-.67l.09-.29c.08-.24.17-.47.25-.68s.08-.18.12-.27a4.48,4.48,0,0,1,.2-.44c0-.1.09-.19.13-.27s.12-.22.18-.32l.12-.22.26-.4.12-.17.15-.2.06-.08,0,0,.22-.25a.34.34,0,0,1,.06-.06h0a1.87,1.87,0,0,1-1.16-.51,1.69,1.69,0,0,1-1.22,1.53c-2.51.76-1.73-4.23-1.73-4.23s.65,4.21,1.42,1.61l.24-.81a13.41,13.41,0,0,1-2.39-1.73c-2.34-2-3-3.63-3.39-6.87s.56-5.12,2.46-5.44a2.89,2.89,0,0,1,.5,0c-.31-.83-.66-1.81-1-2.93-.24-.69-.47-1.39-.67-2.1,0-.05,0-.09,0-.14a15.72,15.72,0,0,1-.49-2c-.2-1-.37-1.92-.5-2.9,0-.27-.07-.54-.1-.82a37,37,0,0,1-.21-3.82c0-18.37,9-33.95,31.59-33.95,6.84,0,12.25,1.57,16.5,4.24.6,0,1.33.39,2.34,1.39a6.74,6.74,0,0,1,.72.88,27.71,27.71,0,0,1,7,9.71,8,8,0,0,1,5,2c3.47,3.45,0,4-2.29,6.51l0,.05a62.45,62.45,0,0,1,1.16,12.35,31.79,31.79,0,0,1-2.16,11.77c1.52.61,2.22,2.43,1.89,5.35-.37,3.29-1.06,5-3.43,7a17.5,17.5,0,0,1-2.08,1.56l.31,1c.77,2.61,1.42-1.61,1.42-1.61s.78,5-1.73,4.24c-1.35-.41-1.38-1.89-1.12-3.17a2.69,2.69,0,0,1-.69.06,15.16,15.16,0,0,1-1.32,2.88.86.86,0,0,0-.07.1l0,0,.13.22.17.32c0,.08.09.17.14.27s.13.28.19.43l.12.28c.09.22.17.44.25.68l.09.29c.07.22.13.44.19.67l.06.26c.08.33.15.67.21,1,0,0,0,.09,0,.13,0,.35.1.73.13,1.12,0,0,0,.06,0,.1s0,0,0,.08c0,.45.06.92.07,1.41,0,.18,0,.37,0,.55a.86.86,0,0,1,.52.82h0a.84.84,0,0,1-.85.84.78.78,0,0,1-.62-.36.82.82,0,0,1-.8.58.84.84,0,0,1-.71-.5.82.82,0,0,1-.81.65.81.81,0,0,1-.7-.49.82.82,0,0,1-.71.39.83.83,0,0,1-.78-.79.81.81,0,0,1-.66.33.85.85,0,0,1-.8-.89.87.87,0,0,1,.68-.84H98l.19,0a17.68,17.68,0,0,1,.15-3.32c-.22.18-.42.35-.65.52a53.61,53.61,0,0,1-8.27,4.72l-1,.43v4.88a81.28,81.28,0,0,0,12,2.67l.63.08,1.18.15.7.08c.53.05,1.07.11,1.61.15l0,0,.61,0c.5,0,1,.11,1.47.19l.3.07c.37.07.74.16,1.1.26l.21,0h0c.25.08.51.15.75.24h0l0,0a13.78,13.78,0,0,1,3.83,2.19l.34.26c.18.15.35.31.51.46s.33.29.49.45l.45.47.51.55c.14.16.28.34.42.51s.33.4.49.62.27.37.4.55.25.34.38.53v0l0,.05,0,0v0a.83.83,0,0,1,.08.12l.15.23c.22.35.44.72.66,1.1l.13.22c.24.43.47.88.7,1.34l.14.29q.33.66.63,1.38l.06.12c.22.51.43,1,.64,1.6,0,.1.07.2.11.31.21.56.41,1.13.6,1.73l.21.6c.12.38.24.75.37,1.12l.3.85c.1.3.21.59.31.88l.33.89c.09.27.19.53.29.8l.36,1,.07.17,1.07,2.85.06.16.51,1.42c.07.18.13.35.19.53l.24.68c0,.13.09.26.13.38s.16.47.23.7.22.65.32,1,.15.47.22.71.2.66.29,1,.13.47.2.7.19.73.27,1.09.11.42.16.63c.12.53.23,1.07.34,1.62l0,.17c.11.57.2,1.14.28,1.73,0,.2,0,.41.07.61,0,.41.1.82.14,1.23,0,.25,0,.49,0,.74s0,.53.06.8,0,.34,0,.51,0,.23,0,.34c0,.61,0,1.22,0,1.84,0,.1,0,.21,0,.31,0,.66,0,1.33-.1,2v0c-.07,1-.17,2-.27,3,0,.11,0,.22,0,.33s0,.45-.07.67-.07.65-.11,1l-.15,1.23-.12,1L127,151.7l-.15,1.12c0,.26-.07.51-.11.77-.37,2.72-.77,5.49-1.13,8.32a2.51,2.51,0,0,1,0,.27c-.08.68-.17,1.37-.25,2,0,.2,0,.39-.07.58-.07.59-.13,1.19-.2,1.79,0,.24,0,.48-.07.72-.06.56-.11,1.12-.17,1.69,0,.26,0,.53-.07.8,0,.54-.09,1.1-.13,1.65l-.06.83c0,.56-.07,1.11-.1,1.67,0,.28,0,.56,0,.84l-.06,1.73c0,.26,0,.53,0,.79,0,.63,0,1.27,0,1.91v.65c0,.86,0,1.72,0,2.59.26,7.2.32,21.11.61,34.3v.13c0,.36,0,.73,0,1.09v.22c0,.33,0,.67,0,1,0,.13,0,.27,0,.41s0,.54,0,.81c0,.51,0,1,0,1.51,0,.12,0,.24,0,.37,0,.46,0,.93,0,1.39v.18l.06,1.63v.09h0l7.49-.37-.06-1.61-.09-3.41-.09-3.53-7.49.21,7.49-.31c-.14-6-.23-12.3-.3-17.83-.1-6.76-.18-12.59-.32-16.57,0-.79,0-1.57-.05-2.36v-.59c0-.58,0-1.16,0-1.74l0-.73c0-.53,0-1.06.06-1.6l0-.77c0-.51.05-1,.09-1.54l.05-.78c0-.52.08-1,.13-1.55l.06-.75c.05-.53.1-1.07.16-1.61l.07-.68c.06-.57.13-1.14.19-1.71l.07-.55c.07-.67.16-1.33.24-2l0-.26q.38-2.85.77-5.64l.36-2.62.41-3.13.12-.91.17-1.41.19-1.71,0-.37c.11-1.05.21-2.1.29-3.17v-.07c0-.75.09-1.54.12-2.41v-.39C135.52,140.41,135.51,139.66,135.49,138.91ZM53.6,96.68l-.25.07h0Zm-2.46.82a2.36,2.36,0,0,1,.28-.12l.08,0h0l-.07,0-.28.12Z"/>
      <path d="M88.51,291.38h0Z"/>
      <path d="M66.78,95.6c1.72-.39,3.14-.76,4.12-1h0c.95-.27,1.49-.45,1.49-.45V89.44h0v-.19c-1.67-.71-3.28-1.49-4.67-2.21A63.85,63.85,0,0,1,66.78,95.6Z"/>
      <polygon points="80.67 276.7 80.67 276.7 80.67 276.7 80.67 276.7"/>
      <path d="M60.27,81.85v0l0,0S60.26,81.83,60.27,81.85Z"/>
      <path d="M23.33,101.93a8.12,8.12,0,0,1-1.51,3.36,7.92,7.92,0,0,0,4.43-7.54,3.42,3.42,0,0,0,0-.45,26.47,26.47,0,0,0-3.7-.85A8.19,8.19,0,0,1,23.33,101.93Z"/>
      <path d="M21.82,105.29a7.08,7.08,0,0,1-2.64.66,4.52,4.52,0,0,1-.52,0,7.23,7.23,0,0,1-4.51-1.59,4.09,4.09,0,0,0,1.51,2.9,6.08,6.08,0,0,0,2.42.62A7.53,7.53,0,0,0,21.82,105.29Z"/>
    </g>
    <g>
      <path class="cls-3" d="M52.2,87.6a.36.36,0,0,1,.07-.1l-.14,0S52.18,87.55,52.2,87.6Z"/>
      <path class="cls-3" d="M55,87.79s0,0,0,0h0Z"/>
      <path class="cls-3" d="M53.63,87.89a1,1,0,0,1,.08-.14h-.13A.88.88,0,0,1,53.63,87.89Z"/>
      <path class="cls-3" d="M37.64,110.05l-.06-.13.06.14Z"/>
      <path class="cls-3" d="M25.4,100.89h0Z"/>
      <path class="cls-3" d="M37.64,110.05a1,1,0,0,1,0-.1h0l0,.11Z"/>
      <path class="cls-3" d="M95.1,87.52l-.13,0a.59.59,0,0,1,0,.14Z"/>
      <path class="cls-3" d="M97.82,87.74h-.13a1,1,0,0,1,.08.14A.88.88,0,0,1,97.82,87.74Z"/>
      <path class="cls-3" d="M99.27,87.47l-.14,0,.08.1A.52.52,0,0,1,99.27,87.47Z"/>
      <path class="cls-3" d="M96.37,87.77h0s0,0,0,0Z"/>
      <path class="cls-3" d="M121.47,227.27c0,1.07.08,2.13.12,3.16v.1l7.48-.47c0-1-.09-2-.12-3.1l-.06-1.64-7.49.28c0,.52,0,1,0,1.55Z"/>
      <path class="cls-3" d="M48.67,97h0l-.24.08h0Z"/>
      <path class="cls-3" d="M121.75,233.53v.11c0,1,.11,1.88.17,2.77v.13c0,.43,0,.85.08,1.26v0l.09,1.23v.16l.09,1c0,.06,0,.11,0,.17,0,.36.07.72.1,1.06,0,.05,0,.09,0,.13,0,.3.06.58.09.86l0,.21c0,.31.07.61.11.9v.08c0,.26.07.51.11.76l0,.21c0,.25.09.5.13.73,0,0,0,.05,0,.08,0,.2.08.4.12.58a1.62,1.62,0,0,1,0,.19c0,.18.09.35.13.51v0l0,.08v0a.94.94,0,0,0,0,.09l0,.06,0,.11,0,.1c0,.05,0,.11-.09.17l-.11.22-.07.12-.12.2-.08.14-.08.12,0,.08-.25.36-.1.14h0c-.21.29-.45.6-.74.93h0l-.09.1L121,250c-.13.15-.27.29-.42.44s-.34.34-.52.51l-.06.06-.3.26-.27.23-.38.31-.46.35c-.19.14-.38.29-.59.43l-.31.21-.47.31h0l-.11.07-.07.05a12.2,12.2,0,0,0-1.59,1.19l-.19.18c-.17.15-.34.31-.49.47a3.07,3.07,0,0,0-.25.26l-.38.42-.24.29-.34.41-.23.3-.32.43-.21.29-.33.47-.16.24-.46.68-.41.61v0h0l0,0-.33.48-.18.27-.41.55a1.71,1.71,0,0,1-.11.14h0a7.76,7.76,0,0,1-3,2.58,14.37,14.37,0,0,0-2.56-5h0c-.12.3-.25.61-.39.92l-.09.19c-.11.25-.23.5-.35.75s-.11.21-.17.32l-.34.65c-.06.13-.14.25-.21.38s-.23.41-.36.62l-.24.4-.4.63-.28.41q-.21.31-.45.63l-.3.41c-.16.22-.34.44-.51.66l-.32.39c-.19.24-.4.48-.61.72l-.3.34q-.42.47-.87.93l-.12.12c-.36.36-.73.71-1.11,1.06l-.25.22c-.3.28-.61.55-.94.82l-.43.35-.86.68-.52.38-.88.63-.58.39-.93.6-.64.39c-.32.2-.66.39-1,.58l-.67.38-1.11.57-.48.26v0c-.15.08-.29.16-.45.23v2.87h0l0,.15v0s0,.09,0,.14a.31.31,0,0,0,0,.08,1.77,1.77,0,0,0,.06.17.74.74,0,0,0,0,.14,1.8,1.8,0,0,0,.08.21c0,.06,0,.13.08.19s.07.16.11.25l.12.24.15.28.17.31a3.31,3.31,0,0,0,.18.29c.11.19.23.37.36.58h0l0,0c.06.09.12.21.19.32l.06.1h0l.12.23c0,.11.11.21.16.33,1.13,2.45,2.13,7.2-2.2,8.5l.1,0-.1,0-.29.08-.24.05-.3.06-.28,0-.3,0c-.11,0-.21,0-.32,0l-.23,0-.42,0h-.81l-.41,0-.27,0h0c-6.49-.61-6.1-6.09-6.3-8.61,0-.71-.08-1.39-.1-2,0-1.05,0-2-.06-2.73,0-.24,0-.46-.05-.66v0a3.71,3.71,0,0,0-.09-.55h0v0a3,3,0,0,0-.09.5.22.22,0,0,0,0,.08c0,.19,0,.4,0,.62,0,.06,0,.13,0,.2s0,.2,0,.31c0,.66,0,1.43,0,2.27,0,.64,0,1.32-.11,2,0,.05,0,.11,0,.17s0,.08,0,.13c0,.41,0,.88-.08,1.38v0c0,.3,0,.62-.09.94v.08c0,.16,0,.31-.07.47h0c0,.16-.06.32-.09.47a.44.44,0,0,0,0,.1c0,.13-.07.27-.11.4s0,.06,0,.09l-.15.46,0,.07c0,.14-.11.26-.16.39a.54.54,0,0,0,0,.11,6.2,6.2,0,0,1-.5.86l-.08.1-.27.34-.06.07c-.11.12-.24.24-.37.36l-.09.08a3,3,0,0,1-.35.27l-.07.06h0l0,0h0l0,0-.28.17-.13.08a4.71,4.71,0,0,1-.45.22l-.09,0-.4.16-.21.06-.32.1-.27.07-.31.07-.31.05-.32,0-.34,0-.33,0-.39,0h-.86l-.23,0-.45,0-.28,0-.38,0-.25,0-.36-.07-.22,0-.38-.12-.11,0h0l-.45-.19-.08,0-.33-.18-.12-.08a2.2,2.2,0,0,1-.25-.17l-.11-.09-.22-.19-.09-.09a2.13,2.13,0,0,1-.21-.22l-.06-.07c-1.61-2-.82-5.21,0-7.08a7,7,0,0,1,.56-1A9.84,9.84,0,0,0,66.07,279h0c0-.07,0-.14.06-.2v0a2.46,2.46,0,0,0,0-.26h0v-2.88h0c-.52-.25-1-.5-1.51-.76l-.36-.19-1.4-.78-.11-.07L61.58,273c-.1-.07-.21-.13-.3-.2-.42-.27-.83-.54-1.23-.82l-.15-.11c-.35-.25-.7-.5-1-.76l-.25-.19c-.36-.28-.71-.56-1-.85l-.18-.15c-.29-.25-.58-.5-.86-.76l-.2-.18-.9-.87c-.06,0-.11-.11-.17-.17-.25-.25-.49-.51-.73-.76l-.15-.17c-.26-.29-.52-.58-.76-.87l-.16-.19c-.21-.25-.41-.51-.61-.77a.76.76,0,0,1-.11-.14c-.22-.28-.43-.57-.63-.86L52,264c-.18-.26-.36-.52-.52-.78l-.07-.1c-.18-.28-.35-.57-.52-.85l-.11-.19c-.15-.26-.3-.52-.44-.78l0-.06c-.15-.27-.28-.54-.41-.81a1.74,1.74,0,0,1-.1-.19c-.13-.26-.25-.53-.36-.78v0c-.11-.25-.21-.5-.31-.75l-.08-.18-.27-.72,0-.08-.21-.63-.06-.17-.18-.6c-.35,1.32-.68,2.57-1,3.75l0,.09c-.14.57-.27,1.12-.4,1.66a.52.52,0,0,0,0,.11c-.12.53-.23,1.05-.33,1.55a.3.3,0,0,0,0,.1l-.09-.05a5.28,5.28,0,0,1-.53-.27l-.2-.12-.41-.28-.17-.13-.46-.4h0c-2.15-2-3.43-5.38-6.26-7.88h0l-.46-.38a12.25,12.25,0,0,0-1.2-.86,16.2,16.2,0,0,1-5.57-5.36h0l-.1-.18a.41.41,0,0,1-.05-.09,5.42,5.42,0,0,1-.33-.68h0a1.26,1.26,0,0,0-.06-.15c0-.14.08-.29.12-.46s0-.05,0-.07l.09-.43,0-.12c0-.15,0-.29.08-.44l0-.15c0-.15.05-.3.07-.45l0-.18c0-.16.05-.32.07-.48l0-.18c0-.18.05-.36.07-.54l0-.17c0-.19.05-.4.08-.6v-.15c0-.22.05-.45.08-.68v-.11c.23-2.22.42-4.89.59-7.87v0l.06-1.1v0c.21-4.21.36-9,.48-13.87v-.06l0-1.26v-.09l-7.5-.1,0,1.31c-.13,5.42-.29,9.88-.48,13.65l-.06,1.14c-.16,3-.35,5.5-.55,7.46,0,0-.07.66-.07.66l-.09.73-.08.58-.08.55-.07.43s-.09.49-.09.49l-.1.41a8.38,8.38,0,0,0,.24,5.17l.14.35a15.12,15.12,0,0,0,.68,1.41c0,.07.07.14.11.2s.13.24.21.37.12.21.19.31a23.88,23.88,0,0,0,8,7.69,4.89,4.89,0,0,1,.47.35l.16.12a16,16,0,0,1,2.34,3,26.39,26.39,0,0,0,3.57,4.54,1.29,1.29,0,0,0,.17.16c.3.29.61.56.93.82l.37.28c.29.21.58.41.86.59l.46.28c.33.19.68.37,1,.54l.37.17a7.19,7.19,0,0,0,2.84.59,7.07,7.07,0,0,0,1.45-.15l.07.08c.31.36.62.72,1,1.09l.18.19c.29.32.59.64,1,1l.16.17c.36.35.72.7,1.12,1.07l.24.22c.34.31.69.62,1.08.95l.18.16c.41.34.84.68,1.28,1l.3.23,1.25.92.17.12,1.37.93c-1.9,4.41-2.55,10.59,1.15,15.18.08.1.16.2.22.26.19.23.4.46.66.72l.23.22a8,8,0,0,0,.62.54l.34.27c.21.16.43.31.67.46a2.43,2.43,0,0,0,.33.21c.26.16.54.31.82.45l.24.12q.48.22,1,.42l.18.06a2.29,2.29,0,0,0,.37.12c.23.08.47.15.68.2l.45.12.66.13.5.09.71.09.45,0,.68,0,.44,0h1.24l.63,0,.53,0,.59-.07.53-.08.55-.1.57-.13.08,0,.4-.1.6-.18.44-.14c.27-.09.52-.19.77-.3l.25-.11a10.13,10.13,0,0,0,1-.49l.06,0a15.06,15.06,0,0,0,5.61,1.72l.15,0,.6,0,.63,0h1.27l.55,0,.57,0,.47,0h.07l.45,0,.49-.08.11,0,.51-.1.44-.1,0,0,.45-.12.38-.11.29-.1a11.67,11.67,0,0,0,7-6.53c2.13-5,.49-10.1-.5-12.42l.34-.23.69-.46,1.06-.76.62-.45,1-.83.51-.41c.4-.34.79-.67,1.18-1l.28-.26c.48-.43.93-.87,1.34-1.28l.22-.23c.36-.37.71-.74,1-1.1l.32-.36,0-.07c.21-.23.42-.47.62-.71a7,7,0,0,0,4.29-.42,15.18,15.18,0,0,0,6.05-4.93l.18-.24q.27-.35.51-.69l.6-.86.91-1.36.41-.6.36-.49.16-.21.2-.24.14-.17.17-.18.14-.15a2,2,0,0,1,.25-.23l.1-.1a3.59,3.59,0,0,1,.54-.4l.23-.14.55-.37.12-.08.36-.24c.29-.19.56-.39.84-.6l.64-.49.08-.07.42-.34c.13-.1.24-.2.36-.31l.1-.09.38-.33.15-.14.69-.67c.21-.21.41-.42.61-.64l.42-.45.3-.37c.27-.31.52-.63.76-.95,0-.06.09-.13.14-.2l.22-.31.29-.43.16-.23.25-.41c.08-.12.15-.25.25-.42l.11-.21.22-.4.18-.36.21-.45.17-.4.13-.35a8.27,8.27,0,0,0,.24-4.92s-.07-.28-.08-.34-.07-.34-.09-.45-.08-.42-.11-.61l-.12-.83c0-.25-.07-.51-.1-.77l-.11-1s-.07-.75-.11-1.13c0,0-.06-.73-.09-1l-.1-1.32L129.4,236l-7.47.54,7.46-.67c0-.86-.11-1.76-.16-2.68l-7.48.45,7.48-.56c0-.94-.1-1.92-.14-2.92l-7.49.37h0C121.65,231.56,121.69,232.56,121.75,233.53Z"/>
      <polygon class="cls-3" points="96.66 96.79 96.66 96.79 96.66 96.79 96.66 96.79"/>
      <path class="cls-4" d="M131.7,138.91v-.4s0-.47,0-.64l-.06-.77,0-.36c0-.25,0-.5-.06-.73-.05-.51-.1-1-.16-1.5l0-.15c0-.2,0-.4-.08-.6-.09-.71-.21-1.4-.33-2.08l0-.22c-.13-.65-.26-1.29-.41-1.94-.05-.19-.09-.38-.14-.57l0-.15c-.1-.43-.21-.86-.32-1.27-.06-.23-.13-.46-.19-.69l0-.12-.33-1.15c-.08-.26-.17-.53-.25-.8s-.23-.73-.35-1.08l-.4-1.18L128,121.2l-.55-1.51-.06-.14c-.24-.67-1.08-2.91-1.08-2.91l-1-2.72-.57-1.61c-.11-.32-.21-.65-.34-1l-.19-.55c-.22-.7-.46-1.37-.7-2l-.14-.37c-.25-.66-.51-1.3-.76-1.89l-.08-.18c-.25-.58-.51-1.14-.78-1.71l-.16-.34c-.29-.58-.59-1.15-.89-1.69l-.17-.29c-.28-.49-.57-1-.89-1.47l-.09-.15-.29-.44-.42-.59-.15-.22-.45-.61c-.2-.27-.41-.53-.61-.78l-.16-.2-.48-.58-.65-.7-.15-.16-.56-.59-.62-.57-.18-.17-.65-.58-.51-.4a21.67,21.67,0,0,0-5.74-3.29h0a9.11,9.11,0,0,0,.42-2.52s0-.07,0-.1a9.12,9.12,0,0,0-.46-3,7.71,7.71,0,0,0,.87-.93A11.23,11.23,0,0,0,111,77.71a17.55,17.55,0,0,0,3.63-9.6,15.56,15.56,0,0,0-.92-7.85A41.8,41.8,0,0,0,115,50.05a73.69,73.69,0,0,0-.55-9.19,9.91,9.91,0,0,0,3.17-6.69c.18-3.13-1.1-6.08-3.8-8.77a13.93,13.93,0,0,0-5.19-3.23,34.11,34.11,0,0,0-6.51-8.26,12.29,12.29,0,0,0-1-1.13,12.14,12.14,0,0,0-4.78-3.11A38.21,38.21,0,0,0,77.08,5C53,5,38,21,38,46.84a43.39,43.39,0,0,0,.25,4.67c0,.36.08.72.12,1,.15,1.13.35,2.28.59,3.42a24.71,24.71,0,0,0,.71,2.88A14.72,14.72,0,0,0,38.13,68a17.22,17.22,0,0,0,4,10,11.4,11.4,0,0,0,1.71,5.13c0,.3-.07.61-.11.95a1.1,1.1,0,0,1,0,.18s0,.39,0,.41A9,9,0,0,0,43.1,88a1.7,1.7,0,0,0,0,.22,9.19,9.19,0,0,0,.41,2.48l-.38.21-.48.26-.25.16a17.85,17.85,0,0,0-1.57,1.09l-.35.25-.38.31-.59.52c-.16.13-.31.27-.48.42l-.26.26c-.18.17-.35.35-.52.53l0,0-.36.37-.24.27-.36.4c-.09.09-.17.2-.26.31-.23.27-.46.55-.7.86l-.24.3c-.05.06-.47,3-.52,3.09a73.25,73.25,0,0,0-6.34-3.8,14.21,14.21,0,0,0-6.8-6c-1.56-.48-3.06-1.87-4.94-2l-1,.44c-1.63.46,1.24-.43,1-.44h-.21c-2.08,0-4.23,1.32-6.28,3.46a10.36,10.36,0,0,0-3.46,2.57,15,15,0,0,0-1.9,2.19c-1.34,1.46-2.15,3.06-2,7.39.18,6.08,3.52,7.56,5.34,8.8a13.39,13.39,0,0,0,4,1.33,18.12,18.12,0,0,0,2.83,2.23c1.76,1.07,1.73.68,4.75,1.08.15,0,1.66,0,1.85,0,.16,2.4,1.12,2.29,1.22,5.75a9,9,0,0,0,1.2,3.07c-.15.54-1.41,1.88-1.54,2.44l-.16.65c-.21.94-.38,1.8-.51,2.6l-.06.35c-.11.73-.21,1.48-.3,2.31a4.36,4.36,0,0,0-.06.49c0,.2,0,.41-.05.62v.11c0,.31-.05.62-.07.92,0,.46-.05.94-.06,1.41v.18c0,.23,0,.46,0,.7,0,.53,0,1.08,0,1.64v.15c0,.19,0,.38,0,.57,0,.86.07,1.66.13,2.46l0,.18c.07.92.16,1.85.25,2.78l.11,1c.07.7.15,1.4.24,2.12l.1.87.36,2.8.9,6.49.36,2.68c.09.75.18,1.5.28,2.25l.09.8c.08.7.16,1.41.23,2.11l.1,1,.15,1.64c0,.32.09,1.08.09,1.08,0,.53.07,1.06.11,1.59l.06,1.08c0,.56.05,1.13.07,1.69,0,0,0,.77,0,1,0,.76,0,1.53,0,2.31v.35c0,.82,0,1.65-.05,2.48l0,1.17,0,1.6,0,1.76-.09,4.64c0,2.31-.07,4.8-.11,7.42l-.07,5.4-.12,7L25.1,217l7.5.19h0c0-.44,0-.87,0-1.31h0l.06-2.71,0-1.56v-.34c0-.41,0-.81,0-1.21v-.36l0-1.44v-.06c0-.49,0-1,0-1.46v-.65c0-.25,0-.5,0-.75s0-.56,0-.83v-.26c.07-4.58.12-9,.19-12.8v-.13c0-.84,0-1.65,0-2.43v-.24q0-.81,0-1.56v-.23q0-.72,0-1.38c0-.12,0-.23,0-.35,0-.36,0-.72,0-1.06,0-.17,0-.33,0-.49s0-.57,0-.84c0-.1,0-.2,0-.3,0-.91.05-1.82.05-2.73v-.39c0-.85,0-1.69,0-2.53,0-.35,0-.7,0-1,0-.62,0-1.23-.08-1.83l-.06-1.17-.12-1.7-.09-1.16c-.05-.58-.11-1.16-.17-1.74,0-.35-.06-.7-.1-1-.07-.75-.16-1.48-.24-2.22,0-.28-.07-.55-.1-.83-.09-.78-.19-1.55-.29-2.32l-.15-1.17c-.07-.52-.14-1.05-.22-1.57l-.18-1.37c-.09-.61-.17-1.21-.25-1.82l0-.1-.33-2.42c0-.25-.07-.51-.1-.76-.13-.91-.24-1.82-.36-2.73,0-.28-.07-.56-.1-.84-.08-.68-.16-1.35-.23-2,0-.31-.07-.61-.1-.92-.08-.87-.17-1.74-.23-2.61,0,0,0-.09,0-.14-.05-.72-.09-1.41-.11-2.09,0-.21,0-.41,0-.61,0-.46,0-.92,0-1.37l0-.72c0-.39,0-.78.05-1.16s0-.51.06-.76,0-.41,0-.6,0-.21,0-.31c.08-.7.17-1.39.28-2.06,0-.07,0-.14,0-.2.13-.74.28-1.47.44-2.18,0-.19.08-.37.13-.56.13-.56.27-1.12.43-1.67,0-.17.09-.33.13-.5.2-.69.41-1.39.64-2.08v0c-.12-1.28-.25-2.47-.37-3.57H31.4l-.47-.09h0l-.38-.09-.09,0-.28-.1a2.89,2.89,0,0,1-1.24-1.26h0c-.93-1.59-1.33-4.23-.07-6a3.69,3.69,0,0,1,1.08-1,.05.05,0,0,0,0,0,.41.41,0,0,1-.05-.09A3.63,3.63,0,0,0,28,112.7c-1-.33-2.14-.71-3.05-1-2-.55-6.85-.87-7.68-1.38A11.4,11.4,0,0,1,15.14,108s-.36,0-.85-.06a6.84,6.84,0,0,1-2.07.32c-.5,0-.54.18-1,0-2.23-1.12-3.31-4.1-2.4-6.89.32-1,0,0,2.15-1,1.31-1.71.63-2.13,2.86-2.23,0,0,.36.65.36,0,0-3.86,5.06-1.71,7.25-1.17,1.54.48,3.84,1.56,3.91,2.1a3.27,3.27,0,0,1,0,.63l0,.16a2.21,2.21,0,0,1-.08.37l-.06.17-.12.27-.08.15a.56.56,0,0,1,0,.08.56.56,0,0,0,0-.08l-.19.29h0a5.11,5.11,0,0,1,.59-.06h.18l.33,0,.24,0,.49.11.13,0a20.65,20.65,0,0,1,5.75,3.29,17.13,17.13,0,0,1,3.61,3.09l.14.19.27.37a2.9,2.9,0,0,1,.19.29c.06.1.13.2.19.31l.18.32.16.3.18.36.13.27.08.18,0-.12c.14-.35.29-.69.44-1a2,2,0,0,1,.11-.26c.09-.2.17-.4.27-.6a2.56,2.56,0,0,1,.11-.24h0c.16-.35.33-.69.5-1h0l.1-.21c.16-.31.32-.62.49-.92l.22-.4c.2-.36.41-.71.62-1l0,0h0c.29-.46.58-.92.88-1.35h0l.06-.08,0,0,.07-.11.36-.48.12-.15c.2-.26.41-.51.62-.75l.14-.18h0l.42-.47h0l.23-.24.42-.41.12-.13.33-.28c.1-.1.21-.19.32-.28l.09-.09L45,99h0a13.69,13.69,0,0,1,1.38-1h0a1.29,1.29,0,0,1,.16-.09h0l-.19.09a1.24,1.24,0,0,0,.2-.1c.25-.14.51-.28.77-.4l.41-.18c.21-.09.43-.18.64-.25h0l.24-.08,0,0,.1,0h0l.69-.17c.14,0,.27-.07.41-.09A7.5,7.5,0,0,1,51,96.53h.07a1.28,1.28,0,0,1,.32.1h0l.24.1,0,0,.14.06.09,0h0l.14.06.19.08.06,0,.19.07h0a1.26,1.26,0,0,0,.3.09h0l.07,0h0l1.94-.2A57.91,57.91,0,0,0,56.11,89a.65.65,0,0,1-.31.08.79.79,0,0,1-.7-.39.8.8,0,0,1-1.52-.16.84.84,0,0,1-.71.5.81.81,0,0,1-.79-.58.81.81,0,0,1-.63.36.85.85,0,0,1-.85-.84h0a.86.86,0,0,1,.52-.82c0-.18,0-.37,0-.55,0-.5,0-1,.06-1.41a.25.25,0,0,0,0-.08s0-.07,0-.1c0-.39.08-.77.13-1.12a.59.59,0,0,0,0-.13c.06-.37.13-.71.21-1l.06-.25c.06-.23.13-.46.19-.67l.09-.29c.08-.24.16-.47.25-.68s.08-.18.12-.27.13-.3.19-.44l.14-.27c.06-.12.12-.22.18-.32l.12-.22.25-.4.13-.17.15-.2.06-.08,0,0,.22-.25a.34.34,0,0,1,.06-.06h0a1.92,1.92,0,0,1-1.16-.51,1.69,1.69,0,0,1-1.21,1.53c-2.51.76-1.73-4.23-1.73-4.23s.65,4.21,1.42,1.61l.24-.81A13.41,13.41,0,0,1,49,73.9c-2.34-2-3-3.63-3.39-6.87s.56-5.12,2.46-5.44a2.89,2.89,0,0,1,.5,0c-.31-.83-.66-1.81-1-2.93-.24-.69-.47-1.39-.67-2.1,0-.05,0-.09,0-.14a14.19,14.19,0,0,1-.49-2c-.2-1-.37-1.92-.5-2.9,0-.27-.07-.54-.1-.82a37,37,0,0,1-.21-3.82c0-18.37,9-33.95,31.59-33.95,6.84,0,12.25,1.57,16.5,4.24.6,0,1.33.39,2.34,1.39a6.74,6.74,0,0,1,.72.88,27.56,27.56,0,0,1,7,9.71c1.79.16-2.9,2.58-1.55,3.92,3.47,3.44,6.57,2.06,4.27,4.62l0,.05a62.45,62.45,0,0,1,1.16,12.35,31.79,31.79,0,0,1-2.16,11.77c1.52.61,2.22,2.43,1.89,5.35-.38,3.29-1.06,5-3.43,7a17.5,17.5,0,0,1-2.08,1.56l.31,1c.77,2.61,1.42-1.61,1.42-1.61s.78,5-1.73,4.24c-1.35-.41-1.38-1.89-1.12-3.17a2.69,2.69,0,0,1-.69.06,15.81,15.81,0,0,1-1.32,2.88.86.86,0,0,0-.07.1l0,0,.13.22.17.32.14.27c.06.14.13.28.19.43l.12.28c.09.22.17.44.25.68l.09.29c.07.22.13.44.19.67l.06.26c.08.33.15.67.21,1a.59.59,0,0,0,0,.13c.05.35.09.73.13,1.12,0,0,0,.06,0,.1a.25.25,0,0,0,0,.08c0,.45.06.92.07,1.41,0,.18,0,.37,0,.55a.86.86,0,0,1,.52.82h0a.85.85,0,0,1-.85.84.81.81,0,0,1-.63-.36.81.81,0,0,1-.79.58.84.84,0,0,1-.71-.5.8.8,0,0,1-1.52.16.79.79,0,0,1-.7.39.83.83,0,0,1-.78-.79.81.81,0,0,1-.66.33.85.85,0,0,1-.8-.89.87.87,0,0,1,.68-.84h.17l.19,0a16.84,16.84,0,0,1,.15-3.32c-.22.18-.42.35-.65.52a54.1,54.1,0,0,1-8.27,4.72l-1,.43v4.88a81.33,81.33,0,0,0,12,2.67l.64.08,1.18.15.7.08c.53.05,1.06.11,1.6.15l0,0,.61,0c.5,0,1,.11,1.47.19l.3.07c.37.07.74.16,1.1.26l.21,0h0c.25.08.51.15.75.24h0l.05,0a13.78,13.78,0,0,1,3.83,2.19l.34.26c.18.15.34.31.51.46s.33.29.49.45l.45.47.51.55c.14.16.28.34.41.51s.34.4.5.62.27.37.4.55.25.34.37.53l0,0,0,.05,0,0v0l.08.12c0,.08.1.15.14.23.23.35.45.72.67,1.1l.13.22c.24.43.47.88.7,1.34l.14.29c.21.44.43.9.63,1.38l.06.12c.22.51.43,1,.63,1.6l.12.31c.21.56.41,1.13.6,1.73.07.2.14.4.2.6.13.38.25.75.38,1.12l.3.85c.1.3.21.59.31.88l.33.89c.09.27.19.53.29.8l.36,1,.07.17c.36,1,.72,1.91,1.06,2.85l.06.16c.18.48.35,1,.52,1.42.06.18.13.35.19.53l.24.68c0,.13.09.26.13.38s.16.47.23.7.22.65.32,1,.15.47.22.71.2.66.29,1,.13.47.2.7l.27,1.09c0,.21.11.42.16.63.12.53.23,1.07.34,1.62l0,.17c.1.57.2,1.14.28,1.73,0,.2,0,.41.07.61,0,.41.1.82.14,1.23,0,.25,0,.49.05.74s0,.53.06.8,0,.34,0,.51,0,.23,0,.34c0,.61,0,1.22,0,1.84,0,.1,0,.21,0,.31,0,.66,0,1.33-.1,2v0c-.07,1-.17,2-.28,3,0,.11,0,.22,0,.33s-.05.45-.07.67-.07.65-.11,1l-.15,1.23-.12,1c0,.38-.1.77-.16,1.16s-.09.75-.14,1.12-.07.51-.11.77c-.37,2.72-.77,5.49-1.13,8.32a2.51,2.51,0,0,1,0,.27c-.08.68-.17,1.37-.25,2,0,.2-.05.39-.07.58-.07.59-.13,1.19-.2,1.79,0,.24,0,.48-.07.72-.06.56-.12,1.12-.17,1.69,0,.26,0,.53-.07.8-.05.54-.09,1.1-.13,1.65l-.06.83c0,.56-.07,1.11-.1,1.67,0,.28,0,.56,0,.84,0,.57,0,1.15-.06,1.73,0,.26,0,.53,0,.79,0,.63,0,1.27,0,1.91v.65c0,.86,0,1.72,0,2.59.25,7.2.32,21.11.61,34.3v.13c0,.36,0,.73,0,1.09v.22c0,.33,0,.67,0,1,0,.13,0,.27,0,.41s0,.54,0,.81c0,.51,0,1,0,1.51,0,.12,0,.24,0,.37,0,.46,0,.93,0,1.39v.18c0,.55,0,1.09.05,1.63v.09h0l7.48-.37,0-1.61-.1-3.41-.08-3.53-7.49.21,7.49-.31c-.14-6-.23-12.3-.3-17.83-.1-6.76-.18-12.59-.32-16.57,0-.79,0-1.57,0-2.36v-.59c0-.58,0-1.16,0-1.74l0-.73c0-.53,0-1.06.06-1.6l0-.77c0-.51.05-1,.09-1.54l.05-.78.12-1.55.07-.75c0-.53.1-1.07.16-1.61l.07-.68c.06-.57.12-1.14.19-1.71l.06-.55c.08-.67.17-1.33.25-2l0-.26q.38-2.85.77-5.64l.36-2.62.41-3.13.12-.91.17-1.41.19-1.71,0-.37c.11-1.05.21-2.1.3-3.17v-.07c.06-.75.1-1.54.13-2.41v-.39C131.72,140.41,131.72,139.66,131.7,138.91ZM49.81,96.68l-.25.07h0Zm-2.46.82a2.36,2.36,0,0,1,.28-.12l.08,0h0l-.07,0-.28.12Z"/>
      <path class="cls-3" d="M84.72,291.38h0Z"/>
      <path class="cls-3" d="M63,95.6c1.72-.39,3.14-.76,4.12-1h0c1-.27,1.49-.45,1.49-.45V89.44h0l.4-2.83a4.69,4.69,0,0,0-5.06.43A63.85,63.85,0,0,1,63,95.6Z"/>
      <polygon class="cls-3" points="76.88 276.7 76.88 276.7 76.88 276.7 76.88 276.7"/>
      <path class="cls-3" d="M56.48,81.85v0l0,0A.14.14,0,0,0,56.48,81.85Z"/>
      <path class="cls-3" d="M19.54,101.93A8,8,0,0,1,18,105.29a7.92,7.92,0,0,0,4.44-7.54c0-.15,0-.3,0-.45a26.47,26.47,0,0,0-3.7-.85A8.25,8.25,0,0,1,19.54,101.93Z"/>
      <path class="cls-3" d="M18,105.29a7,7,0,0,1-2.63.66,4.7,4.7,0,0,1-.53,0,7.23,7.23,0,0,1-4.5-1.59,4.12,4.12,0,0,0,1.5,2.9,6.17,6.17,0,0,0,2.43.62A7.47,7.47,0,0,0,18,105.29Z"/>
    </g>
    <g>
      <path class="cls-5" d="M76.71,275.6a23.73,23.73,0,0,1,.22,4c0,.63,0,1.31.11,2,.22,2.7-.27,8.81,8.2,8.67,7.38-.13,6.19-6,4.82-8.84a6,6,0,0,0-.59-1A7.3,7.3,0,0,1,88,277.37l-1.7-1.47s-9.84-1.34-9.55-.3"/>
      <path class="cls-6" d="M76.93,279.59c0,.63,0,1.31.11,2,.22,2.7-.27,8.81,8.2,8.67,7.38-.13,6.19-6,4.82-8.84-.92,1-2.66,2-5.94,2a8,8,0,0,1-7.19-3.88"/>
      <path class="cls-5" d="M76.69,275.6a23.73,23.73,0,0,0-.22,4c0,.63,0,1.31-.11,2-.22,2.7.27,8.81-8.2,8.67-7.38-.13-6.19-6-4.82-8.84a6.77,6.77,0,0,1,.59-1,7.13,7.13,0,0,0,1.51-3.05l1.7-1.47s9.84-1.34,9.55-.3"/>
      <path class="cls-7" d="M87.84,289.91a9.44,9.44,0,0,1-2.6.37H85q-.74,0-1.38-.06c.44,0,.9.06,1.4.06h.27a9.5,9.5,0,0,0,2.6-.37m1.66-9.46c.09.13.18.27.27.43-.09-.16-.18-.3-.27-.43M88,277.36h0A6.49,6.49,0,0,0,89.18,280,6.49,6.49,0,0,1,88,277.37h0m-11.24-1.75a6.51,6.51,0,0,1,.16,1.28,6.4,6.4,0,0,0-.16-1.27h0"/>
      <path class="cls-8" d="M76.71,275.62a6.4,6.4,0,0,1,.16,1.27v.05c2.07.71,12.94,4.59,7.25,6.53h0c3.27,0,5-1,5.93-2h0l-.29-.56c-.09-.16-.18-.3-.27-.43l0,0-.29-.42A6.49,6.49,0,0,1,88,277.37h0l-.49.07a27.22,27.22,0,0,1-3.66.25c-2.41,0-5.27-.36-6.85-1.84h-.06l-.08-.09h-.1"/>
      <path class="cls-6" d="M76.47,279.59c0,.63,0,1.31-.11,2-.22,2.7.27,8.81-8.2,8.67-7.38-.13-6.19-6-4.82-8.84.92,1,2.66,2,5.94,2a8,8,0,0,0,7.19-3.88"/>
      <path class="cls-7" d="M65.34,289.84h0m8.13-.76a9.1,9.1,0,0,1-5,1.2h-.29a9.42,9.42,0,0,1-2.8-.43,9.1,9.1,0,0,0,2.8.43h.28a9.12,9.12,0,0,0,5-1.2m0,0,0,0,0,0m0,0h0m-8.08-11.68h0a2.08,2.08,0,0,1-.12.49h0a2.08,2.08,0,0,0,.12-.49h0m11.25-1.77h0a6,6,0,0,0-.15,1.23,5.33,5.33,0,0,1,.16-1.23h0"/>
      <path class="cls-8" d="M76.69,275.6c-1.51,1.69-4.56,2.09-7.1,2.09a27.46,27.46,0,0,1-4.15-.32h0a2.08,2.08,0,0,1-.12.49c2.34.6,6,1.49,7.7,1.72,2.39.33.1,3.76-4.62,3.76a10.36,10.36,0,0,1-1.53-.12l.17.07a13.36,13.36,0,0,0,2.24.18,8,8,0,0,0,7.19-3.88h0c0-1.06,0-2,.07-2.75a6,6,0,0,1,.15-1.23"/>
      <path class="cls-9" d="M76.47,279.59a8,8,0,0,1-7.19,3.88,13.36,13.36,0,0,1-2.24-.18,10.48,10.48,0,0,0,3.65.58,17.29,17.29,0,0,0,3.56-.38s-1.29,5.29-6.53,5.29a11.36,11.36,0,0,1-4.37-1l-.68-.31a4.11,4.11,0,0,0,2.67,2.37h0a9.42,9.42,0,0,0,2.8.43h.29a9.1,9.1,0,0,0,5-1.2h0l0,0h0c2.88-1.9,2.68-5.52,2.84-7.44.06-.71.09-1.39.11-2"/>
      <path class="cls-10" d="M107.64,199.79v51s0,14.73-19.69,23.71v2.88s-8.38,1.44-11.26-1.77c-2.87,3.21-11.25,1.77-11.25,1.77v-2.88c-19.7-9-19.7-23.71-19.7-23.71l.67-51h61.23"/>
      <path class="cls-11" d="M88,277.37l-.49.07.49-.07m0,0h0m-11-1.52h0m0,0h0m0,0h0m-.09-.09.08.09-.08-.09m0,0h0m0,0h0m0,0h0m0,0h0m0,0h0"/>
      <path class="cls-12" d="M88,274.94a27.41,27.41,0,0,1-2.19,2.67c.72-.05,1.31-.12,1.7-.17l.49-.07h0v-2.43m4.58-33.22c-2.78,18-11.68,25.72-15.84,29.53v4.35l0,0h.1l.08.09H77a3.6,3.6,0,0,0,.47.39c3-1.75,14.83-9.11,18.19-20.53-1.79,8.31-4.28,14.28-7.2,18.57,10.78-5,15.52-11.81,17.6-16.79-3.13-4.21-8.45-9.58-13.48-15.77m-8.35-12.19c.31,13.87-7.49,24.34-7.49,24.34V261s8-3.87,13.23-22.61c-1-1.26-1.87-2.55-2.74-3.87h0c-1.08-1.62-2.09-3.28-3-5m-7.49,16.55s-11.83-15.5-5.77-33.6C71.37,225.6,76.69,241,76.69,241v5.12m0-7.7V231a51.12,51.12,0,0,1-2.47-25,36.59,36.59,0,0,0,2.47,7.09V220a37.41,37.41,0,0,0,2.47-7.27,53.54,53.54,0,0,1-2.47,25.65m2.75-35.75H52.12c.08,6.39.1,12.53,0,17.78a121.65,121.65,0,0,1-3.34,26.38c-.74,3.14-1.52,5.93-2.22,8.45,1.55,5.06,6,13.39,18.88,19.25-10.87-6.21-13.07-14.16-13.14-14.41a50.74,50.74,0,0,0,19.49,12.58c-5.84-3.71-10.94-10.9-14-24.79,3.88,12.84,18.91,20.41,18.91,20.41V263c-5.41-4.84-18.91-16.2-16.37-47.76,4.14,32,16.37,37.77,16.37,37.77v-4.41A131.89,131.89,0,0,0,82,224.93a30.4,30.4,0,0,1-2.27-10.66c-.07-3.63-.19-7.57-.33-11.64"/>
      <polyline class="cls-13" points="108.05 128.62 108.05 202.63 48.69 202.63 47.27 194.3 39.2 146.9 60.99 119.12 108.05 128.62"/>
      <polyline class="cls-14" points="108.05 192.74 108.05 202.63 48.69 202.63 47.27 194.3 49.89 192.74 108.05 192.74"/>
      <path class="cls-15" d="M59.23,165.52c.08,1.93.15,3.77.22,5.49a103.35,103.35,0,0,0,11.2,8c4.13,2.43,8.7,8.2,4.43,13.78h4c-.32-7.16-.69-14.33-1-20.71-.46,0-.92,0-1.39,0h0a26.51,26.51,0,0,1-15.31-4.93q-1.14-.81-2.07-1.62m-5.57-.62c-.31.27-.62.53-.94.77a9.82,9.82,0,0,1-1.23.78c0,1,0,2,0,3.07l2.32-.84a3.58,3.58,0,0,1,1-.21c-.38-1.13-.77-2.32-1.15-3.57"/>
      <path class="cls-16" d="M79.05,192.74h-4c-2.84,3.71-9.58,7.33-23,9.82v.07H79.44c0-1.13-.08-2.26-.12-3.41-.09-2.14-.18-4.31-.27-6.48"/>
      <path class="cls-17" d="M76.69,269.6v6c-2.87,3.21-11.25,1.77-11.25,1.77v-2.88S74.22,272.81,76.69,269.6Z"/>
      <path class="cls-18" d="M55.15,161.13a27,27,0,0,0,21.66,10.94h-.4a27,27,0,0,0,21.66-10.94L75.38,145.2l-20,15.59-.25.34"/>
      <polygon class="cls-19" points="76.42 172.07 76.61 172.06 76.81 172.07 76.42 172.07"/>
      <path class="cls-19" d="M75.38,145.2l-20,15.59-.25.35a26.55,26.55,0,0,0,42.92,0L75.38,145.2M59.53,160.78c1.23,1.79,8.7,11.94,16.3,5.52-3.36,7.43-9.08,5.58-16.3-5.52m.7-.5s8,7,15.93,1.43c0,0-3.91,12.56-15.93-1.43"/>
      <path class="cls-13" d="M119.64,114.63l-29.79,5.85c-6.81,0-13.62,0-20.43-.07l-10.22-.17c-3.13,0-6.26-5.84-9.38-5.95-4.87-.19-9.89-.65-14.74-.07l-1.31-1,.21-.61q.95-2.7,2-5c3.58-7.33,8.62-10.94,14.6-11.36l.84-.06c1.49-.12,2.94-.29,4.33-.49A90.58,90.58,0,0,0,68,93V79.14h16.9V93a90.66,90.66,0,0,0,12.64,2.66c1.4.19,2.85.35,4.34.46l.4,0c7.13.5,12.92,5.55,16.49,16,.29.83.58,1.65.88,2.45"/>
      <path class="cls-20" d="M97.53,95.69h0c1.15.16,2.33.29,3.53.4-1.2-.11-2.39-.25-3.53-.4h0"/>
      <path class="cls-15" d="M97.53,95.69c-5,2.92-12.5,4.77-20.83,4.77-1.2,0-2.38,0-3.54-.11a24.68,24.68,0,0,1,4.43,8.42c.92,3.35-1,4.51-4.12,4.51a19.38,19.38,0,0,1-2.9-.25c2.39,2.65,4.17,4.25,5.74,4.75l.29.08h.21l.16,0c2.67-.75,5.9-4.73,11.79-11.68A39.38,39.38,0,0,1,99.57,97.3a25.11,25.11,0,0,1,2.25-1.12l0,0-.8-.07c-1.2-.11-2.38-.24-3.53-.4h0"/>
      <path class="cls-21" d="M97.53,95.69c-5,2.92-12.5,4.77-20.83,4.77s-15.88-1.87-20.92-4.83A90.58,90.58,0,0,0,68,93V79.14h16.9V93a90.66,90.66,0,0,0,12.64,2.66"/>
      <path class="cls-22" d="M84.9,87.31h0V93a90.66,90.66,0,0,0,12.64,2.66h0A90.3,90.3,0,0,1,84.9,93V87.31"/>
      <path class="cls-22" d="M68,88.34V93h0s-.57.17-1.57.44h0C67.42,93.2,68,93,68,93V88.34h0"/>
      <path class="cls-23" d="M84.89,87.32a26.34,26.34,0,0,1-9.58,3.54A28.26,28.26,0,0,1,68,88.34V93h0s-.57.17-1.58.44a45.1,45.1,0,0,1,6.75,6.88c1.16.07,2.34.11,3.54.11,8.33,0,15.79-1.85,20.83-4.77A90.66,90.66,0,0,1,84.89,93V87.32"/>
      <path class="cls-24" d="M126.42,142.2c-1,12-4.28,24.76-3.74,39.18s.27,55.73,2.76,64.28c0,0-1.23,3.42-6.44,6.47s-6.15,8.68-10.29,10.37c-1.74-8.47-28.54-27-28.94-48.23s-2.32-52.82-3-61.94c0,0-24.38-7-25.09,2.08s.87,44.75.47,66S46.44,254,44.7,262.5c-4.14-1.69-5.08-7.31-10.29-10.37S28,245.66,28,245.66c2.49-8.55,2.22-49.87,2.76-64.28S28,154.19,27,142.2s3.23-18.56,6.79-29l.21-.61q.95-2.7,2-5c3.36-7.21,7.74-11.72,13.49-12.12a4.59,4.59,0,0,1,.94.33,4.38,4.38,0,0,0,.93.33l.08,0,.13.06a38,38,0,0,1,13.07,10c6,7.09,9.25,11.09,11.95,11.72h.21c2.7-.63,5.94-4.63,12-11.72a38,38,0,0,1,13.06-10l.05,0h0l.65,0c7.13.5,12.92,5.55,16.48,16s8.38,18,7.4,30"/>
      <path class="cls-25" d="M38.47,103.06c-.54.82-1,1.69-1.53,2.62A50.22,50.22,0,0,0,41.45,113a42.62,42.62,0,0,1-3-9.9"/>
      <path class="cls-20" d="M39.94,101l-.37.48.37-.48"/>
      <path class="cls-25" d="M40.87,99.92c-.31.35-.62.7-.93,1.08l-.37.48-.17.23A55.43,55.43,0,0,0,48.75,116l0-.28c-2.28-3.07-6.53-9.43-7.91-15.82"/>
      <path class="cls-20" d="M42.9,98c-.26.21-.52.42-.78.65L42.9,98"/>
      <path class="cls-25" d="M43.11,97.87,42.9,98l-.78.65q-.4.38-.81.78a32.43,32.43,0,0,0,8.61,10.08c0-.21.09-.42.14-.63a57,57,0,0,1-7-11"/>
      <path class="cls-20" d="M113,258.44h0m4.24-5.08a25.09,25.09,0,0,0-4.23,5.07,24.82,24.82,0,0,1,4.23-5.07h0"/>
      <path class="cls-24" d="M101.53,203.44s-5.32,31.69,10.38,56.48c.38-.46.74-.95,1.1-1.47h0a25.09,25.09,0,0,1,4.23-5.07c-11.22-12.76-15.73-49.92-15.73-49.92"/>
      <path class="cls-20" d="M119.12,252.07l-.12.06c-.31.19-.61.38-.89.58.28-.2.58-.39.89-.58l.12-.06m0,0h0m4.3-3.43a17.63,17.63,0,0,1-1.37,1.33,17.63,17.63,0,0,0,1.37-1.33h0"/>
      <path class="cls-24" d="M113.53,156.69c-8.38,54.17-4.84,77.66,4.56,96h0c.28-.2.58-.39.89-.58l.12-.06,0,0h0a20.84,20.84,0,0,0,2.93-2.1,17.63,17.63,0,0,0,1.37-1.33c-18.88-28-9.45-86-9.92-91.93"/>
      <path class="cls-20" d="M50.55,95.8a4.84,4.84,0,0,0,.81.28h0l.07,0-.07,0h0a4.55,4.55,0,0,1-.81-.28m-1-.38h0a11.35,11.35,0,0,0-4.93,1.5h0a11.48,11.48,0,0,1,4.93-1.5h0a4.85,4.85,0,0,1,.82.28,4.85,4.85,0,0,0-.82-.28"/>
      <path class="cls-26" d="M99.57,97.3a39.38,39.38,0,0,0-10.81,8.84c-5.89,7-9.12,10.93-11.79,11.68,2.67-.75,5.9-4.73,11.79-11.68A39.38,39.38,0,0,1,99.57,97.3"/>
      <path class="cls-15" d="M60.44,101.91h0a38.25,38.25,0,0,1,4.21,4.23c2.35,2.78,4.28,5.08,5.92,6.89h0c-1.64-1.81-3.57-4.11-5.92-6.89a38.25,38.25,0,0,0-4.21-4.23"/>
      <path class="cls-26" d="M70.57,113c2.39,2.65,4.17,4.25,5.74,4.75-1.57-.5-3.35-2.1-5.74-4.75h0"/>
      <path class="cls-20" d="M36.3,106.94l-.29.6c-.21.46-.42.93-.62,1.41h0c.2-.48.41-1,.62-1.41l0,0,.27-.56m78.62-3.2a33.52,33.52,0,0,1,4.1,8.44c1.47,4.29,3.15,8.1,4.54,11.94-1.39-3.84-3.07-7.65-4.53-11.94a33.86,33.86,0,0,0-4.11-8.44m0,0,0,0,0,0m0-.07v0"/>
      <path class="cls-22" d="M36,107.5l0,0c-.21.46-.42.93-.62,1.41h0c.2-.48.41-1,.62-1.41l0,0"/>
      <path class="cls-20" d="M126.5,137.19a38.54,38.54,0,0,1-.08,5q-.14,1.67-.33,3.36c.13-1.12.24-2.25.33-3.36a38.54,38.54,0,0,0,.08-5M27,134.89A39.28,39.28,0,0,0,27,142.2c.34,4.08.94,8.25,1.57,12.54-.63-4.3-1.23-8.46-1.57-12.54a40.16,40.16,0,0,1,.06-7.31"/>
      <path class="cls-15" d="M51.52,169.52h0c.1,6.81.29,15,.44,23.22h0c-.15-8.25-.34-16.41-.44-23.22"/>
      <path class="cls-16" d="M52,192.74h0c0,.94,0,1.89,0,2.83,0-.94,0-1.89,0-2.83"/>
      <path class="cls-26" d="M78,172h0c.36,6.38.73,13.55,1,20.71h0c-.32-7.16-.69-14.33-1-20.71m-26.51-5.58h0c0,1,0,2,0,3.07h0c0-1.06,0-2.08,0-3.07"/>
      <path class="cls-27" d="M79.05,192.74h0c.09,2.17.18,4.34.27,6.48-.09-2.14-.18-4.31-.27-6.48"/>
      <polyline class="cls-28" points="78 172.02 78 172.02 78 172.03 78 172.03 78 172.02"/>
      <path class="cls-29" d="M77.79,168.47c.07,1.15.14,2.34.21,3.55h0c-.07-1.21-.14-2.4-.21-3.55"/>
      <path class="cls-20" d="M123.41,219.23c.27,9.44.68,18.14,1.41,23.26-.73-5.12-1.14-13.82-1.41-23.26M30.16,212.1c-.29,14.48-.83,28.9-2.19,33.56a6.62,6.62,0,0,0,.57,1.12h0a6.37,6.37,0,0,1-.57-1.11c1.36-4.66,1.9-19.08,2.19-33.56m.63-33.5c0,.92,0,1.84-.06,2.77-.07,1.76-.12,3.9-.17,6.34.05-2.44.1-4.58.17-6.33,0-.93.05-1.86.06-2.78"/>
      <path class="cls-12" d="M82.44,225.89c.52,1.23,1.11,2.44,1.74,3.64h0c-.63-1.2-1.22-2.41-1.74-3.64m0-.06,0,.06,0-.06"/>
      <path class="cls-30" d="M84.18,229.53h0c.91,1.7,1.92,3.36,3,5h0c-1.08-1.62-2.09-3.29-3-5"/>
      <path class="cls-20" d="M46.56,255.24c-.37,1.35-.73,2.62-1,3.82.31-1.2.67-2.47,1-3.82h0"/>
      <path class="cls-30" d="M48.78,246.79c-.74,3.14-1.52,5.93-2.22,8.45h0c.7-2.52,1.48-5.31,2.22-8.45"/>
      <path class="cls-20" d="M35.43,252.81h0c.25.18.49.37.72.56h0c-.23-.2-.47-.38-.72-.56m89.22-5.71c-.12.18-.26.38-.42.58h0c.16-.21.3-.41.42-.59"/>
      <path class="cls-31" d="M59.63,145.52l-1.9.44c.09.72.17,1.44.25,2.15a13,13,0,0,1,2.51-.58.76.76,0,0,0-.11-.14l-1.6.43h0a4.37,4.37,0,0,1,.85-2.3M74.84,129.2c-.23.29-6.68,8.87-18,10.64,0,.23.07.46.11.7.16,1,.31,2,.44,3,14.64-6.17,17.33-14,17.43-14.32m9.91-3.35c-.2.42-6.67,13.76-27.32,17.82.1.72.2,1.45.29,2.17.75-.23,1.49-.46,2.21-.7,1-1.21,3-2.41,6.71-2.63,15.67-7.15,18-16.32,18.11-16.66m-55.49-.54A42.69,42.69,0,0,0,27,134.89,40.16,40.16,0,0,0,27,142.2c.34,4.08.94,8.24,1.57,12.54,1.1,7.51,2.28,15.41,2.24,23.86,0,.92,0,1.85-.06,2.78-.07,1.75-.12,3.89-.17,6.33-.13,6.69-.22,15.55-.4,24.39-.29,14.48-.83,28.9-2.19,33.56a6.37,6.37,0,0,0,.57,1.11c2.66-9.77,6.31-30.7,6.76-72.58a259.6,259.6,0,0,1,.13,78.62c.25.18.49.36.72.56a283.32,283.32,0,0,0,5.3-45.19,250.36,250.36,0,0,1,1.29,53.07,6.69,6.69,0,0,0,2,1.25c.22-1.08.5-2.22.82-3.44s.67-2.47,1-3.82h0c.7-2.52,1.48-5.31,2.22-8.45a121.56,121.56,0,0,0,3.34-26.38c.13-7.17,0-16-.11-24.84,0-.94,0-1.89,0-2.83-.15-8.25-.34-16.41-.44-23.22,0-1.06,0-2.08,0-3.07l-.51.24a10,10,0,0,1-3.22.76l-1.54.68a22.29,22.29,0,0,1-6.12,2l-.48,0a3.33,3.33,0,0,1-.86-.1c-1.84-.46-.25-1.32.67-2.08a4.62,4.62,0,0,1-1.42.31c-1.24,0-.78-1.32,1.33-3.52,1.6-1.67,3.69-3.43,5.5-5-.4-.09-.81-.2-1.21-.32s-.55-.17-.83-.27h0c-4.7-1.7-8.49-5.43-9.88-8.92l0-.05V150h0l0,0h0a27.68,27.68,0,0,1-1.07-3.81q-.48-2.3-.88-5.18c-.26-1.88-.49-3.94-.71-6.15-.14-1.38-.28-2.83-.41-4.33-.08-.9-.16-1.81-.24-2.74s-.14-1.64-.22-2.41m65.9-2.16C90,135.41,86.29,138.72,69.87,143a4.54,4.54,0,0,1,1.29,1c20.32-5.82,20-10.5,24-20.92m-54.24-6.91c0,.24.08.49.11.75a4.42,4.42,0,0,1,0,.61,3.39,3.39,0,0,1-1.29,2.74L41.73,126l.55,1.6h0c1.07,3.08,2.11,6.14,3.1,9h0c1.6,4.63,3,8.76,4.11,11.72.06.15.11.31.17.46l.05.15c.17.45.32.86.47,1.24l0,.06,0,.06h0a19,19,0,0,1,.86,3.07l.46-.48c-.68-6.44-1.33-7.74-2.76-21.66-.2-1.95-.33-3.76-.4-5.45a47.27,47.27,0,0,1-7.47-9.5m.53-5.76a61.62,61.62,0,0,0,6.89,11.76c0-1.08,0-2.11.12-3.11a77,77,0,0,1-7-8.65m-5-3.77-.12.23-.27.56,0,0c-.21.46-.42.93-.62,1.41.31.65.58,1.32.86,2h.1a3.71,3.71,0,0,1,2.1.72c-.72-1.54-1.41-3.18-2-4.92M106.55,97h0c-2.54,1.5-6.24,4.39-10.53,9.85-8.08,10.29-16.34,21.06-19.56,23.27,10.32-5.24,21-21.78,21.59-22.73-.48.87-8.29,14.91-12.68,19.42,7.34-2.5,15.2-13.47,19.47-20.21a67.74,67.74,0,0,0-6.13,15.76c-2.76,11.58,0,20.75-27.3,22a7.77,7.77,0,0,1,1.2,2.84c2.49,0,3.85-.09,3.85-.09h0s.15,2.68.34,5.76c0,.44.06.9.08,1.36.24,3.34.57,8.33.91,14.22.07,1.15.14,2.34.21,3.55h0c.36,6.38.73,13.55,1,20.71.09,2.17.18,4.34.27,6.48.2,5.28.36,10.41.45,15.05a31.16,31.16,0,0,0,2.64,11.56l0,.06h0c.52,1.23,1.11,2.44,1.74,3.64.91,1.69,1.92,3.36,3,5-1.42-19.11-4.2-60.87-3.17-81,.62,33.82,5.52,51.94,5.52,51.94s-1.93-32.15,4.16-59.52c1.23,32.59,2.45,54.38,2.45,54.38s1.74-56,10.3-81.15c-6.63,32.43-2.82,70.18,0,85.31-3.69-33.29,9-62.74,7.09-91.47,0,0,9.53,9.45,6.11,44.46-3.29,33.69-3.87,61.33,4.59,90.27.16-.21.3-.41.42-.59a7.05,7.05,0,0,0,.79-1.44,23.07,23.07,0,0,1-.62-3.17c-.73-5.12-1.14-13.82-1.41-23.26-.39-14.18-.44-30-.73-37.86-.49-13.07,2.18-24.79,3.41-35.81q.19-1.69.33-3.36a38.54,38.54,0,0,0,.08-5,43.63,43.63,0,0,0-2.94-13.07c-1.39-3.84-3.07-7.65-4.54-11.94a33.52,33.52,0,0,0-4.1-8.44v0l0,0,0,0v0A17,17,0,0,0,106.55,97m-4.66-.87,0,0-.05,0a25.11,25.11,0,0,0-2.25,1.12,39.38,39.38,0,0,0-10.81,8.84c-5.89,7-9.12,10.93-11.79,11.68l-.16,0H76.6l-.29-.08c-1.57-.5-3.35-2.1-5.74-4.75-1.64-1.81-3.57-4.11-5.92-6.89a38.25,38.25,0,0,0-4.21-4.23c-.71,2.84-1.47,5.59-2.16,8.14a82,82,0,0,0,13.43,9.87c-.53-.19-5.64-2.07-14.08-7.45-.1.38-.19.76-.29,1.12,9.71,9.33,12.49,10.92,13,11.17a88.43,88.43,0,0,1-14-7.09c-.22,1.07-.41,2-.57,3,5.92,8.38,8.38,10.37,8.56,10.51a39.62,39.62,0,0,1-9.12-5.7,33.31,33.31,0,0,0,.19,4.91c1.64,1.57,2.73,2.43,2.87,2.54a25.75,25.75,0,0,1-2.75-1.48c.25,2,.63,4.43,1.13,7.52,3.68-1.9,10.1-6.67,19.11-18.71A69.93,69.93,0,0,1,67,134.32a175.91,175.91,0,0,0,23.49-24.1c6.6-8.17,11.86-11.83,15.26-13.47a15.71,15.71,0,0,0-3.23-.57l-.65,0m-52.38-.72h0a11.48,11.48,0,0,0-4.93,1.5c1.8,1.87,4.16,4.26,6.84,6.83.57-2.1,1.19-4.32,1.82-6.78-1-.53-1.65-.79-1.65-.79l-.13-.06h0l-.07,0h0a4.84,4.84,0,0,1-.81-.28l-.12,0-.1,0a4.85,4.85,0,0,0-.82-.28"/>
      <path class="cls-17" d="M76.7,269.6v6c2.87,3.21,11.25,1.77,11.25,1.77v-2.88S79.17,272.81,76.7,269.6Z"/>
      <path class="cls-32" d="M76.69,202.63c.11,2.79.16,5.58.23,8.37l.13,8.37c.08,5.58.07,11.16.11,16.74s0,11.17-.1,16.75l-.14,8.37c-.07,2.79-.12,5.58-.23,8.37-.1-2.79-.15-5.58-.23-8.37l-.13-8.37c-.07-5.58-.07-11.16-.1-16.75s0-11.16.11-16.74l.13-8.37C76.54,208.21,76.59,205.42,76.69,202.63Z"/>
      <path class="cls-33" d="M46.13,160c-6.18-.8-11.5-5.45-13.21-9.73-1.57-3.9-2.41-10.92-3.2-19.79-.08-.9-.16-1.81-.24-2.74C29,121.4,28.25,117,27.8,114.53a3.78,3.78,0,0,0-2.56-2.93c-1-.33-2.26-.71-3.22-1-2.07-.55-7.21-.87-8.08-1.38a11.84,11.84,0,0,1-2.25-2.38,9.52,9.52,0,0,1-3.44-.69c-1-.61-1.63-1.9-1.69-3.89s.64-3.36,2.05-3.06A3,3,0,0,1,11.77,97c.61-1.62,1.07-1.81,3-1.69s7.5,1.44,7.65,2.54a2.73,2.73,0,0,1-.61,2,4.36,4.36,0,0,1,2.08.12A21.89,21.89,0,0,1,30,103.27a18,18,0,0,1,3.8,3.09,18.13,18.13,0,0,1,2.56,4.77c1.07,2.49,2,5.05,2.88,7.61.85,2.4,1.68,4.8,2.51,7.21.18.54.37,1.07.55,1.61,3.17,9.18,6.22,18.17,7.89,22.57,1.78,4.65,2.14,10.64-4,9.85"/>
      <path class="cls-20" d="M22.58,99.78a3.43,3.43,0,0,0-.74.08h0a3.36,3.36,0,0,1,.74-.08,5,5,0,0,1,1.34.2A21.89,21.89,0,0,1,30,103.27a18,18,0,0,1,3.8,3.09A12.09,12.09,0,0,1,35.39,109h0a11.48,11.48,0,0,0-1.61-2.59,18,18,0,0,0-3.8-3.09A21.89,21.89,0,0,0,23.92,100a5,5,0,0,0-1.34-.2m-14-.56h0m3-2.24h0m.21,0h0m2.37-1.71.66,0c1.95.13,7.5,1.44,7.65,2.54A2.81,2.81,0,0,1,22,99.66a2.81,2.81,0,0,0,.46-1.84c-.15-1.1-5.7-2.41-7.65-2.54l-.66,0"/>
      <polyline class="cls-34" points="35.39 108.95 35.38 108.95 35.38 108.95 35.39 108.95 35.39 108.95"/>
      <path class="cls-35" d="M35.39,109h0c.31.65.58,1.32.86,2h0c-.28-.65-.55-1.32-.86-2"/>
      <path class="cls-20" d="M27.12,113h0l.15.22h0c0-.07-.1-.15-.15-.22"/>
      <path class="cls-35" d="M50.23,150.26a19,19,0,0,1,.86,3.07h0a19,19,0,0,0-.86-3.07m0-.07,0,.06,0-.06M39.79,120.34h0c.65,1.86,1.29,3.73,1.94,5.6.18.54.37,1.07.55,1.61h0l-.55-1.6-1.94-5.61"/>
      <path class="cls-36" d="M21.84,99.86c-.56,0-1.11.08-1.66.16a10.54,10.54,0,0,0-1.6.32l.11-.07c-.16.24,0,.7.14,1.06a6.68,6.68,0,0,0,.65,1.09,7.07,7.07,0,0,0,.83,1,2.71,2.71,0,0,0,1,.67l-.29.07a6.31,6.31,0,0,1,2.12-1.27,5.2,5.2,0,0,1,2.44-.3A6.28,6.28,0,0,1,29.59,105a6.87,6.87,0,0,0-4.09-1.94,5.17,5.17,0,0,0-2.2.35,6.47,6.47,0,0,0-1.9,1.16l-.14.12-.14-.05a3.14,3.14,0,0,1-1.22-.83,7.33,7.33,0,0,1-.86-1.07,6.17,6.17,0,0,1-.66-1.21,3.12,3.12,0,0,1-.18-.7,1.06,1.06,0,0,1,.17-.79l.05-.06h.06a6.89,6.89,0,0,1,1.69-.18A11.61,11.61,0,0,1,21.84,99.86Z"/>
      <path class="cls-36" d="M8.61,99.23c.1.71.2,1.4.32,2.08a7.4,7.4,0,0,0,.26,1,5.23,5.23,0,0,0,.45.88c.7,1.2,1.45,2.4,2,3.7a18.08,18.08,0,0,1-2.57-3.4,4.7,4.7,0,0,1-.47-1,4.6,4.6,0,0,1-.18-1.09A8.51,8.51,0,0,1,8.61,99.23Z"/>
      <path class="cls-36" d="M11.77,97c.12.79.26,1.57.4,2.33a11.15,11.15,0,0,0,.61,2.22,15,15,0,0,0,1.14,2l1.3,2a11.81,11.81,0,0,1-1.68-1.71,8.85,8.85,0,0,1-1.31-2,7.72,7.72,0,0,1-.53-2.38A11.32,11.32,0,0,1,11.77,97Z"/>
      <path class="cls-13" d="M46.13,160c-6.18-.8-11.5-5.45-13.21-9.73a42.53,42.53,0,0,1-2.08-9.31c-.42-3.07-.77-6.59-1.12-10.48,2.92,1.31,8.05,2.39,12.56-2.9,1.07,3.07,2.11,6.13,3.1,9,2,5.69,3.68,10.64,4.79,13.57,1.78,4.65,2.14,10.64-4,9.85"/>
      <path class="cls-14" d="M45.38,136.56c-4.11,4.52-10.38,4.81-14.54,4.38-.42-3.07-.77-6.59-1.12-10.48,2.92,1.31,8.05,2.39,12.56-2.9,1.07,3.07,2.11,6.13,3.1,9"/>
      <path class="cls-15" d="M31.33,144c.06.39.13.76.2,1.14-.07-.38-.14-.76-.2-1.14"/>
      <path class="cls-37" d="M45.38,136.56h0c1.68,4.87,3.18,9.2,4.28,12.18-.06-.15-.11-.31-.17-.46-1.08-3-2.51-7.09-4.11-11.72h0"/>
      <path class="cls-37" d="M49.71,148.89l.46,1.24a18.22,18.22,0,0,1,.92,3.2h0a19,19,0,0,0-.86-3.07h0l0-.06,0-.06c-.15-.38-.3-.79-.47-1.24"/>
      <path class="cls-37" d="M42.8,159.17h0c.28.1.55.19.83.27l-.83-.27"/>
      <path class="cls-15" d="M45.38,136.56c-.12.14-.26.28-.39.41h0l0,0h0l0,0h0l0,0v0l0,0v0l0,0h0v0l0,0h0l0,0h0a13.29,13.29,0,0,1-4.76,2.83c.46,1.21.92,2.45,1.37,3.72,2.89,8.09,3.27,12.93,1.49,15.36l.83.27c.4.12.81.23,1.21.32a36,36,0,0,0,3.1-2.9c.83-.93,1.94-2.23,3.15-3.53a18.22,18.22,0,0,0-.92-3.2l-.46-1.24h0l0-.12v0h0c-1.1-3-2.6-7.31-4.28-12.18"/>
      <path class="cls-16" d="M44.73,137.22l0,0,0,0m0,0,0,0,0,0m0,0h0m0,0v0m0,0v0m0,0h0m0,0h0m0,0h0m-8.63-5.64h0c1.17,2.69,2.38,5.63,3.58,8.76h0a13.29,13.29,0,0,0,4.76-2.83,13.29,13.29,0,0,1-4.76,2.83c-1.2-3.13-2.41-6.07-3.58-8.76"/>
      <path class="cls-38" d="M42.28,127.55h0c1.07,3.07,2.11,6.13,3.1,9h0c-1-2.87-2-5.93-3.1-9h0"/>
      <path class="cls-39" d="M42,127.87a10.51,10.51,0,0,1-5.65,3.46h0A10.45,10.45,0,0,0,42,127.87m0,0h0"/>
      <path class="cls-26" d="M44.7,137.25h0m0,0h0m0,0v0m0,0,0,0,0,0m0,0,0,0,0,0m0,0,0,0,0,0m0-.05,0,0,0,0m0,0,0,0,0,0m.39-.41c-.12.14-.26.28-.39.41.13-.13.27-.27.39-.41h0"/>
      <path class="cls-27" d="M42.28,127.56l-.24.27h0l0,0a10.45,10.45,0,0,1-5.65,3.46c1.17,2.69,2.38,5.63,3.58,8.76a13.29,13.29,0,0,0,4.76-2.83h0l0,0h0l0,0v0h0l0,0v0l0,0v0l0,0h0l0,0h0l0,0h0c.13-.13.27-.27.39-.41h0c-1-2.87-2-5.93-3.1-9"/>
      <path class="cls-40" d="M76.46,147.13s.52,9.29.83,13.15c-8.69-.55-16.47-.85-17.38-.64s-4.2,3.37-5.94,5a9.38,9.38,0,0,1-6.21,2.83c-4.1,1.83-7.16,3.06-9,2.6s-.25-1.32.67-2.08c-2.78,1-2.78-.4-.09-3.21s6.79-5.88,8.6-7.9,5-5.83,7.5-7.44,4.18-2.15,10.69-2.15,10.33-.14,10.33-.14"/>
      <path class="cls-35" d="M76.46,147.13h0s.15,2.68.34,5.76c-.19-3.08-.34-5.76-.34-5.76"/>
      <path class="cls-29" d="M71.47,159.94h0c1.84.1,3.81.21,5.82.34h0c-2-.13-4-.24-5.82-.34"/>
      <path class="cls-26" d="M52.72,165.67a9.82,9.82,0,0,1-1.23.78h0a9.82,9.82,0,0,0,1.23-.78"/>
      <polyline class="cls-41" points="51.49 166.45 51.49 166.45 51.49 166.45 51.49 166.45 51.49 166.45"/>
      <path class="cls-35" d="M46.22,168.13a22.19,22.19,0,0,1-6.12,2,22.29,22.29,0,0,0,6.12-2m5.27-1.68-.51.24.51-.24h0"/>
      <path class="cls-42" d="M39.43,168c1.3-.94,2.62-1.78,3.93-2.66s2.6-1.74,3.86-2.71a13.39,13.39,0,0,1-3.53,3.22A19.14,19.14,0,0,1,39.43,168Z"/>
      <path class="cls-43" d="M76.46,147.13c2.14-.48,4.27-1,6.39-1.57s4.24-1.11,6.35-1.7l.79-.22c.26-.08.5-.18.76-.27l.75-.28.7-.4a7.07,7.07,0,0,0,1.33-.9,9.35,9.35,0,0,0,1.16-1.11,17.48,17.48,0,0,0,3.23-5.6c.8-2,1.37-4.13,2.07-6.22.16-.53.37-1,.58-1.56l.39-.75c.12-.24.25-.46.35-.71a17.24,17.24,0,0,0,.87-3.13,30.12,30.12,0,0,1,1.8-6.34,13.38,13.38,0,0,1,4.07-5.11,13.32,13.32,0,0,0-3.86,5.21,30.14,30.14,0,0,0-1.65,6.32,16.92,16.92,0,0,1-.85,3.21c-.11.26-.25.51-.38.76l-.36.71c-.2.5-.4,1-.56,1.52-.67,2.07-1.23,4.21-2,6.26A18.1,18.1,0,0,1,95,141a10.11,10.11,0,0,1-1.22,1.14,7.71,7.71,0,0,1-1.39.94l-.73.4-.79.28-.79.27-.8.21C85.05,145.31,80.77,146.31,76.46,147.13Z"/>
      <path class="cls-44" d="M45.38,136.56c.6,1.34,1.14,2.7,1.68,4.07s1,2.74,1.55,4.11,1,2.76,1.44,4.15.92,2.79,1.26,4.22l-1.6-4.1-1.54-4.11c-.48-1.39-1-2.76-1.45-4.15S45.8,138,45.38,136.56Z"/>
      <path class="cls-45" d="M54.41,65.51s2.35,17.4-.92,30.43-6.34,19.31-4.7,35.25S51,146.52,51.86,156s5.52,16.86,4.9,21.46-1.22,13-.41,14.87,2.25,1.53,2.25,1.53a116.92,116.92,0,0,0,1-18.7c-.41-8.74-.62-21.92-2.66-34.64s-2.46-14.41-.21-24.52,8.59-26.83,5.52-38.78-7.87-11.73-7.87-11.73"/>
      <path class="cls-46" d="M59.89,84.05c.66,2.1.4,4-.59,4.2s-2.32-1.31-3-3.41-.4-4,.59-4.2,2.32,1.31,3,3.41"/>
      <path class="cls-46" d="M61.24,90c-.86.81-1.87,1.24-2.25,1s0-1.17.87-2,1.86-1.24,2.24-1S62.1,89.14,61.24,90Z"/>
      <path class="cls-46" d="M58.27,102.76c-.86.81-1.87,1.23-2.25.95s0-1.17.87-2,1.86-1.24,2.24-1S59.13,102,58.27,102.76Z"/>
      <path class="cls-46" d="M55.83,110.21c-1.36,1.28-2.95,2-3.55,1.5s0-1.85,1.37-3.13,2.94-2,3.55-1.51S57.18,108.93,55.83,110.21Z"/>
      <path class="cls-46" d="M53.36,129.79c-1.35,1.28-2.94,2-3.54,1.51s0-1.85,1.37-3.13,2.94-2,3.54-1.51S54.72,128.51,53.36,129.79Z"/>
      <path class="cls-46" d="M55.48,147.94c-.81.77-1.76,1.17-2.11.9s0-1.1.81-1.87,1.75-1.16,2.11-.89S56.28,147.18,55.48,147.94Z"/>
      <path class="cls-46" d="M58,166.94c-.81.76-1.76,1.16-2.11.9s0-1.11.81-1.87,1.75-1.16,2.11-.9S58.84,166.18,58,166.94Z"/>
      <path class="cls-46" d="M57.85,163c-.81.76-1.75,1.16-2.11.89s0-1.1.82-1.86,1.75-1.17,2.11-.9S58.66,162.19,57.85,163Z"/>
      <path class="cls-46" d="M55.42,159.09c.57.9.68,1.79.26,2s-1.23-.39-1.8-1.3-.68-1.78-.26-2S54.85,158.19,55.42,159.09Z"/>
      <path class="cls-46" d="M58.72,93.88c.55,1.73.33,3.29-.48,3.47s-1.92-1.08-2.47-2.82-.33-3.29.49-3.47S58.18,92.14,58.72,93.88Z"/>
      <path class="cls-46" d="M53.05,117.05c.54,1.73.33,3.29-.49,3.47s-1.92-1.08-2.46-2.82-.33-3.29.48-3.47S52.5,115.31,53.05,117.05Z"/>
      <path class="cls-46" d="M52.94,135.06c.54,1.73.32,3.29-.49,3.47s-1.92-1.08-2.47-2.82-.32-3.29.49-3.47S52.39,133.32,52.94,135.06Z"/>
      <path class="cls-46" d="M53.91,142.31c.47,1.49.28,2.82-.42,3s-1.64-.92-2.11-2.41-.28-2.82.42-3S53.44,140.82,53.91,142.31Z"/>
      <path class="cls-46" d="M56.65,98.51c.4,1.25.24,2.36-.34,2.49s-1.38-.77-1.77-2-.23-2.35.35-2.48S56.26,97.27,56.65,98.51Z"/>
      <polygon class="cls-47" points="54.07 195.12 52.62 209.79 51.77 218.31 52.96 218.31 55.33 194.14 57.58 194.03 57.31 218.2 58.37 218.2 58.6 193.88 60.23 193.88 61.8 218.53 62.59 218.42 61.14 193.03 64.44 217.97 65.76 217.86 61.67 192.26 57.71 188.48 54.07 195.12"/>
      <path class="cls-48" d="M53.13,209.59a31.44,31.44,0,0,0-4.57,18.55l.7-.52.35,2.44.79-3.18.44,2.74.36-1.33,1.58,2.29-.53-4.07.79,1.7.27-2L54.54,229v-3.55l1.06,2.66.08-2.59s1.41,3.92,1.32,3.62A38.36,38.36,0,0,0,53.13,209.59Z"/>
      <path class="cls-13" d="M58.24,209.59a31.41,31.41,0,0,0-4.58,18.55l.7-.52.36,2.44.79-3.18.44,2.74.35-1.33,1.58,2.29-.52-4.07.79,1.7.26-2L59.64,229v-3.55l1.06,2.66.09-2.59s1.4,3.92,1.32,3.62A38.62,38.62,0,0,0,58.24,209.59Z"/>
      <path class="cls-49" d="M63.16,209.59a31.44,31.44,0,0,0-4.57,18.55l.7-.52.35,2.44.79-3.18.44,2.74.36-1.33,1.58,2.29-.53-4.07.79,1.7.27-2L64.57,229v-3.55l1.06,2.66.08-2.59s1.41,3.92,1.32,3.62A38.36,38.36,0,0,0,63.16,209.59Z"/>
      <path class="cls-43" d="M64.4,209.82a30.84,30.84,0,0,0-2.55,18.83l.65-.57.61,2.4.45-3.22.73,2.69.21-1.36,1.82,2.17-1-4,1,1.63,0-2,1.53,2.71-.39-3.54,1.34,2.57-.19-2.58s1.83,3.79,1.71,3.5A39.4,39.4,0,0,0,64.4,209.82Z"/>
      <path class="cls-50" d="M54.07,195.12h0a1.52,1.52,0,0,1-1.52-1.58l1.71-13.6a1.68,1.68,0,0,1,1.89-1.28,1.53,1.53,0,0,1,1.53,1.59L56,193.84A1.67,1.67,0,0,1,54.07,195.12Z"/>
      <path class="cls-50" d="M56.89,183.24,54.33,183a1.26,1.26,0,0,1-1.26-1.31,1.38,1.38,0,0,1,1.56-1.06l2.56.23a1.27,1.27,0,0,1,1.26,1.31A1.37,1.37,0,0,1,56.89,183.24Z"/>
      <path class="cls-50" d="M56.52,186.16,54,185.93a1.25,1.25,0,0,1-1.26-1.31,1.38,1.38,0,0,1,1.56-1.06l2.56.23a1.27,1.27,0,0,1,1.26,1.31A1.37,1.37,0,0,1,56.52,186.16Z"/>
      <path class="cls-50" d="M55.58,193.6,53,193.38a1.27,1.27,0,0,1-1.26-1.31A1.37,1.37,0,0,1,53.32,191l2.56.22a1.27,1.27,0,0,1,1.26,1.32A1.37,1.37,0,0,1,55.58,193.6Z"/>
      <rect class="cls-47" x="56.3" y="178.62" width="3.43" height="16.56" rx="1.57"/>
      <path class="cls-47" d="M59.55,183.11h-3a1.2,1.2,0,0,1,0-2.39h3a1.2,1.2,0,0,1,0,2.39Z"/>
      <path class="cls-47" d="M59.55,186h-3a1.19,1.19,0,0,1,0-2.38h3a1.19,1.19,0,1,1,0,2.38Z"/>
      <path class="cls-47" d="M59.55,193.53h-3a1.2,1.2,0,0,1,0-2.39h3a1.2,1.2,0,0,1,0,2.39Z"/>
      <path class="cls-50" d="M62.2,195.06h0a1.7,1.7,0,0,1-2-1.18l-2.67-13.49A1.5,1.5,0,0,1,59,178.73a1.7,1.7,0,0,1,2,1.19l2.66,13.49A1.48,1.48,0,0,1,62.2,195.06Z"/>
      <path class="cls-50" d="M61.14,183l-2.54.35a1.41,1.41,0,0,1-1.63-1A1.24,1.24,0,0,1,58.14,181l2.54-.35a1.41,1.41,0,0,1,1.63,1A1.23,1.23,0,0,1,61.14,183Z"/>
      <path class="cls-50" d="M61.71,185.88l-2.53.35a1.42,1.42,0,0,1-1.64-1,1.24,1.24,0,0,1,1.17-1.37l2.54-.35a1.41,1.41,0,0,1,1.63,1A1.23,1.23,0,0,1,61.71,185.88Z"/>
      <path class="cls-50" d="M63.17,193.26l-2.54.36a1.42,1.42,0,0,1-1.63-1,1.24,1.24,0,0,1,1.17-1.37l2.54-.35a1.41,1.41,0,0,1,1.63,1A1.23,1.23,0,0,1,63.17,193.26Z"/>
      <path class="cls-47" d="M61.8,178.48a1.3,1.3,0,0,1-.5,1,1.85,1.85,0,0,1-1.18.41H54.64A1.56,1.56,0,0,1,53,178.48a1.3,1.3,0,0,1,.19-.67,1.55,1.55,0,0,1,.3-.33,1.83,1.83,0,0,1,1.19-.42h5.48a1.75,1.75,0,0,1,1.48.75A1.22,1.22,0,0,1,61.8,178.48Z"/>
      <path class="cls-50" d="M61.6,177.81a1.34,1.34,0,0,1-.3.33,1.8,1.8,0,0,1-1.18.42H54.64a1.76,1.76,0,0,1-1.49-.75,1.55,1.55,0,0,1,.3-.33,1.83,1.83,0,0,1,1.19-.42h5.48A1.75,1.75,0,0,1,61.6,177.81Z"/>
      <path class="cls-5" d="M56.76,74a5.68,5.68,0,0,1-4.37,1.18c-4.88-.88-8.1-8.87-6.63-11.33l.24-.36c2-2.65,6-1.08,6-1.08S63.86,68.83,56.76,74"/>
      <path class="cls-8" d="M47.82,66.85a1.39,1.39,0,0,0-.52.55c-.92,1.62,2.35,4.45,4.78,5.49a2.31,2.31,0,0,1,.46,0A2.06,2.06,0,0,1,54.6,74.9a.66.66,0,0,1,0,.14l.36-.11a24.2,24.2,0,0,1-1.44-3.38l-.26-1.29c-.63-.54-1.22-1.08-1.84-1.57a10.1,10.1,0,0,0-1.76-1.22,5.27,5.27,0,0,0-1.83-.62M48.26,62A3.75,3.75,0,0,0,46,63.46c.73.07,2.45.49,4.28,2.83a4.87,4.87,0,0,1,1.58.69A34.49,34.49,0,0,1,48.26,62"/>
      <path class="cls-51" d="M55.06,71.7c-1.4-1-2.49-2.08-3.65-3a10.1,10.1,0,0,0-1.76-1.22,5.54,5.54,0,0,0-2.17-.67,3.05,3.05,0,0,1,2.57-.56,5.25,5.25,0,0,1,2.4,1.17,7.89,7.89,0,0,1,1.68,1.93,6.31,6.31,0,0,1,.93,2.36"/>
      <path class="cls-52" d="M55.74,86.16c-1.76.82-3.86.64-6.17-.08v-.62c.07-5.86,2.59-8.31,3-8.66l.05,0C56.47,79.64,55.74,86.16,55.74,86.16Z"/>
      <path class="cls-53" d="M54.66,85.24a7.68,7.68,0,0,1-5.09.22c0-.53,0-1,.08-1.5a11.7,11.7,0,0,1,2.42-6.66,4.91,4.91,0,0,1,.48-.5C55.26,80,54.66,85.24,54.66,85.24Z"/>
      <path class="cls-54" d="M52.84,83.43a6.52,6.52,0,0,1-3.19.53,11.7,11.7,0,0,1,2.42-6.66A14.7,14.7,0,0,1,52.84,83.43Z"/>
      <path class="cls-55" d="M50.77,86.78a.88.88,0,0,1-.84.89.86.86,0,0,1-.9-.84h0a.87.87,0,0,1,.84-.89h.18A.9.9,0,0,1,50.77,86.78Z"/>
      <path class="cls-3" d="M50.48,86.59a.75.75,0,0,1-.72.77.74.74,0,0,1-.73-.54.87.87,0,0,1,.84-.89h.18A.74.74,0,0,1,50.48,86.59Z"/>
      <path class="cls-55" d="M52.26,87a.87.87,0,1,1-1.74.06h0a.88.88,0,0,1,.84-.89h.18A.87.87,0,0,1,52.26,87Z"/>
      <path class="cls-3" d="M52,86.81a.74.74,0,0,1-.72.76.73.73,0,0,1-.73-.53.88.88,0,0,1,.84-.89h.18A.74.74,0,0,1,52,86.81Z"/>
      <path class="cls-55" d="M53.86,87.15a.87.87,0,0,1-1.74,0h0A.88.88,0,0,1,53,86.3h.18A.88.88,0,0,1,53.86,87.15Z"/>
      <path class="cls-3" d="M53.57,87a.74.74,0,0,1-1.45.23A.88.88,0,0,1,53,86.3h.18A.74.74,0,0,1,53.57,87Z"/>
      <path class="cls-55" d="M55.34,87.05a.86.86,0,0,1-.84.89.87.87,0,0,1-.9-.83h0a.87.87,0,0,1,.85-.89h.18A.87.87,0,0,1,55.34,87.05Z"/>
      <path class="cls-3" d="M55.06,86.86a.75.75,0,0,1-1.46.24.87.87,0,0,1,.85-.89h.18A.73.73,0,0,1,55.06,86.86Z"/>
      <path class="cls-55" d="M56.86,86.59a.86.86,0,0,1-.84.89.87.87,0,0,1-.9-.84h0a.86.86,0,0,1,.85-.88h.18A.88.88,0,0,1,56.86,86.59Z"/>
      <path class="cls-3" d="M56.57,86.4a.75.75,0,0,1-.71.77.75.75,0,0,1-.74-.54.86.86,0,0,1,.85-.88h.18A.73.73,0,0,1,56.57,86.4Z"/>
      <path class="cls-52" d="M54.6,74.9a2.06,2.06,0,1,1-2.06-2.06A2.06,2.06,0,0,1,54.6,74.9"/>
      <path class="cls-53" d="M54.4,74.9A1.87,1.87,0,1,1,52.54,73,1.87,1.87,0,0,1,54.4,74.9"/>
      <path class="cls-54" d="M53.49,74.58a1.17,1.17,0,1,1-1.17-1.07A1.13,1.13,0,0,1,53.49,74.58Z"/>
      <path class="cls-5" d="M94.16,74a5.66,5.66,0,0,0,4.36,1.18c4.88-.88,8.11-8.87,6.63-11.33l-.24-.36c-2-2.65-6-1.08-6-1.08S87.05,68.83,94.16,74"/>
      <path class="cls-8" d="M96.32,74.75c0,.09-.08.17-.13.26l.13,0v-.29m6.77-7.9a5.29,5.29,0,0,0-1.82.62,10.17,10.17,0,0,0-1.77,1.22c-.49.39-1,.81-1.45,1.23l0,.75q-.49,1.44-1.08,2.76a2.07,2.07,0,0,1,1.45-.59,2.22,2.22,0,0,1,.45,0c2.44-1,5.7-3.87,4.78-5.49a1.39,1.39,0,0,0-.52-.55m-1.61-4.93c-.27,0-.52,0-.76,0-.91,1.65-1.79,3-2.46,4l-.09,1.72.3-.26a5.38,5.38,0,0,1,2.16-1.12c1.83-2.34,3.55-2.76,4.28-2.83a4.1,4.1,0,0,0-3.43-1.54"/>
      <path class="cls-51" d="M95.85,71.7a6.31,6.31,0,0,1,.93-2.36,7.72,7.72,0,0,1,1.69-1.93,5.21,5.21,0,0,1,2.39-1.17,3.08,3.08,0,0,1,2.58.56,5.44,5.44,0,0,0-2.17.67,10.17,10.17,0,0,0-1.77,1.22c-1.16.93-2.25,2-3.65,3"/>
      <path class="cls-52" d="M95.18,86.16c1.75.82,3.85.64,6.16-.08v-.62c-.06-5.86-2.58-8.31-3-8.66l0,0C94.44,79.64,95.18,86.16,95.18,86.16Z"/>
      <path class="cls-53" d="M96.25,85.24a7.68,7.68,0,0,0,5.09.22c0-.53,0-1-.08-1.5a11.79,11.79,0,0,0-2.41-6.66,4.65,4.65,0,0,0-.49-.5C95.65,80,96.25,85.24,96.25,85.24Z"/>
      <path class="cls-54" d="M98.08,83.43a6.47,6.47,0,0,0,3.18.53,11.79,11.79,0,0,0-2.41-6.66A14.52,14.52,0,0,0,98.08,83.43Z"/>
      <path class="cls-55" d="M100.15,86.78a.86.86,0,0,0,.84.89.87.87,0,0,0,.9-.84h0a.88.88,0,0,0-.84-.89h-.19A.88.88,0,0,0,100.15,86.78Z"/>
      <path class="cls-3" d="M100.44,86.59a.75.75,0,0,0,.71.77.75.75,0,0,0,.74-.54.88.88,0,0,0-.84-.89h-.19A.75.75,0,0,0,100.44,86.59Z"/>
      <path class="cls-55" d="M98.65,87a.87.87,0,1,0,1.74.06h0a.87.87,0,0,0-.84-.89h-.18A.9.9,0,0,0,98.65,87Z"/>
      <path class="cls-3" d="M98.94,86.81a.74.74,0,0,0,.72.76.73.73,0,0,0,.73-.53.87.87,0,0,0-.84-.89h-.18A.74.74,0,0,0,98.94,86.81Z"/>
      <path class="cls-55" d="M97.05,87.15a.88.88,0,0,0,.84.89.86.86,0,0,0,.9-.84h0A.88.88,0,0,0,98,86.3h-.18A.9.9,0,0,0,97.05,87.15Z"/>
      <path class="cls-3" d="M97.34,87a.75.75,0,0,0,.72.77.74.74,0,0,0,.73-.54A.88.88,0,0,0,98,86.3h-.18A.74.74,0,0,0,97.34,87Z"/>
      <path class="cls-55" d="M95.57,87.05a.86.86,0,0,0,.84.89.87.87,0,0,0,.9-.83h0a.87.87,0,0,0-.84-.89h-.18A.87.87,0,0,0,95.57,87.05Z"/>
      <path class="cls-3" d="M95.86,86.86a.74.74,0,0,0,1.45.24.87.87,0,0,0-.84-.89h-.18A.72.72,0,0,0,95.86,86.86Z"/>
      <path class="cls-55" d="M94.05,86.59a.86.86,0,0,0,.84.89.87.87,0,0,0,.9-.84h0a.86.86,0,0,0-.84-.88h-.18A.88.88,0,0,0,94.05,86.59Z"/>
      <path class="cls-3" d="M94.34,86.4a.74.74,0,0,0,1.45.23.86.86,0,0,0-.84-.88h-.18A.74.74,0,0,0,94.34,86.4Z"/>
      <path class="cls-52" d="M96.32,74.9a2.06,2.06,0,1,0,2.06-2.06,2.06,2.06,0,0,0-2.06,2.06"/>
      <path class="cls-53" d="M96.51,74.9A1.87,1.87,0,1,0,98.38,73a1.87,1.87,0,0,0-1.87,1.87"/>
      <path class="cls-54" d="M97.43,74.58a1.17,1.17,0,1,0,1.16-1.07A1.12,1.12,0,0,0,97.43,74.58Z"/>
      <path class="cls-56" d="M53.51,68.6c-.72-.35-10-9.7-9.79-22.1S46.07,24.16,61.5,17.78s23.61-4.42,31.24,2.66,12.3,17,12.3,27.08-7.94,20-7.94,20L53.51,68.6"/>
      <g class="cls-57">
        <rect class="cls-8" x="59.16" y="53.92" width="7.95" height="12.69"/>
      </g>
      <path class="cls-58" d="M65.72,61.67c.14,2.31-.86,4.28-2.24,4.4s-2.6-1.67-2.74-4,.87-4.28,2.24-4.4S65.59,59.35,65.72,61.67Z"/>
      <path class="cls-3" d="M62.83,60.41c0,.72-.28,1.34-.71,1.38s-.81-.53-.86-1.25.27-1.35.71-1.38S62.78,59.68,62.83,60.41Z"/>
      <path class="cls-3" d="M63.46,62.07c0,.36-.14.68-.36.69s-.41-.26-.44-.63.14-.68.36-.7S63.43,61.7,63.46,62.07Z"/>
      <path class="cls-8" d="M86.82,54c-1.92,0-3.66,2.46-4,5.7-.33,3.41,1.05,6.39,3.07,6.66a1.51,1.51,0,0,0,.3,0c1.91,0,3.65-2.45,4-5.7s-1-6.39-3.08-6.66l-.29,0"/>
      <path class="cls-58" d="M88.79,62.08C88.58,64.34,87.31,66,86,65.84s-2.25-2.15-2-4.41,1.48-3.93,2.82-3.76S89,59.83,88.79,62.08Z"/>
      <path class="cls-3" d="M86.2,60.26c-.07.71-.47,1.24-.89,1.18s-.7-.68-.63-1.38.46-1.24.88-1.18S86.27,59.55,86.2,60.26Z"/>
      <path class="cls-3" d="M86.55,62c0,.35-.23.62-.44.59s-.36-.34-.33-.7.24-.62.45-.59S86.59,61.63,86.55,62Z"/>
      <path class="cls-51" d="M63.16,73.46a7.24,7.24,0,0,1-.68,1.08l-.31.4c-.13.14-.25.32-.46.56a1.08,1.08,0,0,1-.34-.78,1.33,1.33,0,0,1,.28-.81,1.37,1.37,0,0,1,.67-.48,1.12,1.12,0,0,1,.84,0"/>
      <path class="cls-51" d="M88.45,73.46a1.09,1.09,0,0,1,.83,0,1.36,1.36,0,0,1,.68.48,1.26,1.26,0,0,1,.27.81,1,1,0,0,1-.33.78c-.21-.24-.33-.42-.46-.56l-.32-.4A8.36,8.36,0,0,1,88.45,73.46Z"/>
      <path class="cls-3" d="M83.57,76.1a12.18,12.18,0,0,1-8.7,3.48,10.41,10.41,0,0,1-8.39-3.8A35.24,35.24,0,0,0,83.57,76.1Z"/>
      <path class="cls-59" d="M69.93,76s4-4.43,11.15,0C81.08,76,73,77.18,69.93,76Z"/>
      <path class="cls-59" d="M79.59,83.34c0,.79-2,1.43-4.36,1.43s-4.37-.64-4.37-1.43,2-1.43,4.37-1.43,4.36.64,4.36,1.43"/>
      <path class="cls-60" d="M71,68.79a6.85,6.85,0,0,1,8.4.36S75.07,72.69,71,68.79Z"/>
      <polygon class="cls-51" points="78.45 65.85 79.72 69.06 79.81 69.3 79.53 69.44 75.44 71.5 75.17 71.64 74.9 71.5 70.64 69.41 70.36 69.27 70.47 69.03 71.81 66.12 71.03 69.23 70.86 68.85 75.44 70.11 74.9 70.11 79.29 68.85 79.1 69.23 78.45 65.85"/>
      <path class="cls-56" d="M82.83,46.56c-1,1.9-.5,3-.5,3a24.74,24.74,0,0,1,4,1.12l.33.12.23.09a18.39,18.39,0,0,1,2.76,1.41l.46.31.44.32A7.78,7.78,0,0,1,92,54.2a9,9,0,0,0-.49-2.09c-.08-.2-.16-.4-.25-.59A5.28,5.28,0,0,0,91,51a7.56,7.56,0,0,0-1.92-2.24l-.32-.25-.33-.23A11.68,11.68,0,0,0,82.83,46.56Z"/>
      <path class="cls-46" d="M91.26,51.52a7,7,0,0,0-1.1,1.07l.44.32a5.86,5.86,0,0,1,.91-.8C91.43,51.91,91.35,51.71,91.26,51.52Z"/>
      <path class="cls-46" d="M89.07,48.75a6.25,6.25,0,0,0-2.13,2.12,18.39,18.39,0,0,1,2.76,1.41A7.83,7.83,0,0,1,91,51,7.56,7.56,0,0,0,89.07,48.75Z"/>
      <path class="cls-46" d="M86.38,50.66l.33.12a8.11,8.11,0,0,1,2-2.28l-.33-.23A7.88,7.88,0,0,0,86.38,50.66Z"/>
      <path class="cls-56" d="M66.27,46.71c1,2,.34,3.08.34,3.08a25.79,25.79,0,0,0-4.18.91l-.35.11-.23.08A18.56,18.56,0,0,0,59,52.18l-.49.29-.46.3A7.92,7.92,0,0,0,56.5,54a10,10,0,0,1,.61-2.1c.09-.2.18-.4.28-.59s.2-.36.31-.52a7.54,7.54,0,0,1,2.08-2.19l.35-.23c.11-.08.23-.15.35-.22A12,12,0,0,1,66.27,46.71Z"/>
      <path class="cls-46" d="M57.39,51.32a6.77,6.77,0,0,1,1.07,1.15l-.46.3a5.46,5.46,0,0,0-.89-.86C57.2,51.71,57.29,51.51,57.39,51.32Z"/>
      <path class="cls-46" d="M59.78,48.61a6.48,6.48,0,0,1,2.07,2.28A18.56,18.56,0,0,0,59,52.18,7.82,7.82,0,0,0,57.7,50.8,7.54,7.54,0,0,1,59.78,48.61Z"/>
      <path class="cls-46" d="M62.43,50.7l-.35.11a8.11,8.11,0,0,0-1.95-2.43c.11-.08.23-.15.35-.22A8.51,8.51,0,0,1,62.43,50.7Z"/>
      <path class="cls-46" d="M82.72,34.76s-5.22-5.8-16.38-2S48.07,55.78,48.07,55.78,56.33,10.84,78.66,28c0,0-4.21-10.44-17.11-4.79S47.93,49,47.93,49,46.07,19.75,65.61,19.25C82.72,18.81,82.72,34.76,82.72,34.76Z"/>
      <path class="cls-46" d="M88.51,39s11.21,3.19,13.15,18c0,0,3.57-12.37-6.09-19,0,0,5,1.93,7,5.7,0,0,.19-21-20.68-19.23,0,0,12,3.29,15.94,11.21a15.62,15.62,0,0,0-10.73-4.83s4.74,2,7.16,5.22l-4.55-1.55s5.51,4,7.06,7.35A12.66,12.66,0,0,0,88.51,39Z"/>
      <path class="cls-46" d="M80.4,21.86S88.08,18.81,94.17,24C94.17,24,87.06,12.15,80.4,21.86Z"/>
      <path class="cls-14" d="M27.51,121.41a2.94,2.94,0,0,1-1.3-1.26h0c-1-1.59-1.39-4.23-.07-6a3.83,3.83,0,0,1,1.18-1l.24.54s5.83,1.57,9.13-1.59l-.47-1.19s4-.4,4.82,6.07-11.54,5.21-13.52,4.42"/>
      <path class="cls-16" d="M36.35,110.91h-.14l.47,1.19h0a8.29,8.29,0,0,1-5.82,2,14.13,14.13,0,0,1-3.31-.39l-.24-.54a3.83,3.83,0,0,0-1.18,1,12.24,12.24,0,0,0,5,.77c.68,0,1.43,0,2.27-.08l.7,0c2.83,0,2.93,1.34,1.42,2.67a13.12,13.12,0,0,1-8.22,2.67c-.35,0-.71,0-1.07,0a2.94,2.94,0,0,0,1.3,1.26,18.28,18.28,0,0,0,5.33.65c3.84,0,8.24-.91,8.24-4.46a4.42,4.42,0,0,0,0-.61c-.76-5.76-4-6.08-4.68-6.08"/>
      <path class="cls-14" d="M71.3,160.31a3.77,3.77,0,0,1-1.8,1.49h0c-2.2,1-5.69,1.22-7.78-.69a4.92,4.92,0,0,1-1.17-1.64l.73-.24s2.79-7.22-.9-11.84l-1.6.43s0-5.1,8.51-5.34,5.29,15.41,4,17.83"/>
      <path class="cls-16" d="M67.49,142.47h-.2c-.22,0-.44,0-.65,0-3.72.22-5.68,1.42-6.71,2.63a4.47,4.47,0,0,0-1.15,2.68h0l1.6-.43a9.69,9.69,0,0,1,1.91,6.14,17.64,17.64,0,0,1-1,5.7l-.73.24a4.92,4.92,0,0,0,1.17,1.64c.81-1.34,1.66-4,1.84-9.15.09-2.67.79-3.8,1.7-3.8,2.18,0,5.52,6.5,4.24,13.64a3.77,3.77,0,0,0,1.8-1.49A26.22,26.22,0,0,0,73,150.88a17.09,17.09,0,0,0-.33-3.49c0-.06,0-.12,0-.17a7.77,7.77,0,0,0-1.2-2.84c-.08-.1-.16-.21-.25-.31a4.54,4.54,0,0,0-1.29-1,5,5,0,0,0-2.38-.55"/>
      <g>
        <path class="cls-45" d="M108.89,49C108.89,67.32,94.4,79,76.35,79s-32.7-14.89-32.7-33.26,9.46-33.95,33.26-33.95C101.86,11.79,108.89,30.59,108.89,49Z"/>
        <g>
          <path class="cls-61" d="M51.32,63.6c-1.3-1.75-3-3.44-5-3.11s-3,2.2-2.59,5.44,1.1,4.92,3.56,6.87,3.76,2.91,6.35,1.16C54.1,70.4,52,64.76,51.32,63.6Z"/>
          <path class="cls-62" d="M52.05,72.63a7.69,7.69,0,0,1-.84-.49A3.24,3.24,0,0,1,50,70.7a3,3,0,0,1-.18-1.85,3.11,3.11,0,0,1,.38-1,1.74,1.74,0,0,1,.11-.18l-.06-.11c-.11-.22-.23-.44-.36-.65a11.93,11.93,0,0,0-1.26-1.75,4,4,0,0,0-1.72-1.34,1.35,1.35,0,0,0-1.11.13.93.93,0,0,0-.51.91.9.9,0,0,1,.59-.77,1.21,1.21,0,0,1,1,0,4.35,4.35,0,0,1,1.55,1.33c.46.53.89,1.08,1.3,1.66.15.22.3.44.44.67a2.89,2.89,0,0,0-.55,1,3.11,3.11,0,0,0,.11,2,3.22,3.22,0,0,0,1.36,1.53,5.89,5.89,0,0,0,.92.42,1.47,1.47,0,0,0,1,.09A1.53,1.53,0,0,1,52.05,72.63Zm-5.68-3.32a4,4,0,0,1-.38-2,17.36,17.36,0,0,1,.31-2.13,8.31,8.31,0,0,0-.56,2.11,3.91,3.91,0,0,0,.32,2.2,4.3,4.3,0,0,0,1.54,1.6,10.51,10.51,0,0,0,2,.93,18.84,18.84,0,0,1-1.83-1.15A4.32,4.32,0,0,1,46.37,69.31Z"/>
        </g>
        <g>
          <path class="cls-61" d="M100.92,63.7c1.31-1.77,3-3.48,5.06-3.15s3,2.23,2.63,5.52-1.12,5-3.62,7-3.81,3-6.44,1.18C98.09,70.61,100.26,64.89,100.92,63.7Z"/>
          <path class="cls-62" d="M99.23,73.12a1.6,1.6,0,0,0,1-.1,6.52,6.52,0,0,0,.93-.43A3.26,3.26,0,0,0,102.55,71a3.13,3.13,0,0,0,.11-2.07,2.86,2.86,0,0,0-.55-1c.14-.23.29-.46.44-.68a19.65,19.65,0,0,1,1.32-1.69,4.38,4.38,0,0,1,1.57-1.35,1.26,1.26,0,0,1,1,0,1,1,0,0,1,.6.79,1,1,0,0,0-.52-.93,1.4,1.4,0,0,0-1.13-.13,4.08,4.08,0,0,0-1.75,1.36,13.15,13.15,0,0,0-1.28,1.78c-.12.21-.25.43-.36.65l-.06.12a1.08,1.08,0,0,1,.11.18,3.25,3.25,0,0,1,.39,1,3.15,3.15,0,0,1-.18,1.87,3.29,3.29,0,0,1-1.2,1.46,8.92,8.92,0,0,1-.85.49A1.61,1.61,0,0,1,99.23,73.12Zm5.31-2.05a21.61,21.61,0,0,1-1.86,1.16,10.25,10.25,0,0,0,2-1,4.34,4.34,0,0,0,1.56-1.62,3.92,3.92,0,0,0,.33-2.23,8.57,8.57,0,0,0-.58-2.14,14.63,14.63,0,0,1,.32,2.16,4.09,4.09,0,0,1-.38,2A4.47,4.47,0,0,1,104.54,71.07Z"/>
        </g>
        <g>
          <path class="cls-61" d="M102.42,53.94c0,.23,2.33.47,2.3.71a151.78,151.78,0,0,1-3.43,19.24A15,15,0,0,1,99.51,78a17,17,0,0,1-4.89,5,57.94,57.94,0,0,1-8.71,4.72,44.32,44.32,0,0,1-4.42,1.7,16.72,16.72,0,0,1-4.81.93,18.77,18.77,0,0,1-5.42-1,70.58,70.58,0,0,1-11-4.84c-3.51-1.83-7.77-5.75-8.77-9.93A194.55,194.55,0,0,1,47.72,55c-.35-2.64,1.91-3.67,4.08-11.49,2.9-10.5,6.9-14.66,23.44-14.66C104.12,28.89,103.34,45.84,102.42,53.94Z"/>
          <path class="cls-63" d="M49.48,65.52S52.21,47.81,58.09,43s6.72-7.88,6.72-7.88A18.21,18.21,0,0,0,76.5,47.94l-.44-5.39a13.19,13.19,0,0,0,6,5.39l-1-6.79a104.69,104.69,0,0,1,15.11,7.31c7.32,4.39,7,18.87,7,18.87l-2.94-30-25-10.39-15.93-.62L48.52,41.15,50.2,52.73Z"/>
        </g>
        <g>
          <ellipse class="cls-64" cx="88.5" cy="59.85" rx="5.27" ry="5.58"/>
          <ellipse class="cls-65" cx="88.57" cy="59.79" rx="3.53" ry="3.74"/>
          <ellipse class="cls-3" cx="90.22" cy="56.78" rx="0.97" ry="1.02"/>
        </g>
        <g>
          <ellipse class="cls-64" cx="63.36" cy="60.86" rx="5.27" ry="5.58"/>
          <ellipse class="cls-65" cx="63.49" cy="60.86" rx="3.48" ry="3.68"/>
          <ellipse class="cls-3" cx="65.09" cy="57.79" rx="0.97" ry="1.02"/>
        </g>
        <path class="cls-66" d="M72.46,68.37a18.9,18.9,0,0,0,1.79.76,7.77,7.77,0,0,0,1.49.38A6.27,6.27,0,0,0,79,69,2.68,2.68,0,0,1,77.84,71a3.49,3.49,0,0,1-5.38-2.58Z"/>
        <g>
          <path class="cls-63" d="M66.73,73.37c-.4-.16-.88-.81-1.24-1a2.81,2.81,0,0,0-1.22-.41c-.56-.06-1.24.15-1.36.66a1.12,1.12,0,0,0,.59,1,3.53,3.53,0,0,0,2.16.67,1.08,1.08,0,0,0,.89-.34c.18-.26,0-.71-.36-.66Z"/>
          <path class="cls-63" d="M84.81,74.5c.26-.29.68-1.09,1-1.3a1.74,1.74,0,0,1,.72-.29,1.24,1.24,0,0,1,1.23.79,1.45,1.45,0,0,1-.32,1.4,2.84,2.84,0,0,1-1.31.8,2.09,2.09,0,0,1-1,.09.78.78,0,0,1-.28-1.49,3.18,3.18,0,0,1,1-.33Z"/>
          <g>
            <path class="cls-67" d="M86.56,74.07a10.52,10.52,0,0,1-.45,1c-1,2-3.37,5.71-6.38,7.08a8.4,8.4,0,0,1-7-.12c-2.88-1.35-4.18-3-5.83-5.67-.54-.88-1.11-1.88-1.79-3,0,0-.16-.22.11-.23a1.83,1.83,0,0,1,.45.08c1.61.45,5.71,2.73,12.07,2.42a22,22,0,0,0,8.52-1.79.21.21,0,0,1,.29.1A.17.17,0,0,1,86.56,74.07Z"/>
            <path class="cls-68" d="M86.11,75.1c-1,2-3.37,5.71-6.38,7.08a8.4,8.4,0,0,1-7-.12c-2.88-1.35-4.18-3-5.83-5.67,1.92,2.12,5.16,4.9,9.09,5.17C81.38,81.92,85.05,76.78,86.11,75.1Z"/>
            <path class="cls-69" d="M86.55,74a20.66,20.66,0,0,1-11.06,2.57,17.86,17.86,0,0,1-10.27-3.38,1.83,1.83,0,0,1,.45.08c1.61.45,5.71,2.73,12.07,2.42a22,22,0,0,0,8.52-1.79A.21.21,0,0,1,86.55,74Z"/>
            <path class="cls-70" d="M67.61,74.38c.12.05,6.94,4.16,16.33.77,0,0-1.35,3.09-7,3.39A10.47,10.47,0,0,1,67.61,74.38Z"/>
            <path class="cls-71" d="M76,81.48a7.19,7.19,0,0,1-3.65-1c1.18-1.16,2.7-.31,4-.68,2.68-.78,3.6.19,4,.72A6.91,6.91,0,0,1,76,81.48Z"/>
          </g>
        </g>
        <path class="cls-65" d="M65.15,49.56s-5.26-.9-7.78,2.6a.18.18,0,0,1-.32-.09c.08-1.07.65-3.25,3.92-3.89C66.12,47.18,65.15,49.56,65.15,49.56Z"/>
        <path class="cls-65" d="M85.24,47.41S90.5,46.51,93,50a.18.18,0,0,0,.32-.09c-.08-1.06-.65-3.25-3.92-3.88C84.27,45,85.24,47.41,85.24,47.41Z"/>
        <path class="cls-45" d="M101.77,38.34c-2.48-13.12-6.85-11.11-18.54-13.57-5.33-1.12-5.35-5-10.77-4.46-3.08.31-11.35-1.18-18.56,11.16C49.36,39.24,41.92,46,45,55.28c2.85,8.82,4.47,10.24,4.47,10.24l.23-1.29c.07-1,.16-2,.2-3C50.64,42.59,59,42.34,65.53,31.2a32.71,32.71,0,0,0,5.88,4c3.77,2.21,7.66,4.11,11.6,5.94S91,44.6,94.83,46.58c10,5.08,7.88,18.94,7.88,18.94-.06-.34,1.2-1.93,1.36-2.21a33.75,33.75,0,0,0,2.55-5C109.57,51.21,103.25,46.16,101.77,38.34Z"/>
        <path class="cls-45" d="M75.24,34.61a17.08,17.08,0,0,0,0,11,23.76,23.76,0,0,1-10-16.51"/>
        <path class="cls-45" d="M72.46,33.45s.16,4,8.64,12.47c0,0-3.14-5.59-1.36-11.31"/>
        <path class="cls-72" d="M47.17,61.53A38.8,38.8,0,0,1,44.57,54a44.73,44.73,0,0,1-1.24-8.09,7.1,7.1,0,0,1,.07-2.06c.17-.68.32-1.35.46-2,.27-1.35.61-2.7,1-4A34.36,34.36,0,0,1,48.3,30a29.61,29.61,0,0,1,5.49-6.7,33.17,33.17,0,0,1,7.07-4.83,34.11,34.11,0,0,1,16.51-3.61A36.07,36.07,0,0,1,93.6,19.25a30.08,30.08,0,0,1,6.92,5.21A25.19,25.19,0,0,1,103.34,28l.59,1c.19.33.34.63.51.94.33.62.63,1.26.92,1.9A41,41,0,0,1,108,39.77c.3,1.35.55,2.71.73,4.08.08.68.2,1.36.31,2a7.92,7.92,0,0,1-.1,2.06,44.92,44.92,0,0,1-1.76,8,38,38,0,0,1-3.1,7.37,60.62,60.62,0,0,0-1.81-15,8.41,8.41,0,0,1-.37-1.75,13,13,0,0,0-.11-1.77c-.15-1.16-.37-2.32-.62-3.46A33.86,33.86,0,0,0,99,34.72c-.24-.52-.48-1-.75-1.55-.14-.25-.27-.52-.4-.75l-.39-.64a17,17,0,0,0-2-2.45,22.77,22.77,0,0,0-5.28-3.95,29.15,29.15,0,0,0-13.06-3.55A27.1,27.1,0,0,0,64,24.69a26.51,26.51,0,0,0-5.55,3.78,23,23,0,0,0-4.18,5.11,27.56,27.56,0,0,0-2.73,6.22c-.33,1.1-.62,2.23-.85,3.38a12.54,12.54,0,0,0-.22,1.74,6.67,6.67,0,0,1-.44,1.73A68,68,0,0,0,47.17,61.53Z"/>
        <path class="cls-73" d="M50.38,72.74s2.15,4.47-.49,5.23-1.82-4.24-1.82-4.24.69,4.22,1.5,1.61Z"/>
        <path class="cls-73" d="M102.32,73s-2.15,4.47.49,5.23S104.63,74,104.63,74s-.68,4.21-1.5,1.6Z"/>
      </g>
    </g>
  </g>
</svg>
