<svg id="Layer_1" data-name="Layer 1" xmlns="http://www.w3.org/2000/svg" width="148" height="335.98" viewBox="0 0 148 335.98">
  <defs>
    <style>
      .cls-1 {
        fill: #1d005b;
      }

      .cls-2 {
        fill: #f9ff00;
      }
    </style>
  </defs>
  <path class="cls-1" d="M76.26,325.59V79.38q-9,10.4-17.16,18.74T41.49,116L11.69,75.33Q25.24,63.6,37.88,51.88,48.71,42,60,30.69a274.15,274.15,0,0,0,18.62-20.3h57.7v315.2Z"/>
  <g>
    <path class="cls-2" d="M76.26,333.59a8,8,0,0,1-8-8V100.13q-1.74,1.84-3.43,3.57c-5.34,5.5-11.13,11.36-17.68,17.92A8,8,0,0,1,41.49,124l-.61,0A8,8,0,0,1,35,120.69L5.23,80.06A8,8,0,0,1,6.45,69.28c9-7.75,17.69-15.58,26-23.26,7.14-6.55,14.5-13.6,21.91-21S67.72,11.12,72.42,5.35a8,8,0,0,1,6.2-3h57.7a8,8,0,0,1,8,8v315.2a8,8,0,0,1-8,8Z"/>
    <path class="cls-1" d="M76.26,325.59V79.38q-9,10.4-17.16,18.74T41.49,116L11.69,75.33Q25.24,63.6,37.88,51.88,48.71,42,60,30.69a274.15,274.15,0,0,0,18.62-20.3h57.7v315.2Z"/>
  </g>
</svg>
