<svg id="Layer_1" data-name="Layer 1" xmlns="http://www.w3.org/2000/svg" width="152" height="200.3" viewBox="0 0 152 200.3">
  <defs>
    <style>
      .cls-1 {
        opacity: 0.5;
      }

      .cls-2 {
        fill: #fff;
      }

      .cls-3 {
        fill: #338000;
      }

      .cls-4 {
        fill: #c87137;
      }

      .cls-5 {
        fill: #a05a2c;
      }

      .cls-6 {
        fill: #d38d5f;
      }

      .cls-7 {
        fill: #502d16;
      }

      .cls-8 {
        fill: none;
        stroke: #502d16;
        stroke-linecap: round;
        stroke-linejoin: round;
        stroke-width: 0.64px;
      }
    </style>
  </defs>
  <g>
    <path class="cls-1" d="M147.46,159.34a23.28,23.28,0,0,0-5.31-8l-.57-.61c-1.31-1.41-2.81-3-3.8-4.29a19,19,0,0,1-2.25-3.91,50.57,50.57,0,0,1-2.34-6.31c-.83-2.7-1.7-6.11-2.53-9.4-.7-2.77-1.14-4.56-1.48-6.45-.18-1-.34-2.11-.52-3.32-.21-1.42-.44-2.94-.69-4.41-.23-1.27-.48-2.57-.73-3.88-.31-1.55-.59-3-.82-4.41-.29-1.81-.49-3.63-.69-5.39-.08-.69-.15-1.37-.23-2-.35-2.86-.73-5.3-1.16-7.47-.22-1.06-.45-2.07-.71-3.09a8.54,8.54,0,0,0,2.27.3A8.75,8.75,0,0,0,132,84.2a11.86,11.86,0,0,0,3.55-9.26v-.15c-.07-.65-.14-1.27-.21-1.88H137a7.93,7.93,0,0,0,5.25-2,12.22,12.22,0,0,0,3.51-3.47c.2-.3,4.68-7.39-3.42-12.95a8.52,8.52,0,0,0-.61-1.09,8.14,8.14,0,0,0-.91-3.5,8.88,8.88,0,0,0-.08-2,8.84,8.84,0,0,0,.13-5.28,8.67,8.67,0,0,0,0-7.42,8.46,8.46,0,0,0-1.22-6.79c.79-2.58,1.38-8.14-6.34-11.91l-.5-.24A11,11,0,0,0,127.5,15a47.09,47.09,0,0,0-8.11,1.07c-1.11.21-2.27.43-3.46.62a22.47,22.47,0,0,0-4,1.07c-.59-.53-.79-2.83-1.53-3.76a10.5,10.5,0,0,0-4.14-2.52,16.56,16.56,0,0,0-4.56-.2A9.42,9.42,0,0,0,96.14,14l-1.72,1.6C93.11,16.86,92,18,91,19c-.53.55-1,1.1-1.5,1.64s-1,1.19-1.44,1.74a26.9,26.9,0,0,0-2.13,3.24,22.05,22.05,0,0,0-1.52,3.32,24,24,0,0,0-.83,2.82c0,.16-.07.31-.1.46l-.22,0c-1.07-.08-2.13-.18-3.13-.27-2.06-.18-4-.36-5.71-.36a12,12,0,0,0-6.82,1.72l-.44.27c-5.49,3.35-6,7.41-5.55,10.17A8.52,8.52,0,0,0,60,49.6,8.65,8.65,0,0,0,58,56a8.62,8.62,0,0,0-2.1,6.27,9,9,0,0,0-2.16,4.34,8.93,8.93,0,0,0-3,5.09c-3.38,2.19-4.54,4.79-4.77,7a9.53,9.53,0,0,0-3.09,4.13h0c-4,2.07-5.62,4.68-6.09,7a10.62,10.62,0,0,0-3.39,3.41,8.1,8.1,0,0,0-.78.39l-.38.19c-4.47,2.28-5.87,5.27-6.11,7.77a9.5,9.5,0,0,0-1.76,1.18l-.33.28c-7.74,6.3-3,12.76-2.48,13.47a12.3,12.3,0,0,0,9.1,4.69h1.93c-.07.57-.15,1.14-.21,1.74l0,.15a12.31,12.31,0,0,0,3.55,9.64,8.85,8.85,0,0,0,6.28,2.62h0a10.52,10.52,0,0,0,7.39-3.44c.1-.1.2-.2.31-.29a9.19,9.19,0,0,0,.86-.91,8.13,8.13,0,0,0,1.47.14A9.57,9.57,0,0,0,60,126.49c-.25.69-.53,1.52-.81,2.37s-.69,2.1-.92,2.66c-.41,1.06-1.07,2.35-1.65,3.47a29.7,29.7,0,0,1-2,3.43A45.22,45.22,0,0,1,50.93,143a34.21,34.21,0,0,1-3.42,2.89c-1.39,1-2.66,2-3.71,2.67a42.08,42.08,0,0,1-4.41,2.64c-1,.5-2.27,1-3.35,1.42l-1.43.58-.82.36a10.93,10.93,0,0,1-2.57.9c-.62.11-1.51.23-2.46.35A47.73,47.73,0,0,0,22.21,156c-3.14.85-7.74,2.92-10.37,6a14.44,14.44,0,0,0-3.4,6.82,28.58,28.58,0,0,0-.76,9.35c0,.24.06.48.1.72a8.1,8.1,0,0,0,.13.86,16.21,16.21,0,0,0,4.83,8.89c.18.17.37.34.56.49,2.63,2.12,5.89,3.41,10.56,4.2a93.07,93.07,0,0,0,11.43.75l1.78,0a19.09,19.09,0,0,0,4.25-.31,8.11,8.11,0,0,0,3.39-1.51,46.09,46.09,0,0,0,4.56-3.88c.27-.26.54-.54.82-.83a17.08,17.08,0,0,1,1.36-1.29c.51-.06,1.48-.12,3.28-.17l1.33,0c1.84,0,3.74-.07,5.28-.2.79-.06,1.43-.14,2-.23l.27-.06a25.41,25.41,0,0,0,7.58-2.88,23.71,23.71,0,0,0,5-3.42,29.42,29.42,0,0,0,4.75-5.72c1-1.53,1.88-3.36,2.69-5l.4-.81c.17-.34.33-.68.48-1l.84-.32a33.79,33.79,0,0,0,4-1.68c.63-.33,1.28-.71,2-1.16.31-.21.62-.41.92-.63a24.35,24.35,0,0,0,3.15-2.66,17.91,17.91,0,0,0,3.29,4.11,37.53,37.53,0,0,0,3.58,2.84c.55.4,1.37,1,1.9,1.42.17.6.36,1.54.48,2.16s.23,1.18.36,1.69a20.48,20.48,0,0,0,3.9,8.52,18.55,18.55,0,0,0,7.29,5.43,23.14,23.14,0,0,0,8.8,1.71h.66a47.75,47.75,0,0,0,6.51-.5c.35-.06.69-.13,1-.22.89-.15,1.73-.33,2.49-.53a20.47,20.47,0,0,0,9.52-5.62,16.8,16.8,0,0,0,4.23-10.67A33.9,33.9,0,0,0,147.46,159.34Z"/>
    <path class="cls-2" d="M142.46,154.34a23.28,23.28,0,0,0-5.31-8l-.57-.61c-1.31-1.41-2.81-3-3.8-4.29a19,19,0,0,1-2.25-3.91,50.57,50.57,0,0,1-2.34-6.31c-.83-2.7-1.7-6.11-2.53-9.4-.7-2.77-1.14-4.56-1.48-6.45-.18-1-.34-2.11-.52-3.32-.21-1.42-.44-2.94-.69-4.41-.23-1.27-.48-2.57-.73-3.88-.31-1.55-.59-3-.82-4.41-.29-1.81-.49-3.63-.69-5.39-.08-.69-.15-1.37-.23-2-.35-2.86-.73-5.3-1.16-7.47-.22-1.06-.45-2.07-.71-3.09a8.54,8.54,0,0,0,2.27.3A8.75,8.75,0,0,0,127,79.2a11.86,11.86,0,0,0,3.55-9.26v-.15c-.07-.65-.14-1.27-.21-1.88H132a7.93,7.93,0,0,0,5.25-2,12.22,12.22,0,0,0,3.51-3.47c.2-.3,4.68-7.39-3.42-12.95a8.52,8.52,0,0,0-.61-1.09,8.14,8.14,0,0,0-.91-3.5,8.88,8.88,0,0,0-.08-2,8.84,8.84,0,0,0,.13-5.28,8.67,8.67,0,0,0,0-7.42,8.46,8.46,0,0,0-1.22-6.79c.79-2.58,1.38-8.14-6.34-11.91l-.5-.24A11,11,0,0,0,122.5,10a47.09,47.09,0,0,0-8.11,1.07c-1.11.21-2.27.43-3.46.62a22.47,22.47,0,0,0-4,1.07c-.59-.53-.79-2.83-1.53-3.76a10.5,10.5,0,0,0-4.14-2.52,16.56,16.56,0,0,0-4.56-.2A9.42,9.42,0,0,0,91.14,9l-1.72,1.6C88.11,11.86,87,13,86,14c-.53.55-1,1.1-1.5,1.64s-1,1.19-1.44,1.74a26.9,26.9,0,0,0-2.13,3.24,22.05,22.05,0,0,0-1.52,3.32,24,24,0,0,0-.83,2.82c0,.16-.07.31-.1.46l-.22,0c-1.07-.08-2.13-.18-3.13-.27-2.06-.18-4-.36-5.71-.36a12,12,0,0,0-6.82,1.72l-.44.27c-5.49,3.35-6,7.41-5.55,10.17A8.52,8.52,0,0,0,55,44.6,8.65,8.65,0,0,0,53,51a8.62,8.62,0,0,0-2.1,6.27,9,9,0,0,0-2.16,4.34,8.93,8.93,0,0,0-3,5.09c-3.38,2.19-4.54,4.79-4.77,7a9.53,9.53,0,0,0-3.09,4.13h0c-4,2.07-5.62,4.68-6.09,7a10.62,10.62,0,0,0-3.39,3.41,8.1,8.1,0,0,0-.78.39l-.38.19c-4.47,2.28-5.87,5.27-6.11,7.77a9.5,9.5,0,0,0-1.76,1.18l-.33.28c-7.74,6.3-3,12.76-2.48,13.47a12.3,12.3,0,0,0,9.1,4.69h1.93c-.07.57-.15,1.14-.21,1.74l0,.15a12.31,12.31,0,0,0,3.55,9.64,8.85,8.85,0,0,0,6.28,2.62h0a10.52,10.52,0,0,0,7.39-3.44c.1-.1.2-.2.31-.29a9.19,9.19,0,0,0,.86-.91,8.13,8.13,0,0,0,1.47.14A9.57,9.57,0,0,0,55,121.49c-.25.69-.53,1.52-.81,2.37s-.69,2.1-.92,2.66c-.41,1.06-1.07,2.35-1.65,3.47a29.7,29.7,0,0,1-2,3.43A45.22,45.22,0,0,1,45.93,138a34.21,34.21,0,0,1-3.42,2.89c-1.39,1-2.66,2-3.71,2.67a42.08,42.08,0,0,1-4.41,2.64c-1,.5-2.27,1-3.35,1.42l-1.43.58-.82.36a10.93,10.93,0,0,1-2.57.9c-.62.11-1.51.23-2.46.35A47.73,47.73,0,0,0,17.21,151c-3.14.85-7.74,2.92-10.37,6a14.44,14.44,0,0,0-3.4,6.82,28.58,28.58,0,0,0-.76,9.35c0,.24.06.48.1.72a8.1,8.1,0,0,0,.13.86,16.21,16.21,0,0,0,4.83,8.89c.18.17.37.34.56.49,2.63,2.12,5.89,3.41,10.56,4.2a93.07,93.07,0,0,0,11.43.75l1.78,0a19.09,19.09,0,0,0,4.25-.31,8.11,8.11,0,0,0,3.39-1.51,46.09,46.09,0,0,0,4.56-3.88c.27-.26.54-.54.82-.83a17.08,17.08,0,0,1,1.36-1.29c.51-.06,1.48-.12,3.28-.17l1.33,0c1.84,0,3.74-.07,5.28-.2.79-.06,1.43-.14,2-.23l.27-.06a25.41,25.41,0,0,0,7.58-2.88,23.71,23.71,0,0,0,5-3.42,29.42,29.42,0,0,0,4.75-5.72c1-1.53,1.88-3.36,2.69-5l.4-.81c.17-.34.33-.68.48-1l.84-.32a33.79,33.79,0,0,0,4-1.68c.63-.33,1.28-.71,2-1.16.31-.21.62-.41.92-.63a24.35,24.35,0,0,0,3.15-2.66,17.91,17.91,0,0,0,3.29,4.11,37.53,37.53,0,0,0,3.58,2.84c.55.4,1.37,1,1.9,1.42.17.6.36,1.54.48,2.16s.23,1.18.36,1.69a20.48,20.48,0,0,0,3.9,8.52,18.55,18.55,0,0,0,7.29,5.43,23.14,23.14,0,0,0,8.8,1.71h.66a47.75,47.75,0,0,0,6.51-.5c.35-.06.69-.13,1-.22.89-.15,1.73-.33,2.49-.53a20.47,20.47,0,0,0,9.52-5.62,16.8,16.8,0,0,0,4.23-10.67A33.9,33.9,0,0,0,142.46,154.34Z"/>
    <g>
      <path class="cls-3" d="M118,57.73a7.94,7.94,0,0,0-1.09,6.08c.67,3.88,1,7.5,1.92,8.36s1.86,2.07,2.65,1.29a4.08,4.08,0,0,0,1.18-2.64c-.06-.55-.56-6.53-1.87-9.44A18.83,18.83,0,0,0,118,57.72Zm0,0"/>
      <path class="cls-3" d="M114,54.93a8,8,0,0,0-2.61,5.6c-.34,3.92-1,7.51-.28,8.57s1.26,2.48,2.23,1.93a4.1,4.1,0,0,0,1.82-2.26c.08-.54,1.13-6.44.61-9.6A19.13,19.13,0,0,0,114,54.92Zm0,0"/>
      <path class="cls-3" d="M111.2,50.78a8,8,0,0,0-3.76,4.91c-1.19,3.75-2.57,7.12-2.14,8.3s.7,2.69,1.76,2.37a4.16,4.16,0,0,0,2.27-1.81c.19-.51,2.49-6,2.67-9.24a19.2,19.2,0,0,0-.8-4.53Zm0,0"/>
      <path class="cls-3" d="M109.44,46.39a8,8,0,0,0-5,3.61c-2.22,3.25-4.51,6.08-4.44,7.34s-.11,2.78,1,2.77A4,4,0,0,0,103.68,59c.34-.43,4.14-5.07,5.23-8.08a19.17,19.17,0,0,0,.54-4.56Zm0,0"/>
      <path class="cls-4" d="M83.39,69.07c1.22-2.44,3.74-5.29,6.15-5.8a19.79,19.79,0,0,1,9.44.81,14.49,14.49,0,0,1,6.56,5.85,50.72,50.72,0,0,1,4.1,9.39,52.16,52.16,0,0,1,1.86,6.77c.42,2.09.76,4.42,1,6.83s.54,5,1,7.75,1.07,5.63,1.55,8.39.84,5.65,1.22,7.77.87,4.1,1.6,7,1.71,6.74,2.64,9.78a58.1,58.1,0,0,0,2.7,7.26,26.61,26.61,0,0,0,3.2,5.49c1.39,1.81,3.32,3.83,4.86,5.48a15.76,15.76,0,0,1,3.67,5.31,25.7,25.7,0,0,1,1.47,8.16,8.79,8.79,0,0,1-2.1,5.52,12.63,12.63,0,0,1-5.7,3.33,33.32,33.32,0,0,1-8.24.82,15.44,15.44,0,0,1-5.86-1.08,10.26,10.26,0,0,1-4.18-3.1,12.82,12.82,0,0,1-2.35-5.31c-.5-2.15-.88-5.53-2.35-7.11s-4.69-3.51-6.28-5a10.29,10.29,0,0,1-3-5.32A23.92,23.92,0,0,1,96,141c.22-2.23,1.35-6,.47-6.68s-2.76-1.58-4.24-2.73a11.8,11.8,0,0,1-3.31-4,14.8,14.8,0,0,1-1.54-4.83,13.62,13.62,0,0,1,.08-5c.36-1.12,1-2.25,1.75-4a14.38,14.38,0,0,0,1.51-5.66c-.1-1.63-1.86-3.53-3.36-4.91a48,48,0,0,1-4.58-4.29,15.6,15.6,0,0,1-2.78-5,8.67,8.67,0,0,1-.12-5.7c.68-2,2.4-5,2.63-6.67s-.85-3.27-.89-5.21a17.13,17.13,0,0,1,1.82-7.23Zm0,0"/>
      <path class="cls-3" d="M107.93,40.46a9.1,9.1,0,0,0-6.43,2.89c-3.21,3.12-6.41,5.75-6.62,7.17s-.76,3.08.48,3.33a4.66,4.66,0,0,0,3.25-.6c.47-.4,5.78-4.71,7.68-7.82a21.34,21.34,0,0,0,1.64-5Zm0,0"/>
      <path class="cls-5" d="M100.77,64.82a33.6,33.6,0,0,1,.08,7.28A10.21,10.21,0,0,1,99.64,76c-.5.89-1.27,1.89-1.87,2.77-1.15,1.67-2.15,3.35-2.9,4.66s-1.21,2.27-1.62,3.14a4.21,4.21,0,0,1,.24.73c-.07,0-.15,0-.57-.11.07-.15.24-.45.33-.62s-.06-.32-.11-.33-.38.32-.49,1.09a.66.66,0,0,0,.35.45,1,1,0,0,0,.82,0c.69-.81,1.51-1.86,2.62-3.28.85-1.1,2.15-2.8,3.32-4.21A34.6,34.6,0,0,0,102,77.46a12.66,12.66,0,0,0,1.86-4.93,31.31,31.31,0,0,0,.12-4.77,14.93,14.93,0,0,0-3.19-2.94Zm0,0"/>
      <path class="cls-5" d="M95.68,63.48a19.7,19.7,0,0,0-6.36,0c-2.41.51-4.93,3.35-6.15,5.8a17,17,0,0,0-1.82,7.23c0,1.93,1.11,3.49.89,5.21s-1.95,4.69-2.63,6.66A8.7,8.7,0,0,0,79.73,94a15.6,15.6,0,0,0,2.78,5,50.51,50.51,0,0,0,4.57,4.29c1.51,1.37,3.27,3.27,3.37,4.9a14.6,14.6,0,0,1-1.51,5.67c-.78,1.79-1.4,2.92-1.74,4a13.12,13.12,0,0,0-.09,5,15,15,0,0,0,1.53,4.84,12,12,0,0,0,3.32,4c1.48,1.14,3.36,2.09,4.24,2.73s-.25,4.45-.47,6.68a23.92,23.92,0,0,0,.4,7.05,10.29,10.29,0,0,0,3,5.32c1.59,1.49,4.82,3.43,6.28,5s1.85,5,2.35,7.11a12.82,12.82,0,0,0,2.35,5.31,10.39,10.39,0,0,0,4.17,3.1,15.51,15.51,0,0,0,5.86,1.08,39.41,39.41,0,0,0,5.86-.42c-.65-.05-1.35-.08-1.92-.18a12.31,12.31,0,0,1-2.62-.78,11.41,11.41,0,0,1-2.27-1.27,9.92,9.92,0,0,1-1.91-1.82,22.05,22.05,0,0,0-2.25-2.08c-.5-.82-1.83-2.11-2.08-3.18a10.1,10.1,0,0,1,0-3.77c.35-2.18,5.28-5.17,9.63-7.36-4,.84-7.49,3-9.31,2.63s-2.56-.33-3.75-1.2a39.72,39.72,0,0,1-3.19-2.47,10.42,10.42,0,0,1-1.93-2.46,10.68,10.68,0,0,1-1.1-2.87,22,22,0,0,1-.46-3.46c-.07-1.22-.6-1.92-.49-3s-.42-2.31-.22-3.62c.1-.65.33-2.5,1.2-3.28s4.84-1.94,10.08-2.83c-.88-.64-12.1.29-13.83-.62a7.83,7.83,0,0,1-2.35-1.44,12.36,12.36,0,0,1-1.41-2.16,24.82,24.82,0,0,1-1.27-3.16c1.31-1.24,2.86-2,3.84-3.14,1.91-2.3,3.36-8.71,3.62-10a7.8,7.8,0,0,0,.32-2c.84-1,4.62-.76,6.76-1.76-3.13.09-5.73,0-6.69-2.25.18-1.34.07-1.91.29-4.56a18,18,0,0,0,1.09-7.54,13.1,13.1,0,0,0-1.57-4.84,8.34,8.34,0,0,0-3.75-3.38c-4.15-1.81-2.12-1-4-1.47a16.52,16.52,0,0,0-4.16-.21c-1,0-.73.08-1.28-.19a6.34,6.34,0,0,0,.32-2.85,9.64,9.64,0,0,0-.31-1.26,10.11,10.11,0,0,1-.53-2.69A13.58,13.58,0,0,1,89,72.74a18.78,18.78,0,0,1,1.38-3.81,14.33,14.33,0,0,1,1.14-1.86A14.75,14.75,0,0,1,93,65.31a10.15,10.15,0,0,1,1.72-1.4,6.06,6.06,0,0,1,1-.43Zm0,0"/>
      <path class="cls-6" d="M93.86,84.65a63.94,63.94,0,0,0-10-.11,9.61,9.61,0,0,0-5,2.92,23.54,23.54,0,0,0-3.14,3.38,17.37,17.37,0,0,0-2.06,3.49C73,95.71,72.49,96.85,72,98.21s-.67,1.73-1.35,3.51-1.52,3.91-2.16,5.89-1.18,4.08-1.76,5.93-1.2,3.55-1.93,5.28-1.6,3.59-2.16,5.13-1.37,4.15-1.9,5.49a43.25,43.25,0,0,1-2,4.26A36.62,36.62,0,0,1,56.15,138a51.9,51.9,0,0,1-4.5,5.65,40.87,40.87,0,0,1-4.29,3.66c-1.38,1.05-2.83,2.11-4.1,3a52,52,0,0,1-5.39,3.19c-1.84.89-3.9,1.65-5.14,2.17a21.29,21.29,0,0,1-5,1.75c-2.27.43-5.68.62-8.39,1.35a14.5,14.5,0,0,0-6.39,3.47,6.77,6.77,0,0,0-1.7,3.54,20.61,20.61,0,0,0-.58,6.49,9.05,9.05,0,0,0,2.6,5.47c1.32,1.06,3.21,2,6.86,2.66s14.15.93,14.66.55a39.09,39.09,0,0,0,3.78-3.2c1.55-1.53,3.33-3.79,6.23-4.29s10-.27,12.15-.67a17.25,17.25,0,0,0,5.31-2.07,15.35,15.35,0,0,0,3.48-2.33,21.71,21.71,0,0,0,3.37-4.06,37.59,37.59,0,0,0,2.53-4.81c.72-1.58,1.47-3.47,3-4.34s3.67-1.27,6.12-2.52a15.25,15.25,0,0,0,6-5.6A16.11,16.11,0,0,0,89,139a60.65,60.65,0,0,0-.81-8c-.24-2.29-.06-3.8.84-4.84s2.57-1.75,4.14-2.61a12.73,12.73,0,0,0,4.23-3.42,17,17,0,0,0,2.74-6.61,55.6,55.6,0,0,0,.88-7.83,24.92,24.92,0,0,1,.4-4.17,34,34,0,0,0,1.08-5.82,12.54,12.54,0,0,0-1.12-6.2,8.16,8.16,0,0,0-3.43-3.6c-1.13-.72-1.61-1-4-1.24Zm0,0"/>
      <path class="cls-3" d="M106.81,34.33A9,9,0,0,0,100,35.71C96.22,38,92.56,39.86,92,41.18s-1.39,2.8-.25,3.31a4.61,4.61,0,0,0,3.25.14c.55-.29,6.6-3.29,9.11-5.87a21.24,21.24,0,0,0,2.67-4.43Zm0,0"/>
      <path class="cls-3" d="M105.78,28.83a9.23,9.23,0,0,0-7.17.45c-4.19,1.82-8.2,3.18-8.91,4.46s-1.83,2.67-.73,3.35a4.78,4.78,0,0,0,3.31.6c.6-.22,7.21-2.43,10.14-4.71a21.79,21.79,0,0,0,3.36-4.15Zm0,0"/>
      <path class="cls-7" d="M94.89,43.85c.26.13-.09,1.27-.7,3.07a17.41,17.41,0,0,0-.85,3.45c-.17,1.43-.18,2.79-.22,4.54,0,.32,0,.64,0,1-.07,2.5-.14,4.44-.37,6.34a9.76,9.76,0,0,1-.6,2.55,4.45,4.45,0,0,1-.49.88c-.35.49-.66.66-.75.6s0-.39.06-.92c.06-.26.09-.48.15-.85a18,18,0,0,0,.08-2.35c0-1.28-.1-4.34-.07-6.29,0-.31,0-.63,0-1a28,28,0,0,1,.41-4.79,12.91,12.91,0,0,1,1.41-3.71c1-1.7,1.74-2.62,2-2.52Zm0,0"/>
      <path class="cls-3" d="M104.17,23.78s-3.23-1.43-7.69.59-8.75,3.55-9.5,4.94-1.92,2.89-.73,3.6a5.09,5.09,0,0,0,3.56.6c.64-.24,7.71-2.72,10.83-5.22a23.56,23.56,0,0,0,3.54-4.51Zm0,0"/>
      <path class="cls-8" d="M102.67,10.36c-.17.15-1.14.07-1.31.22-1.87,1.66-4.31,3.84-6.44,5.85-1.09,1-2.17,2.08-3.13,3.09a33.2,33.2,0,0,0-2.37,2.71,16.75,16.75,0,0,0-2.49,4.43,22.79,22.79,0,0,0-1,3.83c-.43,2.32-.89,4.74-1.51,7.42s-1.28,5.25-2.14,8.3-1.77,6.07-2.9,9.67a81.76,81.76,0,0,1-4,10.92,61.46,61.46,0,0,1-6.05,9.66c-2.29,3.12-4.6,6.05-6.84,8.72a84.42,84.42,0,0,1-6.7,7.27,83.13,83.13,0,0,1-6.76,5.68c-2.93,2.28-6.29,4.87-8.44,6.52l8.48-6.48c2.34-1.79,4.48-3.41,6.84-5.59a83.83,83.83,0,0,0,6.82-7.19c2.28-2.65,4.63-5.55,7-8.65A61,61,0,0,0,76,67.08a81.54,81.54,0,0,0,4.23-11c1.18-3.59,2.17-6.72,3-9.64s1.68-5.76,2.31-8.32,1.18-5.11,1.65-7.43a23,23,0,0,1,1-3.61,15.53,15.53,0,0,1,2.35-4.06,33.63,33.63,0,0,1,2.28-2.58c1-1,2-2,3.09-3,2.11-2,4.57-4.16,6.43-5.81.17-.15.2-1.13.37-1.28Zm0,0"/>
      <path class="cls-7" d="M102.67,10.36c-.17.15-1.14.07-1.31.22-1.87,1.66-4.31,3.84-6.44,5.85-1.09,1-2.17,2.08-3.13,3.09a33.2,33.2,0,0,0-2.37,2.71,16.75,16.75,0,0,0-2.49,4.43,22.79,22.79,0,0,0-1,3.83c-.43,2.32-.89,4.74-1.51,7.42s-1.28,5.25-2.14,8.3-1.77,6.07-2.9,9.67a81.76,81.76,0,0,1-4,10.92,61.46,61.46,0,0,1-6.05,9.66c-2.29,3.12-4.6,6.05-6.84,8.72a84.42,84.42,0,0,1-6.7,7.27,83.13,83.13,0,0,1-6.76,5.68c-2.93,2.28-6.29,4.87-8.44,6.52l8.48-6.48c2.34-1.79,4.48-3.41,6.84-5.59a83.83,83.83,0,0,0,6.82-7.19c2.28-2.65,4.63-5.55,7-8.65A61,61,0,0,0,76,67.08a81.54,81.54,0,0,0,4.23-11c1.18-3.59,2.17-6.72,3-9.64s1.68-5.76,2.31-8.32,1.18-5.11,1.65-7.43a23,23,0,0,1,1-3.61,15.53,15.53,0,0,1,2.35-4.06,33.63,33.63,0,0,1,2.28-2.58c1-1,2-2,3.09-3,2.11-2,4.57-4.16,6.43-5.81.17-.15.2-1.13.37-1.28Zm0,0"/>
      <path class="cls-7" d="M95.83,16.56c.12.05.08,1.08.2,1.13a36.22,36.22,0,0,1,3.52,1.72,10.14,10.14,0,0,1,1.71,1.35,11.39,11.39,0,0,1,1.66,2,20.68,20.68,0,0,1,2.63,6.83c.57,2.8.81,6.57,1.82,10.83a60.18,60.18,0,0,0,2.3,7.28c.49,1.24,1,2.43,1.55,3.48a15.58,15.58,0,0,0,1.66,2.66,16.05,16.05,0,0,0,8.74,5.28,53.79,53.79,0,0,0,10.4.74A47.06,47.06,0,0,1,121.65,59a15.67,15.67,0,0,1-8.41-5.4A15.81,15.81,0,0,1,111.71,51c-.5-1-1-2.21-1.45-3.46a55.73,55.73,0,0,1-2.1-7.23c-.89-4.21-1-7.91-1.48-10.86a23,23,0,0,0-2.49-7.38,12.59,12.59,0,0,0-1.76-2.42,11.77,11.77,0,0,0-1.92-1.7,24.86,24.86,0,0,0-3.7-2c-.12-.06-.86.65-1,.6Zm0,0"/>
      <path class="cls-3" d="M104.78,23.84s2.1-3.32,7.47-4.22,10.27-2.14,11.81-1.32,3.57,1.48,2.91,2.88a5.7,5.7,0,0,1-2.92,2.76c-.74.17-8.79,2.26-13.21,1.88a26.4,26.4,0,0,1-6.06-2Zm0,0"/>
      <path class="cls-3" d="M106.23,28.63s2.43-2.93,7.71-3.12,10.15-.78,11.53.2,3.25,1.86,2.45,3.13a5.47,5.47,0,0,1-3.16,2.28c-.73.08-8.74,1.08-13,.17a25.23,25.23,0,0,1-5.58-2.66Zm0,0"/>
      <path class="cls-3" d="M106.82,34.31s2.43-2.93,7.72-3.13,10.14-.77,11.53.21,3.24,1.86,2.44,3.13a5.53,5.53,0,0,1-3.16,2.28c-.73.07-8.74,1.08-12.95.17a25.71,25.71,0,0,1-5.58-2.66Zm0,0"/>
      <path class="cls-3" d="M107.94,40.45s2.26-2.71,7.16-2.9,9.42-.72,10.7.19,3,1.73,2.27,2.9a5.1,5.1,0,0,1-2.93,2.13c-.68.06-8.11,1-12,.15a23.6,23.6,0,0,1-5.18-2.47Zm0,0"/>
      <path class="cls-3" d="M109.44,46.39a9.12,9.12,0,0,1,6.26-3.26c4.45-.58,8.51-1.47,9.75-.75s2.89,1.31,2.31,2.45A4.65,4.65,0,0,1,125.28,47c-.61.12-7.29,1.61-10.91,1.18a22,22,0,0,1-4.93-1.8Zm0,0"/>
      <path class="cls-3" d="M111.2,50.78a8.67,8.67,0,0,1,6-3.1c4.23-.56,8.1-1.4,9.29-.72s2.75,1.26,2.2,2.33a4.46,4.46,0,0,1-2.36,2.08c-.58.11-7,1.54-10.4,1.12a20.4,20.4,0,0,1-4.69-1.71Zm0,0"/>
      <path class="cls-3" d="M114,54.92a8,8,0,0,1,5.49-2.85c3.9-.52,7.45-1.29,8.55-.66s2.53,1.15,2,2.15a4.06,4.06,0,0,1-2.17,1.91c-.54.1-6.4,1.41-9.57,1A19.17,19.17,0,0,1,114,54.92Zm0,0"/>
      <path class="cls-3" d="M118,57.73a7.94,7.94,0,0,1,5.76-2.25c3.93-.09,7.55-.48,8.57.27s2.39,1.41,1.78,2.35a4.07,4.07,0,0,1-2.37,1.66c-.54.05-6.51.72-9.62,0a18.76,18.76,0,0,1-4.12-2Zm0,0"/>
      <path class="cls-3" d="M84.73,38.33s-2.16-2.79-7-3.15S68.3,34.12,67,35s-3.06,1.62-2.36,2.82A5.13,5.13,0,0,0,67.47,40c.67.08,8.06,1.29,12,.58a23.56,23.56,0,0,0,5.27-2.27Zm0,0"/>
      <path class="cls-3" d="M83.2,44.74S81,42,76.12,41.67s-9.39-1-10.7-.09-3.05,1.66-2.33,2.85A5.16,5.16,0,0,0,66,46.63c.68.08,8.08,1.2,12,.45a23.93,23.93,0,0,0,5.24-2.34Zm0,0"/>
      <path class="cls-3" d="M81.19,51.09S79,48.32,74.11,48s-9.39-1-10.7-.08-3,1.65-2.33,2.85A5.14,5.14,0,0,0,64,53c.68.08,8.08,1.2,12,.45a23.34,23.34,0,0,0,5.24-2.33Zm0,0"/>
      <path class="cls-3" d="M79.09,57.55S76.91,54.77,72,54.47s-9.4-1-10.7-.08S58.27,56,59,57.23a5.16,5.16,0,0,0,2.88,2.2c.67.08,8.08,1.2,12,.45a23.57,23.57,0,0,0,5.24-2.33Zm0,0"/>
      <path class="cls-3" d="M76.83,64s-2.18-2.77-7.07-3.07-9.4-1-10.7-.08S56,62.49,56.72,63.68a5.11,5.11,0,0,0,2.87,2.2c.68.08,8.09,1.2,12,.45A23.45,23.45,0,0,0,76.84,64Zm0,0"/>
      <path class="cls-3" d="M73.65,70.86s-1.94-3-6.79-3.67-9.27-1.76-10.65-1S53,67.58,53.64,68.83a5.15,5.15,0,0,0,2.67,2.43c.67.14,8,1.89,11.92,1.48a23.51,23.51,0,0,0,5.42-1.88Zm0,0"/>
      <path class="cls-3" d="M69,77.22s-1.94-3-6.79-3.67-9.27-1.76-10.65-1S48.35,73.94,49,75.19a5.15,5.15,0,0,0,2.67,2.43c.67.13,8,1.89,11.92,1.48A23.51,23.51,0,0,0,69,77.22Zm0,0"/>
      <path class="cls-3" d="M64.45,83.18A9.47,9.47,0,0,0,58,79.69c-4.61-.69-8.81-1.67-10.12-1s-3,1.32-2.44,2.51A4.85,4.85,0,0,0,48,83.56c.64.13,7.56,1.8,11.33,1.4a22,22,0,0,0,5.16-1.78Zm0,0"/>
      <path class="cls-3" d="M58.67,89a9.47,9.47,0,0,0-6.45-3.49c-4.61-.69-8.81-1.68-10.12-1s-3,1.32-2.44,2.5a4.84,4.84,0,0,0,2.53,2.32c.64.13,7.56,1.79,11.33,1.4A22.45,22.45,0,0,0,58.68,89Zm0,0"/>
      <path class="cls-3" d="M53.11,94.85a8.91,8.91,0,0,0-6-3.27c-4.31-.64-8.25-1.56-9.48-.88S34.75,91.93,35.29,93a4.65,4.65,0,0,0,2.38,2.17c.6.12,7.08,1.68,10.62,1.31a20.82,20.82,0,0,0,4.82-1.66Zm0,0"/>
      <path class="cls-3" d="M47,99.79a8.91,8.91,0,0,0-6.05-3.27c-4.32-.64-8.26-1.56-9.48-.89S28.58,96.87,29.13,98a4.58,4.58,0,0,0,2.38,2.17c.6.12,7.08,1.68,10.61,1.31A20.64,20.64,0,0,0,47,99.79Zm0,0"/>
      <path class="cls-3" d="M40.61,104.65a8.89,8.89,0,0,0-6.6-1.94c-4.35.27-8.4.19-9.46,1.1s-2.51,1.8-1.75,2.78a4.58,4.58,0,0,0,2.78,1.62c.61,0,7.28.17,10.65-.93a21,21,0,0,0,4.38-2.63Zm0,0"/>
      <path class="cls-3" d="M81.19,51.1s3.53.21,6.57,4.06,6.14,7.17,6.17,8.74.38,3.45-1,3.54a5.14,5.14,0,0,1-3.44-1.11c-.45-.51-5.6-5.95-7.22-9.6a23.6,23.6,0,0,1-1.07-5.63Zm0,0"/>
      <path class="cls-3" d="M79.09,57.55s3.34,1.16,5.22,5.69,4,8.56,3.56,10.08-.57,3.43-1.94,3.14a5.13,5.13,0,0,1-3-2c-.3-.62-3.77-7.25-4.34-11.2a23.82,23.82,0,0,1,.5-5.72Zm0,0"/>
      <path class="cls-3" d="M76.83,64s3.2,1.5,4.62,6.19S84.54,79.1,84,80.57s-.91,3.35-2.24,2.93A5.1,5.1,0,0,1,79,81.21c-.23-.64-3-7.6-3.19-11.58A23.64,23.64,0,0,1,76.83,64Zm0,0"/>
      <path class="cls-3" d="M73.65,70.86s2.86,2.08,3.35,7,1.31,9.35.48,10.69S76,91.62,74.73,91a5.07,5.07,0,0,1-2.3-2.79c-.11-.67-1.51-8-.91-12a23.57,23.57,0,0,1,2.13-5.33Zm0,0"/>
      <path class="cls-3" d="M69,77.22s2.85,2.08,3.34,7,1.31,9.35.49,10.69S71.27,98,70.05,97.31a5.11,5.11,0,0,1-2.3-2.79c-.11-.67-1.51-8-.91-12A23.57,23.57,0,0,1,69,77.22Zm0,0"/>
      <path class="cls-3" d="M64.46,83.19s2.71,2,3.17,6.61,1.25,8.88.47,10.15-1.46,3-2.62,2.32a4.83,4.83,0,0,1-2.19-2.64c-.1-.65-1.43-7.64-.86-11.39a22.58,22.58,0,0,1,2-5.06Zm0,0"/>
      <path class="cls-3" d="M58.68,89a9.5,9.5,0,0,1,3.18,6.61c.46,4.64,1.24,8.89.46,10.16s-1.46,3-2.62,2.32a4.84,4.84,0,0,1-2.19-2.65c-.1-.64-1.43-7.63-.86-11.38a22.58,22.58,0,0,1,2-5.06Zm0,0"/>
      <path class="cls-3" d="M53.11,94.85a8.89,8.89,0,0,1,3,6.2c.43,4.34,1.17,8.32.43,9.51s-1.37,2.77-2.46,2.18a4.56,4.56,0,0,1-2-2.49c-.1-.6-1.35-7.15-.81-10.66a21,21,0,0,1,1.9-4.74Zm0,0"/>
      <path class="cls-3" d="M47,99.79a8.87,8.87,0,0,1,2.53,6.39c.14,4.36.59,8.38-.22,9.52s-1.56,2.67-2.6,2a4.54,4.54,0,0,1-1.87-2.62c-.06-.61-.85-7.23-.07-10.69a21.14,21.14,0,0,1,2.22-4.6Zm0,0"/>
      <path class="cls-3" d="M40.61,104.65a8.87,8.87,0,0,1,1.12,6.78c-.81,4.29-1.22,8.31-2.26,9.25s-2.09,2.27-3,1.4a4.5,4.5,0,0,1-1.27-3c.07-.6.71-7.24,2.22-10.46a20.91,20.91,0,0,1,3.15-4Zm0,0"/>
      <path class="cls-4" d="M10.74,173a8.22,8.22,0,0,0,2.57,4.84c1.32,1.06,3.23,1.92,6.88,2.54s14.19.84,14.7.46a40.71,40.71,0,0,0,3.78-3.21c1.55-1.52,3.33-3.78,6.23-4.28s9.34-.16,12.14-.67a17.5,17.5,0,0,0,5.31-2.07,15.35,15.35,0,0,0,3.48-2.33,20.86,20.86,0,0,0,3.36-4.07c.9-1.4,1.88-3.46,2.69-5.07S73,156,74.75,155.05s3.8-1.36,6.3-2.68a15.67,15.67,0,0,0,6-5.81,16.08,16.08,0,0,0,2.06-8c0-2.85-.64-5.63-.81-7.92-.41-2.43.17-3.8,1.28-4.85s3.32-2,5.07-3.16a12.24,12.24,0,0,0,4.83-6.6,61.19,61.19,0,0,0,1.59-9.94,27.81,27.81,0,0,1,.43-4.6,34.14,34.14,0,0,0,1.07-5.82,12.32,12.32,0,0,0-1.14-6.22,8.67,8.67,0,0,0-3.57-3.68c-1.32-1.18-2.53-1.36-6-1.42-2.15.21-3.78.59-3.29,3.1.48,1.31,4.79-2.81,7.39-1.38a9.21,9.21,0,0,1,3.27,3.27c.85,1.61,1.53,3.72,1,5.38-.3,1-.81,4.18-1.75,5.23s-6.46-.46-9.91-1.1c4,1.77,8.88,3.06,8.77,5.78-.2,2-1.52,5.37-1.91,6.68a7.31,7.31,0,0,1-.91,1.92A13,13,0,0,1,93.13,115a18,18,0,0,1-3,2.6c-.88.59-1.82,1.11-2.68,1.63s-1.36.36-2.92.3c-1,0-10.81-3.46-11-3.13s7,2.24,8.41,4.17c1,1.31,2.42,2.43,2.92,4.79.23,1.13-.27,2.38-.42,4a31.28,31.28,0,0,1,.34,4.17,17.18,17.18,0,0,1-.52,4.19,14.73,14.73,0,0,1-1.55,3.82,15.74,15.74,0,0,1-4.22,4.67,15.46,15.46,0,0,1-1.8,1.13,31.76,31.76,0,0,1-3.33,1.5,6.73,6.73,0,0,1-4,.41c-3.71-.44-9-4.8-9.51-4.14,4.7,3.61,6.28,5.8,6.21,8.62a11.5,11.5,0,0,1-1.28,5.45,23.42,23.42,0,0,1-1.55,2.14,17.78,17.78,0,0,1-1.81,1.93,13,13,0,0,1-1.68,1.3c-.55.35-1.11.66-1.8,1s-1.46.79-2.34,1.17a14.38,14.38,0,0,1-3,.9,53,53,0,0,1-5.8.3c-2.4.05-3.73,0-5.31.11-2.48.12-4.48-6.63-6.49-7.43-.15,1.27,3.11,4.15,1.15,9.24-1.22,2.57-3.41,4.2-5.71,5.94a31.89,31.89,0,0,1-6.15.1,82.47,82.47,0,0,1-8.5-.65,13.44,13.44,0,0,1-4.31-1.16c-.47-.28-.7-1.06-.79-1.11Zm0,0"/>
      <path class="cls-7" d="M90,86.83c-.28-.15.06-2,1.47-4.86a38.92,38.92,0,0,1,2.7-4.66c.59-.88,1.33-1.89,1.81-2.76a10,10,0,0,0,1.12-3.81A33.21,33.21,0,0,0,97,62.8a59.14,59.14,0,0,0-1.29-6.41L95.14,54a52.21,52.21,0,0,1-1.61-10.59c-.07-2.22.09-4.82.12-6.57,0-2.21.25-3.55-.31-4.74C92.51,30,90,27.75,89.29,27a9.21,9.21,0,0,1-1.12-1.35c0-.33.8-.28,1.88.31a13.77,13.77,0,0,1,5.73,4.95A12.8,12.8,0,0,1,97,36.79c.13,2.07.12,4.25.3,6.44a62.31,62.31,0,0,0,1.8,9.84c.2.77.4,1.57.59,2.37A53,53,0,0,1,101,62.36a32.7,32.7,0,0,1-.25,8.89,12.59,12.59,0,0,1-1.94,5,32.71,32.71,0,0,1-2.25,2.78c-1.28,1.5-2.34,2.86-3.22,4-1.86,2.43-2.86,4-3.27,3.75Zm0,0"/>
      <path class="cls-3" d="M84.73,38.34s3.48-.61,7.32,2.43,7.64,5.55,8,7.08,1.17,3.27-.16,3.68a5.14,5.14,0,0,1-3.6-.28c-.56-.4-6.82-4.51-9.24-7.68a23.49,23.49,0,0,1-2.35-5.23Zm0,0"/>
      <path class="cls-3" d="M83.2,44.74s3.48-.57,7.29,2.52,7.58,5.63,8,7.17,1.13,3.28-.21,3.67a5.1,5.1,0,0,1-3.6-.32c-.55-.4-6.77-4.58-9.15-7.78a23.75,23.75,0,0,1-2.29-5.26Zm0,0"/>
    </g>
  </g>
</svg>
