<svg id="Layer_1" data-name="Layer 1" xmlns="http://www.w3.org/2000/svg" width="174.99" height="243.66" viewBox="0 0 174.99 243.66">
  <defs>
    <style>
      .cls-1 {
        opacity: 0.5;
      }

      .cls-2 {
        fill: #fff;
      }

      .cls-3 {
        fill: #d8a576;
      }

      .cls-3, .cls-39 {
        stroke: #8c5f3a;
      }

      .cls-10, .cls-13, .cls-14, .cls-15, .cls-18, .cls-21, .cls-25, .cls-28, .cls-3, .cls-31, .cls-33, .cls-35, .cls-37, .cls-39, .cls-5, .cls-7, .cls-8 {
        stroke-miterlimit: 10;
      }

      .cls-10, .cls-14, .cls-15, .cls-18, .cls-21, .cls-28, .cls-3, .cls-33, .cls-35, .cls-37, .cls-39, .cls-5, .cls-7, .cls-8 {
        stroke-width: 0.5px;
      }

      .cls-4 {
        fill: #b88556;
      }

      .cls-5 {
        fill: #6f361b;
        stroke: #492212;
      }

      .cls-6 {
        fill: #5c2c15;
      }

      .cls-7 {
        fill: #b78552;
      }

      .cls-7, .cls-8 {
        stroke: #8e613c;
      }

      .cls-13, .cls-18, .cls-25, .cls-8 {
        fill: none;
      }

      .cls-9 {
        fill: #d7a777;
      }

      .cls-10 {
        fill: #eacbac;
        stroke: #aa754d;
      }

      .cls-11 {
        fill: #fbe9dd;
      }

      .cls-12 {
        fill: #eed1af;
      }

      .cls-13 {
        stroke: #d8a982;
      }

      .cls-14 {
        fill: #823d1e;
        stroke: #542513;
      }

      .cls-15 {
        fill: #843f21;
        stroke: #492012;
      }

      .cls-16 {
        opacity: 0.69;
      }

      .cls-17 {
        fill: #441e0e;
      }

      .cls-18 {
        stroke: #310600;
      }

      .cls-19 {
        fill: #e2b78d;
      }

      .cls-20 {
        fill: #572912;
        opacity: 0.72;
      }

      .cls-21 {
        fill: #844123;
        stroke: #421c0d;
      }

      .cls-22 {
        fill: #ce8261;
        opacity: 0.33;
      }

      .cls-23 {
        fill: #6d321b;
      }

      .cls-24, .cls-37 {
        fill: #fdecdc;
      }

      .cls-25 {
        stroke: #a4693f;
      }

      .cls-26 {
        fill: #fffcf9;
      }

      .cls-27 {
        fill: #e8caa8;
      }

      .cls-28 {
        fill: #7f3f0f;
        stroke: #3f290f;
      }

      .cls-29 {
        fill: #ffe23e;
      }

      .cls-30 {
        fill: #e8b121;
      }

      .cls-31 {
        fill: #22130e;
        stroke: #f48d11;
      }

      .cls-32 {
        fill: #796a65;
      }

      .cls-33 {
        fill: #f0a532;
        stroke: #d68922;
      }

      .cls-34 {
        fill: #fac52b;
      }

      .cls-35 {
        fill: #d19e6f;
        stroke: #91613a;
      }

      .cls-36 {
        fill: #bc895a;
      }

      .cls-37 {
        stroke: #9e6c44;
      }

      .cls-38 {
        fill: #e9caae;
      }

      .cls-39 {
        fill: #d9a677;
      }
    </style>
  </defs>
  <g>
    <path class="cls-1" d="M112.09,241.29a7.8,7.8,0,0,1-2.29-.34,10.87,10.87,0,0,1-2.75-1.24,8.06,8.06,0,0,1-4.07,1.11,7.8,7.8,0,0,1-2.29-.34,11.09,11.09,0,0,1-6.88-6,16.24,16.24,0,0,1-3.8-5.16,16.42,16.42,0,0,1-3.81,5.16,11.06,11.06,0,0,1-6.88,6,7.78,7.78,0,0,1-2.28.34A8,8,0,0,1,73,239.71,10.78,10.78,0,0,1,70.21,241a7.8,7.8,0,0,1-2.29.34,8,8,0,0,1-4.15-1.17,10.13,10.13,0,0,1-1.21-.87,11.15,11.15,0,0,1-1.26.46,7.8,7.8,0,0,1-2.29.34,8.08,8.08,0,0,1-4.15-1.16,12,12,0,0,1-5-6.43,16.92,16.92,0,0,1-3.66-5.94c-.41-.35-.82-.73-1.23-1.13h-.32a14.25,14.25,0,0,1-8.83-3.62c-.21-.19-.42-.39-.61-.59q-2.64-2.85-5-5.87c-7.88-.58-12.5-9.42-14.31-13.81C6.68,184.62,6.69,164.05,7.58,153a20.55,20.55,0,0,1,.15-2.65,22.59,22.59,0,0,1,3.59-11.56l.06-.56c0-.16,0-.31.06-.47A20.07,20.07,0,0,1,17,125.54a8.54,8.54,0,0,1,.21-1,24.15,24.15,0,0,1,6.66-12.6A41.68,41.68,0,0,1,17.69,94.5,44.79,44.79,0,0,1,17.27,85,8,8,0,0,1,16.33,81a37.46,37.46,0,0,1,.48-4.38,65.59,65.59,0,0,1,7.54-21.21c-.31-.44-.62-.91-.93-1.39a26.22,26.22,0,0,1-3.88-3.81c-.15-.18-.29-.36-.42-.55a8,8,0,0,1,.44-9.92,8.44,8.44,0,0,1,.49-1.87c-.17-1-.3-1.92-.4-2.73a8.12,8.12,0,0,0-.95-1.81,8,8,0,0,1-3.62-9.12A8,8,0,0,1,16.54,9.32,35.78,35.78,0,0,1,26.25,8a39.33,39.33,0,0,1,19.84,5.67h.22a7.87,7.87,0,0,1,1.44.13A26.87,26.87,0,0,1,63.16,22.7c2.15-.87,4.37-1.67,6.64-2.41a73,73,0,0,1,20.11-2.62A77,77,0,0,1,115.73,22s.34.11.45.16l.91.34a26.9,26.9,0,0,1,15.78-9.34,7.76,7.76,0,0,1,1.43-.13h.22a39.36,39.36,0,0,1,19.84-5.68,35.79,35.79,0,0,1,9.72,1.35,8,8,0,0,1,1.45,14.84,7.83,7.83,0,0,1,.31,2.56,8,8,0,0,1-3.93,6.57,8.49,8.49,0,0,0-.95,1.83c-.1.8-.23,1.72-.4,2.72a7.68,7.68,0,0,1,.56,3.11,8,8,0,0,1,.23,9.27h0c-.15.21-.3.41-.47.61a26.36,26.36,0,0,1-4.33,4.13c-.25.36-.5.71-.75,1a63.23,63.23,0,0,1,8.05,25.1,7.91,7.91,0,0,1-1.19,5,40.72,40.72,0,0,1-6.78,26.34,24.14,24.14,0,0,1,6.93,12.93,8.62,8.62,0,0,1,.21,1A20.07,20.07,0,0,1,168.55,138a3.78,3.78,0,0,1,.06.47c0,.18,0,.36,0,.53a22,22,0,0,1,3.6,11.6,20.57,20.57,0,0,1,.16,2.64c.88,11.06.89,31.63-8.33,48.52-1.81,4.39-6.43,13.23-14.31,13.81q-2.35,3-5,5.87c-.19.2-.4.4-.61.59a14.25,14.25,0,0,1-8.83,3.62H135c-.44.44-.89.84-1.33,1.21a16.92,16.92,0,0,1-3.56,5.64,12.19,12.19,0,0,1-5,6.42,8,8,0,0,1-4.14,1.16,7.8,7.8,0,0,1-2.29-.34,9.89,9.89,0,0,1-1.26-.46,9.32,9.32,0,0,1-1.22.87A8,8,0,0,1,112.09,241.29Z"/>
    <path class="cls-2" d="M107.09,236.29a7.8,7.8,0,0,1-2.29-.34,10.87,10.87,0,0,1-2.75-1.24A8.06,8.06,0,0,1,98,235.82a7.8,7.8,0,0,1-2.29-.34,11.09,11.09,0,0,1-6.88-6,16.24,16.24,0,0,1-3.8-5.16,16.42,16.42,0,0,1-3.81,5.16,11.06,11.06,0,0,1-6.88,6,7.78,7.78,0,0,1-2.28.34A8,8,0,0,1,68,234.71,10.78,10.78,0,0,1,65.21,236a7.8,7.8,0,0,1-2.29.34,8,8,0,0,1-4.15-1.17,10.13,10.13,0,0,1-1.21-.87,11.15,11.15,0,0,1-1.26.46,7.8,7.8,0,0,1-2.29.34,8.08,8.08,0,0,1-4.15-1.16,12,12,0,0,1-5-6.43,16.92,16.92,0,0,1-3.66-5.94c-.41-.35-.82-.73-1.23-1.13h-.32a14.25,14.25,0,0,1-8.83-3.62c-.21-.19-.42-.39-.61-.59q-2.64-2.85-5-5.87c-7.88-.58-12.5-9.42-14.31-13.81C1.68,179.62,1.69,159.05,2.58,148a20.55,20.55,0,0,1,.15-2.65,22.59,22.59,0,0,1,3.59-11.56l.06-.56c0-.16,0-.31.06-.47A20.07,20.07,0,0,1,12,120.54a8.54,8.54,0,0,1,.21-1,24.15,24.15,0,0,1,6.66-12.6A41.68,41.68,0,0,1,12.69,89.5,44.79,44.79,0,0,1,12.27,80,8,8,0,0,1,11.33,76a37.46,37.46,0,0,1,.48-4.38,65.59,65.59,0,0,1,7.54-21.21c-.31-.44-.62-.91-.93-1.39a26.22,26.22,0,0,1-3.88-3.81c-.15-.18-.29-.36-.42-.55a8,8,0,0,1,.44-9.92,8.44,8.44,0,0,1,.49-1.87c-.17-1-.3-1.92-.4-2.73a8.12,8.12,0,0,0-1-1.81,8,8,0,0,1-3.62-9.12A8,8,0,0,1,11.54,4.32,35.78,35.78,0,0,1,21.25,3,39.33,39.33,0,0,1,41.09,8.64h.22a7.87,7.87,0,0,1,1.44.13A26.87,26.87,0,0,1,58.16,17.7c2.15-.87,4.37-1.67,6.64-2.41a73,73,0,0,1,20.11-2.62A77,77,0,0,1,110.73,17s.34.11.45.16l.91.34a26.9,26.9,0,0,1,15.78-9.34,7.76,7.76,0,0,1,1.43-.13h.22a39.36,39.36,0,0,1,19.84-5.68,35.79,35.79,0,0,1,9.72,1.35,8,8,0,0,1,1.45,14.84,7.83,7.83,0,0,1,.31,2.56,8,8,0,0,1-3.93,6.57,8.49,8.49,0,0,0-.95,1.83c-.1.8-.23,1.72-.4,2.72a7.68,7.68,0,0,1,.56,3.11,8,8,0,0,1,.23,9.27h0c-.15.21-.3.41-.47.61a26.36,26.36,0,0,1-4.33,4.13c-.25.36-.5.71-.75,1a63.23,63.23,0,0,1,8.05,25.1,7.91,7.91,0,0,1-1.19,5,40.72,40.72,0,0,1-6.78,26.34,24.14,24.14,0,0,1,6.93,12.93,8.62,8.62,0,0,1,.21,1A20.07,20.07,0,0,1,163.55,133a3.78,3.78,0,0,1,.06.47c0,.18,0,.36,0,.53a22,22,0,0,1,3.6,11.6,20.57,20.57,0,0,1,.16,2.64c.88,11.06.89,31.63-8.33,48.52-1.81,4.39-6.43,13.23-14.31,13.81q-2.35,3-5,5.87c-.19.2-.4.4-.61.59a14.25,14.25,0,0,1-8.83,3.62H130c-.44.44-.89.84-1.33,1.21a16.92,16.92,0,0,1-3.56,5.64,12.19,12.19,0,0,1-5,6.42,8,8,0,0,1-4.14,1.16,7.8,7.8,0,0,1-2.29-.34,9.89,9.89,0,0,1-1.26-.46,9.32,9.32,0,0,1-1.22.87A8,8,0,0,1,107.09,236.29Z"/>
    <g>
      <g>
        <g>
          <g>
            <path class="cls-3" d="M140.61,49.36a18.5,18.5,0,0,0,7.51-14.18s-1.19,3.19-3.75,3.45c0,0,2.42-.21,3.75-10.9,0,0,1.49-5.24,4.73-6.93,0,0-1.39-.87-4.88,1.95a22.47,22.47,0,0,1,8-11.19l-12.83.66L127.32,28.81l.32,6.63S138.07,43.56,140.61,49.36Z"/>
            <path class="cls-4" d="M134.48,41.75s7.63-3.25,11-16.83l-2.62,2.76s3-13.24,11.64-15.83L142.65,13,132,24.92,129.3,36.75Z"/>
          </g>
          <g>
            <path class="cls-5" d="M114.94,27.68s4.16-9.78,14.36-11.63c0,0-3,2.46-3.45,4.85,0,0,13.26-14.49,31.06-9.48,0,0-14,1.47-22.43,13.34,0,0,3.78-1.24,5.09.07,0,0-4.89,1.57-6.06,5.55,0,0,2.44-1.51,3.9-.62,0,0-5.16,4.24-4.85,9.71C132.56,39.47,121.26,30,114.94,27.68Z"/>
            <path class="cls-6" d="M118.46,29.84s.61-6.16,5.08-6.7v5.24s8.71-16,31-17c0,0-18.65,7-20,13.34,0,0,4.47-1,5.09.07,0,0-5.25,1.7-6.06,5.55,0,0,3-1.16,3.9-.62,0,0-5.47,4.24-4.85,9.71C132.56,39.47,122.54,30.69,118.46,29.84Z"/>
          </g>
        </g>
        <g>
          <g>
            <path class="cls-3" d="M30,50a18.52,18.52,0,0,1-7.52-14.18s1.2,3.19,3.76,3.44c0,0-2.42-.2-3.76-10.89,0,0-1.49-5.24-4.73-6.93,0,0,1.39-.88,4.89,2a22.43,22.43,0,0,0-8-11.19l12.82.66L43.3,29.41,43,36S32.54,44.16,30,50Z"/>
            <path class="cls-4" d="M36.13,42.34s-7.63-3.25-11-16.82l2.62,2.76S24.73,15,16.09,12.45L28,13.56l10.69,12,2.67,11.83Z"/>
          </g>
          <g>
            <path class="cls-5" d="M55.68,28.28s-4.16-9.79-14.36-11.64c0,0,3,2.47,3.44,4.86,0,0-13.25-14.49-31-9.48,0,0,14,1.46,22.42,13.33,0,0-3.77-1.23-5.08.08,0,0,4.89,1.57,6.05,5.55,0,0-2.43-1.52-3.9-.62,0,0,5.17,4.24,4.86,9.71C38.06,40.07,49.36,30.59,55.68,28.28Z"/>
            <path class="cls-6" d="M52.16,30.44s-.62-6.17-5.09-6.71V29S38.37,13,16.09,12c0,0,18.65,7,20,13.33,0,0-4.47-1-5.08.08,0,0,5.25,1.69,6.05,5.55,0,0-3-1.16-3.9-.62,0,0,5.47,4.24,4.86,9.71C38.06,40.07,48.08,31.29,52.16,30.44Z"/>
          </g>
        </g>
      </g>
      <g>
        <g>
          <path class="cls-7" d="M45.84,207.06l32.35,5.57S78.7,215.8,93,215.4l30.71-5.84,10.25-61-14.49-22.81-77.09,3.77L28.06,143.23Z"/>
          <path class="cls-8" d="M91.23,215.46s-9.53,1.53-7.07-7.1"/>
        </g>
        <path class="cls-9" d="M50.79,141.3s4.48,7.23,8.71,6.9c0,0-1-2.2-.77-3,0,0,4.16,9.38,11.87,9.94a6.14,6.14,0,0,1-2-4.07,18.55,18.55,0,0,0,7.71,5.76s7.55,2.3,7.71,5.87c0,0,1.78-1.33-.61-4.46,0,0,3.15,1,2.38,6.31,0,0,6.16-1,10.25-8.39,0,0,1.23.5-.77,3.22,0,0,4.24.31,8.55-7.31a3.93,3.93,0,0,1-.46,2.84s5.59-4.35,6.09-7.49a7.89,7.89,0,0,1-1,4.15s6.7-8.09,10.25,3.34c0,0,7.19,24.71-7.4,39.41,0,0-7.5,8.94-23.43-1,0,0-3.16-2.88-8.36.41,0,0-17.58,11.2-28.71-13.25C50.79,180.43,43.42,164.25,50.79,141.3Z"/>
      </g>
      <g>
        <path class="cls-10" d="M81.49,96.45l-35.64,18s-.61,21.73,5.94,25.43c0,0-1.19-3.74-1-5.43,0,0-.11,5.39,8.21,9.9a5.59,5.59,0,0,1,.15-5.28S58.31,147.33,70,151a6.27,6.27,0,0,1-1.58-6s.83,5.22,9,8.45c0,0,5.69,1.95,6.72,4.68,0,0,.1-4.72-3.65-6.27,0,0,5.4.56,5.65,7.78,0,0,.26.28,1.19-.64,0,0,3.23,1.23,6.57-4.06,0,0,2.31-5,3.19-5.1a4.84,4.84,0,0,1-.93,5.1s3.08-.51,5.14-4.47c0,0,2.36-2.85,3.24-2.4l-.77,1.94s4-1.54,6.21-8.43a6.84,6.84,0,0,1-.92,4.94s6.16-3.81,7.24-9.9a10.93,10.93,0,0,1,0,4.18s3.38-1.58,4.7-11.37l-4.54-17.08Z"/>
        <g>
          <path class="cls-11" d="M82.57,108.51s2,7,5.34,0c0,0,7,10.26,22.35,11.34,0,0,10,5.5-3.7,20.35l3.1-.23s-5.77,4-10.39,5.42c0,0-6.58,3-6.68,6.89l-.11-3.48S90,148.88,88,153c0,0-1.36-6.2-7.23-8.38A6.7,6.7,0,0,1,82.62,149a24,24,0,0,0-10.87-4.64,37.91,37.91,0,0,1-10.78-5h2.46s-12.13-4.14-7-19A37.05,37.05,0,0,0,82.57,108.51Z"/>
          <g>
            <g>
              <path class="cls-12" d="M56.5,125a15.11,15.11,0,0,0,4.64,9.16s4,7.36,8.48,8c0,0-6.57-6-7.11-10.26C62.51,131.85,58.68,131.64,56.5,125Z"/>
              <path class="cls-12" d="M79.5,135.57a7.12,7.12,0,0,1-.91-3.34s-1.51.12-3.31-6.63C75.28,125.6,75.57,133.84,79.5,135.57Z"/>
              <path class="cls-12" d="M89.06,142.11s.38,4.87-.85,5.91a6.44,6.44,0,0,0,4.2-6.72s4.17-4.42.77-12.89c0,0,.27,9.82-1.54,11.48l-.28,0s-.25,3.95-1.79,6.17Z"/>
              <path class="cls-12" d="M106.06,135.57s.45,2.16-.55,2.89a17.39,17.39,0,0,0,5.78-14.41S109.82,132.68,106.06,135.57Z"/>
            </g>
            <g>
              <path class="cls-13" d="M75.07,124.72s1.35,6.23,3.6,8c0,0-1.52-7.87.83-14.16"/>
              <path class="cls-13" d="M56.5,123.44s.53,6.84,6,8.41"/>
              <path class="cls-13" d="M60.89,124.72s.85,10.57,6.55,14.64c0,0-2.78-2.58-1.62-8.62"/>
              <path class="cls-13" d="M87.86,134.74a66.62,66.62,0,0,1,1.81,11s1.89-2.78,1.58-9.41"/>
              <path class="cls-13" d="M93,127.88s.85,8.85-1.38,11.86"/>
              <path class="cls-13" d="M106.59,128.41s1.54,5.16-1.78,8.28c0,0,5.55-3.71,6.48-14.36"/>
            </g>
          </g>
        </g>
      </g>
      <g>
        <g>
          <g>
            <g>
              <path class="cls-14" d="M11,144.09s-4.36,28.42,7.11,49c0,0,5.22,13.2,10.35,8.14l-7.06-25.78Z"/>
              <path class="cls-6" d="M15.31,168.85s-1,12.38,11.06,33.49a1.88,1.88,0,0,0,2.12-1.5L17.2,170.37Z"/>
            </g>
            <g>
              <path class="cls-14" d="M17.67,170.1s-.62,20.19,18.4,40.64c0,0,5.19,4.52,5.94-1.34L27.56,166.81Z"/>
              <path class="cls-6" d="M42,210.63s-1.58,3.24-4.76.31c0,0-12.58-24.42-11.43-39.57l3.77,1.86S36.92,198.15,42,210.63Z"/>
            </g>
            <g>
              <path class="cls-14" d="M29.12,166.51s-.44,23,9.94,38.79c0,0,8.5,16.93,14,10.42l-1.48-8s-6.67-12.82-8.78-46.68l-12-1.7Z"/>
              <path class="cls-6" d="M37.25,165s1.54,33.22,14.92,50l.9-3.52-1.69-4.08s-5-10.93-8.57-45.56l-4.08-2.46Z"/>
            </g>
          </g>
          <g>
            <path class="cls-15" d="M31.37,107.18S18.51,114,20.05,124.32c0,0-6.38,3-5.66,12,0,0-7.68,7.79-.8,18.15,0,0-3.26,5.74.8,14,0,0,2.11,4.63,7,3.13,0,0,2.47-1.93,2.35-4.24,0,0,.89,7,6.17,7,0,0,4.62.36,5.89-7.24,0,0,5.37,1.16,7.19-7.71a18.53,18.53,0,0,0,0-8.41s4.73-1.4,4.49-12.68c0,0,3-2.56,3-9.79,0,0,3.7-6.78,2.11-13.66Z"/>
            <g class="cls-16">
              <g>
                <path class="cls-17" d="M19.88,121.65s.16,7.3,5.4,2.88C25.28,124.53,19,132.44,19.88,121.65Z"/>
                <path class="cls-17" d="M25.28,120.11s2.46,5.7,6.83.72C32.11,120.83,26.92,128.64,25.28,120.11Z"/>
                <path class="cls-17" d="M32.37,121.06s1.39,1.39,3.52-.54C35.89,120.52,33.06,124.3,32.37,121.06Z"/>
                <path class="cls-17" d="M29.9,126s2.51,4,6.71-1C36.61,125,32.64,132.5,29.9,126Z"/>
                <path class="cls-17" d="M41,126.34s1.42,3.77,4.81,1.19C45.85,127.53,41.81,132.08,41,126.34Z"/>
                <path class="cls-17" d="M43.93,131.27s3.31,2,6.16-2.23C50.09,129,48.63,134.89,43.93,131.27Z"/>
                <path class="cls-17" d="M33.25,131.12s3.59,7.51,9.87.57C43.12,131.69,36.53,142.79,33.25,131.12Z"/>
                <path class="cls-17" d="M38.19,139s4.89,4.85,9.82-2.28l1.31-2s-1.23,5.93-6.2,7.7C43.12,142.44,39,142.83,38.19,139Z"/>
                <path class="cls-17" d="M25.54,140.25s4.72,9.55,11.07-1.49c0,0-1.67,9.14-9,6.06A9.66,9.66,0,0,1,25.54,140.25Z"/>
                <path class="cls-17" d="M20.73,130.74s2.39,7.93,8.52,2.5l1.82-1.58s-1.9,4.54-6.75,5A5.25,5.25,0,0,1,20.73,130.74Z"/>
                <path class="cls-17" d="M14.34,134s-.17,8.79,4.52,9.56c0,0,3.76,1,6-3.35,0,0,0,3.43-5.24,5.62C19.58,145.87,13,146.72,14.34,134Z"/>
                <path class="cls-17" d="M20.31,149s4.78,7.16,10.25,0c0,0-3.82,8.4-9.33,2.62A5.1,5.1,0,0,1,20.31,149Z"/>
                <path class="cls-17" d="M34.33,147.53s6.59,9.56,12.14-1.81c0,0-1.27,8.09-7.59,7.67C38.88,153.39,34.6,152,34.33,147.53Z"/>
                <path class="cls-17" d="M10.67,146.3s1.12,9.82,7.48,9c0,0,2.85-.07,3.74-1,0,0-2.86,5.82-7.73,2.74A13.41,13.41,0,0,1,10.67,146.3Z"/>
                <path class="cls-17" d="M24.51,157.13s6.74,7.12,11.56-2.24c0,0-1.51,7.51-7.71,6.9A8.79,8.79,0,0,1,24.51,157.13Z"/>
                <path class="cls-17" d="M16.72,161.36s4.24,7,10.37,2.51c0,0-3,6.13-8,1.69C19.11,165.56,16.88,162.91,16.72,161.36Z"/>
                <path class="cls-17" d="M12.29,160.44s1.47,14.1,10.83,8.94c0,0,.08,4.62-5.74,3.74C17.38,173.12,11.48,170.84,12.29,160.44Z"/>
                <path class="cls-17" d="M23.53,170.1s5.52,7.76,11.18.77c0,0-1.31,6.55-7.62,4.6A10.79,10.79,0,0,1,23.53,170.1Z"/>
                <path class="cls-17" d="M31,164s6.37,8,11.33-3.86a10,10,0,0,1-3.93,7.68S33.94,170.53,31,164Z"/>
              </g>
            </g>
            <g>
              <path class="cls-18" d="M20.13,120.51s-1.22,9.71,5.57,2.75"/>
              <path class="cls-18" d="M25.75,118.52s0,5.27,4,4a7.69,7.69,0,0,0,2.79-2.8s.89,3.14,4-.68"/>
              <path class="cls-18" d="M29.87,123.3s.42,5.08,4.64,3.61a7.7,7.7,0,0,0,2.74-3.77"/>
              <path class="cls-18" d="M41.16,124.51s.69,6.14,5.47,1.69"/>
              <path class="cls-18" d="M43.91,129.52s4.07,3.86,6.88-1.34"/>
              <path class="cls-18" d="M33.56,129.29s1.09,8.21,6.52,5.05A11.62,11.62,0,0,0,43.9,130"/>
              <path class="cls-18" d="M20.92,128s-.82,6.65,4.24,7.3c0,0,4.44,0,6.67-5.45"/>
              <path class="cls-18" d="M14.47,133.88s-1,8.88,4.24,10.41c0,0,4,1.2,6.83-5.2"/>
              <path class="cls-18" d="M25.64,137.86S26.44,145,31,144c0,0,4.39.62,6.22-6.71"/>
              <path class="cls-18" d="M38.31,136.34s.28,5.32,5.59,4.68c0,0,2.81-1.36,3.86-3"/>
              <path class="cls-18" d="M34.33,145s.25,6.14,5.85,7.24c0,0,2.57-.29,3.6-1.64"/>
              <path class="cls-18" d="M20.12,145s-.51,6.68,5.52,7.24c0,0,4.49.61,5.9-7"/>
              <path class="cls-18" d="M10.87,145.51A14.25,14.25,0,0,0,15,156.11s5.2,2.48,7.9-3.9"/>
              <path class="cls-18" d="M24,152.19s.22,6.93,5.59,8.24c0,0,5.13,1.18,7.66-8.62"/>
              <path class="cls-18" d="M16.38,157.23s.23,6.66,6,8.51c0,0,3.52.62,6.3-4.74"/>
              <path class="cls-18" d="M30.62,161s2.18,7.81,7.92,5.81c0,0,4.05-2.57,4.47-7"/>
            </g>
            <g>
              <path class="cls-19" d="M20.35,120.06s.16,7.29,5.4,2.88C25.75,122.94,19.43,130.85,20.35,120.06Z"/>
              <path class="cls-19" d="M25.75,118.52s2.46,5.7,6.83.72C32.58,119.24,27.39,127.05,25.75,118.52Z"/>
              <path class="cls-19" d="M32.84,119.47s1.38,1.38,3.52-.54C36.36,118.93,33.53,122.7,32.84,119.47Z"/>
              <path class="cls-19" d="M30.37,124.4s2.51,4,6.71-1C37.08,123.44,33.11,130.91,30.37,124.4Z"/>
              <path class="cls-19" d="M41.51,124.75s1.42,3.77,4.81,1.19C46.32,125.94,42.28,130.49,41.51,124.75Z"/>
              <path class="cls-19" d="M44.4,129.68s3.31,2,6.16-2.24C50.56,127.44,49.1,133.3,44.4,129.68Z"/>
              <path class="cls-19" d="M33.72,129.52s3.59,7.52,9.87.58C43.59,130.1,37,141.2,33.72,129.52Z"/>
              <path class="cls-19" d="M38.65,137.42s4.9,4.86,9.83-2.27l1.31-2s-1.23,5.93-6.2,7.7C43.59,140.85,39.43,141.24,38.65,137.42Z"/>
              <path class="cls-19" d="M26,138.66s4.73,9.55,11.08-1.49c0,0-1.67,9.14-9,6.06A9.74,9.74,0,0,1,26,138.66Z"/>
              <path class="cls-19" d="M21.2,129.15s2.39,7.93,8.52,2.49l1.82-1.58s-1.9,4.55-6.76,5A5.25,5.25,0,0,1,21.2,129.15Z"/>
              <path class="cls-19" d="M14.8,132.45s-.16,8.79,4.52,9.56c0,0,3.77,1,6-3.35,0,0,0,3.43-5.24,5.62C20,144.28,13.49,145.13,14.8,132.45Z"/>
              <path class="cls-19" d="M20.78,147.4s4.77,7.17,10.25,0c0,0-3.82,8.4-9.33,2.62A5,5,0,0,1,20.78,147.4Z"/>
              <path class="cls-19" d="M34.8,145.94s6.59,9.55,12.14-1.81c0,0-1.27,8.09-7.59,7.67C39.35,151.8,35.07,150.41,34.8,145.94Z"/>
              <path class="cls-19" d="M11.14,144.71s1.12,9.82,7.48,9c0,0,2.85-.07,3.74-1,0,0-2.86,5.82-7.73,2.73A13.39,13.39,0,0,1,11.14,144.71Z"/>
              <path class="cls-19" d="M25,155.53s6.74,7.13,11.56-2.23c0,0-1.51,7.51-7.71,6.9A8.79,8.79,0,0,1,25,155.53Z"/>
              <path class="cls-19" d="M17.19,159.77s4.24,7,10.37,2.51c0,0-3,6.12-8,1.69C19.58,164,17.35,161.31,17.19,159.77Z"/>
              <path class="cls-19" d="M12.76,158.85s1.47,14.1,10.83,8.94c0,0,.08,4.62-5.74,3.73C17.85,171.52,12,169.25,12.76,158.85Z"/>
              <path class="cls-19" d="M24,168.51s5.52,7.75,11.17.77c0,0-1.31,6.55-7.61,4.59A10.79,10.79,0,0,1,24,168.51Z"/>
              <path class="cls-19" d="M31.48,162.44s6.37,8,11.32-3.85a9.93,9.93,0,0,1-3.93,7.68S34.4,168.94,31.48,162.44Z"/>
            </g>
          </g>
        </g>
        <path class="cls-20" d="M28.26,109.58l8.82,7.81s-1.75-2.86-1.52-4.32c0,0,6.53,8.37,17.29,7v-5.45L34.13,106A14.17,14.17,0,0,0,28.26,109.58Z"/>
      </g>
      <g>
        <g>
          <g>
            <g>
              <path class="cls-14" d="M159,144.32s4.36,28.42-7.11,49c0,0-5.22,13.2-10.35,8.14l7.06-25.78Z"/>
              <path class="cls-6" d="M154.68,169.08s1,12.38-11.06,33.49a1.88,1.88,0,0,1-2.12-1.5l11.29-30.47Z"/>
            </g>
            <g>
              <path class="cls-14" d="M152.32,170.33s.62,20.19-18.4,40.64c0,0-5.19,4.52-5.94-1.34l14.45-42.58Z"/>
              <path class="cls-6" d="M128,210.86s1.58,3.24,4.76.31c0,0,12.58-24.42,11.43-39.57l-3.77,1.86S133.07,198.38,128,210.86Z"/>
            </g>
            <g>
              <path class="cls-14" d="M140.87,166.74s.44,23-9.94,38.79c0,0-8.5,16.93-14,10.42l1.48-8s6.67-12.82,8.78-46.68l12-1.7Z"/>
              <path class="cls-6" d="M132.74,165.18s-1.54,33.22-14.92,50l-.9-3.52,1.69-4.08s5-10.93,8.58-45.56l4.07-2.46Z"/>
            </g>
          </g>
          <g>
            <path class="cls-15" d="M138.62,107.41s12.86,6.82,11.32,17.14c0,0,6.38,3,5.66,12,0,0,7.68,7.79.8,18.15,0,0,3.26,5.74-.8,14,0,0-2.11,4.63-7,3.13,0,0-2.47-1.93-2.35-4.24,0,0-.89,7-6.17,7,0,0-4.62.36-5.89-7.24,0,0-5.37,1.16-7.19-7.71a18.53,18.53,0,0,1,0-8.41s-4.73-1.4-4.49-12.68c0,0-3-2.56-3-9.79,0,0-3.7-6.77-2.11-13.66Z"/>
            <g class="cls-16">
              <g>
                <path class="cls-17" d="M150.11,121.88s-.16,7.3-5.4,2.88C144.71,124.76,151,132.67,150.11,121.88Z"/>
                <path class="cls-17" d="M144.71,120.34s-2.46,5.7-6.83.72C137.88,121.06,143.07,128.87,144.71,120.34Z"/>
                <path class="cls-17" d="M137.62,121.29s-1.39,1.39-3.52-.54C134.1,120.75,136.93,124.53,137.62,121.29Z"/>
                <path class="cls-17" d="M140.09,126.22s-2.51,4-6.71-1C133.38,125.26,137.35,132.73,140.09,126.22Z"/>
                <path class="cls-17" d="M129,126.57s-1.42,3.78-4.81,1.19C124.14,127.76,128.18,132.31,129,126.57Z"/>
                <path class="cls-17" d="M126.06,131.5s-3.31,2-6.16-2.23C119.9,129.27,121.36,135.12,126.06,131.5Z"/>
                <path class="cls-17" d="M136.74,131.35s-3.59,7.51-9.87.57C126.87,131.92,133.46,143,136.74,131.35Z"/>
                <path class="cls-17" d="M131.8,139.25S126.91,144.1,122,137l-1.31-2s1.23,5.93,6.2,7.71C126.87,142.68,131,143.06,131.8,139.25Z"/>
                <path class="cls-17" d="M144.45,140.48S139.73,150,133.38,139c0,0,1.67,9.14,9,6.06A9.66,9.66,0,0,0,144.45,140.48Z"/>
                <path class="cls-17" d="M149.26,131s-2.39,7.93-8.52,2.5l-1.82-1.58s1.9,4.54,6.76,5A5.25,5.25,0,0,0,149.26,131Z"/>
                <path class="cls-17" d="M155.66,134.28s.16,8.78-4.53,9.55c0,0-3.76,1-6-3.35,0,0,0,3.43,5.24,5.62C150.41,146.1,157,147,155.66,134.28Z"/>
                <path class="cls-17" d="M149.68,149.23s-4.78,7.16-10.25,0c0,0,3.82,8.4,9.33,2.62A5,5,0,0,0,149.68,149.23Z"/>
                <path class="cls-17" d="M135.66,147.76s-6.59,9.56-12.14-1.81c0,0,1.27,8.09,7.59,7.67C131.11,153.62,135.39,152.23,135.66,147.76Z"/>
                <path class="cls-17" d="M159.32,146.53s-1.12,9.82-7.48,9c0,0-2.85-.08-3.74-1,0,0,2.86,5.82,7.73,2.74A13.41,13.41,0,0,0,159.32,146.53Z"/>
                <path class="cls-17" d="M145.48,157.36s-6.74,7.12-11.56-2.24c0,0,1.51,7.52,7.71,6.9A8.79,8.79,0,0,0,145.48,157.36Z"/>
                <path class="cls-17" d="M153.27,161.59s-4.24,7-10.37,2.51c0,0,3,6.13,8,1.69C150.88,165.79,153.11,163.14,153.27,161.59Z"/>
                <path class="cls-17" d="M157.7,160.67s-1.47,14.1-10.83,8.94c0,0-.08,4.62,5.74,3.74C152.61,173.35,158.51,171.07,157.7,160.67Z"/>
                <path class="cls-17" d="M146.46,170.33s-5.52,7.76-11.18.77c0,0,1.31,6.55,7.62,4.6A10.79,10.79,0,0,0,146.46,170.33Z"/>
                <path class="cls-17" d="M139,164.27s-6.37,8-11.33-3.86a10,10,0,0,0,3.94,7.68S136.05,170.77,139,164.27Z"/>
              </g>
            </g>
            <g>
              <path class="cls-18" d="M149.86,120.74s1.22,9.71-5.56,2.75"/>
              <path class="cls-18" d="M144.24,118.75s0,5.27-4,4a7.69,7.69,0,0,1-2.79-2.8s-.89,3.14-4-.68"/>
              <path class="cls-18" d="M140.12,123.53s-.42,5.08-4.64,3.61a7.7,7.7,0,0,1-2.74-3.77"/>
              <path class="cls-18" d="M128.83,124.75s-.69,6.14-5.47,1.68"/>
              <path class="cls-18" d="M126.08,129.75s-4.07,3.86-6.88-1.34"/>
              <path class="cls-18" d="M136.43,129.52s-1.09,8.21-6.52,5a11.55,11.55,0,0,1-3.81-4.35"/>
              <path class="cls-18" d="M149.07,128.2s.83,6.65-4.24,7.3c0,0-4.44.05-6.67-5.45"/>
              <path class="cls-18" d="M155.52,134.11s1,8.88-4.24,10.41c0,0-4,1.2-6.83-5.2"/>
              <path class="cls-18" d="M144.35,138.09s-.8,7.09-5.39,6.14c0,0-4.39.62-6.22-6.7"/>
              <path class="cls-18" d="M131.68,136.57s-.28,5.32-5.58,4.68c0,0-2.82-1.36-3.87-3"/>
              <path class="cls-18" d="M135.66,145.18s-.25,6.14-5.85,7.24c0,0-2.57-.29-3.6-1.64"/>
              <path class="cls-18" d="M149.87,145.18s.51,6.68-5.52,7.24c0,0-4.49.61-5.9-7"/>
              <path class="cls-18" d="M159.12,145.75A14.23,14.23,0,0,1,155,156.34s-5.2,2.48-7.89-3.9"/>
              <path class="cls-18" d="M146,152.42s-.22,6.93-5.59,8.24c0,0-5.13,1.19-7.66-8.62"/>
              <path class="cls-18" d="M153.61,157.46s-.23,6.67-6,8.51c0,0-3.53.62-6.3-4.73"/>
              <path class="cls-18" d="M139.37,161.24s-2.18,7.8-7.92,5.81c0,0-4-2.58-4.47-7.05"/>
            </g>
            <g>
              <path class="cls-19" d="M149.64,120.29s-.16,7.29-5.4,2.88C144.24,123.17,150.56,131.08,149.64,120.29Z"/>
              <path class="cls-19" d="M144.24,118.75s-2.46,5.7-6.83.72C137.41,119.47,142.6,127.28,144.24,118.75Z"/>
              <path class="cls-19" d="M137.15,119.7s-1.38,1.38-3.52-.54C133.63,119.16,136.46,122.93,137.15,119.7Z"/>
              <path class="cls-19" d="M139.62,124.63s-2.5,4-6.7-1C132.92,123.67,136.88,131.14,139.62,124.63Z"/>
              <path class="cls-19" d="M128.48,125s-1.42,3.77-4.81,1.19C123.67,126.17,127.71,130.72,128.48,125Z"/>
              <path class="cls-19" d="M125.59,129.91s-3.31,2-6.16-2.24C119.43,127.67,120.89,133.53,125.59,129.91Z"/>
              <path class="cls-19" d="M136.27,129.75s-3.59,7.52-9.87.58C126.4,130.33,133,141.43,136.27,129.75Z"/>
              <path class="cls-19" d="M131.34,137.65s-4.9,4.86-9.83-2.27l-1.31-2s1.23,5.93,6.2,7.7C126.4,141.08,130.56,141.47,131.34,137.65Z"/>
              <path class="cls-19" d="M144,138.89s-4.73,9.55-11.07-1.49c0,0,1.67,9.14,9,6.06A9.74,9.74,0,0,0,144,138.89Z"/>
              <path class="cls-19" d="M148.79,129.38s-2.39,7.93-8.52,2.49l-1.82-1.58s1.9,4.55,6.76,5A5.25,5.25,0,0,0,148.79,129.38Z"/>
              <path class="cls-19" d="M155.19,132.68s.16,8.79-4.52,9.56c0,0-3.76,1-6-3.35,0,0,0,3.43,5.24,5.62C150,144.51,156.5,145.36,155.19,132.68Z"/>
              <path class="cls-19" d="M149.21,147.63s-4.77,7.17-10.25,0c0,0,3.82,8.4,9.33,2.62A5,5,0,0,0,149.21,147.63Z"/>
              <path class="cls-19" d="M135.19,146.17s-6.59,9.56-12.14-1.81c0,0,1.27,8.09,7.59,7.67C130.64,152,134.92,150.64,135.19,146.17Z"/>
              <path class="cls-19" d="M158.85,144.94s-1.12,9.82-7.48,9c0,0-2.85-.07-3.74-1,0,0,2.87,5.82,7.73,2.74A13.39,13.39,0,0,0,158.85,144.94Z"/>
              <path class="cls-19" d="M145,155.76s-6.74,7.13-11.56-2.23c0,0,1.51,7.51,7.71,6.9A8.75,8.75,0,0,0,145,155.76Z"/>
              <path class="cls-19" d="M152.8,160s-4.24,7-10.37,2.51c0,0,3,6.12,8,1.69C150.41,164.2,152.64,161.54,152.8,160Z"/>
              <path class="cls-19" d="M157.23,159.08s-1.47,14.1-10.83,8.94c0,0-.08,4.62,5.74,3.73C152.14,171.75,158,169.48,157.23,159.08Z"/>
              <path class="cls-19" d="M146,168.74s-5.52,7.75-11.17.77c0,0,1.31,6.55,7.61,4.6A10.85,10.85,0,0,0,146,168.74Z"/>
              <path class="cls-19" d="M138.52,162.67s-6.38,8-11.33-3.85a9.93,9.93,0,0,0,3.93,7.68S135.59,169.17,138.52,162.67Z"/>
            </g>
          </g>
        </g>
        <path class="cls-20" d="M141.73,109.81l-8.81,7.81s1.74-2.86,1.51-4.32c0,0-6.53,8.38-17.29,7v-5.45l18.72-8.68A14.17,14.17,0,0,1,141.73,109.81Z"/>
      </g>
      <path class="cls-21" d="M19.32,76.23S20.62,38,67.26,22.91c0,0,43.64-13.67,73.35,26.45A55.32,55.32,0,0,1,150.9,76.23L148,72.73s9.15,23.48-13.92,39.78l.73-3.77s-8.13,10.13-25.17,7.47a34.16,34.16,0,0,1-23.3-12.91l-1.56-2.1S76.92,118,52.74,116.75c0,0-10.62.27-17.57-7.75a5.75,5.75,0,0,0,1.6,3.88s-13.9-5.95-16.16-24.53c0,0-1.54-8.77,1.28-15.63A5.57,5.57,0,0,0,19.32,76.23Z"/>
      <path class="cls-22" d="M19.71,72.85s17.8-67.31,88.56-48.22C108.27,24.63,51.59,5.13,19.71,72.85Z"/>
      <path class="cls-23" d="M20.61,87.33s4,13.77,11.56,17.26l-2.36-3.49s34.31,20.14,48-13L61.4,47.87,56.2,44s20.61,3.65,27,24.71c0,0,1.81,5.1,4.16-.06,0,0,6-21.59,27.54-24.89l-7.66,6.38,22.34-7.06s-4-10.13-8.82-12c0,0,26.4,13.74,29.79,44.56l-2.62-3s8.94,23.25-13.87,39.9l.83-4s-14.65,16.63-40.26,2.25c0,0-11.23-7.3-8.86-11a37.44,37.44,0,0,1-18.55,15s-22.1,6.7-32.14-6.26c0,0,.23,3.38,1.41,4.1C36.53,112.61,23,106.65,20.61,87.33Z"/>
      <g>
        <g>
          <g>
            <path class="cls-24" d="M58.11,47.67,40.7,45.51S36.84,47,36.77,50.73c0,0-8.48,3.9-3.78,13.86,0,0-7.94,7.41-.08,15,0,0-1.46,11.1,11.1,12,0,0,2.24,8,14,3.93,0,0,9.55,4.54,14.33-4.86,0,0,9.33-3.23,7.13-14,0,0,3.83-4.11-1.73-9.1S58.11,47.67,58.11,47.67Z"/>
            <g>
              <path class="cls-25" d="M36.54,50.16s-.24,3.44,3.9,6.65"/>
              <path class="cls-25" d="M36.41,50.57S27,57.08,33.72,65.45a6,6,0,0,0,4.36,2"/>
              <path class="cls-25" d="M33,64.92s-7.82,7.11-.12,14.7c0,0,4.59,2.63,8.63,0"/>
              <path class="cls-25" d="M33.05,79.85s-2,8.64,7.8,11.33c0,0,5.24,1,8.13-2.46"/>
              <path class="cls-25" d="M43.93,91.41s4.63,10.29,15,3.36A10.17,10.17,0,0,0,61.77,90"/>
              <path class="cls-25" d="M58.07,95.48s8.88,4.85,14.26-5a15.13,15.13,0,0,0,.77-5.58"/>
              <path class="cls-25" d="M72.3,90.67S81.49,88.85,79.69,77c0,0-.77-2-1.91-2.48"/>
              <path class="cls-25" d="M79.79,76.89s3.22-2.35-2-6.74"/>
            </g>
            <g>
              <path class="cls-26" d="M36.3,51a10.69,10.69,0,0,0,.7,2.24s-6.94,4.67-1,13.28c0,0-6-2-3.85-10.15A12.38,12.38,0,0,1,36.3,51Z"/>
              <path class="cls-26" d="M34.69,66.65a4.13,4.13,0,0,1-1.56-1.44s-7.08,6.48-.56,13.41c0,0,2.67,3.07,7.86,1.24,0,0-7.13,1.68-8-4.24A8.94,8.94,0,0,1,34.69,66.65Z"/>
              <path class="cls-26" d="M33.34,80.2l2.18.59S34.34,91,46.28,90.38a9.59,9.59,0,0,1-7.05,0S31.83,87.37,33.34,80.2Z"/>
              <path class="cls-26" d="M44.31,91.52s1-.23,2.3-.63c0,0,3.16,10.43,13.78,1.57a8.77,8.77,0,0,1-5.44,4S48.4,99.29,44.31,91.52Z"/>
              <path class="cls-26" d="M58.56,95.41s1.27-1,1.4-1.34c0,0,10,4.51,12.85-8A10.22,10.22,0,0,1,67.94,95,9.73,9.73,0,0,1,58.56,95.41Z"/>
              <path class="cls-26" d="M72.71,90.27s10.22-3.2,6-14.65c0,0,2.27,9-5.57,13.29Z"/>
            </g>
          </g>
          <g>
            <circle class="cls-27" cx="58.55" cy="68.44" r="19.61"/>
            <g>
              <g>
                <circle class="cls-28" cx="58.45" cy="68.73" r="17.31"/>
                <circle class="cls-29" cx="58.45" cy="68.67" r="15.03"/>
                <path class="cls-30" d="M71.82,75.53a14.47,14.47,0,0,0,.27-2.81,15,15,0,0,0-28.41-6.85,15,15,0,1,1,28.14,9.66Z"/>
              </g>
              <g>
                <circle class="cls-31" cx="58.72" cy="68.67" r="8.55"/>
                <circle class="cls-2" cx="55.2" cy="64.1" r="2.45"/>
                <circle class="cls-2" cx="58.55" cy="68.71" r="1.1"/>
                <path class="cls-32" d="M57.45,75.39a9.75,9.75,0,0,0,7.91-5.58S64.64,77,57.45,75.39Z"/>
              </g>
            </g>
          </g>
          <g>
            <path class="cls-24" d="M111.93,47.45l17.42-2.16s3.85,1.52,3.93,5.22c0,0,8.48,3.9,3.78,13.86,0,0,7.93,7.41.07,15,0,0,1.47,11.1-11.09,12,0,0-2.24,8-14,3.93,0,0-9.56,4.55-14.33-4.85,0,0-9.33-3.24-7.13-14,0,0-3.83-4.11,1.73-9.09S111.93,47.45,111.93,47.45Z"/>
            <g>
              <path class="cls-25" d="M133.51,49.94s.23,3.45-3.9,6.66"/>
              <path class="cls-25" d="M133.64,50.36s9.39,6.51,2.68,14.87a5.92,5.92,0,0,1-4.35,2"/>
              <path class="cls-25" d="M137,64.7s7.83,7.12.12,14.71c0,0-4.58,2.62-8.63,0"/>
              <path class="cls-25" d="M137,79.63s2,8.64-7.8,11.34c0,0-5.24,1-8.13-2.47"/>
              <path class="cls-25" d="M126.12,91.2s-4.63,10.29-15,3.35a10.19,10.19,0,0,1-2.85-4.74"/>
              <path class="cls-25" d="M112,95.26s-8.88,4.85-14.26-5a15.28,15.28,0,0,1-.78-5.59"/>
              <path class="cls-25" d="M97.75,90.46s-9.2-1.83-7.39-13.67c0,0,.77-2,1.9-2.49"/>
              <path class="cls-25" d="M90.25,76.67s-3.21-2.35,2-6.74"/>
            </g>
            <g>
              <path class="cls-26" d="M133.74,50.82a10.27,10.27,0,0,1-.69,2.23s6.94,4.68,1,13.28c0,0,6-2,3.85-10.14A12.36,12.36,0,0,0,133.74,50.82Z"/>
              <path class="cls-26" d="M135.35,66.44A4.3,4.3,0,0,0,136.92,65s7.07,6.48.56,13.42c0,0-2.68,3.06-7.86,1.23,0,0,7.13,1.68,7.95-4.23A8.92,8.92,0,0,0,135.35,66.44Z"/>
              <path class="cls-26" d="M136.71,80l-2.18.58s1.18,10.21-10.77,9.59a9.57,9.57,0,0,0,7,0S138.21,87.15,136.71,80Z"/>
              <path class="cls-26" d="M125.74,91.3s-1-.23-2.3-.63c0,0-3.17,10.43-13.78,1.57a8.72,8.72,0,0,0,5.43,4.05S121.65,99.07,125.74,91.3Z"/>
              <path class="cls-26" d="M111.49,95.2a7.91,7.91,0,0,1-1.41-1.34s-10,4.51-12.84-8a10.22,10.22,0,0,0,4.87,8.93A9.74,9.74,0,0,0,111.49,95.2Z"/>
              <path class="cls-26" d="M97.33,90.05s-10.21-3.19-6-14.64c0,0-2.28,9,5.56,13.28Z"/>
            </g>
          </g>
          <g>
            <circle class="cls-27" cx="112.25" cy="68.73" r="19.61"/>
            <g>
              <g>
                <circle class="cls-28" cx="111.98" cy="68.73" r="17.31"/>
                <circle class="cls-29" cx="111.98" cy="68.67" r="15.03"/>
                <path class="cls-30" d="M125.35,75.53a14.47,14.47,0,0,0,.27-2.81,15,15,0,0,0-28.4-6.85A15,15,0,0,1,127,68.67,14.82,14.82,0,0,1,125.35,75.53Z"/>
              </g>
              <g>
                <circle class="cls-31" cx="112.25" cy="68.67" r="8.55"/>
                <circle class="cls-2" cx="108.73" cy="64.1" r="2.45"/>
                <circle class="cls-2" cx="112.08" cy="68.71" r="1.1"/>
                <path class="cls-32" d="M111,75.39a9.75,9.75,0,0,0,7.91-5.58S118.17,77,111,75.39Z"/>
              </g>
            </g>
          </g>
          <g>
            <path class="cls-33" d="M84.92,107.73s6-4.81,6-18.14c0,0-.19-6.9-6-6.17,0,0-5.28-1-6.25,6.28C78.67,89.7,78.29,101,84.92,107.73Z"/>
            <path class="cls-34" d="M84.89,105.21s4.8-4.31,4.78-16.26c0,0-.15-6.19-4.78-5.54,0,0-4.19-.93-5,5.63C79.93,89,79.62,99.2,84.89,105.21Z"/>
            <path class="cls-26" d="M84.26,83.48l.83,20.39.72-20.39A2.25,2.25,0,0,0,84.26,83.48Z"/>
          </g>
        </g>
        <g>
          <path class="cls-35" d="M87.91,77.2s-.61-23.69,28-33.76c0,0-4.11,2.36-3.62,4.42,0,0,1-3.65,13.43-4.42,0,0,4.83-.26,6.79-3.13,0,0,.54,2.31-2.58,3.59,0,0,16.81.46,20-3.95,0,0-5,7-16.85,8.47,0,0,3.39,1.19,4.88,1,0,0-3.05,1.79-12.84-1.08a7.13,7.13,0,0,0,6,3.08s-.82,1.39-12.69,1.13c0,0-6.37-.2-8.17,2,0,0,2.67-.93,5.75,1.54C115.91,56.08,102.09,52.55,87.91,77.2Z"/>
          <path class="cls-36" d="M87.91,77.2s1-13.5,16.8-20.9c0,0-2.62-.74-4,.3,0,0,5.81-7.44,21-6.88a4.51,4.51,0,0,0-3.8-2s3.5-1.9,17-1.44c0,0,8.42-.82,11.7-3.49,0,0-4.82,4.56-14.07,5.64,0,0,4.14,1.48,5,1,0,0-1.55,1.73-12.67-1.22,0,0,1.32,3.18,5.79,3.28,0,0-.11,1.34-12.44,1.18,0,0-5.57-.28-8,1.82a6.56,6.56,0,0,1,5.59,1.64S101.62,52.61,87.91,77.2Z"/>
        </g>
        <g>
          <path class="cls-35" d="M82.57,77.2s.61-23.69-27.95-33.76c0,0,4.11,2.36,3.62,4.42,0,0-1-3.65-13.43-4.42,0,0-4.83-.26-6.78-3.13,0,0-.55,2.31,2.57,3.59,0,0-16.81.46-20-3.95,0,0,5,7,16.85,8.47,0,0-3.39,1.19-4.88,1,0,0,3.06,1.79,12.84-1.08a7.13,7.13,0,0,1-6,3.08s.83,1.39,12.69,1.13c0,0,6.37-.2,8.17,2,0,0-2.67-.93-5.75,1.54C54.57,56.08,68.39,52.55,82.57,77.2Z"/>
          <path class="cls-36" d="M82.57,77.2s-1-13.5-16.8-20.9c0,0,2.62-.74,4,.3,0,0-5.81-7.44-21-6.88a4.52,4.52,0,0,1,3.81-2s-3.51-1.9-17-1.44c0,0-8.42-.82-11.7-3.49,0,0,4.83,4.56,14.07,5.64,0,0-4.14,1.48-5,1,0,0,1.55,1.73,12.67-1.22,0,0-1.32,3.18-5.79,3.28,0,0,.11,1.34,12.44,1.18,0,0,5.57-.28,8,1.82a6.56,6.56,0,0,0-5.59,1.64S68.86,52.61,82.57,77.2Z"/>
        </g>
      </g>
      <g>
        <g>
          <ellipse class="cls-37" cx="54.65" cy="214.98" rx="6.58" ry="8.76"/>
          <path class="cls-38" d="M49.84,220s4,1.18,5-1.54c0,0-.77-8.07,2.41-11.41l1.49,1s1.83,11.62-.56,14.38C58.22,222.42,52.36,226.64,49.84,220Z"/>
          <path class="cls-39" d="M52.4,221.4s1.44-2.61,3.61,0c0,0,.91,4.78-2,5.65C54,227.05,51.4,225.48,52.4,221.4Z"/>
        </g>
        <g>
          <ellipse class="cls-37" cx="63.42" cy="215.46" rx="7.28" ry="10.2"/>
          <path class="cls-38" d="M58.22,221.19s5.55,3.75,5.75-.95c0,0-.87-8.76,3.24-13.18a2.54,2.54,0,0,1,1.4,1.9s2.6,14.65-3,15.9A5.85,5.85,0,0,1,58.22,221.19Z"/>
          <path class="cls-39" d="M61,221.61s1.7-3.08,4.27,0c0,0,1.08,5.65-2.37,6.68C62.92,228.29,59.84,226.44,61,221.61Z"/>
        </g>
        <g>
          <ellipse class="cls-37" cx="72.21" cy="216.28" rx="6.58" ry="8.76"/>
          <path class="cls-38" d="M78.79,216.28c0,4.84-2.94,8.58-6.58,8.58a5.29,5.29,0,0,1-4.67-2.72,9.37,9.37,0,0,0,3.06.67c3.63,0,5.7-3,5.7-7.86,0-2.77-.35-5.31-1.85-6.91C77,209.26,78.79,212.49,78.79,216.28Z"/>
          <path class="cls-39" d="M70.14,221.14s1.69-3.08,4.26,0c0,0,1.08,5.65-2.36,6.68C72,227.82,69,226,70.14,221.14Z"/>
        </g>
      </g>
      <g>
        <g>
          <ellipse class="cls-37" cx="115.37" cy="214.98" rx="6.58" ry="8.76"/>
          <path class="cls-38" d="M112,208.39s2.62,1.93,3.32,10.52c0,0,3.81,1.39,4.63-3.63,0,0,.93-5.36-1.56-7.9,0,0,3.79,2.37,3.43,8.75,0,0-.67,6-5.13,7.24,0,0-3.59.58-5.17-1.57Z"/>
          <path class="cls-39" d="M117.61,221.4s-1.43-2.61-3.6,0c0,0-.92,4.78,2,5.65C116,227.05,118.61,225.48,117.61,221.4Z"/>
        </g>
        <g>
          <ellipse class="cls-37" cx="106.59" cy="215.46" rx="7.28" ry="10.2"/>
          <path class="cls-38" d="M101.56,208.92s5,2.21,3.13,11.64c0,0,6,3.06,6.78-4.78,0,0,1.18-6.2-1.8-9.23,0,0,4.58,3,3.91,10.22,0,0-.67,7.22-6,8.7,0,0-3.6.3-5.5-2.27Z"/>
          <path class="cls-39" d="M109,221.61s-1.69-3.08-4.26,0c0,0-1.08,5.65,2.36,6.68C107.09,228.29,110.18,226.44,109,221.61Z"/>
        </g>
        <g>
          <ellipse class="cls-37" cx="97.8" cy="216.28" rx="6.58" ry="8.76"/>
          <path class="cls-38" d="M104.21,216.28c0,4.84-2.94,8.58-6.57,8.58A5.31,5.31,0,0,1,93,222.14a9.43,9.43,0,0,0,3.06.67c3.63,0,5.7-3,5.7-7.86,0-2.77-.35-5.31-1.85-6.91C102.4,209.26,104.21,212.49,104.21,216.28Z"/>
          <path class="cls-39" d="M99.88,221.14s-1.69-3.08-4.26,0c0,0-1.08,5.65,2.36,6.68C98,227.82,101.06,226,99.88,221.14Z"/>
        </g>
      </g>
    </g>
  </g>
</svg>
