<svg xmlns="http://www.w3.org/2000/svg" xmlns:xlink="http://www.w3.org/1999/xlink" width="333.96" height="286.04" viewBox="0 0 333.96 286.04">
  <defs>
    <style>
      .cls-1, .cls-17, .cls-25, .cls-3 {
        fill: none;
      }

      .cls-2 {
        isolation: isolate;
      }

      .cls-3 {
        stroke: #000;
        stroke-width: 15px;
        opacity: 0.5;
      }

      .cls-3, .cls-4 {
        stroke-linejoin: round;
      }

      .cls-4 {
        fill: #ffef5f;
        stroke: #fffa4d;
        stroke-width: 24px;
      }

      .cls-5 {
        fill: #3d8ea1;
      }

      .cls-6 {
        fill: #7bb8d5;
      }

      .cls-7 {
        fill: #9ad0e8;
      }

      .cls-8 {
        fill: #d8f4ff;
      }

      .cls-9 {
        fill: #fcffff;
      }

      .cls-10 {
        fill: #fffffb;
      }

      .cls-11 {
        fill: #2790ad;
      }

      .cls-12 {
        fill: #74b7d1;
      }

      .cls-13 {
        fill: #99d1ec;
      }

      .cls-14 {
        fill: #d3f5ff;
      }

      .cls-15 {
        fill: #fffcfc;
      }

      .cls-16 {
        fill: #41a022;
      }

      .cls-17 {
        stroke: #38841c;
        stroke-width: 0.65px;
      }

      .cls-17, .cls-25 {
        stroke-miterlimit: 10;
      }

      .cls-18 {
        opacity: 0.32;
      }

      .cls-19 {
        clip-path: url(#clip-path);
      }

      .cls-20 {
        fill: #204910;
      }

      .cls-21 {
        opacity: 0.51;
      }

      .cls-22 {
        clip-path: url(#clip-path-2);
      }

      .cls-23 {
        fill: #8fc12f;
      }

      .cls-24 {
        fill: #48bc28;
      }

      .cls-25 {
        stroke: #45a525;
        stroke-width: 1.3px;
      }

      .cls-26 {
        mix-blend-mode: screen;
        opacity: 0.69;
      }

      .cls-27 {
        clip-path: url(#clip-path-3);
      }

      .cls-28 {
        fill: #b0e573;
      }

      .cls-29 {
        clip-path: url(#clip-path-4);
      }

      .cls-30 {
        clip-path: url(#clip-path-5);
      }

      .cls-31 {
        clip-path: url(#clip-path-6);
      }

      .cls-32 {
        clip-path: url(#clip-path-7);
      }

      .cls-33 {
        clip-path: url(#clip-path-8);
      }

      .cls-34 {
        clip-path: url(#clip-path-9);
      }

      .cls-35 {
        clip-path: url(#clip-path-10);
      }

      .cls-36 {
        clip-path: url(#clip-path-11);
      }

      .cls-37 {
        clip-path: url(#clip-path-12);
      }

      .cls-38 {
        clip-path: url(#clip-path-13);
      }

      .cls-39 {
        clip-path: url(#clip-path-14);
      }

      .cls-40 {
        fill: #b6f261;
      }

      .cls-41 {
        clip-path: url(#clip-path-15);
      }

      .cls-42 {
        fill: #73b5cb;
      }

      .cls-43 {
        fill: #92ceea;
      }

      .cls-44 {
        fill: #fefefe;
      }

      .cls-45 {
        fill: #fffffa;
      }
    </style>
    <clipPath id="clip-path">
      <rect id="SVGID" class="cls-1" x="14.76" y="28.8" width="57.67" height="15.27" transform="translate(-6.38 9.41) rotate(-11.48)"/>
    </clipPath>
    <clipPath id="clip-path-2">
      <rect id="SVGID-2" data-name="SVGID" class="cls-1" x="19.68" y="24.52" width="42.6" height="12.02" transform="translate(-5.26 8.77) rotate(-11.48)"/>
    </clipPath>
    <clipPath id="clip-path-3">
      <rect id="SVGID-3" data-name="SVGID" class="cls-1" x="132.21" y="119.04" width="17.2" height="88.56" transform="translate(-29.7 31.3) rotate(-11.48)"/>
    </clipPath>
    <clipPath id="clip-path-4">
      <rect id="SVGID-4" data-name="SVGID" class="cls-1" x="92.67" y="81.27" width="12.25" height="118.73" transform="translate(-26.02 22.48) rotate(-11.48)"/>
    </clipPath>
    <clipPath id="clip-path-5">
      <rect id="SVGID-5" data-name="SVGID" class="cls-1" x="59.89" y="39.29" width="20.5" height="128.56" transform="translate(-19.22 16.04) rotate(-11.48)"/>
    </clipPath>
    <clipPath id="clip-path-6">
      <rect id="SVGID-6" data-name="SVGID" class="cls-1" x="176.25" y="146.25" width="19.71" height="58.62" transform="translate(-31.23 40.56) rotate(-11.48)"/>
    </clipPath>
    <clipPath id="clip-path-7">
      <rect id="SVGID-7" data-name="SVGID" class="cls-1" x="224.76" y="171.55" width="5.58" height="26.42" transform="translate(-32.23 49) rotate(-11.48)"/>
    </clipPath>
    <clipPath id="clip-path-8">
      <rect id="SVGID-8" data-name="SVGID" class="cls-1" x="81.98" y="60.17" width="110.36" height="11.97" transform="translate(-10.43 28.63) rotate(-11.48)"/>
    </clipPath>
    <clipPath id="clip-path-9">
      <rect id="SVGID-9" data-name="SVGID" class="cls-1" x="110.69" y="86.71" width="96.52" height="14.86" transform="translate(-15.56 33.53) rotate(-11.48)"/>
    </clipPath>
    <clipPath id="clip-path-10">
      <rect id="SVGID-10" data-name="SVGID" class="cls-1" x="142.44" y="117.89" width="85.39" height="15.92" transform="translate(-21.35 39.38) rotate(-11.48)"/>
    </clipPath>
    <clipPath id="clip-path-11">
      <rect id="SVGID-11" data-name="SVGID" class="cls-1" x="221.08" y="166.27" width="39.84" height="4.92" transform="translate(-28.77 51.36) rotate(-11.48)"/>
    </clipPath>
    <clipPath id="clip-path-12">
      <rect id="SVGID-12" data-name="SVGID" class="cls-1" x="67.7" y="32.86" width="88.24" height="5.29" transform="translate(-4.83 22.97) rotate(-11.48)"/>
    </clipPath>
    <clipPath id="clip-path-13">
      <rect id="SVGID-13" data-name="SVGID" class="cls-1" x="171.82" y="142.63" width="73.2" height="17.64" transform="translate(-25.98 44.53) rotate(-11.48)"/>
    </clipPath>
    <clipPath id="clip-path-14">
      <rect id="SVGID-14" data-name="SVGID" class="cls-1" x="83.41" y="0.36" width="179.85" height="204.91" transform="translate(-17 36.57) rotate(-11.48)"/>
    </clipPath>
    <clipPath id="clip-path-15">
      <rect id="SVGID-15" data-name="SVGID" class="cls-1" x="29.28" y="21.64" width="228.83" height="191.68" transform="translate(-20.51 30.96) rotate(-11.48)"/>
    </clipPath>
  </defs>
  <g class="cls-2">
    <g id="Layer_1" data-name="Layer 1">
      <g>
        <path class="cls-3" d="M300.33,213.12c-6.63-5.35-7.32-13-6.63-15.09.09-.41.15-.71.21-1a38,38,0,0,1,4.15.38c-.18,0-.43-.09-.75-.18l-3.3-.7,0-.14.9.18,3.16.66c-1.19-.31-3.7-1.53-7.28-4-1.89-1.65-3.54-3-5-4.08,2.74,2.37,4.48,3.68,4.94,4a96,96,0,0,1-7.85-6.06c.92.61,1.88,1.28,2.91,2-9-7.73-28.63-26.77-49.18-60.17,0,0-24.48-42-29-48.8-12.35-18.43-17.06-34.12-43.71-46.31l-.36-1.79-2.54.51a142.62,142.62,0,0,0-13.82-5s-29.14-8.76-50.49-4C81.41,26.8,75,35.08,76,41.77c-1.24-.53-2.6-1.08-4.06-1.63l.09,0A78.15,78.15,0,0,0,61.16,36.7c-10.25-2.62-22.38-3.81-32.88.38l-.07,0h0l-4.58,9.54S41,36.83,70.26,43.41C53.1,45.59,33.9,60.39,30,78.09a41.61,41.61,0,0,0-.21,13.17A73.12,73.12,0,0,0,37.5,120a1.08,1.08,0,0,0,.08.19,157.19,157.19,0,0,0,12.64,24.86C76,187.32,109.62,201,123.41,205a138,138,0,0,0,14.16,4.14,109.9,109.9,0,0,0,18,3.1,162.36,162.36,0,0,0,19.14,1c2.63,0,5.22-.1,7.8-.2l0,0a1.54,1.54,0,0,0,.09.19c1.79,3.53,16.63,30.61,49.13,28.2,1.62-.12,3.29-.31,5-.58,1-.22,1.91-.45,2.83-.71C267,232.79,280.41,209,285,198.91c1.59,2.28,3.44,7,.92,15.27-4.55,9.26-14.14,25.36-10.4,42.7a22.77,22.77,0,0,0,12.64,16.33c.64.31,1.29.59,1.94.84a25.35,25.35,0,0,0,14.14,1.3c8.51-2,20-5.92,19.76-27.86C322.15,231.86,308.67,220.08,300.33,213.12Zm-8-16.93q-2.55-.56-5.29-1.18c1.89.4,3.78.77,5.67,1.14Z"/>
        <path class="cls-4" d="M291.33,205.13c-6.63-5.36-7.32-13-6.62-15.1.08-.4.15-.71.2-1a38.07,38.07,0,0,1,4.16.37,6.5,6.5,0,0,1-.75-.17l-3.3-.71,0-.14.9.19,3.16.66a29.94,29.94,0,0,1-7.29-4c-1.88-1.65-3.53-3-5-4.08,2.74,2.37,4.48,3.68,4.94,4a92.68,92.68,0,0,1-7.85-6.06c.91.61,1.88,1.28,2.91,2.05-9-7.74-28.63-26.78-49.18-60.17,0,0-24.48-42.05-29-48.8-12.34-18.44-17-34.13-43.7-46.31l-.36-1.8-2.54.52a144.58,144.58,0,0,0-13.82-5s-29.15-8.76-50.5-4C72.42,18.8,66,27.09,67,33.77c-1.24-.52-2.6-1.07-4.06-1.63l.09,0a80.28,80.28,0,0,0-10.89-3.46c-10.25-2.62-22.38-3.81-32.88.38l-.08,0h0l-4.58,9.55s17.42-9.82,46.64-3.24C44.1,37.6,24.91,52.39,21,70.09a42.27,42.27,0,0,0-.21,13.18A73.32,73.32,0,0,0,28.5,112a1.08,1.08,0,0,1,.08.19,157.71,157.71,0,0,0,12.65,24.86C67,179.32,100.63,193,114.41,197a138.16,138.16,0,0,0,14.17,4.14,108.54,108.54,0,0,0,18,3.1,164.77,164.77,0,0,0,19.15,1q3.93,0,7.8-.2v0a1.5,1.5,0,0,1,.09.18c1.8,3.53,16.63,30.61,49.14,28.21,1.62-.12,3.28-.32,5-.59,1-.21,1.91-.44,2.83-.7C258,224.79,271.41,201,276,190.92c1.6,2.27,3.45,7,.93,15.27-4.56,9.25-14.14,25.35-10.41,42.69a22.8,22.8,0,0,0,12.64,16.33q1,.46,1.95.84a25.25,25.25,0,0,0,14.13,1.31c8.51-2,20-5.93,19.77-27.87C313.15,223.87,299.68,212.09,291.33,205.13Zm-8-16.93q-2.55-.55-5.28-1.18c1.88.39,3.77.76,5.66,1.14Z"/>
        <g>
          <g>
            <path class="cls-5" d="M277.9,186.32s-12.25,36.4-47.28,45.83c27.92-12.88,37.78-43.85,37.78-43.85l-94.83,16.75-.09-.2Z"/>
            <path class="cls-6" d="M268.4,188.3s-9.86,31-37.78,43.85c-.92.26-1.87.49-2.83.7-1.71.27-3.37.47-5,.59,19.85-9.59,30.33-28.31,34.55-37.71a3.34,3.34,0,0,0-3.63-4.64l-80.06,14.14a1.5,1.5,0,0,0-.09-.18Z"/>
            <path class="cls-7" d="M257.35,195.73c-4.22,9.4-14.7,28.12-34.55,37.71-32.51,2.4-47.34-24.68-49.14-28.21l80.06-14.14A3.34,3.34,0,0,1,257.35,195.73Z"/>
            <path class="cls-8" d="M179.48,204.41s41.3-6.71,59.89,2.53c4.25,2.2-6.6,16.54-20.22,17S184.6,218.62,179.48,204.41Z"/>
            <path class="cls-9" d="M206.86,215.71s2-5,4.25-5.42,22.84,0,23.14,1.48-2.21,8-13.63,8S206.86,215.71,206.86,215.71Z"/>
            <path class="cls-10" d="M208.62,209.26s-9.66-2.64-12.59-2-5.86,1.16-6.45,2,11,5.43,14.2,6.31S208.62,209.26,208.62,209.26Z"/>
          </g>
          <g>
            <path class="cls-11" d="M315,239.49c.2,21.94-11.26,25.9-19.77,27.87a25.25,25.25,0,0,1-14.13-1.31,24.19,24.19,0,0,0,10.87.29c8.51-2,20-5.93,19.76-27.86-1.86-15.63-15.34-27.41-23.68-34.37-6.63-5.36-7.32-13-6.63-15.1l.14-.62,3.56-.39-.43,2c-.7,2.09,0,9.74,6.62,15.1C299.68,212.09,313.15,223.87,315,239.49Z"/>
            <path class="cls-12" d="M311.75,238.48c.2,21.93-11.25,25.89-19.76,27.86a24.19,24.19,0,0,1-10.87-.29q-1-.37-1.95-.84a23.87,23.87,0,0,0,9.82.06c8.51-2,20-5.93,19.77-27.87-1.87-15.62-15.34-27.4-23.69-34.36-5.95-4.81-7.12-11.47-6.78-14.29l3.29-.36-.14.62c-.69,2.09,0,9.74,6.63,15.1C296.41,211.07,309.89,222.85,311.75,238.48Z"/>
            <path class="cls-13" d="M308.76,237.4c.2,21.94-11.26,25.89-19.77,27.87a23.87,23.87,0,0,1-9.82-.06,22.8,22.8,0,0,1-12.64-16.33c-3.73-17.34,5.85-33.44,10.41-42.69,3.86-12.73-2.56-17-2.56-17l3.91-.42c-.34,2.82.83,9.48,6.78,14.29C293.42,210,306.89,221.78,308.76,237.4Z"/>
            <g>
              <path class="cls-14" d="M279.94,205.87S264.35,231,269.32,246.1s11.92,16.54,20.75,14.78S300,245,296.93,236.7,282.4,207.05,279.94,205.87Z"/>
              <path class="cls-15" d="M275.65,217.85s-14.9,28.57,3,40c1.87,1,2.84-2.51,2.78-2.78S277.3,222,275.65,217.85Z"/>
            </g>
          </g>
          <g>
            <path class="cls-16" d="M74.94,37.54s-32-17.94-55.73-8.43l-4.58,9.55S36.37,26.38,72,38.45Z"/>
            <path class="cls-17" d="M74.94,37.54s-32-17.94-55.73-8.43l-4.58,9.55S36.37,26.38,72,38.45Z"/>
            <g class="cls-18">
              <g class="cls-19">
                <path class="cls-20" d="M14.63,38.66S36,25.73,72,38.45L73.35,38S35.73,22.8,15.5,36.86Z"/>
              </g>
            </g>
            <g class="cls-21">
              <g class="cls-22">
                <path class="cls-23" d="M19.21,29.11s18.56-7,43.85,3.06c0,0-22.6-7.7-44-2.61Z"/>
              </g>
            </g>
            <path class="cls-24" d="M116.29,115.11C46.67,49.44,67.35,35.19,67.35,35.19c-3.8-11.79,17-30.66,71.53-14.54,41.77,12.36,48.38,33.8,80.38,88.42,36,61.4,64.76,78.84,69.85,80.2-31.67-6.66-120.85-25.15-172.82-74.16"/>
            <path class="cls-25" d="M116.29,115.11C46.67,49.44,67.35,35.19,67.35,35.19c-3.8-11.79,17-30.66,71.53-14.54,41.77,12.36,48.38,33.8,80.38,88.42,36,61.4,64.76,78.84,69.85,80.2C257.44,182.61,168.26,164.12,116.29,115.11Z"/>
            <path class="cls-16" d="M21,70.09c4.37-19.83,27.93-36,46.34-34.9,0,0-.82,46.08,71.3,93.72,59.6,39.37,118,53.7,149.67,60.36a6.5,6.5,0,0,0,.75.17c-22.63-3.47-68.27,15.31-123.31,15.78C53.63,206.15,14.89,97.94,21,70.09"/>
            <path class="cls-17" d="M21,70.09c4.37-19.83,27.93-36,46.34-34.9,0,0-.82,46.08,71.3,93.72,59.6,39.37,118,53.7,149.67,60.36a6.5,6.5,0,0,0,.75.17c-22.63-3.47-68.27,15.31-123.31,15.78C53.63,206.15,14.89,97.94,21,70.09Z"/>
            <g class="cls-26">
              <g class="cls-27">
                <path class="cls-28" d="M158.05,205s-.11-.22-.41-.55l-1.35-1.51a45.25,45.25,0,0,1-4.71-6.6A76.56,76.56,0,0,1,146,184.5c-1.84-4.81-3.6-10.47-5.37-17-1.27-4.66-2.57-9.8-3.92-14.92s-2.77-10.25-4.37-14.87a57.67,57.67,0,0,0-5.24-11.65,24.31,24.31,0,0,0-2.47-3.31l-.45-.49c-.14-.13-.25-.24-.34-.34l-.28-.27.27.28.34.34.43.49a23.26,23.26,0,0,1,2.39,3.32,56.1,56.1,0,0,1,4.93,11.54c1.47,4.57,2.77,9.65,4,14.74s2.46,10.21,3.7,14.87A169.15,169.15,0,0,0,145,184.34a72.28,72.28,0,0,0,5.8,12.09,39.38,39.38,0,0,0,5.13,6.74,19.37,19.37,0,0,0,1.55,1.44c.35.29.53.42.56.39"/>
              </g>
            </g>
            <g class="cls-26">
              <g class="cls-29">
                <path class="cls-28" d="M84.5,83a29.3,29.3,0,0,0,1.67,2.89,30.15,30.15,0,0,1,1.64,3.78,47,47,0,0,1,1.53,5.52,124.68,124.68,0,0,1,2.12,16.22c.52,6.59.88,14.37,1.6,23.56a204.36,204.36,0,0,0,2.65,21.16,97.86,97.86,0,0,0,6.2,21.16,62.67,62.67,0,0,0,4.63,8.74,51.74,51.74,0,0,0,4.85,6.47c.74.87,1.48,1.6,2.09,2.26l1.68,1.59,1.46,1.28-1.44-1.31c-.45-.44-1-1-1.63-1.62s-1.33-1.4-2-2.28a52.78,52.78,0,0,1-4.68-6.5,62.08,62.08,0,0,1-4.41-8.71,97.64,97.64,0,0,1-5.75-21c-1.23-7.27-1.89-14.51-2.37-21-.65-9.15-1-16.92-1.52-23.54a111,111,0,0,0-2.3-16.43,42.28,42.28,0,0,0-1.76-5.67,26.19,26.19,0,0,0-1.93-3.9c-1.28-2-2.21-2.75-2.28-2.69"/>
              </g>
            </g>
            <g class="cls-26">
              <g class="cls-30">
                <path class="cls-28" d="M66.26,38.77c-.17.13.5,1,.83,3.23a50.26,50.26,0,0,1,.09,10.37c-.3,4.72-.94,10.73-1.69,18.16s-1.6,16.25-2,26.67a193.47,193.47,0,0,0,.54,23.86c.39,4.09.93,8.17,1.65,12.1a104.94,104.94,0,0,0,2.71,11.2,83.35,83.35,0,0,0,3.5,9.54,77.91,77.91,0,0,0,3.65,7.24c1.16,2,2.16,3.5,2.88,4.53l1.12,1.58-1.07-1.61c-.69-1-1.64-2.61-2.74-4.6a77.09,77.09,0,0,1-3.42-7.3,84.43,84.43,0,0,1-3.23-9.55A105.72,105.72,0,0,1,66.7,133c-.63-3.9-1.09-8-1.38-12a209,209,0,0,1-.19-23.67C65.59,87,66.5,78.2,67.21,70.78s1.3-13.45,1.48-18.25,0-8.36-.67-10.68A7.76,7.76,0,0,0,67,39.37c-.36-.49-.62-.65-.69-.6"/>
              </g>
            </g>
            <g class="cls-26">
              <g class="cls-31">
                <path class="cls-28" d="M170.62,148.8a9.54,9.54,0,0,0,1,1.38,33.25,33.25,0,0,1,2.71,4.31c1.07,2,2.27,4.49,3.61,7.58s2.85,6.76,4.67,11.07c1.29,3.06,2.79,6.47,4.46,9.88a86,86,0,0,0,5.58,9.86,47.8,47.8,0,0,0,3.08,4.11,32.07,32.07,0,0,0,2.9,3,24.74,24.74,0,0,0,2.14,1.74l.59.42.21.14-.21-.15c-.13-.09-.33-.23-.58-.43a24.31,24.31,0,0,1-2.1-1.78,32.34,32.34,0,0,1-2.8-3,43,43,0,0,1-2.93-4.08,83.85,83.85,0,0,1-5.29-9.75c-1.59-3.38-3-6.76-4.28-9.81-1.77-4.29-3.25-8-4.62-11.07A79.06,79.06,0,0,0,175,154.5q-.87-1.53-1.65-2.64A19.07,19.07,0,0,0,172,150c-.82-.93-1.31-1.29-1.35-1.24"/>
              </g>
            </g>
            <g class="cls-26">
              <g class="cls-32">
                <path class="cls-28" d="M222.27,172.37c-.1.1,0,.35.2.76.11.2.23.48.41.79s.35.7.52,1.18a20.69,20.69,0,0,1,1,3.8c.31,1.62.52,3.63.79,6a40.11,40.11,0,0,0,.88,5.32,11.29,11.29,0,0,0,2.14,4.56,6.4,6.4,0,0,0,3.12,2l.63.18.49.08.42.06-.4-.1-.47-.12-.6-.23a6.2,6.2,0,0,1-2.81-2.25,11.76,11.76,0,0,1-1.75-4.6c-.35-1.77-.5-3.65-.66-5.34-.21-2.38-.42-4.44-.74-6.11a15,15,0,0,0-1.23-3.89,7.14,7.14,0,0,0-.68-1.14,5.72,5.72,0,0,0-.62-.69c-.37-.31-.6-.4-.69-.31"/>
              </g>
            </g>
            <g class="cls-26">
              <g class="cls-33">
                <path class="cls-28" d="M83.81,80.49c-.15.21.34.82,2,1.2s4.56.25,8.73-.83a130.62,130.62,0,0,0,16.16-5.73c6.63-2.71,14.5-6.19,23.64-9.83A215.28,215.28,0,0,1,155,58.11a81.53,81.53,0,0,1,19.38-3.37,37.79,37.79,0,0,1,13,1.63,29.77,29.77,0,0,1,3.31,1.36l1.14.58-1.08-.65a30.73,30.73,0,0,0-3.19-1.57,35.28,35.28,0,0,0-12.81-2.3,75.92,75.92,0,0,0-19.4,2.69,189.08,189.08,0,0,0-20.77,6.83c-9.19,3.56-17.07,7-23.66,9.72a164.74,164.74,0,0,1-16,5.9,30.8,30.8,0,0,1-8.55,1.52c-1.71,0-2.45-.23-2.64,0"/>
              </g>
            </g>
            <g class="cls-26">
              <g class="cls-34">
                <path class="cls-28" d="M112.94,110.11c0,.09.24.16.69.21.22,0,.5,0,.85.05a8.23,8.23,0,0,0,1.19,0,31.24,31.24,0,0,0,8-1.86,97.12,97.12,0,0,0,12.56-5.69c4.95-2.56,10.63-5.81,17.47-9.32,2.43-1.26,5-2.52,7.72-3.77s5.49-2.42,8.37-3.45a74.55,74.55,0,0,1,8.69-2.62c1.44-.38,2.91-.61,4.33-.87.71-.14,1.43-.2,2.13-.29s1.39-.21,2.09-.22c1.38-.08,2.72-.21,4-.16l1.89,0,1.82.14c.59.06,1.15.09,1.71.15s1.08.18,1.6.25l1.49.24,1.35.31c.85.22,1.63.37,2.29.58l1.69.54,1.42.47-1.4-.52-1.67-.61c-.66-.23-1.44-.42-2.28-.66l-1.35-.37-1.5-.29-1.6-.31c-.56-.09-1.14-.14-1.74-.21s-1.2-.15-1.83-.21L191,81.52c-1.32-.09-2.68,0-4.09,0-.72,0-1.42.11-2.14.16s-1.46.11-2.19.22c-1.46.22-3,.42-4.45.76a74,74,0,0,0-8.94,2.42c-3,1-5.82,2.12-8.59,3.29s-5.4,2.44-7.86,3.68c-6.94,3.47-12.66,6.7-17.56,9.25a123,123,0,0,1-12.24,5.79,46.26,46.26,0,0,1-7.5,2.31,8.08,8.08,0,0,1-1.09.22l-.79.17c-.41.11-.62.21-.61.31"/>
              </g>
            </g>
            <g class="cls-26">
              <g class="cls-35">
                <path class="cls-28" d="M142.47,129.13c-.35.4-.11,1,.95,1.5s3.21.75,6.65.36a92.71,92.71,0,0,0,14.36-3.26c6.14-1.78,13.66-4.28,22.19-6.83a163.57,163.57,0,0,1,18.61-4.62c6-1.07,11.29-1.16,15-.12a10.44,10.44,0,0,1,6.9,5.31c.22.55.47,1,.62,1.44s.23.9.31,1.23c.16.69.25,1.06.25,1.06s0-.43-.13-1.17l-.15-1.37c-.11-.5-.29-1-.45-1.62a10.28,10.28,0,0,0-6-6.44c-3.46-1.46-8.53-1.79-14.38-1.07a121.73,121.73,0,0,0-18.33,3.92c-8.48,2.39-16,4.81-22.05,6.59a144,144,0,0,1-14.4,3.67c-7.06,1.32-9.14.47-10,1.42"/>
              </g>
            </g>
            <g class="cls-26">
              <g class="cls-36">
                <path class="cls-28" d="M221.11,170.81c-.05.17.26.38,1,.6a11.82,11.82,0,0,0,3.46.3,19.46,19.46,0,0,0,2.62-.31c1-.19,2-.43,3.13-.76,2.24-.63,4.77-1.54,7.78-2.4a53.4,53.4,0,0,1,7-1.56,43.47,43.47,0,0,1,7.18-.39,49.61,49.61,0,0,1,5.55.51c.69.1,1.24.21,1.62.27l.58.1-.57-.16c-.36-.09-.91-.25-1.58-.41a46.88,46.88,0,0,0-5.56-1,39.78,39.78,0,0,0-7.44-.11,43.51,43.51,0,0,0-7.36,1.28c-3.13.82-5.69,1.71-7.85,2.33a32.17,32.17,0,0,1-5.32,1.18c-2.8.33-4.14.1-4.22.5"/>
              </g>
            </g>
            <g class="cls-26">
              <g class="cls-37">
                <path class="cls-28" d="M68.09,41.79c-.08.21.55.62,2,1.17a25.33,25.33,0,0,0,7.2,1,62.73,62.73,0,0,0,12.55-1.34c5.05-1,11-2.56,17.79-4.58,9.69-2.86,21.39-6.74,31-8.51,2.4-.47,4.65-.77,6.67-1,1-.08,2-.17,2.87-.23s1.72,0,2.47-.06l2,.06c.59,0,1.09.09,1.5.11l1.28.12-1.27-.19c-.4-.05-.9-.16-1.49-.2s-1.27-.1-2-.17L148.17,28c-.9,0-1.87,0-2.9.07-2.05.14-4.33.32-6.75.69-9.73,1.34-21.64,4.77-31.34,7.48-6.83,1.92-12.69,3.42-17.65,4.43a75.18,75.18,0,0,1-12.17,1.54c-6.34.18-9.08-.92-9.27-.37"/>
              </g>
            </g>
            <g class="cls-26">
              <g class="cls-38">
                <path class="cls-28" d="M171,150.23c-.28.32,0,.82.94,1.37a13.5,13.5,0,0,0,5.85.78,75.84,75.84,0,0,0,12.36-1.84c5.26-1.12,11.68-2.77,19-4.39a131.22,131.22,0,0,1,16-2.71c5.2-.51,9.82-.22,13.17.94a11.36,11.36,0,0,1,6.42,5.11c.24.48.48.89.65,1.29s.26.79.35,1.09c.19.61.3.94.3.94s-.06-.37-.19-1q-.11-.48-.24-1.2c-.12-.44-.32-.9-.5-1.44a11.24,11.24,0,0,0-5.72-6c-3.13-1.51-7.6-2.16-12.68-1.94a100.28,100.28,0,0,0-15.8,2.13c-7.26,1.48-13.65,3.07-18.87,4.2a115.9,115.9,0,0,1-12.37,2.18c-6.1.65-8-.24-8.65.54"/>
              </g>
            </g>
            <path class="cls-28" d="M67.35,35.19a41.71,41.71,0,0,0,.8,8.78,67.31,67.31,0,0,0,2.13,8.53,91.26,91.26,0,0,0,6.88,16.07,129.69,129.69,0,0,0,21,27.83c16.3,16.71,35.9,29.93,56.37,41.24,1.26.75,2.56,1.43,3.86,2.1l3.9,2,3.89,2,2,1,2,.95,7.95,3.78c1.33.62,2.64,1.28,4,1.86l4,1.77,8.07,3.55c1.33.62,2.7,1.16,4.07,1.7l4.09,1.64,8.19,3.29c2.73,1.08,5.51,2.07,8.26,3.11,22.07,8.23,44.6,15.31,67.27,22.13a542.81,542.81,0,0,1-68.78-17.85c-2.81-.94-5.65-1.83-8.45-2.81l-8.34-3.12-4.18-1.56c-1.39-.52-2.78-1-4.15-1.62l-8.24-3.41-4.12-1.72c-1.37-.58-2.7-1.24-4.06-1.86l-8.09-3.77-2-.95-2-1-4-2-4-2c-1.33-.68-2.66-1.34-3.95-2.1l-7.75-4.46L142,137.16l-1.9-1.19-3.78-2.39c-2.53-1.6-5.07-3.17-7.49-4.92s-4.94-3.37-7.32-5.18L114.42,118c-2.31-1.91-4.55-3.89-6.83-5.83-1.16-1-2.22-2-3.31-3L101,106c-1.1-1-2.12-2.12-3.14-3.22l-3.07-3.29c-1-1.07-2-2.25-2.95-3.39L89,92.65c-.94-1.17-1.81-2.39-2.72-3.58l-1.34-1.81c-.46-.6-.89-1.21-1.29-1.84-1.64-2.52-3.35-5-4.79-7.62s-2.88-5.27-4.22-8a89.46,89.46,0,0,1-5.89-16.94,52.48,52.48,0,0,1-1.38-17.72"/>
            <g class="cls-21">
              <g class="cls-39">
                <path class="cls-40" d="M67.15,31.79s69.31-35.69,118.9,28c10.93,14,17.61,41.5,28.41,55.63,53.07,69.45,48.75,53.55,67.4,69.89,0,0-26.32-18.89-54.25-64.28,0,0-24.48-42.05-29-48.8C184,50.48,180.11,32.54,138.18,19.68c0,0-60.52-18.2-71,12.11"/>
              </g>
            </g>
            <g class="cls-18">
              <g class="cls-41">
                <path class="cls-20" d="M54.24,37.85s-37.73,23.29-14.9,79.54c0,0,51.05,94.63,139.38,82.92,0,0,83.93-14.34,96.18-11.69,0,0-19,1.9-50.93,10.35,0,0-68.43,13.9-103.24-.43,0,0-59.79-9-92.23-86.51,0,0-29.18-53.67,25.74-74.18"/>
              </g>
            </g>
          </g>
          <g>
            <path class="cls-42" d="M168.2,100.32c-2,9.85-8.32,25.65-42.71,30.11-20.73,2.7-33.47-3.73-40.32-9.25a16.62,16.62,0,0,1-6.1-11.25c5.39,6.47,21,19.89,53.75,12.15,27.77-7.88,30.73-14.63,33.89-28.82A10.84,10.84,0,0,1,168.2,100.32Z"/>
            <path class="cls-43" d="M134.58,72.8c-14.43-.74-51.2-.75-55.48,33.4a16.06,16.06,0,0,0,0,3.73c5.39,6.47,21,19.89,53.75,12.15,27.77-7.88,30.73-14.63,33.89-28.82h0C161.8,84,146.76,73.41,134.58,72.8Zm24.67,25.62c-12.66,15.09-53,15.24-53,15.24-7.54,1.92-18-2.9-20.22-7.72S82.9,84.52,105.62,77.86A69.58,69.58,0,0,1,149.47,79C153,80.32,161.85,91.37,159.25,98.42Z"/>
            <path class="cls-14" d="M149.47,79a69.58,69.58,0,0,0-43.85-1.16C82.9,84.52,83.82,101.11,86,105.94s12.68,9.64,20.22,7.72c0,0,40.33-.15,53-15.24C161.85,91.37,153,80.32,149.47,79ZM124.24,91.81c-5.83,3-25.44,6.37-29.77,4.06s-.61-11.06,8-14.69,25.54-7.27,32.29-2C134.79,79.23,130.07,88.79,124.24,91.81ZM139,90.69c-6.53,1.12-10.06-.19-9-1.9s6.53-9.36,6.53-9.36c4.52.5,9.76,2.91,9.46,5.62S145.56,89.58,139,90.69Z"/>
            <path class="cls-44" d="M134.79,79.23s-4.72,9.56-10.55,12.58S98.8,98.18,94.47,95.87s-.61-11.06,8-14.69S128,73.91,134.79,79.23Z"/>
            <path class="cls-45" d="M146.06,85.05c-.3,2.72-.5,4.53-7,5.64s-10.06-.19-9-1.9,6.53-9.36,6.53-9.36C141.12,79.93,146.36,82.34,146.06,85.05Z"/>
          </g>
        </g>
      </g>
    </g>
  </g>
</svg>
