<svg xmlns="http://www.w3.org/2000/svg" xmlns:xlink="http://www.w3.org/1999/xlink" width="400.23" height="291.06" viewBox="0 0 400.23 291.06">
  <defs>
    <style>
      .cls-1 {
        mask: url(#mask);
        filter: url(#luminosity-noclip-5);
      }

      .cls-12, .cls-2, .cls-25, .cls-32, .cls-4, .cls-43, .cls-44, .cls-50, .cls-6, .cls-67, .cls-75, .cls-8, .cls-80 {
        mix-blend-mode: multiply;
      }

      .cls-2 {
        fill: url(#radial-gradient);
      }

      .cls-3 {
        mask: url(#mask-2);
        filter: url(#luminosity-noclip-14);
      }

      .cls-4 {
        fill: url(#radial-gradient-2);
      }

      .cls-5 {
        mask: url(#mask-3);
        filter: url(#luminosity-noclip-25);
      }

      .cls-6 {
        fill: url(#radial-gradient-3);
      }

      .cls-7 {
        mask: url(#mask-4);
        filter: url(#luminosity-noclip-8);
      }

      .cls-8 {
        fill: url(#radial-gradient-4);
      }

      .cls-9 {
        isolation: isolate;
      }

      .cls-10 {
        fill: #ff0;
      }

      .cls-11 {
        fill: #dcae50;
        stroke-width: 2px;
      }

      .cls-11, .cls-54 {
        stroke: #886a29;
        stroke-miterlimit: 10;
      }

      .cls-12 {
        opacity: 0.8;
      }

      .cls-13 {
        fill: url(#radial-gradient-5);
      }

      .cls-14 {
        fill: url(#radial-gradient-6);
      }

      .cls-15 {
        fill: url(#radial-gradient-7);
      }

      .cls-16 {
        fill: url(#radial-gradient-8);
      }

      .cls-17 {
        fill: url(#radial-gradient-9);
      }

      .cls-18 {
        fill: url(#radial-gradient-10);
      }

      .cls-19 {
        fill: url(#radial-gradient-11);
      }

      .cls-20 {
        fill: url(#radial-gradient-12);
      }

      .cls-21 {
        fill: url(#radial-gradient-13);
      }

      .cls-22 {
        fill: url(#radial-gradient-14);
      }

      .cls-23 {
        fill: url(#radial-gradient-15);
      }

      .cls-24 {
        mask: url(#mask-5);
      }

      .cls-25, .cls-26, .cls-29, .cls-32, .cls-33, .cls-35, .cls-37, .cls-39, .cls-43 {
        opacity: 0.7;
      }

      .cls-25 {
        fill: url(#radial-gradient-16);
      }

      .cls-26 {
        fill: url(#radial-gradient-17);
      }

      .cls-27 {
        mask: url(#mask-6);
      }

      .cls-28, .cls-65, .cls-67, .cls-75 {
        fill: #daa44b;
      }

      .cls-28 {
        opacity: 0.01;
      }

      .cls-29 {
        fill: url(#radial-gradient-18);
      }

      .cls-30 {
        mask: url(#mask-7);
      }

      .cls-31 {
        mask: url(#mask-8);
      }

      .cls-32 {
        fill: url(#radial-gradient-19);
      }

      .cls-33 {
        fill: url(#radial-gradient-20);
      }

      .cls-34 {
        mask: url(#mask-9);
      }

      .cls-35 {
        fill: url(#radial-gradient-21);
      }

      .cls-36 {
        mask: url(#mask-10);
      }

      .cls-37 {
        fill: url(#radial-gradient-22);
      }

      .cls-38 {
        mask: url(#mask-11);
      }

      .cls-39 {
        fill: url(#radial-gradient-23);
      }

      .cls-40 {
        mask: url(#mask-12);
      }

      .cls-41 {
        mask: url(#mask-13);
      }

      .cls-42 {
        mask: url(#mask-14);
      }

      .cls-43 {
        fill: url(#radial-gradient-24);
      }

      .cls-44, .cls-52 {
        opacity: 0.3;
      }

      .cls-45 {
        fill: url(#radial-gradient-25);
      }

      .cls-46, .cls-48 {
        opacity: 0.5;
      }

      .cls-46 {
        mix-blend-mode: screen;
      }

      .cls-47, .cls-54 {
        fill: #e9c05f;
      }

      .cls-49 {
        fill: #d5a13e;
      }

      .cls-50 {
        opacity: 0.2;
      }

      .cls-51, .cls-80 {
        fill: #c5923b;
      }

      .cls-53 {
        fill: #63411c;
      }

      .cls-55 {
        fill: url(#radial-gradient-26);
      }

      .cls-56 {
        fill: url(#radial-gradient-27);
      }

      .cls-57, .cls-67 {
        opacity: 0.27;
      }

      .cls-57 {
        fill: url(#radial-gradient-28);
      }

      .cls-58 {
        fill: url(#radial-gradient-29);
      }

      .cls-59 {
        fill: url(#radial-gradient-30);
      }

      .cls-60 {
        fill: url(#radial-gradient-31);
      }

      .cls-61 {
        fill: url(#radial-gradient-32);
      }

      .cls-62 {
        fill: url(#radial-gradient-33);
      }

      .cls-63 {
        fill: url(#radial-gradient-34);
      }

      .cls-64 {
        fill: url(#radial-gradient-35);
      }

      .cls-66 {
        mask: url(#mask-15);
      }

      .cls-68 {
        mask: url(#mask-16);
      }

      .cls-69 {
        mask: url(#mask-17);
      }

      .cls-70 {
        mask: url(#mask-18);
      }

      .cls-71 {
        fill: url(#radial-gradient-36);
      }

      .cls-72 {
        mask: url(#mask-19);
      }

      .cls-73 {
        mask: url(#mask-20);
      }

      .cls-74 {
        mask: url(#mask-21);
      }

      .cls-75 {
        opacity: 0.36;
      }

      .cls-76 {
        mask: url(#mask-22);
      }

      .cls-77 {
        mask: url(#mask-23);
      }

      .cls-78 {
        mask: url(#mask-24);
      }

      .cls-79 {
        mask: url(#mask-25);
      }

      .cls-81 {
        filter: url(#luminosity-noclip-24);
      }

      .cls-82 {
        filter: url(#luminosity-noclip-23);
      }

      .cls-83 {
        filter: url(#luminosity-noclip-22);
      }

      .cls-84 {
        filter: url(#luminosity-noclip-21);
      }

      .cls-85 {
        filter: url(#luminosity-noclip-20);
      }

      .cls-86 {
        filter: url(#luminosity-noclip-19);
      }

      .cls-87 {
        filter: url(#luminosity-noclip-18);
      }

      .cls-88 {
        filter: url(#luminosity-noclip-17);
      }

      .cls-89 {
        filter: url(#luminosity-noclip-16);
      }

      .cls-90 {
        filter: url(#luminosity-noclip-15);
      }

      .cls-91 {
        filter: url(#luminosity-noclip-13);
      }

      .cls-92 {
        filter: url(#luminosity-noclip-12);
      }

      .cls-93 {
        filter: url(#luminosity-noclip-11);
      }

      .cls-94 {
        filter: url(#luminosity-noclip-10);
      }

      .cls-95 {
        filter: url(#luminosity-noclip-9);
      }

      .cls-96 {
        filter: url(#luminosity-noclip-7);
      }

      .cls-97 {
        filter: url(#luminosity-noclip-6);
      }

      .cls-98 {
        filter: url(#luminosity-noclip-4);
      }

      .cls-99 {
        filter: url(#luminosity-noclip-3);
      }

      .cls-100 {
        filter: url(#luminosity-noclip-2);
      }

      .cls-101 {
        filter: url(#luminosity-noclip);
      }
    </style>
    <filter id="luminosity-noclip" x="193.99" y="-10819.23" width="10.61" height="32766" filterUnits="userSpaceOnUse" color-interpolation-filters="sRGB">
      <feFlood flood-color="#fff" result="bg"/>
      <feBlend in="SourceGraphic" in2="bg"/>
    </filter>
    <mask id="mask" x="193.99" y="-10819.23" width="10.61" height="32766" maskUnits="userSpaceOnUse">
      <g class="cls-101"/>
    </mask>
    <radialGradient id="radial-gradient" cx="199.97" cy="269.96" r="8.06" gradientTransform="translate(2.66 -93.03) scale(0.98 1.03)" gradientUnits="userSpaceOnUse">
      <stop offset="0.08" stop-color="#fff"/>
      <stop offset="1"/>
    </radialGradient>
    <filter id="luminosity-noclip-2" x="203.11" y="-10819.23" width="10.59" height="32766" filterUnits="userSpaceOnUse" color-interpolation-filters="sRGB">
      <feFlood flood-color="#fff" result="bg"/>
      <feBlend in="SourceGraphic" in2="bg"/>
    </filter>
    <mask id="mask-2" x="203.11" y="-10819.23" width="10.59" height="32766" maskUnits="userSpaceOnUse">
      <g class="cls-100"/>
    </mask>
    <radialGradient id="radial-gradient-2" cx="209.22" cy="244.79" r="8.05" xlink:href="#radial-gradient"/>
    <filter id="luminosity-noclip-3" x="173.19" y="-10819.23" width="190.02" height="32766" filterUnits="userSpaceOnUse" color-interpolation-filters="sRGB">
      <feFlood flood-color="#fff" result="bg"/>
      <feBlend in="SourceGraphic" in2="bg"/>
    </filter>
    <mask id="mask-3" x="173.19" y="-10819.23" width="190.02" height="32766" maskUnits="userSpaceOnUse">
      <g class="cls-99"/>
    </mask>
    <radialGradient id="radial-gradient-3" cx="289.03" cy="216.95" r="172.05" gradientTransform="translate(2.66 -93.03) scale(0.98 1.03)" gradientUnits="userSpaceOnUse">
      <stop offset="0.14"/>
      <stop offset="0.92" stop-color="#fff"/>
    </radialGradient>
    <filter id="luminosity-noclip-4" x="196.88" y="-10819.23" width="10.55" height="32766" filterUnits="userSpaceOnUse" color-interpolation-filters="sRGB">
      <feFlood flood-color="#fff" result="bg"/>
      <feBlend in="SourceGraphic" in2="bg"/>
    </filter>
    <mask id="mask-4" x="196.88" y="-10819.23" width="10.55" height="32766" maskUnits="userSpaceOnUse">
      <g class="cls-98"/>
    </mask>
    <radialGradient id="radial-gradient-4" cx="395.79" cy="205.07" r="7.96" gradientTransform="matrix(0.98, -0.08, 0.08, 1.03, -201.51, -89.14)" xlink:href="#radial-gradient"/>
    <radialGradient id="radial-gradient-5" cx="1934.24" cy="1062.89" r="8.88" gradientTransform="matrix(0.67, -0.76, 0.72, 0.7, -1993.04, 863.89)" gradientUnits="userSpaceOnUse">
      <stop offset="0.14" stop-color="#daa44b"/>
      <stop offset="0.5" stop-color="#c48f40"/>
      <stop offset="0.92" stop-color="#a7722a"/>
    </radialGradient>
    <radialGradient id="radial-gradient-6" cx="-438.54" cy="293.99" r="8.9" gradientTransform="matrix(0.97, 0.19, -0.18, 1.01, 519.04, -39.83)" xlink:href="#radial-gradient-5"/>
    <radialGradient id="radial-gradient-7" cx="846.96" cy="415.06" r="8.91" gradientTransform="matrix(0.94, -0.31, 0.3, 0.98, -815.88, 70.26)" xlink:href="#radial-gradient-5"/>
    <radialGradient id="radial-gradient-8" cx="777.9" cy="393.21" r="5.44" gradientTransform="matrix(0.94, -0.31, 0.3, 0.98, -815.88, 70.26)" xlink:href="#radial-gradient-5"/>
    <radialGradient id="radial-gradient-9" cx="921.49" cy="332.43" r="11.82" gradientTransform="matrix(0.94, -0.31, 0.3, 0.98, -815.88, 70.26)" xlink:href="#radial-gradient-5"/>
    <radialGradient id="radial-gradient-10" cx="-676.38" cy="363.72" r="9.17" gradientTransform="matrix(0.93, 0.34, -0.32, 0.97, 908.95, 45.21)" xlink:href="#radial-gradient-5"/>
    <radialGradient id="radial-gradient-11" cx="-662.57" cy="400.9" r="7.3" gradientTransform="matrix(0.93, 0.34, -0.32, 0.97, 908.95, 45.21)" xlink:href="#radial-gradient-5"/>
    <radialGradient id="radial-gradient-12" cx="324.68" cy="274.16" r="7.28" gradientTransform="matrix(0.98, -0.05, 0.05, 1.03, -132.02, -74.99)" xlink:href="#radial-gradient-5"/>
    <radialGradient id="radial-gradient-13" cx="335.64" cy="248.26" r="5.33" gradientTransform="matrix(0.98, -0.05, 0.05, 1.03, -132.02, -74.99)" xlink:href="#radial-gradient-5"/>
    <radialGradient id="radial-gradient-14" cx="308.03" cy="166.9" r="5.34" gradientTransform="matrix(0.98, -0.05, 0.05, 1.03, -132.02, -74.99)" xlink:href="#radial-gradient-5"/>
    <radialGradient id="radial-gradient-15" cx="332.61" cy="181.87" r="6.66" gradientTransform="matrix(0.98, -0.05, 0.05, 1.03, -132.02, -74.99)" xlink:href="#radial-gradient-5"/>
    <filter id="luminosity-noclip-5" x="193.99" y="175.66" width="10.61" height="18.81" filterUnits="userSpaceOnUse" color-interpolation-filters="sRGB">
      <feFlood flood-color="#fff" result="bg"/>
      <feBlend in="SourceGraphic" in2="bg"/>
    </filter>
    <mask id="mask-5" x="193.99" y="175.66" width="10.61" height="18.81" maskUnits="userSpaceOnUse">
      <g class="cls-1">
        <path class="cls-2" d="M204.6,185.06c0,5.19-2.38,9.4-5.3,9.4s-5.31-4.21-5.31-9.4,2.39-9.4,5.31-9.4S204.6,179.86,204.6,185.06Z"/>
      </g>
    </mask>
    <radialGradient id="radial-gradient-16" cx="199.97" cy="269.96" r="8.06" gradientTransform="translate(2.66 -93.03) scale(0.98 1.03)" gradientUnits="userSpaceOnUse">
      <stop offset="0.08" stop-color="#a7722a"/>
      <stop offset="1" stop-color="#daa44b"/>
    </radialGradient>
    <radialGradient id="radial-gradient-17" cx="-706.84" cy="372.35" r="8.05" gradientTransform="matrix(0.92, 0.35, -0.34, 0.97, 942.15, 50.19)" xlink:href="#radial-gradient-16"/>
    <filter id="luminosity-noclip-6" x="157.26" y="-10819.23" width="11.69" height="32766" filterUnits="userSpaceOnUse" color-interpolation-filters="sRGB">
      <feFlood flood-color="#fff" result="bg"/>
      <feBlend in="SourceGraphic" in2="bg"/>
    </filter>
    <mask id="mask-6" x="157.26" y="-10819.23" width="11.69" height="32766" maskUnits="userSpaceOnUse">
      <g class="cls-97"/>
    </mask>
    <radialGradient id="radial-gradient-18" cx="958.92" cy="352.7" r="10.64" gradientTransform="matrix(0.93, -0.33, 0.32, 0.98, -862.19, 76.39)" xlink:href="#radial-gradient-16"/>
    <filter id="luminosity-noclip-7" x="135.14" y="-10819.23" width="15.31" height="32766" filterUnits="userSpaceOnUse" color-interpolation-filters="sRGB">
      <feFlood flood-color="#fff" result="bg"/>
      <feBlend in="SourceGraphic" in2="bg"/>
    </filter>
    <mask id="mask-7" x="135.14" y="-10819.23" width="15.31" height="32766" maskUnits="userSpaceOnUse">
      <g class="cls-96"/>
    </mask>
    <filter id="luminosity-noclip-8" x="196.88" y="80.81" width="10.55" height="18.55" filterUnits="userSpaceOnUse" color-interpolation-filters="sRGB">
      <feFlood flood-color="#fff" result="bg"/>
      <feBlend in="SourceGraphic" in2="bg"/>
    </filter>
    <mask id="mask-8" x="196.88" y="80.81" width="10.55" height="18.55" maskUnits="userSpaceOnUse">
      <g class="cls-7">
        <path class="cls-8" d="M207.38,89.66c.36,5.13-1.66,9.47-4.55,9.7s-5.53-3.73-5.91-8.86,1.65-9.46,4.55-9.68S207,84.53,207.38,89.66Z"/>
      </g>
    </mask>
    <radialGradient id="radial-gradient-19" cx="395.79" cy="205.07" r="7.96" gradientTransform="matrix(0.98, -0.08, 0.08, 1.03, -201.51, -89.14)" xlink:href="#radial-gradient-16"/>
    <radialGradient id="radial-gradient-20" cx="1995.57" cy="1139.53" r="7.97" gradientTransform="matrix(0.64, -0.79, 0.75, 0.67, -2066.13, 943.44)" xlink:href="#radial-gradient-16"/>
    <filter id="luminosity-noclip-9" x="50.75" y="-10819.23" width="15.16" height="32766" filterUnits="userSpaceOnUse" color-interpolation-filters="sRGB">
      <feFlood flood-color="#fff" result="bg"/>
      <feBlend in="SourceGraphic" in2="bg"/>
    </filter>
    <mask id="mask-9" x="50.75" y="-10819.23" width="15.16" height="32766" maskUnits="userSpaceOnUse">
      <g class="cls-95"/>
    </mask>
    <radialGradient id="radial-gradient-21" cx="-123.17" cy="253.62" r="7.97" gradientTransform="matrix(0.98, 0.06, -0.06, 1.03, 175.87, -86.72)" xlink:href="#radial-gradient-16"/>
    <filter id="luminosity-noclip-10" x="34.82" y="-10819.23" width="10.53" height="32766" filterUnits="userSpaceOnUse" color-interpolation-filters="sRGB">
      <feFlood flood-color="#fff" result="bg"/>
      <feBlend in="SourceGraphic" in2="bg"/>
    </filter>
    <mask id="mask-10" x="34.82" y="-10819.23" width="10.53" height="32766" maskUnits="userSpaceOnUse">
      <g class="cls-94"/>
    </mask>
    <radialGradient id="radial-gradient-22" cx="861.78" cy="425.98" r="7.97" gradientTransform="matrix(0.94, -0.32, 0.31, 0.98, -838.03, 67.98)" xlink:href="#radial-gradient-16"/>
    <filter id="luminosity-noclip-11" x="92.59" y="-10819.23" width="11.4" height="32766" filterUnits="userSpaceOnUse" color-interpolation-filters="sRGB">
      <feFlood flood-color="#fff" result="bg"/>
      <feBlend in="SourceGraphic" in2="bg"/>
    </filter>
    <mask id="mask-11" x="92.59" y="-10819.23" width="11.4" height="32766" maskUnits="userSpaceOnUse">
      <g class="cls-93"/>
    </mask>
    <radialGradient id="radial-gradient-23" cx="609.19" cy="224.01" r="6.72" gradientTransform="matrix(0.97, -0.17, 0.16, 1.02, -449.76, -46.23)" xlink:href="#radial-gradient-16"/>
    <filter id="luminosity-noclip-12" x="173.52" y="-10819.23" width="9.08" height="32766" filterUnits="userSpaceOnUse" color-interpolation-filters="sRGB">
      <feFlood flood-color="#fff" result="bg"/>
      <feBlend in="SourceGraphic" in2="bg"/>
    </filter>
    <mask id="mask-12" x="173.52" y="-10819.23" width="9.08" height="32766" maskUnits="userSpaceOnUse">
      <g class="cls-92"/>
    </mask>
    <filter id="luminosity-noclip-13" x="24.1" y="-10819.23" width="9.09" height="32766" filterUnits="userSpaceOnUse" color-interpolation-filters="sRGB">
      <feFlood flood-color="#fff" result="bg"/>
      <feBlend in="SourceGraphic" in2="bg"/>
    </filter>
    <mask id="mask-13" x="24.1" y="-10819.23" width="9.09" height="32766" maskUnits="userSpaceOnUse">
      <g class="cls-91"/>
    </mask>
    <filter id="luminosity-noclip-14" x="203.11" y="149.7" width="10.59" height="18.81" filterUnits="userSpaceOnUse" color-interpolation-filters="sRGB">
      <feFlood flood-color="#fff" result="bg"/>
      <feBlend in="SourceGraphic" in2="bg"/>
    </filter>
    <mask id="mask-14" x="203.11" y="149.7" width="10.59" height="18.81" maskUnits="userSpaceOnUse">
      <g class="cls-3">
        <path class="cls-4" d="M213.7,159.11c0,5.2-2.36,9.4-5.29,9.4s-5.3-4.2-5.3-9.4,2.38-9.41,5.3-9.41S213.7,153.9,213.7,159.11Z"/>
      </g>
    </mask>
    <radialGradient id="radial-gradient-24" cx="209.22" cy="244.79" r="8.05" xlink:href="#radial-gradient-16"/>
    <radialGradient id="radial-gradient-25" cx="124.33" cy="90.3" r="202.87" gradientTransform="translate(2.66 -93.03) scale(0.98 1.03)" gradientUnits="userSpaceOnUse">
      <stop offset="0" stop-color="#f6dd80"/>
      <stop offset="0.33" stop-color="#e9c05f"/>
      <stop offset="0.6" stop-color="#d5a53e"/>
      <stop offset="1" stop-color="#9b6126"/>
    </radialGradient>
    <radialGradient id="radial-gradient-26" cx="2512.07" cy="2122.51" r="11.6" gradientTransform="matrix(0.32, -0.98, 0.93, 0.33, -2493.44, 1991.87)" xlink:href="#radial-gradient-5"/>
    <radialGradient id="radial-gradient-27" cx="-531.87" cy="315.06" r="10.1" gradientTransform="matrix(0.93, 0.33, -0.31, 0.98, 813.19, -11.62)" xlink:href="#radial-gradient-5"/>
    <radialGradient id="radial-gradient-28" cx="503.73" cy="240.6" r="7.38" gradientTransform="matrix(0.98, -0.1, 0.1, 1.03, -325.6, -73.15)" xlink:href="#radial-gradient-5"/>
    <radialGradient id="radial-gradient-29" cx="1338.94" cy="594.24" r="4.09" gradientTransform="matrix(0.89, -0.45, 0.43, 0.93, -1177.33, 254.76)" xlink:href="#radial-gradient-5"/>
    <radialGradient id="radial-gradient-30" cx="-261.44" cy="303.56" r="4.1" gradientTransform="matrix(0.96, 0.22, -0.21, 1.01, 563.52, -58.29)" xlink:href="#radial-gradient-5"/>
    <radialGradient id="radial-gradient-31" cx="1461.34" cy="679.54" r="4.1" gradientTransform="matrix(0.85, -0.51, 0.49, 0.9, -1352.59, 354.29)" xlink:href="#radial-gradient-5"/>
    <radialGradient id="radial-gradient-32" cx="1762.29" cy="1118.26" r="8.1" gradientTransform="matrix(0.82, -0.86, 0.69, 0.73, -1922.4, 872.3)" xlink:href="#radial-gradient-5"/>
    <radialGradient id="radial-gradient-33" cx="45.73" cy="331.71" r="8.1" gradientTransform="matrix(1.15, 0.16, -0.13, 1.02, 316.84, -114.81)" xlink:href="#radial-gradient-5"/>
    <radialGradient id="radial-gradient-34" cx="1574.82" cy="892.06" r="4.24" gradientTransform="matrix(0.93, -0.73, 0.59, 0.82, -1651.69, 586.69)" xlink:href="#radial-gradient-5"/>
    <radialGradient id="radial-gradient-35" cx="568.45" cy="365.13" r="4.25" gradientTransform="matrix(1.15, -0.13, 0.11, 1.02, -333.84, -81.77)" xlink:href="#radial-gradient-5"/>
    <filter id="luminosity-noclip-15" x="321.44" y="-10819.23" width="10.53" height="32766" filterUnits="userSpaceOnUse" color-interpolation-filters="sRGB">
      <feFlood flood-color="#fff" result="bg"/>
      <feBlend in="SourceGraphic" in2="bg"/>
    </filter>
    <mask id="mask-15" x="321.44" y="-10819.23" width="10.53" height="32766" maskUnits="userSpaceOnUse">
      <g class="cls-90"/>
    </mask>
    <filter id="luminosity-noclip-16" x="289.31" y="-10819.23" width="14.86" height="32766" filterUnits="userSpaceOnUse" color-interpolation-filters="sRGB">
      <feFlood flood-color="#fff" result="bg"/>
      <feBlend in="SourceGraphic" in2="bg"/>
    </filter>
    <mask id="mask-16" x="289.31" y="-10819.23" width="14.86" height="32766" maskUnits="userSpaceOnUse">
      <g class="cls-89"/>
    </mask>
    <filter id="luminosity-noclip-17" x="256.58" y="-10819.23" width="9.83" height="32766" filterUnits="userSpaceOnUse" color-interpolation-filters="sRGB">
      <feFlood flood-color="#fff" result="bg"/>
      <feBlend in="SourceGraphic" in2="bg"/>
    </filter>
    <mask id="mask-17" x="256.58" y="-10819.23" width="9.83" height="32766" maskUnits="userSpaceOnUse">
      <g class="cls-88"/>
    </mask>
    <filter id="luminosity-noclip-18" x="222.37" y="-10819.23" width="6.76" height="32766" filterUnits="userSpaceOnUse" color-interpolation-filters="sRGB">
      <feFlood flood-color="#fff" result="bg"/>
      <feBlend in="SourceGraphic" in2="bg"/>
    </filter>
    <mask id="mask-18" x="222.37" y="-10819.23" width="6.76" height="32766" maskUnits="userSpaceOnUse">
      <g class="cls-87"/>
    </mask>
    <radialGradient id="radial-gradient-36" cx="2012.29" cy="1169.13" r="4.1" gradientTransform="matrix(0.67, -0.75, 0.72, 0.7, -1973.72, 922.76)" xlink:href="#radial-gradient-5"/>
    <filter id="luminosity-noclip-19" x="211.07" y="-10819.23" width="7.9" height="32766" filterUnits="userSpaceOnUse" color-interpolation-filters="sRGB">
      <feFlood flood-color="#fff" result="bg"/>
      <feBlend in="SourceGraphic" in2="bg"/>
    </filter>
    <mask id="mask-19" x="211.07" y="-10819.23" width="7.9" height="32766" maskUnits="userSpaceOnUse">
      <g class="cls-86"/>
    </mask>
    <filter id="luminosity-noclip-20" x="245.12" y="-10819.23" width="7.4" height="32766" filterUnits="userSpaceOnUse" color-interpolation-filters="sRGB">
      <feFlood flood-color="#fff" result="bg"/>
      <feBlend in="SourceGraphic" in2="bg"/>
    </filter>
    <mask id="mask-20" x="245.12" y="-10819.23" width="7.4" height="32766" maskUnits="userSpaceOnUse">
      <g class="cls-85"/>
    </mask>
    <filter id="luminosity-noclip-21" x="328.45" y="-10819.23" width="9.5" height="32766" filterUnits="userSpaceOnUse" color-interpolation-filters="sRGB">
      <feFlood flood-color="#fff" result="bg"/>
      <feBlend in="SourceGraphic" in2="bg"/>
    </filter>
    <mask id="mask-21" x="328.45" y="-10819.23" width="9.5" height="32766" maskUnits="userSpaceOnUse">
      <g class="cls-84"/>
    </mask>
    <filter id="luminosity-noclip-22" x="355.13" y="-10819.23" width="8.07" height="32766" filterUnits="userSpaceOnUse" color-interpolation-filters="sRGB">
      <feFlood flood-color="#fff" result="bg"/>
      <feBlend in="SourceGraphic" in2="bg"/>
    </filter>
    <mask id="mask-22" x="355.13" y="-10819.23" width="8.07" height="32766" maskUnits="userSpaceOnUse">
      <g class="cls-83"/>
    </mask>
    <filter id="luminosity-noclip-23" x="212.77" y="-10819.23" width="12.28" height="32766" filterUnits="userSpaceOnUse" color-interpolation-filters="sRGB">
      <feFlood flood-color="#fff" result="bg"/>
      <feBlend in="SourceGraphic" in2="bg"/>
    </filter>
    <mask id="mask-23" x="212.77" y="-10819.23" width="12.28" height="32766" maskUnits="userSpaceOnUse">
      <g class="cls-82"/>
    </mask>
    <filter id="luminosity-noclip-24" x="261.56" y="-10819.23" width="18.69" height="32766" filterUnits="userSpaceOnUse" color-interpolation-filters="sRGB">
      <feFlood flood-color="#fff" result="bg"/>
      <feBlend in="SourceGraphic" in2="bg"/>
    </filter>
    <mask id="mask-24" x="261.56" y="-10819.23" width="18.69" height="32766" maskUnits="userSpaceOnUse">
      <g class="cls-81"/>
    </mask>
    <filter id="luminosity-noclip-25" x="173.19" y="122.14" width="190.02" height="150.49" filterUnits="userSpaceOnUse" color-interpolation-filters="sRGB">
      <feFlood flood-color="#fff" result="bg"/>
      <feBlend in="SourceGraphic" in2="bg"/>
    </filter>
    <mask id="mask-25" x="173.19" y="122.14" width="190.02" height="150.49" maskUnits="userSpaceOnUse">
      <g class="cls-5">
        <path class="cls-6" d="M273.48,262c-42.41-.7-73.38-43-72.7-64.88S190,151.25,181.26,135.75a40.54,40.54,0,0,1-4.48-13.61c-8,29.83-.9,51.73,4.68,68.14C198.53,239.62,225,267.82,268.09,272c28.71,2.83,69.73-4.37,95.12-23.94C333.64,262.6,305.7,262.47,273.48,262Z"/>
      </g>
    </mask>
  </defs>
  <g class="cls-9">
    <g id="Layer_1" data-name="Layer 1">
      <g>
        <path class="cls-10" d="M278.83,280.62l-1.88,0-1.35,0-2-.08-1-.06-1.74-.1-.92-.07-2.59-.22c-27.88-2.74-50-14.74-67.26-36.62-15,17.12-33.93,28-57.45,33.19l-.13,0c-1.39.31-2.74.58-4.1.84l-.17,0c-1.3.24-2.65.47-4,.68l-.58.09c-1.3.19-2.61.38-3.94.54l-.16,0c-1.34.16-2.69.31-4,.44l-.87.08c-1.35.12-2.71.24-4.09.33h-.87c-1.38-.06-2.75-.14-4.1-.23l-1-.08c-1.14-.08-2.27-.18-3.38-.28l-.71-.07c-1.33-.13-2.67-.28-4-.45l-.68-.09-3.35-.47-.82-.13c-2.58-.41-5.16-.89-7.68-1.44l-.77-.17c-1.14-.25-2.26-.51-3.38-.79l-.33-.08c-1.26-.31-2.48-.64-3.7-1l-.56-.16c-1.06-.3-2.08-.61-3.1-.93l-.66-.21c-1.19-.38-2.36-.77-3.52-1.18l-.15-.06c-1-.37-2.13-.77-3.2-1.19l-.75-.29c-1-.4-2-.8-3-1.22l-.35-.14c-1.07-.47-2.13-.94-3.17-1.43l-.76-.36c-.81-.39-1.62-.78-2.42-1.19l-.8-.4c-1-.51-2-1-2.91-1.55l-.64-.36-2.24-1.29-1-.6c-.7-.42-1.38-.85-2.06-1.28l-.77-.5c-.82-.53-1.65-1.08-2.46-1.65l-1-.7-.11-.08c-.5-.36-1-.72-1.49-1.09l-.15-.11c-.34-.24-.68-.49-1-.75-.71-.54-1.41-1.08-2.1-1.63l-1.13-.92L44,253l-1.08-.9-1.35-1.17-.83-.75c-.93-.83-1.85-1.69-2.73-2.55l-.43-.41c-.51-.51-1-1-1.51-1.52l-.45-.47c-1.65-1.71-3.26-3.49-4.77-5.3C2,205.42-1.9,154.48,20.56,106.9c11.09-23.17,27.3-46,44.5-62.67,22.82-22.11,47.58-33.8,71.59-33.8,17.75,0,35.16,6.22,51.75,18.49,14.84,11,26.24,22.94,34.67,36.47a80,80,0,0,1,16.17-1.61,109.55,109.55,0,0,1,34.52,6.09c34.62,11.58,64.56,31.16,86.58,56.63,21.79,25.2,33.78,54.53,33.78,82.57,0,.22,0,.44,0,.66-2.56,30.94-28.8,54.89-72,65.72l-.22.05c-1,.25-2,.48-2.95.71l-.41.09c-2.06.47-4.15.91-6.22,1.3l-.89.16c-.72.14-1.43.26-2.15.38l-1,.18c-.83.14-1.65.27-2.48.39l-1.15.17-2.15.3-1.34.16-1.61.19-1.4.16-1.69.17-2.23.2h-.13l-1.42.11-1.51.11-1.37.08-1.48.08-1.52.06-2.24.07-1.54,0-1.38,0h-2.76Z"/>
        <g id="potatao">
          <g>
            <path class="cls-11" d="M183.64,35.35c33.15,24.49,53.74,58.69,47.6,110.92C216.66,231.49,180.59,267.65,120,271.66c-93.63-4-127.46-86.59-92.16-161.34C51.77,60.2,114.66-15.64,183.64,35.35Z"/>
            <g class="cls-12">
              <path class="cls-13" d="M60.93,130.9c1.88,1.81,2.72,4.1,1.84,5.07s-3.1.32-5-1.5-2.72-4.09-1.84-5.08S59,129.07,60.93,130.9Z"/>
              <path class="cls-14" d="M43.22,167c-.46,2.65-1.87,4.59-3.13,4.34s-1.9-2.62-1.43-5.25,1.9-4.6,3.16-4.34S43.72,164.34,43.22,167Z"/>
              <path class="cls-15" d="M100.94,208.77c.75,2.57.41,5-.82,5.39s-2.86-1.35-3.63-3.93-.42-5,.81-5.38S100.15,206.22,100.94,208.77Z"/>
              <path class="cls-16" d="M30.06,211.38c.46,1.57.22,3-.5,3.29s-1.75-.83-2.23-2.38-.23-3,.5-3.29S29.57,209.82,30.06,211.38Z"/>
              <path class="cls-17" d="M146.08,102.19c1,3.42.54,6.6-1.1,7.16s-3.78-1.8-4.79-5.21-.53-6.61,1.08-7.14S145,98.78,146.08,102.19Z"/>
              <path class="cls-18" d="M165.57,162.84c-.87,2.63-2.59,4.36-3.84,3.92s-1.56-2.95-.68-5.56,2.6-4.39,3.84-3.93S166.43,160.23,165.57,162.84Z"/>
              <path class="cls-19" d="M165.69,205c-.69,2.06-2.06,3.46-3.06,3.11s-1.23-2.35-.56-4.44,2.08-3.48,3.08-3.11S166.38,202.92,165.69,205Z"/>
              <path class="cls-20" d="M200.71,185.45c.09,2.21-.68,4-1.73,4.07s-2-1.69-2.07-3.89.64-4,1.69-4.08S200.59,183.24,200.71,185.45Z"/>
              <path class="cls-21" d="M210.1,159.74c.08,1.61-.48,3-1.24,3s-1.45-1.22-1.54-2.86.5-2.93,1.26-3S210,158.14,210.1,159.74Z"/>
              <path class="cls-22" d="M179.1,77.36c.07,1.6-.49,2.94-1.27,3s-1.44-1.24-1.53-2.85.5-3,1.26-3S179,75.74,179.1,77.36Z"/>
              <path class="cls-23" d="M204.07,90.5c.11,2-.6,3.69-1.56,3.75s-1.8-1.56-1.92-3.57S201.2,87,202.17,87,204,88.5,204.07,90.5Z"/>
              <g class="cls-24">
                <path class="cls-25" d="M204.6,185.06c0,5.19-2.38,9.4-5.3,9.4s-5.31-4.21-5.31-9.4,2.39-9.4,5.31-9.4S204.6,179.86,204.6,185.06Z"/>
              </g>
              <path class="cls-26" d="M168.09,163.68c-1.68,4.88-5.28,8-8,6.92s-3.62-5.83-1.94-10.73,5.3-8,8-6.93S169.78,158.79,168.09,163.68Z"/>
              <g class="cls-27">
                <path class="cls-28" d="M168.09,163.68c-1.68,4.88-5.28,8-8,6.92s-3.62-5.83-1.94-10.73,5.3-8,8-6.93S169.78,158.79,168.09,163.68Z"/>
              </g>
              <path class="cls-29" d="M149.43,100.47c2.09,6.49.83,12.81-2.84,14.1s-8.32-2.89-10.44-9.4-.84-12.81,2.83-14.11S147.32,94,149.43,100.47Z"/>
              <g class="cls-30">
                <path class="cls-28" d="M149.43,100.47c2.09,6.49.83,12.81-2.84,14.1s-8.32-2.89-10.44-9.4-.84-12.81,2.83-14.11S147.32,94,149.43,100.47Z"/>
              </g>
              <g class="cls-31">
                <path class="cls-32" d="M207.38,89.66c.36,5.13-1.66,9.47-4.55,9.7s-5.53-3.73-5.91-8.86,1.65-9.46,4.55-9.68S207,84.53,207.38,89.66Z"/>
              </g>
              <path class="cls-33" d="M61.73,127.85c3.73,3.33,5.25,7.9,3.38,10.21s-6.42,1.49-10.17-1.83-5.25-7.88-3.39-10.19S58,124.53,61.73,127.85Z"/>
              <g class="cls-34">
                <path class="cls-28" d="M61.73,127.85c3.73,3.33,5.25,7.9,3.38,10.21s-6.42,1.49-10.17-1.83-5.25-7.88-3.39-10.19S58,124.53,61.73,127.85Z"/>
              </g>
              <path class="cls-35" d="M45.33,166.93c-.29,5.15-2.87,9.17-5.77,9s-5-4.48-4.71-9.61,2.87-9.15,5.78-9S45.61,161.8,45.33,166.93Z"/>
              <g class="cls-36">
                <path class="cls-28" d="M45.33,166.93c-.29,5.15-2.87,9.17-5.77,9s-5-4.48-4.71-9.61,2.87-9.15,5.78-9S45.61,161.8,45.33,166.93Z"/>
              </g>
              <path class="cls-37" d="M103.27,207.05c1.52,4.89.54,9.62-2.22,10.56s-6.22-2.24-7.75-7.13-.53-9.61,2.23-10.55S101.76,202.16,103.27,207.05Z"/>
              <g class="cls-38">
                <path class="cls-28" d="M103.27,207.05c1.52,4.89.54,9.62-2.22,10.56s-6.22-2.24-7.75-7.13-.53-9.61,2.23-10.55S101.76,202.16,103.27,207.05Z"/>
              </g>
              <path class="cls-39" d="M182.41,75.64c.71,4.27-.68,8.08-3.1,8.5s-4.93-2.69-5.61-7,.69-8.11,3.1-8.52S181.74,71.34,182.41,75.64Z"/>
              <g class="cls-40">
                <path class="cls-28" d="M182.41,75.64c.71,4.27-.68,8.08-3.1,8.5s-4.93-2.69-5.61-7,.69-8.11,3.1-8.52S181.74,71.34,182.41,75.64Z"/>
              </g>
              <path class="cls-28" d="M33,210.26c.7,4.3-.71,8.12-3.1,8.54s-4.93-2.69-5.63-7,.71-8.08,3.1-8.5S32.32,206,33,210.26Z"/>
              <g class="cls-41">
                <path class="cls-28" d="M33,210.26c.7,4.3-.71,8.12-3.1,8.54s-4.93-2.69-5.63-7,.71-8.08,3.1-8.5S32.32,206,33,210.26Z"/>
              </g>
              <g class="cls-42">
                <path class="cls-43" d="M213.7,159.11c0,5.2-2.36,9.4-5.29,9.4s-5.3-4.2-5.3-9.4,2.38-9.41,5.3-9.41S213.7,153.9,213.7,159.11Z"/>
              </g>
            </g>
            <g class="cls-44">
              <path class="cls-45" d="M207.64,209.58c-12,13.57-23.59,29.3-38.15,40a100.21,100.21,0,0,1-40.25,18C96.32,273.8,65.5,262.63,45,234.37,34.56,220,26.78,203.44,18.78,187.46a55,55,0,0,1-4.44-12.33c2.8,51.17,39.09,93.69,105.62,96.53,46.79-3.1,78.93-25.38,97.88-74.52C214.73,201.35,211.29,205.43,207.64,209.58Z"/>
            </g>
            <g class="cls-46">
              <path class="cls-47" d="M72.37,227.15a1.29,1.29,0,0,0-1.05,1.4,3.64,3.64,0,0,0,.89,2,1.37,1.37,0,0,0,.3.54c.36.8,1,1.38,1.8.64.93-.92.09-2.89-.51-3.77A1.68,1.68,0,0,0,72.37,227.15Z"/>
              <path class="cls-47" d="M68.39,191a.6.6,0,0,0-.76.34,4.77,4.77,0,0,0,.23,2.72,2.06,2.06,0,0,0,.6,1,.6.6,0,0,0,.89-.26c.48-.41.33-1.41.24-1.94C69.44,192.11,69.13,191.22,68.39,191Z"/>
              <path class="cls-47" d="M61,183.89a.64.64,0,0,0-.66.54c-.19,1.19.53,2.21.62,3.33a1.15,1.15,0,0,0,0,.55v.14c-.06.27.23.39.44.29a.15.15,0,0,0,.2,0c.85-.14.95-1.87.95-2.59C62.57,185.08,62.16,184.05,61,183.89Z"/>
              <path class="cls-47" d="M98.81,175a1.76,1.76,0,0,0-1.24,1.44,5.82,5.82,0,0,0-.55,2c-1.06.81-.51,2.54.54,3.91a6.53,6.53,0,0,0,2.73,2.9c2.22,1.12,3.28-2.39,3.61-3.94.39-1.76,1.26-5.54-.59-6.67C102.11,173.84,100.06,174.64,98.81,175Z"/>
              <path class="cls-47" d="M118.61,137.42c-.61.48-.34,1.28,0,1.88a3.7,3.7,0,0,0,.57.78,1.32,1.32,0,0,0,1.72.71,1.9,1.9,0,0,0,1-2c0-.69-.26-1.71-.94-2A2.6,2.6,0,0,0,118.61,137.42Z"/>
              <path class="cls-47" d="M104.92,76.35a1.23,1.23,0,0,0-.76,0c-.18.06-.26.25-.33.42a.92.92,0,0,0-.29.49.78.78,0,0,0-.22.75.57.57,0,0,0,0,.69.69.69,0,0,0,.46.9h0a1.2,1.2,0,0,0,.9.26.48.48,0,0,0,.45-.53.6.6,0,0,0,.25-.75.58.58,0,0,0-.12-.68.49.49,0,0,0-.19-.52A.66.66,0,0,0,104.92,76.35Z"/>
              <path class="cls-47" d="M120,126c0,.13,0,.26-.07.37a1.13,1.13,0,0,0-.18,0,.52.52,0,0,0-.43.33.68.68,0,0,0-.5.76.67.67,0,0,0,0,.39.41.41,0,0,0-.11.28.59.59,0,0,0,.19.85,3.52,3.52,0,0,0,.72.37h0a.57.57,0,0,0,.37,0,.53.53,0,0,0,.55-.48c0-.05.11-.1.13-.15a.7.7,0,0,0,.33-1,.68.68,0,0,0,0-.28.41.41,0,0,0,.09-.26,5.37,5.37,0,0,1,.15-1C121.42,125.34,120.21,125.22,120,126Z"/>
              <path class="cls-47" d="M148.66,63.85a.66.66,0,0,0-.17.8s0,0,0,.06a1.27,1.27,0,0,0-.14.24,1.17,1.17,0,0,0,0,.78,1,1,0,0,0-.07.21.85.85,0,0,0,.2.75v.07a1.08,1.08,0,0,0,.33.7.56.56,0,0,0,.47.32.65.65,0,0,1,.19,0,1.48,1.48,0,0,0,.56,0,.54.54,0,0,0,.4-.49l.06,0c.62-.45.39-1.85.34-2.52a1.14,1.14,0,0,0-.7-1.1A1.51,1.51,0,0,0,148.66,63.85Z"/>
              <path class="cls-47" d="M136.66,28.91a3,3,0,0,0-1.66,2,3.68,3.68,0,0,0,0,1.48,1.55,1.55,0,0,0,.48,1,.55.55,0,0,0-.2.69,2.35,2.35,0,0,0,.38.71,1.35,1.35,0,0,0,.87.77c1.86.54,2.3-2.44,2.26-3.7S138.28,28.3,136.66,28.91Z"/>
              <path class="cls-47" d="M145.16,28.6a3.52,3.52,0,0,0-.56,1.78.51.51,0,0,0,.15.39,2.06,2.06,0,0,0,.5,1.43.64.64,0,0,0,1,0c.82-1,1.46-2.89.39-3.92C146.17,27.76,145.5,28.1,145.16,28.6Z"/>
              <path class="cls-47" d="M164.25,57.52c-1.29.11-1,1.84-.27,2.68a2.25,2.25,0,0,0,.91.9.67.67,0,0,0,.87-.4C166.12,59.5,165.82,57.37,164.25,57.52Z"/>
              <path class="cls-47" d="M193.53,84.13c-.94-.1-1.28,1-1.34,1.82a7.56,7.56,0,0,0,.29,2.4,3.58,3.58,0,0,0,.75,3c1.57,1.56,3.08-.77,3.41-2.26a3.35,3.35,0,0,0-1.12-2.92C195,85.61,194.35,84.23,193.53,84.13Z"/>
              <path class="cls-47" d="M181.48,132.42c-.7.84-1.51,2.26-1.23,3.42a2.33,2.33,0,0,0,1.86,2.53c.3.07.54-.18.68-.43a5.55,5.55,0,0,0-.41-5.56A.55.55,0,0,0,181.48,132.42Z"/>
              <path class="cls-47" d="M142.09,199.74c-1.05.72-.24,2.24.44,3.11.5,1.17,1.42,2.21,2.72,1.87,1.61-.44,1.21-2.86.2-3.75C144.75,200.33,143.07,199,142.09,199.74Z"/>
            </g>
            <g class="cls-48">
              <path class="cls-49" d="M82.09,143.72A8.6,8.6,0,0,1,79,148.07l1.6-1.16c2.95-1,2.31,1.59,4.1,2.44C86.67,146.89,84.71,144,82.09,143.72Z"/>
              <path class="cls-49" d="M184.55,156.08c3.3-7.1-.09-10.46-.44-17.12C184.46,145.66,178.5,151.69,184.55,156.08Z"/>
              <path class="cls-49" d="M148.36,42.89Z"/>
              <path class="cls-49" d="M141.09,43h0v0h1.56a2.18,2.18,0,0,0-.23.09,11.3,11.3,0,0,0-1.3.05l0-.09Z"/>
            </g>
            <g class="cls-50">
              <path class="cls-51" d="M176.84,173.1a3.84,3.84,0,0,1-2.13,1.24l.86-.15c1.34.17.52,1.17,1,1.92A1.79,1.79,0,0,0,176.84,173.1Z"/>
              <path class="cls-51" d="M212.27,200.06c2.81-2.39,2.31-4.57,3.66-7.54C214.56,195.51,211,196.88,212.27,200.06Z"/>
              <path class="cls-51" d="M224.12,143.21Z"/>
              <path class="cls-51" d="M221.4,141.73v0h0c.2.13.41.24.58.33h-.11a3.36,3.36,0,0,0-.5-.26v-.05Z"/>
            </g>
            <g class="cls-52">
              <path class="cls-53" d="M134.3,54.88v0a.77.77,0,0,0-.42-.57h-.08a1,1,0,1,0-.76,1.95,1.24,1.24,0,0,0,1-.12A.93.93,0,0,0,134.3,54.88Z"/>
              <path class="cls-53" d="M128,97h0a.75.75,0,0,0-.42-.59l-.07,0a1.06,1.06,0,1,0-.78,2,1.19,1.19,0,0,0,1-.11A1,1,0,0,0,128,97Z"/>
              <path class="cls-53" d="M96.49,146.52h0a.72.72,0,0,0-.41-.6l-.07,0a1.06,1.06,0,1,0-.78,2,1.24,1.24,0,0,0,1-.12A.93.93,0,0,0,96.49,146.52Z"/>
              <path class="cls-53" d="M68.31,109.47l0,0a.82.82,0,0,0-.43-.58l-.06,0a1.06,1.06,0,1,0-.79,2,1.19,1.19,0,0,0,1-.13A.93.93,0,0,0,68.31,109.47Z"/>
              <path class="cls-53" d="M116.51,188.91v0a.88.88,0,0,0-.43-.6H116a1,1,0,1,0-.77,1.95,1.25,1.25,0,0,0,1-.11A.94.94,0,0,0,116.51,188.91Z"/>
              <path class="cls-53" d="M66.67,203.18l0,0a.84.84,0,0,0-.43-.6h0a1.06,1.06,0,1,0-.79,2,1.19,1.19,0,0,0,1-.13A.93.93,0,0,0,66.67,203.18Z"/>
              <path class="cls-53" d="M48.34,188v0a.81.81,0,0,0-.43-.57h-.06a1.05,1.05,0,1,0-.78,2,1.14,1.14,0,0,0,1-.1A.94.94,0,0,0,48.34,188Z"/>
              <path class="cls-53" d="M84.05,228.45v0a.79.79,0,0,0-.44-.59l-.06,0a1.05,1.05,0,1,0-.76,2,1.27,1.27,0,0,0,1-.12A.93.93,0,0,0,84.05,228.45Z"/>
              <path class="cls-53" d="M100.32,237.53h0a.8.8,0,0,0-.43-.59H99.8a1,1,0,1,0-.77,2,1.2,1.2,0,0,0,1-.12A.93.93,0,0,0,100.32,237.53Z"/>
              <path class="cls-53" d="M144.62,243.32h0a.72.72,0,0,0-.42-.58h-.08a1.05,1.05,0,1,0-.76,2,1.4,1.4,0,0,0,1-.12A1,1,0,0,0,144.62,243.32Z"/>
              <path class="cls-53" d="M144.62,225.93h0a.74.74,0,0,0-.42-.58.22.22,0,0,0-.08,0,1.06,1.06,0,1,0-.76,2,1.26,1.26,0,0,0,1-.14A1,1,0,0,0,144.62,225.93Z"/>
              <path class="cls-53" d="M169.31,225h0a.84.84,0,0,0-.42-.61.21.21,0,0,0-.08,0,1.05,1.05,0,1,0-.77,2,1.16,1.16,0,0,0,1-.11A.92.92,0,0,0,169.31,225Z"/>
              <path class="cls-53" d="M184.23,52.84v0a.85.85,0,0,0-.44-.58l-.06,0a1,1,0,1,0-.77,1.94,1.14,1.14,0,0,0,1-.09A.93.93,0,0,0,184.23,52.84Z"/>
              <path class="cls-53" d="M154.85,32.3h0a.77.77,0,0,0-.43-.58h-.06a1.06,1.06,0,1,0-.78,2,1.26,1.26,0,0,0,1-.12A1,1,0,0,0,154.85,32.3Z"/>
              <path class="cls-53" d="M122,41.24v0a.77.77,0,0,0-.44-.59l0,0a1.06,1.06,0,1,0-.78,2,1.28,1.28,0,0,0,1-.13A.93.93,0,0,0,122,41.24Z"/>
              <path class="cls-53" d="M68.8,66.22h0a.74.74,0,0,0-.41-.6l-.07,0a1,1,0,1,0-.77,2,1.18,1.18,0,0,0,1-.11A1,1,0,0,0,68.8,66.22Z"/>
              <path class="cls-53" d="M192,98.8v0a.83.83,0,0,0-.44-.58l-.06,0a1.05,1.05,0,1,0-.76,2,1.24,1.24,0,0,0,1-.12A.94.94,0,0,0,192,98.8Z"/>
            </g>
          </g>
          <g>
            <path class="cls-54" d="M183.72,102.84s22.88-47,87.5-25.38c68.31,22.84,114.9,78,114.9,131.61-4,48.88-74.95,67.21-118,63s-69.56-32.42-86.63-81.76C174.73,170.52,165.78,142.79,183.72,102.84Z"/>
            <g>
              <path class="cls-55" d="M272.22,240.24c3.16,1.1,5.29,3.37,4.77,5s-3.54,2.08-6.72,1-5.31-3.39-4.78-5.06S269.05,239.1,272.22,240.24Z"/>
              <path class="cls-56" d="M221.88,115.63c-.91,2.91-2.79,4.85-4.15,4.38s-1.76-3.23-.86-6.12,2.8-4.86,4.19-4.37S222.81,112.74,221.88,115.63Z"/>
              <path class="cls-57" d="M191.91,115c.2,2.23-.47,4.11-1.52,4.24s-2.11-1.6-2.31-3.82.47-4.11,1.52-4.23S191.68,112.8,191.91,115Z"/>
              <path class="cls-58" d="M262.75,208c.52,1.12.5,2.23,0,2.5s-1.38-.41-1.89-1.54-.51-2.24,0-2.5S262.24,206.9,262.75,208Z"/>
              <path class="cls-59" d="M249.8,187.28c-.23,1.23-.9,2.11-1.49,2s-.85-1.21-.6-2.43.91-2.1,1.5-2S250.06,186.08,249.8,187.28Z"/>
              <path class="cls-60" d="M227,213.42c.58,1.08.65,2.18.13,2.49s-1.41-.31-2-1.39-.66-2.19-.15-2.51S226.37,212.33,227,213.42Z"/>
              <path class="cls-61" d="M298.3,172.16c1.63,1.76,2.19,4,1.22,5s-3.09.46-4.77-1.27-2.19-4-1.22-5S296.64,170.44,298.3,172.16Z"/>
              <path class="cls-62" d="M329.43,225.3c-.29,2.43-1.63,4.24-3,4s-2.23-2.29-1.94-4.74,1.65-4.24,3-4.07S329.74,222.85,329.43,225.3Z"/>
              <path class="cls-63" d="M334.32,170.6c.75,1,.88,2.23.3,2.68s-1.64,0-2.39-1-.86-2.24-.28-2.69S333.6,169.57,334.32,170.6Z"/>
              <path class="cls-64" d="M360.54,214.44c.15,1.28-.32,2.38-1.05,2.47s-1.41-.88-1.53-2.18.33-2.38,1.06-2.46S360.43,213.15,360.54,214.44Z"/>
              <path class="cls-65" d="M331.93,224.54c-.35,5.13-2.95,9.11-5.83,8.9s-5-4.53-4.63-9.66,3-9.09,5.84-8.88S332.27,219.42,331.93,224.54Z"/>
              <g class="cls-66">
                <path class="cls-67" d="M331.93,224.54c-.35,5.13-2.95,9.11-5.83,8.9s-5-4.53-4.63-9.66,3-9.09,5.84-8.88S332.27,219.42,331.93,224.54Z"/>
              </g>
              <path class="cls-65" d="M300.3,170.19c3.61,3.49,4.93,8.12,2.95,10.35s-6.47,1.2-10.08-2.28-4.92-8.13-2.94-10.36S296.71,166.7,300.3,170.19Z"/>
              <g class="cls-68">
                <path class="cls-67" d="M300.3,170.19c3.61,3.49,4.93,8.12,2.95,10.35s-6.47,1.2-10.08-2.28-4.92-8.13-2.94-10.36S296.71,166.7,300.3,170.19Z"/>
              </g>
              <path class="cls-65" d="M265,206.2c1.91,3.41,1.9,7.14,0,8.32s-5-.62-6.95-4.06-1.88-7.15.07-8.33S263.08,202.77,265,206.2Z"/>
              <g class="cls-69">
                <path class="cls-67" d="M265,206.2c1.91,3.41,1.9,7.14,0,8.32s-5-.62-6.95-4.06-1.88-7.15.07-8.33S263.08,202.77,265,206.2Z"/>
              </g>
              <path class="cls-65" d="M228.15,212.6c1.31,2.34,1.31,4.9,0,5.69s-3.47-.42-4.79-2.78-1.29-4.91,0-5.72S226.84,210.23,228.15,212.6Z"/>
              <g class="cls-70">
                <path class="cls-67" d="M228.15,212.6c1.31,2.34,1.31,4.9,0,5.69s-3.47-.42-4.79-2.78-1.29-4.91,0-5.72S226.84,210.23,228.15,212.6Z"/>
              </g>
              <path class="cls-71" d="M216,224.22c.88.86,1.25,1.9.85,2.36s-1.43.13-2.29-.72-1.27-1.89-.85-2.34S215.12,223.39,216,224.22Z"/>
              <path class="cls-65" d="M216.89,223.07c1.92,1.84,2.65,4.28,1.61,5.47s-3.43.67-5.35-1.17-2.64-4.29-1.61-5.48S215,221.25,216.89,223.07Z"/>
              <g class="cls-72">
                <path class="cls-67" d="M216.89,223.07c1.92,1.84,2.65,4.28,1.61,5.47s-3.43.67-5.35-1.17-2.64-4.29-1.61-5.48S215,221.25,216.89,223.07Z"/>
              </g>
              <path class="cls-65" d="M252,188.24c-1.05,3.1-3.34,5.06-5.09,4.41s-2.26-3.72-1.2-6.81,3.37-5,5.1-4.37S253.05,185.15,252,188.24Z"/>
              <g class="cls-73">
                <path class="cls-67" d="M252,188.24c-1.05,3.1-3.34,5.06-5.09,4.41s-2.26-3.72-1.2-6.81,3.37-5,5.1-4.37S253.05,185.15,252,188.24Z"/>
              </g>
              <path class="cls-65" d="M336.23,169.26c2,3,2.3,6.37.64,7.64s-4.65-.15-6.69-3.11-2.3-6.38-.65-7.62S334.21,166.29,336.23,169.26Z"/>
              <g class="cls-74">
                <path class="cls-75" d="M336.23,169.26c2,3,2.3,6.37.64,7.64s-4.65-.15-6.69-3.11-2.3-6.38-.65-7.62S334.21,166.29,336.23,169.26Z"/>
              </g>
              <path class="cls-65" d="M363.05,214.22c.59,3.8-.64,7.19-2.78,7.54s-4.37-2.39-5-6.19.64-7.18,2.8-7.57S362.44,210.41,363.05,214.22Z"/>
              <g class="cls-76">
                <path class="cls-67" d="M363.05,214.22c.59,3.8-.64,7.19-2.78,7.54s-4.37-2.39-5-6.19.64-7.18,2.8-7.57S362.44,210.41,363.05,214.22Z"/>
              </g>
              <path class="cls-65" d="M224.31,116.26C222.7,121.54,219,125,216,124s-4.11-6.08-2.49-11.38,5.32-8.78,8.31-7.78S225.92,111,224.31,116.26Z"/>
              <g class="cls-77">
                <path class="cls-67" d="M224.31,116.26C222.7,121.54,219,125,216,124s-4.11-6.08-2.49-11.38,5.32-8.78,8.31-7.78S225.92,111,224.31,116.26Z"/>
              </g>
              <path class="cls-65" d="M272.54,237.48c5.08,1.61,8.47,5.46,7.55,8.61s-5.75,4.36-10.84,2.76-8.45-5.47-7.55-8.61S267.46,235.86,272.54,237.48Z"/>
              <g class="cls-78">
                <path class="cls-67" d="M272.54,237.48c5.08,1.61,8.47,5.46,7.55,8.61s-5.75,4.36-10.84,2.76-8.45-5.47-7.55-8.61S267.46,235.86,272.54,237.48Z"/>
              </g>
            </g>
            <g class="cls-46">
              <path class="cls-47" d="M342.28,249.49a1.31,1.31,0,0,0,.88,1.52,3.26,3.26,0,0,0,2.12-.19,1.39,1.39,0,0,0,.58-.09c.86-.07,1.6-.55,1.21-1.54-.51-1.24-2.56-1.09-3.56-.81A1.63,1.63,0,0,0,342.28,249.49Z"/>
              <path class="cls-47" d="M308.49,240.86a.62.62,0,0,0,.05.84,4.12,4.12,0,0,0,2.51.72,1.68,1.68,0,0,0,1.09-.23c.29-.24.41-.73.08-1-.18-.63-1.12-.81-1.64-.9A2,2,0,0,0,308.49,240.86Z"/>
              <path class="cls-47" d="M299.61,245.62a.63.63,0,0,0,.26.82c1,.6,2.14.25,3.16.56a1.06,1.06,0,0,0,.5.2.47.47,0,0,0,.12.07c.24.14.44-.09.43-.32a.4.4,0,0,0,.07-.19c.16-.92-1.36-1.62-2-1.85A1.84,1.84,0,0,0,299.61,245.62Z"/>
              <path class="cls-47" d="M304.7,205.4a1.8,1.8,0,0,0,.85,1.7,5.58,5.58,0,0,0,1.61,1.26c.38,1.33,2.11,1.38,3.69.83a6.29,6.29,0,0,0,3.54-1.68c1.79-1.8-1-4-2.27-4.9-1.44-1-4.51-3.17-6.19-1.75C304.84,201.77,304.86,204.07,304.7,205.4Z"/>
              <path class="cls-47" d="M278,172.91c.23.79,1,.81,1.68.69a3.46,3.46,0,0,0,.89-.3,1.35,1.35,0,0,0,1.23-1.44,1.81,1.81,0,0,0-1.43-1.62,2,2,0,0,0-2.11.23A2.82,2.82,0,0,0,278,172.91Z"/>
              <path class="cls-47" d="M218.53,165.2a1.21,1.21,0,0,0-.24.73.52.52,0,0,0,.29.47.73.73,0,0,0,.31.47.67.67,0,0,0,.58.48.56.56,0,0,0,.63.26.66.66,0,0,0,1-.14v0a1.24,1.24,0,0,0,.55-.78.49.49,0,0,0-.31-.61.61.61,0,0,0-.61-.54.5.5,0,0,0-.62-.1,3.48,3.48,0,0,1-1.54-.22Z"/>
              <path class="cls-47" d="M268.24,167.6l.32.19a.48.48,0,0,0-.07.18.53.53,0,0,0,.13.54.69.69,0,0,0,.51.74.47.47,0,0,0,.32.16c.08.09.13.18.22.22a.55.55,0,0,0,.85.1,4.38,4.38,0,0,0,.57-.57l0,0a.56.56,0,0,0,.13-.37.57.57,0,0,0-.27-.7.27.27,0,0,0-.08-.18c0-.39-.39-.78-.77-.65a.43.43,0,0,0-.23-.14.39.39,0,0,0-.2-.16,4.39,4.39,0,0,1-.84-.49C268.12,166,267.6,167.13,268.24,167.6Z"/>
              <path class="cls-47" d="M222.51,117.9a.66.66,0,0,0,.64.45l.07,0a.76.76,0,0,0,.18.23,1.15,1.15,0,0,0,.68.3l.17.13a.73.73,0,0,0,.74,0,.11.11,0,0,0,.06,0,.78.78,0,0,0,.73-.06.5.5,0,0,0,.46-.35,1.06,1.06,0,0,1,0-.19,1.47,1.47,0,0,0,.17-.58.59.59,0,0,0-.28-.54.13.13,0,0,1,0-.08c-.21-.75-1.52-1-2.13-1.21a1,1,0,0,0-1.23.31A1.67,1.67,0,0,0,222.51,117.9Z"/>
              <path class="cls-47" d="M187.05,117.55a3.07,3.07,0,0,0,1.23,2.33,3.47,3.47,0,0,0,1.32.55,1.48,1.48,0,0,0,1.05-.14c.09.24.18.43.56.43a2.29,2.29,0,0,0,.74-.12,1.26,1.26,0,0,0,1-.59c1.15-1.62-1.37-3.1-2.51-3.51S187.08,115.76,187.05,117.55Z"/>
              <path class="cls-47" d="M189.73,109.11a3.21,3.21,0,0,0,1.4,1.16.41.41,0,0,0,.4,0,1.83,1.83,0,0,0,1.45,0,.72.72,0,0,0,.33-1c-.61-1.15-2.07-2.43-3.37-1.75A1.1,1.1,0,0,0,189.73,109.11Z"/>
              <path class="cls-47" d="M222.25,100.38c-.34,1.31,1.32,1.6,2.31,1.21a2.14,2.14,0,0,0,1.12-.59.75.75,0,0,0-.05-1C224.66,99.25,222.66,98.76,222.25,100.38Z"/>
              <path class="cls-47" d="M256.26,80.85c-.43.88.44,1.63,1.15,2a6.4,6.4,0,0,0,2.25.54,3.2,3.2,0,0,0,2.94.33c1.95-1,.4-3.31-.83-4.14a3,3,0,0,0-3,.08C258.09,79.91,256.62,80.08,256.26,80.85Z"/>
              <path class="cls-47" d="M295.29,109.45c.52,1,1.51,2.26,2.66,2.38a2.14,2.14,0,0,0,2.89-.93.71.71,0,0,0-.14-.82,5,5,0,0,0-5.13-1.54C295.19,108.63,295.12,109.13,295.29,109.45Z"/>
              <path class="cls-47" d="M341.92,171.51c.27,1.26,1.91,1,2.94.63,1.23-.08,2.49-.63,2.6-2,.17-1.71-2.13-2.17-3.27-1.51C343.37,169.09,341.63,170.3,341.92,171.51Z"/>
            </g>
            <g class="cls-52">
              <path class="cls-53" d="M231.1,124.84h0a.73.73,0,0,0-.7,0s0,0,0,.05c-1.23.84-.06,2.7,1.09,1.77a1.28,1.28,0,0,0,.46-.91A.91.91,0,0,0,231.1,124.84Z"/>
              <path class="cls-53" d="M260.73,154.07h0a.7.7,0,0,0-.7,0l-.06.06c-1.23.83-.07,2.69,1.11,1.76a1.25,1.25,0,0,0,.45-.9A.92.92,0,0,0,260.73,154.07Z"/>
              <path class="cls-53" d="M260.34,178.93h0a.79.79,0,0,0-.71,0l-.05,0c-1.22.82-.06,2.7,1.11,1.78a1.42,1.42,0,0,0,.47-.9A.91.91,0,0,0,260.34,178.93Z"/>
              <path class="cls-53" d="M236.86,212.73h0a.73.73,0,0,0-.7,0l-.06,0c-1.21.83,0,2.7,1.11,1.8a1.41,1.41,0,0,0,.46-.94A.87.87,0,0,0,236.86,212.73Z"/>
              <path class="cls-53" d="M305,185.54h0a.76.76,0,0,0-.69.05s-.07,0-.07.06c-1.23.83-.07,2.67,1.12,1.75a1.16,1.16,0,0,0,.43-.89A.9.9,0,0,0,305,185.54Z"/>
              <path class="cls-53" d="M288.15,236.69h0a.73.73,0,0,0-.71.05l-.05,0c-1.23.82-.06,2.69,1.11,1.76a1.24,1.24,0,0,0,.45-.91A.91.91,0,0,0,288.15,236.69Z"/>
              <path class="cls-53" d="M265.85,244h0a.77.77,0,0,0-.69,0l-.07,0c-1.2.86-.05,2.72,1.12,1.79a1.25,1.25,0,0,0,.45-.9A.93.93,0,0,0,265.85,244Z"/>
              <path class="cls-53" d="M317.87,235.92h0a.73.73,0,0,0-.7,0l-.06.06c-1.22.84-.05,2.7,1.11,1.77a1.34,1.34,0,0,0,.46-.9A.92.92,0,0,0,317.87,235.92Z"/>
              <path class="cls-53" d="M334.23,227h0a.78.78,0,0,0-.71,0l-.05,0c-1.23.84-.06,2.72,1.1,1.79a1.46,1.46,0,0,0,.48-.9A.94.94,0,0,0,334.23,227Z"/>
              <path class="cls-53" d="M363.79,192h0a.78.78,0,0,0-.7,0s-.06,0-.06,0c-1.22.84,0,2.7,1.12,1.78a1.36,1.36,0,0,0,.44-.92A.87.87,0,0,0,363.79,192Z"/>
              <path class="cls-53" d="M350.1,182.14h0a.83.83,0,0,0-.69,0l-.08.07c-1.21.83-.05,2.7,1.12,1.76a1.29,1.29,0,0,0,.47-.9A.93.93,0,0,0,350.1,182.14Z"/>
              <path class="cls-53" d="M363.34,160.27h0a.7.7,0,0,0-.71.06s-.05,0-.05,0c-1.23.83-.08,2.7,1.11,1.77a1.29,1.29,0,0,0,.43-.9A.91.91,0,0,0,363.34,160.27Z"/>
              <path class="cls-53" d="M257.68,80.52h0a.82.82,0,0,0-.7,0l-.06.06c-1.23.82-.05,2.69,1.11,1.77a1.34,1.34,0,0,0,.46-.91A.91.91,0,0,0,257.68,80.52Z"/>
              <path class="cls-53" d="M224.89,94.35h0a.73.73,0,0,0-.7.05s-.06,0-.06,0c-1.23.82-.06,2.69,1.1,1.78a1.37,1.37,0,0,0,.45-.91A.88.88,0,0,0,224.89,94.35Z"/>
              <path class="cls-53" d="M213.42,127.75h0a.77.77,0,0,0-.72,0,.17.17,0,0,0-.06,0c-1.21.83,0,2.7,1.11,1.79a1.47,1.47,0,0,0,.47-.92A.9.9,0,0,0,213.42,127.75Z"/>
              <path class="cls-53" d="M203.05,187.88h0a.7.7,0,0,0-.7,0l-.06.05c-1.23.83-.06,2.69,1.12,1.76a1.28,1.28,0,0,0,.44-.9A.9.9,0,0,0,203.05,187.88Z"/>
              <path class="cls-53" d="M298.25,99.79h0a.74.74,0,0,0-.7,0,.11.11,0,0,0,0,0c-1.22.85-.07,2.69,1.12,1.78a1.54,1.54,0,0,0,.46-.9A1,1,0,0,0,298.25,99.79Z"/>
            </g>
            <g class="cls-50">
              <g class="cls-79">
                <path class="cls-80" d="M273.48,262c-42.41-.7-73.38-43-72.7-64.88,1-33.82-4-33.86-19.52-61.32a40.54,40.54,0,0,1-4.48-13.61c-8,29.83-.9,51.73,4.68,68.14C198.53,239.62,225,267.82,268.09,272c28.71,2.83,69.73-4.37,95.12-23.94C333.64,262.6,305.7,262.47,273.48,262Z"/>
              </g>
            </g>
          </g>
        </g>
      </g>
    </g>
  </g>
</svg>
