<svg id="Layer_1" data-name="Layer 1" xmlns="http://www.w3.org/2000/svg" width="257.87" height="255.27" viewBox="0 0 257.87 255.27">
  <defs>
    <style>
      .cls-1 {
        opacity: 0.5;
      }

      .cls-2, .cls-29, .cls-7 {
        fill: #fff;
      }

      .cls-11, .cls-3 {
        fill: #fba96a;
      }

      .cls-17, .cls-18, .cls-20, .cls-24, .cls-29, .cls-3 {
        stroke: #000;
      }

      .cls-12, .cls-13, .cls-14, .cls-15, .cls-17, .cls-18, .cls-19, .cls-20, .cls-22, .cls-24, .cls-29, .cls-3, .cls-4, .cls-5, .cls-7, .cls-8 {
        stroke-miterlimit: 10;
      }

      .cls-13, .cls-14, .cls-17, .cls-19, .cls-20, .cls-3 {
        stroke-width: 0.5px;
      }

      .cls-4, .cls-5 {
        fill: #f29e64;
      }

      .cls-12, .cls-13, .cls-14, .cls-15, .cls-19, .cls-22, .cls-4, .cls-5, .cls-7, .cls-8 {
        stroke: #892929;
      }

      .cls-12, .cls-15, .cls-18, .cls-22, .cls-4, .cls-7, .cls-8 {
        stroke-width: 0.75px;
      }

      .cls-6 {
        fill: #3d0000;
      }

      .cls-10, .cls-13, .cls-24, .cls-8 {
        fill: none;
      }

      .cls-14, .cls-15, .cls-9 {
        fill: #fec400;
      }

      .cls-12 {
        fill: #f4904d;
      }

      .cls-16, .cls-17, .cls-19 {
        fill: #fba15c;
      }

      .cls-18, .cls-20, .cls-23 {
        fill: #e0000c;
      }

      .cls-21 {
        fill: #c10517;
      }

      .cls-22 {
        fill: #6d4429;
      }

      .cls-24 {
        stroke-width: 0.33px;
      }

      .cls-25 {
        fill: #d1342d;
      }

      .cls-26 {
        fill: #e56f4b;
      }

      .cls-27 {
        fill: #3b0202;
      }

      .cls-28 {
        fill: #ff8a66;
      }

      .cls-29 {
        stroke-width: 0.31px;
      }
    </style>
  </defs>
  <g>
    <path class="cls-1" d="M255.61,241.67c-3.17-7.15-7.41-16.33-10.22-20.79l-.77-1.92a201.74,201.74,0,0,0-12.46-26.07c.17-7.79-1.66-17.55-2.29-20.69l0-.15a8,8,0,0,0-4.52-5.78L222,164.74a8,8,0,0,0-1.89-.6c-2.94-.54-11.4-2.19-15.26-3.29a103.76,103.76,0,0,0-14.23-2.77l-2.11-.31a11.58,11.58,0,0,0-2.23-1.23c-1.67-.72-3.81-1.14-7.57-1.38,4.69-1.69,9-4.64,11.45-9.27,7-12.71-8.48-27.56-8.64-27.71l-.36-.31a16.86,16.86,0,0,0,4.2-4.13c5.22-4.4,6.78-13.64,6.89-17.23.13-4.51-1-8.3-3.25-11,5.57-13.74,4.38-29.38-3.53-44.33a19.57,19.57,0,0,0-2.09-13.58C176.72,14.93,160,7.37,138.52,7.37h-1.65a5.69,5.69,0,0,0-.83.06c-28.36,3.46-47.95,13-58.23,28.44C71.28,45.68,68.7,57.66,70.17,71a9.12,9.12,0,0,0-1.46,1.39,9.42,9.42,0,0,0-5.89,3.53,10.16,10.16,0,0,0-1.53,9,9.14,9.14,0,0,0-.86,1.61,9,9,0,0,0,1.47,9.29,9.33,9.33,0,0,0,1.74,1.64,17,17,0,0,0-.12,4.23,17.51,17.51,0,0,0,1,4.23,5.82,5.82,0,0,0-.4.45,8,8,0,0,0-1.7,6.39,15.36,15.36,0,0,0,3.52,8.09,19.26,19.26,0,0,0-.88,5.84A20,20,0,0,0,75.13,144a8.12,8.12,0,0,0,1.85.77A49.29,49.29,0,0,0,83.06,146c0,.43,0,.88,0,1.34a12.21,12.21,0,0,0,5.33,9.69l-1.06.81a26.49,26.49,0,0,1-4.58.63,26.8,26.8,0,0,0-16.85,1.36A39.16,39.16,0,0,0,38.66,174l0,0c-3.13,4.31-16.92,30.61-22.77,43.18C7.64,235,6.58,241.34,6.58,244.91a8,8,0,0,0,8,8H248.3a8,8,0,0,0,7.31-11.24Zm-84.33-104h0a8.5,8.5,0,0,0-.32-1.8,8.05,8.05,0,0,0-2.37-3.93c.32-.42.64-.84.95-1.27A14.94,14.94,0,0,1,171.28,137.63Z"/>
    <path class="cls-2" d="M250.61,236.67c-3.17-7.15-7.41-16.33-10.22-20.79l-.77-1.92a201.74,201.74,0,0,0-12.46-26.07c.17-7.79-1.66-17.55-2.29-20.69l0-.15a8,8,0,0,0-4.52-5.78L217,159.74a8,8,0,0,0-1.89-.6c-2.94-.54-11.4-2.19-15.26-3.29a103.76,103.76,0,0,0-14.23-2.77l-2.11-.31a11.58,11.58,0,0,0-2.23-1.23c-1.67-.72-3.81-1.14-7.57-1.38,4.69-1.69,9-4.64,11.45-9.27,7-12.71-8.48-27.56-8.64-27.71l-.36-.31a16.86,16.86,0,0,0,4.2-4.13c5.22-4.4,6.78-13.64,6.89-17.23.13-4.51-1-8.3-3.25-11,5.57-13.74,4.38-29.38-3.53-44.33a19.57,19.57,0,0,0-2.09-13.58C171.72,9.93,155,2.37,133.52,2.37h-1.65a5.69,5.69,0,0,0-.83.06c-28.36,3.46-47.95,13-58.23,28.44C66.28,40.68,63.7,52.66,65.17,66a9.12,9.12,0,0,0-1.46,1.39,9.42,9.42,0,0,0-5.89,3.53,10.16,10.16,0,0,0-1.53,9,9.14,9.14,0,0,0-.86,1.61,9,9,0,0,0,1.47,9.29,9.33,9.33,0,0,0,1.74,1.64,17,17,0,0,0-.12,4.23,17.51,17.51,0,0,0,1,4.23,5.82,5.82,0,0,0-.4.45,8,8,0,0,0-1.7,6.39,15.36,15.36,0,0,0,3.52,8.09,19.26,19.26,0,0,0-.88,5.84A20,20,0,0,0,70.13,139a8.12,8.12,0,0,0,1.85.77A49.29,49.29,0,0,0,78.06,141c0,.43,0,.88,0,1.34a12.21,12.21,0,0,0,5.33,9.69l-1.06.81a26.49,26.49,0,0,1-4.58.63,26.8,26.8,0,0,0-16.85,1.36A39.16,39.16,0,0,0,33.66,169l0,0c-3.13,4.31-16.92,30.61-22.77,43.18C2.64,230,1.58,236.34,1.58,239.91a8,8,0,0,0,8,8H243.3a8,8,0,0,0,7.31-11.24Zm-84.33-104h0a8.5,8.5,0,0,0-.32-1.8,8.05,8.05,0,0,0-2.37-3.93c.32-.42.64-.84.95-1.27A14.94,14.94,0,0,1,166.28,132.63Z"/>
    <g>
      <path class="cls-3" d="M166,87.25c-2.17-8.3-6.53-26.5-5.65-38.21,0,.26-7.24-1.16-9.69-4.52.13.13-68.27-5-61.81,49.55L88.77,94c-.89-.81-8.28-3.67-10-7.82a9.29,9.29,0,0,0-4.13.74c-7.31,3-5.06,15.18,5,19.52a8.25,8.25,0,0,0,6.33.83,47.86,47.86,0,0,0,8.25,15.35c.64.78,1.31,1.55,2,2.32h0a39.45,39.45,0,0,0,4.75,4.29,36.79,36.79,0,0,0,6.84,4.14c6.54,3,14.86,4.56,25.41,3.06a48.6,48.6,0,0,0,9.12-3.21c8-3.64,18.55-10.9,20.6-24.17C159.74,97.72,164.08,90,166,87.25ZM85.6,106.12A3.08,3.08,0,0,1,83,107.43a2.76,2.76,0,1,1,3-2.75A2.53,2.53,0,0,1,85.6,106.12Zm47.1-12.05A2.74,2.74,0,1,1,130,96.81,2.74,2.74,0,0,1,132.7,94.07ZM96.79,80.92c0-4.89,4.62-8.84,10.33-8.84s10.33,4,10.33,8.84-4.62,8.84-10.33,8.84S96.79,85.8,96.79,80.92Zm47.77,8.84c-5.71,0-10.33-4-10.33-8.84s4.62-8.84,10.33-8.84,10.34,4,10.34,8.84S150.27,89.76,144.56,89.76Z"/>
      <path class="cls-4" d="M142,239.91H127.27s-1-12.27,0-15c.67-8.16-.19-14.61,0-15.09-1.14-5.22-1-11.29,1-9.48l0,0a22.35,22.35,0,0,0-1.07-3.84,20.84,20.84,0,0,1-.86-5.48v0a29.23,29.23,0,0,0,0-4.5h0a5.82,5.82,0,0,1,.16-1c.19-.7,1,.19,2.16,1.91-.29-1.64-.8-4.32-.32-5.89a1.57,1.57,0,0,1,2-1.22.1.1,0,0,1,0,.05c1.2,1.19,3.42,5.67,5.5,10.78a96.78,96.78,0,0,1,4,11.76,27.92,27.92,0,0,1,.73,3.77c.34,3.1.83,9.37,1.16,15.83A142.56,142.56,0,0,1,142,239.91Z"/>
      <path class="cls-5" d="M126.41,186.52a25.86,25.86,0,0,0,0,4.5v0a21.16,21.16,0,0,1-.87,5.48,21.44,21.44,0,0,0-1.07,3.84l0,0c2-1.81,2.19,4.26,1.05,9.48.19.48-.67,6.93,0,15.09,1,2.75,0,15,0,15H110.86a134,134,0,0,1,.06-16.16c.22-4.53.53-9.06.82-12.57.14-1.83.29-3.38.41-4.51.48-4.53,3.58-13.2,6.38-19.42,1.55-3.42,3-6.1,3.87-6.94,1.91-.35,2.28,1.41,2.18,3.43a31.28,31.28,0,0,1-.5,3.68c1.12-1.72,2-2.61,2.15-1.91a6.74,6.74,0,0,1,.18,1Z"/>
      <path class="cls-6" d="M173.14,84.1l-.24.39a50.81,50.81,0,0,1-5.73,7.17c0-.07-.48-1.72-1.19-4.41-2.17-8.3-6.53-26.5-5.65-38.21,0,.26-7.24-1.16-9.69-4.52.13.13-68.27-5-61.81,49.55L88.77,94c-.89-.81-8.28-3.67-10-7.82-.52-1.22-1.06-2.58-1.59-4.07-.62-1.74-1.25-3.64-1.82-5.67h0C69.24,54.61,69,18.06,132,10.38c34.34-.59,44.87,18.73,39.6,26.33C171.07,36.53,188.49,60.1,173.14,84.1Z"/>
      <ellipse class="cls-7" cx="107.12" cy="80.92" rx="10.33" ry="8.84"/>
      <ellipse class="cls-6" cx="107.07" cy="80.23" rx="5.88" ry="5.97"/>
      <path class="cls-7" d="M154.9,80.92c0,4.88-4.63,8.84-10.34,8.84s-10.33-4-10.33-8.84,4.62-8.84,10.33-8.84S154.9,76,154.9,80.92Z"/>
      <ellipse class="cls-6" cx="144.51" cy="80.23" rx="5.88" ry="5.97"/>
      <path class="cls-8" d="M87.84,106.45a6.67,6.67,0,0,1-1.9.83"/>
      <path class="cls-8" d="M85.94,90.81s-2.49-4.31-7.17-4.62"/>
      <path class="cls-8" d="M85.6,106.12c0-.19-.07-.28-.07-.28"/>
      <path class="cls-6" d="M85.94,107.28a8.25,8.25,0,0,1-6.33-.83c-10-4.34-12.28-16.54-5-19.52a9.29,9.29,0,0,1,4.13-.74c-.52-1.22-1.06-2.58-1.59-4.07a37.51,37.51,0,0,0-3.59,2.25h0a24,24,0,0,0-2.36,1.86h0c-11.35,10.07,1,19,2,19.61a3.16,3.16,0,0,1,.9,1.14c1,0,1.62,0,1.67,0l.24-.48c6.41.48,1.72,4.57,1.72,4.57a14.4,14.4,0,0,0-2-.53c-.29.15-.58.29-.86.41-9.87,5.69-8.13,16.9-.77,21.1,18.27,5,20-4.76,20.09-9.4A47.86,47.86,0,0,1,85.94,107.28ZM83,117.56a2.76,2.76,0,1,1,3-2.74A2.9,2.9,0,0,1,83,117.56Z"/>
      <path class="cls-9" d="M73.58,84.37a24,24,0,0,0-2.36,1.86h0c-2.07.23-6.86,1.09-8.15-.47-1.45-1.76,2.31-3,5.09-3.22A21.07,21.07,0,0,0,73.58,84.37Z"/>
      <path class="cls-10" d="M69,82.48l-.8.06"/>
      <path class="cls-10" d="M71.22,86.23a2.64,2.64,0,0,1,.92,0"/>
      <path class="cls-10" d="M71.3,78.12a7.27,7.27,0,0,0-1.37-1.19h0"/>
      <path class="cls-10" d="M74.83,84.58c-.12,0-.58-.08-1.24-.21"/>
      <path class="cls-10" d="M76.67,78c-.4-.49-.84-1-1.31-1.58"/>
      <path class="cls-9" d="M77.18,82.12a37.51,37.51,0,0,0-3.59,2.25h0a21.07,21.07,0,0,1-5.43-1.83,7.57,7.57,0,0,1-4.08-4.42c-1.17-4.3,3.23-3,5.86-1.19-.52-1.6-1.16-4.42.7-4.85,1,.12,3,2.3,4.73,4.37h0C75.93,78.48,76.56,80.38,77.18,82.12Z"/>
      <path class="cls-10" d="M70.34,78s-.19-.45-.41-1.1h0"/>
      <path class="cls-9" d="M77.69,111.05a14.4,14.4,0,0,0-2-.53c-.29.15-.58.29-.86.41-9.15,4.17-9.54-4.45-9.6-4.45,1,.61,6.11.55,8.79.5,1,0,1.62,0,1.67,0l.24-.48C82.38,107,77.69,111.05,77.69,111.05Z"/>
      <path class="cls-6" d="M101,129.24c.86,14.09-6.86,6-10.18,9.47-2.88,1.92,1.28,7.67,1.28,7.67s-5.75.63-6-4.41,3.58-6.58,8.14-6.52c3.91-.36,2.64-7.73,2-10.5Z"/>
      <path class="cls-6" d="M171.06,119.06c-1.52-.92-4.16-4.44-4-12.68l.23.16a20.59,20.59,0,0,1-.12-15.25l0,0c0-.07-.47-1.71-1.18-4.4-1.9,2.69-6.25,10.46-3,21.81a31.89,31.89,0,0,0,1.14,3.37c11.16,10.29,11.47,21.62,9,25.41s-17,6.92-14.85-4.68c-.47.26-5.13.46-4.73,7,.79,5.89,20,5.89,24.61-2.82C181.78,130.48,172.29,120.2,171.06,119.06Z"/>
      <path class="cls-11" d="M175.68,84.25a8.75,8.75,0,0,0-2.54-.32l-.24.39a49.71,49.71,0,0,1-5.7,7.13,20.52,20.52,0,0,0,.13,15.25h0c3.42,2.07,7.25-3.22,6.95-3.6C177.82,102.35,182.64,86.18,175.68,84.25Z"/>
      <path class="cls-12" d="M172.47,102c-2.55,2.72-3.69-1.44-3.56-2.21.79-2.06-.36-2.44-1.12-3.15a1.66,1.66,0,0,1-.57-1.11,2.2,2.2,0,0,1,.45-1c1.37-1.88,5.35-4.39,5.66-4.07C176.71,94,175,99.3,172.47,102Z"/>
      <path class="cls-8" d="M158.28,133.09s0,.06,0,.08A.25.25,0,0,1,158.28,133.09Z"/>
      <path class="cls-13" d="M118.61,101.36a2.41,2.41,0,0,0,2.4.88c.13,0,3,2.44,7.76.06.12,0,2.23.3,3.16-.94"/>
      <circle class="cls-14" cx="132.7" cy="96.81" r="2.74"/>
      <path class="cls-9" d="M86.05,104.68a2.53,2.53,0,0,1-.45,1.44A3.08,3.08,0,0,1,83,107.43a2.76,2.76,0,1,1,3-2.75Z"/>
      <path class="cls-9" d="M86.05,114.82a3,3,0,1,1-3-2.75A2.89,2.89,0,0,1,86.05,114.82Z"/>
      <path class="cls-15" d="M128.73,187.42c-1.12-1.72-2-2.61-2.16-1.91a5.82,5.82,0,0,0-.16,1,6.74,6.74,0,0,0-.18-1c-.19-.7-1,.19-2.15,1.91a31.28,31.28,0,0,0,.5-3.68l3.83-2.21C127.93,183.1,128.44,185.78,128.73,187.42Z"/>
      <path class="cls-16" d="M150.18,169.09c-4,2.23-11.68,6.62-19.74,11.27a.1.1,0,0,0,0-.05,1.57,1.57,0,0,0-2,1.22l-3.83,2.21c.1-2-.27-3.78-2.18-3.43-.87.84-2.32,3.52-3.87,6.94-6.29,3.64-11.77,6.83-14.64,8.5h0c-6.49-17.83-8.27-38.88-8.27-38.88a13.62,13.62,0,0,0,5.39-1.49c.28-.15.56-.31.82-.48,0,.17,0,.34.08.52,1.07,5.41,10.61,12,16.4,12.87a3.43,3.43,0,0,0-1.91,2.78c0,2.24,3.18,4.07,7.11,4.07s7.11-1.83,7.11-4.07a3.52,3.52,0,0,0-2.13-2.89c4.73-.6,9.64-2,12.73-4.55a18.44,18.44,0,0,0,6.48-10.83,10.48,10.48,0,0,0,1.41.88h0C149.91,155.54,151.25,160.2,150.18,169.09Z"/>
      <path class="cls-17" d="M123.25,164.42c-12.57-.1-18-12.4-18.18-12.72h0a13.15,13.15,0,0,0,1-1.66c2.77-5.58,2.24-13.07,1.76-16.65,6.54,3,14.86,4.56,25.41,3.06a48.6,48.6,0,0,0,9.12-3.21c-.45,3.58-.77,10.12,1.72,15.14.19.38.4.76.62,1.12C145.08,153.86,136,164.52,123.25,164.42Z"/>
      <path class="cls-15" d="M147.77,152a5.09,5.09,0,0,1-.07.8,18.44,18.44,0,0,1-6.48,10.83c-3.09,2.58-8,4-12.73,4.55a3.52,3.52,0,0,1,2.13,2.89c0,2.24-3.19,4.07-7.11,4.07s-7.11-1.83-7.11-4.07a3.43,3.43,0,0,1,1.91-2.78c-5.79-.91-15.33-7.46-16.4-12.87,0-.18-.06-.35-.08-.52-.44-3.63,2.47-4.61,4.22-4.87a13.15,13.15,0,0,1-1,1.66h0c.15.32,5.61,12.62,18.18,12.72,12.72.1,21.83-10.56,21.43-14.93-.22-.36-.43-.74-.62-1.12,1.9.67,3.6,2.11,3.71,3.22A2.78,2.78,0,0,1,147.77,152Z"/>
      <path class="cls-18" d="M95,201a312.59,312.59,0,0,0-32.18,22.51,101.64,101.64,0,0,0-11.75,11C35.13,229.77,23,220,18.16,215.61c8.9-19.1,21.54-41.35,21.59-41.4C50.11,162,62.63,162.93,62.88,162.77a18.82,18.82,0,0,1,13.7-1.29s0,.1,0,.16c1.1,6.89,5.57,29.6,18.09,38.72C94.78,200.58,94.87,200.8,95,201Z"/>
      <path class="cls-17" d="M51,234.56a36.19,36.19,0,0,0-4,5.35H9.58c0-4.45,3.73-13.91,8.58-24.3C23,220,35.13,229.77,51,234.56Z"/>
      <path class="cls-8" d="M76.58,161.48l.4.12.32.09"/>
      <path class="cls-15" d="M103.35,215.43c-5,3.79-19.47,14.81-28.43,24.48H47a36.19,36.19,0,0,1,4-5.35,101.64,101.64,0,0,1,11.75-11A312.59,312.59,0,0,1,95,201,71.41,71.41,0,0,0,103.35,215.43Z"/>
      <path class="cls-8" d="M62.79,223.53c0-2.67-.14-7-.31-11.94-.46-13.2-1.28-30.48-1.5-30.48"/>
      <path class="cls-8" d="M62.48,211.59c-4.07-1.8-4.75-20.73-4.75-20.73"/>
      <path class="cls-15" d="M111.74,211.18c-.29,3.51-.6,8-.82,12.57a60.88,60.88,0,0,1-7.57-8.32A71.41,71.41,0,0,1,95,201c-.1-.22-.19-.44-.28-.66-7.44-17.31-8-35-7.9-40.81,2.55-1.9,7.72-6.38,12.18-6.16.06-.19,1.37,1.24,2,2a13.62,13.62,0,0,1-5.39,1.49s1.78,21,8.27,38.88h0A61.05,61.05,0,0,0,111.74,211.18Z"/>
      <path class="cls-17" d="M94.69,200.36c-12.52-9.12-17-31.83-18.09-38.72l.38,0c2-.17,7.61-.42,9.72-2a.31.31,0,0,1,.09-.07C86.73,165.4,87.25,183.05,94.69,200.36Z"/>
      <path class="cls-8" d="M76.6,161.64a1,1,0,0,0-.29.06"/>
      <path class="cls-15" d="M141.82,222.5c-.33-6.46-.82-12.73-1.16-15.83a27.92,27.92,0,0,0-.73-3.77A150.77,150.77,0,0,0,148.56,178a75.6,75.6,0,0,0,1.62-8.87c1.07-8.89-.27-13.55-1.07-15.41h0a10.48,10.48,0,0,1-1.41-.88,5.09,5.09,0,0,0,.07-.8c3,.35,8,1.7,10.72,4.2a8.5,8.5,0,0,1,.34,1.69,49.44,49.44,0,0,1,.45,5.92C159.51,174.53,157.29,195.75,141.82,222.5Z"/>
      <path class="cls-19" d="M164.55,159.92c-1.35,1.11-3.32,2.55-5.27,3.89a49.44,49.44,0,0,0-.45-5.92C160.19,158.43,162.69,159.39,164.55,159.92Z"/>
      <path class="cls-10" d="M166.25,160.29a9.85,9.85,0,0,1-1.7-.37"/>
      <path class="cls-10" d="M158.83,157.89l-1-.4"/>
      <path class="cls-20" d="M217,168.86a116.13,116.13,0,0,0-4.34,11.85c-3.19,10-7.91,26.9-14.11,55-.31,1.37-.61,2.77-.93,4.21H142a142.56,142.56,0,0,0-.13-17.41c15.47-26.75,17.69-48,17.46-58.69,1.95-1.34,3.92-2.78,5.27-3.89a8.4,8.4,0,0,0,1.7-1.66l.19-.36c3.06.06,9.76.18,11.67,1,2.43,1-.91,1,4.6,1.86a109.22,109.22,0,0,1,14.92,2.79c5.06,1.45,16,3.47,16,3.47l3.35,1.53S217,168.66,217,168.86Z"/>
      <path class="cls-21" d="M219,189.88a80.52,80.52,0,0,0-6.34-9.17A116.13,116.13,0,0,1,217,168.86C217.46,170.94,219.75,182.74,219,189.88Z"/>
      <path class="cls-13" d="M219,189.88a8.16,8.16,0,0,1-.1.88"/>
      <path class="cls-3" d="M243.3,239.91H197.66c.32-1.44.62-2.84.93-4.21,6-2.26,21.78-8.77,33.61-18.76.34.86.69,1.73,1,2.63C235.89,223.41,241.2,235.17,243.3,239.91Z"/>
      <path class="cls-20" d="M232.2,216.94c-11.83,10-27.62,16.5-33.61,18.76,6.2-28.09,10.92-45,14.11-55a80.52,80.52,0,0,1,6.34,9.17h0A184.49,184.49,0,0,1,232.2,216.94Z"/>
      <path class="cls-13" d="M208.61,176.59c.16,0,1.65,1.12,4.09,4.12"/>
      <path class="cls-10" d="M155.57,39.28c-.92-.46-63.24-26.52-76.23,43.2"/>
      <path class="cls-10" d="M155.57,35.57c-.3,0-35.77-30.59-67,7.23"/>
      <path class="cls-10" d="M165,35.24c-.5-.17-5.63-27.32-33.09-22.87"/>
      <path class="cls-10" d="M167.61,35.24s.69-15.88-11.33-20"/>
      <path class="cls-10" d="M163.21,46.16s6.65,17.44,4.4,35.28"/>
      <path class="cls-10" d="M169.11,46.16a47.32,47.32,0,0,1,2.8,29.07"/>
      <path class="cls-10" d="M174.36,46.16a45.84,45.84,0,0,1,0,24.71"/>
      <path class="cls-8" d="M119.46,222.52s2.55-19.29,5-22.16"/>
      <path class="cls-8" d="M124.08,187.42h0c-2.65,4.06-6.84,12.77-7.68,16.3-1.21,5-1.68,12.33-2.25,14.8"/>
      <line class="cls-8" x1="124.08" y1="187.43" x2="124.08" y2="187.42"/>
      <path class="cls-15" d="M118.53,187.25c-2.8,6.22-5.9,14.89-6.38,19.42-.12,1.13-.27,2.68-.41,4.51a61.05,61.05,0,0,1-7.85-15.43C106.76,194.08,112.24,190.89,118.53,187.25Z"/>
      <path class="cls-8" d="M128.34,200.36c2.46,2.87,5,22.16,5,22.16"/>
      <path class="cls-8" d="M138.66,218.53c-.57-2.47-1-9.77-2.25-14.8-.84-3.53-5-12.24-7.68-16.3h0"/>
      <line class="cls-8" x1="128.73" y1="187.43" x2="128.73" y2="187.42"/>
      <path class="cls-15" d="M150.18,169.09a75.6,75.6,0,0,1-1.62,8.87c-3.74,3.82-10.05,10.32-12.62,13.18-2.08-5.11-4.3-9.59-5.5-10.78C138.5,175.71,146.16,171.32,150.18,169.09Z"/>
      <path class="cls-20" d="M148.56,178a150.77,150.77,0,0,1-8.63,24.94,96.78,96.78,0,0,0-4-11.76C138.51,188.28,144.82,181.78,148.56,178Z"/>
      <path class="cls-20" d="M110.86,239.91H74.92c9-9.67,23.47-20.69,28.43-24.48a60.88,60.88,0,0,0,7.57,8.32A134,134,0,0,0,110.86,239.91Z"/>
      <path class="cls-22" d="M128.34,200.36l0,0c-2-1.81-2.18,4.26-1,9.48-.19.48.67,6.93,0,15.09-1,2.75,0,15,0,15h-1.73s1-12.27,0-15c-.67-8.16.19-14.61,0-15.09,1.14-5.22.95-11.29-1.05-9.48l0,0a21.44,21.44,0,0,1,1.07-3.84,21.16,21.16,0,0,0,.87-5.48,20.84,20.84,0,0,0,.86,5.48A22.35,22.35,0,0,1,128.34,200.36Z"/>
      <path class="cls-12" d="M78.73,101.76c2.55,2.73,3.7-1.43,3.57-2.21-1.11-2.86,1.55-2.47,1.68-4.25-.19-1.8-5.74-5.42-6.11-5C74.49,93.77,76.18,99,78.73,101.76Z"/>
      <path class="cls-6" d="M134.23,69.39V67.18s21.13-9.6,25.47,1.1C159.79,68,152.5,60.9,134.23,69.39Z"/>
      <path class="cls-6" d="M118.12,69.39V67.18S97,57.58,92.64,68.28C92.55,68,99.84,60.9,118.12,69.39Z"/>
      <circle class="cls-23" cx="126.41" cy="68.29" r="1.98"/>
      <g>
        <path class="cls-6" d="M154.85,80.92a8.85,8.85,0,0,1,0,.89c-.52-4.48-4.92-8-10.28-8s-9.77,3.48-10.29,8a8.85,8.85,0,0,1,0-.89c0-4.89,4.63-8.84,10.34-8.84S154.85,76,154.85,80.92Z"/>
        <path class="cls-6" d="M156.73,74.09a1.89,1.89,0,0,1-1.25,2.32,2,2,0,0,1-.26.09,1.8,1.8,0,0,1-2.26-.84,1.32,1.32,0,0,1-.09-.3,1.78,1.78,0,0,0,1.66.65,2.25,2.25,0,0,0,.71-.18,2,2,0,0,0,1.34-2A1.43,1.43,0,0,1,156.73,74.09Z"/>
        <path class="cls-6" d="M156,73.43c.27.65-.36,1.52-1.4,2l-.26.09c-1,.31-1.87.11-2.11-.48a.86.86,0,0,1-.06-.23,1.66,1.66,0,0,0,1.55.38,3.27,3.27,0,0,0,.7-.21c.92-.38,1.51-1.1,1.45-1.71A.63.63,0,0,1,156,73.43Z"/>
        <path class="cls-6" d="M158.25,74.88c.35.84-.42,2-1.72,2.51a3.19,3.19,0,0,1-.33.11c-1.19.39-2.34.11-2.66-.66a1.09,1.09,0,0,1-.08-.31,2.08,2.08,0,0,0,1.95.53,4.15,4.15,0,0,0,.88-.25c1.15-.48,1.88-1.41,1.79-2.2A1,1,0,0,1,158.25,74.88Z"/>
      </g>
      <g>
        <path class="cls-6" d="M96.79,79.6a6.55,6.55,0,0,0,0,.89c.51-4.48,4.92-8,10.28-8s9.77,3.48,10.28,8a6.54,6.54,0,0,0,.06-.89c0-4.88-4.63-8.84-10.34-8.84S96.79,74.72,96.79,79.6Z"/>
        <path class="cls-6" d="M94.91,72.78a1.86,1.86,0,0,0,1.24,2.31,1.34,1.34,0,0,0,.26.09,1.82,1.82,0,0,0,2.27-.83,1.11,1.11,0,0,0,.08-.3,1.79,1.79,0,0,1-1.66.64,2.39,2.39,0,0,1-.71-.18,2,2,0,0,1-1.33-2A1.51,1.51,0,0,0,94.91,72.78Z"/>
        <path class="cls-6" d="M95.61,72.11c-.27.65.35,1.52,1.4,2a2,2,0,0,0,.26.09c1,.31,1.86.12,2.11-.47a.69.69,0,0,0,.05-.24,1.64,1.64,0,0,1-1.54.38,3.68,3.68,0,0,1-.7-.2c-.92-.39-1.52-1.11-1.46-1.72A.82.82,0,0,0,95.61,72.11Z"/>
        <path class="cls-6" d="M93.39,73.56c-.35.84.41,2,1.72,2.51l.32.12c1.19.38,2.34.11,2.67-.67a.82.82,0,0,0,.07-.3,2.08,2.08,0,0,1-2,.52,4.07,4.07,0,0,1-.87-.25c-1.16-.48-1.89-1.41-1.8-2.2A.92.92,0,0,0,93.39,73.56Z"/>
      </g>
      <ellipse class="cls-2" cx="148.17" cy="76.6" rx="2.7" ry="1.3"/>
      <ellipse class="cls-2" cx="110.25" cy="75.94" rx="2.7" ry="1.3"/>
      <path class="cls-24" d="M118.93,126.71a18.48,18.48,0,0,1,15.42,0"/>
      <g>
        <path class="cls-25" d="M140.61,111.84l-.13.12a13,13,0,0,1-1.43.64,31.21,31.21,0,0,1-10.69,2.16h-.61c-6-.18-10.62-.78-14.16-2.14-.36-.14-.71-.28-1-.44h0l.38.09h0l.73.13a22.88,22.88,0,0,0,7.61.06c6.58-.29,10,.06,10.54,0a14.5,14.5,0,0,0,7.91-.29l.47-.17Z"/>
        <path class="cls-26" d="M140.73,111.84c-.3.52-.62,1-.93,1.46l0,0,0,0h0q-.3.42-.6.81c-3.69,4.71-8.16,6-9.64,6a27.42,27.42,0,0,1-3.14-.19c-7.46.45-12.61-6.2-13.77-7.84l-.06-.08.14.05h0c3.67,1.66,8.57,2.38,15.2,2.57a30.24,30.24,0,0,0,12.74-2.79h0Z"/>
        <g>
          <path class="cls-25" d="M113.85,112.56c-.59-.1-1-.18-1.12-.21h0l-.14,0h0c-.78-.19-1.23.73-1.64.66s-1-1-.44-1.51,1.18-.09,1.77.11A7.89,7.89,0,0,0,113.85,112.56Z"/>
          <path class="cls-26" d="M112.61,112.37c-.44-.06-.78.46-1.69,1.23s-1.11.26-1.47-.24a1.76,1.76,0,0,1,0-1.75c.24-.57,1.69-1.21,2.18-.65a4.9,4.9,0,0,0,.61.57c-.59-.2-1.4-.45-1.77-.11s0,1.45.44,1.51.86-.85,1.64-.66h0l0,0Z"/>
        </g>
        <g>
          <path class="cls-25" d="M139,112.58l1.13-.21h0l.14,0h0c.77-.19,1.22.73,1.64.66s.94-1,.43-1.51c-.37-.34-1.17-.09-1.77.11A7.63,7.63,0,0,1,139,112.58Z"/>
          <path class="cls-26" d="M140.2,112.39c.45-.06.78.46,1.69,1.23s1.11.26,1.48-.24a1.79,1.79,0,0,0,0-1.75c-.25-.57-1.69-1.21-2.19-.65a4.9,4.9,0,0,1-.61.57c.6-.2,1.4-.45,1.77-.11.51.49,0,1.45-.43,1.51s-.87-.85-1.64-.66h0l0,0Z"/>
        </g>
        <path class="cls-27" d="M139.31,112.69a25.24,25.24,0,0,1-11.2,2.63c-5.91-.24-10.56-1-14.26-2.63,3.54,1.16,8.14,1.67,14.16,1.82h.61A36.44,36.44,0,0,0,139.31,112.69Z"/>
        <path class="cls-28" d="M118,114.49s8.59,6.85,16.71,0C134.79,114.45,126.67,119,118,114.49Z"/>
      </g>
      <g>
        <g>
          <path class="cls-29" d="M99,178.33a3.54,3.54,0,0,0-3.48-.72,3.9,3.9,0,0,0-1.75,1,3.92,3.92,0,0,0-2.06.06,3.32,3.32,0,0,0-2.49,2.51,2.15,2.15,0,0,1-.56-.91c-.45-1.42.63-3,2.41-3.51a4,4,0,0,1,2.06-.05,3.81,3.81,0,0,1,1.75-1c1.78-.52,3.59.21,4,1.63A2.37,2.37,0,0,1,99,178.33Z"/>
          <path class="cls-29" d="M99.5,180.07a3.54,3.54,0,0,0-3.48-.72,3.9,3.9,0,0,0-1.75,1.05,4,4,0,0,0-2.06.06A3.33,3.33,0,0,0,89.72,183a2.24,2.24,0,0,1-.56-.92c-.45-1.42.63-3,2.41-3.5a4,4,0,0,1,2.07-.06,3.79,3.79,0,0,1,1.75-1.05c1.78-.52,3.59.21,4,1.63A2.09,2.09,0,0,1,99.5,180.07Z"/>
        </g>
        <g>
          <path class="cls-29" d="M101.62,188.35a3.52,3.52,0,0,0-3.47-.71,3.71,3.71,0,0,0-1.75,1.05,4.06,4.06,0,0,0-2.07.05,3.33,3.33,0,0,0-2.49,2.52,2.32,2.32,0,0,1-.56-.91c-.45-1.42.63-3,2.42-3.51a4,4,0,0,1,2.06-.06,4,4,0,0,1,1.75-1.05c1.78-.51,3.59.22,4,1.64A2.05,2.05,0,0,1,101.62,188.35Z"/>
          <path class="cls-29" d="M102.16,190.1a3.54,3.54,0,0,0-3.48-.72,3.9,3.9,0,0,0-1.75,1.05,3.92,3.92,0,0,0-2.06.06A3.32,3.32,0,0,0,92.38,193a2.24,2.24,0,0,1-.56-.92c-.45-1.42.63-3,2.41-3.51a4,4,0,0,1,2.06-.05A3.81,3.81,0,0,1,98,187.48c1.78-.52,3.59.21,4,1.63A2.38,2.38,0,0,1,102.16,190.1Z"/>
        </g>
      </g>
      <g>
        <g>
          <path class="cls-29" d="M147.91,179.62a3.54,3.54,0,0,1,3.48-.72,3.9,3.9,0,0,1,1.74,1,4.06,4.06,0,0,1,2.07.06,3.33,3.33,0,0,1,2.49,2.52,2.24,2.24,0,0,0,.56-.92c.45-1.41-.63-3-2.41-3.5a4.06,4.06,0,0,0-2.07-.06A3.85,3.85,0,0,0,152,177c-1.78-.52-3.59.22-4,1.63A2.09,2.09,0,0,0,147.91,179.62Z"/>
          <path class="cls-29" d="M147.37,181.36a3.56,3.56,0,0,1,3.48-.71,3.76,3.76,0,0,1,1.75,1,4.06,4.06,0,0,1,2.07.05,3.33,3.33,0,0,1,2.48,2.52,2.15,2.15,0,0,0,.56-.91c.45-1.42-.63-3-2.41-3.51a4,4,0,0,0-2.06,0,3.81,3.81,0,0,0-1.75-1.05c-1.78-.52-3.59.21-4,1.63A2.34,2.34,0,0,0,147.37,181.36Z"/>
        </g>
        <g>
          <path class="cls-29" d="M145.25,189.65a3.54,3.54,0,0,1,3.48-.72,3.9,3.9,0,0,1,1.75,1,3.92,3.92,0,0,1,2.06.06,3.32,3.32,0,0,1,2.49,2.52,2.24,2.24,0,0,0,.56-.92c.45-1.42-.63-3-2.41-3.5a4,4,0,0,0-2.07-.06,3.81,3.81,0,0,0-1.74-1.05c-1.78-.52-3.59.21-4,1.63A2.38,2.38,0,0,0,145.25,189.65Z"/>
          <path class="cls-29" d="M144.72,191.39a3.5,3.5,0,0,1,3.47-.71,3.78,3.78,0,0,1,1.75,1,4.17,4.17,0,0,1,2.07.06,3.33,3.33,0,0,1,2.49,2.52,2.32,2.32,0,0,0,.56-.91c.45-1.42-.63-3-2.41-3.51a4.06,4.06,0,0,0-2.07-.06,3.93,3.93,0,0,0-1.75-1c-1.78-.51-3.59.22-4,1.64A2,2,0,0,0,144.72,191.39Z"/>
        </g>
      </g>
    </g>
  </g>
</svg>
