<svg id="Layer_1" data-name="Layer 1" xmlns="http://www.w3.org/2000/svg" width="253.99" height="183.32" viewBox="0 0 253.99 183.32">
  <defs>
    <style>
      .cls-1, .cls-2 {
        fill: none;
        stroke-linejoin: round;
        stroke-width: 15px;
      }

      .cls-1 {
        stroke: #000;
        opacity: 0.5;
      }

      .cls-2 {
        stroke: #fff;
      }

      .cls-3, .cls-7 {
        fill: #ace543;
      }

      .cls-3, .cls-9 {
        stroke: #617731;
      }

      .cls-3, .cls-8, .cls-9 {
        stroke-miterlimit: 10;
      }

      .cls-4, .cls-5 {
        fill: #fff;
      }

      .cls-4 {
        opacity: 0.3;
      }

      .cls-6 {
        opacity: 0.05;
      }

      .cls-10, .cls-8 {
        fill: #207a08;
      }

      .cls-8 {
        stroke: #464f2c;
      }

      .cls-9 {
        fill: #6bbf35;
      }
    </style>
  </defs>
  <g>
    <path class="cls-1" d="M240.27,88.53a172.13,172.13,0,0,0-19.77-.27c1.18-.05,2.36-.09,3.55-.12q-1.53-1.26-3.15-2.37c-3.29-2.28-6.87-4.19-10.3-6.24-5.43-3.26-11-6.28-16.44-9.5l.7-.34A7.93,7.93,0,0,0,197.07,68a5,5,0,0,0,.49-.62c1.61-1.71,5.47-.81,5.47-.81a15.75,15.75,0,0,0,11.24-1.19l-.33-1a.08.08,0,0,1,0-.11l3.67-1.92-.42-.55a.17.17,0,0,1,0-.23l2.86-2.31s-1.06-.88-1.2-.94,4.21-4.74,4.21-4.74l-1.25-.83a.63.63,0,0,1-.26-.43l.13-.09a.23.23,0,0,0,0-.31s0,0-.07,0l2.06-3.51-1.28-.07a.55.55,0,0,1-.51-.58l.36-5.22-1.48-.2a.49.49,0,0,1-.4-.32l-1.79-5c0-.11,0-.2,0-.3a.22.22,0,0,0-.18-.25.22.22,0,0,0-.25.19l0,.17-.75.27a.53.53,0,0,1-.62-.22l-2.63-4.18c0-.08,0-.16,0-.23a.22.22,0,0,0-.18-.25.24.24,0,0,0-.15,0l-.13-.2-1.06.46a.59.59,0,0,1-.72-.2l-3-4.34-.69.45a.49.49,0,0,1-.64-.09l-1.57-1.8a6.87,6.87,0,0,0-.54-1,.21.21,0,0,0-.3-.07.21.21,0,0,0-.09.2l-.78.41a.31.31,0,0,1-.41-.11c-.69-1.16-4.36-3.24-5-3.59-.05,0-.08-.06-.1-.06s0,0,0,.08l.35,6.16-.74.32a.21.21,0,0,0-.29.28h0c.09.16.18.29.27.44a15.74,15.74,0,0,1-.68,5,.17.17,0,0,0-.14,0,.2.2,0,0,0-.09.29h0l.07.11a6.63,6.63,0,0,1-.86,1.51,1.75,1.75,0,0,1-1.11.77.23.23,0,0,0-.15-.09l-.07,0h0a.21.21,0,0,0-.26-.16.2.2,0,0,0-.12.1c-.75-.42-.73-1.73-.81-2.48a25.65,25.65,0,0,1-.05-3.28c-.3.17-.61.33-.91.51a.14.14,0,0,1-.2-.1,26.35,26.35,0,0,0-.6-2.91c-.48-1.82-1.11-3.59-1.66-5.39a6.31,6.31,0,0,1-.89.52h0a.22.22,0,0,0-.28-.13.21.21,0,0,0-.13.21.8.8,0,0,1-.21-.05c-.43-.18-.53-.65-.69-1-.56-1.29-1.16-2.49-1.82-3.73l-.81.6a.39.39,0,0,1-.52-.06l-3.49-4.16s-.44.28-.84.51l0,0a.21.21,0,0,0-.3,0,.2.2,0,0,0-.05.27l-.21.12c-2,.87-4.77-1-5.92-1.81-.14-.19-.26-.38-.41-.57a.21.21,0,0,0-.31,0,.21.21,0,0,0,0,.3c.09.12.16.23.24.35a1.87,1.87,0,0,1-.23.86c-.06.13-10-1.14-10-1.14,2.64,2.73,2.68,6.58,2.17,9.54A.2.2,0,0,0,166,24a.22.22,0,0,0,0,.31l.1.09a20.13,20.13,0,0,1-1.19,3.93c6,9,5.43,12.94,4.72,14.37a1.27,1.27,0,0,1-1.2.71l-.06-.16a.21.21,0,0,0-.28-.11.19.19,0,0,0-.12.17c-3.19-1.21-4.22-10.44-4.22-10.44l-.89.16a.67.67,0,0,1-.69-.3,7.64,7.64,0,0,0-6.67-3.88l-.12-.17a.22.22,0,0,0-.3,0,.22.22,0,0,0,0,.31c.05.07.1.15.16.22a2,2,0,0,1-.65,1.78,1.92,1.92,0,0,1-.56.22,12.45,12.45,0,0,1-4.13.12l-.21.52a.44.44,0,0,1-.43.27l-2.63-.18a3.88,3.88,0,0,0-.33-.23.22.22,0,0,0-.3.06A.24.24,0,0,0,146,32l.13.09-.11.84a.83.83,0,0,1-.78.72l-6.43.28a3.3,3.3,0,0,0-.32-.18.22.22,0,0,0-.29.1.22.22,0,0,0,.1.29c.09,0,.15.09.23.13.3,2.24-4.83,2.64-4.83,2.64a2.73,2.73,0,0,1-2.06,2,21.52,21.52,0,0,1-5,.15c-.29-.05-.45-.06-.46,0a0,0,0,0,0,0,0h-.06a31.66,31.66,0,0,1,3.27,4.39,2.75,2.75,0,0,1-.24,2.83s-.06.05-.07.09a.26.26,0,0,0,0,.15.26.26,0,0,0,.14.11l.11,0c.62,1,2.29,4,.88,5l-.24,0a.22.22,0,0,0-.25.18.22.22,0,0,0,0,.14.21.21,0,0,0,.16.11h0l2.83,3.84-.32.07a19.93,19.93,0,0,0-10.22,6.57v0l-.15.2a20,20,0,0,0-30.36.6v0c-.28.33-.54.68-.8,1-.11.16-.22.31-.32.47-.24.34-.46.69-.67,1l-.26.41c-.24.43-.46.87-.67,1.32-.08.16-.15.32-.23.49-.2.47-.4,1-.57,1.43,0,.14-.09.28-.13.41-.15.44-.27.88-.39,1.32l-.09.37c-.13.53-.22,1.06-.3,1.6,0,.15,0,.29-.06.43-.07.56-.13,1.12-.15,1.68v.22c0,.53,0,1.07,0,1.61,0,.11,0,.22,0,.34,0,.57.1,1.15.19,1.73l.06.36c.11.6.23,1.2.39,1.8.11.41.25.79.38,1.18A20,20,0,0,0,60,85.24v0c-.28.34-.55.69-.81,1l-.32.46c-.24.35-.46.69-.67,1-.09.14-.17.28-.25.42-.25.43-.47.87-.68,1.31-.08.17-.15.33-.22.5-.21.47-.41.94-.58,1.43,0,.14-.09.27-.13.41-.14.43-.27.87-.38,1.32,0,.12-.07.24-.1.37-.12.53-.22,1.06-.3,1.6l-.06.43c-.07.55-.13,1.11-.15,1.68v.22c0,.13,0,.27,0,.4A19.89,19.89,0,0,0,38.08,105v0c-.28.34-.54.68-.8,1l-.32.46c-.24.35-.46.69-.67,1.05L36,108c-.24.43-.46.87-.67,1.31-.08.16-.15.33-.23.49-.2.47-.4.95-.57,1.44-.05.13-.09.27-.13.41q-.21.65-.39,1.32l-.09.37c-.13.52-.22,1.06-.3,1.6l-.06.43c-.07.55-.13,1.11-.15,1.67v.23c0,.53,0,1.06,0,1.6,0,.11,0,.23,0,.34,0,.58.1,1.15.19,1.73,0,.12,0,.24.07.36.1.61.22,1.21.38,1.81.08.28.18.54.27.81a19.65,19.65,0,0,0-5.81.68,20,20,0,0,0-10.22,6.56v0c-.28.34-.54.69-.8,1-.11.15-.22.31-.32.47-.24.34-.46.69-.67,1-.09.14-.18.28-.26.42-.24.43-.46.87-.67,1.31l-.23.5c-.2.47-.4.94-.57,1.43-.05.14-.09.27-.13.41q-.21.66-.39,1.32l-.09.37c-.13.53-.22,1.06-.3,1.6,0,.14,0,.29-.06.43-.07.56-.13,1.11-.15,1.68v.22c0,.53,0,1.07,0,1.6,0,.12,0,.23,0,.34,0,.58.1,1.16.19,1.73l.06.37c.11.6.23,1.2.39,1.8s.4,1.32.64,2a20.11,20.11,0,0,0,24,12.23c.59-.16,1.17-.36,1.74-.57l.42-.16c.56-.22,1.1-.45,1.63-.72l.05,0c.51-.26,1-.55,1.49-.84l.39-.25.11-.07a20.09,20.09,0,0,0,22.84,9.78c.6-.16,1.17-.36,1.74-.57l.42-.16c.56-.22,1.11-.45,1.64-.71l0,0c.52-.26,1-.54,1.49-.84l.39-.25c.48-.31.95-.63,1.4-1l.11-.1c.42-.32.81-.67,1.19-1l.37-.35c.39-.38.77-.77,1.13-1.18l.17-.21c.31-.36.6-.74.88-1.13.11-.14.22-.29.32-.44.3-.43.58-.86.84-1.3l.2-.36c.21-.39.41-.78.6-1.18l.25-.54c.2-.46.39-.92.55-1.39.06-.16.1-.31.15-.46s.19-.56.27-.84l0,0a20.64,20.64,0,0,0,.46-2.07,20.11,20.11,0,0,0,5.9,0,1.34,1.34,0,0,0,0,.2c0,.11,0,.23,0,.34,0,.57.11,1.15.2,1.73l.06.36c.1.6.23,1.21.39,1.81a20.08,20.08,0,0,0,24.62,14.18c.6-.16,1.17-.35,1.74-.56l.42-.16c.56-.22,1.11-.46,1.64-.72l0,0a15.44,15.44,0,0,0,1.49-.84l.39-.24c.48-.31,1-.64,1.4-1l.11-.09c.42-.33.81-.67,1.19-1l.37-.34c.39-.38.77-.77,1.12-1.18l.18-.22c.31-.36.6-.74.88-1.12l.32-.45c.29-.42.57-.85.83-1.29l.2-.37c.22-.38.42-.78.61-1.17l.25-.54c.2-.46.39-.93.55-1.4.06-.15.1-.3.15-.46s.19-.56.26-.84l0,0a19.75,19.75,0,0,0,.67-3.76,20.09,20.09,0,0,0,23.63,11.41c.59-.16,1.17-.36,1.74-.57L154,166c.56-.22,1.1-.45,1.63-.72l.05,0c.51-.26,1-.55,1.49-.84l.39-.25c.48-.31.95-.64,1.4-1l.11-.09c.41-.33.81-.67,1.19-1l.36-.34c.39-.38.77-.77,1.13-1.18l.17-.21c.31-.37.61-.74.89-1.13l.32-.45c.29-.42.57-.85.83-1.29l.2-.37c.21-.38.42-.77.6-1.17.09-.18.17-.36.25-.54.19-.43.36-.86.52-1.29a20,20,0,0,0,18.18,4.06c.6-.16,1.18-.35,1.74-.56l.43-.16c.55-.22,1.1-.45,1.63-.72l.05,0c.51-.26,1-.55,1.49-.85l.38-.24a15.94,15.94,0,0,0,1.4-1l.12-.09c.41-.33.8-.67,1.19-1l.36-.34c.39-.38.77-.77,1.13-1.18l.17-.21c.31-.37.6-.74.89-1.13l.32-.45c.29-.42.57-.85.83-1.29l.2-.37q.31-.57.6-1.17c.09-.18.17-.36.25-.54.2-.46.39-.92.56-1.4l.15-.46c.09-.28.18-.55.26-.84l0,0a20,20,0,0,0-2.24-16c.4-.21.8-.44,1.19-.68l.39-.25c.48-.31,1-.63,1.4-1l.12-.1c.41-.32.8-.67,1.19-1l.36-.35c.39-.38.77-.77,1.13-1.18l.17-.21c.31-.36.6-.74.88-1.13q.17-.21.33-.45c.29-.42.57-.85.83-1.29l.2-.36c.21-.39.41-.78.6-1.18.09-.18.17-.36.25-.54.2-.46.39-.92.55-1.39.06-.16.1-.31.15-.47s.19-.55.27-.83l0,0a19.95,19.95,0,0,0-4.32-18.73,157.64,157.64,0,0,1,38.38-1.86,3.44,3.44,0,0,0,3.76-3A3.4,3.4,0,0,0,240.27,88.53Zm-24.06-1.24c.4.37.8.75,1.18,1.14l1.45-.08a163.09,163.09,0,0,0-17.1,1.86,16.25,16.25,0,0,0-6-8.61s-3.12-2.44-2.81-4.76c.05-.37.18-.72.22-1.09a8.43,8.43,0,0,0-.24-2.87,10.77,10.77,0,0,0-.41-1.21s0,0,0,0l.8.48c4.69,2.86,9.42,5.64,14,8.62A63,63,0,0,1,216.21,87.29ZM73.6,118.24a1,1,0,0,1,0-.17l.21,0Z"/>
    <path class="cls-2" d="M236.27,84.53a172.13,172.13,0,0,0-19.77-.27c1.18-.05,2.36-.09,3.55-.12q-1.53-1.26-3.15-2.37c-3.29-2.28-6.87-4.19-10.3-6.24-5.43-3.26-11-6.28-16.44-9.5l.7-.34A7.93,7.93,0,0,0,193.07,64a5,5,0,0,0,.49-.62c1.61-1.71,5.47-.81,5.47-.81a15.75,15.75,0,0,0,11.24-1.19l-.33-1a.08.08,0,0,1,0-.11l3.67-1.92-.42-.55a.17.17,0,0,1,0-.23l2.86-2.31s-1.06-.88-1.2-.94,4.21-4.74,4.21-4.74l-1.25-.83a.63.63,0,0,1-.26-.43l.13-.09a.23.23,0,0,0,0-.31s0,0-.07,0l2.06-3.51-1.28-.07a.55.55,0,0,1-.51-.58l.36-5.22-1.48-.2a.49.49,0,0,1-.4-.32l-1.79-5c0-.11,0-.2,0-.3a.22.22,0,0,0-.18-.25.22.22,0,0,0-.25.19l0,.17-.75.27a.53.53,0,0,1-.62-.22l-2.63-4.18c0-.08,0-.16,0-.23a.22.22,0,0,0-.18-.25.24.24,0,0,0-.15,0l-.13-.2-1.06.46a.59.59,0,0,1-.72-.2l-3-4.34-.69.45a.49.49,0,0,1-.64-.09l-1.57-1.8a6.87,6.87,0,0,0-.54-1,.21.21,0,0,0-.3-.07.21.21,0,0,0-.09.2l-.78.41a.31.31,0,0,1-.41-.11c-.69-1.16-4.36-3.24-5-3.59-.05,0-.08-.06-.1-.06s0,0,0,.08l.35,6.16-.74.32a.21.21,0,0,0-.29.28h0c.09.16.18.29.27.44a15.74,15.74,0,0,1-.68,5,.17.17,0,0,0-.14,0,.2.2,0,0,0-.09.29h0l.07.11a6.63,6.63,0,0,1-.86,1.51,1.75,1.75,0,0,1-1.11.77.23.23,0,0,0-.15-.09l-.07,0h0a.21.21,0,0,0-.26-.16.2.2,0,0,0-.12.1c-.75-.42-.73-1.73-.81-2.48a25.65,25.65,0,0,1-.05-3.28c-.3.17-.61.33-.91.51a.14.14,0,0,1-.2-.1,26.35,26.35,0,0,0-.6-2.91c-.48-1.82-1.11-3.59-1.66-5.39a6.31,6.31,0,0,1-.89.52h0a.22.22,0,0,0-.28-.13.21.21,0,0,0-.13.21.8.8,0,0,1-.21-.05c-.43-.18-.53-.65-.69-1-.56-1.29-1.16-2.49-1.82-3.73l-.81.6a.39.39,0,0,1-.52-.06l-3.49-4.16s-.44.28-.84.51l0,0a.21.21,0,0,0-.3,0,.2.2,0,0,0-.05.27l-.21.12c-2,.87-4.77-.95-5.92-1.81-.14-.19-.26-.38-.41-.57a.21.21,0,0,0-.31,0,.21.21,0,0,0,0,.3c.09.12.16.23.24.35a1.87,1.87,0,0,1-.23.86c-.06.13-10-1.14-10-1.14,2.64,2.73,2.68,6.58,2.17,9.54A.2.2,0,0,0,162,20a.22.22,0,0,0,0,.31l.1.09a20.13,20.13,0,0,1-1.19,3.93c6,9,5.43,12.94,4.72,14.37a1.27,1.27,0,0,1-1.2.71l-.06-.16a.21.21,0,0,0-.28-.11.19.19,0,0,0-.12.17c-3.19-1.21-4.22-10.44-4.22-10.44l-.89.16a.67.67,0,0,1-.69-.3,7.64,7.64,0,0,0-6.67-3.88l-.12-.17a.22.22,0,0,0-.3,0,.22.22,0,0,0,0,.31c.05.07.1.15.16.22a2,2,0,0,1-.65,1.78,1.92,1.92,0,0,1-.56.22,12.45,12.45,0,0,1-4.13.12l-.21.52a.44.44,0,0,1-.43.27l-2.63-.18a3.88,3.88,0,0,0-.33-.23.22.22,0,0,0-.3.06A.24.24,0,0,0,142,28l.13.09-.11.84a.83.83,0,0,1-.78.72l-6.43.28a3.3,3.3,0,0,0-.32-.18.22.22,0,0,0-.29.1.22.22,0,0,0,.1.29c.09,0,.15.09.23.13.3,2.24-4.83,2.64-4.83,2.64a2.73,2.73,0,0,1-2.06,2,21.52,21.52,0,0,1-5,.15c-.29-.05-.45-.06-.46,0a0,0,0,0,0,0,0h-.06a31.66,31.66,0,0,1,3.27,4.39,2.75,2.75,0,0,1-.24,2.83s-.06.05-.07.09a.26.26,0,0,0,0,.15.26.26,0,0,0,.14.11l.11,0c.62,1,2.29,4,.88,5l-.24,0a.22.22,0,0,0-.25.18.22.22,0,0,0,0,.14.21.21,0,0,0,.16.11h0l2.83,3.84-.32.07a19.93,19.93,0,0,0-10.22,6.57v0l-.15.2a20,20,0,0,0-30.36.6v0c-.28.33-.54.68-.8,1-.11.16-.22.31-.32.47-.24.34-.46.69-.67,1l-.26.41c-.24.43-.46.87-.67,1.32-.08.16-.15.32-.23.49-.2.47-.4,1-.57,1.43,0,.14-.09.28-.13.41-.15.44-.27.88-.39,1.32l-.09.37c-.13.53-.22,1.06-.3,1.6,0,.15,0,.29-.06.43-.07.56-.13,1.12-.15,1.68v.22c0,.53,0,1.07,0,1.61,0,.11,0,.22,0,.34,0,.57.1,1.15.19,1.73l.06.36c.11.6.23,1.2.39,1.8.11.41.25.79.38,1.18A20,20,0,0,0,56,81.24v0c-.28.34-.55.69-.81,1l-.32.46c-.24.35-.46.69-.67,1-.09.14-.17.28-.25.42-.25.43-.47.87-.68,1.31-.08.17-.15.33-.22.5-.21.47-.41.94-.58,1.43,0,.14-.09.27-.13.41-.14.43-.27.87-.38,1.32,0,.12-.07.24-.1.37-.12.53-.22,1.06-.3,1.6l-.06.43c-.07.55-.13,1.11-.15,1.68v.22c0,.13,0,.27,0,.4A19.89,19.89,0,0,0,34.08,101v0c-.28.34-.54.68-.8,1l-.32.46c-.24.35-.46.69-.67,1.05L32,104c-.24.43-.46.87-.67,1.31-.08.16-.15.33-.23.49-.2.47-.4.95-.57,1.44,0,.13-.09.27-.13.41q-.21.65-.39,1.32l-.09.37c-.13.52-.22,1.06-.3,1.6l-.06.43c-.07.55-.13,1.11-.15,1.67v.23c0,.53,0,1.06,0,1.6,0,.11,0,.23,0,.34,0,.58.1,1.15.19,1.73,0,.12,0,.24.07.36.1.61.22,1.21.38,1.81.08.28.18.54.27.81a19.65,19.65,0,0,0-5.81.68,20,20,0,0,0-10.22,6.56v0c-.28.34-.54.69-.8,1-.11.15-.22.31-.32.47-.24.34-.46.69-.67,1-.09.14-.18.28-.26.42-.24.43-.46.87-.67,1.31l-.23.5c-.2.47-.4.94-.57,1.43-.05.14-.09.27-.13.41q-.21.66-.39,1.32l-.09.37c-.13.53-.22,1.06-.3,1.6,0,.14,0,.29-.06.43-.07.56-.13,1.11-.15,1.68v.22c0,.53,0,1.07,0,1.6,0,.12,0,.23,0,.34,0,.58.1,1.16.19,1.73l.06.37c.11.6.23,1.2.39,1.8s.4,1.32.64,2a20.11,20.11,0,0,0,24,12.23c.59-.16,1.17-.36,1.74-.57l.42-.16c.56-.22,1.1-.45,1.63-.72l.05,0c.51-.26,1-.55,1.49-.84l.39-.25.11-.07a20.09,20.09,0,0,0,22.84,9.78c.6-.16,1.17-.36,1.74-.57l.42-.16c.56-.22,1.11-.45,1.64-.71l0,0c.52-.26,1-.54,1.49-.84l.39-.25c.48-.31.95-.63,1.4-1l.11-.1c.42-.32.81-.67,1.19-1l.37-.35c.39-.38.77-.77,1.13-1.18l.17-.21c.31-.36.6-.74.88-1.13.11-.14.22-.29.32-.44.3-.43.58-.86.84-1.3l.2-.36c.21-.39.41-.78.6-1.18l.25-.54c.2-.46.39-.92.55-1.39.06-.16.1-.31.15-.46s.19-.56.27-.84l0,0a20.64,20.64,0,0,0,.46-2.07,20.11,20.11,0,0,0,5.9,0,1.34,1.34,0,0,0,0,.2c0,.11,0,.23,0,.34,0,.57.11,1.15.2,1.73l.06.36c.1.6.23,1.21.39,1.81a20.08,20.08,0,0,0,24.62,14.18c.6-.16,1.17-.35,1.74-.56l.42-.16c.56-.22,1.11-.46,1.64-.72l0,0a15.44,15.44,0,0,0,1.49-.84l.39-.24c.48-.31,1-.64,1.4-1l.11-.09c.42-.33.81-.67,1.19-1l.37-.34c.39-.38.77-.77,1.12-1.18l.18-.22c.31-.36.6-.74.88-1.12l.32-.45c.29-.42.57-.85.83-1.29l.2-.37c.22-.38.42-.78.61-1.17l.25-.54c.2-.46.39-.93.55-1.4.06-.15.1-.3.15-.46s.19-.56.26-.84l0,0a19.75,19.75,0,0,0,.67-3.76,20.09,20.09,0,0,0,23.63,11.41c.59-.16,1.17-.36,1.74-.57L150,162c.56-.22,1.1-.45,1.63-.72l.05,0c.51-.26,1-.55,1.49-.84l.39-.25c.48-.31.95-.64,1.4-1l.11-.09c.41-.33.81-.67,1.19-1l.36-.34c.39-.38.77-.77,1.13-1.18l.17-.21c.31-.37.61-.74.89-1.13l.32-.45c.29-.42.57-.85.83-1.29l.2-.37c.21-.38.42-.77.6-1.17.09-.18.17-.36.25-.54.19-.43.36-.86.52-1.29a20,20,0,0,0,18.18,4.06c.6-.16,1.18-.35,1.74-.56l.43-.16c.55-.22,1.1-.45,1.63-.72l.05,0c.51-.26,1-.55,1.49-.85l.38-.24a15.94,15.94,0,0,0,1.4-1l.12-.09c.41-.33.8-.67,1.19-1l.36-.34c.39-.38.77-.77,1.13-1.18l.17-.21c.31-.37.6-.74.89-1.13l.32-.45c.29-.42.57-.85.83-1.29l.2-.37q.31-.57.6-1.17c.09-.18.17-.36.25-.54.2-.46.39-.92.56-1.4l.15-.46c.09-.28.18-.55.26-.84l0,0a20,20,0,0,0-2.24-16c.4-.21.8-.44,1.19-.68l.39-.25c.48-.31,1-.63,1.4-1l.12-.1c.41-.32.8-.67,1.19-1l.36-.35c.39-.38.77-.77,1.13-1.18l.17-.21c.31-.36.6-.74.88-1.13q.17-.21.33-.45c.29-.42.57-.85.83-1.29l.2-.36c.21-.39.41-.78.6-1.18.09-.18.17-.36.25-.54.2-.46.39-.92.55-1.39.06-.16.1-.31.15-.47s.19-.55.27-.83l0,0a19.95,19.95,0,0,0-4.32-18.73,157.64,157.64,0,0,1,38.38-1.86,3.44,3.44,0,0,0,3.76-3A3.4,3.4,0,0,0,236.27,84.53Zm-24.06-1.24c.4.37.8.75,1.18,1.14l1.45-.08a163.09,163.09,0,0,0-17.1,1.86,16.25,16.25,0,0,0-6-8.61s-3.12-2.44-2.81-4.76c.05-.37.18-.72.22-1.09a8.43,8.43,0,0,0-.24-2.87,10.77,10.77,0,0,0-.41-1.21s0,0,0,0l.8.48c4.69,2.86,9.42,5.64,14,8.62A63,63,0,0,1,212.21,83.29ZM69.6,114.24a1,1,0,0,1,0-.17l.21,0Z"/>
    <g id="Grapes">
      <g>
        <g>
          <circle class="cls-3" cx="182.26" cy="106.39" r="20.09"/>
          <ellipse class="cls-4" cx="186.55" cy="99.3" rx="10.05" ry="12.2" transform="translate(18.5 227.44) rotate(-65.35)"/>
          <path class="cls-5" d="M193.8,94.85c.4-.53-.13-1.6-1.18-2.4s-2.23-1-2.63-.5.13,1.6,1.18,2.4S193.4,95.37,193.8,94.85Z"/>
          <path class="cls-5" d="M189.08,91.18c.07-.23-.24-.53-.69-.68s-.88-.09-.95.14.23.53.68.68S189,91.4,189.08,91.18Z"/>
          <path class="cls-6" d="M201.63,111.76a20.09,20.09,0,0,1-34.8-18.23,20.09,20.09,0,1,0,34.8,18.23Z"/>
        </g>
        <g>
          <circle class="cls-7" cx="166.19" cy="70.59" r="20.09"/>
          <ellipse class="cls-4" cx="170.48" cy="63.49" rx="10.05" ry="12.2" transform="translate(41.68 191.96) rotate(-65.35)"/>
          <path class="cls-5" d="M177.73,59c.4-.53-.13-1.6-1.18-2.4s-2.22-1-2.62-.5.12,1.6,1.17,2.4S177.33,59.57,177.73,59Z"/>
          <path class="cls-5" d="M173,55.37c.07-.22-.24-.53-.69-.68s-.88-.08-.95.14.23.53.68.68S172.93,55.6,173,55.37Z"/>
          <path class="cls-6" d="M185.56,76a20.09,20.09,0,0,1-34.8-18.22A20.09,20.09,0,1,0,185.56,76Z"/>
        </g>
        <g>
          <circle class="cls-3" cx="160.34" cy="87.52" r="20.09"/>
          <ellipse class="cls-4" cx="164.63" cy="80.42" rx="10.05" ry="12.2" transform="translate(22.88 196.51) rotate(-65.35)"/>
          <path class="cls-5" d="M171.88,76c.4-.52-.13-1.6-1.18-2.4s-2.23-1-2.63-.5.13,1.6,1.18,2.4S171.48,76.5,171.88,76Z"/>
          <path class="cls-5" d="M167.16,72.3c.07-.22-.24-.53-.69-.68s-.88-.08-.95.14.23.53.68.68S167.08,72.53,167.16,72.3Z"/>
          <path class="cls-6" d="M179.71,92.88a20.09,20.09,0,0,1-34.8-18.22,20.09,20.09,0,1,0,34.8,18.22Z"/>
        </g>
        <g>
          <circle class="cls-3" cx="133.71" cy="71.39" r="20.09" transform="translate(-16.19 93.84) rotate(-36.62)"/>
          <ellipse class="cls-4" cx="138" cy="64.3" rx="10.05" ry="12.2" transform="translate(22.01 162.91) rotate(-65.35)"/>
          <path class="cls-5" d="M145.25,59.85c.4-.53-.13-1.6-1.18-2.4s-2.22-1-2.62-.5.12,1.6,1.17,2.4S144.85,60.37,145.25,59.85Z"/>
          <path class="cls-5" d="M140.53,56.18c.07-.23-.24-.53-.69-.68s-.88-.09-1,.14.23.53.68.68S140.45,56.4,140.53,56.18Z"/>
          <path class="cls-6" d="M153.08,76.76a20.09,20.09,0,0,1-34.8-18.23,20.09,20.09,0,1,0,34.8,18.23Z"/>
        </g>
        <g>
          <circle class="cls-3" cx="142.65" cy="143.3" r="20.09" transform="translate(-32.32 41.96) rotate(-15.05)"/>
          <ellipse class="cls-4" cx="146.93" cy="136.2" rx="10.05" ry="12.2" transform="translate(-38.14 212.95) rotate(-65.35)"/>
          <path class="cls-5" d="M154.19,131.76c.4-.53-.13-1.6-1.18-2.4s-2.23-1-2.63-.5.13,1.6,1.18,2.4S153.79,132.28,154.19,131.76Z"/>
          <path class="cls-5" d="M149.46,128.09c.07-.23-.23-.53-.69-.68s-.88-.09-1,.14.23.53.69.68S149.39,128.31,149.46,128.09Z"/>
          <path class="cls-6" d="M162,148.66a20.09,20.09,0,0,1-34.8-18.22A20.09,20.09,0,1,0,162,148.66Z"/>
        </g>
        <g>
          <circle class="cls-3" cx="147.79" cy="112.69" r="20.09"/>
          <ellipse class="cls-4" cx="152.08" cy="105.59" rx="10.05" ry="12.2" transform="translate(-7.32 199.78) rotate(-65.35)"/>
          <path class="cls-6" d="M167.16,118.05a20.09,20.09,0,0,1-34.8-18.22,20.09,20.09,0,1,0,34.8,18.22Z"/>
        </g>
        <g>
          <circle class="cls-3" cx="174.53" cy="134.73" r="20.09" transform="translate(-42.56 96.19) rotate(-27.6)"/>
          <ellipse class="cls-4" cx="178.81" cy="127.63" rx="10.05" ry="12.2" transform="translate(-11.76 236.93) rotate(-65.35)"/>
          <path class="cls-6" d="M193.89,140.09a20.09,20.09,0,0,1-34.8-18.22,20.09,20.09,0,1,0,34.8,18.22Z"/>
        </g>
        <g>
          <circle class="cls-3" cx="103.21" cy="72.16" r="20.09" transform="translate(-22.15 60.09) rotate(-29.46)"/>
          <ellipse class="cls-4" cx="107.49" cy="65.07" rx="10.05" ry="12.2" transform="translate(3.52 135.63) rotate(-65.35)"/>
          <path class="cls-6" d="M122.57,77.53a20.09,20.09,0,0,1-34.8-18.22,20.09,20.09,0,1,0,34.8,18.22Z"/>
        </g>
        <g>
          <circle class="cls-3" cx="71.45" cy="94.08" r="20.09"/>
          <ellipse class="cls-4" cx="75.73" cy="86.98" rx="10.05" ry="12.2" transform="translate(-34.91 119.54) rotate(-65.35)"/>
          <path class="cls-6" d="M90.81,99.44A20.08,20.08,0,0,1,56,81.22,20.09,20.09,0,1,0,90.81,99.44Z"/>
        </g>
        <g>
          <circle class="cls-3" cx="104.23" cy="149.67" r="20.09" transform="translate(-15.57 12.14) rotate(-6.2)"/>
          <ellipse class="cls-4" cx="108.52" cy="142.57" rx="10.05" ry="12.2" transform="translate(-66.32 181.74) rotate(-65.35)"/>
          <path class="cls-5" d="M115.77,138.12c.4-.52-.13-1.6-1.18-2.4s-2.23-1-2.63-.49.13,1.6,1.18,2.4S115.37,138.65,115.77,138.12Z"/>
          <path class="cls-5" d="M111,134.45c.08-.22-.23-.53-.68-.67s-.88-.09-1,.14.24.53.69.68S111,134.68,111,134.45Z"/>
          <path class="cls-6" d="M123.59,155A20.09,20.09,0,0,1,88.8,136.81,20.09,20.09,0,1,0,123.59,155Z"/>
        </g>
        <g>
          <circle class="cls-3" cx="29.79" cy="139.96" r="20.09"/>
          <ellipse class="cls-4" cx="34.07" cy="132.86" rx="10.05" ry="12.2" transform="translate(-100.9 108.42) rotate(-65.35)"/>
          <path class="cls-5" d="M41.33,128.42c.4-.53-.13-1.6-1.18-2.4s-2.23-1-2.63-.5.13,1.6,1.18,2.4S40.93,128.94,41.33,128.42Z"/>
          <path class="cls-5" d="M36.6,124.75c.07-.23-.23-.53-.69-.68s-.88-.09-.95.14.23.53.69.68S36.53,125,36.6,124.75Z"/>
          <path class="cls-6" d="M49.15,145.32a20.09,20.09,0,0,1-34.8-18.22,20.09,20.09,0,1,0,34.8,18.22Z"/>
        </g>
        <g>
          <circle class="cls-3" cx="58.46" cy="147.11" r="20.09"/>
          <ellipse class="cls-4" cx="62.75" cy="140.02" rx="10.05" ry="12.2" transform="translate(-90.68 138.66) rotate(-65.35)"/>
          <ellipse class="cls-5" cx="68.1" cy="134.12" rx="1.2" ry="2.39" transform="translate(-79.87 107.08) rotate(-52.73)"/>
          <path class="cls-5" d="M65.27,131.9c.08-.23-.23-.53-.68-.68s-.88-.08-1,.14.23.53.68.68S65.2,132.13,65.27,131.9Z"/>
          <path class="cls-6" d="M77.83,152.48A20.09,20.09,0,0,1,43,134.25a20.09,20.09,0,1,0,34.8,18.23Z"/>
        </g>
        <g>
          <circle class="cls-3" cx="49.52" cy="113.85" r="20.09"/>
          <ellipse class="cls-4" cx="53.8" cy="106.75" rx="10.05" ry="12.2" transform="translate(-65.66 111.13) rotate(-65.35)"/>
          <path class="cls-6" d="M68.88,119.21A20.09,20.09,0,0,1,34.08,101a20.09,20.09,0,1,0,34.8,18.22Z"/>
        </g>
        <g>
          <circle class="cls-7" cx="81.26" cy="130.58" r="20.09"/>
          <ellipse class="cls-4" cx="85.55" cy="123.48" rx="10.05" ry="12.2" transform="translate(-62.36 149.74) rotate(-65.35)"/>
          <path class="cls-5" d="M92.8,119c.4-.52-.13-1.6-1.18-2.4s-2.23-1-2.63-.49.13,1.6,1.18,2.4S92.4,119.56,92.8,119Z"/>
          <path class="cls-5" d="M88.08,115.36c.07-.22-.24-.53-.69-.67s-.88-.09-1,.14.23.53.68.68S88,115.59,88.08,115.36Z"/>
          <path class="cls-6" d="M100.63,135.94a20.09,20.09,0,0,1-34.8-18.22,20.09,20.09,0,1,0,34.8,18.22Z"/>
        </g>
        <g>
          <circle class="cls-3" cx="100.99" cy="104.47" r="20.09"/>
          <ellipse class="cls-4" cx="105.28" cy="97.37" rx="10.05" ry="12.2" transform="translate(-27.12 152.45) rotate(-65.35)"/>
          <path class="cls-6" d="M120.36,109.83a20.09,20.09,0,0,1-34.8-18.22,20.09,20.09,0,1,0,34.8,18.22Z"/>
        </g>
        <g>
          <circle class="cls-3" cx="116.64" cy="129.49" r="20.09" transform="translate(-45.21 64.87) rotate(-26.22)"/>
          <ellipse class="cls-4" cx="120.92" cy="122.39" rx="10.05" ry="12.2" transform="translate(-40.74 181.26) rotate(-65.35)"/>
          <path class="cls-5" d="M123.45,114.27c.08-.22-.23-.53-.68-.67s-.88-.09-1,.14.24.53.69.67S123.38,114.5,123.45,114.27Z"/>
          <path class="cls-6" d="M136,134.85a20.08,20.08,0,0,1-34.79-18.22A20.09,20.09,0,1,0,136,134.85Z"/>
        </g>
        <g>
          <circle class="cls-3" cx="131.36" cy="95.8" r="20.09" transform="translate(-20.37 37.4) rotate(-15.05)"/>
          <ellipse class="cls-4" cx="135.65" cy="88.71" rx="10.05" ry="12.2" transform="translate(-1.55 175) rotate(-65.35)"/>
          <path class="cls-5" d="M142.9,84.26c.4-.53-.13-1.6-1.18-2.4s-2.23-1-2.63-.5.13,1.6,1.18,2.4S142.5,84.78,142.9,84.26Z"/>
          <path class="cls-5" d="M138.17,80.59c.08-.23-.23-.53-.68-.68s-.88-.08-1,.14.23.53.68.68S138.1,80.82,138.17,80.59Z"/>
          <path class="cls-6" d="M150.73,101.17A20.09,20.09,0,0,1,115.93,83a20.09,20.09,0,1,0,34.8,18.22Z"/>
        </g>
      </g>
      <g id="Leaf">
        <path class="cls-8" d="M170.9,96.54h0a3.4,3.4,0,0,1,2.17-4.34,164.13,164.13,0,0,1,63.2-7.67,3.4,3.4,0,0,1,3.15,3.7h0a3.44,3.44,0,0,1-3.76,3,156.76,156.76,0,0,0-60.4,7.33A3.44,3.44,0,0,1,170.9,96.54Z"/>
        <g id="Leaf-2" data-name="Leaf">
          <path class="cls-9" d="M188.46,67.34a1.59,1.59,0,0,0,.09.33,10.77,10.77,0,0,1,.41,1.21,8.43,8.43,0,0,1,.24,2.87c0,.37-.17.72-.22,1.09-.31,2.32,2.81,4.76,2.81,4.76a15.76,15.76,0,0,1,6.14,9.49l-1,.37a.1.1,0,0,0-.06.11l.81,4.06H197a.17.17,0,0,0-.15.17v3.67s-1.35-.26-1.48-.33-1,6.25-1,6.25l-1.43-.45a.6.6,0,0,0-.75.37l-1.46,3.85-.86-1a.54.54,0,0,0-.77,0l-3.84,3.57-1.08-1a.49.49,0,0,0-.5-.11l-5.35,1.88-.37-1.06a.51.51,0,0,0-.55-.34l-5.67.67-.31-1.12a.59.59,0,0,0-.61-.43l-5.26.38-.09-.81a.47.47,0,0,0-.47-.44l-3.66-.14-.19-1a.3.3,0,0,0-.34-.25c-1.46.21-6-1.65-6-1.65l5.07-3.64-.22-.79c1.92-1.55,4.3-3.6,4.87-6.13.14-.62.19-1.31-.44-1.69-.81-.48-1.9.45-2.57.89a25.12,25.12,0,0,0-2.58,2c-.06-.34-.13-.67-.18-1a.13.13,0,0,0-.2-.1c-.86.49-1.73,1-2.63,1.36-1.73.77-3.5,1.39-5.25,2.1-.07-.49,0-1.25-.53-1.52s-.84,0-1.24.12c-1.35.37-2.67.67-4,.93l-.05-1a.37.37,0,0,0-.37-.36l-5.42-.1s-.19-1.44-.24-1.64c-.75-2.72-5.8-3.62-5.8-3.62a1.81,1.81,0,0,0,.9-1c.07-.13-7.17-7.07-7.17-7.07,7,.62,11.41-8.06,11.41-8.06,10.78-1,13.47-3.9,14.14-5.35a1.29,1.29,0,0,0-.42-1.6c-2.82-2-10.93,3.2-10.93,3.2l-.43-.8a.66.66,0,0,0-.67-.34,7.54,7.54,0,0,1-7.39-3c.54-.37,1.31-1.06,1.23-1.8a2.08,2.08,0,0,0-.19-.58,12.9,12.9,0,0,0-2.5-3.29l.27-.48a.42.42,0,0,0-.06-.5l-2.06-2.23.76-.8a.84.84,0,0,0,.07-1.06l-4-5.46c2.52-.91-.68-5.57-.68-5.57a2.74,2.74,0,0,0,.26-2.86,32.27,32.27,0,0,0-3.27-4.39,26,26,0,0,0,5.51-.14,2.73,2.73,0,0,0,2.06-2s5.64-.43,4.76-3l6.78-.3a.83.83,0,0,0,.78-.72l.14-1.1,3,.21a.44.44,0,0,0,.43-.27l.21-.52a12.45,12.45,0,0,0,4.13-.12,1.92,1.92,0,0,0,.56-.22c.63-.4.69-1.43.63-2.09a7.56,7.56,0,0,1,7,3.87.67.67,0,0,0,.69.3l.89-.16s1.06,9.56,4.38,10.51a1.28,1.28,0,0,0,1.5-.68c.71-1.43,1.27-5.34-4.72-14.37,0,0,4-8.89-.9-13.93,0,0,10,1.27,10,1.14a1.89,1.89,0,0,0,.21-1.33s3.86,3.36,6.45,2.24c.19-.09,1.42-.85,1.42-.85l3.49,4.16a.39.39,0,0,0,.52.06l.81-.6c.66,1.24,1.26,2.44,1.82,3.73.16.39.26.86.69,1s1.08-.29,1.51-.54c.55,1.8,1.18,3.58,1.66,5.39a26.35,26.35,0,0,1,.6,2.91.14.14,0,0,0,.2.1c.3-.18.61-.34.91-.51a25.65,25.65,0,0,0,.05,3.28c.08.79,0,2.22.93,2.55.69.25,1.2-.22,1.59-.71,1.62-2,1.71-5.18,1.71-7.65l.75-.32L195,18.25s4.31,2.37,5.06,3.64a.31.31,0,0,0,.41.11l.88-.46,2.4,2.76a.49.49,0,0,0,.64.09l.69-.45,3,4.34a.59.59,0,0,0,.72.2l1.06-.46,3,4.83a.53.53,0,0,0,.62.22l1.06-.38L216.47,38a.49.49,0,0,0,.4.32l1.48.2L218,43.77a.55.55,0,0,0,.51.58l1.28.07L217.7,48a.61.61,0,0,0,.18.82l1.25.83s-4.34,4.69-4.21,4.74,1.2.94,1.2.94l-2.86,2.31a.17.17,0,0,0,0,.23l.42.55L210,60.31a.08.08,0,0,0,0,.11l.33,1A15.75,15.75,0,0,1,199,62.61s-3.86-.9-5.47.81a5,5,0,0,1-.49.62,7.93,7.93,0,0,1-2.21,1.65,8.28,8.28,0,0,1-1.29.57c-.33.1-.87.16-1.06.49A.9.9,0,0,0,188.46,67.34Z"/>
          <path class="cls-10" d="M125.14,42.54a.26.26,0,0,1,0-.15.22.22,0,0,1,.27-.16,14.38,14.38,0,0,0,12.14-1.93.22.22,0,0,1,.24.36,14.77,14.77,0,0,1-12.49,2A.26.26,0,0,1,125.14,42.54Z"/>
          <path class="cls-10" d="M125.8,48a.22.22,0,0,1,0-.14.22.22,0,0,1,.25-.18,28.26,28.26,0,0,0,19.82-3.82.22.22,0,0,1,.23.37A28.71,28.71,0,0,1,126,48.07.21.21,0,0,1,125.8,48Z"/>
          <path class="cls-10" d="M128.85,55.31a.19.19,0,0,1,0-.1.22.22,0,0,1,.23-.21,40.34,40.34,0,0,0,25.12-7.26.22.22,0,0,1,.31,0,.22.22,0,0,1-.06.3A40.72,40.72,0,0,1,129,55.43.2.2,0,0,1,128.85,55.31Z"/>
          <path class="cls-10" d="M132.39,64.12a.25.25,0,0,1,0-.12.21.21,0,0,1,.23-.2,8.44,8.44,0,0,0,2.06-.17l.59-.09c.86-.13,1.74-.28,2.61-.46A48.18,48.18,0,0,0,143,61.74a49.47,49.47,0,0,0,9.68-4.27,48.91,48.91,0,0,0,8.54-6.25.22.22,0,1,1,.29.32,48.46,48.46,0,0,1-8.61,6.3,50,50,0,0,1-9.76,4.32A52.4,52.4,0,0,1,138,63.51c-.88.17-1.77.33-2.64.46l-.58.09a9.14,9.14,0,0,1-2.16.18A.26.26,0,0,1,132.39,64.12Z"/>
          <path class="cls-10" d="M152.22,65.76a.14.14,0,0,1,0-.06.22.22,0,0,1,.18-.25,34.25,34.25,0,0,0,18.51-9.2.22.22,0,0,1,.31,0,.23.23,0,0,1,0,.31,34.81,34.81,0,0,1-18.75,9.32A.21.21,0,0,1,152.22,65.76Z"/>
          <path class="cls-8" d="M126.9,80.2a3.86,3.86,0,0,0,1.16.5l.65.24c.24.08.52.13.81.21a18.65,18.65,0,0,0,2,.43l1.23.19c.43.07.89.08,1.37.13,1,.1,2,.1,3.11.12a56.09,56.09,0,0,0,7.56-.66A97.16,97.16,0,0,0,163.77,76a161,161,0,0,0,21.76-10.31l-.79-1.34C170,72.71,155.53,78.28,144.65,80.28a58.38,58.38,0,0,1-7.39.87c-1.09,0-2.11.07-3,0-.47,0-.92,0-1.35-.06L131.65,81c-.77,0-1.44-.21-2-.29-.29,0-.57-.08-.81-.14l-.67-.16A3.93,3.93,0,0,0,126.9,80.2Z"/>
          <path class="cls-8" d="M154.72,102.23s.37,0,1.07,0l1.3-.12c.52,0,1.1-.18,1.76-.29l1-.2c.37-.08.74-.2,1.13-.3l1.24-.34c.43-.12.85-.3,1.3-.46a28.67,28.67,0,0,0,5.84-2.86,29.93,29.93,0,0,0,6.07-5.07,36.91,36.91,0,0,0,5.22-7.41,46.25,46.25,0,0,0,3.73-9.28q.72-2.51,1.2-5.15a47,47,0,0,0,.67-5.44l-1.55,0a45.92,45.92,0,0,1-.64,5.22c-.31,1.71-.69,3.39-1.14,5a46.77,46.77,0,0,1-3.53,9,36.58,36.58,0,0,1-4.91,7.22,30,30,0,0,1-5.72,5,29.2,29.2,0,0,1-5.55,3c-.43.17-.84.37-1.25.51l-1.19.39c-.38.12-.74.26-1.09.36l-1,.26c-.64.16-1.2.34-1.7.43l-1.26.26C155.07,102.07,154.71,102.17,154.72,102.23Z"/>
          <path class="cls-10" d="M161.37,63.06a.22.22,0,0,1,0-.16.21.21,0,0,1,.27-.14,24,24,0,0,1,9.15,5.33A12.89,12.89,0,0,1,173,70.83a.22.22,0,0,1-.37.23,12.32,12.32,0,0,0-2.18-2.65,23.68,23.68,0,0,0-9-5.24A.24.24,0,0,1,161.37,63.06Z"/>
          <path class="cls-10" d="M151.35,67.72a.19.19,0,0,1,0-.13.23.23,0,0,1,.25-.19C162.75,69,165.9,73.88,166,74.08a.24.24,0,0,1-.07.3.21.21,0,0,1-.3-.07s-3.2-4.93-14.14-6.47A.24.24,0,0,1,151.35,67.72Z"/>
          <path class="cls-10" d="M143.45,71.29a.29.29,0,0,1,0-.09.21.21,0,0,1,.2-.23c6.06-.31,13.84,5.31,14.17,5.55a.22.22,0,1,1-.26.36c-.07-.06-8-5.78-13.89-5.48A.21.21,0,0,1,143.45,71.29Z"/>
          <path class="cls-10" d="M137.69,72.55a.27.27,0,0,1,0-.13.22.22,0,0,1,.25-.18,20,20,0,0,1,12.45,7.08.23.23,0,0,1,0,.31.22.22,0,0,1-.31,0,19.56,19.56,0,0,0-12.17-6.93A.24.24,0,0,1,137.69,72.55Z"/>
          <path class="cls-10" d="M134.29,76.86a.2.2,0,0,1,0-.13.23.23,0,0,1,.25-.19c5.31.84,6.72,4.39,6.78,4.54a.22.22,0,0,1-.13.28.23.23,0,0,1-.28-.12s-1.39-3.47-6.44-4.27A.21.21,0,0,1,134.29,76.86Z"/>
          <path class="cls-10" d="M133,88.28h0a.23.23,0,0,1,.12-.29c7.57-3.29,7.3-6.72,7.3-6.75a.22.22,0,1,1,.43,0c0,.15.35,3.76-7.56,7.2A.21.21,0,0,1,133,88.28Z"/>
          <path class="cls-10" d="M138.74,93.38a.22.22,0,0,1,.06-.28c9.93-7.44,10.74-13.49,10.75-13.55a.22.22,0,1,1,.43,0c0,.26-.81,6.29-10.92,13.86a.22.22,0,0,1-.3,0S138.74,93.39,138.74,93.38Z"/>
          <path class="cls-10" d="M144.7,94.92a.2.2,0,0,1,.05-.25c10.71-10.2,13-17.51,13-17.59a.22.22,0,0,1,.42.13c0,.07-2.36,7.49-13.15,17.77a.22.22,0,0,1-.31,0A.1.1,0,0,1,144.7,94.92Z"/>
          <path class="cls-10" d="M150.39,95.48a.23.23,0,0,1,.05-.26c7.41-7,14.74-20.42,14.81-20.56a.23.23,0,0,1,.3-.09.24.24,0,0,1,.09.3c-.08.13-7.44,13.64-14.9,20.67a.22.22,0,0,1-.31,0Z"/>
          <path class="cls-10" d="M159.29,84.55a.22.22,0,0,1,.06-.27c15.89-11.55,23.63-7.3,24-7.11a.22.22,0,0,1,.08.3.24.24,0,0,1-.3.08c-.08,0-7.84-4.28-23.47,7.08a.21.21,0,0,1-.3,0S159.29,84.56,159.29,84.55Z"/>
          <path class="cls-10" d="M163.74,90.19a.2.2,0,0,1,0-.26c10.65-8.8,16.54-6.22,16.79-6.1a.22.22,0,1,1-.19.39s-5.91-2.55-16.32,6a.21.21,0,0,1-.31,0A.05.05,0,0,1,163.74,90.19Z"/>
          <path class="cls-10" d="M159.37,97.9v0a.22.22,0,0,1,.12-.28c9.09-3.85,11.81-3.69,12.62-3.25a.67.67,0,0,1,.38.43.22.22,0,0,1-.18.25.21.21,0,0,1-.25-.17.54.54,0,0,0-.23-.16c-.66-.28-3.16-.52-12.17,3.3A.22.22,0,0,1,159.37,97.9Z"/>
          <path class="cls-10" d="M171.52,108a.24.24,0,0,1,0-.22c3.8-6.13.94-13.1.91-13.17a.2.2,0,0,1,.12-.28.21.21,0,0,1,.28.11c0,.07,3,7.25-.94,13.57a.2.2,0,0,1-.3.07A.3.3,0,0,1,171.52,108Z"/>
          <path class="cls-10" d="M185.12,107.82a.22.22,0,0,1,0-.16C188.21,97,180,85,179.93,84.92a.21.21,0,1,1,.35-.24c.09.12,8.4,12.24,5.24,23.1a.21.21,0,0,1-.27.15A.24.24,0,0,1,185.12,107.82Z"/>
          <path class="cls-10" d="M183.23,77.88a.23.23,0,0,1,0-.24.23.23,0,0,1,.31,0A61.77,61.77,0,0,1,197.06,95.2s.05.1.07.16a.21.21,0,0,1-.09.29.22.22,0,0,1-.29-.09h0l-.08-.16A60.88,60.88,0,0,0,183.29,78Z"/>
          <path class="cls-10" d="M137.5,40.06a.18.18,0,0,1,0-.16c0-.07,2-7.28-3.15-9.73a.22.22,0,0,1-.1-.29.22.22,0,0,1,.29-.1C140,32.39,137.92,40,137.9,40a.22.22,0,0,1-.27.15A.21.21,0,0,1,137.5,40.06Z"/>
          <path class="cls-10" d="M145.93,43.88a.22.22,0,0,1,0-.14c0-.11,2.15-11.81-3.88-15.71a.24.24,0,0,1-.07-.31.22.22,0,0,1,.3-.06c6.28,4.06,4.17,15.67,4.08,16.16a.22.22,0,0,1-.41.06Z"/>
          <path class="cls-10" d="M154.12,47.69a.22.22,0,0,1,0-.14c0-.15,2.65-15.13-3.06-22.61a.22.22,0,0,1,0-.31.22.22,0,0,1,.3,0c5.84,7.65,3.18,22.81,3.15,23a.22.22,0,0,1-.25.18A.25.25,0,0,1,154.12,47.69Z"/>
          <path class="cls-10" d="M161.21,51.38a.24.24,0,0,1,0-.23c.05-.06,4.77-7,2.75-11.74a.21.21,0,0,1,.12-.28.21.21,0,0,1,.28.11c2.11,4.91-2.59,11.87-2.79,12.16a.21.21,0,0,1-.3.06A.27.27,0,0,1,161.21,51.38Z"/>
          <path class="cls-8" d="M160.91,10.94c0,.05.29.34.93.86l1.18.95c.48.36,1,.84,1.58,1.33a54.87,54.87,0,0,1,17.35,27,65.81,65.81,0,0,1,2.19,11.24c.21,2,.34,4,.37,6a51.18,51.18,0,0,1-.26,6.19l1.54.21a49.88,49.88,0,0,0,.26-6.42c0-2.11-.18-4.17-.4-6.2a65.53,65.53,0,0,0-2.33-11.48A55.87,55.87,0,0,0,174.4,23,50.73,50.73,0,0,0,165,13.62c-.63-.47-1.17-.92-1.68-1.24L162,11.55A4.21,4.21,0,0,0,160.91,10.94Z"/>
          <path class="cls-8" d="M195,18.24s.13.38.5,1,1,1.48,1.57,2.69a33.39,33.39,0,0,1,3.85,10.64,26.75,26.75,0,0,1,.06,7.76l-.07.52-.11.52-.2,1.06c-.15.7-.38,1.4-.56,2.12a32.5,32.5,0,0,1-1.71,4.27,38.66,38.66,0,0,1-5.46,8.25,47.75,47.75,0,0,1-3.62,3.8,42.42,42.42,0,0,1-4.14,3.44l.88,1.28A42.49,42.49,0,0,0,190.28,62a47.52,47.52,0,0,0,3.73-4,39.57,39.57,0,0,0,5.59-8.61A32.55,32.55,0,0,0,201.32,45c.19-.76.41-1.5.55-2.24l.2-1.11.1-.55.06-.55a27.05,27.05,0,0,0-.25-8.11,31.21,31.21,0,0,0-4.41-10.77,23.67,23.67,0,0,0-1.84-2.56C195.28,18.49,195,18.21,195,18.24Z"/>
          <path class="cls-10" d="M170.15,56.11a.2.2,0,0,1,0-.2c.09-.19,9.67-19.48-8.15-35.61a.22.22,0,0,1,0-.31.21.21,0,0,1,.3,0c18.08,16.37,8.34,35.94,8.24,36.14a.2.2,0,0,1-.29.09A.2.2,0,0,1,170.15,56.11Z"/>
          <path class="cls-10" d="M172.72,46.46a.2.2,0,0,1,0-.25.22.22,0,0,1,.31,0c5.65,5.89,11.69,5.29,11.75,5.29a.21.21,0,0,1,.24.19.22.22,0,0,1-.19.24c-.07,0-6.31.63-12.12-5.41Z"/>
          <path class="cls-10" d="M172.56,39a.23.23,0,0,1,0-.26.22.22,0,0,1,.31,0c3.94,4.07,9.34,1.2,9.4,1.17a.21.21,0,0,1,.29.08.24.24,0,0,1-.08.3c-.06,0-5.75,3.06-9.92-1.25A.1.1,0,0,1,172.56,39Z"/>
          <path class="cls-10" d="M170.65,32.18a.2.2,0,0,1,0-.17.21.21,0,0,1,.27-.14c5,1.69,6.68-1.91,6.75-2.06a.22.22,0,0,1,.4.18s-1.94,4.11-7.29,2.29A.29.29,0,0,1,170.65,32.18Z"/>
          <path class="cls-10" d="M166.06,24.56a.17.17,0,0,1,0-.12.22.22,0,0,1,.23-.2c4,.37,5.13-3.82,5.14-3.86a.22.22,0,1,1,.42.1c0,.05-1.18,4.6-5.59,4.19A.21.21,0,0,1,166.06,24.56Z"/>
          <path class="cls-10" d="M171.73,20.46a.23.23,0,0,1,0-.26c.14-.13,3.34-3.29-1.76-9.88a.21.21,0,0,1,0-.3.21.21,0,0,1,.31,0c5.36,6.92,1.87,10.32,1.72,10.46a.23.23,0,0,1-.31,0Z"/>
          <path class="cls-10" d="M178,29.49a.21.21,0,0,1,0-.19c.05-.1,4.76-9.64-1-17a.22.22,0,0,1,.34-.27c6,7.53,1.15,17.31,1.1,17.41a.22.22,0,0,1-.29.1A.32.32,0,0,1,178,29.49Z"/>
          <path class="cls-10" d="M182.49,39.74a.23.23,0,0,1,0-.2c.06-.11,5.9-11.57,3.15-19.45a.21.21,0,0,1,.13-.27.22.22,0,0,1,.28.13c2.81,8.05-3.11,19.68-3.17,19.79a.22.22,0,0,1-.29.1A.19.19,0,0,1,182.49,39.74Z"/>
          <path class="cls-10" d="M184.94,51.31a.22.22,0,0,1,0-.21c.08-.12,7.67-12.45,6.18-17.84a.23.23,0,0,1,.16-.27.21.21,0,0,1,.26.16c1.54,5.56-5.91,17.67-6.23,18.18a.22.22,0,0,1-.3.07A.24.24,0,0,1,184.94,51.31Z"/>
          <path class="cls-10" d="M194.31,25.08a.22.22,0,0,1,.38-.21C198.22,31,200.84,30,200.86,30a.23.23,0,0,1,.29.12.21.21,0,0,1-.11.28c-.12,0-3,1.2-6.73-5.33Z"/>
          <path class="cls-10" d="M200.86,30.75a.22.22,0,0,1,0-.22c0-.05,3.08-4.58.38-8.84a.22.22,0,0,1,.07-.3.21.21,0,0,1,.3.07c2.86,4.49-.36,9.27-.39,9.31a.22.22,0,0,1-.31.06A.27.27,0,0,1,200.86,30.75Z"/>
          <path class="cls-10" d="M201.48,35.06a.22.22,0,0,1,0-.16.21.21,0,0,1,.27-.15,5.49,5.49,0,0,0,3.49-.12c2.69-1,4.28-3.87,4.66-6.26a.22.22,0,0,1,.43.07c-.4,2.51-2.08,5.53-4.93,6.6a6,6,0,0,1-3.78.13A.24.24,0,0,1,201.48,35.06Z"/>
          <path class="cls-10" d="M200.79,43.72a.17.17,0,0,1,0-.1.22.22,0,0,1,.23-.21c.12,0,11.79.18,13.31-10.78a.22.22,0,0,1,.25-.19.22.22,0,0,1,.18.25C213.16,44,201.1,43.84,201,43.84A.2.2,0,0,1,200.79,43.72Z"/>
          <path class="cls-10" d="M192.28,38.72a9.59,9.59,0,0,1-.9-5.39.22.22,0,1,1,.44,0,8.52,8.52,0,0,0,1.79,6.57c2.59,3,7,3.35,7.09,3.35a.23.23,0,0,1,.21.23.24.24,0,0,1-.24.21c-.19,0-4.68-.34-7.39-3.51A7.54,7.54,0,0,1,192.28,38.72Z"/>
          <path class="cls-10" d="M193.67,30.83a.2.2,0,0,1,.09-.29.21.21,0,0,1,.29.09c1.54,2.9,5,4.11,7.74,4.27a.22.22,0,0,1,0,.43c-2.85-.17-6.47-1.43-8.09-4.5Z"/>
          <path class="cls-10" d="M196.64,52.77a.21.21,0,0,1,0-.19.22.22,0,0,1,.29-.11c.09,0,9.3,4.09,20.56-4.55a.22.22,0,0,1,.27.35c-11.49,8.8-20.92,4.64-21,4.6A.19.19,0,0,1,196.64,52.77Z"/>
          <path class="cls-10" d="M190.22,47.77a11.57,11.57,0,0,1-1.21-4.4.21.21,0,0,1,.2-.23.22.22,0,0,1,.24.2c.65,7.63,7,8.89,7,8.9a.22.22,0,0,1,.18.25.23.23,0,0,1-.26.18A9.63,9.63,0,0,1,190.22,47.77Z"/>
          <path class="cls-8" d="M216.9,81.77c-3.29-2.28-6.87-4.19-10.3-6.24-6.25-3.75-12.69-7.17-18.9-11a310.81,310.81,0,0,0-32.86-17.48,251.21,251.21,0,0,0-23.65-9.48c-2.85-1-5.09-1.64-6.62-2.06a8.58,8.58,0,0,0-2.37-.49,10.67,10.67,0,0,0,2.23.94c1.48.56,3.66,1.37,6.45,2.46,5.58,2.18,13.61,5.48,23.26,10.12,2.84,1.6,5.91,2.89,8.81,4.38,4.82,2.49,9.57,5.14,14.26,7.88,2.65,1.54,5.28,3.12,7.9,4.71l4.23,2.57c4.69,2.86,9.42,5.64,14,8.62a63,63,0,0,1,8.84,6.55c.4.37.8.75,1.18,1.14q3.31-.21,6.66-.29Q218.52,82.88,216.9,81.77Z"/>
        </g>
      </g>
    </g>
  </g>
</svg>
