<svg xmlns="http://www.w3.org/2000/svg" xmlns:xlink="http://www.w3.org/1999/xlink" width="239.05" height="219.1" viewBox="0 0 239.05 219.1">
  <defs>
    <style>
      .cls-1 {
        mask: url(#mask);
        filter: url(#luminosity-noclip-6);
      }

      .cls-10, .cls-16, .cls-2, .cls-20, .cls-22, .cls-34, .cls-36, .cls-4, .cls-6, .cls-8 {
        mix-blend-mode: multiply;
      }

      .cls-2 {
        fill: url(#radial-gradient);
      }

      .cls-3 {
        mask: url(#mask-2);
        filter: url(#luminosity-noclip-7);
      }

      .cls-4 {
        fill: url(#radial-gradient-2);
      }

      .cls-5 {
        mask: url(#mask-3);
        filter: url(#luminosity-noclip-8);
      }

      .cls-6 {
        fill: url(#radial-gradient-3);
      }

      .cls-7 {
        mask: url(#mask-4);
        filter: url(#luminosity-noclip-10);
      }

      .cls-8 {
        fill: url(#radial-gradient-4);
      }

      .cls-9 {
        mask: url(#mask-5);
        filter: url(#luminosity-noclip-11);
      }

      .cls-10 {
        fill: url(#radial-gradient-5);
      }

      .cls-11 {
        isolation: isolate;
      }

      .cls-12 {
        fill: #050505;
        opacity: 0.5;
      }

      .cls-13 {
        fill: none;
        stroke: #fff;
        stroke-linecap: round;
        stroke-linejoin: round;
        stroke-width: 10px;
      }

      .cls-14 {
        fill: url(#linear-gradient);
      }

      .cls-15 {
        mask: url(#mask-6);
      }

      .cls-16, .cls-20, .cls-22, .cls-34, .cls-36 {
        opacity: 0.6;
      }

      .cls-16 {
        fill: url(#radial-gradient-6);
      }

      .cls-17, .cls-18 {
        stroke: #686b6b;
        stroke-miterlimit: 10;
      }

      .cls-17 {
        stroke-width: 2px;
        fill: url(#linear-gradient-2);
      }

      .cls-18, .cls-29 {
        fill: #f1f2f2;
      }

      .cls-19 {
        mask: url(#mask-7);
      }

      .cls-20 {
        fill: url(#radial-gradient-7);
      }

      .cls-21 {
        mask: url(#mask-8);
      }

      .cls-22 {
        fill: url(#radial-gradient-8);
      }

      .cls-23 {
        fill: url(#linear-gradient-3);
      }

      .cls-24, .cls-37 {
        fill: #4a4a4c;
      }

      .cls-25, .cls-26 {
        fill: #e6e7e8;
      }

      .cls-26 {
        font-size: 4.45px;
        font-family: PTSans-Regular, PT Sans;
      }

      .cls-27 {
        letter-spacing: -0.01em;
      }

      .cls-28 {
        letter-spacing: -0.08em;
      }

      .cls-30 {
        mask: url(#mask-9);
      }

      .cls-31 {
        fill: #414042;
        opacity: 0.22;
      }

      .cls-32 {
        fill: url(#linear-gradient-4);
      }

      .cls-33 {
        mask: url(#mask-10);
      }

      .cls-34 {
        fill: url(#radial-gradient-9);
      }

      .cls-35 {
        mask: url(#mask-11);
      }

      .cls-36 {
        fill: url(#radial-gradient-10);
      }

      .cls-37 {
        opacity: 0.34;
      }

      .cls-38, .cls-39 {
        opacity: 0.55;
      }

      .cls-40 {
        filter: url(#luminosity-noclip-9);
      }

      .cls-41 {
        filter: url(#luminosity-noclip-5);
      }

      .cls-42 {
        filter: url(#luminosity-noclip-4);
      }

      .cls-43 {
        filter: url(#luminosity-noclip-3);
      }

      .cls-44 {
        filter: url(#luminosity-noclip-2);
      }

      .cls-45 {
        filter: url(#luminosity-noclip);
      }
    </style>
    <filter id="luminosity-noclip" x="13.35" y="-11455" width="176.77" height="32766" filterUnits="userSpaceOnUse" color-interpolation-filters="sRGB">
      <feFlood flood-color="#fff" result="bg"/>
      <feBlend in="SourceGraphic" in2="bg"/>
    </filter>
    <mask id="mask" x="13.35" y="-11455" width="176.77" height="32766" maskUnits="userSpaceOnUse">
      <g class="cls-45"/>
    </mask>
    <radialGradient id="radial-gradient" cx="970.92" cy="-2506.99" r="30.92" gradientTransform="matrix(2.86, -0.4, 0.02, 0.15, -2621.26, 816.41)" gradientUnits="userSpaceOnUse">
      <stop offset="0" stop-color="#fff"/>
      <stop offset="0.11" stop-color="#e9e9e9"/>
      <stop offset="0.35" stop-color="#b2b2b2"/>
      <stop offset="0.69" stop-color="#595959"/>
      <stop offset="1"/>
    </radialGradient>
    <filter id="luminosity-noclip-2" x="55.11" y="-11455" width="11.06" height="32766" filterUnits="userSpaceOnUse" color-interpolation-filters="sRGB">
      <feFlood flood-color="#fff" result="bg"/>
      <feBlend in="SourceGraphic" in2="bg"/>
    </filter>
    <mask id="mask-2" x="55.11" y="-11455" width="11.06" height="32766" maskUnits="userSpaceOnUse">
      <g class="cls-44"/>
    </mask>
    <radialGradient id="radial-gradient-2" cx="-3572.48" cy="14957.21" r="30.92" gradientTransform="matrix(0.1, 0.71, -0.15, 0.02, 2636.47, 2329.56)" xlink:href="#radial-gradient"/>
    <filter id="luminosity-noclip-3" x="21.18" y="-11455" width="44.24" height="32766" filterUnits="userSpaceOnUse" color-interpolation-filters="sRGB">
      <feFlood flood-color="#fff" result="bg"/>
      <feBlend in="SourceGraphic" in2="bg"/>
    </filter>
    <mask id="mask-3" x="21.18" y="-11455" width="44.24" height="32766" maskUnits="userSpaceOnUse">
      <g class="cls-43"/>
    </mask>
    <radialGradient id="radial-gradient-3" cx="1563.94" cy="-2227.71" r="30.92" gradientTransform="matrix(0.71, -0.1, 0.02, 0.15, -1028.8, 594.32)" xlink:href="#radial-gradient"/>
    <filter id="luminosity-noclip-4" x="52.32" y="-11455" width="170.59" height="32766" filterUnits="userSpaceOnUse" color-interpolation-filters="sRGB">
      <feFlood flood-color="#fff" result="bg"/>
      <feBlend in="SourceGraphic" in2="bg"/>
    </filter>
    <mask id="mask-4" x="52.32" y="-11455" width="170.59" height="32766" maskUnits="userSpaceOnUse">
      <g class="cls-42"/>
    </mask>
    <radialGradient id="radial-gradient-4" cx="594.89" cy="-4023.32" r="30.12" gradientTransform="matrix(2.83, 0.56, -0.03, 0.15, -1662.98, 288.46)" xlink:href="#radial-gradient"/>
    <filter id="luminosity-noclip-5" x="194.2" y="-11455" width="27.4" height="32766" filterUnits="userSpaceOnUse" color-interpolation-filters="sRGB">
      <feFlood flood-color="#fff" result="bg"/>
      <feBlend in="SourceGraphic" in2="bg"/>
    </filter>
    <mask id="mask-5" x="194.2" y="-11455" width="27.4" height="32766" maskUnits="userSpaceOnUse">
      <g class="cls-41"/>
    </mask>
    <radialGradient id="radial-gradient-5" cx="2481.15" cy="15766.23" r="30.12" gradientTransform="matrix(0.43, -2.19, 0.15, 0.03, -3177.37, 5073.91)" xlink:href="#radial-gradient"/>
    <linearGradient id="linear-gradient" x1="435.68" y1="243.73" x2="617.2" y2="243.73" gradientTransform="matrix(0.99, -0.14, 0.14, 0.99, -443.83, -45.97)" gradientUnits="userSpaceOnUse">
      <stop offset="0" stop-color="#939598"/>
      <stop offset="1" stop-color="#a7a9ac"/>
    </linearGradient>
    <filter id="luminosity-noclip-6" x="13.35" y="44.21" width="176.77" height="26.31" filterUnits="userSpaceOnUse" color-interpolation-filters="sRGB">
      <feFlood flood-color="#fff" result="bg"/>
      <feBlend in="SourceGraphic" in2="bg"/>
    </filter>
    <mask id="mask-6" x="13.35" y="44.21" width="176.77" height="26.31" maskUnits="userSpaceOnUse">
      <g class="cls-1">
        <path class="cls-2" d="M190.12,45c-.35-2.54-40.21.93-89,7.74S13,67.16,13.36,69.69s40.21-.93,89-7.74S190.48,47.57,190.12,45Z"/>
      </g>
    </mask>
    <radialGradient id="radial-gradient-6" cx="970.92" cy="-2506.99" r="30.92" gradientTransform="matrix(2.86, -0.4, 0.02, 0.15, -2621.26, 816.41)" gradientUnits="userSpaceOnUse">
      <stop offset="0" stop-color="#666"/>
      <stop offset="0.19" stop-color="#7c7c7c"/>
      <stop offset="0.59" stop-color="#b3b3b3"/>
      <stop offset="1" stop-color="#f2f2f2"/>
    </radialGradient>
    <linearGradient id="linear-gradient-2" x1="488.13" y1="202.19" x2="436.61" y2="138.87" gradientTransform="translate(-414.92 -120.63)" gradientUnits="userSpaceOnUse">
      <stop offset="0" stop-color="#d1d3d4"/>
      <stop offset="0.59" stop-color="#f1f2f2"/>
    </linearGradient>
    <filter id="luminosity-noclip-7" x="55.11" y="62.73" width="11.06" height="44.24" filterUnits="userSpaceOnUse" color-interpolation-filters="sRGB">
      <feFlood flood-color="#fff" result="bg"/>
      <feBlend in="SourceGraphic" in2="bg"/>
    </filter>
    <mask id="mask-7" x="55.11" y="62.73" width="11.06" height="44.24" maskUnits="userSpaceOnUse">
      <g class="cls-3">
        <path class="cls-4" d="M63.73,107c2.53-.35,3.2-10.54,1.5-22.75s-5.14-21.83-7.67-21.48-3.21,10.54-1.51,22.76S61.19,107.31,63.73,107Z"/>
      </g>
    </mask>
    <radialGradient id="radial-gradient-7" cx="-3572.48" cy="14957.21" r="30.92" gradientTransform="matrix(0.1, 0.71, -0.15, 0.02, 2636.47, 2329.56)" xlink:href="#radial-gradient-6"/>
    <filter id="luminosity-noclip-8" x="21.18" y="102.28" width="44.24" height="11.06" filterUnits="userSpaceOnUse" color-interpolation-filters="sRGB">
      <feFlood flood-color="#fff" result="bg"/>
      <feBlend in="SourceGraphic" in2="bg"/>
    </filter>
    <mask id="mask-8" x="21.18" y="102.28" width="44.24" height="11.06" maskUnits="userSpaceOnUse">
      <g class="cls-5">
        <path class="cls-6" d="M65.41,104.72c-.35-2.53-10.54-3.2-22.75-1.5s-21.82,5.14-21.47,7.67,10.54,3.21,22.75,1.51S65.77,107.26,65.41,104.72Z"/>
      </g>
    </mask>
    <radialGradient id="radial-gradient-8" cx="1563.94" cy="-2227.71" r="30.92" gradientTransform="matrix(0.71, -0.1, 0.02, 0.15, -1028.8, 594.32)" xlink:href="#radial-gradient-6"/>
    <linearGradient id="linear-gradient-3" x1="476.56" y1="223.63" x2="456.74" y2="198.53" gradientTransform="matrix(0.99, -0.14, 0.14, 0.99, -443.83, -45.97)" gradientUnits="userSpaceOnUse">
      <stop offset="0" stop-color="#fff"/>
      <stop offset="0.77" stop-color="#f1f2f2"/>
      <stop offset="0.87" stop-color="#e6e7e8"/>
      <stop offset="1" stop-color="#d1d3d4"/>
    </linearGradient>
    <filter id="luminosity-noclip-9" x="23.17" y="-11455" width="26.06" height="32766" filterUnits="userSpaceOnUse" color-interpolation-filters="sRGB">
      <feFlood flood-color="#fff" result="bg"/>
      <feBlend in="SourceGraphic" in2="bg"/>
    </filter>
    <mask id="mask-9" x="23.17" y="-11455" width="26.06" height="32766" maskUnits="userSpaceOnUse">
      <g class="cls-40"/>
    </mask>
    <linearGradient id="linear-gradient-4" x1="-647.64" y1="14.92" x2="-470.84" y2="14.92" gradientTransform="translate(677.13 185.28) rotate(11.14)" xlink:href="#linear-gradient"/>
    <filter id="luminosity-noclip-10" x="52.32" y="11.31" width="170.59" height="34.74" filterUnits="userSpaceOnUse" color-interpolation-filters="sRGB">
      <feFlood flood-color="#fff" result="bg"/>
      <feBlend in="SourceGraphic" in2="bg"/>
    </filter>
    <mask id="mask-10" x="52.32" y="11.31" width="170.59" height="34.74" maskUnits="userSpaceOnUse">
      <g class="cls-7">
        <path class="cls-8" d="M222.91,45.48c.48-2.45-37.32-11.95-84.42-21.22S52.81,9.45,52.32,11.89s37.32,12,84.42,21.22S222.43,47.92,222.91,45.48Z"/>
      </g>
    </mask>
    <radialGradient id="radial-gradient-9" cx="594.89" cy="-4023.32" r="30.12" gradientTransform="matrix(2.83, 0.56, -0.03, 0.15, -1662.98, 288.46)" xlink:href="#radial-gradient-6"/>
    <filter id="luminosity-noclip-11" x="194.2" y="41.67" width="27.4" height="131.67" filterUnits="userSpaceOnUse" color-interpolation-filters="sRGB">
      <feFlood flood-color="#fff" result="bg"/>
      <feBlend in="SourceGraphic" in2="bg"/>
    </filter>
    <mask id="mask-11" x="194.2" y="41.67" width="27.4" height="131.67" maskUnits="userSpaceOnUse">
      <g class="cls-9">
        <path class="cls-10" d="M220.87,41.67c-2.45-.48-10.24,28.61-17.39,65s-11,66.22-8.54,66.7,10.23-28.6,17.39-65S223.31,42.15,220.87,41.67Z"/>
      </g>
    </mask>
    <radialGradient id="radial-gradient-10" cx="2481.15" cy="15766.23" r="30.12" gradientTransform="matrix(0.43, -2.19, 0.15, 0.03, -3177.37, 5073.91)" xlink:href="#radial-gradient-6"/>
  </defs>
  <g class="cls-11">
    <g id="Layer_1" data-name="Layer 1">
      <g>
        <path class="cls-12" d="M215.17,152.21c0-.17.06-.33.1-.5,7.58-38.53,19.79-100.88,19.79-100.88L61.65,16.69l-.75,3.78L58.6,20l.17-1.14L58.36,20l-.94-.18-1.23,6.28A386.73,386.73,0,0,0,43.82,71.54L21.09,74.7l.55,3.92-3.61.5,6.21,44.49h0L37,215.26l3.61-.5h0L218.15,190s2.86,4.07-2.71-35.85Z"/>
        <path class="cls-13" d="M205.63,142.67c0-.17.06-.33.1-.5,7.58-38.53,19.79-100.88,19.79-100.88L52.11,7.15l-.75,3.77-2.3-.45.17-1.14-.41,1.09-.94-.18-1.23,6.28A387,387,0,0,0,34.28,62L11.55,65.16l.55,3.92-3.61.5,6.21,44.48h0l12.78,91.66,3.61-.51h0l177.52-24.76s2.86,4.07-2.71-35.85Z"/>
        <g id="newspaper">
          <g>
            <g>
              <path class="cls-14" d="M208.61,180.46s2.86,4.07-2.71-35.85S191.25,40.1,191.25,40.1L11.55,65.16,31.09,205.22Z"/>
              <g class="cls-15">
                <path class="cls-16" d="M190.12,45c-.35-2.54-40.21.93-89,7.74S13,67.16,13.36,69.69s40.21-.93,89-7.74S190.48,47.57,190.12,45Z"/>
              </g>
              <g>
                <rect class="cls-17" x="17.11" y="56.29" width="182.88" height="137.46" transform="translate(-16.23 16.19) rotate(-7.94)"/>
                <polygon class="cls-18" points="208.61 180.46 27.48 205.72 14.7 114.06 43.38 92.61 58.73 62.57 189.62 44.31 208.61 180.46"/>
                <g>
                  <g class="cls-19">
                    <path class="cls-20" d="M63.73,107c2.53-.35,3.2-10.54,1.5-22.75s-5.14-21.83-7.67-21.48-3.21,10.54-1.51,22.76S61.19,107.31,63.73,107Z"/>
                  </g>
                  <g class="cls-21">
                    <path class="cls-22" d="M65.41,104.72c-.35-2.53-10.54-3.2-22.75-1.5s-21.82,5.14-21.47,7.67,10.54,3.21,22.75,1.51S65.77,107.26,65.41,104.72Z"/>
                  </g>
                  <polygon class="cls-23" points="58.73 62.57 64.94 107.06 14.7 114.06 58.73 62.57"/>
                </g>
                <g>
                  <rect class="cls-24" x="154.93" y="47.17" width="30.81" height="34.54" transform="translate(-7.27 24.15) rotate(-7.94)"/>
                  <g>
                    <path class="cls-25" d="M164.57,76.18l-.47.06c-.74.11-1.56.49-1.45,1.23l.06.47c.11.74,1,1.12,1.77,1l.46-.06a1.37,1.37,0,0,0,1.29-1.44l-.06-.47C166.06,76.24,165.31,76.08,164.57,76.18Z"/>
                    <path class="cls-25" d="M167.57,72.45l-.47.06c-.74.11-1.2.55-1.1,1.29l.5,3.61a1.2,1.2,0,0,0,1.43,1.06l.47-.06c.74-.11,1.46-.71,1.35-1.45l-.5-3.62C169.15,72.6,168.31,72.35,167.57,72.45Z"/>
                    <path class="cls-25" d="M171,69.21l-.35.05a1.53,1.53,0,0,0-1.21,1.66l.83,5.92a1.37,1.37,0,0,0,1.59,1.08l.35,0a1.2,1.2,0,0,0,1-1.45l-.83-5.91A1.36,1.36,0,0,0,171,69.21Z"/>
                    <path class="cls-25" d="M174.52,65.72h.29a1.35,1.35,0,0,1,1.35,1.35v9a1.36,1.36,0,0,1-1.36,1.36h-.3a1.35,1.35,0,0,1-1.35-1.35v-9A1.36,1.36,0,0,1,174.52,65.72Z" transform="translate(-8.2 24.76) rotate(-7.92)"/>
                    <path class="cls-25" d="M177.28,62,177,62a1.39,1.39,0,0,0-1.1,1.6l1.68,12.09a1.38,1.38,0,0,0,1.5,1.21l.27,0a1.44,1.44,0,0,0,1.21-1.59L178.88,63.2A1.48,1.48,0,0,0,177.28,62Z"/>
                    <path class="cls-25" d="M177.35,53.67a1.09,1.09,0,0,0-1.41-.32l-4.37,2.42a1.07,1.07,0,0,0,.66,2,.85.85,0,0,0,.37-.12l1.66-.93a33.79,33.79,0,0,1-12.39,12.62,1.07,1.07,0,0,0,.65,2,1.52,1.52,0,0,0,.4-.12,37.07,37.07,0,0,0,12.83-12.62l.14,1a1.24,1.24,0,0,0,2.44-.34l-.69-5h0A1.38,1.38,0,0,0,177.35,53.67Z"/>
                  </g>
                  <rect class="cls-25" x="155.64" y="52.6" width="25.83" height="0.47" transform="translate(-5.68 23.79) rotate(-7.94)"/>
                  <text class="cls-26" transform="translate(155.88 53.58) rotate(-7.94)">N<tspan class="cls-27" x="2.99" y="0">o</tspan><tspan class="cls-28" x="5.32" y="0">.</tspan></text>
                  <rect class="cls-25" x="158.16" y="86.37" width="0.26" height="5.39" transform="translate(-10.79 22.74) rotate(-7.95)"/>
                </g>
              </g>
              <g>
                <g>
                  <rect class="cls-24" x="82.94" y="111.68" width="0.59" height="82.59" transform="translate(-20.33 12.96) rotate(-7.94)"/>
                  <rect class="cls-24" x="139.82" y="103.75" width="0.59" height="82.59" transform="translate(-18.61 20.64) rotate(-7.9)"/>
                </g>
                <rect class="cls-24" x="89.7" y="168.56" width="49.85" height="0.29" transform="translate(-22.21 17.45) rotate(-7.94)"/>
              </g>
              <rect class="cls-24" x="141.3" y="99.82" width="50.88" height="38.05" transform="matrix(0.99, -0.14, 0.14, 0.99, -14.82, 24.17)"/>
              <g>
                <rect class="cls-24" x="24.5" y="125.58" width="49.67" height="0.39" transform="translate(-16.9 8.02) rotate(-7.94)"/>
                <rect class="cls-24" x="27.93" y="127.1" width="49.56" height="49.16" transform="translate(-20.45 8.74) rotate(-7.94)"/>
              </g>
              <g>
                <g>
                  <path class="cls-29" d="M162.45,108.68a13.06,13.06,0,1,0,14.74,11.13A13.07,13.07,0,0,0,162.45,108.68Zm3.14,22.52a9.67,9.67,0,1,1,8.24-10.92A9.69,9.69,0,0,1,165.59,131.2Z"/>
                  <path class="cls-29" d="M163.4,115.51a6.16,6.16,0,1,0,7,5.26A6.17,6.17,0,0,0,163.4,115.51Zm1.21,8.68a2.6,2.6,0,1,1,2.22-2.93A2.59,2.59,0,0,1,164.61,124.19Z"/>
                </g>
                <g>
                  <polygon class="cls-29" points="172.45 110.65 170.96 107.17 175.57 101.06 177.06 104.55 172.45 110.65"/>
                  <polygon class="cls-29" points="172.44 110.64 176.2 111.13 180.81 105.02 177.05 104.54 172.44 110.64"/>
                </g>
                <rect class="cls-29" x="159.94" y="112.78" width="19.82" height="2.6" transform="translate(-23.53 180.92) rotate(-52.95)"/>
              </g>
            </g>
            <g>
              <g class="cls-30">
                <path class="cls-31" d="M49.23,9.33A370.23,370.23,0,0,0,31.86,74.67c-6.46,37.55-8.69,67.18-8.69,67.18a553.84,553.84,0,0,0,15.35-65.7C45,38.6,49.23,9.33,49.23,9.33Z"/>
              </g>
              <g>
                <path class="cls-32" d="M196.81,176s1.33,4.67,8.92-33.86S225.52,41.29,225.52,41.29L52.11,7.15,25.5,142.3Z"/>
                <g class="cls-33">
                  <path class="cls-34" d="M222.91,45.48c.48-2.45-37.32-11.95-84.42-21.22S52.81,9.45,52.32,11.89s37.32,12,84.42,21.22S222.43,47.92,222.91,45.48Z"/>
                </g>
                <g class="cls-35">
                  <path class="cls-36" d="M220.87,41.67c-2.45-.48-10.24,28.61-17.39,65s-11,66.22-8.54,66.7,10.23-28.6,17.39-65S223.31,42.15,220.87,41.67Z"/>
                </g>
                <g>
                  <rect class="cls-18" x="55.39" y="4.06" width="133.9" height="178.15" transform="translate(7.33 195.18) rotate(-78.86)"/>
                  <polygon class="cls-29" points="196.81 176.03 22.01 141.62 39.43 53.17 72.67 42.55 96.37 19.79 222.68 44.66 196.81 176.03"/>
                  <polygon class="cls-31" points="96.37 19.79 87.92 62.72 39.43 53.17 96.37 19.79"/>
                  <g>
                    <rect class="cls-24" x="181.68" y="42.04" width="33.65" height="30.01" transform="translate(104.19 240.8) rotate(-78.86)"/>
                    <rect class="cls-24" x="148.35" y="11.8" width="6.47" height="116.82" transform="translate(53.41 205.37) rotate(-78.86)"/>
                    <rect class="cls-24" x="150.24" y="16.56" width="0.81" height="116.82" transform="translate(47.99 208.29) rotate(-78.86)"/>
                    <g>
                      <path class="cls-25" d="M189.46,66l-.44-.09c-.72-.14-1.59,0-1.73.67l-.09.45c-.14.72.59,1.36,1.3,1.5l.45.09a1.35,1.35,0,0,0,1.64-.92l.09-.45C190.82,66.55,190.18,66.15,189.46,66Z"/>
                      <path class="cls-25" d="M193.42,63.53l-.45-.08a1.07,1.07,0,0,0-1.43.82l-.68,3.49a1.16,1.16,0,0,0,1,1.43l.44.09a1.41,1.41,0,0,0,1.71-.9l.69-3.49C194.82,64.18,194.13,63.67,193.42,63.53Z"/>
                      <path class="cls-25" d="M197.63,61.65l-.34-.07a1.49,1.49,0,0,0-1.64,1.15l-1.13,5.71a1.33,1.33,0,0,0,1.12,1.5L196,70a1.17,1.17,0,0,0,1.42-1l1.12-5.71A1.34,1.34,0,0,0,197.63,61.65Z"/>
                      <path class="cls-25" d="M202.51,61a1.32,1.32,0,0,0-1-1.55l-.28-.06a1.32,1.32,0,0,0-1.55,1l-1.71,8.65a1.33,1.33,0,0,0,1,1.55l.29.06a1.32,1.32,0,0,0,1.54-1Z"/>
                      <path class="cls-25" d="M205.69,57l-.27-.05a1.35,1.35,0,0,0-1.52,1.12l-2.3,11.67a1.32,1.32,0,0,0,1,1.58l.27,0a1.4,1.4,0,0,0,1.61-1.07l2.3-11.67A1.44,1.44,0,0,0,205.69,57Z"/>
                      <path class="cls-25" d="M208.4,49.36a1,1,0,0,0-1.19-.74l-4.8.84a1,1,0,0,0,0,2,1,1,0,0,0,.38,0l1.83-.32a32.94,32.94,0,0,1-15.44,7.67,1,1,0,0,0-.86,1.2,1.05,1.05,0,0,0,.83.86,1.34,1.34,0,0,0,.4,0,35.9,35.9,0,0,0,15.83-7.53l-.18,1a1.21,1.21,0,0,0,2.35.46l.94-4.77h0A1.32,1.32,0,0,0,208.4,49.36Z"/>
                    </g>
                    <rect class="cls-25" x="200.34" y="33.21" width="0.45" height="25.16" transform="translate(116.9 233.73) rotate(-78.86)"/>
                    <rect class="cls-25" x="176.96" y="75.75" width="5.25" height="0.25" transform="translate(70.5 237.45) rotate(-78.88)"/>
                  </g>
                </g>
                <g>
                  <g>
                    <rect class="cls-24" x="49.91" y="110.53" width="80.46" height="0.57" transform="translate(-35.96 177.94) rotate(-78.9)"/>
                    <rect class="cls-24" x="104.79" y="121.34" width="80.46" height="0.57" transform="translate(-2.26 240.5) rotate(-78.89)"/>
                  </g>
                  <rect class="cls-24" x="113.88" y="111.01" width="0.29" height="48.56" transform="translate(-40.74 221.03) rotate(-78.86)"/>
                </g>
                <rect class="cls-24" x="159.35" y="81.2" width="37.07" height="49.57" transform="translate(39.53 260.04) rotate(-78.86)"/>
                <g>
                  <rect class="cls-24" x="67.4" y="50.79" width="0.38" height="48.38" transform="translate(-19.03 126.81) rotate(-78.86)"/>
                  <rect class="cls-24" x="38.5" y="75.76" width="47.89" height="48.27" transform="translate(-47.63 141.87) rotate(-78.86)"/>
                  <rect class="cls-37" x="92.83" y="81.02" width="53.12" height="48.27" transform="translate(-6.85 201.98) rotate(-78.86)"/>
                  <rect class="cls-37" x="151.06" y="121.39" width="37.93" height="48.27" transform="translate(-5.6 284.23) rotate(-78.86)"/>
                  <rect class="cls-37" x="46.16" y="111.94" width="17.11" height="48.27" transform="translate(-89.36 163.48) rotate(-78.86)"/>
                </g>
                <g>
                  <g>
                    <path class="cls-29" d="M177.17,95.26a12.72,12.72,0,1,0,10,14.94A12.73,12.73,0,0,0,177.17,95.26ZM172.89,117A9.42,9.42,0,1,1,184,109.56,9.42,9.42,0,0,1,172.89,117Z"/>
                    <path class="cls-29" d="M175.87,101.85a6,6,0,1,0,4.73,7.05A6,6,0,0,0,175.87,101.85Zm-1.65,8.38a2.53,2.53,0,1,1,3-2A2.53,2.53,0,0,1,174.22,110.23Z"/>
                  </g>
                  <g>
                    <polygon class="cls-29" points="185.75 100.26 185.48 96.58 191.67 92.42 191.93 96.11 185.75 100.26"/>
                    <polygon class="cls-29" points="185.74 100.25 189.05 101.89 195.23 97.74 191.93 96.1 185.74 100.25"/>
                  </g>
                  <rect class="cls-29" x="172.61" y="101.32" width="19.31" height="2.53" transform="matrix(0.83, -0.56, 0.56, 0.83, -26.24, 119.02)"/>
                </g>
              </g>
            </g>
          </g>
          <g class="cls-38">
            <g>
              <path d="M106.8,36.68l.11-.21a6.44,6.44,0,0,1,3.91-.59c1.85.37,2.81,1.34,3.64,3.19a4.74,4.74,0,0,1,.45,3.07,3.58,3.58,0,0,1-1.25,2,5.68,5.68,0,0,1,.55.9c.21.34.86.52,1.53.66a5.3,5.3,0,0,0,2.7-.23l1-5L117,40l-.64-2.38.28-.26,7.84,1.58.64,2.39-.28.25L122.05,41,119.28,55l-.25.11-2.39-1.24,1.11-5.26a3.35,3.35,0,0,1-.54-.08A4.78,4.78,0,0,1,115,47.43l-.14,0a5.48,5.48,0,0,1-.1,1.18,4,4,0,0,1-5,3c-3.21-.65-5.21-3.9-6.57-8.86l.06-.13,1.32-.56c1.18,3.71,2.14,5.9,4.78,6.44,1.36.27,3.2-.41,3.51-2,.17-.82-.2-1.44-1.29-1.66a8.93,8.93,0,0,0-3.1.15l-1.1-2.81.16-.28a21.79,21.79,0,0,1,3.59-.23c1.13-.2,1.81-.74,2-1.48.11-.56,0-1.14-1.22-1.39a7.84,7.84,0,0,0-4,.61Z"/>
              <path d="M123.89,39.09l.28-.26,20.19,4.08.64,2.38-.28.26L142,45l-2.77,14.07-.25.11-2.37-1.24.77-3.5a3.28,3.28,0,0,1-1.62,0,5.82,5.82,0,0,1-3.3-2.3A5.36,5.36,0,0,1,131.23,48c.42-2.09,2.13-3.26,4.61-2.76a9.88,9.88,0,0,1,3.1,1.23l.41-2L131,42.79a22.41,22.41,0,0,1-.34,2.32,6.94,6.94,0,0,1-3.4,4.92c1.33,1.91,3.65,6.18,10.58,6.29l1.08,2.85a18.08,18.08,0,0,1-7.66-1.27c-1.51-.64-6-6.9-7.11-10.26a2.43,2.43,0,0,1-.06-1,1.61,1.61,0,0,1,.64-1,1.75,1.75,0,0,1,1.35-.1c.38.07.71.16,1.25.3a5.19,5.19,0,0,0,1-2.33,11.26,11.26,0,0,0,.18-1.28l-4-.8Zm14.71,9.26a7.36,7.36,0,0,0-1.17-.31c-1.74-.36-3.65.35-4,1.9-.2,1,.31,1.7,1.49,1.93a3.36,3.36,0,0,0,2.06-.24,1.94,1.94,0,0,0,1.23-1.56Z"/>
              <path d="M143.8,43.11l.28-.26,15,3,.64,2.39-.28.25L156.69,48,153.92,62l-.25.11L151.3,60.9l.73-3.28a6,6,0,0,1-3.16.22,5.75,5.75,0,0,1-4.07-3.29,5.28,5.28,0,0,1-.67-3.45c.42-2.09,2.34-3.52,5.63-2.85a16.79,16.79,0,0,1,3.88,1.39l.44-2.2-9.64-1.95Zm4.36,8a2.56,2.56,0,0,0-1.81,2c-.18.87.47,1.84,2.11,2.17a5.71,5.71,0,0,0,1.48.1ZM151.34,55a2.18,2.18,0,0,0,1.59-1.68l.32-1.57a11.2,11.2,0,0,0-2.33-.74,9.12,9.12,0,0,0-1.28-.16Z"/>
              <path d="M158.53,46.08l.28-.26,7.06,1.43.64,2.38-.28.26-2.76-.56L160.7,63.39l-.25.12-2.4-1.26,2.78-13.45-1.66-.34Z"/>
              <path d="M165.31,47.44l.28-.25,11.35,2.29.64,2.39-.28.25-3.64-.73a10.72,10.72,0,0,1-.22,2,6.22,6.22,0,0,1-4.64,5.2,20,20,0,0,0,5.06,5.06l-1.76,2.44-.24,0a25.29,25.29,0,0,1-5.71-9.21,4.22,4.22,0,0,1-.27-1.75,1.68,1.68,0,0,1,.45-.83,1.65,1.65,0,0,1,1.62-.37c.74.15,1.47.32,2,.46A3.87,3.87,0,0,0,171,52.1a4.88,4.88,0,0,0,.12-1.23l-5.14-1Z"/>
            </g>
          </g>
          <circle class="cls-39" cx="124.82" cy="54.73" r="1.52"/>
        </g>
      </g>
    </g>
  </g>
</svg>
