<svg id="Layer_1" data-name="Layer 1" xmlns="http://www.w3.org/2000/svg" width="360.15" height="352.34" viewBox="0 0 360.15 352.34">
  <defs>
    <style>
      .cls-1, .cls-12, .cls-24, .cls-7, .cls-9 {
        fill: none;
      }

      .cls-1 {
        stroke: #ff0;
        stroke-linejoin: round;
        stroke-width: 15px;
      }

      .cls-10, .cls-2 {
        fill: #fba96a;
      }

      .cls-16, .cls-17, .cls-19, .cls-2, .cls-24, .cls-29 {
        stroke: #000;
      }

      .cls-11, .cls-12, .cls-13, .cls-14, .cls-16, .cls-17, .cls-18, .cls-19, .cls-2, .cls-21, .cls-24, .cls-29, .cls-3, .cls-4, .cls-6, .cls-7 {
        stroke-miterlimit: 10;
      }

      .cls-12, .cls-13, .cls-16, .cls-18, .cls-19, .cls-2 {
        stroke-width: 0.5px;
      }

      .cls-3, .cls-4 {
        fill: #f29e64;
      }

      .cls-11, .cls-12, .cls-13, .cls-14, .cls-18, .cls-21, .cls-3, .cls-4, .cls-6, .cls-7 {
        stroke: #892929;
      }

      .cls-11, .cls-14, .cls-17, .cls-21, .cls-3, .cls-6, .cls-7 {
        stroke-width: 0.75px;
      }

      .cls-5 {
        fill: #3d0000;
      }

      .cls-23, .cls-29, .cls-6 {
        fill: #fff;
      }

      .cls-13, .cls-14, .cls-8 {
        fill: #fec400;
      }

      .cls-11 {
        fill: #f4904d;
      }

      .cls-15, .cls-16, .cls-18 {
        fill: #fba15c;
      }

      .cls-17, .cls-19, .cls-22 {
        fill: #e0000c;
      }

      .cls-20 {
        fill: #c10517;
      }

      .cls-21 {
        fill: #6d4429;
      }

      .cls-24 {
        stroke-width: 0.33px;
      }

      .cls-25 {
        fill: #d1342d;
      }

      .cls-26 {
        fill: #e56f4b;
      }

      .cls-27 {
        fill: #3b0202;
      }

      .cls-28 {
        fill: #ff8a66;
      }

      .cls-29 {
        stroke-width: 0.31px;
      }
    </style>
  </defs>
  <g>
    <path class="cls-1" d="M335.88,312.93c-.5-1.29-1-2.56-1.51-3.81-7.06-17.57-13.62-30.27-19.08-39.25h0c1-10.35-2.3-27.47-2.91-30.49-.06-.29-.09-.46-.09-.46l-4.86-2.22s-15.86-2.93-23.21-5-13.64-2.88-21.64-4.06-3.15-1.18-6.68-2.69c-2.77-1.18-12.49-1.36-16.93-1.44-.09.16-.18.34-.27.52a12.2,12.2,0,0,1-2.47,2.42c-2.7-.77-6.32-2.17-8.29-3a15,15,0,0,0-.49-2.45c-3.92-3.62-11.25-5.58-15.56-6.09a2.92,2.92,0,0,0,0-.6c-.15-1.61-2.61-3.7-5.37-4.67-3.62-7.28-3.15-16.76-2.5-21.95,11.54-5.29,26.92-15.82,29.89-35.07a43,43,0,0,1-1.26-6,43.41,43.41,0,0,0,1.18,5.49,50.47,50.47,0,0,0,1.65,4.9c16.2,14.91,16.65,31.36,13.1,36.85S224,204,227,187.12c-.69.37-7.45.66-6.87,10.22,1.14,8.55,29.08,8.55,35.71-4.08,5.35-9.57-8.42-24.49-10.21-26.14-2.2-1.33-6-6.44-5.82-18.38l.31.2.1.25h0c5,3,10.51-4.67,10.08-5.23,5.13-1.09,12.12-24.55,2-27.34a12.09,12.09,0,0,0-3.54-.46c22-34.74-3.14-68.77-2.38-68.51,7.64-11-7.64-39-57.44-38.21C97.68,20.6,98,73.62,106.84,105.3c-2.53-3-5.42-6.16-6.87-6.33-2.68.62-1.76,4.71-1,7-3.81-2.63-10.2-4.51-8.49,1.72.8,2.94,3.21,5,5.91,6.42-4,.38-9.48,2.12-7.38,4.68,1.87,2.26,8.81,1,11.81.68-16.46,14.61,1.47,27.63,2.84,28.44a4.64,4.64,0,0,1,1.3,1.66c-3.89.07-11.23.16-12.75-.73.08,0,.66,12.51,13.93,6.46-14.32,8.25-11.8,24.51-1.12,30.61,26.51,7.27,29.07-6.9,29.15-13.63.93,1.13,1.9,2.25,2.94,3.35h0c.9,4,2.74,14.71-2.93,15.23-6.61-.09-12.17,2.13-11.81,9.46s8.72,6.39,8.72,6.39-6-8.34-1.86-11.12c4.83-5,16,6.7,14.77-13.74a52.91,52.91,0,0,0,9.93,6c.69,5.21,1.47,16.07-2.56,24.16-2.54.39-6.76,1.81-6.12,7.07-.38.24-.78.47-1.18.69-1-1.09-2.88-3.16-3-2.89-6.46-.31-14,6.19-17.67,9l-.13.09c-3.06,2.26-11.24,2.63-14.09,2.88l-.59-.18c.22.07.42.12.58.18l-.54,0a2.23,2.23,0,0,1,0-.23,27.36,27.36,0,0,0-19.88,1.87c-.36.24-18.52-1.08-33.55,16.6-.08.08-18.42,32.35-31.33,60.06-7,15.07-12.45,28.8-12.45,35.25H350.47C347.43,335.57,339.72,318.51,335.88,312.93ZM180.89,265a40.45,40.45,0,0,1,0,6.53A40.45,40.45,0,0,1,180.89,265Zm59.05-138a1.8,1.8,0,0,1,.07.27,30.19,30.19,0,0,0-.44,20.08A30.15,30.15,0,0,1,239.94,127Z"/>
    <g>
      <path class="cls-2" d="M238.31,121c-3.16-12-9.48-38.45-8.21-55.43,0,.37-10.49-1.7-14-6.56.19.18-99-7.28-89.66,71.88l-.1-.09c-1.28-1.18-12-5.32-14.51-11.34a13.49,13.49,0,0,0-6,1.07c-10.62,4.33-7.34,22,7.21,28.32a11.87,11.87,0,0,0,9.17,1.2,69.75,69.75,0,0,0,12,22.28c.93,1.13,1.9,2.25,2.94,3.35h0a58.49,58.49,0,0,0,6.89,6.22,52.91,52.91,0,0,0,9.93,6c9.48,4.41,21.56,6.63,36.86,4.45A72.2,72.2,0,0,0,204,187.69c11.54-5.29,26.92-15.82,29.89-35.07C229.25,136.17,235.55,124.89,238.31,121ZM121.7,148.35a4.5,4.5,0,0,1-3.75,1.9,4,4,0,1,1,4.4-4A3.74,3.74,0,0,1,121.7,148.35ZM190,130.87a4,4,0,1,1-4,4A4,4,0,0,1,190,130.87Zm-52.1-19.08c0-7.08,6.71-12.82,15-12.82s15,5.74,15,12.82-6.71,12.83-15,12.83S137.93,118.88,137.93,111.79Zm69.31,12.83c-8.29,0-15-5.74-15-12.83S199,99,207.24,99s15,5.74,15,12.82S215.51,124.62,207.24,124.62Z"/>
      <path class="cls-3" d="M203.44,342.44H182.15s-1.51-17.79,0-21.79c1-11.83-.28-21.19,0-21.88-1.65-7.58-1.38-16.39,1.51-13.75,0,0,0,0,0,0a32.76,32.76,0,0,0-1.55-5.56c-.51-.95-1-4.4-1.26-7.94v0a40.45,40.45,0,0,0,0-6.53v0a9,9,0,0,1,.25-1.44c.27-1,1.5.26,3.13,2.77-.42-2.39-1.16-6.27-.47-8.55a2.27,2.27,0,0,1,2.89-1.76l.06.06c1.74,1.73,5,8.23,8,15.65a142.89,142.89,0,0,1,5.8,17.05,42.84,42.84,0,0,1,1.06,5.48c.48,4.5,1.2,13.58,1.68,22.95C203.76,326.9,204,336.91,203.44,342.44Z"/>
      <path class="cls-4" d="M180.89,265a40.45,40.45,0,0,0,0,6.53v0c-.24,3.54-.75,7-1.26,7.94a32.76,32.76,0,0,0-1.55,5.56s0,0,0,0c2.89-2.64,3.17,6.17,1.51,13.75.28.69-1,10.05,0,21.88,1.52,4,0,21.79,0,21.79H158.34c-.52-5.18-.34-14.31.09-23.44.32-6.58.77-13.15,1.18-18.23.21-2.65.42-4.9.6-6.54.69-6.58,5.19-19.16,9.26-28.19,2.24-5,4.35-8.84,5.62-10.05,2.76-.51,3.3,2,3.16,5a47.65,47.65,0,0,1-.73,5.34c1.63-2.51,2.85-3.79,3.12-2.77a9,9,0,0,1,.25,1.44Z"/>
      <path class="cls-5" d="M248.7,116.4l-.36.57a72.35,72.35,0,0,1-8.31,10.4c0-.09-.69-2.49-1.72-6.39-3.16-12-9.48-38.45-8.21-55.43,0,.37-10.49-1.7-14-6.56.19.18-99-7.28-89.66,71.88l-.1-.09c-1.28-1.18-12-5.32-14.51-11.34-.75-1.78-1.53-3.75-2.3-5.9-.91-2.52-1.81-5.28-2.64-8.23h0C98,73.62,97.68,20.6,189,9.45c49.8-.84,65.08,27.18,57.44,38.21C245.7,47.4,271,81.59,248.7,116.4Z"/>
      <ellipse class="cls-6" cx="152.92" cy="111.79" rx="14.99" ry="12.83"/>
      <ellipse class="cls-5" cx="152.85" cy="110.8" rx="8.53" ry="8.65"/>
      <path class="cls-6" d="M222.23,111.79c0,7.09-6.72,12.83-15,12.83s-15-5.74-15-12.83S199,99,207.24,99,222.23,104.71,222.23,111.79Z"/>
      <ellipse class="cls-5" cx="207.16" cy="110.8" rx="8.53" ry="8.65"/>
      <path class="cls-7" d="M124.94,148.83a9.29,9.29,0,0,1-2.76,1.2"/>
      <path class="cls-7" d="M122.19,126.15s-3.62-6.26-10.41-6.71"/>
      <path class="cls-7" d="M121.7,148.35c-.08-.27-.11-.41-.11-.41"/>
      <path class="cls-5" d="M122.18,150a11.87,11.87,0,0,1-9.17-1.2c-14.55-6.29-17.83-24-7.21-28.32a13.49,13.49,0,0,1,6-1.07c-.75-1.78-1.53-3.75-2.3-5.9a53.18,53.18,0,0,0-5.21,3.25h0a39.88,39.88,0,0,0-3.43,2.7h0c-16.46,14.61,1.47,27.63,2.84,28.44a4.64,4.64,0,0,1,1.3,1.66c1.41,0,2.35-.06,2.43,0l.34-.69c9.31.69,2.5,6.64,2.5,6.64a21.1,21.1,0,0,0-2.84-.78c-.43.22-.84.42-1.25.6-14.32,8.25-11.8,24.51-1.12,30.61,26.51,7.27,29.07-6.9,29.15-13.63A69.75,69.75,0,0,1,122.18,150ZM118,165a4,4,0,1,1,4.4-4A4.2,4.2,0,0,1,118,165Z"/>
      <path class="cls-8" d="M104.26,116.79a39.88,39.88,0,0,0-3.43,2.7h0c-3,.34-9.94,1.58-11.81-.68-2.1-2.56,3.35-4.3,7.38-4.68A29.78,29.78,0,0,0,104.26,116.79Z"/>
      <path class="cls-9" d="M97.54,114.06c-.37,0-.76,0-1.16.08"/>
      <path class="cls-9" d="M100.83,119.49a4,4,0,0,1,1.33,0"/>
      <path class="cls-9" d="M101,107.72A10,10,0,0,0,99,106h0"/>
      <path class="cls-9" d="M106.07,117.1c-.18,0-.83-.12-1.8-.31"/>
      <path class="cls-9" d="M108.75,107.6c-.59-.71-1.23-1.5-1.91-2.29"/>
      <path class="cls-8" d="M109.48,113.54a53.18,53.18,0,0,0-5.21,3.25h0a29.78,29.78,0,0,1-7.88-2.65c-2.7-1.42-5.11-3.48-5.91-6.42-1.71-6.23,4.68-4.35,8.49-1.72-.75-2.32-1.67-6.41,1-7,1.45.17,4.34,3.33,6.87,6.33h0C107.67,108.26,108.57,111,109.48,113.54Z"/>
      <path class="cls-9" d="M99.56,107.6S99.28,107,99,106h0"/>
      <path class="cls-8" d="M110.22,155.51a21.1,21.1,0,0,0-2.84-.78c-.43.22-.84.42-1.25.6-13.27,6-13.85-6.46-13.93-6.46,1.52.89,8.86.8,12.75.73,1.41,0,2.35-.06,2.43,0l.34-.69C117,149.56,110.22,155.51,110.22,155.51Z"/>
      <path class="cls-5" d="M144,181.89c1.25,20.44-9.94,8.71-14.77,13.74-4.17,2.78,1.86,11.12,1.86,11.12s-8.34.93-8.72-6.39,5.2-9.55,11.81-9.46c5.67-.52,3.83-11.22,2.93-15.23Z"/>
      <path class="cls-5" d="M245.67,167.12c-2.2-1.33-6-6.44-5.82-18.38l.33.22c-1.64-3.82-3.89-11.83-.18-22.13,0,0,0,0-.05.06s-.69-2.48-1.72-6.38c-2.76,3.91-9.06,15.18-4.41,31.64a50.47,50.47,0,0,0,1.65,4.9c16.2,14.91,16.65,31.36,13.1,36.85S224,204,227,187.12c-.69.37-7.45.66-6.87,10.22,1.14,8.55,29.08,8.55,35.71-4.08C261.23,183.69,247.46,168.77,245.67,167.12Z"/>
      <path class="cls-10" d="M252.38,116.63a12.73,12.73,0,0,0-3.68-.47l-.36.57a71.5,71.5,0,0,1-8.26,10.34c-3.71,10.3-1.46,18.3.18,22.12h0c5,3,10.51-4.67,10.08-5.23C255.48,142.88,262.47,119.42,252.38,116.63Z"/>
      <path class="cls-11" d="M247.73,142.41c-3.7,4-5.37-2.08-5.18-3.21,1.15-3-.52-3.52-1.61-4.56a2.34,2.34,0,0,1-.83-1.61,3.08,3.08,0,0,1,.65-1.41c2-2.72,7.77-6.37,8.21-5.91C253.87,130.81,251.43,138.45,247.73,142.41Z"/>
      <path class="cls-7" d="M227.13,187.48c.06.05.05.08,0,.11A.45.45,0,0,1,227.13,187.48Z"/>
      <path class="cls-12" d="M169.59,141.45a3.49,3.49,0,0,0,3.47,1.27c.19.07,4.35,3.54,11.26.09.18,0,3.24.43,4.59-1.36"/>
      <circle class="cls-13" cx="190.03" cy="134.85" r="3.97"/>
      <path class="cls-8" d="M122.35,146.26a3.74,3.74,0,0,1-.65,2.09,4.5,4.5,0,0,1-3.75,1.9,4,4,0,1,1,4.4-4Z"/>
      <path class="cls-8" d="M122.35,161a4.42,4.42,0,1,1-4.4-4A4.2,4.2,0,0,1,122.35,161Z"/>
      <path class="cls-14" d="M184.27,266.3c-1.63-2.51-2.86-3.79-3.13-2.77a9,9,0,0,0-.25,1.44,9,9,0,0,0-.25-1.44c-.27-1-1.49.26-3.12,2.77a47.65,47.65,0,0,0,.73-5.34l5.55-3.21C183.11,260,183.85,263.91,184.27,266.3Z"/>
      <path class="cls-15" d="M215.39,239.7c-5.84,3.24-16.95,9.61-28.64,16.35l-.06-.06a2.27,2.27,0,0,0-2.89,1.76L178.25,261c.14-2.93-.4-5.48-3.16-5-1.27,1.21-3.38,5.09-5.62,10.05l-21.23,12.34h0c-9.41-25.87-12-56.4-12-56.4a19.53,19.53,0,0,0,7.83-2.17c.4-.22.8-.45,1.18-.69a7.44,7.44,0,0,0,.12.76c1.54,7.84,15.4,17.35,23.79,18.67-1.72,1.06-2.77,2.47-2.77,4,0,3.25,4.61,5.9,10.31,5.9s10.31-2.65,10.31-5.9c0-1.65-1.17-3.14-3.08-4.2,6.85-.86,14-2.86,18.47-6.6a26.78,26.78,0,0,0,9.39-15.71,15.08,15.08,0,0,0,2.05,1.28h0C215,220,216.94,226.81,215.39,239.7Z"/>
      <path class="cls-16" d="M176.31,232.93c-18.23-.14-26.15-18-26.37-18.45h0a18.92,18.92,0,0,0,1.42-2.42c4-8.09,3.25-19,2.56-24.16,9.48,4.41,21.56,6.63,36.86,4.45A72.2,72.2,0,0,0,204,187.69c-.65,5.19-1.12,14.67,2.5,21.95.27.56.57,1.1.9,1.64C208,217.6,194.77,233.07,176.31,232.93Z"/>
      <path class="cls-14" d="M211.89,214.91a9.3,9.3,0,0,1-.11,1.16,26.78,26.78,0,0,1-9.39,15.71c-4.49,3.74-11.62,5.74-18.47,6.6,1.91,1.06,3.08,2.55,3.08,4.2,0,3.25-4.62,5.9-10.31,5.9s-10.31-2.65-10.31-5.9c0-1.56,1.05-3,2.77-4-8.39-1.32-22.25-10.83-23.79-18.67a7.44,7.44,0,0,1-.12-.76c-.64-5.26,3.58-6.68,6.12-7.07a18.92,18.92,0,0,1-1.42,2.42h0c.22.47,8.14,18.31,26.37,18.45,18.46.14,31.67-15.33,31.1-21.65-.33-.54-.63-1.08-.9-1.64,2.76,1,5.22,3.06,5.37,4.67A2.92,2.92,0,0,1,211.89,214.91Z"/>
      <path class="cls-17" d="M135.29,286c-8,4.85-29.23,18.32-46.69,32.66a148.46,148.46,0,0,0-17,16c-23.08-6.95-40.64-21.13-47.71-27.49,12.91-27.71,31.25-60,31.33-60.06,15-17.68,33.19-16.36,33.55-16.6a27.36,27.36,0,0,1,19.88-1.87,2.23,2.23,0,0,0,0,.23c1.58,10,8.07,42.95,26.23,56.18Z"/>
      <path class="cls-16" d="M71.56,334.68a52,52,0,0,0-5.8,7.76H11.4c0-6.45,5.43-20.18,12.45-35.25C30.92,313.55,48.48,327.73,71.56,334.68Z"/>
      <path class="cls-7" d="M108.61,228.66c.22.07.42.12.58.18a3.75,3.75,0,0,0,.47.13"/>
      <path class="cls-14" d="M147.44,306.94c-7.19,5.49-28.23,21.48-41.23,35.5H65.76a52,52,0,0,1,5.8-7.76,148.46,148.46,0,0,1,17-16c17.46-14.34,38.73-27.81,46.69-32.66A104.61,104.61,0,0,0,147.44,306.94Z"/>
      <path class="cls-7" d="M88.6,318.69c0-3.88-.2-10.19-.45-17.33-.66-19.14-1.85-44.22-2.17-44.22"/>
      <path class="cls-7" d="M88.15,301.36c-5.9-2.62-6.89-30.08-6.89-30.08"/>
      <path class="cls-14" d="M159.61,300.77c-.41,5.08-.86,11.65-1.18,18.23a88.74,88.74,0,0,1-11-12.06A104.61,104.61,0,0,1,135.29,286l-.41-1c-10.79-25.11-11.54-50.72-11.46-59.2,3.7-2.76,11.21-9.26,17.67-9,.09-.27,2,1.8,3,2.89a19.53,19.53,0,0,1-7.83,2.17s2.59,30.53,12,56.4h0C151.26,286.73,155,294.57,159.61,300.77Z"/>
      <path class="cls-16" d="M134.88,285.07c-18.16-13.23-24.65-46.17-26.23-56.18l.54,0c2.83-.25,11-.61,14.1-2.88l.13-.09C123.34,234.35,124.09,260,134.88,285.07Z"/>
      <path class="cls-7" d="M108.65,228.89a1.29,1.29,0,0,0-.43.1"/>
      <path class="cls-14" d="M203.26,317.18c-.48-9.37-1.2-18.45-1.68-22.95a42.84,42.84,0,0,0-1.06-5.48A218.22,218.22,0,0,0,213,252.58a115.45,115.45,0,0,0,2.35-12.88c1.55-12.89-.4-19.66-1.55-22.35h0a15.08,15.08,0,0,1-2.05-1.28,9.3,9.3,0,0,0,.11-1.16c4.31.51,11.64,2.47,15.56,6.09a15,15,0,0,1,.49,2.45,72.34,72.34,0,0,1,.64,8.6C228.91,247.6,225.7,278.38,203.26,317.18Z"/>
      <path class="cls-18" d="M236.23,226.41c-2,1.6-4.82,3.7-7.65,5.64a72.34,72.34,0,0,0-.64-8.6C229.91,224.24,233.53,225.64,236.23,226.41Z"/>
      <path class="cls-9" d="M238.7,226.94a14.07,14.07,0,0,1-2.47-.53"/>
      <path class="cls-9" d="M227.94,223.45l-1.42-.57"/>
      <path class="cls-19" d="M312.38,239.37a167.06,167.06,0,0,0-6.29,17.2c-4.64,14.45-11.47,39-20.48,79.76-.44,2-.89,4-1.34,6.11H203.44c.55-5.53.32-15.54-.18-25.26,22.44-38.8,25.65-69.58,25.32-85.13,2.83-1.94,5.69-4,7.65-5.64A12.2,12.2,0,0,0,238.7,224c.09-.18.18-.36.27-.52,4.44.08,14.16.26,16.93,1.44,3.53,1.51-1.31,1.51,6.68,2.69s14.29,2,21.64,4.06,23.21,5,23.21,5l4.86,2.22S312.32,239.08,312.38,239.37Z"/>
      <path class="cls-20" d="M315.29,269.86a117.75,117.75,0,0,0-9.2-13.29,167.06,167.06,0,0,1,6.29-17.2C313,242.39,316.31,259.51,315.29,269.86Z"/>
      <path class="cls-12" d="M315.29,269.87c0,.43-.09.86-.15,1.27"/>
      <path class="cls-2" d="M350.47,342.44h-66.2c.45-2.08.9-4.11,1.34-6.11,8.69-3.27,31.61-12.72,48.76-27.21.5,1.25,1,2.52,1.51,3.81C339.72,318.51,347.43,335.57,350.47,342.44Z"/>
      <path class="cls-19" d="M334.37,309.12c-17.15,14.49-40.07,23.94-48.76,27.21,9-40.75,15.84-65.31,20.48-79.76a117.75,117.75,0,0,1,9.2,13.29h0C320.75,278.85,327.31,291.55,334.37,309.12Z"/>
      <path class="cls-12" d="M300.15,250.58c.24,0,2.39,1.64,5.94,6"/>
      <path class="cls-9" d="M223.2,51.39c-1.33-.67-91.75-38.48-110.58,62.67"/>
      <path class="cls-9" d="M223.2,46c-.43,0-51.89-44.38-97.25,10.49"/>
      <path class="cls-9" d="M236.91,45.52c-.73-.25-8.17-39.63-48-33.17"/>
      <path class="cls-9" d="M240.67,45.52s1-23-16.44-29"/>
      <path class="cls-9" d="M234.29,61.37s9.64,25.29,6.38,51.18"/>
      <path class="cls-9" d="M242.85,61.37s9.18,18,4.06,42.17"/>
      <path class="cls-9" d="M250.47,61.37a66.66,66.66,0,0,1,0,35.85"/>
      <path class="cls-7" d="M170.82,317.21s3.69-28,7.26-32.15"/>
      <path class="cls-7" d="M177.52,266.3h0c-3.85,5.89-9.92,18.53-11.14,23.65-1.75,7.29-2.44,17.89-3.27,21.48"/>
      <line class="cls-7" x1="177.52" y1="266.31" x2="177.52" y2="266.3"/>
      <path class="cls-14" d="M169.47,266c-4.07,9-8.57,21.61-9.26,28.19-.18,1.64-.39,3.89-.6,6.54-4.6-6.2-8.35-14-11.37-22.39Z"/>
      <path class="cls-7" d="M183.7,285.06c3.57,4.17,7.26,32.15,7.26,32.15"/>
      <path class="cls-7" d="M198.67,311.44c-.83-3.59-1.52-14.19-3.26-21.48-1.23-5.12-7.3-17.76-11.14-23.65h0"/>
      <line class="cls-7" x1="184.27" y1="266.31" x2="184.27" y2="266.3"/>
      <path class="cls-14" d="M215.39,239.7A115.45,115.45,0,0,1,213,252.58c-5.44,5.54-14.59,15-18.32,19.12-3-7.42-6.23-13.92-8-15.65C198.44,249.31,209.55,242.94,215.39,239.7Z"/>
      <path class="cls-19" d="M213,252.58a218.22,218.22,0,0,1-12.52,36.17,142.89,142.89,0,0,0-5.8-17.05C198.45,267.54,207.6,258.12,213,252.58Z"/>
      <path class="cls-19" d="M158.34,342.44H106.21c13-14,34-30,41.23-35.5a88.74,88.74,0,0,0,11,12.06C158,328.13,157.82,337.26,158.34,342.44Z"/>
      <path class="cls-21" d="M183.7,285.06s0,0,0,0c-2.89-2.64-3.16,6.17-1.51,13.75-.28.69,1,10.05,0,21.88-1.51,4,0,21.79,0,21.79h-2.52s1.52-17.79,0-21.79c-1-11.83.28-21.19,0-21.88,1.66-7.58,1.38-16.39-1.51-13.75,0,0,0,0,0,0a32.76,32.76,0,0,1,1.55-5.56c.51-.95,1-4.4,1.26-7.94.24,3.54.75,7,1.26,7.94A32.76,32.76,0,0,1,183.7,285.06Z"/>
      <path class="cls-11" d="M111.73,142c3.7,4,5.36-2.08,5.17-3.2-1.6-4.16,2.26-3.59,2.45-6.18-.28-2.61-8.33-7.87-8.87-7.32C105.58,130.43,108,138.07,111.73,142Z"/>
      <path class="cls-5" d="M192.24,95.07V91.86s30.66-13.93,37,1.6C229.33,93.06,218.75,82.75,192.24,95.07Z"/>
      <path class="cls-5" d="M168.87,95.07V91.86s-30.66-13.93-37,1.6C131.78,93.06,142.36,82.75,168.87,95.07Z"/>
      <circle class="cls-22" cx="180.89" cy="93.47" r="2.87"/>
      <g>
        <path class="cls-5" d="M222.16,111.79a11,11,0,0,1-.08,1.29c-.75-6.49-7.13-11.55-14.91-11.55s-14.18,5.06-14.92,11.55a11,11,0,0,1-.08-1.29c0-7.08,6.71-12.82,15-12.82S222.16,104.71,222.16,111.79Z"/>
        <path class="cls-5" d="M224.89,101.89a2.73,2.73,0,0,1-1.81,3.36,2.84,2.84,0,0,1-.38.13,2.62,2.62,0,0,1-3.28-1.21,1.71,1.71,0,0,1-.13-.44,2.62,2.62,0,0,0,2.41.94,3.55,3.55,0,0,0,1-.26,2.85,2.85,0,0,0,1.93-2.91A1.54,1.54,0,0,1,224.89,101.89Z"/>
        <path class="cls-5" d="M223.87,100.93c.39.93-.52,2.2-2,2.83l-.38.14c-1.38.45-2.7.17-3.06-.69a.81.81,0,0,1-.08-.34,2.39,2.39,0,0,0,2.24.55,4.45,4.45,0,0,0,1-.3c1.34-.55,2.2-1.6,2.12-2.49A1.14,1.14,0,0,1,223.87,100.93Z"/>
        <path class="cls-5" d="M227.09,103c.51,1.22-.61,2.85-2.49,3.64-.16.06-.31.12-.48.17-1.72.55-3.4.16-3.86-1a1.36,1.36,0,0,1-.11-.44,3,3,0,0,0,2.83.76,5.8,5.8,0,0,0,1.27-.36c1.67-.7,2.73-2,2.6-3.19A1.41,1.41,0,0,1,227.09,103Z"/>
      </g>
      <g>
        <path class="cls-5" d="M137.92,109.88a11.17,11.17,0,0,0,.08,1.29c.75-6.49,7.14-11.55,14.91-11.55s14.18,5.06,14.92,11.55a9.31,9.31,0,0,0,.08-1.29c0-7.09-6.71-12.82-15-12.82S137.92,102.79,137.92,109.88Z"/>
        <path class="cls-5" d="M135.19,100a2.74,2.74,0,0,0,1.82,3.36l.37.13a2.65,2.65,0,0,0,3.29-1.21,2.2,2.2,0,0,0,.12-.44,2.61,2.61,0,0,1-2.4.94,3.87,3.87,0,0,1-1-.26,2.87,2.87,0,0,1-1.93-2.92A2,2,0,0,0,135.19,100Z"/>
        <path class="cls-5" d="M136.21,99c-.39.93.52,2.2,2,2.83l.38.14c1.38.45,2.71.17,3.06-.69a1,1,0,0,0,.09-.34,2.42,2.42,0,0,1-2.24.55,4.92,4.92,0,0,1-1-.3c-1.34-.55-2.2-1.61-2.11-2.49A1.17,1.17,0,0,0,136.21,99Z"/>
        <path class="cls-5" d="M133,101.11c-.51,1.23.6,2.86,2.49,3.65a3.71,3.71,0,0,0,.47.16c1.73.56,3.4.16,3.87-1a2.18,2.18,0,0,0,.11-.44,3,3,0,0,1-2.83.76,5.51,5.51,0,0,1-1.27-.36c-1.68-.7-2.74-2-2.61-3.19A1.14,1.14,0,0,0,133,101.11Z"/>
      </g>
      <ellipse class="cls-23" cx="212.46" cy="105.52" rx="3.92" ry="1.89"/>
      <ellipse class="cls-23" cx="157.46" cy="104.57" rx="3.92" ry="1.89"/>
      <path class="cls-24" d="M170.05,178.22a26.82,26.82,0,0,1,22.37,0"/>
      <g>
        <path class="cls-25" d="M201.51,156.66l-.19.16a18.61,18.61,0,0,1-2.09.93,45.1,45.1,0,0,1-15.5,3.13h-.89c-8.72-.25-15.4-1.13-20.54-3.1-.52-.2-1-.42-1.52-.64h.05a0,0,0,0,0,0,0l.54.12h0l1.07.19a32.94,32.94,0,0,0,11,.09c9.54-.42,14.52.09,15.29,0s5.59,1.73,11.47-.41c.23-.08.46-.16.68-.26Z"/>
        <path class="cls-26" d="M201.67,156.66c-.43.75-.89,1.45-1.35,2.11l0,0,0,0h0c-.28.4-.57.79-.86,1.16-5.35,6.84-11.85,8.75-14,8.74-1.38,0,0,0-4.55-.27-10.82.65-18.3-9-20-11.37l-.08-.12.2.07h0c5.33,2.41,12.45,3.45,22.06,3.73a43.69,43.69,0,0,0,18.48-4.05h0Z"/>
        <g>
          <path class="cls-25" d="M162.68,157.69c-.86-.14-1.44-.26-1.63-.3h0a1,1,0,0,0-.21-.07h0c-1.12-.28-1.78,1.05-2.38.95s-1.37-1.48-.63-2.18c.53-.5,1.7-.14,2.56.15A11.14,11.14,0,0,0,162.68,157.69Z"/>
          <path class="cls-26" d="M160.88,157.41c-.64-.07-1.13.68-2.45,1.79s-1.61.38-2.14-.34a2.6,2.6,0,0,1,0-2.55c.36-.82,2.45-1.75,3.17-.93a8,8,0,0,0,.88.82c-.86-.29-2-.65-2.56-.15-.74.7,0,2.09.63,2.18s1.26-1.23,2.38-.95h0l.05,0A1,1,0,0,1,160.88,157.41Z"/>
        </g>
        <g>
          <path class="cls-25" d="M199.11,157.72c.86-.14,1.44-.26,1.63-.3h0l.21-.08h0c1.12-.28,1.78,1.05,2.38.95s1.37-1.49.63-2.18c-.53-.51-1.7-.14-2.56.15A11.14,11.14,0,0,1,199.11,157.72Z"/>
          <path class="cls-26" d="M200.91,157.44c.64-.07,1.13.68,2.45,1.79s1.61.38,2.14-.34a2.6,2.6,0,0,0,0-2.55c-.36-.82-2.45-1.76-3.17-.94a7.14,7.14,0,0,1-.88.83c.86-.29,2-.66,2.56-.15.74.69,0,2.09-.63,2.18s-1.26-1.23-2.38-.95h0Z"/>
        </g>
        <path class="cls-27" d="M199.61,157.88c-3.9,1.86-10.06,4.05-16.24,3.81-8.58-.33-15.33-1.43-20.69-3.8,5.14,1.68,11.81,2.41,20.54,2.63h.88A52.56,52.56,0,0,0,199.61,157.88Z"/>
        <path class="cls-28" d="M168.74,160.5s12.46,9.94,24.25,0C193.06,160.44,181.27,167.1,168.74,160.5Z"/>
      </g>
      <g>
        <g>
          <path class="cls-29" d="M141.09,253.1a5.17,5.17,0,0,0-5.05-1,5.66,5.66,0,0,0-2.54,1.53,5.76,5.76,0,0,0-3,.08,4.82,4.82,0,0,0-3.61,3.65,3.28,3.28,0,0,1-.81-1.32c-.65-2.06.91-4.34,3.5-5.09a5.75,5.75,0,0,1,3-.08,5.6,5.6,0,0,1,2.54-1.53c2.58-.75,5.2.31,5.85,2.37A3.32,3.32,0,0,1,141.09,253.1Z"/>
          <path class="cls-29" d="M141.86,255.63a5.15,5.15,0,0,0-5-1,5.55,5.55,0,0,0-2.54,1.53,5.79,5.79,0,0,0-3,.08,4.84,4.84,0,0,0-3.61,3.65,3.28,3.28,0,0,1-.81-1.32c-.65-2.06.92-4.34,3.5-5.09a5.79,5.79,0,0,1,3-.08,5.57,5.57,0,0,1,2.53-1.53c2.59-.75,5.21.31,5.86,2.37A3.17,3.17,0,0,1,141.86,255.63Z"/>
        </g>
        <g>
          <path class="cls-29" d="M144.94,267.65a5.15,5.15,0,0,0-5-1,5.62,5.62,0,0,0-2.54,1.52,5.91,5.91,0,0,0-3,.09,4.82,4.82,0,0,0-3.61,3.65,3.25,3.25,0,0,1-.81-1.33c-.65-2.05.91-4.33,3.5-5.08a5.91,5.91,0,0,1,3-.09,5.64,5.64,0,0,1,2.53-1.52c2.59-.75,5.21.31,5.86,2.37A3.17,3.17,0,0,1,144.94,267.65Z"/>
          <path class="cls-29" d="M145.71,270.18a5.12,5.12,0,0,0-5-1,5.59,5.59,0,0,0-2.54,1.52,5.87,5.87,0,0,0-3,.09,4.82,4.82,0,0,0-3.61,3.65,3.05,3.05,0,0,1-.81-1.33c-.66-2.06.91-4.33,3.49-5.08a5.91,5.91,0,0,1,3-.09,5.62,5.62,0,0,1,2.54-1.52c2.58-.75,5.2.31,5.85,2.37A3.17,3.17,0,0,1,145.71,270.18Z"/>
        </g>
      </g>
      <g>
        <g>
          <path class="cls-29" d="M212.09,255a5.15,5.15,0,0,1,5-1,5.55,5.55,0,0,1,2.54,1.53,5.79,5.79,0,0,1,3,.08,4.84,4.84,0,0,1,3.61,3.65,3.28,3.28,0,0,0,.81-1.32c.65-2.06-.92-4.34-3.5-5.09a5.79,5.79,0,0,0-3-.08,5.57,5.57,0,0,0-2.53-1.53c-2.59-.75-5.21.31-5.86,2.37A3.17,3.17,0,0,0,212.09,255Z"/>
          <path class="cls-29" d="M211.31,257.51a5.17,5.17,0,0,1,5.05-1A5.66,5.66,0,0,1,218.9,258a5.76,5.76,0,0,1,3,.08,4.82,4.82,0,0,1,3.61,3.65,3.25,3.25,0,0,0,.81-1.33c.65-2-.91-4.33-3.5-5.08a5.75,5.75,0,0,0-3-.08,5.55,5.55,0,0,0-2.54-1.53c-2.58-.75-5.2.31-5.85,2.37A3.32,3.32,0,0,0,211.31,257.51Z"/>
        </g>
        <g>
          <path class="cls-29" d="M208.24,269.53a5.12,5.12,0,0,1,5-1,5.59,5.59,0,0,1,2.54,1.52,6,6,0,0,1,3,.08,4.85,4.85,0,0,1,3.61,3.66,3.05,3.05,0,0,0,.81-1.33c.66-2.06-.91-4.33-3.49-5.08a5.91,5.91,0,0,0-3-.09,5.54,5.54,0,0,0-2.54-1.52c-2.58-.75-5.2.31-5.85,2.37A3.16,3.16,0,0,0,208.24,269.53Z"/>
          <path class="cls-29" d="M207.46,272.06a5.13,5.13,0,0,1,5-1,5.54,5.54,0,0,1,2.54,1.52,5.9,5.9,0,0,1,3,.08,4.84,4.84,0,0,1,3.61,3.66,3.25,3.25,0,0,0,.81-1.33c.65-2.06-.91-4.33-3.5-5.08a5.87,5.87,0,0,0-3-.09,5.64,5.64,0,0,0-2.54-1.52c-2.58-.75-5.21.31-5.86,2.37A3.16,3.16,0,0,0,207.46,272.06Z"/>
        </g>
      </g>
    </g>
  </g>
</svg>
