<svg id="Layer_1" data-name="Layer 1" xmlns="http://www.w3.org/2000/svg" width="219.84" height="234.86" viewBox="0 0 219.84 234.86">
  <defs>
    <style>
      .cls-1, .cls-10, .cls-11, .cls-12, .cls-13, .cls-15, .cls-16, .cls-17, .cls-18, .cls-19, .cls-2, .cls-20, .cls-21, .cls-23, .cls-24, .cls-25, .cls-26, .cls-27, .cls-28, .cls-29, .cls-30, .cls-31, .cls-32, .cls-4, .cls-5, .cls-6, .cls-7, .cls-8, .cls-9 {
        fill-rule: evenodd;
      }

      .cls-1 {
        opacity: 0.5;
      }

      .cls-2 {
        fill: #fff;
      }

      .cls-3 {
        opacity: 0.2;
      }

      .cls-4 {
        fill: #21110e;
      }

      .cls-5 {
        fill: #ff6a14;
      }

      .cls-6 {
        fill: #eb4600;
      }

      .cls-7 {
        fill: #f54f08;
      }

      .cls-8 {
        fill: #d64000;
      }

      .cls-9 {
        fill: #e02d00;
      }

      .cls-10, .cls-12, .cls-14 {
        fill: #ce7432;
      }

      .cls-11 {
        fill: #bc652a;
      }

      .cls-12, .cls-20 {
        stroke: #472411;
        stroke-miterlimit: 10;
      }

      .cls-13 {
        fill: #a63200;
      }

      .cls-15 {
        fill: #d88145;
      }

      .cls-16 {
        fill: #d46e1a;
      }

      .cls-17 {
        fill: #852d08;
      }

      .cls-18 {
        fill: #a14310;
      }

      .cls-19 {
        fill: #993d0c;
      }

      .cls-20 {
        fill: #ba5d11;
      }

      .cls-21 {
        fill: #913109;
      }

      .cls-22 {
        fill: #9e240b;
      }

      .cls-23 {
        fill: #331c17;
      }

      .cls-24 {
        fill: #241512;
      }

      .cls-25 {
        fill: #331d18;
      }

      .cls-26 {
        fill: #a3541f;
      }

      .cls-27 {
        fill: #54190a;
      }

      .cls-28 {
        fill: #d96b11;
      }

      .cls-29 {
        fill: #c42100;
      }

      .cls-30 {
        fill: #6b4913;
      }

      .cls-31 {
        fill: #8f3a15;
      }

      .cls-32 {
        fill: #942c00;
      }
    </style>
  </defs>
  <g>
    <path class="cls-1" d="M112.42,229.16c-25.86,0-50.25-.81-68.68-2.29a215.87,215.87,0,0,1-21.51-2.57c-4.93-.93-14.1-2.66-14.1-10.86,0-7.78,8.7-9.7,12-10.43,2.31-.51,5.18-1,8.59-1.45-.29-5.15.4-8.42,2.16-10.87,1.11-1.73,2.59-4,3.94-6.17a9,9,0,0,1,.06-1A10,10,0,0,1,38,177.44a9,9,0,0,1,.71-1.29A8.74,8.74,0,0,1,41,171a8.41,8.41,0,0,1,.55-1.23A8.59,8.59,0,0,1,42.83,168c2.05-5.15,4.63-11.44,6.72-15.91.41-.92.83-1.78,1.29-2.64a19.78,19.78,0,0,1,3-4.59l.06-.06a16.46,16.46,0,0,1,1.93-2,23.87,23.87,0,0,0,3.52-4.25c.17-.55.84-3.27,1.44-5.67,2.69-10.93,5.53-22,8.2-28.46,0-1.19,0-2.87,0-5,.08-9.05,6.39-12.3,9.09-13.69.43-.22,1-.52,1.3-.71,0,0,6.45-29.23,6.45-29.23-.14-1-.25-1.9-.33-2.79-.56-6.68,3-12.09,6.2-15.53a8.59,8.59,0,0,1,1.2-2.54,11.61,11.61,0,0,1,3.44-6.4,14.91,14.91,0,0,1,8-8.26,11.65,11.65,0,0,1,5.15-4.48c.1-.24.2-.47.32-.7A8,8,0,0,1,117,10.7a8.18,8.18,0,0,1,2.38.36c6.2,1.94,8.14,5.59,8.67,8.32A9.3,9.3,0,0,1,128,23a14.68,14.68,0,0,1,3.84,5.83,11.68,11.68,0,0,1,2.9,5.19,8.78,8.78,0,0,1,2.05,4.28c2.94,3.44,5.9,8.5,5.38,14.61,0,.64-.13,1.3-.22,2,0,0,6.61,30,6.61,30,.3.2.87.49,1.31.72,2.7,1.39,9,4.64,9.09,13.68,0,2.06,0,3.7,0,4.86,2.71,6.39,5.6,17.68,8.35,28.81.59,2.4,1.26,5.12,1.46,5.74a25.32,25.32,0,0,0,3.5,4.18,16.69,16.69,0,0,1,1.93,2.05l.06.06a20,20,0,0,1,3,4.59c.45.85.87,1.72,1.28,2.63,2.09,4.47,4.67,10.76,6.73,15.92a8.8,8.8,0,0,1,1.29,1.78,9,9,0,0,1,.54,1.24,8.63,8.63,0,0,1,2.31,5.16,8.6,8.6,0,0,1,.66,1.19,9.85,9.85,0,0,1,3.26,6.36c0,.32,0,.63,0,1,1.33,2.1,2.77,4.35,3.86,6,1.79,2.5,2.47,5.85,2.14,11.14,2.5.39,4.65.8,6.41,1.23,2.71.66,11,2.66,11,10.19,0,8.2-9.17,9.93-14.1,10.86a215.76,215.76,0,0,1-21.52,2.57C162.66,228.35,138.27,229.16,112.42,229.16Z"/>
    <path class="cls-2" d="M107.42,224.16c-25.86,0-50.25-.81-68.68-2.29a215.87,215.87,0,0,1-21.51-2.57c-4.93-.93-14.1-2.66-14.1-10.86,0-7.78,8.7-9.7,12-10.43,2.31-.51,5.18-1,8.59-1.45-.29-5.15.4-8.42,2.16-10.87,1.11-1.73,2.59-4,3.94-6.17a9,9,0,0,1,.06-1A10,10,0,0,1,33,172.44a9,9,0,0,1,.71-1.29A8.74,8.74,0,0,1,36,166a8.41,8.41,0,0,1,.55-1.23A8.59,8.59,0,0,1,37.83,163c2.05-5.15,4.63-11.44,6.72-15.91.41-.92.83-1.78,1.29-2.64a19.78,19.78,0,0,1,3-4.59l.06-.06a16.46,16.46,0,0,1,1.93-2,23.87,23.87,0,0,0,3.52-4.25c.17-.55.84-3.27,1.44-5.67,2.69-10.93,5.53-22,8.2-28.46,0-1.19,0-2.87,0-5,.08-9.05,6.39-12.3,9.09-13.69.43-.22,1-.52,1.3-.71,0,0,6.45-29.23,6.45-29.23-.14-1-.25-1.9-.33-2.79-.56-6.68,3-12.09,6.2-15.53a8.59,8.59,0,0,1,1.2-2.54,11.61,11.61,0,0,1,3.44-6.4,14.91,14.91,0,0,1,8-8.26,11.65,11.65,0,0,1,5.15-4.48c.1-.24.2-.47.32-.7A8,8,0,0,1,112,5.7a8.18,8.18,0,0,1,2.38.36c6.2,1.94,8.14,5.59,8.67,8.32A9.3,9.3,0,0,1,123,18a14.68,14.68,0,0,1,3.84,5.83,11.68,11.68,0,0,1,2.9,5.19,8.78,8.78,0,0,1,2.05,4.28c2.94,3.44,5.9,8.5,5.38,14.61,0,.64-.13,1.3-.22,2,0,0,6.61,30,6.61,30,.3.2.87.49,1.31.72,2.7,1.39,9,4.64,9.09,13.68,0,2.06,0,3.7,0,4.86,2.71,6.39,5.6,17.68,8.35,28.81.59,2.4,1.26,5.12,1.46,5.74a25.32,25.32,0,0,0,3.5,4.18,16.69,16.69,0,0,1,1.93,2.05l.06.06a20,20,0,0,1,3,4.59c.45.85.87,1.72,1.28,2.63,2.09,4.47,4.67,10.76,6.73,15.92a8.8,8.8,0,0,1,1.29,1.78,9,9,0,0,1,.54,1.24,8.63,8.63,0,0,1,2.31,5.16,8.6,8.6,0,0,1,.66,1.19,9.85,9.85,0,0,1,3.26,6.36c0,.32,0,.63,0,1,1.33,2.1,2.77,4.35,3.86,6,1.79,2.5,2.47,5.85,2.14,11.14,2.5.39,4.65.8,6.41,1.23,2.71.66,11,2.66,11,10.19,0,8.2-9.17,9.93-14.1,10.86a215.76,215.76,0,0,1-21.52,2.57C157.66,223.35,133.27,224.16,107.42,224.16Z"/>
    <g>
      <g class="cls-3">
        <ellipse cx="107.42" cy="208.44" rx="96.29" ry="7.72"/>
      </g>
      <path class="cls-4" d="M124.83,44.93l3.68,4,7.22,32.7c1.73,7.84,10.15,4.68,10.22,12.81,0,4.2,0,6.62,0,6.62H109.51v0H72s0-2.42,0-6.62c.07-8.12,8.49-5,10.22-12.81l7.21-32.7,3.68-4,15.81,4.88Z"/>
      <path class="cls-5" d="M87.88,150.37S79,151.83,79,155.72a21.87,21.87,0,0,0,.51,5.59s-10.66,2.43-12.44,3.16-2.79,4.62-2.79,4.62S42.46,176.62,39.41,181s-3,15.56,2,20.42,51.77,12.15,54.82,11.67,16.49-.49,16.49-.49v0c4,0,8.67.17,10.32.44,3,.48,49.74-6.81,54.81-11.67s4.5-16,1.46-20.38S155,169,155,169s-1-3.89-2.79-4.62-12.43-3.16-12.43-3.16a22.29,22.29,0,0,0,.5-5.59c0-3.89-8.88-5.35-8.88-5.35l-21.94,5Z"/>
      <path class="cls-6" d="M105.7,193.15s29.09,9.27,38.62,10.55,12.48-1.67,12.1-3.34-6-6.7-3.09-6.83,11.33,4.9,12.36,4-.13-5.15,1.15-4,3.09,4.51,3.74,3.61-1.88-11.6-1.88-11.6l6.93,2.56-.3,16.13s-38.07,7.12-47.34,8.41S93,200.87,105.7,193.15Z"/>
      <path class="cls-7" d="M87.84,166.61q16.11,13.66,15.57,2.62a12.4,12.4,0,0,1-9.66-3.09q-12-11.46-11.46-10.17-3.37-.67-2.78,5.34Q38.35,180.84,40.33,187.9q-1.81,16,19.57,16.74a22.56,22.56,0,0,1-3.35-14.42Q61.47,208,79,208.76q-5.28-12.84,3.86-9.79,19.27,12.28,35.59,12.47-28.93-12.66-31.26-24.7Q85.07,172.9,87.84,166.61Z"/>
      <path class="cls-8" d="M63.85,192.38s-1.41-5-.12-7.73-10.43-1.29-10.43-1.29,26-20,26.52-18.15,2.06,6.18,3.22,5.15a6.22,6.22,0,0,0,1.54-3L86.51,175s-1.8,9.38-2.06,13.12,3,8.75,3,8.75S81,192,75.83,190.06,63.85,192.38,63.85,192.38Z"/>
      <path class="cls-9" d="M86.51,175q-3.33-16,10.55-1.55Q85.21,164.53,86.51,175Z"/>
      <path class="cls-10" d="M70.05,181.84Q78.77,189,92.89,186q2.53-13.77-8.44-12.35-8.3-.58-11.92-6.57c-12.45-5.17-16.12-3-14.87,1.25-2,6.66-2.3,8.28.72,8.45A30.27,30.27,0,0,1,70.05,181.84Z"/>
      <path class="cls-10" d="M74.8,110.48s.25,10.31,4.71,17.18,4.95,11.38,4.95,14v12.45s9.66,7.95,12.89,10.09c1.36.91,4.3,1.32,7.26,1.49v0s1.6.08,3.79.09h.22c2.34,0,4.09-.09,4.09-.09v0c3-.17,5.9-.58,7.26-1.49,3.22-2.14,12.88-10.09,12.88-10.09V141.61c0-2.57.5-7.08,5-14s4.71-17.18,4.71-17.18c2.47-19.32-16.11-18.89-22.05-18.89s-5-10.73-5-10.73h-13.7s1,10.73-5,10.73S72.32,91.16,74.8,110.48Z"/>
      <path class="cls-11" d="M110.6,129.47q-.36,7.25,18,4.5,5.55-.51,8-8.47c.39.58.8,1.21,1.22,1.87a38.39,38.39,0,0,0-2.68,4.74c-2.42,5.23-14.55,5.32-21.88,3.4-4.06-1.07-4.07-6.43-3.38-15.28Z"/>
      <path class="cls-12" d="M80.52,126.71s-6.38,9.39-8,16.18a43.73,43.73,0,0,1-6.88,14.75c-1.89,2.81-15.14,16.94-17.85,19.82Q52.54,187.78,44,191q.31,13.92-2.82,14.66c-.73,1.74-1.71,1.94-3,.59-1,1.65-2,1.81-3,.5-1.8-.06-2.62-.88-2.45-2.45q-2-11.82-.29-14,7.14-11,8.72-13.79s10.6-28,13.5-31.18,6.17-6.16,7.2-9.16S69.21,103.9,73,99.2s6.53-5.48,9.48-6,3.22-.52,3.22-.52"/>
      <path class="cls-13" d="M42.83,179l1.67,1.26a9.26,9.26,0,0,1-2.6,9.19l-.11,1.7L41,204.92l-.65-12.13-1.73,0-.41,13.46s-1.58-13.6-1.14-13.66,0,.66-.58.69-.92,13.5-1.32,13.47.65-14.08.16-15.43-2.05-.38-2.32-.52,2.37-1.4,2.89-.88l.53.52L41.33,189s3.68-3.23,3.39-4.39S42.83,179,42.83,179Z"/>
      <path class="cls-13" d="M40.31,179.07c3.08-2,9.24,4.44,1.59,10.4.11,3.18,1.64,11-3,10.22-1.49.09-3.4-4-2.94-8.54-1.81-2.31-2.84-1.15-2.84-1.15C35.9,185.54,40.31,179.07,40.31,179.07Z"/>
      <path class="cls-12" d="M136.77,126.12s7.16,10.18,8.76,17a43.92,43.92,0,0,0,6.88,14.75c1.89,2.81,15.15,16.94,17.86,19.82q-4.74,10.33,3.8,13.51-.33,13.92,2.81,14.67c.73,1.73,1.72,1.93,3,.58q1.5,2.47,3,.51,2.72-.1,2.46-2.46,2-11.82.29-14-7.14-11-8.72-13.8s-10.61-28-13.51-31.18-6.16-6.16-7.2-9.16S148.85,104.09,145,99.4s-6.53-5.48-9.49-6-3.21-.53-3.21-.53"/>
      <ellipse class="cls-14" cx="107.36" cy="104.45" rx="29.62" ry="11.09"/>
      <path class="cls-11" d="M107.28,129.65q.36,7.24-18.25,4.5-5.64-.51-8.16-8.47c-.39.58-.81,1.21-1.24,1.87a36.64,36.64,0,0,1,2.72,4.74c2.46,5.23,14.79,5.32,22.23,3.4,4.13-1.07,4.14-6.43,3.44-15.28Z"/>
      <path class="cls-11" d="M82.86,133.28a212.08,212.08,0,0,1-2.23-23.64c.13,8.44-.12,12.36-1,17.82C81.54,130.86,82.76,133,82.86,133.28Z"/>
      <path class="cls-9" d="M85.23,186.88Q86.07,201,123.07,213q-36.67-14.65-34-26.42Z"/>
      <path class="cls-15" d="M108.4,165.48Zm4.31-.1c3-.17,5.9-.58,7.26-1.49.67-.45,1.62-1.15,2.71-2a24,24,0,0,0,.58-5.3,24.77,24.77,0,0,0-.43-4.61c-1.56-8.08-7.12-14.06-13.73-14.06S97,143.84,95.41,151.83a24.46,24.46,0,0,0,.31,10.9c.63.47,1.19.87,1.63,1.16,1.36.91,4.3,1.32,7.26,1.49h0s1.6.09,3.79.09h.22c2.34,0,4.09-.09,4.09-.09Z"/>
      <path class="cls-15" d="M40.23,178c3-1.86,8.5,5.33,1.1,10.93.69,6.61.67,9.91-2.67,9.42-1.44.08-2.42-4.23-2.22-8-1.75-2.18-4-.17-4-.17C35.15,186.05,40.23,178,40.23,178Z"/>
      <path class="cls-16" d="M37.41,194.79l.35,2.31a2.9,2.9,0,0,0,2,.36c1-.26,1.22-.49,1.22-.49l-.26-2.52S38.63,193.59,37.41,194.79Z"/>
      <path class="cls-15" d="M46.35,174.28s15.32-19.56,16-25-6-5.75-6-5.75-2.05,1.44-4.44,6.81-10.67,26.08-10.67,26.08S44.05,179.47,46.35,174.28Z"/>
      <path class="cls-17" d="M38.54,180.78c-1-2,5.27-2.31,7.55-2.09a3,3,0,0,1,2.78,1.77,1.44,1.44,0,0,0,.5-1.44c-.25-.84-.75-2.23-6.55-2S37.27,180.24,38.54,180.78Z"/>
      <path class="cls-18" d="M41.08,176.7a.75.75,0,1,0,0-1.48.75.75,0,1,0,0,1.48Z"/>
      <path class="cls-18" d="M42.78,176.37a.89.89,0,1,0-1-.88A.94.94,0,0,0,42.78,176.37Z"/>
      <path class="cls-18" d="M44.83,176.29a.89.89,0,1,0-1-.88A.94.94,0,0,0,44.83,176.29Z"/>
      <path class="cls-18" d="M46.86,176.46a.89.89,0,1,0-1-.89A.94.94,0,0,0,46.86,176.46Z"/>
      <path class="cls-18" d="M48.66,177.13a.89.89,0,1,0-1-.88A.94.94,0,0,0,48.66,177.13Z"/>
      <path class="cls-19" d="M42.81,171.27a.93.93,0,0,1,.58.55.43.43,0,0,0,0,0,1,1,0,0,1,1.3-.49.93.93,0,0,1,.66,1.17,1,1,0,0,1-1.3.49,1,1,0,0,1-.68-.68h0a.85.85,0,0,1-1.11.4.79.79,0,0,1-.57-1,.86.86,0,0,1,1.11-.41ZM50.24,174a1.14,1.14,0,0,0-1,.1.77.77,0,0,0,.1-.18.93.93,0,0,0-.66-1.17,1,1,0,0,0-1.3.49.94.94,0,0,0,.66,1.17,1.11,1.11,0,0,0,1-.1.81.81,0,0,0-.1.18.94.94,0,0,0,.66,1.18,1,1,0,0,0,1.29-.49.94.94,0,0,0-.65-1.18Zm-3.48-2.1a1,1,0,0,0-1.3.49.93.93,0,0,0,.66,1.17,1,1,0,0,0,1.3-.49A.94.94,0,0,0,46.76,171.91Z"/>
      <path class="cls-19" d="M44.73,168.3a.92.92,0,0,1,.5.62l0,0a1,1,0,0,1,1.35-.32.94.94,0,0,1,.5,1.25,1,1,0,0,1-1.35.32,1.05,1.05,0,0,1-.59-.77h0a.85.85,0,0,1-1.15.26.79.79,0,0,1-.44-1.05.85.85,0,0,1,1.15-.26Zm7,3.67a1.13,1.13,0,0,0-1,0,1.09,1.09,0,0,0,.13-.17,1,1,0,0,0-.51-1.25,1,1,0,0,0-1.35.32.94.94,0,0,0,.5,1.25,1.16,1.16,0,0,0,1,0l-.12.16a.94.94,0,0,0,.51,1.25,1,1,0,0,0,1.35-.32,1,1,0,0,0-.51-1.25Zm-3.18-2.53a1,1,0,0,0-1.35.32.94.94,0,0,0,.51,1.25,1,1,0,0,0,1.35-.32A.94.94,0,0,0,48.56,169.44Z"/>
      <path class="cls-20" d="M90.77,61.16,128,60.84a2.15,2.15,0,0,1,2.23,2.23l-.71,6.74A2.32,2.32,0,0,1,127.24,72H91.41a2.32,2.32,0,0,1-2.23-2.23l-.64-6.42A2.16,2.16,0,0,1,90.77,61.16Z"/>
      <path class="cls-21" d="M105.27,134.7a1.1,1.1,0,0,1-.34-1.12l-.07.06a2,2,0,0,1-2.43-.16,1.28,1.28,0,0,1,.15-2,2,2,0,0,1,2.43.16,1.29,1.29,0,0,1,.36,1.37h0a1.67,1.67,0,0,1,2.06.16,1.17,1.17,0,0,1,.38.92,1.83,1.83,0,0,1,1.13-.38,1.42,1.42,0,1,1-1.65,1.41.75.75,0,0,1,0-.21,1.69,1.69,0,0,1-2-.18Zm7.61,0a1.11,1.11,0,0,0,.34-1.12l.07.06a2,2,0,0,0,2.44-.16,1.28,1.28,0,0,0-.16-2,2,2,0,0,0-2.43.16,1.27,1.27,0,0,0-.35,1.37h0a1.67,1.67,0,0,0-2.06.16,1.08,1.08,0,0,0,.1,1.72,1.67,1.67,0,0,0,2.06-.16Zm10.54-11.84a1.51,1.51,0,0,0-.8-1.26,1.64,1.64,0,0,0,.38,0,1.55,1.55,0,0,0,1.64-1.48,1.61,1.61,0,0,0-1.69-1.49,1.54,1.54,0,0,0-1.63,1.49,1.47,1.47,0,0,0,.79,1.25,2.33,2.33,0,0,0-.38,0,1.56,1.56,0,0,0-1.64,1.49,1.44,1.44,0,0,0,.47,1,2,2,0,0,0-1.76.46,1.27,1.27,0,0,0,.15,2,1.32,1.32,0,0,0,.33.18,2,2,0,0,0-1.56.49,1.27,1.27,0,0,0,.15,2,2,2,0,0,0,2.43-.16,1.28,1.28,0,0,0-.15-2,2.68,2.68,0,0,0-.33-.18,1.92,1.92,0,0,0,1.56-.49,1.26,1.26,0,0,0,0-1.89,2.45,2.45,0,0,0,.39,0,1.56,1.56,0,0,0,1.64-1.49Zm1.47-5.75c0-2-3.36-1.95-3.32,0a1.61,1.61,0,0,0,1.68,1.49,1.56,1.56,0,0,0,1.64-1.49Zm-6.69,14.19a2,2,0,0,1-2.43.16,1.27,1.27,0,0,1-.15-2,2,2,0,0,1,2.43-.16,1.27,1.27,0,0,1,.15,2Zm-23.46-8.4a1.47,1.47,0,0,1,.79-1.25,2.34,2.34,0,0,1-.38,0,1.55,1.55,0,0,1-1.64-1.48,1.62,1.62,0,0,1,1.69-1.49,1.56,1.56,0,0,1,1.64,1.49,1.48,1.48,0,0,1-.8,1.25,2.45,2.45,0,0,1,.38,0,1.56,1.56,0,0,1,1.64,1.49,1.44,1.44,0,0,1-.47,1,1.94,1.94,0,0,1,1.76.46,1.27,1.27,0,0,1-.15,2,2.07,2.07,0,0,1-.32.19,2,2,0,0,1,1.56.48,1.28,1.28,0,0,1-.15,2,2,2,0,0,1-2.44-.16,1.27,1.27,0,0,1,.16-2,1.5,1.5,0,0,1,.32-.19,1.92,1.92,0,0,1-1.56-.49,1.26,1.26,0,0,1,0-1.89,2.34,2.34,0,0,1-.39,0,1.54,1.54,0,0,1-1.63-1.49Zm-1.48-5.75c0-2,3.36-2,3.33,0a1.62,1.62,0,0,1-1.69,1.49,1.56,1.56,0,0,1-1.64-1.49ZM100,131.3a2,2,0,0,0,2.43.16,1.27,1.27,0,0,0,.15-2,2,2,0,0,0-2.43-.16A1.27,1.27,0,0,0,100,131.3Z"/>
      <path class="cls-21" d="M93.4,114.34a1.66,1.66,0,0,1,1.39-1.88,1.61,1.61,0,0,1,1.84,1.38,1.66,1.66,0,0,1-1.39,1.88A1.61,1.61,0,0,1,93.4,114.34Z"/>
      <path class="cls-21" d="M94.34,108.2a1.44,1.44,0,0,0,.76,1.07H95a1.67,1.67,0,0,0-1.38,1.89,1.61,1.61,0,0,0,1.84,1.38,1.68,1.68,0,0,0,1.39-1.89,1.63,1.63,0,0,0-1-1.27h0a1.41,1.41,0,0,0,1.16-1.61,1.36,1.36,0,0,0-1.55-1.19A1.41,1.41,0,0,0,94.34,108.2Z"/>
      <path class="cls-21" d="M96.11,103a1.28,1.28,0,0,0,.6,1h-.09a1.51,1.51,0,0,0-1.41,1.59,1.47,1.47,0,0,0,1.56,1.4,1.53,1.53,0,0,0,1.41-1.6,1.46,1.46,0,0,0-.77-1.22h0a1.31,1.31,0,0,0,1.18-1.37,1.25,1.25,0,0,0-1.31-1.21A1.3,1.3,0,0,0,96.11,103Z"/>
      <path class="cls-21" d="M122.46,103a1.27,1.27,0,0,1-.58,1H122a1.53,1.53,0,0,1,1.47,1.57,1.48,1.48,0,0,1-1.54,1.45,1.53,1.53,0,0,1-1.46-1.57,1.49,1.49,0,0,1,.74-1.26h0a1.3,1.3,0,0,1-1.23-1.35,1.25,1.25,0,0,1,1.29-1.25A1.29,1.29,0,0,1,122.46,103Z"/>
      <path class="cls-22" d="M109.53,148.54c-5,0-9.66-4.66-13.13-13.12-3.42-8.31-5.3-19.32-5.3-31s1.88-22.7,5.3-31,8.14-13.12,13.13-13.12S119.2,65,122.67,73.41s5.3,19.32,5.3,31-1.88,22.69-5.3,31C119.2,143.88,114.53,148.54,109.53,148.54Zm0-87.22c-4.55,0-8.88,4.43-12.19,12.48s-5.22,19.06-5.22,30.62S94,126.84,97.34,135c3.31,8,7.64,12.48,12.19,12.48s8.89-4.44,12.2-12.48c3.37-8.2,5.22-19.07,5.22-30.62S125.1,82,121.73,73.8,114.09,61.32,109.53,61.32Z"/>
      <path class="cls-23" d="M128,58l.13,19.75s.07,11.51-3.55,19c-3.51,7.23-14.23,19.4-14.91,20.18V117s-11.48-12.75-15.2-20.22-3.8-19-3.8-19l-.13-19.75,20,1.25Z"/>
      <path class="cls-24" d="M110.43,35H95.7s-7.82,5.47-7.25,12.23,3.6,15.4,3.6,15.4l16.08.94v.08l.7,0,.69,0v-.08l16.07-.94s3-8.63,3.6-15.39S121.94,35,121.94,35Z"/>
      <path class="cls-12" d="M105.6,41.49l3.54,1.88,3.77-1.88c6.25-3.11,12.78,5.57,12.78,12.37V68a12.61,12.61,0,0,1-12.78,12.37H105.6A12.61,12.61,0,0,1,92.82,68V53.86C92.82,47.06,99.44,38.22,105.6,41.49Z"/>
      <path class="cls-15" d="M106.31,41.49,109,43.37l2.9-1.88c4.81-3.11,9.83,5.57,9.83,12.37V68c0,6.81-4.42,12.37-9.83,12.37h-5.63c-5.41,0-9.83-5.56-9.83-12.37V53.86C96.48,47.06,101.57,38.22,106.31,41.49Z"/>
      <path class="cls-11" d="M97.09,63.55c.5-2,2.29-2.74,5.38-2.17a3.23,3.23,0,0,1,2.61,2.86c1.77-1.29,2.68-3.56,2.72-6.79a33,33,0,0,0-12.66,1.64A5.9,5.9,0,0,0,97.09,63.55Z"/>
      <path class="cls-10" d="M109,85.27c4.27,0,7.76-2.32,7.76-5.16S113.26,75,109,75s-7.75,2.32-7.75,5.16S104.72,85.27,109,85.27Z"/>
      <path class="cls-24" d="M99.4,28.24h19a3.72,3.72,0,0,1,3.7,3.7v3.7H95.7v-3.7A3.72,3.72,0,0,1,99.4,28.24Z"/>
      <path class="cls-24" d="M105.1,22.06h7.81a6.81,6.81,0,0,1,6.79,6.79v6.79H98.31V28.85A6.81,6.81,0,0,1,105.1,22.06Z"/>
      <path class="cls-25" d="M118,29.13a3.43,3.43,0,0,1,2,3.09v3.42H98.32V32.22a3.43,3.43,0,0,1,2.14-3.17,6.29,6.29,0,0,1,6.27-6h5A6.3,6.3,0,0,1,118,29.13Z"/>
      <path class="cls-10" d="M107.78,71.83l-3.71-.14q-.72-2.39,1.85-3.33c.79-2.21,2.62-4,3-4s2.21,1.8,3,4q2.58.95,1.86,3.33l-3.72.14h-1.13v0A8.77,8.77,0,0,0,107.78,71.83Z"/>
      <path class="cls-11" d="M104.46,69.27a2.38,2.38,0,0,0-.39,2.42h9.7a2.6,2.6,0,0,0-.26-2.27c.14.73-.71,1-2.56.67a3.35,3.35,0,0,1-4,.09Q104.84,70.39,104.46,69.27Z"/>
      <path class="cls-26" d="M104.78,71.73l3,.1Q106.51,69.73,104.78,71.73Z"/>
      <path class="cls-23" d="M109,80.36h0A2.69,2.69,0,0,1,111.67,83V86.6A2.69,2.69,0,0,1,109,89.28h0a2.7,2.7,0,0,1-2.69-2.68V83A2.7,2.7,0,0,1,109,80.36Z"/>
      <path class="cls-26" d="M113.05,71.72l-3,.1C110.91,70.42,111.9,70.39,113.05,71.72Z"/>
      <path class="cls-4" d="M96.48,60.57a1.24,1.24,0,0,1-1.37-1.09,1.22,1.22,0,0,1,1.13-1.32.92.92,0,0,0,.65-.47,2.61,2.61,0,0,1,1.8-1.28,18,18,0,0,1,4.65.19c.76.08,1.48.17,2,.2a1.25,1.25,0,0,1,1.19-.78,1.22,1.22,0,0,1,1.24,1.23,1.87,1.87,0,0,1-.66,1.55,1.92,1.92,0,0,1-1.33.42A24.2,24.2,0,0,1,103,59a18.14,18.14,0,0,0-3.86-.22s-.1.14-.2.28A3,3,0,0,1,96.48,60.57Z"/>
      <path class="cls-11" d="M109,77.41h-3.74a1.92,1.92,0,0,1-1.82-1.27l-.08.06a2.94,2.94,0,0,0,1.2,2.15,3,3,0,0,0,.54.33,3.18,3.18,0,0,0,1.35.3h5.18a3.07,3.07,0,0,0,1.32-.29,2.33,2.33,0,0,0,.57-.34,3,3,0,0,0,1.2-2.09l-.11-.07a1.91,1.91,0,0,1-1.8,1.22Z"/>
      <path class="cls-27" d="M97.6,64.22s-1.82-.17-1.83-.19c1.59-.06,1.55-.43,2.14-1.62,1.38-1.56,6.76-1.36,6.62,1.94a2.77,2.77,0,0,0-.39,0C103.81,62,98.61,61.21,97.6,64.22Z"/>
      <path class="cls-11" d="M101,62.63c1.74.21,2.71.94,2.92,2.19A6.7,6.7,0,0,0,98,64.5C98.22,63.32,99.21,62.69,101,62.63Z"/>
      <path class="cls-15" d="M108.79,69.92c.94,0,1.7-.28,1.7-.61s-.76-.61-1.7-.61-1.7.28-1.7.61S107.86,69.92,108.79,69.92Z"/>
      <path class="cls-15" d="M110.2,68.54c.22,0,.4-.13.4-.29s-.18-.29-.4-.29-.39.13-.39.29S110,68.54,110.2,68.54Z"/>
      <path class="cls-28" d="M109,76.77h-3.74a2.34,2.34,0,0,1-1.82-.63l-.08,0c.06.43.52.82,1.2,1.08l.54.16a6.27,6.27,0,0,0,1.35.15h5.18a5.5,5.5,0,0,0,1.32-.15,3.88,3.88,0,0,0,.57-.16,1.74,1.74,0,0,0,1.2-1l-.11,0a2.34,2.34,0,0,1-1.8.61Z"/>
      <path class="cls-4" d="M99.7,80.45a2.18,2.18,0,0,1-3,0,2.07,2.07,0,0,1-.29-2.95c3.33-3.66,2.45-6,10.29-5.94a2.38,2.38,0,0,1,2.15,1.48A2.4,2.4,0,0,1,111,71.59c7.84-.08,7,2.28,10.29,5.94a2.07,2.07,0,0,1-.29,3,2.17,2.17,0,0,1-3,0c-2.09-2.29-1.1-4.73-7.27-4.67a1.93,1.93,0,0,1-1.85-1.15A2,2,0,0,1,107,75.78C100.81,75.71,101.79,78.16,99.7,80.45Z"/>
      <path class="cls-29" d="M107.87,53.9a47.88,47.88,0,0,1,1.21-9.36,48,48,0,0,1,1.22,9.34C109.82,55.49,108.34,55.3,107.87,53.9Z"/>
      <path class="cls-11" d="M121.12,63.53q-.77-3-5.38-2.17a3.22,3.22,0,0,0-2.62,2.86c-1.77-1.3-2.67-3.56-2.72-6.8a33,33,0,0,1,12.67,1.65A6,6,0,0,1,121.12,63.53Z"/>
      <path class="cls-4" d="M122,58.14a1.21,1.21,0,1,1-.25,2.4A3,3,0,0,1,119.3,59a2,2,0,0,0-.23-.28,17.28,17.28,0,0,0-3.9.22,24.2,24.2,0,0,1-2.75.22,2,2,0,0,1-1.32-.41,1.89,1.89,0,0,1-.67-1.57A1.23,1.23,0,0,1,111.66,56a1.24,1.24,0,0,1,1.18.78c.53,0,1.26-.12,2-.21a19.06,19.06,0,0,1,4.66-.19,2.63,2.63,0,0,1,1.8,1.27A.93.93,0,0,0,122,58.14Z"/>
      <path class="cls-27" d="M120.61,64.2s1.81-.17,1.83-.19c-1.59-.07-1.56-.43-2.15-1.62-1.38-1.56-6.75-1.36-6.62,1.94a2.77,2.77,0,0,1,.39,0C114.39,61.93,119.6,61.19,120.61,64.2Z"/>
      <path class="cls-11" d="M117.21,62.6c-1.74.21-2.71.94-2.91,2.2a6.7,6.7,0,0,1,5.88-.32C120,63.3,119,62.67,117.21,62.6Z"/>
      <path class="cls-30" d="M95.14,34.05h28a.8.8,0,0,1,.8.8h0a.79.79,0,0,1-.8.79h-28a.79.79,0,0,1-.8-.79h0A.8.8,0,0,1,95.14,34.05Z"/>
      <path class="cls-24" d="M107.15,22.37h4.23q-3-2.62,2.39-4.1,3.54-2.91-1.82-4.57,3.58,2.72-3.66,4.11Q104.33,19.52,107.15,22.37Z"/>
      <path class="cls-21" d="M125,114.55a1.66,1.66,0,0,0-1.38-1.88,1.61,1.61,0,0,0-1.85,1.38,1.68,1.68,0,0,0,1.39,1.88A1.61,1.61,0,0,0,125,114.55Z"/>
      <path class="cls-21" d="M124.09,108.45a1.41,1.41,0,0,1-.76,1.07h.1a1.69,1.69,0,0,1,1.39,1.89A1.62,1.62,0,0,1,123,112.8a1.68,1.68,0,0,1-1.39-1.89,1.64,1.64,0,0,1,1-1.27h0a1.42,1.42,0,0,1-1.16-1.61,1.37,1.37,0,0,1,1.55-1.19A1.41,1.41,0,0,1,124.09,108.45Z"/>
      <path class="cls-31" d="M108,148.21a1.84,1.84,0,0,0,1.16,1.25l-.12,0a2.17,2.17,0,0,0-1.45,2.66,2.08,2.08,0,0,0,2.61,1.45,2.16,2.16,0,0,0,1.46-2.66,2.09,2.09,0,0,0-1.46-1.46h0a1.84,1.84,0,0,0,1.2-2.28,1.78,1.78,0,0,0-2.2-1.26A1.84,1.84,0,0,0,108,148.21Z"/>
      <path class="cls-17" d="M109.19,163.55c.5,0,.9-1,.9-2.25s-.4-2.25-.9-2.25-.9,1-.9,2.25S108.69,163.55,109.19,163.55Z"/>
      <path class="cls-11" d="M65.35,129.75s-1.29,4,.64,7.21,6.56.13,6.56.13l-4.76,8.23s.26-3.21-.9-4.69S62.38,139,62.38,139Z"/>
      <path class="cls-11" d="M59.74,168.69s2.26.48,3.35.82a22.49,22.49,0,0,1,7.4,4.2c3,2.58,5.8,6.44,8,7.47s14.87,1.18,14.87,1.18L92.89,186s-15.35,1-19.81-2.06-9.41-7.52-11.34-7.77-4.25-.52-4.44-1,1-1.55,1-1.55l-.42-2.12,1.41-.54A1.48,1.48,0,0,1,59.74,168.69Z"/>
      <path class="cls-10" d="M148,182q-8.73,7.17-22.84,4.15-2.54-13.77,8.44-12.35,8.3-.59,11.92-6.57c12.44-5.16,16.11-3,14.86,1.25,2,6.67,2.3,8.28-.71,8.45A30.27,30.27,0,0,0,148,182Z"/>
      <path class="cls-13" d="M175.24,179.22l-1.68,1.25a10.68,10.68,0,0,0,0,4.87,10.48,10.48,0,0,0,2.6,4.32l.11,1.7.77,13.76L177.7,193l1.74,0,.41,13.46s1.57-13.6,1.13-13.65,0,.65.59.68.91,13.51,1.31,13.48-.64-14.09-.16-15.44,2.06-.38,2.33-.52-2.38-1.4-2.9-.88l-.52.52-4.9-1.45s-3.67-3.24-3.38-4.4S175.24,179.22,175.24,179.22Z"/>
      <path class="cls-13" d="M177.76,179.26c-3.08-2-9.24,4.44-1.59,10.4-.11,3.18-1.65,11,3,10.22,1.49.09,3.41-4,2.95-8.53,1.8-2.31,2.83-1.16,2.83-1.16C182.17,185.73,177.76,179.26,177.76,179.26Z"/>
      <path class="cls-15" d="M177.84,178.21c-3-1.85-8.5,5.33-1.11,10.94-.69,6.6-.66,9.91,2.68,9.41,1.44.08,2.42-4.22,2.22-8,1.75-2.17,4-.16,4-.16C182.92,186.25,177.84,178.21,177.84,178.21Z"/>
      <path class="cls-16" d="M180.66,195l-.36,2.32a2.83,2.83,0,0,1-2,.35c-1-.26-1.22-.48-1.22-.48l.25-2.53S179.44,193.79,180.66,195Z"/>
      <path class="cls-15" d="M171.72,174.48s-15.32-19.57-16-25,6-5.75,6-5.75,2.06,1.45,4.44,6.81,10.68,26.08,10.68,26.08S174,179.67,171.72,174.48Z"/>
      <path class="cls-17" d="M179.63,180.92c1-2-5.37-2.26-7.65-2a3,3,0,0,0-2.78,1.77,1.47,1.47,0,0,1-.51-1.45c.26-.84.76-2.23,6.56-2S180.9,180.38,179.63,180.92Z"/>
      <path class="cls-18" d="M177,176.89a.75.75,0,1,0,0-1.48.75.75,0,1,0,0,1.48Z"/>
      <path class="cls-18" d="M175.29,176.57a.89.89,0,1,0-1-.89A.95.95,0,0,0,175.29,176.57Z"/>
      <path class="cls-18" d="M173.23,176.49a.89.89,0,1,0-1-.89A1,1,0,0,0,173.23,176.49Z"/>
      <path class="cls-18" d="M171.21,176.65a.89.89,0,1,0-1-.89A.95.95,0,0,0,171.21,176.65Z"/>
      <path class="cls-18" d="M169.4,177.32a.89.89,0,1,0-1-.88A.94.94,0,0,0,169.4,177.32Z"/>
      <path class="cls-19" d="M175.26,171.47a.91.91,0,0,0-.58.55.08.08,0,0,0,0-.05,1,1,0,0,0-1.29-.49.92.92,0,0,0-.66,1.17,1,1,0,0,0,1.29.49,1,1,0,0,0,.68-.69h0a.86.86,0,0,0,1.11.4.8.8,0,0,0,.57-1,.87.87,0,0,0-1.11-.4Zm-7.43,2.74a1.11,1.11,0,0,1,1,.1.5.5,0,0,1-.1-.19.94.94,0,0,1,.66-1.17,1,1,0,0,1,1.29.49.92.92,0,0,1-.66,1.17,1.09,1.09,0,0,1-1-.09.77.77,0,0,1,.1.18.94.94,0,0,1-.66,1.17,1,1,0,0,1-1.3-.49.94.94,0,0,1,.66-1.17Zm3.48-2.1a1,1,0,0,1,1.3.49.94.94,0,0,1-.66,1.17,1,1,0,0,1-1.3-.49A.93.93,0,0,1,171.31,172.11Z"/>
      <path class="cls-19" d="M173.34,168.49a.93.93,0,0,0-.51.62.17.17,0,0,0,0-.05,1,1,0,0,0-1.35-.31A.92.92,0,0,0,171,170a1,1,0,0,0,1.35.32,1.08,1.08,0,0,0,.59-.77h0a.86.86,0,0,0,1.15.25.79.79,0,0,0,.44-1.05.86.86,0,0,0-1.15-.26Zm-7,3.68a1.1,1.1,0,0,1,1,0,1,1,0,0,1-.12-.17.93.93,0,0,1,.5-1.24A1,1,0,0,1,169,171a.93.93,0,0,1-.5,1.25,1.1,1.1,0,0,1-1,0,.52.52,0,0,1,.12.17.92.92,0,0,1-.5,1.24,1,1,0,0,1-1.35-.32.93.93,0,0,1,.5-1.24Zm3.18-2.53a1,1,0,0,1,1.35.31.93.93,0,0,1-.5,1.25,1,1,0,0,1-1.35-.32A.93.93,0,0,1,169.5,169.64Z"/>
      <path class="cls-11" d="M152.72,129.94s1.29,4-.64,7.21-6.57.13-6.57.13l4.76,8.24s-.25-3.22.91-4.7,4.5-1.67,4.5-1.67Z"/>
      <path class="cls-11" d="M158.32,168.88s-2.25.48-3.35.82a22.59,22.59,0,0,0-7.4,4.2c-3,2.58-5.79,6.44-8,7.47s-14.86,1.18-14.86,1.18l.45,3.63s15.34,1,19.81-2.06,9.41-7.51,11.34-7.77,4.24-.52,4.44-1-1-1.54-1-1.54l.43-2.12-1.41-.54A1.5,1.5,0,0,0,158.32,168.88Z"/>
      <path class="cls-11" d="M134.35,133.09a183.54,183.54,0,0,0,2.46-23.43c-.13,8.44.12,12.36,1,17.82C135.9,130.88,134.45,132.85,134.35,133.09Z"/>
      <path class="cls-7" d="M98.3,178.35s12.87,13.13,19.31,14.16,0-8.5-1.81-13.65,11.85-8.24,11.85-8.24,8,.77,11.58-1.29,5.65-6.9,5.65-6.9l-5.06-1.19.36-6.43s-2.49-1.57-4.16.11-15.32,12.35-18.93,13.26-10,3.34-10.68,6,6.25,8,3.25,7.48S98.3,178.35,98.3,178.35Z"/>
      <path class="cls-7" d="M153.52,199.84s-23.56-5.79-27.8-8.75-7.34-11.71-7-12.87,2.45-1.55,2.45-1.55,12.36,1.16,15.58,1.8,23.3,5,25.87,5.67-6-1.42-5.15.9S162,191,164,193.28s-8.11-3.73-14.55-4.76S153.52,199.84,153.52,199.84Z"/>
      <path class="cls-9" d="M121.21,176.67s19.45,3,33.47,5.92,14.93,12.88,14.93,12.88-1.28-7.47-4.37-10.69S128.93,174.09,121.21,176.67Z"/>
      <path class="cls-9" d="M102.16,175.38s1.48.45,1.73-.77a5,5,0,0,1,3.29-3.8c2.38-1,8.75,3.8,11.39,4.83a30.29,30.29,0,0,0,5.5,1.48l2.42-1s-9.46-2.37-11.27-4-5.21-3.29-6.88-3.35-3.85,0-4.57,1.8-1.91,3.39-3.87,3.15-5.12-2.59-5.12-2.59S97.65,175.13,102.16,175.38Z"/>
      <path class="cls-17" d="M130.78,127c.83,0,1.19,1,.8,2.26s-1.4,2.25-2.23,2.25-1.2-1-.8-2.25S129.94,127,130.78,127Z"/>
      <path class="cls-17" d="M85.67,127c-.84,0-1.2,1-.8,2.26s1.39,2.25,2.23,2.25,1.19-1,.79-2.25S86.5,127,85.67,127Z"/>
      <path class="cls-16" d="M76,99.35c1,.3,1.44,2.12.87,4.06s-1.87,3.26-2.91,3-1.44-2.12-.88-4.06S75,99,76,99.35Z"/>
      <path class="cls-16" d="M140.69,97.51c-1,.31-1.43,2.13-.87,4.06s1.87,3.26,2.92,3,1.43-2.12.87-4.06S141.74,97.21,140.69,97.51Z"/>
      <path class="cls-4" d="M99.44,84.37c-1.91,3.76-1.25,6-.42,7.95,1,2.29,2.26,4-.48,7.05,1-2.38,1.2-3.45.38-5.55-.11-.28-.23-.57-.38-.89-2-3.24-1.73-5.78.9-8.56Zm6.86,2.23c-3.33,2.06-3.74,4-1.27,7l0-.06c4.13,7.42-7.09,5.61.5,14.61h0c-1.54-2.91-2.93-5.05-.74-8a6.92,6.92,0,0,0,1.13-.93c.1-.11.22-.25.35-.42,1.59-2.06.87-3.44-.13-4.77C104.63,92.17,102.55,90.33,106.3,86.6Z"/>
      <path class="cls-23" d="M74.92,94.35a4.68,4.68,0,0,1,2.23-4.27,19.37,19.37,0,0,1,5.62-1.9h0c4.73-1.47,3.86-4.69,2.58-9h0c-.75-3-.44-3.84.52-6.77h0C85.54,75,85.14,76.52,86,79,90.62,92.1,80.73,87,76.42,91.56A6.29,6.29,0,0,0,74.92,94.35Z"/>
      <path class="cls-23" d="M143.54,94.78a4.69,4.69,0,0,0-2.23-4.27,19.67,19.67,0,0,0-5.62-1.9h0c-4.74-1.46-3.87-4.68-2.59-9h0c.75-3,.44-3.83-.52-6.76h0c.32,2.51.72,4-.13,6.49-4.63,13.14,5.26,8.09,9.57,12.6A6.24,6.24,0,0,1,143.54,94.78Z"/>
      <path class="cls-4" d="M118.8,84.42c1.91,3.76,1.25,6,.42,8-1,2.3-2.26,4,.48,7-1-2.38-1.19-3.45-.38-5.54.11-.28.24-.57.38-.89,2-3.25,1.73-5.78-.9-8.57Zm-6.86,2.23c3.34,2.06,3.75,4,1.27,7l.05-.05c-4.14,7.41,7.08,5.6-.51,14.61h0c1.54-2.91,2.94-5,.75-8a6.51,6.51,0,0,1-1.13-.92c-.11-.12-.22-.25-.36-.43-1.59-2.06-.87-3.44.13-4.76C113.61,92.22,115.7,90.39,111.94,86.65Z"/>
      <path class="cls-4" d="M101.5,33.72c-1.34-1.16-.88-1.88-.29-2.47s1.59-1.24-.34-2.18c.69.74.84,1.07.27,1.72l-.27.27c-1.38,1-1.22,1.8.63,2.66Zm4.84-.69c-2.35-.64-2.64-1.24-.9-2.18l0,0c2.91-2.31-5-1.75.36-4.54h0c-1.09.9-2.07,1.57-.53,2.47a5.7,5.7,0,0,1,.8.29l.25.13c1.12.64.61,1.07-.09,1.48C105.16,31.3,103.69,31.87,106.34,33Z"/>
      <path class="cls-4" d="M116.81,33.71c1.48-1.17,1-1.88.32-2.47s-1.74-1.25.38-2.19c-.76.74-.93,1.07-.3,1.72.09.09.18.18.3.28,1.51,1,1.33,1.79-.7,2.66Zm-5.29-.7c2.58-.64,2.89-1.24,1-2.18l0,0c-3.19-2.31,5.46-1.74-.39-4.54h0c1.19.9,2.26,1.57.57,2.47a6.72,6.72,0,0,0-.87.29l-.27.13c-1.23.64-.67,1.07.1,1.48C112.81,31.28,114.42,31.85,111.52,33Z"/>
      <path class="cls-32" d="M58.52,168.27l6.45,2S60.45,170.47,58.52,168.27Z"/>
      <path class="cls-32" d="M62.84,172.05l-5.72-1.92S60.84,172.65,62.84,172.05Z"/>
      <path class="cls-32" d="M61.22,173.78l-4.78-1.1S59.06,174.43,61.22,173.78Z"/>
      <path class="cls-32" d="M60,175.92l-3.82-1S58.9,176.38,60,175.92Z"/>
      <path class="cls-16" d="M63.22,166.65l-1.4,1.73-3.3-.86s.54-1.84,1.41-1.9A12.66,12.66,0,0,1,63.22,166.65Z"/>
      <path class="cls-32" d="M160.1,168.57l-6.13,1S158.05,170.47,160.1,168.57Z"/>
      <path class="cls-32" d="M155.66,171.69l5.47-1.07S157.4,172.57,155.66,171.69Z"/>
      <path class="cls-32" d="M156.9,173.63l4.51-.39S158.78,174.59,156.9,173.63Z"/>
      <path class="cls-32" d="M157.77,175.93l3.63-.49S158.67,176.54,157.77,175.93Z"/>
      <path class="cls-16" d="M156,166.28l1.05,1.92,3.11-.38s-.24-1.89-1-2.07A10.73,10.73,0,0,0,156,166.28Z"/>
      <path class="cls-11" d="M82.35,178s1.86-2.26,3.9-1.4a6.9,6.9,0,0,1,3,2.48l-.44-3-6.62-.77Z"/>
    </g>
  </g>
</svg>
