<svg id="Layer_1" data-name="Layer 1" xmlns="http://www.w3.org/2000/svg" width="282.64" height="368.43" viewBox="0 0 282.64 368.43">
  <defs>
    <style>
      .cls-1 {
        fill: #ff0;
      }

      .cls-2 {
        fill: #f59247;
      }

      .cls-3 {
        fill: #f8ac66;
      }

      .cls-4 {
        fill: #7d7d7d;
      }

      .cls-5 {
        fill: #4a4a4a;
      }

      .cls-6 {
        fill: #5c5c5c;
      }

      .cls-7 {
        fill: #858585;
      }

      .cls-8 {
        fill: #999;
      }

      .cls-9 {
        fill: #616161;
      }

      .cls-10 {
        fill: none;
        stroke: #737373;
        stroke-miterlimit: 10;
        stroke-width: 2px;
      }

      .cls-11 {
        fill: #3d3d3d;
      }

      .cls-12 {
        fill: #4d4d4d;
      }
    </style>
  </defs>
  <g>
    <path class="cls-1" d="M240.23,365.18c-52.76,0-93.16-72.56-94.86-75.65a10.33,10.33,0,0,1-1-7.35,11.3,11.3,0,0,1,.75-2.21l2.21-4.66a10.36,10.36,0,0,1,3.54-4.14l17.85-12.06a9.78,9.78,0,0,1,1.68-.92c-2-2.61-3.22-4.19-3.25-4.22a10.44,10.44,0,0,1-1.5-2.76l-102-150.88a15.1,15.1,0,0,1-1.08-1.45L58.71,93.2c-16.84-1.73-28.35-5.1-34.24-10.07C16.06,76,6.6,62.2,5.55,60.65a15.85,15.85,0,0,1,3.9-22L57.88,5.85a15.23,15.23,0,0,1,8.54-2.6A16.17,16.17,0,0,1,79.51,10l.28.4C80.85,12,90.16,25.93,93.61,36.38c2.39,7.25,1.28,19.08-3.32,35.19L196.94,229.31a10.48,10.48,0,0,1,2.5,2.84s1.05,1.77,2.75,4.67a10.07,10.07,0,0,1,1.82-1.56l17.84-12.07a10.47,10.47,0,0,1,4.4-1.68l4.76-.63a10.62,10.62,0,0,1,1.37-.09,10.29,10.29,0,0,1,8.53,4.53l.63.92c3.63,4.61,19.1,25,29.17,49.49,14.1,34.33,12,63-6.16,83a10.44,10.44,0,0,1-4.06,2.74,58.25,58.25,0,0,1-20.25,3.67ZM40.3,64.14A23.49,23.49,0,0,0,46,66.08a19.09,19.09,0,0,1,8.19-13.43l.33-.22A18.85,18.85,0,0,1,65.11,49.2a19.17,19.17,0,0,1,4.68.58A22.75,22.75,0,0,0,70.1,44a47.59,47.59,0,0,0-2.58-5.84L35.83,59.58A45.62,45.62,0,0,0,40.3,64.14Z"/>
    <g>
      <g>
        <path class="cls-2" d="M176.77,248.61,58,72.93a8.61,8.61,0,0,1,14.26-9.64L191,239Z"/>
        <path class="cls-3" d="M176.47,248.81,57.69,73.13A8.61,8.61,0,0,1,60,61.18L183.61,244Z"/>
      </g>
      <g>
        <polygon class="cls-4" points="213.56 257.31 238.64 240.35 232.38 231.09 227.62 231.73 209.78 243.79 207.57 248.46 213.56 257.31"/>
        <polygon class="cls-4" points="160.44 293.23 185.52 276.27 179.26 267.01 174.5 267.64 156.66 279.71 154.45 284.38 160.44 293.23"/>
        <path class="cls-5" d="M154.4,284.58l39.14-26.46,39.14-26.47s63.3,77.11,24.24,120.2C202.38,372.05,154.4,284.58,154.4,284.58Z"/>
        <path class="cls-6" d="M154.4,284.58l39.14-26.46,63.38,93.73C202.38,372.05,154.4,284.58,154.4,284.58Z"/>
        <path class="cls-7" d="M183,242.54l7.57-5.12s35.23,59.21,35.72,69.15c-9-4.16-50.87-58.91-50.87-58.91Z"/>
        <path class="cls-8" d="M175.35,247.72s41.83,54.75,50.86,58.9c-14.09-21.25-43.29-64-43.29-64Z"/>
        <g>
          <circle class="cls-9" cx="191.99" cy="255.82" r="2.1"/>
          <line class="cls-10" x1="190.53" y1="255.57" x2="193.45" y2="256.07"/>
          <line class="cls-10" x1="192.24" y1="254.36" x2="191.74" y2="257.28"/>
        </g>
        <g>
          <circle class="cls-9" cx="186.2" cy="247.27" r="2.1" transform="translate(-36.23 32.01) rotate(-8.96)"/>
          <line class="cls-10" x1="184.75" y1="247.01" x2="187.66" y2="247.52"/>
          <line class="cls-10" x1="186.45" y1="245.81" x2="185.95" y2="248.72"/>
        </g>
      </g>
      <path class="cls-11" d="M71.26,16.22a5.55,5.55,0,0,0-7.61-1.83L15.22,47.13a5.55,5.55,0,0,0-1.14,7.74h0a5.54,5.54,0,0,0,7.61,1.83L70.12,24a5.55,5.55,0,0,0,1.14-7.74Z"/>
      <path class="cls-11" d="M17.49,52.57l-3.41,2.3c.39.58,9.56,14.08,17,20.38,7.65,6.45,33,8.12,35.82,8.29l.25-4.1c-7.4-.44-27.83-2.61-33.42-7.33C26.72,66.18,17.58,52.71,17.49,52.57Z"/>
      <path class="cls-11" d="M67.86,18.52C68,18.65,77,32.16,79.93,40.9c2.29,6.94-3.3,26.71-5.65,33.74l3.9,1.3c.91-2.72,8.78-26.83,5.65-36.33-3.07-9.28-12.18-22.82-12.57-23.39Z"/>
      <path class="cls-11" d="M71.86,94a9.52,9.52,0,0,1-.68-.86l-13.48-20A8.79,8.79,0,0,1,72.26,63.3L85.74,83.24a8.33,8.33,0,0,1,.55,1Z"/>
      <path class="cls-12" d="M71.78,94,79,89.12l-18.92-28a8.7,8.7,0,0,0-2.46,12.06l13.49,20C71.32,93.44,71.55,93.73,71.78,94Z"/>
    </g>
  </g>
</svg>
