<svg id="Layer_1" data-name="Layer 1" xmlns="http://www.w3.org/2000/svg" width="253.99" height="183.32" viewBox="0 0 253.99 183.32">
  <defs>
    <style>
      .cls-1 {
        opacity: 0.5;
      }

      .cls-2, .cls-4 {
        fill: #fff;
      }

      .cls-3, .cls-6 {
        fill: #ace543;
      }

      .cls-3, .cls-8 {
        stroke: #617731;
      }

      .cls-3, .cls-7, .cls-8 {
        stroke-miterlimit: 10;
      }

      .cls-4 {
        opacity: 0.3;
      }

      .cls-5 {
        opacity: 0.05;
      }

      .cls-7, .cls-9 {
        fill: #207a08;
      }

      .cls-7 {
        stroke: #464f2c;
      }

      .cls-8 {
        fill: #6bbf35;
      }
    </style>
  </defs>
  <g>
    <path class="cls-1" d="M109.14,182.06A28.17,28.17,0,0,1,85.35,168.9c-.18.24-.37.46-.56.68a2.94,2.94,0,0,1-.22.27c-.48.56-1,1.08-1.59,1.68l-.51.48c-.53.49-1,.94-1.56,1.35l-.2.17c-.65.5-1.28.94-2,1.43l-.53.34c-.71.44-1.36.8-2,1.13l-.18.09c-.68.34-1.43.67-2.28,1l-.56.21c-.92.34-1.68.58-2.45.79a27.93,27.93,0,0,1-5.62.92c-.56,0-1.13.05-1.7.05A28,28,0,0,1,54.26,178a28.08,28.08,0,0,1-11-7c-.43.14-.85.27-1.27.38A28.16,28.16,0,0,1,7.58,151.55C7.37,150.78,7.2,150,7,149L7,148.55c-.12-.84-.22-1.65-.27-2.44,0-.16,0-.3,0-.44,0-.77,0-1.5,0-2.2,0-.13,0-.26,0-.38,0-.77.1-1.54.21-2.37,0-.18.05-.39.08-.6.12-.81.26-1.54.42-2.24l.12-.48c.17-.66.35-1.27.55-1.88.08-.24.13-.41.19-.58.23-.65.49-1.3.8-2,.1-.24.2-.46.31-.67.33-.7.63-1.3.95-1.85.09-.17.2-.34.3-.51.34-.57.66-1.06,1-1.54l.07-.09.37-.54c.38-.51.75-1,1.13-1.46l.33-.37a27.88,27.88,0,0,1,12.91-8.48s0-.33,0-.45c0-.76.1-1.53.21-2.37,0-.21.05-.42.08-.63.12-.78.26-1.51.42-2.21q.06-.26.12-.48c.17-.67.35-1.28.55-1.89.08-.23.13-.4.19-.57.23-.65.49-1.3.79-2l.32-.69c.32-.67.63-1.27.94-1.83.11-.18.2-.34.3-.49l.05-.09c.31-.51.62-1,.95-1.48l.06-.08.37-.54c.37-.51.74-1,1.14-1.47.1-.12.2-.24.31-.35a27.94,27.94,0,0,1,14-8.8c.74-.2,1.5-.37,2.26-.51l.27-.87c.08-.23.13-.4.19-.57.23-.65.49-1.3.8-2,.1-.24.21-.46.31-.67.32-.69.63-1.29,1-1.84.1-.19.2-.36.3-.52l.06-.09c.28-.48.6-1,.93-1.46.17-.24.3-.44.45-.64.36-.49.73-1,1.12-1.45.1-.12.21-.24.32-.35a27.88,27.88,0,0,1,25.54-9.43l.12-.52c0-.18.08-.33.12-.49.17-.66.35-1.28.55-1.89l.18-.55c.24-.67.5-1.33.81-2l.31-.69c.32-.66.63-1.26.94-1.82l.3-.51L84,62c.29-.5.61-1,.94-1.47l0-.08.39-.56c.36-.49.73-1,1.12-1.45l.33-.36a28,28,0,0,1,35.84-5.66,7.54,7.54,0,0,1,.12-1.77l.06-.31a8.16,8.16,0,0,1-.81-4.47l0,0c-.47-.56-.94-1.13-1.37-1.71a8.08,8.08,0,0,1,6.51-12.84,8.29,8.29,0,0,1,1.09.07l.86,0a8,8,0,0,1,3.53-1.95,8.24,8.24,0,0,1,6.67-3.43,8.77,8.77,0,0,1,1.52.14l.55,0a8.16,8.16,0,0,1,5.65-2.25,8.72,8.72,0,0,1,1.14.07,8.44,8.44,0,0,1,1.81-.38,8.22,8.22,0,0,1,8.59-2.35l.75.13a2.43,2.43,0,0,0-.18-1.15,8,8,0,0,1,5.75-13.56,8.72,8.72,0,0,1,1,.06l5,.63a8.2,8.2,0,0,1,9.52.92A8.15,8.15,0,0,1,183,7.88a8,8,0,0,1,6.14,2.86l.89,1.07a8,8,0,0,1,4.86,3.93c.07.13.14.26.2.39l.24-.17a8,8,0,0,1,4.56-1.43A8.15,8.15,0,0,1,204,15.69c1.31.73,2.39,1.4,3.28,2a8.17,8.17,0,0,1,5.47,3,7.92,7.92,0,0,1,3.77,2.93l.73,1a8.43,8.43,0,0,1,1.59.72,8.26,8.26,0,0,1,2.81,2.45,8.41,8.41,0,0,1,.84,1.45,8.28,8.28,0,0,1,5.05,6.5l.12.34a8,8,0,0,1,3.56,7.22l0,.66a7.86,7.86,0,0,1,.54.87,8,8,0,0,1,.13,7.32c.05.24.09.48.12.73a8,8,0,0,1-2.08,6.38l-.92,1a8,8,0,0,1-2.93,5.46l-.21.17a8,8,0,0,1-3.57,3.78l-.29.15a8,8,0,0,1-2.69,2.66,17.15,17.15,0,0,1-2.38,1.15l1.76,1c2.53,1.46,5.13,3,7.69,4.73l1.27.91h1.27c4.22,0,8.55.16,12.84.47h.16a11.6,11.6,0,0,1,7.92,4.2,11.16,11.16,0,0,1,2.45,8.38,11.41,11.41,0,0,1-11.38,10.07h0c-.31,0-.63,0-.95,0-3.73-.26-7.47-.4-11.12-.4-4.82,0-9.64.24-14.42.7a28.11,28.11,0,0,1,0,13.79c0,.21-.09.42-.15.63-.1.37-.22.73-.34,1.09l0,.16-.18.56c-.23.63-.48,1.27-.78,2-.11.23-.22.49-.34.74-.27.57-.55,1.11-.85,1.65-.11.2-.19.35-.28.49-.35.6-.73,1.2-1.16,1.83-.14.2-.3.41-.45.63-.4.54-.82,1.07-1.23,1.56l-.26.3c-.45.53-1,1.06-1.56,1.65l-.36.34c.05.19.11.38.16.57a28.19,28.19,0,0,1,.09,14.19c0,.2-.09.41-.15.61s-.21.7-.32,1l-.07.23-.18.55c-.22.62-.48,1.26-.78,1.95-.11.25-.22.5-.34.75-.27.56-.55,1.1-.85,1.64l-.26.48c-.35.61-.73,1.2-1.17,1.84l-.46.64c-.39.52-.79,1-1.19,1.51l-.29.35c-.46.52-1,1.06-1.57,1.65l-.53.5c-.51.48-1,.92-1.54,1.33l-.26.21c-.59.46-1.21.9-2,1.39l-.58.36c-.67.41-1.32.79-2,1.11l-.16.08c-.69.35-1.41.67-2.28,1l-.57.22c-.92.34-1.69.58-2.46.79a28,28,0,0,1-17.34-.89l-.37.46-.29.34c-.46.53-1,1.07-1.58,1.66l-.52.49c-.52.49-1,.93-1.56,1.35l-.31.25c-.53.41-1.17.86-1.9,1.34l-.58.37c-.66.4-1.31.77-1.94,1.09l-.1.06c-.77.38-1.52.71-2.36,1l-.61.24c-.88.32-1.65.57-2.42.77a27.93,27.93,0,0,1-13.81.2,28.8,28.8,0,0,1-5.11-1.75c-.81-.37-1.61-.79-2.39-1.23s-1.27-.77-1.88-1.19c-.35.47-.7.91-1.06,1.33l-.3.37c-.45.51-.95,1-1.56,1.63-.17.17-.34.32-.5.47-.54.51-1,.95-1.57,1.37l-.31.24c-.55.43-1.17.87-1.92,1.36l-.53.33c-.73.45-1.38.82-2,1.14l-.16.08c-.7.35-1.45.68-2.3,1l-.6.23c-.85.32-1.64.57-2.41.78A28.28,28.28,0,0,1,109.14,182.06Z"/>
    <path class="cls-2" d="M104.14,177.06A28.17,28.17,0,0,1,80.35,163.9c-.18.24-.37.46-.56.68a2.94,2.94,0,0,1-.22.27c-.48.56-1,1.08-1.59,1.68l-.51.48c-.53.49-1,.94-1.56,1.35l-.2.17c-.65.5-1.28.94-2,1.43l-.53.34c-.71.44-1.36.8-2,1.13l-.18.09c-.68.34-1.43.67-2.28,1l-.56.21c-.92.34-1.68.58-2.45.79a27.93,27.93,0,0,1-5.62.92c-.56,0-1.13.05-1.7.05A28,28,0,0,1,49.26,173a28.08,28.08,0,0,1-11-7c-.43.14-.85.27-1.27.38A28.16,28.16,0,0,1,2.58,146.55C2.37,145.78,2.2,145,2,144L2,143.55c-.12-.84-.22-1.65-.27-2.44,0-.16,0-.3,0-.44,0-.77,0-1.5,0-2.2,0-.13,0-.26,0-.38,0-.77.1-1.54.21-2.37,0-.18,0-.39.08-.6.12-.81.26-1.54.42-2.24l.12-.48c.17-.66.35-1.27.55-1.88.08-.24.13-.41.19-.58.23-.65.49-1.3.8-2,.1-.24.2-.46.31-.67.33-.7.63-1.3.95-1.85.09-.17.2-.34.3-.51.34-.57.66-1.06,1-1.54l.07-.09.37-.54c.38-.51.75-1,1.13-1.46l.33-.37a27.88,27.88,0,0,1,12.91-8.48s0-.33,0-.45c0-.76.1-1.53.21-2.37,0-.21.05-.42.08-.63.12-.78.26-1.51.42-2.21q.06-.26.12-.48c.17-.67.35-1.28.55-1.89.08-.23.13-.4.19-.57.23-.65.49-1.3.79-2l.32-.69c.32-.67.63-1.27.94-1.83.11-.18.2-.34.3-.49l.05-.09c.31-.51.62-1,.95-1.48l.06-.08.37-.54c.37-.51.74-1,1.14-1.47.1-.12.2-.24.31-.35a27.94,27.94,0,0,1,14-8.8c.74-.2,1.5-.37,2.26-.51l.27-.87c.08-.23.13-.4.19-.57.23-.65.49-1.3.8-2,.1-.24.21-.46.31-.67.32-.69.63-1.29,1-1.84.1-.19.2-.36.3-.52l.06-.09c.28-.48.6-1,.93-1.46.17-.24.3-.44.45-.64.36-.49.73-1,1.12-1.45.1-.12.21-.24.32-.35a27.88,27.88,0,0,1,25.54-9.43l.12-.52c0-.18.08-.33.12-.49.17-.66.35-1.28.55-1.89l.18-.55c.24-.67.5-1.33.81-2l.31-.69c.32-.66.63-1.26.94-1.82l.3-.51L79,57c.29-.5.61-1,.94-1.47l0-.08.39-.56c.36-.49.73-1,1.12-1.45l.33-.36a28,28,0,0,1,35.84-5.66,7.54,7.54,0,0,1,.12-1.77l.06-.31a8.16,8.16,0,0,1-.81-4.47l0,0c-.47-.56-.94-1.13-1.37-1.71a8.08,8.08,0,0,1,6.51-12.84,8.29,8.29,0,0,1,1.09.07l.86,0a8,8,0,0,1,3.53-1.95,8.24,8.24,0,0,1,6.67-3.43,8.77,8.77,0,0,1,1.52.14l.55,0a8.16,8.16,0,0,1,5.65-2.25,8.72,8.72,0,0,1,1.14.07,8.44,8.44,0,0,1,1.81-.38,8.22,8.22,0,0,1,8.59-2.35l.75.13a2.43,2.43,0,0,0-.18-1.15,8,8,0,0,1,5.75-13.56,8.72,8.72,0,0,1,1,.06l5,.63a8.2,8.2,0,0,1,9.52.92A8.15,8.15,0,0,1,178,2.88a8,8,0,0,1,6.14,2.86l.89,1.07a8,8,0,0,1,4.86,3.93c.07.13.14.26.2.39l.24-.17a8,8,0,0,1,4.56-1.43A8.15,8.15,0,0,1,199,10.69c1.31.73,2.39,1.4,3.28,2a8.17,8.17,0,0,1,5.47,3,7.92,7.92,0,0,1,3.77,2.93l.73,1a8.43,8.43,0,0,1,1.59.72,8.26,8.26,0,0,1,2.81,2.45,8.41,8.41,0,0,1,.84,1.45,8.28,8.28,0,0,1,5.05,6.5l.12.34a8,8,0,0,1,3.56,7.22l0,.66a7.86,7.86,0,0,1,.54.87,8,8,0,0,1,.13,7.32c.05.24.09.48.12.73a8,8,0,0,1-2.08,6.38l-.92,1a8,8,0,0,1-2.93,5.46l-.21.17a8,8,0,0,1-3.57,3.78l-.29.15a8,8,0,0,1-2.69,2.66,17.15,17.15,0,0,1-2.38,1.15l1.76,1c2.53,1.46,5.13,3,7.69,4.73l1.27.91h1.27c4.22,0,8.55.16,12.84.47h.16a11.6,11.6,0,0,1,7.92,4.2,11.16,11.16,0,0,1,2.45,8.38,11.41,11.41,0,0,1-11.38,10.07h0c-.31,0-.63,0-.95,0-3.73-.26-7.47-.4-11.12-.4-4.82,0-9.64.24-14.42.7a28.11,28.11,0,0,1,0,13.79c0,.21-.09.42-.15.63-.1.37-.22.73-.34,1.09l0,.16-.18.56c-.23.63-.48,1.27-.78,2-.11.23-.22.49-.34.74-.27.57-.55,1.11-.85,1.65-.11.2-.19.35-.28.49-.35.6-.73,1.2-1.16,1.83-.14.2-.3.41-.45.63-.4.54-.82,1.07-1.23,1.56l-.26.3c-.45.53-1,1.06-1.56,1.65l-.36.34c.05.19.11.38.16.57a28.19,28.19,0,0,1,.09,14.19c0,.2-.09.41-.15.61s-.21.7-.32,1l-.07.23-.18.55c-.22.62-.48,1.26-.78,1.95-.11.25-.22.5-.34.75-.27.56-.55,1.1-.85,1.64l-.26.48c-.35.61-.73,1.2-1.17,1.84l-.46.64c-.39.52-.79,1-1.19,1.51l-.29.35c-.46.52-1,1.06-1.57,1.65l-.53.5c-.51.48-1,.92-1.54,1.33l-.26.21c-.59.46-1.21.9-2,1.39l-.58.36c-.67.41-1.32.79-2,1.11l-.16.08c-.69.35-1.41.67-2.28,1l-.57.22c-.92.34-1.69.58-2.46.79a28,28,0,0,1-17.34-.89l-.37.46-.29.34c-.46.53-1,1.07-1.58,1.66l-.52.49c-.52.49-1,.93-1.56,1.35l-.31.25c-.53.41-1.17.86-1.9,1.34l-.58.37c-.66.4-1.31.77-1.94,1.09l-.1.06c-.77.38-1.52.71-2.36,1l-.61.24c-.88.32-1.65.57-2.42.77a27.93,27.93,0,0,1-13.81.2,28.8,28.8,0,0,1-5.11-1.75c-.81-.37-1.61-.79-2.39-1.23s-1.27-.77-1.88-1.19c-.35.47-.7.91-1.06,1.33l-.3.37c-.45.51-1,1-1.56,1.63-.17.17-.34.32-.5.47-.54.51-1,.95-1.57,1.37l-.31.24c-.55.43-1.17.87-1.92,1.36l-.53.33c-.73.45-1.38.82-2,1.14l-.16.08c-.7.35-1.45.68-2.3,1l-.6.23c-.85.32-1.64.57-2.41.78A28.28,28.28,0,0,1,104.14,177.06Z"/>
    <g id="Grapes">
      <g>
        <g>
          <circle class="cls-3" cx="182.19" cy="105.68" r="20.09"/>
          <ellipse class="cls-4" cx="186.47" cy="98.59" rx="10.05" ry="12.2" transform="translate(19.1 226.96) rotate(-65.35)"/>
          <path class="cls-2" d="M193.73,94.14c.4-.53-.13-1.6-1.18-2.4s-2.23-1-2.63-.5.13,1.6,1.18,2.4S193.32,94.66,193.73,94.14Z"/>
          <path class="cls-2" d="M189,90.47c.07-.23-.23-.53-.69-.68s-.88-.09-.95.14.23.53.69.68S188.93,90.7,189,90.47Z"/>
          <path class="cls-5" d="M201.55,111.05a20.09,20.09,0,0,1-34.8-18.23,20.09,20.09,0,1,0,34.8,18.23Z"/>
        </g>
        <g>
          <circle class="cls-6" cx="166.12" cy="69.88" r="20.09"/>
          <ellipse class="cls-4" cx="170.4" cy="62.78" rx="10.05" ry="12.2" transform="translate(42.28 191.48) rotate(-65.35)"/>
          <path class="cls-2" d="M177.66,58.33c.4-.53-.13-1.6-1.18-2.4s-2.23-1-2.63-.5S174,57,175,57.83,177.26,58.86,177.66,58.33Z"/>
          <path class="cls-2" d="M172.93,54.66c.08-.22-.23-.53-.68-.68s-.88-.08-1,.14.23.53.69.68S172.86,54.89,172.93,54.66Z"/>
          <path class="cls-5" d="M185.48,75.24A20.09,20.09,0,0,1,150.68,57a20.09,20.09,0,1,0,34.8,18.22Z"/>
        </g>
        <g>
          <circle class="cls-3" cx="160.27" cy="86.81" r="20.09"/>
          <ellipse class="cls-4" cx="164.55" cy="79.71" rx="10.05" ry="12.2" transform="translate(23.48 196.03) rotate(-65.35)"/>
          <path class="cls-2" d="M171.81,75.26c.4-.52-.13-1.6-1.18-2.4s-2.23-1-2.63-.5.13,1.6,1.18,2.4S171.41,75.79,171.81,75.26Z"/>
          <path class="cls-2" d="M167.08,71.59c.07-.22-.23-.53-.69-.68s-.87-.08-.95.14.23.54.69.68S167,71.82,167.08,71.59Z"/>
          <path class="cls-5" d="M179.63,92.17A20.09,20.09,0,0,1,144.83,74a20.09,20.09,0,1,0,34.8,18.22Z"/>
        </g>
        <g>
          <circle class="cls-3" cx="133.64" cy="70.68" r="20.09" transform="translate(-15.79 93.66) rotate(-36.62)"/>
          <ellipse class="cls-4" cx="137.92" cy="63.59" rx="10.05" ry="12.2" transform="translate(22.61 162.43) rotate(-65.35)"/>
          <path class="cls-2" d="M145.18,59.14c.4-.53-.13-1.6-1.18-2.4s-2.23-1-2.63-.5.13,1.6,1.18,2.4S144.78,59.66,145.18,59.14Z"/>
          <path class="cls-2" d="M140.45,55.47c.08-.23-.23-.53-.68-.68s-.88-.09-1,.14.23.53.69.68S140.38,55.7,140.45,55.47Z"/>
          <path class="cls-5" d="M153,76.05a20.09,20.09,0,0,1-34.8-18.23A20.09,20.09,0,1,0,153,76.05Z"/>
        </g>
        <g>
          <circle class="cls-3" cx="142.57" cy="142.59" r="20.09" transform="translate(-32.14 41.91) rotate(-15.05)"/>
          <ellipse class="cls-4" cx="146.86" cy="135.49" rx="10.05" ry="12.2" transform="translate(-37.54 212.47) rotate(-65.35)"/>
          <path class="cls-2" d="M154.11,131.05c.4-.53-.13-1.6-1.18-2.4s-2.23-1-2.63-.5.13,1.6,1.18,2.4S153.71,131.57,154.11,131.05Z"/>
          <path class="cls-2" d="M149.38,127.38c.08-.23-.23-.53-.68-.68s-.88-.09-1,.14.24.53.69.68S149.31,127.6,149.38,127.38Z"/>
          <path class="cls-5" d="M161.93,148a20.09,20.09,0,0,1-34.79-18.22A20.09,20.09,0,1,0,161.93,148Z"/>
        </g>
        <g>
          <circle class="cls-3" cx="147.72" cy="111.98" r="20.09"/>
          <ellipse class="cls-4" cx="152" cy="104.88" rx="10.05" ry="12.2" transform="translate(-6.72 199.3) rotate(-65.35)"/>
          <path class="cls-5" d="M167.08,117.34a20.09,20.09,0,0,1-34.8-18.22,20.09,20.09,0,1,0,34.8,18.22Z"/>
        </g>
        <g>
          <circle class="cls-3" cx="174.45" cy="134.02" r="20.09" transform="translate(-42.24 96.07) rotate(-27.6)"/>
          <ellipse class="cls-4" cx="178.73" cy="126.92" rx="10.05" ry="12.2" transform="translate(-11.16 236.44) rotate(-65.35)"/>
          <path class="cls-5" d="M193.81,139.38A20.08,20.08,0,0,1,159,121.16a20.09,20.09,0,1,0,34.79,18.22Z"/>
        </g>
        <g>
          <circle class="cls-3" cx="103.13" cy="71.46" r="20.09" transform="translate(-21.81 59.96) rotate(-29.46)"/>
          <ellipse class="cls-4" cx="107.42" cy="64.36" rx="10.05" ry="12.2" transform="translate(4.13 135.15) rotate(-65.35)"/>
          <path class="cls-5" d="M122.49,76.82A20.09,20.09,0,0,1,87.7,58.6a20.09,20.09,0,1,0,34.79,18.22Z"/>
        </g>
        <g>
          <circle class="cls-3" cx="71.37" cy="93.37" r="20.09"/>
          <ellipse class="cls-4" cx="75.66" cy="86.27" rx="10.05" ry="12.2" transform="translate(-34.31 119.06) rotate(-65.35)"/>
          <path class="cls-5" d="M90.74,98.73a20.09,20.09,0,0,1-34.8-18.22,20.09,20.09,0,1,0,34.8,18.22Z"/>
        </g>
        <g>
          <circle class="cls-3" cx="104.16" cy="148.96" r="20.09" transform="translate(-15.49 12.13) rotate(-6.2)"/>
          <ellipse class="cls-4" cx="108.44" cy="141.86" rx="10.05" ry="12.2" transform="translate(-65.72 181.26) rotate(-65.35)"/>
          <path class="cls-2" d="M115.69,137.41c.4-.52-.12-1.6-1.18-2.4s-2.22-1-2.62-.49.12,1.6,1.18,2.4S115.29,137.94,115.69,137.41Z"/>
          <path class="cls-2" d="M111,133.74c.07-.22-.23-.53-.69-.67s-.88-.09-1,.14.23.53.68.68S110.89,134,111,133.74Z"/>
          <path class="cls-5" d="M123.52,154.32a20.09,20.09,0,0,1-34.8-18.22,20.09,20.09,0,1,0,34.8,18.22Z"/>
        </g>
        <g>
          <circle class="cls-3" cx="29.71" cy="139.25" r="20.09"/>
          <ellipse class="cls-4" cx="34" cy="132.15" rx="10.05" ry="12.2" transform="translate(-100.3 107.94) rotate(-65.35)"/>
          <path class="cls-2" d="M41.25,127.71c.4-.53-.13-1.6-1.18-2.4s-2.23-1-2.63-.5.13,1.6,1.18,2.4S40.85,128.23,41.25,127.71Z"/>
          <path class="cls-2" d="M36.52,124c.08-.23-.23-.53-.68-.68s-.88-.09-1,.14.24.53.69.68S36.45,124.26,36.52,124Z"/>
          <path class="cls-5" d="M49.07,144.61a20.09,20.09,0,0,1-34.79-18.22,20.09,20.09,0,1,0,34.79,18.22Z"/>
        </g>
        <g>
          <circle class="cls-3" cx="58.39" cy="146.4" r="20.09"/>
          <ellipse class="cls-4" cx="62.67" cy="139.31" rx="10.05" ry="12.2" transform="translate(-90.08 138.17) rotate(-65.35)"/>
          <ellipse class="cls-2" cx="68.02" cy="133.41" rx="1.2" ry="2.39" transform="translate(-79.33 106.74) rotate(-52.73)"/>
          <path class="cls-2" d="M65.2,131.19c.07-.23-.23-.53-.69-.68s-.88-.08-1,.14.23.53.68.68S65.12,131.42,65.2,131.19Z"/>
          <path class="cls-5" d="M77.75,151.77A20.09,20.09,0,0,1,43,133.54a20.09,20.09,0,1,0,34.8,18.23Z"/>
        </g>
        <g>
          <circle class="cls-3" cx="49.44" cy="113.14" r="20.09"/>
          <ellipse class="cls-4" cx="53.73" cy="106.04" rx="10.05" ry="12.2" transform="translate(-65.06 110.65) rotate(-65.35)"/>
          <path class="cls-5" d="M68.81,118.5A20.09,20.09,0,0,1,34,100.28a20.09,20.09,0,1,0,34.8,18.22Z"/>
        </g>
        <g>
          <circle class="cls-6" cx="81.19" cy="129.87" r="20.09"/>
          <ellipse class="cls-4" cx="85.47" cy="122.77" rx="10.05" ry="12.2" transform="translate(-61.76 149.26) rotate(-65.35)"/>
          <path class="cls-2" d="M92.73,118.32c.4-.52-.13-1.6-1.18-2.4s-2.23-1-2.63-.49.13,1.6,1.18,2.4S92.33,118.85,92.73,118.32Z"/>
          <path class="cls-2" d="M88,114.65c.07-.22-.23-.53-.69-.67s-.87-.09-1,.14.23.53.69.68S87.93,114.88,88,114.65Z"/>
          <path class="cls-5" d="M100.55,135.23A20.09,20.09,0,0,1,65.75,117a20.09,20.09,0,1,0,34.8,18.22Z"/>
        </g>
        <g>
          <circle class="cls-3" cx="100.92" cy="103.76" r="20.09"/>
          <ellipse class="cls-4" cx="105.2" cy="96.66" rx="10.05" ry="12.2" transform="translate(-26.52 151.97) rotate(-65.35)"/>
          <path class="cls-5" d="M120.28,109.12A20.09,20.09,0,0,1,85.48,90.9a20.09,20.09,0,1,0,34.8,18.22Z"/>
        </g>
        <g>
          <circle class="cls-3" cx="116.56" cy="128.78" r="20.09" transform="translate(-44.91 64.76) rotate(-26.22)"/>
          <ellipse class="cls-4" cx="120.85" cy="121.68" rx="10.05" ry="12.2" transform="translate(-40.14 180.78) rotate(-65.35)"/>
          <path class="cls-2" d="M123.38,113.56c.07-.22-.24-.53-.69-.67s-.88-.09-1,.14.23.53.68.68S123.3,113.79,123.38,113.56Z"/>
          <path class="cls-5" d="M135.93,134.14a20.09,20.09,0,0,1-34.8-18.22,20.09,20.09,0,1,0,34.8,18.22Z"/>
        </g>
        <g>
          <circle class="cls-3" cx="131.29" cy="95.1" r="20.09" transform="matrix(0.97, -0.26, 0.26, 0.97, -20.19, 37.35)"/>
          <ellipse class="cls-4" cx="135.57" cy="88" rx="10.05" ry="12.2" transform="translate(-0.95 174.52) rotate(-65.35)"/>
          <path class="cls-2" d="M142.82,83.55c.4-.53-.12-1.6-1.18-2.4s-2.22-1-2.62-.5.12,1.6,1.18,2.4S142.42,84.08,142.82,83.55Z"/>
          <path class="cls-2" d="M138.1,79.88c.07-.23-.23-.53-.69-.68s-.88-.08-.95.14.23.53.68.68S138,80.11,138.1,79.88Z"/>
          <path class="cls-5" d="M150.65,100.46a20.09,20.09,0,0,1-34.8-18.22,20.09,20.09,0,1,0,34.8,18.22Z"/>
        </g>
      </g>
      <g id="Leaf">
        <path class="cls-7" d="M170.82,95.83h0A3.4,3.4,0,0,1,173,91.49a164.08,164.08,0,0,1,63.19-7.67,3.4,3.4,0,0,1,3.15,3.7h0a3.42,3.42,0,0,1-3.76,3,156.69,156.69,0,0,0-60.39,7.33A3.45,3.45,0,0,1,170.82,95.83Z"/>
        <g id="Leaf-2" data-name="Leaf">
          <path class="cls-8" d="M188.38,66.63a2.22,2.22,0,0,0,.09.33,10.33,10.33,0,0,1,.42,1.22,8.1,8.1,0,0,1,.23,2.86c0,.37-.16.72-.21,1.09-.32,2.32,2.81,4.76,2.81,4.76a15.71,15.71,0,0,1,6.13,9.49l-1,.37a.09.09,0,0,0-.06.11l.81,4.06h-.69a.17.17,0,0,0-.16.17v3.67s-1.36-.26-1.48-.33-1,6.25-1,6.25l-1.43-.45a.61.61,0,0,0-.76.37l-1.46,3.85-.86-.95a.54.54,0,0,0-.77,0L185.14,107l-1.09-1a.47.47,0,0,0-.49-.11l-5.35,1.88-.37-1.06a.53.53,0,0,0-.56-.34l-5.67.67-.3-1.12a.59.59,0,0,0-.61-.43l-5.27.38-.08-.81a.48.48,0,0,0-.47-.44l-3.67-.14-.19-1a.3.3,0,0,0-.34-.25c-1.46.21-6-1.65-6-1.65L159.73,98l-.21-.79c1.91-1.55,4.3-3.6,4.87-6.13.13-.62.18-1.31-.45-1.69-.81-.48-1.9.45-2.56.89a24.08,24.08,0,0,0-2.58,2c-.06-.34-.13-.67-.18-1a.14.14,0,0,0-.2-.1,28.59,28.59,0,0,1-2.64,1.36c-1.72.77-3.5,1.39-5.25,2.1-.06-.49,0-1.25-.52-1.52s-.84,0-1.25.12c-1.35.37-2.66.67-4,.93l0-1a.38.38,0,0,0-.38-.36l-5.42-.1s-.18-1.44-.24-1.64c-.75-2.72-5.79-3.62-5.79-3.62a1.86,1.86,0,0,0,.9-1c.07-.13-7.18-7.07-7.18-7.07,7,.62,11.41-8.06,11.41-8.06,10.79-1,13.48-3.9,14.15-5.35a1.3,1.3,0,0,0-.42-1.6c-2.83-2-10.93,3.2-10.93,3.2l-.44-.8a.65.65,0,0,0-.66-.34,7.55,7.55,0,0,1-7.4-3c.55-.37,1.31-1.06,1.23-1.8a1.8,1.8,0,0,0-.19-.58,12.68,12.68,0,0,0-2.5-3.29l.28-.48a.44.44,0,0,0-.06-.5L129,54.51l.76-.8a.82.82,0,0,0,.07-1.06l-4-5.46c2.52-.91-.69-5.56-.69-5.56a2.73,2.73,0,0,0,.26-2.87,32.2,32.2,0,0,0-3.26-4.39,25.92,25.92,0,0,0,5.5-.14,2.76,2.76,0,0,0,2.07-2s5.63-.43,4.76-3l6.77-.3a.82.82,0,0,0,.78-.72l.15-1.1,3,.21a.42.42,0,0,0,.42-.27l.21-.52a12.45,12.45,0,0,0,4.13-.12,2.16,2.16,0,0,0,.57-.21c.62-.41.68-1.44.63-2.09a7.52,7.52,0,0,1,7,3.86.68.68,0,0,0,.69.3l.89-.16s1.06,9.56,4.38,10.51a1.3,1.3,0,0,0,1.51-.68c.7-1.43,1.26-5.34-4.72-14.37,0,0,4-8.89-.91-13.93,0,0,10,1.27,10,1.14a1.83,1.83,0,0,0,.21-1.33s3.87,3.36,6.45,2.24c.19-.08,1.43-.85,1.43-.85L181.51,15a.39.39,0,0,0,.52.06l.81-.6c.66,1.24,1.26,2.44,1.82,3.73.17.39.27.86.69,1s1.09-.29,1.51-.54c.55,1.8,1.18,3.58,1.67,5.4.25.95.44,1.93.6,2.9a.14.14,0,0,0,.2.1c.3-.18.6-.34.91-.51a23.94,23.94,0,0,0,0,3.28c.07.79,0,2.22.93,2.55.68.25,1.19-.22,1.58-.71,1.62-2,1.72-5.18,1.71-7.64l.75-.33-.35-6.23s4.31,2.38,5.06,3.64a.32.32,0,0,0,.42.11l.87-.46,2.41,2.76a.48.48,0,0,0,.64.09l.68-.44,3,4.33a.6.6,0,0,0,.72.2l1.07-.46,3,4.83a.53.53,0,0,0,.62.22L214.5,32l1.9,5.34a.48.48,0,0,0,.39.32l1.49.2-.37,5.22a.55.55,0,0,0,.51.58l1.29.07-2.09,3.55a.62.62,0,0,0,.19.82l1.25.83s-4.35,4.69-4.21,4.74,1.19.94,1.19.94l-2.86,2.31a.17.17,0,0,0,0,.23l.42.55-3.66,1.92a.1.1,0,0,0,0,.11l.33,1A15.72,15.72,0,0,1,199,61.9s-3.86-.9-5.47.81a4.24,4.24,0,0,1-.5.62,7.89,7.89,0,0,1-2.2,1.65,8.83,8.83,0,0,1-1.3.57c-.32.1-.86.16-1.05.49A.84.84,0,0,0,188.38,66.63Z"/>
          <path class="cls-9" d="M125.06,41.83a.2.2,0,0,1,0-.15.21.21,0,0,1,.26-.16,14.38,14.38,0,0,0,12.14-1.93.22.22,0,0,1,.3.06.21.21,0,0,1-.05.3,14.8,14.8,0,0,1-12.5,2A.26.26,0,0,1,125.06,41.83Z"/>
          <path class="cls-9" d="M125.72,47.25a.22.22,0,0,1,0-.14.23.23,0,0,1,.26-.18,28.24,28.24,0,0,0,19.81-3.82.22.22,0,1,1,.23.37,28.71,28.71,0,0,1-20.12,3.88A.21.21,0,0,1,125.72,47.25Z"/>
          <path class="cls-9" d="M128.77,54.6a.3.3,0,0,1,0-.1.22.22,0,0,1,.23-.21A40.35,40.35,0,0,0,154.1,47a.21.21,0,0,1,.3,0,.23.23,0,0,1-.05.31A40.78,40.78,0,0,1,129,54.72.22.22,0,0,1,128.77,54.6Z"/>
          <path class="cls-9" d="M132.32,63.41a.27.27,0,0,1,0-.12.22.22,0,0,1,.24-.2,8.32,8.32,0,0,0,2.05-.17l.59-.09c.87-.13,1.74-.28,2.61-.46A48.35,48.35,0,0,0,142.91,61a49.73,49.73,0,0,0,9.68-4.27,48.46,48.46,0,0,0,8.53-6.25.22.22,0,0,1,.31,0,.23.23,0,0,1,0,.31,48.9,48.9,0,0,1-8.62,6.3A49.74,49.74,0,0,1,143,61.45a52.4,52.4,0,0,1-5.17,1.35c-.88.18-1.76.33-2.63.46l-.58.09a9.23,9.23,0,0,1-2.17.18A.22.22,0,0,1,132.32,63.41Z"/>
          <path class="cls-9" d="M152.14,65.06a.64.64,0,0,0,0-.07.22.22,0,0,1,.18-.25,34.31,34.31,0,0,0,18.52-9.2.21.21,0,0,1,.3,0,.21.21,0,0,1,0,.31,34.81,34.81,0,0,1-18.75,9.32A.22.22,0,0,1,152.14,65.06Z"/>
          <path class="cls-7" d="M126.82,79.49A4,4,0,0,0,128,80l.66.24c.24.08.51.13.81.21a20.23,20.23,0,0,0,2,.44l1.23.18c.44.07.89.08,1.37.13,1,.1,2,.1,3.12.12a56.09,56.09,0,0,0,7.55-.66,97.24,97.24,0,0,0,18.94-5.32A161.43,161.43,0,0,0,185.45,65l-.79-1.33C170,72,155.45,77.57,144.58,79.57a58.52,58.52,0,0,1-7.4.87c-1.09,0-2.11.07-3.05,0-.46,0-.92,0-1.34-.06l-1.22-.11c-.77,0-1.44-.21-2-.29-.29,0-.56-.08-.81-.14l-.66-.16A4,4,0,0,0,126.82,79.49Z"/>
          <path class="cls-7" d="M154.64,101.52a2.92,2.92,0,0,0,1.08,0l1.3-.12c.51,0,1.09-.18,1.75-.29l1-.2c.36-.08.73-.2,1.13-.3l1.23-.34c.43-.12.86-.3,1.31-.46a28.93,28.93,0,0,0,5.84-2.86,30.16,30.16,0,0,0,6.06-5.07,36.13,36.13,0,0,0,5.22-7.41,46.25,46.25,0,0,0,3.73-9.28q.72-2.5,1.2-5.15a44.92,44.92,0,0,0,.67-5.44l-1.55,0a43.51,43.51,0,0,1-.64,5.22,50,50,0,0,1-1.14,5,46.14,46.14,0,0,1-3.53,9A36.15,36.15,0,0,1,174.44,91a30.3,30.3,0,0,1-5.71,5,29.26,29.26,0,0,1-5.56,3c-.43.18-.84.37-1.25.51l-1.18.39c-.38.12-.74.26-1.09.36l-1,.26c-.64.16-1.2.35-1.7.43l-1.27.26C155,101.36,154.63,101.46,154.64,101.52Z"/>
          <path class="cls-9" d="M161.3,62.35a.22.22,0,0,1,0-.16.22.22,0,0,1,.28-.14,24,24,0,0,1,9.14,5.33A12.89,12.89,0,0,1,173,70.12a.21.21,0,0,1-.07.3.22.22,0,0,1-.3-.07,12.32,12.32,0,0,0-2.18-2.65,23.64,23.64,0,0,0-9-5.24A.21.21,0,0,1,161.3,62.35Z"/>
          <path class="cls-9" d="M151.28,67a.19.19,0,0,1,0-.13.22.22,0,0,1,.24-.19c11.17,1.58,14.32,6.48,14.45,6.69a.21.21,0,0,1-.07.29.21.21,0,0,1-.3-.07s-3.19-4.93-14.14-6.47A.22.22,0,0,1,151.28,67Z"/>
          <path class="cls-9" d="M143.37,70.58a.29.29,0,0,1,0-.09.22.22,0,0,1,.21-.23c6.05-.31,13.84,5.31,14.17,5.55a.23.23,0,0,1,0,.31.21.21,0,0,1-.3,0c-.08-.06-8-5.77-13.89-5.48A.22.22,0,0,1,143.37,70.58Z"/>
          <path class="cls-9" d="M137.62,71.84a.19.19,0,0,1,0-.13.2.2,0,0,1,.24-.18,20,20,0,0,1,12.45,7.08.22.22,0,0,1-.34.28A19.53,19.53,0,0,0,137.78,72,.22.22,0,0,1,137.62,71.84Z"/>
          <path class="cls-9" d="M134.21,76.15a.3.3,0,0,1,0-.13.23.23,0,0,1,.25-.19c5.31.84,6.72,4.39,6.78,4.54a.22.22,0,0,1-.12.28.22.22,0,0,1-.28-.12s-1.39-3.47-6.45-4.26A.28.28,0,0,1,134.21,76.15Z"/>
          <path class="cls-9" d="M132.94,87.57h0a.22.22,0,0,1,.11-.29c7.57-3.29,7.31-6.72,7.3-6.75a.22.22,0,0,1,.44,0c0,.15.34,3.76-7.57,7.2A.22.22,0,0,1,132.94,87.57Z"/>
          <path class="cls-9" d="M138.66,92.67a.23.23,0,0,1,.06-.28c9.94-7.44,10.74-13.49,10.75-13.55a.22.22,0,0,1,.24-.2.22.22,0,0,1,.19.25c0,.25-.81,6.28-10.92,13.85a.22.22,0,0,1-.3,0Z"/>
          <path class="cls-9" d="M144.63,94.21a.2.2,0,0,1,0-.25c10.71-10.2,13-17.51,13-17.58a.21.21,0,0,1,.27-.15.21.21,0,0,1,.14.27c0,.08-2.36,7.49-13.15,17.77a.22.22,0,0,1-.31,0A.09.09,0,0,1,144.63,94.21Z"/>
          <path class="cls-9" d="M150.32,94.77a.21.21,0,0,1,0-.26c7.41-7,14.75-20.42,14.82-20.56a.23.23,0,0,1,.29-.09.22.22,0,0,1,.09.3c-.07.13-7.44,13.64-14.9,20.67a.22.22,0,0,1-.31,0Z"/>
          <path class="cls-9" d="M159.21,83.84a.22.22,0,0,1,.07-.27c15.88-11.55,23.62-7.3,23.94-7.11a.21.21,0,0,1,.08.3.22.22,0,0,1-.3.08c-.07,0-7.84-4.28-23.46,7.08a.22.22,0,0,1-.31,0Z"/>
          <path class="cls-9" d="M163.66,89.48a.22.22,0,0,1,.06-.26c10.65-8.8,16.54-6.22,16.78-6.1a.22.22,0,0,1,.11.29.22.22,0,0,1-.29.1c-.06,0-5.91-2.55-16.33,6a.2.2,0,0,1-.3,0Z"/>
          <path class="cls-9" d="M159.29,97.19v0a.21.21,0,0,1,.11-.28C168.49,93,171.21,93.2,172,93.64a.7.7,0,0,1,.37.43.22.22,0,0,1-.17.25.22.22,0,0,1-.26-.17.53.53,0,0,0-.22-.16c-.66-.28-3.17-.52-12.18,3.3A.23.23,0,0,1,159.29,97.19Z"/>
          <path class="cls-9" d="M171.45,107.25a.2.2,0,0,1,0-.22c3.8-6.13.93-13.1.9-13.17a.22.22,0,0,1,.12-.28.21.21,0,0,1,.28.11c0,.07,3,7.25-.93,13.57a.21.21,0,0,1-.3.07A.2.2,0,0,1,171.45,107.25Z"/>
          <path class="cls-9" d="M185,107.11a.21.21,0,0,1,0-.16c3.1-10.66-5.1-22.61-5.18-22.73a.22.22,0,0,1,.06-.31.21.21,0,0,1,.3.06c.08.12,8.4,12.24,5.24,23.1a.22.22,0,0,1-.27.15A.26.26,0,0,1,185,107.11Z"/>
          <path class="cls-9" d="M183.16,77.17a.22.22,0,0,1,.33-.27A61.57,61.57,0,0,1,197,94.49l.08.16a.22.22,0,0,1-.1.29.23.23,0,0,1-.29-.09h0l-.08-.16a60.88,60.88,0,0,0-13.38-17.45A.18.18,0,0,1,183.16,77.17Z"/>
          <path class="cls-9" d="M137.42,39.35a.22.22,0,0,1,0-.16c0-.07,2-7.28-3.14-9.73a.22.22,0,0,1-.11-.29.23.23,0,0,1,.29-.1c5.5,2.61,3.4,10.17,3.38,10.24a.21.21,0,0,1-.27.15A.2.2,0,0,1,137.42,39.35Z"/>
          <path class="cls-9" d="M145.86,43.17a.17.17,0,0,1,0-.14c0-.11,2.14-11.81-3.89-15.71a.22.22,0,0,1,.24-.37c6.27,4.06,4.17,15.67,4.07,16.17a.22.22,0,0,1-.25.17A.2.2,0,0,1,145.86,43.17Z"/>
          <path class="cls-9" d="M154,47a.32.32,0,0,1,0-.14c0-.15,2.66-15.13-3.06-22.61a.22.22,0,1,1,.35-.27c5.83,7.65,3.17,22.81,3.14,23a.22.22,0,0,1-.25.18A.25.25,0,0,1,154,47Z"/>
          <path class="cls-9" d="M161.13,50.67a.22.22,0,0,1,0-.22c0-.07,4.76-7.06,2.75-11.74a.22.22,0,0,1,.11-.29.22.22,0,0,1,.29.11c2.11,4.91-2.59,11.87-2.79,12.16a.22.22,0,0,1-.31.06A.27.27,0,0,1,161.13,50.67Z"/>
          <path class="cls-7" d="M160.83,10.23s.29.34.93.86L163,12c.48.36,1,.84,1.58,1.34a56.71,56.71,0,0,1,8.91,9.6,56.37,56.37,0,0,1,8.43,17.39,65.81,65.81,0,0,1,2.19,11.24c.21,2,.34,4,.37,6a49.22,49.22,0,0,1-.25,6.19l1.53.21a49.88,49.88,0,0,0,.26-6.42c0-2.11-.17-4.17-.4-6.2A64.81,64.81,0,0,0,183.24,40a55.67,55.67,0,0,0-8.92-17.64,50.73,50.73,0,0,0-9.41-9.41c-.64-.47-1.17-.92-1.69-1.24l-1.28-.83A4.21,4.21,0,0,0,160.83,10.23Z"/>
          <path class="cls-7" d="M194.91,17.54s.13.37.49,1,1,1.48,1.57,2.69a33.61,33.61,0,0,1,3.86,10.64,27.13,27.13,0,0,1,0,7.76l-.07.52-.1.52-.21,1.06c-.15.7-.37,1.4-.56,2.13a31.57,31.57,0,0,1-1.71,4.26,38.61,38.61,0,0,1-5.45,8.25,47.9,47.9,0,0,1-3.63,3.8A41.26,41.26,0,0,1,185,63.6l.88,1.28a42.62,42.62,0,0,0,4.32-3.59,49.1,49.1,0,0,0,3.72-3.95,38.85,38.85,0,0,0,5.59-8.61,32.55,32.55,0,0,0,1.72-4.49c.19-.76.41-1.5.56-2.24l.2-1.11.09-.55.06-.55a27.07,27.07,0,0,0-.24-8.11,31,31,0,0,0-4.42-10.77,23.87,23.87,0,0,0-1.83-2.56C195.21,17.78,195,17.5,194.91,17.54Z"/>
          <path class="cls-9" d="M170.07,55.4a.23.23,0,0,1,0-.2c.1-.19,9.67-19.48-8.14-35.61a.22.22,0,1,1,.29-.33c18.07,16.37,8.34,35.94,8.24,36.14a.22.22,0,0,1-.3.09A.2.2,0,0,1,170.07,55.4Z"/>
          <path class="cls-9" d="M172.64,45.75a.21.21,0,0,1,0-.25.22.22,0,0,1,.31,0c5.65,5.89,11.69,5.29,11.75,5.29A.21.21,0,0,1,185,51a.22.22,0,0,1-.19.24c-.06,0-6.31.63-12.11-5.41Z"/>
          <path class="cls-9" d="M172.48,38.32a.23.23,0,0,1,0-.26.22.22,0,0,1,.31,0c3.95,4.07,9.35,1.2,9.4,1.17a.22.22,0,0,1,.3.08.24.24,0,0,1-.09.3c-.06,0-5.74,3.07-9.92-1.25A.1.1,0,0,1,172.48,38.32Z"/>
          <path class="cls-9" d="M170.57,31.47a.25.25,0,0,1,0-.17.22.22,0,0,1,.28-.14c5,1.69,6.68-1.91,6.75-2.06a.22.22,0,0,1,.29-.11.22.22,0,0,1,.1.29s-1.93,4.11-7.28,2.29A.27.27,0,0,1,170.57,31.47Z"/>
          <path class="cls-9" d="M166,23.85a.27.27,0,0,1,0-.12.22.22,0,0,1,.24-.2c4,.37,5.12-3.82,5.13-3.86a.22.22,0,0,1,.27-.16.23.23,0,0,1,.16.26c0,.05-1.19,4.6-5.6,4.19A.19.19,0,0,1,166,23.85Z"/>
          <path class="cls-9" d="M171.65,19.75a.23.23,0,0,1,0-.26c.14-.13,3.33-3.29-1.77-9.88a.21.21,0,0,1,0-.3.2.2,0,0,1,.3,0c5.36,6.92,1.88,10.32,1.73,10.46a.23.23,0,0,1-.31,0Z"/>
          <path class="cls-9" d="M177.88,28.79a.23.23,0,0,1,0-.2c.05-.1,4.76-9.64-1-16.95a.21.21,0,0,1,0-.3.22.22,0,0,1,.31,0c6,7.53,1.15,17.32,1.1,17.41a.23.23,0,0,1-.3.1A.26.26,0,0,1,177.88,28.79Z"/>
          <path class="cls-9" d="M182.42,39a.18.18,0,0,1,0-.2c.06-.11,5.89-11.57,3.14-19.45a.21.21,0,0,1,.13-.27.22.22,0,0,1,.28.13c2.82,8.05-3.11,19.68-3.17,19.79a.22.22,0,0,1-.29.1A.22.22,0,0,1,182.42,39Z"/>
          <path class="cls-9" d="M184.87,50.6a.2.2,0,0,1,0-.21c.07-.12,7.67-12.45,6.18-17.84a.22.22,0,1,1,.42-.11c1.54,5.56-5.91,17.67-6.23,18.18a.22.22,0,0,1-.3.07A.18.18,0,0,1,184.87,50.6Z"/>
          <path class="cls-9" d="M194.23,24.37a.22.22,0,0,1,.39-.21c3.53,6.15,6.14,5.16,6.17,5.15a.22.22,0,0,1,.28.12.21.21,0,0,1-.11.28c-.12.05-3,1.2-6.72-5.33Z"/>
          <path class="cls-9" d="M200.79,30a.22.22,0,0,1,0-.22c0-.05,3.09-4.58.38-8.84a.22.22,0,0,1,.07-.3.21.21,0,0,1,.3.07c2.87,4.49-.36,9.27-.39,9.31a.21.21,0,0,1-.3.06A.18.18,0,0,1,200.79,30Z"/>
          <path class="cls-9" d="M201.41,34.35a.18.18,0,0,1,0-.16.22.22,0,0,1,.27-.15,5.52,5.52,0,0,0,3.5-.12c2.68-1,4.27-3.87,4.65-6.26a.22.22,0,0,1,.43.07c-.4,2.51-2.08,5.53-4.93,6.6a5.93,5.93,0,0,1-3.77.13A.21.21,0,0,1,201.41,34.35Z"/>
          <path class="cls-9" d="M200.71,43a.3.3,0,0,1,0-.1.21.21,0,0,1,.22-.21c.12,0,11.8.19,13.32-10.78a.21.21,0,0,1,.24-.19.23.23,0,0,1,.19.25C213.08,43.33,201,43.13,200.9,43.13A.22.22,0,0,1,200.71,43Z"/>
          <path class="cls-9" d="M192.2,38a9.68,9.68,0,0,1-.89-5.39.21.21,0,0,1,.23-.2.22.22,0,0,1,.2.24,8.52,8.52,0,0,0,1.8,6.57c2.59,3,7,3.35,7.09,3.35a.21.21,0,0,1,.2.23.23.23,0,0,1-.23.21c-.19,0-4.69-.34-7.39-3.51A7.59,7.59,0,0,1,192.2,38Z"/>
          <path class="cls-9" d="M193.59,30.12a.22.22,0,0,1,.09-.29.22.22,0,0,1,.3.09c1.53,2.9,5,4.11,7.73,4.27a.22.22,0,0,1,.21.23.21.21,0,0,1-.23.2c-2.85-.16-6.48-1.43-8.1-4.5Z"/>
          <path class="cls-9" d="M196.56,52.06a.22.22,0,0,1,.28-.3c.1,0,9.3,4.09,20.56-4.55a.23.23,0,0,1,.31,0,.22.22,0,0,1,0,.31c-11.48,8.8-20.91,4.64-21,4.6A.24.24,0,0,1,196.56,52.06Z"/>
          <path class="cls-9" d="M190.14,47.06a11.76,11.76,0,0,1-1.2-4.4.22.22,0,1,1,.43,0c.65,7.63,7,8.89,7,8.9a.22.22,0,1,1-.07.43A9.61,9.61,0,0,1,190.14,47.06Z"/>
          <path class="cls-7" d="M216.82,81.06c-3.28-2.28-6.87-4.19-10.3-6.24-6.25-3.75-12.69-7.17-18.9-11a310.75,310.75,0,0,0-32.85-17.48,253.4,253.4,0,0,0-23.65-9.48c-2.85-1-5.09-1.64-6.62-2.06a8.55,8.55,0,0,0-2.38-.49,11,11,0,0,0,2.23.94c1.48.56,3.66,1.37,6.46,2.46,5.58,2.18,13.6,5.48,23.26,10.12,2.83,1.6,5.9,2.89,8.8,4.38,4.83,2.5,9.57,5.14,14.26,7.88,2.65,1.54,5.28,3.12,7.91,4.71l4.22,2.57c4.7,2.86,9.42,5.64,14,8.62a63.65,63.65,0,0,1,8.85,6.55q.6.56,1.17,1.14,3.31-.21,6.66-.29C219,82.59,217.9,81.81,216.82,81.06Z"/>
        </g>
      </g>
    </g>
  </g>
</svg>
