<svg id="Layer_1" data-name="Layer 1" xmlns="http://www.w3.org/2000/svg" width="224.51" height="189.46" viewBox="0 0 224.51 189.46">
  <defs>
    <style>
      .cls-1 {
        opacity: 0.5;
      }

      .cls-2 {
        fill: #fffffa;
      }

      .cls-3 {
        fill: #3d8ea1;
      }

      .cls-4 {
        fill: #7bb8d5;
      }

      .cls-5 {
        fill: #9ad0e8;
      }

      .cls-6 {
        fill: #d8f4ff;
      }

      .cls-7 {
        fill: #fcffff;
      }

      .cls-8 {
        fill: #fffffb;
      }

      .cls-9 {
        fill: #2790ad;
      }

      .cls-10 {
        fill: #74b7d1;
      }

      .cls-11 {
        fill: #99d1ec;
      }

      .cls-12 {
        fill: #d3f5ff;
      }

      .cls-13 {
        fill: #fffcfc;
      }

      .cls-14 {
        fill: #41a022;
      }

      .cls-15, .cls-19 {
        fill: none;
        stroke-miterlimit: 10;
      }

      .cls-15 {
        stroke: #38841c;
        stroke-width: 0.65px;
      }

      .cls-16 {
        fill: #204910;
      }

      .cls-16, .cls-21 {
        opacity: 0.3;
      }

      .cls-17 {
        fill: #8fc12f;
        opacity: 0.4;
      }

      .cls-18 {
        fill: #48bc28;
      }

      .cls-19 {
        stroke: #45a525;
        stroke-width: 1.3px;
      }

      .cls-20 {
        fill: #b0e573;
      }

      .cls-21 {
        fill: #b6f261;
      }

      .cls-22 {
        fill: #73b5cb;
      }

      .cls-23 {
        fill: #92ceea;
      }

      .cls-24 {
        fill: #fefefe;
      }
    </style>
  </defs>
  <g>
    <path class="cls-1" d="M197.25,188.33a25.62,25.62,0,0,1-9.13-1.71c-.63-.24-1.27-.51-1.89-.82a22.94,22.94,0,0,1-12.62-16.21,33.68,33.68,0,0,1-.55-10.65A48,48,0,0,1,160,164.66c-.66.18-1.42.37-2.2.54a4,4,0,0,1-.48.09c-1.34.22-2.67.37-3.95.46-1.07.09-2.16.13-3.23.13-18.44,0-29.32-11.85-34-18.6h-1.62a116.69,116.69,0,0,1-12.44-.67,80.49,80.49,0,0,1-13-2.24,100.15,100.15,0,0,1-9.78-2.85c-9.81-2.9-34.06-12.78-52.34-42.74a110.59,110.59,0,0,1-8.77-17.21A56.55,56.55,0,0,1,12.39,60a34.46,34.46,0,0,1,.31-11,32.13,32.13,0,0,1,4.68-10.87,8.74,8.74,0,0,1-1.14.08A8,8,0,0,1,8.9,27.15a5.44,5.44,0,0,1,.22-.5l3-6.25a8.1,8.1,0,0,1,3.54-3.64c.18-.09.36-.18.54-.25a2.87,2.87,0,0,1,.37-.15,35.39,35.39,0,0,1,13-2.32,54.14,54.14,0,0,1,13.29,1.79c1,.25,2,.52,3,.82C49,12.49,54.41,8.91,62.54,7.24A51.45,51.45,0,0,1,73.66,6.13a102,102,0,0,1,26,3.89c22.09,6.77,30.28,16.05,36.61,25.88l.41.25a8,8,0,0,1,3.86,6.7c1,1.59,2,3.21,3.06,4.83.85,1.26,2.57,4.07,5.26,8.57,4.19,7,9.7,16.43,12.21,20.73a14.82,14.82,0,0,1,2.12,3.6c12.84,20.69,25.11,32.45,30,36.73,1,.78,2.07,1.62,3.15,2.55a15.78,15.78,0,0,0,2.26,1.32,8,8,0,0,1,5.43,9.5l0,.12a8.2,8.2,0,0,1-1,2.41c5.47,4.57,16.55,13.93,18.18,27.59a8.46,8.46,0,0,1,0,.87c.2,21.65-14.36,25-19.14,26.13a21.23,21.23,0,0,1-4.81.53Z"/>
    <path class="cls-2" d="M192.25,183.33a25.62,25.62,0,0,1-9.13-1.71c-.63-.24-1.27-.51-1.89-.82a22.94,22.94,0,0,1-12.62-16.21,33.68,33.68,0,0,1-.55-10.65A48,48,0,0,1,155,159.66c-.66.18-1.42.37-2.2.54a4,4,0,0,1-.48.09c-1.34.22-2.67.37-3.95.46-1.07.09-2.16.13-3.23.13-18.44,0-29.32-11.85-34-18.6h-1.62A116.69,116.69,0,0,1,97,141.62a80.49,80.49,0,0,1-13-2.24,100.15,100.15,0,0,1-9.78-2.85c-9.81-2.9-34.06-12.78-52.34-42.74a110.59,110.59,0,0,1-8.77-17.21A56.55,56.55,0,0,1,7.39,55,34.46,34.46,0,0,1,7.7,44a32.13,32.13,0,0,1,4.68-10.87,8.74,8.74,0,0,1-1.14.08A8,8,0,0,1,3.9,22.15a5.44,5.44,0,0,1,.22-.5l3-6.25a8.1,8.1,0,0,1,3.54-3.64c.18-.09.36-.18.54-.25a2.87,2.87,0,0,1,.37-.15A35.39,35.39,0,0,1,24.57,9a54.14,54.14,0,0,1,13.29,1.79c1,.25,2,.52,3,.82C44,7.49,49.41,3.91,57.54,2.24A51.45,51.45,0,0,1,68.66,1.13,102,102,0,0,1,94.61,5c22.09,6.77,30.28,16.05,36.61,25.88l.41.25a8,8,0,0,1,3.86,6.7c1,1.59,2,3.21,3.06,4.83.85,1.26,2.57,4.07,5.26,8.57,4.19,7,9.7,16.43,12.21,20.73a14.82,14.82,0,0,1,2.12,3.6c12.84,20.69,25.11,32.45,30,36.73,1,.78,2.07,1.62,3.15,2.55a15.78,15.78,0,0,0,2.26,1.32,8,8,0,0,1,5.43,9.5l0,.12a8.2,8.2,0,0,1-1,2.41c5.47,4.57,16.55,13.93,18.18,27.59a8.46,8.46,0,0,1,0,.87c.2,21.65-14.36,25-19.14,26.13a21.23,21.23,0,0,1-4.81.53Z"/>
    <g>
      <g>
        <path class="cls-3" d="M183.88,121.89s-8,23.87-31,30c18.3-8.44,24.76-28.73,24.76-28.73l-62.15,11-.06-.13Z"/>
        <path class="cls-4" d="M177.65,123.2s-6.46,20.29-24.76,28.73c-.61.17-1.23.32-1.86.46-1.11.18-2.21.31-3.27.39,13-6.28,19.89-18.56,22.65-24.72a2.19,2.19,0,0,0-2.38-3l-52.47,9.27-.06-.12Z"/>
        <path class="cls-5" d="M170.41,128.06c-2.76,6.16-9.64,18.44-22.65,24.72-21.3,1.57-31-16.17-32.2-18.49L168,125A2.19,2.19,0,0,1,170.41,128.06Z"/>
        <path class="cls-6" d="M119.37,133.75s27.07-4.39,39.26,1.66c2.78,1.44-4.33,10.84-13.25,11.13S122.73,143.07,119.37,133.75Z"/>
        <path class="cls-7" d="M137.32,141.16s1.34-3.27,2.78-3.55,15,0,15.17,1-1.45,5.27-8.93,5.27S137.32,141.16,137.32,141.16Z"/>
        <path class="cls-8" d="M138.47,136.93s-6.33-1.73-8.25-1.34-3.84.76-4.23,1.34,7.2,3.55,9.31,4.13S138.47,136.93,138.47,136.93Z"/>
      </g>
      <g>
        <path class="cls-9" d="M208.2,156.75c.13,14.38-7.37,17-12.95,18.26a16.58,16.58,0,0,1-9.26-.85,15.88,15.88,0,0,0,7.12.18c5.58-1.29,13.09-3.88,12.95-18.26-1.22-10.24-10.05-18-15.52-22.52-4.34-3.51-4.8-8.53-4.34-9.9,0-.15.06-.29.09-.41l2.33-.25-.28,1.33c-.46,1.37,0,6.38,4.34,9.89C198.15,138.79,207,146.51,208.2,156.75Z"/>
        <path class="cls-10" d="M206.06,156.08c.14,14.38-7.37,17-12.95,18.26a15.88,15.88,0,0,1-7.12-.18c-.43-.17-.86-.35-1.28-.56a15.51,15.51,0,0,0,6.44,0c5.58-1.29,13.08-3.88,12.95-18.26-1.22-10.24-10-18-15.52-22.53a11.46,11.46,0,0,1-4.45-9.36l2.16-.24c0,.12-.06.26-.09.41-.46,1.37,0,6.39,4.34,9.9C196,138.12,204.84,145.84,206.06,156.08Z"/>
        <path class="cls-11" d="M204.1,155.38c.13,14.38-7.37,17-12.95,18.26a15.51,15.51,0,0,1-6.44,0,14.9,14.9,0,0,1-8.28-10.7c-2.45-11.36,3.83-21.92,6.82-28,2.53-8.35-1.68-11.15-1.68-11.15l2.56-.28a11.46,11.46,0,0,0,4.45,9.36C194.05,137.42,202.88,145.14,204.1,155.38Z"/>
        <g>
          <path class="cls-12" d="M185.21,134.71s-10.21,16.44-7,26.37,7.81,10.84,13.6,9.69,6.5-10.42,4.5-15.85S186.82,135.48,185.21,134.71Z"/>
          <path class="cls-13" d="M182.4,142.56s-9.76,18.72,1.95,26.24c1.23.66,1.86-1.65,1.82-1.83S183.49,145.26,182.4,142.56Z"/>
        </g>
      </g>
      <g>
        <path class="cls-14" d="M50.85,24.38s-21-11.75-36.52-5.52l-3,6.26S25.57,17.07,49,25Z"/>
        <path class="cls-15" d="M50.85,24.38s-21-11.75-36.52-5.52l-3,6.26S25.57,17.07,49,25Z"/>
        <path class="cls-16" d="M11.33,25.12S25.3,16.65,49,25l.85-.27s-24.66-10-37.91-.77Z"/>
        <path class="cls-17" d="M14.33,18.86s12.16-4.61,28.74,2c0,0-14.81-5.05-28.84-1.72Z"/>
        <path class="cls-18" d="M78,75.22c-45.63-43-32.08-52.38-32.08-52.38C43.39,15.12,57,2.75,92.76,13.32c27.38,8.1,31.71,22.15,52.68,58,23.58,40.24,42.45,51.67,45.78,52.56C170.47,119.47,112,107.35,78,75.22"/>
        <path class="cls-19" d="M78,75.22c-45.63-43-32.08-52.38-32.08-52.38C43.39,15.12,57,2.75,92.76,13.32c27.38,8.1,31.71,22.15,52.68,58,23.58,40.24,42.45,51.67,45.78,52.56C170.47,119.47,112,107.35,78,75.22Z"/>
        <path class="cls-14" d="M15.51,45.72c2.86-13,18.31-23.61,30.37-22.88,0,0-.54,30.2,46.73,61.43,39.06,25.8,77.34,35.2,98.09,39.56a4.34,4.34,0,0,0,.5.11c-14.83-2.27-44.75,10-80.82,10.34C36.89,134.9,11.5,64,15.51,45.72"/>
        <path class="cls-15" d="M15.51,45.72c2.86-13,18.31-23.61,30.37-22.88,0,0-.54,30.2,46.73,61.43,39.06,25.8,77.34,35.2,98.09,39.56a4.34,4.34,0,0,0,.5.11c-14.83-2.27-44.75,10-80.82,10.34C36.89,134.9,11.5,64,15.51,45.72Z"/>
        <path class="cls-20" d="M105.33,134.14s-.07-.14-.27-.36l-.89-1a30.6,30.6,0,0,1-3.09-4.33,51,51,0,0,1-3.65-7.75c-1.2-3.16-2.35-6.87-3.52-11.16-.83-3-1.68-6.42-2.56-9.77S89.53,93.06,88.48,90a37.52,37.52,0,0,0-3.43-7.63,16.82,16.82,0,0,0-1.62-2.18l-.29-.31-.23-.23-.18-.18.18.19.22.22.28.32A14.59,14.59,0,0,1,85,82.41,36.33,36.33,0,0,1,88.21,90c1,3,1.81,6.32,2.64,9.66s1.61,6.69,2.43,9.75a109.24,109.24,0,0,0,3.5,11.22,47.52,47.52,0,0,0,3.8,7.92,25.55,25.55,0,0,0,3.37,4.42,13.81,13.81,0,0,0,1,.95c.23.19.35.27.37.25"/>
        <path class="cls-20" d="M57.12,54.15a16.61,16.61,0,0,0,1.1,1.9,19.6,19.6,0,0,1,1.07,2.48,29.25,29.25,0,0,1,1,3.61,81.64,81.64,0,0,1,1.39,10.63c.35,4.32.58,9.42,1,15.44a133.48,133.48,0,0,0,1.74,13.88A63.75,63.75,0,0,0,68.53,116a40.44,40.44,0,0,0,3,5.73,34.32,34.32,0,0,0,3.17,4.24c.49.57,1,1,1.38,1.48l1.09,1,1,.83-.94-.85c-.3-.29-.66-.65-1.07-1.07s-.87-.91-1.34-1.49a33.57,33.57,0,0,1-3.07-4.26,41.1,41.1,0,0,1-2.89-5.71,63.6,63.6,0,0,1-3.77-13.74c-.81-4.77-1.24-9.51-1.55-13.77-.43-6-.64-11.1-1-15.44A72,72,0,0,0,61,62.19a26.71,26.71,0,0,0-1.15-3.72,16.45,16.45,0,0,0-1.27-2.56c-.83-1.3-1.44-1.8-1.49-1.76"/>
        <path class="cls-20" d="M45.17,25.19c-.12.09.33.66.54,2.12a32.16,32.16,0,0,1,.06,6.8c-.2,3.09-.62,7-1.11,11.89s-1,10.66-1.29,17.49a125.73,125.73,0,0,0,.35,15.63c.26,2.69.61,5.36,1.08,7.93a67.41,67.41,0,0,0,1.78,7.34,55.36,55.36,0,0,0,2.29,6.26,50.35,50.35,0,0,0,2.4,4.74c.75,1.29,1.41,2.3,1.88,3s.73,1,.73,1l-.7-1.06c-.45-.69-1.07-1.71-1.79-3s-1.49-2.93-2.25-4.78A55.79,55.79,0,0,1,47,94.29,71.3,71.3,0,0,1,45.45,87c-.41-2.56-.71-5.21-.9-7.87a134.58,134.58,0,0,1-.12-15.51c.3-6.79.89-12.56,1.36-17.42s.85-8.82,1-12a25,25,0,0,0-.44-7,4.93,4.93,0,0,0-.7-1.62c-.24-.32-.41-.43-.45-.4"/>
        <path class="cls-20" d="M113.57,97.3s.22.31.67.91A22.27,22.27,0,0,1,116,101c.7,1.3,1.48,3,2.36,5s1.87,4.43,3.06,7.26c.85,2,1.83,4.24,2.93,6.48A56.63,56.63,0,0,0,128,126.2c.67,1,1.35,1.89,2,2.69a22,22,0,0,0,1.9,2c.58.52,1.07.89,1.4,1.14l.39.27.14.09-.14-.09c-.08-.07-.21-.16-.38-.28-.33-.26-.81-.64-1.37-1.17a20.94,20.94,0,0,1-1.84-2,26.65,26.65,0,0,1-1.92-2.67,54.71,54.71,0,0,1-3.46-6.39c-1.05-2.22-2-4.43-2.81-6.43-1.16-2.81-2.13-5.22-3-7.26a53.55,53.55,0,0,0-2.47-5c-.38-.67-.74-1.24-1.08-1.73a12.29,12.29,0,0,0-.92-1.19,3.41,3.41,0,0,0-.88-.82"/>
        <path class="cls-20" d="M147.42,112.76c-.07.06,0,.22.13.49s.15.32.27.52.23.46.34.77a13.71,13.71,0,0,1,.68,2.49c.21,1.07.35,2.38.52,3.94a28.21,28.21,0,0,0,.58,3.49,7.48,7.48,0,0,0,1.4,3,4.31,4.31,0,0,0,2,1.34l.41.11.32,0,.28,0-.26-.06-.31-.08-.39-.15a4.12,4.12,0,0,1-1.85-1.47,7.75,7.75,0,0,1-1.15-3c-.22-1.16-.33-2.39-.43-3.5-.14-1.56-.27-2.91-.48-4a9.69,9.69,0,0,0-.81-2.55,4.49,4.49,0,0,0-.45-.75,3.2,3.2,0,0,0-.4-.45c-.25-.2-.39-.27-.45-.2"/>
        <path class="cls-20" d="M56.67,52.53c-.1.14.22.54,1.32.79a13.53,13.53,0,0,0,5.72-.54A85.48,85.48,0,0,0,74.3,49c4.35-1.77,9.51-4.05,15.49-6.44,4.26-1.69,9-3.43,13.53-4.72a54.32,54.32,0,0,1,12.7-2.2,24.54,24.54,0,0,1,8.55,1.07,19.17,19.17,0,0,1,2.18.89l.74.38-.7-.43a21.92,21.92,0,0,0-2.1-1A23.24,23.24,0,0,0,116.3,35a50,50,0,0,0-12.72,1.77A121.79,121.79,0,0,0,90,41.28c-6,2.33-11.19,4.59-15.51,6.36A106.75,106.75,0,0,1,64,51.52a20.69,20.69,0,0,1-5.61,1c-1.12,0-1.61-.15-1.73,0"/>
        <path class="cls-20" d="M75.76,72c0,.06.16.1.45.13l.56,0a5.3,5.3,0,0,0,.78,0,21,21,0,0,0,5.23-1.22A62.91,62.91,0,0,0,91,67.15c3.24-1.67,7-3.81,11.46-6.11,1.59-.83,3.29-1.65,5-2.47s3.6-1.58,5.49-2.26a51.51,51.51,0,0,1,5.69-1.72c1-.25,1.91-.4,2.84-.57.46-.09.94-.13,1.4-.19s.91-.13,1.37-.14c.91,0,1.78-.14,2.63-.1h1.24c.41,0,.8.06,1.19.09l1.12.1,1.06.16,1,.16c.31.06.6.14.88.2.56.15,1.07.25,1.51.38l1.1.36.93.31L136,55l-1.09-.4c-.43-.15-.94-.27-1.49-.43l-.89-.24-1-.19-1-.21c-.37-.06-.75-.09-1.14-.14l-1.2-.13-1.26-.06c-.87-.06-1.76,0-2.69,0-.47,0-.93.07-1.4.1s-1,.08-1.43.15c-1,.14-1.94.27-2.92.49a48,48,0,0,0-5.86,1.59c-1.93.64-3.81,1.39-5.63,2.16s-3.54,1.6-5.15,2.41c-4.55,2.27-8.3,4.39-11.51,6.06a80.4,80.4,0,0,1-8,3.8,30.71,30.71,0,0,1-4.91,1.51,7.21,7.21,0,0,1-.72.15c-.21,0-.38.07-.52.11s-.4.13-.4.2"/>
        <path class="cls-20" d="M95.12,84.41c-.23.27-.08.63.62,1a9.64,9.64,0,0,0,4.35.24,61.76,61.76,0,0,0,9.42-2.15c4-1.16,8.95-2.8,14.54-4.47a107,107,0,0,1,12.2-3c3.94-.7,7.4-.76,9.85-.08a6.81,6.81,0,0,1,4.52,3.49c.15.35.31.65.41.94s.15.58.2.81l.17.69s0-.28-.09-.77c0-.24-.06-.54-.1-.9s-.19-.66-.29-1.06A6.75,6.75,0,0,0,147,74.89c-2.27-1-5.58-1.17-9.42-.7a80.43,80.43,0,0,0-12,2.57c-5.56,1.56-10.46,3.15-14.45,4.32a92.66,92.66,0,0,1-9.44,2.4c-4.63.87-6,.31-6.54.93"/>
        <path class="cls-20" d="M146.65,111.73c0,.12.18.25.65.39a7.42,7.42,0,0,0,2.27.2,13.4,13.4,0,0,0,1.72-.2c.63-.13,1.31-.28,2-.5,1.47-.41,3.13-1,5.1-1.58a35.24,35.24,0,0,1,4.59-1,28.41,28.41,0,0,1,4.71-.26,34,34,0,0,1,3.64.33l1,.18.39.07-.38-.11-1-.27a30.18,30.18,0,0,0-3.65-.63,24.52,24.52,0,0,0-4.87-.07,27.92,27.92,0,0,0-4.83.83c-2.05.54-3.73,1.12-5.14,1.53a20.55,20.55,0,0,1-3.49.77c-1.83.22-2.71.07-2.77.33"/>
        <path class="cls-20" d="M46.37,27.17c0,.14.36.41,1.33.77a16.88,16.88,0,0,0,4.72.68,41.51,41.51,0,0,0,8.23-.88c3.31-.65,7.18-1.68,11.66-3,6.35-1.88,14-4.42,20.29-5.58,1.57-.31,3-.5,4.37-.65.66-.06,1.29-.12,1.88-.15l1.62-.05,1.32.05c.39,0,.72.05,1,.07l.83.08-.82-.13c-.27,0-.6-.1-1-.13l-1.33-.11-1.63,0c-.59,0-1.22,0-1.9,0-1.34.09-2.84.2-4.42.45-6.38.88-14.19,3.12-20.55,4.9-4.47,1.26-8.31,2.25-11.56,2.9a48.68,48.68,0,0,1-8,1c-4.16.11-5.95-.61-6.07-.25"/>
        <path class="cls-20" d="M113.81,98.24c-.18.22,0,.54.62.9a8.72,8.72,0,0,0,3.83.51,49.43,49.43,0,0,0,8.11-1.2c3.44-.74,7.65-1.82,12.44-2.88a85,85,0,0,1,10.48-1.78,21.33,21.33,0,0,1,8.64.62,7.42,7.42,0,0,1,4.2,3.35c.16.31.32.58.43.85s.17.51.23.71c.12.4.19.61.19.61s0-.24-.12-.67c-.05-.21-.1-.47-.16-.79s-.21-.59-.33-.94a7.33,7.33,0,0,0-3.74-4,18.1,18.1,0,0,0-8.32-1.27A65.71,65.71,0,0,0,140,93.71c-4.76,1-9,2-12.37,2.75a76.11,76.11,0,0,1-8.11,1.43c-4,.43-5.23-.15-5.67.35"/>
        <path class="cls-20" d="M45.88,22.84a27.09,27.09,0,0,0,.53,5.76,43.07,43.07,0,0,0,1.39,5.59,60.48,60.48,0,0,0,4.51,10.53A84.61,84.61,0,0,0,66.05,63c10.68,11,23.52,19.62,36.94,27,.83.49,1.68.94,2.53,1.38l2.56,1.33L110.63,94l1.28.66,1.3.63,5.21,2.47c.87.41,1.73.84,2.61,1.23l2.65,1.15,5.29,2.33c.87.4,1.77.76,2.66,1.12l2.69,1.07,5.36,2.16c1.8.7,3.61,1.35,5.42,2,14.46,5.4,29.23,10,44.08,14.51a355.61,355.61,0,0,1-45.07-11.7c-1.85-.62-3.7-1.2-5.54-1.85l-5.47-2-2.74-1c-.91-.34-1.82-.68-2.72-1.06l-5.4-2.24-2.7-1.12c-.89-.39-1.77-.82-2.66-1.23l-5.3-2.47-1.33-.62-1.3-.66-2.6-1.34-2.61-1.34c-.87-.44-1.74-.88-2.59-1.38l-5.08-2.92-1.27-.73-1.24-.78-2.48-1.57c-1.66-1-3.32-2.07-4.91-3.22s-3.24-2.21-4.8-3.4L76.73,77.1c-1.51-1.25-3-2.55-4.47-3.82-.76-.63-1.46-1.32-2.17-2l-2.13-2c-.72-.67-1.39-1.39-2.06-2.11l-2-2.15c-.69-.7-1.3-1.48-1.94-2.23L60.06,60.5c-.62-.76-1.19-1.56-1.79-2.34L57.39,57c-.29-.39-.58-.79-.84-1.21-1.07-1.65-2.19-3.26-3.14-5s-1.88-3.45-2.76-5.21a58.66,58.66,0,0,1-3.87-11.1,34.79,34.79,0,0,1-.9-11.62"/>
        <path class="cls-21" d="M45.75,20.62S91.18-2.77,123.68,39c7.16,9.19,11.54,27.19,18.62,36.46,34.78,45.51,31.95,35.1,44.17,45.8,0,0-17.25-12.38-35.55-42.13,0,0-16-27.56-19-32-9.55-14.26-12.13-26-39.61-34.45,0,0-39.66-11.93-46.55,7.94"/>
        <path class="cls-16" d="M37.29,24.59S12.56,39.85,27.53,76.72c0,0,33.45,62,91.34,54.35,0,0,55-9.4,63-7.67,0,0-12.48,1.25-33.38,6.79,0,0-44.85,9.11-67.66-.28,0,0-39.19-5.93-60.45-56.7,0,0-19.13-35.18,16.87-48.62"/>
      </g>
      <g>
        <path class="cls-22" d="M112,65.53c-1.31,6.46-5.46,16.81-28,19.74C70.4,87,62.05,82.82,57.56,79.2a10.88,10.88,0,0,1-4-7.37c3.53,4.24,13.76,13,35.23,8C107,74.63,108.93,70.21,111,60.91A7.05,7.05,0,0,1,112,65.53Z"/>
        <path class="cls-23" d="M89.94,47.49C80.48,47,56.39,47,53.58,69.38a10.58,10.58,0,0,0,0,2.45c3.53,4.24,13.76,13,35.23,8C107,74.63,108.93,70.21,111,60.91h0C107.78,54.82,97.93,47.9,89.94,47.49Zm16.17,16.79c-8.29,9.9-34.73,10-34.73,10-4.94,1.26-11.8-1.9-13.25-5.06s-2.06-14,12.83-18.4a45.6,45.6,0,0,1,28.74.76C102,52.42,107.82,59.67,106.11,64.28Z"/>
        <path class="cls-12" d="M99.7,51.57A45.6,45.6,0,0,0,71,50.81c-14.89,4.36-14.28,15.24-12.83,18.4s8.31,6.32,13.25,5.06c0,0,26.44-.09,34.73-10C107.82,59.67,102,52.42,99.7,51.57ZM83.17,60c-3.82,2-16.67,4.17-19.51,2.65s-.4-7.25,5.26-9.62,16.74-4.77,21.16-1.28C90.08,51.71,87,58,83.17,60Zm9.69-.74C88.57,60,86.26,59.1,87,58s4.28-6.14,4.28-6.14c3,.33,6.39,1.91,6.2,3.69S97.14,58.49,92.86,59.22Z"/>
        <path class="cls-24" d="M90.08,51.71S87,58,83.17,60,66.5,64.13,63.66,62.61s-.4-7.25,5.26-9.62S85.66,48.22,90.08,51.71Z"/>
        <path class="cls-2" d="M97.47,55.53c-.2,1.78-.33,3-4.61,3.69S86.26,59.1,87,58s4.28-6.14,4.28-6.14C94.23,52.17,97.66,53.75,97.47,55.53Z"/>
      </g>
    </g>
  </g>
</svg>
