<svg xmlns="http://www.w3.org/2000/svg" xmlns:xlink="http://www.w3.org/1999/xlink" width="400.23" height="291.06" viewBox="0 0 400.23 291.06">
  <defs>
    <style>
      .cls-1 {
        mask: url(#mask);
        filter: url(#luminosity-noclip-5);
      }

      .cls-13, .cls-2, .cls-26, .cls-33, .cls-4, .cls-44, .cls-45, .cls-51, .cls-6, .cls-68, .cls-76, .cls-8, .cls-81 {
        mix-blend-mode: multiply;
      }

      .cls-2 {
        fill: url(#radial-gradient);
      }

      .cls-3 {
        mask: url(#mask-2);
        filter: url(#luminosity-noclip-14);
      }

      .cls-4 {
        fill: url(#radial-gradient-2);
      }

      .cls-5 {
        mask: url(#mask-3);
        filter: url(#luminosity-noclip-25);
      }

      .cls-6 {
        fill: url(#radial-gradient-3);
      }

      .cls-7 {
        mask: url(#mask-4);
        filter: url(#luminosity-noclip-8);
      }

      .cls-8 {
        fill: url(#radial-gradient-4);
      }

      .cls-9 {
        isolation: isolate;
      }

      .cls-10, .cls-45, .cls-53 {
        opacity: 0.3;
      }

      .cls-11 {
        fill: #ff0;
      }

      .cls-12 {
        fill: #dcae50;
        stroke-width: 2px;
      }

      .cls-12, .cls-55 {
        stroke: #886a29;
        stroke-miterlimit: 10;
      }

      .cls-13 {
        opacity: 0.8;
      }

      .cls-14 {
        fill: url(#radial-gradient-5);
      }

      .cls-15 {
        fill: url(#radial-gradient-6);
      }

      .cls-16 {
        fill: url(#radial-gradient-7);
      }

      .cls-17 {
        fill: url(#radial-gradient-8);
      }

      .cls-18 {
        fill: url(#radial-gradient-9);
      }

      .cls-19 {
        fill: url(#radial-gradient-10);
      }

      .cls-20 {
        fill: url(#radial-gradient-11);
      }

      .cls-21 {
        fill: url(#radial-gradient-12);
      }

      .cls-22 {
        fill: url(#radial-gradient-13);
      }

      .cls-23 {
        fill: url(#radial-gradient-14);
      }

      .cls-24 {
        fill: url(#radial-gradient-15);
      }

      .cls-25 {
        mask: url(#mask-5);
      }

      .cls-26, .cls-27, .cls-30, .cls-33, .cls-34, .cls-36, .cls-38, .cls-40, .cls-44 {
        opacity: 0.7;
      }

      .cls-26 {
        fill: url(#radial-gradient-16);
      }

      .cls-27 {
        fill: url(#radial-gradient-17);
      }

      .cls-28 {
        mask: url(#mask-6);
      }

      .cls-29, .cls-66, .cls-68, .cls-76 {
        fill: #daa44b;
      }

      .cls-29 {
        opacity: 0.01;
      }

      .cls-30 {
        fill: url(#radial-gradient-18);
      }

      .cls-31 {
        mask: url(#mask-7);
      }

      .cls-32 {
        mask: url(#mask-8);
      }

      .cls-33 {
        fill: url(#radial-gradient-19);
      }

      .cls-34 {
        fill: url(#radial-gradient-20);
      }

      .cls-35 {
        mask: url(#mask-9);
      }

      .cls-36 {
        fill: url(#radial-gradient-21);
      }

      .cls-37 {
        mask: url(#mask-10);
      }

      .cls-38 {
        fill: url(#radial-gradient-22);
      }

      .cls-39 {
        mask: url(#mask-11);
      }

      .cls-40 {
        fill: url(#radial-gradient-23);
      }

      .cls-41 {
        mask: url(#mask-12);
      }

      .cls-42 {
        mask: url(#mask-13);
      }

      .cls-43 {
        mask: url(#mask-14);
      }

      .cls-44 {
        fill: url(#radial-gradient-24);
      }

      .cls-46 {
        fill: url(#radial-gradient-25);
      }

      .cls-47 {
        mix-blend-mode: screen;
      }

      .cls-47, .cls-49 {
        opacity: 0.5;
      }

      .cls-48, .cls-55 {
        fill: #e9c05f;
      }

      .cls-50 {
        fill: #d5a13e;
      }

      .cls-51 {
        opacity: 0.2;
      }

      .cls-52, .cls-81 {
        fill: #c5923b;
      }

      .cls-54 {
        fill: #63411c;
      }

      .cls-56 {
        fill: url(#radial-gradient-26);
      }

      .cls-57 {
        fill: url(#radial-gradient-27);
      }

      .cls-58, .cls-68 {
        opacity: 0.27;
      }

      .cls-58 {
        fill: url(#radial-gradient-28);
      }

      .cls-59 {
        fill: url(#radial-gradient-29);
      }

      .cls-60 {
        fill: url(#radial-gradient-30);
      }

      .cls-61 {
        fill: url(#radial-gradient-31);
      }

      .cls-62 {
        fill: url(#radial-gradient-32);
      }

      .cls-63 {
        fill: url(#radial-gradient-33);
      }

      .cls-64 {
        fill: url(#radial-gradient-34);
      }

      .cls-65 {
        fill: url(#radial-gradient-35);
      }

      .cls-67 {
        mask: url(#mask-15);
      }

      .cls-69 {
        mask: url(#mask-16);
      }

      .cls-70 {
        mask: url(#mask-17);
      }

      .cls-71 {
        mask: url(#mask-18);
      }

      .cls-72 {
        fill: url(#radial-gradient-36);
      }

      .cls-73 {
        mask: url(#mask-19);
      }

      .cls-74 {
        mask: url(#mask-20);
      }

      .cls-75 {
        mask: url(#mask-21);
      }

      .cls-76 {
        opacity: 0.36;
      }

      .cls-77 {
        mask: url(#mask-22);
      }

      .cls-78 {
        mask: url(#mask-23);
      }

      .cls-79 {
        mask: url(#mask-24);
      }

      .cls-80 {
        mask: url(#mask-25);
      }

      .cls-82 {
        filter: url(#luminosity-noclip-24);
      }

      .cls-83 {
        filter: url(#luminosity-noclip-23);
      }

      .cls-84 {
        filter: url(#luminosity-noclip-22);
      }

      .cls-85 {
        filter: url(#luminosity-noclip-21);
      }

      .cls-86 {
        filter: url(#luminosity-noclip-20);
      }

      .cls-87 {
        filter: url(#luminosity-noclip-19);
      }

      .cls-88 {
        filter: url(#luminosity-noclip-18);
      }

      .cls-89 {
        filter: url(#luminosity-noclip-17);
      }

      .cls-90 {
        filter: url(#luminosity-noclip-16);
      }

      .cls-91 {
        filter: url(#luminosity-noclip-15);
      }

      .cls-92 {
        filter: url(#luminosity-noclip-13);
      }

      .cls-93 {
        filter: url(#luminosity-noclip-12);
      }

      .cls-94 {
        filter: url(#luminosity-noclip-11);
      }

      .cls-95 {
        filter: url(#luminosity-noclip-10);
      }

      .cls-96 {
        filter: url(#luminosity-noclip-9);
      }

      .cls-97 {
        filter: url(#luminosity-noclip-7);
      }

      .cls-98 {
        filter: url(#luminosity-noclip-6);
      }

      .cls-99 {
        filter: url(#luminosity-noclip-4);
      }

      .cls-100 {
        filter: url(#luminosity-noclip-3);
      }

      .cls-101 {
        filter: url(#luminosity-noclip-2);
      }

      .cls-102 {
        filter: url(#luminosity-noclip);
      }
    </style>
    <filter id="luminosity-noclip" x="192.44" y="-10819.23" width="10.61" height="32766" filterUnits="userSpaceOnUse" color-interpolation-filters="sRGB">
      <feFlood flood-color="#fff" result="bg"/>
      <feBlend in="SourceGraphic" in2="bg"/>
    </filter>
    <mask id="mask" x="192.44" y="-10819.23" width="10.61" height="32766" maskUnits="userSpaceOnUse">
      <g class="cls-102"/>
    </mask>
    <radialGradient id="radial-gradient" cx="198.39" cy="270.74" r="8.06" gradientTransform="translate(2.66 -93.03) scale(0.98 1.03)" gradientUnits="userSpaceOnUse">
      <stop offset="0.08" stop-color="#fff"/>
      <stop offset="1"/>
    </radialGradient>
    <filter id="luminosity-noclip-2" x="201.55" y="-10819.23" width="10.59" height="32766" filterUnits="userSpaceOnUse" color-interpolation-filters="sRGB">
      <feFlood flood-color="#fff" result="bg"/>
      <feBlend in="SourceGraphic" in2="bg"/>
    </filter>
    <mask id="mask-2" x="201.55" y="-10819.23" width="10.59" height="32766" maskUnits="userSpaceOnUse">
      <g class="cls-101"/>
    </mask>
    <radialGradient id="radial-gradient-2" cx="207.64" cy="245.56" r="8.05" xlink:href="#radial-gradient"/>
    <filter id="luminosity-noclip-3" x="171.63" y="-10819.23" width="190.02" height="32766" filterUnits="userSpaceOnUse" color-interpolation-filters="sRGB">
      <feFlood flood-color="#fff" result="bg"/>
      <feBlend in="SourceGraphic" in2="bg"/>
    </filter>
    <mask id="mask-3" x="171.63" y="-10819.23" width="190.02" height="32766" maskUnits="userSpaceOnUse">
      <g class="cls-100"/>
    </mask>
    <radialGradient id="radial-gradient-3" cx="287.45" cy="217.73" r="172.05" gradientTransform="translate(2.66 -93.03) scale(0.98 1.03)" gradientUnits="userSpaceOnUse">
      <stop offset="0.14"/>
      <stop offset="0.92" stop-color="#fff"/>
    </radialGradient>
    <filter id="luminosity-noclip-4" x="195.32" y="-10819.23" width="10.55" height="32766" filterUnits="userSpaceOnUse" color-interpolation-filters="sRGB">
      <feFlood flood-color="#fff" result="bg"/>
      <feBlend in="SourceGraphic" in2="bg"/>
    </filter>
    <mask id="mask-4" x="195.32" y="-10819.23" width="10.55" height="32766" maskUnits="userSpaceOnUse">
      <g class="cls-99"/>
    </mask>
    <radialGradient id="radial-gradient-4" cx="394.15" cy="205.72" r="7.96" gradientTransform="matrix(0.98, -0.08, 0.08, 1.03, -201.51, -89.14)" xlink:href="#radial-gradient"/>
    <radialGradient id="radial-gradient-5" cx="1932.6" cy="1062.25" r="8.88" gradientTransform="matrix(0.67, -0.76, 0.72, 0.7, -1993.04, 863.89)" gradientUnits="userSpaceOnUse">
      <stop offset="0.14" stop-color="#daa44b"/>
      <stop offset="0.5" stop-color="#c48f40"/>
      <stop offset="0.92" stop-color="#a7722a"/>
    </radialGradient>
    <radialGradient id="radial-gradient-6" cx="-439.95" cy="295.04" r="8.9" gradientTransform="matrix(0.97, 0.19, -0.18, 1.01, 519.04, -39.83)" xlink:href="#radial-gradient-5"/>
    <radialGradient id="radial-gradient-7" cx="845.22" cy="415.33" r="8.91" gradientTransform="matrix(0.94, -0.31, 0.3, 0.98, -815.88, 70.26)" xlink:href="#radial-gradient-5"/>
    <radialGradient id="radial-gradient-8" cx="776.16" cy="393.47" r="5.44" gradientTransform="matrix(0.94, -0.31, 0.3, 0.98, -815.88, 70.26)" xlink:href="#radial-gradient-5"/>
    <radialGradient id="radial-gradient-9" cx="919.75" cy="332.7" r="11.82" gradientTransform="matrix(0.94, -0.31, 0.3, 0.98, -815.88, 70.26)" xlink:href="#radial-gradient-5"/>
    <radialGradient id="radial-gradient-10" cx="-677.61" cy="364.97" r="9.17" gradientTransform="matrix(0.93, 0.34, -0.32, 0.97, 908.95, 45.21)" xlink:href="#radial-gradient-5"/>
    <radialGradient id="radial-gradient-11" cx="-663.8" cy="402.15" r="7.3" gradientTransform="matrix(0.93, 0.34, -0.32, 0.97, 908.95, 45.21)" xlink:href="#radial-gradient-5"/>
    <radialGradient id="radial-gradient-12" cx="323.07" cy="274.86" r="7.28" gradientTransform="matrix(0.98, -0.05, 0.05, 1.03, -132.02, -74.99)" xlink:href="#radial-gradient-5"/>
    <radialGradient id="radial-gradient-13" cx="334.02" cy="248.96" r="5.33" gradientTransform="matrix(0.98, -0.05, 0.05, 1.03, -132.02, -74.99)" xlink:href="#radial-gradient-5"/>
    <radialGradient id="radial-gradient-14" cx="306.41" cy="167.6" r="5.34" gradientTransform="matrix(0.98, -0.05, 0.05, 1.03, -132.02, -74.99)" xlink:href="#radial-gradient-5"/>
    <radialGradient id="radial-gradient-15" cx="331" cy="182.57" r="6.66" gradientTransform="matrix(0.98, -0.05, 0.05, 1.03, -132.02, -74.99)" xlink:href="#radial-gradient-5"/>
    <filter id="luminosity-noclip-5" x="192.44" y="176.46" width="10.61" height="18.81" filterUnits="userSpaceOnUse" color-interpolation-filters="sRGB">
      <feFlood flood-color="#fff" result="bg"/>
      <feBlend in="SourceGraphic" in2="bg"/>
    </filter>
    <mask id="mask-5" x="192.44" y="176.46" width="10.61" height="18.81" maskUnits="userSpaceOnUse">
      <g class="cls-1">
        <path class="cls-2" d="M203.05,185.86c0,5.18-2.38,9.4-5.3,9.4s-5.31-4.22-5.31-9.4,2.38-9.4,5.31-9.4S203.05,180.65,203.05,185.86Z"/>
      </g>
    </mask>
    <radialGradient id="radial-gradient-16" cx="198.39" cy="270.74" r="8.06" gradientTransform="translate(2.66 -93.03) scale(0.98 1.03)" gradientUnits="userSpaceOnUse">
      <stop offset="0.08" stop-color="#a7722a"/>
      <stop offset="1" stop-color="#daa44b"/>
    </radialGradient>
    <radialGradient id="radial-gradient-17" cx="-708.06" cy="373.62" r="8.05" gradientTransform="matrix(0.92, 0.35, -0.34, 0.97, 942.15, 50.19)" xlink:href="#radial-gradient-16"/>
    <filter id="luminosity-noclip-6" x="155.71" y="-10819.23" width="11.69" height="32766" filterUnits="userSpaceOnUse" color-interpolation-filters="sRGB">
      <feFlood flood-color="#fff" result="bg"/>
      <feBlend in="SourceGraphic" in2="bg"/>
    </filter>
    <mask id="mask-6" x="155.71" y="-10819.23" width="11.69" height="32766" maskUnits="userSpaceOnUse">
      <g class="cls-98"/>
    </mask>
    <radialGradient id="radial-gradient-18" cx="957.18" cy="352.93" r="10.64" gradientTransform="matrix(0.93, -0.33, 0.32, 0.98, -862.19, 76.39)" xlink:href="#radial-gradient-16"/>
    <filter id="luminosity-noclip-7" x="133.58" y="-10819.23" width="15.31" height="32766" filterUnits="userSpaceOnUse" color-interpolation-filters="sRGB">
      <feFlood flood-color="#fff" result="bg"/>
      <feBlend in="SourceGraphic" in2="bg"/>
    </filter>
    <mask id="mask-7" x="133.58" y="-10819.23" width="15.31" height="32766" maskUnits="userSpaceOnUse">
      <g class="cls-97"/>
    </mask>
    <filter id="luminosity-noclip-8" x="195.32" y="81.61" width="10.55" height="18.55" filterUnits="userSpaceOnUse" color-interpolation-filters="sRGB">
      <feFlood flood-color="#fff" result="bg"/>
      <feBlend in="SourceGraphic" in2="bg"/>
    </filter>
    <mask id="mask-8" x="195.32" y="81.61" width="10.55" height="18.55" maskUnits="userSpaceOnUse">
      <g class="cls-7">
        <path class="cls-8" d="M205.83,90.46c.36,5.13-1.67,9.46-4.55,9.7s-5.53-3.73-5.91-8.86,1.64-9.46,4.55-9.68S205.44,85.33,205.83,90.46Z"/>
      </g>
    </mask>
    <radialGradient id="radial-gradient-19" cx="394.15" cy="205.72" r="7.96" gradientTransform="matrix(0.98, -0.08, 0.08, 1.03, -201.51, -89.14)" xlink:href="#radial-gradient-16"/>
    <radialGradient id="radial-gradient-20" cx="1993.96" cy="1138.82" r="7.97" gradientTransform="matrix(0.64, -0.79, 0.75, 0.67, -2066.13, 943.44)" xlink:href="#radial-gradient-16"/>
    <filter id="luminosity-noclip-9" x="49.2" y="-10819.23" width="15.16" height="32766" filterUnits="userSpaceOnUse" color-interpolation-filters="sRGB">
      <feFlood flood-color="#fff" result="bg"/>
      <feBlend in="SourceGraphic" in2="bg"/>
    </filter>
    <mask id="mask-9" x="49.2" y="-10819.23" width="15.16" height="32766" maskUnits="userSpaceOnUse">
      <g class="cls-96"/>
    </mask>
    <radialGradient id="radial-gradient-21" cx="-124.7" cy="254.48" r="7.97" gradientTransform="matrix(0.98, 0.06, -0.06, 1.03, 175.87, -86.72)" xlink:href="#radial-gradient-16"/>
    <filter id="luminosity-noclip-10" x="33.27" y="-10819.23" width="10.53" height="32766" filterUnits="userSpaceOnUse" color-interpolation-filters="sRGB">
      <feFlood flood-color="#fff" result="bg"/>
      <feBlend in="SourceGraphic" in2="bg"/>
    </filter>
    <mask id="mask-10" x="33.27" y="-10819.23" width="10.53" height="32766" maskUnits="userSpaceOnUse">
      <g class="cls-95"/>
    </mask>
    <radialGradient id="radial-gradient-22" cx="860.04" cy="426.22" r="7.97" gradientTransform="matrix(0.94, -0.32, 0.31, 0.98, -838.03, 67.98)" xlink:href="#radial-gradient-16"/>
    <filter id="luminosity-noclip-11" x="91.03" y="-10819.23" width="11.4" height="32766" filterUnits="userSpaceOnUse" color-interpolation-filters="sRGB">
      <feFlood flood-color="#fff" result="bg"/>
      <feBlend in="SourceGraphic" in2="bg"/>
    </filter>
    <mask id="mask-11" x="91.03" y="-10819.23" width="11.4" height="32766" maskUnits="userSpaceOnUse">
      <g class="cls-94"/>
    </mask>
    <radialGradient id="radial-gradient-23" cx="607.5" cy="224.51" r="6.72" gradientTransform="matrix(0.97, -0.17, 0.16, 1.02, -449.76, -46.23)" xlink:href="#radial-gradient-16"/>
    <filter id="luminosity-noclip-12" x="171.96" y="-10819.23" width="9.08" height="32766" filterUnits="userSpaceOnUse" color-interpolation-filters="sRGB">
      <feFlood flood-color="#fff" result="bg"/>
      <feBlend in="SourceGraphic" in2="bg"/>
    </filter>
    <mask id="mask-12" x="171.96" y="-10819.23" width="9.08" height="32766" maskUnits="userSpaceOnUse">
      <g class="cls-93"/>
    </mask>
    <filter id="luminosity-noclip-13" x="22.55" y="-10819.23" width="9.09" height="32766" filterUnits="userSpaceOnUse" color-interpolation-filters="sRGB">
      <feFlood flood-color="#fff" result="bg"/>
      <feBlend in="SourceGraphic" in2="bg"/>
    </filter>
    <mask id="mask-13" x="22.55" y="-10819.23" width="9.09" height="32766" maskUnits="userSpaceOnUse">
      <g class="cls-92"/>
    </mask>
    <filter id="luminosity-noclip-14" x="201.55" y="150.5" width="10.59" height="18.81" filterUnits="userSpaceOnUse" color-interpolation-filters="sRGB">
      <feFlood flood-color="#fff" result="bg"/>
      <feBlend in="SourceGraphic" in2="bg"/>
    </filter>
    <mask id="mask-14" x="201.55" y="150.5" width="10.59" height="18.81" maskUnits="userSpaceOnUse">
      <g class="cls-3">
        <path class="cls-4" d="M212.15,159.91c0,5.2-2.37,9.4-5.3,9.4s-5.3-4.2-5.3-9.4,2.38-9.41,5.3-9.41S212.15,154.7,212.15,159.91Z"/>
      </g>
    </mask>
    <radialGradient id="radial-gradient-24" cx="207.64" cy="245.56" r="8.05" xlink:href="#radial-gradient-16"/>
    <radialGradient id="radial-gradient-25" cx="122.75" cy="91.07" r="202.87" gradientTransform="translate(2.66 -93.03) scale(0.98 1.03)" gradientUnits="userSpaceOnUse">
      <stop offset="0" stop-color="#f6dd80"/>
      <stop offset="0.33" stop-color="#e9c05f"/>
      <stop offset="0.6" stop-color="#d5a53e"/>
      <stop offset="1" stop-color="#9b6126"/>
    </radialGradient>
    <radialGradient id="radial-gradient-26" cx="2510.83" cy="2121.27" r="11.6" gradientTransform="matrix(0.32, -0.98, 0.93, 0.33, -2493.44, 1991.87)" xlink:href="#radial-gradient-5"/>
    <radialGradient id="radial-gradient-27" cx="-533.12" cy="316.3" r="10.1" gradientTransform="matrix(0.93, 0.33, -0.31, 0.98, 813.19, -11.62)" xlink:href="#radial-gradient-5"/>
    <radialGradient id="radial-gradient-28" cx="502.08" cy="241.21" r="7.38" gradientTransform="matrix(0.98, -0.1, 0.1, 1.03, -325.6, -73.15)" xlink:href="#radial-gradient-5"/>
    <radialGradient id="radial-gradient-29" cx="1337.18" cy="594.26" r="4.09" gradientTransform="matrix(0.89, -0.45, 0.43, 0.93, -1177.33, 254.76)" xlink:href="#radial-gradient-5"/>
    <radialGradient id="radial-gradient-30" cx="-262.81" cy="304.65" r="4.1" gradientTransform="matrix(0.96, 0.22, -0.21, 1.01, 563.52, -58.29)" xlink:href="#radial-gradient-5"/>
    <radialGradient id="radial-gradient-31" cx="1459.58" cy="679.43" r="4.1" gradientTransform="matrix(0.85, -0.51, 0.49, 0.9, -1352.59, 354.29)" xlink:href="#radial-gradient-5"/>
    <radialGradient id="radial-gradient-32" cx="1760.88" cy="1117.7" r="8.1" gradientTransform="matrix(0.82, -0.86, 0.69, 0.73, -1922.4, 872.3)" xlink:href="#radial-gradient-5"/>
    <radialGradient id="radial-gradient-33" cx="44.48" cy="332.68" r="8.1" gradientTransform="matrix(1.15, 0.16, -0.13, 1.02, 316.84, -114.81)" xlink:href="#radial-gradient-5"/>
    <radialGradient id="radial-gradient-34" cx="1573.35" cy="891.73" r="4.24" gradientTransform="matrix(0.93, -0.73, 0.59, 0.82, -1651.69, 586.69)" xlink:href="#radial-gradient-5"/>
    <radialGradient id="radial-gradient-35" cx="567.05" cy="365.73" r="4.25" gradientTransform="matrix(1.15, -0.13, 0.11, 1.02, -333.84, -81.77)" xlink:href="#radial-gradient-5"/>
    <filter id="luminosity-noclip-15" x="319.88" y="-10819.23" width="10.53" height="32766" filterUnits="userSpaceOnUse" color-interpolation-filters="sRGB">
      <feFlood flood-color="#fff" result="bg"/>
      <feBlend in="SourceGraphic" in2="bg"/>
    </filter>
    <mask id="mask-15" x="319.88" y="-10819.23" width="10.53" height="32766" maskUnits="userSpaceOnUse">
      <g class="cls-91"/>
    </mask>
    <filter id="luminosity-noclip-16" x="287.76" y="-10819.23" width="14.86" height="32766" filterUnits="userSpaceOnUse" color-interpolation-filters="sRGB">
      <feFlood flood-color="#fff" result="bg"/>
      <feBlend in="SourceGraphic" in2="bg"/>
    </filter>
    <mask id="mask-16" x="287.76" y="-10819.23" width="14.86" height="32766" maskUnits="userSpaceOnUse">
      <g class="cls-90"/>
    </mask>
    <filter id="luminosity-noclip-17" x="255.03" y="-10819.23" width="9.83" height="32766" filterUnits="userSpaceOnUse" color-interpolation-filters="sRGB">
      <feFlood flood-color="#fff" result="bg"/>
      <feBlend in="SourceGraphic" in2="bg"/>
    </filter>
    <mask id="mask-17" x="255.03" y="-10819.23" width="9.83" height="32766" maskUnits="userSpaceOnUse">
      <g class="cls-89"/>
    </mask>
    <filter id="luminosity-noclip-18" x="220.82" y="-10819.23" width="6.76" height="32766" filterUnits="userSpaceOnUse" color-interpolation-filters="sRGB">
      <feFlood flood-color="#fff" result="bg"/>
      <feBlend in="SourceGraphic" in2="bg"/>
    </filter>
    <mask id="mask-18" x="220.82" y="-10819.23" width="6.76" height="32766" maskUnits="userSpaceOnUse">
      <g class="cls-88"/>
    </mask>
    <radialGradient id="radial-gradient-36" cx="2010.64" cy="1168.51" r="4.1" gradientTransform="matrix(0.67, -0.75, 0.72, 0.7, -1973.72, 922.76)" xlink:href="#radial-gradient-5"/>
    <filter id="luminosity-noclip-19" x="209.52" y="-10819.23" width="7.9" height="32766" filterUnits="userSpaceOnUse" color-interpolation-filters="sRGB">
      <feFlood flood-color="#fff" result="bg"/>
      <feBlend in="SourceGraphic" in2="bg"/>
    </filter>
    <mask id="mask-19" x="209.52" y="-10819.23" width="7.9" height="32766" maskUnits="userSpaceOnUse">
      <g class="cls-87"/>
    </mask>
    <filter id="luminosity-noclip-20" x="243.57" y="-10819.23" width="7.4" height="32766" filterUnits="userSpaceOnUse" color-interpolation-filters="sRGB">
      <feFlood flood-color="#fff" result="bg"/>
      <feBlend in="SourceGraphic" in2="bg"/>
    </filter>
    <mask id="mask-20" x="243.57" y="-10819.23" width="7.4" height="32766" maskUnits="userSpaceOnUse">
      <g class="cls-86"/>
    </mask>
    <filter id="luminosity-noclip-21" x="326.9" y="-10819.23" width="9.5" height="32766" filterUnits="userSpaceOnUse" color-interpolation-filters="sRGB">
      <feFlood flood-color="#fff" result="bg"/>
      <feBlend in="SourceGraphic" in2="bg"/>
    </filter>
    <mask id="mask-21" x="326.9" y="-10819.23" width="9.5" height="32766" maskUnits="userSpaceOnUse">
      <g class="cls-85"/>
    </mask>
    <filter id="luminosity-noclip-22" x="353.58" y="-10819.23" width="8.07" height="32766" filterUnits="userSpaceOnUse" color-interpolation-filters="sRGB">
      <feFlood flood-color="#fff" result="bg"/>
      <feBlend in="SourceGraphic" in2="bg"/>
    </filter>
    <mask id="mask-22" x="353.58" y="-10819.23" width="8.07" height="32766" maskUnits="userSpaceOnUse">
      <g class="cls-84"/>
    </mask>
    <filter id="luminosity-noclip-23" x="211.22" y="-10819.23" width="12.28" height="32766" filterUnits="userSpaceOnUse" color-interpolation-filters="sRGB">
      <feFlood flood-color="#fff" result="bg"/>
      <feBlend in="SourceGraphic" in2="bg"/>
    </filter>
    <mask id="mask-23" x="211.22" y="-10819.23" width="12.28" height="32766" maskUnits="userSpaceOnUse">
      <g class="cls-83"/>
    </mask>
    <filter id="luminosity-noclip-24" x="260" y="-10819.23" width="18.69" height="32766" filterUnits="userSpaceOnUse" color-interpolation-filters="sRGB">
      <feFlood flood-color="#fff" result="bg"/>
      <feBlend in="SourceGraphic" in2="bg"/>
    </filter>
    <mask id="mask-24" x="260" y="-10819.23" width="18.69" height="32766" maskUnits="userSpaceOnUse">
      <g class="cls-82"/>
    </mask>
    <filter id="luminosity-noclip-25" x="171.63" y="122.94" width="190.02" height="150.49" filterUnits="userSpaceOnUse" color-interpolation-filters="sRGB">
      <feFlood flood-color="#fff" result="bg"/>
      <feBlend in="SourceGraphic" in2="bg"/>
    </filter>
    <mask id="mask-25" x="171.63" y="122.94" width="190.02" height="150.49" maskUnits="userSpaceOnUse">
      <g class="cls-5">
        <path class="cls-6" d="M271.93,262.75c-42.41-.7-73.39-43-72.7-64.89s-10.78-45.81-19.52-61.31a40.54,40.54,0,0,1-4.48-13.61c-8,29.83-.91,51.73,4.68,68.14,17.06,49.34,43.55,77.54,86.63,81.76,28.71,2.83,69.72-4.37,95.11-23.95C332.09,263.4,304.15,263.27,271.93,262.75Z"/>
      </g>
    </mask>
  </defs>
  <g class="cls-9">
    <g id="Layer_1" data-name="Layer 1">
      <g>
        <path class="cls-10" d="M363.38,124.1C341.06,97.48,310.74,77,275.69,64.93a108.69,108.69,0,0,0-35.33-6.43,79.87,79.87,0,0,0-15,1.38C216.91,46.26,205.6,34.16,191,23.07c-17-13-34.95-19.58-53.25-19.58-24.69,0-50.06,12.31-73.36,35.59-17.41,17.4-33.81,41.22-45,65.4C-3.5,154.48.57,208.09,30,244.38l0,0c2.19,2.69,4.52,5.3,6.91,7.71l.16.15c1.12,1.14,2.3,2.27,3.46,3.34l.38.35c2.43,2.21,5,4.36,7.68,6.36l.77.58c1.43,1.05,2.72,2,4,2.79l.09.06c1.29.86,2.66,1.74,4.18,2.66l1,.61c1.18.69,2.37,1.37,3.55,2l.91.5c1.43.77,2.91,1.51,4.4,2.23l1.06.49c1.19.55,2.39,1.09,3.61,1.61l.19.08,1.16.49c1.69.7,3.22,1.29,4.69,1.83l.67.23c1.34.48,2.72.95,4.22,1.42l1.56.49c1.34.41,2.7.79,4.07,1.16,0,0,.79.23,1,.29,1.58.41,3.24.81,5.07,1.21l1.27.27.29.06c1.34.27,2.69.53,4.08.78l1.49.26c1.82.31,3.64.58,5.4.8l1.23.15c1.51.18,3,.34,4.57.47l.12,0,1.52.13c2.18.17,4,.29,5.82.37h.46l.69,0c1.4-.1,2.79-.22,4.17-.35l.87-.08c1.38-.14,2.76-.29,4-.45l.24,0c1.35-.17,2.69-.37,4-.57l.58-.09c1.4-.23,2.78-.47,4.2-.74H140c1.4-.27,2.78-.56,4.15-.87l.17,0c23-5.22,41.74-16,56.8-32.75,17.43,21.62,39.51,33.55,67.12,36.34.86.09,1.74.16,2.65.24l.92.06c.59.05,1.19.09,1.82.12l1,.06,2,.09,1.36,0,1.94,0h1.84l2.36,0,1.56,0c.76,0,1.51,0,2.28-.07l1.52-.06,1.52-.09,1.4-.09,1.52-.1,1.57-.13,2.27-.21,1.71-.18,1.42-.16,1.63-.2c.45-.06.91-.11,1.36-.18.73-.09,1.45-.2,2.26-.32l1.1-.16,2.52-.41,1-.19c.73-.12,1.45-.26,2.17-.39l.91-.18c2.12-.41,4.24-.87,6.3-1.35l.43-.1c1-.24,2-.48,2.95-.73l.27-.07c44.31-11.45,71.25-37,73.9-70.09,0-.3,0-.6,0-.9C397.79,181.41,385.57,150.56,363.38,124.1ZM321.29,271.41l-.23.06-2.79.69-.4.09c-2,.46-3.95.89-5.93,1.27l-.85.17-2,.37-1,.17c-.78.14-1.57.27-2.36.39l-1.11.17-2.05.29-1.28.16-1.52.19c-.45.05-.9.11-1.35.15l-1.61.17-2.13.2-1.48.12-1.42.1-1.31.08-1.42.08-1.44.06-2.12.07-1.48,0h-3.91l-1.8,0-1.25,0-1.89-.08-1,0-1.64-.11-.87-.06-2.41-.22c-29.66-3-51.45-17.71-67.72-43.19-15.11,21.48-34.85,34.22-59.49,39.81l-.16,0c-1.26.29-2.54.56-3.83.8l-.1,0c-1.27.25-2.55.47-3.84.67l-.54.09c-1.24.19-2.48.37-3.74.53l-.15,0c-1.27.16-2.55.3-3.84.43l-.82.08c-1.29.12-2.59.23-3.9.32-1.85-.08-3.66-.2-5.46-.35l-1.55-.13q-2.14-.19-4.26-.45l-1.15-.13c-1.7-.22-3.37-.47-5-.75l-1.39-.24c-1.27-.23-2.53-.47-3.77-.73l-1.45-.3c-1.58-.35-3.15-.72-4.69-1.12l-1-.26q-1.89-.51-3.75-1.08l-1.44-.44c-1.3-.42-2.59-.85-3.86-1.31l-.64-.22c-1.45-.53-2.87-1.09-4.27-1.66l-1.23-.52c-1.12-.48-2.21-1-3.3-1.47l-1-.46c-1.36-.64-2.69-1.32-4-2l-.83-.46c-1.09-.59-2.16-1.2-3.22-1.83l-.91-.54q-1.94-1.17-3.8-2.41h0c-1.24-.83-2.44-1.69-3.63-2.57l-.68-.51q-3.63-2.73-6.93-5.74l-.31-.28q-1.62-1.49-3.15-3l-.12-.12a93,93,0,0,1-6.23-7h0c-26.62-32.82-30.36-82-9.17-128.29,24-51.69,86.87-129.9,155.85-77.31,14.77,11.25,27,24.5,35.56,40.49,13-4,30.13-4.62,52,2.93C340.65,98.79,387.25,155.7,387.25,211,384.64,243.51,354.16,262.91,321.29,271.41Z"/>
        <path class="cls-11" d="M356.35,125.68c-22-25.48-51.77-45.06-86.23-56.62a109.72,109.72,0,0,0-34.74-6.15,81.44,81.44,0,0,0-14.7,1.31c-8.36-13-19.48-24.6-33.81-35.22-16.75-12.43-34.37-18.73-52.36-18.73-24.28,0-49.22,11.77-72.13,34.06C45.26,61,29.13,83.76,18.1,106.91-4.41,154.76-.41,206.05,28.54,240.79l0,0c2.15,2.58,4.45,5.07,6.79,7.38l.16.15c1.11,1.09,2.27,2.17,3.41,3.19l.37.33C41.68,254,44.23,256,46.85,258c.25.19.5.38.75.55,1.4,1,2.67,1.89,3.88,2.68l.09.06c1.27.82,2.61,1.66,4.11,2.54l1,.58c1.15.67,2.33,1.32,3.48,1.93l.9.48c1.41.73,2.86,1.45,4.33,2.13l1,.47c1.17.53,2.35,1,3.55,1.54l.19.08,1.14.47c1.66.66,3.16,1.23,4.6,1.74l.66.23c1.32.46,2.68.9,4.15,1.36l1.54.46c1.32.39,2.65.77,4,1.12l1,.27c1.56.4,3.19.78,5,1.16l1.25.26.28.05c1.32.27,2.65.52,4,.75l1.47.25c1.79.29,3.58.55,5.31.77l1.21.14c1.48.17,3,.32,4.49.45l.13,0,1.48.12c2.15.17,4,.28,5.73.36h.45c.23,0,.45,0,.68,0,1.38-.09,2.74-.2,4.1-.32l.85-.08c1.36-.13,2.72-.28,4-.43l.24,0c1.32-.17,2.64-.35,3.94-.55l.58-.09c1.37-.21,2.73-.44,4.12-.7h.06c1.38-.26,2.74-.54,4.09-.83l.16,0c22.65-5,41-15.3,55.86-31.34,17.13,20.69,38.84,32.1,66,34.77.85.09,1.72.16,2.61.23l.91.06,1.78.12,1,.05,2,.08,1.33,0,1.91,0h4.12l1.54,0,2.24-.07,1.5-.06,1.49-.08,1.38-.09,1.49-.1,1.55-.12,2.23-.2,1.68-.17,1.4-.16,1.6-.19,1.34-.17,2.22-.3,1.08-.16,2.48-.39,1-.18,2.13-.38.9-.17c2.08-.39,4.17-.83,6.19-1.29l.43-.1c1-.22,1.95-.46,2.9-.7l.26-.06c43.58-11,70.06-35.41,72.67-67.08,0-.28,0-.57,0-.85C390.18,180.53,378.16,151,356.35,125.68Zm-41.4,141-.22.06-2.75.66-.39.09q-2.91.66-5.83,1.22l-.84.15-2,.36-1,.17-2.32.36-1.09.16-2,.28-1.26.16-1.5.18-1.32.15-1.58.15-2.1.19-1.45.12-1.4.1-1.29.07-1.4.08-1.41.06-2.09.06-1.45,0h-3.85l-1.77,0-1.22,0-1.87-.08-.95-.05-1.62-.1-.85-.06c-.8-.06-1.6-.13-2.38-.21-29.16-2.87-50.58-16.95-66.58-41.33-14.86,20.55-34.27,32.74-58.5,38.09l-.16,0c-1.24.27-2.49.52-3.76.76l-.1,0c-1.25.23-2.51.45-3.78.64l-.53.08c-1.22.19-2.44.36-3.68.51l-.14,0c-1.25.16-2.51.29-3.78.41l-.81.08c-1.27.11-2.54.22-3.83.31-1.82-.08-3.6-.2-5.37-.34l-1.52-.13c-1.41-.12-2.81-.26-4.19-.43l-1.13-.12c-1.67-.21-3.32-.45-4.94-.71l-1.37-.24c-1.25-.22-2.49-.45-3.71-.69l-1.43-.29c-1.55-.34-3.09-.69-4.6-1.07l-1-.25c-1.24-.33-2.48-.67-3.69-1l-1.42-.43c-1.28-.4-2.55-.81-3.8-1.25l-.62-.21c-1.43-.5-2.82-1-4.2-1.59L74,261.3c-1.1-.46-2.18-.92-3.24-1.41l-1-.43c-1.33-.62-2.64-1.26-3.93-1.93L65,257.1c-1.07-.57-2.12-1.16-3.16-1.76l-.9-.52c-1.27-.75-2.52-1.51-3.73-2.31h0c-1.22-.8-2.4-1.62-3.57-2.46l-.67-.49q-3.57-2.61-6.82-5.49l-.3-.27c-1.06-1-2.09-1.91-3.1-2.9l-.12-.11c-2.16-2.13-4.2-4.36-6.12-6.66l0,0c-26.18-31.41-29.85-78.47-9-122.76C51,61.88,112.89-13,180.72,37.36c14.52,10.77,26.58,23.45,35,38.75,12.83-3.87,29.63-4.42,51.15,2.81,67.16,22.54,113,77,113,129.89C377.25,240,347.27,258.52,315,266.65Z"/>
        <g id="potatao">
          <g>
            <path class="cls-12" d="M182.09,36.15c33.15,24.49,53.74,58.69,47.59,110.92C215.11,232.29,179,268.45,118.41,272.46,24.78,268.45-9,185.87,26.24,111.12,50.21,61,113.11-14.84,182.09,36.15Z"/>
            <g class="cls-13">
              <path class="cls-14" d="M59.37,131.7c1.89,1.81,2.73,4.09,1.85,5.06s-3.1.33-5-1.49-2.72-4.09-1.84-5.08S57.47,129.87,59.37,131.7Z"/>
              <path class="cls-15" d="M41.67,167.78c-.47,2.65-1.87,4.59-3.13,4.33s-1.91-2.61-1.44-5.24,1.9-4.6,3.17-4.34S42.17,165.14,41.67,167.78Z"/>
              <path class="cls-16" d="M99.39,209.57c.75,2.57.41,5-.82,5.39s-2.86-1.35-3.64-3.93-.41-5,.82-5.38S98.59,207,99.39,209.57Z"/>
              <path class="cls-17" d="M28.51,212.18c.46,1.57.22,3-.51,3.29s-1.74-.83-2.23-2.38-.22-3,.5-3.29S28,210.62,28.51,212.18Z"/>
              <path class="cls-18" d="M144.53,103c1,3.42.53,6.6-1.1,7.16s-3.78-1.8-4.8-5.22-.53-6.6,1.08-7.13S143.48,99.58,144.53,103Z"/>
              <path class="cls-19" d="M164,163.64c-.88,2.62-2.59,4.36-3.85,3.92s-1.55-2.95-.68-5.56,2.6-4.39,3.85-3.93S164.87,161,164,163.64Z"/>
              <path class="cls-20" d="M164.14,205.82c-.69,2.06-2.06,3.46-3.07,3.11s-1.23-2.35-.55-4.44,2.08-3.48,3.08-3.11S164.82,203.72,164.14,205.82Z"/>
              <path class="cls-21" d="M199.15,186.25c.09,2.21-.67,4-1.72,4.07s-2-1.69-2.08-3.89.64-4,1.7-4.08S199,184,199.15,186.25Z"/>
              <path class="cls-22" d="M208.55,160.53c.08,1.62-.48,3-1.25,3s-1.44-1.22-1.53-2.86.5-2.93,1.25-3S208.49,158.94,208.55,160.53Z"/>
              <path class="cls-23" d="M177.54,78.16c.07,1.6-.49,2.94-1.26,3s-1.45-1.23-1.53-2.84.5-3,1.26-3S177.47,76.54,177.54,78.16Z"/>
              <path class="cls-24" d="M202.52,91.3c.1,2-.61,3.69-1.57,3.75s-1.8-1.56-1.91-3.57.61-3.69,1.57-3.73S202.44,89.3,202.52,91.3Z"/>
              <g class="cls-25">
                <path class="cls-26" d="M203.05,185.86c0,5.18-2.38,9.4-5.3,9.4s-5.31-4.22-5.31-9.4,2.38-9.4,5.31-9.4S203.05,180.65,203.05,185.86Z"/>
              </g>
              <path class="cls-27" d="M166.53,164.48c-1.68,4.87-5.28,8-8,6.92s-3.61-5.83-1.93-10.73,5.3-8,8.05-6.93S168.23,159.59,166.53,164.48Z"/>
              <g class="cls-28">
                <path class="cls-29" d="M166.53,164.48c-1.68,4.87-5.28,8-8,6.92s-3.61-5.83-1.93-10.73,5.3-8,8.05-6.93S168.23,159.59,166.53,164.48Z"/>
              </g>
              <path class="cls-30" d="M147.88,101.26c2.09,6.5.83,12.81-2.84,14.11s-8.33-2.89-10.44-9.4-.84-12.81,2.83-14.11S145.77,94.76,147.88,101.26Z"/>
              <g class="cls-31">
                <path class="cls-29" d="M147.88,101.26c2.09,6.5.83,12.81-2.84,14.11s-8.33-2.89-10.44-9.4-.84-12.81,2.83-14.11S145.77,94.76,147.88,101.26Z"/>
              </g>
              <g class="cls-32">
                <path class="cls-33" d="M205.83,90.46c.36,5.13-1.67,9.46-4.55,9.7s-5.53-3.73-5.91-8.86,1.64-9.46,4.55-9.68S205.44,85.33,205.83,90.46Z"/>
              </g>
              <path class="cls-34" d="M60.17,128.65c3.74,3.33,5.26,7.9,3.39,10.2s-6.42,1.5-10.17-1.82-5.25-7.88-3.4-10.19S56.42,125.33,60.17,128.65Z"/>
              <g class="cls-35">
                <path class="cls-29" d="M60.17,128.65c3.74,3.33,5.26,7.9,3.39,10.2s-6.42,1.5-10.17-1.82-5.25-7.88-3.4-10.19S56.42,125.33,60.17,128.65Z"/>
              </g>
              <path class="cls-36" d="M43.78,167.72c-.29,5.15-2.87,9.18-5.77,9s-5-4.48-4.72-9.61,2.88-9.16,5.78-9S44.06,162.6,43.78,167.72Z"/>
              <g class="cls-37">
                <path class="cls-29" d="M43.78,167.72c-.29,5.15-2.87,9.18-5.77,9s-5-4.48-4.72-9.61,2.88-9.16,5.78-9S44.06,162.6,43.78,167.72Z"/>
              </g>
              <path class="cls-38" d="M101.72,207.84c1.52,4.9.53,9.63-2.22,10.57s-6.22-2.24-7.75-7.13-.53-9.61,2.22-10.55S100.2,203,101.72,207.84Z"/>
              <g class="cls-39">
                <path class="cls-29" d="M101.72,207.84c1.52,4.9.53,9.63-2.22,10.57s-6.22-2.24-7.75-7.13-.53-9.61,2.22-10.55S100.2,203,101.72,207.84Z"/>
              </g>
              <path class="cls-40" d="M180.86,76.43c.71,4.27-.68,8.09-3.1,8.51s-4.93-2.69-5.62-7,.7-8.11,3.11-8.52S180.19,72.14,180.86,76.43Z"/>
              <g class="cls-41">
                <path class="cls-29" d="M180.86,76.43c.71,4.27-.68,8.09-3.1,8.51s-4.93-2.69-5.62-7,.7-8.11,3.11-8.52S180.19,72.14,180.86,76.43Z"/>
              </g>
              <path class="cls-29" d="M31.46,211.06c.7,4.3-.71,8.12-3.1,8.53s-4.94-2.68-5.63-7,.71-8.08,3.1-8.51S30.77,206.78,31.46,211.06Z"/>
              <g class="cls-42">
                <path class="cls-29" d="M31.46,211.06c.7,4.3-.71,8.12-3.1,8.53s-4.94-2.68-5.63-7,.71-8.08,3.1-8.51S30.77,206.78,31.46,211.06Z"/>
              </g>
              <g class="cls-43">
                <path class="cls-44" d="M212.15,159.91c0,5.2-2.37,9.4-5.3,9.4s-5.3-4.2-5.3-9.4,2.38-9.41,5.3-9.41S212.15,154.7,212.15,159.91Z"/>
              </g>
            </g>
            <g class="cls-45">
              <path class="cls-46" d="M206.09,210.38c-12,13.57-23.59,29.3-38.15,40a100.21,100.21,0,0,1-40.25,18c-32.93,6.26-63.75-4.9-84.24-33.16C33,220.76,25.22,204.24,17.22,188.26a55.66,55.66,0,0,1-4.44-12.33c2.81,51.16,39.1,93.69,105.63,96.53,46.79-3.1,78.92-25.38,97.88-74.52C213.18,202.14,209.73,206.23,206.09,210.38Z"/>
            </g>
            <g class="cls-47">
              <path class="cls-48" d="M70.82,228a1.29,1.29,0,0,0-1,1.4,3.68,3.68,0,0,0,.88,2,1.38,1.38,0,0,0,.3.53c.37.81,1,1.38,1.8.64.94-.91.09-2.88-.5-3.77A1.71,1.71,0,0,0,70.82,228Z"/>
              <path class="cls-48" d="M66.83,191.77a.58.58,0,0,0-.75.34,4.77,4.77,0,0,0,.23,2.72,2,2,0,0,0,.6,1,.59.59,0,0,0,.88-.27c.48-.41.33-1.4.25-1.93C67.89,192.9,67.57,192,66.83,191.77Z"/>
              <path class="cls-48" d="M59.47,184.69a.63.63,0,0,0-.65.54c-.19,1.19.52,2.2.62,3.33a1,1,0,0,0,0,.54v.15c-.06.26.24.39.44.29a.17.17,0,0,0,.21,0c.84-.14,1-1.87,1-2.59C61,185.88,60.61,184.85,59.47,184.69Z"/>
              <path class="cls-48" d="M97.26,175.76A1.76,1.76,0,0,0,96,177.2a5.56,5.56,0,0,0-.55,2c-1.06.82-.51,2.55.53,3.91a6.45,6.45,0,0,0,2.74,2.9c2.22,1.13,3.27-2.38,3.6-3.93.4-1.76,1.26-5.54-.58-6.68C100.55,174.64,98.51,175.43,97.26,175.76Z"/>
              <path class="cls-48" d="M117.06,138.22c-.61.48-.35,1.28,0,1.88a3.38,3.38,0,0,0,.57.78,1.33,1.33,0,0,0,1.72.71,1.91,1.91,0,0,0,1-2c0-.7-.27-1.71-.94-2A2.59,2.59,0,0,0,117.06,138.22Z"/>
              <path class="cls-48" d="M103.36,77.15a1.2,1.2,0,0,0-.75,0,.62.62,0,0,0-.33.42.86.86,0,0,0-.29.49.73.73,0,0,0-.22.74.57.57,0,0,0,0,.7.68.68,0,0,0,.46.9h0a1.23,1.23,0,0,0,.9.26.49.49,0,0,0,.45-.53.6.6,0,0,0,.25-.75.59.59,0,0,0-.12-.68.5.5,0,0,0-.19-.52A.65.65,0,0,0,103.36,77.15Z"/>
              <path class="cls-48" d="M118.48,126.82a3.48,3.48,0,0,0-.07.38,1.13,1.13,0,0,0-.18,0,.54.54,0,0,0-.44.32.69.69,0,0,0-.49.77.54.54,0,0,0,0,.39.41.41,0,0,0-.11.28.58.58,0,0,0,.19.85,3.52,3.52,0,0,0,.72.37v0a.55.55,0,0,0,.36,0,.53.53,0,0,0,.56-.48,1.83,1.83,0,0,0,.13-.16.69.69,0,0,0,.32-1,.55.55,0,0,0,0-.28.37.37,0,0,0,.1-.26,5.37,5.37,0,0,1,.15-1C119.87,126.14,118.66,126,118.48,126.82Z"/>
              <path class="cls-48" d="M147.1,64.64a.71.71,0,0,0-.17.81s0,0,0,.06a1.53,1.53,0,0,0-.15.23,1.19,1.19,0,0,0,0,.79,1,1,0,0,0-.08.21.88.88,0,0,0,.21.75v.07a1,1,0,0,0,.32.69.56.56,0,0,0,.47.33.65.65,0,0,1,.19,0,1.53,1.53,0,0,0,.57,0,.54.54,0,0,0,.39-.49l.07,0c.62-.45.39-1.85.34-2.52a1.15,1.15,0,0,0-.71-1.11A1.56,1.56,0,0,0,147.1,64.64Z"/>
              <path class="cls-48" d="M135.1,29.71a3,3,0,0,0-1.65,2,3.82,3.82,0,0,0,0,1.47,1.65,1.65,0,0,0,.48,1,.57.57,0,0,0-.19.7,2.29,2.29,0,0,0,.38.7,1.32,1.32,0,0,0,.86.78c1.86.54,2.31-2.44,2.27-3.71S136.73,29.1,135.1,29.71Z"/>
              <path class="cls-48" d="M143.61,29.4a3.43,3.43,0,0,0-.56,1.78.51.51,0,0,0,.15.39,2.1,2.1,0,0,0,.49,1.43.64.64,0,0,0,1,0c.83-1,1.47-2.89.4-3.92C144.62,28.56,144,28.9,143.61,29.4Z"/>
              <path class="cls-48" d="M162.7,58.32c-1.3.11-1,1.84-.28,2.67a2.24,2.24,0,0,0,.92.91.67.67,0,0,0,.87-.4C164.56,60.3,164.27,58.17,162.7,58.32Z"/>
              <path class="cls-48" d="M192,84.93c-.94-.1-1.28,1-1.35,1.82a7.87,7.87,0,0,0,.3,2.4,3.58,3.58,0,0,0,.74,3c1.57,1.57,3.09-.76,3.42-2.25A3.36,3.36,0,0,0,194,87C193.48,86.41,192.8,85,192,84.93Z"/>
              <path class="cls-48" d="M179.93,133.22c-.7.84-1.52,2.26-1.23,3.41a2.34,2.34,0,0,0,1.86,2.54c.3.07.53-.18.68-.43a5.55,5.55,0,0,0-.41-5.56A.55.55,0,0,0,179.93,133.22Z"/>
              <path class="cls-48" d="M140.53,200.54c-1,.72-.23,2.23.44,3.11.5,1.17,1.43,2.21,2.72,1.87,1.62-.44,1.22-2.86.21-3.76C143.2,201.12,141.51,199.84,140.53,200.54Z"/>
            </g>
            <g class="cls-49">
              <path class="cls-50" d="M80.54,144.52a8.5,8.5,0,0,1-3.08,4.34l1.61-1.15c3-1,2.31,1.59,4.1,2.43C85.12,147.69,83.16,144.78,80.54,144.52Z"/>
              <path class="cls-50" d="M183,156.88c3.3-7.1-.08-10.46-.43-17.12C182.91,146.46,176.94,152.49,183,156.88Z"/>
              <path class="cls-50" d="M146.81,43.69Z"/>
              <path class="cls-50" d="M139.53,43.78h1.56a1.28,1.28,0,0,0-.22.09c-.44,0-.86,0-1.3,0l0-.08Z"/>
            </g>
            <g class="cls-51">
              <path class="cls-52" d="M175.28,173.9a3.93,3.93,0,0,1-2.12,1.24L174,175c1.34.18.52,1.18,1,1.93A1.79,1.79,0,0,0,175.28,173.9Z"/>
              <path class="cls-52" d="M210.72,200.86c2.81-2.4,2.31-4.57,3.66-7.55C213,196.31,209.44,197.67,210.72,200.86Z"/>
              <path class="cls-52" d="M222.56,144Z"/>
              <path class="cls-52" d="M219.84,142.53v0h0l.58.33h-.1c-.15-.09-.33-.19-.5-.27v0Z"/>
            </g>
            <g class="cls-53">
              <path class="cls-54" d="M132.75,55.68v0a.78.78,0,0,0-.43-.57l-.07,0a1.05,1.05,0,1,0-.76,2,1.24,1.24,0,0,0,1-.12A.94.94,0,0,0,132.75,55.68Z"/>
              <path class="cls-54" d="M126.46,97.8l0,0a.75.75,0,0,0-.42-.58s0,0-.07,0a1.06,1.06,0,1,0-.78,2,1.15,1.15,0,0,0,1-.1A1,1,0,0,0,126.46,97.8Z"/>
              <path class="cls-54" d="M94.93,147.32h0a.75.75,0,0,0-.42-.6l-.06,0a1.06,1.06,0,1,0-.79,2,1.27,1.27,0,0,0,1-.12A.92.92,0,0,0,94.93,147.32Z"/>
              <path class="cls-54" d="M66.75,110.27v0a.82.82,0,0,0-.43-.58.16.16,0,0,0-.06,0,1.06,1.06,0,1,0-.79,2,1.2,1.2,0,0,0,1-.13A.92.92,0,0,0,66.75,110.27Z"/>
              <path class="cls-54" d="M115,189.7h0a.9.9,0,0,0-.42-.6h-.08a1,1,0,1,0-.77,1.95,1.25,1.25,0,0,0,1-.11A1,1,0,0,0,115,189.7Z"/>
              <path class="cls-54" d="M65.12,204l0,0a.87.87,0,0,0-.43-.6h-.06a1.06,1.06,0,1,0-.78,2,1.2,1.2,0,0,0,1-.13A1,1,0,0,0,65.12,204Z"/>
              <path class="cls-54" d="M46.79,188.81v0a.78.78,0,0,0-.44-.57h-.06a1.05,1.05,0,1,0-.77,1.95,1.18,1.18,0,0,0,1-.1A.94.94,0,0,0,46.79,188.81Z"/>
              <path class="cls-54" d="M82.5,229.25v0a.77.77,0,0,0-.44-.59.11.11,0,0,0-.07,0,1.06,1.06,0,1,0-.76,2,1.29,1.29,0,0,0,1-.13A.93.93,0,0,0,82.5,229.25Z"/>
              <path class="cls-54" d="M98.77,238.33v0a.78.78,0,0,0-.43-.58l-.08,0a1.05,1.05,0,1,0-.77,2,1.14,1.14,0,0,0,1-.13A.91.91,0,0,0,98.77,238.33Z"/>
              <path class="cls-54" d="M143.06,244.12v0a.76.76,0,0,0-.43-.57h-.07a1.05,1.05,0,1,0-.76,2,1.35,1.35,0,0,0,1-.13A1,1,0,0,0,143.06,244.12Z"/>
              <path class="cls-54" d="M143.06,226.73v0a.76.76,0,0,0-.43-.57.15.15,0,0,0-.07,0,1.06,1.06,0,1,0-.76,2,1.35,1.35,0,0,0,1-.14A.94.94,0,0,0,143.06,226.73Z"/>
              <path class="cls-54" d="M167.75,225.83h0a.8.8,0,0,0-.41-.6l-.08,0a1.05,1.05,0,1,0-.77,2,1.17,1.17,0,0,0,1-.12A.91.91,0,0,0,167.75,225.83Z"/>
              <path class="cls-54" d="M182.68,53.63v0a.88.88,0,0,0-.44-.58l-.06,0a1,1,0,1,0-.77,1.94,1.11,1.11,0,0,0,1-.09A1,1,0,0,0,182.68,53.63Z"/>
              <path class="cls-54" d="M153.29,33.1h0a.77.77,0,0,0-.43-.58l-.07,0a1.06,1.06,0,1,0-.78,2,1.24,1.24,0,0,0,1-.11A1,1,0,0,0,153.29,33.1Z"/>
              <path class="cls-54" d="M120.48,42v0a.74.74,0,0,0-.43-.59.13.13,0,0,0-.06,0,1.06,1.06,0,1,0-.78,2,1.3,1.3,0,0,0,1-.13A.91.91,0,0,0,120.48,42Z"/>
              <path class="cls-54" d="M67.25,67h0a.76.76,0,0,0-.41-.6.15.15,0,0,0-.07,0,1.05,1.05,0,1,0-.77,2,1.18,1.18,0,0,0,1-.11A1,1,0,0,0,67.25,67Z"/>
              <path class="cls-54" d="M190.41,99.6v0A.86.86,0,0,0,190,99a.14.14,0,0,0-.07,0,1.05,1.05,0,1,0-.75,2,1.26,1.26,0,0,0,.95-.12A.94.94,0,0,0,190.41,99.6Z"/>
            </g>
          </g>
          <g>
            <path class="cls-55" d="M182.16,103.64s22.89-47,87.51-25.38c68.3,22.84,114.9,78,114.9,131.61-4,48.88-74.95,67.21-118,63S197,240.42,179.91,191.08C173.18,171.32,164.22,143.59,182.16,103.64Z"/>
            <g>
              <path class="cls-56" d="M270.66,241c3.16,1.1,5.3,3.37,4.78,5s-3.55,2.08-6.72.95-5.32-3.38-4.79-5.05S267.49,239.9,270.66,241Z"/>
              <path class="cls-57" d="M220.33,116.43c-.91,2.91-2.79,4.85-4.16,4.38s-1.75-3.23-.85-6.12,2.79-4.86,4.18-4.38S221.26,113.54,220.33,116.43Z"/>
              <path class="cls-58" d="M190.36,115.82c.2,2.23-.47,4.1-1.52,4.24s-2.11-1.6-2.31-3.82.46-4.12,1.52-4.23S190.13,113.6,190.36,115.82Z"/>
              <path class="cls-59" d="M261.2,208.83c.51,1.12.5,2.23-.05,2.5s-1.38-.41-1.89-1.54-.5-2.24,0-2.5S260.68,207.7,261.2,208.83Z"/>
              <path class="cls-60" d="M248.24,188.08c-.23,1.23-.9,2.1-1.49,2s-.84-1.21-.6-2.44.92-2.09,1.51-2S248.51,186.88,248.24,188.08Z"/>
              <path class="cls-61" d="M225.4,214.21c.58,1.08.66,2.19.14,2.49s-1.41-.3-2-1.38-.65-2.19-.14-2.51S224.82,213.13,225.4,214.21Z"/>
              <path class="cls-62" d="M296.74,173c1.64,1.76,2.2,4,1.22,5s-3.08.46-4.76-1.27-2.19-4-1.22-5S295.08,171.24,296.74,173Z"/>
              <path class="cls-63" d="M327.88,226.1c-.29,2.43-1.64,4.24-3,4.05s-2.24-2.29-1.95-4.74,1.66-4.24,3-4.07S328.19,223.65,327.88,226.1Z"/>
              <path class="cls-64" d="M332.77,171.4c.74,1,.87,2.23.3,2.68s-1.65,0-2.39-1-.86-2.25-.28-2.69S332,170.37,332.77,171.4Z"/>
              <path class="cls-65" d="M359,215.23c.15,1.28-.32,2.39-1.05,2.48s-1.41-.88-1.53-2.19.33-2.37,1.06-2.45S358.88,214,359,215.23Z"/>
              <path class="cls-66" d="M330.37,225.34c-.34,5.13-2.95,9.11-5.82,8.9s-5-4.53-4.63-9.66,3-9.09,5.83-8.89S330.72,220.21,330.37,225.34Z"/>
              <g class="cls-67">
                <path class="cls-68" d="M330.37,225.34c-.34,5.13-2.95,9.11-5.82,8.9s-5-4.53-4.63-9.66,3-9.09,5.83-8.89S330.72,220.21,330.37,225.34Z"/>
              </g>
              <path class="cls-66" d="M298.75,171c3.6,3.49,4.93,8.12,2.95,10.35s-6.47,1.2-10.08-2.28-4.92-8.13-2.94-10.36S295.16,167.49,298.75,171Z"/>
              <g class="cls-69">
                <path class="cls-68" d="M298.75,171c3.6,3.49,4.93,8.12,2.95,10.35s-6.47,1.2-10.08-2.28-4.92-8.13-2.94-10.36S295.16,167.49,298.75,171Z"/>
              </g>
              <path class="cls-66" d="M263.43,207c1.91,3.41,1.9,7.14,0,8.32s-5-.63-7-4.06-1.87-7.15.08-8.33S261.53,203.57,263.43,207Z"/>
              <g class="cls-70">
                <path class="cls-68" d="M263.43,207c1.91,3.41,1.9,7.14,0,8.32s-5-.63-7-4.06-1.87-7.15.08-8.33S261.53,203.57,263.43,207Z"/>
              </g>
              <path class="cls-66" d="M226.59,213.39c1.32,2.34,1.32,4.91,0,5.7s-3.47-.42-4.8-2.78-1.28-4.91,0-5.72S225.29,211,226.59,213.39Z"/>
              <g class="cls-71">
                <path class="cls-68" d="M226.59,213.39c1.32,2.34,1.32,4.91,0,5.7s-3.47-.42-4.8-2.78-1.28-4.91,0-5.72S225.29,211,226.59,213.39Z"/>
              </g>
              <path class="cls-72" d="M214.43,225c.88.85,1.24,1.9.85,2.36s-1.44.13-2.3-.72-1.26-1.89-.85-2.34S213.56,224.18,214.43,225Z"/>
              <path class="cls-66" d="M215.34,223.87c1.91,1.84,2.64,4.27,1.61,5.46s-3.43.67-5.35-1.16-2.64-4.29-1.61-5.48S213.42,222.05,215.34,223.87Z"/>
              <g class="cls-73">
                <path class="cls-68" d="M215.34,223.87c1.91,1.84,2.64,4.27,1.61,5.46s-3.43.67-5.35-1.16-2.64-4.29-1.61-5.48S213.42,222.05,215.34,223.87Z"/>
              </g>
              <path class="cls-66" d="M250.41,189c-1,3.1-3.34,5.05-5.09,4.41s-2.27-3.72-1.2-6.81,3.36-5,5.1-4.38S251.5,186,250.41,189Z"/>
              <g class="cls-74">
                <path class="cls-68" d="M250.41,189c-1,3.1-3.34,5.05-5.09,4.41s-2.27-3.72-1.2-6.81,3.36-5,5.1-4.38S251.5,186,250.41,189Z"/>
              </g>
              <path class="cls-66" d="M334.68,170.06c2,3,2.3,6.37.63,7.64s-4.65-.15-6.68-3.11-2.3-6.38-.65-7.63S332.65,167.08,334.68,170.06Z"/>
              <g class="cls-75">
                <path class="cls-76" d="M334.68,170.06c2,3,2.3,6.37.63,7.64s-4.65-.15-6.68-3.11-2.3-6.38-.65-7.63S332.65,167.08,334.68,170.06Z"/>
              </g>
              <path class="cls-66" d="M361.5,215c.59,3.8-.64,7.2-2.78,7.55s-4.38-2.39-5-6.19.65-7.18,2.81-7.57S360.89,211.21,361.5,215Z"/>
              <g class="cls-77">
                <path class="cls-68" d="M361.5,215c.59,3.8-.64,7.2-2.78,7.55s-4.38-2.39-5-6.19.65-7.18,2.81-7.57S360.89,211.21,361.5,215Z"/>
              </g>
              <path class="cls-66" d="M222.76,117.05c-1.61,5.29-5.33,8.78-8.32,7.78s-4.1-6.08-2.48-11.39,5.32-8.77,8.31-7.77S224.36,111.76,222.76,117.05Z"/>
              <g class="cls-78">
                <path class="cls-68" d="M222.76,117.05c-1.61,5.29-5.33,8.78-8.32,7.78s-4.1-6.08-2.48-11.39,5.32-8.77,8.31-7.77S224.36,111.76,222.76,117.05Z"/>
              </g>
              <path class="cls-66" d="M271,238.27c5.09,1.62,8.48,5.46,7.56,8.62s-5.75,4.36-10.85,2.76-8.44-5.48-7.54-8.61S265.91,236.66,271,238.27Z"/>
              <g class="cls-79">
                <path class="cls-68" d="M271,238.27c5.09,1.62,8.48,5.46,7.56,8.62s-5.75,4.36-10.85,2.76-8.44-5.48-7.54-8.61S265.91,236.66,271,238.27Z"/>
              </g>
            </g>
            <g class="cls-47">
              <path class="cls-48" d="M340.73,250.29a1.29,1.29,0,0,0,.88,1.51,3.14,3.14,0,0,0,2.12-.19,1.32,1.32,0,0,0,.57-.08c.86-.07,1.61-.56,1.21-1.54-.51-1.24-2.55-1.1-3.56-.81A1.62,1.62,0,0,0,340.73,250.29Z"/>
              <path class="cls-48" d="M306.94,241.66a.62.62,0,0,0,.05.84,4.12,4.12,0,0,0,2.51.72,1.68,1.68,0,0,0,1.09-.23.63.63,0,0,0,.08-1c-.19-.63-1.13-.8-1.64-.89A2,2,0,0,0,306.94,241.66Z"/>
              <path class="cls-48" d="M298.05,246.42a.64.64,0,0,0,.27.82c1,.6,2.14.25,3.16.56a1.17,1.17,0,0,0,.5.2.35.35,0,0,0,.12.07c.23.14.44-.09.43-.32a.41.41,0,0,0,.06-.19c.17-.92-1.35-1.62-2-1.85A1.85,1.85,0,0,0,298.05,246.42Z"/>
              <path class="cls-48" d="M303.15,206.2a1.8,1.8,0,0,0,.85,1.7,5.58,5.58,0,0,0,1.61,1.26c.38,1.32,2.11,1.38,3.68.83a6.23,6.23,0,0,0,3.54-1.68c1.79-1.81-1-4-2.26-4.91-1.45-1-4.52-3.16-6.19-1.74C303.28,202.57,303.3,204.87,303.15,206.2Z"/>
              <path class="cls-48" d="M276.4,173.71c.23.79,1,.81,1.68.68a3.62,3.62,0,0,0,.9-.29,1.36,1.36,0,0,0,1.23-1.44,1.81,1.81,0,0,0-1.43-1.62,2,2,0,0,0-2.11.23A2.82,2.82,0,0,0,276.4,173.71Z"/>
              <path class="cls-48" d="M217,166a1.2,1.2,0,0,0-.24.72.55.55,0,0,0,.28.48.75.75,0,0,0,.32.47.68.68,0,0,0,.58.48.54.54,0,0,0,.62.26.66.66,0,0,0,1-.14v0a1.29,1.29,0,0,0,.56-.78.5.5,0,0,0-.32-.62.59.59,0,0,0-.6-.53.52.52,0,0,0-.63-.1.53.53,0,0,0-.58,0A.55.55,0,0,0,217,166Z"/>
              <path class="cls-48" d="M266.69,168.39l.32.19a.64.64,0,0,0-.08.19.56.56,0,0,0,.14.54.68.68,0,0,0,.51.74.49.49,0,0,0,.32.16.66.66,0,0,0,.22.22.55.55,0,0,0,.85.1,4.38,4.38,0,0,0,.57-.57l0,0a.55.55,0,0,0,.12-.37.57.57,0,0,0-.26-.7.33.33,0,0,0-.08-.18c0-.4-.4-.78-.77-.65a.4.4,0,0,0-.24-.14.3.3,0,0,0-.19-.16,4.47,4.47,0,0,1-.85-.49C266.57,166.79,266,167.92,266.69,168.39Z"/>
              <path class="cls-48" d="M221,118.69a.66.66,0,0,0,.65.45l.07,0a.54.54,0,0,0,.18.23,1.06,1.06,0,0,0,.68.29.7.7,0,0,0,.16.13.75.75,0,0,0,.75,0l.06,0a.81.81,0,0,0,.73-.06.53.53,0,0,0,.46-.35.9.9,0,0,1,0-.19,1.45,1.45,0,0,0,.16-.58.55.55,0,0,0-.28-.54.13.13,0,0,1,0-.08c-.2-.75-1.52-1-2.13-1.22a1,1,0,0,0-1.22.32A1.66,1.66,0,0,0,221,118.69Z"/>
              <path class="cls-48" d="M185.5,118.34a3,3,0,0,0,1.23,2.34,3.24,3.24,0,0,0,1.32.54,1.48,1.48,0,0,0,1-.13.52.52,0,0,0,.55.43,2.36,2.36,0,0,0,.75-.12,1.3,1.3,0,0,0,1-.59c1.14-1.63-1.38-3.1-2.52-3.51S185.52,116.56,185.5,118.34Z"/>
              <path class="cls-48" d="M188.17,109.9a3.22,3.22,0,0,0,1.4,1.17.46.46,0,0,0,.41,0,1.87,1.87,0,0,0,1.45,0,.73.73,0,0,0,.33-1c-.61-1.15-2.08-2.44-3.38-1.75A1.1,1.1,0,0,0,188.17,109.9Z"/>
              <path class="cls-48" d="M220.69,101.18c-.33,1.31,1.32,1.6,2.31,1.2a2.05,2.05,0,0,0,1.13-.58.75.75,0,0,0-.06-1C223.11,100.05,221.11,99.56,220.69,101.18Z"/>
              <path class="cls-48" d="M254.71,81.65c-.43.88.44,1.62,1.15,1.95a6.4,6.4,0,0,0,2.24.54,3.26,3.26,0,0,0,2.95.33c1.94-1,.39-3.31-.83-4.15a3,3,0,0,0-3,.09C256.53,80.7,255.06,80.88,254.71,81.65Z"/>
              <path class="cls-48" d="M293.74,110.25c.52,1,1.51,2.26,2.65,2.37a2.12,2.12,0,0,0,2.89-.93.69.69,0,0,0-.14-.82,5,5,0,0,0-5.12-1.53C293.64,109.43,293.56,109.93,293.74,110.25Z"/>
              <path class="cls-48" d="M340.36,172.3c.28,1.27,1.92,1,2.95.63,1.23-.07,2.49-.63,2.6-2,.17-1.71-2.13-2.17-3.28-1.52C341.81,169.89,340.08,171.1,340.36,172.3Z"/>
            </g>
            <g class="cls-53">
              <path class="cls-54" d="M229.54,125.64h0a.73.73,0,0,0-.7,0s-.05,0-.05.06c-1.24.84-.06,2.7,1.09,1.76a1.24,1.24,0,0,0,.46-.9A.91.91,0,0,0,229.54,125.64Z"/>
              <path class="cls-54" d="M259.18,154.86h0a.73.73,0,0,0-.7,0,.31.31,0,0,1-.06.06c-1.23.83-.06,2.69,1.12,1.76a1.31,1.31,0,0,0,.45-.9A1,1,0,0,0,259.18,154.86Z"/>
              <path class="cls-54" d="M258.78,179.73h0a.84.84,0,0,0-.72,0l-.05,0c-1.21.83-.06,2.7,1.11,1.79a1.33,1.33,0,0,0,.47-.9A.9.9,0,0,0,258.78,179.73Z"/>
              <path class="cls-54" d="M235.31,213.53h0a.71.71,0,0,0-.7,0l-.06,0c-1.21.83-.06,2.69,1.11,1.8a1.48,1.48,0,0,0,.46-.94A.88.88,0,0,0,235.31,213.53Z"/>
              <path class="cls-54" d="M303.47,186.34h0a.82.82,0,0,0-.7,0s-.06,0-.06.07c-1.23.82-.08,2.67,1.11,1.75a1.22,1.22,0,0,0,.44-.89A.91.91,0,0,0,303.47,186.34Z"/>
              <path class="cls-54" d="M286.6,237.49h0a.73.73,0,0,0-.71,0,.23.23,0,0,0-.05.05c-1.23.82-.07,2.69,1.11,1.75a1.25,1.25,0,0,0,.45-.9A.93.93,0,0,0,286.6,237.49Z"/>
              <path class="cls-54" d="M264.3,244.75h0a.79.79,0,0,0-.7,0l-.06.05c-1.21.86-.06,2.72,1.11,1.78a1.18,1.18,0,0,0,.45-.9A.9.9,0,0,0,264.3,244.75Z"/>
              <path class="cls-54" d="M316.32,236.72h0a.73.73,0,0,0-.7,0l-.06.06c-1.23.84-.06,2.7,1.11,1.76a1.32,1.32,0,0,0,.46-.89A.92.92,0,0,0,316.32,236.72Z"/>
              <path class="cls-54" d="M332.67,227.79h0a.76.76,0,0,0-.7,0l-.06,0c-1.23.84-.06,2.72,1.11,1.79a1.4,1.4,0,0,0,.47-.91A.92.92,0,0,0,332.67,227.79Z"/>
              <path class="cls-54" d="M362.24,192.78h0a.81.81,0,0,0-.71,0s-.06,0-.06,0c-1.22.83,0,2.69,1.12,1.78a1.3,1.3,0,0,0,.44-.92A.86.86,0,0,0,362.24,192.78Z"/>
              <path class="cls-54" d="M348.54,182.94h0a.8.8,0,0,0-.69,0l-.08.07c-1.22.83-.06,2.7,1.12,1.76a1.39,1.39,0,0,0,.47-.91A.93.93,0,0,0,348.54,182.94Z"/>
              <path class="cls-54" d="M361.79,161.07h0a.68.68,0,0,0-.7.06s-.06,0-.06,0c-1.23.83-.07,2.7,1.12,1.77a1.37,1.37,0,0,0,.43-.9A.91.91,0,0,0,361.79,161.07Z"/>
              <path class="cls-54" d="M256.13,81.32h0a.79.79,0,0,0-.7,0l-.06.06c-1.23.82-.05,2.69,1.1,1.77a1.35,1.35,0,0,0,.47-.91A.92.92,0,0,0,256.13,81.32Z"/>
              <path class="cls-54" d="M223.34,95.15h0a.73.73,0,0,0-.7,0s-.06,0-.06,0c-1.23.82-.07,2.69,1.1,1.78a1.42,1.42,0,0,0,.45-.91A.9.9,0,0,0,223.34,95.15Z"/>
              <path class="cls-54" d="M211.87,128.54h0a.75.75,0,0,0-.71.05l-.06,0c-1.21.83-.06,2.7,1.11,1.79a1.49,1.49,0,0,0,.47-.92A.92.92,0,0,0,211.87,128.54Z"/>
              <path class="cls-54" d="M201.49,188.68h0a.68.68,0,0,0-.69,0l-.06.05c-1.23.83-.06,2.68,1.11,1.76a1.25,1.25,0,0,0,.45-.9A.89.89,0,0,0,201.49,188.68Z"/>
              <path class="cls-54" d="M296.69,100.59h0a.73.73,0,0,0-.7,0l-.06.05c-1.21.84-.06,2.69,1.13,1.78a1.47,1.47,0,0,0,.45-.9A.93.93,0,0,0,296.69,100.59Z"/>
            </g>
            <g class="cls-51">
              <g class="cls-80">
                <path class="cls-81" d="M271.93,262.75c-42.41-.7-73.39-43-72.7-64.89,1-33.81-4-33.85-19.52-61.31a40.54,40.54,0,0,1-4.48-13.61c-8,29.83-.91,51.73,4.68,68.14,17.06,49.34,43.55,77.54,86.63,81.76,28.71,2.83,69.72-4.37,95.11-23.95C332.09,263.4,304.15,263.27,271.93,262.75Z"/>
              </g>
            </g>
          </g>
        </g>
      </g>
    </g>
  </g>
</svg>
