<svg id="Layer_1" data-name="Layer 1" xmlns="http://www.w3.org/2000/svg" width="154.13" height="228.94" viewBox="0 0 154.13 228.94">
  <defs>
    <style>
      .cls-1 {
        opacity: 0.5;
      }

      .cls-2 {
        fill: #fff;
      }

      .cls-3 {
        fill: #f7e3c3;
      }

      .cls-4 {
        fill: #f9ddb0;
      }

      .cls-5 {
        fill: #f3b248;
      }

      .cls-6 {
        fill: #bc6eab;
      }

      .cls-7 {
        fill: #f4d29d;
      }

      .cls-8 {
        fill: #f7d192;
      }

      .cls-9 {
        fill: #f0c273;
      }

      .cls-10 {
        fill: #a4388a;
      }

      .cls-11 {
        fill: #f1c376;
      }

      .cls-12 {
        fill: #f1a323;
      }

      .cls-13 {
        fill: #bc6eac;
      }

      .cls-14 {
        fill: #cd94be;
      }

      .cls-15 {
        fill: #b25d9f;
      }

      .cls-16 {
        fill: #f1b247;
      }

      .cls-17 {
        fill: #f1a220;
      }

      .cls-18 {
        fill: #a5348c;
      }

      .cls-19 {
        fill: #a5348b;
      }

      .cls-20 {
        fill: #bc6dac;
      }

      .cls-21 {
        fill: #ac5097;
      }

      .cls-22 {
        fill: #cd94bd;
      }

      .cls-23 {
        fill: #cc93ba;
      }

      .cls-24 {
        fill: #f3a21e;
      }

      .cls-25 {
        fill: #f1a21d;
      }

      .cls-26 {
        fill: #f2c373;
      }

      .cls-27 {
        fill: #e1c6d9;
      }

      .cls-28 {
        fill: #e1c5df;
      }

      .cls-29 {
        fill: #f7e7ec;
      }

      .cls-30 {
        fill: #cd95be;
      }

      .cls-31 {
        fill: #f1d2a5;
      }

      .cls-32 {
        fill: #f8e8ea;
      }

      .cls-33 {
        fill: #f8e7e8;
      }
    </style>
  </defs>
  <g>
    <g class="cls-1">
      <path d="M55.06,227.48c-4.82,0-11.82-1-17-9.25-4-6.55-8.6-13.1-13-19.44-2-2.85-4-5.7-5.91-8.56q-2.6-3.82-5.14-7.69c-.64-1-1.28-1.93-1.93-2.89a15.66,15.66,0,0,1-4.08-11.22,79.65,79.65,0,0,0-.35-10c-.2-2.74-.41-5.58-.45-8.54-.1-9.7-.33-20.11-1.21-30.46a15.87,15.87,0,0,1,3.15-11.62q5.9-7.32,11.82-14.62L26.89,86l3.55-4.34c2.94-3.57,5.72-6.94,8.29-10.45,3.55-4.84,7.91-7.45,13-7.78A11,11,0,0,1,53,60.57a14.26,14.26,0,0,1-1.71-8.08c-1.82-2-3.16-5.05-2.89-9.49a15.47,15.47,0,0,1-.2-11.47c.11-.73.22-1.47.32-2.21A10.36,10.36,0,0,1,51.27,22a15,15,0,0,1,2.32-7.86,10,10,0,0,1,7.89-4.5c4.31-.21,8.83-.31,13.44-.31,3.17,0,6.48.05,9.85.14,2-.09,4.1-.19,6.27-.19a51.56,51.56,0,0,1,6.47.37A10.06,10.06,0,0,1,101,10.69a11.42,11.42,0,0,1,6,10.88q0,14.09,0,28.15v3.73a20.35,20.35,0,0,1,5.24-5.13,21.61,21.61,0,0,1,12.06-3.75c10.49,0,19.35,7.81,21.07,18.57q.06.34.09.69c.94,10.57-4.39,19.3-13.52,22.78,1.63,2,3.25,4.07,4.8,6.23,2.44,3.42,5.11,6.69,7.94,10.15,1.34,1.66,2.69,3.31,4,5a13.86,13.86,0,0,1,3.18,9.27c-.11,3.48-.17,7.06-.23,10.52-.13,7.47-.27,15.2-.89,22.92-.18,2.12-.18,4.38-.19,6.77a68,68,0,0,1-1.19,14.69,13.86,13.86,0,0,1-1.26,3.36l0,.1a58.46,58.46,0,0,1-5.81,9.59c-.74,1.05-1.44,2.05-2.07,3-4.24,6.51-8.62,13-12.85,19.36-2.9,4.34-5.81,8.68-8.69,13A14.58,14.58,0,0,1,106,227.44h-.1c-7.11,0-16.5-.08-26-.08-8.89,0-16.89,0-24.44.11Z"/>
    </g>
    <path class="cls-2" d="M51.08,223.29c-4.82,0-11.83-1-17-9.25-4-6.55-8.6-13.1-13-19.44-2-2.85-3.95-5.7-5.9-8.56q-2.61-3.85-5.18-7.75l-1.89-2.84a15.64,15.64,0,0,1-4.08-11.21,77.57,77.57,0,0,0-.35-10c-.2-2.75-.41-5.59-.44-8.55-.11-9.71-.34-20.12-1.22-30.46A15.92,15.92,0,0,1,5.2,103.66Q11,96.49,16.78,89.34l6.13-7.57c1.17-1.45,2.36-2.9,3.55-4.34,2.94-3.57,5.72-6.94,8.28-10.45,3.55-4.84,7.91-7.45,13-7.78A11.37,11.37,0,0,1,49,56.38a14.26,14.26,0,0,1-1.71-8.08c-1.81-2-3.16-5-2.89-9.49a15.44,15.44,0,0,1-.2-11.46c.11-.74.22-1.48.32-2.22a10.4,10.4,0,0,1,2.8-7.37A15,15,0,0,1,49.61,9.9,10,10,0,0,1,57.5,5.4c4.29-.21,8.81-.31,13.42-.31,3.17,0,6.49,0,9.86.15,2-.1,4.11-.2,6.28-.2a51.79,51.79,0,0,1,6.47.37A10,10,0,0,1,97,6.5a11.44,11.44,0,0,1,6,10.88q0,14.09,0,28.15v3.73a20.51,20.51,0,0,1,5.24-5.13,21.61,21.61,0,0,1,12.06-3.75c10.49,0,19.36,7.81,21.07,18.57q.06.34.09.69c.94,10.57-4.39,19.3-13.52,22.78,1.63,2,3.25,4.07,4.8,6.23,2.44,3.42,5.11,6.68,7.93,10.14,1.35,1.66,2.7,3.32,4,5a13.85,13.85,0,0,1,3.18,9.27c-.11,3.48-.17,7.06-.23,10.52-.13,7.47-.27,15.2-.89,22.92-.17,2.12-.18,4.38-.19,6.77A67.39,67.39,0,0,1,145.37,168a13.86,13.86,0,0,1-1.26,3.36l-.05.1a58.6,58.6,0,0,1-5.8,9.58c-.74,1.06-1.44,2.06-2.08,3-4.22,6.48-8.58,13-12.79,19.28-2.92,4.37-5.85,8.73-8.75,13.12A14.58,14.58,0,0,1,102,223.25h-.11c-7.1,0-16.47-.08-25.95-.08-8.92,0-16.93,0-24.49.11Z"/>
    <g>
      <path class="cls-3" d="M16,169.25a6,6,0,0,1-2-4.48c.35-6.41-.7-12.75-.78-19.14-.11-10.4-.36-20.82-1.24-31.2a5.94,5.94,0,0,1,1-4.49q8.82-11,17.69-21.88c4.07-5,8.31-10,12.13-15.17,1.94-2.64,4-4.13,7.26-3.63a6.8,6.8,0,0,0,1,0c5.87,0,5.87,0,6.15-6,0-.78-.09-1.6.68-2.13a4.75,4.75,0,0,1,1,3.74c-.18,2.7,1.19,3.5,3.63,3.36s4.64.08,7,0c5.4-.06,10.79,0,16.18.07,5,0,5,0,6.36-4.59a3,3,0,0,1,2.25-1.33c4.67-.15,9.37-.78,14,.4a.86.86,0,0,1,.34,1.12c-4.38.08-8.74.06-13.11.53-1.94.2-2.46.84-2.46,2.66s1,2.22,2.55,2.16a46.06,46.06,0,0,0,5.39,0c3.11-.48,5,1.29,6.42,3.44,5.21,7.69,11.81,14.28,17.2,21.81,3.84,5.38,8.16,10.36,12.26,15.53a4,4,0,0,1,1,2.74c-.35,11-.21,22-1.1,33-.54,6.7.3,13.47-1.17,20.09a8.52,8.52,0,0,1-.65,1.49c-1.69-.83-4.49,1-5.22-2.17.12-8,.85-15.91,1-23.89.13-8.3.32-16.61,1-24.89a6.27,6.27,0,0,0-1.44-4.67c-8.88-11.31-18-22.41-26.89-33.74a5.3,5.3,0,0,0-4.59-2.31c-2.58.07-5.17,0-7.76.1-5.8,0-11.59.12-17.39,0-1.44,0-2.88.1-4.32,0-3.43.09-6.85.06-10.27,0C46.64,75.69,50,74,42.25,83.43,35,92.28,28.18,101.57,20.7,110.27c-3,3.44-2.57,7.32-2.25,11.19.7,8.74,1,17.51,1.1,26.26.05,5.62,1.15,11.19.6,16.82C19.28,166.54,16.67,167,16,169.25Z"/>
      <path class="cls-4" d="M16,169.25c-.3-2.53.78-3.9,3.37-4,1.08-.41,1.37.57,1.94,1.09C28.8,177.68,36.58,188.82,44,200.19c2.75,6.21,7.81,7.56,14,6.65a11.75,11.75,0,0,1,1.34-.09c5.76,0,11.52-.12,17.28,0,1.43,0,2.87-.14,4.31,0,3.39,0,6.78-.08,10.16,0a16.76,16.76,0,0,1,2,.05c5.87,1.06,10.24-.77,12.62-6.48,8-10.8,14.86-22.33,22.62-33.27.52-.56.79-1.55,1.9-1.15,1.49.77,3.59-.62,4.75,1.33-1.85,4.11-4.73,7.57-7.16,11.3-7.07,10.85-14.36,21.55-21.5,32.35a4.59,4.59,0,0,1-4.36,2.33c-16.87-.09-33.74-.13-50.6,0-3.93,0-6.42-.79-8.72-4.5-6-9.69-12.72-18.93-19.14-28.37C21,176.71,18.51,173,16,169.25Z"/>
      <path class="cls-5" d="M80.88,15.24a66.77,66.77,0,0,1,11.4.09c.06.1.17.19.18.28.36,12,.42,24.09,0,36.13l0,0a.83.83,0,0,1-1.09-.32c-.86-1.56-.67-3.27-.67-4.94,0-8.52,0-17.05,0-25.57,0-3.54-.57-3.9-3.81-4-3-.11-3.55,1.48-3.53,4,0,9.31,0,18.63,0,27.94a10.42,10.42,0,0,1-.17,3.34,2.19,2.19,0,0,1-1,.82c-4.45.59-8.9.87-13.32-.21-1.52-1.13-1.73-2.8-1.77-4.48A44.14,44.14,0,0,0,66.41,42c-.11-6.2-.3-12.39.09-18.58.08-.89.29-1.77.39-2.66.57-5.22.58-5.16,6-5.25C75.54,15.5,78.24,16,80.88,15.24Z"/>
      <path class="cls-6" d="M108.54,60.38c1.15-3.06,2.41-6,5.27-8,7.2-4.84,16.28-.68,17.68,8.1-.81,5.61-4.69,8.11-9.69,9.16-4.78,1-8.44-1.09-11.25-4.9a36.3,36.3,0,0,1-2.1-3.41A1.1,1.1,0,0,1,108.54,60.38Z"/>
      <path class="cls-7" d="M67.31,23.36q0,9.44,0,18.87c-.67,1.47-2,1.11-3.16,1.08-4.69-.12-5.19.35-5.35,4.87a6.43,6.43,0,0,1-.57,3.23l-.4.34c-1.1-1.51-.42-3.24-.55-4.86-.14-1.84.22-3.53-2-4.8-1.8-1-.61-3.47-.72-5.29.89-.72,1.71-.1,2.53.14,2.09.63,3.48-.39,4.56-2a3.39,3.39,0,0,0-.18-4.36,4.08,4.08,0,0,0-4.84-1.33c-.92.3-1.64,1.28-2.78.83.21-1.41.43-2.82.62-4.23.06-.44-.09-1.21.08-1.28,4.5-1.84,1.58-6.4,3.41-9.2,1,1.07,1,2.45.9,3.75-.12,2.49,1.08,3.29,3.41,3.24C64,22.33,65.84,22,67.31,23.36Z"/>
      <path class="cls-8" d="M68.75,52.36l13.44.09c1.25,1.36,1.33,3.08,1.29,4.76-.07,3-1.15,4-4.1,4.18-4.26.2-8.54-.24-12.79.55a4,4,0,0,1-3.94-1.45c0-.44,0-.89,0-1.34,0-5.74,0-5.74-4.78-7.4l.18-.12C61.74,49.86,65.25,51,68.75,52.36Z"/>
      <path class="cls-9" d="M62.65,60.49c5.9.82,11.79-.38,17.7-.05,2.62.15,2.26-2.29,2.19-3.66s-.23-2.88-.35-4.33l.74-.12A3.28,3.28,0,0,1,86.77,52c1.08,1.69.3,3.57.5,5.35.11,1-.47,2.16.46,3.07v0a.84.84,0,0,1-.24,1.06c-1.63.94-3.43.61-5.18.69-3.1,0-6.21-.06-9.31,0-3.59.06-4.27.88-3.86,4.45.1.87.54,1.7.27,2.61-1.11,0-2.22.07-3.33.07-8.15,0-8.15,0-8.17-8.11Z"/>
      <path class="cls-10" d="M108.74,61.07c1.65.59,1.85,2.38,2.72,3.56,5.77,7.88,16.15,4.15,19.18-2.35.28-.59.57-1.17.85-1.75.61,6.85-2.91,11.85-9.26,13.16-5.54,1.14-10.89-2.25-13-8.22-.18-.53-.43-1-.64-1.55a1.07,1.07,0,0,0,0-.66,1.49,1.49,0,0,1-.45-1.6A1,1,0,0,1,108.74,61.07Z"/>
      <path class="cls-11" d="M67.31,23.36c-.56,0-1.11,0-1.67,0-7.78,0-7.78,0-7.67-7.95C65.6,15,73.24,15,80.88,15.24c-3,1.37-6.11.6-9.14.55s-4.16.71-3.73,3.72A5.24,5.24,0,0,1,67.31,23.36Z"/>
      <path class="cls-12" d="M53.86,30.09c3.37-2.74,5.59-2.9,8-.59,1.95,1.91,2,4.37.2,6.61-2.27,2.86-4.8,2.14-7.44.69C53.16,34.69,52.62,32.48,53.86,30.09Z"/>
      <path class="cls-8" d="M92.43,51.74l-.15-36.41c.88.47.71,1.31.71,2.07q0,16.25,0,32.48A2.26,2.26,0,0,1,92.43,51.74Z"/>
      <path class="cls-8" d="M87.68,61a2.72,2.72,0,0,1,0-.64l20.81,0c.07.23.13.46.19.69l-.19.09a3.49,3.49,0,0,1-2.44,1c-5.24,0-10.49.09-15.74,0A3.1,3.1,0,0,1,87.68,61Z"/>
      <path class="cls-8" d="M87.73,60.43c-2.22-2.5,0-5.43-.78-8.07,1.34-2,3-1.78,4.76-.65l.7.07c-1.11,1.6-3.64-.2-4.35,1.5C87.12,55.51,87.77,58,87.73,60.43Z"/>
      <path class="cls-13" d="M130.21,165.94l-1.2,1.38c-7.85.29-15.71,1-23.54-.38-1.66-1.5-1.19-3.52-1.26-5.38-.52-14.83.8-29.64.74-44.47a33.58,33.58,0,0,0-2.6-12.75c-3.44-8.43-7-16.81-10-25.4-.47-1.35-1.26-2.68-.58-4.2,7-1.32,11.85.89,16.18,7.15,7.12,10.29,15.52,19.7,23.44,29.44a6.36,6.36,0,0,1,1.41,4.66q-.66,15-1.24,29.9c-.24,5.82-.42,11.65-.68,17.47A13.33,13.33,0,0,1,130.21,165.94Z"/>
      <path class="cls-14" d="M91.74,74.74q6.72,17.19,13.45,34.37a5.64,5.64,0,0,1,.62,1.9c-.15,8.52.52,17-.36,25.55a92.44,92.44,0,0,0-.23,9.42c0,6.85,0,13.7,0,20.55l-.45.44a44,44,0,0,1-16.21,0,14.86,14.86,0,0,1-2-9.74,3.72,3.72,0,0,1,1.94-1.79c4.68-2,6.09-6,6.3-10.64.19-3.92.17-7.85,0-11.78-.28-7.48-3.83-11-11.3-11.45-3.21-.21-6.52.72-9.62-.81a35,35,0,0,1-4.58-15.37A76.92,76.92,0,0,1,70.9,80.92c.52-2.17,1-4.4,2.51-6.19Z"/>
      <path class="cls-13" d="M20.74,166.56l-1.35-1.31q-.72-20.06-1.44-40.1a32.62,32.62,0,0,0-.48-3.67c-.82-5.66.9-10.15,4.77-14.61,8.32-9.58,16-19.68,23.84-29.7a5.87,5.87,0,0,1,5.7-2.56c2.24.19,4.5.1,6.75.13.59,1.68-.42,3.05-.94,4.48-3.54,9.83-7.85,19.35-11.39,29.18a15.49,15.49,0,0,0-1,6.56c.14,2,.55,4.06-.72,5.89a2.42,2.42,0,0,1-.56.36c-9.53,3.63-10.07,4.43-10.07,14.69,0,3.13,0,6.27,0,9.4.1,6.27,3,9.64,9.18,10.89a3.7,3.7,0,0,1,2.41,1,15.86,15.86,0,0,1,.07,9.08,2.15,2.15,0,0,1-1,.84c-7.21,1-14.45.42-21.69.3A4.78,4.78,0,0,1,20.74,166.56Z"/>
      <path class="cls-14" d="M44.4,120.62c-1.79-9.47,2.94-17.47,6-25.79,2.49-6.78,5.41-13.4,8.14-20.09H69.44c.89,1.43.24,2.86-.12,4.24-3.24,12.68-3.45,25.33.23,38,.4,1.37,1,2.84-.41,4.08-1.67.87-3.49.65-5.26.66-5,0-10,0-15.06,0C47.28,121.67,45.65,121.86,44.4,120.62Z"/>
      <path class="cls-15" d="M69.43,120.56c-1.85-7.24-3.57-14.43-3.56-22a87.28,87.28,0,0,1,3.57-23.76l4,0c-.62,4.4-2.18,8.58-2.74,13-1.38,10.92-1,21.6,3.27,31.91a5.44,5.44,0,0,1,.21,1A3.46,3.46,0,0,1,69.43,120.56Z"/>
      <path class="cls-16" d="M69.41,69.21c-2.33-2-1.61-4.62-1-6.83s2.88-1.12,4.45-1.18c3.13-.11,6.27,0,9.41,0a3.41,3.41,0,0,1,.33,1.6c.12,4.58,2,5.94,6.49,4.82a2.28,2.28,0,0,0,1.75-1.74c.27-.84.08-2.15,1.63-2-.14,6.22.9,5.43-5.58,5.45C81,69.36,75.22,69.26,69.41,69.21Z"/>
      <path class="cls-17" d="M92.44,63.89a1.83,1.83,0,0,0-.26.21c-1.15,1.22.41,3.71-1.2,4.15a25,25,0,0,1-7.25.3c-1.94-.07-2.08-1.7-2.15-3.17s-.19-2.9.66-4.2L87.68,61l20.86.12c0,.7,0,1.4,0,2.1C103.21,63.74,97.78,62.65,92.44,63.89Z"/>
      <path class="cls-13" d="M58.62,207.8a10.2,10.2,0,0,0-1.66.08c-6.72,1.33-11.2-1.4-13.75-7.6,2.47-1.58,5.22-.69,7.84-.83,3.51-.19,3.7-.36,2.66-3.72-2.43-7.79-5.14-15.49-7.62-23.27-.6-1.88-1.6-3.72-1.07-5.83l.1-.12a4.75,4.75,0,0,1,3.47-1q16.2-.09,32.38,0a6.35,6.35,0,0,1,3,.57,3,3,0,0,1,1.25,2.62A74,74,0,0,1,80.62,200a3,3,0,0,1-1.37,1.84c-6.13-1-12.32-.36-18.49-.53-2,0-3,.7-2.31,2.87A4.7,4.7,0,0,1,58.62,207.8Z"/>
      <path class="cls-18" d="M105.18,166.53c6.8,0,13.59,0,20.39.05,1.17,0,2.49-.4,3.44.74l-22.37,33.16c-3.48,1.41-7.09.81-10.65.62-1.83-.09-2.42-1.42-2.19-3.11a26.65,26.65,0,0,1,1.28-4.54c2.43-7.72,5.11-15.35,7.6-23,.49-1.49,1-3,2.5-3.87Z"/>
      <path class="cls-19" d="M45,166.63c3.47,10.47,6.9,20.94,10.44,31.38.68,2-.14,2.37-1.84,2.34-3.47,0-6.94,0-10.41-.07-7.51-11.23-15.36-22.23-22.47-33.72Z"/>
      <path class="cls-20" d="M105.18,166.54c-3.44,10.25-6.82,20.52-10.36,30.73-.9,2.62,0,3.17,2.41,3.11,3.13-.08,6.27.06,9.41.1-2.41,6.1-6.74,8.76-13.31,7.4a11.68,11.68,0,0,0-1.68-.08c-.72-.89-.45-1.85-.24-2.85.67-3.33.5-3.51-3-3.67-1.53-.07-3.15.23-4.45-.94-1-2-.16-4,.37-5.87,2.34-8.33,4.09-16.72,3.3-25.44a2.75,2.75,0,0,1,.68-2.49Z"/>
      <path class="cls-21" d="M88.33,166.54c1.77,8.9-.5,17.49-2.23,26.07-.52,2.55-1.7,5-1.88,7.69-.63,2.7-1.08,5.49-3.32,7.49H76.8c-.68-2.5.48-4.36,2.11-6.06a79.23,79.23,0,0,0,5.32-35.2,11.68,11.68,0,0,1-1.34-9.68,3.18,3.18,0,0,1,4,.28Z"/>
      <path class="cls-22" d="M78.91,201.73q-1.05,3-2.11,6.06H58.62c-2.7-7.45-2.7-7.45,4.9-7.46,4.15,0,8.3,0,12.45,0C77.12,200.37,78.57,199.9,78.91,201.73Z"/>
      <path class="cls-23" d="M80.9,207.79c1.17-2.47,1.33-5.39,3.32-7.49,2,0,4,.17,6,0,3.16-.25,3.22,1.54,2.6,3.74-.36,1.25-1.25,2.35-1.14,3.75Z"/>
      <path class="cls-24" d="M91.71,51.71c-1.59.22-3.27-.26-4.76.65l-4,0a5.81,5.81,0,0,1-.72-3.56c0-9.89.09-19.78,0-29.67,0-2.49.67-3.35,3.22-3.26,7.47.25,6.23-.89,6.28,6.2C91.75,31.93,91.7,41.82,91.71,51.71Z"/>
      <path class="cls-25" d="M68,32.71c0-2.25.13-4.51,0-6.75-.19-2.49,1.18-2.66,3.11-2.68s3.15.34,3.06,2.75c-.16,4.38-.08,8.77,0,13.16,0,2.27-.79,3.62-3.26,3.74-2.94.14-2.87-1.79-2.84-3.81S68,34.84,68,32.71Z"/>
      <path class="cls-26" d="M68.75,52.36,58,51.63c0-1.34-.09-2.68-.09-4,0-4.58,1.24-5.7,5.88-5.35,1.16.08,2.35,1,3.51,0C68.75,45.47,67.35,49.11,68.75,52.36Z"/>
      <path class="cls-27" d="M124.84,131.18c.35,4.38-.68,8.69-.68,13,0,1.28-.19,2.66-1.87,2.59a2.17,2.17,0,0,1-2.12-2.54c.85-6.69.36-13.42.75-20.11.08-1.31.62-2.87,2.41-2.64,1.62.21,1.51,1.68,1.51,2.93Z"/>
      <path class="cls-28" d="M122.7,109.78a1.7,1.7,0,0,1-1.18,1.91,2,2,0,0,1-2.42-.67c-3.52-4.47-7.06-8.94-10.55-13.44-.73-1-1-2.11.16-3a1.91,1.91,0,0,1,2.74.31c3.67,4.64,7.29,9.32,10.91,14A3.22,3.22,0,0,1,122.7,109.78Z"/>
      <path class="cls-29" d="M86.94,157.13l-4,.05c-1.34,1.07-2.94,1-4.5,1q-14.48,0-28.94,0c-1.56,0-3.17.07-4.48-1-8.6-.43-12.12-4.11-12.14-12.68,0-3.71.24-7.44-.07-11.13-.63-7.57,4.35-12.49,11.56-12.72l25-.06,4.72.09c3.26,0,6.52,0,9.78,0,6.78.16,10.83,3.27,11.48,9.87a107.33,107.33,0,0,1,0,16.82C95.1,152.58,91.68,155.55,86.94,157.13Z"/>
      <path class="cls-30" d="M45.05,157.15l37.92,0,1.26,9.35-39.11,0C45.1,163.39,45.07,160.27,45.05,157.15Z"/>
      <path class="cls-31" d="M64.14,153c-6.41,0-12.82,0-19.23,0-5,0-7.85-2.79-7.93-7.93q-.07-6.08,0-12.14c.07-5.53,2.67-8,8.11-7.87,10,.13,20,.25,30,.18,3.33,0,6.63-1,10-.19,4.9,1.17,6.4,2.81,6.52,7.87.1,4.27.06,8.54,0,12.82A7.38,7.38,0,0,1,84.38,153c-6.75.06-13.49,0-20.24,0Z"/>
      <path class="cls-32" d="M64.32,146.29H50.48c-2,0-4.54.28-4.62-2.57-.08-3.06,2.61-2,4.33-2.18,7.61-.73,15.22.19,22.83,0,2.42-.05,4.82-1.34,7.3-.13,1.2.59,2.8.74,2.47,2.6s-1.64,2.26-3.28,2.25C74.45,146.28,69.39,146.29,64.32,146.29Z"/>
      <path class="cls-33" d="M64.79,130.78c3.71,0,7.43,0,11.14,0,1.57,0,3.29,0,3.56,2.16.29,2.46-1.7,2.81-3.27,3a69.53,69.53,0,0,1-8.42.17c-5.26-.12-10.54.44-15.8-.53-1.52-.28-3.27-.39-3.2-2.17s2-2.48,3.52-2.53c4.15-.15,8.31-.05,12.47-.05Z"/>
    </g>
  </g>
</svg>
