<svg xmlns="http://www.w3.org/2000/svg" xmlns:xlink="http://www.w3.org/1999/xlink" width="222.98" height="181.36" viewBox="0 0 222.98 181.36">
  <defs>
    <style>
      .cls-1 {
        isolation: isolate;
      }

      .cls-2, .cls-7 {
        opacity: 0.5;
      }

      .cls-3 {
        fill: #fff;
      }

      .cls-4 {
        fill: #f4e9e4;
        stroke: #3a3a35;
        stroke-miterlimit: 10;
      }

      .cls-5 {
        opacity: 0.2;
      }

      .cls-5, .cls-7 {
        mix-blend-mode: multiply;
      }

      .cls-6 {
        fill: #dd8e65;
      }

      .cls-8 {
        fill: #c6b9b3;
      }

      .cls-9 {
        fill: url(#linear-gradient);
      }
    </style>
    <linearGradient id="linear-gradient" x1="172.86" y1="114.02" x2="137.27" y2="138.68" gradientUnits="userSpaceOnUse">
      <stop offset="0" stop-color="#c95b3c"/>
      <stop offset="0.13" stop-color="#dd8e65"/>
      <stop offset="0.31" stop-color="#e6baa8"/>
      <stop offset="0.31" stop-color="#e7bcaa"/>
      <stop offset="0.37" stop-color="#ecccbe"/>
      <stop offset="0.43" stop-color="#f0d6cb"/>
      <stop offset="0.48" stop-color="#f1d9cf"/>
      <stop offset="0.71" stop-color="#e6baa8"/>
      <stop offset="0.87" stop-color="#dd8e65"/>
      <stop offset="1" stop-color="#c95b3c"/>
    </linearGradient>
  </defs>
  <g class="cls-1">
    <g id="Layer_1" data-name="Layer 1">
      <g>
        <path class="cls-2" d="M146.28,178.38c-25,0-46.32-12.25-55.65-30.86a52,52,0,0,1-26.45,7.28c-1.26,0-2.53-.05-3.78-.14-.85-.06-1.7-.15-2.55-.25l-.35,0-.63-.09L55.29,154l-.52-.09-.71-.13-1.34-.28-.71-.17-.63-.15c-.33-.08-.71-.18-1.08-.29l-1.44-.4-.49-.16-1.22-.4c-.28-.09-.55-.18-.81-.28s-.52-.19-.77-.29l-.17-.06q-.81-.3-1.59-.63l-1-.4c-.55-.24-1.08-.49-1.61-.74l-.22-.11-.6-.28c-.76-.38-1.51-.78-2.24-1.19l-.69-.39-.21-.13c-.46-.27-.92-.54-1.37-.82s-.69-.44-1-.66l-1.18-.79c-.34-.24-.7-.48-1.05-.74s-.73-.54-1.08-.81c-.64-.48-1.23-1-1.82-1.44l-.22-.18-.83-.7c-.35-.3-.69-.61-1-.93l-.1-.09-.8-.74c-.39-.37-.77-.74-1.14-1.12l-.7-.71c-.39-.41-.78-.81-1.16-1.23l-.4-.45c-.9-1-1.76-2-2.57-3.08l-.2-.25c-.36-.47-.75-1-1.13-1.52l-.41-.57c-.36-.52-.73-1.06-1.09-1.6l-.31-.47a65.2,65.2,0,0,1-4.46-8.09l-.18-.38c-.31-.68-.61-1.38-.91-2.08,0,0-.06-.15-.07-.19a69.42,69.42,0,0,1-2.47-7,.36.36,0,0,1,0-.1c-.23-.77-.44-1.55-.64-2.34L8.83,108A81.24,81.24,0,0,1,6.72,82.1,94.85,94.85,0,0,1,26.38,31.23C38.32,16.24,53.22,8,68.34,8c1,0,2,0,3,.11a43,43,0,0,1,9.37,1.79l.47.14c.29.09.58.2.86.3l.47.17c.39.13.79.27,1.17.42s.68.27,1,.41l.27.12c.93.39,1.87.83,2.79,1.29l.24.12c.3.14.59.29.89.45s.73.4,1.1.62l.53.3.89.53c.38.23.75.47,1.12.72l.42.27.92.62c.44.31.86.61,1.28.93l1.09.82,1.23,1c.36.29.71.59,1,.89s.8.7,1.19,1.06l1,.95c.39.38.77.74,1.14,1.12s.58.6.87.9l.23.25,1,1,.76.87.43.51c.27.3.53.61.79.93l.72.9.22.29c.57.73,1.12,1.47,1.67,2.22l.21.3c.26.36.52.71.77,1.08l.63,1,.37.57c.24.36.47.72.7,1.08s.48.78.71,1.18l.1.17c.29.48.55.91.79,1.34s.52.92.77,1.38.51.94.75,1.41.48.94.71,1.41.48,1,.71,1.46.44,1,.66,1.44l.66,1.52,0,.12c.19.44.37.88.55,1.32s.41,1,.6,1.55l.13.33.43,1.15c.19.52.37,1,.54,1.58l.2.57c.11.31.21.63.32,1,.25.78.48,1.57.71,2.36l0,.12c.11.37.22.74.32,1.11.25.91.49,1.82.71,2.73.07.31.14.61.2.91l.14.61c.13.54.25,1.09.36,1.64a.9.9,0,0,1,0,.16c.08.35.14.69.2,1l.1.56c.1.53.2,1.07.29,1.6l.07.37c0,.29.09.58.13.88l0,.34c.09.6.18,1.2.26,1.81l.07.56c0,.24.12,1,.12,1,.07.63.13,1.24.19,1.87l.05.47a77.86,77.86,0,0,1,16.46-4.45,86.85,86.85,0,0,1,13.53-1.06c30.33,0,57.71,15.53,65.37,37,.05.14.11.28.16.43s.07.23.11.34.16.49.24.77c.24.75.44,1.47.62,2.19l.12.53c.22.93.38,1.77.51,2.58,1.51,9.5-.53,19.49-5.89,28.9l-.2.35a55.53,55.53,0,0,1-3.05,4.72l-.31.43c-1.07,1.47-2.24,2.92-3.46,4.33l-.45.51-1.15,1.27-.5.52c-.69.72-1.37,1.41-2.08,2.09,0,0-.48.47-.68.65l-1.15,1.05-.87.77-1.59,1.35-1.27,1-1.06.82-1.18.88c-.37.27-.68.5-1,.72-.67.48-1.35.94-2,1.4l-.7.45-.2.13c-.5.32-1,.64-1.51,1l-.92.56c-.76.46-1.53.9-2.3,1.33l-.57.31q-1,.54-2,1.05l-.87.43c-.71.36-1.44.71-2.17,1l-.44.2c-.85.39-1.72.77-2.6,1.14l-.8.32c-.7.29-1.44.57-2.18.85l-.61.23c-.91.33-1.83.66-2.77,1l-.67.22c-.75.24-1.53.47-2.32.7l-.74.21c-.92.26-1.89.52-2.86.75l-.49.11c-.82.2-1.67.39-2.52.56l-.78.16q-1.51.3-3,.54a81.72,81.72,0,0,1-12.78,1Z"/>
        <path class="cls-3" d="M141.28,173.38c-25,0-46.32-12.25-55.65-30.86a52,52,0,0,1-26.45,7.28c-1.26,0-2.53-.05-3.78-.14-.85-.06-1.7-.15-2.55-.25l-.35,0-.63-.09L50.29,149l-.52-.09-.71-.13-1.34-.28-.71-.17-.63-.15c-.33-.08-.71-.18-1.08-.29l-1.44-.4-.49-.16-1.22-.4c-.28-.09-.55-.18-.81-.28s-.52-.19-.77-.29l-.17-.06q-.81-.3-1.59-.63l-1-.4c-.55-.24-1.08-.49-1.61-.74l-.22-.11-.6-.28c-.76-.38-1.51-.78-2.24-1.19l-.69-.39-.21-.13c-.46-.27-.92-.54-1.37-.82s-.69-.44-1-.66l-1.18-.79c-.34-.24-.7-.48-1.05-.74s-.73-.54-1.08-.81c-.64-.48-1.23-1-1.82-1.44l-.22-.18-.83-.7c-.35-.3-.69-.61-1-.93l-.1-.09-.8-.74c-.39-.37-.77-.74-1.14-1.12l-.7-.71c-.39-.41-.78-.81-1.16-1.23l-.4-.45c-.9-1-1.76-2-2.57-3.08l-.2-.25c-.36-.47-.75-1-1.13-1.52l-.41-.57c-.36-.52-.73-1.06-1.09-1.6l-.31-.47a65.2,65.2,0,0,1-4.46-8.09L8,115.08c-.31-.68-.61-1.38-.91-2.08,0,0-.06-.15-.07-.19a69.42,69.42,0,0,1-2.47-7,.36.36,0,0,1,0-.1c-.23-.77-.44-1.55-.64-2.34L3.83,103A81.24,81.24,0,0,1,1.72,77.1,94.85,94.85,0,0,1,21.38,26.23C33.32,11.24,48.22,3,63.34,3c1,0,2,0,3,.11a43,43,0,0,1,9.37,1.79l.47.14c.29.09.58.2.86.3l.47.17c.39.13.79.27,1.17.42s.68.27,1,.41l.27.12c.93.39,1.87.83,2.79,1.29l.24.12c.3.14.59.29.89.45s.73.4,1.1.62l.53.3.89.53c.38.23.75.47,1.12.72l.42.27.92.62c.44.31.86.61,1.28.93l1.09.82,1.23,1c.36.29.71.59,1,.89s.8.7,1.19,1.06l1,.95c.39.38.77.74,1.14,1.12s.58.6.87.9l.23.25,1,1,.76.87.43.51c.27.3.53.61.79.93l.72.9.22.29c.57.73,1.12,1.47,1.67,2.22l.21.3c.26.36.52.71.77,1.08l.63,1,.37.57c.24.36.47.72.7,1.08s.48.78.71,1.18l.1.17c.29.48.55.91.79,1.34s.52.92.77,1.38.51.94.75,1.41.48.94.71,1.41.48,1,.71,1.46.44,1,.66,1.44l.66,1.52,0,.12c.19.44.37.88.55,1.32s.41,1,.6,1.55l.13.33.43,1.15c.19.52.37,1,.54,1.58l.2.57c.11.31.21.63.32,1,.25.78.48,1.57.71,2.36l0,.12c.11.37.22.74.32,1.11.25.91.49,1.82.71,2.73.07.31.14.61.2.91l.14.61c.13.54.25,1.09.36,1.64a.9.9,0,0,1,0,.16c.08.35.14.69.2,1l.1.56c.1.53.2,1.07.29,1.6l.07.37c0,.29.09.58.13.88l0,.34c.09.6.18,1.2.26,1.81l.07.56c0,.24.12,1,.12,1,.07.63.13,1.24.19,1.87l.05.47a77.86,77.86,0,0,1,16.46-4.45,86.85,86.85,0,0,1,13.53-1.06c30.33,0,57.71,15.53,65.37,37,.05.14.11.28.16.43s.07.23.11.34.16.49.24.77c.24.75.44,1.47.62,2.19l.12.53c.22.93.38,1.77.51,2.58,1.51,9.5-.53,19.49-5.89,28.9l-.2.35a55.53,55.53,0,0,1-3.05,4.72l-.31.43c-1.07,1.47-2.24,2.92-3.46,4.33l-.45.51-1.15,1.27-.5.52c-.69.72-1.37,1.41-2.08,2.09,0,0-.48.47-.68.65l-1.15,1.05-.87.77-1.59,1.35-1.27,1-1.06.82-1.18.88c-.37.27-.68.5-1,.72-.67.48-1.35.94-2,1.4l-.7.45-.2.13c-.5.32-1,.64-1.51,1l-.92.56c-.76.46-1.53.9-2.3,1.33l-.57.31q-1,.54-2,1.05l-.87.43c-.71.36-1.44.71-2.17,1l-.44.2c-.85.39-1.72.77-2.6,1.14l-.8.32c-.7.29-1.44.57-2.18.85l-.61.23c-.91.33-1.83.66-2.77,1l-.67.22c-.75.24-1.53.47-2.32.7l-.74.21c-.92.26-1.89.52-2.86.75l-.49.11c-.82.2-1.67.39-2.52.56l-.78.16q-1.51.3-3,.54a81.72,81.72,0,0,1-12.78,1Z"/>
        <g>
          <g>
            <path class="cls-4" d="M111,83.5c-2.69,36.07-27.85,60.21-55,58.18S7,113.76,9.7,77.7,38.59,9,65.76,11.07,113.72,47.43,111,83.5Z"/>
            <g class="cls-5">
              <path class="cls-6" d="M73.75,12.64c9.19,8,22.74,27.61,20.75,57.08-2.5,37.09-29.83,56.13-49.45,55.35-14.66-.59-27.9-9.33-34-26.1,5.34,24.62,23.46,41.11,44.91,42.71,27.17,2,52.33-22.11,55-58.18C113.44,51.07,96.87,20,73.75,12.64Z"/>
            </g>
            <g class="cls-7">
              <path class="cls-8" d="M108.8,56.82c.67,7.83.15,18.06-5.33,25.37-9,12.06-15.63,20-17,37.06-1.18,15.11-24.94,27-48,17.49A45.54,45.54,0,0,0,56,141.68c27.17,2,52.33-22.11,55-58.18A85.53,85.53,0,0,0,108.8,56.82Z"/>
            </g>
          </g>
          <g>
            <g>
              <path class="cls-4" d="M152.82,164.46c-32.87,5.21-59.8-12.22-63.73-37s14.65-49.78,47.52-55,67.59,11.37,71.51,36.12S185.69,159.25,152.82,164.46Z"/>
              <g class="cls-5">
                <path class="cls-9" d="M126,159.37c-24.67-7-33.74-22-37-33.15,0,.42.11.84.17,1.26,3.93,24.76,30.86,42.19,63.73,37,22.88-3.63,42.58-17.27,51.14-33.57C187.64,151.69,155.38,167.73,126,159.37Z"/>
              </g>
            </g>
            <g class="cls-5">
              <path class="cls-6" d="M208.12,108.61a31.46,31.46,0,0,0-1.27-5.08c-.47,16.89-14.37,33.78-43.46,39.74-43.21,8.87-72.21-13.13-67.23-39.45,2.15-11.32,9.2-16,15.74-22.33-17,10.66-25.6,28.39-22.81,46,3.93,24.76,30.86,42.19,63.73,37S212,133.37,208.12,108.61Z"/>
            </g>
          </g>
        </g>
      </g>
    </g>
  </g>
</svg>
