<svg id="Layer_1" data-name="Layer 1" xmlns="http://www.w3.org/2000/svg" width="239.92" height="277.71" viewBox="0 0 239.92 277.71">
  <defs>
    <style>
      .cls-1 {
        opacity: 0.5;
      }

      .cls-2 {
        fill: #fff;
      }

      .cls-3 {
        fill: #c79e70;
      }

      .cls-4 {
        fill: #bc8857;
      }

      .cls-5 {
        fill: #8a5d3b;
      }

      .cls-6 {
        fill: #c7ab8f;
      }

      .cls-7 {
        fill: #c3bab1;
      }
    </style>
  </defs>
  <g>
    <g>
      <path class="cls-1" d="M55.31,270.34a13.2,13.2,0,0,1-6.16-1.54,13.28,13.28,0,0,1-4.64.84,13,13,0,0,1-3.11-.38,12.51,12.51,0,0,1-3.1-1.2,13.46,13.46,0,0,1-3.14.36H35a12.88,12.88,0,0,1-9.81-4.37c-.24-.28-.47-.56-.68-.85a13.43,13.43,0,0,1-1.5-.33,12.36,12.36,0,0,1-9.08-9.34,11.67,11.67,0,0,1,.74-6.63,8,8,0,0,1,1.09-2.06,13.25,13.25,0,0,1,2.88-3.1l4.06-4.23c.72-.78,1.55-1.64,2.49-2.6l.69-.72c.15-.16.3-.3.45-.44,1.74-1.74,3.62-3.56,5.61-5.42a8.06,8.06,0,0,1,1.46-1.07c9.94-5.76,21.23-22.5,23.22-34.45,2.34-14,9.28-44.82,18.85-61.31.09-.16.19-.32.29-.47,7.37-10.87,9.44-27.83,9.72-30.35V39.47A8,8,0,0,1,91,31.84l44.63-14.1a8.3,8.3,0,0,1,1.71-.7l4-1.11,10.09-3.19a8,8,0,0,1,10.31,8.87c-.1.62-9.75,62.52-9.49,80.25a27.11,27.11,0,0,0,1.18,8.76,34.64,34.64,0,0,0,5.45,6.27l0,0a45.72,45.72,0,0,1,6.89,8.43,36.72,36.72,0,0,1,3.27,6.51c3.71,9.17,3.47,18.73-.7,26.93a21.37,21.37,0,0,1-2.88,4.66c-.34.46-.69.92-1.06,1.37a7.18,7.18,0,0,1-.94,1l-.9.78c-3.06,3.11-7.17,6.53-22.41,18.17l-.33.28c-4,3.47-10.82,9.28-14.56,20.23-.34,1.1-.66,2.27-.94,3.47-.42,3-.7,5.78-1,8.2a76.45,76.45,0,0,1-1.62,10.92c-1.77,8.89-8.41,16.15-19.22,21a37,37,0,0,1-4.13,1.65,55.73,55.73,0,0,1-7.36,2.09l-.12,0-2.15.63c-4.19,1.21-4.78,1.43-5.77,2.35a38.81,38.81,0,0,1-3.2,3.54l-.58.7a8.15,8.15,0,0,1-1.83,1.64l-1.92,1.21A21.06,21.06,0,0,1,71,265.05l-.3.1c-.39.14-.76.25-1.11.34l-.47.11a15,15,0,0,1-3.37.39h-.25A14.85,14.85,0,0,1,55.31,270.34Z"/>
      <path class="cls-2" d="M50.31,265.34a13.2,13.2,0,0,1-6.16-1.54,13.28,13.28,0,0,1-4.64.84,13,13,0,0,1-3.11-.38,12.51,12.51,0,0,1-3.1-1.2,13.46,13.46,0,0,1-3.14.36H30a12.88,12.88,0,0,1-9.81-4.37c-.24-.28-.47-.56-.68-.85a13.43,13.43,0,0,1-1.5-.33,12.36,12.36,0,0,1-9.08-9.34,11.67,11.67,0,0,1,.74-6.63,8,8,0,0,1,1.09-2.06,13.25,13.25,0,0,1,2.88-3.1l4.06-4.23c.72-.78,1.55-1.64,2.49-2.6l.69-.72c.15-.16.3-.3.45-.44,1.74-1.74,3.62-3.56,5.61-5.42a8.06,8.06,0,0,1,1.46-1.07c9.94-5.76,21.23-22.5,23.22-34.45,2.34-14,9.28-44.82,18.85-61.31.09-.16.19-.32.29-.47,7.37-10.87,9.44-27.83,9.72-30.35V34.47A8,8,0,0,1,86,26.84l44.63-14.1a8.3,8.3,0,0,1,1.71-.7l4-1.11,10.09-3.19a8,8,0,0,1,10.31,8.87c-.1.62-9.75,62.52-9.49,80.25a27.11,27.11,0,0,0,1.18,8.76,34.64,34.64,0,0,0,5.45,6.27l0,0a45.72,45.72,0,0,1,6.89,8.43,36.72,36.72,0,0,1,3.27,6.51c3.71,9.17,3.47,18.73-.7,26.93a21.37,21.37,0,0,1-2.88,4.66c-.34.46-.69.92-1.06,1.37a7.18,7.18,0,0,1-.94,1l-.9.78c-3.06,3.11-7.17,6.53-22.41,18.17l-.33.28c-4,3.47-10.82,9.28-14.56,20.23-.34,1.1-.66,2.27-.94,3.47-.42,3-.7,5.78-1,8.2a76.45,76.45,0,0,1-1.62,10.92c-1.77,8.89-8.41,16.15-19.22,21a37,37,0,0,1-4.13,1.65,55.73,55.73,0,0,1-7.36,2.09l-.12,0-2.15.63c-4.19,1.21-4.78,1.43-5.77,2.35a38.81,38.81,0,0,1-3.2,3.54l-.58.7a8.15,8.15,0,0,1-1.83,1.64l-1.92,1.21A21.06,21.06,0,0,1,66,260.05l-.3.1c-.39.14-.76.25-1.11.34l-.47.11a15,15,0,0,1-3.37.39h-.25A14.85,14.85,0,0,1,50.31,265.34Z"/>
      <g>
        <path class="cls-3" d="M88.44,34.47V96.09s-1.85,20.8-11.1,34.43c-8.62,14.86-15.4,43.82-17.86,58.61S44.07,222.4,32.36,229.18c-9.24,8.63-12.73,13.21-12.73,13.21a4.47,4.47,0,0,0-2.88,4.66c.42,2.18,2.9,3,3.41,3.12A6,6,0,0,0,25.38,249a5.36,5.36,0,0,0,.82,4.87,5.14,5.14,0,0,0,3.87,1.59,6.35,6.35,0,0,0,4.62-2.07,5.81,5.81,0,0,0,3.63,3.15,5.81,5.81,0,0,0,6.23-2.88c5.75,7.94,11.5,1.1,12.87-1.64,6.57,4.38,14.79-6.85,14.79-6.85s2.74-3.56,11.5-5.2,24.1-7.67,25.47-20,1.09-31.22,20.81-46.28,20.54-16.16,24.1-20,7.67-17,0-29-14.51-9-14.79-27.66,9.59-81.61,9.59-81.61Z"/>
        <path class="cls-4" d="M148.34,15.92s-9.86,68.19-9,78.87c-.05,10.68-.54,13.47,9,22.82s15.2,24.55,4.93,37.15c-11.91,10.41-20.4,16.16-23.42,19-4.79,4.11-14.1,11.92-18.21,27.52-2.32,15.89-.68,22.32-8.9,29.85-8.07,5.89-9.85,6.44-18.89,8.77-8.77,2.6-9.45,2.19-15.75,9.86-5.48,3.56-5.89,3.15-8.35,3,5.2-2.6,11.64-9,12.87-12.6s14.93-6.43,18.9-9.45,11.77-11.5,12.59-20.26,2.74-25.2,14.24-34.51,26.7-26.15,26.84-31.9,2.33-25.61-7.26-35.19L135.61,106l-1.51-1.5.41-84.76Z"/>
        <path class="cls-5" d="M26.61,247.87a34.59,34.59,0,0,1,4.55-8.3,56.69,56.69,0,0,1,6.22-7.18c1.18-1.06,2.33-2.15,3.58-3.12s2.48-2,3.79-2.87,2.66-1.71,4-2.57,2.78-1.52,4.17-2.25c-1.31.88-2.67,1.68-4,2.56s-2.62,1.74-3.84,2.73a74.32,74.32,0,0,0-7.19,6.06,64,64,0,0,0-6.28,7,42.83,42.83,0,0,0-2.71,3.84A33.85,33.85,0,0,0,26.61,247.87Z"/>
        <path class="cls-5" d="M41.9,252.89a34.09,34.09,0,0,1,4.54-8.31,56.58,56.58,0,0,1,6.23-7.17c1.18-1.06,2.32-2.15,3.58-3.13s2.48-2,3.78-2.86,2.66-1.72,4-2.58,2.77-1.51,4.17-2.24c-1.32.87-2.68,1.67-4,2.56s-2.62,1.74-3.84,2.72A74.3,74.3,0,0,0,53.19,238a63,63,0,0,0-6.29,7,42.83,42.83,0,0,0-2.71,3.84A33.05,33.05,0,0,0,41.9,252.89Z"/>
        <path class="cls-5" d="M33.6,252.89a38.3,38.3,0,0,1,4-9.06A47.75,47.75,0,0,1,51.1,229.32a49.64,49.64,0,0,1,4.2-2.67c.7-.44,1.47-.76,2.21-1.13l2.24-1.06a66.61,66.61,0,0,0-8.31,5.32,56.63,56.63,0,0,0-13.31,14.36A48,48,0,0,0,33.6,252.89Z"/>
        <path class="cls-5" d="M55,252.89a17.28,17.28,0,0,1,2.88-7.37A34.28,34.28,0,0,1,63,239.39a54.09,54.09,0,0,1,6.13-5.07c1.11-.72,2.2-1.47,3.32-2.17s2.29-1.32,3.46-1.94c-1.08.77-2.18,1.5-3.26,2.25l-3.18,2.33c-1,.84-2.07,1.62-3.06,2.47s-2,1.71-2.89,2.66a38,38,0,0,0-5.13,5.92,26,26,0,0,0-2,3.36A14.05,14.05,0,0,0,55,252.89Z"/>
        <path class="cls-6" d="M26.61,234.72s2.6,17.26-8.35,10.41l-1.09-.55Z"/>
        <path class="cls-7" d="M33.6,249s1.91,4.56-3.56,3.93-3.84-3.93,0-8.31l3.88,2.16Z"/>
        <path class="cls-7" d="M35,253s-.28-4.33,3.28-6.21l3.84,1.68s.81,6.57-3.57,6.3Z"/>
        <path class="cls-7" d="M44.55,253s.55-6,3.83-6.21L53,248.42l-2.74,6.3S47,257.48,44.55,253Z"/>
        <path class="cls-7" d="M58.52,248.77s1.37-4.73,4.38-4.19,3.48,4-2.19,6.15Z"/>
      </g>
    </g>
    <g>
      <path class="cls-1" d="M195.68,223.84a8,8,0,0,1-6.36-3.14L168,192.77a8,8,0,1,1,12.71-9.72L202,211a8,8,0,0,1-6.35,12.86Z"/>
      <path class="cls-1" d="M216.67,202.39a8,8,0,0,1-4.67-1.51L183.48,180.3a8,8,0,0,1,9.37-13l28.51,20.58a8,8,0,0,1-4.69,14.49Z"/>
      <path class="cls-1" d="M223.22,166.29c-.21,0-.43,0-.65,0l-35-2.85a8,8,0,1,1,1.29-15.95l35.05,2.85a8,8,0,0,1-.64,16Z"/>
      <path class="cls-1" d="M190.34,142a8,8,0,0,1-3.9-15l30.71-17.12a8,8,0,0,1,7.79,14L194.23,141A8,8,0,0,1,190.34,142Z"/>
      <path class="cls-2" d="M190.68,218.84a8,8,0,0,1-6.36-3.14L163,187.77a8,8,0,1,1,12.71-9.72L197,206a8,8,0,0,1-6.35,12.86Z"/>
      <line x1="169.31" y1="182.91" x2="190.67" y2="210.84"/>
      <path class="cls-2" d="M211.67,197.39a8,8,0,0,1-4.67-1.51L178.48,175.3a8,8,0,0,1,9.37-13l28.51,20.58a8,8,0,0,1-4.69,14.49Z"/>
      <line x1="183.17" y1="168.81" x2="211.68" y2="189.39"/>
      <path class="cls-2" d="M218.22,161.29c-.21,0-.43,0-.65,0l-35-2.85a8,8,0,1,1,1.29-15.95l35.05,2.85a8,8,0,0,1-.64,16Z"/>
      <line x1="183.17" y1="150.44" x2="218.21" y2="153.29"/>
      <path class="cls-2" d="M185.34,137a8,8,0,0,1-3.9-15l30.71-17.12a8,8,0,0,1,7.79,14L189.23,136A8,8,0,0,1,185.34,137Z"/>
      <line x1="185.33" y1="129.03" x2="216.05" y2="111.91"/>
    </g>
  </g>
</svg>
