<svg id="Layer_1" data-name="Layer 1" xmlns="http://www.w3.org/2000/svg" width="367.66" height="300.6" viewBox="0 0 367.66 300.6">
  <defs>
    <style>
      .cls-1 {
        opacity: 0.5;
      }

      .cls-2 {
        fill: #353535;
      }

      .cls-3 {
        fill: #ffef5f;
      }

      .cls-4 {
        fill: none;
        stroke: #fffa4d;
        stroke-linejoin: round;
        stroke-width: 9px;
      }

      .cls-5 {
        fill: #ff8d55;
      }

      .cls-5, .cls-6, .cls-9 {
        stroke: #c94f18;
        stroke-width: 0.5px;
      }

      .cls-5, .cls-6, .cls-7, .cls-9 {
        stroke-miterlimit: 10;
      }

      .cls-6 {
        fill: #e97144;
      }

      .cls-7 {
        fill: #cc4f31;
        stroke: #933c19;
        stroke-width: 0.25px;
      }

      .cls-8 {
        fill: #4f4f4f;
      }

      .cls-9 {
        fill: #db7649;
      }
    </style>
  </defs>
  <g>
    <g class="cls-1">
      <path class="cls-2" d="M86.46,297.56a10,10,0,0,1-5-1.34L16.65,258.81a10,10,0,0,1-5-8.66V195.51a10,10,0,0,1,5-8.64L86.9,146.31l.34-50,.22-.73a.94.94,0,0,0,0-.1,10.11,10.11,0,0,1,1.21-2.33l.3-.41a10.17,10.17,0,0,1,2.89-2.52l135-77.94a10,10,0,0,1,10,0l64.8,37.42a10,10,0,0,1,5,8.66V113a9.94,9.94,0,0,1-1.58,5.39l53.64,31a10,10,0,0,1,5,8.66v54.62a10,10,0,0,1-5,8.66L294,258.67a10,10,0,0,1-10,0l-63.73-36.8L91.46,296.22A10.05,10.05,0,0,1,86.46,297.56Z"/>
    </g>
    <g>
      <path class="cls-3" d="M82.53,293.82a9.92,9.92,0,0,1-5-1.34l-64.8-37.41a10,10,0,0,1-5-8.66V191.79a10,10,0,0,1,5-8.66L83,142.57l.09-48.8.28-1.32.17-.56a10.07,10.07,0,0,1,3.2-4.57l.46-.34a8.57,8.57,0,0,1,.81-.52L223,8.52a10,10,0,0,1,10,0l64.8,37.41a10,10,0,0,1,5,8.65v54.63a10,10,0,0,1-1.58,5.4l53.65,31a9.7,9.7,0,0,1,1.24.85l.67.58a10,10,0,0,1,3.08,6.81v55a10,10,0,0,1-5,8.66L290,254.93a10,10,0,0,1-10,0L216.3,218.14,87.53,292.48A9.92,9.92,0,0,1,82.53,293.82Z"/>
      <path class="cls-4" d="M82.53,293.82a9.92,9.92,0,0,1-5-1.34l-64.8-37.41a10,10,0,0,1-5-8.66V191.79a10,10,0,0,1,5-8.66L83,142.57l.09-48.8.28-1.32.17-.56a10.07,10.07,0,0,1,3.2-4.57l.46-.34a8.57,8.57,0,0,1,.81-.52L223,8.52a10,10,0,0,1,10,0l64.8,37.41a10,10,0,0,1,5,8.65v54.63a10,10,0,0,1-1.58,5.4l53.65,31a9.7,9.7,0,0,1,1.24.85l.67.58a10,10,0,0,1,3.08,6.81v55a10,10,0,0,1-5,8.66L290,254.93a10,10,0,0,1-10,0L216.3,218.14,87.53,292.48A9.92,9.92,0,0,1,82.53,293.82Z"/>
    </g>
    <g>
      <g>
        <polygon class="cls-5" points="214.83 76.29 150.03 113.71 285.03 191.65 349.83 154.24 214.83 76.29"/>
        <polygon class="cls-6" points="150.03 113.71 150.03 168.33 285.03 246.27 285.03 191.65 150.03 113.71"/>
        <polygon class="cls-7" points="349.83 154.24 349.83 208.86 285.03 246.27 285.03 191.65 349.83 154.24"/>
        <path class="cls-8" d="M285.09,191c94.26-54.71,77.36-43.13.5,1-.23,66.46-.84,77-1.12.06C106.07,88.09,104.16,87.46,285.09,191Z"/>
        <polygon class="cls-5" points="331.85 153.31 213.04 84.73 164.44 112.78 283.25 181.38 331.85 153.31"/>
        <polygon class="cls-9" points="164.44 112.78 172 117.15 213.04 93.46 324.29 157.68 331.85 153.31 213.04 84.73 164.44 112.78"/>
      </g>
      <g>
        <polygon class="cls-5" points="152.73 113.85 217.53 151.26 82.53 229.2 17.73 191.79 152.73 113.85"/>
        <polygon class="cls-6" points="217.53 151.26 217.53 205.88 82.53 283.82 82.53 229.2 217.53 151.26"/>
        <polygon class="cls-7" points="17.73 191.79 17.73 246.41 82.53 283.82 82.53 229.2 17.73 191.79"/>
        <path class="cls-8" d="M82.47,228.52c-94.25-54.71-77.36-43.13-.5,1,.23,66.47.85,77,1.12.06C261.49,125.64,263.41,125,82.47,228.52Z"/>
        <polygon class="cls-5" points="35.71 190.87 154.52 122.29 203.12 150.34 84.31 218.93 35.71 190.87"/>
        <polygon class="cls-9" points="203.12 150.34 195.56 154.7 154.52 131.01 43.27 195.23 35.71 190.87 154.52 122.29 203.12 150.34"/>
      </g>
      <g>
        <polygon class="cls-5" points="227.97 17.18 292.77 54.59 157.77 132.53 92.97 95.12 227.97 17.18"/>
        <polygon class="cls-6" points="292.77 54.59 292.77 109.21 157.77 187.15 157.77 132.53 292.77 54.59"/>
        <polygon class="cls-7" points="92.97 95.12 92.97 149.74 157.77 187.15 157.77 132.53 92.97 95.12"/>
        <path class="cls-8" d="M157.72,131.85c-94.26-54.71-77.36-43.13-.51,1,.24,66.47.85,77,1.12.06C336.74,29,338.65,28.34,157.72,131.85Z"/>
        <polygon class="cls-5" points="110.96 94.2 229.77 25.62 278.36 53.67 159.56 122.26 110.96 94.2"/>
        <polygon class="cls-9" points="278.36 53.67 270.81 58.03 229.77 34.34 118.52 98.56 110.96 94.2 229.77 25.62 278.36 53.67"/>
      </g>
    </g>
  </g>
</svg>
