<svg xmlns="http://www.w3.org/2000/svg" width="234.13" height="223.46" viewBox="0 0 234.13 223.46">
  <defs>
    <style>
      .cls-1 {
        isolation: isolate;
      }

      .cls-10, .cls-12, .cls-13, .cls-14, .cls-2, .cls-6 {
        opacity: 0.5;
      }

      .cls-3 {
        fill: #fff;
      }

      .cls-10, .cls-4, .cls-5 {
        fill: #819923;
      }

      .cls-4 {
        stroke: #4d5b10;
        stroke-width: 0.75px;
      }

      .cls-11, .cls-4 {
        stroke-miterlimit: 10;
      }

      .cls-5 {
        opacity: 0.3;
      }

      .cls-10, .cls-12, .cls-5, .cls-9 {
        mix-blend-mode: multiply;
      }

      .cls-6, .cls-7 {
        fill: #d2e877;
      }

      .cls-7 {
        opacity: 0.2;
      }

      .cls-8, .cls-9 {
        fill: #f1d197;
      }

      .cls-11 {
        fill: #a4d84e;
        stroke: #6c9321;
        stroke-width: 0.5px;
      }

      .cls-12 {
        fill: #95bf43;
      }

      .cls-13 {
        fill: #cef484;
      }
    </style>
  </defs>
  <g class="cls-1">
    <g id="Layer_1" data-name="Layer 1">
      <g>
        <path class="cls-2" d="M185.08,218.51a14.18,14.18,0,0,1-1.9-.14,14.78,14.78,0,0,1-4.53-1.37l-.06,0a18.56,18.56,0,0,1-1.84-1l-.26-.17c-.54-.37-1-.73-1.49-1.11a31.82,31.82,0,0,1-4.16-4.32c-.22-.26-.44-.53-.67-.79-.48-.56-1-1.1-1.48-1.64s-1-1.08-1.59-1.6-1.25-1.19-1.89-1.77c-1.07-1-2.19-1.93-3.43-2.94s-2.6-2.09-3.91-3.11l-2.83-2.2c-.43-.34-.87-.7-1.29-1.07-.58-.5-1.06-.93-1.5-1.37s-.8-.85-1.21-1.34a16.71,16.71,0,0,1-2.19-3.34l-.09-.19c-.1-.19-.19-.38-.28-.58l0-.11c-.23-.13-.44-.25-.64-.38s-.49-.32-.75-.51l-.46-.34a18.24,18.24,0,0,1-2.58-2.49c-.68-.79-1.25-1.55-1.75-2.23l-.16-.21c-.26-.34-.51-.68-.78-1-.45,0-.9,0-1.35,0a37.46,37.46,0,0,1-8.66-1L131,180l-1.34-.36-.43-.12-1.24-.39-.54-.18-1.13-.4-.63-.24-1-.42-.67-.29-1-.43-.75-.36-.88-.44-.74-.39-.14-.08-.69-.38-.75-.43s-.62-.36-.8-.48l-.94-.59-.58-.37c-.49-.33-1-.66-1.46-1-2.76-2-5.2-4.11-7.57-6.17-.71-.63-1.42-1.25-2.14-1.86-.54-.46-1.08-.92-1.63-1.37s-.93-.75-1.4-1.11c-.87-.67-1.68-1.24-2.47-1.75A24.79,24.79,0,0,0,97.7,159a4.22,4.22,0,0,0-.53-.19c-.47-.15-1-.27-1.42-.39l-.83-.21c-.64-.17-1.49-.41-2.4-.75-.52-.19-1-.39-1.45-.61l-.56-.29A8.86,8.86,0,0,1,85.68,148c.57-6.27,6.82-8.22,8.88-8.86.4-.13.81-.23,1.22-.32l.13,0c.5-.12,1-.22,1.49-.31C96,137,94.6,135.6,93.19,134.2c-3.92-3.91-8-7.77-12.11-11.49-2.37-2.13-4.83-4.29-7.21-6.38l-1.24-1.09-1.78-.61c-1.8-.62-3.6-1.24-5.38-1.89l-.18-.07L63.4,112l-1.24-.51-.55-.23A104.72,104.72,0,0,1,50.76,106c-2.7-1.5-5.36-3.15-7.91-4.89-1.28-.88-2.55-1.79-3.78-2.72-2.48-1.86-4.89-3.85-7.18-5.93l-1.25-1.15-.09-.09c-.83-.77-1.6-1.51-2.37-2.25-3.42-3.25-6.65-6.33-10.07-8.34l-.07,0c-.31-.18-.63-.35-.95-.52l-.06,0c-.29-.15-.59-.3-.89-.43h0c-.3-.14-.61-.27-.92-.38a7.43,7.43,0,0,0-.71-.26A8,8,0,0,1,13.4,64.19a16.35,16.35,0,0,1,7.41-1.49l1.2,0h.56a9.75,9.75,0,0,1-.37-1.39,7,7,0,0,1-.18-1.1c-.45-5.17,2.91-9.06,4-10.34.41-.48.82-.92,1.17-1.3l.47-.5c-.63-.55-1.25-1.12-1.86-1.72s-.94-1-1.36-1.46a11.5,11.5,0,0,1-1-1.4c-.09-.15-.22-.36-.34-.58s-.26-.53-.37-.75a10.41,10.41,0,0,1-.48-1.32c-.06-.19-.11-.4-.16-.61a11,11,0,0,1,.73-6.93,1.17,1.17,0,0,1,.05-.11,10.46,10.46,0,0,1,.51-1v0A17.39,17.39,0,0,1,26,28.77l.64-.65.47-.44,1-.9c1.63-1.49,3.5-3.19,5.46-4.81l.33-.27c.32-.27.63-.53,1-.79l.45-.34C36,20,36.7,19.46,37.39,19c.35-.25.71-.48,1.08-.71a12.6,12.6,0,0,1,1.58-.83,10,10,0,0,1,1.3-.49,10.52,10.52,0,0,1,2.44-.47q.39,0,.78,0c.27,0,.53,0,.81,0a9.65,9.65,0,0,1,2.43.5,11.34,11.34,0,0,1,2.5,1.14l.12.08a65.07,65.07,0,0,1,7.22-5.73c.31-.22.65-.43,1-.64l.58-.34.49-.25c.21-.11.43-.22.67-.32l.48-.2.44-.16a11.22,11.22,0,0,1,1.5-.41A12,12,0,0,1,65,10h.34l.4,0a12.45,12.45,0,0,1,1.9.28,13.42,13.42,0,0,1,3,1.07,15.94,15.94,0,0,1,2.29,1.41c.51.37,1,.77,1.61,1.26C79.88,18.6,85,23.55,89.94,28.33L93.76,32C96.71,34.85,99,37,101.15,38.9c1.31,1.18,2.53,2.24,3.73,3.25a14.86,14.86,0,0,1,3,3.2,11.43,11.43,0,0,1,.93,1.72A32.68,32.68,0,0,1,114,51.85l3.42,3.63c.58.61,1.18,1.24,1.81,1.88-.1-.7-.18-1.4-.26-2.11l-.1-1c-.11-1.11-.2-2.22-.27-3.34a73.53,73.53,0,0,1,0-9.28c.07-1,.15-2,.25-2.82l.09-.71c.17-1.46.38-3.16.69-4.92.09-.54.2-1.07.3-1.6l0-.17c.11-.5.22-1,.35-1.48,0-.1,0-.22.08-.35.12-.45.26-.92.41-1.39l.13-.42c.22-.67.45-1.27.69-1.86a8,8,0,0,1,11.3-3.88c2.27,1.28,4.23,3.29,6.33,6.53.31.48.62,1,.92,1.48s.54.9.8,1.34l.66,1.12c.16.27.32.54.48.77A106.26,106.26,0,0,1,155.91,64.7c.66,2.59,1.21,5.23,1.65,7.83.14.82.26,1.64.38,2.46.25,1.68.46,3.37.67,5.05l.25,2c.41,3.17.8,5.81,1.38,8.38.24,1.07.54,2.2.89,3.35.06.14.1.27.15.41.42,1.36.94,2.77,1.58,4.32l0,.12c.14.33.28.67.43,1,.24.54.49,1.07.74,1.6l.61,1.18c.13.26.27.51.41.77s.46.83.69,1.24c1.56,1.45,3.23,3,5.1,4.61l.51.45c1.19,1,2.4,2.09,3.62,3.13q2.68,2.3,5.39,4.57l3.51,3a16.16,16.16,0,0,1,1.28,1.19,10.43,10.43,0,0,1,2.71,5.07c.59.56,1.13,1.12,1.61,1.65,9.91,10.76,20.45,21.19,31.32,31a18.89,18.89,0,0,1,1.79,1.76c.1.11.22.26.33.4s.44.55.65.85.25.37.34.52a11,11,0,0,1,1.6,4.09,4.79,4.79,0,0,1,.08.48,10.68,10.68,0,0,1,.12,1.77c0,.11,0,.42,0,.44a4.55,4.55,0,0,1,0,.52c0,.35-.07.68-.12,1,0,.15-.05.31-.08.45s-.07.31-.1.45c-.11.44-.22.86-.36,1.26l-.14.38c-.14.39-.29.75-.45,1.11a22,22,0,0,1-2.07,3.56,37.83,37.83,0,0,1-2.44,3.17c2.15,2,4.24,3.81,6.18,5.51a13,13,0,0,1,2.29,2.51,10.62,10.62,0,0,1,1,1.78,11.53,11.53,0,0,1,.22,7.84c-.17.58-.38,1.18-.65,1.86-.08.24-.16.45-.24.66s-.14.33-.21.47a21.12,21.12,0,0,1-1,2c0,.08-.08.16-.13.24a26.46,26.46,0,0,1-4.28,5.76,25.81,25.81,0,0,1-5.28,4.12l-.88.53-.42.21a18.66,18.66,0,0,1-4,1.56,15.63,15.63,0,0,1-4,.55h-.28a14.35,14.35,0,0,1-1.61-.12,14,14,0,0,1-2.07-.44l-.51-.16a16.14,16.14,0,0,1-1.51-.59,19,19,0,0,1-4.75-3.18l-1.11,1c-2.8,2.46-6.32,5-11.11,5.22Z"/>
        <path class="cls-3" d="M180.08,213.51a14.18,14.18,0,0,1-1.9-.14,14.78,14.78,0,0,1-4.53-1.37l-.06,0a18.56,18.56,0,0,1-1.84-1l-.26-.17c-.54-.37-1-.73-1.49-1.11a31.82,31.82,0,0,1-4.16-4.32c-.22-.26-.44-.53-.67-.79-.48-.56-1-1.1-1.48-1.64s-1-1.08-1.59-1.6-1.25-1.19-1.89-1.77c-1.07-1-2.19-1.93-3.43-2.94s-2.6-2.09-3.91-3.11l-2.83-2.2c-.43-.34-.87-.7-1.29-1.07-.58-.5-1.06-.93-1.5-1.37s-.8-.85-1.21-1.34a16.71,16.71,0,0,1-2.19-3.34l-.09-.19c-.1-.19-.19-.38-.28-.58l0-.11c-.23-.13-.44-.25-.64-.38s-.49-.32-.75-.51l-.46-.34a18.24,18.24,0,0,1-2.58-2.49c-.68-.79-1.25-1.55-1.75-2.23l-.16-.21c-.26-.34-.51-.68-.78-1-.45,0-.9,0-1.35,0a37.46,37.46,0,0,1-8.66-1L126,175l-1.34-.36-.43-.12-1.24-.39-.54-.18-1.13-.4-.63-.24-1-.42-.67-.29-1-.43-.75-.36-.88-.44-.74-.39-.14-.08-.69-.38-.75-.43s-.62-.36-.8-.48l-.94-.59-.58-.37c-.49-.33-1-.66-1.46-1-2.76-2-5.2-4.11-7.57-6.17-.71-.63-1.42-1.25-2.14-1.86-.54-.46-1.08-.92-1.63-1.37s-.93-.75-1.4-1.11c-.87-.67-1.68-1.24-2.47-1.75A24.79,24.79,0,0,0,92.7,154a4.22,4.22,0,0,0-.53-.19c-.47-.15-1-.27-1.42-.39l-.83-.21c-.64-.17-1.49-.41-2.4-.75-.52-.19-1-.39-1.45-.61l-.56-.29A8.86,8.86,0,0,1,80.68,143c.57-6.27,6.82-8.22,8.88-8.86.4-.13.81-.23,1.22-.32l.13,0c.5-.12,1-.22,1.49-.31C91,132,89.6,130.6,88.19,129.2c-3.92-3.91-8-7.77-12.11-11.49-2.37-2.13-4.83-4.29-7.21-6.38l-1.24-1.09-1.78-.61c-1.8-.62-3.6-1.24-5.38-1.89l-.18-.07L58.4,107l-1.24-.51-.55-.23A104.72,104.72,0,0,1,45.76,101c-2.7-1.5-5.36-3.15-7.91-4.89-1.28-.88-2.55-1.79-3.78-2.72-2.48-1.86-4.89-3.85-7.18-5.93l-1.25-1.15-.09-.09c-.83-.77-1.6-1.51-2.37-2.25-3.42-3.25-6.65-6.33-10.07-8.34l-.07,0c-.31-.18-.63-.35-.95-.52l-.06,0c-.29-.15-.59-.3-.89-.43h0c-.3-.14-.61-.27-.92-.38A7.43,7.43,0,0,0,9.48,74,8,8,0,0,1,8.4,59.19a16.35,16.35,0,0,1,7.41-1.49l1.2,0h.56a9.75,9.75,0,0,1-.37-1.39,7,7,0,0,1-.18-1.1c-.45-5.17,2.91-9.06,4-10.34.41-.48.82-.92,1.17-1.3l.47-.5c-.63-.55-1.25-1.12-1.86-1.72s-.94-1-1.36-1.46a11.5,11.5,0,0,1-1-1.4c-.09-.15-.22-.36-.34-.58s-.26-.53-.37-.75a10.41,10.41,0,0,1-.48-1.32c-.06-.19-.11-.4-.16-.61a11,11,0,0,1,.73-6.93,1.17,1.17,0,0,1,.05-.11,10.46,10.46,0,0,1,.51-1v0A17.39,17.39,0,0,1,21,23.77l.64-.65.47-.44,1-.9c1.63-1.49,3.5-3.19,5.46-4.81l.33-.27c.32-.27.63-.53,1-.79l.45-.34C31,15,31.7,14.46,32.39,14c.35-.25.71-.48,1.08-.71a12.6,12.6,0,0,1,1.58-.83,10,10,0,0,1,1.3-.49,10.52,10.52,0,0,1,2.44-.47l.78,0,.81,0a9.65,9.65,0,0,1,2.43.5,11.34,11.34,0,0,1,2.5,1.14l.12.08a65.07,65.07,0,0,1,7.22-5.73c.31-.22.65-.43,1-.64l.58-.34.49-.25c.21-.11.43-.22.67-.32l.48-.2.44-.16a11.22,11.22,0,0,1,1.5-.41A12,12,0,0,1,60,5h.34l.4,0a12.45,12.45,0,0,1,1.9.28,13.42,13.42,0,0,1,3,1.07,15.94,15.94,0,0,1,2.29,1.41c.51.37,1,.77,1.61,1.26C74.88,13.6,80,18.55,84.94,23.33L88.76,27C91.71,29.85,94,32,96.15,33.9c1.31,1.18,2.53,2.24,3.73,3.25a14.86,14.86,0,0,1,3,3.2,11.43,11.43,0,0,1,.93,1.72A32.68,32.68,0,0,1,109,46.85l3.42,3.63c.58.61,1.18,1.24,1.81,1.88-.1-.7-.18-1.4-.26-2.11l-.1-1c-.11-1.11-.2-2.22-.27-3.34a73.53,73.53,0,0,1,0-9.28c.07-1,.15-2,.25-2.82l.09-.71c.17-1.46.38-3.16.69-4.92.09-.54.2-1.07.3-1.6l0-.17c.11-.5.22-1,.35-1.48,0-.1,0-.22.08-.35.12-.45.26-.92.41-1.39l.13-.42c.22-.67.45-1.27.69-1.86a8,8,0,0,1,11.3-3.88c2.27,1.28,4.23,3.29,6.33,6.53.31.48.62,1,.92,1.48s.54.9.8,1.34l.66,1.12c.16.27.32.54.48.77A106.26,106.26,0,0,1,150.91,59.7c.66,2.59,1.21,5.23,1.65,7.83.14.82.26,1.64.38,2.46.25,1.68.46,3.37.67,5.05l.25,2c.41,3.17.8,5.81,1.38,8.38.24,1.07.54,2.2.89,3.35.06.14.1.27.15.41.42,1.36.94,2.77,1.58,4.32l0,.12c.14.33.28.67.43,1,.24.54.49,1.07.74,1.6l.61,1.18c.13.26.27.51.41.77s.46.83.69,1.24c1.56,1.45,3.23,3,5.1,4.61l.51.45c1.19,1,2.4,2.09,3.62,3.13q2.68,2.3,5.39,4.57l3.51,3a16.16,16.16,0,0,1,1.28,1.19,10.43,10.43,0,0,1,2.71,5.07c.59.56,1.13,1.12,1.61,1.65,9.91,10.76,20.45,21.19,31.32,31a18.89,18.89,0,0,1,1.79,1.76c.1.11.22.26.33.4s.44.55.65.85.25.37.34.52a11,11,0,0,1,1.6,4.09,4.79,4.79,0,0,1,.08.48,10.68,10.68,0,0,1,.12,1.77c0,.11,0,.42,0,.44a4.55,4.55,0,0,1,0,.52c0,.35-.07.68-.12,1,0,.15-.05.31-.08.45s-.07.31-.1.45c-.11.44-.22.86-.36,1.26l-.14.38c-.14.39-.29.75-.45,1.11a22,22,0,0,1-2.07,3.56,37.83,37.83,0,0,1-2.44,3.17c2.15,2,4.24,3.81,6.18,5.51a13,13,0,0,1,2.29,2.51,10.62,10.62,0,0,1,1,1.78,11.53,11.53,0,0,1,.22,7.84c-.17.58-.38,1.18-.65,1.86-.08.24-.16.45-.24.66s-.14.33-.21.47a21.12,21.12,0,0,1-1,2c0,.08-.08.16-.13.24a26.46,26.46,0,0,1-4.28,5.76,25.81,25.81,0,0,1-5.28,4.12l-.88.53-.42.21a18.66,18.66,0,0,1-4,1.56,15.63,15.63,0,0,1-4,.55h-.28a14.35,14.35,0,0,1-1.61-.12,14,14,0,0,1-2.07-.44l-.51-.16a16.14,16.14,0,0,1-1.51-.59,19,19,0,0,1-4.75-3.18l-1.11,1c-2.8,2.46-6.32,5-11.11,5.22Z"/>
        <g>
          <g>
            <path class="cls-4" d="M61.46,68.67A6.42,6.42,0,0,0,64.71,71a6,6,0,0,0,3.44-.71C73,68.1,77.72,64.86,79.62,59.94A4.56,4.56,0,0,0,80,57.68a5.66,5.66,0,0,0-2.2-3.13c-12.18-10.87-23.2-23-35.52-33.71a4.69,4.69,0,0,0-2.53-1.39A4.48,4.48,0,0,0,37,20.53a87.53,87.53,0,0,0-8.51,7.13c-1.85,1.7-5.13,4.54-3,7,2.43,2.82,6,5.07,8.84,7.54Q43.54,50.28,52.17,59,56.91,63.73,61.46,68.67Z"/>
            <path class="cls-5" d="M42.29,20.84a4.69,4.69,0,0,0-2.53-1.39A4.48,4.48,0,0,0,37,20.53c-1.16.82-2.27,1.7-3.37,2.6C45,31.51,54.84,41.9,64.23,52.5a140.23,140.23,0,0,1,9.61,11.75c.42.6.81,1.21,1.22,1.82a15.32,15.32,0,0,0,4.56-6.13A4.56,4.56,0,0,0,80,57.68a5.66,5.66,0,0,0-2.2-3.13C65.63,43.68,54.61,31.55,42.29,20.84Z"/>
            <path class="cls-5" d="M78.54,62.1a13.2,13.2,0,0,0,1.08-2.16A4.56,4.56,0,0,0,80,57.68a5.66,5.66,0,0,0-2.2-3.13c-12.18-10.87-23.2-23-35.52-33.71a4.69,4.69,0,0,0-2.53-1.39A4.48,4.48,0,0,0,37,20.53c-.19.14-.38.29-.57.42,3.9,3,7.57,6.27,11.17,9.61s7,6.62,10.45,10q9.1,9,17.73,18.43C76.69,60,77.61,61.06,78.54,62.1Z"/>
            <path class="cls-6" d="M66.16,70.92l-.44-.32c-2.16-1.8-4.25-3.68-6.3-5.61-4.09-3.87-8-7.93-12-11.91-2.28-2.28-4.59-4.54-7-6.72-5-4.56-10.27-8.75-15.6-12.9a2.83,2.83,0,0,0,.64,1.22c2.43,2.82,6,5.07,8.84,7.54Q43.54,50.28,52.17,59q4.74,4.77,9.29,9.71A6.42,6.42,0,0,0,64.71,71,3.93,3.93,0,0,0,66.16,70.92Z"/>
            <path class="cls-7" d="M61.46,62.85c.39.27.94.53,1.29.21s.11-1-.18-1.38c-4.59-6.6-10.31-12.32-16-18-4-4-8-8-12.65-11.14a4.77,4.77,0,0,0-2.25-1,1.74,1.74,0,0,0-1.89,1.25c-.37,2.13,4.05,4.28,5.4,5.4,2.23,1.86,4.35,3.87,6.41,5.93,4.16,4.16,8.1,8.56,12.4,12.58A68.55,68.55,0,0,0,61.46,62.85Z"/>
            <path class="cls-8" d="M27.22,32.12l12.85-11.8a5.78,5.78,0,0,0,.6-.61,2.88,2.88,0,0,0-.91-.26A4.48,4.48,0,0,0,37,20.53a87.53,87.53,0,0,0-8.51,7.13c-1.59,1.46-4.22,3.76-3.57,5.95A6,6,0,0,0,27.22,32.12Z"/>
            <path class="cls-9" d="M33.14,25.8l2.69-2.61c0-.17-.16-.3-.33-.32A1,1,0,0,0,35,23a25.68,25.68,0,0,0-6.82,5.44c-.29.28-1.22,1-.57,1.45.48.3,1.43-.58,1.8-.84A32.82,32.82,0,0,0,33.14,25.8Z"/>
            <path class="cls-10" d="M71.56,50.4A9.73,9.73,0,0,0,71.77,49c-8.49-8-16.61-16.47-25.23-24.34a3.17,3.17,0,0,0-.32.73,5.14,5.14,0,0,0,1.16,4.44,42.73,42.73,0,0,0,3.35,3.38,21.93,21.93,0,0,1,3.88,5.73c.64,1.32,1.16,3,.21,4.13a3.27,3.27,0,0,1-2.94.78,11.57,11.57,0,0,1-3.77-1.34,31.74,31.74,0,0,0-4-2.11,9.13,9.13,0,0,0-8,.92,6,6,0,0,0-1.53,1.17q9,7.94,17.52,16.46a17.4,17.4,0,0,0,11,.33A12.55,12.55,0,0,0,71.56,50.4Z"/>
            <path class="cls-10" d="M72.17,49.36c-8.11-7.65-15.86-15.67-24-23.24a1.93,1.93,0,0,0-1,.54A1.91,1.91,0,0,0,47,28.84a6.23,6.23,0,0,0,1.62,1.66A33.47,33.47,0,0,1,55,37.34a8,8,0,0,1,1.71,4.15A4.61,4.61,0,0,1,53.15,46c-2.4.52-4.75-1-6.68-2.52s-4-3.26-6.45-3.29a9.22,9.22,0,0,0-5.35,2.24s0,.06,0,.09q9,7.93,17.52,16.47c2,2.06,4.06,4.15,6.06,6.26,3.76.57,7.89.42,10.84-2a10.35,10.35,0,0,0,3.46-5.91,17,17,0,0,0-.11-6.93C72.35,50.06,72.26,49.71,72.17,49.36Z"/>
          </g>
          <g>
            <g>
              <path class="cls-11" d="M121.81,34.79a60.58,60.58,0,0,0-.22,10.69c1.6,27,16.78,52.68,39.32,67.59a57.82,57.82,0,0,1-13.47-25.92c-1.37-6-1.75-12.21-2.77-18.3A96.83,96.83,0,0,0,130.4,32.64c-1.58-2.44-3.87-7.18-6.38-8.6C122.68,27.25,122.22,31.35,121.81,34.79Z"/>
              <path class="cls-12" d="M147.44,87.15c-1.37-6-1.75-12.21-2.77-18.3A96.83,96.83,0,0,0,130.4,32.64c-1.58-2.44-3.87-7.18-6.38-8.6a26.43,26.43,0,0,0-1.5,5.55A175.75,175.75,0,0,1,143.44,92.5c.19,1.46.12,3.33-1,4.09a87.29,87.29,0,0,0,18.47,16.48A57.82,57.82,0,0,1,147.44,87.15Z"/>
              <path class="cls-12" d="M144.67,68.85A96.83,96.83,0,0,0,130.4,32.64c-1.58-2.44-3.87-7.18-6.38-8.6-.11.27-.21.55-.31.82a97.64,97.64,0,0,1,13,26.78c3.49,10.81,5.59,22,7.49,33.21.67,4,1.32,8,.76,12a4.58,4.58,0,0,1-.61,1.88,86.92,86.92,0,0,0,16.59,14.33,57.82,57.82,0,0,1-13.47-25.92C146.07,81.13,145.69,74.94,144.67,68.85Z"/>
              <path class="cls-13" d="M121.81,34.79a60.58,60.58,0,0,0-.22,10.69,87.78,87.78,0,0,0,19.47,49.43,122.56,122.56,0,0,1-12.49-23c-1-2.24-1.91-4.5-2.69-6.82a77.37,77.37,0,0,1-3.37-17.55c-.41-4.46-.6-8.95-.62-13.43C121.87,34.32,121.84,34.56,121.81,34.79Z"/>
              <path class="cls-12" d="M144.93,99.41c-14.54-29.72-20.52-71.72-20.52-71.72-.53,1.55,4.34,39,17.71,68.53Q143.49,97.86,144.93,99.41Z"/>
              <path class="cls-12" d="M160.91,113.07a57.8,57.8,0,0,1-12.27-21.53,2.77,2.77,0,0,1-1.53.41,3.93,3.93,0,0,1-2.44-1.32c-3-2.88-4.7-6.88-7.62-9.84-2.36-2.39-5.39-4-8-6.1l-.5-.44A89.47,89.47,0,0,0,160.91,113.07Z"/>
              <path class="cls-12" d="M158,111q.11-.63.18-1.26A57.9,57.9,0,0,1,150.26,96a1.65,1.65,0,0,1-.95.42,3.2,3.2,0,0,1-2.39-1.24,72,72,0,0,1-9-10.81,31.72,31.72,0,0,0-1.94-2.7,28.86,28.86,0,0,0-6.43-5.17A89.87,89.87,0,0,0,158,111Z"/>
            </g>
            <g>
              <path class="cls-4" d="M167.43,144.07c5,4.11,10.44,7.8,15.16,12.29a120.24,120.24,0,0,1,8.93,9.8l4.35,5.14a11,11,0,0,0,3.26,2.93,7.17,7.17,0,0,0,6.8-.67,17.82,17.82,0,0,0,4.9-5.11c1.26-1.79,2.48-4,1.66-6.06a6.94,6.94,0,0,0-2-2.45q-16.65-15-31.85-31.51c-1.55-1.69-3.47-3.53-5.74-3.26a7,7,0,0,0-3.65,2.11c-2.22,2-6.43,5.05-7.18,8.17C161.24,138.91,165.13,142.19,167.43,144.07Z"/>
              <path class="cls-8" d="M210.83,168.45c1.26-1.79,2.48-4,1.66-6.06a4.9,4.9,0,0,0-1.11-1.6,11.57,11.57,0,0,1-1.82,5.86,16.15,16.15,0,0,1-6.41,5.54,10.91,10.91,0,0,1-3.73,1.22,10.58,10.58,0,0,1-1.71-.17,7,7,0,0,0,1.42,1,7.17,7.17,0,0,0,6.8-.67A17.82,17.82,0,0,0,210.83,168.45Z"/>
              <path class="cls-8" d="M172.9,125.17a7,7,0,0,0-3.65,2.11c-2.22,2-6.43,5.05-7.18,8.17a4.67,4.67,0,0,0,.37,3.05,9.73,9.73,0,0,0,3.58-.79,18.1,18.1,0,0,0,5.21-3.75,14.68,14.68,0,0,0,4-5.33,6.89,6.89,0,0,0,.41-2.81A4.33,4.33,0,0,0,172.9,125.17Z"/>
              <path class="cls-5" d="M209.39,168.86c.16.24.32.56.5.88.32-.43.64-.86.94-1.29,1.26-1.79,2.48-4,1.66-6.06a6.94,6.94,0,0,0-2-2.45q-16.65-15-31.85-31.51c-1.55-1.69-3.47-3.53-5.74-3.26a5.19,5.19,0,0,0-2.43,1.08,10,10,0,0,1,1.21,1,24,24,0,0,1,3.17,4.88,54.28,54.28,0,0,0,9.1,11.44c6.23,6.17,13.33,11.4,19.39,17.76a59.82,59.82,0,0,1,4.22,4.92C208.2,167.13,208.81,168,209.39,168.86Z"/>
              <path class="cls-5" d="M178.64,128.43c-1.47-1.59-3.26-3.3-5.37-3.26a40.17,40.17,0,0,1,4.49,4.82c2.09,2.67,3.85,5.6,5.92,8.29a60.68,60.68,0,0,0,7.34,7.78c4.72,4.31,9.85,8.15,14.46,12.59a52.64,52.64,0,0,1,6.24,7c.11.16.24.39.39.64a4.85,4.85,0,0,0,.38-3.92,6.94,6.94,0,0,0-2-2.45Q193.84,144.94,178.64,128.43Z"/>
              <path class="cls-6" d="M191.86,165.69a105.43,105.43,0,0,0-21.92-20.63c-2.7-1.89-5.6-3.82-7.46-6.46,1,2.22,3.37,4.18,5,5.47,5,4.11,10.44,7.8,15.16,12.29a120.24,120.24,0,0,1,8.93,9.8l4.35,5.14a11,11,0,0,0,3.26,2.93l.15.06c-.69-.64-1.41-1.27-2.05-2C195.31,170.21,193.63,167.91,191.86,165.69Z"/>
              <path class="cls-7" d="M195.53,166.43c.28.23.63.48,1,.36a.7.7,0,0,0,.42-.74,1.89,1.89,0,0,0-.33-.85,34.71,34.71,0,0,0-3.4-4.5q-3.76-4.44-7.74-8.69c-4.44-4.74-9.2-9.39-15.09-12.1a4.38,4.38,0,0,0-1.59-.49,1.74,1.74,0,0,0-1.5.59c-.87,1.16.65,1.63,1.37,2.12,1.1.73,2.17,1.5,3.22,2.3,2.07,1.58,4,3.29,6,5,3.88,3.58,7.52,7.4,11.3,11.09C191.21,162.58,193.32,164.56,195.53,166.43Z"/>
              <path class="cls-9" d="M173.63,129a3.71,3.71,0,0,0,.42-3.09,2.4,2.4,0,0,0-.55-.78c-.2,0-.4,0-.6,0a7,7,0,0,0-3.65,2.11c-2.22,2-6.43,5.05-7.18,8.17a4.21,4.21,0,0,0,0,1.9c2.34,1,5.94-2,7.35-3.33A18.53,18.53,0,0,0,173.63,129Z"/>
            </g>
            <g>
              <path class="cls-4" d="M127.23,105.9a96.55,96.55,0,0,0,8.15,6.52,108.36,108.36,0,0,1,19.15,19c1.44,1.85,2.95,3.83,5.13,4.68,2.67,1,5.74.1,8.14-1.46a17.12,17.12,0,0,0,7.06-9.47,3.73,3.73,0,0,0,0-2.61,4.32,4.32,0,0,0-1.15-1.3C162.28,111.48,150.4,102,141.31,90a17.43,17.43,0,0,0-2.74-3.13,5.26,5.26,0,0,0-3.85-1.31,7,7,0,0,0-3.38,1.76c-3.22,2.59-6.71,5.93-8.73,9.58C120.92,99.92,125.14,103.9,127.23,105.9Z"/>
              <path class="cls-8" d="M137,91.5a7.42,7.42,0,0,0,.75-5.23,4.82,4.82,0,0,0-3.05-.75,7,7,0,0,0-3.38,1.76c-3.22,2.59-6.71,5.93-8.73,9.58a3.83,3.83,0,0,0,.11,3.54h0a7.82,7.82,0,0,0,4.57-.69C131.35,98.1,135.07,95.37,137,91.5Z"/>
              <path class="cls-8" d="M165.13,133.63a12.73,12.73,0,0,1-5,2.55c2.56.78,5.42-.12,7.69-1.59a17.12,17.12,0,0,0,7.06-9.47,3.73,3.73,0,0,0,0-2.61,4.32,4.32,0,0,0-1.15-1.3l-.64-.54a15.7,15.7,0,0,1-1.24,6.08C170.5,129.69,167.78,131.75,165.13,133.63Z"/>
              <path class="cls-5" d="M171.54,129.5c.18.26.39.63.62,1a17.06,17.06,0,0,0,2.7-5.39,3.73,3.73,0,0,0,0-2.61,4.32,4.32,0,0,0-1.15-1.3C162.28,111.48,150.4,102,141.31,90a17.43,17.43,0,0,0-2.74-3.13,5.26,5.26,0,0,0-3.85-1.31,6.4,6.4,0,0,0-3.05,1.5,7,7,0,0,0,.51.82,42.9,42.9,0,0,0,3,3.65c2.65,3,5.31,6.08,8.11,9,2.58,2.67,5.27,5.22,8,7.75,4.81,4.47,9.7,8.86,14.13,13.71A77.18,77.18,0,0,1,171.54,129.5Z"/>
              <path class="cls-5" d="M174.86,125.12a3.73,3.73,0,0,0,0-2.61,4.32,4.32,0,0,0-1.15-1.3C162.28,111.48,150.4,102,141.31,90a17.43,17.43,0,0,0-2.74-3.13,5.26,5.26,0,0,0-3.85-1.31l-.07,0c2.8,3,4.92,6.59,7.41,9.87a70.22,70.22,0,0,0,8.47,9.11c5.42,5,11.31,9.45,16.67,14.51a72.87,72.87,0,0,1,7.09,7.71C174.5,126.21,174.7,125.67,174.86,125.12Z"/>
              <path class="cls-6" d="M123,101a23,23,0,0,0,4.23,5,96.55,96.55,0,0,0,8.15,6.52,108.36,108.36,0,0,1,19.15,19c1.44,1.85,2.95,3.83,5.13,4.68l.29.08a19.41,19.41,0,0,1-1.62-1.36,62.55,62.55,0,0,1-5.79-6.49,126,126,0,0,0-18.36-18C130.38,107.25,126.39,104.4,123,101Z"/>
              <path class="cls-7" d="M147.84,121.26a67.7,67.7,0,0,0,7.71,7.44c.42.33,1.08.61,1.4.19a1,1,0,0,0,0-.94,13.15,13.15,0,0,0-1.67-2.91,37.5,37.5,0,0,0-3.38-3.86,196.72,196.72,0,0,0-18.22-16.53,28.35,28.35,0,0,0-3.43-2.47c-.64-.38-1.52-.79-2.21-.3s-.5,1-.09,1.56a11.18,11.18,0,0,0,2.3,1.73c.89.64,1.76,1.3,2.62,2a115.88,115.88,0,0,1,9.78,8.75C144.4,117.64,146.13,119.44,147.84,121.26Z"/>
              <path class="cls-9" d="M136.81,88.38a5.28,5.28,0,0,0,.36-2.41,4.55,4.55,0,0,0-2.45-.45,7,7,0,0,0-3.38,1.76c-3.22,2.59-6.71,5.93-8.73,9.58a3.13,3.13,0,0,0-.38,1.47,1.35,1.35,0,0,0,.29.16c2.42.91,5.67-.87,7.6-2.16A16.88,16.88,0,0,0,136.81,88.38Z"/>
            </g>
            <g>
              <path class="cls-4" d="M87.28,67.56c2.87,2.82,6.18,5.14,9.31,7.66a91.88,91.88,0,0,1,16.48,17.24c1.75,2.38,3.57,5,6.36,6a8.27,8.27,0,0,0,3.28.42A12.74,12.74,0,0,0,130.88,95a19.64,19.64,0,0,0,4.61-7.89,6.79,6.79,0,0,0,.2-4.83,8,8,0,0,0-3-3c-10.92-7.64-20.37-17.17-29.46-26.92a23.84,23.84,0,0,0-4.34-3.94,7.76,7.76,0,0,0-5.58-1.34,10.38,10.38,0,0,0-5,3.13c-2,1.95-6.13,5.4-6.51,8.39C81.33,61.74,85.27,65.59,87.28,67.56Z"/>
              <path class="cls-8" d="M97.51,47.68a7.12,7.12,0,0,0-4.23-.61,10.38,10.38,0,0,0-5,3.13c-2,1.95-6.13,5.4-6.51,8.39a5.25,5.25,0,0,0,.63,2.91,8.62,8.62,0,0,0,4-1,23.41,23.41,0,0,0,9.43-8.07A8.73,8.73,0,0,0,97.51,47.68Z"/>
              <path class="cls-8" d="M132.5,89.84a16.3,16.3,0,0,1-8.52,8,11.5,11.5,0,0,1-4,.83,8.76,8.76,0,0,0,2.7.25A12.74,12.74,0,0,0,130.88,95a19.64,19.64,0,0,0,4.61-7.89,6.79,6.79,0,0,0,.2-4.83,5.81,5.81,0,0,0-1.85-2.16A16.21,16.21,0,0,1,132.5,89.84Z"/>
              <path class="cls-5" d="M132.92,92.52a21.37,21.37,0,0,0,2.57-5.39,6.79,6.79,0,0,0,.2-4.83,8,8,0,0,0-3-3c-10.92-7.64-20.37-17.17-29.46-26.92a23.84,23.84,0,0,0-4.34-3.94,7.76,7.76,0,0,0-5.58-1.34,6.61,6.61,0,0,0-1.92.7,42.52,42.52,0,0,1,4.85,4.92c1.39,1.73,2.54,3.64,3.81,5.46a72,72,0,0,0,8.87,10.3C114.64,74.11,121,79.18,126.57,85c1.4,1.44,2.75,2.91,4,4.45C131.43,90.4,132.15,91.48,132.92,92.52Z"/>
              <path class="cls-5" d="M103.2,52.35a23.84,23.84,0,0,0-4.34-3.94A8,8,0,0,0,93.54,47l.19.16A45.85,45.85,0,0,1,101,54c2.12,2.44,4,5.1,6,7.63a73.66,73.66,0,0,0,9.76,10.06c1.86,1.58,3.8,3.08,5.74,4.56a104.12,104.12,0,0,1,9.94,8.21,38.83,38.83,0,0,1,2.88,3.13c.05-.14.1-.27.14-.41a6.79,6.79,0,0,0,.2-4.83,8,8,0,0,0-3-3C121.74,71.63,112.29,62.1,103.2,52.35Z"/>
              <path class="cls-6" d="M92.35,70.93a89.49,89.49,0,0,1-9.84-9.13,26,26,0,0,0,4.77,5.76c2.87,2.82,6.18,5.14,9.31,7.66a91.88,91.88,0,0,1,16.48,17.24c1.75,2.38,3.57,5,6.36,6l.57.16c-.59-.39-1.23-.74-1.52-1a40.93,40.93,0,0,1-5.52-6.3q-2.89-3.72-6-7.27a76,76,0,0,0-7.24-7.34C97.34,74.68,94.8,72.87,92.35,70.93Z"/>
              <path class="cls-7" d="M93.81,70.07A189,189,0,0,1,116.6,91.64a5,5,0,0,0,1.36,1.2,1.52,1.52,0,0,0,2.29-1.79,5,5,0,0,0-1-1.74c-4.57-5.94-10.09-11.08-15.67-16.09-2.72-2.44-5.46-4.87-8.4-7.06a23.23,23.23,0,0,0-4.89-2.95c-.77-.32-2.12-.74-2.89-.21-1,.7.13,1.61.7,2.19A60.1,60.1,0,0,0,93.81,70.07Z"/>
              <path class="cls-9" d="M96.71,47.37a6.69,6.69,0,0,0-3.43-.3,10.38,10.38,0,0,0-5,3.13c-2,1.95-6.13,5.4-6.51,8.39a3.63,3.63,0,0,0,0,.93,5.36,5.36,0,0,0,3-.33A23.16,23.16,0,0,0,95,51.92a8.59,8.59,0,0,0,1.59-2.7A4.3,4.3,0,0,0,96.71,47.37Z"/>
            </g>
            <g>
              <path class="cls-4" d="M67.64,47.84a50.8,50.8,0,0,1,6.52,7.32,27.86,27.86,0,0,0,2.51,3.47,5.4,5.4,0,0,0,3.74,1.85,6.76,6.76,0,0,0,3.06-.92,33.41,33.41,0,0,0,11.69-9.79c1-1.28,1.87-2.91,1.31-4.42a5.3,5.3,0,0,0-1.75-2.08C84.15,34.34,74.82,24,64.27,15.1c-1.41-1.2-3.12-2.45-4.94-2.1a6.12,6.12,0,0,0-2.17,1.07,57.22,57.22,0,0,0-8.65,7.28c-1.33,1.36-3.82,3.94-2.75,6,.61,1.17,2.55,2.32,3.53,3.21L53,33.94Q60.44,40.78,67.64,47.84Z"/>
              <path class="cls-8" d="M95.16,49.77c1-1.28,1.87-2.91,1.31-4.42a5.3,5.3,0,0,0-1.75-2.08l-.68-.6a8.74,8.74,0,0,1-1.18,6.15A21.66,21.66,0,0,1,88.21,54a29.24,29.24,0,0,1-7.46,5.15,6.94,6.94,0,0,1-2.72.56,4.56,4.56,0,0,0,2.38.76,6.76,6.76,0,0,0,3.06-.92A33.41,33.41,0,0,0,95.16,49.77Z"/>
              <path class="cls-5" d="M87.18,46.06q2.82,3.31,5.29,6.86a33.62,33.62,0,0,0,2.69-3.15c1-1.28,1.87-2.91,1.31-4.42a5.3,5.3,0,0,0-1.75-2.08C84.15,34.34,74.82,24,64.27,15.1c-1.41-1.2-3.12-2.45-4.94-2.1a6.12,6.12,0,0,0-2.17,1.07c-.68.47-1.35.95-2,1.45Q64.23,24,73.39,32.31c3.36,3.07,6.72,6.14,9.87,9.43C84.61,43.14,85.91,44.58,87.18,46.06Z"/>
              <path class="cls-5" d="M64.27,15.1c-1.41-1.2-3.12-2.45-4.94-2.1a5.32,5.32,0,0,0-1.72.77c.93.56,1.91,1.05,2.83,1.61a33.64,33.64,0,0,1,5.5,4.46q4,3.75,7.94,7.57Q80.81,34.14,87.5,41.1q3.39,3.52,6.71,7.09c.29.32.67.87,1.09,1.39.9-1.26,1.7-2.8,1.17-4.23a5.3,5.3,0,0,0-1.75-2.08C84.15,34.34,74.82,24,64.27,15.1Z"/>
              <path class="cls-6" d="M45.76,27.33c.61,1.17,2.55,2.32,3.53,3.21L53,33.94q7.42,6.84,14.62,13.9a50.8,50.8,0,0,1,6.52,7.32,27.86,27.86,0,0,0,2.51,3.47,6.25,6.25,0,0,0,2.48,1.62,10.75,10.75,0,0,1-1.57-1.41,56.11,56.11,0,0,1-3.46-4.76,70.93,70.93,0,0,0-8-9C59.46,38.46,52.61,32,45.55,25.79A2.35,2.35,0,0,0,45.76,27.33Z"/>
              <path class="cls-7" d="M57.84,34.5a104.11,104.11,0,0,1,7.87,8l6.75,7.36a15.82,15.82,0,0,0,5,4.12,1.09,1.09,0,0,0,.43.11.75.75,0,0,0,.63-.78,2,2,0,0,0-.39-1,38.17,38.17,0,0,0-5.74-6.58c-6.06-6.07-11.7-12.63-18.49-17.87a5.08,5.08,0,0,0-1.59-.92c-.87-.25-2.1.12-2.05,1.21,0,.86,1.13,1.3,1.75,1.76C54,31.35,56,32.86,57.84,34.5Z"/>
              <path class="cls-8" d="M60.8,13.05A3.63,3.63,0,0,0,59.33,13a6.12,6.12,0,0,0-2.17,1.07,57.22,57.22,0,0,0-8.65,7.28c-1.09,1.11-2.95,3-3,4.83,1.53.79,4.34-2.7,5.38-3.61,2.9-2.51,5.8-5,8.53-7.72A6.14,6.14,0,0,0,60.8,13.05Z"/>
              <path class="cls-9" d="M48.46,23.35a1.05,1.05,0,0,0,.51-.16,9.59,9.59,0,0,0,1.85-1.32Q53,20.09,55,18.22a8.33,8.33,0,0,0,2-2.34.44.44,0,0,0,0-.4.31.31,0,0,0-.4-.07,1,1,0,0,0-.31.32,13,13,0,0,1-5,4.72,19.35,19.35,0,0,0-1.85.84C49.11,21.48,47.22,23.37,48.46,23.35Z"/>
            </g>
          </g>
          <g>
            <g>
              <path class="cls-11" d="M102.47,150.81c4.3,3.3,8.12,7.2,12.52,10.35,6.77,4.85,15.19,7.86,23.44,6.75,3.56-.47,7-1.69,10.55-2.06-6.07-5.92-12.36-11.71-19.5-16.29s-15.25-7.92-23.71-8.53c-2.41-.18-4.82-.13-7.24-.07a24.38,24.38,0,0,0-6.59.8c-1.42.45-4.93,1.7-2.44,2.88,2.07,1,4.59,1.15,6.73,2.21A37.18,37.18,0,0,1,102.47,150.81Z"/>
              <g class="cls-14">
                <path class="cls-12" d="M142.63,167.88c-29.82-24-52.06-24.32-52.28-24.33,0,0,22.88-.82,53,23.41Z"/>
              </g>
              <path class="cls-13" d="M136.54,168.09l-1-.11a40.55,40.55,0,0,1-19.12-7.07c-6.53-4.64-11.67-11.43-19.11-14.4a33.39,33.39,0,0,0-5.89-1.63,11.46,11.46,0,0,0-2-.31l.12.07c2.07,1,4.59,1.15,6.73,2.21a37.18,37.18,0,0,1,6.24,4c4.3,3.3,8.12,7.2,12.52,10.35C121.25,165.64,128.91,168.54,136.54,168.09Z"/>
              <path class="cls-12" d="M147.16,164.09a117,117,0,0,0-17.68-14.53c-7.15-4.58-15.25-7.92-23.71-8.53-2.41-.18-4.82-.13-7.24-.07a27.69,27.69,0,0,0-5.74.6c.59,0,1.18.06,1.77.12a84.64,84.64,0,0,1,9.23,1.55,35.7,35.7,0,0,1,5.08,1.3,35.13,35.13,0,0,1,7.41,4.11,128,128,0,0,1,11.92,8.75c3.9,3.33,7.48,7.08,11.44,10.31,2.8-.5,5.55-1.29,8.37-1.7C147.74,165.36,147.46,164.72,147.16,164.09Z"/>
            </g>
            <path class="cls-12" d="M129.48,149.56A55.53,55.53,0,0,0,112.09,142a4.31,4.31,0,0,0,.19.77c1.32,3.78,4.15,7,7.12,9.61,3.58,3.13,7.68,5.6,11.52,8.4a79.22,79.22,0,0,1,8.32,7c2.12-.35,4.2-.88,6.31-1.33a13.41,13.41,0,0,0-1.49-4c-.46-.89-.94-1.75-1.44-2.62A101,101,0,0,0,129.48,149.56Z"/>
            <path class="cls-12" d="M142.82,166.21a17.22,17.22,0,0,0-3.25-6.6,77.37,77.37,0,0,0-6.39-7.5c-1.21-.88-2.44-1.74-3.7-2.55a56.26,56.26,0,0,0-16.34-7.29,12,12,0,0,0,1.64,3.28c3.73,5.45,9.49,9.1,14.7,13.16,3.41,2.64,6.63,5.51,9.88,8.34l.67.58c1-.18,1.94-.39,2.91-.61Q142.89,166.6,142.82,166.21Z"/>
            <g>
              <path class="cls-4" d="M150.84,180.25c.95,2.24,3,3.84,4.89,5.33,5.47,4.24,11,8.51,15.51,13.76a33.05,33.05,0,0,0,3.86,4.15,7.76,7.76,0,0,0,5.17,2c2.37-.1,4.4-1.67,6.18-3.23,2.74-2.41,5.42-5.12,6.56-8.59a4,4,0,0,0,.16-2.59,4.93,4.93,0,0,0-1.82-2,150.43,150.43,0,0,1-19.13-17.6c-2.41-2.63-5.1-5.55-8.65-5.79-3.95-.27-7.22,2.85-9.93,5.74S149.5,176.16,150.84,180.25Z"/>
              <path class="cls-8" d="M163.57,165.67c-3.95-.27-7.22,2.85-9.93,5.74s-4.14,4.75-2.8,8.84a3.37,3.37,0,0,0,.19.38,8.82,8.82,0,0,0,4.09-1.09,23.11,23.11,0,0,0,7.91-7.26,9.49,9.49,0,0,0,2-4.5,4.61,4.61,0,0,0-.2-1.91A7.17,7.17,0,0,0,163.57,165.67Z"/>
              <path class="cls-5" d="M172.22,171.46c-2.41-2.63-5.1-5.55-8.65-5.79a7.34,7.34,0,0,0-1.15,0q.87,2.38,1.73,4.77a20.63,20.63,0,0,0,1.47,3.41,19.22,19.22,0,0,0,3.25,3.95c6.23,6.21,13.32,11.57,18.93,18.34a17.82,17.82,0,0,1,1.94,2.89,15.41,15.41,0,0,0,3.27-5.37,4,4,0,0,0,.16-2.59,4.93,4.93,0,0,0-1.82-2A150.43,150.43,0,0,1,172.22,171.46Z"/>
              <path class="cls-5" d="M192.67,194.57c.12-.29.24-.58.34-.89a4,4,0,0,0,.16-2.59,4.93,4.93,0,0,0-1.82-2,150.43,150.43,0,0,1-19.13-17.6c-2.29-2.5-4.84-5.23-8.14-5.71a105.85,105.85,0,0,0,10.56,11.81c1.62,1.49,3.32,2.89,5,4.31,3.09,2.6,6.14,5.27,9,8.17,1.41,1.44,2.77,2.93,4,4.5Z"/>
              <path class="cls-6" d="M150.82,180.18a.19.19,0,0,0,0,.07c.95,2.24,3,3.84,4.89,5.33,5.47,4.24,11,8.51,15.51,13.76a33.05,33.05,0,0,0,3.86,4.15,8.46,8.46,0,0,0,4.15,2,30.73,30.73,0,0,1-5.07-4.2c-2.17-2.26-4.13-4.72-6.34-6.95C162.66,189.06,156.14,185.2,150.82,180.18Z"/>
              <path class="cls-7" d="M168.11,191.48c1.47,1.35,2.81,2.83,4.25,4.21a42.23,42.23,0,0,0,7.49,5.75c.34.2.78.39,1.09.16s.16-1-.14-1.39a66.94,66.94,0,0,0-7.48-8.41c-3.87-3.86-7.93-7.78-13-9.76a3.85,3.85,0,0,0-1.7-.36,1.43,1.43,0,0,0-1.16,2.24c.54.84,2.1,1.37,2.93,1.89A53.84,53.84,0,0,1,168.11,191.48Z"/>
              <path class="cls-9" d="M162.82,169.32a3.86,3.86,0,0,0,.36-2.83,2.32,2.32,0,0,0-.51-.82c-3.55.21-6.53,3.07-9,5.74-2.3,2.46-3.66,4.15-3.23,7.08a5.11,5.11,0,0,0,.87.14c2.79.21,5.35-1.76,7.24-3.57A18.53,18.53,0,0,0,162.82,169.32Z"/>
            </g>
            <g>
              <path class="cls-4" d="M114.09,143.54a20.33,20.33,0,0,0,4.2,4.54c8.78,7.69,18.21,14.86,25.19,24.22,1.36,1.82,2.78,3.84,5,4.49,2.7.79,5.47-.82,7.79-2.42,3.21-2.21,6.56-4.83,7.51-8.61a4.09,4.09,0,0,0,.11-1.87,5.48,5.48,0,0,0-2-2.73,438.42,438.42,0,0,1-32.37-31.72,7.67,7.67,0,0,0-2.5-2c-2.22-.93-4.73.42-6.59,1.95C116.22,132.75,110.69,138,114.09,143.54Z"/>
              <path class="cls-8" d="M160.91,168.37a17.65,17.65,0,0,1-7.33,5.7,12.4,12.4,0,0,1-6.54,1.52c-.26,0-.58-.09-.91-.15a6.12,6.12,0,0,0,2.31,1.35c2.7.79,5.47-.82,7.79-2.42,3.21-2.21,6.56-4.83,7.51-8.61a4.09,4.09,0,0,0,.11-1.87,4.33,4.33,0,0,0-1.41-2.18A9.33,9.33,0,0,1,160.91,168.37Z"/>
              <path class="cls-8" d="M126.92,127.39c-2.22-.9-4.7.44-6.55,2-3.74,3.06-8.57,7.6-7,12.55a6.22,6.22,0,0,0,1.4-.24,11.45,11.45,0,0,0,4-2.43,35.68,35.68,0,0,0,3.78-3.49,22.44,22.44,0,0,0,3.56-5.24A6.31,6.31,0,0,0,126.92,127.39Z"/>
              <path class="cls-5" d="M159.57,171.63l.08.14a12.09,12.09,0,0,0,4.09-6,4.09,4.09,0,0,0,.11-1.87,5.48,5.48,0,0,0-2-2.73,438.42,438.42,0,0,1-32.37-31.72,7.67,7.67,0,0,0-2.5-2,4.61,4.61,0,0,0-3.46.07,5.05,5.05,0,0,0-.13,1.6c.21,3.41,2.78,6.16,5.19,8.59l17.84,17.92c1.77,1.79,3.54,3.57,5.25,5.43A53.68,53.68,0,0,1,159.57,171.63Z"/>
              <path class="cls-5" d="M129.46,129.44a7.67,7.67,0,0,0-2.5-2,4.15,4.15,0,0,0-2.41-.21,36.37,36.37,0,0,0,5.62,7.6c2.87,3.16,5.89,6.17,9,9.12,5.43,5.2,11,10.21,16.35,15.53,2.61,2.62,5.15,5.31,7.55,8.13a8.6,8.6,0,0,0,.7-1.81,4.09,4.09,0,0,0,.11-1.87,5.48,5.48,0,0,0-2-2.73A438.42,438.42,0,0,1,129.46,129.44Z"/>
              <path class="cls-6" d="M113.4,142a7.55,7.55,0,0,0,.69,1.52,20.33,20.33,0,0,0,4.2,4.54c8.78,7.69,18.21,14.86,25.19,24.22,1.36,1.82,2.78,3.84,5,4.49a5.48,5.48,0,0,0,1.06.19,20.13,20.13,0,0,1-4.08-3.22c-1.79-2-3.3-4.23-4.94-6.34-5.1-6.56-11.6-11.87-18-17.13A74.82,74.82,0,0,1,113.4,142Z"/>
              <path class="cls-7" d="M132.5,156.58c3.79,3.95,7.19,8.31,11.51,11.66,1.06.82,2.39,1.61,3.65,1.16-2-4.37-5.67-7.68-9-11.13-5.41-5.57-10.27-11.87-16.89-15.94a2.25,2.25,0,0,0-1.87-.46c-3.85,1.43,3.27,6.12,4.26,7C127,151.3,129.87,153.84,132.5,156.58Z"/>
              <path class="cls-9" d="M120.37,129.35c-3.27,2.67-7.37,6.48-7.32,10.7a5.1,5.1,0,0,0,1.24-.44,25.71,25.71,0,0,0,11.36-10.33,4,4,0,0,0,.67-2.06C124.27,126.74,122.06,128,120.37,129.35Z"/>
            </g>
            <g>
              <path class="cls-4" d="M67,98.27A16.28,16.28,0,0,0,70.42,102c3.67,3.25,7.38,6.45,11,9.73q12.69,11.45,24.2,24.12a11.47,11.47,0,0,0,2.47,2.25,7.38,7.38,0,0,0,6.65.09,17.89,17.89,0,0,0,5.47-4.17c2.68-2.73,5.23-5.84,6-9.59a3,3,0,0,0,0-1.63,3.11,3.11,0,0,0-.86-1.15,52.59,52.59,0,0,0-6.09-4.71c-7.41-5.32-14.06-11.62-20.68-17.9l-16-15.19a7.61,7.61,0,0,0-2-1.52c-2.11-.94-4.53.2-6.46,1.47C69.81,86.72,63.61,92.58,67,98.27Z"/>
              <path class="cls-8" d="M126.23,122.84a3.11,3.11,0,0,0-.86-1.15c-.25-.25-.52-.48-.79-.71a11.45,11.45,0,0,1-.13,4.91c-.88,3.36-3.43,6-6,8.32a17.5,17.5,0,0,1-6.34,4.07,6.58,6.58,0,0,1-3.38.16,7.63,7.63,0,0,0,6.05-.21,17.89,17.89,0,0,0,5.47-4.17c2.68-2.73,5.23-5.84,6-9.59A3,3,0,0,0,126.23,122.84Z"/>
              <path class="cls-8" d="M79.06,88.12A9.76,9.76,0,0,0,81,84.2a5.44,5.44,0,0,0,.08-1.56,4.67,4.67,0,0,0-.49-.27c-2.11-.94-4.53.2-6.46,1.47-3.85,2.57-9.19,7.51-7.91,12.59a6.19,6.19,0,0,0,1.45-.28A22.81,22.81,0,0,0,79.06,88.12Z"/>
              <path class="cls-5" d="M122.37,131.54l.06.1a16.7,16.7,0,0,0,3.81-7.17,3,3,0,0,0,0-1.63,3.11,3.11,0,0,0-.86-1.15,52.59,52.59,0,0,0-6.09-4.71c-7.41-5.32-14.06-11.62-20.68-17.9l-16-15.19a7.61,7.61,0,0,0-2-1.52c-1.81-.81-3.86-.08-5.63,1a11.28,11.28,0,0,0,.94,1.74c10.7,16.68,29.28,26.56,42.45,41.38A50.49,50.49,0,0,1,122.37,131.54Z"/>
              <path class="cls-5" d="M119.28,117c-7.41-5.32-14.06-11.62-20.68-17.9l-16-15.19a7.61,7.61,0,0,0-2-1.52A4.32,4.32,0,0,0,78,82.11a8.76,8.76,0,0,0,1.5,2.15,275.51,275.51,0,0,0,29,28.34c2.09,1.75,4.2,3.48,6.28,5.24a89.05,89.05,0,0,1,10.24,9.85,13.62,13.62,0,0,0,1.16-3.22,3,3,0,0,0,0-1.63,3.11,3.11,0,0,0-.86-1.15A52.59,52.59,0,0,0,119.28,117Z"/>
              <path class="cls-6" d="M70.65,100.71c-1.46-1.26-2.94-2.51-4.31-3.87A6.81,6.81,0,0,0,67,98.27,16.28,16.28,0,0,0,70.42,102c3.67,3.25,7.38,6.45,11,9.73q12.69,11.45,24.2,24.12a11.47,11.47,0,0,0,2.47,2.25,5.72,5.72,0,0,0,1.75.67c-.71-.65-1.81-1.25-2.2-1.58-3.14-2.78-5.59-6.23-8.36-9.36-1.73-2-3.59-3.8-5.45-5.64C86.32,114.84,78.65,107.59,70.65,100.71Z"/>
              <path class="cls-7" d="M98.92,125.47a37.19,37.19,0,0,0,5.58,5.14,1.39,1.39,0,0,0,1,.34c.77-.2.66-1.33.33-2a22.08,22.08,0,0,0-2.14-3.68,44,44,0,0,0-4.08-4.66c-4.06-4.24-8.13-8.47-12.36-12.54-3.47-3.33-7.14-6.6-11.56-8.48a2,2,0,0,0-1.95-.08c-1.85,1.41,1.81,3.75,2.62,4.45q2.85,2.5,5.65,5.06,5.59,5.11,11,10.48Q96,122.42,98.92,125.47Z"/>
              <path class="cls-9" d="M79.85,82.13c-1.92-.43-4,.58-5.72,1.71-3.41,2.27-8,6.41-8.1,10.85a3.73,3.73,0,0,0,1.82.09,15.31,15.31,0,0,0,11.88-9.51A4.2,4.2,0,0,0,80,82.51,2.54,2.54,0,0,0,79.85,82.13Z"/>
            </g>
            <g>
              <path class="cls-4" d="M28.65,59c10.68,9.37,19.74,20.4,28.94,31.21,1.54,1.8,3.24,3.7,5.54,4.25,2.75.66,5.53-.77,7.93-2.26,3.14-1.94,6.22-4.13,8.34-7.14,1.08-1.54,1.9-3.46,1.37-5.26-.49-1.63-2-2.74-3.33-3.77C65,66.63,55.12,54.39,44.06,43.43a8.09,8.09,0,0,0-3.91-2.57c-2.28-.44-4.44,1-6.2,2.55A71.39,71.39,0,0,0,28.12,49C26.89,50.3,24.81,52.51,25,54.5,25.14,56.32,27.41,57.89,28.65,59Z"/>
              <path class="cls-8" d="M80.77,79.79a4.7,4.7,0,0,0-.71-1.37,17.58,17.58,0,0,1-4.49,8.25,25,25,0,0,1-10.44,6.25,11.54,11.54,0,0,1-3.93.69,6.66,6.66,0,0,0,1.93.84c2.75.66,5.53-.77,7.93-2.26,3.14-1.94,6.22-4.13,8.34-7.14C80.48,83.51,81.3,81.59,80.77,79.79Z"/>
              <path class="cls-5" d="M77.44,76C65,66.63,55.12,54.39,44.06,43.43a8.09,8.09,0,0,0-3.91-2.57c-1.85-.36-3.61.56-5.16,1.72,5.13,4.51,8.65,10.52,12.95,15.83,6.79,8.39,15.5,15,23,22.79a59.61,59.61,0,0,1,4.66,5.39,16,16,0,0,1,1,1.64,19.18,19.18,0,0,0,2.86-3.18c1.08-1.54,1.9-3.46,1.37-5.26C80.28,78.16,78.81,77.05,77.44,76Z"/>
              <path class="cls-5" d="M77.44,76C65,66.63,55.12,54.39,44.06,43.43a8.09,8.09,0,0,0-3.91-2.57,4.9,4.9,0,0,0-2.6.26c1.31,1.4,2.75,2.68,4.1,4C45.45,49,48.56,53.42,52,57.54a89.61,89.61,0,0,0,8.63,8.91C62.79,68.36,65,70.17,67.2,72A72.21,72.21,0,0,1,78,82.42c.59.74,1.13,1.51,1.65,2.29a6.11,6.11,0,0,0,1.15-4.92C80.28,78.16,78.81,77.05,77.44,76Z"/>
              <path class="cls-6" d="M64.47,94.6a19,19,0,0,1-2.92-2.08,52,52,0,0,1-4.63-4.87c-10-11.52-19.74-23.55-31.85-32.79.4,1.67,2.42,3.11,3.58,4.13,10.68,9.37,19.74,20.4,28.94,31.21,1.54,1.8,3.24,3.7,5.54,4.25A5.56,5.56,0,0,0,64.47,94.6Z"/>
              <path class="cls-7" d="M42.26,67.56c6.14,6.19,11.54,13.09,18,19,.94.85,2.09,1.75,3.35,1.55a1.12,1.12,0,0,0,.77-.42c.34-.51,0-1.17-.42-1.64-2.73-3.44-5.79-6.59-8.84-9.75L38.94,59.58c-2-2.1-4.32-4.33-7.22-4.61a1.13,1.13,0,0,0-.66.07c-.76.39-.38,2.14,0,2.66.79,1.16,2.79,2.19,3.89,3.11Q38.74,64,42.26,67.56Z"/>
              <path class="cls-8" d="M39.89,40.83C37.71,40.55,35.65,42,34,43.41A71.39,71.39,0,0,0,28.12,49C26.89,50.3,24.81,52.51,25,54.5c0,.06,0,.11,0,.17a4.63,4.63,0,0,0,.76-.48A112.19,112.19,0,0,0,38.5,43.37,3.9,3.9,0,0,0,39.89,40.83Z"/>
              <path class="cls-9" d="M27.5,51.18a26.3,26.3,0,0,0,8.23-6.07,4.45,4.45,0,0,0,.94-1.34c.18-.43.1-1.1-.37-1.15a.63.63,0,0,0-.27,0,2.71,2.71,0,0,0-1.45,1.24c-.35.55-.6,1.16-.94,1.71a11.17,11.17,0,0,1-3.74,3.24c-.6.39-1.25.74-1.83,1.16-.23.18-.39.23-.52.5S27.53,51.15,27.5,51.18Z"/>
            </g>
            <path class="cls-10" d="M84.74,97.19a45.38,45.38,0,0,0-5-6.31,57.9,57.9,0,0,0-6.45-5.45l-6-4.57a126,126,0,0,0-10.91-7.75,100.28,100.28,0,0,0-19.49-8.6c-1.22-.41-2.47-.93-3.73-1.32,5.53,5.3,10.67,11,15.69,16.81C64.54,89.16,79.73,99.24,93,111.57A105.65,105.65,0,0,0,84.74,97.19Z"/>
            <path class="cls-10" d="M90.52,110.39c-2.23-8.5-7.61-15.92-14.07-21.88s-14-10.57-21.61-15a49.48,49.48,0,0,0-5.67-3,51.11,51.11,0,0,0-5.28-1.77c-2.41-.7-4.81-1.41-7.22-2.13C44,74.08,50.78,82.2,57.59,90.2c1.54,1.8,3.24,3.7,5.54,4.25a6.5,6.5,0,0,0,2.91,0,6.53,6.53,0,0,0,.42,2.76A225.38,225.38,0,0,0,90.52,110.39Z"/>
            <g>
              <path class="cls-11" d="M11.94,66.36c8.12,2.63,14,9.46,20.33,15.2a94,94,0,0,0,29,17.94c9.41,3.65,19.68,5.93,27.44,12.37A13.23,13.23,0,0,0,92,114.2a3.57,3.57,0,0,0,3.8-.44c.28-.27.08-1-.17-.69L81.89,95.61a66.76,66.76,0,0,0-6.09-7,53.5,53.5,0,0,0-6.53-5.19c-15-10.46-32.67-18.06-50.95-17.67C16.25,65.77,13.8,65.45,11.94,66.36Z"/>
              <path class="cls-12" d="M18.32,65.73H17.14c1.88.51,4.46.57,5.55.83a83.85,83.85,0,0,1,20.47,8.24c3.74,2,7.39,4.2,11,6.44,13.39,8.28,26.9,17.53,35,31a11.16,11.16,0,0,0,2.88,2,3.57,3.57,0,0,0,3.8-.44c.28-.27.08-1-.17-.69L81.89,95.61a66.76,66.76,0,0,0-6.09-7,53.5,53.5,0,0,0-6.53-5.19C54.28,72.94,36.6,65.34,18.32,65.73Z"/>
              <path class="cls-13" d="M83.38,107.89a78.79,78.79,0,0,0-7.59-3.63C60.86,97.84,45.28,92,33,81.34,29.15,78,25.67,74.17,21.55,71.13A27,27,0,0,0,13,66.75c7.57,2.86,13.22,9.32,19.26,14.81a93.8,93.8,0,0,0,29,17.94c9.4,3.64,19.65,5.92,27.41,12.34C88.1,110.22,84.51,108.53,83.38,107.89Z"/>
              <path class="cls-12" d="M18.47,67.81c.21.08,21.43,7.26,39,18.12,16.48,10.2,25.89,19.41,34.64,28.3a4.32,4.32,0,0,0,2,.3c-9.13-9.29-18.67-18.9-36-29.6C40.4,74,18.47,67.81,18.47,67.81Z"/>
            </g>
          </g>
          <path class="cls-10" d="M119.28,117c-7.41-5.32-14.06-11.62-20.68-17.9l-16-15.19a8,8,0,0,0-1.89-1.45,4.69,4.69,0,0,0,.06-2.65c-.49-1.63-2-2.74-3.33-3.77-8.69-6.57-16.16-14.54-23.64-22.5-2.6-.6-5.12-.34-3.32,3.12,2,3.89,5.18,7.17,8.16,10.32,7.79,8.25,15.77,16.33,23.75,24.4l62,62.72c8.47,8.57,17,17.16,26.16,24.95,6.78,5.74,14,11.11,19.45,18.13q.32.41.66.81a14.08,14.08,0,0,0,2.37-4.29,4,4,0,0,0,.16-2.59,4.93,4.93,0,0,0-1.82-2,150.43,150.43,0,0,1-19.13-17.6c-2.36-2.58-5-5.43-8.47-5.76a4,4,0,0,0,.1-1.81,5.48,5.48,0,0,0-2-2.73,438.42,438.42,0,0,1-32.37-31.72,7.67,7.67,0,0,0-2.5-2,4,4,0,0,0-1.59-.3,12.68,12.68,0,0,0,.87-2.63,3,3,0,0,0,0-1.63,3.11,3.11,0,0,0-.86-1.15A52.59,52.59,0,0,0,119.28,117Z"/>
          <path class="cls-10" d="M119.28,117c-7.41-5.32-14.06-11.62-20.68-17.9l-16-15.19a8,8,0,0,0-1.89-1.45,4.69,4.69,0,0,0,.06-2.65c-.49-1.63-2-2.74-3.33-3.77C69.15,69.75,62,62.21,54.84,54.63a3.3,3.3,0,0,0-1.65.77c-2.08,2.08.86,4.91,2.23,6.32C65.32,71.89,75.33,82,85.34,92q29.84,30,60.1,59.52,17.15,16.72,34.44,33.33a84.27,84.27,0,0,1,10.61,11.5c.23.3.45.62.66.93a13.15,13.15,0,0,0,1.86-3.61,4,4,0,0,0,.16-2.59,4.93,4.93,0,0,0-1.82-2,150.43,150.43,0,0,1-19.13-17.6c-2.36-2.58-5-5.43-8.47-5.76a4,4,0,0,0,.1-1.81,5.48,5.48,0,0,0-2-2.73,438.42,438.42,0,0,1-32.37-31.72,7.67,7.67,0,0,0-2.5-2,4,4,0,0,0-1.59-.3,12.68,12.68,0,0,0,.87-2.63,3,3,0,0,0,0-1.63,3.11,3.11,0,0,0-.86-1.15A52.59,52.59,0,0,0,119.28,117Z"/>
          <path class="cls-10" d="M110.75,75.29c-4.67-4.33-10-7.92-14.8-12-6.71-5.71-12.56-12.37-19.44-17.88C74.42,43.7,69,38.63,66.19,39c-1.69.24-2.89,2-3.65,3.87,1.7,1.64,3.41,3.28,5.1,4.93a50.8,50.8,0,0,1,6.52,7.32,27.86,27.86,0,0,0,2.51,3.47,5.4,5.4,0,0,0,3.74,1.85,4.37,4.37,0,0,0,1.47-.25c.74,2.76,3.73,5.69,5.4,7.33,2.87,2.82,6.18,5.14,9.31,7.66a91.88,91.88,0,0,1,16.48,17.24c1.75,2.38,3.57,5,6.36,6a8.21,8.21,0,0,0,2.83.43c.35,2.62,3.32,5.44,5,7a96.55,96.55,0,0,0,8.15,6.52,108.36,108.36,0,0,1,19.15,19c1.44,1.85,2.95,3.83,5.13,4.68a6.55,6.55,0,0,0,2.31.42c0,3.07,3.38,5.91,5.46,7.6,5,4.11,10.44,7.8,15.16,12.29a120.24,120.24,0,0,1,8.93,9.8l4.35,5.14a11,11,0,0,0,3.26,2.93,7.17,7.17,0,0,0,6.8-.67,9.15,9.15,0,0,0,1-.67L184,151.44c-6.31-5.91-12.63-11.83-18.46-18.23-4.69-5.15-9.06-10.61-14.14-15.38-4.81-4.51-10.21-8.36-15-12.93C127,95.84,120.34,84.18,110.75,75.29Z"/>
          <path class="cls-10" d="M91.93,61.28l-19.3-17.7c-2.53-2.33-4.47-5.67-8.19-4.6a9.45,9.45,0,0,0-3.75,2.14q3.5,3.35,7,6.72a50.8,50.8,0,0,1,6.52,7.32,27.86,27.86,0,0,0,2.51,3.47,5.4,5.4,0,0,0,3.74,1.85,4.37,4.37,0,0,0,1.47-.25c.74,2.76,3.73,5.69,5.4,7.33,2.87,2.82,6.18,5.14,9.31,7.66a91.88,91.88,0,0,1,16.48,17.24c1.75,2.38,3.57,5,6.36,6a8.21,8.21,0,0,0,2.83.43c.35,2.62,3.32,5.44,5,7a96.55,96.55,0,0,0,8.15,6.52,108.36,108.36,0,0,1,19.15,19c1.44,1.85,2.95,3.83,5.13,4.68a6.55,6.55,0,0,0,2.31.42c0,3.07,3.38,5.91,5.46,7.6,5,4.11,10.44,7.8,15.16,12.29a120.24,120.24,0,0,1,8.93,9.8l4.35,5.14a11,11,0,0,0,3.26,2.93,6.65,6.65,0,0,0,5.25.09,15.19,15.19,0,0,0-1.16-1.25l-49.74-49.5c-3.71-3.7-7.42-7.39-11.28-10.93-4.46-4.09-9.12-8-13.31-12.33-4.85-5-9-10.65-13.62-15.92C108.1,76.11,100,68.69,91.93,61.28Z"/>
          <g>
            <g>
              <path class="cls-4" d="M171.42,175a5.45,5.45,0,0,0,2.12,2.6,191.28,191.28,0,0,1,22.2,21.15c1.95,2.17,4.11,4.55,7,4.93a9.09,9.09,0,0,0,5.42-1.3,18.4,18.4,0,0,0,8.77-10.83,3.72,3.72,0,0,0,.08-2.46,4.14,4.14,0,0,0-1.17-1.4c-8.44-7.42-16.79-15-23.94-23.69a9.69,9.69,0,0,0-3.39-3c-2.23-1-4.81-.05-6.91,1.18a23.92,23.92,0,0,0-7,6.3C173.34,170.15,170.83,172.83,171.42,175Z"/>
              <path class="cls-8" d="M187.48,160.89c0-.06,0-.11,0-.17a9,9,0,0,0-5.87,1.48,23.92,23.92,0,0,0-7,6.3c-1.23,1.65-3.74,4.33-3.15,6.54a3,3,0,0,0,.35.79,5.52,5.52,0,0,0,1.79-.11,14.29,14.29,0,0,0,6.18-3.64,36,36,0,0,0,6.33-7.54A7.51,7.51,0,0,0,187.48,160.89Z"/>
              <path class="cls-8" d="M215.13,190.66a11.66,11.66,0,0,1-1.78,4.8,16.41,16.41,0,0,1-6.87,6.57,11.25,11.25,0,0,1-4.48,1.11,6.31,6.31,0,0,1-1.45-.13,6.63,6.63,0,0,0,2.19.71,9.09,9.09,0,0,0,5.42-1.3,18.4,18.4,0,0,0,8.77-10.83,3.72,3.72,0,0,0,.08-2.46,4.14,4.14,0,0,0-1.17-1.4L215,187l.06.66A16.05,16.05,0,0,1,215.13,190.66Z"/>
              <path class="cls-5" d="M213.41,198.1a18.49,18.49,0,0,0,3.52-6.51,3.72,3.72,0,0,0,.08-2.46,4.14,4.14,0,0,0-1.17-1.4c-8.44-7.42-16.79-15-23.94-23.69a9.69,9.69,0,0,0-3.39-3c-2.14-.92-4.61-.11-6.66,1,.23.18.45.36.66.55,3.38,3,4.65,7.75,7.23,11.49,2.79,4.05,7,6.83,10.8,10a67.8,67.8,0,0,1,10,10.08C211.52,195.41,212.48,196.74,213.41,198.1Z"/>
              <path class="cls-5" d="M216.93,191.59a3.72,3.72,0,0,0,.08-2.46,4.14,4.14,0,0,0-1.17-1.4c-8.44-7.42-16.79-15-23.94-23.69a9.69,9.69,0,0,0-3.39-3,5.8,5.8,0,0,0-3.75-.16c4.72,2.56,7.36,7.67,10.83,11.77a89.77,89.77,0,0,0,8.13,7.83,124.76,124.76,0,0,1,12.46,13.14A19.3,19.3,0,0,0,216.93,191.59Z"/>
              <path class="cls-6" d="M202.74,203.72a6.77,6.77,0,0,0,1.35,0c-.68-.35-1.33-.67-1.55-.81a34.19,34.19,0,0,1-4.06-3,75.52,75.52,0,0,1-6-6.25,128.65,128.65,0,0,0-19-17.07,11,11,0,0,0-1.91-1.18,6.29,6.29,0,0,0,2,2.22,191.28,191.28,0,0,1,22.2,21.15C197.69,201,199.85,203.34,202.74,203.72Z"/>
              <path class="cls-7" d="M186.15,184.76a74.92,74.92,0,0,1,7.74,7.69c2.47,2.85,4.88,6,8.35,7.51a4.08,4.08,0,0,0,1.81.4,1.76,1.76,0,0,0,1.53-.92A2.54,2.54,0,0,0,205,197c-1.59-2.25-3.85-3.92-6-5.67-4.69-3.86-8.86-8.31-13.46-12.27a14.25,14.25,0,0,0-3.63-2.5,3.09,3.09,0,0,0-2-.26c-2.57.78,0,3,.9,3.89C182.5,181.79,184.36,183.24,186.15,184.76Z"/>
              <path class="cls-9" d="M186.21,160.65a10.36,10.36,0,0,0-4.61,1.55,23.92,23.92,0,0,0-7,6.3c-1,1.36-2.89,3.43-3.18,5.36a7.14,7.14,0,0,0,3.07.07,9.59,9.59,0,0,0,2.89-1.37,24.91,24.91,0,0,0,7.73-8.06,7.73,7.73,0,0,0,1.14-2.79A4.18,4.18,0,0,0,186.21,160.65Z"/>
            </g>
            <g>
              <path class="cls-4" d="M135.48,139.05a7.41,7.41,0,0,0,2.09,3.23c8.25,8.74,18.22,15.82,25.69,25.21,1.92,2.41,4,5.15,7,5.73,2.47.47,4.95-.68,7.06-2.05a23.52,23.52,0,0,0,8.85-9.93,6.67,6.67,0,0,0,.65-2.25c.17-2.63-2.11-4.7-4.17-6.34a225.05,225.05,0,0,1-24.74-22.35c-2.35-2.53-5.14-5.37-8.58-5.11-2.36.19-4.32,1.82-6.1,3.37C140.28,131.12,134.37,134.35,135.48,139.05Z"/>
              <path class="cls-8" d="M149.31,125.19c-2.36.19-4.32,1.82-6.1,3.37-2.93,2.56-8.84,5.79-7.73,10.49a4.12,4.12,0,0,0,.24.67,5.51,5.51,0,0,0,2.57-.3A27.25,27.25,0,0,0,149,132.94a13.6,13.6,0,0,0,3.45-5,8,8,0,0,0,.43-2A6.5,6.5,0,0,0,149.31,125.19Z"/>
              <path class="cls-8" d="M185,160.28a16.3,16.3,0,0,1-4.06,6,19,19,0,0,1-7.77,4.81,14,14,0,0,1-4.12.59c-.42,0-1.56-.3-2.47-.43a7.67,7.67,0,0,0,3.66,2c2.47.47,4.95-.68,7.06-2.05a23.52,23.52,0,0,0,8.85-9.93,6.67,6.67,0,0,0,.65-2.25,5.21,5.21,0,0,0-1.25-3.55A10.51,10.51,0,0,1,185,160.28Z"/>
              <path class="cls-5" d="M157.89,130.3c-2.35-2.53-5.14-5.37-8.58-5.11a6.24,6.24,0,0,0-1.67.38,4.77,4.77,0,0,0,.25,1c2.52,7.18,8.46,12.52,14.11,17.61,2.1,1.9,4.2,3.81,6.25,5.77a113.76,113.76,0,0,1,10.4,11.11q2.13,2.66,4,5.51a20.73,20.73,0,0,0,3.51-5.37,6.67,6.67,0,0,0,.65-2.25c.17-2.63-2.11-4.7-4.17-6.34A225.05,225.05,0,0,1,157.89,130.3Z"/>
              <path class="cls-5" d="M185.49,162.58c.23-.44.46-.88.66-1.34a6.67,6.67,0,0,0,.65-2.25c.17-2.63-2.11-4.7-4.17-6.34a225.05,225.05,0,0,1-24.74-22.35c-2.35-2.53-5.14-5.37-8.58-5.11a6.17,6.17,0,0,0-.62.1,31.21,31.21,0,0,0,5.9,7.44c2.75,2.74,5.64,5.33,8.57,7.88,5.19,4.54,10.5,8.95,15.34,13.86a77.81,77.81,0,0,1,6.61,7.55A6,6,0,0,1,185.49,162.58Z"/>
              <path class="cls-6" d="M136,140.29a11.09,11.09,0,0,0,1.57,2c8.25,8.74,18.22,15.82,25.69,25.21,1.65,2.07,3.39,4.38,5.76,5.36-.54-.45-1.14-.86-1.35-1.06a58.28,58.28,0,0,1-5.92-6.92c-1-1.31-2.05-2.62-3.14-3.87a89.86,89.86,0,0,0-8.18-7.91Z"/>
              <path class="cls-7" d="M160.16,160.53c2.31,2.66,4.59,5.5,7.73,7.1.36.18.89.3,1.09,0a.71.71,0,0,0,0-.52,7.4,7.4,0,0,0-1.29-2.7c-.94-1.37-2-2.66-3.06-3.93a140.77,140.77,0,0,0-12.57-13.05,51.34,51.34,0,0,0-6.48-5.19c-.55-.36-1.84-1.52-2.57-1-.52.36-.35,1.35-.23,1.84.51,2.24,2.92,3.48,4.55,4.87q3.25,2.76,6.31,5.76C155.92,155.84,158.09,158.15,160.16,160.53Z"/>
              <path class="cls-9" d="M149.31,125.19c-2.36.19-4.32,1.82-6.1,3.37-2.74,2.4-8.08,5.38-7.86,9.59a4.89,4.89,0,0,0,3.76-.44,26.34,26.34,0,0,0,10.48-8.54,6.24,6.24,0,0,0,1.36-3,3.28,3.28,0,0,0,0-.83A5.68,5.68,0,0,0,149.31,125.19Z"/>
            </g>
            <g>
              <path class="cls-4" d="M93.54,97.52A17.89,17.89,0,0,0,98,103.2c3,2.78,6.15,5.34,9.2,8,8.49,7.5,16,16,23.78,24.26a4.74,4.74,0,0,0,1.63,1.3,4.47,4.47,0,0,0,2.09.15,20,20,0,0,0,15.09-10.19,6.39,6.39,0,0,0,1-4.2c-.34-1.62-1.68-2.82-2.94-3.9q-11.43-9.78-22.3-20.16a65,65,0,0,1-9.32-10.37c-1.74-2.57-3.45-5.63-6.47-6.39-2.54-.64-5.15.62-7.33,2.07a70.81,70.81,0,0,0-7.83,6.64C92.5,92.35,92.39,94.9,93.54,97.52Z"/>
              <path class="cls-8" d="M109.36,81.67c-2.41-.41-4.86.77-6.92,2.14a70.81,70.81,0,0,0-7.83,6.64,5.41,5.41,0,0,0-1.48,5.94A5.36,5.36,0,0,0,95.45,96a26.37,26.37,0,0,0,11.93-8.65C108.65,85.72,109.75,83.67,109.36,81.67Z"/>
              <path class="cls-8" d="M148.74,124.63a11.75,11.75,0,0,1-1.56,2.84,22.18,22.18,0,0,1-11,8.05,9.77,9.77,0,0,1-4.69.44,3.6,3.6,0,0,0,1.18.84,4.47,4.47,0,0,0,2.09.15,20,20,0,0,0,15.09-10.19,6.39,6.39,0,0,0,1-4.2,5.53,5.53,0,0,0-1.59-2.67A11.83,11.83,0,0,1,148.74,124.63Z"/>
              <path class="cls-5" d="M148.13,129.35a19.26,19.26,0,0,0,1.7-2.59,6.39,6.39,0,0,0,1-4.2c-.34-1.62-1.68-2.82-2.94-3.9q-11.43-9.78-22.3-20.16a65,65,0,0,1-9.32-10.37c-1.74-2.57-3.45-5.63-6.47-6.39a6.81,6.81,0,0,0-4,.34c-.57,2,.47,4.11,1.59,5.89a68.93,68.93,0,0,0,4.58,6.44c8.71,10.89,20.46,18.89,30.51,28.56,1.37,1.31,2.7,2.65,3.94,4.07C147,127.77,147.56,128.57,148.13,129.35Z"/>
              <path class="cls-5" d="M125.56,98.5a65,65,0,0,1-9.32-10.37c-1.74-2.57-3.45-5.63-6.47-6.39a5.57,5.57,0,0,0-1.67-.15c0,.1,0,.2.05.3a20.82,20.82,0,0,0,3.44,6.45,103.1,103.1,0,0,0,7.77,10,85.31,85.31,0,0,0,8.33,7.91c5.22,4.43,10.75,8.48,15.87,13a79,79,0,0,1,6.69,6.63,5.47,5.47,0,0,0,.55-3.33c-.34-1.62-1.68-2.82-2.94-3.9Q136.43,108.88,125.56,98.5Z"/>
              <path class="cls-6" d="M123.36,126.18l-9.53-10c-1.43-1.5-2.86-3-4.39-4.4-5.08-4.66-11.24-8.32-15.56-13.6a19.61,19.61,0,0,0,4.16,5c3,2.78,6.15,5.34,9.2,8,8.49,7.5,16,16,23.78,24.26a4.74,4.74,0,0,0,1.63,1.3l.18,0c-.17-.13-.34-.26-.46-.37a62.59,62.59,0,0,1-4.4-5.22C126.52,129.49,124.94,127.83,123.36,126.18Z"/>
              <path class="cls-7" d="M98.72,100c4.4,4.43,9.42,8.2,14,12.47,4.82,4.52,9.11,9.6,14.22,13.79a12,12,0,0,0,4.1,2.46.86.86,0,0,0,.72,0,.78.78,0,0,0,.27-.5,4.45,4.45,0,0,0-1.16-3.25A113.79,113.79,0,0,0,119.5,112c-4.82-5-9.68-9.94-15.33-13.93a8,8,0,0,0-3.61-1.67,3.1,3.1,0,0,0-2.93,1.22C97.17,98.53,98.11,99.33,98.72,100Z"/>
              <path class="cls-9" d="M108.48,82c0-.12,0-.24.06-.36a11,11,0,0,0-6.1,2.22,70.81,70.81,0,0,0-7.83,6.64,5.19,5.19,0,0,0-1.79,4.24,10.64,10.64,0,0,0,7.41-2.41,35.16,35.16,0,0,0,5.51-5.79A11.78,11.78,0,0,0,108.48,82Z"/>
            </g>
            <g>
              <path class="cls-4" d="M50.89,56.88c3.57,3.91,7.87,7.1,11.8,10.66,8.09,7.32,14.66,16.18,22.58,23.68a9.14,9.14,0,0,0,4.1,2.64,7.84,7.84,0,0,0,3.37-.14,21.63,21.63,0,0,0,13.8-9.8,8,8,0,0,0,1.32-3.57c.2-3.18-2.6-5.65-5.11-7.63a252.78,252.78,0,0,1-32.6-30.83c-1.42-1.61-3.13-3.38-5.28-3.29a6.9,6.9,0,0,0-4,2,71.09,71.09,0,0,0-8.67,8.68c-.81,1-2.68,2.54-3.08,3.71C48.7,54.38,50,55.94,50.89,56.88Z"/>
              <path class="cls-8" d="M104.22,83.49c-1.85,3.65-5.35,6.25-9.11,7.84a17.88,17.88,0,0,1-7.48,1.51H87.2a6.33,6.33,0,0,0,2.17,1,7.84,7.84,0,0,0,3.37-.14,21.63,21.63,0,0,0,13.8-9.8,8,8,0,0,0,1.32-3.57c.14-2.3-1.29-4.23-3-5.87A11.42,11.42,0,0,1,104.22,83.49Z"/>
              <path class="cls-5" d="M70.15,41.89c-1.42-1.61-3.13-3.38-5.28-3.29a5.91,5.91,0,0,0-3.29,1.47c.05.2.1.39.16.58,1.54,4.87,5.21,8.74,8.88,12.29C76.71,58.83,83.14,64.37,89,70.47a92.79,92.79,0,0,1,9.39,11.18,62.78,62.78,0,0,1,3.91,6.29l.34.64a21.19,21.19,0,0,0,3.88-4.66,8,8,0,0,0,1.32-3.57c.2-3.18-2.6-5.65-5.11-7.63A252.78,252.78,0,0,1,70.15,41.89Z"/>
              <path class="cls-5" d="M106.84,83.38a7.18,7.18,0,0,0,1-3c.2-3.18-2.6-5.65-5.11-7.63a252.78,252.78,0,0,1-32.6-30.83c-1.42-1.61-3.13-3.38-5.28-3.29a4.22,4.22,0,0,0-1.32.29l0,0C73.67,54.75,90.8,64.57,103.23,78.61A43.94,43.94,0,0,1,106.84,83.38Z"/>
              <path class="cls-6" d="M66.84,70.32c-1.3-1.42-2.61-2.84-4-4.16-2.84-2.62-6.07-4.77-9-7.29-1.6-1.38-3.1-2.86-4.57-4.38a8,8,0,0,0,1.64,2.39c3.57,3.91,7.87,7.1,11.8,10.66,8.09,7.32,14.66,16.18,22.58,23.68a9.14,9.14,0,0,0,4.1,2.64,5.53,5.53,0,0,0,.9.11,4.92,4.92,0,0,1-.64-.38c-.83-.58-1.63-1.2-2.41-1.85a88.06,88.06,0,0,1-8.38-8.35Z"/>
              <path class="cls-8" d="M64.87,38.6a6.9,6.9,0,0,0-4,2,71.09,71.09,0,0,0-8.67,8.68c-.81,1-2.68,2.54-3.08,3.71a1.71,1.71,0,0,0-.09.55l.29,0a3.78,3.78,0,0,0,2.06-.66c2.87-1.7,5.07-4.3,7.22-6.85L65,38.6Z"/>
              <path class="cls-7" d="M75,75.13c3.73,4.21,7.23,8.92,12.29,11.36a4,4,0,0,0,2.34.51,13.26,13.26,0,0,0-2.85-4.63c-1.74-2.05-3.57-4-5.4-6l-7-7.58c-2.16-2.33-4.33-4.67-6.65-6.86a26.47,26.47,0,0,0-7.44-5.32c-1.94-.84-3.89.55-2.44,2.56a8.16,8.16,0,0,0,1.82,1.36c1.07.83,2.06,1.78,3.08,2.67A139.47,139.47,0,0,1,75,75.13Z"/>
              <path class="cls-9" d="M57.84,46.33c1-1.07,2.78-3,2.93-4.44-.12-.13-1.81,1.16-3.17,2.59-.72.75-1.53,1.41-2.26,2.17s-1.37,1.48-2,2.27c-.41.5-1.48,1.45-1.35,2.15.89.06,2.34-1.44,3-2A26.45,26.45,0,0,0,57.84,46.33Z"/>
            </g>
            <path class="cls-10" d="M175,146.35c-4.54-3.83-9-7.81-13.15-12l.59,1.65q1.18,3.28,2.42,6.56a60.69,60.69,0,0,0,3,7,53.66,53.66,0,0,0,7.12,9.85c1,1.16,2,2.31,3.12,3.38a38.28,38.28,0,0,0,4.64,3.78,21.61,21.61,0,0,0,2.58-3.59,107.71,107.71,0,0,1-8.11-12.57C176.42,149.06,175.69,147.7,175,146.35Z"/>
            <path class="cls-10" d="M182.63,152.65c-6.11-4.88-12.09-9.92-17.75-15.3l.84,3c.47,1.65.93,3.3,1.55,4.89a41.25,41.25,0,0,0,3,6c3.36,5.63,7.48,11.06,12.63,15a20.92,20.92,0,0,0,3.2-5,10,10,0,0,0,.51-1.42q-1.38-3.21-3-6.31C183.32,153.21,183,152.92,182.63,152.65Z"/>
            <g>
              <path class="cls-11" d="M151.41,111.11c4.72,3.44,7.83,8.69,10,14.11s3.56,11.13,5.62,16.6c5.56,14.75,16.42,27.75,30.72,34.36.08-3.74-2.75-6.67-4.77-9.81-3.94-6.12-5.19-13.53-7.93-20.27a75.59,75.59,0,0,0-5.43-10.45A72.65,72.65,0,0,0,168,120.32C163.35,115.88,157.74,112.27,151.41,111.11Z"/>
              <path class="cls-12" d="M197.7,175.23c-.36-3.29-2.85-6-4.7-8.86-3.94-6.12-5.19-13.53-7.93-20.27a75.59,75.59,0,0,0-5.43-10.45A72.65,72.65,0,0,0,168,120.32a42.63,42.63,0,0,0-4.76-3.93c.56.6,1.13,1.19,1.68,1.79a68.28,68.28,0,0,1,9,12.87c4.69,8.39,8.15,17.39,12.36,26C187.39,159.21,193,170.31,197.7,175.23Z"/>
              <path class="cls-13" d="M161.43,125.22c2.18,5.42,3.56,11.13,5.62,16.6,4.7,12.46,13.19,23.66,24.33,30.83-.63-.46-1.25-.92-1.83-1.41-2.06-1.73-4.05-3.57-5.93-5.5a72.25,72.25,0,0,1-9.81-12.43,63.27,63.27,0,0,1-4.22-8c-2.56-5.89-4.18-12.14-6.58-18.1s-5.72-11.77-10.87-15.62c-.2-.15-.42-.29-.65-.43l-.08,0C156.13,114.55,159.24,119.8,161.43,125.22Z"/>
              <path class="cls-12" d="M197.65,174.71c-8.05-8.11-12.82-18-20-33.79-8.3-18.17-19.35-26.35-19.46-26.43s10.21,9,18.38,26.92c7.35,16.09,12.2,26.15,20.57,34.46l.64.31A8,8,0,0,0,197.65,174.71Z"/>
            </g>
          </g>
        </g>
      </g>
    </g>
  </g>
</svg>
