<svg id="Layer_1" data-name="Layer 1" xmlns="http://www.w3.org/2000/svg" width="309.65" height="134.4" viewBox="0 0 309.65 134.4">
  <defs>
    <style>
      .cls-1 {
        opacity: 0.5;
      }

      .cls-2 {
        fill: #fff;
      }

      .cls-3, .cls-8 {
        fill: #4b5454;
      }

      .cls-3 {
        fill-rule: evenodd;
      }

      .cls-4 {
        fill: #cff1f9;
      }

      .cls-5, .cls-6 {
        fill: #9dbcc1;
      }

      .cls-6 {
        opacity: 0.33;
      }

      .cls-7 {
        fill: none;
      }
    </style>
  </defs>
  <g>
    <path class="cls-1" d="M168.07,131.3l-1,0-1.5-.05c-.52,0-1.07,0-1.6-.08s-1.2-.07-1.83-.11l-.83-.06-1.67-.15-.78-.08c-1.33-.14-2.62-.3-3.8-.48l-.14,0-.89-.14c-.24,0-.55-.08-.85-.14l-1.37-.24c-.49-.09-1-.18-1.41-.28l-.82-.17c-1.59-.35-3.08-.73-4.43-1.13l-.6-.18-1.09-.34-.75-.25-.55-.2-.29-.1-.62-.24-.42-.15-.74-.31-.74-.32-.54-.25-.3-.15c-13-5.56-20.48-15.85-25.54-24.21a101.72,101.72,0,0,1-7.86-16.61c-.92-2.42-1.77-4.78-2.4-6.57l-1.29-3.64c-.26.73-.53,1.43-.79,2.1l-.22.59a102.12,102.12,0,0,1-9.14,19.05c-.85,1.32-1.75,2.62-2.67,3.85a29.48,29.48,0,0,1-14.18,10.56,6.61,6.61,0,0,1-.76.22,34.31,34.31,0,0,1-7.88.9c-.6,0-1.2,0-1.79-.05l-.42,0a41.29,41.29,0,0,1-4.11-.45c-.64-.1-1.31-.23-2-.38-1-.21-2.15-.48-3.26-.8a56.71,56.71,0,0,1-9-3.44c-1.45-.69-2.94-1.48-4.4-2.32l-.18-.11a72.22,72.22,0,0,1-8.8-6c-.43-.34-.75-.6-1-.79l-.14-.12c-6.73-5.33-11.26-12.56-13.87-22.11A168.54,168.54,0,0,1,13.19,58c-.31-1.94-.59-3.84-.82-5.64a.41.41,0,0,1,0-.11c-.26-1.93-.49-3.91-.69-5.87,0,0-.08-.71-.1-.86s0-.07,0-.11c0-.22-.05-.38-.07-.48a18,18,0,0,1-1-1.58c-.1-.19-.24-.46-.37-.73a18.41,18.41,0,0,1-.75-1.77,15.65,15.65,0,0,1-.56-1.8c-.11-.4-.21-.84-.3-1.29A35.52,35.52,0,0,1,8.2,29l0-.81a21.35,21.35,0,0,1,.48-3.41A10,10,0,0,1,16.55,17a10.45,10.45,0,0,1,2.53-.89L19.5,16C41.37,12.42,69,9.3,88.2,8.21c1.52-.09,3-.13,4.54-.13a74,74,0,0,1,42.88,13.71c1.55,1.08,3.34,2.48,5.46,4.27a8,8,0,0,1,2.16,9.3l4.88.36,3.91.34,1.09.12,6.06.62c1.76.18,3.54.38,5.32.58l2.08.23c1.21.14,2.45.28,3.68.44l1,.11,3.12.4.62.08,4.11.55c8.37,1.19,16.77,2.59,25,4.17,4,.76,8.15,1.6,12.59,2.56a17.89,17.89,0,0,0,3.81.39A30.28,30.28,0,0,0,224.7,46a6.2,6.2,0,0,1,.62-.06c.71-.12,1.48-.26,2.32-.43,5.82-1.13,11.75-2.38,17.49-3.58,11.25-2.36,22.89-4.8,34.56-6.61l.78-.13a29.91,29.91,0,0,1,4.92-.5c.47,0,.94,0,1.42.05,4.46.35,12.5,2.51,16.26,13.09a53.09,53.09,0,0,1,2.3,10.55c.13.93.26,1.84.41,2.75l0,.18a76.54,76.54,0,0,1,.75,11.55,12.42,12.42,0,0,1-12.3,12.52h0a12.48,12.48,0,0,1-2.78-.32,11.09,11.09,0,0,1-9.13-11.34V71.23c0-2.24,0-4.41-.07-6.52-4.61,3-9.59,3.69-13.75,4.29l-.53.08a302.91,302.91,0,0,0-39.3,8.26c-.2.08-.4.14-.6.2l-3.88,1.15c-.61.19-1.16.37-1.64.55-.49,3.55-1.06,7.06-1.69,10.45-.95,5.14-2.09,10.22-3.38,15.12a39.62,39.62,0,0,1-1.26,3.94l-.06.15a34.73,34.73,0,0,1-2.75,5.72c-.31.5-.63,1-1,1.5-4.9,7.2-12.35,11.82-22.16,13.74l-.44.07c-.82.11-1.63.22-2.42.31l-.4,0-1.55.17-1.84.19-1.66.15-.82.07-.51,0-1,.07-1,.07-1.32.08-1.85.08-1.83.06-.48,0-1.83,0h-1.28ZM105.15,34.59l5.39.18-1.25-.93a12.23,12.23,0,0,0-7.47-2.45,18.29,18.29,0,0,0-4.18.52c-.9.21-1.79.47-2.7.76l2.32.52Q101,34,104,34.44l.2,0Z"/>
    <path class="cls-2" d="M163.07,126.3l-1,0-1.5,0c-.52,0-1.07,0-1.6-.08s-1.2-.07-1.83-.11l-.83-.06-1.67-.15-.78-.08c-1.33-.14-2.62-.3-3.8-.48l-.14,0-.89-.14c-.24,0-.55-.08-.85-.14l-1.37-.24c-.49-.09-1-.18-1.41-.28l-.82-.17c-1.59-.35-3.08-.73-4.43-1.13l-.6-.18-1.09-.34-.75-.25-.55-.2-.29-.1-.62-.24-.42-.15-.74-.31-.74-.32-.54-.25-.3-.15c-13-5.56-20.48-15.85-25.54-24.21a101.72,101.72,0,0,1-7.86-16.61c-.92-2.42-1.77-4.78-2.4-6.57l-1.29-3.64c-.26.73-.53,1.43-.79,2.1l-.22.59a102.12,102.12,0,0,1-9.14,19.05c-.85,1.32-1.75,2.62-2.67,3.85a29.48,29.48,0,0,1-14.18,10.56,6.61,6.61,0,0,1-.76.22,34.31,34.31,0,0,1-7.88.9c-.6,0-1.2,0-1.79-.05l-.42,0a41.29,41.29,0,0,1-4.11-.45c-.64-.1-1.31-.23-2-.38-1-.21-2.15-.48-3.26-.8a56.71,56.71,0,0,1-9-3.44c-1.45-.69-2.94-1.48-4.4-2.32l-.18-.11a72.22,72.22,0,0,1-8.8-6c-.43-.34-.75-.6-1-.79l-.14-.12c-6.73-5.33-11.26-12.56-13.87-22.11A168.54,168.54,0,0,1,8.19,53c-.31-1.94-.59-3.84-.82-5.64a.41.41,0,0,1,0-.11c-.26-1.93-.49-3.91-.69-5.87,0,0-.08-.71-.1-.86s0-.07,0-.11c0-.22,0-.38-.07-.48a18,18,0,0,1-1-1.58c-.1-.19-.24-.46-.37-.73a18.41,18.41,0,0,1-.75-1.77,15.65,15.65,0,0,1-.56-1.8c-.11-.4-.21-.84-.3-1.29A35.52,35.52,0,0,1,3.2,24l0-.81a21.35,21.35,0,0,1,.48-3.41A10,10,0,0,1,11.55,12a10.45,10.45,0,0,1,2.53-.89L14.5,11C36.37,7.42,64,4.3,83.2,3.21c1.52-.09,3-.13,4.54-.13a74,74,0,0,1,42.88,13.71c1.55,1.08,3.34,2.48,5.46,4.27a8,8,0,0,1,2.16,9.3l4.88.36,3.91.34,1.09.12,6.06.62c1.76.18,3.54.38,5.32.58l2.08.23c1.21.14,2.45.28,3.68.44l1,.11,3.12.4.62.08,4.11.55c8.37,1.19,16.77,2.59,25,4.17,4,.76,8.15,1.6,12.59,2.56a17.89,17.89,0,0,0,3.81.39A30.28,30.28,0,0,0,219.7,41a6.2,6.2,0,0,1,.62-.06c.71-.12,1.48-.26,2.32-.43,5.82-1.13,11.75-2.38,17.49-3.58,11.25-2.36,22.89-4.8,34.56-6.61l.78-.13a29.91,29.91,0,0,1,4.92-.5c.47,0,.94,0,1.42.05,4.46.35,12.5,2.51,16.26,13.09a53.09,53.09,0,0,1,2.3,10.55c.13.93.26,1.84.41,2.75l0,.18a76.54,76.54,0,0,1,.75,11.55,12.42,12.42,0,0,1-12.3,12.52h0a12.48,12.48,0,0,1-2.78-.32,11.09,11.09,0,0,1-9.13-11.34V66.23c0-2.24,0-4.41-.07-6.52-4.61,3-9.59,3.69-13.75,4.29l-.53.08a302.91,302.91,0,0,0-39.3,8.26c-.2.08-.4.14-.6.2l-3.88,1.15c-.61.19-1.16.37-1.64.55-.49,3.55-1.06,7.06-1.69,10.45-.95,5.14-2.09,10.22-3.38,15.12a39.62,39.62,0,0,1-1.26,3.94l-.06.15a34.73,34.73,0,0,1-2.75,5.72c-.31.5-.63,1-1,1.5-4.9,7.2-12.35,11.82-22.16,13.74l-.44.07c-.82.11-1.63.22-2.42.31l-.4.05-1.55.17-1.84.19-1.66.15-.82.07-.51,0-1,.07-1,.07-1.32.08-1.85.08-1.83.06-.48,0-1.83,0h-1.28ZM100.15,29.59l5.39.18-1.25-.93a12.23,12.23,0,0,0-7.47-2.45,18.29,18.29,0,0,0-4.18.52c-.9.21-1.79.47-2.7.76l2.32.52Q96,29,99,29.44l.2,0Z"/>
    <g>
      <g>
        <path class="cls-3" d="M142.49,38.7c-5.89-.46-12.91-.86-12.91-.86-1.72.09-3.76.14-6,.17a3,3,0,0,0,2.14,1.14c5,.21,10,.49,14.93.69C142,39.89,142.61,39.53,142.49,38.7ZM126.06,23.36A65.59,65.59,0,0,0,83.65,11.2c-20.34,1.15-47.8,4.41-67.86,7.68-.68.15-1,.31-1,.87a.81.81,0,0,0,0,.16l3.13,4.23.15.21L19,25.6,22.23,30h.39c1.1,0,3.08-.2,5.64-.46,1.39-.13,3-.3,4.65-.49l4.36-.49h0c5.51-.63,11.79-1.38,17.61-2.08h0l1.68-.19h0l2.11-.26h0c7.43-.88,13.54-1.58,15.41-1.67a18.45,18.45,0,0,0,5.69-1.47,78.82,78.82,0,0,1,11-3.78c6.52-1.54,12.6-.78,18.17,3.22a50.26,50.26,0,0,1,7,6,57.38,57.38,0,0,1,3.88,4.84,55.16,55.16,0,0,1,11.06-6.06C129.22,25.73,127.55,24.4,126.06,23.36Zm-80.23.3c3.44.73,7.05,1.61,10.76,2.65Z"/>
        <path class="cls-4" d="M208,83.24c.1-1.38.15-2.76.15-4.16a55.87,55.87,0,0,0-10.64-32.87Q185.3,43.87,173,42.12c-1.32-.19-2.65-.37-4-.54l-.6-.08-3.19-.4-.85-.11c-1.22-.15-2.45-.3-3.68-.43l-2.06-.23-5.27-.58-6.55-.67-.48,0h-.14l-.88-.08-.67-.06-.94-.08-.48,0-.7-.06c-5.89-.47-12.91-.86-12.91-.86-1.72.09-3.76.14-6,.16-3.06,0-6.42,0-9.63,0A56.14,56.14,0,0,0,99.69,59.14,11,11,0,0,1,101.81,62l.06.13a39.13,39.13,0,0,1,2.26,5.29c3,8.55,6,17.09,10.7,24.91,5.46,9,12,16.89,22.08,21.1h0l.46.23a.33.33,0,0,0,.12,0c.2.1.45.21.74.33s.36.15.57.23l.39.15.35.13h0l.4.15.45.15.44.15.48.16.52.16.54.16c1.12.33,2.42.66,3.89,1l.1,0,.64.13c.8.17,1.64.33,2.54.48l.75.12.9.14c1.1.16,2.26.3,3.48.43l.73.08,1.49.13.76,0c.58,0,1.17.09,1.78.12l1.45.07,1.35,0h4.28l1.55,0,1,0,1,0,.92,0,.94,0,1.21-.08,1-.07.94-.06.43,0,.73-.06.89-.08.89-.08.64-.06.91-.1.65-.07,1.07-.12h0l2.45-.31c8.05-1.58,14.05-5.27,17.81-11.53.79-1.48,1.52-3,2.18-4.57h0Z"/>
        <path class="cls-5" d="M165.05,118.32h-1.54l-.76,0h-.47l-1.35,0-1.45-.07-1.78-.11-.76-.06-1.49-.13-.73-.07c-1.22-.13-2.38-.28-3.48-.44Z"/>
        <path class="cls-6" d="M165.05,118.32h-1.54l-.76,0h-.47l-1.35,0-1.45-.07-1.78-.11-.76-.06-1.49-.13-.73-.07c-1.22-.13-2.38-.28-3.48-.44l-2.6-6.88L124,45.39h0l-.41-1.1,11.76-4.45,2.29,6.06h0l25.25,66.84h0Z"/>
        <path class="cls-6" d="M181.33,117.32h0l14.24-5.39-2.38-6.3-20.87-55.2h0L169,41.58l-.6-.08-3.19-.4-.85-.1c-1.22-.16-2.45-.3-3.68-.44l-2.06-.23c-1.75-.2-3.51-.39-5.27-.57l-6.55-.68-.48,0h-.14l-.88-.08-.67-.06-.94-.08-.48,0,3,7.88h0l24.9,65.88,2.1,5.55Z"/>
        <path class="cls-7" d="M74.73,39.47C54,30.28,31.82,27.79,31.82,27.79c-11.55-2.1-10.9,7.74-10.9,7.74-.39,26.25,8,39.5,8,39.5C35,87.5,54.39,92.61,54.39,92.61c9.18,2.5,14.43-3.15,14.43-3.15C79.19,77.65,80.89,52.59,80.89,52.59,81.81,42.22,74.73,39.47,74.73,39.47Z"/>
        <path class="cls-7" d="M90.53,60c0,.18,0,.36,0,.55h0c0,.14,0,.29,0,.43V61l0,.24h0c0,.16,0,.3-.07.45a5.58,5.58,0,0,1-.1.59"/>
        <path class="cls-7" d="M90.51,60.21v0c0-.07,0-.15,0-.21v0c0-.13,0-.25,0-.38"/>
        <path class="cls-4" d="M90.58,58.09c0,.55,0,1.09,0,1.63,0-.22,0-.45,0-.68A5.59,5.59,0,0,1,90.58,58.09Z"/>
        <path class="cls-4" d="M90.53,59.72v0Z"/>
        <path class="cls-4" d="M59,98.85h0l.19-.09a22.53,22.53,0,0,0,7.6-5.59h0c.37-.42.73-.84,1.09-1.29a67.78,67.78,0,0,0,8.29-13.62c1.13-2.41,2.18-4.86,3.18-7.33,1.36-3.35,2.85-6.73,2.78-10.43,0-1.63.29-2.34,1.5-2.52a5.84,5.84,0,0,1,1.23,0l5-19.12c-.51-1.06-1.06-2.11-1.65-3.12-11.21-2.64-21.68-5.93-21.68-5.93-2.84-.89-5.65-1.69-8.41-2.41L56.85,27l-1.94-.48h0c-3.66-.89-7.21-1.64-10.6-2.28h0c-4.47-.84-8.65-1.47-12.42-1.95-3.95-.51-7.44-.85-10.36-1.06-.67.47-1.31,1-2,1.48s-1.15.94-1.7,1.44a44.72,44.72,0,0,0-5.1,5.29c-.48.59-.94,1.18-1.39,1.79.06.27.11.54.19.82a10.47,10.47,0,0,0,.77,2.08c.07.15.15.31.23.46a11.67,11.67,0,0,0,.68,1.1,8.3,8.3,0,0,1,1.24,3.76h0c0,.26.06.5.09.75l0,.38c.2,1.92.43,3.85.68,5.76h0L31.13,86.49l8.7,6h0l3.89,2a45.69,45.69,0,0,0,10.45,3.64Z"/>
        <path class="cls-6" d="M76.23,78.26a67.78,67.78,0,0,1-8.29,13.62c-.36.45-.72.87-1.09,1.29h0a22.53,22.53,0,0,1-7.6,5.59l-2.12-5.62L32.91,29.08l-.18-.47,1.37-.52h0l10.2-3.86h0l1.52-.57c3.44.73,7.05,1.61,10.76,2.65h0l.26.67,2.58,6.83h0L75.74,77h0Z"/>
        <path class="cls-6" d="M54.19,98.19a45.69,45.69,0,0,1-10.45-3.64L40.8,86.79h0L21,34.31h0L17.84,26,19,25.6,25.78,23l1.72,4.55.76,2L51.77,91.79h0Z"/>
        <path class="cls-7" d="M186.27,53.25c-45.27-10-69.68-7.62-69.68-7.62-8.9.47-4.46,10.63-4.46,10.63a10.4,10.4,0,0,0,3.28,3.81,25.83,25.83,0,0,1,5.51,5.38c3.28,3,3.41,19.16,3.41,19.16.53,12.73,7.74,18,7.74,18,27.43,19,57.68,5.58,57.68,5.58,12.4-5.52,10-37,10-37C199.2,57.38,186.27,53.25,186.27,53.25Z"/>
        <path class="cls-8" d="M292.89,57.4c-.65-3.95-1-8-2.36-11.93-1.58-4.46-4.36-7.4-9.34-7.79a22.7,22.7,0,0,0-5.27.5c-17.38,2.7-34.49,6.78-51.75,10.15-1.15.22-2.29.43-3.44.6.67,3.11,1.15,8.28,0,15.93a312.79,312.79,0,0,1,41.1-8.7c4.85-.7,9.58-1.27,13.33-5a20.65,20.65,0,0,1,5.85-4c1.1-.5,2.32-.6,2.61.8s.61,2.72.86,4c1,5.51.84,11,.85,16.61,0,2.11.85,3.09,2.91,3.56,2.77.63,5.25-1.4,5.3-4.53A67.91,67.91,0,0,0,292.89,57.4Z"/>
        <path class="cls-8" d="M200,78.79q0,.55,0,1.14v.12c0,.17,0,.35,0,.53s0,.13,0,.19l0,.77a1.34,1.34,0,0,0,0,.2c-.05.91-.1,1.86-.17,2.82,0,.09,0,.18,0,.27,0,.44-.07.88-.11,1.33s-.09.89-.14,1.34c-.09.83-.2,1.66-.32,2.5a.06.06,0,0,0,0,0c-.12.82-.26,1.64-.41,2.46-.13.66-.26,1.32-.41,2l-.24,1c0,.21-.11.42-.16.62a.29.29,0,0,0,0,.09l-.21.72-.18.61-.24.73v0l-.21.58c-.06.19-.13.37-.2.56a.08.08,0,0,1,0,0c-.06.18-.13.35-.2.52s-.15.37-.23.54l-.18.43c-.06.14-.13.28-.2.41s-.12.28-.19.41l-.21.41c-.12.23-.24.46-.37.68s-.19.32-.28.48l-.22.35-.23.34c-.1.14-.2.29-.31.43s-.17.23-.26.34l-.11.15c-.09.12-.18.23-.28.34s-.21.25-.32.37,0,0,0,0h0l-.2.21c-.06.07-.13.13-.2.2s-.23.23-.35.34l-.07.06-.09.08-.26.23-.21.16-.2.16,0,0-.42.29-.34.22-.08,0,0,0-.22.13-.08,0-.18.1-.09,0-.36.17-.09,0-.09,0-.18.08-.11,0-.31.12-.27.11-.67.25-.18.07-.28.1-.39.13-.27.1-.4.13-.17,0-.3.1-.32.11-.82.25-.35.1-.57.17-.78.21-.64.17-.6.16-.12,0-.76.18c-.6.14-1.22.29-1.87.42l-1.42.28c-.59.11-1.19.22-1.81.31l-.74.12-.12,0-.13,0h-.13l-.81.11-1,.12c-.67.08-1.34.16-2,.21l-1.31.11h-.08l-1.43.08-1.14.05h-3l-1.2,0h-.08l-.73,0h-.3l-.59,0-2-.15-.11,0c-.49,0-1-.1-1.5-.16l-.78-.11c-.24,0-.48-.06-.73-.1l-.76-.12-.56-.09-.07,0-.58-.1c-1.21-.22-2.43-.49-3.66-.8q-.47-.11-.93-.24l-.93-.26-1-.3-1-.32-.91-.31-.08,0-.89-.32-.56-.22-.76-.29-1-.4c-.34-.15-.68-.29-1-.45l-.09,0-.65-.3-.06,0-.56-.27-.74-.35-1-.49-.06,0-.89-.47c-.36-.19-.71-.39-1.07-.6-.72-.41-1.44-.84-2.15-1.29-.26-.16-.52-.32-.77-.5-.46-.29-.91-.6-1.36-.91,0,0-7.22-5.25-7.75-18h0c0-.28.11-10.52-1.88-16.27,0,0,0,0,0-.06a.3.3,0,0,0,0-.1s0,0,0-.05a8.13,8.13,0,0,0-1.46-2.68l0,0,0,0a42.06,42.06,0,0,0-5.45-5.3,16,16,0,0,1-3.27-3.78h0a0,0,0,0,0,0,0,.82.82,0,0,0,0-.11,1.38,1.38,0,0,1-.09-.23h0c-.06-.16-.13-.36-.2-.6a3.85,3.85,0,0,1-.16-.48,2.29,2.29,0,0,1-.08-.28.25.25,0,0,1,0-.07c0-.13-.07-.26-.1-.38a1.6,1.6,0,0,1,0-.21,1.46,1.46,0,0,1-.05-.2h0l0-.22c0-.06,0-.13,0-.2h0c0-.15,0-.3-.07-.46a.76.76,0,0,1,0-.21,2.17,2.17,0,0,1,0-.25,12798544147806.55,12798544147806.55,0,0,1-.06-.72c0-.16,0-.32,0-.49s0-.31,0-.47h0c0-.16,0-.31,0-.47s0-.09,0-.13a.07.07,0,0,1,0,0,.77.77,0,0,1,0-.15,3,3,0,0,1,.07-.32c.42-1.85,1.68-3.44,4.67-3.83l.55-.05h.18s2.52-.25,7.45-.25h3.2l1.19,0,.62,0h.13l.76,0,.87,0,.88,0,.7,0,.31,0,.56,0,.57,0h0l2.22.13h.28l1.31.09,1,.07c2.32.17,4.82.4,7.49.67,3.7.38,7.74.86,12.1,1.49s9.05,1.38,14.06,2.3c4.41.81,9.06,1.74,14,2.82h0l.07,0h.07l.16.06.09,0,.16.06.29.12h0l.33.14.07,0,.54.25.16.08.26.13h0l.45.24.47.26.1.06c.21.11.42.24.64.37l.67.43c.33.23.68.47,1,.73l.36.28.4.32c.47.39.93.8,1.4,1.25l.3.3a6.51,6.51,0,0,1,.51.54l.39.44.13.15c.16.18.3.37.45.55l0,0c.15.2.31.4.45.61l.22.31.21.32c.33.5.63,1,.92,1.56.11.21.21.42.31.63s.17.37.25.57.17.37.24.57l.21.56c.07.19.13.39.2.58a.19.19,0,0,0,0,.07c0,.15.09.31.14.46s.09.33.13.5l.15.6c0,.18.08.36.11.54v0c0,.19.08.39.11.59s.05.36.08.54,0,.23,0,.34l.06.52,0,.53c0,.17,0,.36,0,.54,0,0,0,.08,0,.24s0,.12,0,.19v.11a.49.49,0,0,1,0,.12s0,.05,0,.08v0h0v0c0,.08,0,.18,0,.29a.91.91,0,0,1,0,.17,2.09,2.09,0,0,1,0,.25.11.11,0,0,1,0,0v.06h0a1.48,1.48,0,0,0,0,.21c0,.21,0,.42,0,.65v0c0,.13,0,.27,0,.41v.06h0c0,.12,0,.25,0,.38s0,.27,0,.41v0c0,.16,0,.33,0,.51C200,76.47,200,77.58,200,78.79Zm20.89-29.88v0a30.08,30.08,0,0,1-10.9-.14q-6.19-1.34-12.4-2.53Q185.3,43.87,173,42.12c-1.32-.19-2.65-.37-4-.54l-.6-.08-3.19-.4-.85-.11c-1.22-.15-2.45-.3-3.68-.43l-2.06-.23-5.27-.58-6.55-.67-.48,0h-.14l-.88-.08-.67-.06-.94-.08-.48,0-.7-.06c-5.89-.47-12.91-.86-12.91-.86-1.72.09-3.76.14-6,.16-3.06,0-6.42,0-9.63,0-7.65-.12-14.47-.39-14.47-.39-.56-.06-1.12-.14-1.71-.22C95.55,37,93.1,36.56,90.58,36c-1.92-.41-3.88-.88-5.82-1.36C74.28,32,64.49,28.72,64.49,28.72c-2.66-.89-5.29-1.69-7.86-2.41h0c-3.71-1-7.32-1.92-10.76-2.65-5-1.07-9.7-1.86-13.85-2.42-3.39-.47-6.43-.79-9-1l-.67-.05c-3.49-.29-6.09-.39-7.53-.43l-1.29,0a2,2,0,0,0-1.92,1.66,14.3,14.3,0,0,0-.32,2.15,32.27,32.27,0,0,0,.16,7.68c.06.27.11.54.19.82a10.47,10.47,0,0,0,.77,2.08c.07.15.15.31.23.46a11.67,11.67,0,0,0,.68,1.1,8.3,8.3,0,0,1,1.24,3.76h0c0,.26.06.5.09.75l0,.38c.2,1.92.43,3.85.68,5.76h0c.23,1.8.5,3.6.79,5.38a158.38,158.38,0,0,0,3.55,16.5c1.94,7.13,5.3,13.39,11.24,18l.25.22.75.61a64.39,64.39,0,0,0,8,5.39h0c1.21.7,2.51,1.39,3.89,2a45.69,45.69,0,0,0,10.45,3.64c.52.11,1.05.21,1.57.29a32.91,32.91,0,0,0,3.28.37h.24l0-.1a22.53,22.53,0,0,0,7.6-5.59h0c.37-.42.73-.84,1.09-1.29a67.78,67.78,0,0,0,8.29-13.62L79.55,87a92.91,92.91,0,0,0,8.39-17.57,42.16,42.16,0,0,0,2.3-7.17,5.58,5.58,0,0,0,.1-.59c0-.15,0-.29.07-.45h0l0-.24V61c0-.14,0-.29,0-.43s0-.21,0-.31v0c0-.09,0-.17,0-.25s0-.25,0-.38V59a5.59,5.59,0,0,1,0-.95,2.51,2.51,0,0,1,0-.31c.2-1.06.88-1.39,2.47-1.31A11.28,11.28,0,0,1,96,57a9.21,9.21,0,0,1,3.67,2.16A11,11,0,0,1,101.81,62a.75.75,0,0,1,.06.13,39.13,39.13,0,0,1,2.26,5.29c3,8.55,6,17.09,10.7,24.91,5.46,9,12,16.89,22.08,21.1h0l.46.23a.33.33,0,0,0,.12,0c.2.1.45.21.74.33l.57.23.39.15.35.13h0l.4.15.45.15.44.15.48.16.52.16.54.16c1.12.33,2.42.66,3.89,1l.1,0,.64.13c.8.17,1.64.33,2.54.48l.75.12.9.14c1.1.16,2.26.3,3.48.43l.73.08,1.49.13.76,0c.58,0,1.17.09,1.78.12l1.45.07,1.35,0h4.28l1.55,0,1,0,1,0,.92,0,.94,0,1.21-.08,1-.07.94-.06.43,0,.73-.06.89-.08.89-.08.64-.06.91-.1.65-.07,1.07-.12h0l2.45-.31c8.05-1.58,14.05-5.27,17.81-11.53a26.44,26.44,0,0,0,2.18-4.57h0a31.39,31.39,0,0,0,1-3.15q1.9-7.22,3.26-14.52,1-5.53,1.76-11.13a5.78,5.78,0,0,1,3.74-4.88c1.09-.45,2.21-.84,3.34-1.18,1.33-.41,2.66-.8,4-1.19,0,0,0,0,0,0h0C222,57.2,221.51,52,220.85,48.91ZM76.08,76.06l0,.14c0,.08,0,.16-.08.24l-.21.55,0,.1s0,.07,0,.11a1.46,1.46,0,0,1-.07.19l0,.1-.24.62-.24.61c-.13.33-.27.66-.41,1v0a.59.59,0,0,0,0,.08c-.16.38-.33.75-.5,1.12s-.22.49-.33.73c-.24.48-.47,1-.72,1.43l-.3.57c-.14.25-.27.5-.42.75s-.28.5-.43.74-.22.36-.32.54l-.51.77c-.13.21-.28.42-.42.63l-.06.08-.54.74c-.2.27-.4.53-.62.79l-.27.33-.36.42a2,2,0,0,1-.17.17l-.16.15c-.21.18-.5.44-.89.72l-.23.16-.24.17-.3.19-.37.22a1.92,1.92,0,0,1-.31.18l-.06,0-.24.13-.24.13-.36.17c-.18.09-.37.17-.57.25h0l-.21.08-.35.14-.06,0-.43.15-.44.14-.33.08-.23.06-.39.1-.38.08h0l-.46.07-.13,0-.54.07h0l-.51,0h0l-.3,0h0l-.31,0h-1l-.48,0-.85-.08h-.07l-.41,0L56.27,93c-.18,0-.35-.06-.53-.09l-.64-.14-.71-.18s-.4-.1-1.1-.32l-.43-.13-.3-.1-.49-.16-.21-.08-.09,0-.42-.14-.46-.17c-.6-.21-1.27-.46-2-.74l-.43-.18-.1,0-.79-.34L47,89.93c-.49-.21-1-.44-1.5-.68L45,89c-.51-.24-1-.5-1.57-.78q-.51-.25-1-.54c-.52-.28-1-.58-1.57-.89h0l-.92-.56-.76-.49-.57-.39c-.18-.11-.34-.22-.52-.35l-.52-.37L37,84.27l-.82-.62L35.45,83l-.63-.55-.26-.23-.21-.19,0,0h0s0,0-.05-.05l-.14-.13L34,81.73l-.17-.16-.3-.29L33.28,81l-.49-.5h0l-.12-.14-.13-.14c-.14-.15-.28-.3-.41-.46s-.37-.43-.55-.65l-.1-.13L31,78.35h0l-.37-.51-.37-.55c-.24-.36-.46-.73-.67-1.1l-.21-.37a3,3,0,0,1-.16-.31L28.93,75s-.3-.47-.78-1.42a3,3,0,0,1-.2-.4c-.1-.19-.2-.4-.31-.63s-.37-.79-.57-1.25l0-.09,0,0h0s0,0,0,0L26.91,71c-.23-.53-.47-1.11-.71-1.74l-.34-.87c-.06-.18-.12-.37-.19-.55l0-.07v0c-.07-.19-.14-.38-.2-.58-.18-.49-.35-1-.52-1.55-.06-.2-.13-.39-.19-.6-.38-1.22-.75-2.54-1.1-4l-.18-.73c-.06-.22-.11-.44-.16-.66a.29.29,0,0,0,0-.09c-.06-.25-.11-.5-.17-.76-.11-.52-.23-1-.34-1.6s-.21-1.09-.31-1.64a.09.09,0,0,0,0,0c-.09-.55-.19-1.11-.28-1.68,0-.21-.07-.42-.09-.64a.59.59,0,0,1,0-.14.09.09,0,0,1,0,0,.17.17,0,0,1,0-.07c-.05-.29-.1-.59-.14-.9,0-.06,0-.11,0-.17a2.51,2.51,0,0,1,0-.27c0-.18,0-.36-.07-.55,0-.34-.08-.67-.13-1l-.09-.85c0-.35-.08-.71-.11-1.08-.06-.61-.12-1.22-.17-1.84,0,0,0-.06,0-.08,0-.35-.05-.69-.08-1s-.05-.9-.08-1.36S21,42.86,21,42.41s0-.79-.05-1.18v-.08c0-.23,0-.46,0-.7a2.53,2.53,0,0,0,0-.27c0-.18,0-.37,0-.56,0-.38,0-.76,0-1.14,0-1,0-1.95,0-2.95v-.47a1.7,1.7,0,0,1,0-.22v0a1.28,1.28,0,0,1,0-.19q0-.14,0-.3v0L21,34c0-.1,0-.21.05-.31a.77.77,0,0,1,0-.15c0-.14.06-.3.09-.46s.05-.2.08-.3.06-.22.1-.33l.06-.2s0-.08.05-.12a1.06,1.06,0,0,1,.09-.25,2.77,2.77,0,0,1,.1-.26c0-.05.05-.1.08-.16a2.49,2.49,0,0,1,.16-.33l.18-.33a.16.16,0,0,1,0-.07c0-.09.11-.17.17-.26l.07-.11,0,0,.24-.32h0l.06-.07a2.25,2.25,0,0,1,.21-.24h0c.09-.09.18-.19.28-.28v0l.26-.23.12-.1,0,0,.06-.06.22-.15c.12-.09.25-.17.38-.25s.24-.14.37-.21l.11-.05.13-.07L25,28.2l.11,0,.27-.11.21-.08.31-.1.45-.12.08,0,.09,0,.14,0,.38-.07.21,0,.2,0h0l.22,0h.19c.13,0,.28,0,.43,0a16.53,16.53,0,0,1,3.47.29H32l.26,0,.29,0h.06l.42.05,1,.15h0l.62.1.43.06.34.05.28.05h.07l.45.07.48.08.18,0h.1l.1,0,.11,0h0l.29.06.84.14.46.08.94.17.09,0,.64.11.48.1h.06l.24,0,.54.1.53.11.16,0,.33.07c.92.18,1.89.39,2.88.61l1.27.28c1.11.25,2.27.52,3.46.82.4.09.79.19,1.19.3l1.37.35c1,.27,2.09.57,3.16.87l.27.08.81.23.11,0c.61.18,1.23.36,1.85.56l.16,0,.47.14c.88.27,1.76.55,2.65.85l2,.68,1,.35,1,.36.35.13,1.68.63,1.73.67.31.12.41.17,1,.39,1.36.57,1.36.59h.06l0,0,.06,0a.71.71,0,0,1,.16.07l.11.06.27.15.16.09.16.1.17.11.18.13.07,0,.25.19.27.21.22.18.21.19.21.2.22.22s.1.11.16.16L78,42l.24.29c.12.14.22.29.34.45l.17.23.16.24.15.24.14.23,0,.09,0,.08a.41.41,0,0,0,0,.09l.12.24s0,.1.07.14.13.26.19.39l0,.11c.07.15.13.3.19.46s.15.38.21.57h0a3.82,3.82,0,0,1,.15.48l0,0h0c.05.16.09.3.13.46s0,0,0,0l0,.14a1,1,0,0,1,0,.14h0a0,0,0,0,0,0,0v0h0c0,.17.08.34.11.53h0c0,.22.08.43.11.66s.07.55.1.83,0,.48,0,.73h0c0,.26,0,.52,0,.79,0,.58,0,1.18-.08,1.82a.45.45,0,0,1,0,.08,3.58,3.58,0,0,1,0,.36c0,.06,0,.12,0,.19s0,.29,0,.47,0,.37-.06.59-.08.75-.12,1.19c0,.21-.05.43-.08.65a.41.41,0,0,0,0,.11l-.06.46a2.17,2.17,0,0,0,0,.25c-.1.84-.24,1.79-.39,2.81l-.12.75-.18,1c0,.17,0,.34-.08.52s-.06.34-.1.52c-.07.4-.14.82-.23,1.23s-.22,1.13-.34,1.71c-.09.39-.17.78-.26,1.19l-.15.65c-.06.25-.11.49-.17.74s-.12.5-.19.75a.09.09,0,0,1,0,0c0,.23-.11.47-.17.7-.15.58-.3,1.16-.47,1.74q-.12.47-.27.93c-.08.32-.18.64-.28,1l-.15.48-.15.47-.3.94C76.3,75.41,76.19,75.74,76.08,76.06Z"/>
        <path class="cls-8" d="M79.55,87c-.74,1.15-1.51,2.27-2.34,3.38a21.38,21.38,0,0,1-10.36,7.79,27.43,27.43,0,0,1-7.57.65l0-.1a22.53,22.53,0,0,0,7.6-5.59h0c.37-.42.73-.84,1.09-1.29a67.78,67.78,0,0,0,8.29-13.62Z"/>
      </g>
      <g>
        <path class="cls-3" d="M142.49,38.7c-5.89-.46-12.91-.86-12.91-.86-1.72.09-3.76.14-6,.17a3,3,0,0,0,2.14,1.14c5,.21,10,.49,14.93.69C142,39.89,142.61,39.53,142.49,38.7ZM126.06,23.36A65.59,65.59,0,0,0,83.65,11.2c-20.34,1.15-47.8,4.41-67.86,7.68-.68.15-1,.31-1,.87a.81.81,0,0,0,0,.16l3.13,4.23.15.21L19,25.6,22.23,30h.39c1.1,0,3.08-.2,5.64-.46,1.39-.13,3-.3,4.65-.49l4.36-.49h0c5.51-.63,11.79-1.38,17.61-2.08h0l1.68-.19h0l2.11-.26h0c7.43-.88,13.54-1.58,15.41-1.67a18.45,18.45,0,0,0,5.69-1.47,78.82,78.82,0,0,1,11-3.78c6.52-1.54,12.6-.78,18.17,3.22a50.26,50.26,0,0,1,7,6,57.38,57.38,0,0,1,3.88,4.84,55.16,55.16,0,0,1,11.06-6.06C129.22,25.73,127.55,24.4,126.06,23.36Zm-80.23.3c3.44.73,7.05,1.61,10.76,2.65Z"/>
        <path class="cls-4" d="M208,83.24c.1-1.38.15-2.76.15-4.16a55.87,55.87,0,0,0-10.64-32.87Q185.3,43.87,173,42.12c-1.32-.19-2.65-.37-4-.54l-.6-.08-3.19-.4-.85-.11c-1.22-.15-2.45-.3-3.68-.43l-2.06-.23-5.27-.58-6.55-.67-.48,0h-.14l-.88-.08-.67-.06-.94-.08-.48,0-.7-.06c-5.89-.47-12.91-.86-12.91-.86-1.72.09-3.76.14-6,.16-3.06,0-6.42,0-9.63,0A56.14,56.14,0,0,0,99.69,59.14,11,11,0,0,1,101.81,62l.06.13a39.13,39.13,0,0,1,2.26,5.29c3,8.55,6,17.09,10.7,24.91,5.46,9,12,16.89,22.08,21.1h0l.46.23a.33.33,0,0,0,.12,0c.2.1.45.21.74.33s.36.15.57.23l.39.15.35.13h0l.4.15.45.15.44.15.48.16.52.16.54.16c1.12.33,2.42.66,3.89,1l.1,0,.64.13c.8.17,1.64.33,2.54.48l.75.12.9.14c1.1.16,2.26.3,3.48.43l.73.08,1.49.13.76,0c.58,0,1.17.09,1.78.12l1.45.07,1.35,0h4.28l1.55,0,1,0,1,0,.92,0,.94,0,1.21-.08,1-.07.94-.06.43,0,.73-.06.89-.08.89-.08.64-.06.91-.1.65-.07,1.07-.12h0l2.45-.31c8.05-1.58,14.05-5.27,17.81-11.53.79-1.48,1.52-3,2.18-4.57h0Z"/>
        <path class="cls-5" d="M165.05,118.32h-1.54l-.76,0h-.47l-1.35,0-1.45-.07-1.78-.11-.76-.06-1.49-.13-.73-.07c-1.22-.13-2.38-.28-3.48-.44Z"/>
        <path class="cls-6" d="M165.05,118.32h-1.54l-.76,0h-.47l-1.35,0-1.45-.07-1.78-.11-.76-.06-1.49-.13-.73-.07c-1.22-.13-2.38-.28-3.48-.44l-2.6-6.88L124,45.39h0l-.41-1.1,11.76-4.45,2.29,6.06h0l25.25,66.84h0Z"/>
        <path class="cls-6" d="M181.33,117.32h0l14.24-5.39-2.38-6.3-20.87-55.2h0L169,41.58l-.6-.08-3.19-.4-.85-.1c-1.22-.16-2.45-.3-3.68-.44l-2.06-.23c-1.75-.2-3.51-.39-5.27-.57l-6.55-.68-.48,0h-.14l-.88-.08-.67-.06-.94-.08-.48,0,3,7.88h0l24.9,65.88,2.1,5.55Z"/>
        <path class="cls-7" d="M74.73,39.47C54,30.28,31.82,27.79,31.82,27.79c-11.55-2.1-10.9,7.74-10.9,7.74-.39,26.25,8,39.5,8,39.5C35,87.5,54.39,92.61,54.39,92.61c9.18,2.5,14.43-3.15,14.43-3.15C79.19,77.65,80.89,52.59,80.89,52.59,81.81,42.22,74.73,39.47,74.73,39.47Z"/>
        <path class="cls-7" d="M90.53,60c0,.18,0,.36,0,.55h0c0,.14,0,.29,0,.43V61l0,.24h0c0,.16,0,.3-.07.45a5.58,5.58,0,0,1-.1.59"/>
        <path class="cls-7" d="M90.51,60.21v0c0-.07,0-.15,0-.21v0c0-.13,0-.25,0-.38"/>
        <path class="cls-4" d="M90.58,58.09c0,.55,0,1.09,0,1.63,0-.22,0-.45,0-.68A5.59,5.59,0,0,1,90.58,58.09Z"/>
        <path class="cls-4" d="M90.53,59.72v0Z"/>
        <path class="cls-4" d="M59,98.85h0l.19-.09a22.53,22.53,0,0,0,7.6-5.59h0c.37-.42.73-.84,1.09-1.29a67.78,67.78,0,0,0,8.29-13.62c1.13-2.41,2.18-4.86,3.18-7.33,1.36-3.35,2.85-6.73,2.78-10.43,0-1.63.29-2.34,1.5-2.52a5.84,5.84,0,0,1,1.23,0l5-19.12c-.51-1.06-1.06-2.11-1.65-3.12-11.21-2.64-21.68-5.93-21.68-5.93-2.84-.89-5.65-1.69-8.41-2.41L56.85,27l-1.94-.48h0c-3.66-.89-7.21-1.64-10.6-2.28h0c-4.47-.84-8.65-1.47-12.42-1.95-3.95-.51-7.44-.85-10.36-1.06-.67.47-1.31,1-2,1.48s-1.15.94-1.7,1.44a44.72,44.72,0,0,0-5.1,5.29c-.48.59-.94,1.18-1.39,1.79.06.27.11.54.19.82a10.47,10.47,0,0,0,.77,2.08c.07.15.15.31.23.46a11.67,11.67,0,0,0,.68,1.1,8.3,8.3,0,0,1,1.24,3.76h0c0,.26.06.5.09.75l0,.38c.2,1.92.43,3.85.68,5.76h0L31.13,86.49l8.7,6h0l3.89,2a45.69,45.69,0,0,0,10.45,3.64Z"/>
        <path class="cls-6" d="M76.23,78.26a67.78,67.78,0,0,1-8.29,13.62c-.36.45-.72.87-1.09,1.29h0a22.53,22.53,0,0,1-7.6,5.59l-2.12-5.62L32.91,29.08l-.18-.47,1.37-.52h0l10.2-3.86h0l1.52-.57c3.44.73,7.05,1.61,10.76,2.65h0l.26.67,2.58,6.83h0L75.74,77h0Z"/>
        <path class="cls-6" d="M54.19,98.19a45.69,45.69,0,0,1-10.45-3.64L40.8,86.79h0L21,34.31h0L17.84,26,19,25.6,25.78,23l1.72,4.55.76,2L51.77,91.79h0Z"/>
        <path class="cls-7" d="M186.27,53.25c-45.27-10-69.68-7.62-69.68-7.62-8.9.47-4.46,10.63-4.46,10.63a10.4,10.4,0,0,0,3.28,3.81,25.83,25.83,0,0,1,5.51,5.38c3.28,3,3.41,19.16,3.41,19.16.53,12.73,7.74,18,7.74,18,27.43,19,57.68,5.58,57.68,5.58,12.4-5.52,10-37,10-37C199.2,57.38,186.27,53.25,186.27,53.25Z"/>
        <path class="cls-8" d="M292.89,57.4c-.65-3.95-1-8-2.36-11.93-1.58-4.46-4.36-7.4-9.34-7.79a22.7,22.7,0,0,0-5.27.5c-17.38,2.7-34.49,6.78-51.75,10.15-1.15.22-2.29.43-3.44.6.67,3.11,1.15,8.28,0,15.93a312.79,312.79,0,0,1,41.1-8.7c4.85-.7,9.58-1.27,13.33-5a20.65,20.65,0,0,1,5.85-4c1.1-.5,2.32-.6,2.61.8s.61,2.72.86,4c1,5.51.84,11,.85,16.61,0,2.11.85,3.09,2.91,3.56,2.77.63,5.25-1.4,5.3-4.53A67.91,67.91,0,0,0,292.89,57.4Z"/>
        <path class="cls-8" d="M200,78.79q0,.55,0,1.14v.12c0,.17,0,.35,0,.53s0,.13,0,.19l0,.77a1.34,1.34,0,0,0,0,.2c-.05.91-.1,1.86-.17,2.82,0,.09,0,.18,0,.27,0,.44-.07.88-.11,1.33s-.09.89-.14,1.34c-.09.83-.2,1.66-.32,2.5a.06.06,0,0,0,0,0c-.12.82-.26,1.64-.41,2.46-.13.66-.26,1.32-.41,2l-.24,1c0,.21-.11.42-.16.62a.29.29,0,0,0,0,.09l-.21.72-.18.61-.24.73v0l-.21.58c-.06.19-.13.37-.2.56a.08.08,0,0,1,0,0c-.06.18-.13.35-.2.52s-.15.37-.23.54l-.18.43c-.06.14-.13.28-.2.41s-.12.28-.19.41l-.21.41c-.12.23-.24.46-.37.68s-.19.32-.28.48l-.22.35-.23.34c-.1.14-.2.29-.31.43s-.17.23-.26.34l-.11.15c-.09.12-.18.23-.28.34s-.21.25-.32.37,0,0,0,0h0l-.2.21c-.06.07-.13.13-.2.2s-.23.23-.35.34l-.07.06-.09.08-.26.23-.21.16-.2.16,0,0-.42.29-.34.22-.08,0,0,0-.22.13-.08,0-.18.1-.09,0-.36.17-.09,0-.09,0-.18.08-.11,0-.31.12-.27.11-.67.25-.18.07-.28.1-.39.13-.27.1-.4.13-.17,0-.3.1-.32.11-.82.25-.35.1-.57.17-.78.21-.64.17-.6.16-.12,0-.76.18c-.6.14-1.22.29-1.87.42l-1.42.28c-.59.11-1.19.22-1.81.31l-.74.12-.12,0-.13,0h-.13l-.81.11-1,.12c-.67.08-1.34.16-2,.21l-1.31.11h-.08l-1.43.08-1.14.05h-3l-1.2,0h-.08l-.73,0h-.3l-.59,0-2-.15-.11,0c-.49,0-1-.1-1.5-.16l-.78-.11c-.24,0-.48-.06-.73-.1l-.76-.12-.56-.09-.07,0-.58-.1c-1.21-.22-2.43-.49-3.66-.8q-.47-.11-.93-.24l-.93-.26-1-.3-1-.32-.91-.31-.08,0-.89-.32-.56-.22-.76-.29-1-.4c-.34-.15-.68-.29-1-.45l-.09,0-.65-.3-.06,0-.56-.27-.74-.35-1-.49-.06,0-.89-.47c-.36-.19-.71-.39-1.07-.6-.72-.41-1.44-.84-2.15-1.29-.26-.16-.52-.32-.77-.5-.46-.29-.91-.6-1.36-.91,0,0-7.22-5.25-7.75-18h0c0-.28.11-10.52-1.88-16.27,0,0,0,0,0-.06a.3.3,0,0,0,0-.1s0,0,0-.05a8.13,8.13,0,0,0-1.46-2.68l0,0,0,0a42.06,42.06,0,0,0-5.45-5.3,16,16,0,0,1-3.27-3.78h0a0,0,0,0,0,0,0,.82.82,0,0,0,0-.11,1.38,1.38,0,0,1-.09-.23h0c-.06-.16-.13-.36-.2-.6a3.85,3.85,0,0,1-.16-.48,2.29,2.29,0,0,1-.08-.28.25.25,0,0,1,0-.07c0-.13-.07-.26-.1-.38a1.6,1.6,0,0,1,0-.21,1.46,1.46,0,0,1-.05-.2h0l0-.22c0-.06,0-.13,0-.2h0c0-.15,0-.3-.07-.46a.76.76,0,0,1,0-.21,2.17,2.17,0,0,1,0-.25,12798544147806.55,12798544147806.55,0,0,1-.06-.72c0-.16,0-.32,0-.49s0-.31,0-.47h0c0-.16,0-.31,0-.47s0-.09,0-.13a.07.07,0,0,1,0,0,.77.77,0,0,1,0-.15,3,3,0,0,1,.07-.32c.42-1.85,1.68-3.44,4.67-3.83l.55-.05h.18s2.52-.25,7.45-.25h3.2l1.19,0,.62,0h.13l.76,0,.87,0,.88,0,.7,0,.31,0,.56,0,.57,0h0l2.22.13h.28l1.31.09,1,.07c2.32.17,4.82.4,7.49.67,3.7.38,7.74.86,12.1,1.49s9.05,1.38,14.06,2.3c4.41.81,9.06,1.74,14,2.82h0l.07,0h.07l.16.06.09,0,.16.06.29.12h0l.33.14.07,0,.54.25.16.08.26.13h0l.45.24.47.26.1.06c.21.11.42.24.64.37l.67.43c.33.23.68.47,1,.73l.36.28.4.32c.47.39.93.8,1.4,1.25l.3.3a6.51,6.51,0,0,1,.51.54l.39.44.13.15c.16.18.3.37.45.55l0,0c.15.2.31.4.45.61l.22.31.21.32c.33.5.63,1,.92,1.56.11.21.21.42.31.63s.17.37.25.57.17.37.24.57l.21.56c.07.19.13.39.2.58a.19.19,0,0,0,0,.07c0,.15.09.31.14.46s.09.33.13.5l.15.6c0,.18.08.36.11.54v0c0,.19.08.39.11.59s.05.36.08.54,0,.23,0,.34l.06.52,0,.53c0,.17,0,.36,0,.54,0,0,0,.08,0,.24s0,.12,0,.19v.11a.49.49,0,0,1,0,.12s0,.05,0,.08v0h0v0c0,.08,0,.18,0,.29a.91.91,0,0,1,0,.17,2.09,2.09,0,0,1,0,.25.11.11,0,0,1,0,0v.06h0a1.48,1.48,0,0,0,0,.21c0,.21,0,.42,0,.65v0c0,.13,0,.27,0,.41v.06h0c0,.12,0,.25,0,.38s0,.27,0,.41v0c0,.16,0,.33,0,.51C200,76.47,200,77.58,200,78.79Zm20.89-29.88v0a30.08,30.08,0,0,1-10.9-.14q-6.19-1.34-12.4-2.53Q185.3,43.87,173,42.12c-1.32-.19-2.65-.37-4-.54l-.6-.08-3.19-.4-.85-.11c-1.22-.15-2.45-.3-3.68-.43l-2.06-.23-5.27-.58-6.55-.67-.48,0h-.14l-.88-.08-.67-.06-.94-.08-.48,0-.7-.06c-5.89-.47-12.91-.86-12.91-.86-1.72.09-3.76.14-6,.16-3.06,0-6.42,0-9.63,0-7.65-.12-14.47-.39-14.47-.39-.56-.06-1.12-.14-1.71-.22C95.55,37,93.1,36.56,90.58,36c-1.92-.41-3.88-.88-5.82-1.36C74.28,32,64.49,28.72,64.49,28.72c-2.66-.89-5.29-1.69-7.86-2.41h0c-3.71-1-7.32-1.92-10.76-2.65-5-1.07-9.7-1.86-13.85-2.42-3.39-.47-6.43-.79-9-1l-.67-.05c-3.49-.29-6.09-.39-7.53-.43l-1.29,0a2,2,0,0,0-1.92,1.66,14.3,14.3,0,0,0-.32,2.15,32.27,32.27,0,0,0,.16,7.68c.06.27.11.54.19.82a10.47,10.47,0,0,0,.77,2.08c.07.15.15.31.23.46a11.67,11.67,0,0,0,.68,1.1,8.3,8.3,0,0,1,1.24,3.76h0c0,.26.06.5.09.75l0,.38c.2,1.92.43,3.85.68,5.76h0c.23,1.8.5,3.6.79,5.38a158.38,158.38,0,0,0,3.55,16.5c1.94,7.13,5.3,13.39,11.24,18l.25.22.75.61a64.39,64.39,0,0,0,8,5.39h0c1.21.7,2.51,1.39,3.89,2a45.69,45.69,0,0,0,10.45,3.64c.52.11,1.05.21,1.57.29a32.91,32.91,0,0,0,3.28.37h.24l0-.1a22.53,22.53,0,0,0,7.6-5.59h0c.37-.42.73-.84,1.09-1.29a67.78,67.78,0,0,0,8.29-13.62L79.55,87a92.91,92.91,0,0,0,8.39-17.57,42.16,42.16,0,0,0,2.3-7.17,5.58,5.58,0,0,0,.1-.59c0-.15,0-.29.07-.45h0l0-.24V61c0-.14,0-.29,0-.43s0-.21,0-.31v0c0-.09,0-.17,0-.25s0-.25,0-.38V59a5.59,5.59,0,0,1,0-.95,2.51,2.51,0,0,1,0-.31c.2-1.06.88-1.39,2.47-1.31A11.28,11.28,0,0,1,96,57a9.21,9.21,0,0,1,3.67,2.16A11,11,0,0,1,101.81,62a.75.75,0,0,1,.06.13,39.13,39.13,0,0,1,2.26,5.29c3,8.55,6,17.09,10.7,24.91,5.46,9,12,16.89,22.08,21.1h0l.46.23a.33.33,0,0,0,.12,0c.2.1.45.21.74.33l.57.23.39.15.35.13h0l.4.15.45.15.44.15.48.16.52.16.54.16c1.12.33,2.42.66,3.89,1l.1,0,.64.13c.8.17,1.64.33,2.54.48l.75.12.9.14c1.1.16,2.26.3,3.48.43l.73.08,1.49.13.76,0c.58,0,1.17.09,1.78.12l1.45.07,1.35,0h4.28l1.55,0,1,0,1,0,.92,0,.94,0,1.21-.08,1-.07.94-.06.43,0,.73-.06.89-.08.89-.08.64-.06.91-.1.65-.07,1.07-.12h0l2.45-.31c8.05-1.58,14.05-5.27,17.81-11.53a26.44,26.44,0,0,0,2.18-4.57h0a31.39,31.39,0,0,0,1-3.15q1.9-7.22,3.26-14.52,1-5.53,1.76-11.13a5.78,5.78,0,0,1,3.74-4.88c1.09-.45,2.21-.84,3.34-1.18,1.33-.41,2.66-.8,4-1.19,0,0,0,0,0,0h0C222,57.2,221.51,52,220.85,48.91ZM76.08,76.06l0,.14c0,.08,0,.16-.08.24l-.21.55,0,.1s0,.07,0,.11a1.46,1.46,0,0,1-.07.19l0,.1-.24.62-.24.61c-.13.33-.27.66-.41,1v0a.59.59,0,0,0,0,.08c-.16.38-.33.75-.5,1.12s-.22.49-.33.73c-.24.48-.47,1-.72,1.43l-.3.57c-.14.25-.27.5-.42.75s-.28.5-.43.74-.22.36-.32.54l-.51.77c-.13.21-.28.42-.42.63l-.06.08-.54.74c-.2.27-.4.53-.62.79l-.27.33-.36.42a2,2,0,0,1-.17.17l-.16.15c-.21.18-.5.44-.89.72l-.23.16-.24.17-.3.19-.37.22a1.92,1.92,0,0,1-.31.18l-.06,0-.24.13-.24.13-.36.17c-.18.09-.37.17-.57.25h0l-.21.08-.35.14-.06,0-.43.15-.44.14-.33.08-.23.06-.39.1-.38.08h0l-.46.07-.13,0-.54.07h0l-.51,0h0l-.3,0h0l-.31,0h-1l-.48,0-.85-.08h-.07l-.41,0L56.27,93c-.18,0-.35-.06-.53-.09l-.64-.14-.71-.18s-.4-.1-1.1-.32l-.43-.13-.3-.1-.49-.16-.21-.08-.09,0-.42-.14-.46-.17c-.6-.21-1.27-.46-2-.74l-.43-.18-.1,0-.79-.34L47,89.93c-.49-.21-1-.44-1.5-.68L45,89c-.51-.24-1-.5-1.57-.78q-.51-.25-1-.54c-.52-.28-1-.58-1.57-.89h0l-.92-.56-.76-.49-.57-.39c-.18-.11-.34-.22-.52-.35l-.52-.37L37,84.27l-.82-.62L35.45,83l-.63-.55-.26-.23-.21-.19,0,0h0s0,0-.05-.05l-.14-.13L34,81.73l-.17-.16-.3-.29L33.28,81l-.49-.5h0l-.12-.14-.13-.14c-.14-.15-.28-.3-.41-.46s-.37-.43-.55-.65l-.1-.13L31,78.35h0l-.37-.51-.37-.55c-.24-.36-.46-.73-.67-1.1l-.21-.37a3,3,0,0,1-.16-.31L28.93,75s-.3-.47-.78-1.42a3,3,0,0,1-.2-.4c-.1-.19-.2-.4-.31-.63s-.37-.79-.57-1.25l0-.09,0,0h0s0,0,0,0L26.91,71c-.23-.53-.47-1.11-.71-1.74l-.34-.87c-.06-.18-.12-.37-.19-.55l0-.07v0c-.07-.19-.14-.38-.2-.58-.18-.49-.35-1-.52-1.55-.06-.2-.13-.39-.19-.6-.38-1.22-.75-2.54-1.1-4l-.18-.73c-.06-.22-.11-.44-.16-.66a.29.29,0,0,0,0-.09c-.06-.25-.11-.5-.17-.76-.11-.52-.23-1-.34-1.6s-.21-1.09-.31-1.64a.09.09,0,0,0,0,0c-.09-.55-.19-1.11-.28-1.68,0-.21-.07-.42-.09-.64a.59.59,0,0,1,0-.14.09.09,0,0,1,0,0,.17.17,0,0,1,0-.07c-.05-.29-.1-.59-.14-.9,0-.06,0-.11,0-.17a2.51,2.51,0,0,1,0-.27c0-.18,0-.36-.07-.55,0-.34-.08-.67-.13-1l-.09-.85c0-.35-.08-.71-.11-1.08-.06-.61-.12-1.22-.17-1.84,0,0,0-.06,0-.08,0-.35-.05-.69-.08-1s-.05-.9-.08-1.36S21,42.86,21,42.41s0-.79-.05-1.18v-.08c0-.23,0-.46,0-.7a2.53,2.53,0,0,0,0-.27c0-.18,0-.37,0-.56,0-.38,0-.76,0-1.14,0-1,0-1.95,0-2.95v-.47a1.7,1.7,0,0,1,0-.22v0a1.28,1.28,0,0,1,0-.19q0-.14,0-.3v0L21,34c0-.1,0-.21.05-.31a.77.77,0,0,1,0-.15c0-.14.06-.3.09-.46s.05-.2.08-.3.06-.22.1-.33l.06-.2s0-.08.05-.12a1.06,1.06,0,0,1,.09-.25,2.77,2.77,0,0,1,.1-.26c0-.05.05-.1.08-.16a2.49,2.49,0,0,1,.16-.33l.18-.33a.16.16,0,0,1,0-.07c0-.09.11-.17.17-.26l.07-.11,0,0,.24-.32h0l.06-.07a2.25,2.25,0,0,1,.21-.24h0c.09-.09.18-.19.28-.28v0l.26-.23.12-.1,0,0,.06-.06.22-.15c.12-.09.25-.17.38-.25s.24-.14.37-.21l.11-.05.13-.07L25,28.2l.11,0,.27-.11.21-.08.31-.1.45-.12.08,0,.09,0,.14,0,.38-.07.21,0,.2,0h0l.22,0h.19c.13,0,.28,0,.43,0a16.53,16.53,0,0,1,3.47.29H32l.26,0,.29,0h.06l.42.05,1,.15h0l.62.1.43.06.34.05.28.05h.07l.45.07.48.08.18,0h.1l.1,0,.11,0h0l.29.06.84.14.46.08.94.17.09,0,.64.11.48.1h.06l.24,0,.54.1.53.11.16,0,.33.07c.92.18,1.89.39,2.88.61l1.27.28c1.11.25,2.27.52,3.46.82.4.09.79.19,1.19.3l1.37.35c1,.27,2.09.57,3.16.87l.27.08.81.23.11,0c.61.18,1.23.36,1.85.56l.16,0,.47.14c.88.27,1.76.55,2.65.85l2,.68,1,.35,1,.36.35.13,1.68.63,1.73.67.31.12.41.17,1,.39,1.36.57,1.36.59h.06l0,0,.06,0a.71.71,0,0,1,.16.07l.11.06.27.15.16.09.16.1.17.11.18.13.07,0,.25.19.27.21.22.18.21.19.21.2.22.22s.1.11.16.16L78,42l.24.29c.12.14.22.29.34.45l.17.23.16.24.15.24.14.23,0,.09,0,.08a.41.41,0,0,0,0,.09l.12.24s0,.1.07.14.13.26.19.39l0,.11c.07.15.13.3.19.46s.15.38.21.57h0a3.82,3.82,0,0,1,.15.48l0,0h0c.05.16.09.3.13.46s0,0,0,0l0,.14a1,1,0,0,1,0,.14h0a0,0,0,0,0,0,0v0h0c0,.17.08.34.11.53h0c0,.22.08.43.11.66s.07.55.1.83,0,.48,0,.73h0c0,.26,0,.52,0,.79,0,.58,0,1.18-.08,1.82a.45.45,0,0,1,0,.08,3.58,3.58,0,0,1,0,.36c0,.06,0,.12,0,.19s0,.29,0,.47,0,.37-.06.59-.08.75-.12,1.19c0,.21-.05.43-.08.65a.41.41,0,0,0,0,.11l-.06.46a2.17,2.17,0,0,0,0,.25c-.1.84-.24,1.79-.39,2.81l-.12.75-.18,1c0,.17,0,.34-.08.52s-.06.34-.1.52c-.07.4-.14.82-.23,1.23s-.22,1.13-.34,1.71c-.09.39-.17.78-.26,1.19l-.15.65c-.06.25-.11.49-.17.74s-.12.5-.19.75a.09.09,0,0,1,0,0c0,.23-.11.47-.17.7-.15.58-.3,1.16-.47,1.74q-.12.47-.27.93c-.08.32-.18.64-.28,1l-.15.48-.15.47-.3.94C76.3,75.41,76.19,75.74,76.08,76.06Z"/>
        <path class="cls-8" d="M79.55,87c-.74,1.15-1.51,2.27-2.34,3.38a21.38,21.38,0,0,1-10.36,7.79,27.43,27.43,0,0,1-7.57.65l0-.1a22.53,22.53,0,0,0,7.6-5.59h0c.37-.42.73-.84,1.09-1.29a67.78,67.78,0,0,0,8.29-13.62Z"/>
      </g>
    </g>
  </g>
</svg>
