<svg id="Layer_1" data-name="Layer 1" xmlns="http://www.w3.org/2000/svg" width="227.97" height="292.81" viewBox="0 0 227.97 292.81">
  <defs>
    <style>
      .cls-1 {
        opacity: 0.5;
      }

      .cls-2 {
        fill: #fff;
      }

      .cls-3 {
        fill: #f59247;
      }

      .cls-4 {
        fill: #f8ac66;
      }

      .cls-5 {
        fill: #7d7d7d;
      }

      .cls-6 {
        fill: #4a4a4a;
      }

      .cls-7 {
        fill: #5c5c5c;
      }

      .cls-8 {
        fill: #858585;
      }

      .cls-9 {
        fill: #999;
      }

      .cls-10 {
        fill: #616161;
      }

      .cls-11 {
        fill: none;
        stroke: #737373;
        stroke-miterlimit: 10;
        stroke-width: 2px;
      }

      .cls-12 {
        fill: #3d3d3d;
      }

      .cls-13 {
        fill: #4d4d4d;
      }
    </style>
  </defs>
  <g>
    <path class="cls-1" d="M193.29,289.42c-41,0-72.34-56.34-73.66-58.74a8,8,0,0,1-.77-5.71,8.25,8.25,0,0,1,.59-1.71l1.71-3.62a7.92,7.92,0,0,1,2.75-3.21l13.86-9.37a8.25,8.25,0,0,1,1.3-.72c-1.57-2-2.5-3.25-2.52-3.27a8.27,8.27,0,0,1-1.17-2.14L56.17,83.77a11.67,11.67,0,0,1-.84-1.12l-3-4.42c-13.08-1.33-22-4-26.58-7.81C19.23,64.91,11.88,54.17,11.06,53a12.32,12.32,0,0,1,3-17.12L51.7,10.42a11.75,11.75,0,0,1,6.63-2,12.54,12.54,0,0,1,10.16,5.28,3.46,3.46,0,0,1,.22.31c.82,1.21,8.05,12,10.73,20.14,1.86,5.63,1,14.81-2.58,27.33l82.81,122.47a8.07,8.07,0,0,1,1.94,2.21s.82,1.37,2.14,3.62a8.19,8.19,0,0,1,1.41-1.21L179,179.17a8,8,0,0,1,3.42-1.3l3.7-.5a9.43,9.43,0,0,1,1.06-.07,8,8,0,0,1,6.63,3.52l.48.71c2.82,3.58,14.83,19.4,22.65,38.43,11,26.66,9.3,49-4.78,64.48a8.16,8.16,0,0,1-3.15,2.13,45.21,45.21,0,0,1-15.73,2.85ZM38,55.68a18.47,18.47,0,0,0,4.45,1.5,14.91,14.91,0,0,1,1.3-4.49,14.69,14.69,0,0,1,5.07-5.94l.25-.17a14.64,14.64,0,0,1,11.84-2,17.64,17.64,0,0,0,.23-4.5,36.62,36.62,0,0,0-2-4.54L34.58,52.13A37.35,37.35,0,0,0,38,55.68Z"/>
    <path class="cls-2" d="M188.29,284.42c-41,0-72.34-56.34-73.66-58.74a8,8,0,0,1-.77-5.71,8.25,8.25,0,0,1,.59-1.71l1.71-3.62a7.92,7.92,0,0,1,2.75-3.21l13.86-9.37a8.25,8.25,0,0,1,1.3-.72c-1.57-2-2.5-3.25-2.52-3.27a8.27,8.27,0,0,1-1.17-2.14L51.17,78.77a11.67,11.67,0,0,1-.84-1.12l-3-4.42c-13.08-1.33-22-4-26.58-7.81C14.23,59.91,6.88,49.17,6.06,48a12.32,12.32,0,0,1,3-17.12L46.7,5.42a11.75,11.75,0,0,1,6.63-2A12.54,12.54,0,0,1,63.49,8.67a3.46,3.46,0,0,1,.22.31c.82,1.21,8.05,12,10.73,20.14,1.86,5.63,1,14.81-2.58,27.33l82.81,122.47a8.07,8.07,0,0,1,1.94,2.21s.82,1.37,2.14,3.62a8.19,8.19,0,0,1,1.41-1.21L174,174.17a8,8,0,0,1,3.42-1.3l3.7-.5a9.43,9.43,0,0,1,1.06-.07,8,8,0,0,1,6.63,3.52l.48.71c2.82,3.58,14.83,19.4,22.65,38.43,11,26.66,9.3,49-4.78,64.48a8.16,8.16,0,0,1-3.15,2.13,45.21,45.21,0,0,1-15.73,2.85ZM33,50.68a18.47,18.47,0,0,0,4.45,1.5,14.91,14.91,0,0,1,1.3-4.49,14.69,14.69,0,0,1,5.07-5.94l.25-.17a14.64,14.64,0,0,1,11.84-2,17.64,17.64,0,0,0,.23-4.5,36.62,36.62,0,0,0-2-4.54L29.58,47.13A37.35,37.35,0,0,0,33,50.68Z"/>
    <g>
      <g>
        <path class="cls-3" d="M139,193.91,46.78,57.5A6.69,6.69,0,0,1,57.86,50l92.23,136.41Z"/>
        <path class="cls-4" d="M138.78,194.06,46.55,57.66a6.7,6.7,0,0,1,1.79-9.29l96,142Z"/>
      </g>
      <g>
        <polygon class="cls-5" points="167.58 200.66 187.05 187.5 182.19 180.3 178.49 180.8 164.64 190.17 162.93 193.79 167.58 200.66"/>
        <polygon class="cls-5" points="126.33 228.55 145.81 215.38 140.94 208.19 137.25 208.69 123.39 218.05 121.68 221.68 126.33 228.55"/>
        <path class="cls-6" d="M121.64,221.83,152,201.29l30.39-20.55s49.15,59.87,18.82,93.33C158.89,289.75,121.64,221.83,121.64,221.83Z"/>
        <path class="cls-7" d="M121.64,221.83,152,201.29l49.21,72.78C158.89,289.75,121.64,221.83,121.64,221.83Z"/>
        <path class="cls-8" d="M143.85,189.19l5.89-4s27.35,46,27.73,53.69c-7-3.23-39.5-45.74-39.5-45.74Z"/>
        <path class="cls-9" d="M137.91,193.21S170.38,235.73,177.4,239c-10.94-16.5-33.61-49.71-33.61-49.71Z"/>
        <g>
          <circle class="cls-10" cx="150.83" cy="199.51" r="1.63"/>
          <line class="cls-11" x1="149.69" y1="199.31" x2="151.96" y2="199.7"/>
          <line class="cls-11" x1="151.02" y1="198.37" x2="150.63" y2="200.64"/>
        </g>
        <g>
          <circle class="cls-10" cx="146.34" cy="192.86" r="1.63" transform="translate(-28.25 25.14) rotate(-8.96)"/>
          <line class="cls-11" x1="145.2" y1="192.67" x2="147.47" y2="193.06"/>
          <line class="cls-11" x1="146.53" y1="191.73" x2="146.14" y2="194"/>
        </g>
      </g>
      <path class="cls-12" d="M57.08,13.46A4.3,4.3,0,0,0,51.18,12L13.57,37.47a4.31,4.31,0,0,0-.88,6h0A4.31,4.31,0,0,0,18.6,44.9L56.2,19.47a4.3,4.3,0,0,0,.88-6Z"/>
      <path class="cls-12" d="M15.33,41.69l-2.64,1.79c.3.44,7.42,10.93,13.22,15.82s25.59,6.31,27.82,6.44l.18-3.18c-5.74-.35-21.6-2-25.94-5.7C22.5,52.26,15.4,41.8,15.33,41.69Z"/>
      <path class="cls-12" d="M54.44,15.25c.07.1,7.14,10.59,9.38,17.38,1.77,5.39-2.57,20.74-4.39,26.2l3,1c.7-2.11,6.82-20.84,4.38-28.21-2.38-7.21-9.45-17.72-9.75-18.17Z"/>
      <path class="cls-12" d="M57.55,73.82a5.7,5.7,0,0,1-.52-.67L46.56,57.66A6.82,6.82,0,0,1,57.86,50L68.33,65.51a6.65,6.65,0,0,1,.43.73Z"/>
      <path class="cls-13" d="M57.49,73.86l5.61-3.79L48.4,48.34a6.75,6.75,0,0,0-1.9,9.36L57,73.19A7,7,0,0,0,57.49,73.86Z"/>
    </g>
  </g>
</svg>
