<svg id="Layer_1" data-name="Layer 1" xmlns="http://www.w3.org/2000/svg" width="257.87" height="249.87" viewBox="0 0 257.87 249.87">
  <defs>
    <style>
      .cls-1 {
        opacity: 0.3;
      }

      .cls-11, .cls-14, .cls-2, .cls-26, .cls-3, .cls-9 {
        fill: none;
      }

      .cls-18, .cls-19, .cls-2, .cls-21, .cls-26, .cls-31, .cls-4 {
        stroke: #000;
      }

      .cls-2, .cls-3 {
        stroke-linejoin: round;
        stroke-width: 15px;
      }

      .cls-3 {
        stroke: #fff;
      }

      .cls-12, .cls-4 {
        fill: #fba96a;
      }

      .cls-13, .cls-14, .cls-15, .cls-16, .cls-18, .cls-19, .cls-20, .cls-21, .cls-23, .cls-26, .cls-31, .cls-4, .cls-5, .cls-6, .cls-8, .cls-9 {
        stroke-miterlimit: 10;
      }

      .cls-14, .cls-15, .cls-18, .cls-20, .cls-21, .cls-4 {
        stroke-width: 0.5px;
      }

      .cls-5, .cls-6 {
        fill: #f29e64;
      }

      .cls-13, .cls-14, .cls-15, .cls-16, .cls-20, .cls-23, .cls-5, .cls-6, .cls-8, .cls-9 {
        stroke: #892929;
      }

      .cls-13, .cls-16, .cls-19, .cls-23, .cls-5, .cls-8, .cls-9 {
        stroke-width: 0.75px;
      }

      .cls-7 {
        fill: #3d0000;
      }

      .cls-25, .cls-31, .cls-8 {
        fill: #fff;
      }

      .cls-10, .cls-15, .cls-16 {
        fill: #fec400;
      }

      .cls-13 {
        fill: #f4904d;
      }

      .cls-17, .cls-18, .cls-20 {
        fill: #fba15c;
      }

      .cls-19, .cls-21, .cls-24 {
        fill: #e0000c;
      }

      .cls-22 {
        fill: #c10517;
      }

      .cls-23 {
        fill: #6d4429;
      }

      .cls-26 {
        stroke-width: 0.33px;
      }

      .cls-27 {
        fill: #d1342d;
      }

      .cls-28 {
        fill: #e56f4b;
      }

      .cls-29 {
        fill: #3b0202;
      }

      .cls-30 {
        fill: #ff8a66;
      }

      .cls-31 {
        stroke-width: 0.31px;
      }
    </style>
  </defs>
  <g>
    <g class="cls-1">
      <path class="cls-2" d="M163.8,133.89s0,0,0-.08A.25.25,0,0,0,163.8,133.89Z"/>
      <path class="cls-2" d="M238.77,220.28c-.34-.89-.69-1.76-1-2.62a185.67,185.67,0,0,0-13.15-27.06h0c.7-7.14-1.59-18.94-2-21l-.06-.32-3.35-1.53s-10.94-2-16-3.47a109.35,109.35,0,0,0-14.91-2.8c-5.52-.81-2.18-.81-4.61-1.85-1.91-.82-8.61-.94-11.67-1l-.19.36a8.4,8.4,0,0,1-1.7,1.66c-1.86-.53-4.36-1.49-5.71-2a11.2,11.2,0,0,0-.34-1.69c-2.7-2.49-7.75-3.84-10.72-4.19a2.8,2.8,0,0,0,0-.42c-.11-1.1-1.81-2.55-3.71-3.22-2.49-5-2.16-11.55-1.72-15.13,8-3.65,18.56-10.9,20.6-24.17a32.58,32.58,0,0,1-.87-4.11,32.24,32.24,0,0,0,.82,3.78,32.82,32.82,0,0,0,1.14,3.38c11.16,10.28,11.47,21.62,9,25.4s-17,6.93-14.85-4.67c-.47.26-5.13.46-4.73,7.05.79,5.89,20,5.89,24.61-2.82,3.7-6.59-5.8-16.88-7-18-1.52-.91-4.16-4.43-4-12.67l.22.14.07.18h0c3.41,2.07,7.24-3.22,6.95-3.6,3.53-.75,8.35-16.93,1.39-18.85a8.72,8.72,0,0,0-2.44-.32c15.16-23.94-2.16-47.4-1.64-47.22,5.27-7.6-5.26-26.92-39.59-26.33-63,7.68-62.77,44.23-56.65,66.06-1.74-2.07-3.74-4.24-4.73-4.36-1.85.42-1.22,3.24-.7,4.84-2.62-1.81-7-3.1-5.85,1.19a7.47,7.47,0,0,0,4.07,4.42c-2.78.27-6.53,1.47-5.09,3.23,1.3,1.56,6.08.7,8.15.47-11.35,10.07,1,19,2,19.6a3.14,3.14,0,0,1,.9,1.14c-2.68.06-7.74.12-8.79-.49.06,0,.45,8.62,9.6,4.45-9.87,5.69-8.13,16.89-.77,21.1,18.28,5,20-4.76,20.1-9.4.63.78,1.3,1.55,2,2.31h0c.62,2.76,1.89,10.14-2,10.5-4.55-.07-8.39,1.47-8.14,6.51s6,4.41,6,4.41-4.15-5.75-1.28-7.66c3.33-3.47,11,4.62,10.18-9.47a37.3,37.3,0,0,0,6.84,4.13c.48,3.59,1,11.08-1.76,16.66-1.75.26-4.66,1.24-4.22,4.87-.26.16-.53.33-.81.48-.67-.75-2-2.19-2-2-4.46-.21-9.63,4.27-12.18,6.17l-.09.06c-2.11,1.56-7.75,1.81-9.71,2l-.41-.13.4.13-.37,0,0-.16a18.93,18.93,0,0,0-13.7,1.29c-.25.17-12.77-.74-23.13,11.44-.05.06-12.69,22.31-21.59,41.4-4.84,10.39-8.58,19.86-8.58,24.3H248.83C246.73,235.89,241.42,224.13,238.77,220.28ZM131.94,187.23a28.14,28.14,0,0,1,0,4.51A26,26,0,0,1,131.94,187.23Zm40.7-95.1c0,.09,0,.15.05.19a20.86,20.86,0,0,0-.31,13.84A20.81,20.81,0,0,1,172.64,92.13Z"/>
    </g>
    <g>
      <path class="cls-3" d="M158.8,129.89s0,0,0-.08A.25.25,0,0,0,158.8,129.89Z"/>
      <path class="cls-3" d="M233.77,216.28c-.34-.89-.69-1.76-1-2.62a185.67,185.67,0,0,0-13.15-27.06h0c.7-7.14-1.59-18.94-2-21l-.06-.32-3.35-1.53s-10.94-2-16-3.47a109.35,109.35,0,0,0-14.91-2.8c-5.52-.81-2.18-.81-4.61-1.85-1.91-.82-8.61-.94-11.67-1l-.19.36a8.4,8.4,0,0,1-1.7,1.66c-1.86-.53-4.36-1.49-5.71-2a11.2,11.2,0,0,0-.34-1.69c-2.7-2.49-7.75-3.84-10.72-4.19a2.8,2.8,0,0,0,0-.42c-.11-1.1-1.81-2.55-3.71-3.22-2.49-5-2.16-11.55-1.72-15.13,8-3.65,18.56-10.9,20.6-24.17a32.58,32.58,0,0,1-.87-4.11,32.24,32.24,0,0,0,.82,3.78,32.82,32.82,0,0,0,1.14,3.38c11.16,10.28,11.47,21.62,9,25.4s-17,6.93-14.85-4.67c-.47.26-5.13.46-4.73,7.05.79,5.89,20,5.89,24.61-2.82,3.7-6.59-5.8-16.88-7-18-1.52-.91-4.16-4.43-4-12.67l.22.14.07.18h0c3.41,2.07,7.24-3.22,6.95-3.6,3.53-.75,8.35-16.93,1.39-18.85a8.72,8.72,0,0,0-2.44-.32c15.16-23.94-2.16-47.4-1.64-47.22,5.27-7.6-5.26-26.92-39.59-26.33-63,7.68-62.77,44.23-56.65,66.06-1.74-2.07-3.74-4.24-4.73-4.36-1.85.42-1.22,3.24-.7,4.84-2.62-1.81-7-3.1-5.85,1.19a7.47,7.47,0,0,0,4.07,4.42c-2.78.27-6.53,1.47-5.09,3.23,1.3,1.56,6.08.7,8.15.47-11.35,10.07,1,19,2,19.6a3.14,3.14,0,0,1,.9,1.14c-2.68.06-7.74.12-8.79-.49.06,0,.45,8.62,9.6,4.45-9.87,5.69-8.13,16.89-.77,21.1,18.28,5,20-4.76,20.1-9.4.63.78,1.3,1.55,2,2.31h0c.62,2.76,1.89,10.14-2,10.5-4.55-.07-8.39,1.47-8.14,6.51s6,4.41,6,4.41-4.15-5.75-1.28-7.66c3.33-3.47,11,4.62,10.18-9.47a37.3,37.3,0,0,0,6.84,4.13c.48,3.59,1,11.08-1.76,16.66-1.75.26-4.66,1.24-4.22,4.87-.26.16-.53.33-.81.48-.67-.75-2-2.19-2-2-4.46-.21-9.63,4.27-12.18,6.17l-.09.06c-2.11,1.56-7.75,1.81-9.71,2l-.41-.13.4.13-.37,0,0-.16a18.93,18.93,0,0,0-13.7,1.29c-.25.17-12.77-.74-23.13,11.44-.05.06-12.69,22.31-21.59,41.4-4.84,10.39-8.58,19.86-8.58,24.3H243.83C241.73,231.89,236.42,220.13,233.77,216.28ZM126.94,183.23a28.14,28.14,0,0,1,0,4.51A26,26,0,0,1,126.94,183.23Zm40.7-95.1c0,.09,0,.15.05.19a20.86,20.86,0,0,0-.31,13.84A20.81,20.81,0,0,1,167.64,88.13Z"/>
    </g>
    <g>
      <path class="cls-4" d="M166.52,84c-2.18-8.3-6.54-26.5-5.66-38.21,0,.25-7.24-1.17-9.69-4.52.13.13-68.27-5-61.8,49.55l-.07-.06c-.89-.81-8.28-3.67-10-7.82a9.29,9.29,0,0,0-4.13.74c-7.31,3-5,15.18,5,19.52a8.22,8.22,0,0,0,6.32.83,47.84,47.84,0,0,0,8.26,15.35c.63.78,1.3,1.55,2,2.31h0A40.31,40.31,0,0,0,101.5,126a37.3,37.3,0,0,0,6.84,4.13c6.54,3,14.86,4.57,25.41,3.07a49.83,49.83,0,0,0,9.12-3.21c8-3.65,18.56-10.9,20.6-24.17C160.27,94.44,164.61,86.67,166.52,84ZM86.13,102.84a3.1,3.1,0,0,1-2.58,1.31,2.76,2.76,0,1,1,3-2.75A2.56,2.56,0,0,1,86.13,102.84Zm47.1-12a2.74,2.74,0,1,1-2.74,2.74A2.74,2.74,0,0,1,133.23,90.79ZM97.32,77.64c0-4.89,4.63-8.84,10.33-8.84s10.33,4,10.33,8.84-4.62,8.84-10.33,8.84S97.32,82.52,97.32,77.64Zm47.78,8.84c-5.72,0-10.34-4-10.34-8.84s4.62-8.84,10.34-8.84,10.33,4,10.33,8.84S150.8,86.48,145.1,86.48Z"/>
      <path class="cls-5" d="M142.48,236.62H127.8s-1-12.26,0-15c.67-8.16-.19-14.62,0-15.09-1.14-5.22-1-11.29,1-9.48l0,0a22.44,22.44,0,0,0-1.07-3.83,20.93,20.93,0,0,1-.86-5.48v0a28.14,28.14,0,0,0,0-4.51h0a5.6,5.6,0,0,1,.17-1c.19-.7,1,.18,2.15,1.91-.28-1.65-.8-4.32-.32-5.89a1.56,1.56,0,0,1,2-1.22l0,0c1.19,1.2,3.42,5.68,5.49,10.79a96.67,96.67,0,0,1,4,11.75,26.82,26.82,0,0,1,.73,3.78c.34,3.1.84,9.37,1.17,15.82A142.22,142.22,0,0,1,142.48,236.62Z"/>
      <path class="cls-6" d="M126.94,183.23a26,26,0,0,0,0,4.51v0a21.24,21.24,0,0,1-.87,5.48,22.44,22.44,0,0,0-1.07,3.83l0,0c2-1.81,2.18,4.26,1,9.48.19.47-.67,6.93,0,15.09,1,2.75,0,15,0,15H111.39a132.11,132.11,0,0,1,.07-16.15c.21-4.54.52-9.07.81-12.57.14-1.83.29-3.38.41-4.51.48-4.53,3.58-13.21,6.39-19.43,1.54-3.42,3-6.09,3.86-6.93,1.91-.35,2.28,1.41,2.18,3.43a31.58,31.58,0,0,1-.5,3.68c1.12-1.73,2-2.61,2.16-1.91a6.7,6.7,0,0,1,.17,1Z"/>
      <path class="cls-7" d="M173.68,80.82l-.25.38a49.62,49.62,0,0,1-5.73,7.18c0-.07-.48-1.72-1.18-4.41-2.18-8.3-6.54-26.5-5.66-38.21,0,.25-7.24-1.17-9.69-4.52.13.13-68.27-5-61.8,49.55l-.07-.06c-.89-.81-8.28-3.67-10-7.82-.52-1.22-1.06-2.59-1.59-4.07-.62-1.74-1.24-3.64-1.82-5.67h0C69.77,51.33,69.58,14.78,132.54,7.1c34.33-.59,44.86,18.73,39.59,26.33C171.61,33.25,189,56.82,173.68,80.82Z"/>
      <ellipse class="cls-8" cx="107.65" cy="77.64" rx="10.33" ry="8.84"/>
      <ellipse class="cls-7" cx="107.61" cy="76.95" rx="5.88" ry="5.97"/>
      <path class="cls-8" d="M155.43,77.64c0,4.88-4.63,8.84-10.33,8.84s-10.34-4-10.34-8.84,4.62-8.84,10.34-8.84S155.43,72.75,155.43,77.64Z"/>
      <ellipse class="cls-7" cx="145.05" cy="76.95" rx="5.88" ry="5.97"/>
      <path class="cls-9" d="M88.37,103.17a6.67,6.67,0,0,1-1.9.83"/>
      <path class="cls-9" d="M86.47,87.53S84,83.22,79.3,82.91"/>
      <path class="cls-9" d="M86.13,102.84c0-.19-.07-.29-.07-.29"/>
      <path class="cls-7" d="M86.47,104a8.22,8.22,0,0,1-6.32-.83c-10-4.34-12.29-16.54-5-19.52a9.29,9.29,0,0,1,4.13-.74c-.52-1.22-1.06-2.59-1.59-4.07a35.62,35.62,0,0,0-3.59,2.25h0a25.76,25.76,0,0,0-2.37,1.85,0,0,0,0,0,0,0c-11.35,10.07,1,19,2,19.6a3.14,3.14,0,0,1,.9,1.14c1,0,1.62,0,1.67,0l.24-.47c6.41.47,1.72,4.57,1.72,4.57a14.19,14.19,0,0,0-2-.54c-.29.16-.58.3-.86.42-9.87,5.69-8.13,16.89-.77,21.1,18.27,5,20-4.76,20.1-9.4A47.84,47.84,0,0,1,86.47,104Zm-2.92,10.28a2.76,2.76,0,1,1,3-2.74A2.9,2.9,0,0,1,83.55,114.28Z"/>
      <path class="cls-10" d="M74.12,81.09a25.76,25.76,0,0,0-2.37,1.85,0,0,0,0,0,0,0c-2.07.23-6.85,1.09-8.15-.47-1.44-1.76,2.31-3,5.09-3.23A20.82,20.82,0,0,0,74.12,81.09Z"/>
      <path class="cls-11" d="M69.48,79.2c-.25,0-.52,0-.8,0"/>
      <path class="cls-11" d="M71.75,82.94a2.54,2.54,0,0,1,.92,0"/>
      <path class="cls-11" d="M71.83,74.83a7,7,0,0,0-1.37-1.18h0"/>
      <path class="cls-11" d="M75.36,81.3l-1.24-.21"/>
      <path class="cls-11" d="M77.21,74.75c-.41-.5-.85-1-1.32-1.58"/>
      <path class="cls-10" d="M77.71,78.84a35.62,35.62,0,0,0-3.59,2.25h0a20.82,20.82,0,0,1-5.44-1.84,7.47,7.47,0,0,1-4.07-4.42c-1.18-4.29,3.23-3,5.85-1.19-.52-1.6-1.15-4.42.7-4.84,1,.12,3,2.29,4.73,4.36h0C76.47,75.2,77.09,77.1,77.71,78.84Z"/>
      <path class="cls-11" d="M70.87,74.75s-.19-.45-.41-1.1h0"/>
      <path class="cls-10" d="M78.22,107.77a14.19,14.19,0,0,0-2-.54c-.29.16-.58.3-.86.42-9.15,4.17-9.54-4.45-9.6-4.45,1,.61,6.11.55,8.79.49,1,0,1.62,0,1.67,0l.24-.47C82.91,103.67,78.22,107.77,78.22,107.77Z"/>
      <path class="cls-7" d="M101.5,126c.86,14.09-6.85,6-10.18,9.47-2.87,1.91,1.28,7.66,1.28,7.66s-5.75.64-6-4.41,3.59-6.58,8.14-6.51c3.91-.36,2.64-7.74,2-10.5Z"/>
      <path class="cls-7" d="M171.59,115.77c-1.52-.91-4.16-4.43-4-12.67a1.58,1.58,0,0,0,.24.15A20.52,20.52,0,0,1,167.68,88l0,0c0-.07-.47-1.72-1.18-4.41-1.9,2.7-6.25,10.47-3,21.81a32.82,32.82,0,0,0,1.14,3.38c11.16,10.28,11.47,21.62,9,25.4s-17,6.93-14.85-4.67c-.47.26-5.13.46-4.73,7.05.79,5.89,20,5.89,24.61-2.82C182.32,127.2,172.82,116.91,171.59,115.77Z"/>
      <path class="cls-12" d="M176.21,81a8.36,8.36,0,0,0-2.53-.32c-.09.13-.17.26-.25.39a48.93,48.93,0,0,1-5.69,7.13,20.59,20.59,0,0,0,.12,15.25h0c3.41,2.07,7.24-3.22,6.95-3.6C178.35,99.07,183.17,82.89,176.21,81Z"/>
      <path class="cls-13" d="M173,98.74c-2.56,2.73-3.7-1.43-3.57-2.21.79-2.06-.36-2.43-1.11-3.14a1.63,1.63,0,0,1-.58-1.12,2.25,2.25,0,0,1,.46-1c1.36-1.88,5.35-4.4,5.65-4.08C177.24,90.75,175.56,96,173,98.74Z"/>
      <path class="cls-9" d="M158.81,129.81s0,.06,0,.08A.25.25,0,0,1,158.81,129.81Z"/>
      <path class="cls-14" d="M119.15,98.08a2.39,2.39,0,0,0,2.39.88c.13,0,3,2.44,7.76.06.12,0,2.23.29,3.16-.94"/>
      <circle class="cls-15" cx="133.23" cy="93.53" r="2.74"/>
      <path class="cls-10" d="M86.58,101.4a2.56,2.56,0,0,1-.45,1.44,3.1,3.1,0,0,1-2.58,1.31,2.76,2.76,0,1,1,3-2.75Z"/>
      <path class="cls-10" d="M86.58,111.54a3,3,0,1,1-3-2.75A2.89,2.89,0,0,1,86.58,111.54Z"/>
      <path class="cls-16" d="M129.26,184.14c-1.12-1.73-2-2.61-2.15-1.91a5.6,5.6,0,0,0-.17,1,6.7,6.7,0,0,0-.17-1c-.19-.7-1,.18-2.16,1.91a31.58,31.58,0,0,0,.5-3.68l3.83-2.21C128.46,179.82,129,182.49,129.26,184.14Z"/>
      <path class="cls-17" d="M150.72,165.81c-4,2.23-11.69,6.62-19.74,11.26l0,0a1.56,1.56,0,0,0-2,1.22l-3.83,2.21c.1-2-.27-3.78-2.18-3.43-.87.84-2.32,3.51-3.86,6.93-6.3,3.65-11.78,6.84-14.64,8.51h0c-6.48-17.83-8.27-38.88-8.27-38.88a13.72,13.72,0,0,0,5.4-1.49c.28-.15.55-.32.81-.48,0,.16,0,.34.08.52,1.07,5.41,10.62,12,16.4,12.87a3.42,3.42,0,0,0-1.91,2.78c0,2.24,3.18,4.06,7.11,4.06s7.11-1.82,7.11-4.06a3.55,3.55,0,0,0-2.13-2.9c4.73-.59,9.64-2,12.74-4.55a18.41,18.41,0,0,0,6.47-10.83,9.61,9.61,0,0,0,1.41.89h0C150.44,152.25,151.79,156.92,150.72,165.81Z"/>
      <path class="cls-18" d="M123.78,161.14c-12.57-.1-18-12.4-18.18-12.72h0a13.15,13.15,0,0,0,1-1.66c2.77-5.58,2.24-13.07,1.76-16.66,6.54,3,14.86,4.57,25.41,3.07a49.83,49.83,0,0,0,9.12-3.21c-.44,3.58-.77,10.11,1.72,15.13.19.39.4.76.62,1.13C145.61,150.57,136.5,161.24,123.78,161.14Z"/>
      <path class="cls-16" d="M148.31,148.72a6.59,6.59,0,0,1-.08.79,18.41,18.41,0,0,1-6.47,10.83c-3.1,2.59-8,4-12.74,4.55a3.55,3.55,0,0,1,2.13,2.9c0,2.24-3.18,4.06-7.11,4.06s-7.11-1.82-7.11-4.06a3.42,3.42,0,0,1,1.91-2.78c-5.78-.91-15.33-7.46-16.4-12.87,0-.18-.06-.36-.08-.52-.44-3.63,2.47-4.61,4.22-4.87a13.15,13.15,0,0,1-1,1.66h0c.15.32,5.61,12.62,18.18,12.72s21.83-10.57,21.43-14.93c-.22-.37-.43-.74-.62-1.13,1.9.67,3.6,2.12,3.71,3.22A2.8,2.8,0,0,1,148.31,148.72Z"/>
      <path class="cls-19" d="M95.5,197.74a311,311,0,0,0-32.18,22.51,102.34,102.34,0,0,0-11.74,11c-15.92-4.78-28-14.56-32.89-19,8.9-19.09,21.54-41.34,21.59-41.4,10.36-12.18,22.88-11.27,23.13-11.44a18.93,18.93,0,0,1,13.7-1.29l0,.16c1.09,6.9,5.56,29.61,18.08,38.73Z"/>
      <path class="cls-18" d="M51.58,231.27a36.65,36.65,0,0,0-4,5.35H10.11c0-4.44,3.74-13.91,8.58-24.3C23.56,216.71,35.66,226.49,51.58,231.27Z"/>
      <path class="cls-9" d="M77.11,158.19l.4.13.32.09"/>
      <path class="cls-16" d="M103.88,212.15c-5,3.79-19.46,14.81-28.42,24.47H47.57a36.65,36.65,0,0,1,4-5.35,102.34,102.34,0,0,1,11.74-11A311,311,0,0,1,95.5,197.74,71.89,71.89,0,0,0,103.88,212.15Z"/>
      <path class="cls-9" d="M63.32,220.25c0-2.67-.14-7-.31-11.94-.46-13.2-1.27-30.49-1.5-30.49"/>
      <path class="cls-9" d="M63,208.31c-4.07-1.81-4.75-20.74-4.75-20.74"/>
      <path class="cls-16" d="M112.27,207.9c-.29,3.5-.6,8-.81,12.57a60.91,60.91,0,0,1-7.58-8.32,71.89,71.89,0,0,1-8.38-14.41l-.28-.66c-7.44-17.31-8-35-7.9-40.81,2.55-1.9,7.72-6.38,12.18-6.17.06-.19,1.38,1.25,2,2a13.72,13.72,0,0,1-5.4,1.49s1.79,21,8.27,38.88h0A60.71,60.71,0,0,0,112.27,207.9Z"/>
      <path class="cls-18" d="M95.22,197.08c-12.52-9.12-17-31.83-18.08-38.73l.37,0c1.95-.18,7.61-.42,9.72-2l.09-.06C87.26,162.12,87.78,179.77,95.22,197.08Z"/>
      <path class="cls-9" d="M77.14,158.35a1.28,1.28,0,0,0-.3.07"/>
      <path class="cls-16" d="M142.36,219.21c-.33-6.45-.83-12.72-1.17-15.82a26.82,26.82,0,0,0-.73-3.78,148.56,148.56,0,0,0,8.63-24.93,78,78,0,0,0,1.63-8.87c1.07-8.89-.28-13.56-1.07-15.41h0a9.61,9.61,0,0,1-1.41-.89,6.59,6.59,0,0,0,.08-.79c3,.35,8,1.7,10.72,4.19a11.2,11.2,0,0,1,.34,1.69,48.2,48.2,0,0,1,.44,5.93C160,171.25,157.82,192.46,142.36,219.21Z"/>
      <path class="cls-20" d="M165.08,156.64c-1.35,1.11-3.32,2.55-5.27,3.89a48.2,48.2,0,0,0-.44-5.93C160.72,155.15,163.22,156.11,165.08,156.64Z"/>
      <path class="cls-11" d="M166.78,157a9.85,9.85,0,0,1-1.7-.37"/>
      <path class="cls-11" d="M159.37,154.6l-1-.39"/>
      <path class="cls-21" d="M217.57,165.58a117.75,117.75,0,0,0-4.34,11.85c-3.19,10-7.9,26.9-14.11,55-.3,1.38-.61,2.78-.93,4.21H142.48a142.22,142.22,0,0,0-.12-17.41c15.46-26.75,17.68-48,17.45-58.68,1.95-1.34,3.92-2.78,5.27-3.89a8.4,8.4,0,0,0,1.7-1.66l.19-.36c3.06,0,9.76.17,11.67,1,2.43,1-.91,1,4.61,1.85a109.35,109.35,0,0,1,14.91,2.8c5.06,1.45,16,3.47,16,3.47l3.35,1.53Z"/>
      <path class="cls-22" d="M219.58,186.6a80.36,80.36,0,0,0-6.35-9.17,117.75,117.75,0,0,1,4.34-11.85C218,167.66,220.28,179.46,219.58,186.6Z"/>
      <path class="cls-14" d="M219.58,186.6c0,.3-.06.6-.11.88"/>
      <path class="cls-4" d="M243.83,236.62H198.19c.32-1.43.63-2.83.93-4.21,6-2.25,21.79-8.77,33.61-18.75.35.86.7,1.73,1,2.62C236.42,220.13,241.73,231.89,243.83,236.62Z"/>
      <path class="cls-21" d="M232.73,213.66c-11.82,10-27.62,16.5-33.61,18.75,6.21-28.08,10.92-45,14.11-55a80.36,80.36,0,0,1,6.35,9.17h0A185.67,185.67,0,0,1,232.73,213.66Z"/>
      <path class="cls-14" d="M209.14,173.31c.16,0,1.65,1.12,4.09,4.12"/>
      <path class="cls-11" d="M156.1,36c-.92-.46-63.24-26.52-76.22,43.2"/>
      <path class="cls-11" d="M156.1,32.29c-.3,0-35.77-30.6-67,7.23"/>
      <path class="cls-11" d="M165.55,32c-.5-.17-5.63-27.31-33.09-22.86"/>
      <path class="cls-11" d="M168.14,32s.69-15.87-11.33-20"/>
      <path class="cls-11" d="M163.75,42.88s6.64,17.44,4.39,35.28"/>
      <path class="cls-11" d="M169.64,42.88A47.21,47.21,0,0,1,172.44,72"/>
      <path class="cls-11" d="M174.9,42.88a46,46,0,0,1,0,24.71"/>
      <path class="cls-9" d="M120,219.23s2.55-19.29,5-22.16"/>
      <path class="cls-9" d="M124.61,184.14h0c-2.65,4.06-6.84,12.77-7.68,16.3-1.2,5-1.68,12.33-2.25,14.8"/>
      <line class="cls-9" x1="124.61" y1="184.15" x2="124.61" y2="184.14"/>
      <path class="cls-16" d="M119.07,184c-2.81,6.22-5.91,14.9-6.39,19.43-.12,1.13-.27,2.68-.41,4.51a60.71,60.71,0,0,1-7.84-15.43C107.29,190.8,112.77,187.61,119.07,184Z"/>
      <path class="cls-9" d="M128.87,197.07c2.46,2.87,5,22.16,5,22.16"/>
      <path class="cls-9" d="M139.19,215.25c-.57-2.47-1-9.77-2.25-14.8-.84-3.53-5-12.24-7.68-16.3h0"/>
      <line class="cls-9" x1="129.26" y1="184.15" x2="129.26" y2="184.14"/>
      <path class="cls-16" d="M150.72,165.81a78,78,0,0,1-1.63,8.87C145.35,178.5,139,185,136.47,187.86c-2.07-5.11-4.3-9.59-5.49-10.79C139,172.43,146.69,168,150.72,165.81Z"/>
      <path class="cls-21" d="M149.09,174.68a148.56,148.56,0,0,1-8.63,24.93,96.67,96.67,0,0,0-4-11.75C139,185,145.35,178.5,149.09,174.68Z"/>
      <path class="cls-21" d="M111.39,236.62H75.46c9-9.66,23.46-20.68,28.42-24.47a60.91,60.91,0,0,0,7.58,8.32A132.11,132.11,0,0,0,111.39,236.62Z"/>
      <path class="cls-23" d="M128.87,197.07l0,0c-2-1.81-2.19,4.26-1,9.48-.19.47.67,6.93,0,15.09-1,2.75,0,15,0,15h-1.73s1-12.26,0-15c-.67-8.16.19-14.62,0-15.09,1.14-5.22,1-11.29-1-9.48l0,0a22.44,22.44,0,0,1,1.07-3.83,21.24,21.24,0,0,0,.87-5.48,20.93,20.93,0,0,0,.86,5.48A22.44,22.44,0,0,1,128.87,197.07Z"/>
      <path class="cls-13" d="M79.26,98.48c2.55,2.73,3.7-1.43,3.57-2.21-1.11-2.86,1.56-2.47,1.69-4.26-.2-1.79-5.75-5.42-6.12-5C75,90.48,76.71,95.75,79.26,98.48Z"/>
      <path class="cls-7" d="M134.76,66.11V63.89S155.89,54.3,160.23,65C160.32,64.73,153,57.62,134.76,66.11Z"/>
      <path class="cls-7" d="M118.65,66.11V63.89S97.51,54.3,93.18,65C93.08,64.73,100.37,57.62,118.65,66.11Z"/>
      <circle class="cls-24" cx="126.94" cy="65.01" r="1.98"/>
      <g>
        <path class="cls-7" d="M155.38,77.64a8.65,8.65,0,0,1,0,.88c-.52-4.47-4.92-8-10.28-8s-9.77,3.49-10.28,8a6.51,6.51,0,0,1-.06-.88c0-4.89,4.63-8.84,10.34-8.84S155.38,72.75,155.38,77.64Z"/>
        <path class="cls-7" d="M157.26,70.81A1.88,1.88,0,0,1,156,73.13l-.26.09a1.81,1.81,0,0,1-2.26-.84,1,1,0,0,1-.08-.3,1.78,1.78,0,0,0,1.65.65,2.56,2.56,0,0,0,.71-.18,2,2,0,0,0,1.34-2A1.17,1.17,0,0,1,157.26,70.81Z"/>
        <path class="cls-7" d="M156.56,70.15c.27.64-.36,1.52-1.4,1.95l-.26.1c-1,.31-1.86.11-2.11-.48a.86.86,0,0,1-.06-.23,1.66,1.66,0,0,0,1.55.37,2.75,2.75,0,0,0,.7-.2c.92-.38,1.51-1.11,1.45-1.71A.63.63,0,0,1,156.56,70.15Z"/>
        <path class="cls-7" d="M158.78,71.59c.35.85-.42,2-1.72,2.51a1.75,1.75,0,0,1-.32.12c-1.2.38-2.35.11-2.67-.66a1.09,1.09,0,0,1-.08-.31,2.08,2.08,0,0,0,1.95.52,3.61,3.61,0,0,0,.88-.24c1.15-.48,1.88-1.41,1.79-2.2A1.06,1.06,0,0,1,158.78,71.59Z"/>
      </g>
      <g>
        <path class="cls-7" d="M97.32,76.32a6.64,6.64,0,0,0,.05.89c.52-4.48,4.92-8,10.28-8s9.77,3.48,10.28,8a6.65,6.65,0,0,0,.06-.89c0-4.88-4.63-8.84-10.34-8.84S97.32,71.44,97.32,76.32Z"/>
        <path class="cls-7" d="M95.44,69.49a1.88,1.88,0,0,0,1.25,2.32,2,2,0,0,0,.26.09,1.8,1.8,0,0,0,2.26-.84,1,1,0,0,0,.08-.3,1.76,1.76,0,0,1-1.65.65,2.25,2.25,0,0,1-.71-.18,2,2,0,0,1-1.34-2A1.43,1.43,0,0,0,95.44,69.49Z"/>
        <path class="cls-7" d="M96.14,68.83c-.27.65.36,1.52,1.4,2l.26.09c1,.31,1.86.11,2.11-.48a.86.86,0,0,0,.06-.23,1.67,1.67,0,0,1-1.55.38,3.27,3.27,0,0,1-.7-.21c-.92-.38-1.52-1.1-1.46-1.71A.82.82,0,0,0,96.14,68.83Z"/>
        <path class="cls-7" d="M93.92,70.28c-.35.84.42,2,1.72,2.51l.32.11c1.19.39,2.35.11,2.67-.66a.82.82,0,0,0,.07-.31,2,2,0,0,1-2,.53,4.24,4.24,0,0,1-.87-.25,2.52,2.52,0,0,1-1.8-2.2A.92.92,0,0,0,93.92,70.28Z"/>
      </g>
      <ellipse class="cls-25" cx="148.7" cy="73.32" rx="2.7" ry="1.3"/>
      <ellipse class="cls-25" cx="110.79" cy="72.66" rx="2.7" ry="1.3"/>
      <path class="cls-26" d="M119.46,123.43a18.44,18.44,0,0,1,15.42,0"/>
      <g>
        <path class="cls-27" d="M141.15,108.56a.84.84,0,0,0-.13.12,14.55,14.55,0,0,1-1.44.64,31.18,31.18,0,0,1-10.69,2.15h-.61c-6-.17-10.61-.77-14.16-2.13-.36-.14-.71-.29-1.05-.44h0l.38.08h0l.74.13a22.77,22.77,0,0,0,7.6.07c6.58-.29,10,.06,10.54,0a14.45,14.45,0,0,0,7.91-.28l.47-.18A3.2,3.2,0,0,0,141.15,108.56Z"/>
        <path class="cls-28" d="M141.26,108.56c-.3.52-.61,1-.93,1.46l0,0,0,0h0c-.19.28-.4.55-.6.8-3.69,4.72-8.16,6-9.64,6a31,31,0,0,1-3.14-.19c-7.46.45-12.61-6.2-13.77-7.84a.35.35,0,0,1,0-.08l.14,0h0c3.67,1.67,8.58,2.39,15.2,2.58a30.2,30.2,0,0,0,12.74-2.79h0Z"/>
        <g>
          <path class="cls-27" d="M114.38,109.28c-.59-.1-1-.18-1.12-.21h0l-.14-.06h0c-.77-.19-1.23.73-1.64.66s-1-1-.43-1.51c.36-.34,1.17-.09,1.76.11A7.89,7.89,0,0,0,114.38,109.28Z"/>
          <path class="cls-28" d="M113.15,109.08c-.45,0-.79.47-1.7,1.23s-1.11.27-1.47-.23a1.76,1.76,0,0,1,0-1.75c.25-.57,1.69-1.22,2.18-.65a6.89,6.89,0,0,0,.61.57c-.59-.2-1.4-.45-1.76-.11-.52.48,0,1.44.43,1.51s.87-.85,1.64-.66h0A.16.16,0,0,0,113.15,109.08Z"/>
        </g>
        <g>
          <path class="cls-27" d="M139.5,109.3c.59-.1,1-.18,1.12-.21h0l.14,0h0c.77-.19,1.23.73,1.64.66s.94-1,.43-1.51-1.17-.09-1.77.11A7.83,7.83,0,0,1,139.5,109.3Z"/>
          <path class="cls-28" d="M140.73,109.1c.45,0,.78.47,1.69,1.23s1.11.27,1.48-.23a1.81,1.81,0,0,0,0-1.76c-.25-.56-1.69-1.21-2.19-.64a4.9,4.9,0,0,1-.61.57c.6-.2,1.4-.45,1.77-.11s0,1.44-.43,1.51-.87-.85-1.64-.66h0Z"/>
        </g>
        <path class="cls-29" d="M139.84,109.4a25.07,25.07,0,0,1-11.2,2.64c-5.91-.24-10.56-1-14.26-2.63,3.55,1.16,8.14,1.67,14.16,1.81h.61A36.06,36.06,0,0,0,139.84,109.4Z"/>
        <path class="cls-30" d="M118.56,111.21s8.59,6.85,16.72,0C135.32,111.17,127.2,115.76,118.56,111.21Z"/>
      </g>
      <g>
        <g>
          <path class="cls-31" d="M99.5,175a3.56,3.56,0,0,0-3.48-.71,3.81,3.81,0,0,0-1.75,1,4,4,0,0,0-2.06.05A3.33,3.33,0,0,0,89.72,178a2.15,2.15,0,0,1-.56-.91c-.45-1.42.63-3,2.41-3.51a4.17,4.17,0,0,1,2.07-.06,3.78,3.78,0,0,1,1.75-1c1.78-.52,3.58.21,4,1.63A2.18,2.18,0,0,1,99.5,175Z"/>
          <path class="cls-31" d="M100,176.79a3.52,3.52,0,0,0-3.47-.72,3.79,3.79,0,0,0-1.75,1.05,4,4,0,0,0-2.07.06,3.33,3.33,0,0,0-2.49,2.52,2.36,2.36,0,0,1-.56-.92c-.45-1.42.63-3,2.42-3.51a4,4,0,0,1,2.06-.05,3.85,3.85,0,0,1,1.75-1.05c1.78-.52,3.59.21,4,1.63A2.09,2.09,0,0,1,100,176.79Z"/>
        </g>
        <g>
          <path class="cls-31" d="M102.15,185.07a3.52,3.52,0,0,0-3.47-.72,3.88,3.88,0,0,0-1.75,1.05,4.06,4.06,0,0,0-2.07.06A3.33,3.33,0,0,0,92.37,188a2.22,2.22,0,0,1-.55-.92c-.45-1.41.63-3,2.41-3.5a4,4,0,0,1,2.06-.06A3.9,3.9,0,0,1,98,182.45c1.78-.52,3.59.22,4,1.63A2.22,2.22,0,0,1,102.15,185.07Z"/>
          <path class="cls-31" d="M102.69,186.81a3.56,3.56,0,0,0-3.48-.71,3.81,3.81,0,0,0-1.75,1.05,4,4,0,0,0-2.06,0,3.33,3.33,0,0,0-2.49,2.52,2.15,2.15,0,0,1-.56-.91c-.45-1.42.63-3,2.41-3.51a4.06,4.06,0,0,1,2.07-.05,3.71,3.71,0,0,1,1.75-1.05c1.78-.52,3.58.21,4,1.63A2.18,2.18,0,0,1,102.69,186.81Z"/>
        </g>
      </g>
      <g>
        <g>
          <path class="cls-31" d="M148.44,176.34a3.54,3.54,0,0,1,3.48-.72,3.9,3.9,0,0,1,1.75,1,4,4,0,0,1,2.06.06,3.33,3.33,0,0,1,2.49,2.52,2.24,2.24,0,0,0,.56-.92c.45-1.42-.63-3-2.41-3.5a4,4,0,0,0-2.07-.06,3.79,3.79,0,0,0-1.75-1.05c-1.78-.52-3.58.21-4,1.63A2.23,2.23,0,0,0,148.44,176.34Z"/>
          <path class="cls-31" d="M147.91,178.08a3.52,3.52,0,0,1,3.47-.71,3.71,3.71,0,0,1,1.75,1,4.06,4.06,0,0,1,2.07.05,3.33,3.33,0,0,1,2.49,2.52,2.32,2.32,0,0,0,.56-.91c.44-1.42-.63-3-2.42-3.51a4,4,0,0,0-2.06-.06,4,4,0,0,0-1.75-1c-1.78-.51-3.59.22-4,1.64A2.17,2.17,0,0,0,147.91,178.08Z"/>
        </g>
        <g>
          <path class="cls-31" d="M145.78,186.37a3.54,3.54,0,0,1,3.48-.72,3.85,3.85,0,0,1,1.75,1,3.92,3.92,0,0,1,2.06.06,3.32,3.32,0,0,1,2.49,2.52,2.24,2.24,0,0,0,.56-.92c.45-1.42-.63-3-2.41-3.51a4,4,0,0,0-2.06,0,3.81,3.81,0,0,0-1.75-1.05c-1.78-.52-3.59.21-4,1.63A2.37,2.37,0,0,0,145.78,186.37Z"/>
          <path class="cls-31" d="M145.25,188.11a3.54,3.54,0,0,1,3.48-.72,3.9,3.9,0,0,1,1.75,1.05,4,4,0,0,1,2.06.06A3.33,3.33,0,0,1,155,191a2.24,2.24,0,0,0,.56-.92c.45-1.42-.63-3-2.41-3.5a4,4,0,0,0-2.07-.06,3.79,3.79,0,0,0-1.75-1c-1.78-.52-3.58.21-4,1.63A2.23,2.23,0,0,0,145.25,188.11Z"/>
        </g>
      </g>
    </g>
  </g>
</svg>
