<svg id="Layer_1" data-name="Layer 1" xmlns="http://www.w3.org/2000/svg" width="385.28" height="171.83" viewBox="0 0 385.28 171.83">
  <defs>
    <style>
      .cls-1 {
        stroke: #000;
        stroke-miterlimit: 10;
        stroke-width: 10px;
        opacity: 0.5;
      }

      .cls-2 {
        fill: none;
        stroke: #fffa4d;
        stroke-linejoin: round;
        stroke-width: 20px;
      }

      .cls-3 {
        fill: #f69757;
      }

      .cls-4 {
        fill: #a46032;
      }

      .cls-5 {
        fill: #de8b51;
      }

      .cls-6 {
        fill: #92562c;
      }

      .cls-7 {
        fill: #211f1f;
      }

      .cls-8 {
        fill: #fff;
      }

      .cls-9 {
        fill: #60412e;
      }

      .cls-10 {
        fill: #785134;
      }
    </style>
  </defs>
  <g>
    <path class="cls-1" d="M378.14,48.9c-.18-2.23-2.45-2.86-3.38-3-1.23-2.23-3.27-4.73-7.33-7.84-4.36-3.33-8.12-6.55-11.68-9.33-.52-.4-1-.78-1.53-1.15-1.63-1.23-3.23-2.36-4.8-3.37-6.41-4.07-12.64-6.18-20.6-4.91-3.28-1.75-6.83-2.86-8.62-1.89s-2.21,3-2,5.44c-.54.32-1.07.68-1.58,1.05-6.05,3.19-16.36,9.13-25,16.6-5.74,5-9.67,6.53-14.34,5.49-2.68-.6-5.62-2.07-9.28-4.24-4.45-2.65-10-6.35-17.45-10.84C226.32,16.32,155.84,15.78,139,33.79c-13.35,14.31-27.11,35.74-27.19,54.55v.22c0,.14,0,.28,0,.42-2.12-.06-7.25-.75-6.45,2.68.29,1.32,3.94,4.54,3,5.49-.68.74-3.19.17-4.06.17-2,0-4.58-.55-6.37.47,0,1.24.38,2.65-.08,3.83-.72,1.91-2.62,1.25-4.25,1.25-1.92,0-3.92-.13-5.84,0-1.56.06-1.82.53-1.8,2s.6,2.82-1.16,3.48a16.8,16.8,0,0,1-4.25.17c-2.79,0-5.6,0-8.4,0-1.8,0-3.59,0-5.4-.06a1.16,1.16,0,0,0-1.46.67c-.95,1.52.3,3.14,1.31,4.14-.53,1.32-1.69,1.57-3.1,1.92a21.84,21.84,0,0,1-5.21.51c-2.25,0-4.52-.16-6.65-.07A34.83,34.83,0,0,0,42.81,117c-1.6.47-3.94.76-5.33,1.74.61,1,2.05,1.14,2.64,2.08a2.56,2.56,0,0,1-.42,2.66c-.62.5-1.59.17-2.34.55a16.28,16.28,0,0,0-2.54,1.63c-1.83,1.55-3.51,3.28-5.93,3.77a20.77,20.77,0,0,0-3.24.89c-2.46.82-5.55,1.29-7.54,3,.47,1,2.34,2.24,1.76,3.56-.48,1-1.87,1.17-2.5,2.2-1.27,2,.47,1.69,1.09,3.27a9.67,9.67,0,0,1,.05,3.48c-.09,1.06-.88,2.47-.46,3.53.59,1.47,2.19,1,3.41,1.39a.47.47,0,0,1,.19.08A14,14,0,0,0,27.14,155c18.51,8.64,62.92,14.79,53,6.15-8.25-7.19-21.62-12.7-25.82-14.3l-.15-.06c-.25-.11-.5-.17-.74-.27a3.87,3.87,0,0,0-.42-.16s-3.73-7.39,13-9.34a78.91,78.91,0,0,1,9.15-.47c13.57,0,27.05-6.67,37.14-13.37,2.42-1.59,4.64-3.19,6.63-4.7,4.16,9.37,11.39,16.55,22.52,16.55,14.31,0,20.54-.39,25.21-1.32s10.27,3.38,7.47,0l-.66-.78,1.28-.23c4.67-.91,10.27,3.38,7.47,0s-4.36-4.6-10.05-4.6-5.82-4.91-2.39-9.22c2.7-3.39,12.57-15.39,14.62-26,11.19-1.54,59.74,8,70.48,13.1a30.59,30.59,0,0,0,5.68,1.93A69.2,69.2,0,0,0,270.76,132c4.7,6.74,14.53,5.23,18.65,4a25.09,25.09,0,0,0,4.59-.25c2.32.36,4.1,1.11,3.9.15a4.69,4.69,0,0,0-.32-.93l.29-.08c3.87-1.21,8.44,1.51,8.13,0a8,8,0,0,0-7.08-5.82c-4.59-.23-8.94-8.83-5.08-15.17,2-3.22,4.55-7.61,6.62-11.15a20.93,20.93,0,0,0,6.11-6.15c8.3-13.23,16.44-23.71,25.59-32.12.44,0,.87,0,1.31,0,0,0,28.5,2.49,36.84-4.31,2.94-2.39,5-4.54,5.83-6.8C377.4,52.93,378.31,50.86,378.14,48.9ZM162.06,73.23h0a3.65,3.65,0,0,1,.69-.4A3.65,3.65,0,0,0,162.06,73.23Zm38.29,9.82a18.17,18.17,0,0,0,2.7,1.4,18.83,18.83,0,0,1-2.71-1.4ZM297,93.15h0a16.48,16.48,0,0,0,4.6-2.67h0A16.52,16.52,0,0,1,297,93.15Zm22.57-33.54h0ZM305,87.19h0c6.94-7.83,11.88-20.36,13.63-25.23h0C316.88,66.83,311.94,79.37,305,87.19Zm51.89-27.33a137.12,137.12,0,0,1-20.62,1h0a137,137,0,0,0,20.61-1c14.79-2.08,16.17-8,16.19-8.15h0C373,51.85,371.65,57.78,356.89,59.86Z"/>
    <path class="cls-2" d="M373,43.79c-.18-2.23-2.45-2.86-3.37-3-1.24-2.23-3.28-4.73-7.33-7.84-4.36-3.33-8.13-6.55-11.69-9.32-.52-.41-1-.79-1.52-1.16-1.64-1.22-3.23-2.35-4.81-3.36-6.41-4.08-12.63-6.18-20.6-4.92-3.28-1.75-6.83-2.86-8.62-1.89s-2.21,3-2,5.44c-.54.33-1.07.68-1.58,1.05-6,3.2-16.35,9.14-25,16.6-5.74,5-9.68,6.53-14.34,5.49-2.69-.6-5.62-2.06-9.28-4.24-4.46-2.64-10-6.35-17.46-10.84-24.27-14.56-94.75-15.1-111.56,2.9C120.58,43,106.82,64.42,106.75,83.23v.22c0,.14,0,.28,0,.42-2.12-.06-7.25-.75-6.45,2.68.29,1.32,3.94,4.54,3,5.49-.68.74-3.19.17-4.06.17-2,0-4.58-.54-6.36.47,0,1.24.37,2.65-.09,3.84-.72,1.9-2.62,1.24-4.24,1.24-1.93,0-3.92-.13-5.85,0-1.55.06-1.82.53-1.79,2s.59,2.83-1.17,3.49a16.79,16.79,0,0,1-4.25.16c-2.79,0-5.59,0-8.4,0q-2.68,0-5.4-.06a1.15,1.15,0,0,0-1.45.67c-1,1.52.29,3.14,1.3,4.14-.53,1.33-1.69,1.58-3.1,1.92a21.79,21.79,0,0,1-5.21.51c-2.25,0-4.51-.15-6.65-.07a35.12,35.12,0,0,0-8.88,1.43c-1.6.47-4,.77-5.34,1.74.61,1,2.05,1.14,2.64,2.08a2.53,2.53,0,0,1-.42,2.67c-.62.5-1.59.16-2.34.54a17.57,17.57,0,0,0-2.54,1.63c-1.83,1.56-3.5,3.28-5.93,3.77a22.27,22.27,0,0,0-3.24.89c-2.46.82-5.55,1.29-7.54,3,.47,1,2.34,2.24,1.76,3.57-.47,1-1.86,1.16-2.5,2.19-1.27,2,.47,1.7,1.1,3.28a9.9,9.9,0,0,1,0,3.48c-.08,1-.88,2.46-.46,3.52.59,1.47,2.19,1,3.42,1.39a.64.64,0,0,1,.19.08A13.86,13.86,0,0,0,22,149.9c18.51,8.64,62.92,14.79,53,6.16-8.25-7.2-21.62-12.71-25.82-14.31l-.15-.06c-.25-.1-.5-.17-.74-.27l-.42-.16s-3.73-7.39,13-9.33a76.8,76.8,0,0,1,9.16-.47c13.57,0,27-6.67,37.13-13.38,2.42-1.59,4.64-3.19,6.63-4.7,4.17,9.37,11.39,16.55,22.52,16.55,14.32,0,20.54-.39,25.21-1.32s10.27,3.38,7.47,0l-.66-.77c.44-.08.87-.15,1.29-.24,4.66-.91,10.27,3.38,7.47,0s-4.36-4.6-10.06-4.6-5.82-4.91-2.39-9.21c2.7-3.39,12.57-15.4,14.62-26.05,11.19-1.54,59.74,8,70.48,13.11a30.48,30.48,0,0,0,5.69,1.92,69,69,0,0,0,10.11,24.11c4.7,6.74,14.53,5.23,18.65,4a25,25,0,0,0,4.59-.26c2.32.36,4.11,1.11,3.9.15a5.29,5.29,0,0,0-.31-.93l.29-.08c3.86-1.21,8.44,1.51,8.12,0a8,8,0,0,0-7.08-5.82c-4.59-.22-8.94-8.83-5.08-15.17,2-3.22,4.55-7.61,6.63-11.15a20.94,20.94,0,0,0,6.11-6.15c8.3-13.22,16.43-23.71,25.59-32.12.43,0,.86,0,1.3,0,0,0,28.51,2.49,36.84-4.31,2.94-2.39,5-4.54,5.83-6.79C372.3,47.82,373.2,45.75,373,43.79ZM157,68.12h0a4.18,4.18,0,0,1,.68-.4A4.18,4.18,0,0,0,157,68.12Zm38.28,9.82a17.4,17.4,0,0,0,2.71,1.4,17.83,17.83,0,0,1-2.71-1.4ZM291.91,88h0a16.19,16.19,0,0,0,4.59-2.67h0A16.83,16.83,0,0,1,291.91,88ZM314.47,54.5ZM299.89,82.09h0c6.94-7.82,11.88-20.36,13.64-25.23h0C311.77,61.73,306.83,74.26,299.89,82.09Zm51.89-27.34a136.92,136.92,0,0,1-20.61,1.06h0a135.81,135.81,0,0,0,20.62-1c14.79-2.08,16.16-8,16.18-8.14h0C367.93,46.74,366.54,52.68,351.78,54.75Z"/>
    <g>
      <path class="cls-3" d="M106.75,83.23c.14-4.74,14.46-52.2,42.74-60.91,28.64-8.82,85.42,1.34,99.43,10.49,4.59,3,9.26,6,13.63,8.43a60.57,60.57,0,0,0,8.57,4.09c5.1,1.89,9.2,2,11.4-.88,5-6.59,28-23.28,28-23.28.77-.49,1.5-1,2.2-1.43-.14-.46-.28-.9-.44-1.36-5.92,3.08-16.75,9.21-25.72,17-5.74,5-9.68,6.53-14.34,5.49-2.69-.6-5.62-2.06-9.28-4.24-4.46-2.64-10-6.35-17.46-10.84-24.27-14.56-94.75-15.1-111.56,2.9C120.58,43,106.82,64.42,106.75,83.23Z"/>
      <path class="cls-3" d="M307.58,22.41c5.13-4.5,17.15-7.09,27.57-3.84a32.69,32.69,0,0,1,6.49,3.17c1.34.8,2.76,1.73,4.22,2.72,4.3,2.92,8.89,6.47,12.93,9.72a67.78,67.78,0,0,1,9.74,9.38,14.74,14.74,0,0,0,2.47.25c-1.08-3-2.69-6.29-8.67-10.88-4.36-3.33-8.13-6.55-11.69-9.32-.52-.41-1-.79-1.52-1.16-1.64-1.22-3.23-2.35-4.81-3.36-8.14-5.18-16-7.2-27.49-3.14A22.2,22.2,0,0,0,307.58,22.41Z"/>
      <path class="cls-4" d="M61,131.91s0,0,0,0a76.8,76.8,0,0,1,9.16-.47c13.57,0,27-6.67,37.13-13.38a121.21,121.21,0,0,0,11.29-8.42c0-1.94,0-3,0-3L116.37,95c-3.87,6.24-17.86,25.68-41.93,27.24a91.81,91.81,0,0,0-13.7,1.84c0,.59-.3,1.32-.62,2.8C59.71,128.74,59.32,130.59,61,131.91Z"/>
      <path class="cls-5" d="M53.24,110.49a1.32,1.32,0,0,0,.27.13c1.71.68,3.33.29,4.13,2.48a32.21,32.21,0,0,0,.59,5.79c.48.79,1,1.6,1.45,2.39.85,1.55,1.13,2.07,1.06,2.84a91.81,91.81,0,0,1,13.7-1.84c24.07-1.56,38.06-21,41.93-27.24l-2-10.57-.08-.06c-.15-.08-.52-.32-1.1-.7A4.48,4.48,0,0,1,112,84a41.32,41.32,0,0,1-5-.14c-1.94,0-7.52-.89-6.69,2.67.29,1.32,3.94,4.54,3,5.49-.68.74-3.19.17-4.06.17-2,0-4.58-.54-6.36.47,0,1.24.37,2.65-.09,3.84-.72,1.9-2.62,1.24-4.24,1.24-1.93,0-3.92-.13-5.85,0-1.55.06-1.82.53-1.79,2s.59,2.83-1.17,3.49a16.79,16.79,0,0,1-4.25.16c-2.79,0-5.59,0-8.4,0q-2.68,0-5.4-.06a1.15,1.15,0,0,0-1.45.67c-1,1.52.29,3.15,1.3,4.14-.53,1.33-1.69,1.58-3.1,1.92A21.79,21.79,0,0,1,53.24,110.49Z"/>
      <path class="cls-6" d="M262.79,95.37c.64,11.17,6.12,23.55,11,30.5s15.14,5.13,19,3.93,8.44,1.51,8.12,0a8,8,0,0,0-7.08-5.82c-4.59-.22-8.94-8.83-5.08-15.17S298.89,91.6,298.89,91.6c2.17-6.66,1.47-10.68-.91-12.78,0,0-2.17,20.82-18.77,25.12-12.86,3.33-14.82-7.52-13.6-14.44C263.76,91.56,262.69,93.6,262.79,95.37Z"/>
      <path class="cls-6" d="M119.15,103.94c3.18,13.13,11.06,25,25.37,25s20.54-.39,25.21-1.32,10.27,3.38,7.47,0-4.36-4.6-10.06-4.6-5.82-4.91-2.39-9.21,18.35-22.41,14.31-34.08c-2.1-6.07-7.48-9.72-12.18-11.84,0,0,16.54,15.77-4,33.2s-45.62,6.86-41.79-14.15C118.49,93,118,99.26,119.15,103.94Z"/>
      <path class="cls-5" d="M106.75,83.23v.22A33.22,33.22,0,0,0,108.1,93c10.88,10.54,47-4.46,47-19.53,0-7.5,4.74-7,12.09-4.38,8.7-1.25,19.29,3.14,28.05,8.84C206.91,85.54,259,89,259,89s17,2.36,31.16-.44,24.08-33.73,24.08-33.73c6-8.44,12.25-12.32,17.73-12.43-3.55-10.62-12.82-23-14.87-25.67l-.42-.53s-1.68.78-4.38,2.19c.16.46.3.9.44,1.36-.7.47-1.43.94-2.2,1.43,0,0-23,16.69-28,23.28-2.2,2.92-6.3,2.77-11.4.88a60.57,60.57,0,0,1-8.57-4.09c-4.37-2.44-9-5.42-13.63-8.43-14-9.15-70.79-19.31-99.43-10.49C121.21,31,106.89,78.49,106.75,83.23Z"/>
      <path class="cls-4" d="M110,99.08l1.08,5.86s0,.54,0,1.51c1.75-1.46,2.77-2.47,2.77-2.47,9.85,12.46,23.1,6.81,30.68,6.81,8.71,0,29.57-17.87,32.67-22.22s60.83,6.67,72.66,12.28,42.25,5.59,51.62-9.34S320,65.12,330.68,56.21c3.45-2.88,3.2-8.09,1.27-13.82-5.48.11-11.7,4-17.72,12.43,0,0-9.93,30.93-24.08,33.73S259,89,259,89s-52.08-3.45-63.75-11c-10.55-1.24-20.62-6.15-28-8.85a16.65,16.65,0,0,0-7.91,3.29c-9.33,7.29,11.21,21.3-13.07,25.74s-35.7,0-35.7,0S110.33,98.47,110,99.08Z"/>
      <path class="cls-4" d="M167.19,69.1c7.43,2.69,17.5,7.6,28.05,8.84C186.48,72.24,175.89,67.85,167.19,69.1Z"/>
      <path class="cls-5" d="M109,93.75l1,5.33c.37-.61.56-1,.56-1s11.43,4.43,35.7,0S150,79.67,159.29,72.38a16.65,16.65,0,0,1,7.91-3.29c-7.36-2.65-12.1-3.11-12.1,4.39C155.1,88.16,120.78,102.79,109,93.75Z"/>
      <path class="cls-4" d="M254.69,96.38c.65,11.17,6.13,23.55,11,30.5s15.15,5.13,19,3.93,8.44,1.51,8.12,0a8,8,0,0,0-7.07-5.82c-4.6-.22-9-8.83-5.08-15.17S290.8,92.61,290.8,92.61c2.16-6.66,1.46-10.68-.92-12.78,0,0-2.17,20.82-18.76,25.12-12.87,3.33-14.83-7.52-13.61-14.44C255.67,92.57,254.59,94.61,254.69,96.38Z"/>
      <path class="cls-4" d="M111.05,105c3.18,13.13,11.06,25,25.37,25s20.54-.39,25.21-1.32,10.27,3.38,7.47,0S164.74,124,159,124s-5.81-4.91-2.39-9.21S175,92.39,171,80.72c-2.1-6.07-7.49-9.72-12.19-11.84,0,0,16.55,15.77-4,33.2s-45.63,6.86-41.8-14.15C110.4,94,109.91,100.27,111.05,105Z"/>
      <path class="cls-5" d="M271.12,105c16.59-4.3,18.76-25.12,18.76-25.12-6.44-5.73-25.2,2.66-32.37,10.68C256.29,97.43,258.25,108.28,271.12,105Z"/>
      <path class="cls-5" d="M154.79,102.08c20.54-17.43,4-33.2,4-33.2a36.67,36.67,0,0,0-8-2.58c-21.45,0-33.06,10.59-37.75,21.63C109.16,108.94,134.25,119.51,154.79,102.08Z"/>
      <path class="cls-5" d="M306.55,52.36c4.07,2.06,14.05,3.26,24.61,3.44a135.81,135.81,0,0,0,20.62-1C366.71,52.65,368,46.6,368,46.6a10.19,10.19,0,0,1,3.29-1.92,6.52,6.52,0,0,0-.26-.87,14.74,14.74,0,0,1-2.47-.25,67.78,67.78,0,0,0-9.74-9.38c-4-3.25-8.63-6.8-12.93-9.72-1.46-1-2.88-1.92-4.22-2.72a32.69,32.69,0,0,0-6.49-3.17c-10.42-3.25-22.44-.66-27.57,3.84h0l0,0C300.29,30.81,298.27,44.2,306.55,52.36Z"/>
      <path class="cls-5" d="M337.68,39.42c1,11.21,12.07,5,14.87,0a13.34,13.34,0,0,1,6.24-5.23c-4-3.26-8.63-6.81-12.93-9.73C341.32,27.65,337.08,32.62,337.68,39.42Z"/>
      <path class="cls-4" d="M325.69,59.35c.86.06,1.76.08,2.67.08,0,0,28.51,2.49,36.84-4.31,4.47-3.64,6.94-6.71,6.06-10.44A10.19,10.19,0,0,0,368,46.6s-1.25,6-16.19,8.15a136.92,136.92,0,0,1-20.61,1.06,14.6,14.6,0,0,1-3.2,2.28C327.27,58.48,326.51,58.91,325.69,59.35Z"/>
      <path class="cls-4" d="M306.55,52.36c3.9,3.87,10.1,6.56,19.14,7,.82-.44,1.58-.87,2.28-1.26a14.6,14.6,0,0,0,3.2-2.28C320.6,55.62,310.62,54.43,306.55,52.36Z"/>
      <path class="cls-5" d="M317.93,28.51c.41-.52.93-1.14,1.55-1.81-4.54-2.84-5-13.48,1-11.61,4.59,1.46,6.63,4,7.34,5.16a25.47,25.47,0,0,1,2.36-1.1c-2.5-3.42-11.81-8.65-15.1-6.87C310.49,14.77,314.67,25.59,317.93,28.51Z"/>
      <path class="cls-7" d="M369.26,40.71s3.54.28,3.77,3.08-1.7,5.83-3.77,4.2S363.39,40,369.26,40.71Z"/>
      <path class="cls-4" d="M319.48,26.7a30.28,30.28,0,0,1,8.35-6.45c-.71-1.13-2.75-3.7-7.34-5.16C314.52,13.22,314.94,23.86,319.48,26.7Z"/>
      <circle class="cls-7" cx="345.82" cy="36.75" r="6.66"/>
      <path class="cls-7" d="M342,37.51a4.63,4.63,0,1,0,4.63-4.62A4.63,4.63,0,0,0,342,37.51Z"/>
      <path class="cls-8" d="M343,33.43a1.64,1.64,0,1,1,1.63,1.63A1.63,1.63,0,0,1,343,33.43Z"/>
      <path class="cls-9" d="M47.94,141.26s-3.73-7.39,13-9.33c0,0,0,0,0,0-1.64-1.32-1.25-3.17-.84-5,.32-1.48.58-2.21.62-2.8C42.59,128,37.11,136.48,47.94,141.26Z"/>
      <path class="cls-10" d="M13.36,137.2a9.9,9.9,0,0,1,0,3.48c-.08,1-.88,2.46-.46,3.52.59,1.47,2.19,1,3.42,1.39a.64.64,0,0,1,.19.08A13.86,13.86,0,0,0,22,149.9c18.51,8.64,62.92,14.79,53,6.16-8.25-7.2-21.62-12.71-25.82-14.31l-.15-.06c-.25-.1-.5-.17-.74-.27l-.42-.16c-10.83-4.78-5.35-13.24,12.8-17.14.07-.77-.21-1.29-1.06-2.84-.49-.79-1-1.6-1.45-2.39a32.21,32.21,0,0,1-.59-5.79c-.8-2.19-2.42-1.8-4.13-2.48a1.32,1.32,0,0,1-.27-.13c-2.25,0-4.51-.15-6.65-.07a35.12,35.12,0,0,0-8.88,1.43c-1.6.47-4,.77-5.34,1.74.61,1,2.05,1.14,2.64,2.08a2.53,2.53,0,0,1-.42,2.67c-.62.5-1.59.16-2.34.54a17.57,17.57,0,0,0-2.54,1.63c-1.83,1.56-3.5,3.28-5.93,3.77a22.27,22.27,0,0,0-3.24.89c-2.46.82-5.55,1.29-7.54,3,.47,1,2.34,2.24,1.76,3.57-.47,1-1.86,1.16-2.5,2.19C11,135.93,12.73,135.62,13.36,137.2Z"/>
    </g>
  </g>
</svg>
