<svg id="Layer_1" data-name="Layer 1" xmlns="http://www.w3.org/2000/svg" width="343.44" height="406.93" viewBox="0 0 343.44 406.93">
  <defs>
    <style>
      .cls-1 {
        fill: #ff0;
      }

      .cls-2 {
        fill: #c79e70;
      }

      .cls-3 {
        fill: #bc8857;
      }

      .cls-4 {
        fill: #8a5d3b;
      }

      .cls-5 {
        fill: #c7ab8f;
      }

      .cls-6 {
        fill: #c3bab1;
      }
    </style>
  </defs>
  <g>
    <g>
      <path class="cls-1" d="M68.76,401.24a20.3,20.3,0,0,1-9.45-2.35,20.61,20.61,0,0,1-7.11,1.28,20.15,20.15,0,0,1-4.77-.58,19.67,19.67,0,0,1-4.75-1.85,20.89,20.89,0,0,1-4.82.56h-.3a19.79,19.79,0,0,1-15-6.7c-.37-.42-.71-.86-1-1.3a21.88,21.88,0,0,1-2.3-.51c-7.32-2.09-12.65-7.58-13.93-14.32a17.88,17.88,0,0,1,1.13-10.16,12.16,12.16,0,0,1,1.68-3.16,19.79,19.79,0,0,1,4.42-4.76l6.22-6.49c1.1-1.18,2.38-2.52,3.81-4l1.06-1.11c.23-.23.46-.46.7-.67,2.66-2.67,5.55-5.46,8.6-8.31a12.37,12.37,0,0,1,2.23-1.65c15.25-8.83,32.56-34.5,35.61-52.81,3.58-21.46,14.22-68.74,28.89-94,.15-.25.3-.49.46-.72C111.36,171,114.54,145,115,141.11V47.25a12.26,12.26,0,0,1,8.57-11.7L192,13.93a11.9,11.9,0,0,1,2.63-1.07l6.16-1.71,15.47-4.89A12.27,12.27,0,0,1,232,19.86c-.15.95-14.95,95.86-14.55,123.05.09,6.1.68,10.51,1.81,13.43,1.41,2.38,4.09,5.45,8.35,9.61l0,0a69.73,69.73,0,0,1,10.57,12.94,55,55,0,0,1,5,10c5.7,14.07,5.32,28.72-1.07,41.3a33,33,0,0,1-4.41,7.14c-.52.71-1.06,1.41-1.63,2.11a13.5,13.5,0,0,1-1.44,1.49l-1.38,1.19c-4.7,4.76-11,10-34.37,27.86l-.5.43c-6.21,5.32-16.6,14.22-22.32,31-.54,1.7-1,3.48-1.45,5.32-.65,4.68-1.08,8.87-1.46,12.58a115.58,115.58,0,0,1-2.48,16.74c-2.71,13.63-12.89,24.77-29.47,32.26a59.45,59.45,0,0,1-6.32,2.54,85.56,85.56,0,0,1-11.3,3.19l-.18.05-3.3,1c-6.42,1.86-7.33,2.21-8.84,3.62a60.81,60.81,0,0,1-4.91,5.42l-.9,1.08a12.13,12.13,0,0,1-2.8,2.5q-1.64,1.06-2.94,1.86a32.12,32.12,0,0,1-7,3.59l-.45.16q-.9.3-1.71.51c-.07,0-.6.15-.73.17a22.84,22.84,0,0,1-5.16.6h-.38C80.47,398.21,75.19,401.24,68.76,401.24Z"/>
      <g>
        <path class="cls-2" d="M127.22,47.25v94.47s-2.84,31.9-17,52.8C97,217.31,86.59,261.71,82.81,284.39s-23.62,51-41.57,61.41C27.07,359,21.72,366.06,21.72,366.06c-3.16,1.38-4.92,4.43-4.41,7.14.63,3.34,4.43,4.56,5.23,4.79,4.17,1.19,7.63-1.56,8-1.86-.08.24-1.4,4.39,1.26,7.46A7.77,7.77,0,0,0,37.73,386a9.76,9.76,0,0,0,7.08-3.18,8.85,8.85,0,0,0,5.57,4.83,8.89,8.89,0,0,0,9.55-4.41c8.82,12.18,17.63,1.68,19.73-2.52,10.08,6.72,22.68-10.49,22.68-10.49s4.2-5.46,17.64-8,37-11.76,39.05-30.65,1.68-47.87,31.91-71,31.49-24.77,36.95-30.65,11.76-26,0-44.51-22.26-13.86-22.67-42.41S219.91,18,219.91,18Z"/>
        <path class="cls-3" d="M219.07,18.8S204,123.35,205.22,139.73c-.08,16.38-.84,20.66,13.85,35s23.31,37.64,7.56,57c-18.27,15.95-31.28,24.77-35.9,29.18-7.35,6.3-21.63,18.27-27.92,42.2-3.57,24.36-1.05,34.22-13.65,45.77-12.39,9-15.12,9.87-29,13.44-13.43,4-14.48,3.36-24.14,15.11-8.4,5.46-9,4.83-12.81,4.62,8-4,17.85-13.85,19.74-19.31s22.88-9.87,29-14.49,18.06-17.63,19.32-31.07,4.2-38.63,21.83-52.91,40.94-40.1,41.15-48.92,3.57-39.26-11.12-54l-3.57-4.4-2.31-2.31.63-130Z"/>
        <path class="cls-4" d="M32.43,374.46a54.67,54.67,0,0,1,7.09-12.65,87.93,87.93,0,0,1,9.56-10.94c1.8-1.63,3.55-3.31,5.47-4.8.94-.76,1.85-1.56,2.83-2.28l2.94-2.13c.5-.35,1-.72,1.49-1.05l1.53-1,3.06-2c2.08-1.22,4.22-2.37,6.34-3.53-2,1.31-4.13,2.52-6.15,3.85l-3,2-1.49,1c-.5.35-1,.73-1.45,1.09l-2.88,2.18c-1,.72-1.86,1.52-2.8,2.28-1.88,1.5-3.61,3.19-5.38,4.82A94.31,94.31,0,0,0,40,362.16c-.73,1-1.47,1.91-2.13,2.91l-1,1.49-1,1.53A48.76,48.76,0,0,0,32.43,374.46Z"/>
        <path class="cls-4" d="M55.86,382.15A54.77,54.77,0,0,1,63,369.51a88.86,88.86,0,0,1,9.56-10.95c1.8-1.62,3.56-3.3,5.47-4.8,1-.75,1.86-1.56,2.83-2.27l3-2.14c.49-.35,1-.71,1.48-1.05l1.53-1,3.06-1.95c2.09-1.23,4.22-2.38,6.34-3.53-2,1.3-4.13,2.51-6.14,3.84l-3,2-1.49,1c-.49.35-1,.73-1.45,1.09L81.21,352c-1,.72-1.86,1.53-2.79,2.29-1.89,1.5-3.61,3.19-5.39,4.81a95.27,95.27,0,0,0-9.62,10.75c-.73,1-1.46,1.91-2.13,2.92l-1,1.49-1,1.53A47.54,47.54,0,0,0,55.86,382.15Z"/>
        <path class="cls-4" d="M43.13,382.15a55,55,0,0,1,2.73-7.1c1.1-2.28,2.29-4.53,3.61-6.7a75.17,75.17,0,0,1,20.6-22.22A73.94,73.94,0,0,1,76.46,342c1.07-.69,2.24-1.2,3.37-1.78l3.4-1.68-3.31,1.86a36.71,36.71,0,0,0-3.27,1.91,74,74,0,0,0-6.24,4.28,76.86,76.86,0,0,0-11.22,10.1A78,78,0,0,0,50,368.65,70.7,70.7,0,0,0,43.13,382.15Z"/>
        <path class="cls-4" d="M76,382.15a20,20,0,0,1,1.64-5.85c.4-.93.87-1.84,1.34-2.74s1-1.78,1.56-2.62a54.16,54.16,0,0,1,7.8-9.35c1.42-1.45,3-2.72,4.54-4.06s3.19-2.51,4.81-3.72,3.36-2.28,5.06-3.38,3.49-2.06,5.25-3.06L103,350.74c-1.65,1.15-3.28,2.36-4.91,3.53s-3.19,2.48-4.72,3.78-3.06,2.62-4.45,4.08c-.71.71-1.48,1.37-2.14,2.13l-2,2.23c-.65.76-1.27,1.56-1.9,2.34s-1.18,1.62-1.78,2.43S80,373,79.4,373.79s-1,1.76-1.42,2.67A21.45,21.45,0,0,0,76,382.15Z"/>
        <path class="cls-5" d="M32.43,354.3s4,26.45-12.81,16l-1.68-.84Z"/>
        <path class="cls-6" d="M43.13,376.13s2.94,7-5.46,6-5.87-6,0-12.73l6,3.3Z"/>
        <path class="cls-6" d="M45.23,382.24s-.42-6.64,5-9.52l5.88,2.57s1.25,10.08-5.46,9.66Z"/>
        <path class="cls-6" d="M59.93,382.24s.84-9.16,5.88-9.52L73,375.29,68.75,385S63.71,389.19,59.93,382.24Z"/>
        <path class="cls-6" d="M81.34,375.83s2.1-7.25,6.72-6.41,5.33,6.12-3.36,9.42Z"/>
      </g>
    </g>
    <g>
      <path class="cls-1" d="M284,330a12.26,12.26,0,0,1-9.76-4.82L241.48,282.3A12.27,12.27,0,0,1,261,267.4l32.75,42.83A12.27,12.27,0,0,1,284,330Z"/>
      <line x1="251.23" y1="274.85" x2="283.98" y2="317.68"/>
      <path class="cls-1" d="M316.18,297.05a12.18,12.18,0,0,1-7.17-2.32l-43.72-31.55a12.27,12.27,0,0,1,14.36-19.9l43.72,31.56a12.26,12.26,0,0,1-7.19,22.21Z"/>
      <line x1="272.47" y1="253.23" x2="316.19" y2="284.79"/>
      <path class="cls-1" d="M326.22,241.71c-.33,0-.66,0-1,0l-53.74-4.37a12.27,12.27,0,1,1,2-24.45l53.75,4.36a12.27,12.27,0,0,1-1,24.5Z"/>
      <line x1="272.47" y1="225.07" x2="326.21" y2="229.44"/>
      <path class="cls-1" d="M275.8,204.5a12.27,12.27,0,0,1-6-23l47.1-26.25a12.27,12.27,0,0,1,11.94,21.43L281.76,203A12.25,12.25,0,0,1,275.8,204.5Z"/>
      <line x1="275.79" y1="192.24" x2="322.89" y2="165.99"/>
    </g>
  </g>
</svg>
