<svg id="Layer_1" data-name="Layer 1" xmlns="http://www.w3.org/2000/svg" width="456.82" height="187.22" viewBox="0 0 456.82 187.22">
  <defs>
    <style>
      .cls-1 {
        fill: #f9ff00;
      }

      .cls-2, .cls-7 {
        fill: #4b5454;
      }

      .cls-2 {
        fill-rule: evenodd;
      }

      .cls-3 {
        fill: #cff1f9;
      }

      .cls-4, .cls-5 {
        fill: #9dbcc1;
      }

      .cls-5 {
        opacity: 0.33;
      }

      .cls-6 {
        fill: none;
      }
    </style>
  </defs>
  <g>
    <path class="cls-1" d="M247.94,183.89h-1.1l-1.24,0-2.14,0-2.21-.07-2.31-.11q-1.44-.08-2.82-.18l-1.25-.09-2.47-.22-1.14-.12c-1-.1-2-.21-2.9-.33s-1.88-.24-2.78-.38l-.22,0-1.31-.2-1.24-.21-2.08-.37c-.7-.13-1.39-.26-2-.4l-1.22-.26q-1.85-.41-3.45-.81c-1.09-.28-2.11-.57-3-.84l-.91-.27-1.6-.51-.9-.3-.15,0c-.23-.08-.46-.15-.67-.24l-.57-.21c-.27-.09-.52-.18-.76-.28l-.71-.27-.23-.09-.78-.32-.72-.32-.39-.17c-.22-.09-.43-.19-.64-.3l-.58-.28c-9.92-4.21-18.51-10.7-26.24-19.81A119.83,119.83,0,0,1,164,140.11c-6.85-11.34-11.35-23.4-15.38-34.77l-1.73-4.94c-.22-.62-.44-1.23-.68-1.85-.48-1.26-1-2.45-1.5-3.55-.27-.57-.54-1.12-.83-1.67l-.07-.14-.42-.73a8.37,8.37,0,0,0-1.25-1.55,8,8,0,0,0-.94-.76s0,.08,0,.12c-.06.41-.13.82-.22,1.23a64.77,64.77,0,0,1-3.54,11.37l-.35.91c-3.31,8.73-7.53,18.94-13.63,28.44-1.23,1.93-2.56,3.84-3.91,5.65-5.45,7.25-11.89,12.07-19.72,14.74-.25.08-.51.15-.76.21a48.76,48.76,0,0,1-11.13,1.26c-.85,0-1.72,0-2.58-.06l-.56,0a55.85,55.85,0,0,1-5.86-.65c-.9-.14-1.86-.32-2.81-.52a78,78,0,0,1-17.82-6.2h0c-2.14-1-4.32-2.17-6.46-3.4l-.23-.14a106.65,106.65,0,0,1-13-8.83l-1.35-1.1-.32-.28c-9.6-7.6-16.1-18-19.85-31.74A252.23,252.23,0,0,1,11.46,75c-.48-2.9-.9-5.77-1.25-8.51a.77.77,0,0,0,0-.15c-.39-2.94-.74-6-1-8.92,0,0-.06-.56-.07-.6,0-.29-.06-.57-.1-.85,0,0,0-.1,0-.15a5.91,5.91,0,0,0-.5-2.12c-.26-.37-.54-.79-.8-1.22s-.5-.82-.72-1.24-.37-.7-.53-1A24.32,24.32,0,0,1,4.69,45.5c-.15-.54-.28-1.13-.4-1.73a50.36,50.36,0,0,1-.44-12.44l.06-1.27a28.09,28.09,0,0,1,.65-4.55,11,11,0,0,1,9.29-8.77,11.5,11.5,0,0,1,3.32-1.26l.43-.08C51,10,93.22,5.18,122.58,3.52c2.25-.13,4.51-.19,6.72-.19,23,0,43.72,6.63,63.37,20.27,2.26,1.58,4.89,3.64,8,6.31a8,8,0,0,1-2.16,13.51c-.86.35-1.71.72-2.55,1.1l4.51.27,5.6.37,1.71.12c2,.14,4.12.29,6.12.45l1.91.16,4.07.37.72.07,10.16,1c2.7.28,5.42.58,8.14.89l3.16.35c1.88.21,3.77.44,5.66.67.47,0,1,.11,1.42.18,1.6.19,3.21.39,4.82.61l.7.08.24,0,6.24.85C274,52.84,286.77,55,299.29,57.38c6.17,1.17,12.46,2.45,19.21,3.91a31.42,31.42,0,0,0,6.76.7,49.25,49.25,0,0,0,7.14-.58,8,8,0,0,1,.83-.07c1.19-.2,2.47-.43,3.9-.71,9-1.75,18.08-3.66,26.9-5.51,17.22-3.61,35-7.35,52.81-10.11l1.25-.2a41.34,41.34,0,0,1,6.83-.71c.63,0,1.26,0,1.86.07,7.09.55,16.53,4,21.25,17.25a77.38,77.38,0,0,1,3.33,15.38c.2,1.44.41,2.88.65,4.3,0,.06,0,.12,0,.17a110.73,110.73,0,0,1,1.1,17.06c-.13,8.41-6.54,15-14.59,15h0a15,15,0,0,1-3.32-.38c-6.78-1.55-10.67-6.37-10.68-13.25,0-1.24,0-2.48,0-3.72a120.49,120.49,0,0,0-.86-18.43c-.4.34-.78.68-1.14,1-7.41,7.3-16.28,8.59-24.11,9.72l-.81.12a468.9,468.9,0,0,0-61.05,12.84c-.25.1-.5.19-.76.27q-3,.87-6,1.78a43.77,43.77,0,0,0-4.36,1.55c-.82.35-.82.39-.92,1.16-.79,5.93-1.73,11.81-2.78,17.48-1.44,7.77-3.17,15.46-5.12,22.88a58.06,58.06,0,0,1-1.79,5.62c0,.07,0,.14-.08.22a49.71,49.71,0,0,1-3.91,8.1A42.6,42.6,0,0,1,296.27,175q-1,.6-2,1.17a49.88,49.88,0,0,1-6.05,2.77c-.79.3-1.58.58-2.39.85a62.79,62.79,0,0,1-7.59,1.95l-.44.08c-1.26.17-2.49.33-3.71.47l-.45,0-1.93.22-.49.06-1.46.15-1.11.11-1.36.13-1.4.12c-.33,0-.73.07-1.13.09l-.79.07-1.48.1-1.4.1-2.15.13-2.85.13-1.56.05h-.05l-1.13,0-.9,0-2.07,0-2,0ZM148,44c1.71.07,10.19.37,19.82.54-.36-.42-.69-.8-1-1.12a69.2,69.2,0,0,0-9.63-8.31,23.15,23.15,0,0,0-14-4.57,32.54,32.54,0,0,0-7.4.92,106.08,106.08,0,0,0-14.74,5.07l-1,.38c-.55.22-1.11.44-1.68.65,2.66.73,5.43,1.47,8.23,2.17,3,.77,5.94,1.45,8.65,2,3.87.85,7.42,1.51,10.58,2l.46.06Z"/>
    <g>
      <g>
        <path class="cls-2" d="M213.31,53.71c-9-.71-19.8-1.32-19.8-1.32-2.65.14-5.77.22-9.14.25a4.57,4.57,0,0,0,3.28,1.76c7.64.32,15.27.75,22.92,1.05C212.59,55.54,213.5,55,213.31,53.71Zm-25.2-23.53c-19.59-13.6-41-20-65.08-18.67C91.82,13.28,49.68,18.28,18.89,23.3c-1,.22-1.51.48-1.57,1.33a1,1,0,0,0,0,.25l4.8,6.49.23.32,1.42,1.92,5,6.81h.6c1.69,0,4.72-.31,8.64-.7,2.14-.22,4.55-.47,7.15-.76l6.68-.75h0c8.47-1,18.1-2.13,27-3.19h0l2.57-.3h.06l3.24-.39h0c11.39-1.36,20.77-2.44,23.65-2.58a27.59,27.59,0,0,0,8.72-2.26A121.94,121.94,0,0,1,134,23.67c10-2.35,19.35-1.19,27.88,5a76.3,76.3,0,0,1,10.71,9.26,86.17,86.17,0,0,1,6,7.43,84.82,84.82,0,0,1,17-9.31C193,33.82,190.39,31.76,188.11,30.18ZM65,30.64c5.27,1.11,10.81,2.46,16.5,4Z"/>
        <path class="cls-3" d="M313.88,122.05q.24-3.15.24-6.37a85.66,85.66,0,0,0-16.33-50.44Q279,61.64,260.06,59l-6.1-.83-.91-.11c-1.63-.22-3.26-.42-4.89-.62l-1.31-.16c-1.88-.23-3.76-.46-5.65-.67l-3.15-.35q-4.05-.47-8.09-.88c-3.36-.36-6.71-.69-10.06-1l-.73-.08-.22,0c-.43,0-.89-.09-1.35-.12l-1-.09-1.45-.13-.74-.06-1.08-.09c-9-.71-19.8-1.33-19.8-1.33-2.65.15-5.77.22-9.14.26-4.69,0-9.84,0-14.77-.07a86,86,0,0,0-22,32.51,16.54,16.54,0,0,1,3.25,4.36l.1.19a62.52,62.52,0,0,1,3.47,8.12c4.6,13.12,9.17,26.23,16.41,38.22,8.39,13.87,18.45,25.92,33.89,32.38h0l0,0,.71.34.18.09c.31.14.68.31,1.14.5.26.12.55.23.87.36l.59.22.55.21h0l.61.23.69.24.68.23.73.23.8.25.84.25q2.57.76,6,1.52l.15,0,1,.2c1.23.26,2.53.5,3.91.74l1.15.19,1.38.21c1.67.25,3.46.47,5.34.66l1.11.11c.74.08,1.52.15,2.29.21l1.17.08c.89.07,1.79.13,2.72.18l2.23.1,2.08.07h.71l1.17,0h2.75l1.94,0,2.37,0,1.51-.05,1.52,0,1.42-.06,1.45-.07,1.85-.11,1.57-.11,1.44-.1.66-.06q.56,0,1.11-.09l1.37-.12,1.37-.13,1-.1,1.4-.14,1-.11,1.63-.19h0c1.23-.14,2.47-.3,3.74-.48,12.36-2.41,21.56-8.08,27.34-17.68,1.21-2.28,2.33-4.62,3.34-7h0Z"/>
        <path class="cls-4" d="M247.94,175.89h-1l-1.36,0-1.17,0-.71,0c-.71,0-1.4,0-2.08-.07l-2.23-.1c-.93,0-1.83-.11-2.72-.18l-1.17-.08-2.29-.2-1.11-.12c-1.88-.19-3.67-.41-5.34-.66Z"/>
        <path class="cls-5" d="M247.94,175.89h-1l-1.36,0-1.17,0-.71,0-2.08-.07-2.23-.1c-.93,0-1.83-.11-2.72-.18l-1.17-.08-2.29-.2-1.11-.12c-1.88-.19-3.67-.41-5.34-.66l-4-10.56L185,64h0l-.63-1.68,18.06-6.83,3.51,9.3h0L244.7,167.32h0Z"/>
        <path class="cls-5" d="M272.91,174.35h0l21.84-8.26-3.65-9.67-32-84.71h0L254,58.13l-.91-.12-4.89-.62c-.43-.06-.87-.11-1.31-.15-1.88-.24-3.76-.46-5.65-.68l-3.15-.35c-2.7-.3-5.4-.6-8.09-.88l-10.06-1-.73-.08-.22,0-1.35-.12-1-.09-1.45-.13-.74-.06L219,65.89h0L257.17,167l3.21,8.5Z"/>
        <path class="cls-6" d="M109.33,54.89C77.52,40.79,43.48,37,43.48,37,25.76,33.74,26.77,48.85,26.77,48.85c-.6,40.27,12.28,60.61,12.28,60.61,9.27,19.13,39.07,27,39.07,27,14.1,3.83,22.15-4.83,22.15-4.83C116.18,113.49,118.8,75,118.8,75,120.21,59.12,109.33,54.89,109.33,54.89Z"/>
        <path class="cls-6" d="M133.58,86.33c0,.29,0,.57-.06.85v0c0,.22,0,.44-.07.66,0,0,0,0,0,.08s0,.25,0,.37v0c0,.23-.06.46-.1.68s-.1.61-.16.91"/>
        <path class="cls-6" d="M133.56,86.71v-.06c0-.1,0-.22,0-.32v-.06c0-.19,0-.38,0-.58"/>
        <path class="cls-3" d="M133.65,83.46c0,.85,0,1.68-.06,2.51,0-.35,0-.7,0-1A11.07,11.07,0,0,1,133.65,83.46Z"/>
        <path class="cls-3" d="M133.59,86c0,.1,0,.2,0,.3C133.59,86.17,133.59,86.07,133.59,86Z"/>
        <path class="cls-3" d="M85.26,146h0a1.38,1.38,0,0,0,.3-.14,34.64,34.64,0,0,0,11.66-8.57h0c.57-.64,1.13-1.29,1.68-2a104,104,0,0,0,12.71-20.91c1.75-3.69,3.35-7.45,4.89-11.23,2.09-5.15,4.38-10.34,4.27-16-.06-2.49.43-3.59,2.3-3.87a9.26,9.26,0,0,1,1.89-.06l7.74-29.34c-.78-1.64-1.63-3.24-2.53-4.81C113,45,96.93,40,96.93,40c-4.36-1.36-8.68-2.59-12.9-3.7l-2.13-.54c-1-.26-2-.5-3-.74h0c-5.62-1.37-11.06-2.52-16.26-3.5h0c-6.85-1.29-13.27-2.26-19.06-3-6.05-.78-11.41-1.29-15.89-1.63-1,.73-2,1.49-3,2.28S23,30.61,22.1,31.37a68.21,68.21,0,0,0-7.82,8.12c-.74.9-1.45,1.8-2.14,2.74.09.42.18.84.29,1.26a16.42,16.42,0,0,0,1.18,3.19c.11.24.23.48.36.71a15,15,0,0,0,1,1.68,12.73,12.73,0,0,1,1.9,5.78h0c.05.39.1.77.13,1.15,0,.19,0,.39.06.58.31,3,.65,5.9,1,8.84h0l24.29,61.62,13.35,9.2,0,0,6,3.15a70.74,70.74,0,0,0,16,5.58Z"/>
        <path class="cls-5" d="M111.63,114.41a104,104,0,0,1-12.71,20.91c-.55.68-1.11,1.33-1.68,2h0a34.64,34.64,0,0,1-11.66,8.57l-3.25-8.62L45.17,39l-.28-.72,2.1-.8h0l15.64-5.92h0L65,30.64c5.27,1.11,10.81,2.46,16.5,4v0l.4,1,4,10.47h0l25,66.24h0Z"/>
        <path class="cls-5" d="M77.82,145a70.74,70.74,0,0,1-16-5.58l-4.5-11.92h0L26.84,47h0L22,34.26l1.71-.65,10.47-4,2.64,7L38,39.71l36.09,95.48h0Z"/>
        <path class="cls-6" d="M280.5,76C211,60.73,173.57,64.35,173.57,64.35c-13.65.71-6.85,16.31-6.85,16.31a16.09,16.09,0,0,0,5,5.84,39.81,39.81,0,0,1,8.46,8.26c5,4.63,5.23,29.4,5.23,29.4.81,19.53,11.88,27.59,11.88,27.59,42.09,29.2,88.51,8.56,88.51,8.56,19-8.46,15.4-56.79,15.4-56.79C300.33,82.38,280.5,76,280.5,76Z"/>
        <path class="cls-7" d="M444.11,82.41c-1-6.06-1.5-12.36-3.62-18.31-2.43-6.84-6.7-11.36-14.33-11.95a34.22,34.22,0,0,0-8.09.77c-26.67,4.13-52.93,10.4-79.41,15.56-1.77.35-3.52.67-5.28.94,1,4.76,1.76,12.69,0,24.44a478.79,478.79,0,0,1,63.05-13.35c7.46-1.09,14.71-2,20.46-7.62a31.85,31.85,0,0,1,9-6.06c1.68-.77,3.57-.91,4,1.23.4,2,.93,4.17,1.31,6.14,1.6,8.45,1.29,16.92,1.31,25.49,0,3.23,1.31,4.74,4.46,5.46,4.25,1,8.06-2.15,8.13-7A101.88,101.88,0,0,0,444.11,82.41Z"/>
        <path class="cls-7" d="M301.5,115.22c0,.58,0,1.17,0,1.76v.18c0,.27,0,.55,0,.82,0,.1,0,.2,0,.29,0,.39,0,.78-.05,1.18,0,.1,0,.21,0,.31-.06,1.4-.15,2.85-.25,4.33,0,.14,0,.27,0,.41l-.18,2c-.06.68-.13,1.36-.21,2.06-.14,1.27-.31,2.55-.49,3.83a.13.13,0,0,0,0,.06c-.18,1.27-.4,2.53-.63,3.77q-.3,1.53-.63,3c-.13.5-.25,1-.37,1.5-.08.31-.16.64-.25,1a.79.79,0,0,1,0,.13c-.1.37-.21.74-.31,1.11s-.19.62-.28.92-.24.76-.37,1.14v0c-.1.29-.2.59-.31.88s-.2.57-.31.85l0,.08c-.1.26-.2.53-.31.79s-.23.56-.35.83-.19.44-.28.65-.19.43-.3.64-.19.42-.3.63-.21.42-.32.62q-.27.54-.57,1.05c-.14.25-.29.49-.43.73s-.23.37-.34.54-.23.35-.35.52l-.47.67c-.13.18-.26.35-.4.52s-.11.15-.17.23-.28.35-.43.52-.33.38-.48.56l0,0h0l-.31.33-.31.32c-.17.18-.35.35-.54.52l-.1.09-.14.11-.41.36-.31.25-.32.24,0,0c-.21.16-.43.31-.65.45s-.34.23-.52.33l-.12.08-.07,0-.34.19-.12.06a2.49,2.49,0,0,1-.28.15.61.61,0,0,1-.14.07l-.55.27-.14.06-.14,0-.28.12-.17.07-.46.19-.42.16c-.3.12-.64.25-1,.38l-.28.11-.43.15-.59.21-.42.14-.62.21-.25.08c-.15,0-.31.11-.47.15l-.49.16c-.4.12-.82.26-1.26.38l-.53.16-.88.26-1.19.33-1,.26-.93.24-.18,0-1.16.28c-.92.21-1.88.43-2.88.64l-2.18.43c-.9.17-1.82.33-2.77.48l-1.13.17-.19,0-.21,0-.18,0-1.25.17-1.47.18c-1,.12-2,.24-3.11.33l-2,.16H255q-1.08.08-2.19.12c-.57,0-1.15.06-1.74.07l-.81,0-2,0-1.73,0-1.82-.05h-.14l-1.11,0H243c-.3,0-.61,0-.9-.06-1-.06-2-.14-3.05-.24l-.17,0c-.76-.07-1.53-.15-2.3-.25l-1.21-.16c-.37,0-.74-.1-1.11-.16l-1.17-.18-.86-.14-.11,0-.88-.16q-2.79-.51-5.62-1.23l-1.42-.37c-.48-.12-.95-.26-1.43-.4l-1.57-.46-1.52-.49-1.39-.47-.13,0-1.36-.49c-.29-.12-.58-.22-.87-.33l-1.16-.46c-.5-.19-1-.4-1.5-.61l-1.58-.68-.13-.06-1-.45-.09,0c-.29-.13-.58-.26-.87-.41s-.75-.35-1.13-.54-1-.49-1.45-.74l-.11-.05-1.36-.73c-.55-.29-1.09-.6-1.64-.91-1.11-.63-2.2-1.29-3.3-2l-1.18-.76c-.71-.46-1.4-.93-2.09-1.41,0,0-11.08-8.06-11.89-27.58h0c0-.43.17-16.14-2.88-25a.24.24,0,0,0,0-.08l-.06-.17,0-.06a12.36,12.36,0,0,0-2.24-4.12l-.05-.06,0-.07a63.46,63.46,0,0,0-8.36-8.12,25.1,25.1,0,0,1-5-5.8v0h0a0,0,0,0,0,0,0,1.2,1.2,0,0,0-.06-.17c0-.09-.09-.21-.14-.35h0c-.09-.24-.2-.54-.31-.91-.09-.22-.16-.47-.24-.73s-.09-.29-.13-.44l0-.12c-.06-.18-.1-.38-.16-.58a3,3,0,0,1-.07-.32c0-.1-.05-.2-.08-.3h0l-.06-.33a2.82,2.82,0,0,1-.07-.31v0c0-.23-.09-.46-.12-.7a3.11,3.11,0,0,1,0-.32,2.57,2.57,0,0,1-.05-.4c0-.12,0-.24,0-.36s0-.25,0-.37a2.17,2.17,0,0,1,0-.36q0-.37,0-.75t0-.72v0a5.67,5.67,0,0,1,.06-.71,1.65,1.65,0,0,1,0-.21.17.17,0,0,0,0-.07c0-.08,0-.15,0-.22s.06-.34.1-.51c.65-2.82,2.58-5.27,7.17-5.86q.41-.06.84-.09h.28S177.44,64,185,64h3.6l1.31,0,1.83,0c.31,0,.62,0,.95,0h.19l1.18,0,1.32,0c.44,0,.89,0,1.35.06l1.07.05.48,0,.86,0,.87.05h.09l3.4.2.43,0,2,.14,1.51.1c3.57.27,7.4.6,11.51,1,5.67.58,11.86,1.32,18.56,2.28s13.88,2.12,21.58,3.53q10.14,1.86,21.4,4.33h0a.31.31,0,0,1,.12,0l.1,0,.24.09.15.06.23.09.46.18s0,0,0,0l.49.21.12,0c.25.11.53.23.82.38l.26.13.4.19,0,0,.69.37c.23.13.48.25.73.4a.53.53,0,0,0,.15.08l1,.58,1,.66c.51.35,1,.72,1.58,1.11l.55.43.62.5c.71.59,1.43,1.22,2.14,1.91a5.21,5.21,0,0,1,.47.47c.27.26.53.53.78.82l.6.67.21.24c.23.28.46.56.68.85l.06.07c.24.31.47.62.7.94l.33.48c.11.16.22.32.32.49A27.62,27.62,0,0,1,298,91c.17.32.32.65.47,1s.27.56.4.86.25.58.36.88.22.57.32.86.21.59.31.89a.38.38,0,0,0,0,.1l.21.72.21.76c.08.3.15.61.22.92s.12.55.17.83a.43.43,0,0,1,0,0c.06.29.11.6.16.9l.12.83c0,.17,0,.35.07.52s.06.53.08.79l.07.82c0,.27,0,.55,0,.83l0,.38c0,.08,0,.17,0,.28a1,1,0,0,0,0,.17,1.28,1.28,0,0,0,0,.19s0,.07,0,.12v.1c0,.13,0,.28,0,.44s0,.18,0,.28,0,.24,0,.38a.19.19,0,0,1,0,.08V106h0c0,.11,0,.22,0,.34,0,.31,0,.64,0,1v0q0,.3,0,.63v.12c0,.19,0,.39,0,.59s0,.42,0,.63v0c0,.26,0,.51,0,.78C301.52,111.67,301.53,113.37,301.5,115.22Zm32.06-45.84a.43.43,0,0,1,0,0,46.26,46.26,0,0,1-16.74-.22q-9.48-2.06-19-3.87Q279,61.64,260.06,59l-6.1-.83-.91-.11c-1.63-.22-3.26-.42-4.89-.62l-1.31-.16c-1.88-.23-3.76-.46-5.65-.67l-3.15-.35q-4.05-.47-8.09-.88c-3.36-.36-6.71-.69-10.06-1l-.73-.08-.22,0c-.43,0-.89-.09-1.35-.12l-1-.09-1.45-.13c-.24,0-.49,0-.74-.06l-1.08-.09c-9-.71-19.8-1.33-19.8-1.33-2.65.15-5.77.22-9.14.26-4.69,0-9.84,0-14.77-.07-11.74-.18-22.21-.59-22.21-.59-.85-.09-1.72-.21-2.62-.34-3.48-.5-7.25-1.21-11.11-2.06-2.95-.63-6-1.34-8.92-2.09-16.1-4.05-31.12-9.1-31.12-9.1C89.55,37,85.51,35.81,81.56,34.7H81.5c-5.69-1.59-11.23-2.94-16.5-4C57.28,29,50.1,27.78,43.74,26.91c-5.21-.71-9.87-1.2-13.85-1.54l-1-.08c-5.35-.45-9.34-.6-11.55-.66-1.3,0-2,0-2,0a3.11,3.11,0,0,0-2.95,2.56,21.44,21.44,0,0,0-.48,3.28c-.19,4-.5,8,.24,11.79.09.42.18.84.29,1.26a16.42,16.42,0,0,0,1.18,3.19c.11.24.23.48.36.71a15,15,0,0,0,1,1.68,12.73,12.73,0,0,1,1.9,5.78h0c.05.39.1.77.13,1.15,0,.19,0,.39.06.58.31,3,.65,5.9,1,8.84h0c.35,2.76.76,5.52,1.2,8.27A245.51,245.51,0,0,0,24.8,99c3,10.93,8.14,20.54,17.25,27.69l.39.34,1.15.93a97.66,97.66,0,0,0,12.2,8.27l0,0c1.85,1.07,3.84,2.13,6,3.15a70.74,70.74,0,0,0,16,5.58c.8.17,1.61.32,2.41.45a49.91,49.91,0,0,0,5,.56h.37l-.06-.15a34.64,34.64,0,0,0,11.66-8.57h0c.57-.64,1.13-1.29,1.68-2a104,104,0,0,0,12.71-20.91l5.1,13.48c5.42-8.43,9.33-17.61,12.88-27a64.65,64.65,0,0,0,3.53-11c.06-.3.11-.6.16-.91s.07-.45.1-.68v0c0-.12,0-.24,0-.37s0,0,0-.08c0-.22.05-.44.07-.66s0-.33,0-.49v-.06c0-.12,0-.25,0-.38s0-.38,0-.58a.45.45,0,0,0,0-.12v-.65a11,11,0,0,1,.05-1.46c0-.17,0-.33.08-.47.32-1.63,1.35-2.13,3.79-2a17.28,17.28,0,0,1,4.49.79,14,14,0,0,1,5.63,3.31,16.54,16.54,0,0,1,3.25,4.36l.1.19a62.52,62.52,0,0,1,3.47,8.12c4.6,13.12,9.17,26.23,16.41,38.22,8.39,13.87,18.45,25.92,33.89,32.38h0l0,0,.71.34.18.09c.31.14.68.31,1.14.5l.87.36.59.22.55.21h0l.61.23.69.24.68.23.73.23.8.25.84.25q2.57.76,6,1.52l.15,0,1,.2c1.23.26,2.53.5,3.91.74l1.15.19,1.38.21c1.67.25,3.46.47,5.34.66l1.11.11c.74.08,1.52.15,2.29.21l1.17.08c.89.07,1.79.13,2.72.18l2.23.1,2.08.07h.71l1.17,0h2.75l1.94,0,2.37,0,1.51-.05,1.52,0,1.42-.06,1.45-.07,1.85-.11,1.57-.11,1.44-.1.66-.06q.56,0,1.11-.09l1.37-.12,1.37-.13,1-.1,1.4-.14,1-.11,1.63-.19h0c1.23-.14,2.47-.3,3.74-.48,12.36-2.41,21.56-8.08,27.34-17.68a40.51,40.51,0,0,0,3.34-7h0a47.69,47.69,0,0,0,1.53-4.82q2.92-11.08,5-22.3,1.58-8.49,2.72-17.08a8.81,8.81,0,0,1,5.74-7.47c1.66-.7,3.39-1.29,5.11-1.82,2-.63,4.08-1.23,6.13-1.82,0,0,0,0,0,0h0C335.32,82.1,334.58,74.14,333.56,69.38ZM111.41,111l-.07.21c0,.13-.09.26-.14.38-.1.28-.2.56-.31.83a.75.75,0,0,1,0,.16,1.27,1.27,0,0,1-.06.18c0,.09-.07.19-.11.28l-.06.16c-.12.32-.25.64-.37,1l-.37.93c-.2.52-.41,1-.62,1.53l0,0a.73.73,0,0,1,0,.12c-.25.59-.5,1.16-.76,1.73-.17.37-.34.74-.52,1.11-.36.74-.72,1.48-1.1,2.19-.15.3-.3.58-.46.87s-.42.78-.64,1.16-.44.77-.66,1.14l-.5.82c-.26.4-.52.79-.77,1.19l-.65,1-.1.13c-.27.39-.54.76-.82,1.13s-.62.82-1,1.21l-.42.52-.55.64a3.45,3.45,0,0,1-.26.25,3,3,0,0,1-.25.23,14.92,14.92,0,0,1-1.36,1.1c-.11.09-.23.17-.35.25l-.38.27-.45.28c-.18.12-.37.24-.57.35a4.53,4.53,0,0,1-.48.27l-.09,0-.37.19c-.12.07-.24.14-.37.2l-.55.27c-.28.13-.57.26-.87.38h0l-.31.12-.55.21-.08,0c-.22.08-.43.16-.66.23l-.69.21c-.16,0-.33.1-.5.13l-.34.09c-.2.06-.4.1-.62.15l-.57.12h-.07l-.71.13-.21,0-.82.1h0l-.77.07h0l-.45,0h-.09l-.47,0H84.35l-.73,0-1.3-.12-.11,0-.63-.07-.58-.09-.8-.15c-.33-.06-.66-.12-1-.21l-1.09-.27s-.61-.16-1.68-.49l-.66-.2-.47-.16-.75-.24-.31-.12-.14,0-.66-.23-.7-.25c-.92-.33-1.94-.72-3-1.15l-.66-.26a.94.94,0,0,0-.15-.06c-.4-.18-.81-.34-1.23-.51l-.94-.41c-.75-.32-1.51-.67-2.3-1l-.78-.37c-.79-.38-1.59-.78-2.41-1.21-.52-.26-1-.54-1.57-.83-.8-.43-1.6-.89-2.4-1.37h0l-1.4-.85c-.4-.25-.8-.5-1.18-.76s-.58-.38-.88-.59l-.78-.53c-.28-.19-.54-.38-.81-.58s-.51-.37-.76-.56c-.42-.31-.83-.62-1.24-.95s-.78-.62-1.16-.93l-1-.84-.39-.35-.33-.29,0,0v0l-.09-.07-.21-.2-.2-.2-.26-.24-.46-.45c-.13-.12-.25-.25-.37-.37l-.75-.77h0c-.07-.06-.13-.14-.2-.21l-.19-.21c-.21-.23-.43-.47-.63-.71s-.57-.66-.84-1l-.16-.19c-.26-.33-.53-.67-.79-1h0q-.3-.39-.57-.78l-.57-.85c-.36-.55-.71-1.12-1-1.69-.1-.18-.21-.37-.3-.56a3.67,3.67,0,0,1-.26-.48c-.12-.23-.24-.48-.36-.72,0,0-.46-.73-1.2-2.18-.1-.18-.21-.39-.31-.61s-.31-.62-.47-1c-.27-.58-.57-1.22-.88-1.93a.5.5,0,0,1-.05-.13.11.11,0,0,1,0-.05h0a.15.15,0,0,1,0-.07c-.05-.1-.09-.21-.15-.32-.34-.81-.71-1.7-1.08-2.67l-.52-1.34c-.1-.27-.19-.56-.3-.85a1,1,0,0,1,0-.1s0,0,0,0l-.31-.89c-.26-.75-.52-1.54-.79-2.38-.1-.3-.19-.6-.29-.92q-.87-2.79-1.69-6.11c-.09-.36-.19-.74-.28-1.11l-.24-1,0-.14c-.09-.39-.17-.77-.26-1.17-.18-.8-.35-1.62-.52-2.46s-.32-1.66-.47-2.52a.64.64,0,0,1,0-.07c-.15-.84-.29-1.7-.43-2.58l-.15-1,0-.22a.22.22,0,0,1,0-.08s0-.07,0-.1c-.07-.46-.14-.92-.2-1.38,0-.1,0-.18,0-.27s0-.27,0-.41-.08-.56-.12-.85c-.06-.51-.12-1-.19-1.56s-.1-.86-.15-1.29-.12-1.1-.17-1.67c-.09-.92-.18-1.86-.26-2.82v-.12q-.08-.8-.12-1.59c-.05-.69-.1-1.39-.13-2.09s-.08-1.34-.11-2-.05-1.21-.07-1.82v-.12c0-.35,0-.71,0-1.07,0-.13,0-.28,0-.41,0-.29,0-.58,0-.86l0-1.76c0-1.48,0-3,0-4.52v-.09c0-.11,0-.34,0-.64,0-.1,0-.21,0-.33v0a1.46,1.46,0,0,1,0-.29c0-.14,0-.3,0-.46v0c0-.14,0-.26.05-.41s0-.31.07-.48a2.07,2.07,0,0,1,0-.22c0-.23.09-.47.14-.71l.12-.47c0-.16.09-.33.14-.5l.1-.3a1.46,1.46,0,0,0,.07-.19l.14-.39c.05-.13.1-.26.16-.38l.12-.26c.07-.17.15-.33.24-.51s.19-.34.28-.5l.06-.11c.09-.14.18-.26.26-.4a1,1,0,0,0,.11-.17l.07-.08.37-.48h0l.08-.1.32-.37h0a5.93,5.93,0,0,1,.43-.44l0,0,.4-.36.18-.15,0,0,.11-.08.32-.23c.19-.14.39-.27.59-.39s.37-.22.57-.32l.17-.08.19-.1.25-.11.16-.07.43-.17.32-.12.48-.15.68-.18.13,0,.14,0,.2,0,.6-.1.31-.05.32,0h0c.11,0,.23,0,.35,0l.28,0q.32,0,.66,0a24.88,24.88,0,0,1,5.33.43l.14,0h.19l.4.06.44,0h.1l.65.09,1.59.22h0l1,.15.66.1.52.08.42.07.12,0,.69.1.73.12.28,0,.15,0,.16,0a.41.41,0,0,0,.16,0h0l.46.09c.41.06.84.14,1.28.22l.7.12,1.46.26a.34.34,0,0,0,.14,0l1,.18.74.15.1,0,.36.07.82.16.83.16.24.06.5.09c1.42.29,2.9.6,4.43.94l1.94.43c1.71.39,3.49.81,5.32,1.26l1.82.46,2.1.55c1.58.41,3.21.86,4.85,1.33a3.17,3.17,0,0,1,.41.12c.41.1.83.22,1.25.35l.16,0c1,.27,1.9.56,2.85.85l.24.08.73.22c1.34.42,2.69.85,4.06,1.3,1,.33,2,.68,3.08,1l1.55.55,1.55.55.54.19L100,51c.88.33,1.77.68,2.65,1l.48.18.63.26,1.45.59,2.09.88c.69.29,1.39.59,2.08.9h.06l0,0,.07,0,.09,0a1.33,1.33,0,0,1,.24.12l.18.09.41.22.24.14.25.16.26.17.28.19.1.07.39.29.42.33.32.27.33.29.33.31.33.33.24.25c.16.16.32.34.48.53s.25.28.37.44.34.44.52.68l.26.36.24.37c.08.12.16.24.23.36s.15.24.22.36l.08.14a.47.47,0,0,1,.07.12l.08.13.19.38.11.21.29.6a1.47,1.47,0,0,1,.07.17c.11.22.2.46.3.71s.22.57.32.86h0c.08.24.17.48.23.73l0,.07v0c.07.23.13.46.19.7,0,0,0,0,0,.06a1.6,1.6,0,0,1,0,.21,2.25,2.25,0,0,1,0,.22h0s0,0,0,0,0,0,0,0v0c.06.26.12.53.16.81h0c.07.33.12.67.18,1s.09.84.14,1.27,0,.74.07,1.13h0c0,.4,0,.8,0,1.23,0,.89-.05,1.81-.13,2.78a1.16,1.16,0,0,1,0,.13c0,.11,0,.3,0,.55l0,.29c0,.2,0,.45-.06.72s-.06.57-.09.9c-.06.54-.13,1.16-.2,1.84,0,.32-.08.65-.12,1a.77.77,0,0,0,0,.15l-.09.71c0,.13,0,.26,0,.39-.17,1.29-.37,2.74-.61,4.31-.06.38-.12.76-.18,1.16s-.18,1-.27,1.53c0,.26-.09.52-.13.79s-.09.53-.15.8c-.1.62-.22,1.26-.35,1.9-.17.85-.34,1.72-.53,2.61-.13.61-.26,1.21-.39,1.83-.08.33-.15.67-.24,1s-.16.76-.26,1.14-.18.76-.28,1.14a.19.19,0,0,1,0,.08l-.27,1.07c-.22.89-.46,1.78-.71,2.68-.13.48-.27,1-.41,1.43s-.29,1-.44,1.46c-.08.25-.15.5-.23.74s-.15.48-.22.73c-.15.48-.31,1-.47,1.44Z"/>
        <path class="cls-7" d="M116.73,127.89q-1.68,2.64-3.59,5.18a32.77,32.77,0,0,1-15.89,12,41.32,41.32,0,0,1-11.62,1l-.06-.15a34.64,34.64,0,0,0,11.66-8.57h0c.57-.64,1.13-1.29,1.68-2a104,104,0,0,0,12.71-20.91Z"/>
      </g>
      <g>
        <path class="cls-2" d="M213.31,53.71c-9-.71-19.8-1.32-19.8-1.32-2.65.14-5.77.22-9.14.25a4.57,4.57,0,0,0,3.28,1.76c7.64.32,15.27.75,22.92,1.05C212.59,55.54,213.5,55,213.31,53.71Zm-25.2-23.53c-19.59-13.6-41-20-65.08-18.67C91.82,13.28,49.68,18.28,18.89,23.3c-1,.22-1.51.48-1.57,1.33a1,1,0,0,0,0,.25l4.8,6.49.23.32,1.42,1.92,5,6.81h.6c1.69,0,4.72-.31,8.64-.7,2.14-.22,4.55-.47,7.15-.76l6.68-.75h0c8.47-1,18.1-2.13,27-3.19h0l2.57-.3h.06l3.24-.39h0c11.39-1.36,20.77-2.44,23.65-2.58a27.59,27.59,0,0,0,8.72-2.26A121.94,121.94,0,0,1,134,23.67c10-2.35,19.35-1.19,27.88,5a76.3,76.3,0,0,1,10.71,9.26,86.17,86.17,0,0,1,6,7.43,84.82,84.82,0,0,1,17-9.31C193,33.82,190.39,31.76,188.11,30.18ZM65,30.64c5.27,1.11,10.81,2.46,16.5,4Z"/>
        <path class="cls-3" d="M313.88,122.05q.24-3.15.24-6.37a85.66,85.66,0,0,0-16.33-50.44Q279,61.64,260.06,59l-6.1-.83-.91-.11c-1.63-.22-3.26-.42-4.89-.62l-1.31-.16c-1.88-.23-3.76-.46-5.65-.67l-3.15-.35q-4.05-.47-8.09-.88c-3.36-.36-6.71-.69-10.06-1l-.73-.08-.22,0c-.43,0-.89-.09-1.35-.12l-1-.09-1.45-.13-.74-.06-1.08-.09c-9-.71-19.8-1.33-19.8-1.33-2.65.15-5.77.22-9.14.26-4.69,0-9.84,0-14.77-.07a86,86,0,0,0-22,32.51,16.54,16.54,0,0,1,3.25,4.36l.1.19a62.52,62.52,0,0,1,3.47,8.12c4.6,13.12,9.17,26.23,16.41,38.22,8.39,13.87,18.45,25.92,33.89,32.38h0l0,0,.71.34.18.09c.31.14.68.31,1.14.5.26.12.55.23.87.36l.59.22.55.21h0l.61.23.69.24.68.23.73.23.8.25.84.25q2.57.76,6,1.52l.15,0,1,.2c1.23.26,2.53.5,3.91.74l1.15.19,1.38.21c1.67.25,3.46.47,5.34.66l1.11.11c.74.08,1.52.15,2.29.21l1.17.08c.89.07,1.79.13,2.72.18l2.23.1,2.08.07h.71l1.17,0h2.75l1.94,0,2.37,0,1.51-.05,1.52,0,1.42-.06,1.45-.07,1.85-.11,1.57-.11,1.44-.1.66-.06q.56,0,1.11-.09l1.37-.12,1.37-.13,1-.1,1.4-.14,1-.11,1.63-.19h0c1.23-.14,2.47-.3,3.74-.48,12.36-2.41,21.56-8.08,27.34-17.68,1.21-2.28,2.33-4.62,3.34-7h0Z"/>
        <path class="cls-4" d="M247.94,175.89h-1l-1.36,0-1.17,0-.71,0c-.71,0-1.4,0-2.08-.07l-2.23-.1c-.93,0-1.83-.11-2.72-.18l-1.17-.08-2.29-.2-1.11-.12c-1.88-.19-3.67-.41-5.34-.66Z"/>
        <path class="cls-5" d="M247.94,175.89h-1l-1.36,0-1.17,0-.71,0-2.08-.07-2.23-.1c-.93,0-1.83-.11-2.72-.18l-1.17-.08-2.29-.2-1.11-.12c-1.88-.19-3.67-.41-5.34-.66l-4-10.56L185,64h0l-.63-1.68,18.06-6.83,3.51,9.3h0L244.7,167.32h0Z"/>
        <path class="cls-5" d="M272.91,174.35h0l21.84-8.26-3.65-9.67-32-84.71h0L254,58.13l-.91-.12-4.89-.62c-.43-.06-.87-.11-1.31-.15-1.88-.24-3.76-.46-5.65-.68l-3.15-.35c-2.7-.3-5.4-.6-8.09-.88l-10.06-1-.73-.08-.22,0-1.35-.12-1-.09-1.45-.13-.74-.06L219,65.89h0L257.17,167l3.21,8.5Z"/>
        <path class="cls-6" d="M109.33,54.89C77.52,40.79,43.48,37,43.48,37,25.76,33.74,26.77,48.85,26.77,48.85c-.6,40.27,12.28,60.61,12.28,60.61,9.27,19.13,39.07,27,39.07,27,14.1,3.83,22.15-4.83,22.15-4.83C116.18,113.49,118.8,75,118.8,75,120.21,59.12,109.33,54.89,109.33,54.89Z"/>
        <path class="cls-6" d="M133.58,86.33c0,.29,0,.57-.06.85v0c0,.22,0,.44-.07.66,0,0,0,0,0,.08s0,.25,0,.37v0c0,.23-.06.46-.1.68s-.1.61-.16.91"/>
        <path class="cls-6" d="M133.56,86.71v-.06c0-.1,0-.22,0-.32v-.06c0-.19,0-.38,0-.58"/>
        <path class="cls-3" d="M133.65,83.46c0,.85,0,1.68-.06,2.51,0-.35,0-.7,0-1A11.07,11.07,0,0,1,133.65,83.46Z"/>
        <path class="cls-3" d="M133.59,86c0,.1,0,.2,0,.3C133.59,86.17,133.59,86.07,133.59,86Z"/>
        <path class="cls-3" d="M85.26,146h0a1.38,1.38,0,0,0,.3-.14,34.64,34.64,0,0,0,11.66-8.57h0c.57-.64,1.13-1.29,1.68-2a104,104,0,0,0,12.71-20.91c1.75-3.69,3.35-7.45,4.89-11.23,2.09-5.15,4.38-10.34,4.27-16-.06-2.49.43-3.59,2.3-3.87a9.26,9.26,0,0,1,1.89-.06l7.74-29.34c-.78-1.64-1.63-3.24-2.53-4.81C113,45,96.93,40,96.93,40c-4.36-1.36-8.68-2.59-12.9-3.7l-2.13-.54c-1-.26-2-.5-3-.74h0c-5.62-1.37-11.06-2.52-16.26-3.5h0c-6.85-1.29-13.27-2.26-19.06-3-6.05-.78-11.41-1.29-15.89-1.63-1,.73-2,1.49-3,2.28S23,30.61,22.1,31.37a68.21,68.21,0,0,0-7.82,8.12c-.74.9-1.45,1.8-2.14,2.74.09.42.18.84.29,1.26a16.42,16.42,0,0,0,1.18,3.19c.11.24.23.48.36.71a15,15,0,0,0,1,1.68,12.73,12.73,0,0,1,1.9,5.78h0c.05.39.1.77.13,1.15,0,.19,0,.39.06.58.31,3,.65,5.9,1,8.84h0l24.29,61.62,13.35,9.2,0,0,6,3.15a70.74,70.74,0,0,0,16,5.58Z"/>
        <path class="cls-5" d="M111.63,114.41a104,104,0,0,1-12.71,20.91c-.55.68-1.11,1.33-1.68,2h0a34.64,34.64,0,0,1-11.66,8.57l-3.25-8.62L45.17,39l-.28-.72,2.1-.8h0l15.64-5.92h0L65,30.64c5.27,1.11,10.81,2.46,16.5,4v0l.4,1,4,10.47h0l25,66.24h0Z"/>
        <path class="cls-5" d="M77.82,145a70.74,70.74,0,0,1-16-5.58l-4.5-11.92h0L26.84,47h0L22,34.26l1.71-.65,10.47-4,2.64,7L38,39.71l36.09,95.48h0Z"/>
        <path class="cls-6" d="M280.5,76C211,60.73,173.57,64.35,173.57,64.35c-13.65.71-6.85,16.31-6.85,16.31a16.09,16.09,0,0,0,5,5.84,39.81,39.81,0,0,1,8.46,8.26c5,4.63,5.23,29.4,5.23,29.4.81,19.53,11.88,27.59,11.88,27.59,42.09,29.2,88.51,8.56,88.51,8.56,19-8.46,15.4-56.79,15.4-56.79C300.33,82.38,280.5,76,280.5,76Z"/>
        <path class="cls-7" d="M444.11,82.41c-1-6.06-1.5-12.36-3.62-18.31-2.43-6.84-6.7-11.36-14.33-11.95a34.22,34.22,0,0,0-8.09.77c-26.67,4.13-52.93,10.4-79.41,15.56-1.77.35-3.52.67-5.28.94,1,4.76,1.76,12.69,0,24.44a478.79,478.79,0,0,1,63.05-13.35c7.46-1.09,14.71-2,20.46-7.62a31.85,31.85,0,0,1,9-6.06c1.68-.77,3.57-.91,4,1.23.4,2,.93,4.17,1.31,6.14,1.6,8.45,1.29,16.92,1.31,25.49,0,3.23,1.31,4.74,4.46,5.46,4.25,1,8.06-2.15,8.13-7A101.88,101.88,0,0,0,444.11,82.41Z"/>
        <path class="cls-7" d="M301.5,115.22c0,.58,0,1.17,0,1.76v.18c0,.27,0,.55,0,.82,0,.1,0,.2,0,.29,0,.39,0,.78-.05,1.18,0,.1,0,.21,0,.31-.06,1.4-.15,2.85-.25,4.33,0,.14,0,.27,0,.41l-.18,2c-.06.68-.13,1.36-.21,2.06-.14,1.27-.31,2.55-.49,3.83a.13.13,0,0,0,0,.06c-.18,1.27-.4,2.53-.63,3.77q-.3,1.53-.63,3c-.13.5-.25,1-.37,1.5-.08.31-.16.64-.25,1a.79.79,0,0,1,0,.13c-.1.37-.21.74-.31,1.11s-.19.62-.28.92-.24.76-.37,1.14v0c-.1.29-.2.59-.31.88s-.2.57-.31.85l0,.08c-.1.26-.2.53-.31.79s-.23.56-.35.83-.19.44-.28.65-.19.43-.3.64-.19.42-.3.63-.21.42-.32.62q-.27.54-.57,1.05c-.14.25-.29.49-.43.73s-.23.37-.34.54-.23.35-.35.52l-.47.67c-.13.18-.26.35-.4.52s-.11.15-.17.23-.28.35-.43.52-.33.38-.48.56l0,0h0l-.31.33-.31.32c-.17.18-.35.35-.54.52l-.1.09-.14.11-.41.36-.31.25-.32.24,0,0c-.21.16-.43.31-.65.45s-.34.23-.52.33l-.12.08-.07,0-.34.19-.12.06a2.49,2.49,0,0,1-.28.15.61.61,0,0,1-.14.07l-.55.27-.14.06-.14,0-.28.12-.17.07-.46.19-.42.16c-.3.12-.64.25-1,.38l-.28.11-.43.15-.59.21-.42.14-.62.21-.25.08c-.15,0-.31.11-.47.15l-.49.16c-.4.12-.82.26-1.26.38l-.53.16-.88.26-1.19.33-1,.26-.93.24-.18,0-1.16.28c-.92.21-1.88.43-2.88.64l-2.18.43c-.9.17-1.82.33-2.77.48l-1.13.17-.19,0-.21,0-.18,0-1.25.17-1.47.18c-1,.12-2,.24-3.11.33l-2,.16H255q-1.08.08-2.19.12c-.57,0-1.15.06-1.74.07l-.81,0-2,0-1.73,0-1.82-.05h-.14l-1.11,0H243c-.3,0-.61,0-.9-.06-1-.06-2-.14-3.05-.24l-.17,0c-.76-.07-1.53-.15-2.3-.25l-1.21-.16c-.37,0-.74-.1-1.11-.16l-1.17-.18-.86-.14-.11,0-.88-.16q-2.79-.51-5.62-1.23l-1.42-.37c-.48-.12-.95-.26-1.43-.4l-1.57-.46-1.52-.49-1.39-.47-.13,0-1.36-.49c-.29-.12-.58-.22-.87-.33l-1.16-.46c-.5-.19-1-.4-1.5-.61l-1.58-.68-.13-.06-1-.45-.09,0c-.29-.13-.58-.26-.87-.41s-.75-.35-1.13-.54-1-.49-1.45-.74l-.11-.05-1.36-.73c-.55-.29-1.09-.6-1.64-.91-1.11-.63-2.2-1.29-3.3-2l-1.18-.76c-.71-.46-1.4-.93-2.09-1.41,0,0-11.08-8.06-11.89-27.58h0c0-.43.17-16.14-2.88-25a.24.24,0,0,0,0-.08l-.06-.17,0-.06a12.36,12.36,0,0,0-2.24-4.12l-.05-.06,0-.07a63.46,63.46,0,0,0-8.36-8.12,25.1,25.1,0,0,1-5-5.8v0h0a0,0,0,0,0,0,0,1.2,1.2,0,0,0-.06-.17c0-.09-.09-.21-.14-.35h0c-.09-.24-.2-.54-.31-.91-.09-.22-.16-.47-.24-.73s-.09-.29-.13-.44l0-.12c-.06-.18-.1-.38-.16-.58a3,3,0,0,1-.07-.32c0-.1-.05-.2-.08-.3h0l-.06-.33a2.82,2.82,0,0,1-.07-.31v0c0-.23-.09-.46-.12-.7a3.11,3.11,0,0,1,0-.32,2.57,2.57,0,0,1-.05-.4c0-.12,0-.24,0-.36s0-.25,0-.37a2.17,2.17,0,0,1,0-.36q0-.37,0-.75t0-.72v0a5.67,5.67,0,0,1,.06-.71,1.65,1.65,0,0,1,0-.21.17.17,0,0,0,0-.07c0-.08,0-.15,0-.22s.06-.34.1-.51c.65-2.82,2.58-5.27,7.17-5.86q.41-.06.84-.09h.28S177.44,64,185,64h3.6l1.31,0,1.83,0c.31,0,.62,0,.95,0h.19l1.18,0,1.32,0c.44,0,.89,0,1.35.06l1.07.05.48,0,.86,0,.87.05h.09l3.4.2.43,0,2,.14,1.51.1c3.57.27,7.4.6,11.51,1,5.67.58,11.86,1.32,18.56,2.28s13.88,2.12,21.58,3.53q10.14,1.86,21.4,4.33h0a.31.31,0,0,1,.12,0l.1,0,.24.09.15.06.23.09.46.18s0,0,0,0l.49.21.12,0c.25.11.53.23.82.38l.26.13.4.19,0,0,.69.37c.23.13.48.25.73.4a.53.53,0,0,0,.15.08l1,.58,1,.66c.51.35,1,.72,1.58,1.11l.55.43.62.5c.71.59,1.43,1.22,2.14,1.91a5.21,5.21,0,0,1,.47.47c.27.26.53.53.78.82l.6.67.21.24c.23.28.46.56.68.85l.06.07c.24.31.47.62.7.94l.33.48c.11.16.22.32.32.49A27.62,27.62,0,0,1,298,91c.17.32.32.65.47,1s.27.56.4.86.25.58.36.88.22.57.32.86.21.59.31.89a.38.38,0,0,0,0,.1l.21.72.21.76c.08.3.15.61.22.92s.12.55.17.83a.43.43,0,0,1,0,0c.06.29.11.6.16.9l.12.83c0,.17,0,.35.07.52s.06.53.08.79l.07.82c0,.27,0,.55,0,.83l0,.38c0,.08,0,.17,0,.28a1,1,0,0,0,0,.17,1.28,1.28,0,0,0,0,.19s0,.07,0,.12v.1c0,.13,0,.28,0,.44s0,.18,0,.28,0,.24,0,.38a.19.19,0,0,1,0,.08V106h0c0,.11,0,.22,0,.34,0,.31,0,.64,0,1v0q0,.3,0,.63v.12c0,.19,0,.39,0,.59s0,.42,0,.63v0c0,.26,0,.51,0,.78C301.52,111.67,301.53,113.37,301.5,115.22Zm32.06-45.84a.43.43,0,0,1,0,0,46.26,46.26,0,0,1-16.74-.22q-9.48-2.06-19-3.87Q279,61.64,260.06,59l-6.1-.83-.91-.11c-1.63-.22-3.26-.42-4.89-.62l-1.31-.16c-1.88-.23-3.76-.46-5.65-.67l-3.15-.35q-4.05-.47-8.09-.88c-3.36-.36-6.71-.69-10.06-1l-.73-.08-.22,0c-.43,0-.89-.09-1.35-.12l-1-.09-1.45-.13c-.24,0-.49,0-.74-.06l-1.08-.09c-9-.71-19.8-1.33-19.8-1.33-2.65.15-5.77.22-9.14.26-4.69,0-9.84,0-14.77-.07-11.74-.18-22.21-.59-22.21-.59-.85-.09-1.72-.21-2.62-.34-3.48-.5-7.25-1.21-11.11-2.06-2.95-.63-6-1.34-8.92-2.09-16.1-4.05-31.12-9.1-31.12-9.1C89.55,37,85.51,35.81,81.56,34.7H81.5c-5.69-1.59-11.23-2.94-16.5-4C57.28,29,50.1,27.78,43.74,26.91c-5.21-.71-9.87-1.2-13.85-1.54l-1-.08c-5.35-.45-9.34-.6-11.55-.66-1.3,0-2,0-2,0a3.11,3.11,0,0,0-2.95,2.56,21.44,21.44,0,0,0-.48,3.28c-.19,4-.5,8,.24,11.79.09.42.18.84.29,1.26a16.42,16.42,0,0,0,1.18,3.19c.11.24.23.48.36.71a15,15,0,0,0,1,1.68,12.73,12.73,0,0,1,1.9,5.78h0c.05.39.1.77.13,1.15,0,.19,0,.39.06.58.31,3,.65,5.9,1,8.84h0c.35,2.76.76,5.52,1.2,8.27A245.51,245.51,0,0,0,24.8,99c3,10.93,8.14,20.54,17.25,27.69l.39.34,1.15.93a97.66,97.66,0,0,0,12.2,8.27l0,0c1.85,1.07,3.84,2.13,6,3.15a70.74,70.74,0,0,0,16,5.58c.8.17,1.61.32,2.41.45a49.91,49.91,0,0,0,5,.56h.37l-.06-.15a34.64,34.64,0,0,0,11.66-8.57h0c.57-.64,1.13-1.29,1.68-2a104,104,0,0,0,12.71-20.91l5.1,13.48c5.42-8.43,9.33-17.61,12.88-27a64.65,64.65,0,0,0,3.53-11c.06-.3.11-.6.16-.91s.07-.45.1-.68v0c0-.12,0-.24,0-.37s0,0,0-.08c0-.22.05-.44.07-.66s0-.33,0-.49v-.06c0-.12,0-.25,0-.38s0-.38,0-.58a.45.45,0,0,0,0-.12v-.65a11,11,0,0,1,.05-1.46c0-.17,0-.33.08-.47.32-1.63,1.35-2.13,3.79-2a17.28,17.28,0,0,1,4.49.79,14,14,0,0,1,5.63,3.31,16.54,16.54,0,0,1,3.25,4.36l.1.19a62.52,62.52,0,0,1,3.47,8.12c4.6,13.12,9.17,26.23,16.41,38.22,8.39,13.87,18.45,25.92,33.89,32.38h0l0,0,.71.34.18.09c.31.14.68.31,1.14.5l.87.36.59.22.55.21h0l.61.23.69.24.68.23.73.23.8.25.84.25q2.57.76,6,1.52l.15,0,1,.2c1.23.26,2.53.5,3.91.74l1.15.19,1.38.21c1.67.25,3.46.47,5.34.66l1.11.11c.74.08,1.52.15,2.29.21l1.17.08c.89.07,1.79.13,2.72.18l2.23.1,2.08.07h.71l1.17,0h2.75l1.94,0,2.37,0,1.51-.05,1.52,0,1.42-.06,1.45-.07,1.85-.11,1.57-.11,1.44-.1.66-.06q.56,0,1.11-.09l1.37-.12,1.37-.13,1-.1,1.4-.14,1-.11,1.63-.19h0c1.23-.14,2.47-.3,3.74-.48,12.36-2.41,21.56-8.08,27.34-17.68a40.51,40.51,0,0,0,3.34-7h0a47.69,47.69,0,0,0,1.53-4.82q2.92-11.08,5-22.3,1.58-8.49,2.72-17.08a8.81,8.81,0,0,1,5.74-7.47c1.66-.7,3.39-1.29,5.11-1.82,2-.63,4.08-1.23,6.13-1.82,0,0,0,0,0,0h0C335.32,82.1,334.58,74.14,333.56,69.38ZM111.41,111l-.07.21c0,.13-.09.26-.14.38-.1.28-.2.56-.31.83a.75.75,0,0,1,0,.16,1.27,1.27,0,0,1-.06.18c0,.09-.07.19-.11.28l-.06.16c-.12.32-.25.64-.37,1l-.37.93c-.2.52-.41,1-.62,1.53l0,0a.73.73,0,0,1,0,.12c-.25.59-.5,1.16-.76,1.73-.17.37-.34.74-.52,1.11-.36.74-.72,1.48-1.1,2.19-.15.3-.3.58-.46.87s-.42.78-.64,1.16-.44.77-.66,1.14l-.5.82c-.26.4-.52.79-.77,1.19l-.65,1-.1.13c-.27.39-.54.76-.82,1.13s-.62.82-1,1.21l-.42.52-.55.64a3.45,3.45,0,0,1-.26.25,3,3,0,0,1-.25.23,14.92,14.92,0,0,1-1.36,1.1c-.11.09-.23.17-.35.25l-.38.27-.45.28c-.18.12-.37.24-.57.35a4.53,4.53,0,0,1-.48.27l-.09,0-.37.19c-.12.07-.24.14-.37.2l-.55.27c-.28.13-.57.26-.87.38h0l-.31.12-.55.21-.08,0c-.22.08-.43.16-.66.23l-.69.21c-.16,0-.33.1-.5.13l-.34.09c-.2.06-.4.1-.62.15l-.57.12h-.07l-.71.13-.21,0-.82.1h0l-.77.07h0l-.45,0h-.09l-.47,0H84.35l-.73,0-1.3-.12-.11,0-.63-.07-.58-.09-.8-.15c-.33-.06-.66-.12-1-.21l-1.09-.27s-.61-.16-1.68-.49l-.66-.2-.47-.16-.75-.24-.31-.12-.14,0-.66-.23-.7-.25c-.92-.33-1.94-.72-3-1.15l-.66-.26a.94.94,0,0,0-.15-.06c-.4-.18-.81-.34-1.23-.51l-.94-.41c-.75-.32-1.51-.67-2.3-1l-.78-.37c-.79-.38-1.59-.78-2.41-1.21-.52-.26-1-.54-1.57-.83-.8-.43-1.6-.89-2.4-1.37h0l-1.4-.85c-.4-.25-.8-.5-1.18-.76s-.58-.38-.88-.59l-.78-.53c-.28-.19-.54-.38-.81-.58s-.51-.37-.76-.56c-.42-.31-.83-.62-1.24-.95s-.78-.62-1.16-.93l-1-.84-.39-.35-.33-.29,0,0v0l-.09-.07-.21-.2-.2-.2-.26-.24-.46-.45c-.13-.12-.25-.25-.37-.37l-.75-.77h0c-.07-.06-.13-.14-.2-.21l-.19-.21c-.21-.23-.43-.47-.63-.71s-.57-.66-.84-1l-.16-.19c-.26-.33-.53-.67-.79-1h0q-.3-.39-.57-.78l-.57-.85c-.36-.55-.71-1.12-1-1.69-.1-.18-.21-.37-.3-.56a3.67,3.67,0,0,1-.26-.48c-.12-.23-.24-.48-.36-.72,0,0-.46-.73-1.2-2.18-.1-.18-.21-.39-.31-.61s-.31-.62-.47-1c-.27-.58-.57-1.22-.88-1.93a.5.5,0,0,1-.05-.13.11.11,0,0,1,0-.05h0a.15.15,0,0,1,0-.07c-.05-.1-.09-.21-.15-.32-.34-.81-.71-1.7-1.08-2.67l-.52-1.34c-.1-.27-.19-.56-.3-.85a1,1,0,0,1,0-.1s0,0,0,0l-.31-.89c-.26-.75-.52-1.54-.79-2.38-.1-.3-.19-.6-.29-.92q-.87-2.79-1.69-6.11c-.09-.36-.19-.74-.28-1.11l-.24-1,0-.14c-.09-.39-.17-.77-.26-1.17-.18-.8-.35-1.62-.52-2.46s-.32-1.66-.47-2.52a.64.64,0,0,1,0-.07c-.15-.84-.29-1.7-.43-2.58l-.15-1,0-.22a.22.22,0,0,1,0-.08s0-.07,0-.1c-.07-.46-.14-.92-.2-1.38,0-.1,0-.18,0-.27s0-.27,0-.41-.08-.56-.12-.85c-.06-.51-.12-1-.19-1.56s-.1-.86-.15-1.29-.12-1.1-.17-1.67c-.09-.92-.18-1.86-.26-2.82v-.12q-.08-.8-.12-1.59c-.05-.69-.1-1.39-.13-2.09s-.08-1.34-.11-2-.05-1.21-.07-1.82v-.12c0-.35,0-.71,0-1.07,0-.13,0-.28,0-.41,0-.29,0-.58,0-.86l0-1.76c0-1.48,0-3,0-4.52v-.09c0-.11,0-.34,0-.64,0-.1,0-.21,0-.33v0a1.46,1.46,0,0,1,0-.29c0-.14,0-.3,0-.46v0c0-.14,0-.26.05-.41s0-.31.07-.48a2.07,2.07,0,0,1,0-.22c0-.23.09-.47.14-.71l.12-.47c0-.16.09-.33.14-.5l.1-.3a1.46,1.46,0,0,0,.07-.19l.14-.39c.05-.13.1-.26.16-.38l.12-.26c.07-.17.15-.33.24-.51s.19-.34.28-.5l.06-.11c.09-.14.18-.26.26-.4a1,1,0,0,0,.11-.17l.07-.08.37-.48h0l.08-.1.32-.37h0a5.93,5.93,0,0,1,.43-.44l0,0,.4-.36.18-.15,0,0,.11-.08.32-.23c.19-.14.39-.27.59-.39s.37-.22.57-.32l.17-.08.19-.1.25-.11.16-.07.43-.17.32-.12.48-.15.68-.18.13,0,.14,0,.2,0,.6-.1.31-.05.32,0h0c.11,0,.23,0,.35,0l.28,0q.32,0,.66,0a24.88,24.88,0,0,1,5.33.43l.14,0h.19l.4.06.44,0h.1l.65.09,1.59.22h0l1,.15.66.1.52.08.42.07.12,0,.69.1.73.12.28,0,.15,0,.16,0a.41.41,0,0,0,.16,0h0l.46.09c.41.06.84.14,1.28.22l.7.12,1.46.26a.34.34,0,0,0,.14,0l1,.18.74.15.1,0,.36.07.82.16.83.16.24.06.5.09c1.42.29,2.9.6,4.43.94l1.94.43c1.71.39,3.49.81,5.32,1.26l1.82.46,2.1.55c1.58.41,3.21.86,4.85,1.33a3.17,3.17,0,0,1,.41.12c.41.1.83.22,1.25.35l.16,0c1,.27,1.9.56,2.85.85l.24.08.73.22c1.34.42,2.69.85,4.06,1.3,1,.33,2,.68,3.08,1l1.55.55,1.55.55.54.19L100,51c.88.33,1.77.68,2.65,1l.48.18.63.26,1.45.59,2.09.88c.69.29,1.39.59,2.08.9h.06l0,0,.07,0,.09,0a1.33,1.33,0,0,1,.24.12l.18.09.41.22.24.14.25.16.26.17.28.19.1.07.39.29.42.33.32.27.33.29.33.31.33.33.24.25c.16.16.32.34.48.53s.25.28.37.44.34.44.52.68l.26.36.24.37c.08.12.16.24.23.36s.15.24.22.36l.08.14a.47.47,0,0,1,.07.12l.08.13.19.38.11.21.29.6a1.47,1.47,0,0,1,.07.17c.11.22.2.46.3.71s.22.57.32.86h0c.08.24.17.48.23.73l0,.07v0c.07.23.13.46.19.7,0,0,0,0,0,.06a1.6,1.6,0,0,1,0,.21,2.25,2.25,0,0,1,0,.22h0s0,0,0,0,0,0,0,0v0c.06.26.12.53.16.81h0c.07.33.12.67.18,1s.09.84.14,1.27,0,.74.07,1.13h0c0,.4,0,.8,0,1.23,0,.89-.05,1.81-.13,2.78a1.16,1.16,0,0,1,0,.13c0,.11,0,.3,0,.55l0,.29c0,.2,0,.45-.06.72s-.06.57-.09.9c-.06.54-.13,1.16-.2,1.84,0,.32-.08.65-.12,1a.77.77,0,0,0,0,.15l-.09.71c0,.13,0,.26,0,.39-.17,1.29-.37,2.74-.61,4.31-.06.38-.12.76-.18,1.16s-.18,1-.27,1.53c0,.26-.09.52-.13.79s-.09.53-.15.8c-.1.62-.22,1.26-.35,1.9-.17.85-.34,1.72-.53,2.61-.13.61-.26,1.21-.39,1.83-.08.33-.15.67-.24,1s-.16.76-.26,1.14-.18.76-.28,1.14a.19.19,0,0,1,0,.08l-.27,1.07c-.22.89-.46,1.78-.71,2.68-.13.48-.27,1-.41,1.43s-.29,1-.44,1.46c-.08.25-.15.5-.23.74s-.15.48-.22.73c-.15.48-.31,1-.47,1.44Z"/>
        <path class="cls-7" d="M116.73,127.89q-1.68,2.64-3.59,5.18a32.77,32.77,0,0,1-15.89,12,41.32,41.32,0,0,1-11.62,1l-.06-.15a34.64,34.64,0,0,0,11.66-8.57h0c.57-.64,1.13-1.29,1.68-2a104,104,0,0,0,12.71-20.91Z"/>
      </g>
    </g>
  </g>
</svg>
