<svg id="Layer_1" data-name="Layer 1" xmlns="http://www.w3.org/2000/svg" width="370.09" height="266.55" viewBox="0 0 370.09 266.55">
  <defs>
    <style>
      .cls-1 {
        fill: #ff0;
      }

      .cls-2, .cls-6 {
        fill: #ace543;
      }

      .cls-2, .cls-8 {
        stroke: #617731;
      }

      .cls-2, .cls-7, .cls-8 {
        stroke-miterlimit: 10;
      }

      .cls-3, .cls-4 {
        fill: #fff;
      }

      .cls-3 {
        opacity: 0.3;
      }

      .cls-5 {
        opacity: 0.05;
      }

      .cls-7, .cls-9 {
        fill: #207a08;
      }

      .cls-7 {
        stroke: #464f2c;
      }

      .cls-8 {
        fill: #6bbf35;
      }
    </style>
  </defs>
  <g>
    <path class="cls-1" d="M154.76,264.11a41.86,41.86,0,0,1-35.42-19.58c-.27.35-.55.69-.83,1l-.33.4c-.72.83-1.47,1.61-2.37,2.49-.25.25-.5.48-.76.72-.79.73-1.55,1.39-2.32,2l-.3.25c-1,.75-1.9,1.41-3,2.13l-.8.51c-1.06.65-2,1.19-3,1.68l-.27.13c-1,.51-2.13,1-3.39,1.5l-.84.32c-1.36.5-2.5.87-3.64,1.18a41.51,41.51,0,0,1-8.37,1.36c-.84.06-1.69.08-2.53.08a41.63,41.63,0,0,1-5.69-.39A42.35,42.35,0,0,1,73.06,258,41.72,41.72,0,0,1,56.7,247.66c-.64.21-1.26.4-1.88.56A41.81,41.81,0,0,1,4.89,222.76c-.5-1.32-.94-2.68-1.31-4.06-.31-1.15-.58-2.37-.81-3.74l-.13-.73c-.19-1.24-.32-2.45-.4-3.63,0-.24,0-.44,0-.65-.05-1.15-.06-2.24,0-3.28,0-.19,0-.37,0-.56,0-1.14.14-2.29.3-3.53,0-.27.08-.58.12-.89.19-1.2.39-2.29.64-3.34.06-.25.12-.48.18-.71.25-1,.51-1.89.81-2.79l.28-.87c.34-1,.73-1.94,1.19-3l.46-1c.49-1,1-1.93,1.42-2.75.14-.25.29-.5.45-.76.51-.85,1-1.58,1.46-2.29l.1-.14c.18-.27.36-.53.55-.79.56-.77,1.11-1.49,1.69-2.18.15-.19.31-.37.48-.55a41.56,41.56,0,0,1,19.22-12.63s0-.49,0-.67c0-1.13.14-2.27.3-3.52,0-.32.08-.62.13-.93.17-1.17.38-2.25.62-3.3.07-.26.12-.49.19-.72.25-1,.52-1.9.81-2.81.11-.34.19-.6.28-.85.34-1,.73-1.93,1.18-3,.16-.36.32-.7.48-1,.47-1,.93-1.89,1.4-2.72.15-.27.29-.5.44-.74l.08-.13c.45-.76.92-1.48,1.41-2.2l.08-.13.56-.79c.55-.76,1.11-1.48,1.69-2.19.15-.18.31-.36.47-.53a41.49,41.49,0,0,1,20.8-13.09c1.11-.3,2.24-.55,3.38-.76.12-.43.26-.86.4-1.29s.19-.6.28-.85c.34-1,.73-1.94,1.18-3,.16-.36.31-.68.46-1,.49-1,.94-1.91,1.41-2.74l.46-.78.08-.13c.43-.71.9-1.45,1.39-2.16.25-.37.46-.67.67-1,.53-.73,1.09-1.45,1.67-2.15.15-.19.31-.36.47-.54a41.62,41.62,0,0,1,38-14c.05-.26.11-.52.17-.78s.12-.49.18-.72c.26-1,.52-1.9.82-2.81l.27-.82c.36-1,.74-2,1.2-3,.15-.34.31-.68.47-1,.47-1,.93-1.88,1.4-2.72.14-.25.29-.5.44-.75a.91.91,0,0,0,.08-.13c.45-.74.91-1.47,1.4-2.18l.08-.12.59-.84c.53-.72,1.08-1.45,1.67-2.15.15-.19.31-.37.48-.55A41.71,41.71,0,0,1,175,71.2a11.52,11.52,0,0,1,.18-2.62l.09-.47A12.17,12.17,0,0,1,174,61.45l0,0c-.7-.84-1.39-1.67-2-2.54a12,12,0,0,1,9.69-19.11,12.92,12.92,0,0,1,1.62.1l1.28,0a11.85,11.85,0,0,1,5.26-2.9,12.27,12.27,0,0,1,9.93-5.11,12.45,12.45,0,0,1,2.26.22l.82,0a12.17,12.17,0,0,1,8.41-3.35,13.45,13.45,0,0,1,1.69.11,11.69,11.69,0,0,1,2.7-.57,12.13,12.13,0,0,1,1.7-1.57,12.27,12.27,0,0,1,7.4-2.5,12.06,12.06,0,0,1,3.69.58q.56.07,1.11.18a3.8,3.8,0,0,0-.26-1.7A11.91,11.91,0,0,1,237.8,3.06a12.87,12.87,0,0,1,1.51.09c2.45.32,5.14.65,7.5.94A12.21,12.21,0,0,1,261,5.46a11.78,11.78,0,0,1,3.75-.61,11.93,11.93,0,0,1,9.13,4.26l1.33,1.59a11.92,11.92,0,0,1,7.23,5.85l.3.58.36-.26a11.94,11.94,0,0,1,6.79-2.12A12.19,12.19,0,0,1,296,16.47c1.94,1.09,3.54,2.09,4.87,3A12.13,12.13,0,0,1,309,24a11.8,11.8,0,0,1,5.61,4.36l1.08,1.55A11.76,11.76,0,0,1,318.1,31a12.34,12.34,0,0,1,4.18,3.63,12.71,12.71,0,0,1,1.25,2.17,12.31,12.31,0,0,1,7.53,9.68l.17.5a11.88,11.88,0,0,1,5.29,10.75l-.06,1a12.09,12.09,0,0,1,.8,1.29,11.92,11.92,0,0,1,.2,10.9c.07.36.13.72.17,1.08a11.88,11.88,0,0,1-3.09,9.51L333.17,83a11.87,11.87,0,0,1-4.36,8.12l-.32.26A11.93,11.93,0,0,1,323.18,97l-.43.22a12,12,0,0,1-4,4,25.81,25.81,0,0,1-3.54,1.72l2.63,1.52c3.75,2.17,7.63,4.42,11.43,7.05.64.44,1.27.89,1.9,1.35H333c6.29,0,12.73.23,19.12.69l.24,0a17.29,17.29,0,0,1,11.78,6.25,16.59,16.59,0,0,1,3.65,12.47,17,17,0,0,1-16.93,15h0c-.47,0-.95,0-1.42-.06-5.55-.39-11.12-.59-16.56-.59-7.17,0-14.35.35-21.46,1a41.76,41.76,0,0,1,0,20.54c-.06.31-.13.62-.22.93-.15.55-.32,1.09-.5,1.63l-.08.23c-.08.27-.17.55-.27.83-.33.94-.71,1.89-1.16,2.91-.15.36-.33.73-.51,1.11q-.58,1.26-1.26,2.46c-.16.29-.28.51-.41.73-.52.9-1.08,1.78-1.73,2.72l-.67.93c-.6.81-1.21,1.6-1.83,2.33l-.38.45c-.68.79-1.43,1.57-2.33,2.45l-.54.51c.09.28.16.57.24.85a41.71,41.71,0,0,1,.13,21.11c-.06.31-.13.61-.21.92-.15.52-.31,1-.48,1.55l-.11.33c-.09.28-.17.56-.27.83-.32.92-.7,1.87-1.15,2.9l-.51,1.11c-.4.84-.82,1.65-1.26,2.45l-.39.71c-.53.9-1.1,1.78-1.75,2.73-.24.35-.46.65-.69,1-.56.78-1.16,1.54-1.76,2.25-.15.19-.29.36-.44.52-.67.78-1.44,1.58-2.33,2.45-.27.27-.53.51-.79.75-.77.71-1.53,1.37-2.29,2l-.39.32c-.88.68-1.8,1.33-2.92,2.06l-.85.54c-1,.61-2,1.17-2.93,1.65l-.23.12c-1,.52-2.11,1-3.41,1.51l-.84.32c-1.36.5-2.51.87-3.65,1.18a42.22,42.22,0,0,1-10.88,1.44,41.4,41.4,0,0,1-14.94-2.77c-.18.23-.37.46-.56.68l-.43.52c-.68.78-1.45,1.59-2.34,2.46l-.77.73c-.78.73-1.55,1.39-2.33,2l-.46.38c-.79.61-1.74,1.28-2.83,2l-.87.55c-1,.6-1.94,1.15-2.89,1.63l-.15.08c-1.14.57-2.25,1.06-3.51,1.56l-.91.34c-1.3.48-2.45.85-3.59,1.16a42.17,42.17,0,0,1-10.88,1.44,41.91,41.91,0,0,1-17.29-3.76c-1.2-.55-2.4-1.17-3.55-1.83-1-.55-1.9-1.14-2.81-1.77-.51.7-1,1.35-1.57,2l-.45.54c-.67.77-1.42,1.55-2.32,2.44l-.74.69c-.81.75-1.57,1.42-2.35,2l-.45.36c-.81.64-1.74,1.29-2.85,2l-.8.5c-1.08.66-2.05,1.21-3,1.69l-.24.12c-1,.52-2.15,1-3.42,1.51l-.89.34c-1.26.46-2.45.85-3.59,1.15A41.72,41.72,0,0,1,154.76,264.11Z"/>
    <g id="Grapes">
      <g>
        <g>
          <circle class="cls-2" cx="270.93" cy="157.87" r="29.91"/>
          <ellipse class="cls-3" cx="277.3" cy="147.31" rx="14.95" ry="18.16" transform="translate(27.77 337.92) rotate(-65.35)"/>
          <path class="cls-4" d="M288.1,140.69c.6-.79-.19-2.39-1.75-3.58s-3.32-1.52-3.92-.74.19,2.39,1.76,3.58S287.51,141.47,288.1,140.69Z"/>
          <path class="cls-4" d="M281.07,135.23c.11-.34-.35-.79-1-1s-1.31-.13-1.42.21.34.78,1,1S281,135.56,281.07,135.23Z"/>
          <path class="cls-5" d="M299.75,165.85A29.9,29.9,0,0,1,248,138.73a29.91,29.91,0,1,0,51.8,27.12Z"/>
        </g>
        <g>
          <circle class="cls-6" cx="247.01" cy="104.57" r="29.91"/>
          <ellipse class="cls-3" cx="253.39" cy="94.01" rx="14.95" ry="18.16" transform="translate(62.27 285.1) rotate(-65.35)"/>
          <path class="cls-4" d="M264.18,87.39c.6-.79-.19-2.39-1.75-3.58s-3.32-1.52-3.91-.74.19,2.39,1.75,3.58S263.59,88.17,264.18,87.39Z"/>
          <path class="cls-4" d="M257.15,81.93c.11-.34-.35-.79-1-1s-1.31-.13-1.42.21.34.78,1,1S257,82.26,257.15,81.93Z"/>
          <path class="cls-5" d="M275.83,112.55A29.9,29.9,0,0,1,224,85.43a29.91,29.91,0,1,0,51.8,27.12Z"/>
        </g>
        <g>
          <circle class="cls-2" cx="238.3" cy="129.77" r="29.91" transform="translate(85.73 354.16) rotate(-84.36)"/>
          <ellipse class="cls-3" cx="244.68" cy="119.21" rx="14.95" ry="18.16" transform="translate(34.29 291.88) rotate(-65.35)"/>
          <path class="cls-4" d="M255.47,112.59c.6-.78-.19-2.38-1.75-3.57s-3.32-1.53-3.91-.74.19,2.38,1.75,3.57S254.88,113.37,255.47,112.59Z"/>
          <path class="cls-4" d="M248.44,107.13c.11-.34-.35-.79-1-1s-1.31-.13-1.42.21.34.79,1,1S248.33,107.46,248.44,107.13Z"/>
          <path class="cls-5" d="M267.12,137.76a29.91,29.91,0,0,1-51.8-27.13,29.91,29.91,0,1,0,51.8,27.13Z"/>
        </g>
        <g>
          <circle class="cls-2" cx="198.66" cy="105.77" r="29.91" transform="translate(-23.88 139.36) rotate(-36.62)"/>
          <ellipse class="cls-3" cx="205.04" cy="95.21" rx="14.95" ry="18.16" transform="translate(33 241.86) rotate(-65.35)"/>
          <path class="cls-4" d="M215.83,88.59c.6-.78-.19-2.38-1.75-3.58s-3.32-1.52-3.91-.74.19,2.39,1.75,3.58S215.24,89.37,215.83,88.59Z"/>
          <path class="cls-4" d="M208.8,83.13c.11-.34-.35-.79-1-1s-1.31-.13-1.42.21.35.79,1,1S208.69,83.46,208.8,83.13Z"/>
          <path class="cls-5" d="M227.48,113.76a29.9,29.9,0,0,1-51.79-27.13,29.91,29.91,0,1,0,51.79,27.13Z"/>
        </g>
        <g>
          <circle class="cls-2" cx="211.96" cy="212.81" r="29.91" transform="matrix(0.97, -0.26, 0.26, 0.97, -47.99, 62.34)"/>
          <ellipse class="cls-3" cx="218.33" cy="202.25" rx="14.95" ry="18.16" transform="translate(-56.54 316.35) rotate(-65.35)"/>
          <path class="cls-4" d="M229.13,195.63c.6-.79-.19-2.39-1.75-3.58s-3.32-1.52-3.92-.74.19,2.39,1.76,3.58S228.54,196.41,229.13,195.63Z"/>
          <path class="cls-4" d="M222.1,190.17c.11-.34-.35-.79-1-1s-1.31-.13-1.42.21.34.78,1,1S222,190.5,222.1,190.17Z"/>
          <path class="cls-5" d="M240.78,220.79A29.9,29.9,0,0,1,189,193.67a29.91,29.91,0,1,0,51.8,27.12Z"/>
        </g>
        <g>
          <circle class="cls-2" cx="219.61" cy="167.24" r="29.91"/>
          <ellipse class="cls-3" cx="225.99" cy="156.68" rx="14.95" ry="18.16" transform="translate(-10.66 296.74) rotate(-65.35)"/>
          <path class="cls-5" d="M248.44,175.23a29.91,29.91,0,0,1-51.8-27.13,29.91,29.91,0,1,0,51.8,27.13Z"/>
        </g>
        <g>
          <circle class="cls-2" cx="259.41" cy="200.05" r="29.91" transform="translate(-63.16 142.95) rotate(-27.6)"/>
          <ellipse class="cls-3" cx="265.79" cy="189.49" rx="14.95" ry="18.16" transform="translate(-17.28 352.04) rotate(-65.35)"/>
          <path class="cls-5" d="M288.23,208a29.91,29.91,0,0,1-51.8-27.13A29.91,29.91,0,1,0,288.23,208Z"/>
        </g>
        <g>
          <circle class="cls-2" cx="153.25" cy="106.92" r="29.91" transform="translate(-32.77 89.2) rotate(-29.46)"/>
          <ellipse class="cls-3" cx="159.63" cy="96.36" rx="14.95" ry="18.16" transform="translate(5.48 201.26) rotate(-65.35)"/>
          <path class="cls-5" d="M182.07,114.91a29.9,29.9,0,0,1-51.79-27.13,29.91,29.91,0,1,0,51.79,27.13Z"/>
        </g>
        <g>
          <circle class="cls-2" cx="105.98" cy="139.54" r="29.91" transform="translate(-43.31 231.29) rotate(-84.36)"/>
          <ellipse class="cls-3" cx="112.35" cy="128.98" rx="14.95" ry="18.16" transform="translate(-51.73 177.31) rotate(-65.35)"/>
          <path class="cls-5" d="M134.8,147.53A29.91,29.91,0,0,1,83,120.4a29.91,29.91,0,1,0,51.8,27.13Z"/>
        </g>
        <g>
          <circle class="cls-2" cx="154.77" cy="222.29" r="29.91" transform="translate(-23.12 18.03) rotate(-6.2)"/>
          <ellipse class="cls-3" cx="161.15" cy="211.73" rx="14.95" ry="18.16" transform="translate(-98.49 269.9) rotate(-65.35)"/>
          <path class="cls-4" d="M172,205.1c.59-.78-.19-2.38-1.76-3.57s-3.31-1.52-3.91-.74.19,2.38,1.76,3.57S171.35,205.89,172,205.1Z"/>
          <path class="cls-4" d="M164.91,199.64c.11-.33-.34-.79-1-1s-1.31-.12-1.42.21.35.79,1,1S164.8,200,164.91,199.64Z"/>
          <path class="cls-5" d="M183.6,230.27a29.9,29.9,0,0,1-51.8-27.12,29.91,29.91,0,1,0,51.8,27.12Z"/>
        </g>
        <g>
          <circle class="cls-2" cx="43.96" cy="207.84" r="29.91"/>
          <ellipse class="cls-3" cx="50.34" cy="197.28" rx="14.95" ry="18.16" transform="translate(-149.96 160.76) rotate(-65.35)"/>
          <path class="cls-4" d="M61.14,190.65c.59-.78-.19-2.38-1.76-3.57s-3.32-1.52-3.91-.74.19,2.38,1.75,3.57S60.54,191.44,61.14,190.65Z"/>
          <path class="cls-4" d="M54.1,185.19c.11-.33-.34-.79-1-1s-1.31-.12-1.42.21.35.79,1,1S54,185.53,54.1,185.19Z"/>
          <path class="cls-5" d="M72.78,215.82A29.9,29.9,0,0,1,21,188.7a29.9,29.9,0,1,0,51.79,27.12Z"/>
        </g>
        <g>
          <circle class="cls-2" cx="86.65" cy="218.49" r="29.91"/>
          <ellipse class="cls-3" cx="93.02" cy="207.92" rx="14.95" ry="18.16" transform="translate(-134.75 205.76) rotate(-65.35)"/>
          <ellipse class="cls-4" cx="100.99" cy="199.14" rx="1.78" ry="3.56" transform="translate(-118.64 158.89) rotate(-52.73)"/>
          <path class="cls-4" d="M96.79,195.84c.11-.34-.35-.79-1-1s-1.31-.13-1.42.21.34.79,1,1S96.67,196.18,96.79,195.84Z"/>
          <path class="cls-5" d="M115.47,226.47a29.91,29.91,0,0,1-51.8-27.13,29.91,29.91,0,1,0,51.8,27.13Z"/>
        </g>
        <g>
          <circle class="cls-2" cx="73.33" cy="168.97" r="29.91"/>
          <ellipse class="cls-3" cx="79.71" cy="158.41" rx="14.95" ry="18.16" transform="translate(-97.51 164.79) rotate(-65.35)"/>
          <path class="cls-5" d="M102.15,177a29.9,29.9,0,0,1-51.79-27.12A29.9,29.9,0,1,0,102.15,177Z"/>
        </g>
        <g>
          <circle class="cls-6" cx="120.59" cy="193.87" r="29.91"/>
          <ellipse class="cls-3" cx="126.96" cy="183.31" rx="14.95" ry="18.16" transform="translate(-92.59 222.26) rotate(-65.35)"/>
          <path class="cls-4" d="M137.76,176.69c.6-.78-.19-2.38-1.76-3.58s-3.31-1.52-3.91-.74.19,2.39,1.76,3.58S137.16,177.47,137.76,176.69Z"/>
          <path class="cls-4" d="M130.73,171.23c.11-.34-.35-.79-1-1s-1.31-.13-1.42.21.34.79,1,1S130.61,171.56,130.73,171.23Z"/>
          <path class="cls-5" d="M149.41,201.86a29.91,29.91,0,0,1-51.8-27.13,29.91,29.91,0,1,0,51.8,27.13Z"/>
        </g>
        <g>
          <circle class="cls-2" cx="149.95" cy="155" r="29.91"/>
          <ellipse class="cls-3" cx="156.33" cy="144.44" rx="14.95" ry="18.16" transform="translate(-40.14 226.29) rotate(-65.35)"/>
          <path class="cls-5" d="M178.78,163A29.91,29.91,0,0,1,127,135.86,29.91,29.91,0,1,0,178.78,163Z"/>
        </g>
        <g>
          <circle class="cls-2" cx="173.24" cy="192.25" r="29.91" transform="translate(-67.12 96.34) rotate(-26.22)"/>
          <ellipse class="cls-3" cx="179.62" cy="181.69" rx="14.95" ry="18.16" transform="translate(-60.42 269.18) rotate(-65.35)"/>
          <path class="cls-4" d="M183.38,169.6c.11-.33-.34-.79-1-1s-1.31-.12-1.42.21.35.79,1,1S183.27,169.94,183.38,169.6Z"/>
          <path class="cls-5" d="M202.07,200.23a29.9,29.9,0,0,1-51.8-27.12,29.91,29.91,0,1,0,51.8,27.12Z"/>
        </g>
        <g>
          <circle class="cls-2" cx="195.16" cy="142.11" r="29.91" transform="translate(-30.21 55.55) rotate(-15.05)"/>
          <ellipse class="cls-3" cx="201.54" cy="131.55" rx="14.95" ry="18.16" transform="translate(-2.07 259.86) rotate(-65.35)"/>
          <path class="cls-4" d="M212.33,124.93c.6-.79-.19-2.39-1.75-3.58s-3.32-1.52-3.91-.74.19,2.39,1.75,3.58S211.74,125.71,212.33,124.93Z"/>
          <path class="cls-4" d="M205.3,119.47c.11-.34-.35-.79-1-1s-1.31-.13-1.42.21.34.78,1,1S205.19,119.8,205.3,119.47Z"/>
          <path class="cls-5" d="M224,150.09A29.9,29.9,0,0,1,172.18,123,29.91,29.91,0,1,0,224,150.09Z"/>
        </g>
      </g>
      <g id="Leaf">
        <path class="cls-7" d="M254,143.2h0a5.06,5.06,0,0,1,3.24-6.46,244.09,244.09,0,0,1,94.07-11.4,5,5,0,0,1,4.68,5.49h0a5.1,5.1,0,0,1-5.59,4.43,233.36,233.36,0,0,0-89.9,10.91A5.12,5.12,0,0,1,254,143.2Z"/>
        <g id="Leaf-2" data-name="Leaf">
          <path class="cls-8" d="M280.15,99.75a2.25,2.25,0,0,0,.14.48c.22.6.45,1.19.61,1.81a12.5,12.5,0,0,1,.35,4.26c-.06.56-.25,1.08-.32,1.63-.47,3.45,4.18,7.08,4.18,7.08a23.46,23.46,0,0,1,9.14,14.13l-1.47.55a.14.14,0,0,0-.09.16l1.2,6-1,0a.24.24,0,0,0-.24.24v5.47s-2-.39-2.2-.5-1.55,9.31-1.55,9.31l-2.13-.67a.91.91,0,0,0-1.13.55l-2.17,5.74-1.28-1.43a.81.81,0,0,0-1.14,0l-5.71,5.31-1.62-1.53a.72.72,0,0,0-.74-.16l-8,2.8-.55-1.58a.77.77,0,0,0-.83-.51l-8.43,1-.46-1.67a.88.88,0,0,0-.91-.64l-7.83.57-.13-1.22a.73.73,0,0,0-.7-.65l-5.45-.2-.28-1.45a.46.46,0,0,0-.52-.37c-2.17.31-8.95-2.46-8.95-2.46l7.54-5.41-.32-1.18c2.85-2.3,6.4-5.35,7.25-9.13.21-.91.28-1.95-.66-2.5-1.21-.72-2.83.65-3.82,1.31a36,36,0,0,0-3.84,3c-.09-.5-.19-1-.27-1.52a.2.2,0,0,0-.3-.15,41.53,41.53,0,0,1-3.92,2c-2.56,1.14-5.21,2.07-7.81,3.12-.1-.73,0-1.86-.79-2.26s-1.24,0-1.85.18c-2,.55-4,1-6,1.38l-.07-1.5a.58.58,0,0,0-.56-.55l-8.07-.14s-.27-2.15-.35-2.44c-1.12-4.05-8.63-5.39-8.63-5.39a2.69,2.69,0,0,0,1.34-1.48c.11-.18-10.68-10.52-10.68-10.52,10.4.93,17-12,17-12,16.06-1.51,20.06-5.81,21.06-8a1.93,1.93,0,0,0-.62-2.38c-4.21-3-16.28,4.76-16.28,4.76l-.64-1.18a1,1,0,0,0-1-.52c-7.72.92-11-4.47-11-4.47.81-.55,2-1.59,1.83-2.69a2.58,2.58,0,0,0-.28-.85,18.56,18.56,0,0,0-3.73-4.9l.41-.72a.63.63,0,0,0-.08-.75l-3.08-3.32,1.14-1.19a1.21,1.21,0,0,0,.09-1.57l-6-8.13c3.75-1.35-1-8.28-1-8.28a4.05,4.05,0,0,0,.38-4.26c-1.23-2.43-3.23-4.37-4.85-6.53,2.72,0,5.5.36,8.19-.22a4,4,0,0,0,3.07-3s8.39-.64,7.09-4.4l10.08-.45a1.22,1.22,0,0,0,1.16-1.07l.22-1.63,4.51.31a.65.65,0,0,0,.64-.41l.3-.77a18.67,18.67,0,0,0,6.15-.18,2.52,2.52,0,0,0,.84-.32c.93-.59,1-2.13.94-3.11,0,0,6.26-.83,10.4,5.75a1,1,0,0,0,1,.45l1.33-.24S239,56.7,243.93,58.11a1.92,1.92,0,0,0,2.24-1c1.05-2.13,1.88-8-7-21.39,0,0,5.92-13.23-1.34-20.74,0,0,14.82,1.89,14.9,1.69a2.72,2.72,0,0,0,.31-2s5.76,5,9.6,3.33c.29-.13,2.13-1.26,2.13-1.26l5.18,6.18a.57.57,0,0,0,.78.1l1.21-.9c1,1.85,1.87,3.64,2.7,5.56.24.57.4,1.28,1,1.55s1.61-.43,2.25-.81c.81,2.68,1.75,5.32,2.47,8a40,40,0,0,1,.89,4.33.2.2,0,0,0,.3.14c.45-.27.91-.5,1.36-.75a37.7,37.7,0,0,0,.07,4.87c.12,1.18.06,3.31,1.39,3.8,1,.38,1.78-.32,2.36-1.06,2.4-3,2.55-7.71,2.54-11.37l1.12-.49-.52-9.27s6.41,3.53,7.53,5.42a.45.45,0,0,0,.61.16l1.31-.69,3.58,4.12a.73.73,0,0,0,1,.13l1-.66,4.48,6.45a.86.86,0,0,0,1.06.3l1.59-.69,4.52,7.19a.77.77,0,0,0,.92.32l1.58-.56,2.82,8a.72.72,0,0,0,.59.48l2.21.29-.55,7.78a.81.81,0,0,0,.76.86l1.92.1-3.11,5.29a.91.91,0,0,0,.28,1.22l1.86,1.24s-6.47,7-6.27,7,1.78,1.4,1.78,1.4l-4.26,3.44a.25.25,0,0,0,0,.34l.63.81-5.46,2.86a.15.15,0,0,0-.07.17l.49,1.49a23.42,23.42,0,0,1-16.72,1.77s-5.75-1.34-8.14,1.2a6.71,6.71,0,0,1-.74.93,11.81,11.81,0,0,1-3.28,2.46,13.25,13.25,0,0,1-1.93.84c-.48.16-1.29.25-1.57.73A1.34,1.34,0,0,0,280.15,99.75Z"/>
          <path class="cls-9" d="M185.9,62.83a.31.31,0,0,1,0-.23.33.33,0,0,1,.4-.24c6.62,1.72,12.87.73,18.06-2.86a.32.32,0,1,1,.37.53c-5.35,3.7-11.78,4.73-18.6,3A.32.32,0,0,1,185.9,62.83Z"/>
          <path class="cls-9" d="M186.88,70.89a.34.34,0,0,1,0-.2.33.33,0,0,1,.38-.27,42.06,42.06,0,0,0,29.49-5.69.32.32,0,0,1,.44.11.31.31,0,0,1-.1.44,42.73,42.73,0,0,1-29.95,5.78A.31.31,0,0,1,186.88,70.89Z"/>
          <path class="cls-9" d="M191.42,81.84a.29.29,0,0,1,0-.16.32.32,0,0,1,.34-.31,60,60,0,0,0,37.39-10.81.33.33,0,0,1,.45.08.32.32,0,0,1-.08.45A60.62,60.62,0,0,1,191.69,82,.33.33,0,0,1,191.42,81.84Z"/>
          <path class="cls-9" d="M196.69,94.94a.25.25,0,0,1,0-.17.32.32,0,0,1,.34-.3,12.7,12.7,0,0,0,3.07-.25l.88-.14c1.28-.19,2.59-.42,3.88-.68a72.5,72.5,0,0,0,7.63-2A73.74,73.74,0,0,0,226.86,85a72.23,72.23,0,0,0,12.71-9.29.31.31,0,0,1,.46,0,.32.32,0,0,1,0,.45,73.08,73.08,0,0,1-12.82,9.39A75.31,75.31,0,0,1,212.66,92a77.13,77.13,0,0,1-7.7,2c-1.31.26-2.63.49-3.92.68l-.87.14a13.23,13.23,0,0,1-3.22.26A.33.33,0,0,1,196.69,94.94Z"/>
          <path class="cls-9" d="M226.21,97.4a.42.42,0,0,1,0-.1.33.33,0,0,1,.27-.37A51.12,51.12,0,0,0,254,83.23a.32.32,0,1,1,.45.46,51.64,51.64,0,0,1-27.91,13.88A.32.32,0,0,1,226.21,97.4Z"/>
          <path class="cls-7" d="M188.52,118.88c0,.08.56.33,1.72.75l1,.35c.36.12.77.2,1.21.32a29.88,29.88,0,0,0,3,.65l1.84.28c.64.1,1.32.12,2,.18,1.43.15,3,.15,4.64.18a82,82,0,0,0,11.25-1,144.46,144.46,0,0,0,28.18-7.92,239.12,239.12,0,0,0,32.38-15.34l-1.17-2C252.71,107.73,231.13,116,214.94,119a87.83,87.83,0,0,1-11,1.3c-1.63,0-3.15.1-4.54,0-.7,0-1.37,0-2-.09l-1.8-.17c-1.15-.07-2.15-.31-3-.43-.43-.08-.84-.12-1.2-.21l-1-.23A6.37,6.37,0,0,0,188.52,118.88Z"/>
          <path class="cls-7" d="M229.92,151.67c0,.08.56.08,1.61,0l1.93-.18c.77-.06,1.63-.27,2.61-.44l1.55-.3c.55-.11,1.1-.29,1.69-.44l1.84-.51c.63-.18,1.27-.45,1.94-.68a42.56,42.56,0,0,0,8.69-4.27,44.3,44.3,0,0,0,9-7.54,54.08,54.08,0,0,0,7.77-11,68.81,68.81,0,0,0,5.55-13.81,77.25,77.25,0,0,0,1.79-7.67,65.28,65.28,0,0,0,1-8.09l-2.3-.08a67.55,67.55,0,0,1-.95,7.77c-.46,2.55-1,5-1.7,7.46a68.53,68.53,0,0,1-5.26,13.42A53.51,53.51,0,0,1,259.39,136a44.5,44.5,0,0,1-8.5,7.46,44,44,0,0,1-8.26,4.42c-.65.26-1.26.55-1.87.75l-1.76.59c-.57.18-1.1.39-1.63.53l-1.5.39c-1,.23-1.78.52-2.53.64l-1.88.4C230.45,151.43,229.91,151.59,229.92,151.67Z"/>
          <path class="cls-9" d="M239.83,93.37a.29.29,0,0,1,0-.24.32.32,0,0,1,.41-.21,35.75,35.75,0,0,1,13.61,7.94,18.79,18.79,0,0,1,3.36,4.08.31.31,0,0,1-.1.44.32.32,0,0,1-.45-.11,18.24,18.24,0,0,0-3.25-3.93A35,35,0,0,0,240,93.54.35.35,0,0,1,239.83,93.37Z"/>
          <path class="cls-9" d="M224.92,100.31a.34.34,0,0,1,0-.2.33.33,0,0,1,.37-.27c16.63,2.34,21.32,9.63,21.51,9.94a.34.34,0,0,1-.11.45.32.32,0,0,1-.44-.11c-.05-.07-4.76-7.35-21.05-9.64A.31.31,0,0,1,224.92,100.31Z"/>
          <path class="cls-9" d="M213.15,105.61a.28.28,0,0,1,0-.13.32.32,0,0,1,.3-.34c9-.45,20.61,7.91,21.09,8.27a.32.32,0,0,1,.08.45.33.33,0,0,1-.46.08c-.12-.09-11.89-8.59-20.67-8.15A.33.33,0,0,1,213.15,105.61Z"/>
          <path class="cls-9" d="M204.58,107.5a.34.34,0,0,1,0-.2.33.33,0,0,1,.37-.27,29.75,29.75,0,0,1,18.52,10.55.32.32,0,1,1-.49.41,29.16,29.16,0,0,0-18.12-10.32A.32.32,0,0,1,204.58,107.5Z"/>
          <path class="cls-9" d="M199.52,113.91a.34.34,0,0,1,0-.2.34.34,0,0,1,.38-.27c7.9,1.25,10,6.53,10.09,6.75a.33.33,0,0,1-.19.42.33.33,0,0,1-.42-.18c0-.06-2.07-5.16-9.59-6.35A.29.29,0,0,1,199.52,113.91Z"/>
          <path class="cls-9" d="M197.63,130.91v0a.33.33,0,0,1,.16-.43c11.27-4.9,10.88-10,10.88-10a.32.32,0,1,1,.64-.08c0,.23.51,5.6-11.26,10.72A.32.32,0,0,1,197.63,130.91Z"/>
          <path class="cls-9" d="M206.13,138.5a.33.33,0,0,1,.1-.41c14.79-11.07,16-20.09,16-20.18a.32.32,0,1,1,.64.07c0,.38-1.21,9.36-16.25,20.63a.32.32,0,0,1-.46-.07Z"/>
          <path class="cls-9" d="M215,140.8a.32.32,0,0,1,.07-.38c15.94-15.18,19.37-26.07,19.4-26.17a.34.34,0,0,1,.41-.22.31.31,0,0,1,.21.4c0,.11-3.51,11.16-19.57,26.46a.33.33,0,0,1-.46,0Z"/>
          <path class="cls-9" d="M223.49,141.63a.34.34,0,0,1,.06-.39c11-10.39,21.95-30.4,22.06-30.6a.32.32,0,0,1,.44-.13.33.33,0,0,1,.13.44c-.11.2-11.08,20.3-22.18,30.77a.33.33,0,0,1-.46,0Z"/>
          <path class="cls-9" d="M236.73,125.36a.33.33,0,0,1,.1-.41c23.64-17.19,35.16-10.86,35.63-10.58a.32.32,0,1,1-.32.56c-.11-.06-11.67-6.36-34.93,10.55a.33.33,0,0,1-.45-.07Z"/>
          <path class="cls-9" d="M243.35,133.76a.32.32,0,0,1,.08-.4c15.86-13.09,24.62-9.25,25-9.08a.32.32,0,0,1,.15.43.31.31,0,0,1-.43.16c-.08,0-8.8-3.8-24.29,9a.32.32,0,0,1-.46,0Z"/>
          <path class="cls-9" d="M236.85,145.23v0a.33.33,0,0,1,.17-.43c13.53-5.73,17.58-5.48,18.79-4.83a1,1,0,0,1,.56.64.32.32,0,0,1-.64.11.8.8,0,0,0-.34-.23c-1-.42-4.7-.77-18.12,4.91A.33.33,0,0,1,236.85,145.23Z"/>
          <path class="cls-9" d="M254.94,160.2a.33.33,0,0,1,0-.32c5.66-9.12,1.4-19.5,1.35-19.6a.33.33,0,0,1,.18-.43.32.32,0,0,1,.42.17c.05.11,4.44,10.8-1.4,20.21a.31.31,0,0,1-.44.1A.37.37,0,0,1,254.94,160.2Z"/>
          <path class="cls-9" d="M275.18,160a.33.33,0,0,1,0-.24c4.62-15.87-7.58-33.66-7.7-33.84a.32.32,0,0,1,.08-.45.31.31,0,0,1,.45.08c.13.18,12.5,18.22,7.8,34.39a.32.32,0,0,1-.4.22A.29.29,0,0,1,275.18,160Z"/>
          <path class="cls-9" d="M272.37,115.43a.3.3,0,0,1,0-.35.32.32,0,0,1,.46,0,91.29,91.29,0,0,1,20.07,26.18l.12.22a.33.33,0,0,1-.14.44.32.32,0,0,1-.43-.14h0l-.12-.23a90.73,90.73,0,0,0-19.92-26A.27.27,0,0,1,272.37,115.43Z"/>
          <path class="cls-9" d="M204.29,59.14a.33.33,0,0,1,0-.24c0-.11,3-10.84-4.68-14.48a.32.32,0,0,1-.15-.43.32.32,0,0,1,.43-.16c8.18,3.88,5.06,15.14,5,15.25a.33.33,0,0,1-.6.06Z"/>
          <path class="cls-9" d="M216.85,64.83a.26.26,0,0,1,0-.21c0-.18,3.19-17.59-5.79-23.4a.32.32,0,0,1,.36-.54c9.34,6,6.2,23.33,6.06,24.06a.33.33,0,0,1-.38.26A.32.32,0,0,1,216.85,64.83Z"/>
          <path class="cls-9" d="M229,70.49a.28.28,0,0,1,0-.2c0-.22,3.95-22.53-4.55-33.67a.31.31,0,0,1,.06-.45.32.32,0,0,1,.45.06c8.69,11.38,4.72,34,4.68,34.17a.32.32,0,0,1-.37.27A.31.31,0,0,1,229,70.49Z"/>
          <path class="cls-9" d="M239.59,76a.33.33,0,0,1,0-.33c.07-.1,7.09-10.5,4.09-17.48a.32.32,0,0,1,.17-.42.33.33,0,0,1,.43.17c3.14,7.3-3.86,17.66-4.16,18.1a.33.33,0,0,1-.45.08A.29.29,0,0,1,239.59,76Z"/>
          <path class="cls-7" d="M239.14,15.79c0,.07.43.51,1.38,1.28l1.77,1.41c.71.53,1.46,1.25,2.35,2a81.59,81.59,0,0,1,25.82,40.18,98,98,0,0,1,3.26,16.73c.31,2.94.5,6,.55,9a74.75,74.75,0,0,1-.38,9.22l2.29.31a73.9,73.9,0,0,0,.38-9.57c-.05-3.13-.26-6.2-.59-9.21A97.84,97.84,0,0,0,272.5,60a83.08,83.08,0,0,0-13.28-26.25,75.4,75.4,0,0,0-14-14c-.94-.69-1.74-1.36-2.5-1.84l-1.91-1.24A6.27,6.27,0,0,0,239.14,15.79Z"/>
          <path class="cls-7" d="M289.86,26.66c-.06.05.19.56.73,1.48s1.43,2.21,2.35,4A49.88,49.88,0,0,1,298.67,48a39.71,39.71,0,0,1,.08,11.55l-.1.77-.15.78c-.11.52-.21,1-.32,1.57-.22,1.05-.55,2.09-.83,3.16a47.61,47.61,0,0,1-2.54,6.36,57.83,57.83,0,0,1-8.12,12.27,71.71,71.71,0,0,1-5.4,5.67,64.31,64.31,0,0,1-6.16,5.12l1.31,1.9a64.22,64.22,0,0,0,6.43-5.35,69.35,69.35,0,0,0,5.54-5.88,58.13,58.13,0,0,0,8.32-12.82,48.93,48.93,0,0,0,2.56-6.68c.28-1.13.61-2.23.82-3.34l.3-1.65.15-.81.09-.82a40.7,40.7,0,0,0-.37-12.08,46.27,46.27,0,0,0-6.57-16A33.73,33.73,0,0,0,291,27.87C290.31,27,289.93,26.61,289.86,26.66Z"/>
          <path class="cls-9" d="M252.89,83a.3.3,0,0,1,0-.29c.15-.29,14.4-29-12.12-53a.31.31,0,0,1,0-.45.32.32,0,0,1,.46,0C268.1,53.6,253.62,82.73,253.47,83a.32.32,0,0,1-.44.14A.32.32,0,0,1,252.89,83Z"/>
          <path class="cls-9" d="M256.72,68.67a.32.32,0,0,1,.06-.39.33.33,0,0,1,.46,0c8.41,8.76,17.4,7.88,17.49,7.87a.32.32,0,0,1,.07.64c-.09,0-9.39.94-18-8.06Z"/>
          <path class="cls-9" d="M256.48,57.6a.34.34,0,0,1,.06-.38.33.33,0,0,1,.46,0c5.87,6.06,13.91,1.78,14,1.73a.32.32,0,1,1,.31.57c-.08,0-8.55,4.57-14.76-1.85A.21.21,0,0,1,256.48,57.6Z"/>
          <path class="cls-9" d="M253.64,47.4a.31.31,0,0,1,0-.25.33.33,0,0,1,.41-.21c7.4,2.51,9.94-2.83,10-3.06a.31.31,0,0,1,.43-.16.33.33,0,0,1,.16.43c0,.06-2.88,6.11-10.85,3.41A.35.35,0,0,1,253.64,47.4Z"/>
          <path class="cls-9" d="M246.81,36.06a.39.39,0,0,1,0-.18.33.33,0,0,1,.36-.29c6,.54,7.62-5.69,7.64-5.75a.32.32,0,1,1,.63.15c0,.07-1.76,6.84-8.33,6.24A.32.32,0,0,1,246.81,36.06Z"/>
          <path class="cls-9" d="M255.25,30a.32.32,0,0,1,.06-.39c.21-.19,5-4.9-2.63-14.7a.32.32,0,0,1,.51-.4c8,10.3,2.79,15.36,2.57,15.57a.32.32,0,0,1-.46,0Z"/>
          <path class="cls-9" d="M264.51,43.41a.35.35,0,0,1,0-.3c.07-.14,7.08-14.34-1.56-25.22a.32.32,0,0,1,.05-.46.33.33,0,0,1,.46.06c8.9,11.2,1.7,25.77,1.63,25.92a.34.34,0,0,1-.44.14A.32.32,0,0,1,264.51,43.41Z"/>
          <path class="cls-9" d="M271.27,58.66a.3.3,0,0,1,0-.29c.08-.17,8.77-17.24,4.68-29a.32.32,0,0,1,.19-.41.33.33,0,0,1,.42.2c4.19,12-4.63,29.29-4.72,29.46a.31.31,0,0,1-.43.14A.27.27,0,0,1,271.27,58.66Z"/>
          <path class="cls-9" d="M274.92,75.89a.33.33,0,0,1,0-.32C275,75.38,286.35,57,284.13,49a.31.31,0,0,1,.23-.39.3.3,0,0,1,.39.22c2.3,8.29-8.8,26.31-9.27,27.07a.32.32,0,0,1-.45.1A.25.25,0,0,1,274.92,75.89Z"/>
          <path class="cls-9" d="M288.86,36.84a.32.32,0,0,1,.12-.43.33.33,0,0,1,.45.12c5.25,9.15,9.15,7.68,9.19,7.66a.32.32,0,0,1,.42.18.32.32,0,0,1-.17.42c-.18.08-4.43,1.78-10-7.94Z"/>
          <path class="cls-9" d="M298.61,45.28a.32.32,0,0,1,0-.34c0-.06,4.59-6.81.56-13.15a.34.34,0,0,1,.1-.45.33.33,0,0,1,.45.1c4.27,6.7-.53,13.8-.58,13.87a.32.32,0,0,1-.45.08A.38.38,0,0,1,298.61,45.28Z"/>
          <path class="cls-9" d="M299.53,51.69a.39.39,0,0,1,0-.24.32.32,0,0,1,.4-.22,8.16,8.16,0,0,0,5.21-.18c4-1.5,6.36-5.76,6.93-9.32a.32.32,0,0,1,.37-.27.33.33,0,0,1,.27.37c-.6,3.74-3.1,8.23-7.34,9.83a8.86,8.86,0,0,1-5.62.19A.36.36,0,0,1,299.53,51.69Z"/>
          <path class="cls-9" d="M298.5,64.59a.29.29,0,0,1,0-.16.32.32,0,0,1,.33-.32c.17,0,17.56.29,19.82-16a.32.32,0,0,1,.36-.28.33.33,0,0,1,.28.37c-2.34,16.91-20.3,16.61-20.48,16.6A.32.32,0,0,1,298.5,64.59Z"/>
          <path class="cls-9" d="M285.83,57.15a14.4,14.4,0,0,1-1.33-8,.33.33,0,1,1,.65.06c-.37,4,.53,7.26,2.67,9.77,3.86,4.51,10.49,5,10.55,5a.33.33,0,1,1,0,.65c-.28,0-7-.5-11-5.22A11.7,11.7,0,0,1,285.83,57.15Z"/>
          <path class="cls-9" d="M287.9,45.39A.32.32,0,0,1,288,45a.31.31,0,0,1,.43.13c2.29,4.33,7.45,6.12,11.52,6.36a.32.32,0,1,1,0,.64c-4.24-.24-9.64-2.13-12.05-6.69Z"/>
          <path class="cls-9" d="M292.32,78.05a.34.34,0,0,1,0-.28.32.32,0,0,1,.43-.16c.14.06,13.84,6.09,30.61-6.77a.32.32,0,0,1,.45.06.31.31,0,0,1-.06.45c-17.09,13.11-31.13,6.91-31.27,6.85A.36.36,0,0,1,292.32,78.05Z"/>
          <path class="cls-9" d="M282.77,70.61a17.46,17.46,0,0,1-1.8-6.54.34.34,0,0,1,.3-.36.33.33,0,0,1,.35.3c1,11.37,10.39,13.24,10.48,13.26a.32.32,0,1,1-.11.63A14.28,14.28,0,0,1,282.77,70.61Z"/>
          <path class="cls-7" d="M322.48,121.22c-4.89-3.39-10.23-6.23-15.33-9.29-9.3-5.57-18.89-10.67-28.14-16.32a465.35,465.35,0,0,0-48.9-26A378.46,378.46,0,0,0,194.9,55.48c-4.24-1.43-7.57-2.44-9.85-3a13.05,13.05,0,0,0-3.53-.74,15.65,15.65,0,0,0,3.32,1.4c2.2.83,5.45,2,9.6,3.66,8.31,3.24,20.26,8.16,34.63,15.06,4.22,2.39,8.79,4.3,13.1,6.53,7.19,3.71,14.25,7.65,21.23,11.72,4,2.3,7.86,4.65,11.77,7l6.29,3.82c7,4.26,14,8.4,20.88,12.83a94.6,94.6,0,0,1,13.17,9.75c.59.56,1.18,1.12,1.75,1.7q4.94-.32,9.91-.44Q324.89,122.88,322.48,121.22Z"/>
        </g>
      </g>
    </g>
  </g>
</svg>
