<svg id="Layer_1" data-name="Layer 1" xmlns="http://www.w3.org/2000/svg" width="98.83" height="207.32" viewBox="0 0 98.83 207.32">
  <defs>
    <style>
      .cls-1 {
        opacity: 0.5;
      }

      .cls-2 {
        fill: #fff;
      }

      .cls-3 {
        fill: #1d005b;
      }
    </style>
  </defs>
  <g>
    <path class="cls-1" d="M53.2,204.11a8,8,0,0,1-8-8V75.89c-1.94,2-4,4-6.19,6.23a8,8,0,0,1-5.65,2.34c-.21,0-.41,0-.61,0A8,8,0,0,1,26.9,81.2L9.89,58a8,8,0,0,1,1.22-10.78c5.08-4.4,10-8.84,14.74-13.2,4.06-3.71,8.22-7.7,12.42-11.89a146.34,146.34,0,0,0,10.07-11,8,8,0,0,1,6.21-2.95H87.48a8,8,0,0,1,8,8v179.9a8,8,0,0,1-8,8Z"/>
    <path class="cls-2" d="M48.2,199.11a8,8,0,0,1-8-8V70.89c-1.94,2-4,4-6.19,6.23a8,8,0,0,1-5.65,2.34c-.21,0-.41,0-.61,0A8,8,0,0,1,21.9,76.2L4.89,53A8,8,0,0,1,6.11,42.22c5.08-4.4,10-8.84,14.74-13.2,4.06-3.71,8.22-7.7,12.42-11.89a146.34,146.34,0,0,0,10.07-11,8,8,0,0,1,6.21-2.95H82.48a8,8,0,0,1,8,8v179.9a8,8,0,0,1-8,8Z"/>
    <path class="cls-3" d="M48.2,191.11V50.59Q43,56.52,38.41,61.28t-10,10.18l-17-23.19q7.74-6.69,15-13.38,6.2-5.66,12.63-12.1A154.3,154.3,0,0,0,49.55,11.21H82.48v179.9Z"/>
  </g>
</svg>
