<svg id="Layer_1" data-name="Layer 1" xmlns="http://www.w3.org/2000/svg" xmlns:xlink="http://www.w3.org/1999/xlink" width="145.07" height="306.2" viewBox="0 0 145.07 306.2">
  <defs>
    <style>
      .cls-1 {
        fill: none;
      }

      .cls-2, .cls-62 {
        opacity: 0.5;
      }

      .cls-3, .cls-63 {
        fill: #fff;
      }

      .cls-4 {
        fill: #e89b7c;
      }

      .cls-5 {
        fill: #81bee8;
      }

      .cls-20, .cls-32, .cls-39, .cls-5, .cls-60, .cls-8 {
        stroke: #4a2811;
      }

      .cls-20, .cls-32, .cls-39, .cls-5, .cls-60, .cls-63, .cls-72, .cls-8 {
        stroke-miterlimit: 10;
      }

      .cls-20, .cls-39, .cls-5, .cls-8 {
        stroke-width: 0.5px;
      }

      .cls-6 {
        fill: #797979;
      }

      .cls-7 {
        fill: #dd805f;
      }

      .cls-8 {
        fill: #5493b6;
      }

      .cls-9 {
        fill: #5b7d38;
      }

      .cls-10 {
        fill: #d26444;
      }

      .cls-11 {
        fill: #42602d;
      }

      .cls-12 {
        fill: #c21e6c;
      }

      .cls-13 {
        fill: #dcc13f;
      }

      .cls-14 {
        fill: #af1e52;
      }

      .cls-15 {
        fill: #ceac2b;
      }

      .cls-16 {
        fill: #a01e57;
      }

      .cls-17 {
        fill: #7b9958;
      }

      .cls-18 {
        fill: #647f40;
      }

      .cls-19 {
        fill: #8b8b8b;
      }

      .cls-20, .cls-22, .cls-60 {
        fill: #f7d8d0;
      }

      .cls-21 {
        fill: #4d4e4e;
      }

      .cls-23 {
        fill: #dc9c2a;
      }

      .cls-24 {
        fill: #5c9641;
      }

      .cls-25 {
        fill: #951a3a;
      }

      .cls-26 {
        fill: #ba932e;
      }

      .cls-27 {
        fill: #5f7e3e;
      }

      .cls-28 {
        fill: #48622d;
      }

      .cls-29 {
        fill: #2f441d;
      }

      .cls-30 {
        fill: #f2b22e;
      }

      .cls-31 {
        fill: #294720;
      }

      .cls-32, .cls-39 {
        fill: #f0cdc6;
      }

      .cls-32, .cls-63 {
        stroke-width: 0.75px;
      }

      .cls-33 {
        fill: #2a2a2a;
      }

      .cls-34 {
        fill: #427b3a;
      }

      .cls-35 {
        fill: #4a2811;
        opacity: 0.25;
      }

      .cls-36 {
        fill: #305e2e;
      }

      .cls-37 {
        fill: #26421d;
      }

      .cls-38 {
        fill: #c1472c;
      }

      .cls-40 {
        fill: #7a1125;
      }

      .cls-41 {
        fill: #b6765a;
      }

      .cls-42 {
        fill: #79ae42;
      }

      .cls-43 {
        fill: #3b5225;
      }

      .cls-44 {
        fill: #342517;
      }

      .cls-45 {
        fill: #4d3f3f;
      }

      .cls-46 {
        fill: #d9a227;
      }

      .cls-47 {
        fill: #db6537;
      }

      .cls-48 {
        fill: #5a7d38;
      }

      .cls-49 {
        fill: #dbba26;
      }

      .cls-50 {
        fill: #cc7a5e;
      }

      .cls-51 {
        fill: #c87d29;
      }

      .cls-52 {
        fill: #e29939;
      }

      .cls-53 {
        fill: #edba26;
      }

      .cls-54 {
        fill: #d1cdc9;
      }

      .cls-55 {
        fill: #352a2a;
      }

      .cls-56 {
        clip-path: url(#clip-path);
      }

      .cls-57 {
        fill: #1a1723;
      }

      .cls-58 {
        fill: #e36381;
      }

      .cls-59 {
        fill: #f2bca9;
      }

      .cls-61 {
        fill: #b16b51;
      }

      .cls-62 {
        fill: #e9a597;
      }

      .cls-63 {
        stroke: #3d2e17;
      }

      .cls-64 {
        fill: #3d2e17;
      }

      .cls-65 {
        fill: #8c3e36;
      }

      .cls-66 {
        fill: #7b2f2c;
      }

      .cls-67 {
        fill: #f5968e;
      }

      .cls-68 {
        fill: #f48678;
      }

      .cls-69 {
        fill: #fff6f3;
      }

      .cls-70 {
        fill: #f48a71;
      }

      .cls-71 {
        fill: #ef4b3b;
      }

      .cls-72 {
        fill: #e7d760;
        stroke: #baa63c;
      }
    </style>
    <clipPath id="clip-path">
      <path class="cls-1" d="M66.44,53.49h-.19c-2.08.18-3.6,3.15-3.39,6.65s2,6,4,6H67c2.08-.17,3.6-3.15,3.39-6.65s-2-6-4-6"/>
    </clipPath>
  </defs>
  <g>
    <path class="cls-2" d="M143,143.58c0-.59,0-1.18,0-1.76,0-.17,0-.33,0-.49l-.06-.79,0-.37c0-.23,0-.46-.06-.71,0-.51-.11-1-.17-1.51l0-.14c0-.21,0-.41-.08-.6-.1-.71-.22-1.41-.36-2.15l0-.15c-.13-.65-.28-1.3-.43-1.94l-.19-.73c-.11-.43-.22-.87-.34-1.29l-.24-.81c-.12-.38-.23-.76-.35-1.13l-.26-.8-.37-1.08-.41-1.17-.16-.4c-.32-.88-.65-1.75-1-2.62l-1.19-3c-.34-.87-.69-1.76-1-2.67l-.15-.39c-.33-.89-.66-1.78-1-2.68,0-.12-.08-.23-.13-.35-.27-.78-.55-1.53-.84-2.24l-.3-.73-.05-.11c-.24-.58-.5-1.14-.78-1.75-.13-.26-.25-.52-.37-.75-.3-.6-.61-1.18-1-1.81q-.13-.26-.27-.48c-.4-.68-.82-1.34-1.25-2l-.28-.41c-.15-.22-.3-.42-.46-.62l-.15-.2-.48-.63c-.22-.28-.45-.54-.72-.86l-.09-.1c-.17-.21-.35-.41-.53-.61s-.41-.44-.63-.65l-.23-.23-.57-.57c-.21-.2-.43-.38-.64-.57l-.2-.17c-.23-.2-.46-.4-.72-.6a6.41,6.41,0,0,0-.52-.39,23.14,23.14,0,0,0-6-3.27,9.19,9.19,0,0,0,.42-2.37v-.18a8.64,8.64,0,0,0-.46-3,9.14,9.14,0,0,0,.87-.89,11,11,0,0,0,2.44-6.45A17.15,17.15,0,0,0,125,71.59a14.92,14.92,0,0,0-1-7.88,39.43,39.43,0,0,0,1.31-10.19,71.28,71.28,0,0,0-.57-9.16,9.82,9.82,0,0,0,3.33-6.71c.19-3.17-1.17-6.15-4-8.86a14.76,14.76,0,0,0-5.46-3.25,35,35,0,0,0-6.85-8.24,14.65,14.65,0,0,0-1.07-1.14A13,13,0,0,0,105.65,13,42.08,42.08,0,0,0,85.4,8.36c-25.45,0-41.26,16.07-41.26,42a42.17,42.17,0,0,0,1,9.14,22.33,22.33,0,0,0,.74,2.85,14.19,14.19,0,0,0-1.61,9.14A16.89,16.89,0,0,0,48.51,81.5a11,11,0,0,0,1.8,5.11c-.05.31-.08.62-.11.91l0,.32c0,.07,0,.24,0,.26a8.85,8.85,0,0,0-.64,3.36c0,.07,0,.14,0,.2a9.23,9.23,0,0,0,.41,2.43l-.32.17a4.59,4.59,0,0,0-.49.26l-.28.16a18.85,18.85,0,0,0-1.66,1.09,3.62,3.62,0,0,0-.32.22l-.36.27-.31.26-.43.35-.46.39-.3.28-.5.48-.43.41-.6.64-.29.32-.73.86c-.08.09-.16.18-.21.25l-.12.14A33.75,33.75,0,0,0,37.67,98c-3.29-5.2-11.93-6-13.93-6.15-.41,0-.77,0-1.11,0h-.16a9.79,9.79,0,0,0-7.1,2.72,10.21,10.21,0,0,0-3.48,2.55A9.19,9.19,0,0,0,10,98.59a11.26,11.26,0,0,0-3,8.51c.19,6.13,3.42,9.12,5.35,10.37a11.66,11.66,0,0,0,3.73,1.5,12.37,12.37,0,0,0,2.28,1.77c1.87,1.08,3.9,1.34,7,1.73l.45.06a14.6,14.6,0,0,0,2,6.37l.2.32a12.6,12.6,0,0,0,1.07,1.4c-.15.52-.29,1-.43,1.59l-.16.65c-.22.95-.4,1.81-.54,2.62l-.06.34c-.12.72-.22,1.47-.32,2.31,0,.17-.05.34-.06.5s0,.4-.05.6v.14c0,.3-.06.61-.08.91,0,.46-.05.94-.06,1.4v.16c0,.24,0,.48,0,.72,0,.55,0,1.1,0,1.65,0,0,0,.53,0,.73,0,.8.07,1.62.15,2.56v.09c.07.92.16,1.85.26,2.78l.11,1c.08.7.17,1.4.26,2.11l.11.88c.12.93.25,1.86.38,2.81l.94,6.46.37,2.7.3,2.23.1.83c.09.7.17,1.4.25,2.1l.1,1c.05.54.11,1.09.16,1.64l.09,1.08c0,.53.08,1.06.11,1.58,0,.37.05.73.07,1.1,0,.55.05,1.12.07,1.68l0,1c0,.77,0,1.53,0,2.32v.35c0,.81,0,1.64-.05,2.47s-.06,2-.09,3.08l0,1.7L31,194.66l-.13,8.08L30.72,213l-.14,6.77-.13,4.9-.07,2.47-.08,2.14-.09,2.24-.09,2.17L30,235.85l-.12,2s-.09,1.49-.13,2c0,0-.09,1.25-.13,1.71l-.16,1.8c0,.41-.16,1.44-.16,1.44,0,.34-.09.67-.13,1,0,0,0,.22,0,.22,0,.29-.09.57-.13.83l7.88,1.35L29,247c0,.23-.08.44-.1.55l0,.13c0,.13-.06.25-.09.35h0l-.12.49a8,8,0,0,0,.36,4.68l.2.48A13.12,13.12,0,0,0,30,255.1s.18.31.25.44l.22.33a24.79,24.79,0,0,0,8.4,7.73,3.75,3.75,0,0,1,.49.34l.22.16a16.51,16.51,0,0,1,2.39,2.95,26.81,26.81,0,0,0,3.78,4.56l.2.18a3.48,3.48,0,0,0,.28.24c.42.36.88.7,1.35,1l.51.32a12.94,12.94,0,0,0,2.12,1.09,7.87,7.87,0,0,0,3,.59,8.46,8.46,0,0,0,1.5-.14l.69.76c.1.11.19.22.3.33.46.48,1,1,1.48,1.47l.35.33c.41.37.82.74,1.22,1.08l.57.48c.42.34.86.69,1.32,1l.51.39c.62.46,1.26.91,2,1.38l.29.18c.33.22.67.44,1,.65-1,2.24-2.56,6.94-.79,11.69l.18.47.2.42a9.9,9.9,0,0,0,.64,1.2,4.5,4.5,0,0,0,.27.43,10.26,10.26,0,0,0,1.18,1.47l.35.37a12.9,12.9,0,0,0,1.6,1.31l.25.16a13.36,13.36,0,0,0,1.81,1l.26.11.78.3.21.07c.2.07.41.13.64.19l.34.09a16.68,16.68,0,0,0,1.94.38l.29,0c.69.08,1.33.13,1.94.14h.44c.61,0,1.18,0,1.66-.06l.35,0a17.65,17.65,0,0,0,1.89-.26l.32-.07a16,16,0,0,0,1.91-.51l.29-.1a13.18,13.18,0,0,0,1.58-.68l.26-.12A16.58,16.58,0,0,0,91,302.7l.31,0,.38,0,.69,0h.11c.32,0,.65,0,1,0h.39c.65,0,1.3-.06,2-.13l.28,0,.55-.08c.45-.07.9-.17,1.34-.28l.59-.16L99,302a12.13,12.13,0,0,0,7.41-6.53c2.25-5,.61-10-.47-12.46l1-.65c.38-.25.75-.5,1.13-.77l.63-.44c.38-.27.75-.55,1.14-.85l.51-.4c.42-.33.82-.66,1.24-1l.3-.26c.5-.43,1-.87,1.5-1.37l.11-.12q.6-.57,1.14-1.14l1-1.08a8.57,8.57,0,0,0,1.51.14,8.12,8.12,0,0,0,3-.59,16,16,0,0,0,6.4-4.94l.08-.1c.48-.6.91-1.19,1.26-1.68l1-1.39.45-.61.38-.49.16-.2.33-.38.34-.35.22-.2.13-.12a4.42,4.42,0,0,1,.57-.39l.29-.18.54-.34.51-.32c.3-.2.59-.39.84-.57s.47-.34.71-.53l.55-.42.45-.37.46-.38.1-.09.75-.69.68-.68c.12-.12.23-.23.33-.35h0l.13-.14c.38-.41.74-.84,1.07-1.26l.13-.17a3.33,3.33,0,0,0,.24-.32l.46-.64.16-.25c.19-.29.36-.56.5-.81l.06-.1c.16-.29.3-.54.4-.75a1.09,1.09,0,0,0,.08-.15c.14-.29.24-.51.27-.6s.15-.34.15-.34a8.07,8.07,0,0,0,.24-5.18,2.84,2.84,0,0,1-.08-.34l-7.82,1.68h0l7.79-1.81c0-.17-.14-.72-.14-.72-.05-.28-.09-.58-.13-.87a.77.77,0,0,1,0-.15c-.05-.31-.09-.63-.13-1l-.18-1.67c0-.44-.09-.89-.12-1.35l-.13-1.55-.12-1.83s-.1-1.5-.13-2.07l-.1-1.87-.11-2.5-.16-4.22-.09-2.66-.06-2.08-.14-6c-.1-5-.18-10.08-.25-14.75-.1-6.76-.18-12.61-.33-16.6,0-.79,0-1.57,0-2.34v-.59c0-.59,0-1.17,0-1.76l0-.71c0-.54,0-1.08.06-1.6l0-.77c0-.52.06-1,.1-1.55l.05-.78c0-.52.09-1,.13-1.55l.07-.74c.05-.54.11-1.07.17-1.66l.07-.63c.07-.57.13-1.14.21-1.74l.06-.51c.09-.68.29-2.25.29-2.25.26-1.91.54-3.79.81-5.64l.38-2.65.44-3.1.3-2.33.2-1.72,0-.36c.11-1.06.22-2.11.3-3.16,0-.05,0-.18,0-.19.07-.91.12-1.82.13-2.78,0-.26,0-.51,0-.76Z"/>
    <path class="cls-3" d="M138,138.58c0-.59,0-1.18,0-1.76,0-.17,0-.33,0-.49l-.06-.79,0-.37c0-.23,0-.46-.06-.71,0-.51-.11-1-.17-1.51l0-.14c0-.21,0-.41-.08-.6-.1-.71-.22-1.41-.36-2.15l0-.15c-.13-.65-.28-1.3-.43-1.94l-.19-.73c-.11-.43-.22-.87-.34-1.29l-.24-.81c-.12-.38-.23-.76-.35-1.13l-.26-.8-.37-1.08-.41-1.17-.16-.4c-.32-.88-.65-1.75-1-2.62l-1.19-3c-.34-.87-.69-1.76-1-2.67l-.15-.39c-.33-.89-.66-1.78-1-2.68,0-.12-.08-.23-.13-.35-.27-.78-.55-1.53-.84-2.24l-.3-.73-.05-.11c-.24-.58-.5-1.14-.78-1.75-.13-.26-.25-.52-.37-.75-.3-.6-.61-1.18-1-1.81l-.27-.48c-.4-.68-.82-1.34-1.25-2l-.28-.41c-.15-.22-.3-.42-.46-.62l-.15-.2-.48-.63c-.22-.28-.45-.54-.72-.86l-.09-.1c-.17-.21-.35-.41-.53-.61s-.41-.44-.63-.65l-.23-.23-.57-.57c-.21-.2-.43-.38-.64-.57l-.2-.17c-.23-.2-.46-.4-.72-.6a6.41,6.41,0,0,0-.52-.39,23.14,23.14,0,0,0-6-3.27,9.19,9.19,0,0,0,.42-2.37v-.18a8.64,8.64,0,0,0-.46-3,9.14,9.14,0,0,0,.87-.89,11,11,0,0,0,2.44-6.45A17.15,17.15,0,0,0,120,66.59a14.92,14.92,0,0,0-1-7.88,39.43,39.43,0,0,0,1.31-10.19,71.28,71.28,0,0,0-.57-9.16,9.82,9.82,0,0,0,3.33-6.71c.19-3.17-1.17-6.15-4-8.86a14.76,14.76,0,0,0-5.46-3.25,35,35,0,0,0-6.85-8.24,14.65,14.65,0,0,0-1.07-1.14A13,13,0,0,0,100.65,8,42.08,42.08,0,0,0,80.4,3.36c-25.45,0-41.26,16.07-41.26,42a42.17,42.17,0,0,0,1,9.14,22.33,22.33,0,0,0,.74,2.85,14.19,14.19,0,0,0-1.61,9.14A16.89,16.89,0,0,0,43.51,76.5a11,11,0,0,0,1.8,5.11c-.05.31-.08.62-.11.91l0,.32c0,.07,0,.24,0,.26a8.85,8.85,0,0,0-.64,3.36c0,.07,0,.14,0,.2a9.23,9.23,0,0,0,.41,2.43l-.32.17a4.59,4.59,0,0,0-.49.26l-.28.16a18.85,18.85,0,0,0-1.66,1.09,3.62,3.62,0,0,0-.32.22l-.36.27-.31.26-.43.35-.46.39-.3.28-.5.48-.43.41-.6.64-.29.32-.73.86c-.08.09-.16.18-.21.25l-.12.14A33.75,33.75,0,0,0,32.67,93c-3.29-5.2-11.93-6-13.93-6.15-.41,0-.77,0-1.11,0h-.16a9.79,9.79,0,0,0-7.1,2.72,10.21,10.21,0,0,0-3.48,2.55A9.19,9.19,0,0,0,5,93.59a11.26,11.26,0,0,0-3,8.51c.19,6.13,3.42,9.12,5.35,10.37a11.66,11.66,0,0,0,3.73,1.5,12.37,12.37,0,0,0,2.28,1.77c1.87,1.08,3.9,1.34,7,1.73l.45.06a14.6,14.6,0,0,0,2,6.37l.2.32a12.6,12.6,0,0,0,1.07,1.4c-.15.52-.29,1-.43,1.59l-.16.65c-.22,1-.4,1.81-.54,2.62l-.06.34c-.12.72-.22,1.47-.32,2.31,0,.17-.05.34-.06.5s0,.4-.05.6v.14c0,.3-.06.61-.08.91,0,.46-.05.94-.06,1.4v.16c0,.24,0,.48,0,.72,0,.55,0,1.1,0,1.65,0,0,0,.53,0,.73,0,.8.07,1.62.15,2.56v.09c.07.92.16,1.85.26,2.78l.11,1c.08.7.17,1.4.26,2.11l.11.88c.12.93.25,1.86.38,2.81l.94,6.46.37,2.7.3,2.23.1.83c.09.7.17,1.4.25,2.1l.1,1c.05.54.11,1.09.16,1.64l.09,1.08c0,.53.08,1.06.11,1.58,0,.37.05.73.07,1.1,0,.55.05,1.12.07,1.68l0,1c0,.77,0,1.53,0,2.32v.35c0,.81,0,1.64-.05,2.47s-.06,2-.09,3.08l0,1.7L26,189.66l-.13,8.08L25.72,208l-.14,6.77-.13,4.9-.07,2.47-.08,2.14-.09,2.24-.09,2.17L25,230.85l-.12,2s-.09,1.49-.13,2c0,0-.09,1.25-.13,1.71l-.16,1.8c0,.41-.16,1.44-.16,1.44,0,.34-.09.67-.13,1,0,0,0,.22,0,.22,0,.29-.09.57-.13.83l7.88,1.35L24,242c0,.23-.08.44-.1.55l0,.13c0,.13-.06.25-.09.35h0l-.12.49a8,8,0,0,0,.36,4.68l.2.48A13.12,13.12,0,0,0,25,250.1s.18.31.25.44l.22.33a24.79,24.79,0,0,0,8.4,7.73,3.75,3.75,0,0,1,.49.34l.22.16a16.51,16.51,0,0,1,2.39,2.95,26.81,26.81,0,0,0,3.78,4.56l.2.18a3.48,3.48,0,0,0,.28.24c.42.36.88.7,1.35,1l.51.32a12.94,12.94,0,0,0,2.12,1.09,7.87,7.87,0,0,0,3,.59,8.46,8.46,0,0,0,1.5-.14l.69.76c.1.11.19.22.3.33.46.48,1,1,1.48,1.47l.35.33c.41.37.82.74,1.22,1.08l.57.48c.42.34.86.69,1.32,1l.51.39c.62.46,1.26.91,2,1.38l.29.18c.33.22.67.44,1,.65-1,2.24-2.56,6.94-.79,11.69l.18.47.2.42a9.9,9.9,0,0,0,.64,1.2,4.5,4.5,0,0,0,.27.43,10.26,10.26,0,0,0,1.18,1.47l.35.37a12.9,12.9,0,0,0,1.6,1.31l.25.16a13.36,13.36,0,0,0,1.81,1l.26.11.78.3.21.07c.2.07.41.13.64.19l.34.09a16.68,16.68,0,0,0,1.94.38l.29,0c.69.08,1.33.13,1.94.14h.44c.61,0,1.18,0,1.66-.06l.35,0a17.65,17.65,0,0,0,1.89-.26l.32-.07a16,16,0,0,0,1.91-.51l.29-.1a13.18,13.18,0,0,0,1.58-.68l.26-.12A16.58,16.58,0,0,0,86,297.7l.31,0,.38,0,.69,0h.11c.32,0,.65,0,1,0h.39c.65,0,1.3-.06,2-.13l.28,0,.55-.08c.45-.07.9-.17,1.34-.28l.59-.16L94,297a12.13,12.13,0,0,0,7.41-6.53c2.25-5,.61-10-.47-12.46l1-.65c.38-.25.75-.5,1.13-.77l.63-.44c.38-.27.75-.55,1.14-.85l.51-.4c.42-.33.82-.66,1.24-1l.3-.26c.5-.43,1-.87,1.5-1.37l.11-.12q.6-.57,1.14-1.14l1-1.08a8.57,8.57,0,0,0,1.51.14,8.12,8.12,0,0,0,3-.59,16,16,0,0,0,6.4-4.94l.08-.1c.48-.6.91-1.19,1.26-1.68l1-1.39.45-.61.38-.49.16-.2.33-.38.34-.35.22-.2.13-.12a4.42,4.42,0,0,1,.57-.39l.29-.18.54-.34.51-.32c.3-.2.59-.39.84-.57s.47-.34.71-.53l.55-.42.45-.37.46-.38.1-.09c.26-.23.5-.45.75-.69s.44-.43.68-.68.23-.23.33-.35h0l.13-.14c.38-.41.74-.84,1.07-1.26l.13-.17a3.33,3.33,0,0,0,.24-.32l.46-.64.16-.25c.19-.29.36-.56.5-.81l.06-.1c.16-.29.3-.54.4-.75a1.09,1.09,0,0,0,.08-.15c.14-.29.24-.51.27-.6s.15-.34.15-.34a8.07,8.07,0,0,0,.24-5.18,2.84,2.84,0,0,1-.08-.34l-7.82,1.68h0l7.79-1.81c0-.17-.14-.72-.14-.72-.05-.28-.09-.58-.13-.87a.77.77,0,0,1,0-.15c-.05-.31-.09-.63-.13-1l-.18-1.67c0-.44-.09-.89-.12-1.35l-.13-1.55-.12-1.83s-.1-1.5-.13-2.07l-.1-1.87-.11-2.5-.16-4.22-.09-2.66-.06-2.08-.14-6c-.1-5-.18-10.08-.25-14.75-.1-6.76-.18-12.61-.33-16.6,0-.79,0-1.57,0-2.34v-.59c0-.59,0-1.17,0-1.76l0-.71c0-.54,0-1.08.06-1.6l0-.77c0-.52.06-1,.1-1.55l.05-.78c0-.52.09-1,.13-1.55l.07-.74c.05-.54.11-1.07.17-1.66l.07-.63c.07-.57.13-1.14.21-1.74l.06-.51c.09-.68.29-2.25.29-2.25.26-1.91.54-3.79.81-5.64l.38-2.65.44-3.1.3-2.33.2-1.72,0-.36c.11-1.06.22-2.11.3-3.16,0-.05,0-.18,0-.19.07-.91.12-1.82.13-2.78,0-.26,0-.51,0-.76Z"/>
    <g>
      <path class="cls-4" d="M80.19,275.16a22.45,22.45,0,0,1,.23,4c0,.63,0,1.31.11,2,.22,2.7-.27,8.81,8.2,8.67,7.38-.13,6.19-6,4.82-8.84a8,8,0,0,0-.59-1,7.13,7.13,0,0,1-1.51-3.05l-1.7-1.47s-9.85-1.34-9.56-.3"/>
      <path class="cls-5" d="M80.42,279.15c0,.63,0,1.31.11,2,.22,2.7-.27,8.81,8.2,8.67,7.38-.13,6.19-6,4.82-8.84-.92,1-2.66,2-5.94,2a8,8,0,0,1-7.19-3.88"/>
      <path class="cls-4" d="M80.18,275.16a23.73,23.73,0,0,0-.22,4c0,.63,0,1.31-.11,2-.22,2.7.27,8.81-8.2,8.67-7.38-.13-6.19-6-4.82-8.84a8,8,0,0,1,.58-1,7.26,7.26,0,0,0,1.52-3.05l1.7-1.47s9.84-1.34,9.55-.3"/>
      <path class="cls-6" d="M91.33,289.48a10,10,0,0,1-2.6.36h-.29q-.73,0-1.38-.06c.44,0,.9.06,1.39.06h.27a10,10,0,0,0,2.61-.36M93,280c.08.12.17.26.27.43-.1-.17-.19-.31-.27-.43m-1.55-3.1h0a6.49,6.49,0,0,0,1.22,2.63,6.49,6.49,0,0,1-1.22-2.63h0M80.2,275.18a5.81,5.81,0,0,1,.15,1.27,5.81,5.81,0,0,0-.15-1.27h0"/>
      <path class="cls-7" d="M80.2,275.18a5.81,5.81,0,0,1,.15,1.27v.05c2.07.71,12.93,4.59,7.25,6.53h0c3.28,0,5-1,5.94-2h0c-.1-.2-.2-.39-.29-.55s-.19-.31-.27-.43l0,0-.29-.42a6.49,6.49,0,0,1-1.22-2.63h0L91,277a27.5,27.5,0,0,1-3.66.25c-2.41,0-5.27-.36-6.86-1.83h0l0,0h0l-.09-.09h0l0,0h0v0h0v0h0"/>
      <path class="cls-5" d="M80,279.15c0,.63,0,1.31-.11,2-.22,2.7.27,8.81-8.2,8.67-7.38-.13-6.19-6-4.82-8.84.92,1,2.66,2,5.94,2A8,8,0,0,0,80,279.15"/>
      <path class="cls-6" d="M68.83,289.41h0m8.13-.77a9.14,9.14,0,0,1-5,1.2h-.28a9.22,9.22,0,0,1-2.81-.43,9.22,9.22,0,0,0,2.81.43h.28a9.17,9.17,0,0,0,5-1.2m0,0h0m0,0h0m-8.08-11.68h0a2.08,2.08,0,0,1-.12.49h0a2.08,2.08,0,0,0,.12-.49h0m11.25-1.77h0a6.14,6.14,0,0,0-.15,1.23,6.14,6.14,0,0,1,.15-1.23h0"/>
      <path class="cls-7" d="M80.18,275.16c-1.51,1.69-4.56,2.09-7.1,2.09a27.46,27.46,0,0,1-4.15-.32h0a2.08,2.08,0,0,1-.12.49c2.34.6,6,1.49,7.7,1.73,2.39.32.09,3.75-4.62,3.75a10.25,10.25,0,0,1-1.53-.12l.16.07a12.58,12.58,0,0,0,2.25.18A8,8,0,0,0,80,279.15h0c0-1.07,0-2,.07-2.76a6.14,6.14,0,0,1,.15-1.23"/>
      <path class="cls-8" d="M80,279.15A8,8,0,0,1,72.77,283a12.58,12.58,0,0,1-2.25-.18,10.5,10.5,0,0,0,3.66.58,17.13,17.13,0,0,0,3.55-.38s-1.28,5.29-6.53,5.29a11.35,11.35,0,0,1-4.36-1c-.24-.1-.47-.2-.69-.31a4.14,4.14,0,0,0,2.68,2.38h0a9.22,9.22,0,0,0,2.81.43h.28a9.14,9.14,0,0,0,5-1.2h0l0,0h0c2.88-1.9,2.68-5.52,2.84-7.44.06-.7.09-1.38.11-2"/>
      <path class="cls-9" d="M111.13,199.35v51s0,14.73-19.69,23.71v2.87s-8.38,1.44-11.26-1.77c-2.87,3.21-11.25,1.77-11.25,1.77v-2.87c-19.7-9-19.7-23.71-19.7-23.71l.67-51h61.23"/>
      <path class="cls-10" d="M91.43,276.93,91,277l.48-.07m0,0h0m-11-1.51h0m0,0h0m0,0h0m-.1-.09.09.09-.09-.09m0,0,0,0,0,0m0,0v0m0,0v0m0,0h0m0,0h0"/>
      <path class="cls-11" d="M91.44,274.5a27.62,27.62,0,0,1-2.2,2.68c.72-.05,1.32-.12,1.71-.18l.48-.07h0V274.5M96,241.28c-2.78,18-11.69,25.72-15.84,29.53v4.35l0,0h0v0h0v0h0l0,0h0l.09.09h0l0,0h0c.15.13.31.26.48.38,3-1.74,14.82-9.1,18.19-20.53-1.79,8.31-4.28,14.28-7.2,18.57,10.78-5,15.52-11.81,17.6-16.79-3.14-4.21-8.45-9.58-13.48-15.77m-8.35-12.19c.31,13.87-7.49,24.35-7.49,24.35v7.11s8-3.86,13.23-22.61q-1.43-1.89-2.75-3.87h0c-1.07-1.63-2.08-3.29-3-5m-7.49,16.56s-11.83-15.5-5.77-33.6c.45,13.11,5.77,28.47,5.77,28.47v5.13m0-7.71v-7.41a51.12,51.12,0,0,1-2.47-25,36.59,36.59,0,0,0,2.47,7.09v6.95a37.49,37.49,0,0,0,2.47-7.26,53.62,53.62,0,0,1-2.47,25.64m2.75-35.75H55.61c.07,6.4.1,12.53,0,17.78a121.56,121.56,0,0,1-3.34,26.38c-.74,3.14-1.52,5.93-2.22,8.45,1.55,5.06,6,13.39,18.88,19.26-10.88-6.22-13.08-14.17-13.14-14.41a50.91,50.91,0,0,0,19.49,12.57c-5.84-3.71-10.94-10.9-14-24.79,3.87,12.84,18.91,20.42,18.91,20.42v-5.26c-5.41-4.84-18.91-16.21-16.37-47.77,4.14,32,16.37,37.77,16.37,37.77v-4.4a131.86,131.86,0,0,0,5.35-23.7,30.59,30.59,0,0,1-2.28-10.66c-.07-3.63-.18-7.57-.32-11.64"/>
      <polyline class="cls-12" points="111.53 128.18 111.53 202.19 52.18 202.19 50.76 193.86 42.68 146.46 64.48 118.68 111.53 128.18"/>
      <polyline class="cls-13" points="111.53 192.3 111.53 202.19 52.18 202.19 50.76 193.86 53.38 192.3 111.53 192.3"/>
      <path class="cls-14" d="M62.71,165.09c.09,1.92.16,3.76.23,5.48a103.35,103.35,0,0,0,11.2,8c4.13,2.43,8.7,8.21,4.43,13.78h4c-.31-7.15-.68-14.33-1-20.71-.46,0-.92,0-1.39,0h0a26.43,26.43,0,0,1-15.31-4.93c-.76-.54-1.46-1.08-2.08-1.61m-5.56-.63c-.31.28-.62.53-.94.77A8.9,8.9,0,0,1,55,166c0,1,0,2,0,3.08l2.31-.85a4.18,4.18,0,0,1,1-.21c-.38-1.13-.78-2.32-1.15-3.57"/>
      <path class="cls-15" d="M82.53,192.3h-4c-2.84,3.71-9.59,7.33-23,9.83v.06H82.93c0-1.13-.08-2.26-.13-3.41-.08-2.14-.17-4.31-.27-6.48"/>
      <path class="cls-16" d="M80.18,269.16v6c-2.87,3.21-11.25,1.77-11.25,1.77v-2.87S77.71,272.37,80.18,269.16Z"/>
      <path class="cls-17" d="M58.64,160.7a27,27,0,0,0,21.65,10.93H79.9a27,27,0,0,0,21.66-10.93L78.87,144.77l-20,15.58-.25.35"/>
      <polygon class="cls-18" points="79.9 171.63 80.1 171.63 80.29 171.63 79.9 171.63"/>
      <path class="cls-18" d="M78.87,144.77l-20,15.58-.25.35a26.53,26.53,0,0,0,42.92,0L78.87,144.77M63,160.34c1.23,1.79,8.7,11.94,16.3,5.52-3.37,7.43-9.09,5.58-16.3-5.52m.69-.5s8,7,15.94,1.43c0,0-3.91,12.56-15.94-1.43"/>
      <path class="cls-12" d="M123.12,114.19,93.34,120c-6.81,0-13.63,0-20.43-.07-3.41,0-6.82-.12-10.22-.16-3.13,0-6.26-5.84-9.39-6-4.86-.19-9.88-.65-14.73-.07l-1.31-1,.21-.61q.95-2.7,2-5c3.58-7.32,8.62-10.94,14.6-11.35l.84-.07c1.48-.12,2.94-.29,4.33-.49a90.64,90.64,0,0,0,12.2-2.6V78.7H88.38V92.59A90.66,90.66,0,0,0,101,95.25c1.4.19,2.85.35,4.33.47l.41,0c7.13.49,12.92,5.54,16.49,16,.28.84.58,1.65.87,2.45"/>
      <path class="cls-19" d="M101,95.25h0c1.14.16,2.33.29,3.53.4-1.2-.11-2.39-.24-3.53-.4h0"/>
      <path class="cls-14" d="M101,95.25C96,98.17,88.52,100,80.19,100c-1.2,0-2.38,0-3.54-.11a24.63,24.63,0,0,1,4.43,8.43c.92,3.34-1,4.51-4.12,4.51a19.24,19.24,0,0,1-2.9-.26c2.39,2.65,4.17,4.25,5.74,4.75l.29.08h.2l.16,0c2.68-.75,5.9-4.73,11.8-11.68a39.51,39.51,0,0,1,10.8-8.84,23.71,23.71,0,0,1,2.26-1.11l0,0-.8-.07c-1.2-.11-2.39-.24-3.53-.4h0"/>
      <path class="cls-20" d="M101,95.25C96,98.17,88.52,100,80.19,100s-15.88-1.87-20.92-4.83a90.64,90.64,0,0,0,12.2-2.6V78.7H88.38V92.59A90.66,90.66,0,0,0,101,95.25"/>
      <path class="cls-21" d="M88.38,86.88h0v5.71A90.71,90.71,0,0,0,101,95.25h0a90.66,90.66,0,0,1-12.64-2.66V86.88"/>
      <path class="cls-21" d="M71.47,87.9v4.69h0s-.57.17-1.58.44h0c1-.27,1.57-.44,1.57-.44V87.9h0"/>
      <path class="cls-22" d="M88.38,86.88a26.34,26.34,0,0,1-9.58,3.54,28.47,28.47,0,0,1-7.33-2.52v4.69h0s-.57.17-1.57.44a45.1,45.1,0,0,1,6.75,6.88c1.16.07,2.34.11,3.54.11C88.52,100,96,98.17,101,95.25a90.71,90.71,0,0,1-12.63-2.66V86.88"/>
      <path class="cls-23" d="M129.91,141.76c-1,12-4.28,24.76-3.75,39.18s.27,55.73,2.77,64.28c0,0-1.23,3.43-6.44,6.48s-6.15,8.68-10.3,10.36c-1.73-8.47-28.53-27-28.94-48.23s-2.31-52.82-3-61.94c0,0-24.38-7-25.09,2.08s.87,44.75.47,66-5.68,33.62-7.42,42.09c-4.15-1.68-5.08-7.31-10.3-10.36s-6.44-6.48-6.44-6.48c2.5-8.55,2.23-49.87,2.77-64.28s-2.77-27.18-3.75-39.18,3.22-18.56,6.79-29l.21-.61q.95-2.7,2-5C42.85,99.89,47.24,95.38,53,95a4.38,4.38,0,0,1,.93.33,4.59,4.59,0,0,0,.94.33l.08,0,.13.07a37.87,37.87,0,0,1,13.07,10c6,7.08,9.24,11.08,12,11.71h.2c2.71-.63,5.95-4.63,12-11.71a37.79,37.79,0,0,1,13.06-10l0,0,0,0,.64,0c7.13.49,12.93,5.54,16.49,16s8.38,18,7.4,30"/>
      <path class="cls-24" d="M42,102.63q-.8,1.22-1.53,2.61a50.68,50.68,0,0,0,4.52,7.28,42.89,42.89,0,0,1-3-9.89"/>
      <path class="cls-19" d="M43.43,100.56l-.37.48.37-.48"/>
      <path class="cls-24" d="M44.36,99.49c-.32.34-.63.7-.93,1.07l-.37.48-.18.23a55.23,55.23,0,0,0,9.36,14.31l0-.28c-2.28-3.07-6.53-9.43-7.91-15.81"/>
      <path class="cls-19" d="M46.39,97.6c-.26.2-.52.42-.78.65.26-.23.52-.45.78-.65"/>
      <path class="cls-24" d="M46.6,97.44l-.21.16c-.26.2-.52.42-.78.65s-.54.5-.81.77a32.55,32.55,0,0,0,8.6,10.08l.15-.63a56.88,56.88,0,0,1-6.95-11"/>
      <path class="cls-19" d="M116.51,258v0m4.24-5.07a25,25,0,0,0-4.23,5.06,24.77,24.77,0,0,1,4.23-5.06h0"/>
      <path class="cls-23" d="M105,203s-5.31,31.68,10.39,56.48c.38-.47.74-1,1.1-1.47v0h0a25,25,0,0,1,4.23-5.06C109.52,240.17,105,203,105,203"/>
      <path class="cls-19" d="M122.6,251.63l-.11.07c-.31.18-.61.37-.89.57.28-.2.58-.39.89-.57l.11-.07m0,0h0m4.31-3.43a16.23,16.23,0,0,1-1.38,1.33,16.23,16.23,0,0,0,1.38-1.33h0"/>
      <path class="cls-23" d="M117,156.25c-8.37,54.18-4.83,77.66,4.57,96h0c.28-.2.58-.39.89-.57l.11-.07h0a20.27,20.27,0,0,0,2.93-2.1,16.23,16.23,0,0,0,1.38-1.33c-18.88-28-9.45-86-9.93-91.93"/>
      <path class="cls-19" d="M54,95.36a3.83,3.83,0,0,0,.81.28h0l.07,0-.07,0h0a4.55,4.55,0,0,1-.81-.28M53,95h0a11.48,11.48,0,0,0-4.93,1.5h0A11.62,11.62,0,0,1,53,95h0a4.08,4.08,0,0,1,.81.29A4.08,4.08,0,0,0,53,95"/>
      <path class="cls-25" d="M103.05,96.86a39.51,39.51,0,0,0-10.8,8.84c-5.9,7-9.12,10.93-11.8,11.68,2.68-.75,5.9-4.73,11.8-11.67a39.44,39.44,0,0,1,10.8-8.85"/>
      <path class="cls-14" d="M63.93,101.47h0a38.38,38.38,0,0,1,4.21,4.24c2.35,2.77,4.28,5.07,5.91,6.88h0c-1.64-1.81-3.57-4.11-5.92-6.89a39.14,39.14,0,0,0-4.21-4.23"/>
      <path class="cls-25" d="M74.05,112.59c2.4,2.65,4.18,4.25,5.75,4.75-1.57-.5-3.35-2.1-5.74-4.75h0"/>
      <path class="cls-19" d="M39.78,106.51c-.09.19-.19.39-.28.59q-.31.69-.63,1.41h0q.32-.72.63-1.41l0,0c.09-.19.17-.38.26-.56m78.63-3.21a34,34,0,0,1,4.1,8.44c1.47,4.3,3.14,8.11,4.54,11.94-1.4-3.83-3.07-7.64-4.54-11.94a34,34,0,0,0-4.1-8.44m0,0,0,0,0,0m0-.07v0"/>
      <path class="cls-21" d="M39.52,107.07l0,0q-.31.69-.63,1.41h0q.32-.72.63-1.41l0,0"/>
      <path class="cls-19" d="M130,136.75a38.54,38.54,0,0,1-.08,5c-.09,1.12-.2,2.24-.33,3.37.13-1.13.24-2.25.33-3.37a38.54,38.54,0,0,0,.08-5m-99.47-2.3a39.34,39.34,0,0,0-.05,7.31c.34,4.08.94,8.25,1.56,12.54-.62-4.29-1.22-8.46-1.56-12.54a39.34,39.34,0,0,1,.05-7.31"/>
      <path class="cls-14" d="M55,169.09h0c.1,6.81.29,15,.44,23.21h0c-.15-8.24-.34-16.4-.44-23.21"/>
      <path class="cls-15" d="M55.45,192.3h0c0,.95,0,1.89,0,2.83,0-.94,0-1.88,0-2.83"/>
      <path class="cls-25" d="M81.49,171.59h0c.36,6.38.73,13.56,1,20.71h0c-.32-7.15-.69-14.33-1.05-20.71M55,166h0c0,1,0,2,0,3.08h0C55,168,55,167,55,166"/>
      <path class="cls-26" d="M82.54,192.3h0c.1,2.17.19,4.34.27,6.48-.08-2.14-.17-4.31-.26-6.48"/>
      <polyline class="cls-27" points="81.49 171.58 81.49 171.58 81.49 171.59 81.49 171.59 81.49 171.58"/>
      <path class="cls-28" d="M81.28,168c.07,1.15.14,2.34.21,3.55h0c-.07-1.21-.14-2.4-.21-3.55"/>
      <path class="cls-19" d="M126.9,218.79c.26,9.44.67,18.15,1.4,23.27-.73-5.12-1.14-13.83-1.4-23.27m-93.25-7.12c-.3,14.47-.84,28.89-2.2,33.56a6.51,6.51,0,0,0,.58,1.11h0a7.06,7.06,0,0,1-.58-1.11c1.37-4.66,1.9-19.08,2.2-33.55m.62-33.5c0,.91,0,1.84-.05,2.77-.07,1.75-.12,3.9-.17,6.33.05-2.43.1-4.58.17-6.33,0-.93.05-1.86.05-2.77"/>
      <path class="cls-11" d="M85.92,225.45c.53,1.23,1.11,2.44,1.75,3.64h0c-.64-1.2-1.22-2.41-1.75-3.64m0-.06,0,.06,0-.06"/>
      <path class="cls-29" d="M87.67,229.09h0c.91,1.7,1.92,3.36,3,5h0c-1.07-1.62-2.08-3.28-3-5"/>
      <path class="cls-19" d="M50.05,254.8c-.37,1.35-.73,2.62-1,3.82.31-1.2.67-2.47,1-3.82h0"/>
      <path class="cls-29" d="M52.27,246.35c-.74,3.14-1.52,5.93-2.22,8.45h0c.7-2.52,1.48-5.31,2.22-8.45"/>
      <path class="cls-19" d="M38.92,252.37h0c.25.18.49.37.72.56h0c-.23-.19-.47-.38-.72-.56m89.22-5.71-.42.59h0l.42-.59"/>
      <path class="cls-30" d="M63.11,145.08l-1.89.44c.09.72.17,1.44.25,2.16a12.07,12.07,0,0,1,2.51-.59,1.71,1.71,0,0,1-.11-.14l-1.61.43h0a4.4,4.4,0,0,1,.85-2.3m15.21-16.32a29.78,29.78,0,0,1-18,10.65l.12.69c.15,1,.3,2,.44,3,14.63-6.17,17.33-14,17.42-14.32m9.92-3.35c-.2.43-6.67,13.76-27.32,17.82.1.73.2,1.45.28,2.17.76-.23,1.5-.46,2.21-.7,1-1.2,3-2.41,6.72-2.63,15.67-7.15,18-16.32,18.11-16.66m-55.49-.54a42.7,42.7,0,0,0-2.23,9.58,39.34,39.34,0,0,0-.05,7.31c.34,4.08.94,8.25,1.56,12.54,1.1,7.51,2.28,15.41,2.24,23.87,0,.91,0,1.84-.05,2.77-.07,1.75-.12,3.9-.17,6.33-.13,6.69-.22,15.55-.4,24.4-.3,14.47-.83,28.89-2.2,33.55a7.06,7.06,0,0,0,.58,1.11c2.66-9.77,6.31-30.7,6.76-72.57a259.53,259.53,0,0,1,.13,78.61c.25.18.49.37.72.56a283,283,0,0,0,5.3-45.18,250.27,250.27,0,0,1,1.29,53.06,6.69,6.69,0,0,0,2,1.25c.22-1.08.5-2.22.82-3.44s.67-2.47,1-3.82h0c.7-2.52,1.48-5.31,2.22-8.45A121.56,121.56,0,0,0,55.61,220c.13-7.16,0-16-.11-24.84,0-.94,0-1.88,0-2.83-.15-8.24-.34-16.4-.44-23.21C55,168,55,167,55,166a4.59,4.59,0,0,1-.5.24,9.83,9.83,0,0,1-3.23.76l-1.53.68a22.73,22.73,0,0,1-6.12,2l-.48,0a3.33,3.33,0,0,1-.86-.1c-1.84-.46-.25-1.31.67-2.08a4.7,4.7,0,0,1-1.42.32c-1.24,0-.78-1.33,1.33-3.53,1.59-1.67,3.69-3.43,5.5-5-.41-.09-.81-.19-1.21-.31l-.83-.28h0c-4.7-1.69-8.49-5.43-9.89-8.92l0-.05h0l0,0h0l0,0h0l0,0h0l0,0h0l0-.05h0a28.27,28.27,0,0,1-1.07-3.82c-.33-1.53-.62-3.26-.88-5.17s-.49-3.95-.71-6.15c-.14-1.39-.28-2.84-.41-4.34q-.12-1.34-.24-2.73c-.07-.84-.14-1.65-.22-2.42m65.9-2.16c-5.14,12.26-8.88,15.58-25.29,19.88a4.35,4.35,0,0,1,1.29,1c20.31-5.82,20-10.5,24-20.92M44.4,115.8q.08.36.12.75a4.4,4.4,0,0,1,0,.62,3.38,3.38,0,0,1-1.29,2.74c.66,1.86,1.3,3.73,1.95,5.6.18.54.37,1.07.55,1.61h0c1.07,3.08,2.11,6.13,3.1,9h0c1.59,4.63,3,8.76,4.11,11.72.05.16.11.31.16.46l.06.16c.17.44.32.85.46,1.23l0,.06,0,.06v0a18.44,18.44,0,0,1,.86,3.07c.15-.17.31-.33.46-.49-.69-6.44-1.33-7.73-2.76-21.66-.2-1.95-.33-3.75-.4-5.45a47.35,47.35,0,0,1-7.48-9.5m.54-5.76a61.1,61.1,0,0,0,6.89,11.76c0-1.07.05-2.11.12-3.11a77,77,0,0,1-7-8.65m-5-3.77-.12.24c-.09.18-.17.37-.26.56l0,0q-.31.69-.63,1.41c.31.65.59,1.32.87,2h.1a3.67,3.67,0,0,1,2.1.71c-.72-1.54-1.41-3.18-2-4.92M110,96.57h0c-2.54,1.5-6.24,4.39-10.53,9.86-8.08,10.28-16.34,21-19.56,23.26,10.32-5.23,21-21.78,21.59-22.73-.49.87-8.29,14.92-12.68,19.42,7.34-2.5,15.2-13.47,19.47-20.21a67.83,67.83,0,0,0-6.13,15.77c-2.76,11.57,0,20.74-27.3,22a7.89,7.89,0,0,1,1.2,2.83c2.49,0,3.85-.09,3.85-.09h0s.15,2.68.34,5.76c0,.45,0,.9.08,1.36.24,3.34.57,8.33.91,14.22.07,1.15.14,2.34.21,3.55h0c.36,6.38.73,13.56,1.05,20.71.09,2.17.18,4.34.26,6.48.21,5.29.37,10.41.45,15.05a31.17,31.17,0,0,0,2.65,11.56l0,.06h0c.53,1.23,1.11,2.44,1.75,3.64.91,1.7,1.92,3.36,3,5-1.41-19.11-4.2-60.87-3.16-81C88.12,186.85,93,205,93,205s-1.93-32.16,4.16-59.52c1.23,32.58,2.45,54.37,2.45,54.37s1.74-56,10.3-81.15c-6.63,32.43-2.82,70.18,0,85.32-3.69-33.3,9-62.74,7.08-91.48,0,0,9.53,9.45,6.11,44.47-3.28,33.68-3.86,61.32,4.6,90.26l.42-.59a7.18,7.18,0,0,0,.79-1.43,25.18,25.18,0,0,1-.63-3.17c-.73-5.12-1.14-13.83-1.4-23.27-.39-14.17-.44-30-.74-37.85-.48-13.08,2.19-24.8,3.42-35.81.13-1.13.24-2.25.33-3.37a38.54,38.54,0,0,0,.08-5,43.63,43.63,0,0,0-2.94-13.07c-1.4-3.83-3.07-7.64-4.54-11.94a34,34,0,0,0-4.1-8.44l0,0,0,0,0,0v0A17.06,17.06,0,0,0,110,96.57m-4.66-.87,0,0,0,0a23.71,23.71,0,0,0-2.26,1.11,39.44,39.44,0,0,0-10.8,8.85c-5.9,6.94-9.12,10.92-11.8,11.67l-.16,0h-.2l-.29-.08c-1.57-.5-3.35-2.1-5.75-4.75-1.63-1.81-3.56-4.11-5.91-6.88a38.38,38.38,0,0,0-4.21-4.24c-.71,2.85-1.48,5.59-2.16,8.14a81.6,81.6,0,0,0,13.43,9.87c-.53-.19-5.64-2.07-14.08-7.44-.1.38-.2.75-.29,1.12,9.71,9.32,12.49,10.91,13,11.16a88.43,88.43,0,0,1-14-7.09c-.23,1.07-.42,2-.58,3,5.93,8.39,8.39,10.37,8.57,10.51a39.62,39.62,0,0,1-9.12-5.7A32,32,0,0,0,59,129.9c1.63,1.57,2.73,2.43,2.87,2.54A22.83,22.83,0,0,1,59.07,131c.24,2,.63,4.43,1.12,7.52,3.68-1.89,10.11-6.67,19.12-18.71-4.52,9.16-8.57,13.84-8.81,14.11A175,175,0,0,0,94,109.78c6.59-8.17,11.86-11.83,15.26-13.47a15.8,15.8,0,0,0-3.24-.56l-.64,0M53,95h0a11.62,11.62,0,0,0-4.93,1.5c1.8,1.87,4.16,4.26,6.83,6.83.58-2.1,1.2-4.32,1.83-6.77-1-.54-1.65-.79-1.65-.79l-.13-.07h0l-.07,0h0a3.83,3.83,0,0,1-.81-.28l-.12,0-.11,0A4.08,4.08,0,0,0,53,95"/>
      <path class="cls-16" d="M80.18,269.16v6c2.88,3.21,11.25,1.77,11.25,1.77v-2.87S82.66,272.37,80.18,269.16Z"/>
      <path class="cls-31" d="M80.18,202.19c.11,2.79.15,5.58.23,8.37l.13,8.37c.08,5.58.07,11.17.11,16.75s0,11.16-.11,16.74l-.13,8.37c-.08,2.79-.12,5.58-.23,8.37-.1-2.79-.15-5.58-.23-8.37l-.13-8.37c-.07-5.58-.07-11.16-.11-16.74s0-11.17.11-16.75l.13-8.37C80,207.77,80.08,205,80.18,202.19Z"/>
      <path class="cls-32" d="M49.62,159.54c-6.18-.79-11.5-5.44-13.22-9.73-1.56-3.89-2.4-10.92-3.19-19.79q-.12-1.34-.24-2.73c-.53-6.33-1.23-10.76-1.68-13.2a3.83,3.83,0,0,0-2.56-2.93c-1-.33-2.26-.71-3.22-1-2.07-.56-7.21-.88-8.08-1.38a11.78,11.78,0,0,1-2.25-2.39,9.6,9.6,0,0,1-3.45-.69c-.94-.61-1.62-1.9-1.68-3.89s.64-3.36,2-3.06a3,3,0,0,1,3.15-2.26c.62-1.62,1.07-1.81,3-1.68s7.5,1.43,7.65,2.54a2.71,2.71,0,0,1-.6,2,4.36,4.36,0,0,1,2.08.12,22.15,22.15,0,0,1,6.06,3.29,18,18,0,0,1,3.8,3.09,18.59,18.59,0,0,1,2.56,4.77c1.07,2.49,2,5,2.88,7.61.84,2.4,1.67,4.81,2.51,7.21.18.54.37,1.07.55,1.61,3.17,9.19,6.22,18.17,7.89,22.57,1.78,4.65,2.14,10.65-4,9.85"/>
      <path class="cls-19" d="M26.07,99.35a3.38,3.38,0,0,0-.74.07h0a3.38,3.38,0,0,1,.74-.07,5.39,5.39,0,0,1,1.34.19,22.15,22.15,0,0,1,6.06,3.29,18,18,0,0,1,3.8,3.09,11.66,11.66,0,0,1,1.6,2.59h0a11.66,11.66,0,0,0-1.6-2.59,18,18,0,0,0-3.8-3.09,21.89,21.89,0,0,0-6.06-3.29,5,5,0,0,0-1.34-.19m-14-.57h0m3-2.24h0m.2,0h0m2.38-1.71.65,0c2,.12,7.5,1.43,7.65,2.54a2.72,2.72,0,0,1-.45,1.83,2.74,2.74,0,0,0,.45-1.84c-.15-1.1-5.69-2.41-7.64-2.53l-.66,0"/>
      <polyline class="cls-33" points="38.87 108.51 38.87 108.51 38.87 108.51 38.87 108.51 38.87 108.51"/>
      <path class="cls-34" d="M38.87,108.51h0c.31.65.59,1.32.87,2h0c-.28-.65-.56-1.32-.87-2"/>
      <path class="cls-19" d="M30.61,112.52h0l.15.23h0l-.15-.22"/>
      <path class="cls-34" d="M53.72,149.83a18.44,18.44,0,0,1,.86,3.07h0a18.44,18.44,0,0,0-.86-3.07m0-.08,0,.06,0-.06M43.27,119.91h0c.66,1.86,1.3,3.73,1.95,5.6.18.54.37,1.07.55,1.61h0c-.18-.54-.37-1.07-.55-1.61-.65-1.87-1.29-3.74-1.95-5.6"/>
      <path class="cls-35" d="M25.33,99.42c-.56,0-1.11.08-1.66.16a10.54,10.54,0,0,0-1.6.32l.1-.06c-.15.23,0,.69.15,1A7.22,7.22,0,0,0,23,102a7.63,7.63,0,0,0,.83,1,2.55,2.55,0,0,0,1,.67l-.29.07a6.31,6.31,0,0,1,2.12-1.27,5.33,5.33,0,0,1,2.44-.3,6.3,6.3,0,0,1,4,2.43A7,7,0,0,0,29,102.61a5.17,5.17,0,0,0-2.2.35,6.47,6.47,0,0,0-1.9,1.16l-.14.12-.15,0a3.05,3.05,0,0,1-1.21-.82,8,8,0,0,1-.87-1.07,6.79,6.79,0,0,1-.65-1.22,3.12,3.12,0,0,1-.18-.7,1,1,0,0,1,.17-.79l0-.06H22a8.16,8.16,0,0,1,1.69-.18A13.5,13.5,0,0,1,25.33,99.42Z"/>
      <path class="cls-35" d="M12.1,98.79c.1.71.2,1.41.32,2.08a7,7,0,0,0,.25,1,5.81,5.81,0,0,0,.46.89c.7,1.2,1.45,2.39,2,3.69A18.34,18.34,0,0,1,12.61,103a5.89,5.89,0,0,1-.48-1,5.24,5.24,0,0,1-.17-1.1A8.54,8.54,0,0,1,12.1,98.79Z"/>
      <path class="cls-35" d="M15.25,96.53c.13.79.26,1.57.41,2.34a10.59,10.59,0,0,0,.61,2.21,13.87,13.87,0,0,0,1.13,2l1.31,2a12.34,12.34,0,0,1-1.69-1.7,9.06,9.06,0,0,1-1.31-2.05,8.07,8.07,0,0,1-.52-2.39A12,12,0,0,1,15.25,96.53Z"/>
      <path class="cls-12" d="M49.62,159.54c-6.18-.79-11.5-5.44-13.22-9.73a42.64,42.64,0,0,1-2.07-9.3c-.42-3.08-.78-6.6-1.12-10.49,2.92,1.31,8,2.39,12.56-2.9,1.06,3.08,2.11,6.14,3.1,9,2,5.7,3.68,10.65,4.79,13.57,1.78,4.65,2.14,10.65-4,9.85"/>
      <path class="cls-13" d="M48.87,136.12c-4.11,4.52-10.38,4.81-14.54,4.39-.42-3.08-.78-6.6-1.12-10.49,2.92,1.31,8,2.39,12.56-2.9,1.06,3.08,2.11,6.14,3.1,9"/>
      <path class="cls-14" d="M34.81,143.6q.11.59.21,1.14-.1-.56-.21-1.14"/>
      <path class="cls-36" d="M48.87,136.12h0c1.68,4.87,3.18,9.2,4.27,12.18,0-.15-.11-.3-.16-.46-1.08-3-2.52-7.09-4.11-11.72h0"/>
      <path class="cls-36" d="M53.2,148.46c.16.44.32.85.46,1.23a18.08,18.08,0,0,1,.92,3.21h0a18.44,18.44,0,0,0-.86-3.07v0l0-.06,0-.06c-.14-.38-.29-.79-.46-1.23"/>
      <path class="cls-36" d="M46.29,158.73h0l.83.28-.83-.28"/>
      <path class="cls-14" d="M48.87,136.12l-.39.41h0l0,0h0l0,0h0l0,0h0l0,0,0,0,0,0,0,0h0l0,0h0l0,0h0a13.29,13.29,0,0,1-4.76,2.83c.46,1.21.92,2.45,1.37,3.72,2.89,8.09,3.27,12.93,1.49,15.36l.83.28c.4.11.8.22,1.21.31a37.56,37.56,0,0,0,3.1-2.9c.83-.92,1.94-2.23,3.15-3.52a18.08,18.08,0,0,0-.92-3.21c-.14-.38-.3-.79-.46-1.23h0l0-.12,0,0h0c-1.09-3-2.59-7.31-4.27-12.18"/>
      <path class="cls-15" d="M48.22,136.79l0,0,0,0m0,0,0,0,0,0m0,0,0,0,0,0m0,0,0,0,0,0m0,0h0m0,0h0m0,0h0m0,0h0m-8.63-5.63h0c1.17,2.68,2.38,5.62,3.58,8.75h0a13.29,13.29,0,0,0,4.76-2.83,13.29,13.29,0,0,1-4.76,2.83c-1.2-3.13-2.41-6.07-3.58-8.75"/>
      <path class="cls-37" d="M45.77,127.12h0c1.06,3.08,2.11,6.14,3.1,9h0c-1-2.87-2-5.92-3.1-9h0"/>
      <path class="cls-38" d="M45.5,127.43a10.54,10.54,0,0,1-5.65,3.46h0a10.57,10.57,0,0,0,5.65-3.47m0,0h0"/>
      <path class="cls-25" d="M48.19,136.82h0m0,0h0m0,0h0m0,0,0,0,0,0m0,0,0,0,0,0m0,0,0,0,0,0m0,0,0,0,0,0m0-.05,0,0,0,0m.39-.41-.39.41.39-.41h0"/>
      <path class="cls-26" d="M45.77,127.12l-.24.27h0l0,0a10.57,10.57,0,0,1-5.65,3.47c1.17,2.68,2.38,5.62,3.58,8.75a13.29,13.29,0,0,0,4.76-2.83h0l0,0h0l0,0h0l0,0,0,0,0,0,0,0h0l0,0h0l0,0h0l0,0h0l.39-.41h0c-1-2.86-2-5.92-3.1-9"/>
      <path class="cls-39" d="M80,146.69s.52,9.3.83,13.15c-8.69-.55-16.47-.85-17.39-.63s-4.19,3.36-5.93,5A9.31,9.31,0,0,1,51.24,167c-4.1,1.84-7.16,3.06-9,2.6s-.25-1.31.67-2.08c-2.79,1-2.79-.4-.09-3.21s6.79-5.88,8.6-7.9,5-5.83,7.5-7.43,4.17-2.16,10.69-2.16S80,146.69,80,146.69"/>
      <path class="cls-34" d="M80,146.69h0s.15,2.68.34,5.76c-.19-3.08-.34-5.76-.34-5.76"/>
      <path class="cls-28" d="M75,159.5h0c1.84.1,3.8.21,5.82.34h0c-2-.13-4-.24-5.82-.34"/>
      <path class="cls-25" d="M56.21,165.23A9.94,9.94,0,0,1,55,166h0a8.9,8.9,0,0,0,1.24-.78"/>
      <polyline class="cls-40" points="54.97 166.01 54.97 166.01 54.97 166.01 54.97 166.01 54.97 166.01"/>
      <path class="cls-34" d="M49.71,167.69a22.73,22.73,0,0,1-6.12,2,22.73,22.73,0,0,0,6.12-2M55,166a4.59,4.59,0,0,1-.5.24A4.59,4.59,0,0,0,55,166h0"/>
      <path class="cls-41" d="M42.92,167.53c1.29-.94,2.62-1.78,3.93-2.65s2.59-1.74,3.86-2.72a13.22,13.22,0,0,1-3.53,3.22A19.36,19.36,0,0,1,42.92,167.53Z"/>
      <path class="cls-42" d="M80,146.69c2.14-.48,4.26-1,6.38-1.57s4.24-1.11,6.35-1.7l.8-.22c.25-.08.5-.18.75-.27l.76-.28.7-.39a7.55,7.55,0,0,0,1.32-.91,9.43,9.43,0,0,0,1.17-1.11,17.7,17.7,0,0,0,3.22-5.59c.81-2,1.38-4.14,2.07-6.23.17-.52.38-1,.59-1.56l.39-.75c.11-.24.25-.46.35-.71a17.74,17.74,0,0,0,.87-3.12,30,30,0,0,1,1.8-6.34,13.4,13.4,0,0,1,4.07-5.12,13.22,13.22,0,0,0-3.86,5.21,29.54,29.54,0,0,0-1.65,6.32,16.53,16.53,0,0,1-.85,3.21c-.11.26-.26.51-.38.76l-.36.71c-.2.5-.4,1-.56,1.52-.67,2.08-1.23,4.21-2,6.27a18.24,18.24,0,0,1-3.34,5.71,10.11,10.11,0,0,1-1.22,1.14,7.71,7.71,0,0,1-1.39.94l-.74.4-.78.29c-.27.09-.53.19-.8.27l-.79.2C88.53,144.88,84.26,145.88,80,146.69Z"/>
      <path class="cls-43" d="M48.87,136.12c.6,1.34,1.14,2.7,1.68,4.07s1,2.74,1.55,4.11,1,2.76,1.44,4.15.92,2.79,1.25,4.22l-1.59-4.1-1.54-4.11c-.48-1.38-1-2.76-1.45-4.15S49.28,137.53,48.87,136.12Z"/>
      <path class="cls-44" d="M57.9,65.07S60.25,82.47,57,95.5s-6.34,19.31-4.7,35.25,2.25,15.33,3.06,24.83,5.52,16.86,4.91,21.46-1.23,13-.41,14.87,2.25,1.53,2.25,1.53a116.21,116.21,0,0,0,1-18.7c-.41-8.74-.61-21.92-2.65-34.64s-2.46-14.41-.21-24.52,8.59-26.83,5.52-38.78S57.9,65.07,57.9,65.07"/>
      <path class="cls-45" d="M63.38,83.61c.66,2.1.4,4-.59,4.2s-2.32-1.3-3-3.41-.4-4,.59-4.2,2.32,1.31,3,3.41"/>
      <path class="cls-45" d="M64.72,89.51c-.86.81-1.86,1.24-2.24,1s0-1.18.86-2,1.87-1.24,2.25-1S65.58,88.7,64.72,89.51Z"/>
      <path class="cls-45" d="M61.75,102.32c-.85.81-1.86,1.24-2.24,1s0-1.17.87-2,1.86-1.24,2.24-1S62.61,101.51,61.75,102.32Z"/>
      <path class="cls-45" d="M59.32,109.77c-1.36,1.28-3,2-3.55,1.5s0-1.85,1.37-3.13,2.94-2,3.54-1.5S60.67,108.49,59.32,109.77Z"/>
      <path class="cls-45" d="M56.85,129.36c-1.35,1.28-2.94,1.95-3.54,1.5s0-1.85,1.37-3.13,2.94-2,3.54-1.51S58.21,128.08,56.85,129.36Z"/>
      <path class="cls-45" d="M59,147.51c-.8.76-1.75,1.16-2.11.89s0-1.1.82-1.86,1.75-1.17,2.11-.9S59.77,146.74,59,147.51Z"/>
      <path class="cls-45" d="M61.52,166.5c-.81.76-1.76,1.17-2.12.9s0-1.11.82-1.87,1.75-1.16,2.11-.89S62.32,165.74,61.52,166.5Z"/>
      <path class="cls-45" d="M61.34,162.51c-.81.76-1.75,1.16-2.11.9s0-1.11.81-1.87,1.76-1.16,2.11-.9S62.15,161.75,61.34,162.51Z"/>
      <path class="cls-45" d="M58.91,158.65c.56.91.68,1.79.26,2s-1.23-.39-1.8-1.29-.68-1.79-.26-2S58.34,157.75,58.91,158.65Z"/>
      <path class="cls-45" d="M62.21,93.44c.55,1.73.33,3.29-.49,3.47s-1.92-1.08-2.46-2.82-.33-3.29.49-3.47S61.67,91.7,62.21,93.44Z"/>
      <path class="cls-45" d="M56.54,116.61c.54,1.74.32,3.29-.49,3.47s-1.92-1.08-2.47-2.82-.32-3.29.49-3.47S56,114.87,56.54,116.61Z"/>
      <path class="cls-45" d="M56.42,134.62c.55,1.73.33,3.29-.49,3.47S54,137,53.47,135.27s-.33-3.29.49-3.47S55.88,132.88,56.42,134.62Z"/>
      <path class="cls-45" d="M57.4,141.87c.47,1.49.28,2.82-.42,3s-1.64-.92-2.11-2.41-.28-2.82.42-3S56.93,140.38,57.4,141.87Z"/>
      <path class="cls-45" d="M60.14,98.08c.39,1.24.24,2.35-.35,2.48s-1.37-.77-1.76-2-.24-2.36.35-2.49S59.75,96.83,60.14,98.08Z"/>
      <polygon class="cls-46" points="57.56 194.69 56.1 209.35 55.26 217.87 56.44 217.87 58.82 193.7 61.06 193.59 60.8 217.76 61.85 217.76 62.09 193.44 63.72 193.44 65.29 218.09 66.08 217.98 64.63 192.59 67.93 217.54 69.25 217.43 65.16 191.82 61.2 188.04 57.56 194.69"/>
      <path class="cls-47" d="M56.62,209.15A31.41,31.41,0,0,0,52,227.7l.71-.52.35,2.44.79-3.18.44,2.74.35-1.33,1.59,2.29-.53-4.07.79,1.7.27-2L58,228.59V225l1,2.66.09-2.59s1.41,3.92,1.32,3.63A38.64,38.64,0,0,0,56.62,209.15Z"/>
      <path class="cls-12" d="M61.72,209.15a31.44,31.44,0,0,0-4.57,18.55l.7-.52.35,2.44.8-3.18.44,2.74.35-1.33,1.58,2.29-.53-4.07.79,1.7.27-2,1.23,2.81V225l1.06,2.66.08-2.59s1.41,3.92,1.32,3.63A38.38,38.38,0,0,0,61.72,209.15Z"/>
      <path class="cls-48" d="M66.65,209.15a31.41,31.41,0,0,0-4.58,18.55l.71-.52.35,2.44.79-3.18.44,2.74.35-1.33,1.59,2.29-.53-4.07.79,1.7.27-2,1.23,2.81V225l1,2.66.09-2.59s1.41,3.92,1.32,3.63A38.64,38.64,0,0,0,66.65,209.15Z"/>
      <path class="cls-42" d="M67.89,209.39a30.82,30.82,0,0,0-2.55,18.82l.65-.57.61,2.4.45-3.22.73,2.69.21-1.35,1.82,2.16-1-4,1,1.63,0-2,1.54,2.71L71,225.1l1.34,2.57-.19-2.58s1.82,3.79,1.7,3.51A39.14,39.14,0,0,0,67.89,209.39Z"/>
      <path class="cls-49" d="M57.56,194.69h0A1.54,1.54,0,0,1,56,193.1l1.72-13.6a1.68,1.68,0,0,1,1.89-1.28,1.53,1.53,0,0,1,1.52,1.59l-1.71,13.6A1.68,1.68,0,0,1,57.56,194.69Z"/>
      <path class="cls-49" d="M60.38,182.8l-2.56-.22a1.26,1.26,0,0,1-1.26-1.32,1.39,1.39,0,0,1,1.56-1.06l2.56.23a1.27,1.27,0,0,1,1.26,1.31A1.38,1.38,0,0,1,60.38,182.8Z"/>
      <path class="cls-49" d="M60,185.72l-2.56-.22a1.26,1.26,0,0,1-1.26-1.31,1.37,1.37,0,0,1,1.56-1.06l2.56.22a1.27,1.27,0,0,1,1.26,1.32A1.37,1.37,0,0,1,60,185.72Z"/>
      <path class="cls-49" d="M59.07,193.17l-2.56-.23a1.26,1.26,0,0,1-1.26-1.31,1.37,1.37,0,0,1,1.56-1.06l2.56.23a1.26,1.26,0,0,1,1.26,1.31A1.38,1.38,0,0,1,59.07,193.17Z"/>
      <rect class="cls-46" x="59.79" y="178.18" width="3.43" height="16.56" rx="1.57"/>
      <path class="cls-46" d="M63,182.67H60a1.2,1.2,0,0,1,0-2.39h3a1.2,1.2,0,0,1,0,2.39Z"/>
      <path class="cls-46" d="M63,185.61H60a1.2,1.2,0,0,1,0-2.39h3a1.2,1.2,0,0,1,0,2.39Z"/>
      <path class="cls-46" d="M63,193.09H60a1.19,1.19,0,1,1,0-2.38h3a1.19,1.19,0,1,1,0,2.38Z"/>
      <path class="cls-49" d="M65.69,194.63h0a1.7,1.7,0,0,1-2-1.19L61.05,180a1.5,1.5,0,0,1,1.41-1.66,1.71,1.71,0,0,1,2,1.19L67.1,193A1.49,1.49,0,0,1,65.69,194.63Z"/>
      <path class="cls-49" d="M64.63,182.54l-2.54.36a1.43,1.43,0,0,1-1.63-1,1.24,1.24,0,0,1,1.17-1.38l2.54-.35a1.41,1.41,0,0,1,1.63,1A1.24,1.24,0,0,1,64.63,182.54Z"/>
      <path class="cls-49" d="M65.2,185.44l-2.54.35a1.41,1.41,0,0,1-1.63-1,1.24,1.24,0,0,1,1.17-1.37l2.54-.35a1.41,1.41,0,0,1,1.63,1A1.23,1.23,0,0,1,65.2,185.44Z"/>
      <path class="cls-49" d="M66.66,192.82l-2.54.36a1.41,1.41,0,0,1-1.63-1,1.22,1.22,0,0,1,1.17-1.37l2.54-.36a1.41,1.41,0,0,1,1.63,1A1.23,1.23,0,0,1,66.66,192.82Z"/>
      <path class="cls-46" d="M65.28,178a1.29,1.29,0,0,1-.49,1,1.81,1.81,0,0,1-1.19.41H58.13A1.56,1.56,0,0,1,56.44,178a1.22,1.22,0,0,1,.2-.67,1.55,1.55,0,0,1,.3-.33,1.81,1.81,0,0,1,1.19-.41H63.6a1.75,1.75,0,0,1,1.49.74A1.3,1.3,0,0,1,65.28,178Z"/>
      <path class="cls-49" d="M65.09,177.37a1.59,1.59,0,0,1-.3.34,1.86,1.86,0,0,1-1.19.41H58.13a1.73,1.73,0,0,1-1.49-.75,1.55,1.55,0,0,1,.3-.33,1.81,1.81,0,0,1,1.19-.41H63.6A1.75,1.75,0,0,1,65.09,177.37Z"/>
      <path class="cls-4" d="M60.24,73.54a5.61,5.61,0,0,1-4.36,1.17c-4.88-.88-8.11-8.87-6.63-11.33.08-.13.16-.24.24-.36,2-2.64,6-1.08,6-1.08s11.83,6.46,4.72,11.6"/>
      <path class="cls-7" d="M51.31,66.41a1.46,1.46,0,0,0-.52.55c-.92,1.62,2.34,4.45,4.78,5.49a2.22,2.22,0,0,1,.45,0,2.07,2.07,0,0,1,2.07,2.06c0,.05,0,.1,0,.14l.36-.11A24.2,24.2,0,0,1,57,71.11l-.26-1.29c-.63-.54-1.23-1.08-1.84-1.57A10.75,10.75,0,0,0,53.13,67a5.51,5.51,0,0,0-1.82-.62m.44-4.81A3.77,3.77,0,0,0,49.49,63c.73.07,2.45.49,4.28,2.83a5,5,0,0,1,1.57.69,34.54,34.54,0,0,1-3.59-4.94"/>
      <path class="cls-50" d="M58.55,71.26c-1.4-1-2.49-2.08-3.65-3A10.75,10.75,0,0,0,53.13,67,5.44,5.44,0,0,0,51,66.37a3.05,3.05,0,0,1,2.58-.57A5.33,5.33,0,0,1,55.93,67a7.51,7.51,0,0,1,1.69,1.92,6.38,6.38,0,0,1,.93,2.36"/>
      <path class="cls-51" d="M59.23,85.72c-1.76.82-3.86.64-6.17-.08V85c.06-5.86,2.59-8.31,3-8.66l.05,0C60,79.2,59.23,85.72,59.23,85.72Z"/>
      <path class="cls-52" d="M58.15,84.8a7.62,7.62,0,0,1-5.09.22c0-.53,0-1,.08-1.5a11.63,11.63,0,0,1,2.42-6.65,3.62,3.62,0,0,1,.48-.51C58.75,79.52,58.15,84.8,58.15,84.8Z"/>
      <path class="cls-53" d="M56.32,83a6.35,6.35,0,0,1-3.18.52,11.63,11.63,0,0,1,2.42-6.65A14.6,14.6,0,0,1,56.32,83Z"/>
      <path class="cls-54" d="M54.25,86.34a.87.87,0,0,1-1.74.06h0a.87.87,0,0,1,.85-.89h.18A.87.87,0,0,1,54.25,86.34Z"/>
      <path class="cls-3" d="M54,86.15a.75.75,0,0,1-1.46.24.87.87,0,0,1,.85-.89h.18A.73.73,0,0,1,54,86.15Z"/>
      <path class="cls-54" d="M55.75,86.56a.88.88,0,0,1-.84.89.86.86,0,0,1-.9-.84h0a.88.88,0,0,1,.84-.89H55A.9.9,0,0,1,55.75,86.56Z"/>
      <path class="cls-3" d="M55.46,86.37a.75.75,0,0,1-.72.77A.74.74,0,0,1,54,86.6a.88.88,0,0,1,.84-.89H55A.74.74,0,0,1,55.46,86.37Z"/>
      <path class="cls-54" d="M57.35,86.71a.87.87,0,0,1-1.74.06v0a.87.87,0,0,1,.84-.88h.18A.88.88,0,0,1,57.35,86.71Z"/>
      <path class="cls-3" d="M57.06,86.52a.75.75,0,0,1-.72.77.74.74,0,0,1-.73-.54.87.87,0,0,1,.84-.88h.18A.72.72,0,0,1,57.06,86.52Z"/>
      <path class="cls-54" d="M58.83,86.61a.87.87,0,0,1-1.74.06h0a.87.87,0,0,1,.84-.89h.18A.87.87,0,0,1,58.83,86.61Z"/>
      <path class="cls-3" d="M58.54,86.42a.74.74,0,0,1-.71.77.75.75,0,0,1-.74-.53.87.87,0,0,1,.84-.89h.18A.73.73,0,0,1,58.54,86.42Z"/>
      <path class="cls-54" d="M60.35,86.15a.87.87,0,0,1-1.74.06h0a.87.87,0,0,1,.84-.89h.18A.87.87,0,0,1,60.35,86.15Z"/>
      <path class="cls-3" d="M60.06,86a.74.74,0,0,1-.71.77.75.75,0,0,1-.74-.53.87.87,0,0,1,.84-.89h.18A.72.72,0,0,1,60.06,86Z"/>
      <path class="cls-51" d="M58.09,74.46A2.07,2.07,0,1,1,56,72.4a2.07,2.07,0,0,1,2.07,2.06"/>
      <path class="cls-52" d="M57.89,74.46A1.87,1.87,0,1,1,56,72.59a1.87,1.87,0,0,1,1.87,1.87"/>
      <path class="cls-53" d="M57,74.14a1.17,1.17,0,1,1-1.17-1.07A1.13,1.13,0,0,1,57,74.14Z"/>
      <path class="cls-4" d="M97.65,73.54A5.6,5.6,0,0,0,102,74.71c4.88-.88,8.1-8.87,6.63-11.33-.08-.13-.16-.24-.24-.36-2-2.64-6-1.08-6-1.08s-11.83,6.46-4.72,11.6"/>
      <path class="cls-7" d="M99.81,74.31c0,.09-.09.17-.13.26l.13,0a.61.61,0,0,1,0-.14.76.76,0,0,1,0-.15m6.77-7.9a5.43,5.43,0,0,0-1.82.62A10.34,10.34,0,0,0,103,68.25c-.49.39-1,.81-1.45,1.23l0,.75c-.33,1-.69,1.88-1.08,2.76a2,2,0,0,1,1.44-.59,2.31,2.31,0,0,1,.46,0c2.43-1,5.7-3.87,4.78-5.49a1.46,1.46,0,0,0-.52-.55M105,61.48c-.26,0-.51,0-.75,0-.91,1.66-1.8,3-2.46,4l-.09,1.72A3.47,3.47,0,0,1,102,67a5.43,5.43,0,0,1,2.17-1.13c1.83-2.34,3.55-2.76,4.28-2.83A4.11,4.11,0,0,0,105,61.48"/>
      <path class="cls-50" d="M99.34,71.26a6.38,6.38,0,0,1,.93-2.36A7.66,7.66,0,0,1,102,67a5.37,5.37,0,0,1,2.4-1.18,3,3,0,0,1,2.57.57,5.44,5.44,0,0,0-2.16.66A10.34,10.34,0,0,0,103,68.25c-1.16.93-2.25,2-3.65,3"/>
      <path class="cls-51" d="M98.66,85.72c1.76.82,3.86.64,6.17-.08V85c-.06-5.86-2.59-8.31-3-8.66l0,0C97.93,79.2,98.66,85.72,98.66,85.72Z"/>
      <path class="cls-52" d="M99.74,84.8a7.62,7.62,0,0,0,5.09.22c0-.53,0-1-.08-1.5a11.63,11.63,0,0,0-2.42-6.65,3.62,3.62,0,0,0-.48-.51C99.14,79.52,99.74,84.8,99.74,84.8Z"/>
      <path class="cls-53" d="M101.56,83a6.41,6.41,0,0,0,3.19.52,11.63,11.63,0,0,0-2.42-6.65A14.69,14.69,0,0,0,101.56,83Z"/>
      <path class="cls-54" d="M103.63,86.34a.87.87,0,0,0,.85.89.85.85,0,0,0,.89-.83h0a.86.86,0,0,0-.84-.89h-.18A.89.89,0,0,0,103.63,86.34Z"/>
      <path class="cls-3" d="M103.92,86.15a.75.75,0,0,0,.72.77.74.74,0,0,0,.73-.53.86.86,0,0,0-.84-.89h-.18A.73.73,0,0,0,103.92,86.15Z"/>
      <path class="cls-54" d="M102.14,86.56a.87.87,0,0,0,1.74,0h0a.88.88,0,0,0-.84-.89h-.18A.88.88,0,0,0,102.14,86.56Z"/>
      <path class="cls-3" d="M102.43,86.37a.75.75,0,0,0,.72.77.74.74,0,0,0,.73-.54.88.88,0,0,0-.84-.89h-.18A.74.74,0,0,0,102.43,86.37Z"/>
      <path class="cls-54" d="M100.54,86.71a.86.86,0,0,0,.84.89.87.87,0,0,0,.9-.83v0a.87.87,0,0,0-.84-.88h-.18A.87.87,0,0,0,100.54,86.71Z"/>
      <path class="cls-3" d="M100.83,86.52a.75.75,0,0,0,.72.77.74.74,0,0,0,.73-.54.87.87,0,0,0-.84-.88h-.18A.72.72,0,0,0,100.83,86.52Z"/>
      <path class="cls-54" d="M99.06,86.61a.87.87,0,0,0,1.74.06h0a.87.87,0,0,0-.84-.89h-.19A.87.87,0,0,0,99.06,86.61Z"/>
      <path class="cls-3" d="M99.35,86.42a.74.74,0,0,0,.71.77.76.76,0,0,0,.74-.53.87.87,0,0,0-.84-.89h-.19A.74.74,0,0,0,99.35,86.42Z"/>
      <path class="cls-54" d="M97.54,86.15a.87.87,0,0,0,1.74.06h0a.87.87,0,0,0-.84-.89h-.19A.87.87,0,0,0,97.54,86.15Z"/>
      <path class="cls-3" d="M97.83,86a.74.74,0,0,0,.71.77.76.76,0,0,0,.74-.53.87.87,0,0,0-.84-.89h-.19A.73.73,0,0,0,97.83,86Z"/>
      <path class="cls-51" d="M99.8,74.46a2.07,2.07,0,1,0,2.06-2.06,2.06,2.06,0,0,0-2.06,2.06"/>
      <path class="cls-52" d="M100,74.46a1.87,1.87,0,1,0,1.86-1.87A1.87,1.87,0,0,0,100,74.46"/>
      <path class="cls-53" d="M100.91,74.14a1.17,1.17,0,1,0,1.17-1.07A1.13,1.13,0,0,0,100.91,74.14Z"/>
      <path class="cls-55" d="M57,68.17c-.73-.36-10-9.71-9.79-22.11S49.55,23.72,65,17.35,88.6,12.92,96.23,20s12.3,17,12.3,27.08-7.94,20-7.94,20L57,68.17"/>
      <g class="cls-56">
        <rect class="cls-7" x="62.65" y="53.49" width="7.95" height="12.69"/>
      </g>
      <path class="cls-57" d="M69.21,61.23c.14,2.32-.87,4.28-2.24,4.4s-2.6-1.67-2.74-4,.87-4.28,2.24-4.39S69.07,58.92,69.21,61.23Z"/>
      <path class="cls-3" d="M66.31,60c0,.73-.27,1.34-.7,1.38s-.82-.53-.86-1.25.27-1.35.7-1.38S66.27,59.24,66.31,60Z"/>
      <path class="cls-3" d="M66.94,61.63c0,.37-.13.68-.35.7s-.42-.27-.44-.64.14-.68.36-.7S66.92,61.26,66.94,61.63Z"/>
      <path class="cls-7" d="M90.3,53.56c-1.91,0-3.65,2.46-4,5.7-.33,3.41,1,6.4,3.07,6.67l.3,0c1.91,0,3.65-2.46,4-5.7.33-3.41-1-6.4-3.07-6.67l-.3,0"/>
      <path class="cls-57" d="M92.28,61.64c-.22,2.26-1.48,3.94-2.82,3.76s-2.25-2.15-2-4.41,1.48-3.93,2.82-3.75S92.5,59.39,92.28,61.64Z"/>
      <path class="cls-3" d="M89.69,59.82c-.07.71-.47,1.24-.89,1.18s-.7-.67-.64-1.38.47-1.24.89-1.18S89.75,59.11,89.69,59.82Z"/>
      <path class="cls-3" d="M90,61.55c0,.36-.23.62-.45.6s-.35-.35-.32-.7.23-.63.45-.6S90.08,61.19,90,61.55Z"/>
      <path class="cls-50" d="M66.65,73A8.06,8.06,0,0,1,66,74.11c-.11.12-.19.24-.32.39s-.24.32-.45.56a1,1,0,0,1-.34-.77,1.32,1.32,0,0,1,.27-.82,1.52,1.52,0,0,1,.68-.48,1.17,1.17,0,0,1,.84,0"/>
      <path class="cls-50" d="M91.94,73a1.14,1.14,0,0,1,.83,0,1.42,1.42,0,0,1,.68.48,1.32,1.32,0,0,1,.27.82,1,1,0,0,1-.34.77c-.21-.24-.33-.42-.45-.56s-.21-.27-.32-.39A8.22,8.22,0,0,1,91.94,73Z"/>
      <path class="cls-3" d="M87.06,75.66a12.16,12.16,0,0,1-8.71,3.48A10.38,10.38,0,0,1,70,75.34,35.11,35.11,0,0,0,87.06,75.66Z"/>
      <path class="cls-58" d="M73.42,75.56s4-4.44,11.15,0C84.57,75.56,76.53,76.74,73.42,75.56Z"/>
      <path class="cls-58" d="M83.08,82.91c0,.79-2,1.43-4.36,1.43s-4.37-.64-4.37-1.43,2-1.43,4.37-1.43,4.36.64,4.36,1.43"/>
      <path class="cls-59" d="M74.49,68.35a6.87,6.87,0,0,1,8.41.36S78.56,72.25,74.49,68.35Z"/>
      <polygon class="cls-50" points="81.94 65.42 83.2 68.62 83.3 68.86 83.01 69.01 78.93 71.06 78.66 71.2 78.39 71.07 74.13 68.97 73.84 68.83 73.95 68.59 75.29 65.68 74.52 68.79 74.34 68.41 78.92 69.67 78.39 69.67 82.78 68.41 82.59 68.8 81.94 65.42"/>
      <path class="cls-55" d="M86.32,46.12c-1,1.9-.5,3-.5,3a24.1,24.1,0,0,1,4.05,1.11l.32.12.23.09a17.6,17.6,0,0,1,2.77,1.42,5.27,5.27,0,0,1,.46.31c.16.1.3.21.43.31a7.67,7.67,0,0,1,1.41,1.29A10.34,10.34,0,0,0,95,51.67c-.08-.2-.16-.4-.25-.59a4.25,4.25,0,0,0-.27-.52,7.48,7.48,0,0,0-1.92-2.25l-.33-.25-.33-.22A11.71,11.71,0,0,0,86.32,46.12Z"/>
      <path class="cls-45" d="M94.75,51.08a6.63,6.63,0,0,0-1.1,1.08c.16.1.3.21.43.31a5.48,5.48,0,0,1,.92-.8C94.92,51.47,94.84,51.27,94.75,51.08Z"/>
      <path class="cls-45" d="M92.56,48.31a6.37,6.37,0,0,0-2.14,2.12,17.6,17.6,0,0,1,2.77,1.42,7.83,7.83,0,0,1,1.29-1.29A7.48,7.48,0,0,0,92.56,48.31Z"/>
      <path class="cls-45" d="M89.87,50.22l.32.12a8.11,8.11,0,0,1,2-2.28l-.33-.22A8.07,8.07,0,0,0,89.87,50.22Z"/>
      <path class="cls-55" d="M69.76,46.28c1,2,.34,3.07.34,3.07a24.84,24.84,0,0,0-4.19.92l-.34.1-.24.09a17.08,17.08,0,0,0-2.89,1.29A4.53,4.53,0,0,0,62,52l-.46.29A7.92,7.92,0,0,0,60,53.57a8.92,8.92,0,0,1,.61-2.1c.09-.2.18-.4.28-.59s.2-.35.31-.52a7.67,7.67,0,0,1,2.08-2.19l.34-.23.35-.22A12,12,0,0,1,69.76,46.28Z"/>
      <path class="cls-45" d="M60.88,50.88A6.82,6.82,0,0,1,62,52l-.46.29a5.92,5.92,0,0,0-.89-.86C60.69,51.27,60.78,51.07,60.88,50.88Z"/>
      <path class="cls-45" d="M63.27,48.17a6.39,6.39,0,0,1,2.06,2.29,17.08,17.08,0,0,0-2.89,1.29,8,8,0,0,0-1.25-1.39A7.67,7.67,0,0,1,63.27,48.17Z"/>
      <path class="cls-45" d="M65.91,50.27l-.34.1a8.09,8.09,0,0,0-2-2.43l.35-.22A8.1,8.1,0,0,1,65.91,50.27Z"/>
      <path class="cls-45" d="M86.2,34.32s-5.21-5.8-16.38-2S51.56,55.34,51.56,55.34,59.82,10.4,82.14,27.51c0,0-4.2-10.44-17.1-4.78s-13.63,25.8-13.63,25.8S49.56,19.31,69.1,18.81C86.2,18.38,86.2,34.32,86.2,34.32Z"/>
      <path class="cls-45" d="M92,38.53s11.21,3.18,13.14,18c0,0,3.58-12.37-6.08-19,0,0,5,1.94,7,5.7,0,0,.2-21-20.68-19.23,0,0,12,3.29,16,11.21a15.62,15.62,0,0,0-10.73-4.83s4.74,2,7.15,5.22L93.16,34s5.51,4,7.06,7.35A12.65,12.65,0,0,0,92,38.53Z"/>
      <path class="cls-45" d="M83.88,21.42s7.69-3,13.78,2.18C97.66,23.6,90.55,11.71,83.88,21.42Z"/>
      <path class="cls-13" d="M31,121a2.91,2.91,0,0,1-1.3-1.25h0c-1-1.59-1.4-4.24-.07-6a3.74,3.74,0,0,1,1.18-1l.24.54s5.82,1.58,9.13-1.59l-.47-1.19s4-.4,4.82,6.07S33,121.76,31,121"/>
      <path class="cls-15" d="M39.84,110.48H39.7l.47,1.19h0a8.3,8.3,0,0,1-5.83,2,14.09,14.09,0,0,1-3.3-.39l-.24-.54a3.74,3.74,0,0,0-1.18,1,12.2,12.2,0,0,0,5,.77c.68,0,1.43,0,2.26-.08l.71,0c2.83,0,2.92,1.34,1.41,2.68a13.15,13.15,0,0,1-8.21,2.67c-.36,0-.71,0-1.08,0A2.91,2.91,0,0,0,31,121a18.3,18.3,0,0,0,5.33.66c3.84,0,8.25-.92,8.24-4.46a4.4,4.4,0,0,0,0-.62c-.76-5.76-4-6.07-4.68-6.07"/>
      <path class="cls-13" d="M74.79,159.87a3.82,3.82,0,0,1-1.8,1.49h0c-2.2,1-5.69,1.22-7.78-.7A5.08,5.08,0,0,1,64,159l.74-.24s2.79-7.21-.9-11.84l-1.61.43s0-5.1,8.52-5.34,5.29,15.41,4,17.83"/>
      <path class="cls-15" d="M71,142h-.19l-.65,0c-3.72.22-5.69,1.43-6.72,2.63a4.47,4.47,0,0,0-1.15,2.68h0l1.61-.43a9.69,9.69,0,0,1,1.91,6.14,17.64,17.64,0,0,1-1,5.7L64,159a5.08,5.08,0,0,0,1.18,1.64c.81-1.34,1.66-4,1.83-9.15.09-2.67.8-3.8,1.71-3.8,2.18,0,5.52,6.5,4.24,13.64a3.82,3.82,0,0,0,1.8-1.49,26.44,26.44,0,0,0,1.68-9.43,17,17,0,0,0-.33-3.48c0-.06,0-.12,0-.18A7.89,7.89,0,0,0,74.9,144a3.92,3.92,0,0,0-.25-.32,4.35,4.35,0,0,0-1.29-1A4.91,4.91,0,0,0,71,142"/>
      <g>
        <path class="cls-44" d="M112.38,48.52c0,18.37-14.49,30-32.55,30S47.14,63.67,47.14,45.31,56.6,11.36,80.4,11.36C105.35,11.36,112.38,30.15,112.38,48.52Z"/>
        <g>
          <path class="cls-60" d="M54.8,63.16c-1.29-1.75-3-3.43-5-3.11s-3,2.2-2.59,5.44,1.1,4.93,3.57,6.87,3.75,2.91,6.35,1.17C57.59,70,55.45,64.33,54.8,63.16Z"/>
          <path class="cls-61" d="M55.54,72.19a7.69,7.69,0,0,1-.84-.49,3.07,3.07,0,0,1-1.18-1.44,3,3,0,0,1-.18-1.84,3.17,3.17,0,0,1,.38-1,1.74,1.74,0,0,1,.11-.18l-.06-.11c-.11-.22-.23-.43-.36-.65a12.63,12.63,0,0,0-1.26-1.74,4,4,0,0,0-1.72-1.35,1.35,1.35,0,0,0-1.11.13,1,1,0,0,0-.52.92.93.93,0,0,1,.59-.78,1.23,1.23,0,0,1,1,0A4.23,4.23,0,0,1,51.89,65a19,19,0,0,1,1.3,1.66c.15.22.3.44.44.67a3.24,3.24,0,0,0-.55,1,3.11,3.11,0,0,0,.12,2,3.17,3.17,0,0,0,1.36,1.53,6.24,6.24,0,0,0,.91.42,1.54,1.54,0,0,0,1,.1A1.6,1.6,0,0,1,55.54,72.19Zm-5.69-3.32a4.07,4.07,0,0,1-.37-2,15.62,15.62,0,0,1,.31-2.13,8.76,8.76,0,0,0-.57,2.11,3.91,3.91,0,0,0,.33,2.2,4.23,4.23,0,0,0,1.54,1.6,9.67,9.67,0,0,0,2,.93,20.91,20.91,0,0,1-1.83-1.14A4.48,4.48,0,0,1,49.85,68.87Z"/>
        </g>
        <g>
          <path class="cls-60" d="M104.41,63.27c1.31-1.78,3-3.49,5.06-3.16s3,2.24,2.63,5.52-1.12,5-3.62,7-3.81,3-6.44,1.18C101.58,70.17,103.75,64.45,104.41,63.27Z"/>
          <path class="cls-61" d="M102.72,72.68a1.47,1.47,0,0,0,1-.1,5.58,5.58,0,0,0,.93-.43A3.19,3.19,0,0,0,106,70.6a3.11,3.11,0,0,0,.12-2.06,2.92,2.92,0,0,0-.56-1.06c.14-.23.3-.46.45-.68a19.65,19.65,0,0,1,1.32-1.69,4.35,4.35,0,0,1,1.57-1.34,1.23,1.23,0,0,1,1,0,.94.94,0,0,1,.6.79,1,1,0,0,0-.52-.93,1.39,1.39,0,0,0-1.13-.13,4.06,4.06,0,0,0-1.74,1.37,11.72,11.72,0,0,0-1.28,1.77,7,7,0,0,0-.36.66l-.06.11a1.74,1.74,0,0,1,.11.18,3.22,3.22,0,0,1,.38,1,3.07,3.07,0,0,1-.18,1.87,3.16,3.16,0,0,1-1.2,1.46,7,7,0,0,1-.85.5A1.64,1.64,0,0,1,102.72,72.68ZM108,70.63c-.58.43-1.23.78-1.86,1.16a10.48,10.48,0,0,0,2-.94,4.36,4.36,0,0,0,1.56-1.63,3.91,3.91,0,0,0,.33-2.23,8.57,8.57,0,0,0-.58-2.14,16.08,16.08,0,0,1,.32,2.16,4.07,4.07,0,0,1-.38,2A4.57,4.57,0,0,1,108,70.63Z"/>
        </g>
        <g>
          <path class="cls-60" d="M105.9,53.5c0,.23,2.33.48,2.31.71a152,152,0,0,1-3.43,19.25A14.92,14.92,0,0,1,103,77.58a17,17,0,0,1-4.89,5,58.65,58.65,0,0,1-8.72,4.71A42.52,42.52,0,0,1,85,89a16.66,16.66,0,0,1-4.8.93,18.77,18.77,0,0,1-5.42-1,70.74,70.74,0,0,1-11-4.84C60.22,82.22,56,78.3,55,74.12A194.55,194.55,0,0,1,51.21,54.6c-.36-2.64,1.9-3.67,4.07-11.49,2.91-10.5,6.91-14.65,23.45-14.65C107.61,28.46,106.83,45.4,105.9,53.5Z"/>
          <path class="cls-62" d="M53,65.09s2.73-17.71,8.61-22.51S68.3,34.7,68.3,34.7A18.19,18.19,0,0,0,80,47.5l-.44-5.38a13.08,13.08,0,0,0,6,5.38l-1-6.79A104.14,104.14,0,0,1,99.69,48c7.33,4.39,7,18.88,7,18.88l-2.94-30-25-10.39L62.8,25.85,52,40.71l1.67,11.58Z"/>
        </g>
        <g>
          <ellipse class="cls-63" cx="91.99" cy="59.41" rx="5.27" ry="5.58"/>
          <ellipse class="cls-64" cx="92.06" cy="59.35" rx="3.53" ry="3.74"/>
          <ellipse class="cls-3" cx="93.71" cy="56.35" rx="0.97" ry="1.02"/>
        </g>
        <g>
          <ellipse class="cls-63" cx="66.85" cy="60.42" rx="5.27" ry="5.58"/>
          <ellipse class="cls-64" cx="66.98" cy="60.42" rx="3.48" ry="3.68"/>
          <ellipse class="cls-3" cx="68.58" cy="57.35" rx="0.97" ry="1.02"/>
        </g>
        <path class="cls-65" d="M75.94,67.93c.71.32,1.26.58,1.8.76a7.42,7.42,0,0,0,1.49.38,6.17,6.17,0,0,0,3.29-.5,2.71,2.71,0,0,1-1.19,1.94,3.35,3.35,0,0,1-2.37.54A3.42,3.42,0,0,1,75.94,67.93Z"/>
        <g>
          <path class="cls-62" d="M70.22,72.93c-.41-.16-.88-.81-1.25-1a2.85,2.85,0,0,0-1.22-.41c-.56,0-1.24.15-1.35.66A1.14,1.14,0,0,0,67,73.2a3.56,3.56,0,0,0,2.15.66,1.1,1.1,0,0,0,.9-.34c.18-.26,0-.71-.36-.66Z"/>
          <path class="cls-62" d="M88.3,74.06c.26-.29.68-1.09,1-1.3a1.6,1.6,0,0,1,.72-.28,1.22,1.22,0,0,1,1.23.78,1.47,1.47,0,0,1-.32,1.4,2.81,2.81,0,0,1-1.31.8,2.1,2.1,0,0,1-1,.09.91.91,0,0,1-.74-.65.89.89,0,0,1,.46-.84,3,3,0,0,1,1-.33Z"/>
          <g>
            <path class="cls-66" d="M90,73.63a8.51,8.51,0,0,1-.45,1c-1,2-3.37,5.7-6.38,7.08a8.38,8.38,0,0,1-7-.13c-2.88-1.35-4.18-3-5.83-5.67-.54-.88-1.11-1.88-1.79-3,0,0-.16-.21.11-.22a1.26,1.26,0,0,1,.44.07c1.62.45,5.72,2.73,12.08,2.42a22,22,0,0,0,8.52-1.79.21.21,0,0,1,.29.1A.13.13,0,0,1,90,73.63Z"/>
            <path class="cls-67" d="M89.59,74.67c-1,2-3.37,5.7-6.38,7.08a8.38,8.38,0,0,1-7-.13c-2.88-1.35-4.18-3-5.83-5.67,1.92,2.12,5.16,4.9,9.09,5.17C84.87,81.49,88.54,76.35,89.59,74.67Z"/>
            <path class="cls-68" d="M90,73.51A20.76,20.76,0,0,1,79,76.09a17.9,17.9,0,0,1-10.27-3.38,1.26,1.26,0,0,1,.44.07c1.62.45,5.72,2.73,12.08,2.42a22,22,0,0,0,8.52-1.79A.21.21,0,0,1,90,73.51Z"/>
            <path class="cls-69" d="M71.09,73.94a20.06,20.06,0,0,0,16.33.78s-1.35,3.09-7,3.38A10.49,10.49,0,0,1,71.09,73.94Z"/>
            <path class="cls-70" d="M79.51,81a7.16,7.16,0,0,1-3.65-1c1.18-1.16,2.69-.31,4-.68,2.69-.77,3.61.19,4,.72A6.86,6.86,0,0,1,79.51,81Z"/>
          </g>
        </g>
        <path class="cls-64" d="M68.63,49.12s-5.25-.9-7.77,2.6c-.1.14-.34.07-.32-.09.08-1.06.65-3.25,3.92-3.88C69.61,46.74,68.63,49.12,68.63,49.12Z"/>
        <path class="cls-64" d="M88.73,47s5.25-.89,7.77,2.6c.11.14.34.07.33-.09-.08-1.06-.66-3.24-3.92-3.88C87.76,44.59,88.73,47,88.73,47Z"/>
        <path class="cls-44" d="M105.26,37.91c-2.48-13.13-6.85-11.12-18.55-13.58-5.33-1.12-5.34-5-10.77-4.46C72.86,20.18,64.6,18.7,57.39,31c-4.54,7.78-12,14.55-8.89,23.81C51.34,63.67,53,65.09,53,65.09l.23-1.3c.06-1,.16-2,.2-3C54.13,42.15,62.46,41.9,69,30.76a32.36,32.36,0,0,0,5.88,4c3.77,2.22,7.66,4.11,11.6,5.94s7.93,3.42,11.82,5.4c10,5.08,7.87,18.94,7.88,19-.06-.35,1.19-1.93,1.36-2.22a33.7,33.7,0,0,0,2.54-5C113.06,50.77,106.74,45.72,105.26,37.91Z"/>
        <path class="cls-44" d="M78.73,34.18a17.06,17.06,0,0,0,0,11,23.75,23.75,0,0,1-10-16.5"/>
        <path class="cls-44" d="M75.94,33s.17,4,8.64,12.47c0,0-3.13-5.59-1.35-11.3"/>
        <path class="cls-71" d="M50.65,61.09a39.69,39.69,0,0,1-2.6-7.56,44.75,44.75,0,0,1-1.23-8.08,7.15,7.15,0,0,1,.07-2.07c.16-.68.32-1.35.46-2a41.37,41.37,0,0,1,1-4,34.36,34.36,0,0,1,3.42-7.77,29.61,29.61,0,0,1,5.49-6.7A33.17,33.17,0,0,1,64.35,18a34.18,34.18,0,0,1,16.5-3.61,35.89,35.89,0,0,1,16.23,4.42A29.57,29.57,0,0,1,104,24a23.81,23.81,0,0,1,2.81,3.53l.6,1c.19.33.34.63.5.94.34.62.63,1.26.93,1.9a41,41,0,0,1,2.63,7.93c.3,1.35.55,2.71.72,4.08.08.68.21,1.36.31,2a7.6,7.6,0,0,1-.1,2.07,44.23,44.23,0,0,1-1.75,8,38,38,0,0,1-3.1,7.36,60,60,0,0,0-1.82-15,8.47,8.47,0,0,1-.36-1.76,11.48,11.48,0,0,0-.12-1.76c-.14-1.17-.36-2.32-.61-3.46a33.73,33.73,0,0,0-2.18-6.59c-.24-.52-.48-1-.76-1.55-.13-.24-.26-.52-.39-.74l-.39-.65a17.83,17.83,0,0,0-2-2.44,23,23,0,0,0-5.28-4,29.29,29.29,0,0,0-13.07-3.55,27.18,27.18,0,0,0-13.11,2.86A26.25,26.25,0,0,0,62,28a22.52,22.52,0,0,0-4.18,5.12,27.49,27.49,0,0,0-2.73,6.21,34.08,34.08,0,0,0-.85,3.38A14.43,14.43,0,0,0,54,44.49a6.67,6.67,0,0,1-.43,1.72A68.6,68.6,0,0,0,50.65,61.09Z"/>
        <path class="cls-72" d="M53.87,72.3s2.15,4.47-.49,5.23-1.82-4.23-1.82-4.23.68,4.21,1.5,1.6Z"/>
        <path class="cls-72" d="M105.8,72.58s-2.14,4.47.5,5.23,1.82-4.23,1.82-4.23-.69,4.21-1.5,1.6Z"/>
      </g>
    </g>
  </g>
</svg>
