<svg id="Layer_1" data-name="Layer 1" xmlns="http://www.w3.org/2000/svg" width="201.87" height="210.38" viewBox="0 0 201.87 210.38">
  <defs>
    <style>
      .cls-1, .cls-10 {
        fill: #bc652a;
      }

      .cls-1 {
        stroke: #fff;
        stroke-linecap: round;
        stroke-linejoin: round;
        stroke-width: 6px;
      }

      .cls-1, .cls-10, .cls-11, .cls-12, .cls-14, .cls-15, .cls-16, .cls-17, .cls-18, .cls-19, .cls-20, .cls-22, .cls-23, .cls-24, .cls-25, .cls-26, .cls-27, .cls-28, .cls-29, .cls-3, .cls-30, .cls-31, .cls-4, .cls-5, .cls-6, .cls-7, .cls-8, .cls-9 {
        fill-rule: evenodd;
      }

      .cls-2 {
        opacity: 0.2;
      }

      .cls-3 {
        fill: #21110e;
      }

      .cls-4 {
        fill: #ff6a14;
      }

      .cls-5 {
        fill: #eb4600;
      }

      .cls-6 {
        fill: #f54f08;
      }

      .cls-7 {
        fill: #d64000;
      }

      .cls-8 {
        fill: #e02d00;
      }

      .cls-11, .cls-13, .cls-9 {
        fill: #ce7432;
      }

      .cls-11, .cls-19 {
        stroke: #472411;
        stroke-miterlimit: 10;
      }

      .cls-12 {
        fill: #a63200;
      }

      .cls-14 {
        fill: #d88145;
      }

      .cls-15 {
        fill: #d46e1a;
      }

      .cls-16 {
        fill: #852d08;
      }

      .cls-17 {
        fill: #a14310;
      }

      .cls-18 {
        fill: #993d0c;
      }

      .cls-19 {
        fill: #ba5d11;
      }

      .cls-20 {
        fill: #913109;
      }

      .cls-21 {
        fill: #9e240b;
      }

      .cls-22 {
        fill: #331c17;
      }

      .cls-23 {
        fill: #241512;
      }

      .cls-24 {
        fill: #331d18;
      }

      .cls-25 {
        fill: #a3541f;
      }

      .cls-26 {
        fill: #54190a;
      }

      .cls-27 {
        fill: #d96b11;
      }

      .cls-28 {
        fill: #c42100;
      }

      .cls-29 {
        fill: #6b4913;
      }

      .cls-30 {
        fill: #8f3a15;
      }

      .cls-31 {
        fill: #942c00;
      }
    </style>
  </defs>
  <g>
    <path class="cls-1" d="M178.61,193.76q1.9-11.32.2-13.48c-2.05-3.16-5.44-8.51-7-10.95.86.33,1.32.79,1,1.43,1.09-.46,1.35-2.72-2.26-3.48l-.33-.55a.74.74,0,1,0-.06-1.48.91.91,0,0,0-.49.14c-.25-.64-.59-1.54-1-2.63a1.13,1.13,0,0,0,.32-.06.8.8,0,0,0,.58-1,.87.87,0,0,0-1.11-.4,1,1,0,0,0-.29.16c-.23-.61-.48-1.26-.75-1.94a.75.75,0,0,0,.27-.94.78.78,0,0,0-.78-.36c-2.22-5.63-5.18-12.93-7.48-17.83h0c-.39-.87-.76-1.63-1.13-2.31a14.19,14.19,0,0,0-1.7-2.79l-.25-.27a7.84,7.84,0,0,0-1.36-1.44h0c-2.41-2.53-4.74-5-5.59-7.45-1-2.77-6.41-27.87-10.25-35.41,0-.55,0-2.85,0-6.49-.07-8.13-8.5-5-10.23-12.81L122,40.08c.16-1,.3-2,.38-3,.46-5.44-4.49-10-6.46-11.63h.38a.8.8,0,0,0,0-1.6h-1V21.78a3.71,3.71,0,0,0-2.42-3.46,6.8,6.8,0,0,0-6.77-6.42h-1.87c-1.56-1.6-.65-2.87,2.73-3.79q3.54-2.91-1.82-4.57c2.38,1.81,1.17,3.18-3.66,4.11-2.5,1.07-3,2.49-1.43,4.25H98.27a6.8,6.8,0,0,0-6.76,6.35,3.7,3.7,0,0,0-2.63,3.53v2.11h-.56a.8.8,0,0,0-.2,1.57c-1.94,1.58-7,6.19-6.49,11.66.1,1.19.28,2.44.5,3.69L75.37,71.47c-1.73,7.84-10.15,4.69-10.23,12.81,0,3.82,0,6.17,0,6.56C61.31,98.72,56,123.21,55,126c-.85,2.45-3.18,4.92-5.59,7.45a7.84,7.84,0,0,0-1.36,1.44l-.25.27a14.36,14.36,0,0,0-1.7,2.79c-.36.67-.74,1.44-1.13,2.31h0c-2.3,4.9-5.25,12.2-7.47,17.83a.71.71,0,0,0-.52,1.3c-.26.68-.52,1.33-.75,1.93a1.35,1.35,0,0,0-.29-.16.86.86,0,0,0-1.11.41.8.8,0,0,0,.58,1,.91.91,0,0,0,.32.06l-1,2.64a.86.86,0,0,0-.49-.14.8.8,0,0,0-.85.74.78.78,0,0,0,.79.73c-.1.17-.2.35-.33.56-3.53.77-3.25,3-2.2,3.5-1.71,2.7-4.31,6.8-6,9.43l-.05.07q-1.7,2.13.18,13.34c-13.42,1.32-21.49,3-21.49,4.85,0,4.25,43.26,7.72,96.3,7.72s96.29-3.47,96.29-7.72C196.89,196.6,190.1,195,178.61,193.76Zm-19.68-30.7c-1.58-.67-3.11-1.29-4.51-1.85-.06-.23-.13-.46-.2-.71l.09,0-.1,0c-.18-.65-.39-1.35-.63-2.13a5.32,5.32,0,0,0,.22-1.24c1.76,1.92,3.55,3.86,5.14,5.56A.74.74,0,0,0,158.93,163.06ZM50.62,156.92a5.41,5.41,0,0,0,.22,1.24c-.2.65-.38,1.25-.54,1.81h0c-.19.67-.36,1.27-.5,1.81-1.86.73-3.89,1.55-5.88,2.42l0,0,.63-.68a.91.91,0,0,0,.89-.44.74.74,0,0,0,.06-.58C47.07,160.78,48.86,158.84,50.62,156.92Zm100.53-2.73a13.7,13.7,0,0,0-5.12.44,2.2,2.2,0,0,0-.6-.39c-1.78-.73-12.44-3.16-12.44-3.16a21.87,21.87,0,0,0,.51-5.59,2.48,2.48,0,0,0-.14-.82h0c-.83-2.37-5.06-3.68-7.32-4.22v-9c0-2.57.5-7.08,5-13.95h0c2,3.09,6.5,10.24,7.72,15.42a43.73,43.73,0,0,0,6.88,14.75C146.28,148.7,148.49,151.24,151.15,154.19ZM65.71,132.73c1.25-5.28,5.39-12.14,7.17-14.93,4.28,6.7,4.76,11.12,4.76,13.65v9.62c-2.5.81-5.46,2.24-5.46,4.49a21.87,21.87,0,0,0,.51,5.59S62,153.58,60.25,154.31a2.45,2.45,0,0,0-.65.43,15.72,15.72,0,0,0-6.32-.75c2.65-2.94,4.86-5.48,5.55-6.51A43.73,43.73,0,0,0,65.71,132.73ZM36.42,192.39l.27.12-.31,0A.74.74,0,0,0,36.42,192.39Zm-3.88-23.16-.84,1.33C31.43,170,31.81,169.55,32.54,169.23Z"/>
    <g>
      <g class="cls-2">
        <ellipse cx="100.6" cy="198.28" rx="96.29" ry="7.72"/>
      </g>
      <path class="cls-3" d="M118,34.77l3.68,4,7.21,32.7c1.73,7.84,10.15,4.68,10.23,12.81,0,4.2,0,6.62,0,6.62H102.68v0H65.14s0-2.43,0-6.63c.08-8.12,8.5-5,10.23-12.81l7.21-32.7,3.68-4,15.81,4.88Z"/>
      <path class="cls-4" d="M81.06,140.21s-8.88,1.46-8.88,5.35a21.87,21.87,0,0,0,.51,5.59S62,153.58,60.25,154.31s-2.79,4.62-2.79,4.62-21.82,7.54-24.87,11.91-3,15.56,2,20.42,51.77,12.16,54.81,11.67,16.5-.49,16.5-.49v0c4,.05,8.67.17,10.32.44,3,.48,49.73-6.81,54.81-11.67s4.5-16,1.46-20.38-24.3-11.95-24.3-11.95-1-3.89-2.79-4.62S133,151.08,133,151.08a21.87,21.87,0,0,0,.51-5.59c0-3.89-8.88-5.35-8.88-5.35l-21.94,5Z"/>
      <path class="cls-5" d="M98.87,183s29.1,9.27,38.62,10.56,12.49-1.68,12.1-3.35-6.05-6.7-3.08-6.82,11.32,4.89,12.35,4-.13-5.15,1.16-4,3.09,4.5,3.74,3.6-1.88-11.6-1.88-11.6l6.92,2.56-.29,16.13s-38.07,7.12-47.34,8.41S86.13,190.71,98.87,183Z"/>
      <path class="cls-6" d="M81,156.45q16.11,13.67,15.57,2.62A12.42,12.42,0,0,1,86.93,156q-12-11.48-11.46-10.17-3.37-.69-2.78,5.33-41.16,19.53-39.18,26.59-1.82,16,19.56,16.74a22.61,22.61,0,0,1-3.34-14.42q4.92,17.73,22.4,18.54-5.28-12.84,3.86-9.79,19.28,12.28,35.59,12.47-28.93-12.66-31.26-24.7Q78.24,162.73,81,156.45Z"/>
      <path class="cls-7" d="M57,182.22s-1.41-5-.13-7.73-10.42-1.29-10.42-1.29,26-19.95,26.52-18.15,2.06,6.18,3.21,5.15a6.18,6.18,0,0,0,1.55-3l1.93,7.61s-1.8,9.38-2.06,13.12,3,8.75,3,8.75S74.15,181.83,69,179.9,57,182.22,57,182.22Z"/>
      <path class="cls-8" d="M79.69,164.85q-3.33-16,10.55-1.55Q78.39,154.38,79.69,164.85Z"/>
      <path class="cls-9" d="M63.23,171.68q8.72,7.15,22.83,4.15,2.55-13.77-8.44-12.35-8.28-.58-11.91-6.57c-12.45-5.17-16.12-3-14.87,1.25-2,6.66-2.3,8.28.72,8.45A30.27,30.27,0,0,1,63.23,171.68Z"/>
      <path class="cls-9" d="M68,100.32s.24,10.31,4.7,17.18,5,11.38,5,13.95v12.46S87.3,151.85,90.52,154c1.36.9,4.31,1.31,7.27,1.48v0s1.6.08,3.79.09h.22c2.34,0,4.09-.09,4.09-.09v0c3-.17,5.9-.58,7.26-1.48,3.22-2.15,12.88-10.09,12.88-10.09V131.45c0-2.57.5-7.08,5-13.95s4.7-17.18,4.7-17.18c2.48-19.32-16.1-18.89-22-18.89s-5-10.73-5-10.73H95s1,10.73-5,10.73S65.5,81,68,100.32Z"/>
      <path class="cls-10" d="M103.78,119.31q-.36,7.25,18,4.5,5.56-.5,8-8.47c.38.59.8,1.21,1.22,1.87a37.13,37.13,0,0,0-2.68,4.74c-2.42,5.23-14.56,5.32-21.88,3.4-4.06-1.07-4.07-6.43-3.38-15.28Z"/>
      <path class="cls-11" d="M73.7,116.55s-6.38,9.4-8,16.18a43.73,43.73,0,0,1-6.88,14.75C56.94,150.29,43.68,164.42,41,167.3q4.74,10.32-3.79,13.51.32,13.92-2.82,14.66-1.09,2.61-3,.59c-1,1.65-2,1.81-3,.5-1.81-.06-2.62-.88-2.46-2.45q-2-11.82-.29-14,7.16-11,8.73-13.8s10.6-28,13.5-31.18S54,129,55,126,62.39,93.74,66.21,89s6.54-5.48,9.49-6,3.22-.52,3.22-.52"/>
      <path class="cls-12" d="M36,168.86l1.67,1.26a10.75,10.75,0,0,1,0,4.87,10.59,10.59,0,0,1-2.6,4.32L35,181l-.77,13.75-.65-12.13-1.73,0-.41,13.46s-1.58-13.6-1.14-13.65,0,.65-.58.68-.92,13.5-1.32,13.47.65-14.08.16-15.43-2.05-.38-2.32-.52,2.37-1.4,2.89-.88l.52.52,4.9-1.46s3.67-3.23,3.39-4.39S36,168.86,36,168.86Z"/>
      <path class="cls-12" d="M33.48,168.91c3.09-2,9.25,4.44,1.6,10.4.11,3.18,1.64,11-3,10.22-1.49.09-3.4-4-2.94-8.54-1.81-2.3-2.84-1.15-2.84-1.15C29.08,175.38,33.48,168.91,33.48,168.91Z"/>
      <path class="cls-11" d="M130,116s7.15,10.18,8.76,17a43.73,43.73,0,0,0,6.88,14.75c1.89,2.81,15.15,16.94,17.86,19.82q-4.74,10.33,3.79,13.51-.31,13.92,2.82,14.67c.73,1.73,1.72,1.93,3,.58,1,1.65,2,1.82,3,.51q2.72-.1,2.46-2.46,2-11.82.29-14-7.16-11-8.73-13.8s-10.6-28-13.5-31.18-6.16-6.16-7.2-9.16S142,93.93,138.21,89.24s-6.53-5.48-9.49-6-3.22-.53-3.22-.53"/>
      <ellipse class="cls-13" cx="100.54" cy="94.29" rx="29.62" ry="11.09"/>
      <path class="cls-10" d="M100.46,119.49q.36,7.24-18.25,4.5-5.64-.49-8.16-8.47c-.4.59-.81,1.21-1.24,1.87a37.86,37.86,0,0,1,2.72,4.74c2.46,5.23,14.79,5.32,22.23,3.4,4.13-1.07,4.14-6.43,3.44-15.28Z"/>
      <path class="cls-10" d="M76,123.12A213.62,213.62,0,0,1,73.8,99.48c.14,8.44-.11,12.36-1,17.82C74.72,120.7,75.94,122.88,76,123.12Z"/>
      <path class="cls-8" d="M78.4,176.72q.85,14.15,37.85,26.14-36.68-14.66-34-26.42Z"/>
      <path class="cls-14" d="M101.58,155.32Zm4.31-.1c3-.17,5.9-.58,7.26-1.49.67-.45,1.62-1.15,2.71-2a24.21,24.21,0,0,0,.58-5.31,24,24,0,0,0-.44-4.61c-1.55-8.08-7.11-14-13.72-14s-12.09,5.89-13.69,13.88a24,24,0,0,0-.47,4.78,24.31,24.31,0,0,0,.77,6.12c.64.47,1.2.87,1.63,1.16,1.36.91,4.31,1.32,7.27,1.49h0s1.6.09,3.79.09h.22c2.34,0,4.09-.09,4.09-.09Z"/>
      <path class="cls-14" d="M33.41,167.86c3-1.86,8.49,5.33,1.1,10.93.69,6.61.66,9.91-2.67,9.42-1.45.08-2.42-4.23-2.23-8-1.74-2.17-4-.16-4-.16C28.32,175.9,33.41,167.86,33.41,167.86Z"/>
      <path class="cls-15" d="M30.59,184.63l.35,2.31a2.85,2.85,0,0,0,2,.36c1-.26,1.22-.48,1.22-.48l-.26-2.53S31.81,183.44,30.59,184.63Z"/>
      <path class="cls-14" d="M39.53,164.12s15.32-19.56,16-25-6-5.75-6-5.75-2.05,1.44-4.44,6.81-10.67,26.08-10.67,26.08S37.22,169.31,39.53,164.12Z"/>
      <path class="cls-16" d="M31.72,170.62c-1-2,5.27-2.31,7.55-2.09a3,3,0,0,1,2.78,1.77,1.44,1.44,0,0,0,.5-1.44c-.26-.84-.75-2.23-6.55-2S30.45,170.08,31.72,170.62Z"/>
      <path class="cls-17" d="M34.26,166.54a.75.75,0,1,0-.85-.74A.8.8,0,0,0,34.26,166.54Z"/>
      <path class="cls-17" d="M36,166.21a.89.89,0,1,0-1-.88A.94.94,0,0,0,36,166.21Z"/>
      <path class="cls-17" d="M38,166.14a.89.89,0,1,0-1-.89A.94.94,0,0,0,38,166.14Z"/>
      <path class="cls-17" d="M40,166.3a.89.89,0,1,0,0-1.77.89.89,0,1,0,0,1.77Z"/>
      <path class="cls-17" d="M41.84,167a.89.89,0,1,0-1-.88A.94.94,0,0,0,41.84,167Z"/>
      <path class="cls-18" d="M36,161.11a1,1,0,0,1,.58.55s0,0,0,0a1,1,0,0,1,1.3-.49.94.94,0,0,1,.66,1.17,1,1,0,0,1-1.3.49,1,1,0,0,1-.68-.68h0a.85.85,0,0,1-1.11.4.8.8,0,0,1-.58-1,.86.86,0,0,1,1.11-.41Zm7.43,2.75a1.09,1.09,0,0,0-1,.09.77.77,0,0,0,.1-.18.94.94,0,0,0-.66-1.17,1,1,0,0,0-1.3.49.93.93,0,0,0,.66,1.17,1.09,1.09,0,0,0,1-.1.66.66,0,0,0-.09.19.93.93,0,0,0,.65,1.17,1,1,0,0,0,1.3-.49.93.93,0,0,0-.66-1.17Zm-3.48-2.11a1,1,0,0,0-1.29.49.93.93,0,0,0,.66,1.17,1,1,0,0,0,1.29-.49A.93.93,0,0,0,39.93,161.75Z"/>
      <path class="cls-18" d="M37.91,158.14a.92.92,0,0,1,.5.62s0,0,0,0a1,1,0,0,1,1.35-.32.94.94,0,0,1,.51,1.25,1.09,1.09,0,0,1-1.94-.45h0a.85.85,0,0,1-1.15.26.8.8,0,0,1-.45-1,.88.88,0,0,1,1.16-.26Zm7,3.67a1.13,1.13,0,0,0-1,0,.66.66,0,0,0,.12-.17.94.94,0,0,0-.5-1.25,1,1,0,0,0-1.35.32.94.94,0,0,0,.5,1.25,1.16,1.16,0,0,0,1,0,1,1,0,0,0-.12.16.94.94,0,0,0,.5,1.25,1,1,0,0,0,1.35-.32.94.94,0,0,0-.5-1.25Zm-3.18-2.53a1,1,0,0,0-1.35.32.94.94,0,0,0,.5,1.25,1,1,0,0,0,1.35-.32A.94.94,0,0,0,41.74,159.28Z"/>
      <path class="cls-19" d="M84,51l37.18-.32a2.15,2.15,0,0,1,2.23,2.23l-.71,6.74a2.33,2.33,0,0,1-2.23,2.23H84.59a2.32,2.32,0,0,1-2.23-2.23l-.65-6.42A2.18,2.18,0,0,1,84,51Z"/>
      <path class="cls-20" d="M98.45,124.54a1.1,1.1,0,0,1-.34-1.12l-.07.06a2,2,0,0,1-2.43-.16,1.27,1.27,0,0,1,.15-2,2,2,0,0,1,2.43.16,1.28,1.28,0,0,1,.35,1.38h0a1.67,1.67,0,0,1,2.06.16,1.12,1.12,0,0,1,.37.92,1.88,1.88,0,0,1,1.14-.38,1.43,1.43,0,1,1-1.65,1.41,1.48,1.48,0,0,1,0-.21,1.67,1.67,0,0,1-2-.18Zm7.61,0a1.1,1.1,0,0,0,.34-1.12l.07.06a2,2,0,0,0,2.43-.16,1.28,1.28,0,0,0-.15-2,2,2,0,0,0-2.43.16,1.29,1.29,0,0,0-.36,1.37h0a1.67,1.67,0,0,0-2.06.16,1.08,1.08,0,0,0,.1,1.72,1.67,1.67,0,0,0,2.06-.16Zm10.53-11.84a1.45,1.45,0,0,0-.79-1.25,2.34,2.34,0,0,0,.38,0,1.55,1.55,0,0,0,1.64-1.48,1.62,1.62,0,0,0-1.69-1.49,1.56,1.56,0,0,0-1.64,1.49,1.48,1.48,0,0,0,.8,1.25,2.45,2.45,0,0,0-.38,0,1.56,1.56,0,0,0-1.64,1.49,1.44,1.44,0,0,0,.47,1,2,2,0,0,0-1.76.46,1.27,1.27,0,0,0,.15,2,1.77,1.77,0,0,0,.33.19,2,2,0,0,0-1.57.48,1.28,1.28,0,0,0,.15,2,2,2,0,0,0,2.44-.16,1.27,1.27,0,0,0-.16-2,1.5,1.5,0,0,0-.32-.19,1.92,1.92,0,0,0,1.56-.49,1.26,1.26,0,0,0,0-1.89,1.61,1.61,0,0,0,.39,0,1.54,1.54,0,0,0,1.63-1.49Zm1.48-5.75c0-2-3.36-2-3.33,0a1.62,1.62,0,0,0,1.69,1.49,1.56,1.56,0,0,0,1.64-1.49Zm-6.69,14.19a2,2,0,0,1-2.43.16,1.27,1.27,0,0,1-.15-2,2,2,0,0,1,2.43-.16,1.27,1.27,0,0,1,.15,2Zm-23.47-8.4a1.48,1.48,0,0,1,.8-1.25,2.34,2.34,0,0,1-.38,0A1.55,1.55,0,0,1,86.69,110a1.62,1.62,0,0,1,1.69-1.49A1.54,1.54,0,0,1,90,110a1.47,1.47,0,0,1-.79,1.25,2.34,2.34,0,0,1,.38,0,1.55,1.55,0,0,1,1.64,1.48,1.44,1.44,0,0,1-.47,1,2,2,0,0,1,1.76.46,1.27,1.27,0,0,1-.15,2,1.35,1.35,0,0,1-.33.19,1.94,1.94,0,0,1,1.57.49,1.27,1.27,0,0,1-.16,2,2,2,0,0,1-2.43-.16,1.27,1.27,0,0,1,.15-2,1.86,1.86,0,0,1,.33-.19A1.92,1.92,0,0,1,90,116a1.26,1.26,0,0,1,0-1.89,1.67,1.67,0,0,1-.39,0,1.56,1.56,0,0,1-1.64-1.49ZM86.44,107c0-2,3.36-2,3.32,0a1.61,1.61,0,0,1-1.68,1.48A1.55,1.55,0,0,1,86.44,107Zm6.69,14.19a2,2,0,0,0,2.43.16,1.27,1.27,0,0,0,.15-2,2,2,0,0,0-2.43-.16A1.27,1.27,0,0,0,93.13,121.14Z"/>
      <path class="cls-20" d="M86.58,104.18A1.66,1.66,0,0,1,88,102.3a1.61,1.61,0,0,1,1.85,1.38,1.67,1.67,0,0,1-1.39,1.88A1.6,1.6,0,0,1,86.58,104.18Z"/>
      <path class="cls-20" d="M87.52,98a1.41,1.41,0,0,0,.76,1.07h-.1A1.69,1.69,0,0,0,86.79,101a1.62,1.62,0,0,0,1.85,1.38A1.68,1.68,0,0,0,90,100.5a1.65,1.65,0,0,0-1-1.27h0a1.41,1.41,0,0,0,1.16-1.61,1.37,1.37,0,0,0-1.55-1.19A1.41,1.41,0,0,0,87.52,98Z"/>
      <path class="cls-20" d="M89.29,92.83a1.27,1.27,0,0,0,.6,1H89.8a1.51,1.51,0,0,0-1.41,1.59A1.47,1.47,0,0,0,90,96.86a1.53,1.53,0,0,0,1.41-1.59A1.47,1.47,0,0,0,90.59,94h0a1.29,1.29,0,0,0,1.17-1.37,1.25,1.25,0,0,0-1.3-1.21A1.29,1.29,0,0,0,89.29,92.83Z"/>
      <path class="cls-20" d="M115.64,92.86a1.27,1.27,0,0,1-.58,1h.09a1.53,1.53,0,0,1,1.47,1.57,1.48,1.48,0,0,1-1.54,1.45,1.52,1.52,0,0,1-1.46-1.57,1.47,1.47,0,0,1,.74-1.26h0a1.3,1.3,0,0,1-1.22-1.35,1.25,1.25,0,0,1,1.29-1.25A1.29,1.29,0,0,1,115.64,92.86Z"/>
      <path class="cls-21" d="M102.71,138.38c-5,0-9.66-4.66-13.14-13.12s-5.3-19.32-5.3-31,1.89-22.7,5.3-31,8.15-13.11,13.14-13.11,9.66,4.65,13.14,13.11c3.42,8.31,5.3,19.32,5.3,31s-1.88,22.69-5.3,31C112.37,133.72,107.71,138.38,102.71,138.38Zm0-87.22c-4.55,0-8.88,4.43-12.19,12.48S85.3,82.7,85.3,94.26s1.85,22.42,5.22,30.62c3.31,8,7.64,12.48,12.19,12.48s8.89-4.44,12.2-12.48c3.36-8.2,5.22-19.07,5.22-30.62s-1.86-22.43-5.22-30.62S107.27,51.16,102.71,51.16Z"/>
      <path class="cls-22" d="M121.16,47.85l.13,19.75s.07,11.51-3.56,19c-3.51,7.23-14.22,19.4-14.9,20.18v.09S91.35,94.09,87.62,86.63s-3.79-19-3.79-19L83.7,47.9l20,1.25Z"/>
      <path class="cls-23" d="M103.61,24.88H88.88s-7.82,5.47-7.25,12.24,3.6,15.39,3.6,15.39l16.07.94v.08l.7,0,.69,0v-.08l16.08-.94s3-8.63,3.6-15.39-7.25-12.24-7.25-12.24H103.61Z"/>
      <path class="cls-11" d="M98.78,31.33l3.54,1.88,3.76-1.88c6.26-3.11,12.79,5.57,12.79,12.37V57.84A12.61,12.61,0,0,1,106.08,70.2h-7.3A12.62,12.62,0,0,1,86,57.84V43.7C86,36.9,92.61,28.06,98.78,31.33Z"/>
      <path class="cls-14" d="M99.49,31.33l2.72,1.88,2.9-1.88C109.92,28.22,115,36.9,115,43.7V57.84c0,6.8-4.43,12.36-9.84,12.36H99.49c-5.41,0-9.83-5.56-9.83-12.36V43.7C89.66,36.9,94.75,28.06,99.49,31.33Z"/>
      <path class="cls-10" d="M90.26,53.39c.51-2,2.3-2.74,5.38-2.17a3.23,3.23,0,0,1,2.62,2.86c1.77-1.29,2.67-3.56,2.72-6.79a33,33,0,0,0-12.67,1.64A6,6,0,0,0,90.26,53.39Z"/>
      <path class="cls-9" d="M102.17,75.11c4.27,0,7.75-2.32,7.75-5.16s-3.48-5.15-7.75-5.15S94.42,67.11,94.42,70,97.9,75.11,102.17,75.11Z"/>
      <path class="cls-23" d="M92.58,18.08h19a3.72,3.72,0,0,1,3.7,3.7v3.7H88.88v-3.7A3.71,3.71,0,0,1,92.58,18.08Z"/>
      <path class="cls-23" d="M98.27,11.9h7.82a6.81,6.81,0,0,1,6.79,6.79v6.79H91.48V18.69A6.82,6.82,0,0,1,98.27,11.9Z"/>
      <path class="cls-24" d="M111.15,19a3.42,3.42,0,0,1,2,3.09v3.42H91.5V22.06a3.43,3.43,0,0,1,2.14-3.17,6.3,6.3,0,0,1,6.27-6h5A6.3,6.3,0,0,1,111.15,19Z"/>
      <path class="cls-9" d="M101,61.67l-3.71-.14c-.48-1.59.13-2.7,1.85-3.33.79-2.21,2.61-4,3-4s2.21,1.8,3,4c1.72.63,2.33,1.74,1.85,3.33l-3.71.14H102.1v0A8.77,8.77,0,0,0,101,61.67Z"/>
      <path class="cls-10" d="M97.63,59.11a2.36,2.36,0,0,0-.38,2.42h9.69a2.56,2.56,0,0,0-.25-2.27c.14.73-.71,1-2.57.67a3.33,3.33,0,0,1-4,.09C98.71,60.16,97.89,59.86,97.63,59.11Z"/>
      <path class="cls-25" d="M98,61.57l3,.1Q99.69,59.57,98,61.57Z"/>
      <path class="cls-22" d="M102.16,70.2h0a2.7,2.7,0,0,1,2.69,2.68v3.56a2.69,2.69,0,0,1-2.69,2.68h0a2.69,2.69,0,0,1-2.68-2.68V72.88A2.69,2.69,0,0,1,102.16,70.2Z"/>
      <path class="cls-25" d="M106.23,61.56l-3,.1Q104.51,59.56,106.23,61.56Z"/>
      <path class="cls-3" d="M89.66,50.41a1.26,1.26,0,0,1-1.38-1.09A1.24,1.24,0,0,1,89.42,48a.92.92,0,0,0,.65-.47,2.58,2.58,0,0,1,1.8-1.28,18,18,0,0,1,4.65.19c.76.08,1.48.17,2,.2a1.28,1.28,0,0,1,1.2-.78A1.23,1.23,0,0,1,101,47.09a1.9,1.9,0,0,1-.66,1.55,1.93,1.93,0,0,1-1.34.42,24,24,0,0,1-2.74-.22,18.17,18.17,0,0,0-3.86-.22s-.1.14-.21.28A3,3,0,0,1,89.66,50.41Z"/>
      <path class="cls-10" d="M102.2,67.25H98.47A1.91,1.91,0,0,1,96.65,66l-.08.06a2.94,2.94,0,0,0,1.2,2.15,2.44,2.44,0,0,0,.54.33,3.13,3.13,0,0,0,1.34.3h5.19a3.07,3.07,0,0,0,1.32-.29,2.77,2.77,0,0,0,.57-.34,3,3,0,0,0,1.19-2.09l-.1-.07a1.91,1.91,0,0,1-1.8,1.22Z"/>
      <path class="cls-26" d="M90.77,54.06S89,53.9,89,53.87c1.58-.06,1.55-.43,2.14-1.62,1.38-1.56,6.75-1.36,6.62,1.94a2.68,2.68,0,0,0-.39,0C97,51.8,91.79,51.05,90.77,54.06Z"/>
      <path class="cls-10" d="M94.17,52.47q2.61.31,2.91,2.19a6.68,6.68,0,0,0-5.87-.32C91.39,53.16,92.38,52.53,94.17,52.47Z"/>
      <path class="cls-14" d="M102,59.76c.93,0,1.7-.28,1.7-.61s-.77-.61-1.7-.61-1.7.28-1.7.61S101,59.76,102,59.76Z"/>
      <path class="cls-14" d="M103.38,58.38c.22,0,.4-.13.4-.29s-.18-.29-.4-.29-.4.13-.4.29S103.16,58.38,103.38,58.38Z"/>
      <path class="cls-27" d="M102.2,66.62H98.47A2.32,2.32,0,0,1,96.65,66l-.08,0c.06.44.52.82,1.2,1.08a5,5,0,0,0,.54.16,6.17,6.17,0,0,0,1.34.15h5.19a5.5,5.5,0,0,0,1.32-.15,4.74,4.74,0,0,0,.57-.16c.66-.25,1.11-.63,1.19-1l-.1,0a2.34,2.34,0,0,1-1.8.62Z"/>
      <path class="cls-3" d="M92.88,70.29a2.18,2.18,0,0,1-3,0,2.07,2.07,0,0,1-.29-3c3.33-3.66,2.45-6,10.29-5.94A2.39,2.39,0,0,1,102,62.92a2.41,2.41,0,0,1,2.16-1.49c7.84-.08,7,2.28,10.29,5.94a2.07,2.07,0,0,1-.29,2.95,2.17,2.17,0,0,1-3,0C109,68,110,65.55,103.86,65.61A1.92,1.92,0,0,1,102,64.46a2,2,0,0,1-1.86,1.16C94,65.56,95,68,92.88,70.29Z"/>
      <path class="cls-28" d="M101.05,43.74a47.88,47.88,0,0,1,1.21-9.36,47.44,47.44,0,0,1,1.21,9.35C103,45.33,101.52,45.14,101.05,43.74Z"/>
      <path class="cls-10" d="M114.3,53.37q-.76-3-5.38-2.17a3.22,3.22,0,0,0-2.62,2.86c-1.77-1.3-2.67-3.56-2.72-6.8a33,33,0,0,1,12.67,1.65A6,6,0,0,1,114.3,53.37Z"/>
      <path class="cls-3" d="M115.19,48a1.21,1.21,0,1,1-.24,2.4,3,3,0,0,1-2.48-1.49,1.45,1.45,0,0,0-.22-.29,17.26,17.26,0,0,0-3.9.22,24.38,24.38,0,0,1-2.75.22,2,2,0,0,1-1.32-.41,1.89,1.89,0,0,1-.67-1.57,1.22,1.22,0,0,1,1.22-1.22,1.25,1.25,0,0,1,1.19.78c.53,0,1.26-.12,2-.21a19.06,19.06,0,0,1,4.66-.19,2.63,2.63,0,0,1,1.8,1.27A.93.93,0,0,0,115.19,48Z"/>
      <path class="cls-26" d="M113.78,54s1.82-.17,1.83-.19c-1.59-.07-1.55-.43-2.14-1.62-1.38-1.56-6.76-1.36-6.62,1.94a2.77,2.77,0,0,1,.39,0C107.57,51.77,112.77,51,113.78,54Z"/>
      <path class="cls-10" d="M110.39,52.45c-1.74.2-2.71.94-2.91,2.19a6.68,6.68,0,0,1,5.87-.32C113.17,53.14,112.18,52.51,110.39,52.45Z"/>
      <path class="cls-29" d="M88.32,23.89h28a.8.8,0,0,1,.79.8h0a.8.8,0,0,1-.79.8h-28a.8.8,0,0,1-.8-.8h0A.8.8,0,0,1,88.32,23.89Z"/>
      <path class="cls-23" d="M100.33,12.22h4.22q-3-2.64,2.4-4.11,3.54-2.91-1.82-4.57c2.38,1.81,1.17,3.18-3.66,4.11Q97.51,9.36,100.33,12.22Z"/>
      <path class="cls-20" d="M118.2,104.39a1.66,1.66,0,0,0-1.39-1.88,1.61,1.61,0,0,0-1.84,1.38,1.66,1.66,0,0,0,1.39,1.88A1.61,1.61,0,0,0,118.2,104.39Z"/>
      <path class="cls-20" d="M117.27,98.29a1.42,1.42,0,0,1-.76,1.07h.1a1.67,1.67,0,0,1,1.38,1.89,1.61,1.61,0,0,1-1.84,1.38,1.68,1.68,0,0,1-1.39-1.89,1.6,1.6,0,0,1,1-1.26h0a1.41,1.41,0,0,1-1.16-1.61,1.37,1.37,0,0,1,1.55-1.19A1.41,1.41,0,0,1,117.27,98.29Z"/>
      <path class="cls-30" d="M101.13,138.05a1.84,1.84,0,0,0,1.16,1.25l-.12,0a2.16,2.16,0,0,0-1.45,2.66,2.08,2.08,0,0,0,2.61,1.45,2.15,2.15,0,0,0,1.45-2.66,2.07,2.07,0,0,0-1.46-1.46h0a1.84,1.84,0,0,0,1.2-2.28,1.78,1.78,0,0,0-2.2-1.26A1.84,1.84,0,0,0,101.13,138.05Z"/>
      <path class="cls-16" d="M102.37,153.39c.49,0,.9-1,.9-2.25s-.41-2.25-.9-2.25-.9,1-.9,2.25S101.87,153.39,102.37,153.39Z"/>
      <path class="cls-10" d="M58.52,119.59s-1.28,4,.65,7.21,6.56.13,6.56.13L61,135.17s.26-3.22-.9-4.7-4.51-1.68-4.51-1.68Z"/>
      <path class="cls-10" d="M52.92,158.53s2.25.48,3.35.82a22.59,22.59,0,0,1,7.4,4.2c3,2.58,5.79,6.44,8,7.47s14.86,1.18,14.86,1.18l-.45,3.63s-15.34,1-19.8-2.06-9.41-7.52-11.34-7.77-4.25-.52-4.44-1,1-1.55,1-1.55L51,161.3l1.4-.53A1.5,1.5,0,0,1,52.92,158.53Z"/>
      <path class="cls-9" d="M141.2,171.87Q132.47,179,118.36,176q-2.55-13.77,8.44-12.35,8.3-.58,11.91-6.57c12.45-5.16,16.12-3,14.87,1.25,2,6.67,2.3,8.28-.72,8.45A30.16,30.16,0,0,0,141.2,171.87Z"/>
      <path class="cls-12" d="M168.42,169.06l-1.68,1.25a10.68,10.68,0,0,0,0,4.87,10.51,10.51,0,0,0,2.59,4.32l.12,1.7.77,13.76.65-12.14,1.73,0,.42,13.46s1.57-13.59,1.13-13.65,0,.65.59.68.91,13.51,1.31,13.48-.64-14.09-.16-15.44,2.06-.38,2.32-.52-2.37-1.4-2.89-.88l-.52.52-4.9-1.45s-3.67-3.24-3.39-4.4S168.42,169.06,168.42,169.06Z"/>
      <path class="cls-12" d="M170.94,169.1c-3.08-2-9.25,4.44-1.6,10.4-.1,3.18-1.64,11,3,10.22,1.49.09,3.4-4,2.94-8.53,1.81-2.31,2.84-1.16,2.84-1.16C175.35,175.57,170.94,169.1,170.94,169.1Z"/>
      <path class="cls-14" d="M171,168.06c-3-1.86-8.5,5.33-1.11,10.93-.69,6.6-.66,9.91,2.68,9.41,1.44.08,2.41-4.22,2.22-8,1.75-2.17,4-.16,4-.16C176.1,176.09,171,168.06,171,168.06Z"/>
      <path class="cls-15" d="M173.84,184.82l-.36,2.32a2.83,2.83,0,0,1-2,.35,2.87,2.87,0,0,1-1.23-.48l.26-2.53S172.61,183.63,173.84,184.82Z"/>
      <path class="cls-14" d="M164.89,164.32s-15.32-19.57-16-25,6-5.75,6-5.75,2.05,1.45,4.44,6.81,10.67,26.09,10.67,26.09S167.2,169.51,164.89,164.32Z"/>
      <path class="cls-16" d="M172.81,170.76c1-2-5.37-2.26-7.66-2a3,3,0,0,0-2.78,1.77,1.45,1.45,0,0,1-.5-1.45c.26-.84.75-2.23,6.56-2S174.08,170.22,172.81,170.76Z"/>
      <path class="cls-17" d="M170.16,166.73a.75.75,0,1,0-.85-.74A.8.8,0,0,0,170.16,166.73Z"/>
      <path class="cls-17" d="M168.47,166.41a.89.89,0,1,0-1-.89A.95.95,0,0,0,168.47,166.41Z"/>
      <path class="cls-17" d="M166.41,166.33a.89.89,0,1,0-1-.89A.94.94,0,0,0,166.41,166.33Z"/>
      <path class="cls-17" d="M164.38,166.49a.89.89,0,1,0-1-.89A1,1,0,0,0,164.38,166.49Z"/>
      <path class="cls-17" d="M162.58,167.17a.89.89,0,1,0-1-.89A.94.94,0,0,0,162.58,167.17Z"/>
      <path class="cls-18" d="M168.44,161.31a.91.91,0,0,0-.58.55s0,0,0-.05a1,1,0,0,0-1.3-.49.94.94,0,0,0-.66,1.17,1,1,0,0,0,1.3.49,1.06,1.06,0,0,0,.68-.69h0a.87.87,0,0,0,1.11.4.8.8,0,0,0,.58-1,.87.87,0,0,0-1.11-.4ZM161,164.05a1.12,1.12,0,0,1,1,.1,1.62,1.62,0,0,1-.1-.18,1,1,0,0,1,.66-1.18,1,1,0,0,1,1.3.49.94.94,0,0,1-.66,1.18,1.12,1.12,0,0,1-1-.1.77.77,0,0,1,.1.18.94.94,0,0,1-.66,1.17,1,1,0,0,1-1.3-.49.93.93,0,0,1,.66-1.17Zm3.48-2.1a1,1,0,0,1,1.3.49.94.94,0,0,1-.66,1.17,1,1,0,0,1-1.3-.49A.93.93,0,0,1,164.49,162Z"/>
      <path class="cls-18" d="M166.52,158.33a.93.93,0,0,0-.51.62s0,0,0,0a1,1,0,0,0-1.35-.31.92.92,0,0,0-.5,1.24,1,1,0,0,0,1.35.32,1,1,0,0,0,.58-.76h0a.87.87,0,0,0,1.16.25.8.8,0,0,0,.44-1,.86.86,0,0,0-1.15-.26Zm-7,3.68a1.1,1.1,0,0,1,1,0,.66.66,0,0,1-.12-.17.93.93,0,0,1,.5-1.24,1,1,0,0,1,1.35.32.92.92,0,0,1-.5,1.24,1.1,1.1,0,0,1-1,0,.66.66,0,0,1,.12.17.92.92,0,0,1-.5,1.24,1,1,0,0,1-1.35-.32.92.92,0,0,1,.5-1.24Zm3.18-2.53a1,1,0,0,1,1.35.32.93.93,0,0,1-.5,1.24,1,1,0,0,1-1.35-.32A.92.92,0,0,1,162.68,159.48Z"/>
      <path class="cls-10" d="M145.9,119.78s1.29,4-.64,7.21-6.57.13-6.57.13l4.76,8.24s-.25-3.22.9-4.7,4.51-1.67,4.51-1.67Z"/>
      <path class="cls-10" d="M151.5,158.72s-2.25.48-3.35.82a22.59,22.59,0,0,0-7.4,4.2c-3,2.58-5.79,6.44-8,7.47s-14.86,1.18-14.86,1.18l.45,3.63s15.34,1,19.81-2.06,9.4-7.51,11.33-7.77,4.25-.51,4.45-1-1-1.54-1-1.54l.42-2.12L152,161A1.5,1.5,0,0,0,151.5,158.72Z"/>
      <path class="cls-10" d="M127.53,122.93A183.54,183.54,0,0,0,130,99.5c-.13,8.44.12,12.36,1,17.82C129.08,120.72,127.62,122.69,127.53,122.93Z"/>
      <path class="cls-6" d="M91.48,168.19s12.87,13.13,19.31,14.16,0-8.5-1.81-13.65,11.85-8.24,11.85-8.24,8,.77,11.58-1.29,5.65-6.9,5.65-6.9L133,151.08l.37-6.42s-2.49-1.58-4.17.1S113.87,157.11,110.27,158s-10,3.34-10.69,6,6.26,8,3.26,7.48S91.48,168.19,91.48,168.19Z"/>
      <path class="cls-6" d="M146.7,189.68s-23.56-5.79-27.81-8.75-7.33-11.71-7-12.87,2.45-1.55,2.45-1.55,12.36,1.16,15.57,1.8,23.31,5,25.88,5.67-6.05-1.42-5.15.9,4.51,5.92,6.44,8.24-8.11-3.73-14.55-4.76S146.7,189.68,146.7,189.68Z"/>
      <path class="cls-8" d="M114.39,166.51s19.45,3,33.47,5.92,14.93,12.88,14.93,12.88-1.28-7.47-4.37-10.69S122.11,163.93,114.39,166.51Z"/>
      <path class="cls-8" d="M95.33,165.22s1.48.45,1.74-.77a5,5,0,0,1,3.29-3.8c2.38-1,8.75,3.8,11.39,4.83a30.29,30.29,0,0,0,5.5,1.48l2.41-1s-9.46-2.36-11.26-4-5.21-3.29-6.89-3.35-3.84,0-4.57,1.8-1.9,3.39-3.86,3.16S88,161,88,161,90.83,165,95.33,165.22Z"/>
      <path class="cls-16" d="M124,116.88c.83,0,1.19,1,.79,2.26s-1.39,2.25-2.23,2.25-1.19-1-.79-2.25S123.12,116.88,124,116.88Z"/>
      <path class="cls-16" d="M78.84,116.88c-.83,0-1.19,1-.79,2.26s1.39,2.25,2.23,2.25,1.19-1,.79-2.25S79.68,116.88,78.84,116.88Z"/>
      <path class="cls-15" d="M69.21,89.19c1,.3,1.43,2.12.87,4.06s-1.87,3.26-2.92,3-1.43-2.13-.87-4.06S68.16,88.88,69.21,89.19Z"/>
      <path class="cls-15" d="M133.87,87.35c-1,.31-1.43,2.13-.87,4.06s1.87,3.26,2.92,3,1.43-2.12.87-4.06S134.92,87.05,133.87,87.35Z"/>
      <path class="cls-3" d="M92.62,74.21c-1.91,3.76-1.25,6.05-.42,8,1,2.29,2.26,4-.48,7,1-2.38,1.2-3.45.38-5.55-.11-.27-.23-.57-.38-.89-2-3.24-1.73-5.78.9-8.56Zm6.86,2.23c-3.34,2.06-3.75,4-1.27,7l0-.06c4.13,7.42-7.09,5.61.5,14.62h0c-1.54-2.91-2.94-5-.75-8a7,7,0,0,0,1.14-.93l.35-.42c1.59-2.06.87-3.44-.13-4.77C97.81,82,95.73,80.17,99.48,76.44Z"/>
      <path class="cls-22" d="M68.1,84.19a4.68,4.68,0,0,1,2.23-4.27A19.37,19.37,0,0,1,76,78h0c4.74-1.47,3.87-4.69,2.58-9h0c-.75-3-.44-3.84.52-6.77h0c-.33,2.51-.73,4.06.13,6.49,4.63,13.15-5.26,8.1-9.57,12.61A6.19,6.19,0,0,0,68.1,84.19Z"/>
      <path class="cls-22" d="M136.72,84.62a4.73,4.73,0,0,0-2.23-4.27,19.67,19.67,0,0,0-5.62-1.9h0c-4.73-1.46-3.86-4.68-2.58-9h0c.75-3,.44-3.83-.52-6.76h0c.32,2.51.72,4.05-.14,6.49-4.62,13.14,5.27,8.09,9.58,12.6A6.34,6.34,0,0,1,136.72,84.62Z"/>
      <path class="cls-3" d="M112,74.27c1.91,3.75,1.25,6,.42,7.94-1,2.3-2.26,4,.48,7.05-1-2.38-1.2-3.45-.38-5.54.11-.28.23-.57.38-.89,2-3.25,1.73-5.78-.9-8.56Zm-6.86,2.23c3.34,2,3.75,4,1.27,7l0,0c-4.13,7.42,7.09,5.6-.5,14.61h0c1.54-2.91,2.94-5,.75-8a7.05,7.05,0,0,1-1.14-.92l-.35-.43c-1.59-2.06-.87-3.44.13-4.76C106.79,82.06,108.87,80.23,105.12,76.5Z"/>
      <path class="cls-3" d="M94.68,23.56c-1.35-1.16-.88-1.87-.29-2.46s1.59-1.25-.34-2.19c.69.74.84,1.07.26,1.72a3.18,3.18,0,0,1-.26.27c-1.38,1-1.22,1.8.63,2.66Zm4.84-.69c-2.36-.64-2.64-1.24-.9-2.18l0,0c2.91-2.31-5-1.75.36-4.54h0c-1.09.9-2.08,1.57-.53,2.47a5.7,5.7,0,0,1,.8.29,1.47,1.47,0,0,1,.24.13c1.13.64.62,1.07-.09,1.48C98.34,21.14,96.87,21.71,99.52,22.87Z"/>
      <path class="cls-3" d="M110,23.55c1.47-1.17,1-1.88.32-2.47s-1.74-1.25.37-2.19c-.75.74-.92,1.07-.29,1.72a4,4,0,0,0,.29.28c1.51,1,1.34,1.79-.69,2.66Zm-5.29-.7c2.57-.64,2.89-1.24,1-2.18l0,0c-3.18-2.3,5.47-1.74-.39-4.54h0c1.19.9,2.27,1.57.58,2.47a6.72,6.72,0,0,0-.87.29l-.27.13c-1.23.64-.68,1.07.1,1.48C106,21.13,107.6,21.69,104.7,22.85Z"/>
      <path class="cls-31" d="M51.7,158.11l6.45,2S53.63,160.32,51.7,158.11Z"/>
      <path class="cls-31" d="M56,161.89,50.3,160S54,162.49,56,161.89Z"/>
      <path class="cls-31" d="M54.4,163.62l-4.78-1.1S52.24,164.27,54.4,163.62Z"/>
      <path class="cls-31" d="M53.13,165.76l-3.82-1S52.08,166.22,53.13,165.76Z"/>
      <path class="cls-15" d="M56.4,156.49,55,158.22l-3.29-.86s.54-1.84,1.4-1.9A12.63,12.63,0,0,1,56.4,156.49Z"/>
      <path class="cls-31" d="M153.28,158.41l-6.14,1S151.23,160.31,153.28,158.41Z"/>
      <path class="cls-31" d="M148.83,161.53l5.48-1.07S150.58,162.41,148.83,161.53Z"/>
      <path class="cls-31" d="M150.08,163.47l4.51-.39S152,164.43,150.08,163.47Z"/>
      <path class="cls-31" d="M151,165.77l3.63-.48S151.85,166.38,151,165.77Z"/>
      <path class="cls-15" d="M149.22,156.13l1,1.91,3.12-.37s-.24-1.9-1-2.08A10.66,10.66,0,0,0,149.22,156.13Z"/>
      <path class="cls-10" d="M75.53,167.84s1.86-2.26,3.9-1.4a6.84,6.84,0,0,1,3,2.48l-.43-3-6.62-.77Z"/>
    </g>
  </g>
</svg>
