<svg id="Layer_1" data-name="Layer 1" xmlns="http://www.w3.org/2000/svg" xmlns:xlink="http://www.w3.org/1999/xlink" width="225.03" height="227.04" viewBox="0 0 225.03 227.04">
  <defs>
    <style>
      .cls-1 {
        fill: none;
      }

      .cls-2 {
        opacity: 0.5;
      }

      .cls-3 {
        fill: #fff;
      }

      .cls-4 {
        clip-path: url(#clip-path);
      }

      .cls-5 {
        fill: url(#linear-gradient);
      }

      .cls-6 {
        fill: url(#linear-gradient-2);
      }

      .cls-7, .cls-8 {
        fill: #e2f3f7;
      }

      .cls-8 {
        opacity: 0.56;
      }

      .cls-9 {
        fill: url(#linear-gradient-3);
      }

      .cls-10 {
        fill: url(#linear-gradient-4);
      }

      .cls-11 {
        fill: url(#linear-gradient-5);
      }

      .cls-12 {
        fill: url(#linear-gradient-6);
      }
    </style>
    <clipPath id="clip-path">
      <rect class="cls-1" x="14.73" y="15.74" width="190.56" height="190.56"/>
    </clipPath>
    <linearGradient id="linear-gradient" x1="110.6" y1="224.05" x2="113.09" y2="-13.44" gradientUnits="userSpaceOnUse">
      <stop offset="0" stop-color="#ceebf6"/>
      <stop offset="0.09" stop-color="#b8dff1"/>
      <stop offset="0.27" stop-color="#8bc6e7"/>
      <stop offset="0.46" stop-color="#68b3df"/>
      <stop offset="0.63" stop-color="#4fa5da"/>
      <stop offset="0.78" stop-color="#409dd6"/>
      <stop offset="0.91" stop-color="#3b9ad5"/>
    </linearGradient>
    <linearGradient id="linear-gradient-2" x1="105.05" y1="206.31" x2="105.21" y2="191.41" gradientUnits="userSpaceOnUse">
      <stop offset="0" stop-color="#9ebe5a"/>
      <stop offset="0.22" stop-color="#b8cf76"/>
      <stop offset="0.48" stop-color="#cfde8f"/>
      <stop offset="0.72" stop-color="#dde79e"/>
      <stop offset="0.91" stop-color="#e2eaa3"/>
    </linearGradient>
    <linearGradient id="linear-gradient-3" x1="183.43" y1="63.59" x2="182.17" y2="0.49" gradientUnits="userSpaceOnUse">
      <stop offset="0" stop-color="#cde4ee"/>
      <stop offset="0.32" stop-color="#e5f1f6"/>
      <stop offset="0.56" stop-color="#f3f8fb"/>
      <stop offset="0.7" stop-color="#fafcfd"/>
      <stop offset="0.91" stop-color="#fff"/>
    </linearGradient>
    <linearGradient id="linear-gradient-4" x1="125.15" y1="104.19" x2="122.41" y2="36.53" gradientUnits="userSpaceOnUse">
      <stop offset="0.23" stop-color="#cde4ee"/>
      <stop offset="0.26" stop-color="#d2e7f0"/>
      <stop offset="0.51" stop-color="#ebf4f8"/>
      <stop offset="0.73" stop-color="#fafcfd"/>
      <stop offset="0.91" stop-color="#fff"/>
    </linearGradient>
    <linearGradient id="linear-gradient-5" x1="153.81" y1="155.15" x2="153.94" y2="142.23" gradientUnits="userSpaceOnUse">
      <stop offset="0" stop-color="#cde4ee"/>
      <stop offset="0.05" stop-color="#d2e7f0"/>
      <stop offset="0.38" stop-color="#ebf4f8"/>
      <stop offset="0.67" stop-color="#fafcfd"/>
      <stop offset="0.91" stop-color="#fff"/>
    </linearGradient>
    <linearGradient id="linear-gradient-6" x1="111.07" y1="208.24" x2="111.28" y2="187.84" gradientUnits="userSpaceOnUse">
      <stop offset="0" stop-color="#9ebe5a"/>
      <stop offset="0.31" stop-color="#b3cd67"/>
      <stop offset="0.64" stop-color="#c2d870"/>
      <stop offset="0.91" stop-color="#c7dc73"/>
    </linearGradient>
  </defs>
  <g>
    <rect class="cls-2" x="8.75" y="12.72" width="212.53" height="206.59" rx="8"/>
    <rect class="cls-3" x="3.75" y="7.72" width="212.53" height="206.59" rx="8"/>
    <g class="cls-4">
      <g>
        <rect class="cls-5" x="13.52" y="15.72" width="196.53" height="190.59"/>
        <g>
          <path class="cls-6" d="M22.22,202.9c.1.46.19.93.27,1.4L190,205.8c-44.8-12.41-76.49-13.57-97.66-12.08-6.2.44-21,1.76-47,3.59-9.33.65-17.81,1.21-25.21,1.68A8.45,8.45,0,0,1,22.22,202.9Z"/>
          <path class="cls-3" d="M206.41,82c-.29-.23-5.22-4.12-10.37-2.12a9.2,9.2,0,0,0-3.88,3A6.9,6.9,0,0,0,185,79.49a6.63,6.63,0,0,0-5.35,5c-.2,1.33.35,2.23-.14,2.59-.81.62-2.5-1.73-5.21-2.23-3-.56-7.2,1.15-8.56,4.64a7.9,7.9,0,0,0,.35,6.06,4.59,4.59,0,0,0-7.49,4.88,5.44,5.44,0,0,0-6.17-1.77,5.57,5.57,0,0,0-2.39,7.6,15.31,15.31,0,0,0-10.71-1.31,11.67,11.67,0,0,0-6.9,4.52,7.14,7.14,0,0,0-1.42,5.23,6.1,6.1,0,0,0,1.19,2.62c-9.11.88-18.93,1.89-18.91,2.18a43.11,43.11,0,0,0,5.71,0c4.93-.13,10.53-1.55,21.4,0,7.5,1.07,12.13-.45,19.63.31.95,2.16,4.89,3.71,10.39,3.95,6.37.29,10.5-1.34,19.79-3.86a139.19,139.19,0,0,1,16.18-3.39Z"/>
          <path class="cls-3" d="M15.85,63.79S29.6,58.08,32,73.06c8.13-2.85,11.7,5.71,9.56,10.71,1.43-1.69,3.56-2.32,5-1.67,1.92.87,3,4.2,1.07,7,1.31-2.58,3.8-3.39,4.88-2.73s1.44,3,.12,5.23a7.82,7.82,0,0,1,6.48-.87,7.82,7.82,0,0,1,4.94,7.65,68.54,68.54,0,0,1,21.41,4.28s-11.07,1.07-18.2,2.14-5.76,2.85-16.62,2.85c-11.21.36-4.29-3.21-18.63,0-2.22,2.82-16.18,1.44-16.18,1.44Z"/>
          <path class="cls-7" d="M124.12,119.75a41.91,41.91,0,0,0,11.9-2.92,17.46,17.46,0,0,1,5.71-1.66,15.28,15.28,0,0,1,6.9,1.07c-.15-.5-1.07-3.82.71-6.07,2.07-2.6,7.22-3,11.42.32-.1-.49-.86-4.33,1.43-6.74,2.54-2.67,8-2.74,12.13,1.07-1.22-2.49-1.34-5.34,0-7.25,2-2.91,7.48-3.69,11.77-.24-.1-.36-1.4-5.06,1.31-8.09s8.85-3.4,13.32.59c4.64-3.56,5.69-1.43,5.69-1.43v28.06A117.27,117.27,0,0,0,184.07,122a34.86,34.86,0,0,1-8.56,1.73,36.33,36.33,0,0,1-18.32-3.57Z"/>
          <path class="cls-7" d="M15.85,76s9.33.3,10.4,9.92A7.66,7.66,0,0,1,33,84a7,7,0,0,1,5.24,5c.57,2.86-1.66,5.26-.95,5.83s2-1.26,4.75-1.78c.58-.11,4.73-.84,6.43,1.66,1.15,1.7.83,4.37-.84,6.54a15.23,15.23,0,0,1,8.41-1.1,11.45,11.45,0,0,1,5.15,2.53c6.78-1.43,24.27,0,24.27,0a67.91,67.91,0,0,0-14.4,1.78c-5.42,1.29-6.52,2.3-11.89,3.1a44.42,44.42,0,0,1-12.22.22,41.21,41.21,0,0,1-7.17-1.62c-5.49,1.4-14.37,5.45-23.95,3Z"/>
          <path class="cls-8" d="M71,134.74s1.55-.86,5.33,0a2.91,2.91,0,0,1,.14-1.26,2.83,2.83,0,0,1,1.59-1.75,2.76,2.76,0,0,1,2.91.78,2,2,0,0,1-.53-1.47,2.58,2.58,0,0,1,3.21-1.76A2.8,2.8,0,0,1,85.28,131c1.89-3.27,4.47-2.75,5.67.34a1.92,1.92,0,0,1,1.65-.57,1.84,1.84,0,0,1,1.19,1,2.26,2.26,0,0,1,.08,1.82,3,3,0,0,1,1.65-1.2,2.5,2.5,0,0,1,2.88,1.06,2.37,2.37,0,0,1-.23,2c3.78-1.89,4.13-.35,4.3,1.37a6.33,6.33,0,0,1,7,2.58s-1.42-1.37-5.35,0c0,0-.67,1.72-3.08,0,0,0-2.69,1.2-3.91-.09-1.07-.46-2.37-.16-4.58.53-2.37.38-4.82-1.3-5.81-2.06s-2.14-.69-3.59.23-1.45-.38-2.45-1.22c0,0-.68.61-2.29.07-1-.34-1.57-.86-2.57-1.21a11.92,11.92,0,0,0-2.39-.39C72.42,135.07,71.56,134.87,71,134.74Z"/>
          <g>
            <path class="cls-3" d="M73.38,155.7a41.2,41.2,0,0,0-7.45-1.58c-2.54-1.9-4.6-4.12-9.36-3.64a6.46,6.46,0,0,0-5-2,6.27,6.27,0,0,0-3.85,1.78,5.38,5.38,0,0,0-1.86-3.51,5.25,5.25,0,0,0-5.11-.79c-1.39.57-2,1.72-2.35,1.53s1-1.93.52-3.66c-.52-2-3.08-2.84-3.33-2.85-3.86-.19-5.69.89-6.66,1.9-1.53,1.61-1.12,3.31-2.61,4-1.85.82-3.5-1.4-6-.53a5.85,5.85,0,0,0-2.43,1.8,7,7,0,0,1-2,1.38,2.83,2.83,0,0,1,0,.65v.79c0,.28,0,.45,0,.72.46.11,1,0,1.24.1a5.27,5.27,0,0,0,2.09.44c1.9,0,2.8-1.29,4.25,0,1.9,1.74.95,3.81,4.44,2.38s4.92-2.06,7.93-.48c4.85,5.35,15.54,2.54,20.14,2.54,2.85,2.54,5.55,1.43,9.2-.63a17.44,17.44,0,0,0,14.67,2.28A41.26,41.26,0,0,0,73.38,155.7Z"/>
            <path class="cls-7" d="M65.93,156.09c-2.54-1.9-4.6-4.12-9.36-3.64-3.48-2.7-6-3.17-8.88,1.11-1.69-2.49-4-5-6.42-4.76-2.25.2-3.9,2.63-4.58,2.15s1.39-3.31.3-5.06c-.92-1.48-4-2-5.86-.9s-2,3.24-4,3.81a1.63,1.63,0,0,1-.85,0c-3.33-.79-5.87-1.74-8.41,1.27a3.1,3.1,0,0,1-2.07,1c0,.73,0,.91,0,1.48v.61c.39.2.85.42,1.24.58,3.49,1.42,4.44-1.27,6.34.47s.95,3.81,4.44,2.38,4.92-2.06,7.93-.48c4.85,5.35,15.54,2.54,20.14,2.54,2.85,2.54,5.1-1.49,9.2-.63,11.14,2.32,14.67.31,14.67.31S69.89,156.89,65.93,156.09Z"/>
          </g>
          <g>
            <path class="cls-3" d="M38.44,37.23a5.94,5.94,0,0,1,2.43-1.8c2.48-.87,4.13,1.35,6,.53,1.49-.66,1.08-2.37,2.61-4,1-1,2.8-2.09,6.66-1.9A3.76,3.76,0,0,1,58,36.91l2.93-2.07a5.86,5.86,0,0,1,3.09,0c3.13.89,4.19,4.21,4.28,4.52a6.27,6.27,0,0,1,3.85-1.78,6.47,6.47,0,0,1,5,2c4.76-.48,6.82,1.74,9.36,3.65a40.67,40.67,0,0,1,13.88,4.19A17.48,17.48,0,0,1,85.7,45.16c-3.65,2.06-6.35,3.17-9.2.63-4.6,0-15.29,2.81-20.14-2.53-3-1.59-4.44-1-7.93.47S45.89,43.1,44,41.35c-1.45-1.33-2.35-.07-4.25,0a5.29,5.29,0,0,1-2.09-.43c-1.38-.49-4.55-1.05-11.9-1.52C33.58,40.28,36.9,38.85,38.44,37.23Z"/>
            <path class="cls-7" d="M38.44,39.2c2.54-3,5.08-2.06,8.41-1.27,2.14.51,2.1-2.56,4.84-3.81a8.5,8.5,0,0,1,3.72-.71A5.69,5.69,0,0,1,58,36.91c.3,1.93-1,3.56-.57,3.84s2.18-2.52,4.45-2.82,4.55,2.06,6.42,4.76c2.86-4.28,5.4-3.81,8.88-1.11,4.76-.48,6.82,1.74,9.36,3.65,4,.79,12.48,1.9,12.48,1.9s-8.2,1.43-13.27,0c-3.65,2.06-6.35,3.17-9.2.63-4.6,0-15.29,2.81-20.14-2.53-3-1.59-4.44-1-7.93.47s-2.54-.63-4.44-2.38-2.85,1-6.34-.47-7.3-4.92-11.9-3.49C27.5,37.46,35.9,42.21,38.44,39.2Z"/>
          </g>
          <path class="cls-9" d="M200.49,38.89s-13.64-4.18-16,5.29c0,0-2.7-2.91-5.55,2.48-6.66-2.38-5.9,2.22-7.47,3.81A67.24,67.24,0,0,0,159.73,53a48.47,48.47,0,0,1,10.78,0c6.66.64,6.51-2.44,11.1-1.22s18.08,5.51,21.73,2.81,3.07-1,3.07-1V38Z"/>
          <path class="cls-10" d="M90.26,81.71s1.75-.48,6.19,0-.16-2.86,3.65-4a13.8,13.8,0,0,1,7.29,0,7.48,7.48,0,0,1,2.38-3.49,8.52,8.52,0,0,1,4.2-1.59c3.1-.53,4,.73,5.32-.07,1.69-1,.69-3.26,2.37-5.23,2.07-2.43,6.12-2,6.89-1.94,5.79.71,8.43,6.81,8.58,7.17a5.59,5.59,0,0,1,10.54.71c7.3.32,10.31,2.61,10.31,2.61a14,14,0,0,1-2.78.5,14.42,14.42,0,0,1-5.15-.5c-1.74,0-4.31.12-7.44.31-2.92.18-6,.38-6,.7,0,.53,8.38,1,8.36,1.47,0,.22-1.43.34-1.76.36-6.79.54-18.23.16-18.24.26s9,.73,9.07,1.88c0,.24-.35.5-1.45.86-3.28,1.07-6.11.66-10,.12-4.75-.67-7.17-1-9.46-.58a18,18,0,0,0-3.55,1c-1.06.12-2.15.22-3.27.29A68.29,68.29,0,0,1,90.26,81.71Z"/>
          <path class="cls-11" d="M117.5,151.8a6.05,6.05,0,0,0,3.72,1.47c3,.08,4.8-2.64,6.95-4.32,2.3-1.8,6.22-3.47,13.32-2.62a17.41,17.41,0,0,1,13.32-1.71c8.57-3.29,6.19-2.66,13.8-.6,8.56-3.16,21.62,3.77,21.62,3.77-7.18-2.79-12.47-2.69-16.07-2-2.55.48-4.43,1.28-9.34,2s-8.15.7-8.17,1.09c0,.8,12.93,1.56,12.91,2.68,0,.63-4,1.16-5.57,1.36a39,39,0,0,1-4.26.35c-11.1,0-24.9,3.85-31.08,0C123.89,155.61,117.5,151.8,117.5,151.8Z"/>
          <path class="cls-12" d="M15.85,196.42s24.31-3.47,47.62,5.81c26.17,6.18,69.46-3.25,90.39-6.39s38-6.93,52.55-3.13l0,13.09H15.85Z"/>
        </g>
      </g>
    </g>
  </g>
</svg>
