<svg id="Layer_1" data-name="Layer 1" xmlns="http://www.w3.org/2000/svg" xmlns:xlink="http://www.w3.org/1999/xlink" width="139.91" height="229.11" viewBox="0 0 139.91 229.11">
  <defs>
    <style>
      .cls-1 {
        opacity: 0.5;
      }

      .cls-2 {
        fill: #fff;
      }

      .cls-3 {
        fill: url(#radial-gradient);
      }

      .cls-4 {
        fill: #ee9e4a;
      }

      .cls-5 {
        fill: url(#radial-gradient-2);
      }

      .cls-6 {
        fill: #ec942c;
      }

      .cls-7 {
        fill: url(#radial-gradient-3);
      }

      .cls-8 {
        fill: url(#radial-gradient-4);
      }

      .cls-9 {
        fill: #9e4f24;
      }

      .cls-10 {
        fill: url(#radial-gradient-5);
      }

      .cls-11 {
        fill: url(#radial-gradient-6);
      }

      .cls-12 {
        fill: #984421;
      }

      .cls-13 {
        fill: url(#radial-gradient-7);
      }

      .cls-14 {
        fill: #f6d85b;
      }

      .cls-15 {
        fill: url(#radial-gradient-8);
      }

      .cls-16 {
        fill: #59843c;
      }

      .cls-17 {
        fill: #e6e41b;
      }

      .cls-18 {
        fill: url(#radial-gradient-9);
      }

      .cls-19 {
        fill: #517837;
      }

      .cls-20 {
        fill: url(#radial-gradient-10);
      }

      .cls-21 {
        fill: url(#radial-gradient-11);
      }

      .cls-22 {
        fill: #7bb553;
      }

      .cls-23 {
        fill: url(#radial-gradient-12);
      }

      .cls-24 {
        fill: url(#radial-gradient-13);
      }
    </style>
    <radialGradient id="radial-gradient" cx="1222.04" cy="3090.59" r="0.83" gradientTransform="matrix(20.95, 91.57, -72.74, 16.64, 199288.13, -163214.1)" gradientUnits="userSpaceOnUse">
      <stop offset="0" stop-color="#fbde70"/>
      <stop offset="1" stop-color="#f8bb18"/>
    </radialGradient>
    <radialGradient id="radial-gradient-2" cx="1222.03" cy="3090.59" r="0.83" gradientTransform="matrix(20.95, 91.57, -72.74, 16.64, 199288.16, -163213.94)" gradientUnits="userSpaceOnUse">
      <stop offset="0" stop-color="#fad047"/>
      <stop offset="1" stop-color="#f6b019"/>
    </radialGradient>
    <radialGradient id="radial-gradient-3" cx="1222.03" cy="3090.6" r="0.83" gradientTransform="matrix(20.95, 91.55, -72.72, 16.64, 199236.45, -163170.47)" gradientUnits="userSpaceOnUse">
      <stop offset="0" stop-color="#fce383"/>
      <stop offset="1" stop-color="#fac919"/>
    </radialGradient>
    <radialGradient id="radial-gradient-4" cx="962.41" cy="2947.39" r="0.83" gradientTransform="matrix(23.5, -2.74, 4.22, 35, -34976.65, -100477.86)" gradientUnits="userSpaceOnUse">
      <stop offset="0" stop-color="#db8727"/>
      <stop offset="1" stop-color="#9d5d26"/>
    </radialGradient>
    <radialGradient id="radial-gradient-5" cx="449.29" cy="1283.77" r="0.83" gradientTransform="matrix(6.22, -2.23, 1.2, 2.43, -4248.03, -2096.37)" xlink:href="#radial-gradient-4"/>
    <radialGradient id="radial-gradient-6" cx="449.29" cy="1283.76" r="0.83" gradientTransform="matrix(6.22, -2.23, 1.2, 2.43, -4248.03, -2096.37)" gradientUnits="userSpaceOnUse">
      <stop offset="0" stop-color="#d27528"/>
      <stop offset="1" stop-color="#975023"/>
    </radialGradient>
    <radialGradient id="radial-gradient-7" cx="961.48" cy="2947.09" r="0.83" gradientTransform="matrix(23.42, -2.73, 4.21, 34.89, -34841.44, -100148)" xlink:href="#radial-gradient-6"/>
    <radialGradient id="radial-gradient-8" cx="1322.09" cy="2894.29" r="0.83" gradientTransform="matrix(-27.34, -34.81, 16.51, -12.97, -11583.11, 83594.7)" gradientUnits="userSpaceOnUse">
      <stop offset="0" stop-color="#97c93d"/>
      <stop offset="1" stop-color="#219e49"/>
    </radialGradient>
    <radialGradient id="radial-gradient-9" cx="1322.09" cy="2894.29" r="0.83" gradientTransform="matrix(-27.34, -34.81, 16.51, -12.97, -11583.11, 83594.7)" gradientUnits="userSpaceOnUse">
      <stop offset="0" stop-color="#89b53f"/>
      <stop offset="1" stop-color="#208f45"/>
    </radialGradient>
    <radialGradient id="radial-gradient-10" cx="1322.09" cy="2894.29" r="0.83" xlink:href="#radial-gradient-9"/>
    <radialGradient id="radial-gradient-11" cx="1322.09" cy="2894.29" r="0.83" gradientTransform="matrix(-27.34, -34.81, 16.51, -12.97, -11583.11, 83594.7)" gradientUnits="userSpaceOnUse">
      <stop offset="0" stop-color="#c0d857"/>
      <stop offset="0.17" stop-color="#b1d459"/>
      <stop offset="0.51" stop-color="#8ac95e"/>
      <stop offset="0.97" stop-color="#4ab865"/>
      <stop offset="1" stop-color="#46b766"/>
    </radialGradient>
    <radialGradient id="radial-gradient-12" cx="1222.03" cy="3090.59" r="0.83" gradientTransform="matrix(20.95, 91.57, -72.74, 16.64, 199288.16, -163213.94)" gradientUnits="userSpaceOnUse">
      <stop offset="0.01" stop-color="#f8e299"/>
      <stop offset="0.98" stop-color="#fbe5a3"/>
    </radialGradient>
    <radialGradient id="radial-gradient-13" cx="1225.31" cy="3089.17" r="0.83" gradientTransform="matrix(25.04, 102.09, -78.91, 16.72, 213161.12, -176613.35)" xlink:href="#radial-gradient-12"/>
  </defs>
  <g>
    <path class="cls-1" d="M94.36,226.8a63.41,63.41,0,0,1-12.61-1.28C69.06,222.94,50.64,215.21,34.9,193c-.61-.86-1.2-1.72-1.78-2.57-14.48-21.32-21.84-44.79-20.74-66.08S22.74,85.3,38.48,74.6A56.08,56.08,0,0,1,44.56,71a66.5,66.5,0,0,1-7.33-3.74l-.36-.2-.46-.29a68.79,68.79,0,0,1-8.6-6.24,8,8,0,0,1-2-1.72A85.21,85.21,0,0,1,10.9,40.5l-.1-.17a8,8,0,0,1,0-8.23l.06-.11h0c1.47-2.29,8.18-11.37,23-13.76a43.61,43.61,0,0,1,6.93-.55,58.86,58.86,0,0,1,18.44,3.23,7.28,7.28,0,0,1,1.19.41c.78.27,1.57.55,2.38.86A50.3,50.3,0,0,1,79.51,33.27a26.5,26.5,0,0,0-2.18-4.34A17.71,17.71,0,0,0,76,27.12L75.86,27l-.17-.14a8,8,0,0,1-2.81-7,9.64,9.64,0,0,1,1.23-4.22c1.81-3.27,5.23-5.32,7.78-6.48l.16-.07a22.45,22.45,0,0,1,4-1.31,16.47,16.47,0,0,1,3.65-.43q.66,0,1.26.06a9.5,9.5,0,0,1,7.59,4.69l.22.41c.09.18.19.39.3.64,0,.07.23.51.25.57a65.55,65.55,0,0,1,3.26,10.39c.38,1.65.7,3.38,1,5.14.56,2.57,1,4.89,1.17,6.72.59,5.39.27,11.82-1,19.68A138.16,138.16,0,0,1,101,71.3a49.61,49.61,0,0,1,19.44,16.76c6.37,9.38,9.6,21.18,9.59,35.05,0,8.85-.74,17-1.37,24.28-.42,4.73-.81,9.21-1,13.47-.48,12.09,1,20.27,5.2,28.23a20,20,0,0,1,.9,17.08,28.4,28.4,0,0,1-10.7,12.55c-7.68,5.21-17.88,8.08-28.72,8.08Z"/>
    <path class="cls-2" d="M89.36,221.8a63.41,63.41,0,0,1-12.61-1.28C64.06,217.94,45.64,210.21,29.9,188c-.61-.86-1.2-1.72-1.78-2.57C13.64,164.15,6.28,140.68,7.38,119.39S17.74,80.3,33.48,69.6A56.08,56.08,0,0,1,39.56,66a66.5,66.5,0,0,1-7.33-3.74l-.36-.2-.46-.29a68.79,68.79,0,0,1-8.6-6.24,8,8,0,0,1-2-1.72A85.21,85.21,0,0,1,5.9,35.5l-.1-.17a8,8,0,0,1,0-8.23L5.83,27h0c1.47-2.29,8.18-11.37,23-13.76a43.61,43.61,0,0,1,6.93-.55,58.86,58.86,0,0,1,18.44,3.23,7.28,7.28,0,0,1,1.19.41c.78.27,1.57.55,2.38.86A50.3,50.3,0,0,1,74.51,28.27a26.5,26.5,0,0,0-2.18-4.34A17.71,17.71,0,0,0,71,22.12L70.86,22l-.17-.14a8,8,0,0,1-2.81-7,9.64,9.64,0,0,1,1.23-4.22c1.81-3.27,5.23-5.32,7.78-6.48l.16-.07a22.45,22.45,0,0,1,4-1.31,16.47,16.47,0,0,1,3.65-.43q.66,0,1.26.06a9.5,9.5,0,0,1,7.59,4.69l.22.41c.09.18.19.39.3.64,0,.07.23.51.25.57a65.55,65.55,0,0,1,3.26,10.39c.38,1.65.7,3.38,1,5.14.56,2.57,1,4.89,1.17,6.72.59,5.39.27,11.82-1,19.68A138.16,138.16,0,0,1,96,66.3a49.61,49.61,0,0,1,19.44,16.76c6.37,9.38,9.6,21.18,9.59,35.05,0,8.85-.74,17-1.37,24.28-.42,4.73-.81,9.21-1,13.47-.48,12.09,1,20.27,5.2,28.23a20,20,0,0,1,.9,17.08,28.4,28.4,0,0,1-10.7,12.55c-7.68,5.21-17.88,8.08-28.72,8.08Z"/>
    <g>
      <path class="cls-3" d="M82.4,70.57c-.28-.07-.82-.21-1.11-.27-9.72-2.45-18.91-2.11-23.49-1.22a51.45,51.45,0,0,0-19.36,7.84C25,86.05,17.14,101.47,16.19,119.84s5,39.74,19.23,60.65c.54.81,1.1,1.63,1.68,2.44C46,195.5,56.28,203.45,66.47,208c-11.64-5.52-22.4-16.12-30.93-28.68-12-17.68-19.52-39.18-18.8-55.79.32-7.3.62-40.06,31.82-51.38a54.9,54.9,0,0,1,34.06-1.38C82.68,70.64,82.34,70.7,82.4,70.57ZM68.63,150c-4.88-7.21-7.95-17.13-8.06-28.09-.2-22.2,11.78-40.28,26.78-40.42,7.57-.09,14.46,4.46,19.46,11.8s8,17.13,8.06,28.1c.2,22.2-11.79,40.28-26.78,40.44C80.52,161.87,73.63,157.32,68.63,150Zm39.5-62c-5.73-8.46-13.84-13.45-22-16.28a4.41,4.41,0,0,0-.25.43,52.81,52.81,0,0,1,16.6,9.79S81.84,69.5,58.21,89.06c-14.67,12.11-25.52,38.58-3.36,75.65,1.12,1.88,2.25,3.64,3.4,5.34,23.61,34.81,51.42,29.68,58.34,10.94,0,0,2.28,5,4.25,10.55s-6.65,23.42-40.5,20.39a40,40,0,0,1-5.06-.81c1.08.27,2.16.54,3.23.74,13.9,2.85,26.68-.06,34.61-5.44a19.74,19.74,0,0,0,7.46-8.55,11.18,11.18,0,0,0-.51-9.67c-5.71-10.83-6.67-21.39-6.21-32.69s2.33-23.42,2.34-37.41C116.21,105,113,95.23,108.13,88Z"/>
      <path class="cls-4" d="M57.73,68.67l.07.41c4.58-.89,13.77-1.23,23.49,1.22s20,7.59,26.84,17.7c4.91,7.23,8.08,17,8.07,30.1,0,14-1.89,26.09-2.34,37.41s.5,21.86,6.21,32.69a11.18,11.18,0,0,1,.51,9.67,19.74,19.74,0,0,1-7.46,8.55c-7.93,5.38-20.71,8.29-34.61,5.44S49.57,200.49,37.1,182.93c-.58-.81-1.14-1.63-1.68-2.44-14.2-20.91-20.17-42.27-19.23-60.65S25,86.05,38.44,76.92A51.45,51.45,0,0,1,57.8,69.08l-.07-.41-.07-.43a52.13,52.13,0,0,0-19.68,8c-13.7,9.31-21.66,25-22.61,43.58S20.44,159.92,34.73,181c.55.81,1.12,1.62,1.69,2.44,12.58,17.72,27.8,26.4,41.92,29.27s27.09-.05,35.25-5.58a20.52,20.52,0,0,0,7.77-8.91,12,12,0,0,0-.56-10.38c-5.6-10.67-6.56-21-6.11-32.28S117,132.18,117,118.1c0-13.27-3.21-23.19-8.22-30.56-7-10.33-17.47-15.59-27.33-18.06a60.75,60.75,0,0,0-23.83-1.24Z"/>
      <path class="cls-5" d="M102.44,81.94a52.81,52.81,0,0,0-16.6-9.79c-1,1.67-1.93,3.43-2.89,5.29l-.07.14-.15,0A3.24,3.24,0,0,1,81,76.24h0a5.17,5.17,0,0,0,.88-2.73v-.05l0,0s-.31-.46.76-2.65a54.9,54.9,0,0,0-34.06,1.38c-31.2,11.32-31.5,44.08-31.82,51.38-.72,16.61,6.82,38.11,18.8,55.79,8.53,12.56,19.29,23.16,30.93,28.68a58.82,58.82,0,0,0,8.81,3.12,40,40,0,0,0,5.06.81c33.85,3,42.46-14.8,40.5-20.39S116.59,181,116.59,181c-6.92,18.74-34.73,23.87-58.34-10.94-1.15-1.7-2.28-3.46-3.4-5.34-22.16-37.07-11.31-63.54,3.36-75.65C81.84,69.5,102.44,81.94,102.44,81.94Z"/>
      <path class="cls-6" d="M75.28,211.12A58.82,58.82,0,0,1,66.47,208,43.94,43.94,0,0,0,75.28,211.12Z"/>
      <path class="cls-7" d="M104.52,128a4.52,4.52,0,0,1-.46-3.84,3.29,3.29,0,0,1,3.07-2.44,3,3,0,0,1,2.25,1.38,3.8,3.8,0,0,1,.57,1.36c.52,2.3-.79,4.94-3.17,4.83A2.76,2.76,0,0,1,104.52,128Zm-1.81-11.25a18.71,18.71,0,0,1-2.79-10.13c0-4.59,1.88-7.73,4.14-8.14,1.63-.27,3.53.86,5.07,3.1a14.56,14.56,0,0,1,1.58,3.16c2.26,6.18,1.39,14.11-3,14.86C105.82,119.93,104.06,118.74,102.71,116.75Zm4.1-23.49c-5-7.34-11.89-11.89-19.46-11.8-15,.14-27,18.22-26.78,40.42.11,11,3.18,20.88,8.06,28.09s11.89,11.9,19.46,11.83c15-.16,27-18.24,26.78-40.44C114.77,110.39,111.69,100.47,106.81,93.26Z"/>
      <g>
        <path class="cls-8" d="M84.12,76.53a2.43,2.43,0,0,1-1.22.71,3,3,0,0,1-1.54-.1,22.43,22.43,0,0,0,1-4.7c-.39,1.54-.79,3.1-1.25,4.7a3,3,0,0,0,1.73.16v0a3.53,3.53,0,0,0,1.44-.72c.06-.16.2-.59.44-1.27a130.26,130.26,0,0,0,4.08-15.64C86.65,69.12,84.12,76.53,84.12,76.53Zm2.44-64.17a8.94,8.94,0,0,1-4.09,3.05,14.07,14.07,0,0,1-2.6.89,7.84,7.84,0,0,1-2.41.2l-.24,0c1.63,1.78,5.2,6.57,7.21,15.52,1.89,8.41,2.42,20.46-1.27,37.17a.77.77,0,0,0,.4,0c4.31-1,5.71-27.55,5-33.77S88.15,15.3,82,16.7a4.65,4.65,0,0,0-.7.21c-.41.15-.77.24-1.09.33-1.9.44-2.26-.45-2.26-.45.53-.09,1-.2,1.49-.29,5.8-1.31,7.32-3.89,7.32-3.89.71,1.7,1.37,3.57,2,5.49a54.12,54.12,0,0,0-2-6Z"/>
        <path class="cls-9" d="M76.24,15.77l.13-.15S81.76,20.18,84.43,32C86.61,41.72,87,56.3,81.1,77.33l-.19-.07.1-.18,0,0a2.87,2.87,0,0,0,1.85.18,3.25,3.25,0,0,0,1.48-.77l.13.16-.19-.07s.17-.45.46-1.31c2-6,9.79-31.55,4.65-54.36a58.1,58.1,0,0,0-2.84-9l.19-.09.07.2L76.32,16l-.08-.21.13-.15-.13.15-.07-.2,10.7-4,.08.18a56.58,56.58,0,0,1,2.86,9.11c5.9,26.24-5.12,55.9-5.12,55.9l0,.07,0,0a4.05,4.05,0,0,1-1.67.88,3.23,3.23,0,0,1-2.18-.27l-.13-.07,0-.16C86.57,56.26,86.2,41.72,84,32.1a39,39,0,0,0-5-12.48A23.49,23.49,0,0,0,77,16.79c-.27-.29-.48-.52-.63-.65L76.16,16l-.06-.05-.27-.22.34-.14Z"/>
        <path class="cls-10" d="M82.88,11l.42-.09a1.33,1.33,0,0,1,1.19.45c.42.7-.88,2-2.91,2.9a8.54,8.54,0,0,1-1.83.61c-1.26.29-2.29.2-2.58-.28a.77.77,0,0,1,.09-.81,10.82,10.82,0,0,1,3.09-1.94h0A13.62,13.62,0,0,1,82.88,11Z"/>
        <path class="cls-9" d="M86.47,11.14l.18-.09a1.53,1.53,0,0,1,.11.27,1.59,1.59,0,0,1-.2,1,8.94,8.94,0,0,1-4.09,3.05,14.07,14.07,0,0,1-2.6.89,7.84,7.84,0,0,1-2.41.2A1.81,1.81,0,0,1,76,15.8a1.21,1.21,0,0,1-.11-.3,1.41,1.41,0,0,1,.2-1,9,9,0,0,1,4.08-3.08h0a15.48,15.48,0,0,1,2.61-.85,7.57,7.57,0,0,1,2.4-.23,1.78,1.78,0,0,1,1.46.72l-.18.09-.18.11a1.44,1.44,0,0,0-1.15-.49,7,7,0,0,0-2.26.2,13.62,13.62,0,0,0-2.53.84h0a10.68,10.68,0,0,0-3.09,1.94,4,4,0,0,0-.8.95,1.06,1.06,0,0,0-.15.72l0,.16a1.46,1.46,0,0,0,1.14.52,7.14,7.14,0,0,0,2.28-.2A14.47,14.47,0,0,0,82.3,15a11.67,11.67,0,0,0,3.1-1.92,3.62,3.62,0,0,0,.78-.95,1.07,1.07,0,0,0,.17-.75l-.06-.16Z"/>
        <path class="cls-11" d="M83.3,10.87a6.05,6.05,0,0,1,1.84-.11,1.44,1.44,0,0,1,1.15.49l.18-.11-.18.11.06.16a1.07,1.07,0,0,1-.17.75,3.62,3.62,0,0,1-.78.95A11.67,11.67,0,0,1,82.3,15a14.47,14.47,0,0,1-2.52.86h0a7,7,0,0,1-2.26.2,1.46,1.46,0,0,1-1.14-.52l0-.16a1.06,1.06,0,0,1,.15-.72,4,4,0,0,1,.8-.95h0a.77.77,0,0,0-.09.81c.29.48,1.32.57,2.58.28a8.54,8.54,0,0,0,1.83-.61c2-.88,3.33-2.2,2.91-2.9A1.33,1.33,0,0,0,83.3,10.87Z"/>
        <path class="cls-12" d="M82.85,10.76c1.77-.41,3.22-.3,3.62.38.58,1-1.25,2.83-4.08,4.09a14.36,14.36,0,0,1-2.57.86c-1.78.41-3.23.27-3.63-.41s.4-1.83,1.92-2.87a3.53,3.53,0,0,0-.85.93h0a4,4,0,0,0-.8.95,1.06,1.06,0,0,0-.15.72l0,.16a1.46,1.46,0,0,0,1.14.52,7,7,0,0,0,2.26-.2h0A14.47,14.47,0,0,0,82.3,15a11.67,11.67,0,0,0,3.1-1.92,3.62,3.62,0,0,0,.78-.95,1.07,1.07,0,0,0,.17-.75l-.06-.16.18-.11-.18.11a1.44,1.44,0,0,0-1.15-.49,6.05,6.05,0,0,0-1.84.11,5.72,5.72,0,0,0-1.4.16,1.41,1.41,0,0,0-.32.09A9.39,9.39,0,0,1,82.85,10.76Z"/>
        <path class="cls-13" d="M86.72,12.61c.71,1.7,1.37,3.57,2,5.49.26.95.5,1.88.72,2.83,2.2,9.79,2,20.1,1,29.11a3.46,3.46,0,0,0,.11.82h-.22v.2s-.14,1.17-.72,4.75c-.21,1.33-.45,2.62-.7,3.84-2.19,9.47-4.72,16.88-4.72,16.88a2.43,2.43,0,0,1-1.22.71,3,3,0,0,1-1.54-.1,22.43,22.43,0,0,0,1-4.7c.27-1.1.53-2.21.77-3.27a.77.77,0,0,0,.4,0c4.31-1,5.71-27.55,5-33.77S88.15,15.3,82,16.7a4.65,4.65,0,0,0-.7.21c-.41.15-.77.24-1.09.33-1.9.44-2.26-.45-2.26-.45.53-.09,1-.2,1.49-.29C85.2,15.19,86.72,12.61,86.72,12.61Z"/>
        <path class="cls-14" d="M90.69,25.61a60.65,60.65,0,0,1,1.11,6.21c.58,5.25,0,11.55-1,17.79A91.53,91.53,0,0,0,90.69,25.61Z"/>
        <path class="cls-12" d="M82.39,72.44c.27-1.1.53-2.21.77-3.27a2.8,2.8,0,0,1-.31-.09S82.66,70.66,82.39,72.44Zm6.45-12.79c.26-1.11.52-2.26.77-3.44,0-.13,0-.27-.07-.4C89.31,57.14,89.09,58.43,88.84,59.65Zm.57-38.72c2.2,9.79,2,20.1,1,29.11a1.75,1.75,0,0,1,.39,0c0-.16.06-.32.07-.46a91.53,91.53,0,0,0-.14-24c-.52-2.38-1.21-5-2-7.51C89,19.05,89.19,20,89.41,20.93Z"/>
        <g>
          <path class="cls-15" d="M28.62,48.66a30.76,30.76,0,0,1-4.77-4.09c-1.77-1.85-3.31-3.64-4.6-5.24l-.52-.14a71.12,71.12,0,0,0,8.7,9.23C27.82,48.51,28.23,48.6,28.62,48.66ZM35.85,23c-.64-.41-1.32-.84-2-1.22a25.18,25.18,0,0,0-2.9,0,32.6,32.6,0,0,0-3.24.61,17.45,17.45,0,0,1,3.24-.61c.73-.09,1.58-.18,2.53-.25-.21-.13-.43-.24-.65-.36h0c-.92.09-1.8.18-2.65.32-11.22,1.83-16.36,8.7-17,9.65a89.27,89.27,0,0,0,5.16,7.46l.54.14a53.61,53.61,0,0,1-5-7.46s.32-.34.93-.91h-.07l0-.4.62-.07c2.51-2.26,7.93-6.58,13.34-7.24A26.34,26.34,0,0,1,35.85,23Zm9.78-.75a43.82,43.82,0,0,0-12.05-1.08l.64.34A48.18,48.18,0,0,1,45.63,22.26ZM62.8,40a22.91,22.91,0,0,0-3.45-8.91,51,51,0,0,0-24.61-9.27c.75.46,1.47.91,2.13,1.38,8.93,1.86,18.88,7.64,20.36,16.68,2,1.09,4,2.22,5.83,3.35v-.05c0-.15,0-.4,0-.7A19.89,19.89,0,0,0,62.8,40Zm6,12A37.5,37.5,0,0,1,55,58.66C61,58.66,66.7,57.12,68.79,52Zm.81-4c-1.93-1.35-4-2.76-6.27-4.13-1.91-1.18-3.92-2.36-6-3.49a15.33,15.33,0,0,1,0,3.94c-.75,5.54-14.5,13.31-27.77,4.9-.46-.09-.93-.16-1.41-.27a61.76,61.76,0,0,0,9.64,6.76,69.76,69.76,0,0,0,15.34,2.87l0,0a36.14,36.14,0,0,0,16-7.35,10.68,10.68,0,0,0,.42-1.83A12.87,12.87,0,0,0,69.6,48Zm-.15-2.89c-.83-5.07-4.38-9.63-9.18-13.36a23.54,23.54,0,0,1,2.95,8.16h0a17.9,17.9,0,0,1,.26,3.5h-.07c2.2,1.36,4.28,2.74,6.21,4.09A14.62,14.62,0,0,0,69.45,45.14Z"/>
          <path class="cls-16" d="M85.81,60.13l-.07-.19-.62.21a53.06,53.06,0,0,1-8.51,2A61.63,61.63,0,0,1,47,59.9c-11.51-4-23.78-12.3-34-28.82l-.18.11.18.11.06-.09c.57-.83,5.71-7.84,17-9.67,6.22-1,14.31-.45,24.56,3.5s18,12.77,23.17,20.57A86.48,86.48,0,0,1,83.7,55.85c.64,1.31,1.12,2.42,1.44,3.17s.48,1.2.48,1.2l.19-.09-.07-.19.07.19.2-.07a83.35,83.35,0,0,0-7.77-14.67C73.06,37.56,65.29,28.7,54.87,24.66s-18.48-4.55-24.78-3.53c-12.25,2-17.36,9.9-17.38,10l-.07.11.07.11c10.23,16.59,22.58,25,34.2,29a61.6,61.6,0,0,0,29.77,2.31,50.53,50.53,0,0,0,9.2-2.26l.2-.07-.07-.2Z"/>
          <path class="cls-16" d="M84.65,59.88S51.76,26.26,14.63,30l0,.4C33.09,28.55,50.52,36,63.33,43.9A130.5,130.5,0,0,1,78.66,55c1.82,1.56,3.24,2.85,4.21,3.76.49.45.86.81,1.11,1.06s.37.36.37.36Z"/>
          <path class="cls-16" d="M71.39,49.23l-.35.32c-1.59,1.49-8.61,7.55-18,9a24.9,24.9,0,0,1-10.42-.43l-.1.41A26.24,26.24,0,0,0,53.15,59c10.84-1.77,18.52-9.5,18.53-9.5Z"/>
          <path class="cls-16" d="M56.43,40l-.33.32a35.91,35.91,0,0,1-17.46,8.52,28.67,28.67,0,0,1-11.5-.47l-.1.4a28.71,28.71,0,0,0,11.65.48,36.09,36.09,0,0,0,18-8.95Z"/>
          <path class="cls-16" d="M40.56,33l-.23.2a24.85,24.85,0,0,1-12.38,6,22.67,22.67,0,0,1-9.67-.54l-.11.41A23.31,23.31,0,0,0,28,39.6a25.4,25.4,0,0,0,12.84-6.28l-.29-.3Z"/>
          <path class="cls-16" d="M47.24,35.4S43.76,26.47,33,20.86l-.19.36a32.62,32.62,0,0,1,11,9.25,25,25,0,0,1,2.34,3.64c.25.45.42.81.53,1.06s.17.38.17.38Z"/>
          <path class="cls-16" d="M63.48,43.44a17.9,17.9,0,0,0-.26-3.5,23.18,23.18,0,0,0-11-16.27L52,24A22.72,22.72,0,0,1,62.8,40a19.89,19.89,0,0,1,.26,2.48c0,.3,0,.55,0,.7v.23Z"/>
          <path class="cls-16" d="M79.5,55.13A25.05,25.05,0,0,0,79.14,51a21.16,21.16,0,0,0-3.87-9.63l-.33.25a21,21,0,0,1,3.8,9.45A25,25,0,0,1,79.05,54c0,.36,0,.63,0,.83v.3Z"/>
          <path class="cls-17" d="M36,55.22l-.12-.09h0ZM79.29,47a68.23,68.23,0,0,0-5.15-7.26c1.51,1.87,2.88,3.77,4.1,5.63C78.6,45.93,79,46.49,79.29,47Z"/>
          <path class="cls-18" d="M53.06,58.61a69.76,69.76,0,0,1-15.34-2.87c1.65.9,3.3,1.72,4.94,2.44v0A25.5,25.5,0,0,0,53.06,58.61Zm18.28-9.34c-.56-.4-1.14-.83-1.74-1.24a12.87,12.87,0,0,1-.13,1.38,10.68,10.68,0,0,1-.42,1.83,23.16,23.16,0,0,0,2-1.69Zm7.4,1.84a21,21,0,0,0-3.8-9.45l.1-.07C70,35,63.25,28.37,54.72,25l-1-.36a23.37,23.37,0,0,1,6.57,7.1c4.8,3.73,8.35,8.29,9.18,13.36a14.62,14.62,0,0,1,.17,2.39c3.8,2.67,7,5.2,9.47,7.28,0-.18,0-.47,0-.81a25,25,0,0,0-.31-2.89ZM85.55,60c-.08-.2-.21-.52-.41-1-.32-.75-.8-1.86-1.44-3.17a86.48,86.48,0,0,0-5.81-10.24c-.21-.31-.42-.63-.65-1A24.16,24.16,0,0,1,79.14,51a25.05,25.05,0,0,1,.36,4.09h-.06c3.34,2.85,5.21,4.75,5.21,4.75l-.3.29s-.12-.13-.37-.36-.62-.61-1.11-1.06c-1-.91-2.39-2.2-4.21-3.76s-4.26-3.48-7-5.49v0A35.1,35.1,0,0,1,68.79,52C66.7,57.12,61,58.66,55,58.66c-.6.13-1.21.24-1.82.36a26.33,26.33,0,0,1-8.5,0c.8.31,1.59.61,2.38.88a61.63,61.63,0,0,0,29.58,2.28,53.06,53.06,0,0,0,8.51-2A3.11,3.11,0,0,0,85.55,60Z"/>
          <path class="cls-19" d="M42.66,58.18c-1.64-.72-3.29-1.54-4.94-2.44-1-.32-1.68-.54-1.83-.61l.12.09a68.1,68.1,0,0,0,6.61,3.16Zm43.15,2h0A86.55,86.55,0,0,0,79.29,47c-.34-.53-.69-1.09-1.05-1.63-1.22-1.86-2.59-3.76-4.1-5.63A49.24,49.24,0,0,0,53.35,24.41l.35.27,1,.36C63.25,28.37,70,35,75,41.59l.23-.18a16.29,16.29,0,0,1,2,3.25c.23.32.44.64.65,1A86.48,86.48,0,0,1,83.7,55.85c.64,1.31,1.12,2.42,1.44,3.17.2.47.33.79.41,1a3.11,3.11,0,0,1-.43.14,53.06,53.06,0,0,1-8.51,2A61.63,61.63,0,0,1,47,59.9c-.79-.27-1.58-.57-2.38-.88l-.89-.18C67.17,68.08,85.81,60.13,85.81,60.13Z"/>
          <path class="cls-19" d="M84.65,59.88s-1.87-1.9-5.21-4.75h-.35v-.32c-2.47-2.08-5.67-4.61-9.47-7.28a4.35,4.35,0,0,1,0,.5c.6.41,1.18.84,1.74,1.24l0,0,.28.27c2.73,2,5.08,3.89,7,5.49s3.24,2.85,4.21,3.76c.49.45.86.81,1.11,1.06s.37.36.37.36Z"/>
          <path class="cls-19" d="M55,58.66c-.63,0-1.27,0-1.91,0a25.5,25.5,0,0,1-10.4-.45v0l0,.2c.38.16.75.32,1.14.46l.89.18a26.33,26.33,0,0,0,8.5,0C53.76,58.9,54.37,58.79,55,58.66Zm16.71-9.14v0l-.28-.27,0,0-.3.28a23.16,23.16,0,0,1-2,1.69c-.08.25-.17.5-.26.75A35.1,35.1,0,0,0,71.68,49.52Z"/>
          <path class="cls-20" d="M59.35,31.1a23.42,23.42,0,0,0-7.24-7,63.33,63.33,0,0,0-6.48-1.83,48.18,48.18,0,0,0-11.41-.74l.52.31A51,51,0,0,1,59.35,31.1Z"/>
          <path class="cls-19" d="M52.11,24.09,52,24l.05-.09a47.35,47.35,0,0,0-6.39-1.68A63.33,63.33,0,0,1,52.11,24.09Z"/>
          <path class="cls-19" d="M60.27,31.78a23.37,23.37,0,0,0-6.57-7.1l-.35-.27L52,23.94,52,24l.14.06a23.42,23.42,0,0,1,7.24,7Z"/>
          <path class="cls-19" d="M79.14,51a24.16,24.16,0,0,0-1.9-6.38,16.29,16.29,0,0,0-2-3.25l-.23.18-.1.07a21,21,0,0,1,3.8,9.45h0A25,25,0,0,1,79.05,54c0,.34,0,.63,0,.81v.32h.41A25.05,25.05,0,0,0,79.14,51Z"/>
          <path class="cls-21" d="M40.32,33.25a65.25,65.25,0,0,0-25.58-2.83c-.61.57-.93.91-.93.91a53.61,53.61,0,0,0,5,7.46,22.66,22.66,0,0,0,9.11.4A25.28,25.28,0,0,0,40.32,33.25ZM46.6,35c-.11-.23-.26-.54-.45-.88a25,25,0,0,0-2.34-3.64,32.47,32.47,0,0,0-8-7.46,26.34,26.34,0,0,0-7.26-.3c-5.41.66-10.83,5-13.34,7.24C26.35,29,37.07,31.26,46.6,35Zm10.7,5.42a102.51,102.51,0,0,0-10.44-4.88v0c-2-.77-4-1.49-6.07-2.15A25.26,25.26,0,0,1,28,39.6a23.6,23.6,0,0,1-8.76-.27c1.29,1.6,2.83,3.39,4.6,5.24a30.76,30.76,0,0,0,4.77,4.09,28.27,28.27,0,0,0,10,.16A35.91,35.91,0,0,0,56.1,40.3a4.32,4.32,0,0,0,.31-.32l.3.3a36.09,36.09,0,0,1-18,8.95,29.2,29.2,0,0,1-9.2,0c13.27,8.41,27,.64,27.77-4.9A15.33,15.33,0,0,0,57.3,40.41Zm-.07-.52c-1.48-9-11.43-14.82-20.36-16.68a30.51,30.51,0,0,1,10.29,12A102.57,102.57,0,0,1,57.23,39.89Z"/>
          <path class="cls-22" d="M46.84,35.53a2.4,2.4,0,0,0-.16-.36L46.6,35c-9.53-3.73-20.25-6-31.35-5-.18.18-.35.31-.51.47a65.25,65.25,0,0,1,25.58,2.83v0l.23-.2h0l.29.3-.08.06C42.84,34,44.88,34.76,46.84,35.53Zm10.39,4.39v0a102.57,102.57,0,0,0-10.07-4.67,1,1,0,0,1,.08.18l-.38.13A102.51,102.51,0,0,1,57.3,40.41C57.27,40.26,57.25,40.07,57.23,39.92Z"/>
          <path class="cls-22" d="M56.71,40.28l-.28-.3-.33.32a35.91,35.91,0,0,1-17.46,8.52,28.27,28.27,0,0,1-10-.16l.87.59a29.2,29.2,0,0,0,9.2,0A36.09,36.09,0,0,0,56.71,40.28Z"/>
          <path class="cls-22" d="M40.85,33.32l-.29-.3h0l-.23.2v0A25.28,25.28,0,0,1,28,39.19a22.66,22.66,0,0,1-9.11-.4l.41.54A23.6,23.6,0,0,0,28,39.6a25.26,25.26,0,0,0,12.76-6.22Z"/>
          <path class="cls-22" d="M47.24,35.4a1,1,0,0,0-.08-.18,30.51,30.51,0,0,0-10.29-12l-1-.2a32.47,32.47,0,0,1,8,7.46,25,25,0,0,1,2.34,3.64c.19.34.34.65.45.88l.08.18a2.4,2.4,0,0,1,.16.36v0Z"/>
        </g>
      </g>
      <path class="cls-23" d="M109.13,101.58c-1.54-2.24-3.44-3.37-5.07-3.1-2.26.41-4.11,3.55-4.14,8.14a18.71,18.71,0,0,0,2.79,10.13c1.35,2,3.11,3.18,5,2.85,4.37-.75,5.24-8.68,3-14.86A14.56,14.56,0,0,0,109.13,101.58Z"/>
      <path class="cls-24" d="M109.49,122.38a3.09,3.09,0,0,0-5.76,1.05,5.15,5.15,0,0,0,.58,4.27,3.19,3.19,0,0,0,2.5,1.48c2.6.19,4-2.71,3.34-5.28A4.47,4.47,0,0,0,109.49,122.38Z"/>
      <path class="cls-4" d="M75.39,73.87a20.16,20.16,0,0,0,14.37,4.74l-.05-.83a19.7,19.7,0,0,1-10.1-2.08A20.79,20.79,0,0,1,76.89,74c-.3-.22-.54-.42-.7-.56s-.13-.11-.17-.16l0,0Z"/>
    </g>
  </g>
</svg>
