<svg id="Layer_1" data-name="Layer 1" xmlns="http://www.w3.org/2000/svg" width="324" height="400.45" viewBox="0 0 324 400.45">
  <defs>
    <style>
      .cls-1 {
        opacity: 0.3;
      }

      .cls-2, .cls-8 {
        fill: none;
        stroke-miterlimit: 10;
      }

      .cls-2 {
        stroke: #ff0;
        stroke-width: 8px;
      }

      .cls-3 {
        fill: #c79e70;
      }

      .cls-4 {
        fill: #bc8857;
      }

      .cls-5 {
        fill: #8a5d3b;
      }

      .cls-6 {
        fill: #c7ab8f;
      }

      .cls-7 {
        fill: #c3bab1;
      }

      .cls-8 {
        stroke: #fff;
        stroke-width: 2px;
      }
    </style>
  </defs>
  <g>
    <g class="cls-1">
      <path d="M76.86,398.51a14.82,14.82,0,0,1-9.16-3.32A14.75,14.75,0,0,1,60,397.42a13.47,13.47,0,0,1-3.29-.4,13.69,13.69,0,0,1-5.42-2.72,14.93,14.93,0,0,1-5.91,1.22h-.21A13.56,13.56,0,0,1,34.65,391a12.73,12.73,0,0,1-2.07-3.34h-.66a14,14,0,0,1-3.81-.53c-5.15-1.47-8.73-5-9.57-9.54-.07-.33-.11-.67-.15-1l-4-1.46,6-6.31a13.94,13.94,0,0,1,3.42-3.56l6.75-7.06c1.11-1.18,2.4-2.53,3.79-3.94l9.39-9.81.09.54,1.36-1.27.59-.34c17.22-10,36-37.8,39.46-58.39,3.58-21.46,14.17-68.66,28.65-93.6l.1-.18.12-.17c12.75-18.8,16-47.79,16.3-50.74V39.88l72-22.75v-.42l10.77-3L238.31,5.8l-1.5,9.55c-.15,1-15.32,98.25-14.91,126.51.11,7.4.9,12.64,2.49,16.44,1.69,3,4.66,6.53,9.56,11.34l2.08,2v.05A64.65,64.65,0,0,1,244.08,182a50.07,50.07,0,0,1,4.54,9.05c5.2,12.8,4.89,25.54-.89,36.86A26.82,26.82,0,0,1,244,234c-.53.73-1.05,1.4-1.58,2.05l-.32.4-2,1.69c-4.39,4.48-10.41,9.55-34.77,28.16l-.28.25-.31.27C198.09,272.49,187,282,180.5,300c-.81,2.41-1.52,4.93-2.11,7.49-.7,5-1.15,9.44-1.55,13.35a112.42,112.42,0,0,1-2.41,16.29c-2.27,11.72-11.28,21.47-26.06,28.23A52.48,52.48,0,0,1,142,368a80.63,80.63,0,0,1-10.65,3l-.47.12-3.47,1c-6.88,2-8.88,2.57-12,5.51a54.36,54.36,0,0,1-5,5.5c-.38.45-1.75,2.12-1.75,2.12l-.78.51c-1.11.72-2.09,1.33-3,1.87a26.3,26.3,0,0,1-5.77,3l-.43.15c-.49.16-.91.29-1.3.39l-.29.07-.22,0a17,17,0,0,1-3.83.45h0a15.6,15.6,0,0,1-2.91-.28C87.2,395,82.57,398.51,76.86,398.51Z"/>
      <path d="M239.26,230.25a21.08,21.08,0,0,0,3.08-5c5.47-10.62,4.84-21.91.7-32.05a43.27,43.27,0,0,0-4-8,58.26,58.26,0,0,0-9-11h0c-5.6-5.46-9-9.48-11-13.26-1.83-4.23-2.94-10-3.07-19-.43-29.1,15-127.52,15-127.52l-16,5-6.5,1.8v.26l-72,22.74v96.28s-2.89,32.51-17.33,53.81C105.62,217.58,95,262.83,91.18,285.94s-24.07,52-42.37,62.58c-3.51,3.28-6.48,6.18-9,8.69v0l-1.17,1.22q-2.11,2.16-3.74,3.9l-7.18,7.49a7.63,7.63,0,0,0-2.55,2.67l-.12.12,0,0a5.87,5.87,0,0,0-.69,3.83c.65,3.42,4.52,4.66,5.33,4.89,4.26,1.21,7.78-1.59,8.15-1.89-.08.24-1.42,4.47,1.29,7.59a8,8,0,0,0,6.05,2.5,10,10,0,0,0,7.21-3.24,9.06,9.06,0,0,0,5.67,4.92,9.07,9.07,0,0,0,9.74-4.5c9,12.41,18,1.71,20.11-2.56a9.42,9.42,0,0,0,7.7,1.26l.15,0,.18,0a6.73,6.73,0,0,0,.77-.24L97,385l0,0a20,20,0,0,0,4.64-2.42c.87-.53,1.84-1.14,3-1.86.49-.6,1-1.16,1.41-1.7a48.13,48.13,0,0,0,4.88-5.4c5-4.86,8.19-5.3,18.31-8.3l.72-.19A73.45,73.45,0,0,0,140,362.31a45.26,45.26,0,0,0,5.78-2.33c10.49-4.78,20.62-12.58,22.77-24.12,1.92-7.3,2.06-16.22,3.91-29.41.63-2.76,1.4-5.55,2.34-8.37,7.1-19.85,19.58-30.32,26.32-36.1l.34-.32C226.17,242.82,231.83,238,236,233.74l1.74-1.5C238.27,231.58,238.78,230.92,239.26,230.25Z"/>
    </g>
    <g>
      <path class="cls-2" d="M70.61,391.77a14.5,14.5,0,0,1-9-3.24,14.38,14.38,0,0,1-7.54,2.18,13.47,13.47,0,0,1-3.23-.39,13.31,13.31,0,0,1-5.29-2.66,14.53,14.53,0,0,1-5.78,1.19h-.2a13.25,13.25,0,0,1-10.27-4.47,12.07,12.07,0,0,1-2-3.27l-.64,0a13.88,13.88,0,0,1-3.73-.52c-5-1.43-8.53-4.92-9.36-9.33-.06-.33-.11-.65-.14-1l-3.92-1.43,5.91-6.17a13.59,13.59,0,0,1,3.33-3.48l6.61-6.89c1.08-1.16,2.35-2.48,3.7-3.86l9.19-9.59.09.53,1.33-1.25.57-.33c16.84-9.75,35.23-37,38.58-57.09,3.5-21,13.86-67.13,28-91.52L107,189l.11-.17c12.47-18.37,15.64-46.72,15.94-49.6V41.12l70.41-22.25v-.4l10.53-2.92L228.47,7.8,227,17.14c-.15.95-15,96.06-14.57,123.69.11,7.24.88,12.36,2.43,16.08,1.65,2.94,4.56,6.38,9.35,11.08l2,2V170a62.57,62.57,0,0,1,7.87,10,48.52,48.52,0,0,1,4.44,8.85c5.09,12.52,4.79,25-.87,36a26.38,26.38,0,0,1-3.68,6c-.52.72-1,1.37-1.55,2l-.31.38-1.92,1.66c-4.29,4.38-10.18,9.34-34,27.54l-.27.24-.3.26c-6.51,5.58-17.39,14.9-23.71,32.52-.79,2.35-1.48,4.82-2.06,7.32-.68,4.9-1.12,9.23-1.52,13.05A109.72,109.72,0,0,1,166,331.8c-2.22,11.45-11,21-25.48,27.6a50.84,50.84,0,0,1-6.25,2.52,80.13,80.13,0,0,1-10.41,2.93l-.46.12L120,366c-6.73,2-8.68,2.51-11.7,5.39a54,54,0,0,1-4.87,5.38l-1.71,2.07-.76.49c-1.08.71-2,1.31-2.9,1.84a25.74,25.74,0,0,1-5.64,2.92l-.42.15c-.48.16-.88.28-1.27.38l-.28.06-.22.05a16.73,16.73,0,0,1-3.74.44h0a15,15,0,0,1-2.85-.27C80.72,388.32,76.2,391.77,70.61,391.77Z"/>
      <path class="cls-2" d="M229.4,227.26a20.77,20.77,0,0,0,3-4.9c5.35-10.38,4.73-21.43.68-31.34a42.9,42.9,0,0,0-3.92-7.85,57.54,57.54,0,0,0-8.79-10.73h0c-5.47-5.33-8.79-9.27-10.8-13-1.79-4.14-2.88-9.77-3-18.57-.41-28.45,14.65-124.68,14.65-124.68l-15.61,4.93-6.36,1.76v.25L128.86,45.41v94.14s-2.83,31.79-17,52.61c-13.18,22.71-23.53,67-27.3,89.55S61.07,332.54,43.19,342.9c-3.44,3.2-6.34,6-8.78,8.5v0l-1.14,1.2c-1.38,1.4-2.6,2.68-3.66,3.81l-7,7.33a7.64,7.64,0,0,0-2.5,2.6l-.11.12,0,0a5.66,5.66,0,0,0-.67,3.74c.63,3.34,4.42,4.55,5.21,4.77,4.16,1.19,7.6-1.54,8-1.84-.08.24-1.39,4.36,1.25,7.42A7.75,7.75,0,0,0,39.69,383a9.69,9.69,0,0,0,7.05-3.17,8.82,8.82,0,0,0,5.55,4.81,8.86,8.86,0,0,0,9.52-4.39c8.78,12.13,17.57,1.67,19.66-2.51A9.22,9.22,0,0,0,89,379l.15,0,.17-.05c.24-.06.5-.13.76-.22l.24-.08.05,0a20.08,20.08,0,0,0,4.54-2.37c.85-.52,1.8-1.11,2.88-1.82l1.38-1.66a47.39,47.39,0,0,0,4.77-5.28c4.86-4.75,8-5.18,17.91-8.12l.7-.18a72.72,72.72,0,0,0,9.83-2.76A43.83,43.83,0,0,0,138,354.1c10.26-4.67,20.16-12.3,22.26-23.59,1.87-7.13,2-15.86,3.82-28.75.62-2.69,1.37-5.43,2.3-8.18,6.94-19.41,19.13-29.65,25.73-35.3l.33-.31c24.13-18.43,29.67-23.12,33.74-27.3l1.7-1.47C228.44,228.56,228.93,227.91,229.4,227.26Z"/>
    </g>
    <g>
      <path class="cls-3" d="M128.53,40.64v96.28s-2.89,32.51-17.33,53.8C97.72,213.94,87.13,259.2,83.28,282.3s-24.07,52-42.36,62.59C26.47,358.36,21,365.53,21,365.53c-3.22,1.41-5,4.52-4.49,7.28.64,3.41,4.51,4.65,5.32,4.88,4.26,1.21,7.78-1.58,8.15-1.89-.08.25-1.41,4.47,1.29,7.6a8,8,0,0,0,6.05,2.49,9.92,9.92,0,0,0,7.21-3.24,9,9,0,0,0,5.67,4.92A9.07,9.07,0,0,0,60,383.08c9,12.41,18,1.71,20.11-2.57,10.27,6.85,23.11-10.7,23.11-10.7s4.28-5.56,18-8.13,37.66-12,39.8-31.24,1.71-48.78,32.52-72.31,32.09-25.25,37.65-31.24,12-26.53,0-45.36-22.68-14.12-23.1-43.22S223,10.79,223,10.79Z"/>
      <path class="cls-4" d="M222.14,11.65S206.73,118.2,208,134.89c-.08,16.68-.86,21.05,14.12,35.66s23.75,38.37,7.7,58c-18.61,16.26-31.88,25.25-36.59,29.74-7.48,6.42-22,18.61-28.45,43-3.64,24.82-1.07,34.88-13.91,46.65-12.62,9.2-15.4,10.05-29.53,13.69-13.69,4.07-14.76,3.42-24.6,15.41-8.56,5.56-9.2,4.92-13.05,4.7,8.13-4.06,18.18-14.12,20.11-19.68s23.32-10.06,29.53-14.76,18.4-18,19.68-31.67,4.28-39.37,22.25-53.92S217,220.9,217.22,211.91s3.63-40-11.34-55l-3.64-4.49-2.35-2.35.64-132.44Z"/>
      <path class="cls-5" d="M31.93,374.09a56.12,56.12,0,0,1,7.23-12.88,89.81,89.81,0,0,1,9.75-11.15c1.83-1.66,3.62-3.37,5.57-4.89,1-.77,1.89-1.59,2.89-2.32l3-2.18c.51-.35,1-.73,1.51-1.07l1.56-1,3.12-2c2.13-1.25,4.3-2.42,6.46-3.6-2.08,1.33-4.21,2.56-6.26,3.91l-3,2.08-1.53,1c-.5.36-1,.74-1.47,1.11l-2.94,2.22c-1,.74-1.89,1.56-2.85,2.33-1.92,1.53-3.67,3.25-5.48,4.91a96.11,96.11,0,0,0-9.81,10.95c-.74,1-1.49,1.95-2.17,3l-1,1.52-1,1.56A50.53,50.53,0,0,0,31.93,374.09Z"/>
      <path class="cls-5" d="M55.81,381.93A56.12,56.12,0,0,1,63,369.05a89.81,89.81,0,0,1,9.75-11.15c1.83-1.66,3.62-3.37,5.57-4.89,1-.77,1.89-1.59,2.89-2.32l3-2.18c.51-.35,1-.73,1.51-1.07l1.56-1,3.12-2c2.13-1.25,4.3-2.42,6.46-3.6-2.08,1.33-4.21,2.56-6.26,3.91l-3,2.08-1.53,1c-.5.36-1,.74-1.47,1.11l-2.94,2.22c-1,.73-1.89,1.56-2.85,2.33-1.92,1.53-3.67,3.25-5.48,4.91a96.11,96.11,0,0,0-9.81,10.95c-.74,1-1.49,1.95-2.17,3l-1,1.52-1,1.56A50.53,50.53,0,0,0,55.81,381.93Z"/>
      <path class="cls-5" d="M42.84,381.93a57,57,0,0,1,2.78-7.23c1.13-2.33,2.34-4.62,3.68-6.83A77.39,77.39,0,0,1,76.81,341a37.4,37.4,0,0,1,3.43-1.81l3.47-1.72-3.38,1.89A38.12,38.12,0,0,0,77,341.34a77,77,0,0,0-6.37,4.36A79.17,79.17,0,0,0,59.2,356a80.43,80.43,0,0,0-9.41,12.18A72.79,72.79,0,0,0,42.84,381.93Z"/>
      <path class="cls-5" d="M76.35,381.93A20,20,0,0,1,78,376c.41-1,.89-1.88,1.36-2.8s1-1.81,1.6-2.67a54.89,54.89,0,0,1,8-9.52c1.45-1.49,3.07-2.78,4.62-4.15s3.25-2.55,4.91-3.79,3.42-2.32,5.15-3.44l5.34-3.12-5.14,3.43c-1.69,1.18-3.34,2.4-5,3.6S95.55,356,94,357.37s-3.12,2.67-4.54,4.15c-.72.73-1.5,1.4-2.18,2.17L85.2,366c-.66.79-1.28,1.6-1.93,2.39s-1.2,1.66-1.81,2.48-1.11,1.73-1.66,2.58-1,1.79-1.45,2.72A21.55,21.55,0,0,0,76.35,381.93Z"/>
      <path class="cls-6" d="M31.93,353.55s4.07,27-13,16.26L17.17,369Z"/>
      <path class="cls-7" d="M42.84,375.8s3,7.12-5.56,6.13-6-6.13,0-13l6.07,3.36Z"/>
      <path class="cls-7" d="M45,382s-.43-6.77,5.14-9.71l6,2.63s1.27,10.27-5.57,9.84Z"/>
      <path class="cls-7" d="M60,382s.85-9.34,6-9.71L73.22,375l-4.28,9.85S63.81,389.1,60,382Z"/>
      <path class="cls-7" d="M81.78,375.49s2.14-7.39,6.85-6.53,5.43,6.23-3.42,9.6Z"/>
    </g>
    <g>
      <line class="cls-8" x1="237.91" y1="269.01" x2="271.29" y2="312.66"/>
      <line class="cls-8" x1="259.56" y1="246.98" x2="304.12" y2="279.14"/>
      <line class="cls-8" x1="259.56" y1="218.28" x2="314.33" y2="222.74"/>
      <line class="cls-8" x1="262.95" y1="184.82" x2="310.94" y2="158.07"/>
    </g>
    <g class="cls-1">
      <line x1="238.4" y1="271.08" x2="271.78" y2="314.73"/>
      <line x1="260.05" y1="249.05" x2="304.61" y2="281.21"/>
      <line x1="260.05" y1="220.36" x2="314.82" y2="224.81"/>
      <line x1="263.44" y1="186.9" x2="311.44" y2="160.15"/>
    </g>
  </g>
</svg>
