<svg id="Layer_1" data-name="Layer 1" xmlns="http://www.w3.org/2000/svg" width="256.51" height="214.47" viewBox="0 0 256.51 214.47">
  <defs>
    <style>
      .cls-1, .cls-10, .cls-11, .cls-12, .cls-13, .cls-14, .cls-15, .cls-16, .cls-17, .cls-18, .cls-19, .cls-2, .cls-20, .cls-21, .cls-23, .cls-24, .cls-25, .cls-26, .cls-3, .cls-4, .cls-5, .cls-6, .cls-7, .cls-8, .cls-9 {
        fill-rule: evenodd;
      }

      .cls-1 {
        opacity: 0.5;
      }

      .cls-2 {
        fill: #fff;
      }

      .cls-3 {
        fill: #239494;
        stroke: #146664;
      }

      .cls-14, .cls-15, .cls-18, .cls-20, .cls-21, .cls-23, .cls-24, .cls-3, .cls-6, .cls-9 {
        stroke-miterlimit: 10;
      }

      .cls-3, .cls-6, .cls-9 {
        stroke-width: 0.75px;
      }

      .cls-4 {
        fill: #208080;
      }

      .cls-5 {
        fill: #366;
      }

      .cls-6 {
        fill: #24abab;
        stroke: #146866;
      }

      .cls-7 {
        fill: #209999;
      }

      .cls-8 {
        fill: #418080;
      }

      .cls-9 {
        fill: #73d1cc;
        stroke: #419e97;
      }

      .cls-10 {
        fill: #9cc;
      }

      .cls-11 {
        fill: #822260;
      }

      .cls-12 {
        fill: #994b99;
      }

      .cls-13 {
        fill: #5abfba;
      }

      .cls-14 {
        fill: #c96ebd;
        stroke: #993a90;
      }

      .cls-14, .cls-15, .cls-18, .cls-20, .cls-21, .cls-23, .cls-24 {
        stroke-width: 0.5px;
      }

      .cls-15, .cls-19 {
        fill: #a33484;
      }

      .cls-15, .cls-18, .cls-21, .cls-24 {
        stroke: #891989;
      }

      .cls-16, .cls-24 {
        fill: #ab388e;
      }

      .cls-17 {
        fill: #a854a8;
      }

      .cls-18 {
        fill: #a83799;
      }

      .cls-20 {
        fill: #a63786;
        stroke: #7a1f64;
      }

      .cls-21 {
        fill: #912f7d;
      }

      .cls-22 {
        fill: #a13092;
      }

      .cls-23 {
        fill: #962c78;
        stroke: #701c5c;
      }

      .cls-25 {
        fill: #b043a1;
      }

      .cls-26 {
        fill: #b54ba7;
      }
    </style>
  </defs>
  <g>
    <path class="cls-1" d="M130.12,213.44a8.09,8.09,0,0,1-3.16-.65l-.08,0-.5-.23L59,180.37l-.24-.12-1.56-.74L12.39,158.17A8,8,0,0,1,7.84,151l-.53-49.55a7.84,7.84,0,0,1-.71-3L5.83,76.15a8,8,0,0,1,4.5-7.47L60.94,44.1l.3-.15,14.18-6.89.29-.13L77.63,36c4-10.85,12.85-25.19,23.1-28.5l.28-.08A11.82,11.82,0,0,1,104.29,7a36.85,36.85,0,0,1,6.18.7l.74.13a7.71,7.71,0,0,1,1.6.42h0a28.54,28.54,0,0,1,9.71,5.93l4.23-2a8,8,0,0,1,3.49-.81h.08c.36,0,.66,0,.94,0,.33-.32.67-.62,1-.91l.19-.16a10.43,10.43,0,0,1,1-.76,20.7,20.7,0,0,1,7.11-3A23.89,23.89,0,0,1,145.44,6c10.13,0,24.75,6,31.85,16.06a22.17,22.17,0,0,1,2.91,5c.11.23.21.47.3.71s.09.26.13.39A22.84,22.84,0,0,1,182,36.08l2.61,1.29,12.6,6.21.23.12,10.33,5.07a1.87,1.87,0,0,1,.32.15l4.83,2.36.21.1c3.64,1.77,7.15,3.48,10.47,5.08l5.09,2.44.27.14c15.65,7.49,19.33,8.94,20.19,9.22a8,8,0,0,1,5.54,7.14,8.11,8.11,0,0,1-.32,2.75l-.43,20.94a8.13,8.13,0,0,1-.73,3.17l-.52,48.65a8,8,0,0,1-4.55,7.14L133.7,212.6q-.27.14-.54.24A8,8,0,0,1,130.12,213.44Z"/>
    <path class="cls-2" d="M126.12,208.44a8.09,8.09,0,0,1-3.16-.65l-.08,0-.5-.23L55,175.37l-.24-.12-1.56-.74L8.39,153.17A8,8,0,0,1,3.84,146L3.31,96.48a7.84,7.84,0,0,1-.71-3L1.83,71.15a8,8,0,0,1,4.5-7.47L56.94,39.1l.3-.15,14.18-6.89.29-.13L73.63,31c4-10.85,12.85-25.19,23.1-28.5L97,2.42A11.82,11.82,0,0,1,100.29,2a36.85,36.85,0,0,1,6.18.7l.74.13a7.71,7.71,0,0,1,1.6.42h0a28.54,28.54,0,0,1,9.71,5.93l4.23-2a8,8,0,0,1,3.49-.81h.08c.36,0,.66,0,.94,0,.33-.32.67-.62,1-.91l.19-.16a10.43,10.43,0,0,1,1-.76,20.7,20.7,0,0,1,7.11-3A23.89,23.89,0,0,1,141.44,1c10.13,0,24.75,6,31.85,16.06a22.17,22.17,0,0,1,2.91,5c.11.23.21.47.3.71s.09.26.13.39A22.84,22.84,0,0,1,178,31.08l2.61,1.29,12.6,6.21.23.12,10.33,5.07a1.87,1.87,0,0,1,.32.15l4.83,2.36.21.1c3.64,1.77,7.15,3.48,10.47,5.08l5.09,2.44.27.14c15.65,7.49,19.33,8.94,20.19,9.22a8,8,0,0,1,5.54,7.14,8.11,8.11,0,0,1-.32,2.75l-.43,20.94a8.13,8.13,0,0,1-.73,3.17l-.52,48.65a8,8,0,0,1-4.55,7.14L129.7,207.6q-.27.14-.54.24A8,8,0,0,1,126.12,208.44Z"/>
    <g>
      <polygon class="cls-3" points="11.27 92.54 126.29 140.6 126.27 200.37 126.12 200.44 11.84 145.95 11.27 92.54"/>
      <polygon class="cls-4" points="16.9 94.49 20.86 96.13 20.86 149.84 16.9 147.95 16.9 94.49"/>
      <polygon class="cls-4" points="29.18 99.75 33.14 101.42 33.14 155.84 29.18 153.94 29.18 99.75"/>
      <polygon class="cls-4" points="41.67 104.9 45.61 106.56 45.61 161.73 41.67 159.83 41.67 104.9"/>
      <polygon class="cls-4" points="54.22 110.49 58.16 112.14 58.16 168.04 54.22 166.15 54.22 110.49"/>
      <polygon class="cls-4" points="66.81 115.75 70.75 117.39 70.75 174.04 66.81 172.15 66.81 115.75"/>
      <polygon class="cls-4" points="79.4 120.81 83.34 122.45 83.34 179.84 79.4 177.95 79.4 120.81"/>
      <polygon class="cls-4" points="91.99 125.92 95.93 127.56 95.93 185.7 91.99 183.8 91.99 125.92"/>
      <polygon class="cls-4" points="104.56 131.14 108.52 132.81 108.52 191.67 104.56 189.77 104.56 131.14"/>
      <polygon class="cls-4" points="117.23 136.56 121.19 138.22 121.19 197.83 117.23 195.95 117.23 136.56"/>
      <polygon class="cls-5" points="11.24 86.49 126.29 138.89 126.29 152.48 11.34 97.78 11.24 86.49"/>
      <polygon class="cls-3" points="9.83 70.87 126.29 121.98 126.29 147.21 10.59 93.16 9.83 70.87"/>
      <polygon class="cls-6" points="241.24 92.54 126.22 146.04 126.25 200.38 240.67 145.82 241.24 92.54"/>
      <polygon class="cls-7" points="133.7 142.11 129.74 143.95 129.74 198.26 133.7 196.37 133.7 142.11"/>
      <polygon class="cls-7" points="146.29 136.38 142.33 138.22 142.33 192.39 146.29 190.49 146.29 136.38"/>
      <polygon class="cls-7" points="158.88 130.58 154.92 132.42 154.92 186.43 158.88 184.56 158.88 130.58"/>
      <polygon class="cls-7" points="171.47 124.99 167.51 126.83 167.51 180.38 171.47 178.51 171.47 124.99"/>
      <polygon class="cls-7" points="184.04 119.15 180.1 120.99 180.1 174.43 184.1 172.5 184.04 119.15"/>
      <polygon class="cls-7" points="196.63 113.29 192.69 115.13 192.69 168.7 196.63 166.82 196.63 113.29"/>
      <polygon class="cls-7" points="209.22 107.16 205.28 109 205.28 162.43 209.22 160.55 209.22 107.16"/>
      <polygon class="cls-7" points="221.75 101.3 217.8 103.14 217.8 156.43 221.75 154.55 221.75 101.3"/>
      <polygon class="cls-7" points="234.4 95.46 230.46 97.3 230.46 150.42 234.4 148.53 234.4 95.46"/>
      <polygon class="cls-8" points="241.29 86.49 126.22 138.9 126.22 152.48 241.17 97.76 241.29 86.49"/>
      <polygon class="cls-6" points="242.39 71 126.22 121.98 126.29 147.21 241.92 93.92 242.39 71"/>
      <path class="cls-9" d="M242.68,70.87,126.26,124,9.83,70.87,126.26,14.33c.16-.05,106.25,53.27,116.42,56.54Z"/>
      <path class="cls-10" d="M242.68,70.87l-116,53,.1,23.08-.53.27-.68-.32-.22-23L10,70.93l116.3,51.76ZM126.45,200.28l-.33.16-.08,0-.38-48.22.58.28.48-.21Z"/>
      <polygon class="cls-11" points="52.26 90.22 70.82 98.7 69.58 173.48 52.91 165.53 52.26 90.22"/>
      <polygon class="cls-12" points="200.25 90.22 181.69 98.7 182.93 173.35 199.6 165.4 200.25 90.22"/>
      <polygon class="cls-13" points="25.5 78.24 20.61 76.01 17.91 67.18 21.59 65.39 25.5 78.24"/>
      <polygon class="cls-13" points="40.6 85.18 35.71 82.95 29.26 61.78 32.92 59.99 40.6 85.18"/>
      <polygon class="cls-13" points="56.33 92.21 51.44 89.97 41.09 56.01 44.75 54.22 56.33 92.21"/>
      <polygon class="cls-13" points="71.94 99.36 67.04 97.11 52.8 50.36 56.46 48.59 71.94 99.36"/>
      <polygon class="cls-13" points="87.31 106.21 82.42 103.98 64.27 44.44 67.93 42.66 87.31 106.21"/>
      <polygon class="cls-13" points="103.06 113.52 98.17 111.29 76.1 38.96 79.79 37.17 103.06 113.52"/>
      <polygon class="cls-13" points="118.59 120.74 113.68 118.51 87.73 33.38 91.42 31.59 118.59 120.74"/>
      <polygon class="cls-13" points="131.83 120.11 128.11 121.79 99.43 27.64 103.11 25.85 131.83 120.11"/>
      <polygon class="cls-13" points="143.66 114.94 139.95 116.59 111.03 21.73 114.71 19.94 143.66 114.94"/>
      <path class="cls-13" d="M155.59,109.79l-3.7,1.7-29-95.19,3.54-1.72.18.09Z"/>
      <polygon class="cls-13" points="167.32 104.37 163.62 106.05 137.66 20.42 142.64 22.9 167.32 104.37"/>
      <polygon class="cls-13" points="178.95 99.3 175.37 100.9 153.11 27.87 158.09 30.33 178.95 99.3"/>
      <path class="cls-13" d="M191,94.57l-3.71,1.7L168.81,35.7c1.64.81,3.3,1.62,5,2.46Z"/>
      <path class="cls-13" d="M202.66,88.71,199,90.39,184.73,43.63l5,2.44Z"/>
      <path class="cls-13" d="M214.57,83.35,210.85,85,200.52,51.08c1.67.83,3.31,1.63,5,2.43Z"/>
      <path class="cls-13" d="M226.44,78.27l-3.7,1.7-6.47-21.22,4.95,2.37Z"/>
      <path class="cls-13" d="M238.22,72.89l-3.7,1.7L232,66.4c1.82.85,3.46,1.61,4.91,2.25Z"/>
      <polygon class="cls-14" points="74.92 39.26 60.74 46.14 181.71 98.7 200.25 90.22 74.92 39.26"/>
      <polygon class="cls-14" points="175.75 38.9 189.65 45.75 70.82 98.7 52.28 90.22 175.75 38.9"/>
      <path class="cls-15" d="M128.54,111.11c-9.25-7.12-15.19-24.23-9.38-36.34a68,68,0,0,1,7.53-12l-5.53-3.33c-6.8,6-12.69,13.37-14.44,18.66-4.77,14.34.91,26.52,7.21,34Z"/>
      <path class="cls-16" d="M128.54,111.11c-8.07-6.23-13.63-20.07-11-31.54a26.26,26.26,0,0,0-11.4.62c-3.6,13.45,1.83,24.81,7.83,32Z"/>
      <path class="cls-17" d="M128.54,111.11c-5.47-4.21-9.78-11.93-11.19-20-4.2.42-8.45,1.4-12.16,1.73a37.79,37.79,0,0,0,8.74,19.35Z"/>
      <path class="cls-18" d="M124.53,57.51c7.22,4.42,14.75,9.38,25.44,9.52,4.37,0,10.06-1.8,14.15-3.27s9.11-6.29,11.42-8.69c-2.48,5.89,1.34,12.53.86,15.73-5.61,3.81-15.43,6.46-21,6.8a32.72,32.72,0,0,1-13.2-2.41c-6.06-2.25-12.11-5.7-17.49-8.81-1-.59-2-1.15-3.05-1.68Z"/>
      <path class="cls-19" d="M132.19,62A37.64,37.64,0,0,0,150,67,20.56,20.56,0,0,0,153,66.8c.26,3,.51,7.81.48,10.84a48,48,0,0,1-12.26-1.88,67.48,67.48,0,0,1-13.82-6.51,20.51,20.51,0,0,1-5.62-4.55l3-6c2.6,1.36,4.76,1.89,7.39,3.31Z"/>
      <path class="cls-20" d="M126.22,61.26c-.78-3.95-2-14.74-3.93-25.33a60.51,60.51,0,0,0-3.47-12.62,22.16,22.16,0,0,0-12.65-12.5c-1.69-.55-3,0-4.85.94-10.53,5.34-24.49,24.3-19.39,32.18C84,38.6,89.55,30.42,95.1,23.27c14.6-9.5,22.2,30.29,27.22,38.19Z"/>
      <path class="cls-21" d="M125.11,64.22c-7.33,1-25.54-4.18-34.73-7.21-8.25-2.65-13.89-10.25-10.15-20.5,3.1-10.58,11.81-24.09,19-26.39,1.38-.39,5.33.35,6.39.57.1.05.33,0,.45.07-4.4-.13-11.48,3.57-16.42,20.28C85.85,43.77,91.85,46.21,98.8,49c6,2.32,23.54,9.38,28.1,11.61Z"/>
      <path class="cls-22" d="M102.12,60.55c-4.36-1.18-8.61-2.46-11.74-3.54-6.54-2.09-11.45-7.38-11.32-14.53A22.2,22.2,0,0,1,87.23,35c.51-.29,1-.57,1.57-.85C86.88,44.2,92.45,46.43,98.8,49c2.26.83,6.14,2.44,10.35,4.14-2,2.37-4.47,4.9-7,7.43Z"/>
      <path class="cls-23" d="M123.4,60.2c1.79-2.74,2.37-14.94,3.95-26.36.68-4.8,1.28-12.51,2.49-16.43a11.79,11.79,0,0,1,3.66-5.89,8.82,8.82,0,0,1,5.28-1.72c12.41-.65,31.5,9.75,27.8,20-.37-2.61-2.11-5.17-4.88-7.28A25.31,25.31,0,0,0,150.27,18c-7.93-1.2-11.69,13.28-15.9,27.19-1.56,5.17-4.13,11.44-5.54,15.74Z"/>
      <path class="cls-24" d="M127.85,63.26c8.09-3.1,24.28-7.42,33.45-15.29,8.3-7.08,11.71-18.4,5.56-26.11-5.79-8.38-20.43-14.27-28.6-12.52A12.57,12.57,0,0,0,134,11.11c-.18.12-.36.3-.48.39,4.66-2.55,13.12-2.9,22,10.27,6.87,10,.95,15.68-5.94,22.09-5.82,5.49-20.1,12.37-24.4,17Z"/>
      <path class="cls-25" d="M147.79,55.92c2.22-1,4.41-2,6.46-3.17a44,44,0,0,0,7.32-5c7-6,10-15.15,7.41-22.25C164.24,22,159.11,19.94,155,21c.19.23.32.5.5.73,6.87,10,.95,15.68-5.94,22.09-2.62,2.46-7.08,5.33-11.57,8,2.28,2.61,1.87,7.32,9.77,4Z"/>
      <path class="cls-26" d="M124.91,58.54c2.14,0,4.88,2.72,4.45,4.08s-2.08,3.86-4.22,3.86c-1.09,0-2.4-1-3.33-1.61S120.4,64.2,120.4,63a4.69,4.69,0,0,1,4.51-4.44Z"/>
    </g>
  </g>
</svg>
