<svg id="Layer_1" data-name="Layer 1" xmlns="http://www.w3.org/2000/svg" width="333.96" height="286.04" viewBox="0 0 333.96 286.04">
  <defs>
    <style>
      .cls-1 {
        fill: #ff0;
      }

      .cls-2 {
        fill: #3d8ea1;
      }

      .cls-3 {
        fill: #7bb8d5;
      }

      .cls-4 {
        fill: #9ad0e8;
      }

      .cls-5 {
        fill: #d8f4ff;
      }

      .cls-6 {
        fill: #fcffff;
      }

      .cls-7 {
        fill: #fffffb;
      }

      .cls-8 {
        fill: #2790ad;
      }

      .cls-9 {
        fill: #74b7d1;
      }

      .cls-10 {
        fill: #99d1ec;
      }

      .cls-11 {
        fill: #d3f5ff;
      }

      .cls-12 {
        fill: #fffcfc;
      }

      .cls-13 {
        fill: #41a022;
      }

      .cls-14, .cls-18 {
        fill: none;
        stroke-miterlimit: 10;
      }

      .cls-14 {
        stroke: #38841c;
        stroke-width: 0.65px;
      }

      .cls-15 {
        fill: #204910;
      }

      .cls-15, .cls-20 {
        opacity: 0.3;
      }

      .cls-16 {
        fill: #8fc12f;
        opacity: 0.4;
      }

      .cls-17 {
        fill: #48bc28;
      }

      .cls-18 {
        stroke: #45a525;
        stroke-width: 1.3px;
      }

      .cls-19 {
        fill: #b0e573;
      }

      .cls-20 {
        fill: #b6f261;
      }

      .cls-21 {
        fill: #73b5cb;
      }

      .cls-22 {
        fill: #92ceea;
      }

      .cls-23 {
        fill: #fefefe;
      }

      .cls-24 {
        fill: #fffffa;
      }
    </style>
  </defs>
  <g>
    <path class="cls-1" d="M294.83,284.2a39.81,39.81,0,0,1-14.16-2.65c-1-.37-2-.8-2.93-1.26a35.58,35.58,0,0,1-19.56-25.14,52.51,52.51,0,0,1-.85-16.5,74.44,74.44,0,0,1-20.28,8.87c-1,.28-2.2.57-3.4.84l-.75.14c-2.08.33-4.14.57-6.12.71-1.66.13-3.36.19-5,.19-28.58,0-45.44-18.35-52.73-28.82h-2.51a179,179,0,0,1-19.28-1,123.22,123.22,0,0,1-20.11-3.46A155.08,155.08,0,0,1,112,211.67c-15.2-4.49-52.79-19.8-81.11-66.23a171.21,171.21,0,0,1-13.6-26.67c-1.64-3.23-8.19-17-8.93-33.5a53.41,53.41,0,0,1,.47-17,50.14,50.14,0,0,1,7.25-16.85,13,13,0,0,1-1.76.13A12.37,12.37,0,0,1,2.93,34.42c.1-.26.22-.53.34-.78L7.92,24a12.34,12.34,0,0,1,5.48-5.65c.27-.14.55-.27.83-.39l.58-.23A54.93,54.93,0,0,1,35,14.1a84.05,84.05,0,0,1,20.6,2.78c1.57.38,3.14.8,4.7,1.26,4.82-6.45,13.21-12,25.8-14.58a80.19,80.19,0,0,1,17.23-1.72c19.95,0,39.39,5.78,40.21,6,34.24,10.5,46.93,24.88,56.74,40.11l.63.38a12.36,12.36,0,0,1,6,10.39c1.51,2.47,3.07,5,4.75,7.48,1.31,2,4,6.31,8.15,13.29,6.49,10.88,15,25.45,18.91,32.11a23.28,23.28,0,0,1,3.29,5.58c19.89,32.07,38.91,50.3,46.53,56.93,1.61,1.21,3.22,2.51,4.9,4a27.46,27.46,0,0,0,3.49,2,12.39,12.39,0,0,1,8.41,14.72l0,.18a12.45,12.45,0,0,1-1.57,3.74c8.48,7.09,25.65,21.59,28.17,42.75a10.35,10.35,0,0,1,.09,1.36c.31,33.54-22.25,38.77-29.67,40.49a32.94,32.94,0,0,1-7.44.82Z"/>
    <g>
      <g>
        <path class="cls-2" d="M281.84,189s-12.44,37-48,46.55C262.18,222.46,272.19,191,272.19,191l-96.31,17-.09-.21Z"/>
        <path class="cls-3" d="M272.19,191s-10,31.45-38.37,44.53c-.93.27-1.89.5-2.87.72-1.73.27-3.43.47-5.07.59,20.16-9.73,30.81-28.75,35.1-38.3a3.39,3.39,0,0,0-3.69-4.71L176,208.2a1.5,1.5,0,0,0-.09-.18Z"/>
        <path class="cls-4" d="M261,198.55c-4.29,9.55-14.94,28.57-35.1,38.3-33,2.44-48.09-25.06-49.91-28.65l81.32-14.36A3.39,3.39,0,0,1,261,198.55Z"/>
        <path class="cls-5" d="M181.89,207.37s41.94-6.81,60.83,2.57c4.31,2.23-6.71,16.8-20.54,17.24S187.08,221.8,181.89,207.37Z"/>
        <path class="cls-6" d="M209.69,218.84s2.09-5.05,4.32-5.5,23.2,0,23.5,1.5S235.27,223,223.67,223,209.69,218.84,209.69,218.84Z"/>
        <path class="cls-7" d="M211.48,212.3s-9.81-2.68-12.79-2.09-5.95,1.18-6.54,2.08,11.15,5.51,14.42,6.4S211.48,212.3,211.48,212.3Z"/>
      </g>
      <g>
        <path class="cls-8" d="M319.54,243c.21,22.29-11.43,26.3-20.07,28.31A25.77,25.77,0,0,1,285.12,270a24.65,24.65,0,0,0,11,.29c8.64-2,20.27-6,20.07-28.3-1.89-15.87-15.58-27.84-24.05-34.91-6.74-5.44-7.44-13.21-6.73-15.33l.13-.64,3.62-.39-.44,2.07c-.71,2.12,0,9.89,6.73,15.33C304,215.17,317.65,227.13,319.54,243Z"/>
        <path class="cls-9" d="M316.23,242c.2,22.28-11.43,26.3-20.07,28.3a24.65,24.65,0,0,1-11-.29c-.67-.25-1.33-.54-2-.85a24.06,24.06,0,0,0,10,.05c8.65-2,20.28-6,20.08-28.3C311.29,225,297.61,213,289.13,206c-6.05-4.88-7.23-11.65-6.89-14.51l3.34-.37-.13.64c-.71,2.12,0,9.89,6.73,15.33C300.65,214.13,314.34,226.1,316.23,242Z"/>
        <path class="cls-10" d="M313.19,240.88c.2,22.28-11.43,26.3-20.08,28.3a24.06,24.06,0,0,1-10-.05,23.13,23.13,0,0,1-12.84-16.59c-3.79-17.61,5.94-34,10.57-43.37,3.92-12.93-2.6-17.28-2.6-17.28l4-.43c-.34,2.86.84,9.63,6.89,14.51C297.61,213,311.29,225,313.19,240.88Z"/>
        <g>
          <path class="cls-11" d="M283.91,208.85s-15.83,25.48-10.78,40.86,12.11,16.8,21.07,15,10.07-16.14,7-24.56S286.41,210.05,283.91,208.85Z"/>
          <path class="cls-12" d="M279.56,221s-15.13,29,3,40.66c1.9,1,2.88-2.56,2.82-2.83S281.24,225.21,279.56,221Z"/>
        </g>
      </g>
      <g>
        <path class="cls-13" d="M75.7,37.88S43.14,19.66,19.09,29.32L14.44,39s22.08-12.48,58.32-.22Z"/>
        <path class="cls-14" d="M75.7,37.88S43.14,19.66,19.09,29.32L14.44,39s22.08-12.48,58.32-.22Z"/>
        <path class="cls-15" d="M14.44,39S36.1,25.89,72.76,38.8l1.33-.42S35.87,22.91,15.33,37.19Z"/>
        <path class="cls-16" d="M19.09,29.32S38,22.17,63.63,32.43c0,0-23-7.82-44.69-2.66Z"/>
        <path class="cls-17" d="M117.7,116.67C47,50,68,35.49,68,35.49c-3.86-12,17.29-31.14,72.66-14.76,42.42,12.55,49.13,34.33,81.63,89.8,36.54,62.37,65.78,80.09,71,81.46-32.17-6.76-122.75-25.55-175.53-75.32"/>
        <path class="cls-18" d="M117.7,116.67C47,50,68,35.49,68,35.49c-3.86-12,17.29-31.14,72.66-14.76,42.42,12.55,49.13,34.33,81.63,89.8,36.54,62.37,65.78,80.09,71,81.46C261.06,185.23,170.48,166.44,117.7,116.67Z"/>
        <path class="cls-13" d="M20.93,70.94C25.36,50.8,49.3,34.35,68,35.49c0,0-.83,46.8,72.42,95.19,60.53,40,119.85,54.55,152,61.31.32.09.58.14.76.18-23-3.53-69.34,15.55-125.24,16-113.89.95-153.24-109-147-137.25"/>
        <path class="cls-14" d="M20.93,70.94C25.36,50.8,49.3,34.35,68,35.49c0,0-.83,46.8,72.42,95.19,60.53,40,119.85,54.55,152,61.31.32.09.58.14.76.18-23-3.53-69.34,15.55-125.24,16C54.06,209.14,14.71,99.23,20.93,70.94Z"/>
        <path class="cls-19" d="M160.12,208s-.11-.22-.42-.56-.77-.85-1.38-1.54a46.52,46.52,0,0,1-4.78-6.7,77.1,77.1,0,0,1-5.66-12c-1.86-4.89-3.65-10.63-5.45-17.28-1.29-4.73-2.61-10-4-15.16s-2.82-10.4-4.43-15.09a58.78,58.78,0,0,0-5.33-11.84,25.46,25.46,0,0,0-2.51-3.37l-.45-.49-.35-.34-.29-.28.28.29c.09.09.21.2.34.34s.28.31.45.5a24.32,24.32,0,0,1,2.41,3.37,55.75,55.75,0,0,1,5,11.72c1.5,4.65,2.82,9.8,4.09,15s2.51,10.37,3.77,15.1a169.89,169.89,0,0,0,5.43,17.4,72.84,72.84,0,0,0,5.9,12.27,40,40,0,0,0,5.21,6.85,20.87,20.87,0,0,0,1.56,1.47c.36.29.55.42.58.39"/>
        <path class="cls-19" d="M85.41,84A30.66,30.66,0,0,0,87.11,87a32.09,32.09,0,0,1,1.66,3.84,44.18,44.18,0,0,1,1.55,5.6,124.19,124.19,0,0,1,2.16,16.48c.53,6.69.89,14.59,1.63,23.93a207.85,207.85,0,0,0,2.68,21.49,99.47,99.47,0,0,0,6.31,21.49,62,62,0,0,0,4.7,8.88,51.87,51.87,0,0,0,4.92,6.57c.75.89,1.51,1.63,2.13,2.29s1.23,1.19,1.7,1.62l1.48,1.3-1.46-1.32-1.65-1.65c-.62-.68-1.35-1.43-2.08-2.32a53.63,53.63,0,0,1-4.76-6.6,62.44,62.44,0,0,1-4.47-8.85,98.73,98.73,0,0,1-5.85-21.29c-1.25-7.39-1.92-14.74-2.4-21.35-.66-9.29-1-17.19-1.55-23.91a111.23,111.23,0,0,0-2.34-16.69,41.65,41.65,0,0,0-1.78-5.75,25.67,25.67,0,0,0-2-4c-1.29-2-2.24-2.79-2.31-2.72"/>
        <path class="cls-19" d="M66.89,39.13c-.18.14.51,1,.84,3.28A51.16,51.16,0,0,1,67.82,53c-.31,4.79-1,10.9-1.71,18.43s-1.63,16.51-2,27.1a195.7,195.7,0,0,0,.56,24.23c.39,4.16.93,8.3,1.67,12.29a105.92,105.92,0,0,0,2.75,11.38,87.07,87.07,0,0,0,3.55,9.68,80.32,80.32,0,0,0,3.72,7.36c1.17,2,2.19,3.55,2.92,4.6l1.14,1.61L79.31,168c-.7-1.07-1.66-2.65-2.78-4.67a78.11,78.11,0,0,1-3.48-7.41,85.16,85.16,0,0,1-3.27-9.7,106.59,106.59,0,0,1-2.45-11.34c-.64-4-1.1-8.07-1.4-12.2a213.23,213.23,0,0,1-.19-24c.47-10.52,1.38-19.45,2.11-27S69.17,58,69.36,53.1s0-8.49-.69-10.85a8,8,0,0,0-1.08-2.51c-.37-.49-.63-.66-.7-.61"/>
        <path class="cls-19" d="M172.88,150.89a10.36,10.36,0,0,0,1.05,1.39,34.44,34.44,0,0,1,2.75,4.38c1.09,2,2.3,4.57,3.67,7.71s2.89,6.86,4.74,11.24c1.32,3.11,2.83,6.57,4.53,10a88.68,88.68,0,0,0,5.67,10,47.66,47.66,0,0,0,3.13,4.17,33.14,33.14,0,0,0,3,3.08,25.93,25.93,0,0,0,2.16,1.77l.61.42.21.14-.21-.14-.6-.44a23.61,23.61,0,0,1-2.12-1.81,32.17,32.17,0,0,1-2.85-3.09,44.75,44.75,0,0,1-3-4.14,86.44,86.44,0,0,1-5.37-9.9c-1.61-3.44-3.05-6.87-4.34-10-1.81-4.36-3.31-8.08-4.7-11.25a84.19,84.19,0,0,0-3.82-7.83c-.59-1-1.16-1.93-1.68-2.68a19.82,19.82,0,0,0-1.42-1.84c-.84-1-1.34-1.31-1.38-1.26"/>
        <path class="cls-19" d="M225.34,174.83c-.1.09,0,.35.2.77.12.2.24.49.42.8s.36.72.53,1.2a20.31,20.31,0,0,1,1.07,3.86c.31,1.65.53,3.69.8,6.1a41.51,41.51,0,0,0,.9,5.41,11.37,11.37,0,0,0,2.17,4.63,6.46,6.46,0,0,0,3.17,2.07c.24.07.45.14.64.18l.5.08.42.06-.4-.1-.48-.12-.61-.23a6.44,6.44,0,0,1-2.86-2.28,12.17,12.17,0,0,1-1.78-4.68c-.35-1.8-.51-3.7-.67-5.42-.21-2.42-.42-4.51-.75-6.21a15.25,15.25,0,0,0-1.24-3.95,7.68,7.68,0,0,0-.7-1.16,5,5,0,0,0-.62-.69c-.39-.32-.61-.42-.71-.32"/>
        <path class="cls-19" d="M84.71,81.5c-.15.22.35.84,2.05,1.22s4.63.26,8.86-.84A133.79,133.79,0,0,0,112,76.06c6.73-2.75,14.73-6.28,24-10a215.58,215.58,0,0,1,21-7.31,83.29,83.29,0,0,1,19.68-3.42A38.27,38.27,0,0,1,189.94,57a31.37,31.37,0,0,1,3.37,1.38l1.16.59-1.1-.67a33,33,0,0,0-3.24-1.59,36.23,36.23,0,0,0-13-2.34,77.47,77.47,0,0,0-19.69,2.74,187.43,187.43,0,0,0-21.1,6.94c-9.34,3.61-17.34,7.11-24,9.86a165.77,165.77,0,0,1-16.2,6,31.91,31.91,0,0,1-8.69,1.53c-1.73,0-2.49-.23-2.68,0"/>
        <path class="cls-19" d="M114.3,111.59c0,.09.24.16.7.21.22,0,.51,0,.86,0a7.24,7.24,0,0,0,1.21,0,31.69,31.69,0,0,0,8.11-1.89,97.31,97.31,0,0,0,12.75-5.78c5-2.59,10.8-5.9,17.75-9.47,2.47-1.27,5.1-2.56,7.84-3.82s5.57-2.46,8.49-3.51a77.11,77.11,0,0,1,8.84-2.66c1.46-.38,3-.62,4.39-.88.72-.15,1.46-.2,2.17-.3s1.41-.2,2.12-.22c1.41-.08,2.76-.21,4.08-.16l1.93,0c.63,0,1.24.1,1.84.15s1.17.08,1.73.15,1.11.18,1.64.25l1.5.24c.48.1.94.23,1.38.32.86.22,1.65.38,2.33.59l1.71.55,1.44.48-1.42-.53-1.7-.63c-.67-.23-1.46-.42-2.31-.67l-1.38-.37c-.48-.1-1-.2-1.51-.29l-1.64-.33c-.56-.08-1.15-.14-1.76-.21s-1.22-.15-1.86-.21l-2-.09c-1.34-.1-2.72,0-4.16,0-.73,0-1.43.12-2.16.17s-1.49.11-2.23.22c-1.48.23-3,.42-4.51.77a75.91,75.91,0,0,0-9.09,2.45c-3,1-5.91,2.16-8.72,3.35s-5.49,2.48-8,3.74c-7,3.52-12.85,6.8-17.83,9.39a122.28,122.28,0,0,1-12.44,5.88,47.4,47.4,0,0,1-7.61,2.35,11.08,11.08,0,0,1-1.11.23c-.33.06-.59.11-.8.17-.42.11-.63.21-.62.31"/>
        <path class="cls-19" d="M144.3,130.91c-.36.41-.12,1,1,1.52s3.26.76,6.75.37a93.1,93.1,0,0,0,14.58-3.32c6.24-1.8,13.88-4.34,22.54-6.93A164.59,164.59,0,0,1,208,117.86c6.1-1.09,11.46-1.18,15.26-.13a10.64,10.64,0,0,1,7,5.4c.23.55.47,1,.63,1.47s.23.9.31,1.24l.26,1.08s0-.44-.13-1.19c0-.38-.1-.84-.16-1.4s-.29-1-.45-1.64a10.44,10.44,0,0,0-6.1-6.54c-3.51-1.48-8.66-1.82-14.6-1.09a123.15,123.15,0,0,0-18.62,4c-8.61,2.42-16.2,4.88-22.39,6.69a146.61,146.61,0,0,1-14.63,3.73c-7.17,1.33-9.28.47-10.13,1.44"/>
        <path class="cls-19" d="M224.16,173.24c0,.18.27.38,1,.61a11.74,11.74,0,0,0,3.51.3,18.78,18.78,0,0,0,2.66-.31,32.11,32.11,0,0,0,3.17-.77c2.28-.64,4.85-1.56,7.91-2.44a52.78,52.78,0,0,1,7.11-1.58,42.64,42.64,0,0,1,7.29-.39,51.29,51.29,0,0,1,5.64.51c.7.1,1.26.21,1.64.27l.59.11-.58-.16c-.37-.1-.92-.26-1.61-.42a45.37,45.37,0,0,0-5.64-1,40.21,40.21,0,0,0-7.56-.11,43.94,43.94,0,0,0-7.48,1.3c-3.18.83-5.77,1.73-8,2.37a33.24,33.24,0,0,1-5.4,1.19c-2.84.34-4.21.11-4.29.51"/>
        <path class="cls-19" d="M68.75,42.2c-.08.21.56.63,2.06,1.19a25.77,25.77,0,0,0,7.32,1,63.54,63.54,0,0,0,12.75-1.36c5.13-1,11.13-2.6,18.06-4.65,9.85-2.91,21.73-6.85,31.45-8.64,2.43-.48,4.72-.79,6.78-1,1-.08,2-.18,2.91-.23l2.51-.07,2,.07c.6,0,1.11.09,1.53.11l1.29.12-1.28-.19c-.41-.06-.92-.16-1.52-.2l-2.06-.17-2.52-.07c-.91,0-1.9,0-2.94.07-2.09.14-4.4.32-6.86.7-9.88,1.36-22,4.85-31.83,7.6-6.94,2-12.89,3.48-17.93,4.5a76.81,76.81,0,0,1-12.36,1.57c-6.44.17-9.22-.94-9.41-.38"/>
        <path class="cls-19" d="M173.27,152.34c-.28.33,0,.83.95,1.39a13.69,13.69,0,0,0,5.94.79,75.36,75.36,0,0,0,12.56-1.87c5.34-1.13,11.87-2.81,19.28-4.45a133.58,133.58,0,0,1,16.25-2.76c5.28-.52,10-.22,13.38,1a11.59,11.59,0,0,1,6.52,5.18c.24.5.49.92.66,1.32s.26.8.35,1.11l.31,1s-.07-.38-.2-1q-.11-.49-.24-1.23c-.13-.44-.32-.91-.51-1.46a11.41,11.41,0,0,0-5.8-6.11c-3.19-1.53-7.72-2.19-12.89-2a99.72,99.72,0,0,0-16,2.17c-7.38,1.5-13.87,3.11-19.17,4.25a116.15,116.15,0,0,1-12.57,2.22c-6.19.66-8.1-.24-8.78.55"/>
        <path class="cls-19" d="M68,35.49a42.32,42.32,0,0,0,.82,8.92A67.62,67.62,0,0,0,71,53.07,94.27,94.27,0,0,0,78,69.4,131.06,131.06,0,0,0,99.25,97.67c16.55,17,36.45,30.39,57.25,41.89,1.28.75,2.6,1.44,3.92,2.12l4,2.07,4,2.07,2,1,2,1,8.08,3.83c1.35.63,2.68,1.31,4.05,1.9l4.1,1.79,8.19,3.62c1.36.62,2.74,1.17,4.13,1.72l4.16,1.67,8.32,3.34c2.78,1.09,5.59,2.1,8.39,3.15,22.42,8.36,45.29,15.55,68.32,22.49a553.13,553.13,0,0,1-69.86-18.14c-2.85-.95-5.73-1.86-8.58-2.86l-8.47-3.16-4.24-1.59c-1.42-.52-2.83-1.05-4.22-1.64l-8.37-3.47-4.18-1.74c-1.39-.6-2.75-1.27-4.12-1.89L169.81,153l-2.06-1-2-1-4-2.07-4-2.07c-1.34-.69-2.7-1.37-4-2.14l-7.88-4.53-2-1.13-1.92-1.22L138,135.42c-2.56-1.61-5.14-3.21-7.6-5s-5-3.42-7.44-5.26l-7.19-5.6c-2.34-1.93-4.62-3.95-6.94-5.92-1.17-1-2.25-2-3.36-3.09l-3.3-3.15c-1.11-1-2.15-2.15-3.19-3.27L95.9,100.8c-1.07-1.08-2-2.28-3-3.44L90,93.86c-.95-1.19-1.84-2.43-2.76-3.64l-1.36-1.84a21.66,21.66,0,0,1-1.31-1.87c-1.67-2.56-3.4-5.06-4.87-7.74s-2.92-5.35-4.28-8.07a91.07,91.07,0,0,1-6-17.2,54,54,0,0,1-1.4-18"/>
        <path class="cls-20" d="M67.79,32s70.4-36.25,120.77,28.45c11.1,14.26,17.88,42.15,28.85,56.5,53.9,70.54,49.51,54.4,68.46,71,0,0-26.74-19.19-55.1-65.29,0,0-24.87-42.71-29.46-49.56C186.51,51,182.52,32.8,139.93,19.74c0,0-61.46-18.48-72.14,12.3"/>
        <path class="cls-15" d="M54.68,38.19S16.36,61.85,39.55,119c0,0,51.85,96.12,141.56,84.23,0,0,85.25-14.57,97.69-11.88,0,0-19.34,1.93-51.73,10.51,0,0-69.5,14.12-104.86-.43,0,0-60.73-9.19-93.67-87.87,0,0-29.64-54.51,26.14-75.35"/>
      </g>
      <g>
        <path class="cls-21" d="M170.42,101.64c-2,10-8.45,26.06-43.38,30.59-21.05,2.74-34-3.79-40.95-9.4a16.93,16.93,0,0,1-6.2-11.42c5.48,6.57,21.33,20.19,54.6,12.33,28.2-8,31.21-14.85,34.42-29.26A11,11,0,0,1,170.42,101.64Z"/>
        <path class="cls-22" d="M136.28,73.69c-14.66-.75-52-.76-56.35,33.93a16.58,16.58,0,0,0,0,3.79c5.48,6.57,21.33,20.19,54.6,12.33,28.2-8,31.21-14.85,34.42-29.26h0C163.92,85,148.65,74.32,136.28,73.69Zm25.05,26c-12.85,15.34-53.82,15.48-53.82,15.48-7.66,2-18.28-2.94-20.54-7.84S83.78,85.6,106.86,78.83A70.72,70.72,0,0,1,151.4,80C155,81.33,164,92.56,161.33,99.71Z"/>
        <path class="cls-11" d="M151.4,80a70.72,70.72,0,0,0-44.54-1.18C83.78,85.6,84.72,102.45,87,107.35s12.88,9.79,20.54,7.84c0,0,41-.14,53.82-15.48C164,92.56,155,81.33,151.4,80ZM125.77,93c-5.92,3.07-25.83,6.46-30.23,4.12s-.62-11.24,8.16-14.93,25.94-7.38,32.79-2C136.49,80.23,131.7,89.94,125.77,93Zm15-1.14c-6.64,1.13-10.22-.2-9.09-1.93s6.63-9.51,6.63-9.51c4.59.51,9.91,2.95,9.6,5.71S147.43,90.74,140.79,91.87Z"/>
        <path class="cls-23" d="M136.49,80.23S131.7,89.94,125.77,93s-25.83,6.46-30.23,4.12-.62-11.24,8.16-14.93S129.64,74.82,136.49,80.23Z"/>
        <path class="cls-24" d="M147.93,86.14c-.3,2.76-.5,4.6-7.14,5.73s-10.22-.2-9.09-1.93,6.63-9.51,6.63-9.51C142.92,80.94,148.24,83.38,147.93,86.14Z"/>
      </g>
    </g>
  </g>
</svg>
