<svg xmlns="http://www.w3.org/2000/svg" width="326.31" height="302.3" viewBox="0 0 326.31 302.3">
  <defs>
    <style>
      .cls-1 {
        isolation: isolate;
      }

      .cls-11, .cls-13, .cls-14, .cls-2, .cls-7 {
        opacity: 0.5;
      }

      .cls-3 {
        fill: #ffef5f;
      }

      .cls-4 {
        fill: none;
        stroke: #fffa4d;
        stroke-linejoin: round;
        stroke-width: 9px;
      }

      .cls-11, .cls-5, .cls-6 {
        fill: #819923;
      }

      .cls-5 {
        stroke: #4d5b10;
        stroke-width: 0.75px;
      }

      .cls-12, .cls-5 {
        stroke-miterlimit: 10;
      }

      .cls-10, .cls-11, .cls-13, .cls-6 {
        mix-blend-mode: multiply;
      }

      .cls-6 {
        opacity: 0.3;
      }

      .cls-7, .cls-8 {
        fill: #d2e877;
      }

      .cls-8 {
        opacity: 0.2;
      }

      .cls-10, .cls-9 {
        fill: #f1d197;
      }

      .cls-12 {
        fill: #a4d84e;
        stroke: #6c9321;
        stroke-width: 0.5px;
      }

      .cls-13 {
        fill: #95bf43;
      }

      .cls-14 {
        fill: #cef484;
      }
    </style>
  </defs>
  <g class="cls-1">
    <g id="Layer_1" data-name="Layer 1">
      <g>
        <g class="cls-2">
          <path d="M264.1,296.26a15.6,15.6,0,0,1-2.09-.14,17.1,17.1,0,0,1-5.14-1.56l-.18-.09c-.29-.14-.58-.29-.86-.45l-.43-.25-.66-.4-.65-.44-.42-.29c-.38-.28-.73-.55-1.07-.83a41,41,0,0,1-5.34-5.57l-1-1.15c-1.4-1.63-2.91-3.23-4.62-4.89-1.54-1.5-3.22-3-5.11-4.64-3.56-3.06-7.41-6-11.13-8.92l-.1-.07c-1.16-.9-2.3-1.79-3.43-2.81a22.38,22.38,0,0,1-5.22-6.64l-.11-.22c-.11-.22-.22-.43-.31-.65s-.16-.39-.23-.6-.19-.62-.28-.93l-.44-.2c-.19-.09-.44-.21-.68-.35s-.7-.38-1-.58-.55-.36-.83-.56l-.51-.39a21.22,21.22,0,0,1-3.07-2.95c-.87-1-1.64-2.05-2.32-3l-.24-.33c-.8-1.07-1.65-2.15-2.56-3.25l-1.23.09h-.09c-.85,0-1.71.07-2.57.07A48.2,48.2,0,0,1,188.93,242l-.33-.07-1.79-.48-.56-.16c-.54-.16-1.09-.33-1.63-.51l-.69-.23c-.52-.17-1-.35-1.5-.53l-.82-.32-1.38-.55-.9-.4q-.63-.27-1.26-.57l-.84-.4-.24-.11-1.06-.53-1-.55-.12-.06-.94-.51c-.36-.2-.71-.41-1.06-.62l-.33-.19-.67-.4c-.45-.27-.88-.56-1.32-.84l-.69-.44c-.66-.44-1.32-.89-2-1.35-3.72-2.67-7.11-5.63-10.39-8.49-1.43-1.25-2.85-2.49-4.31-3.71-1.29-1.08-2.28-1.88-3.22-2.61-.62-.47-1.25-.94-1.89-1.39a44.45,44.45,0,0,0-3.84-2.46c-.65-.38-1.3-.72-1.94-1a19.74,19.74,0,0,0-3.6-1.13l-1.13-.3a26.9,26.9,0,0,1-4.71-1.64c-.16-.08-.38-.19-.55-.29a8.14,8.14,0,0,1-4.63-8c.54-6,7.09-8,9.55-8.81a40.47,40.47,0,0,1,11.25-1.45l.88,0c-9.44-10.13-19.38-19.91-29.62-29.14-3.41-3.08-6.94-6.18-10.36-9.17l-2.28-2-3.36-1.16c-3.41-1.17-6.93-2.38-10.38-3.72A140.61,140.61,0,0,1,65,130.72c-1.74-1.19-3.49-2.45-5.19-3.73-3.4-2.56-6.72-5.3-9.86-8.16-.58-.52-1.15-1-1.72-1.58L48,117c-1.07-1-2.14-2-3.21-3-5.06-4.82-9.83-9.37-15.15-12.48l0,0c-.5-.28-1-.56-1.51-.82h0c-.5-.26-1-.51-1.53-.74l-.1,0c-.45-.21-1-.42-1.52-.63l-.11,0c-.36-.14-.72-.28-1.09-.4a7,7,0,0,1-.94-12.93,18.9,18.9,0,0,1,8.58-1.66l1.62,0h1.79l2,0c1.71,0,3.42,0,5.14.14a13.49,13.49,0,0,1-4.55-8.26s0-.11,0-.17c-.27-3.12.76-6.23,3.16-9.5a39.4,39.4,0,0,1,3.06-3.6l.07-.08c1.24-1.33,2.53-2.64,3.85-3.92A53.19,53.19,0,0,1,40,52.05c-.08-.08-.14-.16-.21-.24a11.11,11.11,0,0,1-1-1.42c-.1-.16-.23-.38-.35-.6s-.25-.5-.36-.75a10.21,10.21,0,0,1-.47-1.23l0-.1q-.09-.3-.15-.6l0,0A11.21,11.21,0,0,1,38.16,40l0-.09h0c.17-.36.35-.73.55-1.09l0,0a20.1,20.1,0,0,1,3.05-4s.43-.45.6-.61l.91-.88,1.24-1.14c2.22-2,4.81-4.38,7.51-6.62l0,0h0c.77-.63,1.53-1.26,2.32-1.86,1-.82,2-1.53,2.89-2.16l.6-.41c.31-.21.66-.42,1-.63s.52-.29.78-.42a12.48,12.48,0,0,1,1.77-.75,11.09,11.09,0,0,1,3.53-.6c.27,0,.54,0,.81,0a11.15,11.15,0,0,1,1.52.23,10.81,10.81,0,0,1,1.75.57,11.9,11.9,0,0,1,2.29,1.23A18.1,18.1,0,0,1,73,21.93s.58.51.65.56A87.79,87.79,0,0,1,86,12.26c.4-.27.81-.53,1.21-.78.23-.14.46-.28.7-.41l.46-.24c.31-.16.62-.3.94-.43s.4-.17.57-.23a12.61,12.61,0,0,1,1.82-.52,11.84,11.84,0,0,1,2.2-.2h.37l.36,0a12.34,12.34,0,0,1,2.06.3,13.55,13.55,0,0,1,1.52.44,15.06,15.06,0,0,1,1.66.71,24.21,24.21,0,0,1,4.68,3.23c6,5.1,11.69,10.46,16.45,15,1.78,1.7,3.54,3.41,5.31,5.12s3.6,3.49,5.41,5.22c4.23,4.06,7.49,7.1,10.57,9.85,1.84,1.65,3.66,3.23,5.39,4.69a21.89,21.89,0,0,1,2.08,2,13.05,13.05,0,0,1,1.3,1.65,11.54,11.54,0,0,1,1.16,2.3l.07.19c0,.14.09.27.13.41l.4.25a39.71,39.71,0,0,1,7.41,6.63c1.65,1.78,3.26,3.49,4.87,5.18,3.66,3.85,7.88,8.18,12.55,12.64-.13-.52-.26-1-.38-1.57,0,0-.19-.84-.26-1.13-.67-3-1.23-6-1.67-9,0-.3-.18-1.28-.18-1.28-.15-1.14-.29-2.27-.41-3.4,0,0-.11-1-.14-1.32-.17-1.7-.29-3.19-.37-4.57-.17-2.87-.23-5.52-.19-8.11,0-1.39.08-2.77.17-4.12s.21-2.79.37-4.15l.12-1c.25-2.11.53-4.38.93-6.68v-.08c.13-.71.26-1.42.41-2.12l.05-.24c.13-.62.29-1.26.45-1.9l.1-.41c.16-.63.35-1.23.53-1.83.06-.19.11-.36.17-.53.27-.81.56-1.59.86-2.32a7,7,0,0,1,4.18-3.91,7.11,7.11,0,0,1,2.27-.38,6.92,6.92,0,0,1,3.43.9c3.68,2.06,6.35,5.93,8.7,9.81.45.75.89,1.5,1.31,2.22l.28.47c.43.74.83,1.42,1.2,2a146,146,0,0,1,19,43.19c.3,1.18.58,2.36.85,3.55.54,2.39,1,4.81,1.41,7.2.59,3.53,1,7.08,1.47,10.51.39,3.12.76,6.07,1.24,9,.35,2.21.73,4.17,1.14,6,.38,1.67.84,3.42,1.39,5.2.06.16.12.32.17.48.64,2,1.41,4.16,2.38,6.48.25.6.48,1.15.72,1.7.36.8.73,1.6,1.12,2.39.29.6.59,1.19.9,1.78.2.39.41.78.62,1.17.43.78.89,1.59,1.37,2.4.75.71,1.51,1.41,2.27,2.11,1.07,1,2.15,2,3.23,2.93,1.72,1.54,3.46,3.06,5.21,4.58l.81.7c3.3,2.84,6.71,5.71,10,8.49l4.8,4.06a19.23,19.23,0,0,1,1.47,1.36,10.83,10.83,0,0,1,2,2.84,10.18,10.18,0,0,1,.85,2.81c0,.24.07.48.09.73a34.47,34.47,0,0,1,3.15,3.08c14.14,15.35,29.17,30.21,44.66,44.18a26.68,26.68,0,0,1,2.2,2.15c.12.15.24.29.35.44s.49.62.72.94.25.37.35.54a11.36,11.36,0,0,1,1,2,11.69,11.69,0,0,1,.66,2.3c0,.21.07.39.09.57a12,12,0,0,1,.11,2.09c0,.12,0,.32,0,.46a13.18,13.18,0,0,1-.17,1.39,5.86,5.86,0,0,1-.1.58l-.06.26c-.1.43-.25,1-.42,1.49l-.15.4c-.17.48-.34.89-.53,1.3a26.65,26.65,0,0,1-2.54,4.36c-.26.37-.53.76-.81,1.13a33.85,33.85,0,0,1-5.35,6c3.95,3.67,7.75,7.06,10.95,9.87l1.2,1.06c.21.18.43.38.64.58a12.27,12.27,0,0,1,1.88,2.15,10.22,10.22,0,0,1,1,1.77,11.25,11.25,0,0,1,.5,6.82c-.1.47-.22.93-.36,1.39-.21.74-.48,1.48-.84,2.41-.08.25-.17.49-.27.73s-.15.35-.23.52c-.39.89-.79,1.73-1.22,2.53,0,.06-.08.15-.13.22-.49.89-.93,1.63-1.38,2.32a33.77,33.77,0,0,1-4,5l-.28.27a32.66,32.66,0,0,1-7.41,5.54c-.81.44-1.64.84-2.45,1.18a22.92,22.92,0,0,1-2.82,1,17.81,17.81,0,0,1-4.57.62h-.32a15.24,15.24,0,0,1-1.77-.14,14.46,14.46,0,0,1-2.39-.52l-.41-.12a16.19,16.19,0,0,1-1.79-.7c-.23-.1-.51-.23-.78-.37a28.11,28.11,0,0,1-7.72-6.3,60.61,60.61,0,0,1-4.46,4.27c-2.23,2-6.89,6.05-13.06,6.32Z"/>
        </g>
        <g>
          <path class="cls-3" d="M252.29,293.59a15.43,15.43,0,0,1-2.08-.15,17,17,0,0,1-5.14-1.55l-.15-.07-.88-.46-.45-.26-.65-.4c-.23-.14-.43-.28-.63-.42l3.86-5.84-4,5.77-.36-.25c-.37-.27-.72-.54-1.06-.82a41.67,41.67,0,0,1-5.34-5.57l-1-1.15c-1.4-1.63-2.91-3.23-4.61-4.89-1.55-1.51-3.22-3-5.11-4.64-3.55-3-7.37-6-11.07-8.87l-.16-.13c-1.16-.89-2.3-1.78-3.44-2.81a22.29,22.29,0,0,1-5.22-6.64l-.12-.25c-.12-.22-.22-.44-.32-.66s-.14-.36-.2-.55-.2-.62-.29-.93l-.42-.19-.69-.36c-.39-.21-.7-.38-1-.57s-.57-.37-.85-.57l-.52-.39a21.83,21.83,0,0,1-3.07-3c-.87-1-1.64-2-2.31-2.95l-.25-.33c-.8-1.08-1.65-2.16-2.56-3.26q-.59.06-1.23.09H191c-.85.05-1.71.07-2.57.07a48.73,48.73,0,0,1-11.26-1.36l-.26-.06c-.65-.16-1.26-.32-1.86-.49l-.56-.16c-.54-.16-1.09-.33-1.63-.51l-.72-.24c-.48-.16-1-.34-1.47-.53l-.81-.31-1.37-.55-.92-.4-1.25-.56-1-.46c-.41-.2-.8-.39-1.18-.59s-.71-.37-1.06-.56l-.09-.05-.94-.52-1.13-.65-.27-.16-.65-.39-1.33-.84-.69-.44c-.66-.44-1.31-.89-2-1.35-3.73-2.68-7.12-5.63-10.4-8.49-1.42-1.25-2.85-2.5-4.3-3.71-1.29-1.08-2.29-1.89-3.23-2.61-.62-.47-1.25-.94-1.89-1.39a44,44,0,0,0-3.84-2.47c-.64-.37-1.29-.71-1.94-1a20.64,20.64,0,0,0-3.59-1.14l-1.14-.29a26.71,26.71,0,0,1-4.71-1.65,5.2,5.2,0,0,1-.52-.27h0a8.16,8.16,0,0,1-4.63-8c.54-6,7.09-8,9.55-8.81a40.52,40.52,0,0,1,11.25-1.45l.88,0C128,178,118.09,168.22,107.86,159c-3.4-3.07-6.91-6.15-10.31-9.13l-2.34-2.05-3.36-1.16c-3.4-1.17-6.93-2.39-10.38-3.72A139.8,139.8,0,0,1,53.24,128c-1.76-1.2-3.51-2.45-5.2-3.72-3.41-2.57-6.72-5.31-9.86-8.16-.58-.52-1.15-1-1.73-1.59l-.25-.24c-1.07-1-2.14-2-3.21-3-5-4.8-9.79-9.33-15.09-12.43l-.07,0c-.5-.3-1-.58-1.54-.85l0,0c-.5-.25-1-.5-1.53-.73l-.1,0c-.45-.2-1-.42-1.5-.62l-.13,0c-.36-.14-.72-.28-1.09-.4A7,7,0,0,1,11,83.17a19,19,0,0,1,8.58-1.65l1.63,0h.38l1,0H23l2.05,0c1.7,0,3.41,0,5.13.14a13.51,13.51,0,0,1-4.54-8.25,1.1,1.1,0,0,1,0-.18c-.27-3.12.77-6.23,3.16-9.5a38.28,38.28,0,0,1,3.07-3.61q1.92-2.06,3.91-4a54.54,54.54,0,0,1-7.54-6.77L28,49.09a11,11,0,0,1-1-1.38l-.35-.59c-.14-.28-.25-.52-.36-.75a10.17,10.17,0,0,1-.47-1.25l0-.06a5.83,5.83,0,0,1-.16-.63v0a11.08,11.08,0,0,1,.78-7.06l0-.09c.17-.38.35-.73.55-1.09a.43.43,0,0,0,0-.07,20.08,20.08,0,0,1,3.06-4l.59-.6.58-.57,1.57-1.46c2.23-2,4.84-4.4,7.55-6.64l.05,0c.75-.61,1.5-1.22,2.27-1.82,1-.81,2-1.52,2.9-2.16l.59-.4c.32-.21.66-.43,1-.63s.51-.29.77-.42a13.09,13.09,0,0,1,1.77-.76A11.17,11.17,0,0,1,53.23,16L54,16a10.91,10.91,0,0,1,3.25.79,13.3,13.3,0,0,1,2.31,1.25,17.2,17.2,0,0,1,1.59,1.21l.65.56A87.07,87.07,0,0,1,74.21,9.59c.39-.28.8-.54,1.21-.79l.69-.4.5-.27q.47-.23.93-.42l.54-.21A11.61,11.61,0,0,1,79.9,7a12,12,0,0,1,2.21-.21h.36l.4,0a12.69,12.69,0,0,1,2,.29,13.25,13.25,0,0,1,1.55.45,16.89,16.89,0,0,1,1.66.71,23.67,23.67,0,0,1,4.67,3.23c6,5.09,11.69,10.45,16.45,15q2.67,2.55,5.31,5.12t5.41,5.21c4.22,4.05,7.48,7.09,10.57,9.86,1.87,1.68,3.64,3.21,5.39,4.69A22.7,22.7,0,0,1,138,53.33,13.07,13.07,0,0,1,139.26,55a11.62,11.62,0,0,1,1.16,2.31l.08.21.12.38.41.26a40,40,0,0,1,7.4,6.63c1.66,1.78,3.26,3.48,4.87,5.18,3.66,3.84,7.88,8.18,12.55,12.63-.13-.52-.25-1-.38-1.56l-.26-1.13c-.66-3-1.23-6-1.67-9l-.17-1.28c-.16-1.14-.3-2.27-.42-3.4,0,0-.11-1-.14-1.33-.16-1.7-.28-3.19-.37-4.56-.17-2.87-.23-5.52-.18-8.11,0-1.39.07-2.78.16-4.12s.21-2.8.37-4.15l.12-1c.25-2.13.54-4.4.93-6.68l0-.08c.12-.71.26-1.42.4-2.12l.05-.24c.13-.62.29-1.27.45-1.9l.1-.41c.17-.64.35-1.24.54-1.83,0-.19.1-.37.16-.54.27-.81.56-1.59.86-2.31a7,7,0,0,1,4.18-3.91,6.86,6.86,0,0,1,2.28-.38,7,7,0,0,1,3.43.9c3.67,2.06,6.35,5.93,8.69,9.81l1.31,2.2.28.49c.43.73.84,1.41,1.21,2a146.06,146.06,0,0,1,19,43.18c.3,1.19.59,2.37.85,3.56.54,2.38,1,4.8,1.41,7.19.6,3.54,1,7.08,1.47,10.51.4,3.12.77,6.07,1.24,9,.36,2.22.73,4.18,1.14,6,.38,1.66.84,3.41,1.39,5.2.06.15.12.31.17.48.64,2,1.42,4.16,2.38,6.48.26.62.48,1.16.72,1.69.36.81.73,1.61,1.12,2.39.29.6.6,1.19.9,1.79l.62,1.16c.43.78.89,1.59,1.37,2.41l2.27,2.11c1.08,1,2.15,2,3.24,2.93,1.71,1.54,3.45,3.06,5.2,4.57l.81.71c3.32,2.85,6.73,5.73,10,8.51l4.78,4a17.12,17.12,0,0,1,1.45,1.35,10.64,10.64,0,0,1,2,2.84,10.2,10.2,0,0,1,.86,2.83c0,.23.06.47.08.72a34.48,34.48,0,0,1,3.15,3.07c14.14,15.35,29.17,30.22,44.67,44.19a28.45,28.45,0,0,1,2.19,2.15l.36.44c.26.32.49.62.71.94s.25.37.35.53a11.73,11.73,0,0,1,1.7,4.32c0,.2.07.38.09.55a12.27,12.27,0,0,1,.12,2.11c0,.12,0,.32,0,.45,0,.47-.09.93-.16,1.39l-.09.52s-.05.23-.08.34c-.11.47-.25,1-.42,1.48l-.14.4c-.18.48-.35.89-.53,1.3a28.17,28.17,0,0,1-2.54,4.36l-.82,1.13a34.2,34.2,0,0,1-5.35,6c3.95,3.67,7.76,7.05,10.95,9.87l1.21,1.07.62.55a12.27,12.27,0,0,1,1.89,2.17,10.22,10.22,0,0,1,1,1.77,11.17,11.17,0,0,1,.5,6.82c-.1.47-.22.93-.35,1.38-.22.74-.49,1.52-.85,2.43-.08.24-.17.47-.26.71s-.16.36-.24.52c-.39.91-.79,1.74-1.22,2.53,0,.07-.08.15-.12.23-.49.88-.93,1.62-1.39,2.31a33.7,33.7,0,0,1-4,5l-.29.28a33.17,33.17,0,0,1-4.64,3.84,30.12,30.12,0,0,1-2.77,1.69c-.83.45-1.66.85-2.46,1.19a21.9,21.9,0,0,1-2.79.95,17.61,17.61,0,0,1-4.59.63h-.31a15.22,15.22,0,0,1-1.78-.13,14.52,14.52,0,0,1-2.31-.5l-.48-.14a15.77,15.77,0,0,1-1.79-.7c-.24-.11-.53-.24-.81-.39a28.25,28.25,0,0,1-7.7-6.28,60.61,60.61,0,0,1-4.46,4.27c-2.23,2-6.88,6.05-13.06,6.32Z"/>
          <path class="cls-4" d="M252.29,293.59a15.43,15.43,0,0,1-2.08-.15,17,17,0,0,1-5.14-1.55l-.15-.07-.88-.46-.45-.26-.65-.4c-.23-.14-.43-.28-.63-.42l3.86-5.84-4,5.77-.36-.25c-.37-.27-.72-.54-1.06-.82a41.67,41.67,0,0,1-5.34-5.57l-1-1.15c-1.4-1.63-2.91-3.23-4.61-4.89-1.55-1.51-3.22-3-5.11-4.64-3.55-3-7.37-6-11.07-8.87l-.16-.13c-1.16-.89-2.3-1.78-3.44-2.81a22.29,22.29,0,0,1-5.22-6.64l-.12-.25c-.12-.22-.22-.44-.32-.66s-.14-.36-.2-.55-.2-.62-.29-.93l-.42-.19-.69-.36c-.39-.21-.7-.38-1-.57s-.57-.37-.85-.57l-.52-.39a21.83,21.83,0,0,1-3.07-3c-.87-1-1.64-2-2.31-2.95l-.25-.33c-.8-1.08-1.65-2.16-2.56-3.26q-.59.06-1.23.09H191c-.85.05-1.71.07-2.57.07a48.73,48.73,0,0,1-11.26-1.36l-.26-.06c-.65-.16-1.26-.32-1.86-.49l-.56-.16c-.54-.16-1.09-.33-1.63-.51l-.72-.24c-.48-.16-1-.34-1.47-.53l-.81-.31-1.37-.55-.92-.4-1.25-.56-1-.46c-.41-.2-.8-.39-1.18-.59s-.71-.37-1.06-.56l-.09-.05-.94-.52-1.13-.65-.27-.16-.65-.39-1.33-.84-.69-.44c-.66-.44-1.31-.89-2-1.35-3.73-2.68-7.12-5.63-10.4-8.49-1.42-1.25-2.85-2.5-4.3-3.71-1.29-1.08-2.29-1.89-3.23-2.61-.62-.47-1.25-.94-1.89-1.39a44,44,0,0,0-3.84-2.47c-.64-.37-1.29-.71-1.94-1a20.64,20.64,0,0,0-3.59-1.14l-1.14-.29a26.71,26.71,0,0,1-4.71-1.65,5.2,5.2,0,0,1-.52-.27h0a8.16,8.16,0,0,1-4.63-8c.54-6,7.09-8,9.55-8.81a40.52,40.52,0,0,1,11.25-1.45l.88,0C128,178,118.09,168.22,107.86,159c-3.4-3.07-6.91-6.15-10.31-9.13l-2.34-2.05-3.36-1.16c-3.4-1.17-6.93-2.39-10.38-3.72A139.8,139.8,0,0,1,53.24,128c-1.76-1.2-3.51-2.45-5.2-3.72-3.41-2.57-6.72-5.31-9.86-8.16-.58-.52-1.15-1-1.73-1.59l-.25-.24c-1.07-1-2.14-2-3.21-3-5-4.8-9.79-9.33-15.09-12.43l-.07,0c-.5-.3-1-.58-1.54-.85l0,0c-.5-.25-1-.5-1.53-.73l-.1,0c-.45-.2-1-.42-1.5-.62l-.13,0c-.36-.14-.72-.28-1.09-.4A7,7,0,0,1,11,83.17a19,19,0,0,1,8.58-1.65l1.63,0h.38l1,0H23l2.05,0c1.7,0,3.41,0,5.13.14a13.51,13.51,0,0,1-4.54-8.25,1.1,1.1,0,0,1,0-.18c-.27-3.12.77-6.23,3.16-9.5a38.28,38.28,0,0,1,3.07-3.61q1.92-2.06,3.91-4a54.54,54.54,0,0,1-7.54-6.77L28,49.09a11,11,0,0,1-1-1.38l-.35-.59c-.14-.28-.25-.52-.36-.75a10.17,10.17,0,0,1-.47-1.25l0-.06a5.83,5.83,0,0,1-.16-.63v0a11.08,11.08,0,0,1,.78-7.06l0-.09c.17-.38.35-.73.55-1.09a.43.43,0,0,0,0-.07,20.08,20.08,0,0,1,3.06-4l.59-.6.58-.57,1.57-1.46c2.23-2,4.84-4.4,7.55-6.64l.05,0c.75-.61,1.5-1.22,2.27-1.82,1-.81,2-1.52,2.9-2.16l.59-.4c.32-.21.66-.43,1-.63s.51-.29.77-.42a13.09,13.09,0,0,1,1.77-.76A11.17,11.17,0,0,1,53.23,16L54,16a10.91,10.91,0,0,1,3.25.79,13.3,13.3,0,0,1,2.31,1.25,17.2,17.2,0,0,1,1.59,1.21l.65.56A87.07,87.07,0,0,1,74.21,9.59c.39-.28.8-.54,1.21-.79l.69-.4.5-.27q.47-.23.93-.42l.54-.21A11.61,11.61,0,0,1,79.9,7a12,12,0,0,1,2.21-.21h.36l.4,0a12.69,12.69,0,0,1,2,.29,13.25,13.25,0,0,1,1.55.45,16.89,16.89,0,0,1,1.66.71,23.67,23.67,0,0,1,4.67,3.23c6,5.09,11.69,10.45,16.45,15q2.67,2.55,5.31,5.12t5.41,5.21c4.22,4.05,7.48,7.09,10.57,9.86,1.87,1.68,3.64,3.21,5.39,4.69A22.7,22.7,0,0,1,138,53.33,13.07,13.07,0,0,1,139.26,55a11.62,11.62,0,0,1,1.16,2.31l.08.21.12.38.41.26a40,40,0,0,1,7.4,6.63c1.66,1.78,3.26,3.48,4.87,5.18,3.66,3.84,7.88,8.18,12.55,12.63-.13-.52-.25-1-.38-1.56l-.26-1.13c-.66-3-1.23-6-1.67-9l-.17-1.28c-.16-1.14-.3-2.27-.42-3.4,0,0-.11-1-.14-1.33-.16-1.7-.28-3.19-.37-4.56-.17-2.87-.23-5.52-.18-8.11,0-1.39.07-2.78.16-4.12s.21-2.8.37-4.15l.12-1c.25-2.13.54-4.4.93-6.68l0-.08c.12-.71.26-1.42.4-2.12l.05-.24c.13-.62.29-1.27.45-1.9l.1-.41c.17-.64.35-1.24.54-1.83,0-.19.1-.37.16-.54.27-.81.56-1.59.86-2.31a7,7,0,0,1,4.18-3.91,6.86,6.86,0,0,1,2.28-.38,7,7,0,0,1,3.43.9c3.67,2.06,6.35,5.93,8.69,9.81l1.31,2.2.28.49c.43.73.84,1.41,1.21,2a146.06,146.06,0,0,1,19,43.18c.3,1.19.59,2.37.85,3.56.54,2.38,1,4.8,1.41,7.19.6,3.54,1,7.08,1.47,10.51.4,3.12.77,6.07,1.24,9,.36,2.22.73,4.18,1.14,6,.38,1.66.84,3.41,1.39,5.2.06.15.12.31.17.48.64,2,1.42,4.16,2.38,6.48.26.62.48,1.16.72,1.69.36.81.73,1.61,1.12,2.39.29.6.6,1.19.9,1.79l.62,1.16c.43.78.89,1.59,1.37,2.41l2.27,2.11c1.08,1,2.15,2,3.24,2.93,1.71,1.54,3.45,3.06,5.2,4.57l.81.71c3.32,2.85,6.73,5.73,10,8.51l4.78,4a17.12,17.12,0,0,1,1.45,1.35,10.64,10.64,0,0,1,2,2.84,10.2,10.2,0,0,1,.86,2.83c0,.23.06.47.08.72a34.48,34.48,0,0,1,3.15,3.07c14.14,15.35,29.17,30.22,44.67,44.19a28.45,28.45,0,0,1,2.19,2.15l.36.44c.26.32.49.62.71.94s.25.37.35.53a11.73,11.73,0,0,1,1.7,4.32c0,.2.07.38.09.55a12.27,12.27,0,0,1,.12,2.11c0,.12,0,.32,0,.45,0,.47-.09.93-.16,1.39l-.09.52s-.05.23-.08.34c-.11.47-.25,1-.42,1.48l-.14.4c-.18.48-.35.89-.53,1.3a28.17,28.17,0,0,1-2.54,4.36l-.82,1.13a34.2,34.2,0,0,1-5.35,6c3.95,3.67,7.76,7.05,10.95,9.87l1.21,1.07.62.55a12.27,12.27,0,0,1,1.89,2.17,10.22,10.22,0,0,1,1,1.77,11.17,11.17,0,0,1,.5,6.82c-.1.47-.22.93-.35,1.38-.22.74-.49,1.52-.85,2.43-.08.24-.17.47-.26.71s-.16.36-.24.52c-.39.91-.79,1.74-1.22,2.53,0,.07-.08.15-.12.23-.49.88-.93,1.62-1.39,2.31a33.7,33.7,0,0,1-4,5l-.29.28a33.17,33.17,0,0,1-4.64,3.84,30.12,30.12,0,0,1-2.77,1.69c-.83.45-1.66.85-2.46,1.19a21.9,21.9,0,0,1-2.79.95,17.61,17.61,0,0,1-4.59.63h-.31a15.22,15.22,0,0,1-1.78-.13,14.52,14.52,0,0,1-2.31-.5l-.48-.14a15.77,15.77,0,0,1-1.79-.7c-.24-.11-.53-.24-.81-.39a28.25,28.25,0,0,1-7.7-6.28,60.61,60.61,0,0,1-4.46,4.27c-2.23,2-6.88,6.05-13.06,6.32Z"/>
        </g>
        <g>
          <g>
            <path class="cls-5" d="M84.25,92.72c1.29,1.41,2.72,2.9,4.6,3.25a8.5,8.5,0,0,0,4.87-1c6.83-3,13.55-7.63,16.26-14.6a6.52,6.52,0,0,0,.54-3.21c-.26-1.83-1.74-3.2-3.11-4.43C90.15,57.32,74.54,40.14,57.09,25a6.66,6.66,0,0,0-3.59-2,6.4,6.4,0,0,0-3.94,1.53,120.88,120.88,0,0,0-12.05,10.1c-2.63,2.4-7.27,6.43-4.22,10,3.45,4,8.55,7.19,12.53,10.68Q58.86,66.66,71.08,79,77.79,85.73,84.25,92.72Z"/>
            <path class="cls-6" d="M57.09,25a6.66,6.66,0,0,0-3.59-2,6.4,6.4,0,0,0-3.94,1.53c-1.65,1.16-3.22,2.4-4.77,3.68C61,40.08,74.86,54.79,88.17,69.82a197.17,197.17,0,0,1,13.61,16.65c.6.84,1.15,1.71,1.73,2.57A21.81,21.81,0,0,0,110,80.36a6.52,6.52,0,0,0,.54-3.21c-.26-1.83-1.74-3.2-3.11-4.43C90.15,57.32,74.54,40.14,57.09,25Z"/>
            <path class="cls-6" d="M108.44,83.41a19,19,0,0,0,1.54-3,6.52,6.52,0,0,0,.54-3.21c-.26-1.83-1.74-3.2-3.11-4.43C90.15,57.32,74.54,40.14,57.09,25a6.66,6.66,0,0,0-3.59-2,6.4,6.4,0,0,0-3.94,1.53c-.27.19-.53.41-.8.6C54.28,29.35,59.48,34,64.57,38.73s10,9.38,14.81,14.18Q92.28,65.65,104.5,79C105.83,80.47,107.13,82,108.44,83.41Z"/>
            <path class="cls-7" d="M90.9,95.91c-.25-.18-.48-.34-.63-.46-3.06-2.54-6-5.2-8.91-7.94C75.56,82,70,76.28,64.38,70.64c-3.23-3.24-6.51-6.44-9.89-9.53-7.05-6.45-14.55-12.4-22.1-18.27a4,4,0,0,0,.9,1.73c3.45,4,8.55,7.19,12.53,10.68Q58.86,66.66,71.08,79q6.7,6.77,13.17,13.76c1.29,1.41,2.72,2.9,4.6,3.25A5.44,5.44,0,0,0,90.9,95.91Z"/>
            <path class="cls-8" d="M84.24,84.48c.55.38,1.34.76,1.84.3s.15-1.36-.26-2c-6.5-9.36-14.61-17.47-22.66-25.53C57.52,51.67,51.83,46,45.23,41.52a6.68,6.68,0,0,0-3.18-1.39,2.49,2.49,0,0,0-2.68,1.77c-.52,3,5.74,6.07,7.65,7.66C50.19,52.2,53.19,55,56.1,58c5.9,5.9,11.48,12.13,17.57,17.83A97.69,97.69,0,0,0,84.24,84.48Z"/>
            <path class="cls-9" d="M35.73,40.94,53.94,24.23a11.68,11.68,0,0,0,.85-.87A4.15,4.15,0,0,0,53.5,23a6.4,6.4,0,0,0-3.94,1.53,120.88,120.88,0,0,0-12.05,10.1c-2.26,2.07-6,5.32-5.06,8.44A8.54,8.54,0,0,0,35.73,40.94Z"/>
            <path class="cls-10" d="M44.12,32l3.81-3.7a.47.47,0,0,0-.46-.45,1.3,1.3,0,0,0-.69.18c-3.73,1.79-6.74,4.77-9.66,7.7-.41.41-1.73,1.48-.81,2.06.68.43,2-.82,2.56-1.19A45.86,45.86,0,0,0,44.12,32Z"/>
            <path class="cls-11" d="M98.56,66.85a17.4,17.4,0,0,0,.29-2C86.82,53.45,75.32,41.5,63.1,30.34a5.39,5.39,0,0,0-.46,1c-.63,2.16.28,4.51,1.65,6.29A58,58,0,0,0,69,42.46a31,31,0,0,1,5.49,8.12c.92,1.86,1.65,4.27.3,5.84-1,1.14-2.67,1.31-4.16,1.11a16.16,16.16,0,0,1-5.35-1.9,44.92,44.92,0,0,0-5.65-3,13,13,0,0,0-11.28,1.3,8.84,8.84,0,0,0-2.17,1.66Q59,66.84,71,78.92a24.63,24.63,0,0,0,15.52.47C92.32,77.53,97.26,72.77,98.56,66.85Z"/>
            <path class="cls-11" d="M99.42,65.36c-11.49-10.83-22.48-22.19-34-32.92a2.92,2.92,0,0,0-1.49.76,2.7,2.7,0,0,0-.11,3.09,8.71,8.71,0,0,0,2.3,2.35,47.49,47.49,0,0,1,9,9.7,11.1,11.1,0,0,1,2.42,5.88,6.52,6.52,0,0,1-5,6.35c-3.41.73-6.73-1.4-9.46-3.57s-5.66-4.63-9.15-4.67c-2.79,0-5.34,1.51-7.58,3.18a.5.5,0,0,1,0,.12Q59.06,66.88,71.08,79c2.9,2.92,5.75,5.89,8.58,8.88,5.34.81,11.18.59,15.36-2.78a14.7,14.7,0,0,0,4.9-8.37,24.25,24.25,0,0,0-.15-9.82C99.66,66.36,99.54,65.86,99.42,65.36Z"/>
          </g>
          <g>
            <g>
              <path class="cls-12" d="M169.74,44.72a86.13,86.13,0,0,0-.31,15.15c2.27,38.22,23.78,74.64,55.71,95.76a82,82,0,0,1-19.09-36.72c-1.93-8.53-2.47-17.3-3.92-25.93a137,137,0,0,0-20.22-51.3c-2.23-3.46-5.48-10.18-9-12.18C171,34,170.32,39.84,169.74,44.72Z"/>
              <path class="cls-13" d="M206.05,118.91c-1.93-8.53-2.47-17.3-3.92-25.93a137,137,0,0,0-20.22-51.3c-2.23-3.46-5.48-10.18-9-12.18a36.7,36.7,0,0,0-2.13,7.86,249.13,249.13,0,0,1,29.64,89.12c.27,2.07.16,4.73-1.41,5.81a123.71,123.71,0,0,0,26.16,23.34A82,82,0,0,1,206.05,118.91Z"/>
              <path class="cls-13" d="M202.13,93a137,137,0,0,0-20.22-51.3c-2.23-3.46-5.48-10.18-9-12.18-.16.37-.3.77-.44,1.16,8.16,11.47,14.05,24.51,18.37,37.93,4.94,15.32,7.92,31.2,10.61,47.06,1,5.63,1.88,11.36,1.07,17a6.4,6.4,0,0,1-.85,2.67,123.36,123.36,0,0,0,23.5,20.3,82,82,0,0,1-19.09-36.72C204.12,110.38,203.58,101.61,202.13,93Z"/>
              <path class="cls-14" d="M169.74,44.72a86.13,86.13,0,0,0-.31,15.15C170.94,85.35,181,110,197,129.91c-7.23-10-12.77-21.26-17.7-32.64-1.37-3.18-2.71-6.38-3.81-9.66a109.29,109.29,0,0,1-4.77-24.86c-.59-6.33-.86-12.68-.88-19Z"/>
              <path class="cls-13" d="M202.51,136.28C181.9,94.18,173.43,34.66,173.43,34.66c-.75,2.2,6.15,55.27,25.09,97.1C199.81,133.3,201.15,134.8,202.51,136.28Z"/>
              <path class="cls-13" d="M225.14,155.63a82,82,0,0,1-17.38-30.5,4,4,0,0,1-2.18.58,5.65,5.65,0,0,1-3.44-1.87c-4.24-4.09-6.66-9.76-10.8-14-3.34-3.38-7.64-5.64-11.33-8.64-.24-.2-.47-.41-.7-.62A126.75,126.75,0,0,0,225.14,155.63Z"/>
              <path class="cls-13" d="M221,152.75c.1-.6.19-1.19.26-1.79a82,82,0,0,1-11.2-19.48,2.41,2.41,0,0,1-1.34.59c-1.31.14-2.45-.84-3.39-1.76A101.8,101.8,0,0,1,192.61,115a45.13,45.13,0,0,0-2.74-3.83c-2.51-3-5.85-5.14-9.11-7.32A127,127,0,0,0,221,152.75Z"/>
            </g>
            <g>
              <path class="cls-5" d="M234.38,199.55c7.14,5.83,14.79,11.06,21.48,17.41a173.33,173.33,0,0,1,12.65,13.88l6.17,7.29a15.35,15.35,0,0,0,4.62,4.15c3,1.5,6.76.83,9.63-.94s5-4.5,6.94-7.25c1.78-2.54,3.5-5.71,2.36-8.59a10,10,0,0,0-2.85-3.47q-23.58-21.25-45.12-44.64c-2.2-2.39-4.91-5-8.13-4.62-2,.24-3.68,1.63-5.18,3-3.14,2.87-9.11,7.16-10.17,11.58C225.61,192.23,231.12,196.89,234.38,199.55Z"/>
              <path class="cls-9" d="M295.87,234.09c1.78-2.54,3.5-5.71,2.36-8.59a7.24,7.24,0,0,0-1.59-2.26,16.21,16.21,0,0,1-2.58,8.3,22.81,22.81,0,0,1-9.07,7.84,15.49,15.49,0,0,1-5.28,1.74,16.32,16.32,0,0,1-2.43-.25,8.83,8.83,0,0,0,2,1.41c3,1.5,6.76.83,9.63-.94S293.93,236.84,295.87,234.09Z"/>
              <path class="cls-9" d="M242.13,172.77c-2,.24-3.68,1.63-5.18,3-3.14,2.87-9.11,7.16-10.17,11.58a6.73,6.73,0,0,0,.52,4.32,13.86,13.86,0,0,0,5.08-1.11,26.06,26.06,0,0,0,7.38-5.32c2.3-2.19,4.54-4.58,5.63-7.56a9.76,9.76,0,0,0,.58-4A6.21,6.21,0,0,0,242.13,172.77Z"/>
              <path class="cls-6" d="M293.83,234.68c.22.33.44.79.7,1.24.46-.61.9-1.22,1.34-1.83,1.78-2.54,3.5-5.71,2.36-8.59a10,10,0,0,0-2.85-3.47q-23.58-21.25-45.12-44.64c-2.2-2.39-4.91-5-8.13-4.62a7.24,7.24,0,0,0-3.45,1.54,11.51,11.51,0,0,1,1.72,1.47c1.91,2,3.12,4.52,4.49,6.91a76.08,76.08,0,0,0,12.89,16.2c8.83,8.75,18.89,16.17,27.47,25.17a84.61,84.61,0,0,1,6,7C292.14,232.22,293,233.43,293.83,234.68Z"/>
              <path class="cls-6" d="M250.26,177.39c-2.08-2.26-4.62-4.68-7.61-4.62a57.19,57.19,0,0,1,6.36,6.84c3,3.78,5.45,7.92,8.39,11.73a86.11,86.11,0,0,0,10.4,11c6.69,6.1,13.95,11.55,20.49,17.83a76,76,0,0,1,8.84,10c.15.22.34.54.54.9a6.91,6.91,0,0,0,.56-5.56,10,10,0,0,0-2.85-3.47Q271.8,200.78,250.26,177.39Z"/>
              <path class="cls-7" d="M269,230.18A149.32,149.32,0,0,0,237.93,201c-3.82-2.68-7.92-5.41-10.57-9.15,1.47,3.15,4.77,5.92,7,7.75,7.14,5.83,14.79,11.06,21.48,17.41a173.33,173.33,0,0,1,12.65,13.88l6.17,7.29a15.35,15.35,0,0,0,4.62,4.15,1.33,1.33,0,0,0,.21.09c-1-.91-2-1.8-2.91-2.8C273.88,236.59,271.5,233.33,269,230.18Z"/>
              <path class="cls-8" d="M274.19,231.23c.4.33.89.68,1.38.52a1,1,0,0,0,.6-1.06,3,3,0,0,0-.48-1.21,51.24,51.24,0,0,0-4.81-6.38q-5.34-6.27-11-12.3c-6.28-6.71-13-13.3-21.38-17.15a6.4,6.4,0,0,0-2.25-.69,2.46,2.46,0,0,0-2.12.84c-1.23,1.64.92,2.31,1.95,3q2.33,1.55,4.55,3.26c2.94,2.24,5.74,4.66,8.46,7.16,5.5,5.06,10.66,10.48,16,15.7C268.06,225.78,271.06,228.58,274.19,231.23Z"/>
              <path class="cls-10" d="M243.17,178.25a5.3,5.3,0,0,0,.59-4.39,3,3,0,0,0-.79-1.09,4.71,4.71,0,0,0-.84,0c-2,.24-3.68,1.63-5.18,3-3.14,2.87-9.11,7.16-10.17,11.58a6.06,6.06,0,0,0,0,2.68c3.32,1.45,8.4-2.87,10.41-4.7A26.67,26.67,0,0,0,243.17,178.25Z"/>
            </g>
            <g>
              <path class="cls-5" d="M177.43,145.48A138.66,138.66,0,0,0,189,154.71a153.28,153.28,0,0,1,27.14,26.85c2.05,2.61,4.18,5.42,7.27,6.62,3.78,1.47,8.13.15,11.54-2.06a24.33,24.33,0,0,0,10-13.42A5.22,5.22,0,0,0,245,169a5.78,5.78,0,0,0-1.64-1.85c-16.26-13.79-33.1-27.27-46-44.28a24.57,24.57,0,0,0-3.89-4.43A7.38,7.38,0,0,0,188,116.6a10,10,0,0,0-4.8,2.48c-4.55,3.68-9.49,8.41-12.36,13.58C168.48,137,174.46,142.64,177.43,145.48Z"/>
              <path class="cls-9" d="M191.29,125.08a10.5,10.5,0,0,0,1.06-7.42A6.77,6.77,0,0,0,188,116.6a10,10,0,0,0-4.8,2.48c-4.55,3.68-9.49,8.41-12.36,13.58a5.4,5.4,0,0,0,.15,5l.08,0a11.14,11.14,0,0,0,6.47-1C183.26,134.43,188.53,130.55,191.29,125.08Z"/>
              <path class="cls-9" d="M231.13,184.76c-2.15,1.52-4.47,3.16-7.12,3.61,3.62,1.1,7.68-.16,10.9-2.25a24.33,24.33,0,0,0,10-13.42A5.22,5.22,0,0,0,245,169a5.78,5.78,0,0,0-1.64-1.85l-.9-.76a22.23,22.23,0,0,1-1.75,8.61C238.73,179.18,234.88,182.1,231.13,184.76Z"/>
              <path class="cls-6" d="M240.2,178.91c.26.37.55.89.87,1.42a24,24,0,0,0,3.84-7.63A5.22,5.22,0,0,0,245,169a5.78,5.78,0,0,0-1.64-1.85c-16.26-13.79-33.1-27.27-46-44.28a24.57,24.57,0,0,0-3.89-4.43A7.38,7.38,0,0,0,188,116.6a9.1,9.1,0,0,0-4.33,2.13c.22.39.46.78.72,1.15a61,61,0,0,0,4.19,5.17c3.77,4.31,7.53,8.62,11.5,12.73,3.65,3.78,7.47,7.4,11.32,11,6.81,6.33,13.74,12.56,20,19.42A109.69,109.69,0,0,1,240.2,178.91Z"/>
              <path class="cls-6" d="M244.91,172.7A5.22,5.22,0,0,0,245,169a5.78,5.78,0,0,0-1.64-1.85c-16.26-13.79-33.1-27.27-46-44.28a24.57,24.57,0,0,0-3.89-4.43A7.38,7.38,0,0,0,188,116.6l-.1,0c4,4.25,7,9.34,10.49,14a99.68,99.68,0,0,0,12,12.9c7.68,7.08,16,13.39,23.62,20.57a101.65,101.65,0,0,1,10,10.91A23.1,23.1,0,0,0,244.91,172.7Z"/>
              <path class="cls-7" d="M171.43,138.46c1.52,2.75,4.27,5.36,6,7A138.66,138.66,0,0,0,189,154.71a153.28,153.28,0,0,1,27.14,26.85c2.05,2.61,4.18,5.42,7.27,6.62.13,0,.27.08.41.12-.8-.6-1.57-1.25-2.3-1.92a91.78,91.78,0,0,1-8.2-9.2,178.72,178.72,0,0,0-26-25.51C181.89,147.39,176.23,143.34,171.43,138.46Z"/>
              <path class="cls-8" d="M206.63,167.23a97,97,0,0,0,10.91,10.55c.6.46,1.54.86,2,.26a1.4,1.4,0,0,0,0-1.33,18.61,18.61,0,0,0-2.36-4.13,54,54,0,0,0-4.8-5.46,282,282,0,0,0-25.8-23.43,43.76,43.76,0,0,0-4.87-3.5c-.91-.53-2.15-1.11-3.13-.41s-.71,1.45-.12,2.21a15.46,15.46,0,0,0,3.26,2.45c1.25.91,2.49,1.84,3.7,2.8a161.13,161.13,0,0,1,13.86,12.38C201.75,162.11,204.2,164.65,206.63,167.23Z"/>
              <path class="cls-10" d="M191,120.65a7.45,7.45,0,0,0,.5-3.41,6.31,6.31,0,0,0-3.46-.64,10,10,0,0,0-4.8,2.48c-4.55,3.68-9.49,8.41-12.36,13.58a4.36,4.36,0,0,0-.53,2.09,1.91,1.91,0,0,0,.4.23c3.43,1.28,8-1.24,10.77-3.07C185.66,129.13,189.28,125.33,191,120.65Z"/>
            </g>
            <g>
              <path class="cls-5" d="M120.83,91.16c4.06,4,8.75,7.28,13.18,10.85a130.81,130.81,0,0,1,23.36,24.41c2.48,3.38,5,7.08,9,8.49a12,12,0,0,0,4.65.61,18.12,18.12,0,0,0,11.57-5.46,27.88,27.88,0,0,0,6.54-11.18c.73-2.22,1.23-4.71.28-6.84-.83-1.88-2.61-3.12-4.29-4.29-15.48-10.83-28.86-24.34-41.75-38.14a33.62,33.62,0,0,0-6.14-5.6,11.09,11.09,0,0,0-7.9-1.89c-2.8.53-5.11,2.45-7.15,4.43-2.85,2.77-8.69,7.65-9.22,11.89C112.4,82.91,118,88.36,120.83,91.16Z"/>
              <path class="cls-9" d="M135.32,63a10.11,10.11,0,0,0-6-.86c-2.8.53-5.11,2.45-7.15,4.43-2.85,2.77-8.69,7.65-9.22,11.89a7.41,7.41,0,0,0,.89,4.12,12.08,12.08,0,0,0,5.69-1.36,33.07,33.07,0,0,0,13.35-11.43A12.21,12.21,0,0,0,135.32,63Z"/>
              <path class="cls-9" d="M184.89,122.72A23.09,23.09,0,0,1,172.82,134a15.79,15.79,0,0,1-5.63,1.17,12.38,12.38,0,0,0,3.83.37,18.12,18.12,0,0,0,11.57-5.46,27.88,27.88,0,0,0,6.54-11.18c.73-2.22,1.23-4.71.28-6.84a8.22,8.22,0,0,0-2.62-3.07A23,23,0,0,1,184.89,122.72Z"/>
              <path class="cls-6" d="M185.49,126.51a30.59,30.59,0,0,0,3.64-7.63c.73-2.22,1.23-4.71.28-6.84-.83-1.88-2.61-3.12-4.29-4.29-15.48-10.83-28.86-24.34-41.75-38.14a33.62,33.62,0,0,0-6.14-5.6,11.09,11.09,0,0,0-7.9-1.89,9.7,9.7,0,0,0-2.73,1,58.72,58.72,0,0,1,6.87,7c2,2.45,3.6,5.16,5.4,7.74a102.79,102.79,0,0,0,12.58,14.59c8.14,8,17.07,15.2,25,23.4,2,2,3.89,4.12,5.71,6.3C183.37,123.51,184.4,125,185.49,126.51Z"/>
              <path class="cls-6" d="M143.37,69.61a33.62,33.62,0,0,0-6.14-5.6,11.28,11.28,0,0,0-7.54-1.94l.27.22a64.69,64.69,0,0,1,10.34,9.57c3,3.47,5.64,7.24,8.51,10.82a103.43,103.43,0,0,0,13.82,14.25c2.64,2.25,5.38,4.36,8.13,6.46A149.45,149.45,0,0,1,184.85,115c1.43,1.41,2.8,2.89,4.08,4.43.07-.19.14-.38.2-.57.73-2.22,1.23-4.71.28-6.84-.83-1.88-2.61-3.12-4.29-4.29C169.64,96.92,156.26,83.41,143.37,69.61Z"/>
              <path class="cls-7" d="M128,95.92A128.32,128.32,0,0,1,114.06,83c1.68,3.18,4.84,6.28,6.77,8.17,4.06,4,8.75,7.28,13.18,10.85a130.81,130.81,0,0,1,23.36,24.41c2.48,3.38,5,7.08,9,8.49a7.08,7.08,0,0,0,.82.24c-.84-.55-1.75-1.05-2.16-1.4a57.27,57.27,0,0,1-7.82-8.92q-4.1-5.28-8.52-10.31a108.2,108.2,0,0,0-10.26-10.39C135.08,101.24,131.47,98.67,128,95.92Z"/>
              <path class="cls-8" d="M130.08,94.71a266.57,266.57,0,0,1,32.29,30.56,7.35,7.35,0,0,0,1.91,1.7,2.44,2.44,0,0,0,2.45,0,2.41,2.41,0,0,0,.8-2.55,6.71,6.71,0,0,0-1.38-2.47c-6.47-8.42-14.29-15.69-22.19-22.79-3.85-3.47-7.74-6.91-11.9-10A32.67,32.67,0,0,0,125.12,85c-1.08-.45-3-1-4.09-.3-1.43,1,.19,2.28,1,3.1A85.59,85.59,0,0,0,130.08,94.71Z"/>
              <path class="cls-10" d="M134.19,62.54a9.59,9.59,0,0,0-4.86-.42c-2.8.53-5.11,2.45-7.15,4.43-2.85,2.77-8.69,7.65-9.22,11.89a5.74,5.74,0,0,0,0,1.31,7.48,7.48,0,0,0,4.21-.46A32.78,32.78,0,0,0,131.71,69,12,12,0,0,0,134,65.16,6.12,6.12,0,0,0,134.19,62.54Z"/>
            </g>
            <g>
              <path class="cls-5" d="M93,63.22a71.92,71.92,0,0,1,9.23,10.36,37.78,37.78,0,0,0,3.57,4.91,7.62,7.62,0,0,0,5.29,2.64,9.66,9.66,0,0,0,4.33-1.31A47.24,47.24,0,0,0,132,66c1.37-1.82,2.65-4.13,1.87-6.27a7.59,7.59,0,0,0-2.49-3c-15-12.64-28.19-27.24-43.13-39.91-2-1.7-4.43-3.47-7-3a8.52,8.52,0,0,0-3.08,1.51A80.93,80.93,0,0,0,65.9,25.67c-1.89,1.94-5.41,5.6-3.9,8.48.87,1.67,3.61,3.3,5,4.56q2.64,2.4,5.27,4.81Q82.81,53.21,93,63.22Z"/>
              <path class="cls-9" d="M132,66c1.37-1.82,2.65-4.13,1.87-6.27a7.59,7.59,0,0,0-2.49-3c-.32-.27-.64-.56-1-.84a12.45,12.45,0,0,1-1.67,8.72A31.08,31.08,0,0,1,122.14,72a41.13,41.13,0,0,1-10.58,7.3,9.37,9.37,0,0,1-3.84.79,6.51,6.51,0,0,0,3.37,1.09,9.66,9.66,0,0,0,4.33-1.31A47.24,47.24,0,0,0,132,66Z"/>
              <path class="cls-6" d="M120.68,60.7c2.67,3.12,5.15,6.35,7.5,9.7A46,46,0,0,0,132,66c1.37-1.82,2.65-4.13,1.87-6.27a7.59,7.59,0,0,0-2.49-3c-15-12.64-28.19-27.24-43.13-39.91-2-1.7-4.43-3.47-7-3a8.52,8.52,0,0,0-3.08,1.51c-1,.66-1.91,1.35-2.84,2.05,8.56,8,17.2,15.88,25.83,23.78,4.76,4.36,9.53,8.71,14,13.37C117,56.56,118.89,58.6,120.68,60.7Z"/>
              <path class="cls-6" d="M88.23,16.82c-2-1.7-4.43-3.47-7-3A7,7,0,0,0,78.79,15c1.32.79,2.7,1.48,4,2.28a47.6,47.6,0,0,1,7.79,6.31q5.67,5.31,11.25,10.73,9.81,9.54,19.3,19.4,4.78,5,9.5,10c.42.45,1,1.23,1.54,2,1.29-1.77,2.41-4,1.67-6a7.59,7.59,0,0,0-2.49-3C116.39,44.09,103.17,29.49,88.23,16.82Z"/>
              <path class="cls-7" d="M62,34.15c.87,1.67,3.61,3.3,5,4.56q2.64,2.4,5.27,4.81Q82.81,53.21,93,63.22a71.92,71.92,0,0,1,9.23,10.36,37.78,37.78,0,0,0,3.57,4.91,8.65,8.65,0,0,0,3.51,2.31,14.84,14.84,0,0,1-2.23-2,80.06,80.06,0,0,1-4.91-6.74A101.12,101.12,0,0,0,90.85,59.33Q76.69,45.22,61.69,32A3.41,3.41,0,0,0,62,34.15Z"/>
              <path class="cls-8" d="M79.12,44.32A150.5,150.5,0,0,1,90.26,55.63l9.57,10.43c2.09,2.27,4.26,4.61,7.08,5.83a1.32,1.32,0,0,0,.61.16,1,1,0,0,0,.89-1.1,2.85,2.85,0,0,0-.55-1.45c-2.19-3.51-5.21-6.4-8.14-9.32-8.58-8.6-16.56-17.9-26.19-25.31a6.81,6.81,0,0,0-2.25-1.31c-1.23-.36-3,.17-2.91,1.71.06,1.22,1.61,1.85,2.48,2.49C73.68,39.85,76.48,42,79.12,44.32Z"/>
              <path class="cls-9" d="M83.31,13.92a4.86,4.86,0,0,0-2.08-.06,8.52,8.52,0,0,0-3.08,1.51A80.93,80.93,0,0,0,65.9,25.67c-1.55,1.59-4.19,4.33-4.26,6.86,2.17,1.11,6.16-3.84,7.63-5.11,4.1-3.56,8.21-7.13,12.08-11A8.62,8.62,0,0,0,83.31,13.92Z"/>
              <path class="cls-10" d="M65.82,28.52a1.64,1.64,0,0,0,.72-.22,14.81,14.81,0,0,0,2.63-1.88c2-1.69,4-3.41,5.92-5.18a11.54,11.54,0,0,0,2.78-3.3.59.59,0,0,0,.06-.57.43.43,0,0,0-.56-.11,1.32,1.32,0,0,0-.43.45c-1.86,2.72-4.1,5.33-7.09,6.7a28.14,28.14,0,0,0-2.63,1.18C66.74,25.87,64.07,28.54,65.82,28.52Z"/>
            </g>
          </g>
          <g>
            <g>
              <path class="cls-12" d="M142.35,209.1c6.08,4.67,11.49,10.2,17.73,14.67,9.6,6.87,21.52,11.13,33.22,9.56,5-.67,9.89-2.4,14.94-2.92-8.61-8.4-17.51-16.6-27.63-23.08S159,196.1,147,195.24c-3.41-.25-6.84-.18-10.25-.09a34.54,34.54,0,0,0-9.34,1.13c-2,.64-7,2.41-3.46,4.08,2.93,1.39,6.51,1.63,9.54,3.12A54,54,0,0,1,142.35,209.1Z"/>
              <g class="cls-2">
                <path class="cls-13" d="M199.24,233.28c-42.25-34-73.75-34.46-74.06-34.46,0,0,32.41-1.17,75.11,33.16Z"/>
              </g>
              <path class="cls-14" d="M190.62,233.58l-1.42-.15a57.36,57.36,0,0,1-27.09-10c-9.26-6.57-16.53-16.19-27.07-20.4a48.21,48.21,0,0,0-8.34-2.32,16.92,16.92,0,0,0-2.91-.43l.18.1c2.93,1.39,6.51,1.63,9.54,3.12a54,54,0,0,1,8.84,5.62c6.08,4.67,11.49,10.2,17.73,14.67C169,230.11,179.8,234.22,190.62,233.58Z"/>
              <path class="cls-13" d="M205.66,227.92c-7.81-7.52-15.93-14.75-25-20.59C170.48,200.84,159,196.1,147,195.24c-3.41-.25-6.84-.18-10.25-.09a39.15,39.15,0,0,0-8.15.84c.84,0,1.68.09,2.52.17a123.09,123.09,0,0,1,13.08,2.2,50.87,50.87,0,0,1,7.19,1.84,49.53,49.53,0,0,1,10.5,5.83,178.52,178.52,0,0,1,16.88,12.4c5.53,4.71,10.61,10,16.21,14.6,4-.71,7.88-1.83,11.86-2.41Q206.31,229.26,205.66,227.92Z"/>
            </g>
            <path class="cls-13" d="M180.61,207.33A78.84,78.84,0,0,0,156,196.6a5.93,5.93,0,0,0,.28,1.1c1.87,5.35,5.88,9.94,10.08,13.61,5.07,4.44,10.88,7.93,16.32,11.9a111.39,111.39,0,0,1,11.78,9.92c3-.49,6-1.25,8.94-1.89a19,19,0,0,0-2.1-5.64c-.65-1.25-1.34-2.48-2-3.7A142.08,142.08,0,0,0,180.61,207.33Z"/>
            <path class="cls-13" d="M199.51,230.91a24.46,24.46,0,0,0-4.6-9.34,107.74,107.74,0,0,0-9.06-10.63c-1.71-1.25-3.45-2.47-5.24-3.61A79.82,79.82,0,0,0,157.46,197a17,17,0,0,0,2.32,4.65c5.3,7.73,13.45,12.9,20.84,18.65,4.82,3.75,9.38,7.81,14,11.82l1,.82c1.38-.26,2.75-.55,4.12-.87C199.64,231.68,199.58,231.29,199.51,230.91Z"/>
            <g>
              <path class="cls-5" d="M210.87,250.81c1.36,3.18,4.2,5.44,6.93,7.55,7.76,6,15.58,12.06,22,19.5a48.32,48.32,0,0,0,5.46,5.88,11.06,11.06,0,0,0,7.33,2.85c3.36-.15,6.23-2.37,8.76-4.59,3.88-3.41,7.68-7.25,9.3-12.16a5.66,5.66,0,0,0,.21-3.67,6.84,6.84,0,0,0-2.57-2.88,212,212,0,0,1-27.11-24.94c-3.4-3.72-7.22-7.85-12.25-8.2-5.6-.38-10.23,4-14.07,8.14S209,245,210.87,250.81Z"/>
              <path class="cls-9" d="M228.91,230.15c-5.6-.38-10.23,4-14.07,8.14s-5.86,6.72-4,12.52c.08.18.18.35.27.53a12.51,12.51,0,0,0,5.79-1.53,32.91,32.91,0,0,0,11.22-10.29,13.65,13.65,0,0,0,2.79-6.38,6.87,6.87,0,0,0-.28-2.7A9.27,9.27,0,0,0,228.91,230.15Z"/>
              <path class="cls-6" d="M241.16,238.35c-3.4-3.72-7.22-7.85-12.25-8.2a9.84,9.84,0,0,0-1.63,0q1.23,3.39,2.45,6.76a30.85,30.85,0,0,0,2.08,4.83,26.87,26.87,0,0,0,4.61,5.6c8.82,8.79,18.86,16.39,26.82,26a25,25,0,0,1,2.74,4.1,22,22,0,0,0,4.65-7.61,5.66,5.66,0,0,0,.21-3.67,6.84,6.84,0,0,0-2.57-2.88A212,212,0,0,1,241.16,238.35Z"/>
              <path class="cls-6" d="M270.13,271.09c.18-.41.35-.82.5-1.25a5.66,5.66,0,0,0,.21-3.67,6.84,6.84,0,0,0-2.57-2.88,212,212,0,0,1-27.11-24.94c-3.23-3.54-6.85-7.4-11.52-8.08a147.47,147.47,0,0,0,15,16.72c2.29,2.12,4.69,4.1,7.08,6.11,4.38,3.69,8.7,7.47,12.71,11.57,2,2.05,3.92,4.17,5.72,6.39Z"/>
              <path class="cls-7" d="M210.84,250.71l0,.1c1.36,3.18,4.2,5.44,6.93,7.55,7.76,6,15.58,12.06,22,19.5a48.32,48.32,0,0,0,5.46,5.88,12,12,0,0,0,5.89,2.77,43.13,43.13,0,0,1-7.19-5.94c-3.07-3.21-5.85-6.7-9-9.86C227.62,263.29,218.39,257.83,210.84,250.71Z"/>
              <path class="cls-8" d="M235.34,266.72c2.08,1.91,4,4,6,6A60.46,60.46,0,0,0,252,280.83c.47.28,1.09.56,1.54.23s.23-1.36-.2-2a94.13,94.13,0,0,0-10.59-11.91c-5.49-5.48-11.25-11-18.46-13.84a5.68,5.68,0,0,0-2.41-.51A2,2,0,0,0,220.2,256c.78,1.21,3,1.95,4.17,2.69A75.1,75.1,0,0,1,235.34,266.72Z"/>
              <path class="cls-10" d="M227.85,235.32a5.55,5.55,0,0,0,.51-4,3.48,3.48,0,0,0-.72-1.16c-5,.3-9.26,4.36-12.8,8.14-3.26,3.48-5.18,5.88-4.57,10a7,7,0,0,0,1.23.21c3.95.28,7.57-2.5,10.25-5.06A26.22,26.22,0,0,0,227.85,235.32Z"/>
            </g>
            <g>
              <path class="cls-5" d="M158.81,198.8a29,29,0,0,0,5.94,6.43c12.45,10.9,25.81,21.06,35.7,34.32,1.92,2.58,3.94,5.44,7,6.35,3.83,1.13,7.76-1.15,11-3.42,4.55-3.13,9.29-6.85,10.65-12.2a5.81,5.81,0,0,0,.15-2.65c-.35-1.6-1.64-2.79-2.87-3.87a623.14,623.14,0,0,1-45.86-44.93,10.76,10.76,0,0,0-3.53-2.89c-3.16-1.33-6.71.59-9.35,2.76C161.83,183.51,154,190.91,158.81,198.8Z"/>
              <path class="cls-9" d="M225.14,234c-2.48,3.69-6.37,6.19-10.39,8.08-2.86,1.35-6,2.53-9.26,2.16-.37-.05-.82-.14-1.29-.22a8.58,8.58,0,0,0,3.27,1.91c3.83,1.13,7.76-1.16,11-3.42,4.55-3.13,9.29-6.85,10.65-12.2a5.81,5.81,0,0,0,.15-2.65,6.22,6.22,0,0,0-2-3.08A13.11,13.11,0,0,1,225.14,234Z"/>
              <path class="cls-9" d="M177,175.92c-3.14-1.28-6.66.62-9.28,2.78-5.29,4.33-12.14,10.77-9.93,17.77a8.4,8.4,0,0,0,2-.33,16.44,16.44,0,0,0,5.71-3.44,51.17,51.17,0,0,0,5.35-4.95,32.07,32.07,0,0,0,5.05-7.43A9,9,0,0,0,177,175.92Z"/>
              <path class="cls-6" d="M223.25,238.59l.11.2c2.69-2.35,4.93-5.1,5.8-8.51a5.81,5.81,0,0,0,.15-2.65c-.35-1.6-1.64-2.79-2.87-3.87a623.14,623.14,0,0,1-45.86-44.93,10.76,10.76,0,0,0-3.53-2.89,6.57,6.57,0,0,0-4.91.09,7.47,7.47,0,0,0-.19,2.26c.31,4.85,3.94,8.73,7.36,12.17l25.27,25.4c2.51,2.53,5,5.06,7.44,7.68A77.41,77.41,0,0,1,223.25,238.59Z"/>
              <path class="cls-6" d="M180.58,178.83a10.76,10.76,0,0,0-3.53-2.89,5.93,5.93,0,0,0-3.43-.31,51.49,51.49,0,0,0,8,10.78c4.06,4.47,8.34,8.74,12.71,12.92,7.69,7.36,15.64,14.45,23.16,22,3.7,3.71,7.3,7.53,10.7,11.53a12.92,12.92,0,0,0,1-2.57,5.81,5.81,0,0,0,.15-2.65c-.35-1.6-1.64-2.79-2.87-3.87A623.14,623.14,0,0,1,180.58,178.83Z"/>
              <path class="cls-7" d="M157.82,196.64a10.38,10.38,0,0,0,1,2.16,29,29,0,0,0,5.94,6.43c12.45,10.9,25.81,21.06,35.7,34.32,1.92,2.58,3.94,5.44,7,6.35a7.17,7.17,0,0,0,1.5.27,28.49,28.49,0,0,1-5.77-4.56c-2.54-2.83-4.68-6-7-9-7.22-9.29-16.43-16.82-25.54-24.27A108.12,108.12,0,0,1,157.82,196.64Z"/>
              <path class="cls-8" d="M184.89,217.28c5.37,5.59,10.19,11.77,16.31,16.52,1.49,1.15,3.39,2.27,5.17,1.64-2.82-6.19-8-10.89-12.78-15.77-7.67-7.89-14.56-16.82-23.93-22.58a3.18,3.18,0,0,0-2.66-.65c-5.44,2,4.64,8.67,6,9.86A157.79,157.79,0,0,1,184.89,217.28Z"/>
              <path class="cls-10" d="M167.7,178.7c-4.62,3.78-10.43,9.17-10.36,15.15a7.42,7.42,0,0,0,1.75-.61,36.47,36.47,0,0,0,16.1-14.65,5.53,5.53,0,0,0,.95-2.92C173.23,175,170.09,176.73,167.7,178.7Z"/>
            </g>
            <g>
              <path class="cls-5" d="M92,134.66A23.43,23.43,0,0,0,96.93,140c5.2,4.6,10.46,9.13,15.61,13.78A482.84,482.84,0,0,1,146.83,188a16.19,16.19,0,0,0,3.5,3.17c2.8,1.68,6.44,1.45,9.43.14a25.57,25.57,0,0,0,7.75-5.91c3.79-3.87,7.4-8.28,8.51-13.59a4.18,4.18,0,0,0,0-2.3,4.36,4.36,0,0,0-1.22-1.64,74.59,74.59,0,0,0-8.63-6.67c-10.5-7.54-19.92-16.47-29.29-25.37l-22.68-21.51a10.33,10.33,0,0,0-2.85-2.16c-3-1.33-6.42.28-9.14,2.09C96.07,118.29,87.28,126.6,92,134.66Z"/>
              <path class="cls-9" d="M176,169.48a4.36,4.36,0,0,0-1.22-1.64c-.36-.35-.74-.67-1.12-1a16,16,0,0,1-.18,6.95c-1.25,4.77-4.87,8.51-8.54,11.79-2.67,2.39-5.55,4.73-9,5.77a9.28,9.28,0,0,1-4.78.22,10.84,10.84,0,0,0,8.57-.29,25.57,25.57,0,0,0,7.75-5.91c3.79-3.87,7.4-8.28,8.51-13.59A4.18,4.18,0,0,0,176,169.48Z"/>
              <path class="cls-9" d="M109.17,120.29a14,14,0,0,0,2.76-5.56,7.85,7.85,0,0,0,.1-2.22,5.76,5.76,0,0,0-.69-.38c-3-1.33-6.42.28-9.14,2.09-5.47,3.64-13,10.64-11.21,17.84a9.9,9.9,0,0,0,2.05-.4A32.24,32.24,0,0,0,109.17,120.29Z"/>
              <path class="cls-6" d="M170.53,181.8a.71.71,0,0,1,.1.14A23.85,23.85,0,0,0,176,171.78a4.18,4.18,0,0,0,0-2.3,4.36,4.36,0,0,0-1.22-1.64,74.59,74.59,0,0,0-8.63-6.67c-10.5-7.54-19.92-16.47-29.29-25.37l-22.68-21.51a10.33,10.33,0,0,0-2.85-2.16c-2.57-1.15-5.47-.11-8,1.36A15.37,15.37,0,0,0,104.7,116c15.17,23.65,41.48,37.64,60.14,58.64A69.32,69.32,0,0,1,170.53,181.8Z"/>
              <path class="cls-6" d="M166.16,161.17c-10.5-7.54-19.92-16.47-29.29-25.37l-22.68-21.51a10.33,10.33,0,0,0-2.85-2.16,6.18,6.18,0,0,0-3.63-.37,12,12,0,0,0,2.14,3A389.76,389.76,0,0,0,151,155c3,2.49,5.95,4.93,8.9,7.43a126.66,126.66,0,0,1,14.51,14,19.25,19.25,0,0,0,1.64-4.56,4.18,4.18,0,0,0,0-2.3,4.36,4.36,0,0,0-1.22-1.64A74.59,74.59,0,0,0,166.16,161.17Z"/>
              <path class="cls-7" d="M97.27,138.12c-2.07-1.78-4.17-3.57-6.12-5.48a9.89,9.89,0,0,0,.89,2A23.43,23.43,0,0,0,96.93,140c5.2,4.6,10.46,9.13,15.61,13.78A482.84,482.84,0,0,1,146.83,188a16.19,16.19,0,0,0,3.5,3.17,8.24,8.24,0,0,0,2.48,1c-1-.92-2.56-1.77-3.11-2.25-4.46-3.93-7.93-8.81-11.84-13.25-2.45-2.78-5.09-5.39-7.73-8C119.47,158.14,108.6,147.86,97.27,138.12Z"/>
              <path class="cls-8" d="M137.31,173.2a52.74,52.74,0,0,0,7.9,7.27,2,2,0,0,0,1.5.49c1.09-.28.93-1.89.46-2.91a31.87,31.87,0,0,0-3-5.21,63.41,63.41,0,0,0-5.77-6.6c-5.76-6-11.53-12-17.52-17.77-4.92-4.71-10.11-9.35-16.38-12-.89-.37-2-.69-2.75-.1-2.63,2,2.55,5.31,3.7,6.31q4,3.54,8,7.16,7.93,7.26,15.54,14.85Q133.19,168.89,137.31,173.2Z"/>
              <path class="cls-10" d="M110.29,111.79c-2.72-.61-5.68.83-8.09,2.43-4.84,3.22-11.31,9.08-11.49,15.37a5.57,5.57,0,0,0,2.59.13,21.65,21.65,0,0,0,16.82-13.48,5.87,5.87,0,0,0,.41-3.9A3.82,3.82,0,0,0,110.29,111.79Z"/>
            </g>
            <g>
              <path class="cls-5" d="M37.76,79c15.12,13.27,28,28.9,41,44.21,2.18,2.56,4.58,5.25,7.85,6,3.89.94,7.83-1.09,11.24-3.2,4.44-2.75,8.81-5.85,11.81-10.13,1.53-2.17,2.69-4.89,1.94-7.43-.69-2.32-2.78-3.9-4.72-5.36C89.29,89.84,75.26,72.49,59.59,57c-1.59-1.58-3.34-3.21-5.54-3.64-3.22-.62-6.29,1.5-8.79,3.62A97.58,97.58,0,0,0,37,64.83c-1.74,1.87-4.69,5-4.45,7.82C32.79,75.23,36,77.46,37.76,79Z"/>
              <path class="cls-9" d="M111.6,108.49a6.35,6.35,0,0,0-1-1.95,24.76,24.76,0,0,1-6.35,11.68,35.31,35.31,0,0,1-14.8,8.86,16.14,16.14,0,0,1-5.57,1,9.3,9.3,0,0,0,2.74,1.19c3.89.94,7.83-1.09,11.24-3.2,4.44-2.75,8.81-5.85,11.81-10.13C111.19,113.75,112.35,111,111.6,108.49Z"/>
              <path class="cls-6" d="M106.88,103.13C89.29,89.84,75.26,72.49,59.59,57c-1.59-1.58-3.34-3.21-5.54-3.64-2.62-.5-5.12.8-7.31,2.44C54,62.16,59,70.67,65.09,78.19c9.62,11.88,22,21.25,32.53,32.29a83.83,83.83,0,0,1,6.59,7.63,20.45,20.45,0,0,1,1.39,2.32,26.76,26.76,0,0,0,4.06-4.51c1.53-2.17,2.69-4.89,1.94-7.43C110.91,106.17,108.82,104.59,106.88,103.13Z"/>
              <path class="cls-6" d="M106.88,103.13C89.29,89.84,75.26,72.49,59.59,57c-1.59-1.58-3.34-3.21-5.54-3.64a6.9,6.9,0,0,0-3.68.37c1.86,2,3.89,3.8,5.81,5.72C61.56,64.82,66,71.11,70.88,77A124.66,124.66,0,0,0,83.11,89.58c3,2.7,6.15,5.27,9.26,7.86,5.43,4.53,10.87,9.18,15.27,14.76.82,1,1.6,2.14,2.33,3.25,1.37-2.09,2.33-4.6,1.63-7S108.82,104.59,106.88,103.13Z"/>
              <path class="cls-7" d="M88.5,129.46a27.64,27.64,0,0,1-4.13-2.94,75,75,0,0,1-6.56-6.9c-14.18-16.33-28-33.38-45.13-46.46.56,2.36,3.44,4.4,5.08,5.85,15.12,13.27,28,28.9,41,44.21,2.18,2.56,4.58,5.25,7.85,6A8.69,8.69,0,0,0,88.5,129.46Z"/>
              <path class="cls-8" d="M57,91.16C65.74,99.92,73.39,109.7,82.5,118c1.34,1.22,3,2.48,4.74,2.2a1.57,1.57,0,0,0,1.1-.59c.47-.72-.07-1.66-.6-2.33-3.87-4.86-8.2-9.34-12.52-13.8Q63.78,91.67,52.34,79.84c-2.88-3-6.12-6.13-10.24-6.53a1.69,1.69,0,0,0-.92.1c-1.08.55-.54,3,0,3.77,1.12,1.65,3.95,3.1,5.51,4.41Q52.06,86.14,57,91.16Z"/>
              <path class="cls-9" d="M53.68,53.29c-3.09-.4-6,1.61-8.42,3.65A97.58,97.58,0,0,0,37,64.83c-1.74,1.87-4.69,5-4.45,7.82,0,.08,0,.16.06.24a6.58,6.58,0,0,0,1.06-.68,157.85,157.85,0,0,0,18-15.33C52.7,55.9,53.72,54.56,53.68,53.29Z"/>
              <path class="cls-10" d="M36.13,68a37.3,37.3,0,0,0,11.66-8.6,6.4,6.4,0,0,0,1.33-1.9c.25-.62.14-1.57-.53-1.63a1,1,0,0,0-.37,0,3.91,3.91,0,0,0-2.07,1.76c-.49.78-.84,1.65-1.33,2.43-1.24,2-3.3,3.32-5.29,4.59-.85.54-1.78,1-2.59,1.64-.33.25-.56.33-.74.71C36.13,67.16,36.17,67.91,36.13,68Z"/>
            </g>
            <path class="cls-11" d="M117.23,133.13a67.1,67.1,0,0,0-7.07-8.94,82.18,82.18,0,0,0-9.14-7.72L92.58,110A175.31,175.31,0,0,0,77.11,99C68.48,93.78,59,90.1,49.5,86.83c-1.73-.59-3.5-1.31-5.28-1.87,7.84,7.51,15.12,15.59,22.22,23.82,22.17,13,43.69,27.25,62.5,44.72A149.64,149.64,0,0,0,117.23,133.13Z"/>
            <path class="cls-11" d="M125.42,151.84c-3.17-12.05-10.78-22.57-20-31s-19.87-15-30.61-21.29a68.31,68.31,0,0,0-8-4.23,69.8,69.8,0,0,0-7.48-2.5c-3.41-1-6.82-2-10.23-3,10.44,10.6,20,22.1,29.64,33.43,2.18,2.56,4.58,5.25,7.85,6a9.39,9.39,0,0,0,4.12,0,9.24,9.24,0,0,0,.59,3.91A320.16,320.16,0,0,0,125.42,151.84Z"/>
            <g>
              <path class="cls-12" d="M14.08,89.45c11.5,3.72,19.85,13.4,28.8,21.53A132.88,132.88,0,0,0,84,136.4c13.32,5.17,27.88,8.4,38.87,17.53a19.09,19.09,0,0,0,4.68,3.3,5.08,5.08,0,0,0,5.4-.62c.39-.39.1-1.41-.25-1l-19.52-24.73a94,94,0,0,0-8.63-9.95,76.32,76.32,0,0,0-9.25-7.35C74.07,98.77,49,88,23.12,88.55,20.19,88.61,16.71,88.16,14.08,89.45Z"/>
              <path class="cls-13" d="M23.12,88.55c-.54,0-1.1,0-1.67,0,2.66.72,6.32.81,7.86,1.17,10.19,2.4,19.83,6.71,29,11.67,5.3,2.86,10.47,6,15.59,9.13,19,11.73,38.11,24.84,49.59,43.92a15.76,15.76,0,0,0,4.07,2.79,5.08,5.08,0,0,0,5.4-.62c.39-.39.1-1.41-.25-1l-19.52-24.73a94,94,0,0,0-8.63-9.95,76.32,76.32,0,0,0-9.25-7.35C74.07,98.77,49,88,23.12,88.55Z"/>
              <path class="cls-14" d="M115.3,148.29a110.44,110.44,0,0,0-10.76-5.14C83.4,134.05,61.31,125.78,44,110.68c-5.48-4.77-10.42-10.16-16.25-14.48A38.48,38.48,0,0,0,15.6,90c10.73,4,18.73,13.21,27.28,21A132.88,132.88,0,0,0,84,136.4c13.3,5.17,27.83,8.39,38.82,17.49C122,151.59,116.9,149.2,115.3,148.29Z"/>
              <path class="cls-13" d="M23.33,91.51c.3.1,30.37,10.28,55.25,25.67,23.36,14.45,36.69,27.5,49.08,40.09a6.09,6.09,0,0,0,2.76.42c-12.92-13.15-26.44-26.77-51-41.93C54.41,100.26,23.33,91.51,23.33,91.51Z"/>
            </g>
          </g>
          <path class="cls-11" d="M166.16,161.17c-10.5-7.54-19.92-16.47-29.29-25.37l-22.68-21.51a10.89,10.89,0,0,0-2.68-2.06,6.62,6.62,0,0,0,.09-3.74c-.69-2.32-2.78-3.9-4.72-5.36C94.56,93.83,84,82.53,73.38,71.27c-3.68-.86-7.25-.49-4.7,4.41C71.54,81.19,76,85.84,80.25,90.3c11,11.69,22.34,23.13,33.64,34.57l87.81,88.86c12,12.15,24,24.32,37.08,35.35,9.6,8.13,19.85,15.73,27.55,25.69.29.38.6.76.93,1.15a20.6,20.6,0,0,0,3.37-6.08,5.66,5.66,0,0,0,.21-3.67,6.84,6.84,0,0,0-2.57-2.88,212,212,0,0,1-27.11-24.94c-3.34-3.66-7.09-7.68-12-8.16a5.7,5.7,0,0,0,.14-2.56c-.35-1.6-1.64-2.79-2.87-3.87a623.14,623.14,0,0,1-45.86-44.93,10.76,10.76,0,0,0-3.53-2.89,5.78,5.78,0,0,0-2.26-.43,18.33,18.33,0,0,0,1.23-3.73,4.18,4.18,0,0,0,0-2.3,4.36,4.36,0,0,0-1.22-1.64A74.59,74.59,0,0,0,166.16,161.17Z"/>
          <path class="cls-11" d="M166.16,161.17c-10.5-7.54-19.92-16.47-29.29-25.37l-22.68-21.51a10.89,10.89,0,0,0-2.68-2.06,6.62,6.62,0,0,0,.09-3.74c-.69-2.32-2.78-3.9-4.72-5.36-11.74-8.87-21.9-19.55-32-30.29a4.6,4.6,0,0,0-2.33,1.08c-3,3,1.21,7,3.16,9,14,14.41,28.21,28.66,42.39,42.91q42.26,42.48,85.14,84.32,24.3,23.71,48.8,47.23c5.34,5.12,10.72,10.28,15,16.29L268,275a19.58,19.58,0,0,0,2.64-5.12,5.66,5.66,0,0,0,.21-3.67,6.84,6.84,0,0,0-2.57-2.88,212,212,0,0,1-27.11-24.94c-3.34-3.66-7.09-7.68-12-8.16a5.7,5.7,0,0,0,.14-2.56c-.35-1.6-1.64-2.79-2.87-3.87a623.14,623.14,0,0,1-45.86-44.93,10.76,10.76,0,0,0-3.53-2.89,5.78,5.78,0,0,0-2.26-.43,18.33,18.33,0,0,0,1.23-3.73,4.18,4.18,0,0,0,0-2.3,4.36,4.36,0,0,0-1.22-1.64A74.59,74.59,0,0,0,166.16,161.17Z"/>
          <path class="cls-11" d="M154.07,102.1C147.46,96,140,90.88,133.1,85c-9.51-8.08-17.78-17.52-27.54-25.33-3-2.37-10.61-9.55-14.61-9-2.4.35-4.1,2.77-5.19,5.49,2.43,2.32,4.85,4.64,7.24,7a71.92,71.92,0,0,1,9.23,10.36,37.78,37.78,0,0,0,3.57,4.91,7.62,7.62,0,0,0,5.29,2.64,6.74,6.74,0,0,0,2.08-.36c1,3.9,5.29,8.06,7.66,10.39,4.06,4,8.75,7.28,13.18,10.85a130.81,130.81,0,0,1,23.36,24.41c2.48,3.38,5,7.08,9,8.49a11.62,11.62,0,0,0,4,.62c.48,3.71,4.69,7.7,7,9.95A138.66,138.66,0,0,0,189,154.71a153.28,153.28,0,0,1,27.14,26.85c2.05,2.61,4.18,5.42,7.27,6.62a9.23,9.23,0,0,0,3.27.6c.05,4.35,4.8,8.37,7.74,10.77,7.14,5.83,14.79,11.06,21.48,17.41a173.33,173.33,0,0,1,12.65,13.88l6.17,7.29a15.35,15.35,0,0,0,4.62,4.15c3,1.5,6.76.83,9.63-.94a14.42,14.42,0,0,0,1.35-1L257.86,210c-8.94-8.38-17.9-16.77-26.15-25.84-6.65-7.3-12.85-15-20.05-21.79-6.81-6.39-14.46-11.84-21.19-18.31C177.1,131.22,167.67,114.7,154.07,102.1Z"/>
          <path class="cls-11" d="M127.42,82.26,100.07,57.17c-3.59-3.29-6.33-8-11.61-6.52a13.49,13.49,0,0,0-5.31,3.05q5,4.72,9.85,9.52a71.92,71.92,0,0,1,9.23,10.36,37.78,37.78,0,0,0,3.57,4.91,7.62,7.62,0,0,0,5.29,2.64,6.74,6.74,0,0,0,2.08-.36c1,3.9,5.29,8.06,7.66,10.39,4.06,4,8.75,7.28,13.18,10.85a130.81,130.81,0,0,1,23.36,24.41c2.48,3.38,5,7.08,9,8.49a11.62,11.62,0,0,0,4,.62c.48,3.71,4.69,7.7,7,9.95A138.66,138.66,0,0,0,189,154.71a153.28,153.28,0,0,1,27.14,26.85c2.05,2.61,4.18,5.42,7.27,6.62a9.23,9.23,0,0,0,3.27.6c.05,4.35,4.8,8.37,7.74,10.77,7.14,5.83,14.79,11.06,21.48,17.41a173.33,173.33,0,0,1,12.65,13.88l6.17,7.29a15.35,15.35,0,0,0,4.62,4.15,9.4,9.4,0,0,0,7.43.12,21,21,0,0,0-1.64-1.76L214.61,170.5c-5.26-5.23-10.51-10.47-16-15.48-6.32-5.8-12.91-11.3-18.86-17.47-6.86-7.13-12.8-15.08-19.29-22.56C150.32,103.27,138.85,92.75,127.42,82.26Z"/>
          <g>
            <g>
              <path class="cls-5" d="M240,243.43c.42,1.56,1.75,2.66,3,3.68a270,270,0,0,1,31.46,30c2.75,3.09,5.82,6.45,9.92,7a12.77,12.77,0,0,0,7.67-1.84,26,26,0,0,0,12.42-15.35,5.24,5.24,0,0,0,.13-3.49,5.84,5.84,0,0,0-1.67-2c-12-10.51-23.78-21.28-33.92-33.56-1.38-1.67-2.8-3.43-4.79-4.29-3.16-1.36-6.82-.06-9.79,1.68a33.86,33.86,0,0,0-10,8.92C242.75,236.5,239.19,240.29,240,243.43Z"/>
              <path class="cls-9" d="M262.79,223.39c0-.09,0-.17,0-.25-2.79-.52-5.81.62-8.32,2.1a33.86,33.86,0,0,0-10,8.92c-1.75,2.34-5.31,6.13-4.47,9.27a4.48,4.48,0,0,0,.49,1.12,7.6,7.6,0,0,0,2.55-.17c3.34-.75,6.21-2.84,8.75-5.14a51.24,51.24,0,0,0,9-10.68A10.8,10.8,0,0,0,262.79,223.39Z"/>
              <path class="cls-9" d="M302,265.56a16.66,16.66,0,0,1-2.52,6.8,23.27,23.27,0,0,1-9.74,9.3,15.86,15.86,0,0,1-6.34,1.58,8.78,8.78,0,0,1-2.06-.19,9.31,9.31,0,0,0,3.11,1,12.77,12.77,0,0,0,7.67-1.84,26,26,0,0,0,12.42-15.35,5.24,5.24,0,0,0,.13-3.49,5.84,5.84,0,0,0-1.67-2l-1.21-1.07.09.93A22.82,22.82,0,0,1,302,265.56Z"/>
              <path class="cls-6" d="M299.52,276.09a25.68,25.68,0,0,0,5-9.22,5.24,5.24,0,0,0,.13-3.49,5.94,5.94,0,0,0-1.67-2c-12-10.51-23.78-21.28-33.92-33.56-1.38-1.67-2.8-3.43-4.79-4.29-3-1.3-6.54-.15-9.44,1.48.32.26.64.51.94.78,4.78,4.31,6.58,11,10.23,16.28,4,5.73,9.93,9.67,15.31,14.09a95.73,95.73,0,0,1,14.11,14.28C296.85,272.29,298.2,274.18,299.52,276.09Z"/>
              <path class="cls-6" d="M304.5,266.87a5.24,5.24,0,0,0,.13-3.49,5.94,5.94,0,0,0-1.67-2c-12-10.51-23.78-21.28-33.92-33.56-1.38-1.67-2.8-3.43-4.79-4.29a8.25,8.25,0,0,0-5.31-.23c6.67,3.64,10.41,10.88,15.34,16.68,3.45,4.07,7.57,7.5,11.51,11.09a176.54,176.54,0,0,1,17.65,18.63A22.29,22.29,0,0,0,304.5,266.87Z"/>
              <path class="cls-7" d="M284.41,284.06a8.73,8.73,0,0,0,1.91,0c-1-.5-1.89-.94-2.2-1.14a50.15,50.15,0,0,1-5.75-4.28,109.52,109.52,0,0,1-8.52-8.85A182.72,182.72,0,0,0,243,245.63a16.9,16.9,0,0,0-2.7-1.67,8.87,8.87,0,0,0,2.77,3.15,270,270,0,0,1,31.46,30C277.24,280.16,280.31,283.52,284.41,284.06Z"/>
              <path class="cls-8" d="M260.9,257.2a105.31,105.31,0,0,1,11,10.89c3.51,4,6.92,8.52,11.83,10.64a5.81,5.81,0,0,0,2.57.58,2.58,2.58,0,0,0,2.18-1.31c.54-1.13-.09-2.47-.82-3.49-2.25-3.19-5.46-5.55-8.47-8-6.65-5.47-12.55-11.77-19.06-17.39a20.29,20.29,0,0,0-5.16-3.53,4.29,4.29,0,0,0-2.89-.37c-3.63,1.1,0,4.3,1.29,5.5C255.73,253,258.37,255,260.9,257.2Z"/>
              <path class="cls-10" d="M261,223a14.57,14.57,0,0,0-6.52,2.21,33.86,33.86,0,0,0-10,8.92c-1.45,1.93-4.1,4.86-4.51,7.59a10.05,10.05,0,0,0,4.34.11,13.61,13.61,0,0,0,4.11-2,35.32,35.32,0,0,0,10.95-11.41,11.11,11.11,0,0,0,1.61-4A5.46,5.46,0,0,0,261,223Z"/>
            </g>
            <g>
              <path class="cls-5" d="M189.11,192.43a10.52,10.52,0,0,0,3,4.59c11.68,12.37,25.8,22.4,36.39,35.72,2.72,3.41,5.6,7.29,9.88,8.1,3.5.67,7-1,10-2.89a33.45,33.45,0,0,0,12.53-14.07,9.49,9.49,0,0,0,.92-3.19c.25-3.73-3-6.66-5.91-9-12.31-9.83-24.32-20.12-35-31.66-3.33-3.59-7.28-7.61-12.16-7.23-3.34.26-6.11,2.57-8.64,4.77C195.91,181.21,187.55,185.78,189.11,192.43Z"/>
              <path class="cls-9" d="M208.7,172.81c-3.34.26-6.11,2.57-8.64,4.77-4.15,3.63-12.51,8.2-10.95,14.85a5.38,5.38,0,0,0,.34.95,7.63,7.63,0,0,0,3.64-.42,38.75,38.75,0,0,0,15.11-9.17,19.47,19.47,0,0,0,4.88-7,11.44,11.44,0,0,0,.62-2.84A9.21,9.21,0,0,0,208.7,172.81Z"/>
              <path class="cls-9" d="M259.27,222.52a23.15,23.15,0,0,1-5.74,8.5,27,27,0,0,1-11,6.81,19.93,19.93,0,0,1-5.84.84c-.58,0-2.21-.42-3.5-.61a10.77,10.77,0,0,0,5.18,2.78c3.5.67,7-1,10-2.89a33.45,33.45,0,0,0,12.53-14.07,9.49,9.49,0,0,0,.92-3.19,7.46,7.46,0,0,0-1.77-5A14.86,14.86,0,0,1,259.27,222.52Z"/>
              <path class="cls-6" d="M220.86,180c-3.33-3.59-7.28-7.61-12.16-7.23a8.67,8.67,0,0,0-2.37.53,8.09,8.09,0,0,0,.36,1.47c3.58,10.17,12,17.74,20,24.95,3,2.69,6,5.4,8.86,8.18a162.45,162.45,0,0,1,14.74,15.74q3,3.76,5.65,7.81a29.46,29.46,0,0,0,5-7.61,9.49,9.49,0,0,0,.92-3.19c.25-3.73-3-6.66-5.91-9C243.6,201.87,231.59,191.58,220.86,180Z"/>
              <path class="cls-6" d="M260,225.77c.34-.62.66-1.25.94-1.89a9.49,9.49,0,0,0,.92-3.19c.25-3.73-3-6.66-5.91-9-12.31-9.83-24.32-20.12-35-31.66-3.33-3.59-7.28-7.61-12.16-7.23a8.29,8.29,0,0,0-.87.13,44.25,44.25,0,0,0,8.35,10.54c3.9,3.88,8,7.56,12.15,11.17,7.35,6.42,14.87,12.68,21.73,19.63a111.94,111.94,0,0,1,9.37,10.7C259.6,225.2,259.78,225.48,260,225.77Z"/>
              <path class="cls-7" d="M189.85,194.19a15.52,15.52,0,0,0,2.23,2.83c11.68,12.37,25.8,22.4,36.39,35.72,2.34,2.93,4.8,6.2,8.17,7.58-.77-.63-1.62-1.21-1.92-1.5a82.49,82.49,0,0,1-8.39-9.8c-1.45-1.86-2.9-3.71-4.45-5.49a125,125,0,0,0-11.59-11.19Z"/>
              <path class="cls-8" d="M224.08,222.87c3.27,3.77,6.51,7.79,10.95,10.06.51.25,1.26.42,1.54-.07a1,1,0,0,0,.05-.74,10.79,10.79,0,0,0-1.83-3.82c-1.33-2-2.82-3.77-4.33-5.57a198.06,198.06,0,0,0-17.81-18.49,73.17,73.17,0,0,0-9.19-7.36c-.77-.5-2.61-2.14-3.63-1.45-.74.51-.5,1.91-.34,2.61.73,3.16,4.15,4.92,6.46,6.89,3.07,2.61,6.05,5.34,8.93,8.16Q219.67,217.8,224.08,222.87Z"/>
              <path class="cls-10" d="M208.7,172.81c-3.34.26-6.11,2.57-8.64,4.77-3.88,3.39-11.44,7.61-11.13,13.58,1.69.71,3.67.12,5.33-.62a37.33,37.33,0,0,0,14.85-12.11,8.94,8.94,0,0,0,1.93-4.26A5.25,5.25,0,0,0,211,173,8.17,8.17,0,0,0,208.7,172.81Z"/>
            </g>
            <g>
              <path class="cls-5" d="M129.69,133.59c1.38,3.17,3.86,5.7,6.38,8.06,4.22,3.93,8.71,7.56,13,11.39,12,10.62,22.7,22.67,33.69,34.37a6.73,6.73,0,0,0,2.31,1.84,6.13,6.13,0,0,0,2.95.21A28.36,28.36,0,0,0,209.44,175c1-1.83,1.79-3.92,1.37-5.95-.47-2.31-2.37-4-4.16-5.53Q190.47,149.69,175.06,135c-4.77-4.56-9.52-9.22-13.21-14.68-2.47-3.65-4.89-8-9.16-9.06-3.6-.91-7.3.88-10.39,2.93-4.08,2.72-7.46,6.16-11.09,9.42C128.22,126.27,128.06,129.89,129.69,133.59Z"/>
              <path class="cls-9" d="M152.1,111.14c-3.41-.58-6.88,1.09-9.8,3-4.08,2.72-7.46,6.16-11.09,9.42-2.56,2.29-3,5.28-2.1,8.41a7.59,7.59,0,0,0,3.28-.53A37.5,37.5,0,0,0,149.3,119.2C151.1,116.88,152.65,114,152.1,111.14Z"/>
              <path class="cls-9" d="M207.9,172a16,16,0,0,1-2.22,4,31.37,31.37,0,0,1-15.6,11.42,13.93,13.93,0,0,1-6.65.63,5.28,5.28,0,0,0,1.68,1.18,6.13,6.13,0,0,0,2.95.21A28.36,28.36,0,0,0,209.44,175c1-1.83,1.79-3.92,1.37-5.95a7.84,7.84,0,0,0-2.25-3.79A16.46,16.46,0,0,1,207.9,172Z"/>
              <path class="cls-6" d="M207,178.69a26.28,26.28,0,0,0,2.41-3.66c1-1.83,1.79-3.92,1.37-5.95-.47-2.31-2.37-4-4.16-5.53Q190.47,149.69,175.06,135c-4.77-4.56-9.52-9.22-13.21-14.68-2.47-3.65-4.89-8-9.16-9.06a9.73,9.73,0,0,0-5.71.48c-.82,2.79.66,5.83,2.25,8.35a98.4,98.4,0,0,0,6.48,9.12c12.35,15.43,29,26.76,43.24,40.46,1.93,1.86,3.82,3.76,5.58,5.77C205.43,176.45,206.22,177.59,207,178.69Z"/>
              <path class="cls-6" d="M175.06,135c-4.77-4.56-9.52-9.22-13.21-14.68-2.47-3.65-4.89-8-9.16-9.06a8,8,0,0,0-2.38-.21,2.84,2.84,0,0,0,.09.42c.88,3.36,2.87,6.3,4.87,9.14a143.6,143.6,0,0,0,11,14.15A123.83,123.83,0,0,0,178.07,146c7.39,6.27,15.23,12,22.49,18.44a107.82,107.82,0,0,1,9.48,9.4,7.81,7.81,0,0,0,.77-4.72c-.47-2.31-2.37-4-4.16-5.53Q190.47,149.69,175.06,135Z"/>
              <path class="cls-7" d="M171.94,174.2q-6.75-7-13.49-14.11c-2-2.12-4.06-4.24-6.23-6.23-7.19-6.6-15.93-11.79-22-19.27a28,28,0,0,0,5.89,7.06c4.22,3.93,8.71,7.56,13,11.39,12,10.62,22.7,22.67,33.69,34.37a6.73,6.73,0,0,0,2.31,1.84l.25.07c-.25-.19-.48-.37-.65-.53a84.65,84.65,0,0,1-6.23-7.4C176.42,178.89,174.18,176.54,171.94,174.2Z"/>
              <path class="cls-8" d="M137,137c6.23,6.28,13.35,11.62,19.8,17.67,6.82,6.4,12.91,13.6,20.14,19.54a17,17,0,0,0,5.81,3.48,1.21,1.21,0,0,0,1,0,1,1,0,0,0,.38-.71c.32-1.65-.66-3.24-1.64-4.6-4.73-6.6-10.4-12.46-16.06-18.28-6.83-7-13.72-14.08-21.72-19.73a11.15,11.15,0,0,0-5.13-2.36c-1.37-.14-3.46.37-4.14,1.72S136.17,136.17,137,137Z"/>
              <path class="cls-10" d="M150.86,111.53c0-.16,0-.34.08-.51-3-.08-6.05,1.43-8.64,3.15-4.08,2.72-7.46,6.16-11.09,9.42a7.28,7.28,0,0,0-2.53,6c3.74.41,7.49-1.14,10.49-3.42A49.77,49.77,0,0,0,147,118C148.59,116,150.28,114,150.86,111.53Z"/>
            </g>
            <g>
              <path class="cls-5" d="M69.26,76C74.33,81.56,80.41,86.08,86,91.12c11.46,10.37,20.76,22.93,32,33.56,1.69,1.6,3.54,3.22,5.81,3.73a11.35,11.35,0,0,0,4.78-.19,30.68,30.68,0,0,0,19.55-13.89,11.29,11.29,0,0,0,1.87-5c.28-4.52-3.69-8-7.23-10.81A359.39,359.39,0,0,1,96.56,54.79c-2-2.29-4.45-4.79-7.49-4.67-2.13.09-4,1.47-5.59,2.84A101.18,101.18,0,0,0,71.2,65.26c-1.15,1.37-3.8,3.6-4.37,5.26C66.16,72.47,68,74.69,69.26,76Z"/>
              <path class="cls-9" d="M144.82,113.72c-2.62,5.17-7.57,8.86-12.91,11.11A25.25,25.25,0,0,1,121.32,127h-.61a8.7,8.7,0,0,0,3.07,1.43,11.35,11.35,0,0,0,4.78-.19,30.66,30.66,0,0,0,19.55-13.89,11.29,11.29,0,0,0,1.87-5c.2-3.27-1.83-6-4.31-8.33A16.17,16.17,0,0,1,144.82,113.72Z"/>
              <path class="cls-6" d="M96.56,54.79c-2-2.29-4.45-4.79-7.49-4.67a8.33,8.33,0,0,0-4.66,2.09c.07.27.15.55.23.81C86.83,59.92,92,65.4,97.22,70.44c8.62,8.34,17.74,16.19,26.08,24.83a133.18,133.18,0,0,1,13.29,15.84,90.13,90.13,0,0,1,5.54,8.92c.17.31.33.61.48.91a30,30,0,0,0,5.5-6.61,11.29,11.29,0,0,0,1.87-5c.28-4.52-3.69-8-7.23-10.81A359.39,359.39,0,0,1,96.56,54.79Z"/>
              <path class="cls-6" d="M148.54,113.57a10.12,10.12,0,0,0,1.44-4.29c.28-4.52-3.69-8-7.23-10.81A359.39,359.39,0,0,1,96.56,54.79c-2-2.29-4.45-4.79-7.49-4.67a5.71,5.71,0,0,0-1.87.42l0,.07c14.3,22.39,38.56,36.31,56.18,56.2A61.59,61.59,0,0,1,148.54,113.57Z"/>
              <path class="cls-7" d="M91.87,95.07c-1.85-2-3.7-4-5.71-5.9-4-3.71-8.6-6.76-12.74-10.33-2.27-2-4.39-4.06-6.47-6.2A11.11,11.11,0,0,0,69.26,76C74.33,81.56,80.41,86.08,86,91.12c11.46,10.37,20.76,22.93,32,33.56,1.69,1.6,3.54,3.22,5.81,3.73a8,8,0,0,0,1.28.16,7.88,7.88,0,0,1-.91-.53q-1.75-1.25-3.41-2.63a125.14,125.14,0,0,1-11.88-11.83Z"/>
              <path class="cls-9" d="M89.07,50.12c-2.13.09-4,1.47-5.59,2.84A101.18,101.18,0,0,0,71.2,65.26c-1.15,1.37-3.8,3.6-4.37,5.26a2.36,2.36,0,0,0-.13.78,4,4,0,0,0,.41.06A5.35,5.35,0,0,0,70,70.42c4.07-2.41,7.2-6.09,10.24-9.7l8.93-10.59Z"/>
              <path class="cls-8" d="M103.47,101.88c5.28,6,10.24,12.63,17.41,16.09a5.5,5.5,0,0,0,3.31.72,18.54,18.54,0,0,0-4-6.55c-2.46-2.91-5.05-5.7-7.64-8.5l-10-10.73c-3.07-3.31-6.14-6.62-9.42-9.73a37.48,37.48,0,0,0-10.55-7.53c-2.75-1.19-5.51.78-3.44,3.63a11.38,11.38,0,0,0,2.57,1.93c1.52,1.17,2.92,2.52,4.36,3.79A195.15,195.15,0,0,1,103.47,101.88Z"/>
              <path class="cls-10" d="M79.11,61.08c1.37-1.52,4-4.27,4.15-6.3-.17-.18-2.56,1.65-4.49,3.67-1,1.06-2.17,2-3.19,3.07s-2,2.11-2.87,3.22c-.58.71-2.1,2.06-1.91,3.06,1.26.08,3.31-2.06,4.27-2.85A38.89,38.89,0,0,0,79.11,61.08Z"/>
            </g>
            <path class="cls-11" d="M245,202.78c-6.43-5.43-12.68-11.06-18.62-17,.28.78.55,1.57.83,2.35q1.68,4.65,3.43,9.29a84,84,0,0,0,4.24,9.9,75.76,75.76,0,0,0,10.08,14c1.42,1.64,2.87,3.27,4.43,4.78a53.46,53.46,0,0,0,6.56,5.36,30.3,30.3,0,0,0,3.66-5.08,154.8,154.8,0,0,1-11.48-17.81C247.11,206.62,246.09,204.7,245,202.78Z"/>
            <path class="cls-11" d="M255.91,211.7c-8.65-6.9-17.13-14-25.14-21.67.4,1.41.79,2.82,1.19,4.24a72.19,72.19,0,0,0,2.19,6.92,57.58,57.58,0,0,0,4.33,8.5c4.76,8,10.59,15.67,17.89,21.28a29.18,29.18,0,0,0,4.53-7.09,13,13,0,0,0,.72-2q-2-4.55-4.24-9C256.89,212.5,256.4,212.09,255.91,211.7Z"/>
            <g>
              <path class="cls-12" d="M211.68,152.86c6.69,4.87,11.1,12.3,14.19,20s5.06,15.77,8,23.52c7.86,20.89,23.25,39.31,43.52,48.68.11-5.3-3.9-9.46-6.77-13.91-5.58-8.66-7.34-19.17-11.23-28.71a106.68,106.68,0,0,0-7.7-14.81c-4.7-7.81-9.88-15.42-16.48-21.72S220.65,154.49,211.68,152.86Z"/>
              <path class="cls-13" d="M277.27,243.7c-.51-4.67-4-8.5-6.67-12.56-5.58-8.66-7.34-19.17-11.23-28.71a106.68,106.68,0,0,0-7.7-14.81c-4.7-7.81-9.88-15.42-16.48-21.72a60.84,60.84,0,0,0-6.73-5.57c.79.85,1.59,1.69,2.37,2.54a97,97,0,0,1,12.83,18.24c6.65,11.89,11.55,24.63,17.51,36.86C262.65,221,270.62,236.72,277.27,243.7Z"/>
              <path class="cls-14" d="M225.87,172.85c3.1,7.68,5.06,15.77,8,23.52,6.64,17.65,18.67,33.51,34.46,43.67-.89-.65-1.77-1.3-2.59-2q-4.39-3.69-8.41-7.79a103.22,103.22,0,0,1-13.89-17.62,89.26,89.26,0,0,1-6-11.37c-3.63-8.35-5.93-17.21-9.33-25.65s-8.1-16.68-15.39-22.13a10.67,10.67,0,0,0-.93-.61l-.11,0C218.37,157.73,222.78,165.16,225.87,172.85Z"/>
              <path class="cls-13" d="M277.19,243c-11.4-11.49-18.16-25.55-28.35-47.87-11.76-25.75-27.41-37.33-27.57-37.44,0,0,14.48,12.78,26,38.13,10.41,22.8,17.28,37.05,29.14,48.82l.9.45A10.29,10.29,0,0,0,277.19,243Z"/>
            </g>
          </g>
        </g>
      </g>
    </g>
  </g>
</svg>
