<svg id="Layer_1" data-name="Layer 1" xmlns="http://www.w3.org/2000/svg" viewBox="0 0 326.81 247.49"><defs><style>.cls-1{fill:#fffa4d;}.cls-2{fill:#dc093b;}.cls-3{fill:#83142a;}.cls-4{opacity:0.5;}.cls-5,.cls-7{fill:#fff;}.cls-6{opacity:0.7;}.cls-7{opacity:0.3;}.cls-8{fill:#ffd9bc;}.cls-9{fill:#e3a07c;}.cls-10{fill:#ffbf9d;}.cls-11{fill:#875959;}</style></defs><path class="cls-1" d="M233.1,236a119,119,0,0,1-27.81-3.5,74.87,74.87,0,0,1-32.76-16.6c-.5-.43-1-.91-1.56-1.4l-.13-.11-1-1a77.3,77.3,0,0,1-13-16.21,93.64,93.64,0,0,1-88,11.44c-46-17.77-70.68-69.27-54-112.45,12.39-32,45.63-53.57,82.72-53.57,1,0,2.1,0,3.15,0a22.08,22.08,0,0,0,7.25-5.75,5.71,5.71,0,0,0,1.57-4.65,10.41,10.41,0,0,1,.75-19.89,24.93,24.93,0,0,1,6.19-.75,22.22,22.22,0,0,1,12.94,4,21.62,21.62,0,0,1,9.77-4.09,10.48,10.48,0,0,1,9.78,4,18.51,18.51,0,0,1,2.85,6.08h.79c4.14,0,10.27,1.32,16,7.61,3.32,3.61,4.33,9.28,1.5,13.28A10.09,10.09,0,0,1,162,47.14a9.39,9.39,0,0,1-3.39-.65c-1.53.24-2.76,3.26-3.4,5.86-.47,1.92-.62,6.35,1.38,11.73A94.87,94.87,0,0,1,168.35,75.9c2.7-3.21,7.48-6.84,15.6-7.83a10.59,10.59,0,0,1,1.37-.08,10.3,10.3,0,0,1,10.37,12.28,93.25,93.25,0,0,1,30-4.78,120.8,120.8,0,0,1,47.42,10.3c24.9,10.77,41,30.14,43.21,51.92.31,1.48.55,2.94.71,4.37,0,.2,0,.4.05.61a98.79,98.79,0,0,1-.89,18.84l0,.28c-.1.72-.2,1.33-.3,1.94,0,0-.31,1.75-.4,2.23l-.21,1.07-.23,1.13c-.1.48-.2.94-.31,1.4l-.19.84c-.13.52-.26,1.05-.4,1.59l-.16.64c-.15.57-.31,1.15-.47,1.73l-.14.48c-.18.62-.36,1.22-.54,1.82l-.14.45c-.19.61-.39,1.22-.59,1.84l-.14.39c-.22.64-.42,1.23-.64,1.83l-.17.46c-.22.59-.44,1.16-.66,1.73l-.23.59-.64,1.57-.3.7c-.21.48-.41.95-.62,1.41l-.4.88-.58,1.23-.53,1.07-.51,1c-.2.4-.43.83-.66,1.26l-.42.78c-.26.49-.54,1-.81,1.47l-.32.55c-.32.55-.65,1.11-1,1.67l-.19.31c-.39.64-.79,1.25-1.19,1.87l-.09.14a82.07,82.07,0,0,1-10.8,13.29l-.07.06-1.63,1.57-.27.25c-.49.45-1,.89-1.46,1.32l-.52.45-1.23,1-.93.75-.85.68-1.39,1.06-.43.32C268.55,230.86,252,236,233.1,236Z"/><path class="cls-2" d="M98.2,54.29s9.37-.82,17.68-10.61,2.36-21.81-2.95-21.22c0,0,14.44-3.83,14.74,12.38,0,0,4.71-11.79,13-13,0,0,3.83,5,.3,17.09,0,0,10-13.55,20-2.65,0,0-11.79-3.24-15.92,13.56-1.45,5.9-.59,15.91,5.6,25.63C150.65,75.5,133,59.3,98.2,54.29Z"/><path class="cls-3" d="M98.15,54.28a27,27,0,0,0,10.65-4.55A30.81,30.81,0,0,0,113.25,46c.71-.66,1.34-1.39,2-2.11A19.16,19.16,0,0,0,117,41.65a15.7,15.7,0,0,0,2.42-10.88,12.46,12.46,0,0,0-2-5.22,7,7,0,0,0-1.93-1.95,3.76,3.76,0,0,0-2.46-.7h0a.45.45,0,0,1-.48-.4.43.43,0,0,1,.34-.48,15.58,15.58,0,0,1,5.85-.23A10.64,10.64,0,0,1,124,24.16a10.48,10.48,0,0,1,3.12,4.94,19.29,19.29,0,0,1,.83,5.73l-.62-.11a32.11,32.11,0,0,1,2.26-4.26,28.31,28.31,0,0,1,2.87-3.85,19.1,19.1,0,0,1,3.62-3.16,12,12,0,0,1,4.49-1.75h0a.14.14,0,0,1,.15.06,11.42,11.42,0,0,1,1.5,4.18,21.61,21.61,0,0,1,.29,4.4,31,31,0,0,1-.45,4.39l-.45,2.15L141.1,39l-.32-.16A23,23,0,0,1,145,34.67a14.62,14.62,0,0,1,5.37-2.62,9.81,9.81,0,0,1,6,.48,14.71,14.71,0,0,1,4.86,3.54.36.36,0,0,1-.33.59h0a11.33,11.33,0,0,0-6,.45,11.5,11.5,0,0,0-4.9,3.44,17.65,17.65,0,0,0-3.11,5.24c-.19.47-.4.94-.57,1.43l-.43,1.48a17.59,17.59,0,0,0-.69,3,31.23,31.23,0,0,0,.92,12.23,40.4,40.4,0,0,0,2,5.84,44.16,44.16,0,0,0,2.92,5.47.52.52,0,0,1-.17.71.51.51,0,0,1-.6,0h0a75.54,75.54,0,0,0-11.73-7.95,110.6,110.6,0,0,0-12.86-6.14c-2.23-.82-4.44-1.72-6.71-2.41-1.14-.36-2.27-.75-3.4-1.09l-3.45-.94-1.72-.48-1.74-.4-3.48-.81c-1.15-.28-2.39-.46-3.57-.71Zm.1,0c2.41.4,4.71.62,7,1.07l3.51.71,1.76.36,1.73.45,3.48.89c1.14.33,2.28.7,3.43,1,2.3.66,4.53,1.53,6.79,2.32a112.12,112.12,0,0,1,13,6,70.48,70.48,0,0,1,12,8l-.78.65a47.08,47.08,0,0,1-3-5.6,40.89,40.89,0,0,1-2.1-6,31.93,31.93,0,0,1-.88-12.65,18.79,18.79,0,0,1,.74-3.11l.46-1.53c.18-.5.4-1,.6-1.48a18.54,18.54,0,0,1,3.31-5.48,12.22,12.22,0,0,1,5.31-3.6,11.93,11.93,0,0,1,6.41-.37l-.36.58a13.89,13.89,0,0,0-4.58-3.44,9.14,9.14,0,0,0-5.61-.54A14.08,14.08,0,0,0,145.29,35a21.22,21.22,0,0,0-4.21,4,.18.18,0,0,1-.26,0,.19.19,0,0,1-.07-.19l.57-2.11.45-2.13a30.17,30.17,0,0,0,.48-4.34A19,19,0,0,0,142,26a11,11,0,0,0-1.47-4l.17.06a11.62,11.62,0,0,0-4.32,1.73,17.67,17.67,0,0,0-3.49,3.14,28,28,0,0,0-2.75,3.84A32.59,32.59,0,0,0,128,35a.33.33,0,0,1-.63-.12,18.63,18.63,0,0,0-.89-5.51,10,10,0,0,0-3-4.54,9.73,9.73,0,0,0-4.95-2.13,15.11,15.11,0,0,0-5.49.23l-.17-.87a4.65,4.65,0,0,1,3.05.85,8.25,8.25,0,0,1,2.14,2.19,13.37,13.37,0,0,1,2.13,5.58A16.13,16.13,0,0,1,117.54,42a18.75,18.75,0,0,1-1.84,2.32,29.16,29.16,0,0,1-2,2.11,31.17,31.17,0,0,1-4.59,3.67,29.89,29.89,0,0,1-5.2,2.71,28.4,28.4,0,0,1-2.78.94c-.47.13-1,.24-1.43.34-.24,0-.48.1-.72.13l-.36,0C98.46,54.29,98.3,54.37,98.25,54.29Z"/><path class="cls-2" d="M174.82,157.72c-15,38.8-62.81,56.49-102.26,41.23s-63-60.19-48-99,62.9-56.77,102.35-41.52S189.82,118.92,174.82,157.72Z"/><path class="cls-3" d="M174.86,157.74A68.65,68.65,0,0,1,158,182.92a77.84,77.84,0,0,1-25.72,16.18,84,84,0,0,1-59.92.32A84.32,84.32,0,0,1,28,159.07a77.42,77.42,0,0,1-8.26-29.34A68.65,68.65,0,0,1,41.3,74.46,78.71,78.71,0,0,1,67.13,58.35,83.69,83.69,0,0,1,127,58.21a83.85,83.85,0,0,1,44.08,40.37,77.93,77.93,0,0,1,8.22,29.21A68.62,68.62,0,0,1,174.86,157.74Zm-.09,0a68.52,68.52,0,0,0,4.34-29.9,77.43,77.43,0,0,0-8.25-29.12,83.51,83.51,0,0,0-44.07-40A83.16,83.16,0,0,0,67.36,59,78,78,0,0,0,41.8,75a67.7,67.7,0,0,0-21.2,54.67,76.75,76.75,0,0,0,8.25,29,82.53,82.53,0,0,0,103.27,40,77.44,77.44,0,0,0,25.69-15.91A68.67,68.67,0,0,0,174.77,157.7Z"/><g class="cls-4"><path class="cls-5" d="M33.17,115.55A64,64,0,0,1,39.62,94,67.1,67.1,0,0,1,53,75.76,65.27,65.27,0,0,1,71.79,63.2a50.7,50.7,0,0,1,5.29-2.05l2.7-.85,1.35-.43c.45-.12.92-.21,1.38-.31L85.28,59a26.17,26.17,0,0,1,2.78-.52l5.61-.66A73.67,73.67,0,0,0,72.11,63.9,66.71,66.71,0,0,0,53.7,76.48,68.47,68.47,0,0,0,40.3,94.32c-.23.41-.46.81-.68,1.23L39,96.82l-1.16,2.56a26.69,26.69,0,0,0-1,2.61l-1,2.64c-.62,1.77-1,3.6-1.58,5.4S33.57,113.71,33.17,115.55Z"/></g><g class="cls-4"><path class="cls-5" d="M123.91,67.16a76.66,76.66,0,0,1-.27,13.8,121.42,121.42,0,0,1-2.21,13.66c-.24,1.13-.56,2.24-.84,3.36s-.57,2.23-.91,3.33l-1,3.32c-.35,1.1-.74,2.19-1.13,3.27-.73,2.19-1.63,4.31-2.48,6.45s-1.9,4.2-2.89,6.28c1.64-4.3,3.3-8.59,4.64-13s2.6-8.79,3.61-13.26,1.81-9,2.43-13.52c.32-2.27.54-4.55.72-6.84S123.9,69.46,123.91,67.16Z"/></g><g class="cls-4"><path class="cls-5" d="M136,70.87a46.9,46.9,0,0,1,2.1,5.55c.56,1.9,1.06,3.82,1.46,5.77s.69,3.91.94,5.88l.31,3,.17,3a74.81,74.81,0,0,1-.55,11.88c-.21,2-.63,3.92-1,5.87-.17,1-.46,1.92-.71,2.88s-.51,1.91-.78,2.86a110.5,110.5,0,0,0,1.71-11.69A84.11,84.11,0,0,0,140,94a80.81,80.81,0,0,0-1.18-11.71A73.39,73.39,0,0,0,136,70.87Z"/></g><g class="cls-6"><path class="cls-3" d="M54,134.15A75.22,75.22,0,0,0,53.72,154,58.51,58.51,0,0,0,59.4,173a54.49,54.49,0,0,0,11.77,15.84A39.93,39.93,0,0,0,75,192l2,1.5,2.11,1.31a45.43,45.43,0,0,0,9,4.31,42.65,42.65,0,0,1-9.22-3.89L76.63,194l-2-1.46a42.34,42.34,0,0,1-3.93-3.15,53.41,53.41,0,0,1-12.14-16A57.17,57.17,0,0,1,53,154.12a40,40,0,0,1-.31-5l-.08-2.51c0-.84.1-1.67.15-2.51l.17-2.5c0-.42,0-.84.1-1.25l.19-1.24Z"/></g><g class="cls-6"><path class="cls-3" d="M81.4,147.41a68.71,68.71,0,0,0-1,11.26,71.71,71.71,0,0,0,.68,11.25,69.45,69.45,0,0,0,2.28,11,89.6,89.6,0,0,0,3.8,10.66c-.44-.84-.88-1.68-1.3-2.53a27.5,27.5,0,0,1-1.23-2.57c-.72-1.76-1.46-3.51-2-5.33a62.49,62.49,0,0,1-2.53-11.13,64,64,0,0,1-.45-11.41c.1-1.9.3-3.79.55-5.67A45.11,45.11,0,0,1,81.4,147.41Z"/></g><g class="cls-6"><path class="cls-3" d="M97.76,199.57a32.3,32.3,0,0,0,8.51-1.91,59,59,0,0,0,8-3.46,68.35,68.35,0,0,0,14.33-9.83,63.15,63.15,0,0,0,11.33-13.18,66,66,0,0,0,7.32-15.83,61.34,61.34,0,0,1-2.69,8.37,64.49,64.49,0,0,1-4,7.87,61.31,61.31,0,0,1-11.31,13.51,66,66,0,0,1-14.66,9.78,59.4,59.4,0,0,1-8.2,3.23A30.11,30.11,0,0,1,97.76,199.57Z"/></g><g class="cls-6"><path class="cls-3" d="M132.24,147.85A55.46,55.46,0,0,1,128.67,160a68,68,0,0,1-5.88,11.25,64.75,64.75,0,0,1-7.88,10c-.75.74-1.44,1.55-2.24,2.24l-2.37,2.12c-.78.71-1.64,1.33-2.48,2s-1.7,1.26-2.55,1.88a88.09,88.09,0,0,0,9.08-8.72c1.43-1.54,2.71-3.19,4-4.82.64-.83,1.22-1.7,1.83-2.55l.91-1.28.83-1.33c.56-.88,1.17-1.74,1.68-2.65l1.56-2.72,1.43-2.8c.47-.94.89-1.9,1.35-2.84.87-1.91,1.65-3.85,2.37-5.83A62.57,62.57,0,0,0,132.24,147.85Z"/></g><path class="cls-3" d="M145.05,39.55a37.81,37.81,0,0,0-5.75,9.29A34.7,34.7,0,0,0,137.55,54a31.15,31.15,0,0,0-.88,5.34.46.46,0,0,1-.49.43.48.48,0,0,1-.39-.28,33.14,33.14,0,0,1-2.47-8.1,34.24,34.24,0,0,1-.3-8.46,35.18,35.18,0,0,1,1.81-8.24,32.15,32.15,0,0,1,1.63-3.88,26.21,26.21,0,0,1,2.11-3.63A38.3,38.3,0,0,0,133.87,43a33.35,33.35,0,0,0,.4,8.23,37,37,0,0,0,2.37,7.89l-.89.15a30.81,30.81,0,0,1,1-5.49,31.66,31.66,0,0,1,2-5.2,32.24,32.24,0,0,1,2.8-4.79A28.15,28.15,0,0,1,145.05,39.55Z"/><path class="cls-7" d="M58.78,83.75S69.79,66.34,89.93,61a6,6,0,0,1,3.08,0c1.57.44,3.17,1.68,1.31,5.17-2.72,5.11,4.41,4.51,10.28,1.45,5.38-2.81,10.91-3.54,10.23,3.21C114,78.7,101.48,105.56,93,95.55c-7.44-8.74-11.69-15.34-20-11.13C65.46,88.16,55.67,90.16,58.78,83.75Z"/><g class="cls-4"><path class="cls-5" d="M122.31,35.28a13.42,13.42,0,0,1-.13,5.28,15,15,0,0,1-2.08,5,13.35,13.35,0,0,1-3.72,3.95A16.05,16.05,0,0,1,114,50.73a15.82,15.82,0,0,1-2.59.72.09.09,0,0,1-.1-.07.11.11,0,0,1,0-.08h0a24.25,24.25,0,0,1,2.09-1.57c.33-.28.67-.53,1-.79a8.26,8.26,0,0,0,1-.79c.32-.27.63-.53,1-.79s.61-.55.93-.82A12.74,12.74,0,0,0,119,44.76a14.11,14.11,0,0,0,2.36-4.41,13.84,13.84,0,0,0,.75-5h0a.08.08,0,0,1,.07-.09A.1.1,0,0,1,122.31,35.28Z"/></g><path class="cls-2" d="M163.4,117.4c-18.43,27.47-9,92.6,44.33,105,71.09,16.54,101.12-36.67,99-79.2C301.93,99.92,209.34,56.62,163.4,117.4Z"/><path class="cls-8" d="M189.67,94c23.82-11.81,52.81-10.13,79.33,1.35C307.53,112,316.63,148.26,294,171.72,272.63,193.77,238,208.83,194,188.93c-28.94-13.09-47.93-47.32-28.68-74.85l.42.22a17.4,17.4,0,0,0-20.51-3.63s2.47-12.9,17.25-8.87c0,0-5.92-3.63-6.5-15.33,0,0,10.13-.81,17.92,4.84,0,0-1.88-11.29,11.3-12.91,0,0-8.34,10.09,4.75,15.73Z"/><path class="cls-9" d="M177.37,174.14a37.36,37.36,0,0,0,5.63,4.72,63.46,63.46,0,0,0,6.24,3.86,92.14,92.14,0,0,0,13.39,6,96.9,96.9,0,0,0,28.65,5.68,79.61,79.61,0,0,0,28.87-3.82,78.71,78.71,0,0,0,13.4-5.9,89.92,89.92,0,0,0,12.08-8.36,84.19,84.19,0,0,1-11.84,8.78,77.48,77.48,0,0,1-13.39,6.21A70.42,70.42,0,0,1,246,194.69a84.8,84.8,0,0,1-14.77.68,95.31,95.31,0,0,1-28.87-6A91.44,91.44,0,0,1,189,183.14a63,63,0,0,1-6.16-4.07A34.59,34.59,0,0,1,177.37,174.14Z"/><path class="cls-9" d="M216.44,120.36a13.78,13.78,0,0,0,5.31,4.28,35.06,35.06,0,0,0,6.43,2.44c4.42,1.37,8.84,2.83,13.15,4.61a61.69,61.69,0,0,1,6.27,3.08,46.11,46.11,0,0,1,5.87,3.82c.91.72,1.83,1.43,2.7,2.22s1.72,1.56,2.55,2.37a63.23,63.23,0,0,1,4.62,5.21A70.31,70.31,0,0,0,253,139.2a60.63,60.63,0,0,0-12.07-6.59c-4.23-1.83-8.63-3.28-13-4.79a35.66,35.66,0,0,1-6.43-2.75,19.18,19.18,0,0,1-2.85-2A9,9,0,0,1,216.44,120.36Z"/><path class="cls-9" d="M209.82,125a126.59,126.59,0,0,1,11.6,7.89c1.88,1.41,3.65,3,5.49,4.35.9.72,1.89,1.32,2.84,2s2,1.21,3,1.73a39.22,39.22,0,0,0,6.36,2.71c2.19.75,4.47,1.26,6.71,2a36,36,0,0,1,6.55,2.62,29.41,29.41,0,0,1,5.65,4.18,32.39,32.39,0,0,0-5.87-3.74,35.08,35.08,0,0,0-6.54-2.32c-2.25-.59-4.53-1.13-6.78-1.84a40.13,40.13,0,0,1-6.55-2.7c-1-.55-2-1.19-3-1.81s-2-1.32-2.87-2.07c-1.86-1.47-3.62-3-5.41-4.46s-3.64-2.92-5.5-4.33S211.71,126.36,209.82,125Z"/><path class="cls-9" d="M238.55,88.89a107.57,107.57,0,0,1,19.74,4.77,101.16,101.16,0,0,1,18.54,8.42,66.7,66.7,0,0,1,15.79,12.85,54.19,54.19,0,0,1,5.89,8.32,47.09,47.09,0,0,1,3.84,9.41,51.23,51.23,0,0,0-4.26-9.16,54.66,54.66,0,0,0-6-8.06,70.28,70.28,0,0,0-7.4-6.83,76.85,76.85,0,0,0-8.33-5.67A106.43,106.43,0,0,0,258,94.38c-3.17-1.17-6.38-2.19-9.64-3.1S241.87,89.54,238.55,88.89Z"/><path class="cls-10" d="M164.91,114.71l.84-.41-.42-.22Z"/><path class="cls-9" d="M190,94.13a2.25,2.25,0,0,1-.12-.21l-.17.08c-12.66-5.67-4.46-15.6-4.46-15.6C172,80,173.91,91.31,173.91,91.31,166.12,85.66,156,86.47,156,86.47c.58,11.7,6.5,15.33,6.5,15.33-14.78-4-17.25,8.87-17.25,8.87a17.4,17.4,0,0,1,20.51,3.63s4.44,3.78,9.09-1.07c3.22-3.36,2.72-6,7.52-5.78C188,107.72,195.08,102.34,190,94.13Z"/><path class="cls-11" d="M157.24,105.83s5.74,0,10.3,5.79c3.43,4.36,9.27-.14,5.37-4.58C172.91,107,168.37,101.53,157.24,105.83Z"/><path class="cls-11" d="M173.23,95.48a14,14,0,0,0,3.49,8.07c2.8,3,5.54,1.75,6-.14,0,0,5.61.14,5.78-5.38,0,0-6.87-1.88-8.36-8.33a8.37,8.37,0,0,0-1.62,9A6.61,6.61,0,0,1,173.23,95.48Z"/><path class="cls-3" d="M189.64,94a78.52,78.52,0,0,1,22.46-7.25,90,90,0,0,1,23.64-.59A111.37,111.37,0,0,1,258.9,91a94.86,94.86,0,0,1,21.51,9.9A61.94,61.94,0,0,1,297.72,117a45.32,45.32,0,0,1,8.48,21.91,40.69,40.69,0,0,1-4.72,22.92,45.19,45.19,0,0,1-6.94,9.59c-1.36,1.44-2.8,2.78-4.2,4.18s-3,2.6-4.46,3.9A85.78,85.78,0,0,1,265.78,192a77.88,77.88,0,0,1-22.86,6.17l-2.95.33c-1,.12-2,.08-3,.12l-3,.07-1.49,0c-.49,0-1-.05-1.48-.08l-5.93-.37-5.88-.86-1.47-.22c-.49-.09-1-.22-1.45-.33l-2.89-.68-2.9-.68c-1-.21-1.89-.58-2.84-.87l-5.65-1.82-5.49-2.25A60.63,60.63,0,0,1,186,185.18a66.34,66.34,0,0,1-9.48-7.18,62.42,62.42,0,0,1-14.24-18.89,47.25,47.25,0,0,1-4.87-23,41.74,41.74,0,0,1,7.93-22s.05,0,.07,0a0,0,0,0,1,0,.07,44.27,44.27,0,0,0-5.32,10.49,40.73,40.73,0,0,0-2.2,11.51,46.61,46.61,0,0,0,5,22.68,61.33,61.33,0,0,0,14.23,18.5A65.47,65.47,0,0,0,197,189.58l5.45,2.22,5.6,1.8c.94.28,1.85.65,2.81.85l2.86.67,2.86.68c.48.11,1,.24,1.43.33l1.46.22,5.8.88,5.87.39c.48,0,1,.08,1.46.08l1.47,0,2.94-.06c1-.05,2,0,2.93-.11l2.92-.31a79.51,79.51,0,0,0,22.65-5.94,85.77,85.77,0,0,0,20.07-12.18c6-5,11.88-10.48,15.6-17.44a40,40,0,0,0,4.07-11,38.35,38.35,0,0,0,.61-11.71,44.87,44.87,0,0,0-8.57-21.6A61.07,61.07,0,0,0,280,101.58a100.29,100.29,0,0,0-21.37-9.72,111.48,111.48,0,0,0-23-5.06c-15.59-1.76-31.74.46-46,7.25a.05.05,0,0,1-.07,0A0,0,0,0,1,189.64,94Z"/><path class="cls-3" d="M163.49,117.45a54.45,54.45,0,0,0-3.71,7.93,67.43,67.43,0,0,0-2.45,8.37,76.29,76.29,0,0,0-1.75,17.3,82.15,82.15,0,0,0,1.95,17.27A83.52,83.52,0,0,0,163,184.79c4.74,10.55,12,20.16,21.56,26.9a59.69,59.69,0,0,0,7.45,4.57,67,67,0,0,0,8,3.46,90.77,90.77,0,0,0,17,4c11.53,1.66,23.36,1.58,34.62-1.19a67.09,67.09,0,0,0,30.11-16.29,76.2,76.2,0,0,0,18.92-28.75,92,92,0,0,0,5.9-34.27.1.1,0,0,1,.1-.11.13.13,0,0,1,.11.1,86.5,86.5,0,0,1-4.58,34.84,81.25,81.25,0,0,1-7.68,16,70.92,70.92,0,0,1-11.25,13.79,65.41,65.41,0,0,1-14.48,10.39,69.91,69.91,0,0,1-16.7,6.18c-11.59,2.72-23.68,2.48-35.25.41a105.18,105.18,0,0,1-17.09-4.43,71.13,71.13,0,0,1-15.65-8.12,68.37,68.37,0,0,1-22.7-26.76,76.28,76.28,0,0,1-5.68-16.82A83.1,83.1,0,0,1,154,151.05a73.73,73.73,0,0,1,2.28-17.56,53.53,53.53,0,0,1,7-16.15.11.11,0,0,1,.15,0A.12.12,0,0,1,163.49,117.45Z"/><path class="cls-3" d="M183.82,114.09c-2.6-1.53-6.15-.85-9,1.7-4.37,4-11.71,15-6.14,33,7.52,24.44,32.87,35.62,48.34,39.5,20.13,5,48.6.14,60.9-16.27,0,0,5.36-7.43-.91-9.37-7.57-2.35-28,.42-54.43-14.71C203.49,137.32,192.89,119.42,183.82,114.09Z"/><path class="cls-3" d="M183.79,114.14a6.3,6.3,0,0,0-4.44-.64,9.37,9.37,0,0,0-4.06,2,22.9,22.9,0,0,0-5.43,7.36,31.18,31.18,0,0,0-2.48,18c.15,1.53.54,3,.83,4.52l.62,2.21.31,1.1.4,1.08a46.36,46.36,0,0,0,3.82,8.32A53.55,53.55,0,0,0,185.21,172c9.43,7.85,20.9,13.09,32.79,16a70.46,70.46,0,0,0,18.27,1.71,73.18,73.18,0,0,0,18.17-2.86,52.21,52.21,0,0,0,16.45-8.11c.61-.47,1.25-.91,1.82-1.41l1.68-1.58.84-.78c.28-.27.51-.58.76-.87l1.5-1.75a9,9,0,0,0,1.25-1.91,11.72,11.72,0,0,0,.87-2.11,6,6,0,0,0,.28-2.22,4,4,0,0,0-.22-1.08,3,3,0,0,0-.59-.91c-1-1.12-2.59-1.41-4.07-1.7s-3-.42-4.58-.55c-3.07-.27-6.16-.49-9.24-.85a102.86,102.86,0,0,1-18.2-3.69,96.78,96.78,0,0,1-17.17-7.11,89.58,89.58,0,0,1-8-4.72l-1.93-1.31c-.64-.44-1.24-.93-1.86-1.39-1.25-.92-2.44-1.92-3.63-2.92a149.05,149.05,0,0,1-13.2-13c-2.08-2.28-4.18-4.55-6.34-6.76A38.82,38.82,0,0,0,183.79,114.14Zm.06-.1A39.23,39.23,0,0,1,191,120c2.18,2.19,4.28,4.46,6.42,6.69a145.16,145.16,0,0,0,13.43,12.71c1.19,1,2.39,1.93,3.65,2.82.63.44,1.23.91,1.87,1.34l1.92,1.28a88.93,88.93,0,0,0,8,4.6,102.89,102.89,0,0,0,35,11c3.05.42,6.13.68,9.2,1,1.54.16,3.08.32,4.61.59a9.06,9.06,0,0,1,1.15.25,8,8,0,0,1,1.13.32,4.53,4.53,0,0,1,2,1.28,3.82,3.82,0,0,1,.65,1,4.85,4.85,0,0,1,.24,1.18,6.2,6.2,0,0,1-.32,2.35,11.33,11.33,0,0,1-.9,2.16,9.83,9.83,0,0,1-1.27,2l-1.5,1.79c-.25.29-.48.61-.76.88l-.84.8L273,177.63c-.57.52-1.21,1-1.82,1.45a52.58,52.58,0,0,1-16.54,8.33,74.4,74.4,0,0,1-18.31,3.13A69.12,69.12,0,0,1,217.77,189a90.22,90.22,0,0,1-17.57-6.16,73.37,73.37,0,0,1-15.7-10,52.94,52.94,0,0,1-12-14.21,46.62,46.62,0,0,1-3.78-8.55l-.39-1.1-.3-1.13-.58-2.26c-.27-1.53-.63-3-.75-4.61a32,32,0,0,1,2.92-18.18,24,24,0,0,1,5.58-7.37,9.48,9.48,0,0,1,4.15-2A6.44,6.44,0,0,1,183.85,114Z"/><path class="cls-3" d="M165.72,114.34c-.73-.58-1.41-1.21-2.16-1.75a19,19,0,0,0-2.35-1.44A16.22,16.22,0,0,0,156,109.4a17.41,17.41,0,0,0-5.44,0,17.11,17.11,0,0,0-5.14,1.66h0a.42.42,0,0,1-.58-.19.42.42,0,0,1,0-.29,13.82,13.82,0,0,1,2.38-5.14,10.92,10.92,0,0,1,4.37-3.57,13,13,0,0,1,5.49-1.09c.93,0,1.85.17,2.77.24l2.72.6-.14.32a12.59,12.59,0,0,1-3-3.18,19.65,19.65,0,0,1-2-3.84,26.22,26.22,0,0,1-1.2-4.15c-.15-.71-.24-1.43-.36-2.14l-.21-2.15a.29.29,0,0,1,.26-.32h0a31.53,31.53,0,0,1,9.49.84A26.17,26.17,0,0,1,170,88.54a23.77,23.77,0,0,1,4.2,2.36l-.8.49a12.49,12.49,0,0,1,.36-5A10.61,10.61,0,0,1,176.2,82a12,12,0,0,1,4.15-2.83,6.25,6.25,0,0,1,1.17-.41l1.2-.36c.81-.15,1.63-.27,2.44-.41a.44.44,0,0,1,.51.36.41.41,0,0,1-.09.34l0,0a13,13,0,0,0-2.2,4.19,7.93,7.93,0,0,0-.11,4.65,8.73,8.73,0,0,0,2.62,3.93c.59.55,1.3,1,1.95,1.47L190,94.09h0a.06.06,0,0,1,0,.07.06.06,0,0,1-.07,0l-2.24-1a24.12,24.12,0,0,1-2.07-1.39,8.88,8.88,0,0,1-2.95-4,8.48,8.48,0,0,1-.07-5.06,13.81,13.81,0,0,1,2.26-4.54l.4.73c-.77.15-1.55.29-2.32.45a23,23,0,0,0-2.21.77A10.9,10.9,0,0,0,177,82.66a9.56,9.56,0,0,0-2.18,4,12.62,12.62,0,0,0-.37,4.57h0a.52.52,0,0,1-.81.48,23.27,23.27,0,0,0-4-2.31,27,27,0,0,0-4.37-1.54,32.2,32.2,0,0,0-4.58-.88,31.48,31.48,0,0,0-4.65-.21l.28-.32.13,2.12c.1.7.17,1.41.29,2.11a22.41,22.41,0,0,0,1.08,4.11,18.49,18.49,0,0,0,1.9,3.8,11.48,11.48,0,0,0,2.88,3.05.19.19,0,0,1,0,.25.19.19,0,0,1-.19.07l-2.67-.55-1.36-.09a6.9,6.9,0,0,0-1.36,0,12.63,12.63,0,0,0-5.19,1.22,11.21,11.21,0,0,0-4,3.44,14.28,14.28,0,0,0-2.2,4.81l-.64-.47a17.82,17.82,0,0,1,5.45-1.67,15.89,15.89,0,0,1,5.67.14,16.19,16.19,0,0,1,5.27,2,18.36,18.36,0,0,1,2.31,1.61c.74.58,1.38,1.27,2.06,1.9a0,0,0,1,1-.07.07Z"/><path class="cls-2" d="M187.3,118.19c.14,2.78-3.26,5.83-6.51,5.83s-6.67-2-6.81-4.82,3-5.63,6.3-5.63S187.17,115.41,187.3,118.19Z"/><path class="cls-3" d="M187.41,118.18a6.55,6.55,0,0,1-1.78,4.43,6.9,6.9,0,0,1-4.5,2.44,8.41,8.41,0,0,1-5-1.25,7.35,7.35,0,0,1-2-1.81,4.93,4.93,0,0,1-1-2.62,4.86,4.86,0,0,1,.66-2.65,7.21,7.21,0,0,1,1.67-2,7.31,7.31,0,0,1,4.66-1.71,9.13,9.13,0,0,1,4.58,1.41A5.18,5.18,0,0,1,187.41,118.18Zm-.21,0a3.33,3.33,0,0,0-.85-2,5.4,5.4,0,0,0-1.83-1.31,9.67,9.67,0,0,0-4.35-.75,6.13,6.13,0,0,0-3.78,1.7,4.28,4.28,0,0,0-1.56,3.45,3.93,3.93,0,0,0,2.32,2.77A8.81,8.81,0,0,0,181,123a7.49,7.49,0,0,0,3.87-1.19A4.48,4.48,0,0,0,187.2,118.2Z"/><path class="cls-2" d="M196.71,120.18c1.22,2.6-.71,6.56-3.71,7.57s-6.95.11-8.17-2.49.58-6.3,3.58-7.31S195.49,117.58,196.71,120.18Z"/><path class="cls-3" d="M196.8,120.13a6.36,6.36,0,0,1,.1,4.76,6.22,6.22,0,0,1-3.45,3.81,8.38,8.38,0,0,1-5.14.24,6.4,6.4,0,0,1-4.17-3.2,5.66,5.66,0,0,1,.34-5.13,6.56,6.56,0,0,1,3.82-3.17,9,9,0,0,1,4.77,0A5.71,5.71,0,0,1,196.8,120.13Zm-.19.09a4.39,4.39,0,0,0-3.63-2.33,9.24,9.24,0,0,0-4.35.54,5.39,5.39,0,0,0-2.94,2.79,4.19,4.19,0,0,0-.06,3.76,4.39,4.39,0,0,0,3.15,1.94,8.53,8.53,0,0,0,4-.19,6.24,6.24,0,0,0,3.16-2.35A4.34,4.34,0,0,0,196.61,120.22Z"/><path class="cls-2" d="M206.41,129.05c-1.07,2.56-4.49,3.88-7.55,2.78s-5.39-4.13-4.31-6.69,5.29-4.08,8.35-3S207.48,126.48,206.41,129.05Z"/><path class="cls-3" d="M206.51,129.09a6.62,6.62,0,0,1-8.15,3.66,7.89,7.89,0,0,1-4-3.05,5.92,5.92,0,0,1-.94-2.49,4.46,4.46,0,0,1,.51-2.71,6.69,6.69,0,0,1,4-2.92,8.19,8.19,0,0,1,4.78,0A6,6,0,0,1,206.51,129.09Zm-.2-.08a4.25,4.25,0,0,0-.48-4.16,5.77,5.77,0,0,0-3.42-2.28,6.85,6.85,0,0,0-4,.3,5.18,5.18,0,0,0-2.94,2.4,3.08,3.08,0,0,0,.64,3.24,7.88,7.88,0,0,0,3,2.29,7.1,7.1,0,0,0,3.85.57A4.33,4.33,0,0,0,206.31,129Z"/><path class="cls-2" d="M213.79,136.29c-1.07,2.56-4.49,3.88-7.55,2.78s-5.39-4.13-4.32-6.69,5.3-4.08,8.36-3S214.86,133.72,213.79,136.29Z"/><path class="cls-3" d="M213.88,136.33a6.42,6.42,0,0,1-3.2,3.34,6.49,6.49,0,0,1-4.94.32,7.85,7.85,0,0,1-4-3.05,5.92,5.92,0,0,1-.94-2.49,4.32,4.32,0,0,1,.51-2.71,6.62,6.62,0,0,1,4-2.92,8.16,8.16,0,0,1,4.77,0A6,6,0,0,1,213.88,136.33Zm-.19-.08a4.25,4.25,0,0,0-.48-4.16,5.77,5.77,0,0,0-3.42-2.28,6.85,6.85,0,0,0-4,.3,5.18,5.18,0,0,0-2.94,2.4,3.06,3.06,0,0,0,.63,3.24,7.91,7.91,0,0,0,3,2.29,7,7,0,0,0,3.85.56A4.3,4.3,0,0,0,213.69,136.25Z"/><path class="cls-2" d="M222.2,141.52a6.36,6.36,0,0,1-8.24,3,5.34,5.34,0,0,1-2.61-7c1.08-2.56,4.81-4.15,8-3.41C223.7,135.08,223.27,139,222.2,141.52Z"/><path class="cls-3" d="M222.3,141.56a7.68,7.68,0,0,1-3.16,3.53,6.75,6.75,0,0,1-2.4.86,5.75,5.75,0,0,1-2.66-.24,6.36,6.36,0,0,1-2.32-1.4,6,6,0,0,1-1.48-2.31,6.57,6.57,0,0,1,.48-5.2,7,7,0,0,1,4-3.06,8.34,8.34,0,0,1,4.87-.12,5.49,5.49,0,0,1,2.17,1.21A4,4,0,0,1,223,137,8.92,8.92,0,0,1,222.3,141.56Zm-.2-.09a6.14,6.14,0,0,0,.44-4.38,3.86,3.86,0,0,0-3.15-2.46,7.23,7.23,0,0,0-4.16.39,5.45,5.45,0,0,0-3,2.55,4.52,4.52,0,0,0,0,3.69,4.89,4.89,0,0,0,2.6,2.5,6.13,6.13,0,0,0,3.89.3A5,5,0,0,0,222.1,141.47Z"/><path class="cls-2" d="M231.29,146.74c-1.07,2.57-5,3.82-8.27,2.22-2.9-1.44-3.66-3.87-2.58-6.44s4.53-4,7.56-2.81C232.16,141.31,232.36,144.18,231.29,146.74Z"/><path class="cls-3" d="M231.39,146.78a6.69,6.69,0,0,1-8.07,3.44A7.45,7.45,0,0,1,221.1,149a5.68,5.68,0,0,1-1.64-2.07,5.26,5.26,0,0,1-.4-2.64,6.58,6.58,0,0,1,.74-2.41,6.21,6.21,0,0,1,3.86-3,6.94,6.94,0,0,1,4.69.34,5.28,5.28,0,0,1,3,7.5Zm-.2-.08a4.49,4.49,0,0,0,.06-4.11,5.86,5.86,0,0,0-3.3-2.34,5.77,5.77,0,0,0-3.89,0,4.7,4.7,0,0,0-2.75,2.42,4.85,4.85,0,0,0-.4,1.79,3.32,3.32,0,0,0,.41,1.61,5.66,5.66,0,0,0,2.72,2.21,7.86,7.86,0,0,0,3.8.61A4.08,4.08,0,0,0,231.19,146.7Z"/><path class="cls-2" d="M242.44,150.66c-1.13,2.72-5.65,3.93-9.48,2.08-3.41-1.64-4.39-4.28-3.25-7s5.08-4.12,8.64-2.75C243.22,144.86,243.58,148,242.44,150.66Z"/><path class="cls-3" d="M242.54,150.7a6.3,6.3,0,0,1-3.81,3.28,8.31,8.31,0,0,1-5.31.09,7.91,7.91,0,0,1-4.39-3.35,5.46,5.46,0,0,1-.7-2.87,6.23,6.23,0,0,1,.76-2.73,6.42,6.42,0,0,1,4.42-3.1,8.57,8.57,0,0,1,5.18.54,12.85,12.85,0,0,1,2.2,1.3,6.3,6.3,0,0,1,1.66,2A5.83,5.83,0,0,1,242.54,150.7Zm-.19-.08a4.59,4.59,0,0,0-.18-4.57,7.64,7.64,0,0,0-3.87-2.51,7.26,7.26,0,0,0-4.46-.2,5,5,0,0,0-3.26,2.52,4.65,4.65,0,0,0-.39,2,3.43,3.43,0,0,0,.61,1.8,7.59,7.59,0,0,0,3.33,2.45,10.62,10.62,0,0,0,2.1.63,7.74,7.74,0,0,0,2.26.16A4.45,4.45,0,0,0,242.35,150.62Z"/><path class="cls-2" d="M252,155.56c-1.13,2.72-5.14,4.11-8.38,2.48a4.84,4.84,0,0,1-2.47-6.71,6.11,6.11,0,0,1,7.69-3.1C253,149.84,253.13,152.85,252,155.56Z"/><path class="cls-3" d="M252.09,155.61a6.48,6.48,0,0,1-3.24,3.33,6.63,6.63,0,0,1-5,.36,7.24,7.24,0,0,1-2.27-1.26,5.32,5.32,0,0,1-1.89-4.91,7.3,7.3,0,0,1,.79-2.43,6.8,6.8,0,0,1,8.67-2.89,7.88,7.88,0,0,1,2,1.31,4.63,4.63,0,0,1,1.3,2A6.75,6.75,0,0,1,252.09,155.61Zm-.19-.09a5,5,0,0,0,.18-4.25,5.53,5.53,0,0,0-3.29-2.49,5.46,5.46,0,0,0-6.77,2.65,4.3,4.3,0,0,0-.09,3.59,5.18,5.18,0,0,0,2.69,2.32,7.19,7.19,0,0,0,3.88.53A4.34,4.34,0,0,0,251.9,155.52Z"/><path class="cls-2" d="M262.39,157.2c-.46,2.89-3.94,5.83-7.47,4.83-3.14-.9-5.78-2.42-5.31-6.64.33-2.91,5-4.82,8.18-4.22C262.19,152,262.84,154.31,262.39,157.2Z"/><path class="cls-3" d="M262.49,157.22a7.6,7.6,0,0,1-2.36,4.31,6.83,6.83,0,0,1-2.28,1.38,5.67,5.67,0,0,1-2.78.22,11.85,11.85,0,0,1-2.49-.78,7.8,7.8,0,0,1-2.27-1.54,5.43,5.43,0,0,1-1.4-2.49,7.05,7.05,0,0,1-.15-2.69l0-.33.08-.37a3,3,0,0,1,.25-.71,4.43,4.43,0,0,1,.79-1.18,7,7,0,0,1,2.15-1.55,9.75,9.75,0,0,1,4.95-.94,10.22,10.22,0,0,1,2.43.64,5.81,5.81,0,0,1,2.08,1.39,4.07,4.07,0,0,1,1,2.23A8.85,8.85,0,0,1,262.49,157.22Zm-.21,0a6.35,6.35,0,0,0,.05-2.34,3.28,3.28,0,0,0-1.12-1.94,5.09,5.09,0,0,0-2-1,9.12,9.12,0,0,0-2.23-.33,8.43,8.43,0,0,0-4.26,1.1c-1.28.71-2.3,1.79-2.26,3.05a4.11,4.11,0,0,0,1.32,3.57,6.12,6.12,0,0,0,1.72,1c.32.15.66.27,1,.4a9,9,0,0,0,1,.32,5.69,5.69,0,0,0,4-.46A5.08,5.08,0,0,0,262.28,157.18Z"/><path class="cls-2" d="M269.93,160.09a5.08,5.08,0,0,1-6.06,3.92c-2.54-.73-4.69-2-4.3-5.38.26-2.37,4-3.91,6.63-3.43C269.77,155.86,270.3,157.75,269.93,160.09Z"/><path class="cls-3" d="M270,160.11a6.38,6.38,0,0,1-1.87,3.58,4.86,4.86,0,0,1-4.21,1.4,9.32,9.32,0,0,1-2.06-.64,6,6,0,0,1-1.89-1.29,4.6,4.6,0,0,1-1.17-2.11,5.94,5.94,0,0,1-.11-2.25l0-.26.07-.32a2.37,2.37,0,0,1,.21-.6,3.89,3.89,0,0,1,.67-1,5.87,5.87,0,0,1,1.79-1.27,7.91,7.91,0,0,1,4.08-.74,7.22,7.22,0,0,1,2,.54,4.59,4.59,0,0,1,1.69,1.17,3.39,3.39,0,0,1,.82,1.83A7.56,7.56,0,0,1,270,160.11Zm-.2,0a5.06,5.06,0,0,0,0-1.9,2.59,2.59,0,0,0-.92-1.55,6.09,6.09,0,0,0-3.43-1,6.82,6.82,0,0,0-3.39.9,2.9,2.9,0,0,0-1.73,2.38,3.11,3.11,0,0,0,1.05,2.74,8.79,8.79,0,0,0,2.94,1.38,4.67,4.67,0,0,0,3.13-.27A4,4,0,0,0,269.83,160.08Z"/><path class="cls-2" d="M274.34,169c-3.15-.34-7.1-2.51-6.46-5.41.57-2.58,2.82-4.45,7.4-4.11,3.16.24,5.16,3.76,4.6,6.34C279.4,168,277.5,169.36,274.34,169Z"/><path class="cls-3" d="M274.33,169.12a15.31,15.31,0,0,1-4.33-1,6.41,6.41,0,0,1-2-1.3,4,4,0,0,1-1.18-2.46,5.16,5.16,0,0,1,.63-2.62,5.35,5.35,0,0,1,1.76-1.93,8.25,8.25,0,0,1,4.66-1.19,9.85,9.85,0,0,1,2.35.25,5.43,5.43,0,0,1,2.16,1.18,6.55,6.55,0,0,1,2.11,4.16,4.37,4.37,0,0,1-1.85,4.08A6.82,6.82,0,0,1,274.33,169.12Zm0-.21a4.91,4.91,0,0,0,4-.94,3.91,3.91,0,0,0,1.08-3.61,5.34,5.34,0,0,0-1.94-3.24,4,4,0,0,0-1.65-.76,8.8,8.8,0,0,0-1.94-.05,6.13,6.13,0,0,0-3.5,1.2,4.05,4.05,0,0,0-1.05,1.28,3.82,3.82,0,0,0-.46,1.51,4.07,4.07,0,0,0,1.7,2.88A7.64,7.64,0,0,0,274.36,168.91Z"/><path class="cls-2" d="M181.78,126.23c.15,3.06-3.05,6-6.61,6s-7.21-1.37-7.36-4.42,3.12-7,6.68-7S181.63,123.18,181.78,126.23Z"/><path class="cls-3" d="M181.89,126.23A6.64,6.64,0,0,1,180,131a7,7,0,0,1-4.94,2.32,10.52,10.52,0,0,1-5.3-1.17,5.76,5.76,0,0,1-2.18-2,4.58,4.58,0,0,1-.62-3,8.12,8.12,0,0,1,2.58-4.76,7.08,7.08,0,0,1,4.87-2.12,8.63,8.63,0,0,1,4.84,1.74A6.09,6.09,0,0,1,181.89,126.23Zm-.21,0a4.76,4.76,0,0,0-2.64-3.85,8.6,8.6,0,0,0-4.59-1.06,5.91,5.91,0,0,0-3.92,2,6.69,6.69,0,0,0-1.87,4,3,3,0,0,0,2.08,3,12,12,0,0,0,4.36.92,7.4,7.4,0,0,0,4.21-1.08A4.72,4.72,0,0,0,181.68,126.24Z"/><path class="cls-2" d="M191.93,129.85c.15,3.06-3.05,6-6.62,6s-7.2-1.37-7.35-4.42,3.11-7,6.68-7S191.78,126.8,191.93,129.85Z"/><path class="cls-3" d="M192,129.85a6.63,6.63,0,0,1-1.85,4.76,7,7,0,0,1-5,2.32,10.54,10.54,0,0,1-5.3-1.17,5.73,5.73,0,0,1-2.17-2,4.6,4.6,0,0,1-.62-3,8.16,8.16,0,0,1,2.57-4.76,7.13,7.13,0,0,1,4.88-2.12,8.66,8.66,0,0,1,4.84,1.74A6.08,6.08,0,0,1,192,129.85Zm-.21,0a4.75,4.75,0,0,0-2.63-3.85A8.6,8.6,0,0,0,184.6,125a5.89,5.89,0,0,0-3.92,2,6.69,6.69,0,0,0-1.87,4,3,3,0,0,0,2.07,3,12,12,0,0,0,4.36.92,7.33,7.33,0,0,0,4.21-1.09A4.64,4.64,0,0,0,191.82,129.86Z"/><path class="cls-2" d="M203,134c-.94,2.9-5.07,4.8-8.5,3.81s-6.46-3.28-5.53-6.18,5.48-5.73,8.92-4.74S203.92,131.12,203,134Z"/><path class="cls-3" d="M203.09,134.06a7.25,7.25,0,0,1-3.33,3.9,7.39,7.39,0,0,1-5.38.93,10.33,10.33,0,0,1-4.84-2.52,5.33,5.33,0,0,1-1.53-2.6,4.36,4.36,0,0,1,.42-3,8.8,8.8,0,0,1,4-3.64,7.89,7.89,0,0,1,5.26-.76,8.12,8.12,0,0,1,4.26,2.91A5.54,5.54,0,0,1,203.09,134.06Zm-.2-.07a4.39,4.39,0,0,0-1.28-4.45,8.09,8.09,0,0,0-4.16-2.18,6.78,6.78,0,0,0-4.4.94,7.36,7.36,0,0,0-3.11,3.17,2.7,2.7,0,0,0,1,3.38,11.77,11.77,0,0,0,4,2,8,8,0,0,0,4.41.06A5,5,0,0,0,202.89,134Z"/><path class="cls-2" d="M209,140.11c.13,2.66-2.26,4.82-5.33,4.82s-5.66-2.16-5.79-4.82,2.25-4.83,5.32-4.83S208.85,137.44,209,140.11Z"/><path class="cls-3" d="M209.08,140.1a5.32,5.32,0,0,1-1.4,4,5.75,5.75,0,0,1-4.17,1.86,6.49,6.49,0,0,1-4.41-1.57,5.85,5.85,0,0,1-2.08-4.25,5.09,5.09,0,0,1,2.06-4.14,6.42,6.42,0,0,1,4.24-1.25A6.15,6.15,0,0,1,209.08,140.1Zm-.21,0a4.13,4.13,0,0,0-1.92-3.32,6.23,6.23,0,0,0-3.65-1,5.25,5.25,0,0,0-3.36,1.25,3.59,3.59,0,0,0-1.25,3,3.84,3.84,0,0,0,1.7,2.71,6.64,6.64,0,0,0,6.58.46A3.49,3.49,0,0,0,208.87,140.11Z"/><path class="cls-2" d="M217.78,144c.14,2.94-2.43,5.33-5.75,5.33s-6.14-2.39-6.28-5.33,2.43-5.33,5.75-5.33S217.64,141.08,217.78,144Z"/><path class="cls-3" d="M217.88,144a5.82,5.82,0,0,1-1.5,4.36,6.25,6.25,0,0,1-4.51,2,7,7,0,0,1-4.75-1.74,6.36,6.36,0,0,1-2.2-4.59,5.56,5.56,0,0,1,2.15-4.48,6.82,6.82,0,0,1,4.58-1.41A6.64,6.64,0,0,1,217.88,144Zm-.21,0a4.62,4.62,0,0,0-2-3.66,6.56,6.56,0,0,0-4-1.14,5.61,5.61,0,0,0-3.68,1.39,4,4,0,0,0-1.36,3.37,4.34,4.34,0,0,0,1.84,3.07,7,7,0,0,0,7.23.46A4,4,0,0,0,217.67,144Z"/><path class="cls-2" d="M226.67,149.86c.15,2.94-2.43,5.33-5.75,5.33s-6.13-2.39-6.27-5.33,3.39-6.54,6.71-6.54S226.53,146.92,226.67,149.86Z"/><path class="cls-3" d="M226.78,149.85a5.84,5.84,0,0,1-1.68,4.5,6.31,6.31,0,0,1-4.81,1.86,7.05,7.05,0,0,1-4.81-2.21,6,6,0,0,1-1.6-5.1,7.74,7.74,0,0,1,2.76-4.28,7.4,7.4,0,0,1,4.64-1.81,4.65,4.65,0,0,1,2.44.76,5.69,5.69,0,0,1,1.67,1.79A10.65,10.65,0,0,1,226.78,149.85Zm-.21,0a7.05,7.05,0,0,0-1.54-4.24,4.41,4.41,0,0,0-3.73-1.77,6.89,6.89,0,0,0-5.77,5.32,4,4,0,0,0,1.42,3.37,6.79,6.79,0,0,0,7.46.93A4,4,0,0,0,226.57,149.86Z"/><path class="cls-2" d="M232,158.56a6.64,6.64,0,0,1-8.45-1.2,4.88,4.88,0,0,1,1-7.45c2.6-1.72,8.09-1.16,10.15,1.22S234.59,156.83,232,158.56Z"/><path class="cls-3" d="M232.05,158.64a7.93,7.93,0,0,1-4.65,1.4,6.48,6.48,0,0,1-4.75-2.12,6,6,0,0,1-1.31-2.47,5.73,5.73,0,0,1,0-2.85,6.06,6.06,0,0,1,3.7-3.91,10,10,0,0,1,5-.35,8.68,8.68,0,0,1,4.55,2.06,4,4,0,0,1,1.16,2.33,4.38,4.38,0,0,1-.55,2.44A10.74,10.74,0,0,1,232.05,158.64Zm-.12-.17a7.2,7.2,0,0,0,2.95-3.48,3.22,3.22,0,0,0-.92-3.82,7.54,7.54,0,0,0-4-1.48,8.5,8.5,0,0,0-4.22.55,4,4,0,0,0-2.32,2.86,4.37,4.37,0,0,0,.88,3.49,6.6,6.6,0,0,0,3.3,2.34A5.21,5.21,0,0,0,231.93,158.47Z"/><path class="cls-2" d="M241.82,163.23a6.62,6.62,0,0,1-8.45-1.2,4.86,4.86,0,0,1,1-7.44c2.6-1.73,8.08-1.17,10.15,1.22S244.42,161.5,241.82,163.23Z"/><path class="cls-3" d="M241.88,163.32a7.85,7.85,0,0,1-4.65,1.39,6.45,6.45,0,0,1-4.75-2.12,6,6,0,0,1-1.32-2.47,5.81,5.81,0,0,1,0-2.84,6.08,6.08,0,0,1,3.7-3.92,10,10,0,0,1,5-.34,8.71,8.71,0,0,1,4.55,2,3.85,3.85,0,0,1,1.16,2.33,4.32,4.32,0,0,1-.54,2.45A10.84,10.84,0,0,1,241.88,163.32Zm-.12-.18a7.17,7.17,0,0,0,3-3.47,3.25,3.25,0,0,0-.93-3.83,7.56,7.56,0,0,0-4-1.48,8.64,8.64,0,0,0-4.23.55,4.06,4.06,0,0,0-2.32,2.87,4.39,4.39,0,0,0,.88,3.48,6.71,6.71,0,0,0,3.31,2.35A5.21,5.21,0,0,0,241.76,163.14Z"/><path class="cls-2" d="M254,162.23c.13,2.66-2.25,4.82-5.31,4.82s-5.66-2.16-5.79-4.82,2.25-4.83,5.32-4.83S253.87,159.56,254,162.23Z"/><path class="cls-3" d="M254.11,162.22a5.36,5.36,0,0,1-1.4,4,5.75,5.75,0,0,1-4.17,1.86,6.54,6.54,0,0,1-4.4-1.57,5.82,5.82,0,0,1-2.07-4.25,5.08,5.08,0,0,1,2.05-4.14,6.41,6.41,0,0,1,4.23-1.25A6.15,6.15,0,0,1,254.11,162.22Zm-.21,0a4.11,4.11,0,0,0-1.92-3.31,6.17,6.17,0,0,0-3.65-1,5.17,5.17,0,0,0-3.35,1.25,3.57,3.57,0,0,0-1.24,3,3.8,3.8,0,0,0,1.69,2.72,6.62,6.62,0,0,0,6.57.46A3.51,3.51,0,0,0,253.9,162.23Z"/><path class="cls-2" d="M265,165.34c.14,2.83-2.69,5.13-6.32,5.13s-6.68-2.3-6.82-5.13,2.69-5.13,6.32-5.13S264.89,162.51,265,165.34Z"/><path class="cls-3" d="M265.13,165.34a5.37,5.37,0,0,1-1.88,4.34,7.14,7.14,0,0,1-4.7,1.83,8,8,0,0,1-4.91-1.53,6.05,6.05,0,0,1-2.59-4.6,4.88,4.88,0,0,1,.72-2.62,5.81,5.81,0,0,1,1.83-1.86,8,8,0,0,1,4.76-1.2,7.84,7.84,0,0,1,4.46,1.68A5.77,5.77,0,0,1,265.13,165.34Zm-.2,0a4.42,4.42,0,0,0-2.36-3.61,8,8,0,0,0-4.23-1,6.86,6.86,0,0,0-4,1.28,3.76,3.76,0,0,0-1.65,3.28,4.08,4.08,0,0,0,2.09,3,8.19,8.19,0,0,0,3.78,1.14,8.38,8.38,0,0,0,4-.65A3.81,3.81,0,0,0,264.93,165.35Z"/><path class="cls-2" d="M275.25,170.57c.14,2.83-2.69,5.13-6.32,5.13s-6.68-2.3-6.82-5.13,2.69-5.13,6.32-5.13S275.12,167.74,275.25,170.57Z"/><path class="cls-3" d="M275.36,170.57a5.43,5.43,0,0,1-1.88,4.34,7.28,7.28,0,0,1-4.7,1.83,8.06,8.06,0,0,1-4.92-1.53,6.06,6.06,0,0,1-2.58-4.6A5,5,0,0,1,262,168a6,6,0,0,1,1.83-1.86,8,8,0,0,1,4.76-1.2A7.9,7.9,0,0,1,273,166.6,5.78,5.78,0,0,1,275.36,170.57Zm-.21,0a4.42,4.42,0,0,0-2.36-3.61,7.88,7.88,0,0,0-4.22-1,6.84,6.84,0,0,0-4,1.28,3.76,3.76,0,0,0-1.65,3.28,4,4,0,0,0,2.09,3,8,8,0,0,0,3.77,1.15,8.29,8.29,0,0,0,4-.66A3.78,3.78,0,0,0,275.15,170.58Z"/><ellipse class="cls-2" cx="171.66" cy="137.09" rx="5.22" ry="6.36" transform="translate(17.87 293.96) rotate(-84.18)"/><path class="cls-3" d="M178.11,137.09a5.55,5.55,0,0,1-1.72,4.36,6.78,6.78,0,0,1-4.63,1.91,7.59,7.59,0,0,1-4.85-1.62,6.17,6.17,0,0,1-2.42-4.61,5.4,5.4,0,0,1,2.37-4.49,7.48,7.48,0,0,1,4.7-1.29C174.79,131.51,177.82,133.94,178.11,137.09Zm-.21,0a4.5,4.5,0,0,0-2.23-3.65,7.24,7.24,0,0,0-4.13-1.06,6.32,6.32,0,0,0-3.85,1.33,3.85,3.85,0,0,0-1.53,3.33,4.2,4.2,0,0,0,2,3,8,8,0,0,0,7.58.48A3.86,3.86,0,0,0,177.9,137.1Z"/><path class="cls-2" d="M189.74,140.71a5.76,5.76,0,0,1-6.06,5.83,6.48,6.48,0,0,1-6.63-5.83,5.76,5.76,0,0,1,6.06-5.83A6.48,6.48,0,0,1,189.74,140.71Z"/><path class="cls-3" d="M189.84,140.7a6.38,6.38,0,0,1-6.33,6.88,7.31,7.31,0,0,1-5-1.93,7,7,0,0,1-2.25-4.9,6.07,6.07,0,0,1,2.19-4.8,7,7,0,0,1,4.86-1.59A7.06,7.06,0,0,1,189.84,140.7Zm-.2,0a5.22,5.22,0,0,0-2.14-4,6.77,6.77,0,0,0-4.25-1.31,5.74,5.74,0,0,0-3.93,1.55,4.55,4.55,0,0,0-1.43,3.71,4.88,4.88,0,0,0,1.94,3.41,6.64,6.64,0,0,0,3.72,1.41,6.56,6.56,0,0,0,4-.94A4.45,4.45,0,0,0,189.64,140.71Z"/><path class="cls-2" d="M199.14,146.87c-2,3-5.87,4.17-8.62,2.65s-3.35-5.17-1.34-8.16,5.87-4.17,8.62-2.65S201.15,143.89,199.14,146.87Z"/><path class="cls-3" d="M199.22,146.93a9.62,9.62,0,0,1-3.61,3.37,7,7,0,0,1-2.55.75,5.93,5.93,0,0,1-2.76-.47,5.68,5.68,0,0,1-2.24-1.83,5.8,5.8,0,0,1-1-2.68,7.52,7.52,0,0,1,1.45-5.17,8.39,8.39,0,0,1,4.18-3.08,6.6,6.6,0,0,1,5.12.31,5.29,5.29,0,0,1,1.91,1.76,5.24,5.24,0,0,1,.78,2.4A7.71,7.71,0,0,1,199.22,146.93Zm-.17-.12a5.62,5.62,0,0,0,1-4.46,4.6,4.6,0,0,0-2.71-3.28,5.42,5.42,0,0,0-4.2,0,6.9,6.9,0,0,0-3.25,2.73,5.48,5.48,0,0,0-.8,3.93,4.19,4.19,0,0,0,2.14,2.94,6,6,0,0,0,4,.55A6.14,6.14,0,0,0,199.05,146.81Z"/><ellipse class="cls-2" cx="202.89" cy="149.53" rx="6.11" ry="5.2" transform="translate(-11.63 17.22) rotate(-4.72)"/><path class="cls-3" d="M206,154.08a9.23,9.23,0,0,1-4.47,1.11,6,6,0,0,1-4.52-2,5.27,5.27,0,0,1-1-5.15,6.6,6.6,0,0,1,3.48-3.68,7.8,7.8,0,0,1,4.82-.58,6.58,6.58,0,0,1,4.09,2.47,5.19,5.19,0,0,1,.9,2.25,4.6,4.6,0,0,1-.3,2.33A6.59,6.59,0,0,1,206,154.08Zm-.1-.19a4.86,4.86,0,0,0,2.72-3.22,4.31,4.31,0,0,0-1-3.8,6,6,0,0,0-7.33-1.05,4.59,4.59,0,0,0-2.27,2.8,3.88,3.88,0,0,0,.65,3.24,6.17,6.17,0,0,0,3,2.23A5.69,5.69,0,0,0,205.86,153.89Z"/><path class="cls-2" d="M214.75,158.61c-2.93,1.49-6.67.7-8.34-1.76s-.64-5.66,2.29-7.15,6.66-.71,8.33,1.75S217.68,157.12,214.75,158.61Z"/><path class="cls-3" d="M214.79,158.7a9.17,9.17,0,0,1-4.46,1.12,6,6,0,0,1-4.52-2,5.37,5.37,0,0,1-1.18-2.43,5.56,5.56,0,0,1,.2-2.72,6.61,6.61,0,0,1,3.49-3.68,7.92,7.92,0,0,1,4.81-.58,6.61,6.61,0,0,1,4.09,2.48,5.12,5.12,0,0,1,.91,2.24,4.86,4.86,0,0,1-.3,2.34A6.55,6.55,0,0,1,214.79,158.7Zm-.09-.19a4.83,4.83,0,0,0,2.71-3.21,4.3,4.3,0,0,0-1-3.81,6,6,0,0,0-7.32-1.05,4.57,4.57,0,0,0-2.27,2.81,3.88,3.88,0,0,0,.64,3.24,6.12,6.12,0,0,0,3.06,2.22A5.6,5.6,0,0,0,214.7,158.51Z"/><ellipse class="cls-2" cx="220.03" cy="160.61" rx="5.64" ry="6.68" transform="matrix(0.14, -0.99, 0.99, 0.14, 30.53, 356.31)"/><path class="cls-3" d="M220,166.37a9.48,9.48,0,0,1-4.8-1.37,6.46,6.46,0,0,1-1.94-1.89,5.41,5.41,0,0,1-.88-2.71,5.55,5.55,0,0,1,.67-2.85,6.25,6.25,0,0,1,1.93-2.12,8.19,8.19,0,0,1,5.22-1.31,8.4,8.4,0,0,1,4.85,2,6.2,6.2,0,0,1,2.21,4.71,5.11,5.11,0,0,1-.75,2.51,5.66,5.66,0,0,1-1.81,1.8A8.44,8.44,0,0,1,220,166.37Zm0-.21a6.13,6.13,0,0,0,4.43-1.38,4.81,4.81,0,0,0,1.78-3.95,5,5,0,0,0-2-3.66,6.83,6.83,0,0,0-4.06-1.38c-2.93-.09-5.61,2-5.65,4.59a5.4,5.4,0,0,0,1.44,3.76A6.16,6.16,0,0,0,220,166.16Z"/><path class="cls-2" d="M231.73,170.89c-3.67-.18-6.62-2.86-6.57-6s3.06-5.5,6.73-5.32,6.63,2.86,6.58,6S235.41,171.07,231.73,170.89Z"/><path class="cls-3" d="M231.73,171a9.58,9.58,0,0,1-4.8-1.37,6.46,6.46,0,0,1-1.94-1.89,5.48,5.48,0,0,1-.88-2.72,5.55,5.55,0,0,1,.67-2.85,6.44,6.44,0,0,1,1.93-2.12,8.2,8.2,0,0,1,5.23-1.31,8.41,8.41,0,0,1,4.84,2,6.18,6.18,0,0,1,2.21,4.7,5.15,5.15,0,0,1-.75,2.52,5.73,5.73,0,0,1-1.81,1.79A8.53,8.53,0,0,1,231.73,171Zm0-.21a6.17,6.17,0,0,0,4.43-1.38,4.81,4.81,0,0,0,1.78-3.95,5,5,0,0,0-2-3.66,6.84,6.84,0,0,0-4.06-1.39c-2.92-.09-5.61,2.05-5.64,4.59a5.39,5.39,0,0,0,1.43,3.77A6.21,6.21,0,0,0,231.74,170.79Z"/><path class="cls-2" d="M243.31,175.92c-3.68-.18-6.62-2.86-6.58-6s3.06-5.51,6.74-5.33,6.62,2.87,6.58,6S247,176.1,243.31,175.92Z"/><path class="cls-3" d="M243.3,176a9.48,9.48,0,0,1-4.8-1.37,6.54,6.54,0,0,1-1.94-1.88,5.57,5.57,0,0,1-.87-2.72,5.45,5.45,0,0,1,.66-2.85,6.36,6.36,0,0,1,1.93-2.12,8.22,8.22,0,0,1,5.23-1.31,8.36,8.36,0,0,1,4.84,2,6.17,6.17,0,0,1,2.22,4.7,5.23,5.23,0,0,1-.76,2.51,5.73,5.73,0,0,1-1.8,1.8A8.45,8.45,0,0,1,243.3,176Zm0-.21a6.15,6.15,0,0,0,4.44-1.38,4.81,4.81,0,0,0,1.77-3.94,5,5,0,0,0-2-3.67,6.89,6.89,0,0,0-4-1.38c-2.93-.09-5.62,2.05-5.65,4.59a5.37,5.37,0,0,0,1.43,3.76A6.12,6.12,0,0,0,243.31,175.81Z"/><path class="cls-2" d="M254.47,178c-3.45-.17-6.21-2.31-6.18-4.78s2.86-4.33,6.31-4.16,6.21,2.31,6.18,4.78S257.92,178.12,254.47,178Z"/><path class="cls-3" d="M254.47,178.05a11,11,0,0,1-4.31-.88,5.65,5.65,0,0,1-1.93-1.44,4.26,4.26,0,0,1-1-2.45,4.15,4.15,0,0,1,.79-2.63,5.35,5.35,0,0,1,2-1.66,9.17,9.17,0,0,1,9,.7,5,5,0,0,1,2.33,4,3.63,3.63,0,0,1-.84,2.21,5,5,0,0,1-1.79,1.36A9.72,9.72,0,0,1,254.47,178.05Zm0-.21a6.26,6.26,0,0,0,4-1,3.62,3.62,0,0,0,1.8-3.17,3.79,3.79,0,0,0-2-2.88,7.53,7.53,0,0,0-3.66-1,6.57,6.57,0,0,0-3.54,1,3.19,3.19,0,0,0-1.68,2.45,4,4,0,0,0,1.44,3A6.14,6.14,0,0,0,254.48,177.84Z"/><ellipse class="cls-2" cx="263.57" cy="177.5" rx="6.05" ry="4.62" transform="translate(-37.51 75.88) rotate(-15.31)"/><path class="cls-3" d="M266.18,181.54a10.41,10.41,0,0,1-4.18,1.21,5.28,5.28,0,0,1-4.44-1.73,4.53,4.53,0,0,1-1-2.48,4.76,4.76,0,0,1,.54-2.57,7.3,7.3,0,0,1,3.55-3.17,8.57,8.57,0,0,1,4.52-.67,5.81,5.81,0,0,1,4,2.17,4,4,0,0,1,.74,2.22,4.19,4.19,0,0,1-.59,2.16A7.56,7.56,0,0,1,266.18,181.54Zm-.09-.18a5.32,5.32,0,0,0,2.83-2.86,3.46,3.46,0,0,0-.59-3.55,4.6,4.6,0,0,0-3.32-1.47,7.12,7.12,0,0,0-3.65.82,5.18,5.18,0,0,0-2.4,2.55,2.94,2.94,0,0,0,.25,2.88,5.14,5.14,0,0,0,2.9,1.91A6,6,0,0,0,266.09,181.36Z"/><ellipse class="cls-2" cx="172.88" cy="147.95" rx="5.41" ry="6.36" transform="translate(3.76 300.18) rotate(-82.55)"/><path class="cls-3" d="M179.32,147.94a5.79,5.79,0,0,1-1.66,4.47,6.66,6.66,0,0,1-4.68,2,7.48,7.48,0,0,1-4.92-1.73,6.38,6.38,0,0,1-2.36-4.7,5.63,5.63,0,0,1,2.31-4.6,7.34,7.34,0,0,1,4.75-1.39A6.9,6.9,0,0,1,179.32,147.94Zm-.21,0a4.72,4.72,0,0,0-2.19-3.76,7.15,7.15,0,0,0-4.18-1.14,6.07,6.07,0,0,0-3.88,1.4,4.09,4.09,0,0,0-1.49,3.46,4.39,4.39,0,0,0,2,3.15,7.55,7.55,0,0,0,7.62.48A4,4,0,0,0,179.11,148Z"/><path class="cls-2" d="M191.88,152.07c.17,3.39-2.74,6.13-6.5,6.13s-6.93-2.74-7.09-6.13,2.74-6.13,6.49-6.13S191.72,148.68,191.88,152.07Z"/><path class="cls-3" d="M192,152.07a6.6,6.6,0,0,1-1.71,4.92,6.91,6.91,0,0,1-5.07,2.25,7.81,7.81,0,0,1-5.32-2,7.22,7.22,0,0,1-2.44-5.14,6.36,6.36,0,0,1,2.36-5.05,7.52,7.52,0,0,1,12.18,5Zm-.21,0a5.49,5.49,0,0,0-2.31-4.23,7.35,7.35,0,0,0-4.54-1.38,6.26,6.26,0,0,0-4.23,1.62,4.84,4.84,0,0,0-1.58,3.94,5.2,5.2,0,0,0,2.1,3.64,7.22,7.22,0,0,0,4,1.48,7.14,7.14,0,0,0,4.3-1A4.73,4.73,0,0,0,191.78,152.08Z"/><ellipse class="cls-2" cx="196.63" cy="156.6" rx="6.21" ry="5.74" transform="translate(-13.07 18) rotate(-5.07)"/><path class="cls-3" d="M202.26,159.19a7.64,7.64,0,0,1-3.49,3.36,6.61,6.61,0,0,1-5.17.24,6.72,6.72,0,0,1-2.3-1.48,6.25,6.25,0,0,1-.93-7.66,7,7,0,0,1,4.09-3.12,7.17,7.17,0,0,1,5,.35,6,6,0,0,1,3.22,3.64A6.2,6.2,0,0,1,202.26,159.19Zm-.19-.1a4.69,4.69,0,0,0,.2-4.41,5.66,5.66,0,0,0-3.21-2.84,6.07,6.07,0,0,0-4.18,0,5.41,5.41,0,0,0-3,2.64,4.32,4.32,0,0,0-.09,3.76,5.42,5.42,0,0,0,2.66,2.64,6.79,6.79,0,0,0,4,.62A5.07,5.07,0,0,0,202.07,159.09Z"/><path class="cls-2" d="M214.08,162.83c-1.28,2.33-4.79,3.08-7.84,1.68s-4.5-4.43-3.22-6.76,4.78-3.08,7.84-1.67S215.36,160.5,214.08,162.83Z"/><path class="cls-3" d="M214.17,162.88c-1.37,2.63-5.14,3.89-8.17,2.66a7,7,0,0,1-3.69-3.17,5.18,5.18,0,0,1,0-5,5.57,5.57,0,0,1,4.09-2.54,7.94,7.94,0,0,1,4.52.71,6.78,6.78,0,0,1,3.19,3.11A4.72,4.72,0,0,1,214.17,162.88Zm-.18-.1a3.64,3.64,0,0,0-.29-3.93,6.82,6.82,0,0,0-3.22-2.37,6.69,6.69,0,0,0-3.87-.33,4.06,4.06,0,0,0-2.86,2,3.21,3.21,0,0,0,.35,3.18,6.82,6.82,0,0,0,2.73,2.29,8.43,8.43,0,0,0,3.68.94A4,4,0,0,0,214,162.78Z"/><path class="cls-2" d="M221.11,170.67c-1.27,2.33-5.37,2.75-8.17,1.46s-4-4.21-2.74-6.53,5.75-3,8.54-1.77A5,5,0,0,1,221.11,170.67Z"/><path class="cls-3" d="M221.2,170.72a5.83,5.83,0,0,1-3.6,2.6,7.63,7.63,0,0,1-4.7-.07,6.25,6.25,0,0,1-3.68-3.33,5.12,5.12,0,0,1,.43-5,6.26,6.26,0,0,1,4.25-2.23,9.15,9.15,0,0,1,4.55.49,5.17,5.17,0,0,1,3.07,3.26A5.67,5.67,0,0,1,221.2,170.72Zm-.18-.1a4.27,4.27,0,0,0,.09-4,4.84,4.84,0,0,0-3-2.45,7.89,7.89,0,0,0-4-.13,4.83,4.83,0,0,0-3.09,1.82,3.09,3.09,0,0,0-.42,1.6,3.54,3.54,0,0,0,.45,1.6,5.54,5.54,0,0,0,2.59,2.27,10.09,10.09,0,0,0,3.77.91A3.91,3.91,0,0,0,221,170.62Z"/><path class="cls-2" d="M232.76,174.06c-.53,2.88-4.56,4.48-7.81,3.88s-5.44-3.41-4.9-6.29,4.84-4.9,8.09-4.3A5.84,5.84,0,0,1,232.76,174.06Z"/><path class="cls-3" d="M232.87,174.08a5.82,5.82,0,0,1-2.92,3.8,7.88,7.88,0,0,1-5,1.12,6.86,6.86,0,0,1-4.63-2.6,5.94,5.94,0,0,1-1-5.26,5.11,5.11,0,0,1,1.51-2.27,8.11,8.11,0,0,1,2.15-1.38,8.89,8.89,0,0,1,4.91-.7,5.85,5.85,0,0,1,4,2.72A6.78,6.78,0,0,1,232.87,174.08Zm-.21,0a5.07,5.07,0,0,0-1.12-4.27,5.46,5.46,0,0,0-3.79-1.94,7.63,7.63,0,0,0-4.18.89,4.88,4.88,0,0,0-2.64,2.87,4,4,0,0,0,1,3.5,6.12,6.12,0,0,0,3.35,1.84,9.29,9.29,0,0,0,4.19-.08A4.05,4.05,0,0,0,232.66,174Z"/><ellipse class="cls-2" cx="237.3" cy="177.51" rx="4.82" ry="6.35" transform="translate(44.4 402.48) rotate(-86.19)"/><path class="cls-3" d="M243.75,177.5a5.14,5.14,0,0,1-1.85,4.15,7,7,0,0,1-4.51,1.72,7.83,7.83,0,0,1-4.72-1.42,5.72,5.72,0,0,1-2.54-4.4,4.55,4.55,0,0,1,.72-2.53,5.44,5.44,0,0,1,1.79-1.75,8,8,0,0,1,4.57-1.11,7.77,7.77,0,0,1,4.28,1.58A5.46,5.46,0,0,1,243.75,177.5Zm-.21,0a4.11,4.11,0,0,0-2.29-3.4,7.94,7.94,0,0,0-4.06-.9,6.71,6.71,0,0,0-3.79,1.19,3.47,3.47,0,0,0-1.6,3.07,3.77,3.77,0,0,0,2,2.76,8,8,0,0,0,3.61,1.05,8.42,8.42,0,0,0,3.86-.56A3.53,3.53,0,0,0,243.54,177.51Z"/><path class="cls-2" d="M254.89,180.88c.13,2.67-2.1,5.27-5.61,5.27s-6.45-2.16-6.58-4.82,2.61-4.83,6.11-4.83S254.76,178.22,254.89,180.88Z"/><path class="cls-3" d="M255,180.88a5.89,5.89,0,0,1-5.73,6.32,7.93,7.93,0,0,1-4.66-1.3,5.9,5.9,0,0,1-2.7-4.19,4.6,4.6,0,0,1,.5-2.53,5.35,5.35,0,0,1,1.64-1.85,7.61,7.61,0,0,1,4.43-1.34,7.85,7.85,0,0,1,4.3,1.22A4.82,4.82,0,0,1,255,180.88Zm-.21,0a3.71,3.71,0,0,0-2.23-3.3,8.22,8.22,0,0,0-4-.55,6.38,6.38,0,0,0-3.64,1.37,3.28,3.28,0,0,0-1.3,3.1,3.85,3.85,0,0,0,2.12,2.63,8.71,8.71,0,0,0,3.57,1,6.26,6.26,0,0,0,3.6-.81A4,4,0,0,0,254.78,180.89Z"/><path class="cls-2" d="M185.68,159.61c.13,2.56-2.21,4.63-5.21,4.63s-6.68-2.18-6.8-4.74S177,155,180,155,185.56,157.06,185.68,159.61Z"/><path class="cls-3" d="M185.78,159.61a5.07,5.07,0,0,1-1.57,4,5.87,5.87,0,0,1-4.37,1.62,8.38,8.38,0,0,1-4.38-1.53,7.77,7.77,0,0,1-1.71-1.68,4.48,4.48,0,0,1-.91-2.4,3.77,3.77,0,0,1,.79-2.45,5.93,5.93,0,0,1,1.79-1.54,8.66,8.66,0,0,1,4.28-1.17A6,6,0,0,1,185.78,159.61Zm-.2,0a4,4,0,0,0-2.06-3.31,6.25,6.25,0,0,0-3.78-.79,7.64,7.64,0,0,0-3.6,1.27,3.1,3.1,0,0,0-1.63,2.73,3.82,3.82,0,0,0,2.08,2.46,10,10,0,0,0,3.42,1.19,6.4,6.4,0,0,0,3.54-.44A3.46,3.46,0,0,0,185.58,159.62Z"/><path class="cls-2" d="M194.58,163.28a4.92,4.92,0,0,1-3.18,6.79c-3,1-7.68-.19-9-2.94s1.35-6.06,4.37-7A6.46,6.46,0,0,1,194.58,163.28Z"/><path class="cls-3" d="M194.68,163.24a5.73,5.73,0,0,1,.19,4.77,5.59,5.59,0,0,1-1.58,2.1,6.25,6.25,0,0,1-2.4,1.17,9,9,0,0,1-5.1-.35,8.38,8.38,0,0,1-2.29-1.24,5.58,5.58,0,0,1-1.74-2.09,4.41,4.41,0,0,1-.32-2.74,5.83,5.83,0,0,1,1.09-2.38,8,8,0,0,1,4-2.85,6.67,6.67,0,0,1,4.78.4A7.1,7.1,0,0,1,194.68,163.24Zm-.19.09a5.27,5.27,0,0,0-3.32-2.89,6.4,6.4,0,0,0-4.28.18,6.87,6.87,0,0,0-3.25,2.64,3.48,3.48,0,0,0-.38,3.6,5,5,0,0,0,3.17,2.1,10.07,10.07,0,0,0,4,.27,5.49,5.49,0,0,0,3.44-1.79A4,4,0,0,0,194.49,163.33Z"/><path class="cls-2" d="M207.83,168.7c-.77,2.66-4.2,4.08-7.66,3.17s-5.64-3.81-4.87-6.47,4.2-4.07,7.66-3.16S208.6,166,207.83,168.7Z"/><path class="cls-3" d="M207.93,168.73a5.74,5.74,0,0,1-3.05,3.53,7.32,7.32,0,0,1-4.9.63,7.7,7.7,0,0,1-4.36-2.62,5.18,5.18,0,0,1,2.58-8.54,8.33,8.33,0,0,1,4.82,0,7.57,7.57,0,0,1,3.87,2.64A5.17,5.17,0,0,1,207.93,168.73Zm-.2-.06a4,4,0,0,0-1.17-4,7.58,7.58,0,0,0-3.8-1.92,7.13,7.13,0,0,0-4.1.28,4,4,0,0,0-2.56,2.62,3.56,3.56,0,0,0,1.09,3.29,7.7,7.7,0,0,0,3.3,2,8.76,8.76,0,0,0,4,.34A4,4,0,0,0,207.73,168.67Z"/><path class="cls-2" d="M204.69,176.77c-.67,2.32-3.85,3.5-7.11,2.64s-5.34-3.43-4.67-5.75,3.85-3.5,7.11-2.64S205.36,174.45,204.69,176.77Z"/><path class="cls-3" d="M204.79,176.8a5.1,5.1,0,0,1-2.9,3.14,7.19,7.19,0,0,1-4.51.5,7.64,7.64,0,0,1-4-2.29,5.93,5.93,0,0,1-1.22-2.15,4.25,4.25,0,0,1,0-2.57,4.2,4.2,0,0,1,1.46-2,5.58,5.58,0,0,1,2.11-1,8.34,8.34,0,0,1,4.41.12,7.53,7.53,0,0,1,3.59,2.35A4.56,4.56,0,0,1,204.79,176.8Zm-.2-.06a3.48,3.48,0,0,0-1.23-3.59,7.79,7.79,0,0,0-3.53-1.64,7.23,7.23,0,0,0-3.76.17,3.41,3.41,0,0,0-2.36,2.22,3,3,0,0,0,1.12,2.82,8.14,8.14,0,0,0,3.07,1.69,9.56,9.56,0,0,0,3.67.46A3.42,3.42,0,0,0,204.59,176.74Z"/><path class="cls-2" d="M215.77,173.94c-.75,2.59-3.93,4-7.08,3.18s-5.1-3.61-4.34-6.21,3.92-4,7.08-3.18S216.53,171.34,215.77,173.94Z"/><path class="cls-3" d="M215.87,174a5.75,5.75,0,0,1-2.73,3.44,6.45,6.45,0,0,1-4.64.74,6.79,6.79,0,0,1-4.09-2.61,5.22,5.22,0,0,1,2.53-8.22,7.31,7.31,0,0,1,4.55-.11C214.42,168,216.62,171.08,215.87,174Zm-.2-.06a3.89,3.89,0,0,0-.95-3.83,6.56,6.56,0,0,0-3.49-1.86,6.09,6.09,0,0,0-3.78.36,3.92,3.92,0,0,0-2.3,2.57,3.49,3.49,0,0,0,.89,3.12,6.56,6.56,0,0,0,3,1.85,7.46,7.46,0,0,0,3.71.26A3.86,3.86,0,0,0,215.67,173.91Z"/><path class="cls-2" d="M214.2,182c-.68,2.34-3.79,3.57-6.95,2.73s-5.16-3.41-4.47-5.75,3.79-3.57,6.95-2.74S214.88,179.69,214.2,182Z"/><path class="cls-3" d="M214.3,182.06a5.18,5.18,0,0,1-2.79,3.17,6.84,6.84,0,0,1-4.46.56,7.17,7.17,0,0,1-4-2.34,5,5,0,0,1-1.1-4.68,5,5,0,0,1,3.46-3.08,8,8,0,0,1,4.36.06,7,7,0,0,1,3.51,2.38A4.59,4.59,0,0,1,214.3,182.06Zm-.2-.06a3.49,3.49,0,0,0-1.12-3.57,7.17,7.17,0,0,0-3.45-1.66,6.61,6.61,0,0,0-3.67.21,3.45,3.45,0,0,0-2.28,2.26,3,3,0,0,0,1,2.82,7.45,7.45,0,0,0,3,1.7,8.62,8.62,0,0,0,3.59.41A3.44,3.44,0,0,0,214.1,182Z"/><path class="cls-2" d="M224.48,177.93c-.79,2.7-4,4.22-7.14,3.39s-5.08-3.7-4.29-6.4,4-4.21,7.13-3.38S225.26,175.24,224.48,177.93Z"/><path class="cls-3" d="M224.58,178a6.1,6.1,0,0,1-2.71,3.57,6.4,6.4,0,0,1-4.72.81,6.62,6.62,0,0,1-4.12-2.72,5.48,5.48,0,0,1,2.58-8.4,7.09,7.09,0,0,1,4.63-.2C223.26,171.85,225.36,175.06,224.58,178Zm-.2-.05a4.12,4.12,0,0,0-.89-3.94A6.32,6.32,0,0,0,220,172a6,6,0,0,0-3.84.43,4.19,4.19,0,0,0-2.3,2.69,3.71,3.71,0,0,0,.84,3.25,6.37,6.37,0,0,0,3,1.92,7.12,7.12,0,0,0,3.76.18A4.05,4.05,0,0,0,224.38,177.91Z"/><path class="cls-2" d="M235.63,185.47c-.86,2.95-4.35,4.6-7.8,3.69s-5.55-4-4.69-7,4.34-4.6,7.79-3.69S236.48,182.53,235.63,185.47Z"/><path class="cls-3" d="M235.73,185.5a6.46,6.46,0,0,1-3,3.85,7,7,0,0,1-5.1.84,7.28,7.28,0,0,1-4.45-2.93A5.91,5.91,0,0,1,226,178.2a7.76,7.76,0,0,1,5-.23,7,7,0,0,1,3.92,2.91A5.87,5.87,0,0,1,235.73,185.5Zm-.21-.05a4.5,4.5,0,0,0-1-4.31,6.89,6.89,0,0,0-3.83-2.16,6.62,6.62,0,0,0-4.22.46,4.65,4.65,0,0,0-2.57,3,4.13,4.13,0,0,0,.92,3.61,6.7,6.7,0,0,0,3.3,2.13,7.54,7.54,0,0,0,4.14.16A4.46,4.46,0,0,0,235.52,185.45Z"/><path class="cls-2" d="M223.9,185.77c-.68,2.34-3.66,3.6-6.66,2.81s-4.86-3.34-4.18-5.68,3.66-3.6,6.65-2.81S224.58,183.43,223.9,185.77Z"/><path class="cls-3" d="M224,185.8c-.68,2.66-4,4.5-6.95,3.8a6.67,6.67,0,0,1-3.86-2.36,4.71,4.71,0,0,1,2.34-7.65,7.33,7.33,0,0,1,4.25,0,6.48,6.48,0,0,1,3.36,2.38A4.69,4.69,0,0,1,224,185.8Zm-.2-.06a3.45,3.45,0,0,0-1-3.5,6.52,6.52,0,0,0-3.29-1.65,6,6,0,0,0-3.52.28,3.46,3.46,0,0,0-2.14,2.27,3.07,3.07,0,0,0,.91,2.77,6.75,6.75,0,0,0,2.79,1.67,7.75,7.75,0,0,0,3.44.33A3.39,3.39,0,0,0,223.8,185.74Z"/><path class="cls-2" d="M247.81,186.56c.11,2.3-2.44,3.85-5.95,3.85s-7.08-1.15-7.19-3.44a6.33,6.33,0,0,1,6-5.88C244.14,181.09,247.69,184.26,247.81,186.56Z"/><path class="cls-3" d="M247.91,186.55a3.3,3.3,0,0,1-.64,2.21,5.59,5.59,0,0,1-1.8,1.58,8.79,8.79,0,0,1-2.25.86,10.15,10.15,0,0,1-2.38.22,10.42,10.42,0,0,1-4.68-1.12,4.75,4.75,0,0,1-2-1.89,3.21,3.21,0,0,1-.37-1.48,4.75,4.75,0,0,1,.21-1.33,7.57,7.57,0,0,1,2.9-3.9,6.12,6.12,0,0,1,4.64-1.07,8.32,8.32,0,0,1,4.06,2.14,10.31,10.31,0,0,1,1.47,1.7A4.63,4.63,0,0,1,247.91,186.55Zm-.21,0a5,5,0,0,0-2.38-3.45,8.51,8.51,0,0,0-3.92-1.44c-2.72-.38-5.2,1.92-5.78,4.35a3.22,3.22,0,0,0-.07.86,1.27,1.27,0,0,0,.23.62,2.83,2.83,0,0,0,1.31.95,13.6,13.6,0,0,0,3.88.89,13,13,0,0,0,4.08,0,3.91,3.91,0,0,0,1.83-.88A2.46,2.46,0,0,0,247.7,186.56Z"/><path class="cls-3" d="M204.09,113.14c17.45,3.26,46.67,13.89,62.48,29.51,6.36,6.31,13.57,15.93,22,15.62,3.8-.14,10.14-3,10.68-11.36,1.38-21.31-9.37-32.51-33.16-45.29-27.6-14.82-70.67-9.79-73.23,1.74"/><path class="cls-3" d="M204.1,113.09a120.12,120.12,0,0,1,15.4,3.67q7.59,2.3,14.93,5.32a130.6,130.6,0,0,1,14.3,6.9,91.88,91.88,0,0,1,13.2,8.85,69.43,69.43,0,0,1,5.88,5.37l5.46,5.72a53.37,53.37,0,0,0,5.8,5.26,18.07,18.07,0,0,0,6.85,3.4,10.36,10.36,0,0,0,7.35-1.1,10.61,10.61,0,0,0,4.86-5.68c.92-2.4.91-5.07,1-7.69a40.1,40.1,0,0,0-.71-7.81A33,33,0,0,0,292,121.12a53.14,53.14,0,0,0-11.59-10.6,128.41,128.41,0,0,0-13.53-8.11,73.15,73.15,0,0,0-14.57-5.86A100.44,100.44,0,0,0,221.11,93a73.56,73.56,0,0,0-15.57,2.16,35.3,35.3,0,0,0-7.35,2.74,15.2,15.2,0,0,0-3.2,2.24,6.84,6.84,0,0,0-2.05,3.27,0,0,0,0,1-.06,0,.06.06,0,0,1,0-.07,7,7,0,0,1,2-3.4,15.17,15.17,0,0,1,3.2-2.37,33.28,33.28,0,0,1,7.36-3,73,73,0,0,1,15.68-2.44,100,100,0,0,1,15.86.46,88.07,88.07,0,0,1,15.59,3,68.59,68.59,0,0,1,14.64,6.12,133.6,133.6,0,0,1,13.45,8.39,56.88,56.88,0,0,1,11.62,10.72,33.52,33.52,0,0,1,6.66,14.3,42,42,0,0,1,.81,7.91c0,1.33,0,2.65-.1,4a15,15,0,0,1-.8,4,11.42,11.42,0,0,1-5.13,6.15,12,12,0,0,1-3.84,1.38,10.82,10.82,0,0,1-4.09-.12,18.85,18.85,0,0,1-7.23-3.53,52.78,52.78,0,0,1-5.93-5.33l-5.48-5.71a64.29,64.29,0,0,0-5.83-5.24c-8.24-6.49-17.59-11.47-27.22-15.67a163.09,163.09,0,0,0-30-9.79.05.05,0,0,1,0-.1Z"/><ellipse class="cls-2" cx="215.43" cy="95.15" rx="4.04" ry="5.75" transform="translate(108.75 305.1) rotate(-86.89)"/><path class="cls-3" d="M221.28,95.19a4.45,4.45,0,0,1-1.8,3.6,6.61,6.61,0,0,1-4,1.44,7.37,7.37,0,0,1-4.2-1.17,6.05,6.05,0,0,1-1.65-1.62,4.21,4.21,0,0,1-.76-2.3,3.89,3.89,0,0,1,.77-2.29,5.11,5.11,0,0,1,1.7-1.45,7.83,7.83,0,0,1,4.08-.82,7.28,7.28,0,0,1,3.79,1.36A4.64,4.64,0,0,1,221.28,95.19Zm-.21,0A3.45,3.45,0,0,0,219,92.31a7.9,7.9,0,0,0-3.59-.68,6.55,6.55,0,0,0-3.37,1,2.81,2.81,0,0,0-1.48,2.49,3,3,0,0,0,1.8,2.21,8.3,8.3,0,0,0,3.18.86,8.62,8.62,0,0,0,3.41-.32A2.92,2.92,0,0,0,221.07,95.2Z"/><path class="cls-2" d="M231.17,96.53c.1,2.43-3,3.9-5.77,3.87S220.06,98.46,220,96s2.08-5.56,4.83-5.54S231.08,94.09,231.17,96.53Z"/><path class="cls-3" d="M231.28,96.52a4.29,4.29,0,0,1-2.15,3.63,7.24,7.24,0,0,1-4.34,1.27,6.39,6.39,0,0,1-4.29-2,5.34,5.34,0,0,1-1.24-2.17,4.61,4.61,0,0,1,0-2.47A6.94,6.94,0,0,1,221.69,91a5.1,5.1,0,0,1,2.1-1,4.34,4.34,0,0,1,2.32.19,8.05,8.05,0,0,1,3.37,2.61A7.76,7.76,0,0,1,231.28,96.52Zm-.21,0a5.3,5.3,0,0,0-1.91-3.43,8.72,8.72,0,0,0-3.37-1.91,3.36,3.36,0,0,0-3.24.85,5.4,5.4,0,0,0-1.67,3.1A2.94,2.94,0,0,0,222,98a6.09,6.09,0,0,0,3,1.36,9.69,9.69,0,0,0,3.65-.2,3.89,3.89,0,0,0,1.66-.89A2.42,2.42,0,0,0,231.07,96.53Z"/><path class="cls-2" d="M241.52,97.23c.09,2.43-3,3.9-5.77,3.88s-5.35-2-5.45-4.38,2.08-5.56,4.83-5.54S241.42,94.79,241.52,97.23Z"/><path class="cls-3" d="M241.62,97.22a4.29,4.29,0,0,1-2.15,3.63,7.23,7.23,0,0,1-4.33,1.27,6.41,6.41,0,0,1-4.3-2A5.61,5.61,0,0,1,229.6,98a4.75,4.75,0,0,1,0-2.48A6.92,6.92,0,0,1,232,91.69a5.16,5.16,0,0,1,2.1-1,4.34,4.34,0,0,1,2.32.19,8.05,8.05,0,0,1,3.37,2.61A7.76,7.76,0,0,1,241.62,97.22Zm-.21,0a5.26,5.26,0,0,0-1.91-3.43,8.68,8.68,0,0,0-3.36-1.91,3.35,3.35,0,0,0-3.24.85,5.42,5.42,0,0,0-1.68,3.1,3,3,0,0,0,1.08,2.84,6,6,0,0,0,3,1.36,9.67,9.67,0,0,0,3.65-.2,4,4,0,0,0,1.67-.89A2.41,2.41,0,0,0,241.41,97.23Z"/><path class="cls-2" d="M251.84,98.35c-.2,2.27-2.87,3.8-6,3.42s-5.42-2.51-5.22-4.77,2.87-3.8,6-3.42S252,96.09,251.84,98.35Z"/><path class="cls-3" d="M251.94,98.36a4.58,4.58,0,0,1-2.13,3.39,6.39,6.39,0,0,1-4.13,1,7,7,0,0,1-4-1.69,4.93,4.93,0,0,1-1.81-4.19,4,4,0,0,1,1-2.15,5.16,5.16,0,0,1,1.82-1.28,7.47,7.47,0,0,1,4.11-.42,7,7,0,0,1,3.58,1.8A4.61,4.61,0,0,1,251.94,98.36Zm-.21,0a3.41,3.41,0,0,0-1.66-3.13,7.38,7.38,0,0,0-3.44-1.1,6.28,6.28,0,0,0-3.4.61,2.92,2.92,0,0,0-1.72,2.35A3,3,0,0,0,243,99.5a7.54,7.54,0,0,0,3,1.22,8.19,8.19,0,0,0,3.38,0A3,3,0,0,0,251.73,98.34Z"/><path class="cls-2" d="M261.24,102.25c-.21,2.33-2.93,3.91-6.08,3.53s-5.53-2.58-5.32-4.92,2.93-3.91,6.08-3.53S261.44,99.91,261.24,102.25Z"/><path class="cls-3" d="M261.34,102.26a4.69,4.69,0,0,1-2.16,3.47,6.5,6.5,0,0,1-4.23,1.08,7.18,7.18,0,0,1-4.11-1.74,5.06,5.06,0,0,1-1.83-4.28,4.09,4.09,0,0,1,1-2.2,5.26,5.26,0,0,1,1.84-1.32,7.55,7.55,0,0,1,4.21-.45,7,7,0,0,1,3.66,1.85A4.79,4.79,0,0,1,261.34,102.26Zm-.21,0A3.52,3.52,0,0,0,259.44,99a7.38,7.38,0,0,0-3.52-1.15,6.32,6.32,0,0,0-3.48.64,3.06,3.06,0,0,0-1.77,2.44,3.18,3.18,0,0,0,1.48,2.53,7.8,7.8,0,0,0,3.07,1.26,8.12,8.12,0,0,0,3.47,0A3.09,3.09,0,0,0,261.13,102.24Z"/><ellipse class="cls-2" cx="264.24" cy="105.77" rx="4.43" ry="5.5" transform="translate(133.54 358.61) rotate(-84.48)"/><path class="cls-3" d="M269.84,105.81a4.88,4.88,0,0,1-1.52,3.78,5.9,5.9,0,0,1-4,1.66,6.63,6.63,0,0,1-4.25-1.42,5.37,5.37,0,0,1-2.11-4.07,4.71,4.71,0,0,1,2.18-3.91,6.69,6.69,0,0,1,4.1-1C267,101,269.59,103.11,269.84,105.81Zm-.21,0a3.74,3.74,0,0,0-1.92-3.09,6.58,6.58,0,0,0-3.54-.87,5.57,5.57,0,0,0-3.28,1.1,3.18,3.18,0,0,0-1.3,2.74,3.41,3.41,0,0,0,1.67,2.47,6.68,6.68,0,0,0,3.07,1,6.88,6.88,0,0,0,3.33-.48A3.2,3.2,0,0,0,269.63,105.81Z"/><path class="cls-2" d="M277.82,110.62c.11,2.57-2.42,4.63-5.63,4.61s-5.9-2.13-6-4.7,2.42-4.63,5.63-4.6S277.72,108.06,277.82,110.62Z"/><path class="cls-3" d="M277.93,110.62a5.07,5.07,0,0,1-1.64,3.95,6.36,6.36,0,0,1-4.25,1.7,7,7,0,0,1-4.44-1.47,5.59,5.59,0,0,1-2.25-4.23,4.89,4.89,0,0,1,2.3-4.08,7.17,7.17,0,0,1,4.31-1.08,6.84,6.84,0,0,1,4,1.6A5.33,5.33,0,0,1,277.93,110.62Zm-.21,0a3.94,3.94,0,0,0-2-3.26,6.93,6.93,0,0,0-3.75-.91,5.88,5.88,0,0,0-3.49,1.14,3.35,3.35,0,0,0-1.41,2.9,3.59,3.59,0,0,0,1.78,2.62,7.09,7.09,0,0,0,3.28,1,7.3,7.3,0,0,0,3.55-.52A3.35,3.35,0,0,0,277.72,110.63Z"/><path class="cls-2" d="M286.39,116.27c.1,2.56-2.42,4.62-5.63,4.6s-5.91-2.13-6-4.7,2.42-4.62,5.64-4.6S286.29,113.7,286.39,116.27Z"/><path class="cls-3" d="M286.49,116.26a5,5,0,0,1-1.64,3.95,6.29,6.29,0,0,1-4.24,1.7,7.1,7.1,0,0,1-4.45-1.46,5.57,5.57,0,0,1-2.24-4.24,4.89,4.89,0,0,1,2.3-4.08,7.14,7.14,0,0,1,4.3-1.08,6.84,6.84,0,0,1,4,1.61A5.31,5.31,0,0,1,286.49,116.26Zm-.21,0a3.94,3.94,0,0,0-2-3.26,7.1,7.1,0,0,0-3.74-.91,5.8,5.8,0,0,0-3.49,1.15,3.33,3.33,0,0,0-1.42,2.89,3.59,3.59,0,0,0,1.79,2.63,7.73,7.73,0,0,0,6.82.52A3.35,3.35,0,0,0,286.28,116.27Z"/><path class="cls-2" d="M293.25,123.13c.1,2.57-2.42,4.63-5.64,4.61s-5.9-2.13-6-4.7,2.42-4.62,5.63-4.6S293.14,120.57,293.25,123.13Z"/><path class="cls-3" d="M293.35,123.13a5.07,5.07,0,0,1-1.64,4,6.31,6.31,0,0,1-4.25,1.7,7.07,7.07,0,0,1-4.44-1.46,5.63,5.63,0,0,1-2.25-4.24,4.88,4.88,0,0,1,2.31-4.08,7.14,7.14,0,0,1,4.3-1.08,6.9,6.9,0,0,1,4,1.6A5.36,5.36,0,0,1,293.35,123.13Zm-.21,0a3.94,3.94,0,0,0-2-3.26,6.93,6.93,0,0,0-3.75-.91,5.88,5.88,0,0,0-3.49,1.14,3.35,3.35,0,0,0-1.41,2.9,3.58,3.58,0,0,0,1.79,2.62,7,7,0,0,0,3.28,1.05,7.13,7.13,0,0,0,3.54-.52A3.35,3.35,0,0,0,293.14,123.14Z"/><path class="cls-2" d="M298.16,130.81c.1,2.57-2.42,4.63-5.63,4.61s-5.9-2.13-6-4.7,2.42-4.62,5.64-4.6S298.06,128.25,298.16,130.81Z"/><path class="cls-3" d="M298.26,130.81a5,5,0,0,1-1.64,3.95,6.29,6.29,0,0,1-4.24,1.7,7,7,0,0,1-4.44-1.47,5.53,5.53,0,0,1-2.25-4.23,4.89,4.89,0,0,1,2.3-4.08,7.14,7.14,0,0,1,4.3-1.08,6.9,6.9,0,0,1,4,1.6A5.36,5.36,0,0,1,298.26,130.81Zm-.2,0a4,4,0,0,0-2.05-3.26,6.92,6.92,0,0,0-3.74-.91,5.86,5.86,0,0,0-3.49,1.14,3.36,3.36,0,0,0-1.42,2.9,3.58,3.58,0,0,0,1.79,2.62,7,7,0,0,0,3.28,1.05,7.3,7.3,0,0,0,3.55-.52A3.39,3.39,0,0,0,298.06,130.82Z"/><path class="cls-2" d="M298.92,139c.09,2.28-2.09,4.11-4.88,4.09s-5.13-1.89-5.22-4.17,2.1-4.12,4.89-4.09S298.83,136.69,298.92,139Z"/><path class="cls-3" d="M299,139a4.64,4.64,0,0,1-1.37,3.54,5.35,5.35,0,0,1-3.76,1.6,6,6,0,0,1-4-1.35,5,5,0,0,1-1.95-3.83,4.39,4.39,0,0,1,2-3.66,6.12,6.12,0,0,1,3.82-1A5.55,5.55,0,0,1,299,139Zm-.21,0a3.45,3.45,0,0,0-1.76-2.86,5.93,5.93,0,0,0-3.26-.79,5,5,0,0,0-3,1,2.89,2.89,0,0,0-1.16,2.5,3.08,3.08,0,0,0,1.52,2.24A6,6,0,0,0,294,142a6.31,6.31,0,0,0,3-.41A2.92,2.92,0,0,0,298.82,139Z"/><ellipse class="cls-2" cx="204.63" cy="99.52" rx="4.23" ry="5.61" transform="translate(90.9 296.61) rotate(-85.95)"/><path class="cls-3" d="M210.33,99.56a4.6,4.6,0,0,1-1.65,3.68,6.18,6.18,0,0,1-4,1.56,6.93,6.93,0,0,1-4.22-1.3,5.15,5.15,0,0,1-2.25-4,4.07,4.07,0,0,1,.68-2.27,5,5,0,0,1,1.63-1.54,7.09,7.09,0,0,1,4.08-.93,6.73,6.73,0,0,1,3.78,1.45A4.87,4.87,0,0,1,210.33,99.56Zm-.21,0a3.58,3.58,0,0,0-2-3,7.13,7.13,0,0,0-3.55-.77,5.9,5.9,0,0,0-3.31,1,3,3,0,0,0-1.39,2.6,3.22,3.22,0,0,0,1.73,2.34,7.36,7.36,0,0,0,3.11.92,7.65,7.65,0,0,0,3.37-.39A3,3,0,0,0,210.12,99.57Z"/><path class="cls-2" d="M219.35,102.73c.1,2.57-2.32,4.63-5.42,4.61s-5.68-2.13-5.78-4.69S210.47,98,213.57,98,219.25,100.17,219.35,102.73Z"/><path class="cls-3" d="M219.45,102.73a5.1,5.1,0,0,1-1.51,3.91,5.94,5.94,0,0,1-4.15,1.74,6.68,6.68,0,0,1-4.36-1.51,5.63,5.63,0,0,1-2.12-4.19,5,5,0,0,1,2.18-4,6.72,6.72,0,0,1,4.21-1.12A6.09,6.09,0,0,1,219.45,102.73Zm-.21,0a4,4,0,0,0-1.93-3.24,6.58,6.58,0,0,0-3.64-.93,5.47,5.47,0,0,0-3.36,1.16,3.39,3.39,0,0,0-1.32,2.88,3.62,3.62,0,0,0,1.7,2.61,6.54,6.54,0,0,0,3.15,1.06,6.64,6.64,0,0,0,3.43-.54A3.33,3.33,0,0,0,219.24,102.74Z"/><path class="cls-2" d="M227.6,105.89c.1,2.57-2.33,4.63-5.42,4.61s-5.68-2.13-5.78-4.69,2.42-4.84,5.51-4.81S227.49,103.33,227.6,105.89Z"/><path class="cls-3" d="M227.7,105.89a5.13,5.13,0,0,1-1.54,3.93,6,6,0,0,1-4.2,1.72,6.72,6.72,0,0,1-4.37-1.57,5.53,5.53,0,0,1-2-4.28,5.18,5.18,0,0,1,2.25-4,6.6,6.6,0,0,1,4.23-1.19A6.15,6.15,0,0,1,227.7,105.89Zm-.21,0a4.2,4.2,0,0,0-1.87-3.33,6,6,0,0,0-3.61-1,5.34,5.34,0,0,0-3.36,1.22,3.63,3.63,0,0,0-1.41,2.92,3.52,3.52,0,0,0,1.63,2.67,6.52,6.52,0,0,0,3.16,1.1,6.63,6.63,0,0,0,3.46-.52A3.36,3.36,0,0,0,227.49,105.9Z"/><path class="cls-2" d="M236.3,104.1c.1,2.46-2.13,4.43-5,4.41s-5.24-2-5.34-4.49,2.14-4.42,5-4.4S236.21,101.65,236.3,104.1Z"/><path class="cls-3" d="M236.41,104.1a5,5,0,0,1-1.33,3.72,5.4,5.4,0,0,1-3.9,1.73,6.11,6.11,0,0,1-4.11-1.49,5.4,5.4,0,0,1-1.92-4,4.76,4.76,0,0,1,2-3.85,6.09,6.09,0,0,1,4-1.11A5.74,5.74,0,0,1,236.41,104.1Zm-.21,0a3.74,3.74,0,0,0-1.77-3.06,5.81,5.81,0,0,0-3.36-.9,4.8,4.8,0,0,0-3.09,1.13,3.21,3.21,0,0,0-1.16,2.71,3.44,3.44,0,0,0,1.54,2.45,5.84,5.84,0,0,0,2.87,1,5.9,5.9,0,0,0,3.15-.51A3.16,3.16,0,0,0,236.2,104.11Z"/><path class="cls-2" d="M245.86,107.07c.11,2.68-2.51,4.83-5.85,4.81s-6.12-2.22-6.23-4.9,2.51-4.84,5.85-4.81S245.75,104.39,245.86,107.07Z"/><path class="cls-3" d="M246,107.07a5.18,5.18,0,0,1-1.7,4.09,6.47,6.47,0,0,1-4.4,1.76,7.25,7.25,0,0,1-4.6-1.53A5.81,5.81,0,0,1,233,107a5,5,0,0,1,2.36-4.22,7.29,7.29,0,0,1,4.46-1.14,7.08,7.08,0,0,1,4.13,1.66A5.57,5.57,0,0,1,246,107.07Zm-.21,0a4.12,4.12,0,0,0-2.11-3.4,7.12,7.12,0,0,0-3.9-1,6.15,6.15,0,0,0-3.64,1.19,3.53,3.53,0,0,0-1.48,3,3.8,3.8,0,0,0,1.86,2.78,7.32,7.32,0,0,0,3.43,1.1,7.43,7.43,0,0,0,3.7-.57A3.53,3.53,0,0,0,245.75,107.07Z"/><path class="cls-2" d="M256,108.9c.11,2.74-2.51,4.94-5.84,4.92s-6.13-2.27-6.24-5,2.51-4.94,5.84-4.91S255.92,106.17,256,108.9Z"/><path class="cls-3" d="M256.13,108.9a5.33,5.33,0,0,1-1.67,4.15,6.46,6.46,0,0,1-4.43,1.81,7.22,7.22,0,0,1-4.63-1.58,5.9,5.9,0,0,1-2.28-4.44,5.15,5.15,0,0,1,2.32-4.27,7.24,7.24,0,0,1,4.5-1.19C253,103.56,255.88,105.91,256.13,108.9Zm-.21,0a4.24,4.24,0,0,0-2.09-3.47,7,7,0,0,0-3.92-1,6,6,0,0,0-3.66,1.23,3.66,3.66,0,0,0-1.46,3.12,3.92,3.92,0,0,0,1.85,2.84,7.74,7.74,0,0,0,7.16.53A3.61,3.61,0,0,0,255.92,108.91Z"/><path class="cls-2" d="M265.45,113.93c.1,2.74-2.51,4.94-5.85,4.91s-6.12-2.26-6.23-5,2.51-4.94,5.84-4.91S265.34,111.2,265.45,113.93Z"/><path class="cls-3" d="M265.55,113.93a5.33,5.33,0,0,1-1.67,4.15,6.46,6.46,0,0,1-4.43,1.81,7.2,7.2,0,0,1-4.63-1.58,5.91,5.91,0,0,1-2.29-4.44,5.18,5.18,0,0,1,2.33-4.27,7.14,7.14,0,0,1,4.49-1.19C262.43,108.59,265.3,110.94,265.55,113.93Zm-.21,0a4.25,4.25,0,0,0-2.1-3.47,7,7,0,0,0-3.91-1,6,6,0,0,0-3.66,1.23,3.66,3.66,0,0,0-1.46,3.12,3.89,3.89,0,0,0,1.85,2.84,7.14,7.14,0,0,0,3.44,1.14,7.22,7.22,0,0,0,3.72-.61A3.61,3.61,0,0,0,265.34,113.94Z"/><path class="cls-2" d="M273.11,119a5.71,5.71,0,0,1-5.82,5.53c-3.33,0-5.46-2-5.57-4.79A5.59,5.59,0,0,1,267.2,114C270.54,114,273,116.21,273.11,119Z"/><path class="cls-3" d="M273.21,119a6.42,6.42,0,0,1-1.37,4.24,5.88,5.88,0,0,1-4.21,2.32,6.5,6.5,0,0,1-4.74-1.41,5.69,5.69,0,0,1-2-4.55,6.44,6.44,0,0,1,1.92-4.37,5.85,5.85,0,0,1,4.32-1.75,6.51,6.51,0,0,1,4.16,1.66A5.84,5.84,0,0,1,273.21,119Zm-.21,0a4.28,4.28,0,0,0-2-3.51,6.49,6.49,0,0,0-3.88-1,4.66,4.66,0,0,0-3.34,1.64,5,5,0,0,0-1.24,3.42,3.69,3.69,0,0,0,1.61,2.94,6.47,6.47,0,0,0,6.88-.08A4.22,4.22,0,0,0,273,119Z"/><path class="cls-2" d="M281.47,125c.1,2.46-2.86,5.35-5.83,5.33s-5.45-2-5.55-4.49a5.21,5.21,0,0,1,5.06-5.22C278.12,120.64,281.37,122.55,281.47,125Z"/><path class="cls-3" d="M281.57,125a6.27,6.27,0,0,1-1.48,4,6,6,0,0,1-4,2.35,6.5,6.5,0,0,1-4.56-1.23,5.51,5.51,0,0,1-2.32-4.21,5.92,5.92,0,0,1,1.87-4.22,5.47,5.47,0,0,1,4.18-1.59,7.78,7.78,0,0,1,4,1.49A5,5,0,0,1,281.57,125Zm-.21,0a3.71,3.71,0,0,0-2.29-3,8.23,8.23,0,0,0-3.8-.82,4.53,4.53,0,0,0-4.34,4.68,3.51,3.51,0,0,0,1.8,2.58,6.28,6.28,0,0,0,3.24.85,6.61,6.61,0,0,0,3.35-1.08A4.06,4.06,0,0,0,281.36,125Z"/><path class="cls-2" d="M288.3,134.09c-1.11,2.39-4.27,3.32-7.05,2.08s-4.15-4.18-3-6.57,4.27-3.33,7-2.09S289.41,131.7,288.3,134.09Z"/><path class="cls-3" d="M288.4,134.13a5.68,5.68,0,0,1-3,2.94,5.92,5.92,0,0,1-4.51.08,6.31,6.31,0,0,1-3.43-3.18,5.45,5.45,0,0,1,0-4.73,5.3,5.3,0,0,1,3.64-2.74,6.59,6.59,0,0,1,4.34.52A5.68,5.68,0,0,1,288.4,134.13Zm-.19-.09a3.85,3.85,0,0,0-.25-3.76A5.93,5.93,0,0,0,285,128a5.42,5.42,0,0,0-3.57-.17A3.83,3.83,0,0,0,279,130a3.43,3.43,0,0,0,.31,3.08,5.9,5.9,0,0,0,2.41,2.2,6.78,6.78,0,0,0,3.4.76A3.71,3.71,0,0,0,288.21,134Z"/><ellipse class="cls-2" cx="285.82" cy="141.16" rx="4.77" ry="5.52" transform="translate(50.85 356.58) rotate(-68.8)"/><path class="cls-3" d="M291,143.44a5.71,5.71,0,0,1-3,2.95,5.94,5.94,0,0,1-4.52.07,6.28,6.28,0,0,1-3.42-3.17,5.45,5.45,0,0,1,0-4.73,5.36,5.36,0,0,1,3.65-2.75,6.67,6.67,0,0,1,4.34.52A5.68,5.68,0,0,1,291,143.44Zm-.19-.08a3.8,3.8,0,0,0-.25-3.76,5.87,5.87,0,0,0-2.93-2.31,5.52,5.52,0,0,0-3.58-.17,3.85,3.85,0,0,0-2.47,2.14,3.46,3.46,0,0,0,.31,3.08,5.86,5.86,0,0,0,2.42,2.2,6.56,6.56,0,0,0,3.39.76A3.67,3.67,0,0,0,290.77,143.36Z"/><ellipse class="cls-2" cx="292.15" cy="147.86" rx="4.76" ry="4.9" transform="translate(113.01 421.95) rotate(-83.68)"/><path class="cls-3" d="M296.7,149.89a6.1,6.1,0,0,1-2.64,3,5.1,5.1,0,0,1-4.31.31,5.39,5.39,0,0,1-3.12-3.22,5.63,5.63,0,0,1,.3-4.43,5.58,5.58,0,0,1,7.4-2.48,5,5,0,0,1,2.58,3A5.54,5.54,0,0,1,296.7,149.89Zm-.19-.09a3.89,3.89,0,0,0,0-3.56,4.74,4.74,0,0,0-2.58-2.24,4.4,4.4,0,0,0-3.27,0,4,4,0,0,0-2.2,2.2,3.57,3.57,0,0,0,.1,3,4.59,4.59,0,0,0,2,2.07,5.21,5.21,0,0,0,3.09.55A3.72,3.72,0,0,0,296.51,149.8Z"/><path class="cls-2" d="M202.39,103.41c1,2.31-.44,4.92-3.14,5.82s-5.68-.24-6.65-2.56.43-4.92,3.13-5.82S201.41,101.09,202.39,103.41Z"/><path class="cls-3" d="M202.48,103.37a5.53,5.53,0,0,1,.16,4,4.46,4.46,0,0,1-3.31,2.71,7,7,0,0,1-4.12-.62,6.58,6.58,0,0,1-3.14-2.6,4.44,4.44,0,0,1-.6-2.17,4.74,4.74,0,0,1,.6-2.23,5.76,5.76,0,0,1,3.52-2.77,6,6,0,0,1,2.23-.2,5.11,5.11,0,0,1,2.08.72A6.72,6.72,0,0,1,202.48,103.37Zm-.19.08a3.36,3.36,0,0,0-2.88-1.9,7.75,7.75,0,0,0-3.18.32,4.9,4.9,0,0,0-2.47,1.67,3.66,3.66,0,0,0-.63,2.91,3.36,3.36,0,0,0,2.32,2.41,4.83,4.83,0,0,0,3.38-.41,9.52,9.52,0,0,0,2.67-1.74,3.39,3.39,0,0,0,.91-1.46A2.66,2.66,0,0,0,202.29,103.45Z"/><path class="cls-2" d="M211.7,109.07c.1,2.46-2.28,4.43-5.31,4.4s-5.57-2-5.67-4.48,2.28-4.42,5.31-4.4S211.6,106.62,211.7,109.07Z"/><path class="cls-3" d="M211.8,109.07a4.89,4.89,0,0,1-1.51,3.78,5.88,5.88,0,0,1-4,1.66,6.54,6.54,0,0,1-4.24-1.42,5.41,5.41,0,0,1-2.12-4.07,4.7,4.7,0,0,1,2.18-3.9,6.67,6.67,0,0,1,4.1-1.05C209,104.25,211.56,106.37,211.8,109.07Zm-.21,0a3.75,3.75,0,0,0-1.91-3.1,6.57,6.57,0,0,0-3.54-.86,5.44,5.44,0,0,0-3.28,1.1,3.17,3.17,0,0,0-1.3,2.74,3.41,3.41,0,0,0,1.67,2.46,6.53,6.53,0,0,0,3.07,1,6.78,6.78,0,0,0,3.33-.48A3.17,3.17,0,0,0,211.59,109.08Z"/><path class="cls-2" d="M220.76,109.87c1.08,2.28-.28,5-3,6s-5.87.08-7-2.2.28-5,3-6S219.68,107.59,220.76,109.87Z"/><path class="cls-3" d="M220.85,109.82a4.88,4.88,0,0,1,.16,4.07,5.53,5.53,0,0,1-3.13,3.07,6.42,6.42,0,0,1-4.47.13,5.71,5.71,0,0,1-3.41-3,4.71,4.71,0,0,1,.4-4.44,6.2,6.2,0,0,1,3.41-2.52A6.08,6.08,0,0,1,220.85,109.82Zm-.19.09a4,4,0,0,0-2.91-2.21,6.37,6.37,0,0,0-3.6.4,5,5,0,0,0-2.58,2.22,3.19,3.19,0,0,0,0,3A3.68,3.68,0,0,0,214,115.1a6.39,6.39,0,0,0,3.19-.11,6.11,6.11,0,0,0,2.86-1.67A3.19,3.19,0,0,0,220.66,109.91Z"/><path class="cls-2" d="M237.23,111.59c.38,2.44-1.74,4.66-4.74,5s-5.74-1.45-6.13-3.89,1.73-4.65,4.74-5S236.84,109.15,237.23,111.59Z"/><path class="cls-3" d="M237.33,111.58a4.82,4.82,0,0,1-1.06,3.93,5.76,5.76,0,0,1-3.85,2.08,6.56,6.56,0,0,1-4.36-1,5.54,5.54,0,0,1-2.53-3.82,4.69,4.69,0,0,1,1.7-4.13,6.54,6.54,0,0,1,4-1.48A6,6,0,0,1,237.33,111.58Zm-.21,0a3.81,3.81,0,0,0-2.24-2.88,6.43,6.43,0,0,0-3.6-.51,5.32,5.32,0,0,0-3.13,1.43,3.16,3.16,0,0,0-1,2.87,3.44,3.44,0,0,0,1.93,2.29,6.38,6.38,0,0,0,3.15.69,6.46,6.46,0,0,0,3.25-.82A3.16,3.16,0,0,0,237.12,111.61Z"/><path class="cls-2" d="M245.78,116.27c0,2.45-2.38,4.37-5.41,4.28s-5.53-2.14-5.57-4.59,2.38-4.37,5.42-4.29S245.74,113.82,245.78,116.27Z"/><path class="cls-3" d="M245.89,116.27a4.88,4.88,0,0,1-1.61,3.74,5.89,5.89,0,0,1-4.07,1.58,6.64,6.64,0,0,1-4.22-1.5,5.41,5.41,0,0,1-2-4.12,4.68,4.68,0,0,1,2.27-3.85,6.67,6.67,0,0,1,4.12-1C243.14,111.39,245.7,113.56,245.89,116.27Zm-.21,0a3.74,3.74,0,0,0-1.85-3.14,6.65,6.65,0,0,0-3.53-.93,5.49,5.49,0,0,0-3.3,1,3.18,3.18,0,0,0-1.36,2.7,3.37,3.37,0,0,0,1.61,2.5,6.63,6.63,0,0,0,3.05,1.06,6.93,6.93,0,0,0,3.35-.41A3.19,3.19,0,0,0,245.68,116.27Z"/><path class="cls-2" d="M256,119.23c0,2.51-2.95,4.17-6,4.08s-5.84-1.87-5.89-4.38,2.8-5.2,5.83-5.12S256,116.72,256,119.23Z"/><path class="cls-3" d="M256.1,119.23A4.56,4.56,0,0,1,254,123a7.07,7.07,0,0,1-4.37,1.36,7.33,7.33,0,0,1-4.44-1.59,5.48,5.48,0,0,1-1.55-2,4.23,4.23,0,0,1-.28-2.57,6.59,6.59,0,0,1,7.11-4.85,6.73,6.73,0,0,1,3.79,2.13A6.39,6.39,0,0,1,256.1,119.23Zm-.21,0a4.59,4.59,0,0,0-1.93-3.45,6.85,6.85,0,0,0-3.61-1.41,5.23,5.23,0,0,0-5.34,4.08,2.79,2.79,0,0,0,1.43,2.65,7.83,7.83,0,0,0,3.33,1.15,9,9,0,0,0,3.71-.26,3.87,3.87,0,0,0,1.65-1A2.63,2.63,0,0,0,255.89,119.23Z"/><path class="cls-2" d="M230.83,114c1.22,2.56-.16,5.54-3.06,6.65a5.92,5.92,0,0,1-7.47-2.6c-1.21-2.56.16-5.54,3.07-6.66A5.92,5.92,0,0,1,230.83,114Z"/><path class="cls-3" d="M230.93,113.91a5.52,5.52,0,0,1,.3,4.38,5.67,5.67,0,0,1-3.31,3.38,6.71,6.71,0,0,1-4.83,0,6.35,6.35,0,0,1-3.54-3.31,5.29,5.29,0,0,1,.25-4.75,6.21,6.21,0,0,1,3.59-2.83A6.52,6.52,0,0,1,230.93,113.91Zm-.19.09a4.55,4.55,0,0,0-3.1-2.52,6.32,6.32,0,0,0-3.9.3,5,5,0,0,0-2.74,2.47,3.77,3.77,0,0,0,.06,3.4,4.35,4.35,0,0,0,2.7,2.07,6.3,6.3,0,0,0,3.47,0,5.84,5.84,0,0,0,3-1.91A3.71,3.71,0,0,0,230.74,114Z"/><path class="cls-2" d="M263.42,123.62c.1,2.63-2.22,4.74-5.19,4.71s-5.47-2.17-5.57-4.79,2.22-4.73,5.19-4.71S263.31,121,263.42,123.62Z"/><path class="cls-3" d="M263.52,123.62a5.31,5.31,0,0,1-1.36,3.92,5.51,5.51,0,0,1-4.08,1.83,6.23,6.23,0,0,1-4.3-1.6,5.8,5.8,0,0,1-2-4.2,5.07,5.07,0,0,1,2-4,6.19,6.19,0,0,1,4.15-1.22A6,6,0,0,1,263.52,123.62Zm-.21,0a4.08,4.08,0,0,0-1.82-3.27,6,6,0,0,0-3.54-1,5,5,0,0,0-3.25,1.22,3.51,3.51,0,0,0-1.2,2.93,3.7,3.7,0,0,0,1.6,2.66,6.3,6.3,0,0,0,6.35.51A3.46,3.46,0,0,0,263.31,123.63Z"/><path class="cls-2" d="M272,128.54c.1,2.57-2.22,4.63-5.19,4.61s-5.46-2.12-5.57-4.69,2.23-4.63,5.2-4.61S271.85,126,272,128.54Z"/><path class="cls-3" d="M272.06,128.54a5.21,5.21,0,0,1-1.39,3.87,5.6,5.6,0,0,1-4.06,1.78,6.37,6.37,0,0,1-4.27-1.55,5.63,5.63,0,0,1-2-4.15,5,5,0,0,1,2-4,6.25,6.25,0,0,1,4.12-1.16A6,6,0,0,1,272.06,128.54Zm-.21,0a4,4,0,0,0-1.84-3.21,6.13,6.13,0,0,0-3.52-1,5.09,5.09,0,0,0-3.24,1.18,3.45,3.45,0,0,0-1.22,2.87,3.65,3.65,0,0,0,1.62,2.6,6,6,0,0,0,3,1.07,6.12,6.12,0,0,0,3.3-.57A3.37,3.37,0,0,0,271.85,128.55Z"/><path class="cls-2" d="M279.65,134.39c.1,2.56-2.38,4.62-5.53,4.6s-5.79-2.13-5.89-4.69,2.37-4.63,5.52-4.61S279.54,131.82,279.65,134.39Z"/><path class="cls-3" d="M279.75,134.38a5.07,5.07,0,0,1-1.58,3.93A6.12,6.12,0,0,1,274,140a6.86,6.86,0,0,1-4.39-1.48,5.59,5.59,0,0,1-2.19-4.22,4.88,4.88,0,0,1,2.24-4.05,6.82,6.82,0,0,1,4.26-1.1C276.8,129.36,279.5,131.57,279.75,134.38Zm-.21,0a3.91,3.91,0,0,0-2-3.24,6.75,6.75,0,0,0-3.69-.93,5.72,5.72,0,0,0-3.43,1.16,3.33,3.33,0,0,0-1.36,2.88,3.59,3.59,0,0,0,1.74,2.62,6.8,6.8,0,0,0,3.22,1.06,7,7,0,0,0,3.48-.53A3.36,3.36,0,0,0,279.54,134.39Z"/><path class="cls-2" d="M282.52,142.22c-.33,2.53-2.94,4.21-5.83,3.75s-5-2.88-4.63-5.41,3.71-3.85,6.6-3.39A4.23,4.23,0,0,1,282.52,142.22Z"/><path class="cls-3" d="M282.63,142.23a5.27,5.27,0,0,1-1.93,3.55,5.54,5.54,0,0,1-4.17,1.23,6.19,6.19,0,0,1-4-2.09,5.56,5.56,0,0,1-1.36-4.31,4,4,0,0,1,1-2.16,5.45,5.45,0,0,1,1.81-1.28,8.08,8.08,0,0,1,4.1-.59,5.29,5.29,0,0,1,3.59,1.87A5.35,5.35,0,0,1,282.63,142.23Zm-.21,0a3.78,3.78,0,0,0-1-3.45,5.12,5.12,0,0,0-3.34-1.13,6.89,6.89,0,0,0-3.42.78,2.91,2.91,0,0,0-1.74,2.38,3.54,3.54,0,0,0,1.2,2.73,6,6,0,0,0,2.77,1.43,6.12,6.12,0,0,0,3.28-.12A3.4,3.4,0,0,0,282.42,142.2Z"/><path class="cls-2" d="M287.85,149.28c-.33,2.53-2.94,4.21-5.83,3.76s-5-2.88-4.64-5.41,3.72-3.86,6.61-3.4A4.24,4.24,0,0,1,287.85,149.28Z"/><path class="cls-3" d="M288,149.29a5.31,5.31,0,0,1-1.93,3.55,5.52,5.52,0,0,1-4.18,1.23,6.27,6.27,0,0,1-4-2.08,5.6,5.6,0,0,1-1.35-4.32,3.94,3.94,0,0,1,1-2.15,5.22,5.22,0,0,1,1.81-1.28,8.09,8.09,0,0,1,4.1-.6,5.26,5.26,0,0,1,3.59,1.88A5.32,5.32,0,0,1,288,149.29Zm-.21,0a3.81,3.81,0,0,0-1-3.46,5.06,5.06,0,0,0-3.34-1.12,6.75,6.75,0,0,0-3.42.77,2.91,2.91,0,0,0-1.74,2.38,3.52,3.52,0,0,0,1.2,2.73,5.94,5.94,0,0,0,2.77,1.43,6.12,6.12,0,0,0,3.28-.12A3.4,3.4,0,0,0,287.75,149.27Z"/><path class="cls-2" d="M291.64,155.8c-.29,2.21-2.57,3.68-5.09,3.29a4.5,4.5,0,0,1-4-4.73c.29-2.21,3.23-3.37,5.75-3A3.7,3.7,0,0,1,291.64,155.8Z"/><path class="cls-3" d="M291.75,155.82a4.83,4.83,0,0,1-5.36,4.3,5.46,5.46,0,0,1-3.53-1.86,5,5,0,0,1-1.19-3.87,3.57,3.57,0,0,1,.9-1.93,4.79,4.79,0,0,1,1.62-1.14,7.2,7.2,0,0,1,3.62-.51A4.62,4.62,0,0,1,291,152.5,4.71,4.71,0,0,1,291.75,155.82Zm-.21,0a3.28,3.28,0,0,0-.91-3,4.46,4.46,0,0,0-2.9-.93,5.87,5.87,0,0,0-2.94.68,2.48,2.48,0,0,0-1.45,2,3,3,0,0,0,1,2.28,5.1,5.1,0,0,0,2.34,1.21,5.54,5.54,0,0,0,2.8,0A2.9,2.9,0,0,0,291.54,155.79Z"/><path class="cls-2" d="M239.53,120c.52,2.47-1.34,4.8-4.15,5.21s-5.52-1.27-6-3.74,1.34-4.8,4.16-5.21S239,117.51,239.53,120Z"/><path class="cls-3" d="M239.64,120a5.08,5.08,0,0,1-.66,3.94,5.25,5.25,0,0,1-3.63,2.34,6.08,6.08,0,0,1-4.33-.92,5.73,5.73,0,0,1-2.5-3.7,4.86,4.86,0,0,1,1.29-4.17,5.83,5.83,0,0,1,3.78-1.75A5.89,5.89,0,0,1,239.64,120Zm-.21,0a4,4,0,0,0-2.22-2.81,5.76,5.76,0,0,0-3.5-.45,4.68,4.68,0,0,0-2.88,1.61,3.3,3.3,0,0,0-.67,2.93,3.69,3.69,0,0,0,1.93,2.26,5.7,5.7,0,0,0,3,.62,5.5,5.5,0,0,0,3-1A3.23,3.23,0,0,0,239.43,120Z"/><path class="cls-2" d="M249.86,125.48c-.52,2.42-3.44,3.82-6.52,3.12s-5.16-3.25-4.65-5.67,3.44-3.83,6.52-3.12S250.37,123.05,249.86,125.48Z"/><path class="cls-3" d="M250,125.5a5.05,5.05,0,0,1-2.49,3.36,6.37,6.37,0,0,1-4.41.75,7,7,0,0,1-4-2.29,5.3,5.3,0,0,1-1.22-4.57,4.88,4.88,0,0,1,3.16-3.32,7.32,7.32,0,0,1,4.34-.12,6.76,6.76,0,0,1,3.48,2.32A5,5,0,0,1,250,125.5Zm-.21,0a3.68,3.68,0,0,0-1.22-3.53,6.78,6.78,0,0,0-3.4-1.6,6,6,0,0,0-3.58.36,3.37,3.37,0,0,0-2,2.41,3.28,3.28,0,0,0,1.12,2.82,7.06,7.06,0,0,0,2.91,1.65,7.66,7.66,0,0,0,3.51.25A3.32,3.32,0,0,0,249.75,125.46Z"/><path class="cls-2" d="M259.55,131.24c-.52,2.42-3.69,3.5-6.77,2.8s-6.12-2.54-5.61-5,4.39-4.53,7.47-3.82S260.06,128.81,259.55,131.24Z"/><path class="cls-3" d="M259.65,131.26a4.68,4.68,0,0,1-2.9,3.26,7.2,7.2,0,0,1-4.6.44,9.59,9.59,0,0,1-4.21-2,5.06,5.06,0,0,1-1.51-2.12,3.49,3.49,0,0,1,.18-2.73,6.67,6.67,0,0,1,3.61-3,7.62,7.62,0,0,1,4.53-.36,6.94,6.94,0,0,1,3.65,2.48A5.34,5.34,0,0,1,259.65,131.26Zm-.2,0a4,4,0,0,0-1.38-3.7,7.17,7.17,0,0,0-3.55-1.75,6.46,6.46,0,0,0-3.76.59,5.26,5.26,0,0,0-2.62,2.46c-.42,1,.11,1.86,1.1,2.55a12.1,12.1,0,0,0,3.43,1.57,9.43,9.43,0,0,0,3.78.52,4.09,4.09,0,0,0,1.85-.63A2.83,2.83,0,0,0,259.45,131.21Z"/><path class="cls-2" d="M268.5,135.54c.1,2.57-2.28,4.63-5.31,4.6s-5.57-2.12-5.67-4.69,2.27-4.63,5.3-4.6S268.4,133,268.5,135.54Z"/><path class="cls-3" d="M268.6,135.53a5.09,5.09,0,0,1-1.45,3.89,5.72,5.72,0,0,1-4.1,1.76,6.47,6.47,0,0,1-4.31-1.52,5.64,5.64,0,0,1-2.06-4.17,4.92,4.92,0,0,1,2.11-4,6.49,6.49,0,0,1,4.17-1.14A6,6,0,0,1,268.6,135.53Zm-.21,0a4,4,0,0,0-1.88-3.22,6.32,6.32,0,0,0-3.58-.94,5.23,5.23,0,0,0-3.3,1.17,3.38,3.38,0,0,0-1.27,2.87A3.57,3.57,0,0,0,260,138a6.19,6.19,0,0,0,3.08,1.07,6.48,6.48,0,0,0,3.36-.55A3.35,3.35,0,0,0,268.39,135.54Z"/><path class="cls-2" d="M274.13,143.19c-.53,2.26-3.21,3.53-6,2.85s-4.62-3.07-4.1-5.34,3.22-3.53,6-2.85S274.65,140.92,274.13,143.19Z"/><path class="cls-3" d="M274.23,143.21a4.89,4.89,0,0,1-2.28,3.13,5.74,5.74,0,0,1-4.1.71,6.21,6.21,0,0,1-3.65-2.24,5,5,0,0,1-1-4.3,4.62,4.62,0,0,1,2.95-3.07,6.51,6.51,0,0,1,4-.09C272.75,138.1,274.7,140.67,274.23,143.21Zm-.2-.05a3.41,3.41,0,0,0-1-3.27,6,6,0,0,0-3.07-1.52,5.25,5.25,0,0,0-3.24.33,3.12,3.12,0,0,0-1.84,2.19,3,3,0,0,0,.93,2.58,6.27,6.27,0,0,0,2.58,1.55,6.68,6.68,0,0,0,3.16.28A3.08,3.08,0,0,0,274,143.16Z"/><path class="cls-3" d="M157.28,105.82c0-.07.05,0,.12,0h.49l.65,0c.43,0,.86.13,1.29.22a15,15,0,0,1,2.5.83,15.6,15.6,0,0,1,4.34,3c.62.59,1.2,1.39,1.73,1.9a3.57,3.57,0,0,0,1.95,1.07,3,3,0,0,0,3.38-2.21,3.24,3.24,0,0,0-.34-2.25,5,5,0,0,0-.66-1,4.57,4.57,0,0,0-.86-.84,10.37,10.37,0,0,0-4.58-1.92C164,104,160.44,104.8,157.28,105.82Zm-.09,0c.77-.28,1.64-.7,2.47-.91a19.57,19.57,0,0,1,2.51-.62,16.48,16.48,0,0,1,5.2-.19,11,11,0,0,1,4.89,1.9,6,6,0,0,1,1.77,2,4,4,0,0,1,.49,2.74,3.76,3.76,0,0,1-1.55,2.37,4,4,0,0,1-2.78.66,4.56,4.56,0,0,1-2.52-1.31c-.69-.7-1.1-1.34-1.72-1.94A15.34,15.34,0,0,0,157.19,105.84Z"/><path class="cls-3" d="M173.25,95.53c.16.57.27,1.3.47,1.93s.44,1.28.7,1.9a13,13,0,0,0,2.11,3.37,5.62,5.62,0,0,0,3.09,2.06,2.22,2.22,0,0,0,2.63-1.51.5.5,0,0,1,.48-.38h0a7.29,7.29,0,0,0,2-.34,5.35,5.35,0,0,0,1.76-1,4,4,0,0,0,1.15-1.59,5.83,5.83,0,0,0,.44-2l.31.42a14.65,14.65,0,0,1-2.9-1.32A14.11,14.11,0,0,1,183,95.2a10.85,10.85,0,0,1-3.1-5.44l.46.14A7.32,7.32,0,0,0,179,91.78a8,8,0,0,0-.83,4.56,10.92,10.92,0,0,0,.5,2.32h0a.15.15,0,0,1-.09.18h0a6.73,6.73,0,0,1-3.12-1,6.24,6.24,0,0,1-1.26-1,5.35,5.35,0,0,1-.53-.63A4.66,4.66,0,0,1,173.25,95.53Zm0-.1.52.68a7.43,7.43,0,0,0,.53.59,5.94,5.94,0,0,0,1.27,1,6.46,6.46,0,0,0,3,.89l-.14.2a11.37,11.37,0,0,1-.6-2.38,8.82,8.82,0,0,1,0-2.46,8.57,8.57,0,0,1,.73-2.37A7.51,7.51,0,0,1,180,89.49a.26.26,0,0,1,.38,0,.19.19,0,0,1,.07.11v0a10.14,10.14,0,0,0,1.15,2.76,10.5,10.5,0,0,0,1.89,2.31,13.5,13.5,0,0,0,2.43,1.75,13.33,13.33,0,0,0,2.73,1.18h0a.42.42,0,0,1,.3.42,7.16,7.16,0,0,1-.44,2.31,5,5,0,0,1-1.36,2,6.18,6.18,0,0,1-2.08,1.19,7.28,7.28,0,0,1-2.34.4l.51-.38a3.07,3.07,0,0,1-1.49,1.87,3.25,3.25,0,0,1-2.32.31,6.44,6.44,0,0,1-3.52-2.5,12.86,12.86,0,0,1-2-3.68,14.17,14.17,0,0,1-.53-2c-.07-.34-.12-.68-.16-1,0-.17,0-.34-.05-.51v-.39A.3.3,0,0,1,173.22,95.43Z"/><g class="cls-6"><path class="cls-3" d="M295,174.68a45,45,0,0,1-3.63,16.67,50.49,50.49,0,0,1-9.2,14.46,54.9,54.9,0,0,1-13.46,10.63l-1.88,1-1.93.93c-1.27.66-2.61,1.17-3.92,1.74s-2.69,1-4,1.45-2.74.82-4.1,1.22a80.34,80.34,0,0,0,15.47-7,56,56,0,0,0,13.1-10.63,51.86,51.86,0,0,0,9.24-14.1,50.92,50.92,0,0,0,2.84-8A43.07,43.07,0,0,0,295,174.68Z"/></g></svg>