<svg id="Layer_1" data-name="Layer 1" xmlns="http://www.w3.org/2000/svg" width="240.68" height="318.38" viewBox="0 0 240.68 318.38">
  <defs>
    <style>
      .cls-1 {
        fill: #ff0;
      }

      .cls-2 {
        fill: #338000;
      }

      .cls-3 {
        fill: #c87137;
      }

      .cls-4 {
        fill: #a05a2c;
      }

      .cls-5 {
        fill: #d38d5f;
      }

      .cls-6 {
        fill: #502d16;
      }

      .cls-7 {
        fill: none;
        stroke: #502d16;
        stroke-linecap: round;
        stroke-linejoin: round;
        stroke-width: 0.64px;
      }
    </style>
  </defs>
  <g>
    <path class="cls-1" d="M228.67,257.21c-1.95-5.2-5.11-8.61-7.66-11.36l-.93-1c-2.24-2.4-4.77-5.11-6.55-7.41a35.79,35.79,0,0,1-4.3-7.43,90.38,90.38,0,0,1-4.08-11c-1.38-4.53-2.84-10.2-4.21-15.67-1.18-4.66-1.93-7.71-2.51-10.94-.28-1.58-.57-3.54-.88-5.61-.34-2.3-.69-4.68-1.11-7.09-.36-2.05-.77-4.15-1.18-6.26-.5-2.59-1-5-1.36-7.4-.5-3.09-.84-6.14-1.17-9.1-.13-1.12-.25-2.21-.38-3.29-.55-4.55-1.15-8.43-1.84-11.85a94.93,94.93,0,0,0-3.3-12.09c-.28-.83-.63-1.82-1-2.9a9.66,9.66,0,0,0,2.65-.76c.12.13.25.25.38.37l.54.53c1.47,1.44,4.19,4.13,8.33,4.13a9.27,9.27,0,0,0,6.49-2.67c2.95-2.87,4.72-7.39,4.31-11l0-.29c-.31-3.16-.69-6-1.13-8.43,1.83,0,3.82-.13,6-.3l2.66,0a8,8,0,0,0,5.46-2.15,15.1,15.1,0,0,0,4.62-4.45c1.2-1.85,4.45-8.33-4.3-14.27l-.6-.42-.62-.41a9.35,9.35,0,0,0-1.94-3.4,8.68,8.68,0,0,0-1.65-6.27,8.89,8.89,0,0,0-.17-4.87,8.92,8.92,0,0,0-.1-8.68l.29-.45a9.73,9.73,0,0,0-.18-10.82A9.84,9.84,0,0,0,215.42,42c-.2-.23-.4-.45-.61-.66.18-.32.35-.65.5-1a9.87,9.87,0,0,0-2.48-11.7,19.81,19.81,0,0,0-4.79-3l-1-.49a13.15,13.15,0,0,0-6.32-1.38,73.93,73.93,0,0,0-12.37,1.68c-1.84.34-3.79.7-5.77,1A30.1,30.1,0,0,0,174,29.3l-.27-.3c-.42-.45-.84-.88-1.28-1.3l.44-.39a9,9,0,0,0,2.81-5.14l0-.18a8,8,0,0,0-7.5-10.79,7.73,7.73,0,0,0-1.85.22h-.22a10.67,10.67,0,0,0-2.2.39,8.14,8.14,0,0,0-3.2,1.77c-2.63,2.33-7,6.24-10.75,9.76-1.51,1.42-2.89,2.77-4.11,4-.45.45-.89.9-1.33,1.36-.87.91-1.62,1.74-2.31,2.52-.82.94-1.52,1.79-2.14,2.59a37.53,37.53,0,0,0-3.71,5.86c-.39.77-.75,1.56-1.08,2.36q-.24.59-.45,1.17c-.25.69-.48,1.39-.68,2.1A54.07,54.07,0,0,0,133,50.76l-.36,1.94a29.36,29.36,0,0,0-4.81-.76c-1.8-.13-3.57-.29-5.24-.45-3.26-.29-6.34-.57-8.9-.57s-5.69.22-8.38,2c-.28.19-.57.36-.86.54C96.21,58.44,97,64,98.25,67.05c-3.82,3.76-3.69,7.47-2.85,10-4.28,3.9-4.17,7.82-3.29,10.44-4.32,3.86-4.32,7.74-3.49,10.39-3.26,2.81-4.19,5.64-4.14,8-4.14,2.94-5.1,6.18-5,8.8-6.88,3.53-8,7.85-7.63,11a14.35,14.35,0,0,0-2.59,1.88,10,10,0,0,0-3.09,5.79A9.33,9.33,0,0,0,65,134l-.83.43a18.24,18.24,0,0,0-4.32,2.81,9.74,9.74,0,0,0-3.18,7.24c-3.93,2.05-5.85,4.41-6.66,6.63a10.65,10.65,0,0,0-2.54,1l-.76.4c-7.29,3.72-7.77,8.54-7.13,11.58a11.74,11.74,0,0,0-4.75,2.4l-.67.56c-8.5,6.91-4.64,13.21-3.26,15,2.6,3.32,7.16,5.72,10.89,5.72h2.13c2.56,0,4.9-.08,7-.21-.48,2.58-.91,5.49-1.27,8.75l0,.32c-.47,3.68,1.36,8.52,4.36,11.54A9.42,9.42,0,0,0,60.67,211h0c4.16,0,6.92-2.64,8.56-4.22l.63-.6a11,11,0,0,0,2.69-3.79,9.5,9.5,0,0,0,4.57,1.22c5.32,0,8.11-4.17,9.46-6.18l.47-.7a9.26,9.26,0,0,0,.85-1.41,9.47,9.47,0,0,0,1.3.09c5.72,0,8.47-4.79,9.64-6.83.15-.25.29-.51.43-.73h0a9.13,9.13,0,0,0,1.8-.32c-.73,2.21-1.52,4.33-2.46,6.57-.41,1-.86,2-1.3,3-.84,1.92-1.71,3.9-2.39,5.75C94.51,204,94,205.49,93.5,207c-.59,1.75-1.19,3.57-1.6,4.62-.77,2-1.93,4.24-3,6.2A52.23,52.23,0,0,1,85.28,224a77.79,77.79,0,0,1-6.51,8.2,59,59,0,0,1-6.17,5.24c-2.35,1.8-4.54,3.37-6.33,4.57a74.74,74.74,0,0,1-7.86,4.67c-1.88.91-4.07,1.79-5.83,2.49l-2.25.91-1.27.56a22.52,22.52,0,0,1-5.35,1.82c-1.16.22-2.7.41-4.33.62a73,73,0,0,0-10.05,1.74c-5.77,1.55-11.58,4.84-14.47,8.18-2.67,3.09-3.5,5.21-4.48,9.1a41.37,41.37,0,0,0-1.14,13.5c0,.36.1.73.16,1.1a8.31,8.31,0,0,0,.15,1,21.41,21.41,0,0,0,6.48,12c.18.18.37.34.56.5,3.6,2.89,8.21,4.69,15,5.82a152.31,152.31,0,0,0,18,1.16l2.83,0a27.76,27.76,0,0,0,5.83-.37,8.58,8.58,0,0,0,3.61-1.57,72.21,72.21,0,0,0,7-5.93c.41-.4.83-.84,1.27-1.28,1.6-1.65,3.12-3.21,4.58-3.54,1.74-.27,5.41-.38,6.59-.41l2.21-.05c2.93,0,6-.1,8.37-.31,1.11-.09,2-.19,2.69-.32l.4-.08a36.28,36.28,0,0,0,11-4.2,33.71,33.71,0,0,0,7.26-4.92,42.41,42.41,0,0,0,6.9-8.32c1.45-2.28,2.88-5.16,4.14-7.7l.67-1.34c.35-.69.65-1.37.94-2,.19-.42.42-.95.59-1.27.86-.42,1.89-.8,3.06-1.24l.4-.15a48.17,48.17,0,0,0,6-2.51c.88-.46,1.77-1,2.78-1.63l0,0c.44-.29.87-.58,1.29-.88a33.6,33.6,0,0,0,9.61-10.42l0,0c0,.17.07.35.11.52A25,25,0,0,0,157,259.91a56.87,56.87,0,0,0,5.39,4.25,46.8,46.8,0,0,1,4.43,3.47,27.17,27.17,0,0,1,1.48,5.55c.19.93.36,1.81.55,2.6a28.72,28.72,0,0,0,5.41,11.92,24.93,24.93,0,0,0,10,7.42,33,33,0,0,0,12.56,2.4h1a72.94,72.94,0,0,0,9.94-.78,7.56,7.56,0,0,0,1.27-.29c1.42-.23,2.74-.5,3.92-.81A28.71,28.71,0,0,0,226,287.89a22.34,22.34,0,0,0,5.57-14.2A50.26,50.26,0,0,0,228.67,257.21Z"/>
    <g>
      <path class="cls-2" d="M193.29,96.91s-2.88,3.64-1.79,10,1.63,12.3,3.16,13.7,3,3.4,4.34,2.12a6.73,6.73,0,0,0,1.94-4.34c-.1-.89-.93-10.7-3.08-15.48-1-2.31-4.57-6-4.57-6Zm0,0"/>
      <path class="cls-2" d="M186.78,92.32s-3.72,2.77-4.28,9.2-1.57,12.3-.46,14,2.07,4.06,3.66,3.16a6.78,6.78,0,0,0,3-3.7c.13-.89,1.85-10.58,1-15.76-.42-2.49-2.9-7-2.9-7Zm0,0"/>
      <path class="cls-2" d="M182.18,85.52s-4.23,1.9-6.17,8-4.2,11.68-3.5,13.62,1.14,4.41,2.89,3.88a6.78,6.78,0,0,0,3.71-3c.32-.85,4.1-9.93,4.38-15.17.14-2.53-1.31-7.42-1.31-7.42Zm0,0"/>
      <path class="cls-2" d="M179.3,78.31s-4.59.61-8.22,5.93-7.4,10-7.28,12-.18,4.56,1.65,4.55a6.7,6.7,0,0,0,4.4-1.77c.55-.71,6.79-8.32,8.58-13.26.86-2.38.88-7.48.88-7.48Zm0,0"/>
      <path class="cls-3" d="M136.56,115.52c2-4,6.13-8.68,10.1-9.52s11.31-.37,15.48,1.33a23.86,23.86,0,0,1,10.76,9.59c2.72,4.43,5.23,11,6.73,15.41a85.41,85.41,0,0,1,3,11.1c.69,3.44,1.26,7.26,1.73,11.22s.88,8.25,1.6,12.71,1.77,9.24,2.56,13.76,1.37,9.26,2,12.75,1.42,6.72,2.62,11.48,2.8,11.06,4.32,16a96.42,96.42,0,0,0,4.44,11.92,43.15,43.15,0,0,0,5.25,9c2.28,3,5.44,6.27,8,9s4.69,5.14,6,8.71a42.7,42.7,0,0,1,2.42,13.37,14.39,14.39,0,0,1-3.46,9.07,20.39,20.39,0,0,1-9.35,5.45,54.27,54.27,0,0,1-13.52,1.35,25.05,25.05,0,0,1-9.61-1.77,17.15,17.15,0,0,1-6.86-5.07A21.15,21.15,0,0,1,177,273.7c-.83-3.52-1.45-9.08-3.86-11.67s-7.69-5.76-10.3-8.21a16.82,16.82,0,0,1-5-8.74,38.93,38.93,0,0,1-.66-11.56c.35-3.66,2.21-9.9.77-11s-4.53-2.61-6.95-4.49a19.47,19.47,0,0,1-5.45-6.54,25.11,25.11,0,0,1-2.52-7.93,22.14,22.14,0,0,1,.14-8.16c.58-1.84,1.6-3.7,2.87-6.63s2.63-6.62,2.47-9.29-3-5.8-5.51-8.06-5.42-4.54-7.5-7a25.71,25.71,0,0,1-4.58-8.21,14.35,14.35,0,0,1-.19-9.37c1.12-3.23,3.94-8.13,4.31-10.94s-1.38-5.36-1.45-8.54a28,28,0,0,1,3-11.86Zm0,0"/>
      <path class="cls-2" d="M176.82,68.58s-5.27-.37-10.54,4.74-10.53,9.43-10.87,11.77-1.24,5,.8,5.45a7.66,7.66,0,0,0,5.32-1c.77-.67,9.48-7.74,12.6-12.83,1.5-2.47,2.69-8.16,2.69-8.16Zm0,0"/>
      <path class="cls-4" d="M165.08,108.54a54.5,54.5,0,0,1,.12,11.95,16.7,16.7,0,0,1-2,6.4c-.82,1.46-2.07,3.1-3.07,4.54-1.89,2.75-3.52,5.5-4.75,7.65s-2,3.72-2.67,5.14a6.19,6.19,0,0,1,.4,1.21c-.11,0-.25,0-.93-.19.11-.25.39-.74.53-1,0-.12-.08-.53-.18-.53s-.62.52-.79,1.78a1.07,1.07,0,0,0,.57.75,1.65,1.65,0,0,0,1.34-.05c1.14-1.33,2.48-3,4.3-5.37,1.4-1.8,3.52-4.59,5.44-6.91a53.14,53.14,0,0,0,3.65-4.61,20.71,20.71,0,0,0,3.05-8.09,50.49,50.49,0,0,0,.2-7.82,25,25,0,0,0-5.23-4.83Zm0,0"/>
      <path class="cls-4" d="M156.73,106.35a32.09,32.09,0,0,0-10.43-.09c-4,.84-8.09,5.5-10.1,9.52a27.8,27.8,0,0,0-3,11.85c.06,3.18,1.82,5.74,1.45,8.55s-3.19,7.71-4.31,10.94a14.35,14.35,0,0,0,.19,9.37,25.68,25.68,0,0,0,4.57,8.21c2.09,2.49,5,4.78,7.5,7s5.36,5.37,5.52,8-1.2,6.38-2.47,9.3-2.29,4.79-2.86,6.63a21.9,21.9,0,0,0-.15,8.16,25,25,0,0,0,2.52,7.92,19.4,19.4,0,0,0,5.45,6.55c2.41,1.88,5.5,3.44,6.94,4.49s-.41,7.29-.77,10.95a39.26,39.26,0,0,0,.67,11.56,16.79,16.79,0,0,0,5,8.74c2.6,2.45,7.9,5.62,10.3,8.21s3,8.14,3.86,11.67a21.21,21.21,0,0,0,3.84,8.72,17.15,17.15,0,0,0,6.86,5.07,25.24,25.24,0,0,0,9.61,1.77,61.87,61.87,0,0,0,9.6-.69c-1.07-.08-2.21-.12-3.14-.29a20.23,20.23,0,0,1-4.31-1.28,18.46,18.46,0,0,1-3.72-2.07,16.39,16.39,0,0,1-3.13-3,37.33,37.33,0,0,0-3.69-3.41c-.82-1.34-3-3.46-3.42-5.22a16.63,16.63,0,0,1,0-6.19c.57-3.56,8.65-8.47,15.79-12.07-6.58,1.38-12.28,5-15.27,4.32s-4.2-.55-6.15-2a58.55,58.55,0,0,1-5.23-4.06,16.72,16.72,0,0,1-3.17-4,17.67,17.67,0,0,1-1.8-4.72,34.14,34.14,0,0,1-.75-5.67c-.12-2-1-3.16-.81-5s-.69-3.79-.36-5.94c.16-1.07.53-4.1,2-5.38s7.93-3.18,16.53-4.64c-1.44-1.06-19.84.48-22.69-1-1.35-.71-3-1.29-3.85-2.37a20.12,20.12,0,0,1-2.32-3.53,41.31,41.31,0,0,1-2.08-5.19c2.15-2,4.69-3.2,6.31-5.15,3.13-3.77,5.5-14.28,5.93-16.47a11.93,11.93,0,0,0,.52-3.21c1.39-1.71,7.59-1.24,11.09-2.89-5.13.15-9.4.08-11-3.7.28-2.19.1-3.12.47-7.48,1.57-5.33,2-7,1.78-12.36-.06-1.62-1.42-6.52-2.57-7.94-1-1.23-2.18-3.81-6.16-5.55-6.8-3-3.48-1.7-6.51-2.41a26.59,26.59,0,0,0-6.81-.34c-1.71,0-1.2.13-2.11-.31a10.32,10.32,0,0,0,.52-4.69,15.81,15.81,0,0,0-.5-2.06,16.84,16.84,0,0,1-.88-4.41,22.81,22.81,0,0,1,.71-5.61,29.57,29.57,0,0,1,2.27-6.25,22.46,22.46,0,0,1,1.87-3.06,23.08,23.08,0,0,1,2.44-2.88,16.63,16.63,0,0,1,2.82-2.3,9.65,9.65,0,0,1,1.63-.7Zm0,0"/>
      <path class="cls-5" d="M153.73,141.08c-4-.36-13-.68-16.46-.18s-6.09,2.82-8.19,4.78a39.05,39.05,0,0,0-5.15,5.54,28.86,28.86,0,0,0-3.38,5.74c-1.07,2.25-1.86,4.13-2.74,6.37s-1.1,2.84-2.21,5.75-2.49,6.42-3.55,9.66-1.94,6.69-2.88,9.73-2,5.82-3.16,8.66-2.64,5.89-3.56,8.42-2.24,6.81-3.1,9a74.42,74.42,0,0,1-3.32,7,58.45,58.45,0,0,1-4.16,7,83.88,83.88,0,0,1-7.38,9.27,65.54,65.54,0,0,1-7,6c-2.26,1.72-4.63,3.46-6.73,4.85a81.21,81.21,0,0,1-8.83,5.24c-3,1.46-6.4,2.7-8.44,3.56a35.77,35.77,0,0,1-8.28,2.88c-3.73.69-9.32,1-13.76,2.21s-8.8,3.72-10.49,5.68-2.06,2.94-2.78,5.82a33.74,33.74,0,0,0-.95,10.64c.38,3.31,2.1,7.24,4.26,9S26.71,297,32.7,298s23.22,1.53,24,.9a66.61,66.61,0,0,0,6.2-5.26c2.55-2.5,5.47-6.21,10.23-7s16.32-.44,19.92-1.09a28.47,28.47,0,0,0,8.72-3.4,25.61,25.61,0,0,0,5.7-3.82,35.85,35.85,0,0,0,5.54-6.66,64.48,64.48,0,0,0,4.15-7.89c1.17-2.6,2.41-5.7,4.91-7.12s6-2.08,10-4.14a25.09,25.09,0,0,0,9.79-9.19,26.47,26.47,0,0,0,3.73-13.09c.11-4.69-.93-9.35-1.32-13.11s-.1-6.25,1.37-8,4.22-2.87,6.8-4.28a21,21,0,0,0,7-5.62c2-2.63,3.59-6.64,4.49-10.84a93.6,93.6,0,0,0,1.45-12.84,39.17,39.17,0,0,1,.65-6.84c.52-2.52,1.58-5.75,1.76-9.55A20.45,20.45,0,0,0,166,149a13.27,13.27,0,0,0-5.63-5.9c-1.85-1.18-2.63-1.67-6.65-2Zm0,0"/>
      <path class="cls-2" d="M175,58.53S170,57,163.8,60.8s-12.2,6.79-13,9-2.29,4.6-.42,5.43a7.55,7.55,0,0,0,5.34.23c.89-.48,10.82-5.39,14.94-9.62,2-2,4.37-7.27,4.37-7.27Zm0,0"/>
      <path class="cls-2" d="M173.29,49.5s-4.9-2.25-11.77.73-13.44,5.22-14.61,7.33-3,4.37-1.2,5.5a7.84,7.84,0,0,0,5.43,1c1-.36,11.84-4,16.65-7.73,2.32-1.81,5.5-6.81,5.5-6.81Zm0,0"/>
      <path class="cls-6" d="M155.43,74.15c.42.21-.15,2.08-1.15,5a28.41,28.41,0,0,0-1.39,5.66,69.76,69.76,0,0,0-.36,7.45c0,.53,0,1,0,1.57-.11,4.1-.22,7.29-.61,10.4a15.55,15.55,0,0,1-1,4.19,7.2,7.2,0,0,1-.79,1.45c-.58.8-1.08,1.07-1.24,1s-.07-.64.11-1.5c.09-.43.15-.79.24-1.4a24.81,24.81,0,0,0,.12-3.85c0-2.1-.15-7.12-.11-10.32,0-.52,0-1,0-1.57a45.47,45.47,0,0,1,.68-7.86,21,21,0,0,1,2.32-6.1c1.56-2.79,2.84-4.29,3.19-4.12Zm0,0"/>
      <path class="cls-2" d="M170.66,41.22s-5.3-2.34-12.63,1-14.35,5.82-15.57,8.1-3.15,4.74-1.2,5.92a8.4,8.4,0,0,0,5.84,1c1.05-.41,12.65-4.47,17.75-8.57,2.47-2,5.81-7.4,5.81-7.4Zm0,0"/>
      <path class="cls-7" d="M168.2,19.2c-.28.25-1.88.12-2.16.37-3.06,2.72-7.08,6.29-10.57,9.6-1.78,1.68-3.55,3.41-5.13,5.06a57.15,57.15,0,0,0-3.89,4.45A27.27,27.27,0,0,0,142.37,46a38.66,38.66,0,0,0-1.56,6.28c-.71,3.8-1.46,7.78-2.47,12.17-1,4.17-2.11,8.62-3.52,13.62-1.36,4.8-2.9,10-4.75,15.86a134,134,0,0,1-6.62,17.91,100.6,100.6,0,0,1-9.92,15.85c-3.76,5.12-7.55,9.93-11.22,14.31a141.46,141.46,0,0,1-11,11.93,142.61,142.61,0,0,1-11.09,9.31c-4.8,3.74-10.33,8-13.85,10.69,3.23-2.48,10.67-8.14,13.91-10.62,3.84-2.93,7.35-5.6,11.23-9.17a141.08,141.08,0,0,0,11.19-11.8c3.73-4.34,7.59-9.1,11.43-14.19a101.29,101.29,0,0,0,10.24-15.85,135.39,135.39,0,0,0,6.93-18c1.93-5.89,3.56-11,5-15.82,1.51-5,2.76-9.44,3.79-13.63,1.1-4.42,1.93-8.39,2.72-12.2a36.87,36.87,0,0,1,1.56-5.93A25.75,25.75,0,0,1,148.22,40c1-1.28,2.3-2.73,3.75-4.24s3.3-3.3,5.07-5c3.46-3.26,7.49-6.83,10.54-9.54.28-.24.34-1.85.62-2.1Zm0,0"/>
      <path class="cls-6" d="M168.2,19.2c-.28.25-1.88.12-2.16.37-3.06,2.72-7.08,6.29-10.57,9.6-1.78,1.68-3.55,3.41-5.13,5.06a57.15,57.15,0,0,0-3.89,4.45A27.27,27.27,0,0,0,142.37,46a38.66,38.66,0,0,0-1.56,6.28c-.71,3.8-1.46,7.78-2.47,12.17-1,4.17-2.11,8.62-3.52,13.62-1.36,4.8-2.9,10-4.75,15.86a134,134,0,0,1-6.62,17.91,100.6,100.6,0,0,1-9.92,15.85c-3.76,5.12-7.55,9.93-11.22,14.31a141.46,141.46,0,0,1-11,11.93,142.61,142.61,0,0,1-11.09,9.31c-4.8,3.74-10.33,8-13.85,10.69,3.23-2.48,10.67-8.14,13.91-10.62,3.84-2.93,7.35-5.6,11.23-9.17a141.08,141.08,0,0,0,11.19-11.8c3.73-4.34,7.59-9.1,11.43-14.19a101.29,101.29,0,0,0,10.24-15.85,135.39,135.39,0,0,0,6.93-18c1.93-5.89,3.56-11,5-15.82,1.51-5,2.76-9.44,3.79-13.63,1.1-4.42,1.93-8.39,2.72-12.2a36.87,36.87,0,0,1,1.56-5.93A25.75,25.75,0,0,1,148.22,40c1-1.28,2.3-2.73,3.75-4.24s3.3-3.3,5.07-5c3.46-3.26,7.49-6.83,10.54-9.54.28-.24.34-1.85.62-2.1Zm0,0"/>
      <path class="cls-6" d="M157,29.37c.19.09.14,1.77.33,1.86a57.22,57.22,0,0,1,5.77,2.83,16.08,16.08,0,0,1,2.81,2.21,19,19,0,0,1,2.73,3.36,34.49,34.49,0,0,1,4.31,11.2c.94,4.6,1.32,10.78,3,17.77a95.3,95.3,0,0,0,3.77,11.94c.81,2,1.66,4,2.54,5.71a25.79,25.79,0,0,0,2.71,4.37,26.43,26.43,0,0,0,14.34,8.65c5.62,1.27,13.25,1.18,17.07,1.22-3.91,0-11.38,0-17-1.49a25.67,25.67,0,0,1-13.8-8.86A25.61,25.61,0,0,1,183,85.85c-.82-1.7-1.62-3.64-2.37-5.68a88.6,88.6,0,0,1-3.45-11.86c-1.46-6.91-1.64-13-2.43-17.82a37.93,37.93,0,0,0-4.08-12.1,21.48,21.48,0,0,0-2.88-4,18.86,18.86,0,0,0-3.16-2.78,40.59,40.59,0,0,0-6.07-3.24c-.2-.09-1.42,1.07-1.61,1Zm0,0"/>
      <path class="cls-2" d="M171.65,41.31s3.44-5.43,12.26-6.91,16.85-3.51,19.38-2.16,5.85,2.42,4.77,4.72a9.35,9.35,0,0,1-4.79,4.52c-1.21.27-14.43,3.7-21.68,3.08-3.5-.3-9.94-3.24-9.94-3.24Zm0,0"/>
      <path class="cls-2" d="M174,49.18s4-4.81,12.66-5.13,16.64-1.28,18.91.33,5.33,3.07,4,5.14-4,3.64-5.18,3.75-14.34,1.77-21.24.27c-3.33-.73-9.16-4.36-9.16-4.36Zm0,0"/>
      <path class="cls-2" d="M175,58.49s4-4.8,12.66-5.12,16.64-1.28,18.91.33,5.33,3.06,4,5.13a9.11,9.11,0,0,1-5.18,3.76c-1.2.11-14.34,1.76-21.24.26-3.33-.72-9.16-4.36-9.16-4.36Zm0,0"/>
      <path class="cls-2" d="M176.84,68.57s3.7-4.46,11.75-4.76,15.45-1.19,17.55.31,5,2.84,3.72,4.76a8.36,8.36,0,0,1-4.8,3.49c-1.12.1-13.32,1.64-19.72.25-3.09-.68-8.51-4.05-8.51-4.05Zm0,0"/>
      <path class="cls-2" d="M179.3,78.31s3-4.37,10.27-5.34,14-2.41,16-1.24,4.73,2.16,3.79,4a7.67,7.67,0,0,1-4.07,3.58c-1,.19-12,2.64-17.91,1.93-2.87-.35-8.08-3-8.08-3Zm0,0"/>
      <path class="cls-2" d="M182.19,85.51S185,81.35,192,80.43s13.29-2.3,15.23-1.18,4.51,2.06,3.61,3.83a7.37,7.37,0,0,1-3.87,3.41c-1,.18-11.4,2.51-17.06,1.83-2.73-.33-7.7-2.8-7.7-2.8Zm0,0"/>
      <path class="cls-2" d="M186.78,92.31s2.62-3.84,9-4.68,12.23-2.11,14-1.08,4.15,1.89,3.32,3.52a6.69,6.69,0,0,1-3.57,3.13c-.88.17-10.49,2.32-15.7,1.7-2.51-.31-7.08-2.59-7.08-2.59Zm0,0"/>
      <path class="cls-2" d="M193.29,96.91s3-3.53,9.45-3.68,12.38-.79,14,.43,3.93,2.32,2.93,3.86a6.75,6.75,0,0,1-3.89,2.73c-.89.07-10.67,1.17-15.78,0-2.47-.57-6.76-3.33-6.76-3.33Zm0,0"/>
      <path class="cls-2" d="M138.76,65.09s-3.54-4.58-11.56-5.17-15.39-1.74-17.55-.33-5,2.66-3.88,4.63a8.36,8.36,0,0,0,4.67,3.65c1.11.15,13.24,2.12,19.68,1,3.11-.56,8.64-3.73,8.64-3.73Zm0,0"/>
      <path class="cls-2" d="M136.25,75.61s-3.59-4.55-11.62-5-15.41-1.57-17.55-.13-5,2.71-3.83,4.67A8.41,8.41,0,0,0,108,78.7c1.12.13,13.26,2,19.7.74,3.1-.6,8.59-3.83,8.59-3.83Zm0,0"/>
      <path class="cls-2" d="M133,86s-3.58-4.55-11.61-5-15.41-1.58-17.55-.14-5,2.72-3.83,4.67a8.46,8.46,0,0,0,4.71,3.6c1.11.13,13.26,2,19.69.74C127.47,89.27,133,86,133,86Zm0,0"/>
      <path class="cls-2" d="M129.51,96.61s-3.58-4.54-11.61-5-15.4-1.58-17.54-.14-5,2.72-3.83,4.67a8.38,8.38,0,0,0,4.71,3.6c1.11.13,13.26,2,19.68.74,3.11-.59,8.6-3.83,8.6-3.83Zm0,0"/>
      <path class="cls-2" d="M125.81,107.19s-3.58-4.54-11.62-5-15.4-1.57-17.54-.13-5,2.72-3.84,4.67a8.39,8.39,0,0,0,4.72,3.6c1.11.13,13.25,2,19.68.74,3.11-.59,8.6-3.83,8.6-3.83Zm0,0"/>
      <path class="cls-2" d="M120.59,118.46s-3.18-4.84-11.14-6S94.23,109.54,92,110.79s-5.22,2.28-4.22,4.33a8.43,8.43,0,0,0,4.38,4c1.1.22,13,3.1,19.56,2.43,3.14-.33,8.89-3.08,8.89-3.08Zm0,0"/>
      <path class="cls-2" d="M112.91,128.89s-3.18-4.84-11.14-6S86.56,120,84.3,121.22s-5.22,2.28-4.22,4.33a8.46,8.46,0,0,0,4.38,4c1.1.22,13.05,3.1,19.56,2.43,3.15-.33,8.89-3.08,8.89-3.08Zm0,0"/>
      <path class="cls-2" d="M105.5,138.67s-3-4.6-10.59-5.73-14.46-2.75-16.6-1.56-5,2.17-4,4.12a8,8,0,0,0,4.16,3.79c1.05.21,12.4,2.94,18.59,2.3,3-.31,8.45-2.92,8.45-2.92Zm0,0"/>
      <path class="cls-2" d="M96,148.28s-3-4.6-10.58-5.73S71,139.8,68.83,141s-5,2.17-4,4.11A8,8,0,0,0,69,148.9c1,.21,12.4,2.94,18.59,2.3,3-.31,8.45-2.92,8.45-2.92Zm0,0"/>
      <path class="cls-2" d="M86.89,157.81s-2.83-4.3-9.92-5.36S63.42,149.88,61.42,151s-4.65,2-3.76,3.85a7.53,7.53,0,0,0,3.9,3.56c1,.2,11.62,2.76,17.41,2.16,2.8-.29,7.92-2.74,7.92-2.74Zm0,0"/>
      <path class="cls-2" d="M76.78,165.92s-2.84-4.31-9.92-5.37S53.32,158,51.3,159.1s-4.65,2-3.75,3.84a7.48,7.48,0,0,0,3.9,3.56c1,.2,11.61,2.76,17.41,2.16,2.8-.29,7.92-2.74,7.92-2.74Zm0,0"/>
      <path class="cls-2" d="M66.38,173.88s-3.67-3.62-10.82-3.18S41.77,171,40,172.52s-4.12,2.95-2.87,4.55a7.46,7.46,0,0,0,4.56,2.65c1,0,11.93.29,17.47-1.51,2.69-.87,7.18-4.33,7.18-4.33Zm0,0"/>
      <path class="cls-2" d="M133,86s5.78.36,10.77,6.66,10.08,11.76,10.12,14.34.62,5.66-1.65,5.81a8.39,8.39,0,0,1-5.64-1.81c-.75-.84-9.19-9.77-11.84-15.76C133.43,92.38,133,86,133,86Zm0,0"/>
      <path class="cls-2" d="M129.51,96.61s5.47,1.91,8.56,9.34,6.5,14,5.84,16.55-.94,5.61-3.17,5.14a8.4,8.4,0,0,1-4.94-3.28c-.49-1-6.18-11.9-7.11-18.38-.45-3.13.82-9.37.82-9.37Zm0,0"/>
      <path class="cls-2" d="M125.81,107.19s5.24,2.45,7.57,10.15,5.06,14.64,4.15,17-1.5,5.49-3.67,4.8a8.41,8.41,0,0,1-4.58-3.76c-.38-1.05-5-12.46-5.23-19-.13-3.16,1.76-9.24,1.76-9.24Zm0,0"/>
      <path class="cls-2" d="M120.59,118.46s4.69,3.41,5.49,11.42,2.15,15.33.79,17.53-2.52,5.1-4.52,4a8.36,8.36,0,0,1-3.77-4.57c-.18-1.11-2.47-13.17-1.49-19.64.48-3.13,3.5-8.74,3.5-8.74Zm0,0"/>
      <path class="cls-2" d="M112.92,128.89s4.68,3.41,5.48,11.42,2.16,15.33.8,17.53-2.52,5.1-4.52,4a8.32,8.32,0,0,1-3.77-4.57c-.18-1.1-2.48-13.17-1.5-19.64.48-3.13,3.5-8.74,3.5-8.74Zm0,0"/>
      <path class="cls-2" d="M105.5,138.67s4.45,3.24,5.22,10.85,2,14.57.75,16.66-2.39,4.86-4.29,3.81a7.94,7.94,0,0,1-3.59-4.34c-.17-1.06-2.35-12.53-1.41-18.68.45-3,3.32-8.3,3.32-8.3Zm0,0"/>
      <path class="cls-2" d="M96,148.28s4.45,3.24,5.22,10.85,2,14.57.75,16.66-2.39,4.85-4.29,3.81a7.93,7.93,0,0,1-3.59-4.35c-.17-1.05-2.36-12.52-1.42-18.67.46-3,3.33-8.3,3.33-8.3Zm0,0"/>
      <path class="cls-2" d="M86.89,157.81s4.16,3,4.88,10.17,1.92,13.65.71,15.61-2.25,4.54-4,3.56a7.49,7.49,0,0,1-3.36-4.07c-.15-1-2.2-11.73-1.32-17.49.42-2.78,3.12-7.78,3.12-7.78Zm0,0"/>
      <path class="cls-2" d="M76.78,165.92s3.94,3.31,4.16,10.47,1,13.76-.37,15.62-2.56,4.38-4.27,3.28A7.5,7.5,0,0,1,73.23,191c-.08-1-1.38-11.86-.11-17.54.62-2.75,3.65-7.54,3.65-7.54Zm0,0"/>
      <path class="cls-2" d="M66.38,173.88S69.53,178,68.22,185s-2,13.64-3.7,15.18-3.44,3.73-4.87,2.29a7.46,7.46,0,0,1-2.08-4.85c.12-1,1.17-11.88,3.64-17.16,1.19-2.55,5.17-6.59,5.17-6.59Zm0,0"/>
      <path class="cls-3" d="M17.37,286a13.64,13.64,0,0,0,4.23,7.93c2.17,1.74,5.29,3.16,11.29,4.16s23.27,1.39,24.1.76a65.29,65.29,0,0,0,6.2-5.26c2.55-2.5,5.47-6.2,10.23-7s15.32-.26,19.92-1.09a28.77,28.77,0,0,0,8.71-3.4,25.44,25.44,0,0,0,5.71-3.82,34.87,34.87,0,0,0,5.52-6.69c1.46-2.29,3.07-5.67,4.4-8.32s1.85-5.2,4.71-6.68,6.24-2.23,10.33-4.4a25.73,25.73,0,0,0,9.89-9.52A26.44,26.44,0,0,0,146,229.5c0-4.68-1.06-9.23-1.33-13-.67-4,.27-6.24,2.1-8s5.44-3.21,8.31-5.16A20,20,0,0,0,163,192.55a100.58,100.58,0,0,0,2.62-16.32,45.68,45.68,0,0,1,.7-7.54c.52-2.52,1.58-5.75,1.76-9.55a20.17,20.17,0,0,0-1.87-10.2,14.26,14.26,0,0,0-5.86-6c-2.16-1.94-4.16-2.23-9.9-2.34-3.51.35-6.19,1-5.4,5.09.8,2.15,7.87-4.61,12.14-2.26a15,15,0,0,1,5.36,5.37c1.39,2.64,2.51,6.1,1.65,8.82-.51,1.55-1.34,6.86-2.89,8.58-1.71,1.92-10.6-.76-16.25-1.8,6.6,2.89,14.57,5,14.4,9.48-.35,3.27-2.51,8.8-3.15,11a12.21,12.21,0,0,1-1.49,3.15,21.08,21.08,0,0,1-2.27,2.89,29.75,29.75,0,0,1-5,4.27c-1.45,1-3,1.83-4.4,2.68s-2.23.59-4.79.49c-1.64-.06-17.73-5.67-18-5.14s11.45,3.68,13.8,6.84c1.6,2.15,4,4,4.78,7.87.38,1.84-.44,3.9-.69,6.57a47.7,47.7,0,0,1,.56,6.84,27.65,27.65,0,0,1-.86,6.88,23.9,23.9,0,0,1-2.53,6.27,26,26,0,0,1-6.93,7.66,25.32,25.32,0,0,1-3,1.86,57.56,57.56,0,0,1-5.44,2.46c-1.63.66-3.08,1.08-6.49.67-6.09-.73-14.82-7.88-15.6-6.8,7.7,5.93,10.3,9.52,10.19,14.15-.07,3-.64,6.64-2.1,8.93a39.78,39.78,0,0,1-2.55,3.52,29.19,29.19,0,0,1-3,3.16,21.76,21.76,0,0,1-2.77,2.13c-.89.58-1.82,1.08-2.94,1.69s-2.4,1.3-3.85,1.92a22.64,22.64,0,0,1-4.87,1.48,86.59,86.59,0,0,1-9.52.49c-3.94.09-6.11.06-8.7.19-4.07.19-7.36-10.88-10.65-12.2-.25,2.08,5.1,6.81,1.89,15.16-2,4.22-5.6,6.9-9.37,9.75-.41.31-4.92.33-10.08.15a133.48,133.48,0,0,1-14-1.06c-3-.5-5.39-.91-7.07-1.91-.77-.45-1.13-1.73-1.3-1.8Zm0,0"/>
      <path class="cls-6" d="M147.44,144.65c-.46-.25.1-3.24,2.41-8a63.42,63.42,0,0,1,4.43-7.66c1-1.44,2.18-3.09,3-4.52a16.35,16.35,0,0,0,1.85-6.25,55.49,55.49,0,0,0-.2-13,95,95,0,0,0-2.11-10.52c-.32-1.31-.63-2.58-.94-3.9a85.71,85.71,0,0,1-2.65-17.37c-.1-3.63.15-7.91.21-10.77-.06-3.63.41-5.83-.51-7.78-1.36-3.42-5.44-7.17-6.64-8.46a15.16,15.16,0,0,1-1.84-2.21c.05-.54,1.31-.46,3.08.5a22.54,22.54,0,0,1,9.4,8.12c1.7,3.17,1.86,6.44,2,9.71s.2,7,.49,10.56a101.21,101.21,0,0,0,3,16.15c.32,1.26.65,2.58,1,3.88a86.64,86.64,0,0,1,2.11,11.36,53.71,53.71,0,0,1-.4,14.58,21.07,21.07,0,0,1-3.19,8.25,53.72,53.72,0,0,1-3.69,4.57c-2.1,2.45-3.85,4.69-5.29,6.59-3.05,4-4.69,6.49-5.36,6.15Zm0,0"/>
      <path class="cls-2" d="M138.76,65.1s5.7-1,12,4S163.3,78.2,163.93,80.7s1.91,5.37-.27,6a8.45,8.45,0,0,1-5.91-.46c-.91-.65-11.18-7.39-15.15-12.59-1.92-2.52-3.85-8.59-3.85-8.59Zm0,0"/>
      <path class="cls-2" d="M136.25,75.61s5.71-.93,12,4.12,12.42,9.25,13,11.76,1.85,5.39-.33,6A8.37,8.37,0,0,1,155,97c-.91-.65-11.11-7.5-15-12.75-1.88-2.54-3.75-8.63-3.75-8.63Zm0,0"/>
    </g>
  </g>
</svg>
