<svg id="Layer_1" data-name="Layer 1" xmlns="http://www.w3.org/2000/svg" viewBox="0 0 326.81 247.49"><defs><style>.cls-1{fill:#f9ff00;}.cls-2{fill:#dc093b;}.cls-3{fill:#83142a;}.cls-4{opacity:0.5;}.cls-5,.cls-7{fill:#fff;}.cls-6{opacity:0.7;}.cls-7{opacity:0.3;}.cls-8{fill:#ffd9bc;}.cls-9{fill:#e3a07c;}.cls-10{fill:#ffbf9d;}.cls-11{fill:#875959;}</style></defs><path class="cls-1" d="M320.59,143.12c0-.21,0-.42,0-.63-.16-1.46-.4-3-.72-4.47-2.27-22.26-18.73-42.07-44.18-53.08-15.92-6.89-32.69-10.53-48.5-10.53a95.3,95.3,0,0,0-30.69,4.88,10.54,10.54,0,0,0-10.6-12.56,10.85,10.85,0,0,0-1.4.09c-8.3,1-13.19,4.73-16,8a95.73,95.73,0,0,0-12.08-12.08c-2-5.51-1.88-10-1.4-12,.66-2.66,1.91-5.74,3.47-6a9.64,9.64,0,0,0,3.47.66,10.28,10.28,0,0,0,8.36-4.69c2.9-4.09,1.87-9.89-1.53-13.58-5.91-6.43-12.18-7.78-16.41-7.78h-.81a19,19,0,0,0-2.91-6.21,10.64,10.64,0,0,0-8.49-4.23,11,11,0,0,0-1.51.11,22,22,0,0,0-10,4.18,22.71,22.71,0,0,0-13.22-4.09,25.73,25.73,0,0,0-6.33.76,10.64,10.64,0,0,0-.77,20.34,5.84,5.84,0,0,1-1.6,4.76,22.88,22.88,0,0,1-7.41,5.88c-1.08,0-2.15-.06-3.22-.06-37.93,0-71.93,22-84.59,54.78-8.43,21.78-7,46,4.07,68.22a96.84,96.84,0,0,0,51.13,46.76,93.81,93.81,0,0,0,34,6.3,94.92,94.92,0,0,0,56-18A78.83,78.83,0,0,0,170,215.44c.29.29.6.58.9.86l.35.32c.53.48,1.05,1,1.55,1.39a76.75,76.75,0,0,0,33.5,17,121.22,121.22,0,0,0,28.43,3.58h0c19.28,0,36.26-5.29,50.46-15.73l.4-.3c.49-.36,1-.72,1.43-1.08l.87-.69.94-.77,1.22-1,.57-.5c.5-.44,1-.88,1.46-1.32l.3-.27c.57-.53,1.12-1.06,1.66-1.6a.23.23,0,0,0,.07-.07,83.74,83.74,0,0,0,11.07-13.6l.1-.15c.4-.62.8-1.25,1.19-1.88l.2-.34c.35-.57.69-1.14,1-1.69L308,197c.29-.5.57-1,.85-1.51l.43-.8.67-1.28c.17-.34.34-.69.52-1s.35-.72.53-1.09.39-.82.59-1.25l.4-.88c.22-.48.44-1,.64-1.45l.31-.73c.23-.54.45-1.08.67-1.64l.22-.56c.23-.58.46-1.17.67-1.75l.18-.5c.22-.61.44-1.21.66-1.87l.14-.4c.21-.63.41-1.25.6-1.87l.15-.47c.19-.61.37-1.23.54-1.82l.15-.54c.17-.59.33-1.18.49-1.78l.17-.65c.13-.54.27-1.08.39-1.61l.2-.86c.11-.47.22-1,.31-1.41l.24-1.15.22-1.12c.1-.49.18-1,.27-1.46l.14-.82c.1-.62.2-1.24.31-2l0-.28A100.74,100.74,0,0,0,320.59,143.12Zm-11.45,17.74c0,.13,0,.25-.05.37-.08.56-.17,1.12-.26,1.68,0,.24-.09.48-.13.72-.08.43-.15.87-.24,1.31s-.13.68-.2,1-.13.67-.2,1-.19.85-.29,1.27c-.06.26-.11.51-.17.76l-.36,1.47-.15.57c-.14.53-.28,1.06-.43,1.59-.05.15-.09.31-.13.46-.16.55-.33,1.1-.5,1.66l-.12.39-.54,1.68-.14.39c-.18.55-.38,1.09-.57,1.64-.06.14-.11.29-.16.44-.2.52-.39,1-.6,1.55-.06.18-.13.35-.2.53-.19.48-.39,1-.59,1.43-.09.22-.18.43-.28.65-.18.43-.37.86-.56,1.28l-.36.8c-.18.37-.35.74-.52,1.1l-.48,1c-.15.31-.3.61-.46.91s-.39.77-.6,1.15l-.37.7-.75,1.34c-.09.16-.18.32-.28.48-.29.51-.59,1-.9,1.51l-.18.3c-.34.55-.69,1.11-1.05,1.66l-.08.12a72.41,72.41,0,0,1-9.65,11.87l0,.05c-.48.47-1,.94-1.45,1.39l-.24.23c-.43.39-.85.78-1.29,1.16l-.49.43-1.05.89-.83.67-.74.59-1.24.95-.36.25c-16.61,12.21-39.91,17.66-70.09,10.39a66.3,66.3,0,0,1-29-14.65c-.52-.44-1-.91-1.52-1.37l-.89-.83a71.61,71.61,0,0,1-17.17-26c-21.92,22.8-58.35,31-89.65,18.87C30.2,185.05,6.1,139.1,21.43,99.43,33.71,67.69,67.5,49.6,101.19,51.61a32.24,32.24,0,0,0,13.65-9.74c8.44-9.94,2.41-22.29-3-21.69,0,0,14.77-3.92,15.07,12.66,0,0,4.82-12.06,13.25-13.26,0,0,2.78,3.67,1.47,12.25L143,34.36c3.66-3.37,10.82-7.82,18,0,0,0-12.06-3.31-16.28,13.86-1.22,5-.82,12.89,3,21.11a86.25,86.25,0,0,1,16.32,17,26.27,26.27,0,0,1,10.24,4.3S172.26,79,185.74,77.38c0,0-8.39,10.15,4.55,16h0l.05,0,.12-.06c24.34-12,53.9-10.25,81,1.46,23.56,10.19,36.35,27.54,37.87,45a34.32,34.32,0,0,1,.68,4A90.14,90.14,0,0,1,309.14,160.86Z"/><path class="cls-2" d="M96.76,52.72s9.58-.83,18.08-10.85,2.41-22.29-3-21.69c0,0,14.77-3.92,15.07,12.66,0,0,4.82-12.06,13.25-13.26,0,0,3.92,5.12.31,17.47,0,0,10.24-13.86,20.49-2.71,0,0-12.06-3.31-16.28,13.86-1.48,6-.6,16.27,5.73,26.22C150.4,74.42,132.32,57.84,96.76,52.72Z"/><path class="cls-3" d="M96.71,52.72c10.38-1.87,23.73-12.45,21.74-24-.58-3.39-2.6-8.09-6.59-8a.46.46,0,0,1-.49-.4.45.45,0,0,1,.35-.48,16,16,0,0,1,6-.24,11,11,0,0,1,5.49,2.41c3.13,2.68,4,7,4,10.91l-.62-.11a31.86,31.86,0,0,1,5.24-8.29,14.49,14.49,0,0,1,8.3-5c1.06,1.1,1.35,2.89,1.69,4.34.77,4.43,0,9.07-1.2,13.36l-.32-.15c3.63-4.68,9.86-9,15.93-6.46a15,15,0,0,1,5,3.61.35.35,0,0,1,0,.5.36.36,0,0,1-.34.09,11.54,11.54,0,0,0-6.1.45c-4.54,1.58-7.26,6-8.78,10.34-3.32,9.59-.34,20.29,4.86,28.66a.52.52,0,0,1-.78.66c-7.41-6.19-16.21-10.75-25.14-14.41a144.7,144.7,0,0,0-28.2-7.67Zm.1,0a119.1,119.1,0,0,1,41.7,13.13A71.61,71.61,0,0,1,150.75,74l-.78.65c-5.41-8.61-8.42-19.63-4.9-29.52,1.62-4.57,4.57-9.21,9.42-10.79A12.15,12.15,0,0,1,161,34l-.36.58A14.37,14.37,0,0,0,156,31.06c-5.79-2.53-11.87,1.65-15.4,6.1a.18.18,0,0,1-.32-.16l.58-2.16c1.08-4.9,1.81-10.64-.84-15.16l.16.07a12,12,0,0,0-4.42,1.76,17.92,17.92,0,0,0-3.57,3.22,31.17,31.17,0,0,0-5,8.23.33.33,0,0,1-.63-.12c-.1-3.72-1-7.8-3.94-10.28s-7.11-2.74-10.68-1.95l-.17-.87c4.53-.12,6.86,5,7.47,8.81,1,6.21-2.14,12.15-6.69,16.16-4.3,4-9.84,7.34-15.75,8Z"/><path class="cls-2" d="M175.11,158.49c-15.34,39.67-64.22,57.75-104.57,42.15S6.1,139.1,21.43,99.43,85.75,41.37,126.09,57,190.45,118.81,175.11,158.49Z"/><path class="cls-3" d="M175.15,158.5c-7.37,19.64-24.07,34.89-43.51,42.29C91.72,217,43.88,198.56,25,159.86c-20.84-40.59-2.53-86.93,40-103C104.91,40.83,152.56,59.32,171.25,98c9.45,18.5,11.6,41,3.9,60.48Zm-.09,0c7.65-19.47,5.47-41.91-4-60.36C152.27,59.72,104.86,41.45,65.23,57.5c-42.09,16-60.14,61.78-39.39,101.92C44.44,197.52,92,216,131.45,200.29c19.41-7.23,36.13-22.31,43.61-41.82Z"/><g class="cls-4"><path class="cls-5" d="M30.27,115.37c2.87-26.72,23.09-50.09,49-56.93,2.2-.47,4.87-1.15,7.08-1.46l5.74-.67a75.12,75.12,0,0,0-22,6.23c-21,9.54-36.15,30.12-39.81,52.83Z"/></g><g class="cls-4"><path class="cls-5" d="M123.06,65.88c1,16.48-2.8,33.07-9,48.26-.92,2.17-1.94,4.29-2.94,6.42,6.9-17.41,11.66-35.88,12-54.68Z"/></g><g class="cls-4"><path class="cls-5" d="M135.43,69.68c5.62,13,6.32,28,3.51,41.81-.4,2-1,3.92-1.52,5.87,3.21-15.75,3.06-32.34-2-47.68Z"/></g><g class="cls-6"><path class="cls-3" d="M51.57,134.38c-3.74,23.83,4.51,49,25.62,62a46.69,46.69,0,0,0,9.18,4.4,46.53,46.53,0,0,1-11.65-5.28c-20.26-13.41-28-37.91-23.15-61.16Z"/></g><g class="cls-6"><path class="cls-3" d="M79.59,147.94a79.74,79.74,0,0,0,5.88,45.2c-.46-.86-.9-1.72-1.33-2.59a61.89,61.89,0,0,1-4.55-42.61Z"/></g><g class="cls-6"><path class="cls-3" d="M96.31,201.27c6-.46,11.61-2.83,16.9-5.47a65.81,65.81,0,0,0,33.72-39.72,62.15,62.15,0,0,1-2.76,8.55c-5.74,14-17.08,25.31-30.62,31.85-5.4,2.51-11.21,4.75-17.24,4.79Z"/></g><g class="cls-6"><path class="cls-3" d="M131.57,148.39a67.36,67.36,0,0,1-25,40.56c-.86.66-1.73,1.3-2.6,1.93a88.93,88.93,0,0,0,9.28-8.92,83.33,83.33,0,0,0,18.29-33.57Z"/></g><path class="cls-3" d="M144.67,37.66a36,36,0,0,0-8.57,20.22.47.47,0,0,1-.89.15,33.73,33.73,0,0,1-2.83-16.93A34.87,34.87,0,0,1,138.05,25a38.76,38.76,0,0,0-4.82,16.17,35.22,35.22,0,0,0,2.83,16.49l-.89.15a33,33,0,0,1,9.5-20.15Z"/><path class="cls-7" d="M56.46,82.85s11.26-17.8,31.85-23.3a6,6,0,0,1,3.15,0c1.61.45,3.24,1.72,1.34,5.29C90,70,97.31,69.42,103.31,66.28c5.5-2.87,11.16-3.61,10.46,3.29-.81,8.12-13.65,35.58-22.35,25.34-7.61-8.94-12-15.68-20.51-11.38C63.29,87.36,53.28,89.4,56.46,82.85Z"/><g class="cls-4"><path class="cls-5" d="M121.41,33.29c1.3,7.22-3.7,15.36-11.15,16.53a.08.08,0,0,1-.07-.14c.71-.61,1.44-1.1,2.15-1.61A37.54,37.54,0,0,0,118.09,43a15,15,0,0,0,3.16-9.68c0-.1.15-.14.16,0Z"/></g><path class="cls-2" d="M163.43,117.25c-18.84,28.09-9.22,94.69,45.33,107.39,72.69,16.91,103.4-37.51,101.2-81C305.08,99.38,210.41,55.11,163.43,117.25Z"/><path class="cls-8" d="M190.29,93.33c24.36-12.08,54-10.36,81.12,1.38,39.4,17,48.7,54.11,25.51,78.09-21.79,22.55-57.2,37.95-102.19,17.6-29.58-13.38-49-48.39-29.32-76.53l.43.22a17.79,17.79,0,0,0-21-3.71s2.52-13.2,17.63-9.07c0,0-6.05-3.72-6.64-15.68,0,0,10.36-.82,18.32,5,0,0-1.92-11.55,11.56-13.2,0,0-8.54,10.31,4.85,16.09Z"/><path class="cls-9" d="M177.72,175.28c7.13,7.07,16.52,11.41,25.82,14.88,23.4,8.46,50.59,8.42,72.52-4.14a90.79,90.79,0,0,0,12.35-8.54,85.92,85.92,0,0,1-12.1,9c-21.86,13.16-49.55,13.31-73,4.43-9.29-3.64-18.68-8.2-25.56-15.6Z"/><path class="cls-9" d="M217.67,120.28c7.59,10.24,30.22,5.87,48,28.67a62.83,62.83,0,0,0-22.9-16.15c-4.32-1.87-8.82-3.35-13.29-4.9s-9.32-3.43-11.76-7.62Z"/><path class="cls-9" d="M210.89,125a128.52,128.52,0,0,1,11.87,8.08c3.77,2.91,7.3,6.09,11.57,8.25,6.26,3.58,13.72,4.05,20.06,7.46a30.33,30.33,0,0,1,5.79,4.26,33.59,33.59,0,0,0-6-3.83c-4.3-2.12-9.06-2.8-13.61-4.25-7-2-12.87-6.58-18.28-11.29-3.69-3-7.51-5.89-11.39-8.68Z"/><path class="cls-9" d="M240.28,88.11c23.06,3.59,49.15,14,61.3,35.13a49,49,0,0,1,3.94,9.62,52.89,52.89,0,0,0-4.36-9.37C288.38,102.91,263,93,240.28,88.11Z"/><path class="cls-10" d="M165,114.5l.86-.41-.43-.22Z"/><path class="cls-9" d="M190.59,93.47a1.59,1.59,0,0,0-.13-.22l-.17.08c-12.94-5.8-4.55-16-4.55-16-13.48,1.65-11.56,13.2-11.56,13.2-8-5.77-18.32-5-18.32-5,.59,12,6.64,15.68,6.64,15.68-15.11-4.13-17.63,9.07-17.63,9.07a17.79,17.79,0,0,1,21,3.71s4.53,3.86,9.29-1.1c3.29-3.43,2.78-6.15,7.69-5.91C188.56,107.36,195.83,101.86,190.59,93.47Z"/><path class="cls-11" d="M157.13,105.43s5.88,0,10.53,5.91c3.52,4.46,9.49-.14,5.5-4.67C173.16,106.67,168.52,101,157.13,105.43Z"/><path class="cls-11" d="M173.49,94.84a14.32,14.32,0,0,0,3.56,8.25c2.86,3,5.67,1.79,6.17-.13,0,0,5.74.13,5.91-5.5,0,0-7-1.93-8.55-8.53a8.57,8.57,0,0,0-1.66,9.21A6.74,6.74,0,0,1,173.49,94.84Z"/><path class="cls-3" d="M190.27,93.29c21.83-11.13,47.91-10.48,70.81-3,15.28,5,30.2,13.21,39.69,26.55,9.73,13,11.9,31.44,3.85,45.82-7.2,13.09-23,24.83-36.51,30.81a82.45,82.45,0,0,1-41.56,6.42c-1.1-.15-6.53-1-7.51-1.11-2.16-.45-5.24-1.24-7.4-1.73s-6.63-2.13-8.68-2.75l-5.62-2.3a66.42,66.42,0,0,1-20.53-12.81c-18.46-16.38-27.07-44.16-11.44-65.37,0-.06.12,0,.08.06A45.24,45.24,0,0,0,160,124.61c-4,11.43-2.48,24.26,2.89,35a66.39,66.39,0,0,0,34.85,31.49l5.58,2.26,5.72,1.84c2.61.95,6,1.56,8.73,2.25,1.93.52,6.86,1.12,8.89,1.47,1.13.08,6.46.44,7.49.48a89.55,89.55,0,0,0,10.49-.52,83.4,83.4,0,0,0,43.68-18.53c13-10.16,22.57-23.87,20.74-41-2.68-25-25.85-41.2-48.25-48.16-22.73-7.8-48.8-8.06-70.54,2.16Z"/><path class="cls-3" d="M163.52,117.31c-18.1,32.89-5.12,83.79,29.15,101,8,4.15,16.76,6.33,25.61,7.63,54,8.7,92-29.09,91.58-82.32,2,17.11-2.91,36.83-12.34,52a69,69,0,0,1-43.37,31c-21.91,5.06-51,.47-69.51-12.4-20.25-13.79-31.22-38.42-30.81-62.6.16-12,2.85-24.36,9.52-34.47.06-.11.24,0,.17.11Z"/><path class="cls-3" d="M184.31,113.87c-2.65-1.56-6.28-.87-9.16,1.75-4.47,4.06-12,15.28-6.28,33.77,7.69,25,33.61,36.42,49.43,40.38,20.59,5.16,49.69.15,62.28-16.63,0,0,5.48-7.6-.93-9.59-7.75-2.39-28.64.44-55.67-15C204.42,137.62,193.59,119.32,184.31,113.87Z"/><path class="cls-3" d="M184.28,113.92c-6.33-3.19-11.81,3.86-14.25,9-5.5,11.54-2.54,25.31,3.57,36,9.68,16.37,27.64,26,45.66,30.58,18.89,4.07,40.58,1.5,55.95-10.92.5-.51,2.08-1.92,2.58-2.42s1.7-2,2.31-2.67c1.58-2,3-4.88,2.23-7.49-.79-1.86-2.89-2.33-4.77-2.68-4.67-.74-9.43-.83-14.13-1.43a99.6,99.6,0,0,1-36.17-11,82.08,82.08,0,0,1-15.78-10.57A151.67,151.67,0,0,1,198,126.91c-4.32-4.56-8.36-9.58-13.7-13Zm.06-.09c5.39,3.37,9.42,8.41,13.85,12.89,8.61,9.18,18.14,17.65,29.5,23.27a105.28,105.28,0,0,0,35.81,11.26c5.45.88,11.12.73,16.46,2.22,3.88,1.29,3.35,5.19,1.7,8.17-.5,1.31-2,2.74-2.83,3.84a42.61,42.61,0,0,1-3.36,3.36C260.25,191.42,238,194.47,219,190.45c-18.31-4.45-36.62-14.33-46.31-31.06-6.13-10.92-8.77-25-3-36.63,2.57-5.14,8.17-12.24,14.58-8.93Z"/><path class="cls-3" d="M165.8,114.13c-5.4-5.27-14-6.95-20.72-3.37a.43.43,0,0,1-.64-.46,12.41,12.41,0,0,1,13.92-9.93l1.42.16,2.77.61-.14.32c-4.76-3.71-6.39-10-6.86-15.81a.3.3,0,0,1,.27-.32,31.32,31.32,0,0,1,14.37,2.43,24.8,24.8,0,0,1,4.29,2.41l-.8.49A11.94,11.94,0,0,1,176.53,81a13.29,13.29,0,0,1,6.66-3.67c.83-.16,1.66-.28,2.49-.42a.43.43,0,0,1,.51.36.44.44,0,0,1-.1.37c-5,6.6-2.67,12.46,4.53,15.76,0,0,0,.11-.05.08-7.85-3-10.25-9.44-5.18-16.41l.4.73c-6.94.84-11.88,5.36-11.11,12.67a.51.51,0,0,1-.8.49c-5.16-3.7-11.71-5.18-18-5l.29-.32c.16,4.31,1.05,8.77,3.48,12.41a11.41,11.41,0,0,0,2.95,3.12.18.18,0,0,1-.14.33l-2.74-.56c-7-1-12.71,2.61-14.42,9.54l-.65-.46c7-3.65,16.36-1.8,21.15,4.13Z"/><path class="cls-2" d="M187.87,118.07c.14,2.83-3.33,6-6.66,6s-6.82-2.1-7-4.94,3.11-5.75,6.43-5.75S187.73,115.23,187.87,118.07Z"/><path class="cls-3" d="M188,118.06a7.37,7.37,0,0,1-6.42,7,8.6,8.6,0,0,1-5.12-1.28c-3.68-2.21-4-6.54-.63-9.21,2.62-2.3,6.63-2.16,9.43-.32a5.3,5.3,0,0,1,2.74,3.81Zm-.21,0c-.28-3.31-4.43-4.36-7.19-4.2s-5.73,2.57-5.48,5.27c.44,2.64,4,3.8,6.35,3.83,2.6,0,6.23-1.83,6.32-4.9Z"/><path class="cls-2" d="M197.49,120.1c1.25,2.66-.72,6.71-3.79,7.74s-7.11.12-8.36-2.54.6-6.45,3.67-7.48S196.25,117.44,197.49,120.1Z"/><path class="cls-3" d="M197.59,120.05a6.81,6.81,0,0,1-3.44,8.74,8.47,8.47,0,0,1-5.24.24c-3.94-.95-6-4.88-3.9-8.49,2.26-4.59,10-4.78,12.58-.49Zm-.19.09c-1.43-2.93-5.56-2.82-8.17-1.84s-4.39,4.33-3.08,6.72,4.93,2.48,7.3,1.8,5.08-3.86,4-6.68Z"/><path class="cls-2" d="M207.41,129.17c-1.09,2.62-4.59,4-7.72,2.84s-5.5-4.22-4.41-6.84,5.42-4.17,8.54-3S208.51,126.55,207.41,129.17Z"/><path class="cls-3" d="M207.51,129.21c-2.19,5.23-9.43,5.29-12.4.61-2.43-3.58-.11-7.28,3.64-8.27,5.09-1.75,10.51,2.37,8.76,7.66Zm-.19-.08c1.86-4.73-4.16-8.13-8.14-6.29-2.6.88-4.42,3.42-2.37,5.79,2.31,3.07,8.36,4.62,10.51.5Z"/><path class="cls-2" d="M215,136.57c-1.1,2.62-4.59,4-7.72,2.84s-5.51-4.22-4.41-6.84,5.41-4.16,8.54-3S216.05,134,215,136.57Z"/><path class="cls-3" d="M215.05,136.61c-2.19,5.23-9.42,5.29-12.39.61-2.44-3.57-.12-7.28,3.63-8.27,5.09-1.75,10.52,2.37,8.76,7.66Zm-.19-.08c1.86-4.73-4.16-8.13-8.14-6.29-2.6.88-4.42,3.42-2.37,5.79,2.32,3.07,8.36,4.62,10.51.5Z"/><path class="cls-2" d="M223.56,141.92a6.51,6.51,0,0,1-8.42,3.08,5.45,5.45,0,0,1-2.67-7.2c1.09-2.62,4.91-4.24,8.17-3.49C225.09,135.34,224.65,139.29,223.56,141.92Z"/><path class="cls-3" d="M223.65,142c-1.62,4.08-7.36,6.22-10.75,2.8-3.62-3.49-1.56-9.61,3.07-10.79,6-1.71,10.31,1.82,7.68,8Zm-.19-.08c2.51-5.48-2-8.5-7-6.62a4.72,4.72,0,0,0-.43,9c2.44,1.11,6.19.33,7.46-2.35Z"/><path class="cls-2" d="M232.85,147.26c-1.09,2.62-5.13,3.91-8.46,2.26-3-1.46-3.73-4-2.64-6.58s4.64-4.07,7.74-2.87C233.74,141.71,234,144.64,232.85,147.26Z"/><path class="cls-3" d="M233,147.3c-1.46,3.74-7.23,5.11-10.5,2.28-3.95-2.92-1.86-9.3,2.6-10.29,4.94-1.33,10.3,2.79,7.9,8Zm-.19-.08c3.12-6.25-7.55-9.68-10.13-4.16s7.64,9,10.13,4.16Z"/><path class="cls-2" d="M244.26,151.27c-1.16,2.78-5.79,4-9.7,2.13-3.49-1.68-4.49-4.38-3.32-7.16s5.19-4.22,8.83-2.82C245.06,145.34,245.42,148.49,244.26,151.27Z"/><path class="cls-3" d="M244.35,151.31c-2.51,5.21-10.91,4.93-13.79,0-2.12-3.64.68-8.3,4.57-8.88,5.12-1.15,11.83,3.21,9.22,8.87Zm-.19-.08c2.6-5.23-4.39-8.68-8.71-7.47-2.9.65-4.83,4-3.12,6.49a7.85,7.85,0,0,0,3.42,2.51c2.68,1.12,6.81,1.5,8.41-1.53Z"/><path class="cls-2" d="M254,156.28c-1.16,2.78-5.26,4.2-8.57,2.54-3-1.49-3.68-4.09-2.52-6.87a6.25,6.25,0,0,1,7.86-3.17C255,150.43,255.18,153.5,254,156.28Z"/><path class="cls-3" d="M254.12,156.32a6.91,6.91,0,0,1-10.69,2.47c-2.25-1.76-2.47-5.11-1.12-7.48a6.93,6.93,0,0,1,8.84-2.94c3.43,1.44,4.4,4.67,3,7.95Zm-.2-.08c1.52-3.1.05-6-3.17-6.91-6-2.2-10.82,6.08-4.28,8.79,2.4,1.07,6.16.89,7.45-1.88Z"/><path class="cls-2" d="M264.65,158c-.47,3-4,6-7.63,4.94-3.22-.92-5.92-2.47-5.43-6.79.33-3,5.07-4.93,8.36-4.32C264.45,152.62,265.12,155,264.65,158Z"/><path class="cls-3" d="M264.75,158c-.5,3.41-3.9,6.71-7.58,6-2.69-.51-5.58-2-6.29-4.9a5.83,5.83,0,0,1,1-5.38c4-4.38,14.41-3.17,12.85,4.26Zm-.2,0c1.42-5.85-6-6.87-9.83-4.61-1.3.74-2.36,1.85-2.32,3.14a4.44,4.44,0,0,0,3.12,4.73,12.93,12.93,0,0,0,2.08.74c2.7.78,6.35-1,6.95-4Z"/><path class="cls-2" d="M272.36,160.91c-.38,2.4-3.27,4.84-6.19,4-2.6-.74-4.8-2-4.4-5.5.27-2.41,4.11-4,6.78-3.5C272.2,156.59,272.74,158.51,272.36,160.91Z"/><path class="cls-3" d="M272.46,160.93c-.43,2.81-3,5.61-6.2,5.07-2.27-.41-4.66-1.71-5.23-4.11a4.89,4.89,0,0,1,.89-4.52c3.3-3.61,11.83-2.5,10.54,3.56Zm-.2,0c1.19-4.69-4.9-5.45-7.89-3.62a3,3,0,0,0-1.79,2.44,3.27,3.27,0,0,0,1.08,2.82,9,9,0,0,0,3,1.42c2.08.64,5.09-.66,5.57-3.06Z"/><path class="cls-2" d="M276.88,170c-3.23-.35-7.26-2.57-6.61-5.53.58-2.64,2.88-4.55,7.57-4.2,3.23.24,5.26,3.84,4.69,6.48C282.05,169,280.1,170.39,276.88,170Z"/><path class="cls-3" d="M276.86,170.14c-4-.22-9.65-2.53-7.06-7.51,1.87-3.6,8.29-4.24,11.15-1.73,4.22,4.07,2,10-4.09,9.24Zm0-.21c3,.57,5.84-1.5,5.18-4.66a5,5,0,0,0-3.68-4.1c-1.78-.26-4.24,0-5.58,1.17-3.82,3.2.31,7,4.08,7.59Z"/><path class="cls-2" d="M182.23,126.29c.15,3.12-3.12,6.17-6.76,6.17s-7.37-1.4-7.52-4.53,3.18-7.19,6.83-7.19S182.08,123.17,182.23,126.29Z"/><path class="cls-3" d="M182.33,126.28a7.26,7.26,0,0,1-7,7.22,10.76,10.76,0,0,1-5.41-1.19c-4.23-2.21-3.25-7.2-.22-9.93a7.28,7.28,0,0,1,5-2.16c3.43.15,7.18,2.46,7.6,6.06Zm-.21,0c-.19-3.51-4.33-5.2-7.38-5a6.05,6.05,0,0,0-4,2.08c-4.28,5-1,7.91,4.68,8.07,2.9.19,6.72-1.73,6.72-5.12Z"/><path class="cls-2" d="M192.6,130c.16,3.12-3.11,6.17-6.76,6.17s-7.37-1.4-7.52-4.53,3.18-7.19,6.83-7.19S192.45,126.87,192.6,130Z"/><path class="cls-3" d="M192.71,130a7.27,7.27,0,0,1-7,7.22,10.74,10.74,0,0,1-5.41-1.19c-4.24-2.21-3.25-7.2-.22-9.93a7.24,7.24,0,0,1,5-2.16c3.44.15,7.19,2.46,7.61,6.06Zm-.21,0c-.2-3.51-4.34-5.2-7.39-5a6.07,6.07,0,0,0-4,2.08c-4.27,5-1,7.91,4.68,8.07,2.9.19,6.72-1.73,6.73-5.12Z"/><path class="cls-2" d="M203.91,134.26c-.95,3-5.18,4.91-8.69,3.9s-6.6-3.36-5.65-6.32,5.61-5.86,9.12-4.85S204.87,131.29,203.91,134.26Z"/><path class="cls-3" d="M204,134.29a7.91,7.91,0,0,1-8.89,4.92,10.66,10.66,0,0,1-5-2.58c-3.6-3.39-.72-7.78,3-9.44a8,8,0,0,1,5.36-.78c3.33.93,6.45,4.3,5.53,7.88Zm-.2-.06c1.1-3.42-2.56-6.29-5.55-6.8a6.89,6.89,0,0,0-4.51,1c-5.71,3.54-3.75,7.07,1.9,8.79,2.77.87,7,.17,8.16-3Z"/><path class="cls-2" d="M210,140.48c.13,2.72-2.31,4.93-5.45,4.93s-5.79-2.21-5.92-4.93,2.3-4.94,5.44-4.94S209.9,137.75,210,140.48Z"/><path class="cls-3" d="M210.14,140.47c.37,5.37-6.37,7.83-10.19,4.38-2.66-2.12-2.89-6.55,0-8.55,3.72-3,9.85-.47,10.21,4.17Zm-.21,0c-.16-5.72-10.66-6-10.43,0,.61,5,10.22,5.57,10.43,0Z"/><path class="cls-2" d="M219,144.48c.14,3-2.49,5.45-5.89,5.45s-6.26-2.44-6.41-5.45,2.48-5.44,5.88-5.44S218.89,141.48,219,144.48Z"/><path class="cls-3" d="M219.14,144.48c.41,5.83-6.86,8.52-11,4.72-2.82-2.31-3.07-7-.05-9.25,4-3.31,10.69-.53,11,4.53Zm-.21,0c-.21-6.35-11.61-6.68-11.36-.05.6,5.64,11.18,6.23,11.36.05Z"/><path class="cls-2" d="M228.13,150.45c.15,3-2.48,5.45-5.88,5.45s-6.27-2.44-6.42-5.45,3.47-6.69,6.87-6.69S228,147.44,228.13,150.45Z"/><path class="cls-3" d="M228.24,150.44c.36,3.52-3.06,6.78-6.64,6.47-6.48-.42-9-7.78-3.71-11.81,5.2-4.23,9.91-.7,10.35,5.34Zm-.21,0c0-2.91-2.26-6.41-5.39-6.16a7,7,0,0,0-5.92,5.45c-.29,2.76,2.5,4.81,5.05,5.09,2.75.48,6.34-1.1,6.26-4.38Z"/><path class="cls-2" d="M233.57,159.34a6.77,6.77,0,0,1-8.64-1.22,5,5,0,0,1,1-7.62c2.66-1.76,8.27-1.19,10.38,1.25S236.23,157.58,233.57,159.34Z"/><path class="cls-3" d="M233.63,159.43c-2.78,2-7.15,2-9.59-.75a5.87,5.87,0,0,1,2.47-9.41c7.86-2.35,16,3.82,7.12,10.16Zm-.12-.18c2.44-1.38,4.77-5.37,2.08-7.47-3-2.34-9.8-2.5-10.84,2-.76,4.31,5.06,7.86,8.76,5.49Z"/><path class="cls-2" d="M243.62,164.12A6.77,6.77,0,0,1,235,162.9a5,5,0,0,1,1-7.62c2.66-1.77,8.26-1.19,10.38,1.25S246.28,162.35,243.62,164.12Z"/><path class="cls-3" d="M243.67,164.21c-2.78,2-7.15,2-9.58-.76a5.86,5.86,0,0,1,2.46-9.4c7.87-2.35,16,3.82,7.12,10.16Zm-.11-.18c2.44-1.38,4.77-5.37,2.07-7.47-3-2.34-9.8-2.5-10.84,2-.76,4.31,5.07,7.86,8.77,5.49Z"/><path class="cls-2" d="M256.08,163.09c.13,2.73-2.3,4.94-5.44,4.94s-5.78-2.21-5.92-4.94,2.3-4.93,5.44-4.93S255.94,160.37,256.08,163.09Z"/><path class="cls-3" d="M256.18,163.09c.37,5.36-6.36,7.83-10.18,4.37-2.65-2.11-2.88-6.54,0-8.54,3.72-3,9.84-.47,10.2,4.17Zm-.21,0c-.16-5.72-10.64-6-10.41,0,.6,5,10.2,5.57,10.41,0Z"/><path class="cls-2" d="M267.35,166.28c.14,2.89-2.75,5.24-6.46,5.24s-6.83-2.35-7-5.24,2.75-5.24,6.46-5.24S267.21,163.38,267.35,166.28Z"/><path class="cls-3" d="M267.46,166.27c.21,5.81-7.62,8-11.74,4.73-3.28-2.25-3.63-7.06-.05-9.25,4.13-2.77,11.13-.72,11.79,4.52Zm-.21,0c-.42-4.87-7.47-5.93-10.8-3.41-4.25,3.45.16,7.57,4.31,7.6,2.69.24,6.48-.87,6.49-4.19Z"/><path class="cls-2" d="M277.81,171.62c.14,2.9-2.76,5.25-6.47,5.25s-6.83-2.35-7-5.25,2.75-5.24,6.46-5.24S277.66,168.73,277.81,171.62Z"/><path class="cls-3" d="M277.91,171.62c.22,5.8-7.61,8-11.74,4.73-3.28-2.25-3.63-7.06-.05-9.25,4.13-2.77,11.14-.72,11.79,4.52Zm-.21,0c-.42-4.87-7.47-5.93-10.8-3.42-4.24,3.45.16,7.57,4.32,7.61,2.68.24,6.48-.87,6.48-4.19Z"/><path class="cls-2" d="M178.37,137.39c.15,3-2.64,5.35-6.22,5.35s-6.61-2.4-6.75-5.35,2.64-5.34,6.22-5.34S178.23,134.44,178.37,137.39Z"/><path class="cls-3" d="M178.48,137.39c.3,5.82-7.31,8.25-11.45,4.73-3.1-2.31-3.37-7.07,0-9.27,4.07-3,11-.59,11.49,4.54Zm-.21,0c-.31-4.81-7.22-6.16-10.46-3.47-3.92,3.41.06,7.69,4.21,7.75,2.67.27,6.29-1,6.25-4.28Z"/><path class="cls-2" d="M190.37,141.09c.16,3.29-2.62,6-6.2,6a6.63,6.63,0,0,1-6.78-6c-.16-3.29,2.62-6,6.2-6A6.63,6.63,0,0,1,190.37,141.09Z"/><path class="cls-3" d="M190.47,141.09c.48,6.25-7.2,9.25-11.61,5-2.89-2.49-3.14-7.48-.07-9.89,4.32-3.73,11.34-.59,11.68,4.86Zm-.21,0c-.11-5-7.22-7.17-10.56-3.85-3.61,3.56-.12,8.63,4.34,8.75,2.88.31,6.35-1.58,6.22-4.9Z"/><path class="cls-2" d="M200,147.39c-2.06,3.05-6,4.27-8.81,2.71s-3.43-5.29-1.37-8.34,6-4.26,8.8-2.71S202,144.34,200,147.39Z"/><path class="cls-3" d="M200.06,147.45c-2.26,3.92-8.27,6.14-11.39,1.85-2.85-4.12.32-9.82,4.69-11.15,6.26-2,10.18,4,6.7,9.3Zm-.17-.12c4.45-7.25-5.16-11.7-9.4-5.1-3.91,6.78,5.33,10.63,9.4,5.1Z"/><path class="cls-2" d="M206.9,154.66c-3,1.53-6.81.72-8.52-1.79s-.66-5.79,2.34-7.32,6.81-.72,8.51,1.8S209.9,153.14,206.9,154.66Z"/><path class="cls-3" d="M207,154.76c-3.55,2.11-9.43,1.34-10.37-3.44s4.48-8.09,8.67-7.11c5.84,1.12,7,7.72,1.7,10.55Zm-.1-.19c2.81-1.18,3.88-5,1.75-7.19a6.2,6.2,0,0,0-7.51-1.08c-6.09,3.69.4,10.83,5.76,8.27Z"/><path class="cls-2" d="M215.94,159.39c-3,1.53-6.82.72-8.52-1.79s-.67-5.79,2.33-7.32,6.81-.72,8.52,1.8S218.93,157.87,215.94,159.39Z"/><path class="cls-3" d="M216,159.49c-3.55,2.11-9.43,1.33-10.36-3.44s4.47-8.09,8.66-7.11c5.85,1.12,7,7.72,1.7,10.55Zm-.09-.19c2.8-1.18,3.87-5,1.75-7.19a6.19,6.19,0,0,0-7.51-1.08c-6.09,3.68.39,10.83,5.76,8.27Z"/><path class="cls-2" d="M221.26,167.22c-3.76-.18-6.77-2.92-6.73-6.12s3.13-5.63,6.89-5.44,6.78,2.92,6.73,6.12S225,167.41,221.26,167.22Z"/><path class="cls-3" d="M221.26,167.33c-4.69.1-9.67-4.09-7.09-9,2.43-4.27,8.8-4.54,12.24-1.45,5,4.58,1,10.76-5.15,10.46Zm0-.21c8.44.16,8.39-10.3.11-10.63-8,.2-7.32,9.85-.11,10.63Z"/><path class="cls-2" d="M233.31,172c-3.76-.18-6.78-2.92-6.73-6.12s3.13-5.63,6.89-5.45,6.77,2.93,6.73,6.13S237.07,172.14,233.31,172Z"/><path class="cls-3" d="M233.3,172.06c-4.68.1-9.66-4.09-7.09-9,2.44-4.28,8.8-4.54,12.25-1.46,5,4.59,1,10.77-5.16,10.47Zm0-.21c8.45.16,8.4-10.3.12-10.63-8,.2-7.32,9.85-.12,10.63Z"/><path class="cls-2" d="M245.14,177.09c-3.76-.18-6.77-2.92-6.73-6.12s3.13-5.63,6.89-5.45,6.78,2.93,6.73,6.13S248.9,177.28,245.14,177.09Z"/><path class="cls-3" d="M245.14,177.2c-4.69.1-9.67-4.09-7.09-9,2.43-4.28,8.8-4.54,12.24-1.45,5,4.58,1,10.76-5.15,10.46Zm0-.21c8.44.16,8.39-10.3.11-10.63-8,.2-7.32,9.85-.11,10.63Z"/><path class="cls-2" d="M256.55,179.17c-3.52-.17-6.35-2.36-6.32-4.89s2.93-4.43,6.45-4.25,6.36,2.36,6.32,4.88S260.08,179.34,256.55,179.17Z"/><path class="cls-3" d="M256.55,179.27c-3,0-7.12-1.25-7.36-4.88.16-5.74,8.23-6.42,12-3.66,5.31,4.18,1,8.85-4.6,8.54Zm0-.2c7.79.14,7.88-8,.08-8.21-2.21-.05-5.18,1.17-5.35,3.5s2.81,4.59,5.27,4.71Z"/><path class="cls-2" d="M268.48,182.75c-3,1.47-6.67.86-8.12-1.37s-.17-5.23,2.87-6.71,6.67-.86,8.12,1.37S271.52,181.27,268.48,182.75Z"/><path class="cls-3" d="M268.53,182.84c-2.68,1.36-6.44,2.13-8.79-.55-2.59-3,0-7.17,3.12-8.37,7.28-3.25,13.87,4.35,5.67,8.92Zm-.09-.19c2.5-1,4.27-4.41,2.3-6.56-1.73-2-5-1.83-7.15-.66-6.24,3.67-.57,9.53,4.85,7.22Z"/><path class="cls-2" d="M179.61,148.49c.15,3.07-2.63,5.56-6.22,5.56s-6.6-2.49-6.75-5.56,2.63-5.55,6.21-5.55S179.46,145.43,179.61,148.49Z"/><path class="cls-3" d="M179.71,148.49c.35,6-7.24,8.58-11.5,4.84-3-2.36-3.29-7.22-.05-9.49,4.11-3.26,11.16-.56,11.55,4.65Zm-.21,0c-.23-4.89-7.21-6.49-10.49-3.6-3.82,3.44,0,8,4.26,8.09,2.74.28,6.31-1.22,6.23-4.49Z"/><path class="cls-2" d="M192.56,152.71c.17,3.46-2.81,6.27-6.65,6.27s-7.08-2.81-7.25-6.27,2.8-6.27,6.64-6.27S192.39,149.25,192.56,152.71Z"/><path class="cls-3" d="M192.66,152.7c.45,6.58-7.72,9.61-12.35,5.29-3.11-2.58-3.39-7.89-.09-10.39,4.55-3.84,12.05-.67,12.44,5.1Zm-.21,0c-.16-5.36-7.75-7.53-11.34-4.09-4,3.81-.11,9.21,4.66,9.31,3.08.31,6.81-1.67,6.68-5.22Z"/><ellipse class="cls-2" cx="197.42" cy="157.33" rx="6.35" ry="5.87" transform="translate(-13.14 18.07) rotate(-5.07)"/><path class="cls-3" d="M203.16,160c-1.9,4.05-7.89,5.63-11.18,2.16-3.66-3.54-1.5-9.84,3.22-11,5.42-1.69,10.69,3.59,8,8.84Zm-.18-.1c3.44-6.76-7.27-11-10.49-4.74-2.85,6.13,7.34,10.16,10.49,4.74Z"/><path class="cls-2" d="M215.25,163.71c-1.3,2.39-4.89,3.15-8,1.72s-4.6-4.53-3.3-6.91,4.9-3.15,8-1.72S216.56,161.33,215.25,163.71Z"/><path class="cls-3" d="M215.35,163.76c-2.39,4.47-9.73,4.09-12.11-.54a5.16,5.16,0,0,1,4.13-7.7c4.49-.85,10.13,3.54,8,8.24Zm-.19-.1c2.68-5.6-7.77-9.65-10.48-4.74-2,4.85,7.84,9.11,10.48,4.74Z"/><path class="cls-2" d="M222.44,171.73c-1.3,2.38-5.49,2.81-8.35,1.49s-4.11-4.3-2.8-6.68,5.87-3.11,8.73-1.8A5.06,5.06,0,0,1,222.44,171.73Z"/><path class="cls-3" d="M222.54,171.78c-2.6,4.23-10.21,3.94-12.24-.83a5,5,0,0,1,2.47-6.72c5.4-2.47,12.55,1.08,9.77,7.55Zm-.19-.1c1.56-2.55-.24-6-3-6.64-2.31-.71-5.83-.31-7.22,1.73-2.62,5,7.51,8.92,10.21,4.91Z"/><path class="cls-2" d="M234.36,175.2c-.55,2.93-4.67,4.57-8,4s-5.57-3.49-5-6.43,5-5,8.28-4.4A6,6,0,0,1,234.36,175.2Z"/><path class="cls-3" d="M234.46,175.21c-1.25,5.37-9.53,6.88-12.77,2.36-1.78-2.18-1.78-5.84.48-7.67,5-4.41,13.08-2.05,12.29,5.31Zm-.2,0a5.49,5.49,0,0,0-5-6.37c-2.63-.24-6.24,1.24-7,3.85-1.18,6.06,10.35,8,12,2.52Z"/><ellipse class="cls-2" cx="239" cy="178.72" rx="4.93" ry="6.5" transform="translate(44.78 405.3) rotate(-86.19)"/><path class="cls-3" d="M245.59,178.71c.18,5.51-7.38,7.64-11.32,4.53-3.22-2.17-3.58-6.74,0-8.84,4-2.55,10.67-.69,11.35,4.31Zm-.21,0c-.44-4.64-7.2-5.5-10.38-3.19-4.15,3.27.22,7,4.12,7.07,2.54.23,6.23-.69,6.26-3.88Z"/><path class="cls-2" d="M257,182.17c.14,2.72-2.15,5.39-5.73,5.39s-6.6-2.21-6.73-4.94,2.66-4.93,6.25-4.93S256.85,179.44,257,182.17Z"/><path class="cls-3" d="M257.09,182.16c.32,5.76-6.18,8.16-10.62,5.12-3.15-1.94-3.89-6.5-.57-8.73,3.64-2.66,10.67-1.45,11.19,3.61Zm-.21,0c0-3.23-3.76-4.29-6.42-3.94-4.29.12-7.44,4.72-2.89,7.29,3.17,1.86,9.2,1.32,9.31-3.35Z"/><path class="cls-2" d="M186.22,160.42c.12,2.61-2.26,4.73-5.33,4.73s-6.83-2.23-7-4.84,3.42-4.62,6.49-4.62S186.09,157.81,186.22,160.42Z"/><path class="cls-3" d="M186.32,160.41c0,6.89-8.85,7.33-12.29,2.48-1.83-2.29-.73-5.24,1.7-6.51,4-2.51,10-.92,10.59,4Zm-.21,0c-.33-4.6-6.6-5.2-9.65-2.89-2.54,1.68-2,4,.45,5.33,2.91,1.86,8.93,2.16,9.2-2.44Z"/><path class="cls-2" d="M195.32,164.17a5,5,0,0,1-3.25,6.94c-3.09,1-7.86-.19-9.15-3s1.38-6.19,4.46-7.2A6.61,6.61,0,0,1,195.32,164.17Z"/><path class="cls-3" d="M195.41,164.13c2.72,6-3.65,10-9.07,7.84-3.8-1.23-6.05-5.15-3.34-8.61a7.25,7.25,0,0,1,12.41.77Zm-.19.09c-2-4.53-8.79-4-11.1-.08-1.86,2.72,0,5.2,2.85,5.86,3.94,1.3,10.09-.63,8.25-5.78Z"/><path class="cls-2" d="M208.86,169.71c-.79,2.72-4.29,4.17-7.83,3.24s-5.77-3.89-5-6.61,4.3-4.17,7.83-3.24S209.65,167,208.86,169.71Z"/><path class="cls-3" d="M209,169.74c-1.58,5.27-9.4,5.74-12.56,1.57A5.31,5.31,0,0,1,199,162.6c4.52-1.6,11,1.92,9.93,7.14Zm-.2-.05c1.17-4.82-5.56-7.38-9.28-5.81-2.73,1-3.64,4-1.52,6.07,2.57,2.64,9.08,4,10.8-.26Z"/><path class="cls-2" d="M205.65,178c-.68,2.37-3.94,3.58-7.26,2.71s-5.47-3.51-4.78-5.88,3.94-3.58,7.26-2.7S206.34,175.59,205.65,178Z"/><path class="cls-3" d="M205.75,178c-.86,3-4.66,4.37-7.56,3.7-3.12-.58-6.43-3.69-5.39-7.13,2.43-6.21,14-3.14,12.95,3.43Zm-.2-.06c1.29-5.36-9.51-7.76-11.14-2.91-.77,4.41,9.59,7.41,11.14,2.91Z"/><path class="cls-2" d="M217,175.07c-.77,2.65-4,4.11-7.24,3.25s-5.21-3.69-4.44-6.35,4-4.11,7.24-3.25S217.76,172.41,217,175.07Z"/><path class="cls-3" d="M217.08,175.1c-1.38,5.09-8.76,5.85-11.69,1.59a5.35,5.35,0,0,1,2.57-8.37c4.38-1.79,10.3,1.92,9.12,6.78Zm-.2-.06c1.58-5.92-9.14-8.42-10.77-2.83-.94,5.2,8.92,7.87,10.77,2.83Z"/><path class="cls-2" d="M215.38,183.34c-.7,2.4-3.88,3.65-7.11,2.8s-5.27-3.49-4.57-5.89,3.88-3.65,7.1-2.79S216.08,181,215.38,183.34Z"/><path class="cls-3" d="M215.48,183.37c-1.48,4.75-8.55,5.12-11.47,1.41a4.73,4.73,0,0,1,2.41-7.9c4.09-1.31,10,1.77,9.06,6.49Zm-.2-.06c1.31-5.41-9.15-7.77-10.78-2.83-.8,4.51,9.18,7.36,10.78,2.83Z"/><path class="cls-2" d="M225.88,179.15c-.8,2.77-4.06,4.31-7.29,3.46s-5.19-3.78-4.39-6.54,4.07-4.31,7.29-3.45S226.69,176.39,225.88,179.15Z"/><path class="cls-3" d="M226,179.18c-1.39,5.25-8.79,6.19-11.78,1.69a5.65,5.65,0,0,1,2.62-8.57c4.44-2,10.43,1.89,9.16,6.88Zm-.2-.05c1.7-6.12-9.16-8.69-10.78-2.82-1,5.46,8.87,8.09,10.78,2.82Z"/><path class="cls-2" d="M237.29,186.86c-.88,3-4.45,4.71-8,3.78s-5.68-4.13-4.8-7.14,4.44-4.7,8-3.77S238.16,183.85,237.29,186.86Z"/><path class="cls-3" d="M237.39,186.89c-1.53,5.67-9.57,6.62-12.79,1.79a6.08,6.08,0,0,1,2.81-9.24c4.84-2.14,11.34,2,10,7.45Zm-.21,0c1.44-5-5.28-8.23-9.22-6.16a4.31,4.31,0,0,0-1.7,6.77c2.56,3.18,9.27,3.9,10.92-.61Z"/><path class="cls-2" d="M225.29,187.16c-.69,2.4-3.74,3.68-6.8,2.88s-5-3.41-4.28-5.81,3.74-3.68,6.81-2.87S226,184.77,225.29,187.16Z"/><path class="cls-3" d="M225.39,187.19c-1.26,4.61-8.16,5.36-11,1.47a4.82,4.82,0,0,1,2.39-7.79c4-1.47,9.62,1.74,8.64,6.32Zm-.2-.05c1.35-5.36-8.62-7.64-10.17-2.67-.81,4.52,8.57,7.15,10.17,2.67Z"/><path class="cls-2" d="M249.74,188c.12,2.35-2.49,3.94-6.08,3.94s-7.24-1.17-7.35-3.52a6.47,6.47,0,0,1,6.09-6C246,182.38,249.63,185.63,249.74,188Z"/><path class="cls-3" d="M249.85,188c-.12,6.07-11.43,6.42-14,1.89-1.22-2.52.81-5.42,2.78-6.84,4.08-3.07,10.28.38,11.26,4.95Zm-.21,0c-.38-2.94-3.79-4.74-6.45-5s-5.33,2-5.93,4.46a1.9,1.9,0,0,0,.16,1.52c1.19,1.44,3.46,1.63,5.33,1.9,2.45.28,6.68.47,6.89-2.86Z"/><path class="cls-3" d="M205,112.9c17.84,3.33,47.72,14.2,63.88,30.17,6.51,6.46,13.88,16.3,22.53,16,3.88-.15,10.37-3,10.92-11.62,1.41-21.78-9.58-33.24-33.91-46.31-28.22-15.16-72.26-10-74.87,1.78"/><path class="cls-3" d="M205.05,112.85a149.7,149.7,0,0,1,45.63,16.26,84.08,84.08,0,0,1,19.5,14.54c5.35,5.29,10.9,12.85,18.53,14.7a10.92,10.92,0,0,0,12.49-6.94c.95-2.45.93-5.19,1-7.86.44-21.42-15.92-32.63-33-41.63-18.49-9.68-42.4-12.21-62.67-7.45-4.79,1.45-11.14,3.18-12.88,8.44,0,.07-.12,0-.11,0C196.2,94,214.43,92,222.4,91.45c16.15-.7,32.9,1.87,47.13,9.85,13.72,7.72,29.26,17.52,32.44,34.16.9,5.3,1.46,11-.09,16.2a11.7,11.7,0,0,1-13.35,7.57c-5.47-1.23-9.63-5.25-13.46-9-3.31-3.47-7.79-8.34-11.56-11.21-17-13.12-38.07-21.12-58.46-26.12Z"/><path class="cls-2" d="M222.51,94.55c.09,2.28-2.47,4.12-5.71,4.09s-6-1.9-6-4.18,2.46-4.12,5.71-4.09S222.42,92.26,222.51,94.55Z"/><path class="cls-3" d="M222.61,94.54c.15,3-3.16,5.15-6,5.14-3,.12-6.62-1.87-6.74-5.19.5-6.47,11.83-5.95,12.69.05Zm-.21,0c-.25-4.84-10.69-4.92-10.81-.13.53,3.87,10.66,4.7,10.81.13Z"/><path class="cls-2" d="M232.73,95.91c.1,2.49-3.09,4-5.9,4s-5.46-2-5.56-4.48,2.12-5.68,4.93-5.66S232.63,93.42,232.73,95.91Z"/><path class="cls-3" d="M232.84,95.91a4.35,4.35,0,0,1-2.21,3.69c-3.26,2.46-8.85,1.28-10.06-2.92a6.38,6.38,0,0,1,4.62-7.42c3.61-.65,7.08,3.42,7.65,6.65Zm-.21,0c-.25-2.7-3-4.75-5.4-5.48s-4.7,1.77-5,4c-1,5,10.09,6.21,10.45,1.43Z"/><path class="cls-2" d="M243.31,96.63c.1,2.49-3.09,4-5.9,4s-5.47-2-5.57-4.48,2.13-5.69,4.94-5.67S243.21,94.14,243.31,96.63Z"/><path class="cls-3" d="M243.41,96.63a4.34,4.34,0,0,1-2.2,3.69c-3.26,2.46-8.85,1.27-10.06-2.92A6.39,6.39,0,0,1,235.76,90c3.61-.65,7.09,3.43,7.65,6.66Zm-.2,0c-.25-2.69-3-4.75-5.4-5.47s-4.71,1.77-5.05,4c-1,5,10.08,6.22,10.45,1.43Z"/><path class="cls-2" d="M253.86,97.78c-.2,2.32-2.93,3.88-6.08,3.5s-5.54-2.57-5.34-4.88,2.94-3.88,6.09-3.5S254.07,95.47,253.86,97.78Z"/><path class="cls-3" d="M254,97.79c-.21,2.95-3.61,4.83-6.4,4.52-3-.24-6.26-2.62-6-6C242.84,90,254,91.62,254,97.79Zm-.21,0c.35-5-9.79-6.13-10.48-1.3.05,4,9.73,5.84,10.48,1.3Z"/><path class="cls-2" d="M263.47,101.76c-.21,2.39-3,4-6.21,3.62s-5.65-2.64-5.44-5,3-4,6.21-3.62S263.69,99.38,263.47,101.76Z"/><path class="cls-3" d="M263.58,101.77c-.21,3-3.67,5-6.53,4.63-3.07-.23-6.38-2.69-6.06-6.13,1.23-6.53,12.6-4.84,12.59,1.5Zm-.21,0c.36-5.12-10-6.34-10.72-1.33,0,4.22,9.94,6,10.72,1.33Z"/><path class="cls-2" d="M272.16,105.41c.1,2.5-2.33,4.52-5.43,4.49s-5.7-2.07-5.79-4.58,2.33-4.52,5.43-4.5S272.06,102.9,272.16,105.41Z"/><path class="cls-3" d="M272.26,105.4c.23,5.06-6.41,7.17-10,4.1a4.91,4.91,0,0,1,.06-8.13c3.58-2.52,9.53-.39,9.94,4Zm-.2,0c-.22-5.29-10.3-5.51-10.29-.12.57,4.44,10.05,5.16,10.29.12Z"/><path class="cls-2" d="M280.43,110.33c.11,2.62-2.47,4.73-5.76,4.7s-6-2.17-6.13-4.79,2.47-4.74,5.76-4.71S280.33,107.7,280.43,110.33Z"/><path class="cls-3" d="M280.54,110.32c.23,5.27-6.83,7.42-10.55,4.26a5.06,5.06,0,0,1,.05-8.46c3.75-2.57,10-.52,10.5,4.2Zm-.21,0c-.26-5.57-10.93-5.8-11-.13.6,4.72,10.7,5.46,11,.13Z"/><path class="cls-2" d="M289.19,116.1c.11,2.62-2.47,4.73-5.76,4.7s-6-2.17-6.14-4.8,2.48-4.73,5.76-4.7S289.09,113.47,289.19,116.1Z"/><path class="cls-3" d="M289.3,116.09c.23,5.27-6.83,7.42-10.55,4.26-2.92-2.14-3.13-6.49.05-8.46,3.75-2.57,10-.52,10.5,4.2Zm-.21,0c-.26-5.57-10.93-5.8-11-.13.6,4.72,10.7,5.46,11,.13Z"/><path class="cls-2" d="M296.2,123.12c.11,2.63-2.47,4.73-5.76,4.71s-6-2.18-6.14-4.8,2.48-4.73,5.77-4.71S296.1,120.5,296.2,123.12Z"/><path class="cls-3" d="M296.31,123.12c.23,5.26-6.83,7.42-10.55,4.26-2.92-2.15-3.13-6.5.05-8.47,3.75-2.56,10-.52,10.5,4.21Zm-.21,0c-.26-5.57-10.93-5.8-11-.13.6,4.72,10.7,5.47,11,.13Z"/><path class="cls-2" d="M301.23,131c.1,2.63-2.48,4.73-5.76,4.71s-6-2.18-6.14-4.8,2.47-4.73,5.76-4.71S301.12,128.35,301.23,131Z"/><path class="cls-3" d="M301.33,131c.23,5.26-6.83,7.42-10.54,4.26-2.93-2.15-3.13-6.5,0-8.47,3.74-2.56,10-.52,10.49,4.21Zm-.21,0c-.25-5.58-10.93-5.81-10.95-.13.6,4.72,10.69,5.46,10.95.13Z"/><path class="cls-2" d="M302,139.32c.09,2.33-2.15,4.21-5,4.18s-5.24-1.93-5.33-4.26,2.14-4.21,5-4.18S301.91,137,302,139.32Z"/><path class="cls-3" d="M302.11,139.32c0,7.06-10.89,6.79-11.27,0,.4-6.55,10.63-6,11.27,0Zm-.21,0c-.16-4.87-9.43-5.07-9.38-.11.53,4,9.16,4.72,9.38.11Z"/><path class="cls-2" d="M211.31,99c.1,2.39-2.39,4.31-5.55,4.28s-5.8-2-5.9-4.37,2.39-4.31,5.56-4.29S211.22,96.63,211.31,99Z"/><path class="cls-3" d="M211.42,99c-.12,7.16-11.91,7-12.39-.06.37-6.65,11.69-6.19,12.39.06Zm-.21,0c-.27-5.06-10.42-5.22-10.51-.12.53,4.14,10.33,4.91,10.51.12Z"/><path class="cls-2" d="M220.64,102.26c.11,2.62-2.37,4.73-5.53,4.71s-5.81-2.17-5.92-4.8,2.38-4.73,5.54-4.71S220.54,99.63,220.64,102.26Z"/><path class="cls-3" d="M220.75,102.26c.27,5.23-6.53,7.47-10.23,4.21a5.14,5.14,0,0,1,0-8.38c3.67-2.71,9.81-.39,10.18,4.17Zm-.21,0c-.18-5.53-10.58-5.79-10.51-.12.59,4.73,10.23,5.44,10.51.12Z"/><path class="cls-2" d="M229.07,105.49c.11,2.63-2.37,4.74-5.53,4.71s-5.81-2.17-5.91-4.8,2.47-4.94,5.63-4.91S229,102.87,229.07,105.49Z"/><path class="cls-3" d="M229.18,105.49c.27,5.28-6.65,7.49-10.32,4.15a5.23,5.23,0,0,1,.22-8.45c3.84-2.89,9.72-.37,10.1,4.3Zm-.21,0c-.2-5.75-10.36-6-10.5-.23.43,4.83,10.24,5.58,10.5.23Z"/><path class="cls-2" d="M238,103.66c.1,2.51-2.18,4.52-5.1,4.5s-5.35-2.07-5.45-4.58,2.18-4.52,5.09-4.5S237.88,101.15,238,103.66Z"/><path class="cls-3" d="M238.08,103.66c.31,5-6,7.26-9.53,4-2.5-2-2.67-6.13.06-8,3.5-2.69,9.16-.35,9.47,4Zm-.21,0c-.1-5.23-9.76-5.5-9.61-.12.57,4.48,9.34,5.12,9.61.12Z"/><path class="cls-2" d="M247.75,106.69c.11,2.75-2.57,5-6,4.92s-6.26-2.27-6.37-5,2.57-4.94,6-4.92S247.64,104,247.75,106.69Z"/><path class="cls-3" d="M247.85,106.69c.21,5.49-7,7.68-10.92,4.41-3-2.23-3.22-6.72,0-8.77,3.88-2.69,10.37-.55,10.88,4.36Zm-.21,0c-.28-4.53-6.81-5.68-9.88-3.27-3.78,3.17.07,7,3.91,7.13,2.48.26,6-.8,6-3.86Z"/><path class="cls-2" d="M258.15,108.57c.11,2.8-2.57,5.05-6,5s-6.26-2.32-6.37-5.12,2.56-5,6-5S258,105.77,258.15,108.57Z"/><path class="cls-3" d="M258.25,108.57c.25,5.56-7,7.85-11,4.45-3-2.23-3.17-6.81,0-8.87,3.92-2.84,10.5-.46,10.92,4.42Zm-.21,0c-.24-4.56-6.81-5.84-9.9-3.33-3.73,3.2,0,7.2,3.93,7.3,2.52.27,6-.88,6-4Z"/><path class="cls-2" d="M267.78,113.71c.11,2.8-2.57,5.05-6,5s-6.26-2.31-6.37-5.11,2.56-5.05,6-5S267.67,110.91,267.78,113.71Z"/><path class="cls-3" d="M267.88,113.71c.25,5.56-7,7.85-11,4.46-3-2.24-3.17-6.81,0-8.88,3.92-2.84,10.5-.46,10.92,4.42Zm-.21,0c-.24-4.57-6.81-5.85-9.9-3.33-3.73,3.19,0,7.19,3.93,7.29,2.52.28,6-.88,6-4Z"/><path class="cls-2" d="M275.61,118.84a5.86,5.86,0,0,1-5.95,5.66c-3.41,0-5.58-2.1-5.69-4.9a5.71,5.71,0,0,1,5.6-5.87C273,113.75,275.5,116,275.61,118.84Z"/><path class="cls-3" d="M275.72,118.84a6.45,6.45,0,0,1-10.54,5.25c-2.82-2.29-2.57-6.75-.09-9.09,3.44-3.72,10.36-1.16,10.63,3.84Zm-.21,0c0-3.06-3.27-4.85-6-4.6a5.06,5.06,0,0,0-4.69,5.19c.39,5.78,10.59,5.06,10.7-.59Z"/><path class="cls-2" d="M284.16,125c.1,2.51-2.92,5.47-6,5.45s-5.58-2.08-5.68-4.59a5.34,5.34,0,0,1,5.18-5.34C280.74,120.57,284.06,122.52,284.16,125Z"/><path class="cls-3" d="M284.26,125a6.71,6.71,0,0,1-5.56,6.47c-3.31.4-6.9-2-7-5.54a6,6,0,0,1,6.16-5.93c2.79.26,6,2,6.41,5Zm-.2,0c-.21-2.91-3.79-4-6.24-4a4.66,4.66,0,0,0-4.46,4.8c1,5.2,10.25,4.33,10.7-.84Z"/><path class="cls-2" d="M291.15,134.32c-1.14,2.45-4.37,3.4-7.22,2.13s-4.23-4.28-3.1-6.72,4.37-3.4,7.22-2.13S292.29,131.87,291.15,134.32Z"/><path class="cls-3" d="M291.24,134.36c-2,4.73-9.1,4.51-11.18-.17a5.39,5.39,0,0,1,3.73-7.62c4.55-1.17,9.32,3.38,7.45,7.79Zm-.19-.08c2.46-5.36-7.13-9.39-9.46-4.2-1.69,4.82,6.94,8.77,9.46,4.2Z"/><path class="cls-2" d="M293.77,143.84c-1.14,2.45-4.37,3.4-7.22,2.14s-4.23-4.28-3.09-6.73,4.36-3.4,7.21-2.13S294.91,141.4,293.77,143.84Z"/><path class="cls-3" d="M293.87,143.89c-2,4.72-9.1,4.5-11.18-.18a5.38,5.38,0,0,1,3.72-7.62c4.55-1.16,9.32,3.38,7.46,7.8Zm-.19-.09c2.45-5.36-7.14-9.38-9.46-4.19-1.7,4.82,6.93,8.76,9.46,4.19Z"/><path class="cls-2" d="M299.64,150.43a5,5,0,0,1-6.62,2.4,4.84,4.84,0,0,1-2.5-6.46,5,5,0,0,1,6.62-2.39A4.83,4.83,0,0,1,299.64,150.43Z"/><path class="cls-3" d="M299.74,150.48a5.48,5.48,0,1,1-10-4.46c3.38-6.2,12.66-2.27,10,4.46Zm-.19-.09c2.44-5.3-6-8.92-8.27-3.66-1.89,4.71,5.94,8.17,8.27,3.66Z"/><path class="cls-2" d="M203.3,103c1,2.37-.44,5-3.21,6s-5.81-.25-6.8-2.62.44-5,3.21-6S202.3,100.58,203.3,103Z"/><path class="cls-3" d="M203.39,102.91c2.07,5.11-2.78,8.57-7.42,6.26-2.76-1-4.93-4.28-3.2-7.13a5.83,5.83,0,0,1,10.62.87Zm-.19.08a3.44,3.44,0,0,0-2.94-1.95c-3.11-.43-7.15,1.38-6.44,5,.6,2.6,3.74,3.2,5.84,2.05,2-.85,4.57-2.66,3.54-5.13Z"/><path class="cls-2" d="M212.82,108.74c.1,2.51-2.33,4.53-5.43,4.5s-5.69-2.07-5.79-4.58,2.33-4.52,5.43-4.5S212.72,106.24,212.82,108.74Z"/><path class="cls-3" d="M212.92,108.74c.23,5.06-6.41,7.17-10,4.1a4.91,4.91,0,0,1,.06-8.13c3.58-2.52,9.53-.39,9.94,4Zm-.2,0c-.22-5.29-10.3-5.51-10.29-.13.57,4.45,10,5.17,10.29.13Z"/><path class="cls-2" d="M222.08,109.56c1.11,2.32-.29,5.09-3.11,6.18s-6,.08-7.11-2.25.29-5.1,3.11-6.18S221,107.23,222.08,109.56Z"/><path class="cls-3" d="M222.18,109.51c3,7.1-7.94,10.92-11.08,4.34-2.4-6.83,7.91-10.17,11.08-4.34Zm-.19.09c-2.15-4.84-11.64-1.6-9.38,3.53,2.25,4,11.18,1.43,9.38-3.53Z"/><path class="cls-2" d="M238.92,111.32c.4,2.5-1.77,4.76-4.84,5.06s-5.87-1.48-6.27-4,1.78-4.76,4.84-5.06S238.53,108.82,238.92,111.32Z"/><path class="cls-3" d="M239,111.3c.84,5-5.56,7.84-9.46,5.12-2.9-1.75-3.6-5.91-.85-8.1,3.3-2.93,9.41-1.34,10.31,3Zm-.2,0c-.78-5.22-10.83-4.48-10.18.93,1.05,4.36,10.52,4.17,10.18-.93Z"/><path class="cls-2" d="M247.67,116.1c0,2.51-2.44,4.47-5.54,4.38s-5.65-2.19-5.69-4.7,2.44-4.47,5.54-4.38S247.63,113.59,247.67,116.1Z"/><path class="cls-3" d="M247.78,116.1c.14,5-6.61,7-10.1,3.89a4.9,4.9,0,0,1,.23-8.12c3.63-2.45,9.55-.2,9.87,4.23Zm-.21,0c-.1-5.3-10.18-5.71-10.29-.33.47,4.46,9.93,5.35,10.29.33Z"/><path class="cls-2" d="M258.12,119.13c0,2.56-3,4.26-6.12,4.17s-6-1.91-6-4.48,2.86-5.32,6-5.23S258.07,116.56,258.12,119.13Z"/><path class="cls-3" d="M258.22,119.13c-.33,6.19-10.39,6.94-12.72,1.54-1.71-4.13,3-8.21,7-7.56a7.2,7.2,0,0,1,5.76,6Zm-.21,0c-.08-2.82-3.12-4.8-5.67-5a5.34,5.34,0,0,0-5.47,4.17c-.41,4.67,10.89,5.71,11.14.81Z"/><path class="cls-2" d="M232.39,113.74c1.24,2.61-.17,5.66-3.14,6.8a6,6,0,0,1-7.63-2.66c-1.24-2.62.16-5.66,3.14-6.81A6.05,6.05,0,0,1,232.39,113.74Z"/><path class="cls-3" d="M232.48,113.69c2.58,5.07-3,10-8,7.92-3.22-1.1-5.21-5.19-3.36-8.21,2.42-4.43,9.28-4,11.37.29Zm-.19.09c-2.41-5.43-12.58-2.11-9.91,3.74,2.47,4.68,12,1.85,9.91-3.74Z"/><path class="cls-2" d="M265.7,123.62c.11,2.68-2.27,4.84-5.31,4.82s-5.58-2.22-5.69-4.9,2.27-4.84,5.31-4.82S265.59,120.94,265.7,123.62Z"/><path class="cls-3" d="M265.81,123.62c.34,5.27-6.23,7.71-9.95,4.22-2.54-2.12-2.71-6.42,0-8.39,3.66-2.94,9.61-.37,9.9,4.17Zm-.21,0c-.12-5.61-10.26-5.95-10.06-.13.53,4.89,9.82,5.52,10.06.13Z"/><path class="cls-2" d="M274.43,128.65c.1,2.63-2.28,4.74-5.31,4.71s-5.59-2.17-5.69-4.79,2.27-4.74,5.31-4.71S274.32,126,274.43,128.65Z"/><path class="cls-3" d="M274.53,128.65c.31,5.2-6.23,7.54-9.91,4.17-2.59-2.1-2.76-6.34.05-8.29,3.63-2.82,9.55-.37,9.86,4.12Zm-.21,0c-.11-5.5-10.22-5.79-10.05-.13.56,4.75,9.78,5.4,10.05.13Z"/><path class="cls-2" d="M282.3,134.63c.1,2.62-2.43,4.73-5.65,4.7s-5.92-2.17-6-4.79,2.43-4.74,5.65-4.71S282.19,132,282.3,134.63Z"/><path class="cls-3" d="M282.4,134.62c.24,5.26-6.66,7.45-10.39,4.24a5.1,5.1,0,0,1,.06-8.42c3.71-2.66,9.92-.42,10.33,4.18Zm-.21,0c-.22-5.55-10.75-5.8-10.73-.13.58,4.72,10.49,5.45,10.73.13Z"/><path class="cls-2" d="M285.24,142.63c-.34,2.59-3,4.31-6,3.84s-5.07-2.94-4.73-5.53,3.79-3.94,6.75-3.47A4.34,4.34,0,0,1,285.24,142.63Z"/><path class="cls-3" d="M285.34,142.65c-.53,5-7.1,6.53-10.27,2.73-2.24-2.47-1.84-6.63,1.48-7.89,4-1.83,9.47.1,8.79,5.16Zm-.2,0c.82-4.6-4.83-5.67-8-3.91-2.28,1.07-2.26,3.76-.56,5.26,2.29,2.25,7.74,2.54,8.55-1.35Z"/><path class="cls-2" d="M290.69,149.85c-.34,2.59-3,4.31-6,3.85s-5.08-2.95-4.74-5.54,3.8-3.94,6.76-3.47A4.34,4.34,0,0,1,290.69,149.85Z"/><path class="cls-3" d="M290.79,149.87c-.53,5-7.1,6.53-10.27,2.74-2.25-2.48-1.84-6.63,1.48-7.9,4-1.83,9.47.1,8.79,5.16Zm-.21,0c.83-4.59-4.83-5.66-8-3.91a3.08,3.08,0,0,0-.56,5.26c2.29,2.25,7.73,2.54,8.54-1.35Z"/><path class="cls-2" d="M294.56,156.52c-.29,2.27-2.62,3.77-5.2,3.36s-4.43-2.57-4.13-4.83,3.31-3.44,5.89-3A3.79,3.79,0,0,1,294.56,156.52Z"/><path class="cls-3" d="M294.67,156.54c-.44,4.48-6.24,5.9-9.07,2.48-2-2.22-1.62-5.94,1.35-7.06,3.58-1.61,8.31.13,7.72,4.58Zm-.21,0c.5-2.49-1.58-4.12-3.9-4-1.77-.07-4.42.82-4.5,2.77,0,4,7.45,5.49,8.4,1.26Z"/><path class="cls-2" d="M241.28,119.89c.53,2.53-1.37,4.91-4.25,5.33s-5.64-1.29-6.17-3.82,1.37-4.91,4.25-5.33S240.75,117.37,241.28,119.89Z"/><path class="cls-3" d="M241.38,119.87c1.2,5-4.74,8.27-8.79,5.46-2.7-1.61-3.59-5.75-1.24-8,3.07-3.35,9.05-1.67,10,2.55Zm-.2,0c-1-5.21-10.61-4.19-9.5,1.32,1.24,4.45,10.11,3.85,9.5-1.32Z"/><path class="cls-2" d="M251.84,125.52c-.53,2.48-3.51,3.91-6.67,3.19s-5.28-3.32-4.75-5.8,3.51-3.91,6.66-3.19S252.36,123,251.84,125.52Z"/><path class="cls-3" d="M251.94,125.54c-1.84,7.24-13.64,4.54-12.34-2.81,2-6.63,13.24-3.8,12.34,2.81Zm-.21-.05c1-5.4-9.16-7.64-10.49-2.41-.53,4.58,9.1,7.23,10.49,2.41Z"/><path class="cls-2" d="M261.75,131.4c-.53,2.49-3.78,3.59-6.93,2.87s-6.26-2.59-5.73-5.08,4.49-4.63,7.64-3.91S262.27,128.92,261.75,131.4Z"/><path class="cls-3" d="M261.85,131.43c-1.41,5-8.57,4.76-12,1.74s-1.21-6.74,2.32-8a7.76,7.76,0,0,1,4.62-.38c2.85.81,5.39,3.6,5,6.66Zm-.21-.05c.59-2.92-2.49-5.16-5-5.59s-5.56.92-6.54,3.13c-.81,2.46,2.74,3.57,4.64,4.24,2.28.78,6.06,1.14,6.93-1.78Z"/><path class="cls-2" d="M270.9,135.8c.1,2.63-2.33,4.74-5.43,4.71s-5.69-2.17-5.8-4.79S262,131,265.1,131,270.79,133.18,270.9,135.8Z"/><path class="cls-3" d="M271,135.8c.31,5.2-6.4,7.51-10.07,4.2-2.66-2.1-2.85-6.41.05-8.34,3.63-2.77,9.7-.37,10,4.14Zm-.21,0c-.14-5.52-10.4-5.79-10.28-.13.56,4.74,10,5.42,10.28.13Z"/><path class="cls-2" d="M276.65,143.62c-.53,2.32-3.28,3.62-6.13,2.92s-4.72-3.14-4.19-5.45,3.29-3.62,6.14-2.92S277.19,141.31,276.65,143.62Z"/><path class="cls-3" d="M276.76,143.65c-1.8,6.85-12.64,4.16-11.24-2.75,2-6.22,12.22-3.44,11.24,2.75Zm-.21-.05c1.1-5-8.16-7.16-9.4-2.32-.53,4.2,8,6.71,9.4,2.32Z"/><path class="cls-3" d="M157.18,105.42c0-.07,0,0,.12,0h.16a14,14,0,0,1,9.31,4.21c1.21,1.17,2,2.77,3.77,3a3,3,0,0,0,3.11-4.57c-3.29-5.48-11.28-4.41-16.47-2.63Zm-.1,0c4.79-2,10.87-3,15.41.19a5.15,5.15,0,0,1,2.3,4.87c-.62,3.29-4.83,4.12-7,1.76-2.77-3.45-6.14-6.11-10.73-6.82Z"/><path class="cls-3" d="M173.5,94.89c.78,3.64,2.62,8.39,6.52,9.49a2.29,2.29,0,0,0,2.7-1.56.51.51,0,0,1,.48-.38,6.3,6.3,0,0,0,3.88-1.32,5,5,0,0,0,1.63-3.68l.31.42c-4.1-1.34-7.77-4.54-8.71-8.87l.46.15a8,8,0,0,0-2.14,4.18,9.65,9.65,0,0,0,.43,4.79.13.13,0,0,1-.09.17,6.6,6.6,0,0,1-5.47-3.39Zm0-.09a6.92,6.92,0,0,0,5.45,3.2l-.14.19a11.13,11.13,0,0,1-.6-2.42,8.57,8.57,0,0,1,2.21-7,.28.28,0,0,1,.46.15c1,4,4.53,7,8.41,8.18a.4.4,0,0,1,.29.42,6,6,0,0,1-6.34,6l.51-.38A3.13,3.13,0,0,1,182.2,105c-5,2.25-9-6.21-8.73-10.2Z"/><g class="cls-6"><path class="cls-3" d="M298,175.83c-.35,18.51-12.49,35.53-28.81,43.75a72.29,72.29,0,0,1-14.29,5.47,82.26,82.26,0,0,0,15.83-7.2c15-8.7,25.8-24.61,27.27-42Z"/></g></svg>