<svg id="Layer_1" data-name="Layer 1" xmlns="http://www.w3.org/2000/svg" width="240.68" height="318.38" viewBox="0 0 240.68 318.38">
  <defs>
    <style>
      .cls-1 {
        opacity: 0.5;
      }

      .cls-2 {
        fill: #ffef5f;
      }

      .cls-3, .cls-9 {
        fill: none;
        stroke-linejoin: round;
      }

      .cls-3 {
        stroke: #fffa4d;
        stroke-width: 9px;
      }

      .cls-4 {
        fill: #338000;
      }

      .cls-5 {
        fill: #c87137;
      }

      .cls-6 {
        fill: #a05a2c;
      }

      .cls-7 {
        fill: #d38d5f;
      }

      .cls-8 {
        fill: #502d16;
      }

      .cls-9 {
        stroke: #502d16;
        stroke-linecap: round;
        stroke-width: 0.64px;
      }
    </style>
  </defs>
  <g>
    <g class="cls-1">
      <g>
        <path d="M55.9,316.44l-2.86,0c-4.48-.06-13.46-.37-18.28-1.19-7.11-1.19-12-3.11-15.89-6.23-.24-.2-.48-.41-.7-.62a23.61,23.61,0,0,1-7-13,11.82,11.82,0,0,1-.18-1.17c-.07-.38-.12-.76-.16-1.13A43.4,43.4,0,0,1,12,278.86c1-4.13,2-6.54,4.91-9.91,3.17-3.68,9.24-7.14,15.46-8.82a77.35,77.35,0,0,1,10.32-1.79c1.6-.2,3.11-.39,4.21-.59a20.72,20.72,0,0,0,4.91-1.69c.46-.2.89-.4,1.31-.57.66-.28,1.43-.59,2.28-.93,1.82-.72,3.88-1.55,5.7-2.43a72,72,0,0,0,7.62-4.53c1.77-1.19,3.92-2.74,6.23-4.5a59,59,0,0,0,6-5,75.7,75.7,0,0,0,6.29-7.94,50.55,50.55,0,0,0,3.54-5.94c1-1.91,2.12-4.12,2.86-6,.39-1,1-2.86,1.56-4.51s1-3.09,1.46-4.27c.69-1.91,1.58-3.92,2.43-5.86l.51-1.16a11.07,11.07,0,0,1-6.79,2.26h-.19c-.11.16-.21.32-.33.48l-.44.65c-1.42,2.12-4.73,7.07-11.12,7.07a11.5,11.5,0,0,1-6.26-1.88c-4.09-2.62-7.23-7.49-7.6-11.82l0-.3c-.32-3.08-.52-5.88-.62-8.41A10,10,0,0,1,62,187.22a10.12,10.12,0,0,1-1.25-2.14q-3.39-.56-7.39-1.45l-.37-.08c-4.27-.89-8.73-4.58-10.87-9-.84-1.71-4.48-10.65,7.21-16.62.24-.12.48-.24.71-.37a12.59,12.59,0,0,1,2-.88c1.12-2.35,3.33-4.78,7.38-6.84l.71-.37a14.27,14.27,0,0,1,7.09-1.64c.66,0,1.34,0,2.05.08-.14-.26-.29-.53-.42-.8a11.56,11.56,0,0,1,2.62-13.72,15.1,15.1,0,0,1,1.91-1.5c0-3.38,1.52-7.64,7.7-11.16.16-2.69,1.38-5.83,5-8.68a12,12,0,0,1,3.11-7c.23-.26.47-.5.72-.74a11.73,11.73,0,0,1,3-9.84c.15-.17.3-.33.46-.49-.58-2.81-.27-6.59,3.33-10.34a11.72,11.72,0,0,1,2.74-10c-1.08-3.65-1-9.58,7.43-14.73.27-.16.55-.33.8-.5,3.14-2.05,6.71-2.31,9.48-2.31s5.78.28,9.09.58c1.66.15,3.41.31,5.2.44,1.07.08,2.09.21,3.07.38.19-1,.42-2.24.71-3.5a37.81,37.81,0,0,1,1.26-4.28A37.06,37.06,0,0,1,142,39.88a65.59,65.59,0,0,1,4.6-5.29c1.59-1.66,3.38-3.43,5.5-5.43,3.75-3.54,8.16-7.46,10.8-9.81a10.92,10.92,0,0,1,6.65-2.66,10.4,10.4,0,0,1,2.15-.23,10,10,0,0,1,9.44,13.31,12.41,12.41,0,0,1-1.26,3.57,33.11,33.11,0,0,1,5.88-1.54c2-.33,3.91-.69,5.74-1a75.88,75.88,0,0,1,12.73-1.71,15.06,15.06,0,0,1,7.26,1.61l.92.46a21.47,21.47,0,0,1,5.26,3.29,11.83,11.83,0,0,1,3,13.84,11.8,11.8,0,0,1,2.16,11.08,11.66,11.66,0,0,1,0,11.6,11.43,11.43,0,0,1-.06,8.73,11,11,0,0,1,.15,4.24A10.53,10.53,0,0,1,224.53,90a10.78,10.78,0,0,1,1.56,2.77l.14.1.55.37c10.74,7.3,5.48,16,4.84,17a16.85,16.85,0,0,1-5,4.9,10,10,0,0,1-6.74,2.61l-2.59,0c-1.27.1-2.5.18-3.68.23q.45,2.9.78,6.3l0,.27c.47,4.15-1.54,9.35-4.9,12.62a11.23,11.23,0,0,1-7.89,3.24,12.83,12.83,0,0,1-9-4,97.36,97.36,0,0,1,3.36,12.3c.69,3.46,1.3,7.39,1.85,12,.13,1.08.26,2.17.38,3.29.33,2.94.68,6,1.17,9,.37,2.32.84,4.75,1.35,7.32.41,2.12.82,4.25,1.18,6.32.43,2.43.78,4.82,1.12,7.14.31,2.05.59,4,.87,5.55.56,3.15,1.31,6.18,2.48,10.8,1.37,5.44,2.82,11.09,4.19,15.57a88.29,88.29,0,0,0,4,10.73,33.68,33.68,0,0,0,4.07,7c1.72,2.23,4.22,4.9,6.43,7.26l.92,1c2.54,2.73,6,6.44,8.08,12a51.67,51.67,0,0,1,3,17.26,24.34,24.34,0,0,1-6.1,15.48,30.41,30.41,0,0,1-14.13,8.33,40.38,40.38,0,0,1-4,.83,9.57,9.57,0,0,1-1.43.32,75.14,75.14,0,0,1-10.23.8h-1a34.81,34.81,0,0,1-13.3-2.56,27,27,0,0,1-10.74-8,30.78,30.78,0,0,1-5.8-12.71c-.19-.82-.37-1.72-.56-2.67a33,33,0,0,0-1.17-4.75c-.87-.8-2.7-2.13-4-3.05a60.51,60.51,0,0,1-5.58-4.4,26.67,26.67,0,0,1-6.75-10.09,36.26,36.26,0,0,1-7.75,7.44l-1.39.94-.08.05a32.26,32.26,0,0,1-2.91,1.7,50.62,50.62,0,0,1-6.2,2.61l-.38.14c-.85.32-1.62.6-2.28.89-.08.18-.17.38-.24.56-.31.69-.63,1.4-1,2.12l-.67,1.35a88,88,0,0,1-4.24,7.87A44.41,44.41,0,0,1,118,293a34.62,34.62,0,0,1-7.65,5.18,37.91,37.91,0,0,1-11.5,4.41l-.44.09c-.8.14-1.7.25-2.85.34-2.56.22-5.6.27-8.54.32l-2.2,0c-3,.08-5.12.21-6.23.37-.88.23-2.36,1.75-3.55,3L73.73,308a73.53,73.53,0,0,1-7.18,6.1A10.59,10.59,0,0,1,62.22,316,28.77,28.77,0,0,1,55.9,316.44ZM178.36,34Z"/>
        <path d="M89,168.56c-4.6,0-10.53-.83-18.15-2.53l-.37-.08c-4.33-.89-8.92-4.68-11.12-9.21A11.51,11.51,0,0,1,62,143a19.5,19.5,0,0,1,4.77-3.13l.78-.41a14.56,14.56,0,0,1,7.23-1.66,70.92,70.92,0,0,1,10.79,1.3c1.56.26,3.2.54,4.88.79,10.43,1.56,15.62,7.56,17.13,9.65a9.77,9.77,0,0,1,1.73,3.75,10,10,0,0,1-5.43,11.24c-2.11,1-7.49,3.41-11.75,3.85a30.21,30.21,0,0,1-3.12.15Z"/>
        <path d="M47.43,197H45.29c-4.36,0-9.47-2.67-12.46-6.49-1.18-1.5-6.6-9.48,3.57-17.75.21-.17.42-.34.62-.52,4-3.44,9.37-3.68,16.86-4,1.47-.06,3-.13,4.6-.23.62,0,1.22-.06,1.81-.06,10,0,15.61,5.08,16.64,6.1a10,10,0,0,1-.92,15c-1.76,1.36-6.29,4.65-10.19,5.92-4.13,1.34-10.31,2-18.39,2Z"/>
        <path d="M64.21,220.21a11.41,11.41,0,0,1-8.1-3.4c-3.46-3.48-5.49-8.9-4.93-13.2l0-.3c1-9.07,2.48-15.56,4.47-19.81,1.73-3.72,5.55-7.8,7.11-9.38a10,10,0,0,1,7.09-3h0A10,10,0,0,1,77,174.08a8.49,8.49,0,0,1,.84,1c1,1.27,5.78,8.17,3.75,19.06-.3,1.58-.56,3.13-.81,4.6-1.23,7.35-2.13,12.66-6,16.17l-.58.56c-1.74,1.67-5,4.78-10,4.78Z"/>
      </g>
    </g>
    <g>
      <g>
        <path class="cls-2" d="M52.2,305.42l-2.87,0a154.1,154.1,0,0,1-18.28-1.19c-7.1-1.19-12-3.12-15.88-6.24a6.89,6.89,0,0,1-.7-.62,23.55,23.55,0,0,1-7-13,7.76,7.76,0,0,1-.18-1.16c-.07-.39-.12-.77-.16-1.14a43,43,0,0,1,1.18-14.21c1-4.14,2-6.54,4.9-9.92,3.19-3.68,9.25-7.13,15.46-8.81A76.18,76.18,0,0,1,39,247.32c1.6-.21,3.11-.4,4.21-.6A20.29,20.29,0,0,0,48.08,245l1.31-.57,2.28-.92c1.82-.73,3.88-1.55,5.7-2.43A73.7,73.7,0,0,0,65,236.57c1.77-1.18,3.92-2.73,6.24-4.5a56.63,56.63,0,0,0,6-5,76.43,76.43,0,0,0,6.3-7.94,50,50,0,0,0,3.53-6,64.08,64.08,0,0,0,2.87-6c.39-1,1-2.87,1.56-4.52s1-3.09,1.46-4.26c.69-1.91,1.58-3.93,2.43-5.87l.51-1.15A11.07,11.07,0,0,1,89,193.6h-.19l-.33.48-.44.65c-1.42,2.11-4.73,7.06-11.12,7.06a11.55,11.55,0,0,1-6.26-1.87c-4.09-2.63-7.23-7.5-7.6-11.83l0-.3c-.32-3.08-.53-5.87-.62-8.41A10,10,0,0,1,57,174.05q-3.37-.56-7.4-1.45l-.35-.07c-4.27-.9-8.73-4.58-10.87-9-.84-1.72-4.48-10.66,7.21-16.62.24-.12.48-.24.71-.37a11.75,11.75,0,0,1,2-.88c1.12-2.36,3.33-4.78,7.38-6.85.24-.12.48-.24.71-.37a14.35,14.35,0,0,1,7.09-1.63c.66,0,1.34,0,2.05.08q-.23-.4-.42-.81a11.54,11.54,0,0,1,2.62-13.71,14.24,14.24,0,0,1,1.91-1.5c0-3.39,1.52-7.64,7.7-11.17.16-2.69,1.38-5.82,5-8.68a12,12,0,0,1,3.11-7c.23-.26.47-.51.71-.74a11.76,11.76,0,0,1,3-9.84c.15-.17.3-.33.46-.49-.58-2.82-.28-6.6,3.33-10.35a11.68,11.68,0,0,1,2.74-9.94c-1.08-3.66-1-9.59,7.43-14.74l.8-.49c3.14-2.06,6.71-2.32,9.48-2.32s5.77.29,9.08.59c1.66.15,3.42.31,5.21.44,1.07.08,2.09.21,3.07.38.2-1.06.42-2.25.71-3.51a39.07,39.07,0,0,1,1.26-4.28,37.22,37.22,0,0,1,5.53-9.92,67.14,67.14,0,0,1,4.6-5.28c1.57-1.64,3.42-3.47,5.5-5.44,3.74-3.54,8.16-7.46,10.8-9.8a10.86,10.86,0,0,1,6.65-2.66A9.77,9.77,0,0,1,168,5.43a10,10,0,0,1,9.44,13.32,12.37,12.37,0,0,1-1.26,3.56,33.75,33.75,0,0,1,5.88-1.54c2-.33,3.9-.69,5.74-1A75.62,75.62,0,0,1,200.56,18a15.13,15.13,0,0,1,7.27,1.62c.26.14.59.29.91.45A22,22,0,0,1,214,23.39a11.85,11.85,0,0,1,3,13.85,11.78,11.78,0,0,1,2.16,11.07,11.66,11.66,0,0,1,0,11.6,11.43,11.43,0,0,1-.07,8.73,11.07,11.07,0,0,1,.16,4.25A10.59,10.59,0,0,1,220.83,79a11.26,11.26,0,0,1,1.56,2.77l.14.1.54.38c10.75,7.3,5.49,16,4.85,17a17.06,17.06,0,0,1-5,4.89,10,10,0,0,1-6.74,2.62l-2.59,0c-1.27.1-2.5.17-3.68.22.3,1.93.55,4,.78,6.31l0,.27c.47,4.15-1.54,9.35-4.91,12.61a11.19,11.19,0,0,1-7.88,3.24,12.92,12.92,0,0,1-9-4,94.41,94.41,0,0,1,3.36,12.29c.7,3.48,1.31,7.4,1.86,12,.13,1.08.26,2.18.38,3.3.33,2.93.67,6,1.16,9,.38,2.33.85,4.76,1.35,7.33.42,2.12.83,4.24,1.19,6.31.42,2.43.78,4.82,1.12,7.14.3,2.06.59,4,.87,5.55.56,3.16,1.31,6.19,2.48,10.8,1.36,5.45,2.82,11.09,4.19,15.57a88.29,88.29,0,0,0,4,10.73,33.42,33.42,0,0,0,4.07,7c1.71,2.23,4.21,4.9,6.41,7.26l.94,1c2.68,2.88,6,6.45,8.08,12a52.22,52.22,0,0,1,3,17.26,24.28,24.28,0,0,1-6.11,15.48,30.16,30.16,0,0,1-14.12,8.33c-1.21.32-2.54.6-4,.84a10,10,0,0,1-1.44.31,73.82,73.82,0,0,1-10.23.8h-1a34.8,34.8,0,0,1-13.29-2.56,27,27,0,0,1-10.74-8,30.82,30.82,0,0,1-5.8-12.72c-.19-.82-.37-1.72-.56-2.67a35.11,35.11,0,0,0-1.17-4.75c-.87-.8-2.7-2.13-4-3a59.25,59.25,0,0,1-5.58-4.41,26.59,26.59,0,0,1-6.75-10.09,36.26,36.26,0,0,1-7.75,7.44c-.46.33-.92.64-1.39.94l-.09.06a29.67,29.67,0,0,1-2.89,1.69,51.64,51.64,0,0,1-6.22,2.62l-.37.14c-.85.31-1.62.6-2.28.88-.08.19-.17.39-.25.56-.3.7-.62,1.41-1,2.13l-.67,1.35c-1.29,2.58-2.74,5.51-4.24,7.87a44.37,44.37,0,0,1-7.26,8.73,34.67,34.67,0,0,1-7.64,5.19,38.14,38.14,0,0,1-11.51,4.41l-.42.08a27.21,27.21,0,0,1-2.86.34c-2.56.22-5.6.27-8.54.33l-2.2,0c-1.1,0-4.57.13-6.23.38-.88.22-2.36,1.74-3.56,3-.44.46-.87.9-1.29,1.31a73.53,73.53,0,0,1-7.18,6.1A10.48,10.48,0,0,1,58.52,305,29.44,29.44,0,0,1,52.2,305.42Z"/>
        <path class="cls-3" d="M52.2,305.42l-2.87,0a154.1,154.1,0,0,1-18.28-1.19c-7.1-1.19-12-3.12-15.88-6.24a6.89,6.89,0,0,1-.7-.62,23.55,23.55,0,0,1-7-13,7.76,7.76,0,0,1-.18-1.16c-.07-.39-.12-.77-.16-1.14a43,43,0,0,1,1.18-14.21c1-4.14,2-6.54,4.9-9.92,3.19-3.68,9.25-7.13,15.46-8.81A76.18,76.18,0,0,1,39,247.32c1.6-.21,3.11-.4,4.21-.6A20.29,20.29,0,0,0,48.08,245l1.31-.57,2.28-.92c1.82-.73,3.88-1.55,5.7-2.43A73.7,73.7,0,0,0,65,236.57c1.77-1.18,3.92-2.73,6.24-4.5a56.63,56.63,0,0,0,6-5,76.43,76.43,0,0,0,6.3-7.94,50,50,0,0,0,3.53-6,64.08,64.08,0,0,0,2.87-6c.39-1,1-2.87,1.56-4.52s1-3.09,1.46-4.26c.69-1.91,1.58-3.93,2.43-5.87l.51-1.15A11.07,11.07,0,0,1,89,193.6h-.19l-.33.48-.44.65c-1.42,2.11-4.73,7.06-11.12,7.06a11.55,11.55,0,0,1-6.26-1.87c-4.09-2.63-7.23-7.5-7.6-11.83l0-.3c-.32-3.08-.53-5.87-.62-8.41A10,10,0,0,1,57,174.05q-3.37-.56-7.4-1.45l-.35-.07c-4.27-.9-8.73-4.58-10.87-9-.84-1.72-4.48-10.66,7.21-16.62.24-.12.48-.24.71-.37a11.75,11.75,0,0,1,2-.88c1.12-2.36,3.33-4.78,7.38-6.85.24-.12.48-.24.71-.37a14.35,14.35,0,0,1,7.09-1.63c.66,0,1.34,0,2.05.08q-.23-.4-.42-.81a11.54,11.54,0,0,1,2.62-13.71,14.24,14.24,0,0,1,1.91-1.5c0-3.39,1.52-7.64,7.7-11.17.16-2.69,1.38-5.82,5-8.68a12,12,0,0,1,3.11-7c.23-.26.47-.51.71-.74a11.76,11.76,0,0,1,3-9.84c.15-.17.3-.33.46-.49-.58-2.82-.28-6.6,3.33-10.35a11.68,11.68,0,0,1,2.74-9.94c-1.08-3.66-1-9.59,7.43-14.74l.8-.49c3.14-2.06,6.71-2.32,9.48-2.32s5.77.29,9.08.59c1.66.15,3.42.31,5.21.44,1.07.08,2.09.21,3.07.38.2-1.06.42-2.25.71-3.51a39.07,39.07,0,0,1,1.26-4.28,37.22,37.22,0,0,1,5.53-9.92,67.14,67.14,0,0,1,4.6-5.28c1.57-1.64,3.42-3.47,5.5-5.44,3.74-3.54,8.16-7.46,10.8-9.8a10.86,10.86,0,0,1,6.65-2.66A9.77,9.77,0,0,1,168,5.43a10,10,0,0,1,9.44,13.32,12.37,12.37,0,0,1-1.26,3.56,33.75,33.75,0,0,1,5.88-1.54c2-.33,3.9-.69,5.74-1A75.62,75.62,0,0,1,200.56,18a15.13,15.13,0,0,1,7.27,1.62c.26.14.59.29.91.45A22,22,0,0,1,214,23.39a11.85,11.85,0,0,1,3,13.85,11.78,11.78,0,0,1,2.16,11.07,11.66,11.66,0,0,1,0,11.6,11.43,11.43,0,0,1-.07,8.73,11.07,11.07,0,0,1,.16,4.25A10.59,10.59,0,0,1,220.83,79a11.26,11.26,0,0,1,1.56,2.77l.14.1.54.38c10.75,7.3,5.49,16,4.85,17a17.06,17.06,0,0,1-5,4.89,10,10,0,0,1-6.74,2.62l-2.59,0c-1.27.1-2.5.17-3.68.22.3,1.93.55,4,.78,6.31l0,.27c.47,4.15-1.54,9.35-4.91,12.61a11.19,11.19,0,0,1-7.88,3.24,12.92,12.92,0,0,1-9-4,94.41,94.41,0,0,1,3.36,12.29c.7,3.48,1.31,7.4,1.86,12,.13,1.08.26,2.18.38,3.3.33,2.93.67,6,1.16,9,.38,2.33.85,4.76,1.35,7.33.42,2.12.83,4.24,1.19,6.31.42,2.43.78,4.82,1.12,7.14.3,2.06.59,4,.87,5.55.56,3.16,1.31,6.19,2.48,10.8,1.36,5.45,2.82,11.09,4.19,15.57a88.29,88.29,0,0,0,4,10.73,33.42,33.42,0,0,0,4.07,7c1.71,2.23,4.21,4.9,6.41,7.26l.94,1c2.68,2.88,6,6.45,8.08,12a52.22,52.22,0,0,1,3,17.26,24.28,24.28,0,0,1-6.11,15.48,30.16,30.16,0,0,1-14.12,8.33c-1.21.32-2.54.6-4,.84a10,10,0,0,1-1.44.31,73.82,73.82,0,0,1-10.23.8h-1a34.8,34.8,0,0,1-13.29-2.56,27,27,0,0,1-10.74-8,30.82,30.82,0,0,1-5.8-12.72c-.19-.82-.37-1.72-.56-2.67a35.11,35.11,0,0,0-1.17-4.75c-.87-.8-2.7-2.13-4-3a59.25,59.25,0,0,1-5.58-4.41,26.59,26.59,0,0,1-6.75-10.09,36.26,36.26,0,0,1-7.75,7.44c-.46.33-.92.64-1.39.94l-.09.06a29.67,29.67,0,0,1-2.89,1.69,51.64,51.64,0,0,1-6.22,2.62l-.37.14c-.85.31-1.62.6-2.28.88-.08.19-.17.39-.25.56-.3.7-.62,1.41-1,2.13l-.67,1.35c-1.29,2.58-2.74,5.51-4.24,7.87a44.37,44.37,0,0,1-7.26,8.73,34.67,34.67,0,0,1-7.64,5.19,38.14,38.14,0,0,1-11.51,4.41l-.42.08a27.21,27.21,0,0,1-2.86.34c-2.56.22-5.6.27-8.54.33l-2.2,0c-1.1,0-4.57.13-6.23.38-.88.22-2.36,1.74-3.56,3-.44.46-.87.9-1.29,1.31a73.53,73.53,0,0,1-7.18,6.1A10.48,10.48,0,0,1,58.52,305,29.44,29.44,0,0,1,52.2,305.42Z"/>
      </g>
      <g>
        <path class="cls-2" d="M85.3,157.53c-4.6,0-10.54-.83-18.16-2.53l-.36-.08c-4.34-.89-8.92-4.68-11.12-9.2A11.53,11.53,0,0,1,58.29,132a20.1,20.1,0,0,1,4.77-3.13l.78-.4a14.56,14.56,0,0,1,7.23-1.66,69.67,69.67,0,0,1,10.79,1.3c1.56.26,3.2.53,4.88.78,10.42,1.56,15.61,7.56,17.13,9.65a10,10,0,0,1-3.7,15c-2.11,1-7.49,3.41-11.75,3.85a30.35,30.35,0,0,1-3.12.15Z"/>
        <path class="cls-3" d="M85.3,157.53c-4.6,0-10.54-.83-18.16-2.53l-.36-.08c-4.34-.89-8.92-4.68-11.12-9.2A11.53,11.53,0,0,1,58.29,132a20.1,20.1,0,0,1,4.77-3.13l.78-.4a14.56,14.56,0,0,1,7.23-1.66,69.67,69.67,0,0,1,10.79,1.3c1.56.26,3.2.53,4.88.78,10.42,1.56,15.61,7.56,17.13,9.65a10,10,0,0,1-3.7,15c-2.11,1-7.49,3.41-11.75,3.85a30.35,30.35,0,0,1-3.12.15Z"/>
      </g>
      <g>
        <path class="cls-2" d="M43.73,186H41.58c-4.35,0-9.46-2.67-12.45-6.5C28,178,22.53,170,32.7,161.71l.62-.51c4-3.45,9.37-3.69,16.86-4,1.47-.06,3-.13,4.59-.23.62,0,1.23,0,1.82,0,10,0,15.61,5.08,16.64,6.1a10,10,0,0,1-.92,15c-1.76,1.35-6.29,4.65-10.2,5.91-4.12,1.34-10.31,2-18.38,2Z"/>
        <path class="cls-3" d="M43.73,186H41.58c-4.35,0-9.46-2.67-12.45-6.5C28,178,22.53,170,32.7,161.71l.62-.51c4-3.45,9.37-3.69,16.86-4,1.47-.06,3-.13,4.59-.23.62,0,1.23,0,1.82,0,10,0,15.61,5.08,16.64,6.1a10,10,0,0,1-.92,15c-1.76,1.35-6.29,4.65-10.2,5.91-4.12,1.34-10.31,2-18.38,2Z"/>
      </g>
      <g>
        <path class="cls-2" d="M60.51,209.18a11.38,11.38,0,0,1-8.1-3.39c-3.47-3.48-5.49-8.91-4.93-13.21l0-.29c1-9.08,2.48-15.56,4.46-19.81,1.74-3.72,5.56-7.81,7.12-9.39a10,10,0,0,1,13.85-.37A9.68,9.68,0,0,1,74.13,164c1,1.28,5.78,8.18,3.75,19.06-.3,1.58-.56,3.13-.81,4.6-1.23,7.35-2.13,12.66-6,16.18l-.58.55c-1.74,1.67-5,4.78-9.95,4.78Z"/>
        <path class="cls-3" d="M60.51,209.18a11.38,11.38,0,0,1-8.1-3.39c-3.47-3.48-5.49-8.91-4.93-13.21l0-.29c1-9.08,2.48-15.56,4.46-19.81,1.74-3.72,5.56-7.81,7.12-9.39a10,10,0,0,1,13.85-.37A9.68,9.68,0,0,1,74.13,164c1,1.28,5.78,8.18,3.75,19.06-.3,1.58-.56,3.13-.81,4.6-1.23,7.35-2.13,12.66-6,16.18l-.58.55c-1.74,1.67-5,4.78-9.95,4.78Z"/>
      </g>
    </g>
    <g>
      <path class="cls-4" d="M193.12,93.14s-2.88,3.64-1.79,10,1.63,12.3,3.16,13.7,3,3.4,4.34,2.12a6.71,6.71,0,0,0,1.94-4.33c-.1-.9-.93-10.71-3.08-15.49-1-2.31-4.57-6-4.57-6Zm0,0"/>
      <path class="cls-4" d="M186.61,88.55s-3.71,2.78-4.28,9.2-1.57,12.31-.46,14,2.07,4.06,3.66,3.16a6.72,6.72,0,0,0,3-3.69c.13-.89,1.85-10.58,1-15.76-.42-2.5-2.9-7-2.9-7Zm0,0"/>
      <path class="cls-4" d="M182,81.75s-4.23,1.91-6.17,8.06-4.2,11.67-3.5,13.61,1.14,4.42,2.89,3.89a6.79,6.79,0,0,0,3.71-3c.32-.84,4.1-9.93,4.38-15.17.14-2.53-1.31-7.42-1.31-7.42Zm0,0"/>
      <path class="cls-4" d="M179.14,74.54s-4.6.61-8.23,5.93-7.4,10-7.28,12-.18,4.56,1.65,4.55a6.7,6.7,0,0,0,4.4-1.76c.55-.72,6.79-8.33,8.58-13.26.86-2.38.88-7.49.88-7.49Zm0,0"/>
      <path class="cls-5" d="M136.39,111.76c2-4,6.13-8.68,10.1-9.53s11.31-.37,15.48,1.34a23.75,23.75,0,0,1,10.76,9.59c2.72,4.42,5.23,11,6.73,15.4a85.5,85.5,0,0,1,3,11.11c.69,3.43,1.26,7.25,1.73,11.22s.88,8.24,1.6,12.71,1.77,9.23,2.56,13.76,1.37,9.26,2,12.75,1.42,6.71,2.62,11.47,2.8,11.06,4.32,16a96.2,96.2,0,0,0,4.44,11.91,43.15,43.15,0,0,0,5.25,9c2.28,3,5.44,6.28,8,9s4.68,5.14,6,8.71a42.81,42.81,0,0,1,2.42,13.38A14.44,14.44,0,0,1,220,278.7a20.56,20.56,0,0,1-9.35,5.45,53.8,53.8,0,0,1-13.52,1.34,25.05,25.05,0,0,1-9.61-1.77,17.06,17.06,0,0,1-6.86-5.07,21.15,21.15,0,0,1-3.84-8.72c-.83-3.52-1.45-9.08-3.86-11.66s-7.69-5.77-10.3-8.22a16.78,16.78,0,0,1-5-8.74,38.89,38.89,0,0,1-.66-11.56c.35-3.66,2.21-9.9.77-10.95s-4.53-2.6-7-4.48a19.26,19.26,0,0,1-5.44-6.55,24.8,24.8,0,0,1-2.53-7.93,21.85,21.85,0,0,1,.15-8.15c.57-1.85,1.59-3.71,2.86-6.64s2.63-6.62,2.47-9.29-3-5.79-5.51-8-5.42-4.54-7.5-7a25.6,25.6,0,0,1-4.58-8.21,14.32,14.32,0,0,1-.19-9.36c1.12-3.23,3.94-8.13,4.31-10.95s-1.38-5.36-1.45-8.54a27.92,27.92,0,0,1,3-11.85Zm0,0"/>
      <path class="cls-4" d="M176.65,64.82s-5.27-.38-10.54,4.74S155.58,79,155.24,81.32s-1.24,5.05.8,5.46a7.71,7.71,0,0,0,5.32-1c.77-.67,9.48-7.74,12.6-12.84,1.5-2.46,2.69-8.15,2.69-8.15Zm0,0"/>
      <path class="cls-6" d="M164.91,104.78a54.41,54.41,0,0,1,.12,11.94,16.75,16.75,0,0,1-2,6.41c-.82,1.45-2.07,3.09-3.07,4.54-1.89,2.74-3.52,5.49-4.75,7.64s-2,3.72-2.67,5.15a6,6,0,0,1,.4,1.2c-.11,0-.25.05-.93-.19.11-.24.4-.73.53-1-.05-.13-.08-.53-.18-.54s-.62.52-.79,1.79a1.07,1.07,0,0,0,.57.74,1.61,1.61,0,0,0,1.34,0c1.14-1.33,2.48-3,4.3-5.38,1.4-1.8,3.52-4.59,5.44-6.9a55,55,0,0,0,3.65-4.62,20.71,20.71,0,0,0,3.05-8.09,49.25,49.25,0,0,0,.2-7.82,24.65,24.65,0,0,0-5.23-4.82Zm0,0"/>
      <path class="cls-6" d="M156.56,102.58a32.09,32.09,0,0,0-10.43-.09c-4,.85-8.09,5.51-10.1,9.53a27.77,27.77,0,0,0-3,11.85c.07,3.18,1.82,5.73,1.45,8.54s-3.19,7.71-4.31,11a14.32,14.32,0,0,0,.19,9.36,25.57,25.57,0,0,0,4.57,8.21c2.09,2.49,5,4.79,7.5,7s5.36,5.37,5.52,8-1.2,6.38-2.47,9.31-2.29,4.78-2.86,6.63a21.85,21.85,0,0,0-.15,8.15A25.11,25.11,0,0,0,145,208a19.5,19.5,0,0,0,5.45,6.55c2.41,1.88,5.51,3.43,6.94,4.48s-.41,7.29-.77,10.95a39.22,39.22,0,0,0,.67,11.56,16.79,16.79,0,0,0,5,8.74c2.6,2.45,7.9,5.63,10.3,8.21s3,8.14,3.86,11.67a21.21,21.21,0,0,0,3.84,8.72,17.06,17.06,0,0,0,6.86,5.07,25.05,25.05,0,0,0,9.61,1.77,60.6,60.6,0,0,0,9.6-.68c-1.06-.09-2.21-.12-3.14-.3a20.22,20.22,0,0,1-4.31-1.27,19,19,0,0,1-3.72-2.08,16.33,16.33,0,0,1-3.13-3,36.08,36.08,0,0,0-3.69-3.41c-.82-1.35-3-3.47-3.42-5.23a16.58,16.58,0,0,1,0-6.18c.57-3.57,8.65-8.47,15.79-12.08-6.58,1.38-12.28,5-15.27,4.32s-4.2-.55-6.15-2a62.13,62.13,0,0,1-5.23-4,17,17,0,0,1-3.17-4,17.61,17.61,0,0,1-1.8-4.71,34.12,34.12,0,0,1-.75-5.68c-.12-2-1-3.15-.81-5s-.69-3.79-.36-5.94c.16-1.08.53-4.11,2-5.39s7.93-3.18,16.53-4.64c-1.44-1.05-19.84.48-22.69-1-1.35-.71-2.95-1.29-3.85-2.36a20.59,20.59,0,0,1-2.32-3.54,41.8,41.8,0,0,1-2.08-5.18c2.15-2,4.69-3.21,6.31-5.15,3.13-3.78,5.5-14.29,5.93-16.48a11.93,11.93,0,0,0,.52-3.21c1.39-1.71,7.59-1.24,11.09-2.89-5.13.15-9.4.09-11-3.69.28-2.19.1-3.12.47-7.48,1.57-5.34,2-7,1.78-12.37-.06-1.62-1.42-6.52-2.57-7.94-1-1.23-2.18-3.81-6.16-5.55-6.8-3-3.47-1.69-6.5-2.41a27.2,27.2,0,0,0-6.82-.34c-1.71.05-1.2.13-2.11-.31a10.32,10.32,0,0,0,.52-4.69,16.21,16.21,0,0,0-.5-2.06,16.76,16.76,0,0,1-.88-4.41,22.87,22.87,0,0,1,.71-5.61,30.06,30.06,0,0,1,2.27-6.24,24.16,24.16,0,0,1,4.31-6,16.09,16.09,0,0,1,2.82-2.29,9,9,0,0,1,1.63-.71Zm0,0"/>
      <path class="cls-7" d="M153.56,137.32c-4-.37-13-.69-16.46-.19s-6.09,2.82-8.19,4.79a39.64,39.64,0,0,0-5.15,5.54,28.79,28.79,0,0,0-3.38,5.73c-1.07,2.26-1.86,4.13-2.74,6.37s-1.1,2.84-2.21,5.75-2.49,6.42-3.55,9.67-1.94,6.69-2.88,9.72-2,5.82-3.16,8.66-2.64,5.9-3.56,8.42-2.24,6.81-3.1,9a73.16,73.16,0,0,1-3.32,7,58.52,58.52,0,0,1-4.16,7A83.75,83.75,0,0,1,84.32,234a66.83,66.83,0,0,1-7,6c-2.26,1.72-4.63,3.45-6.73,4.85a82.9,82.9,0,0,1-8.83,5.23c-3,1.46-6.4,2.71-8.44,3.57A35.36,35.36,0,0,1,45,256.55c-3.73.7-9.32,1-13.76,2.21s-8.8,3.73-10.49,5.69-2.06,2.93-2.78,5.81A33.74,33.74,0,0,0,17,280.9c.38,3.31,2.1,7.25,4.26,9s5.26,3.35,11.25,4.36,23.22,1.53,24,.9a64.7,64.7,0,0,0,6.2-5.25c2.55-2.51,5.47-6.21,10.23-7s16.32-.45,19.92-1.1a28.47,28.47,0,0,0,8.72-3.4,25.27,25.27,0,0,0,5.7-3.82,36.11,36.11,0,0,0,5.54-6.65A64.63,64.63,0,0,0,117,260c1.17-2.6,2.41-5.69,4.91-7.12s6-2.08,10-4.14a25.07,25.07,0,0,0,9.79-9.18,26.5,26.5,0,0,0,3.73-13.09c.11-4.7-.93-9.36-1.32-13.12s-.1-6.25,1.37-8,4.22-2.86,6.8-4.28a21,21,0,0,0,6.95-5.62c2-2.63,3.59-6.64,4.49-10.83a93.72,93.72,0,0,0,1.45-12.85,39.17,39.17,0,0,1,.65-6.84c.52-2.51,1.58-5.75,1.76-9.55a20.3,20.3,0,0,0-1.83-10.16,13.34,13.34,0,0,0-5.62-5.91c-1.86-1.18-2.64-1.66-6.66-2Zm0,0"/>
      <path class="cls-4" d="M174.82,54.77s-5-1.51-11.19,2.26-12.2,6.8-13,9-2.29,4.59-.42,5.43a7.6,7.6,0,0,0,5.34.22c.89-.47,10.82-5.39,14.94-9.62,2-2,4.37-7.26,4.37-7.26Zm0,0"/>
      <path class="cls-4" d="M173.12,45.73s-4.9-2.25-11.77.74-13.44,5.22-14.61,7.32-3,4.38-1.2,5.5a7.79,7.79,0,0,0,5.43,1c1-.36,11.84-4,16.65-7.72,2.32-1.81,5.5-6.82,5.5-6.82Zm0,0"/>
      <path class="cls-8" d="M155.26,70.38c.42.21-.15,2.08-1.15,5a28.3,28.3,0,0,0-1.39,5.65,70,70,0,0,0-.36,7.45c0,.53,0,1,0,1.57-.11,4.1-.22,7.29-.61,10.41a15.55,15.55,0,0,1-1,4.19,7.39,7.39,0,0,1-.79,1.44c-.58.8-1.08,1.07-1.24,1s-.07-.65.11-1.51c.09-.43.15-.79.24-1.4a24.62,24.62,0,0,0,.12-3.84c0-2.11-.15-7.13-.11-10.33,0-.51,0-1,0-1.57a45.55,45.55,0,0,1,.68-7.86,20.84,20.84,0,0,1,2.32-6.09c1.56-2.79,2.84-4.3,3.19-4.13Zm0,0"/>
      <path class="cls-4" d="M170.49,37.46s-5.3-2.35-12.63,1-14.35,5.81-15.57,8.09-3.15,4.74-1.2,5.92a8.4,8.4,0,0,0,5.84,1c1-.4,12.65-4.46,17.75-8.56,2.47-2,5.81-7.4,5.81-7.4Zm0,0"/>
      <path class="cls-9" d="M168,15.43c-.28.25-1.88.12-2.16.37-3.06,2.72-7.08,6.3-10.57,9.6-1.78,1.69-3.55,3.41-5.13,5.07a55.37,55.37,0,0,0-3.89,4.45,27.23,27.23,0,0,0-4.08,7.26,37.85,37.85,0,0,0-1.55,6.28c-.71,3.8-1.47,7.78-2.48,12.17-.95,4.17-2.11,8.62-3.52,13.62-1.36,4.8-2.9,10-4.75,15.86A133.62,133.62,0,0,1,123.28,108a101,101,0,0,1-9.92,15.84c-3.76,5.13-7.55,9.93-11.22,14.32a142.78,142.78,0,0,1-11,11.92,142.61,142.61,0,0,1-11.09,9.31c-4.8,3.74-10.33,8-13.85,10.69L80.12,159.5c3.84-2.94,7.35-5.61,11.23-9.18a139.54,139.54,0,0,0,11.19-11.8c3.73-4.34,7.59-9.1,11.43-14.19a101.29,101.29,0,0,0,10.24-15.85,135.8,135.8,0,0,0,6.93-18c1.93-5.89,3.56-11,5-15.82,1.51-5,2.76-9.45,3.8-13.64,1.09-4.42,1.93-8.39,2.71-12.2a36.48,36.48,0,0,1,1.56-5.92,25.43,25.43,0,0,1,3.84-6.65A53.79,53.79,0,0,1,151.8,32c1.55-1.61,3.3-3.31,5.07-5,3.46-3.25,7.49-6.83,10.54-9.54.28-.24.34-1.85.62-2.1Zm0,0"/>
      <path class="cls-8" d="M168,15.43c-.28.25-1.88.12-2.16.37-3.06,2.72-7.08,6.3-10.57,9.6-1.78,1.69-3.55,3.41-5.13,5.07a55.37,55.37,0,0,0-3.89,4.45,27.23,27.23,0,0,0-4.08,7.26,37.85,37.85,0,0,0-1.55,6.28c-.71,3.8-1.47,7.78-2.48,12.17-.95,4.17-2.11,8.62-3.52,13.62-1.36,4.8-2.9,10-4.75,15.86A133.62,133.62,0,0,1,123.28,108a101,101,0,0,1-9.92,15.84c-3.76,5.13-7.55,9.93-11.22,14.32a142.78,142.78,0,0,1-11,11.92,142.61,142.61,0,0,1-11.09,9.31c-4.8,3.74-10.33,8-13.85,10.69L80.12,159.5c3.84-2.94,7.35-5.61,11.23-9.18a139.54,139.54,0,0,0,11.19-11.8c3.73-4.34,7.59-9.1,11.43-14.19a101.29,101.29,0,0,0,10.24-15.85,135.8,135.8,0,0,0,6.93-18c1.93-5.89,3.56-11,5-15.82,1.51-5,2.76-9.45,3.8-13.64,1.09-4.42,1.93-8.39,2.71-12.2a36.48,36.48,0,0,1,1.56-5.92,25.43,25.43,0,0,1,3.84-6.65A53.79,53.79,0,0,1,151.8,32c1.55-1.61,3.3-3.31,5.07-5,3.46-3.25,7.49-6.83,10.54-9.54.28-.24.34-1.85.62-2.1Zm0,0"/>
      <path class="cls-8" d="M156.8,25.6c.19.09.14,1.78.33,1.86a59.44,59.44,0,0,1,5.77,2.83,16.2,16.2,0,0,1,2.81,2.22,19,19,0,0,1,2.73,3.35,34.49,34.49,0,0,1,4.31,11.2c.94,4.6,1.32,10.78,3,17.77a95.3,95.3,0,0,0,3.77,11.94c.81,2,1.66,4,2.54,5.71a25.16,25.16,0,0,0,2.72,4.37,26.4,26.4,0,0,0,14.33,8.66c5.62,1.26,13.25,1.18,17.07,1.22-3.91,0-11.38-.06-17-1.49a25.79,25.79,0,0,1-13.8-8.86,26.16,26.16,0,0,1-2.52-4.3c-.82-1.7-1.62-3.63-2.37-5.68A88.92,88.92,0,0,1,177,64.55c-1.46-6.92-1.64-13-2.43-17.83a38,38,0,0,0-4.08-12.1,21.39,21.39,0,0,0-2.88-4,19.44,19.44,0,0,0-3.16-2.79,40.59,40.59,0,0,0-6.07-3.24c-.2-.09-1.42,1.07-1.61,1Zm0,0"/>
      <path class="cls-4" d="M171.48,37.55s3.44-5.44,12.26-6.91,16.85-3.52,19.38-2.17,5.85,2.43,4.77,4.72-3.58,4.25-4.79,4.52-14.43,3.7-21.68,3.08c-3.5-.3-9.94-3.24-9.94-3.24Zm0,0"/>
      <path class="cls-4" d="M173.86,45.42s4-4.81,12.66-5.13,16.64-1.29,18.91.32,5.33,3.07,4,5.14a9,9,0,0,1-5.18,3.75c-1.2.12-14.34,1.77-21.24.27-3.33-.72-9.16-4.35-9.16-4.35Zm0,0"/>
      <path class="cls-4" d="M174.83,54.73s4-4.81,12.66-5.13,16.64-1.28,18.91.33,5.33,3.06,4,5.13a9.07,9.07,0,0,1-5.18,3.76c-1.2.11-14.34,1.77-21.24.26-3.33-.72-9.16-4.35-9.16-4.35Zm0,0"/>
      <path class="cls-4" d="M176.67,64.81s3.7-4.46,11.75-4.77,15.45-1.19,17.55.31,4.95,2.84,3.72,4.77a8.38,8.38,0,0,1-4.8,3.48c-1.12.11-13.32,1.65-19.72.25-3.09-.67-8.51-4-8.51-4Zm0,0"/>
      <path class="cls-4" d="M179.14,74.54s3-4.37,10.26-5.34,13.95-2.41,16-1.23,4.73,2.15,3.79,4a7.63,7.63,0,0,1-4.07,3.58c-1,.19-12,2.64-17.91,1.93-2.87-.35-8.08-2.95-8.08-2.95Zm0,0"/>
      <path class="cls-4" d="M182,81.74s2.83-4.16,9.78-5.08,13.29-2.3,15.23-1.18,4.51,2.06,3.61,3.83a7.25,7.25,0,0,1-3.87,3.41c-1,.18-11.4,2.51-17.06,1.84-2.73-.34-7.7-2.81-7.7-2.81Zm0,0"/>
      <path class="cls-4" d="M186.61,88.54s2.62-3.83,9-4.68,12.22-2.11,14-1.08,4.15,1.89,3.32,3.52a6.72,6.72,0,0,1-3.57,3.14c-.88.17-10.49,2.31-15.7,1.69-2.51-.31-7.08-2.59-7.08-2.59Zm0,0"/>
      <path class="cls-4" d="M193.12,93.14s3-3.53,9.45-3.68,12.39-.79,14.06.43,3.92,2.33,2.92,3.86a6.71,6.71,0,0,1-3.88,2.73c-.9.07-10.68,1.18-15.79,0-2.47-.57-6.76-3.33-6.76-3.33Zm0,0"/>
      <path class="cls-4" d="M138.59,61.33s-3.54-4.59-11.56-5.18-15.39-1.74-17.55-.32-5,2.66-3.88,4.62a8.43,8.43,0,0,0,4.67,3.66c1.11.14,13.24,2.12,19.68,1,3.11-.56,8.64-3.73,8.64-3.73Zm0,0"/>
      <path class="cls-4" d="M136.08,71.84s-3.59-4.55-11.62-5-15.41-1.57-17.54-.13-5,2.72-3.84,4.67a8.41,8.41,0,0,0,4.71,3.6c1.12.13,13.26,2,19.7.74,3.1-.6,8.59-3.82,8.59-3.82Zm0,0"/>
      <path class="cls-4" d="M132.78,82.26s-3.58-4.55-11.61-5-15.41-1.57-17.55-.14-5,2.72-3.83,4.68a8.38,8.38,0,0,0,4.71,3.59c1.11.14,13.26,2,19.69.74,3.11-.59,8.6-3.82,8.6-3.82Zm0,0"/>
      <path class="cls-4" d="M129.35,92.84s-3.59-4.54-11.62-5-15.4-1.57-17.54-.13-5,2.71-3.83,4.66a8.33,8.33,0,0,0,4.71,3.6c1.11.13,13.26,2,19.68.74,3.11-.59,8.6-3.83,8.6-3.83Zm0,0"/>
      <path class="cls-4" d="M125.64,103.42s-3.58-4.54-11.61-5-15.41-1.58-17.55-.14-5,2.72-3.84,4.67a8.42,8.42,0,0,0,4.72,3.61c1.11.13,13.25,2,19.68.74,3.11-.6,8.6-3.84,8.6-3.84Zm0,0"/>
      <path class="cls-4" d="M120.42,114.69s-3.18-4.84-11.14-6-15.22-2.9-17.47-1.64-5.22,2.27-4.22,4.32a8.38,8.38,0,0,0,4.38,4c1.1.23,13,3.1,19.56,2.43,3.14-.33,8.89-3.08,8.89-3.08Zm0,0"/>
      <path class="cls-4" d="M112.74,125.12s-3.18-4.84-11.14-6-15.21-2.89-17.47-1.64-5.22,2.28-4.22,4.32a8.4,8.4,0,0,0,4.39,4c1.09.23,13,3.1,19.55,2.43,3.15-.33,8.89-3.08,8.89-3.08Zm0,0"/>
      <path class="cls-4" d="M105.33,134.9s-3-4.6-10.59-5.72-14.46-2.75-16.6-1.56-5,2.16-4,4.11a7.94,7.94,0,0,0,4.16,3.79c1,.21,12.4,2.95,18.59,2.3,3-.3,8.45-2.92,8.45-2.92Zm0,0"/>
      <path class="cls-4" d="M95.85,144.51s-3-4.6-10.59-5.73S70.8,136,68.66,137.23s-5,2.16-4,4.11a8,8,0,0,0,4.16,3.79c1,.21,12.4,3,18.59,2.3,3-.3,8.45-2.92,8.45-2.92Zm0,0"/>
      <path class="cls-4" d="M86.72,154.05s-2.83-4.31-9.92-5.37-13.55-2.57-15.55-1.45-4.65,2-3.76,3.85a7.46,7.46,0,0,0,3.9,3.55c1,.2,11.62,2.76,17.41,2.16,2.8-.29,7.92-2.74,7.92-2.74Zm0,0"/>
      <path class="cls-4" d="M76.61,162.15s-2.84-4.31-9.92-5.36-13.54-2.57-15.56-1.46-4.65,2-3.75,3.85a7.49,7.49,0,0,0,3.9,3.55c1,.2,11.61,2.76,17.41,2.16,2.8-.29,7.92-2.74,7.92-2.74Zm0,0"/>
      <path class="cls-4" d="M66.21,170.11s-3.67-3.62-10.82-3.17-13.79.3-15.52,1.81S35.75,171.7,37,173.3A7.49,7.49,0,0,0,41.56,176c1,0,11.93.28,17.47-1.52,2.69-.87,7.18-4.33,7.18-4.33Zm0,0"/>
      <path class="cls-4" d="M132.79,82.27s5.78.35,10.77,6.66,10.08,11.76,10.12,14.34.62,5.66-1.65,5.81a8.39,8.39,0,0,1-5.64-1.82c-.75-.84-9.19-9.77-11.84-15.75-1.29-2.89-1.76-9.24-1.76-9.24Zm0,0"/>
      <path class="cls-4" d="M129.35,92.84s5.46,1.91,8.55,9.34,6.5,14.06,5.84,16.55-.94,5.62-3.17,5.14a8.4,8.4,0,0,1-4.94-3.28c-.49-1-6.18-11.89-7.11-18.38-.45-3.13.83-9.37.83-9.37Zm0,0"/>
      <path class="cls-4" d="M125.64,103.42s5.24,2.45,7.57,10.15,5.06,14.64,4.15,17.05-1.5,5.5-3.67,4.8a8.37,8.37,0,0,1-4.58-3.76c-.38-1-5-12.46-5.23-19-.13-3.17,1.76-9.25,1.76-9.25Zm0,0"/>
      <path class="cls-4" d="M120.42,114.69s4.69,3.42,5.49,11.42,2.15,15.34.79,17.53-2.52,5.11-4.52,4a8.43,8.43,0,0,1-3.77-4.57c-.18-1.11-2.47-13.18-1.49-19.65.48-3.13,3.5-8.74,3.5-8.74Zm0,0"/>
      <path class="cls-4" d="M112.75,125.12s4.68,3.42,5.48,11.42,2.16,15.34.8,17.53-2.52,5.11-4.52,4a8.35,8.35,0,0,1-3.77-4.57c-.18-1.11-2.48-13.18-1.5-19.65.48-3.13,3.5-8.74,3.5-8.74Zm0,0"/>
      <path class="cls-4" d="M105.33,134.91s4.45,3.24,5.22,10.84,2,14.58.75,16.67-2.39,4.85-4.29,3.8a7.94,7.94,0,0,1-3.59-4.34c-.17-1-2.35-12.53-1.41-18.68.45-3,3.32-8.3,3.32-8.3Zm0,0"/>
      <path class="cls-4" d="M95.85,144.52s4.45,3.23,5.22,10.84,2,14.58.75,16.66-2.39,4.86-4.29,3.81a7.94,7.94,0,0,1-3.59-4.34c-.17-1.06-2.36-12.52-1.42-18.68.46-3,3.33-8.3,3.33-8.3Zm0,0"/>
      <path class="cls-4" d="M86.72,154.05s4.16,3,4.88,10.16,1.92,13.65.71,15.61-2.25,4.54-4,3.57a7.52,7.52,0,0,1-3.37-4.08c-.15-1-2.2-11.72-1.32-17.49.42-2.78,3.12-7.77,3.12-7.77Zm0,0"/>
      <path class="cls-4" d="M76.61,162.15s3.94,3.32,4.16,10.48,1,13.75-.37,15.61-2.56,4.39-4.27,3.28a7.47,7.47,0,0,1-3.07-4.29c-.08-1-1.38-11.85-.11-17.54.62-2.75,3.65-7.54,3.65-7.54Zm0,0"/>
      <path class="cls-4" d="M66.21,170.12s3.15,4.08,1.84,11.12-2,13.64-3.7,15.18-3.44,3.73-4.87,2.29a7.46,7.46,0,0,1-2.08-4.85c.12-1,1.18-11.87,3.64-17.16,1.19-2.55,5.17-6.59,5.17-6.59Zm0,0"/>
      <path class="cls-5" d="M17.2,282.24a13.61,13.61,0,0,0,4.23,7.93c2.17,1.74,5.29,3.16,11.29,4.17s23.27,1.38,24.1.75a65,65,0,0,0,6.2-5.25c2.55-2.51,5.47-6.21,10.23-7s15.32-.26,19.92-1.1a28.51,28.51,0,0,0,8.71-3.4,25.11,25.11,0,0,0,5.71-3.82,34.44,34.44,0,0,0,5.52-6.68c1.46-2.29,3.07-5.68,4.4-8.32s1.85-5.21,4.71-6.69,6.24-2.23,10.33-4.4a25.59,25.59,0,0,0,9.89-9.52,26.4,26.4,0,0,0,3.39-13.14c0-4.69-1.06-9.24-1.33-13-.67-4,.27-6.24,2.1-8s5.44-3.22,8.31-5.17a20,20,0,0,0,7.92-10.83,100.64,100.64,0,0,0,2.62-16.31,45.81,45.81,0,0,1,.7-7.55c.52-2.51,1.58-5.74,1.76-9.55a20.17,20.17,0,0,0-1.87-10.2,14.17,14.17,0,0,0-5.86-6c-2.16-1.95-4.15-2.24-9.9-2.34-3.51.34-6.19,1-5.4,5.08.8,2.15,7.87-4.6,12.14-2.25a14.93,14.93,0,0,1,5.36,5.36c1.39,2.65,2.51,6.1,1.65,8.82-.51,1.56-1.34,6.86-2.89,8.58-1.71,1.92-10.6-.76-16.24-1.8,6.6,2.9,14.56,5,14.39,9.49-.35,3.27-2.51,8.79-3.15,10.95a12.27,12.27,0,0,1-1.49,3.16,22.36,22.36,0,0,1-2.27,2.89,29.18,29.18,0,0,1-5,4.26c-1.45,1-3,1.84-4.4,2.68s-2.23.59-4.79.49c-1.64-.06-17.73-5.67-18-5.13s11.44,3.67,13.79,6.84c1.6,2.14,4,4,4.78,7.86.38,1.85-.44,3.9-.69,6.58a47.46,47.46,0,0,1,.56,6.84,27.71,27.71,0,0,1-.86,6.88,24.36,24.36,0,0,1-2.52,6.27A25.85,25.85,0,0,1,131,236a26.26,26.26,0,0,1-2.68,2.26,24.06,24.06,0,0,1-3,1.86,55.12,55.12,0,0,1-5.44,2.46c-1.62.66-3.08,1.08-6.49.67-6.09-.73-14.82-7.88-15.6-6.8,7.7,5.93,10.3,9.53,10.19,14.15-.07,3-.64,6.64-2.1,8.93a39.78,39.78,0,0,1-2.55,3.52,30.29,30.29,0,0,1-3,3.17,21.08,21.08,0,0,1-2.77,2.13c-.89.57-1.82,1.07-2.94,1.68s-2.4,1.3-3.85,1.92A22.16,22.16,0,0,1,86,273.47a84.48,84.48,0,0,1-9.53.49c-3.94.09-6.11.07-8.7.19-4.07.19-7.36-10.88-10.65-12.19-.25,2.07,5.1,6.8,1.89,15.15-2,4.22-5.6,6.9-9.37,9.75-.41.32-4.92.34-10.08.16a133.08,133.08,0,0,1-14-1.07c-3-.5-5.39-.91-7.06-1.9-.78-.46-1.14-1.74-1.31-1.81Zm0,0"/>
      <path class="cls-8" d="M147.27,140.88c-.46-.24.1-3.24,2.41-8a63.38,63.38,0,0,1,4.43-7.65c1-1.44,2.18-3.1,3-4.53a16.3,16.3,0,0,0,1.85-6.25,55.49,55.49,0,0,0-.2-13A94.42,94.42,0,0,0,156.61,91c-.32-1.31-.63-2.59-.94-3.9A85.82,85.82,0,0,1,153,69.69c-.1-3.64.15-7.91.21-10.78-.06-3.63.41-5.82-.51-7.77-1.36-3.43-5.44-7.18-6.64-8.46a15.51,15.51,0,0,1-1.84-2.22c0-.54,1.31-.46,3.08.51a22.43,22.43,0,0,1,9.4,8.11c1.7,3.17,1.86,6.44,1.95,9.71s.2,7,.49,10.57a101.3,101.3,0,0,0,3,16.14c.32,1.26.65,2.58,1,3.89a86.8,86.8,0,0,1,2.11,11.35,53.8,53.8,0,0,1-.4,14.59,21,21,0,0,1-3.19,8.24,52.17,52.17,0,0,1-3.69,4.57c-2.1,2.46-3.85,4.7-5.29,6.59-3,4-4.69,6.5-5.36,6.15Zm0,0"/>
      <path class="cls-4" d="M138.59,61.33s5.7-1,12,4,12.52,9.1,13.15,11.61,1.91,5.36-.27,6a8.44,8.44,0,0,1-5.91-.47c-.91-.65-11.18-7.38-15.15-12.59-1.92-2.52-3.85-8.59-3.85-8.59Zm0,0"/>
      <path class="cls-4" d="M136.08,71.84s5.71-.93,12,4.13,12.42,9.24,13,11.76,1.85,5.38-.33,6a8.48,8.48,0,0,1-5.91-.53c-.91-.66-11.11-7.51-15-12.76-1.88-2.54-3.75-8.63-3.75-8.63Zm0,0"/>
    </g>
  </g>
</svg>
