<svg id="Layer_1" data-name="Layer 1" xmlns="http://www.w3.org/2000/svg" xmlns:xlink="http://www.w3.org/1999/xlink" width="346.47" height="363.62" viewBox="0 0 346.47 363.62">
  <defs>
    <style>
      .cls-1, .cls-37 {
        fill: none;
      }

      .cls-1 {
        stroke: #fff;
        stroke-width: 10px;
      }

      .cls-1, .cls-2 {
        stroke-linejoin: round;
      }

      .cls-2 {
        fill: #ffff5a;
        stroke: #fffa4d;
        stroke-width: 20px;
      }

      .cls-10, .cls-11, .cls-12, .cls-13, .cls-15, .cls-16, .cls-17, .cls-18, .cls-19, .cls-2, .cls-20, .cls-21, .cls-23, .cls-24, .cls-25, .cls-26, .cls-27, .cls-28, .cls-29, .cls-30, .cls-31, .cls-32, .cls-4, .cls-5, .cls-6, .cls-7, .cls-8, .cls-9 {
        fill-rule: evenodd;
      }

      .cls-3 {
        opacity: 0.2;
      }

      .cls-4 {
        fill: #21110e;
      }

      .cls-5 {
        fill: #ff6a14;
      }

      .cls-6 {
        fill: #eb4600;
      }

      .cls-7 {
        fill: #f54f08;
      }

      .cls-8 {
        fill: #d64000;
      }

      .cls-9 {
        fill: #e02d00;
      }

      .cls-10, .cls-12, .cls-14 {
        fill: #ce7432;
      }

      .cls-11 {
        fill: #bc652a;
      }

      .cls-12, .cls-20 {
        stroke: #472411;
        stroke-miterlimit: 10;
      }

      .cls-13 {
        fill: #a63200;
      }

      .cls-15 {
        fill: #d88145;
      }

      .cls-16 {
        fill: #d46e1a;
      }

      .cls-17 {
        fill: #852d08;
      }

      .cls-18 {
        fill: #a14310;
      }

      .cls-19 {
        fill: #993d0c;
      }

      .cls-20 {
        fill: #ba5d11;
      }

      .cls-21 {
        fill: #913109;
      }

      .cls-22 {
        fill: #9e240b;
      }

      .cls-23 {
        fill: #331c17;
      }

      .cls-24 {
        fill: #241512;
      }

      .cls-25 {
        fill: #331d18;
      }

      .cls-26 {
        fill: #a3541f;
      }

      .cls-27 {
        fill: #54190a;
      }

      .cls-28 {
        fill: #d96b11;
      }

      .cls-29 {
        fill: #c42100;
      }

      .cls-30 {
        fill: #6b4913;
      }

      .cls-31 {
        fill: #8f3a15;
      }

      .cls-32 {
        fill: #942c00;
      }

      .cls-33 {
        clip-path: url(#clip-path);
      }

      .cls-34 {
        fill: url(#linear-gradient);
      }

      .cls-35 {
        fill: url(#linear-gradient-2);
      }

      .cls-36 {
        fill: url(#linear-gradient-3);
      }
    </style>
    <clipPath id="clip-path">
      <rect class="cls-1" x="655" y="14.47" width="276.93" height="257.81"/>
    </clipPath>
    <linearGradient id="linear-gradient" x1="383.42" y1="279.29" x2="1016.9" y2="28.43" gradientUnits="userSpaceOnUse">
      <stop offset="0.04" stop-color="#6ec0d3"/>
      <stop offset="0.34" stop-color="#67b8c7"/>
      <stop offset="0.5" stop-color="#62b2bf"/>
      <stop offset="0.78" stop-color="#63b3c1"/>
      <stop offset="0.88" stop-color="#67b8c8"/>
      <stop offset="0.95" stop-color="#6ebfd3"/>
      <stop offset="1" stop-color="#78c9e3"/>
    </linearGradient>
    <linearGradient id="linear-gradient-2" x1="532.47" y1="-136.55" x2="517.26" y2="344.41" gradientUnits="userSpaceOnUse">
      <stop offset="0.09" stop-color="#60c6ca"/>
      <stop offset="0.24" stop-color="#59bfc1"/>
      <stop offset="0.55" stop-color="#57bfbf"/>
      <stop offset="0.64" stop-color="#5fc3c6"/>
      <stop offset="0.7" stop-color="#67c7cc"/>
    </linearGradient>
    <linearGradient id="linear-gradient-3" x1="428.12" y1="318.16" x2="790.64" y2="83.44" gradientUnits="userSpaceOnUse">
      <stop offset="0.09" stop-color="#249971"/>
      <stop offset="0.29" stop-color="#21a57d"/>
      <stop offset="0.45" stop-color="#1db28a"/>
      <stop offset="0.64" stop-color="#1fb38c"/>
      <stop offset="0.71" stop-color="#26b692"/>
      <stop offset="0.73" stop-color="#29b895"/>
    </linearGradient>
  </defs>
  <g>
    <path class="cls-2" d="M304.26,330.44q3.19-19,.34-22.64c-3.44-5.31-9.14-14.29-11.73-18.38,1.43.55,2.21,1.32,1.65,2.4,1.83-.78,2.27-4.56-3.8-5.85l-.54-.92a1.25,1.25,0,1,0-.1-2.48,1.53,1.53,0,0,0-.83.24c-.41-1.08-1-2.6-1.7-4.43a1.46,1.46,0,0,0,.53-.1,1.34,1.34,0,0,0,1-1.65,1.45,1.45,0,0,0-1.87-.68,1.56,1.56,0,0,0-.47.27c-.4-1-.82-2.11-1.27-3.25a1.26,1.26,0,0,0,.45-1.58,1.32,1.32,0,0,0-1.31-.61c-3.73-9.46-8.7-21.71-12.55-29.93h0c-.65-1.46-1.29-2.74-1.89-3.88a25.22,25.22,0,0,0-2.86-4.69l-.42-.45a12.56,12.56,0,0,0-2.29-2.41h0c-4-4.25-8-8.4-9.38-12.52-1.61-4.65-10.77-46.79-17.21-59.45,0-.92.05-4.79,0-10.9-.12-13.64-14.26-8.34-17.16-21.51L209.2,72.41c.27-1.69.49-3.36.63-5,.77-9.12-7.54-16.84-10.85-19.52h.64a1.35,1.35,0,0,0,0-2.69h-1.7V41.69a6.21,6.21,0,0,0-4-5.81A11.42,11.42,0,0,0,182.5,25.1h-3.13q-3.94-4,4.58-6.37,5.93-4.87-3.07-7.67,6,4.56-6.13,6.9c-4.2,1.8-5,4.18-2.41,7.14h-3A11.44,11.44,0,0,0,158,35.75a6.24,6.24,0,0,0-4.41,5.94v3.53h-.94a1.34,1.34,0,0,0-.32,2.64c-3.27,2.65-11.68,10.4-10.91,19.57.17,2,.47,4.1.85,6.2l-11.36,51.48c-2.9,13.17-17,7.87-17.17,21.51-.06,6.42,0,10.36,0,11-6.43,13.23-15.37,54.36-17,59-1.42,4.11-5.34,8.27-9.39,12.51a13.64,13.64,0,0,0-2.28,2.42l-.42.45a24.28,24.28,0,0,0-2.85,4.68c-.61,1.13-1.25,2.42-1.9,3.88h0c-3.86,8.23-8.82,20.47-12.55,29.93a1.29,1.29,0,0,0-1.31.6,1.26,1.26,0,0,0,.45,1.59l-1.27,3.24a1.48,1.48,0,0,0-.48-.26,1.44,1.44,0,0,0-1.86.67,1.34,1.34,0,0,0,1,1.66,2,2,0,0,0,.53.1c-.71,1.83-1.29,3.34-1.7,4.42a1.52,1.52,0,0,0-.83-.23,1.34,1.34,0,0,0-1.43,1.24,1.33,1.33,0,0,0,1.33,1.23l-.55.94c-5.93,1.29-5.46,5-3.69,5.88-2.88,4.53-7.25,11.41-10.11,15.83l-.07.11q-2.85,3.58.3,22.4C25.14,332.11,11.6,334.94,11.6,338c0,7.14,72.63,13,161.68,13S335,345.17,335,338C335,335.2,323.55,332.58,304.26,330.44Zm-33-51.54c-2.65-1.13-5.23-2.18-7.57-3.11-.11-.38-.22-.78-.34-1.19l.15-.07-.16,0c-.31-1.09-.67-2.27-1.06-3.58a9.13,9.13,0,0,0,.37-2.08c2.95,3.23,6,6.48,8.62,9.34A1.47,1.47,0,0,0,271.22,278.9ZM89.37,268.58a8.7,8.7,0,0,0,.37,2.08c-.33,1.1-.64,2.11-.91,3h0q-.49,1.67-.84,3c-3.12,1.22-6.52,2.61-9.88,4.07l0,0,1.06-1.14a1.53,1.53,0,0,0,1.5-.74,1.26,1.26,0,0,0,.1-1C83.4,275.06,86.42,271.8,89.37,268.58ZM258.15,264a23.11,23.11,0,0,0-8.58.74,3.74,3.74,0,0,0-1-.65c-3-1.22-20.88-5.31-20.88-5.31s.86-2.85.86-9.38a4.15,4.15,0,0,0-.24-1.37v0h0c-1.4-4-8.51-6.18-12.3-7.08V225.82c0-4.32.84-11.89,8.32-23.42h0c3.43,5.2,10.91,17.21,13,25.9,2.7,11.39,8,19.51,11.55,24.77C250,254.78,253.69,259,258.15,264ZM114.7,228c2.11-8.87,9.06-20.39,12-25.06,7.18,11.24,8,18.65,8,22.92V242c-4.2,1.36-9.16,3.77-9.16,7.54,0,6.53.85,9.39.85,9.39s-17.9,4.08-20.88,5.3a3.76,3.76,0,0,0-1.1.73c-4.72-1.32-8.19-1.65-10.61-1.26,4.46-4.95,8.17-9.21,9.33-10.94C106.69,247.48,112,239.35,114.7,228ZM65.53,328.13l.45.21-.52,0A2.33,2.33,0,0,0,65.53,328.13ZM59,289.26l-1.42,2.23C57.16,290.52,57.79,289.79,59,289.26Z"/>
    <g>
      <g class="cls-3">
        <ellipse cx="173.28" cy="338.03" rx="161.67" ry="12.97"/>
      </g>
      <path class="cls-4" d="M202.52,63.49l6.18,6.65L220.81,125c2.9,13.17,17,7.87,17.16,21.51.07,7,0,11.12,0,11.12H176.78v.07h-63s-.06-4.06,0-11.12c.13-13.64,14.27-8.34,17.17-21.51L143,70.21l6.18-6.65,26.54,8.2Z"/>
      <path class="cls-5" d="M140.48,240.53s-14.91,2.45-14.91,9,.85,9.39.85,9.39-17.9,4.08-20.88,5.3-4.69,7.76-4.69,7.76S64.21,284.61,59.1,292,54,318.08,62.51,326.24s86.91,20.41,92,19.59,27.69-.81,27.69-.81v0c6.66.1,14.55.3,17.32.74,5.12.82,83.51-11.43,92-19.59s7.55-26.87,2.44-34.22-40.79-20.06-40.79-20.06-1.71-6.54-4.69-7.76-20.88-5.31-20.88-5.31.86-2.85.86-9.38-14.92-9-14.92-9l-36.83,8.42Z"/>
      <path class="cls-6" d="M170.39,312.35s48.84,15.57,64.84,17.73,21-2.81,20.32-5.62-10.16-11.24-5.19-11.46,19,8.22,20.75,6.7-.22-8.64,1.94-6.7,5.19,7.57,6.27,6.05-3.15-19.47-3.15-19.47l11.63,4.3L287.3,331s-63.92,12-79.49,14.12S149,325.32,170.39,312.35Z"/>
      <path class="cls-7" d="M140.4,267.79q27.06,22.95,26.14,4.41A20.85,20.85,0,0,1,150.33,267q-20.12-19.26-19.23-17.07-5.68-1.16-4.68,9-69.11,32.79-65.79,44.64-3,26.85,32.86,28.1a37.94,37.94,0,0,1-5.62-24.21q8.26,29.79,37.61,31.13Q116.61,317,132,322.13q32.35,20.64,59.75,20.94-48.57-21.27-52.47-41.48Q135.75,278.36,140.4,267.79Z"/>
      <path class="cls-8" d="M100.13,311.05s-2.37-8.42-.21-13-17.51-2.16-17.51-2.16,43.66-33.51,44.53-30.48,3.45,10.37,5.4,8.64a10.34,10.34,0,0,0,2.59-5l3.24,12.77s-3,15.76-3.45,22,5,14.7,5,14.7-10.81-8.21-19.45-11.46S100.13,311.05,100.13,311.05Z"/>
      <path class="cls-9" d="M138.17,281.89q-5.58-26.83,17.72-2.59Q136,264.3,138.17,281.89Z"/>
      <path class="cls-10" d="M110.53,293.36q14.64,12,38.35,7,4.26-23.11-14.17-20.73-13.94-1-20-11c-20.9-8.68-27.06-5-25,2.09-3.4,11.2-3.86,13.91,1.2,14.19A50.74,50.74,0,0,1,110.53,293.36Z"/>
      <path class="cls-10" d="M118.51,173.56s.42,17.3,7.9,28.84,8.32,19.1,8.32,23.43v20.9s16.23,13.34,21.64,16.94c2.28,1.52,7.23,2.21,12.19,2.5v0s2.69.14,6.37.15h.37c3.93,0,6.86-.15,6.86-.15v0c5-.29,9.91-1,12.19-2.5,5.41-3.6,21.63-16.94,21.63-16.94V225.82c0-4.32.84-11.89,8.32-23.42s7.91-28.84,7.91-28.84c4.16-32.44-27-31.72-37-31.72s-8.32-18-8.32-18h-23s1.67,18-8.32,18S114.35,141.12,118.51,173.56Z"/>
      <path class="cls-11" d="M178.62,205.43q-.6,12.16,30.15,7.56,9.33-.84,13.49-14.21c.65,1,1.34,2,2.05,3.13a62.5,62.5,0,0,0-4.5,8c-4.06,8.77-24.44,8.94-36.74,5.71-6.82-1.79-6.84-10.81-5.67-25.65Z"/>
      <path class="cls-12" d="M128.12,200.8S117.4,216.58,114.7,228s-8,19.51-11.54,24.76c-3.18,4.72-25.44,28.44-30,33.28q8,17.34-6.37,22.68.54,23.38-4.73,24.62-1.83,4.38-5,1-2.51,4.14-5.1.85c-3-.12-4.4-1.49-4.12-4.13q-3.42-19.84-.49-23.54Q59.38,289,62,284.32S79.83,237.22,84.7,232s10.35-10.35,12.09-15.38,12.34-54.08,18.76-62,11-9.2,15.93-10.08,5.4-.87,5.4-.87"/>
      <path class="cls-13" d="M64.83,288.64l2.81,2.11a15.58,15.58,0,0,1-4.37,15.42L63.08,309l-1.3,23.09L60.7,311.75l-2.92-.05-.69,22.6s-2.64-22.83-1.9-22.93.05,1.1-1,1.15S52.67,335.19,52,335.15s1.09-23.65.28-25.92-3.46-.64-3.91-.88,4-2.35,4.86-1.48l.88.88,8.22-2.44s6.17-5.44,5.69-7.38S64.83,288.64,64.83,288.64Z"/>
      <path class="cls-13" d="M60.6,288.72c5.17-3.33,15.52,7.44,2.67,17.45.18,5.34,2.76,18.44-5.08,17.17-2.5.15-5.71-6.79-4.94-14.34-3-3.87-4.76-1.94-4.76-1.94C53.2,299.57,60.6,288.72,60.6,288.72Z"/>
      <path class="cls-12" d="M222.56,199.82s12,17.08,14.71,28.47,8,19.51,11.55,24.77c3.17,4.71,25.43,28.44,30,33.27q-8,17.35,6.37,22.69-.54,23.37,4.73,24.62,1.83,4.38,5,1,2.5,4.15,5.09.85c3-.11,4.41-1.49,4.13-4.13q3.42-19.84.49-23.54-12-18.49-14.65-23.16s-17.8-47.1-22.67-52.36-10.35-10.34-12.09-15.38-12.34-54.07-18.76-62-11-9.2-15.93-10.07-5.4-.88-5.4-.88"/>
      <ellipse class="cls-14" cx="173.18" cy="163.43" rx="49.73" ry="18.62"/>
      <path class="cls-11" d="M173,205.74q.61,12.15-30.63,7.55-9.48-.84-13.71-14.21c-.66,1-1.36,2-2.08,3.13a62.56,62.56,0,0,1,4.57,8c4.13,8.78,24.83,8.94,37.32,5.71,6.94-1.79,7-10.8,5.77-25.65Z"/>
      <path class="cls-11" d="M132,211.83c-.91-5.28-2.55-17.18-3.75-39.69.23,14.17-.19,20.75-1.67,29.92C129.83,207.77,131.88,211.43,132,211.83Z"/>
      <path class="cls-9" d="M136,301.82q1.42,23.74,63.53,43.89Q138,321.13,142.46,301.36Z"/>
      <path class="cls-15" d="M174.93,265.9Zm7.23-.18c5-.28,9.91-1,12.19-2.49,1.13-.75,2.73-1.93,4.55-3.32a40.26,40.26,0,0,0,1-8.9,41.56,41.56,0,0,0-.73-7.74c-2.62-13.57-11.94-23.6-23.05-23.6s-20.3,9.89-23,23.3a41.29,41.29,0,0,0-.79,8,40.3,40.3,0,0,0,1.31,10.27c1.07.79,2,1.46,2.74,2,2.28,1.52,7.23,2.21,12.19,2.49v0s2.69.14,6.37.15h.37c3.93,0,6.86-.15,6.86-.15Z"/>
      <path class="cls-15" d="M60.47,287c5-3.12,14.26,8.95,1.85,18.36,1.16,11.09,1.11,16.64-4.49,15.8-2.42.14-4.06-7.09-3.73-13.36-2.94-3.65-6.72-.27-6.72-.27C51.93,300.44,60.47,287,60.47,287Z"/>
      <path class="cls-16" d="M55.73,315.1l.6,3.89a4.8,4.8,0,0,0,3.35.6c1.72-.43,2-.81,2-.81l-.44-4.24S57.78,313.1,55.73,315.1Z"/>
      <path class="cls-15" d="M70.75,280.68s25.72-32.85,26.8-41.93-10.15-9.66-10.15-9.66S84,231.52,80,240.52,62,284.32,62,284.32,66.88,289.39,70.75,280.68Z"/>
      <path class="cls-17" d="M57.63,291.58c-1.69-3.28,8.85-3.87,12.68-3.5s4.66,3,4.66,3a2.44,2.44,0,0,0,.85-2.43c-.43-1.4-1.26-3.74-11-3.38S55.5,290.68,57.63,291.58Z"/>
      <path class="cls-18" d="M61.9,284.73a1.25,1.25,0,1,0-1.43-1.24A1.35,1.35,0,0,0,61.9,284.73Z"/>
      <path class="cls-18" d="M64.75,284.19a1.5,1.5,0,1,0-1.67-1.49A1.59,1.59,0,0,0,64.75,284.19Z"/>
      <path class="cls-18" d="M68.2,284.06a1.5,1.5,0,1,0-1.67-1.49A1.59,1.59,0,0,0,68.2,284.06Z"/>
      <path class="cls-18" d="M71.6,284.33a1.49,1.49,0,1,0-1.66-1.49A1.58,1.58,0,0,0,71.6,284.33Z"/>
      <path class="cls-18" d="M74.63,285.46A1.5,1.5,0,1,0,73,284,1.59,1.59,0,0,0,74.63,285.46Z"/>
      <path class="cls-19" d="M64.79,275.63a1.55,1.55,0,0,1,1,.92l0-.09a1.69,1.69,0,0,1,2.18-.82,1.57,1.57,0,0,1,1.1,2,1.7,1.7,0,0,1-2.18.82,1.76,1.76,0,0,1-1.14-1.15h0a1.45,1.45,0,0,1-1.86.67,1.34,1.34,0,0,1-1-1.66,1.44,1.44,0,0,1,1.86-.67Zm12.48,4.6a1.86,1.86,0,0,0-1.64.16,1.11,1.11,0,0,0,.17-.3,1.58,1.58,0,0,0-1.11-2,1.71,1.71,0,0,0-2.18.82,1.57,1.57,0,0,0,1.11,2,1.91,1.91,0,0,0,1.63-.16,1.43,1.43,0,0,0-.16.3,1.57,1.57,0,0,0,1.11,2,1.71,1.71,0,0,0,2.18-.83,1.57,1.57,0,0,0-1.11-2Zm-5.84-3.53a1.69,1.69,0,0,0-2.18.82,1.57,1.57,0,0,0,1.1,2,1.69,1.69,0,0,0,2.18-.83A1.56,1.56,0,0,0,71.43,276.7Z"/>
      <path class="cls-19" d="M68,270.63a1.57,1.57,0,0,1,.85,1,.3.3,0,0,1,0-.08,1.69,1.69,0,0,1,2.26-.53,1.57,1.57,0,0,1,.85,2.09,1.7,1.7,0,0,1-2.27.53,1.73,1.73,0,0,1-1-1.28h0a1.44,1.44,0,0,1-1.93.43,1.33,1.33,0,0,1-.74-1.77,1.44,1.44,0,0,1,1.93-.43ZM79.8,276.8a1.89,1.89,0,0,0-1.64-.05,1.55,1.55,0,0,0,.2-.28,1.57,1.57,0,0,0-.85-2.09,1.68,1.68,0,0,0-2.26.54,1.56,1.56,0,0,0,.84,2.09,1.88,1.88,0,0,0,1.65.05,1.21,1.21,0,0,0-.21.28,1.57,1.57,0,0,0,.85,2.09,1.68,1.68,0,0,0,2.26-.54,1.56,1.56,0,0,0-.84-2.09Zm-5.34-4.25a1.7,1.7,0,0,0-2.27.54,1.57,1.57,0,0,0,.85,2.09,1.7,1.7,0,0,0,2.27-.54A1.57,1.57,0,0,0,74.46,272.55Z"/>
      <path class="cls-20" d="M145.32,90.75l62.43-.54A3.62,3.62,0,0,1,211.5,94l-1.19,11.31a3.92,3.92,0,0,1-3.75,3.75H146.4a3.9,3.9,0,0,1-3.74-3.75l-1.08-10.77A3.63,3.63,0,0,1,145.32,90.75Z"/>
      <path class="cls-21" d="M169.67,214.22a1.84,1.84,0,0,1-.56-1.88l-.13.09a3.31,3.31,0,0,1-4.08-.26,2.14,2.14,0,0,1,.25-3.4,3.3,3.3,0,0,1,4.08.27,2.12,2.12,0,0,1,.6,2.3h0a2.82,2.82,0,0,1,3.46.27,1.9,1.9,0,0,1,.63,1.55,3,3,0,0,1,1.9-.64,2.39,2.39,0,1,1-2.77,2.36,2,2,0,0,1,0-.35,2.82,2.82,0,0,1-3.42-.3Zm12.78-.07a1.87,1.87,0,0,0,.57-1.88l.12.1a3.32,3.32,0,0,0,4.08-.27,2.14,2.14,0,0,0-.25-3.4,3.32,3.32,0,0,0-4.08.27,2.13,2.13,0,0,0-.6,2.3h0a2.82,2.82,0,0,0-3.46.27,1.82,1.82,0,0,0,.17,2.89,2.82,2.82,0,0,0,3.46-.27Zm17.69-19.88a2.54,2.54,0,0,0-1.33-2.11,2.67,2.67,0,0,0,.64.07,2.59,2.59,0,0,0,2.74-2.5,2.71,2.71,0,0,0-2.83-2.5,2.62,2.62,0,0,0-2.75,2.5,2.51,2.51,0,0,0,1.33,2.11,3.21,3.21,0,0,0-.63-.06,2.6,2.6,0,0,0-2.75,2.5,2.39,2.39,0,0,0,.79,1.71,3.3,3.3,0,0,0-3,.76,2.14,2.14,0,0,0,.25,3.4,3,3,0,0,0,.55.31,3.27,3.27,0,0,0-2.62.82,2.14,2.14,0,0,0,.25,3.4,3.32,3.32,0,0,0,4.08-.27,2.14,2.14,0,0,0-.25-3.4,3.7,3.7,0,0,0-.55-.31,3.27,3.27,0,0,0,2.62-.82,2.11,2.11,0,0,0,0-3.18,3,3,0,0,0,.66.07,2.61,2.61,0,0,0,2.75-2.5Zm2.47-9.65c-.06-3.29-5.63-3.28-5.58,0a2.72,2.72,0,0,0,2.83,2.5,2.6,2.6,0,0,0,2.75-2.5Zm-11.23,23.82a3.3,3.3,0,0,1-4.08.27,2.13,2.13,0,0,1-.25-3.4,3.31,3.31,0,0,1,4.08-.26,2.13,2.13,0,0,1,.25,3.39ZM152,194.34a2.52,2.52,0,0,1,1.34-2.11,3.39,3.39,0,0,1-.64.07,2.61,2.61,0,0,1-2.75-2.5,2.71,2.71,0,0,1,2.83-2.5,2.61,2.61,0,0,1,2.75,2.5,2.51,2.51,0,0,1-1.33,2.11,3.3,3.3,0,0,1,.64-.07,2.59,2.59,0,0,1,2.74,2.5,2.4,2.4,0,0,1-.79,1.72,3.27,3.27,0,0,1,3,.76,2.14,2.14,0,0,1-.25,3.4,3.26,3.26,0,0,1-.55.31,3.29,3.29,0,0,1,2.63.82,2.14,2.14,0,0,1-.26,3.4,3.32,3.32,0,0,1-4.08-.27,2.14,2.14,0,0,1,.26-3.4,2.9,2.9,0,0,1,.54-.31,3.28,3.28,0,0,1-2.62-.82,2.12,2.12,0,0,1,0-3.18,2.84,2.84,0,0,1-.66.07,2.61,2.61,0,0,1-2.75-2.5Zm-2.47-9.65c.06-3.29,5.64-3.28,5.58,0a2.71,2.71,0,0,1-2.83,2.5,2.61,2.61,0,0,1-2.75-2.5Zm11.23,23.82a3.32,3.32,0,0,0,4.08.27,2.14,2.14,0,0,0,.26-3.4,3.34,3.34,0,0,0-4.09-.27A2.14,2.14,0,0,0,160.74,208.51Z"/>
      <path class="cls-21" d="M149.74,180a2.81,2.81,0,0,1,2.33-3.16,2.71,2.71,0,0,1,3.1,2.32,2.81,2.81,0,0,1-2.33,3.16A2.71,2.71,0,0,1,149.74,180Z"/>
      <path class="cls-21" d="M151.32,169.72a2.36,2.36,0,0,0,1.28,1.8l-.17,0a2.82,2.82,0,0,0-2.33,3.16,2.7,2.7,0,0,0,3.1,2.32,2.81,2.81,0,0,0,2.33-3.16,2.72,2.72,0,0,0-1.61-2.13h0a2.39,2.39,0,0,0,1.94-2.71,2.32,2.32,0,0,0-2.61-2A2.39,2.39,0,0,0,151.32,169.72Z"/>
      <path class="cls-21" d="M154.29,161a2.17,2.17,0,0,0,1,1.73h-.15a2.54,2.54,0,0,0-2.36,2.67,2.46,2.46,0,0,0,2.61,2.35,2.55,2.55,0,0,0,2.37-2.67,2.47,2.47,0,0,0-1.29-2.06h0a2.17,2.17,0,0,0,2-2.3,2.1,2.1,0,0,0-2.19-2A2.18,2.18,0,0,0,154.29,161Z"/>
      <path class="cls-21" d="M198.54,161a2.17,2.17,0,0,1-1,1.78h.15a2.58,2.58,0,0,1,2.46,2.64,2.5,2.5,0,0,1-2.59,2.44,2.57,2.57,0,0,1-2.45-2.64,2.5,2.5,0,0,1,1.24-2.11h0a2.19,2.19,0,0,1-2.06-2.27,2.11,2.11,0,0,1,2.16-2.1A2.18,2.18,0,0,1,198.54,161Z"/>
      <path class="cls-22" d="M176.83,237.45c-8.39,0-16.22-7.82-22.06-22-5.74-14-8.9-32.44-8.9-52.06s3.16-38.1,8.9-52.06c5.84-14.2,13.67-22,22.06-22s16.22,7.82,22.06,22c5.74,14,8.9,32.45,8.9,52.06s-3.16,38.11-8.9,52.06C193.05,229.63,185.22,237.45,176.83,237.45Zm0-146.44c-7.65,0-14.92,7.44-20.47,20.95-5.66,13.76-8.77,32-8.77,51.41s3.11,37.66,8.77,51.41c5.55,13.52,12.82,21,20.47,21s14.92-7.44,20.47-21c5.66-13.75,8.77-32,8.77-51.41S203,125.72,197.3,112C191.75,98.45,184.48,91,176.83,91Z"/>
      <path class="cls-23" d="M207.8,85.45l.22,33.16s.12,19.32-6,31.86c-5.89,12.13-23.88,32.58-25,33.88v.15s-19.27-21.41-25.52-33.94-6.38-31.86-6.38-31.86l-.22-33.16,33.54,2.11Z"/>
      <path class="cls-24" d="M178.33,46.88H153.61s-13.13,9.19-12.18,20.55,6,25.86,6,25.86l27,1.57V95l1.17-.07,1.16.07v-.13l27-1.57s5.08-14.49,6-25.86-12.17-20.55-12.17-20.55Z"/>
      <path class="cls-12" d="M170.23,57.73l5.93,3.15,6.33-3.15C193,52.5,204,67.07,204,78.49v23.73c0,11.42-9.66,20.76-21.47,20.76H170.23c-11.81,0-21.47-9.34-21.47-20.76V78.49C148.76,67.07,159.87,52.23,170.23,57.73Z"/>
      <path class="cls-15" d="M171.42,57.73,176,60.88l4.87-3.15c8.08-5.23,16.52,9.34,16.52,20.76v23.73c0,11.42-7.43,20.76-16.52,20.76h-9.44c-9.08,0-16.51-9.34-16.51-20.76V78.49C154.91,67.07,163.46,52.23,171.42,57.73Z"/>
      <path class="cls-11" d="M155.93,94.76c.84-3.38,3.86-4.6,9-3.64q4.06,1.23,4.4,4.8,4.45-3.26,4.56-11.41a55.4,55.4,0,0,0-21.27,2.76A10,10,0,0,0,155.93,94.76Z"/>
      <path class="cls-10" d="M175.92,131.22c7.17,0,13-3.89,13-8.66s-5.85-8.65-13-8.65-13,3.88-13,8.65S168.75,131.22,175.92,131.22Z"/>
      <path class="cls-24" d="M159.81,35.48h31.9a6.22,6.22,0,0,1,6.21,6.21V47.9H153.6V41.69A6.23,6.23,0,0,1,159.81,35.48Z"/>
      <path class="cls-24" d="M169.38,25.1H182.5a11.43,11.43,0,0,1,11.4,11.4V47.9H158V36.5A11.43,11.43,0,0,1,169.38,25.1Z"/>
      <path class="cls-25" d="M191,37a5.75,5.75,0,0,1,3.29,5.19V47.9H158V42.16a5.75,5.75,0,0,1,3.59-5.32,10.58,10.58,0,0,1,10.53-10h8.35A10.58,10.58,0,0,1,191,37Z"/>
      <path class="cls-10" d="M173.89,108.66l-6.24-.24c-.8-2.67.23-4.53,3.11-5.58,1.33-3.72,4.4-6.73,5.05-6.69s3.71,3,5,6.67q4.3,1.58,3.11,5.58l-6.24.24c.36,0-.27,0-1.89,0v0C174.17,108.65,173.53,108.65,173.89,108.66Z"/>
      <path class="cls-11" d="M168.3,104.36a4,4,0,0,0-.65,4.06l16.29,0a4.33,4.33,0,0,0-.44-3.8q.36,1.82-4.3,1.13a5.61,5.61,0,0,1-6.76.14Q168.95,106.25,168.3,104.36Z"/>
      <path class="cls-26" d="M168.85,108.49l5,.17C172.46,106.31,170.78,106.26,168.85,108.49Z"/>
      <path class="cls-23" d="M175.91,123h0a4.52,4.52,0,0,1,4.5,4.51v6a4.51,4.51,0,0,1-4.5,4.5h0a4.51,4.51,0,0,1-4.5-4.5v-6A4.52,4.52,0,0,1,175.91,123Z"/>
      <path class="cls-26" d="M182.74,108.47l-5,.17Q179.85,105.13,182.74,108.47Z"/>
      <path class="cls-4" d="M154.92,89.75a2.09,2.09,0,0,1-2.31-1.82,2.05,2.05,0,0,1,1.9-2.22,1.52,1.52,0,0,0,1.09-.8,4.35,4.35,0,0,1,3-2.15c1.95-.37,5,0,7.81.32,1.28.15,2.48.29,3.35.34a2.12,2.12,0,0,1,2-1.3,2.07,2.07,0,0,1,2.09,2,3.2,3.2,0,0,1-1.12,2.61,3.33,3.33,0,0,1-2.24.71,39.87,39.87,0,0,1-4.6-.37,30,30,0,0,0-6.49-.37s-.17.23-.34.47A5.1,5.1,0,0,1,154.92,89.75Z"/>
      <path class="cls-11" d="M176,118h-6.27a3.21,3.21,0,0,1-3.05-2.14l-.15.11a5,5,0,0,0,2,3.61,5.65,5.65,0,0,0,.91.55,5.39,5.39,0,0,0,2.27.5h8.7a5.26,5.26,0,0,0,2.22-.48,5.17,5.17,0,0,0,1-.57,5,5,0,0,0,2-3.51l-.17-.12a3.23,3.23,0,0,1-3,2Z"/>
      <path class="cls-27" d="M156.79,95.88s-3-.27-3.07-.31c2.66-.11,2.6-.73,3.6-2.72,2.31-2.62,11.34-2.28,11.11,3.25a5,5,0,0,0-.65,0C167.22,92.08,158.49,90.83,156.79,95.88Z"/>
      <path class="cls-11" d="M162.49,93.21q4.37.53,4.89,3.68-5.26-2.56-9.87-.54Q158,93.38,162.49,93.21Z"/>
      <path class="cls-15" d="M175.58,105.45c1.57,0,2.85-.46,2.85-1s-1.28-1-2.85-1-2.85.46-2.85,1S174,105.45,175.58,105.45Z"/>
      <path class="cls-15" d="M178,103.13c.37,0,.67-.22.67-.49s-.3-.48-.67-.48-.68.22-.68.48S177.59,103.13,178,103.13Z"/>
      <path class="cls-28" d="M176,117h-6.27a3.87,3.87,0,0,1-3.05-1.07l-.15,0c.11.74.88,1.39,2,1.81a8.06,8.06,0,0,0,.91.28,10.12,10.12,0,0,0,2.27.25h8.7a10.21,10.21,0,0,0,2.22-.24,8.32,8.32,0,0,0,1-.29c1.11-.41,1.86-1,2-1.75l-.17-.07a4,4,0,0,1-3,1Z"/>
      <path class="cls-4" d="M160.32,123.14a3.66,3.66,0,0,1-5.08.06,3.49,3.49,0,0,1-.5-5c5.6-6.14,4.12-10.11,17.28-10a4,4,0,0,1,3.62,2.5,4,4,0,0,1,3.62-2.51c13.17-.14,11.68,3.83,17.28,10a3.47,3.47,0,0,1-.5,5,3.63,3.63,0,0,1-5.07-.06c-3.51-3.85-1.86-8-12.22-7.84a3.26,3.26,0,0,1-3.11-1.94,3.25,3.25,0,0,1-3.11,2C162.17,115.18,163.82,119.29,160.32,123.14Z"/>
      <path class="cls-29" d="M174,78.55c-.24-4.15,1.82-15.76,2-15.71s2.28,11.51,2,15.69C177.32,81.22,174.83,80.91,174,78.55Z"/>
      <path class="cls-11" d="M196.28,94.72q-1.28-5.07-9-3.64-4.06,1.23-4.4,4.8-4.46-3.25-4.56-11.41a55.33,55.33,0,0,1,21.26,2.76A10,10,0,0,1,196.28,94.72Z"/>
      <path class="cls-4" d="M197.79,85.68a2,2,0,0,1,1.88,2.21,2.07,2.07,0,0,1-2.29,1.82,5.08,5.08,0,0,1-4.16-2.52c-.18-.24-.35-.47-.37-.48a30.6,30.6,0,0,0-6.56.37,40.19,40.19,0,0,1-4.61.37,3.34,3.34,0,0,1-2.23-.69,3.24,3.24,0,0,1-1.12-2.62,2.1,2.1,0,0,1,4-.75c.89,0,2.12-.2,3.42-.35,2.79-.32,5.88-.68,7.83-.31a4.33,4.33,0,0,1,3,2.13A1.6,1.6,0,0,0,197.79,85.68Z"/>
      <path class="cls-27" d="M195.42,95.85s3.05-.28,3.07-.32c-2.67-.11-2.6-.72-3.6-2.72-2.31-2.62-11.34-2.28-11.11,3.25.06,0,.61-.07.65,0C185,92,193.72,90.79,195.42,95.85Z"/>
      <path class="cls-11" d="M189.72,93.17q-4.38.52-4.89,3.68,5.26-2.56,9.87-.53Q194.22,93.34,189.72,93.17Z"/>
      <path class="cls-30" d="M152.66,45.22h47A1.35,1.35,0,0,1,201,46.56h0a1.35,1.35,0,0,1-1.34,1.35h-47a1.36,1.36,0,0,1-1.34-1.35h0A1.35,1.35,0,0,1,152.66,45.22Z"/>
      <path class="cls-24" d="M172.83,25.63h7.09q-5-4.43,4-6.9,5.93-4.87-3.07-7.67,6,4.56-6.13,6.9Q168.09,20.83,172.83,25.63Z"/>
      <path class="cls-21" d="M202.84,180.39a2.8,2.8,0,0,0-2.33-3.16,2.7,2.7,0,0,0-3.1,2.31,2.82,2.82,0,0,0,2.33,3.17A2.71,2.71,0,0,0,202.84,180.39Z"/>
      <path class="cls-21" d="M201.27,170.15a2.35,2.35,0,0,1-1.27,1.79l.16,0a2.82,2.82,0,0,1,2.33,3.17,2.7,2.7,0,0,1-3.1,2.31,2.8,2.8,0,0,1-2.33-3.16,2.73,2.73,0,0,1,1.62-2.13h0a2.38,2.38,0,0,1-1.94-2.71,2.3,2.3,0,0,1,2.6-2A2.4,2.4,0,0,1,201.27,170.15Z"/>
      <path class="cls-31" d="M174.17,236.9a3.06,3.06,0,0,0,2,2.09l-.2.06a3.64,3.64,0,0,0-2.44,4.47,3.52,3.52,0,0,0,4.39,2.44,3.65,3.65,0,0,0,2.44-4.48,3.52,3.52,0,0,0-2.45-2.45h0a3.09,3.09,0,0,0,2-3.82,3,3,0,0,0-3.7-2.12A3.08,3.08,0,0,0,174.17,236.9Z"/>
      <path class="cls-17" d="M176.25,262.66c.83,0,1.51-1.7,1.51-3.78s-.68-3.79-1.51-3.79-1.51,1.7-1.51,3.79S175.42,262.66,176.25,262.66Z"/>
      <path class="cls-11" d="M102.64,205.9s-2.16,6.7,1.08,12.11,11,.21,11,.21l-8,13.84s.44-5.41-1.51-7.89-7.56-2.81-7.56-2.81Z"/>
      <path class="cls-11" d="M93.23,271.29s3.78.8,5.62,1.37a37.6,37.6,0,0,1,12.43,7.06c5,4.32,9.73,10.8,13.4,12.53s24.95,2,24.95,2l-.75,6.09s-25.76,1.7-33.26-3.46-15.79-12.61-19-13.05-7.13-.86-7.45-1.73,1.62-2.59,1.62-2.59L90,275.94l2.36-.9S90.75,272.58,93.23,271.29Z"/>
      <path class="cls-10" d="M241.44,293.68q-14.64,12-38.34,7-4.28-23.12,14.17-20.74,13.92-1,20-11c20.9-8.68,27.06-5,25,2.09,3.4,11.2,3.86,13.91-1.21,14.19A51,51,0,0,0,241.44,293.68Z"/>
      <path class="cls-13" d="M287.15,289l-2.81,2.11a18,18,0,0,0,0,8.18,17.76,17.76,0,0,0,4.36,7.25l.2,2.85,1.3,23.1,1.08-20.38,2.92-.05.69,22.6s2.64-22.83,1.9-22.92-.05,1.09,1,1.15,1.54,22.67,2.21,22.62-1.08-23.65-.27-25.92,3.45-.63,3.9-.87-4-2.35-4.86-1.48l-.87.87-8.22-2.44s-6.17-5.43-5.69-7.38S287.15,289,287.15,289Z"/>
      <path class="cls-13" d="M291.38,289c-5.17-3.32-15.52,7.45-2.68,17.46-.18,5.34-2.76,18.43,5.09,17.16,2.5.15,5.71-6.79,4.94-14.33,3-3.88,4.76-1.95,4.76-1.95C298.78,299.9,291.38,289,291.38,289Z"/>
      <path class="cls-15" d="M291.51,287.28c-5-3.12-14.27,9-1.85,18.35-1.16,11.1-1.11,16.64,4.49,15.81,2.42.14,4.06-7.09,3.73-13.37,2.93-3.64,6.72-.27,6.72-.27C300.05,300.77,291.51,287.28,291.51,287.28Z"/>
      <path class="cls-16" d="M296.25,315.43l-.6,3.89a4.82,4.82,0,0,1-3.35.59c-1.73-.43-2.05-.81-2.05-.81l.43-4.24S294.19,313.43,296.25,315.43Z"/>
      <path class="cls-15" d="M281.23,281s-25.72-32.85-26.8-41.93,10.14-9.65,10.14-9.65,3.45,2.42,7.46,11.43S290,284.64,290,284.64,285.1,289.72,281.23,281Z"/>
      <path class="cls-17" d="M294.52,291.82c1.7-3.28-9-3.79-12.85-3.41s-4.67,3-4.67,3a2.45,2.45,0,0,1-.84-2.43c.43-1.41,1.26-3.75,11-3.39S296.65,290.91,294.52,291.82Z"/>
      <path class="cls-18" d="M290.08,285.06a1.26,1.26,0,1,0-1.43-1.25A1.35,1.35,0,0,0,290.08,285.06Z"/>
      <path class="cls-18" d="M287.23,284.51a1.49,1.49,0,1,0-1.66-1.48A1.57,1.57,0,0,0,287.23,284.51Z"/>
      <path class="cls-18" d="M283.78,284.38a1.49,1.49,0,1,0-1.66-1.49A1.59,1.59,0,0,0,283.78,284.38Z"/>
      <path class="cls-18" d="M280.38,284.65a1.5,1.5,0,1,0-1.67-1.48A1.59,1.59,0,0,0,280.38,284.65Z"/>
      <path class="cls-18" d="M277.35,285.78a1.49,1.49,0,1,0-1.66-1.48A1.58,1.58,0,0,0,277.35,285.78Z"/>
      <path class="cls-19" d="M287.18,276a1.56,1.56,0,0,0-1,.92l0-.08A1.71,1.71,0,0,0,284,276a1.57,1.57,0,0,0-1.1,2,1.69,1.69,0,0,0,2.18.82,1.75,1.75,0,0,0,1.14-1.14h0a1.44,1.44,0,0,0,1.86.67,1.34,1.34,0,0,0,1-1.65,1.45,1.45,0,0,0-1.87-.68Zm-12.47,4.6a1.9,1.9,0,0,1,1.64.17,1.34,1.34,0,0,1-.17-.31,1.56,1.56,0,0,1,1.11-2,1.7,1.7,0,0,1,2.18.82,1.58,1.58,0,0,1-1.11,2,1.9,1.9,0,0,1-1.64-.17,1.11,1.11,0,0,1,.17.3,1.58,1.58,0,0,1-1.11,2,1.69,1.69,0,0,1-2.18-.82,1.58,1.58,0,0,1,1.11-2Zm5.84-3.53a1.71,1.71,0,0,1,2.18.83,1.56,1.56,0,0,1-1.11,2,1.7,1.7,0,0,1-2.18-.82A1.58,1.58,0,0,1,280.55,277Z"/>
      <path class="cls-19" d="M284,271a1.53,1.53,0,0,0-.85,1,.2.2,0,0,0,0-.08,1.69,1.69,0,0,0-2.27-.54,1.57,1.57,0,0,0-.84,2.09,1.69,1.69,0,0,0,2.27.54,1.75,1.75,0,0,0,1-1.29h0a1.46,1.46,0,0,0,1.94.43,1.33,1.33,0,0,0,.74-1.77A1.44,1.44,0,0,0,284,271Zm-11.78,6.17a1.86,1.86,0,0,1,1.64-.05,1.42,1.42,0,0,1-.2-.28,1.56,1.56,0,0,1,.84-2.09,1.7,1.7,0,0,1,2.27.53,1.56,1.56,0,0,1-.84,2.09,1.88,1.88,0,0,1-1.65.05,1.46,1.46,0,0,1,.21.28,1.57,1.57,0,0,1-.85,2.09,1.7,1.7,0,0,1-2.27-.53,1.57,1.57,0,0,1,.85-2.09Zm5.34-4.26a1.7,1.7,0,0,1,2.26.54,1.56,1.56,0,0,1-.84,2.09,1.7,1.7,0,0,1-2.27-.53A1.58,1.58,0,0,1,277.52,272.87Z"/>
      <path class="cls-11" d="M249.34,206.23s2.16,6.7-1.08,12.1-11,.22-11,.22l8,13.83s-.43-5.4,1.52-7.89,7.56-2.81,7.56-2.81Z"/>
      <path class="cls-11" d="M258.74,271.61s-3.78.81-5.61,1.38A37.71,37.71,0,0,0,240.7,280c-5,4.32-9.73,10.81-13.4,12.54s-25,2-25,2l.76,6.1s25.76,1.69,33.26-3.47,15.79-12.61,19-13,7.14-.87,7.46-1.73-1.62-2.59-1.62-2.59l.71-3.56-2.36-.91S261.23,272.91,258.74,271.61Z"/>
      <path class="cls-11" d="M218.49,211.51c.91-5.28,2.95-16.82,4.14-39.33-.22,14.17.2,20.75,1.68,29.91C221.09,207.81,218.66,211.11,218.49,211.51Z"/>
      <path class="cls-7" d="M158,287.5s21.62,22.05,32.42,23.77,0-14.26-3-22.91,19.88-13.83,19.88-13.83,13.4,1.3,19.46-2.16,9.48-11.6,9.48-11.6l-8.51-2,.62-10.78s-4.19-2.64-7,.17-25.72,20.75-31.77,22.26-16.86,5.62-17.94,10.16,10.5,13.45,5.47,12.56S158,287.5,158,287.5Z"/>
      <path class="cls-7" d="M250.69,323.59S211.13,313.87,204,308.9s-12.32-19.67-11.67-21.62,4.1-2.59,4.1-2.59,20.75,1.94,26.16,3,39.12,8.43,43.44,9.52-10.16-2.38-8.64,1.51,7.56,9.94,10.8,13.83-13.61-6.27-24.42-8S250.69,323.59,250.69,323.59Z"/>
      <path class="cls-9" d="M196.43,284.69s32.67,5,56.2,9.94,25.07,21.61,25.07,21.61-2.16-12.53-7.34-17.93S209.4,280.35,196.43,284.69Z"/>
      <path class="cls-9" d="M164.44,282.53s2.49.75,2.92-1.3a8.28,8.28,0,0,1,5.51-6.38c4-1.62,14.7,6.38,19.13,8.11a50.5,50.5,0,0,0,9.24,2.48l4-1.64s-15.88-4-18.91-6.68-8.75-5.51-11.56-5.62-6.46-.08-7.68,3-3.19,5.68-6.48,5.29-8.61-4.36-8.61-4.36S156.88,282.09,164.44,282.53Z"/>
      <path class="cls-17" d="M212.5,201.36c1.4,0,2,1.7,1.34,3.78s-2.34,3.79-3.75,3.79-2-1.7-1.33-3.79S211.1,201.36,212.5,201.36Z"/>
      <path class="cls-17" d="M136.75,201.36c-1.4,0-2,1.7-1.33,3.78s2.34,3.79,3.74,3.79,2-1.7,1.34-3.79S138.16,201.36,136.75,201.36Z"/>
      <path class="cls-16" d="M120.58,154.86c1.75.51,2.41,3.57,1.46,6.82s-3.14,5.48-4.89,5-2.42-3.56-1.47-6.81S118.82,154.35,120.58,154.86Z"/>
      <path class="cls-16" d="M229.15,151.78c-1.76.51-2.41,3.57-1.47,6.82s3.14,5.47,4.9,5S235,160,234,156.75,230.91,151.27,229.15,151.78Z"/>
      <path class="cls-4" d="M159.89,129.71c-3.22,6.31-2.1,10.16-.71,13.35,1.69,3.85,3.79,6.74-.8,11.83,1.64-4,2-5.79.63-9.31-.18-.46-.39-1-.63-1.49-3.29-5.45-2.91-9.71,1.51-14.38Zm11.52,3.75c-5.61,3.45-6.3,6.71-2.14,11.8l-.07-.1c6.94,12.46-11.9,9.42.85,24.54h0c-2.59-4.89-4.94-8.49-1.26-13.36a11.48,11.48,0,0,0,1.9-1.55c.18-.2.37-.43.59-.72,2.68-3.46,1.47-5.77-.21-8C168.59,142.8,165.1,139.72,171.41,133.46Z"/>
      <path class="cls-23" d="M118.71,146.46a7.9,7.9,0,0,1,3.75-7.16c2.55-1.65,6.07-2.34,9.44-3.19h0c7.95-2.47,6.48-7.87,4.33-15.05v0c-1.26-5.07-.74-6.44.87-11.36h0c-.54,4.22-1.21,6.81.23,10.9,7.77,22.07-8.85,13.59-16.08,21.16A10.61,10.61,0,0,0,118.71,146.46Z"/>
      <path class="cls-23" d="M233.93,147.19a7.9,7.9,0,0,0-3.75-7.16c-2.55-1.64-6.07-2.34-9.44-3.19h0c-8-2.47-6.48-7.87-4.33-15v0c1.26-5.07.74-6.44-.87-11.36h0c.54,4.22,1.21,6.81-.23,10.9-7.77,22.07,8.85,13.59,16.08,21.16A10.66,10.66,0,0,1,233.93,147.19Z"/>
      <path class="cls-4" d="M192.39,129.81c3.21,6.3,2.1,10.15.7,13.34-1.68,3.85-3.79,6.74.81,11.84-1.65-4-2-5.79-.63-9.31.18-.47.39-1,.63-1.49,3.29-5.45,2.91-9.71-1.51-14.38Zm-11.52,3.74c5.6,3.46,6.29,6.71,2.13,11.8l.08-.09c-6.94,12.45,11.9,9.41-.85,24.53h0c2.59-4.88,4.93-8.48,1.26-13.36a11.61,11.61,0,0,1-1.91-1.55c-.17-.19-.36-.42-.59-.71-2.67-3.47-1.46-5.78.22-8C183.68,142.9,187.18,139.82,180.87,133.55Z"/>
      <path class="cls-4" d="M163.35,44.68c-2.27-2-1.48-3.16-.5-4.15,1.19-1.19,2.67-2.09-.57-3.67,1.16,1.24,1.42,1.8.45,2.89-.13.14-.28.3-.45.46-2.32,1.7-2.05,3,1.07,4.47Zm8.11-1.16c-4-1.08-4.43-2.09-1.5-3.67l-.05,0c4.89-3.87-8.39-2.92.6-7.62h0c-1.83,1.52-3.48,2.64-.89,4.15a10.16,10.16,0,0,1,1.34.48l.42.22c1.88,1.08,1,1.8-.16,2.49C169.48,40.61,167,41.57,171.46,43.52Z"/>
      <path class="cls-4" d="M189.05,44.65c2.48-2,1.62-3.15.54-4.14-1.3-1.2-2.92-2.1.62-3.68-1.27,1.24-1.54,1.8-.49,2.89.14.15.31.3.49.46,2.54,1.7,2.24,3-1.16,4.47Zm-8.88-1.16c4.32-1.08,4.85-2.09,1.64-3.67l.06,0c-5.35-3.87,9.17-2.92-.65-7.62h0c2,1.52,3.8,2.64,1,4.15a13.42,13.42,0,0,0-1.47.48l-.46.22c-2.06,1.08-1.13,1.8.17,2.49C182.34,40.58,185,41.54,180.17,43.49Z"/>
      <path class="cls-32" d="M91.18,270.59,102,273.88S94.41,274.28,91.18,270.59Z"/>
      <path class="cls-32" d="M98.44,276.94l-9.61-3.23S95.08,277.93,98.44,276.94Z"/>
      <path class="cls-32" d="M95.71,279.84l-8-1.85S92.09,280.93,95.71,279.84Z"/>
      <path class="cls-32" d="M93.58,283.42l-6.42-1.76S91.81,284.19,93.58,283.42Z"/>
      <path class="cls-16" d="M99.07,267.86l-2.36,2.91-5.53-1.46s.91-3.08,2.36-3.17S99.07,267.86,99.07,267.86Z"/>
      <path class="cls-32" d="M261.74,271.09l-10.31,1.68S258.29,274.28,261.74,271.09Z"/>
      <path class="cls-32" d="M254.27,276.32l9.19-1.79S257.19,277.79,254.27,276.32Z"/>
      <path class="cls-32" d="M256.36,279.59l7.57-.66S259.52,281.19,256.36,279.59Z"/>
      <path class="cls-32" d="M257.82,283.44l6.09-.81S259.33,284.46,257.82,283.44Z"/>
      <path class="cls-16" d="M254.91,267.25l1.76,3.21,5.24-.63s-.42-3.18-1.73-3.48S254.91,267.25,254.91,267.25Z"/>
      <path class="cls-11" d="M131.19,286.92s3.13-3.8,6.55-2.36a11.52,11.52,0,0,1,5.06,4.17l-.72-5.08L131,282.36Z"/>
    </g>
  </g>
  <g>
    <g class="cls-33">
      <g>
        <path class="cls-34" d="M167,101.68A352.57,352.57,0,0,1,236.69,90.6c18.33-1,58.08-3,106.18,9.42,46,11.91,48.91,23.89,71.34,19.91,22.18-3.94,27.36-17.06,70.45-44.58a457.47,457.47,0,0,1,50.89-28.27c54.72-25.29,109-21.23,127.53-19.24,12.27,1.31,77.72,9.24,139.22,60.43a272.74,272.74,0,0,1,61.33,72.83,358.38,358.38,0,0,1,94-39.07c7.95-2,71.36-18.28,78.52-3.09,5.79,12.25-30.45,33.56-24.91,46,7,15.65,72.44-.79,94.42-4.53a372,372,0,0,0,129.46-48.48c105.79-63.48,5.73-3.34,5.73-3.34l2.38,93.53-1045-1.1Q182.61,151.35,167,101.68Z"/>
        <path class="cls-35" d="M202.18,213.66S464.27,27.71,840.61,195.72v17.94Z"/>
        <path class="cls-36" d="M307.49,185.52s156.79-58.25,246.65-5.64C609,224,644,218.4,701.63,196.79s190,32,190,32l-584.16-1.19Z"/>
        <rect class="cls-37" x="150.82" y="-36.2" width="1042.63" height="348.45"/>
      </g>
    </g>
    <rect class="cls-1" x="655" y="14.47" width="276.93" height="257.81"/>
  </g>
</svg>
