<svg xmlns="http://www.w3.org/2000/svg" width="278.88" height="217.06" viewBox="0 0 278.88 217.06">
  <defs>
    <style>
      .cls-1 {
        isolation: isolate;
      }

      .cls-16, .cls-2, .cls-5 {
        opacity: 0.5;
      }

      .cls-3 {
        fill: #fff;
      }

      .cls-4 {
        fill: #b56823;
      }

      .cls-12, .cls-5, .cls-6 {
        fill: #dd9043;
      }

      .cls-11, .cls-12, .cls-15, .cls-17, .cls-5 {
        mix-blend-mode: multiply;
      }

      .cls-16, .cls-7, .cls-8 {
        fill: #c97d39;
      }

      .cls-7 {
        opacity: 0.8;
      }

      .cls-9 {
        fill: #a05d2b;
      }

      .cls-10, .cls-11 {
        fill: #7a4417;
      }

      .cls-11 {
        opacity: 0.4;
      }

      .cls-12, .cls-14 {
        opacity: 0.25;
      }

      .cls-13 {
        fill: #351c0a;
      }

      .cls-14 {
        fill: #efae59;
        mix-blend-mode: overlay;
      }

      .cls-15 {
        fill: #e58f48;
        opacity: 0.2;
      }

      .cls-17 {
        fill: #994507;
      }
    </style>
  </defs>
  <g class="cls-1">
    <g id="Layer_1" data-name="Layer 1">
      <g>
        <path class="cls-2" d="M111.29,213.17a9.71,9.71,0,0,1-8-15c2.39-3.71,6.68-6.35,12.73-7.82,3-11.91,3-19.08,2-21.61-.29-.74-.55-1.45-.78-2.15-.05-.14-.24-.76-.24-.76-.13-.38-.28-.85-.41-1.3l-.17-.61-.06-.23c-.1-.35-.2-.73-.29-1.1-.05-.21-.19-.85-.19-.85-.08-.33-.16-.69-.23-1s-.1-.52-.14-.79-.12-.65-.17-1-.07-.51-.1-.76-.08-.6-.11-.9-.06-.54-.08-.77,0-.54-.06-.84l0-.6c0-.33,0-.58,0-.83,0,0,0-.46,0-.63s0-.49,0-.75v-.4c0-.34,0-.58,0-.82,0,0,0-.41,0-.45,0-.38.06-.73.1-1l0-.2c0-.3.08-.53.11-.72,0,0,.06-.39.07-.43s.1-.54.12-.61.07-.32.07-.32l.14-1.19c0-.17.14-1.41.14-1.41s.09-1.37.1-1.4l0-1.21V141.4l0-1.08-.06-1.08-.1-1-.11-.9-.14-.89-.18-.84-.18-.77-.19-.68c0-.08-.19-.58-.24-.72s-.19-.55-.24-.68l-.25-.62-.25-.56-.3-.64-.29-.57-.33-.59-.34-.58-.37-.59-.38-.58-.39-.59-.44-.64-.43-.6-.75-1c-.39-.54-.75-1-1.13-1.57l-.51-.73-.53-.78a82.14,82.14,0,0,1-4.62-7.79A71,71,0,0,1,93.43,112c-2-.63-4.08-1.35-6.07-2.15l-.15-.06-1.42-.59-.16-.08c-.54-.23-1-.45-1.55-.69l-.12,0c-.84-.39-1.72-.82-2.58-1.26a7.82,7.82,0,0,1-1.37-.73l-1.19-.66-1.4-.81-.27-.16-1.5-.93-.14-.09q-1.8-1.16-3.42-2.34l-.14-.1-1.49-1.12-.31-.24-1.33-1.07-.32-.27-1.39-1.19-.22-.19q-1.73-1.53-3.3-3.12s-.18-.18-.18-.18c-.45-.46-.89-.92-1.34-1.4,0,0-.2-.21-.25-.28l-.2-.22c-.32-.34-.69-.76-1.06-1.18l-.42-.48c-.37-.44-.71-.84-1-1.26l-.43-.53c-.37-.46-.72-.9-1.06-1.35l-.35-.46c-.51-.67-1-1.27-1.38-1.89l-.33-.47c-.34-.48-.7-1-1-1.55-.16-.24-.58-.91-.58-.91-.23-.36-.47-.74-.7-1.12s-.39-.64-.58-1L52,78.76c-.21-.38-.42-.74-.62-1.12s-.4-.72-.59-1.08l0-.09-.57-1.1L49.47,74c-.15-.31-.32-.64-.48-1s-.25-.56-.38-.83L48.49,72c-.37-.81-.73-1.63-1.08-2.47l-.09-.23c-.13-.29-.25-.59-.38-.9s-.26-.66-.38-1l-.2-.51-.42-1.11c-.15-.43-.32-.89-.48-1.35L45,63.09l-.46-1.41c-.14-.44-.29-.93-.44-1.42L43.74,59c-.17-.59-.32-1.15-.47-1.72,0,0-.25-.9-.32-1.19-.15-.59-.3-1.2-.45-1.82a28.32,28.32,0,0,0-8.73-5l-.1,0A19.41,19.41,0,0,0,31,48.51C21.12,46.6,11.82,44.81,10.91,36a11.68,11.68,0,0,1,.34-4.57,10.61,10.61,0,0,1,2.51-9.81c2.06-2.26,5-3.65,8.85-4.21a28.38,28.38,0,0,1,13.48-3.5A26.18,26.18,0,0,1,40,14.2a13.26,13.26,0,0,1,2.24-.71c.38-.09.71-.15,1.07-.2l.31,0c.27,0,.56-.06.93-.09l.34,0h.5l.8,0c.19,0,.41,0,.63,0h.07l.54.05.51.08.44.07a25.73,25.73,0,0,1,4.93-.54,11.49,11.49,0,0,1,8.55-4.11c4.61,0,9.66,3.28,10.54,10.59a18.76,18.76,0,0,1,0,4.43c3.28,5.43,5,13,7.85,25.58,0,0,1,4.42,1.41,6.21,1.29,5.62,6.42,10.65,12.76,12.5a16,16,0,0,0,4.45.68,7.78,7.78,0,0,0,5.42-1.8,1.29,1.29,0,0,1,.17-.16c1.89-1.91,3.78-4.06,5.78-6.33,7.89-9,17.68-20.14,33.38-20.63h1.64c1.47,0,2.52,0,3.23-.07l.25,0a6.47,6.47,0,0,1,.66-.25c1.18-.6,2.21-2.26,3.74-4.84,2.88-4.85,7.7-13,19.33-13.37l1.65,0c6.06,0,11.09,1.27,15.36,3.87a30.43,30.43,0,0,1,7.62,6.87q.21.23.39.45l2,2.44.67.78.29.34.59.64.62.62.54.49-1.83,2.09v.12l1.92-2.13.55.44c2.32,1.77,7.66,3,12.82,4.3,6.49,1.56,13.85,3.33,20.6,7,.82.44,1.63.91,2.41,1.4l.89.41,1.1.55.95.51,1,.59.88.54.89.59.92.66.8.62.73.61c.06,0,.54.46.56.49l.4.36.66.64.73.76.36.41s.35.4.4.47.5.61.57.71.17.22.3.38l.35.49.57.84.41.66.14.24.32.58.14.25s.33.64.39.77.35.76.35.76.41,1,.43,1,.27.74.31.87.25.74.25.74l.09.31.23.85.17.69c0,.08.17.85.17.85a2.5,2.5,0,0,1,0,.29l.11.62c0,.09.12.89.12.89l.09.89a2.29,2.29,0,0,0,0,.25s.05.79.05.86,0,.79,0,.87v.3c.53,1.92,1,4,1.52,6.24a117.11,117.11,0,0,1,2.26,19.7.86.86,0,0,1,0,.16c0,1.62,0,3.45,0,5.27,0,1.42-.05,2.66-.11,3.82,0,0,0,0,0,0l.23.57c.08.23.17.48.25.73s.12.38.17.58.11.41.17.64c0,0,.09.41.12.55s.08.38.12.62c0,0,.07.44.08.49.05.32.09.66.13,1,0,0,0,.36,0,.36,0,.29,0,.55.06.82,0,0,0,.87,0,1.08v1.49c0,.25,0,1.06,0,1.06s-.05,1-.05,1c0,.27-.09,1.07-.09,1.07,0,.36-.06.68-.09,1l-.12,1.08s-.13,1-.14,1c3.19,10.09,7.16,16.2,8.23,17.21,8.32,7.4,3.28,15.46,1.63,18.11a17.3,17.3,0,0,0-2.85,6.58c-1.63,8.61.43,22,1.27,26a10.67,10.67,0,0,1-2,9.13,10.47,10.47,0,0,1-4.6,3.25A9.95,9.95,0,0,1,252.3,213H237.69a9.93,9.93,0,0,1-8.34-4.52,10.36,10.36,0,0,1-8.27,4.33L205,213a10.11,10.11,0,0,1-7.81-3.59,9.92,9.92,0,0,1-2.19-8.12c1.46-8.35,9.85-11.5,14.36-13.2,2.67-2.09,8.72-15.35,11.19-34.19.05-.36.08-.73.11-1.08s0-.65,0-1a14,14,0,0,0-.2-2.61c0-.27-.11-.55-.17-.82a17.72,17.72,0,0,0-.66-2.09,59.64,59.64,0,0,0-4.05-7.87,105.29,105.29,0,0,1-8.4-17.39c-10.79,7.8-22.88,9.81-32.16,9.89h-3.56l-2.36-.05-.61,0-2.41-.09-1.73-.1-.09.45c-.76,4.22-.67,5.83-.59,6.35,4.67,9,7.14,14.48,7.78,29.29.38,8.63,4.23,16.16,6.78,21.13.67,1.31,1.25,2.44,1.69,3.47a10.53,10.53,0,0,1-.63,10.11,10.25,10.25,0,0,1-2,2.25,10.61,10.61,0,0,1-10.54,9.43l-15.7,0H151l-1,0a9.1,9.1,0,0,1-9.24-10.42,8.12,8.12,0,0,1-.64.81,10.19,10.19,0,0,1-2.77,2.27,11.61,11.61,0,0,1-2.44,3.79,11.45,11.45,0,0,1-8.35,3.56Zm32.44-42.08c-1.13,7.7-1.68,17.92-1.07,22.23a16.41,16.41,0,0,1,.12,4,12.77,12.77,0,0,1,8.33-5.64c-.22-2.07-.83-5.13-1.35-7.74l-.26-1.33a15.74,15.74,0,0,0-3.2-7.5A34.28,34.28,0,0,1,143.73,171.09Zm100.49-4a41.32,41.32,0,0,0-1.77,4.07c-.38,1-.8,2.07-1.26,3.18-1.95,4.8-4,9.76-3.27,16.57a23.23,23.23,0,0,1,2.22-.7,9.61,9.61,0,0,0,1.18-1.7C242.23,187,245.58,180,244.22,167.13Z"/>
        <path class="cls-3" d="M106.29,208.17a9.71,9.71,0,0,1-8-15c2.39-3.71,6.68-6.35,12.73-7.82,3-11.91,3-19.08,2-21.61-.29-.74-.55-1.45-.78-2.15-.05-.14-.24-.76-.24-.76-.13-.38-.28-.85-.41-1.3l-.17-.61-.06-.23c-.1-.35-.2-.73-.29-1.1-.05-.21-.19-.85-.19-.85-.08-.33-.16-.69-.23-1s-.1-.52-.14-.79-.12-.65-.17-1-.07-.51-.1-.76-.08-.6-.11-.9-.06-.54-.08-.77,0-.54-.06-.84l0-.6c0-.33,0-.58,0-.83,0,0,0-.46,0-.63s0-.49,0-.75v-.4c0-.34,0-.58,0-.82,0,0,0-.41,0-.45,0-.38.06-.73.1-1l0-.2c0-.3.08-.53.11-.72,0,0,.06-.39.07-.43s.1-.54.12-.61.07-.32.07-.32l.14-1.19c0-.17.14-1.41.14-1.41s.09-1.37.1-1.4l0-1.21V136.4l0-1.08-.06-1.08-.1-1-.11-.9-.14-.89-.18-.84-.18-.77-.19-.68c0-.08-.19-.58-.24-.72s-.19-.55-.24-.68l-.25-.62-.25-.56-.3-.64-.29-.57-.33-.59-.34-.58-.37-.59-.38-.58-.39-.59-.44-.64-.43-.6-.75-1c-.39-.54-.75-1-1.13-1.57l-.51-.73-.53-.78a82.14,82.14,0,0,1-4.62-7.79A71,71,0,0,1,88.43,107c-2-.63-4.08-1.35-6.07-2.15l-.15-.06-1.42-.59-.16-.08c-.54-.23-1-.45-1.55-.69l-.12,0c-.84-.39-1.72-.82-2.58-1.26a7.82,7.82,0,0,1-1.37-.73l-1.19-.66-1.4-.81-.27-.16-1.5-.93-.14-.09q-1.8-1.16-3.42-2.34l-.14-.1-1.49-1.12L65.15,95l-1.33-1.07-.32-.27-1.39-1.19-.22-.19q-1.72-1.53-3.3-3.12s-.18-.18-.18-.18c-.45-.46-.89-.92-1.34-1.4,0,0-.2-.21-.25-.28l-.2-.22c-.32-.34-.69-.76-1.06-1.18l-.42-.48c-.37-.44-.71-.84-1-1.26l-.43-.53c-.37-.46-.72-.9-1.06-1.35l-.35-.46c-.51-.67-1-1.27-1.38-1.89l-.33-.47c-.34-.48-.7-1-1-1.55-.16-.24-.58-.91-.58-.91-.23-.36-.47-.74-.7-1.12s-.39-.64-.58-1L47,73.76c-.21-.38-.42-.74-.62-1.12s-.4-.72-.59-1.08l0-.09-.57-1.1L44.47,69c-.15-.31-.32-.64-.48-1s-.25-.56-.38-.83L43.49,67c-.37-.81-.73-1.63-1.08-2.47l-.09-.23c-.13-.29-.25-.59-.38-.9s-.26-.66-.38-1l-.2-.51-.42-1.11c-.15-.43-.32-.89-.48-1.35L40,58.09l-.46-1.41c-.14-.44-.29-.93-.44-1.42L38.74,54c-.17-.59-.32-1.15-.47-1.72,0,0-.25-.9-.32-1.19-.15-.59-.3-1.2-.45-1.82a28.32,28.32,0,0,0-8.73-5l-.1,0A19.41,19.41,0,0,0,26,43.51C16.12,41.6,6.82,39.81,5.91,31a11.68,11.68,0,0,1,.34-4.57,10.61,10.61,0,0,1,2.51-9.81c2.06-2.26,5-3.65,8.85-4.21a28.38,28.38,0,0,1,13.48-3.5A26.18,26.18,0,0,1,35,9.2a13.26,13.26,0,0,1,2.24-.71c.38-.09.71-.15,1.07-.2l.31,0c.27,0,.56-.06.93-.09l.34,0h.5l.8,0c.19,0,.41,0,.63,0h.07l.54.05.51.08.44.07a25.73,25.73,0,0,1,4.93-.54,11.49,11.49,0,0,1,8.55-4.11c4.61,0,9.66,3.28,10.54,10.59a18.76,18.76,0,0,1,0,4.43c3.28,5.43,5,13,7.85,25.58,0,0,1,4.42,1.41,6.21,1.29,5.62,6.42,10.65,12.76,12.5a16,16,0,0,0,4.45.68,7.78,7.78,0,0,0,5.42-1.8,1.29,1.29,0,0,1,.17-.16c1.89-1.91,3.78-4.06,5.78-6.33,7.89-9,17.68-20.14,33.38-20.63h1.64c1.47,0,2.52,0,3.23-.07l.25,0a6.47,6.47,0,0,1,.66-.25c1.18-.6,2.21-2.26,3.74-4.84,2.88-4.85,7.7-13,19.33-13.37l1.65,0c6.06,0,11.09,1.27,15.36,3.87a30.43,30.43,0,0,1,7.62,6.87q.21.22.39.45l2,2.44.67.78.29.34.59.64.62.62.54.49-1.83,2.09v.12l1.92-2.13.55.44c2.32,1.77,7.66,3,12.82,4.3,6.49,1.56,13.85,3.33,20.6,7,.82.44,1.63.91,2.41,1.4l.89.41,1.1.55.95.51,1,.59.88.54.89.59.92.66.8.62.73.61c.06,0,.54.46.56.49l.4.36.66.64.73.76.36.41s.35.4.4.47.5.61.57.71.17.22.3.38l.35.49.57.84.41.66.14.24.32.58.14.25s.33.64.39.77.35.76.35.76.41,1,.43,1,.27.74.31.87.25.74.25.74l.09.31.23.85.17.69c0,.08.17.85.17.85a2.5,2.5,0,0,1,0,.29l.11.62c0,.09.12.89.12.89l.09.89a2.29,2.29,0,0,0,0,.25s.05.79.05.86,0,.79,0,.87v.3c.53,1.92,1,4,1.52,6.24A117.11,117.11,0,0,1,254.36,96a.86.86,0,0,1,0,.16c0,1.62,0,3.45,0,5.27,0,1.42,0,2.66-.11,3.82,0,0,0,0,0,0l.23.57c.08.23.17.48.25.73s.12.38.17.58.11.41.17.64c0,0,.09.41.12.55s.08.38.12.62c0,0,.07.44.08.49.05.32.09.66.13,1,0,0,0,.36,0,.36,0,.29.05.55.06.82,0,0,0,.87.05,1.08v1.49c0,.25,0,1.06,0,1.06s0,1,0,1c0,.27-.09,1.07-.09,1.07,0,.36-.06.68-.09,1l-.12,1.08s-.13,1-.14,1c3.19,10.09,7.16,16.2,8.23,17.21,8.32,7.4,3.28,15.46,1.63,18.11a17.3,17.3,0,0,0-2.85,6.58c-1.63,8.61.43,22,1.27,26a10.67,10.67,0,0,1-2,9.13,10.47,10.47,0,0,1-4.6,3.25A9.95,9.95,0,0,1,247.3,208H232.69a9.93,9.93,0,0,1-8.34-4.52,10.36,10.36,0,0,1-8.27,4.33L200,208a10.11,10.11,0,0,1-7.81-3.59,9.92,9.92,0,0,1-2.19-8.12c1.46-8.35,9.85-11.5,14.36-13.2,2.67-2.09,8.72-15.35,11.19-34.19.05-.36.08-.73.11-1.08s0-.65,0-1a14,14,0,0,0-.2-2.61c0-.27-.11-.55-.17-.82a17.72,17.72,0,0,0-.66-2.09,59.64,59.64,0,0,0-4.05-7.87,105.29,105.29,0,0,1-8.4-17.39c-10.79,7.8-22.88,9.81-32.16,9.89h-3.56l-2.36,0-.61,0-2.41-.09-1.73-.1-.09.45c-.76,4.22-.67,5.83-.59,6.35,4.67,9,7.14,14.48,7.78,29.29.38,8.63,4.23,16.16,6.78,21.13.67,1.31,1.25,2.44,1.69,3.47a10.53,10.53,0,0,1-.63,10.11,10.25,10.25,0,0,1-2,2.25,10.61,10.61,0,0,1-10.54,9.43l-15.7,0H146l-1,0a9.1,9.1,0,0,1-9.24-10.42,8.12,8.12,0,0,1-.64.81,10.19,10.19,0,0,1-2.77,2.27,11.61,11.61,0,0,1-2.44,3.79,11.45,11.45,0,0,1-8.35,3.56Zm32.44-42.08c-1.13,7.7-1.68,17.92-1.07,22.23a16.41,16.41,0,0,1,.12,4,12.77,12.77,0,0,1,8.33-5.64c-.22-2.07-.83-5.13-1.35-7.74l-.26-1.33a15.74,15.74,0,0,0-3.2-7.5A34.28,34.28,0,0,1,138.73,166.09Zm100.49-4a41.32,41.32,0,0,0-1.77,4.07c-.38,1-.8,2.07-1.26,3.18-1.95,4.8-4,9.76-3.27,16.57a23.23,23.23,0,0,1,2.22-.7,9.61,9.61,0,0,0,1.18-1.7C237.23,182,240.58,175,239.22,162.13Z"/>
        <g>
          <g>
            <path class="cls-4" d="M255,190.18c.86,3.94-4.57,2.33-6.2,2.6-.91.17-.54,3.54-.24,5.1a1.28,1.28,0,0,1-1.26,1.51H232.69a1.29,1.29,0,0,1-1.19-1.81c.63-1.37,2.24-3.14,6.41-4.11,6.42-1.48,15.89-19.89,5.94-50.08a31.42,31.42,0,0,0-13.95-17.31,48.65,48.65,0,0,1-5.51-3.75c-7.79-6.11-15.72-16.4-14.68-32.63.84-13.33,3.41-22.62,6.69-28.23,4.35-7.45,9.95-8.42,14.46-3.76,0,0,5.74,2.64,9.39,11.07,2.14,4.9,3.57,11.76,2.73,21.2a82.91,82.91,0,0,0,1.74,24.76c3.24,14.88,9.56,26.39,12.92,29.38,5.08,4.51-2,6.21-3.94,16.64S254.17,186.23,255,190.18Z"/>
            <path class="cls-4" d="M164,192.51a1,1,0,0,0-1.1,1.28l.76,3.37a2,2,0,0,1-1.91,2.4l-15.85.06c-.89,0-1.74.26-1.58-.63a4.34,4.34,0,0,1,4.23-4c8.39-.77,6.68-7.66,4.42-19.12s-6.77-10.15-8.46-19.56-4-14.28-4-14.28a167.74,167.74,0,0,1-11-23.17C124.51,105.49,125,99.12,125,98.46c.57-19.54,14.1-13.53,25.2-6,7.82,5.3,2.74,20.6.64,32.19-.88,4.85-1.22,9.06.11,11.61,4.51,8.65,6.39,13,7,25.94s7.46,23.69,9.15,27.64C168.18,192.5,165.72,192.67,164,192.51Z"/>
            <path class="cls-5" d="M150.8,124.64c-8,.68-14.29.4-21.23-5.73C124.51,105.49,125,99.12,125,98.46c.57-19.54,14.1-13.53,25.2-6C158,97.75,152.9,113.05,150.8,124.64Z"/>
            <path class="cls-5" d="M244.72,114.74a98.91,98.91,0,0,1-20.33,7.59c-7.79-6.11-15.72-16.4-14.68-32.63.84-13.33,3.41-22.62,6.69-28.23a114.51,114.51,0,0,1,23.85,7.31c2.14,4.9,3.57,11.76,2.73,21.2A82.91,82.91,0,0,0,244.72,114.74Z"/>
            <path class="cls-6" d="M213,94.08a7.46,7.46,0,0,1-2.15.43c-2.54-.28-9.59,22.56-40.89,22.85a156.13,156.13,0,0,1-36.44-4c-1.31-.31-2.59-.62-3.83-1l-1.11-.31c-8.45-2.3-15.29-5.05-19.64-7.63a18.69,18.69,0,0,1-4.12-3.13s-.34,0-1,0l-.58-.06a62.86,62.86,0,0,1-40-19.68c-7.44-8-14-19.36-17.57-35.28A5.7,5.7,0,0,0,45,44.64a4.92,4.92,0,0,0-.87-1.06,36.63,36.63,0,0,0-12.63-7.5A26.33,26.33,0,0,0,27.59,35C14,32.39,13.45,31,15.15,27.27l.06-.18a2.1,2.1,0,0,0,0-1.56h0c0-.08-.08-.16-.12-.24a2.2,2.2,0,0,1,.09-2.82c.72-.8,2.27-1.45,5.24-1.63h.06a19.16,19.16,0,0,1,13.62-3c9.06,1.53,12.26-3.94,20.59.43,7.24,3.8,8.19,11,13.53,34.26C70.38,62,78.46,68.88,87,71.36c6.77,2,13.8,1.19,18.33-3.23a1.49,1.49,0,0,0,.14-.12c9.71-9.71,18.12-24.07,33.41-24.55h.3c.59,0,1.2,0,1.82,0a15.33,15.33,0,0,0,6-.75c.19-.07.35-.13.52-.21,9.24-3.77,8.09-17.23,20.3-17.66,5.62-.2,9.37.86,12.2,2.59,5.26,3.19,7.39,8.66,12.61,12.64,7.37,5.61,22.76,5.65,34.56,12A27.31,27.31,0,0,1,238.8,63.5C247.49,79.9,221.16,91.7,213,94.08Z"/>
            <path class="cls-7" d="M211.63,89.63c-2.54-.28-9.59,22.56-40.89,22.84s-59.21-9.59-65.14-16.08c0,0-46.81-.41-59.17-55a8.24,8.24,0,0,0-1.51-2.65c-9-5.93-30.54-6.73-29.71-11.6a2,2,0,0,1,0,.45C13.49,31.25,14,32.39,27.59,35a26.33,26.33,0,0,1,3.95,1.06,36.63,36.63,0,0,1,12.63,7.5A4.92,4.92,0,0,1,45,44.64a5.7,5.7,0,0,1,.64,1.59c12.36,54.64,59.17,55.05,59.17,55.05,5.92,6.49,33.84,16.36,65.14,16.08s38.35-23.13,40.89-22.85c2.26.26,30.36-9.75,29.64-25C236.07,82,213.64,89.85,211.63,89.63Z"/>
            <path class="cls-8" d="M25,26.82A21.63,21.63,0,0,1,19.77,28,10.29,10.29,0,0,1,17,27.8a5.83,5.83,0,0,1-1.8-.71,2.1,2.1,0,0,0,0-1.56s.06,0,.09.08l.06.09,0,.06a2.51,2.51,0,0,0,.76.71,4.83,4.83,0,0,0,1.11.5,9.18,9.18,0,0,0,2.53.42,19.44,19.44,0,0,0,2.64-.12C23.28,27.17,24.15,27,25,26.82Z"/>
            <path class="cls-6" d="M47.27,24.34a3.36,3.36,0,0,1-.86,1.13c-1.51,1.37-4.18,1.61-6.67.45A7.44,7.44,0,0,1,37,23.72a4.44,4.44,0,0,1-.81-4.61c1.08-2.32,4.45-3,7.53-1.58S48.36,22,47.27,24.34Z"/>
            <path class="cls-9" d="M47.27,24.34a3.36,3.36,0,0,1-.86,1.13c-1.51,1.37-4.18,1.61-6.67.45A7.44,7.44,0,0,1,37,23.72a4.44,4.44,0,0,1-.81-4.61c1.08-2.32,4.45-3,7.53-1.58S48.36,22,47.27,24.34Z"/>
            <path class="cls-8" d="M52.23,21.46a1.94,1.94,0,0,0,2.29,1.43c2.06-.63,4.83-2.57,4.24-7.52C58,8.69,51.87,14.4,52.23,21.46Z"/>
            <path class="cls-6" d="M56.28,20.78A2,2,0,0,1,54,19.35a12,12,0,0,1,1.48-6.43c-1.73,1.27-3.44,4.7-3.24,8.54a1.94,1.94,0,0,0,2.29,1.43,5.93,5.93,0,0,0,3.67-3.06A6.54,6.54,0,0,1,56.28,20.78Z"/>
            <path class="cls-10" d="M45.49,24.07c0,1.61-3.66,1.38-5.17,1.38a2.93,2.93,0,0,1,0-5.85C41.83,19.6,45.49,22.45,45.49,24.07Z"/>
            <path class="cls-11" d="M46.9,24.39c0,1.62-3.66,1.39-5.17,1.39a2.93,2.93,0,0,1,0-5.85C43.24,19.93,46.9,22.78,46.9,24.39Z"/>
            <path class="cls-6" d="M245.74,101.34c0,1.36,0,2.72-.13,4.08-.1,3-.42,6.08-.79,9.09s-1,6-1.51,9c-.11.51-.24,1-.36,1.51-.59,2.45-1.24,4.89-2,7.29-.08-2.54,0-5,.11-7.53v-.31c0-.4,0-.82,0-1.23l.08-4.49.08-2.24v-2.23c0-1.5,0-3,.07-4.48s0-3,0-4.46c0-1.25,0-2.5,0-3.74,0-1.73-.08-3.45-.1-5.17-.2-5.92-.52-11.84-1.07-17.76s-1.26-11.84-2.39-17.79a64.36,64.36,0,0,1,5.89,17.27,107.7,107.7,0,0,1,2.07,18.16C245.74,98,245.77,99.66,245.74,101.34Z"/>
            <path class="cls-6" d="M243.12,113.55c-3.93-.27-5.61,1.5-5.39,21.23a2.75,2.75,0,0,0,2.4,2.71l1.41.19a2.36,2.36,0,0,0,2.58-1.77C245.58,130.08,249.15,113.7,243.12,113.55Z"/>
            <path class="cls-6" d="M243.12,113.55c-3.93-.27-5.61,1.5-5.39,21.23a2.75,2.75,0,0,0,2.4,2.71l1.41.19a2.36,2.36,0,0,0,2.58-1.77C245.58,130.08,249.15,113.7,243.12,113.55Z"/>
            <path class="cls-12" d="M245.74,101.34c0,1.36,0,2.72-.13,4.08-.1,3-.42,6.08-.79,9.09s-1,6-1.51,9c-.11.51-.24,1-.36,1.51l-.28,0-1.41-.19a1.25,1.25,0,0,1-.19,0v-.31l.25-22.87a3.7,3.7,0,0,1,2.92-.74A2.56,2.56,0,0,1,245.74,101.34Z"/>
            <path class="cls-6" d="M131,160.22c-1.7,8.09-2.82,22.75-1.89,29.32.61,4.25-1.66,4.43-3.34,4a1.21,1.21,0,0,0-1.46,1.32l.18,1.74a2.92,2.92,0,0,1-3,3l-15.14-.13a1.07,1.07,0,0,1-.88-1.66c1.45-2.23,4.87-3.5,7.74-4.17a8.32,8.32,0,0,0,6.08-6c1.85-7.21,4.45-20,1.71-27.06-4-10.15-2.07-16.16-2.07-16.16,2.63-19-4.4-25.2-9-32.15a65.87,65.87,0,0,1-6.05-11c-9.52-23.06,11.69-26.56,11.69-26.56a10.45,10.45,0,0,1,8.63,4c5.7,7,5.88,21.83,5.52,33.65-.09,2.92-.21,5.65-.29,8a55.24,55.24,0,0,0,0,7.13C130.6,137.29,132.68,152.13,131,160.22Z"/>
            <path class="cls-5" d="M47.3,21.87A3.56,3.56,0,0,1,47,23.4a3.12,3.12,0,0,1-.86,1.13c-1.5,1.37-4.17,1.61-6.66.45a7.44,7.44,0,0,1-2.78-2.2,5.57,5.57,0,0,1-.86-1.53A5,5,0,0,0,37,24.33a7.44,7.44,0,0,0,2.78,2.2c2.49,1.16,5.16.92,6.67-.45A3.36,3.36,0,0,0,47.27,25,3.92,3.92,0,0,0,47.3,21.87Z"/>
            <path class="cls-6" d="M47.3,21.25A3.58,3.58,0,0,1,47,22.79a3.12,3.12,0,0,1-.86,1.13c-1.5,1.37-4.17,1.61-6.66.45a7.44,7.44,0,0,1-2.78-2.2,5.63,5.63,0,0,1-.86-1.54A5,5,0,0,0,37,23.72a7.44,7.44,0,0,0,2.78,2.2c2.49,1.16,5.16.92,6.67-.45a3.36,3.36,0,0,0,.86-1.13A3.94,3.94,0,0,0,47.3,21.25Z"/>
            <path class="cls-13" d="M41.22,21.64a1.08,1.08,0,1,1-1.07-1.24A1.17,1.17,0,0,1,41.22,21.64Z"/>
            <path class="cls-6" d="M47.27,24.33a3.1,3.1,0,0,1-.87,1.14c-1.85-.36-3.33-3.1-6.06-4.79-.2-.11-.41-.24-.63-.35-3.92-2-2.93,2.66-2.75,3.39a4.44,4.44,0,0,1-.81-4.61c1.07-2.29,4.36-3,7.4-1.65l.12.06C46.75,19,48.36,22,47.27,24.33Z"/>
            <path class="cls-8" d="M52.91,34.15c-1,2.54-3.51,7.62-7.87,10.49a4.92,4.92,0,0,0-.87-1.06,36.63,36.63,0,0,0-12.63-7.5.26.26,0,0,0,0-.07c.29.16,13.5,6,20.9-2.13A.27.27,0,0,1,52.91,34.15Z"/>
            <path class="cls-8" d="M26.72,20.34c.08.26-.95.83-2.31,1.27s-2.53.59-2.62.33.95-.83,2.31-1.27S26.63,20.08,26.72,20.34Z"/>
            <path class="cls-14" d="M22.82,24.32c-5.14.81-7-.66-7.67-1.86.72-.8,2.27-1.45,5.24-1.63-.75.65,1.44,2.06,2.54,2.5A.52.52,0,0,1,22.82,24.32Z"/>
            <path class="cls-14" d="M43.55,17.46a6.79,6.79,0,0,0-3.21,3.22c-.2-.11-.41-.24-.63-.35-3.92-2-2.93,2.66-2.75,3.39a4.44,4.44,0,0,1-.81-4.61C37.22,16.82,40.51,16.1,43.55,17.46Z"/>
            <path class="cls-15" d="M103.3,101.19a62.86,62.86,0,0,1-40-19.68A103.73,103.73,0,0,0,87,71.36c6.77,2,13.8,1.19,18.33-3.23A59.9,59.9,0,0,0,103.3,101.19Z"/>
            <path class="cls-15" d="M223.66,64.25,216.89,84,213,94.08a7.46,7.46,0,0,1-2.15.43c-2.54-.28-9.59,22.56-40.89,22.85a156.13,156.13,0,0,1-36.44-4c-1.31-.31-2.59-.62-3.83-1l-1.11-.31c.84-.64-6.09-4.62-1.62-4,62.6,8.88,86-39.48,86-39.48Z"/>
            <path class="cls-6" d="M229.77,53.63s-31.7-7.31-23.59,43.14c5.08,31.58,20.21,36.1,17.95,53.3s-8.88,38.25-16.49,41.07c-6.35,2.35-8.68,4.18-9.12,6.68a1.39,1.39,0,0,0,1.41,1.58l16-.2a1.69,1.69,0,0,0,1.67-1.64,15.7,15.7,0,0,1,.91-4.54c.47-1.32,6.73.38,6-4.32-1.79-11.7,2.48-19.32,4.79-25.52,4.93-13.25,10.57-12.27,4.37-21.86s-2-38.06,2.82-50.75S248.38,61.8,229.77,53.63Z"/>
            <path class="cls-16" d="M230.08,53.76a3.83,3.83,0,0,0-.68-.21,22.27,22.27,0,0,0-3.52-.29l1.23-1.17c-11.8-6.35-27.19-6.39-34.56-12-2.91-2.22-4.86-4.9-6.93-7.4a2.76,2.76,0,0,0-4.86,1.51c-.42,3.83-2.79,7-9,8.06-11.59,1.89-24.33.26-24.33.26-.17.08-.37.08-.52.21-.61.57-2.07.69-7.61.72h-.18a25.93,25.93,0,0,0-4,.44,2.76,2.76,0,0,0-2.3,2.5,167.64,167.64,0,0,1-3.65,23.8,7.27,7.27,0,0,1-9.5,5.06,12.2,12.2,0,0,0-3.86-.58,2.88,2.88,0,0,0-.59.06c-2.55.54-20.23,5.09-11.39,26.51a65.87,65.87,0,0,0,6.05,11c4.61,6.92,11.6,13.12,9,31.95l-.06.32c-.25.92-1.52,6.75,2.1,16,2.74,7,.14,19.85-1.71,27.06a8.32,8.32,0,0,1-6.08,6c-2.87.67-6.29,1.94-7.74,4.17a1.07,1.07,0,0,0,.88,1.66l15.14.13a2.92,2.92,0,0,0,3-3l-.18-1.74a1.21,1.21,0,0,1,1.46-1.32c1.68.41,4,.23,3.34-4-.93-6.57.19-21.23,1.89-29.32s-.39-22.93-1.51-32.71a55.24,55.24,0,0,1,0-7.13c.07-2.1.17-4.46.26-7a3.29,3.29,0,0,1,.38-1.21c.22-.53-.11-2.07-.24-3.26a2.17,2.17,0,0,1,0-.36c0-.28,0-.56,0-.85s.19-.37.41-.32c-.14-.14-.26-.29-.4-.43,0-3.66-.06-7.43-.38-11A16,16,0,0,1,132.57,85a7,7,0,0,0,1.7-3.8c.19-11.18,4.5-14.79,8.74-17.3,13.26-7.85,32.58-7.36,51.71-.18a20.41,20.41,0,0,0,8.93,1.23,2.75,2.75,0,0,1,2.89,3.5c-1.91,6.43-2.42,15.52-.36,28.35,5.08,31.58,20.21,36.1,17.95,53.3s-8.88,38.25-16.49,41.07l-.23.09a4.17,4.17,0,0,0,1.54,8.06l7-.09a1.69,1.69,0,0,0,1.67-1.64,15.7,15.7,0,0,1,.91-4.54c.47-1.32,6.73.38,6-4.32-1.79-11.7,2.48-19.32,4.79-25.52,4.93-13.25,10.57-12.27,4.37-21.86s-2-38.06,2.82-50.75S248.31,62,230.08,53.76Z"/>
            <path class="cls-6" d="M243.68,106.64c-3.93-.27-5.6,1.5-5.39,21.24a2.77,2.77,0,0,0,2.4,2.71l1.41.18a2.36,2.36,0,0,0,2.59-1.77C246.15,123.17,249.71,106.79,243.68,106.64Z"/>
            <path class="cls-16" d="M245.51,107.4c0-.66.08-1.32.1-2,.09-1.36.12-2.72.13-4.08,0-1.68,0-3.36,0-5a107.7,107.7,0,0,0-2.07-18.16,64.36,64.36,0,0,0-5.89-17.27c1.13,5.95,1.84,11.86,2.39,17.79s.87,11.84,1.07,17.76c0,1.72.07,3.44.1,5.17,0,1.24,0,2.49,0,3.74,0,.54,0,1.09,0,1.63-2.26,1.15-3.22,5.67-3.06,20.92a2.77,2.77,0,0,0,2.4,2.71l.25,0c0,.56,0,1.12,0,1.68.17-.54.31-1.08.47-1.62l.67.09a2.36,2.36,0,0,0,2.59-1.77C246,123.9,248.86,110.71,245.51,107.4Z"/>
            <path class="cls-5" d="M244.69,129a2.36,2.36,0,0,1-2.59,1.77l-1.41-.18a2.77,2.77,0,0,1-2.4-2.71c0-3.52,0-6.45.07-8.91-.51,3.17-.72,8.13-.63,15.81a2.75,2.75,0,0,0,2.4,2.71l1.41.19a2.36,2.36,0,0,0,2.58-1.77c.86-3.44,2.46-10.54,2.38-15.82C246,123.59,245.2,127,244.69,129Z"/>
          </g>
          <path class="cls-17" d="M13.86,30.06c.19,2.39,3,3.54,13.6,5.59a26.21,26.21,0,0,1,3.86,1,36.42,36.42,0,0,1,12.41,7.36,4.55,4.55,0,0,1,.76.93,4.72,4.72,0,0,1,.56,1.4c.21.92.43,1.82.66,2.72.06.24.12.48.19.71l.1.36.42,1.57.33,1.1,0,.12c.14.44.27.89.41,1.32s.27.85.41,1.26.27.81.41,1.2.3.85.45,1.26.25.66.37,1l.16.42c.12.32.24.64.37,1l.33.78.11.26c.31.76.64,1.51,1,2.24l.15.33.3.66c.14.3.29.59.43.89l.21.41c.13.27.26.54.4.81s.37.72.56,1.07.34.65.52,1,.37.68.56,1l.57,1,0,.08.51.85.65,1,.14.22c.12.19.24.38.37.57.31.48.63,1,1,1.42l.27.39c.39.55.79,1.09,1.18,1.62l.38.48c.3.4.6.78.9,1.16l.42.51c.3.37.6.73.91,1.09l.39.45c.33.38.67.75,1,1.12l.2.22.11.12c.42.45.84.88,1.26,1.31l.11.12c.94.94,1.91,1.86,2.9,2.74l.23.2,1.2,1,.32.26c.39.32.78.64,1.17.94l.28.22c.46.35.91.7,1.37,1l.07,0c1,.7,2,1.39,3,2l.15.1c.45.29.88.55,1.31.81l.26.16,1.24.72.23.13c.44.25.89.5,1.34.73l.12.12h.1c.92.48,1.87.95,2.82,1.39l.06,0,1.34.6.19.08c.42.18.84.36,1.25.52l.14.06c1.78.72,3.6,1.36,5.41,1.91a59.51,59.51,0,0,0,12.68,2.48,66.22,66.22,0,0,0,6,10.78l.44.66c.17.24.32.44.46.65.38.54.74,1,1.09,1.52l.79,1.09.47.67.47.69.47.69.46.71.45.73.45.75.42.78.42.79.39.83c0,.1.34.77.38.86s.32.79.36.9.3.83.33.93.28.86.31,1,.07.22.1.33.16.57.18.68l.13.52,0,.14c0,.13.07.26.1.4s.14.69.14.69,0,.27.08.41l.06.38s.11.63.13.77,0,.28,0,.41l0,.35c0,.15,0,.3.05.45s.06.62.06.62l0,.21c0,.14,0,.29,0,.43s0,.3,0,.45l0,.36,0,.51c0,.15,0,.31,0,.46v.43c0,.16,0,.32,0,.49v.92c0,.17,0,.35,0,.52s0,.36,0,.54v.38l0,.59,0,.52,0,.47c0,.19,0,.39,0,.59s0,.39,0,.59l-.1,1.05c0,.19-.05.38-.07.57,0,0-.11.89-.14,1.09a1.55,1.55,0,0,1,0,.21l-.08.35.61.23-.63-.14-.08.4,0,.22c0,.14,0,.31-.07.47l0,.14c0,.22,0,.46-.07.72v.27c0,.19,0,.37,0,.58V148c0,.19,0,.39,0,.59s0,.44,0,.44c0,.2,0,.41,0,.63l0,.5c0,.22,0,.44.06.68s0,.36,0,.55l.09.73c0,.2,0,.4.08.6s.09.53.14.8.07.42.11.63.12.58.19.87l0,.12.12.54c.07.31.16.62.25.94l.06.24c0,.15.08.29.12.45.11.37.24.75.36,1.13,0,0,.14.46.19.58.19.59.41,1.2.65,1.81,2.69,6.9.07,19.67-1.72,26.67a7.68,7.68,0,0,1-5.61,5.58c-2.82.66-6.53,2-8.13,4.45a1.74,1.74,0,0,0-.08,1.75,1.68,1.68,0,0,0,1.5.9l15.18.14a3.53,3.53,0,0,0,2.58-1.1,3.59,3.59,0,0,0,1-2.62l-.19-1.78a.58.58,0,0,1,.16-.46.49.49,0,0,1,.38-.18l.13,0a5.38,5.38,0,0,0,1.27.16,2.79,2.79,0,0,0,2.19-.9c.72-.83.94-2.14.67-4-.94-6.63.26-21.34,1.88-29.1,1.54-7.35,0-20.27-1.12-29.71-.14-1.11-.26-2.19-.38-3.21a47.3,47.3,0,0,1-.09-5.53,177.85,177.85,0,0,0,10,20.5,65.5,65.5,0,0,1,3.88,14.08,19.14,19.14,0,0,0,3.92,9A23.24,23.24,0,0,1,152.35,176l.26,1.33c1.42,7.19,2.45,12.39.5,15-.87,1.17-2.37,1.83-4.61,2a4.94,4.94,0,0,0-4.8,4.45,1.22,1.22,0,0,0,.21,1.06,1.38,1.38,0,0,0,1.08.4,4,4,0,0,0,.48,0l.45,0,15.84,0a2.63,2.63,0,0,0,2.55-3.19l-.77-3.38a.39.39,0,0,1,.08-.35.36.36,0,0,1,.28-.14c.34,0,.65,0,1,0a3.14,3.14,0,0,0,2.8-1.07,2.66,2.66,0,0,0,0-2.56c-.33-.76-.83-1.74-1.46-3-2.69-5.26-7.2-14.06-7.65-24.44-.58-13.32-2.57-17.66-7-26.21-1.36-2.61-.74-7.35,0-11.19.35-2,.79-4,1.24-6.12l.31-1.44c1.79.18,3.61.34,5.4.46h.06c.87.06,1.74.11,2.62.15l.43,0,2.3.1h.58c.75,0,1.5,0,2.26,0H170c22-.2,32.26-11.7,36.3-16.94l0,.11c2.78,13.56,7.47,21.76,11.25,28.35a66.25,66.25,0,0,1,4.59,9,24.78,24.78,0,0,1,1,3.09c.1.42.19.84.26,1.27a21.27,21.27,0,0,1,.33,4.08c0,.49,0,1-.06,1.47s-.09,1-.16,1.54c-2.34,17.88-9,37.93-16.08,40.56l-.23.08c-6.29,2.36-8.8,4.28-9.29,7.09a2,2,0,0,0,.43,1.59,2.09,2.09,0,0,0,1.6.74l16.05-.19a2.35,2.35,0,0,0,2.31-2.27,14,14,0,0,1,.21-1.89,16.52,16.52,0,0,1,.64-2.41,5.79,5.79,0,0,1,1.47-.28c1.71-.21,4.58-.56,4.66-3.48a5.91,5.91,0,0,0-.06-.92c-1.49-9.74,1.32-16.67,3.59-22.24.42-1,.81-2,1.17-3a48.66,48.66,0,0,1,4.73-9.44c2.67-4.34,3.89-6.32-.43-13-1.73-2.67-2.75-7.23-2.95-13.23a30.9,30.9,0,0,1,5.76,5.08s0,1.41,0,2a3.41,3.41,0,0,0,2.36,3.21,4.15,4.15,0,0,0,.61.14l.84.1a31.57,31.57,0,0,1,2.34,5.35c8.49,25.76,2.19,40.11.06,43.89-1.68,3-3.7,4.94-5.53,5.36-4.43,1-6.17,3-6.85,4.46a1.91,1.91,0,0,0,.14,1.84,2,2,0,0,0,1.64.9H247.3a1.94,1.94,0,0,0,1.49-.7,1.91,1.91,0,0,0,.41-1.58,10.67,10.67,0,0,1-.18-4.35h.28c.33,0,.72,0,1.14.06s1.1.07,1.67.07a4,4,0,0,0,3.13-1,2.79,2.79,0,0,0,.4-2.45c-1-4.73-3.19-19.21-1.31-29.16a25.24,25.24,0,0,1,3.92-9.33c1.81-2.89,3.12-5-.18-7.91-2.86-2.55-7.66-11.16-10.94-22.14v-.44c0-.31,0-.62,0-.93l.11-.75.11-.9c0-.23.09-.78.09-.78l0-.17c0-.27.06-.54.08-.8,0,0,.06-.7.07-.88l.05-.86v-.38c0-.16,0-.32,0-.47v-1.2c0-.15,0-.31,0-.47v-.32c0-.2,0-.39-.05-.58l0-.23c0-.23-.05-.45-.08-.67l-.05-.26c0-.15,0-.29-.08-.43s-.06-.29-.06-.29l-.1-.37c0-.09-.05-.19-.08-.28l-.12-.34c0-.09-.07-.18-.11-.26a3.09,3.09,0,0,0-.14-.32c0-.09-.08-.17-.12-.23s-.13-.21-.19-.31l-.13-.19-.18-.22c0-.57.07-1.15.09-1.73.07-1.19.12-2.5.13-4.1s0-3.39,0-5A109.78,109.78,0,0,0,244.28,78c-.55-2.55-1.11-4.79-1.72-6.86l0-.68v-.64l0-.63,0-.63-.06-.63-.08-.63-.1-.62-.13-.61,0-.25-.65.06.63-.15-.07-.27-.17-.61-.19-.6-.22-.6-.1-.24-.64.15.6-.24-.1-.26-.27-.58-.29-.57-.33-.58-.14-.23-.61.25.55-.34-.15-.24-.22-.33-.15-.22-.2-.27c-.08-.11-.15-.19-.21-.28l-.43-.53-.23-.26-.24-.27-.49-.52-.26-.25-.27-.25-.25-.23-.31-.27-.58-.49-.62-.48-.32-.23a4,4,0,0,0-.34-.23l-.68-.46-.35-.22-.37-.22-.43-.25-.33-.19-.39-.21-.4-.21-.4-.2-.42-.21-.73-.34,0,0L230,53l-.07,0c-.8-.51-1.63-1-2.49-1.47-5.85-3.14-12.67-4.79-18.69-6.24-6.24-1.5-12.13-2.92-15.79-5.7l-1-.79-.19-.17-.12-.11-.6-.55-.34-.34-.51-.51-.34-.37c-.16-.17-.32-.34-.47-.52l-.34-.38-.45-.53-.32-.38-.9-1.09-1.25-1.53,0,0,0,0a23.06,23.06,0,0,0-5.79-5.34,21.12,21.12,0,0,0-11.2-2.7l-1.37,0c-7.26.25-10,4.93-12.73,9.45-2,3.45-4,6.7-7.78,8.25l-.13,0a1.5,1.5,0,0,0-.46.19,12.28,12.28,0,0,1-2.3.55c-.87,0-2.12.08-4.13.1h-1.35c-12.23.38-20,9.27-27.59,17.87-2.14,2.44-4.16,4.74-6.28,6.86l-.07.07-.06,0a15.35,15.35,0,0,1-11,4.07,24.08,24.08,0,0,1-6.7-1C78,68.06,70.77,60.84,68.82,52.35c-.51-2.22-1-4.29-1.42-6.23-3.33-14.7-4.9-21.64-8.78-25.72l.15-.29a8.7,8.7,0,0,0,.63-4.82c-.37-3.08-1.78-3.54-2.59-3.54-1.4,0-2.94,1.39-4,3.63l0,.07c-.09.18-.16.33-.22.48l-.06.15c-.06.15-.11.29-.16.43v0a12.47,12.47,0,0,0-4-.68,22.31,22.31,0,0,0-5,.75h0l-.53-.17-.34-.09L42,16.29l-.26,0-.15,0-.23,0-.21,0H41l-.27,0H40l-.48.05h-.07c-.19,0-.35.05-.5.08a5.42,5.42,0,0,0-2.34,1.15,18.64,18.64,0,0,1-2.46-.25,17.82,17.82,0,0,0-3.09-.26,20,20,0,0,0-10.86,3.27c-2.76.18-4.63.8-5.56,1.84a2.8,2.8,0,0,0-.16,3.6.91.91,0,0,1,.07.14l.05.12h0a1.58,1.58,0,0,1,0,1l0,.13A5.38,5.38,0,0,0,13.86,30.06Zm1.29-2.79.06-.18a2.1,2.1,0,0,0,0-1.56h0c0-.08-.08-.16-.12-.24a2.2,2.2,0,0,1,.09-2.82c.72-.8,2.27-1.45,5.24-1.63h.06a19.16,19.16,0,0,1,13.62-3,19.54,19.54,0,0,0,2.81.27,4.48,4.48,0,0,1,2.2-1.15h0l.42-.08h.1l.39,0h.71l.31,0,.26,0,.27,0,.31.06.23.05.35.09.21.07.38.13.07,0c3.06-.69,5.8-1.37,9.59.08l0-.07c0-.13.08-.25.12-.38a1.46,1.46,0,0,1,.07-.19,2.74,2.74,0,0,1,.15-.4l.06-.15c.06-.14.12-.29.19-.43l0-.09c1.73-3.6,4.82-4.92,5.38-.29a8,8,0,0,1-.57,4.46h0c-.11.21-.22.4-.34.59a.43.43,0,0,1,0,.07c4.53,4.4,5.93,12.62,10.38,32C70.38,62,78.46,68.88,87,71.36c6.77,2,13.8,1.19,18.33-3.23a1.49,1.49,0,0,0,.14-.12c9.71-9.71,18.12-24.07,33.41-24.55h.3c.34,0,.7,0,1.05,0,1.89,0,3.24-.05,4.22-.11a13.68,13.68,0,0,0,2.52-.61c.15-.13.35-.13.52-.21,9.24-3.77,8.09-17.23,20.3-17.66,5.62-.2,9.37.86,12.2,2.59a22.74,22.74,0,0,1,5.67,5.24h0c.08.1.15.2.23.29l.52.63.63.78.32.39.47.57.32.38.46.54.34.38.48.53.35.37.52.53.36.35c.2.19.4.38.61.56l.32.29c.32.27.65.55,1,.81,7.37,5.61,22.76,5.65,34.56,12,.87.47,1.72,1,2.55,1.51l.11,0,.27.12h0l.27.13.42.2.41.2.4.2.39.2.38.21.38.21.36.21.35.22c.12.07.24.14.35.22l.34.22.33.22.32.23.31.22.31.24.29.22.29.24.28.24.28.24.26.24.26.25.25.24.24.25.23.25.23.25.22.26.22.26.2.25.2.27.19.26.18.26.18.27c.06.09.12.18.17.27l.17.27.15.27c.05.09.11.18.15.27l.15.28.14.27c0,.1.09.19.13.29l.12.27c0,.1.08.19.12.29l.12.28c0,.09.07.19.1.29a2.31,2.31,0,0,1,.1.28c0,.1.07.19.1.29l.09.29a2.45,2.45,0,0,1,.08.29c0,.1.06.19.08.29s0,.2.08.3l.06.29c0,.1,0,.2.06.3l.06.29c0,.1,0,.2.05.3s0,.2,0,.3,0,.2,0,.3,0,.2,0,.3l0,.31,0,.3c0,.1,0,.2,0,.31s0,.2,0,.3,0,.21,0,.31,0,.2,0,.3v.94c0,.1,0,.2,0,.3a.76.76,0,0,1,0,.15c.67,2.28,1.24,4.59,1.74,6.91a107.7,107.7,0,0,1,2.07,18.16c0,1.68.05,3.36,0,5,0,1.36,0,2.72-.13,4.08,0,.66-.06,1.32-.1,2h0l.08.09.24.28s.07.11.11.17l.16.26.11.21c0,.09.09.18.13.28l.09.24a2.83,2.83,0,0,1,.11.31c0,.08.05.17.08.26l.09.34.06.27c0,.13,0,.27.07.4s0,.17,0,.26.05.42.08.63a1.64,1.64,0,0,0,0,.23c0,.18,0,.37,0,.56s0,.21,0,.31,0,.3,0,.46,0,.23,0,.35v.45c0,.12,0,.24,0,.37s0,.3,0,.46,0,.24,0,.37,0,.32,0,.49l0,.36c0,.17,0,.35,0,.53s0,.22,0,.33c0,.26,0,.52-.08.79l0,.25c0,.23-.05.46-.08.69s0,.24,0,.36-.05.35-.07.53l-.06.38-.06.42c0,.31,0,.63,0,1,0,0,0,.1,0,.15s0,.26,0,.39c3.42,11.49,8.34,20,11.16,22.53,5.08,4.51-2,6.21-3.94,16.64s.47,25.47,1.3,29.42-4.57,2.33-6.2,2.6c-.91.17-.54,3.54-.24,5.1a1.28,1.28,0,0,1-1.26,1.51H232.69a1.29,1.29,0,0,1-1.19-1.81c.63-1.37,2.24-3.14,6.41-4.11,6.42-1.48,15.89-19.89,5.94-50.08a31.19,31.19,0,0,0-2.56-5.75l-1.16-.15a2,2,0,0,1-.49-.11,2.75,2.75,0,0,1-1.91-2.6h0c0-.55,0-1.09,0-1.62,0-.17,0-.34,0-.51v-.07a30.92,30.92,0,0,0-7.08-6.05c.1,6.19,1,11.57,3.09,14.79,6.2,9.59.56,8.61-4.37,21.86-2.31,6.2-6.58,13.82-4.79,25.52a4.63,4.63,0,0,1,.05.81c-.1,3.69-5.63,2.28-6.07,3.51a15.34,15.34,0,0,0-.68,2.56,13.87,13.87,0,0,0-.23,2,1.74,1.74,0,0,1-.3.92,1.7,1.7,0,0,1-1.37.72l-16,.2a1.39,1.39,0,0,1-1.41-1.58c.44-2.46,2.71-4.28,8.85-6.58h0l.23-.09c7.61-2.82,14.24-23.87,16.49-41.07.07-.54.13-1.07.16-1.58s.06-1,.07-1.51a21.86,21.86,0,0,0-.34-4.2c-.08-.44-.17-.88-.27-1.31a25.28,25.28,0,0,0-1-3.17c-3.46-9.12-11.71-17.23-15.8-37.26-.11-.5-.2-1-.3-1.52-5,6.66-15,17.64-36.67,17.84h-3.34l-2.25,0-.58,0-2.29-.09-.43,0-2.61-.15h-.06q-3-.21-6-.52c-.58,2.8-1.2,5.57-1.67,8.15-.88,4.85-1.22,9.06.11,11.61,4.51,8.65,6.39,13,7,25.94s7.46,23.69,9.15,27.64c1.16,2.67-1.3,2.84-3,2.68a1,1,0,0,0-1.1,1.28l.76,3.37a2,2,0,0,1-1.91,2.4l-15.85.06c-.89,0-1.74.26-1.58-.63a4.34,4.34,0,0,1,4.23-4c8.39-.77,6.68-7.66,4.42-19.12s-6.77-10.15-8.46-19.56-4-14.28-4-14.28a167.74,167.74,0,0,1-11-23.17l-.08-.2c0,.57,0,1.13-.06,1.67a55.24,55.24,0,0,0,0,7.13c1.12,9.78,3.2,24.62,1.51,32.71s-2.82,22.75-1.89,29.32c.61,4.25-1.66,4.43-3.34,4a1.21,1.21,0,0,0-1.46,1.32l.18,1.74a2.92,2.92,0,0,1-3,3l-15.14-.13a1.07,1.07,0,0,1-.88-1.66c1.45-2.23,4.87-3.5,7.74-4.17a8.32,8.32,0,0,0,6.08-6c1.85-7.21,4.45-20,1.71-27.06-.24-.61-.46-1.2-.65-1.78-.07-.2-.12-.38-.18-.58-.13-.37-.25-.75-.35-1.12s-.12-.42-.18-.64-.18-.64-.25-.95l-.15-.65c-.06-.29-.13-.58-.18-.85s-.08-.42-.12-.63-.09-.52-.13-.78,0-.39-.08-.58-.06-.49-.09-.72,0-.36,0-.54,0-.45,0-.67l0-.48c0-.21,0-.42,0-.62s0-.28,0-.42,0-.39,0-.57,0-.25,0-.36,0-.38,0-.56,0-.17,0-.26q0-.37.06-.69a.69.69,0,0,0,0-.13c0-.16,0-.32.06-.46a1.77,1.77,0,0,0,0-.2c0-.09,0-.19,0-.26l0-.18a1.36,1.36,0,0,0,0-.17l0-.13,0-.06a2.5,2.5,0,0,0,0-.29c0-.28.07-.55.11-.82s.07-.57.1-.85.06-.56.08-.85.06-.54.08-.81,0-.54.06-.81,0-.53,0-.79l0-.77c0-.25,0-.51,0-.75s0-.5,0-.75v-.72c0-.24,0-.47,0-.7s0-.47,0-.7,0-.45,0-.67,0-.45,0-.67l-.06-.65c0-.21,0-.42-.06-.63s-.05-.41-.07-.62,0-.41-.08-.61-.07-.4-.1-.59l-.09-.59-.12-.57c0-.18-.07-.37-.11-.55s-.09-.37-.13-.55-.08-.36-.13-.53-.1-.35-.14-.52l-.15-.52-.15-.49c-.06-.17-.11-.34-.17-.5s-.11-.32-.17-.47-.11-.33-.17-.48l-.18-.46-.18-.46c-.06-.14-.13-.29-.19-.44s-.13-.29-.2-.44-.13-.27-.2-.41-.13-.29-.2-.43-.14-.26-.2-.39l-.23-.43-.2-.37-.23-.42-.21-.36-.24-.4-.21-.35c-.09-.13-.17-.26-.25-.39l-.21-.32c-.08-.14-.17-.27-.26-.41l-.19-.29c-.1-.13-.19-.27-.28-.41l-.19-.27-.29-.42-.19-.27-.28-.4-.15-.2c-.57-.8-1.14-1.58-1.69-2.36l0,0-.43-.62,0,0c-.15-.22-.3-.43-.44-.65a65.87,65.87,0,0,1-6.05-11l-.24,0A58.44,58.44,0,0,1,91,98.78l0,0c-1.7-.51-3.49-1.14-5.35-1.89l-.14-.06c-.41-.16-.83-.33-1.24-.51L84,96.22l-1.29-.58-.1,0c-1-.45-1.94-.93-2.93-1.45h0c-.47-.25-.94-.5-1.41-.77l-.22-.12-1.23-.72-.26-.15-1.27-.79-.18-.11c-1-.64-2-1.31-3-2l-.07,0q-.67-.5-1.35-1l-.28-.22c-.39-.3-.78-.61-1.16-.93L69,87l-1.19-1-.23-.2q-1.44-1.27-2.85-2.7l-.12-.13c-.42-.42-.83-.85-1.24-1.29l-.12-.12-.19-.22-1-1.1-.39-.45-.9-1.08c-.14-.17-.28-.33-.41-.5L59.47,77l-.37-.48c-.39-.52-.78-1.06-1.17-1.6l-.27-.39-.94-1.4-.51-.79-.63-1c-.19-.3-.37-.61-.55-.92s-.38-.64-.56-1-.38-.66-.56-1-.35-.63-.52-.95-.37-.71-.55-1.07-.33-.64-.49-1l-.54-1.12-.45-1c-.33-.72-.65-1.46-1-2.22-.14-.34-.29-.68-.43-1s-.32-.81-.47-1.22-.29-.74-.42-1.11l-.45-1.25c-.13-.39-.27-.79-.4-1.19s-.28-.83-.41-1.25-.27-.87-.41-1.32-.24-.8-.35-1.21-.29-1-.43-1.55l-.29-1.07c-.22-.89-.44-1.79-.65-2.71A5.7,5.7,0,0,0,45,44.64a4.92,4.92,0,0,0-.87-1.06,36.63,36.63,0,0,0-12.63-7.5A27.59,27.59,0,0,0,27.59,35c-10.07-2-13-3.08-13.09-5A4.79,4.79,0,0,1,15.15,27.27Z"/>
        </g>
      </g>
    </g>
  </g>
</svg>
