<svg id="Layer_1" data-name="Layer 1" xmlns="http://www.w3.org/2000/svg" width="220.44" height="308.6" viewBox="0 0 220.44 308.6">
  <defs>
    <style>
      .cls-1 {
        fill: #ff0;
      }

      .cls-2 {
        fill: #c6fcfc;
      }

      .cls-2, .cls-3, .cls-4, .cls-5, .cls-6, .cls-7, .cls-8, .cls-9 {
        stroke: #444949;
        stroke-miterlimit: 10;
      }

      .cls-2, .cls-3, .cls-4, .cls-5, .cls-6, .cls-7 {
        opacity: 0.62;
      }

      .cls-3 {
        fill: #e87e6d;
      }

      .cls-4 {
        fill: #fcf6f6;
      }

      .cls-5 {
        fill: #ce5434;
      }

      .cls-6 {
        fill: #dd6b54;
      }

      .cls-7 {
        fill: #cff8fe;
      }

      .cls-8 {
        fill: #fcd43c;
      }

      .cls-9 {
        fill: #d9b735;
      }

      .cls-10 {
        fill: #fff;
      }
    </style>
  </defs>
  <g>
    <path class="cls-1" d="M214.28,61.25A15.4,15.4,0,0,0,202,55.11a15.22,15.22,0,0,0-9.2,3.07L164,79.84a15.33,15.33,0,0,0-2.47,2.35l-5.91-6.08a15.12,15.12,0,0,0,2.81-4.85l12.88-36.63a15.32,15.32,0,1,0-28.89-10.18L129.48,61.08a15.25,15.25,0,0,0-.83,6.12h-3.83a15.54,15.54,0,0,0,.72-4.65v-43a15.32,15.32,0,0,0-30.64,0v43a15.54,15.54,0,0,0,.72,4.65H91.79A15.27,15.27,0,0,0,91,61.08L78.07,24.44A15.32,15.32,0,0,0,49.16,34.62L62.05,71.24a15.21,15.21,0,0,0,2.81,4.87L59,82.18a15.88,15.88,0,0,0-2.49-2.35L27.62,58.18a15.22,15.22,0,0,0-9.2-3.07A15.45,15.45,0,0,0,6.16,61.24,15.34,15.34,0,0,0,9.23,82.69l28.85,21.65a15.39,15.39,0,0,0,4.12,2.19,12.62,12.62,0,0,0,2.88,6.36l28.85,33.74a83,83,0,1,0,72.57,0l28.84-33.73a12.55,12.55,0,0,0,2.88-6.36,15.23,15.23,0,0,0,4.14-2.19L211.19,82.7a15.32,15.32,0,0,0,3.09-21.45ZM110.22,260.12a38.84,38.84,0,1,1,38.83-38.83A38.88,38.88,0,0,1,110.22,260.12Z"/>
    <g id="ring">
      <g>
        <g>
          <polygon class="cls-2" points="165.76 104.69 141.58 79.81 132.9 104.69 165.76 104.69"/>
          <polygon class="cls-3" points="132.9 104.69 141.58 79.81 110.21 79.81 78.85 79.81 87.54 104.69 132.9 104.69"/>
          <polygon class="cls-4" points="78.85 79.81 54.66 104.69 87.54 104.69 78.85 79.81"/>
          <polygon class="cls-5" points="132.9 104.69 110.21 169.66 165.76 104.69 165.76 104.69 132.9 104.69"/>
          <polygon class="cls-6" points="54.66 104.69 54.66 104.69 110.21 169.66 87.54 104.69 54.66 104.69"/>
          <polygon class="cls-7" points="87.54 104.69 110.21 169.66 132.9 104.69 87.54 104.69"/>
        </g>
        <path class="cls-8" d="M110.22,150.85a70.44,70.44,0,1,0,70.43,70.44A70.52,70.52,0,0,0,110.22,150.85Zm0,130.71a60.28,60.28,0,1,1,60.27-60.27A60.27,60.27,0,0,1,110.21,281.56Z"/>
        <path class="cls-9" d="M110.21,161a60.28,60.28,0,1,0,60.27,60.28A60.27,60.27,0,0,0,110.21,161Zm0,111.72a51.44,51.44,0,1,1,51.44-51.44A51.5,51.5,0,0,1,110.22,272.73Z"/>
        <path class="cls-10" d="M110.22,65.27a2.71,2.71,0,0,1-2.71-2.72v-43a2.71,2.71,0,1,1,5.42,0v43A2.71,2.71,0,0,1,110.22,65.27Z"/>
        <path class="cls-10" d="M143.93,68.89a2.55,2.55,0,0,1-.9-.16,2.71,2.71,0,0,1-1.66-3.46l12.89-36.64a2.71,2.71,0,1,1,5.12,1.8L146.49,67.07A2.71,2.71,0,0,1,143.93,68.89Z"/>
        <path class="cls-10" d="M173.16,94.8a2.72,2.72,0,0,1-1.63-4.89l28.86-21.65a2.71,2.71,0,0,1,3.25,4.34L174.79,94.26A2.75,2.75,0,0,1,173.16,94.8Z"/>
        <path class="cls-10" d="M76.51,68.89A2.71,2.71,0,0,1,74,67.07L61.06,30.43a2.71,2.71,0,1,1,5.12-1.8L79.07,65.27a2.73,2.73,0,0,1-1.66,3.46A2.59,2.59,0,0,1,76.51,68.89Z"/>
        <path class="cls-10" d="M47.27,94.8a2.74,2.74,0,0,1-1.62-.54L16.79,72.6a2.71,2.71,0,1,1,3.26-4.34L48.91,89.91a2.72,2.72,0,0,1-1.64,4.89Z"/>
      </g>
    </g>
  </g>
</svg>
