<svg id="Layer_1" data-name="Layer 1" xmlns="http://www.w3.org/2000/svg" width="200.39" height="302.63" viewBox="0 0 200.39 302.63">
  <defs>
    <style>
      .cls-1 {
        opacity: 0.5;
      }

      .cls-2 {
        fill: #fff;
      }

      .cls-3, .cls-5 {
        fill: #fbd3c7;
      }

      .cls-13, .cls-15, .cls-16, .cls-3, .cls-47, .cls-5, .cls-9 {
        stroke: #453323;
      }

      .cls-10, .cls-11, .cls-13, .cls-14, .cls-15, .cls-16, .cls-17, .cls-18, .cls-20, .cls-27, .cls-28, .cls-3, .cls-47, .cls-5, .cls-9 {
        stroke-miterlimit: 10;
      }

      .cls-13, .cls-15, .cls-16, .cls-17, .cls-18, .cls-3, .cls-9 {
        stroke-width: 0.5px;
      }

      .cls-4 {
        fill: #e4a68d;
      }

      .cls-6 {
        fill: #161616;
      }

      .cls-7 {
        fill: #303030;
      }

      .cls-8 {
        fill: #f8e1db;
      }

      .cls-9 {
        fill: #bcd0eb;
      }

      .cls-10, .cls-18 {
        fill: #3096d2;
        stroke: #2c3581;
      }

      .cls-11 {
        fill: #864a30;
        stroke: #68321e;
      }

      .cls-12, .cls-13 {
        fill: #f6e982;
      }

      .cls-14 {
        fill: #2455a3;
        stroke: #2d2b7a;
      }

      .cls-15, .cls-47 {
        fill: none;
      }

      .cls-16 {
        fill: #7595cc;
      }

      .cls-17 {
        fill: #d6e5f5;
        stroke: #395a72;
      }

      .cls-19 {
        fill: #2c3581;
      }

      .cls-20 {
        fill: #d95c78;
        stroke: #8d2338;
      }

      .cls-21, .cls-27 {
        fill: #d6ebf4;
      }

      .cls-22 {
        fill: #98784d;
      }

      .cls-23 {
        fill: #ba7e70;
      }

      .cls-24 {
        fill: #dee8ee;
      }

      .cls-25 {
        fill: #580d0d;
      }

      .cls-26 {
        fill: #a04c43;
      }

      .cls-27 {
        stroke: #98784d;
      }

      .cls-28 {
        fill: #3f1d1d;
        stroke: #221f1f;
      }

      .cls-29 {
        fill: #431b15;
      }

      .cls-30 {
        fill: #c48a74;
      }

      .cls-31 {
        fill: #451e15;
      }

      .cls-32 {
        fill: #7a4922;
      }

      .cls-33 {
        fill: #841212;
      }

      .cls-34 {
        fill: #590c02;
      }

      .cls-35 {
        fill: #d9d9d9;
      }

      .cls-36 {
        fill: #f5f5f5;
      }

      .cls-37 {
        fill: #881313;
      }

      .cls-38 {
        fill: #bd1622;
      }

      .cls-39 {
        fill: #cd1625;
      }

      .cls-40 {
        fill: #005087;
      }

      .cls-41 {
        fill: #b1b1b1;
      }

      .cls-42 {
        fill: #630e05;
      }

      .cls-43 {
        fill: #9c1519;
      }

      .cls-44 {
        fill: #c6c6c5;
      }

      .cls-45 {
        fill: #d04240;
      }

      .cls-46 {
        fill: #ececec;
      }
    </style>
  </defs>
  <g>
    <path class="cls-1" d="M54.42,300a36.67,36.67,0,0,1-7.33-.78c-6.06-1.24-10.16-3.94-12.18-8a12.56,12.56,0,0,1-.35-10.14c0-.25.1-.49.16-.74A14.38,14.38,0,0,1,42,271.15l3.67-1.92c.21-.2.42-.38.63-.55l.21-.3a13.58,13.58,0,0,1,1.48-7,11.72,11.72,0,0,1,3.6-4.09l.36-1.19a8.56,8.56,0,0,1,.38-3.36l1-2.94a8.55,8.55,0,0,1,1.33-2.54l1.48-4.91a8,8,0,0,1,.71-4.41c.27-.94,1.12-4.41,2.79-15.1a150.12,150.12,0,0,1,3.64-17.44l.16-1.39a22.17,22.17,0,0,1-1.29-2.2,7.94,7.94,0,0,1-.63-5.58L64,186.31l-1.09.65A70.68,70.68,0,0,1,49.1,197.43a11,11,0,0,1,2.52,5,10.09,10.09,0,0,1-2,8.52,10.71,10.71,0,0,1-8.26,3.95A9.32,9.32,0,0,1,40,214.8a13.63,13.63,0,0,1-5.65,7,10.31,10.31,0,0,1-5.18,1.46,8.82,8.82,0,0,1-5.45-1.85,10.31,10.31,0,0,1-1.11.05l-.81,0a8.82,8.82,0,0,1-7.47-5.39l0,0a8.8,8.8,0,0,1-1.85-2.9,9,9,0,0,1-3.32-5.51c-.8-4.5,2-7.9,3.28-9.54l0,0c.14-.3.28-.59.41-.88a19.35,19.35,0,0,1,4.75-6.86l.18-.16a10,10,0,0,0,1.33-1.27c.1-.16.19-.33.29-.5a16.38,16.38,0,0,1,2.25-3.29l.32-.36,6.3-7.63A83.39,83.39,0,0,1,43.93,162c.18-.14.38-.28.58-.41l.35-.23c.46-.31.91-.61,1.35-.88l.63-.4a8.1,8.1,0,0,1,1-2.69C50.7,152.81,59.72,146.4,68,141.13a44.34,44.34,0,0,1-9.24-5.88,14.51,14.51,0,0,1-4.88.84c-5.67,0-11.08-3.09-15.23-8.69-1.29-1.74-6.71-9.56-6.07-17.14a24.63,24.63,0,0,1-7.86-11.21c-5.74-4.49-12.43-13.49-10-25.83a23.77,23.77,0,0,1-1.75-16c1.57-6,5.58-11,11.94-14.9C26.32,33.78,31,22.72,41.76,19,45.54,15.27,54.76,7.6,66.9,7.6a29.68,29.68,0,0,1,12.22,2.66,29.25,29.25,0,0,1,9.75-1.7c5.28,0,13,1.52,20.8,8.46,6.48,2,15.5,7.16,17.84,16.74a15.85,15.85,0,0,1,6.67,7.78,15.05,15.05,0,0,1,.29,9.73,14.85,14.85,0,0,1,2.91,6.22c.62,3,.52,7.4-2.78,12.43l.08.65a14.72,14.72,0,0,1,2.51,2.25c.06-.06.45-.56.45-.56.24-.3.46-.6.69-.9l.12-.16c.29-.39.54-.75.8-1.11l.68-1,6.7,4.37L140,69l.25-.38.47-.74.24-.38c.21-.34.41-.68.61-1,0,0,.48-.84.59-1l.68-1.27.46-.91c.14-.28.27-.56.4-.84l.5-1.09.57-1.35c.29-.7.56-1.4.8-2.08,0-.11.07-.21.11-.31s.24-.69.25-.72c.25-.74.48-1.5.69-2.26,0,0,.18-.68.25-.93l.28-1.2c.07-.28.12-.53.16-.77l.14-.73.13-.87c0-.12,0-.26,0-.39a8.12,8.12,0,0,1,3.4-5.86,8.37,8.37,0,0,1,4.78-1.5c3.2,0,6.51,0,20,18.44a17,17,0,0,1,7.94,5.37l.15.18.17.22c.2.26.4.52.59.8a16.81,16.81,0,0,1,3,10.85c2.5,4,4.56,7.61,6,10.5,1.71,3.4,5.73,11.36-.83,15.86A8.34,8.34,0,0,1,188,106h0a8.86,8.86,0,0,1-3.37-.68l-.66-.12-.68-.11c-.75-.12-1.53-.21-2.32-.29l-.91-.07-1.07-.07H179l-1,0h-.1l-1.12,0h-.2c-1.17,0-2.35,0-3.52.12h0l-1.31.11h-.1l-1.26.13-.16,0-.89.12-.13,0c-1,.14-1.88.29-2.8.48.28.19.54.4.8.61a10.9,10.9,0,0,1,7.57,4.28,9.47,9.47,0,0,1,2.5,2.51,9.33,9.33,0,0,1,1.12,1.8,7.85,7.85,0,0,1,.95,3.85,10.67,10.67,0,0,1-3.11,8.06A80.31,80.31,0,0,1,169,137.26c-4.47,11.09-12.59,17-19.58,20.5a34.88,34.88,0,0,1-2.12,5.89,8,8,0,0,1-6.68,4.63l-11.24.82.1,2.77,4.17,23.39a8,8,0,0,1-.83,5.2,27.74,27.74,0,0,1-3.08,4.36,12.67,12.67,0,0,1,.86,6.89c-.26,1.75-1.81,17.71-3.13,31.82a8.08,8.08,0,0,1-1.61,4.13,23.74,23.74,0,0,1-9.28,6.75,13,13,0,0,1-1,5.79,9.36,9.36,0,0,1,1.06,1.92,8.94,8.94,0,0,1,3.22,1c10.83,3.19,13.4,9.21,13.93,12.8a12.75,12.75,0,0,1-.77,8.74,8.13,8.13,0,0,1-.76,1.23c-3.11,4.19-9,6.14-18.54,6.14a71,71,0,0,1-13.37-1.22,140.52,140.52,0,0,1-14.12-4.3,8.08,8.08,0,0,1-4.4-3.89,15.84,15.84,0,0,1-1.44-9.31,11.52,11.52,0,0,1-.64,1l.23,6.49a7.89,7.89,0,0,1-.72,3.61,8,8,0,0,1-2,4.38,11,11,0,0,1-5.08,3.07C69.51,296.3,63.26,300,54.42,300Zm29.5-43.81c0,.32,0,.64,0,1l.18-.16q0-.43.06-.87l-.18,0Zm53.32-125.76a22.09,22.09,0,0,1-2.21-5.13c0-.14-.08-.27-.11-.4a47.65,47.65,0,0,1-3.16,4.66Z"/>
    <path class="cls-2" d="M49.42,295a36.67,36.67,0,0,1-7.33-.78c-6.06-1.24-10.16-3.94-12.18-8a12.56,12.56,0,0,1-.35-10.14c.05-.25.1-.49.16-.74A14.38,14.38,0,0,1,37,266.15l3.67-1.92c.21-.2.42-.38.63-.55l.21-.3a13.58,13.58,0,0,1,1.48-7,11.72,11.72,0,0,1,3.6-4.09l.36-1.19a8.56,8.56,0,0,1,.38-3.36l1-2.94a8.55,8.55,0,0,1,1.33-2.54l1.48-4.91a8,8,0,0,1,.71-4.41c.27-.94,1.12-4.41,2.79-15.1a150.12,150.12,0,0,1,3.64-17.44l.16-1.39a22.17,22.17,0,0,1-1.29-2.2,7.94,7.94,0,0,1-.63-5.58L59,181.31l-1.09.65A70.68,70.68,0,0,1,44.1,192.43a11,11,0,0,1,2.52,5,10.09,10.09,0,0,1-2,8.52,10.71,10.71,0,0,1-8.26,3.95A9.32,9.32,0,0,1,35,209.8a13.63,13.63,0,0,1-5.65,7,10.31,10.31,0,0,1-5.18,1.46,8.82,8.82,0,0,1-5.45-1.85,10.31,10.31,0,0,1-1.11.05l-.81,0a8.82,8.82,0,0,1-7.47-5.39l0,0a8.8,8.8,0,0,1-1.85-2.9,9,9,0,0,1-3.32-5.51c-.8-4.5,2-7.9,3.28-9.54l0,0c.14-.3.28-.59.41-.88a19.35,19.35,0,0,1,4.75-6.86l.18-.16a10,10,0,0,0,1.33-1.27c.1-.16.19-.33.29-.5a16.38,16.38,0,0,1,2.25-3.29l.32-.36,6.3-7.63A83.39,83.39,0,0,1,38.93,157c.18-.14.38-.28.58-.41l.35-.23c.46-.31.91-.61,1.35-.88l.63-.4a8.1,8.1,0,0,1,1-2.69C45.7,147.81,54.72,141.4,63,136.13a44.34,44.34,0,0,1-9.24-5.88,14.51,14.51,0,0,1-4.88.84c-5.67,0-11.08-3.09-15.23-8.69-1.29-1.74-6.71-9.56-6.07-17.14a24.63,24.63,0,0,1-7.86-11.21C14,89.56,7.31,80.56,9.69,68.22a23.77,23.77,0,0,1-1.75-16c1.57-6,5.58-11,11.94-14.9C21.32,28.78,26,17.72,36.76,14,40.54,10.27,49.76,2.6,61.9,2.6A29.68,29.68,0,0,1,74.12,5.26a29.25,29.25,0,0,1,9.75-1.7c5.28,0,13,1.52,20.8,8.46,6.48,2,15.5,7.16,17.84,16.74a15.85,15.85,0,0,1,6.67,7.78,15.05,15.05,0,0,1,.29,9.73,14.85,14.85,0,0,1,2.91,6.22c.62,3,.52,7.4-2.78,12.43l.08.65a14.72,14.72,0,0,1,2.51,2.25c.06-.06.45-.56.45-.56.24-.3.46-.6.69-.9l.12-.16c.29-.39.54-.75.8-1.11l.68-1,6.7,4.37L135,64l.25-.38.47-.74.24-.38c.21-.34.41-.68.61-1,0,0,.48-.84.59-1l.68-1.27.46-.91c.14-.28.27-.56.4-.84l.5-1.09.57-1.35c.29-.7.56-1.4.8-2.08,0-.11.07-.21.11-.31s.24-.69.25-.72c.25-.74.48-1.5.69-2.26,0,0,.18-.68.25-.93l.28-1.2c.07-.28.12-.53.16-.77l.14-.73.13-.87c0-.12,0-.26,0-.39a8.12,8.12,0,0,1,3.4-5.86,8.37,8.37,0,0,1,4.78-1.5c3.2,0,6.51,0,20,18.44a17,17,0,0,1,7.94,5.37l.15.18.17.22c.2.26.4.52.59.8a16.81,16.81,0,0,1,3,10.85c2.5,4,4.56,7.61,6,10.5,1.71,3.4,5.73,11.36-.83,15.86A8.34,8.34,0,0,1,183,101h0a8.86,8.86,0,0,1-3.37-.68l-.66-.12-.68-.11c-.75-.12-1.53-.21-2.32-.29l-.91-.07L174,99.68H174l-1,0h-.1l-1.12,0h-.2c-1.17,0-2.35,0-3.52.12h0l-1.31.11h-.1l-1.26.13-.16,0-.89.12-.13,0c-1,.14-1.88.29-2.8.48.28.19.54.4.8.61a10.9,10.9,0,0,1,7.57,4.28,9.47,9.47,0,0,1,2.5,2.51,9.33,9.33,0,0,1,1.12,1.8,7.85,7.85,0,0,1,.95,3.85,10.67,10.67,0,0,1-3.11,8.06A80.31,80.31,0,0,1,164,132.26c-4.47,11.09-12.59,17-19.58,20.5a34.88,34.88,0,0,1-2.12,5.89,8,8,0,0,1-6.68,4.63l-11.24.82.1,2.77,4.17,23.39a8,8,0,0,1-.83,5.2,27.74,27.74,0,0,1-3.08,4.36,12.67,12.67,0,0,1,.86,6.89c-.26,1.75-1.81,17.71-3.13,31.82a8.08,8.08,0,0,1-1.61,4.13,23.74,23.74,0,0,1-9.28,6.75,13,13,0,0,1-1,5.79,9.36,9.36,0,0,1,1.06,1.92,8.94,8.94,0,0,1,3.22,1c10.83,3.19,13.4,9.21,13.93,12.8a12.75,12.75,0,0,1-.77,8.74,8.13,8.13,0,0,1-.76,1.23c-3.11,4.19-9,6.14-18.54,6.14a71,71,0,0,1-13.37-1.22,140.52,140.52,0,0,1-14.12-4.3,8.08,8.08,0,0,1-4.4-3.89,15.84,15.84,0,0,1-1.44-9.31,11.52,11.52,0,0,1-.64,1l.23,6.49a7.89,7.89,0,0,1-.72,3.61,8,8,0,0,1-2,4.38,11,11,0,0,1-5.08,3.07C64.51,291.3,58.26,295,49.42,295Zm29.5-43.81c0,.32,0,.64,0,1l.18-.16q0-.44.06-.87l-.18,0Zm53.32-125.76a22.09,22.09,0,0,1-2.21-5.13c0-.14-.08-.27-.11-.4a47.65,47.65,0,0,1-3.16,4.66Z"/>
    <g>
      <path class="cls-3" d="M79.27,128.48s.41,2.23,1.07,5.07c1,4.23,2.48,9.81,3.9,11.33,2.37,2.53,16.93,2.2,19.49-2.8,1.43-2.79,1.27-6.39.85-9a24.82,24.82,0,0,0-.85-3.63,18.53,18.53,0,0,0-2.29-4C97.2,119.92,91.55,120.79,87,123A31.83,31.83,0,0,0,79.27,128.48Z"/>
      <path class="cls-4" d="M79.27,128.48s.41,2.23,1.07,5.07c11.57,5.8,20,2.27,24.24-.51a24.82,24.82,0,0,0-.85-3.63,18.53,18.53,0,0,0-2.29-4,38.59,38.59,0,0,0-4.17-1.17c-2.06-.39-6.31-.87-10.26-1.3A31.83,31.83,0,0,0,79.27,128.48Z"/>
      <g>
        <path class="cls-5" d="M118.79,153.45c14.64-4.75,32.74-8.12,38.63-26.4l-7.5-4.32c-1.2.16-23.13,17.36-28.6,19.68"/>
        <g>
          <g>
            <g>
              <path class="cls-3" d="M54.48,159.08s-8.89-1.48-25,18.1l-6.73,8.16,5.81,5.92s21.39-8.17,29.28-22.13S54.48,159.08,54.48,159.08Z"/>
              <polyline class="cls-3" points="43.87 163.25 55.26 155.87 60.11 152.73 71.38 164.44 62.5 169.88 52.92 175.61"/>
            </g>
            <g>
              <path class="cls-3" d="M22.87,185.32h0c.38-.6.38-.6-.22.11a18,18,0,0,0-1.81,2.82,14.69,14.69,0,0,1-3,3.09c-1.8,1.57-2.48,3.88-3.59,5.93-.45.84-3.47,3.62-1.75,4.65,1.12.67,2.34-.15,3.11-1.1-.08.51-.15,1.05-.28,1.56a13.15,13.15,0,0,0-.51,2.3c0,1.05.84,1.35,1.63.92a4.75,4.75,0,0,0,.95-.75c-.38.81-1.54,3.52,0,3.65,2,.16,3.48-2.55,4.21-4,.62-1.26,1.1-2.58,1.72-3.83.38-.74,1-1.4,1.3-2.16a15.49,15.49,0,0,1-.18,3.82,28.2,28.2,0,0,1-.76,3c-.34,1.21-1.26,3.64-.2,4.72.51.51,1.35.13,1.85-.16,1.25-.71,1.93-2.38,2.43-3.64,1.07-2.7,1.43-6.15,3.27-8.52.68.6,1.15,1.61,1.75,2.24a6.71,6.71,0,0,0,2.73,1.81,2.46,2.46,0,0,0,3.21-2.65c-.6-2.76-4.42-3-5.4-5.62a9.78,9.78,0,0,0-.7-1.82c-.33-.5-1.61-1-.94-2.44"/>
              <path class="cls-6" d="M19,200.52a18,18,0,0,1-1.7,3.61,5.3,5.3,0,0,1-.51.73c-.27.47-.65.87-1.06.79.11.2.35.24.77-.08a6.68,6.68,0,0,0,1.62-1.65c.38-1,.85-2.33,1.19-3.35.42-1.36,1-2.74.7-4.17A41.82,41.82,0,0,1,19,200.52Z"/>
              <path class="cls-7" d="M15.88,200.57a8.34,8.34,0,0,1,.2-.83A31.23,31.23,0,0,1,19,193.8a14.8,14.8,0,0,0-2.41,3.75c-.3.73-.5,1-.85,1.77-.08.15-.26.73-.36.9a3.37,3.37,0,0,1-1.67,1.68,2.06,2.06,0,0,1-.64.25,1.08,1.08,0,0,0,1.15-.07,9.25,9.25,0,0,0,1.63-1.49Z"/>
            </g>
          </g>
          <path class="cls-3" d="M53.08,268.62c4.7,3.35,10.06.83,12.86-5.5.87-2,2.06-5.11,3.3-8.54.14-.38.27-.77.42-1.16.32-.93.65-1.87,1-2.79.6-1.73,1.2-3.43,1.73-5C73.86,241.32,75,238,75,238L59.9,236,58.36,241l-1.65,5.49-1.1,3.65-.12.37-2.38,7.88S48.38,265.27,53.08,268.62Z"/>
          <path class="cls-8" d="M53.5,268.62c4.49,3.35,9.61.83,12.29-5.5.83-2,2-5.11,3.15-8.54.13-.38.26-.77.4-1.16-2.75-.29-9.37-1.47-13.43-3.25l-.1.37-2.28,7.88S49,265.27,53.5,268.62Z"/>
          <path class="cls-3" d="M87.47,260.29c.31,5.48.46,9.23.53,11.68.22-2.64.82-5.75,2.31-6.41,5.28-2.32,10.42,3.69,11.07-3.21.34-3.61.82-9,1.24-13.66.09-1,.18-2,.25-2.87l.61-6.92L88.26,238l-.17,4.91L88,245.15Z"/>
          <path class="cls-4" d="M88.31,242.93c5,3.35,10.61,3.38,14.31,2.89.33-4,.58-6.92.58-6.92L88.48,238Z"/>
          <path class="cls-4" d="M58.72,241c3.71,4.56,10,4.85,13.55,4.59,1.43-4.3,2.49-7.6,2.49-7.6L60.2,236Z"/>
          <path class="cls-8" d="M87.86,259.94c.29,5.36.44,9,.51,11.42.21-2.59.66-6.42,2.22-6.27,4.74.47,10,3.6,10.64-3.14.33-3.52.79-8.76,1.19-13.34.31,2.65-3.46,3.95-3.69,3.71,0,0-7.26-.69-10.2-2.86Z"/>
          <path class="cls-9" d="M54.1,268.61s4.26,1.91,7.73-.54,4.22-.52,4.17.54l.36,9.87s-.91,1-3.76,1.1A4,4,0,0,0,60.76,282c-.35,1.6-5.33,6.84-17.06,4.44s-5.25-10-5.25-10l6.94-3.64s4-7.42,6.53-5.42C53.77,268.83,54.1,268.61,54.1,268.61Z"/>
          <path class="cls-10" d="M89.07,226.33l1.06-22.53,25.78-9.33v6s2.22,2.53,1.82,4.93-3.2,32.39-3.2,32.39-5.07,6.67-16.13,5.73-10.93-4.4-10.93-4.4,1.6-12.79,1.2-12.79"/>
          <path class="cls-10" d="M94.27,225.13c-.67.13-2.14,2.66-6.14,1.86l-2.26,12.4s-1.47,6.53-19.73,2.67c0,0-6.53-1.87-7.07-5.73,0,0,.8-.31,3.47-17.29s5.21-21.49,5.21-21.49L94.27,203"/>
          <path class="cls-11" d="M116.66,194.47v7.46s-6.8,9.33-24.13,8.53-26.39-8.53-26.39-8.53l.89-7.46Z"/>
          <path class="cls-12" d="M83,138.09h25.84a0,0,0,0,1,0,0v21.58a0,0,0,0,1,0,0H73.24a0,0,0,0,1,0,0V147.84A9.76,9.76,0,0,1,83,138.09Z"/>
          <path class="cls-13" d="M109.53,130c10.31,1.58,25.35,4,25.35,4s5.77,9.2.18,21.33l-18.88,1.38-11.36-19.79A4.63,4.63,0,0,1,109.53,130Z"/>
          <path class="cls-13" d="M76.2,137.48s-23,13.47-26.51,19.07c0,0,11.58,8.92,22.69,11"/>
          <path class="cls-13" d="M115.49,139.5l1,28.22,4.26,23.95S113.86,204.6,95.2,205.4c0,0-24.54.26-30.93-12.27L73.7,155.5"/>
          <path class="cls-14" d="M84.8,177.31c.14.4.27.78.41,1.16h0c4.32,11.84,11.41,17.76,11.41,17.76a64.12,64.12,0,0,0,5.58-7.54,36.89,36.89,0,0,0,1.87-3.36,14.75,14.75,0,0,0,1.53-4.3c-.08-1.47-.18-2.89-.31-4.26s-.25-2.5-.4-3.69a89.9,89.9,0,0,0-1.62-9q-.47-2-1-3.72c-2.14-7.38-4.45-11-4.36-11.48.27-1.51-6.3-1-6.3-1a49.83,49.83,0,0,1-1,7.6c-.17.85-.35,1.72-.54,2.6-.55,2.52-1.19,5.09-1.84,7.5-.23.84-.46,1.66-.68,2.45-.82,2.93-1.6,5.46-2.13,7.13C85.07,176.52,84.8,177.31,84.8,177.31Z"/>
          <path class="cls-15" d="M54.69,170.24A19.1,19.1,0,0,0,45.87,169"/>
          <g>
            <path class="cls-9" d="M101.82,262.35c-.43-.14.31,3.39-1.56,5s-11.19-.35-13.68-4.62v-2.4s-3.68-.71-1.19,4.35a21.81,21.81,0,0,0-1.94,4.45A7.43,7.43,0,0,0,84,274a132.79,132.79,0,0,0,13.06,4c5,1.06,20.72,2.31,23.82-1.87,0,0,3.49-7-10.64-9.6,0,0-5.44.71-6-.09S106,263.76,101.82,262.35Z"/>
            <path class="cls-16" d="M83.56,261.74a5.72,5.72,0,0,1,.53,4.36,7.89,7.89,0,0,0-.33,2v0a9.6,9.6,0,0,0,0,1.55,2.06,2.06,0,0,0,1.36,1.77,121.13,121.13,0,0,0,11.9,3.58c5,1.07,20.72,2.31,23.82-1.87a2.12,2.12,0,0,0,.07-.66h0c0-1.45-1-4.92-9.62-7.08l-1.11-.26-.65-.14-.52-.1-.52-.1-.71-.12-.54-.1a13.5,13.5,0,0,1-1.43-.35h0a4.42,4.42,0,0,1-1.35-.58.82.82,0,0,1-.19-.18.88.88,0,0,1-.06-.6c.17-1.18,1.2-3.38-2.26-4.54-.43-.15,1.17,3.23-1.86,5.32-4.64,3.21-9.52,1-12.27-2.19-.82-.95-.24-1.8-.24-3.06v-1S82,256.77,83.56,261.74Z"/>
            <path class="cls-15" d="M83.21,260.85a9.81,9.81,0,0,0,1.13,2.21,6.58,6.58,0,0,0,3.23,2.64"/>
            <path class="cls-15" d="M104.31,262.35a7.77,7.77,0,0,1-3.17,4.44"/>
          </g>
          <path class="cls-16" d="M54.76,266.25s4.27,1.9,7.73-.55a12.71,12.71,0,0,0,4.45-4.85,2.18,2.18,0,0,1,1.88,2.38,3.36,3.36,0,0,1-1.14,2.14l-1,.88.36,9.86A4.41,4.41,0,0,1,63.2,278a1.89,1.89,0,0,0-1.77,1.6c-.36,1.6-5.33,6.84-17.07,4.44-6.7-1.37-7.45-4.43-6.87-6.79a6.37,6.37,0,0,1,3.27-4l5.29-2.78s4.09-2.22,3.91-5.15c0,0-2.06-5.93,2.86-7.25a.26.26,0,0,1,.3.37c-.78,1.34-2.62,5-.54,6.61C54.43,266.46,54.76,266.25,54.76,266.25Z"/>
          <path class="cls-17" d="M47.9,268.26c-.15.43,1.83-.11,4.33.79s4.9,2.27,5.05,1.85-2-2.53-4.52-3.43S48.05,267.83,47.9,268.26Z"/>
          <path class="cls-17" d="M103.64,268.55c.3.34.78-.68,2.44-2.14s2.18-1.65,1.88-2-1.34-.69-3,.77S103.33,268.21,103.64,268.55Z"/>
          <path class="cls-17" d="M106.22,269.6c.3.34.79-.68,2.45-2.14s2.83-1.87,2.53-2.21-2-.47-3.65,1S105.92,269.26,106.22,269.6Z"/>
          <path class="cls-17" d="M46.12,270.17c-.15.43,1.83-.11,4.33.79s4.9,2.27,5.06,1.85-2-2.53-4.53-3.43S46.28,269.74,46.12,270.17Z"/>
          <path class="cls-15" d="M67.3,265.7c0-.12-.49.43-.58.51-.76.64-1.43,1.38-2.24,1.94a6.49,6.49,0,0,1-4.12,1.14"/>
          <path class="cls-15" d="M49.78,264.32a2.67,2.67,0,0,0,.78,1.5,5.32,5.32,0,0,0,1.41,1"/>
          <path class="cls-13" d="M55.16,250.81c1.87,1.51,6.16,4,14.13,3.78a.59.59,0,0,0,.54-.37l1-2.73a.58.58,0,0,0-.57-.79,22.09,22.09,0,0,1-13.5-3.76.58.58,0,0,0-.87.3l-1,2.93A.6.6,0,0,0,55.16,250.81Z"/>
          <path class="cls-13" d="M103.6,249.58a.54.54,0,0,0-.84-.4c-1.32.89-4.66,2.33-11.36,1a8.21,8.21,0,0,1-3.11-1.3.54.54,0,0,0-.86.36l-.37,2.89a.54.54,0,0,0,.3.56,18.73,18.73,0,0,0,15.16.4.5.5,0,0,0,.19-.13A4.42,4.42,0,0,0,103.6,249.58Z"/>
          <path class="cls-18" d="M84.32,204.65h0c-.08.21-.3,4.79-.31,5,0,0,0,0,0,0l2.11.48s0,0,0,0l.34-5.24A14.68,14.68,0,0,0,84.32,204.65Z"/>
          <path class="cls-18" d="M102.73,204.44c-.26,0-1.84.43-1.84.43s0,5.56,0,5.56l2.36-.43Z"/>
          <path class="cls-8" d="M90.14,158.1A45.83,45.83,0,0,1,102.89,164c-.31-1.33-.69-2.71-1-3.86a52.86,52.86,0,0,0-11.19-4.68C90.51,156.35,90.33,157.22,90.14,158.1Z"/>
          <path class="cls-8" d="M88,168.26c4.73,1.85,12.55,5.22,17,8.52-.11-1.27-.27-2.74-.42-3.93a67.5,67.5,0,0,0-15.85-7.15C88.41,166.54,88.17,167.47,88,168.26Z"/>
          <path class="cls-8" d="M85.19,177.32c.14.39.27.87.41,1.25h0c4.65,2.08,11.87,5.62,16.33,9.88a34.51,34.51,0,0,0,1.84-3.33,96.62,96.62,0,0,0-18-9.84C85.39,176.62,85.19,177.32,85.19,177.32Z"/>
          <path class="cls-19" d="M98.34,212.59a22.11,22.11,0,0,1,0,6,21.67,21.67,0,0,1-1.45,5.79,68.45,68.45,0,0,1,1.43-11.76Z"/>
          <path class="cls-19" d="M73.33,207.79c-.29.07-.58.12-.88.17l.16-.12a7.91,7.91,0,0,1-2.51,4.92,7.54,7.54,0,0,1-5,2.19,14.19,14.19,0,0,0,4.35-2.89,13,13,0,0,0,2.88-4.3l.06-.14.1,0C72.74,207.68,73,207.73,73.33,207.79Z"/>
          <path class="cls-14" d="M99.46,142.74c-.75-.27-3.37-2.13-8.71-.35s1.34,7.55,1.34,7.55H98S105.77,145.05,99.46,142.74Z"/>
          <path class="cls-13" d="M103.73,129.41c.62.45,4.62,4.33,4.89,6.74s-1.69,15.39-1.69,15.39l-10.67-9.68s5.25-4.18,7.29-8.63Z"/>
          <path class="cls-13" d="M93.42,141.59c.5.18-7.82,10.35-7.82,10.35a31.57,31.57,0,0,1-9.44-14.62l4.37-6.66S83.68,138.17,93.42,141.59Z"/>
          <g>
            <g>
              <g>
                <path class="cls-20" d="M51.08,68.13s-10-39.92,5.1-37.83c6,.84,9.49,6.43,10.71,9.59C69.5,46.66,59.3,50.71,56.62,44a16.29,16.29,0,0,1-1-3.84c-1.57-11.62-5.32,1.28-3.52,26Z"/>
                <g>
                  <path class="cls-3" d="M119.79,77s.1-8.13,5.15-4.94,6.92,17.24.74,23.87S119.79,77,119.79,77Z"/>
                  <path class="cls-4" d="M120.57,79.63s.16-5.6,3.57-3.46,4.56,11.8.27,16.43S120.57,79.63,120.57,79.63Z"/>
                </g>
                <path class="cls-3" d="M111.13,47c11.34,24.43,11.28,24.64,16.06,46.38,3.51,16-8.18,32.46-20.61,37.15-18.26,6.9-47.24,2.7-55.68-17-6.29-14.69-12-21.22-15.14-26.43-10-16.46-2.33-56.84,20.79-64.51C78.18,15.4,98.64,20.08,111.13,47Z"/>
                <g>
                  <g>
                    <path class="cls-21" d="M72.53,81.34c-4,1.75-5.41,7.45-3.14,12.74S76,101.28,80,99.53s6.12-6.48,3.85-11.77S76.54,79.6,72.53,81.34Z"/>
                    <path class="cls-22" d="M72.55,81.39a6.34,6.34,0,0,0-2.64,2.2,8.32,8.32,0,0,0-1.29,3.21,12.21,12.21,0,0,0,.83,6.78,10.65,10.65,0,0,0,4.19,5.25,6.66,6.66,0,0,0,6.39.26,7.46,7.46,0,0,0,4-5,10.13,10.13,0,0,0-.77-6.51,12.55,12.55,0,0,0-1.74-2.9,11,11,0,0,0-2.45-2.36A8,8,0,0,0,76,81,6.29,6.29,0,0,0,72.55,81.39Zm0-.09a7.59,7.59,0,0,1,6.86.62,12.11,12.11,0,0,1,4.81,5.28A10.38,10.38,0,0,1,85,94.37a8.33,8.33,0,0,1-4.66,5.45,7.41,7.41,0,0,1-7.06-.43A11.21,11.21,0,0,1,69,93.76a12.6,12.6,0,0,1-.58-7A7.57,7.57,0,0,1,72.51,81.3Z"/>
                  </g>
                  <path class="cls-23" d="M68.3,88.86c0-3,1.19-6.11,3.3-7.25,3.66-2,8.8.07,11.39,5C84.26,89,85.7,91.32,84.4,96c2.22-4,.54-8.52-1.77-11.8s-6.35-5.7-10.14-4.08C69.2,81.54,67.74,85.89,68.3,88.86Z"/>
                  <path class="cls-24" d="M78.63,89.24A1.3,1.3,0,0,0,80,88a1.47,1.47,0,0,0-1.25-1.56,1.31,1.31,0,0,0-1.42,1.28A1.48,1.48,0,0,0,78.63,89.24Z"/>
                </g>
                <g>
                  <path class="cls-25" d="M86,114.57c1.34,1,12.89,7,20.16,1.45,4.19-3.22,7-12.13,6.07-13.64a.41.41,0,0,0-.54-.19A79.86,79.86,0,0,1,100,105.66c-5.08,1.13-13.68,1.1-16.61,3C81.66,109.74,81.91,111.51,86,114.57Z"/>
                  <path class="cls-23" d="M83.39,108.64c3.24-.06,8.32-.3,14.82-1.07,10.29-1.22,13.34-4.32,14.05-5.19a.41.41,0,0,0-.54-.19A79.86,79.86,0,0,1,100,105.66C94.92,106.79,86.32,106.76,83.39,108.64Z"/>
                </g>
                <path class="cls-26" d="M101.7,117.1a9.67,9.67,0,0,1-5.29-.26,6.21,6.21,0,0,1,3.3-3.29c2.28-1,5.69-1.51,7.38,0A10.62,10.62,0,0,1,101.7,117.1Z"/>
                <path class="cls-21" d="M85.06,108.61a84.12,84.12,0,0,0,15-1.88c7.13-1.69,8.8-1.91,11.06-3.29,0,3.22-4.51,6.47-10.56,7.8C92.27,113.06,88.89,111.17,85.06,108.61Z"/>
                <g>
                  <path class="cls-27" d="M105.6,71.88c-4,1.74-5.41,7.44-3.15,12.73s6.11,7.33,10.12,5.59A8.86,8.86,0,0,0,117,78.29C114.69,73,109.6,70.13,105.6,71.88Z"/>
                  <path class="cls-23" d="M101.36,79.39c0-3,1.19-6.1,3.31-7.25,3.66-2,8.79.08,11.38,5,1.27,2.38,2.72,4.74,1.42,9.44,2.22-4,.54-8.52-1.78-11.79s-6.34-5.7-10.14-4.09C102.26,72.07,100.8,76.42,101.36,79.39Z"/>
                </g>
                <g>
                  <path class="cls-3" d="M45.49,103.17c-14.46-4.78-10.22,8-5.39,14.47,5.14,7,11.69,6.77,14.51,2.15"/>
                  <path class="cls-4" d="M41.77,115.19c2.93,3.47,7.19,5,7.78,3.45,2.36-6.31-2.14-2.93-4.47-6.49-2.72-4.15-.55-7.24-5-6.18C37.6,106.55,38.33,111.11,41.77,115.19Z"/>
                </g>
                <path class="cls-4" d="M94.3,47.52a26.64,26.64,0,0,1-10.12,9c-8,3.7-14.1,3.62-22.72,1.39,5.38-2.37,12.5-7.23,14.27-10.7-5.08-1.84-9.82-.52-15.23.14-.4,0-.4.72-.51,1.16-2.06,8.19-11.12,7.57-12.64,8.39,7.46,1.29,14.59,25.18-7.86,35-2,.85-3.91-3.62-5.25-5.34a17.52,17.52,0,0,1-3.55-9.22,24,24,0,0,0-.44-4.41c-.39-1.49-1.27-2.82-1.62-4.32-.61-2.66.48-5.36,1.62-7.8a73.46,73.46,0,0,1,11-17.43A40,40,0,0,1,57.89,31.72c4.73-1.64,9.76-2.15,14.75-2.57,6.81-.56,13.79-.95,20.41.93a63.14,63.14,0,0,1,8.09,3.13,17.31,17.31,0,0,1,4.7,2.7,16.26,16.26,0,0,1,2.51,3.14c6.38,9.69,12.26,23.67,14.19,35.13-4.22-6.9-9.77-19.66-14-26.56-.86-1.39-10.32-6.76-11.31-5.95C96.73,42.09,95,46.5,94.3,47.52Z"/>
                <path class="cls-28" d="M93.25,38.46S97.11,56.9,62.53,57.58c0,0,30.7-18.79-5.34-11.66,0,0,4,5.25-14.58,10.72,0,0,20.26,7.44.82,31.72,0,0-2.36,2.08.75,10.42.27.74,1.11,2.29,2.29,4.57,6.23,12-4.35-1.33-4.35-1.33s-11.92,1.1-15.57-13c0,0-13-7.32-8.33-21.9,0,0-10.92-15.26,9.15-24.72,0,0,.75-18.54,13.69-21.29,0,0,14.84-17.93,32.79-7,0,0,13.24-8.41,26.83,5.09,0,0,14.82,3.06,14.4,14.93,0,0,12.12,3,4.58,14.21,0,0,10.13,4.7,1.61,14.27l1.43,11.91-12-27.6S109.56,42.59,93.25,38.46Z"/>
                <path class="cls-29" d="M99.05,58.31h0c.47-1.39,4.31-1.64,5.74-1.26,2.16.58,4.63,1.49,6.64,6.16.17.4.24.74-.1.45-2-1.71-6.33-4.19-10.38-3.79A1.69,1.69,0,0,1,99.05,58.31Z"/>
                <path class="cls-29" d="M75,63.69h0c-.89-1.15-4.6-.08-5.83.76-1.84,1.28-3.87,3-4.23,8.06,0,.43,0,.78.23.39,1.35-2.29,4.6-6.09,8.55-7.09A1.71,1.71,0,0,0,75,63.69Z"/>
                <path class="cls-30" d="M104.49,93.37a4.94,4.94,0,0,1,.49,4.09,4.73,4.73,0,0,1-1.23,2,5.75,5.75,0,0,1-1.93,1.17,7.14,7.14,0,0,1-4.27.26,4,4,0,0,1-3-2.84,5.15,5.15,0,0,0,3.24,1.31,9.16,9.16,0,0,0,3.29-.6,4.53,4.53,0,0,0,2.43-1.87A7.89,7.89,0,0,0,104.49,93.37Z"/>
              </g>
              <g>
                <circle class="cls-31" cx="75.5" cy="90.81" r="4.7"/>
                <circle class="cls-24" cx="77.37" cy="87.31" r="1.09"/>
              </g>
              <g>
                <circle class="cls-31" cx="107.73" cy="81.29" r="4.7"/>
                <circle class="cls-24" cx="109.6" cy="77.79" r="1.09"/>
              </g>
            </g>
            <path class="cls-32" d="M107.49,119.66a6.27,6.27,0,0,1-7.25,1.55,9.88,9.88,0,0,0,7.25-1.55Z"/>
          </g>
        </g>
        <g>
          <path class="cls-5" d="M141.93,115.36s-4-9.82,3.29-12c4.79-1.41,4.68-.23,5.88,3.08,0,0,6-1.29,7,2.66,0,0,6.15-.74,5.36,2.61,0,0,3-.28,2.31,2.65S158,128,155.92,129.07s-8.36.73-12.94-3.86-1-9.85-1-9.85"/>
          <g>
            <rect class="cls-33" x="145.03" y="104.67" width="4.17" height="7.35" rx="0.88" transform="translate(-32.98 139.12) rotate(-46.07)"/>
            <path class="cls-34" d="M147.25,106.66l-.26-.38.63-.34,3,2.84a.88.88,0,0,1,0,1.25l-.45.47h0l-1.22,1.26a.88.88,0,0,1-1.25,0l-.31-.3A4.43,4.43,0,0,0,147.25,106.66Z"/>
            <path class="cls-35" d="M130.22,105.92s17.15,17,21.4,17c0,0,4.38.28,7.51-4.44,0,0-17.18-14.88-19.66-18.8Z"/>
            <path class="cls-36" d="M157.08,120.43c-2.55-2.21-16.53-14.45-20.37-19.23l2.59-1.75c2.47,3.92,19.66,18.8,19.66,18.8A11.55,11.55,0,0,1,157.08,120.43Z"/>
            <path class="cls-33" d="M141.37,96.29l2,2.9a4,4,0,0,1-1,5.53l-7,4.77a4,4,0,0,1-5.53-1l-2-2.9Z"/>
            <path class="cls-34" d="M133,107.41l8.22-5.65a4.71,4.71,0,0,0,1.93-2.86l.2.29a4,4,0,0,1-1,5.53l-7,4.77a4,4,0,0,1-5.53-1l-.2-.3A4.64,4.64,0,0,0,133,107.41Z"/>
            <path class="cls-37" d="M118.78,89.26,130.9,106.9a10.71,10.71,0,0,1-12.12-17.64Z"/>
            <rect class="cls-38" x="124.03" y="84.76" width="9.19" height="21.42" transform="matrix(0.82, -0.57, 0.57, 0.82, -31.45, 89.59)"/>
            <path class="cls-35" d="M150.58,45.4c.81,3.39,6.65,13.55,14.53,25S180.36,91,183.24,93c-6.76-1.87-26.61-3.72-44.76,8.75L126.35,84C144.51,71.57,149.91,52.38,150.58,45.4Z"/>
            <path class="cls-34" d="M164.52,70.82c9,13.14,17.4,23.05,18.72,22.14s-4.92-12.29-13.93-25.42-17.41-23-18.73-22.14C150.3,45.6,155.5,57.69,164.52,70.82Z"/>
            <path class="cls-38" d="M115.45,102.27h0c-.1-.24-.2-.49-.29-.73l-.06-.17c-.08-.23-.15-.47-.22-.7,0-.07,0-.14-.05-.21q-.09-.35-.15-.69a1.85,1.85,0,0,0,0-.23l-.09-.69a1.55,1.55,0,0,0,0-.22c0-.24,0-.47,0-.71v-.18a11,11,0,0,1,.28-2.29c0-.08,0-.15,0-.22l.15-.52c0-.14.08-.27.13-.4s.12-.31.18-.46.11-.29.18-.44.13-.27.2-.41l.24-.45c.08-.13.15-.26.23-.38l.3-.46.24-.34.38-.45.25-.3.47-.48.23-.22a8,8,0,0,1,.77-.65l3.3,4.79-2.22,1.53h0A12.05,12.05,0,0,0,115.45,102.27Z"/>
            <path class="cls-39" d="M129.64,88.83l-1.34,1-6.22,4.27-3.31-4.81,7.58-5.2h0Z"/>
            <path class="cls-36" d="M126.35,84h0c.52-.35,1-.71,1.51-1.08l.45-.33,1-.8.46-.36c.37-.3.74-.6,1.1-.91l.28-.24c.45-.38.88-.77,1.31-1.16l.33-.31c.32-.29.63-.59.94-.89l.41-.4.86-.87.34-.35c.38-.4.75-.81,1.12-1.22l.18-.2c.3-.34.6-.69.89-1,.12-.13.24-.27.35-.41l.7-.87.34-.42c.27-.34.53-.69.79-1,0-.08.11-.15.17-.23.3-.4.59-.81.88-1.22.1-.15.2-.29.29-.44s.38-.55.57-.83l.32-.49.52-.83c.1-.14.19-.29.28-.43l.7-1.18.27-.47c.14-.26.29-.51.43-.76l.3-.56.35-.67.3-.57c.12-.24.23-.47.35-.7s.32-.66.47-1l.26-.56c.11-.23.2-.45.3-.67l.21-.47c.1-.23.2-.46.29-.69l.16-.37c.34-.85.66-1.68,1-2.49,0-.06,0-.13.07-.2.1-.27.19-.54.28-.8a.74.74,0,0,0,0-.14,42.25,42.25,0,0,0,2.08-9h0A38,38,0,0,0,154.11,53c-.08.3-.16.61-.25.93a65.51,65.51,0,0,1-24.22,34.92Z"/>
            <path class="cls-40" d="M172.62,66.33h0l-.07-.11A.76.76,0,0,0,172.62,66.33Z"/>
            <path class="cls-41" d="M160.9,64.29a9,9,0,0,1,10.19,14.85Z"/>
            <path class="cls-42" d="M129.81,107.49l-.67.29-.26.1-.71.23-.2.06a11,11,0,0,1-1.86.32l-.26,0-.67,0h-.31l-.65,0a2.66,2.66,0,0,1-.28,0,8.48,8.48,0,0,1-.88-.13l-.24-.06-.64-.16-.37-.12-.48-.17-.4-.16-.45-.21-.37-.19a7.76,7.76,0,0,1-.69-.4l-.36-.24-.34-.25a13.4,13.4,0,0,0,5-1.87l3.74-2.57,3.42,5c-.28.18-.57.33-.86.48Z"/>
            <path class="cls-43" d="M133.2,98h0c.62-.43,1.25-.84,1.88-1.25l3.39,4.94h0l-7.57,5.2-3.42-5Z"/>
            <path class="cls-44" d="M176.19,85.43c3.12,3.85,5.63,6.56,7.05,7.53h0a52.51,52.51,0,0,0-18.89-.91l-.13,0-1.09.14-.16,0c-1.07.16-2.16.34-3.27.56l-.43.09-.91.2-.53.12-.89.21-.59.16c-.48.12-1,.26-1.45.4l-.73.21-.77.24-.76.25-.74.25-.91.33-.65.24c-.46.17-.92.36-1.38.55l-.62.26-.94.41-.64.29-1,.48-.54.26q-.75.38-1.5.78l-.42.23-1.15.65-.55.32-1.07.65-.5.32c-.51.32-1,.66-1.52,1l0,0-3.39-4.95A73.23,73.23,0,0,1,176.19,85.43Z"/>
            <path class="cls-38" d="M150.58,45.4c.81,3.39,6.65,13.55,14.53,25S180.36,91,183.24,93a38.81,38.81,0,0,0-6.49-1.1,110.58,110.58,0,0,1-15.65-18,110.74,110.74,0,0,1-11.81-22A39.23,39.23,0,0,0,150.58,45.4Z"/>
            <path class="cls-45" d="M149.29,51.86a39.23,39.23,0,0,0,1.29-6.46h0A38,38,0,0,0,154.11,53c-.08.3-.16.61-.25.93-.42,1.48-.93,3.09-1.56,4.77C151.23,56.44,150.21,54.17,149.29,51.86Z"/>
            <path class="cls-37" d="M183.24,93a37.84,37.84,0,0,0-6.48-1.1q-3.28-3.06-6.3-6.35c2-.1,3.93-.13,5.73-.09,3.12,3.86,5.63,6.57,7.05,7.54Z"/>
            <path class="cls-46" d="M168.19,69.79c1.32,1.91,3.27,2.86,4.36,2.11s.91-2.91-.41-4.82-3.26-2.86-4.35-2.11S166.88,67.87,168.19,69.79Z"/>
          </g>
          <path class="cls-5" d="M161.16,121.12c1.63-2.57,4.75-5,5-6.18.7-2.93-2.31-2.65-2.31-2.65.79-3.36-5.35-2.61-5.35-2.61-1.07-4-7-2.66-7-2.66-1.2-3.32-1.09-4.49-5.87-3.08-5,1.47-4.7,6.53-4,9.58"/>
          <path class="cls-5" d="M145.08,127a14.58,14.58,0,0,1-7.36-8.84c-1.73-6,2.63-5.78,4.65-7s5.37-3.64,4.33,1-3.78,2.52.82,6.52,2,2.63,3.15,4.29"/>
          <path class="cls-5" d="M151.1,106.46c.43,1.22-2.8,7-2.8,7"/>
          <path class="cls-47" d="M158.11,109.12s-1.73,5.33-4.61,6.24-7.05,0-5.2-1.92"/>
          <path class="cls-47" d="M163.26,111.41s-1.73,5.33-4.62,6.24-7-.05-5.2-1.92"/>
          <path class="cls-47" d="M166.29,113.55s-1.73,5.33-4.61,6.24-7.05-.05-5.2-1.92"/>
        </g>
      </g>
    </g>
  </g>
</svg>
