<svg id="Layer_1" data-name="Layer 1" xmlns="http://www.w3.org/2000/svg" width="247.02" height="389.23" viewBox="0 0 247.02 389.23">
  <defs>
    <style>
      .cls-1 {
        fill: #ff0;
      }

      .cls-2, .cls-4 {
        fill: #fbd3c7;
      }

      .cls-12, .cls-14, .cls-15, .cls-2, .cls-4, .cls-46, .cls-8 {
        stroke: #453323;
      }

      .cls-10, .cls-12, .cls-13, .cls-14, .cls-15, .cls-16, .cls-17, .cls-19, .cls-2, .cls-26, .cls-27, .cls-4, .cls-46, .cls-8, .cls-9 {
        stroke-miterlimit: 10;
      }

      .cls-12, .cls-14, .cls-15, .cls-16, .cls-17, .cls-2, .cls-8 {
        stroke-width: 0.5px;
      }

      .cls-3 {
        fill: #e4a68d;
      }

      .cls-5 {
        fill: #161616;
      }

      .cls-6 {
        fill: #303030;
      }

      .cls-7 {
        fill: #f8e1db;
      }

      .cls-8 {
        fill: #bcd0eb;
      }

      .cls-17, .cls-9 {
        fill: #3096d2;
        stroke: #2c3581;
      }

      .cls-10 {
        fill: #864a30;
        stroke: #68321e;
      }

      .cls-11, .cls-12 {
        fill: #f6e982;
      }

      .cls-13 {
        fill: #2455a3;
        stroke: #2d2b7a;
      }

      .cls-14, .cls-46 {
        fill: none;
      }

      .cls-15 {
        fill: #7595cc;
      }

      .cls-16 {
        fill: #d6e5f5;
        stroke: #395a72;
      }

      .cls-18 {
        fill: #2c3581;
      }

      .cls-19 {
        fill: #d95c78;
        stroke: #8d2338;
      }

      .cls-20, .cls-26 {
        fill: #d6ebf4;
      }

      .cls-21 {
        fill: #98784d;
      }

      .cls-22 {
        fill: #ba7e70;
      }

      .cls-23 {
        fill: #dee8ee;
      }

      .cls-24 {
        fill: #580d0d;
      }

      .cls-25 {
        fill: #a04c43;
      }

      .cls-26 {
        stroke: #98784d;
      }

      .cls-27 {
        fill: #3f1d1d;
        stroke: #221f1f;
      }

      .cls-28 {
        fill: #431b15;
      }

      .cls-29 {
        fill: #c48a74;
      }

      .cls-30 {
        fill: #451e15;
      }

      .cls-31 {
        fill: #7a4922;
      }

      .cls-32 {
        fill: #841212;
      }

      .cls-33 {
        fill: #590c02;
      }

      .cls-34 {
        fill: #d9d9d9;
      }

      .cls-35 {
        fill: #f5f5f5;
      }

      .cls-36 {
        fill: #881313;
      }

      .cls-37 {
        fill: #bd1622;
      }

      .cls-38 {
        fill: #cd1625;
      }

      .cls-39 {
        fill: #005087;
      }

      .cls-40 {
        fill: #b1b1b1;
      }

      .cls-41 {
        fill: #630e05;
      }

      .cls-42 {
        fill: #9c1519;
      }

      .cls-43 {
        fill: #c6c6c5;
      }

      .cls-44 {
        fill: #d04240;
      }

      .cls-45 {
        fill: #ececec;
      }
    </style>
  </defs>
  <g>
    <path class="cls-1" d="M60.06,384.24a46.21,46.21,0,0,1-9.12-1c-7.17-1.47-12-4.57-14.27-9.21a14.08,14.08,0,0,1-.27-11.53c.06-.35.13-.7.22-1A16.29,16.29,0,0,1,45,351l5.17-2.72a9.46,9.46,0,0,1,1.18-1,8.71,8.71,0,0,1,1-1.31,15.68,15.68,0,0,1,1.56-8.88,12.94,12.94,0,0,1,4.66-5l.88-2.89a8.79,8.79,0,0,1,.34-3.9L61,321.48a8.86,8.86,0,0,1,1.62-2.92l2.26-7.47-.06-.39A8,8,0,0,1,65.6,306c.33-1.1,1.47-5.54,3.8-20.35a189.06,189.06,0,0,1,4.76-22.81l.36-3a25.4,25.4,0,0,1-2.08-3.38,8,8,0,0,1-.63-5.58l4.73-18.86-6.9,4.13a94.1,94.1,0,0,1-20.78,15.28A12.69,12.69,0,0,1,53.92,259a10.75,10.75,0,0,1-2.17,9.08,11.55,11.55,0,0,1-8.9,4.25,10.89,10.89,0,0,1-3.27-.49c-.14.38-.28.76-.43,1.15-.92,2.29-2.59,6.47-6.67,8.8a11.15,11.15,0,0,1-5.55,1.59,9.14,9.14,0,0,1-6.41-2.58,11.61,11.61,0,0,1-2.22.22,8.25,8.25,0,0,1-.86,0,9,9,0,0,1-7.15-4.44A10.4,10.4,0,0,1,9.56,275l-.37-.37A9,9,0,0,1,7.06,271a9.23,9.23,0,0,1-4-6.11c-.84-4.79,2.18-8.51,3.8-10.51l.2-.25c.23-.46.46-1,.7-1.46a22.87,22.87,0,0,1,5.61-8.2l.25-.21a12.64,12.64,0,0,0,2.19-2.19c.18-.26.32-.54.48-.81a18.51,18.51,0,0,1,2.64-3.87l.45-.51,8.3-10.06c6.93-8.4,13.69-15,20.11-19.47a7.68,7.68,0,0,1,.65-.47l.47-.3c.59-.4,1.17-.77,1.73-1.12l1.82-1.18a8,8,0,0,1,1.18-3.69c4-6.38,18.79-16.29,29.69-23a57.08,57.08,0,0,1-17-10.25,16.37,16.37,0,0,1-6.88,1.5c-6.64,0-13-3.69-18-10.39-1-1.39-9-12.49-7.32-22.19a29.92,29.92,0,0,1-10.89-15.11C16,115.74,7.06,104.29,10.48,88.4,8.39,84.19,5.8,76.75,8,68.36c2-7.55,7.19-13.81,15.55-18.65,1.57-10.86,7.28-25.55,21.23-30C49.16,15.22,60.89,5,76.46,5a36.8,36.8,0,0,1,16,3.71,35.8,35.8,0,0,1,12.92-2.44c6.58,0,16.29,1.93,26.07,10.85,8.15,2.34,20,8.93,22.49,21.39A18.81,18.81,0,0,1,162.52,48a17.6,17.6,0,0,1-.1,12.45,17.36,17.36,0,0,1,4.19,8.11c.75,3.6.57,9-3.8,15.2l.36,3,.4.25a17.1,17.1,0,0,1,5.16,5.24l1-1.19.45-.55c.24-.28.52-.63.79-1l.4-.49c.31-.41.63-.82.93-1.23l.16-.21c.4-.53.74-1,1.08-1.51l.36-.52c.2-.28.39-.57.58-.85L175,84c.21-.32,1-1.51,1-1.51.27-.44.55-.91.82-1.38l.29-.51c.2-.34.36-.64.52-.93l.36-.66.55-1s.23-.45.24-.48c.11-.2.4-.79.4-.79.18-.37.37-.76.54-1.14s.23-.48.33-.69l.6-1.35.52-1.24c.39-1,.77-2,1.12-2.92l.09-.25c.12-.34.22-.65.33-.95l0-.15c.35-1,.66-2.06,1-3.09l0-.19c.11-.4.21-.76.3-1.11l.39-1.65.22-1.05s.15-.81.19-1l.17-1.17c0-.24.06-.44.08-.63a8.15,8.15,0,0,1,3.44-5.93h0a8.44,8.44,0,0,1,4.81-1.49c3.29,0,7.35,0,24.73,23.89A19.86,19.86,0,0,1,228,81l.23.27.13.18c.25.32.5.64.73,1a19.65,19.65,0,0,1,3.36,13.44c3.44,5.5,6.27,10.41,8.24,14.32,2.29,4.53,6.54,13-.26,17.63a8.46,8.46,0,0,1-4.8,1.48h0a9,9,0,0,1-3.7-.8l-.31-.06-.83-.15-.93-.15c-1-.16-2.13-.3-3.23-.4h-.15c-.33,0-.71-.07-1.09-.09h-.15l-1.28-.08h-.12l-1.45-.05h-.05c-.51,0-1,0-1.55,0h-.28c-1.57,0-3.17.06-4.75.16h-.09l-1.78.14h0c-.59,0-1.19.11-1.79.19L211,120l1,7.94-1.36.18-.28,0c-.58.08-1.18.17-1.78.28h-.07c-.62.1-1.23.22-1.86.34l-.6.13c-.29,0-1.08.23-1.08.23l-.61.14-1,.25-.72.18-1.69.47-.87.25-1.14.36a14,14,0,0,1,8.22,3.66c5,.56,7.62,2.8,9,4.77.1.11.2.23.29.35a10.07,10.07,0,0,1,3,2.89,11.05,11.05,0,0,1,.88,1.27,8.1,8.1,0,0,1,1.37,4.89,12.84,12.84,0,0,1-.34,3.28,12.66,12.66,0,0,1-3.29,5.6,98.79,98.79,0,0,1-9.54,14c-5.76,14.6-16.63,22.09-25.71,26.5a42.8,42.8,0,0,1-2.89,8.42,8,8,0,0,1-6.69,4.63L156,212.38l.23,6.23,5.5,30.91a8,8,0,0,1-.83,5.2,34,34,0,0,1-4.47,6.11v1a14.42,14.42,0,0,1,1.29,8.42c-.38,2.41-2.73,27-4.13,42a8,8,0,0,1-1.6,4.1,28.84,28.84,0,0,1-12.93,8.82,8.83,8.83,0,0,1,.19,1.27,14.43,14.43,0,0,1-1.72,8.26,10.56,10.56,0,0,1,2.42,4.26l.7.35a9.61,9.61,0,0,1,4.47,1.26c13.11,3.75,16.3,10.54,16.85,15.08a14.38,14.38,0,0,1-.82,9.79,7.84,7.84,0,0,1-.76,1.23c-3.57,4.81-10.67,7.05-22.34,7.05a90.86,90.86,0,0,1-17-1.55,178,178,0,0,1-18.22-5.56,8,8,0,0,1-4.4-3.89,17.68,17.68,0,0,1-1.27-12.32l.18-.58a17.92,17.92,0,0,1,.58-3.07,7.45,7.45,0,0,1-.56-1.34l0-.05c-.13-.29-.24-.58-.35-.88a8,8,0,0,1-.37-3.91,11.15,11.15,0,0,1,2.49-6.87,10.86,10.86,0,0,1,2.52-2.26,8.85,8.85,0,0,1,0-2.12l.41-3.18a35.33,35.33,0,0,1-5,.54c-.24.68-.48,1.38-.73,2.08a8.71,8.71,0,0,1-.57,3.61L94.34,336a8.68,8.68,0,0,1-1.53,2.58c-.14.37-.27.74-.41,1.1a10.79,10.79,0,0,1,1.12,6,12.05,12.05,0,0,1-2.67,6.53l.34,9.4a8,8,0,0,1-.89,4,8,8,0,0,1-2,4.77,12.53,12.53,0,0,1-6.47,3.56C79,379.28,71.19,384.24,60.06,384.24ZM169.58,166.57l2.74-2a26.11,26.11,0,0,1-3.92-8.08,19.84,19.84,0,0,1-.81-4.87,13.63,13.63,0,0,1-1.67-.43,58.15,58.15,0,0,1-9,13.4Z"/>
    <g>
      <path class="cls-2" d="M99.28,167.9s.55,2.93,1.41,6.65c1.28,5.56,3.26,12.9,5.12,14.89,3.12,3.33,22.25,2.9,25.62-3.67,1.88-3.66,1.66-8.4,1.11-11.88a32.39,32.39,0,0,0-1.11-4.77,24.24,24.24,0,0,0-3-5.2c-5.58-7.28-13-6.13-19-3.24A41.61,41.61,0,0,0,99.28,167.9Z"/>
      <path class="cls-3" d="M99.28,167.9s.55,2.93,1.41,6.65c15.21,7.64,26.34,3,31.85-.66a32.39,32.39,0,0,0-1.11-4.77,24.24,24.24,0,0,0-3-5.2,49.85,49.85,0,0,0-5.49-1.54c-2.7-.51-8.28-1.15-13.48-1.7A41.61,41.61,0,0,0,99.28,167.9Z"/>
      <g>
        <path class="cls-4" d="M151.22,200.7c19.24-6.24,43-10.66,50.75-34.69l-9.85-5.68c-1.58.23-30.39,22.82-37.58,25.87"/>
        <g>
          <g>
            <g>
              <path class="cls-2" d="M66.7,208.11S55,206.17,33.83,231.9L25,242.61l7.63,7.78s28.12-10.73,38.48-29.07S66.7,208.11,66.7,208.11Z"/>
              <polyline class="cls-2" points="52.76 213.58 67.73 203.89 74.11 199.76 88.92 215.16 77.25 222.3 64.66 229.83"/>
            </g>
            <g>
              <path class="cls-2" d="M25.17,242.59h0c.5-.79.5-.79-.29.14a23,23,0,0,0-2.37,3.7,20,20,0,0,1-3.89,4.06c-2.37,2.07-3.26,5.1-4.72,7.79-.59,1.11-4.57,4.76-2.3,6.12,1.47.88,3.07-.2,4.08-1.45a20.45,20.45,0,0,1-.36,2.05,16.75,16.75,0,0,0-.67,3c-.07,1.37,1.09,1.77,2.14,1.2a6.32,6.32,0,0,0,1.25-1c-.5,1.07-2,4.63,0,4.8,2.62.21,4.57-3.34,5.53-5.27.81-1.65,1.44-3.38,2.26-5,.5-1,1.29-1.84,1.7-2.83a19.94,19.94,0,0,1-.23,5c-.25,1.34-.61,2.63-1,3.95-.45,1.59-1.66,4.78-.27,6.19.67.68,1.78.18,2.43-.2,1.65-.94,2.53-3.13,3.2-4.78,1.39-3.55,1.87-8.09,4.29-11.2.9.78,1.51,2.12,2.3,2.95a8.82,8.82,0,0,0,3.58,2.37c2.13.71,4.73-1.13,4.23-3.48-.79-3.63-5.82-4-7.11-7.38a11.12,11.12,0,0,0-.91-2.39c-.43-.66-2.11-1.28-1.23-3.22"/>
              <path class="cls-5" d="M20.12,262.56a23.9,23.9,0,0,1-2.24,4.75,6.48,6.48,0,0,1-.67.95c-.35.62-.86,1.15-1.39,1,.14.27.45.32,1-.11A8.49,8.49,0,0,0,19,267c.49-1.34,1.12-3.06,1.56-4.4.55-1.79,1.36-3.6.93-5.47C21.11,258.9,20.65,260.75,20.12,262.56Z"/>
              <path class="cls-6" d="M16,262.62c.06-.36.16-.72.25-1.09a41.63,41.63,0,0,1,3.86-7.8c-1.41,1.28-2.28,3.38-3.17,4.92-.39,1-.65,1.39-1.11,2.33-.1.2-.35,1-.48,1.19a4.47,4.47,0,0,1-2.19,2.2,2.45,2.45,0,0,1-.85.33,1.43,1.43,0,0,0,1.52-.09,12.52,12.52,0,0,0,2.15-2Z"/>
            </g>
          </g>
          <path class="cls-2" d="M64.88,352c6.17,4.4,13.21,1.1,16.89-7.22,1.14-2.58,2.71-6.72,4.34-11.22.18-.51.35-1,.54-1.53L88,328.4c.8-2.26,1.58-4.51,2.29-6.57,1.94-5.66,3.38-10,3.38-10l-19.79-2.69-2,6.65L69.64,323l-1.45,4.8-.15.49-3.12,10.35S58.69,347.65,64.88,352Z"/>
          <path class="cls-7" d="M65.43,352c5.89,4.4,12.62,1.1,16.14-7.22,1.09-2.58,2.59-6.72,4.14-11.22l.52-1.53c-3.61-.37-12.31-1.92-17.64-4.27l-.14.49-3,10.35S59.52,347.65,65.43,352Z"/>
          <path class="cls-2" d="M110.06,341.1c.41,7.2.61,12.13.69,15.35.29-3.47,1.09-7.56,3-8.43,6.94-3,13.69,4.85,14.55-4.21.45-4.75,1.08-11.8,1.63-17.95.12-1.31.23-2.57.33-3.77.46-5.22.79-9.1.79-9.1l-20-1.16-.23,6.45-.11,2.92Z"/>
          <path class="cls-3" d="M111.17,318.28c6.54,4.41,13.93,4.45,18.8,3.81.44-5.22.76-9.1.76-9.1l-19.34-1.16Z"/>
          <path class="cls-3" d="M72.28,315.79c4.88,6,13.21,6.38,17.8,6,1.88-5.66,3.28-10,3.28-10l-19.13-2.69Z"/>
          <path class="cls-7" d="M110.57,340.64c.39,7,.58,11.85.67,15,.27-3.39.87-8.44,2.92-8.23,6.23.61,13.16,4.73,14-4.12.43-4.64,1-11.53,1.56-17.54.4,3.48-4.56,5.19-4.85,4.88,0,0-9.55-.91-13.4-3.77Z"/>
          <path class="cls-8" d="M66.2,352s5.61,2.5,10.16-.72,5.56-.68,5.49.72l.47,13s-1.2,1.33-4.93,1.45A5.2,5.2,0,0,0,75,369.59c-.46,2.1-7,9-22.42,5.84s-6.89-13.08-6.89-13.08l9.11-4.79s5.2-9.75,8.58-7.12C65.77,352.32,66.2,352,66.2,352Z"/>
          <path class="cls-9" d="M112.16,296.47l1.4-29.6,33.87-12.26v7.88s2.91,3.33,2.39,6.48-4.2,42.57-4.2,42.57-6.66,8.75-21.2,7.53-14.36-5.78-14.36-5.78,2.1-16.82,1.57-16.82"/>
          <path class="cls-9" d="M119,294.89c-.88.18-2.8,3.51-8.06,2.46l-3,16.29S106,322.22,82,317.14c0,0-8.58-2.45-9.29-7.53,0,0,1.06-.41,4.56-22.71s6.85-28.25,6.85-28.25L119,265.82"/>
          <path class="cls-10" d="M148.42,254.61v9.81s-8.94,12.26-31.71,11.21S82,264.42,82,264.42l1.17-9.81Z"/>
          <path class="cls-11" d="M101.12,180.52h37a0,0,0,0,1,0,0v28.35a0,0,0,0,1,0,0H91.36a0,0,0,0,1,0,0v-18.6A9.76,9.76,0,0,1,101.12,180.52Z"/>
          <path class="cls-12" d="M139.05,169.91c13.54,2.08,33.31,5.2,33.31,5.2s7.58,12.09.23,28L147.79,205l-14.93-26A6.07,6.07,0,0,1,139.05,169.91Z"/>
          <path class="cls-12" d="M95.25,179.72S65,197.42,60.42,204.78c0,0,15.21,11.72,29.81,14.41"/>
          <path class="cls-12" d="M146.87,182.38l1.37,37.08,5.61,31.47s-9.11,17-33.63,18c0,0-32.25.35-40.65-16.12L92,203.4"/>
          <path class="cls-13" d="M106.56,232.06c.17.52.34,1,.53,1.52h0c5.68,15.57,15,23.35,15,23.35a84.35,84.35,0,0,0,7.34-9.91,50.57,50.57,0,0,0,2.46-4.42,19.61,19.61,0,0,0,2-5.64c-.1-1.94-.24-3.8-.4-5.6s-.33-3.3-.53-4.85a120.21,120.21,0,0,0-2.12-11.85c-.41-1.74-.84-3.37-1.27-4.88-2.81-9.7-5.84-14.39-5.72-15.09.34-2-8.29-1.29-8.29-1.29a66.66,66.66,0,0,1-1.27,10c-.22,1.12-.46,2.26-.71,3.41-.72,3.32-1.56,6.69-2.42,9.86-.31,1.1-.6,2.18-.89,3.23-1.08,3.84-2.11,7.16-2.8,9.37C106.9,231,106.56,232.06,106.56,232.06Z"/>
          <path class="cls-14" d="M67,222.77a25.07,25.07,0,0,0-11.59-1.7"/>
          <g>
            <path class="cls-8" d="M128.92,343.81c-.57-.19.4,4.45-2,6.56s-14.71-.47-18-6.08v-3.15s-4.83-.94-1.56,5.72a28.73,28.73,0,0,0-2.56,5.84,9.84,9.84,0,0,0,.73,6.42,172,172,0,0,0,17.17,5.26c6.54,1.4,27.21,3,31.29-2.45,0,0,4.59-9.23-14-12.62,0,0-7.15.94-7.85-.11S134.43,345.67,128.92,343.81Z"/>
            <path class="cls-15" d="M104.92,343a7.45,7.45,0,0,1,.7,5.72,10.4,10.4,0,0,0-.43,2.7v0a13.3,13.3,0,0,0,0,2,2.68,2.68,0,0,0,1.78,2.33,157.76,157.76,0,0,0,15.65,4.7c6.54,1.41,27.21,3,31.29-2.45a3.09,3.09,0,0,0,.09-.87h0c0-1.91-1.35-6.48-12.64-9.31l-1.46-.34-.86-.18-.67-.14-.69-.13-.93-.16-.71-.13c-.59-.12-1.25-.27-1.88-.45h-.06a5.88,5.88,0,0,1-1.78-.76.91.91,0,0,1-.24-.24,1.13,1.13,0,0,1-.08-.78c.21-1.55,1.56-4.45-3-6-.57-.18,1.54,4.25-2.43,7-6.1,4.22-12.52,1.31-16.14-2.87-1.07-1.25-.31-2.38-.31-4v-1.32S102.81,336.47,104.92,343Z"/>
            <path class="cls-14" d="M104.47,341.83a12.63,12.63,0,0,0,1.47,2.91,8.69,8.69,0,0,0,4.25,3.47"/>
            <path class="cls-14" d="M132.19,343.81a10.32,10.32,0,0,1-4.16,5.84"/>
          </g>
          <path class="cls-15" d="M67.08,348.93s5.61,2.5,10.16-.72,5.84-6.38,5.84-6.38A2.86,2.86,0,0,1,85.55,345a4.33,4.33,0,0,1-1.5,2.8l-1.32,1.16.47,13s-1.29,2.37-5,2.49a2.49,2.49,0,0,0-2.33,2.1c-.47,2.1-7,9-22.42,5.84-8.81-1.8-9.8-5.82-9-8.92a8.32,8.32,0,0,1,4.29-5.29l7-3.66s5.37-2.92,5.13-6.77c0,0-2.7-7.79,3.76-9.52a.34.34,0,0,1,.39.49c-1,1.75-3.44,6.55-.7,8.68C66.65,349.21,67.08,348.93,67.08,348.93Z"/>
          <path class="cls-16" d="M58.06,351.57c-.2.57,2.41-.15,5.69,1s6.44,3,6.64,2.43-2.66-3.32-5.94-4.5S58.27,351,58.06,351.57Z"/>
          <path class="cls-16" d="M131.3,352c.4.44,1-.9,3.21-2.82s2.87-2.17,2.48-2.61-1.77-.91-3.94,1S130.91,351.51,131.3,352Z"/>
          <path class="cls-16" d="M134.7,353.33c.4.45,1-.89,3.22-2.81s3.71-2.45,3.32-2.9-2.61-.63-4.79,1.29S134.31,352.88,134.7,353.33Z"/>
          <path class="cls-16" d="M55.73,354.08c-.2.56,2.4-.15,5.69,1s6.44,3,6.64,2.44-2.66-3.32-6-4.5S55.93,353.52,55.73,354.08Z"/>
          <path class="cls-14" d="M83.55,348.21c0-.16-.63.57-.76.67-1,.84-1.87,1.81-2.94,2.55a8.53,8.53,0,0,1-5.41,1.5"/>
          <path class="cls-14" d="M60.53,346.39a3.56,3.56,0,0,0,1,2,7.23,7.23,0,0,0,1.85,1.29"/>
          <path class="cls-12" d="M67.61,328.64c2.45,2,8.09,5.22,18.56,5a.81.81,0,0,0,.71-.5l1.37-3.59a.76.76,0,0,0-.76-1,29,29,0,0,1-17.73-4.94.77.77,0,0,0-1.15.4l-1.25,3.84A.77.77,0,0,0,67.61,328.64Z"/>
          <path class="cls-12" d="M131.26,327a.71.71,0,0,0-1.11-.52c-1.73,1.17-6.12,3.06-14.93,1.3a10.83,10.83,0,0,1-4.08-1.7.7.7,0,0,0-1.13.47l-.49,3.8a.71.71,0,0,0,.39.73,24.66,24.66,0,0,0,19.93.53.88.88,0,0,0,.25-.18A5.82,5.82,0,0,0,131.26,327Z"/>
          <path class="cls-17" d="M105.92,268h0c-.1.28-.38,6.31-.4,6.63l0,0,2.77.63s0,0,0,0l.46-6.88A20.13,20.13,0,0,0,105.92,268Z"/>
          <path class="cls-17" d="M130.11,267.71c-.34,0-2.42.56-2.42.56s0,7.32,0,7.32l3.1-.58Z"/>
          <path class="cls-7" d="M113.57,206.81a60.88,60.88,0,0,1,16.75,7.81c-.41-1.74-.9-3.56-1.33-5.07a70.27,70.27,0,0,0-14.71-6.15C114.06,204.52,113.82,205.66,113.57,206.81Z"/>
          <path class="cls-7" d="M110.7,220.17c6.22,2.43,16.49,6.85,22.29,11.2-.15-1.68-.36-3.61-.56-5.17a88.37,88.37,0,0,0-20.83-9.39C111.3,217.91,111,219.13,110.7,220.17Z"/>
          <path class="cls-7" d="M107.07,232.07c.17.51.34,1.15.53,1.65h0c6.12,2.73,15.6,7.38,21.47,13,1-1.69,1.79-3.11,2.41-4.38a127,127,0,0,0-23.6-12.93C107.32,231.15,107.07,232.07,107.07,232.07Z"/>
          <path class="cls-18" d="M124.35,278.43a34.66,34.66,0,0,1-.14,7.82,33.82,33.82,0,0,1-1.74,7.62c.13-2.62.45-5.18.75-7.74S123.85,281,124.35,278.43Z"/>
          <path class="cls-18" d="M91.48,272.11c-.38.07-.77.12-1.15.17l.15-.12a10.86,10.86,0,0,1-3.35,6.38,10.48,10.48,0,0,1-6.52,3,16.71,16.71,0,0,0,5.83-3.69,16,16,0,0,0,3.74-5.74l0-.13h.1C90.71,272,91.1,272.05,91.48,272.11Z"/>
          <path class="cls-13" d="M125.82,186.64c-1-.36-4.44-2.8-11.44-.47s1.75,9.93,1.75,9.93h7.71S134.11,189.68,125.82,186.64Z"/>
          <path class="cls-12" d="M131.43,169.12c.81.59,6.07,5.69,6.42,8.86s-2.22,20.22-2.22,20.22l-14-12.73s6.89-5.49,9.57-11.33Z"/>
          <path class="cls-12" d="M117.88,185.12c.66.23-10.28,13.6-10.28,13.6a41.54,41.54,0,0,1-12.41-19.2l5.76-8.76S105.07,180.63,117.88,185.12Z"/>
          <g>
            <g>
              <g>
                <path class="cls-19" d="M62.25,88.59s-13.14-52.45,6.69-49.7C76.87,40,81.41,47.34,83,51.49c3.43,8.89-10,14.22-13.49,5.36a20.81,20.81,0,0,1-1.27-5c-2.07-15.26-7,1.68-4.63,34.13Z"/>
                <g>
                  <path class="cls-2" d="M152.53,100.22s.14-10.7,6.76-6.5,9.1,22.65,1,31.37S152.53,100.22,152.53,100.22Z"/>
                  <path class="cls-3" d="M153.56,103.71s.2-7.36,4.69-4.54,6,15.49.35,21.57S153.56,103.71,153.56,103.71Z"/>
                </g>
                <path class="cls-2" d="M141.15,60.82c14.9,32.09,14.83,32.37,21.11,60.94,4.61,21-10.75,42.66-27.09,48.82-24,9.06-62.07,3.55-73.17-22.36-8.26-19.3-15.74-27.87-19.89-34.72C29,91.87,39.05,38.81,69.43,28.73,97.86,19.3,124.74,25.46,141.15,60.82Z"/>
                <g>
                  <g>
                    <path class="cls-20" d="M90.43,106c-5.26,2.29-7.11,9.78-4.13,16.73s8.74,9.46,14,7.17,8-8.52,5.06-15.47S95.69,103.67,90.43,106Z"/>
                    <path class="cls-21" d="M90.45,106A8.45,8.45,0,0,0,87,108.9a11,11,0,0,0-1.71,4.22,16.13,16.13,0,0,0,1,8.95,14.07,14.07,0,0,0,5.52,7,8.86,8.86,0,0,0,8.5.37,10,10,0,0,0,5.4-6.62,13.3,13.3,0,0,0-1-8.65,17.08,17.08,0,0,0-2.32-3.84,14.72,14.72,0,0,0-3.28-3.07,10.64,10.64,0,0,0-4.17-1.72A8.29,8.29,0,0,0,90.45,106Zm0-.09a9.87,9.87,0,0,1,9,.87,15.89,15.89,0,0,1,6.21,6.94,16.14,16.14,0,0,1,1.38,4.54,11.82,11.82,0,0,1-.28,4.77,10.81,10.81,0,0,1-6,7.09A9.82,9.82,0,0,1,96,131a9.43,9.43,0,0,1-4.5-1.45,14.51,14.51,0,0,1-5.64-7.34,16.48,16.48,0,0,1-.8-9.16A9.87,9.87,0,0,1,90.41,105.91Z"/>
                  </g>
                  <path class="cls-22" d="M84.87,115.83c0-3.89,1.57-8,4.34-9.53,4.81-2.61,11.56.1,15,6.53,1.67,3.14,3.57,6.23,1.86,12.41,2.92-5.23.71-11.2-2.33-15.5s-8.34-7.49-13.33-5.37C86.05,106.21,84.13,111.93,84.87,115.83Z"/>
                  <path class="cls-23" d="M98.44,116.34a1.72,1.72,0,0,0,1.86-1.68,1.93,1.93,0,0,0-1.65-2,1.71,1.71,0,0,0-1.86,1.68A1.93,1.93,0,0,0,98.44,116.34Z"/>
                </g>
                <g>
                  <path class="cls-24" d="M108.17,149.62c1.76,1.31,16.93,9.24,26.49,1.9,5.51-4.23,9.16-15.94,8-17.92a.54.54,0,0,0-.71-.25c-7,2.38-7.75,2.84-15.4,4.55-6.67,1.5-18,1.45-21.83,3.92C102.43,143.27,102.76,145.6,108.17,149.62Z"/>
                  <path class="cls-22" d="M104.7,141.82a195.05,195.05,0,0,0,19.47-1.39c13.52-1.61,17.53-5.69,18.47-6.83a.54.54,0,0,0-.71-.25c-7,2.38-7.75,2.84-15.4,4.55C119.86,139.4,108.55,139.35,104.7,141.82Z"/>
                </g>
                <path class="cls-25" d="M128.76,152.94a12.68,12.68,0,0,1-6.95-.34,8.17,8.17,0,0,1,4.34-4.33c3-1.28,7.48-2,9.69-.05C134.47,150.35,131,152.39,128.76,152.94Z"/>
                <path class="cls-20" d="M106.89,141.79a110.55,110.55,0,0,0,19.74-2.47c9.37-2.22,11.57-2.52,14.53-4.33,0,4.24-5.93,8.5-13.87,10.25C116.37,147.64,111.93,145.15,106.89,141.79Z"/>
                <g>
                  <path class="cls-26" d="M133.88,93.52c-5.26,2.29-7.11,9.78-4.13,16.73s8,9.64,13.29,7.34,8.74-8.69,5.76-15.64S139.14,91.23,133.88,93.52Z"/>
                  <path class="cls-22" d="M128.32,103.39c.05-3.89,1.56-8,4.34-9.52,4.81-2.62,11.56.09,15,6.52,1.66,3.14,3.56,6.24,1.86,12.41,2.91-5.23.71-11.2-2.33-15.5s-8.34-7.49-13.33-5.36C129.49,93.78,127.58,99.49,128.32,103.39Z"/>
                </g>
                <g>
                  <path class="cls-2" d="M54.89,134.63c-19-6.28-13.43,10.45-7.07,19,6.75,9.12,15.36,8.89,19.07,2.82"/>
                  <path class="cls-3" d="M50,150.44c3.84,4.55,9.45,6.61,10.22,4.53,3.1-8.3-2.81-3.86-5.87-8.53-3.57-5.45-.72-9.51-6.58-8.13C44.53,139.08,45.48,145.07,50,150.44Z"/>
                </g>
                <path class="cls-3" d="M119,61.52c-3.47,4.89-7.9,9.32-13.3,11.81-10.56,4.86-18.52,4.76-29.85,1.83C83,72,92.3,65.65,94.63,61.09c-6.67-2.42-12.89-.69-20,.18-.53.06-.52,1-.66,1.53-2.71,10.76-14.63,10-16.61,11,9.79,1.69,19.16,33.1-10.34,46-2.57,1.12-5.14-4.76-6.89-7a22.9,22.9,0,0,1-4.67-12.12,32.84,32.84,0,0,0-.57-5.79c-.53-2-1.67-3.71-2.13-5.68-.81-3.49.62-7,2.13-10.24A96.25,96.25,0,0,1,49.33,56c6-6.76,13.39-12.34,21.86-15.26C77.4,38.6,84,37.92,90.57,37.38c9-.75,18.12-1.25,26.82,1.21A83.63,83.63,0,0,1,128,42.7a22.37,22.37,0,0,1,6.18,3.56,20.31,20.31,0,0,1,3.3,4.12c8.38,12.74,16.1,31.1,18.64,46.16-5.54-9.07-12.84-25.82-18.37-34.89-1.12-1.83-13.55-8.89-14.86-7.82C122.22,54.38,120,60.17,119,61.52Z"/>
                <path class="cls-27" d="M117.66,49.6s5.07,24.24-40.37,25.14c0,0,40.33-24.7-7-15.32,0,0,5.23,6.89-19.16,14.08,0,0,26.62,9.77,1.09,41.68,0,0-3.11,2.73,1,13.68.37,1,1.46,3,3,6,8.18,15.74-5.72-1.76-5.72-1.76S34.81,134.58,30,116.05c0,0-17.1-9.62-11-28.78,0,0-14.34-20.06,12-32.48,0,0,1-24.37,18-28,0,0,19.49-23.57,43.08-9.15,0,0,17.4-11,35.26,6.69,0,0,19.48,4,18.92,19.61,0,0,15.93,4,6,18.68,0,0,13.31,6.18,2.11,18.76L156.36,97,140.53,60.77S139.09,55,117.66,49.6Z"/>
                <path class="cls-28" d="M125.27,75.69h0c.62-1.83,5.68-2.16,7.55-1.65,2.84.76,6.08,2,8.72,8.09.23.53.32,1-.12.59-2.66-2.24-8.32-5.5-13.64-5A2.24,2.24,0,0,1,125.27,75.69Z"/>
                <path class="cls-28" d="M93.63,82.77h0c-1.18-1.52-6.06-.12-7.66,1-2.43,1.69-5.09,3.91-5.57,10.59-.05.57,0,1,.31.51,1.77-3,6-8,11.23-9.31A2.27,2.27,0,0,0,93.63,82.77Z"/>
                <path class="cls-29" d="M132.42,121.76a6.73,6.73,0,0,1,.43,5.28,6.12,6.12,0,0,1-1.59,2.43,7.72,7.72,0,0,1-2.45,1.48,9.49,9.49,0,0,1-5.46.38,5.38,5.38,0,0,1-3.94-3.49,6.52,6.52,0,0,0,4.22,2,11.37,11.37,0,0,0,4.48-.73,6,6,0,0,0,3.31-2.65A9.67,9.67,0,0,0,132.42,121.76Z"/>
              </g>
              <g>
                <circle class="cls-30" cx="94.33" cy="118.4" r="6.18"/>
                <circle class="cls-23" cx="96.78" cy="113.79" r="1.43"/>
              </g>
              <g>
                <circle class="cls-30" cx="136.68" cy="105.89" r="6.18"/>
                <circle class="cls-23" cx="139.14" cy="101.29" r="1.43"/>
              </g>
            </g>
            <path class="cls-31" d="M136.37,156.31a8.34,8.34,0,0,1-4.44,2.5,8.25,8.25,0,0,1-5.08-.46,12.21,12.21,0,0,0,9.52-2Z"/>
          </g>
        </g>
        <g>
          <path class="cls-4" d="M181.62,150.65s-5.23-12.9,4.33-15.73c6.28-1.86,6.15-.31,7.72,4,0,0,7.82-1.69,9.22,3.49,0,0,8.07-1,7,3.44,0,0,3.95-.37,3,3.48s-10.29,17.85-13,19.31-11,.95-17-5.08-1.39-12.95-1.39-12.95"/>
          <g>
            <rect class="cls-32" x="185.7" y="136.61" width="5.49" height="9.66" rx="1.16" transform="translate(-44.16 179.01) rotate(-46.07)"/>
            <path class="cls-33" d="M188.61,139.23l-.34-.51.84-.45L193,142a1.17,1.17,0,0,1,0,1.64l-.6.62h0l-1.6,1.66a1.16,1.16,0,0,1-1.64,0l-.41-.39A5.8,5.8,0,0,0,188.61,139.23Z"/>
            <path class="cls-34" d="M166.24,138.25s22.53,22.35,28.11,22.37c0,0,5.76.36,9.88-5.84,0,0-22.59-19.55-25.84-24.7Z"/>
            <path class="cls-35" d="M201.53,157.32c-3.35-2.91-21.72-19-26.77-25.28l3.4-2.29c3.26,5.15,25.84,24.7,25.84,24.7A14.35,14.35,0,0,1,201.53,157.32Z"/>
            <path class="cls-32" d="M180.88,125.6l2.62,3.81a5.22,5.22,0,0,1-1.35,7.26L173,143a5.22,5.22,0,0,1-7.26-1.35l-2.62-3.81Z"/>
            <path class="cls-33" d="M169.9,140.2l10.81-7.42a6.11,6.11,0,0,0,2.52-3.75l.27.38a5.22,5.22,0,0,1-1.35,7.26L173,143a5.22,5.22,0,0,1-7.26-1.35l-.26-.39A6.08,6.08,0,0,0,169.9,140.2Z"/>
            <path class="cls-36" d="M151.21,116.36l15.92,23.18a14.07,14.07,0,0,1-15.92-23.18Z"/>
            <rect class="cls-37" x="158.1" y="110.45" width="12.08" height="28.15" transform="translate(-41.66 114.79) rotate(-34.48)"/>
            <path class="cls-34" d="M193,58.73c1.06,4.46,8.74,17.8,19.09,32.88s20,27,23.83,29.62c-8.89-2.46-35-4.89-58.82,11.49L161.15,109.5C185,93.12,192.1,67.9,193,58.73Z"/>
            <path class="cls-33" d="M211.31,92.14c11.85,17.25,22.86,30.28,24.6,29.09s-6.46-16.15-18.31-33.41S194.73,57.54,193,58.73C192.62,59,199.46,74.88,211.31,92.14Z"/>
            <path class="cls-37" d="M146.83,133.45h0c-.14-.32-.27-.64-.38-1l-.09-.22c-.1-.3-.2-.61-.28-.92a2.68,2.68,0,0,1-.07-.27c-.08-.31-.14-.61-.2-.92a2.93,2.93,0,0,0-.05-.29c0-.3-.08-.61-.11-.91,0-.1,0-.2,0-.29,0-.31,0-.62,0-.93v-.24a14.49,14.49,0,0,1,.37-3l.06-.29c.06-.23.13-.46.2-.68s.11-.36.17-.53.15-.4.23-.6l.24-.58.27-.54c.1-.2.21-.4.32-.59s.19-.34.29-.5l.4-.6.32-.45c.15-.2.32-.4.49-.6s.21-.26.33-.39.4-.42.61-.62l.31-.3a12.09,12.09,0,0,1,1-.85l4.32,6.3-2.91,2v0A15.83,15.83,0,0,0,146.83,133.45Z"/>
            <path class="cls-38" d="M165.47,115.8c-.58.42-1.16.84-1.76,1.25l-8.18,5.61-4.34-6.32,10-6.84h0Z"/>
            <path class="cls-35" d="M161.15,109.5h0q1-.69,2-1.41l.6-.45c.45-.34.91-.69,1.35-1l.61-.48,1.44-1.19.37-.31c.59-.51,1.16-1,1.72-1.53l.44-.41,1.23-1.16.53-.53c.39-.38.76-.76,1.14-1.15l.44-.46q.75-.8,1.47-1.59l.24-.28q.6-.67,1.17-1.35l.46-.55.92-1.14.44-.55c.36-.46.7-.91,1-1.36l.22-.29c.4-.54.78-1.08,1.16-1.62l.39-.57.74-1.09.42-.64c.24-.37.47-.73.69-1.1.12-.19.25-.38.36-.57.32-.51.63-1,.93-1.55l.35-.61.56-1,.4-.74c.16-.29.31-.58.46-.88s.27-.5.39-.75.31-.61.46-.92.42-.86.62-1.29c.12-.25.24-.5.35-.75l.39-.87.27-.62.39-.91c.07-.16.13-.32.2-.49.46-1.11.87-2.2,1.25-3.26a2.77,2.77,0,0,1,.1-.26l.36-1.06.06-.18A55.74,55.74,0,0,0,193,58.73h0c.45,1.89,2.1,5.4,4.64,10l-.33,1.22a86.12,86.12,0,0,1-31.83,45.9Z"/>
            <path class="cls-39" d="M222,86.22h0a1.13,1.13,0,0,1-.1-.13Z"/>
            <path class="cls-40" d="M206.55,83.55a11.85,11.85,0,0,1,13.39,19.51Z"/>
            <path class="cls-41" d="M165.69,140.31c-.29.14-.58.27-.88.39l-.34.13c-.3.11-.61.21-.92.29l-.27.08a13.83,13.83,0,0,1-2.45.43l-.34,0c-.29,0-.59,0-.88,0h-.4l-.86,0-.37,0a11,11,0,0,1-1.15-.18l-.32-.07-.83-.22c-.17,0-.33-.1-.49-.15l-.64-.23-.52-.21c-.2-.08-.4-.18-.59-.27L153,140c-.31-.16-.61-.34-.91-.52l-.47-.33-.44-.32a17.85,17.85,0,0,0,6.59-2.45l4.92-3.38,4.49,6.54a12.66,12.66,0,0,1-1.14.63A2.09,2.09,0,0,1,165.69,140.31Z"/>
            <path class="cls-42" d="M170.15,127.84h0c.82-.56,1.65-1.1,2.47-1.63l4.45,6.49h0l-9.94,6.83L162.64,133Z"/>
            <path class="cls-43" d="M226.64,111.32c4.1,5.07,7.4,8.62,9.27,9.91h0c-4.59-1.28-13.75-2.53-24.82-1.2l-.18,0-1.43.19-.21,0c-1.4.2-2.84.44-4.3.73l-.56.12-1.2.26-.7.16-1.17.28-.77.2-1.9.52-1,.29-1,.31-1,.33-1,.33-1.19.43-.86.32c-.6.23-1.21.47-1.81.72l-.82.34c-.41.18-.82.35-1.23.54l-.85.38-1.32.63-.71.35c-.66.33-1.32.67-2,1l-.55.3-1.51.85-.72.43c-.47.28-.94.56-1.4.86-.23.13-.45.27-.67.41-.66.43-1.33.86-2,1.32l0,0-4.46-6.5A96.24,96.24,0,0,1,226.64,111.32Z"/>
            <path class="cls-37" d="M193,58.73c1.06,4.46,8.74,17.8,19.09,32.88s20,27,23.83,29.62a51.41,51.41,0,0,0-8.53-1.46,145.72,145.72,0,0,1-36.09-52.56A50.57,50.57,0,0,0,193,58.73Z"/>
            <path class="cls-44" d="M191.29,67.21a50.57,50.57,0,0,0,1.7-8.48h0c.45,1.89,2.1,5.4,4.64,10l-.33,1.22c-.55,2-1.23,4.06-2.05,6.28C193.84,73.24,192.51,70.25,191.29,67.21Z"/>
            <path class="cls-36" d="M235.91,121.22a51.42,51.42,0,0,0-8.52-1.45q-4.32-4-8.28-8.33c2.64-.14,5.16-.17,7.53-.12,4.1,5.07,7.4,8.62,9.27,9.9Z"/>
            <path class="cls-45" d="M216.13,90.77c1.73,2.52,4.29,3.76,5.73,2.78s1.19-3.82-.54-6.34-4.29-3.76-5.72-2.77S214.4,88.26,216.13,90.77Z"/>
          </g>
          <path class="cls-4" d="M206.89,158.22c2.14-3.37,6.24-6.55,6.61-8.11.91-3.86-3-3.49-3-3.49,1-4.41-7-3.43-7-3.43-1.4-5.19-9.22-3.5-9.22-3.5-1.57-4.35-1.44-5.9-7.72-4-6.54,1.93-6.17,8.58-5.27,12.59"/>
          <path class="cls-4" d="M185.76,165.89a19.16,19.16,0,0,1-9.67-11.61c-2.28-7.9,3.46-7.59,6.12-9.15s7-4.78,5.69,1.31-5,3.31,1.06,8.57,2.69,3.46,4.15,5.63"/>
          <path class="cls-4" d="M193.67,139c.57,1.6-3.68,9.18-3.68,9.18"/>
          <path class="cls-46" d="M202.89,142.45s-2.27,7-6.07,8.21-9.26-.06-6.83-2.52"/>
          <path class="cls-46" d="M209.65,145.46s-2.28,7-6.07,8.2-9.26-.06-6.83-2.51"/>
          <path class="cls-46" d="M213.64,148.27s-2.28,7-6.07,8.21-9.26-.06-6.83-2.52"/>
        </g>
      </g>
    </g>
  </g>
</svg>
