<svg id="Layer_1" data-name="Layer 1" xmlns="http://www.w3.org/2000/svg" width="288" height="235.66" viewBox="0 0 288 235.66">
  <defs>
    <style>
      .cls-1 {
        opacity: 0.5;
      }

      .cls-2 {
        fill: #353535;
      }

      .cls-3 {
        fill: #fff;
      }

      .cls-4 {
        fill: #ff8d55;
      }

      .cls-4, .cls-5, .cls-8 {
        stroke: #c94f18;
        stroke-width: 0.5px;
      }

      .cls-4, .cls-5, .cls-6, .cls-8 {
        stroke-miterlimit: 10;
      }

      .cls-5 {
        fill: #e97144;
      }

      .cls-6 {
        fill: #cc4f31;
        stroke: #933c19;
        stroke-width: 0.25px;
      }

      .cls-7 {
        fill: #4f4f4f;
      }

      .cls-8 {
        fill: #db7649;
      }
    </style>
  </defs>
  <g>
    <g class="cls-1">
      <path class="cls-2" d="M66.54,234a9.9,9.9,0,0,1-5-1.34l-50.76-29.3a10,10,0,0,1-5-8.66l0-43.61,0-.45a10,10,0,0,1,3.88-6.7l.06,0c.31-.23.64-.44,1-.64l53.94-31.14v-36a10,10,0,0,1,1.14-4.58l0-.06a10,10,0,0,1,3.83-4l105.73-61a10,10,0,0,1,10,0l50.75,29.3a10,10,0,0,1,5,8.66V87.2a9.91,9.91,0,0,1-.58,3.35l40.27,23.25a10,10,0,0,1,5,8.65v42.79a10,10,0,0,1-5,8.66l-50.75,29.3a10,10,0,0,1-10,0L171.31,175l-99.77,57.6A10,10,0,0,1,66.54,234Z"/>
    </g>
    <path class="cls-3" d="M63.46,231a9.92,9.92,0,0,1-5-1.34L7.71,200.38a10,10,0,0,1-5-8.66V148.94a10,10,0,0,1,5-8.66l53.93-31.13v-36a10,10,0,0,1,5-8.57l105.73-61a10,10,0,0,1,10,0l50.75,29.3a10,10,0,0,1,5,8.66V84.27a9.91,9.91,0,0,1-.58,3.35l40.27,23.25a10,10,0,0,1,5,8.63v42.81a10,10,0,0,1-5,8.66l-50.75,29.3a10,10,0,0,1-10,0l-48.83-28.19-99.77,57.6A9.92,9.92,0,0,1,63.46,231Z"/>
    <g>
      <g>
        <polygon class="cls-4" points="167.08 58.49 116.33 87.79 222.06 148.84 272.81 119.53 167.08 58.49"/>
        <polygon class="cls-5" points="116.33 87.79 116.33 130.57 222.06 191.61 222.06 148.84 116.33 87.79"/>
        <polygon class="cls-6" points="272.81 119.53 272.81 162.31 222.06 191.61 222.06 148.84 272.81 119.53"/>
        <path class="cls-7" d="M222.1,148.3c73.82-42.85,60.59-33.78.4.79-.19,52.06-.66,60.29-.88,0C81.9,67.73,80.4,67.24,222.1,148.3Z"/>
        <polygon class="cls-4" points="258.73 118.81 165.67 65.1 127.62 87.07 220.66 140.79 258.73 118.81"/>
        <polygon class="cls-8" points="127.62 87.07 133.53 90.49 165.67 71.93 252.81 122.23 258.73 118.81 165.67 65.1 127.62 87.07"/>
      </g>
      <g>
        <polygon class="cls-4" points="118.44 87.9 169.19 117.2 63.46 178.25 12.71 148.94 118.44 87.9"/>
        <polygon class="cls-5" points="169.19 117.2 169.19 159.98 63.46 221.03 63.46 178.25 169.19 117.2"/>
        <polygon class="cls-6" points="12.71 148.94 12.71 191.72 63.46 221.03 63.46 178.25 12.71 148.94"/>
        <path class="cls-7" d="M63.42,177.71c-73.82-42.85-60.59-33.78-.4.79.19,52.06.67,60.29.88.05C203.62,97.14,205.12,96.65,63.42,177.71Z"/>
        <polygon class="cls-4" points="26.8 148.22 119.85 94.51 157.9 116.48 64.86 170.2 26.8 148.22"/>
        <polygon class="cls-8" points="157.9 116.48 151.99 119.9 119.85 101.34 32.71 151.64 26.8 148.22 119.85 94.51 157.9 116.48"/>
      </g>
      <g>
        <polygon class="cls-4" points="177.37 12.19 228.12 41.49 122.39 102.53 71.64 73.23 177.37 12.19"/>
        <polygon class="cls-5" points="228.12 41.49 228.12 84.27 122.39 145.31 122.39 102.53 228.12 41.49"/>
        <polygon class="cls-6" points="71.64 73.23 71.64 116.01 122.39 145.31 122.39 102.53 71.64 73.23"/>
        <path class="cls-7" d="M122.35,102c-73.82-42.85-60.59-33.78-.4.79.19,52.06.67,60.29.88,0C262.56,21.43,264.05,20.94,122.35,102Z"/>
        <polygon class="cls-4" points="85.73 72.51 178.78 18.8 216.84 40.77 123.79 94.49 85.73 72.51"/>
        <polygon class="cls-8" points="216.84 40.77 210.92 44.19 178.78 25.63 91.64 75.93 85.73 72.51 178.78 18.8 216.84 40.77"/>
      </g>
    </g>
  </g>
</svg>
