<svg xmlns="http://www.w3.org/2000/svg" width="259.15" height="201.7" viewBox="0 0 259.15 201.7">
  <defs>
    <style>
      .cls-1 {
        isolation: isolate;
      }

      .cls-17, .cls-2, .cls-6 {
        opacity: 0.5;
      }

      .cls-3 {
        fill: #353535;
      }

      .cls-4 {
        fill: #fff;
      }

      .cls-5 {
        fill: #b56823;
      }

      .cls-13, .cls-6, .cls-7 {
        fill: #dd9043;
      }

      .cls-12, .cls-13, .cls-16, .cls-18, .cls-6 {
        mix-blend-mode: multiply;
      }

      .cls-17, .cls-8, .cls-9 {
        fill: #c97d39;
      }

      .cls-8 {
        opacity: 0.8;
      }

      .cls-10 {
        fill: #a05d2b;
      }

      .cls-11, .cls-12 {
        fill: #7a4417;
      }

      .cls-12 {
        opacity: 0.4;
      }

      .cls-13, .cls-15 {
        opacity: 0.25;
      }

      .cls-14 {
        fill: #351c0a;
      }

      .cls-15 {
        fill: #efae59;
        mix-blend-mode: overlay;
      }

      .cls-16 {
        fill: #e58f48;
        opacity: 0.2;
      }

      .cls-18 {
        fill: #994507;
      }
    </style>
  </defs>
  <g class="cls-1">
    <g id="Layer_1" data-name="Layer 1">
      <g>
        <g class="cls-2">
          <path class="cls-3" d="M101.43,200.53a4.71,4.71,0,0,1-3.9-7.29c1.71-2.65,5.06-4.58,10-5.73a4.66,4.66,0,0,0,3.39-3.4c2.9-11.32,3.57-20.38,1.84-24.84-.26-.66-.49-1.3-.71-1.93,0-.15-.2-.65-.2-.65-.13-.38-.26-.8-.38-1.2,0-.16-.2-.75-.2-.75-.09-.32-.18-.67-.27-1l-.16-.72c-.07-.31-.14-.62-.2-.93l-.13-.71c0-.29-.1-.57-.14-.85l-.1-.65c0-.29-.06-.55-.09-.82s0-.41-.06-.61,0-.51-.06-.76,0-.4,0-.55,0-.46,0-.69V146c0-.26,0-.48,0-.69v-.37c0-.24,0-.43,0-.62V144c0-.37.06-.65.09-.9l.1-.71s.14-.79.15-.83l.1-.44c0-.27.19-1.52.19-1.52,0-.22.15-1.57.15-1.57,0-.2.07-1,.07-1l0-.47,0-1.42v-1.36l0-1.29-.07-1.21s-.09-1-.1-1.16l-.14-1.1c0-.11-.17-1-.17-1l-.21-1s-.19-.81-.22-.92-.25-.9-.25-.9-.24-.76-.28-.89l-.3-.83-.33-.84c0-.05-.27-.61-.32-.72l-.38-.79-.36-.7-.4-.71-.4-.69-.42-.67-.43-.66-.44-.65-.45-.65L104,114.58l-1.11-1.53-.48-.69-.47-.7A73,73,0,0,1,96.5,102,64.57,64.57,0,0,1,85,99.61c-1.9-.57-3.8-1.25-5.66-2l-.15-.06c-.43-.17-.87-.36-1.31-.55l-.18-.08c-.47-.2-.92-.4-1.41-.63-1-.44-1.86-.88-2.74-1.34a3.06,3.06,0,0,1-.82-.43l-1.11-.61-.23-.13q-.65-.36-1.29-.75l-.28-.16L68.43,92l-.15-.09c-1.1-.71-2.16-1.43-3.16-2.16a.87.87,0,0,0-.1-.08c-.45-.32-.93-.69-1.41-1.06l-.29-.22c-.41-.33-.82-.65-1.23-1l-.32-.27c-.44-.36-.85-.72-1.27-1.09l-.23-.19c-1-.93-2.06-1.9-3.05-2.89l-.15-.15c-.41-.42-.85-.88-1.28-1.35l-.16-.16-.2-.22-1-1.14-.4-.47c-.33-.38-.65-.76-1-1.15l-.41-.51c-.34-.42-.65-.82-1-1.24l-.36-.47c-.44-.59-.85-1.15-1.26-1.72L49.75,74l-1-1.47-.54-.84q-.33-.51-.66-1l-.59-1-.58-1c-.2-.33-.39-.68-.59-1l-.54-1,0-.11q-.27-.5-.54-1c-.13-.26-.28-.55-.42-.84l-.2-.41-.45-.93-.33-.72-.14-.32c-.35-.75-.68-1.53-1-2.32,0,0-.34-.79-.45-1.07s-.24-.6-.35-.9l-.2-.52c-.15-.38-.27-.7-.39-1s-.31-.86-.46-1.3-.29-.82-.43-1.24l-.42-1.3L39,51.18l-.37-1.26c-.15-.53-.3-1.07-.44-1.6l-.1-.36c-.08-.28-.14-.52-.2-.77-.24-.91-.46-1.85-.68-2.79a1.75,1.75,0,0,0-.2-.51,1.49,1.49,0,0,0-.23-.28,33.27,33.27,0,0,0-11.32-6.72A23.68,23.68,0,0,0,22,36c-9.9-1.91-15.55-3.24-16-8.18a7.52,7.52,0,0,1,.65-4,5.67,5.67,0,0,1,.94-6.44c1.35-1.51,3.58-2.41,6.76-2.73a23.1,23.1,0,0,1,11.86-3.34,21.56,21.56,0,0,1,3.59.3c.36.06.73.11,1.09.14a8.75,8.75,0,0,1,2.54-1l.73-.13.14,0c.2,0,.39,0,.65-.06H36l.39,0h.1l.35,0,.47.08.37.06.69.17a22.27,22.27,0,0,1,5-.66,15.57,15.57,0,0,1,2.37.19c1.6-2.71,3.85-4.3,6.17-4.3s5,1.63,5.57,6.18a12.51,12.51,0,0,1-.31,4.9c3.52,4.69,5.12,11.77,8.26,25.62.44,1.94.91,4,1.42,6.23,1.71,7.45,8.08,13.8,16.22,16.18a21.1,21.1,0,0,0,5.86.88,12.39,12.39,0,0,0,8.9-3.22l.14-.13c2.05-2,4-4.27,6.08-6.63,7.64-8.71,16.26-18.52,29.78-18.94h1.5c1.75,0,2.94,0,3.77-.09a11.24,11.24,0,0,0,1.41-.32,4.92,4.92,0,0,1,.75-.29c2.83-1.22,4.34-3.76,6.24-7,2.81-4.73,6.3-10.61,15.21-10.92l1.47,0a23.93,23.93,0,0,1,12.76,3.14,25.76,25.76,0,0,1,6.46,5.89,3,3,0,0,1,.23.27l1.18,1.46.89,1.08.72.84.33.37.73.8.4.4.34.33c.19.19.36.34.54.5l.25.23c.28.24.56.47.85.69,3.15,2.4,8.75,3.75,14.68,5.18,6.19,1.49,13.21,3.18,19.4,6.51.83.45,1.65.93,2.43,1.42l.31.14.77.36.87.43.9.48.8.46.81.5.78.52.72.51c.16.12.64.48.74.57l.64.53.37.32.28.25.32.32.32.31.53.55.56.64c.06.06.47.57.54.65l.46.62.19.27.25.38s.46.73.47.76l.38.67.32.62c.06.14.33.73.35.76l.25.62c.06.16.24.64.27.74l.25.78L240,62l.18.73s.15.77.16.8.11.69.11.73l.09.62.07.73,0,.72,0,.73v1c.58,2,1.11,4.18,1.64,6.62a112.63,112.63,0,0,1,2.16,18.82v.19c0,1.64,0,3.34,0,5s-.06,3-.14,4.26c0,.21,0,.44,0,.67l.08.14.19.36c.06.13.14.3.21.47l.15.37c.06.16.11.32.16.48s.09.27.12.39.08.3.12.47c0,0,.07.28.09.39s.07.33.1.51l0,.28c.05.32.09.59.11.86l0,.27c0,.23,0,.45,0,.67l0,.37c0,.18,0,.36,0,.55,0,0,0,.73,0,.91l0,.92v.38l-.06.92-.07,1-.1,1s-.07.59-.1.84l-.12.9-.08.58c0,.25,0,.5,0,.76,3.27,10.73,7.84,18.44,9.93,20.3,5.18,4.61,2.5,8.9.73,11.74a22.11,22.11,0,0,0-3.52,8.3c-1.79,9.46.32,23.4,1.29,28a5.64,5.64,0,0,1-1,4.95c-1.75,2.16-4.55,2.16-5.47,2.16h-.08c0,.21.07.43.11.66a4.93,4.93,0,0,1-4.84,5.85H227.78a4.94,4.94,0,0,1-4.51-7c1-2.1,3.29-4.85,8.9-6.15.56-.13,2-1.11,3.59-3.91,2-3.51,7.82-16.89-.29-41.48a27.13,27.13,0,0,0-1.45-3.56l-.42-.12a6,6,0,0,1-1.07-.46c4.29,7.13,2.78,10.31-.2,15.14a45.53,45.53,0,0,0-4.47,8.92c-.36,1-.76,1.95-1.19,3-2.25,5.54-4.78,11.77-3.42,20.7a8.15,8.15,0,0,1,.1,1.46c-.1,3.5-2.37,5.62-6.75,6.29,0,.11,0,.22-.07.33a10.82,10.82,0,0,0-.16,1.47,5.36,5.36,0,0,1-5.27,5.15L195,200.4a5.1,5.1,0,0,1-3.93-1.81,5,5,0,0,1-1.09-4c.81-4.61,4.88-7,11.2-9.38l.23-.08c4.56-1.69,11.48-17.77,14.16-38.14.06-.46.1-.92.14-1.37s.05-.86.05-1.28a18.76,18.76,0,0,0-.28-3.53c-.07-.37-.14-.73-.23-1.1a20.52,20.52,0,0,0-.85-2.71,62.62,62.62,0,0,0-4.39-8.59c-3.33-5.81-7.35-12.84-10.24-23.58-8.81,8.88-20.45,13.44-34.7,13.57h-3.43c-.76,0-1.53,0-2.3,0l-.59,0q-1.17,0-2.34-.09l-.44,0-2.67-.16c-1-.06-1.93-.13-2.88-.22-.36,1.69-.7,3.31-1,4.86-.87,4.81-.95,7.93-.25,9.27,4.55,8.73,6.76,13.54,7.37,27.47.42,9.73,4.74,18.16,7.32,23.2.63,1.23,1.17,2.29,1.54,3.16a5.49,5.49,0,0,1-.21,5.39,5.16,5.16,0,0,1-3,2.13l.1.44a5.62,5.62,0,0,1-5.47,6.86l-15.83.05-.24,0-.7,0a4.12,4.12,0,0,1-4.25-5,7.93,7.93,0,0,1,7.48-6.91,3.86,3.86,0,0,0,2.49-.84c1.15-1.54,0-7.17-1-12.61l-.27-1.33a20.43,20.43,0,0,0-4-9.43A22.06,22.06,0,0,1,136,154.37a65,65,0,0,0-3.61-13.28q-1.53-2.73-2.93-5.4c.83,8.07,1.38,16.83.17,22.63-1.57,7.48-2.73,21.9-1.85,28.07.4,2.77,0,4.86-1.38,6.39a5.59,5.59,0,0,1-3.22,1.82,6.57,6.57,0,0,1-6.56,6.07Z"/>
        </g>
        <g>
          <path class="cls-4" d="M96.05,195.51a4.72,4.72,0,0,1-3.91-7.29c1.72-2.66,5.07-4.59,10-5.74a4.65,4.65,0,0,0,3.39-3.39c2.9-11.33,3.57-20.38,1.84-24.84-.26-.66-.49-1.3-.71-1.93-.05-.15-.2-.65-.2-.65-.13-.39-.26-.8-.38-1.2-.05-.16-.2-.74-.2-.74-.09-.34-.19-.68-.27-1l-.16-.72c-.07-.3-.14-.62-.2-.92l-.12-.62c-.06-.37-.11-.66-.15-.94s-.07-.46-.1-.67-.07-.55-.1-.81l-.06-.62c0-.25,0-.51-.05-.75s0-.39,0-.55,0-.47,0-.7V139.9c0-.29,0-.5,0-.72v-.24c0-.35.06-.63.09-.89,0,0,.07-.55.1-.71l0-.27s.13-.65.14-.68l.07-.32c0-.23.17-1.36.19-1.53s.14-1.4.15-1.57.07-1,.07-1l0-.48.06-1.42V128.7l0-1.28-.07-1.21-.1-1.16-.14-1.1c0-.11-.17-1-.17-1l-.21-1s-.19-.81-.22-.92-.25-.89-.25-.89-.25-.8-.29-.91-.24-.68-.29-.81l-.33-.84s-.26-.59-.32-.71l-.38-.8-.36-.69-.4-.73-.4-.68-.42-.67-.43-.66-.44-.65-.45-.65-.45-.65-.77-1.07c-.39-.53-.74-1-1.11-1.54l-.47-.68-.48-.7A73.68,73.68,0,0,1,91.12,97a65.74,65.74,0,0,1-11.53-2.43c-1.9-.58-3.8-1.25-5.65-2l-.14-.06L72.48,92l-.18-.08-1.42-.63c-1-.45-1.86-.89-2.73-1.34a2.7,2.7,0,0,1-.82-.44c-.37-.19-.74-.39-1.1-.6L66,88.76,64.7,88l-.28-.16L63,87l-.15-.1c-1.09-.7-2.14-1.42-3.15-2.15l-.11-.09c-.44-.32-.92-.68-1.4-1.05l-.29-.23q-.61-.48-1.23-1l-.32-.26c-.44-.36-.86-.72-1.27-1.09l-.23-.2c-1-.93-2.06-1.89-3-2.88l-.15-.16c-.41-.42-.85-.87-1.29-1.34l-.15-.17-.2-.22-1-1.14-.4-.46-1-1.15-.41-.52c-.34-.41-.65-.82-1-1.23l-.37-.48c-.43-.58-.84-1.14-1.25-1.72l-.29-.42c-.33-.47-.66-1-1-1.46l-.54-.83-.67-1.07-.53-.89,0-.08-.59-1c-.19-.34-.39-.69-.58-1.05l-.54-1-.59-1.12-.42-.85-.2-.42c-.15-.29-.3-.61-.45-.92s-.22-.48-.33-.72l-.14-.31c-.35-.76-.69-1.54-1-2.33l-.46-1.08-.39-1-.15-.41c-.15-.38-.27-.7-.39-1s-.31-.87-.46-1.3l-.43-1.24L34,47.52c-.13-.42-.27-.85-.4-1.29l-.39-1.33c-.16-.54-.3-1.08-.45-1.62,0,0-.23-.85-.29-1.11-.24-.92-.46-1.85-.68-2.79a1.65,1.65,0,0,0-.2-.51,1.28,1.28,0,0,0-.24-.29,32.91,32.91,0,0,0-11.32-6.71,23.28,23.28,0,0,0-3.45-.94C6.72,29,1.07,27.69.59,22.76a7.42,7.42,0,0,1,.65-4,5.67,5.67,0,0,1,.94-6.45c1.35-1.5,3.57-2.41,6.76-2.72A23,23,0,0,1,20.8,6.25a21.65,21.65,0,0,1,3.59.3c.36.07.73.11,1.09.15A8.64,8.64,0,0,1,28,5.7a5.55,5.55,0,0,1,.73-.13l.12,0a5.74,5.74,0,0,1,.67-.06h1l.42,0,.15,0,.33,0,.49.08.35.06.41.1.28.06a22.87,22.87,0,0,1,5-.65,15.56,15.56,0,0,1,2.37.18C42,2.67,44.2,1.09,46.52,1.09s5,1.62,5.57,6.18a12.51,12.51,0,0,1-.31,4.9C55.29,16.86,56.9,23.94,60,37.78l.08.35q.62,2.76,1.34,5.89c1.71,7.44,8.07,13.79,16.22,16.17a20.75,20.75,0,0,0,5.86.89,12.45,12.45,0,0,0,8.9-3.22l.14-.13c2.07-2.08,4-4.31,6.11-6.68,7.61-8.66,16.23-18.48,29.75-18.9h.25l.71,0h.54c1.76,0,2.95,0,3.77-.09a11.24,11.24,0,0,0,1.41-.32,3.79,3.79,0,0,1,.75-.29c2.83-1.23,4.34-3.77,6.24-7,2.81-4.73,6.3-10.61,15.2-10.92l1.48,0c5.12,0,9.29,1,12.75,3.14A25.92,25.92,0,0,1,178,22.56a3,3,0,0,1,.23.27l2.07,2.54.72.84.32.37.42.46.31.32.46.47.31.3.51.47.26.24c.28.24.56.46.85.68,3.15,2.41,8.75,3.76,14.67,5.18,6.2,1.5,13.22,3.19,19.41,6.52.82.44,1.64.92,2.42,1.42l.32.14.76.35.88.44.9.48.8.45.81.5.78.52.72.52c.16.11.62.47.73.55l.65.54.64.58.42.39.22.22.54.57.56.63.55.67.44.6.45.65.47.76.38.68s.27.52.32.63l.3.66.2.47.1.25c.05.13.25.65.28.76l.24.74.17.61.17.73s.16.78.17.81.11.69.11.72l.08.63.08.72,0,.73,0,.73v1c.58,2,1.11,4.18,1.64,6.62a112.39,112.39,0,0,1,2.16,18.81v.2c0,1.64,0,3.33,0,5s-.06,3-.14,4.21l0,.72.06.11.16.31a5.36,5.36,0,0,1,.26.56,3.11,3.11,0,0,1,.12.3c.09.22.14.38.19.53s.08.25.12.39l.12.48.08.36c0,.17.07.34.1.5l.05.31c.05.34.08.6.11.87l0,.27c0,.22,0,.44,0,.67l0,.36c0,.19,0,.37,0,.55v.9l0,.92,0,.41,0,.91c0,.21-.07,1-.07,1,0,.3-.1,1-.1,1s-.07.59-.1.83l-.12.91-.08.57c0,.25,0,.51,0,.76,3.27,10.74,7.84,18.44,9.93,20.3,5.18,4.61,2.5,8.91.72,11.75a22.22,22.22,0,0,0-3.51,8.29c-1.78,9.43.39,23.72,1.29,28a5.67,5.67,0,0,1-1,5c-1.74,2.16-4.55,2.16-5.47,2.16h-.08c0,.21.07.43.11.65a4.93,4.93,0,0,1-4.84,5.86H222.4a5,5,0,0,1-4.17-2.28,4.91,4.91,0,0,1-.34-4.7c1-2.09,3.29-4.84,8.9-6.15.56-.12,2-1.1,3.59-3.9,2-3.52,7.82-16.89-.29-41.48a26.58,26.58,0,0,0-1.45-3.56l-.43-.12a6.28,6.28,0,0,1-1.06-.46c4.29,7.12,2.78,10.3-.2,15.13a46.56,46.56,0,0,0-4.47,8.93c-.37,1-.78,2-1.21,3-2.23,5.5-4.76,11.73-3.4,20.65a7.3,7.3,0,0,1,.09,1.46c-.09,3.51-2.36,5.62-6.74,6.29,0,.12-.05.23-.07.34A9.43,9.43,0,0,0,211,190a5.36,5.36,0,0,1-5.28,5.14l-16.05.2a5.1,5.1,0,0,1-3.93-1.81,5,5,0,0,1-1.09-4c.81-4.62,4.88-7,11.19-9.38l.24-.09c4.55-1.68,11.48-17.76,14.15-38.13.06-.46.11-.92.14-1.36s.06-.88.06-1.3a19.52,19.52,0,0,0-.28-3.52c-.07-.37-.15-.74-.23-1.1a21.62,21.62,0,0,0-.85-2.72,62.33,62.33,0,0,0-4.38-8.57c-3.34-5.82-7.36-12.86-10.25-23.6-8.81,8.89-20.45,13.45-34.7,13.58H156.3l-2.3,0-.59,0-2.34-.09-.44,0L148,113l-2.88-.22c-.36,1.69-.7,3.31-1,4.86-.87,4.8-1,7.92-.25,9.27,4.55,8.72,6.76,13.54,7.37,27.47.42,9.72,4.74,18.15,7.32,23.19.66,1.3,1.18,2.31,1.54,3.17a5.47,5.47,0,0,1-.21,5.38,5.2,5.2,0,0,1-3,2.14l.1.44a5.62,5.62,0,0,1-5.47,6.85l-15.83.06h-.28l-.66,0a4.13,4.13,0,0,1-4.25-5,8,8,0,0,1,7.48-6.92,3.75,3.75,0,0,0,2.49-.84c1.15-1.53,0-7.16-1-12.6l-.27-1.34a20.44,20.44,0,0,0-4-9.42,22.05,22.05,0,0,1-4.44-10.2A65.2,65.2,0,0,0,127,136.07c-1-1.83-2-3.63-2.93-5.4.83,8.07,1.38,16.83.16,22.63-1.56,7.48-2.72,21.89-1.84,28.07.4,2.77,0,4.86-1.38,6.38a5.6,5.6,0,0,1-3.22,1.83,6.61,6.61,0,0,1-6.56,6.07Z"/>
          <g>
            <g>
              <path class="cls-5" d="M244.71,182.51c.86,4-4.58,2.34-6.2,2.61-.91.17-.54,3.54-.24,5.1a1.28,1.28,0,0,1-1.26,1.51H222.4a1.3,1.3,0,0,1-1.19-1.82c.63-1.36,2.24-3.13,6.4-4.1,6.43-1.48,15.9-19.89,5.95-50.08a31.46,31.46,0,0,0-14-17.32,47.14,47.14,0,0,1-5.5-3.74c-7.79-6.12-15.72-16.4-14.69-32.64.85-13.33,3.42-22.61,6.69-28.23,4.36-7.44,10-8.41,14.46-3.75,0,0,5.74,2.64,9.4,11.06,2.14,4.91,3.56,11.77,2.73,21.21a82.94,82.94,0,0,0,1.74,24.76c3.23,14.87,9.56,26.39,12.92,29.38,5.08,4.51-2,6.2-3.95,16.64S243.88,178.56,244.71,182.51Z"/>
              <path class="cls-5" d="M153.72,184.85a1,1,0,0,0-1.1,1.27l.76,3.37a2,2,0,0,1-1.91,2.41l-15.85,0c-.89,0-1.74.26-1.58-.63a4.34,4.34,0,0,1,4.23-3.95c8.39-.76,6.68-7.65,4.42-19.11s-6.77-10.16-8.46-19.56-3.95-14.28-3.95-14.28a169.73,169.73,0,0,1-11-23.17c-5-13.42-4.61-19.8-4.6-20.45.57-19.55,14.1-13.54,25.2-6,7.82,5.3,2.74,20.59.64,32.19-.88,4.85-1.23,9.06.1,11.61,4.52,8.65,6.4,13,7,25.94s7.47,23.69,9.16,27.63C157.88,184.84,155.42,185,153.72,184.85Z"/>
              <path class="cls-6" d="M140.51,117c-8,.68-14.3.4-21.24-5.73-5-13.42-4.61-19.8-4.6-20.45.57-19.55,14.1-13.54,25.2-6C147.69,90.09,142.61,105.38,140.51,117Z"/>
              <path class="cls-6" d="M234.43,107.08a100.08,100.08,0,0,1-20.33,7.59c-7.79-6.12-15.72-16.4-14.69-32.64.85-13.33,3.42-22.61,6.69-28.23A115.64,115.64,0,0,1,230,61.11c2.14,4.91,3.56,11.77,2.73,21.21A82.94,82.94,0,0,0,234.43,107.08Z"/>
              <path class="cls-7" d="M202.74,86.41a7.61,7.61,0,0,1-2.15.44c-2.54-.28-9.59,22.56-40.89,22.84a155.6,155.6,0,0,1-36.44-4c-1.31-.3-2.59-.62-3.83-1l-1.12-.3c-8.44-2.3-15.28-5-19.63-7.64a18.39,18.39,0,0,1-4.12-3.12s-.34,0-1,0c-.17,0-.37,0-.59-.06A62.92,62.92,0,0,1,53,73.85c-7.44-8-14-19.36-17.57-35.29A5.67,5.67,0,0,0,34.74,37a5.4,5.4,0,0,0-.86-1.06,36.6,36.6,0,0,0-12.64-7.5,27.1,27.1,0,0,0-3.94-1.06c-13.6-2.63-14.14-4-12.45-7.75a.75.75,0,0,0,.07-.18,2.12,2.12,0,0,0,0-1.55v0l-.13-.23a2.21,2.21,0,0,1,.09-2.82c.73-.8,2.28-1.46,5.25-1.64h.06a19.19,19.19,0,0,1,13.62-3c9.06,1.52,12.26-3.95,20.59.43,7.24,3.8,8.18,11,13.53,34.25,2.19,9.54,10.27,16.38,18.76,18.86,6.77,2,13.79,1.2,18.33-3.22l.13-.13c9.72-9.71,18.13-24.07,33.41-24.54h.31c.58,0,1.19,0,1.81,0a15.37,15.37,0,0,0,6-.74l.52-.22c9.24-3.76,8.09-17.22,20.29-17.65,5.63-.2,9.38.86,12.21,2.58,5.25,3.2,7.39,8.67,12.61,12.65,7.36,5.6,22.76,5.65,34.56,12a27.38,27.38,0,0,1,11.68,11.4C237.2,72.23,210.86,84,202.74,86.41Z"/>
              <path class="cls-8" d="M201.34,82c-2.54-.28-9.59,22.56-40.89,22.84s-59.22-9.58-65.14-16.07c0,0-46.81-.42-59.17-55A8.68,8.68,0,0,0,34.63,31c-9-5.92-30.54-6.72-29.71-11.6a3.15,3.15,0,0,1,0,.46C3.2,23.59,3.7,24.72,17.3,27.35a27.1,27.1,0,0,1,3.94,1.06,36.6,36.6,0,0,1,12.64,7.5A5.4,5.4,0,0,1,34.74,37a5.67,5.67,0,0,1,.65,1.59C47.75,93.2,94.56,93.62,94.56,93.62c5.92,6.48,33.84,16.35,65.14,16.07s38.35-23.12,40.89-22.84c2.25.25,30.36-9.75,29.64-25C225.78,74.3,203.35,82.19,201.34,82Z"/>
              <path class="cls-9" d="M14.73,19.15a21.67,21.67,0,0,1-5.25,1.14,10.3,10.3,0,0,1-2.76-.16,5.59,5.59,0,0,1-1.8-.71,2.12,2.12,0,0,0,0-1.55.28.28,0,0,1,.09.07.2.2,0,0,0,.06.09l0,.06a2.46,2.46,0,0,0,.75.71,4.75,4.75,0,0,0,1.12.51,9.57,9.57,0,0,0,2.53.42,19.45,19.45,0,0,0,2.64-.13C13,19.5,13.85,19.33,14.73,19.15Z"/>
              <path class="cls-7" d="M37,16.67a3.16,3.16,0,0,1-.86,1.14c-1.5,1.36-4.17,1.61-6.66.45a7.56,7.56,0,0,1-2.78-2.2,4.45,4.45,0,0,1-.81-4.61c1.08-2.33,4.45-3,7.52-1.59S38.07,14.35,37,16.67Z"/>
              <path class="cls-10" d="M37,16.67a3.16,3.16,0,0,1-.86,1.14c-1.5,1.36-4.17,1.61-6.66.45a7.56,7.56,0,0,1-2.78-2.2,4.45,4.45,0,0,1-.81-4.61c1.08-2.33,4.45-3,7.52-1.59S38.07,14.35,37,16.67Z"/>
              <path class="cls-9" d="M41.94,13.8a1.93,1.93,0,0,0,2.28,1.43c2.07-.63,4.84-2.57,4.25-7.53C47.67,1,41.58,6.73,41.94,13.8Z"/>
              <path class="cls-7" d="M46,13.11a1.94,1.94,0,0,1-2.29-1.43,12,12,0,0,1,1.48-6.42c-1.73,1.27-3.44,4.7-3.24,8.54a1.93,1.93,0,0,0,2.28,1.43,5.87,5.87,0,0,0,3.67-3.07A6.15,6.15,0,0,1,46,13.11Z"/>
              <path class="cls-11" d="M35.2,16.4c0,1.62-3.66,1.39-5.17,1.39a2.83,2.83,0,0,1-2.72-2.93A2.83,2.83,0,0,1,30,11.94C31.54,11.94,35.2,14.79,35.2,16.4Z"/>
              <path class="cls-12" d="M36.61,16.73c0,1.62-3.66,1.39-5.17,1.39a2.83,2.83,0,0,1-2.72-2.93,2.83,2.83,0,0,1,2.72-2.92C33,12.27,36.61,15.11,36.61,16.73Z"/>
              <path class="cls-7" d="M235.45,93.68c0,1.36,0,2.71-.13,4.08-.1,3-.42,6.08-.79,9.09s-1,6-1.51,9c-.12.51-.24,1-.37,1.51-.58,2.45-1.24,4.89-2,7.29-.08-2.54,0-5,.11-7.54v-.3c0-.41,0-.83,0-1.23l.08-4.49.07-2.25,0-2.23c0-1.5,0-3,.06-4.48s0-3,0-4.45c0-1.25,0-2.51,0-3.75,0-1.72-.08-3.45-.1-5.16-.2-5.92-.52-11.85-1.07-17.77s-1.27-11.83-2.39-17.79a64.11,64.11,0,0,1,5.88,17.27,107.71,107.71,0,0,1,2.08,18.16C235.45,90.31,235.47,92,235.45,93.68Z"/>
              <path class="cls-7" d="M232.83,105.89c-3.94-.28-5.61,1.5-5.39,21.23a2.76,2.76,0,0,0,2.4,2.71l1.4.18a2.35,2.35,0,0,0,2.59-1.76C235.29,122.42,238.85,106,232.83,105.89Z"/>
              <path class="cls-7" d="M232.83,105.89c-3.94-.28-5.61,1.5-5.39,21.23a2.76,2.76,0,0,0,2.4,2.71l1.4.18a2.35,2.35,0,0,0,2.59-1.76C235.29,122.42,238.85,106,232.83,105.89Z"/>
              <path class="cls-13" d="M235.45,93.68c0,1.36,0,2.71-.13,4.08-.1,3-.42,6.08-.79,9.09s-1,6-1.51,9c-.12.51-.24,1-.37,1.51l-.28,0-1.41-.19a.65.65,0,0,1-.18,0v-.3L231,93.92a3.66,3.66,0,0,1,2.92-.73A2.52,2.52,0,0,1,235.45,93.68Z"/>
              <path class="cls-7" d="M120.69,152.55c-1.69,8.09-2.82,22.76-1.88,29.33.61,4.24-1.66,4.42-3.34,4a1.2,1.2,0,0,0-1.46,1.32l.18,1.73a2.94,2.94,0,0,1-3,3.05l-15.14-.14a1.07,1.07,0,0,1-.88-1.65c1.45-2.24,4.86-3.5,7.74-4.18a8.32,8.32,0,0,0,6.08-6c1.85-7.21,4.44-20,1.7-27.06-3.94-10.16-2.06-16.17-2.06-16.17,2.63-19-4.4-25.2-9-32.14a65.15,65.15,0,0,1-6-11C84.07,70.53,105.28,67,105.28,67a10.45,10.45,0,0,1,8.62,4c5.71,7,5.89,21.82,5.53,33.64-.09,2.93-.21,5.66-.29,8a57.37,57.37,0,0,0,0,7.12C120.31,129.62,122.39,144.47,120.69,152.55Z"/>
              <path class="cls-6" d="M37,14.2a3.5,3.5,0,0,1-.32,1.53,3.07,3.07,0,0,1-.86,1.14c-1.5,1.36-4.18,1.61-6.66.45a7.68,7.68,0,0,1-2.79-2.2,5.86,5.86,0,0,1-.85-1.54,5,5,0,0,0,1.14,3.09,7.56,7.56,0,0,0,2.78,2.2c2.49,1.16,5.16.91,6.66-.45A3.12,3.12,0,0,0,37,17.29,3.94,3.94,0,0,0,37,14.2Z"/>
              <path class="cls-7" d="M37,13.59a3.5,3.5,0,0,1-.32,1.53,3.16,3.16,0,0,1-.86,1.14c-1.5,1.36-4.18,1.61-6.66.45a7.68,7.68,0,0,1-2.79-2.2A5.86,5.86,0,0,1,25.53,13a5,5,0,0,0,1.14,3.09,7.56,7.56,0,0,0,2.78,2.2c2.49,1.16,5.16.91,6.66-.45A3.16,3.16,0,0,0,37,16.67,3.92,3.92,0,0,0,37,13.59Z"/>
              <path class="cls-14" d="M30.92,14a1.08,1.08,0,1,1-2.13,0,1.08,1.08,0,1,1,2.13,0Z"/>
              <path class="cls-7" d="M37,16.67a3.4,3.4,0,0,1-.87,1.14c-1.85-.36-3.33-3.1-6.06-4.79-.2-.12-.41-.24-.63-.35-3.92-2.06-2.93,2.66-2.75,3.39a4.44,4.44,0,0,1-.81-4.61c1.07-2.29,4.36-3,7.4-1.65l.12.06C36.46,11.31,38.07,14.36,37,16.67Z"/>
              <path class="cls-9" d="M42.62,26.48c-1,2.54-3.51,7.63-7.88,10.49a5.4,5.4,0,0,0-.86-1.06,36.6,36.6,0,0,0-12.64-7.5.2.2,0,0,0,0-.07c.3.16,13.51,6,20.91-2.13A.27.27,0,0,1,42.62,26.48Z"/>
              <path class="cls-9" d="M16.43,12.68c.08.26-1,.83-2.32,1.27s-2.53.58-2.61.32.95-.82,2.31-1.26S16.34,12.42,16.43,12.68Z"/>
              <path class="cls-15" d="M12.52,16.66c-5.13.81-7-.67-7.67-1.86.73-.8,2.28-1.46,5.25-1.64-.75.66,1.44,2.07,2.54,2.51A.52.52,0,0,1,12.52,16.66Z"/>
              <path class="cls-15" d="M33.26,9.8A6.79,6.79,0,0,0,30.05,13c-.2-.12-.41-.24-.63-.35-3.92-2.06-2.93,2.66-2.75,3.39a4.44,4.44,0,0,1-.81-4.61C26.93,9.16,30.22,8.44,33.26,9.8Z"/>
              <path class="cls-16" d="M93,93.53A62.92,62.92,0,0,1,53,73.85a103.36,103.36,0,0,0,23.7-10.16c6.77,2,13.79,1.2,18.33-3.22A59.87,59.87,0,0,0,93,93.53Z"/>
              <path class="cls-16" d="M213.37,56.59,206.6,76.33l-3.86,10.08a7.61,7.61,0,0,1-2.15.44c-2.54-.28-9.59,22.56-40.89,22.84a155.6,155.6,0,0,1-36.44-4c-1.31-.3-2.59-.62-3.83-1l-1.12-.3c.85-.64-6.08-4.63-1.61-4,62.6,8.88,86-39.48,86-39.48Z"/>
              <path class="cls-7" d="M219.48,46s-31.7-7.31-23.59,43.15c5.07,31.58,20.21,36.09,18,53.29s-8.88,38.26-16.5,41.08c-6.34,2.35-8.67,4.18-9.11,6.68a1.38,1.38,0,0,0,1.41,1.57l16-.19a1.69,1.69,0,0,0,1.67-1.64,15.37,15.37,0,0,1,.91-4.54c.47-1.32,6.73.37,6-4.32-1.78-11.71,2.49-19.32,4.8-25.52,4.93-13.26,10.57-12.27,4.37-21.86s-2-38.07,2.82-50.76S238.09,54.14,219.48,46Z"/>
              <path class="cls-17" d="M219.79,46.1a2.81,2.81,0,0,0-.68-.21,21.09,21.09,0,0,0-3.52-.29l1.23-1.17c-11.8-6.35-27.2-6.4-34.56-12-2.92-2.22-4.87-4.91-6.94-7.4a2.75,2.75,0,0,0-4.85,1.51c-.42,3.82-2.79,7-9,8.05-11.6,1.9-24.33.26-24.33.26-.17.08-.38.09-.52.22-.61.57-2.07.69-7.61.72h-.18a29.58,29.58,0,0,0-4,.44,2.77,2.77,0,0,0-2.3,2.5,167.52,167.52,0,0,1-3.65,23.81,7.28,7.28,0,0,1-9.5,5.06,12.25,12.25,0,0,0-3.86-.58,3.05,3.05,0,0,0-.6.06c-2.55.54-20.23,5.08-11.38,26.51a65.15,65.15,0,0,0,6,11c4.6,6.92,11.6,13.12,9,31.95,0,.1,0,.21-.07.32-.24.92-1.51,6.74,2.1,16,2.74,7,.15,19.85-1.7,27.06a8.32,8.32,0,0,1-6.08,6c-2.88.68-6.29,1.94-7.74,4.18a1.07,1.07,0,0,0,.88,1.65l15.14.14a2.94,2.94,0,0,0,3-3.05l-.18-1.73a1.2,1.2,0,0,1,1.46-1.32c1.68.4,4,.22,3.34-4-.94-6.57.19-21.24,1.88-29.33s-.38-22.93-1.51-32.71a57.37,57.37,0,0,1,0-7.12c.07-2.1.17-4.47.26-7a3.35,3.35,0,0,1,.38-1.21c.22-.52-.12-2.06-.25-3.26,0-.12,0-.23,0-.35,0-.29,0-.57,0-.86s.18-.36.41-.31c-.15-.15-.27-.29-.4-.44,0-3.65-.06-7.42-.38-11a16,16,0,0,1,3.12-10.94A7,7,0,0,0,124,73.5c.19-11.18,4.5-14.78,8.74-17.29,13.26-7.86,32.58-7.36,51.7-.19a20.45,20.45,0,0,0,8.94,1.23,2.76,2.76,0,0,1,2.89,3.51c-1.91,6.43-2.42,15.52-.36,28.35,5.07,31.58,20.21,36.09,18,53.29s-8.88,38.26-16.5,41.08l-.22.08a4.17,4.17,0,0,0,1.53,8.06l7-.08a1.69,1.69,0,0,0,1.67-1.64,15.37,15.37,0,0,1,.91-4.54c.47-1.32,6.73.37,6-4.32-1.78-11.71,2.49-19.32,4.8-25.52,4.93-13.26,10.57-12.27,4.37-21.86s-2-38.07,2.82-50.76S238,54.32,219.79,46.1Z"/>
              <path class="cls-7" d="M233.39,99c-3.93-.27-5.6,1.5-5.39,21.23a2.77,2.77,0,0,0,2.4,2.71l1.41.18a2.35,2.35,0,0,0,2.59-1.76C235.86,115.51,239.42,99.13,233.39,99Z"/>
              <path class="cls-17" d="M235.22,99.74c0-.66.07-1.32.1-2,.09-1.37.12-2.72.13-4.08,0-1.69,0-3.37,0-5.05a107.71,107.71,0,0,0-2.08-18.16,64.11,64.11,0,0,0-5.88-17.27c1.12,6,1.83,11.87,2.39,17.79s.87,11.85,1.07,17.77c0,1.71.07,3.44.1,5.16,0,1.24,0,2.5,0,3.75,0,.54,0,1.08,0,1.63-2.26,1.14-3.23,5.67-3.06,20.91a2.77,2.77,0,0,0,2.4,2.71l.25,0c0,.56,0,1.12,0,1.69.17-.54.31-1.08.47-1.62l.67.08a2.35,2.35,0,0,0,2.59-1.76C235.67,116.23,238.56,103,235.22,99.74Z"/>
              <path class="cls-6" d="M234.4,121.34a2.35,2.35,0,0,1-2.59,1.76l-1.41-.18a2.77,2.77,0,0,1-2.4-2.71c0-3.51,0-6.44.07-8.91-.51,3.18-.72,8.13-.63,15.82a2.76,2.76,0,0,0,2.4,2.71l1.4.18a2.35,2.35,0,0,0,2.59-1.76c.86-3.44,2.45-10.54,2.38-15.83C235.68,115.92,234.91,119.29,234.4,121.34Z"/>
            </g>
            <path class="cls-18" d="M3.57,22.4c.19,2.38,3,3.54,13.6,5.59A26.17,26.17,0,0,1,21,29a36.34,36.34,0,0,1,12.41,7.37,4.44,4.44,0,0,1,.75.92,5,5,0,0,1,.57,1.4q.32,1.38.66,2.73c.06.24.12.47.19.71l.09.36c.14.52.28,1.05.43,1.56l.33,1.1,0,.13c.14.44.27.88.41,1.32s.27.84.41,1.26.27.8.41,1.2l.45,1.26c.12.33.24.65.37,1l.16.41c.12.32.24.65.37,1l.33.79.1.26c.32.76.65,1.5,1,2.24l.15.32.3.67c.14.3.29.59.43.88l.21.42c.13.27.26.54.4.8s.37.72.56,1.08.34.64.52,1,.37.68.56,1l.57,1,0,.07.51.85c.21.35.43.69.65,1l.14.22.36.57q.48.72,1,1.41l.27.39c.39.56.78,1.09,1.18,1.62l.37.49.91,1.16.41.5c.31.37.61.74.92,1.1l.39.45c.33.38.66.75,1,1.11l.19.22.12.12c.42.45.83.89,1.25,1.31l.12.13c.93.94,1.91,1.86,2.89,2.73l.23.2c.4.36.81.7,1.21,1l.32.27,1.17.94.28.22c.45.35.91.69,1.36,1l.08.06c1,.7,2,1.39,3,2l.16.1,1.3.81.27.16c.41.24.82.48,1.24.71l.23.13c.44.26.89.5,1.34.74l.12.11h.1c.92.49,1.87.95,2.81,1.39l.07,0,1.34.61.19.08,1.25.52.14.06c1.78.71,3.59,1.36,5.41,1.91a59.25,59.25,0,0,0,12.67,2.47,66.68,66.68,0,0,0,6,10.78c.14.22.29.44.44.66l.46.66,1.09,1.52.79,1.09.47.67.47.68.47.7.46.71.45.73.44.75.43.77.41.8.4.83c.05.1.34.76.38.86l.36.89c0,.1.3.84.33.93s.28.86.31,1l.09.34.19.68.13.52,0,.14c0,.13.07.26.09.39s.15.7.15.7,0,.27.08.41l.06.38s.1.63.13.77,0,.27.05.41l0,.35c0,.15,0,.29.06.45s.06.62.06.62l0,.21,0,.43,0,.44,0,.37,0,.5c0,.16,0,.31,0,.47v.42c0,.16,0,.33,0,.5v.92c0,.17,0,.34,0,.52s0,.36,0,.54v.38l0,.59,0,.52,0,.46c0,.2,0,.39,0,.59s0,.4-.05.59c0,0-.08.85-.11,1.06l-.06.56s-.12.9-.14,1.09a1.7,1.7,0,0,1,0,.22l-.08.34.61.24-.63-.14-.08.4,0,.22c0,.14,0,.3-.06.47l0,.14c0,.22,0,.46-.07.72l0,.27q0,.27,0,.57v.37c0,.19,0,.38,0,.59v.43c0,.21,0,.42,0,.64l0,.49c0,.22,0,.45,0,.68l.06.55c0,.24,0,.49.09.74s.05.39.08.59.09.53.13.8l.12.64c.06.28.12.57.19.87l0,.12c0,.18.08.35.13.54s.16.62.24.93l.07.25.12.44c.11.37.23.76.36,1.14l.18.58c.2.59.42,1.19.66,1.81,2.68,6.89.07,19.66-1.73,26.66a7.62,7.62,0,0,1-5.6,5.58c-2.82.67-6.53,2-8.13,4.45a1.74,1.74,0,0,0-.08,1.75,1.7,1.7,0,0,0,1.49.91l15.19.14a3.57,3.57,0,0,0,3.57-3.72l-.18-1.78a.62.62,0,0,1,.15-.46.51.51,0,0,1,.39-.18h.12a5.57,5.57,0,0,0,1.28.17,2.77,2.77,0,0,0,2.18-.9c.73-.83,1-2.14.68-4-.94-6.64.26-21.35,1.88-29.1,1.54-7.35,0-20.28-1.13-29.71-.13-1.12-.26-2.19-.37-3.21a43.3,43.3,0,0,1-.09-5.53,177,177,0,0,0,10,20.49,65.45,65.45,0,0,1,3.87,14.08,19.19,19.19,0,0,0,3.93,9,23.3,23.3,0,0,1,4.53,10.59l.27,1.33c1.42,7.19,2.45,12.38.5,15-.87,1.16-2.38,1.83-4.61,2a4.93,4.93,0,0,0-4.8,4.45,1.23,1.23,0,0,0,.21,1.06,1.37,1.37,0,0,0,1.08.4l.48,0,.45,0,15.84-.06a2.61,2.61,0,0,0,2.54-3.18l-.76-3.38a.39.39,0,0,1,.08-.35.36.36,0,0,1,.28-.14c.34,0,.65,0,1,0,1.39,0,2.33-.36,2.79-1.08a2.61,2.61,0,0,0,0-2.55c-.33-.77-.83-1.74-1.46-3-2.69-5.26-7.2-14.06-7.65-24.44-.58-13.32-2.57-17.67-7-26.21-1.36-2.61-.74-7.35,0-11.2.35-2,.78-4,1.24-6.12l.3-1.44c1.8.19,3.61.34,5.4.46h.07l2.61.15.44,0c.76,0,1.53.07,2.3.09l.58,0,2.26,0h3.35c22-.2,32.27-11.7,36.31-16.94l0,.1c2.78,13.57,7.47,21.77,11.24,28.36a64.14,64.14,0,0,1,4.6,9,27,27,0,0,1,1,3.08c.1.42.19.85.26,1.28a21.2,21.2,0,0,1,.33,4.08c0,.48,0,1-.06,1.47s-.09,1-.16,1.54c-2.35,17.87-9,37.93-16.08,40.55l-.23.09c-6.3,2.36-8.8,4.28-9.3,7.09a2,2,0,0,0,.44,1.59,2.09,2.09,0,0,0,1.59.74l16-.2a2.35,2.35,0,0,0,1.9-1,2.43,2.43,0,0,0,.42-1.26,12.56,12.56,0,0,1,.21-1.89,16.52,16.52,0,0,1,.64-2.41,5.72,5.72,0,0,1,1.46-.29c1.72-.21,4.59-.56,4.67-3.47a6,6,0,0,0-.07-.92c-1.48-9.75,1.33-16.67,3.59-22.24.42-1,.82-2,1.17-3a49.62,49.62,0,0,1,4.74-9.45c2.67-4.33,3.89-6.31-.43-13-1.73-2.68-2.75-7.24-3-13.23a29.94,29.94,0,0,1,5.76,5.08s0,1.41,0,2a3.41,3.41,0,0,0,2.36,3.21,3,3,0,0,0,.61.13l.83.11a30.51,30.51,0,0,1,2.35,5.35c8.49,25.76,2.19,40.1.06,43.89-1.68,3-3.7,4.93-5.53,5.36-4.43,1-6.17,3-6.85,4.46a1.92,1.92,0,0,0,.14,1.84,2,2,0,0,0,1.64.89H237a1.93,1.93,0,0,0,1.49-.69,2,2,0,0,0,.41-1.58,11,11,0,0,1-.19-4.36H239c.33,0,.72,0,1.14.06s1.1.08,1.67.08a4,4,0,0,0,3.13-1,2.77,2.77,0,0,0,.39-2.45c-1-4.74-3.18-19.21-1.3-29.16a25,25,0,0,1,3.92-9.33c1.81-2.9,3.12-5-.18-7.91-2.86-2.55-7.66-11.17-10.94-22.14v-.44c0-.32,0-.63,0-.93l.1-.76.12-.89c0-.24.09-.79.09-.79l0-.17c0-.27.06-.53.08-.8,0,0,.06-.69.07-.87l0-.86v-.39c0-.15,0-.31,0-.47v-1.19c0-.16,0-.32,0-.47l0-.32c0-.2,0-.39,0-.58l0-.23c0-.23,0-.45-.08-.67l-.05-.27c0-.14-.05-.29-.08-.42L237,102l-.09-.37-.09-.28a3.38,3.38,0,0,0-.11-.34l-.11-.27a2.2,2.2,0,0,0-.15-.31,1.78,1.78,0,0,0-.12-.24l-.18-.3-.14-.2-.17-.21c0-.58.06-1.15.08-1.73.08-1.19.13-2.5.14-4.1s0-3.4,0-5.06A110,110,0,0,0,234,70.34c-.55-2.54-1.11-4.78-1.72-6.86l0-.68v-.63l0-.64,0-.63-.06-.63-.08-.62L232,59l-.13-.62-.06-.24-.65.06.63-.15-.06-.28-.17-.6-.2-.61-.21-.59-.1-.25-.64.16.6-.25-.11-.25-.26-.58-.3-.58-.32-.57-.14-.23-.61.25.55-.34-.15-.24-.22-.33-.16-.22-.19-.27-.21-.28-.43-.53-.23-.26L228,51l-.5-.52-.25-.25-.27-.26-.25-.23-.31-.27L225.8,49l-.61-.48-.33-.23-.33-.24-.68-.45-.36-.22-.36-.23-.43-.24-.33-.19-.39-.21-.4-.21-.4-.21-.42-.2L220,45.5l-.05,0-.3-.13-.06,0c-.8-.52-1.64-1-2.5-1.47-5.84-3.15-12.66-4.79-18.68-6.24-6.24-1.5-12.13-2.93-15.79-5.71-.34-.25-.66-.52-1-.79a1.54,1.54,0,0,1-.19-.17l-.12-.11-.6-.54-.34-.34c-.18-.17-.35-.34-.51-.52l-.35-.37-.47-.51-.33-.38c-.15-.18-.31-.35-.45-.53l-.33-.38-.89-1.09-1.25-1.54,0,0,0,0A22.85,22.85,0,0,0,170,19.23c-3-1.82-6.64-2.7-11.19-2.7l-1.37,0c-7.27.26-10,4.94-12.73,9.46-2.05,3.44-4,6.69-7.78,8.24l-.13,0a1.5,1.5,0,0,0-.46.19A13.12,13.12,0,0,1,134,35c-.87.06-2.12.09-4.14.11h-1.35c-12.22.38-20,9.28-27.58,17.88-2.14,2.43-4.16,4.74-6.28,6.86L94.6,60l-.06.06a15.37,15.37,0,0,1-11,4.07,23.69,23.69,0,0,1-6.7-1c-9.17-2.68-16.36-9.89-18.31-18.38q-.77-3.33-1.42-6.24c-3.33-14.69-4.9-21.64-8.78-25.72l.15-.29a8.68,8.68,0,0,0,.63-4.81c-.37-3.08-1.78-3.54-2.59-3.54-1.4,0-2.94,1.39-4,3.63l0,.07c-.08.17-.15.32-.21.48l-.06.14L42,8.85v0A12.73,12.73,0,0,0,38,8.2a21.93,21.93,0,0,0-5,.75h0l-.53-.17L32,8.7l-.29-.07-.26-.05-.15,0-.23,0-.21,0h-.14l-.27,0h-.73l-.48,0h-.07l-.51.09a5.35,5.35,0,0,0-2.34,1.14,18.49,18.49,0,0,1-2.45-.25,18.86,18.86,0,0,0-3.09-.26A20,20,0,0,0,9.94,12.52c-2.76.19-4.63.81-5.57,1.84A2.81,2.81,0,0,0,4.22,18a.6.6,0,0,1,.07.14l0,.11h0a1.58,1.58,0,0,1,0,1l0,.13A5.34,5.34,0,0,0,3.57,22.4Zm1.28-2.8a.75.75,0,0,0,.07-.18,2.12,2.12,0,0,0,0-1.55v0l-.13-.23a2.21,2.21,0,0,1,.09-2.82c.73-.8,2.28-1.46,5.25-1.64h.06a19.19,19.19,0,0,1,13.62-3,19.54,19.54,0,0,0,2.81.27,4.5,4.5,0,0,1,2.2-1.16h0l.43-.07.09,0,.39,0h.71l.31,0,.26,0,.27,0,.31,0,.24.06.35.09.2.06.38.13.08,0c3.06-.69,5.79-1.38,9.59.07a.14.14,0,0,0,0-.06c0-.13.08-.26.13-.38l.06-.19c0-.14.1-.27.16-.4a.94.94,0,0,1,.06-.15c.06-.15.12-.29.19-.43a.36.36,0,0,1,0-.09c1.73-3.6,4.82-4.93,5.38-.3a7.93,7.93,0,0,1-.58,4.46h0a5.76,5.76,0,0,1-.33.6l0,.07c4.52,4.4,5.93,12.61,10.38,32,2.19,9.54,10.27,16.38,18.76,18.86,6.77,2,13.79,1.2,18.33-3.22l.13-.13c9.72-9.71,18.13-24.07,33.41-24.54h1.36c1.88,0,3.24,0,4.22-.11a12.93,12.93,0,0,0,2.52-.6c.14-.13.35-.14.52-.22,9.24-3.76,8.09-17.22,20.29-17.65,5.63-.2,9.38.86,12.21,2.58A22.93,22.93,0,0,1,175.32,25h0l.24.29.51.62c.22.26.43.53.64.79s.21.26.32.38l.47.57.32.39.46.53.34.39.48.52c.11.13.23.25.35.38l.52.53c.12.11.23.23.35.35l.62.56.32.28c.32.28.65.55,1,.82,7.36,5.6,22.76,5.65,34.56,12,.87.47,1.72,1,2.54,1.51l.12,0,.27.12,0,0,.27.13.42.19.41.2.4.2.39.21.38.21.37.21.37.21.35.22.35.21.34.23.32.21.33.23.31.23.31.23.29.23.29.24.28.23.28.25.26.23.26.25.25.25.24.25.23.24.23.26.22.25.21.26.21.26.2.26.19.26.18.27.18.26.17.27.16.27a2.54,2.54,0,0,1,.16.28l.15.27.15.28.13.27c.05.09.09.19.14.28l.12.28.12.28c0,.1.08.19.11.28s.08.2.11.29.07.19.1.28.07.2.1.3l.09.28c0,.1.05.2.08.3s.06.19.08.28,0,.2.07.3,0,.2.07.29l.06.3.06.3c0,.1,0,.2,0,.3s0,.2.05.29,0,.21,0,.31,0,.2,0,.3l0,.3,0,.3a3,3,0,0,0,0,.31c0,.1,0,.2,0,.3s0,.21,0,.32,0,.2,0,.3v.62c0,.1,0,.21,0,.31v.31s0,.09,0,.14c.67,2.28,1.23,4.6,1.73,6.91a107.71,107.71,0,0,1,2.08,18.16c0,1.68,0,3.36,0,5.05,0,1.36,0,2.71-.13,4.08,0,.66-.06,1.32-.1,2h0a.5.5,0,0,1,.07.08,1.68,1.68,0,0,1,.24.29l.12.17.16.26c0,.06.07.14.11.21s.09.18.13.28l.09.23.11.32c0,.08.05.16.08.25a3.59,3.59,0,0,1,.08.35,2.68,2.68,0,0,1,.07.27c0,.13.05.26.07.4a2.34,2.34,0,0,1,0,.26,6,6,0,0,1,.08.63l0,.23c0,.18,0,.37,0,.55s0,.21,0,.32,0,.3,0,.46v.34c0,.15,0,.3,0,.46v.36c0,.15,0,.31,0,.46s0,.25,0,.38l0,.48c0,.12,0,.24,0,.36s0,.36,0,.54l0,.33c0,.26,0,.52-.07.78l0,.25c0,.24-.05.47-.08.7s0,.24-.05.35,0,.36-.07.53,0,.26,0,.38l-.06.43c0,.31,0,.63,0,.95v.16c0,.13,0,.25,0,.38,3.42,11.49,8.34,20,11.16,22.54,5.08,4.51-2,6.2-3.95,16.64s.48,25.46,1.31,29.41-4.58,2.34-6.2,2.61c-.91.17-.54,3.54-.24,5.1a1.28,1.28,0,0,1-1.26,1.51H222.4a1.3,1.3,0,0,1-1.19-1.82c.63-1.36,2.24-3.13,6.4-4.1,6.43-1.48,15.9-19.89,5.95-50.08A31.88,31.88,0,0,0,231,130l-1.16-.15a2.74,2.74,0,0,1-2.4-2.71h0c0-.56,0-1.1,0-1.62v-.59a31.39,31.39,0,0,0-7.08-6c.1,6.19,1,11.57,3.09,14.8,6.2,9.59.56,8.6-4.37,21.86-2.31,6.2-6.58,13.81-4.8,25.52a3.83,3.83,0,0,1,.06.8c-.1,3.69-5.63,2.28-6.07,3.52a16.7,16.7,0,0,0-.69,2.55,14,14,0,0,0-.22,2,1.68,1.68,0,0,1-.3.91,1.69,1.69,0,0,1-1.37.73l-16,.19a1.38,1.38,0,0,1-1.41-1.57c.43-2.47,2.71-4.28,8.85-6.58l0,0,.22-.08c7.62-2.82,14.24-23.88,16.5-41.08.07-.53.12-1.06.16-1.57s.06-1,.07-1.51a23.58,23.58,0,0,0-.34-4.2c-.08-.45-.17-.88-.27-1.32a24.63,24.63,0,0,0-1-3.16c-3.47-9.12-11.71-17.24-15.81-37.27-.1-.49-.2-1-.29-1.52-5,6.67-15,17.65-36.67,17.84q-1.39,0-2.79,0h-.55c-.76,0-1.51,0-2.26-.05h-.57l-2.29-.1-.43,0c-.88,0-1.74-.09-2.61-.15h-.06c-2-.14-4-.31-6-.52-.59,2.8-1.2,5.57-1.67,8.15-.88,4.85-1.23,9.06.1,11.61,4.52,8.65,6.4,13,7,25.94s7.47,23.69,9.16,27.63c1.15,2.68-1.31,2.85-3,2.69a1,1,0,0,0-1.1,1.27l.76,3.37a2,2,0,0,1-1.91,2.41l-15.85,0c-.89,0-1.74.26-1.58-.63a4.34,4.34,0,0,1,4.23-3.95c8.39-.76,6.68-7.65,4.42-19.11s-6.77-10.16-8.46-19.56-3.95-14.28-3.95-14.28a169.73,169.73,0,0,1-11-23.17c0-.07,0-.14-.07-.2,0,.57,0,1.13-.06,1.66a57.51,57.51,0,0,0,0,7.13c1.13,9.78,3.21,24.63,1.51,32.71s-2.82,22.76-1.88,29.33c.61,4.24-1.66,4.42-3.34,4a1.2,1.2,0,0,0-1.46,1.32l.18,1.73a2.94,2.94,0,0,1-3,3.05l-15.14-.14a1.07,1.07,0,0,1-.88-1.65c1.45-2.24,4.86-3.5,7.74-4.18a8.32,8.32,0,0,0,6.08-6c1.85-7.21,4.44-20,1.7-27.06-.23-.61-.45-1.21-.64-1.79-.07-.19-.13-.38-.19-.57-.12-.38-.24-.75-.35-1.12-.06-.22-.11-.43-.17-.64s-.18-.65-.25-1-.1-.43-.15-.64-.13-.58-.18-.86-.08-.41-.12-.62-.09-.53-.13-.78-.06-.39-.08-.58-.06-.49-.09-.73,0-.36-.05-.53,0-.45,0-.67,0-.33,0-.48,0-.42,0-.62,0-.29,0-.42,0-.39,0-.58,0-.24,0-.35,0-.38,0-.56,0-.18,0-.26c0-.25,0-.48.07-.7,0,0,0-.08,0-.13s0-.31.06-.45,0-.14,0-.21,0-.18,0-.26a1.49,1.49,0,0,0,0-.18c0-.05,0-.11,0-.16l0-.13v-.06a1.36,1.36,0,0,0,.06-.29c0-.28.07-.55.1-.82s.08-.57.11-.85,0-.57.08-.85.06-.55.08-.81,0-.55,0-.82l.06-.78,0-.78,0-.75v-.74c0-.24,0-.48,0-.72s0-.47,0-.71,0-.46,0-.69,0-.45,0-.68,0-.44,0-.66l-.06-.65-.06-.63c0-.21,0-.42-.08-.62s0-.41-.07-.61-.07-.4-.1-.6-.06-.39-.1-.58-.07-.38-.11-.57-.07-.38-.11-.56-.09-.36-.13-.54-.09-.36-.13-.54l-.15-.52c0-.17-.09-.34-.14-.51s-.1-.33-.16-.49-.1-.34-.16-.5-.11-.32-.17-.48-.11-.32-.17-.48l-.18-.46-.18-.45-.2-.44c-.06-.15-.12-.3-.19-.44s-.13-.28-.2-.41l-.21-.44c-.06-.13-.13-.25-.2-.38s-.14-.29-.22-.43l-.2-.37c-.08-.14-.16-.28-.23-.42l-.22-.36-.23-.41-.22-.34-.24-.4-.21-.32-.26-.4c-.06-.1-.13-.19-.2-.29l-.27-.41a2.75,2.75,0,0,1-.19-.28c-.1-.13-.19-.27-.29-.41l-.19-.27-.29-.4a1.43,1.43,0,0,0-.14-.2c-.57-.8-1.15-1.59-1.7-2.37l0,0c-.15-.2-.29-.41-.43-.61l0,0-.44-.65a65.15,65.15,0,0,1-6-11,1.9,1.9,0,0,0-.25,0A58.71,58.71,0,0,1,80.7,91.11h0c-1.7-.52-3.49-1.14-5.35-1.89l-.15-.06-1.23-.52-.19-.08c-.43-.18-.86-.38-1.3-.58l-.09,0c-1-.45-1.94-.93-2.93-1.45h0L68,85.71l-.23-.13-1.22-.71-.26-.16L65,83.93l-.18-.12c-1-.63-2-1.31-3-2l-.08-.06-1.34-1-.28-.22c-.39-.3-.78-.61-1.16-.93l-.32-.26c-.4-.33-.79-.67-1.19-1l-.23-.2c-1-.86-1.91-1.76-2.86-2.71l-.12-.12q-.62-.63-1.23-1.29L53,73.85c-.06-.08-.13-.15-.19-.22q-.51-.54-1-1.11l-.39-.45c-.31-.35-.61-.71-.91-1.08l-.4-.5c-.31-.37-.6-.76-.9-1.14-.13-.17-.25-.32-.37-.49-.4-.52-.79-1-1.17-1.6l-.27-.39c-.32-.46-.63-.92-.95-1.4l-.5-.78c-.21-.34-.43-.67-.64-1s-.36-.61-.55-.91-.37-.64-.56-1l-.56-1-.51-1-.56-1.06-.48-1-.54-1.12c-.16-.32-.3-.65-.45-1-.33-.73-.65-1.47-1-2.22-.14-.35-.29-.69-.43-1s-.32-.82-.48-1.23-.28-.73-.42-1.11-.29-.83-.44-1.24l-.41-1.2c-.13-.41-.27-.83-.4-1.25s-.27-.87-.41-1.31l-.36-1.22-.42-1.55c-.1-.35-.2-.7-.29-1.06-.22-.89-.44-1.8-.65-2.72A5.67,5.67,0,0,0,34.74,37a5.4,5.4,0,0,0-.86-1.06,36.6,36.6,0,0,0-12.64-7.5,27.1,27.1,0,0,0-3.94-1.06c-10.07-1.94-13-3.07-13.09-5A4.9,4.9,0,0,1,4.85,19.6Z"/>
          </g>
        </g>
      </g>
    </g>
  </g>
</svg>
