<svg id="Layer_1" data-name="Layer 1" xmlns="http://www.w3.org/2000/svg" xmlns:xlink="http://www.w3.org/1999/xlink" width="208.85" height="210.72" viewBox="0 0 208.85 210.72">
  <defs>
    <style>
      .cls-1 {
        fill: none;
      }

      .cls-2 {
        opacity: 0.3;
      }

      .cls-3, .cls-7 {
        fill: #fff;
      }

      .cls-3 {
        stroke: #fff;
        stroke-linejoin: round;
        stroke-width: 5px;
      }

      .cls-4 {
        clip-path: url(#clip-path);
      }

      .cls-5 {
        fill: url(#linear-gradient);
      }

      .cls-6 {
        fill: url(#linear-gradient-2);
      }

      .cls-8, .cls-9 {
        fill: #e2f3f7;
      }

      .cls-9 {
        opacity: 0.56;
      }

      .cls-10 {
        fill: url(#linear-gradient-3);
      }

      .cls-11 {
        fill: url(#linear-gradient-4);
      }

      .cls-12 {
        fill: url(#linear-gradient-5);
      }

      .cls-13 {
        fill: url(#linear-gradient-6);
      }
    </style>
    <clipPath id="clip-path">
      <rect class="cls-1" x="7.91" y="8.34" width="190.56" height="190.56"/>
    </clipPath>
    <linearGradient id="linear-gradient" x1="103.77" y1="216.65" x2="106.26" y2="-20.84" gradientUnits="userSpaceOnUse">
      <stop offset="0" stop-color="#ceebf6"/>
      <stop offset="0.09" stop-color="#b8dff1"/>
      <stop offset="0.27" stop-color="#8bc6e7"/>
      <stop offset="0.46" stop-color="#68b3df"/>
      <stop offset="0.63" stop-color="#4fa5da"/>
      <stop offset="0.78" stop-color="#409dd6"/>
      <stop offset="0.91" stop-color="#3b9ad5"/>
    </linearGradient>
    <linearGradient id="linear-gradient-2" x1="98.23" y1="198.91" x2="98.38" y2="184.01" gradientUnits="userSpaceOnUse">
      <stop offset="0" stop-color="#9ebe5a"/>
      <stop offset="0.22" stop-color="#b8cf76"/>
      <stop offset="0.48" stop-color="#cfde8f"/>
      <stop offset="0.72" stop-color="#dde79e"/>
      <stop offset="0.91" stop-color="#e2eaa3"/>
    </linearGradient>
    <linearGradient id="linear-gradient-3" x1="176.6" y1="56.19" x2="175.35" y2="-6.91" gradientUnits="userSpaceOnUse">
      <stop offset="0" stop-color="#cde4ee"/>
      <stop offset="0.32" stop-color="#e5f1f6"/>
      <stop offset="0.56" stop-color="#f3f8fb"/>
      <stop offset="0.7" stop-color="#fafcfd"/>
      <stop offset="0.91" stop-color="#fff"/>
    </linearGradient>
    <linearGradient id="linear-gradient-4" x1="118.33" y1="96.78" x2="115.58" y2="29.13" gradientUnits="userSpaceOnUse">
      <stop offset="0.23" stop-color="#cde4ee"/>
      <stop offset="0.26" stop-color="#d2e7f0"/>
      <stop offset="0.51" stop-color="#ebf4f8"/>
      <stop offset="0.73" stop-color="#fafcfd"/>
      <stop offset="0.91" stop-color="#fff"/>
    </linearGradient>
    <linearGradient id="linear-gradient-5" x1="146.98" y1="147.75" x2="147.11" y2="134.83" gradientUnits="userSpaceOnUse">
      <stop offset="0" stop-color="#cde4ee"/>
      <stop offset="0.05" stop-color="#d2e7f0"/>
      <stop offset="0.38" stop-color="#ebf4f8"/>
      <stop offset="0.67" stop-color="#fafcfd"/>
      <stop offset="0.91" stop-color="#fff"/>
    </linearGradient>
    <linearGradient id="linear-gradient-6" x1="104.24" y1="200.84" x2="104.46" y2="180.44" gradientUnits="userSpaceOnUse">
      <stop offset="0" stop-color="#9ebe5a"/>
      <stop offset="0.31" stop-color="#b3cd67"/>
      <stop offset="0.64" stop-color="#c2d870"/>
      <stop offset="0.91" stop-color="#c7dc73"/>
    </linearGradient>
  </defs>
  <g>
    <rect class="cls-2" x="6.47" y="6.9" width="200.97" height="200.76"/>
    <rect class="cls-3" x="4.47" y="4.9" width="197.43" height="197.43"/>
    <g class="cls-4">
      <g>
        <rect class="cls-5" x="6.69" y="8.32" width="196.53" height="190.59"/>
        <g>
          <path class="cls-6" d="M15.39,195.5c.1.46.19.93.27,1.39l167.53,1.51c-44.8-12.42-76.48-13.57-97.65-12.08-6.21.44-21,1.75-47,3.58-9.34.66-17.81,1.22-25.21,1.69A8.43,8.43,0,0,1,15.39,195.5Z"/>
          <path class="cls-7" d="M199.58,74.58c-.29-.23-5.22-4.13-10.36-2.12a9.1,9.1,0,0,0-3.89,3,6.89,6.89,0,0,0-7.13-3.34,6.64,6.64,0,0,0-5.35,5c-.21,1.33.34,2.22-.15,2.59-.81.61-2.5-1.73-5.21-2.23-3-.56-7.2,1.14-8.56,4.64a7.89,7.89,0,0,0,.36,6.06,4.59,4.59,0,0,0-7.5,4.88,5.44,5.44,0,0,0-6.17-1.78,5.59,5.59,0,0,0-2.39,7.61,15.29,15.29,0,0,0-10.7-1.31,11.65,11.65,0,0,0-6.9,4.52,7.14,7.14,0,0,0-1.43,5.23,6.1,6.1,0,0,0,1.19,2.62c-9.11.88-18.93,1.89-18.91,2.18a43.2,43.2,0,0,0,5.71,0c4.94-.13,10.54-1.56,21.41,0,7.49,1.07,12.13-.46,19.62.31.95,2.16,4.89,3.71,10.4,4,6.37.29,10.5-1.34,19.78-3.87a144,144,0,0,1,16.18-3.39Z"/>
          <path class="cls-7" d="M9,56.39s13.75-5.71,16.18,9.27c8.13-2.85,11.7,5.71,9.56,10.71,1.44-1.69,3.56-2.32,5-1.67,1.92.87,3,4.2,1.07,7,1.31-2.58,3.8-3.39,4.87-2.74s1.44,3,.12,5.24a7.82,7.82,0,0,1,6.48-.87A7.81,7.81,0,0,1,57.24,91a68.45,68.45,0,0,1,21.41,4.28s-11.06,1.07-18.2,2.14-5.76,2.85-16.62,2.85c-11.21.36-4.29-3.21-18.63,0C23,103.09,9,101.71,9,101.71Z"/>
          <path class="cls-8" d="M117.3,112.35a42,42,0,0,0,11.9-2.92,17.08,17.08,0,0,1,5.71-1.66,15.21,15.21,0,0,1,6.89,1.07c-.14-.5-1.07-3.83.72-6.07,2.07-2.6,7.21-3,11.41.32-.1-.49-.85-4.34,1.43-6.74,2.54-2.67,8-2.74,12.13,1.07-1.21-2.5-1.34-5.34,0-7.26,2-2.9,7.48-3.68,11.78-.23-.11-.36-1.41-5.06,1.31-8.09s8.84-3.41,13.32.59c4.64-3.57,5.68-1.44,5.68-1.44v28.06a117.88,117.88,0,0,0-22.34,5.55,34.86,34.86,0,0,1-8.56,1.73,36.29,36.29,0,0,1-18.31-3.57Z"/>
          <path class="cls-8" d="M9,68.59s9.33.29,10.4,9.92A7.7,7.7,0,0,1,26.2,76.6a7,7,0,0,1,5.23,5c.57,2.86-1.66,5.25-.95,5.83s2-1.26,4.76-1.79c.57-.11,4.72-.83,6.42,1.67,1.15,1.7.83,4.37-.83,6.54a15.19,15.19,0,0,1,8.41-1.1,11.49,11.49,0,0,1,5.15,2.53c6.78-1.43,24.26,0,24.26,0a67.71,67.71,0,0,0-14.39,1.78c-5.43,1.29-6.53,2.3-11.9,3.09a43.6,43.6,0,0,1-12.22.22A40.28,40.28,0,0,1,33,98.76c-5.49,1.4-14.38,5.45-24,2.95Z"/>
          <path class="cls-9" d="M64.19,127.34s1.54-.86,5.33,0a2.92,2.92,0,0,1,1.72-3,2.79,2.79,0,0,1,2.92.77,2,2,0,0,1-.54-1.47,2.58,2.58,0,0,1,3.21-1.75,2.72,2.72,0,0,1,1.62,1.68c1.89-3.27,4.47-2.75,5.68.34a1.89,1.89,0,0,1,1.64-.57,1.79,1.79,0,0,1,1.19,1,2.28,2.28,0,0,1,.09,1.82,2.88,2.88,0,0,1,1.64-1.2A2.5,2.5,0,0,1,91.57,126a2.35,2.35,0,0,1-.22,2c3.78-1.89,4.12-.35,4.29,1.37a6.32,6.32,0,0,1,7,2.58s-1.41-1.38-5.35,0c0,0-.67,1.72-3.07,0,0,0-2.7,1.2-3.92-.1-1.07-.45-2.37-.15-4.58.54-2.37.38-4.81-1.3-5.81-2.06s-2.14-.69-3.59.23-1.45-.39-2.44-1.23c0,0-.69.61-2.29.08-1-.34-1.57-.86-2.58-1.22a13,13,0,0,0-2.39-.38C65.59,127.66,64.73,127.47,64.19,127.34Z"/>
          <g>
            <path class="cls-7" d="M66.56,148.3a41.46,41.46,0,0,0-7.46-1.58c-2.53-1.9-4.59-4.12-9.35-3.65a6.52,6.52,0,0,0-5-2,6.26,6.26,0,0,0-3.85,1.77,5.35,5.35,0,0,0-1.87-3.5,5.23,5.23,0,0,0-5.11-.79c-1.39.57-2,1.72-2.34,1.53s1-1.93.52-3.66c-.52-2-3.09-2.84-3.33-2.85-3.86-.19-5.7.89-6.66,1.9-1.53,1.61-1.12,3.31-2.62,4-1.84.82-3.5-1.4-6-.53a5.92,5.92,0,0,0-2.43,1.8,6.85,6.85,0,0,1-2,1.38,2.82,2.82,0,0,1,0,.65v.79c0,.27,0,.45,0,.72.47.11,1,0,1.24.1a5.45,5.45,0,0,0,2.09.44c1.9,0,2.8-1.29,4.25,0,1.91,1.74,1,3.8,4.44,2.38s4.92-2.06,7.93-.48c4.85,5.35,15.54,2.54,20.14,2.54,2.86,2.54,5.55,1.43,9.2-.64a17.4,17.4,0,0,0,6.11,2.61,17.7,17.7,0,0,0,8.56-.32A41.52,41.52,0,0,0,66.56,148.3Z"/>
            <path class="cls-8" d="M59.1,148.69c-2.53-1.9-4.59-4.12-9.35-3.64-3.49-2.7-6-3.18-8.88,1.11-1.7-2.49-4-5-6.43-4.76-2.25.2-3.9,2.63-4.57,2.15s1.38-3.31.29-5.06c-.92-1.48-4-2-5.86-.9s-2,3.24-4,3.81a1.62,1.62,0,0,1-.85,0c-3.33-.8-5.87-1.75-8.41,1.27a3,3,0,0,1-2.07,1c0,.74,0,.92,0,1.49v.61c.4.2.85.41,1.24.57,3.49,1.43,4.44-1.26,6.34.48s1,3.81,4.44,2.38,4.92-2.06,7.93-.48c4.85,5.35,15.54,2.54,20.14,2.54,2.86,2.54,5.1-1.49,9.2-.63,11.14,2.32,14.67.31,14.67.31S63.07,149.49,59.1,148.69Z"/>
          </g>
          <g>
            <path class="cls-7" d="M31.61,29.83A5.92,5.92,0,0,1,34,28c2.48-.87,4.14,1.35,6,.53,1.5-.67,1.09-2.37,2.62-4,1-1,2.8-2.09,6.66-1.9a3.76,3.76,0,0,1,1.82,6.83l2.93-2.07a5.79,5.79,0,0,1,3.1,0c3.12.88,4.18,4.21,4.28,4.52a6.23,6.23,0,0,1,3.85-1.78,6.48,6.48,0,0,1,5,2c4.76-.48,6.82,1.74,9.35,3.64A41.07,41.07,0,0,1,93.54,40a17.44,17.44,0,0,1-14.67-2.28c-3.65,2.06-6.34,3.17-9.2.63-4.59,0-15.29,2.81-20.14-2.54-3-1.58-4.44-1-7.92.48s-2.54-.64-4.45-2.38c-1.45-1.33-2.35-.07-4.24,0a5.32,5.32,0,0,1-2.1-.44c-1.38-.49-4.54-1-11.89-1.51C26.75,32.88,30.07,31.45,31.61,29.83Z"/>
            <path class="cls-8" d="M31.61,31.8c2.54-3,5.08-2.06,8.41-1.27,2.14.51,2.11-2.56,4.84-3.81A8.37,8.37,0,0,1,48.58,26a5.57,5.57,0,0,1,2.54,3.5c.31,1.93-1,3.56-.57,3.83s2.18-2.51,4.46-2.81,4.55,2.06,6.42,4.76c2.85-4.28,5.39-3.81,8.88-1.11,4.76-.48,6.82,1.74,9.35,3.64,4,.8,12.48,1.91,12.48,1.91s-8.19,1.42-13.27,0c-3.65,2.06-6.34,3.17-9.2.63-4.59,0-15.29,2.81-20.14-2.54-3-1.58-4.44-1-7.92.48s-2.54-.63-4.45-2.38-2.85.95-6.34-.47S23.53,30.53,18.93,32C20.67,30.05,29.08,34.81,31.61,31.8Z"/>
          </g>
          <path class="cls-10" d="M193.66,31.49s-13.64-4.18-16,5.28c0,0-2.69-2.9-5.55,2.49-6.66-2.38-5.89,2.22-7.46,3.8A67.78,67.78,0,0,0,152.9,45.6a48.58,48.58,0,0,1,10.79,0c6.66.64,6.5-2.44,11.1-1.22s18.08,5.5,21.72,2.81,3.07-.95,3.07-.95V30.57Z"/>
          <path class="cls-11" d="M83.44,74.31s1.74-.48,6.18,0-.16-2.86,3.65-4a13.83,13.83,0,0,1,7.3,0,7.27,7.27,0,0,1,2.37-3.49,8.46,8.46,0,0,1,4.2-1.59c3.11-.53,4,.73,5.32-.07,1.69-1,.69-3.26,2.38-5.24,2.07-2.42,6.11-2,6.89-1.93,5.78.71,8.42,6.81,8.57,7.17a5.59,5.59,0,0,1,10.54.71c7.3.32,10.31,2.61,10.31,2.61a14.06,14.06,0,0,1-2.77.5,14.69,14.69,0,0,1-5.16-.5c-1.74,0-4.31.11-7.43.31-2.92.18-6,.38-6,.7,0,.53,8.38,1,8.36,1.47,0,.22-1.43.33-1.76.36-6.79.54-18.22.16-18.23.26s9,.73,9.06,1.88c0,.24-.35.5-1.45.86-3.27,1.06-6.11.66-10,.11-4.75-.66-7.17-1-9.46-.57a17.25,17.25,0,0,0-3.54,1c-1.07.12-2.16.22-3.28.29A68.23,68.23,0,0,1,83.44,74.31Z"/>
          <path class="cls-12" d="M110.67,144.4a6,6,0,0,0,3.72,1.46c3,.08,4.8-2.63,7-4.32s6.21-3.46,13.32-2.61A17.4,17.4,0,0,1,148,137.22c8.56-3.29,6.18-2.67,13.79-.6,8.57-3.16,21.62,3.77,21.62,3.77-7.17-2.79-12.47-2.7-16.07-2-2.55.48-4.43,1.28-9.34,2s-8.15.69-8.17,1.09c0,.8,12.93,1.56,12.92,2.68,0,.62-4,1.16-5.57,1.36a39.14,39.14,0,0,1-4.27.35c-11.1-.05-24.89,3.84-31.08,0C117.07,148.2,110.67,144.4,110.67,144.4Z"/>
          <path class="cls-13" d="M9,189s24.31-3.47,47.63,5.81c26.16,6.18,69.45-3.26,90.38-6.39s38-6.93,52.55-3.13l0,13.09H9Z"/>
        </g>
      </g>
    </g>
  </g>
</svg>
