<svg xmlns="http://www.w3.org/2000/svg" xmlns:xlink="http://www.w3.org/1999/xlink" width="234.75" height="170.22" viewBox="0 0 234.75 170.22">
  <defs>
    <style>
      .cls-1 {
        mask: url(#mask);
        filter: url(#luminosity-noclip-5);
      }

      .cls-13, .cls-2, .cls-26, .cls-33, .cls-4, .cls-44, .cls-45, .cls-51, .cls-6, .cls-68, .cls-76, .cls-8, .cls-81 {
        mix-blend-mode: multiply;
      }

      .cls-2 {
        fill: url(#radial-gradient);
      }

      .cls-3 {
        mask: url(#mask-2);
        filter: url(#luminosity-noclip-14);
      }

      .cls-4 {
        fill: url(#radial-gradient-2);
      }

      .cls-5 {
        mask: url(#mask-3);
        filter: url(#luminosity-noclip-25);
      }

      .cls-6 {
        fill: url(#radial-gradient-3);
      }

      .cls-7 {
        mask: url(#mask-4);
        filter: url(#luminosity-noclip-8);
      }

      .cls-8 {
        fill: url(#radial-gradient-4);
      }

      .cls-9 {
        isolation: isolate;
      }

      .cls-10, .cls-47, .cls-49 {
        opacity: 0.5;
      }

      .cls-11 {
        fill: #fff;
      }

      .cls-12 {
        fill: #dcae50;
        stroke-width: 2px;
      }

      .cls-12, .cls-55 {
        stroke: #886a29;
        stroke-miterlimit: 10;
      }

      .cls-13 {
        opacity: 0.8;
      }

      .cls-14 {
        fill: url(#radial-gradient-5);
      }

      .cls-15 {
        fill: url(#radial-gradient-6);
      }

      .cls-16 {
        fill: url(#radial-gradient-7);
      }

      .cls-17 {
        fill: url(#radial-gradient-8);
      }

      .cls-18 {
        fill: url(#radial-gradient-9);
      }

      .cls-19 {
        fill: url(#radial-gradient-10);
      }

      .cls-20 {
        fill: url(#radial-gradient-11);
      }

      .cls-21 {
        fill: url(#radial-gradient-12);
      }

      .cls-22 {
        fill: url(#radial-gradient-13);
      }

      .cls-23 {
        fill: url(#radial-gradient-14);
      }

      .cls-24 {
        fill: url(#radial-gradient-15);
      }

      .cls-25 {
        mask: url(#mask-5);
      }

      .cls-26, .cls-27, .cls-30, .cls-33, .cls-34, .cls-36, .cls-38, .cls-40, .cls-44 {
        opacity: 0.7;
      }

      .cls-26 {
        fill: url(#radial-gradient-16);
      }

      .cls-27 {
        fill: url(#radial-gradient-17);
      }

      .cls-28 {
        mask: url(#mask-6);
      }

      .cls-29, .cls-66, .cls-68, .cls-76 {
        fill: #daa44b;
      }

      .cls-29 {
        opacity: 0.01;
      }

      .cls-30 {
        fill: url(#radial-gradient-18);
      }

      .cls-31 {
        mask: url(#mask-7);
      }

      .cls-32 {
        mask: url(#mask-8);
      }

      .cls-33 {
        fill: url(#radial-gradient-19);
      }

      .cls-34 {
        fill: url(#radial-gradient-20);
      }

      .cls-35 {
        mask: url(#mask-9);
      }

      .cls-36 {
        fill: url(#radial-gradient-21);
      }

      .cls-37 {
        mask: url(#mask-10);
      }

      .cls-38 {
        fill: url(#radial-gradient-22);
      }

      .cls-39 {
        mask: url(#mask-11);
      }

      .cls-40 {
        fill: url(#radial-gradient-23);
      }

      .cls-41 {
        mask: url(#mask-12);
      }

      .cls-42 {
        mask: url(#mask-13);
      }

      .cls-43 {
        mask: url(#mask-14);
      }

      .cls-44 {
        fill: url(#radial-gradient-24);
      }

      .cls-45, .cls-53 {
        opacity: 0.3;
      }

      .cls-46 {
        fill: url(#radial-gradient-25);
      }

      .cls-47 {
        mix-blend-mode: screen;
      }

      .cls-48, .cls-55 {
        fill: #e9c05f;
      }

      .cls-50 {
        fill: #d5a13e;
      }

      .cls-51 {
        opacity: 0.2;
      }

      .cls-52, .cls-81 {
        fill: #c5923b;
      }

      .cls-54 {
        fill: #63411c;
      }

      .cls-56 {
        fill: url(#radial-gradient-26);
      }

      .cls-57 {
        fill: url(#radial-gradient-27);
      }

      .cls-58, .cls-68 {
        opacity: 0.27;
      }

      .cls-58 {
        fill: url(#radial-gradient-28);
      }

      .cls-59 {
        fill: url(#radial-gradient-29);
      }

      .cls-60 {
        fill: url(#radial-gradient-30);
      }

      .cls-61 {
        fill: url(#radial-gradient-31);
      }

      .cls-62 {
        fill: url(#radial-gradient-32);
      }

      .cls-63 {
        fill: url(#radial-gradient-33);
      }

      .cls-64 {
        fill: url(#radial-gradient-34);
      }

      .cls-65 {
        fill: url(#radial-gradient-35);
      }

      .cls-67 {
        mask: url(#mask-15);
      }

      .cls-69 {
        mask: url(#mask-16);
      }

      .cls-70 {
        mask: url(#mask-17);
      }

      .cls-71 {
        mask: url(#mask-18);
      }

      .cls-72 {
        fill: url(#radial-gradient-36);
      }

      .cls-73 {
        mask: url(#mask-19);
      }

      .cls-74 {
        mask: url(#mask-20);
      }

      .cls-75 {
        mask: url(#mask-21);
      }

      .cls-76 {
        opacity: 0.36;
      }

      .cls-77 {
        mask: url(#mask-22);
      }

      .cls-78 {
        mask: url(#mask-23);
      }

      .cls-79 {
        mask: url(#mask-24);
      }

      .cls-80 {
        mask: url(#mask-25);
      }

      .cls-82 {
        filter: url(#luminosity-noclip-24);
      }

      .cls-83 {
        filter: url(#luminosity-noclip-23);
      }

      .cls-84 {
        filter: url(#luminosity-noclip-22);
      }

      .cls-85 {
        filter: url(#luminosity-noclip-21);
      }

      .cls-86 {
        filter: url(#luminosity-noclip-20);
      }

      .cls-87 {
        filter: url(#luminosity-noclip-19);
      }

      .cls-88 {
        filter: url(#luminosity-noclip-18);
      }

      .cls-89 {
        filter: url(#luminosity-noclip-17);
      }

      .cls-90 {
        filter: url(#luminosity-noclip-16);
      }

      .cls-91 {
        filter: url(#luminosity-noclip-15);
      }

      .cls-92 {
        filter: url(#luminosity-noclip-13);
      }

      .cls-93 {
        filter: url(#luminosity-noclip-12);
      }

      .cls-94 {
        filter: url(#luminosity-noclip-11);
      }

      .cls-95 {
        filter: url(#luminosity-noclip-10);
      }

      .cls-96 {
        filter: url(#luminosity-noclip-9);
      }

      .cls-97 {
        filter: url(#luminosity-noclip-7);
      }

      .cls-98 {
        filter: url(#luminosity-noclip-6);
      }

      .cls-99 {
        filter: url(#luminosity-noclip-4);
      }

      .cls-100 {
        filter: url(#luminosity-noclip-3);
      }

      .cls-101 {
        filter: url(#luminosity-noclip-2);
      }

      .cls-102 {
        filter: url(#luminosity-noclip);
      }
    </style>
    <filter id="luminosity-noclip" x="111.4" y="-10820.53" width="6.02" height="32766" filterUnits="userSpaceOnUse" color-interpolation-filters="sRGB">
      <feFlood flood-color="#fff" result="bg"/>
      <feBlend in="SourceGraphic" in2="bg"/>
    </filter>
    <mask id="mask" x="111.4" y="-10820.53" width="6.02" height="32766" maskUnits="userSpaceOnUse">
      <g class="cls-102"/>
    </mask>
    <radialGradient id="radial-gradient" cx="105.09" cy="192.29" r="4.57" gradientTransform="translate(11.08 -93.07) scale(0.98 1.03)" gradientUnits="userSpaceOnUse">
      <stop offset="0.08" stop-color="#fff"/>
      <stop offset="1"/>
    </radialGradient>
    <filter id="luminosity-noclip-2" x="116.57" y="-10820.53" width="6.01" height="32766" filterUnits="userSpaceOnUse" color-interpolation-filters="sRGB">
      <feFlood flood-color="#fff" result="bg"/>
      <feBlend in="SourceGraphic" in2="bg"/>
    </filter>
    <mask id="mask-2" x="116.57" y="-10820.53" width="6.01" height="32766" maskUnits="userSpaceOnUse">
      <g class="cls-101"/>
    </mask>
    <radialGradient id="radial-gradient-2" cx="110.33" cy="178.01" r="4.57" xlink:href="#radial-gradient"/>
    <filter id="luminosity-noclip-3" x="99.6" y="-10820.53" width="107.76" height="32766" filterUnits="userSpaceOnUse" color-interpolation-filters="sRGB">
      <feFlood flood-color="#fff" result="bg"/>
      <feBlend in="SourceGraphic" in2="bg"/>
    </filter>
    <mask id="mask-3" x="99.6" y="-10820.53" width="107.76" height="32766" maskUnits="userSpaceOnUse">
      <g class="cls-100"/>
    </mask>
    <radialGradient id="radial-gradient-3" cx="155.59" cy="162.22" r="97.56" gradientTransform="translate(11.08 -93.07) scale(0.98 1.03)" gradientUnits="userSpaceOnUse">
      <stop offset="0.14"/>
      <stop offset="0.92" stop-color="#fff"/>
    </radialGradient>
    <filter id="luminosity-noclip-4" x="113.04" y="-10820.53" width="5.98" height="32766" filterUnits="userSpaceOnUse" color-interpolation-filters="sRGB">
      <feFlood flood-color="#fff" result="bg"/>
      <feBlend in="SourceGraphic" in2="bg"/>
    </filter>
    <mask id="mask-4" x="113.04" y="-10820.53" width="5.98" height="32766" maskUnits="userSpaceOnUse">
      <g class="cls-99"/>
    </mask>
    <radialGradient id="radial-gradient-4" cx="304.45" cy="119.06" r="4.52" gradientTransform="matrix(0.98, -0.08, 0.08, 1.03, -191.59, -46.97)" xlink:href="#radial-gradient"/>
    <radialGradient id="radial-gradient-5" cx="2125.57" cy="605.78" r="5.04" gradientTransform="matrix(0.67, -0.76, 0.72, 0.7, -1815.82, 1268.96)" gradientUnits="userSpaceOnUse">
      <stop offset="0.14" stop-color="#daa44b"/>
      <stop offset="0.5" stop-color="#c48f40"/>
      <stop offset="0.92" stop-color="#a7722a"/>
    </radialGradient>
    <radialGradient id="radial-gradient-6" cx="-467.76" cy="326.66" r="5.05" gradientTransform="matrix(0.97, 0.19, -0.18, 1.01, 536.92, -142.33)" xlink:href="#radial-gradient-5"/>
    <radialGradient id="radial-gradient-7" cx="849.66" cy="152.89" r="5.06" gradientTransform="matrix(0.94, -0.31, 0.3, 0.98, -783.54, 235.55)" xlink:href="#radial-gradient-5"/>
    <radialGradient id="radial-gradient-8" cx="810.5" cy="140.5" r="3.08" gradientTransform="matrix(0.94, -0.31, 0.3, 0.98, -783.54, 235.55)" xlink:href="#radial-gradient-5"/>
    <radialGradient id="radial-gradient-9" cx="891.93" cy="106.03" r="6.7" gradientTransform="matrix(0.94, -0.31, 0.3, 0.98, -783.54, 235.55)" xlink:href="#radial-gradient-5"/>
    <radialGradient id="radial-gradient-10" cx="-744.51" cy="498.53" r="5.2" gradientTransform="matrix(0.93, 0.34, -0.32, 0.97, 947.1, -135.96)" xlink:href="#radial-gradient-5"/>
    <radialGradient id="radial-gradient-11" cx="-736.68" cy="519.61" r="4.14" gradientTransform="matrix(0.93, 0.34, -0.32, 0.97, 947.1, -135.96)" xlink:href="#radial-gradient-5"/>
    <radialGradient id="radial-gradient-12" cx="234.12" cy="163.76" r="4.13" gradientTransform="matrix(0.98, -0.05, 0.05, 1.03, -123.02, -48.49)" xlink:href="#radial-gradient-5"/>
    <radialGradient id="radial-gradient-13" cx="240.34" cy="149.08" r="3.02" gradientTransform="matrix(0.98, -0.05, 0.05, 1.03, -123.02, -48.49)" xlink:href="#radial-gradient-5"/>
    <radialGradient id="radial-gradient-14" cx="224.68" cy="102.94" r="3.03" gradientTransform="matrix(0.98, -0.05, 0.05, 1.03, -123.02, -48.49)" xlink:href="#radial-gradient-5"/>
    <radialGradient id="radial-gradient-15" cx="238.62" cy="111.43" r="3.78" gradientTransform="matrix(0.98, -0.05, 0.05, 1.03, -123.02, -48.49)" xlink:href="#radial-gradient-5"/>
    <filter id="luminosity-noclip-5" x="111.4" y="99.7" width="6.02" height="10.66" filterUnits="userSpaceOnUse" color-interpolation-filters="sRGB">
      <feFlood flood-color="#fff" result="bg"/>
      <feBlend in="SourceGraphic" in2="bg"/>
    </filter>
    <mask id="mask-5" x="111.4" y="99.7" width="6.02" height="10.66" maskUnits="userSpaceOnUse">
      <g class="cls-1">
        <path class="cls-2" d="M117.42,105c0,2.94-1.35,5.33-3,5.33s-3-2.39-3-5.33,1.35-5.33,3-5.33S117.42,102.08,117.42,105Z"/>
      </g>
    </mask>
    <radialGradient id="radial-gradient-16" cx="105.09" cy="192.29" r="4.57" gradientTransform="translate(11.08 -93.07) scale(0.98 1.03)" gradientUnits="userSpaceOnUse">
      <stop offset="0.08" stop-color="#a7722a"/>
      <stop offset="1" stop-color="#daa44b"/>
    </radialGradient>
    <radialGradient id="radial-gradient-17" cx="-772.66" cy="517.64" r="4.56" gradientTransform="matrix(0.92, 0.35, -0.34, 0.97, 982.61, -137.42)" xlink:href="#radial-gradient-16"/>
    <filter id="luminosity-noclip-6" x="90.57" y="-10820.53" width="6.63" height="32766" filterUnits="userSpaceOnUse" color-interpolation-filters="sRGB">
      <feFlood flood-color="#fff" result="bg"/>
      <feBlend in="SourceGraphic" in2="bg"/>
    </filter>
    <mask id="mask-6" x="90.57" y="-10820.53" width="6.63" height="32766" maskUnits="userSpaceOnUse">
      <g class="cls-98"/>
    </mask>
    <radialGradient id="radial-gradient-18" cx="935.12" cy="118.12" r="6.03" gradientTransform="matrix(0.93, -0.33, 0.32, 0.98, -826.36, 252.99)" xlink:href="#radial-gradient-16"/>
    <filter id="luminosity-noclip-7" x="78.03" y="-10820.53" width="8.68" height="32766" filterUnits="userSpaceOnUse" color-interpolation-filters="sRGB">
      <feFlood flood-color="#fff" result="bg"/>
      <feBlend in="SourceGraphic" in2="bg"/>
    </filter>
    <mask id="mask-7" x="78.03" y="-10820.53" width="8.68" height="32766" maskUnits="userSpaceOnUse">
      <g class="cls-97"/>
    </mask>
    <filter id="luminosity-noclip-8" x="113.04" y="45.91" width="5.98" height="10.52" filterUnits="userSpaceOnUse" color-interpolation-filters="sRGB">
      <feFlood flood-color="#fff" result="bg"/>
      <feBlend in="SourceGraphic" in2="bg"/>
    </filter>
    <mask id="mask-8" x="113.04" y="45.91" width="5.98" height="10.52" maskUnits="userSpaceOnUse">
      <g class="cls-7">
        <path class="cls-8" d="M119,50.93c.2,2.91-1,5.37-2.58,5.5s-3.14-2.12-3.36-5,.94-5.37,2.59-5.49S118.78,48,119,50.93Z"/>
      </g>
    </mask>
    <radialGradient id="radial-gradient-19" cx="304.45" cy="119.06" r="4.52" gradientTransform="matrix(0.98, -0.08, 0.08, 1.03, -191.59, -46.97)" xlink:href="#radial-gradient-16"/>
    <radialGradient id="radial-gradient-20" cx="2206.21" cy="672.27" r="4.52" gradientTransform="matrix(0.64, -0.79, 0.75, 0.67, -1872.96, 1363.2)" xlink:href="#radial-gradient-16"/>
    <filter id="luminosity-noclip-9" x="30.18" y="-10820.53" width="8.6" height="32766" filterUnits="userSpaceOnUse" color-interpolation-filters="sRGB">
      <feFlood flood-color="#fff" result="bg"/>
      <feBlend in="SourceGraphic" in2="bg"/>
    </filter>
    <mask id="mask-9" x="30.18" y="-10820.53" width="8.6" height="32766" maskUnits="userSpaceOnUse">
      <g class="cls-96"/>
    </mask>
    <radialGradient id="radial-gradient-21" cx="-151.23" cy="216.43" r="4.52" gradientTransform="matrix(0.98, 0.06, -0.06, 1.03, 185.27, -118.9)" xlink:href="#radial-gradient-16"/>
    <filter id="luminosity-noclip-10" x="21.14" y="-10820.53" width="5.97" height="32766" filterUnits="userSpaceOnUse" color-interpolation-filters="sRGB">
      <feFlood flood-color="#fff" result="bg"/>
      <feBlend in="SourceGraphic" in2="bg"/>
    </filter>
    <mask id="mask-10" x="21.14" y="-10820.53" width="5.97" height="32766" maskUnits="userSpaceOnUse">
      <g class="cls-95"/>
    </mask>
    <radialGradient id="radial-gradient-22" cx="867.95" cy="161.27" r="4.52" gradientTransform="matrix(0.94, -0.32, 0.31, 0.98, -804.01, 238.92)" xlink:href="#radial-gradient-16"/>
    <filter id="luminosity-noclip-11" x="53.9" y="-10820.53" width="6.47" height="32766" filterUnits="userSpaceOnUse" color-interpolation-filters="sRGB">
      <feFlood flood-color="#fff" result="bg"/>
      <feBlend in="SourceGraphic" in2="bg"/>
    </filter>
    <mask id="mask-11" x="53.9" y="-10820.53" width="6.47" height="32766" maskUnits="userSpaceOnUse">
      <g class="cls-94"/>
    </mask>
    <radialGradient id="radial-gradient-23" cx="537.93" cy="89.14" r="3.81" gradientTransform="matrix(0.97, -0.17, 0.16, 1.02, -434.2, 45.52)" xlink:href="#radial-gradient-16"/>
    <filter id="luminosity-noclip-12" x="99.79" y="-10820.53" width="5.15" height="32766" filterUnits="userSpaceOnUse" color-interpolation-filters="sRGB">
      <feFlood flood-color="#fff" result="bg"/>
      <feBlend in="SourceGraphic" in2="bg"/>
    </filter>
    <mask id="mask-12" x="99.79" y="-10820.53" width="5.15" height="32766" maskUnits="userSpaceOnUse">
      <g class="cls-93"/>
    </mask>
    <filter id="luminosity-noclip-13" x="15.06" y="-10820.53" width="5.15" height="32766" filterUnits="userSpaceOnUse" color-interpolation-filters="sRGB">
      <feFlood flood-color="#fff" result="bg"/>
      <feBlend in="SourceGraphic" in2="bg"/>
    </filter>
    <mask id="mask-13" x="15.06" y="-10820.53" width="5.15" height="32766" maskUnits="userSpaceOnUse">
      <g class="cls-92"/>
    </mask>
    <filter id="luminosity-noclip-14" x="116.57" y="84.98" width="6.01" height="10.67" filterUnits="userSpaceOnUse" color-interpolation-filters="sRGB">
      <feFlood flood-color="#fff" result="bg"/>
      <feBlend in="SourceGraphic" in2="bg"/>
    </filter>
    <mask id="mask-14" x="116.57" y="84.98" width="6.01" height="10.67" maskUnits="userSpaceOnUse">
      <g class="cls-3">
        <path class="cls-4" d="M122.58,90.31c0,3-1.34,5.34-3,5.34s-3-2.39-3-5.34,1.35-5.33,3-5.33S122.58,87.36,122.58,90.31Z"/>
      </g>
    </mask>
    <radialGradient id="radial-gradient-24" cx="110.33" cy="178.01" r="4.57" xlink:href="#radial-gradient-16"/>
    <radialGradient id="radial-gradient-25" cx="62.19" cy="90.4" r="115.04" gradientTransform="translate(11.08 -93.07) scale(0.98 1.03)" gradientUnits="userSpaceOnUse">
      <stop offset="0" stop-color="#f6dd80"/>
      <stop offset="0.33" stop-color="#e9c05f"/>
      <stop offset="0.6" stop-color="#d5a53e"/>
      <stop offset="1" stop-color="#9b6126"/>
    </radialGradient>
    <radialGradient id="radial-gradient-26" cx="2929.89" cy="1462.45" r="6.58" gradientTransform="matrix(0.32, -0.98, 0.93, 0.33, -2130.49, 2512.85)" xlink:href="#radial-gradient-5"/>
    <radialGradient id="radial-gradient-27" cx="-619.07" cy="468" r="5.73" gradientTransform="matrix(0.93, 0.33, -0.31, 0.98, 849.09, -185.65)" xlink:href="#radial-gradient-5"/>
    <radialGradient id="radial-gradient-28" cx="420.79" cy="126.78" r="4.18" gradientTransform="matrix(0.98, -0.1, 0.1, 1.03, -314.59, -17.33)" xlink:href="#radial-gradient-5"/>
    <radialGradient id="radial-gradient-29" cx="1318.94" cy="231.12" r="2.32" gradientTransform="matrix(0.89, -0.45, 0.43, 0.93, -1117.93, 492.12)" xlink:href="#radial-gradient-5"/>
    <radialGradient id="radial-gradient-30" cx="-380.45" cy="363.49" r="2.33" gradientTransform="matrix(0.96, 0.22, -0.21, 1.01, 584.21, -174.91)" xlink:href="#radial-gradient-5"/>
    <radialGradient id="radial-gradient-31" cx="1483.62" cy="283.56" r="2.32" gradientTransform="matrix(0.85, -0.51, 0.49, 0.9, -1275.89, 626.6)" xlink:href="#radial-gradient-5"/>
    <radialGradient id="radial-gradient-32" cx="1936.18" cy="590.88" r="4.6" gradientTransform="matrix(0.82, -0.86, 0.69, 0.73, -1828.02, 1329.65)" xlink:href="#radial-gradient-5"/>
    <radialGradient id="radial-gradient-33" cx="-7.93" cy="323.02" r="4.6" gradientTransform="matrix(1.15, 0.16, -0.13, 1.02, 237.01, -197.66)" xlink:href="#radial-gradient-5"/>
    <radialGradient id="radial-gradient-34" cx="1678.71" cy="421.11" r="2.41" gradientTransform="matrix(0.93, -0.73, 0.59, 0.82, -1613.71, 975.55)" xlink:href="#radial-gradient-5"/>
    <radialGradient id="radial-gradient-35" cx="520.49" cy="198.85" r="2.41" gradientTransform="matrix(1.15, -0.13, 0.11, 1.02, -415.47, -11.88)" xlink:href="#radial-gradient-5"/>
    <filter id="luminosity-noclip-15" x="183.67" y="-10820.53" width="5.97" height="32766" filterUnits="userSpaceOnUse" color-interpolation-filters="sRGB">
      <feFlood flood-color="#fff" result="bg"/>
      <feBlend in="SourceGraphic" in2="bg"/>
    </filter>
    <mask id="mask-15" x="183.67" y="-10820.53" width="5.97" height="32766" maskUnits="userSpaceOnUse">
      <g class="cls-91"/>
    </mask>
    <filter id="luminosity-noclip-16" x="165.46" y="-10820.53" width="8.43" height="32766" filterUnits="userSpaceOnUse" color-interpolation-filters="sRGB">
      <feFlood flood-color="#fff" result="bg"/>
      <feBlend in="SourceGraphic" in2="bg"/>
    </filter>
    <mask id="mask-16" x="165.46" y="-10820.53" width="8.43" height="32766" maskUnits="userSpaceOnUse">
      <g class="cls-90"/>
    </mask>
    <filter id="luminosity-noclip-17" x="146.89" y="-10820.53" width="5.57" height="32766" filterUnits="userSpaceOnUse" color-interpolation-filters="sRGB">
      <feFlood flood-color="#fff" result="bg"/>
      <feBlend in="SourceGraphic" in2="bg"/>
    </filter>
    <mask id="mask-17" x="146.89" y="-10820.53" width="5.57" height="32766" maskUnits="userSpaceOnUse">
      <g class="cls-89"/>
    </mask>
    <filter id="luminosity-noclip-18" x="127.5" y="-10820.53" width="3.83" height="32766" filterUnits="userSpaceOnUse" color-interpolation-filters="sRGB">
      <feFlood flood-color="#fff" result="bg"/>
      <feBlend in="SourceGraphic" in2="bg"/>
    </filter>
    <mask id="mask-18" x="127.5" y="-10820.53" width="3.83" height="32766" maskUnits="userSpaceOnUse">
      <g class="cls-88"/>
    </mask>
    <radialGradient id="radial-gradient-36" cx="2182.21" cy="639.37" r="2.32" gradientTransform="matrix(0.67, -0.75, 0.72, 0.7, -1799.21, 1325.05)" xlink:href="#radial-gradient-5"/>
    <filter id="luminosity-noclip-19" x="121.09" y="-10820.53" width="4.48" height="32766" filterUnits="userSpaceOnUse" color-interpolation-filters="sRGB">
      <feFlood flood-color="#fff" result="bg"/>
      <feBlend in="SourceGraphic" in2="bg"/>
    </filter>
    <mask id="mask-19" x="121.09" y="-10820.53" width="4.48" height="32766" maskUnits="userSpaceOnUse">
      <g class="cls-87"/>
    </mask>
    <filter id="luminosity-noclip-20" x="140.4" y="-10820.53" width="4.2" height="32766" filterUnits="userSpaceOnUse" color-interpolation-filters="sRGB">
      <feFlood flood-color="#fff" result="bg"/>
      <feBlend in="SourceGraphic" in2="bg"/>
    </filter>
    <mask id="mask-20" x="140.4" y="-10820.53" width="4.2" height="32766" maskUnits="userSpaceOnUse">
      <g class="cls-86"/>
    </mask>
    <filter id="luminosity-noclip-21" x="187.65" y="-10820.53" width="5.39" height="32766" filterUnits="userSpaceOnUse" color-interpolation-filters="sRGB">
      <feFlood flood-color="#fff" result="bg"/>
      <feBlend in="SourceGraphic" in2="bg"/>
    </filter>
    <mask id="mask-21" x="187.65" y="-10820.53" width="5.39" height="32766" maskUnits="userSpaceOnUse">
      <g class="cls-85"/>
    </mask>
    <filter id="luminosity-noclip-22" x="202.78" y="-10820.53" width="4.57" height="32766" filterUnits="userSpaceOnUse" color-interpolation-filters="sRGB">
      <feFlood flood-color="#fff" result="bg"/>
      <feBlend in="SourceGraphic" in2="bg"/>
    </filter>
    <mask id="mask-22" x="202.78" y="-10820.53" width="4.57" height="32766" maskUnits="userSpaceOnUse">
      <g class="cls-84"/>
    </mask>
    <filter id="luminosity-noclip-23" x="122.05" y="-10820.53" width="6.96" height="32766" filterUnits="userSpaceOnUse" color-interpolation-filters="sRGB">
      <feFlood flood-color="#fff" result="bg"/>
      <feBlend in="SourceGraphic" in2="bg"/>
    </filter>
    <mask id="mask-23" x="122.05" y="-10820.53" width="6.96" height="32766" maskUnits="userSpaceOnUse">
      <g class="cls-83"/>
    </mask>
    <filter id="luminosity-noclip-24" x="149.72" y="-10820.53" width="10.6" height="32766" filterUnits="userSpaceOnUse" color-interpolation-filters="sRGB">
      <feFlood flood-color="#fff" result="bg"/>
      <feBlend in="SourceGraphic" in2="bg"/>
    </filter>
    <mask id="mask-24" x="149.72" y="-10820.53" width="10.6" height="32766" maskUnits="userSpaceOnUse">
      <g class="cls-82"/>
    </mask>
    <filter id="luminosity-noclip-25" x="99.6" y="69.35" width="107.76" height="85.34" filterUnits="userSpaceOnUse" color-interpolation-filters="sRGB">
      <feFlood flood-color="#fff" result="bg"/>
      <feBlend in="SourceGraphic" in2="bg"/>
    </filter>
    <mask id="mask-25" x="99.6" y="69.35" width="107.76" height="85.34" maskUnits="userSpaceOnUse">
      <g class="cls-5">
        <path class="cls-6" d="M156.48,148.63c-24-.4-41.62-24.4-41.23-36.79s-6.11-26-11.07-34.77a23.23,23.23,0,0,1-2.54-7.72c-4.54,16.92-.51,29.33,2.66,38.64,9.67,28,24.69,44,49.12,46.37,16.28,1.6,39.54-2.48,53.94-13.58C190.59,149,174.75,148.93,156.48,148.63Z"/>
      </g>
    </mask>
  </defs>
  <g class="cls-9">
    <g id="Layer_1" data-name="Layer 1">
      <g>
        <path class="cls-10" d="M165.18,167.68h-1.11c-.76,0-1.52,0-2.27-.07l-1,0c-1.06-.06-2.11-.13-3.12-.23a56.77,56.77,0,0,1-37.94-19c-.36.37-.72.72-1.08,1.07l-.09.08a60.48,60.48,0,0,1-5.4,4.58l-.38.29c-.56.41-1.12.8-1.68,1.19l-.5.34c-.64.43-1.21.81-1.79,1.17l-.15.09c-1.15.71-2.32,1.38-3.55,2l-.77.4-1.55.77-1,.48-1.5.66-1,.41-.22.08c-.72.29-1.43.56-2.15.82s-1.14.41-1.73.6l-1.08.35-.22.06-1.53.46-1.32.36-1.72.43-.28.07-.85.2c-.92.2-1.85.39-2.8.57l-.91.15c-.69.12-1.41.24-2.14.34l-1.11.16c-.69.09-1.39.18-2.1.25l-1,.11c-1,.1-2.06.19-3.12.26a4.61,4.61,0,0,1-.53,0h-.34c-1.14,0-2.26-.12-3.37-.21l-.86-.07c-1-.08-1.87-.17-2.75-.28l-.71-.08c-1.06-.13-2.1-.28-3.13-.44l-.89-.16c-.78-.13-1.57-.28-2.35-.44l-.9-.18c-1-.21-2-.44-3-.68l-.62-.17c-.78-.2-1.57-.42-2.35-.65l-.93-.28c-.82-.25-1.64-.52-2.44-.8l-.4-.13c-.93-.33-1.83-.68-2.73-1l-.77-.32c-.73-.3-1.43-.61-2.13-.92l-.63-.29c-.86-.4-1.72-.82-2.56-1.25l-.54-.29c-.69-.36-1.38-.74-2.06-1.14l-.61-.34c-.82-.49-1.64-1-2.44-1.51l-.05,0c-.79-.52-1.55-1.05-2.31-1.59l-.45-.33c-1.56-1.14-3.08-2.36-4.51-3.61l-.19-.17c-.71-.64-1.4-1.28-2.06-1.93l-.08-.07c-1.42-1.39-2.79-2.88-4.07-4.41l0-.05C4,122.71,1.61,92.43,14.92,64.23,27.44,38.06,53,7.54,83.89,7.54c10.82,0,21.38,3.75,31.4,11.16a81.26,81.26,0,0,1,19.25,19.65,50.23,50.23,0,0,1,7.52-.56,65.34,65.34,0,0,1,20.68,3.64c41.58,13.9,70.62,47.71,70.62,82.22q0,.33,0,.66c-1.09,13.2-9,24.34-22.77,32.24l-.11.06c-1.06.6-2.22,1.23-3.4,1.81l-.08,0a76.87,76.87,0,0,1-7.27,3.14l-.44.16c-1.07.4-2.13.76-3.21,1.11l-.58.19c-2.35.75-4.79,1.41-7.25,2l-.93.21c-.9.2-1.8.39-2.71.57l-1,.19c-1.15.21-2.3.41-3.44.58l-.25,0c-1.16.17-2.24.31-3.3.43l-1.21.12-2.36.22-1.18.09-3,.15-.67,0-2.52,0Z"/>
        <path class="cls-11" d="M160.18,162.68h-1.11c-.76,0-1.52,0-2.27-.07l-1,0c-1.06-.06-2.11-.13-3.12-.23a56.77,56.77,0,0,1-37.94-19c-.36.37-.72.72-1.08,1.07l-.09.08a60.48,60.48,0,0,1-5.4,4.58l-.38.29c-.56.41-1.12.8-1.68,1.19l-.5.34c-.64.43-1.21.81-1.79,1.17l-.15.09c-1.15.71-2.32,1.38-3.55,2l-.77.4-1.55.77-1,.48-1.5.66-1,.41-.22.08c-.72.29-1.43.56-2.15.82s-1.14.41-1.73.6l-1.08.35-.22.06-1.53.46-1.32.36-1.72.43-.28.07-.85.2c-.92.2-1.85.39-2.8.57l-.91.15c-.69.12-1.41.24-2.14.34l-1.11.16c-.69.09-1.39.18-2.1.25l-1,.11c-1,.1-2.06.19-3.12.26a4.61,4.61,0,0,1-.53,0h-.34c-1.14,0-2.26-.12-3.37-.21l-.86-.07c-1-.08-1.87-.17-2.75-.28l-.71-.08c-1.06-.13-2.1-.28-3.13-.44l-.89-.16c-.78-.13-1.57-.28-2.35-.44l-.9-.18c-1-.21-2-.44-3-.68l-.62-.17c-.78-.2-1.57-.42-2.35-.65l-.93-.28c-.82-.25-1.64-.52-2.44-.8l-.4-.13c-.93-.33-1.83-.68-2.73-1l-.77-.32c-.73-.3-1.43-.61-2.13-.92l-.63-.29c-.86-.4-1.72-.82-2.56-1.25l-.54-.29c-.69-.36-1.38-.74-2.06-1.14l-.61-.34c-.82-.49-1.64-1-2.44-1.51l-.05,0c-.79-.52-1.55-1.05-2.31-1.59l-.45-.33c-1.56-1.14-3.08-2.36-4.51-3.61l-.19-.17c-.71-.64-1.4-1.28-2.06-1.93l-.08-.07c-1.42-1.39-2.79-2.88-4.07-4.41l0-.05C-1,117.71-3.39,87.43,9.92,59.23,22.44,33.06,48,2.54,78.89,2.54c10.82,0,21.38,3.75,31.4,11.16a81.26,81.26,0,0,1,19.25,19.65,50.23,50.23,0,0,1,7.52-.56,65.34,65.34,0,0,1,20.68,3.64c41.58,13.9,70.62,47.71,70.62,82.22q0,.33,0,.66c-1.09,13.2-9,24.34-22.77,32.24l-.11.06c-1.06.6-2.22,1.23-3.4,1.81l-.08,0a76.87,76.87,0,0,1-7.27,3.14l-.44.16c-1.07.4-2.13.76-3.21,1.11l-.58.19c-2.35.75-4.79,1.41-7.25,2l-.93.21c-.9.2-1.8.39-2.71.57l-1,.19c-1.15.21-2.3.41-3.44.58l-.25,0c-1.16.17-2.24.31-3.3.43l-1.21.12-2.36.22-1.18.09-3,.15-.67,0-2.52,0Z"/>
        <g id="potatao">
          <g>
            <path class="cls-12" d="M105.53,20.13C124.33,34,136,53.42,132.52,83c-8.26,48.33-28.72,68.83-63.1,71.11C16.33,151.86-2.86,105,17.16,62.65,30.75,34.22,66.42-8.78,105.53,20.13Z"/>
            <g class="cls-13">
              <path class="cls-14" d="M35.94,74.32c1.07,1,1.55,2.32,1.05,2.87s-1.76.19-2.84-.85-1.54-2.32-1-2.88S34.86,73.28,35.94,74.32Z"/>
              <path class="cls-15" d="M25.9,94.78c-.26,1.5-1.06,2.6-1.77,2.46s-1.08-1.49-.81-3,1.07-2.6,1.79-2.46S26.19,93.28,25.9,94.78Z"/>
              <path class="cls-16" d="M58.64,118.48c.42,1.45.23,2.82-.47,3s-1.62-.76-2.06-2.22-.23-2.82.46-3.06S58.19,117,58.64,118.48Z"/>
              <path class="cls-17" d="M18.44,120c.26.88.13,1.72-.28,1.86s-1-.47-1.27-1.35-.13-1.72.28-1.86S18.16,119.07,18.44,120Z"/>
              <path class="cls-18" d="M84.24,58c.57,1.95.3,3.75-.63,4.07s-2.14-1-2.72-3-.3-3.75.61-4S83.64,56.1,84.24,58Z"/>
              <path class="cls-19" d="M95.29,92.43c-.5,1.49-1.47,2.47-2.18,2.22s-.89-1.67-.39-3.15S94.19,89,94.9,89.27,95.77,91,95.29,92.43Z"/>
              <path class="cls-20" d="M95.35,116.35c-.39,1.16-1.16,2-1.73,1.76s-.7-1.33-.32-2.51,1.18-2,1.75-1.77S95.74,115.16,95.35,116.35Z"/>
              <path class="cls-21" d="M115.21,105.25c.05,1.25-.38,2.28-1,2.31s-1.12-1-1.17-2.21.36-2.28,1-2.31S115.14,104,115.21,105.25Z"/>
              <path class="cls-22" d="M120.54,90.67c0,.91-.27,1.68-.71,1.7s-.82-.69-.87-1.62.28-1.67.71-1.69S120.51,89.76,120.54,90.67Z"/>
              <path class="cls-23" d="M103,44c0,.92-.28,1.68-.72,1.7s-.82-.7-.87-1.61.28-1.68.71-1.7S102.91,43,103,44Z"/>
              <path class="cls-24" d="M117.12,51.41c.06,1.14-.34,2.09-.89,2.12s-1-.88-1.09-2,.35-2.09.9-2.11S117.07,50.27,117.12,51.41Z"/>
              <g class="cls-25">
                <path class="cls-26" d="M117.42,105c0,2.94-1.35,5.33-3,5.33s-3-2.39-3-5.33,1.35-5.33,3-5.33S117.42,102.08,117.42,105Z"/>
              </g>
              <path class="cls-27" d="M96.71,92.9c-.95,2.77-3,4.53-4.55,3.93s-2-3.31-1.1-6.08,3-4.52,4.57-3.93S97.68,90.13,96.71,92.9Z"/>
              <g class="cls-28">
                <path class="cls-29" d="M96.71,92.9c-.95,2.77-3,4.53-4.55,3.93s-2-3.31-1.1-6.08,3-4.52,4.57-3.93S97.68,90.13,96.71,92.9Z"/>
              </g>
              <path class="cls-30" d="M86.14,57.06c1.18,3.68.46,7.26-1.62,8s-4.72-1.64-5.92-5.33-.47-7.27,1.61-8S84.94,53.37,86.14,57.06Z"/>
              <g class="cls-31">
                <path class="cls-29" d="M86.14,57.06c1.18,3.68.46,7.26-1.62,8s-4.72-1.64-5.92-5.33-.47-7.27,1.61-8S84.94,53.37,86.14,57.06Z"/>
              </g>
              <g class="cls-32">
                <path class="cls-33" d="M119,50.93c.2,2.91-1,5.37-2.58,5.5s-3.14-2.12-3.36-5,.94-5.37,2.59-5.49S118.78,48,119,50.93Z"/>
              </g>
              <path class="cls-34" d="M36.4,72.59c2.12,1.89,3,4.48,1.92,5.78s-3.64.85-5.77-1-3-4.47-1.93-5.78S34.27,70.71,36.4,72.59Z"/>
              <g class="cls-35">
                <path class="cls-29" d="M36.4,72.59c2.12,1.89,3,4.48,1.92,5.78s-3.64.85-5.77-1-3-4.47-1.93-5.78S34.27,70.71,36.4,72.59Z"/>
              </g>
              <path class="cls-36" d="M27.1,94.75c-.16,2.92-1.63,5.2-3.27,5.09S21,97.3,21.16,94.39s1.63-5.19,3.27-5.08S27.26,91.84,27.1,94.75Z"/>
              <g class="cls-37">
                <path class="cls-29" d="M27.1,94.75c-.16,2.92-1.63,5.2-3.27,5.09S21,97.3,21.16,94.39s1.63-5.19,3.27-5.08S27.26,91.84,27.1,94.75Z"/>
              </g>
              <path class="cls-38" d="M60,117.5c.86,2.77.3,5.46-1.26,6s-3.53-1.27-4.4-4-.3-5.45,1.26-6S59.1,114.73,60,117.5Z"/>
              <g class="cls-39">
                <path class="cls-29" d="M60,117.5c.86,2.77.3,5.46-1.26,6s-3.53-1.27-4.4-4-.3-5.45,1.26-6S59.1,114.73,60,117.5Z"/>
              </g>
              <path class="cls-40" d="M104.84,43c.4,2.42-.39,4.58-1.76,4.82s-2.8-1.52-3.19-3.95.4-4.6,1.76-4.83S104.45,40.54,104.84,43Z"/>
              <g class="cls-41">
                <path class="cls-29" d="M104.84,43c.4,2.42-.39,4.58-1.76,4.82s-2.8-1.52-3.19-3.95.4-4.6,1.76-4.83S104.45,40.54,104.84,43Z"/>
              </g>
              <path class="cls-29" d="M20.11,119.32c.4,2.44-.4,4.6-1.76,4.84s-2.79-1.52-3.19-4,.41-4.58,1.76-4.82S19.72,116.9,20.11,119.32Z"/>
              <g class="cls-42">
                <path class="cls-29" d="M20.11,119.32c.4,2.44-.4,4.6-1.76,4.84s-2.79-1.52-3.19-4,.41-4.58,1.76-4.82S19.72,116.9,20.11,119.32Z"/>
              </g>
              <g class="cls-43">
                <path class="cls-44" d="M122.58,90.31c0,3-1.34,5.34-3,5.34s-3-2.39-3-5.34,1.35-5.33,3-5.33S122.58,87.36,122.58,90.31Z"/>
              </g>
            </g>
            <g class="cls-45">
              <path class="cls-46" d="M119.14,118.93c-6.79,7.7-13.37,16.62-21.63,22.67a56.92,56.92,0,0,1-22.83,10.2C56,155.35,38.54,149,26.92,133,21,124.82,16.58,115.45,12,106.39a31.65,31.65,0,0,1-2.52-7c1.6,29,22.18,53.13,59.9,54.74,26.54-1.76,44.76-14.39,55.51-42.26C123.16,114.26,121.21,116.58,119.14,118.93Z"/>
            </g>
            <g class="cls-47">
              <path class="cls-48" d="M42.43,128.9a.72.72,0,0,0-.59.79,2.05,2.05,0,0,0,.5,1.15.75.75,0,0,0,.17.3c.21.46.59.78,1,.36s0-1.63-.28-2.13A1,1,0,0,0,42.43,128.9Z"/>
              <path class="cls-48" d="M40.17,108.38a.33.33,0,0,0-.42.19,2.73,2.73,0,0,0,.13,1.55,1,1,0,0,0,.34.57.34.34,0,0,0,.5-.14c.27-.24.19-.8.14-1.1S40.59,108.52,40.17,108.38Z"/>
              <path class="cls-48" d="M36,104.36a.38.38,0,0,0-.37.31c-.11.68.3,1.25.35,1.89a.55.55,0,0,0,0,.31V107a.17.17,0,0,0,.25.17.13.13,0,0,0,.12,0c.48-.08.54-1.06.54-1.47C36.87,105,36.64,104.46,36,104.36Z"/>
              <path class="cls-48" d="M57.43,99.3a1,1,0,0,0-.7.82,3.28,3.28,0,0,0-.32,1.13c-.6.46-.28,1.44.31,2.22a3.64,3.64,0,0,0,1.55,1.64c1.26.64,1.86-1.35,2-2.23S61,99.74,60,99.1C59.3,98.67,58.14,99.12,57.43,99.3Z"/>
              <path class="cls-48" d="M68.66,78c-.35.28-.2.73,0,1.07a2.14,2.14,0,0,0,.32.44.75.75,0,0,0,1,.4,1.06,1.06,0,0,0,.54-1.12c0-.39-.15-1-.53-1.13A1.46,1.46,0,0,0,68.66,78Z"/>
              <path class="cls-48" d="M60.89,43.38a.7.7,0,0,0-.43,0,.34.34,0,0,0-.18.24.49.49,0,0,0-.17.28.4.4,0,0,0-.12.42.32.32,0,0,0,0,.39.39.39,0,0,0,.26.51h0a.69.69,0,0,0,.51.15.28.28,0,0,0,.26-.3.35.35,0,0,0,.14-.43.32.32,0,0,0-.07-.38A.29.29,0,0,0,61,44,.37.37,0,0,0,60.89,43.38Z"/>
              <path class="cls-48" d="M69.46,71.55a2.07,2.07,0,0,0,0,.22l-.1,0a.32.32,0,0,0-.25.18.41.41,0,0,0-.28.44.42.42,0,0,0,0,.22.23.23,0,0,0-.06.16.33.33,0,0,0,.1.48,2.28,2.28,0,0,0,.41.21h0a.37.37,0,0,0,.21,0,.29.29,0,0,0,.31-.27l.08-.09a.39.39,0,0,0,.18-.55.31.31,0,0,0,0-.16.27.27,0,0,0,0-.15,3.43,3.43,0,0,1,.08-.56C70.25,71.17,69.56,71.1,69.46,71.55Z"/>
              <path class="cls-48" d="M85.69,36.29a.39.39,0,0,0-.09.46s0,0,0,0a.47.47,0,0,0-.08.14.61.61,0,0,0,0,.44l0,.12a.49.49,0,0,0,.12.42v0a.59.59,0,0,0,.19.4.31.31,0,0,0,.26.18h.11a.84.84,0,0,0,.32,0,.28.28,0,0,0,.22-.27l0,0c.35-.26.22-1.05.19-1.43a.66.66,0,0,0-.4-.63A.89.89,0,0,0,85.69,36.29Z"/>
              <path class="cls-48" d="M78.89,16.48A1.66,1.66,0,0,0,78,17.63a2.11,2.11,0,0,0,0,.83.87.87,0,0,0,.27.55.32.32,0,0,0-.11.4,1.49,1.49,0,0,0,.21.4.77.77,0,0,0,.49.44c1.06.3,1.31-1.39,1.29-2.1S79.81,16.14,78.89,16.48Z"/>
              <path class="cls-48" d="M83.71,16.31a1.88,1.88,0,0,0-.31,1,.27.27,0,0,0,.08.22,1.21,1.21,0,0,0,.28.81.37.37,0,0,0,.59,0c.47-.57.83-1.64.22-2.22C84.28,15.83,83.9,16,83.71,16.31Z"/>
              <path class="cls-48" d="M94.54,32.7c-.74.07-.56,1-.16,1.52a1.27,1.27,0,0,0,.52.51.38.38,0,0,0,.5-.22C95.59,33.83,95.43,32.62,94.54,32.7Z"/>
              <path class="cls-48" d="M111.14,47.8c-.53-.06-.73.58-.76,1a4.48,4.48,0,0,0,.16,1.36,2,2,0,0,0,.43,1.7c.89.89,1.75-.43,1.93-1.28a1.85,1.85,0,0,0-.63-1.65C112,48.63,111.61,47.85,111.14,47.8Z"/>
              <path class="cls-48" d="M104.31,75.18a2.51,2.51,0,0,0-.7,1.94,1.32,1.32,0,0,0,1.06,1.43c.17,0,.3-.1.38-.24a3.13,3.13,0,0,0-.23-3.15A.31.31,0,0,0,104.31,75.18Z"/>
              <path class="cls-48" d="M82,113.35c-.6.41-.14,1.27.25,1.77.28.66.81,1.25,1.54,1.06.92-.25.69-1.62.12-2.13C83.48,113.69,82.52,113,82,113.35Z"/>
            </g>
            <g class="cls-49">
              <path class="cls-50" d="M48,81.59a4.84,4.84,0,0,1-1.75,2.46l.91-.65c1.68-.58,1.31.9,2.33,1.38A2,2,0,0,0,48,81.59Z"/>
              <path class="cls-50" d="M106.05,88.6c1.87-4,0-5.93-.25-9.71C106,82.69,102.62,86.1,106.05,88.6Z"/>
              <path class="cls-50" d="M85.53,24.41Z"/>
              <path class="cls-50" d="M81.4,24.46h.89l-.13.05c-.25,0-.49,0-.74,0l0,0Z"/>
            </g>
            <g class="cls-51">
              <path class="cls-52" d="M101.68,98.25a2.26,2.26,0,0,1-1.21.7l.49-.09c.76.1.29.67.56,1.1A1,1,0,0,0,101.68,98.25Z"/>
              <path class="cls-52" d="M121.77,113.54c1.59-1.36,1.31-2.59,2.07-4.28C123.07,111,121,111.73,121.77,113.54Z"/>
              <path class="cls-52" d="M128.49,81.3Z"/>
              <path class="cls-52" d="M126.94,80.46h0l.33.19h-.06a1.87,1.87,0,0,0-.28-.16v0Z"/>
            </g>
            <g class="cls-53">
              <path class="cls-54" d="M77.55,31.21h0a.43.43,0,0,0-.24-.33h0a.59.59,0,1,0-.43,1.1.64.64,0,0,0,.54-.07A.51.51,0,0,0,77.55,31.21Z"/>
              <path class="cls-54" d="M74,55.09h0a.42.42,0,0,0-.23-.33l0,0a.6.6,0,1,0-.44,1.11.65.65,0,0,0,.55-.05A.56.56,0,0,0,74,55.09Z"/>
              <path class="cls-54" d="M56.11,83.17h0a.43.43,0,0,0-.24-.34h0a.59.59,0,1,0-.44,1.1.69.69,0,0,0,.55-.06A.53.53,0,0,0,56.11,83.17Z"/>
              <path class="cls-54" d="M40.13,62.17h0a.5.5,0,0,0-.24-.34h0a.6.6,0,1,0-.44,1.12.67.67,0,0,0,.54-.08A.52.52,0,0,0,40.13,62.17Z"/>
              <path class="cls-54" d="M67.46,107.21h0a.53.53,0,0,0-.25-.34h0a.6.6,0,1,0-.44,1.11.69.69,0,0,0,.55-.06A.53.53,0,0,0,67.46,107.21Z"/>
              <path class="cls-54" d="M39.2,115.3h0A.45.45,0,0,0,39,115h0a.6.6,0,1,0-.45,1.11A.65.65,0,0,0,39,116,.54.54,0,0,0,39.2,115.3Z"/>
              <path class="cls-54" d="M28.81,106.7v0a.47.47,0,0,0-.25-.32h0a.6.6,0,1,0-.44,1.11.67.67,0,0,0,.54-.06A.54.54,0,0,0,28.81,106.7Z"/>
              <path class="cls-54" d="M49.06,129.63h0a.44.44,0,0,0-.25-.34h0a.6.6,0,1,0-.43,1.11.74.74,0,0,0,.55-.07A.54.54,0,0,0,49.06,129.63Z"/>
              <path class="cls-54" d="M58.29,134.78h0a.48.48,0,0,0-.24-.34h0a.59.59,0,1,0-.44,1.1.65.65,0,0,0,.55-.07A.53.53,0,0,0,58.29,134.78Z"/>
              <path class="cls-54" d="M83.4,138.07h0a.42.42,0,0,0-.25-.33h0a.6.6,0,1,0-.43,1.11.74.74,0,0,0,.55-.07A.54.54,0,0,0,83.4,138.07Z"/>
              <path class="cls-54" d="M83.4,128.21h0a.42.42,0,0,0-.25-.33h0a.6.6,0,1,0-.43,1.12.75.75,0,0,0,.55-.08A.53.53,0,0,0,83.4,128.21Z"/>
              <path class="cls-54" d="M97.4,127.7h0a.47.47,0,0,0-.23-.35h0a.6.6,0,1,0-.43,1.12.7.7,0,0,0,.55-.07A.51.51,0,0,0,97.4,127.7Z"/>
              <path class="cls-54" d="M105.87,30.05h0a.53.53,0,0,0-.25-.34h0a.59.59,0,1,0-.43,1.1.64.64,0,0,0,.54-.06A.52.52,0,0,0,105.87,30.05Z"/>
              <path class="cls-54" d="M89.2,18.4h0a.45.45,0,0,0-.25-.33h0a.6.6,0,1,0-.45,1.11.74.74,0,0,0,.55-.06A.55.55,0,0,0,89.2,18.4Z"/>
              <path class="cls-54" d="M70.6,23.47h0a.43.43,0,0,0-.25-.33h0a.6.6,0,1,0-.44,1.11.7.7,0,0,0,.55-.07A.54.54,0,0,0,70.6,23.47Z"/>
              <path class="cls-54" d="M40.41,37.64h0a.42.42,0,0,0-.23-.34l0,0a.6.6,0,1,0-.44,1.11.65.65,0,0,0,.55-.06A.54.54,0,0,0,40.41,37.64Z"/>
              <path class="cls-54" d="M110.25,56.11h0a.48.48,0,0,0-.25-.33h0a.59.59,0,1,0-.42,1.11.72.72,0,0,0,.54-.06A.55.55,0,0,0,110.25,56.11Z"/>
            </g>
          </g>
          <g>
            <path class="cls-55" d="M105.58,58.4s13-26.65,49.62-14.39c38.73,13,65.16,44.25,65.16,74.64-2.3,27.72-42.51,38.11-66.94,35.71S114,136,104.3,108C100.48,96.78,95.4,81.06,105.58,58.4Z"/>
            <g>
              <path class="cls-56" d="M155.76,136.32c1.79.63,3,1.91,2.71,2.86s-2,1.18-3.81.54-3-1.92-2.72-2.87S154,135.68,155.76,136.32Z"/>
              <path class="cls-57" d="M127.22,65.66c-.52,1.65-1.58,2.75-2.36,2.48s-1-1.83-.48-3.47,1.58-2.75,2.37-2.48S127.75,64,127.22,65.66Z"/>
              <path class="cls-58" d="M110.22,65.31c.12,1.27-.26,2.33-.86,2.4s-1.2-.9-1.31-2.16.26-2.33.86-2.4S110.09,64.05,110.22,65.31Z"/>
              <path class="cls-59" d="M150.4,118.05c.29.64.28,1.27,0,1.42s-.78-.23-1.07-.87-.29-1.27,0-1.42S150.1,117.42,150.4,118.05Z"/>
              <path class="cls-60" d="M143.05,106.29c-.13.7-.51,1.19-.85,1.12s-.48-.69-.34-1.39.52-1.18.86-1.11S143.2,105.61,143.05,106.29Z"/>
              <path class="cls-61" d="M130.1,121.11c.32.61.37,1.24.07,1.41s-.8-.17-1.13-.78-.37-1.25-.08-1.43S129.76,120.49,130.1,121.11Z"/>
              <path class="cls-62" d="M170.55,97.71c.93,1,1.25,2.25.69,2.83s-1.75.26-2.7-.72-1.24-2.25-.69-2.84S169.61,96.74,170.55,97.71Z"/>
              <path class="cls-63" d="M188.21,127.85c-.17,1.38-.93,2.4-1.7,2.3s-1.27-1.3-1.11-2.69.94-2.4,1.71-2.31S188.38,126.46,188.21,127.85Z"/>
              <path class="cls-64" d="M191,96.83c.42.58.5,1.27.17,1.52s-.93,0-1.36-.58-.48-1.27-.16-1.52S190.57,96.25,191,96.83Z"/>
              <path class="cls-65" d="M205.85,121.69c.08.72-.18,1.35-.6,1.4s-.8-.5-.86-1.24.18-1.34.6-1.39S205.79,121,205.85,121.69Z"/>
              <path class="cls-66" d="M189.62,127.42c-.19,2.91-1.67,5.17-3.3,5s-2.82-2.57-2.63-5.48,1.68-5.16,3.31-5S189.82,124.51,189.62,127.42Z"/>
              <g class="cls-67">
                <path class="cls-68" d="M189.62,127.42c-.19,2.91-1.67,5.17-3.3,5s-2.82-2.57-2.63-5.48,1.68-5.16,3.31-5S189.82,124.51,189.62,127.42Z"/>
              </g>
              <path class="cls-66" d="M171.69,96.6c2,2,2.79,4.6,1.67,5.87s-3.67.68-5.72-1.3-2.78-4.6-1.66-5.87S169.65,94.62,171.69,96.6Z"/>
              <g class="cls-69">
                <path class="cls-68" d="M171.69,96.6c2,2,2.79,4.6,1.67,5.87s-3.67.68-5.72-1.3-2.78-4.6-1.66-5.87S169.65,94.62,171.69,96.6Z"/>
              </g>
              <path class="cls-66" d="M151.66,117c1.08,1.93,1.08,4,0,4.72s-2.85-.36-3.95-2.31-1.06-4.05,0-4.72S150.58,115.07,151.66,117Z"/>
              <g class="cls-70">
                <path class="cls-68" d="M151.66,117c1.08,1.93,1.08,4,0,4.72s-2.85-.36-3.95-2.31-1.06-4.05,0-4.72S150.58,115.07,151.66,117Z"/>
              </g>
              <path class="cls-66" d="M130.77,120.64c.75,1.33.75,2.79,0,3.24s-2-.24-2.72-1.58-.72-2.79,0-3.25S130,119.31,130.77,120.64Z"/>
              <g class="cls-71">
                <path class="cls-68" d="M130.77,120.64c.75,1.33.75,2.79,0,3.24s-2-.24-2.72-1.58-.72-2.79,0-3.25S130,119.31,130.77,120.64Z"/>
              </g>
              <path class="cls-72" d="M123.87,127.24c.5.48.71,1.08.49,1.33s-.82.08-1.31-.4-.71-1.07-.48-1.33S123.38,126.76,123.87,127.24Z"/>
              <path class="cls-66" d="M124.39,126.58c1.08,1,1.5,2.43.91,3.1s-1.94.38-3-.66-1.5-2.43-.92-3.1S123.3,125.55,124.39,126.58Z"/>
              <g class="cls-73">
                <path class="cls-68" d="M124.39,126.58c1.08,1,1.5,2.43.91,3.1s-1.94.38-3-.66-1.5-2.43-.92-3.1S123.3,125.55,124.39,126.58Z"/>
              </g>
              <path class="cls-66" d="M144.28,106.84c-.6,1.75-1.9,2.86-2.89,2.49s-1.28-2.1-.68-3.86,1.91-2.86,2.89-2.48S144.89,105.08,144.28,106.84Z"/>
              <g class="cls-74">
                <path class="cls-68" d="M144.28,106.84c-.6,1.75-1.9,2.86-2.89,2.49s-1.28-2.1-.68-3.86,1.91-2.86,2.89-2.48S144.89,105.08,144.28,106.84Z"/>
              </g>
              <path class="cls-66" d="M192.06,96.07c1.14,1.68,1.31,3.61.36,4.33s-2.63-.08-3.79-1.76-1.3-3.62-.36-4.32S190.91,94.38,192.06,96.07Z"/>
              <g class="cls-75">
                <path class="cls-76" d="M192.06,96.07c1.14,1.68,1.31,3.61.36,4.33s-2.63-.08-3.79-1.76-1.3-3.62-.36-4.32S190.91,94.38,192.06,96.07Z"/>
              </g>
              <path class="cls-66" d="M207.27,121.56c.34,2.16-.36,4.08-1.57,4.28s-2.48-1.35-2.84-3.51.37-4.07,1.59-4.29S206.93,119.41,207.27,121.56Z"/>
              <g class="cls-77">
                <path class="cls-68" d="M207.27,121.56c.34,2.16-.36,4.08-1.57,4.28s-2.48-1.35-2.84-3.51.37-4.07,1.59-4.29S206.93,119.41,207.27,121.56Z"/>
              </g>
              <path class="cls-66" d="M128.6,66c-.92,3-3,5-4.72,4.41S121.55,67,122.47,64s3-5,4.71-4.41S129.51,63,128.6,66Z"/>
              <g class="cls-78">
                <path class="cls-68" d="M128.6,66c-.92,3-3,5-4.72,4.41S121.55,67,122.47,64s3-5,4.71-4.41S129.51,63,128.6,66Z"/>
              </g>
              <path class="cls-66" d="M155.94,134.75c2.89.92,4.81,3.1,4.29,4.89s-3.26,2.47-6.15,1.56-4.79-3.1-4.28-4.88S153.07,133.84,155.94,134.75Z"/>
              <g class="cls-79">
                <path class="cls-68" d="M155.94,134.75c2.89.92,4.81,3.1,4.29,4.89s-3.26,2.47-6.15,1.56-4.79-3.1-4.28-4.88S153.07,133.84,155.94,134.75Z"/>
              </g>
            </g>
            <g class="cls-47">
              <path class="cls-48" d="M195.49,141.57a.75.75,0,0,0,.5.86,1.86,1.86,0,0,0,1.21-.11.86.86,0,0,0,.32,0c.49,0,.91-.31.69-.87-.29-.71-1.45-.62-2-.46A.93.93,0,0,0,195.49,141.57Z"/>
              <path class="cls-48" d="M176.33,136.67a.37.37,0,0,0,0,.48,2.38,2.38,0,0,0,1.42.41.92.92,0,0,0,.62-.13.36.36,0,0,0,0-.55c-.11-.36-.64-.46-.93-.51A1.17,1.17,0,0,0,176.33,136.67Z"/>
              <path class="cls-48" d="M171.29,139.37a.38.38,0,0,0,.16.47c.54.34,1.21.14,1.79.32a.82.82,0,0,0,.28.11l.07,0c.13.08.25-.05.24-.19a.21.21,0,0,0,0-.1c.09-.52-.77-.92-1.13-1.05A1,1,0,0,0,171.29,139.37Z"/>
              <path class="cls-48" d="M174.19,116.57a1,1,0,0,0,.48,1,3,3,0,0,0,.91.71c.21.75,1.2.79,2.09.47a3.54,3.54,0,0,0,2-.95c1-1-.57-2.29-1.29-2.78s-2.56-1.79-3.51-1C174.26,114.51,174.27,115.81,174.19,116.57Z"/>
              <path class="cls-48" d="M159,98.14c.13.45.58.46.95.39a2.77,2.77,0,0,0,.51-.17.76.76,0,0,0,.69-.82,1,1,0,0,0-.81-.92,1.16,1.16,0,0,0-1.19.14A1.55,1.55,0,0,0,159,98.14Z"/>
              <path class="cls-48" d="M125.32,93.77a.68.68,0,0,0-.14.41.32.32,0,0,0,.16.27.5.5,0,0,0,.18.27.39.39,0,0,0,.33.27.3.3,0,0,0,.36.14.36.36,0,0,0,.54-.08h0a.77.77,0,0,0,.32-.45.29.29,0,0,0-.18-.35.34.34,0,0,0-.35-.3.29.29,0,0,0-.35-.06.32.32,0,0,0-.33,0A.31.31,0,0,0,125.32,93.77Z"/>
              <path class="cls-48" d="M153.51,95.13l.18.1a.21.21,0,0,0,0,.11.3.3,0,0,0,.07.31.39.39,0,0,0,.29.41.23.23,0,0,0,.18.09.8.8,0,0,0,.13.13.31.31,0,0,0,.48.06,2.48,2.48,0,0,0,.32-.33h0a.3.3,0,0,0,.07-.21.32.32,0,0,0-.15-.4.21.21,0,0,0,0-.1c0-.22-.23-.44-.44-.37a.29.29,0,0,0-.13-.08.31.31,0,0,0-.11-.09,2.82,2.82,0,0,1-.48-.27C153.44,94.22,153.14,94.86,153.51,95.13Z"/>
              <path class="cls-48" d="M127.57,66.94a.38.38,0,0,0,.37.26l0,0a.26.26,0,0,0,.1.13.62.62,0,0,0,.39.17.22.22,0,0,0,.09.07.4.4,0,0,0,.42,0l0,0a.45.45,0,0,0,.41,0,.29.29,0,0,0,.26-.2s0-.07,0-.1a.89.89,0,0,0,.1-.33.33.33,0,0,0-.16-.31.08.08,0,0,1,0,0c-.12-.43-.87-.58-1.21-.69a.6.6,0,0,0-.7.18A.94.94,0,0,0,127.57,66.94Z"/>
              <path class="cls-48" d="M107.47,66.74a1.72,1.72,0,0,0,.69,1.33,2.13,2.13,0,0,0,.75.31.91.91,0,0,0,.6-.08c0,.13.1.24.31.24a1.4,1.4,0,0,0,.43-.06.73.73,0,0,0,.55-.34c.65-.92-.78-1.76-1.43-2S107.48,65.73,107.47,66.74Z"/>
              <path class="cls-48" d="M109,62a2,2,0,0,0,.8.66.27.27,0,0,0,.23,0,1.06,1.06,0,0,0,.82,0A.42.42,0,0,0,111,62c-.35-.65-1.18-1.38-1.92-1A.63.63,0,0,0,109,62Z"/>
              <path class="cls-48" d="M127.43,57c-.19.74.74.91,1.31.68a1.14,1.14,0,0,0,.63-.33.42.42,0,0,0,0-.56C128.79,56.37,127.66,56.09,127.43,57Z"/>
              <path class="cls-48" d="M146.72,45.93c-.25.51.24.93.64,1.11a3.81,3.81,0,0,0,1.28.31,1.81,1.81,0,0,0,1.67.18c1.1-.56.22-1.87-.47-2.35a1.71,1.71,0,0,0-1.71,0C147.75,45.4,146.92,45.5,146.72,45.93Z"/>
              <path class="cls-48" d="M168.85,62.16c.29.55.85,1.27,1.5,1.34A1.21,1.21,0,0,0,172,63a.38.38,0,0,0-.08-.46,2.79,2.79,0,0,0-2.9-.87C168.79,61.69,168.75,62,168.85,62.16Z"/>
              <path class="cls-48" d="M195.29,97.34c.15.72,1.08.57,1.67.36.69,0,1.41-.36,1.47-1.15.1-1-1.21-1.23-1.86-.86C196.11,96,195.13,96.66,195.29,97.34Z"/>
            </g>
            <g class="cls-53">
              <path class="cls-54" d="M132.44,70.88h0a.39.39,0,0,0-.39,0s0,0,0,0c-.7.48,0,1.53.62,1a.7.7,0,0,0,.25-.51A.5.5,0,0,0,132.44,70.88Z"/>
              <path class="cls-54" d="M149.25,87.45h0a.44.44,0,0,0-.4,0l0,0c-.7.47,0,1.52.63,1a.75.75,0,0,0,.26-.51A.55.55,0,0,0,149.25,87.45Z"/>
              <path class="cls-54" d="M149,101.55h0a.44.44,0,0,0-.4,0l0,0c-.69.47,0,1.53.63,1a.77.77,0,0,0,.26-.51A.51.51,0,0,0,149,101.55Z"/>
              <path class="cls-54" d="M135.71,120.72h0a.44.44,0,0,0-.4,0l0,0c-.68.47,0,1.53.63,1a.88.88,0,0,0,.27-.53A.51.51,0,0,0,135.71,120.72Z"/>
              <path class="cls-54" d="M174.37,105.3h0a.47.47,0,0,0-.4,0,0,0,0,0,0,0,0c-.7.46-.05,1.51.63,1a.67.67,0,0,0,.24-.51A.51.51,0,0,0,174.37,105.3Z"/>
              <path class="cls-54" d="M164.8,134.31h0a.41.41,0,0,0-.4,0,.07.07,0,0,0,0,0c-.7.46,0,1.52.63,1a.69.69,0,0,0,.26-.51A.52.52,0,0,0,164.8,134.31Z"/>
              <path class="cls-54" d="M152.15,138.43h0a.42.42,0,0,0-.39,0l0,0c-.68.48,0,1.54.63,1a.69.69,0,0,0,.26-.51A.52.52,0,0,0,152.15,138.43Z"/>
              <path class="cls-54" d="M181.65,133.87h0a.44.44,0,0,0-.4,0l0,0c-.69.48,0,1.53.63,1a.71.71,0,0,0,.26-.5A.53.53,0,0,0,181.65,133.87Z"/>
              <path class="cls-54" d="M190.93,128.81h0a.44.44,0,0,0-.4,0l0,0c-.69.48,0,1.54.63,1a.83.83,0,0,0,.27-.51A.53.53,0,0,0,190.93,128.81Z"/>
              <path class="cls-54" d="M207.69,109h0a.47.47,0,0,0-.4,0l0,0c-.69.48,0,1.53.63,1a.72.72,0,0,0,.25-.52A.49.49,0,0,0,207.69,109Z"/>
              <path class="cls-54" d="M199.93,103.37h0a.49.49,0,0,0-.39,0l0,0c-.69.47,0,1.53.63,1a.78.78,0,0,0,.27-.51A.54.54,0,0,0,199.93,103.37Z"/>
              <path class="cls-54" d="M207.44,91h0a.38.38,0,0,0-.4,0s0,0,0,0c-.7.47-.05,1.53.63,1a.73.73,0,0,0,.24-.51A.52.52,0,0,0,207.44,91Z"/>
              <path class="cls-54" d="M147.52,45.75h0a.44.44,0,0,0-.4,0l0,0c-.7.47,0,1.53.62,1a.78.78,0,0,0,.27-.52A.52.52,0,0,0,147.52,45.75Z"/>
              <path class="cls-54" d="M128.93,53.59h0a.41.41,0,0,0-.4,0s0,0,0,0c-.69.47,0,1.53.63,1a.78.78,0,0,0,.25-.51A.5.5,0,0,0,128.93,53.59Z"/>
              <path class="cls-54" d="M122.42,72.53h0a.44.44,0,0,0-.4,0l0,0c-.68.47,0,1.53.63,1a.83.83,0,0,0,.27-.52A.52.52,0,0,0,122.42,72.53Z"/>
              <path class="cls-54" d="M116.54,106.63h0a.41.41,0,0,0-.4,0l0,0c-.7.47,0,1.52.63,1a.72.72,0,0,0,.25-.51A.5.5,0,0,0,116.54,106.63Z"/>
              <path class="cls-54" d="M170.52,56.67h0a.44.44,0,0,0-.4,0,.07.07,0,0,0,0,0c-.69.48,0,1.52.64,1a.91.91,0,0,0,.25-.52A.53.53,0,0,0,170.52,56.67Z"/>
            </g>
            <g class="cls-51">
              <g class="cls-80">
                <path class="cls-81" d="M156.48,148.63c-24-.4-41.62-24.4-41.23-36.79.59-19.18-2.28-19.2-11.07-34.77a23.23,23.23,0,0,1-2.54-7.72c-4.54,16.92-.51,29.33,2.66,38.64,9.67,28,24.69,44,49.12,46.37,16.28,1.6,39.54-2.48,53.94-13.58C190.59,149,174.75,148.93,156.48,148.63Z"/>
              </g>
            </g>
          </g>
        </g>
      </g>
    </g>
  </g>
</svg>
