<svg id="Layer_1" data-name="Layer 1" xmlns="http://www.w3.org/2000/svg" xmlns:xlink="http://www.w3.org/1999/xlink" width="320.09" height="318.36" viewBox="0 0 320.09 318.36">
  <defs>
    <style>
      .cls-1 {
        fill: none;
      }

      .cls-2 {
        fill: #ff0;
      }

      .cls-3 {
        clip-path: url(#clip-path);
      }

      .cls-4 {
        fill: url(#linear-gradient);
      }

      .cls-5 {
        fill: url(#linear-gradient-2);
      }

      .cls-6 {
        fill: #fff;
      }

      .cls-7, .cls-8 {
        fill: #e2f3f7;
      }

      .cls-8 {
        opacity: 0.56;
      }

      .cls-9 {
        fill: url(#linear-gradient-3);
      }

      .cls-10 {
        fill: url(#linear-gradient-4);
      }

      .cls-11 {
        fill: url(#linear-gradient-5);
      }

      .cls-12 {
        fill: url(#linear-gradient-6);
      }
    </style>
    <clipPath id="clip-path">
      <rect class="cls-1" x="18.42" y="17.55" width="283.26" height="283.26"/>
    </clipPath>
    <linearGradient id="linear-gradient" x1="160.92" y1="327.19" x2="164.62" y2="-25.83" gradientUnits="userSpaceOnUse">
      <stop offset="0" stop-color="#ceebf6"/>
      <stop offset="0.09" stop-color="#b8dff1"/>
      <stop offset="0.27" stop-color="#8bc6e7"/>
      <stop offset="0.46" stop-color="#68b3df"/>
      <stop offset="0.63" stop-color="#4fa5da"/>
      <stop offset="0.78" stop-color="#409dd6"/>
      <stop offset="0.91" stop-color="#3b9ad5"/>
    </linearGradient>
    <linearGradient id="linear-gradient-2" x1="152.68" y1="300.82" x2="152.91" y2="278.68" gradientUnits="userSpaceOnUse">
      <stop offset="0" stop-color="#9ebe5a"/>
      <stop offset="0.22" stop-color="#b8cf76"/>
      <stop offset="0.48" stop-color="#cfde8f"/>
      <stop offset="0.72" stop-color="#dde79e"/>
      <stop offset="0.91" stop-color="#e2eaa3"/>
    </linearGradient>
    <linearGradient id="linear-gradient-3" x1="269.17" y1="88.67" x2="267.31" y2="-5.11" gradientUnits="userSpaceOnUse">
      <stop offset="0" stop-color="#cde4ee"/>
      <stop offset="0.32" stop-color="#e5f1f6"/>
      <stop offset="0.56" stop-color="#f3f8fb"/>
      <stop offset="0.7" stop-color="#fafcfd"/>
      <stop offset="0.91" stop-color="#fff"/>
    </linearGradient>
    <linearGradient id="linear-gradient-4" x1="182.55" y1="149.02" x2="178.47" y2="48.45" gradientUnits="userSpaceOnUse">
      <stop offset="0.23" stop-color="#cde4ee"/>
      <stop offset="0.26" stop-color="#d2e7f0"/>
      <stop offset="0.51" stop-color="#ebf4f8"/>
      <stop offset="0.73" stop-color="#fafcfd"/>
      <stop offset="0.91" stop-color="#fff"/>
    </linearGradient>
    <linearGradient id="linear-gradient-5" x1="225.14" y1="224.77" x2="225.34" y2="205.57" gradientUnits="userSpaceOnUse">
      <stop offset="0" stop-color="#cde4ee"/>
      <stop offset="0.05" stop-color="#d2e7f0"/>
      <stop offset="0.38" stop-color="#ebf4f8"/>
      <stop offset="0.67" stop-color="#fafcfd"/>
      <stop offset="0.91" stop-color="#fff"/>
    </linearGradient>
    <linearGradient id="linear-gradient-6" x1="161.61" y1="303.69" x2="161.93" y2="273.37" gradientUnits="userSpaceOnUse">
      <stop offset="0" stop-color="#9ebe5a"/>
      <stop offset="0.31" stop-color="#b3cd67"/>
      <stop offset="0.64" stop-color="#c2d870"/>
      <stop offset="0.91" stop-color="#c7dc73"/>
    </linearGradient>
  </defs>
  <g>
    <path class="cls-2" d="M14,313.66a8.13,8.13,0,0,1-8-8.26V13a8.12,8.12,0,0,1,8-8.25H306.11a8.12,8.12,0,0,1,8,8.25V305.4a8.13,8.13,0,0,1-8,8.26Z"/>
    <g class="cls-3">
      <g>
        <rect class="cls-4" x="16.61" y="17.53" width="292.13" height="283.31"/>
        <g>
          <path class="cls-5" d="M29.55,295.75c.14.69.27,1.38.4,2.08l249,2.24c-66.6-18.46-113.69-20.18-145.16-18-9.23.66-31.14,2.61-69.83,5.33-13.88,1-26.48,1.81-37.48,2.51A12.48,12.48,0,0,1,29.55,295.75Z"/>
          <path class="cls-6" d="M303.33,116c-.43-.35-7.75-6.14-15.4-3.16a13.69,13.69,0,0,0-5.78,4.4,10.23,10.23,0,0,0-10.6-5c-4.19.76-7.47,4.16-8,7.42-.3,2,.51,3.31-.22,3.86-1.2.91-3.71-2.58-7.74-3.33-4.46-.83-10.7,1.71-12.72,6.9a11.7,11.7,0,0,0,.53,9,6.82,6.82,0,0,0-11.14,7.25,8.1,8.1,0,0,0-9.18-2.63c-3.79,1.61-5.79,6.78-3.55,11.3a22.7,22.7,0,0,0-15.91-2c-1.74.47-7,1.89-10.26,6.72-.85,1.28-2.77,4.18-2.12,7.78a9.17,9.17,0,0,0,1.77,3.89c-13.54,1.31-28.14,2.81-28.1,3.24,0,.22,3.7.06,8.48-.06,7.34-.19,15.66-2.31,31.82,0,11.14,1.59,18-.67,29.17.46,1.41,3.22,7.27,5.52,15.45,5.88,9.47.42,15.61-2,29.41-5.75a210.19,210.19,0,0,1,24.05-5Z"/>
          <path class="cls-6" d="M20.07,89s20.45-8.48,24,13.79c12.1-4.24,17.4,8.49,14.22,15.91,2.13-2.5,5.28-3.44,7.42-2.47,2.86,1.29,4.42,6.23,1.59,10.43,2-3.84,5.65-5,7.25-4.07s2.14,4.41.18,7.78c.57-.36,4.84-3,9.63-1.29a11.61,11.61,0,0,1,7.34,11.37,102.15,102.15,0,0,1,31.82,6.36s-16.44,1.59-27,3.18-8.56,4.25-24.7,4.25c-16.67.53-6.38-4.78-27.7,0-3.29,4.18-24,2.13-24,2.13Z"/>
          <path class="cls-7" d="M181,172.16a62,62,0,0,0,17.69-4.34,25.61,25.61,0,0,1,8.48-2.48,22.81,22.81,0,0,1,10.26,1.6c-.22-.75-1.6-5.69,1.06-9,3.07-3.86,10.72-4.53,17,.47-.15-.73-1.27-6.44,2.12-10,3.77-4,12-4.07,18,1.59-1.8-3.7-2-7.93,0-10.78,3-4.32,11.12-5.48,17.51-.35-.16-.53-2.09-7.52,1.94-12s13.15-5.06,19.8.89c6.9-5.31,8.45-2.14,8.45-2.14v41.71s-18.19,2.49-33.21,8.24a51.14,51.14,0,0,1-12.72,2.57,54,54,0,0,1-27.22-5.3Z"/>
          <path class="cls-7" d="M20.07,107.11s13.87.44,15.46,14.75c.25-.25,4.41-4.19,10.08-2.83,3.86.92,7.09,4,7.78,7.42.85,4.25-2.47,7.81-1.42,8.66s3-1.87,7.07-2.65c.86-.16,7-1.24,9.55,2.48,1.72,2.52,1.24,6.5-1.24,9.72A22.53,22.53,0,0,1,79.86,143c2.13.31,4.43,1.35,7.65,3.76,10.07-2.12,36.06,0,36.06,0a100.48,100.48,0,0,0-21.39,2.65c-8.06,1.92-9.7,3.42-17.68,4.6a65.5,65.5,0,0,1-18.17.33A60.86,60.86,0,0,1,55.69,152c-8.16,2.07-21.38,8.1-35.62,4.38Z"/>
          <path class="cls-8" d="M102.07,194.44s2.3-1.28,7.93,0a4.33,4.33,0,0,1,2.56-4.47,4.09,4.09,0,0,1,4.33,1.15,3.05,3.05,0,0,1-.79-2.19c.21-1.8,2.75-3.24,4.77-2.61a4.1,4.1,0,0,1,2.41,2.5c2.81-4.86,6.65-4.09,8.43.51a2.81,2.81,0,0,1,2.45-.85,2.7,2.7,0,0,1,1.77,1.47,3.38,3.38,0,0,1,.13,2.7,4.31,4.31,0,0,1,2.44-1.78c1.45-.37,3.58,0,4.29,1.58a3.54,3.54,0,0,1-.34,3c5.62-2.81,6.13-.51,6.38,2a9.41,9.41,0,0,1,10.48,3.84s-2.1-2.05-7.95,0c0,0-1,2.55-4.57,0,0,0-4,1.79-5.82-.14-1.59-.69-3.52-.23-6.81.79-3.53.57-7.16-1.93-8.64-3.07s-3.17-1-5.33.35-2.16-.57-3.64-1.82c0,0-1,.91-3.4.11-1.51-.5-2.34-1.28-3.83-1.81a20,20,0,0,0-3.55-.57C104.17,194.92,102.89,194.64,102.07,194.44Z"/>
          <g>
            <path class="cls-6" d="M105.6,225.59a60.89,60.89,0,0,0-11.08-2.34c-3.77-2.83-6.84-6.13-13.91-5.42a9.65,9.65,0,0,0-7.48-3,9.3,9.3,0,0,0-5.72,2.64,8,8,0,0,0-2.77-5.21,7.78,7.78,0,0,0-7.6-1.18c-2.06.85-3,2.56-3.48,2.27s1.45-2.87.77-5.43c-.77-2.93-4.59-4.22-4.95-4.24-5.74-.28-8.47,1.32-9.9,2.83-2.27,2.39-1.66,4.92-3.89,5.91-2.74,1.21-5.2-2.08-8.88-.79a8.72,8.72,0,0,0-3.61,2.67,10.27,10.27,0,0,1-3,2.06,3.93,3.93,0,0,1,0,1v1.17c0,.41,0,.67,0,1.07.7.16,1.42,0,1.85.15a8,8,0,0,0,3.11.65c2.82-.05,4.16-1.92,6.32.06,2.83,2.59,1.41,5.66,6.6,3.54s7.3-3.07,11.78-.71c7.21,7.95,23.1,3.77,29.94,3.77,4.24,3.77,8.25,2.12,13.67-.94a25.94,25.94,0,0,0,21.81,3.4A60.92,60.92,0,0,0,105.6,225.59Z"/>
            <path class="cls-7" d="M94.52,226.18c-3.77-2.83-6.84-6.13-13.91-5.42-5.18-4-9-4.72-13.2,1.65-2.52-3.7-5.91-7.4-9.54-7.07-3.35.3-5.8,3.91-6.81,3.2s2.06-4.92.44-7.52c-1.37-2.2-6-3-8.71-1.34s-3,4.81-5.94,5.66a2.54,2.54,0,0,1-1.26,0c-5-1.18-8.72-2.6-12.49,1.88A4.59,4.59,0,0,1,20,218.68c0,1.09.05,1.36.05,2.2,0,.2,0,.7,0,.9a20.31,20.31,0,0,0,1.85.86c5.18,2.13,6.6-1.88,9.43.71s1.41,5.66,6.6,3.54,7.3-3.07,11.78-.71c7.21,7.95,23.1,3.77,29.94,3.77,4.24,3.77,7.58-2.21,13.67-.94,16.56,3.46,21.81.47,21.81.47S100.41,227.36,94.52,226.18Z"/>
          </g>
          <g>
            <path class="cls-6" d="M53.66,49.49a8.72,8.72,0,0,1,3.61-2.67c3.68-1.29,6.14,2,8.88.79,2.23-1,1.62-3.52,3.89-5.91,1.43-1.51,4.16-3.11,9.9-2.83A5.58,5.58,0,0,1,82.65,49L87,45.94a8.77,8.77,0,0,1,4.6,0c4.65,1.32,6.23,6.26,6.36,6.72A9.34,9.34,0,0,1,103.69,50a9.65,9.65,0,0,1,7.48,3c7.08-.71,10.14,2.59,13.91,5.42a60.72,60.72,0,0,1,11.08,2.34,61.49,61.49,0,0,1,9.55,3.89,25.94,25.94,0,0,1-21.81-3.4c-5.42,3.06-9.43,4.71-13.67.94-6.83,0-22.73,4.18-29.93-3.77-4.48-2.36-6.61-1.41-11.79.71s-3.77-.94-6.6-3.54c-2.16-2-3.5-.11-6.32-.06a8.22,8.22,0,0,1-3.11-.64c-2-.73-6.76-1.57-17.68-2.26C46.43,54,51.37,51.9,53.66,49.49Z"/>
            <path class="cls-7" d="M53.66,52.42c3.77-4.48,7.54-3.06,12.49-1.88,3.19.76,3.13-3.8,7.2-5.66a12.39,12.39,0,0,1,5.53-1.06c1.7,1.21,3.41,2.92,3.77,5.2.46,2.87-1.42,5.29-.84,5.7.74.53,3.24-3.74,6.62-4.18S95.19,53.6,98,57.61c4.25-6.36,8-5.66,13.2-1.65,7.08-.71,10.14,2.59,13.91,5.42,5.89,1.18,18.55,2.83,18.55,2.83s-12.18,2.12-19.73,0c-5.42,3.06-9.43,4.71-13.67.94-6.83,0-22.73,4.18-29.93-3.77C75.82,59,73.69,60,68.51,62.09s-3.77-.94-6.6-3.54-4.24,1.42-9.43-.7S41.64,50.54,34.8,52.66C37.39,49.83,49.89,56.9,53.66,52.42Z"/>
          </g>
          <path class="cls-9" d="M294.53,52s-20.27-6.21-23.81,7.86c0,0-4-4.32-8.25,3.69-9.9-3.53-8.76,3.3-11.1,5.66A99.73,99.73,0,0,0,234,72.94a71.84,71.84,0,0,1,16,0c9.9,1,9.66-3.63,16.5-1.82s26.87,8.19,32.29,4.18,4.56-1.41,4.56-1.41V50.6Z"/>
          <path class="cls-10" d="M130.69,115.61s2.59-.71,9.19,0-.23-4.25,5.43-5.9a20.53,20.53,0,0,1,10.84,0,11,11,0,0,1,3.54-5.18,12.54,12.54,0,0,1,6.24-2.37c4.61-.79,5.94,1.09,7.9-.11,2.51-1.53,1-4.84,3.53-7.78,3.08-3.6,9.1-3,10.25-2.87,8.59,1.06,12.52,10.13,12.74,10.65A8.31,8.31,0,0,1,216,103.11c10.85.48,15.32,3.88,15.32,3.88a21.3,21.3,0,0,1-4.12.75,21.83,21.83,0,0,1-7.66-.75c-2.59.06-6.41.17-11.06.46-4.34.27-8.88.57-8.89,1,0,.79,12.45,1.42,12.43,2.19,0,.32-2.13.5-2.62.53-10.1.81-27.09.24-27.11.39s13.42,1.08,13.48,2.8c0,.35-.52.74-2.16,1.28-4.87,1.58-9.08,1-14.85.16-7.06-1-10.65-1.47-14.06-.85a25.8,25.8,0,0,0-5.27,1.56c-1.58.18-3.2.32-4.87.43A101.09,101.09,0,0,1,130.69,115.61Z"/>
          <path class="cls-11" d="M171.17,219.8a9,9,0,0,0,5.54,2.18c4.4.11,7.13-3.92,10.33-6.43,3.41-2.66,9.24-5.15,19.8-3.89a25.9,25.9,0,0,1,19.8-2.53c12.73-4.89,9.19-4,20.51-.89,12.73-4.71,32.13,5.6,32.13,5.6-10.67-4.15-18.53-4-23.89-3-3.79.71-6.58,1.9-13.88,3s-12.12,1-12.14,1.62c-.05,1.18,19.22,2.31,19.19,4,0,.93-6,1.72-8.27,2A58.46,58.46,0,0,1,234,222c-16.5-.06-37,5.72-46.2,0C180.68,225.45,171.17,219.8,171.17,219.8Z"/>
          <path class="cls-12" d="M20.07,286.13s36.15-5.16,70.8,8.62c38.89,9.2,103.24-4.83,134.35-9.48s56.5-10.32,78.11-4.66l.05,19.46H20.07Z"/>
        </g>
      </g>
    </g>
  </g>
</svg>
