<svg id="Layer_1" data-name="Layer 1" xmlns="http://www.w3.org/2000/svg" width="367.66" height="300.6" viewBox="0 0 367.66 300.6">
  <defs>
    <style>
      .cls-1 {
        fill: #ff0;
      }

      .cls-2 {
        fill: #ff8d55;
      }

      .cls-2, .cls-3, .cls-6 {
        stroke: #c94f18;
        stroke-width: 0.5px;
      }

      .cls-2, .cls-3, .cls-4, .cls-6 {
        stroke-miterlimit: 10;
      }

      .cls-3 {
        fill: #e97144;
      }

      .cls-4 {
        fill: #cc4f31;
        stroke: #933c19;
        stroke-width: 0.25px;
      }

      .cls-5 {
        fill: #4f4f4f;
      }

      .cls-6 {
        fill: #db7649;
      }
    </style>
  </defs>
  <g>
    <path class="cls-1" d="M82.58,291.62a8,8,0,0,1-4-1.07l-64.8-37.41a8,8,0,0,1-4-6.93l.05-55.54a8,8,0,0,1,3-5.34l.08-.06a7.22,7.22,0,0,1,.91-.61L85,143.53V94.92A8,8,0,0,1,89,88L224,10.05a7.95,7.95,0,0,1,8,0l64.8,37.41a8,8,0,0,1,4,6.93V109a8,8,0,0,1-2.64,5.94l55.92,32.28a8.06,8.06,0,0,1,3.13,3.64l.1.24a7.85,7.85,0,0,1,.55,2.72v54.83a8,8,0,0,1-4,6.92L289.08,253a8,8,0,0,1-8,0l-64.73-37.38L86.58,290.55A8,8,0,0,1,82.58,291.62Z"/>
    <g>
      <g>
        <polygon class="cls-2" points="214.88 76.09 150.08 113.5 285.08 191.45 349.88 154.03 214.88 76.09"/>
        <polygon class="cls-3" points="150.08 113.5 150.08 168.13 285.08 246.07 285.08 191.45 150.08 113.5"/>
        <polygon class="cls-4" points="349.88 154.03 349.88 208.66 285.08 246.07 285.08 191.45 349.88 154.03"/>
        <path class="cls-5" d="M285.14,190.76c94.26-54.71,77.36-43.13.5,1-.23,66.47-.84,77-1.12.07C106.12,87.89,104.2,87.26,285.14,190.76Z"/>
        <polygon class="cls-2" points="331.9 153.11 213.09 84.53 164.49 112.58 283.3 181.17 331.9 153.11"/>
        <polygon class="cls-6" points="164.49 112.58 172.05 116.95 213.09 93.26 324.34 157.47 331.9 153.11 213.09 84.53 164.49 112.58"/>
      </g>
      <g>
        <polygon class="cls-2" points="152.78 113.64 217.58 151.06 82.58 229 17.78 191.59 152.78 113.64"/>
        <polygon class="cls-3" points="217.58 151.06 217.58 205.68 82.58 283.62 82.58 229 217.58 151.06"/>
        <polygon class="cls-4" points="17.78 191.59 17.78 246.21 82.58 283.62 82.58 229 17.78 191.59"/>
        <path class="cls-5" d="M82.52,228.32c-94.26-54.71-77.36-43.13-.5,1,.23,66.47.84,77,1.12.06C261.54,125.44,263.45,124.81,82.52,228.32Z"/>
        <polygon class="cls-2" points="35.76 190.66 154.57 122.09 203.17 150.14 84.36 218.73 35.76 190.66"/>
        <polygon class="cls-6" points="203.17 150.14 195.61 154.5 154.57 130.81 43.32 195.03 35.76 190.66 154.57 122.09 203.17 150.14"/>
      </g>
      <g>
        <polygon class="cls-2" points="228.02 16.97 292.82 54.39 157.82 132.33 93.02 94.92 228.02 16.97"/>
        <polygon class="cls-3" points="292.82 54.39 292.82 109.01 157.82 186.95 157.82 132.33 292.82 54.39"/>
        <polygon class="cls-4" points="93.02 94.92 93.02 149.54 157.82 186.95 157.82 132.33 93.02 94.92"/>
        <path class="cls-5" d="M157.77,131.65c-94.26-54.71-77.36-43.13-.51,1,.24,66.46.85,77,1.12.06C336.79,28.77,338.7,28.14,157.77,131.65Z"/>
        <polygon class="cls-2" points="111.01 94 229.82 25.42 278.41 53.47 159.61 122.06 111.01 94"/>
        <polygon class="cls-6" points="278.41 53.47 270.86 57.83 229.82 34.14 118.56 98.36 111.01 93.99 229.82 25.42 278.41 53.47"/>
      </g>
    </g>
  </g>
</svg>
