<svg id="Layer_1" data-name="Layer 1" xmlns="http://www.w3.org/2000/svg" width="382.38" height="368.68" viewBox="0 0 382.38 368.68">
  <defs>
    <style>
      .cls-1 {
        fill: #020202;
        opacity: 0.5;
      }

      .cls-2 {
        fill: none;
        stroke: #ff0;
        stroke-miterlimit: 10;
        stroke-width: 8px;
      }

      .cls-3 {
        fill: #fcd6c5;
      }

      .cls-4 {
        fill: #ffbb34;
      }

      .cls-5 {
        fill: #f2a150;
      }

      .cls-6 {
        fill: #ffe952;
      }

      .cls-7 {
        fill: #fa8d5f;
      }

      .cls-8 {
        fill: #a34c29;
      }

      .cls-9 {
        fill: #e06531;
      }

      .cls-10 {
        fill: #5e2020;
      }
    </style>
  </defs>
  <g>
    <path class="cls-1" d="M34.29,55.58,33.61,55l-.08,0-.08-.05h0a.24.24,0,0,1,.08.06l.08,0,.68.56.17.12A1.2,1.2,0,0,1,34.29,55.58Zm2.43,1.14c-.12,0-.24,0-.36-.08L36,56.53l-.35-.15a6.61,6.61,0,0,1-.7-.36l-.32-.22.32.22c.23.11.46.27.7.36l.35.15.37.1a1.55,1.55,0,0,0,.36.08l.37,0A2.33,2.33,0,0,1,36.72,56.72Zm1.08,0h-.09a.15.15,0,0,0,.09,0l.34-.07Zm1.48-.53-.26,0h0l.26,0Zm6.67,4c-2-1.34-4.1-2.66-6.13-4,0-.19,0-.38,0-.58,3.93,2.81,7.84,5.65,11.87,8.3Zm222.38,191-.23-.23c-13.24-13-26.84-25.58-40.44-38.19q-43.89-40.65-87.55-81.55l-.46-.42,51.8,39.85L255,219.52l33.64,26A46,46,0,0,0,268.33,251.18Z"/>
    <path class="cls-2" d="M373,332.06c-1.3-1.61-3.25-1.64-5.13-1.82a5.63,5.63,0,0,1-5.14-3.78l.06-.22a.4.4,0,0,0,.05-.24,7.31,7.31,0,0,0-.41-1h0l.65.13h0s-.72-.23-.78-.26a65.22,65.22,0,0,0,3.77-39.81,15.33,15.33,0,0,0-1.23-3.64l.28.07c-1.33-9.4-7.4-18-13.8-24.36A66.7,66.7,0,0,0,324.3,240.6c-2.4-.86-4.84-1.61-7.34-2.24a70.3,70.3,0,0,0-11.66-2,35,35,0,0,0-4.38.16l-.18-.05a22.69,22.69,0,0,0-2.85-.26l-.78,0-34.6-26.75-62.34-48.36-50.85-39.45-8.1-6.28q-17.37-16.45-34.9-32.72Q99.47,76.3,92.58,70l-.4-.37L91.55,69c.33-1.17.64-2.34,1-3.51l.15-.59a.13.13,0,0,0,0-.06l-.29-.29-.4-.41h0c-1.15-1.14-2.3-2.26-3.48-3.35h0l-.77.2-.31.08L83.88,62l-2.12.56-4.57,1.21c-.11-.07-.21-.12-.32-.2l-.16,0-1,.27L75,63.4,69.68,60l-3.49-2.22a99.09,99.09,0,0,0,10.23,5.42c-3.83-2.39-7.56-5-11.33-7.47-4.75-3.13-9.45-6.32-14.05-9.64.35-3.67.77-7.32,1.23-11l0-.2c.14-1.05.3-2.09.46-3.13h0c-.08-.12-.15-.24-.22-.36s0,0,0,0c0-.3-.11-.62-.15-.88a1.5,1.5,0,0,1-.09-.18,6.55,6.55,0,0,1-.43-1.22s0,0,0,0a3.38,3.38,0,0,1-.09-.41l.06,0a10.87,10.87,0,0,0,4.62-2.1,9.86,9.86,0,0,0,2.63-11.3,11.48,11.48,0,0,0-8.17-6.65.16.16,0,0,1,0,.07,1.4,1.4,0,0,1,.13.36,1.8,1.8,0,0,1-1.32,2,4.94,4.94,0,0,1-2.92-.51,1.59,1.59,0,0,1-1-1.74,1.84,1.84,0,0,1,.39-.76A2.27,2.27,0,0,1,48,7.35,2.7,2.7,0,0,0,45.51,8a2.49,2.49,0,0,0-.55.75c-4.3.85-9.16,4.39-9.69,8.94-.66,5.88,3.92,9.69,9.28,11A8.79,8.79,0,0,1,44,30.77c-.09.24-.2.49-.31.73a6.54,6.54,0,0,1-.3.59c0,.13,0,.26,0,.39s0,.51,0,.77c0,2.49.09,5,.12,7.45h0l-5.89-4.25h0a30.33,30.33,0,0,0-4.83-1.67,31.07,31.07,0,0,0-7.53-.94c-5.36,0-11,1.34-15,4.42h0a5,5,0,0,0-.88.69,1.26,1.26,0,0,0-.22.24h0a3.79,3.79,0,0,0-.34.45L9.1,40l1,.93C17.61,48,25.33,54.91,33,61.83L42,70c-.24,2.82-.47,5.64-.64,8.47,0,.44,0,.87-.08,1.31.39.3.79.58,1.19.84,2,1.24,4,1.87,5.94,1.11A5.73,5.73,0,0,0,49.72,81l0-.85c0-1,.08-2.08.1-3.13q5.59,5,11.22,10C95,117,129.05,146.75,163,176.7c31.08,27.45,61.73,55.43,93.62,82.06a58.06,58.06,0,0,0-4,6.73,60.42,60.42,0,0,0-3.17,7.36c-8.1,22.84-.12,48.53,13.76,65.76,13.31,16.56,34.2,25.37,54.44,21.8a60.44,60.44,0,0,0,35.71-20.89l1,.56h0l.05,0a.22.22,0,0,0,.19,0l.07,0a2.6,2.6,0,0,1,.79-.26c.81-.1,1.35.5,1.76,1.35a6,6,0,0,1,.29.68,20.18,20.18,0,0,0,1.38,3.6,7.17,7.17,0,0,0,4.56,2.83c3.77.65,7.49-1.79,9.33-5.18C374.43,340,375.39,335,373,332.06ZM45.87,47.52,45.2,47l-.07-.06-.08,0h0l.08,0,.07.05.68.57a.91.91,0,0,0,.16.11A.82.82,0,0,1,45.87,47.52Zm2.39,1.13c-.12,0-.24,0-.36-.08l-.36-.1-.35-.15a7.45,7.45,0,0,1-.68-.36l-.32-.22c.12.07.21.15.32.21a6.47,6.47,0,0,0,.69.36l.34.15.36.11a2.29,2.29,0,0,0,.36.07,2.09,2.09,0,0,0,.35,0A1.38,1.38,0,0,1,48.26,48.65Zm1.05,0a.11.11,0,0,1-.08,0,.14.14,0,0,0,.09,0l.33-.08A1.87,1.87,0,0,1,49.31,48.65Zm1.46-.53-.25,0h0l.26,0Zm6.55,4c-2-1.32-4-2.63-6-4,0-.19,0-.39.05-.58C55.2,50.31,59,53.13,63,55.76ZM275.05,241.77l-.22-.22c-13-12.92-26.27-25.42-39.59-38q-42.94-40.41-85.69-81c-.15-.14-.3-.27-.45-.42l50.74,39.56,62.22,48.51L295,236A45,45,0,0,0,275.05,241.77Z"/>
    <g>
      <path class="cls-3" d="M40.69,46.57,40,46l-.08-.06-.07,0h0l.07,0L40,46l.68.57.17.12Zm2.42,1.16c-.12,0-.24,0-.37-.08l-.36-.12L42,47.38a7.88,7.88,0,0,1-.7-.37L41,46.79l.31.21a7.88,7.88,0,0,0,.7.37l.35.16.37.11.36.09.36.05A2.08,2.08,0,0,1,43.11,47.73Zm1.07,0a.13.13,0,0,1-.09,0,.13.13,0,0,0,.09,0l.35-.06A2.14,2.14,0,0,1,44.18,47.76Zm1.49-.47h0Zm6.63,4.06c-2-1.35-4.08-2.69-6.1-4.06,0-.18,0-.38,0-.56C50.15,49.55,54,52.4,58,55.08Z"/>
      <g>
        <path class="cls-4" d="M278.83,250.61a3.76,3.76,0,0,0-2.71-.5c-2,.56-1.87,3-.14,3.8,1.38.62,3.21.22,3.47-1.46A2.16,2.16,0,0,0,278.83,250.61Z"/>
        <path class="cls-4" d="M281.56,273.08a.11.11,0,0,1-.1,0c-1.26-1-3.07-1.39-4.18.05a2.71,2.71,0,0,0,.89,4,2.75,2.75,0,0,0,3.94-1.61A2.54,2.54,0,0,0,281.56,273.08Z"/>
        <path class="cls-4" d="M311.66,296.71a3.51,3.51,0,0,0-4.18.2,3.26,3.26,0,0,0,.61,5.08,3.2,3.2,0,0,0,3.57-5.28Z"/>
        <path class="cls-4" d="M361.65,287.52a4.35,4.35,0,0,0-.81-2c-.9-.9-2.06-1.7-3.16-.59s-.32,3.09.7,4.12c.67.7,1.93,1.57,2.81.68A2.66,2.66,0,0,0,361.65,287.52Z"/>
        <path class="cls-4" d="M335.7,299.31a3,3,0,0,0-2.18,4c.63,1.69,3,2.92,4.56,1.65s1.12-3.17.28-4.69A2.78,2.78,0,0,0,335.7,299.31Z"/>
      </g>
      <g>
        <path class="cls-5" d="M352.79,261.18a74.48,74.48,0,0,0-17.49-14,101.45,101.45,0,0,0-13.42-5.65,77,77,0,0,0-16.7-3.85,51.08,51.08,0,0,0-5.93-.29L321,254.16l4.65-2.75.89-.51.47.19a30.72,30.72,0,0,1,4.36,2.3l0,0,.27.17v0l-.09.33c-.36,1.29-.72,2.57-1.1,3.85-.21.69-.4,1.4-.59,2.12-.05.16-.1.32-.14.48h0a27.87,27.87,0,0,1,2.64,5.54,2.34,2.34,0,0,1,.09.24l-.56.35-1.45.92,13.44,25.9c.4-.17.8-.35,1.2-.55l.38-.2.15-.07.54-.3a21.55,21.55,0,0,0,3.05-2,18.49,18.49,0,0,0,4-24.74s0,0,0,0a18.87,18.87,0,0,1,.49,22.62,20.55,20.55,0,0,1-6.88,5.82l-.38.19-.31.16-.14.06c-.44.22-.9.42-1.37.62l5.83,11.23a27.31,27.31,0,0,0,5.18-3.45,25.2,25.2,0,0,0,5.32-6.37C368.18,284.21,361.31,270.48,352.79,261.18Zm5.5,28.46c-1.31-1.21-2.42-3.47-.89-5s3.68.18,4.35,1.73c0,0,0,0,0,.05a3.88,3.88,0,0,1,.35,2.38C361.71,291,359.65,290.89,358.29,289.64Z"/>
        <path class="cls-5" d="M324.1,296.91a63.41,63.41,0,0,1-30.83-12.78c-7.17-5.7-12.89-12.72-13.91-21a18.93,18.93,0,0,1,12.43-19.61c.08,0,.14,0,.06.09-7.18,3.69-11.28,10.64-11.11,17.41.2,7.65,5.38,14.64,11.54,20.05a60.6,60.6,0,0,0,25.84,13c7.91,1.9,16.92,2.62,24.58-.24l-13.51-25.59q-3.17,2-6.36,3.94c-2.42,1.47-4.82,3-7.27,4.46v0h0l-.52.3-.09.06-.06-.16-.47-.33c-2.38-1.67-4.71-3.42-7-5.17l-2.57-1.92-.92-.7a9.64,9.64,0,0,1,.9-.63c.63-.39,1.28-.73,1.89-1.06a26,26,0,0,1,2.43-1.14c.56-1.64,1.14-3.27,1.68-4.91.06-.15.1-.3.15-.45s.11-.33.16-.49l.42-.26.11-.08c2.53-1.58,5.14-3.05,7.69-4.57l.25-.15L297,237.43c-.53,0-1.06.07-1.58.12a31,31,0,0,0-17,6.73l-.49.42a25.73,25.73,0,0,0-4,4.31,22,22,0,0,0-3.52,7.62c-.05.18-.09.35-.13.53A24.35,24.35,0,0,0,272,272.5a64.46,64.46,0,0,0,9.69,14.76c12.45,12.39,28.8,20.73,46.49,22.46,7.22.7,14.85,0,21.3-3l-6-11.29C337.49,297.57,330.44,297.78,324.1,296.91Zm-48.31-42.49a2.44,2.44,0,0,1-.9-3.87,2.89,2.89,0,0,1,3.49-.64,2.71,2.71,0,0,1,1,.72,2.91,2.91,0,0,1,.33.37.07.07,0,0,1,0,.09,2.42,2.42,0,0,1,.27,1.53C279.7,254.63,277.44,255.17,275.79,254.42Zm2.39,23.33A3.24,3.24,0,0,1,277,272.9a3,3,0,0,1,3.83-.8,3,3,0,0,1,1.93,3.22A3.27,3.27,0,0,1,278.18,277.75Zm30,24.8a3.66,3.66,0,0,1-1.31-5.35,3.56,3.56,0,0,1,4.34-1.32,3.66,3.66,0,0,1,2.27,4.12A3.72,3.72,0,0,1,308.19,302.55ZM339.52,304a2.71,2.71,0,0,1-1.08,1.55c-1.95,1.46-4.79.18-5.57-2a3.72,3.72,0,0,1,2.53-4.75,3.4,3.4,0,0,1,3.77,1.67A3.61,3.61,0,0,1,339.52,304Z"/>
      </g>
      <g>
        <path class="cls-6" d="M330.87,263.58c-.39-.93-.81-1.86-1.24-2.76,0-.09-.08-.17-.13-.26l-.64.41-1.32.82,2.77,5.35,1.52-.87C331.53,265.36,331.23,264.46,330.87,263.58Z"/>
        <path class="cls-6" d="M329,260.41c0-.16.1-.32.16-.47l.09-.29c.24-.67.47-1.34.69-2,.41-1.27.84-2.52,1.27-3.78-1.95,1.25-3.93,2.46-5.91,3.68l0,0,2,3.8Z"/>
        <path class="cls-6" d="M330.9,253.66c-1.59-.66-3.2-1.3-4.76-2-1.54,1-3.1,1.93-4.65,2.88l3.43,2.65Q327.89,255.39,330.9,253.66Z"/>
        <path class="cls-6" d="M313.3,270.83c0-.1,0-.2,0-.3l.13-.07c.08-.32.16-.64.25-.95s.12-.51.19-.76h0c.44-1.71,1-3.43,1.54-5.09.07-.22.15-.44.23-.65l-.27-.14-2.44-1.29-1.49-.77a29.63,29.63,0,0,1-1.43,4.79q-.18.48-.39,1l-.87.5-1.34.78c-.54.32-1.09.68-1.64,1L308.5,271l1.31,1,.25.2c1.47,1.15,2.94,2.31,4.39,3.51a25.58,25.58,0,0,1-1.06-4.33Z"/>
        <path class="cls-6" d="M315.79,262.53l0,0,.86-.53c2-1.23,4.12-2.41,6.15-3.63l.61-.35-3.39-2.64-.14.08c-2.57,1.56-5.14,3.23-7.76,4.75l1.12.72Z"/>
        <path class="cls-6" d="M323.94,258.42l-.48.29c-2.31,1.41-4.61,2.88-6.95,4.27l-.09.06c0,.11-.06.22-.1.33-.55,1.92-1.24,3.83-2,5.69,2.23-1.36,4.51-2.65,6.74-4,1.63-1,3.26-1.94,4.9-2.89l-1.95-3.7Z"/>
        <path class="cls-6" d="M321.7,265.39c-2.51,1.53-5,3.15-7.57,4.64.45,2,.9,3.92,1.28,5.88,2.25-1.38,4.56-2.68,6.81-4s4.51-2.67,6.78-4l-2.78-5.28Z"/>
        <path class="cls-6" d="M67.11,72.42l.12-.37-.45-.38-.37-.31c-1-.81-1.92-1.63-2.86-2.46-.15.6-.31,1.2-.46,1.8-.11.44-.23.89-.33,1.34l-.12.49c-.06.23-.11.46-.17.69s-.09.36-.13.55c-.11.42-.21.84-.32,1.27l.46.5L63.78,77l.61.71.87,1,.33-1.21.18-.63c0-.21.11-.41.17-.61.12-.41.23-.81.36-1.21C66.56,74.19,66.83,73.3,67.11,72.42Z"/>
        <path class="cls-6" d="M89.06,66.79l-2.2.58q-2.74.73-5.5,1.43l3.87,3c1.69-.38,3.39-.76,5.08-1.12l.52-.11c.16-.57.33-1.14.49-1.71.29-1,.59-1.94.89-2.91Z"/>
        <path class="cls-6" d="M80.65,68q2.79-.65,5.58-1.26l2.28-.5,3.61-.78h.06c-1.29-1.08-2.56-2.17-3.8-3.29L85,63.1,83,63.65,78.8,64.74l-.41.1L77,65.19l-.25.06,3.67,2.84Z"/>
        <path class="cls-6" d="M79.39,68.34l-3.13-2.42-.53-.41-6.32,1.57-.57.14-.92.23c-1.19.29-2.39.63-3.59,1,1,.91,1.92,1.83,2.86,2.77l.35-.08.9-.2c.91-.19,1.82-.38,2.7-.59C73.89,69.64,76.64,69,79.39,68.34Z"/>
        <path class="cls-6" d="M80.31,69.06c-2.85.72-5.69,1.43-8.55,2.13-1.18.29-2.38.63-3.59,1h-.06c0,.17-.09.34-.14.51-.28,1-.57,2.08-.87,3.11l.19.16c1.57-.37,3.17-.67,4.7-1,3.17-.77,6.35-1.52,9.52-2.26l2.63-.6-3.3-2.56Z"/>
      </g>
      <g>
        <path class="cls-7" d="M47,12.68a5.14,5.14,0,0,0,2.92.57,1.67,1.67,0,0,0,1.32-1.9,1.31,1.31,0,0,0-.12-.35l-.07-.12c-.37-.18-.72-.42-1.08-.63a4.75,4.75,0,0,0-1.46-.63,2.33,2.33,0,0,0-2.14.64A1.62,1.62,0,0,0,46,11C45.88,11.57,46.15,12.21,47,12.68Z"/>
        <path class="cls-8" d="M51.9,28.36l.5-.08c4.17-.8,7.87-3.5,7.32-8.39s-4.13-7.13-8.1-8.71a2,2,0,0,1-.08,1.65c-.83,1.63-3.11,1.16-4.45.55a2.56,2.56,0,0,1-1.64-2.22,23,23,0,0,0-4.82,1.73c-2.43,1.42-4.44,3.94-4.24,6.89.31,4.53,4.55,7.06,8.77,8.13l.55.13a19.78,19.78,0,0,0,3.34.46A14.37,14.37,0,0,0,51.9,28.36Z"/>
        <path class="cls-5" d="M46,48.24l.31.22c.23.11.45.27.69.36l.35.15.35.11.36.09a2.2,2.2,0,0,0,.36,0,2,2,0,0,0,.35,0c.12,0,.24,0,.35,0a3,3,0,0,0,.67-.17l.3-.14.14-.08s.09-.07.1-.06l.25,0c0-.2,0-.41.07-.61s0-.3,0-.45c.06-.58.13-1.15.19-1.73.48-4.27,1-8.53,1.72-12.78a5.71,5.71,0,0,1-.92-3.25A17.81,17.81,0,0,1,46,29.64a5.5,5.5,0,0,1-.62,2.81,42.06,42.06,0,0,0,6.13,1.09,0,0,0,0,1,0,.06,22.13,22.13,0,0,1-6.75-.29h0c.1,2.76.16,5.51.17,8.27,0,.43,0,.85,0,1.28v.56c0,1.31,0,2.62,0,3.93l.16.1.67.56Z"/>
        <path class="cls-7" d="M50.43,50.5h0a4.6,4.6,0,0,1-1,.27,4.55,4.55,0,0,1-.52,0,4.43,4.43,0,0,1-.52,0,4.34,4.34,0,0,1-.52-.07,2.51,2.51,0,0,1-.49-.12,4.58,4.58,0,0,1-.49-.15l-.45-.19c-.31-.13-.58-.31-.87-.46l-.4-.28-.23-.16c0,1,0,2,0,3a6.85,6.85,0,0,0,.91.87,4,4,0,0,0,4.35.63C50.2,52.73,50.31,51.61,50.43,50.5Z"/>
        <path class="cls-5" d="M48.74,74.64l-4.61-4.12c-.22,2.56-.52,5.12-.94,7.65a8.47,8.47,0,0,0,5.68,1.25C48.79,77.83,48.75,76.23,48.74,74.64Z"/>
      </g>
      <g>
        <path class="cls-9" d="M57.43,52.75l5.66,3.67c-4-2.63-7.78-5.44-11.63-8.22,0,.19,0,.37-.05.55C53.4,50.1,55.42,51.41,57.43,52.75Z"/>
        <path class="cls-9" d="M75.13,64.1l.69.44,1-.23.28-.07a104.43,104.43,0,0,1-10.8-5.75l3.49,2.23Z"/>
        <path class="cls-9" d="M110.36,89.61q-9.51-8.86-18.91-17.86l-.64-.61-.15,0c-1.54.42-3.09.83-4.63,1.23l34.69,26.86Z"/>
        <path class="cls-8" d="M128.44,106.44,85,72.69l-.62.16-2.62.67c-3,.76-6.07,1.52-9.12,2.26-1.38.34-2.79.75-4.21,1.12l2.92,2.52Q82.42,89,93.49,98.7q22,19.18,43.68,38.65,43.54,39.08,87.47,77.74c12.83,11.34,25.66,22.67,38.18,34.32l.05.05a50.27,50.27,0,0,1,11.23-8.14c-26.51-23.3-51.94-47.85-77.76-71.9Q162.45,137.88,128.44,106.44Z"/>
        <path class="cls-9" d="M97.09,105.09C89,97.9,80.94,90.63,72.9,83.36L66.54,77.6c-.14.47-.29,1-.45,1.42,0,.17-.11.35-.17.53s-.21.64-.32,1L64.94,80Q63.17,78.53,61.47,77s0,0,0,0L60.3,76c.2-.7.43-1.4.66-2.1l.36-1q-5.4-4.95-10.68-10l-1.28-1.23.06-.69,1.24,1c2.76,2.24,5.5,4.53,8.23,6.83l.75.64,2.21,1.88c.1-.28.2-.57.29-.85.17-.53.35-1.06.52-1.59l.18-.56c.09-.26.17-.52.25-.77l.2,0L64,67.3h0c1.12-.24,2.24-.47,3.34-.73l1.92-.46.45-.11,5-1.18-5.36-3.36c-2.08-1.28-4.16-2.58-6.26-3.85l-.5-.3-5.78-3.52c-1.84-1.1-3.67-2.21-5.52-3.29-.07.89-.14,1.78-.2,2.67,0,.26,0,.53,0,.79a3.56,3.56,0,0,1-1,.68,4.25,4.25,0,0,1-2.68.31,5.08,5.08,0,0,1-2.51-1.32,6.09,6.09,0,0,1-.93-1.09v0L44,51.06c0-.78.06-1.57.08-2.36l0,0a.79.79,0,0,1-.1-1.12.54.54,0,0,1,.16-.14c0-1.52.05-3,.05-4.55l-7.44-5.45h0a35.63,35.63,0,0,0-11.21-2.21A28.44,28.44,0,0,0,15,37.06c2.47.41,4.76,2.1,6.68,3.52,7.18,5.27,14.18,10.84,21.18,16.34.06,0,0,.13-.05.09-5.61-3.84-11.11-7.82-16.7-11.68C22.74,43,15.53,36.56,11.38,39.64,18.2,45.28,24.91,51.06,31.59,56.8L42.8,66.48l1.54,1.33,4.44,3.84,1.66,1.44L57.26,79l2.15,1.87.19.17q24.25,21.08,48.27,42.39,50.46,44.87,101.35,89.33c16.16,14.2,32.32,28.36,48.07,42.92a53.67,53.67,0,0,1,4.75-5.43c-26.24-22-51.49-45.13-77.12-67.78C155.69,156.64,126.3,131,97.09,105.09Z"/>
        <path class="cls-9" d="M373.4,332.87a4.22,4.22,0,0,0-2.63-3.38c-1.27-.5-2.66-.28-4-.57a5.66,5.66,0,0,1-4.36-4.79h0l-.54-.39c-.39-.28-.77-.58-1.14-.86l-.55-.42c-.72-.55-1.42-1.13-2.1-1.73l2.5,4.81.64-.46c.3-.2.6-.39.91-.57h0c-.42.35-.81.71-1.18,1.08-.09.08-.16.16-.25.25a.49.49,0,0,1-.24.58.48.48,0,0,1-.35,0c-.42.45-.81.91-1.18,1.39l-.17.22a21.93,21.93,0,0,0-3.17,5.86h0c-.26.69-.48,1.41-.68,2.13a2.23,2.23,0,0,1,1.49,0c1.48.46,1.93,1.9,2.29,3.25a.66.66,0,0,0,.06.2,1.82,1.82,0,0,0,.07.25c2,6,9.35,5.79,12.72.93A10.68,10.68,0,0,0,373.4,332.87Z"/>
        <path class="cls-9" d="M358.53,327.31l.21-.2c.33-.32.68-.63,1-.93l-3.31-6.29-.27.11a11.14,11.14,0,0,0-5.26,4.62,20.56,20.56,0,0,0-2.38,7.59c1.36.81,2.67,1.69,4,2.61l1.1.8a18.15,18.15,0,0,1,1.87-4.35,19.7,19.7,0,0,1,2.11-2.94C357.9,328,358.21,327.64,358.53,327.31Z"/>
      </g>
      <g>
        <path class="cls-8" d="M365.38,285.14a23.41,23.41,0,0,1-1.07,6.93,24.89,24.89,0,0,1-7.88,11.59,31.9,31.9,0,0,1-5.32,3.61l6.51,12.55.73.59c.86.67,1.74,1.32,2.66,1.92A59.4,59.4,0,0,0,365.38,285.14Z"/>
        <path class="cls-8" d="M347.38,332.87c0-.41.1-.82.18-1.24.89-5.21,3.63-11.05,8.4-12.33l.16,0-6.05-11.45a40.91,40.91,0,0,1-14.5,4.06c-12.77,1.16-25.84-2.6-36.94-8.78a70,70,0,0,1-20.71-17.48,37.17,37.17,0,0,1-7-10.38c-.26-.62-.52-1.25-.75-1.89-.1-.19-.19-.38-.28-.57a.08.08,0,0,1,0-.1,29.13,29.13,0,0,1-1.19-16.83c.06-.23.12-.45.19-.68a21.76,21.76,0,0,1,1.51-3.83,24.21,24.21,0,0,1,6.32-7.66c.2-.16.39-.32.6-.47a31.68,31.68,0,0,1,7.57-4.3,51.26,51.26,0,0,0-8.57,3.31l-.8.41a49.83,49.83,0,0,0-11.4,8.06l-.76.73a46.9,46.9,0,0,0-4.81,5.5c-.17.21-.32.42-.48.64a48.23,48.23,0,0,0-3.8,6.18c-10.24,19.85-6,45.29,6.73,62.68,11.91,16.3,29.95,27.28,49.71,27.14a57,57,0,0,0,40.93-17.84c-1.16-.68-2.29-1.4-3.39-2.17Z"/>
      </g>
      <g>
        <path class="cls-10" d="M358.29,289.64c1.36,1.25,3.42,1.35,3.8-.82a3.88,3.88,0,0,0-.35-2.38s0,0,0-.05c-.67-1.55-2.79-3.28-4.35-1.73S357,288.43,358.29,289.64Zm-.61-4.68c1.1-1.11,2.26-.31,3.16.59a4.35,4.35,0,0,1,.81,2,2.66,2.66,0,0,1-.46,2.24c-.88.89-2.14,0-2.81-.68C357.36,288.05,356.46,286.21,357.68,285Z"/>
        <path class="cls-10" d="M338.44,305.51a2.71,2.71,0,0,0,1.08-1.55,3.61,3.61,0,0,0-.35-3.49,3.4,3.4,0,0,0-3.77-1.67,3.72,3.72,0,0,0-2.53,4.75C333.65,305.69,336.49,307,338.44,305.51Zm1-3.56a.17.17,0,0,0,0,.07.19.19,0,0,1,0-.07Zm-3.7-2.64a2.78,2.78,0,0,1,2.66.95c.84,1.52,1.27,3.46-.28,4.69s-3.93,0-4.56-1.65A3,3,0,0,1,335.7,299.31Z"/>
        <path class="cls-10" d="M308.19,302.55a3.72,3.72,0,0,0,5.3-2.55,3.66,3.66,0,0,0-2.27-4.12,3.56,3.56,0,0,0-4.34,1.32A3.66,3.66,0,0,0,308.19,302.55Zm-.71-5.64a3.51,3.51,0,0,1,4.18-.2,3.2,3.2,0,0,1-3.57,5.28A3.26,3.26,0,0,1,307.48,296.91Z"/>
        <path class="cls-10" d="M373.07,330.05c-1.3-1.57-3.24-1.66-5.12-1.88a5.78,5.78,0,0,1-5.14-3.78h0c0-.09-.05-.18-.08-.27a5.94,5.94,0,0,1-.15-.86h0l-.2-.11h0l-.18-.1A59.65,59.65,0,0,0,366.06,285c-.27-1.15-.58-2.3-.94-3.43h0v0c-1.31-9-7.36-17.43-13.76-23.74a69.62,69.62,0,0,0-27.05-16.65c-2.39-.89-4.84-1.68-7.34-2.35a73.06,73.06,0,0,0-11.67-2.23c-1.43-.15-2.86-.24-4.29-.28h0a25.13,25.13,0,0,0-2.85-.33l-.79,0-34.55-26.66-62.26-48.19-50.77-39.31-8.09-6.26Q124.35,99.22,106.85,83.1,100,76.8,93.13,70.51l-.4-.37-.62-.56c.33-1.12.65-2.23,1-3.35.06-.19.11-.38.16-.57,0,0,0,0,0,0L93,65.32l-.41-.4h0c-1-1-2.07-2-3.13-3l-.35-.31-.77.16-.31.07-3.52.76-2.14.46-4.57,1-.41-.25c-4-2.48-7.79-5.16-11.68-7.72-4.73-3.14-9.43-6.33-14-9.66.43-4.21,1-8.43,1.55-12.63,0-.2,0-.39.08-.58.05-.35.09-.7.14-1a7.51,7.51,0,0,1-.47-.82,6,6,0,0,1-.51-1.59,11,11,0,0,0,4.69-1.9,9.1,9.1,0,0,0,2.66-10.78,11.81,11.81,0,0,0-8.7-6.73,1.56,1.56,0,0,0-.4-.27c-1.27-1-3.19-1.56-4.47-.46a2.36,2.36,0,0,0-.56.7c-4.3.69-9.18,4-9.71,8.32-.69,5.62,3.89,9.41,9.25,10.78a7.6,7.6,0,0,1-.56,2.06,7.13,7.13,0,0,1-.31.7l-.29.55v.38c0,.24,0,.49,0,.74,0,2.38.08,4.77.09,7.16l-1.29-.93-4.6-3.32h0a31.8,31.8,0,0,0-4.84-1.74,32.7,32.7,0,0,0-7.53-1.12c-5.36-.18-11,1-15,3.83h0a4.31,4.31,0,0,0-.88.64,2.39,2.39,0,0,0-.23.22h0a3.31,3.31,0,0,0-.35.41l.34.32,1,.92c7.51,7,15.21,13.86,22.86,20.72l9,8.08c-.25,2.7-.49,5.4-.67,8.12,0,.41,0,.83-.08,1.25.39.3.79.58,1.19.84,2,1.25,4,1.9,5.94,1.23a5.42,5.42,0,0,0,1.27-.68l0-.81c0-1,.08-2,.11-3q5.59,5,11.2,9.91c33.84,29.74,67.87,59.29,101.75,89,31,27.21,61.6,54.93,93.42,81.39l0,0a55.1,55.1,0,0,0-7.23,13.33c-8.17,21.7-.26,46.59,13.58,63.53,13.28,16.27,34.16,25.32,54.43,22.46a59.28,59.28,0,0,0,35.8-19.06h0c.32.19.65.37,1,.55h0l.05,0a.19.19,0,0,0,.19,0l.08,0a2,2,0,0,1,.78-.23c.82-.07,1.35.51,1.76,1.34a5.87,5.87,0,0,1,.29.67,18.67,18.67,0,0,0,1.37,3.49,7.47,7.47,0,0,0,4.56,2.85c3.76.73,7.49-1.52,9.35-4.72C374.46,337.71,375.43,332.93,373.07,330.05ZM361,322.33c-.92-.6-1.8-1.25-2.66-1.92l-.73-.59-6.51-12.55a31.9,31.9,0,0,0,5.32-3.61,24.89,24.89,0,0,0,7.88-11.59,23.41,23.41,0,0,0,1.07-6.93A59.4,59.4,0,0,1,361,322.33Zm-55.83-84.68a77,77,0,0,1,16.7,3.85,101.45,101.45,0,0,1,13.42,5.65,74.48,74.48,0,0,1,17.49,14c8.52,9.3,15.39,23,8.25,35.16a25.2,25.2,0,0,1-5.32,6.37,27.31,27.31,0,0,1-5.18,3.45l-5.83-11.23c.47-.2.93-.4,1.37-.62l.14-.06.31-.16.38-.19a20.55,20.55,0,0,0,6.88-5.82,18.87,18.87,0,0,0-.49-22.62s0,0,0,0a18.49,18.49,0,0,1-4,24.74,21.55,21.55,0,0,1-3.05,2l-.54.3-.15.07-.38.2c-.4.2-.8.38-1.2.55l-13.44-25.9,1.45-.92.56-.35a2.34,2.34,0,0,0-.09-.24,27.87,27.87,0,0,0-2.64-5.54h0c0-.16.09-.32.14-.48.19-.72.38-1.43.59-2.12.38-1.28.74-2.56,1.1-3.85l.09-.33v0l-.27-.17,0,0a30.72,30.72,0,0,0-4.36-2.3l-.47-.19-.89.51L321,254.16l-21.76-16.8A51.08,51.08,0,0,1,305.18,237.65Zm6.23,23.15,1.49.77,2.44,1.29.27.14c-.08.21-.16.43-.23.65-.59,1.66-1.1,3.38-1.54,5.09h0c-.07.25-.13.5-.19.76s-.17.63-.25.95l-.13.07c0,.1,0,.2,0,.3l.09.6a25.58,25.58,0,0,0,1.06,4.33c-1.45-1.2-2.92-2.36-4.39-3.51l-.25-.2-1.31-1-2.76-2.16c.55-.36,1.1-.72,1.64-1l1.34-.78.87-.5q.21-.48.39-1A29.63,29.63,0,0,0,311.41,260.8Zm13.95-3.2,0,0c2-1.22,4-2.43,5.91-3.68-.43,1.26-.86,2.51-1.27,3.78-.22.65-.45,1.32-.69,2l-.09.29c-.06.15-.11.31-.16.47l-1.71,1Zm.63,4.59c-1.64.95-3.27,1.92-4.9,2.89-2.23,1.33-4.51,2.62-6.74,4,.73-1.86,1.42-3.77,2-5.69,0-.11.07-.22.1-.33l.09-.06c2.34-1.39,4.64-2.86,6.95-4.27l.48-.29.1.07Zm-1.07-5-3.43-2.65c1.55-1,3.11-1.91,4.65-2.88,1.56.72,3.17,1.36,4.76,2Q327.89,255.39,324.92,257.17Zm-1.47.87-.61.35c-2,1.22-4.11,2.4-6.15,3.63l-.86.53,0,0L313.28,261l-1.12-.72c2.62-1.52,5.19-3.19,7.76-4.75l.14-.08Zm-9.32,12c2.56-1.49,5.06-3.11,7.57-4.64l4.52-2.77L329,267.9c-2.27,1.31-4.53,2.63-6.78,4s-4.56,2.65-6.81,4C315,274,314.58,272,314.13,270Zm13.41-8.24,1.32-.82.64-.41c.05.09.09.17.13.26.43.9.85,1.83,1.24,2.76s.66,1.78,1,2.69l-1.52.87ZM297,237.43,319.56,255l-.25.15c-2.55,1.52-5.16,3-7.69,4.57l-.11.08-.42.26c0,.16-.1.33-.16.49s-.09.3-.15.45c-.54,1.64-1.12,3.27-1.68,4.91a26,26,0,0,0-2.43,1.14c-.61.33-1.26.67-1.89,1.06a9.64,9.64,0,0,0-.9.63l.92.7,2.57,1.92c2.32,1.75,4.65,3.5,7,5.17l.47.33.06.16L315,277l.52-.3h0v0c2.45-1.44,4.85-3,7.27-4.46q3.19-1.95,6.36-3.94l13.51,25.59c-7.66,2.86-16.67,2.14-24.58.24a60.6,60.6,0,0,1-25.84-13c-6.16-5.41-11.34-12.4-11.54-20.05-.17-6.77,3.93-13.72,11.11-17.41.08,0,0-.12-.06-.09a18.93,18.93,0,0,0-12.43,19.61c1,8.31,6.74,15.33,13.91,21a63.41,63.41,0,0,0,30.83,12.78c6.34.87,13.39.66,19.42-1.52l6,11.29c-6.45,3-14.08,3.74-21.3,3-17.69-1.73-34-10.07-46.49-22.46A64.46,64.46,0,0,1,272,272.5a24.35,24.35,0,0,1-1.63-15.34c0-.18.08-.35.13-.53A22,22,0,0,1,274,249a25.73,25.73,0,0,1,4-4.31l.49-.42a31,31,0,0,1,17-6.73C295.94,237.5,296.47,237.46,297,237.43Zm-97.12-75.51,62.18,48.3L295,235.87a45.81,45.81,0,0,0-20,5l-.22-.22c-12.95-12.76-26.25-25.13-39.55-37.52q-42.91-40-85.62-80.16l-.44-.41Zm-3.54,7.5c25.82,24.05,51.25,48.6,77.76,71.9a50.27,50.27,0,0,0-11.23,8.14l-.05-.05c-12.52-11.65-25.35-23-38.18-34.32q-43.84-38.78-87.47-77.74Q115.48,117.88,93.49,98.7,82.44,89,71.32,79.42L68.4,76.9c1.42-.37,2.83-.78,4.21-1.12,3-.74,6.08-1.5,9.12-2.26l2.62-.67.62-.16,43.47,33.75Q162.37,138,196.34,169.42ZM65.77,76.9l-.18.63-.33,1.21-.87-1L63.78,77l-1.3-1.46L62,75c.11-.43.21-.85.32-1.27,0-.19.09-.37.13-.55s.11-.46.17-.69l.12-.49c.1-.45.22-.9.33-1.34.15-.6.31-1.2.46-1.8.94.83,1.89,1.65,2.86,2.46l.37.31.45.38-.12.37c-.28.88-.55,1.77-.81,2.66-.13.4-.24.8-.36,1.21C65.88,76.49,65.82,76.69,65.77,76.9Zm1.42-5.72c-.94-.94-1.9-1.86-2.86-2.77,1.2-.33,2.4-.67,3.59-1l.92-.23.57-.14,6.32-1.57.53.41,3.13,2.42c-2.75.65-5.5,1.3-8.25,2-.88.21-1.79.4-2.7.59l-.9.2Zm1,1h0c1.21-.33,2.41-.67,3.59-1,2.86-.7,5.7-1.41,8.55-2.13l.53.42L84.14,72l-2.63.6c-3.17.74-6.35,1.49-9.52,2.26-1.53.37-3.13.67-4.7,1l-.19-.16c.3-1,.59-2.07.87-3.11,0-.17.09-.34.14-.51Zm22.65-1,.64.61q9.4,9,18.91,17.86l10.36,9.66L86,72.41c1.54-.4,3.09-.81,4.63-1.23Zm.51-2.29c-.16.57-.33,1.14-.49,1.71l-.52.11c-1.69.36-3.39.74-5.08,1.12l-3.87-3q2.76-.69,5.5-1.43l2.2-.58,3.15-.85C91.91,66.91,91.61,67.88,91.32,68.85ZM77,65.19l1.36-.35.41-.1L83,63.65,85,63.1l3.36-.9c1.24,1.12,2.51,2.21,3.8,3.29h-.06l-3.61.78-2.28.5q-2.79.61-5.58,1.26l-.2,0-3.67-2.84Zm.06-1-.28.07-1,.23-.69-.44-5.35-3.38-3.49-2.23A104.43,104.43,0,0,0,77.09,64.24Zm-14-7.82-5.66-3.67c-2-1.34-4-2.65-6-4,0-.18,0-.36.05-.55C55.31,51,59.14,53.79,63.09,56.42ZM50.43,50.5c-.12,1.11-.23,2.23-.34,3.35a4,4,0,0,1-4.35-.63,6.85,6.85,0,0,1-.91-.87c0-1,0-2,0-3l.23.16.4.28c.29.15.56.33.87.46l.45.19a4.58,4.58,0,0,0,.49.15,2.51,2.51,0,0,0,.49.12,4.34,4.34,0,0,0,.52.07,4.43,4.43,0,0,0,.52,0,4.55,4.55,0,0,0,.52,0,4.6,4.6,0,0,0,1-.27Zm-4-40.24a2.33,2.33,0,0,1,2.14-.64,4.75,4.75,0,0,1,1.46.63c.36.21.71.45,1.08.63l.07.12a1.31,1.31,0,0,1,.12.35A1.67,1.67,0,0,1,50,13.25,5.14,5.14,0,0,1,47,12.68c-.89-.47-1.16-1.11-1-1.7A1.62,1.62,0,0,1,46.41,10.26ZM45.71,28l-.55-.13c-4.22-1.07-8.46-3.6-8.77-8.13-.2-3,1.81-5.47,4.24-6.89a23,23,0,0,1,4.82-1.73,2.56,2.56,0,0,0,1.64,2.22c1.34.61,3.62,1.08,4.45-.55a2,2,0,0,0,.08-1.65c4,1.58,7.56,4,8.1,8.71s-3.15,7.59-7.32,8.39l-.5.08a14.37,14.37,0,0,1-2.85.14A19.78,19.78,0,0,1,45.71,28Zm-1,5.28h0a22.13,22.13,0,0,0,6.75.29,0,0,0,0,0,0-.06,42.06,42.06,0,0,1-6.13-1.09A5.5,5.5,0,0,0,46,29.64a17.81,17.81,0,0,0,5.76.27,5.71,5.71,0,0,0,.92,3.25c-.7,4.25-1.24,8.51-1.72,12.78-.06.58-.13,1.15-.19,1.73,0,.15,0,.3,0,.45s0,.41-.07.61l-.25,0s-.06,0-.1.06l-.14.08-.3.14a3,3,0,0,1-.67.17c-.11,0-.23,0-.35,0a2,2,0,0,1-.35,0,2.2,2.2,0,0,1-.36,0l-.36-.09L47.38,49,47,48.82c-.24-.09-.46-.25-.69-.36L46,48.24,45.71,48,45,47.46l-.16-.1c0-1.31,0-2.62,0-3.93v-.56c0-.43,0-.85,0-1.28C44.87,38.83,44.81,36.08,44.71,33.32ZM43.19,78.17c.42-2.53.72-5.09.94-7.65l4.61,4.12c0,1.59,0,3.19.13,4.78A8.47,8.47,0,0,1,43.19,78.17Zm166,134.6q-50.79-44.57-101.35-89.33-24-21.31-48.27-42.39l-.19-.17L57.26,79l-6.82-5.92-1.66-1.44-4.44-3.84L42.8,66.48,31.59,56.8C24.91,51.06,18.2,45.28,11.38,39.64c4.15-3.08,11.36,3.37,14.71,5.69,5.59,3.86,11.09,7.84,16.7,11.68.06,0,.11,0,.05-.09-7-5.5-14-11.07-21.18-16.34-1.92-1.42-4.21-3.11-6.68-3.52a28.44,28.44,0,0,1,10.49-1.85,35.63,35.63,0,0,1,11.21,2.21h0l7.44,5.45c0,1.52,0,3-.05,4.55a.54.54,0,0,0-.16.14.79.79,0,0,0,.1,1.12l0,0c0,.79,0,1.58-.08,2.36l-.06,1.46v0a6.09,6.09,0,0,0,.93,1.09A5.08,5.08,0,0,0,47.33,55,4.25,4.25,0,0,0,50,54.64,3.56,3.56,0,0,0,51,54c0-.26,0-.53,0-.79.06-.89.13-1.78.2-2.67,1.85,1.08,3.68,2.19,5.52,3.29l5.78,3.52.5.3c2.1,1.27,4.18,2.57,6.26,3.85l5.36,3.36-5,1.18-.45.11-1.92.46c-1.1.26-2.22.49-3.34.73h0l-.66.15-.2,0c-.08.25-.16.51-.25.77l-.18.56c-.17.53-.35,1.06-.52,1.59-.09.28-.19.57-.29.85l-2.21-1.88-.75-.64c-2.73-2.3-5.47-4.59-8.23-6.83l-1.24-1-.06.69,1.28,1.23q5.27,5.05,10.68,10l-.36,1c-.23.7-.46,1.4-.66,2.1l1.16,1s0,0,0,0q1.7,1.5,3.47,2.94l.66.53c.11-.31.22-.64.32-1s.12-.36.17-.53c.16-.47.31-1,.45-1.42l6.36,5.76c8,7.27,16.08,14.54,24.19,21.73,29.21,25.88,58.6,51.55,87.83,77.39,25.63,22.65,50.88,45.79,77.12,67.78a53.67,53.67,0,0,0-4.75,5.43C241.54,241.13,225.38,227,209.22,212.77ZM310.77,353.55c-19.76.14-37.8-10.84-49.71-27.14-12.71-17.39-17-42.83-6.73-62.68a48.23,48.23,0,0,1,3.8-6.18c.16-.22.31-.43.48-.64a46.9,46.9,0,0,1,4.81-5.5l.76-.73a49.83,49.83,0,0,1,11.4-8.06l.8-.41A51.26,51.26,0,0,1,285,238.9a31.68,31.68,0,0,0-7.57,4.3c-.21.15-.4.31-.6.47a24.21,24.21,0,0,0-6.32,7.66,21.76,21.76,0,0,0-1.51,3.83c-.07.23-.13.45-.19.68A29.13,29.13,0,0,0,270,272.67a.08.08,0,0,0,0,.1c.09.19.18.38.28.57.23.64.49,1.27.75,1.89a37.17,37.17,0,0,0,7,10.38,70,70,0,0,0,20.71,17.48c11.1,6.18,24.17,9.94,36.94,8.78a40.91,40.91,0,0,0,14.5-4.06l6.05,11.45-.16,0c-4.77,1.28-7.51,7.12-8.4,12.33-.08.42-.14.83-.18,1.24l.93.67c1.1.77,2.23,1.49,3.39,2.17A57,57,0,0,1,310.77,353.55Zm44.71-22.28a18.15,18.15,0,0,0-1.87,4.35l-1.1-.8c-1.29-.92-2.6-1.8-4-2.61a20.56,20.56,0,0,1,2.38-7.59,11.14,11.14,0,0,1,5.26-4.62l.27-.11,3.31,6.29c-.35.3-.7.61-1,.93l-.21.2c-.32.33-.63.67-.94,1A19.7,19.7,0,0,0,355.48,331.27Zm16.08,9.42c-3.37,4.86-10.77,5-12.72-.93a1.82,1.82,0,0,1-.07-.25.66.66,0,0,1-.06-.2c-.36-1.35-.81-2.79-2.29-3.25a2.23,2.23,0,0,0-1.49,0c.2-.72.42-1.44.68-2.13h0a21.93,21.93,0,0,1,3.17-5.86l.17-.22c.37-.48.76-.94,1.18-1.39a.48.48,0,0,0,.35,0,.49.49,0,0,0,.24-.58c.09-.09.16-.17.25-.25.37-.37.76-.73,1.18-1.08h0c-.31.18-.61.37-.91.57l-.64.46-2.5-4.81c.68.6,1.38,1.18,2.1,1.73l.55.42c.37.28.75.58,1.14.86l.54.39h0a5.66,5.66,0,0,0,4.36,4.79c1.32.29,2.71.07,4,.57a4.22,4.22,0,0,1,2.63,3.38A10.68,10.68,0,0,1,371.56,340.69Z"/>
        <path class="cls-10" d="M278.18,277.75a3.27,3.27,0,0,0,4.55-2.43,3,3,0,0,0-1.93-3.22,3,3,0,0,0-3.83.8A3.24,3.24,0,0,0,278.18,277.75Zm-.9-4.63c1.11-1.44,2.92-1.08,4.18-.05a.11.11,0,0,0,.1,0,2.54,2.54,0,0,1,.55,2.47,2.75,2.75,0,0,1-3.94,1.61A2.71,2.71,0,0,1,277.28,273.12Z"/>
        <path class="cls-10" d="M279.72,251a2.91,2.91,0,0,0-.33-.37,2.71,2.71,0,0,0-1-.72,2.89,2.89,0,0,0-3.49.64,2.44,2.44,0,0,0,.9,3.87c1.65.75,3.91.21,4.19-1.8a2.42,2.42,0,0,0-.27-1.53A.07.07,0,0,0,279.72,251Zm-.27,1.45c-.26,1.68-2.09,2.08-3.47,1.46-1.73-.79-1.88-3.24.14-3.8a3.76,3.76,0,0,1,2.71.5A2.16,2.16,0,0,1,279.45,252.45Z"/>
      </g>
    </g>
  </g>
</svg>
