<svg id="Layer_1" data-name="Layer 1" xmlns="http://www.w3.org/2000/svg" width="145.86" height="203.09" viewBox="0 0 145.86 203.09">
  <defs>
    <style>
      .cls-1 {
        opacity: 0.5;
      }

      .cls-2 {
        fill: #fff;
      }

      .cls-3 {
        fill: #c6fcfc;
      }

      .cls-10, .cls-3, .cls-4, .cls-5, .cls-6, .cls-7, .cls-8, .cls-9 {
        stroke: #444949;
        stroke-miterlimit: 10;
      }

      .cls-3, .cls-4, .cls-5, .cls-6, .cls-7, .cls-8 {
        opacity: 0.62;
      }

      .cls-4 {
        fill: #e87e6d;
      }

      .cls-5 {
        fill: #fcf6f6;
      }

      .cls-6 {
        fill: #ce5434;
      }

      .cls-7 {
        fill: #dd6b54;
      }

      .cls-8 {
        fill: #cff8fe;
      }

      .cls-9 {
        fill: #fcd43c;
      }

      .cls-10 {
        fill: #d9b735;
      }

      .cls-11 {
        fill: #f4f4f4;
      }
    </style>
  </defs>
  <g>
    <path class="cls-1" d="M141.46,45a9.74,9.74,0,0,0-7.78-3.89,9.64,9.64,0,0,0-5.83,1.94L109.52,56.8A9.67,9.67,0,0,0,108,58.29l-3.74-3.86A9.63,9.63,0,0,0,106,51.35l8.18-23.24a9.74,9.74,0,0,0-5.94-12.41,9.87,9.87,0,0,0-3.23-.55,9.73,9.73,0,0,0-9.17,6.5L87.65,44.89a9.7,9.7,0,0,0-.53,3.89H84.69a9.63,9.63,0,0,0,.46-3V18.56a9.72,9.72,0,1,0-19.44,0V45.83a9.63,9.63,0,0,0,.46,3H63.73a9.64,9.64,0,0,0-.52-3.88L55,21.64a9.75,9.75,0,0,0-9.17-6.49,9.87,9.87,0,0,0-3.23.55,9.74,9.74,0,0,0-6,12.4l8.18,23.24a9.76,9.76,0,0,0,1.78,3.09L42.9,58.29a9.77,9.77,0,0,0-1.58-1.5L23,43.05a9.66,9.66,0,0,0-5.83-1.94A9.79,9.79,0,0,0,9.4,45a9.7,9.7,0,0,0,1.94,13.6L29.65,72.34a9.37,9.37,0,0,0,2.61,1.39,8,8,0,0,0,1.83,4L52.4,99.18a52.71,52.71,0,1,0,46.05,0l18.3-21.41a8,8,0,0,0,1.83-4,10,10,0,0,0,2.63-1.39l18.3-13.74a9.73,9.73,0,0,0,2-13.61Zm-66,126.2a24.65,24.65,0,1,1,24.64-24.64A24.67,24.67,0,0,1,75.43,171.2Z"/>
    <path class="cls-2" d="M136.46,40a9.74,9.74,0,0,0-7.78-3.89,9.64,9.64,0,0,0-5.83,1.94L104.52,51.8A9.67,9.67,0,0,0,103,53.29l-3.74-3.86A9.63,9.63,0,0,0,101,46.35l8.18-23.24a9.74,9.74,0,0,0-5.94-12.41,9.87,9.87,0,0,0-3.23-.55,9.73,9.73,0,0,0-9.17,6.5L82.65,39.89a9.7,9.7,0,0,0-.53,3.89H79.69a9.63,9.63,0,0,0,.46-3V13.56a9.72,9.72,0,1,0-19.44,0V40.83a9.63,9.63,0,0,0,.46,3H58.73a9.64,9.64,0,0,0-.52-3.88L50,16.64a9.75,9.75,0,0,0-9.17-6.49,9.87,9.87,0,0,0-3.23.55,9.74,9.74,0,0,0-6,12.4l8.18,23.24a9.76,9.76,0,0,0,1.78,3.09L37.9,53.29a9.77,9.77,0,0,0-1.58-1.5L18,38.05a9.66,9.66,0,0,0-5.83-1.94A9.79,9.79,0,0,0,4.4,40,9.7,9.7,0,0,0,6.34,53.6L24.65,67.34a9.37,9.37,0,0,0,2.61,1.39,8,8,0,0,0,1.83,4L47.4,94.18a52.71,52.71,0,1,0,46.05,0l18.3-21.41a8,8,0,0,0,1.83-4,10,10,0,0,0,2.63-1.39l18.3-13.74a9.73,9.73,0,0,0,2-13.61Zm-66,126.2a24.65,24.65,0,1,1,24.64-24.64A24.67,24.67,0,0,1,70.43,166.2Z"/>
    <g id="ring">
      <g>
        <g>
          <polygon class="cls-3" points="105.67 67.57 90.33 51.78 84.82 67.57 105.67 67.57"/>
          <polygon class="cls-4" points="84.82 67.57 90.33 51.78 70.42 51.78 50.52 51.78 56.03 67.57 84.82 67.57"/>
          <polygon class="cls-5" points="50.52 51.78 35.17 67.57 56.03 67.57 50.52 51.78"/>
          <polygon class="cls-6" points="84.82 67.57 70.42 108.8 105.67 67.57 105.67 67.57 84.82 67.57"/>
          <polygon class="cls-7" points="35.17 67.57 35.17 67.57 70.42 108.8 56.03 67.57 35.17 67.57"/>
          <polygon class="cls-8" points="56.03 67.57 70.42 108.8 84.82 67.57 56.03 67.57"/>
        </g>
        <path class="cls-9" d="M70.43,96.86a44.7,44.7,0,1,0,44.7,44.7A44.75,44.75,0,0,0,70.43,96.86Zm0,83a38.25,38.25,0,1,1,38.25-38.25A38.26,38.26,0,0,1,70.42,179.81Z"/>
        <path class="cls-10" d="M70.42,103.31a38.25,38.25,0,1,0,38.25,38.25A38.25,38.25,0,0,0,70.42,103.31Zm0,70.89a32.65,32.65,0,1,1,32.64-32.64A32.68,32.68,0,0,1,70.43,174.2Z"/>
        <path class="cls-11" d="M70.43,42.55a1.72,1.72,0,0,1-1.72-1.72V13.56a1.72,1.72,0,1,1,3.44,0V40.83A1.72,1.72,0,0,1,70.43,42.55Z"/>
        <path class="cls-11" d="M91.82,44.85a1.63,1.63,0,0,1-.57-.1,1.72,1.72,0,0,1-1-2.2L98.37,19.3a1.72,1.72,0,0,1,3.25,1.14L93.44,43.7A1.72,1.72,0,0,1,91.82,44.85Z"/>
        <path class="cls-11" d="M110.37,61.29a1.72,1.72,0,0,1-1-3.1l18.32-13.74a1.72,1.72,0,1,1,2.06,2.76L111.4,61A1.72,1.72,0,0,1,110.37,61.29Z"/>
        <path class="cls-11" d="M49,44.85a1.74,1.74,0,0,1-1.63-1.15L39.23,20.44a1.72,1.72,0,0,1,3.25-1.14l8.18,23.25a1.73,1.73,0,0,1-1,2.2A1.63,1.63,0,0,1,49,44.85Z"/>
        <path class="cls-11" d="M30.48,61.29a1.74,1.74,0,0,1-1-.34L11.14,47.21a1.73,1.73,0,0,1,2.07-2.76L31.52,58.19a1.72,1.72,0,0,1-1,3.1Z"/>
      </g>
    </g>
  </g>
</svg>
