<svg id="Layer_1" data-name="Layer 1" xmlns="http://www.w3.org/2000/svg" width="360.15" height="352.34" viewBox="0 0 360.15 352.34">
  <defs>
    <style>
      .cls-1 {
        fill: #ff0;
      }

      .cls-10, .cls-2 {
        fill: #fba96a;
      }

      .cls-16, .cls-17, .cls-19, .cls-2, .cls-24, .cls-29 {
        stroke: #000;
      }

      .cls-11, .cls-12, .cls-13, .cls-14, .cls-16, .cls-17, .cls-18, .cls-19, .cls-2, .cls-21, .cls-24, .cls-29, .cls-3, .cls-4, .cls-6, .cls-7 {
        stroke-miterlimit: 10;
      }

      .cls-12, .cls-13, .cls-16, .cls-18, .cls-19, .cls-2 {
        stroke-width: 0.5px;
      }

      .cls-3, .cls-4 {
        fill: #f29e64;
      }

      .cls-11, .cls-12, .cls-13, .cls-14, .cls-18, .cls-21, .cls-3, .cls-4, .cls-6, .cls-7 {
        stroke: #892929;
      }

      .cls-11, .cls-14, .cls-17, .cls-21, .cls-3, .cls-6, .cls-7 {
        stroke-width: 0.75px;
      }

      .cls-5 {
        fill: #3d0000;
      }

      .cls-23, .cls-29, .cls-6 {
        fill: #fff;
      }

      .cls-12, .cls-24, .cls-7, .cls-9 {
        fill: none;
      }

      .cls-13, .cls-14, .cls-8 {
        fill: #fec400;
      }

      .cls-11 {
        fill: #f4904d;
      }

      .cls-15, .cls-16, .cls-18 {
        fill: #fba15c;
      }

      .cls-17, .cls-19, .cls-22 {
        fill: #e0000c;
      }

      .cls-20 {
        fill: #c10517;
      }

      .cls-21 {
        fill: #6d4429;
      }

      .cls-24 {
        stroke-width: 0.33px;
      }

      .cls-25 {
        fill: #d1342d;
      }

      .cls-26 {
        fill: #e56f4b;
      }

      .cls-27 {
        fill: #3b0202;
      }

      .cls-28 {
        fill: #ff8a66;
      }

      .cls-29 {
        stroke-width: 0.31px;
      }
    </style>
  </defs>
  <g>
    <path class="cls-1" d="M355.94,334.12C351.45,324,345.43,311,341.46,304.69L340.37,302A287.64,287.64,0,0,0,322.73,265c.23-11-2.36-24.85-3.26-29.29l0-.22a11.31,11.31,0,0,0-6.41-8.18l-4.73-2.18a11.43,11.43,0,0,0-2.68-.84c-4.15-.77-16.14-3.1-21.61-4.66a144.3,144.3,0,0,0-20.15-3.92l-3-.44a16.36,16.36,0,0,0-3.15-1.75c-2.38-1-5.4-1.6-10.72-1.95,6.64-2.39,12.7-6.57,16.2-13.13,9.91-18-12-39-12.23-39.24s-.33-.3-.51-.44A23.68,23.68,0,0,0,256.4,153c7.4-6.24,9.6-19.32,9.75-24.4.2-6.39-1.44-11.76-4.59-15.59,7.89-19.47,6.2-41.62-5-62.78,1.42-6,.44-12.75-3-19.24C244.21,13,220.47,2.3,190.11,2.3l-2.34,0a11.5,11.5,0,0,0-1.18.08c-40.16,4.9-67.91,18.46-82.46,40.28-9.25,13.89-12.9,30.84-10.82,49.73a12.45,12.45,0,0,0-2.06,2,13.34,13.34,0,0,0-8.35,5C81,101.85,79.16,106,80.73,112.2a12.76,12.76,0,0,0,.86,15.42A13.29,13.29,0,0,0,84.06,130a24.08,24.08,0,0,0-.17,6,25,25,0,0,0,1.36,6c-.2.21-.38.42-.56.64a11.31,11.31,0,0,0-2.42,9.05,21.65,21.65,0,0,0,5,11.46A27.44,27.44,0,0,0,86,171.35a28.31,28.31,0,0,0,14.32,24.42,11.41,11.41,0,0,0,2.63,1.09,70.26,70.26,0,0,0,8.6,1.84c0,.61,0,1.24,0,1.89a17.29,17.29,0,0,0,7.54,13.73l-1.49,1.14a38.72,38.72,0,0,1-6.49.9,38,38,0,0,0-23.86,1.92c-14.78,1-28.43,8.08-38.6,20.05l0,0c-4.44,6.11-24,43.36-32.26,61.15C4.75,324.65,3.24,333.66,3.24,338.71A11.33,11.33,0,0,0,14.57,350h331a11.34,11.34,0,0,0,10.36-15.92ZM236.5,186.79h0a12,12,0,0,0-.45-2.53,11.32,11.32,0,0,0-3.36-5.58c.46-.59.91-1.19,1.34-1.8A21,21,0,0,1,236.5,186.79Z"/>
    <g>
      <path class="cls-2" d="M236.08,122.52c-3.08-11.76-9.25-37.54-8-54.12,0,.36-10.25-1.65-13.72-6.4.18.18-96.68-7.1-87.53,70.18l-.09-.09c-1.26-1.15-11.72-5.2-14.17-11.07a13,13,0,0,0-5.84,1c-10.36,4.22-7.16,21.51,7,27.65a11.6,11.6,0,0,0,9,1.17,68,68,0,0,0,11.69,21.74c.91,1.11,1.86,2.2,2.87,3.28h0A56.54,56.54,0,0,0,144,182a51.76,51.76,0,0,0,9.69,5.86c9.26,4.3,21.05,6.47,36,4.34a69.76,69.76,0,0,0,12.91-4.54c11.28-5.17,26.29-15.44,29.19-34.23C227.24,137.34,233.39,126.34,236.08,122.52ZM122.25,149.24a4.4,4.4,0,0,1-3.66,1.86,3.91,3.91,0,1,1,4.29-3.9A3.67,3.67,0,0,1,122.25,149.24ZM189,132.18a3.88,3.88,0,1,1-3.88,3.88A3.88,3.88,0,0,1,189,132.18Zm-50.86-18.63c0-6.92,6.55-12.52,14.63-12.52s14.63,5.6,14.63,12.52-6.55,12.52-14.63,12.52S138.09,120.47,138.09,113.55Zm67.66,12.52c-8.09,0-14.64-5.6-14.64-12.52S197.66,101,205.75,101s14.63,5.6,14.63,12.52S213.83,126.07,205.75,126.07Z"/>
      <path class="cls-3" d="M202,338.71H181.26s-1.48-17.37,0-21.27c.94-11.55-.27-20.69,0-21.36-1.62-7.4-1.35-16,1.47-13.43l0,.05a31.64,31.64,0,0,0-1.51-5.44c-.5-.92-1-4.29-1.23-7.75v0a38.61,38.61,0,0,0,0-6.38v0a8.92,8.92,0,0,1,.24-1.41c.27-1,1.46.27,3,2.71-.4-2.33-1.13-6.12-.45-8.35a2.22,2.22,0,0,1,2.82-1.72l.06.06c1.7,1.7,4.84,8,7.78,15.28a139,139,0,0,1,5.66,16.64,40.42,40.42,0,0,1,1,5.35c.48,4.4,1.18,13.27,1.65,22.41C202.35,323.53,202.58,333.32,202,338.71Z"/>
      <path class="cls-4" d="M180,263.1a38.61,38.61,0,0,0,0,6.38v0c-.23,3.46-.73,6.83-1.23,7.75a31.64,31.64,0,0,0-1.51,5.44l0-.05c2.83-2.57,3.1,6,1.48,13.43.27.67-.94,9.81,0,21.36,1.48,3.9,0,21.27,0,21.27H158c-.51-5.06-.33-14,.09-22.88.3-6.42.74-12.84,1.15-17.8.2-2.59.41-4.79.58-6.39.68-6.42,5.07-18.7,9-27.51,2.19-4.84,4.24-8.63,5.48-9.82,2.7-.49,3.23,2,3.09,4.85a45.45,45.45,0,0,1-.72,5.22c1.6-2.44,2.79-3.7,3.06-2.71a8.92,8.92,0,0,1,.24,1.41Z"/>
      <path class="cls-5" d="M246.22,118.05l-.35.55a70.32,70.32,0,0,1-8.11,10.16c0-.1-.67-2.43-1.68-6.24-3.08-11.76-9.25-37.54-8-54.12,0,.36-10.25-1.65-13.72-6.4.18.18-96.68-7.1-87.53,70.18l-.09-.09c-1.26-1.15-11.72-5.2-14.17-11.07-.73-1.74-1.49-3.67-2.25-5.76-.88-2.47-1.76-5.16-2.57-8h0C99.07,76.29,98.8,24.53,188,13.65c48.62-.83,63.54,26.52,56.08,37.29C243.29,50.69,268,84.06,246.22,118.05Z"/>
      <ellipse class="cls-6" cx="152.72" cy="113.55" rx="14.63" ry="12.52"/>
      <ellipse class="cls-5" cx="152.65" cy="112.58" rx="8.33" ry="8.45"/>
      <path class="cls-6" d="M220.38,113.55c0,6.92-6.55,12.52-14.63,12.52s-14.64-5.6-14.64-12.52S197.66,101,205.75,101,220.38,106.63,220.38,113.55Z"/>
      <ellipse class="cls-5" cx="205.68" cy="112.58" rx="8.33" ry="8.45"/>
      <path class="cls-7" d="M125.41,149.71a9.54,9.54,0,0,1-2.69,1.17"/>
      <path class="cls-7" d="M122.73,127.56s-3.54-6.1-10.17-6.54"/>
      <path class="cls-7" d="M122.25,149.24c-.08-.26-.11-.4-.11-.4"/>
      <path class="cls-5" d="M122.72,150.88a11.6,11.6,0,0,1-9-1.17c-14.21-6.14-17.41-23.43-7-27.65a13,13,0,0,1,5.84-1c-.73-1.74-1.49-3.67-2.25-5.76a52.94,52.94,0,0,0-5.08,3.17h0a37.66,37.66,0,0,0-3.35,2.64h0c-16.07,14.27,1.43,27,2.77,27.77a4.64,4.64,0,0,1,1.27,1.61c1.37,0,2.29,0,2.36,0l.34-.67c9.08.67,2.44,6.47,2.44,6.47a20.49,20.49,0,0,0-2.78-.75c-.41.21-.82.41-1.21.59-14,8.05-11.52,23.92-1.1,29.87,25.88,7.1,28.38-6.73,28.46-13.31A68,68,0,0,1,122.72,150.88Zm-4.13,14.57a3.91,3.91,0,1,1,4.29-3.89A4.11,4.11,0,0,1,118.59,165.45Z"/>
      <path class="cls-8" d="M105.22,118.43a37.66,37.66,0,0,0-3.35,2.64h0c-2.93.33-9.71,1.55-11.54-.66-2-2.5,3.27-4.2,7.21-4.57A29.23,29.23,0,0,0,105.22,118.43Z"/>
      <path class="cls-9" d="M98.66,115.76c-.36,0-.74,0-1.13.08"/>
      <path class="cls-9" d="M101.87,121.07a3.59,3.59,0,0,1,1.3,0"/>
      <path class="cls-9" d="M102,109.58a9.85,9.85,0,0,0-1.94-1.68h0"/>
      <path class="cls-9" d="M107,118.73c-.17,0-.82-.11-1.76-.3"/>
      <path class="cls-9" d="M109.6,109.46c-.57-.7-1.2-1.47-1.86-2.24"/>
      <path class="cls-8" d="M110.31,115.26a52.94,52.94,0,0,0-5.08,3.17h0a29.23,29.23,0,0,1-7.69-2.59c-2.64-1.39-5-3.39-5.77-6.26-1.67-6.09,4.57-4.25,8.29-1.69-.73-2.26-1.64-6.26,1-6.86,1.41.17,4.23,3.25,6.7,6.18h0C108.55,110.1,109.43,112.79,110.31,115.26Z"/>
      <path class="cls-9" d="M100.63,109.46s-.27-.64-.58-1.56h0"/>
      <path class="cls-8" d="M111,156.22a20.49,20.49,0,0,0-2.78-.75c-.41.21-.82.41-1.21.59-13,5.9-13.52-6.31-13.6-6.31,1.48.86,8.65.78,12.45.7,1.37,0,2.29,0,2.36,0l.34-.67C117.68,150.42,111,156.22,111,156.22Z"/>
      <path class="cls-5" d="M144,182c1.22,20-9.71,8.51-14.42,13.41-4.07,2.72,1.82,10.86,1.82,10.86s-8.15.9-8.51-6.24,5.07-9.32,11.52-9.23c5.53-.52,3.74-10.95,2.86-14.87Z"/>
      <path class="cls-5" d="M243.27,167.56c-2.15-1.29-5.89-6.28-5.69-17.95a3.15,3.15,0,0,0,.33.22c-1.61-3.73-3.8-11.54-.18-21.6l0,.06c0-.09-.67-2.42-1.67-6.23-2.7,3.81-8.85,14.82-4.31,30.88a47.33,47.33,0,0,0,1.61,4.79c15.81,14.56,16.25,30.62,12.79,36s-24,9.81-21-6.62c-.67.37-7.27.65-6.71,10,1.12,8.34,28.39,8.34,34.86-4C258.46,183.74,245,169.18,243.27,167.56Z"/>
      <path class="cls-10" d="M249.81,118.27a12,12,0,0,0-3.59-.45l-.35.55a68.88,68.88,0,0,1-8.06,10.09c-3.62,10.06-1.43,17.87.18,21.6h0c4.83,2.92,10.25-4.56,9.84-5.11C252.84,143.9,259.67,121,249.81,118.27Z"/>
      <path class="cls-11" d="M245.27,143.44c-3.61,3.86-5.23-2-5.05-3.13,1.13-2.92-.5-3.44-1.57-4.45a2.32,2.32,0,0,1-.81-1.58,2.94,2.94,0,0,1,.64-1.37c1.93-2.66,7.58-6.22,8-5.77C251.27,132.11,248.89,139.58,245.27,143.44Z"/>
      <path class="cls-7" d="M225.17,187.44c.05.05.05.08,0,.11A.45.45,0,0,1,225.17,187.44Z"/>
      <path class="cls-12" d="M169,142.5a3.42,3.42,0,0,0,3.39,1.25c.18.06,4.24,3.45,11,.08.17,0,3.16.42,4.47-1.33"/>
      <circle class="cls-13" cx="188.95" cy="136.06" r="3.88"/>
      <path class="cls-8" d="M122.88,147.2a3.67,3.67,0,0,1-.63,2,4.4,4.4,0,0,1-3.66,1.86,3.91,3.91,0,1,1,4.29-3.9Z"/>
      <path class="cls-8" d="M122.88,161.56a4.32,4.32,0,1,1-4.29-3.9A4.1,4.1,0,0,1,122.88,161.56Z"/>
      <path class="cls-14" d="M183.32,264.38c-1.59-2.44-2.78-3.7-3-2.71a8.92,8.92,0,0,0-.24,1.41,8.92,8.92,0,0,0-.24-1.41c-.27-1-1.46.27-3.06,2.71a45.45,45.45,0,0,0,.72-5.22c1.8-1,3.62-2.08,5.42-3.13C182.19,258.26,182.92,262.05,183.32,264.38Z"/>
      <path class="cls-15" d="M213.71,238.42c-5.7,3.16-16.55,9.37-28,16l-.06-.06a2.22,2.22,0,0,0-2.82,1.72c-1.8,1.05-3.62,2.09-5.42,3.13.14-2.85-.39-5.34-3.09-4.85-1.24,1.19-3.29,5-5.48,9.82l-20.73,12.05h0c-9.18-25.26-11.71-55.07-11.71-55.07a19,19,0,0,0,7.64-2.11c.4-.21.79-.44,1.16-.68,0,.24.07.49.11.74,1.51,7.66,15,16.94,23.23,18.23-1.68,1-2.71,2.41-2.71,3.94,0,3.17,4.51,5.75,10.07,5.75S186,244.4,186,241.23c0-1.61-1.15-3.07-3-4.11,6.69-.84,13.64-2.78,18-6.44a26.14,26.14,0,0,0,9.17-15.34,15.29,15.29,0,0,0,2,1.26h0C213.32,219.22,215.22,225.83,213.71,238.42Z"/>
      <path class="cls-16" d="M175.56,231.8c-17.8-.13-25.53-17.55-25.74-18h0a19.15,19.15,0,0,0,1.38-2.36c3.93-7.89,3.17-18.5,2.5-23.58,9.26,4.3,21.05,6.47,36,4.34a69.76,69.76,0,0,0,12.91-4.54c-.62,5.07-1.08,14.32,2.45,21.43a15.67,15.67,0,0,0,.88,1.6C206.47,216.84,193.58,231.94,175.56,231.8Z"/>
      <path class="cls-14" d="M210.29,214.22a7.1,7.1,0,0,1-.1,1.12A26.14,26.14,0,0,1,201,230.68c-4.39,3.66-11.34,5.6-18,6.44,1.86,1,3,2.5,3,4.11,0,3.17-4.51,5.75-10.07,5.75s-10.07-2.58-10.07-5.75c0-1.53,1-2.9,2.71-3.94-8.2-1.29-21.72-10.57-23.23-18.23,0-.25-.09-.5-.11-.74-.63-5.13,3.49-6.52,6-6.9a19.15,19.15,0,0,1-1.38,2.36h0c.21.46,7.94,17.88,25.74,18,18,.14,30.91-15,30.36-21.13a15.67,15.67,0,0,1-.88-1.6c2.69,1,5.09,3,5.25,4.56A3.84,3.84,0,0,1,210.29,214.22Z"/>
      <path class="cls-17" d="M135.52,283.64c-7.77,4.74-28.54,17.88-45.59,31.88A145.48,145.48,0,0,0,73.3,331.13c-22.53-6.78-39.68-20.62-46.57-26.84,12.6-27,30.5-58.55,30.58-58.63,14.67-17.25,32.4-16,32.75-16.2a26.77,26.77,0,0,1,19.4-1.83,1.57,1.57,0,0,1,0,.23c1.55,9.77,7.89,41.93,25.61,54.85Z"/>
      <path class="cls-16" d="M73.3,331.13a51.74,51.74,0,0,0-5.67,7.58H14.57c0-6.3,5.3-19.7,12.16-34.42C33.62,310.51,50.77,324.35,73.3,331.13Z"/>
      <path class="cls-7" d="M109.46,227.63l.57.18a3.85,3.85,0,0,0,.46.13"/>
      <path class="cls-14" d="M147.38,304.05c-7,5.36-27.57,21-40.26,34.66H67.63a51.74,51.74,0,0,1,5.67-7.58,145.48,145.48,0,0,1,16.63-15.61c17-14,37.82-27.14,45.59-31.88A101.08,101.08,0,0,0,147.38,304.05Z"/>
      <path class="cls-7" d="M89.93,315.52c0-3.79-.19-9.94-.43-16.91-.65-18.69-1.81-43.17-2.12-43.17"/>
      <path class="cls-7" d="M89.5,298.61c-5.76-2.56-6.73-29.37-6.73-29.37"/>
      <path class="cls-14" d="M159.26,298c-.41,5-.85,11.38-1.15,17.8a85.21,85.21,0,0,1-10.73-11.78,101.08,101.08,0,0,1-11.86-20.41l-.41-.93c-10.53-24.52-11.27-49.52-11.19-57.8,3.61-2.69,11-9,17.26-8.73.08-.27,1.94,1.76,2.89,2.82a19,19,0,0,1-7.64,2.11s2.53,29.81,11.71,55.07h0C151.1,284.32,154.76,292,159.26,298Z"/>
      <path class="cls-16" d="M135.11,282.71c-17.72-12.92-24.06-45.08-25.61-54.85l.53-.05c2.76-.24,10.78-.6,13.77-2.81l.12-.09C123.84,233.19,124.58,258.19,135.11,282.71Z"/>
      <path class="cls-7" d="M109.5,227.86a1,1,0,0,0-.41.1"/>
      <path class="cls-14" d="M201.87,314.05c-.47-9.14-1.17-18-1.65-22.41a40.42,40.42,0,0,0-1-5.35A212.32,212.32,0,0,0,211.41,251a111.39,111.39,0,0,0,2.3-12.56c1.51-12.59-.39-19.2-1.52-21.82h0a15.29,15.29,0,0,1-2-1.26,7.1,7.1,0,0,0,.1-1.12c4.21.49,11.37,2.41,15.19,5.94a15.2,15.2,0,0,1,.48,2.39,69.22,69.22,0,0,1,.63,8.4C226.91,246.12,223.77,276.17,201.87,314.05Z"/>
      <path class="cls-18" d="M234.05,225.44c-1.91,1.57-4.7,3.61-7.46,5.51a69.22,69.22,0,0,0-.63-8.4C227.88,223.32,231.42,224.69,234.05,225.44Z"/>
      <path class="cls-9" d="M236.46,226a15.46,15.46,0,0,1-2.41-.52"/>
      <path class="cls-9" d="M226,222.55c-.85-.33-1.39-.56-1.39-.56"/>
      <path class="cls-19" d="M308.39,238.1a164.87,164.87,0,0,0-6.15,16.78c-4.52,14.11-11.19,38.09-20,77.87-.43,1.95-.87,3.93-1.31,6H202c.54-5.39.31-15.18-.17-24.66,21.9-37.88,25-67.93,24.72-83.1,2.76-1.9,5.55-3.94,7.46-5.51a12.15,12.15,0,0,0,2.41-2.36q.14-.27.27-.51c4.33.08,13.82.25,16.52,1.41,3.45,1.47-1.28,1.47,6.53,2.62s14,1.92,21.12,4,22.66,4.9,22.66,4.9l4.74,2.17Z"/>
      <path class="cls-20" d="M311.23,267.86a114.27,114.27,0,0,0-9-13,164.87,164.87,0,0,1,6.15-16.78C309,241,312.22,257.75,311.23,267.86Z"/>
      <path class="cls-12" d="M311.23,267.87c0,.42-.08.84-.15,1.24"/>
      <path class="cls-2" d="M345.58,338.71H281c.44-2,.88-4,1.31-6,8.48-3.19,30.85-12.42,47.6-26.57q.74,1.83,1.47,3.72C335.08,315.35,342.61,332,345.58,338.71Z"/>
      <path class="cls-19" d="M329.86,306.18c-16.75,14.15-39.12,23.38-47.6,26.57,8.79-39.78,15.46-63.76,20-77.87a114.27,114.27,0,0,1,9,13h0C316.56,276.63,323,289,329.86,306.18Z"/>
      <path class="cls-12" d="M296.45,249c.23,0,2.34,1.59,5.79,5.84"/>
      <path class="cls-9" d="M221.33,54.58c-1.3-.65-89.56-37.56-108,61.18"/>
      <path class="cls-9" d="M221.33,49.33c-.42,0-50.65-43.33-94.94,10.23"/>
      <path class="cls-9" d="M234.72,48.85c-.71-.24-8-38.68-46.87-32.38"/>
      <path class="cls-9" d="M238.38,48.85s1-22.48-16-28.33"/>
      <path class="cls-9" d="M232.16,64.33s9.41,24.69,6.22,50"/>
      <path class="cls-9" d="M240.51,64.33s9,17.58,4,41.17"/>
      <path class="cls-9" d="M248,64.33a64.93,64.93,0,0,1,0,35"/>
      <path class="cls-7" d="M170.2,314.08s3.6-27.32,7.09-31.38"/>
      <path class="cls-7" d="M176.73,264.38h0c-3.75,5.75-9.68,18.09-10.87,23.08-1.71,7.13-2.38,17.48-3.18,21"/>
      <line class="cls-7" x1="176.73" y1="264.39" x2="176.73" y2="264.38"/>
      <path class="cls-14" d="M168.88,264.13c-4,8.81-8.36,21.09-9,27.51-.17,1.6-.38,3.8-.58,6.39-4.5-6-8.16-13.71-11.11-21.85Z"/>
      <path class="cls-7" d="M182.77,282.7c3.49,4.06,7.09,31.38,7.09,31.38"/>
      <path class="cls-7" d="M197.38,308.44c-.8-3.49-1.47-13.84-3.18-21-1.19-5-7.13-17.33-10.88-23.08h0"/>
      <line class="cls-7" x1="183.32" y1="264.39" x2="183.32" y2="264.38"/>
      <path class="cls-14" d="M213.71,238.42a111.39,111.39,0,0,1-2.3,12.56c-5.3,5.41-14.24,14.61-17.88,18.67-2.94-7.24-6.08-13.58-7.78-15.28C197.16,247.79,208,241.58,213.71,238.42Z"/>
      <path class="cls-19" d="M211.41,251a212.32,212.32,0,0,1-12.22,35.31,139,139,0,0,0-5.66-16.64C197.17,265.59,206.11,256.39,211.41,251Z"/>
      <path class="cls-19" d="M158,338.71h-50.9c12.69-13.69,33.23-29.3,40.26-34.66a85.21,85.21,0,0,0,10.73,11.78C157.69,324.74,157.51,333.65,158,338.71Z"/>
      <path class="cls-21" d="M182.77,282.7l0-.05c-2.82-2.57-3.09,6-1.47,13.43-.27.67.94,9.81,0,21.36-1.48,3.9,0,21.27,0,21.27H178.8s1.48-17.37,0-21.27c-.94-11.55.27-20.69,0-21.36,1.62-7.4,1.35-16-1.48-13.43l0,.05a31.64,31.64,0,0,1,1.51-5.44c.5-.92,1-4.29,1.23-7.75.23,3.46.73,6.83,1.23,7.75A31.64,31.64,0,0,1,182.77,282.7Z"/>
      <path class="cls-11" d="M112.51,143.07c3.62,3.86,5.24-2,5.06-3.13-1.57-4.06,2.2-3.5,2.38-6-.27-2.54-8.13-7.68-8.65-7.14C106.51,131.74,108.9,139.2,112.51,143.07Z"/>
      <path class="cls-5" d="M191.11,97.22V94.09s29.93-13.6,36.07,1.57C227.31,95.26,217,85.2,191.11,97.22Z"/>
      <path class="cls-5" d="M168.29,97.22V94.09s-29.93-13.6-36.07,1.57C132.09,95.26,142.41,85.2,168.29,97.22Z"/>
      <circle class="cls-22" cx="180.03" cy="95.66" r="2.81"/>
      <g>
        <path class="cls-5" d="M220.31,113.55a10.64,10.64,0,0,1-.07,1.26c-.73-6.34-7-11.28-14.56-11.28s-13.83,4.94-14.56,11.28a8.88,8.88,0,0,1-.08-1.26c0-6.92,6.55-12.52,14.64-12.52S220.31,106.63,220.31,113.55Z"/>
        <path class="cls-5" d="M223,103.88a2.66,2.66,0,0,1-1.77,3.28,2.32,2.32,0,0,1-.37.13,2.56,2.56,0,0,1-3.2-1.18,1.62,1.62,0,0,1-.12-.43,2.55,2.55,0,0,0,2.34.92,3.67,3.67,0,0,0,1-.26,2.78,2.78,0,0,0,1.89-2.84A1.79,1.79,0,0,1,223,103.88Z"/>
        <path class="cls-5" d="M222,103c.38.91-.5,2.15-2,2.76a2.6,2.6,0,0,1-.36.13c-1.36.44-2.65.17-3-.67a1.14,1.14,0,0,1-.08-.33,2.32,2.32,0,0,0,2.19.53,4.09,4.09,0,0,0,1-.28c1.31-.55,2.15-1.57,2.07-2.43A.92.92,0,0,1,222,103Z"/>
        <path class="cls-5" d="M225.13,105c.49,1.2-.59,2.79-2.44,3.56a3.57,3.57,0,0,1-.46.16c-1.68.54-3.31.16-3.77-.94a1.3,1.3,0,0,1-.11-.43,3,3,0,0,0,2.76.74,5.25,5.25,0,0,0,1.24-.35c1.63-.68,2.67-2,2.54-3.12A1.36,1.36,0,0,1,225.13,105Z"/>
      </g>
      <g>
        <path class="cls-5" d="M138.08,111.68a10.39,10.39,0,0,0,.08,1.26c.73-6.34,7-11.27,14.56-11.27s13.83,4.93,14.56,11.27a10.39,10.39,0,0,0,.08-1.26c0-6.91-6.55-12.52-14.64-12.52S138.08,104.77,138.08,111.68Z"/>
        <path class="cls-5" d="M135.42,102a2.66,2.66,0,0,0,1.77,3.28,2.29,2.29,0,0,0,.37.12,2.56,2.56,0,0,0,3.2-1.18,1.66,1.66,0,0,0,.12-.42,2.54,2.54,0,0,1-2.34.91,3.33,3.33,0,0,1-1-.25,2.8,2.8,0,0,1-1.89-2.85A1.87,1.87,0,0,0,135.42,102Z"/>
        <path class="cls-5" d="M136.41,101.08c-.38.91.51,2.15,2,2.77l.36.13c1.35.44,2.65.16,3-.68a.88.88,0,0,0,.07-.33,2.32,2.32,0,0,1-2.18.54,4.63,4.63,0,0,1-1-.29c-1.31-.54-2.15-1.57-2.07-2.43A1.75,1.75,0,0,0,136.41,101.08Z"/>
        <path class="cls-5" d="M133.27,103.13c-.49,1.19.59,2.78,2.44,3.55l.45.17c1.69.54,3.32.15,3.78-.95a1.24,1.24,0,0,0,.11-.43,2.93,2.93,0,0,1-2.76.74,4.81,4.81,0,0,1-1.24-.35c-1.64-.68-2.67-2-2.55-3.11A1.6,1.6,0,0,0,133.27,103.13Z"/>
      </g>
      <ellipse class="cls-23" cx="210.85" cy="107.43" rx="3.82" ry="1.84"/>
      <ellipse class="cls-23" cx="157.16" cy="106.5" rx="3.82" ry="1.84"/>
      <path class="cls-24" d="M169.45,178.4a26.12,26.12,0,0,1,21.83,0"/>
      <g>
        <path class="cls-25" d="M200.15,157.35l-.18.16a21.26,21.26,0,0,1-2,.91,44.39,44.39,0,0,1-15.14,3.05h-.87c-8.51-.25-15-1.1-20.05-3-.51-.2-1-.4-1.48-.62h0a0,0,0,0,0,0,0l.54.11h0l1,.19a32.47,32.47,0,0,0,10.77.09c9.32-.41,14.18.08,14.93,0s5.46,1.69,11.2-.4l.66-.25Z"/>
        <path class="cls-26" d="M200.32,157.35c-.43.73-.87,1.42-1.32,2.06l0,0,0,0h0c-.27.4-.56.77-.84,1.14-5.23,6.68-11.57,8.54-13.66,8.53-1.34,0,0,0-4.44-.27-10.57.64-17.87-8.77-19.5-11.1a.59.59,0,0,1-.08-.11l.19.07h0c5.2,2.36,12.15,3.37,21.53,3.64a42.69,42.69,0,0,0,18-3.95h0Z"/>
        <g>
          <path class="cls-25" d="M162.25,158.36c-.84-.14-1.4-.26-1.59-.3h0l-.2-.07h0v0c-1.1-.27-1.74,1-2.33.94s-1.34-1.46-.61-2.14c.52-.49,1.66-.13,2.5.15A11,11,0,0,0,162.25,158.36Z"/>
          <path class="cls-26" d="M160.5,158.09c-.63-.08-1.11.66-2.4,1.74s-1.57.37-2.09-.33a2.56,2.56,0,0,1,0-2.49c.35-.8,2.4-1.71,3.1-.91a8.58,8.58,0,0,0,.86.8c-.84-.28-2-.64-2.5-.15-.73.68,0,2,.61,2.14s1.23-1.21,2.33-.94v0l0,0,0,0Z"/>
        </g>
        <g>
          <path class="cls-25" d="M197.82,158.39c.83-.14,1.4-.26,1.59-.3h0a1,1,0,0,1,.2-.07h0v0c1.09-.27,1.74,1,2.33.93s1.33-1.45.61-2.13c-.52-.49-1.66-.14-2.5.15A11.3,11.3,0,0,1,197.82,158.39Z"/>
          <path class="cls-26" d="M199.57,158.11c.63-.07,1.1.66,2.39,1.74s1.58.38,2.09-.33a2.49,2.49,0,0,0,0-2.48c-.35-.8-2.39-1.72-3.09-.92a7.58,7.58,0,0,1-.86.81c.84-.29,2-.64,2.5-.15.72.68,0,2-.61,2.13s-1.24-1.2-2.33-.93v0l0,0,0,0Z"/>
        </g>
        <path class="cls-27" d="M198.3,158.54c-3.81,1.82-9.82,4-15.85,3.72-8.38-.33-15-1.4-20.2-3.71,5,1.64,11.53,2.36,20.05,2.57h.87A51,51,0,0,0,198.3,158.54Z"/>
        <path class="cls-28" d="M168.17,161.1s12.17,9.7,23.67,0C191.91,161,180.4,167.54,168.17,161.1Z"/>
      </g>
      <g>
        <g>
          <path class="cls-29" d="M141.17,251.5a5,5,0,0,0-4.92-1,5.56,5.56,0,0,0-2.48,1.49,5.7,5.7,0,0,0-2.92.08,4.72,4.72,0,0,0-3.53,3.57,3.17,3.17,0,0,1-.79-1.3c-.64-2,.89-4.23,3.42-5a5.6,5.6,0,0,1,2.92-.08,5.39,5.39,0,0,1,2.48-1.49c2.52-.73,5.08.3,5.71,2.31A3,3,0,0,1,141.17,251.5Z"/>
          <path class="cls-29" d="M141.93,254a5,5,0,0,0-4.93-1,5.53,5.53,0,0,0-2.47,1.49,5.74,5.74,0,0,0-2.93.08,4.7,4.7,0,0,0-3.52,3.57,3.07,3.07,0,0,1-.79-1.3c-.64-2,.89-4.23,3.41-5a5.53,5.53,0,0,1,2.93-.08,5.31,5.31,0,0,1,2.47-1.49c2.52-.73,5.08.3,5.72,2.31A3.17,3.17,0,0,1,141.93,254Z"/>
        </g>
        <g>
          <path class="cls-29" d="M144.93,265.7a5,5,0,0,0-4.92-1,5.56,5.56,0,0,0-2.48,1.49,5.7,5.7,0,0,0-2.92.08,4.73,4.73,0,0,0-3.53,3.57,3.28,3.28,0,0,1-.79-1.3c-.63-2,.89-4.23,3.42-5a5.7,5.7,0,0,1,2.92-.08,5.48,5.48,0,0,1,2.48-1.49c2.52-.73,5.08.3,5.71,2.31A3,3,0,0,1,144.93,265.7Z"/>
          <path class="cls-29" d="M145.69,268.17a5,5,0,0,0-4.92-1,5.56,5.56,0,0,0-2.48,1.49,5.74,5.74,0,0,0-2.93.08,4.72,4.72,0,0,0-3.52,3.57,3.17,3.17,0,0,1-.79-1.3c-.64-2,.89-4.23,3.41-5a5.63,5.63,0,0,1,2.93-.08,5.34,5.34,0,0,1,2.48-1.49c2.52-.73,5.08.3,5.71,2.31A3,3,0,0,1,145.69,268.17Z"/>
        </g>
      </g>
      <g>
        <g>
          <path class="cls-29" d="M210.49,253.33a5,5,0,0,1,4.92-1,5.46,5.46,0,0,1,2.48,1.48,5.7,5.7,0,0,1,2.92.08,4.73,4.73,0,0,1,3.53,3.57,3.24,3.24,0,0,0,.79-1.29c.63-2-.89-4.24-3.42-5a5.7,5.7,0,0,0-2.92-.08,5.56,5.56,0,0,0-2.48-1.49c-2.52-.73-5.08.31-5.71,2.32A3,3,0,0,0,210.49,253.33Z"/>
          <path class="cls-29" d="M209.73,255.8a5,5,0,0,1,4.92-1,5.46,5.46,0,0,1,2.48,1.48,5.7,5.7,0,0,1,2.92.08,4.73,4.73,0,0,1,3.53,3.57,3.13,3.13,0,0,0,.79-1.29c.64-2-.89-4.24-3.41-5a5.74,5.74,0,0,0-2.93-.08,5.56,5.56,0,0,0-2.48-1.49c-2.52-.73-5.08.31-5.71,2.31A3,3,0,0,0,209.73,255.8Z"/>
        </g>
        <g>
          <path class="cls-29" d="M206.72,267.53a5,5,0,0,1,4.93-1,5.31,5.31,0,0,1,2.47,1.49,5.53,5.53,0,0,1,2.93.08,4.69,4.69,0,0,1,3.52,3.56,3.16,3.16,0,0,0,.8-1.29c.63-2-.9-4.23-3.42-5a5.7,5.7,0,0,0-2.92-.08,5.46,5.46,0,0,0-2.48-1.48c-2.52-.74-5.08.3-5.72,2.31A3.29,3.29,0,0,0,206.72,267.53Z"/>
          <path class="cls-29" d="M206,270a5,5,0,0,1,4.92-1,5.46,5.46,0,0,1,2.48,1.48,5.7,5.7,0,0,1,2.92.08,4.73,4.73,0,0,1,3.53,3.57,3.24,3.24,0,0,0,.79-1.29c.63-2-.89-4.24-3.42-5a5.7,5.7,0,0,0-2.92-.08,5.56,5.56,0,0,0-2.48-1.49c-2.52-.73-5.08.31-5.71,2.32A3,3,0,0,0,206,270Z"/>
        </g>
      </g>
    </g>
  </g>
</svg>
