<svg id="Layer_1" data-name="Layer 1" xmlns="http://www.w3.org/2000/svg" width="306.38" height="141.62" viewBox="0 0 306.38 141.62">
  <defs>
    <style>
      .cls-1 {
        opacity: 0.5;
      }

      .cls-2 {
        fill: #fff;
      }

      .cls-3 {
        fill: #f69757;
      }

      .cls-4 {
        fill: #a46032;
      }

      .cls-5 {
        fill: #de8b51;
      }

      .cls-6 {
        fill: #92562c;
      }

      .cls-7 {
        fill: #211f1f;
      }

      .cls-8 {
        fill: #60412e;
      }

      .cls-9 {
        fill: #785134;
      }
    </style>
  </defs>
  <g>
    <g class="cls-1">
      <path d="M60.16,140.16c-10.24,0-29.8-3.8-40.67-8.87a22.87,22.87,0,0,1-5-3.17,11.07,11.07,0,0,1-7-6.52,11.86,11.86,0,0,1-.64-6.39,10.76,10.76,0,0,1,0-8.82,10,10,0,0,1,3.45-8.45A20.18,20.18,0,0,1,18.39,94c.36-.1.71-.19,1-.3.7-.24,1.47-.48,2.32-.7a10,10,0,0,1,4.19-6.9,17.38,17.38,0,0,1,6.42-2.59c.21,0,.41-.09.59-.15a36.79,36.79,0,0,1,9.31-1.49q.68,0,1.38,0h.79a10.79,10.79,0,0,1,9.46-5.54,11.66,11.66,0,0,1,1.18.06c.75,0,1.5,0,2.25,0l2.93,0h1a11.26,11.26,0,0,1,8.7-4.28h.31a10.09,10.09,0,0,1,3-2.57,13.86,13.86,0,0,1,1.34-.66,11.44,11.44,0,0,1,5-5.77c3.5-18.84,18-35.66,22.81-40.85C113.9,9.93,141.12,8.6,152.29,8.6c20.08,0,38.11,3.63,48.24,9.71,3.2,1.92,5.91,3.63,8.3,5.15,1.94,1.23,3.62,2.29,5.07,3.15a23.72,23.72,0,0,0,3.9,2,16.34,16.34,0,0,0,2.6-1.94,110.54,110.54,0,0,1,17.87-12.3,12.53,12.53,0,0,1,11.88-8.15,19.09,19.09,0,0,1,7,1.5c.59,0,1.17-.05,1.75-.05,6.08,0,11.72,1.79,17.75,5.62,1.34.86,2.75,1.84,4.31,3l1.34,1q1.85,1.44,3.84,3.08c1.61,1.31,3.28,2.67,5,4a34,34,0,0,1,6.22,6,12.28,12.28,0,0,1,5.9,9.48,14.05,14.05,0,0,1-3.48,10.59,26.93,26.93,0,0,1-6.19,6.71c-3.1,2.52-9.15,5.89-25.69,5.89h0c-2.33,0-4.44-.07-6.1-.15a117.54,117.54,0,0,0-15,19.77,25.67,25.67,0,0,1-5.56,6.21c-.88,1.49-1.86,3.15-2.8,4.71a16.15,16.15,0,0,1,9.22,11.07,10.26,10.26,0,0,1-10.15,12.47,11.71,11.71,0,0,1-1.87-.15,10.65,10.65,0,0,1-4.35.93,13.94,13.94,0,0,1-3-.37c-.64,0-1.28.09-1.91.1a30.5,30.5,0,0,1-6.76.78c-7.27,0-13.3-2.9-17-8.18a62.84,62.84,0,0,1-7.9-16.53l-.31-.14c-5.44-2.58-29.81-7.73-42.79-9A64.42,64.42,0,0,1,146,94.36a21.61,21.61,0,0,1,4.64,4.36c4.09,4.93,3,9.38,1.92,11.59a10.2,10.2,0,0,1-9.21,5.8,11.24,11.24,0,0,1-1.92-.17,10.27,10.27,0,0,1-4.3,1,12.93,12.93,0,0,1-4.25-.8c-.22-.07-.53-.18-.78-.25-4.37.78-9.76,1-20.48,1a26.9,26.9,0,0,1-20-8.76c-7.94,4.85-15.67,8-23.09,9.24.89.66,1.74,1.34,2.55,2,6.08,5.31,4.47,11.26,3.83,13C72,140.16,63.08,140.16,60.16,140.16Z"/>
    </g>
    <path class="cls-2" d="M56.39,136.38c-10.24,0-29.81-3.79-40.67-8.87a22.74,22.74,0,0,1-5-3.16,11.1,11.1,0,0,1-7-6.53,11.83,11.83,0,0,1-.63-6.39,10.74,10.74,0,0,1,0-8.81A10,10,0,0,1,6.5,94.16a20,20,0,0,1,8.11-3.89c.36-.1.71-.19,1-.3.67-.23,1.45-.48,2.33-.7a10,10,0,0,1,4.18-6.91,17.74,17.74,0,0,1,6.42-2.59l.6-.14a36.74,36.74,0,0,1,9.3-1.5c.46,0,.92,0,1.38,0h.79a10.83,10.83,0,0,1,9.47-5.53,11.66,11.66,0,0,1,1.18.06q1.13,0,2.25,0h3.92a11.21,11.21,0,0,1,8.69-4.28l.32,0a10.15,10.15,0,0,1,3-2.56,12,12,0,0,1,1.35-.66,11,11,0,0,1,1.67-2.92,11.21,11.21,0,0,1,3.33-2.85c3.49-18.84,18-35.67,22.81-40.85C110.13,6.16,137.35,4.83,148.52,4.83c20.07,0,38.1,3.62,48.23,9.7,3.2,1.92,5.91,3.63,8.29,5.15,2,1.23,3.63,2.29,5.08,3.15a22.35,22.35,0,0,0,3.91,2,16.11,16.11,0,0,0,2.59-1.93,109.53,109.53,0,0,1,17.88-12.3,12.49,12.49,0,0,1,11.87-8.15,18.94,18.94,0,0,1,7,1.5c.59,0,1.17,0,1.74,0,6.09,0,11.72,1.78,17.75,5.62,1.35.86,2.76,1.85,4.32,3,.41.31.87.65,1.33,1,1.23.95,2.51,2,3.85,3.08,1.61,1.31,3.27,2.66,5,4a34.67,34.67,0,0,1,6.22,6,12.34,12.34,0,0,1,5.91,9.49,14.06,14.06,0,0,1-3.49,10.59,26.7,26.7,0,0,1-6.19,6.7c-3.09,2.53-9.14,5.9-25.69,5.9h0c-2.32,0-4.43-.07-6.1-.15a117.78,117.78,0,0,0-15,19.77,25.26,25.26,0,0,1-5.56,6.21l-2.79,4.71a16.16,16.16,0,0,1,9.21,11.07,10.27,10.27,0,0,1-2,8.66,10.38,10.38,0,0,1-8.11,3.8,13.05,13.05,0,0,1-1.86-.14,10.65,10.65,0,0,1-4.36.92,14.73,14.73,0,0,1-3-.36c-.64,0-1.28.08-1.9.1a31.19,31.19,0,0,1-6.76.78c-7.27,0-13.3-2.91-17-8.19A63.16,63.16,0,0,1,191,90l-.31-.14c-5.44-2.58-29.81-7.72-42.79-9a63.83,63.83,0,0,1-5.69,9.73A21.47,21.47,0,0,1,146.85,95c4.08,4.93,3,9.37,1.91,11.58a10.21,10.21,0,0,1-11.12,5.63,10.16,10.16,0,0,1-4.3,1,13,13,0,0,1-4.26-.81l-.77-.24c-4.37.78-9.76,1-20.49,1a26.86,26.86,0,0,1-20-8.75c-8,4.85-15.68,7.94-23.09,9.23.88.66,1.74,1.35,2.55,2.06,6.07,5.31,4.46,11.26,3.82,13C68.18,136.38,59.3,136.38,56.39,136.38Z"/>
    <g>
      <path class="cls-3" d="M82.8,67.2c.11-3.72,11.32-40.89,33.48-47.71,22.42-6.91,66.9,1.05,77.86,8.22,3.6,2.35,7.26,4.69,10.68,6.6a47.68,47.68,0,0,0,6.71,3.2c4,1.48,7.21,1.6,8.94-.68,3.89-5.17,21.93-18.24,21.93-18.24.6-.38,1.17-.75,1.72-1.12-.1-.36-.22-.71-.34-1.07a110,110,0,0,0-20.15,13.31c-4.49,3.89-7.57,5.12-11.23,4.3a26.46,26.46,0,0,1-7.27-3.32c-3.48-2.07-7.81-5-13.67-8.49-19-11.4-74.21-11.83-87.37,2.28C93.63,35.68,82.85,52.47,82.8,67.2Z"/>
      <path class="cls-3" d="M240.09,19.56c4-3.52,13.43-5.55,21.59-3A25.28,25.28,0,0,1,266.77,19c1.05.62,2.16,1.35,3.3,2.12,3.37,2.29,7,5.07,10.13,7.62a53.11,53.11,0,0,1,7.62,7.34,10.38,10.38,0,0,0,1.94.2c-.85-2.37-2.1-4.93-6.79-8.52-3.42-2.61-6.36-5.13-9.16-7.3-.4-.32-.79-.62-1.19-.91q-1.92-1.44-3.76-2.63c-6.38-4.06-12.51-5.64-21.53-2.46A17.47,17.47,0,0,0,240.09,19.56Z"/>
      <path class="cls-4" d="M46.93,105.32s0,0,0,0a60.81,60.81,0,0,1,7.17-.37c10.63,0,21.19-5.23,29.09-10.48a93,93,0,0,0,8.84-6.6c0-1.51,0-2.34,0-2.34l-1.69-9.1c-3,4.89-14,20.11-32.83,21.33a72.34,72.34,0,0,0-10.74,1.44c0,.47-.23,1-.48,2.19C46,102.84,45.65,104.29,46.93,105.32Z"/>
      <path class="cls-5" d="M40.89,88.55l.21.1c1.34.53,2.61.23,3.24,1.94a25.49,25.49,0,0,0,.46,4.53c.37.63.75,1.26,1.14,1.88.66,1.21.88,1.62.82,2.22A72.34,72.34,0,0,1,57.5,97.78c18.85-1.22,29.8-16.44,32.83-21.33l-1.54-8.28a.16.16,0,0,0-.06,0c-.12-.07-.41-.25-.86-.55a3.78,3.78,0,0,1-1,.25A34.12,34.12,0,0,1,83,67.7c-1.53,0-5.89-.69-5.24,2.1.22,1,3.08,3.55,2.35,4.3-.54.58-2.5.13-3.18.13-1.59,0-3.59-.43-5,.37a8.38,8.38,0,0,1-.06,3c-.57,1.49-2.06,1-3.33,1-1.5,0-3.07-.1-4.58,0-1.22,0-1.42.42-1.4,1.54s.46,2.21-.91,2.73a13.33,13.33,0,0,1-3.34.13c-2.18,0-4.38,0-6.57,0-1.41,0-2.82,0-4.23,0a.89.89,0,0,0-1.14.52c-.75,1.19.23,2.46,1,3.24-.42,1-1.32,1.24-2.43,1.51A17.13,17.13,0,0,1,40.89,88.55Z"/>
      <path class="cls-6" d="M205,76.7c.51,8.75,4.8,18.45,8.59,23.89s11.86,4,14.89,3.08,6.61,1.18,6.36,0a6.27,6.27,0,0,0-5.54-4.56c-3.6-.17-7-6.91-4-11.88s8-13.48,8-13.48c1.69-5.22,1.14-8.37-.72-10,0,0-1.7,16.31-14.7,19.67C207.8,86,206.26,77.53,207.22,72.1,205.77,73.72,204.93,75.32,205,76.7Z"/>
      <path class="cls-6" d="M92.51,83.41C95,93.7,101.17,103,112.38,103s16.09-.31,19.74-1,8,2.65,5.85,0-3.41-3.6-7.87-3.6-4.56-3.85-1.87-7.22,14.37-17.55,11.21-26.69c-1.65-4.75-5.87-7.61-9.55-9.27,0,0,13,12.35-3.13,26S91,86.54,94,70.08A22,22,0,0,0,92.51,83.41Z"/>
      <path class="cls-5" d="M82.8,67.2v.17a26,26,0,0,0,1.06,7.48c8.52,8.26,36.8-3.49,36.8-15.29,0-5.87,3.72-5.52,9.48-3.43,6.81-1,15.11,2.46,22,6.92,9.14,6,49.92,8.66,49.92,8.66s13.32,1.84,24.41-.35S245.3,45,245.3,45c4.71-6.61,9.59-9.65,13.88-9.74-2.78-8.31-10-18-11.64-20.11l-.33-.41s-1.31.61-3.43,1.71c.12.36.24.71.34,1.07-.55.37-1.12.74-1.72,1.12,0,0-18,13.07-21.93,18.24-1.73,2.28-4.94,2.16-8.94.68a47.68,47.68,0,0,1-6.71-3.2c-3.42-1.91-7.08-4.25-10.68-6.6-11-7.17-55.44-15.13-77.86-8.22C94.12,26.31,82.91,63.48,82.8,67.2Z"/>
      <path class="cls-4" d="M85.31,79.61l.85,4.59s0,.42,0,1.18c1.38-1.14,2.17-1.93,2.17-1.93,7.72,9.76,18.1,5.33,24,5.33,6.82,0,23.16-14,25.59-17.4S185.61,76.6,194.88,81,228,85.37,235.3,73.68,249.83,53,258.18,46c2.7-2.26,2.51-6.34,1-10.83-4.29.08-9.16,3.13-13.88,9.74,0,0-7.78,24.22-18.86,26.41s-24.41.35-24.41.35S161.25,69,152.1,63.05c-8.26-1-16.14-4.81-22-6.92A12.9,12.9,0,0,0,124,58.7c-7.31,5.71,8.78,16.68-10.23,20.16s-28,0-28,0S85.61,79.13,85.31,79.61Z"/>
      <path class="cls-4" d="M130.14,56.13c5.81,2.1,13.7,5.95,22,6.92C145.25,58.59,137,55.15,130.14,56.13Z"/>
      <path class="cls-5" d="M84.53,75.43l.78,4.18c.3-.48.44-.75.44-.75s9,3.47,28,0S116.64,64.41,124,58.7a12.9,12.9,0,0,1,6.19-2.57c-5.76-2.08-9.47-2.44-9.47,3.43C120.67,71.06,93.79,82.52,84.53,75.43Z"/>
      <path class="cls-4" d="M198.67,77.49c.5,8.76,4.8,18.45,8.58,23.89s11.86,4,14.9,3.08,6.61,1.18,6.36,0A6.29,6.29,0,0,0,223,99.9c-3.6-.17-7-6.91-4-11.88s8-13.48,8-13.48c1.69-5.21,1.14-8.36-.72-10,0,0-1.7,16.31-14.7,19.68-10.07,2.61-11.61-5.89-10.65-11.32C199.43,74.51,198.59,76.11,198.67,77.49Z"/>
      <path class="cls-4" d="M86.17,84.21c2.49,10.28,8.66,19.56,19.87,19.56s16.09-.3,19.74-1,8.05,2.65,5.85,0-3.41-3.6-7.87-3.6-4.56-3.85-1.87-7.22,14.37-17.55,11.2-26.69c-1.64-4.75-5.86-7.61-9.54-9.27,0,0,13,12.35-3.13,26S84.69,87.34,87.69,70.88A22,22,0,0,0,86.17,84.21Z"/>
      <path class="cls-5" d="M211.53,84.21c13-3.37,14.7-19.68,14.7-19.68-5-4.48-19.74,2.08-25.35,8.36C199.92,78.32,201.46,86.82,211.53,84.21Z"/>
      <path class="cls-5" d="M120.42,82c16.09-13.65,3.13-26,3.13-26a28.45,28.45,0,0,0-6.3-2c-16.8,0-25.89,8.29-29.56,16.94C84.69,87.34,104.34,95.61,120.42,82Z"/>
      <path class="cls-5" d="M239.28,43c3.19,1.61,11,2.55,19.28,2.7a107.06,107.06,0,0,0,16.15-.83c11.69-1.64,12.67-6.38,12.67-6.38A8.27,8.27,0,0,1,290,37a6.57,6.57,0,0,0-.21-.68,10.38,10.38,0,0,1-1.94-.2,53.11,53.11,0,0,0-7.62-7.34c-3.16-2.55-6.76-5.33-10.13-7.62-1.14-.77-2.25-1.5-3.3-2.12a25.28,25.28,0,0,0-5.09-2.48c-8.16-2.55-17.57-.52-21.59,3h0l0,0C234.38,26.14,232.8,36.63,239.28,43Z"/>
      <path class="cls-5" d="M263.67,32.89c.77,8.77,9.45,3.9,11.64,0a10.47,10.47,0,0,1,4.89-4.11c-3.16-2.55-6.76-5.33-10.13-7.61C266.52,23.67,263.19,27.56,263.67,32.89Z"/>
      <path class="cls-4" d="M254.27,48.5q1,.06,2.1.06s22.32,1.95,28.85-3.38c3.5-2.85,5.43-5.25,4.75-8.18a8.27,8.27,0,0,0-2.59,1.51s-1,4.74-12.67,6.38a107.06,107.06,0,0,1-16.15.83,11.4,11.4,0,0,1-2.5,1.79Z"/>
      <path class="cls-4" d="M239.28,43c3.06,3,7.91,5.13,15,5.48l1.79-1a11.4,11.4,0,0,0,2.5-1.79C250.29,45.57,242.47,44.64,239.28,43Z"/>
      <path class="cls-5" d="M248.2,24.34c.32-.41.72-.89,1.21-1.42-3.56-2.22-3.89-10.55.79-9.09a10.12,10.12,0,0,1,5.75,4A18.39,18.39,0,0,1,257.8,17c-2-2.68-9.25-6.78-11.82-5.38C242.37,13.57,245.64,22.05,248.2,24.34Z"/>
      <path class="cls-7" d="M288.4,33.9s2.77.21,3,2.41-1.34,4.57-3,3.29S283.8,33.32,288.4,33.9Z"/>
      <path class="cls-4" d="M249.41,22.92A23.76,23.76,0,0,1,256,17.87a10.12,10.12,0,0,0-5.75-4C245.52,12.37,245.85,20.7,249.41,22.92Z"/>
      <circle class="cls-7" cx="270.04" cy="30.79" r="5.22"/>
      <path class="cls-7" d="M267,31.39a3.63,3.63,0,1,0,3.62-3.62A3.62,3.62,0,0,0,267,31.39Z"/>
      <path class="cls-2" d="M267.81,28.19a1.29,1.29,0,1,1,1.29,1.28A1.28,1.28,0,0,1,267.81,28.19Z"/>
      <path class="cls-8" d="M36.74,112.65s-2.92-5.79,10.21-7.31c0,0,0,0,0,0-1.28-1-1-2.48-.65-3.91.25-1.15.45-1.72.48-2.19C32.55,102.27,28.26,108.91,36.74,112.65Z"/>
      <path class="cls-9" d="M9.65,109.46a7.58,7.58,0,0,1,0,2.73c-.07.83-.69,1.93-.36,2.76.46,1.15,1.72.81,2.67,1.09a.34.34,0,0,1,.15.06,10.92,10.92,0,0,0,4.3,3.31C30.94,126.18,65.73,131,58,124.23c-6.46-5.63-16.93-10-20.23-11.2l-.11,0c-.2-.08-.39-.13-.58-.21l-.33-.12c-8.48-3.74-4.19-10.38,10-13.43.06-.6-.16-1-.82-2.22-.39-.62-.77-1.25-1.14-1.88a25.49,25.49,0,0,1-.46-4.53c-.63-1.71-1.9-1.41-3.24-1.94l-.21-.1c-1.76,0-3.54-.12-5.21-.06a27.87,27.87,0,0,0-7,1.12c-1.25.37-3.08.6-4.17,1.36.47.81,1.6.9,2.06,1.63a2,2,0,0,1-.33,2.09c-.48.39-1.24.13-1.83.43a13.87,13.87,0,0,0-2,1.27c-1.43,1.22-2.74,2.57-4.64,3a16.52,16.52,0,0,0-2.54.7c-1.92.63-4.35,1-5.9,2.34.36.78,1.83,1.75,1.37,2.79-.37.79-1.46.91-2,1.72C7.8,108.47,9.16,108.23,9.65,109.46Z"/>
    </g>
  </g>
</svg>
