<svg id="Layer_1" data-name="Layer 1" xmlns="http://www.w3.org/2000/svg" width="326.81" height="247.49" viewBox="0 0 326.81 247.49">
  <defs>
    <style>
      .cls-1 {
        fill: #ff0;
      }

      .cls-2 {
        fill: #dc093b;
      }

      .cls-3 {
        fill: #83142a;
      }

      .cls-4 {
        opacity: 0.5;
      }

      .cls-5, .cls-7 {
        fill: #fff;
      }

      .cls-6 {
        opacity: 0.7;
      }

      .cls-7 {
        opacity: 0.3;
      }

      .cls-8 {
        fill: #ffd9bc;
      }

      .cls-9 {
        fill: #e3a07c;
      }

      .cls-10 {
        fill: #ffbf9d;
      }

      .cls-11 {
        fill: #875959;
      }

      .cls-12 {
        fill: #9cba3d;
      }

      .cls-13 {
        fill: #618e20;
      }
    </style>
  </defs>
  <g>
    <path class="cls-1" d="M235.61,239.71a120.54,120.54,0,0,1-28.15-3.54,75.31,75.31,0,0,1-31.19-15.25l-.28-.23a77.93,77.93,0,0,1-18.5-22.51,94.17,94.17,0,0,1-91,13.38,95.3,95.3,0,0,1-50.29-46C5.35,143.77,3.92,120,12.17,98.71a81.46,81.46,0,0,1,32.38-39A155.65,155.65,0,0,1,26.24,27.9a8,8,0,0,1,2.7-9.78c.6-.42,14.88-10.34,33.78-10.34,13.15,0,31.37,4.88,47.47,26.57a7.34,7.34,0,0,0-.38-5.13,8,8,0,0,1-.69-15.61,23.18,23.18,0,0,1,5.7-.68,19.51,19.51,0,0,1,13.43,4.94,20.25,20.25,0,0,1,10.48-5.06,8.47,8.47,0,0,1,1.13-.08,8,8,0,0,1,6.38,3.17,18,18,0,0,1,3,7.63,18.37,18.37,0,0,1,3-.24c3.72,0,9.27,1.21,14.57,7a8.19,8.19,0,0,1,1.07,9.93,7.83,7.83,0,0,1-6.5,3.65,7.48,7.48,0,0,1-2.44-.41l-.42,0c-3.55,0-5.39,4.46-6.31,8.21-.72,2.95-.63,8.37,1.78,14.46q.75.61,1.5,1.26c19.63-16.29,41.67-26.3,65.62-29.79a8.45,8.45,0,0,1,1.5-.2,124.13,124.13,0,0,1,16.52-1.11c14.15,0,23.33,2.49,23.71,2.59a8,8,0,0,1,4.42,12.32,231.87,231.87,0,0,1-23.91,29A128.1,128.1,0,0,1,276,89.47c24.89,10.77,41,30.05,43.09,51.64a41.52,41.52,0,0,1,.72,4.4,3.57,3.57,0,0,1,0,.47,98.53,98.53,0,0,1-.9,19l-.06.4c-.09.62-.18,1.23-.29,1.84l-.13.81c-.09.47-.17.95-.26,1.43-.06.32-.25,1.24-.25,1.24-.07.33-.13.67-.2,1s-.21.93-.31,1.4l-.2.83c-.12.54-.26,1.07-.39,1.61l-.16.63-.48,1.75-.15.52c-.17.6-.35,1.21-.54,1.82l-.12.38c-.21.68-.41,1.29-.62,1.91l-.14.43c-.21.6-.42,1.21-.64,1.82l-.18.48-.65,1.72-.23.57c-.21.53-.43,1.06-.65,1.6l-.3.69q-.31.73-.63,1.44c-.13.29-.27.58-.4.88s-.39.82-.58,1.23l-.53,1.07c-.17.34-.33.67-.5,1s-.45.86-.67,1.28l-.42.78L307.4,199l-.31.55c-.33.56-.66,1.12-1,1.68l-.21.35c-.37.6-.77,1.22-1.17,1.84l-.08.12a82,82,0,0,1-10.84,13.33c-.6.6-1.14,1.12-1.7,1.63l-.26.25c-.49.45-1,.88-1.46,1.31l-.56.49-1.18,1-.94.77-.84.66c-.45.36-.92.71-1.4,1.07l-.4.3c-13.88,10.2-30.52,15.37-49.44,15.37Z"/>
    <g>
      <g>
        <g>
          <path class="cls-2" d="M95.92,54.3s9.7-.85,18.3-11,2.45-22.58-3-22c0,0,15-4,15.26,12.82,0,0,4.88-12.21,13.43-13.43,0,0,4,5.19.3,17.7,0,0,10.38-14,20.75-2.75,0,0-12.2-3.36-16.48,14-1.5,6.11-.61,16.48,5.8,26.55C150.23,76.27,131.92,59.48,95.92,54.3Z"/>
          <path class="cls-3" d="M95.87,54.29a28,28,0,0,0,11-4.7,33.76,33.76,0,0,0,4.61-3.82c.73-.69,1.39-1.44,2-2.19a20.52,20.52,0,0,0,1.81-2.36,16.28,16.28,0,0,0,2.52-11.28,13.22,13.22,0,0,0-2.1-5.41,7.43,7.43,0,0,0-2-2,3.89,3.89,0,0,0-2.56-.73h0a.45.45,0,0,1-.48-.4.43.43,0,0,1,.34-.48,16,16,0,0,1,6-.24,10.39,10.39,0,0,1,8.79,7.55,20.3,20.3,0,0,1,.85,5.93l-.62-.11a33.13,33.13,0,0,1,2.34-4.41,28.89,28.89,0,0,1,3-4,19.89,19.89,0,0,1,3.75-3.28,12.48,12.48,0,0,1,4.64-1.8h0a.17.17,0,0,1,.16.07,11.75,11.75,0,0,1,1.55,4.32,22.51,22.51,0,0,1,.3,4.56,34.41,34.41,0,0,1-.47,4.54l-.46,2.23-.58,2.21-.32-.16A23.38,23.38,0,0,1,144.41,34,15,15,0,0,1,150,31.28a10.15,10.15,0,0,1,6.18.5,15.13,15.13,0,0,1,5,3.66.36.36,0,0,1,0,.5.37.37,0,0,1-.31.09h0a11.73,11.73,0,0,0-6.18.47,11.89,11.89,0,0,0-5.09,3.56,18.49,18.49,0,0,0-3.22,5.43c-.2.49-.41,1-.59,1.48l-.44,1.54a17.84,17.84,0,0,0-.72,3.1,32.31,32.31,0,0,0,.95,12.67,43,43,0,0,0,2.11,6.06,47.34,47.34,0,0,0,3,5.66.52.52,0,0,1-.17.71.51.51,0,0,1-.6,0h0a78.33,78.33,0,0,0-12.15-8.23,114.48,114.48,0,0,0-13.32-6.36c-2.31-.84-4.59-1.78-7-2.49-1.17-.37-2.34-.77-3.52-1.13l-3.56-1L108.59,57l-1.8-.42-3.6-.84c-1.19-.29-2.48-.47-3.69-.73Zm.1,0c2.49.41,4.87.65,7.28,1.11l3.63.74,1.82.37,1.8.47,3.59.92c1.19.34,2.37.72,3.56,1.08,2.38.68,4.69,1.59,7,2.4a116,116,0,0,1,13.51,6.2,72.83,72.83,0,0,1,12.39,8.3l-.78.65a48.82,48.82,0,0,1-3.11-5.79,42.32,42.32,0,0,1-2.18-6.21,32.83,32.83,0,0,1-.91-13.09,19.37,19.37,0,0,1,.77-3.22l.47-1.58c.19-.52.41-1,.62-1.53a19.25,19.25,0,0,1,3.42-5.67,12.82,12.82,0,0,1,5.49-3.73,12.48,12.48,0,0,1,6.64-.38l-.36.58a14.37,14.37,0,0,0-4.75-3.56,9.52,9.52,0,0,0-5.82-.56,14.47,14.47,0,0,0-5.41,2.55,22.2,22.2,0,0,0-4.36,4.19.19.19,0,0,1-.26,0,.18.18,0,0,1-.06-.19l.58-2.19L141,34a30.83,30.83,0,0,0,.49-4.49,19.84,19.84,0,0,0-.29-4.49,11.61,11.61,0,0,0-1.52-4.17l.16.07a12.2,12.2,0,0,0-4.48,1.79A18,18,0,0,0,131.79,26a27.89,27.89,0,0,0-2.85,4,33,33,0,0,0-2.21,4.36.32.32,0,0,1-.62-.12,19.61,19.61,0,0,0-.93-5.71,10.53,10.53,0,0,0-3.06-4.71A10.17,10.17,0,0,0,117,21.53a15.76,15.76,0,0,0-5.69.24l-.17-.88a4.82,4.82,0,0,1,3.15.89A8.33,8.33,0,0,1,116.48,24a13.66,13.66,0,0,1,2.2,5.78,16.67,16.67,0,0,1-2.74,11.77A20.32,20.32,0,0,1,114,44c-.68.75-1.37,1.5-2.12,2.19A32.19,32.19,0,0,1,107.15,50a30.64,30.64,0,0,1-5.38,2.82,28.59,28.59,0,0,1-2.88,1c-.48.14-1,.25-1.47.36l-.75.14-.37,0C96.18,54.3,96,54.38,96,54.3Z"/>
        </g>
        <g>
          <path class="cls-2" d="M175.26,161.4c-15.54,40.18-65,58.49-105.9,42.7S4.09,141.77,19.63,101.59s65.13-58.79,106-43S190.79,121.22,175.26,161.4Z"/>
          <path class="cls-3" d="M175.3,161.42a71.22,71.22,0,0,1-17.43,26.08,80.65,80.65,0,0,1-26.64,16.74,87,87,0,0,1-62,.33,87.4,87.4,0,0,1-46-41.77,80.16,80.16,0,0,1-8.55-30.38A71,71,0,0,1,37,75.2,81.33,81.33,0,0,1,63.75,58.52a86.67,86.67,0,0,1,62-.16,86.85,86.85,0,0,1,45.64,41.81,80.52,80.52,0,0,1,8.51,30.24A71.15,71.15,0,0,1,175.3,161.42Zm-.09,0a71,71,0,0,0,4.49-31,80.17,80.17,0,0,0-8.54-30.16,86.48,86.48,0,0,0-45.63-41.43,86.09,86.09,0,0,0-61.55.3A80.47,80.47,0,0,0,37.51,75.72a70.17,70.17,0,0,0-22,56.63,79.4,79.4,0,0,0,8.54,30,85.44,85.44,0,0,0,107,41.39,80.14,80.14,0,0,0,26.61-16.47A71.09,71.09,0,0,0,175.21,161.39Z"/>
        </g>
        <g class="cls-4">
          <path class="cls-5" d="M28.58,117.74a66.38,66.38,0,0,1,6.68-22.35A70,70,0,0,1,49.13,76.54a67.77,67.77,0,0,1,19.45-13,49.06,49.06,0,0,1,5.47-2.12l2.79-.89,1.4-.44c.47-.13,1-.22,1.43-.33l2.87-.61a28.41,28.41,0,0,1,2.87-.54l5.81-.68a75.72,75.72,0,0,0-22.33,6.31,69.16,69.16,0,0,0-19.07,13A71.09,71.09,0,0,0,36,95.74c-.24.43-.48.85-.7,1.28l-.6,1.32L33.45,101a26.13,26.13,0,0,0-1.07,2.7l-1,2.74c-.64,1.83-1.08,3.72-1.64,5.59S29,115.83,28.58,117.74Z"/>
        </g>
        <g class="cls-4">
          <path class="cls-5" d="M122.54,67.62a81.33,81.33,0,0,1-.29,14.3A125.43,125.43,0,0,1,120,96.06c-.25,1.17-.58,2.32-.86,3.47s-.59,2.32-1,3.46l-1,3.43c-.36,1.14-.77,2.27-1.16,3.39-.76,2.27-1.7,4.46-2.57,6.68s-2,4.35-3,6.5c1.7-4.45,3.42-8.88,4.82-13.42s2.69-9.11,3.74-13.73,1.87-9.3,2.5-14c.34-2.35.56-4.71.75-7.08S122.54,70,122.54,67.62Z"/>
        </g>
        <g class="cls-4">
          <path class="cls-5" d="M135.07,71.46a49.32,49.32,0,0,1,2.17,5.76c.57,2,1.09,4,1.5,6s.72,4,1,6.09l.31,3.07.18,3.08a77.74,77.74,0,0,1-.57,12.3c-.21,2-.64,4.06-1,6.08-.18,1-.48,2-.73,3s-.53,2-.81,3a113.29,113.29,0,0,0,1.78-12.11,87.06,87.06,0,0,0,.34-12.19A85.37,85.37,0,0,0,138,83.33,75.34,75.34,0,0,0,135.07,71.46Z"/>
        </g>
        <g class="cls-6">
          <path class="cls-3" d="M50.14,137a77.61,77.61,0,0,0-.29,20.59,60.46,60.46,0,0,0,5.87,19.6,56.35,56.35,0,0,0,12.2,16.41,40.32,40.32,0,0,0,3.93,3.32l2.05,1.55,2.19,1.36a38.06,38.06,0,0,0,4.52,2.48,17.81,17.81,0,0,0,2.37,1l2.41,1a43.82,43.82,0,0,1-9.55-4l-2.25-1.31-2.12-1.52a39.7,39.7,0,0,1-4.07-3.25,55.56,55.56,0,0,1-12.57-16.53,59.2,59.2,0,0,1-5.74-20,39.21,39.21,0,0,1-.33-5.19l-.08-2.6c0-.87.1-1.74.15-2.6l.18-2.59c0-.43.05-.87.09-1.3l.21-1.28Z"/>
        </g>
        <g class="cls-6">
          <path class="cls-3" d="M78.52,150.72a69.34,69.34,0,0,0-1,11.66A74.51,74.51,0,0,0,78.16,174a72.8,72.8,0,0,0,2.36,11.42,91.91,91.91,0,0,0,4,11c-.45-.87-.9-1.74-1.34-2.62s-.91-1.75-1.27-2.67c-.74-1.82-1.5-3.63-2.07-5.52a64.93,64.93,0,0,1-2.62-11.52,66.63,66.63,0,0,1-.47-11.81c.1-2,.3-3.93.57-5.88A45.1,45.1,0,0,1,78.52,150.72Z"/>
        </g>
        <g class="cls-6">
          <path class="cls-3" d="M95.46,204.74a33.21,33.21,0,0,0,8.81-2,59.64,59.64,0,0,0,8.3-3.57A70.6,70.6,0,0,0,127.42,189a65.41,65.41,0,0,0,11.73-13.65,68.27,68.27,0,0,0,7.57-16.4,63.33,63.33,0,0,1-2.8,8.66,66.21,66.21,0,0,1-4.12,8.15,63.3,63.3,0,0,1-11.71,14,68,68,0,0,1-15.18,10.13,60.14,60.14,0,0,1-8.49,3.35A31.17,31.17,0,0,1,95.46,204.74Z"/>
        </g>
        <g class="cls-6">
          <path class="cls-3" d="M131.16,151.18a58.14,58.14,0,0,1-3.7,12.57,72.52,72.52,0,0,1-6.09,11.65,68.24,68.24,0,0,1-8.16,10.31c-.77.77-1.49,1.6-2.32,2.32l-2.45,2.19a32,32,0,0,1-2.57,2c-.87.66-1.75,1.31-2.63,2a90.29,90.29,0,0,0,9.41-9c1.48-1.58,2.81-3.3,4.17-5,.67-.86,1.27-1.76,1.9-2.64l.94-1.33.87-1.37c.57-.92,1.21-1.81,1.73-2.75l1.62-2.82,1.48-2.9c.48-1,.92-2,1.39-2.94.9-2,1.71-4,2.46-6A63.37,63.37,0,0,0,131.16,151.18Z"/>
        </g>
        <path class="cls-3" d="M144.43,39a39.05,39.05,0,0,0-6,9.61A36,36,0,0,0,136.65,54a31.39,31.39,0,0,0-.91,5.54.46.46,0,0,1-.49.42.44.44,0,0,1-.39-.27,34.65,34.65,0,0,1-2.56-8.39,35.61,35.61,0,0,1-.31-8.75A36.52,36.52,0,0,1,133.86,34a32.17,32.17,0,0,1,1.68-4,26.48,26.48,0,0,1,2.18-3.76,37.94,37.94,0,0,0-3.34,8,38.4,38.4,0,0,0-1.54,8.43,34.73,34.73,0,0,0,.42,8.52,38.48,38.48,0,0,0,2.44,8.18l-.88.15a30.66,30.66,0,0,1,3.06-11.07,33.6,33.6,0,0,1,2.89-5A30.14,30.14,0,0,1,144.43,39Z"/>
        <path class="cls-7" d="M55.1,84.81s11.4-18,32.26-23.6a6,6,0,0,1,3.18,0c1.63.45,3.28,1.74,1.36,5.35-2.82,5.29,4.56,4.67,10.64,1.5,5.57-2.91,11.3-3.66,10.6,3.33-.82,8.22-13.82,36-22.64,25.66C82.8,88,78.39,81.14,69.73,85.5,62,89.37,51.88,91.44,55.1,84.81Z"/>
        <g class="cls-4">
          <path class="cls-5" d="M120.88,34.61a14,14,0,0,1-.14,5.47,15.76,15.76,0,0,1-2.16,5.13,14,14,0,0,1-3.85,4.07,16.25,16.25,0,0,1-2.47,1.31,16.69,16.69,0,0,1-2.68.76.08.08,0,0,1-.07-.14h0c.71-.61,1.46-1.1,2.18-1.61.34-.29.69-.54,1-.81a10.07,10.07,0,0,0,1-.81c.32-.28.65-.56,1-.82s.64-.58,1-.85a15,15,0,0,0,1.8-1.85A14.83,14.83,0,0,0,120,39.87a14.44,14.44,0,0,0,.77-5.23h0a.07.07,0,0,1,.07-.08A.1.1,0,0,1,120.88,34.61Z"/>
        </g>
        <path class="cls-2" d="M163.43,119.65c-19.08,28.44-9.34,95.89,45.91,108.74,73.61,17.13,104.71-38,102.48-82C306.88,101.55,211,56.71,163.43,119.65Z"/>
        <path class="cls-8" d="M190.63,95.42c24.67-12.23,54.69-10.49,82.15,1.39,39.9,17.27,49.32,54.8,25.84,79.09-22.07,22.84-57.93,38.43-103.49,17.82-30-13.55-49.63-49-29.7-77.5l.44.23a18,18,0,0,0-21.24-3.76s2.55-13.37,17.86-9.19c0,0-6.13-3.76-6.73-15.88,0,0,10.49-.83,18.56,5,0,0-1.95-11.7,11.7-13.37,0,0-8.64,10.44,4.92,16.29Z"/>
        <path class="cls-9" d="M177.9,178.41a39.37,39.37,0,0,0,5.82,4.89,66.12,66.12,0,0,0,6.47,4,95,95,0,0,0,13.86,6.2,100.44,100.44,0,0,0,29.67,5.88,82.35,82.35,0,0,0,29.9-4,79.78,79.78,0,0,0,13.88-6.12,93.05,93.05,0,0,0,12.5-8.65,87.35,87.35,0,0,1-12.26,9.08,80.79,80.79,0,0,1-13.87,6.42,73.11,73.11,0,0,1-14.9,3.53,87.82,87.82,0,0,1-15.29.7,98.62,98.62,0,0,1-29.89-6.17A93.73,93.73,0,0,1,190,187.72a64.48,64.48,0,0,1-6.38-4.21A35.68,35.68,0,0,1,177.9,178.41Z"/>
        <path class="cls-9" d="M218.36,122.71a14.15,14.15,0,0,0,5.49,4.44,36.61,36.61,0,0,0,6.66,2.54c4.58,1.42,9.15,2.93,13.61,4.77a66.27,66.27,0,0,1,6.5,3.19,48.56,48.56,0,0,1,6.07,3.95c.95.75,1.9,1.48,2.8,2.3s1.79,1.61,2.65,2.46a67.76,67.76,0,0,1,4.78,5.38,72.52,72.52,0,0,0-10.69-9.52,61.92,61.92,0,0,0-12.5-6.84c-4.38-1.89-8.93-3.39-13.46-4.95a37.89,37.89,0,0,1-6.66-2.84,21.21,21.21,0,0,1-3-2.11A9.25,9.25,0,0,1,218.36,122.71Z"/>
        <path class="cls-9" d="M211.5,127.52a128.29,128.29,0,0,1,12,8.18c1.94,1.45,3.78,3.05,5.68,4.5.94.74,2,1.37,2.94,2.06s2,1.25,3.1,1.79a39.93,39.93,0,0,0,6.59,2.81c2.27.77,4.63,1.3,7,2a37.08,37.08,0,0,1,6.78,2.72,30.63,30.63,0,0,1,5.86,4.31,33.92,33.92,0,0,0-6.09-3.88,37.51,37.51,0,0,0-6.76-2.41c-2.33-.6-4.69-1.16-7-1.9a41.67,41.67,0,0,1-6.78-2.79c-1.08-.57-2.11-1.24-3.15-1.88s-2-1.37-3-2.14c-1.93-1.52-3.75-3.08-5.61-4.62s-3.77-3-5.7-4.47S213.46,128.93,211.5,127.52Z"/>
        <path class="cls-9" d="M241.25,90.13a111.77,111.77,0,0,1,20.44,5A104.66,104.66,0,0,1,271.5,99a93.5,93.5,0,0,1,9.38,4.85,79.49,79.49,0,0,1,8.69,6,63.5,63.5,0,0,1,7.66,7.28,55.73,55.73,0,0,1,6.1,8.62,48.69,48.69,0,0,1,4,9.73,53.51,53.51,0,0,0-4.41-9.49,56.6,56.6,0,0,0-6.25-8.35,73.34,73.34,0,0,0-7.66-7.08,80.39,80.39,0,0,0-8.63-5.87,110.26,110.26,0,0,0-18.93-8.86c-3.28-1.21-6.61-2.27-10-3.21S244.69,90.79,241.25,90.13Z"/>
        <g>
          <path class="cls-10" d="M165,116.86l.87-.41-.44-.23C165.28,116.43,165.14,116.65,165,116.86Z"/>
          <path class="cls-9" d="M190.94,95.56l-.13-.22-.18.08C177.53,89.55,186,79.27,186,79.27c-13.65,1.67-11.7,13.37-11.7,13.37-8.07-5.85-18.56-5-18.56-5,.6,12.12,6.73,15.88,6.73,15.88-15.31-4.18-17.86,9.19-17.86,9.19a18,18,0,0,1,21.24,3.76s4.59,3.9,9.4-1.12c3.34-3.48,2.83-6.22,7.8-6C188.88,109.62,196.24,104.05,190.94,95.56Z"/>
        </g>
        <path class="cls-11" d="M157.05,107.67s5.95,0,10.67,6c3.55,4.52,9.6-.14,5.56-4.73C173.28,108.93,168.58,103.22,157.05,107.67Z"/>
        <path class="cls-11" d="M173.61,97a14.53,14.53,0,0,0,3.62,8.36c2.89,3.06,5.73,1.81,6.24-.14,0,0,5.81.14,6-5.57,0,0-7.12-1.95-8.66-8.64a8.69,8.69,0,0,0-1.68,9.33A6.85,6.85,0,0,1,173.61,97Z"/>
        <path class="cls-3" d="M190.61,95.38a80.81,80.81,0,0,1,23.25-7.5,93.34,93.34,0,0,1,24.48-.61,115.76,115.76,0,0,1,24,5.1c1.93.67,3.87,1.33,5.78,2.06s3.8,1.52,5.67,2.37a81.66,81.66,0,0,1,10.82,5.82,63.86,63.86,0,0,1,17.92,16.63,46.71,46.71,0,0,1,8.78,22.67,42.09,42.09,0,0,1-4.88,23.73,46.55,46.55,0,0,1-7.18,9.93c-1.41,1.49-2.91,2.88-4.36,4.33s-3.08,2.69-4.61,4a88.74,88.74,0,0,1-20.82,12.9,81,81,0,0,1-23.66,6.38l-3.06.34c-1,.13-2.05.08-3.07.13l-3.08.07-1.54,0c-.51,0-1-.06-1.53-.08l-6.15-.38-6.08-.9-1.53-.23c-.5-.09-1-.22-1.5-.33l-3-.71-3-.71c-1-.21-2-.6-2.94-.89l-5.86-1.89-5.68-2.33a62.53,62.53,0,0,1-11-5.54,68.17,68.17,0,0,1-9.81-7.43,64.46,64.46,0,0,1-14.75-19.55,49,49,0,0,1-5-23.84,43.34,43.34,0,0,1,8.21-22.81,0,0,0,0,1,.07,0,0,0,0,0,1,0,.07A45.85,45.85,0,0,0,160,127.1,42.2,42.2,0,0,0,157.68,139a48.41,48.41,0,0,0,5.2,23.5,63.66,63.66,0,0,0,14.74,19.16,67.83,67.83,0,0,0,20.56,12.73l5.64,2.3,5.8,1.86c1,.29,1.92.67,2.91.88l3,.7,3,.7c.49.11,1,.25,1.48.34l1.5.23,6,.92,6.07.4c.51,0,1,.08,1.52.09l1.52,0,3-.06c1,0,2,0,3-.11l3-.32a82.2,82.2,0,0,0,23.45-6.15,88.45,88.45,0,0,0,20.78-12.62c6.24-5.17,12.3-10.86,16.16-18.06a42.11,42.11,0,0,0,4.22-11.39,39.76,39.76,0,0,0,.63-12.12,46.52,46.52,0,0,0-8.87-22.38,63.56,63.56,0,0,0-17.87-16.32A102.67,102.67,0,0,0,262,93.19,115.12,115.12,0,0,0,238.27,88c-16.15-1.82-32.87.48-47.62,7.51,0,0-.05,0-.06,0S190.58,95.39,190.61,95.38Z"/>
        <path class="cls-3" d="M163.52,119.7a54.71,54.71,0,0,0-3.84,8.21,67.26,67.26,0,0,0-2.55,8.67,78.85,78.85,0,0,0-1.82,17.92,84,84,0,0,0,2,17.88A85.23,85.23,0,0,0,163,189.45c4.91,10.92,12.44,20.87,22.34,27.85A64.84,64.84,0,0,0,193,222a68.58,68.58,0,0,0,8.32,3.58A94.07,94.07,0,0,0,219,229.77c11.94,1.73,24.2,1.64,35.86-1.22a69.4,69.4,0,0,0,31.21-16.88,78.86,78.86,0,0,0,19.59-29.79,95.17,95.17,0,0,0,6.08-35.49.1.1,0,0,1,.1-.11.11.11,0,0,1,.11.1,89.48,89.48,0,0,1-4.77,36.06A83.83,83.83,0,0,1,299.22,199a74,74,0,0,1-11.65,14.28,68.36,68.36,0,0,1-15,10.75,72.66,72.66,0,0,1-17.27,6.4c-12,2.82-24.51,2.57-36.5.43a107.17,107.17,0,0,1-17.69-4.58,72.86,72.86,0,0,1-16.2-8.4,70.65,70.65,0,0,1-23.49-27.71,78.82,78.82,0,0,1-5.87-17.41,85.68,85.68,0,0,1-1.83-18.27,76.29,76.29,0,0,1,2.35-18.18,55.58,55.58,0,0,1,7.27-16.73.12.12,0,0,1,.15,0A.11.11,0,0,1,163.52,119.7Z"/>
        <g>
          <path class="cls-3" d="M184.58,116.22c-2.69-1.58-6.37-.88-9.28,1.77-4.53,4.12-12.13,15.48-6.36,34.2,7.79,25.3,34,36.89,50.06,40.9,20.85,5.22,50.32.14,63.07-16.85,0,0,5.54-7.7-.95-9.71-7.84-2.42-29,.45-56.37-15.22C204.94,140.27,194,121.74,184.58,116.22Z"/>
          <path class="cls-3" d="M184.55,116.27a6.52,6.52,0,0,0-4.6-.66,9.68,9.68,0,0,0-4.2,2.12,23.83,23.83,0,0,0-5.64,7.63,32.33,32.33,0,0,0-2.57,18.6c.16,1.58.55,3.12.86,4.68l.64,2.29.32,1.14.42,1.12a47.86,47.86,0,0,0,3.95,8.61A55.09,55.09,0,0,0,186,176.17c9.76,8.13,21.64,13.56,34,16.61a73.79,73.79,0,0,0,18.93,1.77,76,76,0,0,0,18.82-3,53.88,53.88,0,0,0,17-8.39c.62-.49,1.28-.94,1.88-1.47l1.74-1.63.87-.82a11.15,11.15,0,0,0,.79-.89l1.55-1.81a8.87,8.87,0,0,0,1.29-2,11.88,11.88,0,0,0,.9-2.19,6.23,6.23,0,0,0,.3-2.3,4.74,4.74,0,0,0-.23-1.12,3.67,3.67,0,0,0-.61-.95c-1-1.16-2.69-1.45-4.22-1.76s-3.15-.43-4.75-.57c-3.18-.28-6.38-.5-9.56-.89A105.52,105.52,0,0,1,245.85,161a101.09,101.09,0,0,1-17.78-7.36,96,96,0,0,1-8.3-4.89l-2-1.36c-.66-.45-1.28-1-1.93-1.44-1.29-.95-2.52-2-3.75-3a154.15,154.15,0,0,1-13.67-13.5c-2.16-2.36-4.33-4.7-6.57-7A39.8,39.8,0,0,0,184.55,116.27Zm0-.09A40.5,40.5,0,0,1,192,122.3c2.26,2.27,4.43,4.63,6.65,6.93a149,149,0,0,0,13.9,13.17c1.24,1,2.48,2,3.78,2.92.65.46,1.28,1,1.93,1.4l2,1.32a95.26,95.26,0,0,0,8.27,4.76,108.13,108.13,0,0,0,17.62,7.34,106.77,106.77,0,0,0,18.65,4.07c3.17.43,6.35.71,9.54,1,1.59.16,3.18.33,4.77.61a11.82,11.82,0,0,1,1.18.26,8.29,8.29,0,0,1,1.18.33l.57.24.28.12.26.17.52.35a3.75,3.75,0,0,1,.44.45,3.89,3.89,0,0,1,.67,1.06,4.79,4.79,0,0,1,.24,1.22,6.44,6.44,0,0,1-.32,2.43,12.94,12.94,0,0,1-.94,2.24,10.06,10.06,0,0,1-1.31,2l-1.55,1.85c-.26.3-.51.63-.79.91l-.87.83L276.89,182c-.6.53-1.26,1-1.88,1.49a54.51,54.51,0,0,1-17.13,8.63,77.23,77.23,0,0,1-19,3.23,71.58,71.58,0,0,1-19.19-1.61,92.93,92.93,0,0,1-18.18-6.37A75.91,75.91,0,0,1,185.29,177a54.73,54.73,0,0,1-12.45-14.7,49.21,49.21,0,0,1-3.91-8.85l-.41-1.14-.31-1.17-.6-2.34a48,48,0,0,1-.77-4.78,33,33,0,0,1,3-18.81,24.93,24.93,0,0,1,5.79-7.64,9.79,9.79,0,0,1,4.29-2.12A6.57,6.57,0,0,1,184.6,116.18Z"/>
        </g>
        <path class="cls-3" d="M165.83,116.48c-.75-.6-1.45-1.25-2.23-1.81a19.71,19.71,0,0,0-2.44-1.5,16.77,16.77,0,0,0-5.35-1.81,17.44,17.44,0,0,0-5.63,0,17.69,17.69,0,0,0-5.33,1.71h0a.43.43,0,0,1-.58-.18.45.45,0,0,1,0-.3,14.23,14.23,0,0,1,2.46-5.32,11.32,11.32,0,0,1,4.51-3.69,13.63,13.63,0,0,1,5.68-1.13,7.63,7.63,0,0,1,1.44.1l1.44.15,2.81.62-.14.32a13.1,13.1,0,0,1-3.06-3.29,20,20,0,0,1-2.05-4,26.75,26.75,0,0,1-1.24-4.3c-.16-.73-.25-1.47-.37-2.21l-.22-2.23a.29.29,0,0,1,.26-.32h0a32.53,32.53,0,0,1,9.83.88,27.05,27.05,0,0,1,4.7,1.58,26.17,26.17,0,0,1,4.35,2.44l-.81.5a13.13,13.13,0,0,1,.37-5.19A11,11,0,0,1,176.7,83,12.4,12.4,0,0,1,181,80.05a6.55,6.55,0,0,1,1.22-.43l1.23-.37c.84-.16,1.69-.28,2.53-.43a.44.44,0,0,1,.51.36.48.48,0,0,1-.09.35l0,0a13.52,13.52,0,0,0-2.28,4.35,8.2,8.2,0,0,0-.11,4.83,9,9,0,0,0,2.72,4.06,21.75,21.75,0,0,0,2,1.52l2.24,1.2h0s0,0,0,.06a0,0,0,0,1-.06,0l-2.33-1.09c-.7-.48-1.48-.88-2.14-1.43a9.26,9.26,0,0,1-3-4.18,8.8,8.8,0,0,1-.06-5.23,14.1,14.1,0,0,1,2.34-4.7l.4.73c-.81.16-1.61.3-2.41.47s-1.56.45-2.29.8a11.21,11.21,0,0,0-3.92,2.69,9.88,9.88,0,0,0-2.26,4.14,12.91,12.91,0,0,0-.38,4.74v0a.51.51,0,0,1-.45.56.52.52,0,0,1-.35-.08,24,24,0,0,0-4.14-2.4,27.68,27.68,0,0,0-4.53-1.6,34.46,34.46,0,0,0-4.74-.9,32.47,32.47,0,0,0-4.82-.22l.28-.32.14,2.2c.1.73.17,1.46.3,2.18a23.24,23.24,0,0,0,1.12,4.26,18.53,18.53,0,0,0,2,3.93,12,12,0,0,0,3,3.17.18.18,0,0,1,0,.24.2.2,0,0,1-.19.08l-2.77-.57-1.41-.1a7.29,7.29,0,0,0-1.4,0l-1.4.09a10.67,10.67,0,0,0-1.37.26l-.68.15c-.22.06-.44.16-.65.23a11.15,11.15,0,0,0-1.28.54,11.37,11.37,0,0,0-4.14,3.56,14.81,14.81,0,0,0-2.28,5l-.64-.47a18.61,18.61,0,0,1,5.64-1.73,17.29,17.29,0,0,1,11.32,2.22,19.63,19.63,0,0,1,2.4,1.65c.75.6,1.42,1.32,2.12,2a0,0,0,0,1,0,.07.06.06,0,0,1-.07,0Z"/>
        <g>
          <g>
            <g>
              <path class="cls-2" d="M188.18,120.47c.14,2.87-3.37,6-6.74,6s-6.91-2.13-7.05-5,3.15-5.83,6.52-5.83S188,117.59,188.18,120.47Z"/>
              <path class="cls-3" d="M188.29,120.46a6.78,6.78,0,0,1-1.85,4.58,7.14,7.14,0,0,1-4.65,2.49,8.7,8.7,0,0,1-5.18-1.28,7.5,7.5,0,0,1-2-1.87,4.79,4.79,0,0,1-.33-5.42,7.18,7.18,0,0,1,1.72-2,7.58,7.58,0,0,1,4.81-1.78,9.59,9.59,0,0,1,4.73,1.45A5.35,5.35,0,0,1,188.29,120.46Zm-.21,0a3.44,3.44,0,0,0-.88-2.12,5.61,5.61,0,0,0-1.89-1.35,9.85,9.85,0,0,0-4.51-.79,6.42,6.42,0,0,0-3.94,1.75,4.45,4.45,0,0,0-1.62,3.6,4.1,4.1,0,0,0,2.41,2.9,9.08,9.08,0,0,0,4,1,7.84,7.84,0,0,0,4-1.25A4.68,4.68,0,0,0,188.08,120.47Z"/>
            </g>
            <g>
              <path class="cls-2" d="M197.92,122.53c1.27,2.69-.73,6.79-3.83,7.84s-7.21.12-8.47-2.58.61-6.52,3.71-7.57S196.66,119.83,197.92,122.53Z"/>
              <path class="cls-3" d="M198,122.48a6.58,6.58,0,0,1,.08,4.92,6.4,6.4,0,0,1-3.56,3.91,8.55,8.55,0,0,1-5.31.25,6.57,6.57,0,0,1-4.3-3.29,5.85,5.85,0,0,1,.36-5.29,6.8,6.8,0,0,1,3.93-3.27,9.31,9.31,0,0,1,4.94,0A5.93,5.93,0,0,1,198,122.48Zm-.19.09a4.6,4.6,0,0,0-3.76-2.42,9.58,9.58,0,0,0-4.52.55,5.56,5.56,0,0,0-3.05,2.9,4.34,4.34,0,0,0-.07,3.92,4.58,4.58,0,0,0,3.28,2,8.82,8.82,0,0,0,4.12-.21,6.41,6.41,0,0,0,3.27-2.45A4.53,4.53,0,0,0,197.83,122.57Z"/>
            </g>
            <g>
              <path class="cls-2" d="M208,131.71c-1.11,2.66-4.65,4-7.82,2.88s-5.57-4.27-4.46-6.93,5.48-4.22,8.65-3.07S209.08,129.06,208,131.71Z"/>
              <path class="cls-3" d="M208.07,131.75a6.66,6.66,0,0,1-3.33,3.45,6.73,6.73,0,0,1-5.09.31,8,8,0,0,1-4.12-3.14,6,6,0,0,1-1-2.57,4.54,4.54,0,0,1,.52-2.78,6.87,6.87,0,0,1,4.13-3,8.37,8.37,0,0,1,4.93,0A6.15,6.15,0,0,1,208.07,131.75Zm-.2-.08a4.44,4.44,0,0,0-.49-4.31,6,6,0,0,0-3.54-2.38,7.22,7.22,0,0,0-4.21.31,5.46,5.46,0,0,0-3.07,2.49,3.21,3.21,0,0,0,.66,3.39,8.11,8.11,0,0,0,3.17,2.39,7.29,7.29,0,0,0,4,.57A4.5,4.5,0,0,0,207.87,131.67Z"/>
            </g>
            <g>
              <path class="cls-2" d="M215.61,139.21c-1.11,2.65-4.65,4-7.82,2.88s-5.58-4.28-4.46-6.93,5.48-4.22,8.65-3.07S216.72,136.55,215.61,139.21Z"/>
              <path class="cls-3" d="M215.71,139.25a6.64,6.64,0,0,1-3.33,3.44,6.73,6.73,0,0,1-5.09.32,8,8,0,0,1-4.12-3.15,6,6,0,0,1-1-2.56,4.54,4.54,0,0,1,.52-2.78,6.87,6.87,0,0,1,4.13-3,8.29,8.29,0,0,1,4.93,0A6.15,6.15,0,0,1,215.71,139.25Zm-.2-.08a4.43,4.43,0,0,0-.49-4.31,6,6,0,0,0-3.54-2.38,7.14,7.14,0,0,0-4.21.31,5.42,5.42,0,0,0-3.07,2.49,3.22,3.22,0,0,0,.66,3.39,8.23,8.23,0,0,0,3.17,2.39,7.29,7.29,0,0,0,4,.57A4.5,4.5,0,0,0,215.51,139.17Z"/>
            </g>
            <g>
              <path class="cls-2" d="M224.32,144.62a6.59,6.59,0,0,1-8.53,3.13,5.54,5.54,0,0,1-2.7-7.29c1.11-2.66,5-4.3,8.27-3.54C225.87,138,225.43,142,224.32,144.62Z"/>
              <path class="cls-3" d="M224.42,144.66a7.9,7.9,0,0,1-3.27,3.65,7.25,7.25,0,0,1-2.49.88,6,6,0,0,1-2.74-.26,6.56,6.56,0,0,1-2.38-1.44,6.41,6.41,0,0,1-1.53-2.37,6.77,6.77,0,0,1,.5-5.37,7.16,7.16,0,0,1,4.13-3.16,8.66,8.66,0,0,1,5-.12,5.57,5.57,0,0,1,2.24,1.24,4.08,4.08,0,0,1,1.19,2.22A9.08,9.08,0,0,1,224.42,144.66Zm-.2-.08a6.47,6.47,0,0,0,.47-4.54,4,4,0,0,0-3.27-2.56,7.42,7.42,0,0,0-4.32.39,5.71,5.71,0,0,0-3.11,2.65,4.7,4.7,0,0,0,0,3.85,5.09,5.09,0,0,0,2.71,2.61,6.35,6.35,0,0,0,4.05.3A5.23,5.23,0,0,0,224.22,144.58Z"/>
            </g>
            <g>
              <path class="cls-2" d="M233.73,150c-1.11,2.65-5.2,4-8.56,2.29-3-1.49-3.79-4-2.68-6.67s4.7-4.13,7.84-2.91C234.63,144.41,234.85,147.38,233.73,150Z"/>
              <path class="cls-3" d="M233.83,150.08a6.89,6.89,0,0,1-8.34,3.52,7.85,7.85,0,0,1-2.28-1.22,6,6,0,0,1-1.7-2.14,5.54,5.54,0,0,1-.41-2.71,6.89,6.89,0,0,1,.77-2.49,6.35,6.35,0,0,1,4-3.06,7.13,7.13,0,0,1,4.84.35,5.44,5.44,0,0,1,3.15,7.75Zm-.19-.08a4.73,4.73,0,0,0,.06-4.27,6.84,6.84,0,0,0-7.46-2.46,4.91,4.91,0,0,0-2.87,2.51,5.13,5.13,0,0,0-.42,1.86,3.46,3.46,0,0,0,.43,1.7,5.83,5.83,0,0,0,2.84,2.3,8.08,8.08,0,0,0,3.94.62A4.3,4.3,0,0,0,233.64,150Z"/>
            </g>
            <g>
              <path class="cls-2" d="M245.28,154.09c-1.17,2.82-5.85,4.07-9.82,2.16-3.53-1.7-4.54-4.44-3.36-7.25s5.26-4.27,8.94-2.85C246.09,148.09,246.46,151.28,245.28,154.09Z"/>
              <path class="cls-3" d="M245.38,154.14a6.46,6.46,0,0,1-3.95,3.37,8.49,8.49,0,0,1-5.48.07,9.63,9.63,0,0,1-2.52-1.27,7.06,7.06,0,0,1-2-2.17,5.59,5.59,0,0,1-.72-2.95,6.53,6.53,0,0,1,.77-2.83,6.64,6.64,0,0,1,4.56-3.19,8.82,8.82,0,0,1,5.35.56,11.65,11.65,0,0,1,2.28,1.34,6.27,6.27,0,0,1,1.71,2A6,6,0,0,1,245.38,154.14Zm-.19-.09a4.77,4.77,0,0,0-.18-4.74,7.92,7.92,0,0,0-4-2.61,7.57,7.57,0,0,0-4.63-.21,5.1,5.1,0,0,0-3.39,2.62,4.76,4.76,0,0,0-.42,2.08,3.59,3.59,0,0,0,.64,1.88,7.85,7.85,0,0,0,3.46,2.55,10.84,10.84,0,0,0,2.19.65,8.32,8.32,0,0,0,2.34.15A4.66,4.66,0,0,0,245.19,154.05Z"/>
            </g>
            <g>
              <path class="cls-2" d="M255.17,159.17c-1.17,2.81-5.33,4.26-8.68,2.57a5,5,0,0,1-2.55-7,6.32,6.32,0,0,1,7.95-3.21C256.2,153.24,256.35,156.36,255.17,159.17Z"/>
              <path class="cls-3" d="M255.27,159.21a6.61,6.61,0,0,1-3.36,3.43,6.9,6.9,0,0,1-5.12.37,7.72,7.72,0,0,1-2.34-1.31,5.48,5.48,0,0,1-1.94-5,7.47,7.47,0,0,1,.81-2.51,7,7,0,0,1,8.94-3,8.2,8.2,0,0,1,2.06,1.34,4.87,4.87,0,0,1,1.35,2.06A6.94,6.94,0,0,1,255.27,159.21Zm-.2-.08a5.18,5.18,0,0,0,.2-4.41,5.74,5.74,0,0,0-3.4-2.59,5.68,5.68,0,0,0-7.05,2.75,4.46,4.46,0,0,0-.1,3.74,5.37,5.37,0,0,0,2.8,2.43,7.59,7.59,0,0,0,4,.53A4.5,4.5,0,0,0,255.07,159.13Z"/>
            </g>
            <g>
              <path class="cls-2" d="M265.94,160.86c-.48,3-4.08,6-7.74,5-3.25-.93-6-2.5-5.49-6.87.33-3,5.14-5,8.46-4.37C265.74,155.46,266.41,157.87,265.94,160.86Z"/>
              <path class="cls-3" d="M266,160.88a7.83,7.83,0,0,1-2.45,4.45,7.12,7.12,0,0,1-2.36,1.42,6,6,0,0,1-2.86.22,11.86,11.86,0,0,1-2.57-.81,8.12,8.12,0,0,1-2.34-1.58A5.71,5.71,0,0,1,252,162a7.34,7.34,0,0,1-.16-2.78l0-.34.09-.38a3,3,0,0,1,.25-.73,4.5,4.5,0,0,1,.82-1.22,7.09,7.09,0,0,1,2.21-1.6,10,10,0,0,1,5.12-1,11,11,0,0,1,2.51.65,5.86,5.86,0,0,1,2.15,1.44,4.2,4.2,0,0,1,1.05,2.3A9,9,0,0,1,266,160.88Zm-.21,0a6.85,6.85,0,0,0,.05-2.43,3.48,3.48,0,0,0-1.16-2,5.33,5.33,0,0,0-2.1-1,9.36,9.36,0,0,0-2.32-.34,8.74,8.74,0,0,0-4.42,1.13c-1.33.74-2.4,1.87-2.36,3.19a4.29,4.29,0,0,0,1.37,3.71,6.4,6.4,0,0,0,1.79,1.09c.34.15.69.29,1.06.42a9.67,9.67,0,0,0,1.06.33,5.87,5.87,0,0,0,4.14-.5A5.3,5.3,0,0,0,265.83,160.85Z"/>
            </g>
            <g>
              <path class="cls-2" d="M273.75,163.86a5.25,5.25,0,0,1-6.28,4c-2.63-.75-4.85-2-4.45-5.57.27-2.44,4.17-4.05,6.86-3.55C273.58,159.48,274.13,161.43,273.75,163.86Z"/>
              <path class="cls-3" d="M273.85,163.88a6.64,6.64,0,0,1-2,3.69,5,5,0,0,1-4.33,1.43,9.12,9.12,0,0,1-2.13-.66,6.21,6.21,0,0,1-1.95-1.33,4.73,4.73,0,0,1-1.21-2.17,6.07,6.07,0,0,1-.12-2.31l0-.28.08-.32a2.67,2.67,0,0,1,.21-.62,4.42,4.42,0,0,1,.69-1A6.26,6.26,0,0,1,265,159a8.2,8.2,0,0,1,4.21-.77,7.46,7.46,0,0,1,2.06.55A4.79,4.79,0,0,1,273,160a3.42,3.42,0,0,1,.84,1.89A7.66,7.66,0,0,1,273.85,163.88Zm-.21,0a5.18,5.18,0,0,0,0-2,2.73,2.73,0,0,0-.95-1.61,6.3,6.3,0,0,0-3.56-1,7.07,7.07,0,0,0-3.52.93,3,3,0,0,0-1.82,2.49,3.28,3.28,0,0,0,1.1,2.86A8.91,8.91,0,0,0,268,167a4.79,4.79,0,0,0,3.25-.3A4.17,4.17,0,0,0,273.64,163.84Z"/>
            </g>
            <g>
              <path class="cls-2" d="M278.32,173.1c-3.27-.35-7.36-2.6-6.7-5.6.59-2.67,2.92-4.6,7.67-4.25,3.27.24,5.33,3.89,4.76,6.56C283.56,172.08,281.59,173.45,278.32,173.1Z"/>
              <path class="cls-3" d="M278.31,173.2a15.62,15.62,0,0,1-4.48-1,7.15,7.15,0,0,1-2.1-1.35,4.07,4.07,0,0,1-1.21-2.54,5.32,5.32,0,0,1,.65-2.68,5.77,5.77,0,0,1,1.81-2,8.59,8.59,0,0,1,4.8-1.24,10.48,10.48,0,0,1,2.43.26,5.47,5.47,0,0,1,2.23,1.22,6.74,6.74,0,0,1,2.18,4.28,4.55,4.55,0,0,1-1.9,4.23A7,7,0,0,1,278.31,173.2Zm0-.2a5.11,5.11,0,0,0,4.12-1,4,4,0,0,0,1.13-3.74,5.5,5.5,0,0,0-2-3.38,4,4,0,0,0-1.71-.79,8.84,8.84,0,0,0-2-.05,6.42,6.42,0,0,0-3.65,1.24,3.81,3.81,0,0,0-1.1,1.33,4.05,4.05,0,0,0-.48,1.58,4.26,4.26,0,0,0,1.79,3A8,8,0,0,0,278.33,173Z"/>
            </g>
          </g>
          <g>
            <g>
              <path class="cls-2" d="M182.47,128.8c.15,3.16-3.16,6.24-6.85,6.24s-7.46-1.42-7.62-4.58,3.23-7.29,6.92-7.29S182.31,125.63,182.47,128.8Z"/>
              <path class="cls-3" d="M182.57,128.79a6.78,6.78,0,0,1-1.93,4.91,7.23,7.23,0,0,1-5.1,2.39,10.89,10.89,0,0,1-5.48-1.21,5.9,5.9,0,0,1-2.24-2.07,4.75,4.75,0,0,1-.64-3.05,8.45,8.45,0,0,1,2.66-4.92,7.36,7.36,0,0,1,5-2.19,9,9,0,0,1,5,1.79A6.28,6.28,0,0,1,182.57,128.79Zm-.21,0a4.94,4.94,0,0,0-2.73-4,9,9,0,0,0-4.75-1.11,6.15,6.15,0,0,0-4.08,2.1,7,7,0,0,0-2,4.11A3.18,3.18,0,0,0,171,133a12.52,12.52,0,0,0,4.54,1,7.57,7.57,0,0,0,4.37-1.15A4.85,4.85,0,0,0,182.36,128.8Z"/>
            </g>
            <g>
              <path class="cls-2" d="M193,132.54c.16,3.17-3.15,6.25-6.85,6.25s-7.46-1.42-7.61-4.58,3.22-7.29,6.92-7.29S192.82,129.38,193,132.54Z"/>
              <path class="cls-3" d="M193.08,132.54a6.79,6.79,0,0,1-1.93,4.91,7.22,7.22,0,0,1-5.11,2.38,10.76,10.76,0,0,1-5.47-1.2,5.93,5.93,0,0,1-2.24-2.08,4.66,4.66,0,0,1-.64-3,8.46,8.46,0,0,1,2.65-4.92,7.34,7.34,0,0,1,5-2.19,8.88,8.88,0,0,1,5,1.79A6.26,6.26,0,0,1,193.08,132.54Zm-.21,0a4.93,4.93,0,0,0-2.73-4,8.92,8.92,0,0,0-4.75-1.11,6.1,6.1,0,0,0-4.08,2.1,6.87,6.87,0,0,0-1.95,4.11,3.17,3.17,0,0,0,2.16,3.13,12.26,12.26,0,0,0,4.53,1,7.54,7.54,0,0,0,4.37-1.14A4.86,4.86,0,0,0,192.87,132.55Z"/>
            </g>
            <g>
              <path class="cls-2" d="M204.43,136.87c-1,3-5.25,5-8.81,3.95s-6.68-3.4-5.72-6.4,5.68-5.93,9.24-4.91S205.39,133.86,204.43,136.87Z"/>
              <path class="cls-3" d="M204.53,136.9a7.48,7.48,0,0,1-3.45,4,7.67,7.67,0,0,1-5.56,1,10.74,10.74,0,0,1-5-2.61A5.46,5.46,0,0,1,189,136.6a4.43,4.43,0,0,1,.43-3.12,9.13,9.13,0,0,1,4.12-3.77,8.12,8.12,0,0,1,5.42-.78,8.42,8.42,0,0,1,4.42,3A5.7,5.7,0,0,1,204.53,136.9Zm-.2-.07a4.57,4.57,0,0,0-1.32-4.61A8.38,8.38,0,0,0,198.7,130a6.89,6.89,0,0,0-4.57,1,7.64,7.64,0,0,0-3.24,3.28,2.85,2.85,0,0,0,1,3.55,12.33,12.33,0,0,0,4.12,2.09,8.27,8.27,0,0,0,4.58.06A5.3,5.3,0,0,0,204.33,136.83Z"/>
            </g>
            <g>
              <path class="cls-2" d="M210.63,143.16c.13,2.76-2.33,5-5.51,5s-5.87-2.24-6-5,2.34-5,5.52-5S210.49,140.4,210.63,143.16Z"/>
              <path class="cls-3" d="M210.73,143.16a5.45,5.45,0,0,1-1.46,4.13A6,6,0,0,1,205,149.2a6.74,6.74,0,0,1-4.54-1.62,6,6,0,0,1-2.14-4.38,5.27,5.27,0,0,1,2.11-4.26,6.67,6.67,0,0,1,4.38-1.29A6.33,6.33,0,0,1,210.73,143.16Zm-.2,0a4.32,4.32,0,0,0-2-3.44,6.5,6.5,0,0,0-3.79-1,5.44,5.44,0,0,0-3.49,1.3,3.72,3.72,0,0,0-1.31,3.13,4,4,0,0,0,1.76,2.84,6.55,6.55,0,0,0,3.29,1.15,6.48,6.48,0,0,0,3.56-.68A3.67,3.67,0,0,0,210.53,143.17Z"/>
            </g>
            <g>
              <path class="cls-2" d="M219.74,147.22c.15,3.05-2.52,5.52-6,5.52s-6.35-2.47-6.5-5.52,2.52-5.51,6-5.51S219.59,144.18,219.74,147.22Z"/>
              <path class="cls-3" d="M219.85,147.22a6,6,0,0,1-1.57,4.49,6.42,6.42,0,0,1-4.66,2.07,7.23,7.23,0,0,1-4.89-1.79,6.58,6.58,0,0,1-2.28-4.73,5.79,5.79,0,0,1,2.22-4.62,7,7,0,0,1,4.73-1.45A6.87,6.87,0,0,1,219.85,147.22Zm-.21,0a4.83,4.83,0,0,0-2.13-3.8,6.75,6.75,0,0,0-4.13-1.19,5.8,5.8,0,0,0-3.83,1.44,4.24,4.24,0,0,0-1.43,3.5,4.56,4.56,0,0,0,1.92,3.21,7.16,7.16,0,0,0,7.52.47A4.14,4.14,0,0,0,219.64,147.23Z"/>
            </g>
            <g>
              <path class="cls-2" d="M229,153.26c.15,3.05-2.51,5.52-5.95,5.52s-6.35-2.47-6.5-5.52,3.51-6.76,6.95-6.76S228.8,150.22,229,153.26Z"/>
              <path class="cls-3" d="M229.06,153.26a6,6,0,0,1-1.75,4.64,6.52,6.52,0,0,1-5,1.9,7.36,7.36,0,0,1-5-2.27,6.19,6.19,0,0,1-1.65-5.25,8,8,0,0,1,2.85-4.42,7.63,7.63,0,0,1,4.79-1.88,5,5,0,0,1,2.52.78,5.75,5.75,0,0,1,1.73,1.85A10.89,10.89,0,0,1,229.06,153.26Zm-.21,0a7.39,7.39,0,0,0-1.59-4.4,4.6,4.6,0,0,0-3.87-1.85,7.13,7.13,0,0,0-6,5.53,4.22,4.22,0,0,0,1.46,3.52,7.06,7.06,0,0,0,7.77,1A4.23,4.23,0,0,0,228.85,153.27Z"/>
            </g>
            <g>
              <path class="cls-2" d="M234.46,162.27a6.87,6.87,0,0,1-8.75-1.24,5,5,0,0,1,1-7.71c2.69-1.79,8.37-1.21,10.51,1.26S237.15,160.48,234.46,162.27Z"/>
              <path class="cls-3" d="M234.52,162.36a8.12,8.12,0,0,1-4.81,1.43,6.76,6.76,0,0,1-4.89-2.2,6.16,6.16,0,0,1-1.35-2.55,5.93,5.93,0,0,1,0-2.93,6.25,6.25,0,0,1,3.81-4,10.33,10.33,0,0,1,5.21-.37,9,9,0,0,1,4.7,2.12,4,4,0,0,1,1.2,2.41,4.49,4.49,0,0,1-.56,2.52A11.08,11.08,0,0,1,234.52,162.36Zm-.12-.18a7.45,7.45,0,0,0,3.06-3.6,3.37,3.37,0,0,0-1-4,7.9,7.9,0,0,0-4.18-1.54,8.84,8.84,0,0,0-4.39.57,4.25,4.25,0,0,0-2.43,3,4.6,4.6,0,0,0,.92,3.65,7,7,0,0,0,3.45,2.42A5.43,5.43,0,0,0,234.4,162.18Z"/>
            </g>
            <g>
              <path class="cls-2" d="M244.63,167.11a6.85,6.85,0,0,1-8.74-1.24,5,5,0,0,1,1-7.71c2.69-1.79,8.37-1.21,10.51,1.26S247.33,165.32,244.63,167.11Z"/>
              <path class="cls-3" d="M244.69,167.2a8,8,0,0,1-4.81,1.42,6.73,6.73,0,0,1-4.89-2.19,6.28,6.28,0,0,1-1.35-2.55,5.93,5.93,0,0,1,0-2.93,6.23,6.23,0,0,1,3.8-4,10.34,10.34,0,0,1,5.21-.37,9,9,0,0,1,4.7,2.12,4,4,0,0,1,1.2,2.41,4.49,4.49,0,0,1-.56,2.52A11.08,11.08,0,0,1,244.69,167.2Zm-.11-.18a7.48,7.48,0,0,0,3-3.6,3.36,3.36,0,0,0-.95-4,7.84,7.84,0,0,0-4.17-1.54,8.82,8.82,0,0,0-4.39.57,4.2,4.2,0,0,0-2.43,3,4.56,4.56,0,0,0,.92,3.65,6.91,6.91,0,0,0,3.44,2.42A5.46,5.46,0,0,0,244.58,167Z"/>
            </g>
            <g>
              <path class="cls-2" d="M257.25,166.07c.14,2.76-2.33,5-5.5,5s-5.86-2.24-6-5,2.33-5,5.5-5S257.12,163.31,257.25,166.07Z"/>
              <path class="cls-3" d="M257.36,166.06a5.52,5.52,0,0,1-1.46,4.14,6,6,0,0,1-4.3,1.91,6.73,6.73,0,0,1-4.54-1.63,6,6,0,0,1-2.14-4.37,5.25,5.25,0,0,1,2.11-4.26,6.59,6.59,0,0,1,4.37-1.3A6.35,6.35,0,0,1,257.36,166.06Zm-.21,0a4.32,4.32,0,0,0-2-3.44,6.42,6.42,0,0,0-3.78-1,5.41,5.41,0,0,0-3.48,1.3,3.71,3.71,0,0,0-1.31,3.13,4,4,0,0,0,1.77,2.84,6.84,6.84,0,0,0,6.83.46A3.68,3.68,0,0,0,257.15,166.07Z"/>
            </g>
            <g>
              <path class="cls-2" d="M268.67,169.3c.15,2.93-2.78,5.31-6.54,5.31s-6.92-2.38-7.07-5.31,2.79-5.31,6.55-5.31S268.53,166.36,268.67,169.3Z"/>
              <path class="cls-3" d="M268.78,169.29a5.58,5.58,0,0,1-2,4.48,7.5,7.5,0,0,1-4.86,1.88,8.3,8.3,0,0,1-5.06-1.58,6.25,6.25,0,0,1-2.67-4.73,5,5,0,0,1,.73-2.7,6,6,0,0,1,1.89-1.92,8.31,8.31,0,0,1,4.91-1.25,8.2,8.2,0,0,1,4.62,1.72A6,6,0,0,1,268.78,169.29Zm-.21,0a4.6,4.6,0,0,0-2.44-3.74,8.21,8.21,0,0,0-4.38-1.05,7.27,7.27,0,0,0-4.13,1.32,4,4,0,0,0-1.72,3.42,4.23,4.23,0,0,0,2.17,3.11,8.22,8.22,0,0,0,3.93,1.19,8.42,8.42,0,0,0,4.18-.69A4,4,0,0,0,268.57,169.3Z"/>
            </g>
            <g>
              <path class="cls-2" d="M279.26,174.71c.14,2.93-2.79,5.31-6.54,5.31s-6.92-2.38-7.07-5.31,2.79-5.31,6.55-5.31S279.12,171.78,279.26,174.71Z"/>
              <path class="cls-3" d="M279.36,174.7a5.58,5.58,0,0,1-1.95,4.49,7.49,7.49,0,0,1-4.86,1.87,8.33,8.33,0,0,1-5.07-1.58,6.19,6.19,0,0,1-2.66-4.73,5,5,0,0,1,.73-2.7,6.05,6.05,0,0,1,1.88-1.92,8.41,8.41,0,0,1,4.92-1.25,8.18,8.18,0,0,1,4.61,1.73A5.89,5.89,0,0,1,279.36,174.7Zm-.21,0a4.59,4.59,0,0,0-2.43-3.74,8.21,8.21,0,0,0-4.39-1,7.12,7.12,0,0,0-4.12,1.32,3.91,3.91,0,0,0-1.72,3.42,4.24,4.24,0,0,0,2.17,3.11,8.45,8.45,0,0,0,3.93,1.19,8.56,8.56,0,0,0,4.18-.7A3.92,3.92,0,0,0,279.15,174.71Z"/>
            </g>
          </g>
          <g>
            <g>
              <ellipse class="cls-2" cx="171.99" cy="140.04" rx="5.4" ry="6.59" transform="translate(15.23 296.94) rotate(-84.18)"/>
              <path class="cls-3" d="M178.66,140a5.72,5.72,0,0,1-1.79,4.5,7,7,0,0,1-4.78,2,7.74,7.74,0,0,1-5-1.67,6.36,6.36,0,0,1-2.5-4.74,5.55,5.55,0,0,1,2.44-4.63,7.73,7.73,0,0,1,4.85-1.34C175.22,134.27,178.37,136.78,178.66,140Zm-.2,0a4.72,4.72,0,0,0-2.31-3.79,7.63,7.63,0,0,0-4.29-1.1,6.45,6.45,0,0,0-4,1.37,4.05,4.05,0,0,0-1.6,3.47,4.34,4.34,0,0,0,2.06,3.16,7.59,7.59,0,0,0,3.81,1.24,7.75,7.75,0,0,0,4.07-.75A4,4,0,0,0,178.46,140.05Z"/>
            </g>
            <g>
              <path class="cls-2" d="M190.71,143.79c.16,3.33-2.65,6-6.28,6a6.71,6.71,0,0,1-6.86-6c-.16-3.34,2.65-6,6.27-6A6.71,6.71,0,0,1,190.71,143.79Z"/>
              <path class="cls-3" d="M190.81,143.78a6.57,6.57,0,0,1-1.6,4.83,6.71,6.71,0,0,1-5,2.26,7.52,7.52,0,0,1-5.19-2,7.17,7.17,0,0,1-2.34-5,6.28,6.28,0,0,1,2.26-5,7.24,7.24,0,0,1,11.82,4.9Zm-.21,0a5.37,5.37,0,0,0-2.21-4.14,7,7,0,0,0-4.4-1.37,6,6,0,0,0-4.09,1.61,4.72,4.72,0,0,0-1.49,3.86,5.1,5.1,0,0,0,2,3.56,6.94,6.94,0,0,0,3.88,1.46,6.76,6.76,0,0,0,4.16-1A4.61,4.61,0,0,0,190.6,143.79Z"/>
            </g>
            <g>
              <path class="cls-2" d="M200.44,150.17c-2.08,3.09-6.07,4.32-8.92,2.74s-3.47-5.35-1.39-8.44,6.07-4.32,8.92-2.75S202.52,147.08,200.44,150.17Z"/>
              <path class="cls-3" d="M200.53,150.23a10,10,0,0,1-3.75,3.47,7.28,7.28,0,0,1-2.63.76,6,6,0,0,1-2.84-.49,5.77,5.77,0,0,1-2.31-1.88,6.12,6.12,0,0,1-1.06-2.76,7.76,7.76,0,0,1,1.5-5.33,8.64,8.64,0,0,1,4.31-3.18,6.82,6.82,0,0,1,5.28.31,5.59,5.59,0,0,1,2,1.82,5.43,5.43,0,0,1,.81,2.48A8,8,0,0,1,200.53,150.23Zm-.18-.12a5.85,5.85,0,0,0,1-4.62,4.77,4.77,0,0,0-2.8-3.42,5.66,5.66,0,0,0-4.37,0,7.23,7.23,0,0,0-3.39,2.83A5.76,5.76,0,0,0,190,149a4.36,4.36,0,0,0,2.23,3.07,6.18,6.18,0,0,0,4.18.56A6.43,6.43,0,0,0,200.35,150.11Z"/>
            </g>
            <g>
              <ellipse class="cls-2" cx="204.32" cy="152.92" rx="6.33" ry="5.39" transform="translate(-11.9 17.35) rotate(-4.72)"/>
              <path class="cls-3" d="M207.5,157.63a9.36,9.36,0,0,1-4.62,1.13,6.2,6.2,0,0,1-4.65-2.11,5.52,5.52,0,0,1-1.21-2.5,5.6,5.6,0,0,1,.2-2.79,6.85,6.85,0,0,1,3.59-3.8,8.06,8.06,0,0,1,5-.6,6.78,6.78,0,0,1,4.22,2.55,5.37,5.37,0,0,1,.94,2.31,5,5,0,0,1-.3,2.42A6.78,6.78,0,0,1,207.5,157.63Zm-.09-.19a5.05,5.05,0,0,0,2.81-3.33,4.46,4.46,0,0,0-1-4,6.28,6.28,0,0,0-7.61-1.1A4.75,4.75,0,0,0,199.2,152a4,4,0,0,0,.67,3.39,6.34,6.34,0,0,0,3.19,2.3A5.92,5.92,0,0,0,207.41,157.44Z"/>
            </g>
            <g>
              <path class="cls-2" d="M216.6,162.32c-3,1.55-6.9.73-8.63-1.82s-.67-5.86,2.37-7.41,6.9-.72,8.63,1.82S219.64,160.78,216.6,162.32Z"/>
              <path class="cls-3" d="M216.65,162.42a9.36,9.36,0,0,1-4.62,1.13,6.2,6.2,0,0,1-4.65-2.11,5.47,5.47,0,0,1-1.21-2.5,5.6,5.6,0,0,1,.2-2.79,6.81,6.81,0,0,1,3.59-3.8,8.13,8.13,0,0,1,5-.61,6.86,6.86,0,0,1,4.22,2.56,5.37,5.37,0,0,1,.94,2.31,5,5,0,0,1-.3,2.42A6.78,6.78,0,0,1,216.65,162.42Zm-.1-.19a5,5,0,0,0,2.82-3.33,4.49,4.49,0,0,0-1-4,6.28,6.28,0,0,0-7.61-1.1,4.75,4.75,0,0,0-2.37,2.92,4,4,0,0,0,.67,3.39,6.34,6.34,0,0,0,3.19,2.3A5.89,5.89,0,0,0,216.55,162.23Z"/>
            </g>
            <g>
              <ellipse class="cls-2" cx="222.08" cy="164.39" rx="5.85" ry="6.92" transform="matrix(0.14, -0.99, 0.99, 0.14, 28.54, 361.6)"/>
              <path class="cls-3" d="M222,170.36a9.87,9.87,0,0,1-5-1.43,6.75,6.75,0,0,1-2-2,5.66,5.66,0,0,1-.9-2.8,5.77,5.77,0,0,1,.68-2.93,6.62,6.62,0,0,1,2-2.18,8.45,8.45,0,0,1,5.39-1.36,8.67,8.67,0,0,1,5,2.07,6.35,6.35,0,0,1,2.29,4.85,5.36,5.36,0,0,1-.77,2.6,6,6,0,0,1-1.86,1.86A8.77,8.77,0,0,1,222,170.36Zm0-.21a6.44,6.44,0,0,0,4.6-1.43,5,5,0,0,0,1.85-4.09,5.16,5.16,0,0,0-2.12-3.81,7.12,7.12,0,0,0-4.21-1.45c-3-.1-5.86,2.12-5.89,4.79a5.61,5.61,0,0,0,1.51,3.91A6.46,6.46,0,0,0,222,170.15Z"/>
            </g>
            <g>
              <path class="cls-2" d="M234.19,175c-3.8-.19-6.85-3-6.81-6.2s3.17-5.7,7-5.51,6.86,3,6.81,6.2S238,175.23,234.19,175Z"/>
              <path class="cls-3" d="M234.19,175.15a9.87,9.87,0,0,1-5-1.43,7,7,0,0,1-2-2,5.75,5.75,0,0,1-.89-2.8A5.67,5.67,0,0,1,227,166a6.62,6.62,0,0,1,2-2.18,8.45,8.45,0,0,1,5.39-1.36,8.6,8.6,0,0,1,5,2.07,6.35,6.35,0,0,1,2.29,4.85,5.36,5.36,0,0,1-.77,2.6,5.87,5.87,0,0,1-1.86,1.85A8.7,8.7,0,0,1,234.19,175.15Zm0-.21a6.44,6.44,0,0,0,4.6-1.43,5,5,0,0,0,1.84-4.09,5.16,5.16,0,0,0-2.11-3.82,7.18,7.18,0,0,0-4.21-1.44c-3-.1-5.86,2.12-5.89,4.79a5.61,5.61,0,0,0,1.51,3.91A6.46,6.46,0,0,0,234.2,174.94Z"/>
            </g>
            <g>
              <path class="cls-2" d="M246.18,180.25c-3.81-.19-6.86-3-6.81-6.2s3.17-5.71,7-5.52,6.86,3,6.82,6.2S250,180.44,246.18,180.25Z"/>
              <path class="cls-3" d="M246.17,180.35a9.82,9.82,0,0,1-5-1.43,6.71,6.71,0,0,1-2-1.95,5.55,5.55,0,0,1-.89-2.8,5.63,5.63,0,0,1,.68-2.93,6.66,6.66,0,0,1,2-2.19,8.49,8.49,0,0,1,5.39-1.35,8.68,8.68,0,0,1,5,2.06,6.42,6.42,0,0,1,2.29,4.85,5.42,5.42,0,0,1-.78,2.6,5.9,5.9,0,0,1-1.86,1.86A8.77,8.77,0,0,1,246.17,180.35Zm0-.21a6.38,6.38,0,0,0,4.6-1.42,5,5,0,0,0,1.85-4.1,5.15,5.15,0,0,0-2.11-3.81,7.16,7.16,0,0,0-4.22-1.44c-3-.1-5.85,2.11-5.88,4.78a5.55,5.55,0,0,0,1.51,3.91A6.37,6.37,0,0,0,246.18,180.14Z"/>
            </g>
            <g>
              <path class="cls-2" d="M257.74,182.35c-3.57-.18-6.44-2.39-6.4-4.95s3-4.49,6.53-4.31,6.43,2.39,6.4,4.95S261.31,182.53,257.74,182.35Z"/>
              <path class="cls-3" d="M257.73,182.46a11.56,11.56,0,0,1-4.44-.93,5.88,5.88,0,0,1-2-1.49,4.19,4.19,0,0,1-.2-5.22,5.68,5.68,0,0,1,2-1.71,9.47,9.47,0,0,1,9.25.71,5.14,5.14,0,0,1,2.41,4.12,3.9,3.9,0,0,1-.86,2.28,5.11,5.11,0,0,1-1.85,1.4A10.08,10.08,0,0,1,257.73,182.46Zm0-.21a6.58,6.58,0,0,0,4.12-1,3.76,3.76,0,0,0,1.88-3.29,4,4,0,0,0-2.1-3,7.71,7.71,0,0,0-3.81-1,6.84,6.84,0,0,0-3.69,1,3.33,3.33,0,0,0-1.75,2.57,4.12,4.12,0,0,0,1.51,3.11A6.52,6.52,0,0,0,257.74,182.25Z"/>
            </g>
            <g>
              <ellipse class="cls-2" cx="267.16" cy="181.89" rx="6.26" ry="4.78" transform="translate(-38.54 76.98) rotate(-15.31)"/>
              <path class="cls-3" d="M269.86,186.07a10.77,10.77,0,0,1-4.33,1.24A5.52,5.52,0,0,1,261,185.5a4.58,4.58,0,0,1-1.05-2.54,4.92,4.92,0,0,1,.55-2.64,7.58,7.58,0,0,1,3.66-3.28,8.9,8.9,0,0,1,4.66-.7,6,6,0,0,1,4.14,2.25,4,4,0,0,1,.77,2.28,4.39,4.39,0,0,1-.6,2.24A7.9,7.9,0,0,1,269.86,186.07Zm-.09-.19a5.51,5.51,0,0,0,2.93-3,3.58,3.58,0,0,0-.59-3.69,4.87,4.87,0,0,0-3.45-1.53,7.25,7.25,0,0,0-3.8.85,5.43,5.43,0,0,0-2.51,2.64,3.08,3.08,0,0,0,.27,3,5.3,5.3,0,0,0,3,2A6.21,6.21,0,0,0,269.77,185.88Z"/>
            </g>
          </g>
          <g>
            <g>
              <ellipse class="cls-2" cx="173.24" cy="151.28" rx="5.6" ry="6.59" transform="translate(0.78 303.45) rotate(-82.55)"/>
              <path class="cls-3" d="M179.92,151.28a6,6,0,0,1-1.73,4.61,6.92,6.92,0,0,1-4.84,2.06,7.74,7.74,0,0,1-5.07-1.78,6.64,6.64,0,0,1-2.44-4.84,5.81,5.81,0,0,1,2.38-4.75,7.5,7.5,0,0,1,4.91-1.43A7.12,7.12,0,0,1,179.92,151.28Zm-.21,0a4.91,4.91,0,0,0-2.28-3.9,7.38,7.38,0,0,0-4.32-1.2,6.41,6.41,0,0,0-4,1.45,4.28,4.28,0,0,0-1.56,3.6,4.61,4.61,0,0,0,2.05,3.3,7.87,7.87,0,0,0,7.93.48A4.23,4.23,0,0,0,179.71,151.29Z"/>
            </g>
            <g>
              <path class="cls-2" d="M192.93,155.55c.17,3.51-2.84,6.35-6.73,6.35s-7.18-2.84-7.35-6.35,2.84-6.35,6.73-6.35S192.75,152.05,192.93,155.55Z"/>
              <path class="cls-3" d="M193,155.55a6.77,6.77,0,0,1-1.77,5.08,7.19,7.19,0,0,1-5.25,2.31,8.07,8.07,0,0,1-5.48-2.05,7.45,7.45,0,0,1-2.52-5.3,6.56,6.56,0,0,1,2.43-5.21A7.78,7.78,0,0,1,193,155.55Zm-.21,0a5.68,5.68,0,0,0-2.38-4.38,7.65,7.65,0,0,0-4.71-1.45,6.56,6.56,0,0,0-4.4,1.68,5,5,0,0,0-1.65,4.1,5.42,5.42,0,0,0,2.19,3.8,7.5,7.5,0,0,0,4.19,1.54,7.36,7.36,0,0,0,4.46-1.06A4.91,4.91,0,0,0,192.82,155.56Z"/>
            </g>
            <g>
              <ellipse class="cls-2" cx="197.85" cy="160.24" rx="6.43" ry="5.95" transform="translate(-13.39 18.12) rotate(-5.07)"/>
              <path class="cls-3" d="M203.67,162.92a7.92,7.92,0,0,1-3.62,3.47,6.75,6.75,0,0,1-7.7-1.3,6.76,6.76,0,0,1-1.52-2.41,6.54,6.54,0,0,1,.56-5.47A7.13,7.13,0,0,1,195.6,154a7.42,7.42,0,0,1,5.17.36,6.24,6.24,0,0,1,3.34,3.75A6.37,6.37,0,0,1,203.67,162.92Zm-.19-.1a4.9,4.9,0,0,0,.22-4.57,5.9,5.9,0,0,0-3.34-2.95,6.23,6.23,0,0,0-4.34,0,5.69,5.69,0,0,0-3.17,2.74,4.53,4.53,0,0,0-.09,3.92,5.6,5.6,0,0,0,2.77,2.76,7.09,7.09,0,0,0,4.18.63A5.28,5.28,0,0,0,203.48,162.82Z"/>
            </g>
            <g>
              <path class="cls-2" d="M215.91,166.7c-1.32,2.41-4.95,3.19-8.12,1.73s-4.65-4.58-3.33-7,4.95-3.19,8.12-1.74S217.23,164.29,215.91,166.7Z"/>
              <path class="cls-3" d="M216,166.75c-1.42,2.72-5.32,4-8.44,2.72a7.37,7.37,0,0,1-3.81-3.27,5.34,5.34,0,0,1,0-5.17,5.76,5.76,0,0,1,4.21-2.62,8.19,8.19,0,0,1,4.67.74,7,7,0,0,1,3.31,3.2A4.91,4.91,0,0,1,216,166.75Zm-.18-.1a3.8,3.8,0,0,0-.29-4.08,7,7,0,0,0-3.34-2.46,7,7,0,0,0-4-.36,4.26,4.26,0,0,0-3,2.09,3.32,3.32,0,0,0,.36,3.32,7,7,0,0,0,2.84,2.39,8.51,8.51,0,0,0,3.83.95A4.12,4.12,0,0,0,215.82,166.65Z"/>
            </g>
            <g>
              <path class="cls-2" d="M223.19,174.81c-1.32,2.42-5.56,2.85-8.45,1.52s-4.17-4.36-2.85-6.77,6-3.15,8.85-1.83A5.13,5.13,0,0,1,223.19,174.81Z"/>
              <path class="cls-3" d="M223.29,174.86a6,6,0,0,1-3.74,2.68,8.08,8.08,0,0,1-4.84-.09,6.45,6.45,0,0,1-3.8-3.43,5.26,5.26,0,0,1,.44-5.16,5.06,5.06,0,0,1,2.05-1.63,8.47,8.47,0,0,1,2.34-.68,9.37,9.37,0,0,1,4.69.5,5.87,5.87,0,0,1,2,1.34,5.44,5.44,0,0,1,1.19,2A5.93,5.93,0,0,1,223.29,174.86Zm-.19-.1a4.42,4.42,0,0,0,.1-4.18,5,5,0,0,0-3.12-2.55,8.3,8.3,0,0,0-4.11-.14,5,5,0,0,0-3.22,1.9,3.31,3.31,0,0,0-.45,1.66,3.58,3.58,0,0,0,.48,1.68,5.61,5.61,0,0,0,2.7,2.37,10.26,10.26,0,0,0,3.92.93A4.09,4.09,0,0,0,223.1,174.76Z"/>
            </g>
            <g>
              <path class="cls-2" d="M235.26,178.33c-.56,3-4.72,4.63-8.09,4s-5.64-3.53-5.08-6.51,5-5.08,8.38-4.46A6.06,6.06,0,0,1,235.26,178.33Z"/>
              <path class="cls-3" d="M235.36,178.34a6,6,0,0,1-3,3.92,8.08,8.08,0,0,1-5.12,1.14,7.08,7.08,0,0,1-4.77-2.68,6.07,6.07,0,0,1-1.07-5.41,5.19,5.19,0,0,1,1.55-2.34,8.5,8.5,0,0,1,2.22-1.43,9.29,9.29,0,0,1,5.07-.73,6.08,6.08,0,0,1,4.14,2.8A7,7,0,0,1,235.36,178.34Zm-.2,0a5.34,5.34,0,0,0-1.16-4.44,5.68,5.68,0,0,0-3.93-2,8,8,0,0,0-4.34.92,5.07,5.07,0,0,0-2.75,3,4.1,4.1,0,0,0,1.07,3.65,6.28,6.28,0,0,0,3.49,1.93,9.87,9.87,0,0,0,4.35-.1A4.27,4.27,0,0,0,235.16,178.31Z"/>
            </g>
            <g>
              <ellipse class="cls-2" cx="239.96" cy="181.89" rx="4.99" ry="6.58" transform="translate(42.51 409.22) rotate(-86.19)"/>
              <path class="cls-3" d="M246.64,181.89a5.28,5.28,0,0,1-1.93,4.27,7.32,7.32,0,0,1-4.66,1.77,8.18,8.18,0,0,1-4.87-1.46,6,6,0,0,1-2.62-4.54,4.72,4.72,0,0,1,.74-2.6,5.78,5.78,0,0,1,1.84-1.81,8.3,8.3,0,0,1,4.72-1.14,8,8,0,0,1,4.43,1.62A5.64,5.64,0,0,1,246.64,181.89Zm-.21,0a4.31,4.31,0,0,0-2.38-3.53,8.17,8.17,0,0,0-4.2-1,7.08,7.08,0,0,0-3.95,1.23,3.66,3.66,0,0,0-1.67,3.2,4,4,0,0,0,2.1,2.89,8.31,8.31,0,0,0,3.75,1.1,8.56,8.56,0,0,0,4-.61A3.7,3.7,0,0,0,246.43,181.9Z"/>
            </g>
            <g>
              <path class="cls-2" d="M258.17,185.39c.14,2.76-2.18,5.46-5.8,5.46s-6.68-2.24-6.82-5,2.7-5,6.33-5S258,182.63,258.17,185.39Z"/>
              <path class="cls-3" d="M258.28,185.38a6.2,6.2,0,0,1-1.45,4.4,6.32,6.32,0,0,1-2,1.52,6.44,6.44,0,0,1-2.48.59,8.25,8.25,0,0,1-4.8-1.34,6,6,0,0,1-2.78-4.3,4.68,4.68,0,0,1,.5-2.61,5.58,5.58,0,0,1,1.69-1.91,8,8,0,0,1,4.57-1.39,8.27,8.27,0,0,1,4.45,1.25A5,5,0,0,1,258.28,185.38Zm-.21,0a3.85,3.85,0,0,0-2.32-3.41,8.24,8.24,0,0,0-4.19-.59,6.61,6.61,0,0,0-3.78,1.42,3.43,3.43,0,0,0-1.36,3.23,4,4,0,0,0,2.21,2.75,8.6,8.6,0,0,0,3.71,1,6.4,6.4,0,0,0,3.74-.86A4.18,4.18,0,0,0,258.07,185.39Z"/>
            </g>
          </g>
          <g>
            <path class="cls-2" d="M186.5,163.36c.13,2.65-2.28,4.79-5.39,4.79s-6.92-2.26-7.05-4.9,3.47-4.68,6.58-4.68S186.37,160.72,186.5,163.36Z"/>
            <path class="cls-3" d="M186.61,163.36a5.29,5.29,0,0,1-1.64,4.15,6.14,6.14,0,0,1-4.51,1.66,8.81,8.81,0,0,1-4.52-1.59,7.75,7.75,0,0,1-1.76-1.72,4.55,4.55,0,0,1-.94-2.47,3.85,3.85,0,0,1,.81-2.52,6.14,6.14,0,0,1,1.84-1.59,9,9,0,0,1,4.42-1.22A6.23,6.23,0,0,1,186.61,163.36Zm-.21,0a4.18,4.18,0,0,0-2.13-3.43,6.48,6.48,0,0,0-3.92-.83,7.78,7.78,0,0,0-3.73,1.31c-1.07.73-1.88,1.83-1.71,2.84a4,4,0,0,0,2.16,2.59,10.27,10.27,0,0,0,3.56,1.23,6.54,6.54,0,0,0,3.68-.48A3.57,3.57,0,0,0,186.4,163.37Z"/>
          </g>
          <g>
            <path class="cls-2" d="M195.72,167.16a5.08,5.08,0,0,1-3.29,7c-3.13,1-8-.19-9.27-3.05s1.4-6.27,4.53-7.29A6.68,6.68,0,0,1,195.72,167.16Z"/>
            <path class="cls-3" d="M195.82,167.12a6,6,0,0,1,.19,4.93,5.86,5.86,0,0,1-1.65,2.16,6.53,6.53,0,0,1-2.47,1.2,9.4,9.4,0,0,1-5.26-.36,9.14,9.14,0,0,1-2.36-1.27,5.77,5.77,0,0,1-1.8-2.16,4.66,4.66,0,0,1-.34-2.82,6.2,6.2,0,0,1,1.13-2.45,8.3,8.3,0,0,1,4.15-2.95,6.89,6.89,0,0,1,4.94.4A7.36,7.36,0,0,1,195.82,167.12Zm-.19.09a5.48,5.48,0,0,0-3.44-3,6.68,6.68,0,0,0-4.44.18,7.09,7.09,0,0,0-3.37,2.73,3.62,3.62,0,0,0-.41,3.76,5.23,5.23,0,0,0,3.3,2.2,10.32,10.32,0,0,0,4.2.28,5.66,5.66,0,0,0,3.57-1.88A4.14,4.14,0,0,0,195.63,167.21Z"/>
          </g>
          <g>
            <path class="cls-2" d="M209.44,172.77c-.8,2.76-4.35,4.22-7.93,3.28s-5.84-3.94-5-6.69,4.35-4.22,7.94-3.28S210.24,170,209.44,172.77Z"/>
            <path class="cls-3" d="M209.54,172.8a5.94,5.94,0,0,1-3.16,3.64,7.66,7.66,0,0,1-5.06.64,8,8,0,0,1-4.5-2.7,5.75,5.75,0,0,1-1.16-5.26,5.69,5.69,0,0,1,3.82-3.54,8.62,8.62,0,0,1,5,0,7.87,7.87,0,0,1,4,2.72A5.38,5.38,0,0,1,209.54,172.8Zm-.2-.05a4.2,4.2,0,0,0-1.21-4.18,7.83,7.83,0,0,0-3.93-2,7.46,7.46,0,0,0-4.27.29,4.15,4.15,0,0,0-2.66,2.73,3.73,3.73,0,0,0,1.12,3.44,8,8,0,0,0,3.44,2,9,9,0,0,0,4.18.34A4.16,4.16,0,0,0,209.34,172.75Z"/>
          </g>
          <g>
            <path class="cls-2" d="M206.19,181.13c-.7,2.4-4,3.62-7.36,2.74s-5.54-3.56-4.84-6,4-3.62,7.36-2.73S206.88,178.73,206.19,181.13Z"/>
            <path class="cls-3" d="M206.29,181.16a5.27,5.27,0,0,1-3,3.23,7.34,7.34,0,0,1-4.65.5,7.78,7.78,0,0,1-4.17-2.36,6,6,0,0,1-1.26-2.21,4.23,4.23,0,0,1,1.49-4.73,5.9,5.9,0,0,1,2.17-1.05,8.59,8.59,0,0,1,4.56.12,7.7,7.7,0,0,1,3.71,2.42A4.69,4.69,0,0,1,206.29,181.16Zm-.2-.06a3.62,3.62,0,0,0-1.27-3.72,8.06,8.06,0,0,0-3.66-1.71,7.39,7.39,0,0,0-3.91.17,3.56,3.56,0,0,0-2.46,2.31A3.17,3.17,0,0,0,196,181.1a8.49,8.49,0,0,0,3.2,1.77,9.7,9.7,0,0,0,3.81.45A3.56,3.56,0,0,0,206.09,181.1Z"/>
          </g>
          <g>
            <path class="cls-2" d="M217.66,178.2c-.78,2.68-4.06,4.16-7.33,3.29s-5.28-3.74-4.5-6.43,4.07-4.16,7.34-3.29S218.45,175.51,217.66,178.2Z"/>
            <path class="cls-3" d="M217.76,178.22a5.89,5.89,0,0,1-2.83,3.56,6.79,6.79,0,0,1-4.79.74,7.07,7.07,0,0,1-4.21-2.68,5.38,5.38,0,0,1,2.59-8.47,7.67,7.67,0,0,1,4.71-.13,6.84,6.84,0,0,1,3.69,2.69A5.27,5.27,0,0,1,217.76,178.22Zm-.2-.05a4,4,0,0,0-1-4,6.65,6.65,0,0,0-3.61-1.94,6.34,6.34,0,0,0-3.93.37,4.07,4.07,0,0,0-2.4,2.67,3.65,3.65,0,0,0,.92,3.26,6.66,6.66,0,0,0,3.1,1.93,7.56,7.56,0,0,0,3.85.25A4,4,0,0,0,217.56,178.17Z"/>
          </g>
          <g>
            <path class="cls-2" d="M216,186.58c-.71,2.42-3.93,3.69-7.2,2.83s-5.34-3.54-4.63-6,3.93-3.69,7.19-2.83S216.75,184.15,216,186.58Z"/>
            <path class="cls-3" d="M216.14,186.61a5.37,5.37,0,0,1-2.9,3.26,7,7,0,0,1-4.59.56,7.38,7.38,0,0,1-4.11-2.41,4.74,4.74,0,0,1,2.42-8,8.13,8.13,0,0,1,4.51.05,7.28,7.28,0,0,1,3.63,2.45A4.77,4.77,0,0,1,216.14,186.61Zm-.2-.06a3.63,3.63,0,0,0-1.16-3.71,7.5,7.5,0,0,0-3.57-1.73,6.86,6.86,0,0,0-3.82.22,3.58,3.58,0,0,0-2.38,2.35,3.2,3.2,0,0,0,1.06,3,7.78,7.78,0,0,0,3.09,1.77,9,9,0,0,0,3.73.4A3.61,3.61,0,0,0,215.94,186.55Z"/>
          </g>
          <g>
            <path class="cls-2" d="M226.68,182.34c-.81,2.79-4.12,4.36-7.39,3.5s-5.26-3.83-4.45-6.63,4.12-4.36,7.39-3.5S227.49,179.54,226.68,182.34Z"/>
            <path class="cls-3" d="M226.78,182.36A6.24,6.24,0,0,1,224,186a6.69,6.69,0,0,1-4.87.83,7,7,0,0,1-4.25-2.81,5.66,5.66,0,0,1,2.65-8.66,7.37,7.37,0,0,1,4.79-.21A6.66,6.66,0,0,1,226,178,5.57,5.57,0,0,1,226.78,182.36Zm-.2-.05a4.24,4.24,0,0,0-.92-4.08,6.56,6.56,0,0,0-3.63-2,6.23,6.23,0,0,0-4,.45,4.3,4.3,0,0,0-2.4,2.8,3.83,3.83,0,0,0,.87,3.39,6.41,6.41,0,0,0,3.1,2,7.24,7.24,0,0,0,3.9.17A4.21,4.21,0,0,0,226.58,182.31Z"/>
          </g>
          <g>
            <path class="cls-2" d="M238.22,190.14c-.88,3.05-4.5,4.76-8.07,3.82s-5.74-4.18-4.86-7.23,4.5-4.76,8.07-3.82S239.11,187.09,238.22,190.14Z"/>
            <path class="cls-3" d="M238.32,190.17a6.65,6.65,0,0,1-3.08,4A7.24,7.24,0,0,1,230,195a7.57,7.57,0,0,1-4.59-3,6.09,6.09,0,0,1,2.85-9.34,8,8,0,0,1,5.19-.24,7.34,7.34,0,0,1,4.06,3A6,6,0,0,1,238.32,190.17Zm-.2-.06a4.68,4.68,0,0,0-1-4.46,7.09,7.09,0,0,0-4-2.25,6.94,6.94,0,0,0-4.39.47,4.82,4.82,0,0,0-2.67,3.1,4.26,4.26,0,0,0,1,3.77,6.92,6.92,0,0,0,3.44,2.22,7.83,7.83,0,0,0,4.3.15A4.64,4.64,0,0,0,238.12,190.11Z"/>
          </g>
          <g>
            <path class="cls-2" d="M226.08,190.45c-.71,2.42-3.79,3.72-6.89,2.9s-5-3.45-4.33-5.87,3.79-3.73,6.89-2.91S226.79,188,226.08,190.45Z"/>
            <path class="cls-3" d="M226.18,190.48c-.7,2.76-4.13,4.62-7.19,3.9a6.86,6.86,0,0,1-4-2.43,5.18,5.18,0,0,1-1-4.7,5.12,5.12,0,0,1,3.38-3.17,7.43,7.43,0,0,1,4.38,0,6.66,6.66,0,0,1,3.48,2.45A4.8,4.8,0,0,1,226.18,190.48Zm-.2-.06a3.62,3.62,0,0,0-1-3.64,6.85,6.85,0,0,0-3.41-1.72,6.32,6.32,0,0,0-3.66.29,3.62,3.62,0,0,0-2.23,2.36,3.21,3.21,0,0,0,.94,2.91,6.86,6.86,0,0,0,2.91,1.73,7.91,7.91,0,0,0,3.57.34A3.57,3.57,0,0,0,226,190.42Z"/>
          </g>
          <g>
            <path class="cls-2" d="M250.84,191.27c.11,2.37-2.52,4-6.16,4s-7.33-1.2-7.45-3.57a6.58,6.58,0,0,1,6.17-6.09C247,185.6,250.72,188.89,250.84,191.27Z"/>
            <path class="cls-3" d="M250.94,191.26a3.43,3.43,0,0,1-.66,2.28,5.84,5.84,0,0,1-1.87,1.62,9.27,9.27,0,0,1-2.33.89,11.34,11.34,0,0,1-2.45.22,11,11,0,0,1-4.84-1.16,4.93,4.93,0,0,1-2-1.94,3.24,3.24,0,0,1-.39-1.52,4.63,4.63,0,0,1,.22-1.37,7.85,7.85,0,0,1,3-4,6.32,6.32,0,0,1,4.79-1.1,8.61,8.61,0,0,1,4.21,2.2,10.17,10.17,0,0,1,1.52,1.76A4.63,4.63,0,0,1,250.94,191.26Zm-.21,0a3.82,3.82,0,0,0-.83-2,7.22,7.22,0,0,0-1.63-1.54,8.8,8.8,0,0,0-4.07-1.51c-2.82-.39-5.4,2-6,4.52a3.14,3.14,0,0,0-.08.9,1.39,1.39,0,0,0,.24.65,3,3,0,0,0,1.37,1,14,14,0,0,0,4,.92,13.11,13.11,0,0,0,4.24-.06,4.07,4.07,0,0,0,1.9-.92A2.6,2.6,0,0,0,250.73,191.27Z"/>
          </g>
        </g>
        <g>
          <g>
            <path class="cls-3" d="M205.57,115.24c18.06,3.37,48.32,14.38,64.69,30.55,6.59,6.54,14.06,16.51,22.82,16.18,3.93-.15,10.5-3.08,11.06-11.76,1.43-22.06-9.7-33.66-34.34-46.9C241.22,88,196.62,93.18,194,105.11"/>
            <path class="cls-3" d="M205.58,115.19A124.83,124.83,0,0,1,221.52,119c5.24,1.58,10.4,3.43,15.46,5.51a133.46,133.46,0,0,1,14.8,7.15,96.18,96.18,0,0,1,13.67,9.16,74.45,74.45,0,0,1,6.09,5.56l5.65,5.92a54.25,54.25,0,0,0,6,5.45,18.53,18.53,0,0,0,7.11,3.52,10.67,10.67,0,0,0,3.9.15,11.38,11.38,0,0,0,3.71-1.29,11,11,0,0,0,5-5.89c1-2.49.94-5.25,1-8a43,43,0,0,0-.74-8.09,34.35,34.35,0,0,0-6.66-14.69,55.27,55.27,0,0,0-12-11,133.11,133.11,0,0,0-14-8.4,75.24,75.24,0,0,0-15.09-6.07,103.58,103.58,0,0,0-32.26-3.72,76.26,76.26,0,0,0-16.13,2.24,35.52,35.52,0,0,0-7.6,2.85,15.3,15.3,0,0,0-3.32,2.31,7.13,7.13,0,0,0-2.12,3.39,0,0,0,0,1-.06,0s-.05,0,0-.06a7.18,7.18,0,0,1,2.06-3.52,15.56,15.56,0,0,1,3.31-2.46,34.52,34.52,0,0,1,7.63-3.07,76.2,76.2,0,0,1,16.23-2.53,103.53,103.53,0,0,1,16.42.49,91.4,91.4,0,0,1,16.14,3.16,70,70,0,0,1,15.17,6.33,138.17,138.17,0,0,1,13.92,8.68,59.29,59.29,0,0,1,12,11.1,34.83,34.83,0,0,1,6.89,14.81,43.23,43.23,0,0,1,.83,8.18c0,1.38,0,2.75-.11,4.12a14.78,14.78,0,0,1-.82,4.1,11.86,11.86,0,0,1-5.3,6.36,12.49,12.49,0,0,1-4,1.43,11.35,11.35,0,0,1-4.23-.13,19.5,19.5,0,0,1-7.48-3.65A53.71,53.71,0,0,1,276.5,153l-5.67-5.91a66.1,66.1,0,0,0-6-5.43c-8.54-6.72-18.22-11.88-28.19-16.23a168.6,168.6,0,0,0-31-10.12.06.06,0,0,1-.05-.06A.06.06,0,0,1,205.58,115.19Z"/>
          </g>
          <g>
            <g>
              <ellipse class="cls-2" cx="217.31" cy="96.61" rx="4.18" ry="5.96" transform="translate(109.07 308.36) rotate(-86.89)"/>
              <path class="cls-3" d="M223.36,96.65a4.51,4.51,0,0,1-1.87,3.71,6.85,6.85,0,0,1-4.16,1.48,7.6,7.6,0,0,1-4.33-1.22A6.1,6.1,0,0,1,211.3,99a4.35,4.35,0,0,1-.78-2.37,3.89,3.89,0,0,1,.78-2.34,5.23,5.23,0,0,1,1.76-1.5,8,8,0,0,1,4.21-.85,7.55,7.55,0,0,1,3.92,1.39A4.76,4.76,0,0,1,223.36,96.65Zm-.21,0a3.55,3.55,0,0,0-2.18-3,7.93,7.93,0,0,0-3.72-.72,6.72,6.72,0,0,0-3.5,1,2.92,2.92,0,0,0-1.55,2.6,3.17,3.17,0,0,0,1.87,2.32,8.44,8.44,0,0,0,3.31.89,9,9,0,0,0,3.55-.35A3,3,0,0,0,223.15,96.66Z"/>
            </g>
            <g>
              <path class="cls-2" d="M233.61,98c.1,2.52-3.13,4-6,4s-5.54-2-5.64-4.53,2.16-5.76,5-5.74S233.51,95.52,233.61,98Z"/>
              <path class="cls-3" d="M233.72,98a4.41,4.41,0,0,1-2.24,3.74,7.52,7.52,0,0,1-4.47,1.3,6.6,6.6,0,0,1-4.42-2,5.42,5.42,0,0,1-1.28-2.22,4.71,4.71,0,0,1,0-2.55,7.19,7.19,0,0,1,2.52-3.94,5.36,5.36,0,0,1,2.17-1,4.49,4.49,0,0,1,2.39.19,8.25,8.25,0,0,1,3.49,2.7A7.91,7.91,0,0,1,233.72,98Zm-.21,0a5.42,5.42,0,0,0-2-3.55,8.9,8.9,0,0,0-3.48-2,3.52,3.52,0,0,0-3.38.88,5.69,5.69,0,0,0-1.75,3.22,3.08,3.08,0,0,0,1.13,3A6.11,6.11,0,0,0,227.2,101a9.8,9.8,0,0,0,3.79-.22,4,4,0,0,0,1.73-.93A2.54,2.54,0,0,0,233.51,98Z"/>
            </g>
            <g>
              <path class="cls-2" d="M244.32,98.76c.1,2.52-3.13,4-6,4s-5.54-2-5.64-4.54,2.16-5.75,5-5.73S244.22,96.24,244.32,98.76Z"/>
              <path class="cls-3" d="M244.43,98.76a4.39,4.39,0,0,1-2.24,3.73,7.39,7.39,0,0,1-4.47,1.3,6.54,6.54,0,0,1-4.42-2A5.49,5.49,0,0,1,232,99.54,4.81,4.81,0,0,1,232,97a7.21,7.21,0,0,1,2.52-3.94,5.24,5.24,0,0,1,2.17-1,4.4,4.4,0,0,1,2.39.19,8.23,8.23,0,0,1,3.49,2.69A7.9,7.9,0,0,1,244.43,98.76Zm-.21,0a5.47,5.47,0,0,0-2-3.55,8.8,8.8,0,0,0-3.48-2,3.47,3.47,0,0,0-3.38.88,5.66,5.66,0,0,0-1.75,3.21,3.11,3.11,0,0,0,1.13,3,6.18,6.18,0,0,0,3.16,1.42,9.77,9.77,0,0,0,3.78-.23,4,4,0,0,0,1.73-.93A2.52,2.52,0,0,0,244.22,98.76Z"/>
            </g>
            <g>
              <path class="cls-2" d="M255,99.93c-.21,2.34-3,3.93-6.16,3.54s-5.61-2.6-5.4-5,3-3.92,6.16-3.54S255.22,97.59,255,99.93Z"/>
              <path class="cls-3" d="M255.12,99.94a4.72,4.72,0,0,1-2.22,3.49,6.64,6.64,0,0,1-4.26,1.07,7.32,7.32,0,0,1-4.15-1.74,5.13,5.13,0,0,1-1.88-4.31,4.15,4.15,0,0,1,1-2.21,5.2,5.2,0,0,1,1.87-1.32,7.6,7.6,0,0,1,4.25-.44,7.19,7.19,0,0,1,3.71,1.85A4.79,4.79,0,0,1,255.12,99.94Zm-.21,0a3.56,3.56,0,0,0-1.73-3.25,7.53,7.53,0,0,0-3.56-1.15,6.42,6.42,0,0,0-3.54.63,3,3,0,0,0-1.8,2.45,3.2,3.2,0,0,0,1.51,2.55,8,8,0,0,0,3.12,1.27,8.36,8.36,0,0,0,3.52,0A3.11,3.11,0,0,0,254.91,99.92Z"/>
            </g>
            <g>
              <path class="cls-2" d="M264.74,104c-.21,2.42-3,4.06-6.29,3.66s-5.72-2.68-5.51-5.09,3-4.06,6.29-3.66S265,101.54,264.74,104Z"/>
              <path class="cls-3" d="M264.85,104a4.83,4.83,0,0,1-2.25,3.58,6.76,6.76,0,0,1-4.36,1.1,7.4,7.4,0,0,1-4.24-1.8,5.21,5.21,0,0,1-1.89-4.4,4.27,4.27,0,0,1,1-2.26,5.55,5.55,0,0,1,1.9-1.36,7.79,7.79,0,0,1,4.35-.47,7.32,7.32,0,0,1,3.79,1.9A5,5,0,0,1,264.85,104Zm-.21,0a3.7,3.7,0,0,0-1.75-3.35,7.64,7.64,0,0,0-3.64-1.2,6.57,6.57,0,0,0-3.63.66,3.16,3.16,0,0,0-1.84,2.54,3.27,3.27,0,0,0,1.54,2.65,7.81,7.81,0,0,0,3.19,1.32,8.41,8.41,0,0,0,3.6,0A3.23,3.23,0,0,0,264.64,104Z"/>
            </g>
            <g>
              <ellipse class="cls-2" cx="267.86" cy="107.6" rx="4.59" ry="5.7" transform="translate(134.98 363.87) rotate(-84.48)"/>
              <path class="cls-3" d="M273.65,107.65a5,5,0,0,1-1.58,3.89,6.13,6.13,0,0,1-4.18,1.71,6.89,6.89,0,0,1-4.37-1.47,5.52,5.52,0,0,1-2.18-4.19,4.83,4.83,0,0,1,2.24-4,6.85,6.85,0,0,1,4.23-1.08C270.7,102.67,273.39,104.85,273.65,107.65Zm-.21,0a3.93,3.93,0,0,0-2-3.21,6.74,6.74,0,0,0-3.67-.9,5.67,5.67,0,0,0-3.4,1.13,3.34,3.34,0,0,0-1.37,2.86,3.56,3.56,0,0,0,1.74,2.58,6.85,6.85,0,0,0,3.2,1,7,7,0,0,0,3.46-.52A3.31,3.31,0,0,0,273.44,107.65Z"/>
            </g>
            <g>
              <path class="cls-2" d="M281.92,112.63c.11,2.66-2.51,4.8-5.83,4.77s-6.11-2.2-6.22-4.86,2.51-4.79,5.84-4.77S281.82,110,281.92,112.63Z"/>
              <path class="cls-3" d="M282,112.63a5.22,5.22,0,0,1-1.71,4.07,6.53,6.53,0,0,1-4.39,1.74,7.22,7.22,0,0,1-4.57-1.51,5.74,5.74,0,0,1-2.33-4.36,5,5,0,0,1,2.37-4.19,7.26,7.26,0,0,1,4.45-1.12A7,7,0,0,1,280,108.9,5.56,5.56,0,0,1,282,112.63Zm-.21,0a4.12,4.12,0,0,0-2.12-3.38,7.24,7.24,0,0,0-3.88-1,6.12,6.12,0,0,0-3.63,1.19,3.49,3.49,0,0,0-1.48,3,3.73,3.73,0,0,0,1.86,2.74,7.35,7.35,0,0,0,3.42,1.1,7.59,7.59,0,0,0,3.68-.56A3.52,3.52,0,0,0,281.82,112.64Z"/>
            </g>
            <g>
              <path class="cls-2" d="M290.79,118.48c.11,2.65-2.51,4.79-5.83,4.76s-6.11-2.2-6.22-4.86,2.51-4.79,5.83-4.76S290.68,115.82,290.79,118.48Z"/>
              <path class="cls-3" d="M290.89,118.47a5.15,5.15,0,0,1-1.7,4.07,6.49,6.49,0,0,1-4.39,1.74,7.32,7.32,0,0,1-4.58-1.5,5.76,5.76,0,0,1-2.32-4.36,5,5,0,0,1,2.37-4.2,7.3,7.3,0,0,1,4.44-1.12,7.13,7.13,0,0,1,4.12,1.64A5.5,5.5,0,0,1,290.89,118.47Zm-.21,0a4.09,4.09,0,0,0-2.11-3.38,7.23,7.23,0,0,0-3.88-.95,6.11,6.11,0,0,0-3.63,1.18,3.48,3.48,0,0,0-1.48,3,3.76,3.76,0,0,0,1.86,2.75,7.34,7.34,0,0,0,3.41,1.09,7.63,7.63,0,0,0,3.69-.56A3.49,3.49,0,0,0,290.68,118.48Z"/>
            </g>
            <g>
              <path class="cls-2" d="M297.89,125.59c.11,2.66-2.51,4.79-5.83,4.76s-6.11-2.2-6.22-4.86,2.51-4.79,5.83-4.76S297.78,122.93,297.89,125.59Z"/>
              <path class="cls-3" d="M298,125.58a5.15,5.15,0,0,1-1.7,4.07,6.54,6.54,0,0,1-4.39,1.75,7.33,7.33,0,0,1-4.58-1.51,5.76,5.76,0,0,1-2.32-4.36,5,5,0,0,1,2.37-4.2,7.37,7.37,0,0,1,4.44-1.12,7.07,7.07,0,0,1,4.12,1.65A5.46,5.46,0,0,1,298,125.58Zm-.2,0a4.12,4.12,0,0,0-2.12-3.38,7.23,7.23,0,0,0-3.88-.95,6.11,6.11,0,0,0-3.63,1.18,3.48,3.48,0,0,0-1.48,3,3.76,3.76,0,0,0,1.86,2.75A7.34,7.34,0,0,0,292,129.3a7.52,7.52,0,0,0,3.69-.56A3.5,3.5,0,0,0,297.79,125.59Z"/>
            </g>
            <g>
              <path class="cls-2" d="M303,133.54c.1,2.66-2.51,4.79-5.84,4.77s-6.11-2.21-6.21-4.86,2.51-4.8,5.83-4.77S302.87,130.88,303,133.54Z"/>
              <path class="cls-3" d="M303.08,133.54a5.18,5.18,0,0,1-1.7,4.07,6.53,6.53,0,0,1-4.39,1.74,7.31,7.31,0,0,1-4.58-1.51,5.76,5.76,0,0,1-2.32-4.36,5,5,0,0,1,2.37-4.2,7.37,7.37,0,0,1,4.44-1.12,7.14,7.14,0,0,1,4.12,1.65A5.46,5.46,0,0,1,303.08,133.54Zm-.21,0a4.06,4.06,0,0,0-2.11-3.37,7.24,7.24,0,0,0-3.88-1,6.09,6.09,0,0,0-3.63,1.18,3.48,3.48,0,0,0-1.48,3,3.73,3.73,0,0,0,1.86,2.75,8,8,0,0,0,7.1.53A3.5,3.5,0,0,0,302.87,133.54Z"/>
            </g>
            <g>
              <path class="cls-2" d="M303.77,142c.09,2.37-2.17,4.26-5.06,4.24s-5.31-1.95-5.4-4.32,2.17-4.26,5.06-4.24S303.67,139.63,303.77,142Z"/>
              <path class="cls-3" d="M303.87,142a4.72,4.72,0,0,1-1.42,3.65,5.55,5.55,0,0,1-3.88,1.63,6.23,6.23,0,0,1-4.08-1.38,5.25,5.25,0,0,1-2-3.94,4.59,4.59,0,0,1,2.08-3.78,6.3,6.3,0,0,1,3.94-1A5.71,5.71,0,0,1,303.87,142Zm-.21,0a3.56,3.56,0,0,0-1.82-3,6.14,6.14,0,0,0-3.37-.83,5.15,5.15,0,0,0-3.11,1.07,3,3,0,0,0-1.21,2.61,3.19,3.19,0,0,0,1.58,2.34,6.2,6.2,0,0,0,2.89,1,6.36,6.36,0,0,0,3.17-.45A3,3,0,0,0,303.66,142Z"/>
            </g>
          </g>
          <g>
            <g>
              <ellipse class="cls-2" cx="206.12" cy="101.14" rx="4.38" ry="5.81" transform="translate(90.68 299.6) rotate(-85.95)"/>
              <path class="cls-3" d="M212,101.18a4.71,4.71,0,0,1-1.71,3.8,6.47,6.47,0,0,1-4.16,1.58,7.2,7.2,0,0,1-4.34-1.33,5.3,5.3,0,0,1-2.32-4.11,4.18,4.18,0,0,1,.7-2.33,5,5,0,0,1,1.68-1.59,7.43,7.43,0,0,1,4.21-1,7.07,7.07,0,0,1,3.9,1.49A5,5,0,0,1,212,101.18Zm-.2,0a3.73,3.73,0,0,0-2.08-3.1,7.25,7.25,0,0,0-3.68-.81,6.2,6.2,0,0,0-3.45,1.06,3.09,3.09,0,0,0-1.45,2.72,3.33,3.33,0,0,0,1.8,2.44,7.51,7.51,0,0,0,3.24,1,8,8,0,0,0,3.5-.43A3.16,3.16,0,0,0,211.82,101.19Z"/>
            </g>
            <g>
              <path class="cls-2" d="M221.37,104.46c.1,2.66-2.41,4.8-5.61,4.77s-5.88-2.2-6-4.86,2.41-4.79,5.61-4.77S221.26,101.8,221.37,104.46Z"/>
              <path class="cls-3" d="M221.47,104.46a5.21,5.21,0,0,1-1.57,4,6.16,6.16,0,0,1-4.29,1.78,6.91,6.91,0,0,1-4.49-1.55,5.75,5.75,0,0,1-2.18-4.31,5.05,5.05,0,0,1,2.23-4.16,6.84,6.84,0,0,1,4.35-1.16A6.29,6.29,0,0,1,221.47,104.46Zm-.21,0a4.13,4.13,0,0,0-2-3.36,6.85,6.85,0,0,0-3.77-1,5.67,5.67,0,0,0-3.5,1.21,3.53,3.53,0,0,0-1.38,3,3.77,3.77,0,0,0,1.77,2.73,6.76,6.76,0,0,0,3.28,1.11,6.92,6.92,0,0,0,3.56-.59A3.48,3.48,0,0,0,221.26,104.47Z"/>
            </g>
            <g>
              <path class="cls-2" d="M229.91,107.74c.1,2.65-2.41,4.79-5.61,4.76s-5.88-2.2-6-4.85,2.51-5,5.71-5S229.8,105.08,229.91,107.74Z"/>
              <path class="cls-3" d="M230,107.73a5.25,5.25,0,0,1-1.6,4.06,6.18,6.18,0,0,1-4.34,1.75,6.81,6.81,0,0,1-4.5-1.62,5.62,5.62,0,0,1-2.09-4.4,5.31,5.31,0,0,1,2.31-4.13,6.81,6.81,0,0,1,4.36-1.24A6.34,6.34,0,0,1,230,107.73Zm-.21,0a4.35,4.35,0,0,0-1.93-3.45,6.23,6.23,0,0,0-3.74-1.09,5.57,5.57,0,0,0-3.5,1.26,3.85,3.85,0,0,0-1.48,3.05,3.7,3.7,0,0,0,1.7,2.79,7.35,7.35,0,0,0,6.89.59A3.51,3.51,0,0,0,229.8,107.74Z"/>
            </g>
            <g>
              <path class="cls-2" d="M238.93,105.88c.1,2.54-2.21,4.58-5.16,4.56s-5.43-2.1-5.53-4.64,2.21-4.58,5.16-4.56S238.82,103.34,238.93,105.88Z"/>
              <path class="cls-3" d="M239,105.88a5.1,5.1,0,0,1-1.38,3.83,5.56,5.56,0,0,1-4,1.77,6.33,6.33,0,0,1-4.24-1.53,5.63,5.63,0,0,1-2-4.12,4.91,4.91,0,0,1,2-4,6.33,6.33,0,0,1,4.09-1.15A5.92,5.92,0,0,1,239,105.88Zm-.21,0a3.91,3.91,0,0,0-1.82-3.18,6,6,0,0,0-3.5-.94,5,5,0,0,0-3.21,1.17,3.33,3.33,0,0,0-1.21,2.83,3.58,3.58,0,0,0,1.6,2.56,6,6,0,0,0,3,1.06,6.19,6.19,0,0,0,3.27-.55A3.32,3.32,0,0,0,238.82,105.89Z"/>
            </g>
            <g>
              <path class="cls-2" d="M248.82,109c.11,2.78-2.6,5-6,5s-6.34-2.3-6.45-5.07,2.6-5,6.05-5S248.71,106.18,248.82,109Z"/>
              <path class="cls-3" d="M248.92,109a5.37,5.37,0,0,1-1.76,4.22,6.78,6.78,0,0,1-4.55,1.8,7.53,7.53,0,0,1-4.74-1.57,5.94,5.94,0,0,1-2.39-4.51,5.2,5.2,0,0,1,2.43-4.35,7.54,7.54,0,0,1,8.88.53A5.69,5.69,0,0,1,248.92,109Zm-.2,0a4.31,4.31,0,0,0-2.19-3.53,7.3,7.3,0,0,0-4-1,6.35,6.35,0,0,0-3.79,1.24,3.67,3.67,0,0,0-1.55,3.17,4,4,0,0,0,1.94,2.9,7.51,7.51,0,0,0,3.57,1.16,7.66,7.66,0,0,0,3.84-.62A3.7,3.7,0,0,0,248.72,109Z"/>
            </g>
            <g>
              <path class="cls-2" d="M259.35,110.85c.11,2.84-2.6,5.12-6.05,5.09s-6.34-2.35-6.45-5.18,2.59-5.12,6-5.09S259.24,108,259.35,110.85Z"/>
              <path class="cls-3" d="M259.45,110.85a5.49,5.49,0,0,1-1.73,4.28,6.7,6.7,0,0,1-4.58,1.85,7.46,7.46,0,0,1-4.77-1.63,6.08,6.08,0,0,1-2.36-4.56,5.32,5.32,0,0,1,2.4-4.41,7.49,7.49,0,0,1,4.63-1.23C256.22,105.34,259.2,107.75,259.45,110.85Zm-.2,0a4.42,4.42,0,0,0-2.18-3.6,7.16,7.16,0,0,0-4-1.06,6.24,6.24,0,0,0-3.8,1.28,3.78,3.78,0,0,0-1.54,3.24,4.08,4.08,0,0,0,1.93,3,7.88,7.88,0,0,0,7.44.54A3.8,3.8,0,0,0,259.25,110.86Z"/>
            </g>
            <g>
              <path class="cls-2" d="M269.1,116.06c.12,2.84-2.59,5.11-6.05,5.09s-6.34-2.35-6.45-5.19,2.59-5.11,6-5.08S269,113.23,269.1,116.06Z"/>
              <path class="cls-3" d="M269.21,116.06a5.51,5.51,0,0,1-1.74,4.28,6.7,6.7,0,0,1-4.58,1.85,7.46,7.46,0,0,1-4.77-1.63,6.08,6.08,0,0,1-2.36-4.56,5.35,5.35,0,0,1,2.4-4.41,7.44,7.44,0,0,1,4.63-1.23C266,110.55,269,113,269.21,116.06Zm-.21,0a4.42,4.42,0,0,0-2.17-3.6,7.19,7.19,0,0,0-4.06-1.06,6.23,6.23,0,0,0-3.8,1.27,3.8,3.8,0,0,0-1.53,3.25,4,4,0,0,0,1.92,3,7.27,7.27,0,0,0,3.59,1.19,7.4,7.4,0,0,0,3.85-.65A3.77,3.77,0,0,0,269,116.07Z"/>
            </g>
            <g>
              <path class="cls-2" d="M277,121.26a5.92,5.92,0,0,1-6,5.72c-3.45,0-5.65-2.13-5.76-5a5.78,5.78,0,0,1,5.67-5.94C274.37,116.1,276.92,118.42,277,121.26Z"/>
              <path class="cls-3" d="M277.14,121.25a6.62,6.62,0,0,1-1.43,4.39,6.15,6.15,0,0,1-4.35,2.38,6.82,6.82,0,0,1-4.88-1.46,5.9,5.9,0,0,1-2.07-4.68,6.68,6.68,0,0,1,2-4.51,6,6,0,0,1,4.46-1.81,6.8,6.8,0,0,1,4.3,1.71A6,6,0,0,1,277.14,121.25Zm-.21,0a4.48,4.48,0,0,0-2.05-3.65,6.74,6.74,0,0,0-4-1,4.86,4.86,0,0,0-3.47,1.7,5.16,5.16,0,0,0-1.29,3.56,3.84,3.84,0,0,0,1.67,3.07,6.12,6.12,0,0,0,3.51,1,6.18,6.18,0,0,0,3.65-1.09A4.42,4.42,0,0,0,276.93,121.26Z"/>
            </g>
            <g>
              <path class="cls-2" d="M285.69,127.53c.1,2.54-2.95,5.53-6,5.51s-5.65-2.1-5.75-4.64a5.42,5.42,0,0,1,5.24-5.42C282.23,123,285.59,125,285.69,127.53Z"/>
              <path class="cls-3" d="M285.8,127.52a6.45,6.45,0,0,1-1.55,4.13,6.25,6.25,0,0,1-4.08,2.41,6.77,6.77,0,0,1-4.71-1.27,5.63,5.63,0,0,1-2.38-4.33,6.08,6.08,0,0,1,1.91-4.35,5.69,5.69,0,0,1,4.32-1.64,8,8,0,0,1,4.14,1.53A5.11,5.11,0,0,1,285.8,127.52Zm-.21,0a3.89,3.89,0,0,0-2.37-3.16,8.69,8.69,0,0,0-3.94-.86,4.73,4.73,0,0,0-4.53,4.87,3.66,3.66,0,0,0,1.88,2.7A6.44,6.44,0,0,0,280,132a7,7,0,0,0,3.49-1.14A4.23,4.23,0,0,0,285.59,127.53Z"/>
            </g>
            <g>
              <path class="cls-2" d="M292.77,136.93c-1.15,2.48-4.42,3.44-7.31,2.16s-4.29-4.33-3.13-6.81,4.42-3.44,7.3-2.16S293.92,134.45,292.77,136.93Z"/>
              <path class="cls-3" d="M292.87,137a5.88,5.88,0,0,1-3.13,3,6.2,6.2,0,0,1-4.66.07,6.49,6.49,0,0,1-3.52-3.28,5.6,5.6,0,0,1,0-4.86,5.48,5.48,0,0,1,3.75-2.84,6.88,6.88,0,0,1,4.48.54A5.86,5.86,0,0,1,292.87,137Zm-.19-.08a4,4,0,0,0-.26-3.9,6.12,6.12,0,0,0-3-2.4,5.58,5.58,0,0,0-3.71-.18,4,4,0,0,0-2.58,2.22,3.6,3.6,0,0,0,.31,3.22,6.17,6.17,0,0,0,2.52,2.3,6.9,6.9,0,0,0,3.54.77A3.86,3.86,0,0,0,292.68,136.89Z"/>
            </g>
            <g>
              <ellipse class="cls-2" cx="290.2" cy="144.25" rx="4.94" ry="5.72" transform="translate(50.77 362.64) rotate(-68.8)"/>
              <path class="cls-3" d="M295.52,146.62a5.86,5.86,0,0,1-3.12,3,6.16,6.16,0,0,1-4.66.06,6.53,6.53,0,0,1-3.53-3.27,5.62,5.62,0,0,1,0-4.87,5.51,5.51,0,0,1,3.76-2.83,6.89,6.89,0,0,1,4.48.53A5.86,5.86,0,0,1,295.52,146.62Zm-.19-.09a4,4,0,0,0-.25-3.9,6.16,6.16,0,0,0-3-2.4,5.74,5.74,0,0,0-3.72-.18,4,4,0,0,0-2.58,2.23,3.6,3.6,0,0,0,.32,3.22,6.08,6.08,0,0,0,2.52,2.29,6.86,6.86,0,0,0,3.53.77A3.86,3.86,0,0,0,295.33,146.53Z"/>
            </g>
            <g>
              <ellipse class="cls-2" cx="296.75" cy="151.19" rx="4.93" ry="5.07" transform="translate(113.8 429.49) rotate(-83.68)"/>
              <path class="cls-3" d="M301.47,153.29a6.32,6.32,0,0,1-2.74,3.06,5.25,5.25,0,0,1-4.44.3,5.57,5.57,0,0,1-3.22-3.31,5.82,5.82,0,0,1,.3-4.56,5.72,5.72,0,0,1,3.37-2.85,5.78,5.78,0,0,1,4.27.28,5.21,5.21,0,0,1,2.67,3.14A5.68,5.68,0,0,1,301.47,153.29Zm-.19-.08a4.09,4.09,0,0,0,0-3.7,4.94,4.94,0,0,0-2.68-2.34,4.56,4.56,0,0,0-3.39,0,4.2,4.2,0,0,0-2.31,2.28,3.79,3.79,0,0,0,.1,3.08,4.69,4.69,0,0,0,2.13,2.16,5.28,5.28,0,0,0,3.23.56A3.94,3.94,0,0,0,301.28,153.21Z"/>
            </g>
          </g>
          <g>
            <path class="cls-2" d="M203.8,105.16c1,2.4-.44,5.1-3.24,6s-5.89-.25-6.89-2.65.45-5.1,3.24-6S202.8,102.76,203.8,105.16Z"/>
            <path class="cls-3" d="M203.9,105.12a5.63,5.63,0,0,1,.14,4.17,4.61,4.61,0,0,1-3.41,2.79,7.18,7.18,0,0,1-4.25-.62,6.71,6.71,0,0,1-3.24-2.69,4.46,4.46,0,0,1-.61-2.23,4.89,4.89,0,0,1,.62-2.3,6,6,0,0,1,3.62-2.85,6.17,6.17,0,0,1,2.3-.21,5.44,5.44,0,0,1,2.15.73A6.88,6.88,0,0,1,203.9,105.12Zm-.19.08a3.53,3.53,0,0,0-3-2,7.87,7.87,0,0,0-3.31.31,5,5,0,0,0-2.58,1.75,3.8,3.8,0,0,0-.64,3,3.51,3.51,0,0,0,2.42,2.5,5,5,0,0,0,3.51-.41,9.72,9.72,0,0,0,2.78-1.81,3.56,3.56,0,0,0,.92-1.53A2.8,2.8,0,0,0,203.71,105.2Z"/>
          </g>
          <g>
            <g>
              <path class="cls-2" d="M213.45,111c.1,2.54-2.36,4.58-5.5,4.55s-5.77-2.1-5.87-4.64,2.36-4.58,5.5-4.55S213.35,108.49,213.45,111Z"/>
              <path class="cls-3" d="M213.55,111a5,5,0,0,1-1.58,3.89,6.09,6.09,0,0,1-4.17,1.71,6.79,6.79,0,0,1-4.37-1.47,5.56,5.56,0,0,1-2.19-4.19,4.86,4.86,0,0,1,2.24-4,6.93,6.93,0,0,1,4.23-1.08C210.6,106.05,213.3,108.23,213.55,111Zm-.21,0a3.9,3.9,0,0,0-2-3.21,6.76,6.76,0,0,0-3.67-.9,5.67,5.67,0,0,0-3.41,1.13,3.3,3.3,0,0,0-1.36,2.86,3.53,3.53,0,0,0,1.74,2.58,6.78,6.78,0,0,0,3.19,1,7.1,7.1,0,0,0,3.47-.51A3.33,3.33,0,0,0,213.34,111Z"/>
            </g>
            <g>
              <path class="cls-2" d="M222.83,111.85c1.12,2.36-.3,5.16-3.15,6.26s-6.09.08-7.21-2.28.29-5.16,3.15-6.26S221.71,109.49,222.83,111.85Z"/>
              <path class="cls-3" d="M222.92,111.81a5,5,0,0,1,.15,4.19,5.67,5.67,0,0,1-3.23,3.16,6.65,6.65,0,0,1-4.61.13,5.82,5.82,0,0,1-3.51-3.1,4.86,4.86,0,0,1,.4-4.57,6.39,6.39,0,0,1,3.51-2.6A6.28,6.28,0,0,1,222.92,111.81Zm-.19.09a4.12,4.12,0,0,0-3-2.3A6.39,6.39,0,0,0,216,110a5.08,5.08,0,0,0-2.68,2.3,3.32,3.32,0,0,0-.07,3.16,3.84,3.84,0,0,0,2.59,1.83,6.56,6.56,0,0,0,3.32-.11,6.21,6.21,0,0,0,3-1.75A3.32,3.32,0,0,0,222.73,111.9Z"/>
            </g>
            <g>
              <path class="cls-2" d="M239.88,113.64c.4,2.52-1.8,4.82-4.9,5.12s-5.95-1.5-6.35-4,1.8-4.82,4.9-5.12S239.48,111.11,239.88,113.64Z"/>
              <path class="cls-3" d="M240,113.62a5,5,0,0,1-1.1,4.06,6,6,0,0,1-4,2.13,6.83,6.83,0,0,1-4.5-1,5.68,5.68,0,0,1-2.61-3.93,4.83,4.83,0,0,1,1.75-4.25,6.7,6.7,0,0,1,4.09-1.53A6.21,6.21,0,0,1,240,113.62Zm-.2,0a4,4,0,0,0-2.32-3,6.74,6.74,0,0,0-3.74-.55,5.57,5.57,0,0,0-3.25,1.49,3.27,3.27,0,0,0-1,3,3.61,3.61,0,0,0,2,2.4,7.28,7.28,0,0,0,6.65-.15A3.32,3.32,0,0,0,239.78,113.65Z"/>
            </g>
            <g>
              <path class="cls-2" d="M248.74,118.48c0,2.54-2.47,4.52-5.61,4.44s-5.72-2.22-5.76-4.76,2.47-4.53,5.61-4.44S248.7,115.94,248.74,118.48Z"/>
              <path class="cls-3" d="M248.85,118.48a5.05,5.05,0,0,1-1.67,3.86A6.1,6.1,0,0,1,243,124a6.85,6.85,0,0,1-4.34-1.54,5.56,5.56,0,0,1-2.1-4.24,4.84,4.84,0,0,1,2.33-4,6.91,6.91,0,0,1,4.26-1C246,113.44,248.66,115.67,248.85,118.48Zm-.21,0a3.9,3.9,0,0,0-1.92-3.25,6.73,6.73,0,0,0-3.65-1,5.73,5.73,0,0,0-3.43,1.07,3.29,3.29,0,0,0-1.43,2.82,3.52,3.52,0,0,0,1.68,2.62,6.77,6.77,0,0,0,3.17,1.1,7.09,7.09,0,0,0,3.48-.45A3.33,3.33,0,0,0,248.64,118.48Z"/>
            </g>
            <g>
              <path class="cls-2" d="M259.32,121.55c0,2.59-3.06,4.31-6.2,4.22s-6-1.94-6.09-4.53,2.9-5.39,6-5.3S259.28,119,259.32,121.55Z"/>
              <path class="cls-3" d="M259.42,121.54a4.68,4.68,0,0,1-2.18,3.87,7.3,7.3,0,0,1-4.52,1.39,7.68,7.68,0,0,1-4.58-1.64,5.73,5.73,0,0,1-1.59-2.06,4.3,4.3,0,0,1-.29-2.64,6.39,6.39,0,0,1,2.8-3.91,6.5,6.5,0,0,1,4.53-1.1,7,7,0,0,1,3.93,2.2A6.59,6.59,0,0,1,259.42,121.54Zm-.2,0a4.8,4.8,0,0,0-2-3.58,7.2,7.2,0,0,0-3.75-1.48,5.44,5.44,0,0,0-5.55,4.24,2.9,2.9,0,0,0,1.48,2.78,8,8,0,0,0,3.46,1.2,9.41,9.41,0,0,0,3.86-.29,4.05,4.05,0,0,0,1.71-1A2.86,2.86,0,0,0,259.22,121.55Z"/>
            </g>
            <g>
              <path class="cls-2" d="M233.26,116.09c1.26,2.65-.16,5.73-3.17,6.89s-6.48,0-7.73-2.7.16-5.73,3.17-6.89S232,113.44,233.26,116.09Z"/>
              <path class="cls-3" d="M233.36,116a5.72,5.72,0,0,1,.3,4.53,5.9,5.9,0,0,1-3.43,3.47,7,7,0,0,1-5,0,6.6,6.6,0,0,1-3.65-3.41,5.46,5.46,0,0,1,.25-4.89,6.42,6.42,0,0,1,3.71-2.92A6.74,6.74,0,0,1,233.36,116Zm-.19.09a4.76,4.76,0,0,0-3.21-2.62,6.5,6.5,0,0,0-4.05.31,5.17,5.17,0,0,0-2.85,2.56,3.94,3.94,0,0,0,.05,3.54,4.5,4.5,0,0,0,2.82,2.16,6.43,6.43,0,0,0,3.61,0,6,6,0,0,0,3.12-2A3.85,3.85,0,0,0,233.17,116.13Z"/>
            </g>
            <g>
              <path class="cls-2" d="M267,126.1c.11,2.71-2.3,4.9-5.37,4.87s-5.66-2.24-5.77-5,2.3-4.9,5.38-4.88S266.89,123.38,267,126.1Z"/>
              <path class="cls-3" d="M267.11,126.09a5.49,5.49,0,0,1-1.42,4,5.76,5.76,0,0,1-4.22,1.87,6.5,6.5,0,0,1-4.43-1.65,6,6,0,0,1-2-4.32,5.21,5.21,0,0,1,2.07-4.16,6.32,6.32,0,0,1,4.28-1.26A6.18,6.18,0,0,1,267.11,126.09Zm-.21,0a4.23,4.23,0,0,0-1.89-3.39,6.24,6.24,0,0,0-3.66-1,5.21,5.21,0,0,0-3.39,1.26A3.68,3.68,0,0,0,256.7,126a3.91,3.91,0,0,0,1.67,2.78,6.05,6.05,0,0,0,3.16,1.16,6.12,6.12,0,0,0,3.45-.65A3.61,3.61,0,0,0,266.9,126.1Z"/>
            </g>
            <g>
              <path class="cls-2" d="M275.84,131.19c.1,2.66-2.3,4.79-5.38,4.77s-5.66-2.2-5.76-4.86,2.3-4.79,5.38-4.77S275.73,128.53,275.84,131.19Z"/>
              <path class="cls-3" d="M275.94,131.19a5.3,5.3,0,0,1-1.44,4,5.83,5.83,0,0,1-4.19,1.82,6.56,6.56,0,0,1-4.4-1.6,5.81,5.81,0,0,1-2.05-4.26A5.08,5.08,0,0,1,266,127a6.47,6.47,0,0,1,4.24-1.2A6.13,6.13,0,0,1,275.94,131.19Zm-.21,0a4.11,4.11,0,0,0-1.89-3.32,6.33,6.33,0,0,0-3.65-1,5.22,5.22,0,0,0-3.37,1.23,3.52,3.52,0,0,0-1.28,3,3.77,3.77,0,0,0,1.68,2.72,6.67,6.67,0,0,0,6.58.51A3.5,3.5,0,0,0,275.73,131.19Z"/>
            </g>
            <g>
              <path class="cls-2" d="M283.81,137.24c.1,2.66-2.46,4.79-5.72,4.77s-6-2.2-6.11-4.86,2.46-4.79,5.72-4.77S283.7,134.58,283.81,137.24Z"/>
              <path class="cls-3" d="M283.91,137.24a5.19,5.19,0,0,1-1.64,4,6.35,6.35,0,0,1-4.34,1.76,7.11,7.11,0,0,1-4.53-1.53,5.73,5.73,0,0,1-2.25-4.34,5,5,0,0,1,2.3-4.18,7.15,7.15,0,0,1,4.39-1.14C280.85,132,283.66,134.32,283.91,137.24Zm-.21,0a4.08,4.08,0,0,0-2.06-3.36,6.94,6.94,0,0,0-3.82-1,5.92,5.92,0,0,0-3.57,1.19,3.52,3.52,0,0,0-1.43,3,3.73,3.73,0,0,0,1.82,2.74A7,7,0,0,0,278,141a7.06,7.06,0,0,0,3.62-.57A3.51,3.51,0,0,0,283.7,137.24Z"/>
            </g>
            <g>
              <path class="cls-2" d="M286.79,145.35c-.35,2.62-3.05,4.36-6.05,3.89s-5.14-3-4.79-5.6,3.84-4,6.83-3.52A4.4,4.4,0,0,1,286.79,145.35Z"/>
              <path class="cls-3" d="M286.89,145.36a5.43,5.43,0,0,1-2,3.66,5.71,5.71,0,0,1-4.31,1.25,6.44,6.44,0,0,1-4.08-2.14,5.75,5.75,0,0,1-1.4-4.44,4.12,4.12,0,0,1,1-2.22,5.38,5.38,0,0,1,1.86-1.32,8.29,8.29,0,0,1,4.24-.62,5,5,0,0,1,4.66,5.83Zm-.21,0a3.94,3.94,0,0,0-1.07-3.58,5.3,5.3,0,0,0-3.46-1.18,7.3,7.3,0,0,0-3.56.8,3.09,3.09,0,0,0-1.82,2.48,3.71,3.71,0,0,0,1.25,2.86,6.08,6.08,0,0,0,2.89,1.49,6.22,6.22,0,0,0,3.41-.14A3.52,3.52,0,0,0,286.68,145.33Z"/>
            </g>
            <g>
              <path class="cls-2" d="M292.3,152.66c-.34,2.62-3,4.36-6,3.89s-5.14-3-4.79-5.6,3.84-4,6.83-3.52A4.39,4.39,0,0,1,292.3,152.66Z"/>
              <path class="cls-3" d="M292.41,152.68a5.49,5.49,0,0,1-2,3.66,5.79,5.79,0,0,1-4.31,1.25,6.43,6.43,0,0,1-4.08-2.15,5.7,5.7,0,0,1-1.4-4.44,4.11,4.11,0,0,1,1-2.22,5.56,5.56,0,0,1,1.87-1.32,8.38,8.38,0,0,1,4.23-.62,5,5,0,0,1,4.67,5.84Zm-.21,0a4,4,0,0,0-1.07-3.58,5.26,5.26,0,0,0-3.47-1.18,7.15,7.15,0,0,0-3.55.79,3,3,0,0,0-1.82,2.49,3.66,3.66,0,0,0,1.24,2.85,6.17,6.17,0,0,0,2.9,1.5,6.32,6.32,0,0,0,3.41-.15A3.52,3.52,0,0,0,292.2,152.65Z"/>
            </g>
            <g>
              <path class="cls-2" d="M296.23,159.42c-.3,2.29-2.66,3.81-5.27,3.4s-4.48-2.61-4.18-4.9,3.35-3.48,6-3.07A3.84,3.84,0,0,1,296.23,159.42Z"/>
              <path class="cls-3" d="M296.33,159.43a4.91,4.91,0,0,1-1.71,3.26,5,5,0,0,1-3.82,1.16,5.64,5.64,0,0,1-3.64-1.92,5.11,5.11,0,0,1-1.22-4,3.67,3.67,0,0,1,.92-2,4.93,4.93,0,0,1,1.66-1.17,7.34,7.34,0,0,1,3.74-.53,4.77,4.77,0,0,1,3.25,1.73A4.86,4.86,0,0,1,296.33,159.43Zm-.2,0a3.37,3.37,0,0,0-.95-3.1,4.58,4.58,0,0,0-3-1,6.24,6.24,0,0,0-3.06.71,2.6,2.6,0,0,0-1.52,2.1,3.11,3.11,0,0,0,1.08,2.4,5.34,5.34,0,0,0,2.44,1.26,5.68,5.68,0,0,0,2.92-.05A3,3,0,0,0,296.13,159.4Z"/>
            </g>
          </g>
          <g>
            <g>
              <path class="cls-2" d="M242.27,122.32c.54,2.56-1.39,5-4.3,5.4s-5.71-1.32-6.25-3.88,1.38-5,4.3-5.39S241.73,119.76,242.27,122.32Z"/>
              <path class="cls-3" d="M242.37,122.3a5.17,5.17,0,0,1-.69,4.06,5.4,5.4,0,0,1-3.75,2.41,6.3,6.3,0,0,1-4.46-1,5.84,5.84,0,0,1-2.57-3.8,5,5,0,0,1,1.32-4.3,6,6,0,0,1,10.15,2.58Zm-.2,0a4.13,4.13,0,0,0-2.31-2.92,6,6,0,0,0-3.62-.47,4.78,4.78,0,0,0-3,1.67,3.43,3.43,0,0,0-.7,3,3.79,3.79,0,0,0,2,2.37,6,6,0,0,0,3.14.65,5.73,5.73,0,0,0,3.15-1.07A3.37,3.37,0,0,0,242.17,122.34Z"/>
            </g>
            <g>
              <path class="cls-2" d="M253,128c-.53,2.52-3.56,4-6.75,3.24s-5.34-3.36-4.81-5.88,3.55-4,6.75-3.23S253.49,125.5,253,128Z"/>
              <path class="cls-3" d="M253.06,128a5.23,5.23,0,0,1-2.58,3.46,6.56,6.56,0,0,1-4.54.75,7.17,7.17,0,0,1-4.1-2.35,5.45,5.45,0,0,1-1.26-4.7,5,5,0,0,1,3.25-3.42,7.43,7.43,0,0,1,4.47-.14,6.94,6.94,0,0,1,3.61,2.4A5.08,5.08,0,0,1,253.06,128Zm-.2,0a3.83,3.83,0,0,0-1.27-3.65,7.08,7.08,0,0,0-3.52-1.68,6.26,6.26,0,0,0-3.72.38,3.5,3.5,0,0,0-2.13,2.51,3.43,3.43,0,0,0,1.15,3,7.26,7.26,0,0,0,3,1.71,7.72,7.72,0,0,0,3.65.25A3.49,3.49,0,0,0,252.86,128Z"/>
            </g>
            <g>
              <path class="cls-2" d="M263,134c-.54,2.51-3.83,3.63-7,2.9s-6.34-2.63-5.8-5.14,4.54-4.69,7.74-4S263.53,131.46,263,134Z"/>
              <path class="cls-3" d="M263.1,134a4.86,4.86,0,0,1-3,3.36,7.62,7.62,0,0,1-4.76.44,10.18,10.18,0,0,1-4.34-2,5.36,5.36,0,0,1-1.56-2.18,3.52,3.52,0,0,1,.19-2.8,6.85,6.85,0,0,1,3.72-3.13,7.87,7.87,0,0,1,4.68-.38,7.37,7.37,0,0,1,3.77,2.55A5.48,5.48,0,0,1,263.1,134Zm-.21,0a4.14,4.14,0,0,0-1.42-3.84,7.22,7.22,0,0,0-3.68-1.83,6.73,6.73,0,0,0-3.91.61,5.44,5.44,0,0,0-2.72,2.55c-.45,1.05.11,2,1.14,2.69a12.67,12.67,0,0,0,3.57,1.63,9.58,9.58,0,0,0,3.92.52,4.1,4.1,0,0,0,1.91-.67A2.88,2.88,0,0,0,262.89,134Z"/>
            </g>
            <g>
              <path class="cls-2" d="M272.26,138.43c.11,2.66-2.35,4.8-5.49,4.77s-5.77-2.2-5.87-4.86,2.35-4.79,5.49-4.76S272.16,135.78,272.26,138.43Z"/>
              <path class="cls-3" d="M272.37,138.43a5.3,5.3,0,0,1-1.51,4,6,6,0,0,1-4.24,1.8,6.66,6.66,0,0,1-4.44-1.57,5.77,5.77,0,0,1-2.12-4.29,5.08,5.08,0,0,1,2.17-4.14,6.69,6.69,0,0,1,4.3-1.18A6.23,6.23,0,0,1,272.37,138.43Zm-.21,0a4.1,4.1,0,0,0-2-3.34,6.5,6.5,0,0,0-3.71-1,5.48,5.48,0,0,0-3.44,1.21,3.55,3.55,0,0,0-1.33,3,3.82,3.82,0,0,0,1.73,2.73,6.48,6.48,0,0,0,3.21,1.11,6.61,6.61,0,0,0,3.5-.6A3.51,3.51,0,0,0,272.16,138.44Z"/>
            </g>
            <g>
              <path class="cls-2" d="M278.09,146.35c-.54,2.34-3.32,3.67-6.21,3s-4.78-3.19-4.24-5.53,3.33-3.66,6.21-2.95S278.64,144,278.09,146.35Z"/>
              <path class="cls-3" d="M278.19,146.38a5,5,0,0,1-2.36,3.22,5.88,5.88,0,0,1-4.23.71,6.41,6.41,0,0,1-3.76-2.3,5.14,5.14,0,0,1-1-4.42,4.7,4.7,0,0,1,3-3.16,6.7,6.7,0,0,1,4.15-.1C276.65,141.1,278.68,143.75,278.19,146.38Zm-.2,0a3.53,3.53,0,0,0-1.05-3.39,6.25,6.25,0,0,0-3.19-1.6,5.51,5.51,0,0,0-3.37.34,3.24,3.24,0,0,0-1.92,2.29,3.15,3.15,0,0,0,1,2.7,6.4,6.4,0,0,0,2.69,1.61,7,7,0,0,0,3.29.28A3.2,3.2,0,0,0,278,146.33Z"/>
            </g>
          </g>
        </g>
        <path class="cls-3" d="M157.1,107.66c0-.07.05,0,.12,0h.51c.22,0,.45,0,.67.06.45,0,.89.13,1.34.22a14.58,14.58,0,0,1,7.06,4c.65.61,1.24,1.44,1.8,2a3.78,3.78,0,0,0,2,1.12,3.08,3.08,0,0,0,3.53-2.31,3.42,3.42,0,0,0-.36-2.33,6,6,0,0,0-.68-1.06,5.32,5.32,0,0,0-.9-.87,11,11,0,0,0-4.75-2C164,105.78,160.37,106.6,157.1,107.66Zm-.1,0c.8-.29,1.7-.72,2.56-.94l1.29-.37c.43-.11.87-.18,1.31-.27a17,17,0,0,1,5.38-.19,11.45,11.45,0,0,1,5.06,2,6.23,6.23,0,0,1,1.83,2.12,4.05,4.05,0,0,1,.5,2.82,3.84,3.84,0,0,1-1.59,2.44,4.1,4.1,0,0,1-2.87.69,4.7,4.7,0,0,1-2.6-1.36c-.72-.72-1.14-1.38-1.78-2A15.85,15.85,0,0,0,157,107.68Z"/>
        <path class="cls-3" d="M173.63,97c.17.59.28,1.35.49,2a16.47,16.47,0,0,0,.71,2,13.32,13.32,0,0,0,2.19,3.5,5.79,5.79,0,0,0,3.21,2.14A2.32,2.32,0,0,0,183,105a.52.52,0,0,1,.48-.38h0a7.49,7.49,0,0,0,2.07-.35,5.28,5.28,0,0,0,1.82-1,4,4,0,0,0,1.2-1.65,6,6,0,0,0,.45-2.08l.32.43a15.41,15.41,0,0,1-3-1.37,14.36,14.36,0,0,1-2.61-2,11,11,0,0,1-2-2.58,11.6,11.6,0,0,1-1.2-3l.47.14a7.45,7.45,0,0,0-1.4,2,8,8,0,0,0-.77,2.29,8.25,8.25,0,0,0-.09,2.43,10.94,10.94,0,0,0,.52,2.4v0a.14.14,0,0,1-.09.17h0a6.86,6.86,0,0,1-3.22-1,6.75,6.75,0,0,1-1.32-1.06,6.65,6.65,0,0,1-.54-.65A4.23,4.23,0,0,1,173.63,97Zm0-.1.54.7a5.41,5.41,0,0,0,.55.62,6.11,6.11,0,0,0,1.31,1,6.77,6.77,0,0,0,3.12.92l-.14.19a11.43,11.43,0,0,1-.62-2.45,9.07,9.07,0,0,1,0-2.55,8.5,8.5,0,0,1,.76-2.45,7.88,7.88,0,0,1,1.47-2.13.27.27,0,0,1,.38,0,.37.37,0,0,1,.07.12v0a10.61,10.61,0,0,0,3.15,5.25,14,14,0,0,0,5.35,3h0a.42.42,0,0,1,.29.42,7.33,7.33,0,0,1-.45,2.39,5,5,0,0,1-1.41,2,6.29,6.29,0,0,1-2.14,1.23,7.78,7.78,0,0,1-2.42.41l.51-.38a3.18,3.18,0,0,1-1.53,1.93,3.39,3.39,0,0,1-2.39.32,6.65,6.65,0,0,1-3.64-2.58,13.66,13.66,0,0,1-2.06-3.81,15.18,15.18,0,0,1-.55-2.08c-.07-.35-.12-.7-.17-1.06,0-.17,0-.35,0-.53l0-.27v-.13A.24.24,0,0,1,173.6,96.9Z"/>
        <g class="cls-6">
          <path class="cls-3" d="M299.69,179a47,47,0,0,1-3.77,17.26,52.64,52.64,0,0,1-9.53,15,57,57,0,0,1-13.93,11l-1.95,1.08-2,1c-1.32.68-2.71,1.21-4.06,1.8s-2.79,1-4.17,1.51-2.83.85-4.24,1.26a82.39,82.39,0,0,0,16-7.28,58.21,58.21,0,0,0,13.58-11,53.9,53.9,0,0,0,9.57-14.6,54.66,54.66,0,0,0,2.94-8.28A46.14,46.14,0,0,0,299.69,179Z"/>
        </g>
      </g>
      <g>
        <g>
          <g>
            <path class="cls-12" d="M33.55,24.66s55-38.84,86.48,45.83C120,70.49,71,109.21,33.55,24.66Z"/>
            <path class="cls-13" d="M33.55,24.66a53.77,53.77,0,0,1,12.91-6.45,52.76,52.76,0,0,1,14.2-2.91,44.85,44.85,0,0,1,14.48,1.52,46.48,46.48,0,0,1,13.27,6.1l1.54,1c.5.34,1,.74,1.45,1.1.95.77,2,1.47,2.87,2.29L97,29.8c.91.82,1.68,1.77,2.52,2.64,1.72,1.75,3.15,3.71,4.69,5.6.77.94,1.4,2,2.11,3s1.41,2,2.06,3a144,144,0,0,1,12.72,26.09l.29.77-.64.46a48.39,48.39,0,0,1-13,6.59,46.37,46.37,0,0,1-14.35,2.38A43.41,43.41,0,0,1,79,77.87a49.72,49.72,0,0,1-12.81-6.76A82.74,82.74,0,0,1,46.79,50a140.55,140.55,0,0,1-7.2-12.39c-1.05-2.15-2.18-4.22-3.16-6.43Zm0,0,3.18,6.41c1,2.11,2.25,4.18,3.37,6.27A135.46,135.46,0,0,0,47.67,49.4,81.63,81.63,0,0,0,67.15,69.75,51.94,51.94,0,0,0,79.61,76.1a41.3,41.3,0,0,0,13.71,2.23A44.17,44.17,0,0,0,107,76a46.44,46.44,0,0,0,12.34-6.32L119,70.87a142.46,142.46,0,0,0-12.35-25.79c-.63-1-1.33-2-2-3s-1.3-2-2-2.92c-1.49-1.85-2.88-3.79-4.54-5.49a58.52,58.52,0,0,0-10.6-9.41,45.12,45.12,0,0,0-12.72-6.16,43.82,43.82,0,0,0-14.05-1.77A56,56,0,0,0,33.55,24.66Z"/>
          </g>
          <path class="cls-13" d="M33.55,24.66a80.89,80.89,0,0,1,12.09,2.61c4,1.12,7.88,2.5,11.74,4a189.29,189.29,0,0,1,22.4,10.6l5.37,3.08c1.79,1,3.52,2.16,5.27,3.26,3.52,2.16,6.9,4.54,10.28,6.9s6.61,4.94,9.89,7.43c3.17,2.64,6.34,5.27,9.44,8-3.41-2.32-6.7-4.79-10.07-7.13l-5.1-3.45c-1.71-1.15-3.36-2.36-5.11-3.43C96.27,54.3,92.89,52,89.34,49.93c-1.76-1-3.48-2.16-5.26-3.18l-5.35-3c-7.17-4-14.48-7.66-22-10.93-3.77-1.6-7.55-3.18-11.42-4.54A104.53,104.53,0,0,0,33.55,24.66Z"/>
          <path class="cls-13" d="M66.43,16a55.76,55.76,0,0,1,6.66,6.56A91.7,91.7,0,0,1,78.83,30c.87,1.3,1.76,2.59,2.55,3.94S83,36.6,83.76,38c1.52,2.74,2.89,5.55,4.18,8.41l.35.76-.63.5a51.06,51.06,0,0,1-7.45,4.85,64.09,64.09,0,0,1-8,3.66,62.32,62.32,0,0,1-8.39,2.55,63.52,63.52,0,0,1-8.63,1.38c2.82-.73,5.62-1.43,8.35-2.38a84.83,84.83,0,0,0,8-3.08,79.51,79.51,0,0,0,7.64-3.9,55.1,55.1,0,0,0,7-4.73L86,47.25c-.67-1.38-1.27-2.8-1.94-4.18S82.68,40.3,81.93,39c-1.38-2.75-3-5.39-4.55-8s-3.33-5.19-5.15-7.69A83.18,83.18,0,0,0,66.43,16Z"/>
          <path class="cls-13" d="M91.13,26.27a69.82,69.82,0,0,1,5.33,7.32,81.05,81.05,0,0,1,4.45,7.94,66.55,66.55,0,0,1,3.38,8.5A43.4,43.4,0,0,1,106,59.12l0,.26-.1.21a10.17,10.17,0,0,1-1.28,2c-.46.6-1,1.14-1.47,1.69a27.25,27.25,0,0,1-3.33,2.85,41.5,41.5,0,0,1-7.44,4.34c-1.28.64-2.62,1.14-3.94,1.69s-2.68,1-4,1.39-2.72.8-4.1,1.14-2.76.63-4.14.92c1.32-.5,2.64-1,4-1.47l3.91-1.57L87.9,70.9c1.23-.66,2.53-1.19,3.73-1.89a47.42,47.42,0,0,0,7-4.47,32.82,32.82,0,0,0,3-2.71c.45-.5.9-1,1.29-1.52a9,9,0,0,0,1-1.53l-.08.46a43.41,43.41,0,0,0-1.53-8.63,77,77,0,0,0-3-8.37c-1.17-2.74-2.44-5.45-3.82-8.1S92.68,28.85,91.13,26.27Z"/>
        </g>
        <g>
          <g>
            <path class="cls-12" d="M143.44,90.16c19.35,28.36,68.66,25.38,117.27-43.61C260.71,46.55,197.47,29.11,143.44,90.16Z"/>
            <path class="cls-13" d="M143.44,90.16a43,43,0,0,0,6.08,6.76,37.89,37.89,0,0,0,7.44,5.13,39.5,39.5,0,0,0,17.36,4.35,50.14,50.14,0,0,0,9-.53c1.47-.28,3-.51,4.42-.86s2.93-.69,4.35-1.19a80.92,80.92,0,0,0,16.46-7.36,118.47,118.47,0,0,0,14.87-10.28A162.84,162.84,0,0,0,236.79,74a236.4,236.4,0,0,0,23-28l.59,1.64a86.81,86.81,0,0,0-16-2.18,115.87,115.87,0,0,0-16.24.36,117.59,117.59,0,0,0-16,2.62,115.87,115.87,0,0,0-15.57,4.72,117.12,117.12,0,0,0-14.82,6.77l-1.8,1c-.59.33-1.17.69-1.76,1l-3.51,2.08-3.41,2.24-1.71,1.12-1.66,1.19A157.33,157.33,0,0,0,143.44,90.16Zm0,0a149.57,149.57,0,0,1,23.87-22.49L169,66.43l1.7-1.17,3.4-2.32,3.51-2.16c.59-.36,1.17-.73,1.76-1.07l1.8-1A119.4,119.4,0,0,1,196,51.6a116,116,0,0,1,32-7.78,118.44,118.44,0,0,1,16.53-.46A88.85,88.85,0,0,1,261,45.53l1.53.36-.94,1.28c-1.8,2.46-3.53,5-5.4,7.39s-3.72,4.85-5.7,7.18c-3.84,4.75-8,9.24-12.26,13.63C229.59,84,220.14,92,209.39,98a81.57,81.57,0,0,1-16.9,7.21c-1.46.49-3,.76-4.47,1.14s-3,.55-4.54.81a52.48,52.48,0,0,1-9.21.38,40.23,40.23,0,0,1-17.59-4.92,38.55,38.55,0,0,1-7.39-5.41A42.59,42.59,0,0,1,143.44,90.16Z"/>
          </g>
          <path class="cls-13" d="M260.71,46.55c-9.95,3.16-19.82,6.54-29.68,9.94S211.36,63.4,201.6,67.08s-19.49,7.38-29.17,11.26-19.32,7.86-29,11.82c2.33-1.18,4.66-2.36,7-3.5s4.68-2.33,7-3.43l7.12-3.29c2.36-1.11,4.78-2.11,7.16-3.17,4.78-2.13,9.63-4.07,14.46-6.06,2.41-1,4.86-1.91,7.29-2.87s4.87-1.89,7.33-2.79q14.68-5.47,29.65-10.17C240.47,51.75,250.53,48.9,260.71,46.55Z"/>
          <path class="cls-13" d="M204.14,99.55a31.34,31.34,0,0,1-10.66-1.65l-2.57-.9-2.5-1.07c-.84-.34-1.63-.78-2.45-1.17s-1.62-.8-2.4-1.27a81.23,81.23,0,0,1-9.11-5.87,93,93,0,0,1-8.39-6.89l-.52-.48.26-.63a37.59,37.59,0,0,1,3.47-6.35,62.7,62.7,0,0,1,4.3-5.68,67.73,67.73,0,0,1,4.92-5.1A67,67,0,0,1,183.9,58l-2.43,2.55c-.78.88-1.59,1.71-2.35,2.6-1.53,1.76-3,3.56-4.39,5.42s-2.69,3.77-3.89,5.74a40.67,40.67,0,0,0-3.08,6.06l-.27-1.11c2.6,2.35,5.42,4.55,8.23,6.69s5.75,4.15,8.78,6a69.25,69.25,0,0,0,9.4,4.89A39,39,0,0,0,204.14,99.55Z"/>
          <path class="cls-13" d="M235.3,76.45c-4,.3-8,.41-12.07.43s-8.06-.19-12.09-.49-8-.8-12-1.42a106.81,106.81,0,0,1-11.91-2.57l-1.77-.51,1.33-1.28c2.68-2.6,5.4-5.08,8.24-7.46s5.72-4.69,8.72-6.86,6.08-4.23,9.27-6.11a73.83,73.83,0,0,1,10-4.83,95.45,95.45,0,0,0-9.42,5.7c-3,2.08-5.94,4.29-8.82,6.55s-5.66,4.65-8.4,7.08-5.46,4.89-8,7.45l-.44-1.79a116.47,116.47,0,0,0,11.62,2.57c3.93.72,7.89,1.26,11.86,1.76,2,.21,4,.46,6,.62s4,.36,6,.49,4,.26,6,.4S233.29,76.33,235.3,76.45Z"/>
        </g>
      </g>
    </g>
  </g>
</svg>
