<svg id="Layer_1" data-name="Layer 1" xmlns="http://www.w3.org/2000/svg" width="370.09" height="266.55" viewBox="0 0 370.09 266.55">
  <defs>
    <style>
      .cls-1 {
        fill: none;
        stroke: #000;
        stroke-width: 15px;
        opacity: 0.5;
      }

      .cls-1, .cls-2 {
        stroke-linejoin: round;
      }

      .cls-2 {
        fill: #ffef5f;
        stroke: #fffa4d;
        stroke-width: 24px;
      }

      .cls-3, .cls-7 {
        fill: #ace543;
      }

      .cls-3, .cls-9 {
        stroke: #617731;
      }

      .cls-3, .cls-8, .cls-9 {
        stroke-miterlimit: 10;
      }

      .cls-4, .cls-5 {
        fill: #fff;
      }

      .cls-4 {
        opacity: 0.3;
      }

      .cls-6 {
        opacity: 0.05;
      }

      .cls-10, .cls-8 {
        fill: #207a08;
      }

      .cls-8 {
        stroke: #464f2c;
      }

      .cls-9 {
        fill: #6bbf35;
      }
    </style>
  </defs>
  <g>
    <path class="cls-1" d="M355,130.86a252.21,252.21,0,0,0-29.18-.4c1.75-.08,3.49-.14,5.24-.18q-2.25-1.84-4.65-3.5c-4.84-3.36-10.14-6.17-15.2-9.21-8-4.8-16.22-9.26-24.25-14,.35-.16.7-.32,1-.5a11.77,11.77,0,0,0,3.25-2.43,6,6,0,0,0,.73-.93c2.38-2.51,8.07-1.19,8.07-1.19a23.23,23.23,0,0,0,16.58-1.75l-.49-1.47a.16.16,0,0,1,.07-.18l5.41-2.83-.62-.81a.24.24,0,0,1,0-.33l4.22-3.41s-1.56-1.31-1.76-1.39,6.21-7,6.21-7l-1.84-1.22a.89.89,0,0,1-.38-.65l.18-.13a.33.33,0,0,0,.06-.45s-.07,0-.1-.05l3-5.18-1.9-.1a.8.8,0,0,1-.75-.85l.54-7.71-2.19-.29a.72.72,0,0,1-.58-.47l-2.64-7.45c0-.15.05-.29.07-.44a.32.32,0,0,0-.27-.36.33.33,0,0,0-.37.27c0,.09,0,.17,0,.25l-1.11.4a.78.78,0,0,1-.92-.32l-3.88-6.17c0-.11.06-.23.08-.34a.33.33,0,0,0-.27-.37.34.34,0,0,0-.22.05l-.19-.3-1.57.69a.88.88,0,0,1-1.06-.31L309,41.46l-1,.66A.73.73,0,0,1,307,42l-2.31-2.67a11.32,11.32,0,0,0-.81-1.53.31.31,0,0,0-.44-.1.28.28,0,0,0-.13.29l-1.15.61a.45.45,0,0,1-.61-.16c-1-1.71-6.43-4.79-7.33-5.29-.07-.07-.12-.1-.14-.09s0,.05,0,.11l.52,9.09-1.1.47a.32.32,0,0,0-.3,0,.34.34,0,0,0-.13.43h0c.14.24.27.43.4.65a23.81,23.81,0,0,1-1,7.37.3.3,0,0,0-.34.45h0c0,.06.07.1.1.16A9.26,9.26,0,0,1,291,54a2.62,2.62,0,0,1-1.63,1.14.32.32,0,0,0-.22-.13s-.07,0-.1,0h0a.31.31,0,0,0-.57-.09c-1.11-.62-1.08-2.55-1.19-3.66a35.38,35.38,0,0,1-.07-4.83c-.45.25-.9.48-1.34.74a.2.2,0,0,1-.3-.13c-.23-1.45-.51-2.88-.88-4.3-.72-2.68-1.65-5.3-2.46-8a8.69,8.69,0,0,1-1.31.77h0a.31.31,0,0,0-.6.12.89.89,0,0,1-.31-.08c-.63-.26-.78-1-1-1.53-.82-1.9-1.71-3.68-2.68-5.51l-1.2.89a.56.56,0,0,1-.77-.09l-5.14-6.13-1.24.75,0,0a.31.31,0,0,0-.51.35l-.32.17c-3,1.29-7-1.4-8.73-2.67-.21-.28-.38-.55-.61-.84a.32.32,0,0,0-.45-.06.33.33,0,0,0-.06.45c.14.18.24.34.37.51a2.75,2.75,0,0,1-.35,1.27c-.08.2-14.77-1.68-14.77-1.68,3.9,4,4,9.71,3.2,14.08a.3.3,0,0,0-.28.08.33.33,0,0,0,0,.46l.14.13A30.19,30.19,0,0,1,243.8,42c8.83,13.32,8,19.09,7,21.2a1.89,1.89,0,0,1-1.78,1c0-.08,0-.16-.08-.24a.31.31,0,0,0-.42-.16.27.27,0,0,0-.17.25c-4.71-1.78-6.23-15.41-6.23-15.41l-1.32.24a1,1,0,0,1-1-.44c-3.44-5.47-8.34-5.78-9.84-5.73-.06-.08-.11-.17-.17-.24a.32.32,0,0,0-.51.39c.08.1.15.22.23.33a3,3,0,0,1-1,2.63,2.65,2.65,0,0,1-.84.31,18.31,18.31,0,0,1-6.09.18l-.3.77a.63.63,0,0,1-.63.4l-3.89-.27-.48-.34a.33.33,0,0,0-.45.1.32.32,0,0,0,.1.44l.19.14L216,48.86a1.23,1.23,0,0,1-1.15,1.06l-9.49.42c-.16-.09-.3-.19-.47-.27a.32.32,0,0,0-.27.58l.33.19c.44,3.31-7.12,3.89-7.12,3.89a4,4,0,0,1-3,3,31.49,31.49,0,0,1-7.39.23c-.43-.08-.67-.1-.69,0l0,0h-.08c1.61,2.14,3.59,4.06,4.81,6.47a4,4,0,0,1-.35,4.17s-.08.08-.09.13a.36.36,0,0,0,0,.23.31.31,0,0,0,.21.16l.16,0c.91,1.46,3.39,5.84,1.29,7.38l-.34,0a.32.32,0,0,0-.37.26.31.31,0,0,0,0,.21.29.29,0,0,0,.23.16h0l4.18,5.67-.47.1a29.5,29.5,0,0,0-15.09,9.69v0a3.15,3.15,0,0,0-.22.29,29.58,29.58,0,0,0-44.8.88v0c-.42.49-.81,1-1.19,1.53l-.48.69c-.34.5-.67,1-1,1.54l-.37.62c-.35.63-.68,1.28-1,1.93l-.34.73c-.3.7-.59,1.4-.84,2.12-.07.2-.13.4-.2.6-.21.65-.4,1.29-.56,1.95l-.15.55c-.18.77-.32,1.56-.44,2.36l-.09.63c-.1.82-.18,1.64-.22,2.48v.32q0,1.19,0,2.37c0,.17,0,.33,0,.5.06.85.15,1.7.28,2.56,0,.17.07.35.1.53.15.89.33,1.77.57,2.66.16.6.37,1.16.56,1.74A29.56,29.56,0,0,0,89,126v0c-.42.5-.81,1-1.19,1.54-.16.22-.32.45-.47.68-.35.51-.68,1-1,1.55-.13.2-.26.41-.38.62-.35.63-.68,1.28-1,1.93-.12.24-.23.48-.34.73-.3.69-.59,1.4-.84,2.12l-.2.6c-.21.64-.4,1.29-.56,1.95,0,.18-.1.36-.14.54-.19.78-.33,1.57-.45,2.36l-.09.64c-.1.82-.18,1.64-.22,2.47V144c0,.2,0,.39,0,.59a29.44,29.44,0,0,0-25.5,10.56v0c-.42.5-.81,1-1.19,1.54l-.48.68c-.34.51-.67,1-1,1.54l-.37.63c-.35.63-.68,1.27-1,1.93-.12.24-.23.48-.34.73-.3.69-.59,1.4-.84,2.12-.07.2-.13.4-.2.6-.21.64-.4,1.29-.56,2l-.15.54c-.18.78-.32,1.57-.44,2.36l-.09.64c-.1.82-.18,1.64-.22,2.47v.33q0,1.17,0,2.37c0,.16,0,.33,0,.5.06.85.15,1.7.28,2.55,0,.18.06.36.1.54.15.88.33,1.77.57,2.66.11.41.26.8.39,1.2a29.71,29.71,0,0,0-8.57,1,29.37,29.37,0,0,0-15.08,9.69v0c-.41.5-.8,1-1.18,1.54-.17.22-.32.45-.48.68-.34.51-.67,1-1,1.54l-.37.63c-.36.63-.68,1.28-1,1.93-.12.24-.23.48-.34.73-.31.69-.59,1.4-.84,2.12-.07.2-.13.4-.2.6q-.31,1-.57,1.95c0,.18-.1.36-.14.54-.18.78-.32,1.57-.44,2.36,0,.21-.06.43-.09.64-.1.82-.18,1.64-.22,2.47v.33c0,.78,0,1.57,0,2.37,0,.16,0,.33,0,.5.05.85.15,1.7.28,2.55l.09.54c.16.88.34,1.77.58,2.66a27.64,27.64,0,0,0,.93,2.88A29.65,29.65,0,0,0,58,241.28c.88-.24,1.73-.52,2.57-.83l.62-.24c.82-.32,1.63-.67,2.41-1.06l.07,0c.75-.38,1.48-.8,2.19-1.24l.58-.36.17-.11a29.59,29.59,0,0,0,33.7,14.43c.88-.23,1.73-.52,2.57-.83l.62-.24c.82-.32,1.63-.67,2.41-1.06l.07,0c.75-.39,1.48-.81,2.2-1.25q.28-.16.57-.36c.71-.46,1.4-.94,2.06-1.45l.17-.14c.61-.48,1.19-1,1.76-1.52l.53-.5c.58-.57,1.14-1.14,1.67-1.75a3.76,3.76,0,0,0,.25-.31c.46-.53.89-1.09,1.31-1.66l.47-.66c.43-.62.85-1.26,1.23-1.91l.29-.54c.32-.57.62-1.14.89-1.73.13-.27.25-.53.37-.8.3-.68.58-1.36.82-2.06.08-.22.15-.45.22-.68.14-.41.27-.82.39-1.24l0,0a28.6,28.6,0,0,0,.68-3,29.16,29.16,0,0,0,8.7,0c0,.1,0,.2,0,.3s0,.33,0,.5c.06.85.15,1.7.29,2.56,0,.17.06.35.09.53.15.89.33,1.77.57,2.66s.58,2,.94,2.89a29.64,29.64,0,0,0,35.39,18c.88-.23,1.73-.52,2.57-.83l.62-.24c.82-.32,1.63-.67,2.41-1.06l.07,0c.76-.38,1.49-.81,2.2-1.25q.28-.16.57-.36c.71-.46,1.41-.94,2.07-1.45l.16-.14c.61-.48,1.2-1,1.76-1.52l.54-.5c.57-.56,1.13-1.14,1.66-1.74.09-.11.17-.22.26-.32.45-.54.89-1.09,1.3-1.66l.48-.66c.43-.62.84-1.26,1.22-1.91l.3-.54c.31-.57.61-1.14.89-1.73.12-.27.25-.53.36-.8.3-.68.58-1.36.83-2.06l.21-.67c.14-.42.28-.83.39-1.25l0,.05a29.48,29.48,0,0,0,1-5.55,29.63,29.63,0,0,0,34.85,16.83c.88-.24,1.74-.53,2.57-.83l.63-.24c.82-.33,1.63-.67,2.41-1.06l.07,0c.75-.38,1.48-.8,2.19-1.24l.58-.36c.71-.46,1.4-.94,2.06-1.46l.17-.13c.61-.49,1.19-1,1.76-1.52l.53-.51c.58-.56,1.14-1.14,1.67-1.74.08-.1.16-.21.25-.31.46-.54.89-1.09,1.31-1.66l.47-.66c.43-.63.84-1.26,1.23-1.92.1-.17.19-.35.29-.53.32-.57.61-1.15.89-1.74.13-.26.25-.53.37-.79.27-.63.53-1.27.76-1.91a29.86,29.86,0,0,0,6.86,4.36,29.55,29.55,0,0,0,20,1.64c.88-.24,1.73-.52,2.57-.83l.62-.24c.83-.32,1.63-.67,2.41-1.06l.07,0c.76-.38,1.49-.8,2.2-1.24l.57-.36c.71-.46,1.41-.94,2.07-1.46l.16-.13c.61-.48,1.2-1,1.76-1.52l.54-.51c.57-.56,1.13-1.13,1.66-1.74l.26-.31c.45-.54.89-1.09,1.3-1.66l.48-.66c.43-.63.84-1.26,1.22-1.91l.3-.54c.31-.57.61-1.15.89-1.73.12-.27.25-.53.37-.8.29-.68.57-1.36.81-2.06.08-.22.15-.45.23-.68.13-.41.27-.82.38-1.24l0,0a29.49,29.49,0,0,0-3.31-23.54c.6-.32,1.19-.66,1.77-1l.57-.36c.71-.46,1.4-.94,2.07-1.46l.17-.14c.6-.48,1.18-1,1.75-1.51l.54-.51c.57-.56,1.13-1.14,1.66-1.74.09-.1.17-.21.25-.31.46-.54.89-1.09,1.31-1.66.16-.22.32-.44.47-.67.43-.62.85-1.25,1.23-1.91l.3-.53c.31-.57.61-1.15.89-1.74.12-.26.25-.53.36-.79.3-.68.58-1.36.82-2.06.08-.23.15-.45.22-.68.14-.41.27-.82.39-1.24l0,0a29.43,29.43,0,0,0-6.38-27.62,232.67,232.67,0,0,1,56.64-2.75,5.07,5.07,0,0,0,5.55-4.39A5,5,0,0,0,355,130.86ZM319.49,129q.88.83,1.74,1.68l2.14-.12a239.51,239.51,0,0,0-25.24,2.75,23.93,23.93,0,0,0-8.77-12.71s-4.61-3.6-4.14-7c.07-.54.25-1.06.31-1.61a12.3,12.3,0,0,0-.34-4.23,18.86,18.86,0,0,0-.61-1.79s0,0,0,0l1.18.71c6.93,4.23,13.9,8.33,20.7,12.72A92.17,92.17,0,0,1,319.49,129ZM109.06,174.7c0-.09,0-.17,0-.26l.33,0Z"/>
    <path class="cls-2" d="M349.09,125a252.21,252.21,0,0,0-29.18-.4c1.74-.08,3.49-.14,5.24-.18-1.5-1.23-3.06-2.4-4.65-3.5-4.85-3.36-10.14-6.18-15.2-9.21-8-4.8-16.22-9.26-24.25-14,.35-.15.7-.31,1-.49a11.9,11.9,0,0,0,3.25-2.44,5.9,5.9,0,0,0,.73-.92c2.37-2.52,8.07-1.19,8.07-1.19a23.23,23.23,0,0,0,16.58-1.75l-.49-1.48a.15.15,0,0,1,.07-.17l5.41-2.83-.62-.81a.24.24,0,0,1,0-.33l4.22-3.42s-1.56-1.3-1.76-1.38,6.21-7,6.21-7L322,72.22a.87.87,0,0,1-.38-.64l.17-.13a.31.31,0,0,0,.06-.45s-.06,0-.09,0l3-5.18-1.9-.11a.79.79,0,0,1-.75-.85l.54-7.71-2.19-.28a.73.73,0,0,1-.59-.48l-2.64-7.44c0-.15.06-.29.08-.44a.32.32,0,0,0-.28-.36.32.32,0,0,0-.36.27c0,.09,0,.16,0,.25l-1.11.4a.78.78,0,0,1-.92-.32l-3.88-6.18c0-.11.06-.22.07-.33a.32.32,0,0,0-.26-.37.33.33,0,0,0-.22,0l-.19-.3-1.57.68a.86.86,0,0,1-1.06-.3l-4.44-6.39-1,.66a.72.72,0,0,1-.94-.13l-2.31-2.67a12.57,12.57,0,0,0-.81-1.53.33.33,0,0,0-.45-.1.29.29,0,0,0-.12.29l-1.15.61a.46.46,0,0,1-.61-.16c-1-1.71-6.43-4.79-7.33-5.29-.07-.07-.12-.11-.14-.09s0,.05,0,.11l.51,9.09-1.09.47a.29.29,0,0,0-.3,0,.32.32,0,0,0-.13.43h0c.13.23.26.43.4.65a23.52,23.52,0,0,1-1,7.37.28.28,0,0,0-.2,0,.33.33,0,0,0-.14.44h0a1.53,1.53,0,0,1,.11.16,9,9,0,0,1-1.27,2.22,2.6,2.6,0,0,1-1.63,1.15.32.32,0,0,0-.22-.13s-.07,0-.1,0h0a.32.32,0,0,0-.4-.23.3.3,0,0,0-.17.14c-1.11-.62-1.08-2.55-1.19-3.66a35.4,35.4,0,0,1-.07-4.83c-.45.24-.9.48-1.35.74a.19.19,0,0,1-.29-.14,42.42,42.42,0,0,0-.89-4.29c-.71-2.68-1.64-5.3-2.45-8a8.69,8.69,0,0,1-1.31.77v0a.32.32,0,0,0-.41-.19.28.28,0,0,0-.19.31.82.82,0,0,1-.31-.07c-.63-.26-.78-1-1-1.54-.83-1.89-1.71-3.67-2.68-5.5l-1.2.89a.57.57,0,0,1-.77-.1l-5.14-6.12-1.24.75,0,0a.31.31,0,0,0-.51.36l-.32.17c-3,1.28-7-1.4-8.73-2.67-.21-.28-.39-.55-.61-.84a.32.32,0,0,0-.45-.06.33.33,0,0,0-.06.45c.14.18.24.34.37.51a2.65,2.65,0,0,1-.35,1.26c-.08.2-14.77-1.67-14.77-1.67,3.89,4,4,9.7,3.2,14.08a.29.29,0,0,0-.28.08.32.32,0,0,0,0,.45l.14.14a29.75,29.75,0,0,1-1.75,5.81c8.84,13.32,8,19.09,7,21.2a1.93,1.93,0,0,1-1.78,1l-.08-.24a.31.31,0,0,0-.42-.17.3.3,0,0,0-.17.26c-4.71-1.78-6.23-15.41-6.23-15.41l-1.32.24a1,1,0,0,1-1-.45A11.28,11.28,0,0,0,224,36.87l-.17-.24a.33.33,0,0,0-.45-.06.33.33,0,0,0-.06.45c.09.11.16.23.24.34a3,3,0,0,1-.95,2.63,2.74,2.74,0,0,1-.84.31,18.58,18.58,0,0,1-6.09.18l-.3.77a.67.67,0,0,1-.63.4l-3.9-.27-.47-.34a.33.33,0,0,0-.45.1.32.32,0,0,0,.1.44l.19.14L210.06,43A1.23,1.23,0,0,1,208.9,44l-9.48.42c-.16-.09-.3-.19-.47-.27a.32.32,0,0,0-.43.15.33.33,0,0,0,.16.43l.33.19c.44,3.3-7.12,3.89-7.12,3.89a4,4,0,0,1-3,3,31.47,31.47,0,0,1-7.39.23c-.43-.08-.66-.1-.68,0l0,0h-.08c1.61,2.15,3.59,4.07,4.81,6.48a4,4,0,0,1-.35,4.17.24.24,0,0,0-.09.13.36.36,0,0,0,0,.23.29.29,0,0,0,.21.16l.15,0c.92,1.47,3.39,5.85,1.3,7.39l-.34,0a.33.33,0,0,0-.38.26.28.28,0,0,0,0,.2.3.3,0,0,0,.22.17h.05l4.18,5.67-.48.1A29.51,29.51,0,0,0,175,86.63v0l-.23.28a29.58,29.58,0,0,0-44.79.89v0c-.41.5-.8,1-1.18,1.54-.17.22-.32.45-.48.68-.34.51-.67,1-1,1.55l-.37.62c-.36.63-.68,1.28-1,1.93-.12.24-.23.49-.34.73-.3.69-.59,1.4-.84,2.12-.07.2-.13.4-.2.6q-.31,1-.57,2c0,.18-.09.36-.14.54-.18.78-.32,1.57-.44,2.36l-.09.64c-.1.82-.18,1.64-.22,2.47v.33c0,.79,0,1.57,0,2.37l0,.5c0,.85.15,1.7.28,2.55l.09.54c.16.89.34,1.77.58,2.66.16.59.37,1.16.56,1.74a29.56,29.56,0,0,0-41.57,4v0c-.42.5-.81,1-1.19,1.54-.17.22-.32.45-.48.68-.34.51-.67,1-1,1.54l-.37.63c-.36.63-.68,1.27-1,1.93-.12.24-.23.48-.34.73-.3.69-.59,1.4-.84,2.11-.07.2-.13.41-.2.61q-.31,1-.57,1.95c0,.18-.09.36-.14.54-.18.78-.32,1.57-.44,2.36l-.09.64c-.1.82-.18,1.64-.22,2.47v.33c0,.2,0,.39,0,.59a29.39,29.39,0,0,0-25.5,10.55v0c-.41.5-.8,1-1.18,1.53-.17.23-.32.46-.48.69-.34.5-.67,1-1,1.54-.12.21-.25.41-.37.63-.36.63-.68,1.27-1,1.93-.12.24-.23.48-.34.73-.31.69-.59,1.4-.84,2.11-.07.2-.13.41-.2.61q-.31,1-.57,2c0,.18-.1.36-.14.54-.18.78-.32,1.57-.44,2.36l-.09.64c-.1.82-.18,1.64-.22,2.47v.33c0,.78,0,1.57,0,2.36l0,.51c0,.84.15,1.7.28,2.55l.09.54c.16.88.34,1.77.58,2.65.11.42.26.8.39,1.21A29.48,29.48,0,0,0,21.63,187.8v0c-.41.5-.81,1-1.19,1.53L20,190c-.35.5-.68,1-1,1.54-.12.21-.25.41-.37.63-.36.63-.69,1.27-1,1.93l-.33.73c-.31.69-.59,1.4-.85,2.11-.07.2-.13.41-.19.61q-.32,1-.57,2c0,.18-.1.36-.14.54-.18.78-.33,1.57-.45,2.36,0,.21-.06.42-.08.64-.11.82-.19,1.64-.22,2.47,0,.11,0,.22,0,.33,0,.78,0,1.57,0,2.36,0,.17,0,.34,0,.5.06.85.16,1.71.29,2.56l.09.54c.15.88.34,1.77.57,2.65a29.64,29.64,0,0,0,36.33,20.94c.88-.24,1.73-.53,2.57-.83l.63-.24c.82-.33,1.63-.67,2.4-1.06l.08,0c.75-.38,1.48-.8,2.19-1.24l.58-.36.17-.11a29.57,29.57,0,0,0,33.69,14.43c.88-.24,1.74-.52,2.57-.83l.63-.24c.82-.32,1.63-.67,2.41-1.06l.07,0c.75-.38,1.48-.8,2.19-1.24l.58-.36c.71-.46,1.4-.94,2.06-1.46l.17-.13c.61-.48,1.19-1,1.76-1.52l.53-.5c.58-.57,1.14-1.14,1.67-1.75.08-.1.16-.21.25-.31.46-.54.89-1.09,1.31-1.66l.47-.66c.43-.63.84-1.26,1.23-1.92.1-.17.19-.35.29-.53.32-.57.61-1.15.89-1.73.13-.27.25-.53.37-.8.29-.68.57-1.36.82-2.06.08-.22.15-.45.22-.68.13-.41.27-.82.39-1.24l0,0a29.16,29.16,0,0,0,.68-3,29.49,29.49,0,0,0,8.7,0c0,.1,0,.2,0,.3s0,.33,0,.5c0,.85.15,1.7.28,2.55,0,.18.06.36.1.54.15.88.33,1.77.57,2.66a29.35,29.35,0,0,0,.93,2.88,29.65,29.65,0,0,0,35.4,18c.88-.24,1.73-.52,2.57-.83l.62-.24c.82-.32,1.63-.67,2.41-1.06l.07,0c.76-.38,1.48-.8,2.2-1.24l.57-.36c.71-.46,1.41-.94,2.07-1.46l.16-.13c.61-.48,1.19-1,1.76-1.52.18-.17.36-.33.53-.51.58-.56,1.14-1.13,1.67-1.74.09-.1.17-.21.25-.31.46-.54.89-1.09,1.31-1.66l.47-.66c.43-.63.85-1.26,1.23-1.91l.3-.54c.31-.57.61-1.15.89-1.73l.36-.8c.3-.68.58-1.36.82-2.06.08-.23.15-.45.22-.68.14-.41.27-.82.39-1.24l0,.05a28.82,28.82,0,0,0,1-5.55,29.64,29.64,0,0,0,34.86,16.83c.88-.24,1.73-.53,2.57-.84l.62-.23c.83-.33,1.64-.67,2.41-1.06l.07,0c.76-.38,1.49-.8,2.2-1.24l.57-.36c.71-.46,1.41-.94,2.07-1.46l.17-.14c.61-.48,1.19-1,1.75-1.51l.54-.51c.57-.56,1.14-1.14,1.66-1.74l.26-.31c.45-.54.89-1.1,1.3-1.67q.24-.31.48-.66c.43-.62.84-1.26,1.22-1.91.11-.18.2-.36.3-.54.31-.56.61-1.14.89-1.73.13-.26.25-.53.37-.8.27-.62.53-1.26.76-1.9a30.2,30.2,0,0,0,6.86,4.36,29.55,29.55,0,0,0,20,1.64c.88-.24,1.73-.53,2.57-.83l.62-.24c.82-.33,1.63-.67,2.41-1.06l.07,0c.76-.38,1.48-.8,2.2-1.24l.57-.36c.71-.46,1.41-.94,2.07-1.46l.16-.13c.61-.49,1.19-1,1.76-1.52l.53-.51c.58-.56,1.14-1.13,1.67-1.74l.26-.31c.45-.54.88-1.09,1.3-1.66.16-.22.32-.44.47-.67.43-.62.85-1.25,1.23-1.91l.3-.53c.31-.57.61-1.15.89-1.74.12-.26.25-.53.36-.79.3-.68.58-1.36.82-2.06.08-.23.15-.45.22-.68.14-.41.28-.82.39-1.24l0,0a29.35,29.35,0,0,0,.1-15.65,29.79,29.79,0,0,0-3.41-7.88c.6-.32,1.19-.66,1.76-1l.58-.36c.71-.47,1.4-.94,2.06-1.46l.17-.14c.61-.48,1.19-1,1.76-1.51l.53-.51c.58-.56,1.14-1.14,1.67-1.74.09-.1.17-.21.25-.31.46-.54.89-1.1,1.31-1.66.16-.22.32-.44.47-.67.43-.62.85-1.26,1.23-1.91l.29-.54c.32-.56.62-1.14.89-1.73.13-.26.25-.53.37-.8.3-.67.57-1.36.82-2,.08-.23.15-.46.22-.68.14-.42.27-.83.39-1.24l0,0a29.41,29.41,0,0,0-6.38-27.62,232.67,232.67,0,0,1,56.64-2.75,5.06,5.06,0,0,0,5.54-4.39A5,5,0,0,0,349.09,125Zm-35.5-1.83q.89.83,1.74,1.68c.71,0,1.42-.08,2.14-.12a239.51,239.51,0,0,0-25.24,2.75,23.93,23.93,0,0,0-8.77-12.71s-4.61-3.6-4.14-7c.07-.54.25-1.06.31-1.61a12,12,0,0,0-.35-4.22,16.35,16.35,0,0,0-.6-1.79s0,0,0,0l1.18.71c6.92,4.22,13.9,8.33,20.7,12.72A92.17,92.17,0,0,1,313.59,123.13ZM103.16,168.8c0-.09,0-.17,0-.26l.33,0Z"/>
    <g id="Grapes">
      <g>
        <g>
          <circle class="cls-3" cx="269.4" cy="157.21" r="29.65"/>
          <ellipse class="cls-4" cx="275.72" cy="146.74" rx="14.82" ry="18" transform="translate(27.36 336.15) rotate(-65.35)"/>
          <path class="cls-5" d="M286.42,140.18c.59-.78-.19-2.36-1.74-3.54s-3.28-1.51-3.87-.74.18,2.36,1.73,3.54S285.83,141,286.42,140.18Z"/>
          <path class="cls-5" d="M279.45,134.76c.11-.33-.34-.78-1-1s-1.3-.12-1.41.21.34.78,1,1S279.34,135.1,279.45,134.76Z"/>
          <path class="cls-6" d="M298,165.13a29.65,29.65,0,0,1-51.35-26.89A29.65,29.65,0,1,0,298,165.13Z"/>
        </g>
        <g>
          <circle class="cls-7" cx="245.69" cy="104.38" r="29.65"/>
          <ellipse class="cls-4" cx="252.01" cy="93.91" rx="14.82" ry="18" transform="translate(61.56 283.79) rotate(-65.35)"/>
          <path class="cls-5" d="M262.71,87.34c.59-.77-.19-2.36-1.74-3.54s-3.28-1.51-3.87-.73.18,2.36,1.74,3.54S262.12,88.12,262.71,87.34Z"/>
          <path class="cls-5" d="M255.74,81.93c.11-.33-.34-.78-1-1s-1.3-.13-1.41.21.34.78,1,1S255.63,82.26,255.74,81.93Z"/>
          <path class="cls-6" d="M274.26,112.29A29.65,29.65,0,0,1,222.91,85.4a29.65,29.65,0,1,0,51.35,26.89Z"/>
        </g>
        <g>
          <circle class="cls-3" cx="237.06" cy="129.36" r="29.65" transform="translate(85.02 352.55) rotate(-84.36)"/>
          <ellipse class="cls-4" cx="243.38" cy="118.89" rx="14.82" ry="18" transform="translate(33.82 290.51) rotate(-65.35)"/>
          <path class="cls-5" d="M254.08,112.33c.59-.78-.19-2.37-1.74-3.55s-3.29-1.51-3.88-.73.19,2.36,1.74,3.54S253.49,113.1,254.08,112.33Z"/>
          <path class="cls-5" d="M247.11,106.91c.11-.33-.35-.78-1-1s-1.3-.12-1.41.21.34.78,1,1S247,107.25,247.11,106.91Z"/>
          <path class="cls-6" d="M265.63,137.27a29.64,29.64,0,0,1-51.35-26.88,29.64,29.64,0,1,0,51.35,26.88Z"/>
        </g>
        <g>
          <circle class="cls-3" cx="197.76" cy="105.57" r="29.65" transform="translate(-23.94 138.79) rotate(-36.62)"/>
          <ellipse class="cls-4" cx="204.08" cy="95.1" rx="14.82" ry="18" transform="translate(32.54 240.93) rotate(-65.35)"/>
          <path class="cls-5" d="M214.79,88.53c.59-.77-.19-2.36-1.74-3.54s-3.29-1.51-3.88-.73.19,2.36,1.74,3.54S214.2,89.31,214.79,88.53Z"/>
          <path class="cls-5" d="M207.81,83.12c.11-.33-.34-.78-1-1s-1.29-.13-1.4.21.34.78,1,1S207.71,83.46,207.81,83.12Z"/>
          <path class="cls-6" d="M226.33,113.48A29.64,29.64,0,0,1,175,86.6a29.64,29.64,0,1,0,51.34,26.88Z"/>
        </g>
        <g>
          <circle class="cls-3" cx="210.94" cy="211.67" r="29.65" transform="translate(-47.73 62.04) rotate(-15.05)"/>
          <ellipse class="cls-4" cx="217.27" cy="201.2" rx="14.82" ry="18" transform="translate(-56.21 314.76) rotate(-65.35)"/>
          <path class="cls-5" d="M228,194.64c.59-.78-.19-2.36-1.74-3.54s-3.29-1.51-3.88-.74.19,2.36,1.74,3.55S227.38,195.41,228,194.64Z"/>
          <path class="cls-5" d="M221,189.23c.11-.34-.34-.79-1-1s-1.29-.12-1.4.21.34.78,1,1S220.89,189.56,221,189.23Z"/>
          <path class="cls-6" d="M239.51,219.59a29.64,29.64,0,0,1-51.34-26.89,29.64,29.64,0,1,0,51.34,26.89Z"/>
        </g>
        <g>
          <circle class="cls-3" cx="218.53" cy="166.5" r="29.65"/>
          <ellipse class="cls-4" cx="224.86" cy="156.03" rx="14.82" ry="18" transform="translate(-10.73 295.33) rotate(-65.35)"/>
          <path class="cls-6" d="M247.11,174.42a29.65,29.65,0,0,1-51.35-26.89,29.65,29.65,0,1,0,51.35,26.89Z"/>
        </g>
        <g>
          <circle class="cls-3" cx="257.98" cy="199.03" r="29.65" transform="translate(-62.85 142.17) rotate(-27.6)"/>
          <ellipse class="cls-4" cx="264.3" cy="188.55" rx="14.82" ry="18" transform="translate(-17.3 350.14) rotate(-65.35)"/>
          <path class="cls-6" d="M286.55,206.94a29.64,29.64,0,0,1-51.34-26.89,29.64,29.64,0,1,0,51.34,26.89Z"/>
        </g>
        <g>
          <circle class="cls-3" cx="152.75" cy="106.71" r="29.65" transform="translate(-32.73 88.92) rotate(-29.46)"/>
          <ellipse class="cls-4" cx="159.07" cy="96.24" rx="14.82" ry="18" transform="translate(5.26 200.68) rotate(-65.35)"/>
          <path class="cls-6" d="M181.32,114.62A29.64,29.64,0,0,1,130,87.73a29.64,29.64,0,1,0,51.34,26.89Z"/>
        </g>
        <g>
          <circle class="cls-3" cx="105.89" cy="139.05" r="29.65" transform="matrix(0.1, -1, 1, 0.1, -42.89, 230.75)"/>
          <ellipse class="cls-4" cx="112.21" cy="128.57" rx="14.82" ry="18" transform="translate(-51.45 176.94) rotate(-65.35)"/>
          <path class="cls-6" d="M134.46,147a29.64,29.64,0,0,1-51.34-26.89A29.64,29.64,0,1,0,134.46,147Z"/>
        </g>
        <g>
          <circle class="cls-3" cx="154.26" cy="221.07" r="29.65" transform="matrix(0.99, -0.11, 0.11, 0.99, -22.99, 17.97)"/>
          <ellipse class="cls-4" cx="160.58" cy="210.6" rx="14.82" ry="18" transform="translate(-97.8 268.72) rotate(-65.35)"/>
          <path class="cls-5" d="M171.28,204c.59-.77-.18-2.36-1.74-3.54s-3.28-1.51-3.87-.73.19,2.36,1.74,3.54S170.69,204.81,171.28,204Z"/>
          <path class="cls-5" d="M164.31,198.62c.11-.33-.34-.78-1-1s-1.3-.13-1.41.21.35.78,1,1S164.2,199,164.31,198.62Z"/>
          <path class="cls-6" d="M182.83,229a29.64,29.64,0,0,1-51.34-26.89A29.64,29.64,0,1,0,182.83,229Z"/>
        </g>
        <g>
          <circle class="cls-3" cx="44.42" cy="206.75" r="29.65"/>
          <ellipse class="cls-4" cx="50.74" cy="196.27" rx="14.82" ry="18" transform="translate(-148.81 160.54) rotate(-65.35)"/>
          <path class="cls-5" d="M61.44,189.71c.59-.78-.19-2.36-1.74-3.54s-3.29-1.51-3.88-.74S56,187.8,57.56,189,60.85,190.49,61.44,189.71Z"/>
          <path class="cls-5" d="M54.47,184.3c.11-.34-.35-.79-1-1s-1.3-.13-1.41.2.34.79,1,1S54.36,184.63,54.47,184.3Z"/>
          <path class="cls-6" d="M73,214.66a29.65,29.65,0,0,1-51.35-26.89A29.65,29.65,0,1,0,73,214.66Z"/>
        </g>
        <g>
          <circle class="cls-3" cx="86.73" cy="217.3" r="29.65"/>
          <ellipse class="cls-4" cx="93.05" cy="206.83" rx="14.82" ry="18" transform="translate(-133.74 205.14) rotate(-65.35)"/>
          <ellipse class="cls-5" cx="100.94" cy="198.12" rx="1.76" ry="3.53" transform="translate(-117.85 158.46) rotate(-52.73)"/>
          <path class="cls-5" d="M96.78,194.85c.11-.33-.35-.78-1-1s-1.3-.13-1.41.21.34.78,1,1S96.67,195.18,96.78,194.85Z"/>
          <path class="cls-6" d="M115.3,225.21A29.65,29.65,0,0,1,64,198.32a29.65,29.65,0,1,0,51.35,26.89Z"/>
        </g>
        <g>
          <circle class="cls-3" cx="73.53" cy="168.22" r="29.65"/>
          <ellipse class="cls-4" cx="79.85" cy="157.74" rx="14.82" ry="18" transform="translate(-96.82 164.53) rotate(-65.35)"/>
          <path class="cls-6" d="M102.1,176.13a29.65,29.65,0,0,1-51.35-26.89,29.65,29.65,0,1,0,51.35,26.89Z"/>
        </g>
        <g>
          <circle class="cls-7" cx="120.37" cy="192.9" r="29.65"/>
          <ellipse class="cls-4" cx="126.69" cy="182.43" rx="14.82" ry="18" transform="translate(-91.95 221.5) rotate(-65.35)"/>
          <path class="cls-5" d="M137.39,175.87c.59-.78-.18-2.37-1.74-3.55s-3.28-1.51-3.87-.73.19,2.36,1.74,3.54S136.8,176.64,137.39,175.87Z"/>
          <path class="cls-5" d="M130.42,170.45c.11-.33-.34-.78-1-1s-1.3-.13-1.41.21.35.78,1,1S130.31,170.79,130.42,170.45Z"/>
          <path class="cls-6" d="M148.94,200.81A29.64,29.64,0,0,1,97.6,173.93a29.64,29.64,0,1,0,51.34,26.88Z"/>
        </g>
        <g>
          <circle class="cls-3" cx="149.48" cy="154.37" r="29.65"/>
          <ellipse class="cls-4" cx="155.8" cy="143.9" rx="14.82" ry="18" transform="translate(-39.96 225.5) rotate(-65.35)"/>
          <path class="cls-6" d="M178.05,162.28a29.64,29.64,0,0,1-51.34-26.88,29.64,29.64,0,1,0,51.34,26.88Z"/>
        </g>
        <g>
          <circle class="cls-3" cx="172.57" cy="191.29" r="29.65" transform="translate(-66.77 95.94) rotate(-26.22)"/>
          <ellipse class="cls-4" cx="178.89" cy="180.82" rx="14.82" ry="18" transform="translate(-60.06 268.01) rotate(-65.35)"/>
          <path class="cls-5" d="M182.62,168.84c.11-.33-.34-.78-1-1s-1.3-.12-1.41.21.34.78,1,1S182.51,169.18,182.62,168.84Z"/>
          <path class="cls-6" d="M201.14,199.2a29.64,29.64,0,0,1-51.35-26.88,29.65,29.65,0,1,0,51.35,26.88Z"/>
        </g>
        <g>
          <circle class="cls-3" cx="194.29" cy="141.59" r="29.65" transform="translate(-30.1 55.31) rotate(-15.05)"/>
          <ellipse class="cls-4" cx="200.61" cy="131.12" rx="14.82" ry="18" transform="translate(-2.22 258.78) rotate(-65.35)"/>
          <path class="cls-5" d="M211.32,124.56c.59-.78-.19-2.37-1.74-3.55s-3.29-1.51-3.88-.73.19,2.36,1.74,3.54S210.73,125.33,211.32,124.56Z"/>
          <path class="cls-5" d="M204.34,119.14c.11-.33-.34-.78-1-1s-1.3-.12-1.41.21.35.78,1,1S204.23,119.48,204.34,119.14Z"/>
          <path class="cls-6" d="M222.86,149.5a29.64,29.64,0,0,1-51.34-26.88,29.64,29.64,0,1,0,51.34,26.88Z"/>
        </g>
      </g>
      <g id="Leaf">
        <path class="cls-8" d="M252.63,142.67h0a5,5,0,0,1,3.21-6.4A242,242,0,0,1,349.09,125a5,5,0,0,1,4.64,5.45h0a5.06,5.06,0,0,1-5.54,4.39,231.29,231.29,0,0,0-89.12,10.81A5.07,5.07,0,0,1,252.63,142.67Z"/>
        <g id="Leaf-2" data-name="Leaf">
          <path class="cls-9" d="M278.54,99.6a2.25,2.25,0,0,0,.14.48,16.35,16.35,0,0,1,.6,1.79,12,12,0,0,1,.35,4.22c-.06.55-.24,1.07-.31,1.61-.47,3.43,4.14,7,4.14,7a23.21,23.21,0,0,1,9.05,14l-1.45.55a.15.15,0,0,0-.09.16l1.19,6-1,0a.23.23,0,0,0-.23.24v5.43s-2-.4-2.18-.5-1.54,9.22-1.54,9.22l-2.11-.66a.91.91,0,0,0-1.12.54l-2.14,5.7L280.55,154a.81.81,0,0,0-1.14-.05l-5.66,5.27-1.6-1.53a.72.72,0,0,0-.73-.15l-7.89,2.77-.55-1.56a.78.78,0,0,0-.82-.51l-8.36,1-.46-1.65a.87.87,0,0,0-.9-.63l-7.76.56-.13-1.21a.73.73,0,0,0-.7-.65l-5.4-.19-.28-1.44a.45.45,0,0,0-.51-.37c-2.14.31-8.87-2.44-8.87-2.44l7.48-5.36-.33-1.17c2.83-2.28,6.35-5.3,7.19-9.05.21-.9.28-1.93-.65-2.48-1.2-.71-2.81.65-3.79,1.3a37.56,37.56,0,0,0-3.81,3c-.09-.5-.19-1-.26-1.51a.2.2,0,0,0-.3-.15,39.7,39.7,0,0,1-3.89,2c-2.54,1.13-5.16,2.05-7.74,3.1-.1-.73,0-1.85-.78-2.24-.59-.32-1.23,0-1.83.17-2,.55-3.93,1-6,1.37l-.06-1.48a.58.58,0,0,0-.56-.55l-8-.14s-.27-2.13-.36-2.42c-1.1-4-8.54-5.34-8.54-5.34a2.69,2.69,0,0,0,1.32-1.46c.11-.19-10.58-10.44-10.58-10.44,10.31.92,16.83-11.88,16.83-11.88,15.91-1.5,19.88-5.76,20.87-7.9a1.9,1.9,0,0,0-.62-2.36c-4.16-2.93-16.13,4.72-16.13,4.72l-.63-1.18a1,1,0,0,0-1-.5c-7.65.9-10.91-4.44-10.91-4.44.81-.54,1.93-1.57,1.81-2.66a2.58,2.58,0,0,0-.28-.85,18.33,18.33,0,0,0-3.69-4.85l.41-.72a.62.62,0,0,0-.09-.74l-3-3.29L192,80.52a1.21,1.21,0,0,0,.1-1.56l-5.94-8.06c3.72-1.34-1-8.21-1-8.21a4,4,0,0,0,.38-4.22c-1.22-2.41-3.2-4.33-4.81-6.48,2.7,0,5.45.36,8.12-.21a4,4,0,0,0,3-3s8.31-.64,7-4.37l10-.44A1.23,1.23,0,0,0,210.06,43l.21-1.62,4.48.31a.64.64,0,0,0,.62-.4l.31-.77a18.58,18.58,0,0,0,6.09-.18,2.74,2.74,0,0,0,.84-.31c.92-.6,1-2.12.93-3.09,0,0,6.2-.82,10.3,5.7a1,1,0,0,0,1,.45l1.32-.24s1.56,14.11,6.46,15.51a1.9,1.9,0,0,0,2.22-1c1-2.11,1.86-7.88-7-21.2,0,0,5.87-13.12-1.33-20.56,0,0,14.69,1.87,14.77,1.67a2.65,2.65,0,0,0,.31-2s5.7,5,9.52,3.3c.28-.12,2.1-1.24,2.1-1.24l5.14,6.12a.57.57,0,0,0,.77.1l1.2-.89c1,1.83,1.85,3.61,2.68,5.5.24.58.39,1.28,1,1.54s1.6-.42,2.23-.8c.81,2.66,1.74,5.28,2.45,8a42.42,42.42,0,0,1,.89,4.29.19.19,0,0,0,.29.14c.45-.26.9-.5,1.35-.74a35.38,35.38,0,0,0,.07,4.83c.11,1.17.06,3.28,1.37,3.77,1,.37,1.76-.33,2.34-1.06,2.39-3,2.53-7.64,2.52-11.27l1.11-.48-.52-9.19s6.36,3.5,7.47,5.37a.46.46,0,0,0,.61.16l1.29-.68,3.55,4.08a.72.72,0,0,0,.94.13l1-.66L307.49,42a.86.86,0,0,0,1.06.3l1.57-.68,4.48,7.13a.78.78,0,0,0,.92.32l1.56-.56,2.79,7.88a.73.73,0,0,0,.59.48l2.19.28-.54,7.71a.79.79,0,0,0,.75.85l1.9.11L321.68,71a.9.9,0,0,0,.28,1.21l1.84,1.23s-6.41,6.91-6.21,7,1.76,1.38,1.76,1.38l-4.22,3.42a.24.24,0,0,0,0,.33l.62.81-5.41,2.83a.15.15,0,0,0-.07.17l.49,1.48a23.23,23.23,0,0,1-16.58,1.75s-5.7-1.33-8.07,1.19a5.9,5.9,0,0,1-.73.92,11.9,11.9,0,0,1-3.25,2.44,13.45,13.45,0,0,1-1.91.83c-.48.16-1.28.25-1.56.73A1.3,1.3,0,0,0,278.54,99.6Z"/>
          <path class="cls-10" d="M185.11,63a.36.36,0,0,1,0-.23.32.32,0,0,1,.39-.23c6.57,1.7,12.76.72,17.91-2.84a.31.31,0,0,1,.44.08.3.3,0,0,1-.08.44,21.84,21.84,0,0,1-18.43,2.94A.29.29,0,0,1,185.11,63Z"/>
          <path class="cls-10" d="M186.09,71a.28.28,0,0,1,0-.2.33.33,0,0,1,.38-.26,41.71,41.71,0,0,0,29.23-5.64.32.32,0,1,1,.34.54,42.39,42.39,0,0,1-29.69,5.73A.3.3,0,0,1,186.09,71Z"/>
          <path class="cls-10" d="M190.58,81.85a.3.3,0,0,1,0-.16.31.31,0,0,1,.33-.31A59.54,59.54,0,0,0,228,70.67a.32.32,0,0,1,.45.08.32.32,0,0,1-.08.44A60.11,60.11,0,0,1,190.85,82,.3.3,0,0,1,190.58,81.85Z"/>
          <path class="cls-10" d="M195.81,94.84a.28.28,0,0,1,0-.18.31.31,0,0,1,.34-.29,12.45,12.45,0,0,0,3-.25L200,94c1.27-.19,2.57-.41,3.85-.68a71.17,71.17,0,0,0,7.56-2A73.08,73.08,0,0,0,225.72,85a71.41,71.41,0,0,0,12.6-9.22.32.32,0,0,1,.45,0,.33.33,0,0,1,0,.46A72.79,72.79,0,0,1,226,85.58a73.7,73.7,0,0,1-14.4,6.36,73.15,73.15,0,0,1-7.63,2c-1.3.27-2.6.5-3.89.68l-.86.14a13.06,13.06,0,0,1-3.19.26A.34.34,0,0,1,195.81,94.84Z"/>
          <path class="cls-10" d="M225.07,97.27a.19.19,0,0,1,0-.1.32.32,0,0,1,.26-.37,50.59,50.59,0,0,0,27.32-13.58.32.32,0,0,1,.45.46A51.28,51.28,0,0,1,225.4,97.44.32.32,0,0,1,225.07,97.27Z"/>
          <path class="cls-8" d="M187.71,118.56c0,.08.56.33,1.71.75l1,.34c.36.12.76.2,1.2.32a29.36,29.36,0,0,0,3,.64l1.82.28c.64.1,1.32.12,2,.18,1.41.15,2.95.15,4.6.17a79,79,0,0,0,11.15-1,142.22,142.22,0,0,0,27.93-7.85,236.11,236.11,0,0,0,32.1-15.2l-1.16-2c-21.71,12.27-43.1,20.5-59.15,23.44A86.41,86.41,0,0,1,203,120c-1.61,0-3.12.1-4.5,0-.69,0-1.35,0-2-.08l-1.79-.17c-1.14-.07-2.13-.3-3-.43-.43-.07-.84-.12-1.2-.2l-1-.23A6.21,6.21,0,0,0,187.71,118.56Z"/>
          <path class="cls-8" d="M228.75,151.07c0,.08.56.07,1.59,0l1.92-.18c.76,0,1.61-.26,2.59-.43l1.54-.29c.54-.12,1.09-.29,1.67-.45l1.82-.5c.63-.18,1.26-.44,1.93-.67a42.82,42.82,0,0,0,8.61-4.23,44.16,44.16,0,0,0,9-7.48,53.71,53.71,0,0,0,7.71-10.94,68.46,68.46,0,0,0,5.5-13.68,76.5,76.5,0,0,0,1.77-7.6,66.33,66.33,0,0,0,1-8l-2.28-.08a66.33,66.33,0,0,1-.94,7.7,75.7,75.7,0,0,1-1.69,7.39,68.27,68.27,0,0,1-5.21,13.31A53.63,53.63,0,0,1,258,135.56a44.16,44.16,0,0,1-8.44,7.4,43.49,43.49,0,0,1-8.19,4.38c-.63.26-1.24.54-1.84.75l-1.75.58c-.56.18-1.09.38-1.61.53l-1.49.38c-1,.23-1.77.51-2.51.63l-1.86.4C229.27,150.83,228.74,151,228.75,151.07Z"/>
          <path class="cls-10" d="M238.57,93.28a.39.39,0,0,1,0-.24.33.33,0,0,1,.41-.21,35.26,35.26,0,0,1,13.49,7.87,19,19,0,0,1,3.34,4,.32.32,0,0,1-.55.34,18.29,18.29,0,0,0-3.22-3.91,34.92,34.92,0,0,0-13.26-7.73A.38.38,0,0,1,238.57,93.28Z"/>
          <path class="cls-10" d="M223.79,100.15a.32.32,0,0,1,.33-.46c16.48,2.31,21.13,9.55,21.32,9.85a.32.32,0,0,1-.1.44.31.31,0,0,1-.44-.1c-.05-.07-4.72-7.29-20.87-9.56A.31.31,0,0,1,223.79,100.15Z"/>
          <path class="cls-10" d="M212.13,105.41a.5.5,0,0,1,0-.13.32.32,0,0,1,.31-.34c8.93-.45,20.42,7.85,20.9,8.2a.31.31,0,0,1,.07.45.31.31,0,0,1-.44.07c-.12-.08-11.79-8.51-20.5-8.07A.33.33,0,0,1,212.13,105.41Z"/>
          <path class="cls-10" d="M203.64,107.28a.31.31,0,0,1,0-.19.32.32,0,0,1,.37-.27,29.47,29.47,0,0,1,18.36,10.45.32.32,0,1,1-.49.41,28.9,28.9,0,0,0-18-10.23A.29.29,0,0,1,203.64,107.28Z"/>
          <path class="cls-10" d="M198.61,113.64a.34.34,0,0,1,0-.2.32.32,0,0,1,.37-.27c7.84,1.24,9.92,6.47,10,6.7a.31.31,0,0,1-.18.41.34.34,0,0,1-.42-.19s-2-5.11-9.5-6.28A.36.36,0,0,1,198.61,113.64Z"/>
          <path class="cls-10" d="M196.74,130.49v0a.32.32,0,0,1,.16-.42c11.17-4.86,10.79-9.91,10.78-10a.33.33,0,0,1,.29-.36.32.32,0,0,1,.35.28c0,.23.51,5.55-11.16,10.62A.31.31,0,0,1,196.74,130.49Z"/>
          <path class="cls-10" d="M205.17,138a.33.33,0,0,1,.1-.41c14.66-11,15.84-19.91,15.85-20a.32.32,0,0,1,.64.07c0,.38-1.2,9.28-16.11,20.45a.32.32,0,0,1-.45-.07Z"/>
          <path class="cls-10" d="M214,140.29a.32.32,0,0,1,.07-.38c15.8-15,19.2-25.83,19.23-25.94a.33.33,0,0,1,.4-.22.34.34,0,0,1,.22.41c0,.1-3.48,11-19.41,26.22a.32.32,0,0,1-.45,0Z"/>
          <path class="cls-10" d="M222.37,141.11a.32.32,0,0,1,.07-.38c10.93-10.3,21.75-30.14,21.86-30.34a.32.32,0,0,1,.57.31c-.11.2-11,20.13-22,30.5a.32.32,0,0,1-.45,0A.2.2,0,0,1,222.37,141.11Z"/>
          <path class="cls-10" d="M235.5,125a.33.33,0,0,1,.1-.41c23.43-17,34.85-10.76,35.32-10.49a.32.32,0,0,1,.12.44.33.33,0,0,1-.44.12c-.11-.07-11.57-6.31-34.63,10.45a.31.31,0,0,1-.44-.07Z"/>
          <path class="cls-10" d="M242.06,133.31a.34.34,0,0,1,.08-.39c15.72-13,24.41-9.17,24.77-9a.32.32,0,1,1-.27.58c-.09,0-8.72-3.77-24.09,8.91a.31.31,0,0,1-.45,0Z"/>
          <path class="cls-10" d="M235.62,144.68v0a.32.32,0,0,1,.17-.42c13.41-5.68,17.43-5.44,18.63-4.79a1,1,0,0,1,.55.63.32.32,0,0,1-.26.37.32.32,0,0,1-.37-.26A1,1,0,0,0,254,140c-1-.41-4.66-.76-18,4.87A.32.32,0,0,1,235.62,144.68Z"/>
          <path class="cls-10" d="M253.55,159.53a.33.33,0,0,1,0-.32c5.61-9.05,1.39-19.34,1.34-19.44a.32.32,0,0,1,.17-.42.32.32,0,0,1,.42.17c0,.11,4.4,10.7-1.38,20a.32.32,0,0,1-.44.1A.34.34,0,0,1,253.55,159.53Z"/>
          <path class="cls-10" d="M273.61,159.32a.36.36,0,0,1,0-.23c4.58-15.73-7.52-33.38-7.64-33.55a.33.33,0,0,1,.08-.45.32.32,0,0,1,.45.08c.12.18,12.39,18.07,7.73,34.1a.32.32,0,0,1-.4.21A.29.29,0,0,1,273.61,159.32Z"/>
          <path class="cls-10" d="M270.83,115.15a.32.32,0,0,1,0-.36.33.33,0,0,1,.45,0,90.42,90.42,0,0,1,19.9,25.95l.12.23a.32.32,0,1,1-.57.29h0l-.12-.22a89.78,89.78,0,0,0-19.74-25.75Z"/>
          <path class="cls-10" d="M203.34,59.34a.26.26,0,0,1,0-.23c0-.11,3-10.75-4.64-14.36a.33.33,0,0,1-.16-.43.32.32,0,0,1,.43-.15c8.11,3.84,5,15,5,15.11a.32.32,0,0,1-.4.22A.29.29,0,0,1,203.34,59.34Z"/>
          <path class="cls-10" d="M215.79,65a.36.36,0,0,1,0-.21c0-.17,3.17-17.43-5.73-23.19a.32.32,0,0,1-.1-.44.33.33,0,0,1,.45-.1c9.26,6,6.15,23.13,6,23.85a.32.32,0,0,1-.37.26A.31.31,0,0,1,215.79,65Z"/>
          <path class="cls-10" d="M227.87,70.6a.36.36,0,0,1,0-.21c0-.22,3.92-22.33-4.52-33.37a.33.33,0,0,1,.06-.45.33.33,0,0,1,.45.06c8.62,11.28,4.69,33.65,4.64,33.88a.32.32,0,0,1-.37.26A.36.36,0,0,1,227.87,70.6Z"/>
          <path class="cls-10" d="M238.33,76a.33.33,0,0,1,0-.33c.07-.1,7-10.41,4.06-17.32a.32.32,0,0,1,.17-.43.31.31,0,0,1,.42.17c3.11,7.25-3.82,17.51-4.12,17.94a.31.31,0,0,1-.44.09A.6.6,0,0,1,238.33,76Z"/>
          <path class="cls-8" d="M237.88,16.37c0,.07.43.5,1.38,1.27L241,19c.71.53,1.45,1.24,2.33,2a80.88,80.88,0,0,1,25.6,39.83,98.35,98.35,0,0,1,3.23,16.58c.31,2.92.5,5.91.54,8.93a73.38,73.38,0,0,1-.38,9.14l2.27.31a74.36,74.36,0,0,0,.39-9.48q-.09-4.65-.59-9.14A98.05,98.05,0,0,0,271,60.24a82.64,82.64,0,0,0-13.16-26,74.92,74.92,0,0,0-13.9-13.89c-.93-.69-1.73-1.35-2.48-1.83l-1.9-1.22A6,6,0,0,0,237.88,16.37Z"/>
          <path class="cls-8" d="M288.17,27.15c-.07.05.19.55.72,1.46s1.42,2.2,2.33,4a49.18,49.18,0,0,1,5.68,15.7A39.72,39.72,0,0,1,297,59.74l-.1.77-.15.77c-.11.51-.21,1-.31,1.55-.22,1-.55,2.08-.83,3.14a47.28,47.28,0,0,1-2.52,6.3A56.81,56.81,0,0,1,285,84.43a67.1,67.1,0,0,1-5.35,5.62,63.16,63.16,0,0,1-6.1,5.08L274.86,97a61.72,61.72,0,0,0,6.37-5.3,69.8,69.8,0,0,0,5.5-5.83A57.86,57.86,0,0,0,295,73.17a49.39,49.39,0,0,0,2.54-6.62c.27-1.12.6-2.21.81-3.31l.3-1.63.14-.81.09-.81a40,40,0,0,0-.37-12A45.8,45.8,0,0,0,292,32.13a34,34,0,0,0-2.71-3.78C288.61,27.51,288.23,27.1,288.17,27.15Z"/>
          <path class="cls-10" d="M251.52,83a.3.3,0,0,1,0-.29c.14-.29,14.27-28.74-12-52.56a.32.32,0,0,1,.43-.47c26.67,24.15,12.31,53,12.16,53.32a.32.32,0,0,1-.57,0Z"/>
          <path class="cls-10" d="M255.31,68.79a.33.33,0,0,1,.06-.38.33.33,0,0,1,.46,0c8.34,8.68,17.25,7.8,17.34,7.79a.32.32,0,0,1,.07.64c-.09,0-9.31.93-17.87-8C255.34,68.84,255.33,68.81,255.31,68.79Z"/>
          <path class="cls-10" d="M255.08,57.82a.32.32,0,0,1,.06-.38.32.32,0,0,1,.45,0c5.82,6,13.79,1.76,13.87,1.72a.33.33,0,0,1,.44.13.34.34,0,0,1-.13.43c-.08.05-8.47,4.53-14.64-1.84A.18.18,0,0,1,255.08,57.82Z"/>
          <path class="cls-10" d="M252.26,47.7a.31.31,0,0,1,0-.25.34.34,0,0,1,.41-.2c7.33,2.49,9.86-2.81,10-3a.33.33,0,0,1,.43-.16.33.33,0,0,1,.16.43c0,.06-2.86,6.06-10.75,3.38A.31.31,0,0,1,252.26,47.7Z"/>
          <path class="cls-10" d="M245.49,36.46a.25.25,0,0,1,0-.17.33.33,0,0,1,.35-.3c6,.55,7.56-5.63,7.57-5.69a.33.33,0,0,1,.39-.24.33.33,0,0,1,.24.39c0,.07-1.75,6.78-8.26,6.18A.3.3,0,0,1,245.49,36.46Z"/>
          <path class="cls-10" d="M253.86,30.41a.31.31,0,0,1,.06-.38c.2-.19,4.92-4.85-2.61-14.57a.33.33,0,0,1,.06-.45.32.32,0,0,1,.45.06c7.91,10.21,2.76,15.22,2.54,15.43a.32.32,0,0,1-.45,0A.35.35,0,0,1,253.86,30.41Z"/>
          <path class="cls-10" d="M263,43.75a.33.33,0,0,1,0-.29c.07-.14,7-14.22-1.55-25a.32.32,0,0,1,.5-.4c8.83,11.11,1.7,25.55,1.62,25.7a.33.33,0,0,1-.43.14A.32.32,0,0,1,263,43.75Z"/>
          <path class="cls-10" d="M269.74,58.87a.3.3,0,0,1,0-.29c.08-.17,8.7-17.09,4.63-28.7a.32.32,0,0,1,.61-.22c4.16,11.88-4.58,29-4.67,29.21a.33.33,0,0,1-.44.14A.29.29,0,0,1,269.74,58.87Z"/>
          <path class="cls-10" d="M273.35,75.94a.29.29,0,0,1,0-.31c.11-.18,11.31-18.38,9.12-26.32a.32.32,0,0,1,.22-.4.32.32,0,0,1,.4.23c2.27,8.21-8.73,26.07-9.2,26.83a.32.32,0,0,1-.44.1A.37.37,0,0,1,273.35,75.94Z"/>
          <path class="cls-10" d="M287.17,37.24a.32.32,0,0,1,.57-.31c5.21,9.07,9.07,7.61,9.11,7.6a.32.32,0,0,1,.42.17.33.33,0,0,1-.17.42c-.18.07-4.39,1.76-9.92-7.87Z"/>
          <path class="cls-10" d="M296.84,45.6a.35.35,0,0,1,0-.33c.05-.07,4.56-6.75.57-13a.32.32,0,0,1,.09-.44.33.33,0,0,1,.45.1c4.23,6.63-.53,13.68-.58,13.75a.33.33,0,0,1-.55,0Z"/>
          <path class="cls-10" d="M297.75,52a.39.39,0,0,1,0-.24.32.32,0,0,1,.4-.22,8.14,8.14,0,0,0,5.16-.17c4-1.5,6.31-5.72,6.87-9.24a.32.32,0,1,1,.63.1c-.59,3.71-3.07,8.15-7.27,9.74a8.78,8.78,0,0,1-5.57.19A.36.36,0,0,1,297.75,52Z"/>
          <path class="cls-10" d="M296.73,64.74a.37.37,0,0,1,0-.15.32.32,0,0,1,.33-.32c.17,0,17.4.28,19.64-15.9a.32.32,0,0,1,.36-.27.32.32,0,0,1,.28.36C315,65.22,297.19,64.92,297,64.92A.36.36,0,0,1,296.73,64.74Z"/>
          <path class="cls-10" d="M284.17,57.37a14.24,14.24,0,0,1-1.31-8,.31.31,0,0,1,.35-.29.32.32,0,0,1,.29.35c-.37,3.94.52,7.2,2.64,9.68,3.83,4.48,10.4,4.95,10.47,4.95a.33.33,0,0,1-.05.65c-.28,0-6.91-.5-10.9-5.18A11.51,11.51,0,0,1,284.17,57.37Z"/>
          <path class="cls-10" d="M286.22,45.72a.33.33,0,0,1,.14-.44.32.32,0,0,1,.43.14c2.27,4.29,7.39,6.06,11.42,6.3a.32.32,0,0,1,.3.34.32.32,0,0,1-.34.3c-4.21-.25-9.56-2.12-11.95-6.64Z"/>
          <path class="cls-10" d="M290.61,78.09a.31.31,0,0,1,0-.28.33.33,0,0,1,.43-.16c.13.06,13.71,6,30.33-6.71a.32.32,0,0,1,.45.06.31.31,0,0,1-.06.45c-16.94,13-30.85,6.85-31,6.79A.36.36,0,0,1,290.61,78.09Z"/>
          <path class="cls-10" d="M281.14,70.71a17,17,0,0,1-1.78-6.48.31.31,0,0,1,.29-.35.32.32,0,0,1,.35.29c1,11.27,10.3,13.12,10.39,13.14a.32.32,0,0,1,.26.38.32.32,0,0,1-.38.25A14.16,14.16,0,0,1,281.14,70.71Z"/>
          <path class="cls-8" d="M320.5,120.88c-4.85-3.36-10.14-6.18-15.2-9.21-9.22-5.52-18.72-10.57-27.88-16.17a459,459,0,0,0-48.48-25.79,372.05,372.05,0,0,0-34.9-14c-4.21-1.42-7.51-2.42-9.77-3a13,13,0,0,0-3.5-.73,15.83,15.83,0,0,0,3.29,1.39c2.18.82,5.4,2,9.52,3.62,8.24,3.22,20.08,8.09,34.33,14.93,4.18,2.38,8.71,4.27,13,6.48C248,82.05,255,86,261.94,90q5.87,3.42,11.66,7l6.24,3.79c6.92,4.22,13.9,8.33,20.7,12.72a92.17,92.17,0,0,1,13,9.67c.59.55,1.17,1.11,1.73,1.68,3.27-.21,6.54-.36,9.83-.43C323.65,123.15,322.09,122,320.5,120.88Z"/>
        </g>
      </g>
    </g>
  </g>
</svg>
