<svg id="Layer_1" data-name="Layer 1" xmlns="http://www.w3.org/2000/svg" width="187.91" height="291.83" viewBox="0 0 187.91 291.83">
  <defs>
    <style>
      .cls-1 {
        opacity: 0.5;
      }

      .cls-2 {
        fill: #070707;
      }

      .cls-17, .cls-3 {
        fill: none;
      }

      .cls-11, .cls-15, .cls-17, .cls-18, .cls-3, .cls-5, .cls-7 {
        stroke: #453323;
      }

      .cls-11, .cls-12, .cls-13, .cls-15, .cls-16, .cls-17, .cls-18, .cls-19, .cls-20, .cls-22, .cls-29, .cls-3, .cls-30, .cls-5, .cls-7 {
        stroke-miterlimit: 10;
      }

      .cls-4 {
        fill: #fafbfc;
        stroke: #fdfdff;
        stroke-linejoin: round;
        stroke-width: 7px;
      }

      .cls-5, .cls-7 {
        fill: #fbd3c7;
      }

      .cls-11, .cls-15, .cls-17, .cls-18, .cls-19, .cls-20, .cls-5 {
        stroke-width: 0.5px;
      }

      .cls-6 {
        fill: #e4a68d;
      }

      .cls-8 {
        fill: #161616;
      }

      .cls-9 {
        fill: #303030;
      }

      .cls-10 {
        fill: #f8e1db;
      }

      .cls-11 {
        fill: #bcd0eb;
      }

      .cls-12, .cls-20 {
        fill: #3096d2;
        stroke: #2c3581;
      }

      .cls-13 {
        fill: #864a30;
        stroke: #68321e;
      }

      .cls-14, .cls-15 {
        fill: #f6e982;
      }

      .cls-16 {
        fill: #2455a3;
        stroke: #2d2b7a;
      }

      .cls-18 {
        fill: #7595cc;
      }

      .cls-19 {
        fill: #d6e5f5;
        stroke: #395a72;
      }

      .cls-21 {
        fill: #2c3581;
      }

      .cls-22 {
        fill: #d95c78;
        stroke: #8d2338;
      }

      .cls-23, .cls-29 {
        fill: #d6ebf4;
      }

      .cls-24 {
        fill: #98784d;
      }

      .cls-25 {
        fill: #ba7e70;
      }

      .cls-26 {
        fill: #dee8ee;
      }

      .cls-27 {
        fill: #580d0d;
      }

      .cls-28 {
        fill: #a04c43;
      }

      .cls-29 {
        stroke: #98784d;
      }

      .cls-30 {
        fill: #3f1d1d;
        stroke: #221f1f;
      }

      .cls-31 {
        fill: #431b15;
      }

      .cls-32 {
        fill: #c48a74;
      }

      .cls-33 {
        fill: #451e15;
      }

      .cls-34 {
        fill: #7a4922;
      }

      .cls-35 {
        fill: #841212;
      }

      .cls-36 {
        fill: #590c02;
      }

      .cls-37 {
        fill: #d9d9d9;
      }

      .cls-38 {
        fill: #f5f5f5;
      }

      .cls-39 {
        fill: #881313;
      }

      .cls-40 {
        fill: #bd1622;
      }

      .cls-41 {
        fill: #cd1625;
      }

      .cls-42 {
        fill: #005087;
      }

      .cls-43 {
        fill: #b1b1b1;
      }

      .cls-44 {
        fill: #630e05;
      }

      .cls-45 {
        fill: #9c1519;
      }

      .cls-46 {
        fill: #c6c6c5;
      }

      .cls-47 {
        fill: #d04240;
      }

      .cls-48 {
        fill: #ececec;
      }
    </style>
  </defs>
  <g>
    <g class="cls-1">
      <path class="cls-2" d="M46.39,289.17a33,33,0,0,1-6.53-.7c-4.79-1-8-3-9.4-5.89a8.73,8.73,0,0,1-.06-7.29c0-.28.1-.57.17-.86a10.33,10.33,0,0,1,5.29-6.6l4.25-2.24a5.51,5.51,0,0,1,1.19-1,4.77,4.77,0,0,1,1.39-1.62,10.34,10.34,0,0,1,.83-6.59A7.78,7.78,0,0,1,47,253L48,249.51a4.49,4.49,0,0,1,.11-2.46l1-2.91a4.57,4.57,0,0,1,1.1-1.82l2-6.63c-.05-.23-.1-.46-.13-.69a4,4,0,0,1,.47-2.48c.22-.7,1.11-3.9,3-16a144.07,144.07,0,0,1,3.61-17.26l.4-3.27a17.94,17.94,0,0,1-1.9-2.94,4,4,0,0,1-.31-2.79L62.18,171l-.63.39-9.18,5.49c-5.72,5.85-13,10.23-18.38,13a2,2,0,0,1,.07.23,10.2,10.2,0,0,0,1.13.78c1.52,1,3.81,2.42,4.48,5.49a6.13,6.13,0,0,1-1.24,5.16A6.66,6.66,0,0,1,33.28,204a6.23,6.23,0,0,1-2-.33,10.6,10.6,0,0,1-1.79-.81,30.77,30.77,0,0,1-.95,3c-.64,1.6-1.7,4.24-4.17,5.65a6.43,6.43,0,0,1-3.2.93A4.83,4.83,0,0,1,17.68,211a5.75,5.75,0,0,1-.68-.83,6.19,6.19,0,0,1-2.4.48l-.49,0a4.77,4.77,0,0,1-3.8-2.35,5,5,0,0,1-.53-1.32,3.86,3.86,0,0,1-.6-.54,4.94,4.94,0,0,1-1.3-2.69,3.75,3.75,0,0,1-.44-.24,4.93,4.93,0,0,1-2.39-3.42c-.48-2.71,1.28-4.88,2.45-6.32.11-.14.22-.26.3-.37.23-.46.45-.91.66-1.37a15.54,15.54,0,0,1,3.75-5.54l.19-.17a11,11,0,0,0,2-2.09c.16-.24.3-.49.44-.75a12.36,12.36,0,0,1,1.74-2.56l.38-.44,6.34-7.67a79.09,79.09,0,0,1,14.94-14.48l.37-.27.4-.26c.41-.27.87-.57,1.31-.84l2.36-1.53a4,4,0,0,1,.53-2.81c3.33-5.37,19.17-15.21,25.73-19.14a42.36,42.36,0,0,1-17.54-9.8,10.4,10.4,0,0,1-5.58,1.58c-4.37,0-8.64-2.51-12-7.06C31.09,114.43,27.19,107,29,101.55c-3.73-2.22-7-6-8.9-11.83-5.22-3.63-12.14-12-9.23-23.9C9.41,63.1,7.17,57.56,8.78,51.39c1.41-5.45,5.37-10,11.78-13.43.71-5.55,3.62-18.92,15.31-22.3,2.77-2.92,11.41-10.93,23-10.93a26,26,0,0,1,12,3,25.09,25.09,0,0,1,9.92-2c6.69,0,13.17,2.77,18.8,8,5.87,1.55,15,6.37,16.26,15.76a12.63,12.63,0,0,1,6.52,6.61,11.74,11.74,0,0,1-.56,9.22,11.59,11.59,0,0,1,3.58,6.11c.71,3.45-.3,7-3,10.57l.51,4.15a9.8,9.8,0,0,1,1.13.62,12.82,12.82,0,0,1,4.57,5.78l.83-.85c.34-.37.7-.75,1-1.13l.13-.15.85-1,.34-.41c.21-.26.43-.52.64-.79l.31-.38.74-1,.18-.23c.27-.36.54-.75.81-1.13l.8-1.18.29-.44.58-.93.17-.27.66-1.09.64-1.14.62-1.15.26-.52.34-.67.44-.92.24-.52.48-1.07.27-.65.12-.28c.35-.86.65-1.63.92-2.38,0,0,.36-1,.36-1.07.28-.81.53-1.64.76-2.45l.36-1.41.23-1c.06-.28.12-.56.17-.83l.2-1.15.1-.7c0-.18,0-.36.07-.53a4.12,4.12,0,0,1,1.72-3h0a4.34,4.34,0,0,1,2.47-.76c1.74,0,4.6,0,17.58,17.93a13,13,0,0,1,7.29,4.44l.2.26c.17.21.33.42.48.64a12.85,12.85,0,0,1,2.1,9.51c2.78,4.4,5,8.31,6.59,11.38,1.75,3.47,4.15,8.23.48,10.75a4.29,4.29,0,0,1-2.47.76,5,5,0,0,1-2.15-.51l-.53-.11-.57-.1-.83-.14c-.82-.13-1.69-.23-2.58-.32h0l-1-.08h-.14l-1-.06-1.21,0h0l-1.23,0h-.2c-1.27,0-2.56,0-3.83.13h-.06l-1.35.11-1.45.15-1.38.19c-.47.06-.95.14-1.44.22h-.07l-1.42.27-.47.09-.78.17-1.38.33-.56.14-1.34.37-.7.21-.62.19-.81.26-.66.23-.88.31-.59.22-.61.24a5.83,5.83,0,0,1,2.17,2,7.4,7.4,0,0,1,.57.81,8.94,8.94,0,0,1,6.48,2.8c3.58.2,5.38,1.61,6.28,3a4.59,4.59,0,0,1,.33.44,5.51,5.51,0,0,1,2,1.84,5,5,0,0,1,.74,1.14,3.91,3.91,0,0,1,.57,2.28A7,7,0,0,1,167,114a8.12,8.12,0,0,1-2.17,3.52,73.73,73.73,0,0,1-7.37,10.8c-4.28,11.16-12.77,16.64-19.57,19.81a31.3,31.3,0,0,1-2.28,7,4,4,0,0,1-3.34,2.32l-15.09,1.1.26,6.9,4.21,23.67a4,4,0,0,1-.41,2.6,25.31,25.31,0,0,1-3.66,4.83v2.07a9.14,9.14,0,0,1,1,5.59c-.28,1.64-2.09,20.57-3.17,32.11a4,4,0,0,1-.8,2A20.25,20.25,0,0,1,103.76,245c0,.06,0,.12,0,.18a4.6,4.6,0,0,1,.8,2.28A8.59,8.59,0,0,1,103,253.3c0,.29,0,.58-.08.87a6.12,6.12,0,0,1,2.42,4.23,5.15,5.15,0,0,1,1.74.77h.23a5.44,5.44,0,0,1,2.94.81c9.21,2.57,11.3,7,11.6,9.94a8.75,8.75,0,0,1-.44,6.13,3.55,3.55,0,0,1-.38.62c-2.29,3.08-7.16,4.52-15.32,4.52a68.38,68.38,0,0,1-12.54-1.13A133.71,133.71,0,0,1,79.6,275.9,4,4,0,0,1,77.4,274a11.23,11.23,0,0,1-.83-7.83c.06-.21.13-.41.19-.61a12.08,12.08,0,0,1,.47-2.45,1.73,1.73,0,0,0-.12-1.09,2.29,2.29,0,0,1-.4-.88,0,0,0,0,1,0,0c-.11-.24-.2-.49-.29-.73a3.93,3.93,0,0,1-.17-2,6.37,6.37,0,0,1,1.42-4.17,6.76,6.76,0,0,1,2.74-2,4.54,4.54,0,0,1-.35-2.43l.37-2.89a4.61,4.61,0,0,1,.47-1.5l0-1.18a21.4,21.4,0,0,1-7.77,1.24H73c-.37,1.08-.77,2.22-1.18,3.39a4.43,4.43,0,0,1-.26,2.26l-1,2.72a4.46,4.46,0,0,1-1,1.6c-.28.77-.55,1.5-.81,2.18a6.09,6.09,0,0,1,1.08,4.16,7.18,7.18,0,0,1-2.06,4.39l.29,8a4.08,4.08,0,0,1-.5,2.08c0,.07-.09.17-.17.29h0a4,4,0,0,1-1,2.81,8,8,0,0,1-4.84,2.27C60.27,284.9,55.13,289.17,46.39,289.17Zm69.4-163.64,14.47,2.27c1.55-1.12,3.08-2.25,4.55-3.32a17.94,17.94,0,0,1-4-7.12,11.42,11.42,0,0,1-.47-4.76l-.3-.28a8,8,0,0,1-4.17-1.18A41.75,41.75,0,0,1,115.79,125.53Z"/>
      <path class="cls-3" d="M46.39,289.17a33,33,0,0,1-6.53-.7c-4.79-1-8-3-9.4-5.89a8.73,8.73,0,0,1-.06-7.29c0-.28.1-.57.17-.86a10.33,10.33,0,0,1,5.29-6.6l4.25-2.24a5.51,5.51,0,0,1,1.19-1,4.77,4.77,0,0,1,1.39-1.62,10.34,10.34,0,0,1,.83-6.59A7.78,7.78,0,0,1,47,253L48,249.51a4.49,4.49,0,0,1,.11-2.46l1-2.91a4.57,4.57,0,0,1,1.1-1.82l2-6.63c-.05-.23-.1-.46-.13-.69a4,4,0,0,1,.47-2.48c.22-.7,1.11-3.9,3-16a144.07,144.07,0,0,1,3.61-17.26l.4-3.27a17.94,17.94,0,0,1-1.9-2.94,4,4,0,0,1-.31-2.79L62.18,171l-.63.39-9.18,5.49c-5.72,5.85-13,10.23-18.38,13a2,2,0,0,1,.07.23,10.2,10.2,0,0,0,1.13.78c1.52,1,3.81,2.42,4.48,5.49a6.13,6.13,0,0,1-1.24,5.16A6.66,6.66,0,0,1,33.28,204a6.23,6.23,0,0,1-2-.33,10.6,10.6,0,0,1-1.79-.81,30.77,30.77,0,0,1-.95,3c-.64,1.6-1.7,4.24-4.17,5.65a6.43,6.43,0,0,1-3.2.93A4.83,4.83,0,0,1,17.68,211a5.75,5.75,0,0,1-.68-.83,6.19,6.19,0,0,1-2.4.48l-.49,0a4.77,4.77,0,0,1-3.8-2.35,5,5,0,0,1-.53-1.32,3.86,3.86,0,0,1-.6-.54,4.94,4.94,0,0,1-1.3-2.69,3.75,3.75,0,0,1-.44-.24,4.93,4.93,0,0,1-2.39-3.42c-.48-2.71,1.28-4.88,2.45-6.32.11-.14.22-.26.3-.37.23-.46.45-.91.66-1.37a15.54,15.54,0,0,1,3.75-5.54l.19-.17a11,11,0,0,0,2-2.09c.16-.24.3-.49.44-.75a12.36,12.36,0,0,1,1.74-2.56l.38-.44,6.34-7.67a79.09,79.09,0,0,1,14.94-14.48l.37-.27.4-.26c.41-.27.87-.57,1.31-.84l2.36-1.53a4,4,0,0,1,.53-2.81c3.33-5.37,19.17-15.21,25.73-19.14a42.36,42.36,0,0,1-17.54-9.8,10.4,10.4,0,0,1-5.58,1.58c-4.37,0-8.64-2.51-12-7.06C31.09,114.43,27.19,107,29,101.55c-3.73-2.22-7-6-8.9-11.83-5.22-3.63-12.14-12-9.23-23.9C9.41,63.1,7.17,57.56,8.78,51.39c1.41-5.45,5.37-10,11.78-13.43.71-5.55,3.62-18.92,15.31-22.3,2.77-2.92,11.41-10.93,23-10.93a26,26,0,0,1,12,3,25.09,25.09,0,0,1,9.92-2c6.69,0,13.17,2.77,18.8,8,5.87,1.55,15,6.37,16.26,15.76a12.63,12.63,0,0,1,6.52,6.61,11.74,11.74,0,0,1-.56,9.22,11.59,11.59,0,0,1,3.58,6.11c.71,3.45-.3,7-3,10.57l.51,4.15a9.8,9.8,0,0,1,1.13.62,12.82,12.82,0,0,1,4.57,5.78l.83-.85c.34-.37.7-.75,1-1.13l.13-.15.85-1,.34-.41c.21-.26.43-.52.64-.79l.31-.38.74-1,.18-.23c.27-.36.54-.75.81-1.13l.8-1.18.29-.44.58-.93.17-.27.66-1.09.64-1.14.62-1.15.26-.52.34-.67.44-.92.24-.52.48-1.07.27-.65.12-.28c.35-.86.65-1.63.92-2.38,0,0,.36-1,.36-1.07.28-.81.53-1.64.76-2.45l.36-1.41.23-1c.06-.28.12-.56.17-.83l.2-1.15.1-.7c0-.18,0-.36.07-.53a4.12,4.12,0,0,1,1.72-3h0a4.34,4.34,0,0,1,2.47-.76c1.74,0,4.6,0,17.58,17.93a13,13,0,0,1,7.29,4.44l.2.26c.17.21.33.42.48.64a12.85,12.85,0,0,1,2.1,9.51c2.78,4.4,5,8.31,6.59,11.38,1.75,3.47,4.15,8.23.48,10.75a4.29,4.29,0,0,1-2.47.76,5,5,0,0,1-2.15-.51l-.53-.11-.57-.1-.83-.14c-.82-.13-1.69-.23-2.58-.32h0l-1-.08h-.14l-1-.06-1.21,0h0l-1.23,0h-.2c-1.27,0-2.56,0-3.83.13h-.06l-1.35.11-1.45.15-1.38.19c-.47.06-.95.14-1.44.22h-.07l-1.42.27-.47.09-.78.17-1.38.33-.56.14-1.34.37-.7.21-.62.19-.81.26-.66.23-.88.31-.59.22-.61.24a5.83,5.83,0,0,1,2.17,2,7.4,7.4,0,0,1,.57.81,8.94,8.94,0,0,1,6.48,2.8c3.58.2,5.38,1.61,6.28,3a4.59,4.59,0,0,1,.33.44,5.51,5.51,0,0,1,2,1.84,5,5,0,0,1,.74,1.14,3.91,3.91,0,0,1,.57,2.28A7,7,0,0,1,167,114a8.12,8.12,0,0,1-2.17,3.52,73.73,73.73,0,0,1-7.37,10.8c-4.28,11.16-12.77,16.64-19.57,19.81a31.3,31.3,0,0,1-2.28,7,4,4,0,0,1-3.34,2.32l-15.09,1.1.26,6.9,4.21,23.67a4,4,0,0,1-.41,2.6,25.31,25.31,0,0,1-3.66,4.83v2.07a9.14,9.14,0,0,1,1,5.59c-.28,1.64-2.09,20.57-3.17,32.11a4,4,0,0,1-.8,2A20.25,20.25,0,0,1,103.76,245c0,.06,0,.12,0,.18a4.6,4.6,0,0,1,.8,2.28A8.59,8.59,0,0,1,103,253.3c0,.29,0,.58-.08.87a6.12,6.12,0,0,1,2.42,4.23,5.15,5.15,0,0,1,1.74.77h.23a5.44,5.44,0,0,1,2.94.81c9.21,2.57,11.3,7,11.6,9.94a8.75,8.75,0,0,1-.44,6.13,3.55,3.55,0,0,1-.38.62c-2.29,3.08-7.16,4.52-15.32,4.52a68.38,68.38,0,0,1-12.54-1.13A133.71,133.71,0,0,1,79.6,275.9,4,4,0,0,1,77.4,274a11.23,11.23,0,0,1-.83-7.83c.06-.21.13-.41.19-.61a12.08,12.08,0,0,1,.47-2.45,1.73,1.73,0,0,0-.12-1.09,2.29,2.29,0,0,1-.4-.88,0,0,0,0,1,0,0c-.11-.24-.2-.49-.29-.73a3.93,3.93,0,0,1-.17-2,6.37,6.37,0,0,1,1.42-4.17,6.76,6.76,0,0,1,2.74-2,4.54,4.54,0,0,1-.35-2.43l.37-2.89a4.61,4.61,0,0,1,.47-1.5l0-1.18a21.4,21.4,0,0,1-7.77,1.24H73c-.37,1.08-.77,2.22-1.18,3.39a4.43,4.43,0,0,1-.26,2.26l-1,2.72a4.46,4.46,0,0,1-1,1.6c-.28.77-.55,1.5-.81,2.18a6.09,6.09,0,0,1,1.08,4.16,7.18,7.18,0,0,1-2.06,4.39l.29,8a4.08,4.08,0,0,1-.5,2.08c0,.07-.09.17-.17.29h0a4,4,0,0,1-1,2.81,8,8,0,0,1-4.84,2.27C60.27,284.9,55.13,289.17,46.39,289.17Zm69.4-163.64,14.47,2.27c1.55-1.12,3.08-2.25,4.55-3.32a17.94,17.94,0,0,1-4-7.12,11.42,11.42,0,0,1-.47-4.76l-.3-.28a8,8,0,0,1-4.17-1.18A41.75,41.75,0,0,1,115.79,125.53Z"/>
    </g>
    <path class="cls-4" d="M167,71.62a9,9,0,0,0-1.11-8c-.13-.19-.28-.37-.42-.55h0l-.06-.07A9,9,0,0,0,159,59.78c-7.73-10.8-14.37-18.39-15.53-17.59,0,0,0,0,0,.07,0,.21-.05.43-.08.66a2.7,2.7,0,0,1,0,.28c0,.18,0,.36-.08.55s0,.22-.05.34-.08.4-.11.61l-.06.32c-.06.29-.13.6-.2.92,0,.13-.06.26-.09.39s-.1.45-.16.69-.06.26-.1.4-.15.6-.24.9c0,.07,0,.14,0,.21-.24.84-.51,1.73-.81,2.65,0,0,0,.08-.05.13-.09.27-.18.54-.28.81,0,.06,0,.13-.07.2-.29.8-.6,1.63-.95,2.48l-.15.37-.3.69-.21.5c-.1.21-.19.42-.29.64l-.27.57-.47,1-.35.7c-.09.19-.2.38-.29.57l-.36.67-.3.56c-.14.25-.28.51-.43.76l-.27.47c-.22.39-.46.79-.7,1.18l-.27.44c-.18.27-.35.55-.53.83l-.31.47-.09.14-.48.71-.3.43-.88,1.23-.17.22-.79,1-.33.42c-.23.29-.47.57-.71.86l-.34.42-.9,1-.17.2-1.13,1.23-.34.34c-.28.3-.57.59-.86.88l-.4.39-.16.15-.78.75-.33.31-.26.23-1,.93-.29.24-1.09.9-.37.29c-.48-4.37-2.14-8.23-4.5-9.73a3.4,3.4,0,0,0-2.62-.68l-1-8.69c8.52-9.58-1.61-14.28-1.61-14.28C120.09,34,108,31,108,31,108.4,19.08,93.57,16,93.57,16,80,2.53,66.74,10.93,66.74,10.93,48.79,0,34,17.9,34,17.9,21,20.65,20.26,39.19,20.26,39.19.2,48.64,11.11,63.9,11.11,63.9c-4.68,14.58,8.33,21.91,8.33,21.91C23.1,99.91,35,98.8,35,98.8l.27.34c-10.67-2-6.74,9.28-2.29,15.29,5.15,6.94,11.69,6.77,14.52,2.14l-.13-.23C53.09,123.68,62.24,128,72,129.62l-3,4.49c.14.5.3,1,.46,1.47a6.58,6.58,0,0,0-.63.38l.21-1.7s-23,13.47-26.5,19.07c0,0,.79.61,2.14,1.54L38.38,159c-.39.24-.8.51-1.22.79l-.4.26h0c-3.83,2.65-8.66,7-14.41,13.93L16,181.71c-.07.07-.21.23-.43.5a17.9,17.9,0,0,0-1.8,2.81,15.22,15.22,0,0,1-3,3.09C9,189.69,8.28,192,7.18,194c-.46.85-2.94,3.86-1.21,4.89.2.12-.81-2.23-.61-2.2,0,0,.63,2.2.61,2.2a1.09,1.09,0,0,0,1.16-.07,6.22,6.22,0,0,0,1-.81l.19-.19.24-.24c-.08.51-.15,1-.28,1.53a12.37,12.37,0,0,0-.5,2.31.93.93,0,0,0,1,1.1c.13.06.32,0,.6-.19h.05a4.25,4.25,0,0,0,.9-.72c-.38.81-1.54,3.53,0,3.65,2,.16,3.49-2.54,4.21-4,.62-1.26,1.1-2.57,1.72-3.82.39-.74,1-1.4,1.3-2.16a15.51,15.51,0,0,1-.18,3.82c-.19,1-.46,2-.75,3-.35,1.22-1.27,3.64-.21,4.72.51.51,1.36.13,1.85-.15,1.26-.72,1.93-2.38,2.44-3.64,1.06-2.71,1.42-6.16,3.26-8.53.68.6,1.15,1.61,1.75,2.25a6.69,6.69,0,0,0,2.73,1.8,2.45,2.45,0,0,0,3.21-2.65c-.6-2.75-4.42-3-5.4-5.61a8.9,8.9,0,0,0-.7-1.82c-.27-.41-1.16-.8-1.13-1.72,4.85-2.2,14.48-7.16,21.35-14.36h0l9.58-5.73L61,163.22c.88.28,1.76.52,2.64.73l-6.51,26a14.57,14.57,0,0,0,2.51,3.47L59,198.72h0a133.05,133.05,0,0,0-3.61,17.1c-2.67,17-3.47,17.29-3.47,17.29a4,4,0,0,0,.37,1.17l-1.07,3.54L49.6,243.3l-.11.36a.55.55,0,0,0-.67.37l-1,2.92a.6.6,0,0,0,.2.64l.2.16L46,255.17a.25.25,0,0,0-.31-.33c-4.91,1.31-2.85,7.24-2.85,7.24a3.74,3.74,0,0,1-.57,2.09,2.73,2.73,0,0,0-1.5.88c0,.15.17.18.59.19-.23.24-.46.49-.67.75l-.07.05A2.82,2.82,0,0,0,39,267c0,.09,0,.13.14.16l-.21.13L33.65,270a6.38,6.38,0,0,0-3.27,4,7.39,7.39,0,0,0-.15,1c-1.15,2.38-1.79,6.53,6.36,8.2,11.73,2.4,16.71-2.85,17.06-4.44a4,4,0,0,1,1.85-2.39c2.84-.09,3.75-1.11,3.75-1.11l0-1.55a3.34,3.34,0,0,0,.72-.81L59.56,263s.14,4.27.16,4.26-.08-4.33,0-4.36-.16,3.71,0,3.56l.51-4h0l-.58.51c.62-.56,2-2.15,2.1-3a2.17,2.17,0,0,0-1.88-2.39,4.13,4.13,0,0,1-.24.48c.75-1.85,1.63-4.22,2.54-6.73h0a.6.6,0,0,0,.54-.38c.34-.9.7-1.81,1.05-2.73a.58.58,0,0,0-.28-.72l0-.14c.6-1.72,1.2-3.43,1.74-5l.84-2.48c11.57,1,12.64-3.75,12.64-3.75L81,223.78c.2,0,.39.07.59.09-.1,2.74-1.26,12-1.26,12a2,2,0,0,0,.71,1.33L81,239.71l-.08,2.22-.13,3.62a.54.54,0,0,0-.45.47L80,248.91a.53.53,0,0,0,.3.55l.38.18-.17,4.65v0s-5-.62-4.2,3.57l.92,4c.09.24-.89-3.66-.78-3.43a1.33,1.33,0,0,0,0,.19,5.68,5.68,0,0,1,.54,4.35,8.06,8.06,0,0,0-.34,2.06h0c-.11.31-.22.63-.31.95a7.5,7.5,0,0,0,.55,4.89,132.39,132.39,0,0,0,13.07,4c5,1.07,20.71,2.31,23.81-1.87a4.82,4.82,0,0,0,.07-3.6h0c0-1.45-1-4.93-9.62-7.08l-.11,0a.15.15,0,0,0,0-.17,1.78,1.78,0,0,0-1.44-.16l-.19,0-.52-.11-.52-.1-.55-.09a.25.25,0,0,0,0-.34c-.21-.24-.83-.5-1.79-.05l-.32-.08h0a4.78,4.78,0,0,1-1.36-.57,1.13,1.13,0,0,1-.19-.19.91.91,0,0,1-.06-.59c0-.17.07-.36.11-.57h0c.26-1.23.59-3-2.37-4-.35-.11.61,2-.55,4,.23-2.49.53-5.8.83-9.15l.3-.12a.53.53,0,0,0,.2-.13,4.46,4.46,0,0,0,.88-3.37.54.54,0,0,0-.84-.4l-.19.13.06-.61c.09-1,.17-2,.24-2.87s.15-1.63.21-2.36c7.82-.9,11.45-5.67,11.45-5.67s2.8-30,3.2-32.4a5.87,5.87,0,0,0-1.07-3.88v-4.76a23,23,0,0,0,4.14-5.09l-4.27-23.94L109,153.35l.07.12L128,152.09a26.32,26.32,0,0,0,2.29-8.08c8.52-3.62,16.06-9,19.71-19.15A65.17,65.17,0,0,0,157.41,114l.18-.27a6,6,0,0,0,1.49-2,2.92,2.92,0,0,0,.06-1.26c0-.08-.18-.48-.18-.48l.16.37a1.55,1.55,0,0,0-.49-.79,2,2,0,0,0-1.79-1,1.58,1.58,0,0,0-.55-1.25c-.74-1.66-4.23-1.46-5.09-1.39a3.15,3.15,0,0,0-.58-.87c-1.47-2.5-5.5-2-6.43-1.8a6.78,6.78,0,0,0-1.2-2.56c-.68-1.21-1.7-1.42-4.87-.48a6.41,6.41,0,0,0-1.71.76l-.28-.28a4,4,0,0,0,.12-4.67l-.2-.3h0l0-.06.17-.09.42-.23q.75-.41,1.5-.78l.54-.27,1-.47.64-.3.94-.41.61-.25c.38-.16.75-.31,1.13-.45l.26-.11.63-.23.94-.34.7-.24.8-.26.75-.23.75-.22c.48-.14.95-.27,1.43-.39l.61-.16.86-.21.56-.13.89-.19.52-.11,1.57-.29h0L155.8,89l.25,0,1-.13.2,0,1.51-.16h0l1.51-.12h0c1.5-.1,2.94-.14,4.31-.14h0c.45,0,.89,0,1.33,0h0l1.24,0h.06l1.14.07h.11l1,.09h.05c1,.1,1.95.22,2.81.35h0l.78.13h.09l.7.13.1,0h0l.61.13.23,0,.12,0c.45.27.77.36,1,.24C177.2,89,173.33,81.44,167,71.62ZM129.77,96.16l-7.24-10.54h0l7.24,10.54ZM98.23,127.74c.42-.14.84-.28,1.24-.43l.14-.06a4.56,4.56,0,0,0-1.1.8A4.12,4.12,0,0,0,98.23,127.74Zm-57-22.63q.1,0,.12-.24c.46.95.92,1.95,1.39,3ZM80.4,256l0,1.1c0,.26,0,.5,0,.75A3.41,3.41,0,0,1,80.4,256Zm22-129.17a4.5,4.5,0,0,0-2,.12c8.09-3.47,15.71-11.84,18.81-21.68a10.7,10.7,0,0,0,2-.41l.51-.17h0l.43-.18.52.77a4,4,0,0,0,4.59,1.5c1.1,1,2.35,2.18,3.66,3.36-.77.9-1.09,2.31-.38,4.79a14.6,14.6,0,0,0,6.61,8.44c-2.86,2.08-6.47,4.75-10,7.32C124.35,130.21,111.54,128.19,102.42,126.8Z"/>
    <g>
      <path class="cls-5" d="M72.38,125.27s.41,2.23,1.07,5.06c1,4.23,2.48,9.81,3.9,11.33,2.37,2.53,16.93,2.21,19.49-2.79,1.43-2.79,1.27-6.4.85-9.05a24.87,24.87,0,0,0-.85-3.62,18.45,18.45,0,0,0-2.28-4c-4.25-5.54-9.9-4.67-14.44-2.47A31.53,31.53,0,0,0,72.38,125.27Z"/>
      <path class="cls-6" d="M72.38,125.27s.41,2.23,1.07,5.06c11.57,5.81,20,2.27,24.24-.51a24.87,24.87,0,0,0-.85-3.62,18.45,18.45,0,0,0-2.28-4,37,37,0,0,0-4.18-1.17c-2.06-.39-6.31-.88-10.26-1.3A31.53,31.53,0,0,0,72.38,125.27Z"/>
      <g>
        <path class="cls-7" d="M111.9,150.23c14.64-4.75,32.74-8.12,38.63-26.4l-7.5-4.32c-1.2.17-23.13,17.36-28.6,19.68"/>
        <g>
          <g>
            <g>
              <path class="cls-5" d="M47.59,155.86s-8.89-1.47-25,18.11l-6.73,8.15,5.81,5.93s21.4-8.17,29.28-22.13S47.59,155.86,47.59,155.86Z"/>
              <polyline class="cls-5" points="36.98 160.03 48.37 152.66 53.22 149.51 64.49 161.23 55.61 166.67 46.03 172.4"/>
            </g>
            <g>
              <path class="cls-5" d="M16,182.11h0c.38-.6.38-.6-.22.11A18,18,0,0,0,13.94,185,14.9,14.9,0,0,1,11,188.11C9.18,189.69,8.5,192,7.39,194c-.45.85-3.47,3.62-1.74,4.66,1.11.67,2.33-.16,3.1-1.11-.08.52-.15,1-.28,1.56a12.37,12.37,0,0,0-.5,2.31c-.06,1,.83,1.34,1.62.91a4.12,4.12,0,0,0,.95-.75c-.38.81-1.54,3.53,0,3.65,2,.16,3.48-2.54,4.21-4,.62-1.26,1.1-2.57,1.72-3.82.38-.74,1-1.4,1.3-2.16a15.51,15.51,0,0,1-.18,3.82c-.19,1-.46,2-.75,3-.35,1.22-1.27,3.64-.21,4.72.51.51,1.35.13,1.85-.15,1.25-.72,1.93-2.38,2.43-3.64,1.07-2.71,1.43-6.16,3.27-8.53.68.6,1.15,1.61,1.75,2.25a6.69,6.69,0,0,0,2.73,1.8,2.45,2.45,0,0,0,3.21-2.65c-.6-2.75-4.42-3-5.4-5.61a9.52,9.52,0,0,0-.7-1.82c-.33-.5-1.61-1-.93-2.45"/>
              <path class="cls-8" d="M12.13,197.3a17.54,17.54,0,0,1-1.7,3.62,4.66,4.66,0,0,1-.51.72c-.27.48-.65.88-1.06.8.11.2.35.24.77-.09a6.35,6.35,0,0,0,1.62-1.65c.38-1,.86-2.33,1.19-3.35.42-1.36,1-2.74.7-4.16A41,41,0,0,1,12.13,197.3Z"/>
              <path class="cls-9" d="M9,197.35c0-.27.12-.55.2-.83a31.52,31.52,0,0,1,2.93-5.94,15.16,15.16,0,0,0-2.41,3.75c-.3.74-.5,1.06-.85,1.77-.07.15-.26.73-.36.91a3.39,3.39,0,0,1-1.67,1.67,1.66,1.66,0,0,1-.64.25,1.08,1.08,0,0,0,1.15-.07A9.28,9.28,0,0,0,9,197.37Z"/>
            </g>
          </g>
          <path class="cls-5" d="M46.19,265.4c4.7,3.35,10.06.83,12.86-5.5.87-2,2.06-5.11,3.3-8.53.14-.39.27-.77.42-1.17.32-.92.66-1.86,1-2.79.6-1.72,1.2-3.43,1.74-5,1.48-4.31,2.57-7.61,2.57-7.61L53,232.75l-1.54,5.07-1.65,5.48L48.72,247l-.12.37-2.38,7.88S41.49,262.06,46.19,265.4Z"/>
          <path class="cls-10" d="M46.61,265.4c4.49,3.35,9.61.83,12.29-5.5.83-2,2-5.11,3.15-8.53l.4-1.17A55.07,55.07,0,0,1,49,247l-.1.37-2.28,7.88S42.12,262.06,46.61,265.4Z"/>
          <path class="cls-5" d="M80.58,257.07c.31,5.49.46,9.23.53,11.69.22-2.65.82-5.76,2.31-6.42C88.7,260,93.84,266,94.5,259.13c.34-3.61.81-9,1.23-13.65.09-1,.18-2,.25-2.87l.61-6.92-15.22-.89-.17,4.91-.08,2.22Z"/>
          <path class="cls-6" d="M81.42,239.71c5,3.36,10.61,3.39,14.31,2.9.34-4,.58-6.92.58-6.92l-14.72-.89Z"/>
          <path class="cls-6" d="M51.83,237.82c3.71,4.56,10.05,4.85,13.55,4.59,1.43-4.31,2.49-7.61,2.49-7.61l-14.56-2.05Z"/>
          <path class="cls-10" d="M81,256.72c.3,5.36.44,9,.51,11.42.21-2.58.66-6.42,2.22-6.27,4.74.47,10,3.61,10.64-3.13.33-3.53.79-8.77,1.2-13.35.3,2.65-3.47,4-3.7,3.72,0,0-7.26-.69-10.2-2.87Z"/>
          <path class="cls-11" d="M47.21,265.4s4.26,1.9,7.73-.55,4.22-.51,4.17.55l.36,9.86s-.91,1-3.75,1.11a4,4,0,0,0-1.85,2.39c-.35,1.59-5.33,6.84-17.06,4.44s-5.25-9.95-5.25-9.95l6.94-3.65s4-7.42,6.53-5.42C46.88,265.61,47.21,265.4,47.21,265.4Z"/>
          <path class="cls-12" d="M82.18,223.11l1.06-22.53L109,191.25v6s2.22,2.53,1.82,4.93-3.2,32.4-3.2,32.4-5.07,6.66-16.13,5.73-10.93-4.4-10.93-4.4,1.6-12.8,1.2-12.8"/>
          <path class="cls-12" d="M87.38,221.91c-.67.14-2.14,2.67-6.14,1.87L79,236.18s-1.47,6.53-19.73,2.66c0,0-6.53-1.86-7.07-5.73,0,0,.8-.31,3.47-17.29s5.21-21.49,5.21-21.49l26.52,5.45"/>
          <path class="cls-13" d="M109.77,191.25v7.47s-6.8,9.33-24.13,8.53-26.39-8.53-26.39-8.53l.89-7.47Z"/>
          <path class="cls-14" d="M76.11,134.87h25.84a0,0,0,0,1,0,0v21.58a0,0,0,0,1,0,0H66.35a0,0,0,0,1,0,0V144.63A9.76,9.76,0,0,1,76.11,134.87Z"/>
          <path class="cls-15" d="M102.64,126.8c10.31,1.58,25.35,4,25.35,4s5.77,9.21.18,21.34l-18.88,1.38-11.36-19.8A4.62,4.62,0,0,1,102.64,126.8Z"/>
          <path class="cls-15" d="M69.31,134.26s-23,13.47-26.51,19.07c0,0,11.58,8.92,22.69,11"/>
          <path class="cls-15" d="M108.6,136.29l1,28.22,4.26,23.94S107,201.38,88.31,202.18c0,0-24.54.27-30.93-12.26l9.44-37.64"/>
          <path class="cls-16" d="M77.91,174.1c.14.39.27.78.41,1.15h0C82.64,187.11,89.73,193,89.73,193a65,65,0,0,0,5.58-7.54,35.62,35.62,0,0,0,1.87-3.37,14.66,14.66,0,0,0,1.53-4.29c-.08-1.47-.18-2.89-.31-4.26s-.25-2.51-.4-3.69a89.62,89.62,0,0,0-1.62-9c-.31-1.33-.63-2.57-1-3.71-2.14-7.38-4.45-11-4.35-11.49.26-1.51-6.31-1-6.31-1a49.67,49.67,0,0,1-1,7.6c-.17.86-.35,1.72-.54,2.6-.55,2.52-1.19,5.09-1.84,7.5l-.68,2.46c-.82,2.92-1.6,5.45-2.13,7.13C78.18,173.3,77.91,174.1,77.91,174.1Z"/>
          <path class="cls-17" d="M47.81,167a19.17,19.17,0,0,0-8.83-1.3"/>
          <g>
            <path class="cls-11" d="M94.93,259.14c-.43-.15.31,3.39-1.56,5s-11.19-.36-13.68-4.63v-2.39s-3.68-.72-1.19,4.35a21.57,21.57,0,0,0-1.94,4.44,7.43,7.43,0,0,0,.55,4.89,132.39,132.39,0,0,0,13.07,4c5,1.07,20.71,2.31,23.81-1.87,0,0,3.49-7-10.64-9.59,0,0-5.44.71-6-.09S99.13,260.55,94.93,259.14Z"/>
            <path class="cls-18" d="M76.67,258.53a5.71,5.71,0,0,1,.53,4.35,8,8,0,0,0-.33,2.06h0a9.76,9.76,0,0,0,0,1.56,2.06,2.06,0,0,0,1.36,1.76,118.45,118.45,0,0,0,11.9,3.58c5,1.08,20.72,2.32,23.82-1.86a2.23,2.23,0,0,0,.07-.67h0c0-1.45-1-4.93-9.62-7.08l-1.11-.27-.65-.13-.52-.11-.52-.1-.71-.12-.54-.09c-.45-.1-1-.21-1.43-.35h0a4.83,4.83,0,0,1-1.35-.57,1.13,1.13,0,0,1-.19-.19.85.85,0,0,1-.06-.59c.17-1.18,1.2-3.39-2.26-4.55-.43-.14,1.17,3.23-1.85,5.33-4.65,3.21-9.53,1-12.28-2.19-.82-.95-.24-1.81-.24-3.06v-1S75.07,253.55,76.67,258.53Z"/>
            <path class="cls-17" d="M76.33,257.63a9.19,9.19,0,0,0,1.12,2.21,6.65,6.65,0,0,0,3.23,2.65"/>
            <path class="cls-17" d="M97.42,259.14a7.86,7.86,0,0,1-3.16,4.44"/>
          </g>
          <path class="cls-18" d="M47.87,263s4.27,1.91,7.73-.54a12.69,12.69,0,0,0,4.45-4.86A2.18,2.18,0,0,1,61.93,260a3.27,3.27,0,0,1-1.14,2.13l-1,.88.36,9.87a4.4,4.4,0,0,1-3.82,1.89,1.9,1.9,0,0,0-1.78,1.6c-.36,1.6-5.33,6.84-17.07,4.44-6.7-1.37-7.45-4.42-6.87-6.79a6.35,6.35,0,0,1,3.27-4l5.29-2.78s4.09-2.22,3.91-5.16c0,0-2-5.93,2.86-7.24a.26.26,0,0,1,.3.37c-.78,1.34-2.62,5-.53,6.61C47.54,263.25,47.87,263,47.87,263Z"/>
          <path class="cls-19" d="M41,265.05c-.15.42,1.83-.12,4.33.78s4.9,2.28,5,1.85-2-2.52-4.52-3.42S41.16,264.62,41,265.05Z"/>
          <path class="cls-19" d="M96.75,265.34c.3.34.78-.69,2.44-2.14s2.18-1.65,1.88-2-1.34-.69-3,.77S96.45,265,96.75,265.34Z"/>
          <path class="cls-19" d="M99.33,266.38c.31.35.79-.68,2.45-2.14s2.83-1.86,2.53-2.2-2-.48-3.65,1S99,266,99.33,266.38Z"/>
          <path class="cls-19" d="M39.23,267c-.15.43,1.83-.11,4.33.79s4.9,2.28,5.06,1.85-2-2.52-4.53-3.42S39.39,266.53,39.23,267Z"/>
          <path class="cls-17" d="M60.41,262.49c0-.13-.49.43-.58.51-.76.63-1.43,1.37-2.24,1.94a6.49,6.49,0,0,1-4.12,1.14"/>
          <path class="cls-17" d="M42.89,261.1a2.69,2.69,0,0,0,.78,1.51,5.83,5.83,0,0,0,1.41,1"/>
          <path class="cls-15" d="M48.27,247.59c1.87,1.52,6.16,4,14.13,3.79a.6.6,0,0,0,.54-.38l1-2.73a.57.57,0,0,0-.57-.78,22.16,22.16,0,0,1-13.5-3.76.58.58,0,0,0-.87.3l-1,2.92A.59.59,0,0,0,48.27,247.59Z"/>
          <path class="cls-15" d="M96.71,246.36a.54.54,0,0,0-.84-.4c-1.32.89-4.66,2.33-11.36,1a8.21,8.21,0,0,1-3.11-1.3.53.53,0,0,0-.86.36l-.37,2.89a.53.53,0,0,0,.3.55,18.73,18.73,0,0,0,15.16.4.5.5,0,0,0,.19-.13A4.4,4.4,0,0,0,96.71,246.36Z"/>
          <path class="cls-20" d="M77.43,201.43h0c-.08.21-.3,4.8-.31,5,0,0,0,0,0,0l2.11.48,0,0,.34-5.24A18,18,0,0,0,77.43,201.43Z"/>
          <path class="cls-20" d="M95.84,201.23c-.26,0-1.84.42-1.84.42s0,5.57,0,5.57l2.36-.44Z"/>
          <path class="cls-10" d="M83.25,154.88A46.42,46.42,0,0,1,96,160.82c-.31-1.33-.68-2.71-1-3.85a53,53,0,0,0-11.19-4.69C83.62,153.14,83.44,154,83.25,154.88Z"/>
          <path class="cls-10" d="M81.07,165.05c4.73,1.85,12.55,5.21,17,8.52-.11-1.28-.27-2.75-.42-3.94a67.58,67.58,0,0,0-15.85-7.14C81.52,163.33,81.29,164.25,81.07,165.05Z"/>
          <path class="cls-10" d="M78.3,174.1c.14.39.27.88.41,1.25h0c4.65,2.08,11.87,5.62,16.34,9.89a37.84,37.84,0,0,0,1.83-3.33,96.62,96.62,0,0,0-18-9.84C78.5,173.4,78.3,174.1,78.3,174.1Z"/>
          <path class="cls-21" d="M91.46,209.38a22.52,22.52,0,0,1,0,6A21.67,21.67,0,0,1,90,221.14a54.57,54.57,0,0,1,.46-5.91A52.12,52.12,0,0,1,91.46,209.38Z"/>
          <path class="cls-21" d="M66.44,204.57c-.29.07-.58.13-.88.18l.16-.13a8,8,0,0,1-2.51,4.93,7.58,7.58,0,0,1-5,2.18,14.18,14.18,0,0,0,4.36-2.89,13,13,0,0,0,2.87-4.3l.06-.13h.1C65.86,204.46,66.15,204.51,66.44,204.57Z"/>
          <path class="cls-16" d="M92.58,139.53c-.76-.28-3.38-2.13-8.71-.36s1.33,7.56,1.33,7.56h5.86S98.88,141.84,92.58,139.53Z"/>
          <path class="cls-15" d="M96.84,126.2c.62.44,4.62,4.33,4.89,6.74S100,148.33,100,148.33l-10.66-9.69s5.24-4.18,7.28-8.62Z"/>
          <path class="cls-15" d="M86.53,138.37c.5.18-7.82,10.35-7.82,10.35a31.58,31.58,0,0,1-9.44-14.61l4.38-6.67S76.79,135,86.53,138.37Z"/>
          <g>
            <g>
              <g>
                <path class="cls-22" d="M44.19,64.91S34.2,25,49.29,27.09c6,.84,9.49,6.43,10.71,9.59,2.61,6.76-7.59,10.82-10.27,4.08a16.16,16.16,0,0,1-1-3.84c-1.57-11.61-5.32,1.28-3.52,26Z"/>
                <g>
                  <path class="cls-5" d="M112.9,73.76s.11-8.14,5.15-5,6.92,17.24.74,23.88S112.9,73.76,112.9,73.76Z"/>
                  <path class="cls-6" d="M113.68,76.42s.16-5.61,3.58-3.46,4.56,11.79.26,16.42S113.68,76.42,113.68,76.42Z"/>
                </g>
                <path class="cls-5" d="M104.24,43.77c11.34,24.43,11.29,24.64,16.06,46.39,3.51,16-8.18,32.46-20.61,37.15-18.26,6.89-47.24,2.7-55.68-17C37.72,95.6,32,89.08,28.87,83.87,18.88,67.41,26.54,27,49.66,19.36,71.3,12.18,91.75,16.87,104.24,43.77Z"/>
                <g>
                  <g>
                    <path class="cls-23" d="M65.64,78.13c-4,1.74-5.41,7.44-3.14,12.73s6.65,7.2,10.66,5.46S79.27,89.83,77,84.54,69.65,76.38,65.64,78.13Z"/>
                    <path class="cls-24" d="M65.66,78.17A6.42,6.42,0,0,0,63,80.37a8.39,8.39,0,0,0-1.29,3.21,12.23,12.23,0,0,0,.83,6.79,10.69,10.69,0,0,0,4.19,5.25,6.69,6.69,0,0,0,6.39.26,7.45,7.45,0,0,0,4-5,10.15,10.15,0,0,0-.77-6.51,12.76,12.76,0,0,0-1.74-2.9,10.93,10.93,0,0,0-2.45-2.35,8,8,0,0,0-3.14-1.33A6.31,6.31,0,0,0,65.66,78.17Zm0-.09a7.59,7.59,0,0,1,6.86.62A12.06,12.06,0,0,1,77.29,84a10.39,10.39,0,0,1,.84,7.17,8.31,8.31,0,0,1-4.66,5.45,7.38,7.38,0,0,1-7.06-.43,11.17,11.17,0,0,1-4.3-5.63,12.59,12.59,0,0,1-.58-7A7.59,7.59,0,0,1,65.62,78.08Z"/>
                  </g>
                  <path class="cls-25" d="M61.41,85.64c0-3,1.19-6.1,3.3-7.25,3.66-2,8.8.08,11.39,5,1.27,2.38,2.71,4.74,1.41,9.44,2.22-4,.54-8.52-1.77-11.79s-6.35-5.7-10.14-4.09C62.31,78.32,60.85,82.68,61.41,85.64Z"/>
                  <path class="cls-26" d="M71.74,86a1.3,1.3,0,0,0,1.41-1.28,1.47,1.47,0,0,0-1.25-1.56,1.3,1.3,0,0,0-1.42,1.28A1.48,1.48,0,0,0,71.74,86Z"/>
                </g>
                <g>
                  <path class="cls-27" d="M79.14,111.35c1.34,1,12.89,7,20.16,1.45,4.19-3.21,7-12.13,6.07-13.64a.41.41,0,0,0-.54-.19,78.66,78.66,0,0,1-11.72,3.47c-5.08,1.14-13.68,1.1-16.61,3C74.77,106.53,75,108.29,79.14,111.35Z"/>
                  <path class="cls-25" d="M76.5,105.42c3.24-.06,8.32-.29,14.82-1.06,10.29-1.22,13.34-4.33,14.05-5.2a.41.41,0,0,0-.54-.19,78.66,78.66,0,0,1-11.72,3.47C88,103.58,79.43,103.54,76.5,105.42Z"/>
                </g>
                <path class="cls-28" d="M94.81,113.88a9.58,9.58,0,0,1-5.29-.26,6.21,6.21,0,0,1,3.3-3.29c2.28-1,5.69-1.5,7.38,0A10.62,10.62,0,0,1,94.81,113.88Z"/>
                <path class="cls-23" d="M78.17,105.39a84,84,0,0,0,15-1.87c7.13-1.69,8.8-1.92,11.06-3.29,0,3.22-4.51,6.46-10.56,7.79C85.39,109.85,82,108,78.17,105.39Z"/>
                <g>
                  <path class="cls-29" d="M98.71,68.66c-4,1.75-5.41,7.45-3.14,12.74s6.11,7.33,10.11,5.58a8.85,8.85,0,0,0,4.38-11.9C107.8,69.79,102.71,66.92,98.71,68.66Z"/>
                  <path class="cls-25" d="M94.48,76.18c0-3,1.18-6.11,3.3-7.25,3.66-2,8.79.07,11.38,5,1.27,2.39,2.72,4.75,1.42,9.45,2.22-4,.54-8.53-1.78-11.8s-6.34-5.7-10.14-4.08C95.37,68.86,93.91,73.21,94.48,76.18Z"/>
                </g>
                <g>
                  <path class="cls-5" d="M38.6,100c-14.46-4.78-10.22,8-5.39,14.48,5.15,6.94,11.69,6.77,14.51,2.14"/>
                  <path class="cls-6" d="M34.88,112c2.93,3.47,7.19,5,7.78,3.45,2.36-6.32-2.14-2.94-4.47-6.49-2.72-4.16-.55-7.24-5-6.19C30.71,103.34,31.44,107.89,34.88,112Z"/>
                </g>
                <path class="cls-6" d="M87.41,44.31a26.64,26.64,0,0,1-10.12,9c-8,3.7-14.1,3.62-22.72,1.39C60,52.32,67.07,47.45,68.84,44c-5.08-1.85-9.81-.53-15.23.13-.4.05-.39.73-.51,1.17C51,53.47,42,52.86,40.47,53.67c7.45,1.29,14.58,25.19-7.87,35-2,.85-3.91-3.62-5.24-5.35a17.41,17.41,0,0,1-3.56-9.22,25,25,0,0,0-.43-4.41c-.4-1.49-1.28-2.82-1.63-4.32-.61-2.65.48-5.36,1.62-7.79a73.25,73.25,0,0,1,11-17.44A40,40,0,0,1,51,28.5c4.73-1.63,9.76-2.15,14.75-2.56,6.81-.57,13.79-1,20.41.92A63.14,63.14,0,0,1,94.25,30a17.16,17.16,0,0,1,4.7,2.7,15.66,15.66,0,0,1,2.51,3.15c6.38,9.69,12.26,23.66,14.19,35.12-4.22-6.9-9.77-19.65-14-26.55-.85-1.39-10.31-6.77-11.31-5.95C89.84,38.88,88.14,43.28,87.41,44.31Z"/>
                <path class="cls-30" d="M86.36,35.24s3.86,18.44-30.72,19.13c0,0,30.7-18.8-5.34-11.66,0,0,4,5.25-14.58,10.72,0,0,20.26,7.43.83,31.71,0,0-2.37,2.08.74,10.42.28.75,1.11,2.29,2.29,4.58,6.23,12-4.35-1.34-4.35-1.34s-11.92,1.11-15.57-13c0,0-13-7.33-8.33-21.91,0,0-10.92-15.26,9.15-24.71,0,0,.75-18.54,13.7-21.29,0,0,14.83-17.94,32.78-7,0,0,13.24-8.4,26.83,5.1,0,0,14.83,3,14.4,14.92,0,0,12.12,3,4.58,14.21,0,0,10.13,4.7,1.61,14.28l1.43,11.9-12-27.6S102.67,39.37,86.36,35.24Z"/>
                <path class="cls-31" d="M92.16,55.09h0c.47-1.39,4.32-1.64,5.74-1.25,2.16.58,4.63,1.49,6.64,6.15.17.41.24.74-.1.45-2-1.7-6.33-4.18-10.38-3.78A1.7,1.7,0,0,1,92.16,55.09Z"/>
                <path class="cls-31" d="M68.07,60.48h0c-.89-1.16-4.6-.09-5.82.76-1.85,1.28-3.88,3-4.24,8.05,0,.44,0,.78.23.39,1.35-2.29,4.6-6.09,8.55-7.08A1.72,1.72,0,0,0,68.07,60.48Z"/>
                <path class="cls-32" d="M97.6,90.16a4.94,4.94,0,0,1,.49,4.09,4.66,4.66,0,0,1-1.23,1.94,5.78,5.78,0,0,1-1.93,1.18,7.07,7.07,0,0,1-4.27.25,4,4,0,0,1-3-2.84,5.1,5.1,0,0,0,3.24,1.31,9,9,0,0,0,3.29-.6,4.54,4.54,0,0,0,2.44-1.87A8,8,0,0,0,97.6,90.16Z"/>
              </g>
              <g>
                <circle class="cls-33" cx="68.61" cy="87.59" r="4.7"/>
                <circle class="cls-26" cx="70.48" cy="84.09" r="1.09"/>
              </g>
              <g>
                <circle class="cls-33" cx="100.84" cy="78.08" r="4.7"/>
                <circle class="cls-26" cx="102.71" cy="74.57" r="1.09"/>
              </g>
            </g>
            <path class="cls-34" d="M100.6,116.44a6,6,0,0,1-3.37,2,6.08,6.08,0,0,1-3.88-.41,10.2,10.2,0,0,0,3.78-.08A10,10,0,0,0,100.6,116.44Z"/>
          </g>
        </g>
        <g>
          <path class="cls-7" d="M135,112.14s-4-9.82,3.29-12c4.79-1.42,4.68-.24,5.88,3.08,0,0,5.95-1.3,7,2.65,0,0,6.14-.74,5.35,2.62,0,0,3-.29,2.31,2.65s-7.83,13.58-9.86,14.69-8.36.72-12.94-3.86-1.05-9.86-1.05-9.86"/>
          <g>
            <rect class="cls-35" x="138.14" y="101.46" width="4.17" height="7.35" rx="0.88" transform="translate(-32.77 133.17) rotate(-46.07)"/>
            <path class="cls-36" d="M140.36,103.45l-.26-.39.64-.34,2.95,2.85a.87.87,0,0,1,0,1.24l-.45.47h0L142,108.55a.88.88,0,0,1-1.25,0l-.31-.3A4.42,4.42,0,0,0,140.36,103.45Z"/>
            <path class="cls-37" d="M123.34,102.71s17.14,17,21.39,17c0,0,4.38.28,7.51-4.44,0,0-17.18-14.88-19.66-18.79Z"/>
            <path class="cls-38" d="M150.19,117.22C147.64,115,133.66,102.77,129.82,98l2.59-1.74c2.48,3.92,19.66,18.79,19.66,18.79A11,11,0,0,1,150.19,117.22Z"/>
            <path class="cls-35" d="M134.48,93.08l2,2.9a4,4,0,0,1-1,5.52l-6.95,4.78a4,4,0,0,1-5.53-1l-2-2.9Z"/>
            <path class="cls-36" d="M126.12,104.19l8.22-5.65a4.67,4.67,0,0,0,1.93-2.86l.2.3a4,4,0,0,1-1,5.52l-6.95,4.78a4,4,0,0,1-5.53-1l-.2-.29A4.69,4.69,0,0,0,126.12,104.19Z"/>
            <path class="cls-39" d="M111.89,86,124,103.69A10.71,10.71,0,0,1,111.89,86Z"/>
            <rect class="cls-40" x="117.14" y="81.55" width="9.19" height="21.42" transform="matrix(0.82, -0.57, 0.57, 0.82, -30.84, 85.12)"/>
            <path class="cls-37" d="M143.69,42.19c.81,3.39,6.65,13.55,14.53,25s15.25,20.56,18.13,22.54c-6.76-1.88-26.61-3.72-44.76,8.74L119.46,80.83C137.62,68.36,143,49.17,143.69,42.19Z"/>
            <path class="cls-36" d="M157.63,67.61c9,13.13,17.4,23,18.72,22.14s-4.92-12.29-13.93-25.43-17.41-23-18.73-22.13C143.41,42.38,148.61,54.48,157.63,67.61Z"/>
            <path class="cls-40" d="M108.56,99.05h0c-.1-.24-.2-.48-.29-.73l-.06-.16c-.08-.24-.15-.47-.21-.71l-.06-.2c-.06-.23-.11-.47-.15-.7a1.7,1.7,0,0,0,0-.22c0-.23-.06-.46-.08-.7,0-.07,0-.14,0-.22,0-.23,0-.47,0-.71v-.17a11.76,11.76,0,0,1,.28-2.3c0-.07,0-.15,0-.22l.15-.52c0-.13.08-.27.13-.4s.12-.3.18-.45.11-.3.18-.44.13-.28.2-.42l.24-.45.23-.38.3-.45c.08-.11.16-.23.25-.34a5.32,5.32,0,0,1,.37-.46l.25-.3c.15-.16.31-.31.47-.47s.15-.15.23-.23c.25-.22.5-.44.77-.65l3.3,4.8L113,92.36v0A12.06,12.06,0,0,0,108.56,99.05Z"/>
            <path class="cls-41" d="M122.75,85.62l-1.34.95-6.22,4.27L111.88,86l7.58-5.2h0Z"/>
            <path class="cls-38" d="M119.46,80.83h0c.52-.36,1-.72,1.51-1.08l.45-.34,1-.79.46-.37,1.1-.9.29-.24c.44-.38.88-.77,1.3-1.16l.34-.31.93-.89.41-.4c.29-.29.58-.58.86-.88l.34-.35c.38-.4.75-.8,1.12-1.21l.18-.21.89-1,.35-.42.7-.86.34-.42.79-1,.17-.22.88-1.23.3-.43.56-.84.32-.48c.18-.28.35-.56.53-.83l.27-.44c.24-.39.47-.79.7-1.18l.27-.47.43-.76.3-.56.35-.67.3-.57.35-.7.47-1,.27-.57c.1-.22.2-.45.29-.67l.21-.47c.1-.23.2-.46.29-.69s.11-.25.16-.37c.34-.85.66-1.68.95-2.48,0-.07.05-.14.07-.2.1-.27.19-.54.28-.81a.93.93,0,0,0,0-.13,42.52,42.52,0,0,0,2.08-9h0a38,38,0,0,0,3.53,7.57c-.08.31-.16.61-.25.93a65.53,65.53,0,0,1-24.22,34.93Z"/>
            <path class="cls-42" d="M165.73,63.11h0a.86.86,0,0,0-.07-.1Z"/>
            <path class="cls-43" d="M154,61.08A9,9,0,0,1,164.2,75.92Z"/>
            <path class="cls-44" d="M122.92,104.27a5.65,5.65,0,0,1-.67.29l-.26.1c-.23.09-.47.16-.71.23l-.2.06a10.06,10.06,0,0,1-1.86.32l-.26,0-.67,0H118l-.65,0-.28,0a8.49,8.49,0,0,1-.88-.14l-.24,0-.64-.17a2.65,2.65,0,0,1-.37-.12l-.48-.17-.39-.16a3.82,3.82,0,0,1-.46-.21l-.37-.18c-.24-.13-.47-.26-.69-.4l-.36-.25-.34-.24a13.57,13.57,0,0,0,5-1.87l3.74-2.57,3.42,5c-.28.17-.57.33-.86.48Z"/>
            <path class="cls-45" d="M126.31,94.78h0c.62-.43,1.25-.84,1.88-1.24l3.39,4.94h0l-7.57,5.2-3.42-5Z"/>
            <path class="cls-46" d="M169.3,82.21c3.12,3.86,5.63,6.56,7,7.54h0a52.28,52.28,0,0,0-18.89-.91h-.13l-1.09.14-.16,0c-1.07.15-2.16.34-3.27.56l-.42.08-.92.2-.53.13c-.3.06-.59.13-.89.21l-.59.15-1.45.4-.73.22-.76.23-.77.25-.74.25-.91.33-.65.24-1.38.55-.62.26-.94.41-.64.3-1,.47-.54.27q-.75.38-1.5.78l-.42.23-1.15.64-.55.33-1.07.65-.5.32c-.51.32-1,.65-1.52,1h0l-3.39-4.94A73.17,73.17,0,0,1,169.3,82.21Z"/>
            <path class="cls-40" d="M143.69,42.19c.81,3.39,6.65,13.55,14.53,25s15.25,20.56,18.13,22.54a38.65,38.65,0,0,0-6.49-1.11,111.41,111.41,0,0,1-15.65-18,111.34,111.34,0,0,1-11.81-22A37.93,37.93,0,0,0,143.69,42.19Z"/>
            <path class="cls-47" d="M142.4,48.64a37.93,37.93,0,0,0,1.29-6.45h0a38,38,0,0,0,3.53,7.57c-.08.31-.16.61-.25.93-.42,1.49-.93,3.09-1.56,4.78C144.34,53.23,143.32,51,142.4,48.64Z"/>
            <path class="cls-39" d="M176.35,89.75a38.69,38.69,0,0,0-6.48-1.11q-3.28-3-6.3-6.34c2-.11,3.93-.13,5.73-.09,3.12,3.86,5.63,6.56,7,7.54Z"/>
            <path class="cls-48" d="M161.3,66.57c1.32,1.92,3.27,2.86,4.36,2.11s.91-2.9-.41-4.82S162,61,160.9,61.75,160,64.66,161.3,66.57Z"/>
          </g>
          <path class="cls-7" d="M154.27,117.9c1.63-2.56,4.75-5,5-6.17.7-2.94-2.31-2.66-2.31-2.66.79-3.35-5.35-2.61-5.35-2.61-1.07-3.95-7-2.66-7-2.66-1.2-3.31-1.09-4.49-5.87-3.08-5,1.48-4.7,6.53-4,9.58"/>
          <path class="cls-7" d="M138.19,123.74a14.58,14.58,0,0,1-7.36-8.84c-1.73-6,2.63-5.78,4.66-7s5.36-3.64,4.32,1-3.78,2.52.82,6.52,2.05,2.63,3.15,4.28"/>
          <path class="cls-7" d="M144.21,103.25c.43,1.21-2.8,7-2.8,7"/>
          <path class="cls-3" d="M151.23,105.9s-1.74,5.33-4.62,6.24-7.05,0-5.2-1.91"/>
          <path class="cls-3" d="M156.37,108.19s-1.73,5.33-4.62,6.24-7.05,0-5.2-1.91"/>
          <path class="cls-3" d="M159.41,110.33s-1.74,5.33-4.62,6.24-7,0-5.2-1.91"/>
        </g>
      </g>
    </g>
  </g>
</svg>
