<svg id="Layer_1" data-name="Layer 1" xmlns="http://www.w3.org/2000/svg" viewBox="0 0 252.77 185.91"><defs><style>.cls-1,.cls-5{opacity:0.5;}.cls-2,.cls-7{fill:#fff;}.cls-3{fill:#dc093b;}.cls-4{fill:#83142a;}.cls-6{opacity:0.7;}.cls-7{opacity:0.3;}.cls-8{fill:#ffd9bc;}.cls-9{fill:#e3a07c;}.cls-10{fill:#ffbf9d;}.cls-11{fill:#875959;}</style></defs><path class="cls-1" d="M247,110c0-.16,0-.31,0-.47-.12-1.09-.3-2.22-.54-3.35-1.7-16.74-14.07-31.62-33.2-39.9a92.85,92.85,0,0,0-36.45-7.91A71.93,71.93,0,0,0,153.72,62a7.93,7.93,0,0,0-8-9.43,9.24,9.24,0,0,0-1.05.06c-6.24.76-9.92,3.56-12,6a74.25,74.25,0,0,0-9.08-9.09,16.72,16.72,0,0,1-1-9c.49-2,1.43-4.32,2.6-4.5a7.23,7.23,0,0,0,2.61.5,7.76,7.76,0,0,0,6.29-3.53c2.17-3.08,1.4-7.43-1.15-10.21C128.48,18,123.77,17,120.59,17H120a14.24,14.24,0,0,0-2.19-4.67,8,8,0,0,0-6.38-3.18,8.71,8.71,0,0,0-1.13.08,16.56,16.56,0,0,0-7.51,3.14,17.07,17.07,0,0,0-9.94-3.07,19.73,19.73,0,0,0-4.76.57,8,8,0,0,0-.58,15.29,4.35,4.35,0,0,1-1.2,3.57,17.08,17.08,0,0,1-5.57,4.42c-.81,0-1.62,0-2.42,0-28.5,0-54,16.54-63.57,41.16-6.33,16.38-5.24,34.58,3.06,51.27a72.8,72.8,0,0,0,38.42,35.15,70.59,70.59,0,0,0,25.57,4.73,71.31,71.31,0,0,0,42.09-13.52,59.86,59.86,0,0,0,9.94,12.45l.69.64.26.24c.39.36.79.73,1.16,1.05a57.69,57.69,0,0,0,25.17,12.75,91.68,91.68,0,0,0,21.37,2.69h0c14.48,0,27.24-4,37.91-11.82l.31-.23,1.07-.81.65-.52.71-.58L224,167l.42-.37,1.11-1,.22-.21,1.25-1.2.05-.05A63.22,63.22,0,0,0,235.41,154l.07-.11c.3-.47.6-.94.89-1.41l.16-.26c.26-.42.52-.86.76-1.27l.25-.43.63-1.14.32-.6.51-1,.39-.78c.13-.27.27-.54.4-.82s.29-.62.44-.94l.3-.66c.17-.37.33-.73.48-1.09l.24-.55.5-1.23.17-.43c.17-.43.34-.87.5-1.31l.14-.37.49-1.41.1-.3c.16-.47.31-.94.46-1.4l.11-.36c.14-.46.28-.92.41-1.37l.11-.4c.13-.45.25-.89.37-1.34l.12-.49.3-1.21.15-.64c.08-.36.16-.72.23-1.07l.18-.86.17-.84c.07-.37.13-.74.2-1.1l.1-.61c.08-.47.15-.94.23-1.5l0-.21A75.91,75.91,0,0,0,247,110Zm-8.6,13.34a2.51,2.51,0,0,0,0,.27c-.07.42-.13.84-.2,1.26l-.09.55-.18,1-.15.77c-.06.26-.11.51-.16.76l-.21.95c0,.2-.09.39-.13.58l-.27,1.1-.12.43c-.1.4-.21.79-.32,1.19,0,.12-.07.23-.1.35-.12.41-.24.83-.37,1.24l-.09.3c-.13.42-.27.84-.41,1.26,0,.1-.07.2-.1.29-.14.42-.29.83-.43,1.23l-.12.33q-.22.6-.45,1.17l-.15.4-.45,1.08-.2.48c-.14.33-.28.65-.43,1l-.27.6-.39.83-.36.72-.34.69-.45.86-.29.52c-.18.34-.37.68-.56,1l-.21.36c-.22.39-.44.76-.67,1.14l-.14.22c-.25.42-.52.84-.79,1.25l-.06.09a54.2,54.2,0,0,1-7.25,8.92l0,0-1.09,1.05-.18.17-1,.87-.37.32-.79.67-.62.51-.56.44-.93.71-.27.19c-12.48,9.18-30,13.27-52.67,7.81a49.81,49.81,0,0,1-21.79-11c-.39-.34-.76-.68-1.14-1-.22-.21-.45-.41-.67-.63a53.71,53.71,0,0,1-12.9-19.55C110,156.19,82.62,162.34,59.1,153.25,28.78,141.52,10.66,107,22.19,77.18c9.22-23.85,34.62-37.45,59.94-35.94a24.27,24.27,0,0,0,10.26-7.31c6.34-7.48,1.81-16.76-2.27-16.31,0,0,11.1-2.94,11.33,9.51,0,0,3.62-9,10-10,0,0,2.09,2.76,1.1,9.21l1,1.9c2.75-2.53,8.13-5.88,13.53,0,0,0-9.06-2.49-12.23,10.41-.93,3.76-.62,9.69,2.21,15.86A65,65,0,0,1,129.29,67.3,19.75,19.75,0,0,1,137,70.53s-1.44-8.68,8.69-9.92c0,0-6.31,7.63,3.42,12h0l0,0,.09,0c18.28-9,40.5-7.71,60.83,1.09,17.71,7.66,27.32,20.7,28.46,33.8a25.58,25.58,0,0,1,.51,3A67.28,67.28,0,0,1,238.41,123.35Z"/><path class="cls-2" d="M242,105c0-.16,0-.31,0-.47-.12-1.09-.3-2.22-.54-3.35-1.7-16.74-14.07-31.62-33.2-39.9a92.85,92.85,0,0,0-36.45-7.91A71.93,71.93,0,0,0,148.72,57a7.93,7.93,0,0,0-8-9.43,9.24,9.24,0,0,0-1.05.06c-6.24.76-9.92,3.56-12,6a74.25,74.25,0,0,0-9.08-9.09,16.72,16.72,0,0,1-1-9c.49-2,1.43-4.32,2.6-4.5a7.23,7.23,0,0,0,2.61.5,7.76,7.76,0,0,0,6.29-3.53c2.17-3.08,1.4-7.43-1.15-10.21C123.48,13,118.77,12,115.59,12H115a14.24,14.24,0,0,0-2.19-4.67,8,8,0,0,0-6.38-3.18,8.71,8.71,0,0,0-1.13.08,16.56,16.56,0,0,0-7.51,3.14,17.07,17.07,0,0,0-9.94-3.07,19.73,19.73,0,0,0-4.76.57,8,8,0,0,0-.58,15.29,4.35,4.35,0,0,1-1.2,3.57,17.08,17.08,0,0,1-5.57,4.42c-.81,0-1.62,0-2.42,0-28.5,0-54,16.54-63.57,41.16-6.33,16.38-5.24,34.58,3.06,51.27a72.8,72.8,0,0,0,38.42,35.15,70.59,70.59,0,0,0,25.57,4.73,71.31,71.31,0,0,0,42.09-13.52,59.86,59.86,0,0,0,9.94,12.45l.69.64.26.24c.39.36.79.73,1.16,1.05a57.69,57.69,0,0,0,25.17,12.75,91.68,91.68,0,0,0,21.37,2.69h0c14.48,0,27.24-4,37.91-11.82l.31-.23,1.07-.81.65-.52.71-.58L219,162l.42-.37,1.11-1,.22-.21,1.25-1.2.05-.05A63.22,63.22,0,0,0,230.41,149l.07-.11c.3-.47.6-.94.89-1.41l.16-.26c.26-.42.52-.86.76-1.27l.25-.43.63-1.14.32-.6.51-1,.39-.78c.13-.27.27-.54.4-.82s.29-.62.44-.94l.3-.66c.17-.37.33-.73.48-1.09l.24-.55.5-1.23.17-.43c.17-.43.34-.87.5-1.31l.14-.37.49-1.41.1-.3c.16-.47.31-.94.46-1.4l.11-.36c.14-.46.28-.92.41-1.37l.11-.4c.13-.45.25-.89.37-1.34l.12-.49.3-1.21.15-.64c.08-.36.16-.72.23-1.07l.18-.86.17-.84c.07-.37.13-.74.2-1.1l.1-.61c.08-.47.15-.94.23-1.5l0-.21A75.91,75.91,0,0,0,242,105Zm-8.6,13.34a2.51,2.51,0,0,0,0,.27c-.07.42-.13.84-.2,1.26l-.09.55-.18,1-.15.77c-.06.26-.11.51-.16.76l-.21,1c0,.2-.09.39-.13.58l-.27,1.1-.12.43c-.1.4-.21.79-.32,1.19,0,.12-.07.23-.1.35-.12.41-.24.83-.37,1.24l-.09.3c-.13.42-.27.84-.41,1.26,0,.1-.07.2-.1.29-.14.42-.29.83-.43,1.23l-.12.33q-.22.6-.45,1.17l-.15.4-.45,1.08-.2.48c-.14.33-.28.65-.43,1l-.27.6-.39.83-.36.72-.34.69-.45.86-.29.52c-.18.34-.37.68-.56,1l-.21.36c-.22.39-.44.76-.67,1.14l-.14.22c-.25.42-.52.84-.79,1.25l-.06.09a54.2,54.2,0,0,1-7.25,8.92l0,0-1.09,1.05-.18.17-1,.87-.37.32-.79.67-.62.51-.56.44-.93.71-.27.19c-12.48,9.18-30,13.27-52.67,7.81a49.81,49.81,0,0,1-21.79-11c-.39-.34-.76-.68-1.14-1-.22-.21-.45-.41-.67-.63a53.71,53.71,0,0,1-12.9-19.55C105,151.19,77.62,157.34,54.1,148.25,23.78,136.52,5.66,102,17.19,72.18c9.22-23.85,34.62-37.45,59.94-35.94a24.27,24.27,0,0,0,10.26-7.31c6.34-7.48,1.81-16.76-2.27-16.31,0,0,11.1-2.94,11.33,9.51,0,0,3.62-9,10-10,0,0,2.09,2.76,1.1,9.21l1,1.9c2.75-2.53,8.13-5.88,13.53,0,0,0-9.06-2.49-12.23,10.41-.93,3.76-.62,9.69,2.21,15.86A65,65,0,0,1,124.29,62.3,19.75,19.75,0,0,1,132,65.53s-1.44-8.68,8.69-9.92c0,0-6.31,7.63,3.42,12h0l0,0,.09,0c18.28-9,40.5-7.71,60.83,1.09,17.71,7.66,27.32,20.7,28.46,33.8a25.58,25.58,0,0,1,.51,3A67.28,67.28,0,0,1,233.41,118.35Z"/><path class="cls-3" d="M73.8,37.08s7.2-.62,13.59-8.15,1.81-16.76-2.27-16.31c0,0,11.1-2.94,11.33,9.51,0,0,3.62-9,10-10,0,0,2.94,3.85.23,13.13,0,0,7.7-10.41,15.4-2,0,0-9.06-2.49-12.23,10.41-1.12,4.54-.46,12.23,4.3,19.7C114.11,53.38,100.52,40.93,73.8,37.08Z"/><path class="cls-4" d="M73.75,37.08C81.61,35.52,91.41,27.83,90,19c-.4-2.48-2-6-4.84-5.95a.45.45,0,0,1-.15-.88A12.13,12.13,0,0,1,89.54,12a8.06,8.06,0,0,1,4.17,1.85c2.38,2,3,5.3,3.06,8.26L96.15,22c2-4.33,5.2-9.09,10.24-10a.14.14,0,0,1,.16.06,12.16,12.16,0,0,1,1.38,6.62,27.63,27.63,0,0,1-1.12,6.68l-.32-.16c4.21-5.43,10.6-7.85,15.81-2.17a.35.35,0,0,1-.36.58C115,22.24,111,29.13,110,35.1c-.81,6.26,1.19,12.7,4.5,18a.51.51,0,0,1-.78.65,58.6,58.6,0,0,0-9-6.1c-9.53-5.45-20.28-8.64-31-10.58Zm.1,0a88.53,88.53,0,0,1,31.38,9.76A53.06,53.06,0,0,1,114.46,53l-.78.65c-3.85-6.15-6.17-13.95-4-21.12,1.43-5.7,6.08-11,12.49-9.62l-.36.59c-.54-.49-1-1.06-1.62-1.5-4.51-3.74-10.25-.62-13.37,3.4a.18.18,0,0,1-.32-.16l.44-1.62c.82-3.67,1.37-8-.63-11.35l.17.06a9.08,9.08,0,0,0-3.31,1.33c-3,2.05-5,5.31-6.38,8.58a.33.33,0,0,1-.63-.11L95.93,20a9.11,9.11,0,0,0-2.76-5.5c-2.13-1.83-5.29-2-7.93-1.44l-.16-.88c3.47-.1,5.26,3.8,5.72,6.72.78,4.7-1.63,9.19-5.08,12.21-3.23,3-7.45,5.53-11.87,6Z"/><path class="cls-3" d="M132.68,116.56C121.15,146.38,84.42,160,54.1,148.25S5.66,102,17.19,72.18,65.52,28.55,95.84,40.27,144.21,86.75,132.68,116.56Z"/><path class="cls-4" d="M132.72,116.58c-5.52,14.77-18.07,26.25-32.69,31.83-30.17,12.19-65.93-1.55-80.29-30.76C4.06,87.09,17.85,52.2,49.9,40.14c30-12.07,65.86,1.85,79.9,31,7.1,13.91,8.71,30.82,2.92,45.47Zm-.09,0c5.74-14.63,4.1-31.48-3-45.33C115.48,42.39,79.88,28.69,50.14,40.75,18.56,52.74,5,87.1,20.62,117.2c14,28.58,49.62,42.44,79.22,30.71,14.58-5.41,27.15-16.71,32.79-31.37Z"/><g class="cls-5"><path class="cls-2" d="M23.83,84.16C26,62.18,44.1,43.23,66,40.25l4.32-.48A53.61,53.61,0,0,0,23.83,84.16Z"/></g><g class="cls-5"><path class="cls-2" d="M93.56,47c1,14.15-2.69,28.47-9,41.09,5-13.15,8.59-27,9-41.09Z"/></g><g class="cls-5"><path class="cls-2" d="M102.86,49.82c4.38,9.77,4.92,21.05,2.7,31.43-.34,1.49-.78,3-1.2,4.41,2.23-11.87,2.12-24.26-1.5-35.84Z"/></g><g class="cls-6"><path class="cls-4" d="M39.84,98.45C37.27,115.7,42.91,133.72,57.51,144A40.07,40.07,0,0,0,66,148.38a34.64,34.64,0,0,1-8.8-3.91c-15.17-9.79-21.25-28.79-17.35-46Z"/></g><g class="cls-6"><path class="cls-4" d="M60.89,108.64a63.24,63.24,0,0,0,4.42,34c-.35-.63-.69-1.28-1-1.93a44.88,44.88,0,0,1-3.39-32Z"/></g><g class="cls-6"><path class="cls-4" d="M73.46,148.72c4.46-.41,8.7-2.22,12.65-4.21a52.57,52.57,0,0,0,19.69-17.64,57.61,57.61,0,0,0,5.71-12.12c-.3,1.08-.61,2.17-.93,3.25a44.77,44.77,0,0,1-4.13,9.28,47.85,47.85,0,0,1-23.11,19.26,27.26,27.26,0,0,1-9.88,2.18Z"/></g><g class="cls-6"><path class="cls-4" d="M100,109a49.39,49.39,0,0,1-16.82,29c-1.23,1.06-2.59,2-3.9,2.92A65.75,65.75,0,0,0,100,109Z"/></g><path class="cls-4" d="M109.81,25.76A27.44,27.44,0,0,0,103.49,41a.48.48,0,0,1-.52.43.49.49,0,0,1-.4-.29,25.16,25.16,0,0,1-2.11-12.78,25.82,25.82,0,0,1,4.37-12.09,29,29,0,0,0-2.42,5.92,27.28,27.28,0,0,0,1,18.57l-.92.15a24.67,24.67,0,0,1,7.28-15.13Z"/><path class="cls-7" d="M43.51,59.72S52,46.34,67.45,42.21a4.4,4.4,0,0,1,2.36,0c1.21.33,2.44,1.29,1,4-2.09,3.93,3.39,3.47,7.9,1.11,4.13-2.16,8.38-2.72,7.86,2.47-.61,6.1-10.25,26.74-16.8,19.05-5.71-6.72-9-11.79-15.41-8.56C48.65,63.11,41.12,64.65,43.51,59.72Z"/><g class="cls-5"><path class="cls-2" d="M92.35,22.47c1.1,5.33-2.62,12-8.4,12.45a.09.09,0,0,1-.07-.15,15.26,15.26,0,0,1,1.56-1.31,45,45,0,0,0,4.25-3.78,11.27,11.27,0,0,0,2.5-7.18.08.08,0,0,1,.16,0Z"/></g><path class="cls-3" d="M123.9,85.58c-14.16,21.11-6.93,71.16,34.07,80.7,54.63,12.7,77.7-28.19,76.05-60.86C230.36,72.14,159.21,38.87,123.9,85.58Z"/><path class="cls-8" d="M144.09,67.6c18.31-9.08,40.58-7.79,61,1,29.61,12.81,36.6,40.67,19.17,58.69-16.38,17-43,28.52-76.79,13.23-22.24-10.06-36.83-36.37-22-57.52l.32.17A13.37,13.37,0,0,0,110,80.41s1.89-9.92,13.26-6.82c0,0-4.56-2.79-5-11.78,0,0,7.79-.62,13.77,3.72,0,0-1.44-8.68,8.69-9.92,0,0-6.42,7.75,3.65,12.09Z"/><path class="cls-9" d="M134.64,129.18c5.39,5.27,12.45,8.51,19.44,11.1,17.57,6.31,37.95,6.28,54.44-3.08a69,69,0,0,0,9.31-6.37,64.06,64.06,0,0,1-9.07,6.8c-16.42,10-37.29,10.09-54.94,3.37-7-2.76-14-6.21-19.18-11.82Z"/><path class="cls-9" d="M164.66,87.85c2.15,2.9,5.73,4.07,9.05,5.09,10.52,2.94,20.36,7.4,27,16.45a49,49,0,0,0-17.26-12c-3.25-1.38-6.62-2.51-10-3.7s-7-2.64-8.81-5.82Z"/><path class="cls-9" d="M159.57,91.41a88.25,88.25,0,0,1,9,6c2.88,2.19,5.52,4.57,8.69,6.16,4.71,2.67,10.3,3.08,15,5.67a22.22,22.22,0,0,1,4.32,3.25,25.8,25.8,0,0,0-4.54-2.82c-3.25-1.57-6.81-2-10.25-3.13-5.29-1.5-9.71-5-13.75-8.53-2.76-2.29-5.62-4.46-8.5-6.6Z"/><path class="cls-9" d="M181.65,63.67c17.48,2.6,37,10.38,46.13,26.38a36.23,36.23,0,0,1,2.9,7.25,39.84,39.84,0,0,0-3.33-7c-9.85-15.53-28.47-22.71-45.7-26.62Z"/><path class="cls-10" d="M125.07,83.51l.64-.31-.32-.17C125.28,83.19,125.17,83.35,125.07,83.51Z"/><path class="cls-9" d="M144.32,67.7l-.1-.16-.13.06c-9.73-4.36-3.42-12-3.42-12-10.13,1.24-8.69,9.92-8.69,9.92-6-4.34-13.77-3.72-13.77-3.72.44,9,5,11.78,5,11.78C111.84,70.49,110,80.41,110,80.41a13.37,13.37,0,0,1,15.76,2.79s3.41,2.9,7-.83c2.48-2.58,2.1-4.62,5.79-4.44C142.79,78.14,148.25,74,144.32,67.7Z"/><path class="cls-11" d="M119.17,76.69a10.92,10.92,0,0,1,7.91,4.44c2.64,3.35,7.13-.1,4.13-3.51C131.21,77.62,127.72,73.38,119.17,76.69Z"/><path class="cls-11" d="M131.46,68.73a10.75,10.75,0,0,0,2.68,6.2c2.15,2.28,4.26,1.35,4.64-.1,0,0,4.31.1,4.44-4.13,0,0-5.28-1.45-6.43-6.41a6.44,6.44,0,0,0-1.25,6.92A5.07,5.07,0,0,1,131.46,68.73Z"/><path class="cls-4" d="M144.07,67.55c16.39-8.42,36-8,53.25-2.33,11.5,3.73,22.76,10,29.85,20,7.26,9.85,8.94,23.66,2.88,34.5-2.84,5.43-7.37,9.68-12,13.61a62.42,62.42,0,0,1-55.73,12.86,87.83,87.83,0,0,1-8.76-2.6l-4.23-1.72a49.86,49.86,0,0,1-26.41-24.22c-5.53-11-5.08-24.69,2.42-34.67,0,0,.12,0,.08.06-11.22,16-4.79,36.42,9.09,48.46a50.45,50.45,0,0,0,15.22,9.42l4.18,1.7c2.52.74,6.09,2.08,8.65,2.54a62.14,62.14,0,0,0,39.73-2.93c10.49-4.62,21.63-12.64,27.41-22.7,6.12-10.64,4.36-24.4-3-34-7.18-9.84-18.31-15.76-29.66-19.52-17.07-5.85-36.68-6-53,1.5Z"/><path class="cls-4" d="M124,85.63c-14.3,26.79-2,68.59,28.09,78.49,31.91,10.25,64.57.5,77.15-32.43a71.48,71.48,0,0,0,4.69-26.27c0-.13.2-.14.21,0a65.8,65.8,0,0,1-3.37,26.84c-12.12,34.75-46.27,44.19-78.93,32.55A53.41,53.41,0,0,1,122.21,138a59.41,59.41,0,0,1-3.9-40.09,40.42,40.42,0,0,1,5.51-12.4c.06-.11.24,0,.17.11Z"/><path class="cls-4" d="M139.6,83c-2-1.17-4.73-.65-6.89,1.31-3.36,3.06-9,11.49-4.72,25.39,5.78,18.77,25.26,27.37,37.15,30.34,15.47,3.88,37.34.11,46.8-12.49,0,0,4.12-5.72-.7-7.21-5.82-1.8-21.52.33-41.83-11.3C154.71,100.88,146.57,87.13,139.6,83Z"/><path class="cls-4" d="M139.57,83.08c-4.75-2.38-8.86,2.91-10.67,6.75-4.1,8.66-1.84,19,2.76,27,7.27,12.26,20.72,19.51,34.23,22.93,13.58,2.93,29.13,1.34,40.6-7a32.88,32.88,0,0,0,3.33-2.91c.47-.48,1.28-1.51,1.73-2,1.26-1.65,2.7-4.4,1.22-6.27a5.3,5.3,0,0,0-3.11-1.29c-3.51-.56-7.08-.62-10.61-1.06a74.05,74.05,0,0,1-27.23-8.26c-8.57-4.3-15.64-11-22-18.05-3.23-3.43-6.27-7.2-10.27-9.77Zm.05-.09c4.06,2.53,7.09,6.32,10.43,9.67,6.49,6.88,13.67,13.21,22.2,17.41a80,80,0,0,0,26.87,8.5c3.52.51,7.09.67,10.61,1.25a5.61,5.61,0,0,1,3.32,1.44c1.63,2,.09,4.93-1.24,6.72-.4.54-1.33,1.56-1.74,2a33.7,33.7,0,0,1-3.35,3c-11.56,8.57-27.18,10.6-41.07,7.7-13.77-3.33-27.6-10.77-34.88-23.39-4.6-8.24-6.55-18.9-2.14-27.61,1.94-3.86,6.17-9.21,11-6.71Z"/><path class="cls-4" d="M125.68,83.24a13.62,13.62,0,0,0-15.54-2.43c-1.74.41.8-4,1.23-4.47,2.7-3.86,7.72-4.13,11.88-2.92l-.14.32a10,10,0,0,1-2.28-2.46,19.7,19.7,0,0,1-2.92-9.45.28.28,0,0,1,.26-.32A23.48,23.48,0,0,1,129,63.3a18.87,18.87,0,0,1,3.25,1.82l-.8.49c-.83-5.83,3.54-10,9.13-10.44a.44.44,0,0,1,.42.71c-3.76,4.88-2,9.29,3.31,11.77,0,0,0,.12,0,.1-6-2.22-7.81-7.16-4-12.42l.4.73c-5.18.67-8.78,3.93-8.24,9.39A.5.5,0,0,1,132,66c-1-.3-2.2-1.46-3.39-1.86a23.55,23.55,0,0,0-6.84-1.87,25.05,25.05,0,0,0-3.56-.18l.28-.32c.15,4.2,1.23,9,4.78,11.64a.18.18,0,0,1-.14.32l-2-.41a9.21,9.21,0,0,0-10.73,7.14l-.64-.46c5.26-2.76,12.52-1.32,15.94,3.21Z"/><path class="cls-3" d="M142.27,86.19c.11,2.13-2.5,4.48-5,4.48S132.14,89.09,132,87s2.33-4.33,4.83-4.33S142.17,84.05,142.27,86.19Z"/><path class="cls-4" d="M142.38,86.18a5.67,5.67,0,0,1-4.84,5.52c-2.8.24-6.07-1.57-6.33-4.59,0-3,2.85-5,5.56-5,2.39.15,5.21,1.53,5.61,4.07Zm-.21,0c-.18-2.49-3.35-3.18-5.38-3-1.86.08-4.13,1.93-3.91,3.82s2.89,2.58,4.55,2.63c1.85,0,4.66-1.15,4.74-3.42Z"/><path class="cls-3" d="M149.5,87.71c.94,2-.54,5.05-2.85,5.82s-5.34.09-6.28-1.91.45-4.84,2.75-5.62S148.56,85.71,149.5,87.71Z"/><path class="cls-4" d="M149.6,87.67a5.25,5.25,0,0,1-2.52,6.82c-2.64,1-6,.27-7.41-2.42-1.18-2.73.69-5.78,3.33-6.58,2.34-.58,5.31,0,6.6,2.18Zm-.19.09c-1-2.22-4.16-2-6.08-1.27s-3.13,3.17-2.17,4.83,3.55,1.64,5.21,1.2,3.87-2.68,3-4.76Z"/><path class="cls-3" d="M157,94.53a4.61,4.61,0,0,1-5.81,2.14c-2.35-.85-4.13-3.17-3.31-5.15s4.07-3.13,6.42-2.28A4.15,4.15,0,0,1,157,94.53Z"/><path class="cls-4" d="M157.05,94.57c-1.63,4.09-7.23,4.32-9.55.6-1.89-2.79-.05-5.81,2.89-6.53,3.85-1.3,8,1.83,6.66,5.93Zm-.19-.08c1-2.15-1-4.46-3-4.82-1.8-.44-4.38.38-5.17,2A2.16,2.16,0,0,0,149.2,94c1.7,2.11,6,3.51,7.66.51Z"/><path class="cls-3" d="M162.62,100.09a4.6,4.6,0,0,1-5.8,2.14c-2.35-.85-4.14-3.17-3.31-5.14s4.07-3.13,6.42-2.28A4.12,4.12,0,0,1,162.62,100.09Z"/><path class="cls-4" d="M162.72,100.13c-1.63,4.1-7.23,4.33-9.55.6-1.89-2.79,0-5.8,2.89-6.53,3.85-1.3,8,1.84,6.66,5.93Zm-.19-.08c1-2.14-.95-4.45-3-4.82-1.8-.44-4.38.38-5.17,2a2.18,2.18,0,0,0,.51,2.27c1.71,2.11,6,3.51,7.67.51Z"/><path class="cls-3" d="M169.09,104.11a4.9,4.9,0,0,1-6.33,2.32,4.11,4.11,0,0,1-2-5.41c.83-2,3.7-3.19,6.14-2.63C170.24,99.17,169.91,102.14,169.09,104.11Z"/><path class="cls-4" d="M169.19,104.15c-1,2.36-3.7,4.31-6.43,3.41-4.81-1.6-4.1-8.4.57-9.58s7.86,1.47,5.86,6.17Zm-.2-.08c1-2.13.52-4.78-2.09-5.13-1.91-.41-4.46.46-5.28,2.23-1.81,4.39,5.35,6.79,7.37,2.9Z"/><path class="cls-3" d="M176.07,108.13c-.82,2-3.86,2.93-6.35,1.7a3.59,3.59,0,0,1-2-5,4.59,4.59,0,0,1,5.82-2.16C176.74,104,176.9,106.16,176.07,108.13Z"/><path class="cls-4" d="M176.17,108.17a5.3,5.3,0,0,1-8.08,1.91,4.45,4.45,0,0,1-1-5.75,5.3,5.3,0,0,1,6.79-2,4.23,4.23,0,0,1,2.31,5.89Zm-.19-.08c2.32-4.56-5.59-7.06-7.4-3-1.79,3.77,5.69,6.4,7.4,3Z"/><path class="cls-3" d="M184.65,111.14c-.88,2.09-4.35,3-7.29,1.6-2.62-1.26-3.37-3.29-2.5-5.38s3.91-3.17,6.64-2.12C185.25,106.68,185.52,109.05,184.65,111.14Z"/><path class="cls-4" d="M184.74,111.18c-2.86,6-13.9,2.31-10.53-4.39,3-5.28,13.17-1.7,10.53,4.39Zm-.19-.08c2.45-5-6.8-7.81-8.85-3.56-1.95,4.07,7.07,7.2,8.85,3.56Z"/><path class="cls-3" d="M192,114.91c-.87,2.08-3.95,3.15-6.44,1.9a3.71,3.71,0,0,1-1.89-5.16,4.68,4.68,0,0,1,5.9-2.38C192.74,110.51,192.86,112.82,192,114.91Z"/><path class="cls-4" d="M192.08,115c-2.7,6.23-12.47,2.7-9.09-3.87,3-5.3,11.8-2.16,9.09,3.87Zm-.19-.08c2.42-4.89-5.5-7.35-7.39-3.05-1.93,4.1,5.54,6.64,7.39,3.05Z"/><path class="cls-3" d="M200,116.16a4.81,4.81,0,0,1-5.74,3.71c-2.41-.69-4.44-1.85-4.08-5.1.25-2.24,3.82-3.7,6.29-3.24C199.82,112.16,200.32,113.94,200,116.16Z"/><path class="cls-4" d="M200.07,116.18c-.89,4.9-5.89,6.36-9.55,2.93-2.15-2.3-1.59-6.3,1.44-7.47,3.56-1.8,9.13-.22,8.11,4.54Zm-.2,0c1.1-4.33-4.53-5-7.28-3.31a2.69,2.69,0,0,0-1.62,2.23,2.92,2.92,0,0,0,1,2.55,8.35,8.35,0,0,0,2.77,1.29c1.89.61,4.69-.54,5.14-2.76Z"/><path class="cls-3" d="M205.77,118.39a3.9,3.9,0,0,1-4.66,3c-2-.55-3.6-1.5-3.31-4.13.21-1.82,3.1-3,5.1-2.63C205.65,115.14,206.05,116.58,205.77,118.39Z"/><path class="cls-4" d="M205.87,118.4c-.68,4.11-4.83,5.44-7.9,2.52-1.81-1.94-1.32-5.36,1.24-6.32,3-1.46,7.47-.1,6.66,3.8Zm-.21,0c.92-3.47-3.69-3.93-5.82-2.56a2.45,2.45,0,0,0-1.15,1.23,2.35,2.35,0,0,0,.72,2.39,7.45,7.45,0,0,0,2.14,1c1.44.52,3.76-.28,4.11-2Z"/><path class="cls-3" d="M209.16,125.24c-2.43-.26-5.46-1.93-5-4.15.44-2,2.17-3.42,5.69-3.16a4.21,4.21,0,0,1,3.53,4.87C213.05,124.48,211.58,125.51,209.16,125.24Z"/><path class="cls-4" d="M209.15,125.35c-2.31-.22-5.7-.74-6.05-3.66-.16-4.57,6.31-5.92,9.23-3.44,3.24,3.16,1.48,7.71-3.18,7.1Zm0-.21c4.75.8,5-5.32,1.08-6.38-2.06-.31-4.83.54-5.06,2.85-.06,1.58,2.3,3.34,4,3.53Z"/><path class="cls-3" d="M138,92.37c.12,2.34-2.34,4.63-5.08,4.63s-5.54-1-5.65-3.4,2.39-5.41,5.13-5.41S137.92,90,138,92.37Z"/><path class="cls-4" d="M138.13,92.36c.06,5-5.31,7.09-9.43,4.76-3.3-1.76-2.57-5.69-.17-7.81a5.64,5.64,0,0,1,3.86-1.64c2.63.14,5.4,2,5.74,4.69Zm-.2,0c-.12-2.64-3.28-3.81-5.53-3.65a5.11,5.11,0,0,0-4.26,4.49c0,2.28,2.91,2.57,4.76,2.74,2.07.19,5-1.07,5-3.58Z"/><path class="cls-3" d="M145.83,95.15c.11,2.34-2.35,4.63-5.09,4.63s-5.53-1-5.65-3.4,2.4-5.41,5.14-5.41S145.71,92.8,145.83,95.15Z"/><path class="cls-4" d="M145.93,95.14c0,5-5.31,7.09-9.43,4.76-3.3-1.76-2.57-5.68-.17-7.81a5.6,5.6,0,0,1,3.86-1.64c2.63.14,5.4,2,5.74,4.69Zm-.21,0c-.12-2.64-3.28-3.81-5.52-3.65A5.11,5.11,0,0,0,135.94,96c0,2.28,2.91,2.57,4.75,2.74,2.08.19,5-1.06,5-3.58Z"/><path class="cls-3" d="M154.33,98.35c-.72,2.23-3.9,3.7-6.54,2.94s-5-2.52-4.24-4.75,4.21-4.41,6.85-3.65S155,96.13,154.33,98.35Z"/><path class="cls-4" d="M154.43,98.39c-1.63,4.51-7.24,5.29-10.6,1.94-2.8-2.69-.6-6.16,2.31-7.44a6.19,6.19,0,0,1,4.13-.56c2.55.74,4.82,3.35,4.16,6.06Zm-.2-.07c.84-2.56-2-4.63-4.18-5a5.81,5.81,0,0,0-5.58,3.12c-.84,1.83,1.64,3.13,3.71,3.83s5.14.34,6-2Z"/><path class="cls-3" d="M158.93,103c.1,2-1.73,3.71-4.09,3.71a4.27,4.27,0,0,1-4.46-3.71c-.1-2,1.73-3.71,4.09-3.71A4.27,4.27,0,0,1,158.93,103Z"/><path class="cls-4" d="M159,103c.22,6.4-9.16,6.18-9.48,0,.31-5.84,8.9-5.48,9.48,0Zm-.21,0c-.07-4.15-7.82-4.31-7.6,0,.49,3.38,7.44,3.94,7.6,0Z"/><path class="cls-3" d="M165.69,106a4.13,4.13,0,0,1-4.42,4.09,4.65,4.65,0,0,1-4.82-4.09,4.13,4.13,0,0,1,4.42-4.09A4.65,4.65,0,0,1,165.69,106Z"/><path class="cls-4" d="M165.8,106c.23,6.92-9.85,6.67-10.19,0,.33-6.36,9.56-6,10.19,0Zm-.21,0c-.08-4.63-8.56-4.83-8.31,0,.53,3.9,8.12,4.44,8.31,0Z"/><path class="cls-3" d="M172.53,110.52a4.14,4.14,0,0,1-4.42,4.1,4.66,4.66,0,0,1-4.83-4.1c-.11-2.26,2.61-5,5.16-5S172.42,108.26,172.53,110.52Z"/><path class="cls-4" d="M172.63,110.52a4.83,4.83,0,0,1-5,5.12c-5.06-.26-7-6.21-2.88-9.26,4.05-3.21,7.56-.52,7.91,4.14Zm-.21,0c0-2.18-1.73-4.73-4-4.5a5.08,5.08,0,0,0-4.24,4c-.15,4.26,8.11,5.15,8.26.51Z"/><path class="cls-3" d="M176.61,117.21a5.11,5.11,0,0,1-6.49-.92,3.75,3.75,0,0,1,.75-5.73c2-1.32,6.21-.89,7.8.94S178.61,115.88,176.61,117.21Z"/><path class="cls-4" d="M176.67,117.29c-2.11,1.53-5.49,1.75-7.42-.42a4.61,4.61,0,0,1,2-7.43c6.05-1.75,12.23,3,5.44,7.85Zm-.11-.17c1.81-1,3.49-3.91,1.48-5.5-2.17-1.64-7.12-1.77-7.81,1.45-.43,3,3.62,5.72,6.33,4.05Z"/><path class="cls-3" d="M184.16,120.8a5.11,5.11,0,0,1-6.49-.92,3.75,3.75,0,0,1,.75-5.73c2-1.32,6.21-.89,7.79.94S186.16,119.47,184.16,120.8Z"/><path class="cls-4" d="M184.22,120.88c-2.11,1.53-5.49,1.75-7.42-.42a4.61,4.61,0,0,1,2-7.43c6.05-1.75,12.23,3,5.44,7.85Zm-.11-.17c1.41-.87,2.72-2.58,2.32-4.28-1-2.53-4.87-2.74-7-1.85-4.48,2.48,1,8.49,4.7,6.13Z"/><path class="cls-3" d="M193.53,120c.1,2-1.73,3.71-4.09,3.71A4.26,4.26,0,0,1,185,120c-.1-2,1.72-3.7,4.08-3.7A4.26,4.26,0,0,1,193.53,120Z"/><path class="cls-4" d="M193.63,120c.22,6.4-9.15,6.18-9.47,0,.31-5.83,8.89-5.47,9.47,0Zm-.21,0c-.07-4.16-7.81-4.31-7.59,0,.49,3.38,7.43,4,7.59,0Z"/><path class="cls-3" d="M202,122.42c.11,2.18-2.07,3.94-4.86,3.94s-5.13-1.76-5.24-3.94,2.07-3.94,4.86-3.94S201.89,120.24,202,122.42Z"/><path class="cls-4" d="M202.11,122.41c0,6.66-10.59,6.53-11,0,.31-6.17,10.35-5.76,11,0Zm-.21,0c-.26-4.54-9.15-4.62-9.16,0,.54,3.64,9,4.31,9.16,0Z"/><path class="cls-3" d="M209.86,126.44c.1,2.17-2.07,3.94-4.86,3.94s-5.13-1.77-5.24-3.94,2.07-3.94,4.86-3.94S209.75,124.26,209.86,126.44Z"/><path class="cls-4" d="M210,126.43c0,6.66-10.59,6.52-11,0,.31-6.17,10.35-5.76,11,0Zm-.21,0c-.25-4.55-9.14-4.62-9.15,0,.53,3.64,9,4.31,9.15,0Z"/><path class="cls-3" d="M135.13,100.71c.11,2.22-2,4-4.68,4s-5-1.8-5.07-4,2-4,4.68-4S135,98.49,135.13,100.71Z"/><path class="cls-4" d="M135.23,100.7c.12,6.79-10.28,6.6-10.68,0,.33-6.28,10-5.86,10.68,0Zm-.2,0c-.18-4.59-8.92-4.72-8.81,0,.53,3.76,8.64,4.38,8.81,0Z"/><path class="cls-3" d="M144.15,103.49a4.43,4.43,0,0,1-4.66,4.48,5,5,0,0,1-5.09-4.48A4.42,4.42,0,0,1,139.05,99,5,5,0,0,1,144.15,103.49Z"/><path class="cls-4" d="M144.25,103.49c.28,7.46-10.35,7.16-10.69,0,.28-6.81,10-6.55,10.69,0Zm-.21,0c-.1-5.09-9.11-5.37-8.81,0,.48,4.39,8.67,4.91,8.81,0Z"/><path class="cls-3" d="M151.37,108.23c-1.55,2.29-4.51,3.2-6.62,2s-2.58-4-1-6.27,4.5-3.2,6.62-2S152.91,105.93,151.37,108.23Z"/><path class="cls-4" d="M151.45,108.28c-1.37,2.24-4.16,4.23-7,3-4.77-2.19-2.45-9,1.87-10.17,4.86-1.49,7.76,3.11,5.11,7.16Zm-.17-.11c3.3-5.28-3.86-8.59-6.87-3.71-2.73,4.78,4,7.57,6.87,3.71Z"/><path class="cls-3" d="M156.57,113.69a5.08,5.08,0,0,1-6.4-1.35c-1.28-1.89-.5-4.35,1.75-5.5a5.11,5.11,0,0,1,6.41,1.35C159.61,110.08,158.82,112.54,156.57,113.69Z"/><path class="cls-4" d="M156.62,113.78c-2.14,1.19-5.25,1.56-7.11-.58-2.14-2.36-.66-6,2-7.1,5.6-2.58,11.21,4.05,5.08,7.68Zm-.1-.18a3.32,3.32,0,0,0,1.23-5.3,4.48,4.48,0,0,0-5.45-.71c-4.24,2.58.49,7.78,4.22,6Z"/><path class="cls-3" d="M163.36,117.24a5.07,5.07,0,0,1-6.4-1.35c-1.29-1.89-.5-4.35,1.75-5.49a5.08,5.08,0,0,1,6.4,1.35C166.4,113.64,165.61,116.1,163.36,117.24Z"/><path class="cls-4" d="M163.41,117.34c-2.14,1.19-5.26,1.56-7.11-.58-2.14-2.36-.67-6,2-7.11,5.6-2.58,11.21,4,5.08,7.69Zm-.1-.19a3.32,3.32,0,0,0,1.23-5.3,4.5,4.5,0,0,0-5.45-.71c-4.24,2.59.49,7.79,4.22,6Z"/><path class="cls-3" d="M167.36,123.13c-2.82-.14-5.09-2.2-5.05-4.6s2.35-4.23,5.18-4.09,5.09,2.19,5,4.6S170.19,123.27,167.36,123.13Z"/><path class="cls-4" d="M167.36,123.23c-2.66,0-5.93-1.43-6.1-4.61-.12-5.1,6.91-6.48,10.08-3.4,3.85,3.6.74,8.22-4,8Zm0-.21c6.16.19,6.13-7.63.07-7.75-5.54.11-5.23,7.14-.07,7.75Z"/><path class="cls-3" d="M176.42,126.68c-2.83-.14-5.09-2.2-5.06-4.6s2.35-4.23,5.18-4.09,5.09,2.2,5.05,4.6S179.24,126.82,176.42,126.68Z"/><path class="cls-4" d="M176.41,126.79c-2.65,0-5.92-1.44-6.09-4.62-.13-5.1,6.91-6.48,10.07-3.4,3.85,3.6.74,8.23-4,8Zm0-.21c6.16.18,6.13-7.64.08-7.75-5.55.11-5.24,7.14-.08,7.75Z"/><path class="cls-3" d="M185.31,130.55c-2.83-.14-5.09-2.2-5.06-4.6s2.36-4.24,5.18-4.1,5.09,2.2,5.06,4.6S188.14,130.69,185.31,130.55Z"/><path class="cls-4" d="M185.3,130.65c-2.65,0-5.92-1.44-6.09-4.61-.13-5.1,6.91-6.48,10.08-3.41,3.85,3.6.74,8.23-4,8Zm0-.21c6.16.19,6.14-7.63.08-7.75-5.55.11-5.24,7.14-.08,7.75Z"/><path class="cls-3" d="M193.89,132.11c-2.65-.13-4.78-1.78-4.75-3.68s2.19-3.33,4.84-3.19,4.78,1.77,4.75,3.67S196.54,132.24,193.89,132.11Z"/><path class="cls-4" d="M193.88,132.21c-2.3,0-5.59-.82-5.78-3.69.06-4.55,6.42-5.1,9.33-2.89,4.07,3.27.77,6.8-3.55,6.58Zm0-.21c5.66.13,5.78-5.84.05-5.93-1.54,0-3.59.88-3.75,2.42s1.91,3.44,3.7,3.51Z"/><path class="cls-3" d="M202.85,134.8c-2.28,1.1-5,.64-6.1-1s-.13-3.94,2.15-5,5-.65,6.11,1S205.13,133.69,202.85,134.8Z"/><path class="cls-4" d="M202.9,134.89c-2.05,1.07-4.94,1.83-6.83-.28-2.08-2.37,0-5.72,2.46-6.64,5.62-2.43,10.7,3.39,4.37,6.92Zm-.09-.19c1.86-.68,3.12-3.3,1.63-4.83-1.26-1.39-3.63-1.26-5.17-.39-4.36,2.59-.22,6.79,3.54,5.22Z"/><path class="cls-3" d="M136.06,109.05c.11,2.31-2,4.18-4.67,4.18s-5-1.87-5.08-4.18,2-4.17,4.67-4.17S136,106.75,136.06,109.05Z"/><path class="cls-4" d="M136.17,109.05c.17,7-10.31,6.78-10.69,0,.32-6.47,10-6.06,10.69,0Zm-.21,0c-.13-4.76-9-4.94-8.81,0,.54,4,8.62,4.57,8.81,0Z"/><path class="cls-3" d="M145.79,112.22a4.7,4.7,0,0,1-5,4.71,5.28,5.28,0,0,1-5.45-4.71,4.7,4.7,0,0,1,5-4.71A5.29,5.29,0,0,1,145.79,112.22Z"/><path class="cls-4" d="M145.9,112.22c.42,5.1-5.85,7.6-9.48,4.16-2.41-2-2.6-6.2,0-8.13a5.91,5.91,0,0,1,9.49,4Zm-.21,0c-.14-5.4-9.79-5.69-9.51,0,.52,4.69,9.35,5.23,9.51,0Z"/><ellipse class="cls-3" cx="149.44" cy="115.7" rx="4.77" ry="4.41" transform="translate(-9.64 13.66) rotate(-5.07)"/><path class="cls-4" d="M153.78,117.7c-1.92,4.13-8.13,4.57-9.8-.1s3.72-8.41,7.68-6.41a4.77,4.77,0,0,1,2.12,6.51Zm-.18-.1c2.55-5-5.44-8-7.67-3.45-1.92,4.3,5.42,7.26,7.67,3.45Z"/><path class="cls-3" d="M162.85,120.49c-1,1.79-3.68,2.37-6,1.29s-3.45-3.4-2.47-5.19,3.68-2.37,6-1.29S163.83,118.7,162.85,120.49Z"/><path class="cls-4" d="M162.94,120.54a5.26,5.26,0,0,1-6.39,2.26c-2.54-.84-4.47-4.08-2.93-6.61,2.94-4.62,11.53-.82,9.32,4.35Zm-.18-.1c2-4.08-5.76-7-7.68-3.45-1.29,3.28,5.86,6.52,7.68,3.45Z"/><path class="cls-3" d="M168.25,126.51c-1,1.79-4.13,2.11-6.27,1.13s-3.09-3.24-2.11-5,4.41-2.34,6.56-1.35A3.81,3.81,0,0,1,168.25,126.51Z"/><path class="cls-4" d="M168.34,126.56a5.66,5.66,0,0,1-6.49,2.16c-2.68-.76-4.36-4.35-2.56-6.75,1.8-2.11,4.6-2.16,7-1.35a4.33,4.33,0,0,1,2.09,5.94Zm-.18-.1c1.19-1.9-.24-4.41-2.27-4.85-1.64-.5-4.28-.16-5.21,1.29-1.75,3.39,5.65,6.37,7.48,3.56Z"/><path class="cls-3" d="M177.21,129.12c-.42,2.21-3.51,3.44-6,3a4.35,4.35,0,0,1-3.77-4.83c.42-2.21,3.73-3.77,6.22-3.31A4.5,4.5,0,0,1,177.21,129.12Z"/><path class="cls-4" d="M177.31,129.14c-.52,2.59-3.5,4.3-6.12,4-3-.23-5.46-3.36-4.5-6.33,1.1-2.77,4.12-3.74,6.78-3.41a5,5,0,0,1,3.84,5.73Zm-.21,0a4,4,0,0,0-3.76-4.65c-1.88-.16-4.56,1-5,2.82-.74,4.19,7.62,5.67,8.8,1.83Z"/><ellipse class="cls-3" cx="180.7" cy="131.77" rx="3.7" ry="4.88" transform="translate(37.2 303.3) rotate(-86.19)"/><path class="cls-4" d="M185.68,131.76c0,6.34-10.24,6.24-10.69.05.31-5.86,10-5.45,10.69-.05Zm-.21,0c-.23-4.25-8.81-4.3-8.81,0,.49,3.33,8.7,4,8.81,0Z"/><path class="cls-3" d="M194.21,134.36a4,4,0,0,1-4.31,4c-2.69,0-5-1.66-5.06-3.71s2-3.71,4.7-3.71S194.11,132.31,194.21,134.36Z"/><path class="cls-4" d="M194.31,134.36c.39,6.58-9.31,6.73-10.27.66-.31-5.68,9.71-6.12,10.27-.66Zm-.21,0c0-4.28-8.88-3.64-8.4.45.88,3.3,8.37,3.73,8.4-.45Z"/><path class="cls-3" d="M141,118c.09,2-1.7,3.55-4,3.55s-5.13-1.67-5.23-3.64,2.58-3.47,4.88-3.47S140.93,116.05,141,118Z"/><path class="cls-4" d="M141.13,118c.13,5.37-6.79,5.89-9.44,2a3.4,3.4,0,0,1,1.36-5.17c3.1-1.92,7.63-.58,8.08,3.17Zm-.21,0c-.22-3.42-4.94-3.75-7.14-2-1.77,1.21-1.35,2.76.39,3.66,2.11,1.24,6.48,1.75,6.75-1.62Z"/><path class="cls-3" d="M147.87,120.84a3.77,3.77,0,0,1-2.45,5.21c-2.32.76-5.9-.14-6.87-2.26s1-4.65,3.35-5.41A5,5,0,0,1,147.87,120.84Z"/><path class="cls-4" d="M148,120.79c2.18,4.64-2.66,7.9-6.92,6.15-2.9-1-4.74-4.1-2.57-6.81a5.55,5.55,0,0,1,9.49.66Zm-.19.09c-1.45-3.37-6.53-2.86-8.18,0-1.3,1.93,0,3.65,2.08,4.06,2.76.88,7.43-.35,6.1-4.09Z"/><path class="cls-3" d="M158,125c-.59,2-3.22,3.13-5.88,2.43s-4.33-2.92-3.74-5,3.23-3.13,5.88-2.43S158.64,123,158,125Z"/><path class="cls-4" d="M158.15,125c-.59,2.36-3.54,4-6.2,3.43s-5.27-3.3-4.34-6.23c2-5.44,11.63-2.86,10.54,2.8Zm-.21-.06c1.13-4.52-7.41-6.41-8.72-2.27-.61,3.62,7.44,6,8.72,2.27Z"/><path class="cls-3" d="M155.63,131.2c-.51,1.78-3,2.69-5.46,2s-4.11-2.63-3.59-4.42,3-2.69,5.46-2S156.15,129.42,155.63,131.2Z"/><path class="cls-4" d="M155.73,131.23c-.58,2.18-3.38,3.55-5.77,3s-5-3-4.18-5.68c2-4.87,10.75-2.41,9.95,2.65Zm-.2-.06c1-3.9-7-5.6-8.14-2.12-.47,2.93,7.1,5.29,8.14,2.12Z"/><path class="cls-3" d="M164.15,129c-.58,2-3,3.09-5.44,2.45s-3.92-2.78-3.34-4.77,3-3.09,5.44-2.45S164.73,127,164.15,129Z"/><path class="cls-4" d="M164.25,129.05c-1.82,6.07-11.26,3.65-9.68-2.58,2-5.33,10.83-2.94,9.68,2.58Zm-.2-.06c1.19-4.3-6.74-6.11-7.88-2.06-.58,3.55,6.59,5.61,7.88,2.06Z"/><path class="cls-3" d="M162.94,135.24c-.52,1.8-2.91,2.74-5.34,2.1s-4-2.62-3.44-4.42,2.92-2.74,5.34-2.1S163.47,133.44,162.94,135.24Z"/><path class="cls-4" d="M163,135.27c-.54,2.14-3.25,3.64-5.65,3.1s-4.88-3-4-5.69c1.91-4.89,10.59-2.49,9.68,2.59Zm-.2-.06c1-3.93-6.75-5.61-7.87-2.06-.48,3,6.8,5.25,7.87,2.06Z"/><path class="cls-3" d="M170.84,132.1c-.6,2.07-3.06,3.23-5.48,2.59s-3.91-2.84-3.3-4.91,3.05-3.24,5.48-2.6S171.44,130,170.84,132.1Z"/><path class="cls-4" d="M170.94,132.12c-1.81,6.29-11.35,3.83-9.69-2.57,2.08-5.51,10.91-3.15,9.69,2.57Zm-.2-.05c1.28-4.46-6.76-6.32-7.88-2.06-.64,3.76,6.52,5.76,7.88,2.06Z"/><path class="cls-3" d="M179.41,137.89c-.66,2.26-3.34,3.53-6,2.83s-4.27-3.1-3.61-5.36,3.34-3.53,6-2.83S180.06,135.63,179.41,137.89Z"/><path class="cls-4" d="M179.51,137.92c-2,6.72-12.26,4.09-10.5-2.79,2.22-5.95,11.82-3.4,10.5,2.79Zm-.2-.06c1.39-4.92-7.44-7-8.7-2.27-.75,4.23,7.2,6.4,8.7,2.27Z"/><path class="cls-3" d="M170.39,138.11c-.52,1.8-2.81,2.77-5.11,2.16s-3.74-2.56-3.21-4.36,2.81-2.76,5.11-2.15S170.92,136.32,170.39,138.11Z"/><path class="cls-4" d="M170.49,138.14a4.69,4.69,0,0,1-5.42,3.16c-2.45-.42-4.67-3-3.81-5.62,1.88-4.89,10.23-2.57,9.23,2.46Zm-.2,0c1-3.9-6.34-5.52-7.42-1.94-.49,3,6.34,5.08,7.42,1.94Z"/><path class="cls-3" d="M188.77,138.72c.08,1.77-1.87,3-4.57,3s-5.44-.88-5.53-2.65a4.87,4.87,0,0,1,4.58-4.51C186,134.52,188.68,137,188.77,138.72Z"/><path class="cls-4" d="M188.87,138.72c-.1,4.79-8.68,5.23-10.77,1.53-1-2,.62-4.29,2.19-5.39,3.18-2.35,7.8.36,8.58,3.86Zm-.21,0c-.25-2.21-2.88-3.47-4.84-3.64a4.14,4.14,0,0,0-4.23,3.27,1.19,1.19,0,0,0,.12,1c.88.93,2.48,1.06,3.82,1.28,1.78.22,4.93.6,5.13-1.89Z"/><path class="cls-4" d="M155.17,82.3C168.58,84.81,191,93,203.18,105c4.89,4.85,10.43,12.25,16.93,12,2.92-.11,7.79-2.28,8.21-8.73,1.06-16.37-7.2-25-25.48-34.8-21.21-11.39-54.31-7.52-56.27,1.34"/><path class="cls-4" d="M155.18,82.25c15.91,2.88,31.7,8.89,44.51,18.93,4.61,3.59,8.53,9,13.17,12.57,7.84,6.19,15.92,1.4,15.25-8.41.5-15.94-12.05-24.61-24.77-31.21-14.13-7.26-31.59-9.12-47-5.61-3.68,1.06-8.31,2.41-9.75,6.32,1.65-6.72,15.76-8.38,21.66-8.75,12.15-.55,24.78,1.37,35.47,7.42,12.62,7,25.19,15.83,25,31.82.89,10.47-8,15.75-16.42,9.17-4.71-3.53-8.57-9-13.26-12.5-12.71-9.85-28.68-15.81-43.85-19.75Z"/><path class="cls-3" d="M168.3,68.51c.07,1.72-1.85,3.1-4.29,3.08s-4.47-1.43-4.54-3.15,1.85-3.09,4.29-3.07S168.23,66.8,168.3,68.51Z"/><path class="cls-4" d="M168.4,68.51c.15,2.27-2.32,4.11-4.5,4.12-2.38.09-5.14-1.44-5.27-4.15.4-5.06,9.08-4.64,9.77,0Zm-.21,0c-.11-3.53-7.84-3.51-7.88-.11.4,2.52,7.83,3.31,7.88.11Z"/><path class="cls-3" d="M176,69.54c.07,1.87-2.33,3-4.44,3s-4.11-1.5-4.18-3.37,1.6-4.27,3.71-4.25S175.91,67.67,176,69.54Z"/><path class="cls-4" d="M176.09,69.53a3.49,3.49,0,0,1-1.62,2.91c-2.5,2.07-6.95,1.07-7.85-2.25a5,5,0,0,1,3.66-5.8c2.87-.46,5.3,2.64,5.81,5.14Zm-.21,0c-.15-2-2.32-3.5-4.07-4s-3.33,1.3-3.55,3c-.63,3.29,7.33,4.44,7.62,1Z"/><path class="cls-3" d="M183.93,70.08c.08,1.87-2.32,3-4.43,3s-4.11-1.5-4.18-3.37,1.59-4.27,3.71-4.25S183.86,68.21,183.93,70.08Z"/><path class="cls-4" d="M184,70.07a3.47,3.47,0,0,1-1.62,2.9c-2.5,2.08-6.95,1.08-7.85-2.24a5,5,0,0,1,3.66-5.8c2.87-.46,5.3,2.63,5.81,5.14Zm-.21,0c-.15-2-2.32-3.5-4.07-4s-3.33,1.3-3.55,3c-.63,3.29,7.33,4.44,7.62,1Z"/><path class="cls-3" d="M191.86,70.94c-.15,1.74-2.2,2.92-4.57,2.63s-4.16-1.93-4-3.67,2.21-2.91,4.57-2.63S192,69.2,191.86,70.94Z"/><path class="cls-4" d="M192,71c-.77,5.52-9.82,4.42-9.52-1.12,1-5,9.47-3.64,9.52,1.12Zm-.21,0c.31-3.59-7.19-4.39-7.64-1,.09,2.65,7.16,4.13,7.64,1Z"/><path class="cls-3" d="M199.09,73.93c-.17,1.8-2.26,3-4.67,2.72s-4.25-2-4.09-3.78,2.25-3,4.67-2.72S199.25,72.14,199.09,73.93Z"/><path class="cls-4" d="M199.19,73.94c-.77,5.65-10,4.53-9.7-1.14,1-5.15,9.67-3.75,9.7,1.14Zm-.21,0c.33-3.72-7.35-4.56-7.82-1,.08,2.78,7.33,4.28,7.82,1Z"/><path class="cls-3" d="M205.61,76.67c.08,1.89-1.75,3.4-4.08,3.38s-4.28-1.56-4.35-3.44,1.75-3.4,4.08-3.38S205.54,74.79,205.61,76.67Z"/><path class="cls-4" d="M205.72,76.67c.06,6-9.07,5.75-9.38,0,.37-5.46,8.83-5,9.38,0Zm-.21,0c-.11-3.85-7.54-4-7.49-.11.43,3,7.35,3.64,7.49.11Z"/><path class="cls-3" d="M211.83,80.37c.08,2-1.86,3.56-4.33,3.54s-4.53-1.64-4.61-3.61,1.86-3.55,4.33-3.54S211.75,78.4,211.83,80.37Z"/><path class="cls-4" d="M211.94,80.37c0,6.17-9.56,6-9.89,0,.38-5.68,9.31-5.19,9.89,0Zm-.21,0c-.14-4.06-8-4.19-8-.11.46,3.17,7.84,3.86,8,.11Z"/><path class="cls-3" d="M218.41,84.71c.08,2-1.86,3.55-4.33,3.53s-4.53-1.63-4.61-3.6,1.86-3.56,4.33-3.54S218.34,82.73,218.41,84.71Z"/><path class="cls-4" d="M218.52,84.7c0,6.18-9.55,6-9.88,0,.37-5.68,9.3-5.19,9.88,0Zm-.21,0c-.14-4.06-8-4.18-8-.11.46,3.18,7.84,3.87,8,.11Z"/><path class="cls-3" d="M223.68,90c.08,2-1.86,3.56-4.33,3.54s-4.53-1.63-4.61-3.6,1.86-3.56,4.33-3.54S223.6,88,223.68,90Z"/><path class="cls-4" d="M223.79,90c0,6.17-9.56,6-9.89,0,.38-5.68,9.31-5.2,9.89,0Zm-.21,0c-.14-4.06-8-4.18-8-.11.46,3.18,7.84,3.86,8,.11Z"/><path class="cls-3" d="M227.46,95.89c.08,2-1.86,3.55-4.33,3.53s-4.53-1.63-4.61-3.6,1.86-3.56,4.33-3.54S227.38,93.91,227.46,95.89Z"/><path class="cls-4" d="M227.56,95.88c0,6.18-9.55,6-9.88,0,.38-5.68,9.3-5.2,9.88,0Zm-.21,0c-.14-4.06-8-4.18-8-.11.46,3.18,7.85,3.86,8,.11Z"/><path class="cls-3" d="M228.05,102.16c.06,1.75-1.62,3.16-3.76,3.14s-3.94-1.45-4-3.2S221.9,98.94,224,99,228,100.41,228.05,102.16Z"/><path class="cls-4" d="M228.15,102.15c.12,5.65-8.45,5.45-8.7,0,.35-5.13,8.19-4.7,8.7,0Zm-.21,0c-.07-3.53-6.89-3.64-6.82-.09.41,2.66,6.69,3.31,6.82.09Z"/><path class="cls-3" d="M159.89,71.87c.07,1.8-1.8,3.24-4.18,3.22s-4.36-1.49-4.43-3.28,1.8-3.24,4.18-3.23S159.82,70.08,159.89,71.87Z"/><path class="cls-4" d="M160,71.87c0,5.72-9.2,5.57-9.54,0,.34-5.24,9-4.8,9.54,0Zm-.21,0c-.14-3.68-7.63-3.74-7.66-.11.4,2.74,7.58,3.46,7.66.11Z"/><path class="cls-3" d="M166.9,74.31c.08,2-1.79,3.55-4.16,3.54s-4.37-1.64-4.45-3.61,1.79-3.56,4.16-3.54S166.82,72.34,166.9,74.31Z"/><path class="cls-4" d="M167,74.3c.1,6.2-9.25,6-9.54,0,.37-5.66,9-5.21,9.54,0Zm-.21,0c-.08-4-7.75-4.18-7.66-.1.46,3.19,7.49,3.84,7.66.1Z"/><path class="cls-3" d="M173.23,76.74c.08,2-1.78,3.55-4.16,3.54s-4.36-1.64-4.44-3.61,1.86-3.71,4.24-3.7A4.25,4.25,0,0,1,173.23,76.74Z"/><path class="cls-4" d="M173.34,76.73c.09,6.26-9.45,5.92-9.54-.15.63-5.64,8.91-5.38,9.54.15Zm-.21,0c-.08-4.18-7.62-4.34-7.66-.17.35,3.25,7.49,3.94,7.66.17Z"/><path class="cls-3" d="M179.93,75.36c.07,1.89-1.64,3.4-3.83,3.38A3.93,3.93,0,0,1,172,75.3c-.08-1.89,1.64-3.4,3.83-3.38A3.94,3.94,0,0,1,179.93,75.36Z"/><path class="cls-4" d="M180,75.36c.18,6-8.64,5.73-8.87,0,.36-5.43,8.36-5,8.87,0Zm-.21,0c0-3.79-7.15-4-7-.1.43,3,6.84,3.6,7,.1Z"/><path class="cls-3" d="M187.27,77.64c.08,2.06-1.93,3.71-4.49,3.69s-4.71-1.7-4.79-3.76,1.93-3.72,4.49-3.7S187.19,75.58,187.27,77.64Z"/><path class="cls-4" d="M187.37,77.64c0,6.39-9.88,6.16-10.22,0,.38-5.89,9.63-5.4,10.22,0Zm-.21,0c-.14-4.25-8.35-4.4-8.33-.11.46,3.39,8.17,4.07,8.33.11Z"/><path class="cls-3" d="M195.08,79.05c.09,2.1-1.92,3.79-4.48,3.77s-4.71-1.74-4.8-3.84,1.93-3.8,4.49-3.78S195,77,195.08,79.05Z"/><path class="cls-4" d="M195.19,79.05c.06,6.5-9.89,6.25-10.22,0,.38-6,9.62-5.51,10.22,0Zm-.21,0c-.12-4.33-8.4-4.5-8.34-.11.49,3.5,8.14,4.17,8.34.11Z"/><path class="cls-3" d="M202.32,82.92c.08,2.1-1.93,3.79-4.49,3.77S193.12,85,193,82.84s1.93-3.79,4.49-3.77S202.24,80.81,202.32,82.92Z"/><path class="cls-4" d="M202.43,82.91c.06,6.51-9.9,6.26-10.23,0,.39-6,9.63-5.52,10.23,0Zm-.21,0c-.13-4.34-8.41-4.51-8.34-.11.49,3.5,8.14,4.17,8.34.11Z"/><path class="cls-3" d="M208.21,86.77A4.4,4.4,0,0,1,203.74,91c-2.56,0-4.2-1.58-4.28-3.68a4.39,4.39,0,0,1,8.75-.57Z"/><path class="cls-4" d="M208.31,86.77c.27,6.7-9.55,7.25-9.69.46a4.86,4.86,0,0,1,9.69-.46Zm-.21,0c0-2.29-2.47-3.54-4.48-3.32a3.63,3.63,0,0,0-3.32,3.77c.37,4,7.67,3.53,7.8-.45Z"/><path class="cls-3" d="M214.63,91.42c.08,1.89-2.19,4.11-4.47,4.09S206,94,205.89,92.07a4,4,0,0,1,3.89-4C212.06,88.07,214.56,89.54,214.63,91.42Z"/><path class="cls-4" d="M214.74,91.42a5.19,5.19,0,0,1-4.19,5.12,4.86,4.86,0,0,1-5.5-4.41,4.69,4.69,0,0,1,4.85-4.6c2.14.23,4.48,1.65,4.84,3.89Zm-.21,0c-.13-2.18-2.87-2.93-4.66-2.85a3.33,3.33,0,0,0-3.14,3.47c.77,3.53,7.44,3,7.8-.62Z"/><path class="cls-3" d="M219.88,98.4a4.05,4.05,0,0,1-5.42,1.6,3.91,3.91,0,0,1-2.33-5,4.08,4.08,0,0,1,5.43-1.6A3.9,3.9,0,0,1,219.88,98.4Z"/><path class="cls-4" d="M220,98.45c-2.61,5.67-11.11,1.9-8.61-3.85,2.77-4.86,10.57-1.31,8.61,3.85Zm-.19-.09c1.83-3.89-5.27-6.82-6.9-3.06-1.08,3.31,5.12,6.26,6.9,3.06Z"/><path class="cls-3" d="M221.85,105.56c-.85,1.84-3.28,2.55-5.42,1.6a3.91,3.91,0,0,1-2.33-5,4.07,4.07,0,0,1,5.43-1.6A3.9,3.9,0,0,1,221.85,105.56Z"/><path class="cls-4" d="M222,105.6c-2.61,5.67-11.11,1.9-8.61-3.85,2.77-4.85,10.57-1.31,8.61,3.85Zm-.19-.09c1.83-3.88-5.27-6.82-6.9-3.05-1.08,3.3,5.12,6.25,6.9,3.05Z"/><path class="cls-3" d="M226.27,110.51a3.78,3.78,0,0,1-5,1.8,3.64,3.64,0,0,1-1.88-4.85,3.79,3.79,0,0,1,5-1.8A3.64,3.64,0,0,1,226.27,110.51Z"/><path class="cls-4" d="M226.36,110.56c-2.47,5.8-10.3,2.2-7.71-3.45,2.67-4.78,9.78-1.79,7.71,3.45Zm-.19-.09c1.84-3.81-4.44-6.49-6-2.66-1.2,3.27,4.32,5.79,6,2.66Z"/><path class="cls-3" d="M153.86,74.83a3.42,3.42,0,0,1-2.41,4.47,4.1,4.1,0,0,1-5.11-2,3.43,3.43,0,0,1,2.41-4.48A4.1,4.1,0,0,1,153.86,74.83Z"/><path class="cls-4" d="M154,74.78c1.69,4-1.93,6.76-5.63,4.8-2.13-.8-3.94-3.29-2.59-5.57a4.44,4.44,0,0,1,8.22.77Zm-.19.09c-.8-1.76-3.15-1.41-4.56-1a3,3,0,0,0-2.34,3.23c.37,2,2.69,2.34,4.2,1.38,1.34-.68,3.46-1.78,2.7-3.63Z"/><path class="cls-3" d="M161,79.18c.07,1.89-1.75,3.4-4.08,3.38s-4.28-1.56-4.36-3.44,1.76-3.4,4.09-3.38S161,77.3,161,79.18Z"/><path class="cls-4" d="M161.12,79.18c.07,6-9.07,5.75-9.37,0,.36-5.46,8.82-5,9.37,0Zm-.2,0c-.11-3.85-7.54-4-7.5-.11.44,3,7.35,3.64,7.5.11Z"/><path class="cls-3" d="M168,79.79c.83,1.75-.22,3.83-2.34,4.65s-4.51.06-5.34-1.69.21-3.83,2.34-4.65S167.15,78,168,79.79Z"/><path class="cls-4" d="M168.07,79.75c2.5,5.62-6.06,8.61-8.53,3.35-1.85-5.28,6.05-7.9,8.53-3.35Zm-.18.09c-1.51-3.53-8.5-1.12-6.84,2.55,1.58,2.65,8.11.93,6.84-2.55Z"/><path class="cls-3" d="M180.64,81.12c.29,1.87-1.34,3.57-3.64,3.8s-4.42-1.11-4.71-3,1.33-3.58,3.63-3.8S180.34,79.24,180.64,81.12Z"/><path class="cls-4" d="M180.74,81.1c.76,6-8.34,6.67-9.28,1-.26-5.52,8.15-5.91,9.28-1Zm-.21,0c-.52-3.79-7.92-3.2-7.42.67.77,2.91,7.69,2.92,7.42-.67Z"/><path class="cls-3" d="M187.21,84.71c0,1.88-1.83,3.36-4.16,3.29s-4.25-1.65-4.28-3.53,1.83-3.36,4.16-3.29S187.18,82.82,187.21,84.71Z"/><path class="cls-4" d="M187.32,84.71c-.07,6-9.21,5.57-9.39-.23.49-5.43,8.95-4.81,9.39.23Zm-.21,0c0-3.85-7.46-4.11-7.5-.25.37,3,7.28,3.77,7.5.25Z"/><path class="cls-3" d="M195.06,87c0,1.93-2.27,3.21-4.6,3.14s-4.48-1.44-4.52-3.37,2.15-4,4.48-3.93S195,85.06,195.06,87Z"/><path class="cls-4" d="M195.17,87c.07,2.45-2.7,4.25-5,4.17-2.56.06-5.61-2.17-5-5a5.16,5.16,0,0,1,5.66-3.81A5.61,5.61,0,0,1,195.17,87ZM195,87c0-2.11-2.39-3.53-4.26-3.62a3.87,3.87,0,0,0-3.89,3c-.24,3.09,8,4,8.15.58Z"/><path class="cls-3" d="M175.72,82.93a3.79,3.79,0,0,1-2.35,5.12,4.56,4.56,0,0,1-5.74-2A3.79,3.79,0,0,1,170,80.93,4.55,4.55,0,0,1,175.72,82.93Z"/><path class="cls-4" d="M175.82,82.89c2.81,6.16-6.29,9.27-8.94,3.52-2.07-5.81,6.22-8.6,8.94-3.52Zm-.19.09c-1.68-4-9.24-1.48-7.24,2.71,1.8,3.18,8.68,1.27,7.24-2.71Z"/><path class="cls-3" d="M200.76,90.36a3.7,3.7,0,0,1-4,3.62,4.15,4.15,0,0,1-4.28-3.68,3.7,3.7,0,0,1,4-3.62A4.15,4.15,0,0,1,200.76,90.36Z"/><path class="cls-4" d="M200.87,90.36c.21,6.31-9,6-9.21,0,.32-5.69,8.67-5.39,9.21,0Zm-.21,0c0-4.07-7.54-4.29-7.33-.11.44,3.31,7.14,3.91,7.33.11Z"/><path class="cls-3" d="M207.32,94.14c.08,2-1.71,3.56-4,3.54a4.12,4.12,0,0,1-4.28-3.6c-.08-2,1.71-3.56,4-3.54A4.11,4.11,0,0,1,207.32,94.14Z"/><path class="cls-4" d="M207.42,94.14c.16,6.21-8.95,5.94-9.2,0,.36-5.65,8.68-5.23,9.2,0Zm-.21,0c0-4-7.49-4.18-7.32-.11.46,3.21,7.13,3.82,7.32.11Z"/><path class="cls-3" d="M213.23,98.63c.08,2-1.82,3.56-4.24,3.54s-4.45-1.63-4.53-3.61S206.28,95,208.7,95,213.15,96.66,213.23,98.63Z"/><path class="cls-4" d="M213.34,98.63c.06,6.18-9.41,6-9.72,0,.37-5.67,9.15-5.2,9.72,0Zm-.21,0c-.11-4-7.89-4.19-7.83-.11.44,3.18,7.67,3.85,7.83.11Z"/><path class="cls-3" d="M215.44,104.65a3.71,3.71,0,0,1-4.48,2.88,4,4,0,0,1-3.56-4.15c.26-1.95,2.85-3,5.07-2.61A3.25,3.25,0,0,1,215.44,104.65Z"/><path class="cls-4" d="M215.55,104.66c-.79,6-9.56,4.62-9-1.27.35-2.53,3.32-3.49,5.51-3.19a3.87,3.87,0,0,1,3.48,4.46Zm-.21,0c.44-2.14-1.38-3.49-3.35-3.39-1.47,0-3.72.71-3.76,2.32,0,3.19,6.34,4.58,7.11,1.07Z"/><path class="cls-3" d="M219.54,110.08a3.72,3.72,0,0,1-4.49,2.88,4,4,0,0,1-3.56-4.15c.26-2,2.86-3,5.08-2.61A3.26,3.26,0,0,1,219.54,110.08Z"/><path class="cls-4" d="M219.64,110.09c-.78,6-9.56,4.61-9-1.27.35-2.53,3.33-3.49,5.51-3.2a3.88,3.88,0,0,1,3.48,4.47Zm-.21,0c.44-2.15-1.37-3.49-3.35-3.39-1.47,0-3.71.71-3.76,2.32,0,3.19,6.35,4.58,7.11,1.07Z"/><path class="cls-3" d="M222.45,115.09a3.24,3.24,0,0,1-3.91,2.52,3.44,3.44,0,0,1-3.1-3.63c.22-1.7,2.49-2.59,4.42-2.28A2.85,2.85,0,0,1,222.45,115.09Z"/><path class="cls-4" d="M222.55,115.1c-.66,5.45-8.49,4.19-8-1.11.31-2.27,3-3.13,4.92-2.86a3.45,3.45,0,0,1,3,4Zm-.2,0c.39-1.87-1.21-3-2.91-2.89-1.24,0-3.16.63-3.18,2,.05,2.6,5.46,3.87,6.09.92Z"/><path class="cls-3" d="M182.41,87.56a3.47,3.47,0,0,1-3.19,4,4,4,0,0,1-4.64-2.87,3.47,3.47,0,0,1,3.19-4A4,4,0,0,1,182.41,87.56Z"/><path class="cls-4" d="M182.51,87.54c1.22,6-7.61,7-8.75,1.32-.58-5.52,7.38-6.39,8.75-1.32Zm-.2,0c-.62-3.79-7.77-3-6.91.94.92,3,7.32,2.7,6.91-.94Z"/><path class="cls-3" d="M190.34,91.79c-.4,1.86-2.64,2.93-5,2.39s-4-2.49-3.57-4.36,2.64-2.93,5-2.39S190.74,89.92,190.34,91.79Z"/><path class="cls-4" d="M190.44,91.81c-1.39,5.79-10.57,3.68-9.5-2.16,1.63-5.19,10.18-2.94,9.5,2.16Zm-.2,0c.78-3.92-6.74-5.52-7.66-1.76-.3,3.07,6.72,5.15,7.66,1.76Z"/><path class="cls-3" d="M197.79,96.21c-.4,1.87-2.84,2.7-5.21,2.16s-4.7-2-4.3-3.82,3.37-3.48,5.74-2.94S198.18,94.34,197.79,96.21Z"/><path class="cls-4" d="M197.89,96.23c-1,3.91-6.54,3.94-9.17,1.51-1.08-.84-1.82-2.71-1.05-4a5.9,5.9,0,0,1,6.46-2.65,5.12,5.12,0,0,1,3.76,5.13Zm-.2,0c.46-2.19-1.92-3.8-3.79-4.07-1.71-.29-4.05.74-4.7,2.31-.56,1.29,1.6,2.26,3.37,2.85s4.41,1.1,5.12-1.09Z"/><path class="cls-3" d="M204.67,99.52c.07,2-1.75,3.55-4.08,3.54s-4.28-1.64-4.36-3.61,1.75-3.56,4.08-3.54S204.59,97.54,204.67,99.52Z"/><path class="cls-4" d="M204.77,99.51c.13,6.2-9.1,5.95-9.38,0,.37-5.65,8.84-5.22,9.38,0Zm-.21,0c-.06-4-7.62-4.18-7.49-.1.44,3.19,7.32,3.82,7.49.1Z"/><path class="cls-3" d="M209,105.39c-.4,1.74-2.47,2.72-4.61,2.2s-3.55-2.37-3.14-4.1,2.46-2.72,4.61-2.2S209.4,103.66,209,105.39Z"/><path class="cls-4" d="M209.09,105.42c-1.37,5.51-9.82,3.4-8.67-2.12,1.63-4.86,9.41-2.69,8.67,2.12Zm-.2,0c.84-3.6-6-5.16-6.84-1.69-.29,2.79,5.9,4.76,6.84,1.69Z"/><path class="cls-4" d="M119.22,76.68c0-.07,0,0,.07-.05h.13a10.41,10.41,0,0,1,7.08,3.09c1,1,1.63,2.08,2.76,2.25,2.44.31,3.3-2.35,1.76-4-3-3.19-8.05-2.46-11.8-1.25Zm-.1,0c3.6-1.59,8.2-2.34,11.64.07a4,4,0,0,1,1.78,3.75,3.16,3.16,0,0,1-5.44,1.39,13.13,13.13,0,0,0-8-5.21Z"/><path class="cls-4" d="M131.47,68.78c.66,2.66,2,6.21,4.92,7a1.61,1.61,0,0,0,1.89-1.08.5.5,0,0,1,.47-.39,4.57,4.57,0,0,0,2.85-1,3.61,3.61,0,0,0,1.19-2.68l.32.43a9.61,9.61,0,0,1-6.59-6.76l.46.15a5.1,5.1,0,0,0-1,1.42,6.63,6.63,0,0,0-.28,5.24.14.14,0,0,1-.09.19,5,5,0,0,1-4.12-2.57Zm0-.09a5.22,5.22,0,0,0,4.09,2.38l-.13.19a8.2,8.2,0,0,1-.47-1.83,6.5,6.5,0,0,1,1.66-5.35.28.28,0,0,1,.46.15,8.91,8.91,0,0,0,6.27,6.06.42.42,0,0,1,.31.42,4.62,4.62,0,0,1-4.87,4.64l.51-.39a2.56,2.56,0,0,1-3.07,1.76c-3.21-1-4.8-5-4.76-8Z"/><g class="cls-6"><path class="cls-4" d="M225,129.59c-.12,14.53-10.05,27.82-23.1,33.68a51.64,51.64,0,0,1-9.29,3.32c17-5.66,30.49-18.56,32.39-37Z"/></g></svg>