<svg id="Layer_1" data-name="Layer 1" xmlns="http://www.w3.org/2000/svg" width="311.74" height="262.21" viewBox="0 0 311.74 262.21">
  <defs>
    <style>
      .cls-1, .cls-2 {
        fill: none;
        stroke-linejoin: round;
      }

      .cls-1 {
        stroke: #000;
        stroke-width: 15px;
        opacity: 0.5;
      }

      .cls-1, .cls-10, .cls-11, .cls-12, .cls-13, .cls-14, .cls-15, .cls-16, .cls-17, .cls-18, .cls-19, .cls-2, .cls-20, .cls-21, .cls-23, .cls-24, .cls-25, .cls-26, .cls-3, .cls-4, .cls-5, .cls-6, .cls-7, .cls-8, .cls-9 {
        fill-rule: evenodd;
      }

      .cls-2 {
        stroke: #fffa4d;
        stroke-width: 18px;
      }

      .cls-3 {
        fill: #239494;
        stroke: #146664;
      }

      .cls-14, .cls-15, .cls-18, .cls-20, .cls-21, .cls-23, .cls-24, .cls-3, .cls-6, .cls-9 {
        stroke-miterlimit: 10;
      }

      .cls-3, .cls-6, .cls-9 {
        stroke-width: 0.75px;
      }

      .cls-4 {
        fill: #208080;
      }

      .cls-5 {
        fill: #366;
      }

      .cls-6 {
        fill: #24abab;
        stroke: #146866;
      }

      .cls-7 {
        fill: #209999;
      }

      .cls-8 {
        fill: #418080;
      }

      .cls-9 {
        fill: #73d1cc;
        stroke: #419e97;
      }

      .cls-10 {
        fill: #9cc;
      }

      .cls-11 {
        fill: #822260;
      }

      .cls-12 {
        fill: #994b99;
      }

      .cls-13 {
        fill: #5abfba;
      }

      .cls-14 {
        fill: #c96ebd;
        stroke: #993a90;
      }

      .cls-14, .cls-15, .cls-18, .cls-20, .cls-21, .cls-23, .cls-24 {
        stroke-width: 0.5px;
      }

      .cls-15, .cls-19 {
        fill: #a33484;
      }

      .cls-15, .cls-18, .cls-21, .cls-24 {
        stroke: #891989;
      }

      .cls-16, .cls-24 {
        fill: #ab388e;
      }

      .cls-17 {
        fill: #a854a8;
      }

      .cls-18 {
        fill: #a83799;
      }

      .cls-20 {
        fill: #a63786;
        stroke: #7a1f64;
      }

      .cls-21 {
        fill: #912f7d;
      }

      .cls-22 {
        fill: #a13092;
      }

      .cls-23 {
        fill: #962c78;
        stroke: #701c5c;
      }

      .cls-25 {
        fill: #b043a1;
      }

      .cls-26 {
        fill: #b54ba7;
      }
    </style>
  </defs>
  <g>
    <path class="cls-1" d="M300.82,93.69l.36-.16c-3-1-13-5.57-26.3-12h0l-6.06-2.91h0c-4.2-2-8.64-4.17-13.23-6.42h0c-2-1-4-2-6.07-3h0L236.2,62.75h0l-15.49-7.63-9.4-4.66A19.88,19.88,0,0,0,211,38.24c0-.08-.05-.17-.08-.26l0,0a17.22,17.22,0,0,0-2.58-4.49c-7.09-10.26-25-17.48-35-15.33A15.4,15.4,0,0,0,168,20.31c-.23.15-.45.36-.59.47l.06,0-.08.05a13.59,13.59,0,0,0-4,5.86c-3.1-1.54-4.87-2.41-4.89-2.41l-11.94,5.8a26.25,26.25,0,0,0-12.67-10.11l-.25-.07h.06a.84.84,0,0,0-.18,0,6,6,0,0,0-.79-.14c-1.7-.32-5.85-1.05-7.4-.61-8.76,2.82-19.43,19.37-23.23,32.34,0,.08,0,.16-.08.25l-6.41,3.11h0L78.26,63.23h0L15.89,93.53l.94,27.3.84.4.68,64.28L73.2,211.65l1.91.92h0l14.08,6.71,1.35.64h0l67.73,32.29h0l.1,0,.17-.07h0l140.18-66.85.67-63.19.85-.4ZM188,28.72c1.23.19,2.41.44,3.56.73.95,1.18,1.92,2.48,2.88,3.91,2.77,4,3.82,7.45,3.71,10.55L178.78,34.3C181.31,30.39,184.26,28.16,188,28.72ZM113.22,46.26c.13-.51.25-1,.4-1.53.07-.23.14-.44.21-.66,2.08-3,4.31-6,6.54-8.86,4.7-3.07,8.8-1.93,12.42,1.55Z"/>
    <path class="cls-2" d="M295.92,88.79l.36-.17c-3-1-13-5.56-26.3-11.94h0l-6.06-2.9h0c-4.19-2-8.63-4.18-13.22-6.42h0c-2-1-4-1.95-6.07-3h0L231.3,57.85h0l-15.49-7.63-9.41-4.66a19.81,19.81,0,0,0-.34-12.22c0-.08,0-.17-.08-.26l0,0a17.22,17.22,0,0,0-2.58-4.49c-7.09-10.26-25-17.48-35-15.33a15.4,15.4,0,0,0-5.22,2.17c-.23.15-.45.36-.59.47l.06,0-.08.05a13.59,13.59,0,0,0-4,5.86c-3.1-1.54-4.87-2.42-4.9-2.41l-11.93,5.8A26.22,26.22,0,0,0,129,15l-.24-.07h.06a1,1,0,0,0-.18,0,5.84,5.84,0,0,0-.8-.14c-1.69-.32-5.85-1.05-7.39-.61C111.71,17,101,33.56,97.24,46.53c0,.08,0,.16-.08.25l-6.41,3.11h0L73.36,58.33h0L11,88.62l.94,27.31.84.39.68,64.28L68.3,206.75l1.91.92h0l14.08,6.71,1.35.64h0l67.73,32.29h0l.1,0,.16-.08v0l140.19-66.85.67-63.19.85-.4Zm-112.86-65c1.23.19,2.41.44,3.56.73.95,1.18,1.92,2.48,2.88,3.91,2.77,4,3.82,7.45,3.71,10.55-7.1-3.53-13.67-6.79-19.33-9.62C176.41,25.49,179.36,23.26,183.06,23.82ZM108.32,41.36c.13-.51.24-1,.4-1.53.07-.24.14-.44.21-.66,2.08-3,4.31-6,6.54-8.86,4.7-3.07,8.8-1.93,12.42,1.55Z"/>
    <g>
      <polygon class="cls-3" points="12.76 115.17 153.68 174.06 153.66 247.28 153.47 247.36 13.45 180.6 12.76 115.17"/>
      <polygon class="cls-4" points="19.65 117.55 24.51 119.57 24.51 185.37 19.65 183.05 19.65 117.55"/>
      <polygon class="cls-4" points="34.7 124.01 39.56 126.05 39.56 192.72 34.7 190.4 34.7 124.01"/>
      <polygon class="cls-4" points="50 130.31 54.84 132.35 54.84 199.93 50 197.61 50 130.31"/>
      <polygon class="cls-4" points="65.38 137.16 70.21 139.18 70.21 207.67 65.38 205.35 65.38 137.16"/>
      <polygon class="cls-4" points="80.8 143.6 85.64 145.62 85.64 215.02 80.8 212.7 80.8 143.6"/>
      <polygon class="cls-4" points="96.22 149.8 101.06 151.82 101.06 222.13 96.22 219.81 96.22 149.8"/>
      <polygon class="cls-4" points="111.65 156.06 116.49 158.08 116.49 229.3 111.65 226.98 111.65 156.06"/>
      <polygon class="cls-4" points="127.05 162.47 131.91 164.5 131.91 236.62 127.05 234.3 127.05 162.47"/>
      <polygon class="cls-4" points="142.57 169.1 147.43 171.14 147.43 244.16 142.57 241.87 142.57 169.1"/>
      <polygon class="cls-5" points="12.72 107.75 153.68 171.95 153.68 188.61 12.84 121.59 12.72 107.75"/>
      <polygon class="cls-3" points="10.99 88.63 153.68 151.24 153.68 182.15 11.93 115.93 10.99 88.63"/>
      <polygon class="cls-6" points="294.51 115.17 153.59 180.71 153.63 247.3 293.82 180.45 294.51 115.17"/>
      <polygon class="cls-7" points="162.76 175.9 157.9 178.16 157.9 244.69 162.76 242.37 162.76 175.9"/>
      <polygon class="cls-7" points="178.18 168.88 173.33 171.13 173.33 237.5 178.18 235.18 178.18 168.88"/>
      <polygon class="cls-7" points="193.61 161.78 188.75 164.03 188.75 230.2 193.61 227.9 193.61 161.78"/>
      <polygon class="cls-7" points="209.03 154.93 204.18 157.18 204.18 222.79 209.03 220.5 209.03 154.93"/>
      <polygon class="cls-7" points="224.44 147.77 219.6 150.03 219.6 215.5 224.5 213.14 224.44 147.77"/>
      <polygon class="cls-7" points="239.86 140.59 235.03 142.85 235.03 208.47 239.86 206.18 239.86 140.59"/>
      <polygon class="cls-7" points="255.29 133.08 250.45 135.34 250.45 200.79 255.29 198.5 255.29 133.08"/>
      <polygon class="cls-7" points="270.63 125.9 265.8 128.16 265.8 193.44 270.63 191.14 270.63 125.9"/>
      <polygon class="cls-7" points="286.14 118.74 281.3 121 281.3 186.09 286.14 183.76 286.14 118.74"/>
      <polygon class="cls-8" points="294.57 107.75 153.59 171.97 153.59 188.61 294.43 121.57 294.57 107.75"/>
      <polygon class="cls-6" points="295.92 88.78 153.59 151.24 153.68 182.15 295.34 116.86 295.92 88.78"/>
      <path class="cls-9" d="M296.28,88.62,153.64,153.69,11,88.62,153.64,19.35c.2-.06,130.18,65.26,142.64,69.27Z"/>
      <path class="cls-10" d="M296.28,88.62,154.2,153.54l.13,28.28-.65.32-.84-.39-.26-28.19L11.16,88.69l142.48,63.42ZM153.88,247.17l-.41.19-.1,0-.47-59.08.71.35.59-.26Z"/>
      <polygon class="cls-11" points="62.98 112.33 85.72 122.72 84.19 214.33 63.77 204.59 62.98 112.33"/>
      <polygon class="cls-12" points="244.29 112.33 221.55 122.72 223.08 214.18 243.5 204.44 244.29 112.33"/>
      <polygon class="cls-13" points="30.2 97.66 24.2 94.92 20.89 84.1 25.4 81.91 30.2 97.66"/>
      <polygon class="cls-13" points="48.7 106.16 42.7 103.42 34.8 77.48 39.29 75.29 48.7 106.16"/>
      <polygon class="cls-13" points="67.96 114.77 61.97 112.02 49.29 70.42 53.78 68.23 67.96 114.77"/>
      <polygon class="cls-13" points="87.09 123.53 81.09 120.77 63.63 63.49 68.13 61.32 87.09 123.53"/>
      <polygon class="cls-13" points="105.92 131.91 99.92 129.18 77.69 56.24 82.18 54.05 105.92 131.91"/>
      <polygon class="cls-13" points="125.21 140.88 119.22 138.15 92.19 49.53 96.7 47.34 125.21 140.88"/>
      <polygon class="cls-13" points="144.24 149.72 138.22 146.99 106.44 42.69 110.95 40.5 144.24 149.72"/>
      <polygon class="cls-13" points="160.46 148.94 155.91 151 120.77 35.65 125.28 33.46 160.46 148.94"/>
      <polygon class="cls-13" points="174.96 142.62 170.41 144.64 134.98 28.42 139.49 26.23 174.96 142.62"/>
      <path class="cls-13" d="M189.58,136.3l-4.53,2.08L149.48,21.76l4.33-2.1.22.11Z"/>
      <polygon class="cls-13" points="203.94 129.66 199.41 131.72 167.61 26.81 173.71 29.84 203.94 129.66"/>
      <polygon class="cls-13" points="218.19 123.45 213.81 125.41 186.54 35.94 192.63 38.95 218.19 123.45"/>
      <path class="cls-13" d="M232.94,117.66l-4.55,2.08L205.77,45.53l6.1,3Z"/>
      <path class="cls-13" d="M247.25,110.48l-4.53,2.06-17.45-57.3c2,1,4.07,2,6.08,3Z"/>
      <path class="cls-13" d="M261.84,103.91l-4.57,2L244.62,64.38c2,1,4.06,2,6.07,3Z"/>
      <path class="cls-13" d="M276.38,97.69l-4.53,2.08-7.93-26,6.06,2.9Z"/>
      <path class="cls-13" d="M290.81,91.1l-4.53,2.08-3.13-10c2.23,1,4.25,2,6,2.75Z"/>
      <polygon class="cls-14" points="90.74 49.89 73.36 58.33 221.57 122.72 244.29 112.33 90.74 49.89"/>
      <polygon class="cls-14" points="214.28 49.46 231.31 57.85 85.72 122.72 63 112.33 214.28 49.46"/>
      <path class="cls-15" d="M156.44,137.92c-11.34-8.72-18.62-29.69-11.5-44.52a84.33,84.33,0,0,1,9.22-14.67l-6.76-4.07C139.06,82,131.85,91,129.7,97.52c-5.84,17.56,1.11,32.49,8.84,41.7Z"/>
      <path class="cls-16" d="M156.44,137.92c-9.9-7.63-16.71-24.59-13.54-38.65a32.37,32.37,0,0,0-14,.76c-4.41,16.49,2.24,30.41,9.6,39.19Z"/>
      <path class="cls-17" d="M156.44,137.92c-6.71-5.16-12-14.62-13.72-24.53-5.14.52-10.34,1.72-14.89,2.13a46.14,46.14,0,0,0,10.71,23.7Z"/>
      <path class="cls-18" d="M151.52,72.25c8.84,5.42,18.07,11.5,31.18,11.67,5.34,0,12.31-2.21,17.33-4s11.16-7.7,14-10.65c-3,7.22,1.65,15.35,1.06,19.28-6.87,4.66-18.9,7.91-25.67,8.33a40.15,40.15,0,0,1-16.17-3c-7.42-2.76-14.84-7-21.42-10.8-1.24-.72-2.48-1.41-3.74-2.06Z"/>
      <path class="cls-19" d="M160.91,77.8c6.26,3.34,13.17,6,21.79,6.12a26,26,0,0,0,3.73-.28c.33,3.64.64,9.56.59,13.27a58.44,58.44,0,0,1-15-2.3c-5.73-1.76-11.3-4.71-16.93-8a24.92,24.92,0,0,1-6.89-5.57l3.66-7.31c3.19,1.67,5.83,2.32,9.06,4Z"/>
      <path class="cls-20" d="M153.59,76.85c-1-4.84-2.52-18.07-4.81-31a74.72,74.72,0,0,0-4.25-15.46C140.81,21.56,134.21,16.86,129,15c-2.07-.68-3.63,0-5.93,1.15-12.9,6.55-30,29.77-23.76,39.43,2.56-6.53,9.33-16.55,16.14-25.31,17.88-11.65,27.19,37.1,33.35,46.78Z"/>
      <path class="cls-21" d="M152.23,80.47c-9,1.19-31.29-5.12-42.55-8.83-10.1-3.25-17-12.55-12.44-25.11,3.8-13,14.47-29.52,23.23-32.34,1.69-.48,6.52.43,7.82.69.12.07.41,0,.55.09-5.38-.15-14.06,4.38-20.12,24.86-4.59,15.59,2.77,18.58,11.28,22,7.32,2.84,28.84,11.49,34.43,14.22Z"/>
      <path class="cls-22" d="M124.07,76c-5.35-1.45-10.55-3-14.39-4.34-8-2.56-14-9-13.86-17.8a27.11,27.11,0,0,1,10-9.22c.63-.35,1.28-.69,1.93-1C105.39,55.94,112.22,58.67,120,61.8c2.77,1,7.52,3,12.68,5.07-2.44,2.91-5.48,6-8.61,9.11Z"/>
      <path class="cls-23" d="M150.14,75.55c2.19-3.36,2.91-18.31,4.84-32.3.83-5.87,1.56-15.33,3-20.12a14.48,14.48,0,0,1,4.5-7.23A10.82,10.82,0,0,1,169,13.8c15.2-.8,38.59,12,34.06,24.49-.45-3.19-2.58-6.34-6-8.92a31.1,31.1,0,0,0-14-5.55c-9.71-1.47-14.33,16.27-19.49,33.31-1.91,6.34-5.06,14-6.79,19.28Z"/>
      <path class="cls-24" d="M155.59,79.3c9.91-3.8,29.75-9.09,41-18.74,10.16-8.68,14.34-22.53,6.8-32-7.09-10.26-25-17.48-35-15.33a15.4,15.4,0,0,0-5.22,2.17c-.23.15-.45.36-.59.47,5.71-3.12,16.07-3.55,27,12.58,8.42,12.21,1.16,19.22-7.27,27.07-7.13,6.72-24.63,15.16-29.9,20.86Z"/>
      <path class="cls-25" d="M180,70.3c2.73-1.22,5.41-2.5,7.93-3.88a53.89,53.89,0,0,0,9-6.08C205.42,53,209.18,41.78,206,33.08c-5.81-4.34-12.09-6.85-17.09-5.51.23.28.39.61.61.89,8.42,12.21,1.16,19.22-7.27,27.07-3.21,3-8.68,6.53-14.19,9.87,2.81,3.18,2.3,8.95,12,4.9Z"/>
      <path class="cls-26" d="M152,73.51c2.62,0,6,3.34,5.45,5s-2.55,4.73-5.17,4.73c-1.34,0-2.94-1.26-4.08-2s-1.73-.82-1.73-2.32A5.75,5.75,0,0,1,152,73.51Z"/>
    </g>
  </g>
</svg>
