<svg xmlns="http://www.w3.org/2000/svg" xmlns:xlink="http://www.w3.org/1999/xlink" width="248.48" height="227.74" viewBox="0 0 248.48 227.74">
  <defs>
    <style>
      .cls-1 {
        mask: url(#mask);
        filter: url(#luminosity-noclip-6);
      }

      .cls-10, .cls-16, .cls-2, .cls-20, .cls-22, .cls-34, .cls-36, .cls-4, .cls-6, .cls-8 {
        mix-blend-mode: multiply;
      }

      .cls-2 {
        fill: url(#radial-gradient);
      }

      .cls-3 {
        mask: url(#mask-2);
        filter: url(#luminosity-noclip-7);
      }

      .cls-4 {
        fill: url(#radial-gradient-2);
      }

      .cls-5 {
        mask: url(#mask-3);
        filter: url(#luminosity-noclip-8);
      }

      .cls-6 {
        fill: url(#radial-gradient-3);
      }

      .cls-7 {
        mask: url(#mask-4);
        filter: url(#luminosity-noclip-10);
      }

      .cls-8 {
        fill: url(#radial-gradient-4);
      }

      .cls-9 {
        mask: url(#mask-5);
        filter: url(#luminosity-noclip-11);
      }

      .cls-10 {
        fill: url(#radial-gradient-5);
      }

      .cls-11 {
        isolation: isolate;
      }

      .cls-12 {
        opacity: 0.5;
      }

      .cls-13 {
        fill: #fff;
      }

      .cls-14 {
        fill: url(#linear-gradient);
      }

      .cls-15 {
        mask: url(#mask-6);
      }

      .cls-16, .cls-20, .cls-22, .cls-34, .cls-36 {
        opacity: 0.6;
      }

      .cls-16 {
        fill: url(#radial-gradient-6);
      }

      .cls-17, .cls-18 {
        stroke: #686b6b;
        stroke-miterlimit: 10;
      }

      .cls-17 {
        stroke-width: 2px;
        fill: url(#linear-gradient-2);
      }

      .cls-18, .cls-29 {
        fill: #f1f2f2;
      }

      .cls-19 {
        mask: url(#mask-7);
      }

      .cls-20 {
        fill: url(#radial-gradient-7);
      }

      .cls-21 {
        mask: url(#mask-8);
      }

      .cls-22 {
        fill: url(#radial-gradient-8);
      }

      .cls-23 {
        fill: url(#linear-gradient-3);
      }

      .cls-24, .cls-37 {
        fill: #4a4a4c;
      }

      .cls-25, .cls-26 {
        fill: #e6e7e8;
      }

      .cls-26 {
        font-size: 4.45px;
        font-family: PTSans-Regular, PTSans Regular;
      }

      .cls-27 {
        letter-spacing: -0.02em;
      }

      .cls-28 {
        letter-spacing: 0em;
      }

      .cls-30 {
        mask: url(#mask-9);
      }

      .cls-31 {
        fill: #414042;
        opacity: 0.22;
      }

      .cls-32 {
        fill: url(#linear-gradient-4);
      }

      .cls-33 {
        mask: url(#mask-10);
      }

      .cls-34 {
        fill: url(#radial-gradient-9);
      }

      .cls-35 {
        mask: url(#mask-11);
      }

      .cls-36 {
        fill: url(#radial-gradient-10);
      }

      .cls-37 {
        opacity: 0.34;
      }

      .cls-38, .cls-39 {
        opacity: 0.55;
      }

      .cls-40 {
        filter: url(#luminosity-noclip-9);
      }

      .cls-41 {
        filter: url(#luminosity-noclip-5);
      }

      .cls-42 {
        filter: url(#luminosity-noclip-4);
      }

      .cls-43 {
        filter: url(#luminosity-noclip-3);
      }

      .cls-44 {
        filter: url(#luminosity-noclip-2);
      }

      .cls-45 {
        filter: url(#luminosity-noclip);
      }
    </style>
    <filter id="luminosity-noclip" x="18.09" y="-11459.32" width="176.77" height="32766" filterUnits="userSpaceOnUse" color-interpolation-filters="sRGB">
      <feFlood flood-color="#fff" result="bg"/>
      <feBlend in="SourceGraphic" in2="bg"/>
    </filter>
    <mask id="mask" x="18.09" y="-11459.32" width="176.77" height="32766" maskUnits="userSpaceOnUse">
      <g class="cls-45"/>
    </mask>
    <radialGradient id="radial-gradient" cx="975.61" cy="-2498.58" r="30.92" gradientTransform="matrix(2.86, -0.4, 0.02, 0.15, -2630.11, 821.97)" gradientUnits="userSpaceOnUse">
      <stop offset="0" stop-color="#fff"/>
      <stop offset="0.11" stop-color="#e9e9e9"/>
      <stop offset="0.35" stop-color="#b2b2b2"/>
      <stop offset="0.69" stop-color="#595959"/>
      <stop offset="1"/>
    </radialGradient>
    <filter id="luminosity-noclip-2" x="59.85" y="-11459.32" width="11.06" height="32766" filterUnits="userSpaceOnUse" color-interpolation-filters="sRGB">
      <feFlood flood-color="#fff" result="bg"/>
      <feBlend in="SourceGraphic" in2="bg"/>
    </filter>
    <mask id="mask-2" x="59.85" y="-11459.32" width="11.06" height="32766" maskUnits="userSpaceOnUse">
      <g class="cls-44"/>
    </mask>
    <radialGradient id="radial-gradient-2" cx="-3566.92" cy="14961.95" r="30.92" gradientTransform="matrix(0.1, 0.71, -0.15, 0.02, 2641.35, 2330.42)" xlink:href="#radial-gradient"/>
    <filter id="luminosity-noclip-3" x="25.92" y="-11459.32" width="44.24" height="32766" filterUnits="userSpaceOnUse" color-interpolation-filters="sRGB">
      <feFlood flood-color="#fff" result="bg"/>
      <feBlend in="SourceGraphic" in2="bg"/>
    </filter>
    <mask id="mask-3" x="25.92" y="-11459.32" width="44.24" height="32766" maskUnits="userSpaceOnUse">
      <g class="cls-43"/>
    </mask>
    <radialGradient id="radial-gradient-3" cx="1568.56" cy="-2219.3" r="30.92" gradientTransform="matrix(0.71, -0.1, 0.02, 0.15, -1027.54, 598.47)" xlink:href="#radial-gradient"/>
    <filter id="luminosity-noclip-4" x="57.06" y="-11459.32" width="170.59" height="32766" filterUnits="userSpaceOnUse" color-interpolation-filters="sRGB">
      <feFlood flood-color="#fff" result="bg"/>
      <feBlend in="SourceGraphic" in2="bg"/>
    </filter>
    <mask id="mask-4" x="57.06" y="-11459.32" width="170.59" height="32766" maskUnits="userSpaceOnUse">
      <g class="cls-42"/>
    </mask>
    <radialGradient id="radial-gradient-4" cx="599.66" cy="-4014.99" r="30.12" gradientTransform="matrix(2.83, 0.56, -0.03, 0.15, -1671.49, 289.52)" xlink:href="#radial-gradient"/>
    <filter id="luminosity-noclip-5" x="198.94" y="-11459.32" width="27.4" height="32766" filterUnits="userSpaceOnUse" color-interpolation-filters="sRGB">
      <feFlood flood-color="#fff" result="bg"/>
      <feBlend in="SourceGraphic" in2="bg"/>
    </filter>
    <mask id="mask-5" x="198.94" y="-11459.32" width="27.4" height="32766" maskUnits="userSpaceOnUse">
      <g class="cls-41"/>
    </mask>
    <radialGradient id="radial-gradient-5" cx="2485.59" cy="15771.49" r="30.12" gradientTransform="matrix(0.43, -2.19, 0.15, 0.03, -3175.32, 5088.41)" xlink:href="#radial-gradient"/>
    <linearGradient id="linear-gradient" x1="440.33" y1="248.66" x2="621.85" y2="248.66" gradientTransform="matrix(0.99, -0.14, 0.14, 0.99, -444.38, -45.27)" gradientUnits="userSpaceOnUse">
      <stop offset="0" stop-color="#939598"/>
      <stop offset="1" stop-color="#a7a9ac"/>
    </linearGradient>
    <filter id="luminosity-noclip-6" x="18.09" y="49.14" width="176.77" height="26.31" filterUnits="userSpaceOnUse" color-interpolation-filters="sRGB">
      <feFlood flood-color="#fff" result="bg"/>
      <feBlend in="SourceGraphic" in2="bg"/>
    </filter>
    <mask id="mask-6" x="18.09" y="49.14" width="176.77" height="26.31" maskUnits="userSpaceOnUse">
      <g class="cls-1">
        <path class="cls-2" d="M194.86,50c-.36-2.53-40.22.93-89,7.74S17.74,72.09,18.09,74.63s40.21-.93,89-7.74S195.21,52.51,194.86,50Z"/>
      </g>
    </mask>
    <radialGradient id="radial-gradient-6" cx="975.61" cy="-2498.58" r="30.92" gradientTransform="matrix(2.86, -0.4, 0.02, 0.15, -2630.11, 821.97)" gradientUnits="userSpaceOnUse">
      <stop offset="0" stop-color="#666"/>
      <stop offset="0.19" stop-color="#7c7c7c"/>
      <stop offset="0.59" stop-color="#b3b3b3"/>
      <stop offset="1" stop-color="#f2f2f2"/>
    </radialGradient>
    <linearGradient id="linear-gradient-2" x1="492.78" y1="207.12" x2="441.26" y2="143.8" gradientTransform="translate(-414.83 -120.63)" gradientUnits="userSpaceOnUse">
      <stop offset="0" stop-color="#d1d3d4"/>
      <stop offset="0.59" stop-color="#f1f2f2"/>
    </linearGradient>
    <filter id="luminosity-noclip-7" x="59.85" y="67.66" width="11.06" height="44.24" filterUnits="userSpaceOnUse" color-interpolation-filters="sRGB">
      <feFlood flood-color="#fff" result="bg"/>
      <feBlend in="SourceGraphic" in2="bg"/>
    </filter>
    <mask id="mask-7" x="59.85" y="67.66" width="11.06" height="44.24" maskUnits="userSpaceOnUse">
      <g class="cls-3">
        <path class="cls-4" d="M68.46,111.9c2.54-.36,3.21-10.54,1.51-22.76s-5.14-21.82-7.68-21.47-3.21,10.54-1.5,22.75S65.93,112.25,68.46,111.9Z"/>
      </g>
    </mask>
    <radialGradient id="radial-gradient-7" cx="-3566.92" cy="14961.95" r="30.92" gradientTransform="matrix(0.1, 0.71, -0.15, 0.02, 2641.35, 2330.42)" xlink:href="#radial-gradient-6"/>
    <filter id="luminosity-noclip-8" x="25.92" y="107.21" width="44.24" height="11.06" filterUnits="userSpaceOnUse" color-interpolation-filters="sRGB">
      <feFlood flood-color="#fff" result="bg"/>
      <feBlend in="SourceGraphic" in2="bg"/>
    </filter>
    <mask id="mask-8" x="25.92" y="107.21" width="44.24" height="11.06" maskUnits="userSpaceOnUse">
      <g class="cls-5">
        <path class="cls-6" d="M70.15,109.66c-.35-2.53-10.54-3.21-22.75-1.5s-21.83,5.13-21.47,7.67,10.53,3.21,22.75,1.5S70.5,112.19,70.15,109.66Z"/>
      </g>
    </mask>
    <radialGradient id="radial-gradient-8" cx="1568.56" cy="-2219.3" r="30.92" gradientTransform="matrix(0.71, -0.1, 0.02, 0.15, -1027.54, 598.47)" xlink:href="#radial-gradient-6"/>
    <linearGradient id="linear-gradient-3" x1="481.21" y1="228.56" x2="461.39" y2="203.46" gradientTransform="matrix(0.99, -0.14, 0.14, 0.99, -444.38, -45.27)" gradientUnits="userSpaceOnUse">
      <stop offset="0" stop-color="#fff"/>
      <stop offset="0.77" stop-color="#f1f2f2"/>
      <stop offset="0.87" stop-color="#e6e7e8"/>
      <stop offset="1" stop-color="#d1d3d4"/>
    </linearGradient>
    <filter id="luminosity-noclip-9" x="27.9" y="-11459.32" width="26.06" height="32766" filterUnits="userSpaceOnUse" color-interpolation-filters="sRGB">
      <feFlood flood-color="#fff" result="bg"/>
      <feBlend in="SourceGraphic" in2="bg"/>
    </filter>
    <mask id="mask-9" x="27.9" y="-11459.32" width="26.06" height="32766" maskUnits="userSpaceOnUse">
      <g class="cls-40"/>
    </mask>
    <linearGradient id="linear-gradient-4" x1="-642.79" y1="19.84" x2="-465.98" y2="19.84" gradientTransform="translate(678.06 184.45) rotate(11.14)" xlink:href="#linear-gradient"/>
    <filter id="luminosity-noclip-10" x="57.06" y="16.25" width="170.59" height="34.74" filterUnits="userSpaceOnUse" color-interpolation-filters="sRGB">
      <feFlood flood-color="#fff" result="bg"/>
      <feBlend in="SourceGraphic" in2="bg"/>
    </filter>
    <mask id="mask-10" x="57.06" y="16.25" width="170.59" height="34.74" maskUnits="userSpaceOnUse">
      <g class="cls-7">
        <path class="cls-8" d="M227.64,50.42c.48-2.45-37.32-12-84.42-21.23S57.54,14.38,57.06,16.83s37.31,11.94,84.42,21.22S227.16,52.86,227.64,50.42Z"/>
      </g>
    </mask>
    <radialGradient id="radial-gradient-9" cx="599.66" cy="-4014.99" r="30.12" gradientTransform="matrix(2.83, 0.56, -0.03, 0.15, -1671.49, 289.52)" xlink:href="#radial-gradient-6"/>
    <filter id="luminosity-noclip-11" x="198.94" y="46.6" width="27.4" height="131.67" filterUnits="userSpaceOnUse" color-interpolation-filters="sRGB">
      <feFlood flood-color="#fff" result="bg"/>
      <feBlend in="SourceGraphic" in2="bg"/>
    </filter>
    <mask id="mask-11" x="198.94" y="46.6" width="27.4" height="131.67" maskUnits="userSpaceOnUse">
      <g class="cls-9">
        <path class="cls-10" d="M225.6,46.61c-2.44-.48-10.23,28.6-17.39,65s-11,66.22-8.53,66.7,10.23-28.6,17.39-65S228.05,47.09,225.6,46.61Z"/>
      </g>
    </mask>
    <radialGradient id="radial-gradient-10" cx="2485.59" cy="15771.49" r="30.12" gradientTransform="matrix(0.43, -2.19, 0.15, 0.03, -3175.32, 5088.41)" xlink:href="#radial-gradient-6"/>
  </defs>
  <g class="cls-11">
    <g id="Layer_1" data-name="Layer 1">
      <g>
        <path class="cls-12" d="M37.2,223.66a8,8,0,0,1-7.91-6.9L10.3,80.62A8,8,0,0,1,13.57,73a7.88,7.88,0,0,1,1.33-2.73,8,8,0,0,1,5.28-3.1l17.19-2.4a398,398,0,0,1,11.26-40.4l1.14-5.75a8,8,0,0,1,3.39-5.1c.23-.15.46-.29.7-.42A8,8,0,0,1,55.68,12a8,8,0,0,1,6.15-2.89,8.4,8.4,0,0,1,1.56.15L236.8,43.38a8,8,0,0,1,6.3,9.39s-12,61.47-19.63,100.06l.08.6c5.24,37.57,3.71,39.33,1.17,42.25a8.21,8.21,0,0,1-6.19,2.83h-.4L38.32,223.58A8.56,8.56,0,0,1,37.2,223.66Z"/>
        <path class="cls-13" d="M32.2,218.66a8,8,0,0,1-7.91-6.9L5.3,75.62A8,8,0,0,1,8.57,68,7.88,7.88,0,0,1,9.9,65.28a8,8,0,0,1,5.28-3.1l17.19-2.4a398,398,0,0,1,11.26-40.4l1.14-5.75a8,8,0,0,1,3.39-5.1c.23-.15.46-.29.7-.42A8,8,0,0,1,50.68,7a8,8,0,0,1,6.15-2.89,8.4,8.4,0,0,1,1.56.15L231.8,38.38a8,8,0,0,1,6.3,9.39s-12,61.47-19.63,100.06l.08.6c5.24,37.57,3.71,39.33,1.17,42.25a8.21,8.21,0,0,1-6.19,2.83h-.4L33.32,218.58A8.56,8.56,0,0,1,32.2,218.66Z"/>
        <g id="newspaper">
          <g>
            <g>
              <path class="cls-14" d="M213.34,185.39s2.86,4.08-2.71-35.85S196,45,196,45L16.29,70.1,35.82,210.15Z"/>
              <g class="cls-15">
                <path class="cls-16" d="M194.86,50c-.36-2.53-40.22.93-89,7.74S17.74,72.09,18.09,74.63s40.21-.93,89-7.74S195.21,52.51,194.86,50Z"/>
              </g>
              <g>
                <rect class="cls-17" x="21.84" y="61.22" width="182.88" height="137.46" transform="translate(-16.87 16.89) rotate(-7.94)"/>
                <polygon class="cls-18" points="213.34 185.39 32.21 210.66 19.43 119 48.12 97.55 63.47 67.51 194.35 49.25 213.34 185.39"/>
                <g>
                  <g class="cls-19">
                    <path class="cls-20" d="M68.46,111.9c2.54-.36,3.21-10.54,1.51-22.76s-5.14-21.82-7.68-21.47-3.21,10.54-1.5,22.75S65.93,112.25,68.46,111.9Z"/>
                  </g>
                  <g class="cls-21">
                    <path class="cls-22" d="M70.15,109.66c-.35-2.53-10.54-3.21-22.75-1.5s-21.83,5.13-21.47,7.67,10.53,3.21,22.75,1.5S70.5,112.19,70.15,109.66Z"/>
                  </g>
                  <polygon class="cls-23" points="63.47 67.51 69.67 111.99 19.43 119 63.47 67.51"/>
                </g>
                <g>
                  <rect class="cls-24" x="159.66" y="52.11" width="30.81" height="34.54" transform="translate(-7.91 24.85) rotate(-7.94)"/>
                  <g>
                    <path class="cls-25" d="M169.3,81.12l-.46.06c-.74.1-1.56.49-1.46,1.23l.07.47c.1.74,1,1.11,1.77,1l.46-.07A1.38,1.38,0,0,0,171,82.38l-.07-.46C170.8,81.18,170,81,169.3,81.12Z"/>
                    <path class="cls-25" d="M172.3,77.39l-.46.06c-.74.1-1.21.54-1.1,1.28l.5,3.62a1.2,1.2,0,0,0,1.43,1.06l.46-.07a1.44,1.44,0,0,0,1.36-1.45L174,78.28C173.88,77.54,173,77.28,172.3,77.39Z"/>
                    <path class="cls-25" d="M175.76,74.14l-.35,0a1.54,1.54,0,0,0-1.21,1.67l.82,5.91a1.38,1.38,0,0,0,1.59,1.09l.36,0a1.2,1.2,0,0,0,1-1.45l-.82-5.92A1.38,1.38,0,0,0,175.76,74.14Z"/>
                    <path class="cls-25" d="M179.25,70.66h.29A1.36,1.36,0,0,1,180.9,72v9a1.36,1.36,0,0,1-1.36,1.36h-.3a1.35,1.35,0,0,1-1.35-1.35V72a1.36,1.36,0,0,1,1.36-1.36Z" transform="translate(-8.84 25.46) rotate(-7.92)"/>
                    <path class="cls-25" d="M182,66.92l-.27,0a1.39,1.39,0,0,0-1.11,1.6l1.69,12.09a1.36,1.36,0,0,0,1.5,1.2l.27,0a1.45,1.45,0,0,0,1.21-1.58l-1.69-12.09A1.48,1.48,0,0,0,182,66.92Z"/>
                    <path class="cls-25" d="M182.08,58.6a1.08,1.08,0,0,0-1.4-.31l-4.38,2.42a1.07,1.07,0,1,0,1,1.87l1.66-.92a33.79,33.79,0,0,1-12.4,12.62,1.07,1.07,0,0,0,.65,2,1.33,1.33,0,0,0,.4-.12,37.08,37.08,0,0,0,12.84-12.62l.13,1a1.24,1.24,0,0,0,2.44-.34l-.69-4.94h0A1.24,1.24,0,0,0,182.08,58.6Z"/>
                  </g>
                  <rect class="cls-25" x="160.37" y="57.53" width="25.83" height="0.47" transform="translate(-6.32 24.49) rotate(-7.94)"/>
                  <text class="cls-26" transform="translate(160.61 58.52) rotate(-7.94)">N<tspan class="cls-27" x="2.93" y="0">o</tspan><tspan class="cls-28" x="5.26" y="0">.</tspan></text>
                  <rect class="cls-25" x="162.9" y="91.3" width="0.26" height="5.39" transform="translate(-11.43 23.44) rotate(-7.95)"/>
                </g>
              </g>
              <g>
                <g>
                  <rect class="cls-24" x="87.68" y="116.62" width="0.59" height="82.59" transform="translate(-20.97 13.66) rotate(-7.94)"/>
                  <rect class="cls-24" x="144.55" y="108.69" width="0.59" height="82.59" transform="translate(-19.24 21.34) rotate(-7.9)"/>
                </g>
                <rect class="cls-24" x="94.44" y="173.49" width="49.85" height="0.29" transform="translate(-22.84 18.15) rotate(-7.94)"/>
              </g>
              <rect class="cls-24" x="146.03" y="104.76" width="50.88" height="38.05" transform="translate(-15.45 24.87) rotate(-7.94)"/>
              <g>
                <rect class="cls-24" x="29.24" y="130.51" width="49.67" height="0.39" transform="translate(-17.54 8.72) rotate(-7.94)"/>
                <rect class="cls-24" x="32.67" y="132.03" width="49.56" height="49.16" transform="translate(-21.08 9.44) rotate(-7.94)"/>
              </g>
              <g>
                <g>
                  <path class="cls-29" d="M167.19,113.62a13.05,13.05,0,1,0,14.73,11.13A13.05,13.05,0,0,0,167.19,113.62Zm3.14,22.51a9.67,9.67,0,1,1,8.24-10.91A9.67,9.67,0,0,1,170.33,136.13Z"/>
                  <path class="cls-29" d="M168.14,120.45a6.16,6.16,0,1,0,7,5.25A6.17,6.17,0,0,0,168.14,120.45Zm1.21,8.68a2.6,2.6,0,1,1,2.21-2.94A2.61,2.61,0,0,1,169.35,129.13Z"/>
                </g>
                <g>
                  <polygon class="cls-29" points="177.19 115.59 175.69 112.1 180.3 106 181.79 109.48 177.19 115.59"/>
                  <polygon class="cls-29" points="177.18 115.58 180.93 116.06 185.54 109.96 181.78 109.48 177.18 115.58"/>
                </g>
                <rect class="cls-29" x="164.68" y="117.72" width="19.82" height="2.6" transform="translate(-25.59 186.66) rotate(-52.95)"/>
              </g>
            </g>
            <g>
              <g class="cls-30">
                <path class="cls-31" d="M54,14.27A369.19,369.19,0,0,0,36.6,79.61c-6.46,37.55-8.7,67.17-8.7,67.17A554.41,554.41,0,0,0,43.26,81.09C49.72,43.54,54,14.27,54,14.27Z"/>
              </g>
              <g>
                <path class="cls-32" d="M201.54,181s1.34,4.66,8.92-33.87S230.25,46.23,230.25,46.23L56.84,12.09,30.23,147.24Z"/>
                <g class="cls-33">
                  <path class="cls-34" d="M227.64,50.42c.48-2.45-37.32-12-84.42-21.23S57.54,14.38,57.06,16.83s37.31,11.94,84.42,21.22S227.16,52.86,227.64,50.42Z"/>
                </g>
                <g class="cls-35">
                  <path class="cls-36" d="M225.6,46.61c-2.44-.48-10.23,28.6-17.39,65s-11,66.22-8.53,66.7,10.23-28.6,17.39-65S228.05,47.09,225.6,46.61Z"/>
                </g>
                <g>
                  <rect class="cls-18" x="60.13" y="9" width="133.9" height="178.15" transform="translate(6.3 203.81) rotate(-78.86)"/>
                  <polygon class="cls-29" points="201.54 180.97 26.75 146.55 44.16 58.11 77.4 47.49 101.1 24.72 227.41 49.59 201.54 180.97"/>
                  <polygon class="cls-31" points="101.1 24.72 92.65 67.65 44.16 58.11 101.1 24.72"/>
                  <g>
                    <rect class="cls-24" x="186.42" y="46.98" width="33.65" height="30.01" transform="translate(103.17 249.43) rotate(-78.86)"/>
                    <rect class="cls-24" x="153.08" y="16.73" width="6.47" height="116.82" transform="translate(52.39 214) rotate(-78.86)"/>
                    <rect class="cls-24" x="154.97" y="21.49" width="0.81" height="116.82" transform="translate(46.96 216.92) rotate(-78.86)"/>
                    <g>
                      <path class="cls-25" d="M194.2,71l-.45-.09c-.71-.14-1.59,0-1.73.67l-.09.45c-.14.71.59,1.35,1.31,1.49l.44.09a1.35,1.35,0,0,0,1.65-.91l.09-.45C195.56,71.49,194.91,71.09,194.2,71Z"/>
                      <path class="cls-25" d="M198.15,68.47l-.45-.09a1.07,1.07,0,0,0-1.42.83l-.69,3.49a1.17,1.17,0,0,0,1,1.43l.45.09a1.41,1.41,0,0,0,1.71-.9l.68-3.49C199.55,69.12,198.87,68.61,198.15,68.47Z"/>
                      <path class="cls-25" d="M202.36,66.59l-.34-.07a1.49,1.49,0,0,0-1.64,1.15l-1.12,5.71a1.33,1.33,0,0,0,1.12,1.5l.34.07a1.17,1.17,0,0,0,1.41-1l1.12-5.71A1.31,1.31,0,0,0,202.36,66.59Z"/>
                      <path class="cls-25" d="M207.24,65.91a1.31,1.31,0,0,0-1-1.55l-.29-.06a1.31,1.31,0,0,0-1.55,1L202.67,74a1.32,1.32,0,0,0,1,1.55l.28,0a1.32,1.32,0,0,0,1.55-1Z"/>
                      <path class="cls-25" d="M210.42,61.93l-.26-.06A1.36,1.36,0,0,0,208.63,63l-2.3,11.67a1.34,1.34,0,0,0,1,1.59l.26,0a1.42,1.42,0,0,0,1.62-1.07l2.29-11.67A1.42,1.42,0,0,0,210.42,61.93Z"/>
                      <path class="cls-25" d="M213.14,54.29a1.08,1.08,0,0,0-1.2-.74l-4.8.84a1,1,0,0,0-.85,1.21,1,1,0,0,0,.82.84,1,1,0,0,0,.39,0l1.82-.33a33,33,0,0,1-15.43,7.68,1,1,0,0,0,0,2,1.12,1.12,0,0,0,.41,0,36.26,36.26,0,0,0,15.83-7.53l-.19,1a1.21,1.21,0,0,0,2.35.46l.94-4.77h0A1.25,1.25,0,0,0,213.14,54.29Z"/>
                    </g>
                    <rect class="cls-25" x="205.08" y="38.14" width="0.45" height="25.16" transform="translate(115.88 242.36) rotate(-78.86)"/>
                    <rect class="cls-25" x="181.69" y="80.68" width="5.25" height="0.25" transform="translate(69.48 246.08) rotate(-78.88)"/>
                  </g>
                </g>
                <g>
                  <g>
                    <rect class="cls-24" x="54.65" y="115.47" width="80.46" height="0.57" transform="translate(-36.98 186.57) rotate(-78.9)"/>
                    <rect class="cls-24" x="109.53" y="126.27" width="80.46" height="0.57" transform="translate(-3.28 249.14) rotate(-78.89)"/>
                  </g>
                  <rect class="cls-24" x="118.62" y="115.95" width="0.29" height="48.56" transform="translate(-41.76 229.66) rotate(-78.86)"/>
                </g>
                <rect class="cls-24" x="164.08" y="86.14" width="37.07" height="49.57" transform="translate(38.5 268.67) rotate(-78.86)"/>
                <g>
                  <rect class="cls-24" x="72.14" y="55.72" width="0.38" height="48.38" transform="translate(-20.05 135.44) rotate(-78.86)"/>
                  <rect class="cls-24" x="43.24" y="80.7" width="47.89" height="48.27" transform="translate(-48.66 150.5) rotate(-78.86)"/>
                  <rect class="cls-37" x="97.56" y="85.96" width="53.12" height="48.27" transform="translate(-7.87 210.61) rotate(-78.86)"/>
                  <rect class="cls-37" x="155.79" y="126.32" width="37.93" height="48.27" transform="translate(-6.63 292.86) rotate(-78.86)"/>
                  <rect class="cls-37" x="50.9" y="116.88" width="17.11" height="48.27" transform="translate(-90.39 172.11) rotate(-78.86)"/>
                </g>
                <g>
                  <g>
                    <path class="cls-29" d="M181.9,100.2a12.72,12.72,0,1,0,10,14.94A12.71,12.71,0,0,0,181.9,100.2Zm-4.28,21.72a9.42,9.42,0,1,1,11.07-7.42A9.42,9.42,0,0,1,177.62,121.92Z"/>
                    <path class="cls-29" d="M180.61,106.79a6,6,0,1,0,4.73,7A6,6,0,0,0,180.61,106.79ZM179,115.16a2.53,2.53,0,1,1,3-2A2.53,2.53,0,0,1,179,115.16Z"/>
                  </g>
                  <g>
                    <polygon class="cls-29" points="190.48 105.19 190.22 101.51 196.4 97.36 196.67 101.04 190.48 105.19"/>
                    <polygon class="cls-29" points="190.47 105.19 193.78 106.82 199.97 102.67 196.66 101.03 190.47 105.19"/>
                  </g>
                  <rect class="cls-29" x="177.34" y="106.26" width="19.31" height="2.53" transform="matrix(0.83, -0.56, 0.56, 0.83, -28.19, 122.5)"/>
                </g>
              </g>
            </g>
          </g>
          <g class="cls-38">
            <g>
              <path d="M111.54,41.62l.1-.21a6.49,6.49,0,0,1,3.92-.6A4.74,4.74,0,0,1,119.2,44a4.85,4.85,0,0,1,.45,3.08,3.58,3.58,0,0,1-1.25,2,5,5,0,0,1,.54.9c.21.34.87.52,1.53.65a5.18,5.18,0,0,0,2.7-.23l1-5-2.47-.5-.64-2.39.28-.25,7.84,1.58.64,2.39-.28.25-2.76-.55L124,60l-.25.11-2.39-1.24,1.11-5.26a3.2,3.2,0,0,1-.54-.08,4.81,4.81,0,0,1-2.25-1.14l-.13,0a5.52,5.52,0,0,1-.11,1.18,4,4,0,0,1-4.95,3c-3.22-.65-5.22-3.9-6.57-8.86l.06-.14,1.31-.55c1.18,3.71,2.14,5.9,4.79,6.43,1.36.28,3.19-.41,3.51-2,.16-.82-.21-1.44-1.3-1.66a8.7,8.7,0,0,0-3.1.15l-1.09-2.81.15-.28a21.86,21.86,0,0,1,3.59-.23c1.13-.21,1.82-.74,2-1.49.11-.55,0-1.14-1.22-1.38a7.7,7.7,0,0,0-4,.6Z"/>
              <path d="M128.62,44l.28-.26,20.2,4.07.64,2.39-.28.26-2.76-.56L143.93,64l-.25.12-2.38-1.24.78-3.5a3.32,3.32,0,0,1-1.63.05,5.81,5.81,0,0,1-3.29-2.3A5.29,5.29,0,0,1,136,53c.42-2.09,2.12-3.26,4.61-2.76a9.65,9.65,0,0,1,3.1,1.23l.41-2-8.34-1.68a20.07,20.07,0,0,1-.33,2.33A6.92,6.92,0,0,1,132,55c1.33,1.92,3.65,6.19,10.58,6.3l1.08,2.85A18.23,18.23,0,0,1,136,62.83c-1.5-.63-6-6.89-7.1-10.26a2.58,2.58,0,0,1-.07-1,1.58,1.58,0,0,1,.64-1,1.82,1.82,0,0,1,1.36-.11c.38.08.71.16,1.24.3a5,5,0,0,0,1-2.32,11.12,11.12,0,0,0,.18-1.29l-4-.8Zm14.72,9.26a7.32,7.32,0,0,0-1.18-.32c-1.74-.35-3.64.35-4,1.91-.19,1,.32,1.69,1.49,1.93a3.29,3.29,0,0,0,2.06-.25A1.92,1.92,0,0,0,143,55Z"/>
              <path d="M148.53,48l.28-.25,15,3,.64,2.39-.28.26-2.76-.56L158.66,67l-.25.12L156,65.84l.73-3.28a6,6,0,0,1-3.16.22,5.75,5.75,0,0,1-4.06-3.29,5.36,5.36,0,0,1-.68-3.45c.43-2.09,2.34-3.52,5.64-2.85a16.13,16.13,0,0,1,3.87,1.39l.45-2.2-9.65-2Zm4.36,8a2.6,2.6,0,0,0-1.81,2c-.17.87.47,1.84,2.12,2.18a5.68,5.68,0,0,0,1.48.1Zm3.18,3.94a2.21,2.21,0,0,0,1.6-1.69l.31-1.57a11.31,11.31,0,0,0-2.32-.73,8,8,0,0,0-1.29-.16Z"/>
              <path d="M163.26,51l.28-.25,7.07,1.42.64,2.39-.29.26-2.75-.56-2.77,14.06-.26.12-2.39-1.26,2.77-13.45-1.66-.34Z"/>
              <path d="M170,52.38l.28-.26,11.36,2.3.64,2.38-.28.26-3.65-.74a9.33,9.33,0,0,1-.22,2,6.18,6.18,0,0,1-4.64,5.19,20,20,0,0,0,5.07,5.06L176.83,71l-.24-.05a25.48,25.48,0,0,1-5.7-9.21,4.27,4.27,0,0,1-.28-1.75,1.88,1.88,0,0,1,.45-.84,1.67,1.67,0,0,1,1.63-.36c.74.15,1.47.31,1.95.46A3.91,3.91,0,0,0,175.7,57a5.31,5.31,0,0,0,.11-1.23l-5.13-1Z"/>
            </g>
          </g>
          <circle class="cls-39" cx="129.56" cy="59.67" r="1.52"/>
        </g>
        <text class="cls-26" transform="translate(160.61 58.52) rotate(-7.94)">N<tspan class="cls-27" x="2.93" y="0">o</tspan><tspan class="cls-28" x="5.26" y="0">.</tspan></text>
      </g>
    </g>
  </g>
</svg>
