<svg id="Layer_1" data-name="Layer 1" xmlns="http://www.w3.org/2000/svg" width="323.04" height="282.89" viewBox="0 0 323.04 282.89">
  <defs>
    <style>
      .cls-1, .cls-2 {
        fill: #ffef5f;
        stroke-linejoin: round;
        stroke-width: 24px;
      }

      .cls-1 {
        stroke: #020202;
        opacity: 0.5;
      }

      .cls-2 {
        stroke: #fffa4d;
      }

      .cls-3 {
        fill: #a3998f;
      }

      .cls-4 {
        fill: #b3a79d;
      }

      .cls-5 {
        fill: #1a0000;
        opacity: 0.1;
      }

      .cls-6 {
        fill: #e6dcc9;
      }

      .cls-7 {
        fill: #64a13f;
      }

      .cls-8 {
        fill: #578d37;
      }

      .cls-9 {
        fill: #8cc63f;
      }

      .cls-10 {
        fill: #7bad37;
      }

      .cls-11 {
        fill: #dbccbf;
      }

      .cls-12 {
        fill: #ebdfce;
      }
    </style>
  </defs>
  <g>
    <path class="cls-1" d="M299.44,21c-12-5.79-37.23,1.12-58.12,27.93a260.87,260.87,0,0,1-40.86,42.16,388.64,388.64,0,0,0-51.09-3.26c-2.5,0-5,0-7.45.07A151,151,0,0,1,133.65,55c-7.65,6-19,17.68-27.51,32.84a37.3,37.3,0,0,0-4.36-3.92,163.16,163.16,0,0,1-35-37.72c-5.33,11-11.78,31.77-11.22,54.27-18.65,6.22-30.68,14.3-32.69,23.21-.05.23-.08.47-.12.7l-.22.09C16.75,181.27,47,210.93,57.78,231.24v0a10.33,10.33,0,0,0-.33,2.78c0,10.59,12.7,20.06,32.72,26.35,16,5.13,36.65,8.14,59.19,8.14,50.8,0,92-15.47,92-34.49a10.33,10.33,0,0,0-.33-2.78v0a172.19,172.19,0,0,0,35.2-104.93h0a13.75,13.75,0,0,0-2.49-7.6c-5.23-7.89-18.44-14.91-36.94-20.25,10-7.44,21.48-15.64,34.76-24.69C309.9,47.66,312.14,27.15,299.44,21ZM197.51,93.45h0c-7.26-1.07-15-1.92-23-2.5C182.54,91.53,190.25,92.38,197.51,93.45ZM55.87,106.28h0l-1.35.7Zm-5.08,2.93a36.38,36.38,0,0,0-3.18,2.33A36.38,36.38,0,0,1,50.79,109.21ZM257,119h0Zm-.58-1.26,0,.06Zm-21.47-15c-.87-.34-1.77-.67-2.69-1C233.22,102.14,234.12,102.47,235,102.81Zm16.76,9.29-.25-.22ZM250.4,111l-.43-.32Zm-1.57-1.15-.55-.37Zm-1.74-1.15-.56-.34Zm-2.74-1.6-1.08-.58Zm-2.11-1.1-1.24-.6ZM240,104.91q-.71-.33-1.41-.63C239,104.48,239.51,104.69,240,104.91Zm-2.42-1.07c-.55-.23-1.11-.46-1.68-.68C236.44,103.38,237,103.61,237.55,103.84Z"/>
    <path class="cls-2" d="M295.44,17c-12-5.79-37.23,1.12-58.12,27.93a260.87,260.87,0,0,1-40.86,42.16,388.64,388.64,0,0,0-51.09-3.26c-2.5,0-5,0-7.45.07A151,151,0,0,1,129.65,51c-7.65,6-19,17.68-27.51,32.84a37.3,37.3,0,0,0-4.36-3.92,163.16,163.16,0,0,1-35-37.72C57.46,53.17,51,73.94,51.57,96.44c-18.65,6.22-30.68,14.3-32.69,23.21-.05.23-.08.47-.12.7l-.22.09C12.75,177.27,43,206.93,53.78,227.24v0a10.33,10.33,0,0,0-.33,2.78c0,10.59,12.7,20.06,32.72,26.35,16,5.13,36.65,8.14,59.19,8.14,50.8,0,92-15.47,92-34.49a10.33,10.33,0,0,0-.33-2.78v0a172.19,172.19,0,0,0,35.2-104.93h0a13.75,13.75,0,0,0-2.49-7.6c-5.23-7.89-18.44-14.91-36.94-20.25,10-7.44,21.48-15.64,34.76-24.69C305.9,43.66,308.14,23.15,295.44,17ZM193.51,89.45h0c-7.26-1.07-15-1.92-23-2.5C178.54,87.53,186.25,88.38,193.51,89.45ZM51.87,102.28h0l-1.35.7Zm-5.08,2.93a36.38,36.38,0,0,0-3.18,2.33A36.38,36.38,0,0,1,46.79,105.21ZM253,115h0Zm-.58-1.26,0,.06ZM231,98.81c-.87-.34-1.77-.67-2.69-1C229.22,98.14,230.12,98.47,231,98.81Zm16.76,9.29-.25-.22ZM246.4,107l-.43-.32Zm-1.57-1.15-.55-.37Zm-1.74-1.15-.56-.34Zm-2.74-1.6-1.08-.58Zm-2.11-1.1-1.24-.6ZM236,100.91q-.71-.33-1.41-.63C235,100.48,235.51,100.69,236,100.91Zm-2.42-1.07c-.55-.23-1.11-.46-1.68-.68C232.44,99.38,233,99.61,233.55,99.84Z"/>
    <g>
      <path class="cls-3" d="M237.32,230.06c0,19-41.16,34.49-92,34.49-22.54,0-43.22-3-59.19-8.14-20-6.29-32.72-15.76-32.72-26.35a10.33,10.33,0,0,1,.33-2.78v0c3.81-17.7,43.35-31.68,91.58-31.68A219.6,219.6,0,0,1,190.62,200c25.85,5.51,43.89,15.56,46.37,27.22v0A10.33,10.33,0,0,1,237.32,230.06Z"/>
      <path class="cls-4" d="M272.19,122.3A172.23,172.23,0,0,1,237,227.24v0c-3.85,16.39-43.39,29.29-91.63,29.29a231,231,0,0,1-49.39-5c-4.63-1-9-2.2-13.07-3.52-16.38-5.25-27.22-12.58-29.12-20.77v0c-10.8-20.31-41-50-35.24-106.8C88.24,91.32,166.71,96,221.81,107.66,242.45,112,259.78,117.38,272.19,122.3Z"/>
      <path class="cls-5" d="M237,227.28a10.33,10.33,0,0,1,.33,2.78c0,19-41.16,34.49-92,34.49-22.54,0-43.22-3-59.19-8.14l9.8-4.84c51.09-1.62,79-24.2,94.65-51.55,12.2-21.34,17-45.58,19.52-65.1a56.84,56.84,0,0,1,11.67-27.26c20.64,4.38,38,9.72,50.38,14.64A172.23,172.23,0,0,1,237,227.24Z"/>
      <path class="cls-4" d="M253.82,119c0,14.85-32.55,27.42-77.18,31.48-.75.08-1.53.12-2.32.2-4.55.38-9.22.71-14,.91s-9.89.29-15,.29c-6.08,0-12-.16-17.78-.45s-11.63-.75-17.13-1.28C67.68,145.67,36.9,133.43,36.9,119c0-14.27,29.95-26.39,71.81-30.94v0a339.27,339.27,0,0,1,36.65-1.91,331.8,331.8,0,0,1,48.15,3.39,184.86,184.86,0,0,1,34.79,8.36C244.23,103.48,253.82,110.88,253.82,119Z"/>
      <path class="cls-6" d="M36.9,119c0-14.27,29.95-26.39,71.81-30.94v0a339.27,339.27,0,0,1,36.65-1.91,331.8,331.8,0,0,1,48.15,3.39,184.86,184.86,0,0,1,34.79,8.36C241.61,102.55,250.47,108.5,253,115l16.66-.33c-11.65-17.6-62.88-30.85-124.33-30.85-67.09,0-122,15.8-126.49,35.8L37,119.3C37,119.18,36.9,119.07,36.9,119Z"/>
      <path class="cls-5" d="M127.58,151.38C76.12,148.81,36.9,135.29,36.9,119c0-14.27,29.95-26.39,71.81-30.94C100.69,102.36,96.72,130.08,127.58,151.38Z"/>
      <g>
        <path class="cls-7" d="M123.85,154.26a13012810705848.64,13012810705848.64,0,0,1-.52.3l-.7.33a23.22,23.22,0,0,1-24.48-3.07A17.4,17.4,0,0,1,92,142.57c-.07-.37-.15-.7-.22-1.07a5.73,5.73,0,0,1-.22-1.14c-.45-2-.74-4-1-6a8.46,8.46,0,0,0-.08-1c0-.41-.07-.78-.11-1.18a66.88,66.88,0,0,1-.15-9.69c0-1.15.12-2.29.26-3.4a76.87,76.87,0,0,1,2.33-12.8,87.92,87.92,0,0,1,3.44-10.32,98.91,98.91,0,0,1,5.92-12.24C110.68,68.65,122,57,129.65,51a152.18,152.18,0,0,0,13.8,45.82C154.69,119.61,138.38,146.83,123.85,154.26Z"/>
        <path class="cls-8" d="M121.33,121.2a.79.79,0,0,1-.4,0c.22,3.29.48,6.58.55,9.91a118.28,118.28,0,0,0,2.37,23.11,23,23,0,0,0,.63,2.77.57.57,0,0,1-.26.56.43.43,0,0,1-.56-.19,24.13,24.13,0,0,1-1-2.51c-1.85-5-2.26-10.32-2.48-15.64-.08-1.52-.11-3-.19-4.55-.37-9.62-1.62-19.27-1.18-28.92.37-8.54,1.81-17,3.14-25.48,1.22-7.84,2.48-17.86,7.36-24.33.26-.34.85,0,.59.37-3.92,7.21-5.36,16.3-6.54,24.37-.59,4.29-1.3,8.65-1.89,13a49,49,0,0,0,7-8.17,30.23,30.23,0,0,0,4.33-11.35c0-.08.11,0,.11,0a24.6,24.6,0,0,1-11.24,21.45.85.85,0,0,1-.41.07,105,105,0,0,0-.89,11.72c-.07,4.18.19,8.36.48,12.54,7.4-6.14,14.43-12.28,19.16-20.89a.55.55,0,0,1,1,.44C138.16,108.52,130,117.5,121.33,121.2Z"/>
        <path class="cls-8" d="M113.68,89.35a46.61,46.61,0,0,1-3.38-10.93c-.14-.72-1.18-.5-1.22.16-.39,6.6,3.62,14.35,7.43,19.53.42.56,1.55.25,1.24-.52C116.63,94.72,115,92.14,113.68,89.35Z"/>
        <path class="cls-8" d="M115.39,110.8c-3.84-4.76-10.57-9.48-11.5-15.86,0-.23-.39-.17-.4,0-.09,3.23,1.45,5.27,3.23,7.84a41.85,41.85,0,0,0,7.93,8.71A.52.52,0,0,0,115.39,110.8Z"/>
        <path class="cls-8" d="M117.63,125.45c-3.24-1.69-6.54-2.63-9.59-4.77-3.93-2.76-7.74-5.71-10.53-9.68-.24-.34-.8,0-.58.34,4.3,7.24,12,13.34,20.24,15.19C117.8,126.68,118.25,125.78,117.63,125.45Z"/>
        <path class="cls-8" d="M115.37,138.46A66.55,66.55,0,0,1,92.72,129c-.26-.16-.47.23-.24.4,6.57,4.92,14.33,9.51,22.77,10A.47.47,0,0,0,115.37,138.46Z"/>
        <path class="cls-8" d="M116.32,143.93a33.36,33.36,0,0,1-17.6,1.28c-.52-.11-.75.68-.22.8,6.47,1.5,12,1.33,18.06-1.53C116.87,144.34,116.65,143.83,116.32,143.93Z"/>
        <path class="cls-8" d="M135.83,88.35c-1.42,2.8-2.69,5.88-4.37,8.52a52.32,52.32,0,0,1-6.62,7.71.82.82,0,0,0,1,1.29c6.39-3.59,8.37-10.59,11.37-16.72C137.65,88.24,136.29,87.44,135.83,88.35Z"/>
        <path class="cls-8" d="M143.54,111.6c-3,9.94-12.86,16.13-19.35,23.54-.53.61.16,1.67.91,1.18,8.27-5.36,18-14.25,18.72-24.69C143.83,111.47,143.58,111.44,143.54,111.6Z"/>
      </g>
      <g>
        <path class="cls-9" d="M114.05,115.32v0a60.17,60.17,0,0,1-.45,8.24c-.07.6-.14,1.15-.22,1.74a52.77,52.77,0,0,1-3.18,11.8l-.55,1.33a34.42,34.42,0,0,1-3.63,6.29c-.15.18-.26.33-.37.48l-.52.63h0a5.3,5.3,0,0,1-.89,1,23.89,23.89,0,0,1-6.06,5c-10.43,6-23.08,3.25-28.44-3.37-11.47-14-16.53-30.21-17.83-45.93C49.81,77.75,57,54.15,62.79,42.17a163.16,163.16,0,0,0,35,37.72,37.3,37.3,0,0,1,4.36,3.92c6.62,7,10.13,15.87,11.39,24.89.07.7.18,1.37.22,2.07C113.94,112.29,114,113.8,114.05,115.32Z"/>
        <path class="cls-10" d="M96.69,83.72a.61.61,0,0,0-1.2.06c-.5,10.55-4.36,19.8-8.6,29.23-2.27-3.89-4.51-7.8-6.42-11.88A122.41,122.41,0,0,1,75.8,89.37a.67.67,0,0,0,.36-.27c4.93-7.76,4.92-17.94.7-26,0,0-.11,0-.09,0a32.2,32.2,0,0,1,1.18,13c-.41,4-1.67,7.46-2.88,11.19-1.51-4.47-2.89-9-4.32-13.45-2.68-8.33-5.59-17.79-5.19-26.62a.39.39,0,0,0-.78-.06c-1.64,8.54,1.89,18.81,4.4,27,2.71,8.78,5.35,17.66,9,26.1,4.13,9.5,9.9,18.24,14.82,27.35,4,7.37,7.64,14.93,14.29,20.18.43.35,1-.31.62-.72-6.11-7.14-10.77-15.3-15.11-23.61-1.65-3.16-3.45-6.24-5.25-9.32a.75.75,0,0,0,.41-.22C94.52,106.31,98.21,93.71,96.69,83.72Z"/>
        <path class="cls-10" d="M65.5,86.79a50.39,50.39,0,0,1-8.43-9c-.47-.63-1.38.07-1.1.73,2.74,6.56,10.28,12.15,16.41,15.35.66.35,1.61-.48,1-1.09C70.89,90.58,68.06,88.88,65.5,86.79Z"/>
        <path class="cls-10" d="M77.29,106.71c-6-2.79-14.69-4.17-18.6-9.89-.15-.21-.46,0-.36.24,1.44,3.16,3.89,4.4,6.83,6a44.75,44.75,0,0,0,11.77,4.66A.56.56,0,0,0,77.29,106.71Z"/>
        <path class="cls-10" d="M86.38,119.8c-3.92-.11-7.55.55-11.51-.08-5.11-.81-10.18-1.86-14.75-4.37-.4-.22-.79.34-.4.6,7.57,5,17.91,7.21,26.74,5.11C87.13,120.9,87.14,119.81,86.38,119.8Z"/>
        <path class="cls-10" d="M90.36,133.43A71.78,71.78,0,0,1,64,135c-.33,0-.35.44,0,.5,8.67,1.65,18.34,2.41,26.71-1.14A.5.5,0,0,0,90.36,133.43Z"/>
        <path class="cls-10" d="M93.86,138.26a35.87,35.87,0,0,1-16.4,9.56c-.56.14-.4,1,.17.88,7-1.61,12.23-4.4,16.72-10C94.58,138.4,94.13,138,93.86,138.26Z"/>
        <path class="cls-10" d="M86.42,75.35c0,3.38.18,7-.19,10.3-.41,3.66-1.66,7.09-2.75,10.58a.89.89,0,0,0,1.57.77c4.47-6.49,3.08-14.18,3.08-21.52C88.13,74.39,86.44,74.25,86.42,75.35Z"/>
        <path class="cls-10" d="M104.86,94.16c1.82,11-4.79,21.67-7.55,31.89-.23.84.94,1.54,1.43.71,5.45-9.08,10.66-22.28,6.41-32.7C105.08,93.9,104.83,94,104.86,94.16Z"/>
      </g>
      <path class="cls-5" d="M124.22,157.59a.43.43,0,0,1-.56-.19,24.13,24.13,0,0,1-1-2.51,23.22,23.22,0,0,1-24.48-3.07c-10.43,6-23.08,3.25-28.44-3.37-11.47-14-16.53-30.21-17.83-45.93a1.36,1.36,0,0,0,0-.25c5.44,20.37,28.62,32.35,38.42,30a5.59,5.59,0,0,0,3.33-2,1.38,1.38,0,0,0,.33-.48s.08-.07.08-.11a2.36,2.36,0,0,0,.33-.7,22.38,22.38,0,0,0,2.33,1.73c3,2,8.21,4.29,11.28-.33a39.15,39.15,0,0,0,3.18-6c.22-.56.44-1.08.67-1.59a52.08,52.08,0,0,0,2.18-7.47c.15.48,1.14,4.29,2.51,9.57.11.52.26,1,.41,1.56,1,3.84,2.11,8.32,3.18,12.76,1.33,5.47,2.59,10.91,3.44,15.16C123.81,155.55,124,156.63,124.22,157.59Z"/>
      <path class="cls-5" d="M109.83,147.78a17,17,0,0,0,4.59,2.69l-4-.37C110.2,149.31,110,148.57,109.83,147.78Z"/>
      <path class="cls-11" d="M267.52,69.76c-15.31,10.43-28.3,19.74-39.22,28.05-35,26.6-49,42.9-51.66,52.62-.75.08-1.53.12-2.32.2-4.55.38-9.22.71-14,.91-.58-.33-1.2-.66-1.82-1-13.94-8.07-30.94-20.06-30.94-20.06L139,112.91c6,4.09,28-2.65,54.56-23.46A257.27,257.27,0,0,0,237.32,45C258.21,18.14,283.44,11.23,295.44,17,308.14,23.15,305.9,43.66,267.52,69.76Z"/>
      <path class="cls-12" d="M174.32,150.63c-9.22.79-18.9,1.2-29,1.2-5.37,0-10.67-.12-15.8-.37-.66,0-1.32,0-2-.08-4.47-.21-8.9-.54-13.16-.91l-4-.37c-.25-.79-.45-1.53-.62-2.32-3.35-13.4-.62-26.72,7.78-35.08,9.88-9.88,28.09,1.9,42.27,17.75A111.67,111.67,0,0,1,174.32,150.63Z"/>
      <path class="cls-5" d="M295.44,17v0c7.73,19.45-23.25,42.36-72.35,73.14-42.16,26.4-55.91,36.78-59.81,44.27-1.11-1.36-2.23-2.71-3.4-4-2.89,10.05-17,18.82-30.32,21,5.13.25,10.43.37,15.8.37q7.62,0,14.94-.31l0,0c4.76-.2,9.43-.53,14-.91.79-.08,1.57-.12,2.32-.2,2.69-9.72,16.63-26,51.66-52.62,10.92-8.31,23.91-17.62,39.22-28C305.9,43.66,308.14,23.15,295.44,17Z"/>
      <path class="cls-6" d="M253,115a10.78,10.78,0,0,1,.78,3.92c0,14.85-32.55,27.42-77.18,31.48-.75.08-1.53.12-2.32.2-4.55.38-9.22.71-14,.91s-9.89.29-15,.29c-6.08,0-12-.16-17.78-.45s-11.63-.75-17.13-1.28c-42.42-4.39-73-16.48-73.5-30.8l-18.07.35a12.65,12.65,0,0,0-.33,2.66c0,21.24,56.78,38.46,126.82,38.46s126.82-17.22,126.82-38.46a13.68,13.68,0,0,0-2.49-7.61Z"/>
    </g>
  </g>
</svg>
