<svg id="Layer_1" data-name="Layer 1" xmlns="http://www.w3.org/2000/svg" xmlns:xlink="http://www.w3.org/1999/xlink" width="309.96" height="308.28" viewBox="0 0 309.96 308.28">
  <defs>
    <style>
      .cls-1 {
        fill: none;
      }

      .cls-2 {
        opacity: 0.3;
      }

      .cls-3 {
        fill: #ff0;
      }

      .cls-4 {
        clip-path: url(#clip-path);
      }

      .cls-5 {
        fill: url(#linear-gradient);
      }

      .cls-6 {
        fill: url(#linear-gradient-2);
      }

      .cls-7 {
        fill: #fff;
      }

      .cls-8, .cls-9 {
        fill: #e2f3f7;
      }

      .cls-9 {
        opacity: 0.56;
      }

      .cls-10 {
        fill: url(#linear-gradient-3);
      }

      .cls-11 {
        fill: url(#linear-gradient-4);
      }

      .cls-12 {
        fill: url(#linear-gradient-5);
      }

      .cls-13 {
        fill: url(#linear-gradient-6);
      }
    </style>
    <clipPath id="clip-path">
      <rect class="cls-1" x="11.19" y="10.31" width="283.26" height="283.26"/>
    </clipPath>
    <linearGradient id="linear-gradient" x1="153.69" y1="319.95" x2="157.39" y2="-33.07" gradientUnits="userSpaceOnUse">
      <stop offset="0" stop-color="#ceebf6"/>
      <stop offset="0.09" stop-color="#b8dff1"/>
      <stop offset="0.27" stop-color="#8bc6e7"/>
      <stop offset="0.46" stop-color="#68b3df"/>
      <stop offset="0.63" stop-color="#4fa5da"/>
      <stop offset="0.78" stop-color="#409dd6"/>
      <stop offset="0.91" stop-color="#3b9ad5"/>
    </linearGradient>
    <linearGradient id="linear-gradient-2" x1="145.45" y1="293.59" x2="145.68" y2="271.44" gradientUnits="userSpaceOnUse">
      <stop offset="0" stop-color="#9ebe5a"/>
      <stop offset="0.22" stop-color="#b8cf76"/>
      <stop offset="0.48" stop-color="#cfde8f"/>
      <stop offset="0.72" stop-color="#dde79e"/>
      <stop offset="0.91" stop-color="#e2eaa3"/>
    </linearGradient>
    <linearGradient id="linear-gradient-3" x1="261.95" y1="81.44" x2="260.08" y2="-12.35" gradientUnits="userSpaceOnUse">
      <stop offset="0" stop-color="#cde4ee"/>
      <stop offset="0.32" stop-color="#e5f1f6"/>
      <stop offset="0.56" stop-color="#f3f8fb"/>
      <stop offset="0.7" stop-color="#fafcfd"/>
      <stop offset="0.91" stop-color="#fff"/>
    </linearGradient>
    <linearGradient id="linear-gradient-4" x1="175.32" y1="141.78" x2="171.24" y2="41.21" gradientUnits="userSpaceOnUse">
      <stop offset="0.23" stop-color="#cde4ee"/>
      <stop offset="0.26" stop-color="#d2e7f0"/>
      <stop offset="0.51" stop-color="#ebf4f8"/>
      <stop offset="0.73" stop-color="#fafcfd"/>
      <stop offset="0.91" stop-color="#fff"/>
    </linearGradient>
    <linearGradient id="linear-gradient-5" x1="217.91" y1="217.53" x2="218.12" y2="198.33" gradientUnits="userSpaceOnUse">
      <stop offset="0" stop-color="#cde4ee"/>
      <stop offset="0.05" stop-color="#d2e7f0"/>
      <stop offset="0.38" stop-color="#ebf4f8"/>
      <stop offset="0.67" stop-color="#fafcfd"/>
      <stop offset="0.91" stop-color="#fff"/>
    </linearGradient>
    <linearGradient id="linear-gradient-6" x1="154.39" y1="296.45" x2="154.71" y2="266.13" gradientUnits="userSpaceOnUse">
      <stop offset="0" stop-color="#9ebe5a"/>
      <stop offset="0.31" stop-color="#b3cd67"/>
      <stop offset="0.64" stop-color="#c2d870"/>
      <stop offset="0.91" stop-color="#c7dc73"/>
    </linearGradient>
  </defs>
  <g>
    <rect class="cls-2" x="9.06" y="8.18" width="298.74" height="298.42"/>
    <rect class="cls-3" x="2.51" y="1.63" width="300.63" height="300.63"/>
    <g class="cls-4">
      <g>
        <rect class="cls-5" x="9.39" y="10.29" width="292.13" height="283.31"/>
        <g>
          <path class="cls-6" d="M22.32,288.51c.15.69.28,1.38.4,2.08l249,2.24c-66.59-18.46-113.69-20.18-145.15-18-9.23.66-31.15,2.61-69.84,5.33-13.87,1-26.47,1.81-37.47,2.51A12.56,12.56,0,0,1,22.32,288.51Z"/>
          <path class="cls-7" d="M296.1,108.78c-.42-.35-7.75-6.14-15.4-3.16a13.71,13.71,0,0,0-5.77,4.4,10.25,10.25,0,0,0-10.61-5c-4.19.76-7.46,4.16-8,7.42-.3,2,.51,3.31-.21,3.86-1.21.91-3.72-2.58-7.74-3.33-4.46-.83-10.71,1.71-12.73,6.9a11.7,11.7,0,0,0,.53,9,6.82,6.82,0,0,0-11.14,7.25,8.09,8.09,0,0,0-9.18-2.63c-3.78,1.61-5.78,6.78-3.55,11.3a22.7,22.7,0,0,0-15.91-1.95c-1.73.47-7.05,1.89-10.25,6.72-.85,1.28-2.77,4.18-2.12,7.78a9,9,0,0,0,1.76,3.89c-13.54,1.31-28.13,2.81-28.1,3.24,0,.22,3.71.06,8.48-.06,7.34-.19,15.67-2.31,31.82,0,11.14,1.59,18-.67,29.17.46,1.42,3.22,7.27,5.52,15.45,5.88,9.47.42,15.61-2,29.41-5.75a211.15,211.15,0,0,1,24.05-5Z"/>
          <path class="cls-7" d="M12.85,81.73s20.44-8.48,24,13.79C49,91.28,54.29,104,51.11,111.43c2.13-2.5,5.29-3.44,7.43-2.47,2.85,1.29,4.42,6.23,1.59,10.43,1.95-3.84,5.64-5,7.24-4.07s2.14,4.41.18,7.78c.58-.36,4.85-3,9.63-1.29a11.61,11.61,0,0,1,7.34,11.37,102.17,102.17,0,0,1,31.83,6.36s-16.45,1.59-27,3.18S80.73,147,64.6,147c-16.67.53-6.38-4.78-27.7,0-3.29,4.18-24,2.13-24,2.13Z"/>
          <path class="cls-8" d="M173.79,164.92a61.87,61.87,0,0,0,17.69-4.34A25.68,25.68,0,0,1,200,158.1a22.93,22.93,0,0,1,10.25,1.6c-.22-.75-1.59-5.69,1.06-9,3.08-3.86,10.72-4.53,17,.47-.15-.73-1.27-6.44,2.13-10,3.77-4,12-4.07,18,1.59-1.81-3.7-2-7.93,0-10.78,3-4.32,11.12-5.48,17.5-.35-.16-.53-2.09-7.52,1.94-12s13.15-5.06,19.81.89c6.89-5.31,8.44-2.14,8.44-2.14V160s-18.18,2.49-33.2,8.24a51.34,51.34,0,0,1-12.72,2.57,54,54,0,0,1-27.23-5.3Z"/>
          <path class="cls-8" d="M12.85,99.87s13.86.44,15.45,14.75c.26-.25,4.41-4.19,10.08-2.83,3.86.92,7.1,4,7.78,7.42.85,4.25-2.47,7.81-1.41,8.66.9.74,3-1.87,7.07-2.65.85-.16,7-1.24,9.54,2.48,1.72,2.52,1.24,6.5-1.23,9.72a22.49,22.49,0,0,1,12.5-1.64c2.14.31,4.44,1.35,7.65,3.76,10.08-2.12,36.07,0,36.07,0A100.5,100.5,0,0,0,95,142.19c-8.06,1.92-9.69,3.42-17.67,4.6a65.48,65.48,0,0,1-18.17.33,60.78,60.78,0,0,1-10.65-2.4c-8.16,2.07-21.37,8.1-35.61,4.38Z"/>
          <path class="cls-9" d="M94.85,187.2s2.3-1.28,7.92,0a4.3,4.3,0,0,1,.2-1.87,4.21,4.21,0,0,1,2.36-2.6,4.11,4.11,0,0,1,4.34,1.15,3,3,0,0,1-.8-2.19c.22-1.8,2.76-3.24,4.77-2.61a4.13,4.13,0,0,1,2.42,2.5c2.81-4.86,6.64-4.09,8.43.51a2.79,2.79,0,0,1,2.44-.85,2.67,2.67,0,0,1,1.77,1.47,3.38,3.38,0,0,1,.13,2.7,4.31,4.31,0,0,1,2.45-1.78c1.45-.37,3.58,0,4.28,1.58a3.5,3.5,0,0,1-.34,3c5.62-2.81,6.13-.51,6.39,2.05a9.39,9.39,0,0,1,10.47,3.83s-2.1-2-8,0c0,0-1,2.55-4.57,0,0,0-4,1.79-5.82-.14-1.59-.69-3.52-.23-6.81.79-3.52.57-7.16-1.93-8.63-3.07s-3.18-1-5.34.35-2.16-.57-3.63-1.82c0,0-1,.91-3.41.11-1.51-.5-2.33-1.27-3.83-1.81a20,20,0,0,0-3.55-.57C96.94,187.68,95.66,187.4,94.85,187.2Z"/>
          <g>
            <path class="cls-7" d="M98.37,218.35A60.55,60.55,0,0,0,87.29,216c-3.77-2.83-6.83-6.13-13.9-5.42a9.67,9.67,0,0,0-7.48-3,9.3,9.3,0,0,0-5.72,2.64A8.06,8.06,0,0,0,57.42,205a7.8,7.8,0,0,0-7.61-1.18c-2.06.85-3,2.56-3.48,2.27s1.45-2.87.77-5.43c-.77-2.93-4.58-4.22-5-4.24-5.74-.28-8.47,1.32-9.9,2.83-2.27,2.39-1.66,4.92-3.89,5.91-2.74,1.21-5.19-2.08-8.88-.79a8.79,8.79,0,0,0-3.61,2.67,10.08,10.08,0,0,1-3,2.06,3.93,3.93,0,0,1,0,1v1.17c0,.41,0,.67,0,1.07.69.16,1.41,0,1.84.15a8,8,0,0,0,3.11.65c2.82-.05,4.16-1.92,6.32.06,2.83,2.59,1.41,5.66,6.6,3.54S38,213.65,42.51,216c7.21,8,23.1,3.77,29.93,3.77,4.25,3.77,8.25,2.12,13.67-.94a25.94,25.94,0,0,0,21.81,3.4A60.52,60.52,0,0,0,98.37,218.35Z"/>
            <path class="cls-8" d="M87.29,218.94c-3.77-2.83-6.83-6.13-13.9-5.42-5.19-4-9-4.72-13.2,1.65-2.53-3.7-5.91-7.4-9.55-7.07-3.35.3-5.8,3.91-6.8,3.2s2-4.92.43-7.52c-1.36-2.2-6-3-8.71-1.34s-3,4.81-5.93,5.66a2.59,2.59,0,0,1-1.27,0c-4.95-1.18-8.72-2.6-12.49,1.88a4.57,4.57,0,0,1-3.08,1.46c0,1.09.05,1.36.06,2.2,0,.2,0,.7,0,.9a20.16,20.16,0,0,0,1.84.86c5.19,2.13,6.6-1.88,9.43.71s1.41,5.66,6.6,3.54,7.31-3.07,11.79-.71c7.21,7.95,23.1,3.77,29.93,3.77,4.25,3.77,7.58-2.21,13.67-.94,16.56,3.46,21.81.47,21.81.47S93.19,220.12,87.29,218.94Z"/>
          </g>
          <g>
            <path class="cls-7" d="M46.43,42.25A8.79,8.79,0,0,1,50,39.58c3.69-1.29,6.15,2,8.89.79,2.22-1,1.61-3.52,3.88-5.91,1.44-1.51,4.17-3.11,9.9-2.83a5.59,5.59,0,0,1,2.72,10.15l4.36-3.08a8.72,8.72,0,0,1,4.59,0C89,40,90.61,45,90.75,45.42a9.3,9.3,0,0,1,5.72-2.64,9.67,9.67,0,0,1,7.48,3c7.07-.71,10.13,2.59,13.91,5.42a60.63,60.63,0,0,1,11.07,2.34,61.49,61.49,0,0,1,9.55,3.89,25.91,25.91,0,0,1-21.8-3.4c-5.43,3.06-9.43,4.71-13.68.94-6.83,0-22.72,4.18-29.93-3.77-4.48-2.36-6.6-1.41-11.79.71s-3.77-.94-6.6-3.54c-2.16-2-3.49-.11-6.31-.06a8.08,8.08,0,0,1-3.12-.64c-2-.73-6.75-1.57-17.68-2.26C39.21,46.79,44.14,44.66,46.43,42.25Z"/>
            <path class="cls-8" d="M46.43,45.18c3.77-4.47,7.55-3.06,12.5-1.88,3.18.76,3.13-3.8,7.2-5.66a12.33,12.33,0,0,1,5.52-1.06,8.36,8.36,0,0,1,3.78,5.2c.45,2.87-1.43,5.29-.85,5.7.75.53,3.24-3.74,6.62-4.18s6.76,3.06,9.55,7.07c4.24-6.36,8-5.66,13.2-1.65,7.07-.71,10.13,2.59,13.91,5.42C123.75,55.32,136.4,57,136.4,57s-12.18,2.12-19.72,0c-5.43,3.06-9.43,4.71-13.68.94-6.83,0-22.72,4.18-29.93-3.77-4.48-2.36-6.6-1.41-11.79.71s-3.77-.94-6.6-3.54-4.24,1.42-9.43-.7S34.41,43.3,27.57,45.42C30.17,42.59,42.66,49.66,46.43,45.18Z"/>
          </g>
          <path class="cls-10" d="M287.3,44.72S267,38.51,263.49,52.58c0,0-4-4.32-8.25,3.69-9.9-3.53-8.76,3.3-11.1,5.66a99.73,99.73,0,0,0-17.42,3.77,71.84,71.84,0,0,1,16,0c9.9,1,9.67-3.63,16.5-1.82s26.87,8.19,32.29,4.18,4.56-1.41,4.56-1.41V43.36Z"/>
          <path class="cls-11" d="M123.47,108.37s2.59-.71,9.19,0-.24-4.25,5.42-5.9a20.52,20.52,0,0,1,10.84,0,11,11,0,0,1,3.54-5.18,12.64,12.64,0,0,1,6.24-2.37c4.62-.79,6,1.09,7.9-.11,2.52-1.53,1-4.84,3.54-7.77,3.08-3.61,9.09-3,10.24-2.88,8.59,1.06,12.52,10.13,12.74,10.65a8.32,8.32,0,0,1,15.68,1.06c10.84.48,15.32,3.88,15.32,3.88a21.56,21.56,0,0,1-4.13.75,21.86,21.86,0,0,1-7.66-.75c-2.59.06-6.41.17-11.06.46-4.33.27-8.87.57-8.88,1,0,.79,12.44,1.42,12.42,2.19,0,.32-2.12.5-2.61.53-10.1.81-27.1.24-27.11.39s13.42,1.08,13.47,2.8c0,.35-.52.74-2.16,1.28-4.86,1.58-9.07,1-14.85.16-7.05-1-10.65-1.47-14.06-.85a26.67,26.67,0,0,0-5.27,1.56c-1.58.18-3.2.32-4.87.43A101,101,0,0,1,123.47,108.37Z"/>
          <path class="cls-12" d="M163.94,212.56a9,9,0,0,0,5.54,2.18c4.4.11,7.13-3.92,10.33-6.43,3.41-2.66,9.24-5.15,19.8-3.89A26.44,26.44,0,0,1,211,201a26.1,26.1,0,0,1,8.44.88c12.73-4.89,9.2-4,20.51-.89,12.73-4.71,32.13,5.6,32.13,5.6-10.66-4.15-18.53-4-23.88-3-3.79.71-6.59,1.9-13.88,3s-12.12,1-12.15,1.62c0,1.18,19.22,2.31,19.2,4,0,.93-6,1.72-8.28,2a58.46,58.46,0,0,1-6.34.52c-16.5-.06-37,5.72-46.2,0C173.45,218.21,163.94,212.56,163.94,212.56Z"/>
          <path class="cls-13" d="M12.85,278.89s36.14-5.16,70.79,8.62c38.89,9.2,103.24-4.83,134.36-9.48s56.49-10.32,78.1-4.66l0,19.46H12.85Z"/>
        </g>
      </g>
    </g>
  </g>
</svg>
