<svg id="Layer_1" data-name="Layer 1" xmlns="http://www.w3.org/2000/svg" width="623" height="456" viewBox="0 0 623 456">
  <defs>
    <style>
      .cls-1 {
        fill: #8d8e8d;
      }

      .cls-2 {
        fill: #ff0;
      }

      .cls-3 {
        fill: #8436ff;
      }

      .cls-4 {
        fill: none;
        stroke: #fff;
        stroke-miterlimit: 10;
        stroke-width: 2px;
        stroke-dasharray: 12 12;
      }

      .cls-5 {
        fill: #fff;
      }
    </style>
  </defs>
  <g>
    <g>
      <g>
        <g>
          <g>
            <path class="cls-1" d="M397,107.08a16.7,16.7,0,1,0-16.59-16.7A16.65,16.65,0,0,0,397,107.08Z"/>
            <path class="cls-1" d="M452.38,132.65H338.67v26.63H382v84.33H309.94c7.77-11.81,18.11-36.76,16.56-51.21-.77-7.23-1.49-14-4.48-20.14s-8.59-13-16.77-20.6a94.16,94.16,0,0,0-26.45-17.53Q264.63,128,255.66,128a75.89,75.89,0,0,0-24.09,4.28c-8.5,2.86-24,10.69-34.4,16.07l9.45,20q3.3,5.72,7.09,5.71c9.12-4.76,24.31-13.37,33.44-18.45q14.64-6.65,25.51-6.65,12.75,0,20.54,7.84c5.2,5.23,7.85,18.4,9,27.52,1.32,10.6,1.32,29.8-12,44.21C286.39,233.93,279.43,238,275,238q-12.28,1.91-22,3.09a131.56,131.56,0,0,1-15.35,1.19q-8,0-8,8.08,0,3.34,9,13.32t12.28,10c2.52,0,35-8.69,43-5.21,38.35,16.75,33.38,56.29,14.06,75.67-7.42,7.54-19.08,11.91-37.18,10.67-16-1.1-27.35-5.72-39.78-17.3s-36.6-48-47.62-73.08l-12.75,7.14c13.85,30.27,38.35,71.23,54.57,86.69s33.93,23.18,53.14,23.18q28.34,0,46.05-15.72c19.75-18.94,28.78-46.32,18.26-76.78-1.16-3.36-4.82-12.68-9.23-18.7H382V382.32h28.34v-223h42Z"/>
          </g>
          <g>
            <path class="cls-2" d="M397,110.6a20.22,20.22,0,1,0-20.11-20.22A20.18,20.18,0,0,0,397,110.6Zm0-36.92a16.7,16.7,0,1,1-16.59,16.7A16.64,16.64,0,0,1,397,73.68Z"/>
            <path class="cls-2" d="M455.9,132.65a3.53,3.53,0,0,0-3.52-3.52H338.67a3.53,3.53,0,0,0-3.52,3.52v26.63a3.53,3.53,0,0,0,3.52,3.52h39.82v77.29H316.15c7.49-13.5,15.29-34.63,13.85-48.09-.81-7.49-1.57-14.57-4.82-21.28-3.18-6.53-9.08-13.81-17.54-21.64a98.31,98.31,0,0,0-27.44-18.17c-10-4.34-18-6.45-24.54-6.45a79.65,79.65,0,0,0-25.21,4.46c-6.65,2.23-18.07,7.56-34.89,16.28a3.52,3.52,0,0,0-1.56,4.63l9.44,20,.14.25c2.86,4.95,6.27,7.46,10.13,7.46a3.52,3.52,0,0,0,1.62-.39c6.89-3.59,17.35-9.44,25.75-14.15l7.66-4.27c9.2-4.17,17.25-6.29,23.92-6.29,7.6,0,13.5,2.23,18,6.81,3.45,3.47,6.43,13,8,25.48,1.2,9.67,1.35,27.91-11.13,41.38a2.44,2.44,0,0,0-.32.4c-3.14,4.57-9,8-12.22,8a3.27,3.27,0,0,0-.54,0c-8.19,1.27-15.55,2.3-21.85,3.07a130,130,0,0,1-14.92,1.16c-7.34,0-11.55,4.23-11.55,11.6,0,2.44,1.2,6,9.88,15.67,8.8,9.8,12.36,11.15,14.89,11.15.95,0,2.47-.32,7.15-1.33,8.15-1.76,21.78-4.7,30-4.7a11.75,11.75,0,0,1,4.37.53c14.53,6.34,23.52,16.61,26,29.71,2.64,13.87-2.48,29.67-13,40.26-6.5,6.62-15.9,9.83-28.74,9.83-1.83,0-3.74-.06-5.69-.2-15.58-1.07-26.13-5.66-37.63-16.36S198,288.88,186.59,263a3.49,3.49,0,0,0-2.1-1.92,3.55,3.55,0,0,0-2.83.26l-12.76,7.14a3.52,3.52,0,0,0-1.48,4.53c14,30.54,38.5,71.72,55.35,87.77s35.5,24.15,55.56,24.15c19.69,0,36-5.58,48.38-16.61a.43.43,0,0,0,.1-.09c22.41-21.48,29.39-50.81,19.15-80.46a99.14,99.14,0,0,0-6.21-14h38.74v108.6a3.51,3.51,0,0,0,3.51,3.52h28.34a3.52,3.52,0,0,0,3.52-3.52V162.8h38.52a3.57,3.57,0,0,0,2.49-1,3.53,3.53,0,0,0,1-2.49Zm-45.56,26.63v223H382V270.2H333.41c4.41,6,8.07,15.34,9.23,18.7,10.52,30.46,1.49,57.84-18.26,76.78q-17.72,15.72-46.05,15.72-28.81,0-53.14-23.18c-16.22-15.46-40.72-56.42-54.57-86.69l12.75-7.14c11,25.05,35.17,61.51,47.62,73.08s23.76,16.2,39.78,17.3c18.1,1.24,29.76-3.13,37.18-10.67,19.32-19.38,24.29-58.92-14.06-75.67-8-3.48-40.44,5.21-43,5.21q-3.3,0-12.28-10t-9-13.32q0-8.07,8-8.08a131.56,131.56,0,0,0,15.35-1.19q9.68-1.19,22-3.09c4.41,0,11.37-4,15.12-9.51,13.36-14.41,13.36-33.61,12-44.21-1.13-9.12-3.78-22.29-9-27.52s-12-7.84-20.54-7.84q-10.87,0-25.51,6.65c-9.13,5.08-24.32,13.69-33.44,18.45q-3.79,0-7.09-5.71l-9.45-20c10.39-5.38,25.9-13.21,34.4-16.07A75.89,75.89,0,0,1,255.66,128q9,0,23.14,6.16a94.16,94.16,0,0,1,26.45,17.53Q317.52,163,322,172.26c3,6.16,3.71,12.91,4.48,20.14,1.56,14.45-8.79,39.4-16.56,51.21H382V159.28H338.67V132.65H452.38v26.63Z"/>
          </g>
        </g>
        <path class="cls-3" d="M452.38,132.65H338.67v26.63H382v84.33H309.94c7.77-11.81,18.11-36.76,16.56-51.21-.77-7.23-1.49-14-4.48-20.14s-8.59-13-16.77-20.6a94.16,94.16,0,0,0-26.45-17.53Q264.63,128,255.66,128a75.89,75.89,0,0,0-24.09,4.28c-8.5,2.86-24,10.69-34.4,16.07l9.45,20q3.3,5.72,7.09,5.71c9.12-4.76,24.31-13.37,33.44-18.45q14.64-6.65,25.51-6.65,12.75,0,20.54,7.84c5.2,5.23,7.85,18.4,9,27.52,1.32,10.6,1.32,29.8-12,44.21C286.39,233.93,279.43,238,275,238q-12.28,1.91-22,3.09a131.56,131.56,0,0,1-15.35,1.19q-8,0-8,8.08,0,3.34,9,13.32t12.28,10c2.52,0,35-8.69,43-5.21,38.35,16.75,33.38,56.29,14.06,75.67-7.42,7.54-19.08,11.91-37.18,10.67-16-1.1-27.35-5.72-39.78-17.3s-36.6-48-47.62-73.08l-12.75,7.14c13.85,30.27,38.35,71.23,54.57,86.69s33.93,23.18,53.14,23.18q28.34,0,46.05-15.72c19.75-18.94,28.78-46.32,18.26-76.78-1.16-3.36-4.82-12.68-9.23-18.7H382V382.32h28.34v-223h42Z"/>
      </g>
      <g>
        <path class="cls-4" d="M394.78,81s17.46-2.3,14.21,16.66c0,0-9,11.77-20,.54"/>
        <polygon class="cls-5" points="401.77 101.23 391.68 84.03 381.83 101.37 401.77 101.23"/>
      </g>
    </g>
    <path class="cls-3" d="M397.05,106.8a16.56,16.56,0,1,0-16.56-16.57,16.57,16.57,0,0,0,16.56,16.57"/>
  </g>
</svg>
