<svg id="Layer_1" data-name="Layer 1" xmlns="http://www.w3.org/2000/svg" width="623" height="456" viewBox="0 0 623 456">
  <defs>
    <style>
      .cls-1 {
        fill: #ff0;
      }

      .cls-2 {
        fill: #8d8e8d;
      }

      .cls-3 {
        fill: none;
        stroke: #fff;
        stroke-miterlimit: 10;
        stroke-width: 2px;
        stroke-dasharray: 12 12;
      }

      .cls-4 {
        fill: #fff;
      }

      .cls-5 {
        fill: #8436ff;
      }
    </style>
  </defs>
  <g>
    <g>
      <g>
        <path class="cls-1" d="M347.41,389.29a4.11,4.11,0,0,1-.85-.1,3.54,3.54,0,0,1-2.35-1.74c-7-12.79-15.13-32.58-21-47-2.41-5.88-4.72-11.51-6.1-14.51-5.91.6-12.81.93-19.76.93-10.27,0-25.2-.71-38-4.08-23.69-6.24-38.54-22.91-36.12-40.54,1.8-13.15,13.8-27.38,42.1-27.87h1a52.2,52.2,0,0,1,15.43,2.28,55.85,55.85,0,0,1,13.7,6.43,75.72,75.72,0,0,1,12.07,9.74,122.74,122.74,0,0,1,10.94,12.37c1.52,1.93,3,4,4.64,6.19l.21-.09c1-.44,2-.85,3-1.32a28.82,28.82,0,0,0,5.68-3.46,41.33,41.33,0,0,0,6.43-7.1,59.13,59.13,0,0,0,6-9.51c.5-1,1-2,1.4-3a67.72,67.72,0,0,0,4.77-17.18c.23-1.55.48-3.37.6-5.16.14-1.94.23-2.9.29-3.56.05-.51.08-.82.1-1.33,0-.87.07-1.33.09-1.65a10.13,10.13,0,0,0,0-1.07c0-4.21-.7-6.12-3.37-8.88-1.8-1.86-4.33-2.65-7.56-3.27a16.2,16.2,0,0,0-3-.25,45.16,45.16,0,0,0-7.75.88,109.68,109.68,0,0,0-11.07,2.75l-1.11.31A82.52,82.52,0,0,1,306.86,231a130.55,130.55,0,0,1-13.75,1.24c-1.29.05-2.61.08-3.93.09h-.78c-3.36,0-6.65-.14-9.77-.42a86.45,86.45,0,0,1-11.24-1.74,65.82,65.82,0,0,1-11.22-3.57,49.88,49.88,0,0,1-10.43-6l-1.2-.93c-9.43-7.62-22.42-27.41-19.54-50.72a57.77,57.77,0,0,1,23.8-40.48c12.05-8.61,29.12-13,50.72-13a190.11,190.11,0,0,1,25.54,1.82V101.27H204.81a3.5,3.5,0,0,1-3.61-3.34l-.32-27.8a3.29,3.29,0,0,1,1-2.41,3.71,3.71,0,0,1,2.57-1h214a3.51,3.51,0,0,1,3.61,3.38v27.8a3.5,3.5,0,0,1-3.61,3.38H360.35v40.8c.28,3.6-.93,10.06-7.19,12.21a20.3,20.3,0,0,1-6.62,1,33.89,33.89,0,0,1-10.19-1.73c-6.46-1.62-25.51-4.89-44.56-4.89-15.07,0-26,2.11-31.56,6.1-2,1.45-7.93,7.71-8.57,17.14-.87,12.69,3.6,18.32,6.35,20.54s7.15,3.37,11.39,4.18a102.11,102.11,0,0,0,15.21,1.64c3.26.14,5.76.2,8.09.2,1.91,0,3.65-.05,5.33-.13,1.31-.07,2.59-.16,3.8-.28A102,102,0,0,0,314.48,196l.57-.13c3.76-.86,6.74-1.53,10.84-2.24,1.2-.21,4.18-.62,5.43-.71,1.72-.12,3.16-.2,4.63-.2a30,30,0,0,1,5.22.43,54.23,54.23,0,0,1,12.29,3.25,58.11,58.11,0,0,1,9.74,4.5,31,31,0,0,1,7.64,6,41,41,0,0,1,5.65,7.41,66.59,66.59,0,0,1,4.84,10.78l.61,1.67a21.8,21.8,0,0,1,1.21,4.28l.15.67a65.49,65.49,0,0,1,1.6,12.13A96.35,96.35,0,0,1,384,260.3a88.51,88.51,0,0,1-3.56,15.29,79.12,79.12,0,0,1-6.07,13.76,72.69,72.69,0,0,1-19.47,22.33c-.5.38-1,.75-1.51,1.11a77.29,77.29,0,0,1-11.94,7l2.91,4.78c9,14.79,18.24,30.05,28.92,44.13a3.25,3.25,0,0,1-.85,4.71L349.5,388.66A3.75,3.75,0,0,1,347.41,389.29ZM268.83,290.9A136.36,136.36,0,0,0,292,294.83c-14.58-11.28-22.1-13.15-25.47-13.15-2.42,0-3.29.94-3.74,1.64a5.22,5.22,0,0,0-.44,4.21C263.36,288.83,264.83,289.85,268.83,290.9Z"/>
        <path class="cls-2" d="M418.51,97.89V70.09h-214l.32,27.8H328.66v23.39c-21.24-3.31-56.1-5.52-77.68,9.9a54.63,54.63,0,0,0-22.39,38.18c-2.6,20.95,8.62,39.95,18.31,47.76l1.1.86a45.69,45.69,0,0,0,9.67,5.52,61.35,61.35,0,0,0,10.57,3.37A82.5,82.5,0,0,0,279,228.52c3.38.31,6.79.43,10.18.41,1.27,0,2.54,0,3.81-.08a126.83,126.83,0,0,0,13.35-1.21,80.2,80.2,0,0,0,10.39-2.39c4.15-1.17,8.29-2.39,12.55-3.15,3.84-.68,8.27-1.35,12.15-.61,3.71.71,7,1.73,9.51,4.31,3.45,3.57,4.33,6.42,4.31,11.16,0,1.14,0,.89-.14,2.86-.05,1.22-.13,1.41-.39,5-.13,1.8-.37,3.6-.63,5.39a70.39,70.39,0,0,1-5,18c-.46,1.07-.95,2.11-1.48,3.15a62.4,62.4,0,0,1-6.35,10,44.86,44.86,0,0,1-7,7.67,33.83,33.83,0,0,1-6.36,3.91c-1.16.57-2.36,1.06-3.55,1.57-.94.4-2.34,1.49-3.16.34h0l-.62-.87c-1.64-2.3-3.33-4.58-5.08-6.82a119.59,119.59,0,0,0-10.63-12,72.34,72.34,0,0,0-11.51-9.29,51.9,51.9,0,0,0-12.78-6,48.71,48.71,0,0,0-14.31-2.11h-.9c-26,.45-37,13.17-38.58,24.93-2.19,15.92,11.6,31.08,33.51,36.85,18.71,4.92,44.88,4.47,58.92,2.76,2.94,4.69,17.13,43.41,28.21,63.65h0l22.89-15.24c-10.79-14.23-20.1-29.58-29.11-44.42q-2.44-4-4.84-7.94a73.81,73.81,0,0,0,14.81-8.21c.48-.34,1-.7,1.43-1.05a69.21,69.21,0,0,0,18.55-21.27A75.43,75.43,0,0,0,377,274.59a84.28,84.28,0,0,0,3.43-14.74,92.22,92.22,0,0,0,.91-15.92,62.48,62.48,0,0,0-1.52-11.55,27.59,27.59,0,0,0-1.86-6.21,62.78,62.78,0,0,0-4.59-10.26,38,38,0,0,0-5.13-6.72,27.35,27.35,0,0,0-7-5.48,54.43,54.43,0,0,0-9.11-4.2,50.64,50.64,0,0,0-11.57-3,35.85,35.85,0,0,0-8.93-.18c-1.12.08-3.95.47-5,.66-4.21.73-7.12,1.4-11.22,2.34a107.28,107.28,0,0,1-13.13,2.16c-1.32.13-2.65.23-4,.3-4.59.23-9.19.12-13.78-.07a108.17,108.17,0,0,1-15.77-1.7c-4.48-.86-9.49-2.07-13-4.94-2.16-1.75-8.65-7.8-7.59-23.31.69-10.13,6.8-17.33,10-19.61,16.81-12,66.35-5.09,79.41-1.75,0,0,8.08,3,14.46.75,5.47-1.88,4.83-8.91,4.83-8.91V97.89ZM267.89,294.16c-4.66-1.22-6.89-2.63-8.5-4.66-3.23-4.08-.21-27.69,42.82,9.21C295.58,298,289.44,299.37,267.89,294.16Z"/>
      </g>
      <g>
        <line class="cls-3" x1="204.49" y1="84.56" x2="402.55" y2="83.59"/>
        <polygon class="cls-4" points="399.69 93.58 416.91 83.52 399.59 73.63 399.69 93.58"/>
      </g>
      <g>
        <line class="cls-3" x1="343.13" y1="87.05" x2="343.51" y2="129.76"/>
        <polygon class="cls-4" points="333.52 126.94 343.64 144.11 353.46 126.75 333.52 126.94"/>
      </g>
      <g>
        <path class="cls-3" d="M344.48,139.43c-107.92-46.65-165,93.55-21.69,71.71"/>
        <polygon class="cls-4" points="321.6 221.37 336.92 208.59 318.2 201.72 321.6 221.37"/>
      </g>
      <g>
        <path class="cls-3" d="M334.81,208.59C379.16,189,404.3,363.89,243,297.09"/>
        <polygon class="cls-4" points="249.71 289.05 229.9 291.3 241.76 307.34 249.71 289.05"/>
      </g>
      <g>
        <path class="cls-3" d="M229.9,290.24s40-99.81,118.1,67"/>
        <polygon class="cls-4" points="337.69 358.76 353.95 370.3 355.81 350.44 337.69 358.76"/>
      </g>
    </g>
    <path class="cls-5" d="M418.28,97.87V70.07h-214l.32,27.8H328.43v23.39c-21.24-3.32-56.1-5.53-77.68,9.89a54.63,54.63,0,0,0-22.39,38.18c-2.59,21,8.62,39.95,18.31,47.76.36.3.73.58,1.1.86a46,46,0,0,0,9.67,5.53A62.2,62.2,0,0,0,268,226.84a80.83,80.83,0,0,0,10.73,1.65,101.79,101.79,0,0,0,10.18.41c1.27,0,2.54,0,3.81-.08a126.81,126.81,0,0,0,13.35-1.2,83.64,83.64,0,0,0,10.39-2.39A125.82,125.82,0,0,1,329,222.08c3.84-.68,8.27-1.35,12.15-.62,3.71.71,7,1.74,9.51,4.31,3.45,3.57,4.33,6.43,4.31,11.16,0,1.15,0,.9-.14,2.87-.05,1.21-.13,1.4-.39,5-.13,1.81-.37,3.6-.63,5.4a70.5,70.5,0,0,1-5,18c-.46,1.06-.95,2.11-1.48,3.14a62.49,62.49,0,0,1-6.35,10,45.62,45.62,0,0,1-7,7.67,33.78,33.78,0,0,1-6.36,3.9c-1.16.57-2.36,1.07-3.55,1.57-.94.4-2.34,1.5-3.16.34h0l-.62-.88c-1.64-2.3-3.33-4.58-5.08-6.81a119.7,119.7,0,0,0-10.63-12,73.47,73.47,0,0,0-11.51-9.29,52.26,52.26,0,0,0-12.78-6A48.71,48.71,0,0,0,266,257.69h-.9c-26,.44-37,13.16-38.58,24.92-2.19,15.93,11.6,31.08,33.51,36.85,18.71,4.93,44.88,4.47,58.92,2.76,2.94,4.7,17.13,43.42,28.21,63.65h0l22.89-15.24C359.28,356.41,350,341.07,341,326.23c-1.63-2.68-3.24-5.34-4.84-8a73.81,73.81,0,0,0,14.81-8.21c.48-.34,1-.69,1.43-1.05a69.11,69.11,0,0,0,10.38-9.68,70.12,70.12,0,0,0,8.17-11.59,75.11,75.11,0,0,0,5.81-13.19,84.07,84.07,0,0,0,3.43-14.74,92.17,92.17,0,0,0,.91-15.92,62.59,62.59,0,0,0-1.52-11.55,27.9,27.9,0,0,0-1.86-6.21,63.16,63.16,0,0,0-4.59-10.26,38,38,0,0,0-5.13-6.72,27.57,27.57,0,0,0-7-5.48,54.65,54.65,0,0,0-9.1-4.19,49.86,49.86,0,0,0-11.58-3.05,35.38,35.38,0,0,0-8.93-.18c-1.12.08-3.95.46-5,.65-4.2.73-7.12,1.41-11.22,2.34A107.28,107.28,0,0,1,302,201.41c-1.32.13-2.65.23-4,.3-4.59.23-9.19.12-13.78-.07a108.17,108.17,0,0,1-15.77-1.7c-4.48-.86-9.49-2.06-13-4.94-2.16-1.74-8.65-7.8-7.59-23.31.69-10.13,6.8-17.33,10-19.61,16.81-12,66.35-5.08,79.41-1.75,0,0,8.08,3,14.46.76,5.47-1.89,4.83-8.91,4.83-8.91V97.87ZM267.66,294.14c-4.66-1.23-6.89-2.63-8.5-4.67-3.23-4.08-.21-27.69,42.82,9.21C295.35,298,289.21,299.34,267.66,294.14Z"/>
  </g>
</svg>
