<svg id="Layer_1" data-name="Layer 1" xmlns="http://www.w3.org/2000/svg" width="449.62" height="180.02" viewBox="0 0 449.62 180.02">
  <defs>
    <style>
      .cls-1, .cls-2, .cls-7 {
        fill: #4b5454;
      }

      .cls-1 {
        stroke: #ff0;
        stroke-miterlimit: 10;
        stroke-width: 10px;
      }

      .cls-2 {
        fill-rule: evenodd;
      }

      .cls-3 {
        fill: #cff1f9;
      }

      .cls-4, .cls-5 {
        fill: #9dbcc1;
      }

      .cls-5 {
        opacity: 0.33;
      }

      .cls-6 {
        fill: none;
      }
    </style>
  </defs>
  <g>
    <path class="cls-1" d="M130.83,83.85a.49.49,0,0,0,0-.12c0-.09,0-.17,0-.26s0-.2,0-.3c0-.84.06-1.67.06-2.51,0-.17.05-.33.08-.47.32-1.63,1.89-1.29,4.33-1.16a20.26,20.26,0,0,0,3.95-.06c2.2-.47,4,1.77,5.63,3.31a16.54,16.54,0,0,1,3.25,4.36l.1.19A62.52,62.52,0,0,1,151.73,95c4.6,13.12,9.17,26.23,16.41,38.22,8.39,13.87,18.45,25.92,33.89,32.38h0c.08.05.32.17.71.35a.75.75,0,0,0,.18.08c.31.15.68.31,1.14.51l.87.35.59.23.55.21h0l.61.23.69.24.68.23.74.23.79.25.84.25q2.56.77,6,1.52l.15,0,1,.2c1.23.26,2.53.5,3.91.73l1.15.19q.68.12,1.38.21h0c.84.13,1.7.25,2.59.36l2.75.31,1.11.11c.75.08,1.52.15,2.29.21l1.17.08c.89.07,1.79.13,2.72.17.73.05,1.47.08,2.23.11L241,173h.71l1.17,0,1.36,0h1.39l1.94,0,2.38,0,1.5,0,1.52-.05c.47,0,.95,0,1.42-.06l1.45-.07,1.85-.12,1.57-.1,1.44-.11.66,0,1.11-.09,1.37-.12,1.37-.13,1-.1,1.4-.14,1-.11,1.63-.19h0l3.74-.48c12.36-2.42,21.56-8.09,27.34-17.68a40.87,40.87,0,0,0,3.34-7h0a85.47,85.47,0,0,0,6.53-27.12c1-5.66,1.94-11.35,2.71-17.08a8.8,8.8,0,0,1,5.74-7.47,48.65,48.65,0,0,1,5.12-1.82c2-.63,4.07-1.23,6.12-1.82,0,0,0,0,0,0h0a477.9,477.9,0,0,1,62.89-13.29c7.45-1.09,14.7-2,20.45-7.63a31.61,31.61,0,0,1,9-6c1.68-.78,3.57-.92,4,1.23.4,2,.93,4.17,1.31,6.14,1.59,8.39,1.3,16.81,1.31,25.32a5.73,5.73,0,0,0,4.18,5.56c4.37,1.17,8.34-2,8.41-6.89a102,102,0,0,0-1-15.79c-1-6.06-1.5-12.36-3.62-18.31-2.43-6.84-6.7-11.36-14.33-11.95a35.3,35.3,0,0,0-8.09.77c-26.67,4.14-52.93,10.4-79.41,15.57-1.71.33-3.41.64-5.1.9,0,0,0,0,0,0a46.2,46.2,0,0,1-16.73-.22q-9.49-2.06-19-3.87-18.78-3.61-37.73-6.29l-6.1-.83-.91-.11c-1.63-.22-3.26-.42-4.89-.62l-1.31-.16c-1.88-.23-3.76-.46-5.65-.67l-3.15-.36-8.09-.87c-3.35-.36-6.71-.7-10.06-1l-.73-.07-.22,0-1.35-.12-1-.09-1.45-.12-.74-.07-1.08-.09c-9-.71-19.8-1.32-19.8-1.32-2.65.15-5.77.22-9.14.26-4.69,0-9.84,0-14.77-.07-11.74-.18-22.21-.59-22.21-.59-.85-.1-1.72-.22-2.62-.34-3.48-.5-7.25-1.21-11.11-2.06-3-.63-6-1.34-8.92-2.09-16.1-4-31.12-9.1-31.12-9.1C86.82,34.23,82.78,33,78.83,31.9l3.24-.4h0c11.39-1.35,20.77-2.43,23.65-2.57a27.52,27.52,0,0,0,8.72-2.26,121.94,121.94,0,0,1,16.82-5.8c10-2.35,19.35-1.19,27.88,5a76.89,76.89,0,0,1,10.71,9.25,91.41,91.41,0,0,1,6,7.43,84.93,84.93,0,0,1,17-9.3c-2.59-2.2-5.15-4.25-7.43-5.84-19.59-13.6-40.95-20-65.08-18.66C89.09,10.47,47,15.48,16.16,20.49c-1,.23-1.51.49-1.57,1.34-1.3,0-2,0-2,0a3.11,3.11,0,0,0-2.95,2.55,21.57,21.57,0,0,0-.48,3.29c-.19,4-.5,8,.24,11.79h0c-.06.09-.14.18-.21.28l0,0A5.57,5.57,0,0,0,8.5,45.1l.15.37,3.68,9.32,3.09,7.83h0c.35,2.76.76,5.52,1.2,8.26a244.94,244.94,0,0,0,5.45,25.32c3,10.94,8.14,20.55,17.25,27.69,0,0,.13.13.39.34h0a9.28,9.28,0,0,0,3.3,4.2,106.33,106.33,0,0,0,16.54,9.49l1.83.82c1.25.53,2.53,1.06,3.84,1.55.8.31,1.62.6,2.45.89a38.56,38.56,0,0,0,13.65,2.05l1.21,0h.37c1.31.07,2.63.08,3.95,0a28.7,28.7,0,0,0,15.53-5,36.06,36.06,0,0,0,8-8q1.91-2.53,3.59-5.18c5.42-8.43,9.33-17.61,12.88-27,1.37-3.59,4.13-15.55,4.84-19.34"/>
    <g>
      <g>
        <path class="cls-2" d="M210.17,50.91c-9-.71-19.81-1.33-19.81-1.33-2.64.15-5.77.22-9.14.26a4.56,4.56,0,0,0,3.29,1.75c7.63.33,15.27.76,22.91,1.06C209.44,52.73,210.35,52.17,210.17,50.91ZM185,27.37c-19.59-13.6-41-20-65.08-18.67C88.67,10.47,46.53,15.48,15.74,20.49c-1,.23-1.5.49-1.57,1.34a1,1,0,0,0,0,.25L19,28.57l.23.31,1.42,1.93,5,6.8h.6c1.69-.05,4.73-.31,8.64-.7,2.14-.21,4.55-.47,7.15-.75l6.68-.75h0c8.46-1,18.09-2.13,27-3.2h0c.87-.09,1.72-.2,2.58-.3h0l3.25-.4h0c11.4-1.35,20.78-2.43,23.65-2.57A27.52,27.52,0,0,0,114,26.67a121.94,121.94,0,0,1,16.82-5.8c10-2.36,19.35-1.19,27.88,4.95a77,77,0,0,1,10.72,9.26,89.39,89.39,0,0,1,5.95,7.43,84.71,84.71,0,0,1,17-9.3C189.8,31,187.24,29,185,27.37Zm-123.11.46c5.28,1.12,10.81,2.46,16.51,4.06Z"/>
        <path class="cls-3" d="M310.74,119.25c.16-2.11.23-4.23.23-6.37a85.65,85.65,0,0,0-16.33-50.45q-18.78-3.6-37.73-6.28-3-.43-6.09-.83l-.92-.11c-1.63-.22-3.26-.43-4.89-.62-.43-.06-.87-.12-1.31-.16q-2.82-.36-5.65-.67l-3.15-.36c-2.7-.3-5.39-.59-8.09-.87-3.35-.36-6.71-.7-10.06-1l-.73-.07-.22,0-1.34-.12-1-.09L212,51.05c-.25,0-.5,0-.75-.06l-1.07-.09c-9-.71-19.81-1.32-19.81-1.32-2.64.14-5.77.22-9.14.26-4.69,0-9.84,0-14.77-.07a85.89,85.89,0,0,0-22,32.51,16.63,16.63,0,0,1,3.26,4.36l.09.18A61.87,61.87,0,0,1,151.31,95c4.6,13.12,9.17,26.23,16.41,38.22,8.39,13.87,18.45,25.92,33.89,32.38h0c.08.05.32.17.71.35a.75.75,0,0,0,.18.08c.31.15.69.31,1.14.51l.87.35.6.23c.17.07.35.14.54.2h0l.61.23.7.24.68.23.73.23.79.25.84.25c1.71.5,3.7,1,6,1.52a.9.9,0,0,1,.16,0l1,.2c1.23.26,2.53.5,3.91.73l1.15.19c.45.08.91.14,1.38.21q2.52.38,5.34.67l1.11.11c.75.08,1.52.14,2.3.2.38,0,.77.07,1.17.09.88.07,1.79.13,2.71.17l2.23.11,2.08.07h.72l1.16,0,1.37,0h1.39l1.93,0,2.38,0,1.5,0,1.53-.06,1.42-.06,1.44-.06,1.86-.12,1.56-.1,1.44-.11.67,0,1.11-.09,1.36-.12,1.37-.13,1-.1,1.4-.14,1-.12,1.63-.19h0c1.23-.14,2.48-.3,3.74-.47,12.36-2.42,21.56-8.09,27.34-17.69,1.22-2.27,2.33-4.61,3.35-7h0Z"/>
        <path class="cls-4" d="M244.79,173.09h-2.37l-1.16,0h-.72l-2.08-.07c-.75,0-1.5-.06-2.22-.11-.93,0-1.84-.1-2.72-.17l-1.17-.08c-.78-.06-1.55-.13-2.3-.21l-1.11-.11c-1.88-.2-3.66-.41-5.34-.66Z"/>
        <path class="cls-5" d="M244.79,173.09h-2.37l-1.16,0h-.72l-2.08-.07-2.22-.11c-.93,0-1.84-.1-2.72-.17l-1.17-.08c-.78-.06-1.55-.13-2.3-.21l-1.11-.11c-1.88-.2-3.66-.41-5.34-.66l-4-10.56L181.86,61.18h0l-.64-1.69,18.06-6.82L202.79,62h0l38.75,102.56h0Z"/>
        <path class="cls-5" d="M269.76,171.55h0l21.85-8.26L288,153.61l-32-84.7h0l-5.13-13.58-.92-.11c-1.63-.22-3.26-.42-4.89-.62l-1.31-.16c-1.88-.23-3.76-.46-5.65-.67l-3.15-.35c-2.7-.31-5.39-.6-8.09-.88-3.35-.36-6.7-.7-10.06-1l-.73-.07-.22,0c-.43,0-.88-.09-1.34-.12l-1-.09L212,51.06l-.75-.06,4.57,12.09h0L254,164.19l3.22,8.51Z"/>
        <path class="cls-6" d="M106.19,52.08C74.37,38,40.34,34.16,40.34,34.16,22.62,30.94,23.62,46,23.62,46c-.6,40.28,12.29,60.62,12.29,60.62,9.26,19.13,39.06,27,39.06,27,14.1,3.82,22.15-4.83,22.15-4.83,15.91-18.13,18.53-56.59,18.53-56.59C117.06,56.31,106.19,52.08,106.19,52.08Z"/>
        <path class="cls-6" d="M130.43,83.52c0,.29,0,.57-.06.86h0c0,.22,0,.45-.07.67v.08c0,.13,0,.24-.05.36v0c0,.24-.06.46-.1.69s-.1.6-.16.91"/>
        <path class="cls-6" d="M130.41,83.91s0,0,0,0v0c0-.11,0-.22,0-.33v-.06c0-.18,0-.37,0-.57"/>
        <path class="cls-3" d="M130.51,80.66c0,.84,0,1.68-.07,2.51,0-.35,0-.7,0-1A9.37,9.37,0,0,1,130.51,80.66Z"/>
        <path class="cls-3" d="M130.44,83.17c0,.1,0,.2,0,.3C130.44,83.37,130.44,83.27,130.44,83.17Z"/>
        <path class="cls-3" d="M82.12,143.2h0a1.69,1.69,0,0,0,.31-.13,34.87,34.87,0,0,0,11.66-8.57h0c.58-.64,1.13-1.29,1.68-2a103.76,103.76,0,0,0,12.72-20.9c1.74-3.69,3.34-7.45,4.88-11.24,2.09-5.14,4.38-10.34,4.27-16-.06-2.5.44-3.59,2.3-3.87a10,10,0,0,1,1.89-.07l7.75-29.34c-.79-1.63-1.63-3.24-2.54-4.8-17.2-4.05-33.26-9.1-33.26-9.1-4.36-1.36-8.67-2.58-12.9-3.69L78.76,33l-3-.75h0c-5.61-1.36-11.06-2.52-16.25-3.49h0c-6.86-1.29-13.28-2.27-19.06-3-6.06-.77-11.42-1.29-15.9-1.62-1,.72-2,1.49-3,2.27S19.8,27.8,19,28.57a68.89,68.89,0,0,0-7.82,8.11c-.74.9-1.45,1.81-2.13,2.74.08.43.17.84.28,1.27a17.09,17.09,0,0,0,1.18,3.19c.11.23.23.48.36.71a16,16,0,0,0,1,1.68A12.76,12.76,0,0,1,13.76,52h0c.05.39.1.76.14,1.15,0,.19,0,.38.06.57.3,2.95.65,5.91,1,8.84v0l24.29,61.61,13.35,9.21,0,0,6,3.14a69.94,69.94,0,0,0,16,5.58Z"/>
        <path class="cls-5" d="M108.49,111.61a103.76,103.76,0,0,1-12.72,20.9c-.55.69-1.1,1.34-1.68,2h0a34.87,34.87,0,0,1-11.66,8.57l-3.26-8.63L42,36.15l-.27-.72,2.1-.8h0l15.65-5.92h0l2.33-.88c5.28,1.12,10.81,2.46,16.51,4.06h0l.4,1.05,3.95,10.46h0l25,66.24h0Z"/>
        <path class="cls-5" d="M74.67,142.19a69.94,69.94,0,0,1-16-5.58l-4.5-11.91h0L23.69,44.17h0l-4.8-12.71,1.71-.65,10.48-4,2.63,7,1.16,3.08L71,132.38h0Z"/>
        <path class="cls-6" d="M277.35,73.23C207.88,57.92,170.42,61.55,170.42,61.55c-13.65.71-6.84,16.31-6.84,16.31a16,16,0,0,0,5,5.84A39.53,39.53,0,0,1,177.07,92c5,4.63,5.23,29.4,5.23,29.4.81,19.53,11.89,27.58,11.89,27.58,42.08,29.2,88.5,8.56,88.5,8.56,19-8.45,15.4-56.78,15.4-56.78C297.19,79.57,277.35,73.23,277.35,73.23Z"/>
        <path class="cls-7" d="M441,79.6c-1-6.06-1.51-12.36-3.63-18.31-2.43-6.84-6.69-11.35-14.33-11.95a35.35,35.35,0,0,0-8.09.77c-26.67,4.14-52.93,10.4-79.41,15.57-1.76.34-3.52.66-5.28.93,1,4.77,1.77,12.7,0,24.44a477,477,0,0,1,63.06-13.34c7.45-1.09,14.71-2,20.45-7.62a31.55,31.55,0,0,1,9-6.06c1.68-.78,3.56-.92,4,1.23.41,2,.94,4.17,1.31,6.14,1.6,8.44,1.3,16.92,1.31,25.48,0,3.24,1.31,4.75,4.46,5.47,4.25,1,8.06-2.15,8.14-6.95A104.63,104.63,0,0,0,441,79.6Z"/>
        <path class="cls-7" d="M298.35,112.42c0,.57,0,1.16,0,1.76v.17l0,.83c0,.09,0,.19,0,.29,0,.39,0,.78,0,1.18,0,.1,0,.2,0,.31-.07,1.4-.15,2.85-.26,4.33l0,.41c-.05.67-.11,1.35-.17,2l-.21,2.06c-.15,1.27-.31,2.56-.5,3.84v.06c-.19,1.26-.4,2.52-.64,3.77q-.29,1.53-.63,3l-.36,1.49c-.09.32-.17.64-.25,1a.79.79,0,0,0,0,.13c-.11.38-.21.75-.32,1.11s-.19.62-.28.93-.24.76-.37,1.13a.1.1,0,0,1,0,0c-.1.3-.2.59-.31.89s-.2.56-.31.85a.41.41,0,0,1,0,.08c-.1.26-.19.52-.31.78s-.22.57-.34.84-.19.44-.29.65-.19.43-.3.64-.19.42-.3.63-.21.41-.31.62-.37.71-.58,1-.29.49-.43.73l-.34.54c-.11.18-.23.34-.35.52l-.47.67-.39.52-.18.23c-.13.18-.28.35-.43.52l-.48.56s0,0,0,0h0l-.31.33c-.1.1-.2.21-.31.31a6.63,6.63,0,0,1-.54.52l-.1.09-.13.12-.41.35a3.49,3.49,0,0,1-.32.25,1.91,1.91,0,0,1-.32.24l0,0-.65.46-.52.33-.13.07-.06,0-.34.19-.12.07-.28.15-.15.07-.55.26a.49.49,0,0,1-.14.06l-.14.06-.28.12-.16.06a4.17,4.17,0,0,1-.47.19,4.09,4.09,0,0,1-.42.16l-1,.39-.29.1-.42.15-.6.22-.42.14-.61.2-.26.09-.46.15-.49.16-1.26.38-.53.16-.89.26-1.19.33-1,.25-.92.25-.19,0-1.16.28c-.92.22-1.88.44-2.87.64-.71.15-1.44.3-2.19.43s-1.82.34-2.77.49l-1.13.17-.19,0-.2,0-.19,0-1.25.18-1.46.18c-1,.12-2.06.23-3.12.32-.67.06-1.34.12-2,.16h-.13c-.72,0-1.45.09-2.19.12l-1.74.07h-.81q-1,0-2,0l-1.73,0-1.83,0h-.14l-1.11,0h-.47l-.9-.05c-1-.06-2-.14-3-.24l-.18,0c-.75-.07-1.52-.16-2.29-.25l-1.21-.16-1.11-.16-1.17-.18c-.29,0-.58-.09-.86-.15l-.12,0-.88-.16c-1.86-.34-3.73-.74-5.62-1.22l-1.42-.37-1.43-.4-1.57-.47-1.51-.48c-.47-.15-.93-.31-1.4-.48l-.12,0c-.46-.15-.91-.32-1.37-.49l-.87-.33-1.16-.45-1.5-.61-1.57-.68-.14-.06-1-.45-.09,0-.87-.41-1.12-.55-1.46-.74-.11-.05c-.45-.23-.91-.47-1.36-.72s-1.09-.6-1.64-.92c-1.1-.62-2.2-1.28-3.29-2-.4-.25-.8-.49-1.19-.76-.7-.45-1.4-.92-2.09-1.4,0,0-11.08-8.06-11.89-27.59h0c0-.42.18-16.13-2.87-25,0,0,0,0,0-.08a1.62,1.62,0,0,0-.06-.17s0,0,0-.07A12.3,12.3,0,0,0,177.07,92l0-.06a.18.18,0,0,0-.05-.07,64,64,0,0,0-8.36-8.13,24.5,24.5,0,0,1-5-5.8s0,0,0,0h0s0-.09-.07-.18-.08-.2-.14-.34h0a9.42,9.42,0,0,1-.32-.92c-.08-.21-.16-.46-.24-.73s-.09-.28-.12-.44a.2.2,0,0,1,0-.11c-.06-.19-.11-.38-.16-.58a3.18,3.18,0,0,1-.08-.33,2.46,2.46,0,0,1-.07-.29h0c0-.12-.05-.22-.07-.33s-.05-.21-.07-.31v0c0-.22-.08-.46-.11-.69a1.75,1.75,0,0,1-.05-.33c0-.12,0-.25,0-.39s0-.24,0-.36l0-.37c0-.12,0-.24,0-.36s0-.5,0-.75,0-.48,0-.73v0c0-.24,0-.47.06-.71,0-.07,0-.14,0-.21s0,0,0-.08a1.52,1.52,0,0,1,0-.21c0-.18.06-.34.1-.51.65-2.83,2.58-5.27,7.17-5.87a7.48,7.48,0,0,1,.84-.08l.28,0s3.88-.37,11.44-.37h2.34l1.26,0,1.31,0,1.83,0,1,0h.19c.39,0,.78,0,1.18,0l1.32.05,1.35,0,1.07.06.48,0,.86,0,.88,0H197l3.41.2.42,0,2,.13,1.51.11q5.34.39,11.5,1c5.67.59,11.86,1.33,18.56,2.28S248.26,67.5,256,68.91q10.14,1.86,21.4,4.33h0l.11,0a.29.29,0,0,0,.1,0l.24.09a.94.94,0,0,0,.15.06l.24.1.45.18h0l.5.21.11.06c.26.1.53.23.82.37l.26.13.4.2.05,0,.68.36.73.4.15.09,1,.58,1,.65c.51.35,1,.72,1.58,1.11l.56.44.62.49c.71.59,1.42,1.23,2.13,1.91.16.15.32.31.47.47s.53.54.79.83.4.44.59.67l.21.24c.23.27.46.56.69.85a.18.18,0,0,0,.05.07c.24.3.47.61.7.94.11.16.23.31.33.47l.33.49c.5.76,1,1.55,1.4,2.39.17.32.33.64.48,1l.39.86c.12.29.25.59.36.89s.22.56.33.86l.3.89,0,.1c.08.23.14.47.21.72s.14.5.21.76.15.61.22.92l.18.82V96c.06.29.12.59.16.89s.08.56.12.84a4.34,4.34,0,0,1,.07.52c0,.26.06.52.08.79l.07.81c0,.28,0,.56.05.84,0,0,0,.12,0,.37,0,.09,0,.18,0,.28a1.09,1.09,0,0,0,0,.18,1.09,1.09,0,0,1,0,.18s0,.08,0,.13v.06h0v0c0,.14,0,.29,0,.45s0,.18,0,.27,0,.25,0,.39v.17c0,.11,0,.22,0,.33,0,.31,0,.64,0,1v0c0,.21,0,.42,0,.64v.08h0v0c0,.19,0,.38,0,.59s0,.41,0,.62v0c0,.25,0,.51,0,.78C298.38,108.86,298.38,110.56,298.35,112.42Zm32.06-45.84a.43.43,0,0,0,0,0,46.43,46.43,0,0,1-16.73-.22q-9.5-2.06-19-3.88-18.78-3.6-37.73-6.28-3-.43-6.09-.83l-.92-.11c-1.63-.22-3.26-.43-4.89-.62-.43-.06-.87-.12-1.31-.16q-2.82-.36-5.65-.67l-3.15-.36c-2.7-.3-5.39-.59-8.09-.87-3.35-.36-6.71-.7-10.06-1l-.73-.07-.22,0-1.34-.12-1-.09L212,51.05c-.25,0-.5,0-.75-.06l-1.07-.09c-9-.71-19.81-1.32-19.81-1.32-2.64.14-5.77.22-9.14.26-4.69,0-9.84,0-14.77-.07-11.73-.18-22.21-.59-22.21-.59-.85-.1-1.72-.22-2.62-.34-3.48-.51-7.25-1.21-11.11-2.06-2.95-.64-5.95-1.34-8.92-2.09-16.09-4-31.11-9.1-31.11-9.1C86.4,34.23,82.37,33,78.41,31.9h0c-5.7-1.6-11.23-2.94-16.51-4.06C54.13,26.18,47,25,40.59,24.11c-5.21-.72-9.87-1.21-13.85-1.54l-1-.08c-5.35-.45-9.34-.61-11.55-.66-1.3,0-2,0-2,0a3.09,3.09,0,0,0-2.94,2.55,21.4,21.4,0,0,0-.49,3.29c-.18,4-.5,8,.25,11.78.08.43.17.84.28,1.27a17.09,17.09,0,0,0,1.18,3.19c.11.23.23.48.36.71a16,16,0,0,0,1,1.68A12.76,12.76,0,0,1,13.76,52h0c.05.39.1.76.14,1.15,0,.19,0,.38.06.57.3,2.95.65,5.91,1,8.84v0c.35,2.76.76,5.52,1.21,8.26a242.31,242.31,0,0,0,5.44,25.32c3,10.94,8.14,20.55,17.25,27.69l.39.34,1.15.94a99.25,99.25,0,0,0,12.2,8.27l0,0c1.85,1.07,3.85,2.13,6,3.14a69.94,69.94,0,0,0,16,5.58c.8.18,1.61.33,2.42.46a46.88,46.88,0,0,0,5,.55h0l.37,0-.06-.15a34.87,34.87,0,0,0,11.66-8.57h0c.58-.64,1.13-1.29,1.68-2a103.76,103.76,0,0,0,12.72-20.9l5.09,13.48c5.42-8.43,9.34-17.61,12.89-27a65.81,65.81,0,0,0,3.52-11c.06-.31.12-.61.16-.91s.07-.45.1-.69v0c0-.12,0-.23.05-.36v-.08c0-.22.06-.45.07-.67s0-.32,0-.48,0,0,0,0v0c0-.13,0-.26,0-.39s0-.37,0-.57v-.78a9.3,9.3,0,0,1,.06-1.45,3.11,3.11,0,0,1,.07-.47c.32-1.63,1.35-2.13,3.79-2a17.35,17.35,0,0,1,4.5.78,14.18,14.18,0,0,1,5.62,3.32,16.63,16.63,0,0,1,3.26,4.36l.09.18A61.87,61.87,0,0,1,151.31,95c4.6,13.12,9.17,26.23,16.41,38.22,8.39,13.87,18.45,25.92,33.89,32.38h0c.08.05.32.17.71.35a.75.75,0,0,0,.18.08c.31.15.69.31,1.14.51l.87.35.6.23c.17.07.35.14.54.2h0l.61.23.7.24.68.23.73.23.79.25.84.25c1.71.5,3.7,1,6,1.52a.9.9,0,0,1,.16,0l1,.2c1.23.26,2.53.5,3.91.73l1.15.19c.45.08.91.14,1.38.21q2.52.38,5.34.67l1.11.11c.75.08,1.52.14,2.3.2.38,0,.77.07,1.17.09.88.07,1.79.13,2.71.17l2.23.11,2.08.07h.72l1.16,0,1.37,0h1.39l1.93,0,2.38,0,1.5,0,1.53-.06,1.42-.06,1.44-.06,1.86-.12,1.56-.1,1.44-.11.67,0,1.11-.09,1.36-.12,1.37-.13,1-.1,1.4-.14,1-.12,1.63-.19h0c1.23-.14,2.48-.3,3.74-.47,12.36-2.42,21.56-8.09,27.34-17.69a41.18,41.18,0,0,0,3.35-7h0a49.69,49.69,0,0,0,1.54-4.83q2.91-11.07,5-22.29,1.58-8.49,2.71-17.08a8.84,8.84,0,0,1,5.74-7.48,53.63,53.63,0,0,1,5.12-1.82c2-.62,4.08-1.22,6.12-1.82V91C332.18,79.3,331.43,71.34,330.41,66.58ZM108.26,108.24l-.07.2c0,.13-.09.26-.13.38l-.31.84a1,1,0,0,1-.06.16.58.58,0,0,1-.06.17c0,.09-.06.19-.1.28s0,.12-.07.17l-.36.94-.37.94-.63,1.52,0,0a.67.67,0,0,0-.06.12c-.24.58-.5,1.16-.76,1.72-.16.38-.34.75-.52,1.12-.35.74-.72,1.47-1.09,2.19-.16.29-.31.58-.46.87s-.43.78-.65,1.16-.43.76-.66,1.13l-.5.83-.77,1.18c-.21.33-.43.64-.65,1l-.1.14c-.27.38-.54.76-.82,1.12s-.62.83-.94,1.22c-.15.17-.28.35-.43.51s-.37.43-.55.64l-.26.26c-.06.07-.15.14-.24.23a17.34,17.34,0,0,1-1.37,1.1l-.35.25-.38.26-.45.29-.57.35a3.72,3.72,0,0,1-.48.27l-.09,0a3.07,3.07,0,0,1-.36.2l-.38.2-.55.26q-.42.21-.87.39h0a1.66,1.66,0,0,1-.31.12l-.55.22s-.05,0-.08,0a6.38,6.38,0,0,1-.66.22c-.22.08-.45.15-.68.21l-.5.14-.35.09-.61.14-.58.13h-.07l-.71.12-.21,0-.82.11h0c-.25,0-.5.06-.77.07h0l-.46,0h-.09a3.71,3.71,0,0,1-.47,0H81.2l-.73,0c-.42,0-.86-.07-1.3-.13h-.1l-.64-.08c-.19,0-.38,0-.57-.09s-.53-.09-.8-.14-.67-.13-1-.21L75,133.64s-.61-.16-1.68-.49l-.66-.21-.47-.16-.74-.24-.32-.11-.14-.05c-.21-.06-.43-.14-.65-.22l-.71-.25c-.92-.34-1.94-.72-3-1.15l-.67-.26-.15-.07-1.22-.51-1-.4c-.74-.32-1.51-.67-2.29-1l-.79-.38c-.79-.38-1.59-.78-2.41-1.2-.52-.26-1-.54-1.57-.83-.8-.44-1.6-.89-2.4-1.37h0l-1.4-.86-1.18-.75-.88-.59c-.26-.18-.52-.35-.78-.54l-.81-.57c-.26-.18-.5-.37-.75-.56-.43-.31-.84-.63-1.25-1s-.78-.62-1.16-.94l-1-.84-.38-.34-.34-.3,0,0h0a.6.6,0,0,1-.08-.08l-.21-.19-.21-.2-.25-.24-.47-.45-.37-.37-.74-.77h0l-.19-.21-.19-.21L40.8,114,40,113l-.15-.2c-.27-.33-.53-.67-.8-1h0c-.19-.26-.38-.52-.56-.79l-.58-.84c-.36-.56-.71-1.12-1-1.7-.11-.18-.21-.37-.31-.55s-.18-.31-.26-.48-.24-.48-.36-.72c0,0-.46-.73-1.2-2.18-.1-.19-.21-.39-.31-.61s-.3-.62-.47-1c-.27-.57-.57-1.21-.88-1.92,0,0,0-.09,0-.13s0,0,0,0h0l0-.07-.14-.33c-.35-.8-.71-1.69-1.09-2.66l-.52-1.34c-.09-.28-.19-.56-.3-.85a.49.49,0,0,0,0-.11v0c-.11-.29-.21-.59-.31-.89-.27-.76-.53-1.55-.8-2.38-.09-.3-.19-.6-.28-.92-.58-1.87-1.15-3.9-1.7-6.11-.09-.36-.18-.74-.27-1.12s-.17-.67-.24-1l0-.13c-.09-.39-.17-.78-.26-1.18-.17-.8-.35-1.61-.51-2.46s-.33-1.66-.48-2.51a.17.17,0,0,1,0-.07c-.15-.85-.3-1.71-.43-2.58-.06-.32-.11-.65-.16-1l0-.22s0,0,0-.08,0-.07,0-.1c-.07-.45-.14-.91-.2-1.38a2.34,2.34,0,0,0,0-.26c0-.14,0-.27-.05-.42s-.08-.56-.11-.84c-.07-.52-.13-1-.2-1.56s-.1-.86-.14-1.29-.12-1.1-.18-1.67c-.09-.93-.18-1.86-.25-2.82,0,0,0-.09,0-.12-.05-.53-.08-1.06-.12-1.6s-.09-1.38-.13-2.08-.08-1.35-.11-2-.05-1.2-.07-1.82v-.11l0-1.07c0-.14,0-.28,0-.42s0-.57,0-.86c0-.58,0-1.16,0-1.76,0-1.47,0-3,0-4.51v-.74c0-.09,0-.2,0-.32v0c0-.09,0-.19,0-.3s0-.3,0-.46v0c0-.14,0-.27,0-.42s0-.31.07-.47a1.7,1.7,0,0,1,0-.22c0-.23.09-.47.14-.71l.12-.47c.05-.17.09-.33.15-.5s.06-.2.1-.3l.06-.2c0-.13.09-.26.15-.38a2.14,2.14,0,0,1,.16-.39l.11-.26c.07-.16.16-.33.25-.5s.18-.34.28-.51a.33.33,0,0,1,.06-.1c.08-.14.17-.27.25-.4l.12-.17.06-.08c.12-.17.24-.33.37-.49h0l.08-.1c.11-.12.21-.25.33-.37a0,0,0,0,1,0,0l.43-.43,0,0c.13-.12.26-.24.4-.35l.18-.15,0,0,.11-.08.32-.24.59-.38a5.24,5.24,0,0,1,.57-.32l.17-.08.19-.1.25-.11.17-.07.42-.17.32-.12c.16,0,.31-.11.48-.15l.68-.18.13,0,.14,0,.21,0a5.59,5.59,0,0,1,.59-.11l.31,0,.32,0h0l.35,0,.28,0,.66,0a25.56,25.56,0,0,1,5.33.44l.15,0h0l.16,0,.4,0,.44,0,.1,0,.65.08,1.6.23h0l1,.14.67.11L46,35l.42.07.12,0,.69.11.73.12.28,0,.15,0,.16,0,.16,0h0l.45.08,1.28.22.71.12,1.45.27.14,0,1,.18.74.14.1,0,.36.06.83.16.82.17.24,0,.51.1c1.41.29,2.89.6,4.42.94l1.94.43c1.71.39,3.49.8,5.32,1.26.6.14,1.21.29,1.83.46l2.09.54c1.58.42,3.21.86,4.85,1.33l.41.12c.42.11.83.23,1.25.36l.16,0c.95.27,1.9.56,2.85.86l.24.07.73.23c1.34.41,2.69.84,4.06,1.3,1,.33,2,.68,3.08,1,.52.17,1,.35,1.55.54l1.56.55.53.2c.85.32,1.72.63,2.58,1s1.77.68,2.65,1l.48.18.63.27c.49.19,1,.38,1.45.59.7.28,1.39.58,2.09.87l2.08.91h.06l.05,0,.07,0,.1.05.24.11.17.09.42.23.23.14.25.15.26.18.28.19.1.06c.13.09.27.2.39.3l.42.32.32.28.33.28.33.31c.11.11.23.22.33.33l.24.25c.16.17.32.34.48.53s.25.29.37.45.35.44.52.68.18.23.26.36l.25.37.22.35.22.37.09.13.06.12.08.14.2.38a2,2,0,0,0,.1.21c.1.19.2.39.29.6,0,.05,0,.1.07.16.11.23.21.47.3.71s.23.58.32.87h0c.09.24.17.47.24.73l0,.07h0c.07.24.13.46.19.71a.15.15,0,0,0,0,.06,1.08,1.08,0,0,1,.05.21,1.8,1.8,0,0,1,.06.22h0a.09.09,0,0,0,0,0s0,0,0,0h0c.06.27.12.54.17.82h0c.06.33.12.66.17,1s.1.84.14,1.27.06.74.07,1.12h0c0,.4,0,.8,0,1.22,0,.89,0,1.82-.13,2.79v.13c0,.1,0,.29-.05.55a2.33,2.33,0,0,0,0,.29c0,.2,0,.44-.07.71s-.05.58-.09.91c0,.54-.12,1.16-.2,1.84,0,.31-.07.64-.12,1a.92.92,0,0,0,0,.16l-.09.71c0,.13,0,.26-.06.39-.16,1.29-.37,2.74-.61,4.31l-.18,1.15c-.08.5-.17,1-.26,1.54,0,.25-.09.52-.14.79s-.09.53-.14.8q-.17.93-.36,1.89c-.16.86-.34,1.73-.53,2.62-.13.6-.25,1.21-.39,1.83-.08.33-.15.67-.23,1s-.17.75-.27,1.13-.18.76-.28,1.15c0,0,0,0,0,.08l-.27,1.07c-.23.89-.47,1.78-.72,2.68-.13.47-.27,1-.41,1.43s-.29,1-.44,1.46c-.07.25-.15.49-.22.73s-.16.49-.23.74c-.15.48-.31,1-.47,1.44Z"/>
        <path class="cls-7" d="M113.58,125.09q-1.68,2.64-3.58,5.18a32.91,32.91,0,0,1-15.9,12,41.28,41.28,0,0,1-11.61,1l-.06-.15a34.87,34.87,0,0,0,11.66-8.57h0c.58-.64,1.13-1.29,1.68-2a103.76,103.76,0,0,0,12.72-20.9Z"/>
      </g>
      <g>
        <path class="cls-2" d="M210.17,50.91c-9-.71-19.81-1.33-19.81-1.33-2.64.15-5.77.22-9.14.26a4.56,4.56,0,0,0,3.29,1.75c7.63.33,15.27.76,22.91,1.06C209.44,52.73,210.35,52.17,210.17,50.91ZM185,27.37c-19.59-13.6-41-20-65.08-18.67C88.67,10.47,46.53,15.48,15.74,20.49c-1,.23-1.5.49-1.57,1.34a1,1,0,0,0,0,.25L19,28.57l.23.31,1.42,1.93,5,6.8h.6c1.69-.05,4.73-.31,8.64-.7,2.14-.21,4.55-.47,7.15-.75l6.68-.75h0c8.46-1,18.09-2.13,27-3.2h0c.87-.09,1.72-.2,2.58-.3h0l3.25-.4h0c11.4-1.35,20.78-2.43,23.65-2.57A27.52,27.52,0,0,0,114,26.67a121.94,121.94,0,0,1,16.82-5.8c10-2.36,19.35-1.19,27.88,4.95a77,77,0,0,1,10.72,9.26,89.39,89.39,0,0,1,5.95,7.43,84.71,84.71,0,0,1,17-9.3C189.8,31,187.24,29,185,27.37Zm-123.11.46c5.28,1.12,10.81,2.46,16.51,4.06Z"/>
        <path class="cls-3" d="M310.74,119.25c.16-2.11.23-4.23.23-6.37a85.65,85.65,0,0,0-16.33-50.45q-18.78-3.6-37.73-6.28-3-.43-6.09-.83l-.92-.11c-1.63-.22-3.26-.43-4.89-.62-.43-.06-.87-.12-1.31-.16q-2.82-.36-5.65-.67l-3.15-.36c-2.7-.3-5.39-.59-8.09-.87-3.35-.36-6.71-.7-10.06-1l-.73-.07-.22,0-1.34-.12-1-.09L212,51.05c-.25,0-.5,0-.75-.06l-1.07-.09c-9-.71-19.81-1.32-19.81-1.32-2.64.14-5.77.22-9.14.26-4.69,0-9.84,0-14.77-.07a85.89,85.89,0,0,0-22,32.51,16.63,16.63,0,0,1,3.26,4.36l.09.18A61.87,61.87,0,0,1,151.31,95c4.6,13.12,9.17,26.23,16.41,38.22,8.39,13.87,18.45,25.92,33.89,32.38h0c.08.05.32.17.71.35a.75.75,0,0,0,.18.08c.31.15.69.31,1.14.51l.87.35.6.23c.17.07.35.14.54.2h0l.61.23.7.24.68.23.73.23.79.25.84.25c1.71.5,3.7,1,6,1.52a.9.9,0,0,1,.16,0l1,.2c1.23.26,2.53.5,3.91.73l1.15.19c.45.08.91.14,1.38.21q2.52.38,5.34.67l1.11.11c.75.08,1.52.14,2.3.2.38,0,.77.07,1.17.09.88.07,1.79.13,2.71.17l2.23.11,2.08.07h.72l1.16,0,1.37,0h1.39l1.93,0,2.38,0,1.5,0,1.53-.06,1.42-.06,1.44-.06,1.86-.12,1.56-.1,1.44-.11.67,0,1.11-.09,1.36-.12,1.37-.13,1-.1,1.4-.14,1-.12,1.63-.19h0c1.23-.14,2.48-.3,3.74-.47,12.36-2.42,21.56-8.09,27.34-17.69,1.22-2.27,2.33-4.61,3.35-7h0Z"/>
        <path class="cls-4" d="M244.79,173.09h-2.37l-1.16,0h-.72l-2.08-.07c-.75,0-1.5-.06-2.22-.11-.93,0-1.84-.1-2.72-.17l-1.17-.08c-.78-.06-1.55-.13-2.3-.21l-1.11-.11c-1.88-.2-3.66-.41-5.34-.66Z"/>
        <path class="cls-5" d="M244.79,173.09h-2.37l-1.16,0h-.72l-2.08-.07-2.22-.11c-.93,0-1.84-.1-2.72-.17l-1.17-.08c-.78-.06-1.55-.13-2.3-.21l-1.11-.11c-1.88-.2-3.66-.41-5.34-.66l-4-10.56L181.86,61.18h0l-.64-1.69,18.06-6.82L202.79,62h0l38.75,102.56h0Z"/>
        <path class="cls-5" d="M269.76,171.55h0l21.85-8.26L288,153.61l-32-84.7h0l-5.13-13.58-.92-.11c-1.63-.22-3.26-.42-4.89-.62l-1.31-.16c-1.88-.23-3.76-.46-5.65-.67l-3.15-.35c-2.7-.31-5.39-.6-8.09-.88-3.35-.36-6.7-.7-10.06-1l-.73-.07-.22,0c-.43,0-.88-.09-1.34-.12l-1-.09L212,51.06l-.75-.06,4.57,12.09h0L254,164.19l3.22,8.51Z"/>
        <path class="cls-6" d="M106.19,52.08C74.37,38,40.34,34.16,40.34,34.16,22.62,30.94,23.62,46,23.62,46c-.6,40.28,12.29,60.62,12.29,60.62,9.26,19.13,39.06,27,39.06,27,14.1,3.82,22.15-4.83,22.15-4.83,15.91-18.13,18.53-56.59,18.53-56.59C117.06,56.31,106.19,52.08,106.19,52.08Z"/>
        <path class="cls-6" d="M130.43,83.52c0,.29,0,.57-.06.86h0c0,.22,0,.45-.07.67v.08c0,.13,0,.24-.05.36v0c0,.24-.06.46-.1.69s-.1.6-.16.91"/>
        <path class="cls-6" d="M130.41,83.91s0,0,0,0v0c0-.11,0-.22,0-.33v-.06c0-.18,0-.37,0-.57"/>
        <path class="cls-3" d="M130.51,80.66c0,.84,0,1.68-.07,2.51,0-.35,0-.7,0-1A9.37,9.37,0,0,1,130.51,80.66Z"/>
        <path class="cls-3" d="M130.44,83.17c0,.1,0,.2,0,.3C130.44,83.37,130.44,83.27,130.44,83.17Z"/>
        <path class="cls-3" d="M82.12,143.2h0a1.69,1.69,0,0,0,.31-.13,34.87,34.87,0,0,0,11.66-8.57h0c.58-.64,1.13-1.29,1.68-2a103.76,103.76,0,0,0,12.72-20.9c1.74-3.69,3.34-7.45,4.88-11.24,2.09-5.14,4.38-10.34,4.27-16-.06-2.5.44-3.59,2.3-3.87a10,10,0,0,1,1.89-.07l7.75-29.34c-.79-1.63-1.63-3.24-2.54-4.8-17.2-4.05-33.26-9.1-33.26-9.1-4.36-1.36-8.67-2.58-12.9-3.69L78.76,33l-3-.75h0c-5.61-1.36-11.06-2.52-16.25-3.49h0c-6.86-1.29-13.28-2.27-19.06-3-6.06-.77-11.42-1.29-15.9-1.62-1,.72-2,1.49-3,2.27S19.8,27.8,19,28.57a68.89,68.89,0,0,0-7.82,8.11c-.74.9-1.45,1.81-2.13,2.74.08.43.17.84.28,1.27a17.09,17.09,0,0,0,1.18,3.19c.11.23.23.48.36.71a16,16,0,0,0,1,1.68A12.76,12.76,0,0,1,13.76,52h0c.05.39.1.76.14,1.15,0,.19,0,.38.06.57.3,2.95.65,5.91,1,8.84v0l24.29,61.61,13.35,9.21,0,0,6,3.14a69.94,69.94,0,0,0,16,5.58Z"/>
        <path class="cls-5" d="M108.49,111.61a103.76,103.76,0,0,1-12.72,20.9c-.55.69-1.1,1.34-1.68,2h0a34.87,34.87,0,0,1-11.66,8.57l-3.26-8.63L42,36.15l-.27-.72,2.1-.8h0l15.65-5.92h0l2.33-.88c5.28,1.12,10.81,2.46,16.51,4.06h0l.4,1.05,3.95,10.46h0l25,66.24h0Z"/>
        <path class="cls-5" d="M74.67,142.19a69.94,69.94,0,0,1-16-5.58l-4.5-11.91h0L23.69,44.17h0l-4.8-12.71,1.71-.65,10.48-4,2.63,7,1.16,3.08L71,132.38h0Z"/>
        <path class="cls-6" d="M277.35,73.23C207.88,57.92,170.42,61.55,170.42,61.55c-13.65.71-6.84,16.31-6.84,16.31a16,16,0,0,0,5,5.84A39.53,39.53,0,0,1,177.07,92c5,4.63,5.23,29.4,5.23,29.4.81,19.53,11.89,27.58,11.89,27.58,42.08,29.2,88.5,8.56,88.5,8.56,19-8.45,15.4-56.78,15.4-56.78C297.19,79.57,277.35,73.23,277.35,73.23Z"/>
        <path class="cls-7" d="M441,79.6c-1-6.06-1.51-12.36-3.63-18.31-2.43-6.84-6.69-11.35-14.33-11.95a35.35,35.35,0,0,0-8.09.77c-26.67,4.14-52.93,10.4-79.41,15.57-1.76.34-3.52.66-5.28.93,1,4.77,1.77,12.7,0,24.44a477,477,0,0,1,63.06-13.34c7.45-1.09,14.71-2,20.45-7.62a31.55,31.55,0,0,1,9-6.06c1.68-.78,3.56-.92,4,1.23.41,2,.94,4.17,1.31,6.14,1.6,8.44,1.3,16.92,1.31,25.48,0,3.24,1.31,4.75,4.46,5.47,4.25,1,8.06-2.15,8.14-6.95A104.63,104.63,0,0,0,441,79.6Z"/>
        <path class="cls-7" d="M298.35,112.42c0,.57,0,1.16,0,1.76v.17l0,.83c0,.09,0,.19,0,.29,0,.39,0,.78,0,1.18,0,.1,0,.2,0,.31-.07,1.4-.15,2.85-.26,4.33l0,.41c-.05.67-.11,1.35-.17,2l-.21,2.06c-.15,1.27-.31,2.56-.5,3.84v.06c-.19,1.26-.4,2.52-.64,3.77q-.29,1.53-.63,3l-.36,1.49c-.09.32-.17.64-.25,1a.79.79,0,0,0,0,.13c-.11.38-.21.75-.32,1.11s-.19.62-.28.93-.24.76-.37,1.13a.1.1,0,0,1,0,0c-.1.3-.2.59-.31.89s-.2.56-.31.85a.41.41,0,0,1,0,.08c-.1.26-.19.52-.31.78s-.22.57-.34.84-.19.44-.29.65-.19.43-.3.64-.19.42-.3.63-.21.41-.31.62-.37.71-.58,1-.29.49-.43.73l-.34.54c-.11.18-.23.34-.35.52l-.47.67-.39.52-.18.23c-.13.18-.28.35-.43.52l-.48.56s0,0,0,0h0l-.31.33c-.1.1-.2.21-.31.31a6.63,6.63,0,0,1-.54.52l-.1.09-.13.12-.41.35a3.49,3.49,0,0,1-.32.25,1.91,1.91,0,0,1-.32.24l0,0-.65.46-.52.33-.13.07-.06,0-.34.19-.12.07-.28.15-.15.07-.55.26a.49.49,0,0,1-.14.06l-.14.06-.28.12-.16.06a4.17,4.17,0,0,1-.47.19,4.09,4.09,0,0,1-.42.16l-1,.39-.29.1-.42.15-.6.22-.42.14-.61.2-.26.09-.46.15-.49.16-1.26.38-.53.16-.89.26-1.19.33-1,.25-.92.25-.19,0-1.16.28c-.92.22-1.88.44-2.87.64-.71.15-1.44.3-2.19.43s-1.82.34-2.77.49l-1.13.17-.19,0-.2,0-.19,0-1.25.18-1.46.18c-1,.12-2.06.23-3.12.32-.67.06-1.34.12-2,.16h-.13c-.72,0-1.45.09-2.19.12l-1.74.07h-.81q-1,0-2,0l-1.73,0-1.83,0h-.14l-1.11,0h-.47l-.9-.05c-1-.06-2-.14-3-.24l-.18,0c-.75-.07-1.52-.16-2.29-.25l-1.21-.16-1.11-.16-1.17-.18c-.29,0-.58-.09-.86-.15l-.12,0-.88-.16c-1.86-.34-3.73-.74-5.62-1.22l-1.42-.37-1.43-.4-1.57-.47-1.51-.48c-.47-.15-.93-.31-1.4-.48l-.12,0c-.46-.15-.91-.32-1.37-.49l-.87-.33-1.16-.45-1.5-.61-1.57-.68-.14-.06-1-.45-.09,0-.87-.41-1.12-.55-1.46-.74-.11-.05c-.45-.23-.91-.47-1.36-.72s-1.09-.6-1.64-.92c-1.1-.62-2.2-1.28-3.29-2-.4-.25-.8-.49-1.19-.76-.7-.45-1.4-.92-2.09-1.4,0,0-11.08-8.06-11.89-27.59h0c0-.42.18-16.13-2.87-25,0,0,0,0,0-.08a1.62,1.62,0,0,0-.06-.17s0,0,0-.07A12.3,12.3,0,0,0,177.07,92l0-.06a.18.18,0,0,0-.05-.07,64,64,0,0,0-8.36-8.13,24.5,24.5,0,0,1-5-5.8s0,0,0,0h0s0-.09-.07-.18-.08-.2-.14-.34h0a9.42,9.42,0,0,1-.32-.92c-.08-.21-.16-.46-.24-.73s-.09-.28-.12-.44a.2.2,0,0,1,0-.11c-.06-.19-.11-.38-.16-.58a3.18,3.18,0,0,1-.08-.33,2.46,2.46,0,0,1-.07-.29h0c0-.12-.05-.22-.07-.33s-.05-.21-.07-.31v0c0-.22-.08-.46-.11-.69a1.75,1.75,0,0,1-.05-.33c0-.12,0-.25,0-.39s0-.24,0-.36l0-.37c0-.12,0-.24,0-.36s0-.5,0-.75,0-.48,0-.73v0c0-.24,0-.47.06-.71,0-.07,0-.14,0-.21s0,0,0-.08a1.52,1.52,0,0,1,0-.21c0-.18.06-.34.1-.51.65-2.83,2.58-5.27,7.17-5.87a7.48,7.48,0,0,1,.84-.08l.28,0s3.88-.37,11.44-.37h2.34l1.26,0,1.31,0,1.83,0,1,0h.19c.39,0,.78,0,1.18,0l1.32.05,1.35,0,1.07.06.48,0,.86,0,.88,0H197l3.41.2.42,0,2,.13,1.51.11q5.34.39,11.5,1c5.67.59,11.86,1.33,18.56,2.28S248.26,67.5,256,68.91q10.14,1.86,21.4,4.33h0l.11,0a.29.29,0,0,0,.1,0l.24.09a.94.94,0,0,0,.15.06l.24.1.45.18h0l.5.21.11.06c.26.1.53.23.82.37l.26.13.4.2.05,0,.68.36.73.4.15.09,1,.58,1,.65c.51.35,1,.72,1.58,1.11l.56.44.62.49c.71.59,1.42,1.23,2.13,1.91.16.15.32.31.47.47s.53.54.79.83.4.44.59.67l.21.24c.23.27.46.56.69.85a.18.18,0,0,0,.05.07c.24.3.47.61.7.94.11.16.23.31.33.47l.33.49c.5.76,1,1.55,1.4,2.39.17.32.33.64.48,1l.39.86c.12.29.25.59.36.89s.22.56.33.86l.3.89,0,.1c.08.23.14.47.21.72s.14.5.21.76.15.61.22.92l.18.82V96c.06.29.12.59.16.89s.08.56.12.84a4.34,4.34,0,0,1,.07.52c0,.26.06.52.08.79l.07.81c0,.28,0,.56.05.84,0,0,0,.12,0,.37,0,.09,0,.18,0,.28a1.09,1.09,0,0,0,0,.18,1.09,1.09,0,0,1,0,.18s0,.08,0,.13v.06h0v0c0,.14,0,.29,0,.45s0,.18,0,.27,0,.25,0,.39v.17c0,.11,0,.22,0,.33,0,.31,0,.64,0,1v0c0,.21,0,.42,0,.64v.08h0v0c0,.19,0,.38,0,.59s0,.41,0,.62v0c0,.25,0,.51,0,.78C298.38,108.86,298.38,110.56,298.35,112.42Zm32.06-45.84a.43.43,0,0,0,0,0,46.43,46.43,0,0,1-16.73-.22q-9.5-2.06-19-3.88-18.78-3.6-37.73-6.28-3-.43-6.09-.83l-.92-.11c-1.63-.22-3.26-.43-4.89-.62-.43-.06-.87-.12-1.31-.16q-2.82-.36-5.65-.67l-3.15-.36c-2.7-.3-5.39-.59-8.09-.87-3.35-.36-6.71-.7-10.06-1l-.73-.07-.22,0-1.34-.12-1-.09L212,51.05c-.25,0-.5,0-.75-.06l-1.07-.09c-9-.71-19.81-1.32-19.81-1.32-2.64.14-5.77.22-9.14.26-4.69,0-9.84,0-14.77-.07-11.73-.18-22.21-.59-22.21-.59-.85-.1-1.72-.22-2.62-.34-3.48-.51-7.25-1.21-11.11-2.06-2.95-.64-5.95-1.34-8.92-2.09-16.09-4-31.11-9.1-31.11-9.1C86.4,34.23,82.37,33,78.41,31.9h0c-5.7-1.6-11.23-2.94-16.51-4.06C54.13,26.18,47,25,40.59,24.11c-5.21-.72-9.87-1.21-13.85-1.54l-1-.08c-5.35-.45-9.34-.61-11.55-.66-1.3,0-2,0-2,0a3.09,3.09,0,0,0-2.94,2.55,21.4,21.4,0,0,0-.49,3.29c-.18,4-.5,8,.25,11.78.08.43.17.84.28,1.27a17.09,17.09,0,0,0,1.18,3.19c.11.23.23.48.36.71a16,16,0,0,0,1,1.68A12.76,12.76,0,0,1,13.76,52h0c.05.39.1.76.14,1.15,0,.19,0,.38.06.57.3,2.95.65,5.91,1,8.84v0c.35,2.76.76,5.52,1.21,8.26a242.31,242.31,0,0,0,5.44,25.32c3,10.94,8.14,20.55,17.25,27.69l.39.34,1.15.94a99.25,99.25,0,0,0,12.2,8.27l0,0c1.85,1.07,3.85,2.13,6,3.14a69.94,69.94,0,0,0,16,5.58c.8.18,1.61.33,2.42.46a46.88,46.88,0,0,0,5,.55h0l.37,0-.06-.15a34.87,34.87,0,0,0,11.66-8.57h0c.58-.64,1.13-1.29,1.68-2a103.76,103.76,0,0,0,12.72-20.9l5.09,13.48c5.42-8.43,9.34-17.61,12.89-27a65.81,65.81,0,0,0,3.52-11c.06-.31.12-.61.16-.91s.07-.45.1-.69v0c0-.12,0-.23.05-.36v-.08c0-.22.06-.45.07-.67s0-.32,0-.48,0,0,0,0v0c0-.13,0-.26,0-.39s0-.37,0-.57v-.78a9.3,9.3,0,0,1,.06-1.45,3.11,3.11,0,0,1,.07-.47c.32-1.63,1.35-2.13,3.79-2a17.35,17.35,0,0,1,4.5.78,14.18,14.18,0,0,1,5.62,3.32,16.63,16.63,0,0,1,3.26,4.36l.09.18A61.87,61.87,0,0,1,151.31,95c4.6,13.12,9.17,26.23,16.41,38.22,8.39,13.87,18.45,25.92,33.89,32.38h0c.08.05.32.17.71.35a.75.75,0,0,0,.18.08c.31.15.69.31,1.14.51l.87.35.6.23c.17.07.35.14.54.2h0l.61.23.7.24.68.23.73.23.79.25.84.25c1.71.5,3.7,1,6,1.52a.9.9,0,0,1,.16,0l1,.2c1.23.26,2.53.5,3.91.73l1.15.19c.45.08.91.14,1.38.21q2.52.38,5.34.67l1.11.11c.75.08,1.52.14,2.3.2.38,0,.77.07,1.17.09.88.07,1.79.13,2.71.17l2.23.11,2.08.07h.72l1.16,0,1.37,0h1.39l1.93,0,2.38,0,1.5,0,1.53-.06,1.42-.06,1.44-.06,1.86-.12,1.56-.1,1.44-.11.67,0,1.11-.09,1.36-.12,1.37-.13,1-.1,1.4-.14,1-.12,1.63-.19h0c1.23-.14,2.48-.3,3.74-.47,12.36-2.42,21.56-8.09,27.34-17.69a41.18,41.18,0,0,0,3.35-7h0a49.69,49.69,0,0,0,1.54-4.83q2.91-11.07,5-22.29,1.58-8.49,2.71-17.08a8.84,8.84,0,0,1,5.74-7.48,53.63,53.63,0,0,1,5.12-1.82c2-.62,4.08-1.22,6.12-1.82V91C332.18,79.3,331.43,71.34,330.41,66.58ZM108.26,108.24l-.07.2c0,.13-.09.26-.13.38l-.31.84a1,1,0,0,1-.06.16.58.58,0,0,1-.06.17c0,.09-.06.19-.1.28s0,.12-.07.17l-.36.94-.37.94-.63,1.52,0,0a.67.67,0,0,0-.06.12c-.24.58-.5,1.16-.76,1.72-.16.38-.34.75-.52,1.12-.35.74-.72,1.47-1.09,2.19-.16.29-.31.58-.46.87s-.43.78-.65,1.16-.43.76-.66,1.13l-.5.83-.77,1.18c-.21.33-.43.64-.65,1l-.1.14c-.27.38-.54.76-.82,1.12s-.62.83-.94,1.22c-.15.17-.28.35-.43.51s-.37.43-.55.64l-.26.26c-.06.07-.15.14-.24.23a17.34,17.34,0,0,1-1.37,1.1l-.35.25-.38.26-.45.29-.57.35a3.72,3.72,0,0,1-.48.27l-.09,0a3.07,3.07,0,0,1-.36.2l-.38.2-.55.26q-.42.21-.87.39h0a1.66,1.66,0,0,1-.31.12l-.55.22s-.05,0-.08,0a6.38,6.38,0,0,1-.66.22c-.22.08-.45.15-.68.21l-.5.14-.35.09-.61.14-.58.13h-.07l-.71.12-.21,0-.82.11h0c-.25,0-.5.06-.77.07h0l-.46,0h-.09a3.71,3.71,0,0,1-.47,0H81.2l-.73,0c-.42,0-.86-.07-1.3-.13h-.1l-.64-.08c-.19,0-.38,0-.57-.09s-.53-.09-.8-.14-.67-.13-1-.21L75,133.64s-.61-.16-1.68-.49l-.66-.21-.47-.16-.74-.24-.32-.11-.14-.05c-.21-.06-.43-.14-.65-.22l-.71-.25c-.92-.34-1.94-.72-3-1.15l-.67-.26-.15-.07-1.22-.51-1-.4c-.74-.32-1.51-.67-2.29-1l-.79-.38c-.79-.38-1.59-.78-2.41-1.2-.52-.26-1-.54-1.57-.83-.8-.44-1.6-.89-2.4-1.37h0l-1.4-.86-1.18-.75-.88-.59c-.26-.18-.52-.35-.78-.54l-.81-.57c-.26-.18-.5-.37-.75-.56-.43-.31-.84-.63-1.25-1s-.78-.62-1.16-.94l-1-.84-.38-.34-.34-.3,0,0h0a.6.6,0,0,1-.08-.08l-.21-.19-.21-.2-.25-.24-.47-.45-.37-.37-.74-.77h0l-.19-.21-.19-.21L40.8,114,40,113l-.15-.2c-.27-.33-.53-.67-.8-1h0c-.19-.26-.38-.52-.56-.79l-.58-.84c-.36-.56-.71-1.12-1-1.7-.11-.18-.21-.37-.31-.55s-.18-.31-.26-.48-.24-.48-.36-.72c0,0-.46-.73-1.2-2.18-.1-.19-.21-.39-.31-.61s-.3-.62-.47-1c-.27-.57-.57-1.21-.88-1.92,0,0,0-.09,0-.13s0,0,0,0h0l0-.07-.14-.33c-.35-.8-.71-1.69-1.09-2.66l-.52-1.34c-.09-.28-.19-.56-.3-.85a.49.49,0,0,0,0-.11v0c-.11-.29-.21-.59-.31-.89-.27-.76-.53-1.55-.8-2.38-.09-.3-.19-.6-.28-.92-.58-1.87-1.15-3.9-1.7-6.11-.09-.36-.18-.74-.27-1.12s-.17-.67-.24-1l0-.13c-.09-.39-.17-.78-.26-1.18-.17-.8-.35-1.61-.51-2.46s-.33-1.66-.48-2.51a.17.17,0,0,1,0-.07c-.15-.85-.3-1.71-.43-2.58-.06-.32-.11-.65-.16-1l0-.22s0,0,0-.08,0-.07,0-.1c-.07-.45-.14-.91-.2-1.38a2.34,2.34,0,0,0,0-.26c0-.14,0-.27-.05-.42s-.08-.56-.11-.84c-.07-.52-.13-1-.2-1.56s-.1-.86-.14-1.29-.12-1.1-.18-1.67c-.09-.93-.18-1.86-.25-2.82,0,0,0-.09,0-.12-.05-.53-.08-1.06-.12-1.6s-.09-1.38-.13-2.08-.08-1.35-.11-2-.05-1.2-.07-1.82v-.11l0-1.07c0-.14,0-.28,0-.42s0-.57,0-.86c0-.58,0-1.16,0-1.76,0-1.47,0-3,0-4.51v-.74c0-.09,0-.2,0-.32v0c0-.09,0-.19,0-.3s0-.3,0-.46v0c0-.14,0-.27,0-.42s0-.31.07-.47a1.7,1.7,0,0,1,0-.22c0-.23.09-.47.14-.71l.12-.47c.05-.17.09-.33.15-.5s.06-.2.1-.3l.06-.2c0-.13.09-.26.15-.38a2.14,2.14,0,0,1,.16-.39l.11-.26c.07-.16.16-.33.25-.5s.18-.34.28-.51a.33.33,0,0,1,.06-.1c.08-.14.17-.27.25-.4l.12-.17.06-.08c.12-.17.24-.33.37-.49h0l.08-.1c.11-.12.21-.25.33-.37a0,0,0,0,1,0,0l.43-.43,0,0c.13-.12.26-.24.4-.35l.18-.15,0,0,.11-.08.32-.24.59-.38a5.24,5.24,0,0,1,.57-.32l.17-.08.19-.1.25-.11.17-.07.42-.17.32-.12c.16,0,.31-.11.48-.15l.68-.18.13,0,.14,0,.21,0a5.59,5.59,0,0,1,.59-.11l.31,0,.32,0h0l.35,0,.28,0,.66,0a25.56,25.56,0,0,1,5.33.44l.15,0h0l.16,0,.4,0,.44,0,.1,0,.65.08,1.6.23h0l1,.14.67.11L46,35l.42.07.12,0,.69.11.73.12.28,0,.15,0,.16,0,.16,0h0l.45.08,1.28.22.71.12,1.45.27.14,0,1,.18.74.14.1,0,.36.06.83.16.82.17.24,0,.51.1c1.41.29,2.89.6,4.42.94l1.94.43c1.71.39,3.49.8,5.32,1.26.6.14,1.21.29,1.83.46l2.09.54c1.58.42,3.21.86,4.85,1.33l.41.12c.42.11.83.23,1.25.36l.16,0c.95.27,1.9.56,2.85.86l.24.07.73.23c1.34.41,2.69.84,4.06,1.3,1,.33,2,.68,3.08,1,.52.17,1,.35,1.55.54l1.56.55.53.2c.85.32,1.72.63,2.58,1s1.77.68,2.65,1l.48.18.63.27c.49.19,1,.38,1.45.59.7.28,1.39.58,2.09.87l2.08.91h.06l.05,0,.07,0,.1.05.24.11.17.09.42.23.23.14.25.15.26.18.28.19.1.06c.13.09.27.2.39.3l.42.32.32.28.33.28.33.31c.11.11.23.22.33.33l.24.25c.16.17.32.34.48.53s.25.29.37.45.35.44.52.68.18.23.26.36l.25.37.22.35.22.37.09.13.06.12.08.14.2.38a2,2,0,0,0,.1.21c.1.19.2.39.29.6,0,.05,0,.1.07.16.11.23.21.47.3.71s.23.58.32.87h0c.09.24.17.47.24.73l0,.07h0c.07.24.13.46.19.71a.15.15,0,0,0,0,.06,1.08,1.08,0,0,1,.05.21,1.8,1.8,0,0,1,.06.22h0a.09.09,0,0,0,0,0s0,0,0,0h0c.06.27.12.54.17.82h0c.06.33.12.66.17,1s.1.84.14,1.27.06.74.07,1.12h0c0,.4,0,.8,0,1.22,0,.89,0,1.82-.13,2.79v.13c0,.1,0,.29-.05.55a2.33,2.33,0,0,0,0,.29c0,.2,0,.44-.07.71s-.05.58-.09.91c0,.54-.12,1.16-.2,1.84,0,.31-.07.64-.12,1a.92.92,0,0,0,0,.16l-.09.71c0,.13,0,.26-.06.39-.16,1.29-.37,2.74-.61,4.31l-.18,1.15c-.08.5-.17,1-.26,1.54,0,.25-.09.52-.14.79s-.09.53-.14.8q-.17.93-.36,1.89c-.16.86-.34,1.73-.53,2.62-.13.6-.25,1.21-.39,1.83-.08.33-.15.67-.23,1s-.17.75-.27,1.13-.18.76-.28,1.15c0,0,0,0,0,.08l-.27,1.07c-.23.89-.47,1.78-.72,2.68-.13.47-.27,1-.41,1.43s-.29,1-.44,1.46c-.07.25-.15.49-.22.73s-.16.49-.23.74c-.15.48-.31,1-.47,1.44Z"/>
        <path class="cls-7" d="M113.58,125.09q-1.68,2.64-3.58,5.18a32.91,32.91,0,0,1-15.9,12,41.28,41.28,0,0,1-11.61,1l-.06-.15a34.87,34.87,0,0,0,11.66-8.57h0c.58-.64,1.13-1.29,1.68-2a103.76,103.76,0,0,0,12.72-20.9Z"/>
      </g>
    </g>
  </g>
</svg>
