<svg id="Layer_1" data-name="Layer 1" xmlns="http://www.w3.org/2000/svg" width="298.13" height="126.72" viewBox="0 0 298.13 126.72">
  <defs>
    <style>
      .cls-1, .cls-2, .cls-3, .cls-8 {
        fill: #4b5454;
      }

      .cls-1 {
        opacity: 0.5;
      }

      .cls-2 {
        stroke: #eff4f4;
        stroke-miterlimit: 10;
        stroke-width: 10px;
      }

      .cls-3 {
        fill-rule: evenodd;
      }

      .cls-4 {
        fill: #cff1f9;
      }

      .cls-5, .cls-6 {
        fill: #9dbcc1;
      }

      .cls-6 {
        opacity: 0.33;
      }

      .cls-7 {
        fill: none;
      }
    </style>
  </defs>
  <g>
    <path class="cls-1" d="M292.2,63.33c-.65-3.95-1-8.06-2.36-11.93-1.58-4.46-4.36-7.4-9.34-7.79a22.65,22.65,0,0,0-5.27.5c-17.38,2.7-34.5,6.78-51.75,10.15-1.11.21-2.22.41-3.32.58h0s0,0,0,0a30.08,30.08,0,0,1-10.9-.15q-6.19-1.33-12.41-2.52-12.22-2.34-24.58-4.09l-4-.55-.6-.07L164.5,47l-.85-.11c-1.22-.15-2.45-.3-3.68-.43l-2.06-.24-5.27-.57L146.09,45l-.48,0h-.14l-.88-.08-.67-.06-.94-.09-.48,0-.7,0c-5.89-.47-12.91-.87-12.91-.87-1.72.1-3.76.15-5.95.17-3.06,0-6.42,0-9.63,0-7.65-.12-14.47-.39-14.47-.39-.56-.06-1.13-.14-1.71-.22-2.27-.33-4.72-.79-7.24-1.34-1.92-.41-3.88-.88-5.82-1.36C73.59,37.94,63.8,34.65,63.8,34.65c-2.66-.89-5.29-1.69-7.86-2.41L58.05,32h0c7.43-.88,13.54-1.58,15.41-1.67a18.19,18.19,0,0,0,5.69-1.48,81,81,0,0,1,11-3.78c6.52-1.53,12.6-.77,18.17,3.23a50.26,50.26,0,0,1,7,6,59.46,59.46,0,0,1,3.88,4.84,55.16,55.16,0,0,1,11.06-6.06c-1.68-1.44-3.35-2.77-4.84-3.81A65.59,65.59,0,0,0,83,17.13c-20.34,1.15-47.8,4.41-67.86,7.68-.68.15-1,.31-1,.87l-1.29,0a2,2,0,0,0-1.92,1.66,14.37,14.37,0,0,0-.32,2.14,32.34,32.34,0,0,0,.16,7.69c.06.27.11.54.19.82a10.47,10.47,0,0,0,.77,2.08c.07.15.15.31.23.46a9,9,0,0,0,.68,1.09,8.38,8.38,0,0,1,1.24,3.77h0c0,.25.06.5.08.75s0,.25,0,.38q.3,2.88.68,5.76h0c.23,1.79.5,3.6.79,5.38A158.94,158.94,0,0,0,19,74.15c1.94,7.13,5.3,13.39,11.24,18l.25.22h0l.75.61a64.39,64.39,0,0,0,8,5.39h0c1.21.7,2.51,1.39,3.89,2h0a45.69,45.69,0,0,0,10.45,3.64h0c.52.11,1,.21,1.57.29a32.91,32.91,0,0,0,3.28.37h.24a27.43,27.43,0,0,0,7.57-.65,21.45,21.45,0,0,0,10.36-7.79c.83-1.11,1.6-2.23,2.34-3.38A93.21,93.21,0,0,0,87.25,75.4a42.16,42.16,0,0,0,2.3-7.17c0-.19.07-.39.1-.59s0-.29.07-.45h0v0l0-.23v-.06c0-.14,0-.29,0-.43s0-.21,0-.31a0,0,0,0,1,0,0v0h0c0-.07,0-.14,0-.21v-.23a1.69,1.69,0,0,0,0-.23v-.07c0-.44,0-.89,0-1.33a5.59,5.59,0,0,0,0,1h0a5.69,5.69,0,0,1,0-.95c0-.1,0-.21,0-.3.21-1.06.89-1.39,2.48-1.31a11.28,11.28,0,0,1,2.92.51A9.21,9.21,0,0,1,99,65.07a10.36,10.36,0,0,1,1.15,1.3,13,13,0,0,1,1,1.54l.06.13a38.59,38.59,0,0,1,2.26,5.29c3,8.55,6,17.09,10.7,24.91,5.46,9,12,16.88,22.08,21.1h0l.46.23a.33.33,0,0,0,.12,0l.33.15.41.18c.17.08.36.15.57.23l.39.15.35.13h0l.4.15.45.15.44.15c.16,0,.32.11.48.15l.52.17.54.16c1.12.33,2.42.66,3.89,1h.1l.11,0,.52.11c.81.17,1.65.33,2.55.48l.65.1.1,0,.12,0,.78.12h0l1.69.23,1.79.2.72.08,1.5.13.76,0c.58,0,1.17.09,1.78.12l1.45.07,1.35,0h.47l.76,0h3.05l1.55,0,1,0,1,0,.93,0,.94,0,1.21-.08h.09l.93-.07.94-.07.43,0,.73-.06.89-.08.89-.08.64-.07.91-.09.65-.07,1-.11h.11c.8-.09,1.61-.19,2.44-.31a35.09,35.09,0,0,0,5.65-1.58,26.32,26.32,0,0,0,5.51-2.86l.89-.65a22.15,22.15,0,0,0,2.52-2.21,23,23,0,0,0,3.24-4.22,26.44,26.44,0,0,0,2.18-4.57h0a31.39,31.39,0,0,0,1-3.15q1.9-7.22,3.26-14.52h0q1-5.53,1.76-11.14a5.78,5.78,0,0,1,3.74-4.87c1.09-.45,2.21-.84,3.34-1.18,1.33-.41,2.66-.8,4-1.19,0,0,0,0,0,0h0a312.23,312.23,0,0,1,41-8.67c4.85-.7,9.58-1.27,13.33-5a20.31,20.31,0,0,1,5.85-4c1.1-.5,2.32-.6,2.61.8s.61,2.72.85,4c1.05,5.5.85,11,.86,16.61,0,2.11.85,3.09,2.91,3.56,2.77.63,5.25-1.4,5.3-4.53A67.91,67.91,0,0,0,292.2,63.33Z"/>
    <path class="cls-2" d="M87.33,56.19v-.08s0-.11,0-.17v-.19c0-.55,0-1.09,0-1.64a2.87,2.87,0,0,1,0-.31c.2-1.06,1.23-.83,2.82-.75a12.86,12.86,0,0,0,2.57,0c1.44-.3,2.63,1.15,3.67,2.16A10.7,10.7,0,0,1,98.62,58l.06.12a39.25,39.25,0,0,1,2.26,5.3c3,8.54,6,17.09,10.7,24.9,5.46,9,12,16.89,22.08,21.1h0l.46.22.12.06.74.33.57.23.39.15.35.13h0l.4.15c.14.06.29.1.45.16l.44.15.48.15.52.16.54.16c1.12.33,2.42.67,3.89,1l.1,0,.63.14c.81.16,1.65.32,2.55.47l.75.13.9.13h0l1.69.23,1.79.21.73.07,1.49.13.76.06,1.78.11,1.45.07,1.35,0h.47l.76,0h3.05l1.55,0,1,0,1,0,.92,0,.94,0,1.21-.07,1-.07.94-.07.43,0,.73-.06.89-.08.89-.09.64-.06.91-.09.65-.08,1.06-.12h0c.81-.09,1.62-.2,2.45-.31,8-1.58,14-5.27,17.81-11.53a26.69,26.69,0,0,0,2.18-4.56h0a55.67,55.67,0,0,0,4.26-17.67q1-5.54,1.76-11.13a5.75,5.75,0,0,1,3.74-4.87c1.09-.46,2.21-.84,3.34-1.19,1.33-.41,2.66-.8,4-1.18v0h0a312.2,312.2,0,0,1,41-8.66c4.85-.71,9.58-1.28,13.33-5a20.65,20.65,0,0,1,5.85-3.95c1.1-.5,2.32-.59,2.61.8s.61,2.72.85,4c1,5.46.85,11,.86,16.5a3.73,3.73,0,0,0,2.73,3.62c2.84.76,5.43-1.29,5.48-4.49a67.91,67.91,0,0,0-.67-10.29c-.65-4-1-8.05-2.36-11.93C285.76,37,283,34.09,278,33.7a22.7,22.7,0,0,0-5.27.5C255.35,36.9,238.24,41,221,44.35c-1.11.21-2.22.42-3.32.59v0a30.08,30.08,0,0,1-10.9-.14q-6.19-1.34-12.41-2.53-12.22-2.34-24.58-4.09c-1.32-.19-2.65-.37-4-.54l-.6-.07c-1.06-.15-2.12-.28-3.19-.41l-.85-.1-3.68-.44-2.06-.23c-1.75-.2-3.51-.39-5.27-.57l-6.55-.68-.48,0L143,35l-.88-.08-.67-.06-.94-.08-.48,0-.7-.06c-5.89-.46-12.91-.86-12.91-.86-1.72.09-3.76.14-6,.17-3.06,0-6.42,0-9.63-.05-7.65-.12-14.47-.38-14.47-.38l-1.71-.22c-2.27-.33-4.72-.8-7.24-1.35-1.92-.41-3.88-.87-5.82-1.36C71.09,28,61.3,24.74,61.3,24.74c-2.66-.89-5.29-1.68-7.86-2.41l2.11-.25h0C63,21.2,69.1,20.49,71,20.4a17.9,17.9,0,0,0,5.69-1.47,78.82,78.82,0,0,1,11-3.78c6.52-1.54,12.6-.78,18.17,3.23a50.19,50.19,0,0,1,7,6,59,59,0,0,1,3.88,4.84,55.16,55.16,0,0,1,11.06-6.06c-1.68-1.43-3.35-2.77-4.84-3.8A65.6,65.6,0,0,0,80.46,7.22C60.12,8.37,32.66,11.64,12.6,14.9c-.68.15-1,.32-1,.87l-1.29,0a2,2,0,0,0-1.92,1.67A14,14,0,0,0,8,19.56a32.25,32.25,0,0,0,.16,7.68h0l-.14.19h0a3.63,3.63,0,0,0-.44,3.5l.09.24,2.4,6.07,2,5.1h0c.23,1.8.5,3.6.79,5.39a158.94,158.94,0,0,0,3.55,16.5c1.94,7.12,5.3,13.39,11.24,18l.25.22h0a6.05,6.05,0,0,0,2.15,2.74,69.12,69.12,0,0,0,10.78,6.18c.4.18.79.36,1.2.53.81.36,1.64.7,2.5,1,.52.2,1,.39,1.59.58a24.93,24.93,0,0,0,8.9,1.33l.79,0h.24c.86,0,1.72.05,2.58,0a18.75,18.75,0,0,0,10.11-3.27A23.43,23.43,0,0,0,74,86.44c.83-1.1,1.6-2.23,2.34-3.38A93.12,93.12,0,0,0,84.75,65.5,126.27,126.27,0,0,0,87.9,52.89"/>
    <g>
      <g>
        <path class="cls-3" d="M139,34.72c-5.89-.46-12.91-.86-12.91-.86-1.72.09-3.76.14-6,.17a3,3,0,0,0,2.14,1.14c5,.21,10,.49,14.93.69C138.55,35.91,139.14,35.55,139,34.72ZM122.6,19.39C109.83,10.52,95.91,6.33,80.19,7.22c-20.34,1.15-47.8,4.41-67.87,7.68-.67.15-1,.32-1,.87a.91.91,0,0,0,0,.17l3.13,4.22.15.21.92,1.25,3.28,4.44h.39c1.1,0,3.08-.2,5.63-.45,1.4-.14,3-.31,4.66-.5,1.38-.14,2.83-.31,4.35-.48h0c5.52-.63,11.79-1.39,17.62-2.09h0l1.68-.19h0l2.12-.25h0c7.43-.88,13.54-1.59,15.41-1.68a17.9,17.9,0,0,0,5.69-1.47,78.37,78.37,0,0,1,11-3.78c6.52-1.54,12.6-.78,18.16,3.23a49.7,49.7,0,0,1,7,6,59.14,59.14,0,0,1,3.87,4.84,55.52,55.52,0,0,1,11.07-6.06C125.75,21.76,124.09,20.42,122.6,19.39Zm-80.23.3c3.44.72,7.05,1.6,10.76,2.64Z"/>
        <path class="cls-4" d="M204.56,79.26c.11-1.37.16-2.76.16-4.15a55.82,55.82,0,0,0-10.65-32.88q-12.24-2.34-24.58-4.09l-4-.54-.6-.08-3.19-.4-.85-.1-3.68-.44-2.06-.23c-1.75-.2-3.51-.39-5.27-.57l-6.55-.68-.48-.05h-.14l-.88-.08-.67-.06-.94-.08-.49,0-.69-.06c-5.89-.46-12.91-.86-12.91-.86-1.72.09-3.76.14-6,.17-3,0-6.41,0-9.62-.05A55.87,55.87,0,0,0,96.23,55.17,10.7,10.7,0,0,1,98.35,58l.06.12a39.68,39.68,0,0,1,2.26,5.29c3,8.55,6,17.09,10.69,24.91,5.47,9,12,16.89,22.09,21.1h0l.46.22.12.06.74.33.56.23.39.14.36.14h0l.4.15.45.16.44.15c.16,0,.32.1.48.15l.52.16.54.16c1.12.33,2.41.67,3.89,1l.1,0,.63.13c.81.17,1.65.33,2.55.48q.38.07.75.12l.9.14c1.09.16,2.25.31,3.48.44l.72.07,1.5.13.76.06,1.77.11,1.46.07,1.35,0h.47l.75,0h3.06l1.55,0,1,0,1,0,.93,0,.94,0,1.21-.07,1-.07.94-.07.43,0q.36,0,.72-.06l.89-.07.9-.09.64-.06.91-.09.65-.08,1.06-.12h0l2.44-.31c8.05-1.58,14.05-5.27,17.82-11.53q1.19-2.22,2.18-4.56h0Z"/>
        <path class="cls-5" d="M161.59,114.34H160l-.75,0h-.47c-.46,0-.91,0-1.35,0l-1.46-.07-1.77-.11-.76-.06c-.51,0-1-.08-1.5-.13l-.72-.07c-1.23-.13-2.39-.27-3.48-.44Z"/>
        <path class="cls-6" d="M161.59,114.34H160l-.75,0h-.47l-1.35,0-1.46-.07-1.77-.11-.76-.06c-.51,0-1-.08-1.5-.13l-.72-.07c-1.23-.13-2.39-.27-3.48-.44l-2.6-6.87-24.6-65.1h0l-.42-1.1,11.77-4.45,2.29,6.06h0l25.26,66.83h0Z"/>
        <path class="cls-6" d="M177.86,113.34h0L192.11,108l-2.38-6.31-20.87-55.2h0l-3.34-8.85-.6-.07c-1.06-.15-2.13-.28-3.19-.41l-.85-.1-3.68-.44-2.06-.23c-1.75-.2-3.51-.39-5.27-.57l-6.55-.67-.48,0-.14,0-.88-.08-.67-.06-.94-.08-.49,0,3,7.88h0l24.9,65.89,2.1,5.54Z"/>
        <path class="cls-7" d="M71.26,35.49C50.53,26.3,28.35,23.81,28.35,23.81c-11.54-2.1-10.89,7.74-10.89,7.74-.39,26.25,8,39.5,8,39.5,6,12.47,25.45,17.59,25.45,17.59,9.19,2.49,14.44-3.15,14.44-3.15C75.73,73.68,77.43,48.61,77.43,48.61,78.35,38.25,71.26,35.49,71.26,35.49Z"/>
        <path class="cls-7" d="M87.06,56l0,.55h0c0,.15,0,.29,0,.44V57l0,.24v0c0,.15,0,.3-.07.45s-.06.39-.1.59"/>
        <path class="cls-7" d="M87.05,56.23v0a1.48,1.48,0,0,0,0-.21v0c0-.12,0-.25,0-.37"/>
        <path class="cls-4" d="M87.11,54.11c0,.55,0,1.09,0,1.64,0-.23,0-.46,0-.69A7.07,7.07,0,0,1,87.11,54.11Z"/>
        <path class="cls-4" d="M87.07,55.75v0Z"/>
        <path class="cls-4" d="M55.58,94.87h0a1.21,1.21,0,0,0,.2-.09,22.73,22.73,0,0,0,7.6-5.58h0c.38-.42.74-.84,1.1-1.29a67.28,67.28,0,0,0,8.28-13.62C73.9,71.87,74.94,69.42,76,67c1.36-3.35,2.85-6.74,2.78-10.44,0-1.62.28-2.34,1.5-2.52a6.67,6.67,0,0,1,1.23,0l5.05-19.12c-.51-1.07-1.06-2.11-1.65-3.13-11.22-2.64-21.68-5.93-21.68-5.93-2.84-.89-5.65-1.69-8.41-2.41L53.39,23l-1.94-.49h0q-5.51-1.34-10.6-2.27h0c-4.47-.85-8.66-1.48-12.42-2-3.95-.51-7.45-.84-10.36-1.06-.67.47-1.31,1-1.95,1.48s-1.15,1-1.7,1.44a44.72,44.72,0,0,0-5.1,5.29c-.48.59-.94,1.18-1.39,1.79a7.51,7.51,0,0,0,.19.82,11.09,11.09,0,0,0,.76,2.08l.24.47A10.81,10.81,0,0,0,9.8,31.7,8.17,8.17,0,0,1,11,35.46h0c0,.25.07.49.09.75s0,.25,0,.37c.2,1.92.43,3.85.68,5.76h0L27.67,82.51l8.7,6,0,0,3.89,2a45.52,45.52,0,0,0,10.45,3.64Z"/>
        <path class="cls-6" d="M72.76,74.28A67.28,67.28,0,0,1,64.48,87.9c-.36.45-.72.87-1.1,1.29h0a22.73,22.73,0,0,1-7.6,5.58l-2.12-5.62L29.45,25.1l-.18-.46,1.37-.53h0l10.2-3.85h0l1.52-.57c3.44.72,7.05,1.6,10.76,2.64h0l.26.68L56,29.84h0L72.28,73h0Z"/>
        <path class="cls-6" d="M50.73,94.21a45.52,45.52,0,0,1-10.45-3.64l-2.94-7.76h0L17.51,30.33h0l-3.13-8.28,1.11-.43,6.83-2.57L24,23.59l.75,2L48.31,87.82h0Z"/>
        <path class="cls-7" d="M182.81,49.27c-45.28-10-69.68-7.61-69.68-7.61-8.9.46-4.47,10.63-4.47,10.63a10.49,10.49,0,0,0,3.29,3.8,26.09,26.09,0,0,1,5.51,5.38c3.28,3,3.41,19.16,3.41,19.16.52,12.73,7.74,18,7.74,18,27.43,19,57.68,5.58,57.68,5.58,12.4-5.51,10-37,10-37C195.73,53.4,182.81,49.27,182.81,49.27Z"/>
        <path class="cls-8" d="M289.43,53.42c-.65-4-1-8.05-2.36-11.93-1.59-4.46-4.37-7.4-9.34-7.79a22.65,22.65,0,0,0-5.27.5C255.08,36.9,238,41,220.71,44.35c-1.15.22-2.3.43-3.44.61.66,3.1,1.15,8.27,0,15.92a311.15,311.15,0,0,1,41.1-8.69c4.85-.71,9.58-1.28,13.33-5a20.51,20.51,0,0,1,5.85-3.95c1.09-.5,2.32-.59,2.61.8s.61,2.72.85,4c1,5.5.85,11,.86,16.6,0,2.11.85,3.1,2.9,3.56,2.77.64,5.26-1.4,5.31-4.53A67.91,67.91,0,0,0,289.43,53.42Z"/>
        <path class="cls-8" d="M196.49,74.81c0,.37,0,.76,0,1.15v.11c0,.18,0,.36,0,.53a1.34,1.34,0,0,1,0,.2c0,.25,0,.5,0,.76a1.48,1.48,0,0,0,0,.21c0,.91-.1,1.85-.17,2.82a2.13,2.13,0,0,0,0,.27c0,.43-.08.88-.11,1.32s-.09.89-.14,1.34c-.1.83-.2,1.67-.32,2.5a.06.06,0,0,0,0,0c-.12.82-.26,1.65-.41,2.46s-.27,1.32-.41,2l-.24,1c-.05.2-.11.41-.16.62a.24.24,0,0,0,0,.08q-.1.38-.21.72l-.18.61-.24.74a0,0,0,0,0,0,0c-.06.19-.13.38-.2.57s-.13.37-.2.56a.08.08,0,0,0,0,0c-.06.17-.13.34-.2.51s-.15.37-.23.55-.12.28-.19.42a3.89,3.89,0,0,1-.19.42c-.06.13-.13.27-.19.41l-.21.4c-.12.23-.24.46-.37.68l-.29.48c-.07.12-.14.24-.22.35a4,4,0,0,1-.22.34l-.31.44-.26.34a.76.76,0,0,1-.11.14,3.17,3.17,0,0,1-.28.34l-.32.37,0,0h0l-.2.21-.2.21c-.11.11-.23.23-.36.34s0,0-.06,0l-.09.08-.26.23-.21.16a1.16,1.16,0,0,1-.21.16l0,0-.42.29-.34.22-.08.05-.05,0-.22.13-.08,0-.18.1-.09,0-.36.18-.1,0-.08,0-.19.08-.1,0-.31.13-.27.1-.67.25-.19.07-.27.1-.39.14-.27.09-.41.13-.16.06-.3.1-.32.1-.82.25-.35.1-.57.17-.78.22-.64.16-.6.16-.13,0-.75.18c-.6.15-1.22.29-1.87.42l-1.43.28c-.58.12-1.18.22-1.8.32l-.74.11-.12,0-.14,0h-.12l-.81.12-1,.12c-.66.07-1.33.15-2,.21l-1.31.1h-.08l-1.43.07-1.14,0h-3l-1.19,0h-.09l-.72,0h-.3l-.59,0c-.66,0-1.32-.1-2-.16l-.11,0c-.49,0-1-.1-1.5-.16l-.78-.1-.73-.11-.76-.11-.56-.1h-.08l-.57-.11c-1.21-.22-2.43-.48-3.66-.79l-.93-.24-.93-.26-1-.31-1-.32c-.31-.09-.61-.2-.91-.31l-.08,0-.89-.32-.57-.22-.75-.29-1-.4-1-.44-.09,0-.64-.29-.06,0-.57-.27-.73-.35-1-.48-.07,0-.88-.47-1.08-.6c-.71-.41-1.43-.83-2.14-1.29-.26-.16-.52-.32-.77-.49-.46-.3-.91-.6-1.37-.92,0,0-7.22-5.25-7.74-18h0c0-.28.11-10.52-1.88-16.27,0,0,0,0,0,0a.76.76,0,0,1,0-.11l0,0a8.13,8.13,0,0,0-1.46-2.68l0,0,0,0a41.09,41.09,0,0,0-5.44-5.3,16,16,0,0,1-3.27-3.78h0a.38.38,0,0,1,0-.11l-.08-.22h0c-.06-.16-.13-.35-.21-.6s-.1-.3-.15-.47-.06-.19-.08-.29a.19.19,0,0,1,0-.07c0-.12-.07-.25-.11-.38a1.55,1.55,0,0,1,0-.21,1.8,1.8,0,0,1,0-.19h0c0-.07,0-.14,0-.22s0-.13,0-.2h0c0-.15-.06-.3-.08-.45l0-.22a1.9,1.9,0,0,1,0-.25,34129451060873.38,34129451060873.38,0,0,0,0-.48,1.94,1.94,0,0,1,0-.24c0-.16,0-.32,0-.48s0-.32,0-.48h0c0-.16,0-.31,0-.46s0-.1,0-.14a.09.09,0,0,0,0,0l0-.14.06-.33c.43-1.84,1.69-3.44,4.67-3.83l.55,0h.19s2.52-.25,7.45-.25h3.2l1.19,0,.62,0h.12l.77,0,.86,0,.88,0,.7,0h.31l.56,0,.57,0h.06l2.22.13.27,0,1.31.09,1,.06q3.48.27,7.49.67,5.55.57,12.1,1.49t14.06,2.3q6.62,1.21,13.95,2.82h0l.07,0,.07,0,.15.06.1,0,.15,0,.3.12h0l.32.14.08,0c.17.06.34.15.53.24l.17.08.26.13,0,0,.45.23.47.26.1.06.64.38.67.43q.49.33,1,.72l.37.28c.13.11.26.22.4.32.46.39.93.8,1.39,1.25.11.09.21.2.31.3s.34.35.51.54l.39.44s.09.1.13.16.3.36.45.55l0,0c.16.19.31.4.46.61a3.46,3.46,0,0,1,.22.31l.21.32c.33.49.63,1,.92,1.55.1.21.21.42.31.64s.17.37.25.56l.24.57.21.56.2.59,0,.06c.05.15.09.31.13.47s.1.33.14.49.1.4.14.6l.12.54v0c0,.2.08.39.11.59s0,.36.07.54,0,.23,0,.34,0,.35.05.52l.05.53,0,.54s0,.08,0,.25,0,.11,0,.18v.11a.53.53,0,0,1,0,.13s0,0,0,.07v0h0v0c0,.09,0,.18,0,.29a1.09,1.09,0,0,1,0,.18,1.93,1.93,0,0,1,0,.25.07.07,0,0,1,0,.05v0h0a1.7,1.7,0,0,0,0,.22c0,.2,0,.41,0,.65h0c0,.13,0,.27,0,.41v.06h0c0,.13,0,.25,0,.39s0,.27,0,.4v0c0,.17,0,.33,0,.51C196.51,72.49,196.51,73.6,196.49,74.81Zm20.89-29.87v0a30.14,30.14,0,0,1-10.91-.14q-6.18-1.34-12.4-2.53-12.24-2.34-24.58-4.09l-4-.54-.6-.08-3.19-.4-.85-.1-3.68-.44-2.06-.23c-1.75-.2-3.51-.39-5.27-.57l-6.55-.68-.48-.05h-.14l-.88-.08-.67-.06-.94-.08-.49,0-.69-.06c-5.89-.46-12.91-.86-12.91-.86-1.72.09-3.76.14-6,.17-3,0-6.41,0-9.62-.05-7.65-.12-14.47-.38-14.47-.38l-1.71-.22c-2.27-.33-4.73-.8-7.24-1.35-1.93-.41-3.88-.87-5.82-1.36C70.82,28,61,24.74,61,24.74c-2.66-.89-5.29-1.68-7.87-2.41h0c-3.71-1-7.32-1.92-10.76-2.64-5-1.08-9.7-1.86-13.85-2.43-3.4-.47-6.43-.79-9-1l-.66-.06c-3.49-.29-6.09-.39-7.53-.43l-1.29,0a2,2,0,0,0-1.92,1.67,14,14,0,0,0-.32,2.14,32.27,32.27,0,0,0,.16,7.68,7.51,7.51,0,0,0,.19.82,11.09,11.09,0,0,0,.76,2.08l.24.47A10.81,10.81,0,0,0,9.8,31.7,8.17,8.17,0,0,1,11,35.46h0c0,.25.07.49.09.75s0,.25,0,.37c.2,1.92.43,3.85.68,5.76h0c.23,1.8.5,3.6.79,5.39a156.38,156.38,0,0,0,3.55,16.5c1.94,7.12,5.3,13.39,11.24,18l.25.22c.17.15.43.35.75.61a63.27,63.27,0,0,0,7.95,5.39l0,0c1.21.69,2.51,1.38,3.89,2a45.52,45.52,0,0,0,10.45,3.64c.52.11,1.05.21,1.57.3a32.56,32.56,0,0,0,3.28.36h.24l0-.1a22.73,22.73,0,0,0,7.6-5.58h0c.38-.42.74-.84,1.1-1.29a67.28,67.28,0,0,0,8.28-13.62l3.33,8.78A93.74,93.74,0,0,0,84.48,65.5a42.45,42.45,0,0,0,2.3-7.17c0-.2.07-.4.1-.59s.05-.3.07-.45v0L87,57V57c0-.15,0-.29,0-.44s0-.21,0-.31v0a2.09,2.09,0,0,0,0-.25c0-.12,0-.25,0-.37a.25.25,0,0,0,0-.08v-.43a7,7,0,0,1,0-1,2.87,2.87,0,0,1,0-.31c.21-1.06.88-1.38,2.47-1.31a11.29,11.29,0,0,1,2.93.52,9.05,9.05,0,0,1,3.67,2.16A10.7,10.7,0,0,1,98.35,58l.06.12a39.68,39.68,0,0,1,2.26,5.29c3,8.55,6,17.09,10.69,24.91,5.47,9,12,16.89,22.09,21.1h0l.46.22.12.06.74.33.56.23.39.14.36.14h0l.4.15.45.16.44.15c.16,0,.32.1.48.15l.52.16.54.16c1.12.33,2.41.67,3.89,1l.1,0,.63.13c.81.17,1.65.33,2.55.48q.38.07.75.12l.9.14c1.09.16,2.25.31,3.48.44l.72.07,1.5.13.76.06,1.77.11,1.46.07,1.35,0h.47l.75,0h3.06l1.55,0,1,0,1,0,.93,0,.94,0,1.21-.07,1-.07.94-.07.43,0q.36,0,.72-.06l.89-.07.9-.09.64-.06.91-.09.65-.08,1.06-.12h0l2.44-.31c8.05-1.58,14.05-5.27,17.82-11.53a26.69,26.69,0,0,0,2.18-4.56h0a32,32,0,0,0,1-3.14q1.91-7.23,3.25-14.53c.69-3.69,1.27-7.4,1.77-11.13a5.75,5.75,0,0,1,3.74-4.87,34.83,34.83,0,0,1,3.34-1.19c1.33-.41,2.66-.8,4-1.19v0h0C218.54,53.22,218.05,48,217.38,44.94ZM72.62,72.08l-.05.14c0,.08-.06.17-.09.24s-.13.37-.2.55l0,.1,0,.12a1.34,1.34,0,0,0-.07.18,1.17,1.17,0,0,0,0,.11c-.07.2-.15.41-.23.61l-.24.61c-.14.34-.27.67-.41,1l0,0,0,.07c-.16.38-.33.76-.5,1.13l-.34.73c-.23.48-.46,1-.71,1.42l-.3.57-.42.76c-.14.25-.28.49-.43.73s-.22.36-.33.54-.33.52-.5.77l-.42.63-.07.09c-.17.25-.35.49-.53.73s-.41.54-.62.79l-.27.34-.36.42-.17.16a1.17,1.17,0,0,1-.16.15,9.94,9.94,0,0,1-.89.72l-.23.16-.24.17-.3.19-.37.23-.31.17-.06,0-.24.13-.25.13-.35.17-.57.25h0l-.2.08-.36.13,0,0a3.12,3.12,0,0,1-.43.15l-.45.14-.32.09-.23.06-.4.09L58.4,89h0l-.46.08-.14,0-.53.07h0l-.5,0h-.38l-.3,0H55l-.47,0c-.28,0-.56,0-.85-.08h-.07l-.41-.05L52.8,89,52.28,89c-.21,0-.43-.08-.65-.14l-.71-.18s-.39-.1-1.09-.32a4.14,4.14,0,0,1-.43-.13l-.31-.1-.48-.16-.21-.07-.09,0-.43-.15-.45-.16c-.6-.22-1.27-.47-2-.75L45,86.59l-.1,0-.8-.34L43.51,86c-.49-.21-1-.44-1.5-.68L41.5,85c-.52-.25-1-.51-1.57-.79q-.51-.26-1-.54c-.52-.28-1-.58-1.57-.89h0l-.92-.56-.77-.49-.57-.38L34.57,81l-.52-.38-.5-.36-.81-.62L32,79.06l-.64-.55-.25-.22c-.07-.07-.15-.13-.21-.2l0,0h0s0,0-.05,0a.86.86,0,0,1-.14-.13,1.59,1.59,0,0,1-.13-.13l-.17-.15-.3-.3-.24-.24-.49-.5h0a.86.86,0,0,0-.13-.14l-.12-.14c-.14-.15-.28-.3-.41-.46s-.37-.43-.55-.65A1.47,1.47,0,0,1,28,75c-.18-.21-.35-.44-.52-.66h0c-.13-.16-.25-.34-.37-.51s-.25-.36-.37-.55c-.24-.36-.47-.73-.68-1.1l-.2-.37c-.06-.09-.11-.2-.17-.31l-.23-.47s-.3-.47-.78-1.42q-.11-.18-.21-.39t-.3-.63q-.27-.57-.57-1.26a.2.2,0,0,1,0-.08v0h0s0,0,0,0L23.45,67c-.23-.52-.47-1.11-.71-1.74l-.34-.87-.19-.55,0-.07v0L22,63.14c-.17-.49-.34-1-.51-1.55-.07-.19-.13-.39-.19-.6-.38-1.21-.75-2.54-1.11-4-.06-.23-.12-.48-.17-.73s-.11-.43-.16-.66a.24.24,0,0,1,0-.08c-.06-.26-.11-.51-.17-.77-.12-.52-.23-1.05-.34-1.6s-.21-1.08-.31-1.64a.06.06,0,0,0,0,0c-.1-.56-.19-1.12-.28-1.69,0-.2-.07-.42-.1-.63,0-.05,0-.1,0-.15a.43.43,0,0,1,0-.05.13.13,0,0,0,0-.06c0-.3-.09-.6-.13-.9,0-.06,0-.12,0-.18a1.93,1.93,0,0,1,0-.27c0-.18-.05-.36-.07-.55s-.09-.67-.13-1l-.09-.84L18,44.07c-.06-.61-.11-1.22-.16-1.84,0,0,0-.06,0-.08,0-.34-.05-.69-.08-1s-.06-.9-.08-1.36-.05-.87-.07-1.32,0-.78,0-1.18v-.07c0-.24,0-.47,0-.7a2.35,2.35,0,0,0,0-.27c0-.19,0-.38,0-.57,0-.37,0-.75,0-1.14,0-1,0-2,0-2.94v-.48a1.55,1.55,0,0,1,0-.21v0a1.41,1.41,0,0,1,0-.2l0-.3v0c0-.09,0-.17,0-.27s0-.2,0-.31l0-.14c0-.15.06-.31.09-.47s.05-.2.08-.3l.09-.33c0-.06,0-.12.07-.19l0-.13a2.6,2.6,0,0,1,.1-.25,1.86,1.86,0,0,1,.1-.25c0-.06.05-.11.07-.17s.11-.22.17-.33a2.68,2.68,0,0,1,.18-.33l0-.07.16-.26a1,1,0,0,0,.08-.11l0-.05.24-.32h0l.05-.07c.07-.07.14-.16.21-.24h0l.29-.28v0L20,25.2l.11-.1,0,0L20.2,25c.07,0,.14-.1.21-.15l.39-.25.37-.21.11-.05.12-.06.17-.08.1,0,.28-.11.21-.08.31-.1.44-.11.09,0,.09,0,.13,0,.39-.07.2,0,.21,0h0l.22,0h.18c.14,0,.29,0,.44,0a16.53,16.53,0,0,1,3.47.29h.21l.26,0,.29,0h.07l.42.06,1,.14h0l.62.1.43.07.34,0,.27,0,.08,0,.45.06.48.08.18,0,.1,0,.1,0,.1,0h0l.3.05.84.14.45.08.95.17.09,0,.64.12.48.09.06,0,.24,0,.54.1.53.11.16,0,.33.06,2.88.61,1.27.28,3.46.82,1.19.3,1.37.36c1,.27,2.09.56,3.16.86L53,29l.81.23.11,0,1.85.56.16.05.47.15,2.65.84,2,.68,1,.36,1,.35.35.13,1.68.63,1.73.68.31.11.41.18,1,.38,1.35.57,1.36.59h.07l0,0,.06,0,.16.07.11.06.27.15.15.09.17.1.17.12.18.12.06,0,.26.2a2.47,2.47,0,0,1,.27.21l.21.17.21.19.22.2.22.22.16.16.31.35c.07.09.16.18.24.29s.22.28.34.44a10.29,10.29,0,0,0,.33.48l.14.23.15.23,0,.09,0,.08,0,.09c0,.08.09.16.13.25a.83.83,0,0,1,.07.13l.19.39a.54.54,0,0,0,0,.11c.07.15.13.31.19.46s.15.38.21.57h0c0,.16.11.31.15.48l0,0h0c0,.15.09.3.13.45s0,0,0,0l0,.14,0,.14h0a0,0,0,0,1,0,0v0h0c0,.17.08.35.11.53h0c0,.22.08.44.11.66l.09.83c0,.24,0,.48,0,.73h0c0,.26,0,.52,0,.8,0,.58,0,1.18-.09,1.81v.09c0,.06,0,.19,0,.35s0,.12,0,.19,0,.29,0,.47,0,.37-.06.59-.08.75-.13,1.2c0,.2-.05.42-.08.64v.11l-.06.46A2.17,2.17,0,0,0,77,53c-.11.84-.24,1.79-.4,2.81l-.12.75c0,.33-.11.66-.17,1l-.09.52-.09.52c-.07.41-.15.82-.23,1.24s-.22,1.12-.35,1.7c-.08.39-.16.79-.25,1.19l-.15.66c-.06.24-.11.49-.18.73s-.11.5-.18.75a.07.07,0,0,1,0,0l-.18.7c-.14.58-.3,1.16-.46,1.75-.09.31-.17.62-.27.93s-.19.63-.28.95l-.15.48c0,.16-.1.31-.15.48l-.3.94C72.84,71.44,72.73,71.76,72.62,72.08Z"/>
        <path class="cls-8" d="M76.09,83.06c-.74,1.15-1.52,2.28-2.34,3.38a21.32,21.32,0,0,1-10.36,7.79,26.68,26.68,0,0,1-7.57.65l0-.1a22.73,22.73,0,0,0,7.6-5.58h0c.38-.42.74-.84,1.1-1.29a67.28,67.28,0,0,0,8.28-13.62Z"/>
      </g>
      <g>
        <path class="cls-3" d="M139,34.72c-5.89-.46-12.91-.86-12.91-.86-1.72.09-3.76.14-6,.17a3,3,0,0,0,2.14,1.14c5,.21,10,.49,14.93.69C138.55,35.91,139.14,35.55,139,34.72ZM122.6,19.39C109.83,10.52,95.91,6.33,80.19,7.22c-20.34,1.15-47.8,4.41-67.87,7.68-.67.15-1,.32-1,.87a.91.91,0,0,0,0,.17l3.13,4.22.15.21.92,1.25,3.28,4.44h.39c1.1,0,3.08-.2,5.63-.45,1.4-.14,3-.31,4.66-.5,1.38-.14,2.83-.31,4.35-.48h0c5.52-.63,11.79-1.39,17.62-2.09h0l1.68-.19h0l2.12-.25h0c7.43-.88,13.54-1.59,15.41-1.68a17.9,17.9,0,0,0,5.69-1.47,78.37,78.37,0,0,1,11-3.78c6.52-1.54,12.6-.78,18.16,3.23a49.7,49.7,0,0,1,7,6,59.14,59.14,0,0,1,3.87,4.84,55.52,55.52,0,0,1,11.07-6.06C125.75,21.76,124.09,20.42,122.6,19.39Zm-80.23.3c3.44.72,7.05,1.6,10.76,2.64Z"/>
        <path class="cls-4" d="M204.56,79.26c.11-1.37.16-2.76.16-4.15a55.82,55.82,0,0,0-10.65-32.88q-12.24-2.34-24.58-4.09l-4-.54-.6-.08-3.19-.4-.85-.1-3.68-.44-2.06-.23c-1.75-.2-3.51-.39-5.27-.57l-6.55-.68-.48-.05h-.14l-.88-.08-.67-.06-.94-.08-.49,0-.69-.06c-5.89-.46-12.91-.86-12.91-.86-1.72.09-3.76.14-6,.17-3,0-6.41,0-9.62-.05A55.87,55.87,0,0,0,96.23,55.17,10.7,10.7,0,0,1,98.35,58l.06.12a39.68,39.68,0,0,1,2.26,5.29c3,8.55,6,17.09,10.69,24.91,5.47,9,12,16.89,22.09,21.1h0l.46.22.12.06.74.33.56.23.39.14.36.14h0l.4.15.45.16.44.15c.16,0,.32.1.48.15l.52.16.54.16c1.12.33,2.41.67,3.89,1l.1,0,.63.13c.81.17,1.65.33,2.55.48q.38.07.75.12l.9.14c1.09.16,2.25.31,3.48.44l.72.07,1.5.13.76.06,1.77.11,1.46.07,1.35,0h.47l.75,0h3.06l1.55,0,1,0,1,0,.93,0,.94,0,1.21-.07,1-.07.94-.07.43,0q.36,0,.72-.06l.89-.07.9-.09.64-.06.91-.09.65-.08,1.06-.12h0l2.44-.31c8.05-1.58,14.05-5.27,17.82-11.53q1.19-2.22,2.18-4.56h0Z"/>
        <path class="cls-5" d="M161.59,114.34H160l-.75,0h-.47c-.46,0-.91,0-1.35,0l-1.46-.07-1.77-.11-.76-.06c-.51,0-1-.08-1.5-.13l-.72-.07c-1.23-.13-2.39-.27-3.48-.44Z"/>
        <path class="cls-6" d="M161.59,114.34H160l-.75,0h-.47l-1.35,0-1.46-.07-1.77-.11-.76-.06c-.51,0-1-.08-1.5-.13l-.72-.07c-1.23-.13-2.39-.27-3.48-.44l-2.6-6.87-24.6-65.1h0l-.42-1.1,11.77-4.45,2.29,6.06h0l25.26,66.83h0Z"/>
        <path class="cls-6" d="M177.86,113.34h0L192.11,108l-2.38-6.31-20.87-55.2h0l-3.34-8.85-.6-.07c-1.06-.15-2.13-.28-3.19-.41l-.85-.1-3.68-.44-2.06-.23c-1.75-.2-3.51-.39-5.27-.57l-6.55-.67-.48,0-.14,0-.88-.08-.67-.06-.94-.08-.49,0,3,7.88h0l24.9,65.89,2.1,5.54Z"/>
        <path class="cls-7" d="M71.26,35.49C50.53,26.3,28.35,23.81,28.35,23.81c-11.54-2.1-10.89,7.74-10.89,7.74-.39,26.25,8,39.5,8,39.5,6,12.47,25.45,17.59,25.45,17.59,9.19,2.49,14.44-3.15,14.44-3.15C75.73,73.68,77.43,48.61,77.43,48.61,78.35,38.25,71.26,35.49,71.26,35.49Z"/>
        <path class="cls-7" d="M87.06,56l0,.55h0c0,.15,0,.29,0,.44V57l0,.24v0c0,.15,0,.3-.07.45s-.06.39-.1.59"/>
        <path class="cls-7" d="M87.05,56.23v0a1.48,1.48,0,0,0,0-.21v0c0-.12,0-.25,0-.37"/>
        <path class="cls-4" d="M87.11,54.11c0,.55,0,1.09,0,1.64,0-.23,0-.46,0-.69A7.07,7.07,0,0,1,87.11,54.11Z"/>
        <path class="cls-4" d="M87.07,55.75v0Z"/>
        <path class="cls-4" d="M55.58,94.87h0a1.21,1.21,0,0,0,.2-.09,22.73,22.73,0,0,0,7.6-5.58h0c.38-.42.74-.84,1.1-1.29a67.28,67.28,0,0,0,8.28-13.62C73.9,71.87,74.94,69.42,76,67c1.36-3.35,2.85-6.74,2.78-10.44,0-1.62.28-2.34,1.5-2.52a6.67,6.67,0,0,1,1.23,0l5.05-19.12c-.51-1.07-1.06-2.11-1.65-3.13-11.22-2.64-21.68-5.93-21.68-5.93-2.84-.89-5.65-1.69-8.41-2.41L53.39,23l-1.94-.49h0q-5.51-1.34-10.6-2.27h0c-4.47-.85-8.66-1.48-12.42-2-3.95-.51-7.45-.84-10.36-1.06-.67.47-1.31,1-1.95,1.48s-1.15,1-1.7,1.44a44.72,44.72,0,0,0-5.1,5.29c-.48.59-.94,1.18-1.39,1.79a7.51,7.51,0,0,0,.19.82,11.09,11.09,0,0,0,.76,2.08l.24.47A10.81,10.81,0,0,0,9.8,31.7,8.17,8.17,0,0,1,11,35.46h0c0,.25.07.49.09.75s0,.25,0,.37c.2,1.92.43,3.85.68,5.76h0L27.67,82.51l8.7,6,0,0,3.89,2a45.52,45.52,0,0,0,10.45,3.64Z"/>
        <path class="cls-6" d="M72.76,74.28A67.28,67.28,0,0,1,64.48,87.9c-.36.45-.72.87-1.1,1.29h0a22.73,22.73,0,0,1-7.6,5.58l-2.12-5.62L29.45,25.1l-.18-.46,1.37-.53h0l10.2-3.85h0l1.52-.57c3.44.72,7.05,1.6,10.76,2.64h0l.26.68L56,29.84h0L72.28,73h0Z"/>
        <path class="cls-6" d="M50.73,94.21a45.52,45.52,0,0,1-10.45-3.64l-2.94-7.76h0L17.51,30.33h0l-3.13-8.28,1.11-.43,6.83-2.57L24,23.59l.75,2L48.31,87.82h0Z"/>
        <path class="cls-7" d="M182.81,49.27c-45.28-10-69.68-7.61-69.68-7.61-8.9.46-4.47,10.63-4.47,10.63a10.49,10.49,0,0,0,3.29,3.8,26.09,26.09,0,0,1,5.51,5.38c3.28,3,3.41,19.16,3.41,19.16.52,12.73,7.74,18,7.74,18,27.43,19,57.68,5.58,57.68,5.58,12.4-5.51,10-37,10-37C195.73,53.4,182.81,49.27,182.81,49.27Z"/>
        <path class="cls-8" d="M289.43,53.42c-.65-4-1-8.05-2.36-11.93-1.59-4.46-4.37-7.4-9.34-7.79a22.65,22.65,0,0,0-5.27.5C255.08,36.9,238,41,220.71,44.35c-1.15.22-2.3.43-3.44.61.66,3.1,1.15,8.27,0,15.92a311.15,311.15,0,0,1,41.1-8.69c4.85-.71,9.58-1.28,13.33-5a20.51,20.51,0,0,1,5.85-3.95c1.09-.5,2.32-.59,2.61.8s.61,2.72.85,4c1,5.5.85,11,.86,16.6,0,2.11.85,3.1,2.9,3.56,2.77.64,5.26-1.4,5.31-4.53A67.91,67.91,0,0,0,289.43,53.42Z"/>
        <path class="cls-8" d="M196.49,74.81c0,.37,0,.76,0,1.15v.11c0,.18,0,.36,0,.53a1.34,1.34,0,0,1,0,.2c0,.25,0,.5,0,.76a1.48,1.48,0,0,0,0,.21c0,.91-.1,1.85-.17,2.82a2.13,2.13,0,0,0,0,.27c0,.43-.08.88-.11,1.32s-.09.89-.14,1.34c-.1.83-.2,1.67-.32,2.5a.06.06,0,0,0,0,0c-.12.82-.26,1.65-.41,2.46s-.27,1.32-.41,2l-.24,1c-.05.2-.11.41-.16.62a.24.24,0,0,0,0,.08q-.1.38-.21.72l-.18.61-.24.74a0,0,0,0,0,0,0c-.06.19-.13.38-.2.57s-.13.37-.2.56a.08.08,0,0,0,0,0c-.06.17-.13.34-.2.51s-.15.37-.23.55-.12.28-.19.42a3.89,3.89,0,0,1-.19.42c-.06.13-.13.27-.19.41l-.21.4c-.12.23-.24.46-.37.68l-.29.48c-.07.12-.14.24-.22.35a4,4,0,0,1-.22.34l-.31.44-.26.34a.76.76,0,0,1-.11.14,3.17,3.17,0,0,1-.28.34l-.32.37,0,0h0l-.2.21-.2.21c-.11.11-.23.23-.36.34s0,0-.06,0l-.09.08-.26.23-.21.16a1.16,1.16,0,0,1-.21.16l0,0-.42.29-.34.22-.08.05-.05,0-.22.13-.08,0-.18.1-.09,0-.36.18-.1,0-.08,0-.19.08-.1,0-.31.13-.27.1-.67.25-.19.07-.27.1-.39.14-.27.09-.41.13-.16.06-.3.1-.32.1-.82.25-.35.1-.57.17-.78.22-.64.16-.6.16-.13,0-.75.18c-.6.15-1.22.29-1.87.42l-1.43.28c-.58.12-1.18.22-1.8.32l-.74.11-.12,0-.14,0h-.12l-.81.12-1,.12c-.66.07-1.33.15-2,.21l-1.31.1h-.08l-1.43.07-1.14,0h-3l-1.19,0h-.09l-.72,0h-.3l-.59,0c-.66,0-1.32-.1-2-.16l-.11,0c-.49,0-1-.1-1.5-.16l-.78-.1-.73-.11-.76-.11-.56-.1h-.08l-.57-.11c-1.21-.22-2.43-.48-3.66-.79l-.93-.24-.93-.26-1-.31-1-.32c-.31-.09-.61-.2-.91-.31l-.08,0-.89-.32-.57-.22-.75-.29-1-.4-1-.44-.09,0-.64-.29-.06,0-.57-.27-.73-.35-1-.48-.07,0-.88-.47-1.08-.6c-.71-.41-1.43-.83-2.14-1.29-.26-.16-.52-.32-.77-.49-.46-.3-.91-.6-1.37-.92,0,0-7.22-5.25-7.74-18h0c0-.28.11-10.52-1.88-16.27,0,0,0,0,0,0a.76.76,0,0,1,0-.11l0,0a8.13,8.13,0,0,0-1.46-2.68l0,0,0,0a41.09,41.09,0,0,0-5.44-5.3,16,16,0,0,1-3.27-3.78h0a.38.38,0,0,1,0-.11l-.08-.22h0c-.06-.16-.13-.35-.21-.6s-.1-.3-.15-.47-.06-.19-.08-.29a.19.19,0,0,1,0-.07c0-.12-.07-.25-.11-.38a1.55,1.55,0,0,1,0-.21,1.8,1.8,0,0,1,0-.19h0c0-.07,0-.14,0-.22s0-.13,0-.2h0c0-.15-.06-.3-.08-.45l0-.22a1.9,1.9,0,0,1,0-.25,34129451060873.38,34129451060873.38,0,0,0,0-.48,1.94,1.94,0,0,1,0-.24c0-.16,0-.32,0-.48s0-.32,0-.48h0c0-.16,0-.31,0-.46s0-.1,0-.14a.09.09,0,0,0,0,0l0-.14.06-.33c.43-1.84,1.69-3.44,4.67-3.83l.55,0h.19s2.52-.25,7.45-.25h3.2l1.19,0,.62,0h.12l.77,0,.86,0,.88,0,.7,0h.31l.56,0,.57,0h.06l2.22.13.27,0,1.31.09,1,.06q3.48.27,7.49.67,5.55.57,12.1,1.49t14.06,2.3q6.62,1.21,13.95,2.82h0l.07,0,.07,0,.15.06.1,0,.15,0,.3.12h0l.32.14.08,0c.17.06.34.15.53.24l.17.08.26.13,0,0,.45.23.47.26.1.06.64.38.67.43q.49.33,1,.72l.37.28c.13.11.26.22.4.32.46.39.93.8,1.39,1.25.11.09.21.2.31.3s.34.35.51.54l.39.44s.09.1.13.16.3.36.45.55l0,0c.16.19.31.4.46.61a3.46,3.46,0,0,1,.22.31l.21.32c.33.49.63,1,.92,1.55.1.21.21.42.31.64s.17.37.25.56l.24.57.21.56.2.59,0,.06c.05.15.09.31.13.47s.1.33.14.49.1.4.14.6l.12.54v0c0,.2.08.39.11.59s0,.36.07.54,0,.23,0,.34,0,.35.05.52l.05.53,0,.54s0,.08,0,.25,0,.11,0,.18v.11a.53.53,0,0,1,0,.13s0,0,0,.07v0h0v0c0,.09,0,.18,0,.29a1.09,1.09,0,0,1,0,.18,1.93,1.93,0,0,1,0,.25.07.07,0,0,1,0,.05v0h0a1.7,1.7,0,0,0,0,.22c0,.2,0,.41,0,.65h0c0,.13,0,.27,0,.41v.06h0c0,.13,0,.25,0,.39s0,.27,0,.4v0c0,.17,0,.33,0,.51C196.51,72.49,196.51,73.6,196.49,74.81Zm20.89-29.87v0a30.14,30.14,0,0,1-10.91-.14q-6.18-1.34-12.4-2.53-12.24-2.34-24.58-4.09l-4-.54-.6-.08-3.19-.4-.85-.1-3.68-.44-2.06-.23c-1.75-.2-3.51-.39-5.27-.57l-6.55-.68-.48-.05h-.14l-.88-.08-.67-.06-.94-.08-.49,0-.69-.06c-5.89-.46-12.91-.86-12.91-.86-1.72.09-3.76.14-6,.17-3,0-6.41,0-9.62-.05-7.65-.12-14.47-.38-14.47-.38l-1.71-.22c-2.27-.33-4.73-.8-7.24-1.35-1.93-.41-3.88-.87-5.82-1.36C70.82,28,61,24.74,61,24.74c-2.66-.89-5.29-1.68-7.87-2.41h0c-3.71-1-7.32-1.92-10.76-2.64-5-1.08-9.7-1.86-13.85-2.43-3.4-.47-6.43-.79-9-1l-.66-.06c-3.49-.29-6.09-.39-7.53-.43l-1.29,0a2,2,0,0,0-1.92,1.67,14,14,0,0,0-.32,2.14,32.27,32.27,0,0,0,.16,7.68,7.51,7.51,0,0,0,.19.82,11.09,11.09,0,0,0,.76,2.08l.24.47A10.81,10.81,0,0,0,9.8,31.7,8.17,8.17,0,0,1,11,35.46h0c0,.25.07.49.09.75s0,.25,0,.37c.2,1.92.43,3.85.68,5.76h0c.23,1.8.5,3.6.79,5.39a156.38,156.38,0,0,0,3.55,16.5c1.94,7.12,5.3,13.39,11.24,18l.25.22c.17.15.43.35.75.61a63.27,63.27,0,0,0,7.95,5.39l0,0c1.21.69,2.51,1.38,3.89,2a45.52,45.52,0,0,0,10.45,3.64c.52.11,1.05.21,1.57.3a32.56,32.56,0,0,0,3.28.36h.24l0-.1a22.73,22.73,0,0,0,7.6-5.58h0c.38-.42.74-.84,1.1-1.29a67.28,67.28,0,0,0,8.28-13.62l3.33,8.78A93.74,93.74,0,0,0,84.48,65.5a42.45,42.45,0,0,0,2.3-7.17c0-.2.07-.4.1-.59s.05-.3.07-.45v0L87,57V57c0-.15,0-.29,0-.44s0-.21,0-.31v0a2.09,2.09,0,0,0,0-.25c0-.12,0-.25,0-.37a.25.25,0,0,0,0-.08v-.43a7,7,0,0,1,0-1,2.87,2.87,0,0,1,0-.31c.21-1.06.88-1.38,2.47-1.31a11.29,11.29,0,0,1,2.93.52,9.05,9.05,0,0,1,3.67,2.16A10.7,10.7,0,0,1,98.35,58l.06.12a39.68,39.68,0,0,1,2.26,5.29c3,8.55,6,17.09,10.69,24.91,5.47,9,12,16.89,22.09,21.1h0l.46.22.12.06.74.33.56.23.39.14.36.14h0l.4.15.45.16.44.15c.16,0,.32.1.48.15l.52.16.54.16c1.12.33,2.41.67,3.89,1l.1,0,.63.13c.81.17,1.65.33,2.55.48q.38.07.75.12l.9.14c1.09.16,2.25.31,3.48.44l.72.07,1.5.13.76.06,1.77.11,1.46.07,1.35,0h.47l.75,0h3.06l1.55,0,1,0,1,0,.93,0,.94,0,1.21-.07,1-.07.94-.07.43,0q.36,0,.72-.06l.89-.07.9-.09.64-.06.91-.09.65-.08,1.06-.12h0l2.44-.31c8.05-1.58,14.05-5.27,17.82-11.53a26.69,26.69,0,0,0,2.18-4.56h0a32,32,0,0,0,1-3.14q1.91-7.23,3.25-14.53c.69-3.69,1.27-7.4,1.77-11.13a5.75,5.75,0,0,1,3.74-4.87,34.83,34.83,0,0,1,3.34-1.19c1.33-.41,2.66-.8,4-1.19v0h0C218.54,53.22,218.05,48,217.38,44.94ZM72.62,72.08l-.05.14c0,.08-.06.17-.09.24s-.13.37-.2.55l0,.1,0,.12a1.34,1.34,0,0,0-.07.18,1.17,1.17,0,0,0,0,.11c-.07.2-.15.41-.23.61l-.24.61c-.14.34-.27.67-.41,1l0,0,0,.07c-.16.38-.33.76-.5,1.13l-.34.73c-.23.48-.46,1-.71,1.42l-.3.57-.42.76c-.14.25-.28.49-.43.73s-.22.36-.33.54-.33.52-.5.77l-.42.63-.07.09c-.17.25-.35.49-.53.73s-.41.54-.62.79l-.27.34-.36.42-.17.16a1.17,1.17,0,0,1-.16.15,9.94,9.94,0,0,1-.89.72l-.23.16-.24.17-.3.19-.37.23-.31.17-.06,0-.24.13-.25.13-.35.17-.57.25h0l-.2.08-.36.13,0,0a3.12,3.12,0,0,1-.43.15l-.45.14-.32.09-.23.06-.4.09L58.4,89h0l-.46.08-.14,0-.53.07h0l-.5,0h-.38l-.3,0H55l-.47,0c-.28,0-.56,0-.85-.08h-.07l-.41-.05L52.8,89,52.28,89c-.21,0-.43-.08-.65-.14l-.71-.18s-.39-.1-1.09-.32a4.14,4.14,0,0,1-.43-.13l-.31-.1-.48-.16-.21-.07-.09,0-.43-.15-.45-.16c-.6-.22-1.27-.47-2-.75L45,86.59l-.1,0-.8-.34L43.51,86c-.49-.21-1-.44-1.5-.68L41.5,85c-.52-.25-1-.51-1.57-.79q-.51-.26-1-.54c-.52-.28-1-.58-1.57-.89h0l-.92-.56-.77-.49-.57-.38L34.57,81l-.52-.38-.5-.36-.81-.62L32,79.06l-.64-.55-.25-.22c-.07-.07-.15-.13-.21-.2l0,0h0s0,0-.05,0a.86.86,0,0,1-.14-.13,1.59,1.59,0,0,1-.13-.13l-.17-.15-.3-.3-.24-.24-.49-.5h0a.86.86,0,0,0-.13-.14l-.12-.14c-.14-.15-.28-.3-.41-.46s-.37-.43-.55-.65A1.47,1.47,0,0,1,28,75c-.18-.21-.35-.44-.52-.66h0c-.13-.16-.25-.34-.37-.51s-.25-.36-.37-.55c-.24-.36-.47-.73-.68-1.1l-.2-.37c-.06-.09-.11-.2-.17-.31l-.23-.47s-.3-.47-.78-1.42q-.11-.18-.21-.39t-.3-.63q-.27-.57-.57-1.26a.2.2,0,0,1,0-.08v0h0s0,0,0,0L23.45,67c-.23-.52-.47-1.11-.71-1.74l-.34-.87-.19-.55,0-.07v0L22,63.14c-.17-.49-.34-1-.51-1.55-.07-.19-.13-.39-.19-.6-.38-1.21-.75-2.54-1.11-4-.06-.23-.12-.48-.17-.73s-.11-.43-.16-.66a.24.24,0,0,1,0-.08c-.06-.26-.11-.51-.17-.77-.12-.52-.23-1.05-.34-1.6s-.21-1.08-.31-1.64a.06.06,0,0,0,0,0c-.1-.56-.19-1.12-.28-1.69,0-.2-.07-.42-.1-.63,0-.05,0-.1,0-.15a.43.43,0,0,1,0-.05.13.13,0,0,0,0-.06c0-.3-.09-.6-.13-.9,0-.06,0-.12,0-.18a1.93,1.93,0,0,1,0-.27c0-.18-.05-.36-.07-.55s-.09-.67-.13-1l-.09-.84L18,44.07c-.06-.61-.11-1.22-.16-1.84,0,0,0-.06,0-.08,0-.34-.05-.69-.08-1s-.06-.9-.08-1.36-.05-.87-.07-1.32,0-.78,0-1.18v-.07c0-.24,0-.47,0-.7a2.35,2.35,0,0,0,0-.27c0-.19,0-.38,0-.57,0-.37,0-.75,0-1.14,0-1,0-2,0-2.94v-.48a1.55,1.55,0,0,1,0-.21v0a1.41,1.41,0,0,1,0-.2l0-.3v0c0-.09,0-.17,0-.27s0-.2,0-.31l0-.14c0-.15.06-.31.09-.47s.05-.2.08-.3l.09-.33c0-.06,0-.12.07-.19l0-.13a2.6,2.6,0,0,1,.1-.25,1.86,1.86,0,0,1,.1-.25c0-.06.05-.11.07-.17s.11-.22.17-.33a2.68,2.68,0,0,1,.18-.33l0-.07.16-.26a1,1,0,0,0,.08-.11l0-.05.24-.32h0l.05-.07c.07-.07.14-.16.21-.24h0l.29-.28v0L20,25.2l.11-.1,0,0L20.2,25c.07,0,.14-.1.21-.15l.39-.25.37-.21.11-.05.12-.06.17-.08.1,0,.28-.11.21-.08.31-.1.44-.11.09,0,.09,0,.13,0,.39-.07.2,0,.21,0h0l.22,0h.18c.14,0,.29,0,.44,0a16.53,16.53,0,0,1,3.47.29h.21l.26,0,.29,0h.07l.42.06,1,.14h0l.62.1.43.07.34,0,.27,0,.08,0,.45.06.48.08.18,0,.1,0,.1,0,.1,0h0l.3.05.84.14.45.08.95.17.09,0,.64.12.48.09.06,0,.24,0,.54.1.53.11.16,0,.33.06,2.88.61,1.27.28,3.46.82,1.19.3,1.37.36c1,.27,2.09.56,3.16.86L53,29l.81.23.11,0,1.85.56.16.05.47.15,2.65.84,2,.68,1,.36,1,.35.35.13,1.68.63,1.73.68.31.11.41.18,1,.38,1.35.57,1.36.59h.07l0,0,.06,0,.16.07.11.06.27.15.15.09.17.1.17.12.18.12.06,0,.26.2a2.47,2.47,0,0,1,.27.21l.21.17.21.19.22.2.22.22.16.16.31.35c.07.09.16.18.24.29s.22.28.34.44a10.29,10.29,0,0,0,.33.48l.14.23.15.23,0,.09,0,.08,0,.09c0,.08.09.16.13.25a.83.83,0,0,1,.07.13l.19.39a.54.54,0,0,0,0,.11c.07.15.13.31.19.46s.15.38.21.57h0c0,.16.11.31.15.48l0,0h0c0,.15.09.3.13.45s0,0,0,0l0,.14,0,.14h0a0,0,0,0,1,0,0v0h0c0,.17.08.35.11.53h0c0,.22.08.44.11.66l.09.83c0,.24,0,.48,0,.73h0c0,.26,0,.52,0,.8,0,.58,0,1.18-.09,1.81v.09c0,.06,0,.19,0,.35s0,.12,0,.19,0,.29,0,.47,0,.37-.06.59-.08.75-.13,1.2c0,.2-.05.42-.08.64v.11l-.06.46A2.17,2.17,0,0,0,77,53c-.11.84-.24,1.79-.4,2.81l-.12.75c0,.33-.11.66-.17,1l-.09.52-.09.52c-.07.41-.15.82-.23,1.24s-.22,1.12-.35,1.7c-.08.39-.16.79-.25,1.19l-.15.66c-.06.24-.11.49-.18.73s-.11.5-.18.75a.07.07,0,0,1,0,0l-.18.7c-.14.58-.3,1.16-.46,1.75-.09.31-.17.62-.27.93s-.19.63-.28.95l-.15.48c0,.16-.1.31-.15.48l-.3.94C72.84,71.44,72.73,71.76,72.62,72.08Z"/>
        <path class="cls-8" d="M76.09,83.06c-.74,1.15-1.52,2.28-2.34,3.38a21.32,21.32,0,0,1-10.36,7.79,26.68,26.68,0,0,1-7.57.65l0-.1a22.73,22.73,0,0,0,7.6-5.58h0c.38-.42.74-.84,1.1-1.29a67.28,67.28,0,0,0,8.28-13.62Z"/>
      </g>
    </g>
  </g>
</svg>
