<svg id="Layer_1" data-name="Layer 1" xmlns="http://www.w3.org/2000/svg" width="237.28" height="373.87" viewBox="0 0 237.28 373.87">
  <defs>
    <style>
      .cls-1, .cls-14, .cls-46 {
        fill: none;
      }

      .cls-1 {
        stroke: #ff0;
        stroke-linejoin: round;
        stroke-width: 7px;
      }

      .cls-2, .cls-4 {
        fill: #fbd3c7;
      }

      .cls-12, .cls-14, .cls-15, .cls-2, .cls-4, .cls-46, .cls-8 {
        stroke: #453323;
      }

      .cls-10, .cls-12, .cls-13, .cls-14, .cls-15, .cls-16, .cls-17, .cls-19, .cls-2, .cls-26, .cls-27, .cls-4, .cls-46, .cls-8, .cls-9 {
        stroke-miterlimit: 10;
      }

      .cls-12, .cls-14, .cls-15, .cls-16, .cls-17, .cls-2, .cls-8 {
        stroke-width: 0.5px;
      }

      .cls-3 {
        fill: #e4a68d;
      }

      .cls-5 {
        fill: #161616;
      }

      .cls-6 {
        fill: #303030;
      }

      .cls-7 {
        fill: #f8e1db;
      }

      .cls-8 {
        fill: #bcd0eb;
      }

      .cls-17, .cls-9 {
        fill: #3096d2;
        stroke: #2c3581;
      }

      .cls-10 {
        fill: #864a30;
        stroke: #68321e;
      }

      .cls-11, .cls-12 {
        fill: #f6e982;
      }

      .cls-13 {
        fill: #2455a3;
        stroke: #2d2b7a;
      }

      .cls-15 {
        fill: #7595cc;
      }

      .cls-16 {
        fill: #d6e5f5;
        stroke: #395a72;
      }

      .cls-18 {
        fill: #2c3581;
      }

      .cls-19 {
        fill: #d95c78;
        stroke: #8d2338;
      }

      .cls-20, .cls-26 {
        fill: #d6ebf4;
      }

      .cls-21 {
        fill: #98784d;
      }

      .cls-22 {
        fill: #ba7e70;
      }

      .cls-23 {
        fill: #dee8ee;
      }

      .cls-24 {
        fill: #580d0d;
      }

      .cls-25 {
        fill: #a04c43;
      }

      .cls-26 {
        stroke: #98784d;
      }

      .cls-27 {
        fill: #3f1d1d;
        stroke: #221f1f;
      }

      .cls-28 {
        fill: #431b15;
      }

      .cls-29 {
        fill: #c48a74;
      }

      .cls-30 {
        fill: #451e15;
      }

      .cls-31 {
        fill: #7a4922;
      }

      .cls-32 {
        fill: #841212;
      }

      .cls-33 {
        fill: #590c02;
      }

      .cls-34 {
        fill: #d9d9d9;
      }

      .cls-35 {
        fill: #f5f5f5;
      }

      .cls-36 {
        fill: #881313;
      }

      .cls-37 {
        fill: #bd1622;
      }

      .cls-38 {
        fill: #cd1625;
      }

      .cls-39 {
        fill: #005087;
      }

      .cls-40 {
        fill: #b1b1b1;
      }

      .cls-41 {
        fill: #630e05;
      }

      .cls-42 {
        fill: #9c1519;
      }

      .cls-43 {
        fill: #c6c6c5;
      }

      .cls-44 {
        fill: #d04240;
      }

      .cls-45 {
        fill: #ececec;
      }
    </style>
  </defs>
  <g>
    <path class="cls-1" d="M219,90a11.83,11.83,0,0,0-1.47-10.46c-.17-.25-.36-.49-.55-.72h0l-.08-.1a11.78,11.78,0,0,0-8.47-4.28C198.23,60.25,189.51,50.27,188,51.32a.12.12,0,0,0,0,.09c0,.28-.06.58-.1.88,0,.12,0,.24-.05.36s-.07.48-.11.72-.05.3-.07.45-.1.53-.15.81c0,.13-.05.27-.07.41-.08.39-.17.8-.26,1.21,0,.17-.08.35-.12.52s-.13.59-.21.9-.08.35-.13.52c-.1.39-.2.79-.31,1.2l-.08.26c-.31,1.11-.66,2.27-1.06,3.48l-.06.18c-.12.35-.24.7-.37,1.06l-.09.26c-.38,1.06-.8,2.15-1.25,3.27-.07.16-.14.32-.2.48l-.39.91-.29.65c-.12.28-.25.56-.38.85l-.34.74c-.2.43-.41.86-.62,1.3s-.3.61-.46.92l-.39.75-.46.87-.4.74-.57,1c-.11.21-.23.41-.35.62l-.92,1.55-.36.57-.69,1.09c-.14.21-.28.42-.41.63l-.12.17-.63.94-.39.56L174,84.86l-.22.29-1,1.36-.44.56-.92,1.13-.46.55c-.38.45-.78.91-1.18,1.36l-.22.26c-.49.54-1,1.08-1.49,1.61l-.44.45c-.37.39-.75.77-1.13,1.15l-.52.52-.21.2-1,1-.43.4-.34.31c-.46.41-.91.82-1.38,1.22l-.38.31c-.47.4-1,.8-1.44,1.19l-.48.39c-.62-5.75-2.81-10.83-5.91-12.79a4.47,4.47,0,0,0-3.45-.89L149.45,74c11.21-12.58-2.1-18.76-2.1-18.76,9.9-14.69-6-18.67-6-18.67C141.88,21,122.4,17,122.4,17,104.55-.79,87.15,10.26,87.15,10.26,63.56-4.16,44.07,19.4,44.07,19.4c-17,3.62-18,28-18,28-26.37,12.42-12,32.48-12,32.48C7.89,99,25,108.64,25,108.64c4.81,18.53,20.46,17.08,20.46,17.08l.36.44c-14-2.59-8.86,12.2-3,20.09,6.76,9.12,15.36,8.9,19.07,2.82l-.16-.3c7.49,9.64,19.52,15.29,32.34,17.45l-3.87,5.89c.19.66.39,1.31.61,1.94a7.15,7.15,0,0,0-.84.5l.29-2.24S60,190,55.41,197.37c0,0,1,.8,2.81,2l-8.34,5.4c-.52.32-1.05.67-1.6,1l-.53.34v0c-5,3.48-11.38,9.12-18.94,18.3l-8.4,10.17c-.09.09-.27.31-.57.65a25,25,0,0,0-2.37,3.7,19.74,19.74,0,0,1-3.89,4.07c-2.37,2.07-3.26,5.09-4.71,7.79-.6,1.11-3.86,5.06-1.59,6.42.27.16-1.07-2.94-.79-2.9,0,0,.82,2.89.79,2.9a1.43,1.43,0,0,0,1.52-.09,8.68,8.68,0,0,0,1.28-1.06l.25-.25.31-.33a19.87,19.87,0,0,1-.36,2,15.92,15.92,0,0,0-.66,3A1.22,1.22,0,0,0,11,262.06c.16.08.42,0,.79-.25h0l0,0h0a5.71,5.71,0,0,0,1.19-.94c-.5,1.06-2,4.63.05,4.79,2.62.21,4.58-3.34,5.54-5.27.81-1.65,1.44-3.38,2.26-5,.5-1,1.28-1.84,1.7-2.84a20.39,20.39,0,0,1-.24,5,36.21,36.21,0,0,1-1,3.95c-.45,1.59-1.66,4.78-.26,6.2.66.67,1.77.17,2.43-.2,1.64-.94,2.53-3.13,3.19-4.79,1.4-3.55,1.88-8.09,4.29-11.2.9.79,1.52,2.12,2.31,2.95a8.75,8.75,0,0,0,3.58,2.37c2.12.72,4.73-1.13,4.22-3.48-.79-3.62-5.81-4-7.1-7.38a11.93,11.93,0,0,0-.92-2.39c-.35-.53-1.52-1-1.48-2.26,6.37-2.89,19-9.41,28.05-18.86h0l12.59-7.54,7.41-4.53c1.15.37,2.31.69,3.47,1l-8.56,34.12a19.05,19.05,0,0,0,3.3,4.55L77,257h0a177,177,0,0,0-4.74,22.48c-3.5,22.3-4.55,22.71-4.55,22.71a4.93,4.93,0,0,0,.48,1.54l-1.41,4.65-2.17,7.2-.15.47a.74.74,0,0,0-.88.49l-1.26,3.84a.77.77,0,0,0,.25.84l.27.21-2.94,9.75a.34.34,0,0,0-.41-.44c-6.46,1.73-3.75,9.52-3.75,9.52A4.83,4.83,0,0,1,55,343a3.52,3.52,0,0,0-2,1.15c-.07.2.22.24.77.26a12,12,0,0,0-.88,1l-.09.07a3.74,3.74,0,0,0-2.14,1.2c0,.1,0,.17.19.2l-.28.17-6.95,3.65a8.33,8.33,0,0,0-4.3,5.29,6.61,6.61,0,0,0-.19,1.26c-1.52,3.13-2.36,8.58,8.35,10.77,15.41,3.15,22-3.74,22.42-5.84A5.2,5.2,0,0,1,72.37,359c3.74-.11,4.94-1.45,4.94-1.45l-.08-2a4.24,4.24,0,0,0,1-1.07l-.47-13s.19,5.62.21,5.6-.1-5.7-.07-5.73c.23-.2-.2,4.88,0,4.68l.67-5.27h0c.17-.16-.92.8-.76.67.82-.73,2.66-2.83,2.76-3.92a2.85,2.85,0,0,0-2.48-3.13,5.3,5.3,0,0,1-.32.63c1-2.44,2.15-5.55,3.35-8.85h.07a.77.77,0,0,0,.7-.49c.45-1.19.92-2.39,1.38-3.6a.76.76,0,0,0-.37-.94,1.46,1.46,0,0,0,.07-.19c.79-2.26,1.58-4.5,2.28-6.57.4-1.15.77-2.24,1.12-3.26,15.19,1.28,16.6-4.93,16.6-4.93l3-16.29.77.12c-.12,3.61-1.65,15.82-1.65,15.82a2.68,2.68,0,0,0,.93,1.75l-.11,3.25-.11,2.92-.17,4.75a.71.71,0,0,0-.59.61l-.49,3.8a.71.71,0,0,0,.4.73l.49.23-.22,6.11V330s-6.62-.8-5.51,4.69l1.21,5.22c.11.31-1.17-4.82-1-4.51a2.17,2.17,0,0,1,.07.24,7.5,7.5,0,0,1,.71,5.72,10.56,10.56,0,0,0-.44,2.7v0c-.15.41-.29.82-.41,1.25a9.79,9.79,0,0,0,.73,6.43A172.45,172.45,0,0,0,117.65,357c6.54,1.4,27.22,3,31.3-2.45a6.43,6.43,0,0,0,.09-4.73h0c0-1.91-1.35-6.47-12.65-9.3l-.14,0a.22.22,0,0,0,0-.23,2.38,2.38,0,0,0-1.89-.21l-.25-.05-.68-.14-.68-.13-.73-.12a.31.31,0,0,0,0-.44c-.28-.33-1.09-.66-2.36-.07l-.41-.11h-.06a6,6,0,0,1-1.78-.75,1,1,0,0,1-.25-.24,1.17,1.17,0,0,1-.08-.79c0-.22.09-.47.15-.74h0c.34-1.61.76-3.91-3.13-5.22-.45-.15.81,2.67-.72,5.21.31-3.27.7-7.62,1.09-12l.4-.15a.76.76,0,0,0,.26-.18,5.76,5.76,0,0,0,1.16-4.42.71.71,0,0,0-1.1-.53l-.26.16c0-.26.05-.53.08-.8.12-1.31.23-2.57.32-3.77s.19-2.14.28-3.09c10.27-1.19,15-7.46,15-7.46s3.68-39.41,4.2-42.57a7.75,7.75,0,0,0-1.4-5.1V250.2a30.15,30.15,0,0,0,5.43-6.68l-5.6-31.47-.54-14.65.09.15,24.8-1.81a34.28,34.28,0,0,0,3-10.61c11.2-4.77,21.12-11.82,25.9-25.17a85.73,85.73,0,0,0,9.81-14.24c.08-.12.16-.24.23-.36a8.49,8.49,0,0,0,2-2.66,3.79,3.79,0,0,0,.07-1.65c0-.11-.23-.63-.23-.63l.2.49a2,2,0,0,0-.64-1,2.65,2.65,0,0,0-2.34-1.38,2.1,2.1,0,0,0-.73-1.64c-1-2.19-5.55-1.93-6.69-1.83a4.42,4.42,0,0,0-.76-1.15c-1.94-3.28-7.24-2.58-8.45-2.36a8.9,8.9,0,0,0-1.58-3.36c-.89-1.6-2.23-1.88-6.41-.64a9.24,9.24,0,0,0-2.24,1l-.37-.37a5.21,5.21,0,0,0,.16-6.13l-.26-.39h0l-.05-.07.22-.12.55-.31,2-1,.72-.35,1.32-.62.84-.39,1.24-.54.8-.34,1.48-.58.35-.14.82-.31,1.24-.44.92-.32,1.06-.34,1-.31,1-.29c.63-.18,1.25-.35,1.88-.51l.8-.21,1.13-.27.74-.17,1.17-.26.67-.13c.7-.14,1.39-.27,2.07-.38h0l2-.32.33-.05,1.36-.17.26,0c.67-.08,1.33-.16,2-.22h0c.67-.06,1.33-.12,2-.16h0c2-.14,3.88-.19,5.68-.19h0l1.75,0h0l1.63.06h.08q.76,0,1.5.09H221l1.35.11h.06c1.33.12,2.56.28,3.7.45h.06l1,.17.11,0,.93.17.12,0h.06l.79.17.31.07.16,0c.58.36,1,.48,1.25.32C232.3,112.86,227.21,102.9,219,90Zm-49,32.24-9.51-13.85h0L170,122.24Zm-41.44,41.51c.55-.19,1.09-.37,1.63-.57l.18-.08a5.79,5.79,0,0,0-1.44,1.05ZM53.6,134c.09,0,.14-.15.15-.32.61,1.25,1.21,2.56,1.83,3.92Zm51.5,198.23,0,1.45c0,.33,0,.66,0,1A4.36,4.36,0,0,1,105.1,332.24ZM134,162.5a6.16,6.16,0,0,0-2.62.16c10.64-4.55,20.65-15.55,24.72-28.48a15.19,15.19,0,0,0,2.65-.54l.67-.22h0l.56-.23.7,1a5.2,5.2,0,0,0,6,2c1.45,1.36,3.08,2.87,4.81,4.42-1,1.17-1.44,3-.5,6.29A19.19,19.19,0,0,0,179.76,158c-3.76,2.74-8.5,6.25-13.18,9.62C162.85,167,146,164.34,134,162.5Z"/>
    <g>
      <path class="cls-2" d="M94.55,160.49s.55,2.93,1.41,6.66c1.28,5.55,3.26,12.89,5.12,14.88,3.12,3.33,22.25,2.9,25.62-3.67,1.88-3.66,1.66-8.4,1.12-11.88a32.72,32.72,0,0,0-1.12-4.76,24.5,24.5,0,0,0-3-5.21c-5.58-7.27-13-6.13-19-3.24A41.85,41.85,0,0,0,94.55,160.49Z"/>
      <path class="cls-3" d="M94.55,160.49s.55,2.93,1.41,6.66c15.21,7.63,26.35,3,31.86-.67a32.72,32.72,0,0,0-1.12-4.76,24.5,24.5,0,0,0-3-5.21,47.9,47.9,0,0,0-5.49-1.53c-2.7-.52-8.29-1.16-13.48-1.71A41.85,41.85,0,0,0,94.55,160.49Z"/>
      <g>
        <path class="cls-4" d="M146.49,193.3c19.24-6.24,43-10.67,50.75-34.7l-9.85-5.67c-1.58.22-30.39,22.81-37.58,25.86"/>
        <g>
          <g>
            <g>
              <path class="cls-2" d="M62,200.7s-11.68-1.94-32.87,23.79L20.26,235.2,27.9,243S56,232.25,66.37,213.91,62,200.7,62,200.7Z"/>
              <polyline class="cls-2" points="48.03 206.17 63 196.48 69.38 192.35 84.19 207.75 72.52 214.89 59.93 222.43"/>
            </g>
            <g>
              <path class="cls-2" d="M20.45,235.18h0c.51-.79.51-.79-.29.14a24.23,24.23,0,0,0-2.37,3.7,20,20,0,0,1-3.89,4.07c-2.37,2.07-3.26,5.09-4.72,7.79C8.57,252,4.6,255.62,6.86,257c1.47.88,3.07-.2,4.08-1.45a20.45,20.45,0,0,1-.36,2,16.75,16.75,0,0,0-.67,3c-.07,1.38,1.1,1.77,2.14,1.2a5.91,5.91,0,0,0,1.25-1c-.5,1.06-2,4.63,0,4.79,2.62.21,4.58-3.34,5.53-5.27.82-1.65,1.44-3.38,2.26-5,.51-1,1.29-1.84,1.71-2.84a20.39,20.39,0,0,1-.24,5,36.21,36.21,0,0,1-1,3.95c-.45,1.59-1.66,4.78-.27,6.2.67.67,1.78.17,2.43-.2,1.65-.94,2.54-3.13,3.2-4.79,1.4-3.55,1.87-8.09,4.29-11.2.9.79,1.52,2.12,2.3,2.95a8.82,8.82,0,0,0,3.58,2.37c2.13.72,4.74-1.13,4.23-3.48-.79-3.62-5.81-4-7.1-7.38a11.93,11.93,0,0,0-.92-2.39c-.43-.66-2.11-1.28-1.23-3.22"/>
              <path class="cls-5" d="M15.39,255.15a24.42,24.42,0,0,1-2.23,4.75,7.33,7.33,0,0,1-.67,1c-.36.62-.87,1.15-1.4,1,.14.26.46.31,1-.12a8.57,8.57,0,0,0,2.13-2.16c.5-1.35,1.12-3.06,1.56-4.41.56-1.78,1.36-3.59.93-5.47A54.59,54.59,0,0,1,15.39,255.15Z"/>
              <path class="cls-6" d="M11.26,255.21c.06-.36.16-.71.26-1.09.87-2.84,2.43-5.22,3.85-7.8-1.4,1.28-2.28,3.38-3.16,4.93-.4,1-.66,1.38-1.12,2.33-.1.19-.35.95-.48,1.18A4.35,4.35,0,0,1,8.42,257a2.22,2.22,0,0,1-.84.33,1.43,1.43,0,0,0,1.52-.09,12.07,12.07,0,0,0,2.14-2Z"/>
            </g>
          </g>
          <path class="cls-2" d="M60.15,344.64c6.17,4.39,13.21,1.09,16.89-7.23,1.14-2.58,2.71-6.72,4.34-11.22.18-.5.36-1,.55-1.52.42-1.23.86-2.46,1.3-3.68.79-2.26,1.57-4.5,2.28-6.57,1.94-5.66,3.38-10,3.38-10L69.1,301.74l-2,6.65-2.18,7.2-1.45,4.81-.15.48-3.12,10.36S54,340.24,60.15,344.64Z"/>
          <path class="cls-7" d="M60.7,344.64c5.9,4.39,12.62,1.09,16.14-7.23,1.09-2.58,2.59-6.72,4.14-11.22.17-.5.34-1,.52-1.52-3.61-.38-12.3-1.93-17.63-4.27l-.15.48-3,10.36S54.79,340.24,60.7,344.64Z"/>
          <path class="cls-2" d="M105.33,333.69c.41,7.2.61,12.13.7,15.35.28-3.47,1.08-7.56,3-8.42,6.94-3.05,13.69,4.84,14.56-4.22.44-4.75,1.07-11.79,1.62-17.95.12-1.31.23-2.57.33-3.77l.8-9.09-20-1.16-.22,6.45L106,313.8Z"/>
          <path class="cls-3" d="M106.44,310.88c6.54,4.41,13.94,4.44,18.8,3.8.44-5.22.77-9.09.77-9.09l-19.35-1.16Z"/>
          <path class="cls-3" d="M67.55,308.39c4.88,6,13.21,6.37,17.81,6,1.88-5.66,3.27-10,3.27-10L69.5,301.74Z"/>
          <path class="cls-7" d="M105.84,333.23c.39,7,.58,11.85.67,15,.28-3.39.87-8.43,2.92-8.23,6.24.62,13.16,4.73,14-4.12.43-4.64,1-11.52,1.56-17.54.4,3.48-4.55,5.19-4.85,4.88,0,0-9.55-.91-13.4-3.76Z"/>
          <path class="cls-8" d="M61.48,344.63s5.6,2.5,10.16-.72,5.55-.67,5.49.72l.46,13s-1.19,1.34-4.93,1.45a5.16,5.16,0,0,0-2.42,3.14c-.47,2.1-7,9-22.43,5.84s-6.89-13.08-6.89-13.08L50,350.15s5.2-9.75,8.59-7.12C61,344.91,61.48,344.63,61.48,344.63Z"/>
          <path class="cls-9" d="M107.43,289.06l1.4-29.6L142.7,247.2v7.88s2.92,3.33,2.39,6.48-4.2,42.57-4.2,42.57-6.66,8.76-21.2,7.53-14.36-5.78-14.36-5.78,2.1-16.82,1.57-16.82"/>
          <path class="cls-9" d="M114.26,287.49c-.87.17-2.8,3.5-8.06,2.45l-3,16.29s-1.93,8.58-25.93,3.5c0,0-8.58-2.45-9.28-7.53,0,0,1-.41,4.55-22.71s6.85-28.24,6.85-28.24l34.84,7.16"/>
          <path class="cls-10" d="M143.69,247.2V257s-8.94,12.26-31.71,11.21S77.3,257,77.3,257l1.18-9.81Z"/>
          <path class="cls-11" d="M96.39,173.11h37a0,0,0,0,1,0,0v28.35a0,0,0,0,1,0,0H86.63a0,0,0,0,1,0,0v-18.6A9.76,9.76,0,0,1,96.39,173.11Z"/>
          <path class="cls-12" d="M134.32,162.5c13.55,2.08,33.31,5.2,33.31,5.2s7.58,12.1.23,28l-24.8,1.81-14.93-26A6.08,6.08,0,0,1,134.32,162.5Z"/>
          <path class="cls-12" d="M90.52,172.31S60.25,190,55.69,197.37c0,0,15.21,11.73,29.81,14.41"/>
          <path class="cls-12" d="M142.15,175l1.36,37.08,5.61,31.47s-9.11,17-33.63,18c0,0-32.25.35-40.65-16.11L87.24,196"/>
          <path class="cls-13" d="M101.83,224.66c.18.51.35,1,.53,1.52h0c5.68,15.56,15,23.34,15,23.34a84.36,84.36,0,0,0,7.34-9.9c1-1.69,1.84-3.16,2.46-4.43a19.39,19.39,0,0,0,2-5.64c-.1-1.93-.24-3.8-.41-5.6s-.33-3.29-.53-4.85a116.59,116.59,0,0,0-2.12-11.84c-.41-1.75-.84-3.38-1.27-4.89C122,192.69,119,188,119.11,187.3c.35-2-8.29-1.29-8.29-1.29a65.42,65.42,0,0,1-1.27,10c-.22,1.12-.46,2.26-.7,3.42-.73,3.31-1.57,6.69-2.43,9.85-.3,1.1-.6,2.19-.89,3.23-1.08,3.84-2.1,7.17-2.8,9.37C102.18,223.62,101.83,224.66,101.83,224.66Z"/>
          <path class="cls-14" d="M62.26,215.37a25.05,25.05,0,0,0-11.59-1.7"/>
          <g>
            <path class="cls-8" d="M124.19,336.4c-.57-.19.41,4.46-2,6.56s-14.71-.47-18-6.07v-3.16s-4.83-.94-1.56,5.72a28.73,28.73,0,0,0-2.56,5.84,9.86,9.86,0,0,0,.73,6.43A173,173,0,0,0,117.94,357c6.54,1.4,27.21,3,31.3-2.45,0,0,4.58-9.23-14-12.61,0,0-7.15.93-7.85-.12S129.7,338.26,124.19,336.4Z"/>
            <path class="cls-15" d="M100.19,335.6a7.47,7.47,0,0,1,.7,5.72,11,11,0,0,0-.43,2.7v0a13.43,13.43,0,0,0,.05,2,2.7,2.7,0,0,0,1.78,2.32,158.59,158.59,0,0,0,15.65,4.7c6.54,1.41,27.22,3,31.3-2.45a3.09,3.09,0,0,0,.09-.87h0c0-1.91-1.35-6.47-12.65-9.3-.47-.12-1-.24-1.46-.35l-.85-.18-.68-.14-.68-.13-.94-.15-.71-.13c-.59-.12-1.25-.27-1.88-.46h-.06a6,6,0,0,1-1.77-.75,1,1,0,0,1-.25-.24,1.17,1.17,0,0,1-.08-.79c.22-1.55,1.57-4.44-3-6-.56-.19,1.54,4.25-2.43,7-6.1,4.22-12.52,1.31-16.14-2.88-1.07-1.25-.31-2.37-.31-4V330S98.09,329.06,100.19,335.6Z"/>
            <path class="cls-14" d="M99.74,334.43a13.18,13.18,0,0,0,1.47,2.9,8.76,8.76,0,0,0,4.25,3.48"/>
            <path class="cls-14" d="M127.46,336.4a10.29,10.29,0,0,1-4.16,5.84"/>
          </g>
          <path class="cls-15" d="M62.35,341.52S68,344,72.51,340.81s5.84-6.38,5.84-6.38a2.84,2.84,0,0,1,2.47,3.13,4.25,4.25,0,0,1-1.49,2.8c-.41.36-.88.78-1.33,1.16l.47,13s-1.29,2.38-5,2.49a2.5,2.5,0,0,0-2.34,2.1c-.47,2.11-7,9-22.42,5.84-8.81-1.8-9.8-5.81-9-8.92A8.33,8.33,0,0,1,44,350.7l6.95-3.65s5.37-2.92,5.14-6.78c0,0-2.71-7.79,3.75-9.52a.34.34,0,0,1,.39.49c-1,1.76-3.44,6.56-.7,8.68C61.92,341.81,62.35,341.52,62.35,341.52Z"/>
          <path class="cls-16" d="M53.34,344.17c-.21.56,2.4-.15,5.68,1s6.44,3,6.65,2.43-2.67-3.32-6-4.5S53.54,343.6,53.34,344.17Z"/>
          <path class="cls-16" d="M126.57,344.55c.4.45,1-.9,3.22-2.81s2.86-2.17,2.47-2.62-1.76-.91-3.94,1S126.18,344.1,126.57,344.55Z"/>
          <path class="cls-16" d="M130,345.93c.39.44,1-.9,3.21-2.82s3.71-2.45,3.32-2.9-2.61-.62-4.79,1.29S129.58,345.48,130,345.93Z"/>
          <path class="cls-16" d="M51,346.68c-.2.56,2.41-.15,5.69,1s6.44,3,6.64,2.43-2.66-3.32-5.95-4.5S51.2,346.11,51,346.68Z"/>
          <path class="cls-14" d="M78.82,340.81c0-.17-.63.56-.76.67-1,.83-1.87,1.8-2.93,2.55a8.55,8.55,0,0,1-5.42,1.49"/>
          <path class="cls-14" d="M55.81,339a3.48,3.48,0,0,0,1,2,7.23,7.23,0,0,0,1.85,1.29"/>
          <path class="cls-12" d="M62.88,321.23c2.46,2,8.09,5.22,18.56,5a.79.79,0,0,0,.71-.49l1.37-3.6a.76.76,0,0,0-.76-1A29,29,0,0,1,65,316.16a.76.76,0,0,0-1.15.39l-1.25,3.84A.77.77,0,0,0,62.88,321.23Z"/>
          <path class="cls-12" d="M126.53,319.62a.71.71,0,0,0-1.1-.53c-1.74,1.17-6.12,3.06-14.93,1.31a10.76,10.76,0,0,1-4.09-1.71.71.71,0,0,0-1.13.47l-.49,3.8a.71.71,0,0,0,.39.73,24.67,24.67,0,0,0,19.93.53.72.72,0,0,0,.25-.18C125.72,323.66,126.71,322.33,126.53,319.62Z"/>
          <path class="cls-17" d="M101.19,260.58h0c-.11.28-.39,6.3-.41,6.62,0,0,0,0,0,0l2.78.63s0,0,0,0l.45-6.88A19.93,19.93,0,0,0,101.19,260.58Z"/>
          <path class="cls-17" d="M125.38,260.31c-.34,0-2.42.55-2.42.55s0,7.32,0,7.32l3.1-.57Z"/>
          <path class="cls-7" d="M108.85,199.41a60.21,60.21,0,0,1,16.74,7.81c-.4-1.75-.9-3.56-1.33-5.07A69.84,69.84,0,0,0,109.55,196C109.33,197.11,109.09,198.25,108.85,199.41Z"/>
          <path class="cls-7" d="M106,212.76c6.22,2.44,16.5,6.86,22.29,11.2-.14-1.67-.36-3.61-.55-5.17a88.78,88.78,0,0,0-20.83-9.39C106.57,210.5,106.26,211.72,106,212.76Z"/>
          <path class="cls-7" d="M102.34,224.66c.18.52.35,1.15.54,1.65h0c6.11,2.73,15.59,7.38,21.46,13a47.48,47.48,0,0,0,2.41-4.38A127.28,127.28,0,0,0,103.15,222C102.6,223.75,102.34,224.66,102.34,224.66Z"/>
          <path class="cls-18" d="M119.62,271a37.54,37.54,0,0,1-1.88,15.45c.13-2.62.46-5.18.75-7.75S119.12,273.6,119.62,271Z"/>
          <path class="cls-18" d="M86.76,264.7a11.58,11.58,0,0,1-1.16.17l.15-.12a10.86,10.86,0,0,1-3.35,6.38,10.48,10.48,0,0,1-6.51,3,16.75,16.75,0,0,0,5.83-3.69,16,16,0,0,0,3.73-5.74l0-.13h.1C86,264.6,86.37,264.64,86.76,264.7Z"/>
          <path class="cls-13" d="M121.09,179.23c-1-.36-4.43-2.8-11.44-.46s1.75,9.92,1.75,9.92h7.71S129.38,182.27,121.09,179.23Z"/>
          <path class="cls-12" d="M126.7,161.72c.82.58,6.07,5.68,6.42,8.85s-2.22,20.22-2.22,20.22l-14-12.72s6.89-5.49,9.58-11.33Z"/>
          <path class="cls-12" d="M113.15,177.71c.66.24-10.27,13.6-10.27,13.6a41.46,41.46,0,0,1-12.41-19.2l5.75-8.76S100.35,173.22,113.15,177.71Z"/>
          <g>
            <g>
              <g>
                <path class="cls-19" d="M57.52,81.19S44.38,28.74,64.21,31.48c7.93,1.1,12.47,8.45,14.07,12.6,3.43,8.89-10,14.22-13.49,5.37a20.93,20.93,0,0,1-1.27-5c-2.07-15.27-7,1.67-4.63,34.13Z"/>
                <g>
                  <path class="cls-2" d="M147.8,92.81s.14-10.7,6.76-6.5,9.1,22.66,1,31.37S147.8,92.81,147.8,92.81Z"/>
                  <path class="cls-3" d="M148.83,96.3s.2-7.36,4.69-4.54,6,15.5.35,21.58S148.83,96.3,148.83,96.3Z"/>
                </g>
                <path class="cls-2" d="M136.42,53.41c14.91,32.09,14.83,32.37,21.11,61,4.61,21-10.75,42.65-27.09,48.82-24,9-62.07,3.54-73.16-22.37-8.27-19.3-15.75-27.87-19.9-34.72C24.26,84.46,34.32,31.4,64.71,21.32,93.13,11.89,120,18.05,136.42,53.41Z"/>
                <g>
                  <g>
                    <path class="cls-20" d="M85.71,98.55c-5.27,2.29-7.11,9.79-4.13,16.73s8.73,9.46,14,7.17,8-8.52,5-15.47S91,96.26,85.71,98.55Z"/>
                    <path class="cls-21" d="M85.73,98.6a8.39,8.39,0,0,0-3.49,2.89,11,11,0,0,0-1.71,4.22,16.12,16.12,0,0,0,1,9,14.12,14.12,0,0,0,5.52,7,8.83,8.83,0,0,0,8.5.37,9.93,9.93,0,0,0,5.4-6.61,13.34,13.34,0,0,0-1-8.66,16.45,16.45,0,0,0-2.32-3.83,14.33,14.33,0,0,0-3.28-3.08,10.64,10.64,0,0,0-4.16-1.71A8.27,8.27,0,0,0,85.73,98.6Zm0-.09a9.84,9.84,0,0,1,9,.86,15.88,15.88,0,0,1,6.21,6.94,16.26,16.26,0,0,1,1.39,4.54,12.19,12.19,0,0,1-.28,4.77,10.86,10.86,0,0,1-6,7.1,9.74,9.74,0,0,1-4.66.9,9.56,9.56,0,0,1-4.51-1.44,14.64,14.64,0,0,1-5.64-7.34,16.52,16.52,0,0,1-.8-9.17A9.82,9.82,0,0,1,85.69,98.51Z"/>
                  </g>
                  <path class="cls-22" d="M80.14,108.43c0-3.9,1.57-8,4.34-9.53,4.81-2.61,11.56.1,15,6.52,1.66,3.14,3.56,6.24,1.85,12.41,2.92-5.22.71-11.19-2.33-15.5S90.63,94.84,85.64,97C81.32,98.81,79.41,104.53,80.14,108.43Z"/>
                  <path class="cls-23" d="M93.71,108.93a1.72,1.72,0,0,0,1.86-1.68,1.93,1.93,0,0,0-1.65-2,1.72,1.72,0,0,0-1.86,1.68A1.93,1.93,0,0,0,93.71,108.93Z"/>
                </g>
                <g>
                  <path class="cls-24" d="M103.44,142.21c1.77,1.31,16.94,9.24,26.5,1.9,5.5-4.22,9.15-15.94,8-17.92a.54.54,0,0,0-.71-.25c-7,2.39-7.74,2.84-15.4,4.56-6.67,1.49-18,1.45-21.82,3.92C97.7,135.87,98,138.19,103.44,142.21Z"/>
                  <path class="cls-22" d="M100,134.42c4.25-.08,10.93-.39,19.46-1.4,13.52-1.61,17.54-5.69,18.47-6.83a.54.54,0,0,0-.71-.25c-7,2.39-7.74,2.84-15.4,4.56C115.13,132,103.83,132,100,134.42Z"/>
                </g>
                <path class="cls-25" d="M124,145.53a12.58,12.58,0,0,1-7-.34,8.2,8.2,0,0,1,4.34-4.33c3-1.28,7.48-2,9.69-.05C129.74,143,126.22,145,124,145.53Z"/>
                <path class="cls-20" d="M102.16,134.38a110.65,110.65,0,0,0,19.75-2.47c9.36-2.22,11.56-2.51,14.53-4.32,0,4.23-5.94,8.5-13.88,10.24C111.65,140.23,107.2,137.75,102.16,134.38Z"/>
                <g>
                  <path class="cls-26" d="M129.15,86.11c-5.26,2.3-7.11,9.79-4.13,16.73s8,9.64,13.29,7.35a11.65,11.65,0,0,0,5.77-15.65C141.09,87.59,134.41,83.82,129.15,86.11Z"/>
                  <path class="cls-22" d="M123.59,96c0-3.9,1.56-8,4.34-9.53,4.81-2.61,11.56.1,15,6.53,1.66,3.13,3.57,6.23,1.86,12.4,2.92-5.22.71-11.19-2.33-15.5s-8.34-7.49-13.33-5.36C124.77,86.37,122.85,92.09,123.59,96Z"/>
                </g>
                <g>
                  <path class="cls-2" d="M50.16,127.23c-19-6.28-13.43,10.44-7.07,19,6.76,9.12,15.36,8.9,19.07,2.82"/>
                  <path class="cls-3" d="M45.28,143c3.85,4.56,9.45,6.61,10.22,4.53,3.1-8.29-2.81-3.85-5.87-8.53-3.57-5.45-.72-9.51-6.58-8.12C39.8,131.68,40.76,137.66,45.28,143Z"/>
                </g>
                <path class="cls-3" d="M114.3,54.11c-3.47,4.89-7.9,9.33-13.3,11.81-10.56,4.87-18.51,4.76-29.85,1.83,7.08-3.11,16.43-9.51,18.75-14.06-6.67-2.42-12.89-.69-20,.17-.52.07-.52,1-.66,1.54-2.71,10.75-14.63,9.95-16.61,11,9.79,1.69,19.16,33.09-10.34,46-2.56,1.12-5.14-4.76-6.89-7a23,23,0,0,1-4.67-12.12,32.84,32.84,0,0,0-.57-5.79c-.53-2-1.67-3.71-2.13-5.68-.81-3.49.62-7,2.13-10.24C34,63.3,38.63,55.37,44.6,48.61S58,36.27,66.46,33.34c6.21-2.15,12.83-2.83,19.38-3.37,9-.75,18.12-1.25,26.82,1.22a80.73,80.73,0,0,1,10.63,4.11,22.34,22.34,0,0,1,6.18,3.55,20.65,20.65,0,0,1,3.3,4.13c8.38,12.73,16.1,31.09,18.64,46.15-5.54-9.06-12.83-25.82-18.37-34.89-1.12-1.83-13.55-8.89-14.86-7.82C117.5,47,115.26,52.76,114.3,54.11Z"/>
                <path class="cls-27" d="M112.93,42.2S118,66.43,72.56,67.33c0,0,40.34-24.7-7-15.32,0,0,5.22,6.89-19.17,14.08,0,0,26.63,9.77,1.09,41.68,0,0-3.11,2.73,1,13.69.37,1,1.46,3,3,6,8.19,15.74-5.72-1.75-5.72-1.75s-15.66,1.45-20.46-17.08c0,0-17.1-9.62-11-28.78,0,0-14.34-20.06,12-32.48,0,0,1-24.36,18-28,0,0,19.5-23.56,43.08-9.14,0,0,17.4-11,35.26,6.69,0,0,19.48,4,18.92,19.61,0,0,15.93,4,6,18.67,0,0,13.32,6.18,2.11,18.76l1.89,15.64L135.8,53.37S134.36,47.62,112.93,42.2Z"/>
                <path class="cls-28" d="M120.55,68.28h0c.61-1.83,5.67-2.15,7.54-1.65,2.84.76,6.08,2,8.72,8.09.23.53.33,1-.12.59-2.66-2.24-8.32-5.5-13.64-5A2.24,2.24,0,0,1,120.55,68.28Z"/>
                <path class="cls-28" d="M88.9,75.36h0c-1.18-1.52-6.06-.11-7.66,1-2.43,1.68-5.09,3.9-5.57,10.58,0,.57,0,1,.31.51,1.78-3,6-8,11.23-9.31A2.26,2.26,0,0,0,88.9,75.36Z"/>
                <path class="cls-29" d="M127.69,114.36a6.72,6.72,0,0,1,.43,5.28,6.13,6.13,0,0,1-1.58,2.42,7.42,7.42,0,0,1-2.46,1.48,9.41,9.41,0,0,1-5.46.38,5.33,5.33,0,0,1-3.93-3.49,6.48,6.48,0,0,0,4.21,2,11,11,0,0,0,4.48-.73,5.92,5.92,0,0,0,3.31-2.65A9.51,9.51,0,0,0,127.69,114.36Z"/>
              </g>
              <g>
                <circle class="cls-30" cx="89.6" cy="110.99" r="6.18"/>
                <circle class="cls-23" cx="92.06" cy="106.39" r="1.43"/>
              </g>
              <g>
                <circle class="cls-30" cx="131.95" cy="98.48" r="6.18"/>
                <circle class="cls-23" cx="134.41" cy="93.88" r="1.43"/>
              </g>
            </g>
            <path class="cls-31" d="M131.64,148.9a8.58,8.58,0,0,1-9.52,2,12.23,12.23,0,0,0,5,0A12.4,12.4,0,0,0,131.64,148.9Z"/>
          </g>
        </g>
        <g>
          <path class="cls-4" d="M176.89,143.25s-5.23-12.91,4.33-15.74c6.29-1.86,6.15-.31,7.73,4,0,0,7.82-1.7,9.21,3.49,0,0,8.08-1,7,3.44,0,0,4-.38,3,3.48s-10.3,17.84-13,19.3-11,.95-17-5.08-1.39-12.94-1.39-12.94"/>
          <g>
            <rect class="cls-32" x="180.97" y="129.2" width="5.49" height="9.66" rx="1.16" transform="translate(-40.27 173.34) rotate(-46.07)"/>
            <path class="cls-33" d="M183.89,131.82l-.35-.5.84-.46,3.88,3.75a1.15,1.15,0,0,1,0,1.63l-.59.62h0l-1.61,1.67a1.17,1.17,0,0,1-1.64,0l-.41-.4A5.81,5.81,0,0,0,183.89,131.82Z"/>
            <path class="cls-34" d="M161.51,130.85s22.53,22.34,28.12,22.36c0,0,5.75.36,9.87-5.84,0,0-22.59-19.55-25.84-24.7Z"/>
            <path class="cls-35" d="M196.8,149.92c-3.35-2.92-21.71-19-26.77-25.28l3.4-2.29c3.26,5.15,25.84,24.69,25.84,24.69A14.71,14.71,0,0,1,196.8,149.92Z"/>
            <path class="cls-32" d="M176.15,118.2l2.62,3.81a5.21,5.21,0,0,1-1.35,7.25l-9.14,6.28a5.22,5.22,0,0,1-7.26-1.35l-2.61-3.81Z"/>
            <path class="cls-33" d="M165.17,132.8,176,125.38a6.22,6.22,0,0,0,2.53-3.76l.26.39a5.21,5.21,0,0,1-1.35,7.25l-9.14,6.28a5.22,5.22,0,0,1-7.26-1.35l-.26-.38A6.17,6.17,0,0,0,165.17,132.8Z"/>
            <path class="cls-36" d="M146.48,109l15.92,23.19A14.08,14.08,0,0,1,146.48,109Z"/>
            <rect class="cls-37" x="153.37" y="103.04" width="12.08" height="28.15" transform="translate(-38.3 110.82) rotate(-34.48)"/>
            <path class="cls-34" d="M188.27,51.32c1,4.46,8.73,17.81,19.08,32.88s20,27,23.83,29.62c-8.89-2.46-35-4.89-58.82,11.49L156.42,102.1C180.28,85.71,187.38,60.49,188.27,51.32Z"/>
            <path class="cls-33" d="M206.58,84.73c11.85,17.26,22.87,30.28,24.6,29.09s-6.46-16.15-18.31-33.41S190,50.13,188.27,51.32C187.89,51.58,194.73,67.47,206.58,84.73Z"/>
            <path class="cls-37" d="M142.1,126.05s0,0,0,0c-.14-.32-.26-.63-.38-1a1.8,1.8,0,0,1-.08-.21c-.11-.31-.2-.62-.29-.93,0-.09-.05-.18-.07-.27-.07-.3-.14-.61-.2-.91,0-.1,0-.2,0-.3-.05-.3-.09-.61-.12-.91,0-.1,0-.19,0-.29,0-.31,0-.62,0-.93a1.93,1.93,0,0,1,0-.24,13.91,13.91,0,0,1,.36-3l.06-.29c.06-.23.14-.45.21-.68s.1-.35.16-.53.15-.4.23-.59.16-.39.25-.58.17-.37.26-.55.21-.4.32-.59.19-.33.29-.5.26-.4.4-.59l.32-.45c.16-.21.32-.4.49-.6l.33-.39c.2-.22.4-.42.62-.63s.19-.2.3-.3c.32-.29.66-.58,1-.85l4.33,6.3-2.92,2v0A15.77,15.77,0,0,0,142.1,126.05Z"/>
            <path class="cls-38" d="M160.74,108.39c-.57.42-1.16.84-1.76,1.25l-8.17,5.61-4.34-6.32,9.95-6.83h0Z"/>
            <path class="cls-35" d="M156.42,102.1h0c.67-.46,1.33-.93,2-1.41l.6-.44c.46-.35.91-.69,1.35-1l.61-.48c.49-.39,1-.79,1.44-1.19l.37-.31c.59-.5,1.16-1,1.72-1.52l.44-.41,1.23-1.17c.18-.17.36-.35.53-.53.39-.38.77-.76,1.14-1.15.15-.15.3-.3.44-.46l1.48-1.59.23-.27c.4-.45.79-.91,1.18-1.36l.45-.55.93-1.13c.14-.19.29-.37.44-.56l1-1.36.21-.29c.4-.54.79-1.08,1.16-1.62l.39-.56.75-1.1.41-.64c.24-.36.47-.73.7-1.09.12-.19.24-.38.35-.57.32-.52.63-1,.93-1.55l.35-.62.56-1,.4-.74.47-.87c.13-.25.26-.5.38-.75s.31-.62.46-.92.42-.87.62-1.3c.12-.24.24-.5.35-.74s.26-.59.4-.88l.27-.62c.13-.3.26-.61.38-.91s.14-.32.2-.48c.46-1.12.88-2.21,1.25-3.27,0-.08.07-.17.1-.26.13-.36.25-.71.36-1.06a1.27,1.27,0,0,0,.06-.18,56.53,56.53,0,0,0,2.74-11.81h0c.44,1.9,2.09,5.4,4.63,10-.11.4-.22.8-.33,1.22a86,86,0,0,1-31.83,45.89Z"/>
            <path class="cls-39" d="M217.23,78.82h0l-.1-.14Z"/>
            <path class="cls-40" d="M201.82,76.15a11.85,11.85,0,0,1,13.4,19.5Z"/>
            <path class="cls-41" d="M161,132.91l-.89.38-.33.13q-.47.17-.93.3l-.27.08a14.77,14.77,0,0,1-2.45.42l-.33,0c-.3,0-.59,0-.89,0h-.4l-.85,0-.38,0c-.39-.05-.77-.11-1.15-.19l-.32-.07c-.28-.06-.56-.13-.83-.21l-.49-.16-.64-.22-.51-.21-.6-.28-.49-.24c-.31-.17-.61-.34-.9-.53s-.32-.22-.48-.32l-.44-.33A17.61,17.61,0,0,0,153,129l4.92-3.37,4.49,6.54c-.37.23-.75.43-1.14.63Z"/>
            <path class="cls-42" d="M165.43,120.43v0c.83-.57,1.65-1.11,2.47-1.64l4.46,6.49h0l-9.95,6.84-4.49-6.54Z"/>
            <path class="cls-43" d="M221.91,103.91c4.1,5.07,7.4,8.63,9.27,9.91h0c-4.58-1.27-13.75-2.53-24.82-1.2l-.17,0-1.44.19-.21,0c-1.4.2-2.84.45-4.29.74l-.56.11-1.21.26-.7.16-1.16.28-.78.2c-.63.17-1.27.34-1.9.53l-1,.28-1,.31-1,.33-1,.33-1.19.43-.86.32c-.6.23-1.21.47-1.81.72l-.81.34-1.24.54-.84.39-1.33.62-.71.35c-.66.33-1.31.67-2,1l-.55.31q-.75.41-1.5.84l-.73.43-1.4.86c-.22.14-.45.27-.67.42-.66.42-1.33.86-2,1.31l0,0-4.46-6.5A96.24,96.24,0,0,1,221.91,103.91Z"/>
            <path class="cls-37" d="M188.27,51.32c1,4.46,8.73,17.81,19.08,32.88s20,27,23.83,29.62a50.35,50.35,0,0,0-8.53-1.45,145.75,145.75,0,0,1-20.56-23.71A145.57,145.57,0,0,1,186.56,59.8,51.82,51.82,0,0,0,188.27,51.32Z"/>
            <path class="cls-44" d="M186.56,59.8a51.82,51.82,0,0,0,1.71-8.48h0c.44,1.9,2.09,5.4,4.63,10-.11.4-.22.8-.33,1.22-.55,2-1.23,4.06-2,6.27C189.11,65.83,187.78,62.84,186.56,59.8Z"/>
            <path class="cls-36" d="M231.18,113.82a51.26,51.26,0,0,0-8.52-1.46q-4.32-4-8.28-8.33c2.64-.14,5.16-.17,7.53-.12,4.11,5.07,7.41,8.63,9.27,9.91Z"/>
            <path class="cls-45" d="M211.4,83.37c1.73,2.51,4.29,3.75,5.73,2.77s1.19-3.82-.53-6.34-4.29-3.75-5.73-2.77S209.68,80.85,211.4,83.37Z"/>
          </g>
          <path class="cls-4" d="M202.16,150.81c2.14-3.37,6.24-6.55,6.61-8.11.92-3.86-3-3.48-3-3.48,1-4.41-7-3.44-7-3.44-1.39-5.19-9.22-3.5-9.22-3.5-1.57-4.35-1.43-5.9-7.71-4-6.55,1.94-6.17,8.58-5.28,12.59"/>
          <path class="cls-4" d="M181,158.49a19.16,19.16,0,0,1-9.67-11.62c-2.27-7.9,3.46-7.59,6.12-9.15s7.05-4.78,5.69,1.31-5,3.32,1.06,8.57,2.7,3.46,4.15,5.63"/>
          <path class="cls-4" d="M189,131.56c.56,1.59-3.69,9.17-3.69,9.17"/>
          <path class="cls-46" d="M198.16,135.05s-2.27,7-6.06,8.2-9.27-.06-6.84-2.52"/>
          <path class="cls-46" d="M204.92,138.06s-2.27,7-6.07,8.2-9.26-.06-6.83-2.52"/>
          <path class="cls-46" d="M208.91,140.87s-2.27,7-6.06,8.2-9.27-.06-6.84-2.52"/>
        </g>
      </g>
    </g>
  </g>
</svg>
