<svg id="Layer_1" data-name="Layer 1" xmlns="http://www.w3.org/2000/svg" width="836.94" height="502.47" viewBox="0 0 836.94 502.47">
  <defs>
    <style>
      .cls-1 {
        fill: #353535;
      }

      .cls-2 {
        fill: #fff;
      }

      .cls-3 {
        fill: #f4bc1c;
      }

      .cls-4 {
        fill: #bfbc5e;
      }
    </style>
  </defs>
  <g>
    <g>
      <g>
        <path class="cls-1" d="M124,225.39A22.59,22.59,0,0,1,110.65,221c-30.55-22.73-52.8-44.73-68-67.26-10.09-14.85-15-27.35-15.08-38.19-.1-19,13-33.77,31.11-36,0-.31,0-.61,0-.92l-15.27.08a22.38,22.38,0,0,1-20-12.2L14,48.14a22.26,22.26,0,0,1,1.95-23.49l.58-.79A22.48,22.48,0,0,1,34.41,14.8L275,13.59l123.56-.87a22.38,22.38,0,0,1,20.09,12.21L428,43.27a22.24,22.24,0,0,1-1.95,23.49l-.58.78a22.49,22.49,0,0,1-17.76,9.07l-29.26.29c-.08,23.5-7.11,42.27-21.41,57a250.11,250.11,0,0,0,31.79,17.53,22.49,22.49,0,0,1,10.86,29.49l-10.26,22.61a22.41,22.41,0,0,1-33.59,8.85c-36.33-26.49-61.47-52.83-76.86-80.54-.58-1-1.18-2.1-1.77-3.23l.61,63.65a22.39,22.39,0,0,1-9.4,18.45l-.28.2a22.45,22.45,0,0,1-19,3.29l-21.93-6.13a22.43,22.43,0,0,1-16.36-21.89l0-2.21a77.57,77.57,0,0,1-8.89.55h-.35c-22.34,0-42.83-9.87-58.27-27.92-2.34.1-4.78.16-7.39.17h-.48c2.55,1.29,5.19,2.57,7.92,3.86a22.49,22.49,0,0,1,10.89,29.43l-10,22.14a22.4,22.4,0,0,1-20.3,13.2H124ZM200,118.6c-.77.14-1.51.3-2.2.48C198.52,119,199.26,118.79,200,118.6ZM124.27,89.88c1.25.05,2.49.08,3.73.08a52.24,52.24,0,0,1,6.52-11.73l-10.77,0C124,82.12,124.21,86,124.27,89.88Zm152.56-4a32.76,32.76,0,0,1,8.46-8.41l-8.54,0Z"/>
        <path class="cls-1" d="M124.05,229.94a27.13,27.13,0,0,1-16.11-5.32c-31-23-53.56-45.4-69.06-68.37-10.46-15.39-15.8-29.09-15.86-40.7a41.21,41.21,0,0,1,10.1-27.71,37.93,37.93,0,0,1,5.42-5A26.81,26.81,0,0,1,19.29,68.54L9.94,50.2a26.76,26.76,0,0,1,2.35-28.27l.57-.77A27.09,27.09,0,0,1,34.37,10.25L275,9l123.55-.87a27,27,0,0,1,24.18,14.7l9.35,18.33a26.78,26.78,0,0,1-2.34,28.27l-.59.79a27.06,27.06,0,0,1-21.38,10.9l-24.84.24c-.83,20.73-7,37.76-18.85,51.62a262,262,0,0,0,26.72,14.27,27.06,27.06,0,0,1,13.05,35.5l-10.25,22.6a27,27,0,0,1-24.14,15.8h-.38A27.23,27.23,0,0,1,353.16,216c-31.87-23.23-55.29-46.43-71.21-70.59l.45,46.78a27,27,0,0,1-11.34,22.21l-.18.13a27,27,0,0,1-22.86,4l-22-6.14a27,27,0,0,1-19.57-23.52c-1.46.09-2.92.14-4.39.14h-.33a77.82,77.82,0,0,1-41.12-11.68,26.65,26.65,0,0,1-2.1,14.55l-10,22.14a27,27,0,0,1-24.43,15.88h-.1Z"/>
        <path class="cls-1" d="M124,225.39A22.59,22.59,0,0,1,110.65,221c-30.55-22.73-52.8-44.73-68-67.26-10.09-14.85-15-27.35-15.08-38.19-.1-19,13-33.77,31.11-36,0-.31,0-.61,0-.92l-15.27.08a22.38,22.38,0,0,1-20-12.2L14,48.14a22.26,22.26,0,0,1,1.95-23.49l.58-.79A22.48,22.48,0,0,1,34.41,14.8L275,13.59l123.56-.87a22.38,22.38,0,0,1,20.09,12.21L428,43.27a22.24,22.24,0,0,1-1.95,23.49l-.58.78a22.49,22.49,0,0,1-17.76,9.07l-29.26.29c-.08,23.5-7.11,42.27-21.41,57a250.11,250.11,0,0,0,31.79,17.53,22.49,22.49,0,0,1,10.86,29.49l-10.26,22.61a22.41,22.41,0,0,1-33.59,8.85c-36.33-26.49-61.47-52.83-76.86-80.54-.58-1-1.18-2.1-1.77-3.23l.61,63.65a22.39,22.39,0,0,1-9.4,18.45l-.28.2a22.45,22.45,0,0,1-19,3.29l-21.93-6.13a22.43,22.43,0,0,1-16.36-21.89l0-2.21a77.57,77.57,0,0,1-8.89.55h-.35c-22.34,0-42.83-9.87-58.27-27.92-2.34.1-4.78.16-7.39.17h-.48c2.55,1.29,5.19,2.57,7.92,3.86a22.49,22.49,0,0,1,10.89,29.43l-10,22.14a22.4,22.4,0,0,1-20.3,13.2H124ZM200,118.6c-.77.14-1.51.3-2.2.48C198.52,119,199.26,118.79,200,118.6ZM124.27,89.88c1.25.05,2.49.08,3.73.08a52.24,52.24,0,0,1,6.52-11.73l-10.77,0C124,82.12,124.21,86,124.27,89.88Zm152.56-4a32.76,32.76,0,0,1,8.46-8.41l-8.54,0Z"/>
      </g>
      <g>
        <path class="cls-2" d="M120,221.39A22.59,22.59,0,0,1,106.65,217c-30.55-22.73-52.8-44.73-68-67.26-10.09-14.85-15-27.35-15.08-38.19a36.68,36.68,0,0,1,9-24.66A34.72,34.72,0,0,1,54.68,75.52c0-.3,0-.61,0-.91l-15.27.08a22.34,22.34,0,0,1-20-12.22L10,44.14a22.26,22.26,0,0,1,1.95-23.49l.58-.79A22.5,22.5,0,0,1,30.39,10.8L271,9.59l123.56-.87a22.38,22.38,0,0,1,20.09,12.21L424,39.27a22.26,22.26,0,0,1-1.94,23.48l-.58.79a22.54,22.54,0,0,1-17.78,9.07l-29.25.29c-.08,23.5-7.11,42.27-21.41,57a250.11,250.11,0,0,0,31.79,17.53,22.5,22.5,0,0,1,10.86,29.49l-10.26,22.61a22.41,22.41,0,0,1-33.6,8.84c-36.32-26.48-61.46-52.82-76.85-80.53-.58-1-1.18-2.1-1.77-3.23l.61,63.65a22.43,22.43,0,0,1-9.41,18.46l-.22.15a22.4,22.4,0,0,1-19,3.32l-21.91-6.12a22.42,22.42,0,0,1-16.36-21.88l0-2.22a77.57,77.57,0,0,1-8.89.55h-.35c-22.34,0-42.83-9.87-58.27-27.92-2.34.1-4.79.16-7.39.17h-.48q3.82,1.94,7.92,3.86a22.49,22.49,0,0,1,10.89,29.43l-10,22.14a22.41,22.41,0,0,1-20.31,13.2H120Zm76.16-106.84c-.94.16-1.8.35-2.59.56C194.47,115,195.33,114.77,196.18,114.55ZM120.26,85.88c1.26.05,2.5.08,3.74.08a52.24,52.24,0,0,1,6.52-11.73l-10.77,0C120,78.13,120.21,82,120.26,85.88Zm152.57-4a32.7,32.7,0,0,1,8.45-8.41l-8.53,0Z"/>
        <path class="cls-2" d="M120.05,225.94a27.18,27.18,0,0,1-16.11-5.32c-31-23-53.56-45.4-69.06-68.37-10.46-15.39-15.8-29.09-15.86-40.7a41.23,41.23,0,0,1,10.1-27.71,37.93,37.93,0,0,1,5.42-5A26.81,26.81,0,0,1,15.29,64.54L5.94,46.2A26.76,26.76,0,0,1,8.29,17.93l.57-.77A27,27,0,0,1,30.37,6.25L271,5l123.56-.87a27,27,0,0,1,24.18,14.7l9.35,18.33a26.76,26.76,0,0,1-2.35,28.27l-.58.79a27.06,27.06,0,0,1-21.38,10.9l-24.84.24c-.83,20.74-7,37.76-18.85,51.62a262,262,0,0,0,26.72,14.27,27.06,27.06,0,0,1,13.05,35.5l-10.25,22.6a27,27,0,0,1-24.12,15.8h-.4A27.2,27.2,0,0,1,349.16,212c-31.87-23.23-55.29-46.43-71.21-70.59l.45,46.78a27,27,0,0,1-11.34,22.21l-.18.13a26.91,26.91,0,0,1-22.87,4l-22-6.13a27,27,0,0,1-19.57-23.52c-1.46.09-2.92.14-4.39.14h-.37a77.73,77.73,0,0,1-41.08-11.68,26.65,26.65,0,0,1-2.1,14.55l-10,22.14a27,27,0,0,1-24.44,15.88h-.09Z"/>
        <path class="cls-2" d="M120,221.39A22.59,22.59,0,0,1,106.65,217c-30.55-22.73-52.8-44.73-68-67.26-10.09-14.85-15-27.35-15.08-38.19a36.68,36.68,0,0,1,9-24.66A34.72,34.72,0,0,1,54.68,75.52c0-.3,0-.61,0-.91l-15.27.08a22.34,22.34,0,0,1-20-12.22L10,44.14a22.26,22.26,0,0,1,1.95-23.49l.58-.79A22.5,22.5,0,0,1,30.39,10.8L271,9.59l123.56-.87a22.38,22.38,0,0,1,20.09,12.21L424,39.27a22.26,22.26,0,0,1-1.94,23.48l-.58.79a22.54,22.54,0,0,1-17.78,9.07l-29.25.29c-.08,23.5-7.11,42.27-21.41,57a250.11,250.11,0,0,0,31.79,17.53,22.5,22.5,0,0,1,10.86,29.49l-10.26,22.61a22.41,22.41,0,0,1-33.6,8.84c-36.32-26.48-61.46-52.82-76.85-80.53-.58-1-1.18-2.1-1.77-3.23l.61,63.65a22.43,22.43,0,0,1-9.41,18.46l-.22.15a22.4,22.4,0,0,1-19,3.32l-21.91-6.12a22.42,22.42,0,0,1-16.36-21.88l0-2.22a77.57,77.57,0,0,1-8.89.55h-.35c-22.34,0-42.83-9.87-58.27-27.92-2.34.1-4.79.16-7.39.17h-.48q3.82,1.94,7.92,3.86a22.49,22.49,0,0,1,10.89,29.43l-10,22.14a22.41,22.41,0,0,1-20.31,13.2H120Zm76.16-106.84c-.94.16-1.8.35-2.59.56C194.47,115,195.33,114.77,196.18,114.55ZM120.26,85.88c1.26.05,2.5.08,3.74.08a52.24,52.24,0,0,1,6.52-11.73l-10.77,0C120,78.13,120.21,82,120.26,85.88Zm152.57-4a32.7,32.7,0,0,1,8.45-8.41l-8.53,0Z"/>
      </g>
      <path class="cls-1" d="M275.12,33.59l-2.8,0L34.5,34.8a2.36,2.36,0,0,0-1.91,1l-.57.78a2.38,2.38,0,0,0-.21,2.5l9.35,18.34a2.4,2.4,0,0,0,2.14,1.3l31.29-.16a2.38,2.38,0,0,1,2.36,2,109.72,109.72,0,0,1,1.74,19.33A81.68,81.68,0,0,1,77,98a2.38,2.38,0,0,1-2.55,1.83c-3.56-.35-8.22-.65-11.06-.63-10.59.05-15.85,7.59-15.8,16.18,0,6.14,3.65,15.33,11.65,27.1,15.25,22.59,37.53,43.18,63.36,62.4a2.37,2.37,0,0,0,1.45.47h0a2.37,2.37,0,0,0,2.16-1.4l10-22.14a2.4,2.4,0,0,0-1.17-3.14c-21.62-10.18-39-20.78-51-32a2.39,2.39,0,0,1,.17-3.65c4.69-3.56,10.31-7.89,14.23-12.89a2.37,2.37,0,0,1,2.84-.66A90.49,90.49,0,0,0,136,136.76a135.4,135.4,0,0,0,15.37-.83,2.39,2.39,0,0,1,2.25,1c11.15,16.32,27.87,27.64,48.39,27.53a57.64,57.64,0,0,0,25.87-6.23,2.38,2.38,0,0,1,3.46,2.15l-.38,26a2.38,2.38,0,0,0,1.74,2.33l21.93,6.14a2.41,2.41,0,0,0,2-.36l.23-.16a2.39,2.39,0,0,0,1-2L256.58,60A2.38,2.38,0,0,1,259,57.6l21.89-.11h2.81l45.74-.23a2.4,2.4,0,0,1,2.36,1.94,51.81,51.81,0,0,1,.85,9.7c0,10.39-1.87,17.07-4.81,21.55a2.39,2.39,0,0,1-2.16,1.08c-4.77-.35-11.31-.45-18-.41-7.16,0-12,2.36-14.6,6.51a16.3,16.3,0,0,0-2.61,8.61c0,3.22,2.23,9.19,6,15.77,14.83,26.74,39.63,51.16,71.21,74.18a2.35,2.35,0,0,0,1.42.47h0a2.4,2.4,0,0,0,2.16-1.4l10.26-22.61a2.39,2.39,0,0,0-1.17-3.14c-21.95-10.34-40.67-21.61-53.31-34.06a2.38,2.38,0,0,1,.45-3.75c18.46-10.91,31.16-26.42,31-55.72a100.1,100.1,0,0,0-1.3-16.12,2.4,2.4,0,0,1,2.35-2.77l48-.47a2.41,2.41,0,0,0,1.9-1l.58-.79a2.4,2.4,0,0,0,.2-2.5L400.86,34a2.4,2.4,0,0,0-2.14-1.3ZM144.21,107a2.4,2.4,0,0,1-2.05,2.1,94.8,94.8,0,0,1-13.5.83,133.45,133.45,0,0,1-22.86-2,2.38,2.38,0,0,1-2-2.56,133.78,133.78,0,0,0,.46-13.62,173,173,0,0,0-2.89-30.6,2.39,2.39,0,0,1,2.32-2.84l124.77-.62a2.37,2.37,0,0,1,2.39,2.37L231,76A2.38,2.38,0,0,1,228,78.36c-14.54-3.4-26.39-4.82-36.32-4.77C161.38,73.74,146,88.65,144.21,107Zm87.24,6.41c0,7-2.9,11.06-8,15.22a49.09,49.09,0,0,1-30.93,10.9c-16,.08-22.92-6.18-23-14.46C169.46,110.36,182.64,98,208,97.9a107.94,107.94,0,0,1,21.47,1.95,2.38,2.38,0,0,1,1.91,2.33Z"/>
      <path class="cls-3" d="M271.12,29.59l-2.8,0L30.5,30.8a2.36,2.36,0,0,0-1.91,1l-.57.78a2.38,2.38,0,0,0-.21,2.5l9.35,18.34a2.4,2.4,0,0,0,2.14,1.3l31.29-.16a2.38,2.38,0,0,1,2.36,2,109.72,109.72,0,0,1,1.74,19.33A81.68,81.68,0,0,1,73,94a2.38,2.38,0,0,1-2.55,1.83c-3.56-.35-8.22-.65-11.06-.63-10.59.05-15.85,7.59-15.8,16.18,0,6.14,3.65,15.33,11.65,27.1,15.25,22.59,37.53,43.18,63.36,62.4a2.37,2.37,0,0,0,1.45.47h0a2.37,2.37,0,0,0,2.16-1.4l10-22.14a2.4,2.4,0,0,0-1.17-3.14c-21.62-10.18-39-20.78-51-32a2.39,2.39,0,0,1,.17-3.65c4.69-3.56,10.31-7.89,14.23-12.89a2.37,2.37,0,0,1,2.84-.66A90.49,90.49,0,0,0,132,132.76a135.4,135.4,0,0,0,15.37-.83,2.39,2.39,0,0,1,2.25,1c11.15,16.32,27.87,27.64,48.39,27.53a57.64,57.64,0,0,0,25.87-6.23,2.38,2.38,0,0,1,3.46,2.15l-.38,26a2.38,2.38,0,0,0,1.74,2.33l21.93,6.14a2.41,2.41,0,0,0,2-.36l.23-.16a2.39,2.39,0,0,0,1-2L252.58,56A2.38,2.38,0,0,1,255,53.6l21.89-.11h2.81l45.74-.23a2.4,2.4,0,0,1,2.36,1.94,51.81,51.81,0,0,1,.85,9.7c0,10.39-1.87,17.07-4.81,21.55a2.39,2.39,0,0,1-2.16,1.08c-4.77-.35-11.31-.45-18-.41-7.16,0-12,2.36-14.6,6.51a16.3,16.3,0,0,0-2.61,8.61c0,3.22,2.23,9.19,6,15.77,14.83,26.74,39.63,51.16,71.21,74.18a2.35,2.35,0,0,0,1.42.47h0a2.4,2.4,0,0,0,2.16-1.4l10.26-22.61a2.39,2.39,0,0,0-1.17-3.14c-21.95-10.34-40.67-21.61-53.31-34.06a2.38,2.38,0,0,1,.45-3.75c18.46-10.91,31.16-26.42,31-55.72a100.1,100.1,0,0,0-1.3-16.12,2.4,2.4,0,0,1,2.35-2.77l48-.47a2.41,2.41,0,0,0,1.9-1l.58-.79a2.4,2.4,0,0,0,.2-2.5L396.86,30a2.4,2.4,0,0,0-2.14-1.3ZM140.21,103a2.4,2.4,0,0,1-2.05,2.1,94.8,94.8,0,0,1-13.5.83,133.45,133.45,0,0,1-22.86-2,2.38,2.38,0,0,1-2-2.56,133.78,133.78,0,0,0,.46-13.62,173,173,0,0,0-2.89-30.6,2.39,2.39,0,0,1,2.32-2.84l124.77-.62a2.37,2.37,0,0,1,2.39,2.37L227,72A2.38,2.38,0,0,1,224,74.36c-14.54-3.4-26.39-4.82-36.32-4.77C157.38,69.74,142,84.65,140.21,103Zm87.24,6.41c0,7-2.9,11.06-8,15.22a49.09,49.09,0,0,1-30.93,10.9c-16,.08-22.92-6.18-23-14.46C165.46,106.36,178.64,94,204,93.9a107.94,107.94,0,0,1,21.47,1.95,2.38,2.38,0,0,1,1.91,2.33Z"/>
    </g>
    <g>
      <path class="cls-1" d="M465.6,494.79A24.66,24.66,0,0,1,451,490c-31.62-23.47-54.62-46.86-70-71.21l.22,48a24.53,24.53,0,0,1-10.29,20.07l-2.09,1.49a24.56,24.56,0,0,1-21.11,3.57l-24.09-7a24.31,24.31,0,0,1-6.3-2.86,24.41,24.41,0,0,1-5,4.8l-2.1,1.5A24.35,24.35,0,0,1,296,492.85a24.74,24.74,0,0,1-6.79-1L265.37,485a24.56,24.56,0,0,1-17.71-23.92l.14-9.31c-13.21-.91-26.27-5.87-38.91-14.78-22.54-16.09-35.56-33.67-35.56-76,0-1.56,0-3.13,0-4.68a24.58,24.58,0,0,1-10.92-11l-10.19-20.45a24.4,24.4,0,0,1,2.24-25.52l2.1-2.83a24.59,24.59,0,0,1,19.69-9.93H299.71c0-.44,0-.87,0-1.31a64.16,64.16,0,0,1,20.7-46.75c14.1-13.09,33.35-20,55.66-20,38.38,0,76.84,19.49,117.58,59.59a24.39,24.39,0,0,1,5.61,8.48H793.38a24.36,24.36,0,0,1,21.93,13.58l10.19,20.46a24.41,24.41,0,0,1-2.22,25.48L821.19,349A24.6,24.6,0,0,1,801.47,359H800l.49,107.79a24.56,24.56,0,0,1-10.29,20.07l-2.09,1.49a24.42,24.42,0,0,1-14.23,4.55,24.74,24.74,0,0,1-6.79-1L743.28,485a24.54,24.54,0,0,1-17.71-24l0-3.43c-20.42-.22-38.57-7.56-54-21.84a103.58,103.58,0,0,1-13.14-14.9l.2,45.86a24.52,24.52,0,0,1-10.29,20.07l-2.09,1.49a24.37,24.37,0,0,1-14.23,4.55,24.72,24.72,0,0,1-6.78-1L601.51,485a24.56,24.56,0,0,1-17.65-21.66c-1.18.05-2.38.07-3.59.07-23,0-42.58-9.11-59.93-27.86C509.57,424,503,412.74,500.19,400.64a24.7,24.7,0,0,1-16.83-13.15l-4.92-10A75.13,75.13,0,0,1,463,408.22a259.33,259.33,0,0,0,27,14.55,24.62,24.62,0,0,1,11.78,32.28l-11.54,25.38a24.55,24.55,0,0,1-22.3,14.36Zm105.49-94.25"/>
      <path class="cls-4" d="M799.56,327.24l-10.18-20.45H477.68l-.12.16-.08-.16H347.18a21,21,0,0,1-2.1-9.56c0-17.76,16.48-33.43,42.7-33.43,26.82,0,52,14.62,76.42,37.31h1.95l6.29-9.85c-37.16-36.57-70.12-52.55-100.39-52.55-34.91,0-51.85,22-51.85,42.26,0,9.1,4.05,17,11.39,25.82H172.26l-2.1,2.83,10.19,20.46h13.94c-.3,8.05-.45,17-.45,26.57,0,31.94,7.19,43.14,25.17,56,9.74,6.87,19.63,10.45,29.22,10.45a39.23,39.23,0,0,0,20.53-6l-.6,40L292,464l2.09-1.49-.6-132.41H327.1L326.5,457l24.12,7,2.1-1.49-.6-132.41h74.57a45.37,45.37,0,0,1,1.2,11.34c0,11.05-2.25,17.77-5.55,22.09-4.65-.44-11.54-.59-18.58-.59-6.89,0-11.54,2.24-14.09,6.27a16,16,0,0,0-2.54,8.36c0,3.13,2.1,8.95,5.69,15.37,14.24,26.28,38.21,50.31,68.78,73h2.25l11.54-25.38c-23.23-11-42.86-23.14-55.3-36.57,19.18-10.6,32.67-25.68,32.67-55.53a96.06,96.06,0,0,0-1.65-18.36h34.46l.12-.16.08.16h119v45.53c0,10.74-3.74,17.76-9.74,23-9.44,7.92-19.48,11.8-31.62,11.8-9.44,0-18.58-5.08-18.58-16.72,0-12.84,8.7-22.24,24.73-22.24h20.08l1.65-1.8-10.65-21.19H493.26L491,351.27l10.34,21.05h19.18a25,25,0,0,0-1.5,9.26c0,12.69,5.55,22.54,15.29,33,14.23,15.38,28.62,20,41.94,20,9.3,0,18.89-1.94,28.62-9.1l-.59,31.64L628.12,464l2.1-1.49-.59-132.41h60.25a16.14,16.14,0,0,1,3.75,10.3c0,12.09-14.54,18.06-36,22.83L656,366.05c14.83,41.36,36.86,62.7,66.53,62.7,9.29,0,17.23-1.94,24.12-6.27l-.6,34.63L769.9,464l2.1-1.49-.6-132.41h26.07Zm-530.5,43.59c0,8.06-3.15,15.07-9.29,19.85-8.24,6.42-15.89,9.56-23.23,9.56-15.58,0-16.48-15.38-16.48-42.25,0-10.6.15-20.15.45-27.91h48.55Zm477.91,6c0,8.36-2.85,13.73-7.79,17.77a42.73,42.73,0,0,1-26.67,9.1c-16.33,0-26.22-6.72-29.37-19,21.12-4.93,33.71-13.58,33.71-28.06,0-9.41-3.89-17.92-8.54-26.57H747Z"/>
      <path class="cls-2" d="M461.6,490.43A24.68,24.68,0,0,1,447,485.59c-31.61-23.46-54.61-46.85-70-71.2l.22,48A24.52,24.52,0,0,1,367,482.44l-2.11,1.5a24.47,24.47,0,0,1-21.1,3.56l-24.09-7a24.34,24.34,0,0,1-6.3-2.87,24.41,24.41,0,0,1-5,4.8l-2.1,1.5a24.49,24.49,0,0,1-21,3.6l-23.83-6.87a24.54,24.54,0,0,1-17.71-23.91l.14-9.31c-13.21-.91-26.27-5.87-38.91-14.78-22.54-16.1-35.56-33.67-35.56-76,0-1.57,0-3.13,0-4.69A24.51,24.51,0,0,1,158.42,341l-10.19-20.46A24.36,24.36,0,0,1,150.47,295l2.1-2.84a24.6,24.6,0,0,1,19.69-9.92H295.71c0-.44,0-.88,0-1.31a64.17,64.17,0,0,1,20.7-46.76c14.1-13.09,33.35-20,55.66-20,38.38,0,76.84,19.49,117.58,59.58a24.43,24.43,0,0,1,5.61,8.49H789.38a24.36,24.36,0,0,1,21.93,13.58l10.19,20.45a24.43,24.43,0,0,1-2.22,25.49l-2.09,2.83a24.6,24.6,0,0,1-19.72,9.95H796l.49,107.8a24.57,24.57,0,0,1-10.28,20.06l-2.11,1.5a24.49,24.49,0,0,1-21,3.59l-23.83-6.87a24.53,24.53,0,0,1-17.71-24l0-3.43c-20.42-.21-38.57-7.55-54-21.83a104.12,104.12,0,0,1-13.14-14.9l.2,45.86a24.52,24.52,0,0,1-10.28,20.06l-2.1,1.5a24.49,24.49,0,0,1-21,3.59l-23.83-6.87A24.56,24.56,0,0,1,579.86,459c-1.18.05-2.38.08-3.59.08-23,0-42.58-9.12-59.93-27.87-10.77-11.55-17.31-22.83-20.15-34.94a24.68,24.68,0,0,1-16.83-13.14l-4.92-10A75.11,75.11,0,0,1,459,403.86a261.23,261.23,0,0,0,27,14.55,24.62,24.62,0,0,1,11.78,32.28l-11.54,25.38a24.55,24.55,0,0,1-22.3,14.36Zm105.49-94.26"/>
      <path class="cls-1" d="M803.56,331.24l-10.18-20.45H481.68l-.12.16-.08-.16H351.18a21,21,0,0,1-2.1-9.56c0-17.76,16.48-33.43,42.7-33.43,26.82,0,52,14.62,76.42,37.31h1.95l6.29-9.85c-37.16-36.57-70.12-52.55-100.39-52.55-34.91,0-51.85,22-51.85,42.26,0,9.1,4.05,17,11.39,25.82H176.26l-2.1,2.83,10.19,20.46h13.94c-.3,8.05-.45,17-.45,26.57,0,31.94,7.19,43.14,25.17,56,9.74,6.87,19.63,10.45,29.22,10.45a39.23,39.23,0,0,0,20.53-6l-.6,40L296,468l2.09-1.49-.6-132.41H331.1L330.5,461l24.12,7,2.1-1.49-.6-132.41h74.57a45.37,45.37,0,0,1,1.2,11.34c0,11.05-2.25,17.77-5.55,22.09-4.65-.44-11.54-.59-18.58-.59-6.89,0-11.54,2.24-14.09,6.27a16,16,0,0,0-2.54,8.36c0,3.13,2.1,8.95,5.69,15.37,14.24,26.28,38.21,50.31,68.78,73h2.25l11.54-25.38c-23.23-11-42.86-23.14-55.3-36.57,19.18-10.6,32.67-25.68,32.67-55.53a96.06,96.06,0,0,0-1.65-18.36h34.46l.12-.16.08.16h119v45.53c0,10.74-3.74,17.76-9.74,23-9.44,7.92-19.48,11.8-31.62,11.8-9.44,0-18.58-5.08-18.58-16.72,0-12.84,8.7-22.24,24.73-22.24h20.08l1.65-1.8-10.65-21.19H497.26L495,355.27l10.34,21.05h19.18a25,25,0,0,0-1.5,9.26c0,12.69,5.55,22.54,15.29,33,14.23,15.38,28.62,20,41.94,20,9.3,0,18.89-1.94,28.62-9.1l-.59,31.64L632.12,468l2.1-1.49-.59-132.41h60.25a16.14,16.14,0,0,1,3.75,10.3c0,12.09-14.54,18.06-36,22.83L660,370.05c14.83,41.36,36.86,62.7,66.53,62.7,9.29,0,17.23-1.94,24.12-6.27l-.6,34.63L773.9,468l2.1-1.49-.6-132.41h26.07Zm-530.5,43.59c0,8.06-3.15,15.07-9.29,19.85-8.24,6.42-15.89,9.56-23.23,9.56-15.58,0-16.48-15.38-16.48-42.25,0-10.6.15-20.15.45-27.91h48.55Zm477.91,6c0,8.36-2.85,13.73-7.79,17.77a42.73,42.73,0,0,1-26.67,9.1c-16.33,0-26.22-6.72-29.37-19,21.12-4.93,33.71-13.58,33.71-28.06,0-9.41-3.89-17.92-8.54-26.57H751Z"/>
      <path class="cls-3" d="M799.56,327.24l-10.18-20.45H477.68l-.12.16-.08-.16H347.18a21,21,0,0,1-2.1-9.56c0-17.76,16.48-33.43,42.7-33.43,26.82,0,52,14.62,76.42,37.31h1.95l6.29-9.85c-37.16-36.57-70.12-52.55-100.39-52.55-34.91,0-51.85,22-51.85,42.26,0,9.1,4.05,17,11.39,25.82H172.26l-2.1,2.83,10.19,20.46h13.94c-.3,8.05-.45,17-.45,26.57,0,31.94,7.19,43.14,25.17,56,9.74,6.87,19.63,10.45,29.22,10.45a39.23,39.23,0,0,0,20.53-6l-.6,40L292,464l2.09-1.49-.6-132.41H327.1L326.5,457l24.12,7,2.1-1.49-.6-132.41h74.57a45.37,45.37,0,0,1,1.2,11.34c0,11.05-2.25,17.77-5.55,22.09-4.65-.44-11.54-.59-18.58-.59-6.89,0-11.54,2.24-14.09,6.27a16,16,0,0,0-2.54,8.36c0,3.13,2.1,8.95,5.69,15.37,14.24,26.28,38.21,50.31,68.78,73h2.25l11.54-25.38c-23.23-11-42.86-23.14-55.3-36.57,19.18-10.6,32.67-25.68,32.67-55.53a96.06,96.06,0,0,0-1.65-18.36h34.46l.12-.16.08.16h119v45.53c0,10.74-3.74,17.76-9.74,23-9.44,7.92-19.48,11.8-31.62,11.8-9.44,0-18.58-5.08-18.58-16.72,0-12.84,8.7-22.24,24.73-22.24h20.08l1.65-1.8-10.65-21.19H493.26L491,351.27l10.34,21.05h19.18a25,25,0,0,0-1.5,9.26c0,12.69,5.55,22.54,15.29,33,14.23,15.38,28.62,20,41.94,20,9.3,0,18.89-1.94,28.62-9.1l-.59,31.64L628.12,464l2.1-1.49-.59-132.41h60.25a16.14,16.14,0,0,1,3.75,10.3c0,12.09-14.54,18.06-36,22.83L656,366.05c14.83,41.36,36.86,62.7,66.53,62.7,9.29,0,17.23-1.94,24.12-6.27l-.6,34.63L769.9,464l2.1-1.49-.6-132.41h26.07Zm-530.5,43.59c0,8.06-3.15,15.07-9.29,19.85-8.24,6.42-15.89,9.56-23.23,9.56-15.58,0-16.48-15.38-16.48-42.25,0-10.6.15-20.15.45-27.91h48.55Zm477.91,6c0,8.36-2.85,13.73-7.79,17.77a42.73,42.73,0,0,1-26.67,9.1c-16.33,0-26.22-6.72-29.37-19,21.12-4.93,33.71-13.58,33.71-28.06,0-9.41-3.89-17.92-8.54-26.57H747Z"/>
    </g>
  </g>
</svg>
