<svg id="Layer_1" data-name="Layer 1" xmlns="http://www.w3.org/2000/svg" width="237.28" height="83.49" viewBox="0 0 237.28 83.49">
  <defs>
    <style>
      .cls-1 {
        fill: #f73737;
      }

      .cls-2 {
        fill: #f5ff6c;
      }
    </style>
  </defs>
  <g>
    <path class="cls-1" d="M35.14,34.79l.18-.62a17.56,17.56,0,0,1,10.19-3.72c5.18,0,8.28,2.08,11.51,6.6a13.06,13.06,0,0,1,2.88,8A9.87,9.87,0,0,1,57.6,51a14.82,14.82,0,0,1,1.95,2.13c.75.8,2.61.93,4.47.93A14.19,14.19,0,0,0,71.15,52V38.07H64.24l-3-6.07.62-.84H92.24l.13-.22c-3.76-4.26-7.57-6.83-11.43-6.83-2.92,0-6.29,1.42-9.92,3.42l-.4-.23-4.16-6.64c3.14-1.95,6.73-3.37,9.65-3.37,4.17,0,8.24,2.09,14,6.82l.22-.17a51,51,0,0,0-1.55-6.25c-1.15-3.32-3.23-4.74-8-4.74a28.59,28.59,0,0,0-6.65.84l-.39-.22L71.51,5.86a34.06,34.06,0,0,1,7.13-.75c6,0,8.64,2.53,11.83,8.2,2.52,4.47,3.89,9.39,5.36,17.85h6.91l3,6.07-.62.84H97.42l.18,39.29L97,77.8l-7.13-2.08L90,38.07H78.46l.18,39.29L78,77.8l-7.09-2L71.06,61a8.4,8.4,0,0,1-1.5.09,13.08,13.08,0,0,1-6.65-1.86l-.35.13a14.9,14.9,0,0,1,.35,3.24c0,6.07-4.91,10.72-11.69,10.72-9,0-16.12-7.67-22.46-20.25l.09-.39,3.23-2.22c5.19,9.35,9,14.71,16.35,14.71,3.81,0,8.37-2.84,8.37-7.18,0-2.3-1.33-3.76-4.38-3.76a23.87,23.87,0,0,0-8.24,2.08l-4.48-7,.27-.84A61.87,61.87,0,0,1,49.49,46C52.42,44.8,54,43,54,40.9c0-1.55-.67-3-4-3-2.83,0-6.24,1.33-10.27,3.76Z"/>
    <path class="cls-2" d="M101.32,32l.62-.84h53.64l3,6.07-.62.84h-7.7l.17,39.29-.62.44-7-2L143,52h-9.17c2.35,4,3.23,6.6,3.23,9.74,0,4.61-3.72,9.48-10.41,9.48-8.15,0-15.59-7.17-22.19-23.56l4.07-2c4.7,11.87,9.71,17.27,15.42,17.27A7,7,0,0,0,131,56.23c0-2.53-2.48-4-7.8-4.7l-2.79-6.33.62-.75H143V38.07H104.33Z"/>
    <path class="cls-2" d="M154.16,32l.62-.84h19.76l3,6.07-.62.84h-7.71l.18,39.29-.62.44-7.13-2.08.18-37.65h-4.65Z"/>
    <path class="cls-2" d="M173.12,32l.62-.84H205.5l3,6.07-.62.84H197.71a29,29,0,0,1,.48,5.45c0,8.86-4,13.33-9.65,16.47,3.67,4,9.48,7.58,16.34,10.86l-3.41,7.53h-.66c-9-6.74-16.13-13.87-20.33-21.66a11.59,11.59,0,0,1-1.69-4.57,4.76,4.76,0,0,1,.76-2.48c.75-1.19,2.12-1.86,4.16-1.86s4.12,0,5.49.18c1-1.28,1.64-3.28,1.64-6.56a13.81,13.81,0,0,0-.35-3.36H176.13Z"/>
  </g>
</svg>
