<svg id="Layer_1" data-name="Layer 1" xmlns="http://www.w3.org/2000/svg" width="252.77" height="185.91" viewBox="0 0 252.77 185.91">
  <defs>
    <style>
      .cls-1 {
        fill: #050505;
      }

      .cls-1, .cls-5 {
        opacity: 0.5;
      }

      .cls-2 {
        fill: none;
        stroke: #fff;
        stroke-linejoin: round;
        stroke-width: 15px;
      }

      .cls-3 {
        fill: #dc093b;
      }

      .cls-4 {
        fill: #83142a;
      }

      .cls-6, .cls-8 {
        fill: #fff;
      }

      .cls-7 {
        opacity: 0.7;
      }

      .cls-8 {
        opacity: 0.3;
      }

      .cls-9 {
        fill: #ffd9bc;
      }

      .cls-10 {
        fill: #e3a07c;
      }

      .cls-11 {
        fill: #ffbf9d;
      }

      .cls-12 {
        fill: #875959;
      }

      .cls-13 {
        fill: #9cba3d;
      }

      .cls-14 {
        fill: #618e20;
      }
    </style>
  </defs>
  <g id="pro">
    <path class="cls-1" d="M235.85,158.73l.06-.09c.27-.42.54-.84.8-1.26l.13-.22c.23-.38.46-.76.68-1.15l.21-.36c.19-.34.38-.68.56-1,.1-.17.19-.34.28-.52s.31-.58.46-.87.23-.46.34-.69l.36-.73.39-.84c.1-.2.19-.4.28-.6l.42-1,.21-.49c.15-.36.3-.72.44-1.09.06-.13.11-.26.16-.39l.45-1.18.12-.33c.15-.41.29-.83.43-1.24,0-.1.07-.2.1-.29.14-.42.28-.85.41-1.27,0-.1.07-.2.1-.3.12-.42.25-.84.37-1.26,0-.11.06-.23.1-.34.11-.4.22-.8.32-1.2,0-.15.08-.29.11-.44.1-.37.19-.74.28-1.11,0-.19.08-.38.13-.57l.21-1c.05-.26.11-.51.16-.76l.15-.78.18-1,.09-.55c.07-.42.14-.84.2-1.27,0-.09,0-.18,0-.27a68.19,68.19,0,0,0,.62-13,28.48,28.48,0,0,0-.51-3c-1.15-13.18-10.8-26.31-28.57-34a83.05,83.05,0,0,0-36.51-7.22c9-7.17,18.26-17.12,27.53-30.31,0,0-11.56-3.19-28.11-.88v0l-.08,0c-14.43,2-32.64,8.27-50.3,24.44a65.21,65.21,0,0,0-5.87-5.25c-2.84-6.21-3.15-12.18-2.22-16,3.18-13,12.27-10.48,12.27-10.48-5.41-5.9-10.81-2.54-13.57,0l-1-1.91c1-6.49-1.11-9.27-1.11-9.27-6.36.91-10,10-10,10-.22-12.53-11.36-9.57-11.36-9.57,4.09-.46,8.64,8.89,2.27,16.41a27.37,27.37,0,0,1-3.48,3.44C71.88,5.14,39,28.4,39,28.4c5.17,11.72,10.65,20.26,16.13,26.41l0,0h0c.41.46.83.91,1.24,1.35C44,62.32,33.77,72.49,28.61,85.86c-11.57,30,6.61,64.76,37,76.56,23.6,9.15,49.91,3,66.45-14.27,3.22,8.34,9.51,16.09,16.79,22.09h0l.16.12a50,50,0,0,0,20.82,10.19c22.75,5.5,40.33,1.38,52.86-7.85l.27-.2.93-.71.56-.45.62-.51c.27-.22.54-.44.8-.67l.37-.32,1-.88.18-.17c.37-.35.74-.7,1.1-1.06l0,0A55.14,55.14,0,0,0,235.85,158.73Z"/>
    <path class="cls-2" d="M223.58,148.69l.06-.09c.27-.42.54-.84.8-1.26l.13-.22c.23-.38.46-.76.68-1.15l.21-.36c.19-.34.38-.68.56-1,.1-.17.19-.34.28-.52s.31-.58.46-.87.23-.46.34-.69l.36-.73.39-.83.28-.61.42-1,.21-.49c.15-.36.3-.72.44-1.08l.16-.4.45-1.18.12-.33c.15-.41.29-.82.43-1.24,0-.1.07-.19.1-.29.14-.42.28-.85.41-1.27l.1-.3c.12-.42.25-.84.37-1.26,0-.11.06-.23.1-.34.11-.4.22-.8.32-1.2,0-.15.08-.29.11-.44.1-.37.19-.74.28-1.11,0-.19.08-.38.13-.57l.21-1c0-.26.11-.51.16-.76l.15-.78.18-1,.09-.55c.07-.42.14-.84.2-1.27,0-.09,0-.18,0-.27a68.19,68.19,0,0,0,.62-13,28.48,28.48,0,0,0-.51-3c-1.15-13.18-10.8-26.31-28.57-34A83.08,83.08,0,0,0,168.34,65c9-7.17,18.26-17.12,27.53-30.31,0,0-11.56-3.19-28.11-.88v0l-.08,0c-14.43,2-32.64,8.26-50.3,24.43A65.21,65.21,0,0,0,111.5,53c-2.84-6.21-3.15-12.18-2.22-16,3.18-13,12.27-10.48,12.27-10.48-5.41-5.9-10.81-2.54-13.57,0l-1-1.91c1-6.49-1.11-9.27-1.11-9.27-6.36.91-10,10-10,10-.22-12.53-11.36-9.57-11.36-9.57,4.09-.46,8.64,8.89,2.27,16.41a27.37,27.37,0,0,1-3.48,3.44C59.61-4.9,26.71,18.37,26.71,18.37c5.17,11.71,10.65,20.25,16.13,26.4l0,0h0c.41.46.83.91,1.24,1.35C31.7,52.29,21.5,62.45,16.34,75.82c-11.57,30,6.61,64.76,37,76.56,23.6,9.15,49.91,3,66.45-14.27,3.22,8.34,9.51,16.09,16.79,22.09h0l.16.13a50.11,50.11,0,0,0,20.82,10.18c22.75,5.51,40.33,1.38,52.86-7.85l.27-.2.93-.71.56-.45c.21-.16.42-.33.62-.51s.54-.44.8-.67l.37-.32,1-.88.18-.17,1.1-1,0,0A54.71,54.71,0,0,0,223.58,148.69Z"/>
    <g>
      <g>
        <g>
          <path class="cls-3" d="M72.94,40.32s7.2-.63,13.59-8.15,1.81-16.76-2.27-16.31c0,0,11.1-2.94,11.32,9.51,0,0,3.63-9.06,10-10,0,0,2.94,3.85.22,13.13,0,0,7.7-10.41,15.4-2,0,0-9-2.49-12.22,10.42-1.12,4.54-.46,12.23,4.3,19.7C113.25,56.62,99.66,44.17,72.94,40.32Z"/>
          <path class="cls-4" d="M72.89,40.32a21.17,21.17,0,0,0,8.17-3.54,25,25,0,0,0,3.4-2.84,21.21,21.21,0,0,0,2.84-3.38,12,12,0,0,0,1.84-8.3,9.39,9.39,0,0,0-1.55-4,3.87,3.87,0,0,0-3.28-2h0a.45.45,0,0,1-.15-.88,12.13,12.13,0,0,1,4.53-.17,8.17,8.17,0,0,1,4.17,1.84,8.4,8.4,0,0,1,2.42,3.84,20.56,20.56,0,0,1,.49,2.2l.15,2.23-.63-.12A24.45,24.45,0,0,1,97,22a20.6,20.6,0,0,1,2.22-3,14.83,14.83,0,0,1,2.8-2.44,9.32,9.32,0,0,1,3.46-1.34h0a.16.16,0,0,1,.16.07,8.9,8.9,0,0,1,1.16,3.23,17.51,17.51,0,0,1,.22,3.39,25.33,25.33,0,0,1-.35,3.37L106.38,27,106,28.59l-.32-.16a18.07,18.07,0,0,1,3.26-3.22,11.36,11.36,0,0,1,4.14-2,7.33,7.33,0,0,1,4.62.39,8.71,8.71,0,0,1,2,1.15,23.22,23.22,0,0,1,1.75,1.54.36.36,0,0,1,0,.49.33.33,0,0,1-.33.11h-.06a8.55,8.55,0,0,0-4.53.35,8.67,8.67,0,0,0-3.72,2.63,17.93,17.93,0,0,0-3.65,8.51,23.86,23.86,0,0,0,.71,9.35,31,31,0,0,0,3.79,8.66.5.5,0,0,1-.16.7.51.51,0,0,1-.61,0h0a59.89,59.89,0,0,0-9-6.11,86.65,86.65,0,0,0-9.86-4.73c-1.71-.63-3.4-1.33-5.15-1.86-.87-.28-1.74-.58-2.61-.84l-2.64-.74c-1.76-.52-3.56-.87-5.33-1.31S74.64,40.64,72.89,40.32Zm.1,0c1.87.3,3.62.45,5.4.79l2.7.53,1.35.27,1.34.34,2.67.69c.88.25,1.76.53,2.64.79,1.77.5,3.49,1.17,5.23,1.77a87.35,87.35,0,0,1,10.05,4.58,53.11,53.11,0,0,1,9.22,6.16l-.78.66A32.06,32.06,0,0,1,108.87,48a24.38,24.38,0,0,1-.67-9.77,14.11,14.11,0,0,1,.58-2.41l.35-1.17c.14-.39.31-.77.46-1.15a14.5,14.5,0,0,1,2.57-4.23,9.41,9.41,0,0,1,9.11-3.07l-.36.59a20.85,20.85,0,0,0-1.62-1.5,8.94,8.94,0,0,0-1.88-1.11,6.77,6.77,0,0,0-4.26-.44,10.82,10.82,0,0,0-4,1.87,16.6,16.6,0,0,0-3.24,3.08.18.18,0,0,1-.26,0,.17.17,0,0,1-.06-.19l.44-1.62.35-1.64a23.09,23.09,0,0,0,.36-3.32,14.76,14.76,0,0,0-.21-3.32,8.46,8.46,0,0,0-1.13-3.07l.16.06a9.19,9.19,0,0,0-3.3,1.32,13.63,13.63,0,0,0-2.67,2.42,20.41,20.41,0,0,0-2.09,2.95,24.93,24.93,0,0,0-1.63,3.22.31.31,0,0,1-.42.18.33.33,0,0,1-.2-.27v0l-.19-2.14a17.24,17.24,0,0,0-.52-2.06,7.8,7.8,0,0,0-2.25-3.44,7.22,7.22,0,0,0-3.75-1.62,11.68,11.68,0,0,0-4.17.17l-.17-.87a3.6,3.6,0,0,1,2.41.68,6.14,6.14,0,0,1,1.67,1.7,10.47,10.47,0,0,1,1.65,4.34,12.45,12.45,0,0,1-2.07,8.8,15.37,15.37,0,0,1-1.43,1.79c-.51.55-1,1.11-1.58,1.62a24.09,24.09,0,0,1-3.55,2.81,22.72,22.72,0,0,1-4,2.07,19.86,19.86,0,0,1-2.14.71c-.36.1-.73.18-1.1.26l-.55.1-.28,0C73.14,40.33,73,40.41,73,40.32Z"/>
        </g>
        <g>
          <path class="cls-3" d="M131.82,119.8c-11.53,29.82-48.27,43.41-78.58,31.68S4.8,105.23,16.33,75.42,64.66,31.79,95,43.51,143.34,90,131.82,119.8Z"/>
          <path class="cls-4" d="M131.86,119.82a52.82,52.82,0,0,1-12.92,19.37,59.85,59.85,0,0,1-19.77,12.46,64.68,64.68,0,0,1-46.11.3,65,65,0,0,1-34.19-31.06A59.85,59.85,0,0,1,12.53,98.3,52.8,52.8,0,0,1,29.16,55.76,60.52,60.52,0,0,1,49,43.38a64.35,64.35,0,0,1,46-.1,64.54,64.54,0,0,1,33.87,31.07,59.73,59.73,0,0,1,6.31,22.45A52.69,52.69,0,0,1,131.86,119.82Zm-.09,0a52.77,52.77,0,0,0,3.33-23,59.76,59.76,0,0,0-6.35-22.37,64.23,64.23,0,0,0-33.86-30.7A63.83,63.83,0,0,0,49.27,44a59.79,59.79,0,0,0-19.61,12.3A51.92,51.92,0,0,0,13.42,98.23a58.73,58.73,0,0,0,6.34,22.21A63.38,63.38,0,0,0,99,151.15,59.44,59.44,0,0,0,118.72,139,52.51,52.51,0,0,0,131.77,119.78Z"/>
        </g>
        <g class="cls-5">
          <path class="cls-6" d="M23,87.4a48.65,48.65,0,0,1,4.87-16.63,51.64,51.64,0,0,1,10.29-14,50.13,50.13,0,0,1,14.48-9.66,51.38,51.38,0,0,1,8.26-2.77c1.43-.27,2.83-.63,4.27-.82L69.46,43a57.52,57.52,0,0,0-16.53,4.78,51,51,0,0,0-14.1,9.67,52.36,52.36,0,0,0-10.3,13.66l-.52.94-.45,1-.9,2a19.38,19.38,0,0,0-.8,2l-.74,2c-.49,1.36-.83,2.76-1.25,4.14S23.29,86,23,87.4Z"/>
        </g>
        <g class="cls-5">
          <path class="cls-6" d="M92.7,50.21a58,58,0,0,1-.12,10.62A83.29,83.29,0,0,1,90.9,71.34a84.07,84.07,0,0,1-3,10.21c-.57,1.68-1.28,3.3-1.94,5s-1.49,3.21-2.27,4.8c1.22-3.33,2.47-6.62,3.48-10s1.95-6.76,2.75-10.18,1.38-6.9,1.89-10.38c.26-1.74.43-3.49.58-5.25S92.67,52,92.7,50.21Z"/>
        </g>
        <g class="cls-5">
          <path class="cls-6" d="M102,53.06a35.36,35.36,0,0,1,1.67,4.25c.43,1.46.83,2.94,1.15,4.43A53.47,53.47,0,0,1,105.49,80c-.17,1.51-.5,3-.79,4.5s-.78,3-1.2,4.41c.49-3,1-6,1.22-9a73.55,73.55,0,0,0,.22-9,71.62,71.62,0,0,0-.88-9A60,60,0,0,0,102,53.06Z"/>
        </g>
        <g class="cls-7">
          <path class="cls-4" d="M39,101.69A59.07,59.07,0,0,0,38.85,117a45,45,0,0,0,4.38,14.5,41.85,41.85,0,0,0,9,12.16,29.56,29.56,0,0,0,2.9,2.47l1.51,1.16,1.62,1a35.6,35.6,0,0,0,6.87,3.37A33,33,0,0,1,58,148.68l-1.68-1-1.58-1.12a30.62,30.62,0,0,1-3-2.41,41.07,41.07,0,0,1-9.37-12.28A43.77,43.77,0,0,1,38.09,117a31.12,31.12,0,0,1-.23-3.86l0-1.93c0-.65.08-1.29.12-1.93A57.36,57.36,0,0,1,39,101.69Z"/>
        </g>
        <g class="cls-7">
          <path class="cls-4" d="M60,111.88a54.62,54.62,0,0,0-.68,8.65,60.62,60.62,0,0,0,.55,8.63,58.57,58.57,0,0,0,1.71,8.47,74.49,74.49,0,0,0,2.84,8.21c-.35-.63-.7-1.28-1-1.93s-.69-1.29-1-2c-.56-1.35-1.14-2.7-1.57-4.1a44.12,44.12,0,0,1-2-8.56,45.25,45.25,0,0,1-.32-8.78c.09-1.47.25-2.92.46-4.37A33.79,33.79,0,0,1,60,111.88Z"/>
        </g>
        <g class="cls-7">
          <path class="cls-4" d="M72.6,152a24.69,24.69,0,0,0,6.52-1.54l1.57-.57,1.54-.66c1-.41,2-.95,3-1.45a52.87,52.87,0,0,0,19.69-17.63,53,53,0,0,0,3.19-5.88,59.31,59.31,0,0,0,2.51-6.24c-.29,1.08-.6,2.17-.92,3.25-.17.53-.29,1.09-.51,1.61l-.63,1.57a51.26,51.26,0,0,1-3,6.09,48.3,48.3,0,0,1-8.71,10.41,49.56,49.56,0,0,1-11.29,7.51c-1,.46-2,1-3.12,1.34l-1.58.61-1.62.5A22.7,22.7,0,0,1,72.6,152Z"/>
        </g>
        <g class="cls-7">
          <path class="cls-4" d="M99.09,112.21a40.87,40.87,0,0,1-2.65,9.37,50,50,0,0,1-4.5,8.68l-.67,1-.72,1c-.48.65-.94,1.33-1.45,2a45.18,45.18,0,0,1-3.25,3.66c-.58.57-1.12,1.19-1.74,1.72l-1.83,1.61c-.61.55-1.28,1-1.93,1.49s-1.31,1-2,1.42a71.29,71.29,0,0,0,6.92-6.76,61.08,61.08,0,0,0,5.81-7.67,64.37,64.37,0,0,0,4.63-8.43c.68-1.46,1.29-3,1.86-4.46S98.66,113.78,99.09,112.21Z"/>
        </g>
        <path class="cls-4" d="M109,29a29.25,29.25,0,0,0-4.35,7.16,24.17,24.17,0,0,0-1.31,4,23.45,23.45,0,0,0-.66,4.08h0a.49.49,0,0,1-.52.44.51.51,0,0,1-.4-.29,26.86,26.86,0,0,1-1.9-6.25,25.07,25.07,0,0,1-.22-6.53A27.58,27.58,0,0,1,101,25.23,23.38,23.38,0,0,1,104,19.49a29.94,29.94,0,0,0-3.51,12.16A26.39,26.39,0,0,0,102.59,44l-.92.16a24.37,24.37,0,0,1,.79-4.24,22.83,22.83,0,0,1,1.55-4,24.58,24.58,0,0,1,2.17-3.67A21.3,21.3,0,0,1,109,29Z"/>
        <path class="cls-8" d="M42.65,63s8.46-13.38,23.94-17.51a4.4,4.4,0,0,1,2.36,0c1.21.33,2.44,1.29,1,4-2.09,3.93,3.39,3.47,7.9,1.11C82,48.35,86.24,47.79,85.72,53c-.61,6.1-10.26,26.74-16.8,19-5.72-6.71-9-11.78-15.41-8.55C47.79,66.35,40.26,67.88,42.65,63Z"/>
        <g class="cls-5">
          <path class="cls-6" d="M91.48,25.71a11,11,0,0,1-1.59,8A9.68,9.68,0,0,1,87,36.77a8.82,8.82,0,0,1-3.93,1.39.09.09,0,0,1-.09-.08A.06.06,0,0,1,83,38h0a14.18,14.18,0,0,1,1.55-1.31c.24-.23.5-.42.74-.63a5.43,5.43,0,0,0,.73-.62c.24-.2.48-.41.73-.6s.46-.42.71-.61a9.9,9.9,0,0,0,1.34-1.33,10.75,10.75,0,0,0,1.85-3.33,10.58,10.58,0,0,0,.64-3.84h0a.1.1,0,0,1,.08-.09A.08.08,0,0,1,91.48,25.71Z"/>
        </g>
        <path class="cls-3" d="M123,88.82c-14.16,21.1-6.93,71.16,34.07,80.69,54.63,12.71,77.7-28.18,76-60.86C229.5,75.38,158.35,42.11,123,88.82Z"/>
        <path class="cls-9" d="M143.23,70.84c18.31-9.08,40.58-7.79,61,1,29.61,12.81,36.6,40.66,19.17,58.69-16.38,16.95-43,28.52-76.8,13.23-22.23-10.06-36.82-36.37-22-57.52l.32.17a13.37,13.37,0,0,0-15.76-2.79s1.89-9.92,13.25-6.82c0,0-4.55-2.79-5-11.78,0,0,7.78-.62,13.77,3.72,0,0-1.44-8.68,8.69-9.92,0,0-6.42,7.75,3.64,12.09Z"/>
        <path class="cls-10" d="M133.78,132.42a28.71,28.71,0,0,0,4.34,3.6,48.31,48.31,0,0,0,4.81,2.94,71.57,71.57,0,0,0,10.29,4.56,75.18,75.18,0,0,0,22,4.33,61.18,61.18,0,0,0,22.15-2.91,58.46,58.46,0,0,0,10.3-4.5,69.67,69.67,0,0,0,9.31-6.37,64.06,64.06,0,0,1-9.07,6.8,59.81,59.81,0,0,1-10.29,4.8,53.44,53.44,0,0,1-11.07,2.64,64.64,64.64,0,0,1-11.38.54,73,73,0,0,1-22.2-4.62,69.28,69.28,0,0,1-10.27-4.85,46.25,46.25,0,0,1-4.73-3.15A26.49,26.49,0,0,1,133.78,132.42Z"/>
        <path class="cls-10" d="M163.8,91.09a10.6,10.6,0,0,0,4.11,3.24,27.36,27.36,0,0,0,4.94,1.84A102.7,102.7,0,0,1,183,99.69a39.67,39.67,0,0,1,13.36,8.9,46.37,46.37,0,0,1,3.51,4,56.93,56.93,0,0,0-8-7,49.15,49.15,0,0,0-9.27-5c-3.25-1.38-6.62-2.51-10-3.7a27.36,27.36,0,0,1-4.94-2.15,15.47,15.47,0,0,1-2.19-1.59A7,7,0,0,1,163.8,91.09Z"/>
        <path class="cls-10" d="M158.71,94.65a88.12,88.12,0,0,1,9,6c2.89,2.19,5.53,4.57,8.7,6.16a30.7,30.7,0,0,0,4.87,2.07c1.68.58,3.42,1,5.14,1.54a27.89,27.89,0,0,1,5,2,23,23,0,0,1,4.32,3.26,25.88,25.88,0,0,0-4.55-2.82,27.37,27.37,0,0,0-5-1.75c-1.72-.44-3.48-.84-5.22-1.38a30,30,0,0,1-5.05-2.08c-.8-.43-1.57-.92-2.35-1.4s-1.51-1-2.21-1.59c-1.43-1.15-2.77-2.31-4.14-3.46S164.43,99,163,97.9,160.15,95.73,158.71,94.65Z"/>
        <path class="cls-10" d="M180.79,66.91A80.35,80.35,0,0,1,196,70.49,76.63,76.63,0,0,1,210.26,77a51,51,0,0,1,12.15,9.91,42.2,42.2,0,0,1,4.51,6.43,36,36,0,0,1,2.9,7.25,39.84,39.84,0,0,0-3.33-7,41.18,41.18,0,0,0-4.66-6.16,54.07,54.07,0,0,0-5.68-5.23,59.35,59.35,0,0,0-6.4-4.33,81.46,81.46,0,0,0-14-6.6c-2.43-.9-4.9-1.7-7.39-2.41S183.34,67.43,180.79,66.91Z"/>
        <g>
          <path class="cls-11" d="M124.2,86.75l.65-.31-.32-.17C124.41,86.43,124.31,86.59,124.2,86.75Z"/>
          <path class="cls-10" d="M143.45,70.94l-.09-.17-.13.06c-9.73-4.35-3.42-12-3.42-12-10.13,1.24-8.69,9.92-8.69,9.92-6-4.34-13.77-3.72-13.77-3.72.44,9,5,11.78,5,11.78-11.36-3.1-13.25,6.82-13.25,6.82a13.37,13.37,0,0,1,15.76,2.79s3.41,2.9,7-.83c2.48-2.58,2.09-4.62,5.78-4.44C141.93,81.38,147.39,77.24,143.45,70.94Z"/>
        </g>
        <path class="cls-12" d="M118.31,79.93a10.92,10.92,0,0,1,7.91,4.44c2.64,3.35,7.13-.1,4.13-3.51C130.35,80.86,126.86,76.62,118.31,79.93Z"/>
        <path class="cls-12" d="M130.6,72a10.75,10.75,0,0,0,2.68,6.2c2.15,2.28,4.25,1.35,4.64-.1,0,0,4.3.1,4.44-4.13,0,0-5.28-1.45-6.43-6.41a6.44,6.44,0,0,0-1.25,6.92A5.07,5.07,0,0,1,130.6,72Z"/>
        <path class="cls-4" d="M143.2,70.79a60.27,60.27,0,0,1,17.25-5.62,68.41,68.41,0,0,1,18.19-.51,85.48,85.48,0,0,1,17.82,3.8A73.87,73.87,0,0,1,213,76.06,47.37,47.37,0,0,1,226.3,88.48a35.22,35.22,0,0,1,6.5,16.86A31.34,31.34,0,0,1,229.19,123a35.26,35.26,0,0,1-5.33,7.39c-1.05,1.1-2.16,2.14-3.23,3.21s-2.29,2-3.43,3a62.75,62.75,0,0,1-33,14.37l-2.27.26c-.76.09-1.52.06-2.28.09l-2.29.06-1.15,0c-.38,0-.76,0-1.14-.06l-4.57-.28-4.52-.67-1.14-.16c-.37-.07-.74-.17-1.11-.26l-2.23-.52-2.22-.53c-.75-.15-1.46-.44-2.19-.66l-4.35-1.41-4.22-1.73a49.77,49.77,0,0,1-26.41-24.21,36.47,36.47,0,0,1-3.73-17.74,32.11,32.11,0,0,1,6.14-16.93,0,0,0,0,1,.07,0s0,0,0,.07a32.18,32.18,0,0,0-5.73,16.9,35.62,35.62,0,0,0,3.88,17.39,47,47,0,0,0,10.93,14.16,50.23,50.23,0,0,0,15.23,9.42l4.18,1.7,4.3,1.38c.72.22,1.42.5,2.15.66l2.2.51,2.19.52,1.1.26,1.12.17,4.45.68,4.5.3c.37,0,.75.06,1.12.06l1.13,0,2.25,0c.75,0,1.5,0,2.25-.09l2.24-.23a60.92,60.92,0,0,0,17.38-4.54,65.6,65.6,0,0,0,15.42-9.33c4.63-3.83,9.13-8,12-13.37a29.89,29.89,0,0,0,3.61-17.41,34,34,0,0,0-6.61-16.58,47.1,47.1,0,0,0-13.27-12,76.4,76.4,0,0,0-16.4-7.47,85.72,85.72,0,0,0-17.62-3.87,65.39,65.39,0,0,0-35.31,5.46.05.05,0,0,1-.05-.09Z"/>
        <path class="cls-4" d="M123.13,88.87A42,42,0,0,0,120.34,95a51.26,51.26,0,0,0-1.84,6.43,58,58,0,0,0-1.27,13.27,65.19,65.19,0,0,0,5.69,25.84,50.39,50.39,0,0,0,16.41,20.7,47.06,47.06,0,0,0,11.89,6.14,68.53,68.53,0,0,0,13.07,3,70.42,70.42,0,0,0,26.53-1,51.51,51.51,0,0,0,23-12.48,58.74,58.74,0,0,0,14.53-22,71.69,71.69,0,0,0,4.69-26.27.1.1,0,0,1,.1-.11.11.11,0,0,1,.1.1,65.62,65.62,0,0,1-3.36,26.84,57.81,57.81,0,0,1-14.54,23,50.6,50.6,0,0,1-11.19,8,54.63,54.63,0,0,1-12.9,4.75,66.81,66.81,0,0,1-27.16.22A82,82,0,0,1,151,168a53.8,53.8,0,0,1-12-6.27,52.89,52.89,0,0,1-10.12-9.08,54.59,54.59,0,0,1-7.48-11.44,59.83,59.83,0,0,1-5.72-26.57,56.11,56.11,0,0,1,1.83-13.53A40.45,40.45,0,0,1,123,88.76a.11.11,0,0,1,.15,0A.11.11,0,0,1,123.13,88.87Z"/>
        <g>
          <path class="cls-4" d="M138.73,86.27c-2-1.17-4.72-.65-6.88,1.31-3.36,3.06-9,11.49-4.72,25.38,5.78,18.78,25.26,27.38,37.15,30.35,15.47,3.88,37.34.11,46.8-12.5,0,0,4.12-5.71-.7-7.2-5.82-1.8-21.52.33-41.83-11.3C153.85,104.12,145.71,90.37,138.73,86.27Z"/>
          <path class="cls-4" d="M138.71,86.32a4.81,4.81,0,0,0-3.41-.48,7,7,0,0,0-3.1,1.57A17.52,17.52,0,0,0,128,93.07a24,24,0,0,0-1.85,13.78c.12,1.16.42,2.3.65,3.45l.48,1.7.24.84.31.83A35.27,35.27,0,0,0,130.8,120a40.74,40.74,0,0,0,9.09,10.62A63.08,63.08,0,0,0,165,143a56.6,56.6,0,0,0,28-.84,39.32,39.32,0,0,0,12.65-6.19c.46-.36,1-.69,1.39-1.09l1.29-1.21.65-.6c.21-.21.38-.44.58-.66l1.15-1.35a9,9,0,0,0,1.61-3.08,4.66,4.66,0,0,0,.22-1.69,3.23,3.23,0,0,0-.17-.82,2.56,2.56,0,0,0-.44-.68,5.33,5.33,0,0,0-3.11-1.29c-1.16-.2-2.34-.32-3.52-.42-2.36-.2-4.73-.36-7.1-.64a78.13,78.13,0,0,1-14-2.8A74.36,74.36,0,0,1,171,114.14a61.58,61.58,0,0,1-11.85-8A114.39,114.39,0,0,1,149,96.09q-2.39-2.64-4.86-5.2A29.85,29.85,0,0,0,138.71,86.32Zm0-.09a29.47,29.47,0,0,1,5.48,4.54c1.68,1.68,3.29,3.43,4.95,5.13a110.43,110.43,0,0,0,10.34,9.73,66.47,66.47,0,0,0,11.86,7.68,80,80,0,0,0,13,5.44,79.41,79.41,0,0,0,13.83,3.06c2.34.33,4.7.53,7.07.79,1.18.12,2.36.25,3.54.46a12.24,12.24,0,0,1,1.76.44,3.67,3.67,0,0,1,1.56,1,2.9,2.9,0,0,1,.5.8,3.33,3.33,0,0,1,.18.92,4.83,4.83,0,0,1-.24,1.82,9.82,9.82,0,0,1-1.68,3.18l-1.15,1.37c-.2.23-.38.47-.59.68l-.65.62-1.3,1.23c-.44.4-.94.74-1.4,1.11a41.12,41.12,0,0,1-12.71,6.45,57,57,0,0,1-14.08,2.43,52.76,52.76,0,0,1-14.28-1.17,62.08,62.08,0,0,1-25.62-12.44,40.47,40.47,0,0,1-9.26-11A36.53,36.53,0,0,1,127,114l-.3-.85-.23-.87-.44-1.74c-.2-1.19-.47-2.36-.56-3.56a24.6,24.6,0,0,1,2.29-14,18.39,18.39,0,0,1,4.31-5.67,7.27,7.27,0,0,1,3.19-1.58A4.93,4.93,0,0,1,138.76,86.23Z"/>
        </g>
        <path class="cls-4" d="M124.82,86.47c-.57-.43-1.1-.91-1.67-1.32a15.36,15.36,0,0,0-1.82-1.09,12.15,12.15,0,0,0-4-1.31,13.13,13.13,0,0,0-4.15,0A13.29,13.29,0,0,0,109.31,84h0a.43.43,0,0,1-.58-.18.42.42,0,0,1,0-.29,10.75,10.75,0,0,1,1.84-4,8.49,8.49,0,0,1,3.41-2.76,10.09,10.09,0,0,1,4.25-.81c.72,0,1.43.14,2.14.19l2.09.47-.14.32A9.68,9.68,0,0,1,120,74.52a14.82,14.82,0,0,1-1.53-3,20.84,20.84,0,0,1-.94-3.19c-.11-.55-.19-1.1-.28-1.65l-.17-1.66a.28.28,0,0,1,.25-.31h0a24,24,0,0,1,7.32.63,19.91,19.91,0,0,1,3.52,1.17,18.87,18.87,0,0,1,3.25,1.82l-.8.49a9.71,9.71,0,0,1,.27-3.91,8.3,8.3,0,0,1,1.9-3.43,9.33,9.33,0,0,1,3.23-2.2,15.14,15.14,0,0,1,1.84-.59c.63-.12,1.26-.21,1.89-.32a.45.45,0,0,1,.51.37.44.44,0,0,1-.09.34l0,0a9.76,9.76,0,0,0-1.68,3.17,6.11,6.11,0,0,0-.11,3.54,6.78,6.78,0,0,0,2,3c.45.43,1,.75,1.48,1.14l1.65.9h0a0,0,0,0,1,0,.06.05.05,0,0,1-.07,0l-1.73-.79c-.53-.36-1.11-.65-1.61-1.06a6.83,6.83,0,0,1-2.3-3.11,6.51,6.51,0,0,1-.07-3.93,10.73,10.73,0,0,1,1.74-3.54l.4.74-1.77.35a15.89,15.89,0,0,0-1.68.59,8.25,8.25,0,0,0-2.86,2,7.29,7.29,0,0,0-1.64,3,9.44,9.44,0,0,0-.29,3.46h0a.51.51,0,0,1-.45.57.53.53,0,0,1-.35-.09,18.41,18.41,0,0,0-3-1.77,20.73,20.73,0,0,0-3.34-1.19,24.58,24.58,0,0,0-3.5-.68,25.07,25.07,0,0,0-3.56-.19l.28-.32.09,1.63c.07.54.12,1.09.21,1.62a17.27,17.27,0,0,0,.82,3.16,14.63,14.63,0,0,0,1.45,2.91,8.62,8.62,0,0,0,2.21,2.33.18.18,0,0,1,0,.25.19.19,0,0,1-.18.07l-2.06-.41a18.09,18.09,0,0,0-2.08-.09,9.56,9.56,0,0,0-4,1,8.59,8.59,0,0,0-3,2.63,11.07,11.07,0,0,0-1.67,3.65l-.64-.46A13.65,13.65,0,0,1,113.1,82a12.22,12.22,0,0,1,4.39.12,12.56,12.56,0,0,1,4.06,1.57,15.68,15.68,0,0,1,1.77,1.25c.56.45,1.05,1,1.57,1.48a0,0,0,0,1,0,.07.06.06,0,0,1-.07,0Z"/>
        <g>
          <g>
            <g>
              <path class="cls-3" d="M141.41,89.42c.1,2.14-2.5,4.49-5,4.49s-5.13-1.58-5.23-3.71,2.33-4.33,4.83-4.33S141.31,87.29,141.41,89.42Z"/>
              <path class="cls-4" d="M141.51,89.42a5.32,5.32,0,0,1-1.3,3.5,5.25,5.25,0,0,1-3.53,2,6.49,6.49,0,0,1-4-1,5.69,5.69,0,0,1-1.56-1.46,3.92,3.92,0,0,1-.78-2.13,4.59,4.59,0,0,1,1.88-3.68,5.82,5.82,0,0,1,3.68-1.32,7,7,0,0,1,3.55,1.16A4.11,4.11,0,0,1,141.51,89.42Zm-.21,0a3,3,0,0,0-2.05-2.53,7.5,7.5,0,0,0-3.32-.5,4.52,4.52,0,0,0-2.8,1.3A3.08,3.08,0,0,0,132,90.21a2.82,2.82,0,0,0,1.71,1.94,7,7,0,0,0,2.84.7,5.92,5.92,0,0,0,2.9-.77A3.26,3.26,0,0,0,141.3,89.43Z"/>
            </g>
            <g>
              <path class="cls-3" d="M148.64,91c.94,2-.54,5-2.85,5.82s-5.34.09-6.28-1.91.45-4.84,2.75-5.62S147.7,89,148.64,91Z"/>
              <path class="cls-4" d="M148.73,90.91a5.11,5.11,0,0,1,.17,3.72,4.77,4.77,0,0,1-2.68,3.1,6.45,6.45,0,0,1-4.09.19,5.18,5.18,0,0,1-3.33-2.61,4.56,4.56,0,0,1,.3-4.1,5.2,5.2,0,0,1,3-2.48,6.77,6.77,0,0,1,3.71.08A4.58,4.58,0,0,1,148.73,90.91Zm-.19.09a3.26,3.26,0,0,0-2.77-1.76,7.16,7.16,0,0,0-3.3.49,4,4,0,0,0-2.16,2.1,3,3,0,0,0,0,2.73,3.16,3.16,0,0,0,2.3,1.34,6.94,6.94,0,0,0,2.91-.14,4.92,4.92,0,0,0,2.39-1.63A3.16,3.16,0,0,0,148.54,91Z"/>
            </g>
            <g>
              <path class="cls-3" d="M156.09,97.77c-.82,2-3.45,3-5.8,2.13s-4.14-3.17-3.31-5.14,4.07-3.13,6.42-2.28A4.13,4.13,0,0,1,156.09,97.77Z"/>
              <path class="cls-4" d="M156.19,97.81a5.21,5.21,0,0,1-2.45,2.68,4.93,4.93,0,0,1-3.92.35,6,6,0,0,1-3.18-2.43,4.77,4.77,0,0,1-.74-2,3.56,3.56,0,0,1,.43-2.2,5.28,5.28,0,0,1,3.2-2.31,6.39,6.39,0,0,1,3.75,0A4.69,4.69,0,0,1,156,94.35,4.48,4.48,0,0,1,156.19,97.81Zm-.19-.08a3.15,3.15,0,0,0-.39-3.16A4.49,4.49,0,0,0,153,92.9a5.16,5.16,0,0,0-3,.27A3.79,3.79,0,0,0,147.82,95a2.16,2.16,0,0,0,.51,2.26,6.27,6.27,0,0,0,2.24,1.68,5.57,5.57,0,0,0,2.83.54A3.14,3.14,0,0,0,156,97.73Z"/>
            </g>
            <g>
              <path class="cls-3" d="M161.76,103.33a4.6,4.6,0,0,1-5.8,2.14c-2.35-.85-4.14-3.17-3.31-5.14s4.06-3.13,6.42-2.29A4.13,4.13,0,0,1,161.76,103.33Z"/>
              <path class="cls-4" d="M161.86,103.37a5.21,5.21,0,0,1-2.45,2.68,4.94,4.94,0,0,1-3.92.35,6,6,0,0,1-3.18-2.43,4.77,4.77,0,0,1-.74-2,3.59,3.59,0,0,1,.43-2.2,5.32,5.32,0,0,1,3.2-2.31,6.39,6.39,0,0,1,3.75,0,4.75,4.75,0,0,1,2.71,2.45A4.48,4.48,0,0,1,161.86,103.37Zm-.19-.08a3.18,3.18,0,0,0-.39-3.16,4.46,4.46,0,0,0-2.62-1.66,5.24,5.24,0,0,0-3,.26,3.79,3.79,0,0,0-2.14,1.78,2.16,2.16,0,0,0,.51,2.27,6.42,6.42,0,0,0,2.23,1.67,5.63,5.63,0,0,0,2.84.54A3.15,3.15,0,0,0,161.67,103.29Z"/>
            </g>
            <g>
              <path class="cls-3" d="M168.23,107.35a4.9,4.9,0,0,1-6.33,2.32,4.1,4.1,0,0,1-2-5.41c.83-2,3.7-3.19,6.14-2.63C169.38,102.4,169.05,105.38,168.23,107.35Z"/>
              <path class="cls-4" d="M168.32,107.39a6.26,6.26,0,0,1-2.39,2.83,4.7,4.7,0,0,1-4,.58,4.75,4.75,0,0,1-3.05-3,5.24,5.24,0,0,1,.42-4.18,5.46,5.46,0,0,1,3.2-2.41,6.66,6.66,0,0,1,3.83-.06,4.13,4.13,0,0,1,1.69,1,3.11,3.11,0,0,1,.88,1.71A7.32,7.32,0,0,1,168.32,107.39Zm-.19-.08a4.51,4.51,0,0,0,.31-3.35,2.89,2.89,0,0,0-2.4-1.78,5.34,5.34,0,0,0-3.11.32,4.05,4.05,0,0,0-2.18,1.9,3.26,3.26,0,0,0,0,2.67,3.69,3.69,0,0,0,1.86,1.77,4.76,4.76,0,0,0,2.85.35A3.68,3.68,0,0,0,168.13,107.31Z"/>
            </g>
            <g>
              <path class="cls-3" d="M175.21,111.37c-.82,2-3.86,2.93-6.36,1.7a3.6,3.6,0,0,1-2-4.95,4.59,4.59,0,0,1,5.81-2.16C175.88,107.19,176,109.39,175.21,111.37Z"/>
              <path class="cls-4" d="M175.31,111.41a5.27,5.27,0,0,1-6.31,2.85,5.92,5.92,0,0,1-1.77-.94,4.48,4.48,0,0,1-1.33-1.69,4.28,4.28,0,0,1-.3-2.14,5.08,5.08,0,0,1,7.39-4,4.66,4.66,0,0,1,2.54,2.49A4.91,4.91,0,0,1,175.31,111.41Zm-.19-.08a3.38,3.38,0,0,0,0-3.14,4.59,4.59,0,0,0-2.54-1.7,4.22,4.22,0,0,0-2.89,0,3.46,3.46,0,0,0-2,1.79,3.77,3.77,0,0,0-.26,1.31,2.19,2.19,0,0,0,.32,1.12,4.3,4.3,0,0,0,2,1.57,6.31,6.31,0,0,0,2.79.58A3,3,0,0,0,175.12,111.33Z"/>
            </g>
            <g>
              <path class="cls-3" d="M183.78,114.38c-.87,2.08-4.34,3-7.29,1.6-2.61-1.26-3.37-3.3-2.49-5.38s3.9-3.17,6.64-2.12C184.38,109.92,184.66,112.29,183.78,114.38Z"/>
              <path class="cls-4" d="M183.88,114.42a5.1,5.1,0,0,1-2.92,2.63,6.3,6.3,0,0,1-4.2.17,7.66,7.66,0,0,1-1.94-1,5.29,5.29,0,0,1-1.55-1.7,4.33,4.33,0,0,1-.54-2.33,5,5,0,0,1,.62-2.19,5.1,5.1,0,0,1,3.53-2.45,6.78,6.78,0,0,1,4.06.46,6,6,0,0,1,3,2.59A4.71,4.71,0,0,1,183.88,114.42Zm-.19-.08a3.39,3.39,0,0,0-.16-3.48,6,6,0,0,0-3-1.85,5.53,5.53,0,0,0-3.34-.11,3.62,3.62,0,0,0-2.37,1.88,2.71,2.71,0,0,0,.2,2.7,6.1,6.1,0,0,0,2.44,1.78,8.2,8.2,0,0,0,3.23.7A3.28,3.28,0,0,0,183.69,114.34Z"/>
            </g>
            <g>
              <path class="cls-3" d="M191.12,118.14c-.87,2.09-4,3.16-6.44,1.91a3.72,3.72,0,0,1-1.9-5.16,4.69,4.69,0,0,1,5.91-2.38C191.88,113.75,192,116.06,191.12,118.14Z"/>
              <path class="cls-4" d="M191.22,118.18a5.32,5.32,0,0,1-2.48,2.68,5,5,0,0,1-3.93.38,5.74,5.74,0,0,1-1.83-1,4.34,4.34,0,0,1-1.28-1.8,4.44,4.44,0,0,1-.21-2.18,5.83,5.83,0,0,1,.64-1.94,5.38,5.38,0,0,1,6.88-2.24,4.45,4.45,0,0,1,2.53,2.62A5.45,5.45,0,0,1,191.22,118.18Zm-.2-.08a3.63,3.63,0,0,0,.12-3.24,4.3,4.3,0,0,0-2.52-1.82,4,4,0,0,0-5,2,3.08,3.08,0,0,0,0,2.59,4,4,0,0,0,1.93,1.65,5.9,5.9,0,0,0,2.86.5A3.14,3.14,0,0,0,191,118.1Z"/>
            </g>
            <g>
              <path class="cls-3" d="M199.11,119.4a4.81,4.81,0,0,1-5.74,3.71c-2.41-.69-4.44-1.86-4.08-5.1.25-2.24,3.82-3.7,6.28-3.25C199,115.39,199.46,117.18,199.11,119.4Z"/>
              <path class="cls-4" d="M199.21,119.42a6.16,6.16,0,0,1-1.76,3.41,4.58,4.58,0,0,1-4,1.36,8.85,8.85,0,0,1-2-.6,5.91,5.91,0,0,1-1.81-1.24,4.63,4.63,0,0,1-1.12-2,5.58,5.58,0,0,1-.1-2.14,3.81,3.81,0,0,1,.3-1.14,3.63,3.63,0,0,1,.65-1,5.39,5.39,0,0,1,1.71-1.22,7.67,7.67,0,0,1,3.88-.7,7.22,7.22,0,0,1,1.89.52,4.59,4.59,0,0,1,1.6,1.12A4.38,4.38,0,0,1,199.21,119.42Zm-.2,0a4.9,4.9,0,0,0,0-1.79,2.43,2.43,0,0,0-.87-1.46,5.81,5.81,0,0,0-3.25-.91,6.33,6.33,0,0,0-3.19.86,2.68,2.68,0,0,0-1.62,2.22,2.93,2.93,0,0,0,1,2.56,8.55,8.55,0,0,0,2.77,1.29,4.33,4.33,0,0,0,2.93-.23A3.74,3.74,0,0,0,199,119.38Z"/>
            </g>
            <g>
              <path class="cls-3" d="M204.9,121.62a3.88,3.88,0,0,1-4.65,3c-2-.56-3.6-1.5-3.31-4.13.21-1.82,3.1-3,5.1-2.64C204.78,118.37,205.19,119.82,204.9,121.62Z"/>
              <path class="cls-4" d="M205,121.64a5.31,5.31,0,0,1-1.39,2.85,3.77,3.77,0,0,1-3.36,1.21,6.78,6.78,0,0,1-1.64-.49,4.83,4.83,0,0,1-1.51-1.06,3.68,3.68,0,0,1-.94-1.73,4.6,4.6,0,0,1-.07-1.8,2.66,2.66,0,0,1,.26-1,3.12,3.12,0,0,1,.55-.81,4.74,4.74,0,0,1,1.44-1,6.25,6.25,0,0,1,3.21-.55,5.25,5.25,0,0,1,1.55.45,3.51,3.51,0,0,1,1.31,1A3.69,3.69,0,0,1,205,121.64Zm-.21,0a2.49,2.49,0,0,0-.69-2.61,4.76,4.76,0,0,0-2.61-.67A5.14,5.14,0,0,0,199,119a3.27,3.27,0,0,0-.92.79,1.44,1.44,0,0,0-.23.44.63.63,0,0,0-.05.22,1.42,1.42,0,0,0,0,.26,2.17,2.17,0,0,0,.78,1.91,7.26,7.26,0,0,0,2.15,1,3.6,3.6,0,0,0,2.28-.08A2.84,2.84,0,0,0,204.8,121.61Z"/>
            </g>
            <g>
              <path class="cls-3" d="M208.3,128.48c-2.43-.26-5.46-1.93-5-4.15.43-2,2.17-3.42,5.69-3.16a4.21,4.21,0,0,1,3.53,4.87C212.18,127.72,210.72,128.74,208.3,128.48Z"/>
              <path class="cls-4" d="M208.29,128.59a13.92,13.92,0,0,1-3.4-.67,5,5,0,0,1-1.65-1,3.18,3.18,0,0,1-1-2,4.16,4.16,0,0,1,.5-2.14,4.32,4.32,0,0,1,1.44-1.56,6.67,6.67,0,0,1,3.71-.92,7.9,7.9,0,0,1,1.86.22,4.23,4.23,0,0,1,1.72,1,5.13,5.13,0,0,1,1.64,3.29,3.41,3.41,0,0,1-1.52,3.2A5.49,5.49,0,0,1,208.29,128.59Zm0-.21a3.59,3.59,0,0,0,3-.75,3,3,0,0,0,.74-2.71,4,4,0,0,0-1.48-2.39,2.86,2.86,0,0,0-1.2-.53,6.82,6.82,0,0,0-1.44,0,4.46,4.46,0,0,0-2.56.93,3,3,0,0,0-.73.9,3.19,3.19,0,0,0-.33,1,3,3,0,0,0,1.13,2.12A5.44,5.44,0,0,0,208.31,128.38Z"/>
            </g>
          </g>
          <g>
            <g>
              <path class="cls-3" d="M137.17,95.6c.11,2.35-2.34,4.64-5.09,4.64s-5.53-1-5.65-3.4,2.4-5.41,5.14-5.41S137.05,93.26,137.17,95.6Z"/>
              <path class="cls-4" d="M137.27,95.6a5.58,5.58,0,0,1-5.25,5.68,8,8,0,0,1-4.18-.92,4.8,4.8,0,0,1-1.74-1.65,3.71,3.71,0,0,1-.49-2.41,6.46,6.46,0,0,1,2.06-3.75,5.62,5.62,0,0,1,3.86-1.64,6.53,6.53,0,0,1,3.75,1.42A4.8,4.8,0,0,1,137.27,95.6Zm-.21,0a3.52,3.52,0,0,0-2-2.92,6.63,6.63,0,0,0-3.49-.73,5.1,5.1,0,0,0-4.26,4.49,2.11,2.11,0,0,0,1.51,2.07,9.64,9.64,0,0,0,3.24.67,5.69,5.69,0,0,0,3.15-.69A3.38,3.38,0,0,0,137.06,95.61Z"/>
            </g>
            <g>
              <path class="cls-3" d="M145,98.39c.12,2.34-2.34,4.63-5.08,4.63s-5.53-1-5.65-3.4,2.39-5.41,5.13-5.41S144.85,96,145,98.39Z"/>
              <path class="cls-4" d="M145.07,98.38a5.62,5.62,0,0,1-5.25,5.69,8,8,0,0,1-4.18-.93,4.8,4.8,0,0,1-1.74-1.65,3.65,3.65,0,0,1-.49-2.41,6.4,6.4,0,0,1,2.06-3.75,5.6,5.6,0,0,1,3.86-1.64,6.55,6.55,0,0,1,3.74,1.42A4.85,4.85,0,0,1,145.07,98.38Zm-.21,0a3.54,3.54,0,0,0-2-2.92,6.85,6.85,0,0,0-3.5-.73,5.09,5.09,0,0,0-4.25,4.49,2.11,2.11,0,0,0,1.51,2.07,9.59,9.59,0,0,0,3.24.67,5.79,5.79,0,0,0,3.15-.68A3.43,3.43,0,0,0,144.86,98.39Z"/>
            </g>
            <g>
              <path class="cls-3" d="M153.46,101.59c-.71,2.23-3.89,3.69-6.53,2.93s-5-2.52-4.24-4.75,4.21-4.4,6.85-3.64S154.18,99.36,153.46,101.59Z"/>
              <path class="cls-4" d="M153.56,101.62a5.86,5.86,0,0,1-2.52,3.12,5.67,5.67,0,0,1-4.25.82,7.79,7.79,0,0,1-3.83-2,4.38,4.38,0,0,1-1.21-2.12A3.54,3.54,0,0,1,142.1,99a6.92,6.92,0,0,1,3.17-2.86,6.15,6.15,0,0,1,4.14-.56,6.22,6.22,0,0,1,3.29,2.32A4.39,4.39,0,0,1,153.56,101.62Zm-.2-.06a3.25,3.25,0,0,0-1-3.38,6.2,6.2,0,0,0-3.19-1.59,5.09,5.09,0,0,0-3.28.74,5.51,5.51,0,0,0-2.29,2.38c-.85,1.83,1.64,3.13,3.71,3.83a6.37,6.37,0,0,0,3.27.17A3.68,3.68,0,0,0,153.36,101.56Z"/>
            </g>
            <g>
              <path class="cls-3" d="M158.07,106.27c.1,2-1.74,3.7-4.1,3.7a4.26,4.26,0,0,1-4.45-3.7c-.1-2,1.73-3.71,4.09-3.71A4.27,4.27,0,0,1,158.07,106.27Z"/>
              <path class="cls-4" d="M158.17,106.26a4.31,4.31,0,0,1-1,3.18,4.46,4.46,0,0,1-3.29,1.58,5.11,5.11,0,0,1-3.53-1.27,4.76,4.76,0,0,1-1.65-3.44,4.11,4.11,0,0,1,1.68-3.31,5,5,0,0,1,3.36-1A4.85,4.85,0,0,1,158.17,106.26Zm-.21,0a3,3,0,0,0-1.48-2.51,4.81,4.81,0,0,0-2.78-.68,3.92,3.92,0,0,0-2.48,1,2.54,2.54,0,0,0-.86,2.17,2.68,2.68,0,0,0,1.26,1.91,4.79,4.79,0,0,0,2.28.79,4.93,4.93,0,0,0,2.54-.34A2.55,2.55,0,0,0,158,106.27Z"/>
            </g>
            <g>
              <path class="cls-3" d="M164.83,109.28a4.13,4.13,0,0,1-4.42,4.09,4.65,4.65,0,0,1-4.82-4.09,4.14,4.14,0,0,1,4.42-4.1A4.65,4.65,0,0,1,164.83,109.28Z"/>
              <path class="cls-4" d="M164.93,109.27a4.72,4.72,0,0,1-1.09,3.45,4.79,4.79,0,0,1-3.56,1.69,5.41,5.41,0,0,1-3.8-1.39,5.16,5.16,0,0,1-1.73-3.7,4.46,4.46,0,0,1,1.75-3.57,5.31,5.31,0,0,1,3.62-1.08A5.23,5.23,0,0,1,164.93,109.27Zm-.2,0a3.45,3.45,0,0,0-1.59-2.77,5.07,5.07,0,0,0-3-.8,4.16,4.16,0,0,0-2.72,1.07,3,3,0,0,0-1,2.46,3.14,3.14,0,0,0,1.38,2.18,5,5,0,0,0,2.52.9,5.09,5.09,0,0,0,2.79-.45A2.88,2.88,0,0,0,164.73,109.28Z"/>
            </g>
            <g>
              <path class="cls-3" d="M171.66,113.76c.12,2.26-1.86,4.09-4.42,4.09a4.65,4.65,0,0,1-4.82-4.09c-.11-2.26,2.61-5,5.16-5S171.55,111.5,171.66,113.76Z"/>
              <path class="cls-4" d="M171.77,113.75a4.72,4.72,0,0,1-1.24,3.57,4.87,4.87,0,0,1-3.79,1.56,5.51,5.51,0,0,1-3.85-1.77,4.86,4.86,0,0,1-1.25-4.12,6.09,6.09,0,0,1,2.21-3.37,5.8,5.8,0,0,1,3.67-1.4,3.52,3.52,0,0,1,1.92.63,4.35,4.35,0,0,1,1.28,1.43A8.84,8.84,0,0,1,171.77,113.75Zm-.21,0a5.17,5.17,0,0,0-1.2-3.23,3.37,3.37,0,0,0-2.82-1.27,5.12,5.12,0,0,0-4.25,4,2.88,2.88,0,0,0,1.07,2.39,5,5,0,0,0,2.54,1.14,5.11,5.11,0,0,0,2.94-.35A2.94,2.94,0,0,0,171.56,113.76Z"/>
            </g>
            <g>
              <path class="cls-3" d="M175.75,120.44a5.08,5.08,0,0,1-6.49-.92,3.75,3.75,0,0,1,.74-5.72c2-1.33,6.22-.9,7.8.94S177.75,119.12,175.75,120.44Z"/>
              <path class="cls-4" d="M175.81,120.53a6.4,6.4,0,0,1-3.61,1.18,5,5,0,0,1-3.81-1.6,4.56,4.56,0,0,1-1-4.3,4.9,4.9,0,0,1,3-3.13,7.83,7.83,0,0,1,4-.24,6.86,6.86,0,0,1,3.56,1.64,3,3,0,0,1,.9,1.87,3.47,3.47,0,0,1-.46,1.91A8.94,8.94,0,0,1,175.81,120.53Zm-.12-.17a5.26,5.26,0,0,0,2.23-2.68,2.71,2.71,0,0,0,.09-1.61,2.28,2.28,0,0,0-.83-1.22,5.79,5.79,0,0,0-3-1.07,6.42,6.42,0,0,0-3.15.45,2.91,2.91,0,0,0-1.63,2.08,3.3,3.3,0,0,0,.63,2.47,5.2,5.2,0,0,0,2.37,1.82A3.78,3.78,0,0,0,175.69,120.36Z"/>
            </g>
            <g>
              <path class="cls-3" d="M183.3,124a5.1,5.1,0,0,1-6.49-.92,3.76,3.76,0,0,1,.74-5.73c2-1.32,6.22-.89,7.8.94S185.3,122.71,183.3,124Z"/>
              <path class="cls-4" d="M183.36,124.12a6.4,6.4,0,0,1-3.61,1.18,5,5,0,0,1-3.81-1.6,4.56,4.56,0,0,1-1-4.3,4.92,4.92,0,0,1,3-3.13,7.83,7.83,0,0,1,4-.24,6.79,6.79,0,0,1,3.56,1.65,3,3,0,0,1,.9,1.86,3.47,3.47,0,0,1-.46,1.91A8.82,8.82,0,0,1,183.36,124.12Zm-.12-.17a5.24,5.24,0,0,0,2.23-2.67,2.8,2.8,0,0,0,.09-1.61,2.24,2.24,0,0,0-.83-1.22,5.63,5.63,0,0,0-3-1.07,6.31,6.31,0,0,0-3.15.44,2.91,2.91,0,0,0-1.63,2.08,3.28,3.28,0,0,0,.63,2.47,5.28,5.28,0,0,0,2.37,1.83A3.82,3.82,0,0,0,183.24,124Z"/>
            </g>
            <g>
              <path class="cls-3" d="M192.66,123.26c.11,2-1.72,3.71-4.08,3.71a4.27,4.27,0,0,1-4.45-3.71c-.1-2.05,1.73-3.71,4.09-3.71A4.26,4.26,0,0,1,192.66,123.26Z"/>
              <path class="cls-4" d="M192.77,123.26a4.31,4.31,0,0,1-1,3.18,4.43,4.43,0,0,1-3.29,1.57,5.08,5.08,0,0,1-3.53-1.26,4.78,4.78,0,0,1-1.63-3.45A4.07,4.07,0,0,1,185,120a5,5,0,0,1,3.36-1A4.84,4.84,0,0,1,192.77,123.26Zm-.21,0a3,3,0,0,0-1.48-2.51,4.76,4.76,0,0,0-2.77-.68,3.81,3.81,0,0,0-2.48,1,2.54,2.54,0,0,0-.86,2.17,2.69,2.69,0,0,0,1.26,1.91,5.31,5.31,0,0,0,4.81.44A2.53,2.53,0,0,0,192.56,123.27Z"/>
            </g>
            <g>
              <path class="cls-3" d="M201.14,125.66c.11,2.17-2.07,3.94-4.86,3.94s-5.13-1.77-5.24-3.94,2.07-3.94,4.86-3.94S201,123.48,201.14,125.66Z"/>
              <path class="cls-4" d="M201.24,125.65a4.37,4.37,0,0,1-1.39,3.45,5.55,5.55,0,0,1-3.69,1.54,6.24,6.24,0,0,1-3.91-1.22,4.87,4.87,0,0,1-2-3.72,4.21,4.21,0,0,1,2-3.58,6.34,6.34,0,0,1,3.75-.92,6,6,0,0,1,3.46,1.37A4.59,4.59,0,0,1,201.24,125.65Zm-.21,0a3.27,3.27,0,0,0-1.81-2.73,6.3,6.3,0,0,0-3.22-.69,5.18,5.18,0,0,0-3,1,2.71,2.71,0,0,0-1.16,2.39,2.9,2.9,0,0,0,1.54,2.09,6.41,6.41,0,0,0,2.77.84,6.7,6.7,0,0,0,3-.37A2.75,2.75,0,0,0,201,125.66Z"/>
            </g>
            <g>
              <path class="cls-3" d="M209,129.67c.1,2.18-2.07,4-4.86,4s-5.14-1.77-5.24-4,2.07-3.94,4.85-3.94S208.89,127.5,209,129.67Z"/>
              <path class="cls-4" d="M209.1,129.67a4.35,4.35,0,0,1-1.4,3.45,5.51,5.51,0,0,1-3.69,1.54,6.23,6.23,0,0,1-3.9-1.22,4.88,4.88,0,0,1-2.05-3.72,4.25,4.25,0,0,1,2.06-3.59,6.31,6.31,0,0,1,3.75-.91,6,6,0,0,1,3.46,1.36A4.68,4.68,0,0,1,209.1,129.67Zm-.21,0a3.26,3.26,0,0,0-1.81-2.73,6.14,6.14,0,0,0-3.23-.69,5.17,5.17,0,0,0-2.95,1,2.7,2.7,0,0,0-1.17,2.38,2.91,2.91,0,0,0,1.55,2.1,6.54,6.54,0,0,0,2.77.84,6.82,6.82,0,0,0,3-.37A2.74,2.74,0,0,0,208.89,129.68Z"/>
            </g>
          </g>
          <g>
            <g>
              <ellipse class="cls-3" cx="129.39" cy="103.95" rx="4.01" ry="4.89" transform="matrix(0.1, -0.99, 0.99, 0.1, 12.86, 222.13)"/>
              <path class="cls-4" d="M134.37,103.94a4.48,4.48,0,0,1-1.27,3.46,5.18,5.18,0,0,1-3.64,1.61,5.88,5.88,0,0,1-3.86-1.3,5,5,0,0,1-1.92-3.72,4.33,4.33,0,0,1,1.93-3.59,5.91,5.91,0,0,1,3.7-1A5.39,5.39,0,0,1,134.37,103.94Zm-.21,0a3.32,3.32,0,0,0-1.72-2.76,5.67,5.67,0,0,0-3.14-.73,4.68,4.68,0,0,0-2.87,1,2.83,2.83,0,0,0-1.08,2.43,3,3,0,0,0,1.48,2.14,6,6,0,0,0,2.67.87,6.1,6.1,0,0,0,2.93-.41A2.81,2.81,0,0,0,134.16,104Z"/>
            </g>
            <g>
              <path class="cls-3" d="M143.28,106.73a4.42,4.42,0,0,1-4.65,4.48,5,5,0,0,1-5.1-4.48,4.43,4.43,0,0,1,4.66-4.48A5,5,0,0,1,143.28,106.73Z"/>
              <path class="cls-4" d="M143.39,106.72a5.21,5.21,0,0,1-1.12,3.7,5,5,0,0,1-3.78,1.83,5.65,5.65,0,0,1-4-1.55,5.52,5.52,0,0,1-1.77-3.93,4.85,4.85,0,0,1,1.77-3.82,5.51,5.51,0,0,1,3.84-1.22,5.32,5.32,0,0,1,3.5,1.64A5.51,5.51,0,0,1,143.39,106.72Zm-.21,0a3.85,3.85,0,0,0-1.65-3,5.24,5.24,0,0,0-3.24-.92,4.29,4.29,0,0,0-2.91,1.18,3.33,3.33,0,0,0-1,2.73,3.51,3.51,0,0,0,1.46,2.45,5.44,5.44,0,0,0,5.69.44A3.23,3.23,0,0,0,143.18,106.73Z"/>
            </g>
            <g>
              <path class="cls-3" d="M150.51,111.46c-1.55,2.3-4.51,3.21-6.62,2s-2.58-4-1-6.27,4.5-3.2,6.61-2S152.05,109.17,150.51,111.46Z"/>
              <path class="cls-4" d="M150.59,111.52a7.91,7.91,0,0,1-2.75,2.7,4.73,4.73,0,0,1-4.23.31,4.47,4.47,0,0,1-2.64-3.65,6,6,0,0,1,1.19-4.11,6.61,6.61,0,0,1,3.32-2.41,5.21,5.21,0,0,1,4,.28,3.94,3.94,0,0,1,2.06,3.3A6.06,6.06,0,0,1,150.59,111.52Zm-.17-.11a4.2,4.2,0,0,0,.73-3.41,3.49,3.49,0,0,0-2.09-2.42,4,4,0,0,0-3.12.06,5.12,5.12,0,0,0-2.39,2.06,3.93,3.93,0,0,0-.53,2.87,3.09,3.09,0,0,0,1.51,2.08,4.63,4.63,0,0,0,2.93.52A4.46,4.46,0,0,0,150.42,111.41Z"/>
            </g>
            <g>
              <ellipse class="cls-3" cx="153.39" cy="113.5" rx="4.7" ry="4" transform="translate(-8.83 13.02) rotate(-4.72)"/>
              <path class="cls-4" d="M155.76,117a7.52,7.52,0,0,1-3.47,1,4.6,4.6,0,0,1-3.64-1.54,4.21,4.21,0,0,1-.79-4.17,5.31,5.31,0,0,1,2.82-2.93,5.83,5.83,0,0,1,7,1.55,3.71,3.71,0,0,1,.42,3.61A5.28,5.28,0,0,1,155.76,117Zm-.1-.18a3.58,3.58,0,0,0,2.05-2.47,3.27,3.27,0,0,0-.82-2.83,4.48,4.48,0,0,0-5.45-.71,3.25,3.25,0,0,0-1.6,2,2.88,2.88,0,0,0,.45,2.27,4.81,4.81,0,0,0,2.19,1.73A4,4,0,0,0,155.66,116.84Z"/>
            </g>
            <g>
              <path class="cls-3" d="M162.5,120.48a5.08,5.08,0,0,1-6.4-1.35c-1.29-1.89-.5-4.35,1.75-5.5a5.09,5.09,0,0,1,6.4,1.35C165.54,116.88,164.75,119.34,162.5,120.48Z"/>
              <path class="cls-4" d="M162.55,120.58a7.64,7.64,0,0,1-3.47,1,4.66,4.66,0,0,1-3.64-1.54,4.23,4.23,0,0,1-.79-4.18,5.31,5.31,0,0,1,2.82-2.93,5.83,5.83,0,0,1,7,1.55,3.72,3.72,0,0,1,.42,3.62A5.37,5.37,0,0,1,162.55,120.58Zm-.1-.19a3.56,3.56,0,0,0,2.05-2.47,3.28,3.28,0,0,0-.82-2.83,4.5,4.5,0,0,0-5.45-.71,3.23,3.23,0,0,0-1.6,2.06,2.85,2.85,0,0,0,.45,2.26,4.77,4.77,0,0,0,2.18,1.73A4,4,0,0,0,162.45,120.39Z"/>
            </g>
            <g>
              <ellipse class="cls-3" cx="166.56" cy="122.02" rx="4.34" ry="5.13" transform="translate(22.67 270.1) rotate(-82.05)"/>
              <path class="cls-4" d="M166.5,126.47a7.94,7.94,0,0,1-3.78-1,4.51,4.51,0,0,1-2.32-3.64,4.57,4.57,0,0,1,2.1-4,6.52,6.52,0,0,1,4.16-1,6.7,6.7,0,0,1,3.82,1.61,4.9,4.9,0,0,1,1.72,3.74,4.09,4.09,0,0,1-2.06,3.35A6.82,6.82,0,0,1,166.5,126.47Zm0-.21a4.5,4.5,0,0,0,3.37-1.07,3.58,3.58,0,0,0-.27-5.69,5.18,5.18,0,0,0-3-1,4.43,4.43,0,0,0-2.85,1,3.31,3.31,0,0,0-1.24,2.33,4.11,4.11,0,0,0,.95,2.79A4.41,4.41,0,0,0,166.51,126.26Z"/>
            </g>
            <g>
              <path class="cls-3" d="M175.55,129.92c-2.82-.14-5.09-2.2-5.05-4.6s2.35-4.23,5.18-4.09,5.09,2.2,5,4.6S178.38,130.06,175.55,129.92Z"/>
              <path class="cls-4" d="M175.55,130a7.88,7.88,0,0,1-3.77-1,4.48,4.48,0,0,1-2.32-3.64,4.58,4.58,0,0,1,2.09-4,6.55,6.55,0,0,1,4.17-1,6.64,6.64,0,0,1,3.81,1.62,4.87,4.87,0,0,1,1.72,3.73,4.1,4.1,0,0,1-2.05,3.35A6.87,6.87,0,0,1,175.55,130Zm0-.21a4.54,4.54,0,0,0,3.37-1.08,3.66,3.66,0,0,0,1.28-3,3.7,3.7,0,0,0-1.55-2.7,5.13,5.13,0,0,0-3-1,4.38,4.38,0,0,0-2.85,1,3.24,3.24,0,0,0-1.23,2.33,4.11,4.11,0,0,0,.94,2.79A4.49,4.49,0,0,0,175.56,129.82Z"/>
            </g>
            <g>
              <path class="cls-3" d="M184.45,133.78c-2.83-.14-5.09-2.19-5.06-4.6s2.35-4.23,5.18-4.09,5.09,2.2,5.06,4.6S187.27,133.92,184.45,133.78Z"/>
              <path class="cls-4" d="M184.44,133.89a7.8,7.8,0,0,1-3.77-1,4.5,4.5,0,0,1-2.32-3.63,4.6,4.6,0,0,1,2.09-4,6.7,6.7,0,0,1,8,.61,4.91,4.91,0,0,1,1.73,3.73,4.12,4.12,0,0,1-2.06,3.36A7,7,0,0,1,184.44,133.89Zm0-.21a4.52,4.52,0,0,0,3.38-1.08,3.57,3.57,0,0,0-.27-5.68,5,5,0,0,0-3-1,4.42,4.42,0,0,0-2.86,1,3.28,3.28,0,0,0-1.23,2.33,4.1,4.1,0,0,0,.94,2.79A4.41,4.41,0,0,0,184.45,133.68Z"/>
            </g>
            <g>
              <path class="cls-3" d="M193,135.35c-2.65-.14-4.78-1.78-4.75-3.68s2.19-3.33,4.84-3.2,4.78,1.78,4.75,3.68S195.67,135.48,193,135.35Z"/>
              <path class="cls-4" d="M193,135.45a9.33,9.33,0,0,1-3.38-.6,4.13,4.13,0,0,1-1.57-1.1,3.27,3.27,0,0,1-.19-4.16,4.39,4.39,0,0,1,1.59-1.34,7,7,0,0,1,3.69-.61,7.14,7.14,0,0,1,3.41,1.22,4,4,0,0,1,1.82,3.21,2.84,2.84,0,0,1-.69,1.76,3.87,3.87,0,0,1-1.43,1A8.14,8.14,0,0,1,193,135.45Zm0-.21a4.6,4.6,0,0,0,3-.77,2.72,2.72,0,0,0,1.28-2.39,2.76,2.76,0,0,0-1.52-2.08,5.55,5.55,0,0,0-2.74-.69,4.75,4.75,0,0,0-2.59.75,2.3,2.3,0,0,0-1.16,1.67,2.93,2.93,0,0,0,.93,2.19A4.42,4.42,0,0,0,193,135.24Z"/>
            </g>
            <g>
              <ellipse class="cls-3" cx="200.01" cy="135" rx="4.65" ry="3.55" transform="translate(-28.54 57.59) rotate(-15.31)"/>
              <path class="cls-4" d="M202,138.13a9.21,9.21,0,0,1-3.24,1,4.13,4.13,0,0,1-3.59-1.32,3.63,3.63,0,0,1-.85-2,3.89,3.89,0,0,1,.45-2.1,5.86,5.86,0,0,1,2.86-2.51,6.87,6.87,0,0,1,3.58-.5,4.68,4.68,0,0,1,3.16,1.76,3.07,3.07,0,0,1,.56,1.77,3.34,3.34,0,0,1-.49,1.69A6.35,6.35,0,0,1,202,138.13Zm-.1-.19a3.87,3.87,0,0,0,2.14-2.19,2.58,2.58,0,0,0-.5-2.64,3.43,3.43,0,0,0-2.47-1,5.23,5.23,0,0,0-2.71.65,3.73,3.73,0,0,0-1.71,1.88,2.1,2.1,0,0,0,.17,2,3.9,3.9,0,0,0,2,1.48A4.26,4.26,0,0,0,201.94,137.94Z"/>
            </g>
          </g>
          <g>
            <g>
              <ellipse class="cls-3" cx="130.32" cy="112.29" rx="4.16" ry="4.89" transform="translate(2.08 226.96) rotate(-82.55)"/>
              <path class="cls-4" d="M135.3,112.29a4.7,4.7,0,0,1-1.21,3.53,5.08,5.08,0,0,1-3.69,1.68,5.77,5.77,0,0,1-3.92-1.37,5.2,5.2,0,0,1-1.87-3.8,4.49,4.49,0,0,1,1.88-3.66,5.75,5.75,0,0,1,3.75-1.07A5.43,5.43,0,0,1,135.3,112.29Zm-.21,0a3.5,3.5,0,0,0-1.69-2.86,5.57,5.57,0,0,0-3.18-.79,4.49,4.49,0,0,0-2.88,1.08,2.93,2.93,0,0,0-1,2.52,3.16,3.16,0,0,0,1.46,2.25,5.64,5.64,0,0,0,2.69.91,5.58,5.58,0,0,0,2.95-.46A2.93,2.93,0,0,0,135.09,112.3Z"/>
            </g>
            <g>
              <path class="cls-3" d="M144.93,115.46a4.7,4.7,0,0,1-5,4.71,5.3,5.3,0,0,1-5.46-4.71,4.71,4.71,0,0,1,5-4.71A5.29,5.29,0,0,1,144.93,115.46Z"/>
              <path class="cls-4" d="M145,115.45a5.3,5.3,0,0,1-5.24,5.76,6.05,6.05,0,0,1-4.23-1.59,5.74,5.74,0,0,1-1.91-4.12,5,5,0,0,1,1.9-4,5.94,5.94,0,0,1,4.06-1.26A5.88,5.88,0,0,1,145,115.45Zm-.21,0a4,4,0,0,0-1.78-3.2,5.71,5.71,0,0,0-3.45-1,4.73,4.73,0,0,0-3.15,1.25,3.54,3.54,0,0,0-1.12,2.9,3.76,3.76,0,0,0,1.57,2.62,6,6,0,0,0,6.16.45A3.39,3.39,0,0,0,144.82,115.46Z"/>
            </g>
            <g>
              <ellipse class="cls-3" cx="148.58" cy="118.94" rx="4.77" ry="4.41" transform="translate(-9.93 13.6) rotate(-5.07)"/>
              <path class="cls-4" d="M152.92,120.94a6.24,6.24,0,0,1-2.66,2.7,5.07,5.07,0,0,1-4.1.28,5,5,0,0,1-3-3.08,5.11,5.11,0,0,1,.48-4.26,5.68,5.68,0,0,1,7.2-2.15,4.66,4.66,0,0,1,2.48,2.89A5,5,0,0,1,152.92,120.94Zm-.18-.1a3.49,3.49,0,0,0,.13-3.36,4.48,4.48,0,0,0-7.8-.09,3.07,3.07,0,0,0,0,2.71A4,4,0,0,0,147,122a5.47,5.47,0,0,0,2.95.58A3.67,3.67,0,0,0,152.74,120.84Z"/>
            </g>
            <g>
              <path class="cls-3" d="M162,123.73c-1,1.79-3.68,2.37-6,1.29s-3.45-3.4-2.47-5.19,3.67-2.37,6-1.29S163,121.94,162,123.73Z"/>
              <path class="cls-4" d="M162.08,123.78a5.26,5.26,0,0,1-6.4,2.25,5.46,5.46,0,0,1-3-2.54,4.23,4.23,0,0,1,0-4.07,4.47,4.47,0,0,1,3.28-2,6.22,6.22,0,0,1,3.55.59C161.74,119,163.13,121.68,162.08,123.78Zm-.18-.1a2.7,2.7,0,0,0-.25-3,5.18,5.18,0,0,0-2.48-1.73,5,5,0,0,0-2.9-.21,2.94,2.94,0,0,0-2.05,1.48,2.2,2.2,0,0,0,.31,2.22,5.22,5.22,0,0,0,2,1.66,6.87,6.87,0,0,0,2.71.82A2.89,2.89,0,0,0,161.9,123.68Z"/>
            </g>
            <g>
              <path class="cls-3" d="M167.39,129.75c-1,1.79-4.13,2.11-6.28,1.13s-3.09-3.24-2.11-5,4.42-2.34,6.57-1.35A3.8,3.8,0,0,1,167.39,129.75Z"/>
              <path class="cls-4" d="M167.48,129.8a4.79,4.79,0,0,1-2.77,2.12,5.77,5.77,0,0,1-3.72,0,4.94,4.94,0,0,1-3-2.68,4.2,4.2,0,0,1,.39-4.07,5,5,0,0,1,3.41-1.76,7.21,7.21,0,0,1,3.56.41,4,4,0,0,1,2.36,2.61A4.61,4.61,0,0,1,167.48,129.8Zm-.18-.1a3.12,3.12,0,0,0,0-3.06,3.62,3.62,0,0,0-2.31-1.79,6,6,0,0,0-3-.06,3.51,3.51,0,0,0-2.24,1.35,2.21,2.21,0,0,0,.08,2.25,4.23,4.23,0,0,0,1.86,1.62,8.4,8.4,0,0,0,2.79.8A2.86,2.86,0,0,0,167.3,129.7Z"/>
            </g>
            <g>
              <path class="cls-3" d="M176.35,132.36c-.42,2.21-3.51,3.44-6,3a4.35,4.35,0,0,1-3.77-4.83c.41-2.21,3.72-3.77,6.22-3.31A4.5,4.5,0,0,1,176.35,132.36Z"/>
              <path class="cls-4" d="M176.45,132.38a4.71,4.71,0,0,1-2.22,3,5.86,5.86,0,0,1-3.9,1,5.36,5.36,0,0,1-3.71-2.09,4.79,4.79,0,0,1-.79-4.24,5,5,0,0,1,2.93-2.89,7,7,0,0,1,3.85-.52,4.52,4.52,0,0,1,3.11,2.18A5.55,5.55,0,0,1,176.45,132.38Zm-.21,0a3.72,3.72,0,0,0-.88-3.25,4.16,4.16,0,0,0-2.88-1.4,5.7,5.7,0,0,0-3.13.7,3.55,3.55,0,0,0-1.91,2.12,2.78,2.78,0,0,0,.79,2.48,4.72,4.72,0,0,0,2.42,1.34,7.81,7.81,0,0,0,3.13.06A3,3,0,0,0,176.24,132.34Z"/>
            </g>
            <g>
              <ellipse class="cls-3" cx="179.83" cy="135.01" rx="3.7" ry="4.88" transform="translate(33.16 305.46) rotate(-86.19)"/>
              <path class="cls-4" d="M184.81,135a4.13,4.13,0,0,1-1.37,3.29,5.41,5.41,0,0,1-3.54,1.47,6,6,0,0,1-3.76-1.14,4.66,4.66,0,0,1-2-3.57,4,4,0,0,1,2-3.43,6.21,6.21,0,0,1,3.6-.84,5.91,5.91,0,0,1,3.32,1.29A4.36,4.36,0,0,1,184.81,135Zm-.21,0a3.07,3.07,0,0,0-1.76-2.57,6.22,6.22,0,0,0-3.09-.62,5.06,5.06,0,0,0-2.83.93,2.5,2.5,0,0,0-1.13,2.21,2.72,2.72,0,0,0,1.49,1.94,6.56,6.56,0,0,0,2.65.76,6.69,6.69,0,0,0,2.89-.3A2.54,2.54,0,0,0,184.6,135Z"/>
            </g>
            <g>
              <path class="cls-3" d="M193.35,137.6a4,4,0,0,1-4.31,4.05c-2.69,0-5-1.66-5.06-3.71s2-3.71,4.7-3.71S193.25,135.55,193.35,137.6Z"/>
              <path class="cls-4" d="M193.45,137.59a4.81,4.81,0,0,1-1,3.37A4.58,4.58,0,0,1,189,142.7a6.18,6.18,0,0,1-3.71-1,4.76,4.76,0,0,1-2.13-3.4,3.7,3.7,0,0,1,.41-2,4.08,4.08,0,0,1,1.33-1.46,6.18,6.18,0,0,1,6.82,0A3.83,3.83,0,0,1,193.45,137.59Zm-.21,0a2.72,2.72,0,0,0-1.72-2.48,6.19,6.19,0,0,0-3.07-.35,4.78,4.78,0,0,0-2.71,1,2.34,2.34,0,0,0-.9,2.23,2.76,2.76,0,0,0,1.57,1.85,6.79,6.79,0,0,0,2.61.7,4.9,4.9,0,0,0,2.68-.47A2.87,2.87,0,0,0,193.24,137.6Z"/>
            </g>
          </g>
          <g>
            <path class="cls-3" d="M140.16,121.25c.1,2-1.69,3.56-4,3.56s-5.13-1.68-5.23-3.64,2.57-3.47,4.88-3.47S140.07,119.29,140.16,121.25Z"/>
            <path class="cls-4" d="M140.27,121.25a4.17,4.17,0,0,1-1.16,3.2,4.59,4.59,0,0,1-3.45,1.38,6.42,6.42,0,0,1-3.48-1.22,5.81,5.81,0,0,1-1.35-1.36,3.51,3.51,0,0,1-.72-2,3,3,0,0,1,.65-2,5,5,0,0,1,1.43-1.22,6.84,6.84,0,0,1,3.37-.88A4.77,4.77,0,0,1,140.27,121.25Zm-.21,0a3,3,0,0,0-1.59-2.5,4.84,4.84,0,0,0-2.87-.53,5.73,5.73,0,0,0-2.68,1,2.23,2.23,0,0,0-1.15,2,2.84,2.84,0,0,0,1.54,1.71,8.2,8.2,0,0,0,2.52.87,5,5,0,0,0,2.62-.21A2.48,2.48,0,0,0,140.06,121.26Z"/>
          </g>
          <g>
            <path class="cls-3" d="M147,124.07a3.78,3.78,0,0,1-2.44,5.22c-2.32.76-5.9-.14-6.88-2.26s1-4.65,3.36-5.41A5,5,0,0,1,147,124.07Z"/>
            <path class="cls-4" d="M147.1,124a4.64,4.64,0,0,1,.24,3.74,4.46,4.46,0,0,1-3.13,2.69,6.91,6.91,0,0,1-4-.28,5.59,5.59,0,0,1-3.2-2.7,3.56,3.56,0,0,1-.25-2.22,4.84,4.84,0,0,1,.88-1.89,6.39,6.39,0,0,1,3.18-2.22,5.1,5.1,0,0,1,3.73.38A5.73,5.73,0,0,1,147.1,124Zm-.19.09a3.86,3.86,0,0,0-2.55-2.18,5,5,0,0,0-3.23.2,5.14,5.14,0,0,0-2.4,2,2.45,2.45,0,0,0-.25,2.59,3.66,3.66,0,0,0,2.33,1.47,8.17,8.17,0,0,0,3,.2,4.27,4.27,0,0,0,2.58-1.2A2.89,2.89,0,0,0,146.91,124.12Z"/>
          </g>
          <g>
            <path class="cls-3" d="M157.18,128.24c-.59,2-3.23,3.13-5.88,2.43s-4.34-2.92-3.74-5,3.22-3.13,5.88-2.43S157.77,126.2,157.18,128.24Z"/>
            <path class="cls-4" d="M157.28,128.27c-.58,2.36-3.54,4-6.19,3.43a6,6,0,0,1-3.47-2.1,4.49,4.49,0,0,1-.87-4.13,4.44,4.44,0,0,1,3-2.74,6.69,6.69,0,0,1,3.79,0,5.8,5.8,0,0,1,3,2.12A4.13,4.13,0,0,1,157.28,128.27Zm-.2-.06a3,3,0,0,0-.91-3.05,5.89,5.89,0,0,0-2.91-1.39,5.32,5.32,0,0,0-3.07.24,2.91,2.91,0,0,0-1.83,1.93,2.51,2.51,0,0,0,.83,2.31,6.16,6.16,0,0,0,2.42,1.42,7.18,7.18,0,0,0,3,.37A2.86,2.86,0,0,0,157.08,128.21Z"/>
          </g>
          <g>
            <path class="cls-3" d="M154.77,134.44c-.52,1.78-3,2.69-5.46,2s-4.11-2.64-3.59-4.42,3-2.69,5.46-2S155.29,132.66,154.77,134.44Z"/>
            <path class="cls-4" d="M154.87,134.47c-.59,2.18-3.38,3.55-5.77,3a5.81,5.81,0,0,1-3.23-1.83,4.86,4.86,0,0,1-1-1.74,3.5,3.5,0,0,1,0-2.1,3.9,3.9,0,0,1,2.88-2.44,6.63,6.63,0,0,1,3.46.12,5.78,5.78,0,0,1,2.77,1.89A3.67,3.67,0,0,1,154.87,134.47Zm-.2-.06a2.54,2.54,0,0,0-1-2.71,6,6,0,0,0-2.71-1.18,5.33,5.33,0,0,0-2.81.16,2.43,2.43,0,0,0-1.67,1.61,2.12,2.12,0,0,0,.85,1.94,6.56,6.56,0,0,0,2.25,1.24,8,8,0,0,0,2.72.46A2.49,2.49,0,0,0,154.67,134.41Z"/>
          </g>
          <g>
            <path class="cls-3" d="M163.29,132.26c-.58,2-3,3.09-5.44,2.45s-3.92-2.78-3.34-4.77,3-3.09,5.44-2.45S163.87,130.27,163.29,132.26Z"/>
            <path class="cls-4" d="M163.39,132.29a4.68,4.68,0,0,1-2.08,2.76,4.94,4.94,0,0,1-3.67.68,5.26,5.26,0,0,1-3.27-2.09,4.45,4.45,0,0,1-.67-3.94,4.39,4.39,0,0,1,2.74-2.67A5.88,5.88,0,0,1,160,127,4.69,4.69,0,0,1,163.39,132.29Zm-.2-.06a2.88,2.88,0,0,0-.75-2.9,5,5,0,0,0-2.67-1.34,4.58,4.58,0,0,0-2.82.3,2.86,2.86,0,0,0-1.64,1.88,2.47,2.47,0,0,0,.69,2.2,5.08,5.08,0,0,0,2.15,1.34,6.21,6.21,0,0,0,2.74.31A2.8,2.8,0,0,0,163.19,132.23Z"/>
          </g>
          <g>
            <path class="cls-3" d="M162.08,138.48c-.52,1.8-2.92,2.74-5.34,2.1s-4-2.62-3.44-4.42,2.92-2.74,5.34-2.1S162.61,136.68,162.08,138.48Z"/>
            <path class="cls-4" d="M162.18,138.51c-.54,2.14-3.25,3.63-5.65,3.09a5.49,5.49,0,0,1-3.18-1.87,4.06,4.06,0,0,1-.85-3.81,4,4,0,0,1,2.79-2.46,6.14,6.14,0,0,1,3.43.08,5.39,5.39,0,0,1,2.71,1.91A3.7,3.7,0,0,1,162.18,138.51Zm-.2-.06a2.57,2.57,0,0,0-.88-2.71,5.76,5.76,0,0,0-2.64-1.19,5.07,5.07,0,0,0-2.74.2,2.49,2.49,0,0,0-1.62,1.64,2.16,2.16,0,0,0,.78,2,6.17,6.17,0,0,0,2.17,1.23,7,7,0,0,0,2.65.42A2.49,2.49,0,0,0,162,138.45Z"/>
          </g>
          <g>
            <path class="cls-3" d="M170,135.33c-.61,2.08-3.06,3.24-5.49,2.6s-3.9-2.84-3.3-4.91,3.06-3.24,5.49-2.6S170.58,133.26,170,135.33Z"/>
            <path class="cls-4" d="M170.08,135.36a5,5,0,0,1-5.79,3.6,5.29,5.29,0,0,1-3.31-2.18,4.65,4.65,0,0,1-.59-4A4.55,4.55,0,0,1,163.1,130a5.65,5.65,0,0,1,3.65-.13A4.73,4.73,0,0,1,170.08,135.36Zm-.2-.06a3,3,0,0,0-.71-3,4.8,4.8,0,0,0-2.67-1.4,4.5,4.5,0,0,0-2.86.35,3,3,0,0,0-1.64,2,2.64,2.64,0,0,0,.65,2.3,4.85,4.85,0,0,0,2.15,1.38,5.67,5.67,0,0,0,2.77.26A2.93,2.93,0,0,0,169.88,135.3Z"/>
          </g>
          <g>
            <path class="cls-3" d="M178.54,141.13c-.65,2.26-3.33,3.53-6,2.83s-4.27-3.1-3.61-5.36,3.34-3.54,6-2.84S179.2,138.86,178.54,141.13Z"/>
            <path class="cls-4" d="M178.64,141.16a5.24,5.24,0,0,1-2.25,3.06,5.38,5.38,0,0,1-4,.77,5.69,5.69,0,0,1-3.55-2.35,4.92,4.92,0,0,1-.65-4.28,4.87,4.87,0,0,1,2.91-3,6.16,6.16,0,0,1,3.95-.15A5.11,5.11,0,0,1,178.64,141.16Zm-.2-.06a3.32,3.32,0,0,0-.76-3.27,5.23,5.23,0,0,0-2.93-1.57,4.85,4.85,0,0,0-3.15.38,3.36,3.36,0,0,0-1.85,2.19,2.92,2.92,0,0,0,.72,2.58,5.24,5.24,0,0,0,2.4,1.55,6.18,6.18,0,0,0,3.07.24A3.26,3.26,0,0,0,178.44,141.1Z"/>
          </g>
          <g>
            <path class="cls-3" d="M169.53,141.35c-.52,1.8-2.81,2.77-5.11,2.16s-3.74-2.56-3.22-4.36,2.82-2.76,5.12-2.16S170.06,139.55,169.53,141.35Z"/>
            <path class="cls-4" d="M169.63,141.38a4.68,4.68,0,0,1-5.42,3.15,5.14,5.14,0,0,1-3.09-1.89,4.08,4.08,0,0,1-.72-3.72,4,4,0,0,1,2.65-2.46,5.63,5.63,0,0,1,3.35,0C168.52,137.12,170.12,139.3,169.63,141.38Zm-.2-.06a2.55,2.55,0,0,0-.77-2.65,5,5,0,0,0-2.52-1.18,4.46,4.46,0,0,0-2.62.25,2.44,2.44,0,0,0-1.51,1.65,2.14,2.14,0,0,0,.69,1.92,5.46,5.46,0,0,0,2,1.2,6.42,6.42,0,0,0,2.54.37A2.45,2.45,0,0,0,169.43,141.32Z"/>
          </g>
          <g>
            <path class="cls-3" d="M187.9,142c.09,1.77-1.87,3-4.56,3s-5.45-.88-5.53-2.65a4.87,4.87,0,0,1,4.58-4.52C185.08,137.75,187.82,140.2,187.9,142Z"/>
            <path class="cls-4" d="M188,142a3.38,3.38,0,0,1-1.85,3,6.63,6.63,0,0,1-3.62,1,7.75,7.75,0,0,1-3.69-.89,4,4,0,0,1-1.62-1.56,2.55,2.55,0,0,1-.3-1.24,3.7,3.7,0,0,1,.18-1.08,5.94,5.94,0,0,1,2.32-3.07,4.82,4.82,0,0,1,3.67-.81,6.23,6.23,0,0,1,3.14,1.72A5.54,5.54,0,0,1,188,142Zm-.21,0a3.68,3.68,0,0,0-1.84-2.62,6.77,6.77,0,0,0-3-1,4.15,4.15,0,0,0-4.23,3.28,2.11,2.11,0,0,0,0,.6.76.76,0,0,0,.16.38,2,2,0,0,0,.92.62,11.54,11.54,0,0,0,2.89.65,11.36,11.36,0,0,0,3.08.1,2.92,2.92,0,0,0,1.41-.6A1.82,1.82,0,0,0,187.8,142Z"/>
          </g>
        </g>
        <g>
          <g>
            <path class="cls-4" d="M154.31,85.54c13.41,2.51,35.86,10.67,48,22.68,4.89,4.85,10.43,12.24,16.93,12,2.92-.11,7.79-2.28,8.21-8.73,1.06-16.37-7.2-25-25.49-34.8C180.76,65.3,147.67,69.17,145.7,78"/>
            <path class="cls-4" d="M154.32,85.49a108,108,0,0,1,23.36,6.81,100,100,0,0,1,11,5.3,69.89,69.89,0,0,1,10.16,6.82,52.19,52.19,0,0,1,4.52,4.14l4.2,4.4a41.1,41.1,0,0,0,4.44,4,13.75,13.75,0,0,0,5.23,2.6,7.91,7.91,0,0,0,5.57-.82,8.1,8.1,0,0,0,3.7-4.32,17.38,17.38,0,0,0,.75-5.88,30.81,30.81,0,0,0-.51-6A25,25,0,0,0,221.8,91.7a41,41,0,0,0-8.91-8.13,100.21,100.21,0,0,0-10.41-6.2A56.49,56.49,0,0,0,191.3,72.9a77.17,77.17,0,0,0-23.91-2.77,56.64,56.64,0,0,0-11.95,1.63,26.68,26.68,0,0,0-5.64,2.08,11.31,11.31,0,0,0-2.47,1.7,5.16,5.16,0,0,0-1.57,2.5.06.06,0,0,1-.11,0,5.37,5.37,0,0,1,1.53-2.63,11.51,11.51,0,0,1,2.45-1.83,25.9,25.9,0,0,1,5.67-2.32,57.21,57.21,0,0,1,12-1.91,77.79,77.79,0,0,1,12.21.35,67.26,67.26,0,0,1,12,2.35,51.64,51.64,0,0,1,11.27,4.73,106.12,106.12,0,0,1,10.32,6.47,44.09,44.09,0,0,1,8.93,8.27,26.25,26.25,0,0,1,5.13,11,31.86,31.86,0,0,1,.65,6.08c0,1,0,2-.08,3.06a11.54,11.54,0,0,1-.61,3.07,8.93,8.93,0,0,1-4,4.78,8.69,8.69,0,0,1-6.17,1,14.57,14.57,0,0,1-5.6-2.73,41.49,41.49,0,0,1-4.57-4.1l-4.21-4.39a50.08,50.08,0,0,0-4.48-4,95.38,95.38,0,0,0-20.88-12,130.46,130.46,0,0,0-23-7.62.06.06,0,0,1,0-.07S154.29,85.49,154.32,85.49Z"/>
          </g>
          <g>
            <g>
              <ellipse class="cls-3" cx="163.02" cy="71.72" rx="3.1" ry="4.42" transform="translate(82.58 230.61) rotate(-86.89)"/>
              <path class="cls-4" d="M167.54,71.75a3.61,3.61,0,0,1-1.34,2.88A5,5,0,0,1,163,75.87a5.67,5.67,0,0,1-3.36-.94,4.09,4.09,0,0,1-1.91-3.21,3.19,3.19,0,0,1,.63-1.87,4,4,0,0,1,1.38-1.14,6,6,0,0,1,3.22-.62,5.53,5.53,0,0,1,2.94,1.12A3.74,3.74,0,0,1,167.54,71.75Zm-.21,0a2.53,2.53,0,0,0-1.62-2.18,6.2,6.2,0,0,0-2.74-.44,4.82,4.82,0,0,0-2.5.74,2,2,0,0,0-1,1.77,2.16,2.16,0,0,0,1.32,1.5,6.87,6.87,0,0,0,2.32.63,7.67,7.67,0,0,0,2.56-.12A2.11,2.11,0,0,0,167.33,71.76Z"/>
            </g>
            <g>
              <path class="cls-3" d="M175.12,72.78c.08,1.87-2.32,3-4.43,3s-4.11-1.5-4.18-3.37,1.59-4.27,3.71-4.25S175.05,70.91,175.12,72.78Z"/>
              <path class="cls-4" d="M175.23,72.77a3.47,3.47,0,0,1-1.62,2.9,5.39,5.39,0,0,1-3.41,1.11,5,5,0,0,1-3.45-1.59,4.5,4.5,0,0,1-1-1.76,3.81,3.81,0,0,1,0-2,5.47,5.47,0,0,1,2-3,4.08,4.08,0,0,1,1.69-.77,3.36,3.36,0,0,1,1.84.16,6.14,6.14,0,0,1,2.6,2.09A6.45,6.45,0,0,1,175.23,72.77Zm-.21,0a3.87,3.87,0,0,0-1.49-2.6A6.59,6.59,0,0,0,171,68.79c-1.75-.51-3.33,1.3-3.55,3s1.43,2.66,3,2.94a7.84,7.84,0,0,0,2.73,0,2.9,2.9,0,0,0,1.29-.61A1.78,1.78,0,0,0,175,72.78Z"/>
            </g>
            <g>
              <path class="cls-3" d="M183.07,73.31c.08,1.88-2.32,3-4.43,3s-4.11-1.5-4.19-3.37,1.6-4.27,3.71-4.26S183,71.44,183.07,73.31Z"/>
              <path class="cls-4" d="M183.18,73.31a3.47,3.47,0,0,1-1.63,2.9,5.4,5.4,0,0,1-3.4,1.11,5,5,0,0,1-3.45-1.59,4.35,4.35,0,0,1-1-1.77,3.88,3.88,0,0,1,0-2,5.54,5.54,0,0,1,2-3,4.08,4.08,0,0,1,1.69-.77,3.36,3.36,0,0,1,1.84.16,6,6,0,0,1,2.59,2.09A6.42,6.42,0,0,1,183.18,73.31Zm-.21,0a3.85,3.85,0,0,0-1.49-2.6,6.59,6.59,0,0,0-2.58-1.39c-1.75-.52-3.34,1.3-3.55,3s1.43,2.67,3,3a7.79,7.79,0,0,0,2.72,0,2.87,2.87,0,0,0,1.3-.6A1.8,1.8,0,0,0,183,73.32Z"/>
            </g>
            <g>
              <path class="cls-3" d="M191,74.18c-.15,1.74-2.2,2.92-4.57,2.63s-4.16-1.93-4-3.67,2.2-2.92,4.57-2.63S191.16,72.44,191,74.18Z"/>
              <path class="cls-4" d="M191.11,74.19a3.74,3.74,0,0,1-1.61,2.72,4.86,4.86,0,0,1-3.26.93A5.48,5.48,0,0,1,183,76.49a4,4,0,0,1-1.43-3.42,3.58,3.58,0,0,1,2.28-2.77,5.88,5.88,0,0,1,3.25-.3,5.32,5.32,0,0,1,2.76,1.47A3.74,3.74,0,0,1,191.11,74.19Zm-.21,0a2.52,2.52,0,0,0-1.29-2.36A5.68,5.68,0,0,0,187,71a4.68,4.68,0,0,0-2.53.49,2,2,0,0,0-1.19,1.68,2.1,2.1,0,0,0,1.07,1.67,6.29,6.29,0,0,0,2.18.88,7,7,0,0,0,2.51.14A2.16,2.16,0,0,0,190.9,74.17Z"/>
            </g>
            <g>
              <path class="cls-3" d="M198.22,77.17c-.16,1.8-2.25,3-4.67,2.72s-4.24-2-4.08-3.78,2.25-3,4.67-2.72S198.38,75.38,198.22,77.17Z"/>
              <path class="cls-4" d="M198.33,77.18A3.87,3.87,0,0,1,196.7,80a5,5,0,0,1-3.34,1,5.55,5.55,0,0,1-3.28-1.39A4.15,4.15,0,0,1,188.63,76a3.67,3.67,0,0,1,2.31-2.83,6,6,0,0,1,3.32-.33,5.44,5.44,0,0,1,2.83,1.51A3.86,3.86,0,0,1,198.33,77.18Zm-.21,0a2.61,2.61,0,0,0-1.31-2.43,5.69,5.69,0,0,0-2.68-.81,4.83,4.83,0,0,0-2.6.51,2.14,2.14,0,0,0-1.23,1.75,2.21,2.21,0,0,0,1.1,1.75,6.14,6.14,0,0,0,2.23.91,6.93,6.93,0,0,0,2.58.12A2.24,2.24,0,0,0,198.12,77.16Z"/>
            </g>
            <g>
              <ellipse class="cls-3" cx="200.53" cy="79.88" rx="3.4" ry="4.23" transform="matrix(0.1, -1, 1, 0.1, 101.73, 271.8)"/>
              <path class="cls-4" d="M204.86,79.91a4,4,0,0,1-1.12,3,4.52,4.52,0,0,1-3.19,1.41,5.1,5.1,0,0,1-3.39-1.14,4.35,4.35,0,0,1-1.68-3.31,3.79,3.79,0,0,1,1.78-3.14A5.19,5.19,0,0,1,200.5,76,4.72,4.72,0,0,1,204.86,79.91Zm-.21,0a2.75,2.75,0,0,0-1.48-2.34,5,5,0,0,0-2.69-.59,4.11,4.11,0,0,0-2.43.85,2.29,2.29,0,0,0-.9,2,2.38,2.38,0,0,0,1.24,1.71,5.24,5.24,0,0,0,2.22.72,5.6,5.6,0,0,0,2.48-.23A2.31,2.31,0,0,0,204.65,79.92Z"/>
            </g>
            <g>
              <path class="cls-3" d="M211,83.61c.08,2-1.86,3.56-4.33,3.54s-4.53-1.64-4.61-3.61S203.89,80,206.36,80,210.89,81.64,211,83.61Z"/>
              <path class="cls-4" d="M211.08,83.61a4.12,4.12,0,0,1-1.21,3.13,4.82,4.82,0,0,1-3.35,1.45A5.46,5.46,0,0,1,203,87a4.58,4.58,0,0,1-1.78-3.45,3.93,3.93,0,0,1,1.87-3.26,5.67,5.67,0,0,1,3.41-.83A5,5,0,0,1,211.08,83.61Zm-.21,0a2.93,2.93,0,0,0-1.58-2.46,5.42,5.42,0,0,0-2.85-.62,4.35,4.35,0,0,0-2.59.89,2.39,2.39,0,0,0-1,2.09,2.54,2.54,0,0,0,1.32,1.83,5.51,5.51,0,0,0,2.38.75,5.91,5.91,0,0,0,2.65-.26A2.45,2.45,0,0,0,210.87,83.61Z"/>
            </g>
            <g>
              <path class="cls-3" d="M217.55,88c.08,2-1.86,3.55-4.33,3.53s-4.53-1.63-4.61-3.6,1.86-3.56,4.33-3.54S217.47,86,217.55,88Z"/>
              <path class="cls-4" d="M217.66,87.94a4.14,4.14,0,0,1-1.21,3.14,4.81,4.81,0,0,1-3.35,1.44,5.46,5.46,0,0,1-3.55-1.17,4.56,4.56,0,0,1-1.78-3.44,3.92,3.92,0,0,1,1.88-3.27,5.54,5.54,0,0,1,3.4-.82A5,5,0,0,1,217.66,87.94Zm-.21,0a2.93,2.93,0,0,0-1.58-2.46,5.33,5.33,0,0,0-2.85-.62,4.41,4.41,0,0,0-2.59.88,2.4,2.4,0,0,0-1,2.09,2.55,2.55,0,0,0,1.32,1.83,5.7,5.7,0,0,0,2.38.76,5.91,5.91,0,0,0,2.65-.26A2.45,2.45,0,0,0,217.45,88Z"/>
            </g>
            <g>
              <path class="cls-3" d="M222.82,93.22c.08,2-1.86,3.56-4.33,3.54s-4.53-1.63-4.61-3.61,1.86-3.55,4.33-3.53S222.74,91.25,222.82,93.22Z"/>
              <path class="cls-4" d="M222.93,93.22a4.14,4.14,0,0,1-1.21,3.14,4.85,4.85,0,0,1-3.35,1.44,5.46,5.46,0,0,1-3.55-1.17A4.56,4.56,0,0,1,213,93.19a3.93,3.93,0,0,1,1.87-3.27,5.59,5.59,0,0,1,3.41-.82A5,5,0,0,1,222.93,93.22Zm-.21,0a2.94,2.94,0,0,0-1.58-2.47,5.42,5.42,0,0,0-2.85-.62,4.49,4.49,0,0,0-2.59.89,2.39,2.39,0,0,0-1,2.09A2.52,2.52,0,0,0,216,95a5.65,5.65,0,0,0,2.38.76,5.92,5.92,0,0,0,2.65-.27A2.44,2.44,0,0,0,222.72,93.23Z"/>
            </g>
            <g>
              <path class="cls-3" d="M226.6,99.12c.08,2-1.86,3.56-4.33,3.54s-4.54-1.63-4.61-3.61,1.86-3.55,4.32-3.53S226.52,97.15,226.6,99.12Z"/>
              <path class="cls-4" d="M226.7,99.12a4.1,4.1,0,0,1-1.21,3.14,4.81,4.81,0,0,1-3.34,1.44,5.44,5.44,0,0,1-3.55-1.17,4.5,4.5,0,0,1-1.78-3.44,3.91,3.91,0,0,1,1.87-3.27,5.56,5.56,0,0,1,3.4-.82A5,5,0,0,1,226.7,99.12Zm-.21,0a2.88,2.88,0,0,0-1.57-2.46,5.26,5.26,0,0,0-2.85-.62,4.41,4.41,0,0,0-2.59.88,2.39,2.39,0,0,0-1,2.09,2.55,2.55,0,0,0,1.32,1.83,5.74,5.74,0,0,0,2.39.76,6,6,0,0,0,2.64-.26A2.43,2.43,0,0,0,226.49,99.13Z"/>
            </g>
            <g>
              <path class="cls-3" d="M227.18,105.4c.07,1.75-1.61,3.16-3.75,3.14s-3.94-1.45-4-3.2,1.61-3.16,3.76-3.15S227.11,103.64,227.18,105.4Z"/>
              <path class="cls-4" d="M227.29,105.39a3.77,3.77,0,0,1-1,2.83,4.09,4.09,0,0,1-3,1.36,4.75,4.75,0,0,1-3.19-1.08,4.14,4.14,0,0,1-1.54-3.13,3.57,3.57,0,0,1,1.65-3,4.89,4.89,0,0,1,3-.75A4.42,4.42,0,0,1,227.29,105.39Zm-.21,0a2.53,2.53,0,0,0-1.36-2.16,4.53,4.53,0,0,0-2.47-.52,3.6,3.6,0,0,0-2.2.8,2,2,0,0,0-.79,1.78,2.17,2.17,0,0,0,1.12,1.54,4.82,4.82,0,0,0,2,.65,5,5,0,0,0,2.26-.18A2.09,2.09,0,0,0,227.08,105.4Z"/>
            </g>
          </g>
          <g>
            <g>
              <ellipse class="cls-3" cx="154.72" cy="75.08" rx="3.25" ry="4.31" transform="translate(68.91 224.11) rotate(-85.95)"/>
              <path class="cls-4" d="M159.13,75.11a3.79,3.79,0,0,1-1.22,2.94,4.73,4.73,0,0,1-3.17,1.32,5.39,5.39,0,0,1-3.37-1,4.22,4.22,0,0,1-1.79-3.26A3.62,3.62,0,0,1,151.47,72a5.63,5.63,0,0,1,3.22-.71,5.22,5.22,0,0,1,2.93,1.2A3.92,3.92,0,0,1,159.13,75.11Zm-.21,0a2.62,2.62,0,0,0-1.55-2.26,5.54,5.54,0,0,0-2.7-.51,4.4,4.4,0,0,0-2.46.8,2.07,2.07,0,0,0-1,1.86,2.22,2.22,0,0,0,1.27,1.6,5.89,5.89,0,0,0,2.26.67,6.34,6.34,0,0,0,2.51-.17A2.19,2.19,0,0,0,158.92,75.12Z"/>
            </g>
            <g>
              <path class="cls-3" d="M166,77.55c.07,2-1.79,3.55-4.16,3.53s-4.37-1.63-4.45-3.6,1.79-3.56,4.16-3.54S166,75.57,166,77.55Z"/>
              <path class="cls-4" d="M166.14,77.54A4.18,4.18,0,0,1,165,80.65a4.59,4.59,0,0,1-3.27,1.48,5.29,5.29,0,0,1-3.49-1.21,4.62,4.62,0,0,1-1.68-3.41,4,4,0,0,1,1.77-3.23,5.26,5.26,0,0,1,3.34-.86A4.83,4.83,0,0,1,166.14,77.54Zm-.21,0a2.87,2.87,0,0,0-1.49-2.44,5.07,5.07,0,0,0-2.77-.64,4.07,4.07,0,0,0-2.49.9,2.41,2.41,0,0,0-.91,2.08,2.57,2.57,0,0,0,1.26,1.82,5.1,5.1,0,0,0,2.28.76,5.38,5.38,0,0,0,2.55-.28A2.41,2.41,0,0,0,165.93,77.55Z"/>
            </g>
            <g>
              <path class="cls-3" d="M172.37,80c.08,2-1.78,3.55-4.16,3.53s-4.36-1.63-4.44-3.6,1.86-3.72,4.24-3.7A4.27,4.27,0,0,1,172.37,80Z"/>
              <path class="cls-4" d="M172.48,80a4.21,4.21,0,0,1-1.13,3.13A4.61,4.61,0,0,1,168,84.55a5.16,5.16,0,0,1-3.5-1.26,4.47,4.47,0,0,1-1.6-3.47,4.17,4.17,0,0,1,1.83-3.21,5.21,5.21,0,0,1,3.35-.92,4.63,4.63,0,0,1,3,1.43A4.75,4.75,0,0,1,172.48,80Zm-.21,0a3.1,3.1,0,0,0-1.45-2.52,4.64,4.64,0,0,0-2.74-.72,4,4,0,0,0-2.49,1,2.61,2.61,0,0,0-1,2.12,2.47,2.47,0,0,0,1.21,1.86,5.06,5.06,0,0,0,2.29.79,5.46,5.46,0,0,0,2.57-.26A2.44,2.44,0,0,0,172.27,80Z"/>
            </g>
            <g>
              <path class="cls-3" d="M179.06,78.6c.08,1.88-1.64,3.4-3.82,3.38a3.94,3.94,0,0,1-4.1-3.44c-.08-1.89,1.63-3.4,3.82-3.38A3.92,3.92,0,0,1,179.06,78.6Z"/>
              <path class="cls-4" d="M179.17,78.6a4.11,4.11,0,0,1-1,3A4.18,4.18,0,0,1,175.12,83a4.75,4.75,0,0,1-3.3-1.19,4.4,4.4,0,0,1-1.52-3.26,3.8,3.8,0,0,1,1.62-3.08,4.77,4.77,0,0,1,3.15-.85A4.55,4.55,0,0,1,179.17,78.6Zm-.21,0a2.76,2.76,0,0,0-1.36-2.31,4.54,4.54,0,0,0-2.56-.61,3.58,3.58,0,0,0-2.27.87,2.3,2.3,0,0,0-.8,2,2.44,2.44,0,0,0,1.14,1.71,4.66,4.66,0,0,0,2.07.72,4.85,4.85,0,0,0,2.33-.25A2.28,2.28,0,0,0,179,78.6Z"/>
            </g>
            <g>
              <path class="cls-3" d="M186.41,80.88c.08,2.06-1.93,3.71-4.49,3.69s-4.71-1.7-4.79-3.76,1.93-3.72,4.49-3.7S186.33,78.82,186.41,80.88Z"/>
              <path class="cls-4" d="M186.51,80.87a4.26,4.26,0,0,1-1.25,3.26,5,5,0,0,1-3.47,1.49,5.71,5.71,0,0,1-3.67-1.23,4.67,4.67,0,0,1-1.83-3.55,4.06,4.06,0,0,1,1.92-3.38,5.79,5.79,0,0,1,3.52-.87A5.13,5.13,0,0,1,186.51,80.87Zm-.21,0a3,3,0,0,0-1.63-2.57,5.58,5.58,0,0,0-3-.67,4.52,4.52,0,0,0-2.7.93,2.51,2.51,0,0,0-1,2.2,2.67,2.67,0,0,0,1.37,2,5.8,5.8,0,0,0,2.5.8,6,6,0,0,0,2.76-.3A2.56,2.56,0,0,0,186.3,80.88Z"/>
            </g>
            <g>
              <path class="cls-3" d="M194.22,82.29c.08,2.1-1.92,3.79-4.49,3.77s-4.7-1.74-4.79-3.84,1.93-3.8,4.49-3.78S194.14,80.18,194.22,82.29Z"/>
              <path class="cls-4" d="M194.33,82.28a4.34,4.34,0,0,1-1.23,3.3,4.93,4.93,0,0,1-3.49,1.52,5.6,5.6,0,0,1-3.7-1.26,4.74,4.74,0,0,1-1.8-3.59A4.14,4.14,0,0,1,186,78.83a5.6,5.6,0,0,1,3.54-.91A5.17,5.17,0,0,1,194.33,82.28Zm-.21,0a3.16,3.16,0,0,0-1.62-2.62,5.47,5.47,0,0,0-3-.7,4.43,4.43,0,0,0-2.71,1,2.62,2.62,0,0,0-1,2.26,2.75,2.75,0,0,0,1.38,2,5.54,5.54,0,0,0,2.5.83,5.79,5.79,0,0,0,2.77-.33A2.63,2.63,0,0,0,194.12,82.29Z"/>
            </g>
            <g>
              <path class="cls-3" d="M201.46,86.15c.08,2.11-1.93,3.8-4.49,3.78s-4.71-1.74-4.79-3.85,1.93-3.79,4.49-3.77S201.37,84.05,201.46,86.15Z"/>
              <path class="cls-4" d="M201.56,86.15a4.33,4.33,0,0,1-1.23,3.29A4.94,4.94,0,0,1,196.84,91a5.57,5.57,0,0,1-3.69-1.26,4.82,4.82,0,0,1-1.81-3.6,4.16,4.16,0,0,1,1.89-3.42,5.69,5.69,0,0,1,3.55-.9A5.14,5.14,0,0,1,201.56,86.15Zm-.21,0a3.13,3.13,0,0,0-1.61-2.63,5.39,5.39,0,0,0-3-.69,4.41,4.41,0,0,0-2.71,1,2.61,2.61,0,0,0-1,2.26,2.79,2.79,0,0,0,1.37,2,5.7,5.7,0,0,0,2.51.83,5.93,5.93,0,0,0,2.77-.34A2.62,2.62,0,0,0,201.35,86.16Z"/>
            </g>
            <g>
              <path class="cls-3" d="M207.35,90a4.4,4.4,0,0,1-4.47,4.25c-2.57,0-4.2-1.58-4.28-3.69a4.39,4.39,0,0,1,8.75-.56Z"/>
              <path class="cls-4" d="M207.45,90a5.27,5.27,0,0,1-1,3.36,4.51,4.51,0,0,1-3.32,1.93,5.14,5.14,0,0,1-3.79-1.13,4.63,4.63,0,0,1-1.59-3.69A5.14,5.14,0,0,1,199.32,87a4.63,4.63,0,0,1,3.43-1.36A5.06,5.06,0,0,1,206,87,4.72,4.72,0,0,1,207.45,90Zm-.21,0a3.16,3.16,0,0,0-1.53-2.66,5,5,0,0,0-3-.66,3.62,3.62,0,0,0-3.32,3.76,2.58,2.58,0,0,0,1.19,2.07,4.67,4.67,0,0,0,2.43.68,4.79,4.79,0,0,0,2.62-.64A3.08,3.08,0,0,0,207.24,90Z"/>
            </g>
            <g>
              <path class="cls-3" d="M213.77,94.66c.08,1.89-2.19,4.11-4.48,4.09s-4.19-1.56-4.26-3.44a4,4,0,0,1,3.88-4C211.2,91.31,213.7,92.78,213.77,94.66Z"/>
              <path class="cls-4" d="M213.88,94.66a5.21,5.21,0,0,1-1.08,3.17,4.64,4.64,0,0,1-3.11,2,5.1,5.1,0,0,1-3.66-1,4.47,4.47,0,0,1-1.84-3.42A4.72,4.72,0,0,1,205.7,92,4.39,4.39,0,0,1,209,90.77a5.93,5.93,0,0,1,3.1,1.22A4,4,0,0,1,213.88,94.66Zm-.21,0a2.75,2.75,0,0,0-1.77-2.29,6.39,6.39,0,0,0-2.89-.55,3.33,3.33,0,0,0-3.14,3.47,2.46,2.46,0,0,0,1.32,1.79,4.92,4.92,0,0,0,2.34.61A5.3,5.3,0,0,0,212,97,3,3,0,0,0,213.67,94.66Z"/>
            </g>
            <g>
              <path class="cls-3" d="M219,101.64a4.05,4.05,0,0,1-5.42,1.6,3.91,3.91,0,0,1-2.33-5,4.06,4.06,0,0,1,5.42-1.6C218.83,97.54,219.88,99.8,219,101.64Z"/>
              <path class="cls-4" d="M219.12,101.68a4.65,4.65,0,0,1-2.31,2.38,4.54,4.54,0,0,1-3.6.15,4.94,4.94,0,0,1-2.75-2.55,4.45,4.45,0,0,1,0-3.82,4.3,4.3,0,0,1,2.94-2.19,5.27,5.27,0,0,1,3.42.45A4.48,4.48,0,0,1,219.12,101.68Zm-.19-.08a2.82,2.82,0,0,0-.22-2.86,4.46,4.46,0,0,0-2.26-1.68A4,4,0,0,0,213.8,97,2.76,2.76,0,0,0,212,98.54a2.45,2.45,0,0,0,.28,2.18,4.56,4.56,0,0,0,1.74,1.57,5.39,5.39,0,0,0,2.48.69A2.69,2.69,0,0,0,218.93,101.6Z"/>
            </g>
            <g>
              <ellipse class="cls-3" cx="217.12" cy="107.07" rx="3.67" ry="4.24" transform="translate(38.77 270.77) rotate(-68.8)"/>
              <path class="cls-4" d="M221.09,108.84a4.68,4.68,0,0,1-2.31,2.38,4.58,4.58,0,0,1-3.6.15,4.94,4.94,0,0,1-2.75-2.55,4.47,4.47,0,0,1,0-3.83,4.28,4.28,0,0,1,2.94-2.18,5.26,5.26,0,0,1,3.42.44A4.5,4.5,0,0,1,221.09,108.84Zm-.19-.09a2.8,2.8,0,0,0-.22-2.85,4.54,4.54,0,0,0-2.26-1.69,4,4,0,0,0-2.65-.08A2.74,2.74,0,0,0,214,105.7a2.45,2.45,0,0,0,.28,2.18,4.64,4.64,0,0,0,1.74,1.57,5.27,5.27,0,0,0,2.48.68A2.64,2.64,0,0,0,220.9,108.75Z"/>
            </g>
            <g>
              <ellipse class="cls-3" cx="221.98" cy="112.22" rx="3.66" ry="3.76" transform="translate(85.99 320.49) rotate(-83.68)"/>
              <path class="cls-4" d="M225.5,113.79a5,5,0,0,1-2,2.39,3.9,3.9,0,0,1-3.45.34,4.26,4.26,0,0,1-2.53-2.6,4.58,4.58,0,0,1,.28-3.58,4.46,4.46,0,0,1,5.92-1.93,3.88,3.88,0,0,1,2,2.43A4.58,4.58,0,0,1,225.5,113.79Zm-.19-.08a2.89,2.89,0,0,0,0-2.71,3.6,3.6,0,0,0-2-1.63,3.24,3.24,0,0,0-2.41.06,2.9,2.9,0,0,0-1.57,1.62,2.52,2.52,0,0,0,.13,2.1,3.41,3.41,0,0,0,1.44,1.45,4,4,0,0,0,2.23.53A2.69,2.69,0,0,0,225.31,113.71Z"/>
            </g>
          </g>
          <g>
            <path class="cls-3" d="M153,78.06a3.43,3.43,0,0,1-2.41,4.48,4.1,4.1,0,0,1-5.11-2,3.43,3.43,0,0,1,2.41-4.48A4.09,4.09,0,0,1,153,78.06Z"/>
            <path class="cls-4" d="M153.1,78a4.67,4.67,0,0,1,.23,3.2,3.37,3.37,0,0,1-2.62,2.2A6.66,6.66,0,0,1,145,80.8a3.52,3.52,0,0,1-.53-1.73,3.84,3.84,0,0,1,.46-1.82A4.54,4.54,0,0,1,147.7,75a4.77,4.77,0,0,1,1.8-.14,3.71,3.71,0,0,1,1.64.64A5.73,5.73,0,0,1,153.1,78Zm-.2.08a2.38,2.38,0,0,0-2.24-1.31,7.07,7.07,0,0,0-2.32.34,3.7,3.7,0,0,0-1.77,1.15,2.75,2.75,0,0,0-.56,2.07,2.32,2.32,0,0,0,1.69,1.83,3.43,3.43,0,0,0,2.51-.44,11.74,11.74,0,0,0,2-1.22,2.35,2.35,0,0,0,.76-1A1.86,1.86,0,0,0,152.9,78.1Z"/>
          </g>
          <g>
            <g>
              <path class="cls-3" d="M160.16,82.42c.07,1.88-1.76,3.4-4.08,3.38s-4.28-1.56-4.36-3.45S153.48,79,155.8,79,160.08,80.53,160.16,82.42Z"/>
              <path class="cls-4" d="M160.26,82.42a4,4,0,0,1-1.11,3A4.53,4.53,0,0,1,156,86.84a5.14,5.14,0,0,1-3.4-1.14,4.4,4.4,0,0,1-1.67-3.31,3.78,3.78,0,0,1,1.77-3.14,5.28,5.28,0,0,1,3.25-.8A4.73,4.73,0,0,1,160.26,82.42Zm-.21,0a2.75,2.75,0,0,0-1.48-2.34,5.13,5.13,0,0,0-2.69-.58,4,4,0,0,0-2.42.85,2.24,2.24,0,0,0-.9,2A2.42,2.42,0,0,0,153.79,84a5.43,5.43,0,0,0,2.22.72,5.59,5.59,0,0,0,2.48-.23A2.28,2.28,0,0,0,160.05,82.42Z"/>
            </g>
            <g>
              <path class="cls-3" d="M167.12,83c.83,1.75-.22,3.83-2.34,4.64s-4.52.06-5.35-1.69.22-3.82,2.34-4.64S166.29,81.28,167.12,83Z"/>
              <path class="cls-4" d="M167.21,83a4,4,0,0,1,.22,3.2A4.31,4.31,0,0,1,165,88.71a5.1,5.1,0,0,1-3.59.1,4.63,4.63,0,0,1-2.72-2.47,3.79,3.79,0,0,1,.34-3.57,4.85,4.85,0,0,1,2.72-2,4.75,4.75,0,0,1,3.18.19A4.52,4.52,0,0,1,167.21,83Zm-.19.09a2.91,2.91,0,0,0-2.23-1.66,4.79,4.79,0,0,0-2.71.38,3.64,3.64,0,0,0-1.88,1.67,2.29,2.29,0,0,0,0,2.17,2.6,2.6,0,0,0,1.8,1.19,5,5,0,0,0,2.31-.09,4.86,4.86,0,0,0,2.16-1.11A2.3,2.3,0,0,0,167,83.07Z"/>
            </g>
            <g>
              <path class="cls-3" d="M179.77,84.36c.3,1.87-1.33,3.57-3.64,3.8s-4.41-1.12-4.71-3,1.34-3.58,3.64-3.8S179.48,82.48,179.77,84.36Z"/>
              <path class="cls-4" d="M179.88,84.34a4,4,0,0,1-.75,3.12,4.51,4.51,0,0,1-3,1.75,5.16,5.16,0,0,1-3.49-.8,4.43,4.43,0,0,1-2-3.11A3.77,3.77,0,0,1,172,82a5.12,5.12,0,0,1,3.15-1.14A4.77,4.77,0,0,1,179.88,84.34Zm-.21,0A2.81,2.81,0,0,0,178,82.2a5.1,5.1,0,0,0-2.74-.32,3.9,3.9,0,0,0-2.3,1.1,2.23,2.23,0,0,0-.66,2.06,2.46,2.46,0,0,0,1.42,1.58,5.13,5.13,0,0,0,2.27.5,5.4,5.4,0,0,0,2.43-.49A2.28,2.28,0,0,0,179.67,84.37Z"/>
            </g>
            <g>
              <path class="cls-3" d="M186.35,88c0,1.88-1.83,3.36-4.16,3.29s-4.25-1.65-4.28-3.53,1.83-3.36,4.16-3.29S186.32,86.06,186.35,88Z"/>
              <path class="cls-4" d="M186.45,88a4,4,0,0,1-1.18,3,4.52,4.52,0,0,1-3.21,1.35,5.18,5.18,0,0,1-3.38-1.21,4.36,4.36,0,0,1-1.61-3.35,3.78,3.78,0,0,1,1.85-3.09,5.22,5.22,0,0,1,3.26-.73A4.71,4.71,0,0,1,186.45,88Zm-.21,0a2.71,2.71,0,0,0-1.43-2.37,5,5,0,0,0-2.68-.63,4,4,0,0,0-2.44.8,2.26,2.26,0,0,0-.94,1.94,2.39,2.39,0,0,0,1.19,1.74,5.39,5.39,0,0,0,2.21.76,5.71,5.71,0,0,0,2.48-.18A2.28,2.28,0,0,0,186.24,88Z"/>
            </g>
            <g>
              <path class="cls-3" d="M194.2,90.22c0,1.93-2.27,3.21-4.6,3.14s-4.49-1.44-4.52-3.37,2.15-4,4.48-3.93S194.17,88.29,194.2,90.22Z"/>
              <path class="cls-4" d="M194.3,90.22a3.71,3.71,0,0,1-1.57,3,5.39,5.39,0,0,1-3.44,1.17,5.76,5.76,0,0,1-3.55-1.27,4.52,4.52,0,0,1-1.23-1.64,3.38,3.38,0,0,1-.21-2.1A5.19,5.19,0,0,1,190,85.57a5.67,5.67,0,0,1,4.34,4.65Zm-.21,0a3.4,3.4,0,0,0-1.49-2.61,5.34,5.34,0,0,0-2.76-1,3.85,3.85,0,0,0-3.89,3A1.92,1.92,0,0,0,187,91.47a6.26,6.26,0,0,0,2.43.83,7.42,7.42,0,0,0,2.77-.07A2.25,2.25,0,0,0,194.09,90.22Z"/>
            </g>
            <g>
              <path class="cls-3" d="M174.86,86.17a3.79,3.79,0,0,1-2.36,5.12,4.54,4.54,0,0,1-5.73-2,3.78,3.78,0,0,1,2.36-5.11A4.55,4.55,0,0,1,174.86,86.17Z"/>
              <path class="cls-4" d="M175,86.13a4.47,4.47,0,0,1,.32,3.43,4.37,4.37,0,0,1-2.58,2.77,5.23,5.23,0,0,1-3.87,0A5.09,5.09,0,0,1,166,89.64a4.26,4.26,0,0,1,.23-3.8,4.91,4.91,0,0,1,6.3-1.94A5.14,5.14,0,0,1,175,86.13Zm-.19.09a3.31,3.31,0,0,0-2.38-1.9,4.8,4.8,0,0,0-2.94.3,3.64,3.64,0,0,0-2,1.85,2.7,2.7,0,0,0,.08,2.46,3.06,3.06,0,0,0,2,1.44,5,5,0,0,0,2.51,0,4.55,4.55,0,0,0,2.28-1.3A2.68,2.68,0,0,0,174.77,86.22Z"/>
            </g>
            <g>
              <path class="cls-3" d="M199.9,93.6a3.7,3.7,0,0,1-4,3.62,4.15,4.15,0,0,1-4.28-3.68,3.7,3.7,0,0,1,4-3.62A4.14,4.14,0,0,1,199.9,93.6Z"/>
              <path class="cls-4" d="M200,93.6a4.35,4.35,0,0,1-1,3.11,4.29,4.29,0,0,1-3.23,1.55A4.91,4.91,0,0,1,192.34,97a4.7,4.7,0,0,1-1.55-3.4,4.09,4.09,0,0,1,1.64-3.24,4.86,4.86,0,0,1,3.3-.93,4.59,4.59,0,0,1,2.94,1.4A4.53,4.53,0,0,1,200,93.6Zm-.21,0a3,3,0,0,0-1.4-2.47,4.52,4.52,0,0,0-2.69-.68,3.62,3.62,0,0,0-2.4.93,2.54,2.54,0,0,0-.83,2.12,2.62,2.62,0,0,0,1.2,1.87,4.61,4.61,0,0,0,2.18.8,4.8,4.8,0,0,0,2.45-.32A2.49,2.49,0,0,0,199.79,93.6Z"/>
            </g>
            <g>
              <path class="cls-3" d="M206.46,97.38c.08,2-1.71,3.56-4,3.54a4.11,4.11,0,0,1-4.28-3.6c-.08-2,1.71-3.56,4-3.54A4.11,4.11,0,0,1,206.46,97.38Z"/>
              <path class="cls-4" d="M206.56,97.38a4.23,4.23,0,0,1-1,3.07,4.3,4.3,0,0,1-3.2,1.51,4.92,4.92,0,0,1-3.43-1.25,4.6,4.6,0,0,1-1.57-3.36,4,4,0,0,1,1.67-3.2,4.94,4.94,0,0,1,3.27-.89A4.71,4.71,0,0,1,206.56,97.38Zm-.21,0A2.87,2.87,0,0,0,204.94,95a4.71,4.71,0,0,0-2.68-.66,3.77,3.77,0,0,0-2.39.91,2.44,2.44,0,0,0-.84,2.07,2.55,2.55,0,0,0,1.2,1.82,4.8,4.8,0,0,0,2.17.77,5,5,0,0,0,2.45-.29A2.42,2.42,0,0,0,206.35,97.38Z"/>
            </g>
            <g>
              <path class="cls-3" d="M212.37,101.87c.08,2-1.82,3.56-4.24,3.54s-4.45-1.64-4.53-3.61,1.82-3.55,4.24-3.54S212.29,99.9,212.37,101.87Z"/>
              <path class="cls-4" d="M212.47,101.87a4.09,4.09,0,0,1-1.16,3.12,4.68,4.68,0,0,1-3.3,1.46,5.29,5.29,0,0,1-3.52-1.19,4.54,4.54,0,0,1-1.73-3.43,3.94,3.94,0,0,1,1.82-3.25,5.45,5.45,0,0,1,3.37-.83A4.87,4.87,0,0,1,212.47,101.87Zm-.2,0a2.92,2.92,0,0,0-1.54-2.45,5.2,5.2,0,0,0-2.81-.63,4.29,4.29,0,0,0-2.54.89,2.45,2.45,0,0,0-.95,2.09,2.58,2.58,0,0,0,1.29,1.83,5.53,5.53,0,0,0,2.34.76,5.68,5.68,0,0,0,2.59-.28A2.42,2.42,0,0,0,212.27,101.87Z"/>
            </g>
            <g>
              <path class="cls-3" d="M214.58,107.89a3.71,3.71,0,0,1-4.48,2.88,4,4,0,0,1-3.56-4.15c.25-2,2.85-3,5.07-2.61A3.25,3.25,0,0,1,214.58,107.89Z"/>
              <path class="cls-4" d="M214.69,107.9a4.35,4.35,0,0,1-1.44,2.84,4.3,4.3,0,0,1-3.32,1.07,4.86,4.86,0,0,1-3.18-1.68,4.51,4.51,0,0,1-1.05-3.5,3.21,3.21,0,0,1,.82-1.75,4.41,4.41,0,0,1,1.46-1,6.44,6.44,0,0,1,3.23-.44A4.08,4.08,0,0,1,214,105,4.26,4.26,0,0,1,214.69,107.9Zm-.21,0a2.79,2.79,0,0,0-.81-2.61,3.89,3.89,0,0,0-2.54-.78,5.22,5.22,0,0,0-2.55.61,2.08,2.08,0,0,0-1.22,1.71,2.52,2.52,0,0,0,.91,1.92,4.78,4.78,0,0,0,2,1,5.05,5.05,0,0,0,2.42,0A2.46,2.46,0,0,0,214.48,107.87Z"/>
            </g>
            <g>
              <path class="cls-3" d="M218.68,113.31a3.73,3.73,0,0,1-4.49,2.89,4,4,0,0,1-3.56-4.16c.26-1.94,2.85-3,5.08-2.61A3.26,3.26,0,0,1,218.68,113.31Z"/>
              <path class="cls-4" d="M218.78,113.33a4.32,4.32,0,0,1-4.75,3.91,4.9,4.9,0,0,1-3.18-1.68,4.53,4.53,0,0,1-1.06-3.5,3.28,3.28,0,0,1,.82-1.75,4.14,4.14,0,0,1,1.46-1,6.35,6.35,0,0,1,3.23-.44,4.13,4.13,0,0,1,2.79,1.53A4.31,4.31,0,0,1,218.78,113.33Zm-.21,0a2.77,2.77,0,0,0-.81-2.62,3.91,3.91,0,0,0-2.54-.77,5,5,0,0,0-2.55.61,2.07,2.07,0,0,0-1.21,1.71,2.47,2.47,0,0,0,.9,1.91,4.66,4.66,0,0,0,2,1,5,5,0,0,0,2.41,0A2.44,2.44,0,0,0,218.57,113.3Z"/>
            </g>
            <g>
              <path class="cls-3" d="M221.59,118.33a3.24,3.24,0,0,1-3.91,2.52,3.45,3.45,0,0,1-3.1-3.63c.22-1.7,2.48-2.59,4.42-2.28A2.84,2.84,0,0,1,221.59,118.33Z"/>
              <path class="cls-4" d="M221.69,118.34a4,4,0,0,1-1.22,2.54,3.76,3.76,0,0,1-2.95,1,4.34,4.34,0,0,1-2.86-1.5,4.1,4.1,0,0,1-.92-3.16,2.94,2.94,0,0,1,.74-1.58,4,4,0,0,1,1.31-.9,5.56,5.56,0,0,1,2.86-.37,3.62,3.62,0,0,1,2.45,1.38A3.88,3.88,0,0,1,221.69,118.34Zm-.21,0a2.34,2.34,0,0,0-.71-2.26,3.4,3.4,0,0,0-2.2-.63,4.35,4.35,0,0,0-2.18.54,1.73,1.73,0,0,0-1,1.43,2.06,2.06,0,0,0,.78,1.57,4.18,4.18,0,0,0,1.66.86,4.65,4.65,0,0,0,2,.1A2.06,2.06,0,0,0,221.48,118.31Z"/>
            </g>
          </g>
          <g>
            <g>
              <path class="cls-3" d="M181.55,90.8a3.47,3.47,0,0,1-3.2,4,4,4,0,0,1-4.63-2.87,3.47,3.47,0,0,1,3.19-4A4,4,0,0,1,181.55,90.8Z"/>
              <path class="cls-4" d="M181.65,90.78a4.17,4.17,0,0,1-.43,3.11,4.06,4.06,0,0,1-2.86,2,4.77,4.77,0,0,1-3.48-.74,4.6,4.6,0,0,1-2-3,3.87,3.87,0,0,1,1-3.35,4.7,4.7,0,0,1,3-1.36,4.67,4.67,0,0,1,4.69,3.39Zm-.21,0a2.85,2.85,0,0,0-1.71-2.12,4.41,4.41,0,0,0-2.64-.27A3.38,3.38,0,0,0,175,89.65a2.34,2.34,0,0,0-.44,2.11A2.57,2.57,0,0,0,176,93.33a4.58,4.58,0,0,0,2.16.44,4.37,4.37,0,0,0,2.27-.62A2.31,2.31,0,0,0,181.44,90.82Z"/>
            </g>
            <g>
              <path class="cls-3" d="M189.48,95c-.4,1.87-2.64,2.94-5,2.4s-4-2.49-3.57-4.36,2.64-2.94,5-2.39S189.88,93.16,189.48,95Z"/>
              <path class="cls-4" d="M189.58,95.05a4.13,4.13,0,0,1-1.89,2.69,4.83,4.83,0,0,1-3.49.69A5.37,5.37,0,0,1,181,96.6a4.29,4.29,0,0,1-.95-3.71,3.93,3.93,0,0,1,2.56-2.66,5.71,5.71,0,0,1,3.42-.07A4.71,4.71,0,0,1,189.58,95.05Zm-.2,0a2.71,2.71,0,0,0-1-2.67,5.4,5.4,0,0,0-2.6-1.15,4.62,4.62,0,0,0-2.67.31,2.38,2.38,0,0,0-1.43,1.75,2.32,2.32,0,0,0,.84,2,5.64,5.64,0,0,0,2.12,1.18,6.17,6.17,0,0,0,2.59.31A2.39,2.39,0,0,0,189.38,95Z"/>
            </g>
            <g>
              <path class="cls-3" d="M196.93,99.45c-.4,1.86-2.84,2.7-5.21,2.15s-4.7-1.95-4.3-3.81,3.37-3.48,5.74-2.94S197.32,97.58,196.93,99.45Z"/>
              <path class="cls-4" d="M197,99.47a3.81,3.81,0,0,1-2.21,2.63,5.58,5.58,0,0,1-3.64.45,7.22,7.22,0,0,1-3.32-1.57,4.24,4.24,0,0,1-1.22-1.74,2.85,2.85,0,0,1,.17-2.26,5.3,5.3,0,0,1,2.89-2.39,6,6,0,0,1,3.57-.25,5.31,5.31,0,0,1,2.81,2A4.25,4.25,0,0,1,197,99.47Zm-.21,0a3,3,0,0,0-1.06-2.81A5.57,5.57,0,0,0,193,95.36a4.83,4.83,0,0,0-2.81.48,3.86,3.86,0,0,0-1.89,1.82c-.56,1.3,1.6,2.27,3.36,2.86a7.77,7.77,0,0,0,2.81.5A2.33,2.33,0,0,0,196.82,99.43Z"/>
            </g>
            <g>
              <path class="cls-3" d="M203.8,102.76c.08,2-1.74,3.55-4.07,3.53s-4.28-1.63-4.36-3.6,1.74-3.56,4.07-3.54S203.73,100.78,203.8,102.76Z"/>
              <path class="cls-4" d="M203.91,102.75a4.2,4.2,0,0,1-1.06,3.09,4.45,4.45,0,0,1-3.24,1.5,5.09,5.09,0,0,1-3.46-1.23,4.6,4.6,0,0,1-1.62-3.39,3.94,3.94,0,0,1,1.72-3.21,5.09,5.09,0,0,1,3.3-.88A4.78,4.78,0,0,1,203.91,102.75Zm-.21,0a2.89,2.89,0,0,0-1.46-2.43,4.73,4.73,0,0,0-2.72-.65,3.93,3.93,0,0,0-2.44.9,2.44,2.44,0,0,0-.87,2.08,2.55,2.55,0,0,0,1.22,1.82,5,5,0,0,0,2.23.76,5.18,5.18,0,0,0,2.5-.28A2.43,2.43,0,0,0,203.7,102.76Z"/>
            </g>
            <g>
              <path class="cls-3" d="M208.13,108.63c-.4,1.74-2.47,2.72-4.61,2.19s-3.55-2.36-3.15-4.1,2.47-2.71,4.61-2.19S208.53,106.89,208.13,108.63Z"/>
              <path class="cls-4" d="M208.23,108.66a4,4,0,0,1-1.73,2.51,4.28,4.28,0,0,1-3.26.66,4.83,4.83,0,0,1-2.92-1.8,4.06,4.06,0,0,1-.76-3.49,3.72,3.72,0,0,1,2.39-2.47,5.16,5.16,0,0,1,3.18,0A4.34,4.34,0,0,1,208.23,108.66Zm-.2,0a2.5,2.5,0,0,0-.8-2.48,4.69,4.69,0,0,0-2.35-1.08,3.86,3.86,0,0,0-2.41.28,2.2,2.2,0,0,0-1.28,1.58,2.12,2.12,0,0,0,.71,1.79,4.85,4.85,0,0,0,1.85,1.1,5.54,5.54,0,0,0,2.33.34A2.23,2.23,0,0,0,208,108.61Z"/>
            </g>
          </g>
        </g>
        <path class="cls-4" d="M118.35,79.92c0-.07,0,0,.08,0h.38l.5,0c.34,0,.67.08,1,.14A10.78,10.78,0,0,1,125.64,83c1,1,1.63,2.08,2.76,2.25a2.16,2.16,0,0,0,2.49-1.61,2.32,2.32,0,0,0-.25-1.66,3.71,3.71,0,0,0-.49-.77,3.29,3.29,0,0,0-.65-.64A7.91,7.91,0,0,0,126,79.05,16.31,16.31,0,0,0,118.35,79.92Zm-.09,0a20.26,20.26,0,0,1,1.9-.73,17.58,17.58,0,0,1,1.93-.49,12.83,12.83,0,0,1,4-.16A8.44,8.44,0,0,1,129.9,80a4.66,4.66,0,0,1,1.39,1.6,3.17,3.17,0,0,1,.39,2.15,3.07,3.07,0,0,1-3.43,2.43,3.65,3.65,0,0,1-2-1c-.55-.56-.85-1-1.32-1.49A12.08,12.08,0,0,0,118.26,79.94Z"/>
        <path class="cls-4" d="M130.61,72c.16.41.24,1,.4,1.47s.35,1,.55,1.44a10.17,10.17,0,0,0,1.64,2.56A4.25,4.25,0,0,0,135.53,79a1.61,1.61,0,0,0,1.89-1.08.5.5,0,0,1,.47-.39h0a5.17,5.17,0,0,0,1.49-.25,3.76,3.76,0,0,0,1.31-.7,2.85,2.85,0,0,0,.87-1.18,4.62,4.62,0,0,0,.33-1.5l.31.42a11.13,11.13,0,0,1-4.19-2.52,8.37,8.37,0,0,1-1.51-1.94,8.17,8.17,0,0,1-.88-2.29l.46.15a5.45,5.45,0,0,0-1,1.41,6.16,6.16,0,0,0-.65,3.48,8.34,8.34,0,0,0,.38,1.77v0a.12.12,0,0,1-.09.17h0a5.18,5.18,0,0,1-2.4-.79,5,5,0,0,1-1-.8,4.74,4.74,0,0,1-.4-.49A3.45,3.45,0,0,1,130.61,72Zm0-.1c.14.16.29.37.42.53a5.74,5.74,0,0,0,.41.45,4.95,4.95,0,0,0,3.27,1.41l-.14.19a8.76,8.76,0,0,1-.46-1.83,6.37,6.37,0,0,1,0-1.9,6.54,6.54,0,0,1,.56-1.84,5.91,5.91,0,0,1,1.1-1.61.27.27,0,0,1,.38,0,.26.26,0,0,1,.07.11v0a7.86,7.86,0,0,0,.88,2.09,7.64,7.64,0,0,0,1.45,1.75,10.33,10.33,0,0,0,3.94,2.22h0a.42.42,0,0,1,.3.42,5.73,5.73,0,0,1-.34,1.81,3.83,3.83,0,0,1-1.07,1.57,4.6,4.6,0,0,1-1.63.94,5.82,5.82,0,0,1-1.84.32l.52-.39A2.56,2.56,0,0,1,135.35,80a5.06,5.06,0,0,1-2.75-2,9.88,9.88,0,0,1-1.51-2.87,9.37,9.37,0,0,1-.39-1.56A5.79,5.79,0,0,1,130.58,71.92Z"/>
        <g class="cls-7">
          <path class="cls-4" d="M224.15,132.83a34,34,0,0,1-2.7,12.85,38.75,38.75,0,0,1-7.07,11.16A41.83,41.83,0,0,1,204,165l-1.45.79-1.49.72c-1,.5-2,.88-3,1.31s-2.08.73-3.11,1.1-2.11.61-3.16.9a62.46,62.46,0,0,0,11.84-5.49,43.43,43.43,0,0,0,10-8.17A41.27,41.27,0,0,0,223,139.25,34.76,34.76,0,0,0,224.15,132.83Z"/>
        </g>
      </g>
      <g>
        <g>
          <g>
            <path class="cls-13" d="M26.66,18.32s40.85-28.81,64.17,34C90.83,52.34,54.46,81.07,26.66,18.32Z"/>
            <path class="cls-14" d="M26.66,18.32a39.76,39.76,0,0,1,9.55-4.85,39.13,39.13,0,0,1,10.56-2.22,33.09,33.09,0,0,1,10.8,1.09,34.9,34.9,0,0,1,9.92,4.51l1.15.75c.38.25.72.55,1.09.82.71.57,1.46,1.09,2.14,1.7l2,1.85c.67.61,1.25,1.32,1.88,2,1.28,1.3,2.35,2.76,3.49,4.17s2.1,2.95,3.12,4.45A106.85,106.85,0,0,1,91.85,52l.3.77-.64.46a36.12,36.12,0,0,1-9.76,4.92A34.61,34.61,0,0,1,71,59.87,34.16,34.16,0,0,1,50.76,53,61.35,61.35,0,0,1,36.37,37.2,102.82,102.82,0,0,1,31.08,28c-.77-1.6-1.6-3.14-2.33-4.79Zm0,0,2.4,4.75c.77,1.55,1.69,3.09,2.52,4.63a104.09,104.09,0,0,0,5.67,8.91,60.54,60.54,0,0,0,14.47,15,38.66,38.66,0,0,0,9.2,4.66A30.69,30.69,0,0,0,71,57.9a34,34,0,0,0,19.15-6.42l-.34,1.23A105.55,105.55,0,0,0,80.7,33.62c-1-1.46-1.94-2.94-3-4.35a52.19,52.19,0,0,0-3.34-4.06,43.79,43.79,0,0,0-7.81-7,33.37,33.37,0,0,0-9.36-4.58,32.5,32.5,0,0,0-10.38-1.35A41.82,41.82,0,0,0,26.66,18.32Z"/>
          </g>
          <path class="cls-14" d="M26.66,18.32a55.85,55.85,0,0,1,9,1.81c3,.81,5.87,1.8,8.75,2.88A134.55,134.55,0,0,1,61.1,30.83a157.9,157.9,0,0,1,15.52,9.89c2.5,1.76,4.87,3.71,7.29,5.58s4.66,4,6.92,6c-2.56-1.68-5-3.46-7.55-5.18l-3.81-2.53c-1.28-.83-2.51-1.73-3.81-2.51-2.59-1.6-5.1-3.32-7.74-4.82-1.31-.77-2.58-1.59-3.9-2.34l-4-2.23C54.74,29.78,49.33,27,43.78,24.57c-2.78-1.2-5.57-2.39-8.43-3.43A86.36,86.36,0,0,0,26.66,18.32Z"/>
          <path class="cls-14" d="M51.06,11.9a38.67,38.67,0,0,1,5,4.78,61.51,61.51,0,0,1,4.33,5.47C61.78,24.06,63,26,64.16,28.07s2.16,4.13,3.12,6.26l.34.76-.63.5a37.32,37.32,0,0,1-5.57,3.62,47.89,47.89,0,0,1-6,2.69,47.29,47.29,0,0,1-6.27,1.82,42.8,42.8,0,0,1-6.44.89c2.08-.6,4.15-1.16,6.16-1.89s4-1.51,5.92-2.36a61,61,0,0,0,5.62-2.92,40.7,40.7,0,0,0,5.17-3.5L65.3,35.2c-1-2.06-1.89-4.13-3-6.14s-2.18-4-3.33-6-2.42-3.87-3.74-5.74S52.56,13.66,51.06,11.9Z"/>
          <path class="cls-14" d="M69.39,19.52a48.64,48.64,0,0,1,4.08,5.37,57.5,57.5,0,0,1,3.38,5.86,47.87,47.87,0,0,1,2.56,6.33,31.64,31.64,0,0,1,1.28,6.81v.26l-.09.2a7.59,7.59,0,0,1-1,1.57c-.35.45-.73.86-1.12,1.27A20.12,20.12,0,0,1,76,49.32a30.85,30.85,0,0,1-5.59,3.21c-1,.47-2,.83-3,1.22s-2,.69-3,1-2,.56-3.07.79-2.06.42-3.09.61c1-.4,1.94-.79,2.92-1.17l2.88-1.21,2.83-1.3c.91-.5,1.86-.9,2.74-1.42a36.23,36.23,0,0,0,5.11-3.34,23.35,23.35,0,0,0,2.21-2,13.69,13.69,0,0,0,.94-1.1,6.71,6.71,0,0,0,.69-1.08l-.08.46a32.31,32.31,0,0,0-1.12-6.34,58.94,58.94,0,0,0-2.13-6.2c-.85-2-1.77-4.05-2.76-6S70.49,21.48,69.39,19.52Z"/>
        </g>
        <g>
          <g>
            <path class="cls-13" d="M108.21,66.94c14.36,21,51,18.83,87-32.37C195.23,34.57,148.3,21.63,108.21,66.94Z"/>
            <path class="cls-14" d="M108.21,66.94a32.05,32.05,0,0,0,4.54,5,28.44,28.44,0,0,0,5.53,3.77,29.19,29.19,0,0,0,12.85,3.15,37.85,37.85,0,0,0,6.64-.41c1.09-.21,2.19-.38,3.27-.65s2.16-.51,3.21-.89a59.81,59.81,0,0,0,12.16-5.47,90.92,90.92,0,0,0,11-7.63,121.19,121.19,0,0,0,9.9-9.06A178,178,0,0,0,194.36,34L195,35.6A65,65,0,0,0,183.14,34a86.16,86.16,0,0,0-12,.25A90.62,90.62,0,0,0,136.73,44.6c-1.81.91-3.5,2-5.25,3L129,49.26c-.85.54-1.7,1.1-2.51,1.7A117.18,117.18,0,0,0,108.21,66.94Zm0,0a109.21,109.21,0,0,1,17.64-16.8l1.21-.93,1.26-.87,2.52-1.73c1.75-1.06,3.44-2.21,5.25-3.17a89.67,89.67,0,0,1,11-5.32,85.57,85.57,0,0,1,23.81-5.82,86.94,86.94,0,0,1,12.29-.36,66,66,0,0,1,12.28,1.6l1.49.36-.9,1.29a165.64,165.64,0,0,1-17.37,21c-6.43,6.41-13.45,12.36-21.47,16.78a61,61,0,0,1-12.6,5.33c-1.09.36-2.22.56-3.33.84s-2.26.4-3.39.59a38.35,38.35,0,0,1-6.86.26A30,30,0,0,1,118,76.22a29,29,0,0,1-5.47-4A32,32,0,0,1,108.21,66.94Z"/>
          </g>
          <path class="cls-14" d="M195.23,34.57c-7.36,2.45-14.66,5-22,7.58s-14.57,5.19-21.8,7.92S137,55.53,129.8,58.36l-21.59,8.58c6.86-3.62,13.82-7.06,20.94-10.14,3.53-1.61,7.13-3,10.71-4.55s7.22-2.86,10.85-4.22c7.27-2.7,14.62-5.21,22-7.48S187.65,36.21,195.23,34.57Z"/>
          <path class="cls-14" d="M153.25,73.9a22.28,22.28,0,0,1-8-1.08l-1.93-.64-1.87-.78c-.63-.25-1.22-.57-1.83-.86s-1.22-.58-1.8-.92a58.57,58.57,0,0,1-6.8-4.35,66.09,66.09,0,0,1-6.25-5.14l-.53-.48.26-.63a28.17,28.17,0,0,1,2.63-4.75,44.34,44.34,0,0,1,3.25-4.2,45.4,45.4,0,0,1,3.72-3.75A43,43,0,0,1,138.23,43L136.47,45c-.56.66-1.15,1.29-1.7,2-1.11,1.33-2.19,2.67-3.2,4.06s-1.95,2.81-2.82,4.27a29.17,29.17,0,0,0-2.24,4.47l-.27-1.12c1.92,1.73,4,3.35,6.09,4.94s4.24,3.09,6.47,4.44a52.05,52.05,0,0,0,6.91,3.69A30.21,30.21,0,0,0,153.25,73.9Z"/>
          <path class="cls-14" d="M176.37,56.76q-4.45.42-9,.46c-3,0-6-.08-9-.28s-6-.57-8.95-1A77.74,77.74,0,0,1,140.59,54l-1.77-.52,1.33-1.27c2-1.93,4-3.78,6.14-5.54s4.27-3.47,6.51-5.06a60.56,60.56,0,0,1,14.41-8,93.43,93.43,0,0,0-13.41,9.26c-2.09,1.72-4.17,3.47-6.19,5.28s-4,3.64-5.94,5.53L141.23,52c2.76.77,5.69,1.4,8.59,1.91s5.83,1,8.77,1.34c1.47.17,2.95.36,4.42.5s3,.29,4.44.41C170.41,56.4,173.39,56.54,176.37,56.76Z"/>
        </g>
      </g>
    </g>
  </g>
</svg>
