<svg id="Layer_1" data-name="Layer 1" xmlns="http://www.w3.org/2000/svg" width="326.81" height="247.49" viewBox="0 0 326.81 247.49">
  <defs>
    <style>
      .cls-1 {
        fill: none;
        stroke: #fffa4d;
        stroke-linejoin: round;
        stroke-width: 20px;
      }

      .cls-2 {
        fill: #dc093b;
      }

      .cls-3 {
        fill: #83142a;
      }

      .cls-4 {
        opacity: 0.5;
      }

      .cls-5, .cls-7 {
        fill: #fff;
      }

      .cls-6 {
        opacity: 0.7;
      }

      .cls-7 {
        opacity: 0.3;
      }

      .cls-8 {
        fill: #ffd9bc;
      }

      .cls-9 {
        fill: #e3a07c;
      }

      .cls-10 {
        fill: #ffbf9d;
      }

      .cls-11 {
        fill: #875959;
      }

      .cls-12 {
        fill: #9cba3d;
      }

      .cls-13 {
        fill: #618e20;
      }
    </style>
  </defs>
  <g id="pro">
    <path class="cls-1" d="M297.54,198.52l.08-.12c.36-.56.72-1.13,1.07-1.7l.18-.29c.31-.51.62-1,.92-1.55l.28-.49c.26-.45.51-.91.76-1.37l.38-.7c.21-.39.41-.79.61-1.18s.31-.61.46-.92.33-.66.49-1,.35-.75.53-1.12.24-.55.37-.82l.57-1.3.28-.66.6-1.47.21-.53.6-1.59.16-.45c.2-.55.4-1.11.59-1.67l.13-.39c.19-.57.38-1.14.55-1.71.05-.13.09-.27.13-.41.17-.56.34-1.12.5-1.69.05-.15.09-.31.13-.46.15-.54.3-1.08.44-1.62l.15-.59c.13-.49.25-1,.37-1.49l.18-.77c.1-.43.19-.87.29-1.3s.14-.68.2-1l.21-1.05.24-1.33c0-.25.09-.5.13-.74.09-.57.18-1.14.26-1.72l.06-.36a91.18,91.18,0,0,0,.83-17.54,35.7,35.7,0,0,0-.69-4c-1.55-17.77-14.54-35.45-38.49-45.84-16.05-7-33-10.46-49.2-9.74,12.07-9.65,24.6-23.06,37.09-40.84,0,0-15.57-4.3-37.88-1.18v0l-.11.05c-19.44,2.74-44,11.13-67.78,32.92a87,87,0,0,0-7.9-7.07c-3.84-8.37-4.25-16.41-3-21.51C147.8,30.62,160.05,34,160.05,34c-7.29-8-14.58-3.42-18.29,0l-1.35-2.58c1.33-8.75-1.49-12.49-1.49-12.49-8.58,1.23-13.48,13.51-13.48,13.51-.3-16.89-15.31-12.9-15.31-12.9,5.51-.61,11.64,12,3.07,22.11a36.49,36.49,0,0,1-4.7,4.64C76.58-8.46,32.24,22.9,32.24,22.9c7,15.79,14.35,27.3,21.73,35.59v.06H54c.55.62,1.11,1.23,1.67,1.82-16.73,8.25-30.47,22-37.42,40-15.59,40.44,8.91,87.26,49.91,103.16,31.8,12.33,67.26,4,89.55-19.23,4.34,11.24,12.82,21.68,22.63,29.78h0l.21.17a67.54,67.54,0,0,0,28.06,13.72c30.66,7.42,54.35,1.86,71.23-10.58l.36-.26,1.26-1q.38-.28.75-.6c.29-.22.57-.45.84-.68s.72-.6,1.07-.91l.5-.44c.45-.39.88-.78,1.31-1.18l.24-.22c.5-.47,1-.95,1.48-1.43l.05,0A74,74,0,0,0,297.54,198.52Z"/>
    <g>
      <g>
        <g>
          <path class="cls-2" d="M94.54,52.48s9.7-.84,18.31-11,2.44-22.58-3-22c0,0,15-4,15.26,12.81,0,0,4.88-12.2,13.42-13.42,0,0,4,5.19.31,17.7,0,0,10.37-14,20.75-2.75,0,0-12.21-3.36-16.48,14-1.5,6.11-.61,16.48,5.8,26.55C148.86,74.46,130.55,57.67,94.54,52.48Z"/>
          <path class="cls-3" d="M94.49,52.48a28,28,0,0,0,11-4.7A32.54,32.54,0,0,0,110.13,44c.73-.68,1.39-1.43,2.05-2.18A19.45,19.45,0,0,0,114,39.41a16.23,16.23,0,0,0,2.52-11.28,13,13,0,0,0-2.1-5.42,7.5,7.5,0,0,0-2-2,3.9,3.9,0,0,0-2.56-.73h0a.44.44,0,0,1-.49-.39.45.45,0,0,1,.34-.48,16,16,0,0,1,6-.24,10.94,10.94,0,0,1,5.55,2.44,10.81,10.81,0,0,1,3.24,5.11,20,20,0,0,1,.86,5.93l-.62-.12a33.58,33.58,0,0,1,2.33-4.4,28.17,28.17,0,0,1,3-4,19.58,19.58,0,0,1,3.75-3.28,12.48,12.48,0,0,1,4.64-1.8h0a.15.15,0,0,1,.15.07,12,12,0,0,1,1.56,4.32,22.51,22.51,0,0,1,.29,4.56,31.48,31.48,0,0,1-.47,4.54l-.46,2.23L139,36.67l-.32-.16A23.68,23.68,0,0,1,143,32.18a15.09,15.09,0,0,1,5.56-2.71,10.08,10.08,0,0,1,6.18.5,15.09,15.09,0,0,1,5,3.66.36.36,0,0,1-.33.59h0a11.64,11.64,0,0,0-6.18.47,11.77,11.77,0,0,0-5.08,3.56A18.39,18.39,0,0,0,145,43.67c-.19.49-.41,1-.58,1.48l-.45,1.54a18.8,18.8,0,0,0-.72,3.1,32.31,32.31,0,0,0,1,12.67,40.63,40.63,0,0,0,2.11,6.06,47.26,47.26,0,0,0,3,5.66.51.51,0,0,1-.77.66h0a78.61,78.61,0,0,0-12.15-8.24A115.27,115.27,0,0,0,123,60.24c-2.31-.84-4.59-1.78-7-2.49-1.18-.38-2.34-.77-3.52-1.13l-3.57-1-1.78-.49-1.8-.42-3.61-.84c-1.19-.29-2.47-.47-3.69-.73Zm.1,0c2.49.41,4.88.65,7.28,1.11l3.64.74,1.82.37,1.79.46,3.6.93c1.19.34,2.37.72,3.55,1.08,2.38.68,4.69,1.59,7,2.4a116,116,0,0,1,13.51,6.2,72.44,72.44,0,0,1,12.39,8.3l-.78.65a48.82,48.82,0,0,1-3.11-5.79,44,44,0,0,1-2.18-6.21,33,33,0,0,1-.9-13.09,19.34,19.34,0,0,1,.76-3.22l.47-1.58c.19-.52.42-1,.62-1.53a19.16,19.16,0,0,1,3.43-5.67A12.76,12.76,0,0,1,153,33.91a12.34,12.34,0,0,1,6.63-.38l-.36.58a14.34,14.34,0,0,0-4.74-3.56A9.48,9.48,0,0,0,148.7,30a14.68,14.68,0,0,0-5.41,2.54,22.83,22.83,0,0,0-4.36,4.2.18.18,0,0,1-.25,0,.19.19,0,0,1-.07-.19l.59-2.19.47-2.21a32.28,32.28,0,0,0,.49-4.49,20.43,20.43,0,0,0-.29-4.49A11.63,11.63,0,0,0,138.34,19l.17.07A12.13,12.13,0,0,0,134,20.88a18.09,18.09,0,0,0-3.62,3.26,27.06,27.06,0,0,0-2.84,4,32.33,32.33,0,0,0-2.21,4.35.33.33,0,0,1-.43.18.34.34,0,0,1-.2-.29,19.28,19.28,0,0,0-.93-5.71,10.36,10.36,0,0,0-3.06-4.71,10.09,10.09,0,0,0-5.14-2.21,15.54,15.54,0,0,0-5.69.24l-.16-.88a4.79,4.79,0,0,1,3.14.89,8.52,8.52,0,0,1,2.22,2.26,13.93,13.93,0,0,1,2.2,5.78,16.68,16.68,0,0,1-2.75,11.77,20.24,20.24,0,0,1-1.9,2.4c-.69.75-1.37,1.5-2.13,2.19a32.11,32.11,0,0,1-4.75,3.79A29.93,29.93,0,0,1,100.4,51a27.07,27.07,0,0,1-2.88,1c-.49.14-1,.25-1.48.36l-.74.14-.38.05C94.81,52.49,94.65,52.57,94.59,52.49Z"/>
        </g>
        <g>
          <path class="cls-2" d="M173.88,159.59c-15.53,40.18-65,58.49-105.89,42.7S2.72,140,18.25,99.78s65.13-58.79,106-43S189.41,119.41,173.88,159.59Z"/>
          <path class="cls-3" d="M173.93,159.61a71.37,71.37,0,0,1-17.44,26.08,80.61,80.61,0,0,1-26.63,16.74,87,87,0,0,1-62,.33,87.42,87.42,0,0,1-46-41.77,80.34,80.34,0,0,1-8.55-30.38A71.09,71.09,0,0,1,35.63,73.39,81.33,81.33,0,0,1,62.37,56.71a86.61,86.61,0,0,1,62-.16A86.82,86.82,0,0,1,170,98.36a80.34,80.34,0,0,1,8.51,30.23A71.16,71.16,0,0,1,173.93,159.61Zm-.1,0a71.06,71.06,0,0,0,4.5-31,80.54,80.54,0,0,0-8.54-30.16A86.46,86.46,0,0,0,124.15,57a86.09,86.09,0,0,0-61.55.29,80.77,80.77,0,0,0-26.47,16.6,70.17,70.17,0,0,0-22,56.63,79.4,79.4,0,0,0,8.54,30,85.45,85.45,0,0,0,107,41.39,80.26,80.26,0,0,0,26.6-16.47A70.92,70.92,0,0,0,173.83,159.57Z"/>
        </g>
        <g class="cls-4">
          <path class="cls-5" d="M27.2,115.93a66.56,66.56,0,0,1,6.69-22.35A69.8,69.8,0,0,1,47.76,74.73a68,68,0,0,1,19.44-13,54.21,54.21,0,0,1,5.47-2.12l2.8-.88,1.4-.45c.47-.12.95-.21,1.43-.32l2.86-.61A25.62,25.62,0,0,1,84,56.8l5.81-.69a76,76,0,0,0-22.33,6.32,69,69,0,0,0-19.07,13A71.35,71.35,0,0,0,34.57,93.93c-.23.43-.48.84-.7,1.28l-.6,1.32-1.2,2.65a28.59,28.59,0,0,0-1.07,2.7l-1,2.74c-.64,1.83-1.08,3.72-1.63,5.59S27.61,114,27.2,115.93Z"/>
        </g>
        <g class="cls-4">
          <path class="cls-5" d="M121.17,65.81a81.34,81.34,0,0,1-.3,14.3,125.4,125.4,0,0,1-2.29,14.14c-.25,1.17-.58,2.31-.87,3.47s-.59,2.32-.94,3.46l-1,3.43c-.36,1.14-.76,2.27-1.16,3.39-.75,2.27-1.69,4.46-2.57,6.68s-2,4.35-3,6.5c1.71-4.45,3.42-8.88,4.82-13.42s2.69-9.11,3.74-13.73,1.87-9.31,2.51-14c.33-2.35.56-4.71.74-7.08S121.16,68.2,121.17,65.81Z"/>
        </g>
        <g class="cls-4">
          <path class="cls-5" d="M133.7,69.65a49.26,49.26,0,0,1,2.16,5.76c.58,2,1.09,4,1.5,6s.72,4.05,1,6.09l.32,3.07.17,3.08a76.62,76.62,0,0,1-.57,12.3c-.21,2-.64,4.06-1,6.08-.17,1-.48,2-.73,3s-.53,2-.8,3a118.6,118.6,0,0,0,1.78-12.11,88.61,88.61,0,0,0,.34-12.19,85.23,85.23,0,0,0-1.23-12.13A75.3,75.3,0,0,0,133.7,69.65Z"/>
        </g>
        <g class="cls-6">
          <path class="cls-3" d="M48.77,135.18a77.61,77.61,0,0,0-.3,20.59,60.55,60.55,0,0,0,5.88,19.6,56.32,56.32,0,0,0,12.19,16.41,42.84,42.84,0,0,0,3.93,3.32l2.06,1.55L74.71,198a38.86,38.86,0,0,0,4.52,2.48,19,19,0,0,0,2.37,1l2.41,1a44.53,44.53,0,0,1-9.55-4l-2.25-1.31-2.12-1.52A40.8,40.8,0,0,1,66,192.34a55.43,55.43,0,0,1-12.58-16.52,59.66,59.66,0,0,1-5.74-20,41,41,0,0,1-.33-5.19l-.08-2.6c0-.87.1-1.74.15-2.6l.18-2.59c0-.44,0-.87.1-1.3l.2-1.28Z"/>
        </g>
        <g class="cls-6">
          <path class="cls-3" d="M77.15,148.91a69.35,69.35,0,0,0-1.06,11.66,73.13,73.13,0,0,0,.7,11.65,70.7,70.7,0,0,0,2.36,11.43,91.91,91.91,0,0,0,3.95,11c-.46-.87-.91-1.74-1.35-2.62s-.91-1.75-1.26-2.67c-.74-1.82-1.51-3.64-2.08-5.52a65,65,0,0,1-2.61-11.53,66.52,66.52,0,0,1-.48-11.8c.11-2,.31-3.93.57-5.88A45.13,45.13,0,0,1,77.15,148.91Z"/>
        </g>
        <g class="cls-6">
          <path class="cls-3" d="M94.08,202.92a33,33,0,0,0,8.82-2,60.16,60.16,0,0,0,8.3-3.57,70.6,70.6,0,0,0,14.85-10.18,65.62,65.62,0,0,0,11.72-13.65,68.48,68.48,0,0,0,7.58-16.4,64.74,64.74,0,0,1-2.8,8.66,66.28,66.28,0,0,1-4.13,8.15,63,63,0,0,1-11.71,14,68,68,0,0,1-15.17,10.13,60.62,60.62,0,0,1-8.49,3.35A30.83,30.83,0,0,1,94.08,202.92Z"/>
        </g>
        <g class="cls-6">
          <path class="cls-3" d="M129.79,149.37a58.33,58.33,0,0,1-3.71,12.57A71.72,71.72,0,0,1,120,173.59a68.1,68.1,0,0,1-8.15,10.3c-.78.78-1.5,1.61-2.32,2.33l-2.45,2.19c-.81.74-1.7,1.38-2.57,2s-1.75,1.31-2.64,2a89.31,89.31,0,0,0,9.41-9c1.48-1.59,2.82-3.3,4.18-5,.67-.85,1.26-1.76,1.9-2.63l.94-1.33.86-1.38c.58-.91,1.21-1.8,1.74-2.74l1.61-2.82,1.49-2.9c.48-1,.91-2,1.39-2.94.9-2,1.71-4,2.45-6S129.24,151.48,129.79,149.37Z"/>
        </g>
        <path class="cls-3" d="M143.06,37.23a38.91,38.91,0,0,0-6,9.61,34.49,34.49,0,0,0-1.81,5.33,29.65,29.65,0,0,0-.91,5.54.46.46,0,0,1-.5.42.46.46,0,0,1-.39-.27,34.19,34.19,0,0,1-2.55-8.39,35.13,35.13,0,0,1-.32-8.75,37,37,0,0,1,1.87-8.53,33.75,33.75,0,0,1,1.68-4,26.53,26.53,0,0,1,2.19-3.76,37.42,37.42,0,0,0-3.34,8,38.41,38.41,0,0,0-1.55,8.43,34.73,34.73,0,0,0,.42,8.52,38.51,38.51,0,0,0,2.45,8.18l-.89.15a32.15,32.15,0,0,1,1-5.69,33.89,33.89,0,0,1,2.05-5.38,34.51,34.51,0,0,1,2.89-5A29.59,29.59,0,0,1,143.06,37.23Z"/>
        <path class="cls-7" d="M53.72,83S65.13,65,86,59.4a6.06,6.06,0,0,1,3.19,0c1.63.45,3.28,1.74,1.35,5.35-2.82,5.29,4.57,4.67,10.65,1.5,5.57-2.91,11.3-3.66,10.6,3.33-.83,8.22-13.83,36-22.65,25.66-7.7-9-12.1-15.88-20.76-11.53C60.64,87.56,50.5,89.63,53.72,83Z"/>
        <g class="cls-4">
          <path class="cls-5" d="M119.5,32.8a14,14,0,0,1-.14,5.47,15.85,15.85,0,0,1-2.16,5.13,13.84,13.84,0,0,1-3.85,4.07,15.79,15.79,0,0,1-2.47,1.31,16.88,16.88,0,0,1-2.67.76.08.08,0,0,1-.1-.06.11.11,0,0,1,0-.08h0c.71-.61,1.45-1.1,2.17-1.61.34-.29.7-.54,1-.81a9.07,9.07,0,0,0,1-.81c.33-.28.66-.56,1-.82s.63-.58,1-.85a14.31,14.31,0,0,0,1.8-1.85,15.07,15.07,0,0,0,2.44-4.58,14.22,14.22,0,0,0,.76-5.23h0a.08.08,0,0,1,.08-.08A.08.08,0,0,1,119.5,32.8Z"/>
        </g>
        <path class="cls-2" d="M162.06,117.84C143,146.28,152.71,213.73,208,226.58c73.62,17.13,104.71-38,102.49-82C305.51,99.74,209.63,54.9,162.06,117.84Z"/>
        <path class="cls-8" d="M189.26,93.61C213.93,81.38,243.94,83.12,271.4,95c39.91,17.27,49.33,54.8,25.84,79.09-22.07,22.84-57.93,38.43-103.49,17.82-30-13.55-49.63-49-29.7-77.5l.44.22a18,18,0,0,0-21.24-3.75s2.55-13.37,17.86-9.19c0,0-6.13-3.76-6.72-15.88,0,0,10.48-.83,18.55,5,0,0-1.94-11.69,11.71-13.36,0,0-8.65,10.44,4.91,16.29Z"/>
        <path class="cls-9" d="M176.53,176.6a38.37,38.37,0,0,0,5.82,4.89,64.81,64.81,0,0,0,6.46,4,94,94,0,0,0,13.87,6.19,100.39,100.39,0,0,0,29.67,5.89,82.4,82.4,0,0,0,29.9-4,79.35,79.35,0,0,0,13.87-6.12,92.94,92.94,0,0,0,12.51-8.66,87.22,87.22,0,0,1-12.26,9.09,81.24,81.24,0,0,1-13.88,6.42,73.18,73.18,0,0,1-14.89,3.53,87.94,87.94,0,0,1-15.3.7,98.62,98.62,0,0,1-29.89-6.17,95.25,95.25,0,0,1-13.84-6.48,64.48,64.48,0,0,1-6.38-4.21A36.1,36.1,0,0,1,176.53,176.6Z"/>
        <path class="cls-9" d="M217,120.9a14.22,14.22,0,0,0,5.49,4.44,37.18,37.18,0,0,0,6.66,2.54c4.58,1.42,9.15,2.93,13.61,4.77a65.18,65.18,0,0,1,6.5,3.19,48.56,48.56,0,0,1,6.07,3.95c.95.75,1.91,1.48,2.8,2.3s1.79,1.61,2.65,2.45a67.81,67.81,0,0,1,4.79,5.39,72.52,72.52,0,0,0-10.69-9.52,61.73,61.73,0,0,0-12.51-6.84c-4.38-1.89-8.93-3.39-13.46-4.95a38.21,38.21,0,0,1-6.66-2.84,20.54,20.54,0,0,1-2.95-2.11A9.41,9.41,0,0,1,217,120.9Z"/>
        <path class="cls-9" d="M210.12,125.7a130.35,130.35,0,0,1,12,8.19c1.94,1.45,3.78,3.05,5.68,4.49.94.75,2,1.38,2.94,2.07s2,1.25,3.1,1.79a40.29,40.29,0,0,0,6.59,2.81c2.27.77,4.63,1.3,6.95,2a36.79,36.79,0,0,1,6.78,2.72,30.32,30.32,0,0,1,5.86,4.31,33.84,33.84,0,0,0-6.08-3.88,36.59,36.59,0,0,0-6.77-2.41c-2.33-.6-4.69-1.16-7-1.9a42,42,0,0,1-6.78-2.79c-1.08-.58-2.11-1.24-3.15-1.88s-2-1.37-3-2.14c-1.92-1.52-3.75-3.08-5.6-4.62s-3.77-3-5.7-4.47S212.09,127.12,210.12,125.7Z"/>
        <path class="cls-9" d="M239.88,88.32a111.77,111.77,0,0,1,20.44,5c3.33,1.11,6.59,2.44,9.8,3.88A93.35,93.35,0,0,1,279.5,102a81,81,0,0,1,8.69,6,63.58,63.58,0,0,1,7.67,7.28,56.83,56.83,0,0,1,6.1,8.61,50.24,50.24,0,0,1,4,9.74,52.85,52.85,0,0,0-4.42-9.49,55.91,55.91,0,0,0-6.25-8.35,72.35,72.35,0,0,0-7.66-7.08,80.39,80.39,0,0,0-8.63-5.87A109.91,109.91,0,0,0,260.06,94c-3.28-1.21-6.61-2.27-10-3.21S243.32,89,239.88,88.32Z"/>
        <g>
          <path class="cls-10" d="M163.62,115.05l.87-.42-.44-.22Z"/>
          <path class="cls-9" d="M189.56,93.75c-.05-.08-.08-.15-.13-.22l-.17.08c-13.11-5.88-4.61-16.15-4.61-16.15C171,79.13,172.94,90.82,172.94,90.82c-8.07-5.84-18.55-5-18.55-5,.59,12.12,6.72,15.88,6.72,15.88-15.31-4.18-17.86,9.19-17.86,9.19a18,18,0,0,1,21.24,3.75s4.6,3.91,9.41-1.11c3.34-3.48,2.82-6.22,7.79-6C187.5,107.81,194.86,102.24,189.56,93.75Z"/>
        </g>
        <path class="cls-11" d="M155.67,105.86s6,0,10.67,6c3.56,4.52,9.61-.14,5.57-4.73C171.91,107.12,167.2,101.41,155.67,105.86Z"/>
        <path class="cls-11" d="M172.24,95.14a14.56,14.56,0,0,0,3.61,8.36c2.9,3.06,5.73,1.81,6.25-.14,0,0,5.8.14,6-5.57,0,0-7.11-2-8.66-8.64a8.68,8.68,0,0,0-1.68,9.33A6.83,6.83,0,0,1,172.24,95.14Z"/>
        <path class="cls-3" d="M189.23,93.56a81.26,81.26,0,0,1,23.26-7.49A93.25,93.25,0,0,1,237,85.46a115.62,115.62,0,0,1,24,5.1c1.93.67,3.87,1.33,5.79,2.06s3.8,1.52,5.66,2.37a80.43,80.43,0,0,1,10.82,5.82,63.76,63.76,0,0,1,17.93,16.63,46.9,46.9,0,0,1,8.78,22.67A42.09,42.09,0,0,1,305,163.84a47.2,47.2,0,0,1-7.19,9.93c-1.41,1.49-2.91,2.88-4.35,4.33s-3.08,2.69-4.62,4A88.74,88.74,0,0,1,268.06,195a80.89,80.89,0,0,1-23.66,6.38l-3.05.34c-1,.13-2,.08-3.08.13l-3.07.07-1.54,0c-.52,0-1-.06-1.54-.08l-6.14-.38-6.09-.9-1.52-.23c-.51-.09-1-.22-1.5-.34l-3-.7-3-.71c-1-.21-2-.6-2.94-.89l-5.85-1.89-5.69-2.33a62.44,62.44,0,0,1-11-5.54,67,67,0,0,1-9.81-7.44A64.49,64.49,0,0,1,160.85,161a49,49,0,0,1-5-23.84,43.24,43.24,0,0,1,8.2-22.81,0,0,0,0,1,.07,0,0,0,0,0,1,0,.06,46.11,46.11,0,0,0-5.52,10.86,41.87,41.87,0,0,0-2.28,11.92,48.41,48.41,0,0,0,5.2,23.5,63.82,63.82,0,0,0,14.74,19.16A68,68,0,0,0,196.8,192.6l5.65,2.3,5.79,1.86c1,.29,1.92.67,2.92.88l3,.7,3,.7c.5.11,1,.25,1.48.34l1.51.23,6,.92,6.07.4c.5,0,1,.08,1.52.08l1.52,0,3-.06c1,0,2,0,3-.11l3-.32a82.35,82.35,0,0,0,23.46-6.15,88.86,88.86,0,0,0,20.78-12.62c6.23-5.18,12.3-10.86,16.15-18.06a41.46,41.46,0,0,0,4.22-11.39,39.45,39.45,0,0,0,.63-12.12,46.42,46.42,0,0,0-8.87-22.38,63.24,63.24,0,0,0-17.86-16.32,102.89,102.89,0,0,0-22.14-10.07,115.22,115.22,0,0,0-23.78-5.24c-16.14-1.82-32.86.48-47.61,7.51a0,0,0,0,1-.07,0A.07.07,0,0,1,189.23,93.56Z"/>
        <path class="cls-3" d="M162.14,117.89a57.14,57.14,0,0,0-3.84,8.2,69.53,69.53,0,0,0-2.55,8.68,80,80,0,0,0-1.82,17.92,86.78,86.78,0,0,0,7.68,34.95c4.91,10.92,12.44,20.87,22.34,27.85a64.05,64.05,0,0,0,7.72,4.73A68.45,68.45,0,0,0,200,223.8,94.07,94.07,0,0,0,217.6,228c12,1.73,24.21,1.64,35.87-1.22a69.46,69.46,0,0,0,31.2-16.88,78.74,78.74,0,0,0,19.59-29.79,95.17,95.17,0,0,0,6.08-35.49.11.11,0,0,1,.11-.11.1.1,0,0,1,.1.1,89.65,89.65,0,0,1-4.76,36.06,83.87,83.87,0,0,1-8,16.57,74,74,0,0,1-11.65,14.28,68.54,68.54,0,0,1-15,10.75,72.73,72.73,0,0,1-17.28,6.4c-12,2.82-24.51,2.57-36.49.43a106.66,106.66,0,0,1-17.69-4.58,72.93,72.93,0,0,1-16.21-8.4A71.49,71.49,0,0,1,170,203.78a72.5,72.5,0,0,1-9.95-15.41A78.85,78.85,0,0,1,154.17,171a87,87,0,0,1-1.83-18.27,75.79,75.79,0,0,1,2.36-18.18A55,55,0,0,1,162,117.78a.1.1,0,0,1,.14,0A.1.1,0,0,1,162.14,117.89Z"/>
        <g>
          <path class="cls-3" d="M183.2,114.41c-2.69-1.58-6.36-.88-9.27,1.77-4.53,4.11-12.13,15.48-6.37,34.2,7.79,25.3,34,36.89,50.06,40.9,20.85,5.22,50.33.14,63.07-16.85,0,0,5.55-7.7-.94-9.71-7.85-2.42-29,.44-56.37-15.22C203.57,138.46,192.6,119.93,183.2,114.41Z"/>
          <path class="cls-3" d="M183.17,114.46a6.45,6.45,0,0,0-4.6-.66,9.74,9.74,0,0,0-4.2,2.12,23.69,23.69,0,0,0-5.63,7.63,32.42,32.42,0,0,0-2.58,18.6c.16,1.58.56,3.12.86,4.67l.65,2.3.32,1.14.41,1.11a47.64,47.64,0,0,0,3.95,8.62,55.09,55.09,0,0,0,12.28,14.37c9.76,8.13,21.64,13.56,34,16.61a73.76,73.76,0,0,0,18.92,1.77,76,76,0,0,0,18.82-3,53.88,53.88,0,0,0,17-8.39c.63-.49,1.29-.94,1.88-1.47l1.75-1.63.87-.82c.28-.28.52-.59.78-.89l1.55-1.82a9.21,9.21,0,0,0,1.3-2,11.88,11.88,0,0,0,.9-2.19,6,6,0,0,0,.29-2.3,4.29,4.29,0,0,0-.23-1.12,3.42,3.42,0,0,0-.61-.95c-1-1.16-2.69-1.45-4.22-1.76s-3.15-.43-4.74-.57c-3.18-.28-6.38-.5-9.56-.89a105.34,105.34,0,0,1-18.85-3.81,101.53,101.53,0,0,1-17.78-7.36,96.16,96.16,0,0,1-8.31-4.89l-2-1.36c-.67-.45-1.29-1-1.93-1.44-1.3-1-2.52-2-3.75-3A152.92,152.92,0,0,1,197,127.61c-2.15-2.36-4.33-4.7-6.56-7A40.2,40.2,0,0,0,183.17,114.46Zm.06-.09a40,40,0,0,1,7.37,6.12c2.26,2.27,4.43,4.63,6.65,6.93a151.61,151.61,0,0,0,13.9,13.17c1.24,1,2.48,2,3.78,2.92.65.46,1.28,1,1.94,1.39l2,1.33a95.26,95.26,0,0,0,8.27,4.76,108,108,0,0,0,17.61,7.33,106,106,0,0,0,18.66,4.08c3.16.43,6.35.7,9.53,1,1.59.16,3.19.33,4.78.61.39.06.79.16,1.18.26a8.16,8.16,0,0,1,1.17.33l.57.24.29.11.26.18.51.35a3.12,3.12,0,0,1,.44.45,3.66,3.66,0,0,1,.67,1.06,4.73,4.73,0,0,1,.25,1.22,6.44,6.44,0,0,1-.33,2.43,12.17,12.17,0,0,1-.93,2.24,9.69,9.69,0,0,1-1.32,2l-1.55,1.85c-.26.3-.5.63-.78.91l-.88.83-1.74,1.66c-.6.54-1.26,1-1.89,1.5a54.51,54.51,0,0,1-17.13,8.63,77.07,77.07,0,0,1-18.95,3.23A71.58,71.58,0,0,1,218.36,192a93,93,0,0,1-18.19-6.37,75.6,75.6,0,0,1-16.25-10.37,54.84,54.84,0,0,1-12.46-14.71,49.12,49.12,0,0,1-3.91-8.84l-.4-1.14-.31-1.17-.61-2.34a48,48,0,0,1-.77-4.78,33,33,0,0,1,3-18.81,24.75,24.75,0,0,1,5.78-7.64,9.79,9.79,0,0,1,4.29-2.12A6.61,6.61,0,0,1,183.23,114.37Z"/>
        </g>
        <path class="cls-3" d="M164.46,114.67c-.76-.6-1.46-1.25-2.23-1.81a20.49,20.49,0,0,0-2.44-1.5,16.74,16.74,0,0,0-5.36-1.81,18.16,18.16,0,0,0-11,1.71h0a.42.42,0,0,1-.58-.19.42.42,0,0,1,0-.29,14.38,14.38,0,0,1,2.46-5.32,11.46,11.46,0,0,1,4.52-3.7,13.59,13.59,0,0,1,5.68-1.12,8.71,8.71,0,0,1,1.44.09l1.43.16,2.81.61-.14.33A13.1,13.1,0,0,1,158,98.55a20.52,20.52,0,0,1-2.05-4,29,29,0,0,1-1.24-4.3c-.15-.73-.24-1.47-.37-2.21l-.22-2.23a.29.29,0,0,1,.26-.32h0a32.21,32.21,0,0,1,9.83.88,27.05,27.05,0,0,1,4.7,1.58,25.77,25.77,0,0,1,4.35,2.44l-.8.5a13.13,13.13,0,0,1,.37-5.19,10.75,10.75,0,0,1,2.52-4.56,12.27,12.27,0,0,1,4.28-2.92,6.81,6.81,0,0,1,1.22-.43l1.24-.37c.84-.16,1.68-.28,2.52-.43a.44.44,0,0,1,.51.36.44.44,0,0,1-.09.35l0,0a13.52,13.52,0,0,0-2.28,4.35,8.28,8.28,0,0,0-.11,4.83A9.11,9.11,0,0,0,185.32,91c.61.57,1.35,1,2,1.52l2.24,1.2h0a0,0,0,0,1,0,.06,0,0,0,0,1-.07,0l-2.32-1.08a23.54,23.54,0,0,1-2.14-1.44A9.18,9.18,0,0,1,182,87.1a8.72,8.72,0,0,1-.07-5.23,14.29,14.29,0,0,1,2.34-4.7l.4.73c-.8.16-1.61.3-2.4.47s-1.57.45-2.3.8a11.08,11.08,0,0,0-3.91,2.69A9.79,9.79,0,0,0,173.82,86a13.13,13.13,0,0,0-.38,4.74h0a.53.53,0,0,1-.81.49,24,24,0,0,0-4.14-2.4,27.36,27.36,0,0,0-4.53-1.6,34.46,34.46,0,0,0-4.74-.9,32.41,32.41,0,0,0-4.82-.22l.28-.32.14,2.2c.1.72.17,1.46.3,2.18a23.24,23.24,0,0,0,1.12,4.26,19.53,19.53,0,0,0,2,3.93,11.7,11.7,0,0,0,3,3.16.18.18,0,0,1,0,.25.18.18,0,0,1-.18.08l-2.78-.57-1.4-.1a7.39,7.39,0,0,0-1.41,0l-1.4.09a11,11,0,0,0-1.37.26l-.68.15c-.22,0-.43.16-.65.23a13,13,0,0,0-1.27.53A11.41,11.41,0,0,0,146,106a14.62,14.62,0,0,0-2.28,5l-.65-.47a18.42,18.42,0,0,1,5.64-1.73A17.33,17.33,0,0,1,160,111a20.06,20.06,0,0,1,2.4,1.66c.76.6,1.42,1.32,2.13,2a0,0,0,0,1-.07.07Z"/>
        <g>
          <g>
            <g>
              <path class="cls-2" d="M186.81,118.66c.14,2.87-3.38,6-6.75,6s-6.9-2.13-7-5,3.15-5.83,6.51-5.83S186.67,115.78,186.81,118.66Z"/>
              <path class="cls-3" d="M186.91,118.65a6.71,6.71,0,0,1-1.85,4.57,7.08,7.08,0,0,1-4.64,2.5,8.68,8.68,0,0,1-5.18-1.28,7.36,7.36,0,0,1-2-1.87,4.85,4.85,0,0,1-1-2.69,5,5,0,0,1,.67-2.73,7.23,7.23,0,0,1,1.73-2,7.62,7.62,0,0,1,4.8-1.77,9.56,9.56,0,0,1,4.74,1.45A5.33,5.33,0,0,1,186.91,118.65Zm-.21,0a3.39,3.39,0,0,0-.88-2.12,5.42,5.42,0,0,0-1.89-1.35,9.82,9.82,0,0,0-4.51-.79,6.39,6.39,0,0,0-3.93,1.75,4.48,4.48,0,0,0-1.63,3.59,4.12,4.12,0,0,0,2.42,2.9,8.92,8.92,0,0,0,4,1,7.65,7.65,0,0,0,4-1.25A4.64,4.64,0,0,0,186.7,118.66Z"/>
            </g>
            <g>
              <path class="cls-2" d="M196.55,120.72c1.26,2.69-.73,6.79-3.84,7.84s-7.2.12-8.46-2.58.6-6.53,3.71-7.57S195.29,118,196.55,120.72Z"/>
              <path class="cls-3" d="M196.64,120.67a6.51,6.51,0,0,1,.09,4.91,6.41,6.41,0,0,1-3.57,3.92,8.59,8.59,0,0,1-5.3.25,6.57,6.57,0,0,1-4.3-3.29,5.85,5.85,0,0,1,.35-5.29,6.79,6.79,0,0,1,3.94-3.27,9.27,9.27,0,0,1,4.93,0A5.88,5.88,0,0,1,196.64,120.67Zm-.19.09a4.58,4.58,0,0,0-3.76-2.42,9.53,9.53,0,0,0-4.51.55,5.58,5.58,0,0,0-3.06,2.9,4.34,4.34,0,0,0-.07,3.92,4.6,4.6,0,0,0,3.28,2,9,9,0,0,0,4.13-.21,6.49,6.49,0,0,0,3.27-2.45A4.53,4.53,0,0,0,196.45,120.76Z"/>
            </g>
            <g>
              <path class="cls-2" d="M206.59,129.9c-1.11,2.66-4.64,4-7.81,2.88s-5.58-4.27-4.47-6.93,5.48-4.22,8.65-3.07S207.71,127.25,206.59,129.9Z"/>
              <path class="cls-3" d="M206.69,129.94a6.62,6.62,0,0,1-3.32,3.44,6.71,6.71,0,0,1-5.1.32,8.16,8.16,0,0,1-4.12-3.14,6.32,6.32,0,0,1-1-2.57,4.55,4.55,0,0,1,.53-2.78,6.85,6.85,0,0,1,4.12-3,8.37,8.37,0,0,1,4.93,0A6.15,6.15,0,0,1,206.69,129.94Zm-.19-.08a4.43,4.43,0,0,0-.49-4.31,6.06,6.06,0,0,0-3.55-2.38,7.22,7.22,0,0,0-4.21.31,5.41,5.41,0,0,0-3.06,2.49,3.21,3.21,0,0,0,.65,3.39,8.14,8.14,0,0,0,3.18,2.39,7.27,7.27,0,0,0,4,.57A4.52,4.52,0,0,0,206.5,129.86Z"/>
            </g>
            <g>
              <path class="cls-2" d="M214.23,137.4c-1.11,2.65-4.64,4-7.81,2.88s-5.58-4.28-4.47-6.93,5.48-4.22,8.65-3.08S215.34,134.74,214.23,137.4Z"/>
              <path class="cls-3" d="M214.33,137.44a6.62,6.62,0,0,1-3.32,3.44,6.76,6.76,0,0,1-5.1.32,8.08,8.08,0,0,1-4.12-3.15,6.22,6.22,0,0,1-1-2.56,4.55,4.55,0,0,1,.53-2.78,6.85,6.85,0,0,1,4.12-3,8.29,8.29,0,0,1,4.93,0A6.15,6.15,0,0,1,214.33,137.44Zm-.19-.08a4.43,4.43,0,0,0-.49-4.31,6,6,0,0,0-3.55-2.38,7.14,7.14,0,0,0-4.21.31,5.37,5.37,0,0,0-3.06,2.49,3.21,3.21,0,0,0,.65,3.39,8.34,8.34,0,0,0,3.18,2.39,7.27,7.27,0,0,0,4,.57A4.52,4.52,0,0,0,214.14,137.36Z"/>
            </g>
            <g>
              <path class="cls-2" d="M222.94,142.81a6.58,6.58,0,0,1-8.52,3.13,5.53,5.53,0,0,1-2.71-7.29c1.11-2.66,5-4.3,8.28-3.54C224.5,136.15,224.06,140.16,222.94,142.81Z"/>
              <path class="cls-3" d="M223,142.85a7.79,7.79,0,0,1-3.27,3.65,7.41,7.41,0,0,1-2.48.88,6,6,0,0,1-2.74-.26,6.52,6.52,0,0,1-2.39-1.44,6.34,6.34,0,0,1-1.52-2.37,6.73,6.73,0,0,1,.49-5.37,7.21,7.21,0,0,1,4.14-3.16,8.71,8.71,0,0,1,5-.13,5.82,5.82,0,0,1,2.24,1.24,4,4,0,0,1,1.19,2.23A9.08,9.08,0,0,1,223,142.85Zm-.19-.08a6.42,6.42,0,0,0,.46-4.54,4,4,0,0,0-3.27-2.56,7.43,7.43,0,0,0-4.32.39,5.65,5.65,0,0,0-3.1,2.65,4.7,4.7,0,0,0-.05,3.85,5.11,5.11,0,0,0,2.72,2.61,6.32,6.32,0,0,0,4,.3A5.25,5.25,0,0,0,222.85,142.77Z"/>
            </g>
            <g>
              <path class="cls-2" d="M232.36,148.23c-1.11,2.65-5.2,4-8.57,2.29-3-1.49-3.78-4-2.67-6.67s4.69-4.13,7.83-2.91C233.26,142.6,233.47,145.57,232.36,148.23Z"/>
              <path class="cls-3" d="M232.46,148.27a6.89,6.89,0,0,1-8.34,3.52,7.7,7.7,0,0,1-2.29-1.23,5.84,5.84,0,0,1-1.69-2.13,5.43,5.43,0,0,1-.42-2.71,6.89,6.89,0,0,1,.77-2.49,6.37,6.37,0,0,1,4-3.06,7.12,7.12,0,0,1,4.84.35,5.46,5.46,0,0,1,3.16,7.75Zm-.2-.08a4.7,4.7,0,0,0,.06-4.27,6,6,0,0,0-3.41-2.43,5.91,5.91,0,0,0-4,0A4.9,4.9,0,0,0,222,144a5.34,5.34,0,0,0-.42,1.86,3.57,3.57,0,0,0,.43,1.7,5.83,5.83,0,0,0,2.84,2.3,8.12,8.12,0,0,0,3.95.62A4.28,4.28,0,0,0,232.26,148.19Z"/>
            </g>
            <g>
              <path class="cls-2" d="M243.91,152.28c-1.18,2.82-5.86,4.07-9.82,2.16-3.53-1.7-4.55-4.44-3.37-7.25s5.27-4.27,8.95-2.85C244.72,146.28,245.08,149.47,243.91,152.28Z"/>
              <path class="cls-3" d="M244,152.32a6.46,6.46,0,0,1-3.94,3.38,8.59,8.59,0,0,1-5.49.07,9.78,9.78,0,0,1-2.52-1.27,7.32,7.32,0,0,1-2-2.17,5.59,5.59,0,0,1-.72-3,6.53,6.53,0,0,1,.77-2.83,6.61,6.61,0,0,1,4.57-3.19,8.86,8.86,0,0,1,5.34.55,12.74,12.74,0,0,1,2.28,1.34,6.45,6.45,0,0,1,1.72,2A6,6,0,0,1,244,152.32Zm-.19-.08a4.77,4.77,0,0,0-.18-4.74,7.92,7.92,0,0,0-4-2.61,7.57,7.57,0,0,0-4.63-.21,5.12,5.12,0,0,0-3.39,2.62,4.76,4.76,0,0,0-.42,2.08,3.71,3.71,0,0,0,.64,1.88,7.89,7.89,0,0,0,3.47,2.55,10.13,10.13,0,0,0,2.18.64,8,8,0,0,0,2.35.16A4.65,4.65,0,0,0,243.81,152.24Z"/>
            </g>
            <g>
              <path class="cls-2" d="M253.8,157.36c-1.18,2.81-5.33,4.26-8.69,2.57-3-1.51-3.72-4.15-2.55-7a6.33,6.33,0,0,1,8-3.21C254.82,151.43,255,154.55,253.8,157.36Z"/>
              <path class="cls-3" d="M253.89,157.4a6.65,6.65,0,0,1-3.36,3.43,6.87,6.87,0,0,1-5.11.37,7.61,7.61,0,0,1-2.34-1.31,5.67,5.67,0,0,1-1.65-2.28,5.6,5.6,0,0,1-.3-2.76,7.76,7.76,0,0,1,.81-2.52,7,7,0,0,1,8.95-3,8.38,8.38,0,0,1,2.06,1.34,5,5,0,0,1,1.35,2.06A6.94,6.94,0,0,1,253.89,157.4Zm-.19-.08a5.18,5.18,0,0,0,.19-4.41,5.74,5.74,0,0,0-3.4-2.59,5.68,5.68,0,0,0-7.05,2.75,4.54,4.54,0,0,0-.1,3.74,5.43,5.43,0,0,0,2.81,2.43,7.54,7.54,0,0,0,4,.53A4.53,4.53,0,0,0,253.7,157.32Z"/>
            </g>
            <g>
              <path class="cls-2" d="M264.56,159.05c-.47,3-4.08,6-7.73,5-3.25-.93-6-2.5-5.5-6.87.34-3,5.14-5,8.47-4.37C264.36,153.65,265,156.06,264.56,159.05Z"/>
              <path class="cls-3" d="M264.66,159.07a7.75,7.75,0,0,1-2.45,4.45,6.89,6.89,0,0,1-2.35,1.41,5.92,5.92,0,0,1-2.87.23,12,12,0,0,1-2.57-.81,8.09,8.09,0,0,1-2.34-1.59,5.72,5.72,0,0,1-1.45-2.55,7.33,7.33,0,0,1-.15-2.78l0-.34.08-.38a3.49,3.49,0,0,1,.25-.73,4.58,4.58,0,0,1,.82-1.22,7.33,7.33,0,0,1,2.21-1.6,10,10,0,0,1,5.12-1,10.53,10.53,0,0,1,2.51.65,5.78,5.78,0,0,1,2.15,1.44,4.14,4.14,0,0,1,1.06,2.3A9,9,0,0,1,264.66,159.07Zm-.2,0a6.62,6.62,0,0,0,0-2.43,3.39,3.39,0,0,0-1.15-2,5.46,5.46,0,0,0-2.1-1,9.88,9.88,0,0,0-2.32-.35,8.92,8.92,0,0,0-4.43,1.14c-1.32.74-2.39,1.87-2.36,3.18a4.3,4.3,0,0,0,1.38,3.72,6.26,6.26,0,0,0,1.79,1.09c.33.15.69.28,1.05.41a8,8,0,0,0,1.06.34,5.86,5.86,0,0,0,4.14-.5A5.36,5.36,0,0,0,264.46,159Z"/>
            </g>
            <g>
              <path class="cls-2" d="M272.37,162.05a5.24,5.24,0,0,1-6.27,4c-2.64-.75-4.86-2-4.46-5.57.27-2.44,4.17-4.05,6.87-3.55C272.21,157.67,272.75,159.62,272.37,162.05Z"/>
              <path class="cls-3" d="M272.47,162.07a6.58,6.58,0,0,1-2,3.69,5,5,0,0,1-4.33,1.43,9.42,9.42,0,0,1-2.13-.66,6.33,6.33,0,0,1-1.95-1.33,4.85,4.85,0,0,1-1.2-2.17,6.07,6.07,0,0,1-.12-2.31l0-.28.07-.32a2.53,2.53,0,0,1,.22-.62,3.72,3.72,0,0,1,.69-1,5.93,5.93,0,0,1,1.84-1.31,8.12,8.12,0,0,1,4.22-.77,7.3,7.3,0,0,1,2.05.55,4.81,4.81,0,0,1,1.75,1.2,3.57,3.57,0,0,1,.85,1.9A7.66,7.66,0,0,1,272.47,162.07Zm-.2,0a5.62,5.62,0,0,0,0-2,2.78,2.78,0,0,0-.95-1.61,6.32,6.32,0,0,0-3.56-1,7.11,7.11,0,0,0-3.53.93,3,3,0,0,0-1.81,2.49,3.27,3.27,0,0,0,1.09,2.86,8.8,8.8,0,0,0,3.07,1.43,4.75,4.75,0,0,0,3.26-.29A4.19,4.19,0,0,0,272.27,162Z"/>
            </g>
            <g>
              <path class="cls-2" d="M276.94,171.29c-3.27-.35-7.35-2.6-6.69-5.6.59-2.67,2.92-4.6,7.66-4.25,3.28.24,5.34,3.89,4.76,6.56C282.18,170.27,280.21,171.64,276.94,171.29Z"/>
              <path class="cls-3" d="M276.93,171.39a15.31,15.31,0,0,1-4.48-1,6.76,6.76,0,0,1-2.09-1.34,4,4,0,0,1-1.21-2.54,5.22,5.22,0,0,1,.64-2.68,5.7,5.7,0,0,1,1.82-2,8.57,8.57,0,0,1,4.8-1.24,9.89,9.89,0,0,1,2.42.26,5.41,5.41,0,0,1,2.23,1.22,6.69,6.69,0,0,1,2.18,4.28,4.53,4.53,0,0,1-1.9,4.23A7,7,0,0,1,276.93,171.39Zm0-.2a5.11,5.11,0,0,0,4.12-1,4,4,0,0,0,1.13-3.74,5.53,5.53,0,0,0-2-3.38,4.14,4.14,0,0,0-1.72-.79,8.84,8.84,0,0,0-2-.05,6.36,6.36,0,0,0-3.64,1.24,4,4,0,0,0-1.11,1.33,4,4,0,0,0-.47,1.58,4.17,4.17,0,0,0,1.78,3A8.05,8.05,0,0,0,277,171.19Z"/>
            </g>
          </g>
          <g>
            <g>
              <path class="cls-2" d="M181.09,127c.16,3.16-3.16,6.24-6.85,6.24s-7.46-1.42-7.61-4.58,3.22-7.29,6.91-7.29S180.94,123.82,181.09,127Z"/>
              <path class="cls-3" d="M181.2,127a6.88,6.88,0,0,1-1.93,4.91,7.27,7.27,0,0,1-5.11,2.39,10.87,10.87,0,0,1-5.47-1.21,5.93,5.93,0,0,1-2.24-2.08,4.64,4.64,0,0,1-.64-3,8.43,8.43,0,0,1,2.65-4.92,7.36,7.36,0,0,1,5-2.19,9,9,0,0,1,5,1.79A6.29,6.29,0,0,1,181.2,127Zm-.21,0a5,5,0,0,0-2.73-4,9,9,0,0,0-4.76-1.11,6.1,6.1,0,0,0-4.07,2.1,6.87,6.87,0,0,0-2,4.11,3.16,3.16,0,0,0,2.16,3.13,12.26,12.26,0,0,0,4.53,1,7.46,7.46,0,0,0,4.37-1.14A4.86,4.86,0,0,0,181,127Z"/>
            </g>
            <g>
              <path class="cls-2" d="M191.6,130.73c.15,3.17-3.16,6.25-6.85,6.25s-7.46-1.42-7.62-4.58,3.23-7.29,6.92-7.29S191.44,127.57,191.6,130.73Z"/>
              <path class="cls-3" d="M191.7,130.73a6.79,6.79,0,0,1-1.93,4.91,7.22,7.22,0,0,1-5.1,2.38,10.77,10.77,0,0,1-5.48-1.2,5.93,5.93,0,0,1-2.24-2.08,4.72,4.72,0,0,1-.64-3,8.42,8.42,0,0,1,2.66-4.92,7.32,7.32,0,0,1,5-2.19,8.94,8.94,0,0,1,5,1.79A6.28,6.28,0,0,1,191.7,130.73Zm-.21,0a4.93,4.93,0,0,0-2.73-4,8.88,8.88,0,0,0-4.75-1.11,6.15,6.15,0,0,0-4.08,2.1,7,7,0,0,0-2,4.11,3.18,3.18,0,0,0,2.16,3.13,12.31,12.31,0,0,0,4.54,1,7.56,7.56,0,0,0,4.37-1.14A4.85,4.85,0,0,0,191.49,130.74Z"/>
            </g>
            <g>
              <path class="cls-2" d="M203.05,135.06c-1,3-5.24,5-8.8,3.95s-6.69-3.4-5.72-6.4,5.67-5.93,9.23-4.91S204,132.05,203.05,135.06Z"/>
              <path class="cls-3" d="M203.15,135.09a7.4,7.4,0,0,1-3.45,4,7.64,7.64,0,0,1-5.55.95,10.7,10.7,0,0,1-5-2.61,5.46,5.46,0,0,1-1.58-2.67,4.52,4.52,0,0,1,.43-3.11,9.13,9.13,0,0,1,4.12-3.77,8.14,8.14,0,0,1,5.43-.78,8.35,8.35,0,0,1,4.41,3A5.7,5.7,0,0,1,203.15,135.09ZM203,135a4.55,4.55,0,0,0-1.32-4.61,8.34,8.34,0,0,0-4.31-2.27,6.9,6.9,0,0,0-4.57,1,7.7,7.7,0,0,0-3.24,3.28,2.86,2.86,0,0,0,1.05,3.55,12.14,12.14,0,0,0,4.12,2.09,8.27,8.27,0,0,0,4.58.05A5.25,5.25,0,0,0,203,135Z"/>
            </g>
            <g>
              <path class="cls-2" d="M209.25,141.35c.14,2.76-2.33,5-5.51,5s-5.87-2.24-6-5,2.33-5,5.51-5S209.12,138.59,209.25,141.35Z"/>
              <path class="cls-3" d="M209.36,141.35a5.46,5.46,0,0,1-1.46,4.13,6,6,0,0,1-4.31,1.91,6.77,6.77,0,0,1-4.54-1.62,6,6,0,0,1-2.15-4.38,5.26,5.26,0,0,1,2.12-4.26,6.64,6.64,0,0,1,4.37-1.29A6.34,6.34,0,0,1,209.36,141.35Zm-.21,0a4.29,4.29,0,0,0-2-3.44,6.48,6.48,0,0,0-3.79-1,5.46,5.46,0,0,0-3.49,1.3,3.73,3.73,0,0,0-1.31,3.13,4,4,0,0,0,1.77,2.84,6.85,6.85,0,0,0,6.85.47A3.69,3.69,0,0,0,209.15,141.36Z"/>
            </g>
            <g>
              <path class="cls-2" d="M218.37,145.41c.15,3.05-2.52,5.52-6,5.52s-6.35-2.47-6.5-5.52,2.52-5.51,6-5.51S218.22,142.37,218.37,145.41Z"/>
              <path class="cls-3" d="M218.47,145.41a6,6,0,0,1-1.57,4.49,6.4,6.4,0,0,1-4.65,2.07,7.26,7.26,0,0,1-4.9-1.79,6.57,6.57,0,0,1-2.27-4.73,5.74,5.74,0,0,1,2.22-4.62,7,7,0,0,1,4.72-1.45A6.86,6.86,0,0,1,218.47,145.41Zm-.21,0a4.8,4.8,0,0,0-2.13-3.8,6.81,6.81,0,0,0-4.13-1.2,5.85,5.85,0,0,0-3.82,1.45,4.21,4.21,0,0,0-1.43,3.5,4.53,4.53,0,0,0,1.92,3.21,7.14,7.14,0,0,0,7.51.47A4.12,4.12,0,0,0,218.26,145.42Z"/>
            </g>
            <g>
              <path class="cls-2" d="M227.58,151.45c.15,3.05-2.52,5.52-6,5.52s-6.35-2.47-6.5-5.52,3.52-6.77,6.95-6.77S227.43,148.4,227.58,151.45Z"/>
              <path class="cls-3" d="M227.68,151.45a6,6,0,0,1-1.75,4.64,6.51,6.51,0,0,1-5,1.9,7.34,7.34,0,0,1-5-2.27,6.19,6.19,0,0,1-1.65-5.25,7.91,7.91,0,0,1,2.85-4.42,7.58,7.58,0,0,1,4.79-1.88,4.91,4.91,0,0,1,2.51.78,5.75,5.75,0,0,1,1.73,1.85A10.85,10.85,0,0,1,227.68,151.45Zm-.21,0a7.38,7.38,0,0,0-1.59-4.41,4.58,4.58,0,0,0-3.87-1.84,7.14,7.14,0,0,0-6,5.52,4.24,4.24,0,0,0,1.47,3.53,7,7,0,0,0,7.76,1A4.21,4.21,0,0,0,227.47,151.46Z"/>
            </g>
            <g>
              <path class="cls-2" d="M233.09,160.46a6.86,6.86,0,0,1-8.75-1.24,5,5,0,0,1,1-7.71c2.69-1.79,8.37-1.21,10.51,1.26S235.78,158.67,233.09,160.46Z"/>
              <path class="cls-3" d="M233.14,160.55a8,8,0,0,1-4.81,1.42,6.73,6.73,0,0,1-4.89-2.19,6.28,6.28,0,0,1-1.35-2.55,5.93,5.93,0,0,1,0-2.93,6.23,6.23,0,0,1,3.81-4,10.3,10.3,0,0,1,5.2-.37,9,9,0,0,1,4.7,2.12,4,4,0,0,1,1.2,2.41,4.41,4.41,0,0,1-.56,2.52A11.08,11.08,0,0,1,233.14,160.55Zm-.11-.18a7.48,7.48,0,0,0,3.05-3.6,3.34,3.34,0,0,0-1-4,7.84,7.84,0,0,0-4.17-1.54,8.82,8.82,0,0,0-4.39.57,4.23,4.23,0,0,0-2.43,3,4.53,4.53,0,0,0,.92,3.64,6.91,6.91,0,0,0,3.44,2.43A5.46,5.46,0,0,0,233,160.37Z"/>
            </g>
            <g>
              <path class="cls-2" d="M243.26,165.3a6.87,6.87,0,0,1-8.75-1.24,5,5,0,0,1,1-7.71c2.7-1.79,8.37-1.21,10.51,1.26S246,163.51,243.26,165.3Z"/>
              <path class="cls-3" d="M243.32,165.39a8.09,8.09,0,0,1-4.81,1.42,6.71,6.71,0,0,1-4.89-2.19,6.18,6.18,0,0,1-1.36-2.55,5.93,5.93,0,0,1,0-2.93,6.23,6.23,0,0,1,3.81-4,10.3,10.3,0,0,1,5.2-.37,9,9,0,0,1,4.7,2.12,4,4,0,0,1,1.21,2.41,4.49,4.49,0,0,1-.56,2.52A11.08,11.08,0,0,1,243.32,165.39Zm-.12-.18a7.5,7.5,0,0,0,3.06-3.6,3.37,3.37,0,0,0-.95-4,7.9,7.9,0,0,0-4.18-1.54,8.82,8.82,0,0,0-4.39.57,4.25,4.25,0,0,0-2.43,3,4.57,4.57,0,0,0,.92,3.64,6.9,6.9,0,0,0,3.45,2.43A5.47,5.47,0,0,0,243.2,165.21Z"/>
            </g>
            <g>
              <path class="cls-2" d="M255.88,164.26c.13,2.76-2.33,5-5.51,5s-5.85-2.23-6-5,2.33-5,5.5-5S255.74,161.5,255.88,164.26Z"/>
              <path class="cls-3" d="M256,164.25a5.48,5.48,0,0,1-1.45,4.13,5.94,5.94,0,0,1-4.31,1.91,6.69,6.69,0,0,1-4.54-1.62,6,6,0,0,1-2.13-4.37,5.24,5.24,0,0,1,2.11-4.26,6.58,6.58,0,0,1,4.37-1.3A6.34,6.34,0,0,1,256,164.25Zm-.21,0a4.31,4.31,0,0,0-2-3.44,6.46,6.46,0,0,0-3.78-1,5.33,5.33,0,0,0-3.49,1.3,3.72,3.72,0,0,0-1.3,3.13,4,4,0,0,0,1.76,2.83,6.81,6.81,0,0,0,6.83.47A3.66,3.66,0,0,0,255.77,164.26Z"/>
            </g>
            <g>
              <path class="cls-2" d="M267.3,167.48c.14,2.94-2.79,5.31-6.55,5.31s-6.92-2.37-7.06-5.31,2.79-5.3,6.54-5.3S267.15,164.55,267.3,167.48Z"/>
              <path class="cls-3" d="M267.4,167.48a5.55,5.55,0,0,1-2,4.48,7.41,7.41,0,0,1-4.85,1.87,8.32,8.32,0,0,1-5.07-1.57,6.25,6.25,0,0,1-2.67-4.73,5.11,5.11,0,0,1,.74-2.71,6,6,0,0,1,1.88-1.91,8.38,8.38,0,0,1,9.53.47A6,6,0,0,1,267.4,167.48Zm-.21,0a4.6,4.6,0,0,0-2.44-3.74,8.17,8.17,0,0,0-4.38-1.05,7.12,7.12,0,0,0-4.12,1.32,3.94,3.94,0,0,0-1.73,3.42,4.26,4.26,0,0,0,2.17,3.11,8.29,8.29,0,0,0,3.93,1.19,8.59,8.59,0,0,0,4.19-.69A4,4,0,0,0,267.19,167.49Z"/>
            </g>
            <g>
              <path class="cls-2" d="M277.88,172.9c.15,2.93-2.78,5.31-6.54,5.31s-6.92-2.38-7.06-5.31,2.78-5.31,6.54-5.31S277.74,170,277.88,172.9Z"/>
              <path class="cls-3" d="M278,172.89a5.59,5.59,0,0,1-2,4.49,7.52,7.52,0,0,1-4.85,1.87,8.31,8.31,0,0,1-5.07-1.58,6.23,6.23,0,0,1-2.67-4.73,5,5,0,0,1,.74-2.7,5.85,5.85,0,0,1,1.88-1.92,8.33,8.33,0,0,1,4.91-1.25,8.21,8.21,0,0,1,4.62,1.73A6,6,0,0,1,278,172.89Zm-.21,0a4.6,4.6,0,0,0-2.44-3.74,8.18,8.18,0,0,0-4.38-1,7.1,7.1,0,0,0-4.12,1.32,3.92,3.92,0,0,0-1.73,3.42,4.27,4.27,0,0,0,2.17,3.11,8.45,8.45,0,0,0,3.93,1.19,8.54,8.54,0,0,0,4.18-.7A4,4,0,0,0,277.78,172.9Z"/>
            </g>
          </g>
          <g>
            <g>
              <ellipse class="cls-2" cx="170.61" cy="138.23" rx="5.4" ry="6.59" transform="translate(15.79 293.94) rotate(-84.18)"/>
              <path class="cls-3" d="M177.29,138.22a5.77,5.77,0,0,1-1.79,4.51,7,7,0,0,1-4.78,2,7.84,7.84,0,0,1-5-1.67,6.39,6.39,0,0,1-2.5-4.74,5.56,5.56,0,0,1,2.45-4.63,7.71,7.71,0,0,1,4.84-1.34C173.84,132.46,177,135,177.29,138.22Zm-.21,0a4.72,4.72,0,0,0-2.31-3.78,7.69,7.69,0,0,0-4.28-1.11,6.55,6.55,0,0,0-4,1.38,4.06,4.06,0,0,0-1.6,3.47,4.36,4.36,0,0,0,2.07,3.16,7.56,7.56,0,0,0,3.8,1.24,7.64,7.64,0,0,0,4.07-.76A4,4,0,0,0,177.08,138.23Z"/>
            </g>
            <g>
              <path class="cls-2" d="M189.33,142c.17,3.33-2.64,6-6.27,6a6.72,6.72,0,0,1-6.87-6c-.16-3.34,2.65-6,6.28-6A6.7,6.7,0,0,1,189.33,142Z"/>
              <path class="cls-3" d="M189.44,142a6.58,6.58,0,0,1-1.61,4.83,6.65,6.65,0,0,1-5,2.25,7.47,7.47,0,0,1-5.19-2,7.12,7.12,0,0,1-2.33-5,6.32,6.32,0,0,1,2.25-5A7.25,7.25,0,0,1,189.44,142Zm-.21,0a5.41,5.41,0,0,0-2.22-4.14,7,7,0,0,0-4.4-1.37,6,6,0,0,0-4.09,1.61,4.78,4.78,0,0,0-1.49,3.86,5.11,5.11,0,0,0,2,3.56,6.88,6.88,0,0,0,3.88,1.46,6.79,6.79,0,0,0,4.16-1A4.65,4.65,0,0,0,189.23,142Z"/>
            </g>
            <g>
              <path class="cls-2" d="M199.06,148.36c-2.08,3.09-6.07,4.32-8.92,2.74s-3.46-5.35-1.39-8.44,6.08-4.32,8.93-2.75S201.14,145.27,199.06,148.36Z"/>
              <path class="cls-3" d="M199.15,148.42a10,10,0,0,1-3.74,3.47,7.27,7.27,0,0,1-2.64.76,6,6,0,0,1-2.84-.49,5.77,5.77,0,0,1-2.31-1.88,6,6,0,0,1-1.05-2.76,7.8,7.8,0,0,1,1.49-5.33,8.64,8.64,0,0,1,4.31-3.18,6.85,6.85,0,0,1,5.29.31,5.56,5.56,0,0,1,2,1.82,5.32,5.32,0,0,1,.81,2.47A7.89,7.89,0,0,1,199.15,148.42Zm-.17-.12a5.93,5.93,0,0,0,1-4.62,4.79,4.79,0,0,0-2.81-3.42,5.66,5.66,0,0,0-4.37,0,7.21,7.21,0,0,0-3.38,2.83,5.71,5.71,0,0,0-.83,4.09,4.3,4.3,0,0,0,2.23,3.07,6.16,6.16,0,0,0,4.18.56A6.46,6.46,0,0,0,199,148.3Z"/>
            </g>
            <g>
              <ellipse class="cls-2" cx="202.94" cy="151.11" rx="6.33" ry="5.39" transform="translate(-11.76 17.23) rotate(-4.72)"/>
              <path class="cls-3" d="M206.12,155.82a9.32,9.32,0,0,1-4.61,1.13,6.24,6.24,0,0,1-4.66-2.11,5.57,5.57,0,0,1-1.21-2.5,5.72,5.72,0,0,1,.21-2.79,6.8,6.8,0,0,1,3.58-3.8,8.15,8.15,0,0,1,5-.61,6.88,6.88,0,0,1,4.23,2.56,5.23,5.23,0,0,1,.93,2.31,5,5,0,0,1-.3,2.42A6.78,6.78,0,0,1,206.12,155.82Zm-.09-.19a5,5,0,0,0,2.81-3.33,4.46,4.46,0,0,0-1-4,6.29,6.29,0,0,0-7.62-1.1,4.79,4.79,0,0,0-2.37,2.92,4.08,4.08,0,0,0,.67,3.39,6.37,6.37,0,0,0,3.2,2.3A5.89,5.89,0,0,0,206,155.63Z"/>
            </g>
            <g>
              <path class="cls-2" d="M215.23,160.51c-3,1.55-6.9.73-8.63-1.82s-.67-5.86,2.36-7.41,6.9-.73,8.63,1.82S218.26,159,215.23,160.51Z"/>
              <path class="cls-3" d="M215.27,160.6a9.32,9.32,0,0,1-4.61,1.14,6.24,6.24,0,0,1-4.66-2.11,5.37,5.37,0,0,1-1-5.3,6.81,6.81,0,0,1,3.58-3.79,8.13,8.13,0,0,1,5-.61,6.88,6.88,0,0,1,4.23,2.56,5.25,5.25,0,0,1,.93,2.31,5,5,0,0,1-.3,2.42A6.72,6.72,0,0,1,215.27,160.6Zm-.09-.18a5,5,0,0,0,2.81-3.33,4.46,4.46,0,0,0-1-4,6.29,6.29,0,0,0-7.62-1.1A4.79,4.79,0,0,0,207,155a4,4,0,0,0,.67,3.39,6.43,6.43,0,0,0,3.2,2.3A5.89,5.89,0,0,0,215.18,160.42Z"/>
            </g>
            <g>
              <ellipse class="cls-2" cx="220.7" cy="162.58" rx="5.85" ry="6.92" transform="translate(29.15 358.67) rotate(-82.05)"/>
              <path class="cls-3" d="M220.61,168.55a9.92,9.92,0,0,1-5-1.43,6.75,6.75,0,0,1-2-2,5.55,5.55,0,0,1-.89-2.8,5.67,5.67,0,0,1,.68-2.93,6.62,6.62,0,0,1,2-2.18,8.43,8.43,0,0,1,5.39-1.36,8.69,8.69,0,0,1,5,2.07,6.39,6.39,0,0,1,2.29,4.85,5.48,5.48,0,0,1-.78,2.6,5.77,5.77,0,0,1-1.86,1.85A8.7,8.7,0,0,1,220.61,168.55Zm0-.21a6.41,6.41,0,0,0,4.6-1.43,5,5,0,0,0,1.85-4.09A5.19,5.19,0,0,0,225,159a7.23,7.23,0,0,0-4.22-1.44c-3-.1-5.85,2.12-5.88,4.79a5.57,5.57,0,0,0,1.51,3.91A6.41,6.41,0,0,0,220.62,168.34Z"/>
            </g>
            <g>
              <path class="cls-2" d="M232.82,173.23c-3.81-.19-6.86-3-6.81-6.2s3.16-5.7,7-5.51,6.86,3,6.82,6.19S236.63,173.42,232.82,173.23Z"/>
              <path class="cls-3" d="M232.81,173.34a9.92,9.92,0,0,1-5-1.43,6.87,6.87,0,0,1-2-2,5.66,5.66,0,0,1-.9-2.8,5.78,5.78,0,0,1,.69-2.93,6.52,6.52,0,0,1,2-2.18,8.42,8.42,0,0,1,5.38-1.36,8.63,8.63,0,0,1,5,2.07,6.38,6.38,0,0,1,2.28,4.85,5.36,5.36,0,0,1-.77,2.6,5.87,5.87,0,0,1-1.86,1.85A8.7,8.7,0,0,1,232.81,173.34Zm0-.21a6.43,6.43,0,0,0,4.6-1.43,5,5,0,0,0,1.85-4.09,5.19,5.19,0,0,0-2.11-3.82,7.23,7.23,0,0,0-4.22-1.44c-3-.1-5.85,2.12-5.88,4.79a5.53,5.53,0,0,0,1.51,3.9A6.38,6.38,0,0,0,232.82,173.13Z"/>
            </g>
            <g>
              <path class="cls-2" d="M244.8,178.44c-3.8-.19-6.86-3-6.81-6.2s3.17-5.71,7-5.52,6.86,3,6.81,6.2S248.61,178.62,244.8,178.44Z"/>
              <path class="cls-3" d="M244.8,178.54a9.77,9.77,0,0,1-5-1.43,6.87,6.87,0,0,1-2-2,5.75,5.75,0,0,1-.89-2.8,5.69,5.69,0,0,1,.68-2.94,6.72,6.72,0,0,1,2-2.18,8.44,8.44,0,0,1,5.39-1.35,8.68,8.68,0,0,1,5,2.06,6.38,6.38,0,0,1,2.29,4.85,5.44,5.44,0,0,1-.77,2.6,6.11,6.11,0,0,1-1.86,1.86A8.77,8.77,0,0,1,244.8,178.54Zm0-.21a6.35,6.35,0,0,0,4.59-1.42,5,5,0,0,0,1.85-4.1,5.12,5.12,0,0,0-2.11-3.81,7.13,7.13,0,0,0-4.21-1.44c-3-.1-5.86,2.11-5.89,4.78a5.6,5.6,0,0,0,1.51,3.91A6.43,6.43,0,0,0,244.81,178.33Z"/>
            </g>
            <g>
              <path class="cls-2" d="M256.36,180.54c-3.57-.18-6.43-2.39-6.4-4.95s3-4.49,6.53-4.31,6.44,2.39,6.4,4.95S259.93,180.72,256.36,180.54Z"/>
              <path class="cls-3" d="M256.36,180.64a11.37,11.37,0,0,1-4.45-.92,6.08,6.08,0,0,1-2-1.49,4.43,4.43,0,0,1-1-2.53,4.26,4.26,0,0,1,.81-2.69,5.85,5.85,0,0,1,2-1.71,9,9,0,0,1,4.78-.86A9.35,9.35,0,0,1,261,172a5.16,5.16,0,0,1,2.4,4.13,3.83,3.83,0,0,1-.86,2.28,5.11,5.11,0,0,1-1.85,1.4A9.91,9.91,0,0,1,256.36,180.64Zm0-.2a6.6,6.6,0,0,0,4.12-1,3.77,3.77,0,0,0,1.87-3.29,3.94,3.94,0,0,0-2.1-3,7.65,7.65,0,0,0-3.81-1,6.8,6.8,0,0,0-3.68,1,3.32,3.32,0,0,0-1.76,2.57,4.18,4.18,0,0,0,1.52,3.11A6.52,6.52,0,0,0,256.37,180.44Z"/>
            </g>
            <g>
              <ellipse class="cls-2" cx="265.78" cy="180.07" rx="6.26" ry="4.78" transform="matrix(0.96, -0.26, 0.26, 0.96, -38.11, 76.55)"/>
              <path class="cls-3" d="M268.49,184.26a10.82,10.82,0,0,1-4.33,1.24,5.55,5.55,0,0,1-4.57-1.81,4.65,4.65,0,0,1-1-2.54,4.9,4.9,0,0,1,.56-2.64,7.56,7.56,0,0,1,3.65-3.28,8.93,8.93,0,0,1,4.67-.7,6,6,0,0,1,4.13,2.25,4,4,0,0,1,.78,2.28,4.3,4.3,0,0,1-.61,2.24A7.87,7.87,0,0,1,268.49,184.26Zm-.09-.19a5.51,5.51,0,0,0,2.93-3,3.58,3.58,0,0,0-.6-3.69,4.8,4.8,0,0,0-3.45-1.53,7.27,7.27,0,0,0-3.8.85,5.47,5.47,0,0,0-2.51,2.64,3.1,3.1,0,0,0,.27,3,5.34,5.34,0,0,0,3,2A6.22,6.22,0,0,0,268.4,184.07Z"/>
            </g>
          </g>
          <g>
            <g>
              <ellipse class="cls-2" cx="171.87" cy="149.47" rx="5.6" ry="6.59" transform="translate(1.37 300.51) rotate(-82.55)"/>
              <path class="cls-3" d="M178.54,149.47a6,6,0,0,1-1.72,4.61,6.9,6.9,0,0,1-4.84,2,7.68,7.68,0,0,1-5.07-1.77,6.65,6.65,0,0,1-2.45-4.85,5.82,5.82,0,0,1,2.39-4.74,7.45,7.45,0,0,1,4.9-1.43A7.11,7.11,0,0,1,178.54,149.47Zm-.21,0a4.88,4.88,0,0,0-2.27-3.9,7.43,7.43,0,0,0-4.33-1.2,6.31,6.31,0,0,0-4,1.45,4.28,4.28,0,0,0-1.56,3.6,4.6,4.6,0,0,0,2,3.3,7.89,7.89,0,0,0,7.94.48A4.22,4.22,0,0,0,178.33,149.48Z"/>
            </g>
            <g>
              <path class="cls-2" d="M191.55,153.74c.17,3.51-2.84,6.35-6.73,6.35s-7.17-2.84-7.35-6.35,2.84-6.35,6.73-6.35S191.38,150.23,191.55,153.74Z"/>
              <path class="cls-3" d="M191.65,153.74a6.77,6.77,0,0,1-1.77,5.08,7.17,7.17,0,0,1-5.24,2.31,8.07,8.07,0,0,1-5.49-2,7.44,7.44,0,0,1-2.51-5.3,6.55,6.55,0,0,1,2.42-5.21,7.78,7.78,0,0,1,12.59,5.17Zm-.2,0a5.66,5.66,0,0,0-2.39-4.38,7.57,7.57,0,0,0-4.71-1.45,6.58,6.58,0,0,0-4.4,1.68,5,5,0,0,0-1.64,4.1,5.37,5.37,0,0,0,2.18,3.79,7.5,7.5,0,0,0,4.19,1.55,7.37,7.37,0,0,0,4.47-1.06A4.91,4.91,0,0,0,191.45,153.75Z"/>
            </g>
            <g>
              <ellipse class="cls-2" cx="196.47" cy="158.43" rx="6.43" ry="5.95" transform="translate(-13.24 17.99) rotate(-5.07)"/>
              <path class="cls-3" d="M202.29,161.11a7.78,7.78,0,0,1-3.61,3.46,6.76,6.76,0,0,1-7.71-1.29,6.71,6.71,0,0,1-1.52-2.42,6.55,6.55,0,0,1,.56-5.47,7.17,7.17,0,0,1,4.22-3.22,7.39,7.39,0,0,1,5.16.36,6.18,6.18,0,0,1,3.34,3.75A6.37,6.37,0,0,1,202.29,161.11Zm-.18-.1a4.9,4.9,0,0,0,.21-4.57,5.91,5.91,0,0,0-3.33-2.95,6.26,6.26,0,0,0-4.35,0,5.67,5.67,0,0,0-3.16,2.74,4.54,4.54,0,0,0-.1,3.92,5.62,5.62,0,0,0,2.78,2.76,7.06,7.06,0,0,0,4.18.63A5.32,5.32,0,0,0,202.11,161Z"/>
            </g>
            <g>
              <path class="cls-2" d="M214.54,164.89c-1.32,2.41-5,3.19-8.12,1.73s-4.66-4.58-3.34-7,5-3.19,8.12-1.74S215.86,162.47,214.54,164.89Z"/>
              <path class="cls-3" d="M214.63,164.94c-1.42,2.72-5.33,4-8.44,2.72a7.3,7.3,0,0,1-3.81-3.28,5.32,5.32,0,0,1,0-5.16,5.74,5.74,0,0,1,4.2-2.62,8.23,8.23,0,0,1,4.68.73,7.08,7.08,0,0,1,3.3,3.21A4.88,4.88,0,0,1,214.63,164.94Zm-.19-.1a3.78,3.78,0,0,0-.29-4.08,7.54,7.54,0,0,0-7.36-2.82,4.22,4.22,0,0,0-3,2.09,3.32,3.32,0,0,0,.35,3.32,7.08,7.08,0,0,0,2.84,2.39,8.58,8.58,0,0,0,3.84.95A4.1,4.1,0,0,0,214.44,164.84Z"/>
            </g>
            <g>
              <path class="cls-2" d="M221.82,173c-1.32,2.41-5.57,2.85-8.46,1.52s-4.16-4.36-2.84-6.77,5.95-3.15,8.84-1.83A5.13,5.13,0,0,1,221.82,173Z"/>
              <path class="cls-3" d="M221.91,173.05a6,6,0,0,1-3.73,2.68,8.12,8.12,0,0,1-4.85-.09,6.47,6.47,0,0,1-3.8-3.43,5.29,5.29,0,0,1,.45-5.16,5,5,0,0,1,2-1.63,8.68,8.68,0,0,1,2.34-.68,9.41,9.41,0,0,1,4.7.5,5.83,5.83,0,0,1,2,1.34,5.12,5.12,0,0,1,1.19,2A5.84,5.84,0,0,1,221.91,173.05Zm-.18-.1a4.45,4.45,0,0,0,.1-4.18,5,5,0,0,0-3.13-2.55,8.29,8.29,0,0,0-4.11-.14,5,5,0,0,0-3.22,1.89,3.26,3.26,0,0,0-.44,1.67,3.69,3.69,0,0,0,.47,1.68,5.61,5.61,0,0,0,2.7,2.37,10.31,10.31,0,0,0,3.92.93A4.11,4.11,0,0,0,221.73,173Z"/>
            </g>
            <g>
              <path class="cls-2" d="M233.88,176.51c-.55,3-4.72,4.64-8.08,4s-5.64-3.53-5.09-6.51,5-5.08,8.38-4.46A6.05,6.05,0,0,1,233.88,176.51Z"/>
              <path class="cls-3" d="M234,176.53a6,6,0,0,1-3,3.92,8.09,8.09,0,0,1-5.12,1.14,7.1,7.1,0,0,1-4.78-2.68A6.1,6.1,0,0,1,220,173.5a5.36,5.36,0,0,1,1.55-2.35,8.61,8.61,0,0,1,2.23-1.42,9.15,9.15,0,0,1,5.06-.73,6.1,6.1,0,0,1,4.15,2.8A7,7,0,0,1,234,176.53Zm-.21,0a5.28,5.28,0,0,0-1.16-4.44,5.68,5.68,0,0,0-3.93-2,8,8,0,0,0-4.34.92,5.1,5.1,0,0,0-2.75,3,4.13,4.13,0,0,0,1.07,3.65,6.35,6.35,0,0,0,3.49,1.93,9.72,9.72,0,0,0,4.35-.11A4.22,4.22,0,0,0,233.78,176.5Z"/>
            </g>
            <g>
              <ellipse class="cls-2" cx="238.59" cy="180.08" rx="4.99" ry="6.58" transform="translate(43.03 406.16) rotate(-86.19)"/>
              <path class="cls-3" d="M245.26,180.08a5.27,5.27,0,0,1-1.92,4.27,7.34,7.34,0,0,1-4.66,1.77,8.13,8.13,0,0,1-4.88-1.47,5.91,5.91,0,0,1-2.62-4.53,4.72,4.72,0,0,1,.74-2.6,5.81,5.81,0,0,1,1.85-1.81,8.28,8.28,0,0,1,4.72-1.14,8.06,8.06,0,0,1,4.43,1.62A5.66,5.66,0,0,1,245.26,180.08Zm-.21,0a4.29,4.29,0,0,0-2.38-3.53,8.07,8.07,0,0,0-4.2-.95,7.1,7.1,0,0,0-3.95,1.23,3.66,3.66,0,0,0-1.67,3.2,4,4,0,0,0,2.1,2.89,8.39,8.39,0,0,0,3.76,1.1,8.5,8.5,0,0,0,4-.61A3.67,3.67,0,0,0,245.05,180.09Z"/>
            </g>
            <g>
              <path class="cls-2" d="M256.8,183.58c.13,2.76-2.18,5.46-5.81,5.46s-6.68-2.24-6.81-5,2.69-5,6.32-5S256.66,180.82,256.8,183.58Z"/>
              <path class="cls-3" d="M256.9,183.57a6.08,6.08,0,0,1-3.45,5.92,6.54,6.54,0,0,1-2.49.59,8.25,8.25,0,0,1-4.8-1.34,6,6,0,0,1-2.78-4.31,4.65,4.65,0,0,1,.51-2.6,5.3,5.3,0,0,1,1.69-1.91,7.85,7.85,0,0,1,4.57-1.39,8.27,8.27,0,0,1,4.45,1.25A5,5,0,0,1,256.9,183.57Zm-.21,0a3.83,3.83,0,0,0-2.31-3.41,8.27,8.27,0,0,0-4.19-.59,6.56,6.56,0,0,0-3.78,1.42,3.42,3.42,0,0,0-1.37,3.23,4,4,0,0,0,2.21,2.75,8.74,8.74,0,0,0,3.72,1,6.37,6.37,0,0,0,3.73-.86A4.15,4.15,0,0,0,256.69,183.58Z"/>
            </g>
          </g>
          <g>
            <path class="cls-2" d="M185.13,161.55c.13,2.65-2.29,4.79-5.4,4.79s-6.91-2.26-7-4.9,3.46-4.68,6.57-4.68S185,158.91,185.13,161.55Z"/>
            <path class="cls-3" d="M185.23,161.55a5.26,5.26,0,0,1-1.64,4.15,6.13,6.13,0,0,1-4.51,1.66,8.74,8.74,0,0,1-4.51-1.59,7.79,7.79,0,0,1-1.77-1.72,4.63,4.63,0,0,1-.94-2.47,3.86,3.86,0,0,1,.82-2.52,6.29,6.29,0,0,1,1.83-1.6,9.11,9.11,0,0,1,4.42-1.21A6.23,6.23,0,0,1,185.23,161.55Zm-.21,0a4.17,4.17,0,0,0-2.12-3.43,6.41,6.41,0,0,0-3.92-.83,7.78,7.78,0,0,0-3.74,1.31c-1.07.73-1.88,1.83-1.71,2.84A4,4,0,0,0,175.7,164a10.13,10.13,0,0,0,3.56,1.23,6.52,6.52,0,0,0,3.67-.48A3.55,3.55,0,0,0,185,161.56Z"/>
          </g>
          <g>
            <path class="cls-2" d="M194.34,165.35a5.08,5.08,0,0,1-3.29,7c-3.12,1-8-.19-9.26-3s1.4-6.27,4.52-7.29A6.67,6.67,0,0,1,194.34,165.35Z"/>
            <path class="cls-3" d="M194.44,165.31a5.91,5.91,0,0,1,.19,4.93,5.73,5.73,0,0,1-1.64,2.15,6.29,6.29,0,0,1-2.48,1.2,9.4,9.4,0,0,1-7.62-1.62,5.92,5.92,0,0,1-1.79-2.16,4.53,4.53,0,0,1-.34-2.82,6,6,0,0,1,1.12-2.45,8.34,8.34,0,0,1,4.15-2.95,6.88,6.88,0,0,1,4.94.4A7.31,7.31,0,0,1,194.44,165.31Zm-.19.09a5.46,5.46,0,0,0-3.44-3,6.74,6.74,0,0,0-4.44.17,7.22,7.22,0,0,0-3.37,2.74,3.59,3.59,0,0,0-.4,3.76,5.21,5.21,0,0,0,3.29,2.2,10.34,10.34,0,0,0,4.2.28,5.63,5.63,0,0,0,3.57-1.88A4.14,4.14,0,0,0,194.25,165.4Z"/>
          </g>
          <g>
            <path class="cls-2" d="M208.06,171c-.8,2.76-4.35,4.22-7.93,3.28s-5.84-3.94-5-6.69,4.35-4.22,7.93-3.28S208.86,168.21,208.06,171Z"/>
            <path class="cls-3" d="M208.16,171a5.92,5.92,0,0,1-3.15,3.64,7.7,7.7,0,0,1-5.07.64,8,8,0,0,1-4.49-2.7,5.34,5.34,0,0,1,2.65-8.81,8.62,8.62,0,0,1,5,0,7.79,7.79,0,0,1,4,2.72A5.31,5.31,0,0,1,208.16,171Zm-.2-.06a4.16,4.16,0,0,0-1.21-4.17,7.79,7.79,0,0,0-3.93-2,7.42,7.42,0,0,0-4.26.29,4.19,4.19,0,0,0-2.67,2.73,3.74,3.74,0,0,0,1.13,3.43,7.77,7.77,0,0,0,3.44,2,9.13,9.13,0,0,0,4.17.34A4.15,4.15,0,0,0,208,170.93Z"/>
          </g>
          <g>
            <path class="cls-2" d="M204.81,179.32c-.69,2.4-4,3.62-7.36,2.74s-5.53-3.56-4.84-6,4-3.62,7.36-2.73S205.51,176.92,204.81,179.32Z"/>
            <path class="cls-3" d="M204.91,179.35a5.23,5.23,0,0,1-3,3.23,7.35,7.35,0,0,1-4.65.5,7.84,7.84,0,0,1-4.18-2.36,6.13,6.13,0,0,1-1.26-2.21,4.23,4.23,0,0,1,1.49-4.73,6.05,6.05,0,0,1,2.18-1.06,8.76,8.76,0,0,1,4.55.12,7.85,7.85,0,0,1,3.72,2.42A4.68,4.68,0,0,1,204.91,179.35Zm-.2-.06a3.6,3.6,0,0,0-1.27-3.72,8,8,0,0,0-3.66-1.71,7.35,7.35,0,0,0-3.9.17,3.54,3.54,0,0,0-2.46,2.31,3.15,3.15,0,0,0,1.16,2.95,8.41,8.41,0,0,0,3.2,1.77,9.68,9.68,0,0,0,3.81.45A3.58,3.58,0,0,0,204.71,179.29Z"/>
          </g>
          <g>
            <path class="cls-2" d="M216.29,176.38c-.78,2.69-4.07,4.17-7.33,3.3s-5.29-3.74-4.5-6.43,4.06-4.16,7.33-3.29S217.07,173.7,216.29,176.38Z"/>
            <path class="cls-3" d="M216.39,176.41a5.91,5.91,0,0,1-2.84,3.56,6.79,6.79,0,0,1-4.79.74,7.14,7.14,0,0,1-4.21-2.69,5.37,5.37,0,0,1,2.6-8.46,7.56,7.56,0,0,1,4.7-.13,6.86,6.86,0,0,1,3.7,2.68A5.33,5.33,0,0,1,216.39,176.41Zm-.2,0a4.05,4.05,0,0,0-1-4,6.65,6.65,0,0,0-3.61-1.94,6.34,6.34,0,0,0-3.93.37,4.12,4.12,0,0,0-2.4,2.67,3.63,3.63,0,0,0,.93,3.26,6.63,6.63,0,0,0,3.09,1.93,7.68,7.68,0,0,0,3.85.25A4,4,0,0,0,216.19,176.36Z"/>
          </g>
          <g>
            <path class="cls-2" d="M214.66,184.77c-.71,2.42-3.93,3.69-7.19,2.83s-5.35-3.54-4.64-6,3.93-3.69,7.2-2.83S215.37,182.34,214.66,184.77Z"/>
            <path class="cls-3" d="M214.76,184.79a5.32,5.32,0,0,1-2.89,3.27,7,7,0,0,1-4.6.56,7.41,7.41,0,0,1-4.11-2.41,4.75,4.75,0,0,1,2.43-8,8.19,8.19,0,0,1,4.5.06,7.35,7.35,0,0,1,3.64,2.45A4.77,4.77,0,0,1,214.76,184.79Zm-.2,0A3.63,3.63,0,0,0,213.4,181a7.42,7.42,0,0,0-3.57-1.73,6.87,6.87,0,0,0-3.82.22,3.6,3.6,0,0,0-2.38,2.35,3.21,3.21,0,0,0,1.07,3,7.78,7.78,0,0,0,3.09,1.77,8.93,8.93,0,0,0,3.73.4A3.6,3.6,0,0,0,214.56,184.74Z"/>
          </g>
          <g>
            <path class="cls-2" d="M225.3,180.52c-.81,2.8-4.12,4.37-7.39,3.51s-5.25-3.83-4.44-6.63,4.12-4.36,7.38-3.5S226.11,177.73,225.3,180.52Z"/>
            <path class="cls-3" d="M225.4,180.55a6.24,6.24,0,0,1-2.81,3.68,6.62,6.62,0,0,1-4.86.82,6.88,6.88,0,0,1-4.25-2.8,5.85,5.85,0,0,1-.82-5.08,5.91,5.91,0,0,1,3.47-3.58,7.34,7.34,0,0,1,4.78-.21,6.68,6.68,0,0,1,3.73,2.78A5.56,5.56,0,0,1,225.4,180.55Zm-.2-.05a4.24,4.24,0,0,0-.92-4.08,6.53,6.53,0,0,0-3.62-2,6.15,6.15,0,0,0-4,.45,4.34,4.34,0,0,0-2.41,2.8,3.89,3.89,0,0,0,.87,3.39,6.53,6.53,0,0,0,3.1,2,7.33,7.33,0,0,0,3.9.17A4.21,4.21,0,0,0,225.2,180.5Z"/>
          </g>
          <g>
            <path class="cls-2" d="M236.85,188.33c-.89,3-4.5,4.76-8.07,3.82s-5.75-4.18-4.86-7.23,4.5-4.76,8.07-3.82S237.73,185.28,236.85,188.33Z"/>
            <path class="cls-3" d="M237,188.36a6.72,6.72,0,0,1-3.08,4,7.26,7.26,0,0,1-5.27.85,7.54,7.54,0,0,1-4.59-3,6.1,6.1,0,0,1,2.84-9.34,8,8,0,0,1,5.19-.24,7.31,7.31,0,0,1,4.06,3A6,6,0,0,1,237,188.36Zm-.2-.06a4.68,4.68,0,0,0-1-4.46,7.15,7.15,0,0,0-4-2.25,6.91,6.91,0,0,0-4.38.47,4.81,4.81,0,0,0-2.68,3.1,4.32,4.32,0,0,0,.95,3.77,7,7,0,0,0,3.44,2.22,7.86,7.86,0,0,0,4.31.15A4.67,4.67,0,0,0,236.75,188.3Z"/>
          </g>
          <g>
            <path class="cls-2" d="M224.7,188.64c-.7,2.42-3.79,3.72-6.89,2.9s-5-3.45-4.33-5.87,3.79-3.73,6.89-2.91S225.41,186.21,224.7,188.64Z"/>
            <path class="cls-3" d="M224.8,188.67c-.7,2.76-4.13,4.62-7.18,3.9a6.85,6.85,0,0,1-4-2.43,4.83,4.83,0,0,1,2.41-7.87,7.39,7.39,0,0,1,4.39,0,6.68,6.68,0,0,1,3.48,2.45A4.83,4.83,0,0,1,224.8,188.67Zm-.2-.06a3.62,3.62,0,0,0-1-3.64,6.78,6.78,0,0,0-3.4-1.72,6.31,6.31,0,0,0-3.66.29,3.61,3.61,0,0,0-2.24,2.36,3.19,3.19,0,0,0,.95,2.91,6.82,6.82,0,0,0,2.9,1.73,7.94,7.94,0,0,0,3.58.34A3.57,3.57,0,0,0,224.6,188.61Z"/>
          </g>
          <g>
            <path class="cls-2" d="M249.46,189.46c.12,2.37-2.52,4-6.15,4s-7.34-1.19-7.45-3.56a6.56,6.56,0,0,1,6.16-6.09C245.66,183.79,249.35,187.08,249.46,189.46Z"/>
            <path class="cls-3" d="M249.57,189.45a3.39,3.39,0,0,1-.67,2.28,5.73,5.73,0,0,1-1.87,1.62,9.27,9.27,0,0,1-2.33.89,11.28,11.28,0,0,1-2.45.22,10.92,10.92,0,0,1-4.83-1.16,4.89,4.89,0,0,1-2.06-1.94,3.12,3.12,0,0,1-.38-1.52,4.63,4.63,0,0,1,.22-1.37,7.74,7.74,0,0,1,3-4,6.3,6.3,0,0,1,4.79-1.1,8.53,8.53,0,0,1,4.2,2.2,10.68,10.68,0,0,1,1.53,1.76A4.85,4.85,0,0,1,249.57,189.45Zm-.21,0a3.82,3.82,0,0,0-.83-2,7.44,7.44,0,0,0-1.63-1.54,8.84,8.84,0,0,0-4.07-1.51c-2.83-.39-5.41,2-6,4.52a3.52,3.52,0,0,0-.07.9,1.49,1.49,0,0,0,.23.65,3,3,0,0,0,1.37,1,14,14,0,0,0,4,.92,13.11,13.11,0,0,0,4.24-.06,4.08,4.08,0,0,0,1.89-.92A2.57,2.57,0,0,0,249.36,189.46Z"/>
          </g>
        </g>
        <g>
          <g>
            <path class="cls-3" d="M204.19,113.43c18.07,3.37,48.33,14.38,64.7,30.55,6.58,6.54,14.05,16.51,22.81,16.18,3.93-.15,10.5-3.08,11.06-11.77,1.43-22-9.7-33.65-34.34-46.89-28.58-15.35-73.18-10.13-75.83,1.8"/>
            <path class="cls-3" d="M204.2,113.38a125.38,125.38,0,0,1,16,3.81c5.23,1.58,10.39,3.43,15.46,5.51a134.18,134.18,0,0,1,14.79,7.15A95.06,95.06,0,0,1,264.07,139a69.68,69.68,0,0,1,6.09,5.56l5.65,5.92a56.31,56.31,0,0,0,6,5.45,18.42,18.42,0,0,0,7.1,3.52,10.73,10.73,0,0,0,3.91.15,11.46,11.46,0,0,0,3.71-1.29,11,11,0,0,0,5-5.89c1-2.49.94-5.26,1-8a41.35,41.35,0,0,0-.74-8.09,34.17,34.17,0,0,0-6.66-14.69,55.45,55.45,0,0,0-12-11,133.25,133.25,0,0,0-14-8.4,75.16,75.16,0,0,0-15.08-6.07,103.65,103.65,0,0,0-32.27-3.72,76.17,76.17,0,0,0-16.12,2.24,35.91,35.91,0,0,0-7.61,2.84,16,16,0,0,0-3.32,2.32,7,7,0,0,0-2.11,3.39.06.06,0,0,1-.07,0,.06.06,0,0,1,0-.06,7.27,7.27,0,0,1,2.07-3.53,15.6,15.6,0,0,1,3.31-2.45,35,35,0,0,1,7.62-3.08,76.92,76.92,0,0,1,16.23-2.52,104.82,104.82,0,0,1,16.43.48,91.49,91.49,0,0,1,16.13,3.17,70,70,0,0,1,15.17,6.33,138.76,138.76,0,0,1,13.92,8.67,59.37,59.37,0,0,1,12,11.11,34.61,34.61,0,0,1,6.89,14.8,42.61,42.61,0,0,1,.83,8.19c0,1.38,0,2.75-.1,4.12a15.25,15.25,0,0,1-.83,4.1A11.77,11.77,0,0,1,297,159a12.67,12.67,0,0,1-4,1.43,11.41,11.41,0,0,1-4.24-.13,19.38,19.38,0,0,1-7.47-3.65,54.67,54.67,0,0,1-6.15-5.52l-5.66-5.91a67.57,67.57,0,0,0-6-5.43c-8.53-6.72-18.22-11.88-28.18-16.23a169,169,0,0,0-31-10.12s-.05,0,0-.06A0,0,0,0,1,204.2,113.38Z"/>
          </g>
          <g>
            <g>
              <ellipse class="cls-2" cx="215.93" cy="94.8" rx="4.18" ry="5.96" transform="translate(109.57 305.27) rotate(-86.89)"/>
              <path class="cls-3" d="M222,94.84a4.53,4.53,0,0,1-1.86,3.71A6.94,6.94,0,0,1,216,100a7.61,7.61,0,0,1-4.34-1.22,6.1,6.1,0,0,1-1.7-1.66,4.26,4.26,0,0,1-.77-2.37,3.89,3.89,0,0,1,.78-2.34,5.2,5.2,0,0,1,1.75-1.5,8,8,0,0,1,4.21-.85,7.61,7.61,0,0,1,3.93,1.39A4.76,4.76,0,0,1,222,94.84Zm-.2,0a3.58,3.58,0,0,0-2.19-3,7.91,7.91,0,0,0-3.72-.72,6.75,6.75,0,0,0-3.5,1,2.94,2.94,0,0,0-1.55,2.6A3.18,3.18,0,0,0,212.7,97a8.51,8.51,0,0,0,3.3.89,9,9,0,0,0,3.55-.35A3,3,0,0,0,221.78,94.85Z"/>
            </g>
            <g>
              <path class="cls-2" d="M232.24,96.22c.1,2.52-3.13,4-6,4s-5.53-2-5.63-4.53,2.15-5.76,5-5.74S232.14,93.7,232.24,96.22Z"/>
              <path class="cls-3" d="M232.34,96.22a4.39,4.39,0,0,1-2.23,3.73,7.46,7.46,0,0,1-4.47,1.31,6.62,6.62,0,0,1-4.43-2A5.54,5.54,0,0,1,219.93,97a4.91,4.91,0,0,1,0-2.55,7.21,7.21,0,0,1,2.53-3.94,5.24,5.24,0,0,1,2.17-1,4.46,4.46,0,0,1,2.38.19,8.34,8.34,0,0,1,3.5,2.7A7.9,7.9,0,0,1,232.34,96.22Zm-.21,0a5.42,5.42,0,0,0-2-3.55,8.83,8.83,0,0,0-3.48-2,3.5,3.5,0,0,0-3.37.88,5.7,5.7,0,0,0-1.76,3.22,3.11,3.11,0,0,0,1.13,3,6.14,6.14,0,0,0,3.16,1.42,10,10,0,0,0,3.79-.22,4,4,0,0,0,1.72-.93A2.5,2.5,0,0,0,232.13,96.23Z"/>
            </g>
            <g>
              <path class="cls-2" d="M243,97c.1,2.52-3.13,4-6,4s-5.53-2-5.63-4.54,2.15-5.76,5-5.73S242.85,94.43,243,97Z"/>
              <path class="cls-3" d="M243.05,97a4.38,4.38,0,0,1-2.23,3.73,7.39,7.39,0,0,1-4.47,1.3,6.57,6.57,0,0,1-4.43-2,5.6,5.6,0,0,1-1.28-2.22,4.91,4.91,0,0,1,0-2.55,7.14,7.14,0,0,1,2.53-3.94,5.18,5.18,0,0,1,2.17-1,4.45,4.45,0,0,1,2.38.18,8.36,8.36,0,0,1,3.5,2.7A7.89,7.89,0,0,1,243.05,97Zm-.21,0a5.47,5.47,0,0,0-2-3.55,9,9,0,0,0-3.48-2,3.48,3.48,0,0,0-3.37.89,5.6,5.6,0,0,0-1.75,3.21,3.1,3.1,0,0,0,1.12,3,6.22,6.22,0,0,0,3.16,1.42,9.83,9.83,0,0,0,3.79-.23,4,4,0,0,0,1.72-.93A2.48,2.48,0,0,0,242.84,97Z"/>
            </g>
            <g>
              <path class="cls-2" d="M253.64,98.12c-.21,2.34-3,3.93-6.17,3.54s-5.61-2.6-5.4-5,3-3.92,6.16-3.54S253.84,95.77,253.64,98.12Z"/>
              <path class="cls-3" d="M253.74,98.13a4.71,4.71,0,0,1-2.21,3.49,6.61,6.61,0,0,1-4.27,1.06,7.24,7.24,0,0,1-4.15-1.73,5.09,5.09,0,0,1-1.87-4.31,4.08,4.08,0,0,1,1-2.21,5.12,5.12,0,0,1,1.87-1.32,7.59,7.59,0,0,1,4.25-.44,7.12,7.12,0,0,1,3.7,1.85A4.79,4.79,0,0,1,253.74,98.13Zm-.21,0a3.54,3.54,0,0,0-1.73-3.25,7.62,7.62,0,0,0-3.56-1.16,6.5,6.5,0,0,0-3.53.64,3,3,0,0,0-1.8,2.45,3.15,3.15,0,0,0,1.51,2.55,8,8,0,0,0,3.11,1.27,8.36,8.36,0,0,0,3.52,0A3.09,3.09,0,0,0,253.53,98.11Z"/>
            </g>
            <g>
              <path class="cls-2" d="M263.37,102.15c-.22,2.42-3,4.06-6.29,3.66s-5.73-2.68-5.51-5.09,3-4.06,6.29-3.66S263.58,99.73,263.37,102.15Z"/>
              <path class="cls-3" d="M263.47,102.16a4.8,4.8,0,0,1-2.25,3.58,6.75,6.75,0,0,1-4.36,1.1,7.47,7.47,0,0,1-4.24-1.8,5.21,5.21,0,0,1-1.89-4.4,4.28,4.28,0,0,1,1-2.26,5.37,5.37,0,0,1,1.9-1.36,7.77,7.77,0,0,1,4.35-.47,7.29,7.29,0,0,1,3.78,1.9A4.91,4.91,0,0,1,263.47,102.16Zm-.21,0a3.65,3.65,0,0,0-1.75-3.35,7.53,7.53,0,0,0-3.64-1.2,6.52,6.52,0,0,0-3.62.66,3.15,3.15,0,0,0-1.85,2.54,3.29,3.29,0,0,0,1.54,2.65,8.06,8.06,0,0,0,3.19,1.32,8.62,8.62,0,0,0,3.61,0A3.22,3.22,0,0,0,263.26,102.14Z"/>
            </g>
            <g>
              <ellipse class="cls-2" cx="266.48" cy="105.79" rx="4.59" ry="5.7" transform="translate(135.54 360.86) rotate(-84.48)"/>
              <path class="cls-3" d="M272.27,105.83a5,5,0,0,1-1.58,3.9,6.07,6.07,0,0,1-4.17,1.7,6.78,6.78,0,0,1-4.37-1.46,5.56,5.56,0,0,1-2.19-4.19,4.83,4.83,0,0,1,2.24-4,6.86,6.86,0,0,1,4.23-1.08C269.32,100.86,272,103,272.27,105.83Zm-.21,0a3.89,3.89,0,0,0-2-3.21,6.83,6.83,0,0,0-3.66-.91,5.75,5.75,0,0,0-3.41,1.14,3.3,3.3,0,0,0-1.36,2.86,3.52,3.52,0,0,0,1.73,2.58,6.85,6.85,0,0,0,3.2,1,7,7,0,0,0,3.46-.52A3.29,3.29,0,0,0,272.06,105.84Z"/>
            </g>
            <g>
              <path class="cls-2" d="M280.55,110.82c.1,2.66-2.51,4.79-5.84,4.77s-6.11-2.2-6.21-4.86,2.5-4.79,5.83-4.77S280.44,108.16,280.55,110.82Z"/>
              <path class="cls-3" d="M280.65,110.82a5.15,5.15,0,0,1-1.71,4.07,6.51,6.51,0,0,1-4.38,1.74,7.23,7.23,0,0,1-4.58-1.51,5.76,5.76,0,0,1-2.32-4.36,5,5,0,0,1,2.37-4.2,7.37,7.37,0,0,1,4.44-1.12,7.08,7.08,0,0,1,4.11,1.65A5.48,5.48,0,0,1,280.65,110.82Zm-.21,0a4.12,4.12,0,0,0-2.11-3.38,7.26,7.26,0,0,0-3.89-1,6.15,6.15,0,0,0-3.62,1.18,3.53,3.53,0,0,0-1.49,3,3.78,3.78,0,0,0,1.86,2.74,7.39,7.39,0,0,0,3.42,1.1,7.53,7.53,0,0,0,3.69-.57A3.5,3.5,0,0,0,280.44,110.83Z"/>
            </g>
            <g>
              <path class="cls-2" d="M289.41,116.67c.11,2.65-2.5,4.79-5.83,4.76s-6.11-2.2-6.22-4.86,2.51-4.79,5.84-4.76S289.31,114,289.41,116.67Z"/>
              <path class="cls-3" d="M289.52,116.66a5.21,5.21,0,0,1-1.71,4.07,6.46,6.46,0,0,1-4.38,1.74,7.28,7.28,0,0,1-4.58-1.5,5.74,5.74,0,0,1-2.32-4.37,5,5,0,0,1,2.37-4.19,7.23,7.23,0,0,1,4.44-1.12,7.1,7.1,0,0,1,4.11,1.64A5.56,5.56,0,0,1,289.52,116.66Zm-.21,0a4.12,4.12,0,0,0-2.12-3.38,7.22,7.22,0,0,0-3.88-1,6.21,6.21,0,0,0-3.63,1.19,3.51,3.51,0,0,0-1.48,3,3.73,3.73,0,0,0,1.86,2.74,7.35,7.35,0,0,0,3.42,1.1,7.58,7.58,0,0,0,3.68-.56A3.52,3.52,0,0,0,289.31,116.67Z"/>
            </g>
            <g>
              <path class="cls-2" d="M296.51,123.78c.11,2.66-2.5,4.79-5.83,4.76s-6.11-2.2-6.22-4.86,2.51-4.79,5.84-4.76S296.41,121.12,296.51,123.78Z"/>
              <path class="cls-3" d="M296.62,123.77a5.16,5.16,0,0,1-1.71,4.07,6.46,6.46,0,0,1-4.38,1.74,7.28,7.28,0,0,1-4.58-1.5,5.76,5.76,0,0,1-2.32-4.36,5,5,0,0,1,2.37-4.2,7.37,7.37,0,0,1,4.44-1.12,7,7,0,0,1,4.11,1.65A5.47,5.47,0,0,1,296.62,123.77Zm-.21,0a4.12,4.12,0,0,0-2.12-3.38,7.19,7.19,0,0,0-3.88-1,6.13,6.13,0,0,0-3.63,1.18,3.53,3.53,0,0,0-1.48,3,3.79,3.79,0,0,0,1.86,2.75,7.38,7.38,0,0,0,3.42,1.09,7.46,7.46,0,0,0,3.68-.56A3.52,3.52,0,0,0,296.41,123.78Z"/>
            </g>
            <g>
              <path class="cls-2" d="M301.6,131.73c.11,2.66-2.5,4.79-5.83,4.77s-6.11-2.21-6.22-4.86,2.51-4.8,5.84-4.77S301.5,129.07,301.6,131.73Z"/>
              <path class="cls-3" d="M301.71,131.73A5.22,5.22,0,0,1,300,135.8a6.53,6.53,0,0,1-4.38,1.74A7.29,7.29,0,0,1,291,136a5.73,5.73,0,0,1-2.32-4.36,5,5,0,0,1,2.37-4.2,7.35,7.35,0,0,1,4.44-1.12,7.11,7.11,0,0,1,4.11,1.65A5.51,5.51,0,0,1,301.71,131.73Zm-.21,0a4.12,4.12,0,0,0-2.12-3.38,7.21,7.21,0,0,0-3.88-.95,6.11,6.11,0,0,0-3.63,1.18,3.5,3.5,0,0,0-1.48,3,3.75,3.75,0,0,0,1.86,2.75,8,8,0,0,0,7.1.53A3.5,3.5,0,0,0,301.5,131.73Z"/>
            </g>
            <g>
              <path class="cls-2" d="M302.39,140.18c.1,2.37-2.17,4.26-5.06,4.24s-5.3-2-5.4-4.32,2.18-4.26,5.06-4.24S302.3,137.82,302.39,140.18Z"/>
              <path class="cls-3" d="M302.5,140.18a4.8,4.8,0,0,1-1.42,3.65,5.59,5.59,0,0,1-3.88,1.63,6.23,6.23,0,0,1-4.09-1.39,5.24,5.24,0,0,1-2-3.94,4.56,4.56,0,0,1,2.08-3.77,6.28,6.28,0,0,1,3.94-1A5.72,5.72,0,0,1,302.5,140.18Zm-.21,0a3.58,3.58,0,0,0-1.82-3,6.18,6.18,0,0,0-3.38-.83,5.19,5.19,0,0,0-3.11,1.07,3,3,0,0,0-1.21,2.61,3.26,3.26,0,0,0,1.58,2.34,6.21,6.21,0,0,0,2.9,1,6.43,6.43,0,0,0,3.16-.45A3,3,0,0,0,302.29,140.19Z"/>
            </g>
          </g>
          <g>
            <g>
              <ellipse class="cls-2" cx="204.75" cy="99.32" rx="4.38" ry="5.81" transform="translate(91.21 296.55) rotate(-85.95)"/>
              <path class="cls-3" d="M210.65,99.37a4.74,4.74,0,0,1-1.71,3.79,6.47,6.47,0,0,1-4.16,1.59,7.23,7.23,0,0,1-4.35-1.33,5.36,5.36,0,0,1-2.32-4.11,4.32,4.32,0,0,1,.7-2.34,5.3,5.3,0,0,1,1.68-1.59,7.43,7.43,0,0,1,4.21-1,7.1,7.1,0,0,1,3.91,1.49A5.05,5.05,0,0,1,210.65,99.37Zm-.21,0a3.71,3.71,0,0,0-2.08-3.09,7.21,7.21,0,0,0-3.68-.81,6.21,6.21,0,0,0-3.44,1,3.1,3.1,0,0,0-1.45,2.73,3.31,3.31,0,0,0,1.8,2.44,7.61,7.61,0,0,0,3.24,1,7.92,7.92,0,0,0,3.49-.43A3.16,3.16,0,0,0,210.44,99.37Z"/>
            </g>
            <g>
              <path class="cls-2" d="M220,102.65c.11,2.66-2.4,4.79-5.6,4.77s-5.89-2.2-6-4.86,2.4-4.79,5.6-4.77S219.89,100,220,102.65Z"/>
              <path class="cls-3" d="M220.1,102.65a5.27,5.27,0,0,1-1.58,4,6.16,6.16,0,0,1-4.28,1.78,6.91,6.91,0,0,1-4.49-1.55,5.76,5.76,0,0,1-2.19-4.32,5,5,0,0,1,2.24-4.15,6.82,6.82,0,0,1,4.34-1.16A6.3,6.3,0,0,1,220.1,102.65Zm-.21,0a4.14,4.14,0,0,0-2-3.36,6.84,6.84,0,0,0-3.76-1,5.64,5.64,0,0,0-3.5,1.21,3.48,3.48,0,0,0-1.38,3,3.76,3.76,0,0,0,1.76,2.73,6.87,6.87,0,0,0,3.29,1.11,7,7,0,0,0,3.56-.59A3.51,3.51,0,0,0,219.89,102.66Z"/>
            </g>
            <g>
              <path class="cls-2" d="M228.53,105.93c.11,2.65-2.4,4.79-5.6,4.76s-5.89-2.2-6-4.85,2.51-5,5.71-5S228.43,103.27,228.53,105.93Z"/>
              <path class="cls-3" d="M228.64,105.92A5.26,5.26,0,0,1,227,110a6.16,6.16,0,0,1-4.33,1.75,6.85,6.85,0,0,1-4.51-1.62,5.68,5.68,0,0,1-2.09-4.4,5.32,5.32,0,0,1,2.32-4.13,6.76,6.76,0,0,1,4.36-1.24A6.34,6.34,0,0,1,228.64,105.92Zm-.21,0a4.36,4.36,0,0,0-1.94-3.45,6.21,6.21,0,0,0-3.74-1.1,5.6,5.6,0,0,0-3.5,1.27,3.81,3.81,0,0,0-1.47,3,3.67,3.67,0,0,0,1.7,2.79,6.77,6.77,0,0,0,3.29,1.15,7,7,0,0,0,3.59-.56A3.54,3.54,0,0,0,228.43,105.93Z"/>
            </g>
            <g>
              <path class="cls-2" d="M237.55,104.07c.1,2.54-2.21,4.58-5.16,4.56s-5.43-2.1-5.53-4.64,2.21-4.58,5.16-4.56S237.45,101.53,237.55,104.07Z"/>
              <path class="cls-3" d="M237.65,104.07a5.1,5.1,0,0,1-1.38,3.83,5.6,5.6,0,0,1-4,1.77,6.3,6.3,0,0,1-4.23-1.53,5.58,5.58,0,0,1-2-4.12,4.89,4.89,0,0,1,2-4,6.2,6.2,0,0,1,4.09-1.15A5.91,5.91,0,0,1,237.65,104.07Zm-.21,0a3.89,3.89,0,0,0-1.82-3.18,6,6,0,0,0-3.49-.94,5,5,0,0,0-3.21,1.17A3.34,3.34,0,0,0,227.7,104a3.59,3.59,0,0,0,1.61,2.56,6,6,0,0,0,3,1.06,6.16,6.16,0,0,0,3.27-.55A3.31,3.31,0,0,0,237.44,104.08Z"/>
            </g>
            <g>
              <path class="cls-2" d="M247.44,107.14c.11,2.78-2.6,5-6.05,5s-6.34-2.3-6.45-5.07,2.6-5,6.05-5S247.33,104.37,247.44,107.14Z"/>
              <path class="cls-3" d="M247.55,107.14a5.34,5.34,0,0,1-1.77,4.22,6.78,6.78,0,0,1-4.55,1.8,7.55,7.55,0,0,1-4.74-1.57,6,6,0,0,1-2.39-4.51,5.25,5.25,0,0,1,2.43-4.35,7.5,7.5,0,0,1,4.61-1.18,7.42,7.42,0,0,1,4.27,1.71A5.71,5.71,0,0,1,247.55,107.14Zm-.21,0a4.34,4.34,0,0,0-2.19-3.54,7.35,7.35,0,0,0-4-1,6.35,6.35,0,0,0-3.78,1.23,3.7,3.7,0,0,0-1.55,3.18,3.93,3.93,0,0,0,1.93,2.9,7.55,7.55,0,0,0,3.58,1.16,7.68,7.68,0,0,0,3.84-.62A3.69,3.69,0,0,0,247.34,107.15Z"/>
            </g>
            <g>
              <path class="cls-2" d="M258,109c.12,2.84-2.59,5.11-6,5.09s-6.35-2.35-6.46-5.19,2.6-5.11,6.05-5.08S257.86,106.21,258,109Z"/>
              <path class="cls-3" d="M258.08,109a5.51,5.51,0,0,1-1.74,4.28,6.7,6.7,0,0,1-4.57,1.85,7.47,7.47,0,0,1-4.78-1.63,6.11,6.11,0,0,1-2.36-4.56,5.35,5.35,0,0,1,2.4-4.41,7.45,7.45,0,0,1,4.64-1.23C254.84,103.53,257.82,105.94,258.08,109Zm-.21,0a4.42,4.42,0,0,0-2.17-3.6,7.19,7.19,0,0,0-4.06-1.06,6.29,6.29,0,0,0-3.8,1.27,3.8,3.8,0,0,0-1.53,3.25,4.06,4.06,0,0,0,1.93,3,7.2,7.2,0,0,0,3.58,1.19,7.34,7.34,0,0,0,3.86-.65A3.78,3.78,0,0,0,257.87,109.05Z"/>
            </g>
            <g>
              <path class="cls-2" d="M267.73,114.25c.11,2.84-2.6,5.11-6.05,5.09s-6.34-2.35-6.46-5.19,2.6-5.11,6-5.08S267.61,111.42,267.73,114.25Z"/>
              <path class="cls-3" d="M267.83,114.25a5.5,5.5,0,0,1-1.73,4.28,6.7,6.7,0,0,1-4.58,1.85,7.49,7.49,0,0,1-4.78-1.63,6.07,6.07,0,0,1-2.35-4.56,5.31,5.31,0,0,1,2.39-4.41,7.39,7.39,0,0,1,4.64-1.23C264.6,108.74,267.57,111.15,267.83,114.25Zm-.21,0a4.42,4.42,0,0,0-2.17-3.59,7.19,7.19,0,0,0-4.06-1.06,6.23,6.23,0,0,0-3.8,1.27,3.83,3.83,0,0,0-1.53,3.25,4.06,4.06,0,0,0,1.93,3,7.24,7.24,0,0,0,3.58,1.19,7.42,7.42,0,0,0,3.86-.65A3.79,3.79,0,0,0,267.62,114.25Z"/>
            </g>
            <g>
              <path class="cls-2" d="M275.66,119.45a5.92,5.92,0,0,1-6,5.72c-3.46,0-5.66-2.13-5.77-5a5.8,5.8,0,0,1,5.68-5.95C273,114.29,275.55,116.61,275.66,119.45Z"/>
              <path class="cls-3" d="M275.76,119.44a6.62,6.62,0,0,1-1.43,4.39A6.09,6.09,0,0,1,270,126.2a6.78,6.78,0,0,1-4.88-1.45,5.85,5.85,0,0,1-2.06-4.68,6.67,6.67,0,0,1,2-4.51,6.1,6.1,0,0,1,4.46-1.82,6.84,6.84,0,0,1,4.3,1.72A5.92,5.92,0,0,1,275.76,119.44Zm-.2,0a4.51,4.51,0,0,0-2.06-3.65,6.72,6.72,0,0,0-4-1,4.86,4.86,0,0,0-3.48,1.7,5.21,5.21,0,0,0-1.29,3.56,3.89,3.89,0,0,0,1.67,3.07,6.7,6.7,0,0,0,7.17-.1A4.42,4.42,0,0,0,275.56,119.45Z"/>
            </g>
            <g>
              <path class="cls-2" d="M284.32,125.71c.1,2.54-3,5.54-6,5.52s-5.65-2.11-5.76-4.65a5.42,5.42,0,0,1,5.24-5.41C280.85,121.2,284.22,123.17,284.32,125.71Z"/>
              <path class="cls-3" d="M284.42,125.71a6.49,6.49,0,0,1-1.54,4.13,6.27,6.27,0,0,1-4.09,2.41,6.73,6.73,0,0,1-4.7-1.27,5.64,5.64,0,0,1-2.39-4.33,6.12,6.12,0,0,1,1.91-4.35,5.69,5.69,0,0,1,4.32-1.64,8,8,0,0,1,4.14,1.53A5.08,5.08,0,0,1,284.42,125.71Zm-.21,0a3.87,3.87,0,0,0-2.37-3.16,8.69,8.69,0,0,0-3.94-.86,4.74,4.74,0,0,0-4.53,4.87,3.68,3.68,0,0,0,1.88,2.7,6.5,6.5,0,0,0,3.38.89,7,7,0,0,0,3.48-1.14A4.24,4.24,0,0,0,284.21,125.72Z"/>
            </g>
            <g>
              <path class="cls-2" d="M291.4,135.12c-1.16,2.48-4.43,3.44-7.31,2.16S279.8,133,281,130.47s4.42-3.44,7.31-2.16S292.55,132.64,291.4,135.12Z"/>
              <path class="cls-3" d="M291.49,135.16a5.86,5.86,0,0,1-3.12,3,6.16,6.16,0,0,1-4.66.06,6.49,6.49,0,0,1-3.53-3.27,5.6,5.6,0,0,1,0-4.86,5.5,5.5,0,0,1,3.76-2.84,7,7,0,0,1,4.48.53A5.87,5.87,0,0,1,291.49,135.16Zm-.19-.08a4,4,0,0,0-.26-3.9,6.17,6.17,0,0,0-3-2.41,5.67,5.67,0,0,0-3.72-.17,4,4,0,0,0-2.58,2.22A3.6,3.6,0,0,0,282,134a6.1,6.1,0,0,0,2.52,2.3,6.86,6.86,0,0,0,3.53.77A3.89,3.89,0,0,0,291.3,135.08Z"/>
            </g>
            <g>
              <ellipse class="cls-2" cx="288.83" cy="142.44" rx="4.94" ry="5.72" transform="translate(51.58 360.2) rotate(-68.8)"/>
              <path class="cls-3" d="M294.15,144.81a5.91,5.91,0,0,1-3.13,3,6.16,6.16,0,0,1-4.66.06,6.47,6.47,0,0,1-3.52-3.27,5.59,5.59,0,0,1,0-4.87,5.47,5.47,0,0,1,3.75-2.83,6.88,6.88,0,0,1,4.48.53A5.87,5.87,0,0,1,294.15,144.81Zm-.19-.09a4,4,0,0,0-.26-3.9,6.12,6.12,0,0,0-3-2.4,5.71,5.71,0,0,0-3.71-.18,4,4,0,0,0-2.58,2.23,3.6,3.6,0,0,0,.31,3.22A6.14,6.14,0,0,0,287.2,146a6.9,6.9,0,0,0,3.54.77A3.86,3.86,0,0,0,294,144.72Z"/>
            </g>
            <g>
              <ellipse class="cls-2" cx="295.38" cy="149.38" rx="4.93" ry="5.07" transform="translate(114.37 426.51) rotate(-83.68)"/>
              <path class="cls-3" d="M300.09,151.48a6.32,6.32,0,0,1-2.74,3.06,5.25,5.25,0,0,1-4.44.3,5.57,5.57,0,0,1-3.22-3.31,5.77,5.77,0,0,1,7.94-7.13,5.17,5.17,0,0,1,2.67,3.14A5.68,5.68,0,0,1,300.09,151.48Zm-.19-.09a4,4,0,0,0,0-3.69,4.94,4.94,0,0,0-2.68-2.34,4.56,4.56,0,0,0-3.39,0,4.18,4.18,0,0,0-2.3,2.28,3.75,3.75,0,0,0,.1,3.08,4.65,4.65,0,0,0,2.13,2.16,5.33,5.33,0,0,0,3.22.56A3.93,3.93,0,0,0,299.9,151.39Z"/>
            </g>
          </g>
          <g>
            <path class="cls-2" d="M202.43,103.35c1,2.4-.45,5.1-3.25,6s-5.88-.25-6.89-2.65.45-5.1,3.25-6S201.42,101,202.43,103.35Z"/>
            <path class="cls-3" d="M202.52,103.31a5.63,5.63,0,0,1,.15,4.17,4.61,4.61,0,0,1-3.42,2.79,7.09,7.09,0,0,1-4.24-.63,6.7,6.7,0,0,1-3.25-2.68,4.48,4.48,0,0,1-.6-2.23,4.77,4.77,0,0,1,.62-2.3,6,6,0,0,1,3.62-2.85,6.12,6.12,0,0,1,2.29-.21,5.33,5.33,0,0,1,2.15.73A6.82,6.82,0,0,1,202.52,103.31Zm-.19.08a3.5,3.5,0,0,0-3-2,7.89,7.89,0,0,0-3.31.31,5,5,0,0,0-2.57,1.75,3.81,3.81,0,0,0-.65,3,3.52,3.52,0,0,0,2.42,2.5,5,5,0,0,0,3.51-.41,9.45,9.45,0,0,0,2.78-1.81,3.57,3.57,0,0,0,.93-1.53A2.81,2.81,0,0,0,202.33,103.39Z"/>
          </g>
          <g>
            <g>
              <path class="cls-2" d="M212.07,109.22c.1,2.54-2.36,4.58-5.5,4.55s-5.77-2.1-5.87-4.64,2.37-4.58,5.51-4.55S212,106.68,212.07,109.22Z"/>
              <path class="cls-3" d="M212.18,109.21a5,5,0,0,1-1.58,3.9,6.07,6.07,0,0,1-4.18,1.7,6.82,6.82,0,0,1-4.37-1.46,5.52,5.52,0,0,1-2.18-4.19,4.83,4.83,0,0,1,2.24-4,6.85,6.85,0,0,1,4.23-1.08C209.22,104.24,211.92,106.42,212.18,109.21Zm-.21,0a3.93,3.93,0,0,0-2-3.21,6.84,6.84,0,0,0-3.67-.91,5.74,5.74,0,0,0-3.4,1.14,3.34,3.34,0,0,0-1.37,2.86,3.56,3.56,0,0,0,1.74,2.58,6.85,6.85,0,0,0,3.2,1,7,7,0,0,0,3.46-.52A3.31,3.31,0,0,0,212,109.22Z"/>
            </g>
            <g>
              <path class="cls-2" d="M221.45,110c1.12,2.36-.29,5.16-3.15,6.26s-6.08.08-7.2-2.28.29-5.16,3.15-6.26S220.33,107.68,221.45,110Z"/>
              <path class="cls-3" d="M221.55,110a5,5,0,0,1,.15,4.19,5.72,5.72,0,0,1-3.24,3.16,6.64,6.64,0,0,1-4.61.13,5.87,5.87,0,0,1-3.51-3.1,4.86,4.86,0,0,1,.41-4.57,6.35,6.35,0,0,1,3.51-2.6A6.28,6.28,0,0,1,221.55,110Zm-.19.09a4.12,4.12,0,0,0-3-2.3,6.39,6.39,0,0,0-3.73.41,5.14,5.14,0,0,0-2.69,2.3,3.34,3.34,0,0,0-.07,3.16,3.88,3.88,0,0,0,2.59,1.83,6.49,6.49,0,0,0,3.33-.12,6.21,6.21,0,0,0,3-1.74A3.33,3.33,0,0,0,221.36,110.09Z"/>
            </g>
            <g>
              <path class="cls-2" d="M238.5,111.83c.4,2.52-1.79,4.82-4.9,5.12s-5.95-1.5-6.35-4,1.8-4.82,4.91-5.12S238.11,109.3,238.5,111.83Z"/>
              <path class="cls-3" d="M238.61,111.81a5,5,0,0,1-1.11,4.06,6,6,0,0,1-4,2.13,6.84,6.84,0,0,1-4.5-1,5.67,5.67,0,0,1-2.6-3.93,4.8,4.8,0,0,1,1.74-4.25,6.75,6.75,0,0,1,4.1-1.53A6.22,6.22,0,0,1,238.61,111.81Zm-.21,0a4,4,0,0,0-2.32-3,6.8,6.8,0,0,0-3.73-.54,5.57,5.57,0,0,0-3.26,1.49,3.32,3.32,0,0,0-1,3,3.64,3.64,0,0,0,2,2.4,6.71,6.71,0,0,0,3.28.72,6.84,6.84,0,0,0,3.38-.87A3.31,3.31,0,0,0,238.4,111.84Z"/>
            </g>
            <g>
              <path class="cls-2" d="M247.37,116.67c0,2.54-2.47,4.52-5.61,4.43s-5.73-2.21-5.77-4.75,2.47-4.53,5.61-4.44S247.32,114.13,247.37,116.67Z"/>
              <path class="cls-3" d="M247.47,116.67a5,5,0,0,1-1.67,3.86,6.09,6.09,0,0,1-4.2,1.61,6.9,6.9,0,0,1-4.35-1.54,5.56,5.56,0,0,1-2.1-4.24,4.85,4.85,0,0,1,2.34-4,6.87,6.87,0,0,1,4.25-1C244.62,111.63,247.28,113.86,247.47,116.67Zm-.21,0a3.86,3.86,0,0,0-1.92-3.25,6.71,6.71,0,0,0-3.65-1,5.75,5.75,0,0,0-3.43,1.07,3.32,3.32,0,0,0-1.43,2.82,3.52,3.52,0,0,0,1.68,2.62,6.92,6.92,0,0,0,3.18,1.1,7.12,7.12,0,0,0,3.48-.45A3.31,3.31,0,0,0,247.26,116.67Z"/>
            </g>
            <g>
              <path class="cls-2" d="M257.94,119.73c.05,2.6-3.05,4.32-6.19,4.23s-6.05-1.94-6.09-4.54,2.9-5.38,6-5.3S257.9,117.14,257.94,119.73Z"/>
              <path class="cls-3" d="M258.05,119.73a4.71,4.71,0,0,1-2.18,3.87,7.38,7.38,0,0,1-4.52,1.39,7.63,7.63,0,0,1-4.58-1.64,5.62,5.62,0,0,1-1.59-2.06,4.3,4.3,0,0,1-.29-2.64,6.32,6.32,0,0,1,2.8-3.91,6.43,6.43,0,0,1,4.52-1.1,7,7,0,0,1,3.93,2.2A6.6,6.6,0,0,1,258.05,119.73Zm-.21,0a4.8,4.8,0,0,0-2-3.58,7.09,7.09,0,0,0-3.75-1.48,5.45,5.45,0,0,0-5.55,4.24A2.92,2.92,0,0,0,248,121.7a8,8,0,0,0,3.47,1.2,9.37,9.37,0,0,0,3.85-.29,4,4,0,0,0,1.71-1A2.81,2.81,0,0,0,257.84,119.74Z"/>
            </g>
            <g>
              <path class="cls-2" d="M231.89,114.28c1.25,2.65-.17,5.73-3.18,6.89a6.13,6.13,0,0,1-7.73-2.7c-1.25-2.65.17-5.73,3.18-6.89A6.13,6.13,0,0,1,231.89,114.28Z"/>
              <path class="cls-3" d="M232,114.23a5.69,5.69,0,0,1,.3,4.52,5.85,5.85,0,0,1-3.43,3.47,6.85,6.85,0,0,1-5,0,6.55,6.55,0,0,1-3.65-3.4,5.46,5.46,0,0,1,.26-4.89,6.39,6.39,0,0,1,3.71-2.92A6.71,6.71,0,0,1,232,114.23Zm-.19.09a4.76,4.76,0,0,0-3.21-2.62,6.5,6.5,0,0,0-4.05.31,5.12,5.12,0,0,0-2.84,2.56,3.91,3.91,0,0,0,.05,3.54,4.48,4.48,0,0,0,2.81,2.16,6.43,6.43,0,0,0,3.61,0,5.93,5.93,0,0,0,3.13-2A3.87,3.87,0,0,0,231.79,114.32Z"/>
            </g>
            <g>
              <path class="cls-2" d="M265.62,124.29c.11,2.71-2.29,4.9-5.37,4.87s-5.66-2.24-5.77-5,2.3-4.9,5.38-4.88S265.52,121.57,265.62,124.29Z"/>
              <path class="cls-3" d="M265.73,124.28a5.49,5.49,0,0,1-1.42,4.05,5.74,5.74,0,0,1-4.21,1.87,6.49,6.49,0,0,1-4.43-1.65,6,6,0,0,1-2-4.32,5.24,5.24,0,0,1,2.07-4.17A6.43,6.43,0,0,1,260,118.8,6.19,6.19,0,0,1,265.73,124.28Zm-.21,0a4.23,4.23,0,0,0-1.88-3.39,6.27,6.27,0,0,0-3.67-1.05,5.18,5.18,0,0,0-3.38,1.26,3.72,3.72,0,0,0-1.27,3.06A3.94,3.94,0,0,0,257,127a6.47,6.47,0,0,0,6.61.51A3.57,3.57,0,0,0,265.52,124.29Z"/>
            </g>
            <g>
              <path class="cls-2" d="M274.46,129.38c.11,2.66-2.3,4.79-5.38,4.77s-5.65-2.2-5.76-4.86,2.31-4.79,5.38-4.77S274.36,126.72,274.46,129.38Z"/>
              <path class="cls-3" d="M274.57,129.38a5.35,5.35,0,0,1-1.45,4,5.81,5.81,0,0,1-4.19,1.82,6.54,6.54,0,0,1-4.39-1.6,5.81,5.81,0,0,1-2.05-4.26,5.1,5.1,0,0,1,2.1-4.12,6.49,6.49,0,0,1,4.25-1.2A6.14,6.14,0,0,1,274.57,129.38Zm-.21,0a4.12,4.12,0,0,0-1.9-3.32,6.33,6.33,0,0,0-3.65-1,5.22,5.22,0,0,0-3.37,1.23,3.58,3.58,0,0,0-1.28,3,3.82,3.82,0,0,0,1.68,2.72,6.67,6.67,0,0,0,6.58.51A3.52,3.52,0,0,0,274.36,129.38Z"/>
            </g>
            <g>
              <path class="cls-2" d="M282.43,135.43c.11,2.66-2.45,4.79-5.72,4.77s-6-2.2-6.1-4.86,2.45-4.8,5.72-4.77S282.33,132.77,282.43,135.43Z"/>
              <path class="cls-3" d="M282.54,135.43a5.23,5.23,0,0,1-1.65,4,6.32,6.32,0,0,1-4.33,1.76,7.12,7.12,0,0,1-4.54-1.53,5.78,5.78,0,0,1-2.25-4.34,5,5,0,0,1,2.3-4.18,7.18,7.18,0,0,1,4.4-1.14C279.47,130.23,282.28,132.51,282.54,135.43Zm-.21,0a4.12,4.12,0,0,0-2.06-3.36,7,7,0,0,0-3.83-1,5.89,5.89,0,0,0-3.56,1.19,3.5,3.5,0,0,0-1.43,3,3.75,3.75,0,0,0,1.81,2.74,7,7,0,0,0,3.35,1.1,7.13,7.13,0,0,0,3.62-.57A3.5,3.5,0,0,0,282.33,135.43Z"/>
            </g>
            <g>
              <path class="cls-2" d="M285.41,143.54c-.34,2.62-3.05,4.36-6,3.89s-5.14-3-4.8-5.6,3.85-4,6.84-3.52A4.4,4.4,0,0,1,285.41,143.54Z"/>
              <path class="cls-3" d="M285.51,143.55a5.42,5.42,0,0,1-2,3.66,5.72,5.72,0,0,1-4.31,1.25,6.39,6.39,0,0,1-4.08-2.14,5.71,5.71,0,0,1-1.4-4.44,4.11,4.11,0,0,1,1-2.22,5.42,5.42,0,0,1,1.87-1.32,8.26,8.26,0,0,1,4.23-.62,5,5,0,0,1,4.66,5.83Zm-.2,0a4,4,0,0,0-1.08-3.58,5.27,5.27,0,0,0-3.46-1.18,7.27,7.27,0,0,0-3.55.8A3,3,0,0,0,275.4,142a3.68,3.68,0,0,0,1.24,2.86,6.08,6.08,0,0,0,2.89,1.49,6.31,6.31,0,0,0,3.41-.14A3.55,3.55,0,0,0,285.31,143.52Z"/>
            </g>
            <g>
              <path class="cls-2" d="M290.93,150.85c-.35,2.62-3.05,4.36-6,3.89s-5.14-3-4.8-5.6,3.84-4,6.84-3.52A4.4,4.4,0,0,1,290.93,150.85Z"/>
              <path class="cls-3" d="M291,150.87a5.44,5.44,0,0,1-2,3.66,5.83,5.83,0,0,1-4.32,1.25,6.46,6.46,0,0,1-4.08-2.15,5.73,5.73,0,0,1-1.39-4.44,4,4,0,0,1,1-2.22,5.38,5.38,0,0,1,1.86-1.32,8.4,8.4,0,0,1,4.24-.62,5,5,0,0,1,4.66,5.84Zm-.21,0a3.92,3.92,0,0,0-1.07-3.58,5.25,5.25,0,0,0-3.46-1.18,7.19,7.19,0,0,0-3.56.79,3.09,3.09,0,0,0-1.82,2.49,3.7,3.7,0,0,0,1.25,2.85,6.09,6.09,0,0,0,2.89,1.5,6.31,6.31,0,0,0,3.41-.15A3.52,3.52,0,0,0,290.82,150.84Z"/>
            </g>
            <g>
              <path class="cls-2" d="M294.85,157.61c-.3,2.29-2.66,3.81-5.27,3.4s-4.48-2.61-4.18-4.9,3.36-3.48,6-3.07A3.84,3.84,0,0,1,294.85,157.61Z"/>
              <path class="cls-3" d="M295,157.62a5,5,0,0,1-5.54,4.42,5.61,5.61,0,0,1-3.63-1.92,5.12,5.12,0,0,1-1.23-4,3.67,3.67,0,0,1,.92-2,5,5,0,0,1,1.67-1.17,7.3,7.3,0,0,1,3.73-.53,4.8,4.8,0,0,1,3.26,1.73A4.91,4.91,0,0,1,295,157.62Zm-.21,0a3.36,3.36,0,0,0-.94-3.1,4.61,4.61,0,0,0-3-1,6.18,6.18,0,0,0-3.05.71,2.56,2.56,0,0,0-1.52,2.1,3.1,3.1,0,0,0,1.07,2.4,5.42,5.42,0,0,0,2.45,1.26,5.58,5.58,0,0,0,2.92-.06A3,3,0,0,0,294.75,157.59Z"/>
            </g>
          </g>
          <g>
            <g>
              <path class="cls-2" d="M240.9,120.51c.53,2.56-1.39,5-4.31,5.39s-5.71-1.31-6.25-3.87,1.39-5,4.3-5.39S240.36,118,240.9,120.51Z"/>
              <path class="cls-3" d="M241,120.49a5.21,5.21,0,0,1-.69,4.06,5.48,5.48,0,0,1-3.75,2.41,6.33,6.33,0,0,1-4.46-.95,5.89,5.89,0,0,1-2.58-3.8,5,5,0,0,1,1.32-4.3A6.06,6.06,0,0,1,241,120.49Zm-.21,0a4.1,4.1,0,0,0-2.3-2.92,6,6,0,0,0-3.63-.47,4.83,4.83,0,0,0-3,1.67,3.46,3.46,0,0,0-.7,3,3.81,3.81,0,0,0,2,2.37,6,6,0,0,0,3.14.65,5.79,5.79,0,0,0,3.16-1.07A3.37,3.37,0,0,0,240.79,120.53Z"/>
            </g>
            <g>
              <path class="cls-2" d="M251.58,126.2c-.53,2.52-3.55,4-6.74,3.23s-5.35-3.35-4.82-5.87,3.56-4,6.75-3.23S252.12,123.69,251.58,126.2Z"/>
              <path class="cls-3" d="M251.69,126.23a5.24,5.24,0,0,1-2.59,3.46,6.56,6.56,0,0,1-4.54.75,7.17,7.17,0,0,1-4.1-2.35,5.45,5.45,0,0,1-1.26-4.7,5,5,0,0,1,3.26-3.42,7.43,7.43,0,0,1,4.47-.14,7,7,0,0,1,3.61,2.4A5.16,5.16,0,0,1,251.69,126.23Zm-.21,0a3.8,3.8,0,0,0-1.27-3.65,7,7,0,0,0-3.52-1.68,6.26,6.26,0,0,0-3.72.38,3.5,3.5,0,0,0-2.13,2.51,3.43,3.43,0,0,0,1.16,3,7.2,7.2,0,0,0,3,1.71,7.82,7.82,0,0,0,3.64.25A3.49,3.49,0,0,0,251.48,126.18Z"/>
            </g>
            <g>
              <path class="cls-2" d="M261.62,132.17c-.53,2.51-3.82,3.63-7,2.9s-6.34-2.63-5.81-5.14,4.55-4.69,7.74-4S262.15,129.65,261.62,132.17Z"/>
              <path class="cls-3" d="M261.72,132.19a4.84,4.84,0,0,1-3,3.36A7.59,7.59,0,0,1,254,136a10.07,10.07,0,0,1-4.34-2,5.18,5.18,0,0,1-1.56-2.18,3.55,3.55,0,0,1,.18-2.81,6.91,6.91,0,0,1,3.72-3.12,7.8,7.8,0,0,1,4.68-.38,7.28,7.28,0,0,1,3.78,2.55A5.48,5.48,0,0,1,261.72,132.19Zm-.2-.05a4.16,4.16,0,0,0-1.42-3.84,7.36,7.36,0,0,0-3.68-1.82,6.71,6.71,0,0,0-3.91.61,5.46,5.46,0,0,0-2.73,2.55c-.44,1.05.12,2,1.14,2.69a12.67,12.67,0,0,0,3.57,1.63,9.61,9.61,0,0,0,3.92.52,4.25,4.25,0,0,0,1.92-.67A3,3,0,0,0,261.52,132.14Z"/>
            </g>
            <g>
              <path class="cls-2" d="M270.89,136.62c.1,2.66-2.36,4.8-5.5,4.77s-5.76-2.2-5.87-4.86,2.35-4.79,5.49-4.76S270.78,134,270.89,136.62Z"/>
              <path class="cls-3" d="M271,136.62a5.3,5.3,0,0,1-1.51,4,5.94,5.94,0,0,1-4.24,1.8,6.73,6.73,0,0,1-4.44-1.57,5.8,5.8,0,0,1-2.12-4.29,5.11,5.11,0,0,1,2.17-4.14,6.7,6.7,0,0,1,4.3-1.18A6.21,6.21,0,0,1,271,136.62Zm-.21,0a4.1,4.1,0,0,0-1.95-3.34,6.51,6.51,0,0,0-3.71-1,5.44,5.44,0,0,0-3.43,1.22,3.52,3.52,0,0,0-1.33,3,3.81,3.81,0,0,0,1.72,2.73,7,7,0,0,0,6.71.51A3.47,3.47,0,0,0,270.78,136.63Z"/>
            </g>
            <g>
              <path class="cls-2" d="M276.72,144.54c-.55,2.34-3.33,3.67-6.21,3s-4.79-3.19-4.24-5.53,3.32-3.66,6.21-2.95S277.26,142.2,276.72,144.54Z"/>
              <path class="cls-3" d="M276.82,144.57a5,5,0,0,1-2.37,3.22,5.86,5.86,0,0,1-4.23.71,6.44,6.44,0,0,1-3.76-2.3,5.14,5.14,0,0,1-1-4.42,4.77,4.77,0,0,1,3-3.17,6.67,6.67,0,0,1,4.14-.09C275.27,139.29,277.31,141.93,276.82,144.57Zm-.21,0a3.53,3.53,0,0,0-1.05-3.39,6.22,6.22,0,0,0-3.18-1.6,5.54,5.54,0,0,0-3.38.34,3.26,3.26,0,0,0-1.92,2.29,3.13,3.13,0,0,0,1,2.7,6.31,6.31,0,0,0,2.68,1.61,7,7,0,0,0,3.29.28A3.19,3.19,0,0,0,276.61,144.52Z"/>
            </g>
          </g>
        </g>
        <path class="cls-3" d="M155.72,105.85c0-.07.05,0,.12,0h.51c.23,0,.45,0,.67.06.45,0,.9.13,1.34.22a14.78,14.78,0,0,1,2.58.87,16,16,0,0,1,4.49,3.11c.65.61,1.24,1.43,1.79,2a3.81,3.81,0,0,0,2,1.12,3.08,3.08,0,0,0,3.52-2.31,3.31,3.31,0,0,0-.36-2.33,5,5,0,0,0-.68-1.06,5,5,0,0,0-.9-.87,10.93,10.93,0,0,0-4.74-2C162.63,104,159,104.78,155.72,105.85Zm-.1,0c.81-.29,1.7-.72,2.56-.94l1.29-.37c.43-.11.88-.18,1.32-.27a17,17,0,0,1,5.37-.19,11.49,11.49,0,0,1,5.07,2,6.34,6.34,0,0,1,1.83,2.12,4.1,4.1,0,0,1,.49,2.82,3.76,3.76,0,0,1-1.59,2.44,4,4,0,0,1-2.86.68,4.65,4.65,0,0,1-2.61-1.35c-.71-.72-1.14-1.38-1.78-2A15.82,15.82,0,0,0,155.62,105.87Z"/>
        <path class="cls-3" d="M172.25,95.19c.17.59.28,1.35.49,2a20.89,20.89,0,0,0,.71,2,13.58,13.58,0,0,0,2.19,3.5,5.85,5.85,0,0,0,3.21,2.14,2.33,2.33,0,0,0,2.75-1.58.51.51,0,0,1,.48-.38h0a7.42,7.42,0,0,0,2.07-.35,5.32,5.32,0,0,0,1.83-1,4.12,4.12,0,0,0,1.2-1.65,6.55,6.55,0,0,0,.45-2.08l.31.42a14.74,14.74,0,0,1-5.61-3.34,11.25,11.25,0,0,1-3.21-5.63l.46.14a7.54,7.54,0,0,0-1.39,1.94,8.23,8.23,0,0,0-.78,2.3,8.6,8.6,0,0,0-.09,2.43,11,11,0,0,0,.53,2.4v0a.12.12,0,0,1-.09.17h0a6.86,6.86,0,0,1-3.22-1,6.13,6.13,0,0,1-1.31-1.07,5.62,5.62,0,0,1-.55-.64A5.11,5.11,0,0,1,172.25,95.19Zm0-.1.54.7a6.57,6.57,0,0,0,.55.62,6.37,6.37,0,0,0,1.31,1,6.84,6.84,0,0,0,3.12.92l-.14.19a11.36,11.36,0,0,1-.61-2.46,9,9,0,0,1,0-2.54,8.7,8.7,0,0,1,.75-2.45A7.88,7.88,0,0,1,179.23,89a.27.27,0,0,1,.38,0,.25.25,0,0,1,.07.12v0A10.88,10.88,0,0,0,180.88,92a10.73,10.73,0,0,0,2,2.39,13.69,13.69,0,0,0,2.52,1.82,13.52,13.52,0,0,0,2.83,1.22h0a.4.4,0,0,1,.29.42,7.08,7.08,0,0,1-.45,2.39,5,5,0,0,1-1.4,2,6.38,6.38,0,0,1-2.14,1.23,7.83,7.83,0,0,1-2.42.41l.51-.38a3.17,3.17,0,0,1-1.54,1.93,3.39,3.39,0,0,1-2.39.32,6.66,6.66,0,0,1-3.63-2.58A13.17,13.17,0,0,1,173,99.35a15.22,15.22,0,0,1-.56-2.08c-.06-.35-.12-.7-.16-1.06,0-.17,0-.35,0-.53l0-.27v-.13S172.16,95.18,172.22,95.09Z"/>
        <g class="cls-6">
          <path class="cls-3" d="M298.31,177.15a46.8,46.8,0,0,1-3.77,17.26,52.2,52.2,0,0,1-9.53,15,57,57,0,0,1-13.93,11l-1.94,1.08-2,1c-1.32.68-2.7,1.21-4.06,1.8s-2.78,1-4.17,1.51-2.83.85-4.24,1.26a82.48,82.48,0,0,0,16-7.28,58.36,58.36,0,0,0,13.57-11,55.23,55.23,0,0,0,12.51-22.88A46.14,46.14,0,0,0,298.31,177.15Z"/>
        </g>
      </g>
      <g>
        <g>
          <g>
            <path class="cls-12" d="M32.18,22.85s55-38.84,86.47,45.83C118.65,68.68,69.63,107.4,32.18,22.85Z"/>
            <path class="cls-13" d="M32.18,22.85a53.52,53.52,0,0,1,12.9-6.45,52.46,52.46,0,0,1,14.2-2.91A44.61,44.61,0,0,1,73.77,15,46.67,46.67,0,0,1,87,21.1l1.54,1c.51.34,1,.74,1.46,1.1,1,.77,2,1.47,2.86,2.29L95.58,28c.9.81,1.67,1.77,2.52,2.64,1.71,1.75,3.15,3.71,4.68,5.6.78.94,1.41,2,2.12,3s1.4,2,2,3A143.38,143.38,0,0,1,119.67,68.3l.29.77-.63.46a48.3,48.3,0,0,1-13,6.59A46.32,46.32,0,0,1,92,78.5a43.41,43.41,0,0,1-14.33-2.44,49.61,49.61,0,0,1-12.81-6.77,82.88,82.88,0,0,1-19.4-21.1,143.08,143.08,0,0,1-7.2-12.39c-1.05-2.15-2.18-4.22-3.16-6.43Zm0,0,3.18,6.41c1,2.11,2.25,4.18,3.36,6.27a141.77,141.77,0,0,0,7.57,12.06A81.84,81.84,0,0,0,65.78,67.94a52.43,52.43,0,0,0,12.45,6.35,41.56,41.56,0,0,0,13.71,2.23,44.12,44.12,0,0,0,13.7-2.37A46.59,46.59,0,0,0,118,67.83l-.34,1.23a141.84,141.84,0,0,0-12.36-25.79c-.63-1-1.33-2-2-3s-1.3-2-2.05-2.92c-1.49-1.85-2.88-3.79-4.53-5.49A58.25,58.25,0,0,0,86.1,22.49a45.2,45.2,0,0,0-12.71-6.16,43.64,43.64,0,0,0-14.06-1.77A55.88,55.88,0,0,0,32.18,22.85Z"/>
          </g>
          <path class="cls-13" d="M32.18,22.85a82.4,82.4,0,0,1,12.09,2.6c4,1.13,7.87,2.5,11.73,4A189.31,189.31,0,0,1,78.4,40l5.38,3.09c1.78,1,3.52,2.16,5.27,3.25,3.52,2.17,6.89,4.55,10.28,6.91s6.6,4.94,9.89,7.43,6.34,5.27,9.43,8c-3.4-2.32-6.69-4.79-10.07-7.13l-5.1-3.45c-1.7-1.15-3.36-2.36-5.11-3.43-3.48-2.18-6.85-4.51-10.41-6.56-1.76-1-3.48-2.15-5.26-3.17l-5.35-3c-7.16-4-14.48-7.65-22-10.92-3.77-1.6-7.55-3.18-11.42-4.54A103.73,103.73,0,0,0,32.18,22.85Z"/>
          <path class="cls-13" d="M65.05,14.19a55,55,0,0,1,6.66,6.56,87.39,87.39,0,0,1,5.74,7.42c.87,1.3,1.76,2.59,2.56,3.94s1.62,2.68,2.38,4c1.51,2.74,2.89,5.55,4.18,8.4l.34.77-.63.5a51,51,0,0,1-7.44,4.85,64.22,64.22,0,0,1-8,3.66,61.88,61.88,0,0,1-8.39,2.55,63.13,63.13,0,0,1-8.62,1.38c2.81-.73,5.61-1.43,8.34-2.38a83.8,83.8,0,0,0,8-3.08,80.65,80.65,0,0,0,7.64-3.9,55.1,55.1,0,0,0,7-4.73l-.29,1.26c-.67-1.38-1.27-2.8-1.94-4.18s-1.34-2.77-2.09-4.11c-1.39-2.75-3-5.39-4.55-8s-3.33-5.18-5.15-7.68A83.67,83.67,0,0,0,65.05,14.19Z"/>
          <path class="cls-13" d="M89.75,24.46a68.41,68.41,0,0,1,5.33,7.32,81.05,81.05,0,0,1,4.45,7.94,65.11,65.11,0,0,1,3.38,8.5,43.41,43.41,0,0,1,1.7,9.09v.26l-.09.21a10.18,10.18,0,0,1-1.29,2c-.46.6-1,1.14-1.47,1.69a27.93,27.93,0,0,1-3.32,2.85A41.58,41.58,0,0,1,91,68.68c-1.28.64-2.62,1.14-3.93,1.69s-2.68,1-4,1.39-2.72.8-4.09,1.14-2.77.63-4.15.92c1.33-.5,2.65-1,4-1.47l3.92-1.57,3.84-1.69c1.24-.66,2.53-1.19,3.73-1.89a47.52,47.52,0,0,0,7-4.47,31.45,31.45,0,0,0,3-2.71c.45-.5.9-1,1.3-1.52a8.31,8.31,0,0,0,1-1.53l-.07.46a44.89,44.89,0,0,0-1.53-8.63,78,78,0,0,0-3-8.38c-1.16-2.73-2.44-5.44-3.82-8.09S91.3,27,89.75,24.46Z"/>
        </g>
        <g>
          <g>
            <path class="cls-12" d="M142.07,88.35c19.34,28.36,68.66,25.38,117.27-43.61C259.34,44.74,196.09,27.3,142.07,88.35Z"/>
            <path class="cls-13" d="M142.07,88.35a42.92,42.92,0,0,0,6.07,6.76,38,38,0,0,0,7.45,5.13,39.5,39.5,0,0,0,17.35,4.35,52,52,0,0,0,9-.53c1.48-.28,3-.51,4.43-.86s2.93-.69,4.35-1.19a81.09,81.09,0,0,0,16.45-7.36A119.31,119.31,0,0,0,222,84.37a164.49,164.49,0,0,0,13.38-12.22,238.11,238.11,0,0,0,23-28l.59,1.64a86.81,86.81,0,0,0-16-2.18,115.87,115.87,0,0,0-16.24.36,119.13,119.13,0,0,0-16,2.61,122,122,0,0,0-30.39,11.5l-1.8,1c-.59.33-1.17.69-1.76,1l-3.51,2.08-3.41,2.24-1.71,1.12-1.66,1.19A157.26,157.26,0,0,0,142.07,88.35Zm0,0a148.72,148.72,0,0,1,23.87-22.49l1.64-1.24,1.7-1.17,3.4-2.32,3.5-2.16c.59-.36,1.17-.73,1.76-1.07l1.81-1a117.88,117.88,0,0,1,14.87-7.11,117.74,117.74,0,0,1,48.53-8.24,89.68,89.68,0,0,1,16.47,2.16l1.52.37-.93,1.28c-1.81,2.46-3.53,5-5.41,7.39s-3.71,4.85-5.7,7.18c-3.84,4.75-8,9.24-12.25,13.63-8.64,8.63-18.08,16.62-28.83,22.59a81.88,81.88,0,0,1-16.91,7.21c-1.45.49-3,.76-4.46,1.14s-3,.54-4.54.81a52.56,52.56,0,0,1-9.21.38,40.27,40.27,0,0,1-17.6-4.92,38.86,38.86,0,0,1-7.39-5.41A43,43,0,0,1,142.07,88.35Z"/>
          </g>
          <path class="cls-13" d="M259.34,44.74c-10,3.16-19.83,6.54-29.69,9.94S210,61.59,200.23,65.27s-19.5,7.38-29.18,11.26-19.32,7.85-29,11.82c2.32-1.18,4.66-2.36,7-3.5s4.68-2.33,7.05-3.43l7.11-3.29C165.6,77,168,76,170.4,75c4.77-2.13,9.62-4.07,14.45-6.06,2.42-1,4.87-1.91,7.3-2.87s4.87-1.89,7.32-2.79q14.68-5.48,29.65-10.17C239.09,49.94,249.16,47.09,259.34,44.74Z"/>
          <path class="cls-13" d="M202.77,97.74a31.31,31.31,0,0,1-10.66-1.66l-2.57-.89L187,94.12c-.84-.34-1.64-.78-2.45-1.17s-1.63-.8-2.41-1.27a82,82,0,0,1-9.1-5.87,91.63,91.63,0,0,1-8.39-6.89l-.53-.48.26-.63a38.31,38.31,0,0,1,3.47-6.35,63.15,63.15,0,0,1,4.3-5.68,69.75,69.75,0,0,1,4.92-5.1,68.76,68.76,0,0,1,5.41-4.54l-2.43,2.55c-.77.88-1.59,1.71-2.34,2.6-1.53,1.76-3,3.56-4.4,5.42a68.75,68.75,0,0,0-3.88,5.74,39.73,39.73,0,0,0-3.08,6.06l-.27-1.11c2.59,2.35,5.41,4.55,8.23,6.69s5.74,4.15,8.78,6a69.25,69.25,0,0,0,9.4,4.89A38.82,38.82,0,0,0,202.77,97.74Z"/>
          <path class="cls-13" d="M233.92,74.64c-4,.3-8,.41-12.07.43s-8.06-.19-12.09-.49-8-.8-12-1.42a106.5,106.5,0,0,1-11.92-2.57l-1.76-.51,1.32-1.28c2.68-2.6,5.41-5.08,8.24-7.46s5.73-4.69,8.72-6.86,6.09-4.23,9.28-6.11a73.14,73.14,0,0,1,10-4.83,93.57,93.57,0,0,0-9.42,5.7c-3,2.07-5.94,4.29-8.81,6.55s-5.67,4.65-8.41,7.08-5.46,4.89-8,7.45l-.45-1.79a116.67,116.67,0,0,0,11.63,2.57c3.92.72,7.88,1.26,11.85,1.76,2,.21,4,.46,6,.61s4,.36,6,.5,4,.26,6,.4S231.91,74.52,233.92,74.64Z"/>
        </g>
      </g>
    </g>
  </g>
</svg>
