<svg xmlns="http://www.w3.org/2000/svg" xmlns:xlink="http://www.w3.org/1999/xlink" width="322.72" height="296.17" viewBox="0 0 322.72 296.17">
  <defs>
    <style>
      .cls-1 {
        mask: url(#mask);
        filter: url(#luminosity-noclip-6);
      }

      .cls-10, .cls-15, .cls-19, .cls-2, .cls-21, .cls-33, .cls-35, .cls-4, .cls-6, .cls-8 {
        mix-blend-mode: multiply;
      }

      .cls-2 {
        fill: url(#radial-gradient);
      }

      .cls-3 {
        mask: url(#mask-2);
        filter: url(#luminosity-noclip-7);
      }

      .cls-4 {
        fill: url(#radial-gradient-2);
      }

      .cls-5 {
        mask: url(#mask-3);
        filter: url(#luminosity-noclip-8);
      }

      .cls-6 {
        fill: url(#radial-gradient-3);
      }

      .cls-7 {
        mask: url(#mask-4);
        filter: url(#luminosity-noclip-10);
      }

      .cls-8 {
        fill: url(#radial-gradient-4);
      }

      .cls-9 {
        mask: url(#mask-5);
        filter: url(#luminosity-noclip-11);
      }

      .cls-10 {
        fill: url(#radial-gradient-5);
      }

      .cls-11 {
        isolation: isolate;
      }

      .cls-12 {
        fill: none;
        stroke: #fffa4d;
        stroke-linejoin: round;
        stroke-width: 20px;
      }

      .cls-13 {
        fill: url(#linear-gradient);
      }

      .cls-14 {
        mask: url(#mask-6);
      }

      .cls-15, .cls-19, .cls-21, .cls-33, .cls-35 {
        opacity: 0.6;
      }

      .cls-15 {
        fill: url(#radial-gradient-6);
      }

      .cls-16, .cls-17 {
        stroke: #686b6b;
        stroke-miterlimit: 10;
      }

      .cls-16 {
        stroke-width: 2px;
        fill: url(#linear-gradient-2);
      }

      .cls-17, .cls-28 {
        fill: #f1f2f2;
      }

      .cls-18 {
        mask: url(#mask-7);
      }

      .cls-19 {
        fill: url(#radial-gradient-7);
      }

      .cls-20 {
        mask: url(#mask-8);
      }

      .cls-21 {
        fill: url(#radial-gradient-8);
      }

      .cls-22 {
        fill: url(#linear-gradient-3);
      }

      .cls-23, .cls-36 {
        fill: #4a4a4c;
      }

      .cls-24, .cls-25 {
        fill: #e6e7e8;
      }

      .cls-25 {
        font-size: 6.08px;
        font-family: PTSans-Regular, PT Sans;
      }

      .cls-26 {
        letter-spacing: -0.01em;
      }

      .cls-27 {
        letter-spacing: -0.08em;
      }

      .cls-29 {
        mask: url(#mask-9);
      }

      .cls-30 {
        fill: #414042;
        opacity: 0.22;
      }

      .cls-31 {
        fill: url(#linear-gradient-4);
      }

      .cls-32 {
        mask: url(#mask-10);
      }

      .cls-33 {
        fill: url(#radial-gradient-9);
      }

      .cls-34 {
        mask: url(#mask-11);
      }

      .cls-35 {
        fill: url(#radial-gradient-10);
      }

      .cls-36 {
        opacity: 0.34;
      }

      .cls-37, .cls-38 {
        opacity: 0.55;
      }

      .cls-39 {
        filter: url(#luminosity-noclip-9);
      }

      .cls-40 {
        filter: url(#luminosity-noclip-5);
      }

      .cls-41 {
        filter: url(#luminosity-noclip-4);
      }

      .cls-42 {
        filter: url(#luminosity-noclip-3);
      }

      .cls-43 {
        filter: url(#luminosity-noclip-2);
      }

      .cls-44 {
        filter: url(#luminosity-noclip);
      }
    </style>
    <filter id="luminosity-noclip" x="19.98" y="-11455" width="241.47" height="32766" filterUnits="userSpaceOnUse" color-interpolation-filters="sRGB">
      <feFlood flood-color="#fff" result="bg"/>
      <feBlend in="SourceGraphic" in2="bg"/>
    </filter>
    <mask id="mask" x="19.98" y="-11455" width="241.47" height="32766" maskUnits="userSpaceOnUse">
      <g class="cls-44"/>
    </mask>
    <radialGradient id="radial-gradient" cx="629.13" cy="-1818.09" r="42.24" gradientTransform="matrix(2.86, -0.4, 0.02, 0.15, -1619.71, 601.55)" gradientUnits="userSpaceOnUse">
      <stop offset="0" stop-color="#fff"/>
      <stop offset="0.11" stop-color="#e9e9e9"/>
      <stop offset="0.35" stop-color="#b2b2b2"/>
      <stop offset="0.69" stop-color="#595959"/>
      <stop offset="1"/>
    </radialGradient>
    <filter id="luminosity-noclip-2" x="77.02" y="-11455" width="15.11" height="32766" filterUnits="userSpaceOnUse" color-interpolation-filters="sRGB">
      <feFlood flood-color="#fff" result="bg"/>
      <feBlend in="SourceGraphic" in2="bg"/>
    </filter>
    <mask id="mask-2" x="77.02" y="-11455" width="15.11" height="32766" maskUnits="userSpaceOnUse">
      <g class="cls-43"/>
    </mask>
    <radialGradient id="radial-gradient-2" cx="-3957.61" cy="11266.95" r="42.24" gradientTransform="matrix(0.1, 0.71, -0.15, 0.02, 2151.16, 2714.98)" xlink:href="#radial-gradient"/>
    <filter id="luminosity-noclip-3" x="30.67" y="-11455" width="60.44" height="32766" filterUnits="userSpaceOnUse" color-interpolation-filters="sRGB">
      <feFlood flood-color="#fff" result="bg"/>
      <feBlend in="SourceGraphic" in2="bg"/>
    </filter>
    <mask id="mask-3" x="30.67" y="-11455" width="60.44" height="32766" maskUnits="userSpaceOnUse">
      <g class="cls-42"/>
    </mask>
    <radialGradient id="radial-gradient-3" cx="1780.49" cy="-1436.59" r="42.24" gradientTransform="matrix(0.71, -0.1, 0.02, 0.15, -1182.43, 540.58)" xlink:href="#radial-gradient"/>
    <filter id="luminosity-noclip-4" x="73.21" y="-11455" width="233.03" height="32766" filterUnits="userSpaceOnUse" color-interpolation-filters="sRGB">
      <feFlood flood-color="#fff" result="bg"/>
      <feBlend in="SourceGraphic" in2="bg"/>
    </filter>
    <mask id="mask-4" x="73.21" y="-11455" width="233.03" height="32766" maskUnits="userSpaceOnUse">
      <g class="cls-41"/>
    </mask>
    <radialGradient id="radial-gradient-4" cx="257.73" cy="-4699.79" r="41.15" gradientTransform="matrix(2.83, 0.56, -0.03, 0.15, -675.82, 588.98)" xlink:href="#radial-gradient"/>
    <filter id="luminosity-noclip-5" x="267.02" y="-11455" width="37.43" height="32766" filterUnits="userSpaceOnUse" color-interpolation-filters="sRGB">
      <feFlood flood-color="#fff" result="bg"/>
      <feBlend in="SourceGraphic" in2="bg"/>
    </filter>
    <mask id="mask-5" x="267.02" y="-11455" width="37.43" height="32766" maskUnits="userSpaceOnUse">
      <g class="cls-40"/>
    </mask>
    <radialGradient id="radial-gradient-5" cx="1977.04" cy="19860.39" r="41.15" gradientTransform="matrix(0.43, -2.19, 0.15, 0.03, -3484.47, 3895.93)" xlink:href="#radial-gradient"/>
    <linearGradient id="linear-gradient" x1="432.78" y1="371.11" x2="680.73" y2="371.11" gradientTransform="matrix(0.99, -0.14, 0.14, 0.99, -449.01, -120.41)" gradientUnits="userSpaceOnUse">
      <stop offset="0" stop-color="#939598"/>
      <stop offset="1" stop-color="#a7a9ac"/>
    </linearGradient>
    <filter id="luminosity-noclip-6" x="19.98" y="63" width="241.47" height="35.94" filterUnits="userSpaceOnUse" color-interpolation-filters="sRGB">
      <feFlood flood-color="#fff" result="bg"/>
      <feBlend in="SourceGraphic" in2="bg"/>
    </filter>
    <mask id="mask-6" x="19.98" y="63" width="241.47" height="35.94" maskUnits="userSpaceOnUse">
      <g class="cls-1">
        <path class="cls-2" d="M261.44,64.13C261,60.67,206.51,65.4,139.83,74.7S19.5,94.35,20,97.81s54.93-1.27,121.6-10.57S261.92,67.59,261.44,64.13Z"/>
      </g>
    </mask>
    <radialGradient id="radial-gradient-6" cx="629.13" cy="-1818.09" r="42.24" gradientTransform="matrix(2.86, -0.4, 0.02, 0.15, -1619.71, 601.55)" gradientUnits="userSpaceOnUse">
      <stop offset="0" stop-color="#666"/>
      <stop offset="0.19" stop-color="#7c7c7c"/>
      <stop offset="0.59" stop-color="#b3b3b3"/>
      <stop offset="1" stop-color="#f2f2f2"/>
    </radialGradient>
    <linearGradient id="linear-gradient-2" x1="504.43" y1="314.36" x2="434.05" y2="227.87" gradientTransform="translate(-402.68 -200.34)" gradientUnits="userSpaceOnUse">
      <stop offset="0" stop-color="#d1d3d4"/>
      <stop offset="0.59" stop-color="#f1f2f2"/>
    </linearGradient>
    <filter id="luminosity-noclip-7" x="77.02" y="88.29" width="15.11" height="60.44" filterUnits="userSpaceOnUse" color-interpolation-filters="sRGB">
      <feFlood flood-color="#fff" result="bg"/>
      <feBlend in="SourceGraphic" in2="bg"/>
    </filter>
    <mask id="mask-7" x="77.02" y="88.29" width="15.11" height="60.44" maskUnits="userSpaceOnUse">
      <g class="cls-3">
        <path class="cls-4" d="M88.79,148.72c3.46-.48,4.38-14.4,2-31.08s-7-29.82-10.48-29.33S76,102.7,78.3,119.39,85.32,149.2,88.79,148.72Z"/>
      </g>
    </mask>
    <radialGradient id="radial-gradient-7" cx="-3957.61" cy="11266.95" r="42.24" gradientTransform="matrix(0.1, 0.71, -0.15, 0.02, 2151.16, 2714.98)" xlink:href="#radial-gradient-6"/>
    <filter id="luminosity-noclip-8" x="30.67" y="142.32" width="60.44" height="15.11" filterUnits="userSpaceOnUse" color-interpolation-filters="sRGB">
      <feFlood flood-color="#fff" result="bg"/>
      <feBlend in="SourceGraphic" in2="bg"/>
    </filter>
    <mask id="mask-8" x="30.67" y="142.32" width="60.44" height="15.11" maskUnits="userSpaceOnUse">
      <g class="cls-5">
        <path class="cls-6" d="M91.09,145.66c-.48-3.46-14.4-4.38-31.08-2s-29.81,7-29.33,10.48,14.4,4.38,31.08,2S91.58,149.12,91.09,145.66Z"/>
      </g>
    </mask>
    <radialGradient id="radial-gradient-8" cx="1780.49" cy="-1436.59" r="42.24" gradientTransform="matrix(0.71, -0.1, 0.02, 0.15, -1182.43, 540.58)" xlink:href="#radial-gradient-6"/>
    <linearGradient id="linear-gradient-3" x1="488.62" y1="343.65" x2="461.55" y2="309.36" gradientTransform="matrix(0.99, -0.14, 0.14, 0.99, -449.01, -120.41)" gradientUnits="userSpaceOnUse">
      <stop offset="0" stop-color="#fff"/>
      <stop offset="0.77" stop-color="#f1f2f2"/>
      <stop offset="0.87" stop-color="#e6e7e8"/>
      <stop offset="1" stop-color="#d1d3d4"/>
    </linearGradient>
    <filter id="luminosity-noclip-9" x="33.39" y="-11455" width="35.6" height="32766" filterUnits="userSpaceOnUse" color-interpolation-filters="sRGB">
      <feFlood flood-color="#fff" result="bg"/>
      <feBlend in="SourceGraphic" in2="bg"/>
    </filter>
    <mask id="mask-9" x="33.39" y="-11455" width="35.6" height="32766" maskUnits="userSpaceOnUse">
      <g class="cls-39"/>
    </mask>
    <linearGradient id="linear-gradient-4" x1="-636.39" y1="-62.88" x2="-394.88" y2="-62.88" gradientTransform="translate(667 289.42) rotate(11.14)" xlink:href="#linear-gradient"/>
    <filter id="luminosity-noclip-10" x="73.21" y="18.07" width="233.03" height="47.46" filterUnits="userSpaceOnUse" color-interpolation-filters="sRGB">
      <feFlood flood-color="#fff" result="bg"/>
      <feBlend in="SourceGraphic" in2="bg"/>
    </filter>
    <mask id="mask-10" x="73.21" y="18.07" width="233.03" height="47.46" maskUnits="userSpaceOnUse">
      <g class="cls-7">
        <path class="cls-8" d="M306.23,64.74c.65-3.35-51-16.33-115.32-29s-117-20.24-117.7-16.89,51,16.31,115.32,29S305.57,68.07,306.23,64.74Z"/>
      </g>
    </mask>
    <radialGradient id="radial-gradient-9" cx="257.73" cy="-4699.79" r="41.15" gradientTransform="matrix(2.83, 0.56, -0.03, 0.15, -675.82, 588.98)" xlink:href="#radial-gradient-6"/>
    <filter id="luminosity-noclip-11" x="267.02" y="59.53" width="37.43" height="179.86" filterUnits="userSpaceOnUse" color-interpolation-filters="sRGB">
      <feFlood flood-color="#fff" result="bg"/>
      <feBlend in="SourceGraphic" in2="bg"/>
    </filter>
    <mask id="mask-11" x="267.02" y="59.53" width="37.43" height="179.86" maskUnits="userSpaceOnUse">
      <g class="cls-9">
        <path class="cls-10" d="M303.44,59.53c-3.34-.65-14,39.08-23.76,88.74s-15,90.45-11.65,91.11,14-39.07,23.75-88.73S306.78,60.19,303.44,59.53Z"/>
      </g>
    </mask>
    <radialGradient id="radial-gradient-10" cx="1977.04" cy="19860.39" r="41.15" gradientTransform="matrix(0.43, -2.19, 0.15, 0.03, -3484.47, 3895.93)" xlink:href="#radial-gradient-6"/>
  </defs>
  <g class="cls-11">
    <g id="Layer_1" data-name="Layer 1">
      <g>
        <path class="cls-12" d="M282.62,197.5c.05-.23.09-.45.14-.69,10.36-52.63,27-137.79,27-137.79L72.91,12.38l-1,5.15-3.14-.61L69,15.36s-.21.52-.57,1.49l-1.28-.25-1.69,8.57A530.31,530.31,0,0,0,48.56,87.3l-31,4.33L18.26,97l-4.93.69,8.48,60.76h0l17.46,125.2,4.93-.69h0l242.49-33.82s3.91,5.57-3.7-49C282.87,199.27,282.75,198.39,282.62,197.5Z"/>
        <g id="newspaper">
          <g>
            <g>
              <path class="cls-13" d="M286.69,249.11s3.91,5.57-3.7-49S263,57.39,263,57.39L17.52,91.63,44.2,282.93Z"/>
              <g class="cls-14">
                <path class="cls-15" d="M261.44,64.13C261,60.67,206.51,65.4,139.83,74.7S19.5,94.35,20,97.81s54.93-1.27,121.6-10.57S261.92,67.59,261.44,64.13Z"/>
              </g>
              <g>
                <rect class="cls-16" x="25.11" y="79.5" width="249.82" height="187.77" transform="translate(-22.51 22.38) rotate(-7.94)"/>
                <polygon class="cls-17" points="286.69 249.11 39.27 283.62 21.81 158.42 61 129.12 81.97 88.08 260.75 63.15 286.69 249.11"/>
                <g>
                  <g class="cls-18">
                    <path class="cls-19" d="M88.79,148.72c3.46-.48,4.38-14.4,2-31.08s-7-29.82-10.48-29.33S76,102.7,78.3,119.39,85.32,149.2,88.79,148.72Z"/>
                  </g>
                  <g class="cls-20">
                    <path class="cls-21" d="M91.09,145.66c-.48-3.46-14.4-4.38-31.08-2s-29.81,7-29.33,10.48,14.4,4.38,31.08,2S91.58,149.12,91.09,145.66Z"/>
                  </g>
                  <polygon class="cls-22" points="81.97 88.08 90.44 148.85 21.81 158.42 81.97 88.08"/>
                </g>
                <g>
                  <rect class="cls-23" x="213.37" y="67.05" width="42.09" height="47.19" transform="translate(-10.27 33.25) rotate(-7.94)"/>
                  <g>
                    <path class="cls-24" d="M226.53,106.67l-.63.09c-1,.14-2.13.67-2,1.68l.09.64c.14,1,1.4,1.52,2.42,1.38l.63-.09a1.88,1.88,0,0,0,1.76-2l-.09-.63C228.58,106.76,227.54,106.53,226.53,106.67Z"/>
                    <path class="cls-24" d="M230.63,101.58l-.63.08c-1,.15-1.65.75-1.51,1.76l.69,4.93a1.64,1.64,0,0,0,1.95,1.45l.64-.09c1-.14,2-1,1.85-2l-.69-4.93C232.79,101.79,231.65,101.43,230.63,101.58Z"/>
                    <path class="cls-24" d="M235.35,97.15l-.48.06a2.11,2.11,0,0,0-1.65,2.28l1.13,8.08a1.87,1.87,0,0,0,2.17,1.48L237,109a1.64,1.64,0,0,0,1.42-2l-1.13-8.08A1.87,1.87,0,0,0,235.35,97.15Z"/>
                    <rect class="cls-24" x="238.27" y="92.38" width="4.1" height="16.06" rx="1.85" transform="translate(-11.55 34.09) rotate(-7.92)"/>
                    <path class="cls-24" d="M243.9,87.28l-.38,0A1.9,1.9,0,0,0,242,89.51L244.32,106a1.86,1.86,0,0,0,2,1.65l.37-.05a2,2,0,0,0,1.65-2.17L246.08,89A2,2,0,0,0,243.9,87.28Z"/>
                    <path class="cls-24" d="M244,75.92a1.48,1.48,0,0,0-1.92-.43l-6,3.31a1.46,1.46,0,1,0,1.41,2.56l2.27-1.27C233.83,91.35,223,97.27,222.84,97.34a1.46,1.46,0,0,0,.89,2.74,2.07,2.07,0,0,0,.55-.17,50.62,50.62,0,0,0,17.53-17.23L242,84a1.7,1.7,0,0,0,3.33-.46l-.94-6.76h0A1.82,1.82,0,0,0,244,75.92Z"/>
                  </g>
                  <rect class="cls-24" x="214.34" y="74.46" width="35.28" height="0.64" transform="translate(-8.11 32.76) rotate(-7.94)"/>
                  <text class="cls-25" transform="translate(214.67 75.81) rotate(-7.94)">N<tspan class="cls-26" x="4.09" y="0">o</tspan><tspan class="cls-27" x="7.27" y="0">.</tspan></text>
                  <rect class="cls-24" x="217.78" y="120.59" width="0.35" height="7.37" transform="translate(-15.09 31.33) rotate(-7.95)"/>
                </g>
              </g>
              <g>
                <g>
                  <rect class="cls-23" x="115.04" y="155.17" width="0.81" height="112.82" transform="matrix(0.99, -0.14, 0.14, 0.99, -28.12, 17.97)"/>
                  <rect class="cls-23" x="192.72" y="144.33" width="0.81" height="112.82" transform="matrix(0.99, -0.14, 0.14, 0.99, -25.77, 28.46)"/>
                </g>
                <rect class="cls-23" x="124.27" y="232.86" width="68.09" height="0.4" transform="translate(-30.68 24.1) rotate(-7.94)"/>
              </g>
              <rect class="cls-23" x="194.75" y="138.96" width="69.51" height="51.98" transform="translate(-20.59 33.28) rotate(-7.94)"/>
              <g>
                <rect class="cls-23" x="35.21" y="174.15" width="67.84" height="0.53" transform="translate(-23.43 11.22) rotate(-7.94)"/>
                <rect class="cls-23" x="39.89" y="176.22" width="67.69" height="67.15" transform="translate(-28.27 12.2) rotate(-7.94)"/>
              </g>
              <g>
                <g>
                  <path class="cls-28" d="M223.64,151.07a17.84,17.84,0,1,0,20.13,15.2A17.84,17.84,0,0,0,223.64,151.07Zm4.29,30.75a13.21,13.21,0,1,1,11.26-14.91A13.21,13.21,0,0,1,227.93,181.82Z"/>
                  <path class="cls-28" d="M224.94,160.4a8.42,8.42,0,1,0,9.51,7.18A8.41,8.41,0,0,0,224.94,160.4Zm1.66,11.86a3.55,3.55,0,1,1,3-4A3.56,3.56,0,0,1,226.6,172.26Z"/>
                </g>
                <g>
                  <polygon class="cls-28" points="237.3 153.76 235.26 149 241.56 140.67 243.6 145.42 237.3 153.76"/>
                  <polygon class="cls-28" points="237.29 153.75 242.42 154.41 248.72 146.07 243.59 145.41 237.29 153.75"/>
                </g>
                <rect class="cls-28" x="220.21" y="156.67" width="27.08" height="3.55" transform="translate(-33.53 249.56) rotate(-52.95)"/>
              </g>
            </g>
            <g>
              <g class="cls-29">
                <path class="cls-30" d="M69,15.36s-14.9,38-23.73,89.25-11.87,91.76-11.87,91.76a755.94,755.94,0,0,0,21-89.73C63.18,55.34,69,15.36,69,15.36Z"/>
              </g>
              <g>
                <path class="cls-31" d="M270.57,243.07s1.83,6.37,12.19-46.26S309.79,59,309.79,59L72.91,12.38,36.56,197Z"/>
                <g class="cls-32">
                  <path class="cls-33" d="M306.23,64.74c.65-3.35-51-16.33-115.32-29s-117-20.24-117.7-16.89,51,16.31,115.32,29S305.57,68.07,306.23,64.74Z"/>
                </g>
                <g class="cls-34">
                  <path class="cls-35" d="M303.44,59.53c-3.34-.65-14,39.08-23.76,88.74s-15,90.45-11.65,91.11,14-39.07,23.75-88.73S306.78,60.19,303.44,59.53Z"/>
                </g>
                <g>
                  <rect class="cls-17" x="77.4" y="8.16" width="182.91" height="243.35" transform="translate(8.85 270.43) rotate(-78.86)"/>
                  <polygon class="cls-28" points="270.57 243.07 31.81 196.06 55.59 75.24 101 60.74 133.38 29.64 305.91 63.61 270.57 243.07"/>
                  <polygon class="cls-30" points="133.38 29.64 121.83 88.28 55.59 75.24 133.38 29.64"/>
                  <g>
                    <rect class="cls-23" x="249.92" y="60.04" width="45.97" height="41" transform="translate(141.17 332.74) rotate(-78.86)"/>
                    <rect class="cls-23" x="204.38" y="18.73" width="8.83" height="159.57" transform="translate(71.8 284.34) rotate(-78.86)"/>
                    <rect class="cls-23" x="206.96" y="25.23" width="1.1" height="159.57" transform="translate(64.39 288.33) rotate(-78.86)"/>
                    <g>
                      <path class="cls-24" d="M260.54,92.78l-.61-.12c-1-.19-2.17-.06-2.36.91l-.12.62c-.19,1,.8,1.85,1.78,2l.61.12a1.82,1.82,0,0,0,2.25-1.25l.12-.61C262.4,93.52,261.52,93,260.54,92.78Z"/>
                      <path class="cls-24" d="M265.94,89.4l-.61-.12a1.47,1.47,0,0,0-1.95,1.13l-.93,4.76a1.59,1.59,0,0,0,1.33,2l.62.12A1.92,1.92,0,0,0,266.73,96l.94-4.77C267.86,90.28,266.92,89.59,265.94,89.4Z"/>
                      <path class="cls-24" d="M271.7,86.82l-.47-.09A2,2,0,0,0,269,88.3l-1.54,7.8A1.84,1.84,0,0,0,269,98.16l.47.09a1.6,1.6,0,0,0,1.93-1.38l1.53-7.79A1.83,1.83,0,0,0,271.7,86.82Z"/>
                      <path class="cls-24" d="M278.36,85.9a1.8,1.8,0,0,0-1.42-2.12l-.39-.08a1.8,1.8,0,0,0-2.11,1.42l-2.33,11.82a1.8,1.8,0,0,0,1.42,2.11l.39.08A1.8,1.8,0,0,0,276,97.71Z"/>
                      <path class="cls-24" d="M282.7,80.46l-.36-.07a1.85,1.85,0,0,0-2.08,1.53l-3.14,15.94a1.81,1.81,0,0,0,1.36,2.16l.36.08a1.93,1.93,0,0,0,2.2-1.47l3.14-15.94A2,2,0,0,0,282.7,80.46Z"/>
                      <path class="cls-24" d="M286.41,70a1.44,1.44,0,0,0-1.63-1l-6.56,1.15a1.42,1.42,0,0,0,0,2.8,1.3,1.3,0,0,0,.52,0l2.49-.44C272.14,81,260.25,83,260.12,83a1.43,1.43,0,0,0-1.18,1.64,1.41,1.41,0,0,0,1.13,1.17,1.74,1.74,0,0,0,.56,0,49.21,49.21,0,0,0,21.62-10.28L282,76.87a1.66,1.66,0,0,0,3.22.63L286.49,71h0A1.77,1.77,0,0,0,286.41,70Z"/>
                    </g>
                    <rect class="cls-24" x="275.4" y="47.97" width="0.62" height="34.37" transform="translate(158.52 323.09) rotate(-78.86)"/>
                    <rect class="cls-24" x="243.46" y="106.08" width="7.18" height="0.35" transform="translate(95.14 328.17) rotate(-78.88)"/>
                  </g>
                </g>
                <g>
                  <g>
                    <rect class="cls-23" x="69.92" y="153.6" width="109.9" height="0.78" transform="translate(-50.28 246.88) rotate(-78.9)"/>
                    <rect class="cls-23" x="144.89" y="168.36" width="109.9" height="0.78" transform="translate(-4.25 332.34) rotate(-78.89)"/>
                  </g>
                  <rect class="cls-23" x="157.3" y="154.25" width="0.39" height="66.33" transform="translate(-56.81 305.74) rotate(-78.86)"/>
                </g>
                <rect class="cls-23" x="219.4" y="113.53" width="50.63" height="67.71" transform="translate(52.83 359.02) rotate(-78.86)"/>
                <g>
                  <rect class="cls-23" x="93.81" y="71.98" width="0.52" height="66.09" transform="translate(-27.16 177.03) rotate(-78.86)"/>
                  <rect class="cls-23" x="54.33" y="106.1" width="65.42" height="65.94" transform="translate(-66.23 197.61) rotate(-78.86)"/>
                  <rect class="cls-36" x="128.54" y="113.28" width="72.57" height="65.94" transform="translate(-10.51 279.72) rotate(-78.86)"/>
                  <rect class="cls-36" x="208.08" y="168.42" width="51.81" height="65.94" transform="translate(-8.82 392.07) rotate(-78.86)"/>
                  <rect class="cls-36" x="64.8" y="155.52" width="23.37" height="65.94" transform="translate(-123.23 227.12) rotate(-78.86)"/>
                </g>
                <g>
                  <g>
                    <path class="cls-28" d="M243.75,132.74a17.37,17.37,0,1,0,13.69,20.4A17.39,17.39,0,0,0,243.75,132.74Zm-5.85,29.68A12.87,12.87,0,1,1,253,152.28,12.88,12.88,0,0,1,237.9,162.42Z"/>
                    <path class="cls-28" d="M242,141.74a8.2,8.2,0,1,0,6.47,9.63A8.2,8.2,0,0,0,242,141.74Zm-2.25,11.44a3.46,3.46,0,1,1,4.06-2.72A3.46,3.46,0,0,1,239.72,153.18Z"/>
                  </g>
                  <g>
                    <polygon class="cls-28" points="255.47 139.56 255.1 134.53 263.55 128.86 263.92 133.89 255.47 139.56"/>
                    <polygon class="cls-28" points="255.46 139.55 259.97 141.79 268.42 136.12 263.91 133.88 255.46 139.55"/>
                  </g>
                  <rect class="cls-28" x="237.52" y="141.02" width="26.38" height="3.46" transform="translate(-37.01 163.99) rotate(-33.88)"/>
                </g>
              </g>
            </g>
          </g>
          <g class="cls-37">
            <g>
              <path d="M147.63,52.72l.14-.29a8.84,8.84,0,0,1,5.35-.81c2.53.51,3.84,1.83,5,4.36a6.52,6.52,0,0,1,.62,4.2A4.87,4.87,0,0,1,157,62.85a7.43,7.43,0,0,1,.74,1.23c.29.46,1.19.71,2.09.9a7.05,7.05,0,0,0,3.69-.32l1.37-6.79-3.37-.68-.88-3.26.39-.35,10.71,2.16.87,3.26-.38.35-3.77-.76L164.68,77.8l-.35.15-3.26-1.69,1.52-7.19a4.85,4.85,0,0,1-.75-.11,6.56,6.56,0,0,1-3.06-1.56l-.18,0a7.66,7.66,0,0,1-.15,1.61c-.6,3-3.46,4.75-6.77,4.09-4.39-.89-7.12-5.33-9-12.1l.08-.19,1.8-.76c1.61,5.07,2.92,8.06,6.53,8.79,1.86.38,4.37-.56,4.8-2.68.23-1.12-.28-2-1.77-2.27a12.13,12.13,0,0,0-4.23.2l-1.5-3.83.21-.39a30.2,30.2,0,0,1,4.91-.31c1.54-.28,2.47-1,2.68-2,.15-.76,0-1.56-1.67-1.89a10.52,10.52,0,0,0-5.39.83Z"/>
              <path d="M171,56l.39-.35,27.59,5.56.87,3.26-.39.35-3.76-.76-3.78,19.21-.35.16-3.24-1.69L189.34,77a4.49,4.49,0,0,1-2.22.07,8,8,0,0,1-4.5-3.13A7.28,7.28,0,0,1,181,68.21c.58-2.86,2.9-4.46,6.3-3.77a13.3,13.3,0,0,1,4.23,1.68l.56-2.77-11.38-2.29a28.51,28.51,0,0,1-.46,3.17A9.49,9.49,0,0,1,175.61,71c1.81,2.62,5,8.45,14.45,8.6l1.47,3.89a24.69,24.69,0,0,1-10.47-1.74c-2.05-.87-8.24-9.42-9.7-14a3.29,3.29,0,0,1-.09-1.34,2.14,2.14,0,0,1,.87-1.31,2.41,2.41,0,0,1,1.85-.15c.52.11,1,.22,1.7.41A7,7,0,0,0,177,62.11c.11-.58.18-1.15.24-1.75l-5.41-1.09Zm20.1,12.65a9.46,9.46,0,0,0-1.6-.43c-2.38-.48-5,.48-5.41,2.6-.26,1.32.44,2.32,2,2.64a4.58,4.58,0,0,0,2.81-.33A2.64,2.64,0,0,0,190.59,71Z"/>
              <path d="M198.16,61.49l.39-.35,20.51,4.14.87,3.26-.38.35-3.77-.76L212,87.34l-.35.16-3.24-1.69,1-4.49a8.07,8.07,0,0,1-4.31.3,7.86,7.86,0,0,1-5.56-4.49,7.28,7.28,0,0,1-.91-4.71c.57-2.86,3.19-4.81,7.69-3.9a22.77,22.77,0,0,1,5.29,1.9l.61-3L199,64.75Zm6,10.87A3.49,3.49,0,0,0,201.65,75c-.24,1.19.64,2.52,2.89,3a7.67,7.67,0,0,0,2,.14Zm4.34,5.37a3,3,0,0,0,2.18-2.3l.43-2.15a15.56,15.56,0,0,0-3.17-1,12.07,12.07,0,0,0-1.76-.22Z"/>
              <path d="M218.28,65.55l.39-.35,9.65,2,.87,3.26-.38.35L225,70l-3.78,19.21-.35.15-3.28-1.72,3.8-18.37-2.27-.46Z"/>
              <path d="M227.54,67.42l.39-.35,15.51,3.13.87,3.26-.38.35-5-1a14.23,14.23,0,0,1-.3,2.71,8.47,8.47,0,0,1-6.34,7.09,27.2,27.2,0,0,0,6.92,6.91l-2.41,3.35-.32-.07c-3.75-4.18-6.51-8.36-7.8-12.58a5.68,5.68,0,0,1-.37-2.4,2.31,2.31,0,0,1,.61-1.13,2.27,2.27,0,0,1,2.22-.5c1,.2,2,.42,2.66.62a5.28,5.28,0,0,0,1.45-3,6.59,6.59,0,0,0,.16-1.68l-7-1.41Z"/>
            </g>
          </g>
          <circle class="cls-38" cx="172.25" cy="77.38" r="2.08"/>
        </g>
      </g>
    </g>
  </g>
</svg>
