<svg id="Layer_1" data-name="Layer 1" xmlns="http://www.w3.org/2000/svg" width="623" height="456" viewBox="0 0 623 456">
  <defs>
    <style>
      .cls-1 {
        fill: #8d8e8d;
      }

      .cls-2 {
        fill: #ff0;
      }

      .cls-3 {
        fill: #8436ff;
      }
    </style>
  </defs>
  <g>
    <g>
      <path class="cls-1" d="M433,90.35H189.6l.05,28.68h49.24V236.34q0,22.53,16.46,33.79l140.8,93.73c9.17,5.39,31.92-2.44,20.63-9.2l-139.24-95.2q-2.66-1.54-4.77-7.69A36.17,36.17,0,0,1,270.65,240V119h84.72v94.42a14.65,14.65,0,0,1-14.83,14.68s.88,26.56,7.94,27.41c7,.38,16.81-4.42,21.59-6.47,8.74-3.75,17.06-9.15,17.06-23.16V119H433.4Z"/>
      <path class="cls-2" d="M436.76,90.3A3.75,3.75,0,0,0,433,86.6H189.6a3.74,3.74,0,0,0-3.74,3.75l0,28.69a3.75,3.75,0,0,0,3.75,3.74h45.49V236.34c0,16.26,6.09,28.67,18.13,36.91L394.07,367l.18.11a19.74,19.74,0,0,0,9.93,2.31c6.92,0,17.45-2.82,19.19-9.11.43-1.55.84-5.5-4.56-8.78L279.65,256.36l-.23-.15c-.15-.08-1.5-1-3.11-5.66A32.5,32.5,0,0,1,274.4,240V122.78h77.22v90.67a10.93,10.93,0,0,1-11.08,10.94,3.74,3.74,0,0,0-2.69,1.14,3.7,3.7,0,0,0-1.05,2.73,120.24,120.24,0,0,0,1.36,13.86c1.15,7,3.41,16.36,9.88,17.14l.24,0c.33,0,.67,0,1,0,6.86,0,15-3.61,20.44-6l1.82-.79c9.56-4.11,19.33-10.48,19.33-26.61V122.78H433.4a3.76,3.76,0,0,0,3.74-3.8ZM387.13,119V225.91c0,14-8.32,19.41-17.06,23.16-4.78,2.05-14.62,6.85-21.59,6.47-7.06-.85-7.94-27.41-7.94-27.41a14.65,14.65,0,0,0,14.83-14.68V119H270.65V240a36.17,36.17,0,0,0,2.12,11.78q2.12,6.15,4.77,7.69l139.24,95.2c11.29,6.76-11.46,14.59-20.63,9.2l-140.8-93.73q-16.47-11.26-16.46-33.79V119H189.65l-.05-28.68H433L433.4,119Z"/>
    </g>
    <path class="cls-3" d="M433,90.35H189.6l.05,28.68h49.24V236.34q0,22.53,16.46,33.79l140.8,93.73c9.17,5.39,31.92-2.44,20.63-9.2l-139.24-95.2q-2.66-1.54-4.77-7.69A36.17,36.17,0,0,1,270.65,240V119h84.72v94.42a14.65,14.65,0,0,1-14.83,14.68s.88,26.56,7.94,27.41c7,.38,16.81-4.42,21.59-6.47,8.74-3.75,17.06-9.15,17.06-23.16V119H433.4Z"/>
  </g>
</svg>
