<svg id="Layer_1" data-name="Layer 1" xmlns="http://www.w3.org/2000/svg" width="546.89" height="634.21" viewBox="0 0 546.89 634.21">
  <defs>
    <style>
      .cls-1 {
        fill: #fff;
      }

      .cls-2, .cls-24, .cls-27 {
        fill: none;
      }

      .cls-10, .cls-2, .cls-26, .cls-8 {
        stroke: #323232;
      }

      .cls-10, .cls-2, .cls-24, .cls-26, .cls-3, .cls-5, .cls-8 {
        stroke-miterlimit: 10;
      }

      .cls-2 {
        stroke-width: 0.25px;
      }

      .cls-3 {
        fill: #fbd3c7;
        stroke: #453323;
      }

      .cls-4 {
        fill: #453323;
      }

      .cls-5 {
        fill: #dd0a0a;
      }

      .cls-24, .cls-5 {
        stroke: #353535;
      }

      .cls-6 {
        fill: #353535;
      }

      .cls-7 {
        fill: #0a2c2d;
        opacity: 0.22;
      }

      .cls-10, .cls-8 {
        fill: #f9d1c6;
      }

      .cls-11, .cls-9 {
        fill: #db9d8e;
      }

      .cls-9 {
        opacity: 0.63;
      }

      .cls-10 {
        stroke-width: 0.75px;
      }

      .cls-12 {
        fill: #342517;
      }

      .cls-13 {
        fill: #561211;
      }

      .cls-14 {
        fill: #c28974;
      }

      .cls-15 {
        fill: #dd9f8f;
      }

      .cls-16 {
        fill: #f3eae3;
      }

      .cls-17 {
        fill: #4f3317;
      }

      .cls-18 {
        fill: #451f16;
      }

      .cls-19 {
        fill: #e8194e;
      }

      .cls-20 {
        fill: #bc7757;
      }

      .cls-21 {
        fill: #effca5;
      }

      .cls-22 {
        fill: #f1ffa4;
      }

      .cls-23 {
        fill: #e0f088;
      }

      .cls-25 {
        fill: #0013fc;
      }

      .cls-26 {
        fill: #fad2c6;
      }

      .cls-28 {
        fill: #fcc7a3;
      }
    </style>
  </defs>
  <g>
    <g>
      <g>
        <g>
          <path class="cls-1" d="M279.78,590.72a12.85,12.85,0,0,1-7.91-2.72,12.85,12.85,0,0,1-7.91,2.72h-96A12.88,12.88,0,0,1,160,588a12.75,12.75,0,0,1-7,2.69h-.35a5,5,0,0,1-3.76-1.7,5,5,0,0,1-1.14-4.28c2.85-14.25,5.31-29.25,7.28-44.58,3.48-27,4.91-50.29,5.49-65.39l-1.75,2.87-6,9.49-5.53,8.74a5,5,0,0,1-8.1.48l-9,17.7a224.56,224.56,0,0,1-14.41,43.75,5,5,0,0,1-4.58,3H51.32A5,5,0,0,1,46.38,555c4.09-26.39,10-48.83,17.63-66.69a4.32,4.32,0,0,1,.26-.68l.54-1.17c.92-2.08,1.87-4.12,2.83-6.05l24.84-53.29a5,5,0,0,1,.3-4.58,203.9,203.9,0,0,1,17.06-24.15,199.35,199.35,0,0,1,46.64-41.73,175.35,175.35,0,0,1,54-22.14,5,5,0,0,1,1.81-2.4l2.94-2.09c-25.85-13.58-43.88-33.6-50.47-56.17-10.1-1.22-19.55-8.6-25.72-20.27-5.71-10.8-12.39-31.87-6-42.46a12.68,12.68,0,0,1,8.08-5.93c-6.91-17.13-12.46-39.13-9.07-71.32,1.46-13.84,4.09-24.59,7.2-32.91a5.13,5.13,0,0,1-2.48.65,4.93,4.93,0,0,1-2-.44A5,5,0,0,1,132,95.26c10.91-38.37,31-44.1,42-44.1a31.58,31.58,0,0,1,5.24.43C197.66,13.09,256.52,9.22,274.62,9l1.68,0C340,9,373,57.75,374.35,59.82a5,5,0,0,1-6.21,7.33c-1.07-.48-2.11-.94-3.11-1.37,29.35,36.18,26.44,80.1,26.28,82.23a5,5,0,0,1-4.55,4.6l-.22,0a207.79,207.79,0,0,1-.07,31.82c0,.11,0,.22-.05.33-.09.59-.2,1.21-.32,1.86a21.25,21.25,0,0,1,3.23-.25,14.35,14.35,0,0,1,12.51,6.54c7,10.54,2.77,30.48-1.78,41.31C395,246.39,385.66,255,374.77,258c-5.9,29.32-31,55-54.12,70.4l9.66,8.86c22.62,6.28,42.54,15.95,59.21,28.74a5.31,5.31,0,0,1,1.06,1.11l43.73,62.77.11.16,10.14,14.55a5.15,5.15,0,0,1,.53,1,5,5,0,0,1-1.15,5.47s-.37.36-1,.95c2,2.16,4.11,4.45,6.18,6.86,13.72,15.87,27.51,36.36,41,60.91l21.75,39.46a5,5,0,0,1-1.53,6.51L490,579.83a5,5,0,0,1-2.86.9h-18a5,5,0,0,1-2.85-.89c-20.16-14-57.45-42.78-81.48-79.55l-1.74-1.54-1.06,86.93a5,5,0,0,1-4.29,4.89,14.14,14.14,0,0,1-2,.15Z"/>
          <path class="cls-2" d="M279.78,590.72a12.85,12.85,0,0,1-7.91-2.72,12.85,12.85,0,0,1-7.91,2.72h-96A12.88,12.88,0,0,1,160,588a12.75,12.75,0,0,1-7,2.69h-.35a5,5,0,0,1-3.76-1.7,5,5,0,0,1-1.14-4.28c2.85-14.25,5.31-29.25,7.28-44.58,3.48-27,4.91-50.29,5.49-65.39l-1.75,2.87-6,9.49-5.53,8.74a5,5,0,0,1-8.1.48l-9,17.7a224.56,224.56,0,0,1-14.41,43.75,5,5,0,0,1-4.58,3H51.32A5,5,0,0,1,46.38,555c4.09-26.39,10-48.83,17.63-66.69a4.32,4.32,0,0,1,.26-.68l.54-1.17c.92-2.08,1.87-4.12,2.83-6.05l24.84-53.29a5,5,0,0,1,.3-4.58,203.9,203.9,0,0,1,17.06-24.15,199.35,199.35,0,0,1,46.64-41.73,175.35,175.35,0,0,1,54-22.14,5,5,0,0,1,1.81-2.4l2.94-2.09c-25.85-13.58-43.88-33.6-50.47-56.17-10.1-1.22-19.55-8.6-25.72-20.27-5.71-10.8-12.39-31.87-6-42.46a12.68,12.68,0,0,1,8.08-5.93c-6.91-17.13-12.46-39.13-9.07-71.32,1.46-13.84,4.09-24.59,7.2-32.91a5.13,5.13,0,0,1-2.48.65,4.93,4.93,0,0,1-2-.44A5,5,0,0,1,132,95.26c10.91-38.37,31-44.1,42-44.1a31.58,31.58,0,0,1,5.24.43C197.66,13.09,256.52,9.22,274.62,9l1.68,0C340,9,373,57.75,374.35,59.82a5,5,0,0,1-6.21,7.33c-1.07-.48-2.11-.94-3.11-1.37,29.35,36.18,26.44,80.1,26.28,82.23a5,5,0,0,1-4.55,4.6l-.22,0a207.79,207.79,0,0,1-.07,31.82c0,.11,0,.22-.05.33-.09.59-.2,1.21-.32,1.86a21.25,21.25,0,0,1,3.23-.25,14.35,14.35,0,0,1,12.51,6.54c7,10.54,2.77,30.48-1.78,41.31C395,246.39,385.66,255,374.77,258c-5.9,29.32-31,55-54.12,70.4l9.66,8.86c22.62,6.28,42.54,15.95,59.21,28.74a5.31,5.31,0,0,1,1.06,1.11l43.73,62.77.11.16,10.14,14.55a5.15,5.15,0,0,1,.53,1,5,5,0,0,1-1.15,5.47s-.37.36-1,.95c2,2.16,4.11,4.45,6.18,6.86,13.72,15.87,27.51,36.36,41,60.91l21.75,39.46a5,5,0,0,1-1.53,6.51L490,579.83a5,5,0,0,1-2.86.9h-18a5,5,0,0,1-2.85-.89c-20.16-14-57.45-42.78-81.48-79.55l-1.74-1.54-1.06,86.93a5,5,0,0,1-4.29,4.89,14.14,14.14,0,0,1-2,.15Z"/>
        </g>
        <g>
          <path class="cls-1" d="M516.07,537.39a4.51,4.51,0,0,1-4.24-2.68c-.67-.66-4.3-3.62-15.21-3.62-1.38,0-2.85,0-4.35.14h-.72c-4.77-.38-8.34-2.94-9.78-7-1.32-3.7-.64-8.23.74-11.69a10.53,10.53,0,0,1-3.42-3.55,14.33,14.33,0,0,1-1.47-9.31,10.45,10.45,0,0,1-4.18-3.37c-2.43-3.29-2.82-7.62-2.48-11.14a11.08,11.08,0,0,1-2.86-3.76c-2.17-4.53-1.89-11-.28-13.92,1.88-3.43,10.23-13.22,23.56-13.22a29.76,29.76,0,0,1,4.19.31c8.29,1.24,13.66,7.23,15,16.59,5,3.86,7.5,10.18,7.29,18.22,5.7,5.37,7.24,13.74,4.3,23.62,4.21,9-.72,19.47-.95,20a3.72,3.72,0,0,1-.21.39c-.23.56-.39.88-.39.88a5.15,5.15,0,0,1-4.39,3.16Zm-4.31-2.85"/>
          <path class="cls-2" d="M516.07,537.39a4.51,4.51,0,0,1-4.24-2.68c-.67-.66-4.3-3.62-15.21-3.62-1.38,0-2.85,0-4.35.14h-.72c-4.77-.38-8.34-2.94-9.78-7-1.32-3.7-.64-8.23.74-11.69a10.53,10.53,0,0,1-3.42-3.55,14.33,14.33,0,0,1-1.47-9.31,10.45,10.45,0,0,1-4.18-3.37c-2.43-3.29-2.82-7.62-2.48-11.14a11.08,11.08,0,0,1-2.86-3.76c-2.17-4.53-1.89-11-.28-13.92,1.88-3.43,10.23-13.22,23.56-13.22a29.76,29.76,0,0,1,4.19.31c8.29,1.24,13.66,7.23,15,16.59,5,3.86,7.5,10.18,7.29,18.22,5.7,5.37,7.24,13.74,4.3,23.62,4.21,9-.72,19.47-.95,20a3.72,3.72,0,0,1-.21.39c-.23.56-.39.88-.39.88a5.15,5.15,0,0,1-4.39,3.16Zm-4.31-2.85"/>
        </g>
        <g>
          <path class="cls-1" d="M28.09,535.26a5.14,5.14,0,0,1-4.39-3.17c0-.08-.18-.38-.39-.88a2.42,2.42,0,0,1-.21-.39c-.23-.48-5.16-10.94-1-20-2.94-9.87-1.4-18.25,4.3-23.61-.21-8.05,2.33-14.37,7.29-18.23,1.35-9.36,6.73-15.35,15-16.58a28.35,28.35,0,0,1,4.19-.32c13.34,0,21.68,9.79,23.56,13.22,1.61,2.95,1.89,9.39-.28,13.92A11.08,11.08,0,0,1,73.36,483c.34,3.52,0,7.85-2.47,11.14a10.55,10.55,0,0,1-4.19,3.37,14.32,14.32,0,0,1-1.47,9.31,10.64,10.64,0,0,1-3.42,3.56c1.38,3.45,2.06,8,.74,11.68-1.44,4.07-5,6.62-9.78,7l-.4,0h-.32c-1.51-.1-3-.15-4.35-.15-10.92,0-14.54,3-15.21,3.63a4.51,4.51,0,0,1-4.25,2.68Z"/>
          <path class="cls-2" d="M28.09,535.26a5.14,5.14,0,0,1-4.39-3.17c0-.08-.18-.38-.39-.88a2.42,2.42,0,0,1-.21-.39c-.23-.48-5.16-10.94-1-20-2.94-9.87-1.4-18.25,4.3-23.61-.21-8.05,2.33-14.37,7.29-18.23,1.35-9.36,6.73-15.35,15-16.58a28.35,28.35,0,0,1,4.19-.32c13.34,0,21.68,9.79,23.56,13.22,1.61,2.95,1.89,9.39-.28,13.92A11.08,11.08,0,0,1,73.36,483c.34,3.52,0,7.85-2.47,11.14a10.55,10.55,0,0,1-4.19,3.37,14.32,14.32,0,0,1-1.47,9.31,10.64,10.64,0,0,1-3.42,3.56c1.38,3.45,2.06,8,.74,11.68-1.44,4.07-5,6.62-9.78,7l-.4,0h-.32c-1.51-.1-3-.15-4.35-.15-10.92,0-14.54,3-15.21,3.63a4.51,4.51,0,0,1-4.25,2.68Z"/>
        </g>
      </g>
      <g>
        <path class="cls-1" d="M284.24,625.18a17.13,17.13,0,0,1-11.2-4,17.13,17.13,0,0,1-11.2,4h-.23A898,898,0,0,1,152,617a17.33,17.33,0,0,1-10.74-5.68,16.84,16.84,0,0,1-9,2.52,18.13,18.13,0,0,1-2.94-.24A895.89,895.89,0,0,1,21.45,589.09,17.27,17.27,0,0,1,11,580.87a13.68,13.68,0,0,1-1.12-10.59L41.27,468.35A14.72,14.72,0,0,1,55.46,458a15.24,15.24,0,0,1,4.29.62,760.43,760.43,0,0,0,91.4,20.78,15,15,0,0,1,9.06,5.16,14.92,14.92,0,0,1,8.12-2.42,15.69,15.69,0,0,1,2,.14,760.91,760.91,0,0,0,93,6.93A14.9,14.9,0,0,1,273,493a14.92,14.92,0,0,1,9.7-3.75,761.21,761.21,0,0,0,93-6.93,15.57,15.57,0,0,1,2.05-.14,14.92,14.92,0,0,1,8.12,2.42,14.94,14.94,0,0,1,9.05-5.16,760.59,760.59,0,0,0,91.41-20.78,15.24,15.24,0,0,1,4.29-.62,14.71,14.71,0,0,1,14.18,10.32l31.36,101.95a13.66,13.66,0,0,1-1.12,10.58,17.26,17.26,0,0,1-10.42,8.22,895.73,895.73,0,0,1-107.81,24.52,18.31,18.31,0,0,1-2.94.24h0a16.89,16.89,0,0,1-9-2.52A17.28,17.28,0,0,1,394.14,617a898.12,898.12,0,0,1-109.66,8.17Z"/>
        <path class="cls-2" d="M284.24,625.18a17.13,17.13,0,0,1-11.2-4,17.13,17.13,0,0,1-11.2,4h-.23A898,898,0,0,1,152,617a17.33,17.33,0,0,1-10.74-5.68,16.84,16.84,0,0,1-9,2.52,18.13,18.13,0,0,1-2.94-.24A895.89,895.89,0,0,1,21.45,589.09,17.27,17.27,0,0,1,11,580.87a13.68,13.68,0,0,1-1.12-10.59L41.27,468.35A14.72,14.72,0,0,1,55.46,458a15.24,15.24,0,0,1,4.29.62,760.43,760.43,0,0,0,91.4,20.78,15,15,0,0,1,9.06,5.16,14.92,14.92,0,0,1,8.12-2.42,15.69,15.69,0,0,1,2,.14,760.91,760.91,0,0,0,93,6.93A14.9,14.9,0,0,1,273,493a14.92,14.92,0,0,1,9.7-3.75,761.21,761.21,0,0,0,93-6.93,15.57,15.57,0,0,1,2.05-.14,14.92,14.92,0,0,1,8.12,2.42,14.94,14.94,0,0,1,9.05-5.16,760.59,760.59,0,0,0,91.41-20.78,15.24,15.24,0,0,1,4.29-.62,14.71,14.71,0,0,1,14.18,10.32l31.36,101.95a13.66,13.66,0,0,1-1.12,10.58,17.26,17.26,0,0,1-10.42,8.22,895.73,895.73,0,0,1-107.81,24.52,18.31,18.31,0,0,1-2.94.24h0a16.89,16.89,0,0,1-9-2.52A17.28,17.28,0,0,1,394.14,617a898.12,898.12,0,0,1-109.66,8.17Z"/>
      </g>
    </g>
    <g>
      <g>
        <path class="cls-3" d="M112.49,556.49H52.67C66.56,466.77,97.09,454,97.09,454s29.56-36.86,32.48,26.8C130.74,506.36,122.64,533.33,112.49,556.49Z"/>
        <polyline class="cls-3" points="70.15 490.46 92.94 441.58 102.66 420.73 165.35 436.4 146.92 473.47 126.75 513"/>
        <path class="cls-4" d="M78.24,499l2.82-.33,2.86-.13,2.85.1,2.85.28a43.67,43.67,0,0,1,20.91,8.8l2.19,1.84,2.07,2,1.9,2.13c.59.75,1.17,1.5,1.74,2.26-.66-.69-1.3-1.38-1.93-2.08l-2-1.95-2.14-1.85-2.24-1.7a50.51,50.51,0,0,0-20.57-8.66A49.87,49.87,0,0,0,78.24,499Z"/>
      </g>
      <g>
        <path class="cls-3" d="M508.81,562.31l-20.28,14.13h-18C453,564.25,414.15,534.9,390,497.7h0q-2.64-4.06-5-8.25a132.87,132.87,0,0,1-10.37-22.77c-22-64.71,22-39.46,22-39.46s13.39.29,35.08,20.06q2.32,2.12,4.78,4.55l.06.07c.41.39.81.79,1.2,1.19q4.3,4.35,8.94,9.71c12,13.88,25.65,33.2,40.39,60.05Z"/>
        <polyline class="cls-3" points="437.75 453.05 395.87 413.15 378.01 396.13 321.53 436.3 354.43 466.11 390.04 497.7"/>
        <path class="cls-4" d="M433,464.77a52.74,52.74,0,0,0-11,5.06,53.73,53.73,0,0,0-17.16,16.7l-1.57,2.58-1.41,2.68-1.27,2.76c-.36.95-.73,1.89-1.11,2.84.28-1,.56-2,.86-2.93l1.07-2.87,1.3-2.78,1.48-2.69a46.91,46.91,0,0,1,17.42-16.95l2.73-1.4,2.82-1.22,2.89-1C431.05,465.28,432,465,433,464.77Z"/>
      </g>
      <path class="cls-5" d="M441.81,448.13s-1.59,1.55-4.77,4.24v0c-2.52,2.12-6,5-10.54,8.33-4.17,3.1-9.18,6.63-15,10.44-5.07,3.3-10.76,6.79-17.09,10.39-3,1.68-6.06,3.39-9.29,5.1l-1.23.66-3.48,1.8-.75.39-.13,10.87v.08l-.07,5.67-1,80.21a8.94,8.94,0,0,1-1.27.1h-96a7.91,7.91,0,0,1-7.91-7.91,7.91,7.91,0,0,1-7.91,7.91h-96a7.91,7.91,0,0,1-7.91-7.91,7.91,7.91,0,0,1-7.34,7.89c3.12-15.56,5.51-30.75,7.34-44.93a736.2,736.2,0,0,0,5.82-75.32c.05-2.06.07-3.8.09-5.18,0-2.57,0-3.93,0-3.93-1.25,2-2.49,4.08-3.74,6.11L161.81,466c-.2.33-.4.66-.61,1l-5.32,8.7c-1.26,2-2.53,4-3.8,6q-3.84,6.07-7.7,12.15a87.51,87.51,0,0,0-.64-14.17c-.31-2.64-.77-5.53-1.42-8.54a80.66,80.66,0,0,0-3-10.44c-3.76-10.49-10.28-21.14-21.52-28.07a48.87,48.87,0,0,0-17.68-6.55c-.57-.1-1.15-.19-1.75-.27a198.61,198.61,0,0,1,16.65-23.55,194.56,194.56,0,0,1,45.41-40.66c31.17-19.48,62.28-24.37,80.38-25.69,0,0,85.66-12.34,147,34.72l43.83,62.92Z"/>
      <polygon class="cls-6" points="166.2 459.39 169.71 409.07 168.19 459.49 166.2 459.39"/>
      <polygon class="cls-6" points="378.79 490.64 379.16 423.39 380.79 490.63 378.79 490.64"/>
      <path class="cls-7" d="M379.61,489.5l-.2,16.62-.17-30.58s42.05-25.42,52.43-42l10.13,14.56S421.07,468.37,379.61,489.5Z"/>
      <path class="cls-7" d="M152.62,479q-3.76,5.84-7.54,11.68c.18-4,1.22-38.66-24.09-56.92a54,54,0,0,0-21.06-9,80.7,80.7,0,0,1,8.49-12.24c1-1.19,2-2.31,3-3.37,5.21,2.37,29.37,14,38.41,41A66,66,0,0,1,152.62,479Z"/>
      <g>
        <g>
          <path class="cls-8" d="M315.15,338.75s-12.27,29.05-31.3,31.9c-1.84.28-10.12,14.71-12.06,14.44-6.17-.85-11.08-16.93-12.6-18.08-17.14-13-25.52-18.11-26.05-28.75-.1-2-.1-3.08-.1-3.08-.26-4.1-8.49-24-3-32.62,4.57-7.19,27.14-.35,27.14-.35l46.21.06c.09,4.21,8.88,6.87,11.72,14.77,2.67,7.41-.59,20.16-.05,21.47A1.65,1.65,0,0,0,315.15,338.75Z"/>
          <path class="cls-9" d="M312.33,339.73c-5.41,4.31-13.59,8.95-33.69,10.37a73.36,73.36,0,0,1-45.5-11.84c-.1-2-.1-3.08-.1-3.08-1.06-1.72-9.42-19.15-3.94-27.77,18.48-7.18,61.17-3.09,61.17-3.09l24.33,17C317.26,328.77,311.79,338.42,312.33,339.73Z"/>
          <path class="cls-7" d="M271,386.08l21.2-10.17s23.44,8.48,24.76,6.69c12.58-17.19,15.4-37.23,15.4-37.23l-45,21Z"/>
          <path class="cls-5" d="M290.12,362.16,271,386.08l20.29-17.88,23.73,7s12.78-6.9,17.34-29.81L316.49,330.8S314.5,352.25,290.12,362.16Z"/>
          <path class="cls-7" d="M271,386.08,252.19,373s-24.27,4.55-25.86,3c-8.63-8.44-9.79-39.07-9.79-39.07L256.61,363Z"/>
          <path class="cls-5" d="M256.43,361.05l14.57,25-17-21.23-23.3,2.23s-10.92-3.57-14.14-30.17l15.93-11.32S228.54,348.39,256.43,361.05Z"/>
        </g>
        <g>
          <path class="cls-10" d="M396.8,233c-7.47,17.78-24.27,25.76-38.4,19.82S349,237,356.45,219.2s7.94-15.8,21.44-23.06C407.45,180.22,404.27,215.23,396.8,233Z"/>
          <path class="cls-11" d="M383.37,203.37a7.33,7.33,0,0,1,6.51.3c2.53,1.68,3,5.16,2.92,8.18-.36,10.63-5.07,20.8-11.78,29.05a12,12,0,0,1-3.82,3.44,4.68,4.68,0,0,1-4.91-.23c-1.52-1.21-1.77-3.46-1.36-5.35,1.05-4.82,5.24-8.16,8.62-11.75a9.45,9.45,0,0,0,2.23-3.31,3.72,3.72,0,0,0-.65-3.77,4.89,4.89,0,0,0-2.88-1.15,26.76,26.76,0,0,0-6.39.26c-1.07-3.13,1.41-6.26,3.13-8.58C377.19,207.49,379.84,204.69,383.37,203.37Z"/>
        </g>
        <g>
          <path class="cls-10" d="M144.81,252c8.76,16.56,24,22.13,35.08,14.29s5.74-17-3-33.55-8.87-14.53-21.25-19.85C128.52,201.21,136.05,235.41,144.81,252Z"/>
          <path class="cls-11" d="M152,220.79a5.44,5.44,0,0,0-5.44,1.2c-1.9,2-1.83,5.51-1.32,8.49C147,241,152.4,250.36,159.19,257.6a10.72,10.72,0,0,0,3.7,2.87,3.53,3.53,0,0,0,4.1-.91c1.11-1.4,1-3.66.4-5.48-1.55-4.62-5.55-7.35-8.88-10.44a9.37,9.37,0,0,1-2.35-3,4.31,4.31,0,0,1,0-3.82,4,4,0,0,1,2.27-1.54,19.47,19.47,0,0,1,5.42-.63c.46-3.24-2.06-6-3.84-8.05C157.78,224,155.17,221.6,152,220.79Z"/>
        </g>
        <g>
          <path class="cls-10" d="M376.17,164.22C373.61,100,336.44,60,263.67,64.61,193,69.09,154.31,108.3,156.87,172.49c1.18,29.68,11.38,80.44,11.39,82,0,57.76,72.59,90.81,114.36,86.16,29.67-3.31,93.67-50,89.6-99.11C372.09,240,377.35,193.9,376.17,164.22Z"/>
          <path class="cls-11" d="M194.5,140.43s20.85,20,100.15,15.13l-2.94-10.84s11.82,11,58.48,16.67L374,219.06l-14-118.56L191.69,96.27l-23.85,28.54,3.46,32.73s-11.5,52.78-7.27,74.89l11.45-40.49S196,201.33,194.5,140.43Z"/>
        </g>
        <path class="cls-12" d="M191.29,123.39s-6.42,26.08,100.15,26.19c0,0-2.83-1.15-13.77-26.3,14.12,30.95,53.08,27.45,73.71,32.89l-4.89-30L374,219.06s6.93-22.18,8.89-34.36c0,0,2.84-31.09-3.66-52.53a37.1,37.1,0,0,1,8.49,16.17S392.05,90.62,347,54.19c0,0,7.75,1.61,24.52,9.1,0,0-32.68-49.47-95.49-48.61-32.86.45-79.75,9.77-92.59,43.51,0,0-30.65-12.48-45.33,39.15,0,0,11.4-18,25.72-18.76,0,0-20.33,7.62-25.48,56.54-4.86,46.21,8.35,71.13,25.21,102.39,0,0,3.15-39.74,11.37-68.19l2.32,17.3S191.48,187.72,191.29,123.39Z"/>
        <g>
          <path class="cls-13" d="M235.73,173.55l-2.08-2.62c-4.24-5.33-10.3-8.2-16.05-7.24-7.13,1.21-14.77,5.37-20.2,14.72-.69,1.19-1.21,1.66-.18.84C204.35,173.56,222.57,166.45,235.73,173.55Z"/>
          <path class="cls-14" d="M255.77,247.36s1.53,8.07,13.54,8.36,14.28-8.36,14.28-8.36S271.41,259.46,255.77,247.36Z"/>
          <path class="cls-13" d="M302,170.33l2.08-2.62c4.25-5.33,10.31-8.2,16.05-7.24,7.13,1.2,14.78,5.37,20.21,14.72.68,1.19,1.21,1.66.18.84C333.37,170.33,315.15,163.22,302,170.33Z"/>
          <g>
            <path class="cls-15" d="M203.15,237.31c-6.73-4.54-10.6-12.9-10.58-20.37.05-12.93,11.2-23.82,25.63-23.54,7,.13,15.18,1.94,24.29,12.52-6.3-12-19.74-16.46-30.12-15.07s-21,8.74-22,21.49C189.4,223.39,195.67,234.4,203.15,237.31Z"/>
            <path class="cls-15" d="M330.67,239.47c7.26-3.56,12.24-11.31,13.25-18.7,1.75-12.82-7.73-25.15-22-26.88-6.95-.84-15.24-.18-25.68,9,7.87-11,21.74-13.56,31.77-10.74s19.47,11.56,18.76,24.34C346.15,227.59,338.45,237.62,330.67,239.47Z"/>
            <g>
              <g>
                <path class="cls-16" d="M344.87,220.88C343,234.33,329.55,243.77,314.74,242s-25.32-14.16-23.49-27.61,15.32-22.89,30.12-21.09S346.7,207.43,344.87,220.88Z"/>
                <path class="cls-17" d="M345,220.9a24.58,24.58,0,0,1-10.61,16.69,29.12,29.12,0,0,1-19.49,4.89,28.76,28.76,0,0,1-18.12-9,24.9,24.9,0,0,1-5.27-8.89,22.94,22.94,0,0,1-1-10.34,23.51,23.51,0,0,1,3.57-9.79,26.33,26.33,0,0,1,7.3-7.46,28.81,28.81,0,0,1,9.56-4.19,29.26,29.26,0,0,1,20.33,2.57,27.2,27.2,0,0,1,8.06,6.46A24.08,24.08,0,0,1,345,220.9Zm-.2,0a22.1,22.1,0,0,0-1.06-9.92,23.66,23.66,0,0,0-5.23-8.4,26.67,26.67,0,0,0-8-5.69,28.51,28.51,0,0,0-9.4-2.61,28.12,28.12,0,0,0-9.72.59,27.17,27.17,0,0,0-8.93,3.8,24.42,24.42,0,0,0-6.9,6.8,22,22,0,0,0-3.49,9,21.56,21.56,0,0,0,.81,9.67,23.79,23.79,0,0,0,4.87,8.47A27.64,27.64,0,0,0,315,241.49a28.47,28.47,0,0,0,19.14-4.24,24.93,24.93,0,0,0,7.13-7A22.64,22.64,0,0,0,344.77,220.87Z"/>
              </g>
              <g>
                <path class="cls-18" d="M333,215.44c1.13,8.51-4.6,16.39-12.79,17.6a15,15,0,0,1-16.88-13.22c-1.13-8.51,4.59-16.4,12.79-17.61A15,15,0,0,1,333,215.44Z"/>
                <path class="cls-1" d="M318.83,208.17a3.82,3.82,0,0,1-3.18,4.35,3.76,3.76,0,0,1-4.22-3.28,3.82,3.82,0,0,1,3.18-4.34A3.75,3.75,0,0,1,318.83,208.17Z"/>
              </g>
              <g>
                <g>
                  <path class="cls-16" d="M191.61,216.93c-.05,13.57,12,24.8,27,25.08s27.18-10.49,27.23-24.07-12.05-24.8-27-25.08S191.67,203.35,191.61,216.93Z"/>
                  <path class="cls-17" d="M191.71,216.93a22.66,22.66,0,0,0,2.2,9.78,25,25,0,0,0,6.13,7.93,28.69,28.69,0,0,0,18.43,6.86,27.87,27.87,0,0,0,18.39-6.36,23.64,23.64,0,0,0,6-7.72,21.48,21.48,0,0,0,2.17-9.48,22,22,0,0,0-2.22-9.44,24.35,24.35,0,0,0-5.93-7.69,27.52,27.52,0,0,0-8.35-5,29.85,29.85,0,0,0-19.28-.66,26.69,26.69,0,0,0-8.75,4.51,23.53,23.53,0,0,0-6.38,7.59A22,22,0,0,0,191.71,216.93Zm-.2,0a24.06,24.06,0,0,1,8.35-18.1,27.53,27.53,0,0,1,8.91-5.25,29.54,29.54,0,0,1,20.55.29,28.88,28.88,0,0,1,8.92,5.47,26.3,26.3,0,0,1,6.23,8.4,23.6,23.6,0,0,1,2.2,10.22,23,23,0,0,1-2.47,10.11,25,25,0,0,1-6.5,8.07,29,29,0,0,1-19.26,6.37A29.42,29.42,0,0,1,199.76,235,24.6,24.6,0,0,1,191.51,216.92Z"/>
                </g>
                <g>
                  <path class="cls-18" d="M204.21,213.19a15.56,15.56,0,0,0,10.27,19.22,15.08,15.08,0,0,0,18.64-10.74,15.56,15.56,0,0,0-10.27-19.22A15.09,15.09,0,0,0,204.21,213.19Z"/>
                  <path class="cls-1" d="M219.29,208a3.83,3.83,0,0,0,2.56,4.75,3.78,3.78,0,0,0,4.66-2.66,3.84,3.84,0,0,0-2.56-4.75A3.79,3.79,0,0,0,219.29,208Z"/>
                </g>
              </g>
            </g>
          </g>
          <g>
            <path class="cls-15" d="M232.45,271.69c0,3.54-.39,5.85-3.93,5.85s-12-7.51-12.83-11c-1.63-6.41,3.05-8,6.41-6.41C225.29,261.72,232.45,268.14,232.45,271.69Z"/>
            <path class="cls-15" d="M313,273.62c0,3.54.38,5.86,3.92,5.86s12-7.52,12.83-11c1.63-6.42-3.05-8-6.41-6.42C320.14,263.65,313,270.08,313,273.62Z"/>
            <g>
              <g>
                <path class="cls-13" d="M271,307.56c33.87,0,62.48-45.67,56-43.54-10,3.27-9.11,5.54-35.89,7-5.26.28-16.19.67-24.25.33a266,266,0,0,1-35.54-4c-4.9-.94-8.92-3.65-11.8-3.35C212,264.72,241.34,307.56,271,307.56Z"/>
                <path class="cls-19" d="M271,307.56c-6.82.16-13.39-2.34-18.91-5.7a22.49,22.49,0,0,1,14.54-9.18c8.89-1.7,22.61.33,27.47,7.19C289.05,305,277.22,307.41,271,307.56Z"/>
                <path class="cls-1" d="M224.8,265.51c38,11.28,68,7.85,91.64,1.78-5.34,7.87-21.86,19.26-43.07,19.77C250.4,287.61,233.66,274.9,224.8,265.51Z"/>
              </g>
              <path class="cls-20" d="M219.65,263.79a.11.11,0,0,0-.08.21c6.89,3.22,52.33,22.58,107.36,0C326.93,264,283.64,279,219.65,263.79Z"/>
              <path class="cls-20" d="M257.39,308.94s11.28,7.81,23.43,1.09C280.82,310,269.54,321.31,257.39,308.94Z"/>
            </g>
          </g>
        </g>
      </g>
      <g>
        <g>
          <path class="cls-21" d="M159.17,493.86Q151,548.19,142.92,602.53c-.61,4.14-4.91,7-9.74,6.48-.23,0-.45,0-.67-.09a887.78,887.78,0,0,1-111-25.18c-5-1.48-8-6.11-6.7-10.28q16.11-52.51,32.24-105a8.08,8.08,0,0,1,10.07-5.23,761.85,761.85,0,0,0,95.3,21.62,8.07,8.07,0,0,1,6.83,7.44A7.38,7.38,0,0,1,159.17,493.86Z"/>
          <g>
            <path class="cls-22" d="M127.35,597.5a878.48,878.48,0,0,1-96.22-21.83c-2.83-.81-4.55-3.43-3.84-5.83l27-91.9a4.65,4.65,0,0,1,5.78-3,770.39,770.39,0,0,0,84.74,19.22,4.62,4.62,0,0,1,3.87,5.23q-7.66,47.28-15.34,94.54C132.9,596.36,130.23,598,127.35,597.5Z"/>
            <path class="cls-2" d="M127.35,597.5a878.48,878.48,0,0,1-96.22-21.83c-2.83-.81-4.55-3.43-3.84-5.83l27-91.9a4.65,4.65,0,0,1,5.78-3,770.39,770.39,0,0,0,84.74,19.22,4.62,4.62,0,0,1,3.87,5.23q-7.66,47.28-15.34,94.54C132.9,596.36,130.23,598,127.35,597.5Z"/>
          </g>
          <path class="cls-21" d="M387.27,493.86q8.13,54.33,16.25,108.67c.59,3.89-2.29,7.63-6.61,8.85a11.4,11.4,0,0,1-1.48.31,887.55,887.55,0,0,1-112.88,8.39c-5.16.06-9.35-3.49-9.34-7.85q0-54.94,0-109.89a8,8,0,0,1,8-8,763.9,763.9,0,0,0,96.92-7.2,7.82,7.82,0,0,1,2,0A8,8,0,0,1,387.27,493.86Z"/>
          <g>
            <path class="cls-22" d="M387.17,602.27a878.77,878.77,0,0,1-97.86,7.28c-2.91.05-5.3-1.95-5.33-4.45q-.59-47.88-1.18-95.77a4.6,4.6,0,0,1,4.59-4.59,775,775,0,0,0,86.18-6.41,4.63,4.63,0,0,1,5.23,3.87l13,94.89C392.14,599.56,390.07,601.89,387.17,602.27Z"/>
            <path class="cls-2" d="M387.17,602.27a878.77,878.77,0,0,1-97.86,7.28c-2.91.05-5.3-1.95-5.33-4.45q-.59-47.88-1.18-95.77a4.6,4.6,0,0,1,4.59-4.59,775,775,0,0,0,86.18-6.41,4.63,4.63,0,0,1,5.23,3.87l13,94.89C392.14,599.56,390.07,601.89,387.17,602.27Z"/>
          </g>
          <path class="cls-23" d="M273.22,502.34q0,54.95,0,109.89c0,4.36-4.16,7.91-9.32,7.85A887.86,887.86,0,0,1,151,611.69c-5.11-.71-8.73-4.84-8.07-9.16q8.13-54.33,16.25-108.67a7.73,7.73,0,0,1,.83-2.51,7.91,7.91,0,0,1,2.19-2.58,8,8,0,0,1,4.05-1.62l.18,0a8.94,8.94,0,0,1,1.86.05,762.23,762.23,0,0,0,96.93,7.21A8,8,0,0,1,273.22,502.34Z"/>
          <g>
            <path class="cls-23" d="M257.13,609.55a878.77,878.77,0,0,1-97.86-7.28c-2.9-.38-5-2.71-4.63-5.18q6.5-47.45,13-94.89a4.62,4.62,0,0,1,5.23-3.87,774.84,774.84,0,0,0,86.18,6.41,4.59,4.59,0,0,1,4.58,4.59q-.58,47.9-1.18,95.77C262.43,607.6,260,609.6,257.13,609.55Z"/>
            <path class="cls-2" d="M257.13,609.55a878.77,878.77,0,0,1-97.86-7.28c-2.9-.38-5-2.71-4.63-5.18q6.5-47.45,13-94.89a4.62,4.62,0,0,1,5.23-3.87,774.84,774.84,0,0,0,86.18,6.41,4.59,4.59,0,0,1,4.58,4.59q-.58,47.9-1.18,95.77C262.43,607.6,260,609.6,257.13,609.55Z"/>
          </g>
          <path class="cls-23" d="M524.91,583.75A888.61,888.61,0,0,1,414,608.92c-5.13.82-9.8-2.07-10.44-6.41q-8.13-54.32-16.25-108.63a8.07,8.07,0,0,1,6.78-9.08,763,763,0,0,0,95.26-21.61,8.11,8.11,0,0,1,10.1,5.24l32.22,105C532.93,577.63,529.93,582.27,524.91,583.75Z"/>
          <g>
            <path class="cls-23" d="M515.31,575.67a879,879,0,0,1-96.22,21.83c-2.89.48-5.55-1.14-5.95-3.61l-15.33-94.54a4.61,4.61,0,0,1,3.87-5.22,772.57,772.57,0,0,0,84.73-19.23,4.64,4.64,0,0,1,5.78,3q13.49,45.94,27,91.9C519.86,572.24,518.14,574.86,515.31,575.67Z"/>
            <path class="cls-2" d="M515.31,575.67a879,879,0,0,1-96.22,21.83c-2.89.48-5.55-1.14-5.95-3.61l-15.33-94.54a4.61,4.61,0,0,1,3.87-5.22,772.57,772.57,0,0,0,84.73-19.23,4.64,4.64,0,0,1,5.78,3q13.49,45.94,27,91.9C519.86,572.24,518.14,574.86,515.31,575.67Z"/>
          </g>
        </g>
        <path class="cls-24" d="M489.31,463.19a763,763,0,0,1-95.26,21.61,8.07,8.07,0,0,0-6.79,9,8,8,0,0,0-7.12-6.68,7.82,7.82,0,0,0-2,0,763.9,763.9,0,0,1-96.92,7.2,8,8,0,0,0-8,8,8,8,0,0,0-8-8,762.23,762.23,0,0,1-96.93-7.21,8.94,8.94,0,0,0-1.86-.05l-.18,0a8,8,0,0,0-4.05,1.62,7.91,7.91,0,0,0-2.19,2.58,7.73,7.73,0,0,0-.83,2.51,8,8,0,0,0-6.76-9.06,761.85,761.85,0,0,1-95.3-21.62A8.08,8.08,0,0,0,47,468.41Q30.92,520.94,14.8,573.46c-1.29,4.17,1.7,8.8,6.7,10.28a887.78,887.78,0,0,0,111,25.18c.22,0,.44.07.67.09,4.83.48,9.13-2.34,9.74-6.48-.66,4.32,3,8.45,8.07,9.16a887.86,887.86,0,0,0,112.9,8.39c5.16.06,9.33-3.49,9.32-7.85,0,4.36,4.18,7.91,9.34,7.85a887.55,887.55,0,0,0,112.88-8.39,11.4,11.4,0,0,0,1.48-.31c4.31-1.22,7.19-5,6.62-8.82.66,4.3,5.32,7.18,10.43,6.36a888.61,888.61,0,0,0,111-25.17c5-1.48,8-6.12,6.72-10.31l-32.22-105A8.11,8.11,0,0,0,489.31,463.19Z"/>
        <path class="cls-25" d="M59.74,523.37c.11,1.47.26,3.08.47,4.84a46,46,0,0,0,1,5.42,42.53,42.53,0,0,0,1.73,5.49,22,22,0,0,0,2.77,5,18.39,18.39,0,0,0,4,4,17.36,17.36,0,0,0,11.12,3,9.81,9.81,0,0,0,4.07-1.39,8.32,8.32,0,0,0,2.7-2.8,12.53,12.53,0,0,0,1.49-3.77,8.33,8.33,0,0,0-2-7.8c-2-2.22-5.2-3.86-9.66-5-.54-.13-1.08-.25-1.62-.35s-1.1-.19-1.65-.27c.55-2.19,1.09-4.38,1.64-6.56a5.62,5.62,0,0,0,.67.21l.35.09a20.76,20.76,0,0,0,6.05.67,13.69,13.69,0,0,0,4.79-1,9,9,0,0,0,3.33-2.42,8.07,8.07,0,0,0,1.73-3.44,7.37,7.37,0,0,0,.06-3.23,6.87,6.87,0,0,0-1.25-2.66,7.6,7.6,0,0,0-2.31-2,12.34,12.34,0,0,0-3.22-1.25,20,20,0,0,0-2.43-.43,22.94,22.94,0,0,0-2.56-.13c-.92,0-1.9.06-3,.16s-2.26.26-3.63.46c-.37-2.19-.74-4.39-1.1-6.58a45.52,45.52,0,0,1,7.5-.73,29,29,0,0,1,6.93.81,19.34,19.34,0,0,1,5.88,2.44,15.69,15.69,0,0,1,4.24,3.87,13.21,13.21,0,0,1,2.28,4.91,12.35,12.35,0,0,1,0,5.51c-1.13,5.18-4.72,8.78-10.85,10.69l0,.17a19.48,19.48,0,0,1,4.64,4.2c.89.35,1.83.68,2.85,1s2,.57,2.81.75a23.72,23.72,0,0,0,2.85.43,16.7,16.7,0,0,0,3.16,0,17.33,17.33,0,0,0,3.43-.71,18.85,18.85,0,0,0,3.67-1.61l4.83-24.16q8.63,1.72,17.27,3.25l-1.14,6.44q-4.89-.87-9.78-1.79l-11.16,58.72q-4.11-.78-8.2-1.6l6.63-33.14L111,541a17.22,17.22,0,0,1-5.58,1.14,23.63,23.63,0,0,1-5.06-.52c-.55-.12-1.1-.26-1.67-.43s-1.15-.34-1.74-.54l-.09.17a11.58,11.58,0,0,1-.18,4.56A16.48,16.48,0,0,1,94,551.62,14.94,14.94,0,0,1,89,556a17.55,17.55,0,0,1-6.75,2,24,24,0,0,1-8.16-.65,23.21,23.21,0,0,1-8-3.51,27,27,0,0,1-5.77-5.45,28.45,28.45,0,0,1-3.85-6.52,43.71,43.71,0,0,1-2.24-6.75A44.47,44.47,0,0,1,53.13,529a45.63,45.63,0,0,1-.27-4.71Z"/>
        <path class="cls-25" d="M175.48,545.45q.38,1.75.93,3.84a38.31,38.31,0,0,0,1.4,4.25,35.33,35.33,0,0,0,2,4.22,17.89,17.89,0,0,0,2.77,3.73,14.8,14.8,0,0,0,3.68,2.78,12.8,12.8,0,0,0,4.72,1.37,12.2,12.2,0,0,0,4.47-.27,7.76,7.76,0,0,0,3.1-1.57,6.77,6.77,0,0,0,1.85-2.56,10.36,10.36,0,0,0,.78-3.2,6.79,6.79,0,0,0-2.43-6.07c-1.83-1.57-4.59-2.53-8.28-2.9-.45,0-.89-.08-1.34-.1l-1.35,0,.57-5.47a4.73,4.73,0,0,0,.57.09l.29,0a16.87,16.87,0,0,0,4.92-.14,11.1,11.1,0,0,0,3.73-1.37,7.35,7.35,0,0,0,2.41-2.32,6.54,6.54,0,0,0,1-3,5.78,5.78,0,0,0-.31-2.6,5.56,5.56,0,0,0-1.29-2,6.31,6.31,0,0,0-2.09-1.34,9.93,9.93,0,0,0-2.73-.65,17.17,17.17,0,0,0-2-.07,19.9,19.9,0,0,0-2.07.19c-.74.11-1.52.26-2.36.46s-1.79.47-2.87.79c-.55-1.73-1.09-3.45-1.64-5.17a36,36,0,0,1,6-1.45,22.88,22.88,0,0,1,5.67-.13,15.53,15.53,0,0,1,5,1.31,12.79,12.79,0,0,1,3.85,2.65,10.43,10.43,0,0,1,2.37,3.7,10.06,10.06,0,0,1,.61,4.45c-.35,4.3-2.85,7.59-7.55,9.81,0,0,0,.1,0,.15a15.69,15.69,0,0,1,4.18,2.87c.74.18,1.54.34,2.39.49s1.62.24,2.33.29a20,20,0,0,0,2.34,0,14.4,14.4,0,0,0,2.53-.36,13.8,13.8,0,0,0,2.68-.93,15.23,15.23,0,0,0,2.77-1.7q.67-10,1.33-20,7.16.48,14.31.82c-.09,1.77-.17,3.54-.26,5.32q-4-.19-8.09-.44-1.41,24.29-2.83,48.57-3.36-.2-6.7-.42.92-13.73,1.82-27.45l-.16,0a14.05,14.05,0,0,1-4.35,1.51,18.73,18.73,0,0,1-4.11.13c-.45,0-.91-.09-1.38-.16l-1.46-.25-.05.15a9.43,9.43,0,0,1,.35,3.69,13.66,13.66,0,0,1-1.51,5.33,12.29,12.29,0,0,1-3.47,4,14.27,14.27,0,0,1-5.16,2.4,19.27,19.27,0,0,1-6.57.4,18.36,18.36,0,0,1-6.79-1.92,21.76,21.76,0,0,1-5.21-3.72,23.15,23.15,0,0,1-3.8-4.79,37.07,37.07,0,0,1-2.56-5.18,36.51,36.51,0,0,1-1.57-4.84c-.37-1.52-.62-2.77-.76-3.76Zm79.46-11q-4-.09-8.09-.22-.79,24.31-1.6,48.62l-6.7-.25,2-48.6q-4.4-.18-8.79-.41c.1-1.77.19-3.54.28-5.31q11.52.6,23,.86C255,530.89,255,532.66,254.94,534.43Z"/>
        <path class="cls-25" d="M468.23,564.34a1,1,0,0,0,0,.17,33.7,33.7,0,0,0,4.67,2.3c1.61.65,3.14,1.19,4.61,1.62s2.81.78,4,1,2.22.41,3,.49c-.59,1.7-1.18,3.41-1.79,5.11A46.84,46.84,0,0,1,477,573.6c-1.95-.63-3.85-1.31-5.7-2.07s-3.6-1.56-5.26-2.41-3.16-1.69-4.5-2.5a24.42,24.42,0,0,1-6.11.2,14,14,0,0,1-4.33-1.1,7.48,7.48,0,0,1-2.71-2,5.69,5.69,0,0,1-1.22-2.41,4.4,4.4,0,0,1,0-1.77,3.91,3.91,0,0,1,.7-1.62,4.91,4.91,0,0,1,1.43-1.31,6.78,6.78,0,0,1,2.17-.83,10.94,10.94,0,0,1,3-.21,13.39,13.39,0,0,1,3.29.61,15.58,15.58,0,0,1,3.31,1.49,15.17,15.17,0,0,1,3.09,2.47c3.22-1.26,5.5-2.85,6.84-4.75a7.63,7.63,0,0,0,1.13-6.47,5.58,5.58,0,0,0-1-2.19,3.2,3.2,0,0,0-1.58-1.07,5.46,5.46,0,0,0-2.22-.15,23.77,23.77,0,0,0-2.93.52q-5.41,1.28-10.83,2.47a10.88,10.88,0,0,1-5.3,0,11.21,11.21,0,0,1-4.12-2.08,11.75,11.75,0,0,1-2.85-3.36,13.35,13.35,0,0,1-1.49-3.85,7.57,7.57,0,0,1,0-3.65,5.92,5.92,0,0,1,1.55-2.65,9,9,0,0,1,2.78-1.83,20,20,0,0,1,3.72-1.18q6.74-1.47,13.43-3-.87-3.74-1.76-7.47-14.32,3.39-28.72,6.24c-.35-1.74-.69-3.47-1-5.21q23.43-4.65,46.62-10.7c.44,1.71.89,3.43,1.34,5.14q-6,1.56-12,3l3.09,12.62q-9.11,2.22-18.23,4.25a7.82,7.82,0,0,0-3.84,1.61,2.76,2.76,0,0,0-.57,2.64,7,7,0,0,0,.59,1.63,4.42,4.42,0,0,0,1.22,1.48,4.89,4.89,0,0,0,2,.9,6.43,6.43,0,0,0,2.87-.09q5.48-1.21,10.92-2.5a20,20,0,0,1,5.85-.61,10.16,10.16,0,0,1,4.22,1.14,7.85,7.85,0,0,1,2.82,2.64,12.61,12.61,0,0,1,1.63,3.81,14.19,14.19,0,0,1,.38,4.86,12,12,0,0,1-1.45,4.56,14.8,14.8,0,0,1-3.43,4.08A24,24,0,0,1,468.23,564.34Zm-.7-68.68a13.79,13.79,0,0,0-3.67-1.8,6.72,6.72,0,0,0-3.48,0,6.21,6.21,0,0,0-4.16,3,7.73,7.73,0,0,0-.49,5.71,14.37,14.37,0,0,0,1,2.86,18.31,18.31,0,0,0,1.7,2.85,21.4,21.4,0,0,0,2.32,2.68,21.85,21.85,0,0,0,2.85,2.37l-6.28,1.5a23.22,23.22,0,0,1-4.83-5.36,18.61,18.61,0,0,1-2.54-5.9,13.5,13.5,0,0,1-.2-5.41,11.54,11.54,0,0,1,4.91-7.72,13.12,13.12,0,0,1,4.33-1.92,13.64,13.64,0,0,1,6-.21,15,15,0,0,1,5.7,2.67C469.67,492.55,468.61,494.1,467.53,495.66Z"/>
        <path class="cls-25" d="M340.23,580.27c0,.07,0,.14,0,.21a39.16,39.16,0,0,0,4.89,3.44c1.7,1,3.34,1.9,4.92,2.65s3,1.37,4.38,1.86,2.44.84,3.3,1.06c-1,1.84-1.92,3.69-2.89,5.52a52.7,52.7,0,0,1-6.29-2.65q-3.14-1.58-6.08-3.34c-2-1.19-3.81-2.41-5.53-3.68s-3.28-2.48-4.66-3.64a27.75,27.75,0,0,1-6.93-.84,16,16,0,0,1-4.69-2A8.57,8.57,0,0,1,318,576.1a6.46,6.46,0,0,1-.95-3,5.11,5.11,0,0,1,.29-2,4.7,4.7,0,0,1,1.07-1.73,5.6,5.6,0,0,1,1.84-1.23,7.66,7.66,0,0,1,2.59-.57,12.68,12.68,0,0,1,3.39.29,15.34,15.34,0,0,1,3.6,1.27,17.83,17.83,0,0,1,3.48,2.29,17.34,17.34,0,0,1,3.05,3.36q5.78-1.32,8.53-4.22a8.78,8.78,0,0,0,2.36-7.19,6.63,6.63,0,0,0-.72-2.66,3.63,3.63,0,0,0-1.59-1.49,6.33,6.33,0,0,0-2.47-.57,29,29,0,0,0-3.39.09q-6.3.51-12.61.91a12.3,12.3,0,0,1-5.95-1,12.77,12.77,0,0,1-4.27-3.11,13.69,13.69,0,0,1-2.62-4.34,15.86,15.86,0,0,1-1-4.65,8.81,8.81,0,0,1,.66-4.15,6.94,6.94,0,0,1,2.2-2.75,10,10,0,0,1,3.43-1.58,22.33,22.33,0,0,1,4.38-.68q7.78-.48,15.57-1.12l-.72-8.82q-16.59,1.35-33.21,2l-.24-6.13q27-1.07,53.9-4l.66,6.1q-6.93.75-13.88,1.38.68,7.46,1.36,14.92-10.57,1-21.17,1.64c-2.25.15-3.78.53-4.59,1.16a3.25,3.25,0,0,0-1.1,2.91,8.46,8.46,0,0,0,.39,2,5.11,5.11,0,0,0,1.11,1.9,5.61,5.61,0,0,0,2.07,1.38,7.45,7.45,0,0,0,3.25.4q6.35-.42,12.69-.92a22.32,22.32,0,0,1,6.67.31,11.3,11.3,0,0,1,4.55,2,9.07,9.07,0,0,1,2.73,3.49,14.67,14.67,0,0,1,1.2,4.62,16.35,16.35,0,0,1-.39,5.62,13.59,13.59,0,0,1-2.4,4.94,16.48,16.48,0,0,1-4.56,4.06A26.61,26.61,0,0,1,340.23,580.27Z"/>
      </g>
      <g>
        <g>
          <path class="cls-26" d="M507.09,479.82s-6.25-5.18-25.66,3.08c-9.58,2.64-9.12-10-7.87-12.31s9.26-12.35,22.62-10.35S507.09,479.82,507.09,479.82Z"/>
          <path class="cls-27" d="M507.09,479.82s-6.25-5.18-25.66,3.08c-9.58,2.64-9.12-10-7.87-12.31s9.26-12.35,22.62-10.35S507.09,479.82,507.09,479.82Z"/>
        </g>
        <g>
          <path class="cls-26" d="M513.4,496.55s-6-6.58-28-.29c-10.65,1.52-8.5-12.3-6.86-14.63s11.57-12.23,25.67-8.13S513.4,496.55,513.4,496.55Z"/>
          <path class="cls-27" d="M513.4,496.55s-6-6.58-28-.29c-10.65,1.52-8.5-12.3-6.86-14.63s11.57-12.23,25.67-8.13S513.4,496.55,513.4,496.55Z"/>
        </g>
        <g>
          <path class="cls-28" d="M517.13,516.63s-4.47-7.88-26.81-6.46c-10.53-.85-5.68-14.12-3.64-16.08s13.57-9.61,26.29-2.42S517.13,516.63,517.13,516.63Z"/>
          <path class="cls-26" d="M517.13,516.63s-4.47-7.88-26.81-6.46c-10.53-.85-5.68-14.12-3.64-16.08s13.57-9.61,26.29-2.42S517.13,516.63,517.13,516.63Z"/>
        </g>
        <g>
          <path class="cls-26" d="M518.07,531.5s-4.64-5.83-24.77-4.55c-9.49-.76-5.12-12.73-3.28-14.49s12.23-8.66,23.69-2.18S518.07,531.5,518.07,531.5Z"/>
          <path class="cls-27" d="M517.46,532.78s-4-7.11-24.16-5.83c-9.49-.76-5.12-12.73-3.28-14.49s12.23-8.66,23.69-2.18S517.46,532.78,517.46,532.78Z"/>
        </g>
      </g>
      <g>
        <g>
          <path class="cls-26" d="M39.93,477.69s6.25-5.19,25.66,3.08c9.58,2.63,9.12-10,7.87-12.32S64.2,456.11,50.84,458.1,39.93,477.69,39.93,477.69Z"/>
          <path class="cls-27" d="M39.93,477.69s6.25-5.19,25.66,3.08c9.58,2.63,9.12-10,7.87-12.32S64.2,456.11,50.84,458.1,39.93,477.69,39.93,477.69Z"/>
        </g>
        <g>
          <path class="cls-26" d="M33.62,494.42s6-6.59,28-.29c10.65,1.51,8.5-12.31,6.86-14.64s-11.57-12.23-25.67-8.13S33.62,494.42,33.62,494.42Z"/>
          <path class="cls-27" d="M33.62,494.42s6-6.59,28-.29c10.65,1.51,8.5-12.31,6.86-14.64s-11.57-12.23-25.67-8.13S33.62,494.42,33.62,494.42Z"/>
        </g>
        <g>
          <path class="cls-28" d="M29.89,514.5s4.47-7.89,26.81-6.47c10.53-.84,5.68-14.12,3.64-16.08s-13.57-9.61-26.29-2.42S29.89,514.5,29.89,514.5Z"/>
          <path class="cls-26" d="M29.89,514.5s4.47-7.89,26.81-6.47c10.53-.84,5.68-14.12,3.64-16.08s-13.57-9.61-26.29-2.42S29.89,514.5,29.89,514.5Z"/>
        </g>
        <g>
          <path class="cls-26" d="M29,529.36s4.64-5.83,24.77-4.55c9.49-.76,5.12-12.72,3.28-14.49s-12.23-8.66-23.69-2.18S29,529.36,29,529.36Z"/>
          <path class="cls-27" d="M29.56,530.64s4-7.11,24.16-5.83c9.49-.76,5.12-12.72,3.28-14.49s-12.23-8.66-23.69-2.18S29.56,530.64,29.56,530.64Z"/>
        </g>
      </g>
    </g>
  </g>
</svg>
