<svg id="Layer_1" data-name="Layer 1" xmlns="http://www.w3.org/2000/svg" width="623" height="456" viewBox="0 0 623 456">
  <defs>
    <style>
      .cls-1 {
        fill: #fff;
      }

      .cls-2 {
        fill: #ff0;
      }

      .cls-3 {
        fill: #8d8e8d;
      }

      .cls-4 {
        fill: #8436ff;
      }
    </style>
  </defs>
  <g>
    <path class="cls-1" d="M466,132.25a3.68,3.68,0,0,0-3.68-3.68H340.58a3.67,3.67,0,0,0-3.68,3.68v28.31a3.67,3.67,0,0,0,3.68,3.67h42.7v82.18H316.44c8-14.35,16.31-36.83,14.77-51.06-.86-8-1.67-15.49-5.15-22.61-3.4-6.94-9.71-14.67-18.76-23A105.27,105.27,0,0,0,278,130.44c-10.69-4.6-19.26-6.84-26.23-6.84a85.76,85.76,0,0,0-26.94,4.73c-7.11,2.38-19.32,8-37.33,17.31a3.68,3.68,0,0,0-1.64,4.85l10.11,21.23c0,.09.09.18.15.27,3,5.24,6.67,7.89,10.76,7.89a3.67,3.67,0,0,0,1.69-.41c7.38-3.82,18.58-10,27.57-15l8.18-4.54c9.87-4.44,18.49-6.69,25.65-6.69,8.16,0,14.5,2.37,19.39,7.26,3.7,3.7,6.89,13.83,8.55,27.11,1.29,10.29,1.45,29.7-11.92,44a2.72,2.72,0,0,0-.34.42c-3.37,4.88-9.72,8.52-13.15,8.52a5.09,5.09,0,0,0-.56,0c-8.76,1.35-16.63,2.45-23.39,3.27a140.38,140.38,0,0,1-16,1.24c-7.79,0-12.27,4.47-12.27,12.27,0,2.58,1.28,6.38,10.56,16.62,9.39,10.4,13.18,11.83,15.87,11.83,1,0,2.63-.34,7.63-1.41,8.72-1.87,23.32-5,32.15-5a12.92,12.92,0,0,1,4.73.57c15.6,6.76,25.23,17.72,27.88,31.69,2.79,14.75-2.69,31.53-14,42.78-7,7.05-17.06,10.48-30.83,10.48-1.95,0-4-.08-6.09-.22-16.7-1.14-28-6-40.33-17.42s-37.89-48.93-50.09-76.47a3.68,3.68,0,0,0-5.15-1.73l-13.65,7.58a3.68,3.68,0,0,0-1.55,4.76c15,32.46,41.19,76.23,59.21,93.29s38,25.65,59.4,25.65c21.05,0,38.45-5.93,51.72-17.63l.1-.1c24-22.83,31.43-54,20.48-85.49a99.07,99.07,0,0,0-7.12-14.78h42.1V396.68a3.67,3.67,0,0,0,3.68,3.68l30.35-.19a3.67,3.67,0,0,0,3.65-3.68V164.23h41.31a3.67,3.67,0,0,0,3.68-3.67Zm-48.67,28.31V396.49l-30.32.19v-118H334.39a92.29,92.29,0,0,1,10.43,19.67c11.26,32.38,1.6,61.49-19.54,81.62Q306.33,396.68,276,396.68q-30.84,0-56.87-24.64c-17.36-16.43-43.58-60-58.4-92.16l13.65-7.58c11.79,26.62,37.64,65.39,51,77.68s25.43,17.22,42.58,18.39c19.37,1.33,31.85-3.32,39.79-11.34,20.68-20.6,26-62.64-15-80.44-8.54-3.7-43.29,5.54-46,5.54q-3.54,0-13.14-10.61t-9.61-14.16q0-8.58,8.59-8.59A143.8,143.8,0,0,0,249,247.51q10.37-1.26,23.51-3.29c4.71,0,12.17-4.31,16.18-10.11,14.29-15.32,14.29-35.73,12.88-47-1.21-9.7-4-23.7-9.6-29.26s-12.89-8.34-22-8.34q-11.62,0-27.29,7.07c-9.78,5.4-26,14.56-35.8,19.61q-4.05,0-7.58-6.06l-10.11-21.23c11.12-5.73,27.71-14,36.8-17.08a81.48,81.48,0,0,1,25.78-4.55q9.6,0,24.77,6.54a101,101,0,0,1,28.31,18.64q13.14,12.07,17.95,21.9c3.19,6.55,4,13.72,4.8,21.4,1.65,15.29-9.32,41.71-17.62,54.33h77V160.56H340.58V132.25H462.27v28.31Z"/>
    <path class="cls-2" d="M466,132.25a3.68,3.68,0,0,0-3.68-3.68H340.58a3.67,3.67,0,0,0-3.68,3.68v28.31a3.67,3.67,0,0,0,3.68,3.67h42.7v82.18H316.44c8-14.35,16.31-36.83,14.77-51.06-.86-8-1.67-15.49-5.15-22.61-3.4-6.94-9.71-14.67-18.76-23A105.27,105.27,0,0,0,278,130.44c-10.69-4.6-19.26-6.84-26.23-6.84a85.76,85.76,0,0,0-26.94,4.73c-7.11,2.38-19.32,8-37.33,17.31a3.68,3.68,0,0,0-1.64,4.85l10.11,21.23c0,.09.09.18.15.27,3,5.24,6.67,7.89,10.76,7.89a3.67,3.67,0,0,0,1.69-.41c7.38-3.82,18.58-10,27.57-15l8.18-4.54c9.87-4.44,18.49-6.69,25.65-6.69,8.16,0,14.5,2.37,19.39,7.26,3.7,3.7,6.89,13.83,8.55,27.11,1.29,10.29,1.45,29.7-11.92,44a2.72,2.72,0,0,0-.34.42c-3.37,4.88-9.72,8.52-13.15,8.52a5.09,5.09,0,0,0-.56,0c-8.76,1.35-16.63,2.45-23.39,3.27a140.38,140.38,0,0,1-16,1.24c-7.79,0-12.27,4.47-12.27,12.27,0,2.58,1.28,6.38,10.56,16.62,9.39,10.4,13.18,11.83,15.87,11.83,1,0,2.63-.34,7.63-1.41,8.72-1.87,23.32-5,32.15-5a12.92,12.92,0,0,1,4.73.57c15.6,6.76,25.23,17.72,27.88,31.69,2.79,14.75-2.69,31.53-14,42.78-7,7.05-17.06,10.48-30.83,10.48-1.95,0-4-.08-6.09-.22-16.7-1.14-28-6-40.33-17.42s-37.89-48.93-50.09-76.47a3.68,3.68,0,0,0-5.15-1.73l-13.65,7.58a3.68,3.68,0,0,0-1.55,4.76c15,32.46,41.19,76.23,59.21,93.29s38,25.65,59.4,25.65c21.05,0,38.45-5.93,51.72-17.63l.1-.1c24-22.83,31.43-54,20.48-85.49a99.07,99.07,0,0,0-7.12-14.78h42.1V396.68a3.67,3.67,0,0,0,3.68,3.68l30.35-.19a3.67,3.67,0,0,0,3.65-3.68V164.23h41.31a3.67,3.67,0,0,0,3.68-3.67Zm-48.67,28.31V396.49l-30.32.19v-118H334.39a92.29,92.29,0,0,1,10.43,19.67c11.26,32.38,1.6,61.49-19.54,81.62Q306.33,396.68,276,396.68q-30.84,0-56.87-24.64c-17.36-16.43-43.58-60-58.4-92.16l13.65-7.58c11.79,26.62,37.64,65.39,51,77.68s25.43,17.22,42.58,18.39c19.37,1.33,31.85-3.32,39.79-11.34,20.68-20.6,26-62.64-15-80.44-8.54-3.7-43.29,5.54-46,5.54q-3.54,0-13.14-10.61t-9.61-14.16q0-8.58,8.59-8.59A143.8,143.8,0,0,0,249,247.51q10.37-1.26,23.51-3.29c4.71,0,12.17-4.31,16.18-10.11,14.29-15.32,14.29-35.73,12.88-47-1.21-9.7-4-23.7-9.6-29.26s-12.89-8.34-22-8.34q-11.62,0-27.29,7.07c-9.78,5.4-26,14.56-35.8,19.61q-4.05,0-7.58-6.06l-10.11-21.23c11.12-5.73,27.71-14,36.8-17.08a81.48,81.48,0,0,1,25.78-4.55q9.6,0,24.77,6.54a101,101,0,0,1,28.31,18.64q13.14,12.07,17.95,21.9c3.19,6.55,4,13.72,4.8,21.4,1.65,15.29-9.32,41.71-17.62,54.33h77V160.56H340.58V132.25H462.27v28.31Z"/>
    <path class="cls-3" d="M462.27,132.25H340.58v28.31H387v89.53h-77c8.3-12.62,19.27-39,17.62-54.33-.83-7.68-1.61-14.85-4.8-21.4s-9.19-13.85-17.95-21.9a101,101,0,0,0-28.31-18.64q-15.17-6.54-24.77-6.54A81.48,81.48,0,0,0,226,131.83c-9.09,3-25.68,11.35-36.8,17.08l10.11,21.23q3.53,6.06,7.58,6.06c9.77-5,26-14.21,35.8-19.61q15.66-7.07,27.29-7.07,13.65,0,22,8.34c5.56,5.56,8.39,19.56,9.6,29.26,1.41,11.26,1.41,31.67-12.88,47-4,5.8-11.47,10.11-16.18,10.11q-13.15,2-23.51,3.29a143.8,143.8,0,0,1-16.43,1.26q-8.6,0-8.59,8.59,0,3.54,9.61,14.16t13.14,10.61c2.69,0,37.44-9.24,46-5.54,41,17.8,35.72,59.84,15,80.44-7.94,8-20.42,12.67-39.79,11.34-17.15-1.17-29.27-6.08-42.58-18.39s-39.16-51.06-51-77.68l-13.65,7.58c14.82,32.18,41,75.73,58.4,92.16s36.31,24.64,56.87,24.64q30.33,0,49.28-16.71c21.14-20.13,30.8-49.24,19.54-81.62a92.29,92.29,0,0,0-10.43-19.67H387v118l30.32-.19V160.56h45Z"/>
    <path class="cls-4" d="M462.27,132.25H340.58v28.31H387v89.53h-77c8.3-12.62,19.27-39,17.62-54.33-.83-7.68-1.61-14.85-4.8-21.4s-9.19-13.85-17.95-21.9a101,101,0,0,0-28.31-18.64q-15.17-6.54-24.77-6.54A81.48,81.48,0,0,0,226,131.83c-9.09,3-25.68,11.35-36.8,17.08l10.11,21.23q3.53,6.06,7.58,6.06c9.77-5,26-14.21,35.8-19.61q15.66-7.07,27.29-7.07,13.65,0,22,8.34c5.56,5.56,8.39,19.56,9.6,29.26,1.41,11.26,1.41,31.67-12.88,47-4,5.8-11.47,10.11-16.18,10.11q-13.15,2-23.51,3.29a143.8,143.8,0,0,1-16.43,1.26q-8.6,0-8.59,8.59,0,3.54,9.61,14.16t13.14,10.61c2.69,0,37.44-9.24,46-5.54,41,17.8,35.72,59.84,15,80.44-7.94,8-20.42,12.67-39.79,11.34-17.15-1.17-29.27-6.08-42.58-18.39s-39.16-51.06-51-77.68l-13.65,7.58c14.82,32.18,41,75.73,58.4,92.16s36.31,24.64,56.87,24.64q30.33,0,49.28-16.71c21.14-20.13,30.8-49.24,19.54-81.62a92.29,92.29,0,0,0-10.43-19.67H387v118l30.32-.19V160.56h45Z"/>
  </g>
</svg>
