<svg id="Layer_1" data-name="Layer 1" xmlns="http://www.w3.org/2000/svg" width="623" height="456" viewBox="0 0 623 456">
  <defs>
    <style>
      .cls-1 {
        fill: #8d8e8d;
      }

      .cls-2 {
        fill: #f3ff00;
      }

      .cls-3 {
        fill: #8436ff;
      }
    </style>
  </defs>
  <g>
    <path class="cls-1" d="M352.51,225.33h0c7.34-3.48,26.84-43,24.64-63.46a65.45,65.45,0,0,0-5-22.2,90.29,90.29,0,0,0-9.34-21.84H425l-.41-32H198l0,32.05H333.84a30.58,30.58,0,0,1,6.35,4.73c5.77,5.76,8.7,20.29,10,30.34,1.46,11.68,1.46,32.85-13.37,48.74A24.55,24.55,0,0,1,320,212.11q-13.65,2.1-24.38,3.41a149.46,149.46,0,0,1-17,1.31,7.89,7.89,0,0,0-8.91,6.68,7.58,7.58,0,0,0,0,2.23q0,3.67,10,14.68t13.63,11c2.79,0,25-7.53,45.43-7.53,38.26,29.63,39.74,63.41,17.85,85.2-8.22,8.32-21.17,13.15-41.26,11.77a65.59,65.59,0,0,1-44.16-19.07c-13.81-12.75-40.62-52.95-52.84-80.57l-14.16,7.87c15.38,33.38,42.56,78.53,60.57,95.57s37.65,25.56,59,25.56q31.44,0,51.11-17.33a77.45,77.45,0,0,0,20.26-84.65C391.78,258.85,375.7,233.39,352.51,225.33Z"/>
    <path class="cls-2" d="M428.5,85.72a3.88,3.88,0,0,0-3.88-3.82H198A3.84,3.84,0,0,0,195.23,83a3.89,3.89,0,0,0-1.14,2.75l0,32a3.88,3.88,0,0,0,3.88,3.87h134.8a27.15,27.15,0,0,1,4.66,3.6c3.82,3.82,7.13,14.32,8.85,28.08C347.64,164,347.81,184.14,334,199a3.32,3.32,0,0,0-.37.47,20.79,20.79,0,0,1-14.16,8.83c-9,1.39-17.17,2.53-24.31,3.4A146.06,146.06,0,0,1,278.8,213a11.71,11.71,0,0,0-13,10,12.21,12.21,0,0,0,0,3.08c.1,2.68,1.67,6.72,11,17,9.76,10.8,13.7,12.29,16.5,12.29,1.18,0,2.73-.38,7-1.47,8.11-2.05,23-5.82,37.07-6.05,18.27,14.45,28.45,30.46,29.44,46.37.74,11.86-3.76,23-13,32.22-7.22,7.3-17.66,10.85-31.93,10.85-2,0-4.15-.08-6.32-.23h-.14a61.44,61.44,0,0,1-41.54-17.94l-.11-.1c-12.81-11.82-39.28-50.73-51.93-79.29a3.87,3.87,0,0,0-2.31-2.1,3.73,3.73,0,0,0-1.23-.2,3.93,3.93,0,0,0-1.89.48l-14.15,7.87a3.88,3.88,0,0,0-1.64,5c15.51,33.67,42.72,79.07,61.42,96.77s39.4,26.62,61.65,26.61h0c21.84,0,39.9-6.15,53.72-18.34a81.34,81.34,0,0,0,21.29-88.84c-2.93-8.37-17.19-32.37-39.24-42.92,10-12.54,23.42-44.59,21.57-62.44a69.24,69.24,0,0,0-5.19-23.19,102.67,102.67,0,0,0-6.44-16.68H425a3.88,3.88,0,0,0,3.88-3.92Zm-42.3,32.1H362.83a90.29,90.29,0,0,1,9.34,21.84,65.45,65.45,0,0,1,5,22.2c2.2,20.42-17.3,60-24.64,63.46h0c23.19,8.06,39.27,33.52,42.54,42.92a77.45,77.45,0,0,1-20.26,84.65q-19.67,17.33-51.11,17.33-32,0-59-25.56c-18-17-45.19-62.19-60.57-95.57l14.16-7.87c12.22,27.62,39,67.82,52.84,80.57a65.57,65.57,0,0,0,44.16,19.07c20.09,1.38,33-3.45,41.26-11.77,21.89-21.79,20.41-55.57-17.85-85.2-20.44,0-42.64,7.53-45.43,7.53q-3.67,0-13.63-11t-10-14.68a7.58,7.58,0,0,1,0-2.23,7.89,7.89,0,0,1,8.91-6.68,149.46,149.46,0,0,0,17-1.31q10.74-1.31,24.38-3.41a24.55,24.55,0,0,0,16.77-10.48c14.83-15.89,14.83-37.06,13.37-48.74-1.26-10-4.19-24.58-10-30.34a30.58,30.58,0,0,0-6.35-4.73H198l0-32H424.62l.41,32.05Z"/>
    <path class="cls-3" d="M352.51,225.33h0c7.34-3.48,26.84-43,24.64-63.46a65.45,65.45,0,0,0-5-22.2,90.29,90.29,0,0,0-9.34-21.84H425l-.41-32H198l0,32.05H333.84a30.58,30.58,0,0,1,6.35,4.73c5.77,5.76,8.7,20.29,10,30.34,1.46,11.68,1.46,32.85-13.37,48.74A24.55,24.55,0,0,1,320,212.11q-13.65,2.1-24.38,3.41a149.46,149.46,0,0,1-17,1.31,7.89,7.89,0,0,0-8.91,6.68,7.58,7.58,0,0,0,0,2.23q0,3.67,10,14.68t13.63,11c2.79,0,25-7.53,45.43-7.53,38.26,29.63,39.74,63.41,17.85,85.2-8.22,8.32-21.17,13.15-41.26,11.77a65.59,65.59,0,0,1-44.16-19.07c-13.81-12.75-40.62-52.95-52.84-80.57l-14.16,7.87c15.38,33.38,42.56,78.53,60.57,95.57s37.65,25.56,59,25.56q31.44,0,51.11-17.33a77.45,77.45,0,0,0,20.26-84.65C391.78,258.85,375.7,233.39,352.51,225.33Z"/>
  </g>
</svg>
