<svg id="Layer_1" data-name="Layer 1" xmlns="http://www.w3.org/2000/svg" xmlns:xlink="http://www.w3.org/1999/xlink" width="491.74" height="479.74" viewBox="0 0 491.74 479.74">
  <defs>
    <style>
      .cls-1 {
        fill: none;
      }

      .cls-2 {
        clip-path: url(#clip-path);
      }

      .cls-3 {
        fill: #a65f2b;
      }

      .cls-4 {
        fill: #df8644;
        opacity: 0.6;
      }

      .cls-5 {
        fill: #e67f00;
      }

      .cls-6 {
        fill: #fda305;
      }

      .cls-7 {
        fill: #ffd672;
      }

      .cls-8 {
        fill: #953200;
      }

      .cls-9 {
        fill: #38a7e5;
      }

      .cls-10 {
        fill: #104467;
      }

      .cls-11 {
        fill: #2382b7;
      }

      .cls-12 {
        fill: #3796d6;
      }

      .cls-13 {
        fill: #7fbbdd;
      }

      .cls-14 {
        fill: #b3e4ff;
      }

      .cls-15 {
        fill: #97d4fd;
      }

      .cls-16 {
        fill: #b0e8ff;
      }

      .cls-17 {
        fill: #ebc31e;
      }

      .cls-18 {
        fill: #ffec4b;
      }

      .cls-19 {
        fill: #9f5700;
      }

      .cls-20 {
        fill: #fad22d;
      }

      .cls-21 {
        fill: #cecece;
      }

      .cls-22 {
        fill: #fff;
      }

      .cls-23 {
        fill: #43a6ff;
      }

      .cls-24 {
        fill: #0079ff;
      }

      .cls-25 {
        fill: #00418e;
      }

      .cls-26 {
        fill: #670001;
      }

      .cls-27 {
        fill: #f66c7d;
      }

      .cls-28 {
        fill: #f8919d;
      }

      .cls-29 {
        fill: #aa2f41;
      }
    </style>
    <clipPath id="clip-path">
      <rect class="cls-1" x="-1131.72" y="-122.45" width="2160" height="720"/>
    </clipPath>
  </defs>
  <g class="cls-2">
    <g>
      <path class="cls-3" d="M96.35,410.66l1.14.5A5.11,5.11,0,0,0,96.35,410.66Z"/>
      <path class="cls-4" d="M97.49,411.16a5.11,5.11,0,0,0-1.14-.5Z"/>
      <g>
        <path class="cls-5" d="M203.73,370.08c-8.61,15.92-25.28,35.73-32.64,39.39-7.87,3.93-17.06,4.55-25.7,11.83-8.06,6.78-7.26,17-5.08,22.37s8.91,6,11.54,2.61c2,6.67,10,8.75,14.48,5.92s2-6.47,2.17-11.82c.2-6,4.24-12.94,14.16-14.42,11.89-.76,17.44,3.11,20.09,1.57s1.55-14.93-10.08-15.47c7.26-9.9,32.15-24.77,38-35.06C223.06,382.72,211.36,378.64,203.73,370.08Z"/>
        <path class="cls-6" d="M203.73,370.08c-8.61,15.92-25.28,35.73-32.64,39.39-7.87,3.93-17.06,4.55-25.7,11.83-8.06,6.78-7.26,17-5.08,22.37.87,2.13,3.85,3.39,5.24.5,2.1-4.35,3.21-14.47,8.8-16.2-5.92,6.86-2.31,18.89-2.2,19.17a10.28,10.28,0,0,0,9.52,6.29c4.92-.81,2.19-8,1.81-13.37-.82-11.35,9.65-16.69,19.57-18.17,11.89-.76,11.8-7.44.16-8,7.27-9.9,33.89-23.82,35.25-34.7A28.79,28.79,0,0,1,203.73,370.08Z"/>
        <path class="cls-7" d="M171.09,409.47c-7.87,3.93-17.06,4.55-25.7,11.83-6.77,5.7-7.29,13.83-6,19.46-.07-4.81.58-10.12,3.44-13.93,5.92-8.19,23.73-13.16,29.8-15.07,4.45-1.41,23-23.84,29.71-34.13,2.42-3.72.23-5.09-.4-4.4C193,388.51,178,406.05,171.09,409.47Z"/>
        <path class="cls-7" d="M160.28,423.79c-13.72,5.08-8.23,23.09-8.13,23.35a9.79,9.79,0,0,0,5.26,5.37C152.41,446.52,150.35,433.42,160.28,423.79Z"/>
        <path class="cls-8" d="M222.38,379.16c-6.11,0-13.11-3.6-18.28-9.41l-.47-.52-.34.62C195,385.17,178.34,405.32,170.87,409a65.5,65.5,0,0,1-8.71,3.35c-5.62,1.86-11.43,3.78-17.09,8.54-8.56,7.21-7.31,17.81-5.22,22.93a8,8,0,0,0,7.35,5,6.51,6.51,0,0,0,4.45-1.63,10.72,10.72,0,0,0,10.09,6.7,9,9,0,0,0,4.85-1.31c3.45-2.18,3.1-4.87,2.7-8a26.3,26.3,0,0,1-.3-4.23c.18-5.52,3.89-12.48,13.7-13.95,1-.06,2.06-.09,3.06-.09a50,50,0,0,1,11.37,1.39c2.79.61,4.65.92,5.88.21,1.39-.81,1.85-3.83,1.06-7a11.9,11.9,0,0,0-10.45-9.3c3.48-4.37,10.07-9.59,17-15.1,8.48-6.72,17.24-13.66,20.43-19.3l1.16-2.07-1.89,1.44A13,13,0,0,1,222.38,379.16ZM210,395.77c-7.4,5.85-14.38,11.39-17.76,16l-.55.74.92,0a11,11,0,0,1,10.46,8.62c.71,2.88.25,5.44-.6,5.93s-2.64.24-5.17-.32a51.47,51.47,0,0,0-11.58-1.41c-1,0-2.07,0-3.16.1-10.45,1.56-14.39,9-14.58,14.9a26.67,26.67,0,0,0,.3,4.38c.4,3.13.67,5.19-2.24,7a8.1,8.1,0,0,1-4.33,1.16,9.67,9.67,0,0,1-9.41-6.8l-.28-.92-.59.76a5.31,5.31,0,0,1-4.26,1.89,7,7,0,0,1-6.44-4.39c-2-4.88-3.18-15,5-21.81,5.51-4.63,11.23-6.53,16.76-8.36a64.45,64.45,0,0,0,8.84-3.4c7.5-3.73,24.05-23.6,32.52-39,5.31,5.7,12.36,9.22,18.55,9.22a14.24,14.24,0,0,0,6.61-1.53C225.2,383.74,217.5,389.85,210,395.77Z"/>
        <path class="cls-8" d="M157,424.87c-6.17,4.06-8.11,11.61-5.67,21.53l1-.24c-1.69-6.84-2.59-18.9,10.33-22.84C162.66,423.32,160.27,422.75,157,424.87Z"/>
      </g>
      <g>
        <path class="cls-9" d="M197.83,360.37c6,16.13,26.71,26.32,35.86,13.47a169.11,169.11,0,0,1-33.88-12.46C199.14,361.05,198.49,360.72,197.83,360.37Z"/>
        <path class="cls-10" d="M200,360.93c-.67-.32-1.32-.65-2-1l-1.13-.59.44,1.2c4.08,11,15.07,19.61,25,19.61a13.86,13.86,0,0,0,11.71-6l.42-.59-.71-.18A169,169,0,0,1,200,360.93Zm22.35,18.23c-9.2,0-19.34-7.7-23.61-17.75l.82.41a170.33,170.33,0,0,0,33.26,12.32A12.85,12.85,0,0,1,222.38,379.16Z"/>
      </g>
      <g>
        <path class="cls-9" d="M348.76,414.09c-12.56-12.38-26.31-30.61-35.31-44.83a79.2,79.2,0,0,1-15.76,5.5c2.19,15.07,7.28,28.87,18.18,44.75,18.12,26.37,51.19,42.83,58.59,36.06S367.31,432.38,348.76,414.09Z"/>
        <path class="cls-11" d="M307.87,393.11c-2.6-4.23-6.41-3.87-5.66.2a111.24,111.24,0,0,0,13.66,26.2c18.12,26.37,51.19,42.83,58.59,36.06,1.85-1.69,2.33-4,1.71-6.76C346.71,440.32,324.82,420.65,307.87,393.11Z"/>
        <path class="cls-10" d="M349.11,413.74c-13.6-13.41-27.49-32.48-35.24-44.74l-.24-.38-.4.2a79.64,79.64,0,0,1-15.66,5.46l-.43.11.06.44c2.34,16.11,8,30,18.27,45,16.09,23.41,42.27,37.79,54,37.79a7.71,7.71,0,0,0,5.36-1.65,6.41,6.41,0,0,0,2.13-4.81C377.09,442.53,363.65,428.08,349.11,413.74Zm25,41.46a6.8,6.8,0,0,1-4.7,1.4c-11.2,0-37.48-14.56-53.15-37.37-10.11-14.72-15.68-28.34-18-44.1a81.42,81.42,0,0,0,15-5.23c7.83,12.31,21.63,31.21,35.15,44.54,14.38,14.19,27.67,28.45,27.51,36.66A5.41,5.41,0,0,1,374.13,455.2Z"/>
        <path class="cls-11" d="M374.34,410.82C360.9,400.31,336,378.3,319.77,357.87c-.11,4.73-.79,7.86-2,8.85-1.88,1.48-6.11,3.71-12.35,5.8,8.95,22.38,20.63,39.92,44.41,57,31.25,22.45,52.68,21.1,57.72,15.54S391.45,424.22,374.34,410.82Z"/>
        <path class="cls-9" d="M399.39,431c-28.38-4.19-58.12-26-76.8-49.12-7.77-9.84-12.41-2.2-9.37,7.42,8.13,14.81,19.07,27.64,36.57,40.21,31.25,22.45,52.68,21.1,57.72,15.54C410,442.3,406.08,437.14,399.39,431Z"/>
        <path class="cls-10" d="M380.09,414.66c-1.84-1.42-3.66-2.84-5.44-4.23-11.4-8.91-37.45-31.42-54.49-52.87l-.85-1.07,0,1.36c-.14,6.21-1.23,8-1.85,8.48-1.74,1.37-5.86,3.59-12.2,5.72l-.5.17.2.48c10,25.11,22.94,41.69,44.57,57.23C372.62,446.54,388.57,449,396,449c5.45,0,9.77-1.32,11.85-3.62a3.41,3.41,0,0,0,.87-2.73C408.2,436.47,393.91,425.38,380.09,414.66Zm27.05,30.08c-1.9,2.09-5.95,3.29-11.12,3.29-7.34,0-23-2.45-45.94-18.91-21.33-15.31-34.12-31.65-44-56.3,6.18-2.12,10.24-4.33,12-5.72,1.24-1,2-3.63,2.18-7.89,17.1,21.21,42.58,43.2,53.82,52,1.78,1.4,3.61,2.82,5.45,4.24C393.13,426,407.25,437,407.76,442.76A2.47,2.47,0,0,1,407.14,444.74Z"/>
        <path class="cls-12" d="M363,372.43c-17.1-14.76-33.71-31.09-46.45-44.27,3.29,17.37,4.05,31.22,2.34,36.52,13,17.16,30,35.2,46.15,45.72,26.82,17.43,61,24.79,66.09,15.12S390.83,396.44,363,372.43Z"/>
        <path class="cls-9" d="M363,372.43c-17.1-14.76-33.71-31.09-46.45-44.27,2.41,12.69,3.45,23.48,3.18,30.45,24.08,36.57,65,64.07,108.61,69.52a6.45,6.45,0,0,0,2.79-2.61C436.28,415.85,390.83,396.44,363,372.43Z"/>
        <path class="cls-10" d="M402.18,399.18c-12.8-8.05-27.32-17.17-38.85-27.12C345,356.27,328,339.29,316.92,327.82l-1.15-1.19.31,1.63c3.16,16.67,4.08,30.91,2.35,36.27l-.08.25.16.2c14.84,19.67,31.71,36.37,46.27,45.84,17.66,11.47,40.17,19.49,54.74,19.49,6.3,0,10.47-1.58,12.06-4.56C434.8,419.69,421.12,411.09,402.18,399.18Zm28.52,26.11c-1.4,2.64-5.26,4-11.18,4-14.4,0-36.69-7.95-54.21-19.33-14.41-9.37-31.12-25.91-45.86-45.4,1.64-5.57.84-18.8-2.1-34.91,11.1,11.45,27.64,27.84,45.34,43.12,11.59,10,26.13,19.15,39,27.22C418.74,410.76,433.49,420,430.7,425.29Z"/>
      </g>
      <g>
        <path class="cls-11" d="M110.79,183.62C56.5,149.4,47.61,90.93,34.8,92c-10.31.9-10,41.09-.17,61.26-6.94-4.81-17-18.26-22.43-16s-4,36.22,15.41,54.46c-10.83-.23-19.76-7.44-22.23-4.55-3.92,4.6-.32,32,29.12,47.69-11.22,0-17.56.51-18.25,5.21C15,248.73,32.32,277,80.13,273.5,73.55,279.19,55,283.38,55,287.55c-.13,5.5,27.31,14.5,57.68-3.91-5.73,7.54-20.95,18-17.28,21.68,4.49,4.5,29.06-5.12,41.76-17.82.41,5-3.85,12.82-2.19,14.6,3.54,3.81,53.85-27.8,52-70.8C185.51,199.5,135.74,199.35,110.79,183.62Z"/>
        <path class="cls-9" d="M91.61,194.53C48.62,162.61,48,108.58,34.8,92c-9.9.87-10,37.93-1.3,58.74.36.87,11.19,29,44.38,43.77,7.81,9.87-15.12,2.36-34.3-16.77C26.75,161,18.67,135.39,12.2,137.32,6.9,139.54,8.14,171.43,25.82,190c.58.61,20.6,23.31,53.18,26.64,9.09,8.07-10.12,6.8-31.35-3.33C28,203.93,9.75,183.62,5.38,187.23c-3.79,4.44-.55,30.17,26.18,46,.95.57,34.13,19,66.76,7.4,12.7,2.83-3.86,9.34-27.85,9-19.11-.25-34.81-9.31-45.76-11.87-5.71-1.33-8.34,1.5-8.46,2.3-1.26,8.51,15.68,36.2,62.28,33.47.53,0,25.41-4.58,40.45-20,9.76-3,.74,9.54-17,17.91-18.91,8.91-47,13.84-47,16-.13,5.4,26.27,14.15,55.93-2.87.58-.34,16.7-10.07,27.37-26.76,7-3.8,5.81,4.08-6.76,16.06-13.22,12.59-38,29.46-36.14,31.34,4.38,4.39,27.87-4.66,40.81-16.89A168.11,168.11,0,0,0,155.45,264c7.17-6.33,4.89,2-4.19,13.87-2.21,2.87-8.59,9.73-11.22,13.43-3.9,5.49-5.54,10.35-5.12,10.8,3,3.27,40.54-19.56,49.91-53.29C185.78,226.55,115.29,212.12,91.61,194.53Z"/>
        <path class="cls-10" d="M141.41,195.42c-10.87-3.45-22.11-7-30.36-12.22C77.41,162,61.37,131.66,50.76,111.58c-6.56-12.39-10.85-20.48-16-20-1.79.16-3.33,1.35-4.58,3.55-5.91,10.43-4.13,39.77,3.19,56.63-1.88-1.52-3.94-3.5-6.08-5.57-4.89-4.71-9.94-9.59-13.75-9.59a3.87,3.87,0,0,0-1.53.3c-1.22.51-2.13,2.23-2.62,5C7.67,151.31,11,176,26.33,191.23c-4.84-.35-9.24-2-12.82-3.36-2.68-1-4.79-1.81-6.38-1.81a2.63,2.63,0,0,0-2.12.85c-1.51,1.77-1.85,6-.89,11.13,1,5.42,6.09,23.73,28.46,36.38-9.44.05-16.08.63-16.82,5.63-.46,3.13,1.44,9,6.73,15.16,6.15,7.13,20.78,19.07,49.71,19.07,2.07,0,4.2-.06,6.35-.19-3.13,2.19-8,4.19-12.26,6-6.58,2.73-11.78,4.89-11.84,7.47a3.25,3.25,0,0,0,1.11,2.3c2.59,2.65,9.8,5.31,20.09,5.31,8.17,0,20.66-1.72,34.78-9.65-1.88,2.07-4.22,4.29-6.51,6.45-4.93,4.65-9.59,9-9.63,12a2.35,2.35,0,0,0,.71,1.76c.84.84,2.27,1.27,4.25,1.27,8.43,0,26.67-8.09,37.39-18.28a32.47,32.47,0,0,1-1.47,6.86c-.93,3.23-1.67,5.79-.61,6.92a1.76,1.76,0,0,0,1.34.47h0c4.13,0,17.14-7.57,28.94-19.9,10.83-11.3,23.52-29.44,22.55-51.73C186.45,209.72,163.55,202.45,141.41,195.42Zm22.72,86.91c-11.46,12-24.37,19.59-28.22,19.59a.81.81,0,0,1-.63-.15c-.67-.72.1-3.39.84-6,.79-2.74,1.69-5.85,1.49-8.33l-.09-1.06-.76.75c-10.41,10.42-29,18.8-37.51,18.8a5.12,5.12,0,0,1-3.56-1,1.38,1.38,0,0,1-.41-1.05c0-2.49,4.75-6.95,9.31-11.26a81.33,81.33,0,0,0,8.44-8.72l1.57-2.06-2.22,1.34c-14.93,9-28.21,10.95-36.73,10.95-10,0-17-2.6-19.38-5a2.36,2.36,0,0,1-.83-1.59c0-1.93,5.73-4.29,11.22-6.58,5.27-2.18,10.71-4.44,13.79-7.11l1.12-1-1.48.11c-2.67.19-5.32.29-7.89.29-28.54,0-42.93-11.74-49-18.73-5.09-5.9-6.93-11.47-6.5-14.37.6-4.07,6-4.79,17.15-4.79h2.6l-1.75-.93C11.31,222,6.12,203.3,5.09,197.86s-.4-9.06.67-10.31a1.69,1.69,0,0,1,1.37-.5c1.41,0,3.55.8,6,1.74,4,1.5,8.92,3.37,14.44,3.49l1.28,0-.93-.88C12.12,176.53,8.64,151.5,10.36,142c.42-2.33,1.16-3.88,2-4.24a2.88,2.88,0,0,1,1.15-.22c3.41,0,8.32,4.73,13.07,9.31a68.44,68.44,0,0,0,7.74,6.83l1.55,1.08-.83-1.7c-8.38-17.27-9.41-48-4-57.49,1.08-1.9,2.36-2.93,3.8-3.06,4.51-.39,8.91,7.91,15,19.52,10.67,20.16,26.78,50.64,60.64,72,8.36,5.27,19.66,8.85,30.59,12.32,21.82,6.93,44.39,14.09,45.29,35C187.36,253.26,174.82,271.17,164.13,282.33Z"/>
        <path class="cls-13" d="M110.79,183.62c-3.05-1.93-6-3.92-8.73-6-23.22-13.83-41.51,2.74-25.48,16.46-19.28.49-17.1,20.1,1,22.83-9.5,5.56-6.12,27.44,19.41,24.4-9.31,9.26,5.82,18.63,21.48,13-.54,10.21,10.38,12.91,19,5-2.36,10.56,13.25,10.16,18.13,3.77,2.84,6.64,17.37,3.19,26.68-6.8a58.31,58.31,0,0,0,4.67-25C185.52,199.5,135.73,199.35,110.79,183.62Z"/>
        <path class="cls-14" d="M91.61,194.54a99.6,99.6,0,0,1-18.4-17.78c-4.11,4.29-3.9,11.1,3.37,17.33-19.28.49-17.11,20.1,1,22.83-9.49,5.56-6.12,27.44,19.41,24.4-9.32,9.26,5.82,18.64,21.48,13-.54,10.21,10.38,12.91,19,5-2.36,10.55,13.24,10.15,18.12,3.75,2.84,6.66,17.37,3.19,26.69-6.79a67.21,67.21,0,0,0,2.59-7.51C185.78,226.54,115.29,212.12,91.61,194.54Z"/>
        <path class="cls-15" d="M91.61,194.54a99.6,99.6,0,0,1-18.4-17.78c-4.11,4.29.85,13.05,8.12,19.28-19.28.49-14,17.49,4.07,20.23-9.49,5.55-6.66,24.6,18.87,21.56-9.31,9.27,4,15.23,19.67,9.64-.55,10.2,9,11.24,17.58,3.32-2.36,10.55,11.78,9.6,16.66,3.21,2.84,6.65,14.74,12.3,24.06,2.32a67.21,67.21,0,0,0,2.59-7.51C185.78,226.54,115.29,212.12,91.61,194.54Z"/>
        <path class="cls-10" d="M141.41,195.43c-10.87-3.46-22.11-7-30.36-12.23-3-1.87-5.89-3.88-8.73-6-5.8-3.45-11.75-5.28-17.2-5.28-7,0-12.7,3.15-14.5,8-1.63,4.4.1,9.35,4.73,13.7-9,.62-12.52,5.38-12.79,9.78-.34,5.4,4.35,11.9,13.7,13.77C72.8,219.91,71.33,225,72.69,230c2.06,7.6,9.39,12.14,19.61,12.14h0c1.1,0,2.25,0,3.42-.15-2,2.48-2.63,5.13-1.62,7.57,1.73,4.2,7.69,7,14.82,7a28.68,28.68,0,0,0,9-1.48,9.54,9.54,0,0,0,2.41,6.74,9,9,0,0,0,6.63,2.65,15.76,15.76,0,0,0,9.75-3.84,6.42,6.42,0,0,0,1.28,4.76c1.43,1.79,3.94,2.78,7.07,2.78,4,0,8.1-1.64,10.38-4.15,1.19,2,3.52,3,6.67,3,6.46,0,14.69-4.17,20.47-10.38l.1-.14a58.9,58.9,0,0,0,4.7-25.23C186.46,209.72,163.56,202.45,141.41,195.43ZM181.81,256c-5.52,5.89-13.6,10-19.69,10-2.18,0-5-.54-6.11-3.12l-.33-.78-.52.68c-2,2.59-6,4.34-10.09,4.34-2.78,0-5.08-.88-6.3-2.4a6,6,0,0,1-.87-5.3l.35-1.54L137.09,259c-3.14,2.88-6.73,4.47-10.12,4.47a8,8,0,0,1-5.91-2.34,8.8,8.8,0,0,1-2.12-6.73l0-.74-.7.25a27.78,27.78,0,0,1-9.36,1.65c-6.63,0-12.35-2.63-13.91-6.4-1-2.41-.2-5,2.3-7.48l1-1-1.42.17a41,41,0,0,1-4.6.29h0c-9.74,0-16.71-4.27-18.65-11.42-1.37-5,.34-10.12,4.16-12.35l1.2-.71-1.38-.21C68,215,63.22,208.68,63.54,203.49c.26-4.15,3.82-8.67,13.05-8.91l1.29,0-1-.84c-5-4.26-6.93-9.15-5.36-13.42,1.66-4.48,7-7.37,13.58-7.37A33.17,33.17,0,0,1,101.77,178c2.83,2.1,5.77,4.12,8.75,6,8.36,5.28,19.67,8.87,30.59,12.34,21.83,6.92,44.39,14.09,45.3,34.95A57.89,57.89,0,0,1,181.81,256Z"/>
        <path class="cls-10" d="M136.75,287.16l.72.68A136.09,136.09,0,0,0,156,263.37l-.85-.5A134.61,134.61,0,0,1,136.75,287.16Z"/>
        <path class="cls-10" d="M112.36,283.23l.55.83c8.85-5.8,17.23-14,24.91-24.41l-.79-.59C129.42,269.36,121.12,277.5,112.36,283.23Z"/>
        <path class="cls-10" d="M80,273l.24,1c15.72-3.89,28.68-10.37,38.53-19.25l-.66-.73C108.39,262.77,95.57,269.17,80,273Z"/>
        <path class="cls-10" d="M34.71,234.47l-.41.89c13.78,6.31,27.14,9.45,40.37,9.45a86.3,86.3,0,0,0,22.42-3l-.26-1C76.39,246.33,56.07,244.24,34.71,234.47Z"/>
        <path class="cls-10" d="M27.25,192.12c11.57,12.17,29.87,21.39,50.2,25.28l.19-1c-20.14-3.87-38.24-13-49.68-25Z"/>
        <path class="cls-10" d="M35.08,153.09l-.89.42c8.39,17.53,22.58,31.33,42.17,41l.44-.88C57.41,184.06,43.38,170.41,35.08,153.09Z"/>
        <path class="cls-9" d="M110.79,183.62C56.49,149.4,47.61,90.93,34.8,92c11.35,12,23.1,75.44,70.55,100s72.25,20.14,81.43,45.77a52.47,52.47,0,0,0,.12-6.53C185.52,199.5,135.73,199.35,110.79,183.62Z"/>
        <path class="cls-16" d="M110.79,183.62C56.49,149.4,47.61,90.93,34.8,92c12.12,4.7,22.85,66.83,74.93,96,46.61,26.14,49.89,12.68,76.05,36.49C178.09,199.39,133.84,198.16,110.79,183.62Z"/>
        <path class="cls-10" d="M141.41,195.43c-10.87-3.46-22.11-7-30.36-12.23C77.4,162,61.36,131.66,50.75,111.58c-6.55-12.4-10.82-20.48-16-20l-1,.09.7.74c3.25,3.43,6.58,11.27,10.79,21.2C55.63,138,71.33,175,105.13,192.5c17.63,9.13,32.18,14.28,43.88,18.41,19.71,7,31.61,11.19,37.31,27.09l.77,2.17.18-2.3a51.94,51.94,0,0,0,.12-6.59C186.46,209.72,163.56,202.45,141.41,195.43Zm45,40.11c-6.13-14.61-18-18.8-37.08-25.56-11.67-4.12-26.19-9.26-43.76-18.36-33.48-17.34-49.1-54.1-59.44-78.43C42.21,104,39.05,96.5,35.94,92.6c4.14.9,8.3,8.77,13.94,19.44,10.66,20.17,26.77,50.65,60.64,72,8.36,5.28,19.67,8.87,30.59,12.34,21.83,6.92,44.39,14.09,45.3,34.95C186.47,232.71,186.47,234.12,186.42,235.54Z"/>
      </g>
      <g>
        <path class="cls-5" d="M287,382.54c-6.57,15.06-26.95,39.24-33.86,42.16-8.15,3.45-13.93,2.16-23.19,9-7.24,5.34-10.36,15.66-8.93,25.6,1.14,7.91,7.92,14.2,13.44,10.47,2.58,4.79,9.06,6.85,13.76,4.27s3.43-7.66,2.14-13.05,6.85-14.43,17.48-17.32c10-.91,13.32,4.31,16.09,2.92s1.54-14.93-7.08-17.93c7.64-9.28,30.67-34.17,36.54-48C307,389.07,296.65,389.3,287,382.54Z"/>
        <path class="cls-6" d="M287,382.54c-6.57,15.06-26.95,39.24-33.86,42.16-8.15,3.45-13.93,2.16-23.19,9-7.24,5.34-10.36,15.66-8.93,25.6a16.11,16.11,0,0,0,4,8.59c1,1,2.88.9,3.64-1.55,1.37-4.43-.87-9.19,3.56-14.74a29.91,29.91,0,0,0,2.9,19.22,10.67,10.67,0,0,0,10.71,4.11c4.06-1,1.73-9,.44-14.4s5.42-18.15,16-21c7.79-1.41,9.91,1.38,12.69,0s1.43-6.68-7.19-9.68c7.64-9.27,37.56-34.19,31.33-42.54A24.54,24.54,0,0,1,287,382.54Z"/>
        <path class="cls-7" d="M253.15,424.7c-8.15,3.45-13.93,2.16-23.19,9-7.24,5.34-10.36,15.66-8.93,25.6a16.82,16.82,0,0,0,1.6,5.09c-2.3-11.89,2.42-22.71,10.2-28.32,8.07-5.84,15.64-6.54,21.26-8.48,3.64-1.24,20.06-16.86,29.68-33.15,4-6.69,2.24-9.41,1-7.4C276.7,402,259.41,422.06,253.15,424.7Z"/>
        <path class="cls-7" d="M235.13,470.83a10.4,10.4,0,0,0,4,3.26c-6.32-7.24-7.3-25.81,2.14-34.8C226.92,446.38,232.38,467.08,235.13,470.83Z"/>
        <path class="cls-8" d="M300.44,386.83c-4.23,0-8.77-1.62-13.14-4.69l-.5-.35-.24.56c-6.4,14.66-26.64,38.95-33.61,41.9a48.3,48.3,0,0,1-8.15,2.48c-4.51,1.06-9.16,2.17-15.14,6.58-7.07,5.22-10.65,15.45-9.12,26.07,1,6.61,5.65,12,10.46,12a6.49,6.49,0,0,0,3.29-.9,11.15,11.15,0,0,0,9.44,5.2,9.81,9.81,0,0,0,4.74-1.19c5-2.73,3.68-8.14,2.44-13.37l-.06-.22c-1.18-5,6.64-13.89,17-16.72.77-.07,1.53-.11,2.26-.11a21.5,21.5,0,0,1,9.46,2.23,8.77,8.77,0,0,0,3.31,1,2.73,2.73,0,0,0,1.24-.29c1.16-.58,1.74-2.62,1.56-5.46-.33-5.06-3-11-8.05-13.13,1.49-1.78,3.47-4.07,5.73-6.69,10.25-11.85,25.72-29.76,30.45-40.89l1.52-3.57L313,380.38A15.46,15.46,0,0,1,300.44,386.83Zm-17.79,34.29c-2.49,2.88-4.64,5.37-6.17,7.23l-.45.55.66.23c5.11,1.78,7.72,7.56,8,12.51.18,2.67-.4,4.21-1,4.52-.9.45-2.06,0-3.71-.77a22.31,22.31,0,0,0-9.86-2.31,23.48,23.48,0,0,0-2.43.12c-11.17,3-19.14,12.39-17.83,17.92l.06.22c1.26,5.32,2.36,9.91-2,12.28a8.91,8.91,0,0,1-4.26,1.06,10.09,10.09,0,0,1-8.83-5.14l-.26-.48-.45.31a5.67,5.67,0,0,1-3.19,1c-4.27,0-8.61-5.11-9.49-11.15-1.47-10.26,2-20.13,8.74-25.13,5.81-4.3,10.16-5.33,14.77-6.42a48.74,48.74,0,0,0,8.32-2.54c7-3,27.16-27,33.88-41.86a24,24,0,0,0,13.22,4.52,15.93,15.93,0,0,0,11.05-4.31C305.64,394.53,292,410.34,282.65,421.12Z"/>
        <path class="cls-8" d="M239.73,439.44a17.54,17.54,0,0,0-6.36,7.36c-3.28,6.68-3,15.13.65,23.19l.9-.42c-3.57-7.78-3.81-15.92-.66-22.33a16.37,16.37,0,0,1,11-9.1A9.11,9.11,0,0,0,239.73,439.44Z"/>
      </g>
      <g>
        <path class="cls-12" d="M188.83,240.57a223.22,223.22,0,0,1-21.47-6.69c-22.8,28-15.8,101.87,30.47,126.49.66.35,1.31.68,2,1,61.95,30.38,110.18,11.45,117.92,5.34,7.12-5.63-4.16-82-35.21-126.21C253.21,250.18,217.64,248,188.83,240.57Z"/>
        <path class="cls-11" d="M188.83,240.57a223.22,223.22,0,0,1-21.47-6.69c-22.8,28-15.8,101.87,30.47,126.49.66.35,1.31.68,2,1,61.95,30.38,110.18,11.45,117.92,5.34,7.12-5.63-4.16-82-35.21-126.21C253.21,250.18,217.64,248,188.83,240.57Z"/>
        <path class="cls-9" d="M188.83,240.57a223.22,223.22,0,0,1-21.47-6.69c-15.36,18.89-17.2,58.57-2.61,90,1.25,2.69,12.07,24.36,39.84,33,28.7,8.91,58.55,4.61,63.23-5.61,29.17-4.26,52.09,3.3,51.63-2.45-2.11-26.5-14.25-76-36.93-108.27C253.21,250.18,217.64,248,188.83,240.57Z"/>
        <path class="cls-12" d="M188.83,240.57a223.22,223.22,0,0,1-21.47-6.69c-9.72,12-14,32.22-12.18,53.44h0c1.3,5.69,3.28,10.57,5.15,12.82.9-4.39,1-8.2,2.28-10.62-1.87,13.08,1.34,16.06,3.59,19.53,1.28-2.77,3-9.7,4.91-13.18.14,12.33,5.42,27.7,15.23,33.25-.75-14.16,1.11-19.88,1.11-19.88,2.07,8.71,8.22,16.59,12.34,22,2-15,9.2-22.22,13.88-30.28,1.61,4.77,3.2,9.31,2.85,15.75,10.56-8.7,22.52-19,30.09-41.29,2,6,.42,17.6.42,17.6,9-5.88,31.12-24.16,31.71-51.36C250.19,250,216.42,247.67,188.83,240.57Z"/>
        <path class="cls-10" d="M282.93,240.22l-.21-.29-.35.11c-12.95,4.27-27.72,6.44-43.89,6.44A201.61,201.61,0,0,1,189,240.09a222.18,222.18,0,0,1-21.42-6.67l-.34-.13-.22.28c-11.63,14.31-15.73,40.44-10.44,66.58,5.59,27.64,20.56,49.75,41.07,60.66.66.35,1.32.68,2,1,22.79,11.18,45.93,16.84,68.8,16.84,26.47,0,44.88-7.78,49.65-11.55,3.94-3.11,2.59-24.24-3.12-49.14C308,287.58,296.28,259.25,282.93,240.22Zm34.5,126.11c-4.69,3.7-22.83,11.35-49,11.35-22.71,0-45.72-5.64-68.36-16.75-.67-.32-1.32-.65-2-1-20.25-10.78-35-32.64-40.56-60-5.2-25.69-1.27-51.34,10-65.49A218.93,218.93,0,0,0,188.7,241a202.21,202.21,0,0,0,49.78,6.43c16.13,0,30.88-2.15,43.85-6.38C313.61,285.9,324.05,361.1,317.43,366.33Z"/>
        <path class="cls-11" d="M267.82,351.23c.63,6.18,3,11.12,5.43,15.44,18.37,32.43,53.7,28.82,45.3-26.27Z"/>
        <path class="cls-9" d="M273.25,366.67c5.38,9.5,14.21,15.46,21.36,17.23,9.81,2.42,23-2.39,23.94-43.5a67.89,67.89,0,0,0-24.52-.08c-14,2.4-26.21,10.91-26.21,10.91C268.45,357.41,270.8,362.35,273.25,366.67Z"/>
        <path class="cls-10" d="M318,340.12c0,.1,0,.56.07.66C321.76,365.1,317,382,305.47,386c-10.19,3.53-23.27-4.52-31.79-19.58a52.87,52.87,0,0,1-5.86-15.19s-.48,2.26,1.41,8.15a41.28,41.28,0,0,0,3.59,7.53c7.45,13.15,17.94,20.93,27.5,20.93a16.44,16.44,0,0,0,5.47-.91c12.11-4.19,17.06-21.61,13.24-46.61Z"/>
      </g>
      <g>
        <path class="cls-12" d="M485.33,186c-4.77-3.09-25.3,14.94-33.11,18.34,29.12-24.9,40.65-60.77,31-62.71-12.4-2.49-55.05,38.55-93.08,57.26S295,216.79,279.29,243c-19.57,32.61-.16,59.08,15,73.88,22.17,21.66,46.55,21.65,47.23,20.38,1.26-2.33-2.76-5-7.54-12.15,24.38,8.4,50.84,7,53,2.63s-11.44-10.24-19.15-16C418,315,441.41,292.51,439,286.65s-20.12-2.13-32-2.5c52.45-8.21,62.8-38.32,61-43s-17.95,2.42-31.16,7.44C493,218.1,490.09,189.06,485.33,186Z"/>
        <path class="cls-11" d="M485.33,186c-2.52-1.63-17.18,16.07-37.66,30.75-18.34,13.15-42.66,23.76-45.58,17.8C436,219.69,454,202.78,454.83,202c22.09-20.11,33.21-46.17,31.58-56.25-5.81-12.62-54,58.79-101.07,76.73-39.61,15.1-86.18,25-106,20.53-19.57,32.61-.16,59.08,15,73.88,22.17,21.66,46.55,21.65,47.23,20.38.55-1-16-9.4-29.59-18.38-14.64-9.64-18.83-21.69-10.43-16.47,10.17,16.84,33.84,23.16,34.52,23.38,23.8,7.64,48.86,6.16,51,1.95,1.18-2.34-25-11.41-50-18.35-18.14-5-26.24-15-15.32-12.51,27,14.6,48.94,15.05,50.3,15.1,47.24,1.74,69.33-19.64,66.95-25.34-1.12-2.69-28.44,6.46-53.7,7-29.79.58-57.16-7.48-41.81-11.79,33.3,7.84,66.07,1.92,67.3,1.7,49.17-9,59-37.81,57.19-42.34-.88-2.21-18.32,10.9-39.51,19.22-23.17,9.1-58.8,14.87-50.6,5.37,31.11-.29,61.19-18.38,62.27-19C492.91,217,490,189,485.33,186Z"/>
        <path class="cls-10" d="M485.59,185.56a3,3,0,0,0-1.66-.44c-4.11,0-12.12,5.61-19.86,11-3,2.07-5.81,4.07-8.22,5.58,22.26-20.62,33.35-47.43,30.86-57-.53-2.06-1.7-3.32-3.38-3.66a6.27,6.27,0,0,0-1.26-.12c-7.27,0-21.43,10.27-39.36,23.28-16.41,11.91-35,25.4-52.77,34.13-14.95,7.36-32.81,11.68-50.09,15.86-26.41,6.39-51.35,12.43-61,28.49-8.72,14.54-10.6,29.35-5.56,44,3.52,10.27,10.46,20.51,20.64,30.45,16.94,16.56,36,21,44.65,21,3,0,3.25-.51,3.35-.71,1-1.77-.49-3.54-2.89-6.48-1.1-1.34-2.42-3-3.83-5a116.68,116.68,0,0,0,35,5.65c7.41,0,15.84-1,17.24-3.74,1.75-3.44-4.66-7.35-11.43-11.49-2.22-1.35-4.49-2.74-6.48-4.11,2.65.14,5.3.21,7.88.21,34.25,0,55.07-12.6,60.72-21.07,1.36-2.05,1.8-3.79,1.28-5.05-1.35-3.22-6.64-3.64-11.1-3.64-3,0-6.36.22-9.63.43-1.88.12-3.78.24-5.64.32,34.94-7,48.09-23.93,52.22-31.16,3.1-5.44,3.8-9.72,3.13-11.41-.48-1.21-1.75-1.82-3.77-1.82-4.68,0-13.2,3.23-21.64,6.51,40.84-23.87,44.91-45.47,45.15-51.73C488.29,190,487.3,186.66,485.59,185.56Zm1.56,8.36c-.25,6.42-4.64,29.33-50.6,54.27l.41.89,5.24-2c8.71-3.39,17.72-6.9,22.43-6.9,1.6,0,2.53.4,2.85,1.21.47,1.18,0,5.09-3.07,10.55-4.29,7.51-18.47,25.64-57.5,31.75l.06,1c3.6.11,7.76-.16,11.78-.42,3.26-.2,6.63-.42,9.57-.42,6.09,0,9.32,1,10.19,3,.38.91-.06,2.41-1.19,4.12-5.53,8.3-26,20.63-59.9,20.63-3.11,0-6.32-.1-9.53-.31l-1.66-.1,1.33,1c2.32,1.72,5.18,3.47,7.94,5.16,6.1,3.72,12.4,7.57,11.07,10.2-.78,1.54-6.23,3.2-16.36,3.2a115.12,115.12,0,0,1-36.08-6.08l-1.39-.48.82,1.23c1.75,2.6,3.4,4.62,4.73,6.24,2.27,2.78,3.36,4.2,2.82,5.33a8,8,0,0,1-2.52.25c-8.46,0-27.25-4.35-44-20.68C270,292.47,265,267.82,279.71,243.26c9.42-15.7,34.17-21.69,60.37-28,17.33-4.19,35.25-8.53,50.3-15.93,17.83-8.77,36.46-22.29,52.91-34.22C460.37,152.69,475.12,142,482.07,142a5.19,5.19,0,0,1,1.07.1c1.3.26,2.18,1.25,2.62,2.94,2.54,9.75-9.67,38.22-33.86,58.91l-2.51,2.14,3-1.32c2.87-1.25,7.41-4.43,12.22-7.8,7.26-5.08,15.49-10.85,19.29-10.85a2.1,2.1,0,0,1,1.13.27C486.18,187.11,487.32,189.78,487.15,193.92Z"/>
        <path class="cls-13" d="M391.42,198.23l-1.26.62c-18.84,9.28-42.38,13.76-63.24,19.12-4.66,1.2-42.87,25.45-46.49,47.12-5,29.78,23.9,48.26,41.28,31.8,24.41,4.74,28.86-5.41,22.66-14.59,27.91-.48,38.69-7.75,34.19-16.2,27.82-6.28,36.85-26.9,24.56-31.71C433.18,213,423.32,195,391.42,198.23Z"/>
        <path class="cls-14" d="M417.68,203.12c-17.05,12.78-35.14,22.32-74.45,31.71-23.33,5.58-59.18,8.59-62.8,30.26-5,29.78,23.9,48.26,41.28,31.8,24.41,4.74,28.86-5.41,22.66-14.59,27.91-.48,38.69-7.75,34.19-16.2,27.82-6.28,36.85-26.9,24.56-31.71C421.41,221.36,424.92,209.6,417.68,203.12Z"/>
        <path class="cls-15" d="M417.68,203.12c-17.05,12.78-35.14,22.32-74.45,31.71-23.33,5.58-59.18,8.59-62.8,30.26-5,29.78,21.59,42.59,39,26.13,24.41,4.75,23.47-4.64,17.27-13.81,27.91-.49,37.38-5.53,32.89-14,27.82-6.29,37.62-23.79,25.33-28.6C419.3,221.7,424.92,209.6,417.68,203.12Z"/>
        <path class="cls-10" d="M398.54,197.36c-2.27,0-4.68.13-7.17.38l-1.42.67c-14.95,7.36-32.82,11.68-50.1,15.86-4.32,1-8.79,2.13-13.05,3.22-5.06,1.3-43.17,25.45-46.85,47.51-1.84,11,.71,21.22,7.16,28.83,5.23,6.18,12.38,9.72,19.63,9.72a21.91,21.91,0,0,0,15.12-6.13,58.57,58.57,0,0,0,10.91,1.17c8.92,0,12.39-3,13.72-5.51,1.51-2.84,1.06-6.56-1.23-10.3,18.41-.42,30.41-3.84,33.83-9.65a7,7,0,0,0,.19-6.68c18.64-4.4,29-15.21,29.68-23.71a8.26,8.26,0,0,0-4.85-8.45c13.24-9.62,19.46-19.33,17.09-26.75C419.13,201.07,410.87,197.36,398.54,197.36ZM402.83,234l-.74.53.85.33a7.34,7.34,0,0,1,5,7.81c-.61,8-11.16,18.81-29.52,23l-.63.15.3.57a6.1,6.1,0,0,1,.11,6.29c-3.25,5.51-15.6,8.86-33.88,9.18h-.91l.51.76c2.49,3.68,3.1,7.34,1.66,10-1.73,3.26-6.18,5-12.85,5a58.83,58.83,0,0,1-11-1.19l-.25-.05-.18.17a21,21,0,0,1-14.63,6c-6.95,0-13.83-3.42-18.88-9.37-6.26-7.4-8.72-17.35-6.94-28,3.54-21.2,41.32-45.49,46.13-46.72,4.25-1.09,8.72-2.17,13-3.22,17.33-4.19,35.25-8.53,50.3-15.94l1.18-.58c2.42-.24,4.77-.36,7-.36,11.87,0,19.79,3.46,21.72,9.49C422.53,215,416.18,224.48,402.83,234Z"/>
        <path class="cls-9" d="M483.24,141.6c-12.4-2.48-55,38.54-93.08,57.25S295,216.79,279.29,243a57.83,57.83,0,0,0-7.12,17.39l9-5.65c19.92-22.56,61.7-23.84,95.4-36.47,53.73-20.14,97.06-79.57,108.91-74.45l.06-.19A3,3,0,0,0,483.24,141.6Z"/>
        <path class="cls-16" d="M390.16,198.85c-38,18.71-95.14,17.94-110.87,44.16,27.52-22.18,78.83-23.62,113.61-41.56,53.37-27.52,57-47.72,90.34-59.85C470.84,139.12,428.2,180.14,390.16,198.85Z"/>
        <path class="cls-10" d="M483.33,141.12c-6.8-1.37-21.73,9.46-40.62,23.16-16.41,11.9-35,25.39-52.76,34.13-14.95,7.36-32.82,11.68-50.1,15.86-26.41,6.39-51.35,12.43-61,28.49a59.18,59.18,0,0,0-7.18,17.54l1,.21a57.71,57.71,0,0,1,7.06-17.24c9.42-15.71,34.17-21.7,60.38-28,17.32-4.19,35.24-8.53,50.29-15.93,17.83-8.78,36.47-22.3,52.91-34.22,18-13,33.45-24.28,39.85-23a2.43,2.43,0,0,1,1.55,1c-5.69-.9-16.24,8.51-30.54,21.24-19.91,17.74-47.18,42-77.76,53.49C365.17,222,353,225,341.12,227.87c-21.56,5.24-42.06,10.22-55.72,22a27.9,27.9,0,0,0-3.87,5.2c13.17-14.92,35.83-20.42,59.83-26.26,11.85-2.87,24.1-5.85,35.37-10.08,30.76-11.52,58.11-35.88,78.08-53.67,14.34-12.77,25.67-22.86,30.47-20.79l.51.22.26-.88-.07-.16A3.5,3.5,0,0,0,483.33,141.12Z"/>
        <path class="cls-10" d="M402.9,234l.43.88c14.89-7.21,35.51-18.29,49.21-30.14l-.64-.75C438.27,215.72,417.73,226.76,402.9,234Z"/>
        <path class="cls-10" d="M378.53,265.53l.06,1c11-.73,33.2-4,58.43-17.46l-.47-.87C411.49,261.59,389.44,264.8,378.53,265.53Z"/>
        <path class="cls-10" d="M344.47,281.81l-.2,1a178.36,178.36,0,0,0,36.36,3.51,215.36,215.36,0,0,0,26.42-1.65l-.12-1C377.48,287.3,355.16,284.07,344.47,281.81Z"/>
        <path class="cls-10" d="M321.47,297.33c11,5.82,27.93,13.14,46.34,14.94l.09-1c-18.25-1.78-35.07-9-46-14.82Z"/>
        <path class="cls-10" d="M301.92,302.18l-.85.49c5.35,9.33,16.37,17,32.73,22.91l.34-.92C318,318.86,307.16,311.3,301.92,302.18Z"/>
      </g>
      <g>
        <path class="cls-17" d="M164.07,233.45c-8.08,9.56-17.76,22.86-12.46,41.62,1.25-4.08,1.3-7.38,3.88-11.22-3.23,9.95.28,25.38,4.28,29.85.87-3.94,3.45-15,4.7-17.19-1.81,11.74-.17,22.67,2,25.78,1.24-2.49,4.24-11.48,6.13-14.61.13,11.08,2.51,28.36,12,33.36-.72-12.73,3-21.16,3-21.16.21,9.75,7.34,17.49,11.33,22.36,1.91-13.48,12.57-20.63,16.12-33.67-.4,8.57,4.09,15.93,3.75,21.7,10.21-7.81,26.17-28.13,28.72-45.35,2,5.38,2.2,22,2.2,22,10.11-6.1,32.44-34,24.23-57.19C242.35,199.64,186.82,206.56,164.07,233.45Z"/>
        <path class="cls-18" d="M164.07,233.45c-1.39,1.65-2.83,3.41-4.23,5.28a34.81,34.81,0,0,0-3.76,12.69c3-2,4.93-4.93,7.89-5.92-3,7.9-5.92,15.79-4.93,24.67,3-4.93,6.9-8.88,12.82-10.85-2,7.89-3.94,14.8-3,22.69,2-3.94,5.93-6.91,8.89-9.87-1,7.9-2,14.81,2,21.71,1-5.92,4-9.86,4.93-15.78,2,7.89,3,15.78,9.87,20.72,3-6.91,3.95-13.82,4.93-20.72,2,4.93,3.95,9.86,3.95,14.8,7.89-8.88,11.84-18.75,14.8-29.61,1,7.9,3.95,14.81,3.95,22.7,9.87-6.91,10.86-19.74,16.78-29.6a76.57,76.57,0,0,1,2,14.8c4.93-8.88,8.88-17.76,10.85-27.63,6.91,7.89,3,16.77,4,25.65,9-12.48,12.66-28.85,12-44.67C235.47,200.59,185.38,208.26,164.07,233.45Z"/>
        <path class="cls-19" d="M274.41,229.5l-.08-.09c-13.45-12.8-32.24-19.86-52.92-19.86-23.3,0-45.41,9-57.72,23.58-9.51,11.26-17.62,24.14-12.56,42.08l.46,1.61.49-1.6c.38-1.23.65-2.39.91-3.52a33.3,33.3,0,0,1,1.13-4.07c-1.49,9.87,1.75,22.45,5.29,26.4l.64.72.21-.94c.6-2.76,2-8.76,3.19-12.94-.83,9.74.51,18.69,2.62,21.71l.47.68.37-.75c.5-1,1.25-3,2.12-5.23,1-2.54,2.13-5.56,3.12-7.68.29,8,2.07,26.53,12.21,31.87l.77.41,0-.87a52.57,52.57,0,0,1,2.24-18.82c1.05,8.08,6.52,14.65,10.24,19.13l1,1.23.72.87.15-1.11c1-7.17,4.5-12.44,8.19-18,2.58-3.91,5.24-7.94,7-12.71a49.64,49.64,0,0,0,2.1,10c.9,3.15,1.76,6.13,1.6,8.67l-.06,1.08.86-.66c10-7.67,25-26.66,28.52-43.5,1.4,6.55,1.6,19.66,1.6,19.81l0,.86.73-.44c10.74-6.49,32.6-34.76,24.44-57.78Zm-24.18,56.58c-.07-3.55-.48-16.59-2.21-21.33l-.66-1.82-.29,1.92c-2.46,16.65-17.4,36.11-27.73,44.4a34,34,0,0,0-1.65-7.95c-1.09-3.81-2.32-8.12-2.11-12.71l.21-4.48-1.18,4.33c-1.61,5.92-4.76,10.69-7.8,15.3-3.4,5.16-6.92,10.48-8.16,17.35l-.33-.4c-4-4.79-10-12-10.19-20.82l0-2.19-.9,2c0,.08-3.64,8.28-3.14,20.48-9.87-6.16-10.89-26.33-11-32.49l0-1.73-.9,1.48a77,77,0,0,0-4.06,9.51c-.65,1.7-1.24,3.23-1.69,4.29-1.76-3.69-3.17-13.61-1.46-24.64l.4-2.61L164,276.26c-1.28,2.24-3.76,12.95-4.52,16.32-3.62-5.17-6.58-19.28-3.56-28.58l1.09-3.36-2,2.93a21.62,21.62,0,0,0-3.05,7.91c-.13.56-.26,1.12-.41,1.69-3.93-16.58,3.81-28.73,12.83-39.4,12.12-14.33,33.94-23.23,57-23.23,20.38,0,38.89,6.93,52.15,19.51C281.26,252,261,278.94,250.23,286.08Z"/>
      </g>
      <g>
        <path class="cls-17" d="M275.28,47.85c-64.63-26.58-118-7.78-133.59,16.31s-20,61.24-23.62,64.89c-3.2,3.18-18.2,11-19.85,34.87-2,28.56,31.48,61.41,90.6,76.65,47.86,12.33,114.37,10.23,139.85-36.68S355.92,81,275.28,47.85Z"/>
        <path class="cls-18" d="M271.68,191.59C311,96.46,232.55,47.16,187,146.08c-8.13-7.31-15.58-9.07-27.33-8,14.71-71.22-24.05-63-26-58.28-9.22,22-12.58,46.3-15.51,49.22-3.2,3.18-18.31,11.69-16.51,35.58,2,26.46,26,52.26,85.34,66.67C251.47,247,329.62,213.37,271.68,191.59Z"/>
        <path class="cls-19" d="M275.47,47.39c-21-8.62-41.84-13-62.07-13-32.21,0-60.52,11.57-72.13,29.48-10.2,15.75-15.58,36.93-19.14,51-1.8,7.08-3.22,12.68-4.41,13.86a25.11,25.11,0,0,1-2.07,1.71c-5.36,4.19-16.51,12.9-17.93,33.48-1,14.47,7,30,22.57,43.72,16.54,14.61,40.2,26.17,68.41,33.43a202.35,202.35,0,0,0,49.79,6.43h0c43.25,0,75.44-15.4,90.62-43.35,16.5-30.39,20.19-65.9,9.85-95C329.11,81.44,307.75,60.67,275.47,47.39Zm52.77,156.26c-20.24,37.27-64.92,42.83-89.75,42.83A201.69,201.69,0,0,1,189,240.09C133.71,225.86,96.6,194.55,98.71,164c1.39-20.14,12.3-28.67,17.55-32.77a26.88,26.88,0,0,0,2.16-1.79c1.37-1.37,2.68-6.52,4.66-14.32,3.55-14,8.9-35,19-50.65,8.68-13.39,32.56-29,71.3-29,20.1,0,40.85,4.35,61.69,12.92,32,13.16,53.19,33.74,62.94,61.16C348.27,138.29,344.61,173.5,328.24,203.65Z"/>
      </g>
      <g>
        <path class="cls-11" d="M275.28,47.85c-64.63-26.57-118-7.78-133.59,16.31a88,88,0,0,0-5,8.78s0,0,0,0c17.7-11.39,34.74,28.79,21.42,69.45,0,0,16.45-7.06,30,8.94,6.68-33.53,38.17-77,71.4-66.78s37.74,66.08,25.17,96.86c14.78-2.64,33.37,1.48,45.23,20h0C354.18,154.37,354.53,80.44,275.28,47.85Z"/>
        <path class="cls-9" d="M275.28,47.85c-64.63-26.57-118-7.78-133.59,16.31a88,88,0,0,0-5,8.78s0,0,0,0c17.7-11.39,34.74,28.79,21.42,69.45,0,0,16.45-7.06,30,8.94,6.68-33.53,38.17-77,71.4-66.78,18.39,5.66,28,25.3,30.76,46.94,5.24,35.07,27.65,33.86,36.16,17.63C344.74,114.31,317.32,65.14,275.28,47.85Z"/>
        <path class="cls-10" d="M275.46,47.39c-20.95-8.62-41.83-13-62-13-32.21,0-60.53,11.57-72.14,29.48a88.73,88.73,0,0,0-5,8.83l-.06.1v.12l.44,0,.31.42c5.68-3.65,11.68-1.84,16.54,4.86,8.6,11.87,12.78,37.67,4.15,64l-.34,1,1-.43a24.45,24.45,0,0,1,8.66-1.51c5.49,0,13.55,1.79,20.78,10.32l.66.78.2-1c6.39-32.12,33-67.91,60.89-67.91a33.45,33.45,0,0,1,9.88,1.5c10,3.09,18.23,10.82,23.69,22.36,9.58,20.25,10.08,52,1.16,73.85l-.34.83.89-.16a45.74,45.74,0,0,1,8.09-.72c8.78,0,25.22,2.66,36.63,20.5l.15.22h.6l.14-.26c15.55-30.24,18.61-65.21,8.18-93.53C328.58,80.94,307.34,60.5,275.46,47.39Zm54.44,153.1c-11.65-17.6-28.14-20.26-37-20.26a47.13,47.13,0,0,0-7.4.59c8.68-22,8.06-53.6-1.51-73.82-5.58-11.8-14-19.71-24.29-22.89a34.7,34.7,0,0,0-10.17-1.54c-30.66,0-55.68,39.69-61.66,67.73-7.29-8.17-15.34-9.91-20.87-9.91a26.45,26.45,0,0,0-8.08,1.23c8.33-26.34,4.05-52-4.59-63.95-4.77-6.58-10.74-8.74-16.44-5.92,1.35-2.63,2.77-5.08,4.22-7.32,8.68-13.39,32.57-29,71.31-29,20.09,0,40.84,4.35,61.68,12.91,31.6,13,52.66,33.25,62.58,60.18C347.92,136.32,345,170.66,329.9,200.49Z"/>
      </g>
      <g>
        <path class="cls-11" d="M227.17,5.2c-14.79-3-30.3,12.5-6,19.71-19.13-2.7-31.9,7.66-31.41,20.81s16,12.73,23.84,4.59c2.69-2.78,5.76-6.24,9.29-8.6,3.14-2.08,7.58-3.64,10.46-1.94l23.88,1.94C253,24.5,245,8.78,227.17,5.2Z"/>
        <path class="cls-9" d="M227.17,5.2c-7.54-1.52-15.28,1.77-17.82,6.31-1.45,2.58.15,4.54,3.31,7a43.73,43.73,0,0,0,7.8,4.12c3.38,1.43,3,2.44.68,2.29-19.13-2.7-31.9,7.66-31.41,20.81s14.65,6.33,22.52-1.81c2.68-2.79,13.69-13.46,21.07-4.14a44.36,44.36,0,0,0,12.47,3.5,25,25,0,0,0,10.93-1.45,1.21,1.21,0,0,1,.48-.11C253,24.5,245,8.78,227.17,5.2Z"/>
        <path class="cls-10" d="M227.27,4.71c-8.32-1.66-17.6,2.41-19.09,8.4-.53,2.11-.53,7.07,8.95,10.93-8.6-.39-16.25,1.93-21.42,6.59a19.12,19.12,0,0,0-6.47,15.11c.19,4.93,2.5,8.49,6.5,10a13,13,0,0,0,4.61.8,19.63,19.63,0,0,0,13.58-5.9l1.24-1.3c4.78-5,10.72-11.26,18.15-9.59,0,0-1.57-2-5.92-.78-5.12,1.45-9.35,5.91-13,9.69L213.22,50c-4.59,4.76-12,6.85-17.12,4.87-2.56-1-5.66-3.35-5.87-9.14a18.11,18.11,0,0,1,6.14-14.33c5.75-5.2,14.75-7.37,24.7-6l.21-1c-8.82-2.62-13.24-6.66-12.14-11.09,1.2-4.86,9.47-9.36,17.94-7.67,14.91,3,24.33,14.48,29.64,36.14l1-.23C252.34,19.81,242.4,7.74,227.27,4.71Z"/>
        <path class="cls-16" d="M197.94,31.69C191.4,37,190.34,46,193.13,45.14c2.34-.74,2.05-5.26,6.16-9.5,2.22-2.28,5.68-6.67,16.16-8.26C212.74,26.51,204.47,26.39,197.94,31.69Z"/>
        <path class="cls-16" d="M222.46,7.22c-6.28.14-8.93,2.7-6.33,4.24,1.58.94,5.86,1.09,10.18,1.32,6.52.35,12.17,3.1,18.57,9.47,1.39,1.38,2.78.81,1.86-.87A26.54,26.54,0,0,0,222.46,7.22Z"/>
      </g>
      <g>
        <path class="cls-20" d="M224.18,160.09s-15.07-21.47-.26-44.17c13.31-20.41,32.91-11.9,35.13-9.54,0,0,25.94,17.75-1.37,49C238.91,176.85,224.18,160.09,224.18,160.09Z"/>
        <path class="cls-20" d="M131.61,140s-12.14-8.44-8-27,9.87-26.72,21.27-29.5S162.2,93.89,162,104.24,160.82,135,139.18,142C139.18,142,134.23,142.43,131.61,140Z"/>
        <g>
          <path class="cls-21" d="M150.53,88.27c-8.91-3.6-19.7,4.57-24.11,18.24s-.75,27.66,8.15,31.26,19.7-4.56,24.11-18.23S159.43,91.87,150.53,88.27Z"/>
          <path class="cls-22" d="M150.53,88.27c-8.91-3.6-19.7,4.57-24.11,18.24s27.85,26.7,32.26,13S159.43,91.87,150.53,88.27Z"/>
          <path d="M150.67,87.83c-9.21-3.73-20.17,4.62-24.64,18.51a35.9,35.9,0,0,0-.93,19.71c1.58,6,4.89,10.37,9.33,12.17.25.1.49.18.76.27,9,3,19.53-5.28,23.89-18.79C163.55,105.81,159.78,91.51,150.67,87.83Zm7.61,31.55c-4.32,13.4-14.81,21.48-23.56,18-4.18-1.69-7.31-5.79-8.81-11.55a34.78,34.78,0,0,1,.91-19.11c4.21-13,14.25-21,22.86-18.21.23.08.47.16.7.26C159.05,92.22,162.6,106,158.28,119.38Z"/>
          <path class="cls-23" d="M145.53,98.11c-6-2.43-13.24,3.06-16.2,12.25s-.51,18.61,5.48,21,13.24-3.07,16.21-12.26S151.52,100.52,145.53,98.11Z"/>
          <path class="cls-24" d="M145.53,98.11c-6-2.43-13.24,3.06-16.2,12.25s18.72,18,21.69,8.77S151.52,100.52,145.53,98.11Z"/>
          <path class="cls-25" d="M145.68,97.66c-6.25-2.53-13.71,3.12-16.75,12.54a24.31,24.31,0,0,0-.63,13.35c1.08,4.12,3.34,7.06,6.36,8.28a3.74,3.74,0,0,0,.52.19c6.15,2,13.28-3.57,16.23-12.73a24.21,24.21,0,0,0,.63-13.35C151,101.82,148.7,98.88,145.68,97.66ZM150.62,119c-2.88,8.93-9.87,14.32-15.67,12-2.76-1.12-4.84-3.84-5.83-7.66a23.14,23.14,0,0,1,.61-12.76c2.8-8.69,9.47-14,15.19-12.14l.47.17c2.77,1.12,4.84,3.84,5.83,7.66A23.23,23.23,0,0,1,150.62,119Z"/>
          <path d="M142.54,105.49c-3.75-1.51-8.29,1.93-10.15,7.68s-.31,11.65,3.43,13.17,8.3-1.92,10.15-7.68S146.29,107,142.54,105.49Z"/>
          <path class="cls-22" d="M148.42,106.2a3.23,3.23,0,0,0-4.27,2.2,3.87,3.87,0,0,0,2,4.79,3.23,3.23,0,0,0,4.27-2.2A3.87,3.87,0,0,0,148.42,106.2Z"/>
        </g>
        <g>
          <path class="cls-21" d="M251,110.09c-10.46-3.77-23.12,4.79-28.28,19.11s-.89,29,9.56,32.76,23.12-4.78,28.28-19.1S261.48,113.87,251,110.09Z"/>
          <path class="cls-22" d="M251,110.09c-10.46-3.77-23.12,4.79-28.28,19.11s32.68,28,37.84,13.66S261.48,113.87,251,110.09Z"/>
          <path d="M251.2,109.63c-10.8-3.91-23.67,4.84-28.92,19.4a33.73,33.73,0,0,0-1.09,20.65c1.85,6.34,5.74,10.87,10.95,12.75.3.11.57.19.89.29,10.61,3.12,22.92-5.53,28-19.69C266.31,128.47,261.89,113.49,251.2,109.63Zm8.93,33.06c-5.07,14-17.38,22.51-27.65,18.81-4.9-1.77-8.57-6.07-10.33-12.1a32.72,32.72,0,0,1,1.06-20c4.94-13.67,16.72-22.05,26.82-19.08.28.08.56.17.83.27C261,114.23,265.19,128.65,260.13,142.69Z"/>
          <path class="cls-23" d="M245.17,120.4c-7-2.54-15.54,3.21-19,12.84s-.59,19.5,6.43,22,15.55-3.21,19-12.84S252.2,122.93,245.17,120.4Z"/>
          <path class="cls-24" d="M245.17,120.4c-7-2.54-15.54,3.21-19,12.84s22,18.82,25.45,9.19S252.2,122.93,245.17,120.4Z"/>
          <path class="cls-25" d="M245.34,119.93c-7.33-2.65-16.09,3.27-19.65,13.14a22.86,22.86,0,0,0-.74,14c1.26,4.31,3.91,7.4,7.47,8.68a6,6,0,0,0,.6.2c7.22,2.12,15.59-3.74,19-13.34a22.78,22.78,0,0,0,.73-14C251.54,124.29,248.89,121.21,245.34,119.93Zm5.8,22.33c-3.38,9.36-11.58,15-18.39,12.55-3.24-1.18-5.67-4-6.84-8a21.84,21.84,0,0,1,.71-13.37c3.29-9.11,11.12-14.7,17.83-12.73l.55.18c3.25,1.18,5.68,4,6.85,8A21.92,21.92,0,0,1,251.14,142.26Z"/>
          <path d="M241.66,128.14c-4.4-1.59-9.73,2-11.91,8s-.37,12.21,4,13.8,9.73-2,11.91-8S246.06,129.73,241.66,128.14Z"/>
          <path class="cls-22" d="M247.78,130.05a3.91,3.91,0,1,0,2.31,5A3.91,3.91,0,0,0,247.78,130.05Z"/>
        </g>
        <g>
          <path class="cls-18" d="M216.82,155.17s24.19,2.9,33.3,14.53l1.39,3.48-29.06-2.94S205.22,158.47,216.82,155.17Z"/>
          <path class="cls-19" d="M214.79,157s20.25-5.3,36.42,15.39c0,0-4.41-9.11-16.74-14.59S214.79,157,214.79,157Z"/>
          <path class="cls-18" d="M121.15,134.46s11.93-3.12,26.78,6.54S118,139.17,121.15,134.46Z"/>
          <path class="cls-19" d="M121.15,134.46a37.52,37.52,0,0,1,29.44,8.69s-6.1-6.94-14.36-8.69A36.69,36.69,0,0,0,121.15,134.46Z"/>
        </g>
        <path d="M133.79,86.2c6-5.69,12.91-8.63,17.52-5.68C150.08,74.88,142.21,75,133.79,86.2Z"/>
        <path d="M254.4,99.62c7,2.37,17.19,10.86,21.32,24.51C274.79,108.19,264.14,97.35,254.4,99.62Z"/>
      </g>
      <g>
        <path class="cls-5" d="M174,132.79c-7.33-7.3-15.86-18.11-27.87-20.66s-24,9.76-25.16,23.47c2.32-4.72,10.63-6.8,13.18-6.23,5.76,4.82,15.2,22,15.89,27.8s-7.17,21.55-17.76,33.91c19.79.5,50.75-14.8,56.51-37.43C191.46,143.07,181.31,140.08,174,132.79Z"/>
        <path class="cls-6" d="M174,132.79c-7.33-7.3-15.86-18.11-27.87-20.66-11.13-2.38-22.24,8.05-24.73,20.51a12.21,12.21,0,0,1,10.77-7.07c11.67,0,29.11,21.42,39.71,24.21s19.16-1.64,13.23-7.84C182,139,177.63,136.42,174,132.79Z"/>
        <path class="cls-7" d="M146.11,112.13c-7.52-1.61-15,2.64-19.88,9.4,5.82-5.3,12.16-7.17,18.67-5.79,15.76,3.33,25.73,20.23,37.87,24.21a100.61,100.61,0,0,1-8.79-7.16C166.65,125.49,158.12,114.68,146.11,112.13Z"/>
        <path class="cls-8" d="M180.54,137.61a60.42,60.42,0,0,1-6.22-5.17c-1.16-1.17-2.37-2.42-3.6-3.71-6.69-7-14.27-14.91-24.5-17.09a16.16,16.16,0,0,0-3.33-.35c-10.84,0-21.33,11.34-22.43,24.27l-.22,2.61,1.15-2.35c2-4,8.59-6,11.74-6a4.42,4.42,0,0,1,.78.06c5.7,4.86,15,21.8,15.62,27.4.65,5.36-6.77,20.83-17.65,33.53l-.67.79,1,0h1c18.92,0,50.16-14.73,56-37.82C191.29,145.74,186.07,141.79,180.54,137.61Zm7.75,15.92c-5.75,22.59-36.36,37-55,37.07,10-11.89,17.94-27.35,17.2-33.48-.7-5.92-10.11-23.15-16.06-28.13l-.09-.08-.12,0a5.08,5.08,0,0,0-1.11-.11c-2.89,0-8.54,1.63-11.44,4.88,1.89-11.6,11.39-21.38,21.2-21.38a14.83,14.83,0,0,1,3.12.33c9.93,2.12,17.4,9.92,24,16.8,1.25,1.3,2.46,2.56,3.63,3.73A60.94,60.94,0,0,0,180,138.4C185.43,142.55,190.17,146.13,188.29,153.53Z"/>
        <path class="cls-8" d="M150.06,140.08c-6.67-5.82-12.43-10.85-15.88-11.2l-.1,1c3.14.32,9.06,5.49,15.33,11,9.12,8,19.23,16.8,26.62,16.8a7.34,7.34,0,0,0,4.44-1.39l-.57-.8C173.19,160.29,160.37,149.08,150.06,140.08Z"/>
        <path class="cls-26" d="M139.05,131.7c8.11,10.43,14.09,22.14,14.49,26.36-.77,7.32-5.33,18.36-10.75,25.9,8.79-3,36-13.16,37.39-28.12C170.57,162.81,150.24,139.36,139.05,131.7Z"/>
        <path class="cls-8" d="M176.06,156.63h0c-7.06,0-17.12-8.79-26-16.54a132.59,132.59,0,0,0-10.74-8.8l-.67.71c8,10.29,14,22,14.39,26-.76,7.22-5.34,18.26-10.66,25.66l-.9,1.26,1.46-.5a124.52,124.52,0,0,0,19.88-8.68l-1.55-.25a125.14,125.14,0,0,1-17.22,7.5c5-7.48,9.24-17.92,10-25-.37-4-5.39-14.1-12.53-23.9,2.41,1.9,5.11,4.26,7.92,6.72,9,7.86,19.21,16.77,26.63,16.77h0a7.52,7.52,0,0,0,3.5-.81,13.57,13.57,0,0,1-.53,2l.92.36a14.11,14.11,0,0,0,.73-3.26l.09-1.08-.87.63A6.31,6.31,0,0,1,176.06,156.63Z"/>
        <path class="cls-8" d="M181,154.9a4.19,4.19,0,0,0-4-.74,8,8,0,0,1,5.73,4.33A4.19,4.19,0,0,0,181,154.9Z"/>
        <g>
          <path class="cls-27" d="M168.39,159.84a7.1,7.1,0,0,0-6.57-1.61c-5.53,1.55-9.91,8.28-17.18,8.9-6.51.56-11.74,1.62-11.63,2.92.18,2.29,22,6.79,36.85.28a0,0,0,0,1,0,0c3.95-2.68,7.34-5.82,9-9.38C175.93,155.79,168.39,159.84,168.39,159.84Z"/>
          <path class="cls-28" d="M157.34,166.74a3.79,3.79,0,0,0-2.34-4.53c-3,2.23-6.22,4.57-10.36,4.92-6.51.56-11.74,1.62-11.63,2.92.18,2.29,22,6.79,36.85.28a0,0,0,0,1,0,0c.89-.61,1.74-1.24,2.56-1.89C169.17,164.19,162.48,164.17,157.34,166.74Z"/>
          <path class="cls-29" d="M174.08,157.93a13.86,13.86,0,0,0-5.64,1.44,7.5,7.5,0,0,0-6.72-1.53c-2.42.68-4.56,2.27-6.84,4-3,2.25-6.19,4.59-10.27,4.93-5.56.48-12.16,1.44-12,3.35s9.57,4,18.66,4c5,0,12.27-.59,18.69-3.39l.3-.19c4.44-3,7.47-6.2,9-9.41l.09-.2-.1-.18A5.55,5.55,0,0,0,174.08,157.93Zm-4.34,12-.28.14c-6.25,2.68-13.32,3.25-18.19,3.25-10,0-17.69-2.31-17.87-3.29,0-.5,2.67-1.76,11.27-2.49,4.31-.37,7.55-2.77,10.69-5.09,2.21-1.64,4.3-3.19,6.57-3.82a6.11,6.11,0,0,1,1.69-.24,6.92,6.92,0,0,1,4.5,1.76l.21.19.25-.13a13.41,13.41,0,0,1,5.5-1.47,4.81,4.81,0,0,1,4.37,2.23C176.94,164,174,167,169.74,169.92Z"/>
          <path class="cls-29" d="M164.32,161.84c-3.5,2.29-8.3,5.44-12.94,6.19a10.34,10.34,0,0,0,4.8-.63,52.71,52.71,0,0,0,8.58-4.89,33.92,33.92,0,0,1,3.79-2.3l-.33-.73A33.06,33.06,0,0,0,164.32,161.84Z"/>
        </g>
        <path class="cls-8" d="M161.28,175.5l1.55.25c7.73-4.34,14.83-9.95,17.12-16.6l-.92-.36C176.77,165.5,169.28,171.17,161.28,175.5Z"/>
      </g>
    </g>
  </g>
</svg>
