<svg id="Layer_1" data-name="Layer 1" xmlns="http://www.w3.org/2000/svg" width="623" height="456" viewBox="0 0 623 456">
  <defs>
    <style>
      .cls-1 {
        fill: #8d8e8d;
      }

      .cls-2 {
        fill: #f3ff00;
      }

      .cls-3 {
        fill: #8436ff;
      }
    </style>
  </defs>
  <g>
    <path class="cls-1" d="M431.32,197.55q-16.59-17.7-31.51-17.7a63.31,63.31,0,0,0-27.65,6.08c-9.56,4.63-30.57,19.44-48.19,33.22,8.25-12.28,19.44-39,17.79-54.31-.82-7.61-1.59-14.72-4.76-21.2a85.79,85.79,0,0,0-8.92-20.86h59.41l0-30.6H170.71l0,30.6H300.49a26.77,26.77,0,0,1,6,4.52c5.51,5.5,8.31,19.37,9.51,29,1.4,11.16,1.4,31.38-12.76,46.54-4,5.75-11.35,10-16,10q-13,2-23.28,3.25a140.9,140.9,0,0,1-16.27,1.25q-8.52,0-8.51,8.51,0,3.51,9.51,14t13,10.52c2.66,0,23.86-7.19,43.38-7.19,36.54,28.28,37.95,60.55,17,81.36-7.86,7.94-20.22,12.55-39.41,11.24-17-1.16-29-6-42.17-18.21S201.73,267,190.05,240.64l-13.52,7.51c14.68,31.87,40.65,75,57.84,91.27s36,24.4,56.32,24.4q30,0,48.81-16.55c20.94-19.93,30.51-48.76,19.35-80.84-1.73-5-7.22-14.66-15.54-23.62,9.27-8.36,23.25-20,32.44-25.08q18.53-10.23,27.93-10.23A26.42,26.42,0,0,1,422.2,215q8,7.47,8,20.19a96.69,96.69,0,0,1-8.6,39.3c-7.37,16.59-28.42,58.76-38.37,72.76l25.91,16.61c8.48-11.06,30.27-54.86,35.43-68.68s7.74-26.82,7.74-39Q452.33,220.22,431.32,197.55Z"/>
    <path class="cls-2" d="M434,195c-11.73-12.51-23.24-18.86-34.2-18.86a67.29,67.29,0,0,0-29.26,6.45c-7.78,3.77-21.85,13.38-35.16,23.23,6.13-13.46,11.25-30.13,10-41.4-.85-7.79-1.64-15.15-5-22.13a96.89,96.89,0,0,0-6.14-15.84h53.17a3.7,3.7,0,0,0,3.69-3.69l0-30.6a3.69,3.69,0,0,0-3.69-3.69H170.71A3.69,3.69,0,0,0,167,92.17l0,30.6a3.69,3.69,0,0,0,3.69,3.7H299.49a22.85,22.85,0,0,1,4.36,3.44c3.66,3.65,6.82,13.68,8.46,26.82,1.28,10.19,1.44,29.39-11.8,43.57a3.47,3.47,0,0,0-.34.42c-3.32,4.82-9.59,8.42-13,8.42a3.43,3.43,0,0,0-.56,0c-8.7,1.34-16.5,2.43-23.17,3.24a139.22,139.22,0,0,1-15.82,1.22c-7.75,0-12.2,4.45-12.2,12.2,0,2.57,1.27,6.34,10.46,16.5s13.08,11.72,15.76,11.72c1.12,0,2.6-.36,6.71-1.4,7.75-2,22-5.56,35.41-5.77C321.24,260.69,331,276,331.9,291.18c.71,11.33-3.58,22-12.43,30.77-6.9,7-16.88,10.37-30.5,10.37-1.93,0-4-.07-6-.21-16.53-1.13-27.72-6-39.91-17.24s-37.52-48.46-49.6-75.73a3.68,3.68,0,0,0-2.2-2,3.71,3.71,0,0,0-3,.27l-13.52,7.51a3.69,3.69,0,0,0-1.56,4.77C188,281.84,214,325.2,231.83,342.1s37.62,25.41,58.86,25.41c20.86,0,38.11-5.88,51.25-17.47l.11-.1c23.75-22.62,31.15-53.5,20.29-84.72-1.77-5.07-6.74-13.82-13.83-22.11,9.45-8.32,21.3-17.88,29-22.15,11.74-6.48,20.53-9.77,26.14-9.77a22.62,22.62,0,0,1,16,6.47c4.61,4.29,6.85,10,6.85,17.49a93.91,93.91,0,0,1-8.28,37.8c-7.6,17.1-28.32,58.49-38,72.12a3.68,3.68,0,0,0-.62,2.84,3.76,3.76,0,0,0,1.64,2.41l25.91,16.61a3.73,3.73,0,0,0,2,.58,3.69,3.69,0,0,0,2.93-1.44c8.53-11.13,30.62-55.36,36-69.64s8-27.73,8-40.27C456,231.36,448.62,210.8,434,195Zm10.58,100.12c-5.16,13.82-26.95,57.62-35.43,68.68l-25.91-16.61c9.95-14,31-56.17,38.37-72.76a96.69,96.69,0,0,0,8.6-39.3q0-12.72-8-20.19a26.42,26.42,0,0,0-18.52-7.46q-9.42,0-27.93,10.23c-9.19,5.08-23.17,16.72-32.44,25.08,8.32,9,13.81,18.65,15.54,23.62,11.16,32.08,1.59,60.91-19.35,80.84q-18.76,16.56-48.81,16.55-30.54,0-56.32-24.4c-17.19-16.27-43.16-59.4-57.84-91.27l13.52-7.51c11.68,26.36,37.28,64.76,50.46,76.94s25.19,17.05,42.17,18.21c19.19,1.31,31.55-3.3,39.41-11.24,20.9-20.82,19.49-53.08-17-81.36-19.52,0-40.72,7.18-43.38,7.18q-3.51,0-13-10.51t-9.51-14q0-8.51,8.51-8.51a140.9,140.9,0,0,0,16.27-1.25q10.24-1.25,23.28-3.25c4.67,0,12.05-4.27,16-10,14.16-15.16,14.16-35.38,12.76-46.54-1.2-9.6-4-23.47-9.51-29a26.77,26.77,0,0,0-6-4.52H170.67l0-30.6H387.52l0,30.6H328.08A85.79,85.79,0,0,1,337,143.64c3.17,6.48,3.94,13.59,4.76,21.2,1.65,15.35-9.54,42-17.79,54.31,17.62-13.78,38.63-28.59,48.19-33.22a63.31,63.31,0,0,1,27.65-6.08q14.93,0,31.51,17.7,21,22.68,21,58.61Q452.33,274.4,444.59,295.14Z"/>
    <path class="cls-3" d="M431.32,197.55q-16.59-17.7-31.51-17.7a63.31,63.31,0,0,0-27.65,6.08c-9.56,4.63-30.57,19.44-48.19,33.22,8.25-12.28,19.44-39,17.79-54.31-.82-7.61-1.59-14.72-4.76-21.2a85.79,85.79,0,0,0-8.92-20.86h59.41l0-30.6H170.71l0,30.6H300.49a26.77,26.77,0,0,1,6,4.52c5.51,5.5,8.31,19.37,9.51,29,1.4,11.16,1.4,31.38-12.76,46.54-4,5.75-11.35,10-16,10q-13,2-23.28,3.25a140.9,140.9,0,0,1-16.27,1.25q-8.52,0-8.51,8.51,0,3.51,9.51,14t13,10.52c2.66,0,23.86-7.19,43.38-7.19,36.54,28.28,37.95,60.55,17,81.36-7.86,7.94-20.22,12.55-39.41,11.24-17-1.16-29-6-42.17-18.21S201.73,267,190.05,240.64l-13.52,7.51c14.68,31.87,40.65,75,57.84,91.27s36,24.4,56.32,24.4q30,0,48.81-16.55c20.94-19.93,30.51-48.76,19.35-80.84-1.73-5-7.22-14.66-15.54-23.62,9.27-8.36,23.25-20,32.44-25.08q18.53-10.23,27.93-10.23A26.42,26.42,0,0,1,422.2,215q8,7.47,8,20.19a96.69,96.69,0,0,1-8.6,39.3c-7.37,16.59-28.42,58.76-38.37,72.76l25.91,16.61c8.48-11.06,30.27-54.86,35.43-68.68s7.74-26.82,7.74-39Q452.33,220.22,431.32,197.55Z"/>
  </g>
</svg>
