<svg xmlns="http://www.w3.org/2000/svg" xmlns:xlink="http://www.w3.org/1999/xlink" width="1600" height="900" viewBox="0 0 1600 900">
  <defs>
    <style>
      .cls-1, .cls-29, .cls-30, .cls-36, .cls-38 {
        fill: none;
      }

      .cls-2 {
        isolation: isolate;
      }

      .cls-3 {
        clip-path: url(#clip-path);
      }

      .cls-4 {
        fill: url(#Áåçûìÿííûé_ãðàäèåíò_17);
      }

      .cls-5 {
        fill: #fff4c4;
      }

      .cls-6 {
        fill: #de9b83;
      }

      .cls-13, .cls-15, .cls-18, .cls-26, .cls-6 {
        mix-blend-mode: multiply;
      }

      .cls-13, .cls-6 {
        opacity: 0.4;
      }

      .cls-7 {
        fill: #fff7cd;
      }

      .cls-8 {
        fill: #ce734f;
      }

      .cls-9 {
        fill: #f39e44;
      }

      .cls-10 {
        fill: url(#linear-gradient);
      }

      .cls-11 {
        fill: url(#linear-gradient-2);
      }

      .cls-12 {
        fill: #7c9188;
      }

      .cls-13 {
        fill: #c89284;
      }

      .cls-14 {
        fill: url(#linear-gradient-3);
      }

      .cls-15 {
        fill: #d87988;
      }

      .cls-16 {
        fill: url(#linear-gradient-4);
      }

      .cls-17 {
        fill: url(#linear-gradient-5);
      }

      .cls-18 {
        fill: url(#linear-gradient-6);
      }

      .cls-19 {
        fill: #fba919;
      }

      .cls-20 {
        fill: url(#linear-gradient-7);
      }

      .cls-21 {
        fill: #b7539e;
      }

      .cls-22 {
        fill: url(#linear-gradient-8);
      }

      .cls-23 {
        fill: #c25ba1;
      }

      .cls-24 {
        fill: url(#linear-gradient-9);
      }

      .cls-25 {
        fill: url(#linear-gradient-10);
      }

      .cls-26 {
        fill: url(#linear-gradient-11);
      }

      .cls-27 {
        fill: #e61464;
      }

      .cls-28 {
        fill: #af1e56;
      }

      .cls-29, .cls-30, .cls-36, .cls-43, .cls-48 {
        stroke: #8b1842;
      }

      .cls-29, .cls-30, .cls-31, .cls-32, .cls-34, .cls-35, .cls-36, .cls-38, .cls-39, .cls-41, .cls-42, .cls-43, .cls-44, .cls-45, .cls-46, .cls-47, .cls-48, .cls-51, .cls-65, .cls-74, .cls-78, .cls-84, .cls-85 {
        stroke-miterlimit: 10;
      }

      .cls-29, .cls-39, .cls-41, .cls-42 {
        stroke-width: 0.5px;
      }

      .cls-31, .cls-54 {
        fill: #f58a1f;
      }

      .cls-31, .cls-32, .cls-35, .cls-45 {
        stroke: #8e431f;
      }

      .cls-31, .cls-34, .cls-36, .cls-45, .cls-51 {
        stroke-width: 0.75px;
      }

      .cls-32, .cls-34, .cls-61 {
        fill: #fdc30d;
      }

      .cls-32, .cls-35, .cls-38, .cls-43, .cls-44, .cls-47, .cls-48, .cls-65, .cls-74, .cls-78, .cls-84, .cls-85 {
        stroke-width: 0.25px;
      }

      .cls-33, .cls-35 {
        fill: #ec2224;
      }

      .cls-34, .cls-38, .cls-39, .cls-44, .cls-51 {
        stroke: #89292a;
      }

      .cls-37 {
        fill: #d28034;
      }

      .cls-39, .cls-52 {
        fill: #f9b17f;
      }

      .cls-40, .cls-49 {
        fill: #985825;
      }

      .cls-40 {
        opacity: 0.42;
      }

      .cls-41 {
        fill: #d74627;
        stroke: #86381c;
      }

      .cls-42 {
        fill: #e98e31;
        stroke: #83451e;
      }

      .cls-43 {
        fill: #f9e146;
      }

      .cls-44 {
        fill: #f79e74;
      }

      .cls-45 {
        fill: #f8dc39;
      }

      .cls-46 {
        fill: #e58628;
        stroke: #a35625;
      }

      .cls-47 {
        fill: #64bb46;
        stroke: #22393f;
      }

      .cls-48 {
        fill: #e4c83e;
      }

      .cls-50 {
        fill: #cc1d5f;
      }

      .cls-51 {
        fill: #f9a86b;
      }

      .cls-53 {
        fill: #b25b27;
      }

      .cls-55 {
        fill: #f7a872;
        opacity: 0.41;
      }

      .cls-56 {
        fill: #e4c735;
      }

      .cls-57, .cls-58 {
        fill: #e12b6f;
      }

      .cls-58 {
        opacity: 0.28;
      }

      .cls-59 {
        fill: #8e431f;
      }

      .cls-60 {
        fill: #e58d76;
      }

      .cls-62 {
        fill: #361212;
      }

      .cls-63 {
        fill: #d66c48;
      }

      .cls-64 {
        fill: #5b3015;
      }

      .cls-65 {
        fill: #4c2e2e;
      }

      .cls-65, .cls-84, .cls-85 {
        stroke: #502d14;
      }

      .cls-66 {
        fill: #b8292c;
      }

      .cls-67 {
        fill: #502d14;
      }

      .cls-68 {
        fill: #e78848;
      }

      .cls-68, .cls-75, .cls-76, .cls-78, .cls-79, .cls-80, .cls-81, .cls-82, .cls-83, .cls-84, .cls-85 {
        fill-rule: evenodd;
      }

      .cls-69 {
        fill: #4d3028;
      }

      .cls-70 {
        fill: #141111;
      }

      .cls-71, .cls-78, .cls-83 {
        fill: #fff;
      }

      .cls-72 {
        fill: #5c3a2f;
      }

      .cls-73 {
        fill: #e1876d;
      }

      .cls-74 {
        fill: #d12e46;
      }

      .cls-74, .cls-78 {
        stroke: #9b292a;
      }

      .cls-75 {
        fill: #ed3324;
      }

      .cls-76 {
        fill: #d72526;
      }

      .cls-77 {
        fill: #b72025;
      }

      .cls-79 {
        fill: #e7cdc8;
      }

      .cls-80 {
        fill: #4e2323;
      }

      .cls-81 {
        fill: #8e5141;
      }

      .cls-84 {
        fill: #422226;
      }

      .cls-85 {
        fill: #341e21;
      }
    </style>
    <clipPath id="clip-path">
      <rect class="cls-1" width="1600" height="900"/>
    </clipPath>
    <linearGradient id="Áåçûìÿííûé_ãðàäèåíò_17" data-name="Áåçûìÿííûé ãðàäèåíò 17" x1="775.19" y1="571.4" x2="775.19" y2="963.36" gradientUnits="userSpaceOnUse">
      <stop offset="0" stop-color="#fff2cc"/>
      <stop offset="0.4" stop-color="#f6dcb2"/>
      <stop offset="0.57" stop-color="#efd2aa"/>
      <stop offset="0.84" stop-color="#dcb695"/>
      <stop offset="1" stop-color="#d0a487"/>
    </linearGradient>
    <linearGradient id="linear-gradient" x1="754.02" y1="531.61" x2="754.02" y2="1079.1" gradientUnits="userSpaceOnUse">
      <stop offset="0" stop-color="#fff2cc"/>
      <stop offset="0.36" stop-color="#b8c0bf"/>
      <stop offset="0.57" stop-color="#becac9"/>
      <stop offset="0.94" stop-color="#cee6e4"/>
      <stop offset="1" stop-color="#d1ebe9"/>
    </linearGradient>
    <linearGradient id="linear-gradient-2" x1="792.83" y1="727.44" x2="792.83" y2="35.81" gradientUnits="userSpaceOnUse">
      <stop offset="0" stop-color="#fff2cc"/>
      <stop offset="0.25" stop-color="#cfebeb"/>
      <stop offset="0.28" stop-color="#bfe3e2"/>
      <stop offset="0.33" stop-color="#b4dddb"/>
      <stop offset="0.4" stop-color="#add9d7"/>
      <stop offset="0.6" stop-color="#abd8d6"/>
    </linearGradient>
    <linearGradient id="linear-gradient-3" x1="742.19" y1="82.99" x2="742.19" y2="-380.6" gradientTransform="translate(58.48 252.6) rotate(-2.46)" gradientUnits="userSpaceOnUse">
      <stop offset="0.16" stop-color="#b7539e"/>
      <stop offset="0.46" stop-color="#ac4995"/>
      <stop offset="0.9" stop-color="#a03d8b"/>
    </linearGradient>
    <linearGradient id="linear-gradient-4" x1="8244.56" y1="893.68" x2="8240.74" y2="686.28" gradientTransform="matrix(-1, 0, 0, 1, 9742.65, 0)" gradientUnits="userSpaceOnUse">
      <stop offset="0.14" stop-color="#b7539e"/>
      <stop offset="0.38" stop-color="#a4458e"/>
      <stop offset="0.6" stop-color="#983c84"/>
    </linearGradient>
    <linearGradient id="linear-gradient-5" x1="8301.62" y1="629.94" x2="8313.98" y2="63.89" gradientTransform="matrix(-1, 0, 0, 1, 9742.65, 0)" gradientUnits="userSpaceOnUse">
      <stop offset="0.13" stop-color="#bf6fac"/>
      <stop offset="0.48" stop-color="#ba5fa4"/>
      <stop offset="0.86" stop-color="#b7539e"/>
    </linearGradient>
    <linearGradient id="linear-gradient-6" x1="7996.02" y1="788.01" x2="8010.74" y2="114.33" gradientTransform="matrix(-1, 0, 0, 1, 9454.65, 0)" gradientUnits="userSpaceOnUse">
      <stop offset="0.18" stop-color="#d278b0"/>
      <stop offset="0.25" stop-color="#d27ab1"/>
      <stop offset="0.84" stop-color="#d086b9"/>
    </linearGradient>
    <linearGradient id="linear-gradient-7" x1="10438.68" y1="184.88" x2="10334.26" y2="-3.52" gradientTransform="matrix(-1, 0, 0, 1, 11752.03, 0)" gradientUnits="userSpaceOnUse">
      <stop offset="0.21" stop-color="#b7539e"/>
      <stop offset="0.91" stop-color="#b7539e"/>
    </linearGradient>
    <linearGradient id="linear-gradient-8" x1="605.16" y1="118.04" x2="337.59" y2="-364.75" gradientTransform="translate(-288)" gradientUnits="userSpaceOnUse">
      <stop offset="0.16" stop-color="#b7539e"/>
      <stop offset="0.18" stop-color="#b4509c"/>
      <stop offset="0.31" stop-color="#a94392"/>
      <stop offset="0.47" stop-color="#a23c8c"/>
      <stop offset="0.83" stop-color="#a03a8a"/>
    </linearGradient>
    <linearGradient id="linear-gradient-9" x1="376.1" y1="881.56" x2="372.28" y2="674.16" gradientTransform="translate(-288)" xlink:href="#linear-gradient-4"/>
    <linearGradient id="linear-gradient-10" x1="433.16" y1="617.82" x2="445.52" y2="51.77" gradientTransform="translate(-288)" xlink:href="#linear-gradient-5"/>
    <linearGradient id="linear-gradient-11" x1="127.56" y1="775.89" x2="142.28" y2="102.22" gradientTransform="matrix(1, 0, 0, 1, 0, 0)" xlink:href="#linear-gradient-6"/>
  </defs>
  <g class="cls-2">
    <g id="Layer_1" data-name="Layer 1">
      <g class="cls-3">
        <rect class="cls-4" x="-25.96" y="671.67" width="1602.3" height="196.29"/>
        <rect class="cls-5" x="-25.96" y="604.27" width="1602.3" height="72.58"/>
        <path class="cls-6" d="M163.76,664.53h-147v-.76c0-3.07-2.24-5.57-5-5.57h-.67L9.56,628.49h.74a5.35,5.35,0,0,0,5.11-5.56v-.77H165.12v.77a5.35,5.35,0,0,0,5.11,5.56H171l-1.55,29.71h-.67c-2.75,0-5,2.5-5,5.57ZM18.14,663H162.39a6.78,6.78,0,0,1,5.7-6.29l1.4-26.73a6.86,6.86,0,0,1-5.74-6.29h-147A6.86,6.86,0,0,1,11,630l1.4,26.73A6.78,6.78,0,0,1,18.14,663Z"/>
        <path class="cls-6" d="M376.07,664.53h-147v-.76c0-3.07-2.24-5.57-5-5.57h-.67l-1.55-29.71h.74a5.35,5.35,0,0,0,5.11-5.56v-.77H377.43v.77a5.35,5.35,0,0,0,5.11,5.56h.74l-1.55,29.71h-.67c-2.75,0-5,2.5-5,5.57ZM230.45,663H374.7a6.78,6.78,0,0,1,5.7-6.29L381.8,630a6.86,6.86,0,0,1-5.74-6.29h-147a6.86,6.86,0,0,1-5.74,6.29l1.4,26.73A6.77,6.77,0,0,1,230.45,663Z"/>
        <path class="cls-6" d="M971,664.53H824v-.76a5.31,5.31,0,0,0-5-5.57h-.66l-1.56-29.71h.75a5.35,5.35,0,0,0,5.1-5.56v-.77H972.33v.77a5.35,5.35,0,0,0,5.1,5.56h.75l-1.56,29.71H976a5.31,5.31,0,0,0-5,5.57ZM825.35,663H969.59a6.78,6.78,0,0,1,5.7-6.29l1.4-26.73a6.85,6.85,0,0,1-5.73-6.29H824a6.86,6.86,0,0,1-5.73,6.29l1.4,26.73A6.79,6.79,0,0,1,825.35,663Z"/>
        <path class="cls-6" d="M1180.87,664.53h-147v-.76c0-3.07-2.24-5.57-5-5.57h-.67l-1.55-29.71h.74a5.35,5.35,0,0,0,5.11-5.56v-.77h149.71v.77a5.35,5.35,0,0,0,5.11,5.56h.74l-1.55,29.71h-.66a5.31,5.31,0,0,0-5,5.57ZM1035.25,663H1179.5a6.78,6.78,0,0,1,5.7-6.29l1.4-26.73a6.85,6.85,0,0,1-5.73-6.29h-147a6.86,6.86,0,0,1-5.74,6.29l1.4,26.73A6.77,6.77,0,0,1,1035.25,663Z"/>
        <path class="cls-6" d="M1424.83,664.53H1247.75v-.76c0-3.07-2.24-5.57-5-5.57h-.67l-1.55-29.71h.74a5.35,5.35,0,0,0,5.11-5.56v-.77H1426.2v.77a5.35,5.35,0,0,0,5.1,5.56h.74l-1.55,29.71h-.66a5.31,5.31,0,0,0-5,5.57ZM1249.12,663h174.34a6.78,6.78,0,0,1,5.7-6.29l1.4-26.73a6.85,6.85,0,0,1-5.73-6.29H1247.76A6.86,6.86,0,0,1,1242,630l1.39,26.73A6.77,6.77,0,0,1,1249.12,663Z"/>
        <path class="cls-6" d="M1672.84,664.53H1495.77v-.76a5.31,5.31,0,0,0-5-5.57h-.66l-1.56-29.71h.75a5.35,5.35,0,0,0,5.1-5.56v-.77h179.81v.77a5.35,5.35,0,0,0,5.11,5.56h.74l-1.55,29.71h-.67a5.32,5.32,0,0,0-5,5.57ZM1497.14,663h174.33a6.79,6.79,0,0,1,5.71-6.29l1.39-26.73a6.86,6.86,0,0,1-5.73-6.29H1495.77A6.85,6.85,0,0,1,1490,630l1.4,26.73A6.78,6.78,0,0,1,1497.14,663Z"/>
        <g>
          <path class="cls-7" d="M703.86,674.39l-113.51.25-105.8-.26-16.43-469a406.21,406.21,0,0,1,58.26-57.71,340.62,340.62,0,0,1,67.82-42.5,329.92,329.92,0,0,1,34.35,18.64A342.83,342.83,0,0,1,662,147.61a411.27,411.27,0,0,1,58.18,57.76Z"/>
          <path class="cls-8" d="M726.12,201.56a419.88,419.88,0,0,0-59.85-60.18,337.36,337.36,0,0,0-70.6-44.46l-1.48-.69-1.46.69a339.54,339.54,0,0,0-70.58,44.49,427,427,0,0,0-59.8,60.2l-.9,1.09.06,1.45L480.07,677l.09,2.39h2.19l108-.27,115.7.26h2.18l.09-2.38L727,204.15l.06-1.47ZM703.86,674.39l-113.51.25-105.8-.26-16.43-469a406.21,406.21,0,0,1,58.26-57.71,340.62,340.62,0,0,1,67.82-42.5,329.92,329.92,0,0,1,34.35,18.64A342.83,342.83,0,0,1,662,147.61a411.27,411.27,0,0,1,58.18,57.76Z"/>
          <path class="cls-8" d="M644.07,676.8l9.87-336.25.47,1.67a667.4,667.4,0,0,0-62.21-80h0l4,0A562.83,562.83,0,0,0,534,342.16l.43-1.61,9.91,336.25-3.05.12L529.51,340.74l0-.88.46-.74a576.62,576.62,0,0,1,62.27-81.19l2-2.21,2,2.24h0a673.93,673.93,0,0,1,62.25,81.1l.49.76,0,.92-11.8,336.18Z"/>
          <polygon class="cls-8" points="596.08 100.67 595.24 260.1 593.16 260.1 592.33 100.67 596.08 100.67"/>
          <polygon class="cls-8" points="720.5 310.83 656.87 341.68 656 339.61 718.93 307.11 720.5 310.83"/>
          <polygon class="cls-8" points="469.47 307.11 532.4 339.61 531.53 341.68 467.9 310.83 469.47 307.11"/>
          <polygon class="cls-8" points="576.1 280.13 516.45 150.76 518.12 149.84 577.77 279.21 576.1 280.13"/>
          <polygon class="cls-8" points="549.44 314.48 464.07 204.66 465.5 203.34 550.87 313.16 549.44 314.48"/>
          <polygon class="cls-8" points="672.47 151.22 612.07 280.18 610.21 279.16 669.12 149.38 672.47 151.22"/>
          <polygon class="cls-8" points="724.72 205.32 638.72 314.55 637.13 313.09 721.86 202.68 724.72 205.32"/>
          <g>
            <polygon class="cls-8" points="471.67 384.6 533.62 389.02 533.51 391.29 471.47 388.68 471.67 384.6"/>
            <polygon class="cls-8" points="473.51 434.71 535.2 438.43 535.11 440.7 473.35 438.8 473.51 434.71"/>
            <polygon class="cls-8" points="475.35 484.83 536.78 487.85 536.71 490.11 475.24 488.91 475.35 484.83"/>
            <polygon class="cls-8" points="477.19 534.94 538.36 537.26 538.32 539.53 477.12 539.03 477.19 534.94"/>
            <polygon class="cls-8" points="479.04 585.06 539.94 586.67 539.92 588.94 479 589.15 479.04 585.06"/>
            <polygon class="cls-8" points="480.88 635.18 541.52 636.09 541.52 638.36 480.88 639.27 480.88 635.18"/>
          </g>
          <g>
            <polygon class="cls-8" points="717.02 388.68 654.98 391.29 654.88 389.02 716.82 384.6 717.02 388.68"/>
            <polygon class="cls-8" points="715.14 438.8 653.38 440.7 653.29 438.43 714.98 434.71 715.14 438.8"/>
            <polygon class="cls-8" points="713.25 488.91 651.78 490.11 651.71 487.85 713.14 484.83 713.25 488.91"/>
            <polygon class="cls-8" points="711.37 539.03 650.17 539.53 650.13 537.26 711.29 534.94 711.37 539.03"/>
            <polygon class="cls-8" points="709.49 589.15 648.57 588.94 648.55 586.67 709.45 585.06 709.49 589.15"/>
            <polygon class="cls-8" points="707.61 639.27 646.97 638.36 646.97 636.09 707.61 635.18 707.61 639.27"/>
          </g>
          <rect class="cls-8" x="592.33" y="262.8" width="3.75" height="412.88"/>
          <g>
            <rect class="cls-8" x="533.56" y="339.62" width="60.64" height="2.04"/>
            <rect class="cls-8" x="535.1" y="389.05" width="58.97" height="2.04"/>
            <rect class="cls-8" x="536.64" y="438.48" width="57.29" height="2.04"/>
            <rect class="cls-8" x="538.18" y="487.91" width="55.62" height="2.04"/>
            <rect class="cls-8" x="539.71" y="537.34" width="53.95" height="2.04"/>
            <rect class="cls-8" x="541.25" y="586.77" width="52.27" height="2.04"/>
            <rect class="cls-8" x="542.79" y="636.2" width="50.6" height="2.04"/>
          </g>
          <g>
            <rect class="cls-8" x="594.84" y="339.62" width="60.64" height="2.04"/>
            <rect class="cls-8" x="594.97" y="389.05" width="58.97" height="2.04"/>
            <rect class="cls-8" x="595.11" y="438.48" width="57.29" height="2.04"/>
            <rect class="cls-8" x="595.24" y="487.91" width="55.62" height="2.04"/>
            <rect class="cls-8" x="595.38" y="537.34" width="53.95" height="2.04"/>
            <rect class="cls-8" x="595.51" y="586.77" width="52.27" height="2.04"/>
            <rect class="cls-8" x="595.65" y="636.2" width="50.6" height="2.04"/>
          </g>
        </g>
        <rect class="cls-6" x="-26.34" y="612.64" width="1602.3" height="1.53"/>
        <path class="cls-9" d="M966.58,578H829V92.14H963.94ZM830.9,576H964.7L962.07,94.19H830.9Z"/>
        <path class="cls-9" d="M1180.64,578H1043.08V92.14H1178ZM1045,576h133.8l-2.62-481.79H1045Z"/>
        <path class="cls-9" d="M161.56,578H24V92.14H158.92ZM25.87,576h133.8L157.05,94.19H25.87Z"/>
        <path class="cls-9" d="M370,578H232.44V92.14H367.36Zm-135.68-2h133.8L365.5,94.19H234.32Z"/>
        <path class="cls-9" d="M1633.06,578H1495.49V92.14h134.92Zm-135.69-2h133.8l-2.62-481.79H1497.37Z"/>
        <path class="cls-9" d="M1422.64,578h-165.5V92.14H1420ZM1259,576h161.74l-2.62-481.79H1259Z"/>
        <rect class="cls-10" x="-389.81" y="671.67" width="2287.66" height="274.18"/>
        <rect class="cls-11" x="-365.3" y="21.35" width="2316.26" height="656.55"/>
        <rect class="cls-12" x="-334.66" y="612.88" width="2232.51" height="72.58"/>
        <path class="cls-6" d="M163.76,664.53h-147v-.76c0-3.07-2.24-5.57-5-5.57h-.67L9.56,628.49h.74a5.35,5.35,0,0,0,5.11-5.56v-.77H165.12v.77a5.35,5.35,0,0,0,5.11,5.56H171l-1.55,29.71h-.67c-2.75,0-5,2.5-5,5.57ZM18.14,663H162.39a6.78,6.78,0,0,1,5.7-6.29l1.4-26.73a6.86,6.86,0,0,1-5.74-6.29h-147A6.86,6.86,0,0,1,11,630l1.4,26.73A6.78,6.78,0,0,1,18.14,663Z"/>
        <path class="cls-6" d="M376.07,664.53h-147v-.76c0-3.07-2.24-5.57-5-5.57h-.67l-1.55-29.71h.74a5.35,5.35,0,0,0,5.11-5.56v-.77H377.43v.77a5.35,5.35,0,0,0,5.11,5.56h.74l-1.55,29.71h-.67c-2.75,0-5,2.5-5,5.57ZM230.45,663H374.7a6.78,6.78,0,0,1,5.7-6.29L381.8,630a6.86,6.86,0,0,1-5.74-6.29h-147a6.86,6.86,0,0,1-5.74,6.29l1.4,26.73A6.77,6.77,0,0,1,230.45,663Z"/>
        <path class="cls-6" d="M971,664.53H824v-.76a5.31,5.31,0,0,0-5-5.57h-.66l-1.56-29.71h.75a5.35,5.35,0,0,0,5.1-5.56v-.77H972.33v.77a5.35,5.35,0,0,0,5.1,5.56h.75l-1.56,29.71H976a5.31,5.31,0,0,0-5,5.57ZM825.35,663H969.59a6.78,6.78,0,0,1,5.7-6.29l1.4-26.73a6.85,6.85,0,0,1-5.73-6.29H824a6.86,6.86,0,0,1-5.73,6.29l1.4,26.73A6.79,6.79,0,0,1,825.35,663Z"/>
        <path class="cls-6" d="M1180.87,664.53h-147v-.76c0-3.07-2.24-5.57-5-5.57h-.67l-1.55-29.71h.74a5.35,5.35,0,0,0,5.11-5.56v-.77h149.71v.77a5.35,5.35,0,0,0,5.11,5.56h.74l-1.55,29.71h-.66a5.31,5.31,0,0,0-5,5.57ZM1035.25,663H1179.5a6.78,6.78,0,0,1,5.7-6.29l1.4-26.73a6.85,6.85,0,0,1-5.73-6.29h-147a6.86,6.86,0,0,1-5.74,6.29l1.4,26.73A6.77,6.77,0,0,1,1035.25,663Z"/>
        <path class="cls-6" d="M1424.83,664.53H1247.75v-.76c0-3.07-2.24-5.57-5-5.57h-.67l-1.55-29.71h.74a5.35,5.35,0,0,0,5.11-5.56v-.77H1426.2v.77a5.35,5.35,0,0,0,5.1,5.56h.74l-1.55,29.71h-.66a5.31,5.31,0,0,0-5,5.57ZM1249.12,663h174.34a6.78,6.78,0,0,1,5.7-6.29l1.4-26.73a6.85,6.85,0,0,1-5.73-6.29H1247.76A6.86,6.86,0,0,1,1242,630l1.39,26.73A6.77,6.77,0,0,1,1249.12,663Z"/>
        <rect class="cls-6" x="-26.34" y="612.64" width="1602.3" height="1.53"/>
        <g>
          <path class="cls-9" d="M966.58,578H829V92.14H963.94ZM830.9,576H964.7L962.07,94.19H830.9Z"/>
          <path class="cls-9" d="M1180.64,578H1043.08V92.14H1178ZM1045,576h133.8l-2.62-481.79H1045Z"/>
          <path class="cls-9" d="M161.56,578H24V92.14H158.92ZM25.87,576h133.8L157.05,94.19H25.87Z"/>
          <path class="cls-9" d="M370,578H232.44V92.14H367.36Zm-135.68-2h133.8L365.5,94.19H234.32Z"/>
          <path class="cls-9" d="M1422.64,578h-165.5V92.14H1420ZM1259,576h161.74l-2.62-481.79H1259Z"/>
          <polygon class="cls-13" points="832.43 676.86 834.43 80.48 971.45 75.62 991.7 490.11 1004.84 20.31 790.61 20.31 790.09 684.17 824.37 684.17 832.43 676.86"/>
          <polygon class="cls-13" points="633.77 678.74 631.77 92.64 494.75 87.87 474.5 495.21 461.36 33.51 675.59 33.51 676.11 685.93 641.83 685.93 633.77 678.74"/>
          <polygon class="cls-13" points="366.6 676.86 364.61 80.48 227.58 75.62 207.34 490.11 194.19 20.31 408.43 20.31 408.94 684.17 374.66 684.17 366.6 676.86"/>
          <polygon class="cls-13" points="157.81 676.86 155.82 80.48 18.79 75.62 -1.45 490.11 -14.6 20.31 199.64 20.31 200.15 684.17 165.88 684.17 157.81 676.86"/>
          <polygon class="cls-13" points="1040.27 676.86 1042.27 80.48 1179.29 75.62 1199.54 490.11 1212.68 20.31 998.45 20.31 997.93 684.17 1032.21 684.17 1040.27 676.86"/>
          <polygon class="cls-13" points="1252.24 676.86 1254.24 80.48 1424.09 75.62 1444.33 490.11 1457.48 20.31 1210.42 20.31 1209.91 684.17 1244.18 684.17 1252.24 676.86"/>
          <path class="cls-9" d="M623.39,584.48H485.83V98.6H620.75Zm-135.68-2h133.8l-2.63-481.79H487.71Z"/>
        </g>
        <path class="cls-9" d="M1643.66,582.52H1506.09V96.65H1641Zm-135.69-2h133.8l-2.62-481.79H1508Z"/>
        <polygon class="cls-13" points="1639.91 681.36 1637.91 84.98 1500.89 80.13 1480.64 494.62 1467.5 24.81 1681.73 24.81 1682.25 688.68 1647.97 688.68 1639.91 681.36"/>
        <path class="cls-9" d="M126.72,579.77H-38.78V93.9H124.08Zm-163.63-2H124.84L122.21,95.94H-36.91Z"/>
        <polygon class="cls-13" points="-43.67 678.61 -41.68 82.23 128.17 77.38 148.41 491.87 161.56 22.06 -85.5 22.06 -86.01 685.93 -51.73 685.93 -43.67 678.61"/>
        <g>
          <path class="cls-14" d="M1249.61-242.39c-141.23-107.91-318-200.06-487.11-145.49-152.65,49.25-304.18,73.25-427,176.43-19.37,73.57-25.61,203.1-23,279.13C464.3,129,627.1,169.87,790.82,171.09s329.28-36.6,469.95-120.37C1267.59-21.36,1273.45-174,1249.61-242.39Z"/>
          <path class="cls-15" d="M1205.81,1.53C1162.4,74.37,1078.44,121.3,993.74,117.21c45.46-11.87,80.5-41,108.16-79-55.16,29-117.31,42.89-179.18,50.25,61.52-10.64,120.71-46.85,161.55-94.08C1025.14,21.9,958.78,30.57,893.6,32.58,950.14,29.41,1003.78,5,1046.15-32.57,891.24,1.68,726.1-13.6,579.49-74.2,600.06-40,630-8.34,664.94,10.9,603.66.43,540-14.36,485.49-44.34c20.34,35.45,53,62.54,88.78,82.39s72.83,39,111.56,52C612.14,82.24,539.32,60.55,476.1,21.88,524.28,61.59,579.19,98.56,636.37,123.6c-57.72-13.69-115.71-28.81-168.51-55.85S367.21.58,340.79-52.54C305.76-123,378-210.95,442.35-256.18S586-319.57,663.62-332.13c86.34-13.95,174.08-22.19,261.3-15.75,49.72,3.67,99.58,12.26,145.44,31.82s87.69,50.77,114.22,93C1225.37-158.18,1245-64.33,1205.81,1.53Z"/>
        </g>
        <g>
          <path class="cls-16" d="M1409.76,738.25c1.68,55.73-18.62,113.13-21.32,186.8l218.11,1.59-.73-201.36Z"/>
          <path class="cls-15" d="M1425,746.61a152.37,152.37,0,0,1-5.41,76.18c-.25.77,5.11-1.14,6-1.85,14-11.11,25.2-22.72,33.28-34.6,4.36,38.55-7.88,78.19-43.51,114.5,16.32-3.68,30.67-10,38.29-16.42,28.55-24.16,41.71-50.31,54.66-76.2,13.91,30.79,9.67,63.62-16.55,93.32,15.6-.86,34.07-2.18,47.25-5.36a95.5,95.5,0,0,0,23.17-9c11.83-6.3,21.27-13.2,28-20.45,11.17-12.1,14.57-25,15.86-37.74,2.8-27.83-4.17-55.79-20.67-83-2.5-4.12-5.38-8.35-12.28-11.72-15.71,5-37.56,8.37-58.37,9-8.65.25-17.34.08-26-.09l-52.55-1a32.39,32.39,0,0,0-7.36.41C1426.57,743,1423.11,746,1425,746.61Z"/>
          <path class="cls-17" d="M1252,65.15c0,221.13,86.21,655.54,157.73,673.1,51.16,7.42,142.5-1.45,196.06-13V76.37Z"/>
          <path class="cls-18" d="M1285,117.81c.45,80,16.32,301,47.38,379.85-14.51-47.21-8.41-94.31,4-141.63,8.53,82.25,58.2,163.84,133.44,239-31.34-7.77-53.37-21.41-72.56-34.92a52.54,52.54,0,0,0,15,21c28.52,23.43,62.37,45.57,100.88,66,12.62,6.68,25.93,13.3,34.12,21.25-22.1-4.73-39.21-9.8-56.4-17.59-40.24-18.25-74.35-39.19-100.83-61.9,17.65,29.66,53.9,57.94,85.85,85.11s60.75,56.24,61.91,86.92C1519,750.22,1503,739,1491.43,726.43l-89.1-96.3c13.91,44.79,37.64,89.35,68.59,132.4-2.35,1.74-8.75,3.8-13.09,3.18a33.43,33.43,0,0,1-10.75-3.63c-12.65-6.45-20.59-14.44-27.8-22.39-18.29-20.17-33.12-41-44.32-62.12-6.6,29.43,18.85,44.08,39.36,71.3,6,8,7.19,28.85,21.43,34.46,21,8.27,52.43,3.18,79.56.14,11.17-1.26,22.59-2.93,30.92-6.48a35.73,35.73,0,0,0,15.62-12.72,72.84,72.84,0,0,0,12-23.84c3.23-11.77,28,4.37,27.49-7.48-1.17-25.35,1.17-64,0-89.35-4.48-97,7.59-336.8,0-433.77-.75-9.62,7-42.48,0-51.57-11.87-15.36-68.46-18.26-101.39-25.2s-70-9.19-106.38-9.27C1359.33,123.72,1316.11,124.14,1285,117.81Z"/>
          <g>
            <path class="cls-19" d="M1500.48,746.37c33.62,0,67.25-3.14,97.09-9.4,3.41-.71,4.45-2.23,2.33-3.37s-6.63-1.5-10-.79c-53.73,11.27-120.79,11.54-175,.73-3.46-.69-7.93-.31-10,.86s-.91,2.67,2.55,3.35C1436.22,743.5,1468.34,746.37,1500.48,746.37Z"/>
            <path class="cls-19" d="M1531.34,754.51a613.22,613.22,0,0,0,66.5-3.56c3.82-.42,5.91-1.81,4.66-3.1s-5.34-2-9.18-1.57c-60.46,6.66-126.63,3.22-181.58-9.42-3.33-.77-7.85-.48-10.12.64s-1.41,2.65,1.91,3.41C1442.56,749.88,1487,754.51,1531.34,754.51Z"/>
            <path class="cls-19" d="M1482.35,850.77h0l-2.45-.19c-1.38-.1-2.44-.52-2.65-1.05s.49-1,1.73-1.29l4-.8-6.44-.36c-1.37-.08-2.47-.47-2.77-1s.3-1.05,1.47-1.33l6-1.44q-2.81-.29-5.51-.82c-.94-.18-1.59-.53-1.75-.93s.22-.81,1-1.09a42.13,42.13,0,0,1,9-2.11c-1.77-30.53-3.69-68.19-3.69-88.31h13.27c0,20-1.9,57.46-3.66,87.92.72,0,1.45,0,2.18,0,1.82.07,3.16.69,3,1.38s-1.85,1.2-3.63,1.13c-.56,0-1.12,0-1.68,0l0,.54c.55,0,1.1,0,1.64-.07a5.66,5.66,0,0,1,3.77.76c.61.56.07,1.21-1.29,1.53l-4.31,1.05-.06.93,4.51.25c1.42.08,2.55.5,2.8,1s-.46,1.08-1.72,1.33l-4.44.89c10,13.82,14.25,28.23,12.48,42.55-12.46.1-23.59.23-36.06.34C1469,878.49,1473.24,863.87,1482.35,850.77Z"/>
          </g>
        </g>
        <path class="cls-20" d="M1153.45-21.57s-13.32,81.9,104.23,151.37c106.17,62.74,342.68,32.2,342.68,32.2V-13.86Z"/>
        <path class="cls-21" d="M1125.39-151.41c.45,18.06,4.79,58.92,7.7,76.92a475.32,475.32,0,0,0,13.08,53.73,340.25,340.25,0,0,0,21,53c8.73,17.41,18.83,34.67,32.11,51.21,13.53,16.42,29.72,32.38,51.54,45.83s47.67,24.44,76.61,31.77c57.78,14.92,123.88,16.73,183.82,7.53a518.5,518.5,0,0,1-92.32,2.52c-30.65-1.69-60.8-6.28-88.37-14a330.3,330.3,0,0,1-39.26-13.64,245,245,0,0,1-34-17.7c-20.69-13-36.21-28.59-49.22-44.72-26.22-32.37-42-67.42-54.63-102.59a503.54,503.54,0,0,1-15.67-53.25C1133.29-92.66,1128-133.42,1125.39-151.41Z"/>
        <path class="cls-15" d="M1600.36,148.14C1535.2,154.9,1356.18,156.63,1304,133c44.59,14.39,98,21.8,149,21.78-46.93-3.19-89.85-15.43-127.41-32.1,40.43,11.25,88.36,14.81,133.1,13.19C1386.33,114,1339.85,67.35,1336.79,20c-11.43,13.28-12.62,28.78-6.16,43.14-36.29-35-54.49-80-46.27-120.65-19.44,31.2-25.27,65.67-14.09,98.21-21.94-32.44-25.12-69.17-12.82-103.29-25,26.09-39.21,56.09-35.67,85.88-18.71-35.58-19.2-72-6.93-108.47a252.52,252.52,0,0,0-35,80.24c-18.54-33.62-21.18-74-15.37-109.16C1288.88-86.85,1458.2-57.17,1547.65,0c-3.25,24.34,56-13,52.71,11.37-1.56,11.72-4.27,70.45.2,81.9C1604.52,103.44,1605.89,138.23,1600.36,148.14Z"/>
        <path class="cls-22" d="M466.2-187.07s-16.74,207.78-150.26,276C195.34,150.44.36,120.47.36,120.47V-146.44Z"/>
        <path class="cls-23" d="M466.2-187.07c-.5,17.73-5.44,57.82-8.74,75.48A415.81,415.81,0,0,1,442.6-58.86a308.43,308.43,0,0,1-23.91,52c-9.91,17.09-21.38,34-36.47,50.26-15.36,16.11-33.75,31.77-58.53,45-24.62,13.1-54.14,24-87,31.18C171,134.14,96,135.92,27.88,126.89a680.81,680.81,0,0,0,104.86,2.48c34.81-1.66,69.06-6.17,100.38-13.72a416.18,416.18,0,0,0,44.59-13.39A295.59,295.59,0,0,0,316.37,84.9C339.88,72.16,357.5,56.84,372.28,41,402.07,9.24,420-25.15,434.33-59.66a444.7,444.7,0,0,0,17.8-52.25C457.22-129.42,463.22-169.42,466.2-187.07Z"/>
        <path class="cls-15" d="M50.78,118.45c74,6.62,153.28-3.24,212.55-26.47C212.69,106.11,152,113.38,94.08,113.36a483.38,483.38,0,0,0,144.71-31.5C192.87,92.9,138.43,96.39,87.61,94.8c82.2-21.46,135-67.21,138.47-113.7,13,13,14.34,28.23,7,42.33C274.3-11,295-55.09,285.64-95c22.07,30.62,28.7,64.45,16,96.38,24.93-31.84,28.54-67.88,14.58-101.36,28.4,25.6,44.53,55,40.51,84.27,21.25-34.91,21.81-70.61,7.87-106.44,19.05,25,32.51,52.23,39.72,78.74,21.06-33,32.35-100,25.75-134.51C288.79-151.11,149.8-177.06,48.19-121c3.69,23.88,5.19,148.59,8.88,172.47C58.85,63,60.6,74.71,55.52,86,51,95.92,44.51,108.72,50.78,118.45Z"/>
        <g>
          <path class="cls-24" d="M176.42,726.13c-1.67,55.73,18.63,113.13,21.32,186.8l-218.1,1.59.72-201.36Z"/>
          <path class="cls-15" d="M161.23,734.49a152.48,152.48,0,0,0,5.41,76.18c.26.77-5.1-1.14-6-1.85-14-11.11-25.2-22.71-33.29-34.59-4.36,38.55,7.89,78.19,43.51,114.49-16.31-3.67-30.67-10-38.28-16.42C104,848.15,90.88,822,77.93,796.1,64,826.9,68.26,859.72,94.48,889.42c-15.6-.86-34.08-2.18-47.25-5.36a95,95,0,0,1-23.18-9C12.22,868.75,2.79,861.85-3.9,854.6c-11.17-12.1-14.58-25-15.86-37.74-2.8-27.83,4.16-55.79,20.67-83,2.5-4.12,5.37-8.34,12.28-11.72,15.71,5,37.55,8.37,58.37,9,8.65.25,17.34.08,26-.09l52.54-1a32.48,32.48,0,0,1,7.37.41C159.61,730.89,163.08,733.86,161.23,734.49Z"/>
          <path class="cls-25" d="M334.16,53c0,221.12-86.21,655.53-157.74,673.09-51.15,7.42-142.49-1.45-196.06-13V64.25Z"/>
          <path class="cls-26" d="M301.21,105.69c-.46,80-16.33,301-47.39,379.85,14.52-47.21,8.42-94.3-4-141.63-8.54,82.25-58.21,163.85-133.44,239,31.34-7.77,53.37-21.4,72.55-34.92a52.43,52.43,0,0,1-15,21c-28.51,23.42-62.37,45.56-100.87,66-12.63,6.69-25.93,13.31-34.12,21.25,22.1-4.72,39.21-9.79,56.39-17.59,40.25-18.25,74.35-39.19,100.84-61.9-17.66,29.66-53.9,57.94-85.85,85.12S49.56,718.07,48.4,748.76c18.79-10.65,34.76-21.92,46.35-34.45Q139.3,666.16,183.86,618C170,662.8,146.22,707.36,115.27,750.41c2.34,1.74,8.75,3.8,13.09,3.19A33.53,33.53,0,0,0,139.1,750c12.66-6.46,20.6-14.45,27.81-22.4,18.29-20.16,33.12-41,44.32-62.12-2.34,28.7-23.33,50.08-43.85,77.29-6,8-2.7,22.87-16.94,28.48-21,8.26-52.44,3.18-79.57.13C59.7,770.1,48.28,768.42,40,764.87a35.79,35.79,0,0,1-15.62-12.72,72.8,72.8,0,0,1-12-23.84c-3.24-11.76-28,4.37-27.49-7.48,1.17-25.34-1.17-64,0-89.35,4.47-97-7.59-336.8,0-433.77.75-9.62-7-42.47,0-51.57,11.87-15.36,68.45-18.26,101.38-25.2s70-9.19,106.38-9.27C226.86,111.61,270.08,112,301.21,105.69Z"/>
          <g>
            <path class="cls-19" d="M85.71,734.25c-33.62,0-67.25-3.14-97.09-9.39-3.41-.72-4.46-2.23-2.33-3.38s6.62-1.5,10-.79c53.74,11.27,120.8,11.55,175,.73,3.47-.69,7.93-.3,10,.86s.9,2.67-2.55,3.36C150,731.38,117.84,734.25,85.71,734.25Z"/>
            <path class="cls-19" d="M54.85,742.39a610.43,610.43,0,0,1-66.5-3.56c-3.82-.42-5.91-1.8-4.66-3.09s5.34-2,9.18-1.57c60.45,6.65,126.63,3.21,181.58-9.43,3.32-.76,7.85-.48,10.11.64s1.42,2.65-1.9,3.41C143.63,737.77,99.24,742.39,54.85,742.39Z"/>
            <path class="cls-19" d="M103.83,838.65h0l2.45-.18c1.38-.11,2.44-.53,2.64-1.05s-.49-1-1.73-1.3l-4-.8,6.44-.36c1.38-.08,2.48-.47,2.77-1s-.3-1-1.46-1.33l-6-1.44c1.86-.19,3.71-.46,5.5-.81,1-.19,1.6-.54,1.75-.94s-.21-.8-1-1.08a41.9,41.9,0,0,0-9-2.12c1.77-30.53,3.68-68.18,3.68-88.3H92.65c0,20,1.9,57.45,3.67,87.92-.73,0-1.46,0-2.18,0-1.82.06-3.16.68-3,1.37s1.84,1.21,3.62,1.13c.56,0,1.13,0,1.69,0l0,.55c-.55,0-1.1,0-1.64-.07a5.64,5.64,0,0,0-3.78.75c-.6.56-.06,1.21,1.29,1.54l4.32,1,.06.94-4.52.25c-1.42.08-2.55.49-2.79,1s.45,1.07,1.72,1.32l4.44.9c-10,13.82-14.26,28.23-12.48,42.54l36.05.34C117.19,866.37,113,851.75,103.83,838.65Z"/>
          </g>
        </g>
        <g>
          <path class="cls-27" d="M821.7,456.26l5.88-2.28,84.09,13.89s-71.57,247.61-80.91,285.8S790,902.93,790,902.93H623.55v-8.1l4.14-11.71.6-55.5,3.36-21.88,9.26-68.27,17.56-21.56-7.15-31.4,14.11-25.13-13.12-49.72-3.46-41.1S712.07,503.67,821.7,456.26Z"/>
          <polygon class="cls-28" points="911.66 467.87 946.38 902.93 769.64 902.93 897.96 465.6 911.66 467.87"/>
          <path class="cls-29" d="M635.13,904.94c20.83-17.36,89.1-168.94,118-239.52,23.08-74,96.52-207.8,96.52-207.8"/>
          <path class="cls-30" d="M627.69,883.12c-7.22-30.33,13.22-145.65,13.22-145.65s47.44-57.86,76.73-96C735.36,602.09,836.31,454,836.31,454"/>
        </g>
        <g>
          <ellipse class="cls-31" cx="764.52" cy="619.91" rx="18.68" ry="16.95"/>
          <ellipse class="cls-32" cx="764.52" cy="619.62" rx="12.47" ry="11.32"/>
          <ellipse class="cls-33" cx="764.52" cy="619.62" rx="6.1" ry="5.54"/>
          <ellipse class="cls-34" cx="764.52" cy="644.63" rx="9.9" ry="8.98"/>
          <ellipse class="cls-35" cx="764.52" cy="644.63" rx="5.1" ry="4.63"/>
        </g>
        <g>
          <path class="cls-36" d="M826.6,452.44c-69.21,62-174.29,157.22-174.29,157.22L827.67,451.38S652.48,669.75,651.32,684.51a318.66,318.66,0,0,0,8.17,33.29"/>
          <polygon class="cls-37" points="911.66 467.87 946.38 902.93 905.88 902.93 876.95 580.49 911.66 467.87"/>
          <path class="cls-38" d="M764.33,483.29s-14.66,9.26-20.44,33.17"/>
          <path class="cls-39" d="M733.47,406.93s19.91,50.69-46.28,49.37c-22.37,2.31-46.28-7.72-74.05,47.82C588.45,557.35,579.2,572,579.2,572s30.85,30.09,57.85,32.4l10.8-24.68A28.79,28.79,0,0,1,657.46,555c12-10.8,61.36-45.51,61.36-45.51L827.58,454s-39.34-5.4-39.34-25.45V408.47S761.24,443.18,733.47,406.93Z"/>
          <polygon class="cls-40" points="890.81 558.54 920.05 902.93 905.88 902.93 876.95 593.96 890.81 558.54"/>
          <path class="cls-41" d="M682.56,454.75s5.4,1.55,10,14.66,13.89,36.26,27.77,41.65A431,431,0,0,0,654,563.52s-44-19.29-55.54-33.17C624.71,477.12,633.39,456,682.56,454.75Z"/>
          <polygon class="cls-41" points="883.89 563.52 927.87 531.89 905.88 491.01 883.89 563.52"/>
          <path class="cls-42" d="M927.86,531.89,946.38,572s-13.31,21.87-57.08,33.17c-9.62-4.27-9.62-11.3-12.35-24.68l6.95-17Z"/>
          <path class="cls-43" d="M652.31,609.66l-6.57-25.11s2.11-4.83,11.26-23.91a36,36,0,0,1,6.34-9.23c32.95-36.89,163.26-99,163.26-99"/>
          <path class="cls-44" d="M748.55,536.92c0-1,0-1.91-.11-2.86-.36,2.05-.69,4.1-1,6.17C747.82,539.12,748.17,538,748.55,536.92Z"/>
          <path class="cls-45" d="M802.61,445.39a81.23,81.23,0,0,1,0,8.86c-.29,5.05-.43,7.58-1.55,10.35-1.67,4.17-4.42,6.64-7.11,9a34.45,34.45,0,0,1-10,6.3A33.66,33.66,0,0,1,775,482.2c2.84,1.59,4.6,3.81,4.6,6.27,0,4.86-6.89,8.8-15.38,8.8s-15.4-3.94-15.4-8.8c0-2.33,1.57-4.43,4.15-6-6.59-2.39-20.29-8.48-27.27-22-2.12-4.12-5.23-10.15-2.6-15.91,2.51-5.49,8.7-7.35,10.41-7.81-.63,1.25-1.91,1.93-2.71,3.08,0,0-.76,1.85-.76,1.87.32.7,6.41,32.2,33.6,32.41,27.55.21,32.08-21.91,31.23-31.35-.5-.8-1.32-5.18-1.73-6a15.78,15.78,0,0,1,9.51,8.68Z"/>
          <path class="cls-46" d="M911.67,467.87,858,459S718.43,887.89,712.65,902.93h63.77S914,504.89,911.67,467.87Z"/>
          <g>
            <path class="cls-31" d="M792.68,436.34s28,10.33,10.15,71.34a299.67,299.67,0,0,1-17.4,44.22l1.05,19.66,11.6,5.31s35.31-74.67,28-107.44-27.29-32.87-34.61-35Z"/>
            <g>
              <g>
                <path class="cls-47" d="M802.66,502.83a6.79,6.79,0,0,1,7-1.54,7.69,7.69,0,0,1,3.54,2.28,7.53,7.53,0,0,1,4.17.13,7,7,0,0,1,5,5.45,4.85,4.85,0,0,0,1.13-2c.9-3.07-1.28-6.47-4.89-7.6a7.53,7.53,0,0,0-4.17-.13,7.68,7.68,0,0,0-3.54-2.27c-3.6-1.13-7.25.45-8.15,3.52A5.12,5.12,0,0,0,802.66,502.83Z"/>
                <path class="cls-47" d="M801.58,506.6a6.81,6.81,0,0,1,7-1.54,7.83,7.83,0,0,1,3.54,2.28,7.54,7.54,0,0,1,4.17.13,7,7,0,0,1,5,5.46,5.05,5.05,0,0,0,1.12-2c.91-3.07-1.28-6.47-4.88-7.6a7.63,7.63,0,0,0-4.17-.13,7.76,7.76,0,0,0-3.54-2.27c-3.6-1.13-7.25.45-8.15,3.52A5.14,5.14,0,0,0,801.58,506.6Z"/>
              </g>
              <g>
                <path class="cls-47" d="M797.32,524.53a6.77,6.77,0,0,1,7-1.54,7.87,7.87,0,0,0,7.71,2.4,7,7,0,0,1,5,5.46,4.88,4.88,0,0,0,1.13-2c.9-3.07-1.28-6.47-4.89-7.59a7.53,7.53,0,0,0-4.17-.13,7.69,7.69,0,0,0-3.54-2.28c-3.6-1.12-7.25.45-8.15,3.52A5,5,0,0,0,797.32,524.53Z"/>
                <path class="cls-47" d="M796.24,528.3a6.81,6.81,0,0,1,7-1.54A7.66,7.66,0,0,1,806.8,529a7.57,7.57,0,0,1,4.18.12,7.06,7.06,0,0,1,5,5.46,4.91,4.91,0,0,0,1.12-2c.91-3.07-1.28-6.47-4.88-7.59a7.54,7.54,0,0,0-4.17-.13,7.77,7.77,0,0,0-3.54-2.28c-3.6-1.12-7.25.46-8.15,3.52A5.19,5.19,0,0,0,796.24,528.3Z"/>
              </g>
            </g>
          </g>
          <g>
            <path class="cls-31" d="M730.22,439.87s-28,10.63-10.15,73.46c3.66,12.87,16.94,43.17,25.09,60.78l-8.74,5-11.59,5.47s-35.32-76.9-28-110.64,27.28-33.85,34.6-36Z"/>
            <g>
              <g>
                <path class="cls-47" d="M720.24,508.34a6.66,6.66,0,0,0-7-1.59,7.73,7.73,0,0,0-3.54,2.35,7.35,7.35,0,0,0-4.17.13,7.18,7.18,0,0,0-5,5.62,5,5,0,0,1-1.13-2c-.9-3.16,1.28-6.66,4.89-7.82a7.35,7.35,0,0,1,4.17-.13,7.72,7.72,0,0,1,3.54-2.34c3.6-1.16,7.25.46,8.15,3.62A5.3,5.3,0,0,1,720.24,508.34Z"/>
                <path class="cls-47" d="M721.32,512.23a6.64,6.64,0,0,0-7-1.59,7.68,7.68,0,0,0-3.53,2.34,7.48,7.48,0,0,0-4.18.13,7.2,7.2,0,0,0-5,5.63,5.22,5.22,0,0,1-1.12-2c-.91-3.16,1.28-6.66,4.88-7.82a7.36,7.36,0,0,1,4.17-.13A7.66,7.66,0,0,1,713,506.4c3.6-1.16,7.25.47,8.15,3.63A5.46,5.46,0,0,1,721.32,512.23Z"/>
              </g>
              <g>
                <path class="cls-47" d="M725.58,530.68a6.64,6.64,0,0,0-7-1.58,7.72,7.72,0,0,0-3.54,2.34,7.35,7.35,0,0,0-4.17.13,7.18,7.18,0,0,0-5,5.63,5.11,5.11,0,0,1-1.13-2c-.9-3.16,1.28-6.67,4.89-7.82a7.36,7.36,0,0,1,4.17-.14,7.72,7.72,0,0,1,3.54-2.34c3.6-1.16,7.25.46,8.15,3.63A5.24,5.24,0,0,1,725.58,530.68Z"/>
                <path class="cls-47" d="M726.66,534.57a6.66,6.66,0,0,0-7-1.59,7.63,7.63,0,0,0-3.53,2.35,7.39,7.39,0,0,0-4.18.13,7.17,7.17,0,0,0-5,5.62,5.15,5.15,0,0,1-1.12-2c-.91-3.16,1.28-6.66,4.88-7.82a7.36,7.36,0,0,1,4.17-.13,7.79,7.79,0,0,1,3.54-2.35c3.6-1.16,7.25.47,8.15,3.63A5.46,5.46,0,0,1,726.66,534.57Z"/>
              </g>
            </g>
          </g>
          <path class="cls-38" d="M764.33,518.39s-5.4.39-6.94,24.69"/>
          <polygon class="cls-48" points="876.95 463.76 734.36 902.93 712.65 902.93 858.01 459.01 876.95 463.76"/>
          <path class="cls-38" d="M764.33,495.25s-9.64,3.47-12.34,16.59-2.7,18.9-2.7,18.9"/>
          <polygon class="cls-49" points="922.08 595.15 946.38 902.93 934.23 902.93 905.88 600.9 922.08 595.15"/>
          <path class="cls-50" d="M841.71,710.42s54.18,69.86,41.45,192.51H776.42Z"/>
          <path class="cls-51" d="M710,320.72s-2,54.36,16.55,76C744.58,418,753,423,757.39,423.23s25.82-3,48.35-32.51l8.15-14.84s20.77,10,26-26.23L837,340.59l-8.49,3.4h-7.85s2.25-7.92,1.48-14.91-3.47-19.8-5.58-28.44-4.19-22.52-30.34-19.05C756.73,285.1,721.2,311.84,710,320.72Z"/>
          <g>
            <path class="cls-39" d="M758.92,580.88a5.93,5.93,0,0,1-1.83-4.11,11,11,0,0,1-1.54-1c-2.11-1.78-3.48-3.93-5.16-6.09-1.92-2.45-4.23-4.14-5-7.16a6.28,6.28,0,0,1-7.28,2.69q-.37,6.89-.74,13.77s-90.25,34.71-108,37l6.94-10S591.61,590.65,580,570.6c0,0-34.78,73.14-23.21,100.91,12.34,21.6,65.56,11.57,86.39,0S747.36,615.2,747.36,615.2s17-3.85,17-20.83c0-2.41.07-5.58.19-9.23A26.4,26.4,0,0,1,758.92,580.88Z"/>
            <g>
              <path class="cls-39" d="M769.2,497.4a31.71,31.71,0,0,1-.7,6.57c-.44,2-.89,3-1.74,6.13-.61,2.2-1,4-1.28,5.17l.06-.07c3.81-3.47,4.17,8.16,2,18.15-.14,3.11-.24,6.3-.27,9.57-.08,8.29.25,16.13.86,23.47-.17,4.85-.53,10.07-1.17,15.59-.59,5.17-1.35,10-2.21,14.52L737.33,579c-.68-6.84.49-7.63,1.06-19.67.41-8.68,2.18-16.58,2.72-23.3.28-3.49.56-6.46.79-8.62.92-8.68,6.86-25.28,12.23-37.19,3-6.54,5.73-11.66,7.4-13.27,3.65-.67,4.37,2.7,4.17,6.56a60.73,60.73,0,0,1-1,7.06c1.74-3,3-4.33,3.83-4.1Q770.33,486.93,769.2,497.4Z"/>
              <path class="cls-39" d="M755.91,557.69s4.87-36.93,9.57-42.42"/>
              <path class="cls-39" d="M764.74,490.52h0c-5.07,7.76-13.09,24.44-14.7,31.19-2.31,9.63-3.22,23.62-4.3,28.34"/>
            </g>
            <path class="cls-52" d="M738.66,568.73s1.16,10-6,13.5c-4.05,6.17,30.84,25.46,31.81,10.12-.38-17.07,2.71-28.25-5.78-28.83S738.66,568.73,738.66,568.73Z"/>
          </g>
          <path class="cls-53" d="M791.73,574.61a3.59,3.59,0,1,1,6.35,3.31c-2,6.81-14.74,36.32-14.74,36.32a3.81,3.81,0,0,1-6.38-3.47q7.13-16.68,13.86-33.84C791.13,576.16,791.43,575.38,791.73,574.61Z"/>
          <g>
            <path class="cls-39" d="M774.14,581.17a5.93,5.93,0,0,0,1.83-4.11,11,11,0,0,0,1.54-1c2.11-1.78,3.48-3.93,5.16-6.09,1.92-2.45,4.23-4.14,5-7.16a6.28,6.28,0,0,0,7.28,2.69q.38,6.88.74,13.77s89.32,37.13,107.06,39.45a41.31,41.31,0,0,1-11.57-13.47s43.59-13.16,55.16-33.22c0,0,41.42,72,29.85,99.8-12.34,21.6-65.57,11.57-86.39,0S785.7,615.49,785.7,615.49s-17-3.85-17-20.83c0-2.41-.07-5.58-.19-9.23A26.4,26.4,0,0,0,774.14,581.17Z"/>
            <g>
              <path class="cls-39" d="M763.86,497.69a31,31,0,0,0,.7,6.57c.44,2,.88,3,1.74,6.13.6,2.2,1,4,1.28,5.17l-.06-.07c-3.81-3.47-4.17,8.16-2,18.15.14,3.11.24,6.3.27,9.57.08,8.29-.25,16.13-.86,23.47.17,4.85.53,10.07,1.16,15.59.6,5.17,1.36,10,2.22,14.52l27.41-17.55c.68-6.84-.49-7.63-1.06-19.67-.41-8.68-2.18-16.58-2.72-23.3-.28-3.49-.56-6.46-.79-8.62-.92-8.68-6.86-25.28-12.23-37.19-3-6.54-5.73-11.66-7.4-13.27-3.65-.67-4.37,2.7-4.17,6.56a60.73,60.73,0,0,0,1,7.06c-1.74-3-3-4.33-3.83-4.1Q762.74,487.22,763.86,497.69Z"/>
              <path class="cls-39" d="M777.15,558s-4.87-36.93-9.57-42.42"/>
              <path class="cls-39" d="M768.32,490.81h0c5.07,7.76,13.09,24.44,14.7,31.19,2.31,9.63,3.22,23.62,4.3,28.34"/>
            </g>
            <path class="cls-52" d="M794.4,569s-1.16,10,6,13.5c4,6.17-30.84,25.46-31.81,10.12.38-17.07-2.71-28.25,5.78-28.83S794.4,569,794.4,569Z"/>
          </g>
          <g>
            <path class="cls-54" d="M818.43,585.66a4.21,4.21,0,0,1,7.35,3.84q-4.39,11.78-9.41,24-3.39,8.25-6.84,16.16a4.07,4.07,0,0,1-7.2-3.78C807,614.83,818.43,585.66,818.43,585.66Z"/>
            <path class="cls-53" d="M825.34,589.43a3.9,3.9,0,0,1,6.81,3.55c-2.15,7.32-15.81,39-15.81,39a3.81,3.81,0,0,1-6-4.64q4.6-11.51,9.19-23.11Q822.45,596.81,825.34,589.43Z"/>
            <path class="cls-54" d="M832.05,592.89a3.94,3.94,0,0,1,6.81,3.55q-15.89,39-15.81,39s.37-.82,1.06-2.48c-1.27,3.07-4.5,4-6.13,2.95-1.38-.86-2-3.4-.83-5.75Q824.61,611.52,832.05,592.89Z"/>
            <path class="cls-53" d="M838.85,593.1a4.42,4.42,0,0,1,7.63,4q-17.81,43.6-17.71,43.66s.41-.92,1.19-2.78c-1.43,3.44-5.05,4.45-6.87,3.31-1.54-1-2.25-3.81-.93-6.45Q830.5,614,838.85,593.1Z"/>
          </g>
          <g>
            <path class="cls-53" d="M715,589.26c1.47,5,3.2,10.38,5.25,15.92,2.7,7.31,5.59,14,8.5,20,.67,7.44-5.4,7.89-8.58,0-5.21-10.5-11.66-32.51-11.66-32.51a4.45,4.45,0,0,1,0-4.73,3.53,3.53,0,0,1,2.35-1.51A4.16,4.16,0,0,1,715,589.26Z"/>
            <path class="cls-54" d="M708,589c1.71,5.86,3.72,12,6.09,18.43,3.25,8.79,6.73,16.84,10.23,24.11a5,5,0,0,1-2,4.65,4.72,4.72,0,0,1-3.57.58c-2.73-.68-4.13-3.85-4.72-5.23-4.94-11.55-14-39.11-14-39.11h0a4.88,4.88,0,0,1,.06-5.7,4.1,4.1,0,0,1,2.87-1.31A5.67,5.67,0,0,1,708,589Z"/>
            <path class="cls-53" d="M699,589.75s12.34,39.87,17,44.65a4.56,4.56,0,0,1-.14,4.19,4.44,4.44,0,0,1-3.85,1.7c-2.2-.13-4.22-2-6.34-5.89-5.44-9.9-12.82-35-14-39.12a4.61,4.61,0,0,1,7.37-5.53Z"/>
          </g>
          <path class="cls-42" d="M598.48,530.35,580,570.6s10.54,19.34,56.24,35.35c5.64-12.69,19.37-42.48,19.37-42.48S612.75,541.15,598.48,530.35Z"/>
          <ellipse class="cls-55" cx="669.49" cy="467.79" rx="7.28" ry="6.05"/>
          <ellipse class="cls-55" cx="670.87" cy="520.92" rx="6.25" ry="4.97"/>
          <circle class="cls-55" cx="630.14" cy="518.2" r="9.06"/>
          <circle class="cls-55" cx="635.56" cy="486.99" r="5.95"/>
          <ellipse class="cls-55" cx="667.13" cy="495.97" rx="5.95" ry="5.45"/>
          <ellipse class="cls-55" cx="651.05" cy="541.18" rx="5.95" ry="4.74"/>
          <ellipse class="cls-55" cx="905.88" cy="525.65" rx="5.95" ry="4.74"/>
          <path class="cls-56" d="M645.74,584.55l8.2-18s4.13-9.61,4.71-10,4.26,23.2,18.13,31.82c-13.36,12.05-24.47,21.26-24.47,21.26Z"/>
          <circle class="cls-57" cx="661.26" cy="774" r="10.37"/>
          <circle class="cls-58" cx="804.1" cy="879.69" r="8.36"/>
          <circle class="cls-58" cx="825.47" cy="825.03" r="8.36"/>
          <circle class="cls-58" cx="858.01" cy="879.69" r="8.36"/>
          <circle class="cls-58" cx="839.38" cy="762.21" r="8.36"/>
          <circle class="cls-58" cx="863.28" cy="697.47" r="8.36"/>
          <circle class="cls-57" cx="691.02" cy="871.33" r="11.79"/>
          <circle class="cls-57" cx="732" cy="774" r="10.37"/>
          <circle class="cls-57" cx="769.64" cy="669.87" r="10.44"/>
          <ellipse class="cls-57" cx="723.66" cy="666.89" rx="7.85" ry="10.44"/>
          <ellipse class="cls-57" cx="669.96" cy="678.46" rx="8.7" ry="11.57"/>
          <path class="cls-52" d="M733.47,436.71s-3.83,2.34-1.07,10.48c2.64,7.91,32.11,33.33,47.28,16.57,12.81-14.7,16.54-21.16,15.12-22.45a56,56,0,0,1-4.08-4.6Z"/>
          <path class="cls-59" d="M629.34,616c-2.4.48-4.78,1-7.14,1.69s-4.72,1.29-7.05,2a139,139,0,0,0-13.74,5.12,107.5,107.5,0,0,0-13,6.76,73.42,73.42,0,0,0-11.53,9,67.38,67.38,0,0,1,11.44-9.17,107.24,107.24,0,0,1,13-6.85,140.33,140.33,0,0,1,13.79-5.05A124,124,0,0,1,629.34,616Z"/>
          <path class="cls-59" d="M902.79,618.69c5,.95,10,2.2,15,3.63s9.79,3,14.56,4.95A98.65,98.65,0,0,1,946.12,634,45.07,45.07,0,0,1,958,643.74a37.54,37.54,0,0,0-5.57-5.27,55.8,55.8,0,0,0-6.35-4.31,99.26,99.26,0,0,0-13.82-6.66c-4.75-1.92-9.61-3.57-14.52-5S907.81,619.74,902.79,618.69Z"/>
          <path class="cls-60" d="M736.17,413.13s26.65,13.7,52.07-.34c-.44,5.45-1.27,12.58-1.27,12.58s-25,16.88-51-.82C736.47,415.47,736.17,413.13,736.17,413.13Z"/>
          <path class="cls-60" d="M580,570.38s20.8,27.09,56.24,35.35l-4.8,6.94s-46-13.89-56.7-30.39Z"/>
          <path class="cls-60" d="M891.14,605.09s39.35-11.59,55.15-33.22l4.28,7.83s-21.21,28.56-55.36,31.57Z"/>
        </g>
        <g>
          <path class="cls-61" d="M688.07,308.74s-13.31,6.1-10.38,14.72c-10.39.76-8.57,5.56-6.15,8.6-7.26,7.89-4.24,12.78,1.51,14.88,6.35.27,16.63-3.14,16.63-3.14L692,331.51,689.68,313"/>
          <path class="cls-62" d="M688.07,339.57s-33.94,5.05-8.58,33.7c-1.9,3-17.17-5-21.26-16.85,9.68,25.27,11.06,23.11,21.26,24.33-10.37,8.2,1.73,7.49,2.94,9.36-9.68,30.3,24.77,52.12,38.7,12.78l-8.85,3s-19.59,27.74-22.6-11.23l9.6-7.22,15.62-8.23S695.31,337.47,688.07,339.57Z"/>
          <path class="cls-62" d="M699.28,366.52s-21.86,10,0,31.05c22.47,19.82,33.27,3.36,33.27,3.36S717.35,353.15,699.28,366.52Z"/>
          <path class="cls-39" d="M706.93,330.81s-17.25,1.81-17.25,6.35-2.26,24.5,21.78,34.94c9.22,23.35,17.81,34.21,24.93,40.49a51.75,51.75,0,0,0,9.1,6.69c11.58,6.2,25.42,2.84,29.17,1,22.58-11,32.65-29.64,39.4-37.08,3.93-4.33,4.66-9.68,5.84-12.93l4.54-3.17s-4.09-17.24,3.17-33.12c0,0-12.25-33.12-9.52-48.55-9.08-3.63-33.58-3.63-46.74,0s-44,25.86-54.44,39.93c19.51-28.59,27.67-35.85,27.67-35.85S711,310.85,706.93,330.81Z"/>
          <path class="cls-63" d="M703.75,343.73s-8.62-11.79-10-2.27c.45,9.08,8.16,16.34,14.52,17.25v-4.54Z"/>
          <path class="cls-64" d="M750.66,363.35a6.18,6.18,0,0,0-1.71,4.71,3.19,3.19,0,0,0,3.46,2.76,7.24,7.24,0,0,0,2.31-1,3.86,3.86,0,0,1,2.8-.13c.92.35,1.57.91,2.35,1.26a6.15,6.15,0,0,0,2.38.6,9.81,9.81,0,0,0,4.86-1.2l1.15-.61a6.82,6.82,0,0,1,1.24-.61,3.55,3.55,0,0,1,2.75.51,10.38,10.38,0,0,1,2.11,1.66,10.54,10.54,0,0,0,.92.88,1.16,1.16,0,0,0,1.08.15,4.18,4.18,0,0,0,1.71-1.79,24.33,24.33,0,0,0,1.15-2.35,16.57,16.57,0,0,1-1,2.44,4.27,4.27,0,0,1-1.75,2,1.51,1.51,0,0,1-1.43-.14,8.34,8.34,0,0,1-1-.89,10,10,0,0,0-2.07-1.49,3.1,3.1,0,0,0-2.28-.4,6.45,6.45,0,0,0-1.1.57c-.38.22-.77.43-1.17.64a10.63,10.63,0,0,1-5.21,1.34,7.06,7.06,0,0,1-2.66-.71c-.82-.39-1.54-1-2.26-1.26a3.21,3.21,0,0,0-2.32.09,6.64,6.64,0,0,1-2.53.95,4,4,0,0,1-2.61-.88,3.38,3.38,0,0,1-1.25-2.42A6.21,6.21,0,0,1,750.66,363.35Z"/>
          <path class="cls-65" d="M782.07,325.49s9.35-19.06,35.36-8.17c-1.51,0-21.44-5.44-30.83,8.17C784.46,329.12,783,328.21,782.07,325.49Z"/>
          <path class="cls-65" d="M753.21,317.27s-13-12.4-26-10A40.09,40.09,0,0,1,752,322.11C755.32,325.43,756.67,320.11,753.21,317.27Z"/>
          <circle class="cls-66" cx="768.72" cy="321.77" r="4.51"/>
          <path class="cls-67" d="M730.25,328.87a8.75,8.75,0,0,1-2.19-3.77,9.84,9.84,0,0,1-.23-4.36,12.87,12.87,0,0,0,.47,4.29,10.49,10.49,0,0,0,.79,2A10.65,10.65,0,0,0,730.25,328.87Z"/>
          <path class="cls-67" d="M727.07,330.82a13.49,13.49,0,0,1-4.67-1.36,8.09,8.09,0,0,1-2-1.47,5.94,5.94,0,0,1-1.34-2.1l-.05-.13.12-.09a22.69,22.69,0,0,1,6.73-3.31,19,19,0,0,1,7.46-.75,17.32,17.32,0,0,1,7.1,2.37,23.1,23.1,0,0,1,5.66,4.85,25,25,0,0,0-5.82-4.58,18.15,18.15,0,0,0-7-2.19,19.7,19.7,0,0,0-7.28.76,22.52,22.52,0,0,0-6.63,3.17l.07-.23a5.7,5.7,0,0,0,1.19,2,7.66,7.66,0,0,0,1.88,1.46A13.14,13.14,0,0,0,727.07,330.82Z"/>
          <path class="cls-67" d="M726.25,330.49a15.86,15.86,0,0,1-5.85-.54,8.26,8.26,0,0,1-2.66-1.31,5.22,5.22,0,0,1-1.74-2.36,5.66,5.66,0,0,0,1.85,2.2,8.39,8.39,0,0,0,2.62,1.23,15.35,15.35,0,0,0,2.85.59A23.89,23.89,0,0,0,726.25,330.49Z"/>
          <path class="cls-67" d="M726,331.28a15.8,15.8,0,0,1-5.84.72,8,8,0,0,1-2.88-.71,5.15,5.15,0,0,1-2.2-1.93,5.67,5.67,0,0,0,2.28,1.76,8.83,8.83,0,0,0,2.82.64,15.83,15.83,0,0,0,2.92,0A23.89,23.89,0,0,0,726,331.28Z"/>
          <path class="cls-67" d="M731.66,330.89a15.65,15.65,0,0,1-5.65-1.65,8.42,8.42,0,0,1-2.36-1.79,5.14,5.14,0,0,1-1.25-2.65,5.59,5.59,0,0,0,1.39,2.52,8.72,8.72,0,0,0,2.34,1.7,15.15,15.15,0,0,0,2.69,1.13A22.77,22.77,0,0,0,731.66,330.89Z"/>
          <path class="cls-67" d="M803,336.65c.76-.25,1.51-.55,2.24-.87a18.64,18.64,0,0,0,2.14-1.08,11.4,11.4,0,0,0,1.94-1.38,6.72,6.72,0,0,0,1.48-1.86,5.8,5.8,0,0,1-1.35,2,10.67,10.67,0,0,1-2,1.46A15.89,15.89,0,0,1,803,336.65Z"/>
          <path class="cls-67" d="M797.81,336.65c.76-.25,1.51-.55,2.24-.87a17.72,17.72,0,0,0,2.13-1.08,10.66,10.66,0,0,0,1.94-1.38,6.57,6.57,0,0,0,1.49-1.86,5.8,5.8,0,0,1-1.35,2,10.67,10.67,0,0,1-2,1.46A16,16,0,0,1,797.81,336.65Z"/>
          <path class="cls-67" d="M806.53,339a18,18,0,0,0,2-.73,13.59,13.59,0,0,0,1.91-.95,7.64,7.64,0,0,0,3-3,5.6,5.6,0,0,1-1.15,1.83,9.62,9.62,0,0,1-1.71,1.34A12.14,12.14,0,0,1,806.53,339Z"/>
          <path class="cls-68" d="M757.65,370.13c2.52,1.75,4,2.53,6.27,2.21s3.8-3.17,6.8-2.75,2.95,1.93,2.95,1.93c.07.54-.32,1.28-.66,1.36l-4.52,1s-2.7.27-7.63.35-7.64-3.26-4.86-4.41Z"/>
          <path class="cls-67" d="M812.71,342.59c.81-.59,1.66-1.1,2.51-1.61s1.72-1,2.63-1.39c-.8.59-1.65,1.1-2.5,1.61S813.62,342.18,812.71,342.59Z"/>
          <path class="cls-69" d="M730.63,328.39c-6.69,10.67,8.88,16.25,16.75,5.54C747.38,333.93,739.59,326.28,730.63,328.39Z"/>
          <circle class="cls-70" cx="737.23" cy="332.85" r="3.99"/>
          <circle class="cls-70" cx="796.06" cy="339.57" r="3.99"/>
          <ellipse class="cls-71" cx="791.42" cy="338.68" rx="1.11" ry="1.52"/>
          <ellipse class="cls-71" cx="741.21" cy="333.17" rx="0.88" ry="1.2"/>
          <ellipse class="cls-72" cx="770.72" cy="371.11" rx="2" ry="1.51"/>
          <ellipse class="cls-72" cx="756.14" cy="371.11" rx="2" ry="1.51"/>
          <path class="cls-73" d="M821.77,364.45s-7.58-7.08,2.91-33.94c-8.86-16.27-11.93-37.34-10-45.2,0,0-47.08-14.87-97.8,37.1,4.53-7.3,17.72-21.77,16-23s-23.8,19.57-25.78,36.4c-6.82-11,15.26-44.26,15.26-44.26l25-14.22L761,272.5l24.23-5.44,24.35,3,9.85,3.33s7.89,20.57,8.93,22.68,3.56,15.06,4.12,16.91-4.89,50.89-4.89,50.89Z"/>
          <path class="cls-1" d="M766.82,397.57s2.72,1.26,2.49,5.32"/>
          <path class="cls-62" d="M830.9,270.42s9.42-5.8,8.21-13.81S803.42,207,735.66,231.45c-44.77,26.23-51.85,58.26-46.4,107,9.59-10.18,17.83-2.58,17.83-2.58s-7.81-18.55,37.49-49.25c0,0-22.23,24.95-27.67,35.84,23.42-30.87,70.42-50.51,101.18-39.93,0,0-3,20.57,9.52,48.55-2.78,8.08-7.56,22.23-3.17,33.12,4.38,8.47,8.06,6.8,8.06,6.8s31.27-4,6.69-29.3C861.19,329.19,861.75,250.75,830.9,270.42Z"/>
          <path class="cls-62" d="M832.5,371S853,398.43,844,422.12s-32.2,5.95-33.34,0,7.93-7.15,10.65-4.73c25,19.35,19.66-22.73,7-44.77"/>
          <circle class="cls-61" cx="705.09" cy="369.52" r="7.81"/>
          <circle class="cls-74" cx="705.09" cy="367.16" r="4.65"/>
          <circle class="cls-61" cx="823.68" cy="380.71" r="7.82"/>
          <circle class="cls-74" cx="823" cy="378.59" r="4.65"/>
          <g>
            <path class="cls-68" d="M744.48,387.19c1.9-2.29,9.78-6.62,12.58-5.42l4.43,1.91s.26-.29,4.48-1.42,12.15,8.15,12.15,8.15-2.93,11.75-18.1,9.92-15.54-13.14-15.54-13.14Z"/>
            <path class="cls-75" d="M743.71,387.38c2-2.23,11-7.82,13.92-6.62l4.67,1.9s.27-.29,4.7-1.38,13.07,8.41,13.07,8.41-5.25,9.24-20.36,7.77-16-10.08-16-10.08Z"/>
            <path class="cls-76" d="M743.45,387.66c2.93-1.41,10.85-7.09,13.83-5.88l4.67,1.9s.69.15,4.69-1.38S778,389,780.41,390c-2.52,2.27-6.82,11-20.87,8.87s-16.09-11.22-16.09-11.22Z"/>
            <path class="cls-77" d="M741,387c-1.36-.83-.75-3.6,1-2.51,3.06,2.62,6.25,3.57,9,2.95,2.24-.51,4.37-1,6.73-.08a9.61,9.61,0,0,0,5.62.59,10.27,10.27,0,0,1,5.36.35A30.82,30.82,0,0,0,777.7,390c2.2,0,3-1.65,4.59-2.18,1.49-.29,1.67.93,1.1,1.53-1.26,1.32-3.19,1.63-5.68,1.65a31.29,31.29,0,0,1-9.37-1.83,9.48,9.48,0,0,0-4.92-.31,10.4,10.4,0,0,1-6.12-.65c-2.08-.79-4.07-.34-6.15.13-3.3.28-6.44.49-10.18-1.42Z"/>
            <path class="cls-75" d="M759.06,390.24c6.4,2.55,8.41-2.74,13.83,1.26s-7.11,6.19-12.12,5.82-13.15-3.5-12.74-6.14,4.64-3.49,11-.94Z"/>
            <path class="cls-75" d="M755.23,382.33c-2.55.69-5.88,3-5,3.7s5,.17,8.44.29l2.69.1a27.58,27.58,0,0,1,5.44.75c2.69.65,7.14,1.33,7.76.56.75-.93-3.38-3.37-5.29-4.14-2.13-.87-3.75,1.5-7.77,1.12-3.16-.48-4.56-2.84-6.25-2.38Z"/>
          </g>
          <path class="cls-78" d="M778.14,363.75a6.19,6.19,0,1,1-7.31,8.8l2.84-1a3.22,3.22,0,1,0,3.59-4.94,3.2,3.2,0,0,0-2.14.08L774,363.93a6.13,6.13,0,0,1,4.19-.18Z"/>
          <g>
            <path class="cls-79" d="M752.79,342.42S750,331.79,739,330.51c-10.69-1.16-15.29,3.7-15.73,3.05,1.88,2.82,4.16,7.63,13.93,8.41a94.58,94.58,0,0,0,14.4.35Z"/>
            <path class="cls-80" d="M745.35,332.85c.94,1.21.83,3,.62,4.52-.25,1.81-2.19,4-3.88,4.92a14.19,14.19,0,0,1-4.71-.3c-.36-.13-1.33-.17-3.14-.55-.24-.05-.91-.85-1-.88a5.89,5.89,0,0,1-2.27-5.28c.25-1.76,3.27-4.53,4.88-5.44,1.34,0,2.35.44,4.46.67,2.32.27,2.92,1.11,4.47,2Z"/>
            <path class="cls-81" d="M741.83,337.07c4.93-2.81.7-2.34-1.41-2.48,1.45-4-.79-2.73-2-1.11-.32.43-1.81-2.11-2.33-2.13-1.61,0,.18,2.77.08,3.55s-3.39-.27-3.45-.08c-.41,1.46,2.75,1.26,2.58,1.86s-1.85,1.88-1.47,2.59c.77.2,2.23-1.48,2.91-1.33s.44,2.67,1.1,2.95c.85.37,1.21-2.31,2-2.37,1.08-.08,2.64,1.64,3.79,1.56s-2.09-2.07-1.79-3Z"/>
            <path class="cls-82" d="M740.24,334a2.67,2.67,0,1,1-3.78.23,2.67,2.67,0,0,1,3.78-.23Z"/>
            <path class="cls-83" d="M741.69,334.82a1.6,1.6,0,1,1-2.26.14,1.6,1.6,0,0,1,2.26-.14Z"/>
            <path class="cls-84" d="M754.69,343.61c-.18.6-.51-9.65-12.94-13.68s-11.75.28-20.18,3.17c1.07,3.86,5.17,9,19.16,9.74s14,.77,14,.77Zm-1.9-1.19a16.18,16.18,0,0,0-3.93-6.83,21.36,21.36,0,0,0-10.8-5.6,22.67,22.67,0,0,0-6,.08c-3.06.49-7.07,2.75-8.76,3.49a16.37,16.37,0,0,0,3,4.05c2.07,2.29,5.46,3.75,13.37,4.68C742.9,342.67,748,342.19,752.79,342.42Z"/>
          </g>
          <g>
            <path class="cls-79" d="M780.92,345.73s5.46-10,17.13-8.56c10.93,1.45,11.89,5.31,16.65,7.28-2.21,3.25-8.36,6.36-18.64,4.72s-13.48-3.11-13.48-3.11Z"/>
            <path class="cls-80" d="M792.35,338c-1.28,1.06-2.93,3.07-3.09,4.73-.18,1.83,1.29,4.38,2.81,5.74.45.07,1.17,0,1.63.1l3.33.13a14.49,14.49,0,0,0,4.73.46c2.22,0,3.35-2.75,3.56-4.84a8.54,8.54,0,0,0-2.13-6.1,29.26,29.26,0,0,0-5.14-1.06c-2.16-.27-4.69.86-6.32,1.22Z"/>
            <path class="cls-81" d="M793.9,343.2c-4.39-4.13-.15-2.59,2.07-2.21-.49-4.47,1.5-2.62,2.35-.64.22.52,2.39-1.73,2.93-1.62,1.67.37-.87,2.8-1,3.64s3.57.56,3.57.77c.07,1.61-3.14.63-3.12,1.28s1.44,2.41.87,3.05c-.85,0-1.94-2.09-2.67-2.1-.91,0-1.13,2.65-1.87,2.77-1,.16-.68-2.69-1.47-2.95-1.09-.35-3.13,1-4.3.67s2.67-1.62,2.6-2.66Z"/>
            <path class="cls-82" d="M796.24,340.38a2.84,2.84,0,1,0,3.84,1.18,2.85,2.85,0,0,0-3.84-1.18Z"/>
            <path class="cls-83" d="M799,341.29a1.7,1.7,0,1,0,2.29.71,1.69,1.69,0,0,0-2.29-.71Z"/>
            <path class="cls-85" d="M778.75,346.78c0,.67,2.94-9.83,16.78-10.89s12.06,3.23,20,8.32c-2.07,3.72-7.58,8-22.21,5.27l-14.61-2.7Zm2.17-1s6.8-9.61,18.48-8.19c10.93,1.45,9.79,4.94,14.55,6.91-2.22,3.25-6,5.38-16.36,4.42C788,348,783,346.15,783,346.15Z"/>
          </g>
          <path class="cls-67" d="M787,334.33a27.87,27.87,0,0,1,10.09-4.79,20.14,20.14,0,0,1,16.25,2.53,27,27,0,0,1,4.35,3.55l1,1a1.34,1.34,0,0,1,.51,1.31,2.22,2.22,0,0,1-1,1,7.89,7.89,0,0,1-1.28.61c-1.75.69-3.6,1-5.37,1.62,1.76-.63,3.6-1,5.33-1.73a9,9,0,0,0,1.25-.61,2.06,2.06,0,0,0,.92-.95,1.17,1.17,0,0,0-.48-1.16l-1-1a27.12,27.12,0,0,0-4.35-3.5,21.32,21.32,0,0,0-5.07-2.31,20.85,20.85,0,0,0-11-.23,27.78,27.78,0,0,0-5.28,1.84A27.48,27.48,0,0,0,787,334.33Z"/>
        </g>
      </g>
    </g>
  </g>
</svg>
