<svg id="Layer_1" data-name="Layer 1" xmlns="http://www.w3.org/2000/svg" xmlns:xlink="http://www.w3.org/1999/xlink" width="187.91" height="399.61" viewBox="0 0 187.91 399.61">
  <defs>
    <style>
      .cls-1 {
        fill: none;
      }

      .cls-2 {
        opacity: 0.3;
      }

      .cls-3 {
        fill: #ffef5f;
        stroke: #fffa4d;
        stroke-linejoin: round;
        stroke-width: 9px;
      }

      .cls-4 {
        fill: #e89b7c;
      }

      .cls-5 {
        fill: #81bee8;
      }

      .cls-20, .cls-32, .cls-39, .cls-5, .cls-61, .cls-8 {
        stroke: #4a2811;
      }

      .cls-20, .cls-32, .cls-39, .cls-5, .cls-61, .cls-64, .cls-73, .cls-8 {
        stroke-miterlimit: 10;
      }

      .cls-20, .cls-39, .cls-5, .cls-8 {
        stroke-width: 0.5px;
      }

      .cls-6 {
        fill: #797979;
      }

      .cls-7 {
        fill: #dd805f;
      }

      .cls-8 {
        fill: #5493b6;
      }

      .cls-9 {
        fill: #5b7d38;
      }

      .cls-10 {
        fill: #d26444;
      }

      .cls-11 {
        fill: #42602d;
      }

      .cls-12 {
        fill: #c21e6c;
      }

      .cls-13 {
        fill: #dcc13f;
      }

      .cls-14 {
        fill: #af1e52;
      }

      .cls-15 {
        fill: #ceac2b;
      }

      .cls-16 {
        fill: #a01e57;
      }

      .cls-17 {
        fill: #7b9958;
      }

      .cls-18 {
        fill: #647f40;
      }

      .cls-19 {
        fill: #8b8b8b;
      }

      .cls-20, .cls-22, .cls-61 {
        fill: #f7d8d0;
      }

      .cls-21 {
        fill: #4d4e4e;
      }

      .cls-23 {
        fill: #dc9c2a;
      }

      .cls-24 {
        fill: #5c9641;
      }

      .cls-25 {
        fill: #951a3a;
      }

      .cls-26 {
        fill: #ba932e;
      }

      .cls-27 {
        fill: #5f7e3e;
      }

      .cls-28 {
        fill: #48622d;
      }

      .cls-29 {
        fill: #2f441d;
      }

      .cls-30 {
        fill: #f2b22e;
      }

      .cls-31 {
        fill: #294720;
      }

      .cls-32, .cls-39 {
        fill: #f0cdc6;
      }

      .cls-32, .cls-64 {
        stroke-width: 0.75px;
      }

      .cls-33 {
        fill: #2a2a2a;
      }

      .cls-34 {
        fill: #427b3a;
      }

      .cls-35 {
        fill: #4a2811;
        opacity: 0.25;
      }

      .cls-36 {
        fill: #305e2e;
      }

      .cls-37 {
        fill: #26421d;
      }

      .cls-38 {
        fill: #c1472c;
      }

      .cls-40 {
        fill: #7a1125;
      }

      .cls-41 {
        fill: #b6765a;
      }

      .cls-42 {
        fill: #79ae42;
      }

      .cls-43 {
        fill: #3b5225;
      }

      .cls-44 {
        fill: #342517;
      }

      .cls-45 {
        fill: #4d3f3f;
      }

      .cls-46 {
        fill: #d9a227;
      }

      .cls-47 {
        fill: #db6537;
      }

      .cls-48 {
        fill: #5a7d38;
      }

      .cls-49 {
        fill: #dbba26;
      }

      .cls-50 {
        fill: #cc7a5e;
      }

      .cls-51 {
        fill: #c87d29;
      }

      .cls-52 {
        fill: #e29939;
      }

      .cls-53 {
        fill: #edba26;
      }

      .cls-54 {
        fill: #d1cdc9;
      }

      .cls-55, .cls-64 {
        fill: #fff;
      }

      .cls-56 {
        fill: #352a2a;
      }

      .cls-57 {
        clip-path: url(#clip-path);
      }

      .cls-58 {
        fill: #1a1723;
      }

      .cls-59 {
        fill: #e36381;
      }

      .cls-60 {
        fill: #f2bca9;
      }

      .cls-62 {
        fill: #b16b51;
      }

      .cls-63 {
        fill: #e9a597;
        opacity: 0.5;
      }

      .cls-64 {
        stroke: #3d2e17;
      }

      .cls-65 {
        fill: #3d2e17;
      }

      .cls-66 {
        fill: #8c3e36;
      }

      .cls-67 {
        fill: #7b2f2c;
      }

      .cls-68 {
        fill: #f5968e;
      }

      .cls-69 {
        fill: #f48678;
      }

      .cls-70 {
        fill: #fff6f3;
      }

      .cls-71 {
        fill: #f48a71;
      }

      .cls-72 {
        fill: #ef4b3b;
      }

      .cls-73 {
        fill: #e7d760;
        stroke: #baa63c;
      }
    </style>
    <clipPath id="clip-path">
      <path class="cls-1" d="M85.37,70.93h-.25c-2.72.23-4.71,4.13-4.44,8.72s2.56,7.91,5.18,7.91h.25c2.72-.23,4.71-4.13,4.44-8.72S88,70.93,85.37,70.93"/>
    </clipPath>
  </defs>
  <g>
    <g class="cls-2">
      <path d="M81.24,120.08a.64.64,0,0,1,.1-.13l-.19,0A1,1,0,0,1,81.24,120.08Z"/>
      <path d="M85,120.33s0,0,0,0h0Z"/>
      <path d="M83.12,120.46a1.74,1.74,0,0,1,.11-.18l-.17,0Z"/>
      <path d="M62.16,149.51a1.3,1.3,0,0,0-.08-.17l.08.17Z"/>
      <path d="M46.11,137.5h0Z"/>
      <path d="M62.16,149.5l.06-.12h0l-.06.13Z"/>
      <path d="M137.48,120l-.17-.06a1.06,1.06,0,0,1,0,.19A.53.53,0,0,1,137.48,120Z"/>
      <path d="M141.05,120.26l-.17,0a1.74,1.74,0,0,1,.11.18A.76.76,0,0,1,141.05,120.26Z"/>
      <path d="M143,119.9l-.19,0a1.47,1.47,0,0,1,.1.13A.61.61,0,0,1,143,119.9Z"/>
      <path d="M139.15,120.31h0l0,0Z"/>
      <path d="M172.05,303.17c0,1.41.11,2.79.17,4.14v.14l9.81-.62c-.06-1.32-.11-2.68-.16-4.06l-.08-2.15L172,301c0,.68.05,1.35.07,2Z"/>
      <path d="M76.62,132.38h0l-.31.1h0Z"/>
      <path d="M172.42,311.37v.15c.07,1.25.14,2.47.22,3.64v.17q.06.84.12,1.65v0c0,.55.08,1.08.12,1.61a1.49,1.49,0,0,1,0,.21q.06.67.12,1.32a1.5,1.5,0,0,0,0,.22c0,.48.09.95.13,1.4a1,1,0,0,1,0,.17c0,.39.08.76.13,1.13l0,.27c0,.41.1.81.15,1.18,0,0,0,.07,0,.11q.07.51.15,1c0,.09,0,.18,0,.28,0,.33.11.65.16,1a.3.3,0,0,1,0,.1c.06.27.11.52.16.76l.06.25c0,.23.1.46.16.67,0,0,0,0,0,.06l0,.11,0,0s0,.07,0,.11a.36.36,0,0,0,0,.09s0,.09-.07.14l-.06.13-.11.22c0,.09-.1.18-.15.29l-.1.16-.15.26-.11.18-.1.16-.07.1-.32.48-.13.19h0c-.28.38-.6.79-1,1.22h0l-.13.14c-.08.09-.18.19-.26.29l-.55.57c-.22.22-.45.45-.7.67a.23.23,0,0,1-.07.07c-.12.12-.26.23-.39.34l-.35.31-.5.4c-.2.16-.39.31-.6.46l-.78.57-.41.27c-.21.13-.4.27-.62.4h0l0,0-.14.09-.09.06a15.36,15.36,0,0,0-2.09,1.56l-.24.23-.65.62-.32.34-.5.55c-.11.13-.22.25-.32.38l-.45.55c-.1.12-.2.25-.29.38s-.29.38-.42.57-.19.25-.27.37l-.44.62-.21.32-.6.89-.54.81v0h0l0,0-.43.63-.25.35c-.17.25-.35.49-.53.72l-.14.19h0a10.08,10.08,0,0,1-4,3.37,18.77,18.77,0,0,0-3.36-6.56h0c-.16.4-.33.8-.51,1.21,0,.08-.08.16-.11.24-.15.33-.3.66-.47,1-.06.13-.14.27-.21.41s-.29.57-.45.86l-.27.49c-.15.27-.31.54-.48.82l-.32.52c-.17.27-.34.55-.52.82l-.36.54-.59.83-.4.54c-.21.28-.44.57-.67.86l-.41.52-.81.94c-.13.14-.25.29-.38.44L142,356.5l-.16.16c-.46.47-.95.93-1.45,1.39l-.33.29c-.4.36-.8.72-1.23,1.07l-.56.45c-.37.3-.74.6-1.13.9l-.68.5-1.16.83-.76.51-1.22.79-.83.51-1.32.76-.88.49-1.45.75-.63.34v0l-.58.3v3.76h0l0,.2v0c0,.05,0,.12,0,.18l0,.11c0,.07,0,.15.07.23l.06.18c0,.09.07.18.11.28s.07.16.1.25l.15.32.16.32a3.13,3.13,0,0,0,.19.36l.22.4.23.39.49.76h0l0,0c.08.12.16.27.25.42s.05.08.08.14h0c0,.09.1.21.15.3s.15.28.22.43c1.48,3.22,2.79,9.44-2.89,11.15l.13,0-.13,0-.38.1-.31.08-.4.07-.36.06-.4.05-.42,0h-.3c-.18,0-.36,0-.55,0h-1.06l-.54,0-.35,0h0c-8.51-.8-8-8-8.26-11.29-.07-.93-.11-1.82-.13-2.66,0-1.38,0-2.6-.08-3.58,0-.32,0-.61-.07-.87v0a4.06,4.06,0,0,0-.13-.72h0l0,0a4.92,4.92,0,0,0-.12.66s0,.07,0,.1q0,.38-.06.81c0,.09,0,.18,0,.26s0,.27,0,.42c0,.86,0,1.86-.06,3,0,.84-.07,1.73-.14,2.66,0,.07,0,.15,0,.22a1,1,0,0,0,0,.17c0,.54-.06,1.15-.11,1.81v0q0,.6-.12,1.23l0,.11a6,6,0,0,1-.09.61v0c0,.2-.08.41-.13.62l0,.13c0,.17-.08.35-.13.52l0,.11c-.06.21-.13.41-.2.61a.69.69,0,0,0,0,.1l-.21.51-.07.14a7.41,7.41,0,0,1-.65,1.12l-.1.14a4.94,4.94,0,0,1-.36.44l-.07.09-.49.48-.12.1c-.15.13-.3.24-.46.36l-.09.07h0l0,0,0,0h0l0,0-.36.22-.18.1c-.19.11-.38.2-.59.3l-.11,0a4.87,4.87,0,0,1-.53.21l-.28.09-.42.13-.35.09-.41.09-.4.07-.42.06-.45.05-.43,0-.51,0H103l-.3,0a5.68,5.68,0,0,1-.59,0l-.37,0-.5-.07-.33-.05-.47-.1-.28-.07a3.8,3.8,0,0,1-.51-.15l-.14,0h0a5.39,5.39,0,0,1-.6-.25l-.09-.05a4.53,4.53,0,0,1-.44-.23l-.15-.1a4,4,0,0,1-.34-.23l-.14-.11-.29-.25-.12-.12L97,385l-.08-.09c-2.1-2.61-1.07-6.82.06-9.28a9.12,9.12,0,0,1,.73-1.33,13.11,13.11,0,0,0,1.73-3.36h0l.08-.25v0a2.33,2.33,0,0,0,.07-.35h0v-3.77h0c-.69-.33-1.34-.67-2-1l-.46-.25c-.63-.34-1.25-.68-1.84-1l-.14-.09q-.84-.5-1.62-1l-.4-.25c-.55-.36-1.08-.72-1.6-1.08l-.2-.15-1.35-1-.33-.25c-.47-.37-.93-.74-1.38-1.12l-.22-.19c-.39-.33-.77-.66-1.14-1l-.26-.24c-.41-.37-.8-.75-1.18-1.13l-.22-.23c-.33-.33-.65-.67-1-1l-.2-.22q-.51-.57-1-1.14l-.21-.24-.81-1-.14-.19c-.29-.37-.56-.75-.83-1.13l-.18-.25-.68-1-.09-.13c-.24-.38-.46-.74-.68-1.11l-.14-.25c-.21-.35-.4-.69-.58-1a.43.43,0,0,0,0-.07c-.19-.36-.37-.72-.54-1.07,0-.08-.09-.16-.13-.25-.16-.34-.32-.69-.47-1h0c-.15-.34-.28-.67-.42-1l-.09-.24c-.13-.32-.25-.63-.36-.94l0-.1c-.1-.28-.2-.56-.29-.83a1.87,1.87,0,0,0-.07-.22c-.08-.27-.17-.54-.24-.8-.46,1.75-.89,3.38-1.28,4.93l0,.11c-.18.75-.36,1.47-.52,2.18l0,.15c-.16.69-.31,1.37-.44,2a.51.51,0,0,1,0,.13l-.12-.06a5.58,5.58,0,0,1-.69-.35l-.27-.16c-.18-.12-.36-.24-.53-.37l-.22-.17c-.21-.16-.41-.34-.61-.52h0c-2.81-2.65-4.49-7.05-8.21-10.34h0l-.59-.48a15.47,15.47,0,0,0-1.58-1.13,21.15,21.15,0,0,1-7.3-7h0l-.14-.24-.06-.12a8,8,0,0,1-.43-.88v0l-.08-.19c0-.18.11-.38.16-.6a.29.29,0,0,1,0-.09q.06-.27.12-.57l0-.16c0-.18.08-.37.11-.57s0-.13,0-.2.06-.39.1-.59l0-.23c0-.21.07-.42.1-.64l0-.23c0-.23.07-.46.1-.7l0-.23c0-.25.06-.52.09-.79a1.11,1.11,0,0,0,0-.19c0-.29.07-.59.1-.9l0-.13c.3-2.92.55-6.42.77-10.32v-.06c0-.47.05-.95.07-1.44v0c.27-5.52.48-11.75.63-18.18v-.08c0-.55,0-1.1,0-1.65V290l-9.83-.14,0,1.72c-.17,7.11-.38,13-.62,17.9L45,311c-.21,3.92-.46,7.21-.73,9.79,0,0-.09.86-.09.86l-.12,1-.1.75-.11.73-.09.57-.12.63-.13.55a10.93,10.93,0,0,0,.32,6.76l.18.47a19.5,19.5,0,0,0,.89,1.85l.15.26a4.76,4.76,0,0,0,.27.48c.08.14.16.28.25.41A31.33,31.33,0,0,0,56,346.13a6.82,6.82,0,0,1,.61.46l.21.16a20.77,20.77,0,0,1,3.06,3.94,34.86,34.86,0,0,0,4.68,6l.22.21c.4.37.8.72,1.23,1.07l.49.36c.37.28.75.55,1.11.77.21.14.43.27.62.38.43.25.88.49,1.34.7l.48.22a9.35,9.35,0,0,0,3.73.78,9.46,9.46,0,0,0,1.91-.2l.09.1c.4.48.81.95,1.25,1.44l.24.25c.38.42.78.84,1.25,1.32l.22.22c.46.46.94.93,1.46,1.4l.32.29c.44.41.9.82,1.41,1.25l.25.21c.53.45,1.09.9,1.67,1.35l.4.3c.52.4,1.06.8,1.63,1.21l.23.16c.58.41,1.18.81,1.79,1.21-2.49,5.78-3.34,13.89,1.5,19.9l.29.35c.26.3.53.6.87.94l.3.29c.26.24.53.48.81.71s.3.24.45.34.57.42.87.61a4.8,4.8,0,0,0,.45.28c.34.21.7.4,1.07.59l.31.15a13.69,13.69,0,0,0,1.3.55l.24.09.48.16c.31.1.61.19.89.26l.59.15c.3.06.6.13.87.17s.47.09.65.11.59.08.93.12l.59.06.9,0,.57,0h.51l.56,0h.56l.82,0c.24,0,.48,0,.7-.06s.53-.05.77-.09l.69-.1.72-.13.75-.17.11,0,.52-.13.79-.24.58-.19c.35-.12.67-.25,1-.39l.33-.14c.46-.2.89-.42,1.3-.64l.08-.05a19.68,19.68,0,0,0,7.35,2.26l.2,0,.79.06.82,0,.56,0h1.11c.25,0,.48,0,.72,0l.75,0,.61-.06.1,0,.58-.07c.21,0,.4-.06.64-.1l.15,0,.67-.14.58-.13.06,0,.6-.16.49-.15.38-.13a15.32,15.32,0,0,0,9.22-8.55c2.79-6.57.64-13.25-.67-16.29l.46-.3.9-.6,1.39-1,.81-.59c.47-.36.92-.72,1.36-1.08,0,0,.52-.41.68-.55.52-.44,1-.88,1.54-1.34l.37-.33c.62-.57,1.22-1.14,1.75-1.68l.3-.3c.47-.49.93-1,1.36-1.45.14-.15.28-.31.41-.47l.08-.08.8-.93a9.73,9.73,0,0,0,1.93.2,9.37,9.37,0,0,0,3.7-.77,19.76,19.76,0,0,0,7.93-6.45l.24-.31c.23-.31.46-.62.66-.91,0,0,.65-.93.78-1.13l1.2-1.78.54-.78s.39-.54.48-.65l.21-.27.26-.33.18-.21c.08-.1.17-.18.22-.24l.18-.2.33-.3.13-.13a5.4,5.4,0,0,1,.71-.52l.3-.19.72-.48.16-.1.48-.32c.37-.26.72-.51,1.09-.79s.56-.42.84-.64l.11-.09.55-.45.47-.4.14-.12.49-.44.2-.18.9-.87.8-.84.55-.6c.14-.16.27-.31.4-.48.34-.41.67-.83,1-1.24.07-.09.13-.18.2-.26l.29-.42.38-.55.2-.31.33-.53.32-.55.16-.28.28-.52.23-.47.28-.6.22-.52.18-.47a11,11,0,0,0,.32-6.45s-.1-.36-.12-.44-.09-.44-.12-.58-.1-.56-.14-.8c0,0-.11-.73-.16-1.1s-.08-.66-.12-1c0,0-.11-.91-.14-1.26l-.15-1.49s-.09-1-.12-1.36c0,0-.1-1.22-.13-1.74,0,0-.08-1.08-.12-1.62l-9.8.72,9.79-.88c-.07-1.13-.14-2.31-.21-3.52l-9.81.59,9.8-.73c-.06-1.23-.13-2.51-.18-3.82l-9.82.48h0C172.28,308.79,172.35,310.1,172.42,311.37Z"/>
      <polygon points="139.53 132.12 139.53 132.12 139.53 132.12 139.53 132.12"/>
      <path d="M185.47,187.34l0-.52s0-.61,0-.84,0-.68-.07-1l0-.48c0-.32,0-.64-.07-1-.06-.67-.14-1.33-.21-2l0-.19-.09-.79c-.13-.93-.28-1.84-.45-2.72l-.05-.29c-.16-.86-.34-1.7-.53-2.54-.06-.26-.12-.51-.19-.76l-.05-.19c-.13-.57-.27-1.13-.42-1.67-.08-.3-.17-.6-.25-.9l-.05-.17c-.14-.49-.28-1-.44-1.5-.1-.34-.21-.69-.32-1s-.31-1-.46-1.42l-.52-1.55-.61-1.71c-.23-.65-.47-1.3-.72-2l-.07-.18-1.43-3.81L177,154.59l-.75-2.12-.45-1.35-.24-.73c-.3-.91-.61-1.79-.93-2.66l-.18-.49c-.33-.86-.66-1.7-1-2.47l-.11-.24c-.33-.77-.67-1.5-1-2.25l-.22-.44c-.38-.76-.77-1.51-1.16-2.21l-.22-.38c-.37-.65-.75-1.27-1.17-1.93l-.12-.19c-.07-.13-.35-.55-.38-.59-.17-.27-.36-.52-.54-.77l-.2-.29-.59-.81c-.26-.35-.53-.68-.81-1l-.21-.26c-.21-.27-.42-.53-.63-.76s-.56-.62-.84-.92l-.2-.21-.74-.77c-.27-.26-.53-.51-.81-.75l-.24-.22c-.28-.27-.57-.53-.85-.76s-.45-.36-.67-.53a28.44,28.44,0,0,0-7.52-4.31h0a12.19,12.19,0,0,0,.56-3.29v-.14a12,12,0,0,0-.59-4,12.08,12.08,0,0,0,1.14-1.22,14.81,14.81,0,0,0,3-8.41c3.32-4.14,4.29-8.46,4.76-12.59a20.34,20.34,0,0,0-1.22-10.3,54,54,0,0,0,1.64-13.37,97.84,97.84,0,0,0-.72-12.06A13,13,0,0,0,166.94,50c.24-4.1-1.44-8-5-11.5a18.17,18.17,0,0,0-6.79-4.24,45.07,45.07,0,0,0-8.54-10.82A14.62,14.62,0,0,0,145.3,22,16.1,16.1,0,0,0,139,17.92c-7.12-4.06-15.57-6.12-25.16-6.12-31.61,0-51.24,21-51.24,54.85A57.74,57.74,0,0,0,63,72.77c0,.47.11,1,.16,1.37.2,1.47.45,3,.77,4.47a31.14,31.14,0,0,0,.93,3.78c-1.71,3-2.58,7-2,12,.49,4.32,1.53,8.84,5.27,13.13a14.89,14.89,0,0,0,2.24,6.74c0,.38-.09.79-.14,1.24,0,.08,0,.16,0,.24s0,.51,0,.53a12,12,0,0,0-.79,4.35,2.71,2.71,0,0,0,0,.29,11.89,11.89,0,0,0,.54,3.25l-.5.28c-.21.11-.42.22-.63.35l-.33.2c-.68.43-1.36.9-2.06,1.43q-.22.15-.45.33l-.5.4-.78.69-.62.55-.35.34c-.23.22-.45.45-.68.69l0,0c-.16.15-.31.31-.47.47l-.31.36c-.07.07-.39.41-.47.52s-.23.26-.34.4c-.31.36-.61.73-.93,1.14a4.08,4.08,0,0,0-.31.39c-.06.07-.62,4-.68,4a91.7,91.7,0,0,0-8.31-5c-2.48-4.32-6.79-7.2-8.92-7.86s-4-2.45-6.47-2.61l-1.26.57c-2.14.6,1.63-.57,1.26-.57h-.28c-2.73,0-5.54,1.72-8.23,4.54a13.44,13.44,0,0,0-4.53,3.36c-.85.54-1.79,2.11-2.5,2.87-1.75,1.91-2.82,4-2.66,9.69.24,8,4.62,9.91,7,11.54,1.29.87,3.51,1.32,5.31,1.74a23.46,23.46,0,0,0,3.72,2.92c2.3,1.4,2.26.89,6.22,1.42.2,0,2.18,0,2.42,0,.22,3.14,1.48,3,1.6,7.54a12.09,12.09,0,0,0,1.57,4c-.19.7-1.84,2.47-2,3.19l-.2.86c-.28,1.24-.5,2.36-.67,3.4,0,.15,0,.31-.07.47-.16.95-.29,1.94-.41,3,0,.21,0,.43-.07.63s0,.54-.07.82v.14c0,.41-.07.81-.09,1.21,0,.61-.06,1.23-.08,1.85v.23c0,.3,0,.61,0,.92,0,.7,0,1.42,0,2.15v.2c0,.25,0,.5,0,.75,0,1.12.1,2.18.18,3.22l0,.23c.09,1.21.21,2.43.33,3.65l.14,1.28c.1.91.2,1.83.32,2.77l.13,1.14c.16,1.22.31,2.45.48,3.67l1.17,8.51.47,3.52c.12,1,.25,2,.36,2.95l.13,1.05c.1.92.21,1.84.3,2.76l.13,1.31c.07.71.14,1.43.2,2.15,0,.43.11,1.42.11,1.42l.15,2.08c0,.47,0,.94.08,1.42,0,.73.07,1.47.09,2.21,0,0,0,1,0,1.28,0,1,0,2,0,3v.47q0,1.6-.06,3.24l0,1.53-.06,2.1,0,2.32-.12,6.08c0,3-.09,6.29-.14,9.73l-.1,7.07-.15,9.17-.15,7.7,9.82.25h0l0-1.72h0c0-1.18,0-2.36.07-3.55,0-.68,0-1.36,0-2v-.46l0-1.58v-.48l0-1.88v-.08l0-1.91c0-.28,0-.57,0-.85s0-.66,0-1,0-.73,0-1.09V273c.09-6,.17-11.74.25-16.77v-.17c0-1.1,0-2.17,0-3.19v-.32c0-.7,0-1.38,0-2,0-.11,0-.21,0-.31,0-.62,0-1.22,0-1.8,0-.16,0-.31,0-.46,0-.48,0-.94,0-1.39,0-.22,0-.43,0-.65,0-.38,0-.74,0-1.1,0-.12,0-.26,0-.38,0-1.2.07-2.4.07-3.58v-.52c0-1.11,0-2.21,0-3.31,0-.46,0-.92,0-1.38,0-.81-.06-1.61-.1-2.4l-.09-1.53c0-.75-.1-1.49-.16-2.23,0-.51-.07-1-.12-1.52q-.09-1.14-.21-2.28c0-.46-.08-.91-.13-1.37-.1-1-.21-1.94-.32-2.9,0-.37-.09-.73-.13-1.09-.12-1-.25-2-.38-3.05-.06-.51-.13-1-.2-1.52-.09-.69-.18-1.39-.28-2.07L54,211.91l-.33-2.38,0-.14c-.15-1.07-.3-2.12-.44-3.18,0-.33-.09-.66-.13-1-.16-1.2-.32-2.4-.47-3.58,0-.37-.09-.74-.13-1.11-.11-.89-.21-1.76-.3-2.64,0-.4-.09-.8-.13-1.2-.11-1.14-.22-2.28-.31-3.41,0-.07,0-.13,0-.2-.07-.94-.12-1.84-.15-2.74,0-.27,0-.53,0-.79,0-.61,0-1.21,0-1.8l0-.95c0-.51,0-1,.07-1.52,0-.33,0-.66.08-1s0-.53.06-.79,0-.27,0-.41c.1-.92.21-1.82.36-2.7l0-.26c.17-1,.36-1.92.57-2.86.06-.24.12-.49.17-.73q.27-1.11.57-2.19c.06-.22.11-.44.18-.65.26-.91.53-1.82.83-2.72v0c-.16-1.68-.32-3.23-.48-4.67H54l-.62-.13h0l-.49-.12-.11,0a3.3,3.3,0,0,1-.38-.13,3.73,3.73,0,0,1-1.62-1.65h0c-1.22-2.08-1.74-5.55-.09-7.82a4.85,4.85,0,0,1,1.42-1.31l0-.05-.08-.12A4.72,4.72,0,0,0,49.53,153c-1.29-.44-2.81-.93-4-1.27-2.57-.72-9-1.14-10.06-1.81a14.86,14.86,0,0,1-2.8-3.13s-.47,0-1.11-.08a9.15,9.15,0,0,1-2.72.42c-.65,0-.7.23-1.31-.07-2.92-1.46-4.34-5.37-3.14-9,.42-1.28,0,0,2.82-1.36,1.71-2.25.82-2.79,3.75-2.93,0,0,.47.86.47,0,0-5.06,6.63-2.25,9.5-1.54,2,.63,5,2,5.13,2.76a5.56,5.56,0,0,1,0,.82c0,.07,0,.14,0,.22a3.23,3.23,0,0,1-.11.47,2.09,2.09,0,0,1-.08.23,3.92,3.92,0,0,1-.16.36,1.74,1.74,0,0,1-.1.19l-.06.11.06-.11a4.18,4.18,0,0,1-.25.38h0a4.44,4.44,0,0,1,.77-.08h.24l.43,0,.31,0a5.71,5.71,0,0,1,.64.14l.17,0c2.72.8,5.23,2.66,7.54,4.31a22.86,22.86,0,0,1,4.74,4.05l.18.24.36.49.24.38.25.41.24.43.21.38c.08.16.15.32.23.47s.12.24.17.37a2.26,2.26,0,0,1,.11.22,1,1,0,0,1,.07-.15q.27-.69.57-1.35c.05-.11.09-.23.14-.34l.36-.78c0-.11.09-.21.14-.32h0c.21-.46.43-.91.65-1.35h0l.15-.28q.3-.6.63-1.2l.29-.52q.39-.71.81-1.38l0-.05h0c.38-.61.76-1.21,1.16-1.77h0a.36.36,0,0,1,.07-.1l0-.06a.71.71,0,0,1,.1-.14c.15-.22.31-.43.47-.64l.15-.19.81-1,.19-.23h0c.18-.21.37-.41.55-.61h0l.31-.3c.18-.19.36-.38.54-.55l.16-.16c.14-.14.29-.25.43-.38l.42-.37.12-.11.26-.2h0a16.46,16.46,0,0,1,1.81-1.27h0l.21-.11,0,0c-.07.05-.16.08-.24.13l.26-.14c.34-.19.67-.37,1-.53l.54-.23c.28-.12.56-.23.85-.33h0l.32-.1.06,0,.13,0h0l0,0c.3-.09.61-.16.92-.23l.52-.12c.46-.08.93-.14,1.4-.18h.09a1.63,1.63,0,0,1,.43.13h0a2.69,2.69,0,0,1,.32.13l.06,0,.19.08.12.05h0l.19.08.25.11.08,0,.25.1h0a1.45,1.45,0,0,0,.38.11h0l.08.05h0c.86-.08,1.7-.17,2.54-.27a76.26,76.26,0,0,0,1.66-10.56A1.08,1.08,0,0,1,86,122a1.06,1.06,0,0,1-.92-.52,1,1,0,0,1-.92.64,1.09,1.09,0,0,1-1.07-.84,1.07,1.07,0,0,1-.93.64,1.08,1.08,0,0,1-1-.74,1,1,0,0,1-.82.46,1.1,1.1,0,0,1-1.11-1.1h0a1.15,1.15,0,0,1,.69-1.08c0-.24,0-.48,0-.71,0-.66.05-1.27.1-1.86v-.11a.69.69,0,0,1,0-.13c0-.51.1-1,.17-1.46l0-.17c.07-.48.17-.94.27-1.37a3.18,3.18,0,0,1,.08-.33c.08-.31.16-.6.25-.88l.12-.38c.1-.32.21-.62.32-.9l.15-.36.26-.57.18-.36c.08-.14.15-.28.23-.41l.16-.29.34-.52a1.77,1.77,0,0,1,.16-.22,3.16,3.16,0,0,1,.2-.27l.07-.1,0,0a3.62,3.62,0,0,1,.29-.34l.07-.08h0a2.47,2.47,0,0,1-1.52-.67,2.25,2.25,0,0,1-1.6,2c-3.29,1-2.27-5.55-2.27-5.55s.86,5.52,1.87,2.11l.32-1.06A17.92,17.92,0,0,1,77,102.11c-3.06-2.55-3.95-4.75-4.43-9s.72-6.71,3.22-7.13a3.74,3.74,0,0,1,.66,0c-.41-1.09-.87-2.37-1.35-3.84-.32-.9-.62-1.82-.88-2.76l-.06-.18a20.91,20.91,0,0,1-.64-2.63c-.26-1.24-.49-2.5-.65-3.79,0-.35-.09-.71-.13-1.07a46.16,46.16,0,0,1-.28-5c0-24.08,11.79-44.51,41.42-44.51,8.95,0,16,2.06,21.62,5.55.78,0,1.74.52,3.07,1.83a8.08,8.08,0,0,1,.94,1.16,36.07,36.07,0,0,1,9.15,12.72,10.42,10.42,0,0,1,6.56,2.67c4.55,4.52,0,5.17-3,8.53l-.05.06a82.08,82.08,0,0,1,1.52,16.2,41.76,41.76,0,0,1-2.82,15.43c2,.79,2.91,3.18,2.47,7-.49,4.31-1.39,6.55-4.5,9.14a23.86,23.86,0,0,1-2.72,2c.12.38.25.81.4,1.34,1,3.41,1.87-2.11,1.87-2.11s1,6.54-2.27,5.55c-1.77-.54-1.81-2.48-1.47-4.16a3.09,3.09,0,0,1-.91.08A19.48,19.48,0,0,1,142,109a1.48,1.48,0,0,1-.08.13l0,0c.06.09.11.19.17.29l.22.41.18.36c.09.18.18.37.26.57s.11.24.16.37c.11.28.22.57.32.88l.12.39q.13.42.24.87l.09.34c.1.43.19.89.27,1.37a1,1,0,0,1,0,.17c.08.46.13.95.18,1.46a.51.51,0,0,0,0,.13v.11c.05.59.09,1.2.09,1.86v.71a1.16,1.16,0,0,1,.68,1.08h0a1.11,1.11,0,0,1-1.12,1.1,1.07,1.07,0,0,1-.82-.46,1.07,1.07,0,0,1-1,.74,1.08,1.08,0,0,1-.93-.64,1,1,0,0,1-2,.2,1,1,0,0,1-.92.52,1.09,1.09,0,0,1-1-1,1.06,1.06,0,0,1-.87.43,1.11,1.11,0,0,1-1.05-1.17,1.15,1.15,0,0,1,.9-1.09h.22a.71.71,0,0,1,.25.06,21.72,21.72,0,0,1,.19-4.35c-.28.22-.55.46-.85.68a70.9,70.9,0,0,1-10.85,6.18l-1.25.57v6.4a107.57,107.57,0,0,0,15.73,3.49l.83.11,1.54.2.93.1,2.1.2,0,0,.8.06c.65,0,1.29.14,1.92.25l.4.08c.49.1,1,.21,1.44.35l.27.07h0c.33.1.66.2,1,.32h0l.07,0a18.54,18.54,0,0,1,5,2.87c.14.12.3.22.44.35s.45.4.67.6l.64.58c.2.2.39.42.59.63s.45.46.66.71.37.44.55.67.44.53.66.82l.51.72c.17.23.34.45.5.69v0l0,.07,0,0,0,0c0,.06.07.12.11.17l.18.29c.3.47.59,1,.87,1.45.06.09.11.19.17.29.31.56.62,1.15.92,1.76l.18.37c.28.58.56,1.18.83,1.81a.77.77,0,0,1,.07.16c.29.67.57,1.38.84,2.1l.15.4c.27.74.54,1.48.79,2.27l.27.79c.16.49.32,1,.49,1.47l.39,1.11c.14.39.27.78.41,1.16l.42,1.17.39,1,.48,1.28.08.23,1.4,3.73c0,.07.05.15.08.22.23.62.45,1.24.68,1.85l.24.7c.11.3.22.6.32.9s.11.33.17.49l.3.91c.15.43.28.86.42,1.29s.19.62.29.93.26.87.38,1.3l.26.92.36,1.43c.07.27.14.54.2.82.16.7.31,1.41.45,2.12,0,.08,0,.15,0,.23.14.74.26,1.5.37,2.26l.09.81q.1.79.18,1.62c0,.31,0,.64.07,1s.06.69.08,1.05,0,.44,0,.67,0,.3,0,.45q0,1.18,0,2.4c0,.14,0,.28,0,.42,0,.86-.06,1.73-.13,2.62v0c-.11,1.31-.23,2.62-.37,3.93,0,.15,0,.3,0,.44,0,.29-.07.59-.1.88s-.09.84-.14,1.27-.13,1.07-.2,1.61-.1.88-.16,1.32-.13,1-.2,1.52-.13,1-.19,1.48c-.05.33-.1.67-.14,1-.49,3.57-1,7.2-1.49,10.91,0,.12,0,.24,0,.35-.12.9-.23,1.8-.34,2.7,0,.25,0,.5-.08.75l-.27,2.35-.09,1c-.08.73-.15,1.47-.22,2.21l-.09,1c-.06.72-.12,1.44-.17,2.17,0,.36-.06.73-.08,1.09,0,.73-.09,1.46-.13,2.18l-.06,1.1c0,.76,0,1.51-.08,2.27l0,1c0,.82,0,1.66,0,2.49v.86c0,1.13,0,2.26.07,3.4.33,9.44.41,27.67.8,45v.16l0,1.44v.29l0,1.3c0,.18,0,.36,0,.54l0,1.07c0,.66,0,1.32,0,2,0,.17,0,.33,0,.49,0,.61,0,1.21,0,1.82v.24c0,.71,0,1.43.07,2.13V301h0l9.82-.49-.07-2.11-.13-4.47-.11-4.63-9.82.28,9.81-.41c-.17-7.89-.29-16.12-.39-23.38-.12-8.85-.23-16.5-.42-21.71,0-1,0-2.07-.06-3.1v-.77c0-.76,0-1.53,0-2.28l0-1c0-.7,0-1.4.08-2.09l.05-1c0-.68.07-1.36.12-2l.07-1c.05-.68.1-1.36.16-2l.09-1c.06-.7.13-1.39.2-2.1l.1-.89c.08-.75.16-1.5.25-2.25l.08-.72c.11-.87.21-1.74.32-2.6l.05-.34c.32-2.5.66-5,1-7.4l.47-3.44.55-4.09.15-1.2s.15-1.3.22-1.85l.25-2.24,0-.49c.14-1.37.27-2.75.38-4.15a.31.31,0,0,0,0-.09c.08-1,.13-2,.16-3.17l0-.5C185.5,189.31,185.49,188.33,185.47,187.34ZM78.11,132l-.32.09h0Zm-3.22,1.07.36-.15.1-.05h0l-.1.05-.36.15Z"/>
      <path d="M123.88,387.21h0Z"/>
      <path d="M95.39,130.57c2.25-.51,4.11-1,5.4-1.36h0c1.25-.35,2-.58,2-.58v-6.15h0v-.25c-2.19-.93-4.29-2-6.11-2.9A83,83,0,0,1,95.39,130.57Z"/>
      <polygon points="113.59 367.97 113.59 367.97 113.59 367.97 113.59 367.97"/>
      <path d="M86.85,112.55v-.06l0,0A.29.29,0,0,1,86.85,112.55Z"/>
      <path d="M38.43,138.86a10.58,10.58,0,0,1-2,4.41,10.39,10.39,0,0,0,5.81-9.89c0-.2,0-.39,0-.58a33.2,33.2,0,0,0-4.85-1.12A10.73,10.73,0,0,1,38.43,138.86Z"/>
      <path d="M36.45,143.27a9.59,9.59,0,0,1-3.46.87c-.23,0-.46,0-.69,0a9.5,9.5,0,0,1-5.91-2.08,5.38,5.38,0,0,0,2,3.8,8.23,8.23,0,0,0,3.18.81A9.88,9.88,0,0,0,36.45,143.27Z"/>
    </g>
    <g>
      <path class="cls-3" d="M71.27,115.08a.64.64,0,0,1,.1-.13l-.19,0A1,1,0,0,1,71.27,115.08Z"/>
      <path class="cls-3" d="M75,115.33s0,0,0,0h0Z"/>
      <path class="cls-3" d="M73.15,115.46a1.74,1.74,0,0,1,.11-.18l-.17,0Z"/>
      <path class="cls-3" d="M52.19,144.51a1.3,1.3,0,0,0-.08-.17l.08.17Z"/>
      <path class="cls-3" d="M36.14,132.5h0Z"/>
      <path class="cls-3" d="M52.19,144.5l.06-.12h0l-.06.13Z"/>
      <path class="cls-3" d="M127.51,115l-.17-.06a1.06,1.06,0,0,1,0,.19A.53.53,0,0,1,127.51,115Z"/>
      <path class="cls-3" d="M131.08,115.26l-.17,0a1.74,1.74,0,0,1,.11.18A.76.76,0,0,1,131.08,115.26Z"/>
      <path class="cls-3" d="M133,114.9l-.19,0a1.47,1.47,0,0,1,.1.13A1,1,0,0,1,133,114.9Z"/>
      <path class="cls-3" d="M129.18,115.31h0l0,0Z"/>
      <path class="cls-3" d="M162.08,298.17c0,1.41.11,2.79.17,4.14v.14l9.81-.62c-.06-1.32-.11-2.68-.16-4.06l-.08-2.15L162,296c0,.68.05,1.35.07,2Z"/>
      <path class="cls-3" d="M66.65,127.38h0l-.31.1h0Z"/>
      <path class="cls-3" d="M162.45,306.37v.15c.07,1.25.14,2.47.22,3.64v.17q.06.84.12,1.65v0c0,.55.08,1.08.12,1.61a1.49,1.49,0,0,1,0,.21q.06.67.12,1.32a1.5,1.5,0,0,0,0,.22c0,.48.09.95.13,1.4a1,1,0,0,1,0,.17c0,.39.08.76.13,1.13l0,.27c.05.41.1.81.15,1.18,0,0,0,.07,0,.11q.07.51.15,1c0,.09,0,.18,0,.28,0,.33.11.65.17,1,0,0,0,.06,0,.1.06.27.11.52.16.76l.06.25c.05.23.1.46.16.67,0,0,0,0,0,.06l0,.11,0,0s0,.07,0,.11a.36.36,0,0,0,0,.09l-.07.14-.06.13-.11.22c-.05.09-.1.18-.15.29l-.1.16c0,.08-.1.17-.15.26l-.11.18-.1.16-.07.1-.32.48-.13.19h0c-.28.38-.6.79-1,1.22h0l-.13.14c-.08.09-.18.19-.26.29l-.55.57c-.22.22-.45.45-.7.67a.23.23,0,0,1-.07.07c-.12.12-.26.23-.39.34l-.35.31-.5.4c-.2.16-.39.31-.6.46l-.78.57-.41.27c-.2.13-.4.27-.62.4h0l0,0-.14.09-.09.06a16,16,0,0,0-2.09,1.56l-.24.23-.65.62-.32.34-.5.55c-.11.13-.22.25-.32.38s-.3.36-.44.55a3.57,3.57,0,0,0-.3.38q-.22.28-.42.57c-.09.12-.19.25-.27.37l-.44.62-.21.32-.6.89-.54.81v0h0l0,0-.43.63-.25.35c-.17.25-.35.49-.53.72l-.14.19h0a10.08,10.08,0,0,1-4,3.37,18.77,18.77,0,0,0-3.36-6.56h0c-.16.4-.33.8-.51,1.21,0,.08-.08.16-.11.24-.15.33-.3.66-.47,1-.06.13-.14.27-.21.41s-.29.57-.45.86l-.27.49c-.15.27-.31.54-.48.82l-.32.52c-.17.27-.34.55-.52.82l-.36.54-.59.83-.4.54c-.21.28-.44.57-.67.86l-.41.52-.81.94c-.13.14-.25.29-.38.44L132,351.5l-.16.16c-.46.47-.95.93-1.45,1.39l-.33.29c-.4.36-.8.72-1.23,1.07l-.56.45c-.37.3-.74.6-1.13.9l-.68.5-1.16.83-.76.51-1.22.79-.83.51-1.32.76-.88.49-1.45.75-.63.34v0l-.58.3v3.76h0l0,.2v0c0,.05,0,.12,0,.18l0,.11c0,.07,0,.15.07.23l.06.18c0,.09.07.18.11.28s.07.16.1.25l.15.32.16.32a3.13,3.13,0,0,0,.19.36l.22.4c.08.13.15.26.24.39s.3.49.48.76h0l0,0c.08.12.16.27.25.42s.05.08.08.14h0c0,.09.1.21.15.3s.15.28.22.43c1.48,3.22,2.79,9.44-2.89,11.15l.13,0-.13,0-.38.1-.31.08-.4.07-.36.06-.4.05-.42,0h-.3c-.18,0-.36,0-.55,0H113.2l-.54,0-.35,0h0c-8.51-.8-8-8-8.26-11.29-.07-.93-.11-1.82-.13-2.66,0-1.38,0-2.6-.08-3.58,0-.32,0-.61-.07-.87v0a4.06,4.06,0,0,0-.13-.72h0l0,0a4.92,4.92,0,0,0-.12.66s0,.07,0,.1q0,.38-.06.81c0,.09,0,.18,0,.26s0,.27,0,.42c0,.86,0,1.86-.06,3,0,.84-.07,1.73-.14,2.66,0,.07,0,.15,0,.22a1,1,0,0,0,0,.17c0,.54-.06,1.15-.11,1.81v0q0,.6-.12,1.23l0,.11a6,6,0,0,1-.09.61v0c0,.2-.08.41-.13.62l0,.13c0,.17-.08.35-.13.52l0,.11c-.06.21-.13.41-.2.61a.69.69,0,0,0,0,.1l-.21.51-.07.14a7.41,7.41,0,0,1-.65,1.12l-.1.14a4.94,4.94,0,0,1-.36.44l-.07.09-.49.48-.12.1c-.15.13-.3.24-.46.36l-.09.07h0l0,0,0,0h0l0,0-.36.22L99,381c-.19.11-.38.2-.59.3l-.11,0a4.87,4.87,0,0,1-.53.21l-.28.09-.42.13-.35.09-.41.09-.4.07-.42.06-.45.05-.43,0-.51,0H93l-.3,0a5.68,5.68,0,0,1-.59,0l-.37,0-.5-.07-.33-.05-.47-.1-.28-.07a3.8,3.8,0,0,1-.51-.15l-.14,0h-.05a5.39,5.39,0,0,1-.6-.25l-.09-.05a4.53,4.53,0,0,1-.44-.23l-.15-.1a4,4,0,0,1-.34-.23l-.14-.11-.29-.25-.12-.12L87,380l-.08-.09c-2.1-2.61-1.07-6.82.06-9.28a9.12,9.12,0,0,1,.73-1.33,13.11,13.11,0,0,0,1.73-3.36h0l.08-.25v0a2.33,2.33,0,0,0,.07-.35h0v-3.77h0c-.69-.33-1.34-.67-2-1l-.46-.25c-.63-.34-1.25-.68-1.84-1l-.14-.09q-.84-.5-1.62-1l-.4-.25-1.6-1.08-.2-.15-1.35-1-.33-.25c-.47-.37-.93-.74-1.38-1.12l-.22-.19c-.39-.33-.77-.66-1.14-1l-.26-.24c-.41-.37-.8-.75-1.18-1.13l-.22-.23c-.33-.33-.65-.67-1-1l-.2-.22q-.51-.57-1-1.14l-.21-.24-.81-1-.14-.19c-.29-.37-.56-.75-.83-1.13l-.18-.25-.68-1-.09-.13c-.24-.38-.46-.74-.68-1.11l-.14-.25c-.21-.35-.4-.69-.58-1a.43.43,0,0,0,0-.07c-.19-.36-.37-.72-.54-1.07,0-.08-.09-.16-.13-.25-.16-.34-.32-.69-.47-1h0c-.15-.34-.28-.67-.42-1l-.09-.24c-.13-.32-.25-.63-.36-.94l0-.1c-.1-.28-.2-.56-.29-.83a1.87,1.87,0,0,0-.07-.22c-.08-.27-.17-.54-.24-.8-.46,1.75-.89,3.38-1.28,4.93l0,.11c-.18.75-.36,1.47-.52,2.18l0,.15c-.16.69-.31,1.37-.44,2a.51.51,0,0,1,0,.13l-.12-.06a5.58,5.58,0,0,1-.69-.35l-.27-.16c-.18-.12-.36-.24-.53-.37l-.22-.17c-.21-.16-.41-.34-.61-.52h0c-2.81-2.65-4.49-7.05-8.21-10.34h0l-.59-.48A15.47,15.47,0,0,0,51,332.21a21.15,21.15,0,0,1-7.3-7h0l-.13-.24a.75.75,0,0,1-.07-.12,8,8,0,0,1-.43-.88v0l-.08-.19c0-.18.11-.38.16-.6a.29.29,0,0,1,0-.09q.06-.27.12-.57l0-.16c0-.18.08-.37.11-.57s0-.13,0-.2.07-.39.1-.59l0-.23c0-.21.07-.42.1-.64l0-.23c0-.23.07-.46.1-.7l0-.23c0-.25.06-.52.09-.79a1.11,1.11,0,0,0,0-.19c0-.29.07-.59.1-.9l0-.13c.3-2.92.55-6.42.77-10.32v-.06c0-.47,0-.95.07-1.44v0c.27-5.52.48-11.75.63-18.18v-.08l0-1.65V285l-9.83-.14,0,1.72c-.17,7.11-.37,13-.62,17.9L35,306c-.21,3.92-.46,7.21-.73,9.79,0,0-.09.86-.09.86l-.12,1-.1.75-.11.73-.09.57-.12.63-.13.55a10.93,10.93,0,0,0,.32,6.76l.18.47a19.5,19.5,0,0,0,.89,1.85l.15.26a4.76,4.76,0,0,0,.27.48c.08.14.16.28.25.41A31.33,31.33,0,0,0,46,341.13a6.82,6.82,0,0,1,.61.46l.21.16a20.77,20.77,0,0,1,3.06,3.94,34.86,34.86,0,0,0,4.68,6l.22.21c.4.37.8.72,1.23,1.07l.49.36c.37.28.75.55,1.11.77l.62.38c.43.25.88.49,1.34.7l.48.22a9.35,9.35,0,0,0,3.73.78,9.46,9.46,0,0,0,1.91-.2l.09.1c.4.48.81.95,1.25,1.44l.24.25c.38.42.78.84,1.25,1.32l.22.22c.46.46.94.93,1.46,1.4l.32.29c.44.41.9.82,1.41,1.25l.25.21c.53.45,1.09.9,1.67,1.35l.4.3c.52.4,1.06.8,1.63,1.21l.23.16c.58.41,1.18.81,1.79,1.21-2.49,5.78-3.34,13.89,1.5,19.9l.29.35c.26.3.53.6.87.94l.3.29c.26.24.53.48.81.71s.3.24.45.34.57.42.87.61a4.8,4.8,0,0,0,.45.28c.34.21.7.4,1.07.59l.31.15a13.69,13.69,0,0,0,1.3.55l.24.09.48.16c.31.1.61.19.89.26l.59.15c.3.06.6.13.87.17s.47.09.65.11.59.08.94.12l.58.06.9,0,.57,0h.51l.56,0h.56l.82,0c.24,0,.48,0,.7-.06s.53-.05.77-.09l.69-.1.72-.13.75-.17.11,0,.52-.13.79-.24.58-.19c.35-.12.67-.25,1-.39l.33-.14c.46-.2.89-.42,1.3-.64l.08-.05a19.68,19.68,0,0,0,7.35,2.26l.2,0,.79.06.82,0,.56,0h1.11c.25,0,.48,0,.72,0l.75,0,.61-.06.1,0,.58-.07c.21,0,.4-.06.64-.1l.15,0,.67-.14.58-.13.06,0,.6-.16.49-.15.38-.13a15.32,15.32,0,0,0,9.22-8.55c2.79-6.57.64-13.25-.67-16.29l.46-.3.9-.6,1.39-1,.81-.59c.47-.36.92-.72,1.36-1.08,0,0,.52-.41.68-.55.52-.44,1-.88,1.54-1.34l.37-.33c.62-.57,1.22-1.14,1.75-1.68l.3-.3c.47-.49.93-1,1.36-1.45.14-.15.28-.31.41-.47l.08-.08.8-.93a9.73,9.73,0,0,0,1.93.2,9.37,9.37,0,0,0,3.7-.77,19.76,19.76,0,0,0,7.93-6.45l.24-.31c.23-.31.46-.62.66-.91l.79-1.13s1.19-1.78,1.19-1.78l.54-.78s.39-.54.48-.65l.21-.27.26-.33.18-.21c.08-.1.17-.18.22-.24l.18-.2.33-.3.13-.13a5.4,5.4,0,0,1,.71-.52l.3-.19.72-.48.16-.1.48-.32c.37-.26.72-.51,1.09-.79s.56-.42.84-.64l.11-.09.55-.45.47-.4.14-.12.5-.44.19-.18.9-.87.8-.84.55-.6c.14-.16.27-.31.4-.48.34-.41.67-.83,1-1.24.07-.09.13-.18.2-.26l.29-.42.38-.55.2-.31.33-.53.32-.55.16-.28.28-.52.23-.47.28-.6.22-.52.18-.47a10.92,10.92,0,0,0,.32-6.45s-.1-.36-.12-.44-.09-.44-.12-.58-.1-.56-.13-.8c0,0-.12-.73-.17-1.1s-.08-.66-.12-1c0,0-.11-.91-.14-1.26l-.15-1.49s-.09-1-.12-1.36c0,0-.1-1.22-.13-1.74,0,0-.08-1.08-.12-1.62l-9.8.72,9.79-.88c-.07-1.13-.14-2.31-.21-3.52l-9.81.59,9.8-.73c-.06-1.23-.12-2.51-.18-3.82l-9.82.48h0C162.31,303.79,162.38,305.1,162.45,306.37Z"/>
      <polygon class="cls-3" points="129.56 127.12 129.56 127.12 129.56 127.12 129.56 127.12"/>
      <path class="cls-3" d="M175.5,182.34l0-.52s0-.61,0-.84,0-.68-.07-1l0-.48c0-.32,0-.64-.07-1-.06-.67-.14-1.33-.21-2l0-.19-.09-.79c-.13-.93-.28-1.84-.45-2.72l-.05-.29c-.16-.86-.34-1.7-.53-2.54-.06-.26-.12-.51-.19-.76l-.05-.19c-.13-.57-.27-1.13-.42-1.67-.08-.3-.17-.6-.25-.9l-.05-.17c-.14-.49-.28-1-.44-1.5-.1-.34-.21-.69-.32-1s-.31-1-.46-1.42l-.52-1.55-.61-1.71c-.23-.65-.47-1.3-.72-2l-.07-.18-1.43-3.81-1.31-3.56-.75-2.12-.45-1.35-.24-.73c-.3-.91-.61-1.79-.93-2.66l-.18-.49c-.33-.86-.66-1.7-1-2.47l-.11-.24c-.33-.77-.67-1.5-1-2.25l-.22-.44c-.38-.76-.77-1.51-1.16-2.21l-.22-.38c-.37-.65-.75-1.27-1.17-1.93l-.12-.19c-.07-.13-.35-.55-.37-.59-.18-.27-.37-.52-.55-.77l-.2-.29-.59-.81c-.26-.35-.53-.68-.81-1l-.21-.26c-.21-.27-.42-.53-.63-.76s-.56-.62-.84-.92l-.2-.21-.74-.77c-.27-.26-.53-.51-.81-.75l-.24-.22c-.28-.27-.57-.53-.85-.76s-.45-.36-.67-.53a28.44,28.44,0,0,0-7.52-4.31h0a12.19,12.19,0,0,0,.56-3.29v-.14a12,12,0,0,0-.59-4,12.08,12.08,0,0,0,1.14-1.22,14.81,14.81,0,0,0,3-8.41c3.32-4.14,4.29-8.46,4.76-12.59a20.34,20.34,0,0,0-1.22-10.3,54,54,0,0,0,1.64-13.37,97.84,97.84,0,0,0-.72-12.06A13,13,0,0,0,157,45c.24-4.1-1.44-8-5-11.5a18.17,18.17,0,0,0-6.79-4.24,45.07,45.07,0,0,0-8.54-10.82A14.62,14.62,0,0,0,135.33,17a16.1,16.1,0,0,0-6.27-4.08C121.94,8.86,113.49,6.8,103.9,6.8c-31.61,0-51.24,21-51.24,54.85A57.74,57.74,0,0,0,53,67.77c0,.47.11,1,.16,1.37.2,1.47.45,3,.77,4.47a31.14,31.14,0,0,0,.93,3.78c-1.71,3-2.58,7-2,12,.5,4.32,1.53,8.84,5.27,13.13a14.89,14.89,0,0,0,2.24,6.74c-.05.38-.09.79-.14,1.24,0,.08,0,.16,0,.24s0,.51,0,.53a12,12,0,0,0-.79,4.35,2.71,2.71,0,0,0,0,.29,11.89,11.89,0,0,0,.54,3.25l-.5.28c-.21.11-.42.22-.63.35l-.33.2c-.68.43-1.36.9-2.06,1.43q-.23.15-.45.33l-.5.4-.78.69-.62.55-.35.34c-.23.22-.45.45-.68.69l0,0-.47.47-.31.36c-.07.07-.39.41-.47.52s-.23.26-.34.4c-.31.36-.61.73-.93,1.14a4.08,4.08,0,0,0-.31.39c-.06.07-.62,4-.68,4a91.7,91.7,0,0,0-8.31-5c-2.48-4.32-6.79-7.2-8.92-7.86s-4-2.45-6.47-2.61l-1.26.57c-2.14.6,1.63-.57,1.26-.57h-.28c-2.73,0-5.54,1.72-8.23,4.54a13.44,13.44,0,0,0-4.53,3.36c-.85.54-1.79,2.11-2.5,2.87-1.75,1.91-2.82,4-2.66,9.69.24,8,4.62,9.91,7,11.54,1.29.87,3.51,1.32,5.31,1.74a23.46,23.46,0,0,0,3.72,2.92c2.3,1.4,2.26.89,6.22,1.42.2,0,2.18,0,2.42,0,.22,3.14,1.48,3,1.6,7.54a12.09,12.09,0,0,0,1.57,4c-.19.7-1.84,2.47-2,3.19l-.2.86c-.28,1.24-.5,2.36-.67,3.4,0,.15,0,.31-.07.47-.16.95-.29,1.94-.41,3,0,.21-.05.43-.07.63s-.05.54-.07.82v.14c0,.41-.07.81-.09,1.21,0,.61-.06,1.23-.08,1.85v.23l0,.92c0,.7,0,1.42,0,2.15v.2c0,.25,0,.5,0,.75,0,1.12.1,2.18.18,3.22l0,.23c.09,1.21.21,2.43.33,3.65l.14,1.28c.1.91.2,1.83.32,2.77l.13,1.14c.16,1.22.31,2.45.48,3.67l1.17,8.51.47,3.52c.12,1,.25,2,.36,2.95l.13,1.05q.16,1.38.3,2.76l.13,1.31c.07.71.14,1.43.2,2.15,0,.43.11,1.42.11,1.42l.15,2.08c0,.47.06.94.08,1.42,0,.73.07,1.47.09,2.21,0,0,0,1,.05,1.28,0,1,0,2,0,3v.47q0,1.6-.06,3.24l0,1.53-.06,2.1,0,2.32-.12,6.08c0,3-.09,6.29-.14,9.73l-.1,7.07-.15,9.17-.15,7.7,9.82.25h0l0-1.72h0c0-1.18,0-2.36.07-3.55,0-.68,0-1.36,0-2v-.46l0-1.58v-.48l0-1.88v-.08l0-1.91c0-.28,0-.57,0-.85s0-.66,0-1,0-.73,0-1.09V268c.09-6,.17-11.74.25-16.77v-.17c0-1.1,0-2.17,0-3.19v-.32c0-.7,0-1.38,0-2,0-.11,0-.21,0-.31,0-.62,0-1.22,0-1.8,0-.16,0-.31,0-.46,0-.48,0-.94,0-1.39,0-.22,0-.43,0-.65,0-.38,0-.74,0-1.1,0-.12,0-.26,0-.38,0-1.2.07-2.4.07-3.58,0-.17,0-.34,0-.52,0-1.11,0-2.21,0-3.31,0-.46,0-.92-.05-1.38,0-.81-.06-1.61-.1-2.4l-.09-1.53c0-.75-.1-1.49-.16-2.23,0-.51-.07-1-.12-1.52q-.09-1.14-.21-2.28c0-.46-.08-.91-.13-1.37-.1-1-.21-1.94-.32-2.9,0-.37-.09-.73-.13-1.09-.12-1-.25-2-.38-3.05-.06-.51-.13-1-.2-1.52-.09-.69-.18-1.39-.28-2.07L44,206.91l-.33-2.38,0-.14c-.15-1.07-.3-2.12-.44-3.18,0-.33-.09-.66-.13-1-.16-1.2-.32-2.4-.47-3.58,0-.37-.09-.74-.13-1.11-.11-.89-.21-1.76-.3-2.64,0-.4-.09-.8-.13-1.2-.11-1.14-.22-2.28-.31-3.41,0-.07,0-.13,0-.2-.07-.94-.12-1.84-.15-2.74,0-.27,0-.53,0-.79,0-.61,0-1.21,0-1.8l0-.95c0-.51,0-1,.07-1.52,0-.33.05-.66.08-1s0-.53.06-.79,0-.27.05-.41c.1-.92.21-1.82.36-2.7l0-.26c.17-1,.36-1.92.57-2.86.06-.24.12-.49.17-.73q.27-1.11.57-2.19c.06-.22.11-.44.18-.65.26-.91.53-1.82.83-2.72v0c-.16-1.68-.32-3.23-.48-4.67H44l-.62-.13h0l-.49-.12-.11,0a3.3,3.3,0,0,1-.38-.13,3.73,3.73,0,0,1-1.62-1.65h0c-1.22-2.08-1.74-5.55-.09-7.82a4.85,4.85,0,0,1,1.42-1.31l0-.05-.08-.12A4.72,4.72,0,0,0,39.56,148c-1.29-.44-2.81-.93-4-1.27-2.57-.72-9-1.14-10.06-1.81a14.86,14.86,0,0,1-2.8-3.13s-.47,0-1.11-.08a9.15,9.15,0,0,1-2.72.42c-.65,0-.7.23-1.31-.07-2.92-1.46-4.34-5.37-3.14-9,.42-1.28,0,0,2.82-1.36,1.71-2.25.82-2.79,3.75-2.93,0,0,.47.86.47,0,0-5.06,6.63-2.25,9.5-1.54,2,.63,5,2,5.13,2.76a5.56,5.56,0,0,1,0,.82c0,.07,0,.14,0,.22a3.23,3.23,0,0,1-.11.47,2.09,2.09,0,0,1-.08.23,3.92,3.92,0,0,1-.16.36,1.74,1.74,0,0,1-.1.19l-.06.11.06-.11a4.18,4.18,0,0,1-.25.38h0a4.44,4.44,0,0,1,.77-.08h.24l.43,0,.31,0a5.71,5.71,0,0,1,.64.14l.17,0c2.72.8,5.23,2.66,7.54,4.31a22.86,22.86,0,0,1,4.74,4.05l.18.24.36.49.24.38.25.41.24.43.21.38c.08.16.15.32.23.47s.12.24.17.37a2.26,2.26,0,0,1,.11.22,1,1,0,0,1,.07-.15q.27-.69.57-1.35c.05-.11.09-.23.14-.34l.36-.78a2.3,2.3,0,0,1,.15-.32h0c.21-.46.43-.91.65-1.35h0l.15-.28q.3-.6.63-1.2l.29-.52q.39-.71.81-1.38l0-.05h0c.38-.61.76-1.21,1.16-1.77h0a.36.36,0,0,1,.07-.1l0-.06a.71.71,0,0,1,.1-.14c.15-.22.31-.43.47-.64l.15-.19.81-1a2.11,2.11,0,0,0,.19-.23h0c.18-.21.37-.41.55-.61h0l.31-.3c.18-.19.36-.38.54-.55l.16-.16c.14-.14.29-.25.43-.38l.42-.37.12-.11.26-.2h0a16.46,16.46,0,0,1,1.81-1.27h0l.21-.11,0,0c-.07.05-.16.08-.24.13l.26-.14c.34-.19.67-.37,1-.53l.54-.23c.28-.12.56-.23.85-.33h0l.31-.1.06,0,.13,0h0l0,0c.3-.09.61-.16.92-.23l.52-.12c.46-.08.93-.14,1.4-.18h.09a1.63,1.63,0,0,1,.43.13h0a2.69,2.69,0,0,1,.32.13l.06,0,.19.08.12,0h0l.19.08.25.11.08,0,.25.1h0a1.45,1.45,0,0,0,.38.11h0l.08.05h0c.86-.08,1.7-.17,2.54-.27a76.26,76.26,0,0,0,1.66-10.56,1,1,0,0,1-1.33-.41,1,1,0,0,1-.92.64,1.09,1.09,0,0,1-1.07-.84,1.07,1.07,0,0,1-.93.64,1.08,1.08,0,0,1-1-.74,1,1,0,0,1-.82.46,1.1,1.1,0,0,1-1.11-1.1h0a1.15,1.15,0,0,1,.69-1.08c0-.24,0-.48,0-.71,0-.66.05-1.27.1-1.86v-.11a.69.69,0,0,1,0-.13c0-.51.1-1,.17-1.46l0-.17c.07-.48.17-.94.27-1.37a3.18,3.18,0,0,1,.08-.33c.08-.31.16-.6.25-.88l.12-.38c.1-.32.21-.62.32-.9l.15-.36.26-.57.18-.36.23-.41.16-.29.34-.52a1.77,1.77,0,0,1,.16-.22,3.16,3.16,0,0,1,.2-.27L73,103l.05,0c.11-.13.2-.25.29-.34l.07-.08h0a2.47,2.47,0,0,1-1.52-.67,2.25,2.25,0,0,1-1.6,2C67,104.89,68,98.34,68,98.34s.86,5.52,1.87,2.11l.32-1.06A17.92,17.92,0,0,1,67,97.11c-3.06-2.55-3.95-4.75-4.43-9s.72-6.71,3.22-7.13a3.74,3.74,0,0,1,.66,0c-.41-1.09-.87-2.37-1.35-3.84-.32-.9-.62-1.82-.88-2.76l-.06-.18a20.91,20.91,0,0,1-.64-2.63c-.26-1.24-.49-2.5-.65-3.79,0-.35-.09-.71-.13-1.07a46.16,46.16,0,0,1-.28-5c0-24.08,11.79-44.51,41.42-44.51,8.95,0,16,2.06,21.62,5.55.78,0,1.74.52,3.07,1.83a8.08,8.08,0,0,1,.94,1.16,36.07,36.07,0,0,1,9.15,12.72c2.34.21-3.8,3.38-2,5.14,4.55,4.51,8.62,2.7,5.6,6.06l-.05.06a82.08,82.08,0,0,1,1.52,16.2,41.76,41.76,0,0,1-2.82,15.43c2,.79,2.91,3.18,2.47,7-.49,4.31-1.39,6.55-4.5,9.14a23.86,23.86,0,0,1-2.72,2c.12.38.25.81.4,1.34,1,3.41,1.87-2.11,1.87-2.11s1,6.54-2.27,5.55c-1.77-.54-1.81-2.48-1.47-4.16a3.09,3.09,0,0,1-.91.08A18.9,18.9,0,0,1,132,104a1.48,1.48,0,0,1-.08.13l0,0c.06.09.11.19.17.29l.22.41.18.36c.09.18.18.37.26.57s.11.24.16.37c.11.28.22.57.32.88l.12.39q.14.42.24.87l.09.34c.1.43.19.89.27,1.37a1,1,0,0,1,0,.17c.08.46.13.95.18,1.46a.51.51,0,0,0,0,.13v.11c.05.59.09,1.2.09,1.86,0,.23,0,.47,0,.71a1.16,1.16,0,0,1,.68,1.08h0a1.11,1.11,0,0,1-1.12,1.1,1.07,1.07,0,0,1-.82-.46,1.07,1.07,0,0,1-1,.74,1.08,1.08,0,0,1-.93-.64,1,1,0,0,1-2,.2,1,1,0,0,1-.92.52,1.09,1.09,0,0,1-1-1,1.06,1.06,0,0,1-.87.43,1.11,1.11,0,0,1-1-1.17,1.15,1.15,0,0,1,.9-1.09h.22a.71.71,0,0,1,.25.06,21.72,21.72,0,0,1,.19-4.35c-.28.22-.55.46-.85.68a70.9,70.9,0,0,1-10.85,6.18l-1.25.57v6.4a107.57,107.57,0,0,0,15.73,3.49l.83.11,1.54.2.93.1,2.1.2,0,0,.8.06c.65,0,1.29.14,1.92.25l.4.08c.49.1,1,.21,1.44.35l.27.07h0c.33.1.66.2,1,.32h0l.07,0a18.54,18.54,0,0,1,5,2.87c.15.12.3.22.44.35s.45.4.67.6l.64.58c.2.2.39.42.59.63s.45.46.66.71.37.44.55.67.44.53.66.82l.51.72c.17.23.34.45.5.69v0l.05.07,0,0,0,0c0,.06.07.12.11.17l.18.29c.3.47.59,1,.87,1.45.06.09.11.19.17.29.31.56.62,1.15.92,1.76l.18.37c.28.58.56,1.18.83,1.81a.77.77,0,0,1,.07.16c.29.67.57,1.38.84,2.1l.15.4c.27.74.54,1.48.79,2.27l.27.79c.16.49.32,1,.49,1.47l.39,1.11c.14.39.27.78.41,1.16s.28.78.43,1.17.25.69.38,1l.48,1.28.08.23,1.4,3.73c0,.07.05.15.08.22.23.62.45,1.24.68,1.85l.24.7c.11.3.22.6.32.9s.11.33.17.49l.3.91c.15.43.28.86.42,1.29s.19.62.29.93.26.87.38,1.3l.26.92.36,1.43c.07.27.14.54.2.82.16.7.31,1.41.45,2.12,0,.08,0,.15,0,.23.14.74.26,1.5.37,2.26l.09.81q.1.79.18,1.62c0,.31,0,.64.07,1s.06.69.08,1.05,0,.44,0,.67,0,.3,0,.45q0,1.18,0,2.4c0,.14,0,.28,0,.42,0,.86-.06,1.73-.13,2.62v0c-.11,1.31-.23,2.62-.37,3.93,0,.15,0,.3,0,.44,0,.29-.07.59-.1.88s-.09.84-.14,1.27-.13,1.07-.2,1.61-.1.88-.16,1.32-.13,1-.2,1.52-.13,1-.19,1.48c0,.33-.1.67-.14,1-.49,3.57-1,7.2-1.49,10.91,0,.12,0,.24,0,.35-.12.9-.23,1.8-.34,2.7,0,.25,0,.5-.08.75l-.27,2.35-.09,1c-.08.73-.15,1.47-.22,2.21l-.09,1c-.06.72-.12,1.44-.17,2.17,0,.36-.06.73-.08,1.09,0,.73-.09,1.46-.13,2.18l-.06,1.1c0,.76-.05,1.51-.08,2.27l0,1c0,.82,0,1.66,0,2.49v.86c0,1.13,0,2.26.07,3.4.33,9.44.41,27.67.8,45v.16l0,1.44v.29l0,1.3c0,.18,0,.36,0,.54l0,1.07c0,.66,0,1.32,0,2,0,.17,0,.33,0,.49,0,.61,0,1.21,0,1.82v.24c0,.71,0,1.43.07,2.13V296h0l9.82-.49-.07-2.11-.13-4.47-.11-4.63-9.82.28,9.81-.41c-.17-7.89-.29-16.12-.39-23.38-.12-8.85-.23-16.5-.42-21.71,0-1-.05-2.07-.06-3.1v-.77c0-.76,0-1.53,0-2.28l0-1c0-.7,0-1.4.08-2.09l.05-1c0-.68.07-1.36.12-2l.07-1c.05-.68.1-1.36.16-2l.09-1c.06-.7.13-1.39.2-2.1l.1-.89c.08-.75.16-1.5.25-2.25l.08-.72c.11-.87.21-1.74.32-2.6l.05-.34c.32-2.5.66-5,1-7.4l.47-3.44.55-4.09.15-1.2s.15-1.3.22-1.85l.25-2.24.05-.49c.14-1.37.27-2.75.38-4.15a.31.31,0,0,0,0-.09c.08-1,.13-2,.16-3.17l0-.5C175.53,184.31,175.52,183.33,175.5,182.34ZM68.15,127l-.33.09h0Zm-3.23,1.07.36-.15.1-.05h0l-.1.05-.36.15Z"/>
      <path class="cls-3" d="M113.91,382.21h0Z"/>
      <path class="cls-3" d="M85.42,125.57c2.25-.51,4.11-1,5.4-1.36h0c1.25-.35,2-.58,2-.58v-6.15h0l.52-3.71c-2.18-.92-4.58-1.13-6.63.56A83,83,0,0,1,85.42,125.57Z"/>
      <polygon class="cls-3" points="103.62 362.97 103.63 362.97 103.63 362.97 103.62 362.97"/>
      <path class="cls-3" d="M76.88,107.55v-.06l0,0A.29.29,0,0,1,76.88,107.55Z"/>
      <polygon class="cls-3" points="162.25 302.45 162.25 302.45 162.25 302.45 162.25 302.45"/>
      <polygon class="cls-3" points="45.58 285.01 45.58 285.01 45.58 285.01 45.58 285.01"/>
      <polygon class="cls-3" points="162 295.99 162 295.99 162 295.99 162 295.99"/>
      <path class="cls-3" d="M28.46,133.86a10.58,10.58,0,0,1-2,4.41,10.39,10.39,0,0,0,5.81-9.89c0-.2,0-.39,0-.58a33.2,33.2,0,0,0-4.85-1.12A10.73,10.73,0,0,1,28.46,133.86Z"/>
      <path class="cls-3" d="M26.48,138.27a9.59,9.59,0,0,1-3.46.87c-.23,0-.46,0-.69,0a9.5,9.5,0,0,1-5.91-2.08,5.38,5.38,0,0,0,2,3.8,8.23,8.23,0,0,0,3.18.81A9.88,9.88,0,0,0,26.48,138.27Z"/>
    </g>
    <g>
      <path class="cls-4" d="M103.4,361.53a29,29,0,0,1,.29,5.22c0,.84.07,1.73.15,2.66.29,3.54-.35,11.54,10.75,11.36,9.68-.16,8.12-7.88,6.32-11.59a8.89,8.89,0,0,0-.77-1.33c-1.87-2.62-2-4-2-4l-2.22-1.93s-12.91-1.75-12.53-.39"/>
      <path class="cls-5" d="M103.69,366.75c0,.84.07,1.73.15,2.66.29,3.54-.35,11.54,10.75,11.36,9.68-.16,8.12-7.88,6.32-11.59-1.2,1.34-3.48,2.67-7.78,2.67a10.46,10.46,0,0,1-9.44-5.1"/>
      <path class="cls-4" d="M103.39,361.53a29.93,29.93,0,0,0-.29,5.22c0,.84-.07,1.73-.15,2.66-.29,3.54.35,11.54-10.75,11.36-9.68-.16-8.12-7.88-6.32-11.59a8.89,8.89,0,0,1,.77-1.33c1.87-2.62,2-4,2-4l2.22-1.93s12.91-1.75,12.53-.39"/>
      <path class="cls-6" d="M118,380.29a12.22,12.22,0,0,1-3.41.48h-.37c-.65,0-1.25,0-1.82-.08.57.05,1.18.08,1.83.08h.35a12.24,12.24,0,0,0,3.42-.48m2.17-12.4c.12.16.23.35.36.56-.13-.21-.24-.4-.36-.56m-2-4.05h0a8.57,8.57,0,0,0,1.61,3.44,8.57,8.57,0,0,1-1.61-3.44h0m-14.73-2.29a8.36,8.36,0,0,1,.2,1.67,8.46,8.46,0,0,0-.2-1.67h0"/>
      <path class="cls-7" d="M103.41,361.55a8.46,8.46,0,0,1,.2,1.67v.06c2.72.93,17,6,9.51,8.56h0c4.3,0,6.58-1.33,7.78-2.67h0c-.13-.26-.26-.51-.38-.73s-.24-.4-.36-.56l0,0-.38-.56a8.57,8.57,0,0,1-1.61-3.44h0l-.64.09a35.87,35.87,0,0,1-4.8.33c-3.15,0-6.91-.47-9-2.41h0l0,0h0v0h0l-.12-.12h0l0,0h0l0,0h0l0,0h0v0h0v0h0"/>
      <path class="cls-5" d="M103.1,366.75c0,.84-.07,1.73-.15,2.66-.29,3.54.35,11.54-10.75,11.36-9.68-.16-8.12-7.88-6.32-11.59,1.2,1.34,3.48,2.67,7.78,2.67a10.46,10.46,0,0,0,9.44-5.1"/>
      <path class="cls-6" d="M88.5,380.2h0m10.66-1a11.93,11.93,0,0,1-6.58,1.57H92.2a12.55,12.55,0,0,1-3.68-.56,12.57,12.57,0,0,0,3.69.56h.36a12,12,0,0,0,6.59-1.57m0,0,0,0,0,0m0,0h0M88.64,363.85h0a3.21,3.21,0,0,1-.16.64h0a3.21,3.21,0,0,0,.16-.64h0m14.75-2.32h0a7.08,7.08,0,0,0-.21,1.61,7.7,7.7,0,0,1,.21-1.61h0"/>
      <path class="cls-7" d="M103.39,361.53c-2,2.22-6,2.74-9.32,2.74a35.88,35.88,0,0,1-5.43-.42h0a3.21,3.21,0,0,1-.16.64c3.06.78,7.85,1.95,10.09,2.26,3.13.43.13,4.92-6.06,4.92a14.2,14.2,0,0,1-2-.15l.21.08a16.12,16.12,0,0,0,2.94.25,10.42,10.42,0,0,0,9.43-5.09h0c0-1.39,0-2.63.09-3.61a7.08,7.08,0,0,1,.21-1.61"/>
      <path class="cls-8" d="M103.09,366.76a10.42,10.42,0,0,1-9.43,5.09,16.12,16.12,0,0,1-2.94-.25,13.5,13.5,0,0,0,4.79.77,22.47,22.47,0,0,0,4.67-.5s-1.69,6.94-8.56,6.94a14.82,14.82,0,0,1-5.73-1.32c-.3-.13-.61-.26-.89-.4a5.38,5.38,0,0,0,3.5,3.11h0a12.55,12.55,0,0,0,3.68.56h.38a11.93,11.93,0,0,0,6.58-1.57h0l0,0,0,0h0c3.79-2.49,3.52-7.24,3.73-9.75.08-.93.12-1.82.14-2.65"/>
      <path class="cls-9" d="M144,262.15V329s0,19.31-25.82,31.08v3.77s-11,1.88-14.75-2.32c-3.77,4.2-14.75,2.32-14.75,2.32v-3.77C62.81,348.31,62.81,329,62.81,329l.88-66.85H144"/>
      <path class="cls-10" d="M118.14,363.85l-.64.09.64-.09m0,0h0m-14.42-2h0m0,0h0m0,0v0m-.13-.12.12.12-.12-.12m0,0,0,0,0,0m0,0,0,0,0,0m0,0,0,0,0,0m0,0v0m0,0v0"/>
      <path class="cls-11" d="M118.14,360.67a35.6,35.6,0,0,1-2.88,3.5c.95-.07,1.73-.16,2.24-.23l.64-.09h0v-3.18m6-43.55c-3.65,23.57-15.32,33.71-20.76,38.7v5.71l0,0v0h0v0h0l0,0h0l0,0h0l0,0h0l.12.12h0v0h0l0,0h0a5,5,0,0,0,.62.5c4-2.28,19.43-11.93,23.85-26.91-2.36,10.9-5.62,18.73-9.44,24.35,14.13-6.61,20.34-15.49,23.07-22-4.11-5.52-11.08-12.56-17.67-20.67m-11-16c.41,18.19-9.81,31.92-9.81,31.92v9.33s10.45-5.07,17.33-29.64c-1.24-1.66-2.45-3.35-3.59-5.08h0c-1.42-2.13-2.74-4.31-3.93-6.54m-9.81,21.71s-15.51-20.32-7.57-44c.59,17.19,7.57,37.33,7.57,37.33v6.72m0-10.11V303a66.9,66.9,0,0,1-3.24-32.78c.58,3.58,3.24,9.29,3.24,9.29v9.11s2.65-5.85,3.23-9.52a70.26,70.26,0,0,1-3.23,33.61m3.6-46.86H71.17c.1,8.38.13,16.42,0,23.31a159.13,159.13,0,0,1-4.37,34.58c-1,4.11-2,7.78-2.91,11.08,2,6.63,7.87,17.55,24.75,25.24-14.26-8.15-17.15-18.57-17.23-18.89A66.65,66.65,0,0,0,97,357.67c-7.65-4.86-14.34-14.28-18.37-32.49,5.08,16.83,24.8,26.76,24.8,26.76V345c-7.1-6.34-24.8-21.24-21.47-62.62,5.43,41.93,21.47,49.52,21.47,49.52v-5.78a173.55,173.55,0,0,0,7-31.05,40,40,0,0,1-3-14c-.09-4.76-.23-9.92-.42-15.26"/>
      <polyline class="cls-12" points="144.49 168.85 144.49 265.87 66.68 265.87 64.82 254.95 54.23 192.81 82.8 156.4 144.49 168.85"/>
      <polyline class="cls-13" points="144.49 252.91 144.49 265.87 66.68 265.87 64.82 254.95 68.25 252.91 144.49 252.91"/>
      <path class="cls-14" d="M80.49,217.23c.11,2.52.2,4.93.29,7.19a136.68,136.68,0,0,0,14.68,10.42c5.42,3.19,11.41,10.76,5.81,18.07h5.2c-.41-9.38-.9-18.79-1.37-27.16-.6,0-1.21.06-1.82.06h0a34.71,34.71,0,0,1-20.07-6.46c-1-.71-1.91-1.42-2.72-2.12m-7.3-.82a15.85,15.85,0,0,1-1.23,1,11.07,11.07,0,0,1-1.62,1c0,1.3,0,2.64,0,4l3-1.1a4.46,4.46,0,0,1,1.28-.28c-.5-1.48-1-3-1.51-4.68"/>
      <path class="cls-15" d="M106.47,252.91h-5.2c-3.72,4.86-12.56,9.6-30.1,12.87v.09H107c0-1.48-.11-3-.17-4.47-.11-2.8-.22-5.65-.35-8.49"/>
      <path class="cls-16" d="M103.39,353.66v7.87c-3.77,4.2-14.75,2.32-14.75,2.32v-3.77S100.14,357.87,103.39,353.66Z"/>
      <path class="cls-17" d="M75.14,211.47a35.43,35.43,0,0,0,28.39,14.34H103a35.41,35.41,0,0,0,28.39-14.34l-29.74-20.88L75.48,211l-.34.45"/>
      <polygon class="cls-18" points="103.02 225.81 103.28 225.8 103.53 225.81 103.02 225.81"/>
      <path class="cls-18" d="M101.66,190.59,75.48,211l-.34.46a34.8,34.8,0,0,0,56.27,0l-29.75-20.89M80.88,211c1.61,2.34,11.41,15.65,21.37,7.24C97.84,228,90.34,225.56,80.88,211m.92-.66s10.53,9.16,20.88,1.88c0,0-5.11,16.46-20.88-1.88"/>
      <path class="cls-12" d="M159.68,150.51l-39.05,7.67c-8.93,0-17.86,0-26.78-.09-4.47-.07-8.93-.16-13.4-.22-4.1-.06-8.2-7.65-12.3-7.81-6.38-.24-13-.85-19.31-.09l-1.72-1.35.27-.8q1.24-3.54,2.67-6.6c4.68-9.61,11.29-14.35,19.13-14.89l1.11-.08c1.94-.17,3.85-.39,5.67-.65a116.54,116.54,0,0,0,16-3.41V104h22.17v18.2a116.74,116.74,0,0,0,16.56,3.49c1.83.25,3.74.46,5.69.61l.53,0c9.35.65,16.94,7.27,21.61,21,.37,1.09.76,2.16,1.15,3.21"/>
      <path class="cls-19" d="M130.7,125.68h0c1.5.21,3.05.39,4.63.52-1.58-.14-3.13-.31-4.63-.52h0"/>
      <path class="cls-14" d="M130.7,125.68c-6.6,3.83-16.38,6.26-27.3,6.26-1.57,0-3.12-.05-4.64-.15a32.57,32.57,0,0,1,5.81,11.05c1.2,4.37-1.31,5.91-5.41,5.91a24.32,24.32,0,0,1-3.81-.34c3.15,3.48,5.47,5.58,7.54,6.23a2.54,2.54,0,0,0,.37.1h.27l.21-.05c3.51-1,7.74-6.2,15.46-15.31a51.44,51.44,0,0,1,14.17-11.58,29.8,29.8,0,0,1,3-1.47l0,0-1-.09c-1.58-.13-3.13-.31-4.63-.52h0"/>
      <path class="cls-20" d="M130.7,125.68c-6.6,3.83-16.38,6.26-27.3,6.26S82.57,129.48,76,125.6a116.54,116.54,0,0,0,16-3.41V104h22.17v18.2a116.74,116.74,0,0,0,16.56,3.49"/>
      <path class="cls-21" d="M114.14,114.7h0v7.48a116.74,116.74,0,0,0,16.56,3.49h0a118.43,118.43,0,0,1-16.56-3.49V114.7"/>
      <path class="cls-21" d="M92,116v6.15h0s-.75.23-2.07.58h0c1.32-.35,2.07-.58,2.07-.58v-6.14h0"/>
      <path class="cls-22" d="M114.14,114.71a34.62,34.62,0,0,1-12.57,4.64,37.13,37.13,0,0,1-9.6-3.3v6.14h0s-.75.23-2.07.58a58.89,58.89,0,0,1,8.85,9q2.28.15,4.65.15c10.91,0,20.69-2.43,27.3-6.26a116.74,116.74,0,0,1-16.56-3.49v-7.48"/>
      <path class="cls-23" d="M168.57,186.65c-1.28,15.73-5.6,32.46-4.9,51.36s.35,73.06,3.62,84.27c0,0-1.61,4.49-8.44,8.49s-8.07,11.38-13.5,13.58c-2.27-11.1-37.41-35.36-37.94-63.22s-3-69.24-4-81.2c0,0-31.95-9.22-32.89,2.73s1.15,58.66.62,86.52-7.45,44.07-9.73,55.17c-5.43-2.2-6.66-9.58-13.49-13.58s-8.44-8.49-8.44-8.49c3.27-11.21,2.92-65.38,3.62-84.27s-3.62-35.63-4.91-51.36,4.23-24.33,8.9-38l.27-.8q1.24-3.54,2.67-6.6c4.39-9.46,10.14-15.37,17.68-15.89a6.44,6.44,0,0,1,1.23.43,6.2,6.2,0,0,0,1.22.43l.11.06.17.08A49.77,49.77,0,0,1,87.6,139.39c7.87,9.28,12.12,14.53,15.66,15.35h.27c3.55-.82,7.79-6.07,15.67-15.35a49.68,49.68,0,0,1,17.13-13.06l.06,0,0,0,.84.06c9.35.65,16.94,7.27,21.62,21s11,23.63,9.69,39.35"/>
      <path class="cls-24" d="M53.27,135.35a39.69,39.69,0,0,0-2,3.43,66.82,66.82,0,0,0,5.92,9.54,56.31,56.31,0,0,1-3.92-13"/>
      <path class="cls-19" d="M55.21,132.64c-.16.21-.33.42-.49.64.16-.22.33-.43.49-.64"/>
      <path class="cls-24" d="M56.42,131.23c-.41.45-.81.92-1.21,1.41-.16.21-.33.42-.49.64l-.23.3a72.85,72.85,0,0,0,12.26,18.76c0-.13,0-.25,0-.37-3-4-8.56-12.37-10.38-20.74"/>
      <path class="cls-19" d="M59.09,128.75c-.35.27-.69.56-1,.86.33-.3.67-.59,1-.86"/>
      <path class="cls-24" d="M59.36,128.55l-.27.2c-.35.27-.69.56-1,.86s-.72.66-1.07,1a42.47,42.47,0,0,0,11.28,13.21c.07-.27.13-.55.2-.82a74.1,74.1,0,0,1-9.12-14.46"/>
      <path class="cls-19" d="M151,339h0m5.56-6.66A32.68,32.68,0,0,0,151,339a32.68,32.68,0,0,1,5.55-6.64h0"/>
      <path class="cls-23" d="M135.94,266.94s-7,41.53,13.61,74c.5-.61,1-1.26,1.45-1.93h0v0a32.68,32.68,0,0,1,5.55-6.64c-14.72-16.73-20.63-65.44-20.63-65.44"/>
      <path class="cls-19" d="M159,330.68l-.15.09q-.61.36-1.17.75.56-.39,1.17-.75l.15-.09m0,0h0m5.64-4.49a21.7,21.7,0,0,1-1.8,1.74,21.7,21.7,0,0,0,1.8-1.74h0"/>
      <path class="cls-23" d="M151.67,205.65c-11,71-6.34,101.8,6,125.89l0,0q.56-.39,1.17-.75l.15-.09,0,0h0a26.77,26.77,0,0,0,3.84-2.75,21.7,21.7,0,0,0,1.8-1.74c-24.75-36.68-12.39-112.73-13-120.51"/>
      <path class="cls-19" d="M69.11,125.82a5.14,5.14,0,0,0,1.07.37h0l.09,0-.09,0h0a5.85,5.85,0,0,1-1.07-.37m-1.36-.49h0a15.07,15.07,0,0,0-6.47,2h0a15.11,15.11,0,0,1,6.47-2h0a5.85,5.85,0,0,1,1.07.37,5.85,5.85,0,0,0-1.07-.37"/>
      <path class="cls-25" d="M133.37,127.8a51.44,51.44,0,0,0-14.17,11.58c-7.72,9.11-12,14.33-15.46,15.31,3.51-1,7.74-6.2,15.46-15.3a51.51,51.51,0,0,1,14.17-11.59"/>
      <path class="cls-14" d="M82.08,133.84h0a49.09,49.09,0,0,1,5.52,5.55c3.08,3.63,5.61,6.65,7.75,9h0c-2.14-2.37-4.67-5.39-7.75-9a49.8,49.8,0,0,0-5.52-5.54"/>
      <path class="cls-25" d="M95.35,148.41c3.15,3.48,5.47,5.58,7.54,6.23-2.07-.65-4.39-2.75-7.54-6.23h0"/>
      <path class="cls-19" d="M50.43,140.44c-.13.25-.25.52-.37.78-.28.6-.56,1.21-.83,1.84h0c.27-.63.55-1.24.83-1.84l0-.05c.12-.25.23-.49.35-.73m103.07-4.21a44.77,44.77,0,0,1,5.38,11.07c1.92,5.63,4.12,10.62,6,15.65-1.83-5-4-10-6-15.65a44.77,44.77,0,0,0-5.38-11.07m-.05-.06,0,0,0,0m-.06-.09,0,0,0,0"/>
      <path class="cls-21" d="M50.08,141.17l0,.05c-.28.6-.56,1.21-.83,1.84h0c.26-.63.54-1.24.82-1.84l0-.05"/>
      <path class="cls-19" d="M168.68,180.09a48.45,48.45,0,0,1-.11,6.56c-.12,1.46-.26,2.93-.43,4.41.17-1.48.31-2.95.43-4.41a48.45,48.45,0,0,0,.11-6.56m-130.39-3a52.38,52.38,0,0,0-.07,9.58c.44,5.35,1.23,10.81,2.05,16.44-.82-5.63-1.61-11.09-2.05-16.44a52.38,52.38,0,0,1,.07-9.58"/>
      <path class="cls-14" d="M70.39,222.47h0c.13,8.93.38,19.63.57,30.44h0c-.19-10.81-.44-21.51-.57-30.44"/>
      <path class="cls-15" d="M71,252.91h0c0,1.23.05,2.47.07,3.71,0-1.24,0-2.48-.07-3.71"/>
      <path class="cls-25" d="M105.1,225.75h0c.47,8.37,1,17.78,1.37,27.16h0c-.41-9.38-.9-18.79-1.37-27.16m-34.76-7.31h0c0,1.3,0,2.64,0,4h0c0-1.39,0-2.73,0-4"/>
      <path class="cls-26" d="M106.47,252.91h0c.13,2.84.24,5.69.35,8.49-.11-2.8-.22-5.65-.35-8.49"/>
      <polyline class="cls-27" points="105.1 225.75 105.1 225.75 105.1 225.75 105.1 225.75 105.1 225.75"/>
      <path class="cls-28" d="M104.83,221.09c.09,1.51.18,3.06.27,4.66h0c-.09-1.6-.18-3.15-.27-4.66"/>
      <path class="cls-19" d="M164.63,287.63c.34,12.38.88,23.79,1.84,30.5-1-6.71-1.49-18.12-1.84-30.5M42.39,278.29c-.39,19-1.1,37.88-2.88,44a8,8,0,0,0,.75,1.46h0a8.57,8.57,0,0,1-.76-1.46c1.78-6.11,2.49-25,2.88-44m.82-43.91c0,1.2,0,2.41-.08,3.63-.08,2.29-.15,5.11-.22,8.31.07-3.2.14-6,.22-8.31,0-1.22.07-2.43.08-3.63"/>
      <path class="cls-11" d="M110.92,296.36c.68,1.61,1.45,3.2,2.28,4.77h0c-.83-1.57-1.6-3.16-2.28-4.77m0-.07,0,.07,0-.07"/>
      <path class="cls-29" d="M113.2,301.13h0c1.19,2.23,2.51,4.41,3.93,6.54h0c-1.42-2.12-2.74-4.3-3.93-6.53"/>
      <path class="cls-19" d="M63.89,334.83c-.49,1.78-1,3.44-1.37,5,.41-1.58.88-3.24,1.37-5h0"/>
      <path class="cls-29" d="M66.8,323.76c-1,4.11-2,7.78-2.91,11.07h0c.91-3.3,1.93-7,2.91-11.08"/>
      <path class="cls-19" d="M49.3,331.65h0c.33.24.64.48,1,.74h0c-.3-.25-.62-.5-.94-.73m117-7.48c-.16.24-.34.49-.55.76h0c.21-.28.39-.53.55-.77"/>
      <path class="cls-30" d="M81,191l-2.48.58.33,2.83a15.66,15.66,0,0,1,3.29-.77l-.15-.19-2.1.57h0A5.75,5.75,0,0,1,81,191M101,169.61c-.29.39-8.75,11.62-23.57,14,.05.29.1.6.15.91.21,1.3.4,2.6.58,3.9C97.3,180.29,100.82,170,101,169.61m13-4.39c-.26.56-8.75,18-35.81,23.36.13.95.25,1.9.37,2.85,1-.31,1.95-.61,2.89-.93,1.36-1.57,3.93-3.15,8.8-3.45,20.55-9.37,23.64-21.38,23.75-21.83m-72.74-.71a55.53,55.53,0,0,0-2.92,12.56,52.38,52.38,0,0,0-.07,9.58c.44,5.35,1.23,10.81,2.05,16.44,1.44,9.85,3,20.2,2.94,31.29,0,1.2,0,2.41-.08,3.63-.08,2.29-.15,5.11-.22,8.31-.17,8.76-.29,20.38-.52,32-.39,19-1.1,37.88-2.88,44a8.57,8.57,0,0,0,.76,1.46c3.48-12.81,8.27-40.25,8.85-95.14a340.23,340.23,0,0,1,.18,103c.32.23.64.48.94.73a371.59,371.59,0,0,0,6.95-59.23,329,329,0,0,1,1.69,69.57,8.66,8.66,0,0,0,2.56,1.63c.29-1.41.66-2.91,1.08-4.5s.88-3.24,1.37-5h0c.91-3.29,1.93-7,2.91-11.07a159.75,159.75,0,0,0,4.37-34.58c.18-9.39.06-20.94-.14-32.56,0-1.24,0-2.48-.07-3.71-.19-10.81-.44-21.51-.57-30.44,0-1.39,0-2.73,0-4-.21.11-.43.22-.66.32a13,13,0,0,1-4.23,1l-2,.89c-3.3,1.43-6,2.44-8,2.62l-.62,0a4.44,4.44,0,0,1-1.13-.13c-2.41-.6-.32-1.72.88-2.73a6,6,0,0,1-1.86.42c-1.63,0-1-1.74,1.74-4.63,2.09-2.19,4.83-4.49,7.21-6.55-.53-.12-1.06-.26-1.58-.41-.37-.11-.73-.23-1.09-.36h0c-6.16-2.23-11.13-7.12-13-11.7l0-.06v0l0,0v0l0,0v0l0-.05v0l0,0h0l0-.06h0a35.9,35.9,0,0,1-1.41-5c-.43-2-.81-4.28-1.15-6.78s-.65-5.17-.94-8.07c-.18-1.82-.36-3.72-.53-5.68-.11-1.17-.21-2.36-.31-3.58s-.19-2.16-.29-3.17m86.39-2.83c-6.74,16.07-11.64,20.42-33.15,26a5.92,5.92,0,0,1,1.69,1.38c26.62-7.63,26.27-13.77,31.46-27.43m-71.12-9.06c.06.31.11.64.16,1a5.73,5.73,0,0,1,.06.81A4.44,4.44,0,0,1,55,158c.86,2.45,1.7,4.9,2.55,7.35l.73,2.1h0c1.39,4,2.76,8.05,4.06,11.81h0c2.09,6.06,4,11.48,5.38,15.36.08.21.15.41.22.61s0,.13.08.2c.21.58.42,1.12.6,1.61l0,.09,0,.07v0a24.22,24.22,0,0,1,1.14,4c.19-.22.4-.43.6-.64-.9-8.44-1.75-10.14-3.62-28.39-.27-2.56-.44-4.92-.52-7.14a62.39,62.39,0,0,1-9.81-12.46m.71-7.55a80.39,80.39,0,0,0,9,15.42c0-1.41.07-2.77.15-4.08a100,100,0,0,1-9.18-11.34m-6.6-4.95c-.06.11-.11.21-.16.32s-.23.48-.35.73l0,.05c-.28.6-.56,1.21-.82,1.85.4.85.77,1.72,1.13,2.57h.13a4.89,4.89,0,0,1,2.76.94c-.95-2-1.85-4.17-2.67-6.46m91.94-12.71h0c-3.32,2-8.17,5.76-13.8,12.92-10.59,13.49-21.42,27.6-25.64,30.5,13.53-6.86,27.51-28.55,28.3-29.8-.63,1.15-10.87,19.55-16.62,25.46,9.62-3.28,19.93-17.66,25.53-26.49a88.42,88.42,0,0,0-8,20.66c-3.62,15.17,0,27.2-35.79,28.86A10.06,10.06,0,0,1,98,193.23c3.27,0,5-.12,5-.12h0s.2,3.52.45,7.55c0,.59.07,1.19.1,1.79.32,4.38.75,10.92,1.2,18.64.09,1.51.18,3.06.27,4.66h0c.47,8.37,1,17.78,1.37,27.16.13,2.84.24,5.69.35,8.49.27,6.93.48,13.65.59,19.73a41.09,41.09,0,0,0,3.47,15.16l0,.07h0c.68,1.61,1.45,3.2,2.28,4.77,1.19,2.23,2.51,4.41,3.93,6.53-1.85-25.05-5.51-79.79-4.15-106.24.81,44.34,7.24,68.1,7.24,68.1s-2.53-42.15,5.45-78c1.61,42.71,3.21,71.28,3.21,71.28s2.28-73.47,13.5-106.38c-8.69,42.51-3.69,92,0,111.84-4.83-43.66,11.85-82.25,9.29-119.92,0,0,12.49,12.39,8,58.29-4.31,44.16-5.07,80.39,6,118.33.21-.28.39-.53.55-.77a10,10,0,0,0,1-1.89,30.9,30.9,0,0,1-.82-4.15c-1-6.71-1.5-18.12-1.84-30.5-.51-18.58-.58-39.33-1-49.62-.64-17.14,2.86-32.5,4.47-46.95.17-1.48.31-2.95.43-4.41a48.45,48.45,0,0,0,.11-6.56A57.54,57.54,0,0,0,164.83,163c-1.83-5-4-10-6-15.65a44.77,44.77,0,0,0-5.38-11.07l0,0,0,0,0-.07,0,0a22.38,22.38,0,0,0-10.86-8.67m-6.11-1.14,0,0-.06,0a29.8,29.8,0,0,0-3,1.47,51.51,51.51,0,0,0-14.17,11.59c-7.72,9.1-12,14.32-15.46,15.3l-.21.06h-.27l-.37-.11c-2.07-.65-4.39-2.75-7.54-6.23-2.14-2.37-4.67-5.39-7.75-9a49.09,49.09,0,0,0-5.52-5.55c-.93,3.73-1.93,7.33-2.83,10.66,5.9,5.14,12.14,10,17.6,12.94-.69-.24-7.39-2.71-18.45-9.76-.13.5-.26,1-.38,1.47,12.72,12.23,16.37,14.31,17.07,14.64a114.77,114.77,0,0,1-18.3-9.3c-.3,1.41-.55,2.69-.76,3.88,7.76,11,11,13.59,11.23,13.77-.26-.1-5.14-2.06-12-7.47a44.88,44.88,0,0,0,.25,6.44c2.14,2,3.59,3.18,3.76,3.32a29.93,29.93,0,0,1-3.6-1.94c.32,2.68.82,5.81,1.48,9.86,4.82-2.48,13.24-8.74,25-24.52C96.32,169.83,91,176,90.7,176.32a229.5,229.5,0,0,0,30.8-31.6c8.65-10.71,15.55-15.5,20-17.64a20.67,20.67,0,0,0-4.25-.75l-.84-.06m-68.67-.94h0a15.11,15.11,0,0,0-6.47,2c2.37,2.45,5.46,5.59,9,9,.75-2.75,1.56-5.66,2.39-8.87-1.35-.71-2.16-1-2.16-1l-.17-.08h0l-.09,0h0a5.14,5.14,0,0,1-1.07-.37l-.15-.06-.14-.06a5.85,5.85,0,0,0-1.07-.37"/>
      <path class="cls-16" d="M103.39,353.66v7.87c3.76,4.2,14.75,2.32,14.75,2.32v-3.77S106.63,357.87,103.39,353.66Z"/>
      <path class="cls-31" d="M103.39,265.87c.14,3.66.2,7.32.3,11l.17,11c.1,7.31.09,14.63.14,21.95s0,14.63-.14,21.94l-.17,11c-.1,3.66-.16,7.31-.3,11-.14-3.66-.2-7.31-.3-11l-.18-11c-.09-7.31-.09-14.63-.14-21.94s0-14.64.15-21.95l.17-11C103.19,273.19,103.25,269.53,103.39,265.87Z"/>
      <path class="cls-32" d="M63.33,210c-8.11-1-15.09-7.14-17.33-12.76-2-5.1-3.16-14.31-4.19-25.94-.11-1.17-.21-2.36-.31-3.58-.7-8.29-1.62-14.1-2.21-17.3a5,5,0,0,0-3.36-3.84c-1.35-.44-3-.93-4.22-1.27-2.7-.72-9.45-1.14-10.59-1.81a15.38,15.38,0,0,1-2.95-3.13s-3.27-.1-4.51-.89-2.13-2.5-2.21-5.1.84-4.41,2.69-4a3.88,3.88,0,0,1,4.13-3c.81-2.13,1.4-2.37,4-2.21s9.84,1.88,10,3.33a3.59,3.59,0,0,1-.79,2.67,5.72,5.72,0,0,1,2.73.16c2.87.8,5.5,2.66,7.94,4.31a23.43,23.43,0,0,1,5,4,24,24,0,0,1,3.36,6.25c1.4,3.27,2.59,6.62,3.77,10,1.11,3.14,2.2,6.3,3.29,9.45.24.7.49,1.4.72,2.11,4.16,12,8.16,23.82,10.35,29.58,2.33,6.1,2.81,14-5.29,12.92"/>
      <path class="cls-19" d="M32.45,131.05a4.82,4.82,0,0,0-1,.1h0a4.74,4.74,0,0,1,1-.1,6.69,6.69,0,0,1,1.76.26c2.87.8,5.5,2.66,7.94,4.31a23.43,23.43,0,0,1,5,4,14.63,14.63,0,0,1,2.1,3.4h0a15.09,15.09,0,0,0-2.09-3.39,23.74,23.74,0,0,0-5-4c-2.44-1.65-5.07-3.51-7.94-4.31a6.69,6.69,0,0,0-1.76-.26m-18.4-.74h0M18,127.37h0m.27,0h0m3.12-2.25.85,0c2.57.16,9.84,1.88,10,3.33a3.64,3.64,0,0,1-.59,2.4,3.64,3.64,0,0,0,.59-2.4c-.19-1.45-7.46-3.17-10-3.33-.32,0-.6,0-.86,0"/>
      <polyline class="cls-33" points="49.23 143.06 49.23 143.07 49.23 143.07 49.23 143.06 49.23 143.06"/>
      <path class="cls-34" d="M49.24,143.07h0c.41.85.78,1.72,1.14,2.57h0c-.36-.85-.73-1.72-1.13-2.57"/>
      <path class="cls-19" d="M38.4,148.32h0c.07.1.14.19.2.29h0c-.06-.1-.13-.19-.2-.29"/>
      <path class="cls-34" d="M68.69,197.22a24.22,24.22,0,0,1,1.14,4h0a24.22,24.22,0,0,0-1.14-4m0-.09,0,.07,0-.07M55,158h0c.86,2.45,1.7,4.9,2.55,7.35.24.7.49,1.4.72,2.11h0l-.73-2.1c-.85-2.45-1.69-4.9-2.55-7.35"/>
      <path class="cls-35" d="M31.48,131.15c-.73,0-1.46.1-2.17.2a14.2,14.2,0,0,0-2.1.43l.13-.09c-.2.31,0,.91.19,1.39a9.45,9.45,0,0,0,.85,1.43,10.26,10.26,0,0,0,1.09,1.27,3.5,3.5,0,0,0,1.26.87l-.37.1a8.21,8.21,0,0,1,2.77-1.67,7,7,0,0,1,3.2-.39,8.25,8.25,0,0,1,5.31,3.18,9.08,9.08,0,0,0-5.37-2.54,6.69,6.69,0,0,0-2.87.46,8.43,8.43,0,0,0-2.5,1.51l-.18.16-.19-.06a4,4,0,0,1-1.59-1.08,10.11,10.11,0,0,1-1.14-1.4,7.91,7.91,0,0,1-.85-1.6,3.93,3.93,0,0,1-.24-.91,1.39,1.39,0,0,1,.22-1l.06-.07.08,0a9.84,9.84,0,0,1,2.21-.24A17.91,17.91,0,0,1,31.48,131.15Z"/>
      <path class="cls-35" d="M14.14,130.32c.13.93.26,1.85.42,2.73a8.57,8.57,0,0,0,.33,1.28,6.76,6.76,0,0,0,.6,1.16c.91,1.58,1.89,3.15,2.68,4.84a23.94,23.94,0,0,1-3.37-4.44,6.8,6.8,0,0,1-.62-1.33,6.46,6.46,0,0,1-.23-1.43A11,11,0,0,1,14.14,130.32Z"/>
      <path class="cls-35" d="M18.27,127.36c.17,1,.34,2,.53,3.06a14.91,14.91,0,0,0,.8,2.9A19.91,19.91,0,0,0,21.09,136l1.72,2.59a15.6,15.6,0,0,1-2.22-2.23,11.86,11.86,0,0,1-1.72-2.69,10.46,10.46,0,0,1-.68-3.13A14.33,14.33,0,0,1,18.27,127.36Z"/>
      <path class="cls-12" d="M63.33,210c-8.11-1-15.09-7.14-17.33-12.76A55.14,55.14,0,0,1,43.28,185c-.56-4-1-8.65-1.47-13.75,3.82,1.72,10.55,3.13,16.46-3.8,1.4,4,2.77,8,4.07,11.8,2.57,7.46,4.82,14,6.28,17.78,2.33,6.1,2.81,14-5.29,12.92"/>
      <path class="cls-13" d="M62.34,179.26C57,185.19,48.73,185.57,43.28,185c-.56-4-1-8.65-1.47-13.75,3.82,1.72,10.55,3.13,16.46-3.8,1.4,4,2.77,8,4.07,11.8"/>
      <path class="cls-14" d="M43.91,189.06c.09.52.18,1,.27,1.49-.09-.48-.18-1-.27-1.49"/>
      <path class="cls-36" d="M62.34,179.26h0c2.2,6.39,4.17,12.06,5.6,16-.07-.2-.14-.4-.22-.61-1.41-3.88-3.29-9.3-5.38-15.36h0"/>
      <path class="cls-36" d="M68,195.43c.21.58.41,1.12.6,1.61a24.27,24.27,0,0,1,1.2,4.21h0a24.22,24.22,0,0,0-1.14-4v0l0-.07,0-.09c-.18-.49-.39-1-.6-1.61"/>
      <path class="cls-36" d="M59,208.9h0c.36.13.72.25,1.09.36-.37-.11-.73-.23-1.09-.36"/>
      <path class="cls-14" d="M62.34,179.26l-.51.54h0l0,0h0l0,.05h0l0,0h0l0,0h0l0,0,0,0,0,0,0,0h0l0,0h0a17.38,17.38,0,0,1-6.23,3.72c.6,1.58,1.2,3.21,1.79,4.87,3.79,10.61,4.29,17,2,20.14.36.13.72.25,1.09.36.52.15,1.05.29,1.58.41a47.21,47.21,0,0,0,4.06-3.8c1.09-1.21,2.55-2.92,4.13-4.62a24.27,24.27,0,0,0-1.2-4.21c-.19-.49-.39-1-.6-1.61h0l-.06-.16,0,0h0c-1.43-3.91-3.4-9.58-5.6-16"/>
      <path class="cls-15" d="M61.49,180.13l0,0,0,0m0,0,0,0,0,0m0-.05,0,0,0,0m.05,0h0m0-.05h0m0,0h0m.05-.05h0m0,0h0m-11.32-7.39h0c1.54,3.52,3.13,7.37,4.7,11.48h0a17.38,17.38,0,0,0,6.23-3.72,17.38,17.38,0,0,1-6.23,3.72c-1.57-4.11-3.16-8-4.7-11.48"/>
      <path class="cls-37" d="M58.28,167.45h0c1.4,4,2.77,8,4.07,11.8h0c-1.3-3.76-2.67-7.77-4.06-11.81h0"/>
      <path class="cls-38" d="M57.92,167.86a13.83,13.83,0,0,1-7.41,4.55h0a13.79,13.79,0,0,0,7.41-4.55m0,0h0"/>
      <path class="cls-25" d="M61.45,180.17h0m0,0h0m.06-.05,0,0,0,0m0-.06,0,0,0,0m0,0,0,0,0,0m.06-.05,0,0,0,0m.05-.06,0,.05,0-.05m.06,0,0,0,0,0m.51-.54-.51.54.51-.54h0"/>
      <path class="cls-26" d="M58.27,167.46l-.31.36h0l0,0a13.79,13.79,0,0,1-7.41,4.55c1.54,3.52,3.13,7.37,4.7,11.48a17.38,17.38,0,0,0,6.23-3.72h0l0,0h0l0,0,0,0,0,0,0,0h0l0,0h0l0,0h0l0-.05h0l0,0h0l.51-.54h0c-1.3-3.76-2.67-7.77-4.07-11.8"/>
      <path class="cls-39" d="M103.08,193.11s.69,12.19,1.09,17.24c-11.4-.72-21.59-1.11-22.79-.83s-5.5,4.41-7.78,6.52a12.22,12.22,0,0,1-8.15,3.71c-5.37,2.41-9.39,4-11.79,3.41s-.32-1.72.88-2.73c-3.65,1.29-3.65-.52-.12-4.21s8.91-7.7,11.27-10.35,6.52-7.64,9.83-9.75,5.48-2.83,14-2.83,13.54-.18,13.54-.18"/>
      <path class="cls-34" d="M103.08,193.11h0s.2,3.52.45,7.55c-.25-4-.45-7.55-.45-7.55"/>
      <path class="cls-28" d="M96.54,209.91h0c2.41.13,5,.28,7.63.45h0l-7.63-.44"/>
      <path class="cls-25" d="M72,217.41a12,12,0,0,1-1.62,1h0a11.07,11.07,0,0,0,1.62-1"/>
      <polyline class="cls-40" points="70.34 218.44 70.34 218.44 70.34 218.44 70.34 218.44 70.34 218.44"/>
      <path class="cls-34" d="M63.44,220.64c-3.3,1.43-6,2.44-8,2.62,2-.18,4.73-1.19,8-2.62m6.9-2.2c-.21.11-.43.22-.66.32.23-.1.45-.21.66-.32h0"/>
      <path class="cls-41" d="M54.54,220.43c1.7-1.23,3.44-2.33,5.15-3.48s3.4-2.28,5.06-3.56a17.25,17.25,0,0,1-4.63,4.22A25.21,25.21,0,0,1,54.54,220.43Z"/>
      <path class="cls-42" d="M103.08,193.11c2.81-.63,5.59-1.33,8.37-2.05s5.56-1.46,8.33-2.23l1-.29c.34-.11.67-.24,1-.36l1-.36.92-.52a8.87,8.87,0,0,0,1.73-1.19,12.33,12.33,0,0,0,1.53-1.45,23.15,23.15,0,0,0,4.23-7.34c1-2.65,1.8-5.41,2.71-8.16.22-.69.49-1.36.77-2l.51-1c.15-.31.33-.6.46-.92a23.44,23.44,0,0,0,1.14-4.1,39.74,39.74,0,0,1,2.36-8.31,17.58,17.58,0,0,1,5.33-6.71,17.49,17.49,0,0,0-5.06,6.83,39.56,39.56,0,0,0-2.16,8.28,21.83,21.83,0,0,1-1.12,4.21c-.14.34-.33.67-.49,1l-.48.93c-.26.66-.52,1.32-.73,2-.88,2.72-1.62,5.51-2.67,8.21A23.76,23.76,0,0,1,127.4,185a14.05,14.05,0,0,1-1.6,1.49,9.7,9.7,0,0,1-1.82,1.23l-1,.53-1,.37c-.35.12-.69.25-1,.36l-1,.27C114.33,190.73,108.73,192.05,103.08,193.11Z"/>
      <path class="cls-43" d="M62.34,179.26c.78,1.76,1.5,3.54,2.2,5.33s1.35,3.59,2,5.39,1.28,3.62,1.89,5.45,1.2,3.64,1.65,5.52L68,195.58l-2-5.39c-.63-1.81-1.28-3.62-1.89-5.44S62.88,181.11,62.34,179.26Z"/>
      <path class="cls-44" d="M74.18,86.12S77.26,108.93,73,126s-8.31,25.31-6.16,46.21,2.94,20.09,4,32.55,7.23,22.1,6.43,28.13-1.61,17.08-.54,19.49,3,2,3,2A151.85,151.85,0,0,0,81,229.89c-.53-11.46-.8-28.74-3.48-45.41s-3.22-18.89-.27-32.15,11.26-35.16,7.24-50.84S74.18,86.12,74.18,86.12"/>
      <path class="cls-45" d="M81.36,110.42c.87,2.76.52,5.23-.77,5.51s-3-1.71-3.91-4.47-.52-5.22.77-5.51,3,1.72,3.91,4.47"/>
      <path class="cls-45" d="M83.12,118.16c-1.12,1.06-2.44,1.62-2.94,1.25s0-1.54,1.13-2.6,2.45-1.62,3-1.25S84.25,117.1,83.12,118.16Z"/>
      <path class="cls-45" d="M79.23,135c-1.13,1.06-2.44,1.62-2.94,1.25s0-1.54,1.13-2.6,2.45-1.63,3-1.25S80.36,133.88,79.23,135Z"/>
      <path class="cls-45" d="M76,144.71c-1.77,1.68-3.86,2.56-4.64,2s0-2.43,1.79-4.11,3.86-2.56,4.65-2S77.81,143,76,144.71Z"/>
      <path class="cls-45" d="M72.8,170.39c-1.77,1.68-3.85,2.56-4.64,2s0-2.42,1.79-4.1,3.86-2.57,4.65-2S74.58,168.71,72.8,170.39Z"/>
      <path class="cls-45" d="M75.57,194.18c-1.06,1-2.3,1.53-2.77,1.18s0-1.45,1.07-2.45,2.3-1.52,2.77-1.17S76.63,193.18,75.57,194.18Z"/>
      <path class="cls-45" d="M78.92,219.08c-1.06,1-2.3,1.53-2.77,1.18s0-1.45,1.07-2.45,2.29-1.52,2.76-1.17S80,218.08,78.92,219.08Z"/>
      <path class="cls-45" d="M78.69,213.85c-1.06,1-2.3,1.53-2.77,1.18s0-1.45,1.07-2.45,2.29-1.52,2.76-1.17S79.74,212.85,78.69,213.85Z"/>
      <path class="cls-45" d="M75.5,208.8c.74,1.18.89,2.34.34,2.59s-1.61-.52-2.35-1.7-.9-2.34-.35-2.59S74.75,207.61,75.5,208.8Z"/>
      <path class="cls-45" d="M79.83,123.3c.71,2.28.43,4.32-.64,4.55s-2.52-1.41-3.23-3.69-.43-4.31.64-4.55S79.11,121,79.83,123.3Z"/>
      <path class="cls-45" d="M72.39,153.68c.71,2.28.43,4.31-.64,4.55s-2.52-1.41-3.23-3.69-.43-4.31.64-4.55S71.67,151.41,72.39,153.68Z"/>
      <path class="cls-45" d="M72.24,177.29c.72,2.27.43,4.31-.64,4.55s-2.51-1.42-3.23-3.69-.43-4.32.64-4.55S71.53,175,72.24,177.29Z"/>
      <path class="cls-45" d="M73.52,186.8c.61,1.95.37,3.69-.55,3.89s-2.15-1.21-2.76-3.16-.37-3.69.54-3.9S72.91,184.85,73.52,186.8Z"/>
      <path class="cls-45" d="M77.12,129.39c.51,1.63.3,3.09-.46,3.25s-1.8-1-2.31-2.64-.31-3.09.45-3.26S76.6,127.76,77.12,129.39Z"/>
      <polygon class="cls-46" points="73.73 256.03 71.82 275.26 70.71 286.42 72.27 286.42 75.38 254.74 78.32 254.59 77.98 286.28 79.36 286.28 79.67 254.4 81.8 254.4 83.86 286.71 84.9 286.57 83 253.29 87.32 285.99 89.05 285.84 83.69 252.28 78.5 247.33 73.73 256.03"/>
      <path class="cls-47" d="M72.5,275a41.25,41.25,0,0,0-6,24.32l.92-.68.46,3.2,1-4.17.58,3.59L70,299.5l2.08,3-.69-5.33,1,2.23.35-2.62,1.61,3.68v-4.65l1.39,3.49.11-3.39s1.85,5.13,1.73,4.75S79.19,289.14,72.5,275Z"/>
      <path class="cls-12" d="M79.19,275a41.25,41.25,0,0,0-6,24.32l.92-.68.46,3.2,1-4.17.58,3.59.46-1.75,2.08,3L78,297.18l1,2.23.35-2.62L81,300.47v-4.65l1.39,3.49.11-3.39s1.85,5.13,1.73,4.75S85.88,289.14,79.19,275Z"/>
      <path class="cls-48" d="M85.65,275a41.25,41.25,0,0,0-6,24.32l.92-.68.46,3.2,1-4.17.58,3.59.46-1.75,2.08,3-.7-5.33,1,2.23.35-2.62,1.61,3.68v-4.65l1.39,3.49.11-3.39s1.85,5.13,1.73,4.75S92.34,289.14,85.65,275Z"/>
      <path class="cls-42" d="M87.27,275.3A40.4,40.4,0,0,0,83.93,300l.85-.75.8,3.15.59-4.22,1,3.52.27-1.77,2.39,2.83-1.26-5.25,1.27,2.14.06-2.63,2,3.54-.51-4.63,1.76,3.37-.25-3.39s2.39,5,2.24,4.59S95.46,288.88,87.27,275.3Z"/>
      <path class="cls-49" d="M73.73,256h0a2,2,0,0,1-2-2.08L74,236.13a2.19,2.19,0,0,1,2.48-1.68,2,2,0,0,1,2,2.08l-2.25,17.82A2.19,2.19,0,0,1,73.73,256Z"/>
      <path class="cls-49" d="M77.42,240.45l-3.35-.29a1.66,1.66,0,0,1-1.65-1.72,1.8,1.8,0,0,1,2-1.39l3.36.3a1.65,1.65,0,0,1,1.65,1.72A1.8,1.8,0,0,1,77.42,240.45Z"/>
      <path class="cls-49" d="M76.94,244.28,73.59,244a1.66,1.66,0,0,1-1.66-1.72,1.81,1.81,0,0,1,2-1.39l3.35.3A1.67,1.67,0,0,1,79,242.9,1.81,1.81,0,0,1,76.94,244.28Z"/>
      <path class="cls-49" d="M75.71,254l-3.36-.3A1.65,1.65,0,0,1,70.7,252a1.81,1.81,0,0,1,2-1.39l3.35.3a1.65,1.65,0,0,1,1.65,1.72A1.8,1.8,0,0,1,75.71,254Z"/>
      <rect class="cls-46" x="76.65" y="234.39" width="4.5" height="21.7" rx="2.06"/>
      <path class="cls-46" d="M80.91,240.28h-4a1.57,1.57,0,0,1,0-3.13h4a1.57,1.57,0,1,1,0,3.13Z"/>
      <path class="cls-46" d="M80.91,244.13h-4a1.57,1.57,0,0,1,0-3.13h4a1.57,1.57,0,1,1,0,3.13Z"/>
      <path class="cls-46" d="M80.91,253.94h-4a1.57,1.57,0,0,1,0-3.13h4a1.57,1.57,0,1,1,0,3.13Z"/>
      <path class="cls-49" d="M84.39,256h0a2.23,2.23,0,0,1-2.59-1.55l-3.49-17.69a2,2,0,0,1,1.85-2.17,2.25,2.25,0,0,1,2.59,1.56l3.49,17.68A2,2,0,0,1,84.39,256Z"/>
      <path class="cls-49" d="M83,240.11l-3.33.47a1.86,1.86,0,0,1-2.14-1.29,1.62,1.62,0,0,1,1.53-1.8l3.33-.46a1.85,1.85,0,0,1,2.14,1.29A1.61,1.61,0,0,1,83,240.11Z"/>
      <path class="cls-49" d="M83.75,243.91l-3.33.47a1.86,1.86,0,0,1-2.14-1.29,1.62,1.62,0,0,1,1.53-1.8l3.33-.46a1.85,1.85,0,0,1,2.14,1.29A1.61,1.61,0,0,1,83.75,243.91Z"/>
      <path class="cls-49" d="M85.66,253.59l-3.33.46a1.84,1.84,0,0,1-2.14-1.28,1.63,1.63,0,0,1,1.53-1.8l3.33-.46a1.85,1.85,0,0,1,2.14,1.28A1.62,1.62,0,0,1,85.66,253.59Z"/>
      <path class="cls-46" d="M83.86,234.21a1.72,1.72,0,0,1-.65,1.31,2.39,2.39,0,0,1-1.55.54H74.48a2,2,0,0,1-2.21-1.85,1.59,1.59,0,0,1,.26-.88,1.92,1.92,0,0,1,.38-.43,2.43,2.43,0,0,1,1.57-.54h7.18a2.31,2.31,0,0,1,1.94,1A1.59,1.59,0,0,1,83.86,234.21Z"/>
      <path class="cls-49" d="M83.6,233.33a2,2,0,0,1-.39.44,2.4,2.4,0,0,1-1.55.55H74.48a2.28,2.28,0,0,1-2-1,1.92,1.92,0,0,1,.38-.43,2.43,2.43,0,0,1,1.57-.54h7.18A2.31,2.31,0,0,1,83.6,233.33Z"/>
      <path class="cls-4" d="M77.25,97.21a7.37,7.37,0,0,1-5.72,1.54c-6.4-1.14-10.63-11.63-8.69-14.85a5.46,5.46,0,0,1,.31-.47C65.75,80,71.06,82,71.06,82s15.51,8.46,6.19,15.19"/>
      <path class="cls-7" d="M65.53,87.87a1.93,1.93,0,0,0-.68.73c-1.2,2.12,3.08,5.83,6.27,7.19a2.91,2.91,0,0,1,.6-.06,2.7,2.7,0,0,1,2.7,2.7,1.28,1.28,0,0,1,0,.19l.48-.15A31.41,31.41,0,0,1,73,94l-.34-1.68c-.83-.72-1.61-1.42-2.42-2.06a14.55,14.55,0,0,0-2.31-1.61,7.38,7.38,0,0,0-2.4-.81m.58-6.3a4.93,4.93,0,0,0-3,1.86c1,.09,3.21.64,5.62,3.71a6.48,6.48,0,0,1,2.06.91,46,46,0,0,1-4.72-6.48"/>
      <path class="cls-50" d="M75,94.24c-1.84-1.32-3.27-2.74-4.79-3.95a14.55,14.55,0,0,0-2.31-1.61,7.36,7.36,0,0,0-2.84-.86,4,4,0,0,1,3.37-.75,7,7,0,0,1,3.14,1.54,10,10,0,0,1,2.21,2.53A8.56,8.56,0,0,1,75,94.24"/>
      <path class="cls-51" d="M75.91,113.19c-2.29,1.07-5,.84-8.08-.11v-.81c.08-7.68,3.39-10.89,3.9-11.35l.07,0C76.88,104.65,75.91,113.19,75.91,113.19Z"/>
      <path class="cls-52" d="M74.5,112a10,10,0,0,1-6.67.29c0-.69,0-1.35.1-2,.43-4.83,2.18-7.54,3.17-8.72a6.15,6.15,0,0,1,.63-.66C75.29,105.06,74.5,112,74.5,112Z"/>
      <path class="cls-53" d="M72.11,109.62a8.42,8.42,0,0,1-4.18.68c.43-4.83,2.18-7.54,3.17-8.72A19.13,19.13,0,0,1,72.11,109.62Z"/>
      <path class="cls-54" d="M69.4,114a1.14,1.14,0,0,1-2.28.07h0a1.14,1.14,0,0,1,1.1-1.17l.23,0h0A1.15,1.15,0,0,1,69.4,114Z"/>
      <path class="cls-55" d="M69,113.75a1,1,0,0,1-.94,1,1,1,0,0,1-1-.7,1.14,1.14,0,0,1,1.1-1.17l.23,0h0A1,1,0,0,1,69,113.75Z"/>
      <path class="cls-54" d="M71.36,114.28a1.15,1.15,0,0,1-2.29.08v0a1.15,1.15,0,0,1,1.11-1.16h.23A1.16,1.16,0,0,1,71.36,114.28Z"/>
      <path class="cls-55" d="M71,114a1,1,0,0,1-.94,1,1,1,0,0,1-1-.7,1.15,1.15,0,0,1,1.11-1.16h.23A1,1,0,0,1,71,114Z"/>
      <path class="cls-54" d="M73.45,114.48a1.14,1.14,0,0,1-2.28.08v0a1.14,1.14,0,0,1,1.11-1.16h.23A1.14,1.14,0,0,1,73.45,114.48Z"/>
      <path class="cls-55" d="M73.07,114.24a1,1,0,0,1-.94,1,1,1,0,0,1-1-.7,1.14,1.14,0,0,1,1.11-1.16h.23A1,1,0,0,1,73.07,114.24Z"/>
      <path class="cls-54" d="M75.4,114.35a1.14,1.14,0,1,1-2.28.08h0a1.14,1.14,0,0,1,1.1-1.17h.24A1.16,1.16,0,0,1,75.4,114.35Z"/>
      <path class="cls-55" d="M75,114.11a1,1,0,0,1-.94,1,1,1,0,0,1-1-.69,1.14,1.14,0,0,1,1.1-1.17h.24A1,1,0,0,1,75,114.11Z"/>
      <path class="cls-54" d="M77.39,113.75a1.14,1.14,0,0,1-2.28.08v0a1.13,1.13,0,0,1,1.1-1.16h.24A1.15,1.15,0,0,1,77.39,113.75Z"/>
      <path class="cls-55" d="M77,113.51a1,1,0,0,1-1.9.3,1.13,1.13,0,0,1,1.1-1.16h.24A1,1,0,0,1,77,113.51Z"/>
      <path class="cls-51" d="M74.42,98.43a2.7,2.7,0,1,1-2.7-2.7,2.7,2.7,0,0,1,2.7,2.7"/>
      <path class="cls-52" d="M74.16,98.43A2.45,2.45,0,1,1,71.72,96a2.44,2.44,0,0,1,2.44,2.45"/>
      <path class="cls-53" d="M73,98a1.54,1.54,0,1,1-1.54-1.39A1.48,1.48,0,0,1,73,98Z"/>
      <path class="cls-4" d="M126.28,97.21A7.37,7.37,0,0,0,132,98.75c6.4-1.14,10.62-11.63,8.69-14.85a5.46,5.46,0,0,0-.31-.47C137.77,80,132.47,82,132.47,82S117,90.48,126.28,97.21"/>
      <path class="cls-7" d="M129.12,98.23l-.17.34.17.05a1.28,1.28,0,0,1,0-.19,1.34,1.34,0,0,1,0-.2M138,87.87a7.38,7.38,0,0,0-2.4.81,14.55,14.55,0,0,0-2.31,1.61c-.64.51-1.26,1.06-1.91,1.61l0,1c-.44,1.27-.91,2.47-1.41,3.62a2.68,2.68,0,0,1,1.89-.77,2.91,2.91,0,0,1,.6.06c3.19-1.36,7.47-5.07,6.27-7.19a1.93,1.93,0,0,0-.68-.73m-2.13-6.46c-.34,0-.67,0-1,.06-1.19,2.16-2.35,4-3.22,5.23L131.54,89l.39-.34a7.09,7.09,0,0,1,2.83-1.47c2.41-3.07,4.66-3.62,5.62-3.71a5.4,5.4,0,0,0-4.51-2"/>
      <path class="cls-50" d="M128.5,94.24a8.39,8.39,0,0,1,1.22-3.1,10,10,0,0,1,2.21-2.53,7,7,0,0,1,3.14-1.54,4,4,0,0,1,3.37.75,7.36,7.36,0,0,0-2.84.86,14.55,14.55,0,0,0-2.31,1.61c-1.53,1.21-2.95,2.63-4.79,3.95"/>
      <path class="cls-51" d="M127.61,113.19c2.3,1.07,5.06.84,8.08-.11,0-.28,0-.55,0-.81-.09-7.68-3.39-10.89-3.91-11.35l-.06,0C126.65,104.65,127.61,113.19,127.61,113.19Z"/>
      <path class="cls-52" d="M129,112a10,10,0,0,0,6.68.29c0-.69,0-1.35-.1-2-.43-4.83-2.18-7.54-3.18-8.72a5.27,5.27,0,0,0-.63-.66C128.24,105.06,129,112,129,112Z"/>
      <path class="cls-53" d="M131.42,109.62a8.4,8.4,0,0,0,4.18.68c-.43-4.83-2.18-7.54-3.18-8.72A19.22,19.22,0,0,0,131.42,109.62Z"/>
      <path class="cls-54" d="M134.13,114a1.14,1.14,0,0,0,2.28.07h0a1.14,1.14,0,0,0-1.1-1.17l-.23,0h0A1.14,1.14,0,0,0,134.13,114Z"/>
      <path class="cls-55" d="M134.51,113.75a1,1,0,0,0,.94,1,1,1,0,0,0,1-.7,1.14,1.14,0,0,0-1.1-1.17l-.23,0h0A1,1,0,0,0,134.51,113.75Z"/>
      <path class="cls-54" d="M132.17,114.28a1.14,1.14,0,0,0,2.28.08v0a1.14,1.14,0,0,0-1.1-1.16h-.24A1.16,1.16,0,0,0,132.17,114.28Z"/>
      <path class="cls-55" d="M132.55,114a1,1,0,0,0,.94,1,1,1,0,0,0,1-.7,1.14,1.14,0,0,0-1.1-1.16h-.24A1,1,0,0,0,132.55,114Z"/>
      <path class="cls-54" d="M130.07,114.48a1.15,1.15,0,0,0,2.29.08v0a1.15,1.15,0,0,0-1.11-1.16H131A1.16,1.16,0,0,0,130.07,114.48Z"/>
      <path class="cls-55" d="M130.45,114.24a1,1,0,0,0,.94,1,1,1,0,0,0,1-.7,1.15,1.15,0,0,0-1.11-1.16H131A1,1,0,0,0,130.45,114.24Z"/>
      <path class="cls-54" d="M128.13,114.35a1.14,1.14,0,0,0,2.28.08h0a1.14,1.14,0,0,0-1.1-1.17h-.24A1.15,1.15,0,0,0,128.13,114.35Z"/>
      <path class="cls-55" d="M128.51,114.11a1,1,0,0,0,.94,1,1,1,0,0,0,1-.69,1.14,1.14,0,0,0-1.1-1.17h-.24A1,1,0,0,0,128.51,114.11Z"/>
      <path class="cls-54" d="M126.14,113.75a1.14,1.14,0,0,0,2.28.08v0a1.14,1.14,0,0,0-1.1-1.16h-.24A1.15,1.15,0,0,0,126.14,113.75Z"/>
      <path class="cls-55" d="M126.52,113.51a1,1,0,0,0,1.9.3,1.14,1.14,0,0,0-1.1-1.16h-.24A1,1,0,0,0,126.52,113.51Z"/>
      <path class="cls-51" d="M129.11,98.43a2.7,2.7,0,1,0,2.7-2.7,2.7,2.7,0,0,0-2.7,2.7"/>
      <path class="cls-52" d="M129.36,98.43A2.45,2.45,0,1,0,131.81,96a2.45,2.45,0,0,0-2.45,2.45"/>
      <path class="cls-53" d="M130.56,98a1.54,1.54,0,1,0,1.54-1.39A1.48,1.48,0,0,0,130.56,98Z"/>
      <path class="cls-56" d="M73,90.18c-1-.47-13.07-12.73-12.84-29s3.08-29.29,23.31-37.64,31-5.81,41,3.48,16.12,22.26,16.12,35.49-10.4,26.25-10.4,26.25L73,90.18"/>
      <g class="cls-57">
        <rect class="cls-7" x="80.41" y="70.93" width="10.42" height="16.64"/>
      </g>
      <path class="cls-58" d="M89,81.08c.18,3-1.13,5.62-2.93,5.77s-3.42-2.19-3.6-5.23,1.14-5.61,2.94-5.76S88.82,78.05,89,81.08Z"/>
      <path class="cls-55" d="M85.21,79.43c.05.95-.36,1.76-.93,1.81s-1.07-.69-1.12-1.64.35-1.76.92-1.81S85.15,78.48,85.21,79.43Z"/>
      <path class="cls-55" d="M86,81.6c0,.49-.18.9-.47.92s-.54-.35-.57-.83.18-.89.47-.92S86,81.12,86,81.6Z"/>
      <path class="cls-7" d="M116.65,71c-2.5,0-4.78,3.23-5.19,7.48-.43,4.46,1.37,8.37,4,8.73a2.56,2.56,0,0,0,.39,0c2.5,0,4.78-3.23,5.19-7.48.43-4.46-1.37-8.38-4-8.73a2.56,2.56,0,0,0-.39,0"/>
      <path class="cls-58" d="M119.25,81.62c-.29,3-1.94,5.17-3.7,4.93s-3-2.82-2.66-5.78,1.94-5.16,3.69-4.92S119.53,78.67,119.25,81.62Z"/>
      <path class="cls-55" d="M115.85,79.24c-.09.92-.61,1.62-1.16,1.54s-.93-.88-.84-1.81.61-1.62,1.16-1.55S115.93,78.31,115.85,79.24Z"/>
      <path class="cls-55" d="M116.31,81.5c0,.47-.31.82-.59.78s-.47-.45-.42-.92.31-.81.59-.78S116.36,81,116.31,81.5Z"/>
      <path class="cls-50" d="M85.64,96.54A10.34,10.34,0,0,1,84.76,98c-.14.16-.26.33-.42.52s-.32.42-.59.74a1.36,1.36,0,0,1-.45-1,1.79,1.79,0,0,1,.36-1.07,1.85,1.85,0,0,1,.89-.63,1.47,1.47,0,0,1,1.09,0"/>
      <path class="cls-50" d="M118.8,96.54a1.47,1.47,0,0,1,1.09,0,1.85,1.85,0,0,1,.89.63,1.79,1.79,0,0,1,.36,1.07,1.36,1.36,0,0,1-.45,1c-.27-.32-.43-.55-.59-.74s-.28-.36-.42-.52A9.44,9.44,0,0,1,118.8,96.54Z"/>
      <path class="cls-55" d="M112.4,100A16,16,0,0,1,101,104.56a13.61,13.61,0,0,1-11-5A46.06,46.06,0,0,0,112.4,100Z"/>
      <path class="cls-59" d="M94.52,99.86s5.24-5.82,14.62,0C109.14,99.86,98.6,101.42,94.52,99.86Z"/>
      <path class="cls-59" d="M107.19,109.5c0,1-2.56,1.87-5.72,1.87s-5.73-.84-5.73-1.87,2.57-1.88,5.73-1.88,5.72.84,5.72,1.88"/>
      <path class="cls-60" d="M95.93,90.42a9,9,0,0,1,11,.47S101.26,95.53,95.93,90.42Z"/>
      <polygon class="cls-50" points="105.69 86.57 107.35 90.77 107.47 91.09 107.1 91.28 101.75 93.97 101.39 94.15 101.04 93.98 95.45 91.23 95.08 91.04 95.22 90.73 96.98 86.92 95.97 90.99 95.73 90.49 101.74 92.15 101.03 92.15 106.79 90.49 106.54 91 105.69 86.57"/>
      <path class="cls-56" d="M111.43,61.27c-1.37,2.49-.65,3.92-.65,3.92a32.7,32.7,0,0,1,5.3,1.46l.43.16.3.12a22.86,22.86,0,0,1,3.63,1.85c.21.14.41.27.6.41s.4.28.57.41a10.14,10.14,0,0,1,1.84,1.69,12.1,12.1,0,0,0-.64-2.74c-.1-.26-.21-.52-.32-.77s-.23-.47-.36-.69a10,10,0,0,0-2.52-3l-.42-.32-.44-.3A15.38,15.38,0,0,0,111.43,61.27Z"/>
      <path class="cls-45" d="M122.49,67.78A8.83,8.83,0,0,0,121,69.19c.21.14.4.28.57.41a7.45,7.45,0,0,1,1.2-1C122.71,68.29,122.6,68,122.49,67.78Z"/>
      <path class="cls-45" d="M119.61,64.14a8.28,8.28,0,0,0-2.8,2.79,22.86,22.86,0,0,1,3.63,1.85,10,10,0,0,1,1.69-1.69A10,10,0,0,0,119.61,64.14Z"/>
      <path class="cls-45" d="M116.08,66.65l.43.16a10.51,10.51,0,0,1,2.68-3l-.44-.3A10.68,10.68,0,0,0,116.08,66.65Z"/>
      <path class="cls-56" d="M89.72,61.48c1.26,2.62.45,4,.45,4a32.55,32.55,0,0,0-5.49,1.2l-.45.14-.31.11a23.23,23.23,0,0,0-3.8,1.69c-.23.13-.44.25-.64.38l-.6.39a10.93,10.93,0,0,0-2,1.62,12.5,12.5,0,0,1,.81-2.75,6.82,6.82,0,0,1,.37-.77,7.69,7.69,0,0,1,.39-.69A10.33,10.33,0,0,1,81.22,64l.45-.3.46-.28A15.72,15.72,0,0,1,89.72,61.48Z"/>
      <path class="cls-45" d="M78.09,67.52A8.56,8.56,0,0,1,79.48,69l-.6.39a7.63,7.63,0,0,0-1.16-1.13A6.82,6.82,0,0,1,78.09,67.52Z"/>
      <path class="cls-45" d="M81.22,64a8.48,8.48,0,0,1,2.7,3,23.23,23.23,0,0,0-3.8,1.69,9.92,9.92,0,0,0-1.64-1.82A10.33,10.33,0,0,1,81.22,64Z"/>
      <path class="cls-45" d="M84.68,66.71l-.45.14a10.63,10.63,0,0,0-2.56-3.19l.46-.28A10.69,10.69,0,0,1,84.68,66.71Z"/>
      <path class="cls-45" d="M111.28,45.81s-6.84-7.6-21.47-2.66S65.87,73.36,65.87,73.36,76.7,14.46,106,36.88c0,0-5.51-13.68-22.42-6.27S65.68,64.43,65.68,64.43s-2.44-38.3,23.18-38.95C111.28,24.91,111.28,45.81,111.28,45.81Z"/>
      <path class="cls-45" d="M118.88,51.32s14.7,4.18,17.23,23.56c0,0,4.69-16.21-8-24.95,0,0,6.59,2.53,9.12,7.47,0,0,.25-27.49-27.11-25.21,0,0,15.71,4.31,20.9,14.7A20.45,20.45,0,0,0,117,40.55s6.21,2.66,9.38,6.84l-6-2s7.22,5.19,9.25,9.62A16.61,16.61,0,0,0,118.88,51.32Z"/>
      <path class="cls-45" d="M108.24,28.9s10.07-4,18.05,2.85C126.29,31.75,117,16.17,108.24,28.9Z"/>
      <path class="cls-13" d="M38.9,159.4a3.86,3.86,0,0,1-1.7-1.65h0c-1.28-2.08-1.82-5.55-.09-7.82a5,5,0,0,1,1.55-1.34l.32.71s7.63,2.06,12-2.1l-.61-1.55s5.19-.53,6.32,7.95-15.14,6.84-17.74,5.8"/>
      <path class="cls-15" d="M50.5,145.64h-.18l.61,1.55h0a10.85,10.85,0,0,1-7.63,2.61A18.42,18.42,0,0,1,39,149.3l-.32-.71a5,5,0,0,0-1.55,1.34,16,16,0,0,0,6.53,1c.89,0,1.88,0,3-.11l.92,0c3.71,0,3.84,1.75,1.86,3.5s-6.06,3.51-10.77,3.51q-.7,0-1.41-.06a3.86,3.86,0,0,0,1.7,1.65,24.16,24.16,0,0,0,7,.86c5,0,10.81-1.2,10.81-5.85a5.73,5.73,0,0,0-.06-.81c-1-7.55-5.23-8-6.14-8"/>
      <path class="cls-13" d="M96.32,210.39a5,5,0,0,1-2.37,2h0c-2.87,1.36-7.45,1.6-10.19-.91a6.31,6.31,0,0,1-1.54-2.15l1-.31s3.66-9.46-1.18-15.53l-2.1.57s0-6.68,11.16-7,6.94,20.2,5.26,23.37"/>
      <path class="cls-15" d="M91.32,187h-.26c-.29,0-.58,0-.86,0-4.87.3-7.44,1.88-8.8,3.45A5.89,5.89,0,0,0,79.9,194h0l2.1-.57a12.72,12.72,0,0,1,2.51,8.06A23.33,23.33,0,0,1,83.18,209l-1,.31a6.31,6.31,0,0,0,1.54,2.15c1.06-1.76,2.18-5.21,2.4-12,.12-3.51,1-5,2.24-5,2.86,0,7.23,8.52,5.55,17.87a5,5,0,0,0,2.37-2c.81-1.53,2.2-7.06,2.2-12.36a22.51,22.51,0,0,0-.43-4.57l-.06-.23a10.06,10.06,0,0,0-1.57-3.71,4.47,4.47,0,0,0-.32-.41,5.92,5.92,0,0,0-1.69-1.38,6.61,6.61,0,0,0-3.13-.72"/>
      <g>
        <path class="cls-44" d="M145.59,64.42c0,24.08-19,39.39-42.66,39.39S60.07,84.29,60.07,60.21,72.48,15.7,103.67,15.7C136.38,15.7,145.59,40.34,145.59,64.42Z"/>
        <g>
          <path class="cls-61" d="M70.12,83.61c-1.7-2.29-3.91-4.5-6.54-4.07s-3.91,2.88-3.4,7.13,1.44,6.45,4.67,9,4.93,3.82,8.33,1.53C73.77,92.53,71,85.14,70.12,83.61Z"/>
          <path class="cls-62" d="M71.08,95.45a9.88,9.88,0,0,1-1.1-.64,4.14,4.14,0,0,1-1.55-1.89,3.93,3.93,0,0,1-.23-2.42,4.34,4.34,0,0,1,.49-1.28c0-.08.1-.15.15-.23l-.08-.15c-.15-.28-.3-.57-.47-.85a17.47,17.47,0,0,0-1.65-2.29,5.38,5.38,0,0,0-2.25-1.76,1.77,1.77,0,0,0-1.46.17,1.25,1.25,0,0,0-.68,1.2,1.23,1.23,0,0,1,.78-1,1.55,1.55,0,0,1,1.25,0,5.48,5.48,0,0,1,2,1.74A24.13,24.13,0,0,1,68,88.18l.58.87a3.76,3.76,0,0,0-.72,1.37A4.08,4.08,0,0,0,68,93.09a4.25,4.25,0,0,0,1.78,2,8.8,8.8,0,0,0,1.21.55,2,2,0,0,0,1.3.12A2,2,0,0,1,71.08,95.45ZM63.63,91.1a5.3,5.3,0,0,1-.49-2.65,20.63,20.63,0,0,1,.41-2.79,11.27,11.27,0,0,0-.75,2.76,5.12,5.12,0,0,0,.43,2.88,5.44,5.44,0,0,0,2,2.1,12.5,12.5,0,0,0,2.59,1.22,27.61,27.61,0,0,1-2.4-1.49A5.85,5.85,0,0,1,63.63,91.1Z"/>
        </g>
        <g>
          <path class="cls-61" d="M135.14,83.75c1.73-2.32,4-4.56,6.64-4.13s4,2.93,3.45,7.23-1.47,6.55-4.74,9.14-5,3.88-8.45,1.55C131.44,92.8,134.28,85.3,135.14,83.75Z"/>
          <path class="cls-62" d="M132.93,96.09a2,2,0,0,0,1.32-.13,7.9,7.9,0,0,0,1.22-.56,4.26,4.26,0,0,0,1.81-2,4.14,4.14,0,0,0,.15-2.71,3.94,3.94,0,0,0-.73-1.39c.18-.3.38-.6.58-.89.54-.77,1.12-1.5,1.73-2.21a5.65,5.65,0,0,1,2.06-1.76,1.6,1.6,0,0,1,1.27,0,1.24,1.24,0,0,1,.78,1,1.25,1.25,0,0,0-.68-1.22,1.79,1.79,0,0,0-1.48-.18,5.44,5.44,0,0,0-2.29,1.8A16.71,16.71,0,0,0,137,88.2c-.16.28-.32.57-.47.86l-.08.15a1.94,1.94,0,0,1,.15.24,4.32,4.32,0,0,1,.5,1.29,4.06,4.06,0,0,1-.23,2.46,4.14,4.14,0,0,1-1.58,1.91,11.11,11.11,0,0,1-1.11.65A2.11,2.11,0,0,1,132.93,96.09Zm7-2.69a26.11,26.11,0,0,1-2.43,1.52,13,13,0,0,0,2.62-1.23,5.67,5.67,0,0,0,2-2.13,5.22,5.22,0,0,0,.44-2.93,11.47,11.47,0,0,0-.76-2.8,21.21,21.21,0,0,1,.41,2.83,5.22,5.22,0,0,1-.49,2.69A5.82,5.82,0,0,1,139.89,93.4Z"/>
        </g>
        <g>
          <path class="cls-61" d="M137.11,71c0,.3,3,.62,3,.93a201.2,201.2,0,0,1-4.49,25.23,19.93,19.93,0,0,1-2.34,5.41,22.36,22.36,0,0,1-6.42,6.52,75.75,75.75,0,0,1-11.42,6.18,54.87,54.87,0,0,1-5.79,2.23,22.17,22.17,0,0,1-6.3,1.22,25,25,0,0,1-7.11-1.32A93.38,93.38,0,0,1,81.81,111c-4.59-2.4-10.18-7.54-11.49-13a255,255,0,0,1-4.92-25.6c-.46-3.46,2.5-4.81,5.35-15.06,3.8-13.76,9-19.21,30.74-19.21C139.34,38.12,138.31,60.33,137.11,71Z"/>
          <path class="cls-63" d="M67.72,86.14S71.29,62.92,79,56.63s8.81-10.32,8.81-10.32,2.06,11.75,15.33,16.77l-.59-7a17.22,17.22,0,0,0,7.89,7l-1.28-8.9A138.08,138.08,0,0,1,129,63.76c9.6,5.77,9.2,24.75,9.2,24.75l-3.86-39.37L101.49,35.52,80.6,34.7,66.45,54.18l2.2,15.18Z"/>
        </g>
        <g>
          <ellipse class="cls-64" cx="118.86" cy="78.7" rx="6.91" ry="7.32"/>
          <ellipse class="cls-65" cx="118.96" cy="78.62" rx="4.63" ry="4.9"/>
          <ellipse class="cls-55" cx="121.12" cy="74.68" rx="1.27" ry="1.34"/>
        </g>
        <g>
          <ellipse class="cls-64" cx="85.91" cy="80.02" rx="6.91" ry="7.32"/>
          <ellipse class="cls-65" cx="86.08" cy="80.02" rx="4.56" ry="4.82"/>
          <ellipse class="cls-55" cx="88.17" cy="76" rx="1.27" ry="1.34"/>
        </g>
        <path class="cls-66" d="M97.83,89.87a18.38,18.38,0,0,0,2.21,1.2,7.83,7.83,0,0,0,2.06.59,5.68,5.68,0,0,0,2.05-.07,9.62,9.62,0,0,0,2.3-.89A3.66,3.66,0,0,1,104.79,93a4.39,4.39,0,0,1-3,.63A4.64,4.64,0,0,1,97.83,89.87Z"/>
        <g>
          <path class="cls-63" d="M90.33,96.43c-.53-.21-1.15-1.07-1.64-1.37a3.72,3.72,0,0,0-1.59-.54c-.74-.07-1.63.2-1.78.86a1.48,1.48,0,0,0,.77,1.39,4.8,4.8,0,0,0,2.83.88,1.45,1.45,0,0,0,1.17-.45c.23-.34,0-.94-.48-.87Z"/>
          <path class="cls-63" d="M114,97.91c.34-.38.88-1.43,1.32-1.71a2.32,2.32,0,0,1,1-.38,1.59,1.59,0,0,1,1.6,1,1.9,1.9,0,0,1-.41,1.83,3.75,3.75,0,0,1-1.72,1,2.81,2.81,0,0,1-1.38.12,1.2,1.2,0,0,1-1-.86,1.12,1.12,0,0,1,.6-1.09,3.63,3.63,0,0,1,1.31-.44Z"/>
          <g>
            <path class="cls-67" d="M116.31,97.34a10.68,10.68,0,0,1-.59,1.36c-1.3,2.62-4.41,7.47-8.36,9.28a11,11,0,0,1-9.17-.17c-3.77-1.77-5.48-3.88-7.64-7.43-.71-1.16-1.46-2.46-2.35-4,0,0-.21-.28.14-.29a1.81,1.81,0,0,1,.59.1c2.12.59,7.5,3.57,15.83,3.17,6.4-.32,9.89-1.72,11.17-2.35a.27.27,0,0,1,.38.13A.22.22,0,0,1,116.31,97.34Z"/>
            <path class="cls-68" d="M115.72,98.7c-1.3,2.62-4.41,7.47-8.36,9.28a11,11,0,0,1-9.17-.17c-3.77-1.77-5.48-3.88-7.64-7.43,2.51,2.78,6.76,6.42,11.92,6.78C109.53,107.64,114.35,100.9,115.72,98.7Z"/>
            <path class="cls-69" d="M116.31,97.18a27,27,0,0,1-14.5,3.38c-7.69-.33-12.08-3.39-13.47-4.43a1.85,1.85,0,0,1,.59.1c2.12.59,7.5,3.57,15.83,3.17,6.39-.32,9.89-1.72,11.17-2.35A.27.27,0,0,1,116.31,97.18Z"/>
            <path class="cls-70" d="M91.47,97.75c.17.07,9.11,5.45,21.41,1,0,0-1.77,4-9.19,4.44A13.73,13.73,0,0,1,91.47,97.75Z"/>
            <path class="cls-71" d="M102.5,107.05c-1.74-.1-3.92-.56-4.78-1.34,1.55-1.51,3.53-.4,5.21-.89,3.52-1,4.73.25,5.19,1A9,9,0,0,1,102.5,107.05Z"/>
          </g>
        </g>
        <path class="cls-65" d="M88.25,65.21S81.36,64,78.06,68.61a.23.23,0,0,1-.43-.11c.11-1.4.86-4.26,5.14-5.09C89.52,62.09,88.25,65.21,88.25,65.21Z"/>
        <path class="cls-65" d="M114.59,62.39s6.89-1.17,10.19,3.41c.14.18.45.09.43-.12-.11-1.39-.86-4.25-5.14-5.09C113.32,59.27,114.59,62.39,114.59,62.39Z"/>
        <path class="cls-44" d="M136.26,50.51c-3.25-17.21-9-14.58-24.31-17.8-7-1.47-7-6.55-14.12-5.84-4,.4-14.87-1.54-24.32,14.63-6,10.19-15.71,19.07-11.65,31.21,3.72,11.57,5.86,13.43,5.86,13.43l.29-1.7c.09-1.3.21-2.6.26-3.9,1-24.47,11.89-24.8,20.48-39.4a43,43,0,0,0,7.71,5.3c4.94,2.9,10.05,5.39,15.21,7.79s10.4,4.48,15.5,7.08c13.06,6.65,10.32,24.82,10.32,24.83-.08-.45,1.57-2.53,1.79-2.91a44.34,44.34,0,0,0,3.33-6.51C146.49,67.37,138.2,60.76,136.26,50.51Z"/>
        <path class="cls-44" d="M101.49,45.62a22.39,22.39,0,0,0,0,14.44A31.21,31.21,0,0,1,88.34,38.42"/>
        <path class="cls-44" d="M97.83,44.09s.22,5.25,11.33,16.35c0,0-4.12-7.33-1.78-14.82"/>
        <path class="cls-72" d="M64.68,80.9A54,54,0,0,1,61.84,71,63.54,63.54,0,0,1,60.7,60.51a10.76,10.76,0,0,1,.15-2.66l.55-2.61A53.52,53.52,0,0,1,62.72,50a44.54,44.54,0,0,1,4.37-9.94,37.19,37.19,0,0,1,7-8.54,42.51,42.51,0,0,1,9-6.16,43.66,43.66,0,0,1,21.11-4.62A46.14,46.14,0,0,1,125,26.43a38.32,38.32,0,0,1,8.82,6.64,30.65,30.65,0,0,1,3.56,4.47l.75,1.25c.24.41.42.8.64,1.2.43.8.8,1.62,1.18,2.43a52.5,52.5,0,0,1,3.38,10.19c.39,1.74.71,3.49.93,5.25l.38,2.64a11.85,11.85,0,0,1-.06,2.66,63.39,63.39,0,0,1-1.81,10.36,52.26,52.26,0,0,1-3.51,9.71,76.61,76.61,0,0,0-1.34-19.74,14,14,0,0,1-.41-2.35,23.2,23.2,0,0,0-.18-2.36c-.2-1.56-.49-3.11-.82-4.63a45.64,45.64,0,0,0-2.94-8.84c-.32-.71-.64-1.41-1-2.09-.18-.33-.36-.7-.54-1l-.54-.9a23.66,23.66,0,0,0-2.69-3.37,30.72,30.72,0,0,0-7.18-5.38A39.38,39.38,0,0,0,104,27.77a36.77,36.77,0,0,0-17.72,3.87,35.53,35.53,0,0,0-7.51,5.11,30.31,30.31,0,0,0-5.69,7,37.49,37.49,0,0,0-3.68,8.39,43.67,43.67,0,0,0-1.14,4.54A20.1,20.1,0,0,0,67.94,59a12.71,12.71,0,0,1-.52,2.32A84.66,84.66,0,0,0,64.68,80.9Z"/>
        <path class="cls-73" d="M68.9,95.59s2.81,5.86-.65,6.86-2.39-5.55-2.39-5.55.9,5.52,2,2.11Z"/>
        <path class="cls-73" d="M137,96s-2.82,5.86.65,6.86S140,97.27,140,97.27s-.9,5.52-2,2.11Z"/>
      </g>
    </g>
  </g>
</svg>
