<svg xmlns="http://www.w3.org/2000/svg" xmlns:xlink="http://www.w3.org/1999/xlink" width="224.51" height="189.46" viewBox="0 0 224.51 189.46">
  <defs>
    <style>
      .cls-1, .cls-17, .cls-25, .cls-3, .cls-4 {
        fill: none;
      }

      .cls-2 {
        isolation: isolate;
      }

      .cls-3 {
        stroke: #000;
        opacity: 0.5;
      }

      .cls-3, .cls-4 {
        stroke-linejoin: round;
        stroke-width: 15px;
      }

      .cls-4 {
        stroke: #fff;
      }

      .cls-5 {
        fill: #3d8ea1;
      }

      .cls-6 {
        fill: #7bb8d5;
      }

      .cls-7 {
        fill: #9ad0e8;
      }

      .cls-8 {
        fill: #d8f4ff;
      }

      .cls-9 {
        fill: #fcffff;
      }

      .cls-10 {
        fill: #fffffb;
      }

      .cls-11 {
        fill: #2790ad;
      }

      .cls-12 {
        fill: #74b7d1;
      }

      .cls-13 {
        fill: #99d1ec;
      }

      .cls-14 {
        fill: #d3f5ff;
      }

      .cls-15 {
        fill: #fffcfc;
      }

      .cls-16 {
        fill: #41a022;
      }

      .cls-17 {
        stroke: #38841c;
        stroke-width: 0.65px;
      }

      .cls-17, .cls-25 {
        stroke-miterlimit: 10;
      }

      .cls-18 {
        opacity: 0.32;
      }

      .cls-19 {
        clip-path: url(#clip-path);
      }

      .cls-20 {
        fill: #204910;
      }

      .cls-21 {
        opacity: 0.51;
      }

      .cls-22 {
        clip-path: url(#clip-path-2);
      }

      .cls-23 {
        fill: #8fc12f;
      }

      .cls-24 {
        fill: #48bc28;
      }

      .cls-25 {
        stroke: #45a525;
        stroke-width: 1.3px;
      }

      .cls-26 {
        mix-blend-mode: screen;
        opacity: 0.69;
      }

      .cls-27 {
        clip-path: url(#clip-path-3);
      }

      .cls-28 {
        fill: #b0e573;
      }

      .cls-29 {
        clip-path: url(#clip-path-4);
      }

      .cls-30 {
        clip-path: url(#clip-path-5);
      }

      .cls-31 {
        clip-path: url(#clip-path-6);
      }

      .cls-32 {
        clip-path: url(#clip-path-7);
      }

      .cls-33 {
        clip-path: url(#clip-path-8);
      }

      .cls-34 {
        clip-path: url(#clip-path-9);
      }

      .cls-35 {
        clip-path: url(#clip-path-10);
      }

      .cls-36 {
        clip-path: url(#clip-path-11);
      }

      .cls-37 {
        clip-path: url(#clip-path-12);
      }

      .cls-38 {
        clip-path: url(#clip-path-13);
      }

      .cls-39 {
        clip-path: url(#clip-path-14);
      }

      .cls-40 {
        fill: #b6f261;
      }

      .cls-41 {
        clip-path: url(#clip-path-15);
      }

      .cls-42 {
        fill: #73b5cb;
      }

      .cls-43 {
        fill: #92ceea;
      }

      .cls-44 {
        fill: #fefefe;
      }

      .cls-45 {
        fill: #fffffa;
      }
    </style>
    <clipPath id="clip-path">
      <rect id="SVGID" class="cls-1" x="12.89" y="19.13" width="37.8" height="10.01" transform="translate(-4.17 6.81) rotate(-11.48)"/>
    </clipPath>
    <clipPath id="clip-path-2">
      <rect id="SVGID-2" data-name="SVGID" class="cls-1" x="16.12" y="16.32" width="27.92" height="7.88" transform="translate(-3.43 6.39) rotate(-11.48)"/>
    </clipPath>
    <clipPath id="clip-path-3">
      <rect id="SVGID-3" data-name="SVGID" class="cls-1" x="89.87" y="78.27" width="11.28" height="58.04" transform="translate(-19.45 21.16) rotate(-11.48)"/>
    </clipPath>
    <clipPath id="clip-path-4">
      <rect id="SVGID-4" data-name="SVGID" class="cls-1" x="63.95" y="53.52" width="8.03" height="77.82" transform="translate(-17.04 15.38) rotate(-11.48)"/>
    </clipPath>
    <clipPath id="clip-path-5">
      <rect id="SVGID-5" data-name="SVGID" class="cls-1" x="42.47" y="26.01" width="13.43" height="84.26" transform="translate(-12.58 11.16) rotate(-11.48)"/>
    </clipPath>
    <clipPath id="clip-path-6">
      <rect id="SVGID-6" data-name="SVGID" class="cls-1" x="118.73" y="96.1" width="12.92" height="38.42" transform="translate(-20.45 27.23) rotate(-11.48)"/>
    </clipPath>
    <clipPath id="clip-path-7">
      <rect id="SVGID-7" data-name="SVGID" class="cls-1" x="150.53" y="112.69" width="3.66" height="17.32" transform="translate(-21.11 32.76) rotate(-11.48)"/>
    </clipPath>
    <clipPath id="clip-path-8">
      <rect id="SVGID-8" data-name="SVGID" class="cls-1" x="56.95" y="39.69" width="72.33" height="7.84" transform="matrix(0.98, -0.2, 0.2, 0.98, -6.82, 19.41)"/>
    </clipPath>
    <clipPath id="clip-path-9">
      <rect id="SVGID-9" data-name="SVGID" class="cls-1" x="75.76" y="57.08" width="63.26" height="9.74" transform="translate(-10.18 22.62) rotate(-11.48)"/>
    </clipPath>
    <clipPath id="clip-path-10">
      <rect id="SVGID-10" data-name="SVGID" class="cls-1" x="96.57" y="77.52" width="55.97" height="10.44" transform="translate(-13.98 26.45) rotate(-11.48)"/>
    </clipPath>
    <clipPath id="clip-path-11">
      <rect id="SVGID-11" data-name="SVGID" class="cls-1" x="148.11" y="109.23" width="26.11" height="3.22" transform="translate(-18.84 34.3) rotate(-11.48)"/>
    </clipPath>
    <clipPath id="clip-path-12">
      <rect id="SVGID-12" data-name="SVGID" class="cls-1" x="47.59" y="21.79" width="57.84" height="3.47" transform="translate(-3.15 15.7) rotate(-11.48)"/>
    </clipPath>
    <clipPath id="clip-path-13">
      <rect id="SVGID-13" data-name="SVGID" class="cls-1" x="115.83" y="93.73" width="47.98" height="11.56" transform="translate(-17.01 29.83) rotate(-11.48)"/>
    </clipPath>
    <clipPath id="clip-path-14">
      <rect id="SVGID-14" data-name="SVGID" class="cls-1" x="57.89" y="0.49" width="117.87" height="134.3" transform="translate(-11.13 24.61) rotate(-11.48)"/>
    </clipPath>
    <clipPath id="clip-path-15">
      <rect id="SVGID-15" data-name="SVGID" class="cls-1" x="22.4" y="14.43" width="149.98" height="125.63" transform="translate(-13.43 20.94) rotate(-11.48)"/>
    </clipPath>
  </defs>
  <g class="cls-2">
    <g id="Layer_1" data-name="Layer 1">
      <g>
        <path class="cls-3" d="M198.09,138.62c-4.35-3.51-4.8-8.52-4.35-9.89.06-.26.1-.46.14-.63a23.12,23.12,0,0,1,2.72.24,4.79,4.79,0,0,1-.49-.11l-2.16-.46,0-.09.59.11,2.07.44a19.57,19.57,0,0,1-4.78-2.61c-1.23-1.08-2.31-1.94-3.3-2.67,1.8,1.55,2.94,2.41,3.24,2.63a60.35,60.35,0,0,1-5.14-4c.6.4,1.23.84,1.9,1.35-5.87-5.08-18.76-17.55-32.23-39.44,0,0-16-27.56-19-32-8.09-12.09-11.18-22.37-28.64-30.36L108.43,20l-1.66.34a91.53,91.53,0,0,0-9.06-3.26s-19.1-5.74-33.1-2.62c-10,2-14.2,7.48-13.53,11.86-.82-.35-1.71-.71-2.67-1.07l.06,0A50.24,50.24,0,0,0,41.34,23c-6.72-1.72-14.67-2.5-21.56.24l0,0h0l-3,6.26s11.42-6.44,30.57-2.13C36.05,28.82,23.47,38.52,20.92,50.12a27.45,27.45,0,0,0-.14,8.64,47.9,47.9,0,0,0,5,18.85.61.61,0,0,0,.05.12A102.69,102.69,0,0,0,34.17,94c16.89,27.69,38.93,36.66,48,39.29A92.19,92.19,0,0,0,91.42,136a72.76,72.76,0,0,0,11.82,2,106.12,106.12,0,0,0,12.55.62c1.71,0,3.42-.06,5.11-.13v0l0,.12c1.18,2.32,10.9,20.06,32.21,18.49q1.59-.12,3.27-.39c.63-.14,1.25-.29,1.85-.46,17.92-4.82,26.74-20.4,29.75-27,1.05,1.49,2.26,4.57.61,10-3,6.06-9.27,16.61-6.82,28a14.94,14.94,0,0,0,8.29,10.7,12.82,12.82,0,0,0,1.27.55,16.62,16.62,0,0,0,9.27.86c5.57-1.29,13.08-3.88,13-18.26C212.39,150.91,203.55,143.18,198.09,138.62Zm-5.25-11.09c-1.12-.25-2.27-.5-3.47-.78q1.86.39,3.72.75Z"/>
        <path class="cls-4" d="M194.16,134.69c-4.35-3.51-4.8-8.52-4.34-9.89.05-.26.09-.46.13-.63a25.25,25.25,0,0,1,2.72.24,4.79,4.79,0,0,1-.49-.11l-2.16-.46,0-.09.59.12,2.07.43a19.57,19.57,0,0,1-4.78-2.61c-1.23-1.08-2.31-1.94-3.3-2.67,1.8,1.55,2.94,2.41,3.24,2.63a62.1,62.1,0,0,1-5.14-4c.6.4,1.23.84,1.9,1.34-5.87-5.07-18.76-17.55-32.23-39.44,0,0-16-27.56-19-32-8.09-12.09-11.18-22.37-28.64-30.36l-.24-1.17-1.66.34a91.53,91.53,0,0,0-9.06-3.26s-19.1-5.74-33.1-2.62c-10,2.05-14.2,7.48-13.53,11.86-.82-.35-1.71-.71-2.67-1.07l.06,0a51.55,51.55,0,0,0-7.13-2.27c-6.72-1.72-14.67-2.5-21.55.24l0,0h0l-3,6.26s11.42-6.44,30.57-2.12C32.12,24.89,19.54,34.59,17,46.19a27.45,27.45,0,0,0-.14,8.64,48,48,0,0,0,5,18.85.61.61,0,0,0,.05.12,102.69,102.69,0,0,0,8.29,16.29c16.89,27.69,38.93,36.66,48,39.29a92.19,92.19,0,0,0,9.29,2.72,72.76,72.76,0,0,0,11.82,2,106.12,106.12,0,0,0,12.55.62c1.72,0,3.42-.06,5.11-.13v0a.45.45,0,0,0,.06.12c1.17,2.32,10.9,20.06,32.2,18.49q1.59-.12,3.27-.39c.63-.14,1.25-.29,1.85-.46,17.92-4.82,26.74-20.4,29.76-27,1,1.49,2.25,4.57.6,10-3,6.06-9.27,16.62-6.82,28a14.94,14.94,0,0,0,8.29,10.7c.42.21.85.39,1.27.56a16.61,16.61,0,0,0,9.27.85c5.57-1.29,13.08-3.88,13-18.26C208.46,147,199.63,139.26,194.16,134.69Zm-5.25-11.09-3.47-.77,3.72.74Z"/>
        <g>
          <g>
            <path class="cls-5" d="M185.35,122.37s-8,23.86-31,30c18.3-8.44,24.77-28.73,24.77-28.73l-62.15,11a.44.44,0,0,1-.06-.13Z"/>
            <path class="cls-6" d="M179.13,123.67S172.66,144,154.36,152.4c-.6.17-1.22.32-1.85.46q-1.68.27-3.27.39c13-6.28,19.88-18.56,22.65-24.72a2.19,2.19,0,0,0-2.38-3L117,134.76a.45.45,0,0,1-.06-.12Z"/>
            <path class="cls-7" d="M171.89,128.53c-2.77,6.16-9.64,18.44-22.65,24.72-21.3,1.57-31-16.17-32.2-18.49l52.47-9.27A2.19,2.19,0,0,1,171.89,128.53Z"/>
            <path class="cls-8" d="M120.85,134.23s27.07-4.4,39.25,1.65c2.79,1.44-4.32,10.84-13.25,11.13S124.2,143.54,120.85,134.23Z"/>
            <path class="cls-9" d="M138.79,141.63s1.35-3.27,2.79-3.55,15,0,15.16,1-1.44,5.27-8.93,5.27S138.79,141.63,138.79,141.63Z"/>
            <path class="cls-10" d="M140,137.4s-6.34-1.73-8.26-1.34-3.83.76-4.22,1.34,7.2,3.55,9.31,4.13S140,137.4,140,137.4Z"/>
          </g>
          <g>
            <path class="cls-11" d="M209.68,157.22c.13,14.38-7.38,17-13,18.26a16.61,16.61,0,0,1-9.27-.85,15.93,15.93,0,0,0,7.13.18c5.58-1.29,13.08-3.88,12.95-18.26-1.22-10.24-10-18-15.52-22.52-4.35-3.51-4.8-8.53-4.34-9.9,0-.15.06-.29.08-.41l2.34-.25-.28,1.33c-.46,1.37,0,6.38,4.34,9.89C199.63,139.26,208.46,147,209.68,157.22Z"/>
            <path class="cls-12" d="M207.54,156.55c.13,14.38-7.37,17-12.95,18.26a15.93,15.93,0,0,1-7.13-.18c-.42-.17-.85-.35-1.27-.56a15.52,15.52,0,0,0,6.44,0c5.57-1.29,13.08-3.88,13-18.26-1.22-10.24-10.06-18-15.52-22.53a11.42,11.42,0,0,1-4.45-9.36l2.15-.24c0,.12,0,.26-.08.41-.46,1.37,0,6.39,4.34,9.9C197.49,138.59,206.32,146.31,207.54,156.55Z"/>
            <path class="cls-13" d="M205.58,155.85c.13,14.38-7.38,17-13,18.26a15.52,15.52,0,0,1-6.44,0,14.94,14.94,0,0,1-8.29-10.7c-2.45-11.36,3.84-21.92,6.82-28,2.53-8.35-1.67-11.15-1.67-11.15l2.56-.28a11.42,11.42,0,0,0,4.45,9.36C195.52,137.89,204.36,145.61,205.58,155.85Z"/>
            <g>
              <path class="cls-14" d="M186.69,135.18s-10.22,16.44-7,26.37,7.81,10.84,13.6,9.69,6.49-10.42,4.5-15.85S188.3,136,186.69,135.18Z"/>
              <path class="cls-15" d="M183.88,143s-9.76,18.72,1.94,26.24c1.23.66,1.86-1.65,1.83-1.83S185,145.73,183.88,143Z"/>
            </g>
          </g>
          <g>
            <path class="cls-16" d="M52.33,24.85s-21-11.75-36.53-5.52l-3,6.26s14.25-8,37.63-.14Z"/>
            <path class="cls-17" d="M52.33,24.85s-21-11.75-36.53-5.52l-3,6.26s14.25-8,37.63-.14Z"/>
            <g class="cls-18">
              <g class="cls-19">
                <path class="cls-20" d="M12.8,25.59s14-8.47,37.63-.14l.86-.27s-24.66-10-37.91-.77Z"/>
              </g>
            </g>
            <g class="cls-21">
              <g class="cls-22">
                <path class="cls-23" d="M15.8,19.33s12.17-4.61,28.74,2c0,0-14.81-5.05-28.84-1.72Z"/>
              </g>
            </g>
            <path class="cls-24" d="M79.44,75.69c-45.63-43-32.08-52.38-32.08-52.38-2.49-7.72,11.16-20.09,46.88-9.52,27.37,8.1,31.71,22.15,52.68,58,23.57,40.24,42.44,51.67,45.78,52.56-20.76-4.36-79.21-16.48-113.26-48.61"/>
            <path class="cls-25" d="M79.44,75.69c-45.63-43-32.08-52.38-32.08-52.38-2.49-7.72,11.16-20.09,46.88-9.52,27.37,8.1,31.71,22.15,52.68,58,23.57,40.24,42.44,51.67,45.78,52.56C171.94,119.94,113.49,107.82,79.44,75.69Z"/>
            <path class="cls-16" d="M17,46.19c2.86-13,18.3-23.61,30.37-22.88,0,0-.54,30.2,46.73,61.43,39.06,25.8,77.33,35.2,98.09,39.56a4.79,4.79,0,0,0,.49.11c-14.83-2.27-44.74,10-80.81,10.34C38.37,135.37,13,64.44,17,46.19"/>
            <path class="cls-17" d="M17,46.19c2.86-13,18.3-23.61,30.37-22.88,0,0-.54,30.2,46.73,61.43,39.06,25.8,77.33,35.2,98.09,39.56a4.79,4.79,0,0,0,.49.11c-14.83-2.27-44.74,10-80.81,10.34C38.37,135.37,13,64.44,17,46.19Z"/>
            <g class="cls-26">
              <g class="cls-27">
                <path class="cls-28" d="M106.8,134.61s-.07-.14-.26-.36l-.89-1a30.6,30.6,0,0,1-3.09-4.33,49.6,49.6,0,0,1-3.65-7.75c-1.2-3.16-2.36-6.87-3.52-11.16-.83-3-1.68-6.42-2.57-9.77S91,93.53,90,90.5a37.49,37.49,0,0,0-3.44-7.63,16,16,0,0,0-1.61-2.18l-.3-.31-.22-.23L84.2,80l.18.19.22.22.29.32a16.19,16.19,0,0,1,1.56,2.18,36.9,36.9,0,0,1,3.23,7.56c1,3,1.82,6.32,2.64,9.66s1.62,6.69,2.43,9.75a109.09,109.09,0,0,0,3.51,11.22,47.52,47.52,0,0,0,3.8,7.92,25.6,25.6,0,0,0,3.36,4.42,13.81,13.81,0,0,0,1,1c.23.19.36.27.37.25"/>
              </g>
            </g>
            <g class="cls-26">
              <g class="cls-29">
                <path class="cls-28" d="M58.6,54.63a19.24,19.24,0,0,0,1.09,1.89A19.6,19.6,0,0,1,60.76,59a29.13,29.13,0,0,1,1,3.61,81.64,81.64,0,0,1,1.39,10.63c.34,4.32.58,9.42,1,15.44a136.1,136.1,0,0,0,1.73,13.88A64.32,64.32,0,0,0,70,116.42a40.91,40.91,0,0,0,3,5.73,35.34,35.34,0,0,0,3.18,4.24c.49.57,1,1,1.37,1.48l1.1,1,1,.83-.94-.85c-.3-.29-.66-.65-1.07-1.07s-.87-.91-1.35-1.49a34.62,34.62,0,0,1-3.06-4.26,39.51,39.51,0,0,1-2.89-5.71,63.6,63.6,0,0,1-3.77-13.74c-.81-4.77-1.24-9.51-1.55-13.77-.43-6-.64-11.1-1-15.44a73.3,73.3,0,0,0-1.51-10.76,28.13,28.13,0,0,0-1.15-3.72,17.39,17.39,0,0,0-1.27-2.56c-.84-1.3-1.45-1.8-1.49-1.75"/>
              </g>
            </g>
            <g class="cls-26">
              <g class="cls-30">
                <path class="cls-28" d="M46.65,25.66c-.12.09.32.66.54,2.12a33.6,33.6,0,0,1,.06,6.8c-.2,3.09-.62,7-1.11,11.89s-1,10.66-1.3,17.49a125.8,125.8,0,0,0,.36,15.63c.25,2.69.6,5.36,1.08,7.93a70.65,70.65,0,0,0,1.77,7.35,53.92,53.92,0,0,0,2.3,6.25,50.5,50.5,0,0,0,2.39,4.74c.76,1.29,1.42,2.3,1.89,3l.73,1-.7-1.06c-.45-.69-1.07-1.7-1.8-3A51.48,51.48,0,0,1,50.62,101a55.79,55.79,0,0,1-2.11-6.26,68.21,68.21,0,0,1-1.58-7.32c-.41-2.56-.71-5.21-.9-7.87a137,137,0,0,1-.13-15.51c.31-6.79.9-12.56,1.36-17.42s.86-8.82,1-12a25.38,25.38,0,0,0-.44-7,4.93,4.93,0,0,0-.7-1.62c-.24-.32-.41-.43-.45-.4"/>
              </g>
            </g>
            <g class="cls-26">
              <g class="cls-31">
                <path class="cls-28" d="M115,97.78a6.75,6.75,0,0,0,.68.9,22.45,22.45,0,0,1,1.77,2.82c.71,1.3,1.49,3,2.37,5s1.87,4.42,3.06,7.25c.85,2,1.83,4.24,2.92,6.48a55.2,55.2,0,0,0,3.66,6.46,30.4,30.4,0,0,0,2,2.69,22,22,0,0,0,1.9,2c.58.52,1.07.89,1.4,1.14l.39.27.14.09-.14-.09-.38-.28c-.33-.26-.82-.64-1.38-1.17a21,21,0,0,1-1.83-2,28.37,28.37,0,0,1-1.93-2.67,54.71,54.71,0,0,1-3.46-6.39c-1-2.21-2-4.43-2.8-6.43-1.17-2.81-2.14-5.22-3-7.26a56.12,56.12,0,0,0-2.47-5c-.38-.67-.75-1.24-1.08-1.73a14.12,14.12,0,0,0-.92-1.19c-.54-.61-.87-.84-.89-.81"/>
              </g>
            </g>
            <g class="cls-26">
              <g class="cls-32">
                <path class="cls-28" d="M148.89,113.23c-.06.06,0,.22.13.49s.16.32.27.52.23.46.34.77a12.84,12.84,0,0,1,.69,2.49c.2,1.07.34,2.38.52,3.94a26.45,26.45,0,0,0,.58,3.49,7.34,7.34,0,0,0,1.4,3,4.26,4.26,0,0,0,2.05,1.34l.41.11.32,0,.27.05-.26-.07-.31-.08-.39-.15a4.08,4.08,0,0,1-1.84-1.47,7.75,7.75,0,0,1-1.15-3,33.73,33.73,0,0,1-.43-3.5,39.38,39.38,0,0,0-.49-4,9.73,9.73,0,0,0-.8-2.55,4.49,4.49,0,0,0-.45-.75,4,4,0,0,0-.4-.45c-.25-.2-.4-.26-.46-.2"/>
              </g>
            </g>
            <g class="cls-26">
              <g class="cls-33">
                <path class="cls-28" d="M58.15,53c-.1.14.22.54,1.32.79a13.48,13.48,0,0,0,5.71-.54,85,85,0,0,0,10.6-3.76c4.34-1.77,9.5-4.05,15.49-6.44a140,140,0,0,1,13.53-4.71,53.78,53.78,0,0,1,12.7-2.21,24.58,24.58,0,0,1,8.55,1.07,18.87,18.87,0,0,1,2.17.89l.75.38-.71-.43a21.52,21.52,0,0,0-2.09-1,23.3,23.3,0,0,0-8.4-1.51,50,50,0,0,0-12.71,1.77,120.45,120.45,0,0,0-13.61,4.48c-6,2.33-11.19,4.59-15.51,6.36A107.73,107.73,0,0,1,65.48,52a20.63,20.63,0,0,1-5.61,1c-1.11,0-1.6-.15-1.72,0"/>
              </g>
            </g>
            <g class="cls-26">
              <g class="cls-34">
                <path class="cls-28" d="M77.24,72.42c0,.06.15.1.45.13l.56,0a5.32,5.32,0,0,0,.78,0,21,21,0,0,0,5.23-1.22,62.91,62.91,0,0,0,8.23-3.73c3.24-1.67,7-3.81,11.45-6.11,1.59-.83,3.29-1.65,5.06-2.47s3.6-1.58,5.48-2.26a51.67,51.67,0,0,1,5.7-1.72c.95-.25,1.9-.4,2.84-.57.46-.09.93-.13,1.39-.19s.92-.13,1.37-.14c.91,0,1.78-.14,2.64-.1h1.24c.41,0,.8.06,1.19.09l1.12.1,1.05.16,1,.16.89.2c.56.15,1.07.25,1.5.38l1.11.36.93.31-.92-.35-1.09-.4c-.43-.15-.94-.27-1.5-.43l-.88-.24-1-.19L132,54c-.36-.06-.74-.09-1.13-.14l-1.2-.13-1.27-.06c-.86-.06-1.76,0-2.68,0-.47,0-.93.07-1.4.1s-1,.08-1.43.15c-1,.14-1.95.27-2.92.49A47.06,47.06,0,0,0,114.1,56c-1.94.64-3.82,1.39-5.63,2.16s-3.54,1.6-5.15,2.41C98.77,62.86,95,65,91.81,66.65a80.41,80.41,0,0,1-8,3.8A30.4,30.4,0,0,1,78.87,72a6.67,6.67,0,0,1-.72.15l-.51.11c-.27.07-.41.13-.4.2"/>
              </g>
            </g>
            <g class="cls-26">
              <g class="cls-35">
                <path class="cls-28" d="M96.59,84.89c-.23.26-.07.62.62,1a9.56,9.56,0,0,0,4.36.24A60.5,60.5,0,0,0,111,84c4-1.16,9-2.8,14.55-4.47a106.49,106.49,0,0,1,12.2-3c3.94-.7,7.4-.76,9.85-.08a6.86,6.86,0,0,1,4.52,3.49c.15.35.3.65.41.94s.15.59.2.81l.16.69s0-.28-.08-.77c0-.24-.06-.54-.1-.9s-.19-.66-.3-1.06a6.73,6.73,0,0,0-3.93-4.22c-2.27-1-5.59-1.17-9.42-.7a80.29,80.29,0,0,0-12,2.57c-5.55,1.56-10.45,3.15-14.45,4.32A95.31,95.31,0,0,1,103.13,84c-4.62.86-6,.3-6.54.93"/>
              </g>
            </g>
            <g class="cls-26">
              <g class="cls-36">
                <path class="cls-28" d="M148.13,112.2c0,.12.18.25.65.39a7.35,7.35,0,0,0,2.26.2,13,13,0,0,0,1.72-.2c.63-.13,1.32-.28,2.05-.5,1.47-.41,3.13-1,5.1-1.58a34.88,34.88,0,0,1,4.59-1,28.35,28.35,0,0,1,4.7-.26,33.78,33.78,0,0,1,3.64.33l1.06.18.38.07-.37-.11-1-.27a30,30,0,0,0-3.64-.63,24.63,24.63,0,0,0-4.88-.07,28,28,0,0,0-4.82.83c-2.05.54-3.73,1.12-5.15,1.53a20.27,20.27,0,0,1-3.48.77c-1.83.22-2.72.07-2.77.33"/>
              </g>
            </g>
            <g class="cls-26">
              <g class="cls-37">
                <path class="cls-28" d="M47.85,27.64c-.06.14.35.41,1.33.77a16.82,16.82,0,0,0,4.72.68,41.65,41.65,0,0,0,8.23-.88c3.31-.65,7.18-1.68,11.65-3,6.36-1.88,14-4.42,20.3-5.58,1.57-.31,3-.5,4.37-.65.66-.06,1.29-.12,1.88-.15l1.62,0,1.32,0c.39,0,.71.05,1,.07l.83.08-.83-.13c-.26,0-.59-.1-1-.13L102,18.61l-1.63,0-1.9.05c-1.35.09-2.84.2-4.43.45C87.63,20,79.82,22.19,73.46,24c-4.48,1.26-8.31,2.25-11.56,2.9a48.94,48.94,0,0,1-8,1c-4.16.11-6-.61-6.07-.25"/>
              </g>
            </g>
            <g class="cls-26">
              <g class="cls-38">
                <path class="cls-28" d="M115.29,98.71c-.18.22,0,.54.61.9a8.78,8.78,0,0,0,3.84.51,49.34,49.34,0,0,0,8.1-1.2c3.45-.73,7.66-1.82,12.45-2.88a85,85,0,0,1,10.48-1.78,21.28,21.28,0,0,1,8.63.62,7.45,7.45,0,0,1,4.21,3.35c.15.32.31.58.42.85s.17.51.23.71l.2.61s0-.24-.13-.67l-.15-.79c-.08-.29-.21-.59-.33-.94a7.35,7.35,0,0,0-3.75-4,18.19,18.19,0,0,0-8.31-1.27,65.56,65.56,0,0,0-10.35,1.4c-4.76,1-8.95,2-12.37,2.75A76.54,76.54,0,0,1,121,98.36c-4,.43-5.23-.15-5.67.35"/>
              </g>
            </g>
            <path class="cls-28" d="M47.36,23.31a27.08,27.08,0,0,0,.52,5.76,44.79,44.79,0,0,0,1.4,5.59,59.41,59.41,0,0,0,4.51,10.53A84.61,84.61,0,0,0,67.53,63.43c10.68,11,23.52,19.62,36.94,27,.82.49,1.68.94,2.53,1.38l2.55,1.33,2.56,1.34,1.28.67,1.3.62,5.21,2.47c.87.41,1.73.84,2.61,1.23l2.65,1.15,5.28,2.33c.88.4,1.77.76,2.67,1.12l2.68,1.07,5.37,2.16c1.79.7,3.61,1.35,5.41,2,14.47,5.4,29.23,10,44.09,14.51a356.19,356.19,0,0,1-45.08-11.7c-1.84-.62-3.7-1.2-5.53-1.85l-5.47-2-2.74-1c-.91-.34-1.82-.68-2.72-1.06l-5.4-2.24-2.7-1.12c-.9-.39-1.77-.82-2.66-1.22l-5.3-2.48-1.33-.62-1.3-.66-2.61-1.34-2.61-1.34c-.86-.44-1.74-.88-2.58-1.38l-5.08-2.92-1.27-.73L95,89.37,92.55,87.8c-1.65-1-3.32-2.07-4.91-3.22s-3.23-2.21-4.79-3.4l-4.64-3.61c-1.52-1.25-3-2.55-4.48-3.82-.76-.63-1.45-1.32-2.17-2l-2.13-2c-.72-.66-1.39-1.39-2.06-2.11l-2-2.15c-.68-.7-1.29-1.48-1.93-2.23L61.53,61c-.61-.77-1.18-1.57-1.78-2.35l-.88-1.19A14.48,14.48,0,0,1,58,56.23c-1.08-1.65-2.2-3.26-3.14-5S53,47.79,52.13,46a58,58,0,0,1-3.87-11.1,34.53,34.53,0,0,1-.9-11.62"/>
            <g class="cls-21">
              <g class="cls-39">
                <path class="cls-40" d="M47.23,21.09S92.65-2.3,125.16,39.45c7.16,9.19,11.54,27.19,18.62,36.46,34.78,45.51,31.94,35.1,44.17,45.8,0,0-17.25-12.38-35.56-42.13,0,0-16-27.56-19-32-9.55-14.26-12.12-26-39.6-34.45,0,0-39.66-11.93-46.55,7.94"/>
              </g>
            </g>
            <g class="cls-18">
              <g class="cls-41">
                <path class="cls-20" d="M38.77,25.06S14,40.32,29,77.19c0,0,33.46,62,91.35,54.35,0,0,55-9.4,63-7.66,0,0-12.48,1.24-33.38,6.78,0,0-44.85,9.11-67.67-.28,0,0-39.19-5.93-60.44-56.7,0,0-19.13-35.18,16.87-48.62"/>
              </g>
            </g>
          </g>
          <g>
            <path class="cls-42" d="M113.45,66c-1.31,6.46-5.45,16.81-28,19.74C71.88,87.5,63.52,83.29,59,79.67a10.91,10.91,0,0,1-4-7.37c3.53,4.24,13.76,13,35.23,8,18.2-5.16,20.14-9.58,22.21-18.88A7.1,7.1,0,0,1,113.45,66Z"/>
            <path class="cls-43" d="M91.42,48c-9.46-.48-33.56-.49-36.36,21.89a10.58,10.58,0,0,0,0,2.45c3.53,4.24,13.76,13,35.23,8,18.2-5.16,20.14-9.58,22.21-18.88h0C109.26,55.29,99.4,48.37,91.42,48Zm16.17,16.79c-8.3,9.9-34.73,10-34.73,10-4.94,1.26-11.8-1.9-13.25-5.06s-2.06-14,12.83-18.4a45.61,45.61,0,0,1,28.74.76C103.49,52.89,109.3,60.14,107.59,64.75Z"/>
            <path class="cls-14" d="M101.18,52a45.61,45.61,0,0,0-28.74-.76c-14.89,4.36-14.29,15.24-12.83,18.4S67.92,76,72.86,74.74c0,0,26.43-.09,34.73-10C109.3,60.14,103.49,52.89,101.18,52ZM84.64,60.43c-3.82,2-16.67,4.17-19.5,2.65s-.41-7.25,5.26-9.62,16.74-4.77,21.16-1.28C91.56,52.18,88.46,58.45,84.64,60.43Zm9.69-.74c-4.28.73-6.59-.12-5.87-1.24s4.28-6.14,4.28-6.14c3,.33,6.4,1.91,6.2,3.69S98.62,59,94.33,59.69Z"/>
            <path class="cls-44" d="M91.56,52.18s-3.1,6.27-6.92,8.25S68,64.6,65.14,63.08s-.41-7.25,5.26-9.62S87.14,48.69,91.56,52.18Z"/>
            <path class="cls-45" d="M98.94,56c-.19,1.78-.32,3-4.61,3.69s-6.59-.12-5.87-1.24,4.28-6.14,4.28-6.14C95.71,52.64,99.14,54.22,98.94,56Z"/>
          </g>
        </g>
      </g>
    </g>
  </g>
</svg>
