<svg id="Layer_1" data-name="Layer 1" xmlns="http://www.w3.org/2000/svg" width="623" height="456" viewBox="0 0 623 456">
  <defs>
    <style>
      .cls-1 {
        fill: #8d8e8d;
      }

      .cls-2 {
        fill: #ff0;
      }

      .cls-3 {
        fill: #8436ff;
      }
    </style>
  </defs>
  <g>
    <path class="cls-1" d="M428.24,165.48q-16.78-22.08-33.36-43.72t-23-29q-11.18-13-22.38-19t-20.23-6.06a67.55,67.55,0,0,0-14,1.51q-7.11,1.52-7.11,4.53,0,2.58,8,17.67T326.66,109q6-1.71,12.48-3.88t9-2.15a25.86,25.86,0,0,1,12.91,3.67,52.88,52.88,0,0,1,11.62,8.88q6.9,6.94,19.8,22.15,14.64,17.37,22.38,27.8H355.63l.08.15H303.42v23.84h39v74.47H278.25c6.9-10.95,15.57-32.3,14.22-44.81-.7-6.47-1.35-12.52-4-18s-7.73-11.67-15.09-18.45A85,85,0,0,0,249.53,167q-12.76-5.5-20.84-5.51A68.68,68.68,0,0,0,207,165.27c-7.65,2.56-21.6,9.57-31,14.39l8.51,17.88c2,3.41,4.1,5.11,6.38,5.11,8.21-4.26,21.88-12,30.1-16.52q13.17-6,23-6,11.48,0,18.49,7c4.68,4.68,7.06,16.48,8.08,24.64,1.19,9.49,1.19,26.69-10.84,39.59-3.37,4.89-9.64,8.52-13.6,8.52q-11.07,1.69-19.77,2.76a118.56,118.56,0,0,1-13.82,1.07q-7.23,0-7.23,7.24,0,3,8.08,11.92t11.05,8.94c2.27,0,31.49-7.78,38.67-4.67,34.52,15,30.05,50.41,12.65,67.76-6.67,6.75-17.17,10.67-33.46,9.55-14.42-1-24.62-5.12-35.81-15.48s-32.94-43-42.86-65.44L152.15,290c12.47,27.11,34.52,63.79,49.12,77.63s30.54,20.76,47.83,20.76q25.52,0,41.45-14.08c17.78-17,25.91-41.47,16.44-68.75-1.05-3-4.95-12.22-8.92-17.6h44.35V388.31l25.51-.1V189.47h37.84l-.08-.14h1.81v199H433v-199h37.84V165.48Z"/>
    <path class="cls-2" d="M473.37,163a3.61,3.61,0,0,0-2.52-1H430c-10.94-14.39-21.8-28.62-32.29-42.33-11-14.38-18.8-24.2-23.16-29.17-7.71-9-15.58-15.63-23.38-19.86s-15.33-6.49-21.93-6.49a70.83,70.83,0,0,0-14.73,1.59c-2.45.52-9.92,2.11-9.92,8,0,1.67.65,4.69,8.38,19.33,7.29,13.8,9.8,17.15,11.17,18.53a3.56,3.56,0,0,0,2.52,1,3.67,3.67,0,0,0,1-.13c4-1.15,8.27-2.47,12.63-3.93,5.34-1.78,7.31-2,7.91-2a22.59,22.59,0,0,1,11.15,3.2A50.46,50.46,0,0,1,370.19,118c4.46,4.5,11.05,11.89,19.6,21.94,7.21,8.56,13.2,15.91,17.91,21.95H355.63a3.72,3.72,0,0,0-1,.14H303.42a3.56,3.56,0,0,0-3.56,3.57v23.84a3.56,3.56,0,0,0,3.56,3.56h35.44v67.35H284.4c6.22-11.79,12.88-29.87,11.61-41.65-.73-6.75-1.42-13.12-4.38-19.2-2.89-5.89-8.23-12.45-15.88-19.5a88.91,88.91,0,0,0-24.81-16.35c-9.05-3.9-16.33-5.8-22.25-5.8a72.55,72.55,0,0,0-22.81,4c-6,2-16.3,6.78-31.46,14.6a3.56,3.56,0,0,0-1.58,4.7l8.5,17.88a2.15,2.15,0,0,0,.14.26c2.65,4.57,5.83,6.88,9.46,6.88a3.42,3.42,0,0,0,1.63-.4c6.22-3.22,15.63-8.46,23.2-12.67l6.87-3.82c8.23-3.71,15.41-5.59,21.36-5.59,6.73,0,12,2,16,6,3,3,5.68,11.48,7.07,22.56,1.07,8.6,1.21,24.79-9.91,36.72a3.29,3.29,0,0,0-.33.41c-2.94,4.26-8.28,7-10.67,7a3.31,3.31,0,0,0-.55.05c-7.37,1.13-14,2.06-19.66,2.75a116.82,116.82,0,0,1-13.38,1c-6.76,0-10.79,4-10.79,10.8,0,2.26,1.09,5.56,9,14.3s11.32,10.12,13.69,10.12c.89,0,2.28-.29,6.52-1.2,7.32-1.57,19.56-4.2,26.94-4.2a10.59,10.59,0,0,1,3.79.44c13,5.63,21,14.74,23.18,26.35,2.32,12.28-2.24,26.26-11.64,35.63-5.77,5.85-14.15,8.69-25.6,8.69-1.63,0-3.34-.06-5.09-.18-13.93-1-23.36-5-33.63-14.55s-31.78-41.11-42-64.26a3.58,3.58,0,0,0-2.13-1.94,3.66,3.66,0,0,0-1.13-.18,3.54,3.54,0,0,0-1.73.45l-11.48,6.38a3.57,3.57,0,0,0-1.5,4.6c12.59,27.39,34.7,64.32,49.9,78.73S231,391.93,249.1,391.93c17.82,0,32.56-5,43.81-15l.1-.09c20.3-19.36,26.62-45.78,17.34-72.5a95.83,95.83,0,0,0-5.86-12.87h34.37v96.81a3.57,3.57,0,0,0,3.56,3.56l25.53-.1a3.56,3.56,0,0,0,3.54-3.56V193h32.45V388.31a3.56,3.56,0,0,0,3.56,3.56H433a3.56,3.56,0,0,0,3.56-3.56V192.89h34.28a3.57,3.57,0,0,0,3.56-3.56V165.48A3.61,3.61,0,0,0,473.37,163Zm-2.52,26.37H433v199H407.5v-199h-1.81l.08.14H367.93V388.21l-25.51.1V287.94H298.07c4,5.38,7.87,14.6,8.92,17.6,9.47,27.28,1.34,51.8-16.44,68.75q-15.93,14.08-41.45,14.08-25.93,0-47.83-20.76c-14.6-13.84-36.65-50.52-49.12-77.63l11.48-6.38c9.92,22.42,31.66,55.08,42.86,65.44s21.39,14.5,35.81,15.48c16.29,1.12,26.79-2.8,33.46-9.55,17.4-17.35,21.87-52.76-12.65-67.76-7.18-3.11-36.4,4.67-38.67,4.67q-3,0-11.05-8.94T205.31,271q0-7.25,7.23-7.24a118.56,118.56,0,0,0,13.82-1.07q8.7-1.05,19.77-2.76c4,0,10.23-3.63,13.6-8.52,12-12.9,12-30.1,10.84-39.59-1-8.16-3.4-20-8.08-24.64s-10.84-7-18.49-7q-9.78,0-23,6c-8.22,4.55-21.89,12.26-30.1,16.52-2.28,0-4.4-1.7-6.38-5.11l-8.51-17.88c9.36-4.82,23.31-11.83,31-14.39a68.68,68.68,0,0,1,21.68-3.83q8.09,0,20.84,5.51a85,85,0,0,1,23.81,15.7q11,10.17,15.09,18.45c2.69,5.51,3.34,11.56,4,18,1.35,12.51-7.32,33.86-14.22,44.81h64.17V189.47h-39V165.63h52.29l-.08-.15h59.26q-7.74-10.42-22.38-27.8-12.92-15.2-19.8-22.15a52.88,52.88,0,0,0-11.62-8.88A25.86,25.86,0,0,0,348.18,103q-2.58,0-9,2.15T326.66,109q-2.58-2.58-10.55-17.67t-8-17.67q0-3,7.11-4.53a67.55,67.55,0,0,1,14-1.51q9,0,20.23,6.06t22.38,19q6.47,7.37,23,29t33.36,43.72h42.61Z"/>
    <path class="cls-3" d="M428.24,165.48q-16.78-22.08-33.36-43.72t-23-29q-11.18-13-22.38-19t-20.23-6.06a67.55,67.55,0,0,0-14,1.51q-7.11,1.52-7.11,4.53,0,2.58,8,17.67T326.66,109q6-1.71,12.48-3.88t9-2.15a25.86,25.86,0,0,1,12.91,3.67,52.88,52.88,0,0,1,11.62,8.88q6.9,6.94,19.8,22.15,14.64,17.37,22.38,27.8H355.63l.08.15H303.42v23.84h39v74.47H278.25c6.9-10.95,15.57-32.3,14.22-44.81-.7-6.47-1.35-12.52-4-18s-7.73-11.67-15.09-18.45A85,85,0,0,0,249.53,167q-12.76-5.5-20.84-5.51A68.68,68.68,0,0,0,207,165.27c-7.65,2.56-21.6,9.57-31,14.39l8.51,17.88c2,3.41,4.1,5.11,6.38,5.11,8.21-4.26,21.88-12,30.1-16.52q13.17-6,23-6,11.48,0,18.49,7c4.68,4.68,7.06,16.48,8.08,24.64,1.19,9.49,1.19,26.69-10.84,39.59-3.37,4.89-9.64,8.52-13.6,8.52q-11.07,1.69-19.77,2.76a118.56,118.56,0,0,1-13.82,1.07q-7.23,0-7.23,7.24,0,3,8.08,11.92t11.05,8.94c2.27,0,31.49-7.78,38.67-4.67,34.52,15,30.05,50.41,12.65,67.76-6.67,6.75-17.17,10.67-33.46,9.55-14.42-1-24.62-5.12-35.81-15.48s-32.94-43-42.86-65.44L152.15,290c12.47,27.11,34.52,63.79,49.12,77.63s30.54,20.76,47.83,20.76q25.52,0,41.45-14.08c17.78-17,25.91-41.47,16.44-68.75-1.05-3-4.95-12.22-8.92-17.6h44.35V388.31l25.51-.1V189.47h37.84l-.08-.14h1.81v199H433v-199h37.84V165.48Z"/>
  </g>
</svg>
