<svg id="Layer_1" data-name="Layer 1" xmlns="http://www.w3.org/2000/svg" width="623" height="456" viewBox="0 0 623 456">
  <defs>
    <style>
      .cls-1 {
        fill: #ff0;
      }

      .cls-2 {
        fill: #8436ff;
      }
    </style>
  </defs>
  <g>
    <path class="cls-1" d="M340.05,405.85a3.94,3.94,0,0,1-.84-.1A3.53,3.53,0,0,1,337,404c-5.62-10.29-12.11-26.18-16.85-37.79-1.74-4.26-3.52-8.63-4.64-11.13-4.65.46-10,.7-15.44.7-8.23,0-20.19-.57-30.45-3.27-19.28-5.1-31.35-18.86-29.36-33.45,1.49-10.88,11.26-22.64,34.24-23h.78a42.14,42.14,0,0,1,12.46,1.85,44.9,44.9,0,0,1,11.07,5.21,61.23,61.23,0,0,1,9.75,7.9,99.48,99.48,0,0,1,8.81,10c1.12,1.44,2.25,2.95,3.44,4.59.74-.31,1.45-.62,2.13-.95a22.86,22.86,0,0,0,4.41-2.7,33,33,0,0,0,5-5.57,46.92,46.92,0,0,0,4.71-7.48c.39-.77.76-1.55,1.1-2.34A53.78,53.78,0,0,0,341.87,293c.18-1.23.38-2.67.47-4.06.12-1.57.19-2.34.24-2.88,0-.39.05-.62.07-1,0-.72.06-1.09.08-1.35s0-.39,0-.8c0-3.09-.49-4.42-2.45-6.45-1.32-1.37-3.24-2-5.72-2.44a12.46,12.46,0,0,0-2.32-.2,35.7,35.7,0,0,0-6.11.7,88.12,88.12,0,0,0-8.79,2.19l-.89.25a65,65,0,0,1-8.75,2,103.93,103.93,0,0,1-11,1c-1,0-2.1.06-3.16.07h-.62c-2.7,0-5.34-.11-7.85-.34a70.25,70.25,0,0,1-9-1.4,53.48,53.48,0,0,1-9-2.89,40.33,40.33,0,0,1-8.46-4.86l-1-.76c-7.68-6.22-18.26-22.4-15.91-41.47A47.18,47.18,0,0,1,261,195.28c9.72-7,23.44-10.51,40.8-10.51a150.8,150.8,0,0,1,19.74,1.38V175.07H226.18a3.5,3.5,0,0,1-2.49-1,3.57,3.57,0,0,1-1-2.51V149.24a3.54,3.54,0,0,1,3.53-3.54h89.18c-2.62-4.35-5-8.64-7.19-12.82-9.19-17.51-13.67-31.5-13.67-42.76,0-10.42,4.53-19.81,13.46-27.92s19-12.05,30.36-12.05a39.22,39.22,0,0,1,24.79,8.46C372.19,65.9,379.2,77.43,384,92.92a3.59,3.59,0,0,1-.28,2.76,3.52,3.52,0,0,1-2.16,1.71L372.21,100a3.31,3.31,0,0,1-.93.13,3.52,3.52,0,0,1-3.1-1.87c-4-7.51-7.89-12.75-11.57-15.57a18.81,18.81,0,0,0-11.87-4c-5.85,0-10.68,2.32-14.77,7.12A25.4,25.4,0,0,0,323.69,103c0,7.2,2.72,17.25,8.07,29.89,1.57,3.83,3.51,8.13,5.77,12.84h59.29a3.54,3.54,0,0,1,3.52,3.54v22.28a3.56,3.56,0,0,1-1,2.51,3.5,3.5,0,0,1-2.49,1H351v31.79c.23,3.16-.83,8.77-6.23,10.64a16.74,16.74,0,0,1-5.44.84,27.75,27.75,0,0,1-8.27-1.4,170.65,170.65,0,0,0-35.45-3.9c-11.93,0-20.54,1.66-24.9,4.79a19,19,0,0,0-6.5,13.07c-.66,9.73,2.7,14,4.76,15.68s5.53,2.59,8.85,3.23a81,81,0,0,0,12.08,1.3c2.6.11,4.58.16,6.44.16,1.52,0,2.9,0,4.24-.1,1,0,2-.13,3-.22a81.3,81.3,0,0,0,10-1.67l.45-.1c3-.69,5.4-1.24,8.69-1.81.88-.15,3.28-.49,4.38-.56,1.38-.1,2.54-.17,3.73-.17a24,24,0,0,1,4.24.35,43.67,43.67,0,0,1,9.91,2.63,46.55,46.55,0,0,1,7.86,3.66,25.08,25.08,0,0,1,6.23,4.91,34.12,34.12,0,0,1,4.64,6.1,53.71,53.71,0,0,1,3.93,8.78c.21.59.37,1,.49,1.34a18.72,18.72,0,0,1,1,3.57l.11.52a53.24,53.24,0,0,1,1.3,9.91,78.08,78.08,0,0,1-.76,13.37A71.36,71.36,0,0,1,367,314.22a63.77,63.77,0,0,1-4.91,11.19,60.16,60.16,0,0,1-6.94,9.87,59.45,59.45,0,0,1-8.81,8.26l-1.22.9a61.6,61.6,0,0,1-8.79,5.27c.14.22,1.78,2.94,1.78,2.94,7.16,11.84,14.55,24.05,23,35.3a3.52,3.52,0,0,1,.67,2.73,3.56,3.56,0,0,1-1.52,2.37L342,405.26A3.51,3.51,0,0,1,340.05,405.85ZM272.63,323c.59.72,1.58,1.54,4.81,2.39a118.64,118.64,0,0,0,15.66,2.89c-10-7.34-15.21-8.62-17.66-8.62-1.84,0-2.32.73-2.47,1A3.21,3.21,0,0,0,272.63,323Z"/>
    <path class="cls-2" d="M396.82,171.52V149.25H335.33q-4.08-8.35-6.81-15-8.36-19.71-8.35-31.28a29.15,29.15,0,0,1,7.12-19.49q7.14-8.36,17.45-8.36a22.39,22.39,0,0,1,14,4.71q6.15,4.73,12.53,16.71L380.62,94Q373.73,71.7,361,61.41a35.58,35.58,0,0,0-22.6-7.71h0q-15.72,0-28,11.14T298.05,90.12q0,15.85,13.27,41.13,4.56,8.82,10.42,18H226.2l0,22.27h98.9v18.72c-17-2.66-44.8-4.43-62,7.93a43.81,43.81,0,0,0-17.88,30.6c-2.07,16.79,6.89,32,14.62,38.27l.88.69a36.84,36.84,0,0,0,7.72,4.43,49.35,49.35,0,0,0,8.44,2.69,65,65,0,0,0,8.57,1.33c2.7.24,5.42.34,8.13.33,1,0,2,0,3-.07a100.27,100.27,0,0,0,10.66-1,65.09,65.09,0,0,0,8.29-1.91c3.32-.94,6.62-1.92,10-2.53,3.07-.54,6.61-1.08,9.7-.49s5.61,1.39,7.6,3.46c2.76,2.86,3.46,5.14,3.44,8.94,0,.92,0,.72-.11,2.29,0,1-.11,1.13-.31,4-.1,1.45-.29,2.89-.5,4.33a56.77,56.77,0,0,1-4,14.41c-.37.85-.76,1.69-1.18,2.52a49.71,49.71,0,0,1-5.07,8,36.07,36.07,0,0,1-5.57,6.15,27,27,0,0,1-5.09,3.13c-.92.46-1.87.85-2.83,1.26-.75.32-1.86,1.2-2.52.27h0l-.49-.71c-1.31-1.84-2.66-3.67-4.06-5.46a96.66,96.66,0,0,0-8.49-9.63,57.57,57.57,0,0,0-9.19-7.45,41.33,41.33,0,0,0-10.21-4.81,38.62,38.62,0,0,0-11.42-1.7h-.72c-20.75.36-29.52,10.55-30.81,20-1.74,12.76,9.27,24.91,26.77,29.54,14.94,3.94,35.83,3.58,47,2.21,2.35,3.76,13.68,34.79,22.53,51l18.27-12.21c-8.61-11.4-16.05-23.7-23.24-35.59-1.31-2.15-2.59-4.28-3.87-6.37A58.83,58.83,0,0,0,343,341.55q.58-.41,1.14-.84a55.09,55.09,0,0,0,14.81-17,59.31,59.31,0,0,0,4.64-10.56,68,68,0,0,0,2.74-11.82,74.61,74.61,0,0,0,.73-12.76,50.64,50.64,0,0,0-1.22-9.25,22.44,22.44,0,0,0-1.48-5,49.92,49.92,0,0,0-3.67-8.22,30.22,30.22,0,0,0-4.09-5.39,22.34,22.34,0,0,0-5.58-4.39,44.39,44.39,0,0,0-7.27-3.36,40.09,40.09,0,0,0-9.25-2.44,28.18,28.18,0,0,0-7.13-.15c-.89.07-3.15.38-4,.53-3.35.58-5.67,1.12-8.95,1.87A83.88,83.88,0,0,1,304,254.47q-1.59.17-3.18.24c-3.66.19-7.33.1-11-.05a85.8,85.8,0,0,1-12.59-1.37c-3.58-.69-7.58-1.65-10.41-3.95-1.72-1.4-6.9-6.26-6-18.69.55-8.11,5.43-13.88,8-15.71,13.42-9.65,53-4.08,63.4-1.4,0,0,6.45,2.37,11.55.6,4.37-1.51,3.86-7.14,3.86-7.14V171.52ZM276.55,328.78c-3.72-1-5.5-2.11-6.79-3.74-2.57-3.27-.16-22.19,34.2,7.38C298.66,331.86,293.76,333,276.55,328.78Z"/>
  </g>
</svg>
