<svg id="Layer_1" data-name="Layer 1" xmlns="http://www.w3.org/2000/svg" width="623" height="456" viewBox="0 0 623 456">
  <defs>
    <style>
      .cls-1 {
        fill: #8d8e8d;
      }

      .cls-2 {
        fill: #f3ff00;
      }

      .cls-3 {
        fill: #8436ff;
      }
    </style>
  </defs>
  <g>
    <path class="cls-1" d="M337.58,135.94h128.3V112.61H157.12l.09,23.33H298v69.81q-7.06-5.06-14.79-10.66-11.46-8.34-18.12-13.75-8.34-6.66-14.58-8.53a57.88,57.88,0,0,0-16.24-1.88,127.18,127.18,0,0,0-17.92,1.25q-16.67,3.34-33.32,6.25l17.49,22.91q15-3.75,24-5.42a97.55,97.55,0,0,1,17.7-1.66q8.33,0,19.58,5.41t30.41,18.75L198,281.32l19.48,17L298,241.8v97.77h25V228q9.11,3.3,12.91,4.23a45.22,45.22,0,0,0,10.83,1.23q6.25,0,18.12-5.06t16.46-8.28q10.83,20.83,10.83,26.67,0,3.33-9.58,7.49Q363,263,353.41,270.49q-11.67,9.17-11.67,20.83,0,21.24,22.91,37.49,20.42,14.58,41.66,14.58,20.4,0,42.49-15l-20-18.74q-6.24,5.84-17.07,10.62t-20.42,4.79q-12.07,0-19.57-6.25t-7.5-15q0-9.57,5-14.58t20.14-11.66A144.63,144.63,0,0,0,409.14,268q10.92-6.66,10.92-11.66,0-3.33-8.5-20.83-5.54-11.25-12.75-24.58,1.67-.82,12.08-7.5,9.17-6.66,9.17-10.41,0-5.41-5.83-8.75A143.32,143.32,0,0,0,393,172.81q-13.34-6-18.33-6c-1.66,0-3.68.76-6,2.29a7.27,7.27,0,0,0-3.54,6.45c0,2,.83,5.07,2.5,9.38s3.19,8.12,4.58,11.45a110.74,110.74,0,0,1-20.62,13.45q-10.62,5.29-17.7,5.3a60.63,60.63,0,0,1-10.83-.92V135.94Z"/>
    <path class="cls-2" d="M465.88,109.45H157.12a3.16,3.16,0,0,0-3.16,3.18l.09,23.32a3.16,3.16,0,0,0,3.16,3.15H294.85v60.49c-3.19-2.29-6.46-4.66-9.77-7.06-7.54-5.48-13.59-10.07-18-13.66-5.93-4.74-11.05-7.72-15.64-9.09a61,61,0,0,0-17.15-2,130.21,130.21,0,0,0-18.36,1.28l-.18,0c-11.06,2.22-22.25,4.31-33.24,6.23a3.17,3.17,0,0,0-2,5L198,203.26a3.18,3.18,0,0,0,2.52,1.24,3.29,3.29,0,0,0,.76-.09c9.88-2.47,17.87-4.28,23.77-5.38a94.11,94.11,0,0,1,17.12-1.61c5,0,11.17,1.72,18.21,5.1,6.55,3.16,15.33,8.49,26.15,15.86l-90.27,60.31a3.16,3.16,0,0,0-.33,5l19.49,17a3.16,3.16,0,0,0,3.89.21l75.52-53.06v91.68a3.16,3.16,0,0,0,3.16,3.16h25a3.16,3.16,0,0,0,3.16-3.16V232.44c4,1.4,7,2.33,9,2.82a48.69,48.69,0,0,0,11.58,1.32c4.65,0,11-1.74,19.36-5.31a134.23,134.23,0,0,0,14-6.68c7.52,14.81,8.84,20.13,8.9,22-.18.33-1.35,2-7.7,4.75-13.23,5.9-23.26,11.5-29.83,16.64-8.54,6.71-12.87,14.56-12.87,23.32,0,15.18,8.16,28.66,24.24,40.06,14.09,10.07,28.72,15.17,43.49,15.17,14.18,0,29.08-5.23,44.27-15.54a3.16,3.16,0,0,0,.38-4.92l-20-18.75a3.18,3.18,0,0,0-2.17-.86,3.13,3.13,0,0,0-2.15.86c-3.89,3.63-9.34,7-16.2,10a47.72,47.72,0,0,1-19.14,4.52c-7.25,0-13.16-1.86-17.55-5.52s-6.36-7.68-6.36-12.57c0-5.48,1.38-9.63,4.1-12.33,3.07-3,9.52-6.74,19.16-11a148.84,148.84,0,0,0,20.13-9.79c8.48-5.17,12.43-9.74,12.43-14.36,0-2-1.05-6.21-8.83-22.23-3.32-6.77-7.13-14.16-11.34-22,1.8-1.1,4.72-2.93,9.55-6l.15-.11c7.24-5.26,10.47-9.26,10.47-13,0-3.28-1.27-7.92-7.31-11.43a148.36,148.36,0,0,0-21.63-11.66c-9.53-4.31-15.77-6.32-19.63-6.32-2.31,0-4.84.92-7.76,2.8a10.42,10.42,0,0,0-5,9.11c0,2.4.86,5.74,2.71,10.52,1.36,3.5,2.58,6.58,3.7,9.33a107.2,107.2,0,0,1-18.2,11.6c-6.6,3.29-12.08,5-16.29,5a60.92,60.92,0,0,1-7.67-.46V139.1H465.88a3.16,3.16,0,0,0,3.16-3.16V112.61A3.17,3.17,0,0,0,465.88,109.45Zm0,26.49H323v78.23a60.63,60.63,0,0,0,10.83.92q7.08,0,17.7-5.3a110.74,110.74,0,0,0,20.62-13.45q-2.08-5-4.58-11.45c-1.67-4.31-2.5-7.43-2.5-9.38a7.27,7.27,0,0,1,3.54-6.45c2.36-1.53,4.38-2.29,6-2.29q5,0,18.33,6a143.32,143.32,0,0,1,21.25,11.45q5.82,3.35,5.83,8.75,0,3.75-9.17,10.41-10.41,6.68-12.08,7.5,7.23,13.34,12.75,24.58,8.49,17.49,8.5,20.83,0,5-10.92,11.66a144.63,144.63,0,0,1-19.72,9.58q-15.12,6.68-20.14,11.66t-5,14.58q0,8.76,7.5,15t19.57,6.25q9.58,0,20.42-4.79t17.07-10.62l20,18.74q-22.08,15-42.49,15-21.24,0-41.66-14.58-22.9-16.24-22.91-37.49,0-11.65,11.67-20.83,9.57-7.5,29.16-16.25,9.57-4.16,9.58-7.49,0-5.83-10.83-26.67-4.59,3.24-16.46,8.28t-18.12,5.06a45.22,45.22,0,0,1-10.83-1.23q-3.8-.93-12.91-4.23V339.57H298V241.8l-80.49,56.56-19.48-17,94.14-62.9Q273,205.09,261.77,199.67t-19.58-5.41a97.55,97.55,0,0,0-17.7,1.66q-9,1.68-24,5.42L183,178.43q16.65-2.91,33.32-6.25a127.18,127.18,0,0,1,17.92-1.25,57.88,57.88,0,0,1,16.24,1.88q6.25,1.88,14.58,8.53,6.66,5.41,18.12,13.75,7.72,5.61,14.79,10.66V135.94H157.21l-.09-23.33H465.88Z"/>
    <path class="cls-3" d="M337.58,135.94h128.3V112.61H157.12l.09,23.33H298v69.81q-7.06-5.06-14.79-10.66-11.46-8.34-18.12-13.75-8.34-6.66-14.58-8.53a57.88,57.88,0,0,0-16.24-1.88,127.18,127.18,0,0,0-17.92,1.25q-16.67,3.34-33.32,6.25l17.49,22.91q15-3.75,24-5.42a97.55,97.55,0,0,1,17.7-1.66q8.33,0,19.58,5.41t30.41,18.75L198,281.32l19.48,17L298,241.8v97.77h25V228q9.11,3.3,12.91,4.23a45.22,45.22,0,0,0,10.83,1.23q6.25,0,18.12-5.06t16.46-8.28q10.83,20.83,10.83,26.67,0,3.33-9.58,7.49Q363,263,353.41,270.49q-11.67,9.17-11.67,20.83,0,21.24,22.91,37.49,20.42,14.58,41.66,14.58,20.4,0,42.49-15l-20-18.74q-6.24,5.84-17.07,10.62t-20.42,4.79q-12.07,0-19.57-6.25t-7.5-15q0-9.57,5-14.58t20.14-11.66A144.63,144.63,0,0,0,409.14,268q10.92-6.66,10.92-11.66,0-3.33-8.5-20.83-5.54-11.25-12.75-24.58,1.67-.82,12.08-7.5,9.17-6.66,9.17-10.41,0-5.41-5.83-8.75A143.32,143.32,0,0,0,393,172.81q-13.34-6-18.33-6c-1.66,0-3.68.76-6,2.29a7.27,7.27,0,0,0-3.54,6.45c0,2,.83,5.07,2.5,9.38s3.19,8.12,4.58,11.45a110.74,110.74,0,0,1-20.62,13.45q-10.62,5.29-17.7,5.3a60.63,60.63,0,0,1-10.83-.92V135.94Z"/>
  </g>
</svg>
