<svg xmlns="http://www.w3.org/2000/svg" xmlns:xlink="http://www.w3.org/1999/xlink" width="231.15" height="167.61" viewBox="0 0 231.15 167.61">
  <defs>
    <style>
      .cls-1 {
        mask: url(#mask);
        filter: url(#luminosity-noclip-5);
      }

      .cls-13, .cls-2, .cls-26, .cls-33, .cls-4, .cls-44, .cls-45, .cls-51, .cls-6, .cls-68, .cls-76, .cls-8, .cls-81 {
        mix-blend-mode: multiply;
      }

      .cls-2 {
        fill: url(#radial-gradient);
      }

      .cls-3 {
        mask: url(#mask-2);
        filter: url(#luminosity-noclip-14);
      }

      .cls-4 {
        fill: url(#radial-gradient-2);
      }

      .cls-5 {
        mask: url(#mask-3);
        filter: url(#luminosity-noclip-25);
      }

      .cls-6 {
        fill: url(#radial-gradient-3);
      }

      .cls-7 {
        mask: url(#mask-4);
        filter: url(#luminosity-noclip-8);
      }

      .cls-8 {
        fill: url(#radial-gradient-4);
      }

      .cls-9 {
        isolation: isolate;
      }

      .cls-10, .cls-45, .cls-53 {
        opacity: 0.3;
      }

      .cls-11 {
        fill: #f9f9f9;
      }

      .cls-12 {
        fill: #dcae50;
        stroke-width: 2px;
      }

      .cls-12, .cls-55 {
        stroke: #886a29;
        stroke-miterlimit: 10;
      }

      .cls-13 {
        opacity: 0.8;
      }

      .cls-14 {
        fill: url(#radial-gradient-5);
      }

      .cls-15 {
        fill: url(#radial-gradient-6);
      }

      .cls-16 {
        fill: url(#radial-gradient-7);
      }

      .cls-17 {
        fill: url(#radial-gradient-8);
      }

      .cls-18 {
        fill: url(#radial-gradient-9);
      }

      .cls-19 {
        fill: url(#radial-gradient-10);
      }

      .cls-20 {
        fill: url(#radial-gradient-11);
      }

      .cls-21 {
        fill: url(#radial-gradient-12);
      }

      .cls-22 {
        fill: url(#radial-gradient-13);
      }

      .cls-23 {
        fill: url(#radial-gradient-14);
      }

      .cls-24 {
        fill: url(#radial-gradient-15);
      }

      .cls-25 {
        mask: url(#mask-5);
      }

      .cls-26, .cls-27, .cls-30, .cls-33, .cls-34, .cls-36, .cls-38, .cls-40, .cls-44 {
        opacity: 0.7;
      }

      .cls-26 {
        fill: url(#radial-gradient-16);
      }

      .cls-27 {
        fill: url(#radial-gradient-17);
      }

      .cls-28 {
        mask: url(#mask-6);
      }

      .cls-29, .cls-66, .cls-68, .cls-76 {
        fill: #daa44b;
      }

      .cls-29 {
        opacity: 0.01;
      }

      .cls-30 {
        fill: url(#radial-gradient-18);
      }

      .cls-31 {
        mask: url(#mask-7);
      }

      .cls-32 {
        mask: url(#mask-8);
      }

      .cls-33 {
        fill: url(#radial-gradient-19);
      }

      .cls-34 {
        fill: url(#radial-gradient-20);
      }

      .cls-35 {
        mask: url(#mask-9);
      }

      .cls-36 {
        fill: url(#radial-gradient-21);
      }

      .cls-37 {
        mask: url(#mask-10);
      }

      .cls-38 {
        fill: url(#radial-gradient-22);
      }

      .cls-39 {
        mask: url(#mask-11);
      }

      .cls-40 {
        fill: url(#radial-gradient-23);
      }

      .cls-41 {
        mask: url(#mask-12);
      }

      .cls-42 {
        mask: url(#mask-13);
      }

      .cls-43 {
        mask: url(#mask-14);
      }

      .cls-44 {
        fill: url(#radial-gradient-24);
      }

      .cls-46 {
        fill: url(#radial-gradient-25);
      }

      .cls-47 {
        mix-blend-mode: screen;
      }

      .cls-47, .cls-49 {
        opacity: 0.5;
      }

      .cls-48, .cls-55 {
        fill: #e9c05f;
      }

      .cls-50 {
        fill: #d5a13e;
      }

      .cls-51 {
        opacity: 0.2;
      }

      .cls-52, .cls-81 {
        fill: #c5923b;
      }

      .cls-54 {
        fill: #63411c;
      }

      .cls-56 {
        fill: url(#radial-gradient-26);
      }

      .cls-57 {
        fill: url(#radial-gradient-27);
      }

      .cls-58, .cls-68 {
        opacity: 0.27;
      }

      .cls-58 {
        fill: url(#radial-gradient-28);
      }

      .cls-59 {
        fill: url(#radial-gradient-29);
      }

      .cls-60 {
        fill: url(#radial-gradient-30);
      }

      .cls-61 {
        fill: url(#radial-gradient-31);
      }

      .cls-62 {
        fill: url(#radial-gradient-32);
      }

      .cls-63 {
        fill: url(#radial-gradient-33);
      }

      .cls-64 {
        fill: url(#radial-gradient-34);
      }

      .cls-65 {
        fill: url(#radial-gradient-35);
      }

      .cls-67 {
        mask: url(#mask-15);
      }

      .cls-69 {
        mask: url(#mask-16);
      }

      .cls-70 {
        mask: url(#mask-17);
      }

      .cls-71 {
        mask: url(#mask-18);
      }

      .cls-72 {
        fill: url(#radial-gradient-36);
      }

      .cls-73 {
        mask: url(#mask-19);
      }

      .cls-74 {
        mask: url(#mask-20);
      }

      .cls-75 {
        mask: url(#mask-21);
      }

      .cls-76 {
        opacity: 0.36;
      }

      .cls-77 {
        mask: url(#mask-22);
      }

      .cls-78 {
        mask: url(#mask-23);
      }

      .cls-79 {
        mask: url(#mask-24);
      }

      .cls-80 {
        mask: url(#mask-25);
      }

      .cls-82 {
        filter: url(#luminosity-noclip-24);
      }

      .cls-83 {
        filter: url(#luminosity-noclip-23);
      }

      .cls-84 {
        filter: url(#luminosity-noclip-22);
      }

      .cls-85 {
        filter: url(#luminosity-noclip-21);
      }

      .cls-86 {
        filter: url(#luminosity-noclip-20);
      }

      .cls-87 {
        filter: url(#luminosity-noclip-19);
      }

      .cls-88 {
        filter: url(#luminosity-noclip-18);
      }

      .cls-89 {
        filter: url(#luminosity-noclip-17);
      }

      .cls-90 {
        filter: url(#luminosity-noclip-16);
      }

      .cls-91 {
        filter: url(#luminosity-noclip-15);
      }

      .cls-92 {
        filter: url(#luminosity-noclip-13);
      }

      .cls-93 {
        filter: url(#luminosity-noclip-12);
      }

      .cls-94 {
        filter: url(#luminosity-noclip-11);
      }

      .cls-95 {
        filter: url(#luminosity-noclip-10);
      }

      .cls-96 {
        filter: url(#luminosity-noclip-9);
      }

      .cls-97 {
        filter: url(#luminosity-noclip-7);
      }

      .cls-98 {
        filter: url(#luminosity-noclip-6);
      }

      .cls-99 {
        filter: url(#luminosity-noclip-4);
      }

      .cls-100 {
        filter: url(#luminosity-noclip-3);
      }

      .cls-101 {
        filter: url(#luminosity-noclip-2);
      }

      .cls-102 {
        filter: url(#luminosity-noclip);
      }
    </style>
    <filter id="luminosity-noclip" x="112.16" y="-10819.23" width="6.02" height="32766" filterUnits="userSpaceOnUse" color-interpolation-filters="sRGB">
      <feFlood flood-color="#fff" result="bg"/>
      <feBlend in="SourceGraphic" in2="bg"/>
    </filter>
    <mask id="mask" x="112.16" y="-10819.23" width="6.02" height="32766" maskUnits="userSpaceOnUse">
      <g class="cls-102"/>
    </mask>
    <radialGradient id="radial-gradient" cx="105.88" cy="193.58" r="4.57" gradientTransform="translate(11.06 -93.03) scale(0.98 1.03)" gradientUnits="userSpaceOnUse">
      <stop offset="0.08" stop-color="#fff"/>
      <stop offset="1"/>
    </radialGradient>
    <filter id="luminosity-noclip-2" x="117.32" y="-10819.23" width="6.01" height="32766" filterUnits="userSpaceOnUse" color-interpolation-filters="sRGB">
      <feFlood flood-color="#fff" result="bg"/>
      <feBlend in="SourceGraphic" in2="bg"/>
    </filter>
    <mask id="mask-2" x="117.32" y="-10819.23" width="6.01" height="32766" maskUnits="userSpaceOnUse">
      <g class="cls-101"/>
    </mask>
    <radialGradient id="radial-gradient-2" cx="111.13" cy="179.3" r="4.57" xlink:href="#radial-gradient"/>
    <filter id="luminosity-noclip-3" x="100.36" y="-10819.23" width="107.76" height="32766" filterUnits="userSpaceOnUse" color-interpolation-filters="sRGB">
      <feFlood flood-color="#fff" result="bg"/>
      <feBlend in="SourceGraphic" in2="bg"/>
    </filter>
    <mask id="mask-3" x="100.36" y="-10819.23" width="107.76" height="32766" maskUnits="userSpaceOnUse">
      <g class="cls-100"/>
    </mask>
    <radialGradient id="radial-gradient-3" cx="156.39" cy="163.51" r="97.56" gradientTransform="translate(11.06 -93.03) scale(0.98 1.03)" gradientUnits="userSpaceOnUse">
      <stop offset="0.14"/>
      <stop offset="0.92" stop-color="#fff"/>
    </radialGradient>
    <filter id="luminosity-noclip-4" x="113.79" y="-10819.23" width="5.98" height="32766" filterUnits="userSpaceOnUse" color-interpolation-filters="sRGB">
      <feFlood flood-color="#fff" result="bg"/>
      <feBlend in="SourceGraphic" in2="bg"/>
    </filter>
    <mask id="mask-4" x="113.79" y="-10819.23" width="5.98" height="32766" maskUnits="userSpaceOnUse">
      <g class="cls-99"/>
    </mask>
    <radialGradient id="radial-gradient-4" cx="305.04" cy="120.54" r="4.52" gradientTransform="matrix(0.98, -0.08, 0.08, 1.03, -191.53, -47.08)" xlink:href="#radial-gradient"/>
    <radialGradient id="radial-gradient-5" cx="2123.61" cy="608.14" r="5.04" gradientTransform="matrix(0.67, -0.76, 0.72, 0.7, -1815.48, 1267.2)" gradientUnits="userSpaceOnUse">
      <stop offset="0.14" stop-color="#daa44b"/>
      <stop offset="0.5" stop-color="#c48f40"/>
      <stop offset="0.92" stop-color="#a7722a"/>
    </radialGradient>
    <radialGradient id="radial-gradient-6" cx="-466.53" cy="327.42" r="5.05" gradientTransform="matrix(0.97, 0.19, -0.18, 1.01, 536.62, -141.97)" xlink:href="#radial-gradient-5"/>
    <radialGradient id="radial-gradient-7" cx="849.56" cy="154.84" r="5.06" gradientTransform="matrix(0.94, -0.31, 0.3, 0.98, -783.26, 234.97)" xlink:href="#radial-gradient-5"/>
    <radialGradient id="radial-gradient-8" cx="810.39" cy="142.45" r="3.08" gradientTransform="matrix(0.94, -0.31, 0.3, 0.98, -783.26, 234.97)" xlink:href="#radial-gradient-5"/>
    <radialGradient id="radial-gradient-9" cx="891.82" cy="107.98" r="6.7" gradientTransform="matrix(0.94, -0.31, 0.3, 0.98, -783.26, 234.97)" xlink:href="#radial-gradient-5"/>
    <radialGradient id="radial-gradient-10" cx="-743" cy="498.82" r="5.2" gradientTransform="matrix(0.93, 0.34, -0.32, 0.97, 946.55, -135.39)" xlink:href="#radial-gradient-5"/>
    <radialGradient id="radial-gradient-11" cx="-735.17" cy="519.9" r="4.14" gradientTransform="matrix(0.93, 0.34, -0.32, 0.97, 946.55, -135.39)" xlink:href="#radial-gradient-5"/>
    <radialGradient id="radial-gradient-12" cx="234.79" cy="165.18" r="4.13" gradientTransform="matrix(0.98, -0.05, 0.05, 1.03, -122.99, -48.54)" xlink:href="#radial-gradient-5"/>
    <radialGradient id="radial-gradient-13" cx="241" cy="150.49" r="3.02" gradientTransform="matrix(0.98, -0.05, 0.05, 1.03, -122.99, -48.54)" xlink:href="#radial-gradient-5"/>
    <radialGradient id="radial-gradient-14" cx="225.35" cy="104.35" r="3.03" gradientTransform="matrix(0.98, -0.05, 0.05, 1.03, -122.99, -48.54)" xlink:href="#radial-gradient-5"/>
    <radialGradient id="radial-gradient-15" cx="239.29" cy="112.84" r="3.78" gradientTransform="matrix(0.98, -0.05, 0.05, 1.03, -122.99, -48.54)" xlink:href="#radial-gradient-5"/>
    <filter id="luminosity-noclip-5" x="112.16" y="101.07" width="6.02" height="10.66" filterUnits="userSpaceOnUse" color-interpolation-filters="sRGB">
      <feFlood flood-color="#fff" result="bg"/>
      <feBlend in="SourceGraphic" in2="bg"/>
    </filter>
    <mask id="mask-5" x="112.16" y="101.07" width="6.02" height="10.66" maskUnits="userSpaceOnUse">
      <g class="cls-1">
        <path class="cls-2" d="M118.17,106.4c0,2.94-1.35,5.33-3,5.33s-3-2.39-3-5.33,1.35-5.33,3-5.33S118.17,103.45,118.17,106.4Z"/>
      </g>
    </mask>
    <radialGradient id="radial-gradient-16" cx="105.88" cy="193.58" r="4.57" gradientTransform="translate(11.06 -93.03) scale(0.98 1.03)" gradientUnits="userSpaceOnUse">
      <stop offset="0.08" stop-color="#a7722a"/>
      <stop offset="1" stop-color="#daa44b"/>
    </radialGradient>
    <radialGradient id="radial-gradient-17" cx="-771.14" cy="517.88" r="4.56" gradientTransform="matrix(0.92, 0.35, -0.34, 0.97, 982.04, -136.83)" xlink:href="#radial-gradient-16"/>
    <filter id="luminosity-noclip-6" x="91.33" y="-10819.23" width="6.63" height="32766" filterUnits="userSpaceOnUse" color-interpolation-filters="sRGB">
      <feFlood flood-color="#fff" result="bg"/>
      <feBlend in="SourceGraphic" in2="bg"/>
    </filter>
    <mask id="mask-6" x="91.33" y="-10819.23" width="6.63" height="32766" maskUnits="userSpaceOnUse">
      <g class="cls-98"/>
    </mask>
    <radialGradient id="radial-gradient-18" cx="934.95" cy="120.11" r="6.03" gradientTransform="matrix(0.93, -0.33, 0.32, 0.98, -826.07, 252.36)" xlink:href="#radial-gradient-16"/>
    <filter id="luminosity-noclip-7" x="78.78" y="-10819.23" width="8.68" height="32766" filterUnits="userSpaceOnUse" color-interpolation-filters="sRGB">
      <feFlood flood-color="#fff" result="bg"/>
      <feBlend in="SourceGraphic" in2="bg"/>
    </filter>
    <mask id="mask-7" x="78.78" y="-10819.23" width="8.68" height="32766" maskUnits="userSpaceOnUse">
      <g class="cls-97"/>
    </mask>
    <filter id="luminosity-noclip-8" x="113.79" y="47.28" width="5.98" height="10.52" filterUnits="userSpaceOnUse" color-interpolation-filters="sRGB">
      <feFlood flood-color="#fff" result="bg"/>
      <feBlend in="SourceGraphic" in2="bg"/>
    </filter>
    <mask id="mask-8" x="113.79" y="47.28" width="5.98" height="10.52" maskUnits="userSpaceOnUse">
      <g class="cls-7">
        <path class="cls-8" d="M119.75,52.3c.2,2.91-1,5.37-2.58,5.5s-3.14-2.11-3.35-5,.93-5.37,2.58-5.49S119.53,49.39,119.75,52.3Z"/>
      </g>
    </mask>
    <radialGradient id="radial-gradient-19" cx="305.04" cy="120.54" r="4.52" gradientTransform="matrix(0.98, -0.08, 0.08, 1.03, -191.53, -47.08)" xlink:href="#radial-gradient-16"/>
    <radialGradient id="radial-gradient-20" cx="2204.11" cy="674.63" r="4.52" gradientTransform="matrix(0.64, -0.79, 0.75, 0.67, -1872.63, 1361.35)" xlink:href="#radial-gradient-16"/>
    <filter id="luminosity-noclip-9" x="30.93" y="-10819.23" width="8.6" height="32766" filterUnits="userSpaceOnUse" color-interpolation-filters="sRGB">
      <feFlood flood-color="#fff" result="bg"/>
      <feBlend in="SourceGraphic" in2="bg"/>
    </filter>
    <mask id="mask-9" x="30.93" y="-10819.23" width="8.6" height="32766" maskUnits="userSpaceOnUse">
      <g class="cls-96"/>
    </mask>
    <radialGradient id="radial-gradient-21" cx="-150.29" cy="217.56" r="4.52" gradientTransform="matrix(0.98, 0.06, -0.06, 1.03, 185.16, -118.75)" xlink:href="#radial-gradient-16"/>
    <filter id="luminosity-noclip-10" x="21.89" y="-10819.23" width="5.97" height="32766" filterUnits="userSpaceOnUse" color-interpolation-filters="sRGB">
      <feFlood flood-color="#fff" result="bg"/>
      <feBlend in="SourceGraphic" in2="bg"/>
    </filter>
    <mask id="mask-10" x="21.89" y="-10819.23" width="5.97" height="32766" maskUnits="userSpaceOnUse">
      <g class="cls-95"/>
    </mask>
    <radialGradient id="radial-gradient-22" cx="867.81" cy="163.24" r="4.52" gradientTransform="matrix(0.94, -0.32, 0.31, 0.98, -803.72, 238.32)" xlink:href="#radial-gradient-16"/>
    <filter id="luminosity-noclip-11" x="54.65" y="-10819.23" width="6.47" height="32766" filterUnits="userSpaceOnUse" color-interpolation-filters="sRGB">
      <feFlood flood-color="#fff" result="bg"/>
      <feBlend in="SourceGraphic" in2="bg"/>
    </filter>
    <mask id="mask-11" x="54.65" y="-10819.23" width="6.47" height="32766" maskUnits="userSpaceOnUse">
      <g class="cls-94"/>
    </mask>
    <radialGradient id="radial-gradient-23" cx="538.25" cy="90.83" r="3.81" gradientTransform="matrix(0.97, -0.17, 0.16, 1.02, -434.04, 45.24)" xlink:href="#radial-gradient-16"/>
    <filter id="luminosity-noclip-12" x="100.55" y="-10819.23" width="5.15" height="32766" filterUnits="userSpaceOnUse" color-interpolation-filters="sRGB">
      <feFlood flood-color="#fff" result="bg"/>
      <feBlend in="SourceGraphic" in2="bg"/>
    </filter>
    <mask id="mask-12" x="100.55" y="-10819.23" width="5.15" height="32766" maskUnits="userSpaceOnUse">
      <g class="cls-93"/>
    </mask>
    <filter id="luminosity-noclip-13" x="15.82" y="-10819.23" width="5.15" height="32766" filterUnits="userSpaceOnUse" color-interpolation-filters="sRGB">
      <feFlood flood-color="#fff" result="bg"/>
      <feBlend in="SourceGraphic" in2="bg"/>
    </filter>
    <mask id="mask-13" x="15.82" y="-10819.23" width="5.15" height="32766" maskUnits="userSpaceOnUse">
      <g class="cls-92"/>
    </mask>
    <filter id="luminosity-noclip-14" x="117.32" y="86.35" width="6.01" height="10.67" filterUnits="userSpaceOnUse" color-interpolation-filters="sRGB">
      <feFlood flood-color="#fff" result="bg"/>
      <feBlend in="SourceGraphic" in2="bg"/>
    </filter>
    <mask id="mask-14" x="117.32" y="86.35" width="6.01" height="10.67" maskUnits="userSpaceOnUse">
      <g class="cls-3">
        <path class="cls-4" d="M123.33,91.68c0,2.95-1.34,5.34-3,5.34s-3-2.39-3-5.34,1.36-5.33,3-5.33S123.33,88.73,123.33,91.68Z"/>
      </g>
    </mask>
    <radialGradient id="radial-gradient-24" cx="111.13" cy="179.3" r="4.57" xlink:href="#radial-gradient-16"/>
    <radialGradient id="radial-gradient-25" cx="62.99" cy="91.69" r="115.04" gradientTransform="translate(11.06 -93.03) scale(0.98 1.03)" gradientUnits="userSpaceOnUse">
      <stop offset="0" stop-color="#f6dd80"/>
      <stop offset="0.33" stop-color="#e9c05f"/>
      <stop offset="0.6" stop-color="#d5a53e"/>
      <stop offset="1" stop-color="#9b6126"/>
    </radialGradient>
    <radialGradient id="radial-gradient-26" cx="2926.46" cy="1464.44" r="6.58" gradientTransform="matrix(0.32, -0.98, 0.93, 0.33, -2130.5, 2510.22)" xlink:href="#radial-gradient-5"/>
    <radialGradient id="radial-gradient-27" cx="-617.58" cy="468.34" r="5.73" gradientTransform="matrix(0.93, 0.33, -0.31, 0.98, 848.57, -185.09)" xlink:href="#radial-gradient-5"/>
    <radialGradient id="radial-gradient-28" cx="421.31" cy="128.32" r="4.18" gradientTransform="matrix(0.98, -0.1, 0.1, 1.03, -314.5, -17.48)" xlink:href="#radial-gradient-5"/>
    <radialGradient id="radial-gradient-29" cx="1318.36" cy="233.28" r="2.32" gradientTransform="matrix(0.89, -0.45, 0.43, 0.93, -1117.58, 491.23)" xlink:href="#radial-gradient-5"/>
    <radialGradient id="radial-gradient-30" cx="-379.16" cy="364.17" r="2.33" gradientTransform="matrix(0.96, 0.22, -0.21, 1.01, 583.87, -174.51)" xlink:href="#radial-gradient-5"/>
    <radialGradient id="radial-gradient-31" cx="1482.79" cy="285.8" r="2.32" gradientTransform="matrix(0.85, -0.51, 0.49, 0.9, -1275.52, 625.55)" xlink:href="#radial-gradient-5"/>
    <radialGradient id="radial-gradient-32" cx="1934.39" cy="593.24" r="4.6" gradientTransform="matrix(0.82, -0.86, 0.69, 0.73, -1827.44, 1327.76)" xlink:href="#radial-gradient-5"/>
    <radialGradient id="radial-gradient-33" cx="-7.26" cy="323.96" r="4.6" gradientTransform="matrix(1.15, 0.16, -0.13, 1.02, 237.11, -197.35)" xlink:href="#radial-gradient-5"/>
    <radialGradient id="radial-gradient-34" cx="1677.35" cy="423.44" r="2.41" gradientTransform="matrix(0.93, -0.73, 0.59, 0.82, -1613.07, 974.01)" xlink:href="#radial-gradient-5"/>
    <radialGradient id="radial-gradient-35" cx="520.64" cy="200.41" r="2.41" gradientTransform="matrix(1.15, -0.13, 0.11, 1.02, -415.06, -12.08)" xlink:href="#radial-gradient-5"/>
    <filter id="luminosity-noclip-15" x="184.43" y="-10819.23" width="5.97" height="32766" filterUnits="userSpaceOnUse" color-interpolation-filters="sRGB">
      <feFlood flood-color="#fff" result="bg"/>
      <feBlend in="SourceGraphic" in2="bg"/>
    </filter>
    <mask id="mask-15" x="184.43" y="-10819.23" width="5.97" height="32766" maskUnits="userSpaceOnUse">
      <g class="cls-91"/>
    </mask>
    <filter id="luminosity-noclip-16" x="166.21" y="-10819.23" width="8.43" height="32766" filterUnits="userSpaceOnUse" color-interpolation-filters="sRGB">
      <feFlood flood-color="#fff" result="bg"/>
      <feBlend in="SourceGraphic" in2="bg"/>
    </filter>
    <mask id="mask-16" x="166.21" y="-10819.23" width="8.43" height="32766" maskUnits="userSpaceOnUse">
      <g class="cls-90"/>
    </mask>
    <filter id="luminosity-noclip-17" x="147.65" y="-10819.23" width="5.57" height="32766" filterUnits="userSpaceOnUse" color-interpolation-filters="sRGB">
      <feFlood flood-color="#fff" result="bg"/>
      <feBlend in="SourceGraphic" in2="bg"/>
    </filter>
    <mask id="mask-17" x="147.65" y="-10819.23" width="5.57" height="32766" maskUnits="userSpaceOnUse">
      <g class="cls-89"/>
    </mask>
    <filter id="luminosity-noclip-18" x="128.25" y="-10819.23" width="3.83" height="32766" filterUnits="userSpaceOnUse" color-interpolation-filters="sRGB">
      <feFlood flood-color="#fff" result="bg"/>
      <feBlend in="SourceGraphic" in2="bg"/>
    </filter>
    <mask id="mask-18" x="128.25" y="-10819.23" width="3.83" height="32766" maskUnits="userSpaceOnUse">
      <g class="cls-88"/>
    </mask>
    <radialGradient id="radial-gradient-36" cx="2180.28" cy="641.73" r="2.32" gradientTransform="matrix(0.67, -0.75, 0.72, 0.7, -1798.87, 1323.3)" xlink:href="#radial-gradient-5"/>
    <filter id="luminosity-noclip-19" x="121.84" y="-10819.23" width="4.48" height="32766" filterUnits="userSpaceOnUse" color-interpolation-filters="sRGB">
      <feFlood flood-color="#fff" result="bg"/>
      <feBlend in="SourceGraphic" in2="bg"/>
    </filter>
    <mask id="mask-19" x="121.84" y="-10819.23" width="4.48" height="32766" maskUnits="userSpaceOnUse">
      <g class="cls-87"/>
    </mask>
    <filter id="luminosity-noclip-20" x="141.15" y="-10819.23" width="4.2" height="32766" filterUnits="userSpaceOnUse" color-interpolation-filters="sRGB">
      <feFlood flood-color="#fff" result="bg"/>
      <feBlend in="SourceGraphic" in2="bg"/>
    </filter>
    <mask id="mask-20" x="141.15" y="-10819.23" width="4.2" height="32766" maskUnits="userSpaceOnUse">
      <g class="cls-86"/>
    </mask>
    <filter id="luminosity-noclip-21" x="188.41" y="-10819.23" width="5.39" height="32766" filterUnits="userSpaceOnUse" color-interpolation-filters="sRGB">
      <feFlood flood-color="#fff" result="bg"/>
      <feBlend in="SourceGraphic" in2="bg"/>
    </filter>
    <mask id="mask-21" x="188.41" y="-10819.23" width="5.39" height="32766" maskUnits="userSpaceOnUse">
      <g class="cls-85"/>
    </mask>
    <filter id="luminosity-noclip-22" x="203.53" y="-10819.23" width="4.57" height="32766" filterUnits="userSpaceOnUse" color-interpolation-filters="sRGB">
      <feFlood flood-color="#fff" result="bg"/>
      <feBlend in="SourceGraphic" in2="bg"/>
    </filter>
    <mask id="mask-22" x="203.53" y="-10819.23" width="4.57" height="32766" maskUnits="userSpaceOnUse">
      <g class="cls-84"/>
    </mask>
    <filter id="luminosity-noclip-23" x="122.8" y="-10819.23" width="6.96" height="32766" filterUnits="userSpaceOnUse" color-interpolation-filters="sRGB">
      <feFlood flood-color="#fff" result="bg"/>
      <feBlend in="SourceGraphic" in2="bg"/>
    </filter>
    <mask id="mask-23" x="122.8" y="-10819.23" width="6.96" height="32766" maskUnits="userSpaceOnUse">
      <g class="cls-83"/>
    </mask>
    <filter id="luminosity-noclip-24" x="150.47" y="-10819.23" width="10.6" height="32766" filterUnits="userSpaceOnUse" color-interpolation-filters="sRGB">
      <feFlood flood-color="#fff" result="bg"/>
      <feBlend in="SourceGraphic" in2="bg"/>
    </filter>
    <mask id="mask-24" x="150.47" y="-10819.23" width="10.6" height="32766" maskUnits="userSpaceOnUse">
      <g class="cls-82"/>
    </mask>
    <filter id="luminosity-noclip-25" x="100.36" y="70.72" width="107.76" height="85.34" filterUnits="userSpaceOnUse" color-interpolation-filters="sRGB">
      <feFlood flood-color="#fff" result="bg"/>
      <feBlend in="SourceGraphic" in2="bg"/>
    </filter>
    <mask id="mask-25" x="100.36" y="70.72" width="107.76" height="85.34" maskUnits="userSpaceOnUse">
      <g class="cls-5">
        <path class="cls-6" d="M157.23,150c-24-.4-41.61-24.39-41.23-36.79s-6.1-26-11.06-34.77a23,23,0,0,1-2.54-7.72c-4.55,16.92-.52,29.33,2.65,38.64,9.68,28,24.7,44,49.13,46.37,16.28,1.6,39.54-2.48,53.93-13.58C191.35,150.37,175.51,150.3,157.23,150Z"/>
      </g>
    </mask>
  </defs>
  <g class="cls-9">
    <g id="Layer_1" data-name="Layer 1">
      <g>
        <path class="cls-10" d="M209.1,71.38c-12.66-15.1-29.86-26.7-49.73-33.56a61.71,61.71,0,0,0-20-3.64,45.31,45.31,0,0,0-8.47.78,78.65,78.65,0,0,0-19.5-20.87C101.7,6.72,91.54,3,81.16,3c-14,0-28.39,7-41.6,20.19A133.82,133.82,0,0,0,14,60.25C1,88.61,3.35,119,20.05,139.59h0c1.24,1.53,2.56,3,3.91,4.37l.09.09c.64.65,1.31,1.29,2,1.89l.21.2c1.38,1.26,2.85,2.47,4.36,3.61l.44.33c.81.59,1.54,1.11,2.24,1.58l0,0c.73.49,1.5,1,2.37,1.51l.58.35c.66.39,1.34.78,2,1.14l.51.28c.82.44,1.66.86,2.5,1.27l.6.27c.68.32,1.36.62,2.05.92l.11,0,.66.28c1,.4,1.82.73,2.65,1l.38.13c.76.27,1.55.54,2.39.81L51,160q1.14.35,2.31.66l.59.17c.9.23,1.84.45,2.88.68l.72.15.16,0,2.32.44.84.15c1,.17,2.07.32,3.06.45l.71.08c.85.11,1.71.2,2.58.28h.08l.85.08c1.24.1,2.29.16,3.31.21h.65c.79,0,1.58-.12,2.36-.19l.49,0,2.29-.26h.14c.76-.1,1.52-.21,2.27-.33l.34-.05c.79-.13,1.57-.26,2.37-.42h0c.79-.16,1.58-.32,2.35-.5l.1,0c13.06-3,23.67-9.06,32.21-18.57,9.89,12.26,22.4,19,38.06,20.61l1.51.13.52,0,1,.07.58,0,1.16,0,.76,0,1.11,0h2.38l.88,0,1.29,0,.87,0,.86-.05.79-.05.86-.06.9-.07,1.28-.12,1-.1.8-.09.92-.11.78-.1,1.28-.19.62-.09,1.43-.23.59-.11,1.23-.22.52-.1c1.2-.23,2.4-.49,3.57-.77l.24-.06,1.68-.41.15,0c25.13-6.49,40.4-21,41.91-39.75,0-.17,0-.33,0-.5C228.61,103.88,221.68,86.38,209.1,71.38Zm-23.88,83.53-.12,0-1.59.39-.23,0q-1.67.39-3.36.72l-.48.1-1.16.21-.56.1-1.34.21-.63.1-1.16.16-.73.1-.86.1-.77.09-.91.1-1.21.11-.83.07-.81.05-.75,0-.8,0-.82,0-1.2,0-.84,0h-2.22l-1,0-.7,0-1.08,0-.55,0-.93-.06-.49,0c-.47,0-.92-.07-1.37-.12-16.82-1.7-29.18-10-38.4-24.49a54.32,54.32,0,0,1-33.74,22.57l-.09,0c-.72.16-1.44.32-2.17.46h-.06c-.72.14-1.45.26-2.18.38l-.31.05c-.7.11-1.4.21-2.11.3h-.09c-.72.09-1.45.17-2.18.24l-.46.05c-.74.07-1.47.13-2.22.18-1-.05-2.07-.12-3.09-.2l-.88-.07c-.81-.08-1.62-.16-2.41-.26l-.66-.07c-1-.13-1.91-.27-2.85-.43l-.79-.14c-.72-.12-1.43-.26-2.14-.41l-.82-.17c-.9-.19-1.78-.4-2.65-.63l-.55-.15c-.72-.19-1.43-.4-2.13-.61l-.81-.25-2.2-.74-.36-.13c-.82-.3-1.62-.61-2.42-.94l-.7-.3-1.87-.83-.55-.26c-.77-.37-1.52-.75-2.26-1.14l-.47-.26c-.62-.34-1.23-.68-1.83-1l-.51-.31c-.73-.44-1.45-.89-2.16-1.36h0c-.7-.47-1.39-1-2.06-1.45l-.39-.29c-1.37-1-2.68-2.12-3.93-3.26l-.17-.16c-.61-.56-1.21-1.13-1.79-1.72l-.07-.06a52.68,52.68,0,0,1-3.53-4h0C9.53,117,7.41,89.13,19.43,62.88,33,33.57,68.69-10.78,107.81,19c8.37,6.38,15.33,13.9,20.16,23,7.4-2.29,17.09-2.61,29.5,1.67,38.73,13.36,65.16,45.63,65.16,77C221.15,139.09,203.86,150.1,185.22,154.91Z"/>
        <path class="cls-11" d="M205.1,72.28c-12.44-14.45-29.35-25.56-48.89-32.11a62.05,62.05,0,0,0-19.7-3.49,46.54,46.54,0,0,0-8.34.74,76.1,76.1,0,0,0-19.17-20c-9.5-7-19.49-10.62-29.7-10.62-13.76,0-27.9,6.68-40.9,19.31A128.37,128.37,0,0,0,13.29,61.63C.53,88.76,2.8,117.85,19.21,137.55h0c1.22,1.47,2.52,2.88,3.85,4.19l.09.08c.62.62,1.28,1.23,1.93,1.81l.21.19c1.35,1.2,2.8,2.37,4.28,3.45l.43.32c.8.57,1.52,1.06,2.2,1.51l.05,0c.72.47,1.49,1,2.34,1.45l.56.33c.66.38,1.33.74,2,1.09l.51.27c.8.42,1.62.82,2.45,1.21l.6.27q1,.45,2,.87l.11.05.64.26c.94.38,1.79.7,2.61,1l.38.13c.75.26,1.51.51,2.35.77l.87.26c.75.22,1.51.44,2.27.64l.58.15c.89.23,1.81.44,2.83.66l.71.14.16,0q1.13.22,2.28.42l.83.14c1,.17,2,.31,3,.44l.69.07c.84.1,1.68.19,2.54.27h.07l.85.07c1.22.1,2.25.16,3.25.2h.64c.78-.05,1.55-.12,2.32-.19l.48,0c.78-.08,1.54-.16,2.25-.25l.14,0c.75-.09,1.5-.19,2.24-.31l.32-.05,2.34-.39h0c.78-.15,1.55-.3,2.31-.47l.1,0c12.84-2.84,23.27-8.68,31.67-17.78,9.72,11.74,22,18.21,37.42,19.72l1.48.13.52,0,1,.06.57,0,1.14.05.75,0,1.09,0h2.34l.87,0,1.27,0,.85,0,.85-.05.78,0,.84-.05.88-.07,1.26-.12,1-.09.79-.09.91-.11.76-.1,1.26-.17.61-.09,1.41-.22.58-.1,1.2-.22.51-.09c1.18-.23,2.37-.47,3.51-.73l.25-.06,1.64-.4.15,0c24.71-6.22,39.73-20.08,41.21-38,0-.16,0-.32,0-.49C224.29,103.38,217.48,86.64,205.1,72.28Zm-23.47,79.94-.13,0-1.55.37-.23,0q-1.65.38-3.3.69l-.48.09-1.14.21-.55.09-1.32.21-.61.09-1.15.16-.71.09-.85.1-.75.08-.9.09-1.19.11-.82.06-.8.06-.73,0-.79,0-.8,0-1.18,0h-3l-1,0-.7,0-1.05-.05-.55,0-.91-.05-.49,0c-.45,0-.9-.07-1.34-.12-16.54-1.62-28.69-9.61-37.76-23.43-8.43,11.65-19.44,18.57-33.18,21.6l-.08,0c-.71.15-1.42.3-2.14.43h-.06l-2.14.37-.3,0c-.69.11-1.38.2-2.08.29h-.08c-.71.09-1.43.17-2.15.23l-.46.05-2.17.17c-1,0-2-.11-3-.19l-.86-.07q-1.2-.1-2.37-.24l-.64-.08c-.95-.12-1.89-.25-2.81-.4l-.77-.13-2.11-.4-.8-.16c-.89-.19-1.76-.39-2.62-.61l-.53-.14-2.1-.58-.8-.25c-.73-.22-1.45-.46-2.15-.7l-.36-.12c-.81-.29-1.6-.59-2.38-.91l-.69-.28c-.62-.26-1.23-.52-1.83-.8l-.55-.24c-.75-.35-1.49-.72-2.22-1.1l-.46-.24c-.61-.33-1.21-.66-1.8-1l-.51-.29c-.72-.43-1.42-.86-2.11-1.31h0c-.69-.46-1.36-.92-2-1.4l-.39-.28q-2-1.47-3.86-3.11l-.17-.15c-.6-.54-1.19-1.09-1.76-1.65l-.06-.06q-1.84-1.81-3.48-3.78h0C8.88,116,6.79,89.26,18.61,64.15,32,36.1,67-6.34,105.51,22.19c8.23,6.11,15.07,13.3,19.83,22,7.27-2.2,16.8-2.51,29,1.59,38.09,12.78,64.07,43.66,64.07,73.65C217,137.07,200,147.61,181.63,152.22Z"/>
        <g id="potatao">
          <g>
            <path class="cls-12" d="M106.29,21.5c18.79,13.89,30.47,33.29,27,62.9-8.27,48.33-28.72,68.83-63.1,71.11C17.08,153.23-2.1,106.41,17.91,64,31.5,35.59,67.17-7.41,106.29,21.5Z"/>
            <g class="cls-13">
              <path class="cls-14" d="M36.7,75.69c1.07,1,1.54,2.32,1,2.87s-1.76.19-2.84-.85-1.55-2.32-1-2.88S35.62,74.65,36.7,75.69Z"/>
              <path class="cls-15" d="M26.66,96.15c-.26,1.5-1.06,2.6-1.78,2.46s-1.08-1.49-.81-3,1.08-2.6,1.79-2.46S26.94,94.65,26.66,96.15Z"/>
              <path class="cls-16" d="M59.39,119.85c.43,1.45.23,2.82-.47,3.05s-1.62-.76-2.06-2.22-.23-2.82.46-3.06S58.94,118.4,59.39,119.85Z"/>
              <path class="cls-17" d="M19.19,121.33c.27.88.13,1.72-.28,1.86s-1-.47-1.27-1.35-.12-1.72.29-1.86S18.92,120.44,19.19,121.33Z"/>
              <path class="cls-18" d="M85,59.41c.58,1.94.3,3.74-.63,4.06s-2.14-1-2.72-3-.3-3.75.62-4S84.4,57.48,85,59.41Z"/>
              <path class="cls-19" d="M96,93.8c-.5,1.49-1.47,2.47-2.18,2.22s-.88-1.67-.39-3.15,1.48-2.49,2.18-2.23S96.52,92.32,96,93.8Z"/>
              <path class="cls-20" d="M96.11,117.72c-.39,1.17-1.17,2-1.74,1.76s-.7-1.33-.32-2.51,1.18-2,1.75-1.77S96.5,116.53,96.11,117.72Z"/>
              <path class="cls-21" d="M116,106.62c.05,1.25-.38,2.28-1,2.31s-1.13-1-1.18-2.21.36-2.28,1-2.31S115.9,105.37,116,106.62Z"/>
              <path class="cls-22" d="M121.29,92c0,.91-.27,1.68-.71,1.7s-.82-.69-.87-1.62.29-1.66.72-1.69S121.26,91.13,121.29,92Z"/>
              <path class="cls-23" d="M103.71,45.32c0,.92-.28,1.68-.72,1.7s-.82-.7-.86-1.61.28-1.68.71-1.7S103.67,44.41,103.71,45.32Z"/>
              <path class="cls-24" d="M117.87,52.78c.06,1.15-.34,2.09-.89,2.12s-1-.88-1.08-2,.35-2.09.89-2.11S117.83,51.64,117.87,52.78Z"/>
              <g class="cls-25">
                <path class="cls-26" d="M118.17,106.4c0,2.94-1.35,5.33-3,5.33s-3-2.39-3-5.33,1.35-5.33,3-5.33S118.17,103.45,118.17,106.4Z"/>
              </g>
              <path class="cls-27" d="M97.47,94.27c-1,2.77-3,4.53-4.56,3.93s-2-3.31-1.1-6.08,3-4.52,4.57-3.93S98.43,91.5,97.47,94.27Z"/>
              <g class="cls-28">
                <path class="cls-29" d="M97.47,94.27c-1,2.77-3,4.53-4.56,3.93s-2-3.31-1.1-6.08,3-4.52,4.57-3.93S98.43,91.5,97.47,94.27Z"/>
              </g>
              <path class="cls-30" d="M86.89,58.43c1.18,3.68.47,7.26-1.61,8s-4.73-1.64-5.92-5.33-.48-7.27,1.6-8S85.69,54.74,86.89,58.43Z"/>
              <g class="cls-31">
                <path class="cls-29" d="M86.89,58.43c1.18,3.68.47,7.26-1.61,8s-4.73-1.64-5.92-5.33-.48-7.27,1.6-8S85.69,54.74,86.89,58.43Z"/>
              </g>
              <g class="cls-32">
                <path class="cls-33" d="M119.75,52.3c.2,2.91-1,5.37-2.58,5.5s-3.14-2.11-3.35-5,.93-5.37,2.58-5.49S119.53,49.39,119.75,52.3Z"/>
              </g>
              <path class="cls-34" d="M37.15,74c2.12,1.89,3,4.48,1.92,5.78s-3.64.85-5.76-1-3-4.47-1.93-5.78S35,72.08,37.15,74Z"/>
              <g class="cls-35">
                <path class="cls-29" d="M37.15,74c2.12,1.89,3,4.48,1.92,5.78s-3.64.85-5.76-1-3-4.47-1.93-5.78S35,72.08,37.15,74Z"/>
              </g>
              <path class="cls-36" d="M27.85,96.12c-.16,2.92-1.62,5.2-3.27,5.09s-2.84-2.54-2.67-5.45,1.63-5.19,3.28-5.08S28,93.21,27.85,96.12Z"/>
              <g class="cls-37">
                <path class="cls-29" d="M27.85,96.12c-.16,2.92-1.62,5.2-3.27,5.09s-2.84-2.54-2.67-5.45,1.63-5.19,3.28-5.08S28,93.21,27.85,96.12Z"/>
              </g>
              <path class="cls-38" d="M60.71,118.87c.86,2.77.3,5.46-1.26,6s-3.53-1.27-4.39-4-.3-5.45,1.26-6S59.85,116.1,60.71,118.87Z"/>
              <g class="cls-39">
                <path class="cls-29" d="M60.71,118.87c.86,2.77.3,5.46-1.26,6s-3.53-1.27-4.39-4-.3-5.45,1.26-6S59.85,116.1,60.71,118.87Z"/>
              </g>
              <path class="cls-40" d="M105.59,44.35c.4,2.42-.39,4.58-1.76,4.82s-2.8-1.52-3.18-4,.39-4.6,1.76-4.83S105.21,41.91,105.59,44.35Z"/>
              <g class="cls-41">
                <path class="cls-29" d="M105.59,44.35c.4,2.42-.39,4.58-1.76,4.82s-2.8-1.52-3.18-4,.39-4.6,1.76-4.83S105.21,41.91,105.59,44.35Z"/>
              </g>
              <path class="cls-29" d="M20.87,120.69c.39,2.44-.4,4.6-1.76,4.84s-2.8-1.52-3.19-4,.4-4.59,1.76-4.83S20.48,118.27,20.87,120.69Z"/>
              <g class="cls-42">
                <path class="cls-29" d="M20.87,120.69c.39,2.44-.4,4.6-1.76,4.84s-2.8-1.52-3.19-4,.4-4.59,1.76-4.83S20.48,118.27,20.87,120.69Z"/>
              </g>
              <g class="cls-43">
                <path class="cls-44" d="M123.33,91.68c0,2.95-1.34,5.34-3,5.34s-3-2.39-3-5.34,1.36-5.33,3-5.33S123.33,88.73,123.33,91.68Z"/>
              </g>
            </g>
            <g class="cls-45">
              <path class="cls-46" d="M119.9,120.31C113.11,128,106.52,136.92,98.26,143a56.94,56.94,0,0,1-22.82,10.2c-18.67,3.55-36.15-2.78-47.77-18.81-5.93-8.17-10.34-17.54-14.87-26.6a30.67,30.67,0,0,1-2.52-7c1.59,29,22.17,53.13,59.9,54.74,26.53-1.76,44.75-14.39,55.5-42.26C123.92,115.64,122,118,119.9,120.31Z"/>
            </g>
            <g class="cls-47">
              <path class="cls-48" d="M43.19,130.27a.73.73,0,0,0-.6.79,2.11,2.11,0,0,0,.51,1.15.72.72,0,0,0,.16.3c.21.46.59.78,1,.36s.06-1.63-.28-2.13A.94.94,0,0,0,43.19,130.27Z"/>
              <path class="cls-48" d="M40.93,109.75a.34.34,0,0,0-.43.19,2.73,2.73,0,0,0,.13,1.55,1.14,1.14,0,0,0,.34.57.33.33,0,0,0,.5-.14c.27-.24.19-.8.14-1.1S41.35,109.89,40.93,109.75Z"/>
              <path class="cls-48" d="M36.76,105.74a.36.36,0,0,0-.38.3c-.1.68.3,1.25.35,1.89a.65.65,0,0,0,0,.31v.08c0,.15.13.23.25.17a.08.08,0,0,0,.11,0c.48-.08.54-1.06.54-1.47C37.63,106.41,37.4,105.83,36.76,105.74Z"/>
              <path class="cls-48" d="M58.18,100.68a1,1,0,0,0-.7.81,3.06,3.06,0,0,0-.31,1.13c-.61.46-.29,1.44.3,2.22A3.75,3.75,0,0,0,59,106.48c1.26.64,1.86-1.35,2-2.23s.71-3.14-.34-3.78C60.05,100,58.89,100.49,58.18,100.68Z"/>
              <path class="cls-48" d="M69.41,79.38c-.35.28-.2.73,0,1.07a2.2,2.2,0,0,0,.33.44.75.75,0,0,0,1,.41,1.1,1.1,0,0,0,.55-1.13c0-.39-.15-1-.54-1.13A1.47,1.47,0,0,0,69.41,79.38Z"/>
              <path class="cls-48" d="M61.64,44.75a.67.67,0,0,0-.42,0c-.11,0-.15.14-.19.24a.55.55,0,0,0-.17.28.44.44,0,0,0-.12.42.32.32,0,0,0,0,.39.4.4,0,0,0,.26.51h0a.7.7,0,0,0,.51.15.27.27,0,0,0,.26-.3A.34.34,0,0,0,61.9,46a.32.32,0,0,0-.07-.38.28.28,0,0,0-.1-.3A.37.37,0,0,0,61.64,44.75Z"/>
              <path class="cls-48" d="M70.21,72.92a1.92,1.92,0,0,0,0,.22l-.11,0a.29.29,0,0,0-.24.18.39.39,0,0,0-.28.44.34.34,0,0,0,0,.22.23.23,0,0,0-.06.16.33.33,0,0,0,.11.48,1.77,1.77,0,0,0,.41.21h0a.27.27,0,0,0,.2,0,.29.29,0,0,0,.32-.27s.06-.06.07-.09a.39.39,0,0,0,.19-.55.45.45,0,0,0,0-.16.27.27,0,0,0,0-.15,2.62,2.62,0,0,1,.09-.56C71,72.54,70.32,72.47,70.21,72.92Z"/>
              <path class="cls-48" d="M86.45,37.66a.39.39,0,0,0-.1.46s0,0,0,0a.87.87,0,0,0-.08.14.67.67,0,0,0,0,.44.42.42,0,0,0,0,.12.46.46,0,0,0,.11.42v0a.59.59,0,0,0,.19.4.31.31,0,0,0,.26.18h.11a.84.84,0,0,0,.32,0,.3.3,0,0,0,.23-.27l0,0c.35-.26.23-1,.2-1.43a.65.65,0,0,0-.4-.62A.85.85,0,0,0,86.45,37.66Z"/>
              <path class="cls-48" d="M79.64,17.85A1.71,1.71,0,0,0,78.7,19a2.11,2.11,0,0,0,0,.83.9.9,0,0,0,.27.55.32.32,0,0,0-.11.4,1.5,1.5,0,0,0,.22.4.75.75,0,0,0,.49.44c1,.3,1.3-1.39,1.28-2.1S80.56,17.51,79.64,17.85Z"/>
              <path class="cls-48" d="M84.47,17.68a1.83,1.83,0,0,0-.32,1,.3.3,0,0,0,.08.22,1.21,1.21,0,0,0,.28.81.37.37,0,0,0,.59,0c.47-.57.83-1.64.23-2.22C85,17.2,84.66,17.39,84.47,17.68Z"/>
              <path class="cls-48" d="M95.29,34.07c-.73.07-.55,1-.15,1.52a1.2,1.2,0,0,0,.51.51.38.38,0,0,0,.5-.22C96.35,35.2,96.18,34,95.29,34.07Z"/>
              <path class="cls-48" d="M111.9,49.17c-.54-.06-.73.58-.77,1a4.49,4.49,0,0,0,.17,1.36,2,2,0,0,0,.42,1.7c.89.89,1.75-.43,1.94-1.28a1.9,1.9,0,0,0-.63-1.65C112.75,50,112.36,49.22,111.9,49.17Z"/>
              <path class="cls-48" d="M105.06,76.55a2.51,2.51,0,0,0-.7,1.94,1.34,1.34,0,0,0,1.06,1.44c.17,0,.3-.11.39-.25a3.15,3.15,0,0,0-.24-3.15A.31.31,0,0,0,105.06,76.55Z"/>
              <path class="cls-48" d="M82.72,114.72c-.59.41-.13,1.27.25,1.77.28.66.81,1.25,1.54,1.06.92-.25.69-1.62.12-2.13C84.23,115.06,83.28,114.33,82.72,114.72Z"/>
            </g>
            <g class="cls-49">
              <path class="cls-50" d="M48.7,83A4.82,4.82,0,0,1,47,85.42l.91-.65c1.67-.58,1.31.9,2.32,1.38A2,2,0,0,0,48.7,83Z"/>
              <path class="cls-50" d="M106.8,90c1.87-4,0-5.93-.25-9.71C106.75,84.06,103.37,87.48,106.8,90Z"/>
              <path class="cls-50" d="M86.28,25.78Z"/>
              <path class="cls-50" d="M82.16,25.83H83l-.13.05a6.11,6.11,0,0,0-.74,0v-.07Z"/>
            </g>
            <g class="cls-51">
              <path class="cls-52" d="M102.43,99.62a2.22,2.22,0,0,1-1.21.7l.49-.09c.76.1.29.67.56,1.1A1,1,0,0,0,102.43,99.62Z"/>
              <path class="cls-52" d="M122.52,114.91c1.59-1.36,1.31-2.59,2.08-4.28C123.82,112.32,121.8,113.1,122.52,114.91Z"/>
              <path class="cls-52" d="M129.24,82.67Z"/>
              <path class="cls-52" d="M127.7,81.83h0L128,82H128a2.69,2.69,0,0,0-.29-.16v0Z"/>
            </g>
            <g class="cls-53">
              <path class="cls-54" d="M78.31,32.58h0a.48.48,0,0,0-.24-.33h0a.59.59,0,1,0-.43,1.1.7.7,0,0,0,.55-.06A.55.55,0,0,0,78.31,32.58Z"/>
              <path class="cls-54" d="M74.74,56.46h0a.43.43,0,0,0-.24-.34l0,0A.6.6,0,1,0,74,57.22a.69.69,0,0,0,.55-.06A.55.55,0,0,0,74.74,56.46Z"/>
              <path class="cls-54" d="M56.86,84.54h0a.43.43,0,0,0-.24-.34h0a.6.6,0,1,0-.45,1.1.69.69,0,0,0,.55-.06A.53.53,0,0,0,56.86,84.54Z"/>
              <path class="cls-54" d="M40.88,63.54h0a.41.41,0,0,0-.24-.33l0,0a.6.6,0,1,0-.45,1.12.7.7,0,0,0,.55-.08A.51.51,0,0,0,40.88,63.54Z"/>
              <path class="cls-54" d="M68.22,108.58h0a.52.52,0,0,0-.24-.34h0a.59.59,0,1,0-.44,1.1.7.7,0,0,0,.55-.06A.54.54,0,0,0,68.22,108.58Z"/>
              <path class="cls-54" d="M40,116.67h0a.43.43,0,0,0-.24-.34h0a.6.6,0,1,0-.45,1.12.69.69,0,0,0,.56-.08A.53.53,0,0,0,40,116.67Z"/>
              <path class="cls-54" d="M29.56,108.08v0a.45.45,0,0,0-.24-.32h0a.6.6,0,1,0-.44,1.11.7.7,0,0,0,.55-.06A.53.53,0,0,0,29.56,108.08Z"/>
              <path class="cls-54" d="M49.81,131h0a.42.42,0,0,0-.25-.34h0a.6.6,0,1,0-.44,1.11.78.78,0,0,0,.56-.07A.54.54,0,0,0,49.81,131Z"/>
              <path class="cls-54" d="M59,136.15h0a.48.48,0,0,0-.24-.34h0a.59.59,0,1,0-.43,1.1.63.63,0,0,0,.54-.07A.51.51,0,0,0,59,136.15Z"/>
              <path class="cls-54" d="M84.16,139.44h0a.42.42,0,0,0-.24-.32h0a.6.6,0,1,0-.43,1.11.74.74,0,0,0,.55-.07A.55.55,0,0,0,84.16,139.44Z"/>
              <path class="cls-54" d="M84.16,129.58h0a.43.43,0,0,0-.24-.33h0a.6.6,0,1,0-.43,1.12.75.75,0,0,0,.55-.08A.54.54,0,0,0,84.16,129.58Z"/>
              <path class="cls-54" d="M98.16,129.07h0a.45.45,0,0,0-.24-.34l0,0a.6.6,0,1,0-.44,1.12.66.66,0,0,0,.55-.07A.52.52,0,0,0,98.16,129.07Z"/>
              <path class="cls-54" d="M106.62,31.42h0a.53.53,0,0,0-.25-.34h0a.59.59,0,1,0-.44,1.1.66.66,0,0,0,.55-.06A.52.52,0,0,0,106.62,31.42Z"/>
              <path class="cls-54" d="M90,19.77h0a.43.43,0,0,0-.24-.33h0a.6.6,0,1,0-.44,1.11.71.71,0,0,0,.54-.06A.56.56,0,0,0,90,19.77Z"/>
              <path class="cls-54" d="M71.35,24.84h0a.42.42,0,0,0-.24-.33h0a.6.6,0,1,0-.44,1.11.7.7,0,0,0,.55-.07A.52.52,0,0,0,71.35,24.84Z"/>
              <path class="cls-54" d="M41.16,39h0a.43.43,0,0,0-.24-.34.07.07,0,0,0,0,0,.6.6,0,1,0-.43,1.11A.64.64,0,0,0,41,39.7.54.54,0,0,0,41.16,39Z"/>
              <path class="cls-54" d="M111,57.48h0a.48.48,0,0,0-.25-.34h0a.6.6,0,1,0-.43,1.11.72.72,0,0,0,.54-.06A.53.53,0,0,0,111,57.48Z"/>
            </g>
          </g>
          <g>
            <path class="cls-55" d="M106.33,59.77s13-26.65,49.62-14.39c38.74,13,65.16,44.25,65.16,74.64-2.29,27.72-42.5,38.11-66.93,35.71s-39.45-18.39-49.13-46.37C101.24,98.15,96.16,82.43,106.33,59.77Z"/>
            <g>
              <path class="cls-56" d="M156.52,137.69c1.79.63,3,1.91,2.7,2.86s-2,1.18-3.81.54-3-1.92-2.71-2.87S154.72,137.05,156.52,137.69Z"/>
              <path class="cls-57" d="M128,67c-.52,1.65-1.58,2.75-2.36,2.48s-1-1.83-.48-3.47,1.59-2.75,2.37-2.48S128.5,65.39,128,67Z"/>
              <path class="cls-58" d="M111,66.68c.11,1.27-.27,2.33-.87,2.4s-1.19-.9-1.31-2.16.27-2.33.87-2.4S110.85,65.42,111,66.68Z"/>
              <path class="cls-59" d="M151.15,119.43c.29.63.28,1.26,0,1.41s-.78-.23-1.07-.87-.29-1.27,0-1.42S150.86,118.79,151.15,119.43Z"/>
              <path class="cls-60" d="M143.8,107.66c-.13.7-.51,1.19-.84,1.12s-.48-.69-.34-1.38.51-1.19.85-1.12S144,107,143.8,107.66Z"/>
              <path class="cls-61" d="M130.85,122.48c.33.61.37,1.24.07,1.41s-.79-.17-1.13-.78-.37-1.25-.08-1.43S130.52,121.86,130.85,122.48Z"/>
              <path class="cls-62" d="M171.3,99.08c.93,1,1.25,2.25.7,2.83s-1.75.26-2.71-.72-1.24-2.25-.69-2.84S170.36,98.11,171.3,99.08Z"/>
              <path class="cls-63" d="M189,129.22c-.16,1.38-.93,2.4-1.7,2.3s-1.27-1.3-1.1-2.69.94-2.4,1.71-2.31S189.14,127.83,189,129.22Z"/>
              <path class="cls-64" d="M191.73,98.2c.43.58.5,1.27.17,1.52s-.93,0-1.35-.58-.49-1.27-.16-1.52S191.32,97.62,191.73,98.2Z"/>
              <path class="cls-65" d="M206.6,123.06c.09.72-.18,1.35-.59,1.4s-.8-.5-.87-1.24.18-1.34.6-1.39S206.54,122.33,206.6,123.06Z"/>
              <path class="cls-66" d="M190.37,128.79c-.19,2.91-1.67,5.17-3.3,5.05s-2.81-2.57-2.62-5.48,1.68-5.16,3.31-5S190.57,125.88,190.37,128.79Z"/>
              <g class="cls-67">
                <path class="cls-68" d="M190.37,128.79c-.19,2.91-1.67,5.17-3.3,5.05s-2.81-2.57-2.62-5.48,1.68-5.16,3.31-5S190.57,125.88,190.37,128.79Z"/>
              </g>
              <path class="cls-66" d="M172.44,98c2.05,2,2.8,4.6,1.67,5.87s-3.66.68-5.71-1.3-2.79-4.6-1.67-5.87S170.4,96,172.44,98Z"/>
              <g class="cls-69">
                <path class="cls-68" d="M172.44,98c2.05,2,2.8,4.6,1.67,5.87s-3.66.68-5.71-1.3-2.79-4.6-1.67-5.87S170.4,96,172.44,98Z"/>
              </g>
              <path class="cls-66" d="M152.41,118.39c1.09,1.93,1.08,4,0,4.72s-2.85-.36-3.94-2.31-1.07-4,0-4.72S151.33,116.44,152.41,118.39Z"/>
              <g class="cls-70">
                <path class="cls-68" d="M152.41,118.39c1.09,1.93,1.08,4,0,4.72s-2.85-.36-3.94-2.31-1.07-4,0-4.72S151.33,116.44,152.41,118.39Z"/>
              </g>
              <path class="cls-66" d="M131.52,122c.75,1.33.75,2.79,0,3.24s-2-.24-2.72-1.58-.73-2.78,0-3.25S130.78,120.68,131.52,122Z"/>
              <g class="cls-71">
                <path class="cls-68" d="M131.52,122c.75,1.33.75,2.79,0,3.24s-2-.24-2.72-1.58-.73-2.78,0-3.25S130.78,120.68,131.52,122Z"/>
              </g>
              <path class="cls-72" d="M124.63,128.61c.5.48.7,1.08.48,1.34s-.82.07-1.3-.41-.72-1.07-.49-1.33S124.14,128.13,124.63,128.61Z"/>
              <path class="cls-66" d="M125.14,128c1.09,1,1.5,2.43.91,3.1s-1.94.38-3-.66-1.5-2.43-.91-3.1S124.06,126.92,125.14,128Z"/>
              <g class="cls-73">
                <path class="cls-68" d="M125.14,128c1.09,1,1.5,2.43.91,3.1s-1.94.38-3-.66-1.5-2.43-.91-3.1S124.06,126.92,125.14,128Z"/>
              </g>
              <path class="cls-66" d="M145,108.21c-.6,1.75-1.9,2.86-2.89,2.5s-1.28-2.11-.68-3.87,1.91-2.85,2.89-2.48S145.65,106.45,145,108.21Z"/>
              <g class="cls-74">
                <path class="cls-68" d="M145,108.21c-.6,1.75-1.9,2.86-2.89,2.5s-1.28-2.11-.68-3.87,1.91-2.85,2.89-2.48S145.65,106.45,145,108.21Z"/>
              </g>
              <path class="cls-66" d="M192.82,97.44c1.14,1.68,1.3,3.61.36,4.33s-2.64-.08-3.79-1.76-1.31-3.62-.37-4.32S191.67,95.75,192.82,97.44Z"/>
              <g class="cls-75">
                <path class="cls-76" d="M192.82,97.44c1.14,1.68,1.3,3.61.36,4.33s-2.64-.08-3.79-1.76-1.31-3.62-.37-4.32S191.67,95.75,192.82,97.44Z"/>
              </g>
              <path class="cls-66" d="M208,122.93c.34,2.16-.36,4.08-1.57,4.28s-2.48-1.35-2.83-3.51.36-4.07,1.59-4.29S207.68,120.78,208,122.93Z"/>
              <g class="cls-77">
                <path class="cls-68" d="M208,122.93c.34,2.16-.36,4.08-1.57,4.28s-2.48-1.35-2.83-3.51.36-4.07,1.59-4.29S207.68,120.78,208,122.93Z"/>
              </g>
              <path class="cls-66" d="M129.35,67.38c-.91,3-3,5-4.72,4.41s-2.32-3.45-1.41-6.45,3-5,4.72-4.41S130.26,64.38,129.35,67.38Z"/>
              <g class="cls-78">
                <path class="cls-68" d="M129.35,67.38c-.91,3-3,5-4.72,4.41s-2.32-3.45-1.41-6.45,3-5,4.72-4.41S130.26,64.38,129.35,67.38Z"/>
              </g>
              <path class="cls-66" d="M156.7,136.12c2.88.92,4.8,3.1,4.28,4.89s-3.26,2.47-6.15,1.56-4.79-3.1-4.28-4.88S153.82,135.21,156.7,136.12Z"/>
              <g class="cls-79">
                <path class="cls-68" d="M156.7,136.12c2.88.92,4.8,3.1,4.28,4.89s-3.26,2.47-6.15,1.56-4.79-3.1-4.28-4.88S153.82,135.21,156.7,136.12Z"/>
              </g>
            </g>
            <g class="cls-47">
              <path class="cls-48" d="M196.25,142.94a.73.73,0,0,0,.5.86,1.83,1.83,0,0,0,1.2-.11.8.8,0,0,0,.32-.05c.49,0,.92-.31.69-.87-.29-.71-1.45-.62-2-.46A.9.9,0,0,0,196.25,142.94Z"/>
              <path class="cls-48" d="M177.09,138a.35.35,0,0,0,0,.48,2.41,2.41,0,0,0,1.43.41,1,1,0,0,0,.62-.13c.16-.14.23-.42,0-.55-.1-.36-.64-.46-.93-.51A1.15,1.15,0,0,0,177.09,138Z"/>
              <path class="cls-48" d="M172.05,140.74a.36.36,0,0,0,.15.47c.55.34,1.21.14,1.79.32a.66.66,0,0,0,.28.11l.07,0c.13.08.25-.05.25-.18a.26.26,0,0,0,0-.11c.1-.52-.76-.92-1.12-1A1,1,0,0,0,172.05,140.74Z"/>
              <path class="cls-48" d="M174.94,117.94a1,1,0,0,0,.48,1,3.11,3.11,0,0,0,.91.71c.22.75,1.2.79,2.09.47a3.48,3.48,0,0,0,2-1c1-1-.56-2.29-1.28-2.78s-2.56-1.79-3.52-1C175,115.88,175,117.18,174.94,117.94Z"/>
              <path class="cls-48" d="M159.77,99.51c.13.45.58.46.95.39a2.54,2.54,0,0,0,.51-.17.78.78,0,0,0,.7-.82,1,1,0,0,0-.81-.91,1.15,1.15,0,0,0-1.2.13A1.59,1.59,0,0,0,159.77,99.51Z"/>
              <path class="cls-48" d="M126.07,95.14a.67.67,0,0,0-.13.41.29.29,0,0,0,.16.27.45.45,0,0,0,.18.27.39.39,0,0,0,.33.27.29.29,0,0,0,.35.14.36.36,0,0,0,.54-.08h0a.77.77,0,0,0,.32-.45.29.29,0,0,0-.18-.35.33.33,0,0,0-.34-.3.32.32,0,0,0-.36-.06.32.32,0,0,0-.33,0A.31.31,0,0,0,126.07,95.14Z"/>
              <path class="cls-48" d="M154.26,96.5l.18.1a.36.36,0,0,0,0,.11.32.32,0,0,0,.08.31.37.37,0,0,0,.29.41.2.2,0,0,0,.18.09.5.5,0,0,0,.12.13.31.31,0,0,0,.48.06,2.57,2.57,0,0,0,.33-.33h0a.35.35,0,0,0,.07-.21.34.34,0,0,0-.15-.4.16.16,0,0,0,0-.1.36.36,0,0,0-.44-.36.21.21,0,0,0-.13-.09.2.2,0,0,0-.11-.09,2.82,2.82,0,0,1-.48-.27C154.19,95.59,153.89,96.23,154.26,96.5Z"/>
              <path class="cls-48" d="M128.33,68.31a.37.37,0,0,0,.36.26l0,0a.45.45,0,0,0,.1.14.7.7,0,0,0,.39.16l.09.08a.44.44,0,0,0,.43,0l0,0a.45.45,0,0,0,.41,0,.27.27,0,0,0,.26-.2.29.29,0,0,1,0-.1.86.86,0,0,0,.09-.33.33.33,0,0,0-.16-.31.08.08,0,0,1,0,0c-.11-.43-.86-.58-1.21-.69a.58.58,0,0,0-.69.18A.91.91,0,0,0,128.33,68.31Z"/>
              <path class="cls-48" d="M108.22,68.11a1.73,1.73,0,0,0,.7,1.33,2.06,2.06,0,0,0,.75.31.83.83,0,0,0,.59-.08.3.3,0,0,0,.32.24,1.29,1.29,0,0,0,.42-.06.73.73,0,0,0,.56-.34c.65-.92-.78-1.76-1.43-2S108.23,67.1,108.22,68.11Z"/>
              <path class="cls-48" d="M109.74,63.33a1.86,1.86,0,0,0,.79.66.24.24,0,0,0,.23,0,1.06,1.06,0,0,0,.82,0,.41.41,0,0,0,.19-.59c-.35-.65-1.18-1.38-1.91-1A.62.62,0,0,0,109.74,63.33Z"/>
              <path class="cls-48" d="M128.18,58.38c-.19.74.75.91,1.31.68a1.2,1.2,0,0,0,.64-.33.43.43,0,0,0,0-.56C129.55,57.74,128.41,57.46,128.18,58.38Z"/>
              <path class="cls-48" d="M147.47,47.31c-.25.5.25.92.65,1.1a3.7,3.7,0,0,0,1.27.31,1.81,1.81,0,0,0,1.67.18c1.11-.56.23-1.87-.47-2.35a1.71,1.71,0,0,0-1.71.05C148.5,46.77,147.67,46.87,147.47,47.31Z"/>
              <path class="cls-48" d="M169.6,63.53c.29.55.86,1.27,1.51,1.34a1.21,1.21,0,0,0,1.64-.53.41.41,0,0,0-.08-.46,2.81,2.81,0,0,0-2.91-.87C169.54,63.06,169.5,63.34,169.6,63.53Z"/>
              <path class="cls-48" d="M196,98.71c.16.72,1.09.57,1.67.36.7,0,1.41-.36,1.48-1.15.09-1-1.21-1.23-1.86-.86C196.86,97.34,195.88,98,196,98.71Z"/>
            </g>
            <g class="cls-53">
              <path class="cls-54" d="M133.2,72.25h0a.42.42,0,0,0-.39,0l0,0c-.7.48,0,1.53.62,1a.75.75,0,0,0,.26-.51A.52.52,0,0,0,133.2,72.25Z"/>
              <path class="cls-54" d="M150,88.82h0a.42.42,0,0,0-.39,0,.14.14,0,0,1,0,0c-.69.47,0,1.53.64,1a.74.74,0,0,0,.25-.51A.53.53,0,0,0,150,88.82Z"/>
              <path class="cls-54" d="M149.78,102.92h0a.48.48,0,0,0-.4,0l0,0c-.69.47,0,1.53.63,1a.83.83,0,0,0,.27-.52A.53.53,0,0,0,149.78,102.92Z"/>
              <path class="cls-54" d="M136.47,122.09h0a.44.44,0,0,0-.4,0l0,0c-.69.47,0,1.53.63,1a.81.81,0,0,0,.26-.53A.51.51,0,0,0,136.47,122.09Z"/>
              <path class="cls-54" d="M175.12,106.67h0a.47.47,0,0,0-.4,0,0,0,0,0,0,0,0c-.7.46-.05,1.51.63,1a.72.72,0,0,0,.25-.51A.53.53,0,0,0,175.12,106.67Z"/>
              <path class="cls-54" d="M165.55,135.68h0a.39.39,0,0,0-.39,0,.08.08,0,0,0,0,0c-.69.46,0,1.52.64,1a.72.72,0,0,0,.25-.51A.52.52,0,0,0,165.55,135.68Z"/>
              <path class="cls-54" d="M152.91,139.8h0a.42.42,0,0,0-.39,0l0,0c-.68.48,0,1.54.64,1a.68.68,0,0,0,.25-.51A.51.51,0,0,0,152.91,139.8Z"/>
              <path class="cls-54" d="M182.41,135.24h0a.43.43,0,0,0-.4,0l0,0c-.7.48,0,1.53.62,1a.71.71,0,0,0,.26-.5A.52.52,0,0,0,182.41,135.24Z"/>
              <path class="cls-54" d="M191.68,130.18h0a.44.44,0,0,0-.4,0l0,0c-.7.48,0,1.54.62,1a.74.74,0,0,0,.27-.51A.52.52,0,0,0,191.68,130.18Z"/>
              <path class="cls-54" d="M208.45,110.32h0a.46.46,0,0,0-.4,0s0,0,0,0c-.69.47,0,1.52.64,1a.76.76,0,0,0,.25-.52A.5.5,0,0,0,208.45,110.32Z"/>
              <path class="cls-54" d="M200.68,104.74h0a.49.49,0,0,0-.39,0,.14.14,0,0,1,0,0c-.69.47,0,1.53.63,1a.78.78,0,0,0,.27-.51A.54.54,0,0,0,200.68,104.74Z"/>
              <path class="cls-54" d="M208.19,92.34h0a.39.39,0,0,0-.4,0s0,0,0,0c-.7.47,0,1.53.63,1a.74.74,0,0,0,.25-.51A.52.52,0,0,0,208.19,92.34Z"/>
              <path class="cls-54" d="M148.27,47.12h0a.44.44,0,0,0-.4,0l0,0c-.7.47,0,1.53.63,1a.77.77,0,0,0,.26-.52A.51.51,0,0,0,148.27,47.12Z"/>
              <path class="cls-54" d="M129.68,55h0a.41.41,0,0,0-.4,0l0,0c-.7.47,0,1.53.62,1a.77.77,0,0,0,.26-.51A.52.52,0,0,0,129.68,55Z"/>
              <path class="cls-54" d="M123.17,73.9h0a.44.44,0,0,0-.4,0,.07.07,0,0,0,0,0c-.69.47,0,1.53.63,1a.81.81,0,0,0,.26-.52A.52.52,0,0,0,123.17,73.9Z"/>
              <path class="cls-54" d="M117.29,108h0a.39.39,0,0,0-.39,0l0,0c-.69.47,0,1.52.63,1a.73.73,0,0,0,.26-.51A.51.51,0,0,0,117.29,108Z"/>
              <path class="cls-54" d="M171.28,58h0a.44.44,0,0,0-.4,0,.07.07,0,0,0,0,0c-.69.48,0,1.52.64,1a.92.92,0,0,0,.26-.52A.54.54,0,0,0,171.28,58Z"/>
            </g>
            <g class="cls-51">
              <g class="cls-80">
                <path class="cls-81" d="M157.23,150c-24-.4-41.61-24.39-41.23-36.79.59-19.18-2.28-19.2-11.06-34.77a23,23,0,0,1-2.54-7.72c-4.55,16.92-.52,29.33,2.65,38.64,9.68,28,24.7,44,49.13,46.37,16.28,1.6,39.54-2.48,53.93-13.58C191.35,150.37,175.51,150.3,157.23,150Z"/>
              </g>
            </g>
          </g>
        </g>
      </g>
    </g>
  </g>
</svg>
