<svg id="Layer_1" data-name="Layer 1" xmlns="http://www.w3.org/2000/svg" xmlns:xlink="http://www.w3.org/1999/xlink" width="139.91" height="229.11" viewBox="0 0 139.91 229.11">
  <defs>
    <style>
      .cls-1 {
        opacity: 0.3;
      }

      .cls-2 {
        fill: url(#radial-gradient);
      }

      .cls-3 {
        fill: #ee9e4a;
      }

      .cls-4 {
        fill: url(#radial-gradient-2);
      }

      .cls-5 {
        fill: #ec942c;
      }

      .cls-6 {
        fill: url(#radial-gradient-3);
      }

      .cls-7 {
        fill: url(#radial-gradient-4);
      }

      .cls-8 {
        fill: #9e4f24;
      }

      .cls-9 {
        fill: url(#radial-gradient-5);
      }

      .cls-10 {
        fill: url(#radial-gradient-6);
      }

      .cls-11 {
        fill: #984421;
      }

      .cls-12 {
        fill: url(#radial-gradient-7);
      }

      .cls-13 {
        fill: #f6d85b;
      }

      .cls-14 {
        fill: url(#radial-gradient-8);
      }

      .cls-15 {
        fill: #59843c;
      }

      .cls-16 {
        fill: #e6e41b;
      }

      .cls-17 {
        fill: url(#radial-gradient-9);
      }

      .cls-18 {
        fill: #517837;
      }

      .cls-19 {
        fill: url(#radial-gradient-10);
      }

      .cls-20 {
        fill: url(#radial-gradient-11);
      }

      .cls-21 {
        fill: #7bb553;
      }

      .cls-22 {
        fill: url(#radial-gradient-12);
      }

      .cls-23 {
        fill: url(#radial-gradient-13);
      }

      .cls-24 {
        fill: #f4f0ed;
      }
    </style>
    <radialGradient id="radial-gradient" cx="1222.07" cy="3090.6" r="0.83" gradientTransform="matrix(20.95, 91.57, -72.74, 16.64, 199288.13, -163214.1)" gradientUnits="userSpaceOnUse">
      <stop offset="0" stop-color="#fbde70"/>
      <stop offset="1" stop-color="#f8bb18"/>
    </radialGradient>
    <radialGradient id="radial-gradient-2" cx="1222.07" cy="3090.6" r="0.83" gradientTransform="matrix(20.95, 91.57, -72.74, 16.64, 199288.16, -163213.94)" gradientUnits="userSpaceOnUse">
      <stop offset="0" stop-color="#fad047"/>
      <stop offset="1" stop-color="#f6b019"/>
    </radialGradient>
    <radialGradient id="radial-gradient-3" cx="1222.07" cy="3090.61" r="0.83" gradientTransform="matrix(20.95, 91.55, -72.72, 16.64, 199236.45, -163170.47)" gradientUnits="userSpaceOnUse">
      <stop offset="0" stop-color="#fce383"/>
      <stop offset="1" stop-color="#fac919"/>
    </radialGradient>
    <radialGradient id="radial-gradient-4" cx="962.4" cy="2947.49" r="0.83" gradientTransform="matrix(23.5, -2.74, 4.22, 35, -34976.65, -100477.86)" gradientUnits="userSpaceOnUse">
      <stop offset="0" stop-color="#db8727"/>
      <stop offset="1" stop-color="#9d5d26"/>
    </radialGradient>
    <radialGradient id="radial-gradient-5" cx="449.08" cy="1285.04" r="0.83" gradientTransform="matrix(6.22, -2.23, 1.2, 2.43, -4248.03, -2096.37)" xlink:href="#radial-gradient-4"/>
    <radialGradient id="radial-gradient-6" cx="449.08" cy="1285.04" r="0.83" gradientTransform="matrix(6.22, -2.23, 1.2, 2.43, -4248.03, -2096.37)" gradientUnits="userSpaceOnUse">
      <stop offset="0" stop-color="#d27528"/>
      <stop offset="1" stop-color="#975023"/>
    </radialGradient>
    <radialGradient id="radial-gradient-7" cx="961.47" cy="2947.19" r="0.83" gradientTransform="matrix(23.42, -2.73, 4.21, 34.89, -34841.44, -100148)" xlink:href="#radial-gradient-6"/>
    <radialGradient id="radial-gradient-8" cx="1322.02" cy="2894.2" r="0.83" gradientTransform="matrix(-27.34, -34.81, 16.51, -12.97, -11583.11, 83594.7)" gradientUnits="userSpaceOnUse">
      <stop offset="0" stop-color="#97c93d"/>
      <stop offset="1" stop-color="#219e49"/>
    </radialGradient>
    <radialGradient id="radial-gradient-9" cx="1322.02" cy="2894.2" r="0.83" gradientTransform="matrix(-27.34, -34.81, 16.51, -12.97, -11583.11, 83594.7)" gradientUnits="userSpaceOnUse">
      <stop offset="0" stop-color="#89b53f"/>
      <stop offset="1" stop-color="#208f45"/>
    </radialGradient>
    <radialGradient id="radial-gradient-10" cx="1322.02" cy="2894.2" r="0.83" xlink:href="#radial-gradient-9"/>
    <radialGradient id="radial-gradient-11" cx="1322.02" cy="2894.2" r="0.83" gradientTransform="matrix(-27.34, -34.81, 16.51, -12.97, -11583.11, 83594.7)" gradientUnits="userSpaceOnUse">
      <stop offset="0" stop-color="#c0d857"/>
      <stop offset="0.17" stop-color="#b1d459"/>
      <stop offset="0.51" stop-color="#8ac95e"/>
      <stop offset="0.97" stop-color="#4ab865"/>
      <stop offset="1" stop-color="#46b766"/>
    </radialGradient>
    <radialGradient id="radial-gradient-12" cx="1222.07" cy="3090.6" r="0.83" gradientTransform="matrix(20.95, 91.57, -72.74, 16.64, 199288.16, -163213.94)" gradientUnits="userSpaceOnUse">
      <stop offset="0.01" stop-color="#f8e299"/>
      <stop offset="0.98" stop-color="#fbe5a3"/>
    </radialGradient>
    <radialGradient id="radial-gradient-13" cx="1225.34" cy="3089.18" r="0.83" gradientTransform="matrix(25.04, 102.09, -78.91, 16.72, 213161.12, -176613.35)" xlink:href="#radial-gradient-12"/>
  </defs>
  <g>
    <g class="cls-1">
      <path d="M42.14,24.39h0c-.57-.41-1.18-.8-1.81-1.2C41,23.58,41.58,24,42.14,24.39Z"/>
      <path d="M38.85,22.32c.44.25.88.49,1.3.74L40,23l-.52-.32-.63-.35a42.84,42.84,0,0,1,12,1.11l.28.06A42.76,42.76,0,0,0,38.85,22.32Z"/>
      <path d="M62.52,41.37h0l.65.35Z"/>
      <path d="M65.59,58.23c-.94.4-1.92.78-3,1.11C63.67,59,64.65,58.63,65.59,58.23Z"/>
      <path d="M68.71,45h0c.83.52,1.65,1,2.44,1.56C70.34,46,69.53,45.5,68.71,45Z"/>
      <path d="M39.1,22.94l-.36-.2c-.94.07-1.78.16-2.52.25A24.76,24.76,0,0,1,39.1,22.94Z"/>
      <path d="M60.26,60.46h0Z"/>
      <path d="M61.71,41.46l-.32.32.33-.31Z"/>
      <path d="M64.66,32.43h0A21.4,21.4,0,0,1,66,34.9,22.75,22.75,0,0,0,64.66,32.43Z"/>
      <path d="M34.3,50.8l.49.09h0Z"/>
      <path d="M65.56,33.11h0a.43.43,0,0,0,0,.07Z"/>
      <path d="M36.22,23a16.49,16.49,0,0,0-2.92.54C33.77,23.42,34.78,23.2,36.22,23Z"/>
      <path d="M84.69,20.47c-.4-.63-.78-1.18-1.13-1.65C83.91,19.29,84.29,19.84,84.69,20.47Z"/>
      <path d="M84.73,20.54c.46.72.93,1.55,1.42,2.5C85.66,22.09,85.19,21.26,84.73,20.54Z"/>
      <path d="M88.58,29.06c-.39-1.22-.8-2.35-1.23-3.38C87.78,26.71,88.19,27.84,88.58,29.06Z"/>
      <path d="M82.52,17.54l.23,0-.24,0Z"/>
      <path d="M82.55,14.76a10.91,10.91,0,0,1,3.1-2A10.77,10.77,0,0,0,82.55,14.76Z"/>
      <path d="M24.54,40.78l-.5-.12h0l.51.13Z"/>
      <path d="M33.18,50.14c.26,0,.51.12.76.16h0Z"/>
      <path d="M20.05,31.72h0Z"/>
      <path d="M23.21,27.78a27.93,27.93,0,0,1,12.25-5.09A27.82,27.82,0,0,0,23.21,27.78Z"/>
      <path d="M23.63,40.12l.39.09-.4-.1Z"/>
      <path d="M20.55,31.25l-.62.07.6-.06Z"/>
      <path d="M90.42,59.73c0-.41.09-.81.14-1.21l-.15,1.19Z"/>
      <path d="M95.26,24.91l-.15-.82h0c.06.29.1.58.16.87Z"/>
      <path d="M95,56.81c0,.24-.08.48-.12.75h0Z"/>
      <path d="M95.61,27.09l-.15-1v0c.05.36.11.72.16,1.08Z"/>
      <path d="M96.14,46.63a2,2,0,0,0,0-.25c0-.43.06-.87.08-1.31,0-.21,0-.43,0-.65l.06-1.24,0-.73,0-1.23c0-.25,0-.5,0-.74,0-.42,0-.84,0-1.26,0-.23,0-.47,0-.7,0-.44,0-.88,0-1.32,0-.12,0-.25,0-.38,0-.47,0-1-.06-1.43a106.14,106.14,0,0,1-.67,16.23v0C95.86,50,96,48.32,96.14,46.63Z"/>
      <path d="M95.88,29.2c0-.35-.08-.7-.13-1.05v-.07c.06.41.11.81.15,1.22A.34.34,0,0,0,95.88,29.2Z"/>
      <path d="M134.23,187.54c-4.08-7.89-5.54-16-5.07-28.11.18-4.32.57-8.85,1-13.66.63-7.38,1.36-15.75,1.37-24.81,0-14.36-3.29-26.6-9.8-36.35a50.8,50.8,0,0,0-19-17,145.31,145.31,0,0,0,2.56-15.15c1.27-8.1,1.59-14.74,1-20.33-.21-1.9-.62-4.29-1.19-6.93-.27-1.8-.6-3.57-1-5.26a68.58,68.58,0,0,0-3.33-10.77c0-.07-.22-.53-.26-.61q-.18-.43-.33-.72l-.25-.47A10.82,10.82,0,0,0,91.41,2c-.45,0-.92-.07-1.39-.07a17.57,17.57,0,0,0-3.9.47,24.21,24.21,0,0,0-4.24,1.41l-.18.08C79,5.12,75.34,7.36,73.37,11A11.21,11.21,0,0,0,72,15.79a9.44,9.44,0,0,0,3.22,8.12,48.43,48.43,0,0,0-11.74-6.77c-.81-.31-1.6-.61-2.38-.88a8.69,8.69,0,0,0-1.27-.44A58.93,58.93,0,0,0,41,12.48a43.68,43.68,0,0,0-7.12.57c-14,2.3-21.59,10.82-23.79,14.54h0l-.07.12a9.52,9.52,0,0,0,0,9.71l.08.12a87.58,87.58,0,0,0,15.1,18.85,9.26,9.26,0,0,0,2.11,1.89,70.79,70.79,0,0,0,8.67,6.39,4.86,4.86,0,0,0,.54.33l.32.19c1.71,1,3.47,2,5.26,2.85q-2.1,1.2-4.08,2.57C22.06,81.71,12.6,100,11.49,122.2c-1.12,21.93,6.32,46.07,20.94,68,.59.88,1.18,1.75,1.8,2.63,16,22.89,34.68,30.87,47.58,33.54a63.62,63.62,0,0,0,12.84,1.33h0c11.08,0,21.52-3,29.39-8.43a30,30,0,0,0,11.14-13.32A22,22,0,0,0,134.23,187.54Zm-7.58,14.9a20.73,20.73,0,0,1-7.76,9.07c-8.16,5.63-21.14,8.6-35.25,5.68S54.3,205.44,41.72,187.4c-.58-.83-1.14-1.65-1.7-2.48C25.74,163.5,19.7,141.61,20.66,122.68s8.92-34.87,22.62-44.35A51.62,51.62,0,0,1,63,70.21a59.79,59.79,0,0,1,23.84,1.27c.36.09.73.19,1.09.3.72-3.2,1.27-6.21,1.7-9.08A54.51,54.51,0,0,1,82,64.46a60.68,60.68,0,0,1-29.77-2.34A57,57,0,0,1,41.46,57L41.31,57l-.16-.09h0a60.26,60.26,0,0,1-8.64-6.44l-.19,0,0-.1A77.13,77.13,0,0,1,18,32.63l-.07-.12L18,32.4s5.13-8.1,17.38-10.12c5.73-1,13-.54,22.08,2.6v0l.08.06c.86.3,1.72.61,2.6.95,8.5,3.36,15.24,10,20.25,16.63,1.34,1.76,2.66,3.67,3.93,5.73l.17.28.08.11a.54.54,0,0,0,.07.13A90.28,90.28,0,0,1,90.08,59c1.28-10.85.64-19.24-.76-25.55a39.92,39.92,0,0,0-5-12.69,25.22,25.22,0,0,0-2.1-2.88c-.27-.3-.49-.53-.64-.67l0,0-.08-.08,0,0-.06,0-.27-.23.12-.05a1.42,1.42,0,0,1,0-.16,1.45,1.45,0,0,1,.2-1,8.91,8.91,0,0,1,4.08-3.13,15.14,15.14,0,0,1,2.61-.88,7.85,7.85,0,0,1,2.4-.23,1.76,1.76,0,0,1,1.45.74,1.39,1.39,0,0,1,.12.28,2.11,2.11,0,0,1,0,.26l.09,0,.08.19A58.39,58.39,0,0,1,95.11,22c.36,1.62.65,3.26.89,4.91.54,2.46.92,4.65,1.1,6.27.57,5.31,0,11.69-1,18A138.08,138.08,0,0,1,91.82,73a43.77,43.77,0,0,1,22.3,16.84c5,7.5,8.23,17.6,8.21,31.1,0,14.33-1.88,26.66-2.35,38.09s.51,22,6.12,32.85A12.37,12.37,0,0,1,126.65,202.44Z"/>
      <path d="M90.94,74.55h0l.25-.85h0C91.11,74,91,74.28,90.94,74.55Z"/>
      <path d="M109.71,130.84a1.74,1.74,0,0,0,.1.19,2.81,2.81,0,0,0,2.26,1.31,2.72,2.72,0,0,0,1.73-.5,2.88,2.88,0,0,1-1.7.39A3.14,3.14,0,0,1,109.71,130.84Z"/>
      <path d="M91.59,73.83l1.08.39-1.08-.39Z"/>
      <path d="M94.14,61.47c-.89,4.55-1.88,8.46-2.71,11.41h0c.84-3,1.84-6.92,2.73-11.52Z"/>
      <path d="M96.29,34c0-.22,0-.43,0-.65,0-.39,0-.79-.09-1.18l0-.38c.07.81.12,1.62.17,2.43A1.62,1.62,0,0,1,96.29,34Z"/>
      <path d="M47.59,193.67a70.17,70.17,0,0,0,22.17,17.8A70.28,70.28,0,0,1,47.59,193.67Z"/>
      <path d="M86.63,78.58c.24-.92.48-1.82.71-2.72-.23.89-.47,1.8-.72,2.72Z"/>
      <path d="M74.09,53.67v0c-.67.52-1.44,1.09-2.31,1.67C72.64,54.75,73.42,54.18,74.09,53.67Z"/>
      <path d="M96.09,31.28c0-.37-.07-.74-.1-1.11A.88.88,0,0,1,96,30c0,.46.09.93.13,1.39A.49.49,0,0,0,96.09,31.28Z"/>
      <path d="M87.68,74.49l0-.15c-.07.33-.14.64-.22,1C87.54,75,87.62,74.76,87.68,74.49Z"/>
      <path d="M87.13,75c.05-.18.08-.35.13-.53A5,5,0,0,0,87.13,75Z"/>
      <path d="M67,57.57c.93-.46,1.81-.93,2.63-1.42C68.83,56.64,68,57.11,67,57.57Z"/>
      <path d="M95.56,52.55v0h0Z"/>
      <path d="M88.45,71.16c.49-2.25.9-4.41,1.25-6.49q-.53,3.12-1.26,6.48Z"/>
      <path d="M89.75,64.36c.09-.61.19-1.21.28-1.8h0C89.93,63.16,89.85,63.75,89.75,64.36Z"/>
    </g>
    <g>
      <path class="cls-2" d="M82.66,74.11l-1.11-.27c-9.72-2.44-18.91-2.1-23.49-1.22A51.45,51.45,0,0,0,38.7,80.46C25.26,89.59,17.4,105,16.45,123.39s5,39.73,19.23,60.64c.54.82,1.1,1.63,1.68,2.44C46.29,199,56.54,207,66.73,211.54,55.09,206,44.33,195.42,35.8,182.86c-12-17.68-19.52-39.17-18.8-55.79.32-7.3.62-40,31.82-51.38a54.9,54.9,0,0,1,34.06-1.38C82.94,74.18,82.6,74.25,82.66,74.11ZM68.89,153.52c-4.88-7.21-8-17.13-8.06-28.1-.2-22.2,11.78-40.28,26.78-40.42,7.57-.09,14.46,4.46,19.46,11.8s8,17.14,8.06,28.1c.2,22.2-11.79,40.28-26.78,40.44C80.78,165.41,73.89,160.86,68.89,153.52Zm39.5-62c-5.73-8.46-13.84-13.45-22-16.28-.09.14-.17.28-.25.43a52.81,52.81,0,0,1,16.6,9.79S82.1,73.05,58.47,92.6C43.8,104.72,33,131.19,55.11,168.26c1.12,1.87,2.25,3.63,3.4,5.33,23.61,34.81,51.42,29.68,58.34,10.94,0,0,2.28,5,4.25,10.56s-6.65,23.41-40.5,20.39a38.35,38.35,0,0,1-5.06-.82c1.08.27,2.16.54,3.23.75,13.9,2.85,26.68-.07,34.61-5.45a19.63,19.63,0,0,0,7.46-8.55,11.18,11.18,0,0,0-.51-9.67c-5.71-10.83-6.67-21.38-6.21-32.68s2.33-23.42,2.34-37.41C116.47,108.51,113.3,98.77,108.39,91.54Z"/>
      <path class="cls-3" d="M58,72.21l.07.41c4.58-.88,13.77-1.22,23.49,1.22s20,7.59,26.84,17.7c4.91,7.23,8.08,17,8.07,30.11,0,14-1.89,26.08-2.34,37.41s.5,21.85,6.21,32.68a11.18,11.18,0,0,1,.51,9.67,19.63,19.63,0,0,1-7.46,8.55c-7.93,5.38-20.71,8.3-34.61,5.45S49.83,204,37.36,186.47c-.58-.81-1.14-1.62-1.68-2.44-14.2-20.91-20.17-42.27-19.23-60.64s8.81-33.8,22.25-42.93a51.45,51.45,0,0,1,19.36-7.84L58,72.21l-.07-.43a52.3,52.3,0,0,0-19.68,8c-13.7,9.31-21.66,25-22.61,43.58S20.7,163.46,35,184.51c.55.81,1.12,1.63,1.69,2.44,12.58,17.72,27.8,26.4,41.92,29.27s27.09,0,35.25-5.58a20.47,20.47,0,0,0,7.77-8.91,12,12,0,0,0-.56-10.37c-5.6-10.67-6.56-21-6.11-32.28s2.33-23.35,2.35-37.43c0-13.27-3.21-23.19-8.22-30.56-7-10.33-17.47-15.6-27.33-18.06a60.6,60.6,0,0,0-23.83-1.25Z"/>
      <path class="cls-4" d="M102.7,85.48a52.81,52.81,0,0,0-16.6-9.79c-1,1.68-1.93,3.44-2.89,5.29l-.07.14L83,81.07a3.24,3.24,0,0,1-1.77-1.29h0a5.17,5.17,0,0,0,.88-2.73v0l0,0s-.31-.45.76-2.65a54.9,54.9,0,0,0-34.06,1.38C17.62,87,17.32,119.77,17,127.07c-.72,16.62,6.82,38.11,18.8,55.79,8.53,12.56,19.29,23.17,30.93,28.68a58.82,58.82,0,0,0,8.81,3.12,38.35,38.35,0,0,0,5.06.82c33.85,3,42.46-14.81,40.5-20.39s-4.25-10.56-4.25-10.56c-6.92,18.74-34.73,23.87-58.34-10.94-1.15-1.7-2.28-3.46-3.4-5.33C33,131.19,43.8,104.72,58.47,92.6,82.1,73.05,102.7,85.48,102.7,85.48Z"/>
      <path class="cls-5" d="M75.54,214.66a58.82,58.82,0,0,1-8.81-3.12A43.94,43.94,0,0,0,75.54,214.66Z"/>
      <path class="cls-6" d="M104.78,131.55a4.49,4.49,0,0,1-.46-3.84,3.32,3.32,0,0,1,3.07-2.45,3,3,0,0,1,2.25,1.38,3.88,3.88,0,0,1,.57,1.36c.52,2.3-.79,4.95-3.17,4.83A2.77,2.77,0,0,1,104.78,131.55ZM103,120.29a18.66,18.66,0,0,1-2.79-10.13c0-4.58,1.88-7.73,4.14-8.13,1.63-.27,3.53.86,5.07,3.09a14.88,14.88,0,0,1,1.58,3.17c2.26,6.17,1.39,14.1-3,14.85C106.08,123.48,104.32,122.28,103,120.29Zm4.1-23.49c-5-7.34-11.89-11.89-19.46-11.8-15,.14-27,18.22-26.78,40.42.11,11,3.18,20.89,8.06,28.1s11.89,11.89,19.46,11.82c15-.16,27-18.24,26.78-40.44C115,113.94,112,104,107.07,96.8Z"/>
      <g>
        <path class="cls-7" d="M84.38,80.08a2.41,2.41,0,0,1-1.22.7,3,3,0,0,1-1.54-.09,22.59,22.59,0,0,0,1-4.7c-.39,1.53-.79,3.09-1.25,4.7a3.13,3.13,0,0,0,1.73.16v0a3.41,3.41,0,0,0,1.44-.72c.06-.16.2-.59.44-1.27A130.26,130.26,0,0,0,89.1,63.19C86.91,72.66,84.38,80.08,84.38,80.08Zm2.44-64.17A9.08,9.08,0,0,1,82.73,19a14,14,0,0,1-2.6.88,7.84,7.84,0,0,1-2.41.2l-.24,0c1.63,1.79,5.2,6.58,7.21,15.53C86.58,44,87.11,56,83.41,72.71a.93.93,0,0,0,.41,0c4.31-1,5.71-27.56,5.05-33.77s-.46-20.08-6.65-18.67a3.68,3.68,0,0,0-.7.2,10.81,10.81,0,0,1-1.09.34c-1.9.43-2.26-.45-2.26-.45.53-.09,1-.21,1.49-.3,5.8-1.31,7.32-3.89,7.32-3.89.71,1.7,1.37,3.58,2,5.5a52.75,52.75,0,0,0-2-6Z"/>
        <path class="cls-8" d="M76.5,19.32l.13-.16S82,23.73,84.69,35.55c2.18,9.72,2.56,24.3-3.33,45.32l-.19-.07.1-.18,0,0a2.87,2.87,0,0,0,1.85.18,3.22,3.22,0,0,0,1.48-.76l.13.15-.19-.06s.17-.46.46-1.32c2-6,9.79-31.55,4.64-54.36a57,57,0,0,0-2.83-9l.19-.09.07.21-10.51,4-.08-.2.13-.16-.13.16-.07-.2,10.7-4,.08.18a56.9,56.9,0,0,1,2.86,9.11C96,50.63,85,80.28,85,80.28l0,.07,0,0a4.05,4.05,0,0,1-1.67.88A3.16,3.16,0,0,1,81.05,81l-.13-.07,0-.15c5.87-21,5.5-35.49,3.33-45.12a39,39,0,0,0-5-12.48,23.22,23.22,0,0,0-2.1-2.82q-.41-.45-.63-.66c-.07-.07-.13-.11-.17-.16l-.06,0-.27-.23.34-.13Z"/>
        <path class="cls-9" d="M83.14,14.5l.42-.09a1.31,1.31,0,0,1,1.19.46c.42.7-.88,2-2.91,2.89a8,8,0,0,1-1.83.61c-1.26.29-2.29.2-2.59-.27a.79.79,0,0,1,.1-.81,11,11,0,0,1,3.09-1.95h0a14.4,14.4,0,0,1,2.53-.84Z"/>
        <path class="cls-8" d="M86.73,14.68l.18-.09a1.62,1.62,0,0,1,.11.28,1.6,1.6,0,0,1-.2,1A9.08,9.08,0,0,1,82.73,19a14,14,0,0,1-2.6.88,7.84,7.84,0,0,1-2.41.2,1.79,1.79,0,0,1-1.45-.7,1.15,1.15,0,0,1-.11-.29,1.42,1.42,0,0,1,.2-1A8.92,8.92,0,0,1,80.44,15h0a14.7,14.7,0,0,1,2.61-.86,7.57,7.57,0,0,1,2.4-.23,1.78,1.78,0,0,1,1.46.72l-.18.09-.18.12a1.44,1.44,0,0,0-1.15-.5,7,7,0,0,0-2.26.2,14.4,14.4,0,0,0-2.53.84h0a10.9,10.9,0,0,0-3.09,1.95,3.78,3.78,0,0,0-.8.94,1.08,1.08,0,0,0-.15.73l.05.16a1.42,1.42,0,0,0,1.14.51,7.14,7.14,0,0,0,2.28-.2,13.68,13.68,0,0,0,2.52-.86,11.18,11.18,0,0,0,3.1-1.92,3.47,3.47,0,0,0,.78-.95,1.06,1.06,0,0,0,.17-.74l-.06-.16Z"/>
        <path class="cls-10" d="M83.56,14.41a6.05,6.05,0,0,1,1.84-.11,1.44,1.44,0,0,1,1.15.5l.18-.12-.18.12.06.16a1.06,1.06,0,0,1-.17.74,3.47,3.47,0,0,1-.78.95,11.18,11.18,0,0,1-3.1,1.92,13.68,13.68,0,0,1-2.52.86h0a7,7,0,0,1-2.26.2,1.42,1.42,0,0,1-1.14-.51L76.57,19a1.08,1.08,0,0,1,.15-.73,3.78,3.78,0,0,1,.8-.94h0a.79.79,0,0,0-.1.81c.3.47,1.33.56,2.59.27a8,8,0,0,0,1.83-.61c2-.88,3.33-2.19,2.91-2.89A1.31,1.31,0,0,0,83.56,14.41Z"/>
        <path class="cls-11" d="M83.11,14.3c1.77-.41,3.22-.29,3.62.38.58,1-1.25,2.83-4.08,4.1a15.12,15.12,0,0,1-2.57.85c-1.78.41-3.23.28-3.63-.4s.4-1.83,1.92-2.87a3.25,3.25,0,0,0-.85.93h0a3.78,3.78,0,0,0-.8.94,1.08,1.08,0,0,0-.15.73l.05.16a1.42,1.42,0,0,0,1.14.51,7,7,0,0,0,2.26-.2h0a13.68,13.68,0,0,0,2.52-.86,11.18,11.18,0,0,0,3.1-1.92,3.47,3.47,0,0,0,.78-.95,1.06,1.06,0,0,0,.17-.74l-.06-.16.18-.12-.18.12a1.44,1.44,0,0,0-1.15-.5,6.05,6.05,0,0,0-1.84.11,5.72,5.72,0,0,0-1.4.16l-.32.09A9.39,9.39,0,0,1,83.11,14.3Z"/>
        <path class="cls-12" d="M87,16.15c.71,1.7,1.37,3.58,2,5.5.26,1,.5,1.87.71,2.82,2.21,9.79,2,20.1,1,29.12a3.35,3.35,0,0,0,.11.81h-.22v.2s-.14,1.18-.72,4.75c-.21,1.34-.45,2.62-.7,3.84-2.19,9.47-4.72,16.89-4.72,16.89a2.41,2.41,0,0,1-1.22.7,3,3,0,0,1-1.54-.09,22.59,22.59,0,0,0,1-4.7c.27-1.11.53-2.22.76-3.28a.93.93,0,0,0,.41,0c4.31-1,5.71-27.56,5.05-33.77s-.46-20.08-6.65-18.67a3.68,3.68,0,0,0-.7.2,10.81,10.81,0,0,1-1.09.34c-1.9.43-2.26-.45-2.26-.45.53-.09,1-.21,1.49-.3C85.46,18.73,87,16.15,87,16.15Z"/>
        <path class="cls-13" d="M91,29.15a60.29,60.29,0,0,1,1.11,6.22c.58,5.24,0,11.55-1,17.79A91.6,91.6,0,0,0,91,29.15Z"/>
        <path class="cls-11" d="M82.65,76c.27-1.11.53-2.22.76-3.28a1.71,1.71,0,0,1-.3-.09S82.92,74.2,82.65,76Zm6.45-12.8c.26-1.1.52-2.26.77-3.43,0-.14-.05-.27-.07-.41C89.57,60.69,89.35,62,89.1,63.19Zm.56-38.72c2.21,9.79,2,20.1,1,29.12a2.61,2.61,0,0,1,.39,0c0-.16.06-.32.07-.45a91.6,91.6,0,0,0-.14-24c-.52-2.37-1.21-5-2-7.5C89.21,22.6,89.45,23.52,89.66,24.47Z"/>
        <g>
          <path class="cls-14" d="M28.88,52.21a31.89,31.89,0,0,1-4.77-4.09c-1.77-1.86-3.31-3.64-4.6-5.25L19,42.74A70.37,70.37,0,0,0,27.69,52C28.08,52.05,28.49,52.14,28.88,52.21Zm7.23-25.66c-.64-.4-1.32-.83-2-1.22a25.11,25.11,0,0,0-2.9.05A29.29,29.29,0,0,0,28,26a16,16,0,0,1,3.24-.61c.73-.09,1.58-.19,2.53-.25a5.25,5.25,0,0,0-.66-.36h0c-.91.09-1.79.18-2.64.31-11.22,1.83-16.36,8.7-17,9.66a89.05,89.05,0,0,0,5.16,7.45l.54.14a53.61,53.61,0,0,1-5-7.46s.32-.34.93-.9h-.07l0-.41.62-.07c2.51-2.26,7.93-6.58,13.34-7.23A25.92,25.92,0,0,1,36.11,26.55Zm9.78-.74a43.48,43.48,0,0,0-12-1.09l.64.34A47.72,47.72,0,0,1,45.89,25.81ZM63.06,43.55a22.82,22.82,0,0,0-3.45-8.9A50.85,50.85,0,0,0,35,25.38c.75.45,1.47.9,2.13,1.37C46.06,28.61,56,34.4,57.49,43.44c2,1.08,4,2.21,5.83,3.34v0c0-.16,0-.41,0-.7A20,20,0,0,0,63.06,43.55Zm6,12A37.5,37.5,0,0,1,55.23,62.2C61.29,62.2,67,60.66,69.05,55.53Zm.81-4c-1.93-1.35-4-2.75-6.27-4.13-1.91-1.18-3.92-2.35-6-3.48a15.25,15.25,0,0,1,0,3.93c-.76,5.54-14.5,13.31-27.77,4.9-.46-.09-.93-.15-1.41-.27A61.1,61.1,0,0,0,38,59.28a68.59,68.59,0,0,0,15.34,2.87l0,0a36.14,36.14,0,0,0,16-7.34A11,11,0,0,0,69.73,53,12.64,12.64,0,0,0,69.86,51.57Zm-.15-2.89c-.83-5.06-4.38-9.63-9.18-13.36a23.54,23.54,0,0,1,2.95,8.16h0A18,18,0,0,1,63.74,47h-.07c2.2,1.35,4.28,2.73,6.21,4.09A14.67,14.67,0,0,0,69.71,48.68Z"/>
          <path class="cls-15" d="M86.07,63.67,86,63.49l-.62.2a51.94,51.94,0,0,1-8.51,2,61.63,61.63,0,0,1-29.58-2.28c-11.51-3.95-23.78-12.3-34-28.82l-.18.12.18.11.06-.09c.57-.84,5.71-7.85,17-9.68,6.22-1,14.31-.45,24.56,3.51S73,41.36,78.15,49.16A86.48,86.48,0,0,1,84,59.4c.64,1.31,1.12,2.41,1.44,3.16s.48,1.2.48,1.2l.19-.09L86,63.49l.07.18.2-.07A83.35,83.35,0,0,0,78.5,48.93c-5.18-7.82-13-16.68-23.37-20.73s-18.48-4.54-24.78-3.52C18.1,26.66,13,34.58,13,34.62l-.07.12.07.11c10.23,16.59,22.58,25,34.2,29a61.7,61.7,0,0,0,29.77,2.3,49.53,49.53,0,0,0,9.2-2.26l.2-.07-.07-.2Z"/>
          <path class="cls-15" d="M84.91,63.42S52,29.81,14.89,33.56l0,.41c18.42-1.88,35.84,5.56,48.66,13.47a129.27,129.27,0,0,1,15.33,11.1c1.82,1.56,3.24,2.84,4.21,3.75.49.45.86.81,1.11,1.06s.37.36.37.36Z"/>
          <path class="cls-15" d="M71.65,52.77l-.35.32c-1.59,1.49-8.61,7.55-18,9a24.9,24.9,0,0,1-10.42-.43l-.1.41a26.07,26.07,0,0,0,10.59.45c10.84-1.76,18.52-9.49,18.53-9.49Z"/>
          <path class="cls-15" d="M56.69,43.53l-.33.31A36,36,0,0,1,38.9,52.37a28.68,28.68,0,0,1-11.5-.48l-.1.41A28.87,28.87,0,0,0,39,52.77a36.09,36.09,0,0,0,18-9Z"/>
          <path class="cls-15" d="M40.82,36.57l-.23.2a25,25,0,0,1-12.38,6,22.69,22.69,0,0,1-9.67-.55l-.11.41a23.15,23.15,0,0,0,9.84.54,25.31,25.31,0,0,0,12.84-6.28l-.29-.29Z"/>
          <path class="cls-15" d="M47.5,38.94S44,30,33.26,24.41l-.2.36a32.67,32.67,0,0,1,11,9.24,25.55,25.55,0,0,1,2.34,3.64c.25.45.42.81.53,1.06s.17.39.17.39Z"/>
          <path class="cls-15" d="M63.74,47a18,18,0,0,0-.26-3.51,23.22,23.22,0,0,0-11-16.27l-.22.36a22.73,22.73,0,0,1,10.83,16A20,20,0,0,1,63.32,46c0,.29,0,.54,0,.7V47Z"/>
          <path class="cls-15" d="M79.76,58.67a25.05,25.05,0,0,0-.36-4.09A21.2,21.2,0,0,0,75.53,45l-.33.25A21,21,0,0,1,79,54.65a25,25,0,0,1,.31,2.89c0,.36,0,.64,0,.84v.29Z"/>
          <path class="cls-16" d="M36.27,58.76l-.12-.09h0Zm43.28-8.2A68.23,68.23,0,0,0,74.4,43.3c1.51,1.88,2.88,3.78,4.1,5.63C78.86,49.47,79.21,50,79.55,50.56Z"/>
          <path class="cls-17" d="M53.32,62.15A68.59,68.59,0,0,1,38,59.28q2.48,1.36,4.94,2.44v0A25.5,25.5,0,0,0,53.32,62.15ZM71.6,52.82c-.56-.41-1.14-.84-1.74-1.25A12.64,12.64,0,0,1,69.73,53a11,11,0,0,1-.42,1.84,24.74,24.74,0,0,0,2-1.7ZM79,54.65a21,21,0,0,0-3.8-9.45l.1-.07c-5-6.62-11.79-13.22-20.32-16.54l-1-.37a23.49,23.49,0,0,1,6.57,7.1c4.8,3.73,8.35,8.3,9.18,13.36a14.67,14.67,0,0,1,.17,2.4c3.8,2.66,7,5.2,9.47,7.28,0-.18,0-.48,0-.82A25,25,0,0,0,79,54.65Zm6.81,8.91c-.08-.21-.21-.53-.41-1-.32-.75-.8-1.85-1.44-3.16a86.48,86.48,0,0,0-5.81-10.24c-.21-.32-.42-.64-.65-.95a24,24,0,0,1,1.9,6.37,25.05,25.05,0,0,1,.36,4.09H79.7c3.34,2.85,5.21,4.75,5.21,4.75l-.3.29s-.12-.13-.37-.36-.62-.61-1.11-1.06c-1-.91-2.39-2.19-4.21-3.75s-4.26-3.48-7-5.5v0a34.07,34.07,0,0,1-2.89,2.46C67,60.66,61.29,62.2,55.23,62.2c-.6.13-1.21.25-1.82.36a26.05,26.05,0,0,1-8.5,0c.8.32,1.59.61,2.38.88a61.63,61.63,0,0,0,29.58,2.28,51.94,51.94,0,0,0,8.51-2A3.28,3.28,0,0,0,85.81,63.56Z"/>
          <path class="cls-18" d="M42.92,61.72Q40.46,60.64,38,59.28c-1-.31-1.68-.54-1.83-.61l.12.09a70.67,70.67,0,0,0,6.61,3.17Zm43.15,2h0a87.5,87.5,0,0,0-6.52-13.11c-.34-.52-.69-1.09-1-1.63-1.22-1.85-2.59-3.75-4.1-5.63A49.33,49.33,0,0,0,53.61,28l.35.27,1,.37c8.53,3.32,15.31,9.92,20.32,16.54l.23-.18a16.36,16.36,0,0,1,2,3.26c.23.31.44.63.65.95A86.48,86.48,0,0,1,84,59.4c.64,1.31,1.12,2.41,1.44,3.16.2.47.33.79.41,1a3.28,3.28,0,0,1-.43.13,51.94,51.94,0,0,1-8.51,2,61.63,61.63,0,0,1-29.58-2.28c-.79-.27-1.58-.56-2.38-.88-.29,0-.59-.11-.89-.18C67.43,71.62,86.07,63.67,86.07,63.67Z"/>
          <path class="cls-18" d="M84.91,63.42S83,61.52,79.7,58.67h-.35v-.31c-2.47-2.08-5.67-4.62-9.47-7.28a4.27,4.27,0,0,1,0,.49c.6.41,1.18.84,1.74,1.25l.05,0,.28.27c2.73,2,5.08,3.89,7,5.5s3.24,2.84,4.21,3.75c.49.45.86.81,1.11,1.06s.37.36.37.36Z"/>
          <path class="cls-18" d="M55.23,62.2c-.63,0-1.27,0-1.91-.05a25.5,25.5,0,0,1-10.4-.45v0l0,.21c.38.16.75.31,1.14.45s.6.14.89.18a26.05,26.05,0,0,0,8.5,0C54,62.45,54.63,62.33,55.23,62.2Zm16.71-9.13v0l-.28-.27-.05,0-.3.27a24.74,24.74,0,0,1-2,1.7c-.08.24-.17.49-.26.74A34.07,34.07,0,0,0,71.94,53.07Z"/>
          <path class="cls-19" d="M59.61,34.65a23.3,23.3,0,0,0-7.24-7,60.88,60.88,0,0,0-6.48-1.83,47.72,47.72,0,0,0-11.41-.75c.18.11.35.2.52.32A50.85,50.85,0,0,1,59.61,34.65Z"/>
          <path class="cls-18" d="M52.37,27.64l-.14-.07.05-.09a45.82,45.82,0,0,0-6.39-1.67A60.88,60.88,0,0,1,52.37,27.64Z"/>
          <path class="cls-18" d="M60.53,35.32A23.49,23.49,0,0,0,54,28.22L53.61,28l-1.33-.47-.05.09.14.07a23.3,23.3,0,0,1,7.24,7Z"/>
          <path class="cls-18" d="M79.4,54.58a24,24,0,0,0-1.9-6.37,16.36,16.36,0,0,0-2-3.26l-.23.18-.1.07A21,21,0,0,1,79,54.65h0a25,25,0,0,1,.31,2.89c0,.34,0,.64,0,.82v.31h.41A25.05,25.05,0,0,0,79.4,54.58Z"/>
          <path class="cls-20" d="M40.58,36.79A65.06,65.06,0,0,0,15,34c-.61.56-.93.9-.93.9a53.61,53.61,0,0,0,5,7.46,22.5,22.5,0,0,0,9.11.41A25.35,25.35,0,0,0,40.58,36.79Zm6.28,1.74c-.11-.22-.26-.54-.45-.88A25.55,25.55,0,0,0,44.07,34a32.47,32.47,0,0,0-8-7.46,25.92,25.92,0,0,0-7.26-.29c-5.41.65-10.83,5-13.34,7.23C26.61,32.5,37.33,34.8,46.86,38.53ZM57.56,44a98.39,98.39,0,0,0-10.44-4.88v0c-2-.77-4-1.5-6.07-2.15a25.28,25.28,0,0,1-12.76,6.21,23.6,23.6,0,0,1-8.76-.27c1.29,1.61,2.83,3.39,4.6,5.25a31.89,31.89,0,0,0,4.77,4.09,28.5,28.5,0,0,0,10,.16,36,36,0,0,0,17.46-8.53l.31-.31.3.29a36.09,36.09,0,0,1-18,9,28.91,28.91,0,0,1-9.2,0c13.27,8.41,27,.64,27.77-4.9A15.25,15.25,0,0,0,57.56,44Zm-.07-.52C56,34.4,46.06,28.61,37.13,26.75a30.51,30.51,0,0,1,10.29,12A102.61,102.61,0,0,1,57.49,43.44Z"/>
          <path class="cls-21" d="M47.1,39.08a2.28,2.28,0,0,0-.16-.37l-.08-.18c-9.53-3.73-20.25-6-31.35-5-.18.18-.35.32-.51.48a65.06,65.06,0,0,1,25.58,2.82v0l.23-.2h0l.29.29-.08.07C43.1,37.58,45.14,38.31,47.1,39.08Zm10.39,4.38v0a102.61,102.61,0,0,0-10.07-4.68l.08.18-.38.14A98.39,98.39,0,0,1,57.56,44C57.53,43.8,57.51,43.62,57.49,43.46Z"/>
          <path class="cls-21" d="M57,43.82l-.28-.29-.33.31A36,36,0,0,1,38.9,52.37a28.5,28.5,0,0,1-10-.16l.87.58a28.91,28.91,0,0,0,9.2,0A36.09,36.09,0,0,0,57,43.82Z"/>
          <path class="cls-21" d="M41.11,36.86l-.29-.29h0l-.23.2v0a25.35,25.35,0,0,1-12.37,6,22.5,22.5,0,0,1-9.11-.41l.41.54a23.6,23.6,0,0,0,8.76.27A25.28,25.28,0,0,0,41,36.93Z"/>
          <path class="cls-21" d="M47.5,38.94l-.08-.18a30.51,30.51,0,0,0-10.29-12l-1-.2a32.47,32.47,0,0,1,8,7.46,25.55,25.55,0,0,1,2.34,3.64c.19.34.34.66.45.88l.08.18a2.28,2.28,0,0,1,.16.37v0Z"/>
        </g>
      </g>
      <path class="cls-22" d="M109.39,105.12c-1.54-2.23-3.44-3.36-5.07-3.09-2.26.4-4.11,3.55-4.14,8.13A18.66,18.66,0,0,0,103,120.29c1.35,2,3.11,3.19,5,2.85,4.37-.75,5.24-8.68,3-14.85A14.88,14.88,0,0,0,109.39,105.12Z"/>
      <path class="cls-23" d="M109.75,125.92a3.09,3.09,0,0,0-5.76,1,5.17,5.17,0,0,0,.58,4.28,3.24,3.24,0,0,0,2.5,1.48c2.6.18,4-2.72,3.34-5.29A4.47,4.47,0,0,0,109.75,125.92Z"/>
      <path class="cls-3" d="M75.65,77.41A20.14,20.14,0,0,0,90,82.16l0-.84a19.7,19.7,0,0,1-10.1-2.08,22.08,22.08,0,0,1-2.72-1.67c-.3-.23-.54-.43-.7-.57l-.17-.15,0,0Z"/>
    </g>
    <g>
      <path class="cls-24" d="M36.72,27h0c-.57-.4-1.18-.79-1.82-1.17C35.56,26.19,36.15,26.58,36.72,27Z"/>
      <path class="cls-24" d="M33.43,25c.44.24.88.48,1.3.73l-.12-.07c-.17-.12-.34-.21-.52-.32L33.46,25a43.54,43.54,0,0,1,12,1.09l.27.05A44,44,0,0,0,33.43,25Z"/>
      <path class="cls-24" d="M57.1,43.67h0l.65.34Z"/>
      <path class="cls-24" d="M60.16,60.24c-.93.39-1.92.76-2.94,1.09C58.24,61,59.23,60.64,60.16,60.24Z"/>
      <path class="cls-24" d="M63.28,47.22h0c.83.51,1.64,1,2.44,1.54C64.91,48.24,64.11,47.73,63.28,47.22Z"/>
      <path class="cls-24" d="M33.68,25.56l-.36-.2c-.94.07-1.79.16-2.52.25A24.76,24.76,0,0,1,33.68,25.56Z"/>
      <path class="cls-24" d="M54.84,62.43h0Z"/>
      <path class="cls-24" d="M56.29,43.76s-.1.11-.32.31a3.09,3.09,0,0,0,.32-.31Z"/>
      <path class="cls-24" d="M59.23,34.88h0a24.23,24.23,0,0,1,1.39,2.43A22.42,22.42,0,0,0,59.23,34.88Z"/>
      <path class="cls-24" d="M28.88,52.94l.49.08h0Z"/>
      <path class="cls-24" d="M60.14,35.55h0l0,.06A.21.21,0,0,1,60.14,35.55Z"/>
      <path class="cls-24" d="M30.8,25.61a16.8,16.8,0,0,0-2.93.53C28.35,26,29.35,25.81,30.8,25.61Z"/>
      <path class="cls-24" d="M79.27,23.13c-.4-.62-.78-1.16-1.13-1.62C78.49,22,78.87,22.51,79.27,23.13Z"/>
      <path class="cls-24" d="M79.31,23.19c.45.71.93,1.53,1.41,2.47C80.24,24.72,79.76,23.9,79.31,23.19Z"/>
      <path class="cls-24" d="M83.16,31.58q-.59-1.81-1.23-3.33Q82.57,29.77,83.16,31.58Z"/>
      <path class="cls-24" d="M77.1,20.25l.23,0-.25,0Z"/>
      <path class="cls-24" d="M77.13,17.52a11,11,0,0,1,3.09-1.95A10.9,10.9,0,0,0,77.13,17.52Z"/>
      <path class="cls-24" d="M19.12,43.09,18.61,43h0l.52.13Z"/>
      <path class="cls-24" d="M27.76,52.28l.75.17h0Z"/>
      <path class="cls-24" d="M14.63,34.19h0Z"/>
      <path class="cls-24" d="M17.79,30.31a28.27,28.27,0,0,1,12.24-5A28.15,28.15,0,0,0,17.79,30.31Z"/>
      <path class="cls-24" d="M18.21,42.44l.38.09-.39-.1Z"/>
      <path class="cls-24" d="M15.13,33.72l-.63.07.61,0Z"/>
      <path class="cls-24" d="M85,61.71c.05-.4.1-.8.14-1.19,0,.38-.1.78-.14,1.18Z"/>
      <path class="cls-24" d="M89.83,27.49c0-.27-.09-.53-.14-.8h0l.15.86Z"/>
      <path class="cls-24" d="M89.53,58.84c0,.24-.07.47-.12.74h0Z"/>
      <path class="cls-24" d="M90.18,29.64c0-.32-.09-.64-.14-1v0c.06.35.11.7.16,1.05Z"/>
      <path class="cls-24" d="M90.72,48.84c0-.08,0-.16,0-.25,0-.42.06-.85.08-1.28,0-.21,0-.43,0-.64l.06-1.22c0-.24,0-.48,0-.72,0-.4,0-.81,0-1.21,0-.24,0-.49,0-.73,0-.41,0-.82,0-1.24v-.68c0-.43,0-.86,0-1.3,0-.12,0-.25,0-.37,0-.47,0-.94-.06-1.4a103.65,103.65,0,0,1-.67,15.94v0C90.44,52.13,90.6,50.5,90.72,48.84Z"/>
      <path class="cls-24" d="M90.46,31.71c0-.35-.09-.69-.13-1v-.07l.15,1.2S90.46,31.74,90.46,31.71Z"/>
      <path class="cls-24" d="M128.81,187.31c-4.08-7.75-5.55-15.76-5.07-27.62.17-4.24.57-8.7,1-13.42.64-7.26,1.36-15.48,1.38-24.39,0-14.11-3.29-26.13-9.8-35.72a50.59,50.59,0,0,0-19-16.72,140.37,140.37,0,0,0,2.57-14.89c1.26-8,1.59-14.49,1-20-.21-1.87-.62-4.22-1.18-6.81-.27-1.77-.6-3.51-1-5.18A65.89,65.89,0,0,0,95.32,12c0-.06-.23-.52-.26-.6-.12-.28-.24-.51-.33-.7s-.16-.31-.25-.46A10.85,10.85,0,0,0,86,5c-.45,0-.91-.07-1.38-.07a18.07,18.07,0,0,0-3.9.46,24.57,24.57,0,0,0-4.24,1.38l-.18.08c-2.72,1.23-6.37,3.43-8.33,7a10.78,10.78,0,0,0-1.38,4.74,9.17,9.17,0,0,0,3.22,8,48.23,48.23,0,0,0-11.74-6.65c-.81-.31-1.6-.6-2.39-.87a8.25,8.25,0,0,0-1.27-.43,59.85,59.85,0,0,0-18.78-3.28,44.92,44.92,0,0,0-7.12.56C14.54,18.1,6.91,26.47,4.71,30.12h0l-.07.11a9.19,9.19,0,0,0,.05,9.55l.07.12a86.73,86.73,0,0,0,15.1,18.52A9.42,9.42,0,0,0,22,60.28a70,70,0,0,0,8.67,6.27,5.84,5.84,0,0,0,.53.33l.33.19c1.71,1,3.47,1.94,5.25,2.8q-2.09,1.18-4.07,2.52C16.63,83.31,7.18,101.32,6.06,123.1,5,144.65,12.39,168.37,27,189.91c.58.86,1.18,1.72,1.79,2.59,16,22.49,34.69,30.33,47.58,32.95a64.41,64.41,0,0,0,12.85,1.31h0c11.08,0,21.51-2.94,29.38-8.28a29.5,29.5,0,0,0,11.14-13.1A21.19,21.19,0,0,0,128.81,187.31ZM121.23,202a20.47,20.47,0,0,1-7.77,8.91c-8.16,5.53-21.13,8.45-35.25,5.58S48.87,204.9,36.29,187.18c-.57-.81-1.14-1.63-1.69-2.44-14.29-21.05-20.32-42.57-19.36-61.17S24.16,89.3,37.85,80a52.3,52.3,0,0,1,19.68-8,60.65,60.65,0,0,1,23.84,1.25l1.09.29c.71-3.14,1.26-6.1,1.7-8.92a55.68,55.68,0,0,1-7.61,1.73,61.7,61.7,0,0,1-29.77-2.3,57.59,57.59,0,0,1-10.74-5L35.89,59l-.16-.09h0a60.47,60.47,0,0,1-8.63-6.33l-.2,0,0-.11A76.09,76.09,0,0,1,12.58,35.08L12.51,35l.07-.12s5.13-8,17.39-9.94c5.73-.93,13-.53,22.08,2.55v0l.08,0c.85.29,1.72.6,2.6.94C63.24,31.73,70,38.24,75,44.77a67.91,67.91,0,0,1,3.94,5.63c0,.09.11.18.17.27l.07.12.08.12A89,89,0,0,1,84.66,61c1.28-10.66.63-18.91-.76-25.1a38.84,38.84,0,0,0-5-12.48,23.09,23.09,0,0,0-2.11-2.82q-.4-.45-.63-.66l0,0-.08-.07,0-.05,0,0-.28-.23.13-.05a1.56,1.56,0,0,1-.06-.15,1.38,1.38,0,0,1,.21-1,8.81,8.81,0,0,1,4.08-3.07,14.19,14.19,0,0,1,2.61-.86,7.51,7.51,0,0,1,2.39-.23,1.78,1.78,0,0,1,1.46.72,1.08,1.08,0,0,1,.11.28.74.74,0,0,1,0,.26l.1,0,.07.18a55.6,55.6,0,0,1,2.86,9.11c.36,1.6.66,3.21.9,4.82.53,2.42.91,4.58,1.09,6.17.58,5.22,0,11.49-1,17.7A132.45,132.45,0,0,1,86.4,74.76c8.26,2.89,16.48,8,22.29,16.56,5,7.36,8.23,17.29,8.22,30.56,0,14.08-1.89,26.19-2.35,37.43s.51,21.61,6.11,32.28A12,12,0,0,1,121.23,202Z"/>
      <path class="cls-24" d="M85.52,76.28h0c.08-.27.17-.55.25-.84h0C85.68,75.72,85.6,76,85.52,76.28Z"/>
      <path class="cls-24" d="M104.28,131.59l.11.19a2.79,2.79,0,0,0,2.26,1.28,2.66,2.66,0,0,0,1.73-.49,2.88,2.88,0,0,1-1.7.39A3.18,3.18,0,0,1,104.28,131.59Z"/>
      <path class="cls-24" d="M86.17,75.56l1.07.4-1.07-.4Z"/>
      <path class="cls-24" d="M88.71,63.42c-.88,4.48-1.87,8.32-2.71,11.21h0c.84-2.92,1.84-6.8,2.73-11.31Z"/>
      <path class="cls-24" d="M90.86,36.41l0-.63-.09-1.16,0-.38c.07.8.12,1.6.16,2.39A1.7,1.7,0,0,0,90.86,36.41Z"/>
      <path class="cls-24" d="M42.17,193.34a70,70,0,0,0,22.16,17.49A70.34,70.34,0,0,1,42.17,193.34Z"/>
      <path class="cls-24" d="M81.2,80.23c.25-.9.49-1.79.71-2.66-.22.87-.46,1.76-.71,2.66Z"/>
      <path class="cls-24" d="M68.66,55.76v0c-.67.51-1.44,1.06-2.32,1.64C67.22,56.81,68,56.26,68.66,55.76Z"/>
      <path class="cls-24" d="M90.67,33.75c0-.36-.07-.73-.11-1.09,0,0,0-.1,0-.16,0,.46.09.92.13,1.37C90.68,33.83,90.67,33.79,90.67,33.75Z"/>
      <path class="cls-24" d="M82.26,76.22l0-.15c-.08.32-.15.63-.23,1Z"/>
      <path class="cls-24" d="M81.71,76.69l.12-.52A4.46,4.46,0,0,0,81.71,76.69Z"/>
      <path class="cls-24" d="M61.59,59.59c.94-.45,1.81-.92,2.63-1.39C63.4,58.67,62.53,59.14,61.59,59.59Z"/>
      <path class="cls-24" d="M90.14,54.65v0h0Z"/>
      <path class="cls-24" d="M83,72.94q.73-3.31,1.24-6.37c-.34,2-.77,4.17-1.25,6.37Z"/>
      <path class="cls-24" d="M84.32,66.26c.1-.6.2-1.19.29-1.77h0C84.51,65.08,84.42,65.66,84.32,66.26Z"/>
    </g>
  </g>
</svg>
