<svg id="Layer_1" data-name="Layer 1" xmlns="http://www.w3.org/2000/svg" xmlns:xlink="http://www.w3.org/1999/xlink" width="191.83" height="320.51" viewBox="0 0 191.83 320.51">
  <defs>
    <style>
      .cls-1 {
        opacity: 0.3;
      }

      .cls-2 {
        fill: url(#radial-gradient);
      }

      .cls-3 {
        fill: #ee9e4a;
      }

      .cls-4 {
        fill: url(#radial-gradient-2);
      }

      .cls-5 {
        fill: #ec942c;
      }

      .cls-6 {
        fill: url(#radial-gradient-3);
      }

      .cls-7 {
        fill: url(#radial-gradient-4);
      }

      .cls-8 {
        fill: #9e4f24;
      }

      .cls-9 {
        fill: url(#radial-gradient-5);
      }

      .cls-10 {
        fill: url(#radial-gradient-6);
      }

      .cls-11 {
        fill: #984421;
      }

      .cls-12 {
        fill: url(#radial-gradient-7);
      }

      .cls-13 {
        fill: #f6d85b;
      }

      .cls-14 {
        fill: url(#radial-gradient-8);
      }

      .cls-15 {
        fill: #59843c;
      }

      .cls-16 {
        fill: #e6e41b;
      }

      .cls-17 {
        fill: url(#radial-gradient-9);
      }

      .cls-18 {
        fill: #517837;
      }

      .cls-19 {
        fill: url(#radial-gradient-10);
      }

      .cls-20 {
        fill: url(#radial-gradient-11);
      }

      .cls-21 {
        fill: #7bb553;
      }

      .cls-22 {
        fill: url(#radial-gradient-12);
      }

      .cls-23 {
        fill: url(#radial-gradient-13);
      }

      .cls-24 {
        fill: #f4f0ed;
      }

      .cls-25 {
        fill: #ff0;
      }
    </style>
    <radialGradient id="radial-gradient" cx="783.83" cy="3084.61" r="1.17" gradientTransform="matrix(20.95, 91.57, -72.74, 16.64, 208065.97, -122930.13)" gradientUnits="userSpaceOnUse">
      <stop offset="0" stop-color="#fbde70"/>
      <stop offset="1" stop-color="#f8bb18"/>
    </radialGradient>
    <radialGradient id="radial-gradient-2" cx="783.83" cy="3084.61" r="1.17" gradientTransform="matrix(20.95, 91.57, -72.74, 16.64, 208066, -122929.97)" gradientUnits="userSpaceOnUse">
      <stop offset="0" stop-color="#fad047"/>
      <stop offset="1" stop-color="#f6b019"/>
    </radialGradient>
    <radialGradient id="radial-gradient-3" cx="783.83" cy="3084.62" r="1.17" gradientTransform="matrix(20.95, 91.55, -72.72, 16.64, 208011.87, -122897.01)" gradientUnits="userSpaceOnUse">
      <stop offset="0" stop-color="#fce383"/>
      <stop offset="1" stop-color="#fac919"/>
    </radialGradient>
    <radialGradient id="radial-gradient-4" cx="542.21" cy="2949.55" r="1.17" gradientTransform="matrix(23.5, -2.74, 4.22, 35, -25079.54, -101683.49)" gradientUnits="userSpaceOnUse">
      <stop offset="0" stop-color="#db8727"/>
      <stop offset="1" stop-color="#9d5d26"/>
    </radialGradient>
    <radialGradient id="radial-gradient-5" cx="73.11" cy="1346.12" r="1.17" gradientTransform="matrix(6.22, -2.23, 1.2, 2.43, -1952.38, -3079.05)" xlink:href="#radial-gradient-4"/>
    <radialGradient id="radial-gradient-6" cx="73.12" cy="1346.12" r="1.17" gradientTransform="matrix(6.22, -2.23, 1.2, 2.43, -1952.38, -3079.05)" gradientUnits="userSpaceOnUse">
      <stop offset="0" stop-color="#d27528"/>
      <stop offset="1" stop-color="#975023"/>
    </radialGradient>
    <radialGradient id="radial-gradient-7" cx="541.34" cy="2949.25" r="1.17" gradientTransform="matrix(23.42, -2.73, 4.21, 34.89, -24977.45, -101349.8)" xlink:href="#radial-gradient-6"/>
    <radialGradient id="radial-gradient-8" cx="875.4" cy="2910.85" r="1.17" gradientTransform="matrix(-27.34, -34.81, 16.51, -12.97, -24050.91, 68282.19)" gradientUnits="userSpaceOnUse">
      <stop offset="0" stop-color="#97c93d"/>
      <stop offset="1" stop-color="#219e49"/>
    </radialGradient>
    <radialGradient id="radial-gradient-9" cx="875.4" cy="2910.85" r="1.17" gradientTransform="matrix(-27.34, -34.81, 16.51, -12.97, -24050.91, 68282.19)" gradientUnits="userSpaceOnUse">
      <stop offset="0" stop-color="#89b53f"/>
      <stop offset="1" stop-color="#208f45"/>
    </radialGradient>
    <radialGradient id="radial-gradient-10" cx="875.4" cy="2910.85" r="1.17" xlink:href="#radial-gradient-9"/>
    <radialGradient id="radial-gradient-11" cx="875.4" cy="2910.85" r="1.17" gradientTransform="matrix(-27.34, -34.81, 16.51, -12.97, -24050.91, 68282.19)" gradientUnits="userSpaceOnUse">
      <stop offset="0" stop-color="#c0d857"/>
      <stop offset="0.17" stop-color="#b1d459"/>
      <stop offset="0.51" stop-color="#8ac95e"/>
      <stop offset="0.97" stop-color="#4ab865"/>
      <stop offset="1" stop-color="#46b766"/>
    </radialGradient>
    <radialGradient id="radial-gradient-12" cx="783.83" cy="3084.61" r="1.17" gradientTransform="matrix(20.95, 91.57, -72.74, 16.64, 208066, -122929.97)" gradientUnits="userSpaceOnUse">
      <stop offset="0.01" stop-color="#f8e299"/>
      <stop offset="0.98" stop-color="#fbe5a3"/>
    </radialGradient>
    <radialGradient id="radial-gradient-13" cx="786.85" cy="3083.67" r="1.16" gradientTransform="matrix(25.04, 102.09, -78.91, 16.72, 223737.4, -131702.25)" xlink:href="#radial-gradient-12"/>
  </defs>
  <g>
    <g class="cls-1">
      <path d="M57,32.68h0c-.8-.57-1.65-1.13-2.54-1.68C55.38,31.55,56.22,32.11,57,32.68Z"/>
      <path d="M52.39,29.78c.62.34,1.24.68,1.83,1l-.17-.1c-.23-.16-.47-.29-.73-.46l-.88-.48a60,60,0,0,1,16.9,1.55l.39.08A60.2,60.2,0,0,0,52.39,29.78Z"/>
      <path d="M85.62,56.51h0l.91.5Z"/>
      <path d="M89.92,80.17c-1.32.57-2.7,1.1-4.13,1.56C87.22,81.27,88.6,80.74,89.92,80.17Z"/>
      <path d="M94.3,61.58h0c1.17.73,2.31,1.47,3.43,2.2C96.59,63,95.46,62.3,94.3,61.58Z"/>
      <path d="M52.75,30.65l-.51-.29c-1.32.1-2.51.23-3.53.36A33.48,33.48,0,0,1,52.75,30.65Z"/>
      <path d="M82.45,83.3h0Z"/>
      <path d="M84.48,56.64l-.45.45.45-.45Z"/>
      <path d="M88.61,44h0a30.6,30.6,0,0,1,2,3.48A32,32,0,0,0,88.61,44Z"/>
      <path d="M46,69.75l.68.12h0Z"/>
      <path d="M89.89,44.92h0a.47.47,0,0,1,.05.1Z"/>
      <path d="M48.71,30.72a22.26,22.26,0,0,0-4.11.76C45.26,31.32,46.67,31,48.71,30.72Z"/>
      <path d="M116.73,27.18c-.56-.89-1.1-1.66-1.59-2.32C115.63,25.52,116.17,26.29,116.73,27.18Z"/>
      <path d="M116.79,27.27c.63,1,1.3,2.19,2,3.52C118.09,29.46,117.42,28.28,116.79,27.27Z"/>
      <path d="M122.19,39.24c-.55-1.72-1.13-3.31-1.72-4.75C121.06,35.93,121.64,37.52,122.19,39.24Z"/>
      <path d="M113.69,23.07c.1,0,.21,0,.32,0-.12,0-.23,0-.35-.06Z"/>
      <path d="M113.73,19.16a15.48,15.48,0,0,1,4.34-2.78A15.34,15.34,0,0,0,113.73,19.16Z"/>
      <path d="M32.31,55.68l-.71-.17h0l.72.19Z"/>
      <path d="M44.44,68.82l1.06.23,0,0Z"/>
      <path d="M26,43h0Z"/>
      <path d="M30.44,37.43A39.31,39.31,0,0,1,47.63,30.3,39.14,39.14,0,0,0,30.44,37.43Z"/>
      <path d="M31,54.75l.54.14L31,54.74Z"/>
      <path d="M26.71,42.3l-.87.1.84-.07Z"/>
      <path d="M124.76,82.28c.07-.58.14-1.14.2-1.7-.06.55-.14,1.12-.21,1.68Z"/>
      <path d="M131.56,33.41c-.07-.38-.13-.77-.2-1.15h0c.08.41.15.82.22,1.23Z"/>
      <path d="M131.13,78.18c0,.34-.1.67-.16,1h0C131,78.89,131.08,78.53,131.13,78.18Z"/>
      <path d="M132.05,36.47c-.07-.45-.13-.91-.2-1.36v0c.08.5.15,1,.22,1.51C132.06,36.54,132.05,36.51,132.05,36.47Z"/>
      <path d="M132.8,63.9l0-.36c0-.6.08-1.22.11-1.83l.06-.92c0-.57.05-1.16.08-1.74,0-.34,0-.68,0-1,0-.57,0-1.15,0-1.74,0-.34,0-.69,0-1,0-.59,0-1.18,0-1.77,0-.32,0-.65,0-1,0-.61,0-1.23,0-1.84,0-.18,0-.36,0-.54,0-.67,0-1.34-.08-2a149.71,149.71,0,0,1-.94,22.77v0C132.41,68.59,132.63,66.26,132.8,63.9Z"/>
      <path d="M132.43,39.43q-.08-.74-.18-1.47s0-.07,0-.1l.21,1.71S132.44,39.48,132.43,39.43Z"/>
      <path d="M186.26,261.66c-5.72-11.08-7.78-22.52-7.12-39.46.25-6.06.8-12.42,1.38-19.16.9-10.37,1.91-22.12,1.93-34.83,0-20.16-4.61-37.33-13.75-51A71.38,71.38,0,0,0,142,93.31a202.86,202.86,0,0,0,3.6-21.26c1.78-11.37,2.23-20.69,1.38-28.54-.29-2.66-.87-6-1.66-9.72-.38-2.53-.84-5-1.37-7.39a95.63,95.63,0,0,0-4.66-15.11l-.37-.86c-.17-.4-.33-.73-.46-1s-.23-.45-.35-.66a15.21,15.21,0,0,0-11.92-7.54c-.64-.06-1.29-.1-2-.1a24.29,24.29,0,0,0-5.47.66,33.4,33.4,0,0,0-5.95,2l-.26.12c-3.82,1.75-8.93,4.9-11.69,10a15.85,15.85,0,0,0-1.94,6.78A13.21,13.21,0,0,0,103.42,32a67.31,67.31,0,0,0-16.48-9.49c-1.13-.45-2.24-.86-3.34-1.24a11.74,11.74,0,0,0-1.78-.62A82.81,82.81,0,0,0,55.46,16a61.7,61.7,0,0,0-10,.79C25.88,20,15.17,32,12.09,37.17h0l-.1.17A13.32,13.32,0,0,0,12.06,51l.1.17a123.38,123.38,0,0,0,21.2,26.44,12.74,12.74,0,0,0,3,2.66,97.21,97.21,0,0,0,12.16,9c.24.17.5.33.76.48l.45.26c2.4,1.44,4.87,2.78,7.37,4-2,1.12-3.86,2.32-5.71,3.61C28.82,113.12,15.55,138.84,14,170c-1.56,30.77,8.87,64.65,29.39,95.41q1.23,1.84,2.52,3.69c22.4,32.12,48.68,43.33,66.78,47.07a89,89,0,0,0,18,1.87h0c15.54,0,30.19-4.21,41.24-11.83,7.39-5.09,12.79-11.54,15.64-18.7A30.76,30.76,0,0,0,186.26,261.66Zm-10.64,20.91c-1.89,4.75-5.7,9.14-10.9,12.72-11.45,7.91-29.66,12.08-49.47,8s-41.18-16.5-58.83-41.81c-.81-1.16-1.61-2.32-2.38-3.48-20-30.06-28.52-60.79-27.17-87.36s12.51-48.94,31.74-62.23A72.31,72.31,0,0,1,86.22,97c6.62-1.26,19.61-1.74,33.45,1.78l1.54.41c1-4.48,1.77-8.7,2.38-12.73a78.61,78.61,0,0,1-10.67,2.47,85.09,85.09,0,0,1-41.78-3.29,80.18,80.18,0,0,1-15.09-7.12l-.2-.12-.23-.13h0a85.77,85.77,0,0,1-12.12-9l-.27-.06,0-.15A108.26,108.26,0,0,1,23.14,44.24l-.1-.16.1-.16c0-.07,7.2-11.36,24.39-14.2,8-1.33,18.3-.76,31,3.64v0l.12.08c1.19.41,2.4.85,3.64,1.34,11.93,4.71,21.39,14,28.42,23.33a97.53,97.53,0,0,1,5.52,8l.24.38.1.17.11.18a128,128,0,0,1,7.61,14.36c1.79-15.23.89-27-1.07-35.85a56.09,56.09,0,0,0-7-17.82,32.5,32.5,0,0,0-3-4c-.38-.42-.68-.75-.88-.94l-.06,0-.11-.11-.07-.07-.08-.06-.38-.32.18-.07c0-.08-.07-.16-.09-.22a2.05,2.05,0,0,1,.29-1.45c.79-1.49,2.92-3.11,5.72-4.39a20.82,20.82,0,0,1,3.67-1.23,10.66,10.66,0,0,1,3.36-.32,2.45,2.45,0,0,1,2,1,3.2,3.2,0,0,1,.16.39,2.22,2.22,0,0,1,0,.37l.12,0,.12.26a81.8,81.8,0,0,1,4,13c.5,2.28.92,4.58,1.25,6.88.75,3.46,1.29,6.53,1.54,8.8.81,7.46.05,16.41-1.35,25.29a193.32,193.32,0,0,1-6,30.65c11.6,4.12,23.13,11.38,31.29,23.64,7,10.52,11.55,24.69,11.53,43.64,0,20.11-2.65,37.42-3.3,53.46s.71,30.86,8.58,46.1A17.4,17.4,0,0,1,175.62,282.57Z"/>
      <path d="M125.5,103.08h0l.35-1.2h0C125.73,102.29,125.62,102.69,125.5,103.08Z"/>
      <path d="M151.84,182.08c0,.09.09.18.14.26a3.9,3.9,0,0,0,3.18,1.84,3.85,3.85,0,0,0,2.43-.7,4.1,4.1,0,0,1-2.39.55A4.43,4.43,0,0,1,151.84,182.08Z"/>
      <path d="M126.41,102.06l1.51.56-1.51-.56Z"/>
      <path d="M130,84.72c-1.23,6.39-2.63,11.87-3.8,16h0c1.18-4.16,2.58-9.71,3.83-16.16A.83.83,0,0,1,130,84.72Z"/>
      <path d="M133,46.15c0-.3,0-.61-.05-.91,0-.55-.08-1.1-.12-1.65,0-.18,0-.36,0-.54.09,1.14.17,2.28.23,3.42C133,46.36,133,46.26,133,46.15Z"/>
      <path d="M64.66,270.27a98.66,98.66,0,0,0,31.11,25A98.91,98.91,0,0,1,64.66,270.27Z"/>
      <path d="M119.44,108.73c.35-1.29.69-2.55,1-3.81-.31,1.25-.65,2.53-1,3.81Z"/>
      <path d="M101.85,73.78v0c-1,.73-2,1.52-3.25,2.34C99.82,75.28,100.91,74.5,101.85,73.78Z"/>
      <path d="M132.73,42.35c0-.52-.1-1-.15-1.56a1.64,1.64,0,0,1,0-.23c.06.66.13,1.31.19,2C132.74,42.47,132.74,42.41,132.73,42.35Z"/>
      <path d="M120.93,103l0-.2c-.11.45-.21.89-.32,1.35C120.73,103.76,120.83,103.37,120.93,103Z"/>
      <path d="M120.15,103.67c.07-.25.12-.49.18-.74A5.52,5.52,0,0,0,120.15,103.67Z"/>
      <path d="M91.92,79.25c1.31-.64,2.55-1.31,3.7-2C94.47,77.94,93.23,78.61,91.92,79.25Z"/>
      <path d="M132,72.2v0h0Z"/>
      <path d="M122,98.31c.68-3.15,1.26-6.17,1.74-9.1-.48,2.92-1.08,6-1.76,9.1Z"/>
      <path d="M123.82,88.78c.14-.86.28-1.7.4-2.53h0C124.08,87.09,124,87.92,123.82,88.78Z"/>
    </g>
    <g>
      <path class="cls-2" d="M113.88,102.46l-1.56-.38c-13.64-3.43-26.54-3-33-1.71a72.08,72.08,0,0,0-27.17,11C33.31,124.19,22.29,145.83,21,171.62s7.05,55.77,27,85.12c.76,1.14,1.55,2.28,2.36,3.42C62.83,277.8,77.22,289,91.53,295.34c-16.34-7.74-31.44-22.62-43.42-40.25-16.81-24.81-27.39-55-26.38-78.3.45-10.25.86-56.22,44.65-72.11a77,77,0,0,1,47.81-1.93C114.27,102.56,113.8,102.65,113.88,102.46ZM94.56,213.91c-6.86-10.12-11.17-24-11.31-39.44-.29-31.15,16.52-56.53,37.57-56.72,10.63-.13,20.31,6.25,27.32,16.56,6.85,10.12,11.16,24.05,11.31,39.44.28,31.15-16.55,56.53-37.58,56.75C111.24,230.6,101.57,224.22,94.56,213.91Zm55.43-87c-8-11.86-19.43-18.88-30.93-22.84a6.77,6.77,0,0,0-.35.6A74.26,74.26,0,0,1,142,118.42s-28.9-17.45-62.07,10c-20.59,17-35.82,54.16-4.71,106.18,1.57,2.64,3.16,5.11,4.76,7.49,33.13,48.85,72.17,41.65,81.88,15.35,0,0,3.2,7,6,14.82s-9.33,32.86-56.83,28.61a54.49,54.49,0,0,1-7.11-1.14c1.52.38,3,.76,4.54,1,19.51,4,37.45-.1,48.57-7.65,5.07-3.46,8.71-7.58,10.47-12a15.65,15.65,0,0,0-.72-13.58c-8-15.19-9.36-30-8.71-45.87s3.27-32.87,3.29-52.5C161.33,150.75,156.88,137.07,150,126.92Z"/>
      <path class="cls-3" d="M79.25,99.8l.11.57c6.42-1.24,19.32-1.72,33,1.71s28.06,10.66,37.67,24.84c6.89,10.15,11.34,23.83,11.33,42.26,0,19.63-2.65,36.61-3.29,52.5s.7,30.68,8.71,45.87a15.65,15.65,0,0,1,.72,13.58c-1.76,4.41-5.4,8.53-10.47,12-11.12,7.55-29.06,11.65-48.57,7.65s-40.62-16-58.12-40.61c-.81-1.14-1.6-2.28-2.36-3.42C28,227.39,19.64,197.41,21,171.62s12.35-47.43,31.23-60.25a72.08,72.08,0,0,1,27.17-11l-.11-.57-.1-.61a73.24,73.24,0,0,0-27.61,11.2c-19.23,13.07-30.41,35.09-31.74,61.17S26.92,227.87,47,257.4c.78,1.14,1.57,2.29,2.38,3.43,17.65,24.87,39,37.05,58.83,41.08s38-.07,49.47-7.84c5.21-3.52,9-7.83,10.9-12.5a16.84,16.84,0,0,0-.78-14.56c-7.86-15-9.21-29.5-8.58-45.3s3.27-32.77,3.3-52.53c0-18.63-4.5-32.55-11.53-42.89-9.82-14.5-24.52-21.89-38.35-25.35s-26.84-3-33.46-1.75Z"/>
      <path class="cls-4" d="M142,118.42a74.26,74.26,0,0,0-23.29-13.74c-1.35,2.35-2.71,4.82-4.06,7.43l-.09.19-.22-.07a4.53,4.53,0,0,1-2.48-1.81h0a7.25,7.25,0,0,0,1.24-3.83l0-.07,0-.06s-.42-.64,1.08-3.71a77,77,0,0,0-47.81,1.93c-43.79,15.89-44.2,61.86-44.65,72.11-1,23.32,9.57,53.49,26.38,78.3,12,17.63,27.08,32.51,43.42,40.25a82.71,82.71,0,0,0,12.35,4.38,54.49,54.49,0,0,0,7.11,1.14c47.5,4.25,59.59-20.78,56.83-28.61s-6-14.82-6-14.82c-9.71,26.3-48.75,33.5-81.88-15.35-1.6-2.38-3.19-4.85-4.76-7.49-31.11-52-15.88-89.17,4.71-106.18C113.1,101,142,118.42,142,118.42Z"/>
      <path class="cls-5" d="M103.88,299.72a82.71,82.71,0,0,1-12.35-4.38A61,61,0,0,0,103.88,299.72Z"/>
      <path class="cls-6" d="M144.92,183.07a6.34,6.34,0,0,1-.64-5.39,4.65,4.65,0,0,1,4.3-3.43,4.16,4.16,0,0,1,3.16,1.94,5.54,5.54,0,0,1,.81,1.9c.73,3.24-1.11,6.95-4.46,6.79A3.9,3.9,0,0,1,144.92,183.07Zm-2.54-15.8a26.22,26.22,0,0,1-3.92-14.21c0-6.44,2.65-10.85,5.82-11.42,2.29-.38,4.95,1.21,7.11,4.35a20.67,20.67,0,0,1,2.22,4.44c3.17,8.66,1.95,19.79-4.19,20.84C146.74,171.74,144.28,170.07,142.38,167.27Zm5.76-33c-7-10.31-16.69-16.69-27.32-16.56-21,.19-37.86,25.57-37.57,56.72.14,15.39,4.45,29.32,11.31,39.44,7,10.31,16.68,16.69,27.31,16.59,21-.22,37.86-25.6,37.58-56.75C159.3,158.36,155,144.43,148.14,134.31Z"/>
      <g>
        <path class="cls-7" d="M116.29,110.84a3.31,3.31,0,0,1-1.72,1,4.2,4.2,0,0,1-2.15-.13c.49-.85,1-3.9,1.44-6.59-.54,2.15-1.11,4.34-1.75,6.59a4.29,4.29,0,0,0,2.43.22l0,0a4.69,4.69,0,0,0,2-1l.62-1.78a182.55,182.55,0,0,0,5.73-22C119.84,100.43,116.29,110.84,116.29,110.84Zm3.42-90.07c-.81,1.43-2.92,3.05-5.74,4.28a17.9,17.9,0,0,1-3.65,1.24,11,11,0,0,1-3.38.29l-.33,0c2.28,2.5,7.3,9.23,10.12,21.79,2.65,11.8,3.39,28.71-1.79,52.16a1.1,1.1,0,0,0,.57,0c6-1.36,8-38.67,7.09-47.39-.95-8.88-.65-28.17-9.34-26.21a6.83,6.83,0,0,0-1,.29,14.7,14.7,0,0,1-1.52.47c-2.66.61-3.17-.63-3.17-.63.74-.13,1.44-.28,2.09-.41,8.14-1.84,10.26-5.46,10.26-5.46,1,2.38,1.94,5,2.78,7.71a76.33,76.33,0,0,0-2.85-8.41Z"/>
        <path class="cls-8" d="M105.23,25.56l.19-.22s7.57,6.41,11.31,23c3.06,13.64,3.59,34.1-4.68,63.61l-.27-.1.14-.25,0,0a4.05,4.05,0,0,0,2.6.25,4.6,4.6,0,0,0,2.08-1.07l.17.22-.27-.1s.24-.63.65-1.84c2.84-8.44,13.74-44.28,6.52-76.29a79.08,79.08,0,0,0-4-12.69L120,20l.09.29-14.75,5.58-.11-.29.19-.22-.19.22-.09-.28,15-5.65.11.25a79.63,79.63,0,0,1,4,12.79c8.28,36.83-7.18,78.45-7.18,78.45l0,.1,0,0a5.75,5.75,0,0,1-2.34,1.24,4.5,4.5,0,0,1-3.06-.38l-.19-.1.07-.22c8.23-29.41,7.7-49.81,4.66-63.32a54.72,54.72,0,0,0-7-17.51,34.74,34.74,0,0,0-3-4c-.39-.41-.69-.73-.89-.92l-.24-.22-.08-.06-.38-.32.48-.19Z"/>
        <path class="cls-9" d="M114.56,18.8a4.28,4.28,0,0,1,.58-.12,1.86,1.86,0,0,1,1.67.63c.59,1-1.24,2.83-4.08,4.07a11.36,11.36,0,0,1-2.57.85c-1.77.41-3.22.29-3.63-.38a1.12,1.12,0,0,1,.13-1.14A15.45,15.45,0,0,1,111,20h0a20.57,20.57,0,0,1,3.56-1.18Z"/>
        <path class="cls-8" d="M119.59,19.06l.25-.13a2.39,2.39,0,0,1,.16.38,2.24,2.24,0,0,1-.29,1.46c-.81,1.43-2.92,3.05-5.74,4.28a17.9,17.9,0,0,1-3.65,1.24,11,11,0,0,1-3.38.29,2.54,2.54,0,0,1-2-1,1.59,1.59,0,0,1-.16-.41,2,2,0,0,1,.29-1.42c.79-1.46,2.92-3.05,5.73-4.32h0a20.51,20.51,0,0,1,3.66-1.2,10.66,10.66,0,0,1,3.36-.32,2.49,2.49,0,0,1,2,1l-.25.13-.26.16a1.94,1.94,0,0,0-1.6-.7,9.76,9.76,0,0,0-3.17.28A20.57,20.57,0,0,0,111,20h0a15.31,15.31,0,0,0-4.34,2.73A5.41,5.41,0,0,0,105.55,24a1.44,1.44,0,0,0-.22,1l.07.23c.21.38.77.63,1.61.73a10,10,0,0,0,3.19-.29,20.19,20.19,0,0,0,3.53-1.2,16.22,16.22,0,0,0,4.36-2.7,5.34,5.34,0,0,0,1.1-1.33,1.6,1.6,0,0,0,.24-1l-.1-.22Z"/>
        <path class="cls-10" d="M115.14,18.68a8.27,8.27,0,0,1,2.59-.16,1.94,1.94,0,0,1,1.6.7l.26-.16-.26.16.1.22a1.6,1.6,0,0,1-.24,1,5.34,5.34,0,0,1-1.1,1.33,16.22,16.22,0,0,1-4.36,2.7,20.19,20.19,0,0,1-3.53,1.2h0A9.8,9.8,0,0,1,107,26c-.84-.1-1.4-.35-1.61-.73l-.07-.23a1.44,1.44,0,0,1,.22-1,5.41,5.41,0,0,1,1.11-1.33h0a1.12,1.12,0,0,0-.13,1.14c.41.67,1.86.79,3.63.38a11.36,11.36,0,0,0,2.57-.85c2.84-1.24,4.67-3.08,4.08-4.07A1.86,1.86,0,0,0,115.14,18.68Z"/>
        <path class="cls-11" d="M114.51,18.52c2.49-.57,4.52-.41,5.08.54.82,1.43-1.75,4-5.73,5.74a20.88,20.88,0,0,1-3.6,1.21c-2.51.57-4.54.38-5.09-.58s.55-2.56,2.69-4a5,5,0,0,0-1.2,1.3h0A5.41,5.41,0,0,0,105.55,24a1.44,1.44,0,0,0-.22,1l.07.23c.21.38.77.63,1.61.73a9.8,9.8,0,0,0,3.17-.29h0a20.19,20.19,0,0,0,3.53-1.2,16.22,16.22,0,0,0,4.36-2.7,5.34,5.34,0,0,0,1.1-1.33,1.6,1.6,0,0,0,.24-1l-.1-.22.26-.16-.26.16a1.94,1.94,0,0,0-1.6-.7,8.27,8.27,0,0,0-2.59.16,7.58,7.58,0,0,0-2,.22,1.91,1.91,0,0,0-.45.13A13.43,13.43,0,0,1,114.51,18.52Z"/>
        <path class="cls-12" d="M119.93,21.12c1,2.38,1.94,5,2.78,7.71.37,1.33.7,2.63,1,4,3.09,13.73,2.84,28.2,1.35,40.86a5.37,5.37,0,0,0,.16,1.14h-.3v.29s-.21,1.64-1,6.65c-.3,1.88-.63,3.69-1,5.4-3.08,13.29-6.63,23.7-6.63,23.7a3.31,3.31,0,0,1-1.72,1,4.2,4.2,0,0,1-2.15-.13c.49-.85,1-3.9,1.44-6.59.38-1.56.75-3.11,1.08-4.6a1.1,1.1,0,0,0,.57,0c6-1.36,8-38.67,7.09-47.39-.95-8.88-.65-28.17-9.34-26.21a6.83,6.83,0,0,0-1,.29,14.7,14.7,0,0,1-1.52.47c-2.66.61-3.17-.63-3.17-.63.74-.13,1.44-.28,2.09-.41C117.81,24.74,119.93,21.12,119.93,21.12Z"/>
        <path class="cls-13" d="M125.52,39.36a87.64,87.64,0,0,1,1.55,8.73c.81,7.36.05,16.21-1.36,25A129,129,0,0,0,125.52,39.36Z"/>
        <path class="cls-11" d="M113.86,105.1c.38-1.56.75-3.11,1.08-4.6a3.52,3.52,0,0,1-.43-.13S114.24,102.59,113.86,105.1Zm9.06-18c.36-1.56.73-3.17,1.08-4.82,0-.19-.07-.38-.1-.58C123.58,83.62,123.27,85.43,122.92,87.14Zm.79-54.34c3.09,13.73,2.85,28.2,1.35,40.86a3.51,3.51,0,0,1,.55,0c0-.22.08-.45.1-.64a129,129,0,0,0-.19-33.69c-.73-3.33-1.7-7-2.81-10.53C123.08,30.16,123.41,31.46,123.71,32.8Z"/>
        <g>
          <path class="cls-14" d="M38.4,71.72A43.72,43.72,0,0,1,31.71,66c-2.49-2.6-4.65-5.11-6.46-7.36l-.72-.19A98.91,98.91,0,0,0,36.72,71.37C37.28,71.5,37.85,71.63,38.4,71.72Zm10.14-36c-.89-.57-1.84-1.17-2.82-1.71a34.15,34.15,0,0,0-4.08.07,43.48,43.48,0,0,0-4.55.85,22.87,22.87,0,0,1,4.55-.85c1-.13,2.22-.26,3.55-.35a10.27,10.27,0,0,0-.92-.51h0c-1.28.13-2.52.25-3.71.44-15.75,2.57-23,12.21-23.89,13.55C19,51,21.45,54.46,23.92,57.67l.75.19a75.56,75.56,0,0,1-7.06-10.47s.46-.48,1.32-1.27h-.11l-.05-.57.87-.1c3.52-3.17,11.12-9.23,18.72-10.15A36.42,36.42,0,0,1,48.54,35.71Zm13.74-1a61.14,61.14,0,0,0-16.91-1.53l.89.48A67.22,67.22,0,0,1,62.28,34.67Zm24.09,24.9a32.23,32.23,0,0,0-4.84-12.5c-10.2-7.45-23.9-12.28-34.54-13,1.06.63,2.06,1.26,3,1.93,12.53,2.6,26.49,10.72,28.57,23.41,2.86,1.52,5.58,3.11,8.19,4.7V64c0-.22,0-.57,0-1A30.43,30.43,0,0,0,86.37,59.57Zm8.41,16.81a52.51,52.51,0,0,1-19.4,9.36C83.88,85.74,91.84,83.59,94.78,76.38Zm1.14-5.55c-2.71-1.9-5.66-3.87-8.8-5.8-2.68-1.65-5.51-3.3-8.47-4.89a20.87,20.87,0,0,1-.05,5.52c-1.06,7.77-20.35,18.69-39,6.88-.65-.12-1.32-.22-2-.38a86.39,86.39,0,0,0,13.53,9.49,96.94,96.94,0,0,0,21.53,4l0,0c10-1.62,18.15-7,22.41-10.31a14.89,14.89,0,0,0,.59-2.57C95.82,72.13,95.89,71.47,95.92,70.83Zm-.22-4.06C94.54,59.66,89.56,53.26,82.82,48A33.25,33.25,0,0,1,87,59.48h0a25.53,25.53,0,0,1,.36,4.91h-.09c3.09,1.9,6,3.84,8.71,5.74A20.85,20.85,0,0,0,95.7,66.77Z"/>
          <path class="cls-15" d="M118.67,87.81l-.1-.26-.87.29a74.66,74.66,0,0,1-12,2.85,86.5,86.5,0,0,1-41.51-3.2C48.08,81.94,30.87,70.23,16.58,47l-.26.16.26.16.08-.13c.81-1.17,8-11,23.9-13.58C49.29,32.26,60.64,33,75,38.57s25.28,17.92,32.52,28.87a121.72,121.72,0,0,1,8.15,14.37c.9,1.84,1.57,3.39,2,4.44s.67,1.68.67,1.68l.27-.12-.1-.26.1.26.28-.1A117.48,117.48,0,0,0,108,67.12c-7.27-11-18.18-23.41-32.8-29.09-14.47-5.58-25.94-6.38-34.77-5C23.27,35.87,16.1,47,16.07,47L16,47.2l.09.16C30.43,70.64,47.76,82.44,64.07,88a86.42,86.42,0,0,0,41.78,3.23,70,70,0,0,0,12.91-3.17l.29-.1-.1-.28Z"/>
          <path class="cls-15" d="M117,87.46S70.87,40.28,18.77,45.55l.05.57c25.85-2.63,50.31,7.8,68.3,18.91a183.63,183.63,0,0,1,21.5,15.57c2.56,2.19,4.56,4,5.92,5.27.68.63,1.21,1.14,1.56,1.49s.52.51.52.51Z"/>
          <path class="cls-15" d="M98.43,72.52l-.5.44c-2.23,2.09-12.08,10.59-25.2,12.69a35,35,0,0,1-14.63-.6l-.14.57a36.63,36.63,0,0,0,14.86.63c15.22-2.47,26-13.32,26-13.32Z"/>
          <path class="cls-15" d="M77.42,59.54s-.15.16-.46.44c-2.11,1.94-11.43,9.84-24.5,12a40.15,40.15,0,0,1-16.13-.66l-.15.57a40.75,40.75,0,0,0,16.36.67A50.68,50.68,0,0,0,77.82,60Z"/>
          <path class="cls-15" d="M55.15,49.77l-.31.28a35.13,35.13,0,0,1-17.39,8.38,32.05,32.05,0,0,1-13.56-.76l-.16.57A32.78,32.78,0,0,0,37.55,59a35.68,35.68,0,0,0,18-8.82l-.42-.41Z"/>
          <path class="cls-15" d="M64.53,53.1s-4.89-12.53-20-20.4l-.27.51a45.85,45.85,0,0,1,15.45,13A37.92,37.92,0,0,1,63,51.29c.35.64.58,1.14.74,1.49l.24.54Z"/>
          <path class="cls-15" d="M87.32,64.39A25.53,25.53,0,0,0,87,59.48,32.55,32.55,0,0,0,71.48,36.64l-.31.5a31.93,31.93,0,0,1,15.2,22.43,30.43,30.43,0,0,1,.37,3.49c0,.41,0,.76,0,1v.32Z"/>
          <path class="cls-15" d="M109.81,80.79a35.77,35.77,0,0,0-.5-5.74c-.64-4-2.1-9.26-5.44-13.51l-.46.35c3.25,4.12,4.69,9.36,5.33,13.26a36.36,36.36,0,0,1,.44,4.06c0,.5,0,.89,0,1.17v.41Z"/>
          <path class="cls-16" d="M48.78,80.92l-.18-.13h0Zm60.73-11.51a94.32,94.32,0,0,0-7.23-10.19c2.13,2.63,4,5.3,5.76,7.9C108.55,67.88,109,68.68,109.51,69.41Z"/>
          <path class="cls-17" d="M72.7,85.68a96.94,96.94,0,0,1-21.53-4q3.48,1.91,6.93,3.43v0A35.89,35.89,0,0,0,72.7,85.68Zm25.66-13.1c-.79-.57-1.6-1.18-2.44-1.75,0,.64-.1,1.3-.19,1.94a14.89,14.89,0,0,1-.59,2.57A32.94,32.94,0,0,0,97.93,73C98.14,72.77,98.28,72.64,98.36,72.58Zm10.38,2.57c-.64-3.9-2.08-9.14-5.33-13.26l.14-.1C96.52,52.5,87,43.23,75,38.57c-.48-.16-1-.35-1.43-.51a32.86,32.86,0,0,1,9.22,10c6.74,5.24,11.72,11.64,12.88,18.75a20.85,20.85,0,0,1,.24,3.36c5.34,3.75,9.83,7.3,13.29,10.22,0-.25,0-.66,0-1.14a36.36,36.36,0,0,0-.44-4.06Zm9.56,12.5c-.11-.29-.3-.73-.57-1.4-.46-1-1.13-2.6-2-4.44a121.72,121.72,0,0,0-8.15-14.37c-.29-.45-.59-.89-.91-1.33a34.19,34.19,0,0,1,2.67,8.94,35.77,35.77,0,0,1,.5,5.74h-.09c4.69,4,7.31,6.67,7.31,6.67l-.41.41s-.18-.19-.52-.51-.88-.86-1.56-1.49c-1.36-1.27-3.36-3.08-5.92-5.27s-6-4.88-9.8-7.7l0,0a48.52,48.52,0,0,1-4.06,3.45c-2.94,7.21-10.9,9.36-19.4,9.36-.84.19-1.7.35-2.56.51a36.65,36.65,0,0,1-11.92,0c1.12.45,2.23.86,3.34,1.24a86.5,86.5,0,0,0,41.51,3.2,74.66,74.66,0,0,0,12-2.85Z"/>
          <path class="cls-18" d="M58.1,85.08q-3.45-1.53-6.93-3.43c-1.44-.44-2.36-.76-2.57-.86l.18.13A97.1,97.1,0,0,0,58,85.36Zm60.57,2.73h0a122.73,122.73,0,0,0-9.16-18.4c-.47-.73-1-1.53-1.47-2.29-1.72-2.6-3.63-5.27-5.76-7.9C93,47.83,82.69,41.3,73.11,37.68l.49.38c.48.16,1,.35,1.43.51,12,4.66,21.49,13.93,28.52,23.22l.32-.25a22.93,22.93,0,0,1,2.77,4.57c.32.44.62.88.91,1.33a121.72,121.72,0,0,1,8.15,14.37c.9,1.84,1.57,3.39,2,4.44.27.67.46,1.11.57,1.4l-.6.19a74.66,74.66,0,0,1-12,2.85,86.5,86.5,0,0,1-41.51-3.2c-1.11-.38-2.22-.79-3.34-1.24-.42-.06-.83-.16-1.26-.25C92.51,99,118.67,87.81,118.67,87.81Z"/>
          <path class="cls-18" d="M117,87.46s-2.62-2.67-7.31-6.67h-.49v-.44c-3.46-2.92-8-6.47-13.29-10.22,0,.23,0,.45,0,.7.84.57,1.65,1.18,2.44,1.75l.07-.06.39.38c3.82,2.82,7.12,5.45,9.8,7.7s4.56,4,5.92,5.27c.68.63,1.21,1.14,1.56,1.49s.52.51.52.51Z"/>
          <path class="cls-18" d="M75.38,85.74c-.89,0-1.78,0-2.68-.06a35.89,35.89,0,0,1-14.6-.63v0l-.06.28c.54.22,1.06.45,1.6.64s.84.19,1.26.25a36.65,36.65,0,0,0,11.92,0C73.68,86.09,74.54,85.93,75.38,85.74ZM98.84,72.93l0,0-.39-.38-.07.06c-.08.06-.22.19-.43.38a32.94,32.94,0,0,1-2.79,2.38c-.11.35-.24.7-.36,1A48.52,48.52,0,0,0,98.84,72.93Z"/>
          <path class="cls-19" d="M81.53,47.07a32.94,32.94,0,0,0-10.16-9.83,85.94,85.94,0,0,0-9.09-2.57,67.22,67.22,0,0,0-16-1.05c.25.16.49.29.73.45C57.63,34.79,71.33,39.62,81.53,47.07Z"/>
          <path class="cls-18" d="M71.37,37.24l-.2-.1.07-.12a65.41,65.41,0,0,0-9-2.35A85.94,85.94,0,0,1,71.37,37.24Z"/>
          <path class="cls-18" d="M82.82,48a32.86,32.86,0,0,0-9.22-10l-.49-.38L71.24,37l-.07.12.2.1a32.94,32.94,0,0,1,10.16,9.83Z"/>
          <path class="cls-18" d="M109.31,75.05a34.19,34.19,0,0,0-2.67-8.94,22.93,22.93,0,0,0-2.77-4.57l-.32.25-.14.1c3.25,4.12,4.69,9.36,5.33,13.26h0a36.36,36.36,0,0,1,.44,4.06c0,.48,0,.89,0,1.14v.44h.58A35.77,35.77,0,0,0,109.31,75.05Z"/>
          <path class="cls-20" d="M54.82,50.08a91.51,91.51,0,0,0-35.89-4c-.86.79-1.32,1.27-1.32,1.27a75.56,75.56,0,0,0,7.06,10.47,31.78,31.78,0,0,0,12.78.57A35.54,35.54,0,0,0,54.82,50.08Zm8.82,2.45c-.16-.32-.36-.76-.63-1.24a37.92,37.92,0,0,0-3.29-5.11A45.48,45.48,0,0,0,48.54,35.71a36.42,36.42,0,0,0-10.18-.41c-7.6.92-15.2,7-18.72,10.15C35.22,44.06,50.25,47.29,63.64,52.53Zm15,7.61A145.17,145.17,0,0,0,64,53.29l0,0,0,0c-2.76-1.08-5.61-2.09-8.51-3A35.68,35.68,0,0,1,37.55,59a33.31,33.31,0,0,1-12.3-.38c1.81,2.25,4,4.76,6.46,7.36a43.72,43.72,0,0,0,6.69,5.74,39.75,39.75,0,0,0,14.06.22c13.07-2.12,22.39-10,24.5-12a6,6,0,0,0,.45-.44l.41.41A50.68,50.68,0,0,1,52.54,72.52a40.73,40.73,0,0,1-12.91,0c18.62,11.81,37.91.89,39-6.88A20.87,20.87,0,0,0,78.65,60.14Zm-.1-.73C76.47,46.72,62.51,38.6,50,36A42.81,42.81,0,0,1,64.42,52.85,143.6,143.6,0,0,1,78.55,59.41Z"/>
          <path class="cls-21" d="M64,53.29a5.32,5.32,0,0,0-.22-.51l-.11-.25c-13.39-5.24-28.42-8.47-44-7.08-.25.26-.49.45-.71.67a91.51,91.51,0,0,1,35.89,4l0,0,.31-.28h0l.42.41-.11.1C58.36,51.2,61.21,52.21,64,53.29Zm14.58,6.15v0a143.6,143.6,0,0,0-14.13-6.56,2.15,2.15,0,0,1,.11.25l-.52.19a145.17,145.17,0,0,1,14.64,6.85C78.61,59.92,78.58,59.66,78.55,59.44Z"/>
          <path class="cls-21" d="M77.82,60l-.4-.41s-.15.16-.46.44c-2.11,1.94-11.43,9.84-24.5,12a39.75,39.75,0,0,1-14.06-.22c.42.29.83.57,1.23.82a40.73,40.73,0,0,0,12.91,0A50.68,50.68,0,0,0,77.82,60Z"/>
          <path class="cls-21" d="M55.57,50.18l-.42-.41h0l-.31.28,0,0a35.54,35.54,0,0,1-17.37,8.35,31.78,31.78,0,0,1-12.78-.57l.58.76a33.31,33.31,0,0,0,12.3.38,35.68,35.68,0,0,0,17.91-8.72Z"/>
          <path class="cls-21" d="M64.53,53.1a2.15,2.15,0,0,0-.11-.25A42.81,42.81,0,0,0,50,36l-1.44-.29A45.48,45.48,0,0,1,59.72,46.18,37.92,37.92,0,0,1,63,51.29c.27.48.47.92.63,1.24l.11.25a5.32,5.32,0,0,1,.22.51l0,0,0,0Z"/>
        </g>
      </g>
      <path class="cls-22" d="M151.39,146c-2.16-3.14-4.82-4.73-7.11-4.35-3.17.57-5.77,5-5.82,11.42a26.22,26.22,0,0,0,3.92,14.21c1.9,2.8,4.36,4.47,7,4,6.14-1.05,7.36-12.18,4.19-20.84A20.67,20.67,0,0,0,151.39,146Z"/>
      <path class="cls-23" d="M151.9,175.18a4.34,4.34,0,0,0-8.09,1.47,7.27,7.27,0,0,0,.82,6,4.49,4.49,0,0,0,3.5,2.08c3.65.26,5.57-3.82,4.7-7.42A6.26,6.26,0,0,0,151.9,175.18Z"/>
      <path class="cls-3" d="M104,107.09a28.25,28.25,0,0,0,20.16,6.67l-.06-1.18A27.6,27.6,0,0,1,110,109.66a29.59,29.59,0,0,1-3.81-2.35c-.43-.31-.76-.6-1-.79a3,3,0,0,1-.24-.22l-.08-.06Z"/>
    </g>
    <g>
      <path class="cls-24" d="M49.4,36.31h0c-.8-.57-1.65-1.11-2.54-1.65C47.77,35.2,48.61,35.75,49.4,36.31Z"/>
      <path class="cls-24" d="M44.78,33.46c.62.34,1.24.68,1.83,1l-.17-.1c-.24-.16-.47-.29-.73-.45s-.58-.31-.89-.47A60.69,60.69,0,0,1,61.73,35l.39.08A61.93,61.93,0,0,0,44.78,33.46Z"/>
      <path class="cls-24" d="M78,59.73v0l.9.49Z"/>
      <path class="cls-24" d="M82.31,83q-2,.84-4.14,1.53C79.61,84.07,81,83.55,82.31,83Z"/>
      <path class="cls-24" d="M86.68,64.72h0q1.75,1.08,3.42,2.16C89,66.15,87.85,65.43,86.68,64.72Z"/>
      <path class="cls-24" d="M45.13,34.32l-.5-.28c-1.32.09-2.51.22-3.53.35A33.35,33.35,0,0,1,45.13,34.32Z"/>
      <path class="cls-24" d="M74.83,86.07h0Z"/>
      <path class="cls-24" d="M76.87,59.86l-.45.45.45-.44Z"/>
      <path class="cls-24" d="M81,47.4h0a31.44,31.44,0,0,1,2,3.41A32.28,32.28,0,0,0,81,47.4Z"/>
      <path class="cls-24" d="M38.39,72.74l.69.13,0,0Z"/>
      <path class="cls-24" d="M82.27,48.34h0l.06.09A.41.41,0,0,0,82.27,48.34Z"/>
      <path class="cls-24" d="M41.1,34.39a23.44,23.44,0,0,0-4.12.75C37.65,35,39.06,34.68,41.1,34.39Z"/>
      <path class="cls-24" d="M109.12,30.91q-.86-1.31-1.59-2.28Q108.26,29.61,109.12,30.91Z"/>
      <path class="cls-24" d="M109.18,31c.63,1,1.3,2.15,2,3.46C110.48,33.15,109.81,32,109.18,31Z"/>
      <path class="cls-24" d="M114.58,42.76c-.55-1.69-1.13-3.24-1.72-4.66C113.45,39.51,114,41.07,114.58,42.76Z"/>
      <path class="cls-24" d="M106.07,26.87c.11,0,.22,0,.33,0-.12,0-.23,0-.35-.06Z"/>
      <path class="cls-24" d="M106.11,23a15.9,15.9,0,0,1,4.35-2.73A15.6,15.6,0,0,0,106.11,23Z"/>
      <path class="cls-24" d="M24.7,58.92,24,58.75h0l.72.19Z"/>
      <path class="cls-24" d="M36.83,71.83l1.06.23,0,0Z"/>
      <path class="cls-24" d="M18.39,46.43h0Z"/>
      <path class="cls-24" d="M22.83,41A39.65,39.65,0,0,1,40,34,39.41,39.41,0,0,0,22.83,41Z"/>
      <path class="cls-24" d="M23.42,58l.54.13L23.41,58Z"/>
      <path class="cls-24" d="M19.1,45.77l-.88.1.85-.07Z"/>
      <path class="cls-24" d="M117.15,85.06c.07-.57.14-1.12.2-1.67-.06.54-.14,1.1-.21,1.65Z"/>
      <path class="cls-24" d="M124,37c-.07-.37-.13-.75-.21-1.12h0c.08.4.15.8.22,1.2Z"/>
      <path class="cls-24" d="M123.52,81c0,.33-.1.66-.16,1h0C123.41,81.73,123.47,81.37,123.52,81Z"/>
      <path class="cls-24" d="M124.44,40.05c-.07-.45-.13-.9-.21-1.35v0c.08.49.15,1,.22,1.48C124.45,40.12,124.44,40.08,124.44,40.05Z"/>
      <path class="cls-24" d="M125.19,67l0-.35c0-.6.08-1.2.11-1.8l.06-.9c0-.57,0-1.14.08-1.72l0-1c0-.57,0-1.13,0-1.71,0-.33,0-.67,0-1,0-.58,0-1.16,0-1.74,0-.32,0-.64,0-1,0-.61,0-1.21,0-1.82,0-.17,0-.35,0-.53,0-.65,0-1.31-.08-2a144.64,144.64,0,0,1-.94,22.38v0C124.79,71.61,125,69.32,125.19,67Z"/>
      <path class="cls-24" d="M124.82,43c0-.48-.11-1-.18-1.45v-.09l.21,1.68C124.83,43,124.83,43,124.82,43Z"/>
      <path class="cls-25" d="M178.64,261.34c-5.72-10.89-7.78-22.13-7.11-38.78.25-5.95.8-12.2,1.38-18.83.9-10.18,1.91-21.73,1.93-34.22,0-19.81-4.61-36.68-13.75-50.13A71,71,0,0,0,134.36,95.9,196.6,196.6,0,0,0,138,75c1.78-11.17,2.23-20.34,1.38-28.05-.29-2.62-.87-5.91-1.66-9.55-.38-2.49-.84-4.92-1.37-7.26a92.94,92.94,0,0,0-4.66-14.86c0-.08-.32-.73-.37-.84-.17-.39-.33-.72-.46-1l-.35-.64a15.23,15.23,0,0,0-11.93-7.41c-.63-.06-1.28-.09-1.94-.09a24.81,24.81,0,0,0-5.47.64,33.2,33.2,0,0,0-5.95,1.94l-.26.11c-3.82,1.72-8.93,4.82-11.69,9.8a15.14,15.14,0,0,0-1.94,6.65,12.88,12.88,0,0,0,4.52,11.19,67.92,67.92,0,0,0-16.48-9.33c-1.13-.44-2.24-.84-3.34-1.22a12.9,12.9,0,0,0-1.78-.61,84.3,84.3,0,0,0-26.36-4.6,62.85,62.85,0,0,0-10,.79c-19.59,3.18-30.3,14.92-33.38,20h0l-.09.16a12.91,12.91,0,0,0,.07,13.4l.1.16a121.16,121.16,0,0,0,21.19,26,12.82,12.82,0,0,0,3,2.62,97.84,97.84,0,0,0,12.16,8.8c.24.17.49.32.75.47l.46.26c2.4,1.42,4.87,2.73,7.37,3.93q-2.93,1.65-5.72,3.54c-22.53,15.32-35.8,40.6-37.36,71.16C4.82,201.46,15.25,234.75,35.77,265q1.23,1.81,2.52,3.63c22.4,31.57,48.68,42.58,66.78,46.26a91.16,91.16,0,0,0,18,1.83h0c15.54,0,30.19-4.13,41.24-11.63,7.39-5,12.79-11.34,15.63-18.37A29.7,29.7,0,0,0,178.64,261.34ZM168,281.9c-1.89,4.66-5.7,9-10.9,12.5-11.45,7.77-29.66,11.86-49.47,7.83S66.46,286,48.81,261.15c-.81-1.14-1.61-2.29-2.38-3.43-20-29.53-28.52-59.73-27.18-85.84S31.77,123.78,51,110.72A73.3,73.3,0,0,1,78.61,99.51c6.61-1.23,19.61-1.71,33.45,1.75l1.54.41c1-4.4,1.77-8.56,2.38-12.51a80.34,80.34,0,0,1-10.67,2.43,86.56,86.56,0,0,1-41.78-3.24,80,80,0,0,1-15.09-7l-.21-.11L48,81.12h0a85.89,85.89,0,0,1-12.12-8.89l-.27-.06,0-.15A106.54,106.54,0,0,1,15.53,47.68l-.1-.16.1-.16c0-.06,7.2-11.17,24.39-14,8-1.3,18.3-.74,31,3.59l0,0,.12.07c1.19.41,2.4.84,3.64,1.32C86.62,43,96.08,52.11,103.1,61.28a93.84,93.84,0,0,1,5.52,7.91l.25.38c0,.05.07.1.1.16l.1.17A124.4,124.4,0,0,1,116.68,84c1.79-15,.9-26.53-1.06-35.23a54.56,54.56,0,0,0-7-17.51,33.58,33.58,0,0,0-3-4c-.38-.41-.68-.73-.89-.92l0-.05-.11-.1-.07-.07-.08-.06-.38-.32.17-.07c0-.08-.06-.15-.08-.22a2,2,0,0,1,.29-1.42c.79-1.46,2.92-3,5.72-4.32a20.6,20.6,0,0,1,3.67-1.2,10.94,10.94,0,0,1,3.36-.32,2.49,2.49,0,0,1,2,1,2.08,2.08,0,0,1,.15.39,1.1,1.1,0,0,1,0,.36l.13-.05.11.26a79.56,79.56,0,0,1,4,12.78c.5,2.24.91,4.5,1.25,6.77.75,3.4,1.29,6.41,1.54,8.65.8,7.33,0,16.13-1.35,24.84a185.83,185.83,0,0,1-6.06,30.13c11.61,4.05,23.14,11.18,31.3,23.23C157.44,137,162,150.88,162,169.5c0,19.76-2.65,36.77-3.3,52.53s.71,30.33,8.58,45.31A16.84,16.84,0,0,1,168,281.9Z"/>
      <path class="cls-24" d="M117.89,105.5h0l.35-1.18h0C118.12,104.73,118,105.12,117.89,105.5Z"/>
      <path class="cls-24" d="M144.22,183.14l.15.25a3.92,3.92,0,0,0,3.18,1.81,3.8,3.8,0,0,0,2.42-.69,4,4,0,0,1-2.38.54A4.47,4.47,0,0,1,144.22,183.14Z"/>
      <path class="cls-24" d="M118.8,104.5l1.51.55-1.51-.55Z"/>
      <path class="cls-24" d="M122.37,87.46c-1.23,6.28-2.63,11.67-3.8,15.73h0c1.18-4.09,2.58-9.54,3.83-15.88C122.4,87.36,122.38,87.41,122.37,87.46Z"/>
      <path class="cls-24" d="M125.39,49.56c0-.3,0-.6,0-.9,0-.54-.08-1.08-.12-1.62,0-.18,0-.36,0-.53.09,1.12.16,2.24.22,3.35C125.4,49.76,125.4,49.66,125.39,49.56Z"/>
      <path class="cls-24" d="M57.05,269.8a98.29,98.29,0,0,0,31.11,24.54A98.54,98.54,0,0,1,57.05,269.8Z"/>
      <path class="cls-24" d="M111.83,111.06c.35-1.27.68-2.52,1-3.75-.31,1.23-.65,2.48-1,3.74Z"/>
      <path class="cls-24" d="M94.23,76.71v0c-.94.71-2,1.49-3.25,2.3C92.21,78.18,93.3,77.41,94.23,76.71Z"/>
      <path class="cls-24" d="M125.12,45.82c0-.51-.1-1-.15-1.53a1.8,1.8,0,0,1,0-.22c.06.64.13,1.28.19,1.92C125.13,45.93,125.13,45.88,125.12,45.82Z"/>
      <path class="cls-24" d="M113.32,105.42l0-.21c-.11.45-.21.88-.32,1.34C113.12,106.17,113.22,105.79,113.32,105.42Z"/>
      <path class="cls-24" d="M112.54,106.08l.18-.73A5.43,5.43,0,0,0,112.54,106.08Z"/>
      <path class="cls-24" d="M84.31,82.08q2-.94,3.69-2C86.85,80.79,85.62,81.45,84.31,82.08Z"/>
      <path class="cls-24" d="M124.37,75.15v0h0Z"/>
      <path class="cls-24" d="M114.39,100.82c.69-3.1,1.26-6.07,1.75-8.94-.49,2.86-1.08,5.85-1.76,8.93Z"/>
      <path class="cls-24" d="M116.21,91.44c.14-.83.27-1.66.4-2.48h0C116.47,89.79,116.35,90.6,116.21,91.44Z"/>
    </g>
  </g>
</svg>
