<svg id="Layer_1" data-name="Layer 1" xmlns="http://www.w3.org/2000/svg" xmlns:xlink="http://www.w3.org/1999/xlink" width="2160" height="720" viewBox="0 0 2160 720">
  <defs>
    <style>
      .cls-1 {
        fill: none;
      }

      .cls-2 {
        clip-path: url(#clip-path);
      }

      .cls-3 {
        opacity: 0.03;
      }

      .cls-4 {
        fill: #fff;
      }
    </style>
    <clipPath id="clip-path">
      <rect class="cls-1" width="2160" height="720"/>
    </clipPath>
  </defs>
  <g class="cls-2">
    <g id="BG_texture" data-name="BG texture" class="cls-3">
      <polygon class="cls-4" points="140.64 491.68 155.89 501.14 151.94 483.1 165.28 470.89 147.6 469.24 140.6 452.23 133.63 469.26 115.96 470.95 129.33 483.12 125.42 501.18 140.64 491.68"/>
      <path class="cls-4" d="M45.5,464.83l21.67,13.46-5.63-25.65,19-17.35L55.38,433l-10-24.18L35.53,433l-25.11,2.41,19,17.3-5.57,25.66ZM26,440.62l14-1.34,5.51-13.48L51,439.27l14,1.3-10.56,9.66,3.14,14.29L45.49,457l-12.06,7.52,3.1-14.29Z"/>
      <polygon class="cls-4" points="140.86 678.65 133.9 695.67 116.23 697.37 129.6 709.54 125.68 727.6 140.91 718.09 156.16 727.56 152.2 709.51 165.54 697.31 147.87 695.66 140.86 678.65"/>
      <path class="cls-4" d="M45.68,625.72l21.67,13.45-5.62-25.64,19-17.35-25.12-2.35-10-24.17-9.9,24.2-25.11,2.41,19,17.3L24,639.23ZM26.14,601.51l14-1.34,5.52-13.48,5.54,13.47,14,1.3-10.56,9.66,3.13,14.29-12.07-7.5-12.05,7.53,3.1-14.29Z"/>
      <path class="cls-4" d="M155.61,575.94l-14-34L127.68,576l-35.34,3.39,26.74,24.34-7.84,36.12,30.46-19,30.5,18.93-7.92-36.09L191,579.23Zm-1.35,24.32,4.41,20.11-17-10.55-17,10.59,4.37-20.11-14.9-13.56,19.69-1.89,7.75-19,7.81,19,19.68,1.84Z"/>
      <polygon class="cls-4" points="44.93 533.96 55.77 540.69 52.96 527.86 62.44 519.19 49.88 518.02 44.9 505.93 39.95 518.03 27.39 519.24 36.9 527.88 34.11 540.72 44.93 533.96"/>
      <polygon class="cls-4" points="151.67 256.68 165.01 244.47 147.34 242.82 140.34 225.81 133.37 242.84 115.7 244.53 129.07 256.71 125.15 274.76 140.38 265.26 155.63 274.73 151.67 256.68"/>
      <path class="cls-4" d="M45.31,303.94,67,317.4l-5.62-25.65,19-17.35L55.2,272.06l-10-24.18-9.89,24.2-25.12,2.41,19,17.3-5.56,25.66ZM25.76,279.73l14-1.34,5.51-13.48,5.55,13.47,14,1.3-10.56,9.67,3.13,14.28L45.3,296.14l-12,7.52,3.1-14.29Z"/>
      <path class="cls-4" d="M171.93,413.32,164,377.23l26.68-24.41-35.35-3.3-14-34-13.93,34.05-35.34,3.39,26.74,24.35L111,413.4l30.46-19Zm-43.11-39.44-14.89-13.56,19.68-1.89,7.76-19,7.8,18.94,19.69,1.84L154,373.85l4.41,20.1-17-10.55-17,10.59Z"/>
      <polygon class="cls-4" points="44.75 373.07 55.58 379.8 52.77 366.98 62.25 358.3 49.69 357.13 44.71 345.04 39.77 357.14 27.21 358.35 36.71 367 33.93 379.83 44.75 373.07"/>
      <polygon class="cls-4" points="45.12 694.85 55.96 701.58 53.14 688.75 62.62 680.08 50.06 678.91 45.09 666.82 40.14 678.92 27.58 680.12 37.08 688.77 34.3 701.61 45.12 694.85"/>
      <polygon class="cls-4" points="133.56 16.74 115.89 18.43 129.26 30.6 125.35 48.66 140.57 39.16 155.82 48.62 151.87 30.57 165.21 18.37 147.53 16.72 140.53 -0.29 133.56 16.74"/>
      <path class="cls-4" d="M45.45,143.28l21.67,13.45-5.63-25.65,19-17.34-25.12-2.35L45.38,87.22l-9.9,24.2-25.11,2.4,19,17.3L23.8,156.79ZM25.9,119.07l14-1.34,5.51-13.48L51,117.71l14,1.31-10.56,9.66L57.51,143l-12.07-7.49L33.38,143l3.1-14.29Z"/>
      <path class="cls-4" d="M172.13,187.22l-7.92-36.09,26.68-24.42-35.35-3.3-14-34-13.93,34.06-35.34,3.39L119,151.18l-7.84,36.12,30.46-19ZM129,147.78l-14.9-13.56,19.69-1.89,7.75-19,7.81,19,19.68,1.84-14.86,13.59,4.41,20.11-17-10.55-17,10.59Z"/>
      <polygon class="cls-4" points="44.88 212.41 55.72 219.13 52.91 206.31 62.39 197.64 49.83 196.47 44.85 184.38 39.9 196.48 27.34 197.68 36.85 206.33 34.06 219.16 44.88 212.41"/>
      <polygon class="cls-4" points="44.88 46.16 55.72 52.88 52.91 40.06 62.39 31.38 49.83 30.21 44.85 18.13 39.9 30.23 27.34 31.43 36.85 40.08 34.06 52.91 44.88 46.16"/>
      <polygon class="cls-4" points="329.16 491.68 344.41 501.14 340.45 483.1 353.79 470.89 336.12 469.24 329.12 452.23 322.15 469.26 304.48 470.95 317.85 483.12 313.93 501.18 329.16 491.68"/>
      <path class="cls-4" d="M234,464.83l21.68,13.46-5.63-25.65,19-17.35L243.9,433l-10-24.18-9.9,24.2-25.11,2.41,19,17.3-5.57,25.66Zm-19.54-24.21,14-1.34L234,425.8l5.54,13.47,14,1.3-10.56,9.66,3.13,14.29L234,457,222,464.55l3.1-14.29Z"/>
      <polygon class="cls-4" points="329.38 678.65 322.41 695.67 304.74 697.37 318.11 709.54 314.2 727.6 329.42 718.09 344.67 727.56 340.71 709.51 354.06 697.31 336.38 695.66 329.38 678.65"/>
      <path class="cls-4" d="M234.2,625.72l21.67,13.45-5.62-25.64,19-17.35-25.12-2.35-10-24.17-9.89,24.2-25.12,2.41,19,17.3-5.56,25.66Zm-19.55-24.21,14-1.34,5.51-13.48,5.55,13.47,14,1.3-10.56,9.66,3.13,14.29-12.07-7.5-12.05,7.53,3.1-14.29Z"/>
      <path class="cls-4" d="M344.13,575.94l-14-34L316.19,576l-35.34,3.39,26.74,24.34-7.83,36.12,30.46-19,30.49,18.93-7.91-36.09,26.68-24.42Zm-1.35,24.32,4.41,20.11-17-10.55-17,10.59,4.36-20.11-14.89-13.56,19.68-1.89,7.76-19,7.8,19,19.69,1.84Z"/>
      <polygon class="cls-4" points="233.45 533.96 244.29 540.69 241.47 527.86 250.95 519.19 238.4 518.02 233.42 505.93 228.47 518.03 215.91 519.24 225.41 527.88 222.63 540.72 233.45 533.96"/>
      <polygon class="cls-4" points="340.19 256.68 353.53 244.47 335.86 242.82 328.85 225.81 321.89 242.84 304.22 244.53 317.59 256.71 313.67 274.76 328.9 265.26 344.15 274.73 340.19 256.68"/>
      <path class="cls-4" d="M233.83,303.94,255.5,317.4l-5.63-25.65,19-17.35-25.11-2.34-10-24.18-9.9,24.2-25.11,2.41,19,17.3-5.56,25.66Zm-19.55-24.21,14-1.34,5.51-13.48,5.55,13.47,14,1.3-10.56,9.67,3.14,14.28-12.07-7.49-12.06,7.52,3.1-14.29Z"/>
      <path class="cls-4" d="M360.45,413.32l-7.92-36.09,26.69-24.41-35.35-3.3-14-34-13.93,34.05-35.34,3.39,26.74,24.35L299.5,413.4l30.45-19Zm-43.11-39.44-14.89-13.56,19.68-1.89,7.76-19,7.8,18.94,19.69,1.84-14.86,13.6,4.41,20.1-17-10.55L313,394Z"/>
      <polygon class="cls-4" points="233.26 373.07 244.1 379.8 241.29 366.98 250.77 358.3 238.21 357.13 233.23 345.04 228.28 357.14 215.73 358.35 225.23 367 222.44 379.83 233.26 373.07"/>
      <polygon class="cls-4" points="233.64 694.85 244.47 701.58 241.66 688.75 251.14 680.08 238.58 678.91 233.6 666.82 228.66 678.92 216.1 680.12 225.6 688.77 222.82 701.61 233.64 694.85"/>
      <polygon class="cls-4" points="322.08 16.74 304.41 18.43 317.78 30.6 313.86 48.66 329.09 39.16 344.34 48.62 340.38 30.57 353.72 18.37 336.05 16.72 329.05 -0.29 322.08 16.74"/>
      <path class="cls-4" d="M234,143.28l21.68,13.45L250,131.08l19-17.34-25.12-2.35L233.9,87.22l-9.9,24.2-25.11,2.4,19,17.3-5.57,25.67Zm-19.54-24.21,14-1.34,5.51-13.48,5.54,13.46,14,1.31-10.56,9.66L246,143,234,135.47l-12,7.52L225,128.7Z"/>
      <path class="cls-4" d="M360.64,187.22l-7.91-36.09,26.68-24.42-35.35-3.3-14-34-13.93,34.06-35.34,3.39,26.74,24.34-7.83,36.12,30.46-19Zm-43.11-39.44-14.89-13.56,19.68-1.89,7.76-19,7.8,19,19.69,1.84-14.86,13.59,4.41,20.11-17-10.55-17,10.59Z"/>
      <polygon class="cls-4" points="233.4 212.41 244.24 219.13 241.42 206.31 250.91 197.64 238.34 196.47 233.37 184.38 228.42 196.48 215.86 197.68 225.36 206.33 222.58 219.16 233.4 212.41"/>
      <polygon class="cls-4" points="233.4 46.16 244.24 52.88 241.42 40.06 250.91 31.38 238.34 30.21 233.37 18.13 228.42 30.23 215.86 31.43 225.36 40.08 222.58 52.91 233.4 46.16"/>
      <polygon class="cls-4" points="517.68 491.68 532.93 501.14 528.97 483.1 542.31 470.89 524.64 469.24 517.63 452.23 510.67 469.26 493 470.95 506.37 483.12 502.45 501.18 517.68 491.68"/>
      <path class="cls-4" d="M422.53,464.83l21.67,13.46-5.62-25.65,19-17.35L432.42,433l-9.95-24.18-9.9,24.2-25.12,2.41,19,17.3-5.57,25.66ZM403,440.62l14-1.34,5.52-13.48L428,439.27l14,1.3-10.56,9.66,3.13,14.29L422.52,457l-12,7.52,3.1-14.29Z"/>
      <polygon class="cls-4" points="517.9 678.65 510.93 695.67 493.26 697.37 506.63 709.54 502.71 727.6 517.94 718.09 533.19 727.56 529.23 709.51 542.57 697.31 524.9 695.66 517.9 678.65"/>
      <path class="cls-4" d="M422.72,625.72l21.67,13.45-5.63-25.64,19-17.35-25.11-2.35-10-24.17-9.9,24.2-25.11,2.41,19,17.3-5.56,25.66Zm-19.55-24.21,14-1.34,5.51-13.48,5.55,13.47,14,1.3-10.56,9.66,3.13,14.29-12.07-7.5-12,7.53,3.09-14.29Z"/>
      <path class="cls-4" d="M532.65,575.94l-14-34L504.71,576l-35.34,3.39,26.74,24.34-7.83,36.12,30.45-19,30.5,18.93-7.91-36.09L568,579.23Zm-1.35,24.32,4.41,20.11-17-10.55-17,10.59,4.36-20.11-14.89-13.56,19.68-1.89,7.76-19,7.8,19,19.69,1.84Z"/>
      <polygon class="cls-4" points="421.97 533.96 432.8 540.69 429.99 527.86 439.47 519.19 426.91 518.02 421.94 505.93 416.99 518.03 404.43 519.24 413.93 527.88 411.15 540.72 421.97 533.96"/>
      <polygon class="cls-4" points="528.71 256.68 542.05 244.47 524.37 242.82 517.37 225.81 510.4 242.84 492.74 244.53 506.11 256.71 502.19 274.76 517.42 265.26 532.67 274.73 528.71 256.68"/>
      <path class="cls-4" d="M422.34,303.94,444,317.4l-5.63-25.65,19-17.35-25.12-2.34-10-24.18-9.9,24.2-25.11,2.41,19,17.3-5.57,25.66ZM402.8,279.73l14-1.34,5.51-13.48,5.54,13.47,14,1.3-10.56,9.67,3.14,14.28-12.08-7.49-12.05,7.52,3.1-14.29Z"/>
      <path class="cls-4" d="M549,413.32l-7.92-36.09,26.69-24.41-35.35-3.3-14-34-13.93,34.05-35.34,3.39,26.74,24.35L488,413.4l30.46-19Zm-43.11-39.44L491,360.32l19.69-1.89,7.76-19,7.8,18.94,19.69,1.84L531,373.85l4.41,20.1-17-10.55L501.5,394Z"/>
      <polygon class="cls-4" points="421.78 373.07 432.62 379.8 429.81 366.98 439.29 358.3 426.73 357.13 421.75 345.04 416.8 357.14 404.24 358.35 413.74 367 410.96 379.83 421.78 373.07"/>
      <polygon class="cls-4" points="422.15 694.85 432.99 701.58 430.18 688.75 439.66 680.08 427.1 678.91 422.12 666.82 417.17 678.92 404.62 680.12 414.12 688.77 411.33 701.61 422.15 694.85"/>
      <polygon class="cls-4" points="510.6 16.74 492.93 18.43 506.3 30.6 502.38 48.66 517.61 39.16 532.86 48.62 528.9 30.57 542.24 18.37 524.57 16.72 517.56 -0.29 510.6 16.74"/>
      <path class="cls-4" d="M422.48,143.28l21.67,13.45-5.62-25.65,19-17.34-25.12-2.35-9.95-24.17-9.9,24.2-25.12,2.4,19,17.3-5.57,25.67Zm-19.54-24.21,14-1.34,5.52-13.48L428,117.71,442,119l-10.56,9.66L434.54,143l-12.07-7.49L410.42,143l3.1-14.29Z"/>
      <path class="cls-4" d="M549.16,187.22l-7.92-36.09,26.69-24.42-35.35-3.3-14-34-13.93,34.06-35.34,3.39L496,151.18l-7.83,36.12,30.45-19Zm-43.11-39.44-14.89-13.56,19.68-1.89,7.76-19,7.8,19,19.69,1.84-14.86,13.59,4.41,20.11-17-10.55-17,10.59Z"/>
      <polygon class="cls-4" points="421.92 212.41 432.75 219.13 429.94 206.31 439.42 197.64 426.86 196.47 421.89 184.38 416.94 196.48 404.38 197.68 413.88 206.33 411.1 219.16 421.92 212.41"/>
      <polygon class="cls-4" points="421.92 46.16 432.75 52.88 429.94 40.06 439.42 31.38 426.86 30.21 421.89 18.13 416.94 30.23 404.38 31.43 413.88 40.08 411.1 52.91 421.92 46.16"/>
      <polygon class="cls-4" points="706.2 491.68 721.45 501.14 717.49 483.1 730.83 470.89 713.15 469.24 706.15 452.23 699.19 469.26 681.51 470.95 694.88 483.12 690.97 501.18 706.2 491.68"/>
      <path class="cls-4" d="M611.05,464.83l21.67,13.46-5.63-25.65,19-17.35L620.94,433l-10-24.18-9.9,24.2L576,435.38l19,17.3-5.56,25.66ZM591.5,440.62l14-1.34L611,425.8l5.55,13.47,14,1.3L620,450.23l3.13,14.29L611,457l-12,7.52,3.1-14.29Z"/>
      <polygon class="cls-4" points="706.41 678.65 699.45 695.67 681.78 697.37 695.15 709.54 691.23 727.6 706.46 718.09 721.71 727.56 717.75 709.51 731.09 697.31 713.42 695.66 706.41 678.65"/>
      <path class="cls-4" d="M611.23,625.72l21.68,13.45-5.63-25.64,19-17.35-25.12-2.35-10-24.17-9.9,24.2-25.11,2.41,19,17.3-5.57,25.66Zm-19.54-24.21,14-1.34,5.51-13.48,5.54,13.47,14,1.3-10.56,9.66,3.14,14.29-12.07-7.5-12.06,7.53,3.1-14.29Z"/>
      <path class="cls-4" d="M721.17,575.94l-14-34L693.23,576l-35.34,3.39,26.74,24.34-7.84,36.12,30.46-19,30.5,18.93-7.92-36.09,26.69-24.42Zm-1.36,24.32,4.42,20.11-17-10.55-17,10.59,4.36-20.11-14.89-13.56,19.68-1.89,7.76-19,7.8,19,19.69,1.84Z"/>
      <polygon class="cls-4" points="610.49 533.96 621.32 540.69 618.51 527.86 627.99 519.19 615.43 518.02 610.45 505.93 605.5 518.03 592.95 519.24 602.45 527.88 599.66 540.72 610.49 533.96"/>
      <polygon class="cls-4" points="717.23 256.68 730.57 244.47 712.89 242.82 705.89 225.81 698.92 242.84 681.25 244.53 694.62 256.71 690.71 274.76 705.93 265.26 721.18 274.73 717.23 256.68"/>
      <path class="cls-4" d="M610.86,303.94l21.67,13.46-5.62-25.65,19-17.35-25.12-2.34-10-24.18-9.9,24.2-25.11,2.41,19,17.3-5.57,25.66Zm-19.54-24.21,14-1.34,5.52-13.48,5.54,13.47,14,1.3-10.56,9.67,3.13,14.28-12.07-7.49-12.05,7.52,3.1-14.29Z"/>
      <path class="cls-4" d="M737.49,413.32l-7.92-36.09,26.68-24.41-35.35-3.3-14-34L693,349.55l-35.34,3.39,26.74,24.35-7.84,36.11,30.46-19Zm-43.11-39.44-14.9-13.56,19.69-1.89,7.75-19,7.81,18.94,19.68,1.84-14.86,13.6L724,394,707,383.4,690,394Z"/>
      <polygon class="cls-4" points="610.3 373.07 621.13 379.8 618.32 366.98 627.8 358.3 615.24 357.13 610.27 345.04 605.32 357.14 592.76 358.35 602.26 367 599.48 379.83 610.3 373.07"/>
      <polygon class="cls-4" points="610.67 694.85 621.51 701.58 618.7 688.75 628.18 680.08 615.62 678.91 610.64 666.82 605.69 678.92 593.13 680.12 602.63 688.77 599.85 701.61 610.67 694.85"/>
      <polygon class="cls-4" points="699.12 16.74 681.45 18.43 694.82 30.6 690.9 48.66 706.13 39.16 721.38 48.62 717.42 30.57 730.76 18.37 713.08 16.72 706.08 -0.29 699.12 16.74"/>
      <path class="cls-4" d="M611,143.28l21.67,13.45L627,131.08l19-17.34-25.12-2.35-10-24.17L601,111.42l-25.12,2.4,19,17.3-5.56,25.67Zm-19.55-24.21,14-1.34L611,104.25l5.55,13.46,14,1.31-10.56,9.66L623.06,143,611,135.47l-12,7.52L602,128.7Z"/>
      <path class="cls-4" d="M737.68,187.22l-7.92-36.09,26.69-24.42-35.35-3.3-14-34-13.93,34.06-35.34,3.39,26.74,24.34-7.83,36.12,30.45-19Zm-43.11-39.44-14.9-13.56,19.69-1.89,7.76-19,7.8,19,19.69,1.84-14.87,13.59,4.42,20.11-17-10.55-17,10.59Z"/>
      <polygon class="cls-4" points="610.44 212.41 621.27 219.13 618.46 206.31 627.94 197.64 615.38 196.47 610.4 184.38 605.45 196.48 592.9 197.68 602.4 206.33 599.62 219.16 610.44 212.41"/>
      <polygon class="cls-4" points="610.44 46.16 621.27 52.88 618.46 40.06 627.94 31.38 615.38 30.21 610.4 18.13 605.45 30.23 592.9 31.43 602.4 40.08 599.62 52.91 610.44 46.16"/>
      <polygon class="cls-4" points="894.71 491.68 909.96 501.14 906 483.1 919.35 470.89 901.67 469.24 894.67 452.23 887.7 469.26 870.03 470.95 883.4 483.12 879.49 501.18 894.71 491.68"/>
      <path class="cls-4" d="M799.57,464.83l21.67,13.46-5.63-25.65,19-17.35L809.45,433l-10-24.18L789.6,433l-25.11,2.41,19,17.3-5.57,25.66ZM780,440.62l14-1.34,5.51-13.48,5.54,13.47,14,1.3-10.56,9.66,3.14,14.29L799.56,457l-12.06,7.52,3.1-14.29Z"/>
      <polygon class="cls-4" points="894.93 678.65 887.97 695.67 870.29 697.37 883.67 709.54 879.75 727.6 894.98 718.09 910.23 727.56 906.27 709.51 919.61 697.31 901.93 695.66 894.93 678.65"/>
      <path class="cls-4" d="M799.75,625.72l21.67,13.45-5.62-25.64,19-17.35-25.12-2.35-9.95-24.17-9.9,24.2-25.11,2.41,19,17.3-5.57,25.66Zm-19.54-24.21,14-1.34,5.52-13.48,5.54,13.47,14,1.3-10.56,9.66,3.13,14.29-12.07-7.5-12,7.53,3.1-14.29Z"/>
      <path class="cls-4" d="M909.68,575.94l-14-34L881.75,576l-35.34,3.39,26.74,24.34-7.84,36.12,30.46-19,30.5,18.93-7.92-36.09L945,579.23Zm-1.35,24.32,4.41,20.11-17-10.55-17,10.59,4.37-20.11-14.9-13.56L888,584.85l7.75-19,7.81,19,19.68,1.84Z"/>
      <polygon class="cls-4" points="799 533.96 809.84 540.69 807.03 527.86 816.51 519.19 803.95 518.02 798.97 505.93 794.02 518.03 781.47 519.24 790.97 527.88 788.18 540.72 799 533.96"/>
      <polygon class="cls-4" points="905.74 256.68 919.08 244.47 901.41 242.82 894.4 225.81 887.44 242.84 869.77 244.53 883.14 256.71 879.22 274.76 894.45 265.26 909.7 274.73 905.74 256.68"/>
      <path class="cls-4" d="M799.38,303.94l21.67,13.46-5.63-25.65,19-17.35-25.12-2.34-10-24.18-9.89,24.2-25.12,2.41,19,17.3-5.56,25.66Zm-19.55-24.21,14-1.34,5.51-13.48,5.55,13.47,14,1.3-10.56,9.67,3.13,14.28-12.07-7.49-12,7.52,3.1-14.29Z"/>
      <path class="cls-4" d="M926,413.32l-7.91-36.09,26.68-24.41-35.35-3.3-14-34-13.93,34.05-35.34,3.39,26.74,24.35-7.83,36.11,30.46-19Zm-43.11-39.44L868,360.32l19.68-1.89,7.76-19,7.8,18.94,19.69,1.84-14.86,13.6,4.41,20.1-17-10.55-17,10.59Z"/>
      <polygon class="cls-4" points="798.82 373.07 809.65 379.8 806.84 366.98 816.32 358.3 803.76 357.13 798.78 345.04 793.84 357.14 781.28 358.35 790.78 367 788 379.83 798.82 373.07"/>
      <polygon class="cls-4" points="799.19 694.85 810.03 701.58 807.21 688.75 816.69 680.08 804.13 678.91 799.16 666.82 794.21 678.92 781.65 680.12 791.15 688.77 788.37 701.61 799.19 694.85"/>
      <polygon class="cls-4" points="887.63 16.74 869.96 18.43 883.33 30.6 879.42 48.66 894.64 39.16 909.89 48.62 905.93 30.57 919.28 18.37 901.6 16.72 894.6 -0.29 887.63 16.74"/>
      <path class="cls-4" d="M799.52,143.28l21.67,13.45-5.63-25.65,19-17.34-25.12-2.35-9.95-24.17-9.9,24.2-25.11,2.4,19,17.3-5.57,25.67ZM780,119.07l14-1.34,5.51-13.48L805,117.71,819,119l-10.56,9.66L811.58,143l-12.07-7.49L787.45,143l3.1-14.29Z"/>
      <path class="cls-4" d="M926.2,187.22l-7.92-36.09L945,126.71l-35.35-3.3-14-34-13.93,34.06-35.34,3.39,26.74,24.34-7.84,36.12,30.46-19Zm-43.11-39.44-14.9-13.56,19.69-1.89,7.75-19,7.81,19,19.68,1.84-14.86,13.59,4.41,20.11-17-10.55-17,10.59Z"/>
      <polygon class="cls-4" points="798.95 212.41 809.79 219.13 806.98 206.31 816.46 197.64 803.9 196.47 798.92 184.38 793.97 196.48 781.41 197.68 790.92 206.33 788.13 219.16 798.95 212.41"/>
      <polygon class="cls-4" points="798.95 46.16 809.79 52.88 806.98 40.06 816.46 31.38 803.9 30.21 798.92 18.13 793.97 30.23 781.41 31.43 790.92 40.08 788.13 52.91 798.95 46.16"/>
      <polygon class="cls-4" points="1083.23 491.68 1098.48 501.14 1094.52 483.1 1107.86 470.89 1090.19 469.24 1083.18 452.23 1076.22 469.26 1058.55 470.95 1071.92 483.12 1068 501.18 1083.23 491.68"/>
      <path class="cls-4" d="M988.08,464.83l21.68,13.46-5.63-25.65,19-17.35L998,433l-10-24.18-9.9,24.2L953,435.38l19,17.3-5.57,25.66Zm-19.54-24.21,14-1.34L988,425.8l5.54,13.47,14,1.3L997,450.23l3.13,14.29L988.07,457,976,464.55l3.1-14.29Z"/>
      <polygon class="cls-4" points="1083.45 678.65 1076.48 695.67 1058.81 697.37 1072.18 709.54 1068.27 727.6 1083.49 718.09 1098.74 727.56 1094.79 709.51 1108.13 697.31 1090.45 695.66 1083.45 678.65"/>
      <path class="cls-4" d="M988.27,625.72l21.67,13.45-5.62-25.64,19-17.35-25.12-2.35-10-24.17-9.89,24.2-25.12,2.41,19,17.3-5.56,25.66Zm-19.55-24.21,14-1.34,5.51-13.48,5.55,13.47,14,1.3-10.56,9.66,3.13,14.29-12.07-7.5-12,7.53,3.1-14.29Z"/>
      <path class="cls-4" d="M1098.2,575.94l-14-34L1070.26,576l-35.34,3.39,26.74,24.34-7.83,36.12,30.46-19,30.49,18.93-7.91-36.09,26.68-24.42Zm-1.35,24.32,4.41,20.11-17-10.55-17,10.59,4.36-20.11-14.89-13.56,19.68-1.89,7.76-19,7.8,19,19.69,1.84Z"/>
      <polygon class="cls-4" points="987.52 533.96 998.36 540.69 995.54 527.86 1005.02 519.19 992.47 518.02 987.49 505.93 982.54 518.03 969.98 519.24 979.48 527.88 976.7 540.72 987.52 533.96"/>
      <polygon class="cls-4" points="1094.26 256.68 1107.6 244.47 1089.93 242.82 1082.92 225.81 1075.96 242.84 1058.29 244.53 1071.66 256.71 1067.74 274.76 1082.97 265.26 1098.22 274.73 1094.26 256.68"/>
      <path class="cls-4" d="M987.9,303.94l21.67,13.46-5.63-25.65,19-17.35-25.12-2.34-9.95-24.18-9.9,24.2-25.11,2.41,19,17.3-5.57,25.66Zm-19.55-24.21,14-1.34,5.51-13.48,5.55,13.47,14,1.3-10.56,9.67,3.14,14.28-12.07-7.49-12.06,7.52,3.1-14.29Z"/>
      <path class="cls-4" d="M1114.52,413.32l-7.92-36.09,26.69-24.41-35.35-3.3-14-34L1070,349.55l-35.34,3.39,26.74,24.35-7.83,36.11,30.45-19Zm-43.11-39.44-14.89-13.56,19.68-1.89,7.76-19,7.8,18.94,19.69,1.84-14.86,13.6L1101,394l-17-10.55-17,10.59Z"/>
      <polygon class="cls-4" points="987.33 373.07 998.17 379.8 995.36 366.98 1004.84 358.3 992.28 357.13 987.3 345.04 982.35 357.14 969.8 358.35 979.3 367 976.51 379.83 987.33 373.07"/>
      <polygon class="cls-4" points="987.71 694.85 998.54 701.58 995.73 688.75 1005.21 680.08 992.65 678.91 987.67 666.82 982.73 678.92 970.17 680.12 979.67 688.77 976.89 701.61 987.71 694.85"/>
      <polygon class="cls-4" points="1076.15 16.74 1058.48 18.43 1071.85 30.6 1067.93 48.66 1083.16 39.16 1098.41 48.62 1094.45 30.57 1107.79 18.37 1090.12 16.72 1083.12 -0.29 1076.15 16.74"/>
      <path class="cls-4" d="M988,143.28l21.68,13.45-5.63-25.65,19-17.34-25.12-2.35L988,87.22l-9.9,24.2L953,113.82l19,17.3-5.57,25.67Zm-19.54-24.21,14-1.34L988,104.25l5.54,13.46,14,1.31L997,128.68l3.13,14.28L988,135.47,976,143l3.1-14.29Z"/>
      <path class="cls-4" d="M1114.71,187.22l-7.91-36.09,26.68-24.42-35.35-3.3-14-34-13.93,34.06-35.34,3.39,26.74,24.34-7.83,36.12,30.46-19Zm-43.11-39.44-14.89-13.56,19.68-1.89,7.76-19,7.8,19,19.69,1.84-14.86,13.59,4.41,20.11-17-10.55-17,10.59Z"/>
      <polygon class="cls-4" points="987.47 212.41 998.31 219.13 995.49 206.31 1004.97 197.64 992.41 196.47 987.44 184.38 982.49 196.48 969.93 197.68 979.43 206.33 976.65 219.16 987.47 212.41"/>
      <polygon class="cls-4" points="987.47 46.16 998.31 52.88 995.49 40.06 1004.97 31.38 992.41 30.21 987.44 18.13 982.49 30.23 969.93 31.43 979.43 40.08 976.65 52.91 987.47 46.16"/>
      <polygon class="cls-4" points="1271.75 491.68 1287 501.14 1283.04 483.1 1296.38 470.89 1278.71 469.24 1271.7 452.23 1264.74 469.26 1247.07 470.95 1260.44 483.12 1256.52 501.18 1271.75 491.68"/>
      <path class="cls-4" d="M1176.6,464.83l21.67,13.46-5.62-25.65,19-17.35L1186.49,433l-10-24.18-9.9,24.2-25.12,2.41,19,17.3L1155,478.34Zm-19.54-24.21,14-1.34,5.51-13.48,5.55,13.47,14,1.3-10.56,9.66,3.13,14.29L1176.59,457l-12,7.52,3.1-14.29Z"/>
      <polygon class="cls-4" points="1271.97 678.65 1265 695.67 1247.33 697.37 1260.7 709.54 1256.78 727.6 1272.01 718.09 1287.26 727.56 1283.3 709.51 1296.64 697.31 1278.97 695.66 1271.97 678.65"/>
      <path class="cls-4" d="M1176.79,625.72l21.67,13.45-5.63-25.64,19-17.35-25.11-2.35-10-24.17-9.9,24.2-25.11,2.41,19,17.3-5.56,25.66Zm-19.55-24.21,14-1.34,5.51-13.48,5.55,13.47,14,1.3-10.57,9.66,3.14,14.29-12.07-7.5-12,7.53,3.09-14.29Z"/>
      <path class="cls-4" d="M1286.72,575.94l-14-34L1258.78,576l-35.34,3.39,26.74,24.34-7.83,36.12,30.45-19,30.5,18.93-7.92-36.09,26.69-24.42Zm-1.35,24.32,4.41,20.11-17-10.55-17,10.59,4.36-20.11-14.89-13.56,19.68-1.89,7.76-19,7.8,19,19.69,1.84Z"/>
      <polygon class="cls-4" points="1176.04 533.96 1186.87 540.69 1184.06 527.86 1193.54 519.19 1180.98 518.02 1176.01 505.93 1171.06 518.03 1158.5 519.24 1168 527.88 1165.22 540.72 1176.04 533.96"/>
      <polygon class="cls-4" points="1282.78 256.68 1296.12 244.47 1278.44 242.82 1271.44 225.81 1264.47 242.84 1246.81 244.53 1260.17 256.71 1256.26 274.76 1271.49 265.26 1286.73 274.73 1282.78 256.68"/>
      <path class="cls-4" d="M1176.41,303.94l21.68,13.46-5.63-25.65,19-17.35-25.12-2.34-10-24.18-9.9,24.2-25.11,2.41,19,17.3-5.57,25.66Zm-19.54-24.21,14-1.34,5.51-13.48,5.54,13.47,14,1.3-10.56,9.67,3.14,14.28-12.08-7.49-12.05,7.52,3.1-14.29Z"/>
      <path class="cls-4" d="M1303,413.32l-7.92-36.09,26.69-24.41-35.35-3.3-14-34-13.93,34.05-35.34,3.39,26.74,24.35-7.84,36.11,30.46-19Zm-43.11-39.44L1245,360.32l19.69-1.89,7.76-19,7.8,18.94,19.69,1.84-14.87,13.6,4.41,20.1-17-10.55-17,10.59Z"/>
      <polygon class="cls-4" points="1175.85 373.07 1186.69 379.8 1183.87 366.98 1193.36 358.3 1180.8 357.13 1175.82 345.04 1170.87 357.14 1158.31 358.35 1167.81 367 1165.03 379.83 1175.85 373.07"/>
      <polygon class="cls-4" points="1176.22 694.85 1187.06 701.58 1184.25 688.75 1193.73 680.08 1181.17 678.91 1176.19 666.82 1171.24 678.92 1158.69 680.12 1168.19 688.77 1165.4 701.61 1176.22 694.85"/>
      <polygon class="cls-4" points="1264.67 16.74 1247 18.43 1260.37 30.6 1256.45 48.66 1271.68 39.16 1286.93 48.62 1282.97 30.57 1296.31 18.37 1278.64 16.72 1271.63 -0.29 1264.67 16.74"/>
      <path class="cls-4" d="M1176.55,143.28l21.67,13.45-5.62-25.65,19-17.34-25.12-2.35-10-24.17-9.9,24.2-25.12,2.4,19,17.3-5.57,25.67ZM1157,119.07l14-1.34,5.52-13.48,5.54,13.46,14,1.31-10.56,9.66,3.13,14.28-12.07-7.49-12,7.52,3.1-14.29Z"/>
      <path class="cls-4" d="M1303.23,187.22l-7.92-36.09L1322,126.71l-35.35-3.3-14-34-13.93,34.06-35.34,3.39,26.74,24.34-7.83,36.12,30.45-19Zm-43.11-39.44-14.89-13.56,19.68-1.89,7.76-19,7.8,19,19.69,1.84-14.86,13.59,4.41,20.11-17-10.55-17,10.59Z"/>
      <polygon class="cls-4" points="1175.99 212.41 1186.82 219.13 1184.01 206.31 1193.49 197.64 1180.93 196.47 1175.95 184.38 1171.01 196.48 1158.45 197.68 1167.95 206.33 1165.17 219.16 1175.99 212.41"/>
      <polygon class="cls-4" points="1175.99 46.16 1186.82 52.88 1184.01 40.06 1193.49 31.38 1180.93 30.21 1175.95 18.13 1171.01 30.23 1158.45 31.43 1167.95 40.08 1165.17 52.91 1175.99 46.16"/>
      <polygon class="cls-4" points="1460.27 491.68 1475.52 501.14 1471.56 483.1 1484.9 470.89 1467.22 469.24 1460.22 452.23 1453.26 469.26 1435.59 470.95 1448.95 483.12 1445.04 501.18 1460.27 491.68"/>
      <path class="cls-4" d="M1365.12,464.83l21.67,13.46-5.63-25.65,19-17.35L1375,433l-10-24.18-9.9,24.2L1330,435.38l19,17.3-5.56,25.66Zm-19.55-24.21,14-1.34,5.51-13.48,5.55,13.47,14,1.3-10.56,9.66,3.13,14.29L1365.11,457l-12,7.52,3.1-14.29Z"/>
      <polygon class="cls-4" points="1460.48 678.65 1453.52 695.67 1435.85 697.37 1449.22 709.54 1445.3 727.6 1460.53 718.09 1475.78 727.56 1471.82 709.51 1485.16 697.31 1467.49 695.66 1460.48 678.65"/>
      <path class="cls-4" d="M1365.3,625.72,1387,639.17l-5.63-25.64,19-17.35-25.12-2.35-10-24.17-9.9,24.2-25.11,2.41,19,17.3-5.57,25.66Zm-19.54-24.21,14-1.34,5.51-13.48,5.54,13.47,14,1.3-10.56,9.66,3.14,14.29-12.07-7.5-12.06,7.53,3.1-14.29Z"/>
      <path class="cls-4" d="M1475.24,575.94l-14-34L1447.3,576,1412,579.36l26.74,24.34-7.84,36.12,30.46-19,30.5,18.93-7.92-36.09,26.69-24.42Zm-1.36,24.32,4.41,20.11-17-10.55-17,10.59,4.36-20.11-14.9-13.56,19.69-1.89,7.76-19,7.8,19,19.69,1.84Z"/>
      <polygon class="cls-4" points="1364.56 533.96 1375.39 540.69 1372.58 527.86 1382.06 519.19 1369.5 518.02 1364.52 505.93 1359.57 518.03 1347.02 519.24 1356.52 527.88 1353.73 540.72 1364.56 533.96"/>
      <polygon class="cls-4" points="1471.29 256.68 1484.64 244.47 1466.96 242.82 1459.96 225.81 1452.99 242.84 1435.32 244.53 1448.69 256.71 1444.78 274.76 1460 265.26 1475.25 274.73 1471.29 256.68"/>
      <path class="cls-4" d="M1364.93,303.94l21.67,13.46L1381,291.75l19-17.35-25.12-2.34-10-24.18-9.9,24.2-25.11,2.41,19,17.3-5.57,25.66Zm-19.54-24.21,14-1.34,5.52-13.48,5.54,13.47,14,1.3-10.56,9.67,3.13,14.28-12.07-7.49-12.05,7.52,3.1-14.29Z"/>
      <path class="cls-4" d="M1491.56,413.32l-7.92-36.09,26.68-24.41-35.35-3.3-14-34L1447,349.55l-35.34,3.39,26.74,24.35-7.84,36.11,30.46-19Zm-43.12-39.44-14.89-13.56,19.69-1.89,7.75-19,7.81,18.94,19.68,1.84-14.86,13.6L1478,394l-17-10.55-17,10.59Z"/>
      <polygon class="cls-4" points="1364.37 373.07 1375.2 379.8 1372.39 366.98 1381.87 358.3 1369.31 357.13 1364.34 345.04 1359.39 357.14 1346.83 358.35 1356.33 367 1353.55 379.83 1364.37 373.07"/>
      <polygon class="cls-4" points="1364.74 694.85 1375.58 701.58 1372.77 688.75 1382.25 680.08 1369.69 678.91 1364.71 666.82 1359.76 678.92 1347.2 680.12 1356.7 688.77 1353.92 701.61 1364.74 694.85"/>
      <polygon class="cls-4" points="1453.18 16.74 1435.52 18.43 1448.88 30.6 1444.97 48.66 1460.2 39.16 1475.45 48.62 1471.49 30.57 1484.83 18.37 1467.15 16.72 1460.15 -0.29 1453.18 16.74"/>
      <path class="cls-4" d="M1365.07,143.28l21.67,13.45-5.63-25.65,19-17.34L1375,111.39l-10-24.17-9.9,24.2-25.11,2.4,19,17.3-5.56,25.67Zm-19.55-24.21,14-1.34,5.51-13.48,5.55,13.46,14,1.31L1374,128.68l3.13,14.28-12.07-7.49L1353,143l3.1-14.29Z"/>
      <path class="cls-4" d="M1491.75,187.22l-7.92-36.09,26.69-24.42-35.35-3.3-14-34-13.93,34.06-35.34,3.39,26.74,24.34-7.84,36.12,30.46-19Zm-43.11-39.44-14.9-13.56,19.69-1.89,7.76-19,7.8,19,19.69,1.84-14.87,13.59,4.41,20.11-17-10.55-17,10.59Z"/>
      <polygon class="cls-4" points="1364.51 212.41 1375.34 219.13 1372.53 206.31 1382.01 197.64 1369.45 196.47 1364.47 184.38 1359.52 196.48 1346.97 197.68 1356.47 206.33 1353.68 219.16 1364.51 212.41"/>
      <polygon class="cls-4" points="1364.51 46.16 1375.34 52.88 1372.53 40.06 1382.01 31.38 1369.45 30.21 1364.47 18.13 1359.52 30.23 1346.97 31.43 1356.47 40.08 1353.68 52.91 1364.51 46.16"/>
      <polygon class="cls-4" points="1648.78 491.68 1664.03 501.14 1660.07 483.1 1673.42 470.89 1655.74 469.24 1648.74 452.23 1641.77 469.26 1624.1 470.95 1637.47 483.12 1633.56 501.18 1648.78 491.68"/>
      <path class="cls-4" d="M1553.63,464.83l21.68,13.46-5.63-25.65,19-17.35L1563.52,433l-10-24.18-9.9,24.2-25.11,2.41,19,17.3L1532,478.34Zm-19.54-24.21,14-1.34,5.51-13.48,5.54,13.47,14,1.3-10.56,9.66,3.14,14.29L1553.63,457l-12.06,7.52,3.1-14.29Z"/>
      <polygon class="cls-4" points="1649 678.65 1642.04 695.67 1624.37 697.37 1637.73 709.54 1633.82 727.6 1649.05 718.09 1664.3 727.56 1660.34 709.51 1673.68 697.31 1656.01 695.66 1649 678.65"/>
      <path class="cls-4" d="M1553.82,625.72l21.67,13.45-5.62-25.64,19-17.35-25.12-2.35-10-24.17-9.9,24.2-25.11,2.41,19,17.3-5.57,25.66Zm-19.54-24.21,14-1.34,5.52-13.48,5.54,13.47,14,1.3-10.56,9.66,3.13,14.29-12.07-7.5-12,7.53,3.1-14.29Z"/>
      <path class="cls-4" d="M1663.75,575.94l-14-34L1635.82,576l-35.34,3.39,26.74,24.34-7.84,36.12,30.46-19,30.5,18.93-7.92-36.09,26.68-24.42Zm-1.35,24.32,4.41,20.11-17-10.55-17,10.59,4.37-20.11-14.9-13.56,19.69-1.89,7.75-19,7.81,19,19.68,1.84Z"/>
      <polygon class="cls-4" points="1553.07 533.96 1563.91 540.69 1561.1 527.86 1570.58 519.19 1558.02 518.02 1553.04 505.93 1548.09 518.03 1535.54 519.24 1545.04 527.88 1542.25 540.72 1553.07 533.96"/>
      <polygon class="cls-4" points="1659.81 256.68 1673.15 244.47 1655.48 242.82 1648.47 225.81 1641.51 242.84 1623.84 244.53 1637.21 256.71 1633.29 274.76 1648.52 265.26 1663.77 274.73 1659.81 256.68"/>
      <path class="cls-4" d="M1553.45,303.94l21.67,13.46-5.63-25.65,19-17.35-25.12-2.34-10-24.18-9.89,24.2-25.12,2.41,19,17.3-5.56,25.66Zm-19.55-24.21,14-1.34,5.51-13.48,5.55,13.47,14,1.3-10.56,9.67,3.13,14.28-12.07-7.49-12,7.52,3.1-14.29Z"/>
      <path class="cls-4" d="M1680.07,413.32l-7.91-36.09,26.68-24.41-35.35-3.3-14-34-13.93,34.05-35.34,3.39L1627,377.29l-7.83,36.11,30.45-19ZM1637,373.88l-14.89-13.56,19.68-1.89,7.76-19,7.8,18.94,19.69,1.84-14.86,13.6,4.41,20.1-17-10.55-17,10.59Z"/>
      <polygon class="cls-4" points="1552.89 373.07 1563.72 379.8 1560.91 366.98 1570.39 358.3 1557.83 357.13 1552.85 345.04 1547.9 357.14 1535.35 358.35 1544.85 367 1542.07 379.83 1552.89 373.07"/>
      <polygon class="cls-4" points="1553.26 694.85 1564.1 701.58 1561.28 688.75 1570.76 680.08 1558.2 678.91 1553.23 666.82 1548.28 678.92 1535.72 680.12 1545.22 688.77 1542.44 701.61 1553.26 694.85"/>
      <polygon class="cls-4" points="1641.7 16.74 1624.03 18.43 1637.4 30.6 1633.49 48.66 1648.71 39.16 1663.96 48.62 1660 30.57 1673.35 18.37 1655.67 16.72 1648.67 -0.29 1641.7 16.74"/>
      <path class="cls-4" d="M1553.59,143.28l21.67,13.45-5.63-25.65,19-17.34-25.12-2.35-10-24.17-9.9,24.2-25.11,2.4,19,17.3-5.57,25.67ZM1534,119.07l14-1.34,5.51-13.48,5.54,13.46,14,1.31-10.56,9.66,3.14,14.28-12.07-7.49L1541.52,143l3.1-14.29Z"/>
      <path class="cls-4" d="M1680.27,187.22l-7.92-36.09L1699,126.71l-35.35-3.3-14-34-13.93,34.06-35.34,3.39,26.74,24.34-7.84,36.12,30.46-19Zm-43.11-39.44-14.9-13.56,19.69-1.89,7.75-19,7.81,19,19.68,1.84-14.86,13.59,4.41,20.11-17-10.55-17,10.59Z"/>
      <polygon class="cls-4" points="1553.02 212.41 1563.86 219.13 1561.05 206.31 1570.53 197.64 1557.97 196.47 1552.99 184.38 1548.04 196.48 1535.48 197.68 1544.98 206.33 1542.2 219.16 1553.02 212.41"/>
      <polygon class="cls-4" points="1553.02 46.16 1563.86 52.88 1561.05 40.06 1570.53 31.38 1557.97 30.21 1552.99 18.13 1548.04 30.23 1535.48 31.43 1544.98 40.08 1542.2 52.91 1553.02 46.16"/>
      <polygon class="cls-4" points="1837.3 491.68 1852.55 501.14 1848.59 483.1 1861.93 470.89 1844.26 469.24 1837.26 452.23 1830.29 469.26 1812.62 470.95 1825.99 483.12 1822.07 501.18 1837.3 491.68"/>
      <path class="cls-4" d="M1742.15,464.83l21.67,13.46-5.62-25.65,19-17.35L1752,433l-10-24.18-9.9,24.2-25.11,2.41,19,17.3-5.57,25.66Zm-19.54-24.21,14-1.34,5.52-13.48,5.54,13.47,14,1.3-10.56,9.66,3.13,14.29L1742.14,457l-12.05,7.52,3.1-14.29Z"/>
      <polygon class="cls-4" points="1837.52 678.65 1830.55 695.67 1812.88 697.37 1826.25 709.54 1822.34 727.6 1837.56 718.09 1852.81 727.56 1848.86 709.51 1862.2 697.31 1844.52 695.66 1837.52 678.65"/>
      <path class="cls-4" d="M1742.34,625.72,1764,639.17l-5.62-25.64,19-17.35-25.12-2.35-10-24.17-9.89,24.2-25.12,2.41,19,17.3-5.56,25.66Zm-19.55-24.21,14-1.34,5.51-13.48,5.55,13.47,14,1.3-10.56,9.66,3.13,14.29-12.07-7.5-12,7.53,3.1-14.29Z"/>
      <path class="cls-4" d="M1852.27,575.94l-14-34L1824.33,576,1789,579.36l26.74,24.34-7.83,36.12,30.45-19,30.5,18.93-7.91-36.09,26.68-24.42Zm-1.35,24.32,4.41,20.11-17-10.55-17,10.59,4.36-20.11-14.89-13.56,19.68-1.89,7.76-19,7.8,19,19.69,1.84Z"/>
      <polygon class="cls-4" points="1741.59 533.96 1752.43 540.69 1749.61 527.86 1759.09 519.19 1746.53 518.02 1741.56 505.93 1736.61 518.03 1724.05 519.24 1733.55 527.88 1730.77 540.72 1741.59 533.96"/>
      <polygon class="cls-4" points="1848.33 256.68 1861.67 244.47 1844 242.82 1836.99 225.81 1830.03 242.84 1812.36 244.53 1825.73 256.71 1821.81 274.76 1837.04 265.26 1852.29 274.73 1848.33 256.68"/>
      <path class="cls-4" d="M1742,303.94l21.67,13.46L1758,291.75l19-17.35-25.12-2.34-9.95-24.18-9.9,24.2-25.11,2.41,19,17.3-5.57,25.66Zm-19.55-24.21,14-1.34,5.51-13.48,5.54,13.47,14,1.3-10.56,9.67,3.14,14.28L1742,296.14l-12.06,7.52,3.1-14.29Z"/>
      <path class="cls-4" d="M1868.59,413.32l-7.92-36.09,26.69-24.41-35.35-3.3-14-34-13.93,34.05-35.34,3.39,26.74,24.35-7.83,36.11,30.45-19Zm-43.11-39.44-14.89-13.56,19.68-1.89,7.76-19,7.8,18.94,19.69,1.84-14.86,13.6,4.41,20.1-17-10.55-17,10.59Z"/>
      <polygon class="cls-4" points="1741.4 373.07 1752.24 379.8 1749.43 366.98 1758.91 358.3 1746.35 357.13 1741.37 345.04 1736.42 357.14 1723.87 358.35 1733.37 367 1730.58 379.83 1741.4 373.07"/>
      <polygon class="cls-4" points="1741.78 694.85 1752.61 701.58 1749.8 688.75 1759.28 680.08 1746.72 678.91 1741.74 666.82 1736.8 678.92 1724.24 680.12 1733.74 688.77 1730.96 701.61 1741.78 694.85"/>
      <polygon class="cls-4" points="1830.22 16.74 1812.55 18.43 1825.92 30.6 1822 48.66 1837.23 39.16 1852.48 48.62 1848.52 30.57 1861.86 18.37 1844.19 16.72 1837.18 -0.29 1830.22 16.74"/>
      <path class="cls-4" d="M1742.1,143.28l21.68,13.45-5.63-25.65,19-17.34L1752,111.39l-10-24.17-9.9,24.2-25.11,2.4,19,17.3-5.57,25.67Zm-19.54-24.21,14-1.34,5.52-13.48,5.54,13.46,14,1.31L1751,128.68l3.13,14.28-12.07-7.49L1730,143l3.1-14.29Z"/>
      <path class="cls-4" d="M1868.78,187.22l-7.91-36.09,26.68-24.42-35.35-3.3-14-34-13.93,34.06-35.34,3.39,26.74,24.34-7.83,36.12,30.45-19Zm-43.11-39.44-14.89-13.56,19.68-1.89,7.76-19,7.8,19,19.69,1.84-14.86,13.59,4.41,20.11-17-10.55-17,10.59Z"/>
      <polygon class="cls-4" points="1741.54 212.41 1752.38 219.13 1749.56 206.31 1759.04 197.64 1746.48 196.47 1741.51 184.38 1736.56 196.48 1724 197.68 1733.5 206.33 1730.72 219.16 1741.54 212.41"/>
      <polygon class="cls-4" points="1741.54 46.16 1752.38 52.88 1749.56 40.06 1759.04 31.38 1746.48 30.21 1741.51 18.13 1736.56 30.23 1724 31.43 1733.5 40.08 1730.72 52.91 1741.54 46.16"/>
      <polygon class="cls-4" points="2025.82 491.68 2041.07 501.14 2037.11 483.1 2050.45 470.89 2032.78 469.24 2025.77 452.23 2018.81 469.26 2001.14 470.95 2014.51 483.12 2010.59 501.18 2025.82 491.68"/>
      <path class="cls-4" d="M1930.67,464.83l21.67,13.46-5.62-25.65,19-17.35L1940.56,433l-10-24.18-9.89,24.2-25.12,2.41,19,17.3L1909,478.34Zm-19.55-24.21,14-1.34,5.51-13.48,5.55,13.47,14,1.3-10.56,9.66,3.13,14.29L1930.66,457l-12.05,7.52,3.1-14.29Z"/>
      <polygon class="cls-4" points="2026.04 678.65 2019.07 695.67 2001.4 697.37 2014.77 709.54 2010.85 727.6 2026.08 718.09 2041.33 727.56 2037.37 709.51 2050.71 697.31 2033.04 695.66 2026.04 678.65"/>
      <path class="cls-4" d="M1930.86,625.72l21.67,13.45-5.63-25.64,19-17.35-25.11-2.35-10-24.17-9.9,24.2-25.11,2.41,19,17.3-5.56,25.66Zm-19.55-24.21,14-1.34,5.51-13.48,5.55,13.47,14,1.3-10.57,9.66,3.14,14.29-12.07-7.5-12,7.53,3.09-14.29Z"/>
      <path class="cls-4" d="M2040.79,575.94l-14-34L2012.85,576l-35.34,3.39,26.74,24.34-7.83,36.12,30.45-19,30.5,18.93-7.92-36.09,26.69-24.42Zm-1.35,24.32,4.41,20.11-17-10.55-17,10.59,4.36-20.11-14.89-13.56,19.68-1.89,7.76-19,7.8,19,19.69,1.84Z"/>
      <polygon class="cls-4" points="1930.11 533.96 1940.94 540.69 1938.13 527.86 1947.61 519.19 1935.05 518.02 1930.08 505.93 1925.13 518.03 1912.57 519.24 1922.07 527.88 1919.29 540.72 1930.11 533.96"/>
      <polygon class="cls-4" points="2036.85 256.68 2050.19 244.47 2032.51 242.82 2025.51 225.81 2018.55 242.84 2000.87 244.53 2014.24 256.71 2010.33 274.76 2025.56 265.26 2040.81 274.73 2036.85 256.68"/>
      <path class="cls-4" d="M1930.48,303.94l21.68,13.46-5.63-25.65,19-17.35-25.12-2.34-9.95-24.18-9.9,24.2-25.11,2.41,19,17.3-5.57,25.66Zm-19.54-24.21,14-1.34,5.51-13.48,5.54,13.47,14,1.3-10.56,9.67,3.13,14.28-12.07-7.49-12,7.52,3.1-14.29Z"/>
      <path class="cls-4" d="M2057.11,413.32l-7.92-36.09,26.68-24.41-35.34-3.3-14-34-13.93,34.05-35.34,3.39L2004,377.29l-7.84,36.11,30.46-19ZM2014,373.88l-14.9-13.56,19.69-1.89,7.76-19,7.8,18.94,19.69,1.84-14.87,13.6,4.41,20.1-17-10.55-17,10.59Z"/>
      <polygon class="cls-4" points="1929.92 373.07 1940.76 379.8 1937.94 366.98 1947.42 358.3 1934.87 357.13 1929.89 345.04 1924.94 357.14 1912.38 358.35 1921.88 367 1919.1 379.83 1929.92 373.07"/>
      <polygon class="cls-4" points="1930.29 694.85 1941.13 701.58 1938.32 688.75 1947.8 680.08 1935.24 678.91 1930.26 666.82 1925.31 678.92 1912.76 680.12 1922.26 688.77 1919.47 701.61 1930.29 694.85"/>
      <polygon class="cls-4" points="2018.74 16.74 2001.07 18.43 2014.44 30.6 2010.52 48.66 2025.75 39.16 2041 48.62 2037.04 30.57 2050.38 18.37 2032.71 16.72 2025.7 -0.29 2018.74 16.74"/>
      <path class="cls-4" d="M1930.62,143.28l21.67,13.45-5.62-25.65,19-17.34-25.12-2.35-10-24.17-9.89,24.2-25.12,2.4,19,17.3L1909,156.79Zm-19.54-24.21,14-1.34,5.51-13.48,5.55,13.46,14,1.31-10.56,9.66,3.13,14.28-12.07-7.49-12,7.52,3.1-14.29Z"/>
      <path class="cls-4" d="M2057.3,187.22l-7.92-36.09,26.69-24.42-35.35-3.3-14-34-13.93,34.06-35.34,3.39,26.74,24.34-7.83,36.12,30.45-19Zm-43.11-39.44-14.89-13.56,19.68-1.89,7.76-19,7.8,19,19.69,1.84-14.86,13.59,4.41,20.11-17-10.55-17,10.59Z"/>
      <polygon class="cls-4" points="1930.06 212.41 1940.89 219.13 1938.08 206.31 1947.56 197.64 1935 196.47 1930.03 184.38 1925.08 196.48 1912.52 197.68 1922.02 206.33 1919.24 219.16 1930.06 212.41"/>
      <polygon class="cls-4" points="1930.06 46.16 1940.89 52.88 1938.08 40.06 1947.56 31.38 1935 30.21 1930.03 18.13 1925.08 30.23 1912.52 31.43 1922.02 40.08 1919.24 52.91 1930.06 46.16"/>
      <path class="cls-4" d="M2119.19,464.83l21.67,13.46-5.63-25.65,19-17.35L2129.08,433l-10-24.18-9.9,24.2-25.11,2.41,19,17.3-5.56,25.66Zm-19.55-24.21,14-1.34,5.51-13.48,5.55,13.47,14,1.3-10.56,9.66,3.13,14.29L2119.18,457l-12,7.52,3.09-14.29Z"/>
      <path class="cls-4" d="M2119.37,625.72l21.68,13.45-5.63-25.64,19-17.35-25.12-2.35-10-24.17-9.9,24.2-25.11,2.41,19,17.3-5.57,25.66Zm-19.54-24.21,14-1.34,5.51-13.48,5.54,13.47,14,1.3-10.56,9.66,3.14,14.29-12.08-7.5-12.05,7.53,3.1-14.29Z"/>
      <polygon class="cls-4" points="2118.63 533.96 2129.46 540.69 2126.65 527.86 2136.13 519.19 2123.57 518.02 2118.59 505.93 2113.64 518.03 2101.09 519.24 2110.59 527.88 2107.8 540.72 2118.63 533.96"/>
      <path class="cls-4" d="M2119,303.94l21.67,13.46-5.62-25.65,19-17.35-25.12-2.34-9.95-24.18-9.9,24.2-25.12,2.41,19,17.3-5.57,25.66Zm-19.54-24.21,14-1.34,5.52-13.48,5.54,13.47,14,1.3-10.56,9.67,3.13,14.28L2119,296.14l-12,7.52,3.1-14.29Z"/>
      <polygon class="cls-4" points="2118.44 373.07 2129.27 379.8 2126.46 366.98 2135.94 358.3 2123.38 357.13 2118.41 345.04 2113.46 357.14 2100.9 358.35 2110.4 367 2107.62 379.83 2118.44 373.07"/>
      <polygon class="cls-4" points="2118.81 694.85 2129.65 701.58 2126.84 688.75 2136.32 680.08 2123.76 678.91 2118.78 666.82 2113.83 678.92 2101.27 680.12 2110.77 688.77 2107.99 701.61 2118.81 694.85"/>
      <path class="cls-4" d="M2119.14,143.28l21.67,13.45-5.63-25.65,19-17.34L2129,111.39l-10-24.17-9.9,24.2-25.11,2.4,19,17.3-5.56,25.67Zm-19.55-24.21,14-1.34,5.51-13.48,5.55,13.46,14,1.31-10.56,9.66L2131.2,143l-12.07-7.49L2107.08,143l3.1-14.29Z"/>
      <polygon class="cls-4" points="2118.57 212.41 2129.41 219.13 2126.6 206.31 2136.08 197.64 2123.52 196.47 2118.54 184.38 2113.59 196.48 2101.04 197.68 2110.54 206.33 2107.75 219.16 2118.57 212.41"/>
      <polygon class="cls-4" points="2118.57 46.16 2129.41 52.88 2126.6 40.06 2136.08 31.38 2123.52 30.21 2118.54 18.13 2113.59 30.23 2101.04 31.43 2110.54 40.08 2107.75 52.91 2118.57 46.16"/>
    </g>
  </g>
</svg>
