<svg id="Layer_1" data-name="Layer 1" xmlns="http://www.w3.org/2000/svg" width="152" height="200.3" viewBox="0 0 152 200.3">
  <defs>
    <style>
      .cls-1 {
        opacity: 0.5;
      }

      .cls-2 {
        fill: #fff;
      }

      .cls-3 {
        fill: #338000;
      }

      .cls-4 {
        fill: #c87137;
      }

      .cls-5 {
        fill: #a05a2c;
      }

      .cls-6 {
        fill: #d38d5f;
      }

      .cls-7 {
        fill: #502d16;
      }

      .cls-8 {
        fill: none;
        stroke: #502d16;
        stroke-linecap: round;
        stroke-linejoin: round;
        stroke-width: 0.64px;
      }
    </style>
  </defs>
  <g>
    <g class="cls-1">
      <g>
        <path d="M35,199.08l-1.83,0a100.8,100.8,0,0,1-11.72-.78c-5-.84-8.56-2.26-11.48-4.61-.24-.19-.47-.4-.7-.62a18.2,18.2,0,0,1-5.38-9.89,9,9,0,0,1-.17-1c0-.25-.08-.51-.1-.76a30.34,30.34,0,0,1,.81-10.06,16.53,16.53,0,0,1,3.82-7.65c2.93-3.39,7.79-5.62,11.36-6.59a50.3,50.3,0,0,1,6.83-1.2c.92-.11,1.78-.22,2.34-.32a9.45,9.45,0,0,0,2.12-.76l.86-.38c.42-.18.92-.37,1.46-.59,1.05-.42,2.24-.9,3.22-1.37A39.34,39.34,0,0,0,40.61,150c1-.68,2.26-1.58,3.61-2.61a34.65,34.65,0,0,0,3.21-2.7,43.6,43.6,0,0,0,3.41-4.32,27.75,27.75,0,0,0,1.91-3.22c.29-.55.61-1.18.91-1.8a10.68,10.68,0,0,1-3.57.59,10.89,10.89,0,0,1-5.94-1.77A14.27,14.27,0,0,1,37.75,124l0-.13c-.11-1.14-.21-2.21-.28-3.23a9.93,9.93,0,0,1-1.86-1.86l-.11-.15c-.93-.18-1.9-.38-2.93-.61l-.18,0a14.29,14.29,0,0,1-9.3-7.56c-.19-.39-4.65-9.82,6.12-15.32l.33-.17.36-.19a14.05,14.05,0,0,1,5.48-4.58l.32-.17a11.76,11.76,0,0,1,2.62-1A10.5,10.5,0,0,1,42,80.65a11.18,11.18,0,0,1,4.87-7.17,10.59,10.59,0,0,1,3-4.92,10.74,10.74,0,0,1,2-4,10.38,10.38,0,0,1,2.1-6.22,10.27,10.27,0,0,1,2-6.33,10.3,10.3,0,0,1,1.6-5.74C57.17,43,58.16,38.5,64,34.91l.38-.24a14.16,14.16,0,0,1,7.92-2.05c1.8,0,3.78.18,5.89.37l1.64.15c.17-.63.37-1.24.58-1.83a26.65,26.65,0,0,1,3.94-7.08,43.17,43.17,0,0,1,3.08-3.56c1-1.05,2.16-2.18,3.5-3.45,2.16-2,4.57-4.2,6.67-6.06a10.39,10.39,0,0,1,6.09-2.57,9.79,9.79,0,0,1,1.87-.18,10,10,0,0,1,10,9.05l1.4-.26a48.36,48.36,0,0,1,8.48-1.11,13,13,0,0,1,6.26,1.44l.44.22c8.21,4,8.32,10,7.6,13.35A10.31,10.31,0,0,1,140.89,38a10.83,10.83,0,0,1,0,7.83,11,11,0,0,1-.2,5.3,11.43,11.43,0,0,1,.05,1.42,10,10,0,0,1,.86,3.33l.22.38c7.28,5.29,5.54,12.35,3.55,15.4a14.14,14.14,0,0,1-4,4,10,10,0,0,1-5.83,2.3,13.76,13.76,0,0,1-4.17,10.74,10.73,10.73,0,0,1-7.2,3.07c0,.13.06.26.08.4.45,2.22.83,4.71,1.19,7.62.08.67.15,1.35.23,2,.2,1.74.4,3.55.68,5.31.22,1.36.51,2.81.8,4.35.26,1.32.52,2.63.74,3.92.26,1.48.49,3,.7,4.44.18,1.19.34,2.32.51,3.27.32,1.81.76,3.6,1.45,6.32.83,3.28,1.7,6.66,2.5,9.31a50.53,50.53,0,0,0,2.26,6.07,16.39,16.39,0,0,0,2,3.52c.93,1.2,2.38,2.76,3.67,4.14l.57.61a25.49,25.49,0,0,1,5.72,8.61,35.6,35.6,0,0,1,2.1,12,18.78,18.78,0,0,1-4.75,11.94,22.48,22.48,0,0,1-10.48,6.2c-.79.21-1.65.4-2.57.56a11.2,11.2,0,0,1-1.18.24,49.54,49.54,0,0,1-6.8.52h-.69a25.36,25.36,0,0,1-9.54-1.87,20.52,20.52,0,0,1-8.07-6A23,23,0,0,1,101,176c-.12-.55-.24-1.14-.37-1.76-.08-.39-.18-.94-.29-1.4l-1.3-1a38.76,38.76,0,0,1-3.78-3A21.62,21.62,0,0,1,93,166.35c-.52.43-1.06.84-1.62,1.24-.31.23-.64.45-1,.66l-.11.08a22.59,22.59,0,0,1-2.08,1.2A34.1,34.1,0,0,1,84,171.31l-.06,0-.56,1.12a55.2,55.2,0,0,1-2.79,5.17,31,31,0,0,1-5.1,6.13A25.36,25.36,0,0,1,70,187.45a27.21,27.21,0,0,1-8.1,3.08l-.34.07a19.63,19.63,0,0,1-2.13.25c-1.68.15-3.6.18-5.45.21l-1.32,0c-1.21,0-2,.07-2.5.11l-.75.75-.85.86a50,50,0,0,1-4.76,4.05,10.4,10.4,0,0,1-4.21,1.88A21.54,21.54,0,0,1,35,199.08Z"/>
        <path d="M55.17,108.93a56.62,56.62,0,0,1-11.9-1.63l-.2,0a14.59,14.59,0,0,1-9.48-7.72c-.18-.38-4.68-9.88,6.25-15.46l.37-.19a12.6,12.6,0,0,1,6.28-1.49,45.31,45.31,0,0,1,7.22.84c.93.16,1.91.32,2.91.47A19.72,19.72,0,0,1,69.7,91.23a9.87,9.87,0,0,1,1.65,3.65,10,10,0,0,1-5.43,11.23,28.55,28.55,0,0,1-8.45,2.71,20.87,20.87,0,0,1-2.3.11Z"/>
        <path d="M28.51,126.26a14.35,14.35,0,0,1-10.66-5.46c-.26-.33-6.59-8.62,2.79-16.25l.28-.24c3.45-3,7.72-3.18,12.67-3.39.88,0,1.8-.08,2.73-.14.46,0,.91,0,1.35,0a18.4,18.4,0,0,1,12.89,4.84,10,10,0,0,1-.93,15,27.21,27.21,0,0,1-7.39,4.23c-1.08.35-4.37,1.42-12.4,1.42Z"/>
        <path d="M40.06,140.42a10.83,10.83,0,0,1-7.7-3.22,14.32,14.32,0,0,1-4.12-11.3l0-.12c.67-6,1.67-10.31,3.06-13.29a27.26,27.26,0,0,1,5.09-6.81,10,10,0,0,1,7.1-3h0a10,10,0,0,1,7.09,2.94,8.4,8.4,0,0,1,.83,1,18.87,18.87,0,0,1,3,14.71c-.17.94-.33,1.86-.47,2.74-.82,4.86-1.53,9.06-4.92,12.11l-.27.26a12.48,12.48,0,0,1-8.76,4Z"/>
      </g>
    </g>
    <g>
      <path class="cls-2" d="M32.74,192.36l-1.83,0a100.54,100.54,0,0,1-11.71-.78c-5-.84-8.57-2.26-11.48-4.61a6.89,6.89,0,0,1-.7-.62,18.2,18.2,0,0,1-5.39-9.89c-.07-.34-.13-.68-.17-1s-.07-.51-.1-.76a30.62,30.62,0,0,1,.81-10.06A16.48,16.48,0,0,1,6,157c2.93-3.39,7.79-5.63,11.36-6.59a50.84,50.84,0,0,1,6.83-1.2c.92-.11,1.78-.22,2.34-.32a9.85,9.85,0,0,0,2.13-.76c.29-.14.58-.26.85-.38l1.47-.59c1-.42,2.23-.9,3.21-1.37a39.32,39.32,0,0,0,4.18-2.49c1-.69,2.26-1.59,3.6-2.61a33.38,33.38,0,0,0,3.21-2.7,43.6,43.6,0,0,0,3.41-4.32,25.77,25.77,0,0,0,1.91-3.23c.29-.54.62-1.17.91-1.79a10.68,10.68,0,0,1-3.57.59,10.92,10.92,0,0,1-5.94-1.77,14.32,14.32,0,0,1-6.4-10.14v-.12c-.12-1.14-.21-2.22-.28-3.24a9.64,9.64,0,0,1-1.86-1.86l-.11-.15c-.93-.18-1.9-.38-2.92-.6l-.18,0a14.35,14.35,0,0,1-9.32-7.58c-.19-.38-4.65-9.81,6.13-15.31l.68-.36a14.05,14.05,0,0,1,5.48-4.58l.33-.17a11.39,11.39,0,0,1,2.62-1,10.44,10.44,0,0,1,3.7-8.29,11.18,11.18,0,0,1,4.86-7.18,10.78,10.78,0,0,1,3-4.91,10.74,10.74,0,0,1,2-4,10.36,10.36,0,0,1,2.1-6.22,10.4,10.4,0,0,1,2-6.34,10.17,10.17,0,0,1,1.59-5.73c-.32-3.29.67-7.74,6.56-11.33l.38-.24a14.11,14.11,0,0,1,7.91-2.05c1.8,0,3.79.18,5.89.37l1.64.15c.18-.63.37-1.24.59-1.83a26.3,26.3,0,0,1,3.94-7.09A42.93,42.93,0,0,1,85.22,14c1-1.06,2.16-2.19,3.5-3.45,2.14-2,4.56-4.19,6.65-6a10.56,10.56,0,0,1,6.1-2.58,9.79,9.79,0,0,1,1.87-.18,10,10,0,0,1,10,9.05l1.4-.26a48.14,48.14,0,0,1,8.47-1.11,13.07,13.07,0,0,1,6.27,1.44l.43.22c8.22,4,8.33,10,7.6,13.35a10.31,10.31,0,0,1,1.16,6.85,10.84,10.84,0,0,1,0,7.83,11.11,11.11,0,0,1-.21,5.3,11.4,11.4,0,0,1,.06,1.41,10.22,10.22,0,0,1,.85,3.34l.22.38c7.28,5.29,5.54,12.35,3.55,15.4a14.1,14.1,0,0,1-4,4,10,10,0,0,1-5.83,2.3A13.75,13.75,0,0,1,129.09,82,10.7,10.7,0,0,1,121.88,85l.09.39c.44,2.23.83,4.72,1.18,7.63.08.67.16,1.35.23,2,.2,1.75.4,3.55.69,5.32.22,1.35.5,2.8.8,4.33.25,1.32.51,2.64.73,3.93.26,1.48.49,3,.7,4.45.18,1.19.34,2.31.51,3.26.33,1.84.77,3.6,1.46,6.32.82,3.27,1.69,6.66,2.5,9.31A50.3,50.3,0,0,0,133,138.1a16.62,16.62,0,0,0,2,3.5c.93,1.21,2.38,2.76,3.66,4.14l.58.62A25.49,25.49,0,0,1,145,155a35.6,35.6,0,0,1,2.11,12,18.84,18.84,0,0,1-4.76,12,22.44,22.44,0,0,1-10.48,6.19c-.79.21-1.65.4-2.57.56a11.2,11.2,0,0,1-1.18.24,49.51,49.51,0,0,1-6.79.52h-.7a25.4,25.4,0,0,1-9.54-1.87,20.52,20.52,0,0,1-8.07-6,22.87,22.87,0,0,1-4.29-9.31c-.13-.55-.25-1.14-.37-1.76-.08-.39-.19-.94-.3-1.4l-1.3-1a37.29,37.29,0,0,1-3.77-3,19.46,19.46,0,0,1-2.29-2.53c-.52.44-1.06.85-1.61,1.25-.32.22-.64.44-1,.65l-.11.08a23.47,23.47,0,0,1-2.08,1.21,34.75,34.75,0,0,1-4.22,1.78l-.06,0c-.06.11-.57,1.14-.57,1.14a56.33,56.33,0,0,1-2.79,5.16,31,31,0,0,1-5.1,6.13,25.12,25.12,0,0,1-5.41,3.69,27.09,27.09,0,0,1-8.1,3.08l-.34.06a19.17,19.17,0,0,1-2.12.26c-1.69.14-3.61.18-5.46.21l-1.32,0c-1.2,0-2,.07-2.5.11l-.75.75c-.29.3-.57.59-.85.86a49.51,49.51,0,0,1-4.75,4A10.56,10.56,0,0,1,37.38,192,21.64,21.64,0,0,1,32.74,192.36Z"/>
      <path class="cls-2" d="M52.91,102.21A56.62,56.62,0,0,1,41,100.58l-.2,0a14.57,14.57,0,0,1-9.47-7.72c-.19-.38-4.69-9.88,6.24-15.46l.37-.19a12.61,12.61,0,0,1,6.29-1.49,45.32,45.32,0,0,1,7.21.84c.93.16,1.91.32,2.92.47a19.68,19.68,0,0,1,13.08,7.53,10,10,0,0,1-3.79,14.87,28.55,28.55,0,0,1-8.45,2.71,20.74,20.74,0,0,1-2.3.11Z"/>
      <path class="cls-2" d="M26.25,119.54a14.33,14.33,0,0,1-10.65-5.46c-.27-.33-6.6-8.62,2.79-16.25l.28-.24c3.44-3,7.71-3.18,12.66-3.39.88,0,1.8-.08,2.74-.14.45,0,.91,0,1.35,0A18.39,18.39,0,0,1,48.3,98.86a10,10,0,0,1-.92,15,27.71,27.71,0,0,1-7.4,4.23c-1.07.35-4.37,1.42-12.4,1.42Z"/>
      <path class="cls-2" d="M37.8,133.7a10.85,10.85,0,0,1-7.7-3.22A14.34,14.34,0,0,1,26,119.18v-.13c.67-6,1.67-10.3,3.06-13.28A27.32,27.32,0,0,1,34.16,99a10,10,0,0,1,7.09-3h0a10,10,0,0,1,7.08,2.94,10.76,10.76,0,0,1,.84,1,18.94,18.94,0,0,1,3,14.72c-.18.94-.33,1.87-.48,2.74-.82,4.86-1.53,9.06-4.91,12.11l-.27.25a12.44,12.44,0,0,1-8.77,4Z"/>
    </g>
    <g>
      <path class="cls-3" d="M118.64,59.06a8,8,0,0,0-1.09,6.09c.67,3.87,1,7.49,1.92,8.35s1.86,2.07,2.65,1.29a4.08,4.08,0,0,0,1.18-2.64c-.06-.55-.56-6.52-1.87-9.44a19.07,19.07,0,0,0-2.79-3.65Zm0,0"/>
      <path class="cls-3" d="M114.67,56.26a8,8,0,0,0-2.61,5.61c-.34,3.91-1,7.5-.28,8.56S113,72.91,114,72.36a4.12,4.12,0,0,0,1.82-2.25c.07-.55,1.12-6.45.6-9.61a18.84,18.84,0,0,0-1.76-4.24Zm0,0"/>
      <path class="cls-3" d="M111.87,52.11A8,8,0,0,0,108.1,57c-1.18,3.75-2.56,7.12-2.13,8.3s.7,2.7,1.76,2.37A4.05,4.05,0,0,0,110,65.88c.2-.51,2.5-6,2.68-9.24a19.2,19.2,0,0,0-.8-4.53Zm0,0"/>
      <path class="cls-3" d="M110.11,47.72a8,8,0,0,0-5,3.62c-2.22,3.24-4.51,6.07-4.44,7.33s-.11,2.78,1,2.77a4.08,4.08,0,0,0,2.68-1.07c.34-.44,4.14-5.08,5.23-8.09a19.17,19.17,0,0,0,.54-4.56Zm0,0"/>
      <path class="cls-4" d="M84.06,70.4c1.22-2.44,3.74-5.29,6.15-5.8a19.79,19.79,0,0,1,9.44.81,14.54,14.54,0,0,1,6.56,5.85,51,51,0,0,1,4.1,9.39,53,53,0,0,1,1.86,6.77c.42,2.09.76,4.42,1,6.84s.54,5,1,7.74,1.08,5.63,1.56,8.39.84,5.65,1.22,7.77.87,4.1,1.6,7,1.71,6.74,2.63,9.78a58.94,58.94,0,0,0,2.71,7.26,26.68,26.68,0,0,0,3.2,5.5c1.39,1.81,3.31,3.82,4.86,5.47a16,16,0,0,1,3.67,5.32,25.87,25.87,0,0,1,1.47,8.15,8.82,8.82,0,0,1-2.1,5.53,12.62,12.62,0,0,1-5.7,3.32,32.88,32.88,0,0,1-8.25.82,15.51,15.51,0,0,1-5.86-1.08,10.36,10.36,0,0,1-4.17-3.09,12.88,12.88,0,0,1-2.35-5.31c-.5-2.15-.88-5.54-2.35-7.12s-4.69-3.51-6.28-5a10.25,10.25,0,0,1-3-5.33,23.92,23.92,0,0,1-.4-7c.22-2.23,1.35-6,.47-6.67s-2.76-1.59-4.24-2.74a11.85,11.85,0,0,1-3.32-4A15,15,0,0,1,88,124.1a13.35,13.35,0,0,1,.08-5c.35-1.13,1-2.26,1.75-4a14.64,14.64,0,0,0,1.51-5.67c-.1-1.63-1.86-3.53-3.37-4.91a49.14,49.14,0,0,1-4.57-4.29,15.66,15.66,0,0,1-2.78-5,8.64,8.64,0,0,1-.12-5.71c.68-2,2.4-5,2.63-6.67s-.85-3.27-.89-5.21a17,17,0,0,1,1.82-7.23Zm0,0"/>
      <path class="cls-3" d="M108.6,41.79a9.1,9.1,0,0,0-6.43,2.89c-3.21,3.12-6.41,5.75-6.62,7.17s-.76,3.08.48,3.33a4.73,4.73,0,0,0,3.25-.59c.47-.41,5.78-4.72,7.68-7.83a21.86,21.86,0,0,0,1.64-5Zm0,0"/>
      <path class="cls-5" d="M101.44,66.15a33.6,33.6,0,0,1,.08,7.28,10.32,10.32,0,0,1-1.21,3.91c-.5.88-1.27,1.88-1.87,2.76-1.15,1.68-2.15,3.35-2.9,4.66S94.33,87,93.91,87.9a3.49,3.49,0,0,1,.25.73c-.07,0-.16,0-.57-.11.07-.15.24-.45.32-.62s0-.32-.1-.33-.38.32-.49,1.09a.69.69,0,0,0,.35.46,1,1,0,0,0,.81,0c.7-.81,1.52-1.85,2.63-3.28.85-1.09,2.14-2.8,3.32-4.21a34.6,34.6,0,0,0,2.22-2.81,12.66,12.66,0,0,0,1.86-4.93,31.31,31.31,0,0,0,.12-4.77,15.44,15.44,0,0,0-3.19-2.94Zm0,0"/>
      <path class="cls-5" d="M96.35,64.81a19.7,19.7,0,0,0-6.36,0c-2.41.51-4.93,3.35-6.15,5.8A16.84,16.84,0,0,0,82,77.79c0,1.94,1.11,3.49.88,5.21S81,87.7,80.28,89.67a8.71,8.71,0,0,0,.11,5.71,15.69,15.69,0,0,0,2.79,5,49.14,49.14,0,0,0,4.57,4.29c1.51,1.37,3.27,3.28,3.37,4.9a14.6,14.6,0,0,1-1.51,5.67c-.78,1.79-1.4,2.92-1.75,4.05a13.53,13.53,0,0,0-.09,5,15.3,15.3,0,0,0,1.54,4.83,11.83,11.83,0,0,0,3.32,4c1.47,1.15,3.36,2.1,4.24,2.73s-.26,4.45-.47,6.68a23.92,23.92,0,0,0,.4,7,10.29,10.29,0,0,0,3,5.33c1.59,1.49,4.82,3.42,6.28,5s1.85,5,2.35,7.11a12.93,12.93,0,0,0,2.35,5.32,10.36,10.36,0,0,0,4.17,3.09,15.51,15.51,0,0,0,5.86,1.08,38.2,38.2,0,0,0,5.86-.42,18.44,18.44,0,0,1-1.92-.18,11.76,11.76,0,0,1-2.62-.78,11.11,11.11,0,0,1-2.27-1.26A9.7,9.7,0,0,1,118,172a22.05,22.05,0,0,0-2.25-2.08c-.5-.82-1.83-2.11-2.08-3.18a9.89,9.89,0,0,1,0-3.77c.35-2.18,5.27-5.17,9.63-7.36-4,.84-7.49,3-9.31,2.63s-2.56-.33-3.75-1.2a37.55,37.55,0,0,1-3.19-2.47,10.57,10.57,0,0,1-1.93-2.45,10.87,10.87,0,0,1-1.1-2.88,22,22,0,0,1-.46-3.46c-.07-1.22-.6-1.92-.49-3s-.42-2.31-.22-3.62c.1-.65.33-2.5,1.2-3.28s4.84-1.94,10.08-2.83c-.88-.64-12.1.29-13.83-.62A7.64,7.64,0,0,1,97.9,131a12.36,12.36,0,0,1-1.41-2.16,24.25,24.25,0,0,1-1.27-3.16c1.31-1.23,2.86-1.95,3.84-3.14,1.91-2.3,3.36-8.71,3.62-10a7.12,7.12,0,0,0,.31-2c.85-1,4.63-.75,6.76-1.76-3.12.09-5.72,0-6.68-2.25.17-1.34.07-1.9.29-4.56a18,18,0,0,0,1.09-7.54,13.1,13.1,0,0,0-1.57-4.84,8.32,8.32,0,0,0-3.76-3.38c-4.14-1.81-2.11-1-4-1.47A16.52,16.52,0,0,0,91,84.48c-1,0-.73.08-1.28-.19A6.32,6.32,0,0,0,90,81.44a9.64,9.64,0,0,0-.31-1.26,10.44,10.44,0,0,1-.54-2.69,14.12,14.12,0,0,1,.44-3.42A18.48,18.48,0,0,1,91,70.27a13.39,13.39,0,0,1,1.14-1.87,13.87,13.87,0,0,1,1.49-1.76,10.15,10.15,0,0,1,1.72-1.4,5.71,5.71,0,0,1,1-.43Zm0,0"/>
      <path class="cls-6" d="M94.53,86a64,64,0,0,0-10-.12,9.71,9.71,0,0,0-5,2.92,24.6,24.6,0,0,0-3.13,3.38,17.9,17.9,0,0,0-2.07,3.49c-.65,1.38-1.13,2.52-1.66,3.88s-.67,1.74-1.35,3.51-1.52,3.92-2.16,5.89-1.18,4.08-1.76,5.93-1.21,3.55-1.93,5.28-1.6,3.59-2.16,5.13-1.37,4.15-1.9,5.49a43.35,43.35,0,0,1-2,4.27,38.37,38.37,0,0,1-2.53,4.25,54,54,0,0,1-4.5,5.64A40.87,40.87,0,0,1,48,148.59c-1.38,1-2.83,2.11-4.1,3a50.28,50.28,0,0,1-5.39,3.19c-1.84.89-3.9,1.65-5.15,2.17a21.42,21.42,0,0,1-5,1.76c-2.27.42-5.68.62-8.39,1.35a14.7,14.7,0,0,0-6.4,3.46A6.8,6.8,0,0,0,11.87,167a20.61,20.61,0,0,0-.58,6.49,9,9,0,0,0,2.6,5.47c1.32,1.07,3.21,2,6.86,2.66s14.15.93,14.66.55a40.39,40.39,0,0,0,3.78-3.2c1.55-1.53,3.33-3.79,6.23-4.29s9.95-.27,12.15-.67A17.25,17.25,0,0,0,62.88,172a15.35,15.35,0,0,0,3.48-2.33,22.38,22.38,0,0,0,3.37-4,38.41,38.41,0,0,0,2.53-4.82c.71-1.58,1.47-3.47,3-4.33s3.67-1.28,6.13-2.53a15.32,15.32,0,0,0,6-5.6,16.1,16.1,0,0,0,2.27-8,57.13,57.13,0,0,0-.81-8c-.24-2.29-.06-3.81.84-4.85s2.58-1.74,4.15-2.61A12.73,12.73,0,0,0,98,121.45a17,17,0,0,0,2.74-6.61,55.6,55.6,0,0,0,.88-7.83,23.92,23.92,0,0,1,.4-4.17A34,34,0,0,0,103.13,97,12.5,12.5,0,0,0,102,90.83a8.1,8.1,0,0,0-3.43-3.6c-1.13-.72-1.61-1-4-1.24Zm0,0"/>
      <path class="cls-3" d="M107.48,35.67a9,9,0,0,0-6.82,1.38c-3.77,2.3-7.43,4.14-8,5.46s-1.4,2.8-.25,3.31a4.61,4.61,0,0,0,3.25.14c.55-.29,6.6-3.29,9.11-5.86a21.31,21.31,0,0,0,2.66-4.43Zm0,0"/>
      <path class="cls-3" d="M106.45,30.16a9.3,9.3,0,0,0-7.18.45c-4.18,1.82-8.19,3.18-8.9,4.46s-1.83,2.67-.73,3.35A4.73,4.73,0,0,0,93,39c.59-.22,7.21-2.43,10.14-4.71a21.79,21.79,0,0,0,3.36-4.15Zm0,0"/>
      <path class="cls-7" d="M95.56,45.19c.26.12-.09,1.26-.7,3.06A17.41,17.41,0,0,0,94,51.7a44.39,44.39,0,0,0-.22,4.54c0,.32,0,.64,0,1-.07,2.5-.14,4.44-.38,6.34a9,9,0,0,1-.6,2.56,4.24,4.24,0,0,1-.48.88c-.35.48-.66.65-.76.59s0-.39.07-.92c.06-.26.09-.48.15-.85a16.42,16.42,0,0,0,.07-2.34c0-1.29-.09-4.35-.06-6.3,0-.31,0-.63,0-.95a28.05,28.05,0,0,1,.41-4.8,13,13,0,0,1,1.41-3.71c1-1.7,1.74-2.62,2-2.51Zm0,0"/>
      <path class="cls-3" d="M104.84,25.11s-3.23-1.42-7.7.6-8.74,3.54-9.49,4.93-1.92,2.89-.73,3.61a5.15,5.15,0,0,0,3.56.6c.64-.25,7.71-2.73,10.82-5.22a23.41,23.41,0,0,0,3.54-4.52Zm0,0"/>
      <path class="cls-8" d="M103.34,11.69c-.17.15-1.15.07-1.31.22-1.87,1.66-4.32,3.84-6.45,5.86-1.08,1-2.16,2.08-3.13,3.08a33.24,33.24,0,0,0-2.36,2.72A16.56,16.56,0,0,0,87.6,28a23,23,0,0,0-.95,3.83c-.43,2.32-.89,4.74-1.51,7.42S83.86,44.5,83,47.54s-1.76,6.07-2.89,9.67a81.25,81.25,0,0,1-4,10.92,62.2,62.2,0,0,1-6,9.66c-2.3,3.12-4.61,6-6.84,8.73a85.8,85.8,0,0,1-6.7,7.26,83.13,83.13,0,0,1-6.76,5.68c-2.93,2.28-6.3,4.87-8.44,6.52l8.47-6.47a88.29,88.29,0,0,0,6.85-5.6,85.49,85.49,0,0,0,6.82-7.19c2.28-2.64,4.63-5.55,7-8.65a61,61,0,0,0,6.24-9.66,83.77,83.77,0,0,0,4.23-11c1.18-3.59,2.17-6.72,3-9.64s1.68-5.76,2.31-8.31c.66-2.7,1.17-5.12,1.65-7.44a23.31,23.31,0,0,1,.95-3.61,15.49,15.49,0,0,1,2.35-4.05,30,30,0,0,1,2.28-2.59c1-1,2-2,3.09-3,2.11-2,4.56-4.16,6.42-5.81.17-.15.21-1.13.38-1.28Zm0,0"/>
      <path class="cls-7" d="M103.34,11.69c-.17.15-1.15.07-1.31.22-1.87,1.66-4.32,3.84-6.45,5.86-1.08,1-2.16,2.08-3.13,3.08a33.24,33.24,0,0,0-2.36,2.72A16.56,16.56,0,0,0,87.6,28a23,23,0,0,0-.95,3.83c-.43,2.32-.89,4.74-1.51,7.42s-1.28,5.25-2.15,8.3-1.76,6.07-2.89,9.67a81.25,81.25,0,0,1-4,10.92,62.2,62.2,0,0,1-6,9.66c-2.3,3.12-4.61,6-6.84,8.73a85.8,85.8,0,0,1-6.7,7.26,83.13,83.13,0,0,1-6.76,5.68c-2.93,2.28-6.3,4.87-8.44,6.52l8.47-6.47c2.35-1.79,4.49-3.42,6.85-5.59a87.32,87.32,0,0,0,6.82-7.2c2.28-2.64,4.63-5.55,7-8.65a61,61,0,0,0,6.24-9.66,83.77,83.77,0,0,0,4.23-11c1.18-3.59,2.17-6.72,3-9.64s1.68-5.76,2.31-8.31c.66-2.7,1.17-5.12,1.65-7.44a23.31,23.31,0,0,1,.95-3.61,15.49,15.49,0,0,1,2.35-4.05,30,30,0,0,1,2.28-2.59c1-1,2-2,3.09-3,2.11-2,4.56-4.16,6.42-5.81.17-.15.21-1.13.38-1.28Zm0,0"/>
      <path class="cls-7" d="M96.5,17.89c.11.05.08,1.08.2,1.13a35.26,35.26,0,0,1,3.51,1.73,8.92,8.92,0,0,1,1.72,1.35,11.3,11.3,0,0,1,1.66,2A20.77,20.77,0,0,1,106.22,31c.57,2.8.81,6.57,1.82,10.83a57.94,57.94,0,0,0,2.3,7.28,36.88,36.88,0,0,0,1.55,3.48,15.59,15.59,0,0,0,1.65,2.66,16.11,16.11,0,0,0,8.75,5.28,53.79,53.79,0,0,0,10.4.74,47.6,47.6,0,0,1-10.37-.9,15.73,15.73,0,0,1-8.41-5.4,16.24,16.24,0,0,1-1.53-2.62c-.5-1-1-2.22-1.45-3.47a55.61,55.61,0,0,1-2.1-7.22c-.89-4.22-1-7.92-1.48-10.87a23.13,23.13,0,0,0-2.49-7.37A13.12,13.12,0,0,0,103.1,21a11.21,11.21,0,0,0-1.92-1.69,24.58,24.58,0,0,0-3.7-2c-.12-.05-.87.65-1,.6Zm0,0"/>
      <path class="cls-3" d="M105.45,25.17s2.09-3.31,7.47-4.21,10.27-2.14,11.81-1.32,3.57,1.48,2.91,2.87a5.7,5.7,0,0,1-2.92,2.76c-.74.17-8.79,2.26-13.22,1.88a26.44,26.44,0,0,1-6-2Zm0,0"/>
      <path class="cls-3" d="M106.9,30s2.43-2.93,7.71-3.13,10.15-.78,11.53.2,3.25,1.87,2.44,3.13a5.5,5.5,0,0,1-3.15,2.29c-.73.07-8.74,1.08-13,.16A25.35,25.35,0,0,1,106.9,30Zm0,0"/>
      <path class="cls-3" d="M107.49,35.64s2.43-2.93,7.71-3.12,10.15-.78,11.53.2,3.25,1.86,2.45,3.13A5.6,5.6,0,0,1,126,38.14c-.73.06-8.74,1.07-13,.16a25.23,25.23,0,0,1-5.58-2.66Zm0,0"/>
      <path class="cls-3" d="M108.61,41.79s2.25-2.72,7.16-2.91,9.42-.72,10.7.19,3,1.73,2.27,2.91a5.11,5.11,0,0,1-2.93,2.12c-.68.06-8.11,1-12,.15a23.72,23.72,0,0,1-5.18-2.46Zm0,0"/>
      <path class="cls-3" d="M110.11,47.72a9.13,9.13,0,0,1,6.26-3.25c4.45-.59,8.51-1.48,9.75-.76S129,45,128.43,46.16A4.61,4.61,0,0,1,126,48.34c-.61.12-7.29,1.61-10.91,1.18a21.5,21.5,0,0,1-4.93-1.8Zm0,0"/>
      <path class="cls-3" d="M111.87,52.11a8.67,8.67,0,0,1,6-3.1c4.23-.56,8.1-1.4,9.29-.72s2.75,1.26,2.2,2.34A4.55,4.55,0,0,1,127,52.71c-.59.11-6.95,1.53-10.4,1.11a20.4,20.4,0,0,1-4.69-1.71Zm0,0"/>
      <path class="cls-3" d="M114.67,56.26a8,8,0,0,1,5.49-2.86c3.89-.51,7.45-1.29,8.55-.66s2.53,1.16,2,2.15a4.06,4.06,0,0,1-2.17,1.91c-.54.1-6.4,1.41-9.57,1a19.31,19.31,0,0,1-4.32-1.57Zm0,0"/>
      <path class="cls-3" d="M118.64,59.06a8,8,0,0,1,5.76-2.25c3.93-.09,7.55-.48,8.57.27s2.39,1.41,1.78,2.35a4.07,4.07,0,0,1-2.37,1.66c-.55,0-6.51.72-9.62,0a18.76,18.76,0,0,1-4.12-2Zm0,0"/>
      <path class="cls-3" d="M85.39,39.67s-2.15-2.8-7-3.16-9.38-1.06-10.7-.2-3.06,1.62-2.36,2.82a5.13,5.13,0,0,0,2.85,2.23c.67.09,8.06,1.29,12,.58a23.42,23.42,0,0,0,5.26-2.27Zm0,0"/>
      <path class="cls-3" d="M83.87,46.07S81.68,43.3,76.79,43s-9.4-1-10.7-.08S63,44.57,63.75,45.76A5.16,5.16,0,0,0,66.63,48c.67.08,8.08,1.2,12,.45a24.06,24.06,0,0,0,5.24-2.33Zm0,0"/>
      <path class="cls-3" d="M81.86,52.43s-2.19-2.78-7.08-3.08-9.39-1-10.7-.08-3,1.66-2.33,2.85a5.09,5.09,0,0,0,2.87,2.19c.68.08,8.08,1.2,12,.45a23.57,23.57,0,0,0,5.24-2.33Zm0,0"/>
      <path class="cls-3" d="M79.76,58.88s-2.18-2.77-7.08-3.08-9.39-1-10.69-.08-3.05,1.65-2.34,2.85a5.15,5.15,0,0,0,2.87,2.19c.68.08,8.09,1.2,12,.45a23.49,23.49,0,0,0,5.25-2.33Zm0,0"/>
      <path class="cls-3" d="M77.5,65.33s-2.18-2.77-7.08-3.08-9.39-1-10.69-.08S56.67,63.83,57.39,65a5.14,5.14,0,0,0,2.87,2.19c.68.08,8.08,1.2,12,.45a23.34,23.34,0,0,0,5.24-2.33Zm0,0"/>
      <path class="cls-3" d="M74.32,72.19s-1.94-3-6.79-3.67-9.27-1.76-10.65-1-3.18,1.39-2.57,2.64A5.15,5.15,0,0,0,57,72.59c.67.14,8,1.89,11.92,1.48a23.64,23.64,0,0,0,5.42-1.87Zm0,0"/>
      <path class="cls-3" d="M69.64,78.55s-1.94-3-6.79-3.67-9.27-1.76-10.65-1S49,75.27,49.63,76.52A5.15,5.15,0,0,0,52.3,79c.67.14,8,1.89,11.92,1.48a23.51,23.51,0,0,0,5.42-1.88Zm0,0"/>
      <path class="cls-3" d="M65.12,84.51A9.47,9.47,0,0,0,58.67,81c-4.61-.69-8.82-1.67-10.12-1s-3,1.32-2.45,2.51a4.9,4.9,0,0,0,2.54,2.31c.64.13,7.56,1.8,11.33,1.41a22.18,22.18,0,0,0,5.15-1.79Zm0,0"/>
      <path class="cls-3" d="M59.34,90.37a9.47,9.47,0,0,0-6.45-3.49c-4.61-.69-8.82-1.67-10.12-.95s-3,1.32-2.44,2.51a4.85,4.85,0,0,0,2.53,2.31c.64.13,7.56,1.79,11.33,1.4a21.83,21.83,0,0,0,5.15-1.78Zm0,0"/>
      <path class="cls-3" d="M53.78,96.18a8.88,8.88,0,0,0-6.05-3.26c-4.32-.65-8.25-1.57-9.48-.89S35.42,93.26,36,94.37a4.58,4.58,0,0,0,2.38,2.17c.6.12,7.08,1.68,10.61,1.32a21.13,21.13,0,0,0,4.83-1.67Zm0,0"/>
      <path class="cls-3" d="M47.61,101.12a8.87,8.87,0,0,0-6-3.27c-4.32-.64-8.26-1.56-9.48-.88s-2.84,1.23-2.29,2.34a4.58,4.58,0,0,0,2.38,2.17c.59.12,7.07,1.68,10.61,1.32a21,21,0,0,0,4.82-1.67Zm0,0"/>
      <path class="cls-3" d="M41.28,106a8.89,8.89,0,0,0-6.6-1.94c-4.36.27-8.4.19-9.46,1.11s-2.51,1.8-1.75,2.77a4.58,4.58,0,0,0,2.78,1.62c.61,0,7.27.17,10.65-.92A20.94,20.94,0,0,0,41.28,106Zm0,0"/>
      <path class="cls-3" d="M81.86,52.43s3.53.21,6.57,4.06,6.14,7.17,6.16,8.74.39,3.45-1,3.54a5.13,5.13,0,0,1-3.44-1.1c-.45-.52-5.6-6-7.22-9.61a23.6,23.6,0,0,1-1.07-5.63Zm0,0"/>
      <path class="cls-3" d="M79.76,58.88S83.09,60,85,64.57s4,8.57,3.56,10.09S88,78.08,86.6,77.79a5.09,5.09,0,0,1-3-2c-.3-.61-3.77-7.25-4.34-11.2a23.82,23.82,0,0,1,.5-5.72Zm0,0"/>
      <path class="cls-3" d="M77.5,65.33s3.2,1.49,4.62,6.18,3.09,8.92,2.53,10.39-.91,3.35-2.24,2.93a5.1,5.1,0,0,1-2.79-2.29c-.23-.64-3-7.59-3.19-11.58a23.64,23.64,0,0,1,1.07-5.64Zm0,0"/>
      <path class="cls-3" d="M74.32,72.2s2.86,2.08,3.35,7,1.31,9.34.48,10.68S76.61,93,75.4,92.28a5.05,5.05,0,0,1-2.3-2.78c-.11-.68-1.51-8-.91-12a23.43,23.43,0,0,1,2.13-5.32Zm0,0"/>
      <path class="cls-3" d="M69.65,78.55s2.85,2.08,3.34,7,1.31,9.35.49,10.69-1.54,3.11-2.76,2.44a5.07,5.07,0,0,1-2.3-2.79c-.11-.67-1.51-8-.91-12a23.57,23.57,0,0,1,2.13-5.33Zm0,0"/>
      <path class="cls-3" d="M65.12,84.52a9.42,9.42,0,0,1,3.18,6.61c.47,4.63,1.25,8.88.46,10.16s-1.46,2.95-2.61,2.32A4.88,4.88,0,0,1,64,101c-.1-.64-1.44-7.64-.86-11.39a22.21,22.21,0,0,1,2-5.06Zm0,0"/>
      <path class="cls-3" d="M59.34,90.37A9.45,9.45,0,0,1,62.52,97c.47,4.64,1.25,8.89.46,10.16s-1.46,3-2.61,2.32a4.83,4.83,0,0,1-2.19-2.64c-.1-.65-1.44-7.64-.86-11.39a22.21,22.21,0,0,1,2-5.06Zm0,0"/>
      <path class="cls-3" d="M53.78,96.18a8.85,8.85,0,0,1,3,6.2c.44,4.34,1.18,8.32.44,9.51s-1.37,2.77-2.46,2.18a4.62,4.62,0,0,1-2-2.48c-.09-.6-1.34-7.15-.8-10.67a21.17,21.17,0,0,1,1.9-4.74Zm0,0"/>
      <path class="cls-3" d="M47.61,101.12a8.85,8.85,0,0,1,2.54,6.39c.14,4.36.59,8.38-.22,9.52s-1.56,2.67-2.6,2a4.61,4.61,0,0,1-1.88-2.62c-.05-.6-.84-7.22-.06-10.69a21.14,21.14,0,0,1,2.22-4.6Zm0,0"/>
      <path class="cls-3" d="M41.28,106a8.87,8.87,0,0,1,1.12,6.78c-.81,4.29-1.22,8.32-2.26,9.25s-2.09,2.28-3,1.4a4.6,4.6,0,0,1-1.27-3c.08-.6.72-7.24,2.22-10.46a21.24,21.24,0,0,1,3.16-4Zm0,0"/>
      <path class="cls-4" d="M11.4,174.33A8.31,8.31,0,0,0,14,179.16c1.32,1.06,3.23,1.93,6.88,2.54s14.19.84,14.69.46a40.1,40.1,0,0,0,3.79-3.2c1.55-1.53,3.33-3.79,6.23-4.29s9.34-.16,12.14-.67A17.25,17.25,0,0,0,63,171.93a15.35,15.35,0,0,0,3.48-2.33,21.23,21.23,0,0,0,3.36-4.07c.89-1.4,1.88-3.46,2.69-5.07s1.13-3.18,2.87-4.08,3.8-1.36,6.3-2.68a15.72,15.72,0,0,0,6-5.8,16.09,16.09,0,0,0,2.06-8c0-2.85-.64-5.63-.81-7.91-.41-2.44.17-3.81,1.28-4.86s3.31-2,5.06-3.15a12.29,12.29,0,0,0,4.84-6.6,61.46,61.46,0,0,0,1.59-10,27.81,27.81,0,0,1,.43-4.6A34.14,34.14,0,0,0,103.27,97a12.43,12.43,0,0,0-1.14-6.22,8.69,8.69,0,0,0-3.57-3.67c-1.32-1.19-2.53-1.37-6-1.43-2.15.21-3.78.59-3.3,3.1.49,1.31,4.8-2.81,7.4-1.38a9.21,9.21,0,0,1,3.27,3.27c.85,1.62,1.53,3.72,1,5.38-.3.95-.81,4.18-1.75,5.23s-6.47-.46-9.91-1.1c4,1.77,8.88,3.06,8.77,5.79-.21,2-1.53,5.36-1.91,6.67a8.07,8.07,0,0,1-.91,1.93,13,13,0,0,1-1.39,1.76,18.78,18.78,0,0,1-3,2.6c-.88.59-1.82,1.12-2.68,1.63s-1.36.36-2.92.3c-1,0-10.81-3.46-11-3.13s7,2.24,8.41,4.17c1,1.31,2.42,2.43,2.91,4.79.24,1.13-.26,2.38-.41,4a31.42,31.42,0,0,1,.34,4.17,17.32,17.32,0,0,1-.53,4.2,14.64,14.64,0,0,1-1.54,3.82,15.46,15.46,0,0,1-2.59,3.28,14.43,14.43,0,0,1-1.64,1.38,14,14,0,0,1-1.8,1.13A33.16,33.16,0,0,1,74,150.18a6.82,6.82,0,0,1-4,.41c-3.71-.45-9-4.81-9.51-4.15,4.7,3.61,6.28,5.81,6.21,8.62a11.5,11.5,0,0,1-1.28,5.45,23.51,23.51,0,0,1-1.55,2.15,18.62,18.62,0,0,1-1.81,1.92,13,13,0,0,1-1.68,1.3c-.55.35-1.12.66-1.8,1s-1.46.79-2.34,1.17a13.79,13.79,0,0,1-3,.9,53,53,0,0,1-5.8.3c-2.41.06-3.73,0-5.31.11-2.48.12-4.48-6.62-6.49-7.43-.16,1.27,3.1,4.15,1.15,9.24-1.22,2.57-3.41,4.21-5.71,5.94a31.89,31.89,0,0,1-6.15.1,80.17,80.17,0,0,1-8.51-.65,13.45,13.45,0,0,1-4.3-1.16c-.47-.28-.7-1.06-.8-1.1Zm0,0"/>
      <path class="cls-7" d="M90.69,88.16c-.28-.15.06-2,1.47-4.85a38.2,38.2,0,0,1,2.7-4.67c.58-.88,1.33-1.89,1.8-2.76a9.84,9.84,0,0,0,1.13-3.81,33.64,33.64,0,0,0-.12-7.93,58.2,58.2,0,0,0-1.29-6.41l-.57-2.38A51.52,51.52,0,0,1,94.2,44.76c-.07-2.21.09-4.82.12-6.57,0-2.21.25-3.55-.31-4.74-.83-2.09-3.31-4.37-4.05-5.15A10.62,10.62,0,0,1,88.84,27c0-.33.8-.29,1.88.3a13.77,13.77,0,0,1,5.73,5,12.8,12.8,0,0,1,1.19,5.92c.13,2.07.12,4.25.3,6.44a61.91,61.91,0,0,0,1.8,9.84c.19.77.4,1.57.59,2.37a53,53,0,0,1,1.29,6.92,32.7,32.7,0,0,1-.25,8.89,12.89,12.89,0,0,1-1.94,5,31.19,31.19,0,0,1-2.25,2.78c-1.28,1.5-2.34,2.87-3.22,4-1.86,2.44-2.86,4-3.27,3.75Zm0,0"/>
      <path class="cls-3" d="M85.39,39.67s3.48-.61,7.33,2.43,7.63,5.56,8,7.08,1.17,3.27-.16,3.68a5.13,5.13,0,0,1-3.6-.28c-.56-.4-6.82-4.5-9.24-7.68a23.49,23.49,0,0,1-2.35-5.23Zm0,0"/>
      <path class="cls-3" d="M83.87,46.07s3.48-.56,7.29,2.52,7.58,5.64,8,7.17,1.13,3.28-.21,3.67a5.1,5.1,0,0,1-3.6-.32c-.55-.4-6.77-4.57-9.15-7.78a23.55,23.55,0,0,1-2.29-5.26Zm0,0"/>
    </g>
  </g>
</svg>
