<svg id="Layer_1" data-name="Layer 1" xmlns="http://www.w3.org/2000/svg" width="208" height="306.55" viewBox="0 0 208 306.55">
  <defs>
    <style>
      .cls-1 {
        fill: #ffef5f;
      }

      .cls-2 {
        fill: none;
        stroke: #fffa4d;
        stroke-linejoin: round;
        stroke-width: 7px;
      }

      .cls-3 {
        fill: #f7e3c3;
      }

      .cls-4 {
        fill: #f9ddb0;
      }

      .cls-5 {
        fill: #f3b248;
      }

      .cls-6 {
        fill: #bc6eab;
      }

      .cls-7 {
        fill: #f4d29d;
      }

      .cls-8 {
        fill: #f7d192;
      }

      .cls-9 {
        fill: #f0c273;
      }

      .cls-10 {
        fill: #a4388a;
      }

      .cls-11 {
        fill: #f1c376;
      }

      .cls-12 {
        fill: #f1a323;
      }

      .cls-13 {
        fill: #bc6eac;
      }

      .cls-14 {
        fill: #cd94be;
      }

      .cls-15 {
        fill: #b25d9f;
      }

      .cls-16 {
        fill: #f1b247;
      }

      .cls-17 {
        fill: #f1a220;
      }

      .cls-18 {
        fill: #a5348c;
      }

      .cls-19 {
        fill: #a5348b;
      }

      .cls-20 {
        fill: #bc6dac;
      }

      .cls-21 {
        fill: #ac5097;
      }

      .cls-22 {
        fill: #cd94bd;
      }

      .cls-23 {
        fill: #cc93ba;
      }

      .cls-24 {
        fill: #f3a21e;
      }

      .cls-25 {
        fill: #f1a21d;
      }

      .cls-26 {
        fill: #f2c373;
      }

      .cls-27 {
        fill: #e1c6d9;
      }

      .cls-28 {
        fill: #e1c5df;
      }

      .cls-29 {
        fill: #f7e7ec;
      }

      .cls-30 {
        fill: #cd95be;
      }

      .cls-31 {
        fill: #f1d2a5;
      }

      .cls-32 {
        fill: #f8e8ea;
      }

      .cls-33 {
        fill: #f8e7e8;
      }
    </style>
  </defs>
  <g>
    <g>
      <path class="cls-1" d="M74.31,300.83c-6.18,0-14-1.23-20-10.85-5.56-9-11.77-17.93-17.78-26.59-2.62-3.78-5.34-7.69-8-11.58-2.4-3.52-4.78-7.1-7.08-10.57l-2.64-4A17.47,17.47,0,0,1,14,224.41a109.56,109.56,0,0,0-.47-14c-.27-3.67-.56-7.46-.6-11.37-.15-13.26-.45-27.47-1.66-41.63C11,154,11,148.85,14.79,144.2q7.8-9.69,15.64-19.35l8.4-10.38c1.59-2,3.19-3.91,4.8-5.87,4-4.89,7.83-9.51,11.38-14.35,1.66-2.27,6.7-9.15,16.27-9.15.48,0,1,0,1.46.05a12.27,12.27,0,0,1,3.06-7.33l-.39-.5a16,16,0,0,1-2.68-11.13c0-.23,0-.46,0-.68,0-.05,0-.09,0-.14-3.13-2.79-4.46-6.85-4-12.11a17.79,17.79,0,0,1-.43-14l0-.3c.17-1.12.34-2.25.5-3.37a10.43,10.43,0,0,1,3.78-8.74A17.93,17.93,0,0,1,75.3,16.57a10,10,0,0,1,7.89-4.5c5.79-.28,11.87-.41,18.07-.41,4.32,0,8.83.06,13.43.2h.09c2.71-.13,5.51-.27,8.39-.27a66.86,66.86,0,0,1,8.34.48,9.75,9.75,0,0,1,3.45,1.1c2.43,1.29,6.48,4.5,6.28,11.5v.15q0,19.71,0,39.47v4.63a14.84,14.84,0,0,1-.54,4.26h5.14a25.4,25.4,0,0,1,8.1-9.11,25.79,25.79,0,0,1,14.38-4.47c12.48,0,23,9.34,25.08,22.2,0,.23.06.46.08.69,1.27,14.29-7,25.76-20.51,28.56l-.54.1c3.34,4,6.72,8.11,9.87,12.51,3.38,4.73,7,9.21,10.91,14,1.82,2.24,3.65,4.47,5.44,6.73a15.2,15.2,0,0,1,3.54,10.25c-.15,4.76-.23,9.64-.31,14.36-.18,10.09-.36,20.52-1.2,30.89-.25,3-.26,6.15-.27,9.47,0,6.14,0,12.5-1.53,19.18a15.66,15.66,0,0,1-1.41,3.73l-.11.22a75.42,75.42,0,0,1-7.57,12.49c-1,1.46-2,2.84-2.9,4.22-5.73,8.8-11.66,17.65-17.39,26.21q-5.94,8.86-11.85,17.77a16.14,16.14,0,0,1-14.2,7.66h-.12c-9.67-.06-22.43-.11-35.34-.11-12.1,0-23,.05-33.23.15Z"/>
      <path class="cls-2" d="M74.31,300.83c-6.18,0-14-1.23-20-10.85-5.56-9-11.77-17.93-17.78-26.59-2.62-3.78-5.34-7.69-8-11.58-2.4-3.52-4.78-7.1-7.08-10.57l-2.64-4A17.47,17.47,0,0,1,14,224.41a109.56,109.56,0,0,0-.47-14c-.27-3.67-.56-7.46-.6-11.37-.15-13.26-.45-27.47-1.66-41.63C11,154,11,148.85,14.79,144.2q7.8-9.69,15.64-19.35l8.4-10.38c1.59-2,3.19-3.91,4.8-5.87,4-4.89,7.83-9.51,11.38-14.35,1.66-2.27,6.7-9.15,16.27-9.15.48,0,1,0,1.46.05a12.27,12.27,0,0,1,3.06-7.33l-.39-.5a16,16,0,0,1-2.68-11.13c0-.23,0-.46,0-.68,0-.05,0-.09,0-.14-3.13-2.79-4.46-6.85-4-12.11a17.79,17.79,0,0,1-.43-14l0-.3c.17-1.12.34-2.25.5-3.37a10.43,10.43,0,0,1,3.78-8.74A17.93,17.93,0,0,1,75.3,16.57a10,10,0,0,1,7.89-4.5c5.79-.28,11.87-.41,18.07-.41,4.32,0,8.83.06,13.43.2h.09c2.71-.13,5.51-.27,8.39-.27a66.86,66.86,0,0,1,8.34.48,9.75,9.75,0,0,1,3.45,1.1c2.43,1.29,6.48,4.5,6.28,11.5v.15q0,19.71,0,39.47v4.63a14.84,14.84,0,0,1-.54,4.26h5.14a25.4,25.4,0,0,1,8.1-9.11,25.79,25.79,0,0,1,14.38-4.47c12.48,0,23,9.34,25.08,22.2,0,.23.06.46.08.69,1.27,14.29-7,25.76-20.51,28.56l-.54.1c3.34,4,6.72,8.11,9.87,12.51,3.38,4.73,7,9.21,10.91,14,1.82,2.24,3.65,4.47,5.44,6.73a15.2,15.2,0,0,1,3.54,10.25c-.15,4.76-.23,9.64-.31,14.36-.18,10.09-.36,20.52-1.2,30.89-.25,3-.26,6.15-.27,9.47,0,6.14,0,12.5-1.53,19.18a15.66,15.66,0,0,1-1.41,3.73l-.11.22a75.42,75.42,0,0,1-7.57,12.49c-1,1.46-2,2.84-2.9,4.22-5.73,8.8-11.66,17.65-17.39,26.21q-5.94,8.86-11.85,17.77a16.14,16.14,0,0,1-14.2,7.66h-.12c-9.67-.06-22.43-.11-35.34-.11-12.1,0-23,.05-33.23.15Z"/>
    </g>
    <g>
      <path class="cls-1" d="M68.89,295.14c-6.18,0-14-1.23-20-10.86-5.56-9-11.77-17.92-17.78-26.57-2.63-3.78-5.34-7.7-8-11.59-2.37-3.49-4.73-7-7-10.48l-2.7-4.06a17.43,17.43,0,0,1-4.82-12.86,109.63,109.63,0,0,0-.48-14c-.27-3.67-.55-7.46-.6-11.37-.14-13.26-.45-27.47-1.66-41.63-.29-3.45-.25-8.58,3.5-13.23q7.92-9.84,15.87-19.64l8.17-10.09c1.59-2,3.2-3.92,4.8-5.87,4-4.89,7.84-9.51,11.39-14.35,1.65-2.27,6.69-9.15,16.26-9.15.48,0,1,0,1.46,0a12.21,12.21,0,0,1,3.07-7.33,6.12,6.12,0,0,1-.39-.5A16,16,0,0,1,67.32,60.5c0-.23,0-.46,0-.68a.66.66,0,0,0,0-.14c-3.13-2.79-4.45-6.85-3.94-12.11a17.75,17.75,0,0,1-.44-14l0-.23c.17-1.15.34-2.29.5-3.44a10.41,10.41,0,0,1,3.79-8.74,17.83,17.83,0,0,1,2.58-10.24,10,10,0,0,1,7.9-4.5C83.56,6.1,89.64,6,95.85,6c4.31,0,8.82.06,13.42.19h.07c2.72-.13,5.53-.26,8.41-.26a67,67,0,0,1,8.34.47,9.75,9.75,0,0,1,3.45,1.1C132,8.76,136,12,135.82,19v.15q0,18.87,0,37.78v6.33a15.11,15.11,0,0,1-.53,4.26h5.13a25.4,25.4,0,0,1,8.1-9.11,25.73,25.73,0,0,1,14.38-4.47c12.48,0,23,9.34,25.08,22.2q.06.34.09.69c1.27,14.29-7,25.76-20.52,28.56l-.53.1c3.33,4,6.72,8.11,9.86,12.51,3.38,4.73,7,9.21,10.92,14,1.82,2.24,3.64,4.47,5.43,6.73a15.19,15.19,0,0,1,3.55,10.25c-.15,4.76-.24,9.64-.32,14.36-.17,10.09-.36,20.52-1.2,30.89-.24,3-.26,6.16-.27,9.48,0,6.14,0,12.49-1.53,19.17a14.83,14.83,0,0,1-1.41,3.73l-.1.22a76.14,76.14,0,0,1-7.58,12.49c-1,1.46-2,2.84-2.89,4.22-5.74,8.81-11.67,17.66-17.41,26.23-3.95,5.91-7.91,11.82-11.83,17.75A16.17,16.17,0,0,1,138,295.1h-.11c-9.69-.06-22.46-.11-35.36-.11-12.09,0-23,.05-33.21.15Z"/>
      <path class="cls-2" d="M68.89,295.14c-6.18,0-14-1.23-20-10.86-5.56-9-11.77-17.92-17.78-26.57-2.63-3.78-5.34-7.7-8-11.59-2.37-3.49-4.73-7-7-10.48l-2.7-4.06a17.43,17.43,0,0,1-4.82-12.86,109.63,109.63,0,0,0-.48-14c-.27-3.67-.55-7.46-.6-11.37-.14-13.26-.45-27.47-1.66-41.63-.29-3.45-.25-8.58,3.5-13.23q7.92-9.84,15.87-19.64l8.17-10.09c1.59-2,3.2-3.92,4.8-5.87,4-4.89,7.84-9.51,11.39-14.35,1.65-2.27,6.69-9.15,16.26-9.15.48,0,1,0,1.46,0a12.21,12.21,0,0,1,3.07-7.33,6.12,6.12,0,0,1-.39-.5A16,16,0,0,1,67.32,60.5c0-.23,0-.46,0-.68a.66.66,0,0,0,0-.14c-3.13-2.79-4.45-6.85-3.94-12.11a17.75,17.75,0,0,1-.44-14l0-.23c.17-1.15.34-2.29.5-3.44a10.41,10.41,0,0,1,3.79-8.74,17.83,17.83,0,0,1,2.58-10.24,10,10,0,0,1,7.9-4.5C83.56,6.1,89.64,6,95.85,6c4.31,0,8.82.06,13.42.19h.07c2.72-.13,5.53-.26,8.41-.26a67,67,0,0,1,8.34.47,9.75,9.75,0,0,1,3.45,1.1C132,8.76,136,12,135.82,19v.15q0,18.87,0,37.78v6.33a15.11,15.11,0,0,1-.53,4.26h5.13a25.4,25.4,0,0,1,8.1-9.11,25.73,25.73,0,0,1,14.38-4.47c12.48,0,23,9.34,25.08,22.2q.06.34.09.69c1.27,14.29-7,25.76-20.52,28.56l-.53.1c3.33,4,6.72,8.11,9.86,12.51,3.38,4.73,7,9.21,10.92,14,1.82,2.24,3.64,4.47,5.43,6.73a15.19,15.19,0,0,1,3.55,10.25c-.15,4.76-.24,9.64-.32,14.36-.17,10.09-.36,20.52-1.2,30.89-.24,3-.26,6.16-.27,9.48,0,6.14,0,12.49-1.53,19.17a14.83,14.83,0,0,1-1.41,3.73l-.1.22a76.14,76.14,0,0,1-7.58,12.49c-1,1.46-2,2.84-2.89,4.22-5.74,8.81-11.67,17.66-17.41,26.23-3.95,5.91-7.91,11.82-11.83,17.75A16.17,16.17,0,0,1,138,295.1h-.11c-9.69-.06-22.46-.11-35.36-.11-12.09,0-23,.05-33.21.15Z"/>
    </g>
    <g>
      <path class="cls-3" d="M21.28,225.34a8.1,8.1,0,0,1-2.69-6.09c.47-8.7-1-17.31-1.06-26-.15-14.13-.49-28.27-1.69-42.37-.19-2.17-.12-4.33,1.32-6.11q12-14.88,24-29.71c5.53-6.84,11.28-13.52,16.47-20.61,2.63-3.58,5.4-5.61,9.86-4.92a9,9,0,0,0,1.37,0c8,0,8,0,8.35-8.11.05-1-.12-2.17.92-2.9a6.5,6.5,0,0,1,1.34,5.09c-.25,3.67,1.61,4.75,4.93,4.56,3.14-.18,6.3.11,9.46,0,7.32-.08,14.64,0,22,.09,6.85,0,6.85,0,8.65-6.23a4,4,0,0,1,3-1.81c6.35-.19,12.72-1,19,.56a1.15,1.15,0,0,1,.46,1.52c-5.94.11-11.87.07-17.8.71-2.63.28-3.34,1.14-3.34,3.61,0,2.62,1.35,3,3.47,3,2.44-.09,4.93.29,7.32-.08,4.21-.65,6.74,1.75,8.72,4.67,7.07,10.45,16,19.4,23.35,29.63,5.22,7.3,11.08,14.07,16.65,21.09a5.36,5.36,0,0,1,1.38,3.71c-.47,14.92-.28,29.9-1.49,44.76-.74,9.1.41,18.29-1.59,27.29a12.31,12.31,0,0,1-.87,2c-2.31-1.13-6.1,1.34-7.1-3,.17-10.83,1.16-21.61,1.33-32.45.18-11.26.44-22.56,1.42-33.8a8.51,8.51,0,0,0-2-6.34C164.44,131.74,152,116.68,140,101.28a7.19,7.19,0,0,0-6.24-3.13c-3.5.1-7-.07-10.53.13-7.88,0-15.75.17-23.62-.06a54.73,54.73,0,0,1-5.87,0c-4.65.13-9.3.08-14,.06-16.91,0-12.32-2.27-22.88,10.51-9.92,12-19.11,24.63-29.27,36.45-4,4.68-3.48,9.94-3.06,15.2.95,11.87,1.39,23.78,1.5,35.66.07,7.64,1.56,15.2.82,22.84C25.7,221.65,22.16,222.33,21.28,225.34Z"/>
      <path class="cls-4" d="M21.28,225.34c-.41-3.44,1-5.3,4.57-5.44,1.46-.55,1.87.78,2.64,1.48,10.14,15.4,20.71,30.53,30.8,46,3.73,8.44,10.61,10.28,19,9a17.94,17.94,0,0,1,1.81-.12c7.83,0,15.65-.17,23.47,0,2,.05,3.91-.19,5.86,0,4.6,0,9.21-.11,13.8,0a22.52,22.52,0,0,1,2.73.07c8,1.44,13.9-1.05,17.14-8.8,10.81-14.68,20.18-30.33,30.72-45.19.71-.76,1.08-2.11,2.58-1.55,2,1,4.88-.86,6.45,1.8-2.51,5.57-6.42,10.28-9.72,15.35-9.6,14.73-19.51,29.26-29.2,43.92A6.24,6.24,0,0,1,138,285.1c-22.91-.13-45.82-.19-68.72,0-5.34.05-8.72-1.09-11.83-6.12-8.15-13.16-17.29-25.71-26-38.52C28,235.47,24.66,230.39,21.28,225.34Z"/>
      <path class="cls-5" d="M109.36,16.17a90,90,0,0,1,15.49.12c.08.13.23.26.24.39.49,16.35.57,32.7,0,49.06l0,.06a1.12,1.12,0,0,1-1.47-.44c-1.18-2.11-.91-4.44-.92-6.7,0-11.58,0-23.16,0-34.74,0-4.8-.77-5.29-5.18-5.46-4-.15-4.82,2-4.8,5.42.08,12.64,0,25.29.05,37.93a14.49,14.49,0,0,1-.23,4.55,2.93,2.93,0,0,1-1.31,1.1c-6,.8-12.08,1.18-18.09-.28-2.06-1.53-2.34-3.8-2.39-6.08a61.23,61.23,0,0,0-.92-8.55c-.15-8.41-.4-16.82.12-25.23.11-1.21.39-2.4.53-3.61.78-7.09.79-7,8.14-7.13C102.12,16.52,105.78,17.16,109.36,16.17Z"/>
      <path class="cls-6" d="M146.93,77.47c1.56-4.15,3.28-8.19,7.16-10.8,9.77-6.56,22.1-.91,24,11-1.1,7.62-6.37,11-13.17,12.43-6.49,1.36-11.45-1.47-15.27-6.64a48.09,48.09,0,0,1-2.85-4.64A1.49,1.49,0,0,1,146.93,77.47Z"/>
      <path class="cls-7" d="M90.93,27.2l0,25.62c-.92,2-2.66,1.51-4.29,1.47-6.37-.16-7,.47-7.26,6.61-.06,1.5,0,3-.78,4.39l-.54.47c-1.49-2.06-.58-4.41-.75-6.61-.19-2.49.3-4.78-2.73-6.52-2.44-1.39-.84-4.71-1-7.18,1.2-1,2.31-.14,3.43.2,2.84.85,4.72-.54,6.18-2.71A4.58,4.58,0,0,0,83,37a5.53,5.53,0,0,0-6.56-1.81c-1.25.41-2.23,1.73-3.79,1.13.29-1.92.59-3.83.85-5.75.08-.59-.12-1.64.11-1.73,6.11-2.51,2.14-8.7,4.63-12.49,1.4,1.44,1.31,3.32,1.23,5.08-.17,3.38,1.46,4.47,4.62,4.4C86.43,25.79,88.94,25.32,90.93,27.2Z"/>
      <path class="cls-8" d="M92.88,66.58l18.26.13c1.7,1.85,1.81,4.18,1.75,6.47-.09,4-1.56,5.49-5.56,5.67-5.79.27-11.6-.32-17.37.75a5.38,5.38,0,0,1-5.35-2c0-.61,0-1.22,0-1.83,0-7.79,0-7.79-6.49-10l.24-.17C83.36,63.19,88.13,64.73,92.88,66.58Z"/>
      <path class="cls-9" d="M84.61,77.63c8,1.11,16-.52,24-.07,3.56.2,3.07-3.11,3-5s-.31-3.92-.48-5.88l1-.17c1.63-1.44,3.4-1.24,5.22-.43,1.46,2.3.4,4.84.67,7.27.15,1.4-.64,2.92.62,4.16v0a1.14,1.14,0,0,1-.32,1.44c-2.21,1.27-4.66.83-7,.93-4.21-.06-8.43-.07-12.65,0-4.88.09-5.79,1.2-5.24,6,.13,1.18.74,2.32.36,3.55-1.5,0-3,.09-4.51.09-11.07,0-11.07,0-11.11-11Z"/>
      <path class="cls-10" d="M147.2,78.41c2.24.81,2.52,3.23,3.69,4.84,7.84,10.7,21.93,5.63,26.06-3.19.37-.8.76-1.59,1.15-2.38.82,9.31-3.95,16.09-12.58,17.87-7.53,1.56-14.79-3-17.62-11.17-.25-.71-.59-1.4-.88-2.09a1.54,1.54,0,0,0,0-.9,2,2,0,0,1-.62-2.17A1.38,1.38,0,0,1,147.2,78.41Z"/>
      <path class="cls-11" d="M90.93,27.2c-.75,0-1.51,0-2.26,0-10.57-.07-10.57-.07-10.42-10.8,10.37-.48,20.74-.49,31.11-.19-4,1.85-8.3.82-12.41.75-3.93-.08-5.66,1-5.06,5A7.12,7.12,0,0,1,90.93,27.2Z"/>
      <path class="cls-12" d="M72.66,36.34c4.58-3.72,7.6-3.94,10.81-.81,2.64,2.6,2.67,5.95.26,9-3.08,3.88-6.52,2.92-10.09.94C71.72,42.58,71,39.59,72.66,36.34Z"/>
      <path class="cls-8" d="M125.05,65.74q-.1-24.72-.2-49.45c1.19.64,1,1.78,1,2.81q0,22.07,0,44.12A3.1,3.1,0,0,1,125.05,65.74Z"/>
      <path class="cls-8" d="M118.6,78.37a4.25,4.25,0,0,1,.06-.87l28.27,0c.09.31.18.63.26,1l-.26.12a4.73,4.73,0,0,1-3.31,1.31c-7.13.07-14.25.13-21.38,0A4.19,4.19,0,0,1,118.6,78.37Z"/>
      <path class="cls-8" d="M118.66,77.54c-3-3.4,0-7.37-1-11,1.82-2.72,4-2.41,6.46-.88l1,.1c-1.51,2.17-4.94-.28-5.91,2C117.84,70.86,118.72,74.29,118.66,77.54Z"/>
      <path class="cls-13" d="M176.36,220.85l-1.63,1.86c-10.67.39-21.34,1.3-32-.52-2.25-2-1.62-4.77-1.71-7.3-.71-20.14,1.09-40.25,1-60.4a45.38,45.38,0,0,0-3.53-17.31c-4.67-11.45-9.5-22.83-13.61-34.5-.65-1.84-1.72-3.64-.8-5.71,9.56-1.79,16.09,1.22,22,9.72,9.67,14,21.08,26.76,31.84,40a8.72,8.72,0,0,1,1.91,6.34q-.92,20.3-1.69,40.6c-.32,7.91-.57,15.82-.93,23.73A17.8,17.8,0,0,1,176.36,220.85Z"/>
      <path class="cls-14" d="M124.11,97l18.27,46.69a7.43,7.43,0,0,1,.84,2.58c-.19,11.57.71,23.14-.49,34.7-.44,4.23-.29,8.52-.31,12.79,0,9.3,0,18.61,0,27.91l-.62.6a59.72,59.72,0,0,1-22,0c-2.61-4-3.17-8.53-2.75-13.22a5.06,5.06,0,0,1,2.63-2.43c6.36-2.76,8.27-8.19,8.57-14.45.25-5.32.22-10.67,0-16-.38-10.16-5.2-14.88-15.35-15.55-4.35-.29-8.85,1-13-1.11a47.46,47.46,0,0,1-6.23-20.87,104.43,104.43,0,0,1,2.23-33.24c.72-3,1.37-6,3.42-8.4Z"/>
      <path class="cls-13" d="M27.69,221.68l-1.84-1.78q-1-27.22-2-54.46a46.47,46.47,0,0,0-.65-5c-1.11-7.69,1.22-13.79,6.48-19.84,11.29-13,21.77-26.74,32.37-40.34a8,8,0,0,1,7.75-3.48c3,.26,6.1.13,9.16.18.8,2.28-.57,4.14-1.28,6.09-4.81,13.34-10.66,26.27-15.47,39.62a21.08,21.08,0,0,0-1.36,8.92c.2,2.67.75,5.5-1,8a3,3,0,0,1-.77.49C46.23,165,45.49,166.1,45.49,180c0,4.26-.06,8.52,0,12.77.14,8.51,4,13.08,12.47,14.79,1.2.25,2.42.36,3.27,1.41a21.48,21.48,0,0,1,.1,12.33,2.86,2.86,0,0,1-1.29,1.14c-9.8,1.3-19.63.58-29.45.41A6.36,6.36,0,0,1,27.69,221.68Z"/>
      <path class="cls-14" d="M59.81,159.29c-2.42-12.87,4-23.72,8.15-35C71.33,115.05,75.3,106.06,79,97H93.83c1.2,2,.32,3.88-.16,5.75C89.26,120,89,137.15,94,154.32c.55,1.86,1.33,3.86-.55,5.54-2.27,1.18-4.74.88-7.14.89-6.82,0-13.64.06-20.46,0C63.73,160.72,61.52,161,59.81,159.29Z"/>
      <path class="cls-15" d="M93.81,159.21c-2.51-9.84-4.85-19.6-4.83-30A118.21,118.21,0,0,1,93.83,97l5.39,0c-.84,6-3,11.65-3.72,17.67C93.63,129.48,94.1,144,99.94,158a7.31,7.31,0,0,1,.28,1.33C98.05,160.93,95.92,161,93.81,159.21Z"/>
      <path class="cls-16" d="M93.78,89.47c-3.16-2.66-2.18-6.27-1.39-9.27.74-2.82,3.91-1.53,6-1.61,4.25-.15,8.52,0,12.78,0a4.48,4.48,0,0,1,.45,2.17c.16,6.21,2.7,8.06,8.82,6.54a3.08,3.08,0,0,0,2.37-2.36c.37-1.14.11-2.92,2.21-2.68-.18,8.45,1.22,7.38-7.58,7.4C109.58,89.67,101.68,89.53,93.78,89.47Z"/>
      <path class="cls-17" d="M125.06,82.24a2.39,2.39,0,0,0-.35.28c-1.56,1.66.56,5-1.63,5.64-3.1.84-6.56.53-9.85.41-2.63-.09-2.82-2.31-2.91-4.31s-.27-3.93.89-5.69l7.39-.2,28.33.17.06,2.85C139.69,82,132.31,80.55,125.06,82.24Z"/>
      <path class="cls-13" d="M79.13,277.69a14,14,0,0,0-2.25.11c-9.13,1.8-15.21-1.9-18.68-10.32,3.35-2.15,7.09-.94,10.64-1.13,4.78-.26,5-.49,3.62-5.05-3.29-10.58-7-21-10.34-31.6-.81-2.56-2.18-5.06-1.46-7.92l.14-.17c1.34-1.25,3-1.37,4.72-1.37q22-.12,44,0a8.67,8.67,0,0,1,4,.78c1.33.81,1.57,2.18,1.68,3.55,1.17,14.65-1.19,28.79-6.16,42.55a4,4,0,0,1-1.87,2.48c-8.33-1.38-16.74-.48-25.11-.71-2.75-.07-4.05.95-3.13,3.89C79.4,274.37,79.93,276,79.13,277.69Z"/>
      <path class="cls-18" d="M142.37,221.64c9.23,0,18.46,0,27.69.07,1.59,0,3.38-.54,4.67,1l-30.38,45c-4.72,1.91-9.63,1.09-14.47.85-2.49-.13-3.28-1.93-3-4.24a36.92,36.92,0,0,1,1.75-6.16c3.29-10.48,6.92-20.85,10.31-31.3.66-2,1.34-4.09,3.39-5.25Z"/>
      <path class="cls-19" d="M60.66,221.78C65.37,236,70,250.22,74.84,264.4c.92,2.73-.18,3.21-2.5,3.17-4.71-.07-9.43-.06-14.14-.09C48,252.23,37.34,237.29,27.69,221.68Z"/>
      <path class="cls-20" d="M142.36,221.65c-4.67,13.92-9.26,27.87-14.06,41.74-1.23,3.55,0,4.3,3.26,4.22,4.26-.1,8.53.08,12.79.14-3.28,8.29-9.15,11.89-18.08,10.05a14.35,14.35,0,0,0-2.28-.1c-1-1.22-.61-2.52-.33-3.88.92-4.52.68-4.77-4-5-2.07-.09-4.27.32-6-1.27-1.33-2.76-.22-5.38.51-8,3.18-11.31,5.55-22.71,4.48-34.56a3.73,3.73,0,0,1,.92-3.37Z"/>
      <path class="cls-21" d="M119.48,221.66c2.41,12.08-.68,23.75-3,35.4-.7,3.46-2.31,6.8-2.55,10.44-.86,3.68-1.47,7.47-4.51,10.18h-5.56c-.93-3.4.65-5.93,2.86-8.24,6.21-15.35,8.25-31.35,7.22-47.8-2.37-4.14-3.3-8.47-1.82-13.15,1.92-1,3.77-1.21,5.5.39Z"/>
      <path class="cls-22" d="M106.69,269.44c-1,2.75-1.91,5.49-2.86,8.24H79.13c-3.67-10.12-3.67-10.12,6.66-10.13,5.63,0,11.27,0,16.9,0C104.25,267.6,106.23,267,106.69,269.44Z"/>
      <path class="cls-23" d="M109.39,277.68c1.59-3.36,1.8-7.32,4.51-10.18,2.71,0,5.42.23,8.11,0,4.29-.35,4.37,2.08,3.53,5.07-.49,1.71-1.7,3.2-1.55,5.11Z"/>
      <path class="cls-24" d="M124.07,65.7c-2.15.3-4.44-.36-6.46.88l-5.46,0c-1-1.47-1-3.15-1-4.84,0-13.43.11-26.86-.07-40.29,0-3.38.92-4.55,4.38-4.43,10.15.34,8.46-1.21,8.53,8.43C124.13,38.84,124.06,52.27,124.07,65.7Z"/>
      <path class="cls-25" d="M91.92,39.89c0-3,.19-6.12,0-9.16-.25-3.38,1.6-3.61,4.23-3.64s4.27.47,4.15,3.74c-.22,6-.11,11.91,0,17.86,0,3.09-1.08,4.93-4.43,5.09-4,.18-3.9-2.44-3.86-5.18C92,45.7,91.92,42.79,91.92,39.89Z"/>
      <path class="cls-26" d="M92.88,66.58l-14.56-1c0-1.82-.11-3.64-.11-5.45,0-6.22,1.68-7.74,8-7.28,1.59.12,3.2,1.31,4.77,0C92.89,57.22,91,62.17,92.88,66.58Z"/>
      <path class="cls-27" d="M169.07,173.63c.48,5.94-.93,11.8-.93,17.72,0,1.75-.25,3.62-2.54,3.53a2.94,2.94,0,0,1-2.87-3.46c1.14-9.09.48-18.22,1-27.32.1-1.76.83-3.89,3.26-3.57,2.21.28,2.06,2.28,2.06,4C169.06,167.54,169.07,170.58,169.07,173.63Z"/>
      <path class="cls-28" d="M166.16,144.57a2.3,2.3,0,0,1-1.6,2.59,2.77,2.77,0,0,1-3.28-.91c-4.79-6.07-9.59-12.14-14.33-18.25-1-1.3-1.4-2.87.21-4a2.6,2.6,0,0,1,3.72.41c5,6.31,9.9,12.67,14.81,19A4.23,4.23,0,0,1,166.16,144.57Z"/>
      <path class="cls-29" d="M117.59,208.88l-5.39.06c-1.81,1.46-4,1.37-6.11,1.38q-19.65,0-39.3,0c-2.13,0-4.3.1-6.09-1.41-11.68-.58-16.46-5.58-16.48-17.22,0-5,.32-10.11-.1-15.11-.86-10.29,5.91-17,15.69-17.28l34-.08,6.41.11c4.43,0,8.86,0,13.28.06,9.21.22,14.71,4.45,15.6,13.41a146.35,146.35,0,0,1,0,22.84C128.67,202.69,124,206.73,117.59,208.88Z"/>
      <path class="cls-30" d="M60.7,208.9l51.5,0,1.71,12.7-53.11,0Q60.76,215.25,60.7,208.9Z"/>
      <path class="cls-31" d="M86.63,203.29c-8.7,0-17.41,0-26.11,0-6.87,0-10.67-3.79-10.77-10.77q-.12-8.25,0-16.49c.1-7.51,3.63-10.79,11-10.69,13.58.17,27.17.34,40.75.25,4.52,0,9-1.37,13.6-.27,6.65,1.6,8.69,3.83,8.85,10.69.15,5.8.09,11.61,0,17.41a10,10,0,0,1-9.86,9.87c-9.16.07-18.33,0-27.49,0Z"/>
      <path class="cls-32" d="M86.87,194.16H68.07c-2.77,0-6.16.37-6.26-3.49-.11-4.17,3.54-2.75,5.87-3,10.33-1,20.67.27,31,.06,3.29-.07,6.54-1.82,9.91-.17,1.64.8,3.81,1,3.35,3.53-.43,2.34-2.21,3.06-4.44,3.06C100.63,194.14,93.75,194.16,86.87,194.16Z"/>
      <path class="cls-33" d="M87.52,173.09c5,0,10.08,0,15.12,0,2.13,0,4.48,0,4.83,2.94.4,3.35-2.31,3.81-4.44,4a92.68,92.68,0,0,1-11.43.23c-7.15-.16-14.32.6-21.45-.71-2.07-.38-4.46-.54-4.35-2.95s2.64-3.37,4.77-3.45c5.64-.2,11.3-.06,17-.06Z"/>
    </g>
  </g>
</svg>
