<svg xmlns="http://www.w3.org/2000/svg" width="234.13" height="216.26" viewBox="0 0 234.13 216.26">
  <defs>
    <style>
      .cls-1 {
        isolation: isolate;
      }

      .cls-11, .cls-13, .cls-14, .cls-2, .cls-7 {
        opacity: 0.5;
      }

      .cls-3 {
        fill: #fff;
      }

      .cls-4 {
        fill: none;
        stroke: #fff;
        stroke-width: 5px;
      }

      .cls-12, .cls-4, .cls-5 {
        stroke-miterlimit: 10;
      }

      .cls-11, .cls-5, .cls-6 {
        fill: #819923;
      }

      .cls-5 {
        stroke: #4d5b10;
        stroke-width: 0.75px;
      }

      .cls-10, .cls-11, .cls-13, .cls-6 {
        mix-blend-mode: multiply;
      }

      .cls-6 {
        opacity: 0.3;
      }

      .cls-7, .cls-8 {
        fill: #d2e877;
      }

      .cls-8 {
        opacity: 0.2;
      }

      .cls-10, .cls-9 {
        fill: #f1d197;
      }

      .cls-12 {
        fill: #a4d84e;
        stroke: #6c9321;
        stroke-width: 0.5px;
      }

      .cls-13 {
        fill: #95bf43;
      }

      .cls-14 {
        fill: #cef484;
      }
    </style>
  </defs>
  <g class="cls-1">
    <g id="Layer_1" data-name="Layer 1">
      <g>
        <g class="cls-2">
          <path d="M187.68,211.57a13.55,13.55,0,0,1-1.75-.12,14.23,14.23,0,0,1-4.18-1.25l-.23-.11-.7-.37-.32-.19-.53-.32-.53-.35-.41-.29c-.22-.16-.51-.38-.79-.61a31.76,31.76,0,0,1-4-4.2l-.67-.79c-.95-1.1-2-2.19-3.13-3.32s-2.21-2.07-3.51-3.19c-2.47-2.11-5-4.1-7.76-6.21l-.09-.07c-.82-.63-1.69-1.31-2.54-2.08a17.64,17.64,0,0,1-4.16-5.31l-.08-.17c-.09-.18-.18-.35-.26-.54s-.11-.28-.17-.43l-.08,0c-.3-.16-.56-.31-.81-.47s-.46-.3-.7-.47l-.44-.34a16.78,16.78,0,0,1-2.44-2.35c-.66-.77-1.23-1.53-1.73-2.2l-.17-.23-1.08-1.4c-.61,0-1.21,0-1.82,0a36,36,0,0,1-8.42-1l-.23-.05c-.46-.11-.91-.23-1.36-.36l-.38-.11c-.45-.13-.84-.25-1.24-.39l-.52-.17-1.12-.4-.59-.23-1-.41-.65-.28-1-.43-.67-.32-.92-.46-.65-.34-.88-.48-.84-.49-.67-.4-1-.62-.51-.33c-.48-.32-1-.65-1.43-1-2.72-1.94-5.15-4.06-7.5-6.11-1-.87-2-1.74-3-2.6-.61-.5-1.41-1.17-2.21-1.78-.41-.32-.84-.63-1.27-.94-.87-.61-1.72-1.16-2.54-1.63-.41-.24-.84-.46-1.26-.67a13.54,13.54,0,0,0-2.13-.65l-.83-.22A20.16,20.16,0,0,1,94.1,150l-.45-.24a7.85,7.85,0,0,1-4.37-7.65c.51-5.59,6.28-7.4,8.18-8a22.78,22.78,0,0,1,4.61-.91c-5.7-6-11.63-11.72-17.72-17.2-2.38-2.15-4.85-4.32-7.24-6.42l-1.36-1.19-2-.68c-2.43-.84-4.94-1.7-7.41-2.66A100.42,100.42,0,0,1,46,94.37c-1.28-.88-2.54-1.78-3.75-2.69-2.45-1.84-4.84-3.82-7.1-5.88-.42-.37-.83-.75-1.24-1.14l-.16-.15-2.3-2.17C28,79,24.74,75.92,21.21,73.85l-.06,0c-.31-.18-.63-.36-.95-.52l-.05,0-1-.48-.08,0c-.31-.14-.62-.27-.94-.39s-.53-.2-.76-.27a7,7,0,0,1-.93-12.94,15.34,15.34,0,0,1,7-1.38h3.25a9.91,9.91,0,0,1-1-3.42,1.36,1.36,0,0,0,0-.2,11.92,11.92,0,0,1,2.63-8.1,29.71,29.71,0,0,1,2.3-2.72l1.2-1.26A32.53,32.53,0,0,1,28,38.5l-.19-.21a11.34,11.34,0,0,1-.88-1.2c-.11-.19-.22-.37-.32-.56s-.24-.47-.34-.68a9.44,9.44,0,0,1-.45-1.22l-.12-.46a.44.44,0,0,0,0-.1,9.9,9.9,0,0,1,.7-6.31l0-.07c.13-.3.29-.6.45-.89l.07-.13a16.8,16.8,0,0,1,2.41-3.14l.58-.59.54-.52.94-.86c1.58-1.45,3.44-3.14,5.39-4.76l0,0c.55-.45,1.09-.89,1.65-1.32.74-.58,1.45-1.11,2.12-1.58l.46-.31.84-.53.62-.33A12.6,12.6,0,0,1,44,12a10,10,0,0,1,3.16-.53l.75,0a9.69,9.69,0,0,1,1.33.2,10,10,0,0,1,1.58.51,10.5,10.5,0,0,1,2,1.08l.3.2a64.13,64.13,0,0,1,7.69-6.17c.3-.21.61-.41.93-.61l.55-.32.4-.21a9.06,9.06,0,0,1,.85-.39L64,5.64a9.7,9.7,0,0,1,1.59-.44,10.16,10.16,0,0,1,2-.19h.31l.36,0A10.57,10.57,0,0,1,70,5.29a10.28,10.28,0,0,1,1.29.37,11,11,0,0,1,1.44.62,18.38,18.38,0,0,1,3.7,2.54c4.29,3.63,8.32,7.44,11.71,10.69,1.25,1.19,2.49,2.4,3.73,3.6l3.83,3.69c3,2.84,5.25,5,7.41,6.91,1.29,1.15,2.55,2.25,3.76,3.27a17.2,17.2,0,0,1,1.66,1.55A12.56,12.56,0,0,1,109.62,40a10.61,10.61,0,0,1,.95,1.83,30.39,30.39,0,0,1,5.31,4.81c1.16,1.25,2.29,2.44,3.42,3.63s2.56,2.68,4,4.11c-.09-.58-.19-1.16-.27-1.75l-.13-.92c-.11-.83-.21-1.64-.3-2.46l-.1-1c-.11-1.09-.2-2.19-.26-3.29-.13-2.08-.17-4-.14-5.88,0-1,.05-2,.12-3s.16-2,.27-3l.09-.72c.18-1.53.39-3.18.68-4.86.09-.53.19-1.05.3-1.57l0-.2c.1-.44.21-.92.33-1.4,0-.1,0-.21.08-.32.12-.46.26-.92.4-1.37,0-.11.07-.25.12-.39.22-.65.43-1.23.67-1.79a7,7,0,0,1,4.18-3.92,6.85,6.85,0,0,1,2.27-.38,7,7,0,0,1,3.43.9c3,1.68,5.09,4.67,6.89,7.65.32.52.62,1,.91,1.54l.23.38c.29.49.56,1,.81,1.34A105.17,105.17,0,0,1,157.55,59c.21.85.42,1.71.61,2.56.38,1.71.73,3.46,1,5.19.42,2.54.74,5.06,1,7.5.27,2.19.53,4.25.86,6.31.24,1.51.5,2.85.78,4.1s.56,2.27.92,3.45c.05.13.09.26.14.4.43,1.38,1,2.82,1.61,4.39.19.44.33.8.49,1.15.24.55.5,1.09.76,1.63s.41.81.61,1.21l.42.78c.26.47.52.93.79,1.39l1.37,1.28c.75.69,1.5,1.37,2.26,2q1.8,1.62,3.65,3.21l.57.5q3.45,3,6.94,5.89l3.5,3c.26.23.72.62,1.2,1.12a9.66,9.66,0,0,1,1.75,2.55,9.52,9.52,0,0,1,.74,2.32c.69.63,1.28,1.26,1.8,1.82,9.93,10.79,20.5,21.24,31.39,31.05a23.55,23.55,0,0,1,1.71,1.68l.31.38c.21.26.4.52.59.78l.34.52a9.84,9.84,0,0,1,.86,1.68,10.23,10.23,0,0,1,.58,2c0,.14.06.31.08.47a10.32,10.32,0,0,1,.1,1.83c0,.12,0,.29,0,.42a11.66,11.66,0,0,1-.14,1.17c0,.1-.05.28-.05.28,0,.17-.06.33-.1.5-.1.39-.21.79-.34,1.18l-.13.36c-.13.35-.27.7-.42,1a21.51,21.51,0,0,1-2,3.4l-.6.84a30.73,30.73,0,0,1-2.44,3c2.2,2,4.28,3.86,6.09,5.45l.84.75.51.45a11.34,11.34,0,0,1,1.61,1.85,9.54,9.54,0,0,1,1.35,7.66c-.08.39-.18.77-.29,1.14-.16.55-.35,1.11-.62,1.79-.08.23-.15.43-.23.62a4.69,4.69,0,0,1-.2.44c-.29.67-.6,1.31-.92,1.92l-.1.17c-.37.67-.71,1.23-1.06,1.77a25.7,25.7,0,0,1-3.09,3.82l-.25.24a24.79,24.79,0,0,1-3.54,2.93,23.31,23.31,0,0,1-2.13,1.3,18.63,18.63,0,0,1-1.92.92,17,17,0,0,1-2.24.77,14.61,14.61,0,0,1-3.77.51h-.25a12,12,0,0,1-1.5-.12,11.58,11.58,0,0,1-1.92-.41l-.44-.13a13.61,13.61,0,0,1-1.45-.57c-.19-.08-.43-.19-.66-.31a19.27,19.27,0,0,1-4.51-3.33q-.81.78-1.77,1.62c-1.75,1.54-5.41,4.75-10.49,5Z"/>
        </g>
        <g>
          <path class="cls-3" d="M179.34,209.69a11.91,11.91,0,0,1-1.74-.13,14.15,14.15,0,0,1-4.18-1.25l-.23-.11-.7-.37-.34-.19-.53-.32-.5-.34c-.17-.12-.29-.2-.4-.29s-.54-.4-.81-.62a31.12,31.12,0,0,1-4-4.19c-.23-.27-.45-.54-.68-.8-.95-1.1-2-2.19-3.13-3.31s-2.2-2.08-3.51-3.2c-2.47-2.11-5-4.1-7.75-6.2l-.1-.08c-.81-.63-1.68-1.31-2.54-2.08a17.73,17.73,0,0,1-4.15-5.3l-.08-.17a5.52,5.52,0,0,1-.26-.55c-.06-.14-.12-.28-.17-.42l-.08-.05c-.3-.16-.56-.31-.81-.47s-.48-.31-.73-.49l-.42-.32a17.31,17.31,0,0,1-2.44-2.35c-.66-.76-1.22-1.52-1.72-2.2l-.17-.23-1.08-1.4c-.61,0-1.22.05-1.82.05a36.56,36.56,0,0,1-8.43-1l-.23-.06c-.45-.11-.91-.23-1.36-.36l-.37-.1-1.25-.39-.51-.17-1.13-.41-.59-.22-1-.41-.61-.27-1-.45-.65-.31-.93-.47c-.21-.1-.45-.23-.68-.36l-.85-.46-.86-.5-.65-.39c-.34-.2-.66-.41-1-.61l-.51-.34c-.48-.31-1-.64-1.44-1-2.72-1.95-5.14-4.07-7.49-6.11-1-.88-2-1.75-3-2.6-.61-.51-1.41-1.17-2.21-1.79l-1.27-.94c-.87-.61-1.72-1.16-2.54-1.63-.42-.23-.84-.46-1.27-.67a13.37,13.37,0,0,0-2.12-.65l-.83-.21a21.06,21.06,0,0,1-3.68-1.3c-.14-.06-.31-.15-.46-.23A7.86,7.86,0,0,1,81,140.26c.5-5.6,6.28-7.41,8.18-8a23.34,23.34,0,0,1,4.61-.91c-5.71-6-11.64-11.72-17.72-17.2-2.39-2.15-4.86-4.32-7.25-6.42l-1.36-1.19-2-.68C63,105,60.51,104.16,58,103.2A101,101,0,0,1,37.68,92.48c-1.27-.87-2.53-1.78-3.74-2.69C31.49,88,29.1,86,26.83,83.91L25.6,82.78l-.11-.1-2.35-2.23C19.67,77.15,16.4,74,12.88,72l-.06,0c-.32-.19-.64-.37-1-.54h0c-.33-.17-.66-.33-1-.48l-.07,0-.94-.38-.1,0c-.22-.08-.44-.17-.66-.24a7,7,0,0,1-.94-12.94,15.52,15.52,0,0,1,7-1.38h1.19l.9,0,1.16,0a9.85,9.85,0,0,1-1-3.42c0-.06,0-.13,0-.2a11.89,11.89,0,0,1,2.62-8.09,28.4,28.4,0,0,1,2.3-2.72q.6-.65,1.2-1.26a34.23,34.23,0,0,1-3.77-3.58l-.15-.17a10,10,0,0,1-.93-1.26c-.11-.18-.22-.36-.32-.55S18,34.17,17.9,34a9.44,9.44,0,0,1-.45-1.22c0-.13-.08-.29-.12-.47a.31.31,0,0,1,0-.08A9.87,9.87,0,0,1,18,25.93a1.14,1.14,0,0,1,.06-.15q.21-.44.45-.87l.06-.11A16.25,16.25,0,0,1,21,21.64L21.6,21l.4-.38,1-.95c1.59-1.45,3.44-3.13,5.4-4.75l0,0c.54-.45,1.09-.89,1.64-1.33.75-.58,1.46-1.11,2.12-1.57l.47-.32c.26-.18.55-.35.84-.52l.61-.34a11.06,11.06,0,0,1,1.52-.64,9.82,9.82,0,0,1,3.17-.54l.75,0a12.2,12.2,0,0,1,1.33.2,10,10,0,0,1,1.58.51,11.43,11.43,0,0,1,2,1.08l.3.21a63.14,63.14,0,0,1,7.68-6.18c.31-.21.62-.41,1-.61L54,4.54l.4-.2c.3-.16.57-.28.85-.4l.53-.21a9.89,9.89,0,0,1,1.54-.42,10.05,10.05,0,0,1,1.94-.19h.32l.35,0a10.42,10.42,0,0,1,1.74.25,11.76,11.76,0,0,1,1.3.37,13.28,13.28,0,0,1,1.44.62,19,19,0,0,1,3.69,2.54c4.29,3.63,8.33,7.44,11.71,10.69l3.72,3.58,3.85,3.72c3,2.83,5.25,5,7.41,6.91C96,33,97.3,34.08,98.51,35.1a18.47,18.47,0,0,1,1.66,1.55,12,12,0,0,1,1.12,1.43,10.18,10.18,0,0,1,.95,1.82,30.7,30.7,0,0,1,5.3,4.81L111,48.35c1.23,1.29,2.56,2.67,4,4.1q-.15-.87-.27-1.74l-.13-.93q-.17-1.23-.3-2.46l-.1-1q-.17-1.65-.27-3.3c-.12-2.08-.17-4-.14-5.88,0-1,.06-2,.12-3s.16-2.06.28-3l.08-.72c.18-1.53.39-3.19.68-4.86.1-.53.2-1.06.31-1.58l0-.2c.09-.44.21-.92.33-1.4l.08-.32c.12-.46.25-.91.4-1.36l.11-.39c.21-.64.44-1.24.67-1.8A7,7,0,0,1,121,14.6a7.13,7.13,0,0,1,2.28-.38,7,7,0,0,1,3.43.9c3,1.69,5.09,4.68,6.89,7.65l.92,1.55.22.37c.29.5.56,1,.8,1.34a105,105,0,0,1,13.66,31.09c.22.85.42,1.71.62,2.57.38,1.72.72,3.46,1,5.19.43,2.53.74,5.05,1,7.49.28,2.19.54,4.26.86,6.31.25,1.52.5,2.86.78,4.11.26,1.1.57,2.26.92,3.44.05.13.1.27.14.4.43,1.38,1,2.82,1.62,4.4.18.44.33.79.49,1.15.24.54.49,1.08.76,1.62s.4.81.61,1.21.28.53.42.78c.25.47.51.93.78,1.39l1.37,1.28,2.27,2.05c1.2,1.07,2.42,2.14,3.64,3.2l.58.5c2.29,2,4.61,3.93,6.93,5.89l3.5,3a16.07,16.07,0,0,1,1.2,1.12,9.7,9.7,0,0,1,1.76,2.55,9,9,0,0,1,.73,2.33,25.41,25.41,0,0,1,1.8,1.81c9.94,10.79,20.5,21.24,31.39,31.06a18.67,18.67,0,0,1,1.71,1.68l.3.36c.21.26.42.53.61.81l.34.5a10.42,10.42,0,0,1,.86,1.7,9.68,9.68,0,0,1,.58,2c0,.19.06.34.08.5a10.57,10.57,0,0,1,.1,1.81c0,.11,0,.27,0,.4,0,.39-.08.78-.14,1.18,0,.09-.05.29-.05.29,0,.17-.07.34-.11.51-.1.4-.21.78-.34,1.17,0,.11-.08.23-.13.36a10.11,10.11,0,0,1-.42,1,20.76,20.76,0,0,1-2,3.4q-.29.42-.6.84a29.35,29.35,0,0,1-2.43,3c2.19,2,4.28,3.86,6.08,5.46l.85.74c.19.17.35.31.5.46a11.29,11.29,0,0,1,1.61,1.84,9.3,9.3,0,0,1,.89,1.62,9.88,9.88,0,0,1,.47,6.05c-.08.39-.18.77-.29,1.13-.21.71-.45,1.35-.62,1.79-.08.23-.16.43-.24.62l-.19.44c-.3.7-.6,1.32-.93,1.92l-.09.17c-.37.67-.71,1.24-1.06,1.77a25.7,25.7,0,0,1-3.09,3.82l-.26.25a24.75,24.75,0,0,1-3.53,2.92,23.31,23.31,0,0,1-2.13,1.3,21.24,21.24,0,0,1-1.93.93,16.31,16.31,0,0,1-2.23.76,14.63,14.63,0,0,1-3.78.51h-.24a14.29,14.29,0,0,1-1.5-.11,13.74,13.74,0,0,1-1.92-.41l-.46-.14a13,13,0,0,1-1.44-.57c-.18-.08-.42-.19-.65-.31a18.76,18.76,0,0,1-4.51-3.32c-.55.52-1.13,1-1.77,1.62-1.76,1.53-5.41,4.74-10.49,5Z"/>
          <path class="cls-4" d="M179.34,209.69a11.91,11.91,0,0,1-1.74-.13,14.15,14.15,0,0,1-4.18-1.25l-.23-.11-.7-.37-.34-.19-.53-.32-.5-.34c-.17-.12-.29-.2-.4-.29s-.54-.4-.81-.62a31.12,31.12,0,0,1-4-4.19c-.23-.27-.45-.54-.68-.8-.95-1.1-2-2.19-3.13-3.31s-2.2-2.08-3.51-3.2c-2.47-2.11-5-4.1-7.75-6.2l-.1-.08c-.81-.63-1.68-1.31-2.54-2.08a17.73,17.73,0,0,1-4.15-5.3l-.08-.17a5.52,5.52,0,0,1-.26-.55c-.06-.14-.12-.28-.17-.42l-.08-.05c-.3-.16-.56-.31-.81-.47s-.48-.31-.73-.49l-.42-.32a17.31,17.31,0,0,1-2.44-2.35c-.66-.76-1.22-1.52-1.72-2.2l-.17-.23-1.08-1.4c-.61,0-1.22.05-1.82.05a36.56,36.56,0,0,1-8.43-1l-.23-.06c-.45-.11-.91-.23-1.36-.36l-.37-.1-1.25-.39-.51-.17-1.13-.41-.59-.22-1-.41-.61-.27-1-.45-.65-.31-.93-.47c-.21-.1-.45-.23-.68-.36l-.85-.46-.86-.5-.65-.39c-.34-.2-.66-.41-1-.61l-.51-.34c-.48-.31-1-.64-1.44-1-2.72-1.95-5.14-4.07-7.49-6.11-1-.88-2-1.75-3-2.6-.61-.51-1.41-1.17-2.21-1.79l-1.27-.94c-.87-.61-1.72-1.16-2.54-1.63-.42-.23-.84-.46-1.27-.67a13.37,13.37,0,0,0-2.12-.65l-.83-.21a21.06,21.06,0,0,1-3.68-1.3c-.14-.06-.31-.15-.46-.23A7.86,7.86,0,0,1,81,140.26c.5-5.6,6.28-7.41,8.18-8a23.34,23.34,0,0,1,4.61-.91c-5.71-6-11.64-11.72-17.72-17.2-2.39-2.15-4.86-4.32-7.25-6.42l-1.36-1.19-2-.68C63,105,60.51,104.16,58,103.2A101,101,0,0,1,37.68,92.48c-1.27-.87-2.53-1.78-3.74-2.69C31.49,88,29.1,86,26.83,83.91L25.6,82.78l-.11-.1-2.35-2.23C19.67,77.15,16.4,74,12.88,72l-.06,0c-.32-.19-.64-.37-1-.54h0c-.33-.17-.66-.33-1-.48l-.07,0-.94-.38-.1,0c-.22-.08-.44-.17-.66-.24a7,7,0,0,1-.94-12.94,15.52,15.52,0,0,1,7-1.38h1.19l.9,0,1.16,0a9.85,9.85,0,0,1-1-3.42c0-.06,0-.13,0-.2a11.89,11.89,0,0,1,2.62-8.09,28.4,28.4,0,0,1,2.3-2.72q.6-.65,1.2-1.26a34.23,34.23,0,0,1-3.77-3.58l-.15-.17a10,10,0,0,1-.93-1.26c-.11-.18-.22-.36-.32-.55S18,34.17,17.9,34a9.44,9.44,0,0,1-.45-1.22c0-.13-.08-.29-.12-.47a.31.31,0,0,1,0-.08A9.87,9.87,0,0,1,18,25.93a1.14,1.14,0,0,1,.06-.15q.21-.44.45-.87l.06-.11A16.25,16.25,0,0,1,21,21.64L21.6,21l.4-.38,1-.95c1.59-1.45,3.44-3.13,5.4-4.75l0,0c.54-.45,1.09-.89,1.64-1.33.75-.58,1.46-1.11,2.12-1.57l.47-.32c.26-.18.55-.35.84-.52l.61-.34a11.06,11.06,0,0,1,1.52-.64,9.82,9.82,0,0,1,3.17-.54l.75,0a12.2,12.2,0,0,1,1.33.2,10,10,0,0,1,1.58.51,11.43,11.43,0,0,1,2,1.08l.3.21a63.14,63.14,0,0,1,7.68-6.18c.31-.21.62-.41,1-.61L54,4.54l.4-.2c.3-.16.57-.28.85-.4l.53-.21a9.89,9.89,0,0,1,1.54-.42,10.05,10.05,0,0,1,1.94-.19h.32l.35,0a10.42,10.42,0,0,1,1.74.25,11.76,11.76,0,0,1,1.3.37,13.28,13.28,0,0,1,1.44.62,19,19,0,0,1,3.69,2.54c4.29,3.63,8.33,7.44,11.71,10.69l3.72,3.58,3.85,3.72c3,2.83,5.25,5,7.41,6.91C96,33,97.3,34.08,98.51,35.1a18.47,18.47,0,0,1,1.66,1.55,12,12,0,0,1,1.12,1.43,10.18,10.18,0,0,1,.95,1.82,30.7,30.7,0,0,1,5.3,4.81L111,48.35c1.23,1.29,2.56,2.67,4,4.1q-.15-.87-.27-1.74l-.13-.93q-.17-1.23-.3-2.46l-.1-1q-.17-1.65-.27-3.3c-.12-2.08-.17-4-.14-5.88,0-1,.06-2,.12-3s.16-2.06.28-3l.08-.72c.18-1.53.39-3.19.68-4.86.1-.53.2-1.06.31-1.58l0-.2c.09-.44.21-.92.33-1.4l.08-.32c.12-.46.25-.91.4-1.36l.11-.39c.21-.64.44-1.24.67-1.8A7,7,0,0,1,121,14.6a7.13,7.13,0,0,1,2.28-.38,7,7,0,0,1,3.43.9c3,1.69,5.09,4.68,6.89,7.65l.92,1.55.22.37c.29.5.56,1,.8,1.34a105,105,0,0,1,13.66,31.09c.22.85.42,1.71.62,2.57.38,1.72.72,3.46,1,5.19.43,2.53.74,5.05,1,7.49.28,2.19.54,4.26.86,6.31.25,1.52.5,2.86.78,4.11.26,1.1.57,2.26.92,3.44.05.13.1.27.14.4.43,1.38,1,2.82,1.62,4.4.18.44.33.79.49,1.15.24.54.49,1.08.76,1.62s.4.81.61,1.21.28.53.42.78c.25.47.51.93.78,1.39l1.37,1.28,2.27,2.05c1.2,1.07,2.42,2.14,3.64,3.2l.58.5c2.29,2,4.61,3.93,6.93,5.89l3.5,3a16.07,16.07,0,0,1,1.2,1.12,9.7,9.7,0,0,1,1.76,2.55,9,9,0,0,1,.73,2.33,25.41,25.41,0,0,1,1.8,1.81c9.94,10.79,20.5,21.24,31.39,31.06a18.67,18.67,0,0,1,1.71,1.68l.3.36c.21.26.42.53.61.81l.34.5a10.42,10.42,0,0,1,.86,1.7,9.68,9.68,0,0,1,.58,2c0,.19.06.34.08.5a10.57,10.57,0,0,1,.1,1.81c0,.11,0,.27,0,.4,0,.39-.08.78-.14,1.18,0,.09-.05.29-.05.29,0,.17-.07.34-.11.51-.1.4-.21.78-.34,1.17,0,.11-.08.23-.13.36a10.11,10.11,0,0,1-.42,1,20.76,20.76,0,0,1-2,3.4q-.29.42-.6.84a29.35,29.35,0,0,1-2.43,3c2.19,2,4.28,3.86,6.08,5.46l.85.74c.19.17.35.31.5.46a11.29,11.29,0,0,1,1.61,1.84,9.3,9.3,0,0,1,.89,1.62,9.88,9.88,0,0,1,.47,6.05c-.08.39-.18.77-.29,1.13-.21.71-.45,1.35-.62,1.79-.08.23-.16.43-.24.62l-.19.44c-.3.7-.6,1.32-.93,1.92l-.09.17c-.37.67-.71,1.24-1.06,1.77a25.7,25.7,0,0,1-3.09,3.82l-.26.25a24.75,24.75,0,0,1-3.53,2.92,23.31,23.31,0,0,1-2.13,1.3,21.24,21.24,0,0,1-1.93.93,16.31,16.31,0,0,1-2.23.76,14.63,14.63,0,0,1-3.78.51h-.24a14.29,14.29,0,0,1-1.5-.11,13.74,13.74,0,0,1-1.92-.41l-.46-.14a13,13,0,0,1-1.44-.57c-.18-.08-.42-.19-.65-.31a18.76,18.76,0,0,1-4.51-3.32c-.55.52-1.13,1-1.77,1.62-1.76,1.53-5.41,4.74-10.49,5Z"/>
        </g>
        <g>
          <g>
            <path class="cls-5" d="M60.73,65.85A6.42,6.42,0,0,0,64,68.14a6,6,0,0,0,3.44-.71C72.24,65.28,77,62,78.89,57.12a4.56,4.56,0,0,0,.39-2.26,5.71,5.71,0,0,0-2.2-3.13C64.9,40.86,53.88,28.73,41.56,18A4.69,4.69,0,0,0,39,16.63a4.48,4.48,0,0,0-2.78,1.08,86.13,86.13,0,0,0-8.51,7.13c-1.85,1.7-5.13,4.53-3,7,2.43,2.82,6,5.07,8.84,7.54q9.2,8.06,17.83,16.74Q56.18,60.9,60.73,65.85Z"/>
            <path class="cls-6" d="M41.56,18A4.69,4.69,0,0,0,39,16.63a4.48,4.48,0,0,0-2.78,1.08c-1.16.81-2.27,1.7-3.37,2.6C44.29,28.69,54.11,39.08,63.5,49.68a140.23,140.23,0,0,1,9.61,11.75c.42.6.81,1.21,1.22,1.82a15.32,15.32,0,0,0,4.56-6.13,4.56,4.56,0,0,0,.39-2.26,5.71,5.71,0,0,0-2.2-3.13C64.9,40.86,53.88,28.73,41.56,18Z"/>
            <path class="cls-6" d="M77.81,59.28a13.2,13.2,0,0,0,1.08-2.16,4.56,4.56,0,0,0,.39-2.26,5.71,5.71,0,0,0-2.2-3.13C64.9,40.86,53.88,28.73,41.56,18A4.69,4.69,0,0,0,39,16.63a4.48,4.48,0,0,0-2.78,1.08l-.57.42c3.9,3,7.57,6.27,11.17,9.61s7,6.62,10.45,10q9.11,9,17.73,18.42C76,57.2,76.88,58.24,77.81,59.28Z"/>
            <path class="cls-7" d="M65.43,68.1,65,67.78c-2.16-1.8-4.25-3.68-6.3-5.61-4.09-3.87-8-7.93-12-11.91-2.28-2.28-4.59-4.54-7-6.72-5-4.56-10.27-8.75-15.6-12.9a2.83,2.83,0,0,0,.64,1.22c2.43,2.82,6,5.07,8.84,7.54q9.2,8.06,17.83,16.74,4.74,4.76,9.29,9.71A6.42,6.42,0,0,0,64,68.14,3.93,3.93,0,0,0,65.43,68.1Z"/>
            <path class="cls-8" d="M60.73,60c.39.27.94.53,1.29.21s.11-1-.18-1.38c-4.59-6.6-10.31-12.32-16-18-4-4-8-8-12.65-11.14a4.77,4.77,0,0,0-2.25-1A1.74,1.74,0,0,0,29.06,30c-.37,2.13,4.05,4.28,5.4,5.4,2.23,1.86,4.35,3.87,6.41,5.93C45,45.47,49,49.87,53.27,53.89A68.55,68.55,0,0,0,60.73,60Z"/>
            <path class="cls-9" d="M26.49,29.3,39.34,17.5a6.92,6.92,0,0,0,.6-.61,2.88,2.88,0,0,0-.91-.26,4.48,4.48,0,0,0-2.78,1.08,86.13,86.13,0,0,0-8.51,7.13c-1.59,1.46-4.22,3.76-3.57,5.95A6,6,0,0,0,26.49,29.3Z"/>
            <path class="cls-10" d="M32.41,23l2.69-2.61c0-.17-.16-.3-.33-.32a.91.91,0,0,0-.48.13,25.68,25.68,0,0,0-6.82,5.44c-.29.28-1.22,1-.57,1.45.48.3,1.43-.58,1.8-.84A32.82,32.82,0,0,0,32.41,23Z"/>
            <path class="cls-11" d="M70.83,47.58A9.73,9.73,0,0,0,71,46.16c-8.49-8-16.61-16.47-25.23-24.35a3.45,3.45,0,0,0-.32.74A5.14,5.14,0,0,0,46.65,27,42.73,42.73,0,0,0,50,30.37a21.93,21.93,0,0,1,3.88,5.73c.64,1.32,1.16,3,.21,4.13a3.27,3.27,0,0,1-2.94.78,11.49,11.49,0,0,1-3.78-1.35,32.18,32.18,0,0,0-4-2.1,9.13,9.13,0,0,0-8,.92,6,6,0,0,0-1.53,1.17q9,7.93,17.52,16.46a17.4,17.4,0,0,0,11,.33A12.55,12.55,0,0,0,70.83,47.58Z"/>
            <path class="cls-11" d="M71.44,46.54c-8.11-7.65-15.86-15.67-24-23.24a1.93,1.93,0,0,0-1,.54A1.91,1.91,0,0,0,46.28,26a6.23,6.23,0,0,0,1.62,1.66,33.47,33.47,0,0,1,6.34,6.84A8,8,0,0,1,56,38.67a4.61,4.61,0,0,1-3.53,4.48c-2.4.52-4.75-1-6.68-2.52s-4-3.26-6.45-3.29a9.22,9.22,0,0,0-5.35,2.24s0,.06,0,.09q9,7.94,17.52,16.47c2.05,2.06,4.06,4.15,6.06,6.26,3.76.57,7.89.42,10.84-2a10.35,10.35,0,0,0,3.46-5.91,17,17,0,0,0-.11-6.93C71.62,47.24,71.53,46.89,71.44,46.54Z"/>
          </g>
          <g>
            <g>
              <path class="cls-12" d="M121.08,32a60.58,60.58,0,0,0-.22,10.69c1.6,27,16.78,52.68,39.32,67.59a57.82,57.82,0,0,1-13.47-25.92c-1.37-6-1.75-12.21-2.77-18.3a96.83,96.83,0,0,0-14.27-36.21c-1.58-2.44-3.87-7.18-6.38-8.6C122,24.43,121.49,28.53,121.08,32Z"/>
              <path class="cls-13" d="M146.71,84.33c-1.37-6-1.75-12.21-2.77-18.3a96.83,96.83,0,0,0-14.27-36.21c-1.58-2.44-3.87-7.18-6.38-8.6a26.43,26.43,0,0,0-1.5,5.55,175.75,175.75,0,0,1,20.92,62.91c.19,1.46.12,3.33-1,4.09a87.29,87.29,0,0,0,18.47,16.48A57.82,57.82,0,0,1,146.71,84.33Z"/>
              <path class="cls-13" d="M143.94,66a96.83,96.83,0,0,0-14.27-36.21c-1.58-2.44-3.87-7.18-6.38-8.6-.11.27-.21.55-.31.82a97.71,97.71,0,0,1,13,26.77c3.49,10.82,5.59,22,7.49,33.22.67,4,1.32,8,.76,12a4.58,4.58,0,0,1-.61,1.88,86.92,86.92,0,0,0,16.59,14.33,57.82,57.82,0,0,1-13.47-25.92C145.34,78.31,145,72.12,143.94,66Z"/>
              <path class="cls-14" d="M121.08,32a60.58,60.58,0,0,0-.22,10.69,87.78,87.78,0,0,0,19.47,49.43,122.56,122.56,0,0,1-12.49-23c-1-2.24-1.91-4.5-2.69-6.82a77.37,77.37,0,0,1-3.37-17.55c-.41-4.46-.6-8.95-.62-13.43C121.14,31.5,121.11,31.74,121.08,32Z"/>
              <path class="cls-13" d="M144.2,96.59c-14.54-29.72-20.52-71.73-20.52-71.73-.53,1.56,4.34,39,17.71,68.54Q142.76,95,144.2,96.59Z"/>
              <path class="cls-13" d="M160.18,110.25a57.8,57.8,0,0,1-12.27-21.53,2.77,2.77,0,0,1-1.53.41,4,4,0,0,1-2.44-1.32c-3-2.88-4.7-6.88-7.62-9.84-2.36-2.39-5.39-4-8-6.1l-.5-.44A89.47,89.47,0,0,0,160.18,110.25Z"/>
              <path class="cls-13" d="M157.25,108.22q.1-.63.18-1.26a57.9,57.9,0,0,1-7.9-13.76,1.65,1.65,0,0,1-.95.42,3.2,3.2,0,0,1-2.39-1.24,72,72,0,0,1-9-10.81,30.21,30.21,0,0,0-1.94-2.7,28.86,28.86,0,0,0-6.43-5.17A89.87,89.87,0,0,0,157.25,108.22Z"/>
            </g>
            <g>
              <path class="cls-5" d="M166.7,141.25c5,4.11,10.44,7.8,15.16,12.28a122.05,122.05,0,0,1,8.93,9.81l4.35,5.14a11,11,0,0,0,3.26,2.93,7.17,7.17,0,0,0,6.8-.67,17.82,17.82,0,0,0,4.9-5.11c1.26-1.79,2.48-4,1.66-6.06a6.94,6.94,0,0,0-2-2.45q-16.65-15-31.85-31.51c-1.55-1.69-3.47-3.53-5.74-3.26a7,7,0,0,0-3.65,2.11c-2.22,2-6.43,5-7.18,8.17C160.51,136.09,164.4,139.37,166.7,141.25Z"/>
              <path class="cls-9" d="M210.1,165.63c1.26-1.79,2.48-4,1.66-6.06a4.78,4.78,0,0,0-1.12-1.6,11.47,11.47,0,0,1-1.81,5.86,16.15,16.15,0,0,1-6.41,5.54,10.91,10.91,0,0,1-3.73,1.22,10.58,10.58,0,0,1-1.71-.17,7,7,0,0,0,1.42,1,7.17,7.17,0,0,0,6.8-.67A17.82,17.82,0,0,0,210.1,165.63Z"/>
              <path class="cls-9" d="M172.17,122.35a7,7,0,0,0-3.65,2.11c-2.22,2-6.43,5-7.18,8.17a4.67,4.67,0,0,0,.37,3.05,9.73,9.73,0,0,0,3.58-.79,18.1,18.1,0,0,0,5.21-3.75,14.68,14.68,0,0,0,4-5.33,6.89,6.89,0,0,0,.41-2.81A4.33,4.33,0,0,0,172.17,122.35Z"/>
              <path class="cls-6" d="M208.66,166c.16.24.32.56.5.88.32-.43.64-.86.94-1.29,1.26-1.79,2.48-4,1.66-6.06a6.94,6.94,0,0,0-2-2.45q-16.65-15-31.85-31.51c-1.55-1.69-3.47-3.53-5.74-3.26a5.19,5.19,0,0,0-2.43,1.08,10,10,0,0,1,1.21,1,24,24,0,0,1,3.17,4.88,54.56,54.56,0,0,0,9.09,11.44c6.24,6.17,13.34,11.4,19.4,17.76a59.82,59.82,0,0,1,4.22,4.92C207.47,164.31,208.08,165.16,208.66,166Z"/>
              <path class="cls-6" d="M177.91,125.61c-1.47-1.59-3.26-3.3-5.37-3.26a40.17,40.17,0,0,1,4.49,4.82c2.09,2.67,3.85,5.6,5.92,8.29a60.68,60.68,0,0,0,7.34,7.78c4.72,4.31,9.85,8.15,14.46,12.59a52.64,52.64,0,0,1,6.24,7c.11.16.24.39.39.64a4.85,4.85,0,0,0,.38-3.92,6.94,6.94,0,0,0-2-2.45Q193.11,142.12,177.91,125.61Z"/>
              <path class="cls-7" d="M191.13,162.87a105.43,105.43,0,0,0-21.92-20.63c-2.7-1.9-5.6-3.82-7.46-6.46,1,2.22,3.37,4.18,4.95,5.47,5,4.11,10.44,7.8,15.16,12.28a122.05,122.05,0,0,1,8.93,9.81l4.35,5.14a11,11,0,0,0,3.26,2.93.94.94,0,0,0,.15.06c-.69-.64-1.41-1.27-2.05-2C194.58,167.39,192.9,165.09,191.13,162.87Z"/>
              <path class="cls-8" d="M194.8,163.61c.28.23.63.48,1,.36a.7.7,0,0,0,.42-.74,1.89,1.89,0,0,0-.33-.85,35.5,35.5,0,0,0-3.4-4.51q-3.77-4.43-7.74-8.68c-4.44-4.74-9.2-9.39-15.09-12.1a4.38,4.38,0,0,0-1.59-.49,1.74,1.74,0,0,0-1.5.59c-.87,1.16.65,1.63,1.37,2.12,1.1.73,2.17,1.5,3.22,2.3,2.07,1.58,4.05,3.29,6,5,3.88,3.58,7.52,7.4,11.3,11.09C190.48,159.76,192.59,161.74,194.8,163.61Z"/>
              <path class="cls-10" d="M172.9,126.21a3.71,3.71,0,0,0,.42-3.09,2.4,2.4,0,0,0-.55-.78,4,4,0,0,0-.6,0,7,7,0,0,0-3.65,2.11c-2.22,2-6.43,5-7.18,8.17a4.21,4.21,0,0,0,0,1.9c2.34,1,5.93-2,7.35-3.33A18.53,18.53,0,0,0,172.9,126.21Z"/>
            </g>
            <g>
              <path class="cls-5" d="M126.5,103.08a96.55,96.55,0,0,0,8.15,6.52,108.36,108.36,0,0,1,19.15,19c1.44,1.85,2.95,3.83,5.13,4.68,2.67,1,5.74.1,8.14-1.46a17.12,17.12,0,0,0,7.06-9.47,3.73,3.73,0,0,0,.05-2.61,4.32,4.32,0,0,0-1.15-1.3c-11.48-9.73-23.36-19.25-32.45-31.25A17.43,17.43,0,0,0,137.84,84,5.26,5.26,0,0,0,134,82.7a7,7,0,0,0-3.38,1.76c-3.22,2.59-6.71,5.93-8.73,9.58C120.19,97.09,124.41,101.08,126.5,103.08Z"/>
              <path class="cls-9" d="M136.29,88.68a7.42,7.42,0,0,0,.75-5.23,4.82,4.82,0,0,0-3-.75,7,7,0,0,0-3.38,1.76c-3.22,2.59-6.71,5.93-8.73,9.58a3.83,3.83,0,0,0,.11,3.54H122a7.82,7.82,0,0,0,4.57-.69C130.62,95.28,134.34,92.54,136.29,88.68Z"/>
              <path class="cls-9" d="M164.4,130.81a12.73,12.73,0,0,1-5,2.55c2.56.78,5.42-.12,7.69-1.59a17.12,17.12,0,0,0,7.06-9.47,3.73,3.73,0,0,0,.05-2.61,4.32,4.32,0,0,0-1.15-1.3l-.64-.54a15.7,15.7,0,0,1-1.24,6.08C169.77,126.87,167.05,128.93,164.4,130.81Z"/>
              <path class="cls-6" d="M170.81,126.68c.18.26.39.63.62,1a17.06,17.06,0,0,0,2.7-5.39,3.73,3.73,0,0,0,.05-2.61,4.32,4.32,0,0,0-1.15-1.3c-11.48-9.73-23.36-19.25-32.45-31.25A17.43,17.43,0,0,0,137.84,84,5.26,5.26,0,0,0,134,82.7a6.4,6.4,0,0,0-3.05,1.5,7,7,0,0,0,.51.82,42.9,42.9,0,0,0,3,3.65c2.65,3,5.31,6.08,8.11,9,2.58,2.67,5.27,5.22,8,7.75,4.81,4.47,9.7,8.86,14.13,13.71A77.18,77.18,0,0,1,170.81,126.68Z"/>
              <path class="cls-6" d="M174.13,122.3a3.73,3.73,0,0,0,.05-2.61,4.32,4.32,0,0,0-1.15-1.3c-11.48-9.73-23.36-19.25-32.45-31.25A17.43,17.43,0,0,0,137.84,84,5.26,5.26,0,0,0,134,82.7l-.07,0c2.8,3,4.92,6.59,7.41,9.87a70.22,70.22,0,0,0,8.47,9.11c5.42,5,11.31,9.45,16.67,14.51a72.87,72.87,0,0,1,7.09,7.71C173.77,123.39,174,122.85,174.13,122.3Z"/>
              <path class="cls-7" d="M122.27,98.13a23,23,0,0,0,4.23,5,98,98,0,0,0,8.14,6.52,108.08,108.08,0,0,1,19.16,19c1.44,1.85,2.95,3.83,5.13,4.68l.29.08c-.57-.43-1.11-.88-1.63-1.36a63.63,63.63,0,0,1-5.78-6.49,126,126,0,0,0-18.36-18C129.65,104.43,125.66,101.58,122.27,98.13Z"/>
              <path class="cls-8" d="M147.11,118.44a67.7,67.7,0,0,0,7.71,7.44c.42.33,1.08.61,1.4.19a1,1,0,0,0,0-.94,13.15,13.15,0,0,0-1.67-2.91,36.44,36.44,0,0,0-3.39-3.86,196.84,196.84,0,0,0-18.21-16.54,29.93,29.93,0,0,0-3.44-2.47c-.63-.37-1.51-.78-2.2-.29s-.5,1-.09,1.56a11.18,11.18,0,0,0,2.3,1.73c.89.64,1.76,1.3,2.62,2a115.88,115.88,0,0,1,9.78,8.75C143.67,114.82,145.4,116.62,147.11,118.44Z"/>
              <path class="cls-10" d="M136.08,85.56a5.28,5.28,0,0,0,.36-2.41A4.55,4.55,0,0,0,134,82.7a7,7,0,0,0-3.38,1.76c-3.22,2.59-6.71,5.93-8.73,9.58a3.13,3.13,0,0,0-.38,1.47,1.35,1.35,0,0,0,.29.16c2.42.9,5.67-.87,7.6-2.16A16.88,16.88,0,0,0,136.08,85.56Z"/>
            </g>
            <g>
              <path class="cls-5" d="M86.55,64.74c2.87,2.82,6.18,5.14,9.31,7.66a92.13,92.13,0,0,1,16.48,17.23c1.75,2.39,3.57,5,6.36,6a8.45,8.45,0,0,0,3.28.42,12.74,12.74,0,0,0,8.17-3.85,19.64,19.64,0,0,0,4.61-7.89,6.79,6.79,0,0,0,.2-4.83,8,8,0,0,0-3-3C121,68.81,111.56,59.28,102.47,49.53a24.26,24.26,0,0,0-4.34-4,7.81,7.81,0,0,0-5.58-1.33,10.38,10.38,0,0,0-5,3.13c-2,1.95-6.13,5.4-6.51,8.39C80.6,58.92,84.54,62.77,86.55,64.74Z"/>
              <path class="cls-9" d="M96.78,44.85a7.19,7.19,0,0,0-4.23-.6,10.38,10.38,0,0,0-5,3.13c-2,1.95-6.13,5.4-6.51,8.39a5.25,5.25,0,0,0,.63,2.91,8.62,8.62,0,0,0,4-1,23.41,23.41,0,0,0,9.43-8.07A8.73,8.73,0,0,0,96.78,44.85Z"/>
              <path class="cls-9" d="M131.77,87a16.3,16.3,0,0,1-8.52,8,11.5,11.5,0,0,1-4,.83,8.76,8.76,0,0,0,2.7.25,12.74,12.74,0,0,0,8.17-3.85,19.64,19.64,0,0,0,4.61-7.89,6.79,6.79,0,0,0,.2-4.83,5.92,5.92,0,0,0-1.85-2.17A16.23,16.23,0,0,1,131.77,87Z"/>
              <path class="cls-6" d="M132.19,89.7a21.37,21.37,0,0,0,2.57-5.39,6.79,6.79,0,0,0,.2-4.83,8,8,0,0,0-3-3C121,68.81,111.56,59.28,102.47,49.53a24.26,24.26,0,0,0-4.34-4,7.81,7.81,0,0,0-5.58-1.33,6.61,6.61,0,0,0-1.92.7,43.24,43.24,0,0,1,4.85,4.91c1.39,1.74,2.54,3.65,3.81,5.47a72,72,0,0,0,8.87,10.3c5.75,5.66,12,10.73,17.68,16.51,1.4,1.44,2.75,2.91,4,4.45C130.7,87.58,131.42,88.66,132.19,89.7Z"/>
              <path class="cls-6" d="M102.47,49.53a24.26,24.26,0,0,0-4.34-4,8,8,0,0,0-5.32-1.37l.19.16a45.85,45.85,0,0,1,7.3,6.76c2.12,2.44,4,5.1,6,7.63a73.66,73.66,0,0,0,9.76,10.06c1.86,1.58,3.8,3.08,5.74,4.56a104.12,104.12,0,0,1,9.94,8.21,38.83,38.83,0,0,1,2.88,3.13c0-.14.1-.27.14-.41a6.79,6.79,0,0,0,.2-4.83,8,8,0,0,0-3-3C121,68.81,111.56,59.28,102.47,49.53Z"/>
              <path class="cls-7" d="M91.62,68.11A89.49,89.49,0,0,1,81.78,59a26,26,0,0,0,4.77,5.76c2.87,2.82,6.18,5.14,9.31,7.66a92.13,92.13,0,0,1,16.48,17.23c1.75,2.39,3.57,5,6.36,6l.57.16c-.59-.39-1.23-.74-1.52-1a40.93,40.93,0,0,1-5.52-6.3q-2.9-3.74-6-7.27A76,76,0,0,0,99,73.9C96.61,71.86,94.07,70.05,91.62,68.11Z"/>
              <path class="cls-8" d="M93.08,67.25a189,189,0,0,1,22.79,21.57,5,5,0,0,0,1.36,1.2,1.52,1.52,0,0,0,2.29-1.79,5,5,0,0,0-1-1.74C114,80.55,108.46,75.41,102.88,70.4c-2.72-2.44-5.46-4.87-8.4-7.06a23.23,23.23,0,0,0-4.89-3c-.77-.32-2.12-.74-2.89-.21-1,.7.13,1.61.7,2.19A60.1,60.1,0,0,0,93.08,67.25Z"/>
              <path class="cls-10" d="M96,44.55a6.69,6.69,0,0,0-3.43-.3,10.38,10.38,0,0,0-5,3.13c-2,1.95-6.13,5.4-6.51,8.39a3.63,3.63,0,0,0,0,.93,5.36,5.36,0,0,0,3-.33A23.16,23.16,0,0,0,94.24,49.1a8.59,8.59,0,0,0,1.59-2.7A4.3,4.3,0,0,0,96,44.55Z"/>
            </g>
            <g>
              <path class="cls-5" d="M66.91,45a50.8,50.8,0,0,1,6.52,7.32,27.86,27.86,0,0,0,2.51,3.47,5.4,5.4,0,0,0,3.74,1.85,6.76,6.76,0,0,0,3.06-.92A33.41,33.41,0,0,0,94.43,47c1-1.29,1.87-2.91,1.31-4.42A5.3,5.3,0,0,0,94,40.45c-10.57-8.93-19.9-19.23-30.45-28.17-1.41-1.2-3.12-2.45-4.94-2.1a6.12,6.12,0,0,0-2.17,1.07,57.75,57.75,0,0,0-8.65,7.27c-1.33,1.37-3.82,3.95-2.75,6,.61,1.17,2.55,2.32,3.53,3.21l3.73,3.4Q59.72,38,66.91,45Z"/>
              <path class="cls-9" d="M94.43,47c1-1.29,1.87-2.91,1.31-4.42A5.3,5.3,0,0,0,94,40.45l-.68-.6A8.74,8.74,0,0,1,92.13,46a21.87,21.87,0,0,1-4.65,5.19A29.5,29.5,0,0,1,80,56.34a6.94,6.94,0,0,1-2.72.56,4.56,4.56,0,0,0,2.38.76,6.76,6.76,0,0,0,3.06-.92A33.41,33.41,0,0,0,94.43,47Z"/>
              <path class="cls-6" d="M86.45,43.24q2.82,3.32,5.29,6.86A33.62,33.62,0,0,0,94.43,47c1-1.29,1.87-2.91,1.31-4.42A5.3,5.3,0,0,0,94,40.45c-10.57-8.93-19.9-19.23-30.45-28.17-1.41-1.2-3.12-2.45-4.94-2.1a6.12,6.12,0,0,0-2.17,1.07c-.68.47-1.35.95-2,1.45q9.07,8.44,18.24,16.79c3.36,3.07,6.72,6.14,9.87,9.43C83.88,40.32,85.18,41.76,86.45,43.24Z"/>
              <path class="cls-6" d="M63.54,12.28c-1.41-1.2-3.12-2.45-4.94-2.1a5.11,5.11,0,0,0-1.72.77c.93.56,1.91,1.05,2.83,1.61A33.64,33.64,0,0,1,65.21,17q4,3.75,7.94,7.57,6.93,6.73,13.62,13.69,3.39,3.53,6.71,7.09c.29.32.67.87,1.09,1.39.9-1.26,1.7-2.8,1.17-4.23A5.3,5.3,0,0,0,94,40.45C83.42,31.52,74.09,21.22,63.54,12.28Z"/>
              <path class="cls-7" d="M45,24.51c.61,1.17,2.55,2.32,3.53,3.21l3.73,3.4Q59.72,38,66.91,45a50.8,50.8,0,0,1,6.52,7.32,27.86,27.86,0,0,0,2.51,3.47,6.25,6.25,0,0,0,2.48,1.62A10.75,10.75,0,0,1,76.85,56a56.11,56.11,0,0,1-3.46-4.76,70.93,70.93,0,0,0-8-9q-10-10-20.57-19.31A2.35,2.35,0,0,0,45,24.51Z"/>
              <path class="cls-8" d="M57.11,31.68a104.11,104.11,0,0,1,7.87,8L71.73,47a15.82,15.82,0,0,0,5,4.12,1.09,1.09,0,0,0,.43.11.75.75,0,0,0,.63-.78,2,2,0,0,0-.39-1,38.17,38.17,0,0,0-5.74-6.58C65.6,36.81,60,30.25,53.17,25a5.08,5.08,0,0,0-1.59-.92c-.87-.25-2.1.12-2,1.21,0,.86,1.13,1.3,1.75,1.76C53.27,28.53,55.25,30,57.11,31.68Z"/>
              <path class="cls-9" d="M60.07,10.23a3.63,3.63,0,0,0-1.47-.05,6.12,6.12,0,0,0-2.17,1.07,57.25,57.25,0,0,0-8.65,7.27c-1.09,1.12-3,3.06-3,4.84,1.53.79,4.34-2.71,5.38-3.61,2.9-2.51,5.8-5,8.53-7.72A6.14,6.14,0,0,0,60.07,10.23Z"/>
              <path class="cls-10" d="M47.73,20.53a1.05,1.05,0,0,0,.51-.16,9.59,9.59,0,0,0,1.85-1.32q2.13-1.78,4.18-3.65a8.33,8.33,0,0,0,2-2.34.44.44,0,0,0,0-.4.31.31,0,0,0-.4-.07.87.87,0,0,0-.31.32,13,13,0,0,1-5,4.72c-.62.29-1.27.49-1.86.84C48.38,18.66,46.49,20.54,47.73,20.53Z"/>
            </g>
          </g>
          <g>
            <g>
              <path class="cls-12" d="M101.74,148c4.3,3.3,8.12,7.2,12.52,10.35,6.77,4.85,15.19,7.86,23.44,6.75,3.56-.47,7-1.69,10.55-2.06-6.07-5.92-12.36-11.71-19.5-16.29s-15.25-7.92-23.71-8.53c-2.41-.18-4.82-.13-7.24-.07a24.38,24.38,0,0,0-6.59.8c-1.42.45-4.93,1.7-2.44,2.88,2.07,1,4.59,1.15,6.73,2.21A37.18,37.18,0,0,1,101.74,148Z"/>
              <g class="cls-2">
                <path class="cls-13" d="M141.9,165.06c-29.82-24-52.06-24.32-52.28-24.33,0,0,22.88-.82,53,23.41Z"/>
              </g>
              <path class="cls-14" d="M135.81,165.27l-1-.11a40.55,40.55,0,0,1-19.12-7.07c-6.53-4.64-11.67-11.43-19.11-14.4a32.55,32.55,0,0,0-5.89-1.63,11.46,11.46,0,0,0-2-.31l.12.07c2.07,1,4.59,1.15,6.73,2.21a37.18,37.18,0,0,1,6.24,4c4.3,3.3,8.12,7.2,12.52,10.35C120.52,162.82,128.18,165.72,135.81,165.27Z"/>
              <path class="cls-13" d="M146.43,161.27a117,117,0,0,0-17.68-14.53c-7.15-4.58-15.25-7.92-23.71-8.53-2.41-.18-4.82-.13-7.24-.07a27.69,27.69,0,0,0-5.74.6c.59,0,1.18.06,1.77.12a84.64,84.64,0,0,1,9.23,1.55,35.7,35.7,0,0,1,5.08,1.3,35.13,35.13,0,0,1,7.41,4.11,128,128,0,0,1,11.92,8.75c3.9,3.33,7.48,7.08,11.44,10.31,2.8-.5,5.55-1.29,8.37-1.7C147,162.54,146.73,161.9,146.43,161.27Z"/>
            </g>
            <path class="cls-13" d="M128.75,146.74a55.53,55.53,0,0,0-17.39-7.57,4.31,4.31,0,0,0,.19.77c1.32,3.78,4.15,7,7.12,9.61,3.58,3.13,7.68,5.6,11.52,8.4a79.22,79.22,0,0,1,8.32,7c2.12-.35,4.2-.88,6.31-1.34a13.45,13.45,0,0,0-1.49-4c-.46-.89-.94-1.75-1.44-2.62A100.16,100.16,0,0,0,128.75,146.74Z"/>
            <path class="cls-13" d="M142.09,163.39a17.22,17.22,0,0,0-3.25-6.6,77.37,77.37,0,0,0-6.39-7.5c-1.21-.88-2.44-1.74-3.7-2.55a56.26,56.26,0,0,0-16.34-7.29,12,12,0,0,0,1.64,3.28c3.73,5.45,9.49,9.1,14.7,13.16,3.41,2.64,6.63,5.51,9.88,8.34l.67.58c1-.18,1.94-.39,2.91-.61Q142.17,163.78,142.09,163.39Z"/>
            <g>
              <path class="cls-5" d="M150.11,177.43c.95,2.24,3,3.84,4.89,5.33,5.47,4.24,11,8.51,15.51,13.76a33.76,33.76,0,0,0,3.86,4.15,7.76,7.76,0,0,0,5.17,2c2.37-.1,4.4-1.67,6.18-3.23,2.74-2.41,5.42-5.12,6.56-8.59a4,4,0,0,0,.16-2.59,4.93,4.93,0,0,0-1.82-2,150.43,150.43,0,0,1-19.13-17.6c-2.41-2.63-5.1-5.55-8.65-5.79-4-.27-7.22,2.85-9.93,5.74S148.77,173.34,150.11,177.43Z"/>
              <path class="cls-9" d="M162.84,162.85c-4-.27-7.22,2.85-9.93,5.74s-4.14,4.75-2.8,8.84a3.37,3.37,0,0,0,.19.38,8.82,8.82,0,0,0,4.09-1.09,23.11,23.11,0,0,0,7.91-7.26,9.49,9.49,0,0,0,2-4.5,4.77,4.77,0,0,0-.2-1.91A7.17,7.17,0,0,0,162.84,162.85Z"/>
              <path class="cls-6" d="M171.49,168.64c-2.41-2.63-5.1-5.55-8.65-5.79a7.34,7.34,0,0,0-1.15,0q.87,2.38,1.73,4.77a20.63,20.63,0,0,0,1.47,3.41,19.22,19.22,0,0,0,3.25,3.95c6.23,6.21,13.32,11.57,18.93,18.34a17.82,17.82,0,0,1,1.94,2.89,15.41,15.41,0,0,0,3.27-5.37,4,4,0,0,0,.16-2.59,4.93,4.93,0,0,0-1.82-2A150.43,150.43,0,0,1,171.49,168.64Z"/>
              <path class="cls-6" d="M191.94,191.75c.12-.29.24-.58.34-.89a4,4,0,0,0,.16-2.59,4.93,4.93,0,0,0-1.82-2,150.43,150.43,0,0,1-19.13-17.6c-2.29-2.5-4.84-5.23-8.14-5.71a105.74,105.74,0,0,0,10.56,11.81c1.62,1.49,3.32,2.89,5,4.31,3.09,2.6,6.14,5.27,9,8.17,1.41,1.44,2.77,2.93,4,4.5Z"/>
              <path class="cls-7" d="M150.09,177.36a.19.19,0,0,0,0,.07c.95,2.24,3,3.84,4.89,5.33,5.47,4.24,11,8.51,15.51,13.76a33.76,33.76,0,0,0,3.86,4.15,8.46,8.46,0,0,0,4.15,2,30.73,30.73,0,0,1-5.07-4.2c-2.17-2.26-4.13-4.72-6.34-7C161.93,186.24,155.41,182.38,150.09,177.36Z"/>
              <path class="cls-8" d="M167.38,188.66c1.47,1.35,2.81,2.83,4.25,4.21a42.23,42.23,0,0,0,7.49,5.75c.34.2.78.39,1.09.16s.16-1-.14-1.39a66.94,66.94,0,0,0-7.48-8.41c-3.87-3.86-7.93-7.78-13-9.76a3.85,3.85,0,0,0-1.7-.36,1.43,1.43,0,0,0-1.16,2.24c.54.84,2.1,1.37,2.93,1.89A53.84,53.84,0,0,1,167.38,188.66Z"/>
              <path class="cls-10" d="M162.09,166.49a3.84,3.84,0,0,0,.36-2.82,2.23,2.23,0,0,0-.51-.82c-3.55.21-6.53,3.07-9,5.74-2.3,2.46-3.66,4.15-3.23,7.08a5.11,5.11,0,0,0,.87.14c2.79.2,5.35-1.76,7.24-3.57A18.46,18.46,0,0,0,162.09,166.49Z"/>
            </g>
            <g>
              <path class="cls-5" d="M113.36,140.72a20.33,20.33,0,0,0,4.2,4.54c8.78,7.69,18.21,14.86,25.19,24.22,1.36,1.82,2.78,3.84,5,4.49,2.7.79,5.47-.82,7.79-2.42,3.21-2.21,6.56-4.83,7.51-8.61a4.09,4.09,0,0,0,.11-1.87,5.48,5.48,0,0,0-2-2.73,438.42,438.42,0,0,1-32.37-31.72,7.67,7.67,0,0,0-2.5-2c-2.22-.93-4.73.42-6.6,2C115.49,129.93,110,135.15,113.36,140.72Z"/>
              <path class="cls-9" d="M160.18,165.55a17.65,17.65,0,0,1-7.33,5.7,12.4,12.4,0,0,1-6.54,1.52c-.26,0-.58-.09-.91-.15a6.12,6.12,0,0,0,2.31,1.35c2.7.79,5.47-.82,7.79-2.42,3.21-2.21,6.56-4.83,7.51-8.61a4.09,4.09,0,0,0,.11-1.87,4.4,4.4,0,0,0-1.41-2.18A9.33,9.33,0,0,1,160.18,165.55Z"/>
              <path class="cls-9" d="M126.19,124.57c-2.22-.9-4.7.44-6.56,2-3.73,3.06-8.56,7.6-7,12.55a6.22,6.22,0,0,0,1.4-.24,11.45,11.45,0,0,0,4-2.43,35.68,35.68,0,0,0,3.78-3.49,22.44,22.44,0,0,0,3.56-5.24A6.31,6.31,0,0,0,126.19,124.57Z"/>
              <path class="cls-6" d="M158.84,168.81l.08.14a12.09,12.09,0,0,0,4.09-6,4.09,4.09,0,0,0,.11-1.87,5.48,5.48,0,0,0-2-2.73,438.42,438.42,0,0,1-32.37-31.72,7.67,7.67,0,0,0-2.5-2,4.61,4.61,0,0,0-3.46.07,5.05,5.05,0,0,0-.13,1.6c.21,3.41,2.78,6.16,5.19,8.59l17.84,17.92c1.77,1.79,3.54,3.57,5.25,5.42A54,54,0,0,1,158.84,168.81Z"/>
              <path class="cls-6" d="M128.73,126.62a7.67,7.67,0,0,0-2.5-2,4.23,4.23,0,0,0-2.41-.22,36.17,36.17,0,0,0,5.62,7.61c2.87,3.16,5.89,6.17,9,9.12,5.43,5.2,11,10.21,16.35,15.53,2.61,2.62,5.15,5.31,7.55,8.13a8.81,8.81,0,0,0,.7-1.81,4.09,4.09,0,0,0,.11-1.87,5.48,5.48,0,0,0-2-2.73A438.42,438.42,0,0,1,128.73,126.62Z"/>
              <path class="cls-7" d="M112.67,139.2a7,7,0,0,0,.69,1.52,20.33,20.33,0,0,0,4.2,4.54c8.78,7.69,18.21,14.86,25.19,24.22,1.36,1.82,2.78,3.84,5,4.49a5.48,5.48,0,0,0,1.06.19,20.13,20.13,0,0,1-4.08-3.22c-1.79-2-3.3-4.23-4.94-6.34-5.1-6.56-11.6-11.87-18-17.13A75.64,75.64,0,0,1,112.67,139.2Z"/>
              <path class="cls-8" d="M131.77,153.76c3.79,4,7.19,8.31,11.51,11.66,1.06.82,2.39,1.61,3.65,1.16-2-4.37-5.67-7.68-9-11.13-5.41-5.57-10.27-11.87-16.89-15.94a2.27,2.27,0,0,0-1.88-.46c-3.84,1.43,3.28,6.12,4.27,7C126.3,148.48,129.14,151,131.77,153.76Z"/>
              <path class="cls-10" d="M119.63,126.53c-3.26,2.67-7.36,6.48-7.31,10.69a4.68,4.68,0,0,0,1.24-.43,25.71,25.71,0,0,0,11.36-10.33,4,4,0,0,0,.67-2.07C123.54,123.92,121.33,125.15,119.63,126.53Z"/>
            </g>
            <g>
              <path class="cls-5" d="M66.23,95.45a16.28,16.28,0,0,0,3.46,3.77c3.67,3.25,7.38,6.45,11,9.73q12.69,11.44,24.2,24.12a11.17,11.17,0,0,0,2.47,2.24,7.35,7.35,0,0,0,6.65.1,17.89,17.89,0,0,0,5.47-4.17c2.68-2.73,5.23-5.85,6-9.59a3,3,0,0,0,0-1.63,3.23,3.23,0,0,0-.86-1.16,53.63,53.63,0,0,0-6.09-4.7c-7.41-5.32-14.06-11.62-20.68-17.9l-16-15.19a7.41,7.41,0,0,0-2-1.52c-2.11-.94-4.53.2-6.46,1.47C69.08,83.9,62.88,89.76,66.23,95.45Z"/>
              <path class="cls-9" d="M125.5,120a3.23,3.23,0,0,0-.86-1.16c-.25-.24-.52-.47-.79-.7a11.45,11.45,0,0,1-.13,4.91c-.88,3.36-3.43,6-6,8.32a17.5,17.5,0,0,1-6.34,4.07,6.58,6.58,0,0,1-3.38.16,7.63,7.63,0,0,0,6-.21,17.89,17.89,0,0,0,5.47-4.17c2.68-2.73,5.23-5.85,6-9.59A3,3,0,0,0,125.5,120Z"/>
              <path class="cls-9" d="M78.33,85.3a9.76,9.76,0,0,0,1.94-3.92,5.49,5.49,0,0,0,.08-1.57c-.16-.09-.32-.18-.49-.26-2.11-.94-4.53.2-6.46,1.47-3.85,2.57-9.19,7.51-7.91,12.59a6.19,6.19,0,0,0,1.45-.28A22.81,22.81,0,0,0,78.33,85.3Z"/>
              <path class="cls-6" d="M121.64,128.72l.06.1a16.7,16.7,0,0,0,3.81-7.17,3,3,0,0,0,0-1.63,3.23,3.23,0,0,0-.86-1.16,53.63,53.63,0,0,0-6.09-4.7c-7.41-5.32-14.06-11.62-20.68-17.9l-16-15.19a7.41,7.41,0,0,0-2-1.52c-1.81-.81-3.86-.08-5.63,1a11.28,11.28,0,0,0,.94,1.74c10.7,16.68,29.28,26.56,42.45,41.38A50.49,50.49,0,0,1,121.64,128.72Z"/>
              <path class="cls-6" d="M118.55,114.16c-7.41-5.32-14.06-11.62-20.68-17.9l-16-15.19a7.41,7.41,0,0,0-2-1.52,4.32,4.32,0,0,0-2.56-.26,8.76,8.76,0,0,0,1.5,2.15,275.51,275.51,0,0,0,29,28.34c2.09,1.75,4.2,3.48,6.28,5.24a89.82,89.82,0,0,1,10.24,9.84,13.38,13.38,0,0,0,1.16-3.21,3,3,0,0,0,0-1.63,3.23,3.23,0,0,0-.86-1.16A53.63,53.63,0,0,0,118.55,114.16Z"/>
              <path class="cls-7" d="M69.92,97.89C68.46,96.63,67,95.37,65.61,94a6.81,6.81,0,0,0,.62,1.43,16.28,16.28,0,0,0,3.46,3.77c3.67,3.25,7.38,6.45,11,9.73q12.69,11.44,24.2,24.12a11.17,11.17,0,0,0,2.47,2.24,5.5,5.5,0,0,0,1.75.68c-.71-.65-1.81-1.25-2.2-1.59-3.14-2.77-5.59-6.22-8.36-9.35-1.73-2-3.59-3.8-5.45-5.64C85.59,112,77.92,104.77,69.92,97.89Z"/>
              <path class="cls-8" d="M98.19,122.65a37.19,37.19,0,0,0,5.58,5.14,1.35,1.35,0,0,0,1,.33c.77-.19.66-1.32.33-2.05A22.4,22.4,0,0,0,103,122.4a44,44,0,0,0-4.08-4.66c-4.06-4.24-8.13-8.47-12.36-12.54-3.47-3.33-7.14-6.61-11.56-8.49a2,2,0,0,0-2-.07c-1.85,1.41,1.81,3.75,2.61,4.45,1.91,1.67,3.79,3.35,5.66,5.06q5.6,5.11,11,10.48Q95.28,119.6,98.19,122.65Z"/>
              <path class="cls-10" d="M79.12,79.31c-1.92-.43-4,.58-5.72,1.71-3.41,2.27-8,6.41-8.1,10.85a3.73,3.73,0,0,0,1.82.09A15.31,15.31,0,0,0,79,82.45a4.2,4.2,0,0,0,.28-2.76A2.54,2.54,0,0,0,79.12,79.31Z"/>
            </g>
            <g>
              <path class="cls-5" d="M27.92,56.17c10.68,9.37,19.74,20.4,28.94,31.21,1.54,1.8,3.24,3.7,5.54,4.25,2.75.66,5.53-.77,7.93-2.26,3.14-1.94,6.22-4.13,8.34-7.15,1.08-1.53,1.9-3.45,1.37-5.25-.49-1.63-2-2.74-3.33-3.77C64.29,63.81,54.39,51.57,43.33,40.61A8.09,8.09,0,0,0,39.42,38c-2.28-.44-4.44,1.05-6.2,2.55a69.73,69.73,0,0,0-5.83,5.57c-1.23,1.32-3.31,3.53-3.14,5.52C24.41,53.5,26.68,55.07,27.92,56.17Z"/>
              <path class="cls-9" d="M80,77a4.7,4.7,0,0,0-.71-1.37,17.58,17.58,0,0,1-4.49,8.25A25,25,0,0,1,64.4,90.1a11.54,11.54,0,0,1-3.93.69,6.66,6.66,0,0,0,1.93.84c2.75.66,5.53-.77,7.93-2.26,3.14-1.94,6.22-4.13,8.34-7.15C79.75,80.69,80.57,78.77,80,77Z"/>
              <path class="cls-6" d="M76.71,73.2C64.29,63.81,54.39,51.57,43.33,40.61A8.09,8.09,0,0,0,39.42,38c-1.85-.36-3.61.56-5.16,1.72,5.13,4.51,8.65,10.52,13,15.83,6.79,8.39,15.5,15,23,22.79a62.59,62.59,0,0,1,4.66,5.38,17.58,17.58,0,0,1,1,1.65,18.86,18.86,0,0,0,2.86-3.19c1.08-1.53,1.9-3.45,1.37-5.25C79.55,75.34,78.07,74.23,76.71,73.2Z"/>
              <path class="cls-6" d="M76.71,73.2C64.29,63.81,54.39,51.57,43.33,40.61A8.09,8.09,0,0,0,39.42,38a4.9,4.9,0,0,0-2.6.26c1.31,1.4,2.75,2.68,4.1,4,3.8,3.81,6.91,8.26,10.38,12.38a89.61,89.61,0,0,0,8.63,8.91c2.13,1.91,4.34,3.72,6.54,5.55A72.21,72.21,0,0,1,77.24,79.6c.59.74,1.13,1.51,1.65,2.29A6.11,6.11,0,0,0,80,77C79.55,75.34,78.07,74.23,76.71,73.2Z"/>
              <path class="cls-7" d="M63.74,91.78a19,19,0,0,1-2.92-2.08,53.28,53.28,0,0,1-4.63-4.87C46.18,73.31,36.44,61.28,24.34,52c.4,1.67,2.42,3.11,3.58,4.13,10.68,9.37,19.74,20.4,28.94,31.21,1.54,1.8,3.24,3.7,5.54,4.25A6.12,6.12,0,0,0,63.74,91.78Z"/>
              <path class="cls-8" d="M41.53,64.74c6.14,6.18,11.54,13.09,18,19,.94.86,2.09,1.76,3.35,1.56a1.12,1.12,0,0,0,.77-.42c.34-.51,0-1.17-.42-1.64-2.73-3.44-5.79-6.59-8.84-9.75L38.21,56.76c-2-2.1-4.32-4.33-7.22-4.61a1.13,1.13,0,0,0-.66.07c-.76.39-.38,2.14,0,2.66.79,1.16,2.79,2.19,3.89,3.11Q38,61.2,41.53,64.74Z"/>
              <path class="cls-9" d="M39.16,38c-2.18-.28-4.24,1.14-5.94,2.58a69.73,69.73,0,0,0-5.83,5.57c-1.23,1.32-3.31,3.53-3.14,5.52,0,.06,0,.11,0,.17a5.41,5.41,0,0,0,.76-.48A112.19,112.19,0,0,0,37.77,40.55,3.9,3.9,0,0,0,39.16,38Z"/>
              <path class="cls-10" d="M26.77,48.36A26.3,26.3,0,0,0,35,42.29,4.45,4.45,0,0,0,35.94,41c.18-.43.1-1.1-.37-1.15a.63.63,0,0,0-.27,0,2.71,2.71,0,0,0-1.45,1.24c-.35.55-.6,1.16-.94,1.71A11.17,11.17,0,0,1,29.17,46c-.6.39-1.25.74-1.83,1.16-.23.18-.39.23-.52.5S26.8,48.33,26.77,48.36Z"/>
            </g>
            <path class="cls-11" d="M84,94.37a45.38,45.38,0,0,0-5-6.31,57.9,57.9,0,0,0-6.45-5.45l-6-4.57A126,126,0,0,0,55.7,70.29a100.28,100.28,0,0,0-19.49-8.6c-1.22-.42-2.47-.93-3.73-1.32,5.53,5.3,10.67,11,15.69,16.81C63.81,86.34,79,96.42,92.28,108.75A105.65,105.65,0,0,0,84,94.37Z"/>
            <path class="cls-11" d="M89.79,107.57c-2.23-8.5-7.61-15.92-14.07-21.88s-14-10.57-21.61-15a49.48,49.48,0,0,0-5.67-3,51.11,51.11,0,0,0-5.28-1.77c-2.41-.7-4.81-1.41-7.22-2.13,7.37,7.48,14.11,15.59,20.92,23.6,1.54,1.8,3.24,3.7,5.54,4.25a6.5,6.5,0,0,0,2.91,0,6.53,6.53,0,0,0,.42,2.76A225.38,225.38,0,0,0,89.79,107.57Z"/>
            <g>
              <path class="cls-12" d="M11.21,63.54c8.12,2.63,14,9.46,20.33,15.19a93.83,93.83,0,0,0,29,18C70,100.33,80.24,102.61,88,109.05a13.23,13.23,0,0,0,3.31,2.33,3.57,3.57,0,0,0,3.8-.44c.28-.27.08-1-.17-.69L81.16,92.79a65.77,65.77,0,0,0-6.09-7,53.5,53.5,0,0,0-6.53-5.19c-15-10.46-32.67-18.06-50.95-17.68C15.52,63,13.06,62.62,11.21,63.54Z"/>
              <path class="cls-13" d="M17.59,62.9H16.41c1.88.51,4.46.57,5.55.83A83.85,83.85,0,0,1,42.43,72c3.74,2,7.39,4.2,11,6.44,13.39,8.28,26.9,17.53,35,31a11.16,11.16,0,0,0,2.88,2,3.57,3.57,0,0,0,3.8-.44c.28-.27.08-1-.17-.69L81.16,92.79a65.77,65.77,0,0,0-6.09-7,53.5,53.5,0,0,0-6.53-5.19C53.55,70.12,35.87,62.52,17.59,62.9Z"/>
              <path class="cls-14" d="M82.65,105.07a78.79,78.79,0,0,0-7.59-3.63C60.13,95,44.55,89.18,32.29,78.52c-3.87-3.36-7.35-7.17-11.47-10.21a26.84,26.84,0,0,0-8.54-4.38c7.57,2.86,13.22,9.32,19.26,14.8a93.83,93.83,0,0,0,29,18C70,100.32,80.21,102.6,88,109,87.37,107.4,83.78,105.71,82.65,105.07Z"/>
              <path class="cls-13" d="M17.74,65c.21.08,21.43,7.26,39,18.12,16.48,10.2,25.89,19.41,34.64,28.3a4.46,4.46,0,0,0,2,.3c-9.13-9.29-18.67-18.9-36-29.6C39.67,71.17,17.74,65,17.74,65Z"/>
            </g>
          </g>
          <path class="cls-11" d="M118.55,114.16c-7.41-5.32-14.06-11.62-20.68-17.9l-16-15.19A8.32,8.32,0,0,0,80,79.61,4.65,4.65,0,0,0,80,77c-.49-1.63-2-2.74-3.33-3.77C68,66.63,60.55,58.66,53.07,50.7c-2.6-.6-5.12-.34-3.32,3.12,2,3.88,5.18,7.17,8.16,10.32,7.79,8.25,15.77,16.33,23.75,24.4l62,62.72c8.47,8.57,17,17.16,26.16,25,6.78,5.74,14,11.11,19.45,18.13q.31.41.66.81a14.08,14.08,0,0,0,2.37-4.29,4,4,0,0,0,.16-2.59,4.93,4.93,0,0,0-1.82-2,150.43,150.43,0,0,1-19.13-17.6c-2.36-2.58-5-5.43-8.47-5.76a4,4,0,0,0,.1-1.81,5.48,5.48,0,0,0-2-2.73,438.42,438.42,0,0,1-32.37-31.72,7.67,7.67,0,0,0-2.5-2,4,4,0,0,0-1.59-.3,12.68,12.68,0,0,0,.87-2.63,3,3,0,0,0,0-1.63,3.23,3.23,0,0,0-.86-1.16A53.63,53.63,0,0,0,118.55,114.16Z"/>
          <path class="cls-11" d="M118.55,114.16c-7.41-5.32-14.06-11.62-20.68-17.9l-16-15.19A8.32,8.32,0,0,0,80,79.61,4.65,4.65,0,0,0,80,77c-.49-1.63-2-2.74-3.33-3.77-8.29-6.27-15.46-13.81-22.6-21.39a3.3,3.3,0,0,0-1.65.77c-2.08,2.08.86,4.91,2.23,6.32,9.9,10.17,19.91,20.23,29.92,30.29q29.83,30,60.1,59.52,17.14,16.72,34.44,33.33a84.27,84.27,0,0,1,10.61,11.5c.23.3.45.62.66.93a13.15,13.15,0,0,0,1.86-3.61,4,4,0,0,0,.16-2.59,4.93,4.93,0,0,0-1.82-2,150.43,150.43,0,0,1-19.13-17.6c-2.36-2.58-5-5.43-8.47-5.76a4,4,0,0,0,.1-1.81,5.48,5.48,0,0,0-2-2.73,438.42,438.42,0,0,1-32.37-31.72,7.67,7.67,0,0,0-2.5-2,4,4,0,0,0-1.59-.3,12.68,12.68,0,0,0,.87-2.63,3,3,0,0,0,0-1.63,3.23,3.23,0,0,0-.86-1.16A53.63,53.63,0,0,0,118.55,114.16Z"/>
          <path class="cls-11" d="M110,72.47c-4.67-4.33-10-7.92-14.8-12-6.71-5.71-12.56-12.37-19.44-17.88-2.09-1.67-7.49-6.74-10.32-6.33-1.69.24-2.89,2-3.65,3.87,1.7,1.64,3.41,3.27,5.1,4.93a50.8,50.8,0,0,1,6.52,7.32,27.86,27.86,0,0,0,2.51,3.47,5.4,5.4,0,0,0,3.74,1.85,4.37,4.37,0,0,0,1.47-.25c.74,2.76,3.73,5.69,5.4,7.33,2.87,2.82,6.18,5.14,9.31,7.66a92.13,92.13,0,0,1,16.48,17.23c1.75,2.39,3.57,5,6.36,6a8.21,8.21,0,0,0,2.83.43c.35,2.62,3.32,5.44,5,7a98,98,0,0,0,8.14,6.52,108.08,108.08,0,0,1,19.16,19c1.44,1.85,2.95,3.83,5.13,4.68a6.55,6.55,0,0,0,2.31.42c0,3.07,3.38,5.91,5.46,7.6,5,4.11,10.44,7.8,15.16,12.28a122.05,122.05,0,0,1,8.93,9.81l4.35,5.14a11,11,0,0,0,3.26,2.93,7.17,7.17,0,0,0,6.8-.67,8,8,0,0,0,1-.68l-22.89-21.44c-6.31-5.91-12.63-11.83-18.46-18.23-4.69-5.15-9.06-10.61-14.15-15.38-4.8-4.51-10.2-8.36-14.95-12.93C126.27,93,119.61,81.36,110,72.47Z"/>
          <path class="cls-11" d="M91.2,58.46,71.9,40.76c-2.53-2.33-4.47-5.67-8.19-4.6A9.45,9.45,0,0,0,60,38.3q3.49,3.35,6.95,6.72a50.8,50.8,0,0,1,6.52,7.32,27.86,27.86,0,0,0,2.51,3.47,5.4,5.4,0,0,0,3.74,1.85,4.37,4.37,0,0,0,1.47-.25c.74,2.76,3.73,5.69,5.4,7.33,2.87,2.82,6.18,5.14,9.31,7.66a92.13,92.13,0,0,1,16.48,17.23c1.75,2.39,3.57,5,6.36,6a8.21,8.21,0,0,0,2.83.43c.35,2.62,3.32,5.44,5,7a98,98,0,0,0,8.14,6.52,108.08,108.08,0,0,1,19.16,19c1.44,1.85,2.95,3.83,5.13,4.68a6.55,6.55,0,0,0,2.31.42c0,3.07,3.38,5.91,5.46,7.6,5,4.11,10.44,7.8,15.16,12.28a122.05,122.05,0,0,1,8.93,9.81l4.35,5.14a11,11,0,0,0,3.26,2.93,6.69,6.69,0,0,0,5.25.09,15.19,15.19,0,0,0-1.16-1.25l-49.74-49.5c-3.71-3.7-7.42-7.39-11.28-10.93-4.46-4.09-9.12-8-13.31-12.33-4.85-5-9-10.65-13.62-15.92C107.37,73.29,99.28,65.87,91.2,58.46Z"/>
          <g>
            <g>
              <path class="cls-5" d="M170.69,172.22a5.45,5.45,0,0,0,2.12,2.6A189.61,189.61,0,0,1,195,196c2,2.17,4.11,4.54,7,4.93a9.09,9.09,0,0,0,5.42-1.3,18.4,18.4,0,0,0,8.77-10.83,3.72,3.72,0,0,0,.08-2.46,4.14,4.14,0,0,0-1.17-1.4c-8.44-7.42-16.79-15-23.94-23.69a9.69,9.69,0,0,0-3.39-3c-2.23-1-4.81,0-6.91,1.18a23.92,23.92,0,0,0-7,6.3C172.61,167.33,170.1,170,170.69,172.22Z"/>
              <path class="cls-9" d="M186.75,158.07c0-.06,0-.11,0-.17a9,9,0,0,0-5.87,1.48,23.92,23.92,0,0,0-7,6.3c-1.23,1.65-3.74,4.33-3.15,6.54a3,3,0,0,0,.35.79,5.25,5.25,0,0,0,1.79-.12,14.17,14.17,0,0,0,6.18-3.63,36,36,0,0,0,6.33-7.54A7.51,7.51,0,0,0,186.75,158.07Z"/>
              <path class="cls-9" d="M214.4,187.84a11.66,11.66,0,0,1-1.78,4.8,16.41,16.41,0,0,1-6.87,6.57,11.25,11.25,0,0,1-4.48,1.11,6.31,6.31,0,0,1-1.45-.13,6.63,6.63,0,0,0,2.19.71,9.09,9.09,0,0,0,5.42-1.3,18.4,18.4,0,0,0,8.77-10.83,3.72,3.72,0,0,0,.08-2.46,4.14,4.14,0,0,0-1.17-1.4l-.85-.75.06.66A16.05,16.05,0,0,1,214.4,187.84Z"/>
              <path class="cls-6" d="M212.68,195.28a18.49,18.49,0,0,0,3.52-6.51,3.72,3.72,0,0,0,.08-2.46,4.14,4.14,0,0,0-1.17-1.4c-8.44-7.42-16.79-15-23.94-23.69a9.69,9.69,0,0,0-3.39-3c-2.14-.92-4.61-.11-6.66,1,.23.18.45.36.66.55,3.38,3,4.65,7.75,7.23,11.49,2.79,4.05,7,6.83,10.8,9.95a68.22,68.22,0,0,1,10,10.07C210.79,192.59,211.75,193.92,212.68,195.28Z"/>
              <path class="cls-6" d="M216.2,188.77a3.72,3.72,0,0,0,.08-2.46,4.14,4.14,0,0,0-1.17-1.4c-8.44-7.42-16.79-15-23.94-23.69a9.69,9.69,0,0,0-3.39-3A5.73,5.73,0,0,0,184,158c4.72,2.56,7.36,7.67,10.83,11.77a89.77,89.77,0,0,0,8.13,7.83,124.76,124.76,0,0,1,12.46,13.14A19.3,19.3,0,0,0,216.2,188.77Z"/>
              <path class="cls-7" d="M202,200.9a6.77,6.77,0,0,0,1.35,0c-.68-.35-1.33-.67-1.55-.81a34.19,34.19,0,0,1-4.06-3,75.52,75.52,0,0,1-6-6.25,128.65,128.65,0,0,0-19-17.07,11,11,0,0,0-1.91-1.18,6.29,6.29,0,0,0,2,2.22A189.61,189.61,0,0,1,195,196C197,198.14,199.12,200.51,202,200.9Z"/>
              <path class="cls-8" d="M185.42,181.94a74.92,74.92,0,0,1,7.74,7.69c2.47,2.85,4.88,6,8.35,7.51a4.08,4.08,0,0,0,1.81.4,1.78,1.78,0,0,0,1.53-.92,2.54,2.54,0,0,0-.57-2.46c-1.59-2.25-3.85-3.92-6-5.67-4.69-3.86-8.86-8.31-13.46-12.28a14.47,14.47,0,0,0-3.63-2.49,3.09,3.09,0,0,0-2-.26c-2.57.78,0,3,.9,3.88C181.77,179,183.63,180.42,185.42,181.94Z"/>
              <path class="cls-10" d="M185.48,157.83a10.36,10.36,0,0,0-4.61,1.55,23.92,23.92,0,0,0-7,6.3c-1,1.36-2.89,3.43-3.18,5.36a7.14,7.14,0,0,0,3.07.07,9.59,9.59,0,0,0,2.89-1.37,24.91,24.91,0,0,0,7.73-8.06,7.8,7.8,0,0,0,1.14-2.79A4.18,4.18,0,0,0,185.48,157.83Z"/>
            </g>
            <g>
              <path class="cls-5" d="M134.75,136.23a7.41,7.41,0,0,0,2.09,3.23c8.25,8.74,18.22,15.82,25.69,25.21,1.92,2.41,3.95,5.15,7,5.73,2.47.47,5-.68,7.06-2.05a23.52,23.52,0,0,0,8.85-9.93,6.67,6.67,0,0,0,.65-2.25c.17-2.63-2.11-4.7-4.17-6.34a225.05,225.05,0,0,1-24.74-22.35c-2.35-2.53-5.14-5.37-8.58-5.11-2.36.19-4.32,1.82-6.1,3.37C139.55,128.3,133.64,131.53,134.75,136.23Z"/>
              <path class="cls-9" d="M148.58,122.37c-2.36.19-4.32,1.82-6.1,3.37-2.93,2.56-8.84,5.79-7.73,10.49a4.12,4.12,0,0,0,.24.67,5.51,5.51,0,0,0,2.57-.3,27.25,27.25,0,0,0,10.66-6.48,13.6,13.6,0,0,0,3.45-5,8,8,0,0,0,.43-2A6.5,6.5,0,0,0,148.58,122.37Z"/>
              <path class="cls-9" d="M184.27,157.46a16.3,16.3,0,0,1-4.06,6,19,19,0,0,1-7.77,4.81,14,14,0,0,1-4.13.59c-.41,0-1.55-.3-2.46-.43a7.67,7.67,0,0,0,3.66,2c2.47.47,5-.68,7.06-2.05a23.52,23.52,0,0,0,8.85-9.93,6.67,6.67,0,0,0,.65-2.25,5.21,5.21,0,0,0-1.25-3.55A10.51,10.51,0,0,1,184.27,157.46Z"/>
              <path class="cls-6" d="M157.16,127.48c-2.35-2.53-5.14-5.37-8.58-5.11a6.24,6.24,0,0,0-1.67.38,4.77,4.77,0,0,0,.25,1c2.52,7.17,8.46,12.52,14.11,17.61,2.1,1.9,4.2,3.81,6.25,5.77a113.76,113.76,0,0,1,10.4,11.11q2.13,2.66,4,5.51a20.73,20.73,0,0,0,3.51-5.37,6.67,6.67,0,0,0,.65-2.25c.17-2.63-2.11-4.7-4.17-6.34A225.05,225.05,0,0,1,157.16,127.48Z"/>
              <path class="cls-6" d="M184.76,159.76c.23-.44.46-.88.66-1.34a6.67,6.67,0,0,0,.65-2.25c.17-2.63-2.11-4.7-4.17-6.34a225.05,225.05,0,0,1-24.74-22.35c-2.35-2.53-5.14-5.37-8.58-5.11a6.17,6.17,0,0,0-.62.1,31.42,31.42,0,0,0,5.89,7.44c2.76,2.74,5.65,5.33,8.58,7.88,5.19,4.54,10.5,9,15.34,13.86a77.81,77.81,0,0,1,6.61,7.55A6,6,0,0,1,184.76,159.76Z"/>
              <path class="cls-7" d="M135.27,137.47a11.09,11.09,0,0,0,1.57,2c8.25,8.74,18.22,15.82,25.69,25.21,1.65,2.07,3.39,4.38,5.76,5.35-.54-.44-1.14-.85-1.35-1.05a58.28,58.28,0,0,1-5.92-6.92c-1-1.31-2.05-2.62-3.14-3.87a89.86,89.86,0,0,0-8.18-7.91Z"/>
              <path class="cls-8" d="M159.43,157.71c2.31,2.66,4.59,5.5,7.73,7.1.36.18.89.3,1.09-.05a.71.71,0,0,0,0-.52,7.4,7.4,0,0,0-1.29-2.7c-.94-1.37-2-2.66-3.06-3.93a139.53,139.53,0,0,0-12.57-13.05,51.34,51.34,0,0,0-6.48-5.19c-.55-.36-1.84-1.52-2.57-1-.52.36-.35,1.35-.23,1.84.51,2.24,2.92,3.48,4.55,4.86q3.26,2.78,6.31,5.77Q156.32,154.13,159.43,157.71Z"/>
              <path class="cls-10" d="M148.58,122.37c-2.36.19-4.32,1.82-6.1,3.37-2.74,2.4-8.08,5.38-7.86,9.59a4.89,4.89,0,0,0,3.76-.44,26.34,26.34,0,0,0,10.48-8.54,6.24,6.24,0,0,0,1.36-3,3.38,3.38,0,0,0,0-.84A6.08,6.08,0,0,0,148.58,122.37Z"/>
            </g>
            <g>
              <path class="cls-5" d="M92.81,94.7a17.89,17.89,0,0,0,4.5,5.68c3,2.78,6.15,5.34,9.2,8,8.49,7.5,16,16,23.78,24.26a4.74,4.74,0,0,0,1.63,1.3,4.34,4.34,0,0,0,2.09.14,20,20,0,0,0,15.09-10.18,6.39,6.39,0,0,0,1-4.2c-.34-1.62-1.68-2.82-2.94-3.9q-11.43-9.78-22.3-20.16a65,65,0,0,1-9.32-10.37c-1.74-2.57-3.45-5.63-6.47-6.39-2.54-.64-5.15.62-7.33,2.07a70.81,70.81,0,0,0-7.83,6.64C91.77,89.53,91.66,92.08,92.81,94.7Z"/>
              <path class="cls-9" d="M108.63,78.85c-2.41-.41-4.86.77-6.92,2.14a70.81,70.81,0,0,0-7.83,6.64,5.41,5.41,0,0,0-1.48,5.94,5.36,5.36,0,0,0,2.32-.38,26.37,26.37,0,0,0,11.93-8.65C107.92,82.9,109,80.85,108.63,78.85Z"/>
              <path class="cls-9" d="M148,121.81a11.75,11.75,0,0,1-1.56,2.84,22.18,22.18,0,0,1-11,8,9.77,9.77,0,0,1-4.69.44,3.6,3.6,0,0,0,1.18.84,4.34,4.34,0,0,0,2.09.14,20,20,0,0,0,15.09-10.18,6.39,6.39,0,0,0,1-4.2,5.53,5.53,0,0,0-1.59-2.67A11.83,11.83,0,0,1,148,121.81Z"/>
              <path class="cls-6" d="M147.4,126.53a19.26,19.26,0,0,0,1.7-2.59,6.39,6.39,0,0,0,1-4.2c-.34-1.62-1.68-2.82-2.94-3.9q-11.43-9.78-22.3-20.16a65,65,0,0,1-9.32-10.37c-1.74-2.57-3.45-5.63-6.47-6.39a6.81,6.81,0,0,0-4,.34c-.57,2,.47,4.11,1.59,5.89a68.93,68.93,0,0,0,4.58,6.44c8.71,10.89,20.46,18.89,30.51,28.56,1.36,1.31,2.7,2.65,3.94,4.07C146.27,125,146.83,125.75,147.4,126.53Z"/>
              <path class="cls-6" d="M124.83,95.68a65,65,0,0,1-9.32-10.37c-1.74-2.57-3.45-5.63-6.47-6.39a5.57,5.57,0,0,0-1.67-.15c0,.1,0,.2,0,.3a20.93,20.93,0,0,0,3.44,6.45,103.1,103.1,0,0,0,7.77,10,85.31,85.31,0,0,0,8.33,7.91c5.22,4.43,10.75,8.48,15.87,13a77.52,77.52,0,0,1,6.69,6.63,5.47,5.47,0,0,0,.55-3.33c-.34-1.62-1.68-2.82-2.94-3.9Q135.7,106.06,124.83,95.68Z"/>
              <path class="cls-7" d="M122.63,123.36l-9.53-10c-1.43-1.5-2.86-3-4.39-4.4-5.08-4.66-11.24-8.32-15.56-13.6a19.61,19.61,0,0,0,4.16,5c3,2.78,6.15,5.34,9.2,8,8.49,7.5,16,16,23.78,24.26a4.74,4.74,0,0,0,1.63,1.3l.18.05c-.17-.13-.34-.26-.46-.37a61.15,61.15,0,0,1-4.4-5.23C125.79,126.67,124.21,125,122.63,123.36Z"/>
              <path class="cls-8" d="M98,97.13c4.4,4.43,9.42,8.2,14,12.47,4.82,4.52,9.11,9.6,14.22,13.79a12,12,0,0,0,4.1,2.46.86.86,0,0,0,.72,0,.78.78,0,0,0,.27-.5,4.45,4.45,0,0,0-1.16-3.25,114.76,114.76,0,0,0-11.34-12.91c-4.82-5-9.68-9.93-15.33-13.92a8,8,0,0,0-3.61-1.67A3.1,3.1,0,0,0,96.9,94.8C96.44,95.71,97.38,96.51,98,97.13Z"/>
              <path class="cls-10" d="M107.75,79.13c0-.12,0-.24.06-.36a11,11,0,0,0-6.1,2.22,70.81,70.81,0,0,0-7.83,6.64,5.19,5.19,0,0,0-1.79,4.24,10.64,10.64,0,0,0,7.41-2.41A35.16,35.16,0,0,0,105,83.67,11.78,11.78,0,0,0,107.75,79.13Z"/>
            </g>
            <g>
              <path class="cls-5" d="M50.16,54.06C53.73,58,58,61.16,62,64.72,70.05,72,76.62,80.9,84.54,88.4A9.22,9.22,0,0,0,88.64,91,7.84,7.84,0,0,0,92,90.9a21.63,21.63,0,0,0,13.8-9.8,8,8,0,0,0,1.32-3.57c.2-3.18-2.6-5.65-5.11-7.63a252.78,252.78,0,0,1-32.6-30.83c-1.42-1.61-3.14-3.38-5.28-3.29a6.9,6.9,0,0,0-4,2,71.09,71.09,0,0,0-8.67,8.68c-.81,1-2.68,2.54-3.08,3.71C48,51.56,49.3,53.12,50.16,54.06Z"/>
              <path class="cls-9" d="M103.49,80.67c-1.85,3.65-5.35,6.25-9.11,7.84A17.88,17.88,0,0,1,86.9,90h-.43a6.33,6.33,0,0,0,2.17,1A8,8,0,0,0,92,90.9a21.63,21.63,0,0,0,13.8-9.8,8,8,0,0,0,1.32-3.57c.14-2.31-1.29-4.23-3-5.87A11.42,11.42,0,0,1,103.49,80.67Z"/>
              <path class="cls-6" d="M69.42,39.07c-1.42-1.61-3.13-3.38-5.28-3.29a5.91,5.91,0,0,0-3.29,1.47c0,.2.1.39.16.58,1.54,4.87,5.21,8.74,8.88,12.29C76,56,82.41,61.55,88.29,67.64a93.67,93.67,0,0,1,9.39,11.19,62.78,62.78,0,0,1,3.91,6.29l.34.64a21.19,21.19,0,0,0,3.88-4.66,8,8,0,0,0,1.32-3.57c.2-3.18-2.6-5.65-5.11-7.63A252.78,252.78,0,0,1,69.42,39.07Z"/>
              <path class="cls-6" d="M106.11,80.56a7.18,7.18,0,0,0,1-3c.2-3.18-2.6-5.65-5.11-7.63a252.78,252.78,0,0,1-32.6-30.83c-1.42-1.61-3.13-3.38-5.28-3.29a4.22,4.22,0,0,0-1.32.29l0,0C72.94,51.93,90.07,61.75,102.5,75.79A43.94,43.94,0,0,1,106.11,80.56Z"/>
              <path class="cls-7" d="M66.11,67.5c-1.3-1.42-2.61-2.84-4-4.16-2.84-2.62-6.07-4.77-9-7.29-1.6-1.38-3.1-2.86-4.57-4.38a8,8,0,0,0,1.64,2.39C53.73,58,58,61.16,62,64.72,70.05,72,76.62,80.9,84.54,88.4A9.22,9.22,0,0,0,88.64,91a5.53,5.53,0,0,0,.9.11,4.92,4.92,0,0,1-.64-.38c-.83-.58-1.63-1.2-2.41-1.85a89.25,89.25,0,0,1-8.38-8.35Z"/>
              <path class="cls-9" d="M64.14,35.78a6.9,6.9,0,0,0-4,2,71.09,71.09,0,0,0-8.67,8.68c-.81,1-2.68,2.54-3.08,3.71a1.71,1.71,0,0,0-.09.55l.29,0a3.71,3.71,0,0,0,2.06-.67c2.87-1.69,5.07-4.29,7.22-6.84l6.3-7.48Z"/>
              <path class="cls-8" d="M74.3,72.31c3.73,4.2,7.23,8.92,12.29,11.36a4,4,0,0,0,2.34.51,13.26,13.26,0,0,0-2.85-4.63c-1.74-2-3.57-4-5.4-6l-7-7.58C71.5,63.64,69.33,61.3,67,59.11a26.64,26.64,0,0,0-7.44-5.31c-1.94-.84-3.89.55-2.44,2.56A8.16,8.16,0,0,0,59,57.72C60,58.55,61,59.5,62,60.39A139.47,139.47,0,0,1,74.3,72.31Z"/>
              <path class="cls-10" d="M57.11,43.51c1-1.07,2.78-3,2.93-4.45a12,12,0,0,0-3.17,2.6c-.72.75-1.53,1.41-2.26,2.17s-1.37,1.48-2,2.27c-.41.5-1.48,1.45-1.35,2.15.89.06,2.34-1.44,3-2A26.45,26.45,0,0,0,57.11,43.51Z"/>
            </g>
            <path class="cls-11" d="M174.23,143.53c-4.54-3.83-9-7.81-13.15-12l.59,1.65q1.19,3.28,2.42,6.56a60.69,60.69,0,0,0,3,7,53.66,53.66,0,0,0,7.12,9.85c1,1.16,2,2.31,3.12,3.37a36.47,36.47,0,0,0,4.64,3.78,21.13,21.13,0,0,0,2.58-3.58,108.55,108.55,0,0,1-8.11-12.57C175.69,146.24,175,144.88,174.23,143.53Z"/>
            <path class="cls-11" d="M181.9,149.83c-6.11-4.88-12.09-9.92-17.75-15.3l.84,3c.46,1.65.93,3.3,1.55,4.89a41.25,41.25,0,0,0,3.05,6c3.36,5.63,7.48,11.06,12.63,15a20.92,20.92,0,0,0,3.2-5,10,10,0,0,0,.51-1.42q-1.38-3.21-3-6.31C182.59,150.39,182.24,150.1,181.9,149.83Z"/>
            <g>
              <path class="cls-12" d="M150.68,108.29c4.72,3.44,7.83,8.69,10,14.11s3.56,11.13,5.62,16.6c5.56,14.75,16.42,27.75,30.72,34.36.08-3.74-2.75-6.67-4.77-9.81-3.94-6.12-5.19-13.53-7.93-20.27a75.59,75.59,0,0,0-5.43-10.45,72.65,72.65,0,0,0-11.63-15.33C162.62,113.06,157,109.45,150.68,108.29Z"/>
              <path class="cls-13" d="M197,172.41c-.36-3.29-2.85-6-4.7-8.86-3.94-6.12-5.19-13.53-7.93-20.27a75.59,75.59,0,0,0-5.43-10.45,72.65,72.65,0,0,0-11.63-15.33,42.63,42.63,0,0,0-4.76-3.93c.56.6,1.13,1.19,1.68,1.79a68.28,68.28,0,0,1,9.05,12.87c4.69,8.39,8.15,17.39,12.36,26C186.66,156.39,192.28,167.49,197,172.41Z"/>
              <path class="cls-14" d="M160.7,122.4c2.18,5.42,3.56,11.13,5.62,16.6,4.7,12.46,13.19,23.66,24.33,30.83-.63-.46-1.25-.92-1.83-1.41-2.06-1.73-4-3.57-5.93-5.5a72.63,72.63,0,0,1-9.81-12.43,64,64,0,0,1-4.22-8c-2.56-5.89-4.18-12.14-6.58-18.1s-5.72-11.78-10.87-15.62c-.2-.15-.42-.29-.65-.43l-.08,0C155.4,111.73,158.51,117,160.7,122.4Z"/>
              <path class="cls-13" d="M196.92,171.89c-8-8.11-12.82-18-20-33.79-8.3-18.17-19.35-26.35-19.46-26.43s10.21,9,18.38,26.92c7.35,16.09,12.2,26.15,20.57,34.46l.64.31A8,8,0,0,0,196.92,171.89Z"/>
            </g>
          </g>
        </g>
      </g>
    </g>
  </g>
</svg>
