<svg id="Layer_1" data-name="Layer 1" xmlns="http://www.w3.org/2000/svg" xmlns:xlink="http://www.w3.org/1999/xlink" width="289.02" height="251.4" viewBox="0 0 289.02 251.4">
  <defs>
    <style>
      .cls-1 {
        fill: #050505;
        opacity: 0.5;
      }

      .cls-2 {
        fill: #ffef5f;
        stroke: #fffa4d;
        stroke-linejoin: round;
        stroke-width: 5px;
      }

      .cls-3 {
        fill: #b246af;
      }

      .cls-4 {
        fill: url(#linear-gradient);
      }

      .cls-5 {
        fill: #8e2b00;
      }

      .cls-6 {
        fill: #bc64b5;
      }

      .cls-7 {
        fill: #b750ad;
      }

      .cls-8 {
        fill: #cb88c5;
        stroke: #773e77;
        stroke-miterlimit: 10;
        stroke-width: 2px;
      }

      .cls-9 {
        fill: url(#linear-gradient-2);
      }

      .cls-10 {
        fill: #3788a8;
      }

      .cls-11 {
        fill: url(#linear-gradient-3);
      }

      .cls-12 {
        fill: url(#linear-gradient-4);
      }

      .cls-13 {
        fill: #5e6061;
      }

      .cls-14 {
        fill: #014187;
      }
    </style>
    <linearGradient id="linear-gradient" x1="84.13" y1="45.92" x2="148.4" y2="75.69" gradientUnits="userSpaceOnUse">
      <stop offset="0.08" stop-color="#db6a56"/>
      <stop offset="0.33" stop-color="#de724c"/>
      <stop offset="0.66" stop-color="#bc59a1"/>
      <stop offset="0.88" stop-color="#8a74c3"/>
    </linearGradient>
    <linearGradient id="linear-gradient-2" x1="119.84" y1="195.2" x2="119.84" y2="109.54" gradientUnits="userSpaceOnUse">
      <stop offset="0.13" stop-color="#fff"/>
      <stop offset="0.24" stop-color="#d9f2fa"/>
      <stop offset="0.44" stop-color="#9fddf3"/>
      <stop offset="0.62" stop-color="#70cded"/>
      <stop offset="0.78" stop-color="#4fc1e9"/>
      <stop offset="0.91" stop-color="#3abae6"/>
      <stop offset="1" stop-color="#33b7e5"/>
    </linearGradient>
    <linearGradient id="linear-gradient-3" x1="187.59" y1="87.44" x2="234.29" y2="109.07" xlink:href="#linear-gradient"/>
    <linearGradient id="linear-gradient-4" x1="213.53" y1="195.9" x2="213.53" y2="133.66" xlink:href="#linear-gradient-2"/>
  </defs>
  <g>
    <path class="cls-1" d="M164.59,249.36c-32.69,0-92.93-9.09-129.17-70C-16.3,92.37,34.67,23,36.86,20.09a15.21,15.21,0,0,1,12.12-6,14.82,14.82,0,0,1,4,.54A15.18,15.18,0,0,1,64.07,27.51c.62,5.54,1.06,11.1,1.44,16.57a31.7,31.7,0,0,1,10.93-2.32l1.14,0a26.28,26.28,0,0,1,15.07,4.85A30.33,30.33,0,0,1,102.89,41l1.57-.49a26.8,26.8,0,0,1,3.76-3.19,41.83,41.83,0,0,1,14.42-6,15.08,15.08,0,0,1,4.87-.81h.62a15,15,0,0,1,4.87.81,41.83,41.83,0,0,1,14.42,6,25.08,25.08,0,0,1,3.76,3.2l1.57.48a30.16,30.16,0,0,1,10.16,5.54,29.42,29.42,0,0,1,15.55-4.76c.38,0,.77,0,1.15,0,13.87,0,26,11.29,26,24.16,0,2.07-.07,3.85-.22,5.44a15.79,15.79,0,0,1-.48,6.22,37.86,37.86,0,0,1,8.41-3,15.06,15.06,0,0,1,4.64-.73h.45a15,15,0,0,1,4.63.73,33.82,33.82,0,0,1,11.78,5l.07,0c4.34-5.86,10.73-9,19.06-9.4l1,0c12.7,0,23.43,10.08,23.43,22,0,1.51-.05,2.85-.15,4.07a15.75,15.75,0,0,1-1,7.34,16.22,16.22,0,0,1-1.31,2.6V173a15.19,15.19,0,0,1,7.2,23.77c-14.31,18.28-35.78,32.77-65.66,44.31C207.64,244.92,187.87,249.36,164.59,249.36Z"/>
    <path class="cls-2" d="M158.06,240.3c-32.69,0-92.93-9.09-129.17-70-51.72-87-.75-156.33,1.44-159.24a15.19,15.19,0,0,1,27.21,7.43C58.16,24,58.6,29.55,59,35A31.7,31.7,0,0,1,69.91,32.7q.57,0,1.14,0a26.28,26.28,0,0,1,15.07,4.85,30.13,30.13,0,0,1,10.24-5.59l1.58-.5a25.69,25.69,0,0,1,3.76-3.19,41.71,41.71,0,0,1,14.41-6,15.08,15.08,0,0,1,4.87-.81h.62a15,15,0,0,1,4.87.81,41.83,41.83,0,0,1,14.42,6,25.08,25.08,0,0,1,3.76,3.2l1.57.49a30,30,0,0,1,10.16,5.53,29.42,29.42,0,0,1,15.55-4.76c.38,0,.77,0,1.15,0,13.87,0,26,11.29,26,24.16,0,2.07-.07,3.85-.22,5.44a15.79,15.79,0,0,1-.48,6.22,37.86,37.86,0,0,1,8.41-3,15.06,15.06,0,0,1,4.64-.73h.45a15,15,0,0,1,4.63.73,33.82,33.82,0,0,1,11.78,5l.07,0c4.34-5.86,10.73-9,19.06-9.4l1,0c12.7,0,23.43,10.08,23.43,22,0,1.52-.05,2.85-.15,4.07a15.75,15.75,0,0,1-1,7.34,16.22,16.22,0,0,1-1.31,2.6V164a15.18,15.18,0,0,1,7.21,23.76C262.31,206,240.84,220.51,211,232.05,201.11,235.86,181.34,240.3,158.06,240.3Z"/>
    <g>
      <g>
        <rect class="cls-3" x="89.33" y="78.75" width="62.37" height="8.57"/>
        <path class="cls-4" d="M141.8,43.84c-9.69-2.92-5.67-2.92-10.06-6-3.6-2.56-9.06-3.75-10.89-4.1,0-.07,0-.11,0-.11l-.32.06-.32-.06a.5.5,0,0,1,0,.11c-1.82.35-7.28,1.54-10.89,4.1-4.38,3.11-.36,3.11-10,6S79,64.13,89.43,78.84h62.24C162.09,64.13,151.48,46.76,141.8,43.84Z"/>
        <g>
          <path class="cls-5" d="M94.41,49.84a19.61,19.61,0,0,0-4.72,6A19,19,0,0,0,87.59,63a20.1,20.1,0,0,0,.08,3.8,13.3,13.3,0,0,0,.27,1.88l.43,1.86a12,12,0,0,0,.57,1.82l.64,1.8c.52,1.17,1.08,2.32,1.62,3.48-.61-1.12-1.25-2.24-1.84-3.38l-.72-1.8A13.1,13.1,0,0,1,88,70.68l-.49-1.88a15.45,15.45,0,0,1-.29-1.91A21,21,0,0,1,87.09,63a18.56,18.56,0,0,1,2.26-7.38A17.93,17.93,0,0,1,94.41,49.84Z"/>
          <path class="cls-5" d="M99.14,48.33a22,22,0,0,0-4.29,6.59,21.63,21.63,0,0,0-1.77,7.62c0,.66,0,1.31,0,2,0,.33,0,.66,0,1l.13,1c.1.65.14,1.31.29,2L94,70.33a11.45,11.45,0,0,0,.58,1.89l.67,1.86c.52,1.21,1.12,2.4,1.67,3.6-.62-1.16-1.3-2.31-1.89-3.5l-.75-1.85a12.78,12.78,0,0,1-.65-1.89l-.53-1.94c-.15-.65-.2-1.32-.31-2l-.14-1c0-.33,0-.67,0-1,0-.67-.07-1.34,0-2a21.4,21.4,0,0,1,1.92-7.75A19.69,19.69,0,0,1,99.14,48.33Z"/>
          <path class="cls-5" d="M104.14,48a32.4,32.4,0,0,0-2.59,7.11,41.88,41.88,0,0,0-1.14,7.47,45.47,45.47,0,0,0,.16,7.56,61.43,61.43,0,0,0,1.25,7.48c-.32-1.22-.7-2.44-1-3.68s-.53-2.49-.64-3.76l-.22-1.9-.09-1.91a17.36,17.36,0,0,1,0-1.91c0-.64,0-1.28,0-1.91A39.22,39.22,0,0,1,101.18,55,27.26,27.26,0,0,1,104.14,48Z"/>
          <path class="cls-5" d="M110.21,48c-.19,1.23-.29,2.46-.38,3.7s-.16,2.46-.2,3.7c-.08,2.47-.1,5,0,7.42.12,4.94.58,9.87,1.13,14.8l-.63-3.66c-.16-1.23-.36-2.46-.48-3.7-.28-2.46-.42-5-.52-7.43s0-5,.14-7.45A49.52,49.52,0,0,1,110.21,48Z"/>
          <path class="cls-5" d="M147.41,49.84a17.69,17.69,0,0,1,5.06,5.78A18.56,18.56,0,0,1,154.73,63a21,21,0,0,1-.12,3.89,15.48,15.48,0,0,1-.3,1.91l-.49,1.88a11.92,11.92,0,0,1-.64,1.82l-.71,1.8c-.6,1.14-1.24,2.26-1.85,3.38.54-1.16,1.11-2.31,1.62-3.48l.64-1.8a12,12,0,0,0,.57-1.82l.44-1.86a14.91,14.91,0,0,0,.26-1.88,21,21,0,0,0,.09-3.8,18.84,18.84,0,0,0-2.11-7.24A19.61,19.61,0,0,0,147.41,49.84Z"/>
          <path class="cls-5" d="M142.68,48.33a19.72,19.72,0,0,1,4.65,6.44,21.19,21.19,0,0,1,1.91,7.75c0,.67,0,1.34,0,2,0,.33,0,.67,0,1l-.14,1c-.11.66-.17,1.33-.32,2l-.52,1.94a11.77,11.77,0,0,1-.66,1.89l-.74,1.85c-.6,1.19-1.27,2.34-1.9,3.5.56-1.2,1.16-2.39,1.67-3.6l.67-1.86a11.49,11.49,0,0,0,.59-1.89l.47-1.91c.14-.64.18-1.3.28-2l.13-1c0-.32,0-.65,0-1,0-.66.05-1.31,0-2a22.54,22.54,0,0,0-6.07-14.21Z"/>
          <path class="cls-5" d="M137.68,48a26.57,26.57,0,0,1,3,7,37.73,37.73,0,0,1,1.27,7.54c0,.63,0,1.27.05,1.91a17.36,17.36,0,0,1,0,1.91l-.09,1.91-.21,1.9c-.12,1.27-.43,2.51-.65,3.76s-.66,2.46-1,3.68a59.56,59.56,0,0,0,1.25-7.48,44.42,44.42,0,0,0,.16-7.56,41,41,0,0,0-1.14-7.47A31.4,31.4,0,0,0,137.68,48Z"/>
          <path class="cls-5" d="M131.62,48a52.29,52.29,0,0,1,1,7.38c.16,2.48.17,5,.14,7.45s-.24,5-.53,7.43c-.12,1.24-.31,2.47-.47,3.7l-.64,3.66c.56-4.93,1-9.86,1.14-14.8.08-2.47.06-4.95,0-7.42,0-1.24-.1-2.47-.21-3.7S131.8,49.2,131.62,48Z"/>
          <path class="cls-5" d="M121,47.61c.1,2.49.18,5,.22,7.45l.08,7.45,0,7.45c0,2.49-.08,5-.17,7.46-.1-2.49-.17-5-.21-7.46l-.08-7.44,0-7.45C120.86,52.58,120.92,50.1,121,47.61Z"/>
        </g>
        <rect class="cls-6" x="74.87" y="83.84" width="89.94" height="111.36"/>
        <rect class="cls-7" x="83.95" y="95.08" width="71.78" height="88.87"/>
        <rect class="cls-8" x="88.28" y="100.44" width="63.13" height="95.3"/>
        <rect class="cls-9" x="92.17" y="109.54" width="55.35" height="85.66"/>
        <path class="cls-10" d="M139.57,144.46c-6-4.41-19.55-8.57-20.25-12.22V132a.43.43,0,0,0,0,.11.43.43,0,0,1,0-.11v.22c-.71,3.65-14.28,7.81-20.25,12.22S93.76,158,93.76,158v41.8c-.2-.26,24.79-.78,25.54-.8s25.74.54,25.54.8V158S145.65,149,139.57,144.46Zm-2.77,24.45v28.65c.14-.18-17-.54-17.5-.55s-17.64.37-17.51.55V168.91s-.55-6.16,3.62-9.25,13.39-5.87,13.88-8.37v-.15a.22.22,0,0,0,0,.08s0-.05,0-.08v.15c.49,2.5,9.79,5.35,13.88,8.37S136.8,168.91,136.8,168.91Z"/>
        <path class="cls-10" d="M129,170.6c-2.85-2.19-9.34-4.26-9.68-6.08v-.11s0,0,0,.06,0,0,0-.06v.11c-.34,1.82-6.83,3.89-9.69,6.08s-2.52,6.72-2.52,6.72v20.82c-.1-.13,11.86-.39,12.22-.39s12.31.26,12.22.39V177.32S131.91,172.84,129,170.6Zm-1.32,12.18v14.27c.07-.09-8.13-.27-8.37-.27s-8.44.18-8.38.27V182.78s-.26-3.07,1.73-4.6,6.41-2.93,6.64-4.17v0c.24,1.24,4.69,2.66,6.64,4.17S127.67,182.78,127.67,182.78Z"/>
      </g>
      <g>
        <rect class="cls-3" x="191.36" y="111.29" width="45.32" height="6.22"/>
        <path class="cls-11" d="M229.49,85.92c-7-2.12-4.12-2.12-7.31-4.38a22.23,22.23,0,0,0-7.91-3c0-.06,0-.09,0-.08l-.23,0-.24,0s0,0,0,.08a22.3,22.3,0,0,0-7.91,3c-3.19,2.26-.26,2.26-7.3,4.38s-14.75,14.75-7.18,25.44h45.23C244.23,100.67,236.53,88.05,229.49,85.92Z"/>
        <g>
          <path class="cls-5" d="M195.06,90.29a14.21,14.21,0,0,0-3.49,4.3A13.57,13.57,0,0,0,190,99.87a16.48,16.48,0,0,0,.57,5.5c.21.9.61,1.75.91,2.63s.8,1.67,1.2,2.52c-.43-.83-.89-1.64-1.31-2.48a26.61,26.61,0,0,1-1-2.63,16.54,16.54,0,0,1-.66-5.56A13.56,13.56,0,0,1,195.06,90.29Z"/>
          <path class="cls-5" d="M198.49,89.18A16,16,0,0,0,195.32,94,15.51,15.51,0,0,0,194,99.51c0,.48,0,1,0,1.44a6.75,6.75,0,0,0,.11,1.42c.07.48.1,1,.2,1.43l.35,1.39a9.5,9.5,0,0,0,.44,1.37l.5,1.35c.39.88.83,1.73,1.24,2.61-.45-.86-.93-1.7-1.35-2.56l-.53-1.35a9.59,9.59,0,0,1-.46-1.37l-.37-1.41c-.11-.47-.15-1-.23-1.43a7.82,7.82,0,0,1-.13-1.45c0-.48-.05-1,0-1.45a15.75,15.75,0,0,1,1.39-5.61A14.19,14.19,0,0,1,198.49,89.18Z"/>
          <path class="cls-5" d="M202.12,88.92a23.26,23.26,0,0,0-1.93,5.16,28.52,28.52,0,0,0-.83,5.43,32.7,32.7,0,0,0,.11,5.51,45.76,45.76,0,0,0,1,5.43c-.23-.89-.49-1.78-.69-2.68s-.37-1.81-.44-2.73a31.09,31.09,0,0,1-.2-5.54A29,29,0,0,1,200,94,19.64,19.64,0,0,1,202.12,88.92Z"/>
          <path class="cls-5" d="M206.53,88.92c-.27,1.79-.38,3.58-.48,5.38s-.07,3.6,0,5.39a102,102,0,0,0,.88,10.76l-.44-2.67c-.1-.89-.23-1.78-.31-2.68-.19-1.8-.31-3.6-.38-5.4s0-3.61.1-5.41A37.3,37.3,0,0,1,206.53,88.92Z"/>
          <path class="cls-5" d="M233.56,90.29a13.56,13.56,0,0,1,5.27,9.56,16.54,16.54,0,0,1-.66,5.56,26.61,26.61,0,0,1-1,2.63c-.42.84-.88,1.65-1.31,2.48.4-.85.82-1.68,1.2-2.52s.7-1.73.91-2.63a16.48,16.48,0,0,0,.57-5.5,13.57,13.57,0,0,0-1.53-5.28A14.21,14.21,0,0,0,233.56,90.29Z"/>
          <path class="cls-5" d="M230.13,89.18a14.19,14.19,0,0,1,3.32,4.71,15.75,15.75,0,0,1,1.39,5.61c0,.48,0,1,0,1.45a7.82,7.82,0,0,1-.13,1.45c-.08.48-.12,1-.23,1.43l-.37,1.41a9.59,9.59,0,0,1-.46,1.37L233.1,108c-.42.86-.9,1.7-1.35,2.56.41-.88.85-1.73,1.24-2.61l.5-1.35a9.5,9.5,0,0,0,.44-1.37l.35-1.39c.1-.47.13-1,.2-1.43a6.75,6.75,0,0,0,.11-1.42c0-.48,0-1,0-1.44A15.51,15.51,0,0,0,233.3,94,16,16,0,0,0,230.13,89.18Z"/>
          <path class="cls-5" d="M226.5,88.92A19.3,19.3,0,0,1,228.59,94a29,29,0,0,1,.92,5.47,31.09,31.09,0,0,1-.2,5.54c-.07.92-.29,1.82-.44,2.73s-.46,1.79-.69,2.68a45.76,45.76,0,0,0,1-5.43,31.68,31.68,0,0,0,.11-5.51,28.52,28.52,0,0,0-.83-5.43A23.26,23.26,0,0,0,226.5,88.92Z"/>
          <path class="cls-5" d="M222.09,88.92a37.3,37.3,0,0,1,.64,5.37c.11,1.8.13,3.61.1,5.41s-.19,3.6-.38,5.4c-.08.9-.21,1.79-.31,2.68l-.44,2.67a102,102,0,0,0,.88-10.76c.06-1.79.06-3.59,0-5.39S222.36,90.71,222.09,88.92Z"/>
          <path class="cls-5" d="M214.38,88.67c.12,3.6.1,7.21.15,10.82s0,7.22-.09,10.83c-.12-3.61-.1-7.22-.15-10.83S214.28,92.28,214.38,88.67Z"/>
        </g>
        <rect class="cls-6" x="180.86" y="114.99" width="65.36" height="80.92"/>
        <rect class="cls-7" x="187.46" y="123.16" width="52.16" height="64.58"/>
        <rect class="cls-8" x="190.6" y="127.05" width="45.87" height="69.25"/>
        <rect class="cls-12" x="193.43" y="133.66" width="40.22" height="62.24"/>
        <path class="cls-10" d="M227.86,159c-4.33-3.21-14.2-6.23-14.71-8.88V150s0,.05,0,.08,0-.05,0-.08v.16c-.51,2.65-10.37,5.67-14.71,8.88s-3.83,9.8-3.83,9.8v30.37c-.15-.19,18-.56,18.56-.57s18.7.38,18.56.57V168.84S232.29,162.3,227.86,159Zm-2,17.77v20.81c.1-.13-12.35-.39-12.72-.39s-12.82.26-12.72.39V176.81s-.41-4.48,2.62-6.72,9.74-4.27,10.09-6.09v-.11a.13.13,0,0,0,0,.06.13.13,0,0,1,0-.06V164c.35,1.82,7.11,3.89,10.08,6.09S225.86,176.81,225.86,176.81Z"/>
        <path class="cls-10" d="M220.18,178c-2.07-1.6-6.79-3.1-7-4.43v0s0,0,0,0v.07c-.25,1.33-5,2.83-7,4.43s-1.83,4.88-1.83,4.88V198c-.07-.09,8.62-.28,8.88-.28s9,.19,8.88.28V182.92S222.3,179.66,220.18,178Zm-1,8.85v10.36c.05-.06-5.9-.19-6.08-.19s-6.14.13-6.09.19V186.89a4.17,4.17,0,0,1,1.26-3.35c1.42-1.09,4.65-2.13,4.82-3v0c.17.9,3.4,1.94,4.83,3A4.15,4.15,0,0,1,219.22,186.89Z"/>
      </g>
      <g>
        <path class="cls-13" d="M57.26,61.72S55.14,55,57.18,51.28c2.22-4.11,5.39-5.73,10.95-6s11.21,4.28,11.21,8.9-.43,6.25-1,7.36S57.26,61.72,57.26,61.72Z"/>
        <path class="cls-13" d="M58,63.17s-3.17-2.05.6-4.1a18.5,18.5,0,0,1,9.24-1.89c1.45,0,9,.69,11,3.34s-4.28,2.91-5.56,3S63,65,58,63.17Z"/>
        <path class="cls-13" d="M76.08,188.5H59.15V61.72s0-3.94,8.21-3.94c8.38,0,8.72,3.94,8.72,3.94Z"/>
      </g>
      <g>
        <path class="cls-13" d="M162.32,62.42s-2.22-7-.09-10.88c2.32-4.28,5.62-6,11.42-6.25s11.69,4.46,11.69,9.28-.45,6.52-1,7.68S162.32,62.42,162.32,62.42Z"/>
        <path class="cls-13" d="M163,63.94s-3.3-2.14.63-4.28a19.35,19.35,0,0,1,9.63-2c1.52,0,9.37.71,11.51,3.48s-4.46,3-5.8,3.12S168.3,65.82,163,63.94Z"/>
        <path class="cls-13" d="M182,194.66H164.28V62.42s0-4.1,8.57-4.1c8.74,0,9.1,4.1,9.1,4.1Z"/>
      </g>
      <g>
        <path class="cls-13" d="M243.14,87.77s-1.68-5.29-.06-8.27c1.76-3.26,4.27-4.55,8.68-4.75s8.89,3.39,8.89,7-.34,5-.75,5.84S243.14,87.77,243.14,87.77Z"/>
        <path class="cls-13" d="M243.69,88.93s-2.51-1.63.47-3.26a14.72,14.72,0,0,1,7.33-1.49c1.15,0,7.12.54,8.75,2.64s-3.39,2.31-4.41,2.38S247.69,90.35,243.69,88.93Z"/>
        <path class="cls-13" d="M258.07,188.31H244.64V87.77s0-3.12,6.51-3.12,6.92,3.12,6.92,3.12Z"/>
      </g>
      <path class="cls-14" d="M39,16.65S-10.25,82,38.47,163.88s145.62,66.38,169.18,57.28S254,199.21,268.86,180.3c0,0-102.82,39.55-168.29-13.75C35.79,113.82,44.36,63.76,39,16.65Z"/>
      <path class="cls-13" d="M121.3,31.75V29.44a12.38,12.38,0,0,0,1-4.37A16.35,16.35,0,0,0,121,19.88v0h0v0a16,16,0,0,0-1.33,5.19,12.38,12.38,0,0,0,1,4.37v2.31a3.87,3.87,0,0,0-1.21,2.55h3.15A3.86,3.86,0,0,0,121.3,31.75Z"/>
      <path class="cls-13" d="M214.32,76.38V74.07a12.28,12.28,0,0,0,1-4.37A16.19,16.19,0,0,0,214,64.51v0h0v0a16.26,16.26,0,0,0-1.32,5.19,12.38,12.38,0,0,0,1,4.37v2.31a3.86,3.86,0,0,0-1.22,2.55h3.15A3.86,3.86,0,0,0,214.32,76.38Z"/>
    </g>
  </g>
</svg>
