<svg id="Layer_1" data-name="Layer 1" xmlns="http://www.w3.org/2000/svg" width="237.28" height="83.49" viewBox="0 0 237.28 83.49">
  <defs>
    <style>
      .cls-1 {
        fill: #f5ff6c;
      }
    </style>
  </defs>
  <g>
    <path class="cls-1" d="M41,24.4l.62-.84H81l3,6.07-.62.84H75.23l.09,10.19-.76.93H66c-4.82,0-8.59.4-10.41,1.33-1.41.88-2,1.86-2,2.83s.62,1.47,2,1.47c2.48,0,8.73-2.13,12.54-2.13,3.54,0,5.58,1.86,7.7,5.18,1.73,2.75,2.44,4.87,2.44,7,0,4.48-4.39,9-11.56,10.77l-.05.18c3.19,3,8.42,4,14.53,4l-2.79,8.28h-.62c-6.51,0-11.91-3.37-15.59-11.78a21,21,0,0,1-3.85.31,6.81,6.81,0,0,1-6-3.1,9.08,9.08,0,0,1-2-5c0-1.29.71-3.19,5.19-3.19a10.73,10.73,0,0,1,8,3.36c5.14-1.64,8.69-5.45,8.69-8.15,0-.62-.31-.88-1.24-.88-2,0-8.38,2.34-12.41,2.34-3.59,0-5.67-2.17-8.41-5.27-1.91-2.39-3.28-5-3.28-7.35,0-6.42,5.85-7.31,13.51-7.31H68V30.47H44Z"/>
    <path class="cls-1" d="M79.57,24.4l.62-.84h45.23l3,6.07-.62.84H120.1l.18,39.29-.62.45-7-2,.23-15.77H98.57c0,5.71-.18,6.47-1.64,7.53a3.92,3.92,0,0,1-2.26.8c-1.46,0-3.63-1.2-6.46-3.86-2.48-2.39-3.95-4.78-3.95-7,0-2,1.07-3.9,7-5.18V30.47H82.58ZM98.44,44.87h14.35V30.47H98.44Z"/>
    <path class="cls-1" d="M124,24.4l.62-.84h49.65l3,6.07-.62.84H169l.18,39.29-.62.45-7.05-2,.14-24.85c-7.09,2-9,4.83-10.72,11h-.62l-5.9-4a17.88,17.88,0,0,1,3.28-7.62,7.14,7.14,0,0,0-3.14-.71c-4.34,0-8.06,4-8.06,9.08,0,5.76,4.47,9.35,13.06,12.18l-2.17,7-.57.22c-9-4.7-17.46-14.4-17.46-23.7,0-7.36,4.92-11.52,10.77-11.56,4.07,0,6.55,1.64,10.5,4.65a26.94,26.94,0,0,1,11.07-4V30.47H127Z"/>
    <path class="cls-1" d="M172.86,24.4l.62-.84h7.13c-.44-9-3.41-13.95-9.52-13.95-3.77,0-6.16,2.43-6.16,5.84a8.84,8.84,0,0,0,2.52,5.9l-.66,1-6.69-2.93a12.23,12.23,0,0,1-2.92-7.79c0-5.19,4.16-8.73,10.18-8.73,5.23,0,10.33,2.75,14.89,9a35.45,35.45,0,0,1,5.27,11.65h5.71l3,6.07-.62.84h-7.71l.17,39.29-.62.45-7.13-2.09.18-37.65h-4.65Z"/>
  </g>
</svg>
