<svg id="Layer_1" data-name="Layer 1" xmlns="http://www.w3.org/2000/svg" width="237.28" height="83.49" viewBox="0 0 237.28 83.49">
  <defs>
    <style>
      .cls-1 {
        fill: #f5ff6c;
      }
    </style>
  </defs>
  <g>
    <path class="cls-1" d="M107.81,65l-.62.44-7.09-2,.13-14.75a8.4,8.4,0,0,1-1.5.09,13.08,13.08,0,0,1-6.65-1.86l-.35.13a14.9,14.9,0,0,1,.35,3.24C92.08,56.3,87.17,61,80.39,61c-9,0-16.13-7.67-22.46-20.25l.09-.39,3.23-2.22c5.19,9.35,9,14.71,16.35,14.71C81.41,52.8,86,50,86,45.62c0-2.3-1.33-3.76-4.39-3.76a23.88,23.88,0,0,0-8.23,2.08l-4.48-7,.27-.84a61.87,61.87,0,0,1,9.52-2.57c2.92-1.15,4.47-3,4.47-5.05,0-1.55-.66-3.05-4-3.05-2.83,0-6.24,1.32-10.27,3.76l-4.52-6.82.18-.62a17.55,17.55,0,0,1,10.18-3.72c5.19,0,8.29,2.08,11.52,6.6a13.13,13.13,0,0,1,2.88,8,9.87,9.87,0,0,1-2.3,5.93,14.82,14.82,0,0,1,2,2.13c.75.8,2.61.93,4.47.93a14.22,14.22,0,0,0,7.13-2.08V25.69H93.41l-3-6.07.62-.84h40.89l3,6.07-.62.84h-7.71L126.77,65l-.62.44L119,63.34l.18-37.65H107.63Z"/>
    <path class="cls-1" d="M130.49,19.62l.62-.84h45.22l3,6.07-.62.84H171L171.2,65l-.62.44-7.05-2,.22-15.77H149.49c0,5.72-.18,6.47-1.64,7.53a3.85,3.85,0,0,1-2.26.8c-1.46,0-3.63-1.19-6.46-3.85-2.49-2.39-3.95-4.79-3.95-7.05,0-2,1.07-3.89,7-5.18V25.69H133.5Zm18.87,20.46h14.35V25.69H149.36Z"/>
  </g>
</svg>
