<svg id="Layer_1" data-name="Layer 1" xmlns="http://www.w3.org/2000/svg" xmlns:xlink="http://www.w3.org/1999/xlink" width="2160" height="720" viewBox="0 0 2160 720">
  <defs>
    <style>
      .cls-1 {
        fill: none;
      }

      .cls-2 {
        clip-path: url(#clip-path);
      }

      .cls-3 {
        fill: #356cdb;
      }

      .cls-4 {
        fill: #ededed;
      }

      .cls-5 {
        fill: #9c2eb7;
      }

      .cls-6 {
        fill: #d43af9;
      }

      .cls-7 {
        fill: #e2d100;
      }

      .cls-8 {
        fill: #fff800;
      }

      .cls-9 {
        fill: #e20000;
      }

      .cls-10, .cls-13, .cls-9 {
        opacity: 0.7;
      }

      .cls-10 {
        fill: #e0d500;
      }

      .cls-11 {
        fill: #92c742;
      }

      .cls-12 {
        fill: #f6ff0e;
      }

      .cls-14 {
        fill: #ff9700;
      }

      .cls-15 {
        fill: url(#linear-gradient);
      }

      .cls-16 {
        fill: url(#linear-gradient-2);
      }

      .cls-17 {
        fill: url(#linear-gradient-3);
      }

      .cls-18 {
        fill: #dd005a;
      }

      .cls-19 {
        fill: url(#linear-gradient-4);
      }

      .cls-20 {
        fill: url(#linear-gradient-5);
      }

      .cls-21 {
        fill: url(#linear-gradient-6);
      }

      .cls-22 {
        fill: url(#linear-gradient-7);
      }

      .cls-23 {
        fill: url(#linear-gradient-8);
      }

      .cls-24 {
        fill: url(#linear-gradient-9);
      }
    </style>
    <clipPath id="clip-path">
      <rect class="cls-1" width="2160" height="720"/>
    </clipPath>
    <linearGradient id="linear-gradient" x1="121.44" y1="-1156.08" x2="117.38" y2="-1142.2" gradientTransform="translate(103.36 479.44) rotate(90)" gradientUnits="userSpaceOnUse">
      <stop offset="0" stop-color="#47b7d4"/>
      <stop offset="1" stop-color="#47d8e8"/>
    </linearGradient>
    <linearGradient id="linear-gradient-2" x1="-874.17" y1="-203.71" x2="-853.99" y2="-203.71" gradientTransform="matrix(-1, -0.08, -0.08, 1, -185.66, 331.84)" xlink:href="#linear-gradient"/>
    <linearGradient id="linear-gradient-3" x1="1015.01" y1="877.78" x2="1034.07" y2="877.78" gradientTransform="matrix(0.94, -0.35, -0.35, -0.94, 210.9, 1277.91)" gradientUnits="userSpaceOnUse">
      <stop offset="0" stop-color="#fbb040"/>
      <stop offset="0.27" stop-color="#fbb43f"/>
      <stop offset="0.52" stop-color="#fbbf3d"/>
      <stop offset="0.76" stop-color="#fad238"/>
      <stop offset="0.99" stop-color="#f9ec32"/>
      <stop offset="1" stop-color="#f9ed32"/>
    </linearGradient>
    <linearGradient id="linear-gradient-4" x1="233.14" y1="1106.65" x2="251.59" y2="1106.65" gradientTransform="translate(405.02 92.87) rotate(-48.82)" gradientUnits="userSpaceOnUse">
      <stop offset="0" stop-color="#a7c527"/>
      <stop offset="1" stop-color="#bded57"/>
    </linearGradient>
    <linearGradient id="linear-gradient-5" x1="-633.32" y1="164.56" x2="-615.09" y2="164.56" gradientTransform="translate(120.98 495.72) rotate(-155.7)" xlink:href="#linear-gradient-4"/>
    <linearGradient id="linear-gradient-6" x1="-741.51" y1="-676.24" x2="-731.66" y2="-676.24" gradientTransform="translate(67.4 41.79) rotate(139.06)" xlink:href="#linear-gradient-3"/>
    <linearGradient id="linear-gradient-7" x1="-129.12" y1="353.67" x2="-115.54" y2="353.67" gradientTransform="translate(273.57 322.74) rotate(-85.05)" xlink:href="#linear-gradient-3"/>
    <linearGradient id="linear-gradient-8" x1="-630.22" y1="-1300.38" x2="-591.03" y2="-1300.38" gradientTransform="matrix(-0.31, 0.95, -0.95, -0.31, 39.47, 492.17)" xlink:href="#linear-gradient-4"/>
    <linearGradient id="linear-gradient-9" x1="-285.89" y1="1884.98" x2="-265.47" y2="1884.98" gradientTransform="matrix(0.03, 1, 1, -0.03, -486.02, 563.26)" xlink:href="#linear-gradient-4"/>
  </defs>
  <g class="cls-2">
    <g>
      <g>
        <g>
          <polygon class="cls-3" points="958.04 5.79 991.89 109.75 952.44 7.78 958.04 5.79"/>
          <polygon class="cls-3" points="740.09 98.69 838.41 176.44 736.51 103.44 740.09 98.69"/>
          <polygon class="cls-3" points="952.44 709.5 991.89 607.53 958.04 711.49 952.44 709.5"/>
          <polygon class="cls-3" points="1202.93 711.49 1169.09 607.53 1208.53 709.49 1202.93 711.49"/>
          <polygon class="cls-3" points="1424.45 103.44 1322.52 176.44 1420.87 98.69 1424.45 103.44"/>
          <polygon class="cls-3" points="1208.53 7.79 1169.07 109.75 1202.93 5.79 1208.53 7.79"/>
        </g>
        <polygon class="cls-4" points="849.11 692.14 851.21 676.59 836.38 671.47 851.82 668.66 852.11 652.97 859.55 666.79 874.56 662.22 863.72 673.56 872.71 686.43 858.57 679.62 849.11 692.14"/>
        <polygon class="cls-4" points="1367.04 700.01 1354.71 690 1342.47 700.12 1348.18 685.3 1334.77 676.79 1350.63 677.64 1354.59 662.26 1358.68 677.6 1374.52 676.61 1361.2 685.24 1367.04 700.01"/>
        <polygon class="cls-4" points="869.33 212.42 862.43 206.28 855.06 211.84 858.76 203.38 851.2 198.09 860.38 199 863.08 190.16 865.06 199.18 874.29 199.02 866.32 203.69 869.33 212.42"/>
        <path class="cls-4" d="M1591.9,186.92a3.37,3.37,0,1,1-3.37-3.37A3.37,3.37,0,0,1,1591.9,186.92Z"/>
        <path class="cls-4" d="M719.91,675.85a6.18,6.18,0,1,1-6.18-6.17A6.18,6.18,0,0,1,719.91,675.85Z"/>
        <circle class="cls-4" cx="608.84" cy="241.66" r="5.06"/>
        <polygon class="cls-5" points="1549.57 302.15 1538.79 301.44 1535.98 311.87 1533.32 301.4 1522.54 301.94 1531.67 296.18 1527.82 286.1 1536.12 293 1544.52 286.22 1540.52 296.25 1549.57 302.15"/>
        <polygon class="cls-6" points="1090.66 601.71 1080.89 598.09 1075.42 606.96 1075.84 596.54 1065.71 594.08 1075.74 591.26 1074.96 580.88 1080.74 589.55 1090.38 585.59 1083.91 593.76 1090.66 601.71"/>
        <polygon class="cls-5" points="629.24 170.8 616.08 161 603.89 171.97 609.14 156.44 594.94 148.24 611.34 148.43 614.75 132.39 619.64 148.04 635.95 146.33 622.57 155.81 629.24 170.8"/>
        <path class="cls-5" d="M1544.86,511.66a5.06,5.06,0,1,1-5.06-5.06A5.06,5.06,0,0,1,1544.86,511.66Z"/>
        <path class="cls-5" d="M1606.46,396.14a6.18,6.18,0,1,1-6.18-6.18A6.18,6.18,0,0,1,1606.46,396.14Z"/>
        <path class="cls-5" d="M868.43,31.79a3.93,3.93,0,1,0,3.93-3.93A3.93,3.93,0,0,0,868.43,31.79Z"/>
        <g>
          <polygon class="cls-3" points="1658.9 797.49 1492.91 666.23 1664.94 789.47 1658.9 797.49"/>
          <polygon class="cls-3" points="1872.36 522.72 1642.44 471.21 1874.34 512.88 1872.36 522.72"/>
          <polygon class="cls-3" points="1874.35 204.4 1642.43 246.05 1872.36 194.56 1874.35 204.4"/>
          <polygon class="cls-3" points="1664.93 -72.19 1492.86 51.03 1658.89 -80.21 1664.93 -72.19"/>
          <polygon class="cls-3" points="509.57 -80.21 675.57 51.05 503.53 -72.19 509.57 -80.21"/>
          <polygon class="cls-3" points="296.1 194.57 526.02 246.07 294.11 204.41 296.1 194.57"/>
          <polygon class="cls-3" points="294.12 512.89 526.04 471.24 296.11 522.73 294.12 512.89"/>
          <polygon class="cls-3" points="503.55 789.47 675.62 666.24 509.59 797.49 503.55 789.47"/>
        </g>
        <polygon class="cls-4" points="592.88 368.41 580.04 376.24 585.19 390.38 573.77 380.58 561.92 389.85 567.71 375.96 555.23 367.55 570.23 368.77 574.37 354.3 577.85 368.94 592.88 368.41"/>
        <polygon class="cls-4" points="1668.12 348.16 1688.73 347.23 1691.88 326.84 1699.13 346.16 1719.5 342.85 1703.37 355.72 1712.81 374.06 1695.59 362.7 1681.05 377.35 1686.54 357.46 1668.12 348.16"/>
        <polygon class="cls-4" points="1440.71 605.5 1452.36 615.85 1464.81 606.47 1458.56 620.75 1471.33 629.69 1455.82 628.16 1451.26 643.07 1447.92 627.84 1432.34 628.12 1445.79 620.24 1440.71 605.5"/>
        <path class="cls-4" d="M1082.23,641.53a9.49,9.49,0,1,1,9.49,9.49A9.49,9.49,0,0,1,1082.23,641.53Z"/>
        <path class="cls-4" d="M579.61,546.7a5.69,5.69,0,1,1,5.69,5.69A5.69,5.69,0,0,1,579.61,546.7Z"/>
        <path class="cls-4" d="M353.9,26.06a4.74,4.74,0,1,1,4.74,4.74A4.75,4.75,0,0,1,353.9,26.06Z"/>
        <g>
          <polygon class="cls-7" points="1688 731.23 1725.53 726.62 1728.39 688.91 1744.38 723.18 1781.12 714.25 1753.47 740.04 1773.31 772.22 1740.24 753.9 1715.77 782.72 1722.97 745.6 1688 731.23"/>
          <polygon class="cls-7" points="477.19 616.88 495.38 618.07 500.13 600.47 504.61 618.14 522.82 617.22 507.4 626.95 513.9 643.98 499.89 632.32 485.7 643.77 492.46 626.84 477.19 616.88"/>
          <polygon class="cls-7" points="511.33 55.45 492.24 67.9 500.69 89.06 482.95 74.76 465.43 89.33 473.56 68.04 454.29 55.89 477.04 57.04 482.65 34.95 488.59 56.95 511.33 55.45"/>
          <polygon class="cls-7" points="1672.11 21.31 1680.37 41.5 1701.79 37.36 1685.14 51.46 1695.69 70.55 1677.14 59.08 1662.25 75.01 1667.42 53.82 1647.67 44.58 1669.42 42.96 1672.11 21.31"/>
          <path class="cls-7" d="M1827.64,382.63a4.74,4.74,0,1,1,4.74,4.75A4.74,4.74,0,0,1,1827.64,382.63Z"/>
          <path class="cls-7" d="M1581.07,70.63a7.59,7.59,0,1,1,7.58,7.58A7.58,7.58,0,0,1,1581.07,70.63Z"/>
          <path class="cls-7" d="M1340.18,13.73a7.59,7.59,0,1,1,7.59,7.58A7.59,7.59,0,0,1,1340.18,13.73Z"/>
          <path class="cls-7" d="M752.21,2.35a11.38,11.38,0,1,1,11.38,11.38A11.37,11.37,0,0,1,752.21,2.35Z"/>
          <path class="cls-7" d="M496.15,299.18a4.75,4.75,0,1,1,4.74,4.74A4.74,4.74,0,0,1,496.15,299.18Z"/>
          <path class="cls-7" d="M289.41,457.55a7.59,7.59,0,1,1,7.59,7.59A7.58,7.58,0,0,1,289.41,457.55Z"/>
          <path class="cls-7" d="M702.89,729.73a10.44,10.44,0,1,1,10.44,10.43A10.43,10.43,0,0,1,702.89,729.73Z"/>
        </g>
      </g>
      <g>
        <g>
          <path class="cls-8" d="M731.66,502.48a15.79,15.79,0,0,1-1.73-4h0a16,16,0,0,1-.43-2.46c.08.83.14,1.66.23,2.46a16.42,16.42,0,0,0,.43,2.49h0a15.48,15.48,0,0,0,1.72,4,9.75,9.75,0,0,0,7.38,5l-.24-2.47A9.75,9.75,0,0,1,731.66,502.48Z"/>
          <path class="cls-8" d="M739.86,493.23a13,13,0,0,1-8.67,5.09c-.38.07-.77.12-1.16.16v0c-3.57.34-6.79-.62-8.8-2.64a18.9,18.9,0,0,1-5.1-11.85l.24,2.47c.42,4.38,1.89,8.7,5.08,11.87,2,2,5.23,2.95,8.79,2.63h0c.39-.05.79-.09,1.18-.16a13.11,13.11,0,0,0,8.67-5.09,6.09,6.09,0,0,0,1.2-3.83c-.08-.81-.14-1.64-.22-2.46A6.09,6.09,0,0,1,739.86,493.23Z"/>
          <path class="cls-8" d="M729.73,498.44c-.09-.8-.15-1.63-.23-2.46a11.69,11.69,0,0,1,.75-5.69,7,7,0,0,1,5.17-4.41,5.35,5.35,0,0,1,.7-.07,4.82,4.82,0,0,1,4.49,2.12,3.84,3.84,0,0,1,.47,1.48h0c0,.41.08.82.11,1.23s.08.83.11,1.23a3.58,3.58,0,0,0-.47-1.47,4.79,4.79,0,0,0-4.47-2.12c-.25,0-.48,0-.72.07a7,7,0,0,0-5.17,4.42A11.84,11.84,0,0,0,729.73,498.44Z"/>
          <path class="cls-8" d="M745.05,464.79a10.73,10.73,0,0,0-3.07-3.65h0a13.82,13.82,0,0,0-10.61-2.52c-.4.07-.79.15-1.19.26a16.57,16.57,0,0,0-8.89,5.92,24.89,24.89,0,0,0-4.55,9.93c-.1.46-.19.92-.28,1.38v0a30.35,30.35,0,0,0-.33,7.82l.24,2.47a30.27,30.27,0,0,1,.33-7.87v0c.09-.45.18-.88.28-1.32a24.77,24.77,0,0,1,4.54-9.95,16.62,16.62,0,0,1,8.88-5.91,10,10,0,0,1,1.21-.25,13.8,13.8,0,0,1,10.59,2.49,10.76,10.76,0,0,1,3.09,3.67,10.64,10.64,0,0,1,1.13,3.93c-.08-.82-.15-1.64-.23-2.47A10.7,10.7,0,0,0,745.05,464.79Z"/>
          <path class="cls-8" d="M746.19,468.72a9.4,9.4,0,0,1,0,1.06h0a9.62,9.62,0,0,1-3.26,6.85,21.74,21.74,0,0,1-11,5.27,16.89,16.89,0,0,1-3.45.25,16.41,16.41,0,0,1-12-6.1c-.07-.08-.15-.16-.22-.25-4.59-5.48-7.11-13.52-7.77-20.66l.24,2.47c.66,7.14,3.16,15.19,7.77,20.66a1,1,0,0,0,.22.24h0a16.33,16.33,0,0,0,12,6.11,16.8,16.8,0,0,0,3.43-.25,21.72,21.72,0,0,0,11-5.27,9.62,9.62,0,0,0,3.25-6.92v-.06c0-.32,0-.63-.05-.95C746.34,470.37,746.27,469.55,746.19,468.72Z"/>
          <path class="cls-8" d="M708.79,457.62l-.24-2.47a35.85,35.85,0,0,1,.11-8.21A42.7,42.7,0,0,1,713,432.72a66.09,66.09,0,0,1,11.36-15.26A43.92,43.92,0,0,1,732,411.4a29.15,29.15,0,0,1,8.52-3.68l.23,2.47a29.47,29.47,0,0,0-8.53,3.68,44.28,44.28,0,0,0-7.57,6.07,66,66,0,0,0-11.34,15.25,42.37,42.37,0,0,0-4.37,14.24A35.68,35.68,0,0,0,708.79,457.62Z"/>
        </g>
        <path class="cls-9" d="M1261.05,37.77a21.5,21.5,0,0,0,4.1,6.91,18.15,18.15,0,0,0,6.22,4.38,28.66,28.66,0,0,0,6.9,1.88c2.32.34,4.69.42,7,.59s4.56.49,6.81.85a19.94,19.94,0,0,1,5.53,1.7v.12a18.49,18.49,0,0,1-.16,2.95,23.42,23.42,0,0,1-.67,3c-.36,1.36-.8,2.71-1.28,4s-1.07,2.65-1.63,4c-.84,2-1.65,4.07-2.45,6.13a40,40,0,0,0-1.79,6,15.2,15.2,0,0,0,0,6.19,8.8,8.8,0,0,0,2.41,4.36c.17.16.33.33.49.49s.23.23.34.33l.23.38c.13.19.25.39.37.6a6.9,6.9,0,0,0,3.44,2.91,9.51,9.51,0,0,0,5.19.24,26.24,26.24,0,0,0,5.63-1.83l3.28-1.61-.16-4.42-2.39,1c-1.22.48-2.43,1-3.66,1.38a39,39,0,0,1-3.77,1.16,14.4,14.4,0,0,1-6.88.35c-.23,0-.48-.08-.7-.14a4.05,4.05,0,0,1-.47-.12c0-.17,0-.35,0-.53s0-.52-.06-.78a20.19,20.19,0,0,1,1.13-7.46c.41-1.36.93-2.69,1.44-4s1-2.69,1.51-4c.76-1.91,1.55-3.81,2.23-5.75a30,30,0,0,0,1.4-5.6A13,13,0,0,0,1299.4,55v0a4.08,4.08,0,0,0-.28-.67c-.09-.26-.2-.49-.3-.71a10.83,10.83,0,0,0-2.29-3.51,13.52,13.52,0,0,0-3.6-2.65,27.58,27.58,0,0,0-6.56-2.28L1279,43.66c-1.46-.28-2.91-.53-4.38-.77a27.07,27.07,0,0,1-4.53-1.23,24.17,24.17,0,0,1-8.19-4.54c-.3.18-.59.39-.88.59A.18.18,0,0,0,1261.05,37.77Z"/>
        <path class="cls-10" d="M1596.92,583.48a22.06,22.06,0,0,0,3,7.68,18.6,18.6,0,0,0,5.53,5.47,29,29,0,0,0,6.65,3c2.28.76,4.66,1.24,7,1.8s4.51,1.27,6.75,2a19.41,19.41,0,0,1,5.25,2.62v.13a16.6,16.6,0,0,1-.65,2.93,21.46,21.46,0,0,1-1.17,2.88c-.59,1.32-1.27,2.59-2,3.88s-1.53,2.51-2.32,3.75c-1.18,1.91-2.35,3.83-3.49,5.77a38.53,38.53,0,0,0-2.83,5.77,16.35,16.35,0,0,0-1.1,6.22,9.16,9.16,0,0,0,1.72,4.84c.14.17.27.37.41.57s.18.22.29.36l.19.42a3.37,3.37,0,0,0,.25.65,6.88,6.88,0,0,0,2.95,3.55,10.68,10.68,0,0,0,5.21,1.13,27.91,27.91,0,0,0,6-.93l3.57-1.07.61-4.48-2.6.59c-1.32.26-2.6.54-3.92.76s-2.65.42-4,.54a15,15,0,0,1-7-.82l-.68-.25a3.07,3.07,0,0,1-.45-.2,3.52,3.52,0,0,1,0-.56c0-.26,0-.51.06-.79a20.66,20.66,0,0,1,2.39-7.32c.65-1.3,1.41-2.56,2.13-3.8s1.45-2.56,2.19-3.83c1.1-1.8,2.21-3.58,3.23-5.41a32.52,32.52,0,0,0,2.36-5.4,13.36,13.36,0,0,0,.23-8.7v0a6.46,6.46,0,0,0-.18-.76c0-.26-.13-.51-.16-.77a11.82,11.82,0,0,0-1.74-3.91,13.4,13.4,0,0,0-3.2-3.26,28.2,28.2,0,0,0-6.23-3.44l-7.17-2.73c-1.42-.51-2.84-1-4.27-1.49a31.08,31.08,0,0,1-4.39-2,24.91,24.91,0,0,1-7.47-6c-.33.17-.67.31-1,.48Z"/>
        <path class="cls-11" d="M793.05,288c1.54,1.48,1.05,3-1.07,3.28l-10.2,1.52a8.26,8.26,0,0,0-5.57,4.06l-4.55,9.28c-.93,1.92-2.49,1.92-3.43,0l-4.61-9.25a8.3,8.3,0,0,0-5.59-4l-10.22-1.46c-2.13-.31-2.62-1.76-1.08-3.28l7.37-7.23a8.3,8.3,0,0,0,2.11-6.55l-1.77-10.18c-.37-2.11.88-3,2.78-2l9.15,4.78a8.36,8.36,0,0,0,6.89,0l9.14-4.84c1.88-1,3.15-.1,2.79,2l-1.71,10.19a8.26,8.26,0,0,0,2.15,6.54Z"/>
        <path class="cls-12" d="M1444.08,515.25c-1.37,1.79-3,1.5-3.59-.7L1437.55,504a8.8,8.8,0,0,0-5-5.34l-10.38-3.57c-2.14-.73-2.35-2.36-.45-3.61l9.14-6.07a8.85,8.85,0,0,0,3.5-6.4l.21-11c0-2.26,1.52-2.95,3.29-1.56l8.6,6.82a8.88,8.88,0,0,0,7.18,1.37l10.49-3.2c2.18-.67,3.3.53,2.51,2.67l-3.84,10.27a8.81,8.81,0,0,0,.92,7.25l6.3,9c1.3,1.88.51,3.3-1.75,3.22l-11-.47a8.85,8.85,0,0,0-6.61,3.12Z"/>
        <g class="cls-13">
          <path class="cls-14" d="M1485,193.34a13.78,13.78,0,0,0-6.61-2.78,28,28,0,0,0-11.15.17,25.12,25.12,0,0,0-6.89,3.33h0l-.12.09h0a26.92,26.92,0,0,0-4,3.39,19.72,19.72,0,0,0-3.72,5.5,14.29,14.29,0,0,0-.73,2l-1,3.73a17.91,17.91,0,0,1,.73-2,19.9,19.9,0,0,1,3.73-5.48,25.51,25.51,0,0,1,4.08-3.5,25.18,25.18,0,0,1,6.9-3.33,27.62,27.62,0,0,1,11.15-.18,13.78,13.78,0,0,1,6.61,2.77,5.28,5.28,0,0,1,1.67,5.4l-.12.47,1-3.74c0-.15.07-.32.12-.46A5.25,5.25,0,0,0,1485,193.34Z"/>
          <path class="cls-14" d="M1480.21,205a13.71,13.71,0,0,1-4.66-.14,23.62,23.62,0,0,1-5.84-2,18,18,0,0,1-9.46-8.67h0a32.05,32.05,0,0,1-2.36-22.64l-1,3.73a32.06,32.06,0,0,0,2.34,22.62h0a23.31,23.31,0,0,0,1.45,2.41,21.1,21.1,0,0,0,8,6.28,24.06,24.06,0,0,0,5.85,2,13.86,13.86,0,0,0,4.65.12,7.4,7.4,0,0,0,6.28-5.8l1-3.74A7.44,7.44,0,0,1,1480.21,205Z"/>
          <path class="cls-14" d="M1489,158.88a16.62,16.62,0,0,0-6.61-3.27l-.85-.18a18.16,18.16,0,0,0-6.2,0,22.52,22.52,0,0,0-9.24,3.82v0a20.9,20.9,0,0,0-5.6,6.15,25.11,25.11,0,0,0-2.59,6.26c-.35,1.25-.68,2.49-1,3.73a25.6,25.6,0,0,1,2.6-6.25,20.87,20.87,0,0,1,5.66-6.19v0a22.83,22.83,0,0,1,9.18-3.79,18.16,18.16,0,0,1,6.2,0c.28.05.57.11.85.18a16.54,16.54,0,0,1,6.62,3.28c3.06,2.49,4.64,5.32,4.34,7.79a4.81,4.81,0,0,1-.13.66c.33-1.25.67-2.49,1-3.74a5,5,0,0,0,.13-.65C1493.63,164.22,1492.05,161.38,1489,158.88Z"/>
          <path class="cls-14" d="M1488.93,171.55a12.9,12.9,0,0,1-7.73.85,18.31,18.31,0,0,1-3.82-1.19c-5.1-2.26-9.54-7-11.14-11.74v0a36.59,36.59,0,0,1-.5-22.15l-1,3.74a36.53,36.53,0,0,0,.47,22v0c1.58,4.83,6,9.58,11.18,11.85a17.72,17.72,0,0,0,3.82,1.18,12.82,12.82,0,0,0,7.73-.85c2.34-1,3.81-2.48,4.27-4.2.33-1.25.67-2.49,1-3.74C1492.73,169.06,1491.27,170.51,1488.93,171.55Z"/>
          <path class="cls-14" d="M1464.65,141.05l1-3.74c.51-1.88,1.18-3.9,2-6.12a61.89,61.89,0,0,1,11.89-19.68c5.74-6.37,12.37-10.88,19.19-13l-1,3.74c-6.82,2.15-13.45,6.65-19.19,13a61.85,61.85,0,0,0-11.89,19.67C1465.82,137.14,1465.17,139.17,1464.65,141.05Z"/>
        </g>
      </g>
      <g>
        <path class="cls-15" d="M1252.49,606.08a7.23,7.23,0,1,1,7.24-7.24A7.25,7.25,0,0,1,1252.49,606.08Z"/>
        <polygon class="cls-16" points="684.46 209.63 700.98 216.5 701.85 192.93 683.48 183.19 684.46 209.63"/>
        <polygon class="cls-17" points="862.36 83.58 845.46 84.4 854.24 104.89 873.91 105.79 862.36 83.58"/>
        <polygon class="cls-18" points="1035.8 699.47 1028.66 716.08 1011.43 699.58 1017.9 679.57 1035.8 699.47"/>
        <polygon class="cls-19" points="1408.9 640.52 1402.43 655.58 1386.84 640.63 1392.69 622.54 1408.9 640.52"/>
        <polygon class="cls-20" points="755.77 591.54 771.83 593.34 762.2 612.34 743.4 612 755.77 591.54"/>
        <polygon class="cls-21" points="1061.07 68.34 1065.59 60.85 1072.76 69.9 1068.32 79.04 1061.07 68.34"/>
        <polygon class="cls-22" points="622.71 471.07 625.41 482.81 609.65 480.76 605.26 467.44 622.71 471.07"/>
        <path class="cls-23" d="M1481.46,312.92c1.25,1.22.86,2.42-.87,2.67l-8.32,1.22a6.89,6.89,0,0,0-4.53,3.33L1464,327.7c-.77,1.58-2,1.58-2.8,0l-3.75-7.52a6.77,6.77,0,0,0-4.55-3.29l-8.34-1.19c-1.73-.24-2.11-1.45-.87-2.67l6-5.89a6.66,6.66,0,0,0,1.71-5.34l-1.44-8.31c-.3-1.71.73-2.43,2.28-1.64l7.46,3.88a6.7,6.7,0,0,0,5.61,0l7.44-3.93c1.53-.81,2.56-.06,2.28,1.65l-1.41,8.3a6.74,6.74,0,0,0,1.76,5.32Z"/>
        <polygon class="cls-24" points="1399.32 231.24 1404.3 213.85 1380.52 215.73 1372.88 235.34 1399.32 231.24"/>
      </g>
    </g>
  </g>
</svg>
