<svg id="Layer_1" data-name="Layer 1" xmlns="http://www.w3.org/2000/svg" xmlns:xlink="http://www.w3.org/1999/xlink" width="1211.43" height="322.57" viewBox="0 0 1211.43 322.57">
  <defs>
    <style>
      .cls-1 {
        fill: none;
      }

      .cls-2 {
        clip-path: url(#clip-path);
      }

      .cls-3 {
        fill: #894a20;
        stroke: #562e2e;
        stroke-miterlimit: 10;
      }

      .cls-4 {
        fill: #a65f2b;
      }

      .cls-5 {
        fill: #d68650;
      }

      .cls-6 {
        fill: #82b112;
      }

      .cls-7 {
        fill: #a3d618;
      }

      .cls-8 {
        fill: #cff074;
      }

      .cls-9 {
        fill: #354b00;
      }

      .cls-10 {
        fill: #47200f;
      }
    </style>
    <clipPath id="clip-path">
      <rect class="cls-1" x="-948.57" y="-397.43" width="2160" height="720"/>
    </clipPath>
  </defs>
  <g class="cls-2">
    <g>
      <path class="cls-3" d="M523.11,186.85c-29.16-3.49-29.34-5.15-60-16.22-27.35-9.88-58-14.59-91.26-19.94-24.6-4-65.64-6.52-82.21-14.79-18.52-9.23-32.81-9.88-37.75-31.68-1.24,4.23.41,20.11,20,31.7-18.62,4.09-40.77,11.4-63.38,1.81-7.69-3.27-12.07-5.38-16-8.38-10.45-8-13.94-8.57-20.06-11.45-9.27-4.38-23-11.22-30.87-23.47,3.59,10.66,17.36,23.67,35.9,32.42-15.07,0-25.34,3.29-44.74,2.74s-35.35-11.81-35.35-11.81c8.87,7.64,22.53,18.64,55.23,16.42s46.25,12.62,69.61,15.79c-12,6.83-45.7,12.13-63.62,8s-27.68-12.12-55.86-13.32c12.08,2.2,29.47,8,36.52,11.46,10.06,5,24.9,9.07,26.4,11.24-20,7.73-48.62,1.86-87.48,17.75,35.52-11.28,60.25-6.65,75-8.44,16.62-2,29.24-7.56,39.49-10.31s26.11-2.27,51.06-7.72,37.85-2.25,47.68-1.31,56,5.93,100.82,19.21,102.72,40.12,113.54,41.1c-22.76.94-44.8,5.87-61,20.19,18.4-11.58,46.17-12.85,60.91-10.65,18.31,2.74,50.47,5.1,72.61,4.67,29.53-.58,440.93,55.25,647.74,90.69,23.58-53.45-14.56-169.42-14.56-169.42C1124.65,165.55,604.84,196.63,523.11,186.85Z"/>
      <path class="cls-4" d="M565.31,213.16c12.83-3.94,26.65-.61,39.48.38,24.67,3,71.76,5.83,95.44,1.88-16.28-6.25-49.06-3.69-59.92-8.62,15.46-.33,161.43-12.3,247.9-20.82-37.79-4.34-207.57,3.61-207.57,3.61C632,195.51,552,192.12,523.11,186.85s-29.34-5.15-60-16.22c-27.35-9.88-58-14.59-91.26-19.94-24.6-4-65.64-6.52-82.21-14.79-18.52-9.23-32.81-9.88-37.75-31.68-1.23,4.17,2.22,20.43,27.57,31.46a4.84,4.84,0,0,1,1.13.5l-1.13-.5c-3.28-1-8.41.41-8.75.49-18.38,4.13-40.09,11-62.24,1.56-7.69-3.27-12.07-5.38-16-8.38-10.45-8-13.94-8.57-20.06-11.45-9.27-4.38-23-11.22-30.87-23.47,2.63,7.79,12.46,15.58,23.85,23.31,4.19,2.84,26.78,12,12,9.11-15.07,0-25.34,3.29-44.74,2.74s-35.35-11.81-35.35-11.81c6.35,5.47,17.24,12.3,34,14.33,6.64.8,12.85-.05,22.14-.68,18.26-1.24,30.14,3.56,41.5,8,4.49,1.73,14.2,5.11,21.46,7s11.25,2.73,5.74,3.57c-12,6.83-45.7,12.13-63.62,8s-27.68-12.12-55.86-13.32c12.08,2.2,30.4,6.37,37.45,9.87,10.07,5,27,10.62,34.48,9.19-.6.23-10.21,4.09-10.82,4.3-19.92,6.74-48,1.68-85.67,17.09,35.52-11.28,60.32-8.81,75-10.6,16.62-2,27.25-7.27,37.49-10s25.88-6.73,50.82-12.18,41.48-2.93,51.32-2,58.77,5.22,103.61,18.5,105.47,48.51,138.72,42.19c-11.1,7.12-30.75,6.68-31.41,6.71-22.06,1.14-43.3,6.19-59,20.1,18.4-11.58,48.49-16.92,63.23-14.72,18.31,2.73,69.87-6.7,82.89-6C586.52,216.26,570.05,212.64,565.31,213.16Z"/>
      <path class="cls-5" d="M104.79,176.89c23.67-3.13,54.35-2.27,65.28-11.3-2.79,1.11-5.87,2.34-6.21,2.46C148.94,173.1,129.47,171.53,104.79,176.89Z"/>
      <path class="cls-5" d="M158.61,158c-8.14-1.86-14.59-4.53-21.86-7a91.67,91.67,0,0,0,79.79,1.54C201.73,158,174.21,161.59,158.61,158Z"/>
      <path class="cls-5" d="M208.51,137.73c-7.69-3.27-12.07-5.38-16-8.38-9.22-7.07-13-8.33-18-10.52,3.28,2.92,7.39,4.19,10.4,6.68,12.83,10.61,25.41,17.2,42.43,18.56,15.83.93,32.21-3.9,45.22-8.31-1,.19-1.7.39-1.82.41C252.37,140.3,230.66,147.12,208.51,137.73Z"/>
      <path class="cls-5" d="M455.09,230.39c22.29-8.39,30.34-10,51.16-10.78,5.75,0,23.83-1.44,26-6.92-11.31,5.4-27.83,5-28.43,5.07C486.24,218.67,469.24,222.06,455.09,230.39Z"/>
      <path class="cls-5" d="M523.11,186.85c-28.9-5.26-29.34-5.15-60-16.22-27.35-9.88-58-14.59-91.26-19.94-24.6-4-65.64-6.52-82.21-14.79-2.62-1.3-5.15-2.43-7.58-3.48,10.62,6.47,21.54,12.35,33.44,13.75,43.84,5.31,98,15,145.06,27.87,22.85,6.23,40.4,16.45,61.82,19.25,31.57,4.13,60.28,4.08,86.94,3.2,25.81-.84,543.66-18.9,560.34-22.45,68.43-2.47,46.91-21.43,41.73-20.89C1193,155.06,869.11,177,869.11,177,796.11,182.51,552,192.12,523.11,186.85Z"/>
      <path class="cls-6" d="M362.56,307.9c48-.2,91.9-9.18,89.3-74.27C397.65,223.46,374.23,247.73,362.56,307.9Z"/>
      <path class="cls-7" d="M362.56,307.9c48-.2,71.72-34.44,89.3-74.27C397.65,223.46,374.23,247.73,362.56,307.9Z"/>
      <path class="cls-8" d="M371.79,284.32c18.52-34.78,48.1-46.63,62.17-51.17C396.46,234,378.65,256.2,371.79,284.32Z"/>
      <path class="cls-9" d="M362.13,307.66l.86.49c17.3-30.76,52.52-67,89-74l-.18-1C414.82,240.23,380.12,275.68,362.13,307.66Z"/>
      <path class="cls-9" d="M378.6,284.9l0-.69-.66.18c-7,1.89-9-1-9-1l-.41.27.41-.27-.41.27-.42.27c.09.14,2.24,3.32,9.48,1.56,0,2.86.79,14.18,11.34,21.41l.56-.81C377.88,298.13,378.59,285,378.6,284.9Z"/>
      <path class="cls-9" d="M394.09,267.69l.05-.56-.56,0c-.12,0-12.14.5-16.87-3.44l-.63.76c4.48,3.73,14.51,3.74,17,3.69-.77,16.12,24.52,30.63,25.61,31.24l.49-.86C418.9,298.39,392.76,283.4,394.09,267.69Z"/>
      <path class="cls-9" d="M414.36,250.69l0-.45h-.45c-.29,0-16.71-.08-19.71-8l-.92.34c3,7.95,17.41,8.62,20.19,8.67,2.39,20.29,24.67,33.38,24.9,33.52l.49-.86C438.6,283.76,416.43,270.74,414.36,250.69Z"/>
      <path class="cls-9" d="M434.44,239.23l-.05-.28-.28-.1c-2.71-.9-9.71-4-9.53-7.24l-1-.06c-.24,4.33,8.24,7.55,9.93,8.14,2,9.53,15.75,19.05,16.34,19.45l.56-.82C450.28,258.23,436.11,248.45,434.44,239.23Z"/>
      <path class="cls-9" d="M452.34,233.22l-.39-.07a120.83,120.83,0,0,0-22.09-2.26c-19.3,0-34,6.28-44.86,19.19-10.39,12.32-17.67,30.66-22.92,57.73l-.12.59h.6c26.74-.12,56.43-2.7,74-21,11.61-12.14,16.79-29.73,15.83-53.77ZM435.8,286.7c-17.14,17.91-46.27,20.56-72.64,20.71,5.21-26.58,12.39-44.6,22.59-56.69,10.69-12.68,25.12-18.84,44.11-18.84a119.34,119.34,0,0,1,21.52,2.17C452.26,257.6,447.16,274.83,435.8,286.7Z"/>
      <path class="cls-6" d="M6,260.19C53.9,257.29,97.2,245.87,91,181,36.26,173.91,14.24,199.46,6,260.19Z"/>
      <path class="cls-7" d="M6,260.19c27-5.8,45.16-15.31,61.3-27.84C82.3,220.67,90.48,203.88,91,181,36.26,173.91,14.24,199.46,6,260.19Z"/>
      <path class="cls-8" d="M12.6,240.4C28.39,210,41.22,194.85,75.44,182.35,29.73,183.67,17.82,214.56,12.6,240.4Z"/>
      <path class="cls-9" d="M5.5,260l.91.38c.27-.65,27.42-64.94,84.66-78.87l-.23-.95C33.11,194.59,5.77,259.35,5.5,260Z"/>
      <path class="cls-9" d="M23.21,231.07l-.16-.73-.61.44C18,234,11.17,233.31,11.1,233.3l-.1,1c.28,0,6.69.67,11.43-2.3.93,3.27,5.7,17.31,20.34,23.55l.39-.91C27.08,247.77,23.24,231.24,23.21,231.07Z"/>
      <path class="cls-9" d="M36.83,214.48l-.08-.49-.49.08c-10.34,1.7-15-5.09-15.17-5.38l-.83.54c0,.08,5,7.4,15.68,5.89,2.7,14.67,27.62,30.94,28.7,31.64l.53-.83C64.91,245.76,39,228.85,36.83,214.48Z"/>
      <path class="cls-9" d="M55.78,197.63l-.11-.38-.4,0c-13.75,1-18.05-7.05-18.09-7.13l-.88.45c.18.35,4.53,8.55,18.65,7.69,3.67,11.77,16.23,25.85,29.39,28.32l.19-1C71.77,223.24,59.14,209,55.78,197.63Z"/>
      <path class="cls-9" d="M73.52,187.18l-.09-.28-.28-.06a18.62,18.62,0,0,1-10.53-6.46l-.81.57a19.35,19.35,0,0,0,10.86,6.8c1.84,5.2,10.23,12.5,17.64,12.5.36,0,.72,0,1.07-.05l-.1-1C84.08,199.94,75.11,192.23,73.52,187.18Z"/>
      <path class="cls-9" d="M91.41,180.59l-.39,0a129.54,129.54,0,0,0-16.74-1.17c-41.06,0-61,23.39-68.81,80.74l-.08.6.59,0c26.69-1.61,56.19-5.85,72.67-25.12,10.91-12.77,15.1-30.63,12.8-54.57ZM77.89,234.92c-16.1,18.84-45,23.11-71.36,24.74,7.79-56.31,27.45-79.29,67.75-79.29a129.85,129.85,0,0,1,16.22,1.1C92.7,204.94,88.57,222.43,77.89,234.92Z"/>
      <path class="cls-6" d="M22.24,157.51c43.22,32,82.4,24.35,91-11C82.53,114.55,54.13,124.26,22.24,157.51Z"/>
      <path class="cls-7" d="M22.24,157.51c19.8,9.38,74.73,17.77,91-11C82.53,114.55,54.13,124.26,22.24,157.51Z"/>
      <path class="cls-8" d="M34.8,151c20-14.16,44.9-18.53,67.35-11.36C76,121.77,50.34,134.88,34.8,151Z"/>
      <path class="cls-9" d="M42.92,139.42l-1,.11c.31,2.85,3.76,8.17,4.76,9.66-5.76,4.71-8.51,18-8.62,18.57l1,.19c0-.14,2.91-14,8.62-18.25l.39-.29-.27-.39C47.73,149,43.25,142.44,42.92,139.42Z"/>
      <path class="cls-9" d="M65.38,128.38l-.95-.24c-1.87,7.31,2.56,15.3,4.76,18-10.25,9.86-9.77,29.14-9.74,30l1,0c0-.2-.5-20.1,9.78-29.55l.36-.33-.33-.37C67.77,143.15,63.68,135.05,65.38,128.38Z"/>
      <path class="cls-9" d="M88.64,129.31l-1-.26c-.08.32-2,7.67,3.74,16.17C81.14,156,81.84,176.15,81.88,177l1,0c0-.21-.73-20.93,9.55-31.35l.29-.29-.23-.34C86.78,136.75,88.62,129.38,88.64,129.31Z"/>
      <path class="cls-9" d="M75.13,126.46c-16.23,0-33.15,9.76-53.25,30.71l-.39.4.46.34c18,13.29,35.9,20.32,51.87,20.32h0c20.47,0,35-11.51,39.91-31.59l.06-.26-.19-.2C100.85,132.91,88.26,126.46,75.13,126.46Zm-1.31,50.79h0c-15.62,0-33.19-6.85-50.84-19.8,19.73-20.47,36.31-30,52.15-30,12.79,0,25.08,6.29,37.57,19.22C107.87,166.11,93.71,177.25,73.82,177.25Z"/>
      <path class="cls-6" d="M31.21,111.65c26.66,33.51,58.38,35.72,72.28,10.31C86.45,91,62.6,92.64,31.21,111.65Z"/>
      <path class="cls-7" d="M31.21,111.65C57.66,140.58,85,127.42,103.49,122,86.45,91,62.6,92.64,31.21,111.65Z"/>
      <path class="cls-8" d="M50.35,104.48c18.13-1.61,32.68.37,43.17,7.4C82.3,97.32,67.73,98.47,50.35,104.48Z"/>
      <path class="cls-9" d="M31.07,111.17l.27,1c17.38-4.89,45.4-4.77,71.91,10.27l.49-.86C77,106.34,48.65,106.22,31.07,111.17Z"/>
      <path class="cls-9" d="M76.87,98.7l-1-.17a17.4,17.4,0,0,0,3,13.36c-14.42,3.33-19.42,23.22-19.47,23.42l1,.23c0-.2,5.08-20.2,19.48-22.85l.87-.16-.59-.65A16.53,16.53,0,0,1,76.87,98.7Z"/>
      <path class="cls-9" d="M91.71,106l-1,.09c.36,4,2.64,9.38,3.41,11.1C81.48,120.66,81,138.52,81,138.7l1,0c0-.18.46-17.81,12.94-20.67l.59-.14-.26-.55C95.24,117.29,92.11,110.59,91.71,106Z"/>
      <path class="cls-9" d="M55.72,100.16l-1,.24a16.54,16.54,0,0,0,5.69,8.47c-10.71,3.32-17,15.19-17.22,15.71l.88.45c.07-.13,6.71-12.76,17.62-15.49l1.13-.28-1-.62A15.42,15.42,0,0,1,55.72,100.16Z"/>
      <path class="cls-9" d="M69.51,97.44C58.89,97.44,46.28,102,31,111.23l-.48.29.35.44c14,17.59,30.55,27.68,45.41,27.69h0c11.7,0,21.54-6.2,27.7-17.45l.13-.24-.14-.24C94.92,105.38,83.67,97.44,69.51,97.44Zm6.72,41.22c-14.43,0-30.55-9.79-44.29-26.88,15-9,27.24-13.35,37.57-13.35,13.69,0,24.63,7.7,33.42,23.53C97,132.73,87.47,138.66,76.23,138.66Z"/>
      <path class="cls-6" d="M211.07,5.45c-30.3,46.81-11.84,101.3,41.19,103.61C278.43,63,272.68,27.28,211.07,5.45Z"/>
      <path class="cls-7" d="M211.07,5.45c-24.34,44.67-.13,76.58,41.19,103.61C278.43,63,272.68,27.28,211.07,5.45Z"/>
      <path class="cls-8" d="M226.71,14.93c16,9.74,36.89,35.77,32.16,77.21C269.55,53.16,262,31.47,226.71,14.93Z"/>
      <path class="cls-9" d="M210.88,6.35c25.05,32,35,52.26,40.61,102.26l1-.11c-5.68-50.24-15.63-70.6-40.81-102.76Z"/>
      <path class="cls-9" d="M241.19,56.67c-27.35-7.27-44.31,2.4-44.48,2.5l.5.86c.17-.1,17-9.66,44.12-2.3l.4.11.18-.38c.06-.14,6.45-13.88,15.93-22.14l-.64-.74C248.45,42.2,242.3,54.38,241.19,56.67Z"/>
      <path class="cls-9" d="M247.9,81.28c-14.74-4.56-40.59,3.3-41.69,3.64l.29,1c.26-.09,26.93-8.2,41.33-3.58l.23.08.19-.14c.15-.09,14.59-9.81,18.85-24.8l-1-.27C262.26,70.87,249.61,80.08,247.9,81.28Z"/>
      <path class="cls-9" d="M250.88,100.63c-9,2.45-27.35,0-27.53,0l-.13,1a141,141,0,0,0,16.51,1.13,45.94,45.94,0,0,0,11.48-1.15l.11,0c11.25-6.36,14.11-22.23,14.23-22.9l-1-.17C264.55,78.61,261.69,94.47,250.88,100.63Z"/>
      <path class="cls-9" d="M211.23,5l-.37-.14-.21.33c-16,24.77-19.11,53.46-8.05,74.88,9.3,18,26.93,28.51,49.64,29.49h.3l.15-.26c14.31-25.19,18.2-45.68,11.88-62.64C258,29,240.54,15.37,211.23,5ZM252,108.55c-22.19-1-39.41-11.32-48.51-28.94-10.84-21-7.85-49.17,7.8-73.56,28.79,10.26,45.93,23.66,52.38,41C269.83,63.62,266,83.75,252,108.55Z"/>
      <path class="cls-6" d="M81.51,29.13c1.15,42.67,4.7,69.18,64.32,72C149.11,54.24,129.28,30.94,81.51,29.13Z"/>
      <path class="cls-7" d="M81.51,29.13c1.15,42.67,26.65,52.24,64.32,72C149.11,54.24,129.28,30.94,81.51,29.13Z"/>
      <path class="cls-8" d="M99.93,33.18C131.76,49,134.22,63.53,143.6,83.76,139.65,52.67,129.54,41.82,99.93,33.18Z"/>
      <path class="cls-9" d="M110.17,57.7c-8.9-7.8-18.09-15.86-28.27-28.88l-.78.61c10.24,13.09,19.47,21.18,28.39,29,12.32,10.8,23.94,21,35.88,42.88l.87-.47C134.24,78.81,122.54,68.55,110.17,57.7Z"/>
      <path class="cls-9" d="M97.44,46.82c-5.06,4.22-14.58,4-14.67,4l0,1h.49c2.1,0,10.17-.27,14.89-4.25l.08-.08c3-4.14,4.4-9,4.39-15.84h-1C101.62,38.18,100.34,42.87,97.44,46.82Z"/>
      <path class="cls-9" d="M120.1,38.49c1.17,10.49-6.63,21.43-7.22,22.23A44.56,44.56,0,0,1,87,70.43v1h0a45.48,45.48,0,0,0,26.53-10l.08-.09c.36-.47,8.7-11.74,7.44-23Z"/>
      <path class="cls-9" d="M133.91,50.22c0,.14,3.06,14.9-4.32,27.15-7.66,6.91-27.37,12.29-27.57,12.34l.26,1c.82-.23,20.23-5.52,28-12.62l.09-.11c7.64-12.6,4.52-27.78,4.48-27.93Z"/>
      <path class="cls-9" d="M141.31,93.66c-3.54,2.72-17,4.45-17.08,4.47l.12,1c.58-.08,14.07-1.82,17.67-4.77l.09-.07,0-.11c.12-.27,3.07-6.94,3.45-17.53l-1,0A51.65,51.65,0,0,1,141.31,93.66Z"/>
      <path class="cls-9" d="M81.53,28.64l-.53,0v.52c1.17,43.09,4.92,69.65,64.79,72.44l.48,0,0-.48C148,77,143.63,59.54,133,47.63S105.47,29.54,81.53,28.64Zm63.84,71.93C87.07,97.71,83.17,71.74,82,29.64c23.38,1,39.8,7.07,50.19,18.65S146.94,77,145.37,100.57Z"/>
      <path class="cls-6" d="M194.57,115.79c19.5,21,33,32.77,64.3,7.75C239.76,98.48,219.45,95.53,194.57,115.79Z"/>
      <path class="cls-7" d="M194.57,115.79c23.45,17.88,40.16,16.63,64.3,7.75C239.76,98.48,219.45,95.53,194.57,115.79Z"/>
      <path class="cls-8" d="M210.29,109.06c15.29-2.74,26.8,1.59,39.14,7.08C237.16,103.48,221.09,103.19,210.29,109.06Z"/>
      <path class="cls-9" d="M194.47,115.31l.21,1c.33-.07,33.85-7.15,64,7.71l.43-.89C228.65,108.08,194.81,115.23,194.47,115.31Z"/>
      <path class="cls-9" d="M209.39,105.81l-.29.94a7.24,7.24,0,0,1,5.3,6.88c-6.83,2.11-11.06,10.85-11.24,11.23l.89.43c0-.09,4.37-9,11-10.82l.35-.09V114A8.37,8.37,0,0,0,209.39,105.81Z"/>
      <path class="cls-9" d="M223.77,102l-.45.88c6.57,3.33,7.63,10.32,7.78,12-14.77,4.76-14.81,19.85-14.81,20h1c0-.14.05-14.76,14.49-19.16l.36-.11v-.38C232.12,115.12,231.76,106,223.77,102Z"/>
      <path class="cls-9" d="M242.64,108.38c2.4,3.27,1.33,8.29,1.1,9.24-7.68,5.78-5.53,17.65-5.43,18.16l1-.19c0-.12-2.17-11.91,5.18-17.28l.14-.1.05-.16c.07-.26,1.72-6.26-1.21-10.26Z"/>
      <path class="cls-9" d="M225.11,101.94c-9.63,0-19.72,4.4-30.85,13.47l-.41.33.36.39c12,12.89,21.44,22,34.14,22h0c8.9,0,18.69-4.53,30.83-14.24l.38-.3-.29-.38C248.34,108.91,237.16,101.94,225.11,101.94Zm3.24,35.23h0c-12.17,0-21.42-8.82-33.06-21.33,10.78-8.69,20.54-12.91,29.82-12.91,11.62,0,22.44,6.71,33.08,20.52C246.41,132.81,236.92,137.17,228.35,137.17Z"/>
      <path class="cls-10" d="M172.25,164.31c-2,.84-4.13,1.7-6.74,2.61l.33.94c3.52-1.24,6.2-2.38,8.78-3.48,1.52-.65,3-1.27,4.53-1.88a23.26,23.26,0,0,0-4.92,1Z"/>
      <path class="cls-10" d="M271.77,135.44l.25.95c5.62-1.51,9.35.43,14.58,3,6.62,3.2,8.78,2.82,8.78,2.82a73.54,73.54,0,0,1-8.34-3.7C281.85,135.87,277.75,133.82,271.77,135.44Z"/>
      <path class="cls-9" d="M22,157.08l.48.86c17.58-9.76,58.27-14.66,90.71-10.93l.11-1C80.69,142.28,39.73,147.23,22,157.08Z"/>
    </g>
  </g>
</svg>
