<svg id="Layer_1" data-name="Layer 1" xmlns="http://www.w3.org/2000/svg" width="256.51" height="214.47" viewBox="0 0 256.51 214.47">
  <defs>
    <style>
      .cls-1, .cls-2 {
        fill: none;
        stroke-linejoin: round;
        stroke-width: 15px;
      }

      .cls-1 {
        stroke: #000;
        opacity: 0.5;
      }

      .cls-1, .cls-10, .cls-11, .cls-12, .cls-13, .cls-14, .cls-15, .cls-16, .cls-17, .cls-18, .cls-19, .cls-2, .cls-20, .cls-21, .cls-23, .cls-24, .cls-25, .cls-26, .cls-3, .cls-4, .cls-5, .cls-6, .cls-7, .cls-8, .cls-9 {
        fill-rule: evenodd;
      }

      .cls-2 {
        stroke: #fff;
      }

      .cls-3 {
        fill: #239494;
        stroke: #146664;
      }

      .cls-14, .cls-15, .cls-18, .cls-20, .cls-21, .cls-23, .cls-24, .cls-3, .cls-6, .cls-9 {
        stroke-miterlimit: 10;
      }

      .cls-3, .cls-6, .cls-9 {
        stroke-width: 0.75px;
      }

      .cls-4 {
        fill: #208080;
      }

      .cls-5 {
        fill: #366;
      }

      .cls-6 {
        fill: #24abab;
        stroke: #146866;
      }

      .cls-7 {
        fill: #209999;
      }

      .cls-8 {
        fill: #418080;
      }

      .cls-9 {
        fill: #73d1cc;
        stroke: #419e97;
      }

      .cls-10 {
        fill: #9cc;
      }

      .cls-11 {
        fill: #822260;
      }

      .cls-12 {
        fill: #994b99;
      }

      .cls-13 {
        fill: #5abfba;
      }

      .cls-14 {
        fill: #c96ebd;
        stroke: #993a90;
      }

      .cls-14, .cls-15, .cls-18, .cls-20, .cls-21, .cls-23, .cls-24 {
        stroke-width: 0.5px;
      }

      .cls-15, .cls-19 {
        fill: #a33484;
      }

      .cls-15, .cls-18, .cls-21, .cls-24 {
        stroke: #891989;
      }

      .cls-16, .cls-24 {
        fill: #ab388e;
      }

      .cls-17 {
        fill: #a854a8;
      }

      .cls-18 {
        fill: #a83799;
      }

      .cls-20 {
        fill: #a63786;
        stroke: #7a1f64;
      }

      .cls-21 {
        fill: #912f7d;
      }

      .cls-22 {
        fill: #a13092;
      }

      .cls-23 {
        fill: #962c78;
        stroke: #701c5c;
      }

      .cls-25 {
        fill: #b043a1;
      }

      .cls-26 {
        fill: #b54ba7;
      }
    </style>
  </defs>
  <g>
    <path class="cls-1" d="M246,74.79l.29-.13c-2.46-.79-10.58-4.54-21.46-9.75h0l-4.94-2.38h0c-3.42-1.65-7.05-3.41-10.8-5.24h0c-1.64-.79-3.29-1.59-5-2.42h0l-10.87-5.34h0l-12.64-6.23-7.67-3.8a16.14,16.14,0,0,0-.29-10l-.06-.21,0,0a14.29,14.29,0,0,0-2.11-3.67c-5.79-8.37-20.43-14.26-28.59-12.51a12.63,12.63,0,0,0-4.27,1.77c-.18.12-.36.3-.48.39l.06,0-.07.05a11.06,11.06,0,0,0-3.26,4.77c-2.53-1.25-4-2-4-2l-9.74,4.73a21.45,21.45,0,0,0-10.35-8.25.73.73,0,0,0-.2,0h0l-.15,0a3.84,3.84,0,0,0-.65-.11c-1.38-.27-4.77-.86-6-.5-7.15,2.3-15.86,15.8-19,26.39,0,.07,0,.14-.07.2l-5.23,2.55h0L64.32,49.93h0L13.41,74.66,14.18,97l.69.32.55,52.47,44.76,21.34,1.57.75h0l11.49,5.48,1.1.53h0l55.28,26.35h0l.09,0,.13-.06h0l114.42-54.56L244.8,98l.7-.32Zm-92.11-53c1,.15,2,.36,2.9.59.78,1,1.57,2,2.35,3.19,2.26,3.28,3.12,6.09,3,8.62l-15.78-7.85C148.42,23.13,150.84,21.31,153.86,21.77Zm-61,14.31c.11-.41.2-.81.33-1.25.06-.19.12-.35.17-.54,1.7-2.43,3.51-4.88,5.34-7.23,3.83-2.5,7.18-1.57,10.13,1.27Z"/>
    <path class="cls-2" d="M242,70.79l.29-.13c-2.46-.79-10.58-4.54-21.46-9.75h0l-4.94-2.38h0c-3.42-1.65-7.05-3.41-10.8-5.24h0c-1.64-.79-3.29-1.59-5-2.42h0l-10.87-5.34h0l-12.64-6.23-7.67-3.8a16.14,16.14,0,0,0-.29-10l-.06-.21,0,0a14.29,14.29,0,0,0-2.11-3.67C160.65,13.27,146,7.38,137.85,9.13a12.63,12.63,0,0,0-4.27,1.77c-.18.12-.36.3-.48.39l.06,0-.07.05a11.06,11.06,0,0,0-3.26,4.77c-2.53-1.25-4-2-4-2l-9.74,4.73a21.45,21.45,0,0,0-10.35-8.25.73.73,0,0,0-.2,0h0l-.15,0a3.84,3.84,0,0,0-.65-.11c-1.38-.27-4.77-.86-6-.5-7.15,2.3-15.86,15.8-19,26.39,0,.07,0,.14-.07.2l-5.23,2.55h0L60.32,45.93h0L9.41,70.66,10.18,93l.69.32.55,52.47,44.76,21.34,1.57.75h0l11.49,5.48,1.1.53h0l55.28,26.35h0l.09,0,.13-.06h0l114.42-54.56L240.8,94l.7-.32Zm-92.11-53c1,.15,2,.36,2.9.59.78,1,1.57,2,2.35,3.19,2.26,3.28,3.12,6.09,3,8.62l-15.78-7.85C144.42,19.13,146.84,17.31,149.86,17.77Zm-61,14.31c.11-.41.2-.81.33-1.25.06-.19.12-.35.17-.54,1.7-2.43,3.51-4.88,5.34-7.23,3.83-2.5,7.18-1.57,10.13,1.27Z"/>
    <g>
      <polygon class="cls-3" points="10.86 92.33 125.87 140.39 125.86 200.15 125.7 200.22 11.42 145.74 10.86 92.33"/>
      <polygon class="cls-4" points="16.48 94.27 20.44 95.92 20.44 149.63 16.48 147.73 16.48 94.27"/>
      <polygon class="cls-4" points="28.76 99.54 32.73 101.2 32.73 155.62 28.76 153.73 28.76 99.54"/>
      <polygon class="cls-4" points="41.25 104.69 45.2 106.35 45.2 161.51 41.25 159.62 41.25 104.69"/>
      <polygon class="cls-4" points="53.8 110.28 57.75 111.92 57.75 167.83 53.8 165.93 53.8 110.28"/>
      <polygon class="cls-4" points="66.39 115.54 70.34 117.18 70.34 173.83 66.39 171.94 66.39 115.54"/>
      <polygon class="cls-4" points="78.98 120.59 82.93 122.24 82.93 179.63 78.98 177.74 78.98 120.59"/>
      <polygon class="cls-4" points="91.57 125.7 95.52 127.35 95.52 185.49 91.57 183.59 91.57 125.7"/>
      <polygon class="cls-4" points="104.14 130.93 108.11 132.59 108.11 191.46 104.14 189.56 104.14 130.93"/>
      <polygon class="cls-4" points="116.81 136.35 120.78 138.01 120.78 197.61 116.81 195.74 116.81 136.35"/>
      <polygon class="cls-5" points="10.82 86.27 125.87 138.67 125.87 152.27 10.92 97.57 10.82 86.27"/>
      <polygon class="cls-3" points="9.41 70.66 125.87 121.77 125.87 146.99 10.18 92.95 9.41 70.66"/>
      <polygon class="cls-6" points="240.82 92.33 125.81 145.82 125.84 200.17 240.26 145.61 240.82 92.33"/>
      <polygon class="cls-7" points="133.28 141.9 129.32 143.74 129.32 198.05 133.28 196.15 133.28 141.9"/>
      <polygon class="cls-7" points="145.88 136.16 141.91 138.01 141.91 192.18 145.88 190.28 145.88 136.16"/>
      <polygon class="cls-7" points="158.47 130.37 154.5 132.21 154.5 186.22 158.47 184.34 158.47 130.37"/>
      <polygon class="cls-7" points="171.06 124.78 167.09 126.62 167.09 180.17 171.06 178.29 171.06 124.78"/>
      <polygon class="cls-7" points="183.63 118.94 179.68 120.78 179.68 174.22 183.68 172.29 183.63 118.94"/>
      <polygon class="cls-7" points="196.22 113.08 192.27 114.92 192.27 168.48 196.22 166.61 196.22 113.08"/>
      <polygon class="cls-7" points="208.81 106.95 204.86 108.79 204.86 162.22 208.81 160.34 208.81 106.95"/>
      <polygon class="cls-7" points="221.33 101.09 217.39 102.93 217.39 156.21 221.33 154.34 221.33 101.09"/>
      <polygon class="cls-7" points="233.99 95.24 230.04 97.08 230.04 150.21 233.99 148.31 233.99 95.24"/>
      <polygon class="cls-8" points="240.87 86.27 125.81 138.69 125.81 152.27 240.75 97.55 240.87 86.27"/>
      <polygon class="cls-6" points="241.97 70.79 125.81 121.77 125.87 146.99 241.5 93.71 241.97 70.79"/>
      <path class="cls-9" d="M242.26,70.66,125.84,123.77,9.41,70.66,125.84,14.12c.16,0,106.26,53.27,116.42,56.54Z"/>
      <path class="cls-10" d="M242.26,70.66l-116,53,.1,23.09-.53.26-.68-.32-.21-23L9.54,70.71l116.3,51.77ZM126,200.06l-.33.16-.09,0L125.24,152l.58.28.48-.21Z"/>
      <polygon class="cls-11" points="51.84 90.01 70.4 98.49 69.16 173.26 52.49 165.31 51.84 90.01"/>
      <polygon class="cls-12" points="199.83 90.01 181.27 98.49 182.52 173.14 199.19 165.19 199.83 90.01"/>
      <polygon class="cls-13" points="25.09 78.03 20.19 75.8 17.49 66.97 21.17 65.18 25.09 78.03"/>
      <polygon class="cls-13" points="40.19 84.97 35.29 82.74 28.84 61.57 32.51 59.78 40.19 84.97"/>
      <polygon class="cls-13" points="55.91 92 51.02 89.75 40.67 55.8 44.33 54.01 55.91 92"/>
      <polygon class="cls-13" points="71.52 99.15 66.63 96.9 52.38 50.15 56.04 48.38 71.52 99.15"/>
      <polygon class="cls-13" points="86.89 106 82 103.76 63.85 44.23 67.52 42.44 86.89 106"/>
      <polygon class="cls-13" points="102.64 113.31 97.75 111.08 75.69 38.75 79.37 36.96 102.64 113.31"/>
      <polygon class="cls-13" points="118.17 120.53 113.26 118.3 87.32 33.17 91 31.38 118.17 120.53"/>
      <polygon class="cls-13" points="131.41 119.89 127.7 121.58 99.01 27.42 102.69 25.63 131.41 119.89"/>
      <polygon class="cls-13" points="143.24 114.73 139.53 116.38 110.61 21.52 114.29 19.73 143.24 114.73"/>
      <path class="cls-13" d="M155.17,109.57l-3.69,1.7-29-95.18L126,14.37l.18.09Z"/>
      <polygon class="cls-13" points="166.9 104.15 163.2 105.84 137.25 20.2 142.22 22.68 166.9 104.15"/>
      <polygon class="cls-13" points="178.53 99.08 174.95 100.68 152.69 27.66 157.67 30.12 178.53 99.08"/>
      <path class="cls-13" d="M190.57,94.36l-3.72,1.7L168.39,35.48l5,2.46Z"/>
      <path class="cls-13" d="M202.25,88.5l-3.7,1.68L184.31,43.42l5,2.44Z"/>
      <path class="cls-13" d="M214.16,83.14l-3.73,1.65L200.1,50.87c1.67.83,3.32,1.63,5,2.42Z"/>
      <path class="cls-13" d="M226,78.06l-3.69,1.7-6.47-21.23,4.94,2.38Z"/>
      <path class="cls-13" d="M237.8,72.68l-3.7,1.7-2.55-8.19c1.82.85,3.47,1.61,4.91,2.25Z"/>
      <polygon class="cls-14" points="74.5 39.05 60.32 45.93 181.29 98.49 199.83 90.01 74.5 39.05"/>
      <polygon class="cls-14" points="175.33 38.69 189.23 45.54 70.4 98.49 51.86 90.01 175.33 38.69"/>
      <path class="cls-15" d="M128.13,110.9c-9.26-7.12-15.2-24.24-9.39-36.34a68.62,68.62,0,0,1,7.53-12l-5.52-3.33c-6.81,6-12.69,13.37-14.45,18.66-4.76,14.34.91,26.52,7.21,34Z"/>
      <path class="cls-16" d="M128.13,110.9c-8.08-6.23-13.64-20.08-11-31.55a26.57,26.57,0,0,0-11.4.62c-3.6,13.46,1.83,24.82,7.83,32Z"/>
      <path class="cls-17" d="M128.13,110.9c-5.48-4.22-9.79-11.93-11.2-20-4.2.42-8.44,1.4-12.16,1.73A37.79,37.79,0,0,0,113.51,112Z"/>
      <path class="cls-18" d="M124.11,57.3c7.22,4.42,14.75,9.38,25.45,9.52,4.36,0,10.05-1.81,14.15-3.28s9.1-6.28,11.41-8.69c-2.47,5.9,1.34,12.54.86,15.74-5.61,3.81-15.43,6.46-20.95,6.8A32.72,32.72,0,0,1,141.83,75c-6.06-2.25-12.11-5.7-17.49-8.82-1-.58-2-1.15-3-1.68Z"/>
      <path class="cls-19" d="M131.78,61.83a37.69,37.69,0,0,0,17.78,5,20.53,20.53,0,0,0,3.05-.23c.27,3,.51,7.81.48,10.83a48,48,0,0,1-12.26-1.87A67.47,67.47,0,0,1,127,69a20.25,20.25,0,0,1-5.63-4.55l3-6c2.6,1.36,4.76,1.89,7.4,3.31Z"/>
      <path class="cls-20" d="M125.8,61.05c-.77-3.95-2-14.75-3.93-25.33a60.78,60.78,0,0,0-3.46-12.63A22.17,22.17,0,0,0,105.75,10.6c-1.69-.55-3,0-4.84.94-10.54,5.34-24.5,24.3-19.39,32.18,2.09-5.33,7.61-13.51,13.17-20.66,14.59-9.51,22.19,30.29,27.22,38.18Z"/>
      <path class="cls-21" d="M124.69,64c-7.33,1-25.54-4.17-34.73-7.2-8.24-2.66-13.88-10.25-10.15-20.5,3.1-10.59,11.81-24.09,19-26.39,1.37-.39,5.32.35,6.38.56.1.06.34,0,.45.07-4.39-.12-11.48,3.58-16.42,20.29C85.43,43.56,91.44,46,98.39,48.76c6,2.32,23.53,9.39,28.09,11.62Z"/>
      <path class="cls-22" d="M101.7,60.34C97.34,59.15,93.09,57.88,90,56.8c-6.54-2.09-11.45-7.38-11.31-14.53a22.1,22.1,0,0,1,8.16-7.53l1.57-.85C86.46,44,92,46.21,98.39,48.76c2.25.84,6.13,2.45,10.35,4.15-2,2.37-4.48,4.9-7,7.43Z"/>
      <path class="cls-23" d="M123,60c1.8-2.75,2.38-14.94,4-26.36.68-4.8,1.28-12.52,2.49-16.43a11.76,11.76,0,0,1,3.67-5.89,8.72,8.72,0,0,1,5.27-1.72c12.41-.66,31.5,9.75,27.8,20-.36-2.6-2.11-5.17-4.88-7.27a25.21,25.21,0,0,0-11.42-4.53C141.93,16.56,138.16,31,134,45c-1.56,5.17-4.13,11.43-5.54,15.73Z"/>
      <path class="cls-24" d="M127.43,63.05c8.09-3.1,24.28-7.42,33.46-15.3,8.29-7.08,11.71-18.39,5.55-26.11C160.65,13.27,146,7.38,137.85,9.13a12.63,12.63,0,0,0-4.27,1.77c-.18.12-.36.3-.48.39,4.66-2.55,13.12-2.91,22,10.26,6.87,10,.95,15.69-5.93,22.1-5.83,5.48-20.11,12.37-24.4,17Z"/>
      <path class="cls-25" d="M147.37,55.7c2.22-1,4.41-2,6.47-3.17a43.71,43.71,0,0,0,7.31-5c6.95-6,10-15.16,7.42-22.25-4.75-3.55-9.87-5.6-13.95-4.5.18.23.31.49.49.72,6.87,10,.95,15.69-5.93,22.1-2.62,2.46-7.09,5.33-11.58,8.05,2.29,2.6,1.87,7.31,9.77,4Z"/>
      <path class="cls-26" d="M124.49,58.32c2.14,0,4.88,2.73,4.45,4.09s-2.07,3.86-4.21,3.86c-1.1,0-2.41-1-3.34-1.61S120,64,120,62.77a4.7,4.7,0,0,1,4.51-4.45Z"/>
    </g>
  </g>
</svg>
