<svg id="Layer_1" data-name="Layer 1" xmlns="http://www.w3.org/2000/svg" width="207.66" height="291.91" viewBox="0 0 207.66 291.91">
  <defs>
    <style>
      .cls-1, .cls-13, .cls-18, .cls-2, .cls-25, .cls-8 {
        fill: none;
      }

      .cls-1 {
        stroke: #000;
        stroke-linecap: round;
        stroke-width: 10px;
        opacity: 0.31;
      }

      .cls-1, .cls-2 {
        stroke-linejoin: round;
      }

      .cls-2 {
        stroke: #fffa4d;
        stroke-width: 16px;
      }

      .cls-3 {
        fill: #d8a576;
      }

      .cls-3, .cls-40 {
        stroke: #8c5f3a;
      }

      .cls-10, .cls-13, .cls-14, .cls-15, .cls-18, .cls-21, .cls-25, .cls-28, .cls-3, .cls-31, .cls-34, .cls-36, .cls-38, .cls-40, .cls-5, .cls-7, .cls-8 {
        stroke-miterlimit: 10;
      }

      .cls-10, .cls-14, .cls-15, .cls-18, .cls-21, .cls-28, .cls-3, .cls-34, .cls-36, .cls-38, .cls-40, .cls-5, .cls-7, .cls-8 {
        stroke-width: 0.5px;
      }

      .cls-4 {
        fill: #b88556;
      }

      .cls-5 {
        fill: #6f361b;
        stroke: #492212;
      }

      .cls-6 {
        fill: #5c2c15;
      }

      .cls-7 {
        fill: #b78552;
      }

      .cls-7, .cls-8 {
        stroke: #8e613c;
      }

      .cls-9 {
        fill: #d7a777;
      }

      .cls-10 {
        fill: #eacbac;
        stroke: #aa754d;
      }

      .cls-11 {
        fill: #fbe9dd;
      }

      .cls-12 {
        fill: #eed1af;
      }

      .cls-13 {
        stroke: #d8a982;
      }

      .cls-14 {
        fill: #823d1e;
        stroke: #542513;
      }

      .cls-15 {
        fill: #843f21;
        stroke: #492012;
      }

      .cls-16 {
        opacity: 0.69;
      }

      .cls-17 {
        fill: #441e0e;
      }

      .cls-18 {
        stroke: #310600;
      }

      .cls-19 {
        fill: #e2b78d;
      }

      .cls-20 {
        fill: #572912;
        opacity: 0.72;
      }

      .cls-21 {
        fill: #844123;
        stroke: #421c0d;
      }

      .cls-22 {
        fill: #ce8261;
        opacity: 0.33;
      }

      .cls-23 {
        fill: #6d321b;
      }

      .cls-24, .cls-38 {
        fill: #fdecdc;
      }

      .cls-25 {
        stroke: #a4693f;
      }

      .cls-26 {
        fill: #fffcf9;
      }

      .cls-27 {
        fill: #e8caa8;
      }

      .cls-28 {
        fill: #7f3f0f;
        stroke: #3f290f;
      }

      .cls-29 {
        fill: #ffe23e;
      }

      .cls-30 {
        fill: #e8b121;
      }

      .cls-31 {
        fill: #22130e;
        stroke: #f48d11;
      }

      .cls-32 {
        fill: #fff;
      }

      .cls-33 {
        fill: #796a65;
      }

      .cls-34 {
        fill: #f0a532;
        stroke: #d68922;
      }

      .cls-35 {
        fill: #fac52b;
      }

      .cls-36 {
        fill: #d19e6f;
        stroke: #91613a;
      }

      .cls-37 {
        fill: #bc895a;
      }

      .cls-38 {
        stroke: #9e6c44;
      }

      .cls-39 {
        fill: #e9caae;
      }

      .cls-40 {
        fill: #d9a677;
      }
    </style>
  </defs>
  <g>
    <path class="cls-1" d="M200.53,186.85a15.82,15.82,0,0,0-.12-2.45s0,.16-.06.44a1.94,1.94,0,0,1,0-.24,18,18,0,0,0-4.27-12.29c0-1-.08-2-.2-3.16,0,0,0,.25,0,.68-.19-8.39-5.53-11.9-6.81-12.62a25.14,25.14,0,0,0-.08-3.48s0,.31-.06.78c-.28-9.38-9.71-16-13.06-18.1,19.94-19.63,10.52-43.82,10.52-43.82L189.94,97a69.43,69.43,0,0,0-11.89-32.19c-.28-.43-.57-.86-.86-1.27a23.54,23.54,0,0,0,6.21-6.91,23.12,23.12,0,0,0,5.27-4.78,8.71,8.71,0,0,1-4.16,2.64,21.45,21.45,0,0,0,2-8.56s-1.48,3.94-4.65,4.28c.3-.07,3.08-1,4.65-13.55,0,0,1.86-6.52,5.88-8.63,0,0-1.72-1.08-6.07,2.43a27.91,27.91,0,0,1,9.95-13.92c.75-.13,1.17-.17,1.17-.17-22.14-6.23-38.63,11.79-38.63,11.79.57-3,4.28-6,4.28-6-11.66,2.11-17,12.55-17.76,14.24a81.51,81.51,0,0,0-8.44-3.57h0l-.18-.06A87.65,87.65,0,0,0,85.9,30.6a113.43,113.43,0,0,0-14.78,5.93c-1.36-2.69-6.72-11.76-17.5-13.72,0,0,3.71,3.07,4.29,6,0,0-16.49-18-38.64-11.79,0,0,.42,0,1.17.17a27.91,27.91,0,0,1,10,13.92c-4.35-3.51-6.07-2.43-6.07-2.43,4,2.11,5.88,8.63,5.88,8.63,1.57,12.58,4.35,13.49,4.65,13.55-3.17-.34-4.65-4.28-4.65-4.28a21.26,21.26,0,0,0,1.62,7.75,8.4,8.4,0,0,1-4-2.57,22.39,22.39,0,0,0,4.88,4.52,24.41,24.41,0,0,0,6,7.32,72,72,0,0,0-12,29.1h0A36.53,36.53,0,0,0,26.26,97a6.91,6.91,0,0,1,3.2-4.38c-3.52,8.54-1.6,19.44-1.6,19.44,1.46,12,6.83,19.78,11.65,24.47-3.74,2.41-12.24,8.85-12.5,17.74-.05-.47-.05-.77-.05-.77a23.53,23.53,0,0,0-.08,3.47c-1.28.72-6.63,4.24-6.82,12.62,0-.42,0-.68,0-.68-.11,1.15-.18,2.19-.2,3.16a17.91,17.91,0,0,0-4.26,12.29l0,.25-.06-.45a15.82,15.82,0,0,0-.12,2.45c-.89,10.76-1.54,36.12,9.4,55.73,0,0,4.82,12.16,10.23,11.52v0a2.36,2.36,0,0,0,2.39-1.2l.25-.22h0a94.7,94.7,0,0,0,9.43,11.86s4.47,3.89,6.51,1a4.36,4.36,0,0,0,.88-1.13c-.07-.15-.13-.32-.2-.48l0-.2c2.13,3.18,5,6.73,7.84,8.18a11.08,11.08,0,0,0,4.31,7.61,4.26,4.26,0,0,0,.66.48,5.6,5.6,0,0,0,2.27,4.83c2-.59,2.54-2.66,2.64-4.4a7,7,0,0,0,1.84-.89,7.69,7.69,0,0,0,.67-.4A9.52,9.52,0,0,0,78,282a6.33,6.33,0,0,0,2.54,4.07,4.41,4.41,0,0,0,2.92-3.69,8.56,8.56,0,0,0,3.6-2.65,8,8,0,0,0,2.27,1.66,6.33,6.33,0,0,0,2.55,4.1c1.94-.58,2.72-2.35,3-4.11,3.14-1.52,5.4-5.52,5.4-10.24a14.17,14.17,0,0,0-.1-1.6l0-.24a14.4,14.4,0,0,0-.27-1.51l0-.1a10.51,10.51,0,0,0-.33-1.09h0s.47,2.89,11.72,3.41a14,14,0,0,0,4.5.11l0,0h.08c0,.35,0,.71,0,1.06,0,4.72,2.25,8.72,5.4,10.24.27,1.76,1,3.53,3,4.11a6.34,6.34,0,0,0,2.54-4.1,7.84,7.84,0,0,0,2.27-1.66,8.62,8.62,0,0,0,3.6,2.65,4.4,4.4,0,0,0,2.93,3.69A6.3,6.3,0,0,0,138,282a9.45,9.45,0,0,0,3.45-3.23,7,7,0,0,0,2.47,1.36c.09,1.74.64,3.81,2.63,4.4a5.61,5.61,0,0,0,2.28-4.9c2.46-1.33,4.33-4.21,4.92-7.73,2.87-1.45,5.72-5,7.86-8.18a1.06,1.06,0,0,0,0,.19l-.19.49a4.07,4.07,0,0,0,.87,1.12c2,2.9,6.51-1,6.51-1a95.75,95.75,0,0,0,9.44-11.86h0l.24.21a2.37,2.37,0,0,0,2.39,1.21v0c5.41.63,10.23-11.53,10.23-11.53C202.07,223,201.43,197.6,200.53,186.85ZM31.8,210.36s0,.3.15.78l-.2.07A4,4,0,0,0,31.8,210.36Zm152.31.29a4,4,0,0,0,0,.85l-.19-.07C184.07,211,184.11,210.65,184.11,210.65ZM177,63.24c-.62-.88-1.25-1.73-1.89-2.56l.32-.12A19.13,19.13,0,0,1,177,63.24Zm-5.3-6.68a80.78,80.78,0,0,0-9.42-9.05q-1.31-1.11-2.61-2.13c1.54,1.15,2.95,2.23,4.12,3.15L169.52,54l.22-.1c.84.84,1.67,1.7,2.46,2.59Z"/>
    <path class="cls-2" d="M196.21,182.53a17.12,17.12,0,0,0-.11-2.45s0,.16-.07.44c0-.08,0-.16,0-.24A17.9,17.9,0,0,0,191.74,168c0-1-.08-2-.2-3.16,0,0,0,.25,0,.68-.18-8.38-5.53-11.9-6.81-12.62a23.68,23.68,0,0,0-.08-3.48s0,.31-.06.78c-.27-9.38-9.71-16-13.06-18.1C191.46,112.46,182,88.27,182,88.27l3.59,4.36a69.57,69.57,0,0,0-11.9-32.19c-.28-.43-.57-.85-.86-1.27a23.23,23.23,0,0,0,6.21-6.91,23.12,23.12,0,0,0,5.27-4.78,8.71,8.71,0,0,1-4.16,2.64,21.45,21.45,0,0,0,2-8.56s-1.48,3.94-4.64,4.28c.29-.06,3.07-1,4.64-13.55,0,0,1.86-6.52,5.88-8.63,0,0-1.72-1.08-6.07,2.43a27.91,27.91,0,0,1,10-13.92c.75-.13,1.17-.17,1.17-.17C171,5.77,154.47,23.79,154.47,23.79c.57-3,4.28-6,4.28-6C147.1,19.87,141.78,30.3,141,32a81.51,81.51,0,0,0-8.44-3.57h0l-.18-.05a87.55,87.55,0,0,0-50.84-2.09,111.34,111.34,0,0,0-14.77,5.92c-1.37-2.69-6.73-11.76-17.5-13.72,0,0,3.7,3.07,4.28,6,0,0-16.49-18-38.64-11.79,0,0,.42,0,1.17.18a27.87,27.87,0,0,1,10,13.92C21.73,23.32,20,24.41,20,24.41,24,26.52,25.88,33,25.88,33c1.57,12.58,4.35,13.49,4.65,13.55-3.17-.34-4.65-4.28-4.65-4.28a21.68,21.68,0,0,0,1.62,7.75,8.45,8.45,0,0,1-4-2.57A22.39,22.39,0,0,0,28.42,52a24.43,24.43,0,0,0,6,7.32,72,72,0,0,0-12,29.1h0a39.64,39.64,0,0,0-.48,4.21,6.91,6.91,0,0,1,3.2-4.38c-3.52,8.54-1.6,19.45-1.6,19.45,1.46,12,6.83,19.77,11.65,24.46C31.45,134.57,23,141,22.7,149.9a6.59,6.59,0,0,1-.06-.77,23.53,23.53,0,0,0-.08,3.47c-1.28.72-6.63,4.24-6.82,12.62,0-.42,0-.67,0-.67-.11,1.14-.17,2.18-.2,3.15A18,18,0,0,0,11.27,180l0,.25c0-.28-.06-.45-.06-.45a17.24,17.24,0,0,0-.12,2.45C10.17,193,9.52,218.36,20.46,238c0,0,4.83,12.16,10.23,11.52v0a2.35,2.35,0,0,0,2.39-1.2,2.46,2.46,0,0,0,.25-.22h0A95.62,95.62,0,0,0,42.77,260s4.48,3.9,6.51,1a4.15,4.15,0,0,0,.88-1.12c-.06-.16-.13-.33-.2-.49s0-.13,0-.2c2.13,3.19,5,6.73,7.84,8.18a11.08,11.08,0,0,0,4.31,7.61,4.09,4.09,0,0,0,.66.48,5.62,5.62,0,0,0,2.27,4.84c2-.6,2.55-2.66,2.64-4.4a7,7,0,0,0,1.84-.89c.32-.18.55-.33.67-.41a9.52,9.52,0,0,0,3.4,3.16,6.38,6.38,0,0,0,2.54,4.08,4.44,4.44,0,0,0,2.93-3.7,8.62,8.62,0,0,0,3.6-2.65A7.8,7.8,0,0,0,85,277.1a6.33,6.33,0,0,0,2.55,4.1c2-.58,2.72-2.35,3-4.11,3.15-1.52,5.4-5.52,5.4-10.23a14.2,14.2,0,0,0-.1-1.61l0-.24a12.2,12.2,0,0,0-.27-1.51l0-.1c-.09-.37-.2-.73-.32-1.09h0s.48,2.89,11.72,3.41a14,14,0,0,0,4.5.11l0,0h.07c0,.35,0,.7,0,1.06,0,4.71,2.25,8.71,5.4,10.23.28,1.76,1,3.53,3,4.11a6.3,6.3,0,0,0,2.54-4.1,7.84,7.84,0,0,0,2.27-1.66,8.62,8.62,0,0,0,3.6,2.65,4.43,4.43,0,0,0,2.93,3.7,6.38,6.38,0,0,0,2.54-4.08,9.47,9.47,0,0,0,3.44-3.22,7.32,7.32,0,0,0,2.47,1.36c.09,1.74.64,3.8,2.64,4.4a5.64,5.64,0,0,0,2.27-4.91c2.46-1.33,4.33-4.21,4.92-7.73,2.87-1.44,5.72-5,7.86-8.18,0,.07,0,.13,0,.2l-.19.48a4.07,4.07,0,0,0,.87,1.12c2,2.9,6.52-1,6.52-1a96.57,96.57,0,0,0,9.43-11.86h0l.24.22a2.38,2.38,0,0,0,2.39,1.2v0c5.41.64,10.23-11.53,10.23-11.53C197.75,218.64,197.11,193.29,196.21,182.53ZM27.49,206a7.34,7.34,0,0,0,.14.79l-.2.06A4,4,0,0,0,27.49,206Zm152.3.29a4,4,0,0,0,.06.85l-.2-.07C179.75,206.63,179.79,206.33,179.79,206.33Zm-7.1-147.41c-.62-.88-1.25-1.73-1.89-2.56l.32-.12A18.19,18.19,0,0,1,172.69,58.92Zm-5.29-6.68A82.45,82.45,0,0,0,158,43.19c-.86-.74-1.74-1.44-2.61-2.13,1.55,1.15,3,2.23,4.12,3.15l5.72,5.52.22-.11c.84.84,1.67,1.71,2.46,2.59Z"/>
    <g>
      <g>
        <g>
          <g>
            <path class="cls-3" d="M172.12,60.08s9-6,9.26-17.46c0,0-1.48,3.92-4.63,4.24,0,0,3-.25,4.63-13.41,0,0,1.83-6.46,5.82-8.54,0,0-1.71-1.08-6,2.4A27.55,27.55,0,0,1,191,13.53l-15.8.81L155.76,34.78l.39,8.15S169,52.93,172.12,60.08Z"/>
            <path class="cls-4" d="M164.58,50.7s9.4-4,13.57-20.72l-3.23,3.4s3.71-16.3,14.33-19.49l-14.61,1.37L161.49,30l-3.3,14.57Z"/>
          </g>
          <g>
            <path class="cls-5" d="M140.51,33.38s5.12-12.05,17.68-14.33c0,0-3.67,3-4.24,6,0,0,16.32-17.84,38.25-11.67,0,0-17.21,1.8-27.62,16.42,0,0,4.65-1.52,6.26.09,0,0-6,1.93-7.45,6.84,0,0,3-1.87,4.8-.76,0,0-6.36,5.22-6,11.95C162.21,47.9,148.29,36.23,140.51,33.38Z"/>
            <path class="cls-6" d="M144.84,36s.76-7.59,6.27-8.25v6.45s10.72-19.65,38.14-20.88c0,0-23,8.64-24.67,16.42,0,0,5.51-1.24,6.26.09,0,0-6.47,2.09-7.45,6.84,0,0,3.66-1.43,4.8-.76,0,0-6.74,5.22-6,11.95C162.21,47.9,149.87,37.09,144.84,36Z"/>
          </g>
        </g>
        <g>
          <g>
            <path class="cls-3" d="M35.93,60.82s-9-6-9.26-17.46c0,0,1.47,3.92,4.63,4.23,0,0-3-.25-4.63-13.41,0,0-1.84-6.45-5.82-8.54,0,0,1.71-1.07,6,2.41A27.63,27.63,0,0,0,17,14.27l15.8.81L52.29,35.51l-.39,8.16S39.05,53.67,35.93,60.82Z"/>
            <path class="cls-4" d="M43.47,51.44s-9.4-4-13.57-20.72l3.22,3.4s-3.7-16.31-14.33-19.49L33.41,16,46.56,30.72l3.3,14.56Z"/>
          </g>
          <g>
            <path class="cls-5" d="M67.54,34.12s-5.13-12-17.68-14.33c0,0,3.67,3,4.23,6,0,0-16.32-17.84-38.24-11.68,0,0,17.21,1.81,27.62,16.42,0,0-4.65-1.52-6.27.1,0,0,6,1.93,7.46,6.83,0,0-3-1.87-4.8-.76,0,0,6.36,5.22,6,12C45.84,48.64,59.76,37,67.54,34.12Z"/>
            <path class="cls-6" d="M63.2,36.78s-.75-7.6-6.26-8.26V35S46.22,15.33,18.79,14.09c0,0,23,8.64,24.68,16.42,0,0-5.51-1.23-6.27.1,0,0,6.47,2.09,7.46,6.83,0,0-3.66-1.42-4.8-.76,0,0,6.74,5.22,6,12C45.84,48.64,58.18,37.82,63.2,36.78Z"/>
          </g>
        </g>
      </g>
      <g>
        <g>
          <path class="cls-7" d="M55.42,254.28l39.84,6.86s.62,3.9,18.19,3.41l37.81-7.2,12.63-75.09L146,154.17l-94.93,4.64L33.52,175.67Z"/>
          <path class="cls-8" d="M111.31,264.62s-11.74,1.88-8.7-8.74"/>
        </g>
        <path class="cls-9" d="M61.52,173.3s5.52,8.9,10.72,8.49c0,0-1.28-2.71-.95-3.72,0,0,5.13,11.55,14.62,12.25a7.57,7.57,0,0,1-2.47-5,22.87,22.87,0,0,0,9.49,7.1s9.3,2.82,9.49,7.22c0,0,2.19-1.64-.74-5.49,0,0,3.87,1.28,2.92,7.77,0,0,7.6-1.23,12.63-10.33,0,0,1.51.61-1,4,0,0,5.22.38,10.53-9a4.82,4.82,0,0,1-.57,3.49s6.88-5.35,7.5-9.22a9.63,9.63,0,0,1-1.23,5.11s8.25-10,12.62,4.11c0,0,8.85,30.43-9.11,48.53,0,0-9.24,11-28.85-1.27,0,0-3.89-3.54-10.3.51,0,0-21.65,13.79-35.35-16.32C61.52,221.48,52.44,201.55,61.52,173.3Z"/>
      </g>
      <g>
        <path class="cls-10" d="M99.32,118.07,55.44,140.24s-.75,26.76,7.31,31.32c0,0-1.47-4.6-1.23-6.69,0,0-.14,6.64,10.11,12.19a6.87,6.87,0,0,1,.19-6.5s-1,10.16,13.33,14.66a7.67,7.67,0,0,1-2-7.43s1,6.43,11.07,10.41c0,0,7,2.4,8.28,5.75,0,0,.12-5.81-4.49-7.71,0,0,6.64.69,7,9.58,0,0,.31.35,1.45-.79,0,0,4,1.52,8.1-5,0,0,2.85-6.1,3.92-6.28,0,0,1.52,2.93-1.14,6.28,0,0,3.8-.63,6.33-5.5,0,0,2.91-3.51,4-3l-1,2.39s4.93-1.9,7.65-10.38a8.41,8.41,0,0,1-1.14,6.08s7.59-4.69,8.92-12.18a13.29,13.29,0,0,1,0,5.13s4.17-1.94,5.79-14l-5.6-21Z"/>
        <g>
          <path class="cls-11" d="M100.65,132.92s2.47,8.62,6.58,0c0,0,8.67,12.64,27.52,14,0,0,12.27,6.77-4.55,25.06l3.81-.29s-7.1,5-12.8,6.68c0,0-8.1,3.7-8.22,8.49l-.13-4.29s-3.1.1-5.5,5.16c0,0-1.68-7.63-8.91-10.32a8.25,8.25,0,0,1,2.26,5.4,29.42,29.42,0,0,0-13.38-5.71,46.58,46.58,0,0,1-13.28-6.15h3s-14.94-5.1-8.63-23.43A45.6,45.6,0,0,0,100.65,132.92Z"/>
          <g>
            <g>
              <path class="cls-12" d="M68.54,153.19a18.6,18.6,0,0,0,5.73,11.28s4.87,9.07,10.44,9.82c0,0-8.1-7.42-8.77-12.63C75.94,161.66,71.23,161.4,68.54,153.19Z"/>
              <path class="cls-12" d="M96.87,166.24a8.8,8.8,0,0,1-1.11-4.11s-1.87.14-4.08-8.17C91.68,154,92,164.11,96.87,166.24Z"/>
              <path class="cls-12" d="M108.64,174.29s.47,6-1,7.28a7.93,7.93,0,0,0,5.18-8.27s5.13-5.44,1-15.88c0,0,.33,12.1-1.9,14.14l-.34,0s-.31,4.87-2.2,7.6Z"/>
              <path class="cls-12" d="M129.58,166.24s.55,2.66-.68,3.56c0,0,8.21-6.64,7.12-17.74C136,152.06,134.21,162.68,129.58,166.24Z"/>
            </g>
            <g>
              <path class="cls-13" d="M91.41,152.88s1.66,7.67,4.44,9.8c0,0-1.87-9.69,1-17.44"/>
              <path class="cls-13" d="M68.54,151.3s.67,8.43,7.4,10.36"/>
              <path class="cls-13" d="M74,152.88s1,13,8.07,18c0,0-3.42-3.18-2-10.61"/>
              <path class="cls-13" d="M107.17,165.22a82.08,82.08,0,0,1,2.23,13.55s2.32-3.42,1.94-11.58"/>
              <path class="cls-13" d="M113.53,156.77s1,10.9-1.71,14.6"/>
              <path class="cls-13" d="M130.23,157.42s1.9,6.35-2.19,10.2c0,0,6.84-4.57,8-17.68"/>
            </g>
          </g>
        </g>
      </g>
      <g>
        <g>
          <g>
            <g>
              <path class="cls-14" d="M12.56,176.73s-5.37,35,8.75,60.31c0,0,6.43,16.25,12.74,10l-8.69-31.75Z"/>
              <path class="cls-6" d="M17.83,207.22s-1.29,15.24,13.61,41.25a2.31,2.31,0,0,0,2.61-1.85l-13.9-37.53Z"/>
            </g>
            <g>
              <path class="cls-14" d="M20.73,208.76s-.76,24.86,22.66,50c0,0,6.39,5.57,7.31-1.64L32.91,204.71Z"/>
              <path class="cls-6" d="M50.7,258.68s-1.94,4-5.86.38c0,0-15.49-30.08-14.07-48.73l4.64,2.28S44.44,243.3,50.7,258.68Z"/>
            </g>
            <g>
              <path class="cls-14" d="M34.83,204.34s-.54,28.28,12.24,47.77c0,0,10.47,20.84,17.25,12.82l-1.82-9.82s-8.22-15.79-10.81-57.48l-14.84-2.09Z"/>
              <path class="cls-6" d="M44.84,202.42s1.9,40.9,18.38,61.61l1.1-4.34-2.08-5s-6.19-13.46-10.56-56.1l-5-3Z"/>
            </g>
          </g>
          <g>
            <path class="cls-15" d="M37.61,131.27s-15.84,8.4-13.95,21.12c0,0-7.86,3.7-7,14.8,0,0-9.45,9.59-1,22.35,0,0-4,7.07,1,17.26,0,0,2.6,5.7,8.67,3.85,0,0,3-2.37,2.9-5.21,0,0,1.09,8.59,7.59,8.63,0,0,5.69.44,7.26-8.91,0,0,6.61,1.42,8.86-9.5a23,23,0,0,0,0-10.36s5.82-1.72,5.52-15.61c0,0,3.75-3.15,3.75-12.06,0,0,4.55-8.34,2.59-16.82Z"/>
            <g class="cls-16">
              <g>
                <path class="cls-17" d="M23.46,149.1s.19,9,6.64,3.54C30.1,152.64,22.32,162.38,23.46,149.1Z"/>
                <path class="cls-17" d="M30.1,147.2s3,7,8.42.89C38.52,148.09,32.13,157.7,30.1,147.2Z"/>
                <path class="cls-17" d="M38.83,148.37s1.71,1.71,4.34-.66C43.17,147.71,39.69,152.36,38.83,148.37Z"/>
                <path class="cls-17" d="M35.8,154.44s3.08,4.89,8.25-1.18C44.05,153.26,39.16,162.46,35.8,154.44Z"/>
                <path class="cls-17" d="M49.51,154.87s1.75,4.65,5.93,1.47C55.44,156.34,50.46,161.94,49.51,154.87Z"/>
                <path class="cls-17" d="M53.07,160.94s4.08,2.47,7.59-2.75C60.66,158.19,58.86,165.4,53.07,160.94Z"/>
                <path class="cls-17" d="M39.92,160.75s4.42,9.26,12.15.72C52.07,161.47,44,175.13,39.92,160.75Z"/>
                <path class="cls-17" d="M46,170.48s6,6,12.1-2.8l1.61-2.46s-1.52,7.3-7.64,9.49C52.07,174.71,47,175.18,46,170.48Z"/>
                <path class="cls-17" d="M30.42,172s5.82,11.77,13.63-1.83c0,0-2,11.26-11.1,7.46A11.91,11.91,0,0,1,30.42,172Z"/>
                <path class="cls-17" d="M24.5,160.3s2.94,9.76,10.49,3.06l2.24-1.94s-2.34,5.6-8.31,6.17A6.47,6.47,0,0,1,24.5,160.3Z"/>
                <path class="cls-17" d="M16.63,164.36s-.21,10.82,5.56,11.77c0,0,4.63,1.22,7.34-4.13,0,0,0,4.22-6.45,6.93C23.08,178.93,15,180,16.63,164.36Z"/>
                <path class="cls-17" d="M24,182.77s5.88,8.83,12.62,0c0,0-4.7,10.35-11.48,3.23A6.15,6.15,0,0,1,24,182.77Z"/>
                <path class="cls-17" d="M41.25,181s8.12,11.77,15-2.23c0,0-1.57,10-9.35,9.44C46.85,188.18,41.58,186.47,41.25,181Z"/>
                <path class="cls-17" d="M12.12,179.45s1.37,12.1,9.2,11.1c0,0,3.51-.09,4.61-1.18,0,0-3.53,7.16-9.52,3.37A16.48,16.48,0,0,1,12.12,179.45Z"/>
                <path class="cls-17" d="M29.15,192.78s8.31,8.78,14.24-2.75c0,0-1.85,9.25-9.49,8.49C33.9,198.52,30.15,196.44,29.15,192.78Z"/>
                <path class="cls-17" d="M19.57,198s5.22,8.64,12.76,3.09c0,0-3.7,7.54-9.82,2.09C22.51,203.18,19.76,199.9,19.57,198Z"/>
                <path class="cls-17" d="M14.11,196.86s1.8,17.37,13.33,11c0,0,.1,5.7-7.07,4.61C20.37,212.48,13.11,209.68,14.11,196.86Z"/>
                <path class="cls-17" d="M28,208.76s6.8,9.55,13.76,1c0,0-1.61,8.06-9.38,5.66A13.29,13.29,0,0,1,28,208.76Z"/>
                <path class="cls-17" d="M37.16,201.29s7.84,9.81,14-4.74A12.27,12.27,0,0,1,46.27,206S40.76,209.3,37.16,201.29Z"/>
              </g>
            </g>
            <g>
              <path class="cls-18" d="M23.77,147.69s-1.51,12,6.84,3.39"/>
              <path class="cls-18" d="M30.68,145.24s0,6.49,5,4.91a9.39,9.39,0,0,0,3.43-3.46s1.1,3.87,5-.83"/>
              <path class="cls-18" d="M35.75,151.13s.52,6.25,5.72,4.44a9.47,9.47,0,0,0,3.37-4.64"/>
              <path class="cls-18" d="M49.66,152.63s.85,7.56,6.74,2.07"/>
              <path class="cls-18" d="M53.05,158.79s5,4.75,8.47-1.66"/>
              <path class="cls-18" d="M40.3,158.51s1.34,10.11,8,6.22a14.4,14.4,0,0,0,4.7-5.37"/>
              <path class="cls-18" d="M24.73,156.88s-1,8.19,5.22,9c0,0,5.47.07,8.22-6.7"/>
              <path class="cls-18" d="M16.79,164.16S15.53,175.1,22,177c0,0,5,1.47,8.41-6.41"/>
              <path class="cls-18" d="M30.55,169.06s1,8.73,6.63,7.56c0,0,5.41.76,7.66-8.26"/>
              <path class="cls-18" d="M46.15,167.19s.34,6.55,6.88,5.76c0,0,3.46-1.68,4.76-3.67"/>
              <path class="cls-18" d="M41.24,177.79s.32,7.56,7.22,8.92c0,0,3.15-.36,4.42-2"/>
              <path class="cls-18" d="M23.75,177.79s-.63,8.22,6.8,8.92c0,0,5.52.74,7.26-8.65"/>
              <path class="cls-18" d="M12.36,178.49a17.55,17.55,0,0,0,5.08,13s6.4,3.05,9.73-4.81"/>
              <path class="cls-18" d="M28.53,186.71s.27,8.53,6.88,10.14c0,0,6.32,1.46,9.43-10.61"/>
              <path class="cls-18" d="M19.15,192.91s.28,8.21,7.38,10.49c0,0,4.34.76,7.75-5.84"/>
              <path class="cls-18" d="M36.68,197.56s2.68,9.61,9.75,7.15c0,0,5-3.16,5.51-8.67"/>
            </g>
            <g>
              <path class="cls-19" d="M24,147.14s.19,9,6.65,3.54C30.68,150.68,22.9,160.42,24,147.14Z"/>
              <path class="cls-19" d="M30.68,145.24s3,7,8.41.88C39.09,146.12,32.7,155.74,30.68,145.24Z"/>
              <path class="cls-19" d="M39.41,146.41s1.71,1.71,4.34-.66C43.75,145.75,40.26,150.4,39.41,146.41Z"/>
              <path class="cls-19" d="M36.37,152.48s3.09,4.89,8.26-1.18C44.63,151.3,39.74,160.5,36.37,152.48Z"/>
              <path class="cls-19" d="M50.08,152.91s1.76,4.65,5.94,1.47C56,154.38,51,160,50.08,152.91Z"/>
              <path class="cls-19" d="M53.64,159s4.08,2.47,7.6-2.75C61.24,156.23,59.43,163.44,53.64,159Z"/>
              <path class="cls-19" d="M40.5,158.79s4.41,9.26,12.15.72C52.65,159.51,44.53,173.17,40.5,158.79Z"/>
              <path class="cls-19" d="M46.57,168.52s6,6,12.1-2.8l1.62-2.47s-1.52,7.31-7.64,9.49C52.65,172.74,47.52,173.22,46.57,168.52Z"/>
              <path class="cls-19" d="M31,170s5.82,11.77,13.64-1.84c0,0-2.06,11.27-11.11,7.47A12,12,0,0,1,31,170Z"/>
              <path class="cls-19" d="M25.08,158.34s2.94,9.75,10.49,3.06l2.24-1.94s-2.34,5.6-8.32,6.17A6.45,6.45,0,0,1,25.08,158.34Z"/>
              <path class="cls-19" d="M17.2,162.4s-.2,10.82,5.57,11.77c0,0,4.63,1.22,7.34-4.13,0,0,0,4.22-6.46,6.93C23.65,177,15.59,178,17.2,162.4Z"/>
              <path class="cls-19" d="M24.56,180.81s5.88,8.83,12.62,0c0,0-4.7,10.34-11.48,3.23A6.15,6.15,0,0,1,24.56,180.81Z"/>
              <path class="cls-19" d="M41.83,179s8.11,11.77,15-2.23c0,0-1.57,10-9.35,9.44C47.43,186.22,42.16,184.51,41.83,179Z"/>
              <path class="cls-19" d="M12.69,177.49s1.38,12.1,9.21,11.1c0,0,3.51-.09,4.6-1.18,0,0-3.52,7.16-9.51,3.37A16.5,16.5,0,0,1,12.69,177.49Z"/>
              <path class="cls-19" d="M29.73,190.82S38,199.6,44,188.07c0,0-1.85,9.25-9.49,8.49C34.47,196.56,30.73,194.48,29.73,190.82Z"/>
              <path class="cls-19" d="M20.14,196s5.22,8.64,12.77,3.09c0,0-3.7,7.54-9.82,2.08C23.09,201.21,20.33,197.94,20.14,196Z"/>
              <path class="cls-19" d="M14.69,194.9s1.8,17.37,13.33,11c0,0,.1,5.7-7.07,4.6C21,210.51,13.69,207.71,14.69,194.9Z"/>
              <path class="cls-19" d="M28.53,206.8s6.8,9.55,13.76.95c0,0-1.62,8.06-9.38,5.66A13.29,13.29,0,0,1,28.53,206.8Z"/>
              <path class="cls-19" d="M37.73,199.33s7.85,9.81,14-4.74a12.23,12.23,0,0,1-4.84,9.46S41.34,207.34,37.73,199.33Z"/>
            </g>
          </g>
        </g>
        <path class="cls-20" d="M33.78,134.23l10.85,9.62s-2.15-3.52-1.87-5.32c0,0,8,10.31,21.29,8.67v-6.71L41,129.8A17.39,17.39,0,0,0,33.78,134.23Z"/>
      </g>
      <g>
        <g>
          <g>
            <g>
              <path class="cls-14" d="M194.72,177s5.37,35-8.75,60.31c0,0-6.44,16.25-12.74,10l8.68-31.76Z"/>
              <path class="cls-6" d="M189.45,207.5s1.28,15.25-13.62,41.25a2.32,2.32,0,0,1-2.61-1.85l13.91-37.52Z"/>
            </g>
            <g>
              <path class="cls-14" d="M186.55,209s.75,24.87-22.66,50c0,0-6.4,5.56-7.31-1.65L174.37,205Z"/>
              <path class="cls-6" d="M156.58,259s1.94,4,5.86.38c0,0,15.48-30.08,14.06-48.73l-4.63,2.29S162.84,243.59,156.58,259Z"/>
            </g>
            <g>
              <path class="cls-14" d="M172.44,204.63s.55,28.27-12.23,47.76c0,0-10.47,20.85-17.26,12.83l1.82-9.82s8.22-15.79,10.82-57.48l14.84-2.1Z"/>
              <path class="cls-6" d="M162.44,202.71s-1.9,40.9-18.39,61.61L143,260l2.08-5s6.18-13.47,10.55-56.11l5-3Z"/>
            </g>
          </g>
          <g>
            <path class="cls-15" d="M169.67,131.56s15.84,8.4,14,21.11c0,0,7.86,3.7,7,14.81,0,0,9.45,9.58,1,22.34,0,0,4,7.08-1,17.26,0,0-2.6,5.7-8.68,3.86,0,0-3-2.37-2.89-5.22,0,0-1.09,8.59-7.59,8.64,0,0-5.7.43-7.26-8.92,0,0-6.61,1.42-8.86-9.49a23,23,0,0,1,0-10.37s-5.82-1.72-5.52-15.61c0,0-3.75-3.15-3.75-12.06,0,0-4.55-8.34-2.59-16.82Z"/>
            <g class="cls-16">
              <g>
                <path class="cls-17" d="M183.82,149.38s-.19,9-6.64,3.54C177.18,152.92,185,162.67,183.82,149.38Z"/>
                <path class="cls-17" d="M177.18,147.48s-3,7-8.42.89C168.76,148.37,175.15,158,177.18,147.48Z"/>
                <path class="cls-17" d="M168.44,148.65s-1.7,1.71-4.34-.66C164.1,148,167.59,152.64,168.44,148.65Z"/>
                <path class="cls-17" d="M171.48,154.73s-3.08,4.89-8.26-1.19C163.22,153.54,168.11,162.75,171.48,154.73Z"/>
                <path class="cls-17" d="M157.77,155.16s-1.76,4.65-5.93,1.47C151.84,156.63,156.82,162.23,157.77,155.16Z"/>
                <path class="cls-17" d="M154.21,161.23s-4.08,2.47-7.59-2.75C146.62,158.48,148.42,165.69,154.21,161.23Z"/>
                <path class="cls-17" d="M167.35,161s-4.41,9.25-12.14.71C155.21,161.75,163.32,175.42,167.35,161Z"/>
                <path class="cls-17" d="M161.28,170.77s-6,6-12.1-2.8l-1.61-2.47s1.51,7.31,7.64,9.49C155.21,175,160.33,175.46,161.28,170.77Z"/>
                <path class="cls-17" d="M176.86,172.28s-5.82,11.77-13.64-1.83c0,0,2.06,11.26,11.11,7.47A12,12,0,0,0,176.86,172.28Z"/>
                <path class="cls-17" d="M182.77,160.58s-2.94,9.76-10.48,3.07l-2.25-2s2.34,5.6,8.32,6.17A6.45,6.45,0,0,0,182.77,160.58Z"/>
                <path class="cls-17" d="M190.65,164.64s.21,10.82-5.57,11.77c0,0-4.63,1.23-7.34-4.13,0,0,0,4.23,6.46,6.93C184.2,179.21,192.26,180.26,190.65,164.64Z"/>
                <path class="cls-17" d="M183.3,183.06s-5.89,8.82-12.63,0c0,0,4.7,10.34,11.49,3.22A6.24,6.24,0,0,0,183.3,183.06Z"/>
                <path class="cls-17" d="M166,181.25S157.91,193,151.08,179c0,0,1.56,10,9.35,9.44C160.43,188.46,165.69,186.76,166,181.25Z"/>
                <path class="cls-17" d="M195.16,179.73s-1.38,12.1-9.21,11.11c0,0-3.51-.1-4.6-1.19,0,0,3.52,7.17,9.51,3.37A16.48,16.48,0,0,0,195.16,179.73Z"/>
                <path class="cls-17" d="M178.12,193.07s-8.3,8.78-14.23-2.75c0,0,1.85,9.25,9.49,8.49C173.38,198.81,177.13,196.72,178.12,193.07Z"/>
                <path class="cls-17" d="M187.71,198.29s-5.22,8.63-12.76,3.08c0,0,3.7,7.55,9.82,2.09C184.77,203.46,187.52,200.18,187.71,198.29Z"/>
                <path class="cls-17" d="M193.17,197.15s-1.81,17.36-13.34,11c0,0-.09,5.69,7.07,4.6C186.9,212.76,194.16,210,193.17,197.15Z"/>
                <path class="cls-17" d="M179.33,209s-6.8,9.56-13.76,1c0,0,1.61,8.07,9.38,5.66A13.36,13.36,0,0,0,179.33,209Z"/>
                <path class="cls-17" d="M170.12,201.58s-7.84,9.8-14-4.75a12.27,12.27,0,0,0,4.84,9.46S166.51,209.58,170.12,201.58Z"/>
              </g>
            </g>
            <g>
              <path class="cls-18" d="M183.51,148s1.5,12-6.85,3.38"/>
              <path class="cls-18" d="M176.6,145.52s0,6.49-5,4.91a9.4,9.4,0,0,1-3.44-3.45s-1.09,3.87-5-.83"/>
              <path class="cls-18" d="M171.52,151.41s-.51,6.26-5.71,4.45a9.41,9.41,0,0,1-3.37-4.64"/>
              <path class="cls-18" d="M157.62,152.91s-.86,7.56-6.74,2.07"/>
              <path class="cls-18" d="M154.23,159.08s-5,4.74-8.47-1.66"/>
              <path class="cls-18" d="M167,158.79s-1.34,10.11-8,6.22a14.42,14.42,0,0,1-4.7-5.36"/>
              <path class="cls-18" d="M182.55,157.16s1,8.2-5.22,9c0,0-5.48.06-8.23-6.71"/>
              <path class="cls-18" d="M190.49,164.44s1.26,10.94-5.22,12.83c0,0-5,1.47-8.42-6.42"/>
              <path class="cls-18" d="M176.73,169.34s-1,8.73-6.63,7.56c0,0-5.41.76-7.66-8.25"/>
              <path class="cls-18" d="M161.13,167.48s-.35,6.54-6.88,5.75c0,0-3.46-1.67-4.76-3.67"/>
              <path class="cls-18" d="M166,178.07s-.31,7.56-7.21,8.92c0,0-3.16-.35-4.43-2"/>
              <path class="cls-18" d="M183.53,178.07s.63,8.23-6.8,8.92c0,0-5.52.75-7.26-8.65"/>
              <path class="cls-18" d="M194.91,178.77a17.55,17.55,0,0,1-5.07,13s-6.41,3.05-9.73-4.81"/>
              <path class="cls-18" d="M178.75,187s-.27,8.53-6.88,10.14c0,0-6.33,1.47-9.43-10.61"/>
              <path class="cls-18" d="M188.13,193.19s-.29,8.21-7.38,10.49c0,0-4.34.76-7.76-5.84"/>
              <path class="cls-18" d="M170.59,197.84s-2.67,9.62-9.74,7.16c0,0-5-3.17-5.51-8.67"/>
            </g>
            <g>
              <path class="cls-19" d="M183.24,147.42s-.19,9-6.64,3.54C176.6,151,184.38,160.71,183.24,147.42Z"/>
              <path class="cls-19" d="M176.6,145.52s-3,7-8.42.89C168.18,146.41,174.57,156,176.6,145.52Z"/>
              <path class="cls-19" d="M167.87,146.69s-1.71,1.71-4.34-.66C163.53,146,167,150.68,167.87,146.69Z"/>
              <path class="cls-19" d="M170.9,152.77s-3.08,4.88-8.25-1.19C162.65,151.58,167.54,160.79,170.9,152.77Z"/>
              <path class="cls-19" d="M157.19,153.19s-1.75,4.65-5.93,1.48C151.26,154.67,156.24,160.26,157.19,153.19Z"/>
              <path class="cls-19" d="M153.63,159.27s-4.08,2.47-7.59-2.75C146,156.52,147.84,163.73,153.63,159.27Z"/>
              <path class="cls-19" d="M166.78,159.08s-4.42,9.25-12.15.71C154.63,159.79,162.74,173.46,166.78,159.08Z"/>
              <path class="cls-19" d="M160.7,168.81s-6,6-12.1-2.8L147,163.54s1.52,7.31,7.64,9.49C154.63,173,159.75,173.5,160.7,168.81Z"/>
              <path class="cls-19" d="M176.28,170.32s-5.82,11.77-13.63-1.83c0,0,2,11.26,11.1,7.46A11.91,11.91,0,0,0,176.28,170.32Z"/>
              <path class="cls-19" d="M182.2,158.62s-2.94,9.76-10.49,3.07l-2.24-1.95s2.34,5.6,8.32,6.17A6.46,6.46,0,0,0,182.2,158.62Z"/>
              <path class="cls-19" d="M190.07,162.68s.21,10.82-5.56,11.77c0,0-4.63,1.23-7.34-4.13,0,0,0,4.23,6.45,6.93C183.62,177.25,191.69,178.29,190.07,162.68Z"/>
              <path class="cls-19" d="M182.72,181.09s-5.88,8.83-12.62,0c0,0,4.7,10.35,11.48,3.23A6.15,6.15,0,0,0,182.72,181.09Z"/>
              <path class="cls-19" d="M165.45,179.29s-8.12,11.77-14.95-2.23c0,0,1.57,10,9.35,9.44C159.85,186.5,165.12,184.8,165.45,179.29Z"/>
              <path class="cls-19" d="M194.58,177.77s-1.37,12.1-9.2,11.11c0,0-3.51-.1-4.61-1.19,0,0,3.53,7.16,9.52,3.37A16.48,16.48,0,0,0,194.58,177.77Z"/>
              <path class="cls-19" d="M177.55,191.11s-8.31,8.77-14.24-2.76c0,0,1.85,9.26,9.49,8.5C172.8,196.85,176.55,194.76,177.55,191.11Z"/>
              <path class="cls-19" d="M187.13,196.33s-5.22,8.63-12.76,3.08c0,0,3.7,7.54,9.82,2.09C184.19,201.5,186.94,198.22,187.13,196.33Z"/>
              <path class="cls-19" d="M192.59,195.19s-1.8,17.36-13.33,11c0,0-.1,5.69,7.07,4.6C186.33,210.8,193.59,208,192.59,195.19Z"/>
              <path class="cls-19" d="M178.75,207.08S172,216.63,165,208c0,0,1.61,8.07,9.38,5.66A13.29,13.29,0,0,0,178.75,207.08Z"/>
              <path class="cls-19" d="M169.54,199.62s-7.84,9.8-13.95-4.75a12.27,12.27,0,0,0,4.84,9.46S165.94,207.62,169.54,199.62Z"/>
            </g>
          </g>
        </g>
        <path class="cls-20" d="M173.5,134.51l-10.85,9.62s2.15-3.51,1.86-5.31c0,0-8,10.31-21.29,8.66v-6.7l23.05-10.69A17.43,17.43,0,0,1,173.5,134.51Z"/>
      </g>
      <path class="cls-21" d="M22.77,93.17s1.59-47.07,59-65.67c0,0,53.73-16.83,90.32,32.58a68.13,68.13,0,0,1,12.67,33.09l-3.54-4.31s11.26,28.91-17.14,49l.9-4.65s-10,12.48-31,9.21a42.05,42.05,0,0,1-28.7-15.9l-1.91-2.58s-9.71,20.7-39.48,19.14c0,0-13.08.34-21.64-9.54a7.12,7.12,0,0,0,2,4.78S27.13,131,24.35,108.09c0,0-1.9-10.8,1.58-19.25A6.84,6.84,0,0,0,22.77,93.17Z"/>
      <path class="cls-22" d="M23.25,89S45.17,6.12,132.3,29.63C132.3,29.63,62.5,5.61,23.25,89Z"/>
      <path class="cls-23" d="M24.35,106.84s4.87,17,14.24,21.25l-2.91-4.3s42.26,24.8,59.15-16.07L74.58,58.25l-6.4-4.75S93.56,58,101.47,83.93c0,0,2.23,6.28,5.13-.07,0,0,7.36-26.59,33.91-30.66l-9.43,7.86,27.51-8.7s-5-12.46-10.87-14.82c0,0,32.52,16.93,36.69,54.88l-3.22-3.72s11,28.64-17.08,49.14l1-4.92s-18,20.48-49.58,2.77c0,0-13.82-9-10.91-13.54A46.09,46.09,0,0,1,81.8,140.62s-27.21,8.26-39.58-7.7c0,0,.28,4.16,1.74,5C44,138,27.32,130.62,24.35,106.84Z"/>
      <g>
        <g>
          <g>
            <path class="cls-24" d="M70.54,58,49.09,55.34s-4.75,1.86-4.84,6.42c0,0-10.44,4.81-4.65,17.07,0,0-9.78,9.12-.1,18.52,0,0-1.8,13.66,13.67,14.8,0,0,2.75,9.87,17.27,4.84,0,0,11.77,5.6,17.65-6,0,0,11.48-4,8.78-17.27,0,0,4.71-5.06-2.14-11.2S70.54,58,70.54,58Z"/>
            <g>
              <path class="cls-25" d="M44,61.06s-.28,4.24,4.81,8.2"/>
              <path class="cls-25" d="M43.81,61.57s-11.57,8-3.31,18.32c0,0,1.55,2.14,5.36,2.41"/>
              <path class="cls-25" d="M39.65,79.24S30,88,39.5,97.35c0,0,5.65,3.22,10.63,0"/>
              <path class="cls-25" d="M39.67,97.62s-2.49,10.64,9.61,14c0,0,6.45,1.28,10-3"/>
              <path class="cls-25" d="M53.06,111.87s5.71,12.67,18.47,4.12c0,0,2.94-2.7,3.51-5.83"/>
              <path class="cls-25" d="M70.48,116.87s10.94,6,17.56-6.19A18.63,18.63,0,0,0,89,103.8"/>
              <path class="cls-25" d="M88,111s11.33-2.25,9.11-16.83c0,0-1-2.44-2.35-3.06"/>
              <path class="cls-25" d="M97.23,94s4-2.9-2.4-8.31"/>
            </g>
            <g>
              <path class="cls-26" d="M43.68,62.14a13,13,0,0,0,.85,2.75S36,70.65,43.33,81.25c0,0-7.4-2.44-4.74-12.5A15.22,15.22,0,0,1,43.68,62.14Z"/>
              <path class="cls-26" d="M41.69,81.37a5.11,5.11,0,0,1-1.92-1.78s-8.71,8-.69,16.52c0,0,3.29,3.78,9.68,1.52,0,0-8.78,2.07-9.79-5.21C39,92.42,36.77,86.09,41.69,81.37Z"/>
              <path class="cls-26" d="M40,98.06l2.68.72S41.26,111.34,56,110.59a11.78,11.78,0,0,1-8.68,0S38.17,106.88,40,98.06Z"/>
              <path class="cls-26" d="M53.53,112s1.25-.28,2.83-.77c0,0,3.91,12.84,17,1.93a10.8,10.8,0,0,1-6.7,5S58.57,121.56,53.53,112Z"/>
              <path class="cls-26" d="M71.08,116.79a9,9,0,0,0,1.73-1.65s12.34,5.55,15.82-9.89c0,0,.43,7.23-6,11A12,12,0,0,1,71.08,116.79Z"/>
              <path class="cls-26" d="M88.51,110.45s12.58-3.93,7.36-18c0,0,2.8,11-6.85,16.36Z"/>
            </g>
          </g>
          <g>
            <circle class="cls-27" cx="71.07" cy="83.57" r="24.15"/>
            <g>
              <g>
                <circle class="cls-28" cx="70.95" cy="83.93" r="21.32"/>
                <circle class="cls-29" cx="70.95" cy="83.86" r="18.51"/>
                <path class="cls-30" d="M87.41,92.3a17.89,17.89,0,0,0,.33-3.46,18.5,18.5,0,0,0-35-8.43,18.5,18.5,0,0,1,36.68,3.45A18.3,18.3,0,0,1,87.41,92.3Z"/>
              </g>
              <g>
                <circle class="cls-31" cx="71.28" cy="83.86" r="10.52"/>
                <circle class="cls-32" cx="66.95" cy="78.22" r="3.02"/>
                <circle class="cls-32" cx="71.07" cy="83.9" r="1.36"/>
                <path class="cls-33" d="M69.71,92.13a12,12,0,0,0,9.75-6.87S78.57,94.12,69.71,92.13Z"/>
              </g>
            </g>
          </g>
          <g>
            <path class="cls-24" d="M136.81,57.73l21.45-2.66s4.74,1.87,4.84,6.42c0,0,10.44,4.81,4.65,17.07,0,0,9.77,9.12.09,18.52,0,0,1.81,13.67-13.66,14.8,0,0-2.75,9.87-17.27,4.84,0,0-11.77,5.6-17.66-6,0,0-11.48-4-8.77-17.28,0,0-4.72-5,2.13-11.19S136.81,57.73,136.81,57.73Z"/>
            <g>
              <path class="cls-25" d="M163.38,60.8s.29,4.24-4.81,8.19"/>
              <path class="cls-25" d="M163.54,61.3s11.56,8,3.31,18.32A7.34,7.34,0,0,1,161.49,82"/>
              <path class="cls-25" d="M167.69,79s9.64,8.76.15,18.11c0,0-5.64,3.23-10.63,0"/>
              <path class="cls-25" d="M167.68,97.36s2.49,10.63-9.61,14c0,0-6.45,1.29-10-3"/>
              <path class="cls-25" d="M154.28,111.6s-5.7,12.67-18.47,4.13c0,0-2.94-2.71-3.51-5.84"/>
              <path class="cls-25" d="M136.87,116.6s-10.94,6-17.57-6.19a18.83,18.83,0,0,1-1-6.88"/>
              <path class="cls-25" d="M119.35,110.69s-11.33-2.25-9.11-16.84c0,0,1-2.44,2.35-3.06"/>
              <path class="cls-25" d="M110.11,93.71s-4-2.89,2.41-8.3"/>
            </g>
            <g>
              <path class="cls-26" d="M163.67,61.87a12.71,12.71,0,0,1-.86,2.75S171.35,70.38,164,81c0,0,7.4-2.44,4.74-12.5A15.22,15.22,0,0,0,163.67,61.87Z"/>
              <path class="cls-26" d="M165.65,81.11a5.15,5.15,0,0,0,1.92-1.78s8.72,8,.7,16.52c0,0-3.3,3.77-9.68,1.51,0,0,8.78,2.08,9.79-5.21C168.38,92.15,170.58,85.82,165.65,81.11Z"/>
              <path class="cls-26" d="M167.32,97.79l-2.69.72s1.46,12.57-13.25,11.81a11.77,11.77,0,0,0,8.68,0S169.17,106.62,167.32,97.79Z"/>
              <path class="cls-26" d="M153.81,111.73s-1.25-.29-2.83-.78c0,0-3.9,12.85-17,1.93a10.75,10.75,0,0,0,6.69,5S148.78,121.3,153.81,111.73Z"/>
              <path class="cls-26" d="M136.27,116.52a9.35,9.35,0,0,1-1.74-1.65s-12.33,5.56-15.81-9.88c0,0-.44,7.23,6,11A12,12,0,0,0,136.27,116.52Z"/>
              <path class="cls-26" d="M118.83,110.19s-12.58-3.94-7.36-18c0,0-2.8,11,6.86,16.37Z"/>
            </g>
          </g>
          <g>
            <circle class="cls-27" cx="137.2" cy="83.93" r="24.15"/>
            <g>
              <g>
                <circle class="cls-28" cx="136.87" cy="83.93" r="21.32"/>
                <circle class="cls-29" cx="136.87" cy="83.86" r="18.51"/>
                <path class="cls-30" d="M153.34,92.3a18.71,18.71,0,0,0,.32-3.46,18.5,18.5,0,0,0-35-8.43,18.5,18.5,0,0,1,36.68,3.45A18.29,18.29,0,0,1,153.34,92.3Z"/>
              </g>
              <g>
                <circle class="cls-31" cx="137.2" cy="83.86" r="10.52"/>
                <circle class="cls-32" cx="132.87" cy="78.22" r="3.02"/>
                <circle class="cls-32" cx="137" cy="83.9" r="1.36"/>
                <path class="cls-33" d="M135.64,92.13a12,12,0,0,0,9.74-6.87S144.49,94.12,135.64,92.13Z"/>
              </g>
            </g>
          </g>
          <g>
            <path class="cls-34" d="M103.54,132s7.42-5.92,7.4-22.34c0,0-.23-8.5-7.4-7.6,0,0-6.5-1.29-7.68,7.73C95.86,109.75,95.38,123.7,103.54,132Z"/>
            <path class="cls-35" d="M103.51,128.85s5.91-5.3,5.89-20c0,0-.19-7.63-5.89-6.82,0,0-5.17-1.15-6.11,6.93C97.4,108.94,97,121.45,103.51,128.85Z"/>
            <path class="cls-26" d="M102.74,102.09l1,25.12.89-25.12A2.82,2.82,0,0,0,102.74,102.09Z"/>
          </g>
        </g>
        <g>
          <path class="cls-36" d="M107.23,94.37s-.76-29.18,34.42-41.58c0,0-5.06,2.91-4.46,5.44,0,0,1.17-4.49,16.54-5.44,0,0,6-.32,8.35-3.86,0,0,.68,2.85-3.17,4.43,0,0,20.7.57,24.62-4.87,0,0-6.2,8.6-20.75,10.43,0,0,4.17,1.46,6,1.21,0,0-3.76,2.2-15.82-1.33,0,0,2.63,4.05,7.34,3.79,0,0-1,1.71-15.63,1.4,0,0-7.84-.26-10.06,2.46,0,0,3.29-1.14,7.09,1.9C141.71,68.35,124.69,64,107.23,94.37Z"/>
          <path class="cls-37" d="M107.23,94.37s1.27-16.64,20.69-25.75c0,0-3.23-.91-4.94.37,0,0,7.15-9.16,25.88-8.46A5.57,5.57,0,0,0,144.18,58s4.32-2.34,20.95-1.77c0,0,10.36-1,14.41-4.3,0,0-5.94,5.62-17.33,6.94,0,0,5.1,1.83,6.14,1.22,0,0-1.92,2.13-15.61-1.5,0,0,1.62,3.91,7.13,4,0,0-.13,1.65-15.31,1.46,0,0-6.87-.35-9.84,2.24a8.07,8.07,0,0,1,6.88,2S124.11,64.08,107.23,94.37Z"/>
        </g>
        <g>
          <path class="cls-36" d="M100.65,94.37s.76-29.18-34.42-41.58c0,0,5.06,2.91,4.46,5.44,0,0-1.17-4.49-16.54-5.44,0,0-5.95-.32-8.35-3.86,0,0-.67,2.85,3.17,4.43,0,0-20.7.57-24.62-4.87,0,0,6.2,8.6,20.75,10.43,0,0-4.17,1.46-6,1.21,0,0,3.77,2.2,15.82-1.33,0,0-2.63,4.05-7.34,3.79,0,0,1,1.71,15.63,1.4,0,0,7.84-.26,10.06,2.46,0,0-3.29-1.14-7.09,1.9C66.17,68.35,83.19,64,100.65,94.37Z"/>
          <path class="cls-37" d="M100.65,94.37S99.38,77.73,80,68.62c0,0,3.23-.91,4.94.37,0,0-7.15-9.16-25.88-8.46A5.57,5.57,0,0,1,63.7,58s-4.31-2.34-21-1.77c0,0-10.36-1-14.41-4.3,0,0,5.94,5.62,17.33,6.94,0,0-5.1,1.83-6.13,1.22,0,0,1.91,2.13,15.6-1.5,0,0-1.62,3.91-7.13,4,0,0,.13,1.65,15.31,1.46,0,0,6.87-.35,9.84,2.24a8.08,8.08,0,0,0-6.88,2S83.77,64.08,100.65,94.37Z"/>
        </g>
      </g>
      <g>
        <g>
          <ellipse class="cls-38" cx="66.27" cy="264.03" rx="8.1" ry="10.79"/>
          <path class="cls-39" d="M60.35,270.22s4.93,1.46,6.2-1.9c0,0-1-9.93,3-14l1.84,1.2s2.25,14.31-.7,17.71C70.66,273.19,63.45,278.38,60.35,270.22Z"/>
          <path class="cls-40" d="M63.5,271.93s1.77-3.21,4.45,0c0,0,1.12,5.89-2.47,7C65.48,278.89,62.27,277,63.5,271.93Z"/>
        </g>
        <g>
          <ellipse class="cls-38" cx="77.07" cy="264.62" rx="8.96" ry="12.56"/>
          <path class="cls-39" d="M70.66,271.68s6.83,4.61,7.09-1.18c0,0-1.08-10.78,4-16.22a3.12,3.12,0,0,1,1.73,2.33s3.2,18-3.66,19.59A7.22,7.22,0,0,1,70.66,271.68Z"/>
          <path class="cls-40" d="M74.12,272.19s2.09-3.8,5.25,0c0,0,1.33,7-2.91,8.22C76.46,280.41,72.66,278.14,74.12,272.19Z"/>
        </g>
        <g>
          <ellipse class="cls-38" cx="87.9" cy="265.63" rx="8.1" ry="10.79"/>
          <path class="cls-39" d="M96,265.63c0,6-3.62,10.57-8.09,10.57a6.56,6.56,0,0,1-5.76-3.35,11.84,11.84,0,0,0,3.77.82c4.47,0,7-3.72,7-9.68,0-3.41-.43-6.54-2.28-8.51C93.76,257,96,261,96,265.63Z"/>
          <path class="cls-40" d="M85.34,271.61s2.09-3.79,5.25,0c0,0,1.33,7-2.91,8.23C87.68,279.84,83.88,277.56,85.34,271.61Z"/>
        </g>
      </g>
      <g>
        <g>
          <ellipse class="cls-38" cx="141.04" cy="264.03" rx="8.1" ry="10.79"/>
          <path class="cls-39" d="M136.87,255.92s3.23,2.37,4.08,13c0,0,4.7,1.71,5.7-4.48,0,0,1.15-6.6-1.91-9.72,0,0,4.66,2.91,4.22,10.77,0,0-.83,7.4-6.32,8.92,0,0-4.41.71-6.37-1.93Z"/>
          <path class="cls-40" d="M143.81,271.93s-1.77-3.21-4.45,0c0,0-1.12,5.89,2.46,7C141.82,278.89,145,277,143.81,271.93Z"/>
        </g>
        <g>
          <ellipse class="cls-38" cx="130.23" cy="264.62" rx="8.96" ry="12.56"/>
          <path class="cls-39" d="M124,256.57s6.2,2.71,3.86,14.32c0,0,7.4,3.77,8.35-5.88,0,0,1.46-7.63-2.21-11.37,0,0,5.63,3.71,4.81,12.59,0,0-.83,8.89-7.41,10.72,0,0-4.42.37-6.76-2.79Z"/>
          <path class="cls-40" d="M133.19,272.19s-2.09-3.8-5.25,0c0,0-1.33,7,2.91,8.22C130.85,280.41,134.65,278.14,133.19,272.19Z"/>
        </g>
        <g>
          <ellipse class="cls-38" cx="119.41" cy="265.63" rx="8.1" ry="10.79"/>
          <path class="cls-39" d="M127.3,265.63c0,6-3.62,10.57-8.1,10.57a6.54,6.54,0,0,1-5.75-3.35,11.78,11.78,0,0,0,3.77.82c4.47,0,7-3.72,7-9.68,0-3.41-.43-6.54-2.29-8.51C125.07,257,127.3,261,127.3,265.63Z"/>
          <path class="cls-40" d="M122,271.61s-2.09-3.79-5.25,0c0,0-1.33,7,2.91,8.23C119.63,279.84,123.42,277.56,122,271.61Z"/>
        </g>
      </g>
    </g>
  </g>
</svg>
