<svg id="Layer_1" data-name="Layer 1" xmlns="http://www.w3.org/2000/svg" width="168.51" height="236.94" viewBox="0 0 168.51 236.94">
  <defs>
    <style>
      .cls-1, .cls-13, .cls-18, .cls-2, .cls-25, .cls-8 {
        fill: none;
      }

      .cls-1 {
        stroke: #000;
        opacity: 0.31;
      }

      .cls-1, .cls-2 {
        stroke-linecap: round;
        stroke-linejoin: round;
        stroke-width: 10px;
      }

      .cls-2 {
        stroke: #fff;
      }

      .cls-3 {
        fill: #d8a576;
      }

      .cls-3, .cls-40 {
        stroke: #8c5f3a;
      }

      .cls-10, .cls-13, .cls-14, .cls-15, .cls-18, .cls-21, .cls-25, .cls-28, .cls-3, .cls-31, .cls-34, .cls-36, .cls-38, .cls-40, .cls-5, .cls-7, .cls-8 {
        stroke-miterlimit: 10;
      }

      .cls-10, .cls-14, .cls-15, .cls-18, .cls-21, .cls-28, .cls-3, .cls-34, .cls-36, .cls-38, .cls-40, .cls-5, .cls-7, .cls-8 {
        stroke-width: 0.5px;
      }

      .cls-4 {
        fill: #b88556;
      }

      .cls-5 {
        fill: #6f361b;
        stroke: #492212;
      }

      .cls-6 {
        fill: #5c2c15;
      }

      .cls-7 {
        fill: #b78552;
      }

      .cls-7, .cls-8 {
        stroke: #8e613c;
      }

      .cls-9 {
        fill: #d7a777;
      }

      .cls-10 {
        fill: #eacbac;
        stroke: #aa754d;
      }

      .cls-11 {
        fill: #fbe9dd;
      }

      .cls-12 {
        fill: #eed1af;
      }

      .cls-13 {
        stroke: #d8a982;
      }

      .cls-14 {
        fill: #823d1e;
        stroke: #542513;
      }

      .cls-15 {
        fill: #843f21;
        stroke: #492012;
      }

      .cls-16 {
        opacity: 0.69;
      }

      .cls-17 {
        fill: #441e0e;
      }

      .cls-18 {
        stroke: #310600;
      }

      .cls-19 {
        fill: #e2b78d;
      }

      .cls-20 {
        fill: #572912;
        opacity: 0.72;
      }

      .cls-21 {
        fill: #844123;
        stroke: #421c0d;
      }

      .cls-22 {
        fill: #ce8261;
        opacity: 0.33;
      }

      .cls-23 {
        fill: #6d321b;
      }

      .cls-24, .cls-38 {
        fill: #fdecdc;
      }

      .cls-25 {
        stroke: #a4693f;
      }

      .cls-26 {
        fill: #fffcf9;
      }

      .cls-27 {
        fill: #e8caa8;
      }

      .cls-28 {
        fill: #7f3f0f;
        stroke: #3f290f;
      }

      .cls-29 {
        fill: #ffe23e;
      }

      .cls-30 {
        fill: #e8b121;
      }

      .cls-31 {
        fill: #22130e;
        stroke: #f48d11;
      }

      .cls-32 {
        fill: #fff;
      }

      .cls-33 {
        fill: #796a65;
      }

      .cls-34 {
        fill: #f0a532;
        stroke: #d68922;
      }

      .cls-35 {
        fill: #fac52b;
      }

      .cls-36 {
        fill: #d19e6f;
        stroke: #91613a;
      }

      .cls-37 {
        fill: #bc895a;
      }

      .cls-38 {
        stroke: #9e6c44;
      }

      .cls-39 {
        fill: #e9caae;
      }

      .cls-40 {
        fill: #d9a677;
      }
    </style>
  </defs>
  <g>
    <path class="cls-1" d="M160.76,150a13.81,13.81,0,0,0-.1-2s0,.14,0,.37a1.36,1.36,0,0,0,0-.2,14.5,14.5,0,0,0-3.46-10c0-.79-.07-1.64-.16-2.56,0,0,0,.2,0,.54-.15-6.8-4.5-9.66-5.53-10.24a20.3,20.3,0,0,0-.07-2.83,5.43,5.43,0,0,1-.05.64c-.22-7.62-7.88-13-10.6-14.7,16.19-15.94,8.54-35.59,8.54-35.59L152.16,77a56.54,56.54,0,0,0-9.65-26.14l-.71-1a19,19,0,0,0,5-5.61,18.58,18.58,0,0,0,4.27-3.88,7,7,0,0,1-3.37,2.14,17.52,17.52,0,0,0,1.61-6.95s-1.2,3.2-3.78,3.47c.24-.05,2.5-.78,3.78-11,0,0,1.5-5.29,4.77-7,0,0-1.4-.88-4.93,2a22.69,22.69,0,0,1,8.08-11.3c.61-.11.95-.14.95-.14-18-5.06-31.37,9.57-31.37,9.57.47-2.41,3.48-4.9,3.48-4.9-9.47,1.71-13.78,10.19-14.42,11.56a65.36,65.36,0,0,0-6.86-2.9h0l-.14-.05a71.14,71.14,0,0,0-41.29-1.69,92.27,92.27,0,0,0-12,4.81c-1.11-2.18-5.46-9.55-14.21-11.14,0,0,3,2.49,3.48,4.9,0,0-13.39-14.63-31.38-9.57,0,0,.35,0,.95.14a22.67,22.67,0,0,1,8.09,11.3c-3.53-2.85-4.94-2-4.94-2,3.27,1.71,4.78,7,4.78,7,1.28,10.21,3.53,10.95,3.77,11-2.57-.28-3.77-3.48-3.77-3.48a17.4,17.4,0,0,0,1.31,6.29,6.74,6.74,0,0,1-3.21-2.08,18,18,0,0,0,4,3.67,19.82,19.82,0,0,0,4.85,5.94,58.67,58.67,0,0,0-9.73,23.64h0A29.41,29.41,0,0,0,19.24,77a5.6,5.6,0,0,1,2.6-3.55c-2.86,6.93-1.3,15.79-1.3,15.79A32.44,32.44,0,0,0,30,109.1c-3,2-9.94,7.18-10.15,14.4,0-.38,0-.63,0-.63a18.73,18.73,0,0,0-.07,2.82c-1,.59-5.38,3.44-5.53,10.25,0-.34,0-.55,0-.55-.1.93-.15,1.78-.16,2.57a14.52,14.52,0,0,0-3.47,10,1.5,1.5,0,0,1,0,.2l-.05-.37a12.35,12.35,0,0,0-.09,2C9.68,158.5,9.16,179.09,18,195c0,0,3.92,9.87,8.31,9.36h0a1.91,1.91,0,0,0,1.94-1l.2-.17h0a78.81,78.81,0,0,0,7.66,9.63s3.64,3.16,5.29.81a3.43,3.43,0,0,0,.72-.91c-.06-.13-.11-.27-.16-.4l0-.16c1.73,2.59,4,5.46,6.37,6.64A9,9,0,0,0,51.9,225a5.82,5.82,0,0,0,.53.38,4.57,4.57,0,0,0,1.85,3.93c1.62-.48,2.07-2.16,2.14-3.57a5.79,5.79,0,0,0,1.5-.73c.26-.14.45-.26.54-.32a7.73,7.73,0,0,0,2.77,2.56,5.12,5.12,0,0,0,2.06,3.31,3.6,3.6,0,0,0,2.37-3,7,7,0,0,0,2.93-2.16,6.46,6.46,0,0,0,1.84,1.36,5.16,5.16,0,0,0,2.06,3.33,3.75,3.75,0,0,0,2.44-3.34c2.55-1.24,4.38-4.49,4.38-8.32a11.2,11.2,0,0,0-.08-1.3,1.5,1.5,0,0,0,0-.2,10.06,10.06,0,0,0-.22-1.22.24.24,0,0,1,0-.08c-.08-.3-.17-.6-.27-.89h0s.38,2.34,9.52,2.76a11.45,11.45,0,0,0,3.65.09l0,0h.06c0,.29,0,.57,0,.86,0,3.83,1.83,7.08,4.38,8.32a3.76,3.76,0,0,0,2.44,3.34,5.19,5.19,0,0,0,2.07-3.33,6.46,6.46,0,0,0,1.84-1.36,7,7,0,0,0,2.92,2.16,3.59,3.59,0,0,0,2.38,3,5.16,5.16,0,0,0,2.06-3.31,7.82,7.82,0,0,0,2.8-2.62,5.9,5.9,0,0,0,2,1.11c.08,1.41.52,3.09,2.14,3.57a4.58,4.58,0,0,0,1.85-4,8.61,8.61,0,0,0,4-6.27c2.33-1.18,4.65-4.06,6.38-6.64a.83.83,0,0,1,0,.15l-.16.4a3.52,3.52,0,0,0,.71.91c1.66,2.35,5.29-.81,5.29-.81a77.86,77.86,0,0,0,7.66-9.63h0l.2.18a1.92,1.92,0,0,0,1.94,1h0c4.39.51,8.31-9.36,8.31-9.36C162,179.32,161.49,158.73,160.76,150Zm-137,19.09s0,.24.12.64l-.16.05A3.94,3.94,0,0,0,23.74,169.09Zm123.68.23a3.12,3.12,0,0,0,.05.69l-.16,0C147.39,169.57,147.42,169.32,147.42,169.32Zm-5.76-119.7c-.51-.72-1-1.41-1.54-2.08l.27-.1A16.27,16.27,0,0,1,141.66,49.62Zm-4.3-5.43a68.09,68.09,0,0,0-7.65-7.35c-.71-.59-1.42-1.17-2.13-1.73,1.26.94,2.4,1.82,3.35,2.57l4.65,4.47.17-.08c.68.68,1.36,1.38,2,2.1Z"/>
    <path class="cls-2" d="M157.25,146.49a12.3,12.3,0,0,0-.09-2s0,.13,0,.36a1.36,1.36,0,0,1,0-.2,14.57,14.57,0,0,0-3.47-10c0-.79-.06-1.63-.16-2.56,0,0,0,.2,0,.55-.15-6.81-4.49-9.66-5.53-10.25a18.71,18.71,0,0,0-.07-2.82s0,.25,0,.63c-.23-7.62-7.89-13-10.61-14.7C153.39,89.59,145.74,70,145.74,70l2.92,3.53A56.35,56.35,0,0,0,139,47.35c-.23-.35-.47-.7-.71-1a18.66,18.66,0,0,0,5.05-5.61,18.8,18.8,0,0,0,4.28-3.88A7,7,0,0,1,144.24,39a17.27,17.27,0,0,0,1.61-7s-1.2,3.2-3.77,3.48c.24-.05,2.5-.79,3.77-11,0,0,1.51-5.3,4.78-7,0,0-1.4-.88-4.93,2a22.61,22.61,0,0,1,8.08-11.3c.61-.1.95-.14.95-.14-18-5.06-31.38,9.58-31.38,9.58.47-2.42,3.48-4.91,3.48-4.91-9.46,1.72-13.78,10.19-14.42,11.56a68.38,68.38,0,0,0-6.85-2.9h0l-.14,0a71.2,71.2,0,0,0-41.29-1.7,91.54,91.54,0,0,0-12,4.81C51.06,22.24,46.71,14.87,38,13.28c0,0,3,2.49,3.48,4.91,0,0-13.39-14.64-31.37-9.58,0,0,.34,0,.95.14a22.69,22.69,0,0,1,8.08,11.31c-3.53-2.86-4.93-2-4.93-2,3.27,1.72,4.77,7,4.77,7,1.28,10.21,3.54,11,3.78,11-2.57-.28-3.78-3.47-3.78-3.47a17.44,17.44,0,0,0,1.32,6.29A6.92,6.92,0,0,1,17,36.82a18,18,0,0,0,4,3.67,19.53,19.53,0,0,0,4.86,5.94,58.72,58.72,0,0,0-9.74,23.64h0a32.54,32.54,0,0,0-.39,3.41,5.6,5.6,0,0,1,2.6-3.55C15.47,76.86,17,85.72,17,85.72a32.52,32.52,0,0,0,9.46,19.87c-3,2-9.93,7.18-10.14,14.41a5.35,5.35,0,0,1-.05-.63,20.13,20.13,0,0,0-.07,2.82c-1,.58-5.38,3.44-5.53,10.24,0-.34,0-.54,0-.54-.09.92-.14,1.77-.16,2.56a14.5,14.5,0,0,0-3.46,10,1.36,1.36,0,0,0,0,.2c0-.23,0-.36,0-.36a13.6,13.6,0,0,0-.1,2c-.73,8.73-1.25,29.32,7.63,45.25,0,0,3.92,9.87,8.31,9.36h0a1.92,1.92,0,0,0,1.94-1l.2-.18h0a77.86,77.86,0,0,0,7.66,9.63s3.63,3.16,5.29.81a3.52,3.52,0,0,0,.71-.91l-.16-.4a.83.83,0,0,1,0-.15c1.73,2.58,4,5.46,6.37,6.63a9,9,0,0,0,3.49,6.19,4.56,4.56,0,0,0,.54.39,4.53,4.53,0,0,0,1.85,3.92c1.61-.48,2.06-2.16,2.14-3.57a5.85,5.85,0,0,0,1.49-.72l.54-.33a7.72,7.72,0,0,0,2.77,2.56,5.12,5.12,0,0,0,2.06,3.31,3.58,3.58,0,0,0,2.38-3,7,7,0,0,0,2.92-2.15,6.42,6.42,0,0,0,1.84,1.35A5.12,5.12,0,0,0,69,226.62a3.73,3.73,0,0,0,2.43-3.34c2.56-1.23,4.39-4.48,4.39-8.31,0-.44,0-.88-.08-1.3l0-.2a9.88,9.88,0,0,0-.22-1.23.19.19,0,0,0,0-.07,8.34,8.34,0,0,0-.26-.89h0s.39,2.34,9.52,2.77a11.44,11.44,0,0,0,3.65.09l0,0h.07a8.12,8.12,0,0,0,0,.86c0,3.83,1.83,7.08,4.39,8.31a3.73,3.73,0,0,0,2.43,3.34,5.12,5.12,0,0,0,2.07-3.33,6.42,6.42,0,0,0,1.84-1.35,7,7,0,0,0,2.92,2.15,3.58,3.58,0,0,0,2.38,3,5.16,5.16,0,0,0,2.06-3.31,7.65,7.65,0,0,0,2.8-2.62,5.74,5.74,0,0,0,2,1.11c.08,1.41.53,3.09,2.14,3.57a4.57,4.57,0,0,0,1.85-4,8.6,8.6,0,0,0,4-6.28c2.34-1.17,4.65-4.05,6.39-6.64l0,.16c0,.13-.1.26-.16.39a3.27,3.27,0,0,0,.72.91c1.65,2.36,5.29-.8,5.29-.8a78.87,78.87,0,0,0,7.66-9.64h0l.2.17a1.93,1.93,0,0,0,1.94,1v0c4.39.52,8.31-9.36,8.31-9.36C158.5,175.82,158,155.22,157.25,146.49Zm-137,19.09s0,.25.11.64l-.16.05A3.12,3.12,0,0,0,20.24,165.58Zm123.68.24a4,4,0,0,0,0,.69l-.16-.06C143.89,166.06,143.92,165.82,143.92,165.82ZM138.15,46.11c-.5-.71-1-1.41-1.53-2.08l.26-.09A15.6,15.6,0,0,1,138.15,46.11Zm-4.3-5.42a65.55,65.55,0,0,0-7.65-7.35c-.7-.6-1.41-1.18-2.12-1.73,1.25.93,2.4,1.81,3.35,2.56l4.64,4.47a1,1,0,0,0,.18-.08c.68.68,1.35,1.38,2,2.1Z"/>
    <g>
      <g>
        <g>
          <g>
            <path class="cls-3" d="M137.69,47.06a18.55,18.55,0,0,0,7.52-14.18s-1.2,3.18-3.76,3.44c0,0,2.42-.21,3.76-10.89,0,0,1.49-5.24,4.72-6.94,0,0-1.38-.87-4.88,2a22.47,22.47,0,0,1,8-11.19l-12.83.66L124.4,26.5l.32,6.63S135.15,41.25,137.69,47.06Z"/>
            <path class="cls-4" d="M131.57,39.44s7.63-3.25,11-16.83L140,25.37s3-13.24,11.63-15.82l-11.87,1.11-10.68,12-2.67,11.83Z"/>
          </g>
          <g>
            <path class="cls-5" d="M112,25.37s4.16-9.78,14.36-11.63c0,0-3,2.46-3.45,4.85,0,0,13.26-14.49,31.06-9.48,0,0-14,1.47-22.42,13.34,0,0,3.77-1.24,5.08.07,0,0-4.89,1.57-6.05,5.55,0,0,2.43-1.51,3.89-.61,0,0-5.16,4.23-4.85,9.71C129.64,37.17,118.34,27.69,112,25.37Z"/>
            <path class="cls-6" d="M115.54,27.53s.61-6.16,5.08-6.7v5.24s8.71-15.95,31-17c0,0-18.65,7-20,13.34,0,0,4.47-1,5.08.07,0,0-5.25,1.7-6.05,5.55,0,0,3-1.15,3.89-.61,0,0-5.47,4.23-4.85,9.71C129.64,37.17,119.62,28.38,115.54,27.53Z"/>
          </g>
        </g>
        <g>
          <g>
            <path class="cls-3" d="M27.09,47.65a18.52,18.52,0,0,1-7.52-14.18s1.2,3.19,3.76,3.44c0,0-2.42-.2-3.76-10.89,0,0-1.49-5.24-4.72-6.93,0,0,1.38-.88,4.88,1.95a22.43,22.43,0,0,0-8-11.19l12.83.66L40.38,27.1l-.32,6.63S29.62,41.85,27.09,47.65Z"/>
            <path class="cls-4" d="M33.21,40s-7.63-3.25-11-16.83L24.81,26s-3-13.24-11.63-15.83L25,11.25l10.69,12L38.4,35Z"/>
          </g>
          <g>
            <path class="cls-5" d="M52.76,26S48.6,16.18,38.4,14.33c0,0,3,2.47,3.44,4.86,0,0-13.25-14.49-31.05-9.48,0,0,14,1.46,22.42,13.33,0,0-3.77-1.23-5.08.08,0,0,4.89,1.57,6.05,5.55,0,0-2.43-1.52-3.9-.62,0,0,5.17,4.24,4.86,9.71C35.14,37.76,46.44,28.28,52.76,26Z"/>
            <path class="cls-6" d="M49.24,28.13s-.61-6.17-5.08-6.71v5.24s-8.71-15.95-31-16.95c0,0,18.65,7,20,13.33,0,0-4.47-1-5.08.08,0,0,5.25,1.7,6.05,5.55,0,0-3-1.16-3.9-.62,0,0,5.48,4.24,4.86,9.71C35.14,37.76,45.16,29,49.24,28.13Z"/>
          </g>
        </g>
      </g>
      <g>
        <g>
          <path class="cls-7" d="M42.92,204.75l32.35,5.57s.51,3.18,14.78,2.77l30.7-5.84,10.25-61-14.49-22.81-77.09,3.77L25.14,140.92Z"/>
          <path class="cls-8" d="M88.31,213.15s-9.53,1.53-7.07-7.1"/>
        </g>
        <path class="cls-9" d="M47.87,139s4.48,7.23,8.71,6.9c0,0-1-2.2-.77-3,0,0,4.16,9.38,11.87,9.94a6.1,6.1,0,0,1-2-4.07,18.53,18.53,0,0,0,7.7,5.77s7.55,2.29,7.71,5.86c0,0,1.78-1.33-.6-4.46,0,0,3.14,1,2.37,6.31,0,0,6.17-1,10.25-8.39,0,0,1.23.5-.77,3.22,0,0,4.24.31,8.55-7.31a3.93,3.93,0,0,1-.46,2.84s5.59-4.34,6.09-7.49a7.77,7.77,0,0,1-1,4.15s6.7-8.09,10.25,3.34c0,0,7.19,24.71-7.4,39.41,0,0-7.5,8.94-23.43-1,0,0-3.16-2.88-8.36.41,0,0-17.58,11.2-28.71-13.25C47.87,178.12,40.5,161.94,47.87,139Z"/>
      </g>
      <g>
        <path class="cls-10" d="M78.57,94.14l-35.63,18s-.61,21.73,5.94,25.43c0,0-1.2-3.74-1-5.43,0,0-.11,5.39,8.21,9.9a5.6,5.6,0,0,1,.16-5.28s-.85,8.25,10.82,11.91a6.26,6.26,0,0,1-1.58-6s.83,5.22,9,8.46c0,0,5.69,1.94,6.72,4.67,0,0,.1-4.72-3.65-6.27,0,0,5.4.56,5.66,7.78,0,0,.25.29,1.18-.64,0,0,3.23,1.23,6.57-4.06,0,0,2.31-5,3.19-5.1a4.84,4.84,0,0,1-.93,5.1s3.09-.51,5.14-4.47c0,0,2.36-2.85,3.24-2.4l-.77,1.94s4-1.54,6.21-8.43a6.84,6.84,0,0,1-.92,4.94s6.16-3.81,7.24-9.89a10.64,10.64,0,0,1,0,4.17s3.38-1.58,4.7-11.37L113.51,110Z"/>
        <g>
          <path class="cls-11" d="M79.65,106.2s2,7,5.34,0c0,0,7,10.27,22.35,11.34,0,0,10,5.5-3.7,20.35l3.1-.23s-5.77,4-10.39,5.42c0,0-6.58,3-6.68,6.89l-.1-3.48s-2.52.08-4.47,4.19c0,0-1.37-6.2-7.24-8.38a6.7,6.7,0,0,1,1.84,4.39,23.87,23.87,0,0,0-10.86-4.64,38,38,0,0,1-10.79-5h2.46s-12.13-4.14-7-19A37.05,37.05,0,0,0,79.65,106.2Z"/>
          <g>
            <g>
              <path class="cls-12" d="M53.58,122.67a15.09,15.09,0,0,0,4.65,9.16s4,7.36,8.47,8c0,0-6.57-6-7.11-10.26C59.59,129.54,55.76,129.33,53.58,122.67Z"/>
              <path class="cls-12" d="M76.58,133.26a7.12,7.12,0,0,1-.91-3.34s-1.51.12-3.31-6.63C72.36,123.29,72.65,131.53,76.58,133.26Z"/>
              <path class="cls-12" d="M86.14,139.8s.38,4.87-.85,5.91a6.44,6.44,0,0,0,4.2-6.72s4.17-4.42.77-12.89c0,0,.27,9.82-1.54,11.48l-.28,0s-.25,3.95-1.79,6.17Z"/>
              <path class="cls-12" d="M103.15,133.26s.44,2.16-.56,2.89a17.36,17.36,0,0,0,5.78-14.41S106.9,130.37,103.15,133.26Z"/>
            </g>
            <g>
              <path class="cls-13" d="M72.15,122.41s1.35,6.23,3.6,8c0,0-1.52-7.87.83-14.16"/>
              <path class="cls-13" d="M53.58,121.13s.54,6.84,6,8.41"/>
              <path class="cls-13" d="M58,122.41s.85,10.57,6.55,14.64c0,0-2.77-2.58-1.62-8.61"/>
              <path class="cls-13" d="M84.94,132.43a66.62,66.62,0,0,1,1.81,11s1.89-2.78,1.58-9.4"/>
              <path class="cls-13" d="M90.11,125.57s.84,8.85-1.39,11.86"/>
              <path class="cls-13" d="M103.67,126.1s1.54,5.16-1.77,8.28c0,0,5.54-3.71,6.47-14.36"/>
            </g>
          </g>
        </g>
      </g>
      <g>
        <g>
          <g>
            <g>
              <path class="cls-14" d="M8.11,141.78s-4.35,28.42,7.11,49c0,0,5.23,13.2,10.35,8.14l-7.06-25.78Z"/>
              <path class="cls-6" d="M12.39,166.54s-1,12.38,11.06,33.49a1.88,1.88,0,0,0,2.12-1.5L14.28,168.06Z"/>
            </g>
            <g>
              <path class="cls-14" d="M14.75,167.79s-.62,20.19,18.4,40.64c0,0,5.19,4.52,5.94-1.34L24.64,164.51Z"/>
              <path class="cls-6" d="M39.09,208.33s-1.58,3.23-4.76.3c0,0-12.58-24.42-11.42-39.57l3.76,1.86S34,195.84,39.09,208.33Z"/>
            </g>
            <g>
              <path class="cls-14" d="M26.2,164.2s-.44,23,9.94,38.79c0,0,8.5,16.93,14,10.42l-1.48-8S42,192.61,39.89,158.75l-12-1.7Z"/>
              <path class="cls-6" d="M34.33,162.64s1.54,33.22,14.93,50l.89-3.53-1.69-4.08s-5-10.93-8.57-45.55l-4.08-2.47Z"/>
            </g>
          </g>
          <g>
            <path class="cls-15" d="M28.45,104.87S15.59,111.69,17.13,122c0,0-6.38,3-5.66,12,0,0-7.68,7.78-.8,18.14,0,0-3.26,5.75.8,14,0,0,2.11,4.63,7,3.13,0,0,2.47-1.93,2.35-4.24,0,0,.89,7,6.17,7,0,0,4.62.35,5.89-7.25,0,0,5.37,1.16,7.2-7.71a18.7,18.7,0,0,0,0-8.41s4.72-1.4,4.48-12.68c0,0,3-2.56,3-9.79,0,0,3.7-6.77,2.11-13.66Z"/>
            <g class="cls-16">
              <g>
                <path class="cls-17" d="M17,119.34s.15,7.3,5.39,2.88C22.36,122.22,16,130.13,17,119.34Z"/>
                <path class="cls-17" d="M22.36,117.8s2.47,5.7,6.83.72C29.19,118.52,24,126.33,22.36,117.8Z"/>
                <path class="cls-17" d="M29.45,118.75s1.39,1.39,3.53-.54C33,118.21,30.14,122,29.45,118.75Z"/>
                <path class="cls-17" d="M27,123.68s2.51,4,6.71-1C33.69,122.72,29.72,130.19,27,123.68Z"/>
                <path class="cls-17" d="M38.12,124s1.43,3.78,4.82,1.19C42.94,125.22,38.89,129.77,38.12,124Z"/>
                <path class="cls-17" d="M41,129s3.31,2,6.16-2.23C47.17,126.73,45.71,132.58,41,129Z"/>
                <path class="cls-17" d="M30.34,128.81s3.58,7.51,9.86.58C40.2,129.39,33.61,140.48,30.34,128.81Z"/>
                <path class="cls-17" d="M35.27,136.71s4.89,4.85,9.82-2.28l1.31-2s-1.23,5.93-6.2,7.71C40.2,140.14,36,140.52,35.27,136.71Z"/>
                <path class="cls-17" d="M22.62,137.94s4.72,9.56,11.07-1.49c0,0-1.67,9.14-9,6.06A9.66,9.66,0,0,1,22.62,137.94Z"/>
                <path class="cls-17" d="M17.81,128.44s2.39,7.92,8.52,2.49l1.82-1.58s-1.9,4.54-6.75,5A5.25,5.25,0,0,1,17.81,128.44Z"/>
                <path class="cls-17" d="M11.42,131.74s-.17,8.78,4.52,9.55c0,0,3.76,1,6-3.35,0,0,0,3.43-5.24,5.63C16.66,143.57,10.11,144.41,11.42,131.74Z"/>
                <path class="cls-17" d="M17.39,146.69s4.78,7.16,10.25,0c0,0-3.82,8.4-9.33,2.62A5,5,0,0,1,17.39,146.69Z"/>
                <path class="cls-17" d="M31.41,145.22s6.59,9.56,12.14-1.81c0,0-1.27,8.09-7.59,7.67C36,151.08,31.68,149.69,31.41,145.22Z"/>
                <path class="cls-17" d="M7.76,144s1.11,9.82,7.47,9c0,0,2.85-.08,3.74-1,0,0-2.86,5.82-7.73,2.74A13.38,13.38,0,0,1,7.76,144Z"/>
                <path class="cls-17" d="M21.59,154.82s6.74,7.13,11.56-2.24c0,0-1.5,7.52-7.71,6.9A8.79,8.79,0,0,1,21.59,154.82Z"/>
                <path class="cls-17" d="M13.81,159.06s4.23,7,10.36,2.5c0,0-3,6.13-8,1.7C16.19,163.26,14,160.6,13.81,159.06Z"/>
                <path class="cls-17" d="M9.37,158.13s1.47,14.1,10.83,8.94c0,0,.08,4.62-5.74,3.74C14.46,170.81,8.57,168.53,9.37,158.13Z"/>
                <path class="cls-17" d="M20.61,167.79s5.53,7.76,11.18.77c0,0-1.31,6.55-7.62,4.6A10.86,10.86,0,0,1,20.61,167.79Z"/>
                <path class="cls-17" d="M28.09,161.73s6.37,8,11.33-3.86a10,10,0,0,1-3.93,7.68S31,168.23,28.09,161.73Z"/>
              </g>
            </g>
            <g>
              <path class="cls-18" d="M17.22,118.2S16,127.91,22.78,121"/>
              <path class="cls-18" d="M22.83,116.21s0,5.27,4,4a7.61,7.61,0,0,0,2.79-2.8s.89,3.14,4-.67"/>
              <path class="cls-18" d="M27,121s.42,5.08,4.64,3.61a7.7,7.7,0,0,0,2.74-3.77"/>
              <path class="cls-18" d="M38.24,122.21s.69,6.14,5.47,1.68"/>
              <path class="cls-18" d="M41,127.22s4.06,3.85,6.87-1.35"/>
              <path class="cls-18" d="M30.64,127s1.09,8.21,6.52,5A11.62,11.62,0,0,0,41,127.68"/>
              <path class="cls-18" d="M18,125.66s-.82,6.65,4.24,7.3c0,0,4.44,0,6.68-5.45"/>
              <path class="cls-18" d="M11.55,131.57s-1,8.89,4.24,10.41c0,0,4,1.2,6.83-5.2"/>
              <path class="cls-18" d="M22.73,135.55s.79,7.09,5.38,6.14c0,0,4.39.62,6.22-6.7"/>
              <path class="cls-18" d="M35.39,134s.28,5.31,5.59,4.67c0,0,2.81-1.36,3.86-3"/>
              <path class="cls-18" d="M31.41,142.64s.25,6.14,5.85,7.24c0,0,2.57-.29,3.6-1.64"/>
              <path class="cls-18" d="M17.2,142.64s-.51,6.68,5.53,7.24c0,0,4.48.61,5.89-7"/>
              <path class="cls-18" d="M8,143.21a14.28,14.28,0,0,0,4.13,10.59s5.2,2.48,7.9-3.9"/>
              <path class="cls-18" d="M21.08,149.88s.22,6.93,5.59,8.24c0,0,5.14,1.19,7.66-8.62"/>
              <path class="cls-18" d="M13.46,154.92s.24,6.67,6,8.52c0,0,3.52.61,6.3-4.74"/>
              <path class="cls-18" d="M27.71,158.7s2.17,7.8,7.91,5.81c0,0,4.05-2.58,4.47-7"/>
            </g>
            <g>
              <path class="cls-19" d="M17.43,117.75s.16,7.29,5.4,2.88C22.83,120.63,16.51,128.54,17.43,117.75Z"/>
              <path class="cls-19" d="M22.83,116.21s2.46,5.7,6.83.72C29.66,116.93,24.47,124.74,22.83,116.21Z"/>
              <path class="cls-19" d="M29.92,117.16s1.39,1.39,3.52-.54C33.44,116.62,30.61,120.39,29.92,117.16Z"/>
              <path class="cls-19" d="M27.45,122.09s2.51,4,6.71-1C34.16,121.13,30.19,128.6,27.45,122.09Z"/>
              <path class="cls-19" d="M38.59,122.44s1.42,3.77,4.81,1.19C43.4,123.63,39.36,128.18,38.59,122.44Z"/>
              <path class="cls-19" d="M41.48,127.37s3.31,2,6.16-2.24C47.64,125.13,46.18,131,41.48,127.37Z"/>
              <path class="cls-19" d="M30.8,127.22s3.59,7.51,9.87.57C40.67,127.79,34.08,138.89,30.8,127.22Z"/>
              <path class="cls-19" d="M35.74,135.11s4.89,4.86,9.82-2.27l1.31-2s-1.23,5.93-6.2,7.7C40.67,138.54,36.51,138.93,35.74,135.11Z"/>
              <path class="cls-19" d="M23.08,136.35s4.73,9.55,11.08-1.49c0,0-1.67,9.14-9,6.06A9.74,9.74,0,0,1,23.08,136.35Z"/>
              <path class="cls-19" d="M18.28,126.84s2.39,7.93,8.52,2.49l1.82-1.58s-1.9,4.55-6.76,5A5.25,5.25,0,0,1,18.28,126.84Z"/>
              <path class="cls-19" d="M11.88,130.14s-.16,8.79,4.53,9.56c0,0,3.76,1,6-3.35,0,0,0,3.43-5.25,5.62C17.12,142,10.57,142.82,11.88,130.14Z"/>
              <path class="cls-19" d="M17.86,145.09s4.78,7.17,10.25,0c0,0-3.82,8.4-9.33,2.62A5,5,0,0,1,17.86,145.09Z"/>
              <path class="cls-19" d="M31.88,143.63s6.59,9.56,12.14-1.81c0,0-1.27,8.09-7.59,7.67C36.43,149.49,32.15,148.1,31.88,143.63Z"/>
              <path class="cls-19" d="M8.22,142.4s1.12,9.82,7.48,9c0,0,2.85-.07,3.74-1,0,0-2.86,5.82-7.73,2.74A13.43,13.43,0,0,1,8.22,142.4Z"/>
              <path class="cls-19" d="M22.06,153.22s6.74,7.13,11.56-2.23c0,0-1.51,7.51-7.71,6.9A8.79,8.79,0,0,1,22.06,153.22Z"/>
              <path class="cls-19" d="M14.27,157.46s4.24,7,10.37,2.51c0,0-3,6.12-8,1.69C16.66,161.66,14.43,159,14.27,157.46Z"/>
              <path class="cls-19" d="M9.84,156.54s1.47,14.1,10.83,8.94c0,0,.08,4.62-5.74,3.74C14.93,169.22,9,166.94,9.84,156.54Z"/>
              <path class="cls-19" d="M21.08,166.2S26.6,174,32.26,167c0,0-1.31,6.55-7.62,4.6A10.85,10.85,0,0,1,21.08,166.2Z"/>
              <path class="cls-19" d="M28.56,160.13s6.37,8,11.32-3.85A9.93,9.93,0,0,1,36,164S31.48,166.63,28.56,160.13Z"/>
            </g>
          </g>
        </g>
        <path class="cls-20" d="M25.35,107.27l8.81,7.81s-1.75-2.86-1.52-4.32c0,0,6.53,8.38,17.29,7v-5.45l-18.72-8.68A14.11,14.11,0,0,0,25.35,107.27Z"/>
      </g>
      <g>
        <g>
          <g>
            <g>
              <path class="cls-14" d="M156,142s4.36,28.42-7.11,49c0,0-5.22,13.19-10.34,8.13l7-25.78Z"/>
              <path class="cls-6" d="M151.76,166.77s1,12.38-11.06,33.49a1.88,1.88,0,0,1-2.12-1.5l11.29-30.47Z"/>
            </g>
            <g>
              <path class="cls-14" d="M149.4,168s.62,20.19-18.4,40.64c0,0-5.19,4.52-5.94-1.34l14.45-42.58Z"/>
              <path class="cls-6" d="M125.06,208.56s1.58,3.23,4.76.3c0,0,12.58-24.42,11.43-39.57l-3.77,1.86S130.15,196.07,125.06,208.56Z"/>
            </g>
            <g>
              <path class="cls-14" d="M138,164.44s.44,23-9.93,38.78c0,0-8.51,16.93-14,10.42l1.48-8s6.68-12.82,8.78-46.68l12-1.7Z"/>
              <path class="cls-6" d="M129.82,162.87s-1.53,33.22-14.92,50l-.89-3.53,1.68-4.07s5-10.94,8.58-45.56l4.07-2.47Z"/>
            </g>
          </g>
          <g>
            <path class="cls-15" d="M135.7,105.1s12.86,6.82,11.32,17.14c0,0,6.39,3,5.66,12,0,0,7.68,7.78.8,18.14,0,0,3.27,5.75-.8,14,0,0-2.11,4.63-7,3.13,0,0-2.47-1.93-2.35-4.24,0,0-.89,7-6.16,7,0,0-4.63.35-5.9-7.25,0,0-5.37,1.16-7.19-7.7a18.58,18.58,0,0,1,0-8.42s-4.73-1.4-4.49-12.68c0,0-3-2.56-3-9.79,0,0-3.7-6.77-2.11-13.66Z"/>
            <g class="cls-16">
              <g>
                <path class="cls-17" d="M147.19,119.57s-.16,7.3-5.4,2.88C141.79,122.45,148.11,130.36,147.19,119.57Z"/>
                <path class="cls-17" d="M141.79,118s-2.46,5.7-6.83.72C135,118.75,140.15,126.56,141.79,118Z"/>
                <path class="cls-17" d="M134.7,119s-1.38,1.39-3.52-.54C131.18,118.44,134,122.22,134.7,119Z"/>
                <path class="cls-17" d="M137.17,123.91s-2.51,4-6.71-1C130.46,123,134.43,130.43,137.17,123.91Z"/>
                <path class="cls-17" d="M126,124.26s-1.42,3.78-4.81,1.19C121.22,125.45,125.26,130,126,124.26Z"/>
                <path class="cls-17" d="M123.14,129.19s-3.31,2-6.16-2.23C117,127,118.44,132.81,123.14,129.19Z"/>
                <path class="cls-17" d="M133.82,129s-3.59,7.51-9.87.58C124,129.62,130.54,140.71,133.82,129Z"/>
                <path class="cls-17" d="M128.88,136.94s-4.89,4.85-9.82-2.28l-1.31-2s1.23,5.93,6.2,7.71C124,140.37,128.11,140.75,128.88,136.94Z"/>
                <path class="cls-17" d="M141.54,138.17s-4.73,9.56-11.08-1.49c0,0,1.67,9.15,9,6.06A9.74,9.74,0,0,0,141.54,138.17Z"/>
                <path class="cls-17" d="M146.34,128.67s-2.39,7.92-8.52,2.49L136,129.58s1.9,4.54,6.76,5A5.25,5.25,0,0,0,146.34,128.67Z"/>
                <path class="cls-17" d="M152.74,132s.16,8.78-4.52,9.55c0,0-3.77,1-6-3.35,0,0,0,3.43,5.24,5.63C147.5,143.8,154.05,144.64,152.74,132Z"/>
                <path class="cls-17" d="M146.76,146.92s-4.77,7.16-10.25,0c0,0,3.82,8.4,9.33,2.62A5,5,0,0,0,146.76,146.92Z"/>
                <path class="cls-17" d="M132.74,145.45s-6.59,9.56-12.14-1.81c0,0,1.27,8.09,7.59,7.67C128.19,151.31,132.47,149.92,132.74,145.45Z"/>
                <path class="cls-17" d="M156.4,144.22s-1.12,9.83-7.48,9c0,0-2.85-.08-3.74-1,0,0,2.86,5.82,7.73,2.74A13.41,13.41,0,0,0,156.4,144.22Z"/>
                <path class="cls-17" d="M142.56,155.05s-6.74,7.13-11.56-2.24c0,0,1.51,7.52,7.71,6.9A8.79,8.79,0,0,0,142.56,155.05Z"/>
                <path class="cls-17" d="M150.35,159.29s-4.24,7-10.37,2.5c0,0,3,6.13,8,1.7C148,163.49,150.19,160.83,150.35,159.29Z"/>
                <path class="cls-17" d="M154.78,158.36s-1.47,14.1-10.83,8.94c0,0-.08,4.62,5.74,3.74C149.69,171,155.59,168.76,154.78,158.36Z"/>
                <path class="cls-17" d="M143.54,168s-5.52,7.76-11.17.77c0,0,1.31,6.55,7.61,4.6A10.79,10.79,0,0,0,143.54,168Z"/>
                <path class="cls-17" d="M136.06,162s-6.37,8-11.32-3.86a9.92,9.92,0,0,0,3.93,7.68S133.14,168.46,136.06,162Z"/>
              </g>
            </g>
            <g>
              <path class="cls-18" d="M146.94,118.43s1.22,9.71-5.56,2.75"/>
              <path class="cls-18" d="M141.33,116.44s0,5.27-4.05,4a7.6,7.6,0,0,1-2.79-2.8s-.89,3.14-4-.67"/>
              <path class="cls-18" d="M137.2,121.22s-.42,5.08-4.64,3.61a7.64,7.64,0,0,1-2.74-3.77"/>
              <path class="cls-18" d="M125.91,122.44s-.69,6.14-5.47,1.68"/>
              <path class="cls-18" d="M123.16,127.45s-4.07,3.85-6.88-1.35"/>
              <path class="cls-18" d="M133.51,127.21s-1.09,8.21-6.52,5a11.64,11.64,0,0,1-3.81-4.35"/>
              <path class="cls-18" d="M146.15,125.89s.83,6.65-4.23,7.3c0,0-4.45.05-6.68-5.45"/>
              <path class="cls-18" d="M152.6,131.8s1,8.89-4.24,10.42c0,0-4,1.19-6.83-5.21"/>
              <path class="cls-18" d="M141.43,135.78s-.8,7.09-5.38,6.14c0,0-4.4.62-6.23-6.7"/>
              <path class="cls-18" d="M128.76,134.27s-.28,5.31-5.58,4.67c0,0-2.82-1.36-3.87-3"/>
              <path class="cls-18" d="M132.75,142.87s-.26,6.14-5.86,7.25c0,0-2.57-.3-3.6-1.65"/>
              <path class="cls-18" d="M147,142.87s.51,6.68-5.52,7.25c0,0-4.48.6-5.9-7"/>
              <path class="cls-18" d="M156.2,143.44A14.24,14.24,0,0,1,152.08,154s-5.21,2.48-7.9-3.9"/>
              <path class="cls-18" d="M143.07,150.12s-.22,6.92-5.59,8.23c0,0-5.13,1.19-7.66-8.62"/>
              <path class="cls-18" d="M150.69,155.15s-.23,6.67-6,8.52c0,0-3.53.61-6.3-4.74"/>
              <path class="cls-18" d="M136.45,158.93s-2.18,7.8-7.92,5.81c0,0-4-2.58-4.47-7.05"/>
            </g>
            <g>
              <path class="cls-19" d="M146.72,118s-.15,7.29-5.39,2.88C141.33,120.86,147.64,128.77,146.72,118Z"/>
              <path class="cls-19" d="M141.33,116.44s-2.47,5.7-6.84.72C134.49,117.16,139.68,125,141.33,116.44Z"/>
              <path class="cls-19" d="M134.24,117.39s-1.39,1.39-3.53-.54C130.71,116.85,133.54,120.63,134.24,117.39Z"/>
              <path class="cls-19" d="M136.7,122.32s-2.5,4-6.7-1C130,121.36,134,128.83,136.7,122.32Z"/>
              <path class="cls-19" d="M125.57,122.67s-1.43,3.77-4.82,1.19C120.75,123.86,124.79,128.41,125.57,122.67Z"/>
              <path class="cls-19" d="M122.68,127.6s-3.32,2-6.17-2.24C116.51,125.36,118,131.22,122.68,127.6Z"/>
              <path class="cls-19" d="M133.35,127.45s-3.58,7.51-9.87.57C123.48,128,130.07,139.12,133.35,127.45Z"/>
              <path class="cls-19" d="M128.42,135.34s-4.9,4.86-9.83-2.27l-1.31-2s1.23,5.93,6.2,7.7C123.48,138.77,127.65,139.16,128.42,135.34Z"/>
              <path class="cls-19" d="M141.07,136.58s-4.73,9.55-11.07-1.49c0,0,1.67,9.14,9,6.06A9.74,9.74,0,0,0,141.07,136.58Z"/>
              <path class="cls-19" d="M145.87,127.07s-2.39,7.93-8.51,2.49L135.53,128s1.9,4.54,6.76,5A5.25,5.25,0,0,0,145.87,127.07Z"/>
              <path class="cls-19" d="M152.27,130.37s.17,8.79-4.52,9.56c0,0-3.76,1-6-3.35,0,0,0,3.43,5.24,5.62C147,142.2,153.58,143.05,152.27,130.37Z"/>
              <path class="cls-19" d="M146.3,145.32s-4.78,7.17-10.25,0c0,0,3.81,8.4,9.32,2.62A5.09,5.09,0,0,0,146.3,145.32Z"/>
              <path class="cls-19" d="M132.27,143.86s-6.59,9.56-12.14-1.81c0,0,1.27,8.09,7.59,7.67C127.72,149.72,132,148.33,132.27,143.86Z"/>
              <path class="cls-19" d="M155.93,142.63s-1.12,9.82-7.48,9c0,0-2.85-.07-3.73-1,0,0,2.86,5.82,7.72,2.74A13.39,13.39,0,0,0,155.93,142.63Z"/>
              <path class="cls-19" d="M142.1,153.45s-6.75,7.13-11.56-2.23c0,0,1.5,7.51,7.7,6.9A8.79,8.79,0,0,0,142.1,153.45Z"/>
              <path class="cls-19" d="M149.88,157.69s-4.24,7-10.37,2.51c0,0,3,6.12,8,1.69C147.49,161.89,149.73,159.23,149.88,157.69Z"/>
              <path class="cls-19" d="M154.31,156.77s-1.46,14.1-10.83,8.94c0,0-.07,4.62,5.74,3.74C149.22,169.45,155.12,167.17,154.31,156.77Z"/>
              <path class="cls-19" d="M143.07,166.43s-5.52,7.76-11.17.77c0,0,1.31,6.55,7.61,4.6A10.79,10.79,0,0,0,143.07,166.43Z"/>
              <path class="cls-19" d="M135.6,160.36s-6.37,8-11.33-3.85a9.93,9.93,0,0,0,3.93,7.68S132.67,166.86,135.6,160.36Z"/>
            </g>
          </g>
        </g>
        <path class="cls-20" d="M138.81,107.5,130,115.31s1.74-2.86,1.51-4.32c0,0-6.53,8.38-17.29,7v-5.44l18.72-8.69A14.17,14.17,0,0,1,138.81,107.5Z"/>
      </g>
      <path class="cls-21" d="M16.41,73.93S17.7,35.7,64.34,20.6c0,0,43.64-13.67,73.35,26.46A55.26,55.26,0,0,1,148,73.93l-2.88-3.5s9.15,23.47-13.92,39.77l.73-3.77s-8.13,10.13-25.17,7.48A34.15,34.15,0,0,1,83.44,101l-1.56-2.1s-7.88,16.82-32,15.55c0,0-10.63.27-17.58-7.75a5.75,5.75,0,0,0,1.6,3.88S20,104.62,17.69,86c0,0-1.54-8.77,1.28-15.63A5.54,5.54,0,0,0,16.41,73.93Z"/>
      <path class="cls-22" d="M16.79,70.55s17.8-67.32,88.56-48.23C105.35,22.32,48.67,2.82,16.79,70.55Z"/>
      <path class="cls-23" d="M17.69,85s4,13.77,11.56,17.26l-2.36-3.49s34.32,20.14,48-13.05L58.48,45.57l-5.2-3.86s20.61,3.65,27,24.71c0,0,1.81,5.1,4.16-.06,0,0,6-21.59,27.54-24.89l-7.66,6.38,22.34-7.06s-4-10.13-8.82-12c0,0,26.4,13.74,29.79,44.56l-2.62-3s8.94,23.25-13.87,39.9l.83-4s-14.65,16.64-40.26,2.25c0,0-11.23-7.3-8.86-11a37.45,37.45,0,0,1-18.55,15s-22.1,6.7-32.14-6.26c0,0,.23,3.38,1.41,4.1C33.61,110.3,20.1,104.34,17.69,85Z"/>
      <g>
        <g>
          <g>
            <path class="cls-24" d="M55.19,45.36,37.78,43.2s-3.85,1.52-3.93,5.22c0,0-8.48,3.9-3.78,13.86,0,0-7.94,7.41-.08,15,0,0-1.46,11.09,11.1,12,0,0,2.24,8,14,3.93,0,0,9.55,4.55,14.33-4.86,0,0,9.33-3.23,7.13-14,0,0,3.83-4.11-1.73-9.1S55.19,45.36,55.19,45.36Z"/>
            <g>
              <path class="cls-25" d="M33.62,47.85s-.23,3.44,3.9,6.65"/>
              <path class="cls-25" d="M33.49,48.26S24.1,54.77,30.8,63.14a6,6,0,0,0,4.36,2"/>
              <path class="cls-25" d="M30.12,62.61S22.29,69.73,30,77.32c0,0,4.59,2.62,8.64,0"/>
              <path class="cls-25" d="M30.13,77.54s-2,8.64,7.8,11.34c0,0,5.24,1,8.13-2.47"/>
              <path class="cls-25" d="M41,89.11s4.63,10.28,15,3.35a10.23,10.23,0,0,0,2.86-4.74"/>
              <path class="cls-25" d="M55.15,93.17S64,98,69.41,88.14a15.13,15.13,0,0,0,.77-5.58"/>
              <path class="cls-25" d="M69.38,88.37s9.19-1.83,7.39-13.67c0,0-.77-2-1.9-2.49"/>
              <path class="cls-25" d="M76.87,74.58s3.22-2.35-2-6.74"/>
            </g>
            <g>
              <path class="cls-26" d="M33.39,48.73A10.27,10.27,0,0,0,34.08,51s-6.94,4.68-1,13.28c0,0-6-2-3.85-10.15A12.36,12.36,0,0,1,33.39,48.73Z"/>
              <path class="cls-26" d="M31.77,64.34a4.13,4.13,0,0,1-1.56-1.44s-7.07,6.48-.56,13.41c0,0,2.68,3.07,7.86,1.24,0,0-7.13,1.68-7.95-4.24A8.94,8.94,0,0,1,31.77,64.34Z"/>
              <path class="cls-26" d="M30.42,77.89l2.18.59s-1.18,10.2,10.77,9.59a9.56,9.56,0,0,1-7.06,0S28.92,85.06,30.42,77.89Z"/>
              <path class="cls-26" d="M41.39,89.21s1-.23,2.3-.63c0,0,3.16,10.43,13.78,1.57a8.77,8.77,0,0,1-5.43,4S45.48,97,41.39,89.21Z"/>
              <path class="cls-26" d="M55.64,93.1A7.47,7.47,0,0,0,57,91.77s10,4.5,12.85-8A10.22,10.22,0,0,1,65,92.67,9.73,9.73,0,0,1,55.64,93.1Z"/>
              <path class="cls-26" d="M69.79,88s10.22-3.2,6-14.65c0,0,2.28,9-5.57,13.29Z"/>
            </g>
          </g>
          <g>
            <circle class="cls-27" cx="55.63" cy="66.13" r="19.61"/>
            <g>
              <g>
                <circle class="cls-28" cx="55.53" cy="66.42" r="17.31"/>
                <circle class="cls-29" cx="55.53" cy="66.36" r="15.03"/>
                <path class="cls-30" d="M68.9,73.22a14.47,14.47,0,0,0,.27-2.81,15,15,0,0,0-28.41-6.85A15,15,0,1,1,68.9,73.22Z"/>
              </g>
              <g>
                <circle class="cls-31" cx="55.8" cy="66.36" r="8.55"/>
                <circle class="cls-32" cx="52.28" cy="61.79" r="2.45"/>
                <circle class="cls-32" cx="55.63" cy="66.4" r="1.1"/>
                <path class="cls-33" d="M54.53,73.08a9.75,9.75,0,0,0,7.91-5.58S61.72,74.7,54.53,73.08Z"/>
              </g>
            </g>
          </g>
          <g>
            <path class="cls-24" d="M109,45.14,126.43,43s3.85,1.51,3.93,5.21c0,0,8.48,3.91,3.78,13.86,0,0,7.94,7.41.07,15,0,0,1.47,11.1-11.09,12,0,0-2.24,8-14,3.93,0,0-9.55,4.55-14.33-4.85,0,0-9.33-3.24-7.13-14,0,0-3.83-4.11,1.73-9.09S109,45.14,109,45.14Z"/>
            <g>
              <path class="cls-25" d="M130.59,47.64s.23,3.44-3.9,6.65"/>
              <path class="cls-25" d="M130.72,48.05s9.39,6.51,2.69,14.87a6,6,0,0,1-4.36,2"/>
              <path class="cls-25" d="M134.09,62.39s7.83,7.12.12,14.71c0,0-4.58,2.62-8.63,0"/>
              <path class="cls-25" d="M134.08,77.32s2,8.64-7.8,11.34c0,0-5.24,1-8.13-2.47"/>
              <path class="cls-25" d="M123.2,88.89s-4.63,10.29-15,3.35a10.17,10.17,0,0,1-2.86-4.74"/>
              <path class="cls-25" d="M109.06,93s-8.88,4.85-14.26-5A15.15,15.15,0,0,1,94,82.34"/>
              <path class="cls-25" d="M94.83,88.15s-9.19-1.83-7.39-13.67c0,0,.77-2,1.9-2.49"/>
              <path class="cls-25" d="M87.34,74.36s-3.22-2.35,2-6.74"/>
            </g>
            <g>
              <path class="cls-26" d="M130.82,48.51a10.27,10.27,0,0,1-.69,2.23s6.94,4.68,1,13.28c0,0,6-2,3.85-10.14A12.36,12.36,0,0,0,130.82,48.51Z"/>
              <path class="cls-26" d="M132.44,64.13A4.25,4.25,0,0,0,134,62.68s7.07,6.48.56,13.42c0,0-2.68,3.06-7.86,1.23,0,0,7.13,1.68,8-4.23A8.93,8.93,0,0,0,132.44,64.13Z"/>
              <path class="cls-26" d="M133.79,77.68l-2.18.58s1.18,10.21-10.77,9.59a9.59,9.59,0,0,0,7.06,0S135.29,84.84,133.79,77.68Z"/>
              <path class="cls-26" d="M122.82,89s-1-.23-2.3-.63c0,0-3.16,10.43-13.78,1.57a8.76,8.76,0,0,0,5.43,4S118.73,96.76,122.82,89Z"/>
              <path class="cls-26" d="M108.57,92.89s-1.27-1-1.4-1.34c0,0-10,4.51-12.85-8a10.22,10.22,0,0,0,4.87,8.93A9.74,9.74,0,0,0,108.57,92.89Z"/>
              <path class="cls-26" d="M94.42,87.74s-10.22-3.19-6-14.64c0,0-2.28,9,5.57,13.29Z"/>
            </g>
          </g>
          <g>
            <circle class="cls-27" cx="109.33" cy="66.42" r="19.61"/>
            <g>
              <g>
                <circle class="cls-28" cx="109.06" cy="66.42" r="17.31"/>
                <circle class="cls-29" cx="109.06" cy="66.36" r="15.03"/>
                <path class="cls-30" d="M122.44,73.22a15.3,15.3,0,0,0,.26-2.81,15,15,0,0,0-28.4-6.85,15,15,0,1,1,28.14,9.66Z"/>
              </g>
              <g>
                <circle class="cls-31" cx="109.33" cy="66.36" r="8.55"/>
                <circle class="cls-32" cx="105.81" cy="61.79" r="2.45"/>
                <circle class="cls-32" cx="109.17" cy="66.4" r="1.1"/>
                <path class="cls-33" d="M108.06,73.08A9.75,9.75,0,0,0,116,67.5S115.25,74.7,108.06,73.08Z"/>
              </g>
            </g>
          </g>
          <g>
            <path class="cls-34" d="M82,105.42s6-4.8,6-18.13c0,0-.19-6.91-6-6.18,0,0-5.28-1-6.24,6.28C75.76,87.39,75.37,98.72,82,105.42Z"/>
            <path class="cls-35" d="M82,102.9s4.8-4.31,4.78-16.26c0,0-.15-6.19-4.78-5.54,0,0-4.19-.93-5,5.63C77,86.73,76.7,96.89,82,102.9Z"/>
            <path class="cls-26" d="M81.35,81.17l.82,20.4.72-20.4S82.48,80.91,81.35,81.17Z"/>
          </g>
        </g>
        <g>
          <path class="cls-36" d="M85,74.89s-.61-23.69,28-33.76c0,0-4.11,2.36-3.62,4.42,0,0,1-3.65,13.44-4.42,0,0,4.82-.26,6.78-3.13,0,0,.54,2.31-2.58,3.59,0,0,16.81.47,20-4,0,0-5,7-16.85,8.47,0,0,3.39,1.19,4.88,1,0,0-3,1.79-12.84-1.08a7.11,7.11,0,0,0,6,3.08s-.82,1.39-12.69,1.13c0,0-6.37-.2-8.17,2,0,0,2.67-.93,5.75,1.54C113,53.77,99.17,50.24,85,74.89Z"/>
          <path class="cls-37" d="M85,74.89s1-13.5,16.8-20.9c0,0-2.62-.74-4,.3,0,0,5.8-7.44,21-6.88a4.51,4.51,0,0,0-3.8-2s3.5-1.9,17-1.44c0,0,8.42-.82,11.71-3.49,0,0-4.83,4.56-14.08,5.64,0,0,4.14,1.48,5,1,0,0-1.55,1.72-12.67-1.22,0,0,1.32,3.17,5.79,3.27,0,0-.1,1.34-12.43,1.18,0,0-5.58-.28-8,1.83a6.52,6.52,0,0,1,5.58,1.63S98.7,50.3,85,74.89Z"/>
        </g>
        <g>
          <path class="cls-36" d="M79.65,74.89S80.27,51.2,51.7,41.13c0,0,4.11,2.36,3.62,4.42,0,0-1-3.65-13.43-4.42,0,0-4.83-.26-6.78-3.13,0,0-.55,2.31,2.57,3.59,0,0-16.8.47-20-4,0,0,5,7,16.85,8.47,0,0-3.39,1.19-4.88,1,0,0,3.06,1.79,12.84-1.08a7.11,7.11,0,0,1-6,3.08s.83,1.39,12.69,1.13c0,0,6.38-.2,8.17,2,0,0-2.67-.93-5.75,1.54C51.65,53.77,65.47,50.24,79.65,74.89Z"/>
          <path class="cls-37" d="M79.65,74.89s-1-13.5-16.8-20.9c0,0,2.62-.74,4,.3,0,0-5.81-7.44-21-6.88a4.54,4.54,0,0,1,3.81-2s-3.51-1.9-17-1.44c0,0-8.41-.82-11.7-3.49,0,0,4.83,4.56,14.07,5.64,0,0-4.14,1.48-5,1,0,0,1.55,1.72,12.67-1.22,0,0-1.32,3.17-5.78,3.27,0,0,.1,1.34,12.43,1.18,0,0,5.57-.28,8,1.83a6.54,6.54,0,0,0-5.59,1.63S66,50.3,79.65,74.89Z"/>
        </g>
      </g>
      <g>
        <g>
          <ellipse class="cls-38" cx="51.73" cy="212.68" rx="6.58" ry="8.76"/>
          <path class="cls-39" d="M46.92,217.7s4,1.18,5-1.54c0,0-.77-8.07,2.41-11.41l1.49,1s1.83,11.62-.56,14.38C55.3,220.11,49.44,224.33,46.92,217.7Z"/>
          <path class="cls-40" d="M49.48,219.09s1.44-2.61,3.61,0c0,0,.92,4.78-2,5.65C51.09,224.74,48.48,223.17,49.48,219.09Z"/>
        </g>
        <g>
          <ellipse class="cls-38" cx="60.51" cy="213.15" rx="7.28" ry="10.2"/>
          <path class="cls-39" d="M55.3,218.88s5.55,3.75,5.75-.95c0,0-.87-8.76,3.24-13.18a2.54,2.54,0,0,1,1.4,1.9s2.6,14.65-3,15.91A5.85,5.85,0,0,1,55.3,218.88Z"/>
          <path class="cls-40" d="M58.1,219.3s1.7-3.08,4.27,0c0,0,1.08,5.65-2.36,6.68C60,226,56.92,224.13,58.1,219.3Z"/>
        </g>
        <g>
          <ellipse class="cls-38" cx="69.29" cy="213.98" rx="6.58" ry="8.76"/>
          <path class="cls-39" d="M75.87,214c0,4.84-2.94,8.59-6.58,8.59a5.3,5.3,0,0,1-4.67-2.73,9.37,9.37,0,0,0,3.06.67c3.63,0,5.7-3,5.7-7.86,0-2.77-.35-5.31-1.85-6.91C74.06,207,75.87,210.18,75.87,214Z"/>
          <path class="cls-40" d="M67.22,218.83s1.69-3.08,4.26,0c0,0,1.08,5.65-2.36,6.68C69.12,225.51,66,223.66,67.22,218.83Z"/>
        </g>
      </g>
      <g>
        <g>
          <ellipse class="cls-38" cx="112.45" cy="212.68" rx="6.58" ry="8.76"/>
          <path class="cls-39" d="M109.06,206.08s2.62,1.93,3.32,10.52c0,0,3.81,1.39,4.63-3.63,0,0,.93-5.36-1.56-7.9,0,0,3.79,2.37,3.43,8.75,0,0-.67,6-5.13,7.24,0,0-3.59.58-5.17-1.57Z"/>
          <path class="cls-40" d="M114.69,219.09s-1.43-2.61-3.6,0c0,0-.92,4.78,2,5.65C113.09,224.74,115.69,223.17,114.69,219.09Z"/>
        </g>
        <g>
          <ellipse class="cls-38" cx="103.67" cy="213.15" rx="7.28" ry="10.2"/>
          <path class="cls-39" d="M98.64,206.61s5,2.21,3.13,11.64c0,0,6,3.06,6.78-4.78,0,0,1.19-6.2-1.79-9.23,0,0,4.57,3,3.9,10.22,0,0-.67,7.22-6,8.7,0,0-3.6.3-5.5-2.26Z"/>
          <path class="cls-40" d="M106.08,219.3s-1.7-3.08-4.27,0c0,0-1.08,5.65,2.36,6.68C104.17,226,107.26,224.13,106.08,219.3Z"/>
        </g>
        <g>
          <ellipse class="cls-38" cx="94.88" cy="213.98" rx="6.58" ry="8.76"/>
          <path class="cls-39" d="M101.29,214c0,4.84-2.94,8.59-6.57,8.59a5.29,5.29,0,0,1-4.67-2.73,9.37,9.37,0,0,0,3,.67c3.64,0,5.7-3,5.7-7.86,0-2.77-.35-5.31-1.85-6.91C99.48,207,101.29,210.18,101.29,214Z"/>
          <path class="cls-40" d="M97,218.83s-1.69-3.08-4.26,0c0,0-1.08,5.65,2.36,6.68C95.06,225.51,98.14,223.66,97,218.83Z"/>
        </g>
      </g>
    </g>
  </g>
</svg>
