<svg id="Layer_1" data-name="Layer 1" xmlns="http://www.w3.org/2000/svg" width="302.55" height="291.6" viewBox="0 0 302.55 291.6">
  <defs>
    <style>
      .cls-1 {
        fill: #020202;
        opacity: 0.5;
      }

      .cls-2 {
        fill: #f7f2f0;
        stroke: #f4f2f3;
        stroke-miterlimit: 10;
        stroke-width: 8px;
      }

      .cls-3 {
        fill: #fcd6c5;
      }

      .cls-4 {
        fill: #ffbb34;
      }

      .cls-5 {
        fill: #f2a150;
      }

      .cls-6 {
        fill: #ffe952;
      }

      .cls-7 {
        fill: #fa8d5f;
      }

      .cls-8 {
        fill: #a34c29;
      }

      .cls-9 {
        fill: #e06531;
      }

      .cls-10 {
        fill: #5e2020;
      }
    </style>
  </defs>
  <g>
    <path class="cls-1" d="M290.08,266.73c-1-1.24-2.54-1.28-4-1.42a4.46,4.46,0,0,1-4.05-2.93l.05-.17a.31.31,0,0,0,0-.18,6,6,0,0,0-.32-.75h0l.51.1h0l-.61-.2a49.42,49.42,0,0,0,2.8-30.66,11.74,11.74,0,0,0-1-2.81l.21.05c-1.07-7.25-5.85-13.86-10.88-18.82a53.07,53.07,0,0,0-21.24-12.85c-1.88-.67-3.79-1.26-5.75-1.75a56.15,56.15,0,0,0-9.14-1.57,29.26,29.26,0,0,0-3.42.11l-.14,0a18.65,18.65,0,0,0-2.24-.21h-.61l-27.18-20.74-49-37.49L114.21,103.8l-6.36-4.87Q94.2,86.18,80.41,73.59,75,68.66,69.61,63.75l-.32-.29L68.8,63c.25-.89.5-1.79.73-2.7l.12-.45s0,0,0,0l-.23-.23-.32-.31h0c-.9-.88-1.8-1.75-2.73-2.6h0l-.6.15a1.83,1.83,0,0,0-.25.06l-2.75.67L61.11,58l-3.57.91-.25-.15-.12,0-.78.2-.55-.34L51.65,56,48.91,54.3a79.67,79.67,0,0,0,8,4.21c-3-1.86-5.94-3.87-8.9-5.8-3.72-2.42-7.41-4.9-11-7.48.26-2.82.58-5.63.92-8.44,0-.06,0-.11,0-.16.11-.8.23-1.61.35-2.41h0l-.17-.27h0c0-.23-.09-.48-.12-.68l-.07-.14a4.08,4.08,0,0,1-.34-.94h0a3,3,0,0,1-.06-.32h0a8.48,8.48,0,0,0,3.61-1.6,7.48,7.48,0,0,0,2-8.7,9,9,0,0,0-6.41-5.15l0,.05a.85.85,0,0,1,.1.28,1.36,1.36,0,0,1-1,1.55,4,4,0,0,1-2.29-.4,1.17,1.17,0,0,1-.51-1.93,1.8,1.8,0,0,1,1.36-.59,2.14,2.14,0,0,0-1.91.46,1.85,1.85,0,0,0-.43.58c-3.36.63-7.15,3.35-7.55,6.85-.5,4.53,3.11,7.48,7.3,8.48a6.53,6.53,0,0,1-.42,1.66,5.55,5.55,0,0,1-.24.56c-.07.16-.15.31-.23.46s0,.2,0,.3,0,.39,0,.59c.05,1.92.09,3.83.12,5.74h0l-4.62-3.3h0a25.69,25.69,0,0,0-3.79-1.3,24.28,24.28,0,0,0-5.9-.75c-4.19-.05-8.62,1-11.74,3.35H5a3.59,3.59,0,0,0-.68.54.77.77,0,0,0-.18.18h0a2.24,2.24,0,0,0-.27.34l.27.24.78.72c5.91,5.48,12,10.84,18,16.19q3.55,3.16,7.12,6.32c-.18,2.17-.35,4.34-.47,6.52,0,.34,0,.67-.06,1,.3.23.61.45.93.65a5.2,5.2,0,0,0,4.65.88,4.15,4.15,0,0,0,1-.57c0-.22,0-.44,0-.65,0-.8.06-1.6.07-2.41,2.93,2.59,5.91,5.12,8.82,7.74,30.52,27.38,56.58,47.82,81.42,69.08,24.61,21,47.2,43.36,72.26,64a44.19,44.19,0,0,0-3.12,5.18,43.33,43.33,0,0,0-2.45,5.66c-6.26,17.56.08,37.39,11,50.72,10.49,12.81,26.86,19.67,42.7,17a46.93,46.93,0,0,0,27.87-16l.78.43h0s0,0,0,0a.2.2,0,0,0,.15,0l.06,0a2,2,0,0,1,.61-.2c.64-.07,1.06.39,1.39,1.05.08.17.16.34.23.53A15.08,15.08,0,0,0,279,277a5.68,5.68,0,0,0,3.58,2.2c2.95.52,5.85-1.35,7.29-3.95C291.21,272.84,292,269,290.08,266.73ZM33,46.29l-.53-.44-.06,0-.06,0h0s0,0,.06,0l.06,0,.53.43.13.1Zm1.87.88a1.43,1.43,0,0,1-.28-.07L34.28,47,34,46.91a5.52,5.52,0,0,1-.54-.28l-.25-.17.25.16a5.52,5.52,0,0,0,.54.28l.27.12.28.08.28.06.28,0A1.32,1.32,0,0,1,34.84,47.17Zm.83,0h0l.26-.06A1.1,1.1,0,0,1,35.67,47.17Zm1.14-.4h-.2l.2,0ZM42,49.85c-1.58-1-3.16-2-4.73-3.09,0-.15,0-.3,0-.45,3,2.16,6,4.35,9.14,6.39Zm171.12,147-.18-.17c-10.19-10-20.65-19.68-31.12-29.39Q148,136,114.4,104.49l-.35-.33,39.86,30.67,48.87,37.61,25.89,20A35.61,35.61,0,0,0,213.07,196.8Z"/>
    <path class="cls-2" d="M293.62,259c-1-1.23-2.49-1.26-3.94-1.4a4.35,4.35,0,0,1-4-2.9l0-.18a.31.31,0,0,0,0-.18,6.92,6.92,0,0,0-.31-.74h0l.5.1h0l-.6-.2a50.22,50.22,0,0,0,2.9-30.64,11.73,11.73,0,0,0-.95-2.8c.19,0,.22.06.22,0-1-7.23-5.69-13.82-10.62-18.74a51.24,51.24,0,0,0-20.82-12.74q-2.76-1-5.64-1.72a54.17,54.17,0,0,0-9-1.52,26.78,26.78,0,0,0-3.36.13l-.14,0a18.17,18.17,0,0,0-2.2-.2h-.6l-26.62-20.59-48-37.21L121.49,97.14l-6.24-4.83Q101.89,79.63,88.4,67.13q-5.28-4.9-10.58-9.78l-.31-.28c-.16-.15-.31-.3-.48-.44.25-.9.5-1.8.73-2.71l.12-.45s0,0,0,0l-.22-.22-.32-.31h0c-.88-.87-1.76-1.74-2.67-2.58h0l-.59.15-.24.06-2.71.68-1.63.43c-1.18.31-2.35.61-3.52.93-.08,0-.16-.09-.24-.15l-.13,0-.76.21-.54-.34L60.2,49.72,57.51,48a75.12,75.12,0,0,0,7.88,4.17c-3-1.84-5.82-3.83-8.72-5.75C53,44,49.4,41.57,45.86,39c.27-2.81.59-5.62.94-8.44a.77.77,0,0,0,0-.15L47.18,28h0L47,27.73h0c0-.23-.08-.48-.11-.67a1,1,0,0,1-.07-.15A4.48,4.48,0,0,1,46.5,26h0l-.06-.32h0A8.43,8.43,0,0,0,50,24a7.59,7.59,0,0,0,2-8.69,8.81,8.81,0,0,0-6.28-5.12l0,.05a1.15,1.15,0,0,1,.09.28,1.37,1.37,0,0,1-1,1.55,3.72,3.72,0,0,1-2.24-.39,1.22,1.22,0,0,1-.8-1.34,1.25,1.25,0,0,1,.3-.58,1.81,1.81,0,0,1,1.34-.6,2.09,2.09,0,0,0-1.88.48,1.82,1.82,0,0,0-.42.57c-3.31.65-7,3.38-7.45,6.88-.52,4.52,3,7.45,7.13,8.43a6.71,6.71,0,0,1-.42,1.67c-.07.18-.15.38-.24.56s-.15.3-.23.46,0,.19,0,.29,0,.4,0,.6c0,1.91.07,3.82.08,5.73h0l-4.53-3.27s0,0,0,0a23.7,23.7,0,0,0-3.72-1.28A23.37,23.37,0,0,0,26,29.56c-4.13,0-8.49,1-11.56,3.4h0a4,4,0,0,0-.68.54,1.45,1.45,0,0,0-.17.18s0,0,0,0h0c-.09.11-.18.22-.26.34l.26.24.77.72C20.14,40.45,26.07,45.77,32,51.1l7,6.27c-.19,2.17-.37,4.34-.5,6.52l-.06,1c.3.23.61.45.92.65a5,5,0,0,0,4.56.85,4,4,0,0,0,1-.57c0-.22,0-.43,0-.65,0-.8.06-1.6.09-2.41q4.29,3.85,8.62,7.69c26.09,23.08,52.32,46,78.43,69,23.92,21.13,47.5,42.65,72,63.15a43.18,43.18,0,0,0-3.09,5.18,45.31,45.31,0,0,0-2.44,5.66c-6.23,17.58-.1,37.34,10.58,50.61,10.25,12.74,26.32,19.52,41.9,16.77a46.53,46.53,0,0,0,27.48-16.08l.76.44h0l0,0a.16.16,0,0,0,.15,0l.06,0a1.84,1.84,0,0,1,.6-.2c.63-.07,1,.38,1.36,1,.08.17.15.34.22.53a14.76,14.76,0,0,0,1.07,2.76,5.45,5.45,0,0,0,3.5,2.18c2.9.51,5.76-1.38,7.18-4C294.71,265.14,295.45,261.29,293.62,259ZM41.88,40.09l-.52-.44,0,0-.06,0h0l.06,0,.06,0,.51.43.13.09Zm1.84.87a2.8,2.8,0,0,1-.28-.06l-.27-.09-.27-.11c-.18-.07-.35-.19-.53-.27l-.24-.17.24.16c.18.09.35.21.53.28l.27.11.27.08a1.4,1.4,0,0,0,.28.06L44,41Zm.81,0h-.07l.07,0,.26-.05Zm1.12-.41-.19,0h0l.2,0Zm5,3.06c-1.54-1-3.1-2-4.63-3.07l0-.45c3,2.15,5.92,4.31,8.95,6.34Zm167.55,146-.17-.17c-10-9.94-20.22-19.57-30.47-29.21q-33-31.09-65.94-62.36l-.34-.32,39,30.44,47.88,37.33,25.35,19.84A34.64,34.64,0,0,0,218.24,189.57Z"/>
    <g>
      <path class="cls-3" d="M37.9,39.35l-.53-.44-.06,0-.06,0h0s0,0,.06,0l.06,0,.53.44.12.09A.94.94,0,0,1,37.9,39.35Zm1.85.9a1.64,1.64,0,0,1-.28-.07l-.27-.08L38.93,40a4,4,0,0,1-.54-.29l-.25-.17.25.17a5.52,5.52,0,0,0,.54.28l.27.12.28.09a1.27,1.27,0,0,0,.28.06,1.17,1.17,0,0,0,.27,0Zm.83,0h0l.27-.05Zm1.14-.36h0ZM46.83,43c-1.56-1-3.14-2.07-4.69-3.12l0-.44c3,2.18,6,4.37,9.07,6.43Z"/>
      <g>
        <path class="cls-4" d="M221.15,196.37a2.82,2.82,0,0,0-2.09-.38,1.53,1.53,0,0,0-.11,2.92,1.79,1.79,0,0,0,2.67-1.13A1.65,1.65,0,0,0,221.15,196.37Z"/>
        <path class="cls-4" d="M223.25,213.66a.11.11,0,0,1-.08,0c-1-.79-2.36-1.07-3.22,0a2.11,2.11,0,1,0,3.72,1.87A2,2,0,0,0,223.25,213.66Z"/>
        <path class="cls-4" d="M246.41,231.84a2.71,2.71,0,0,0-3.22.16,2.5,2.5,0,0,0,.47,3.9,2.46,2.46,0,0,0,2.75-4.06Z"/>
        <path class="cls-4" d="M284.88,224.77a3.45,3.45,0,0,0-.62-1.52c-.7-.69-1.59-1.31-2.43-.45s-.26,2.38.53,3.17c.52.54,1.49,1.21,2.16.52A2,2,0,0,0,284.88,224.77Z"/>
        <path class="cls-4" d="M264.91,233.84a2.35,2.35,0,0,0-1.68,3.07c.48,1.3,2.28,2.25,3.51,1.27s.86-2.44.22-3.61A2.15,2.15,0,0,0,264.91,233.84Z"/>
      </g>
      <g>
        <path class="cls-5" d="M278.06,204.5a57.43,57.43,0,0,0-13.46-10.8,79,79,0,0,0-10.33-4.34,59,59,0,0,0-12.84-3,41.12,41.12,0,0,0-4.57-.22l16.75,12.93c1.19-.71,2.38-1.42,3.57-2.11l.69-.4.36.15a22.77,22.77,0,0,1,3.35,1.77l0,0a1.37,1.37,0,0,1,.2.13v0a2.5,2.5,0,0,0-.07.26c-.28,1-.56,2-.85,3-.16.53-.3,1.08-.46,1.63,0,.13-.07.25-.1.37h0a22,22,0,0,1,2,4.27l.06.18-.43.28-1.11.7,10.33,19.94c.32-.14.63-.28.93-.43l.3-.15.11-.06.42-.22a18.75,18.75,0,0,0,2.34-1.57,14.22,14.22,0,0,0,3.12-19s0,0,0,0a14.52,14.52,0,0,1,.38,17.4,15.72,15.72,0,0,1-5.3,4.48l-.29.15L273,230l-.11.05-1,.47,4.48,8.65a20.62,20.62,0,0,0,4-2.66,19.3,19.3,0,0,0,4.1-4.9C289.9,222.22,284.61,211.66,278.06,204.5Zm4.23,21.9c-1-.93-1.86-2.67-.68-3.83s2.83.14,3.35,1.33c0,0,0,0,0,0a3,3,0,0,1,.27,1.83C284.92,227.44,283.33,227.37,282.29,226.4Z"/>
        <path class="cls-5" d="M256,232a48.85,48.85,0,0,1-23.73-9.83c-5.51-4.38-9.91-9.79-10.7-16.18a14.58,14.58,0,0,1,9.57-15.09c.06,0,.11,0,0,.07-5.53,2.84-8.68,8.19-8.55,13.39.15,5.9,4.13,11.27,8.87,15.44a46.78,46.78,0,0,0,19.89,10c6.09,1.46,13,2,18.92-.19L259.9,210q-2.43,1.53-4.9,3c-1.85,1.13-3.7,2.32-5.59,3.44h0a0,0,0,0,0,0,0l-.4.23-.07,0-.05-.12-.36-.26c-1.84-1.28-3.63-2.63-5.41-4l-2-1.48-.71-.54c.22-.17.46-.33.7-.48.48-.3,1-.56,1.45-.81a20.17,20.17,0,0,1,1.87-.89c.43-1.26.88-2.51,1.3-3.77,0-.11.07-.23.11-.35l.12-.37.32-.21.09-.05c2-1.22,4-2.35,5.92-3.52l.19-.12-17.36-13.52c-.41,0-.81.05-1.22.09a23.91,23.91,0,0,0-13,5.17l-.38.33a19.2,19.2,0,0,0-3,3.32,16.93,16.93,0,0,0-2.72,5.86c0,.14-.06.27-.1.41a18.8,18.8,0,0,0,1.26,11.8,49.45,49.45,0,0,0,7.46,11.36,59.29,59.29,0,0,0,35.77,17.28,32,32,0,0,0,16.39-2.34l-4.59-8.68A32.27,32.27,0,0,1,256,232ZM218.81,199.3a1.88,1.88,0,0,1-.7-3,2.23,2.23,0,0,1,2.69-.49,2.17,2.17,0,0,1,.78.55,2.26,2.26,0,0,1,.25.29s0,.05,0,.07a1.89,1.89,0,0,1,.2,1.17C221.81,199.46,220.08,199.88,218.81,199.3Zm1.84,17.95a2.49,2.49,0,0,1-.94-3.73,2.3,2.3,0,0,1,2.95-.61,2.27,2.27,0,0,1,1.49,2.47A2.52,2.52,0,0,1,220.65,217.25Zm23.09,19.08a2.82,2.82,0,0,1-1-4.11,2.75,2.75,0,0,1,3.34-1,2.83,2.83,0,0,1,1.75,3.17A2.86,2.86,0,0,1,243.74,236.33Zm24.11,1.09a2.15,2.15,0,0,1-.83,1.2,2.92,2.92,0,0,1-4.29-1.52,2.87,2.87,0,0,1,1.95-3.65,2.62,2.62,0,0,1,2.9,1.28A2.8,2.8,0,0,1,267.85,237.42Z"/>
      </g>
      <g>
        <path class="cls-6" d="M261.19,206.35c-.3-.72-.62-1.43-.95-2.13a1.14,1.14,0,0,0-.1-.19l-.5.31-1,.63,2.13,4.12,1.17-.68C261.7,207.72,261.47,207,261.19,206.35Z"/>
        <path class="cls-6" d="M259.78,203.91c.05-.13.08-.25.12-.36s.05-.15.08-.22c.18-.52.36-1,.52-1.54q.48-1.46,1-2.91-2.26,1.44-4.55,2.83l0,0,1.51,2.92Z"/>
        <path class="cls-6" d="M261.21,198.72c-1.22-.51-2.46-1-3.66-1.56-1.19.75-2.38,1.48-3.58,2.22l2.64,2Q258.9,200,261.21,198.72Z"/>
        <path class="cls-6" d="M247.67,211.92l0-.22.1-.06c.06-.24.12-.49.19-.73l.15-.59h0c.35-1.32.74-2.64,1.19-3.92l.18-.5-.21-.11-1.88-1c-.37-.2-.76-.39-1.15-.59a22.93,22.93,0,0,1-1.09,3.69c-.1.24-.2.49-.31.73l-.67.39-1,.6c-.41.25-.83.52-1.26.8l2.12,1.66,1,.79.19.15c1.13.89,2.26,1.78,3.37,2.7a19.73,19.73,0,0,1-.81-3.33C247.72,212.24,247.69,212.08,247.67,211.92Z"/>
        <path class="cls-6" d="M249.59,205.54l0,0,.66-.41c1.57-1,3.17-1.86,4.74-2.79l.46-.28-2.61-2-.1.06c-2,1.21-4,2.49-6,3.66.29.19.58.38.87.55Z"/>
        <path class="cls-6" d="M255.86,202.38l-.37.22c-1.78,1.08-3.55,2.22-5.35,3.29l-.07,0-.07.25c-.43,1.48-1,2.95-1.52,4.39,1.71-1,3.47-2,5.18-3.07,1.26-.75,2.51-1.49,3.77-2.22l-1.5-2.85Z"/>
        <path class="cls-6" d="M254.14,207.74c-1.94,1.18-3.86,2.42-5.83,3.57.34,1.51.69,3,1,4.52,1.73-1.06,3.5-2.06,5.23-3.09s3.48-2.06,5.22-3.07l-2.14-4.06C256.45,206.32,255.3,207,254.14,207.74Z"/>
        <path class="cls-6" d="M58.23,59.25l.09-.28-.35-.3-.29-.24c-.74-.62-1.47-1.25-2.2-1.89-.11.46-.23.92-.35,1.38s-.17.69-.26,1l-.09.38c0,.18-.08.35-.13.53s-.06.28-.1.43l-.24,1,.35.39c.34.37.67.74,1,1.13l.47.54c.23.26.45.53.67.79.08-.31.17-.62.26-.93,0-.16.09-.32.13-.49s.09-.31.13-.47.18-.62.28-.92C57.8,60.61,58,59.93,58.23,59.25Z"/>
        <path class="cls-6" d="M75.12,54.91c-.57.16-1.13.31-1.7.45-1.41.38-2.81.75-4.23,1.1l3,2.3,3.91-.86.4-.09c.12-.43.25-.87.38-1.31.22-.75.45-1.49.68-2.24Z"/>
        <path class="cls-6" d="M68.65,55.88c1.42-.34,2.86-.66,4.29-1l1.75-.39,2.78-.6h0c-1-.83-2-1.67-2.92-2.53l-2.58.7-1.59.42-3.2.84-.32.08-1,.26-.2,0,2.83,2.19Z"/>
        <path class="cls-6" d="M67.67,56.11l-2.4-1.87-.41-.31L60,55.14l-.44.11-.7.17c-.92.22-1.84.49-2.77.74.75.7,1.48,1.41,2.21,2.13l.26-.06.7-.15,2.07-.46Z"/>
        <path class="cls-6" d="M68.38,56.66c-2.19.56-4.38,1.1-6.58,1.64-.91.22-1.83.48-2.76.74h0c0,.13-.07.26-.1.39-.22.8-.44,1.6-.68,2.39a.93.93,0,0,1,.15.13c1.21-.29,2.44-.52,3.62-.81,2.44-.59,4.88-1.16,7.33-1.74l2-.46-2.54-2Z"/>
      </g>
      <g>
        <path class="cls-7" d="M42.78,13.27a3.94,3.94,0,0,0,2.25.45,1.29,1.29,0,0,0,1-1.47A1,1,0,0,0,46,12l-.05-.09a8.61,8.61,0,0,1-.83-.49,3.64,3.64,0,0,0-1.13-.48,1.8,1.8,0,0,0-1.65.5A1.15,1.15,0,0,0,42,12C41.89,12.42,42.09,12.91,42.78,13.27Z"/>
        <path class="cls-8" d="M46.52,25.34l.38-.06c3.21-.61,6.06-2.69,5.64-6.45s-3.18-5.5-6.23-6.71a1.57,1.57,0,0,1-.06,1.27c-.64,1.25-2.4.89-3.43.43a2,2,0,0,1-1.26-1.71,17.32,17.32,0,0,0-3.71,1.33,6,6,0,0,0-3.27,5.3c.24,3.49,3.51,5.43,6.75,6.25l.43.1a15.39,15.39,0,0,0,2.57.36A10.76,10.76,0,0,0,46.52,25.34Z"/>
        <path class="cls-5" d="M42,40.64l.24.17c.18.09.35.21.53.28l.27.11.27.09.28.06a1.26,1.26,0,0,0,.27,0,2.62,2.62,0,0,0,.28,0,2.28,2.28,0,0,0,.26,0,3,3,0,0,0,.52-.13l.23-.11.11-.06.07,0h.2c0-.16,0-.32,0-.47l0-.35.15-1.33c.37-3.29.79-6.56,1.32-9.83a4.45,4.45,0,0,1-.7-2.51,13.59,13.59,0,0,1-4.44-.2,4.09,4.09,0,0,1-.48,2.16,32.62,32.62,0,0,0,4.72.84s0,.05,0,.05a17.11,17.11,0,0,1-5.2-.23h0c.09,2.12.13,4.24.14,6.36v1c0,.14,0,.28,0,.43,0,1,0,2,0,3l.12.08.52.43Z"/>
        <path class="cls-7" d="M45.39,42.38h0a3.16,3.16,0,0,1-.79.2,2.83,2.83,0,0,1-.41,0,2.67,2.67,0,0,1-.4,0,2.63,2.63,0,0,1-.39-.06,2.33,2.33,0,0,1-.38-.08l-.38-.12-.35-.15a6,6,0,0,1-.66-.35l-.32-.22-.17-.12,0,2.29a5,5,0,0,0,.7.67,3,3,0,0,0,3.35.48C45.21,44.1,45.3,43.24,45.39,42.38Z"/>
        <path class="cls-5" d="M44.09,61l-3.55-3.16c-.17,2-.4,3.93-.72,5.88a6.48,6.48,0,0,0,4.37,1C44.12,63.41,44.09,62.18,44.09,61Z"/>
      </g>
      <g>
        <path class="cls-9" d="M50.77,44.11l4.36,2.83c-3-2-6-4.19-9-6.33,0,.14,0,.29,0,.43Z"/>
        <path class="cls-9" d="M64.39,52.84l.54.34.76-.18.21,0a81.69,81.69,0,0,1-8.31-4.42l2.69,1.71Z"/>
        <path class="cls-9" d="M91.5,72.47C86.62,67.93,81.78,63.33,77,58.73l-.49-.47-.11,0-3.57,1,26.7,20.67Z"/>
        <path class="cls-8" d="M105.42,85.43,72,59.45l-.48.13-2,.51c-2.34.59-4.67,1.17-7,1.74-1.07.26-2.15.58-3.24.86l2.24,1.94Q70,72,78.52,79.47q16.91,14.76,33.62,29.74,33.49,30.08,67.3,59.82c9.88,8.73,19.75,17.45,29.39,26.42l0,0a39.25,39.25,0,0,1,8.64-6.26c-20.4-17.93-40-36.82-59.83-55.33Q131.59,109.62,105.42,85.43Z"/>
        <path class="cls-9" d="M81.29,84.39c-6.24-5.54-12.42-11.13-18.61-16.72-1.62-1.48-3.26-3-4.89-4.43-.11.36-.23.72-.35,1.08,0,.14-.09.27-.13.41s-.16.49-.25.74l-.5-.41c-.91-.74-1.81-1.5-2.68-2.27h0L53,62c.15-.54.32-1.09.5-1.62l.28-.81c-2.77-2.54-5.52-5.1-8.22-7.7l-1-.95c0-.17,0-.35,0-.52l1,.77c2.13,1.72,4.24,3.48,6.34,5.26l.57.48,1.71,1.45c.07-.22.15-.43.22-.65.13-.41.27-.82.4-1.22.05-.15.09-.3.14-.44s.13-.39.19-.59l.16,0,.51-.11h0c.86-.19,1.73-.36,2.57-.57l1.48-.35.35-.08,3.85-.91-4.13-2.58c-1.6-1-3.21-2-4.82-3l-.39-.23-4.44-2.71c-1.42-.84-2.83-1.7-4.25-2.53-.05.68-.11,1.37-.15,2,0,.21,0,.41,0,.61a2.88,2.88,0,0,1-.76.53,3.42,3.42,0,0,1-2.07.24,4,4,0,0,1-1.93-1,4.78,4.78,0,0,1-.71-.84v0c0-.37,0-.74,0-1.12,0-.6.05-1.21.06-1.82h0a.61.61,0,0,1-.08-.87.58.58,0,0,1,.12-.1c0-1.17,0-2.33,0-3.5-1.91-1.4-3.81-2.8-5.73-4.19h0a27.59,27.59,0,0,0-8.62-1.7A21.91,21.91,0,0,0,18.11,32c1.9.31,3.66,1.62,5.14,2.7,5.52,4.06,10.91,8.34,16.3,12.58.05,0,0,.1,0,.07-4.32-3-8.55-6-12.85-9-2.58-1.79-8.12-6.75-11.32-4.38,5.25,4.34,10.41,8.79,15.55,13.21q4.32,3.72,8.63,7.45l1.18,1,3.42,3,1.28,1.1,5.25,4.56,1.65,1.44.15.13Q71.11,82.11,89.59,98.51q38.84,34.51,78,68.74c12.44,10.92,24.87,21.82,37,33a41.91,41.91,0,0,1,3.66-4.19c-20.19-16.91-39.62-34.72-59.35-52.15C126.39,124.05,103.77,104.3,81.29,84.39Z"/>
        <path class="cls-9" d="M293.92,259.67a3.26,3.26,0,0,0-2-2.61,19.6,19.6,0,0,0-3.06-.43,4.35,4.35,0,0,1-3.36-3.69h0c-.14-.1-.28-.19-.41-.3-.31-.22-.6-.44-.88-.66l-.43-.32c-.55-.43-1.09-.87-1.61-1.33l1.92,3.7.49-.36.7-.44a0,0,0,0,1,0,0c-.32.27-.62.55-.91.83l-.19.19a.39.39,0,0,1-.18.45.39.39,0,0,1-.28,0c-.32.35-.62.71-.9,1.07l-.13.17a16.73,16.73,0,0,0-2.44,4.51h0c-.2.53-.37,1.08-.52,1.64a1.65,1.65,0,0,1,1.14,0c1.14.36,1.49,1.47,1.76,2.5,0,.06,0,.11.05.16a1.39,1.39,0,0,0,.06.19c1.49,4.59,7.19,4.45,9.79.71A8.2,8.2,0,0,0,293.92,259.67Z"/>
        <path class="cls-9" d="M282.48,255.39l.16-.15c.26-.25.52-.49.79-.72l-2.55-4.84-.2.08a8.61,8.61,0,0,0-4.05,3.56,15.73,15.73,0,0,0-1.83,5.84c1,.62,2.05,1.3,3.05,2l.84.62a14.18,14.18,0,0,1,1.44-3.35,14.61,14.61,0,0,1,1.62-2.27C282,255.9,282.23,255.64,282.48,255.39Z"/>
      </g>
      <g>
        <path class="cls-8" d="M287.75,222.94a17.77,17.77,0,0,1-.83,5.33,19.06,19.06,0,0,1-6.06,8.92,24.54,24.54,0,0,1-4.09,2.78l5,9.66.56.45c.66.52,1.34,1,2.05,1.47A45.71,45.71,0,0,0,287.75,222.94Z"/>
        <path class="cls-8" d="M273.89,259.66c0-.31.09-.62.14-.94.69-4,2.8-8.51,6.47-9.5l.12,0L276,240.38a31.55,31.55,0,0,1-11.16,3.13c-9.83.89-19.89-2-28.43-6.76a53.88,53.88,0,0,1-15.93-13.45,28.46,28.46,0,0,1-5.36-8c-.21-.48-.41-1-.59-1.46l-.21-.44s0-.06,0-.08a22.27,22.27,0,0,1-.92-13c0-.17.09-.35.14-.52a16.77,16.77,0,0,1,1.17-3,18.68,18.68,0,0,1,4.86-5.9l.46-.36a24.85,24.85,0,0,1,5.82-3.31,38.57,38.57,0,0,0-6.59,2.56c-.2.09-.41.2-.61.31a38.17,38.17,0,0,0-8.78,6.2c-.2.18-.39.37-.58.56a38.46,38.46,0,0,0-3.71,4.23l-.36.5a38,38,0,0,0-2.93,4.75c-7.87,15.28-4.6,34.85,5.18,48.24,9.17,12.54,23.05,21,38.26,20.88a43.92,43.92,0,0,0,31.49-13.72q-1.34-.8-2.61-1.68Z"/>
      </g>
      <g>
        <path class="cls-10" d="M282.29,226.4c1,1,2.63,1,2.93-.63a3,3,0,0,0-.27-1.83s0,0,0,0c-.52-1.19-2.15-2.52-3.35-1.33S281.28,225.47,282.29,226.4Zm-.46-3.6c.84-.86,1.73-.24,2.43.45a3.45,3.45,0,0,1,.62,1.52,2,2,0,0,1-.36,1.72c-.67.69-1.64,0-2.16-.52C281.57,225.18,280.88,223.76,281.83,222.8Z"/>
        <path class="cls-10" d="M267,238.62a2.15,2.15,0,0,0,.83-1.2,2.8,2.8,0,0,0-.27-2.69,2.62,2.62,0,0,0-2.9-1.28,2.87,2.87,0,0,0-1.95,3.65A2.92,2.92,0,0,0,267,238.62Zm.73-2.75a.13.13,0,0,1,0,.06s0,0,0-.06Zm-2.84-2a2.15,2.15,0,0,1,2,.73c.64,1.17,1,2.66-.22,3.61s-3,0-3.51-1.27A2.35,2.35,0,0,1,264.91,233.84Z"/>
        <path class="cls-10" d="M243.74,236.33a2.86,2.86,0,0,0,4.08-2,2.83,2.83,0,0,0-1.75-3.17,2.75,2.75,0,0,0-3.34,1A2.82,2.82,0,0,0,243.74,236.33Zm-.55-4.33a2.71,2.71,0,0,1,3.22-.16,2.46,2.46,0,0,1-2.75,4.06A2.5,2.5,0,0,1,243.19,232Z"/>
        <path class="cls-10" d="M293.66,257.5c-1-1.21-2.49-1.28-3.94-1.45a4.46,4.46,0,0,1-4-2.9h0l-.06-.21a6.45,6.45,0,0,1-.12-.66h0l-.15-.09h0l-.14-.08a45.88,45.88,0,0,0,3-29.29q-.31-1.34-.72-2.64h0v0c-1-7-5.67-13.41-10.59-18.27a53.62,53.62,0,0,0-20.81-12.81c-1.85-.68-3.73-1.29-5.65-1.81a56.91,56.91,0,0,0-9-1.71c-1.1-.12-2.21-.19-3.3-.22h0a20.57,20.57,0,0,0-2.2-.25c-.2,0-.4,0-.6,0l-26.59-20.51-47.91-37.09L121.84,97.21l-6.23-4.82Q102.28,79.87,88.8,67.47q-5.26-4.86-10.55-9.69l-.31-.28-.47-.44c.25-.86.49-1.71.73-2.57l.12-.44a.09.09,0,0,1,0,0l-.22-.21-.32-.31h0c-.8-.78-1.6-1.55-2.42-2.31l-.26-.24-.6.13-.24.05-2.71.58L69.93,52c-1.17.26-2.35.52-3.52.8l-.31-.2c-3-1.9-6-4-9-5.94-3.64-2.41-7.26-4.87-10.8-7.43.33-3.24.75-6.48,1.19-9.72,0-.15,0-.3.07-.45s.07-.53.1-.8a4.82,4.82,0,0,1-.35-.63,4.48,4.48,0,0,1-.4-1.22A8.55,8.55,0,0,0,50.53,25a7,7,0,0,0,2-8.3,9.09,9.09,0,0,0-6.69-5.18,1.21,1.21,0,0,0-.3-.2c-1-.77-2.46-1.21-3.44-.35a1.7,1.7,0,0,0-.43.53c-3.31.54-7.07,3-7.48,6.4-.53,4.33,3,7.24,7.12,8.3a6.28,6.28,0,0,1-.43,1.58q-.11.27-.24.54l-.23.43c0,.1,0,.19,0,.29s0,.38,0,.57c0,1.83.06,3.67.07,5.51l-1-.72L36,31.84h0a25.4,25.4,0,0,0-3.72-1.33,24.49,24.49,0,0,0-5.8-.86c-4.13-.14-8.49.76-11.58,2.94h0a3.3,3.3,0,0,0-.67.49,1,1,0,0,0-.18.17h0a2.69,2.69,0,0,0-.27.32l.27.25.75.7c5.78,5.39,11.71,10.67,17.6,16l6.95,6.22c-.19,2.07-.37,4.16-.51,6.24l-.06,1c.29.23.6.45.91.65a5.28,5.28,0,0,0,4.57.94,4,4,0,0,0,1-.52c0-.21,0-.42,0-.63,0-.77.07-1.53.09-2.31q4.31,3.83,8.62,7.63c26,22.89,52.23,45.63,78.29,68.5,23.87,20.94,47.4,42.27,71.89,62.62l0,0a42.56,42.56,0,0,0-5.56,10.25c-6.29,16.71-.2,35.86,10.45,48.9,10.22,12.52,26.29,19.48,41.89,17.28a45.63,45.63,0,0,0,27.54-14.67h0l.75.43h0l0,0a.14.14,0,0,0,.14,0l.06,0a1.72,1.72,0,0,1,.6-.17c.63-.06,1,.39,1.36,1,.08.16.15.33.22.51a13.82,13.82,0,0,0,1.06,2.69,5.67,5.67,0,0,0,3.5,2.19,7.07,7.07,0,0,0,7.2-3.63C294.73,263.39,295.48,259.71,293.66,257.5Zm-9.27-5.95c-.71-.46-1.39-1-2.05-1.47l-.56-.45-5-9.66a24.54,24.54,0,0,0,4.09-2.78,19.06,19.06,0,0,0,6.06-8.92,17.77,17.77,0,0,0,.83-5.33A45.71,45.71,0,0,1,284.39,251.55Zm-43-65.16a59,59,0,0,1,12.84,3,79,79,0,0,1,10.33,4.34,57.43,57.43,0,0,1,13.46,10.8c6.55,7.16,11.84,17.72,6.35,27.06a19.3,19.3,0,0,1-4.1,4.9,20.62,20.62,0,0,1-4,2.66l-4.48-8.65,1-.47L273,230l.23-.12.29-.15a15.72,15.72,0,0,0,5.3-4.48,14.52,14.52,0,0,0-.38-17.4s0,0,0,0a14.22,14.22,0,0,1-3.12,19,18.75,18.75,0,0,1-2.34,1.57l-.42.22-.11.06-.3.15c-.3.15-.61.29-.93.43l-10.33-19.94,1.11-.7.43-.28-.06-.18a22,22,0,0,0-2-4.27h0c0-.12.07-.24.1-.37.16-.55.3-1.1.46-1.63.29-1,.57-2,.85-3a2.5,2.5,0,0,1,.07-.26v0a1.37,1.37,0,0,0-.2-.13l0,0a22.77,22.77,0,0,0-3.35-1.77l-.36-.15-.69.4c-1.19.69-2.38,1.4-3.57,2.11l-16.75-12.93A41.12,41.12,0,0,1,241.43,186.39Zm4.78,17.82c.39.2.78.39,1.15.59l1.88,1,.21.11-.18.5c-.45,1.28-.84,2.6-1.19,3.92h0l-.15.59c-.07.24-.13.49-.19.73l-.1.06,0,.22c0,.16.05.32.07.47a19.73,19.73,0,0,0,.81,3.33c-1.11-.92-2.24-1.81-3.37-2.7l-.19-.15-1-.79-2.12-1.66c.43-.28.85-.55,1.26-.8l1-.6.67-.39c.11-.24.21-.49.31-.73A22.93,22.93,0,0,0,246.21,204.21ZM257,201.75l0,0q2.28-1.4,4.55-2.83-.51,1.45-1,2.91c-.16.51-.34,1-.52,1.54,0,.07-.05.14-.08.22s-.07.23-.12.36l-1.31.76Zm.47,3.53c-1.26.73-2.51,1.47-3.77,2.22-1.71,1-3.47,2-5.18,3.07.56-1.44,1.09-2.91,1.52-4.39l.07-.25.07,0c1.8-1.07,3.57-2.21,5.35-3.29l.37-.22.07.05Zm-.82-3.87-2.64-2c1.2-.74,2.39-1.47,3.58-2.22,1.2.56,2.44,1.05,3.66,1.56Q258.9,200,256.61,201.41Zm-1.13.67-.46.28c-1.57.93-3.17,1.84-4.74,2.79l-.66.41,0,0-1.93-1.22c-.29-.17-.58-.36-.87-.55,2-1.17,4-2.45,6-3.66l.1-.06Zm-7.17,9.23c2-1.15,3.89-2.39,5.83-3.57,1.16-.7,2.31-1.42,3.47-2.13l2.14,4.06q-2.61,1.52-5.22,3.07c-1.73,1-3.5,2-5.23,3.09C249,214.32,248.65,212.82,248.31,211.31ZM258.63,205l1-.63.5-.31a1.14,1.14,0,0,1,.1.19c.33.7.65,1.41.95,2.13s.51,1.37.74,2.06l-1.17.68Zm-23.5-18.74,17.36,13.52-.19.12c-2,1.17-4,2.3-5.92,3.52l-.09.05-.32.21-.12.37c0,.12-.07.24-.11.35-.42,1.26-.87,2.51-1.3,3.77a20.17,20.17,0,0,0-1.87.89c-.47.25-1,.51-1.45.81-.24.15-.48.31-.7.48l.71.54,2,1.48c1.78,1.35,3.57,2.7,5.41,4l.36.26.05.12.07,0,.4-.23a0,0,0,0,1,0,0h0c1.89-1.12,3.74-2.31,5.59-3.44q2.47-1.5,4.9-3l10.4,19.69c-5.9,2.2-12.83,1.65-18.92.19a46.78,46.78,0,0,1-19.89-10c-4.74-4.17-8.72-9.54-8.87-15.44-.13-5.2,3-10.55,8.55-13.39.06,0,0-.1,0-.07A14.58,14.58,0,0,0,221.55,206c.79,6.39,5.19,11.8,10.7,16.18A48.85,48.85,0,0,0,256,232a32.27,32.27,0,0,0,14.94-1.16l4.59,8.68a32,32,0,0,1-16.39,2.34,59.29,59.29,0,0,1-35.77-17.28,49.45,49.45,0,0,1-7.46-11.36,18.8,18.8,0,0,1-1.26-11.8c0-.14.07-.27.1-.41a16.93,16.93,0,0,1,2.72-5.86,19.2,19.2,0,0,1,3-3.32l.38-.33a23.91,23.91,0,0,1,13-5.17C234.32,186.28,234.72,186.25,235.13,186.23ZM160.4,128.12l47.84,37.16L233.59,185a35.06,35.06,0,0,0-15.39,3.83l-.17-.17c-10-9.82-20.2-19.34-30.44-28.88q-33-30.75-65.88-61.68l-.34-.32Zm-2.73,5.77c19.87,18.51,39.43,37.4,59.83,55.33a39.25,39.25,0,0,0-8.64,6.26l0,0c-9.64-9-19.51-17.69-29.39-26.42q-33.72-29.84-67.3-59.82-16.69-15-33.62-29.74Q70,72,61.46,64.63l-2.24-1.94c1.09-.28,2.17-.6,3.24-.86,2.34-.57,4.67-1.15,7-1.74l2-.51.48-.13,33.45,26Q131.54,109.68,157.67,133.89ZM57.19,62.69c0,.17-.09.33-.13.49-.09.31-.18.62-.26.93-.22-.26-.44-.53-.67-.79l-.47-.54c-.33-.39-.66-.76-1-1.13l-.35-.39.24-1c0-.15.07-.29.1-.43s.09-.35.13-.53l.09-.38c.09-.34.17-.69.26-1s.24-.92.35-1.38c.73.64,1.46,1.27,2.2,1.89l.29.24.35.3-.09.28c-.22.68-.43,1.36-.63,2-.1.3-.19.61-.28.92S57.23,62.54,57.19,62.69Zm1.1-4.4c-.73-.72-1.46-1.43-2.21-2.13.93-.25,1.85-.52,2.77-.74l.7-.17.44-.11,4.87-1.21.41.31,2.4,1.87-6.35,1.51-2.07.46-.7.15ZM59,59h0c.93-.26,1.85-.52,2.76-.74,2.2-.54,4.39-1.08,6.58-1.64l.41.32,2.54,2-2,.46c-2.45.58-4.89,1.15-7.33,1.74-1.18.29-2.41.52-3.62.81a.93.93,0,0,0-.15-.13c.24-.79.46-1.59.68-2.39,0-.13.07-.26.1-.39Zm17.42-.78.49.47c4.83,4.6,9.67,9.2,14.55,13.74l8,7.44L72.78,59.24l3.57-1Zm.4-1.76c-.13.44-.26.88-.38,1.31l-.4.09-3.91.86-3-2.3c1.42-.35,2.82-.72,4.23-1.1.57-.14,1.13-.29,1.7-.45l2.42-.65C77.31,55,77.08,55.75,76.86,56.5Zm-11-2.82,1-.26.32-.08,3.2-.84L72,52.08l2.58-.7c1,.86,1.94,1.7,2.92,2.53h0l-2.78.6-1.75.39c-1.43.31-2.87.63-4.29,1l-.16,0-2.83-2.19Zm0-.73-.21,0-.76.18-.54-.34-4.11-2.6-2.69-1.71A81.69,81.69,0,0,0,65.9,53Zm-10.77-6-4.36-2.83L46.14,41c0-.14,0-.29,0-.43C49.14,42.75,52.09,44.91,55.13,46.94Zm-9.74-4.56c-.09.86-.18,1.72-.26,2.57a3,3,0,0,1-3.35-.48,5,5,0,0,1-.7-.67l0-2.29.17.12.32.22a6,6,0,0,0,.66.35l.35.15.38.12a2.33,2.33,0,0,0,.38.08,2.63,2.63,0,0,0,.39.06,2.67,2.67,0,0,0,.4,0,2.83,2.83,0,0,0,.41,0,3.16,3.16,0,0,0,.79-.2Zm-3.1-31a1.8,1.8,0,0,1,1.65-.5,3.64,3.64,0,0,1,1.13.48,8.61,8.61,0,0,0,.83.49L46,12a1,1,0,0,1,.09.27,1.29,1.29,0,0,1-1,1.47,3.94,3.94,0,0,1-2.25-.45c-.69-.36-.89-.85-.79-1.3A1.15,1.15,0,0,1,42.29,11.42Zm-.53,13.67-.43-.1c-3.24-.82-6.51-2.76-6.75-6.25a6,6,0,0,1,3.27-5.3,17.32,17.32,0,0,1,3.71-1.33,2,2,0,0,0,1.26,1.71c1,.46,2.79.82,3.43-.43a1.57,1.57,0,0,0,.06-1.27c3,1.21,5.81,3,6.23,6.71s-2.43,5.84-5.64,6.45l-.38.06a10.76,10.76,0,0,1-2.19.11A15.39,15.39,0,0,1,41.76,25.09ZM41,29.16h0a17.11,17.11,0,0,0,5.2.23s0-.05,0-.05a32.62,32.62,0,0,1-4.72-.84,4.09,4.09,0,0,0,.48-2.16,13.59,13.59,0,0,0,4.44.2,4.45,4.45,0,0,0,.7,2.51c-.53,3.27-.95,6.54-1.32,9.83l-.15,1.33,0,.35c0,.15,0,.31,0,.47h-.2l-.07,0-.11.06-.23.11a3,3,0,0,1-.52.13,2.28,2.28,0,0,1-.26,0,2.62,2.62,0,0,1-.28,0,1.26,1.26,0,0,1-.27,0l-.28-.06L43,41.2l-.27-.11c-.18-.07-.35-.19-.53-.28L42,40.64l-.24-.17L41.24,40,41.12,40c0-1,0-2,0-3,0-.15,0-.29,0-.43v-1C41.11,33.4,41.07,31.28,41,29.16ZM39.82,63.67c.32-2,.55-3.91.72-5.88L44.09,61c0,1.23,0,2.46.1,3.68A6.48,6.48,0,0,1,39.82,63.67ZM167.58,167.25q-39.09-34.29-78-68.74Q71.13,82.1,52.45,65.89l-.15-.13-1.65-1.44L45.4,59.76l-1.28-1.1-3.42-3-1.18-1q-4.31-3.74-8.63-7.45C25.75,42.81,20.59,38.36,15.34,34c3.2-2.37,8.74,2.59,11.32,4.38,4.3,3,8.53,6,12.85,9,0,0,.09,0,0-.07-5.39-4.24-10.78-8.52-16.3-12.58C21.77,33.66,20,32.35,18.11,32a21.91,21.91,0,0,1,8.08-1.43,27.59,27.59,0,0,1,8.62,1.7h0c1.92,1.39,3.82,2.79,5.73,4.19,0,1.17,0,2.33,0,3.5a.58.58,0,0,0-.12.1.61.61,0,0,0,.08.87h0c0,.61,0,1.22-.06,1.82,0,.38,0,.75,0,1.12v0a4.78,4.78,0,0,0,.71.84,4,4,0,0,0,1.93,1,3.42,3.42,0,0,0,2.07-.24,2.88,2.88,0,0,0,.76-.53c0-.2,0-.4,0-.61,0-.68.1-1.37.15-2,1.42.83,2.83,1.69,4.25,2.53l4.44,2.71.39.23c1.61,1,3.22,2,4.82,3l4.13,2.58-3.85.91-.35.08-1.48.35c-.84.21-1.71.38-2.57.57h0l-.51.11-.16,0c-.06.2-.13.39-.19.59s-.09.29-.14.44c-.13.4-.27.81-.4,1.22-.07.22-.15.43-.22.65l-1.71-1.45-.57-.48c-2.1-1.78-4.21-3.54-6.34-5.26l-1-.77c0,.17,0,.35,0,.52l1,.95c2.7,2.6,5.45,5.16,8.22,7.7l-.28.81c-.18.53-.35,1.08-.5,1.62l.88.78h0c.87.77,1.77,1.53,2.68,2.27l.5.41c.09-.25.17-.49.25-.74s.09-.27.13-.41c.12-.36.24-.72.35-1.08,1.63,1.47,3.27,2.95,4.89,4.43,6.19,5.59,12.37,11.18,18.61,16.72,22.48,19.91,45.1,39.66,67.59,59.55,19.73,17.43,39.16,35.24,59.35,52.15a41.91,41.91,0,0,0-3.66,4.19C192.45,189.07,180,178.17,167.58,167.25Zm78.15,108.33c-15.21.11-29.09-8.34-38.26-20.88-9.78-13.39-13.05-33-5.18-48.24a38,38,0,0,1,2.93-4.75l.36-.5a38.46,38.46,0,0,1,3.71-4.23c.19-.19.38-.38.58-.56a38.17,38.17,0,0,1,8.78-6.2c.2-.11.41-.22.61-.31a38.57,38.57,0,0,1,6.59-2.56,24.85,24.85,0,0,0-5.82,3.31l-.46.36a18.68,18.68,0,0,0-4.86,5.9,16.77,16.77,0,0,0-1.17,3c0,.17-.1.35-.14.52a22.27,22.27,0,0,0,.92,13s0,0,0,.08l.21.44c.18.49.38,1,.59,1.46a28.46,28.46,0,0,0,5.36,8,53.88,53.88,0,0,0,15.93,13.45c8.54,4.76,18.6,7.65,28.43,6.76A31.55,31.55,0,0,0,276,240.38l4.65,8.81-.12,0c-3.67,1-5.78,5.48-6.47,9.5,0,.32-.1.63-.14.94l.72.52q1.27.88,2.61,1.68A43.92,43.92,0,0,1,245.73,275.58Zm34.4-17.14a14.18,14.18,0,0,0-1.44,3.35l-.84-.62c-1-.71-2-1.39-3.05-2a15.73,15.73,0,0,1,1.83-5.84,8.61,8.61,0,0,1,4.05-3.56l.2-.08,2.55,4.84c-.27.23-.53.47-.79.72l-.16.15c-.25.25-.49.51-.73.78A14.61,14.61,0,0,0,280.13,258.44Zm12.38,7.24c-2.6,3.74-8.3,3.88-9.79-.71a1.39,1.39,0,0,1-.06-.19s0-.1-.05-.16c-.27-1-.62-2.14-1.76-2.5a1.65,1.65,0,0,0-1.14,0c.15-.56.32-1.11.52-1.64h0a16.73,16.73,0,0,1,2.44-4.51l.13-.17c.28-.36.58-.72.9-1.07a.39.39,0,0,0,.28,0,.39.39,0,0,0,.18-.45l.19-.19c.29-.28.59-.56.91-.83a0,0,0,0,0,0,0l-.7.44-.49.36-1.92-3.7c.52.46,1.06.9,1.61,1.33l.43.32c.28.22.57.44.88.66.13.11.27.2.41.3h0a4.35,4.35,0,0,0,3.36,3.69,19.6,19.6,0,0,1,3.06.43,3.26,3.26,0,0,1,2,2.61A8.2,8.2,0,0,1,292.51,265.68Z"/>
        <path class="cls-10" d="M220.65,217.25a2.52,2.52,0,0,0,3.5-1.87,2.27,2.27,0,0,0-1.49-2.47,2.3,2.3,0,0,0-2.95.61A2.49,2.49,0,0,0,220.65,217.25Zm-.7-3.56c.86-1.11,2.25-.83,3.22,0a.11.11,0,0,0,.08,0,2,2,0,0,1,.42,1.9,2.11,2.11,0,1,1-3.72-1.87Z"/>
        <path class="cls-10" d="M221.83,196.67a2.26,2.26,0,0,0-.25-.29,2.17,2.17,0,0,0-.78-.55,2.23,2.23,0,0,0-2.69.49,1.88,1.88,0,0,0,.7,3c1.27.58,3,.16,3.22-1.39a1.89,1.89,0,0,0-.2-1.17S221.85,196.69,221.83,196.67Zm-.21,1.11a1.79,1.79,0,0,1-2.67,1.13,1.53,1.53,0,0,1,.11-2.92,2.82,2.82,0,0,1,2.09.38A1.65,1.65,0,0,1,221.62,197.78Z"/>
      </g>
    </g>
  </g>
</svg>
