<svg id="Layer_1" data-name="Layer 1" xmlns="http://www.w3.org/2000/svg" width="207.52" height="260.43" viewBox="0 0 207.52 260.43">
  <defs>
    <style>
      .cls-1 {
        opacity: 0.3;
      }

      .cls-2 {
        fill: #fff;
      }

      .cls-3 {
        fill: #c79e70;
      }

      .cls-4 {
        fill: #bc8857;
      }

      .cls-5 {
        fill: #8a5d3b;
      }

      .cls-6 {
        fill: #c7ab8f;
      }

      .cls-7 {
        fill: #c3bab1;
      }

      .cls-8 {
        fill: none;
        stroke: #fff;
        stroke-miterlimit: 10;
        stroke-width: 2px;
      }
    </style>
  </defs>
  <g>
    <g class="cls-1">
      <path d="M44.15,256.51a9.46,9.46,0,0,1-5.86-2.13,9.4,9.4,0,0,1-4.94,1.43,8.71,8.71,0,0,1-5.58-2,9.63,9.63,0,0,1-3.78.77h-.13a8.64,8.64,0,0,1-6.72-2.92,8,8,0,0,1-1.33-2.14h-.42A8.71,8.71,0,0,1,13,249.2c-3.29-.94-5.58-3.22-6.13-6.1,0-.22-.07-.43-.09-.65l-2.57-.93,3.87-4a8.91,8.91,0,0,1,2.18-2.28l4.33-4.51c.71-.76,1.53-1.62,2.42-2.53l6-6.27.06.34.87-.81.38-.22c11-6.38,23-24.19,25.25-37.36,2.29-13.74,9.07-43.94,18.33-59.91l.07-.11.08-.11c8.15-12,10.23-30.58,10.43-32.47V27l46.08-14.56v-.27l6.9-1.91,16.05-5.07-1,6.11c-.1.63-9.8,62.88-9.54,81,.07,4.74.58,8.09,1.59,10.53a35.12,35.12,0,0,0,6.12,7.25l1.33,1.3v0a40.84,40.84,0,0,1,5.15,6.55,32,32,0,0,1,2.91,5.79c3.33,8.19,3.13,16.35-.57,23.59a17.66,17.66,0,0,1-2.41,3.91c-.34.47-.67.9-1,1.31l-.21.25-1.25,1.09c-2.81,2.87-6.67,6.11-22.26,18l-.17.16-.2.17c-4.26,3.65-11.39,9.75-15.52,21.28-.52,1.55-1,3.16-1.35,4.8-.45,3.2-.73,6-1,8.54a72,72,0,0,1-1.54,10.42c-1.45,7.5-7.22,13.75-16.68,18.07A32.87,32.87,0,0,1,85.82,237,51.17,51.17,0,0,1,79,238.88l-.3.08-2.22.65c-4.41,1.28-5.68,1.65-7.66,3.53a35,35,0,0,1-3.19,3.52L64.52,248l-.49.32c-.71.46-1.34.86-1.9,1.2a16.89,16.89,0,0,1-3.69,1.91l-.28.1-.83.25-.18,0-.14,0a11,11,0,0,1-2.45.29h0a9.64,9.64,0,0,1-1.87-.18C50.76,254.25,47.81,256.51,44.15,256.51Z"/>
      <path d="M148.08,148.83a13.61,13.61,0,0,0,2-3.21c3.5-6.79,3.1-14,.45-20.51a28.27,28.27,0,0,0-2.57-5.13,37.8,37.8,0,0,0-5.75-7h0c-3.58-3.49-5.76-6.07-7.07-8.48-1.17-2.71-1.89-6.39-2-12.15-.28-18.62,9.58-81.61,9.58-81.61l-10.21,3.23-4.16,1.15v.16L82.27,29.81V91.43s-1.85,20.8-11.09,34.43c-8.63,14.86-15.4,43.82-17.87,58.61s-15.4,33.27-27.11,40.05c-2.25,2.1-4.15,3.95-5.75,5.56v0l-.75.79c-.9.92-1.7,1.75-2.39,2.49l-4.6,4.8a4.89,4.89,0,0,0-1.63,1.7l-.08.08,0,0a3.74,3.74,0,0,0-.44,2.45c.41,2.18,2.89,3,3.41,3.12a6.06,6.06,0,0,0,5.22-1.21,5.31,5.31,0,0,0,.82,4.86,5.09,5.09,0,0,0,3.87,1.6,6.38,6.38,0,0,0,4.62-2.07,5.72,5.72,0,0,0,3.63,3.14A5.8,5.8,0,0,0,38.39,249c5.75,7.94,11.5,1.09,12.87-1.64a6,6,0,0,0,4.93.81l.09,0,.12,0,.49-.15.16-.05h0a13.41,13.41,0,0,0,3-1.56c.56-.33,1.18-.72,1.89-1.18.31-.39.61-.75.9-1.09A30.39,30.39,0,0,0,66,240.58c3.18-3.11,5.25-3.39,11.72-5.31l.46-.12a46.66,46.66,0,0,0,6.44-1.81,28.41,28.41,0,0,0,3.69-1.49c6.72-3.06,13.2-8,14.58-15.44,1.22-4.67,1.31-10.38,2.5-18.82a53.79,53.79,0,0,1,1.5-5.35c4.54-12.7,12.52-19.41,16.84-23.11l.22-.2c15.79-12.06,19.42-15.13,22.08-17.87l1.11-1C147.45,149.68,147.77,149.26,148.08,148.83Z"/>
    </g>
    <g>
      <path class="cls-2" d="M40,255.63a9.48,9.48,0,0,1-5.86-2.12,9.47,9.47,0,0,1-4.94,1.43,8.83,8.83,0,0,1-2.11-.26,8.67,8.67,0,0,1-3.46-1.74,9.66,9.66,0,0,1-3.78.78h-.14A8.67,8.67,0,0,1,13,250.79a8.09,8.09,0,0,1-1.33-2.14h-.41a8.71,8.71,0,0,1-2.44-.34c-3.3-.93-5.59-3.22-6.13-6.1,0-.21-.07-.43-.09-.64L0,240.64l3.87-4a8.71,8.71,0,0,1,2.18-2.27l4.33-4.52c.7-.76,1.53-1.62,2.42-2.52l6-6.28.06.35c.18-.18.87-.82.87-.82l.38-.22c11-6.38,23.05-24.18,25.25-37.36,2.29-13.74,9.07-43.94,18.33-59.9l.07-.12.07-.11c8.16-12,10.24-30.58,10.43-32.47V26.12l46.09-14.56V11.3l6.89-1.92L143.3,4.31l-1,6.12c-.1.62-9.81,62.87-9.54,80.95.07,4.74.57,8.1,1.59,10.53a34.86,34.86,0,0,0,6.12,7.25l1.33,1.3v0A41.88,41.88,0,0,1,147,117a31.12,31.12,0,0,1,2.9,5.8c3.33,8.19,3.14,16.34-.57,23.58a16.74,16.74,0,0,1-2.41,3.91c-.34.47-.67.9-1,1.32l-.2.25L144.45,153c-2.81,2.87-6.66,6.11-22.25,18l-.18.16-.2.17c-4.25,3.64-11.38,9.75-15.51,21.28-.52,1.54-1,3.15-1.35,4.79-.45,3.21-.74,6-1,8.54a73.73,73.73,0,0,1-1.54,10.43c-1.46,7.49-7.22,13.74-16.68,18.06a31.4,31.4,0,0,1-4.09,1.65A52.48,52.48,0,0,1,74.84,238l-.3.08-2.22.64c-4.4,1.28-5.68,1.65-7.66,3.54a35.55,35.55,0,0,1-3.18,3.52l-1.12,1.35-.5.32c-.71.46-1.33.86-1.9,1.2a16.51,16.51,0,0,1-3.69,1.92l-.27.09a8.17,8.17,0,0,1-.83.25L53,251l-.14,0a10.9,10.9,0,0,1-2.45.28h0a9.54,9.54,0,0,1-1.86-.17C46.6,253.37,43.64,255.63,40,255.63Z"/>
      <path class="cls-2" d="M143.91,148a13.21,13.21,0,0,0,2-3.2c3.51-6.8,3.1-14,.45-20.51a26.82,26.82,0,0,0-2.57-5.14,36.92,36.92,0,0,0-5.75-7h0c-3.58-3.5-5.75-6.07-7.06-8.49-1.18-2.71-1.89-6.39-2-12.15-.27-18.62,9.59-81.61,9.59-81.61l-10.22,3.23-4.16,1.15v.17L78.11,28.93V90.55S76.26,111.35,67,125c-8.63,14.86-15.41,43.82-17.87,58.61s-15.41,33.27-27.11,40c-2.25,2.1-4.15,4-5.75,5.56h0l-.75.78c-.91.92-1.71,1.76-2.4,2.49l-4.59,4.8A5,5,0,0,0,6.91,239l-.07.08h0a3.69,3.69,0,0,0-.44,2.45c.41,2.18,2.89,3,3.41,3.13a6.1,6.1,0,0,0,5.21-1.21,5.38,5.38,0,0,0,.82,4.86,5.1,5.1,0,0,0,3.88,1.59,6.35,6.35,0,0,0,4.61-2.07A5.81,5.81,0,0,0,28,251a5.8,5.8,0,0,0,6.23-2.88c5.75,7.94,11.5,1.1,12.87-1.64a6.05,6.05,0,0,0,4.93.81l.1,0,.11,0,.5-.15.15-.05h0a13,13,0,0,0,3-1.55c.55-.34,1.18-.73,1.88-1.19l.91-1.09a30.53,30.53,0,0,0,3.12-3.46c3.18-3.11,5.24-3.39,11.72-5.31l.46-.12a48.27,48.27,0,0,0,6.43-1.8,27.76,27.76,0,0,0,3.7-1.5c6.72-3.06,13.2-8.05,14.57-15.43,1.23-4.67,1.32-10.38,2.5-18.83.4-1.76.9-3.55,1.5-5.35,4.55-12.7,12.53-19.4,16.85-23.1a2.09,2.09,0,0,1,.22-.2c15.79-12.07,19.41-15.14,22.08-17.87l1.11-1C143.28,148.8,143.61,148.38,143.91,148Z"/>
    </g>
    <g>
      <path class="cls-3" d="M77.86,28.76V90.38S76,111.18,66.77,124.81c-8.63,14.86-15.41,43.82-17.87,58.61s-15.41,33.27-27.11,40.05c-9.25,8.63-12.74,13.21-12.74,13.21a4.45,4.45,0,0,0-2.87,4.66c.41,2.18,2.89,3,3.4,3.13a6.12,6.12,0,0,0,5.22-1.21,5.34,5.34,0,0,0,.82,4.86,5.1,5.1,0,0,0,3.88,1.59,6.35,6.35,0,0,0,4.61-2.07,5.81,5.81,0,0,0,3.63,3.15A5.81,5.81,0,0,0,34,247.91c5.75,7.94,11.5,1.1,12.87-1.64,6.58,4.38,14.79-6.85,14.79-6.85s2.74-3.56,11.5-5.2,24.1-7.67,25.47-20S99.7,183,119.41,168s20.54-16.16,24.1-20,7.67-17,0-29-14.51-9-14.79-27.66,9.59-81.61,9.59-81.61Z"/>
      <path class="cls-4" d="M137.76,10.21s-9.86,68.19-9,78.87c0,10.68-.54,13.47,9,22.83s15.2,24.55,4.93,37.14c-11.91,10.41-20.4,16.16-23.41,19-4.8,4.11-14.11,11.92-18.21,27.53-2.33,15.88-.69,22.32-8.91,29.85-8.07,5.88-9.85,6.43-18.89,8.76-8.76,2.6-9.45,2.19-15.75,9.86-5.47,3.56-5.88,3.15-8.35,3,5.2-2.6,11.64-9,12.87-12.6s14.93-6.43,18.9-9.44,11.77-11.51,12.59-20.27,2.74-25.19,14.24-34.5,26.7-26.16,26.84-31.91,2.33-25.6-7.26-35.19L125,100.31l-1.51-1.51L123.93,14Z"/>
      <path class="cls-5" d="M16,242.16a34.59,34.59,0,0,1,4.55-8.3,56.67,56.67,0,0,1,6.23-7.18c1.18-1.05,2.32-2.15,3.58-3.12s2.48-2,3.78-2.87,2.66-1.71,4-2.57,2.77-1.52,4.16-2.25c-1.31.88-2.67,1.68-4,2.56s-2.62,1.74-3.84,2.73a74.42,74.42,0,0,0-7.18,6.06,63,63,0,0,0-6.29,7,41.59,41.59,0,0,0-2.71,3.85A34.32,34.32,0,0,0,16,242.16Z"/>
      <path class="cls-5" d="M31.32,247.18a34.21,34.21,0,0,1,4.54-8.3,56.77,56.77,0,0,1,6.23-7.18c1.18-1.06,2.33-2.15,3.58-3.13s2.48-2,3.78-2.86,2.66-1.71,4-2.57,2.77-1.52,4.17-2.25c-1.32.88-2.67,1.68-4,2.56s-2.61,1.74-3.84,2.73a74.2,74.2,0,0,0-7.18,6.06,63,63,0,0,0-6.29,7c-1,1.23-1.87,2.51-2.71,3.84A33.78,33.78,0,0,0,31.32,247.18Z"/>
      <path class="cls-5" d="M23,247.18a37.87,37.87,0,0,1,4.05-9.05,47.44,47.44,0,0,1,13.45-14.52,49.64,49.64,0,0,1,4.2-2.67c.7-.44,1.47-.76,2.21-1.13l2.24-1.06a66.68,66.68,0,0,0-8.31,5.33,51.11,51.11,0,0,0-7.28,6.59,52.18,52.18,0,0,0-6,7.76A48.35,48.35,0,0,0,23,247.18Z"/>
      <path class="cls-5" d="M44.46,247.18a17.29,17.29,0,0,1,2.88-7.36,34,34,0,0,1,5.08-6.14,54.09,54.09,0,0,1,6.13-5.07c1.11-.72,2.2-1.46,3.32-2.17s2.3-1.32,3.46-1.94c-1.08.77-2.18,1.5-3.26,2.25l-3.18,2.33c-1,.84-2.07,1.62-3.06,2.47s-2,1.72-2.89,2.67a37.46,37.46,0,0,0-5.12,5.91,24.93,24.93,0,0,0-2,3.36A14.05,14.05,0,0,0,44.46,247.18Z"/>
      <path class="cls-6" d="M16,229s2.61,17.25-8.35,10.4l-1.09-.54Z"/>
      <path class="cls-7" d="M23,243.26s1.91,4.55-3.56,3.92-3.84-3.92,0-8.3L23.34,241Z"/>
      <path class="cls-7" d="M24.39,247.24s-.28-4.33,3.28-6.21l3.84,1.68s.81,6.57-3.57,6.3Z"/>
      <path class="cls-7" d="M34,247.24s.55-6,3.84-6.21l4.65,1.68L39.72,249S36.44,251.77,34,247.24Z"/>
      <path class="cls-7" d="M47.94,243.06s1.37-4.73,4.38-4.18,3.48,4-2.19,6.14Z"/>
    </g>
    <g>
      <line class="cls-8" x1="147.85" y1="174.91" x2="169.22" y2="202.85"/>
      <line class="cls-8" x1="161.71" y1="160.82" x2="190.22" y2="181.39"/>
      <line class="cls-8" x1="161.71" y1="142.45" x2="196.76" y2="145.3"/>
      <line class="cls-8" x1="163.88" y1="121.04" x2="194.59" y2="103.92"/>
    </g>
    <g class="cls-1">
      <line x1="148.17" y1="176.24" x2="169.53" y2="204.17"/>
      <line x1="162.03" y1="162.14" x2="190.54" y2="182.72"/>
      <line x1="162.03" y1="143.78" x2="197.07" y2="146.63"/>
      <line x1="164.19" y1="122.36" x2="194.91" y2="105.24"/>
    </g>
  </g>
</svg>
